<?xml version="1.0" encoding="UTF-8" standalone="no"?>
<!DOCTYPE svg PUBLIC "-//W3C//DTD SVG 1.1//EN"
 "http://www.w3.org/Graphics/SVG/1.1/DTD/svg11.dtd">
<!-- Generated by graphviz version 8.0.5 (20230430.1635)
 -->
<!-- Pages: 1 -->
<svg width="1255pt" height="673pt"
 viewBox="0.00 0.00 1254.93 673.45" xmlns="http://www.w3.org/2000/svg" xmlns:xlink="http://www.w3.org/1999/xlink">
<g id="graph0" class="graph" transform="scale(1 1) rotate(0) translate(4 669.45)">
<polygon fill="white" stroke="none" points="-4,4 -4,-669.45 1250.93,-669.45 1250.93,4 -4,4"/>
<g id="clust1" class="cluster">
<title>clusterobs (595)</title>
<path fill="none" stroke="black" d="M20,-8C20,-8 519,-8 519,-8 525,-8 531,-14 531,-20 531,-20 531,-539.45 531,-539.45 531,-545.45 525,-551.45 519,-551.45 519,-551.45 20,-551.45 20,-551.45 14,-551.45 8,-545.45 8,-539.45 8,-539.45 8,-20 8,-20 8,-14 14,-8 20,-8"/>
<text text-anchor="middle" x="497.12" y="-15.2" font-family="Times,serif" font-size="14.00">obs (595)</text>
</g>
<g id="clust2" class="cluster">
<title>clusterobs (595) x feature (3)</title>
<path fill="none" stroke="black" d="M25,-559.45C25,-559.45 140,-559.45 140,-559.45 146,-559.45 152,-565.45 152,-571.45 152,-571.45 152,-645.45 152,-645.45 152,-651.45 146,-657.45 140,-657.45 140,-657.45 25,-657.45 25,-657.45 19,-657.45 13,-651.45 13,-645.45 13,-645.45 13,-571.45 13,-571.45 13,-565.45 19,-559.45 25,-559.45"/>
<text text-anchor="middle" x="82.5" y="-566.65" font-family="Times,serif" font-size="14.00">obs (595) x feature (3)</text>
</g>
<!-- mean_revenue_per_user -->
<g id="node1" class="node">
<title>mean_revenue_per_user</title>
<polygon fill="none" stroke="black" points="473.38,-98 324.62,-98 324.62,-40.5 473.38,-40.5 473.38,-98"/>
<text text-anchor="middle" x="399" y="-80.7" font-family="Times,serif" font-size="14.00">mean_revenue_per_user</text>
<text text-anchor="middle" x="399" y="-64.2" font-family="Times,serif" font-size="14.00">~</text>
<text text-anchor="middle" x="399" y="-47.7" font-family="Times,serif" font-size="14.00">Deterministic</text>
</g>
<!-- revenue_estimated -->
<g id="node2" class="node">
<title>revenue_estimated</title>
<ellipse fill="lightgrey" stroke="black" cx="234" cy="-174.66" rx="83.44" ry="40.66"/>
<text text-anchor="middle" x="234" y="-186.11" font-family="Times,serif" font-size="14.00">revenue_estimated</text>
<text text-anchor="middle" x="234" y="-169.61" font-family="Times,serif" font-size="14.00">~</text>
<text text-anchor="middle" x="234" y="-153.11" font-family="Times,serif" font-size="14.00">Gamma</text>
</g>
<!-- revenue -->
<g id="node13" class="node">
<title>revenue</title>
<path fill="lightgrey" stroke="black" d="M265.62,-98C265.62,-98 202.38,-98 202.38,-98 196.38,-98 190.38,-92 190.38,-86 190.38,-86 190.38,-52.5 190.38,-52.5 190.38,-46.5 196.38,-40.5 202.38,-40.5 202.38,-40.5 265.62,-40.5 265.62,-40.5 271.62,-40.5 277.62,-46.5 277.62,-52.5 277.62,-52.5 277.62,-86 277.62,-86 277.62,-92 271.62,-98 265.62,-98"/>
<text text-anchor="middle" x="234" y="-80.7" font-family="Times,serif" font-size="14.00">revenue</text>
<text text-anchor="middle" x="234" y="-64.2" font-family="Times,serif" font-size="14.00">~</text>
<text text-anchor="middle" x="234" y="-47.7" font-family="Times,serif" font-size="14.00">MutableData</text>
</g>
<!-- revenue_estimated&#45;&gt;revenue -->
<g id="edge2" class="edge">
<title>revenue_estimated&#45;&gt;revenue</title>
<path fill="none" stroke="black" d="M234,-133.68C234,-125.64 234,-117.21 234,-109.21"/>
<polygon fill="black" stroke="black" points="237.5,-109.28 234,-99.28 230.5,-109.28 237.5,-109.28"/>
</g>
<!-- n_active_users_estimated -->
<g id="node3" class="node">
<title>n_active_users_estimated</title>
<ellipse fill="lightgrey" stroke="black" cx="158" cy="-291.98" rx="109.96" ry="40.66"/>
<text text-anchor="middle" x="158" y="-303.43" font-family="Times,serif" font-size="14.00">n_active_users_estimated</text>
<text text-anchor="middle" x="158" y="-286.93" font-family="Times,serif" font-size="14.00">~</text>
<text text-anchor="middle" x="158" y="-270.43" font-family="Times,serif" font-size="14.00">Binomial</text>
</g>
<!-- n_active_users_estimated&#45;&gt;revenue_estimated -->
<g id="edge15" class="edge">
<title>n_active_users_estimated&#45;&gt;revenue_estimated</title>
<path fill="none" stroke="black" d="M183.52,-252.26C189.79,-242.74 196.57,-232.45 203.07,-222.59"/>
<polygon fill="black" stroke="black" points="206.36,-224.96 208.94,-214.69 200.51,-221.11 206.36,-224.96"/>
</g>
<!-- n_active_users -->
<g id="node4" class="node">
<title>n_active_users</title>
<path fill="lightgrey" stroke="black" d="M120.12,-203.41C120.12,-203.41 47.88,-203.41 47.88,-203.41 41.88,-203.41 35.88,-197.41 35.88,-191.41 35.88,-191.41 35.88,-157.91 35.88,-157.91 35.88,-151.91 41.88,-145.91 47.88,-145.91 47.88,-145.91 120.12,-145.91 120.12,-145.91 126.12,-145.91 132.12,-151.91 132.12,-157.91 132.12,-157.91 132.12,-191.41 132.12,-191.41 132.12,-197.41 126.12,-203.41 120.12,-203.41"/>
<text text-anchor="middle" x="84" y="-186.11" font-family="Times,serif" font-size="14.00">n_active_users</text>
<text text-anchor="middle" x="84" y="-169.61" font-family="Times,serif" font-size="14.00">~</text>
<text text-anchor="middle" x="84" y="-153.11" font-family="Times,serif" font-size="14.00">MutableData</text>
</g>
<!-- n_active_users_estimated&#45;&gt;n_active_users -->
<g id="edge1" class="edge">
<title>n_active_users_estimated&#45;&gt;n_active_users</title>
<path fill="none" stroke="black" d="M132.95,-251.93C124.86,-239.33 115.92,-225.4 107.92,-212.94"/>
<polygon fill="black" stroke="black" points="110.36,-211.26 102.01,-204.73 104.47,-215.04 110.36,-211.26"/>
</g>
<!-- n_users -->
<g id="node5" class="node">
<title>n_users</title>
<path fill="lightgrey" stroke="black" d="M204.62,-426.13C204.62,-426.13 141.38,-426.13 141.38,-426.13 135.38,-426.13 129.38,-420.13 129.38,-414.13 129.38,-414.13 129.38,-380.63 129.38,-380.63 129.38,-374.63 135.38,-368.63 141.38,-368.63 141.38,-368.63 204.62,-368.63 204.62,-368.63 210.62,-368.63 216.62,-374.63 216.62,-380.63 216.62,-380.63 216.62,-414.13 216.62,-414.13 216.62,-420.13 210.62,-426.13 204.62,-426.13"/>
<text text-anchor="middle" x="173" y="-408.83" font-family="Times,serif" font-size="14.00">n_users</text>
<text text-anchor="middle" x="173" y="-392.33" font-family="Times,serif" font-size="14.00">~</text>
<text text-anchor="middle" x="173" y="-375.83" font-family="Times,serif" font-size="14.00">MutableData</text>
</g>
<!-- n_users&#45;&gt;n_active_users_estimated -->
<g id="edge13" class="edge">
<title>n_users&#45;&gt;n_active_users_estimated</title>
<path fill="none" stroke="black" d="M168.94,-368.4C167.83,-360.75 166.59,-352.21 165.36,-343.7"/>
<polygon fill="black" stroke="black" points="168.71,-343.41 163.81,-334.02 161.78,-344.42 168.71,-343.41"/>
</g>
<!-- lam -->
<g id="node6" class="node">
<title>lam</title>
<polygon fill="none" stroke="black" points="474.12,-320.73 383.88,-320.73 383.88,-263.23 474.12,-263.23 474.12,-320.73"/>
<text text-anchor="middle" x="429" y="-303.43" font-family="Times,serif" font-size="14.00">lam</text>
<text text-anchor="middle" x="429" y="-286.93" font-family="Times,serif" font-size="14.00">~</text>
<text text-anchor="middle" x="429" y="-270.43" font-family="Times,serif" font-size="14.00">Deterministic</text>
</g>
<!-- lam&#45;&gt;revenue_estimated -->
<g id="edge14" class="edge">
<title>lam&#45;&gt;revenue_estimated</title>
<path fill="none" stroke="black" d="M383.77,-264.23C357.48,-248.68 323.98,-228.87 295.34,-211.93"/>
<polygon fill="black" stroke="black" points="297.61,-208.62 287.22,-206.54 294.05,-214.65 297.61,-208.62"/>
</g>
<!-- mean_revenue_per_active_user -->
<g id="node9" class="node">
<title>mean_revenue_per_active_user</title>
<polygon fill="none" stroke="black" points="522.88,-203.41 335.12,-203.41 335.12,-145.91 522.88,-145.91 522.88,-203.41"/>
<text text-anchor="middle" x="429" y="-186.11" font-family="Times,serif" font-size="14.00">mean_revenue_per_active_user</text>
<text text-anchor="middle" x="429" y="-169.61" font-family="Times,serif" font-size="14.00">~</text>
<text text-anchor="middle" x="429" y="-153.11" font-family="Times,serif" font-size="14.00">Deterministic</text>
</g>
<!-- lam&#45;&gt;mean_revenue_per_active_user -->
<g id="edge16" class="edge">
<title>lam&#45;&gt;mean_revenue_per_active_user</title>
<path fill="none" stroke="black" d="M429,-262.77C429,-248.14 429,-230.05 429,-214.16"/>
<polygon fill="black" stroke="black" points="432.5,-214.58 429,-204.58 425.5,-214.58 432.5,-214.58"/>
</g>
<!-- mu -->
<g id="node7" class="node">
<title>mu</title>
<ellipse fill="none" stroke="black" cx="70" cy="-502.79" rx="54.27" ry="40.66"/>
<text text-anchor="middle" x="70" y="-514.24" font-family="Times,serif" font-size="14.00">mu</text>
<text text-anchor="middle" x="70" y="-497.74" font-family="Times,serif" font-size="14.00">~</text>
<text text-anchor="middle" x="70" y="-481.24" font-family="Times,serif" font-size="14.00">BART_mu</text>
</g>
<!-- p -->
<g id="node11" class="node">
<title>p</title>
<polygon fill="none" stroke="black" points="111.12,-426.13 20.88,-426.13 20.88,-368.63 111.12,-368.63 111.12,-426.13"/>
<text text-anchor="middle" x="66" y="-408.83" font-family="Times,serif" font-size="14.00">p</text>
<text text-anchor="middle" x="66" y="-392.33" font-family="Times,serif" font-size="14.00">~</text>
<text text-anchor="middle" x="66" y="-375.83" font-family="Times,serif" font-size="14.00">Deterministic</text>
</g>
<!-- mu&#45;&gt;p -->
<g id="edge4" class="edge">
<title>mu&#45;&gt;p</title>
<path fill="none" stroke="black" d="M68.45,-461.81C68.14,-453.78 67.82,-445.34 67.51,-437.34"/>
<polygon fill="black" stroke="black" points="70.97,-437.27 67.08,-427.41 63.97,-437.54 70.97,-437.27"/>
</g>
<!-- lam_log -->
<g id="node8" class="node">
<title>lam_log</title>
<polygon fill="none" stroke="black" points="523.12,-426.13 432.88,-426.13 432.88,-368.63 523.12,-368.63 523.12,-426.13"/>
<text text-anchor="middle" x="478" y="-408.83" font-family="Times,serif" font-size="14.00">lam_log</text>
<text text-anchor="middle" x="478" y="-392.33" font-family="Times,serif" font-size="14.00">~</text>
<text text-anchor="middle" x="478" y="-375.83" font-family="Times,serif" font-size="14.00">Deterministic</text>
</g>
<!-- lam_log&#45;&gt;lam -->
<g id="edge11" class="edge">
<title>lam_log&#45;&gt;lam</title>
<path fill="none" stroke="black" d="M464.74,-368.4C459.24,-356.79 452.77,-343.14 446.86,-330.67"/>
<polygon fill="black" stroke="black" points="449.72,-329.52 442.27,-321.98 443.39,-332.52 449.72,-329.52"/>
</g>
<!-- mean_revenue_per_active_user&#45;&gt;mean_revenue_per_user -->
<g id="edge18" class="edge">
<title>mean_revenue_per_active_user&#45;&gt;mean_revenue_per_user</title>
<path fill="none" stroke="black" d="M420.88,-145.67C417.58,-134.29 413.71,-120.96 410.15,-108.69"/>
<polygon fill="black" stroke="black" points="413.27,-107.89 407.12,-99.26 406.55,-109.84 413.27,-107.89"/>
</g>
<!-- age_scaled -->
<g id="node10" class="node">
<title>age_scaled</title>
<path fill="lightgrey" stroke="black" d="M509.62,-531.54C509.62,-531.54 446.38,-531.54 446.38,-531.54 440.38,-531.54 434.38,-525.54 434.38,-519.54 434.38,-519.54 434.38,-486.04 434.38,-486.04 434.38,-480.04 440.38,-474.04 446.38,-474.04 446.38,-474.04 509.62,-474.04 509.62,-474.04 515.62,-474.04 521.62,-480.04 521.62,-486.04 521.62,-486.04 521.62,-519.54 521.62,-519.54 521.62,-525.54 515.62,-531.54 509.62,-531.54"/>
<text text-anchor="middle" x="478" y="-514.24" font-family="Times,serif" font-size="14.00">age_scaled</text>
<text text-anchor="middle" x="478" y="-497.74" font-family="Times,serif" font-size="14.00">~</text>
<text text-anchor="middle" x="478" y="-481.24" font-family="Times,serif" font-size="14.00">MutableData</text>
</g>
<!-- age_scaled&#45;&gt;lam_log -->
<g id="edge6" class="edge">
<title>age_scaled&#45;&gt;lam_log</title>
<path fill="none" stroke="black" d="M478,-473.81C478,-462.54 478,-449.36 478,-437.19"/>
<polygon fill="black" stroke="black" points="481.5,-437.39 478,-427.39 474.5,-437.39 481.5,-437.39"/>
</g>
<!-- p&#45;&gt;mean_revenue_per_user -->
<g id="edge17" class="edge">
<title>p&#45;&gt;mean_revenue_per_user</title>
<path fill="none" stroke="black" d="M49.24,-368.3C20.16,-315.52 -31.23,-200.85 27,-134 65.31,-90.02 229.72,-109.03 287,-98 295.7,-96.33 304.73,-94.4 313.72,-92.37"/>
<polygon fill="black" stroke="black" points="314.28,-95.6 323.24,-89.93 312.7,-88.78 314.28,-95.6"/>
</g>
<!-- p&#45;&gt;n_active_users_estimated -->
<g id="edge12" class="edge">
<title>p&#45;&gt;n_active_users_estimated</title>
<path fill="none" stroke="black" d="M90.9,-368.4C98.96,-359.34 108.12,-349.04 117.04,-339.02"/>
<polygon fill="black" stroke="black" points="119.07,-341.88 123.1,-332.08 113.84,-337.22 119.07,-341.88"/>
</g>
<!-- cohort_age_scaled -->
<g id="node12" class="node">
<title>cohort_age_scaled</title>
<path fill="lightgrey" stroke="black" d="M404.25,-531.54C404.25,-531.54 311.75,-531.54 311.75,-531.54 305.75,-531.54 299.75,-525.54 299.75,-519.54 299.75,-519.54 299.75,-486.04 299.75,-486.04 299.75,-480.04 305.75,-474.04 311.75,-474.04 311.75,-474.04 404.25,-474.04 404.25,-474.04 410.25,-474.04 416.25,-480.04 416.25,-486.04 416.25,-486.04 416.25,-519.54 416.25,-519.54 416.25,-525.54 410.25,-531.54 404.25,-531.54"/>
<text text-anchor="middle" x="358" y="-514.24" font-family="Times,serif" font-size="14.00">cohort_age_scaled</text>
<text text-anchor="middle" x="358" y="-497.74" font-family="Times,serif" font-size="14.00">~</text>
<text text-anchor="middle" x="358" y="-481.24" font-family="Times,serif" font-size="14.00">MutableData</text>
</g>
<!-- cohort_age_scaled&#45;&gt;lam_log -->
<g id="edge7" class="edge">
<title>cohort_age_scaled&#45;&gt;lam_log</title>
<path fill="none" stroke="black" d="M390.47,-473.81C404.88,-461.39 421.99,-446.65 437.25,-433.5"/>
<polygon fill="black" stroke="black" points="439.21,-435.57 444.5,-426.39 434.64,-430.27 439.21,-435.57"/>
</g>
<!-- x -->
<g id="node14" class="node">
<title>x</title>
<path fill="lightgrey" stroke="black" d="M101.62,-649.45C101.62,-649.45 38.38,-649.45 38.38,-649.45 32.38,-649.45 26.38,-643.45 26.38,-637.45 26.38,-637.45 26.38,-603.95 26.38,-603.95 26.38,-597.95 32.38,-591.95 38.38,-591.95 38.38,-591.95 101.62,-591.95 101.62,-591.95 107.62,-591.95 113.62,-597.95 113.62,-603.95 113.62,-603.95 113.62,-637.45 113.62,-637.45 113.62,-643.45 107.62,-649.45 101.62,-649.45"/>
<text text-anchor="middle" x="70" y="-632.15" font-family="Times,serif" font-size="14.00">x</text>
<text text-anchor="middle" x="70" y="-615.65" font-family="Times,serif" font-size="14.00">~</text>
<text text-anchor="middle" x="70" y="-599.15" font-family="Times,serif" font-size="14.00">MutableData</text>
</g>
<!-- x&#45;&gt;mu -->
<g id="edge3" class="edge">
<title>x&#45;&gt;mu</title>
<path fill="none" stroke="black" d="M70,-591.64C70,-580.55 70,-567.45 70,-554.8"/>
<polygon fill="black" stroke="black" points="73.5,-554.86 70,-544.86 66.5,-554.86 73.5,-554.86"/>
</g>
<!-- b_age_scaled -->
<g id="node15" class="node">
<title>b_age_scaled</title>
<ellipse fill="none" stroke="black" cx="912" cy="-502.79" rx="62.76" ry="40.66"/>
<text text-anchor="middle" x="912" y="-514.24" font-family="Times,serif" font-size="14.00">b_age_scaled</text>
<text text-anchor="middle" x="912" y="-497.74" font-family="Times,serif" font-size="14.00">~</text>
<text text-anchor="middle" x="912" y="-481.24" font-family="Times,serif" font-size="14.00">Normal</text>
</g>
<!-- b_age_scaled&#45;&gt;lam_log -->
<g id="edge5" class="edge">
<title>b_age_scaled&#45;&gt;lam_log</title>
<path fill="none" stroke="black" d="M866.96,-474.06C858.25,-469.54 849.02,-465.31 840,-462.13 735.67,-425.36 606.64,-409.16 534.21,-402.53"/>
<polygon fill="black" stroke="black" points="534.78,-398.98 524.51,-401.58 534.16,-405.95 534.78,-398.98"/>
</g>
<!-- b_age_cohort_age_interaction -->
<g id="node16" class="node">
<title>b_age_cohort_age_interaction</title>
<ellipse fill="none" stroke="black" cx="1120" cy="-502.79" rx="126.93" ry="40.66"/>
<text text-anchor="middle" x="1120" y="-514.24" font-family="Times,serif" font-size="14.00">b_age_cohort_age_interaction</text>
<text text-anchor="middle" x="1120" y="-497.74" font-family="Times,serif" font-size="14.00">~</text>
<text text-anchor="middle" x="1120" y="-481.24" font-family="Times,serif" font-size="14.00">Normal</text>
</g>
<!-- b_age_cohort_age_interaction&#45;&gt;lam_log -->
<g id="edge8" class="edge">
<title>b_age_cohort_age_interaction&#45;&gt;lam_log</title>
<path fill="none" stroke="black" d="M1030.52,-473.52C1015.11,-469.28 999.17,-465.28 984,-462.13 822.59,-428.65 628.32,-410.15 534.36,-402.55"/>
<polygon fill="black" stroke="black" points="534.66,-398.98 524.41,-401.68 534.1,-405.96 534.66,-398.98"/>
</g>
<!-- intercept -->
<g id="node17" class="node">
<title>intercept</title>
<ellipse fill="none" stroke="black" cx="584" cy="-502.79" rx="44.72" ry="40.66"/>
<text text-anchor="middle" x="584" y="-514.24" font-family="Times,serif" font-size="14.00">intercept</text>
<text text-anchor="middle" x="584" y="-497.74" font-family="Times,serif" font-size="14.00">~</text>
<text text-anchor="middle" x="584" y="-481.24" font-family="Times,serif" font-size="14.00">Normal</text>
</g>
<!-- intercept&#45;&gt;lam_log -->
<g id="edge9" class="edge">
<title>intercept&#45;&gt;lam_log</title>
<path fill="none" stroke="black" d="M553.91,-472.44C541.64,-460.47 527.35,-446.53 514.49,-433.99"/>
<polygon fill="black" stroke="black" points="517.31,-431.87 507.71,-427.39 512.42,-436.88 517.31,-431.87"/>
</g>
<!-- b_cohort_age_scaled -->
<g id="node18" class="node">
<title>b_cohort_age_scaled</title>
<ellipse fill="none" stroke="black" cx="739" cy="-502.79" rx="91.92" ry="40.66"/>
<text text-anchor="middle" x="739" y="-514.24" font-family="Times,serif" font-size="14.00">b_cohort_age_scaled</text>
<text text-anchor="middle" x="739" y="-497.74" font-family="Times,serif" font-size="14.00">~</text>
<text text-anchor="middle" x="739" y="-481.24" font-family="Times,serif" font-size="14.00">Normal</text>
</g>
<!-- b_cohort_age_scaled&#45;&gt;lam_log -->
<g id="edge10" class="edge">
<title>b_cohort_age_scaled&#45;&gt;lam_log</title>
<path fill="none" stroke="black" d="M671.11,-474.89C628.31,-457.94 573.74,-436.32 533.54,-420.39"/>
<polygon fill="black" stroke="black" points="534.97,-416.8 524.38,-416.37 532.39,-423.3 534.97,-416.8"/>
</g>
</g>
</svg>
