<?xml version="1.0" encoding="UTF-8" standalone="no"?>
<!DOCTYPE svg PUBLIC "-//W3C//DTD SVG 1.1//EN"
 "http://www.w3.org/Graphics/SVG/1.1/DTD/svg11.dtd">
<!-- Generated by graphviz version 3.0.0 (20220226.1711)
 -->
<!-- Pages: 1 -->
<svg width="370pt" height="449pt"
 viewBox="0.00 0.00 369.69 448.86" xmlns="http://www.w3.org/2000/svg" xmlns:xlink="http://www.w3.org/1999/xlink">
<g id="graph0" class="graph" transform="scale(1 1) rotate(0) translate(4 444.86)">
<polygon fill="white" stroke="transparent" points="-4,4 -4,-444.86 365.69,-444.86 365.69,4 -4,4"/>
<g id="clust1" class="cluster">
<title>cluster38 x 38</title>
<path fill="none" stroke="black" d="M20,-329.88C20,-329.88 100,-329.88 100,-329.88 106,-329.88 112,-335.88 112,-341.88 112,-341.88 112,-409.88 112,-409.88 112,-415.88 106,-421.88 100,-421.88 100,-421.88 20,-421.88 20,-421.88 14,-421.88 8,-415.88 8,-409.88 8,-409.88 8,-341.88 8,-341.88 8,-335.88 14,-329.88 20,-329.88"/>
<text text-anchor="middle" x="83" y="-337.68" font-family="Times,serif" font-size="14.00">38 x 38</text>
</g>
<g id="clust2" class="cluster">
<title>cluster38</title>
<path fill="none" stroke="black" d="M132,-8C132,-8 224,-8 224,-8 230,-8 236,-14 236,-20 236,-20 236,-420.86 236,-420.86 236,-426.86 230,-432.86 224,-432.86 224,-432.86 132,-432.86 132,-432.86 126,-432.86 120,-426.86 120,-420.86 120,-420.86 120,-20 120,-20 120,-14 126,-8 132,-8"/>
<text text-anchor="middle" x="221" y="-15.8" font-family="Times,serif" font-size="14.00">38</text>
</g>
<!-- x -->
<g id="node1" class="node">
<title>x</title>
<path fill="lightgrey" stroke="black" d="M92,-413.88C92,-413.88 28,-413.88 28,-413.88 22,-413.88 16,-407.88 16,-401.88 16,-401.88 16,-372.88 16,-372.88 16,-366.88 22,-360.88 28,-360.88 28,-360.88 92,-360.88 92,-360.88 98,-360.88 104,-366.88 104,-372.88 104,-372.88 104,-401.88 104,-401.88 104,-407.88 98,-413.88 92,-413.88"/>
<text text-anchor="middle" x="60" y="-398.68" font-family="Times,serif" font-size="14.00">x</text>
<text text-anchor="middle" x="60" y="-383.68" font-family="Times,serif" font-size="14.00">~</text>
<text text-anchor="middle" x="60" y="-368.68" font-family="Times,serif" font-size="14.00">MutableData</text>
</g>
<!-- mu -->
<g id="node4" class="node">
<title>mu</title>
<polygon fill="none" stroke="black" points="221.5,-302.93 130.5,-302.93 130.5,-249.93 221.5,-249.93 221.5,-302.93"/>
<text text-anchor="middle" x="176" y="-287.73" font-family="Times,serif" font-size="14.00">mu</text>
<text text-anchor="middle" x="176" y="-272.73" font-family="Times,serif" font-size="14.00">~</text>
<text text-anchor="middle" x="176" y="-257.73" font-family="Times,serif" font-size="14.00">Deterministic</text>
</g>
<!-- x&#45;&gt;mu -->
<g id="edge2" class="edge">
<title>x&#45;&gt;mu</title>
<path fill="none" stroke="black" d="M84.71,-360.68C94.33,-350.89 105.53,-339.72 116,-329.88 122.96,-323.34 130.53,-316.52 137.88,-310.03"/>
<polygon fill="black" stroke="black" points="140.5,-312.39 145.72,-303.16 135.89,-307.12 140.5,-312.39"/>
</g>
<!-- y -->
<g id="node2" class="node">
<title>y</title>
<path fill="lightgrey" stroke="black" d="M210,-92C210,-92 146,-92 146,-92 140,-92 134,-86 134,-80 134,-80 134,-51 134,-51 134,-45 140,-39 146,-39 146,-39 210,-39 210,-39 216,-39 222,-45 222,-51 222,-51 222,-80 222,-80 222,-86 216,-92 210,-92"/>
<text text-anchor="middle" x="178" y="-76.8" font-family="Times,serif" font-size="14.00">y</text>
<text text-anchor="middle" x="178" y="-61.8" font-family="Times,serif" font-size="14.00">~</text>
<text text-anchor="middle" x="178" y="-46.8" font-family="Times,serif" font-size="14.00">MutableData</text>
</g>
<!-- likelihood -->
<g id="node3" class="node">
<title>likelihood</title>
<ellipse fill="lightgrey" stroke="black" cx="178" cy="-165.48" rx="50.41" ry="37.45"/>
<text text-anchor="middle" x="178" y="-176.78" font-family="Times,serif" font-size="14.00">likelihood</text>
<text text-anchor="middle" x="178" y="-161.78" font-family="Times,serif" font-size="14.00">~</text>
<text text-anchor="middle" x="178" y="-146.78" font-family="Times,serif" font-size="14.00">Normal</text>
</g>
<!-- likelihood&#45;&gt;y -->
<g id="edge1" class="edge">
<title>likelihood&#45;&gt;y</title>
<path fill="none" stroke="black" d="M178,-127.99C178,-119.58 178,-110.63 178,-102.25"/>
<polygon fill="black" stroke="black" points="181.5,-102.01 178,-92.01 174.5,-102.01 181.5,-102.01"/>
</g>
<!-- mu&#45;&gt;likelihood -->
<g id="edge4" class="edge">
<title>mu&#45;&gt;likelihood</title>
<path fill="none" stroke="black" d="M176.47,-249.89C176.67,-238.98 176.91,-225.89 177.14,-213.35"/>
<polygon fill="black" stroke="black" points="180.65,-213.06 177.33,-203 173.65,-212.94 180.65,-213.06"/>
</g>
<!-- beta -->
<g id="node5" class="node">
<title>beta</title>
<ellipse fill="none" stroke="black" cx="176" cy="-387.38" rx="45.92" ry="37.45"/>
<text text-anchor="middle" x="176" y="-398.68" font-family="Times,serif" font-size="14.00">beta</text>
<text text-anchor="middle" x="176" y="-383.68" font-family="Times,serif" font-size="14.00">~</text>
<text text-anchor="middle" x="176" y="-368.68" font-family="Times,serif" font-size="14.00">Dirichlet</text>
</g>
<!-- beta&#45;&gt;mu -->
<g id="edge3" class="edge">
<title>beta&#45;&gt;mu</title>
<path fill="none" stroke="black" d="M176,-349.8C176,-338.06 176,-325.08 176,-313.38"/>
<polygon fill="black" stroke="black" points="179.5,-313.08 176,-303.08 172.5,-313.08 179.5,-313.08"/>
</g>
<!-- sigma -->
<g id="node6" class="node">
<title>sigma</title>
<ellipse fill="none" stroke="black" cx="303" cy="-276.43" rx="58.88" ry="37.45"/>
<text text-anchor="middle" x="303" y="-287.73" font-family="Times,serif" font-size="14.00">sigma</text>
<text text-anchor="middle" x="303" y="-272.73" font-family="Times,serif" font-size="14.00">~</text>
<text text-anchor="middle" x="303" y="-257.73" font-family="Times,serif" font-size="14.00">HalfNormal</text>
</g>
<!-- sigma&#45;&gt;likelihood -->
<g id="edge5" class="edge">
<title>sigma&#45;&gt;likelihood</title>
<path fill="none" stroke="black" d="M268.84,-245.66C253.19,-232.01 234.52,-215.75 218.2,-201.51"/>
<polygon fill="black" stroke="black" points="220.23,-198.64 210.39,-194.71 215.63,-203.92 220.23,-198.64"/>
</g>
</g>
</svg>
