<?xml version="1.0" encoding="UTF-8" standalone="no"?>
<!DOCTYPE svg PUBLIC "-//W3C//DTD SVG 1.1//EN"
 "http://www.w3.org/Graphics/SVG/1.1/DTD/svg11.dtd">
<!-- Generated by graphviz version 14.1.2 (0)
 -->
<!-- Pages: 1 -->
<svg width="552pt" height="380pt"
 viewBox="0.00 0.00 552.00 380.00" xmlns="http://www.w3.org/2000/svg" xmlns:xlink="http://www.w3.org/1999/xlink">
<g id="graph0" class="graph" transform="scale(1 1) rotate(0) translate(4 376.45)">
<polygon fill="white" stroke="none" points="-4,4 -4,-376.45 548.02,-376.45 548.02,4 -4,4"/>
<g id="clust1" class="cluster">
<title>clusterobs_idx (500)</title>
<path fill="none" stroke="black" d="M104.01,-8C104.01,-8 210.01,-8 210.01,-8 216.01,-8 222.01,-14 222.01,-20 222.01,-20 222.01,-352.45 222.01,-352.45 222.01,-358.45 216.01,-364.45 210.01,-364.45 210.01,-364.45 104.01,-364.45 104.01,-364.45 98.01,-364.45 92.01,-358.45 92.01,-352.45 92.01,-352.45 92.01,-20 92.01,-20 92.01,-14 98.01,-8 104.01,-8"/>
<text xml:space="preserve" text-anchor="middle" x="176.14" y="-15.2" font-family="Times,serif" font-size="14.00">obs_idx (500)</text>
</g>
<!-- x -->
<g id="node1" class="node">
<title>x</title>
<ellipse fill="none" stroke="black" cx="167.01" cy="-198.48" rx="47.38" ry="40.66"/>
<text xml:space="preserve" text-anchor="middle" x="167.01" y="-209.93" font-family="Times,serif" font-size="14.00">x</text>
<text xml:space="preserve" text-anchor="middle" x="167.01" y="-193.43" font-family="Times,serif" font-size="14.00">~</text>
<text xml:space="preserve" text-anchor="middle" x="167.01" y="-176.93" font-family="Times,serif" font-size="14.00">Bernoulli</text>
</g>
<!-- y -->
<g id="node3" class="node">
<title>y</title>
<ellipse fill="none" stroke="black" cx="170.01" cy="-81.16" rx="41.01" ry="40.66"/>
<text xml:space="preserve" text-anchor="middle" x="170.01" y="-92.61" font-family="Times,serif" font-size="14.00">y</text>
<text xml:space="preserve" text-anchor="middle" x="170.01" y="-76.11" font-family="Times,serif" font-size="14.00">~</text>
<text xml:space="preserve" text-anchor="middle" x="170.01" y="-59.61" font-family="Times,serif" font-size="14.00">Normal</text>
</g>
<!-- x&#45;&gt;y -->
<g id="edge7" class="edge">
<title>x&#45;&gt;y</title>
<path fill="none" stroke="black" d="M168.05,-157.47C168.26,-149.69 168.47,-141.43 168.68,-133.34"/>
<polygon fill="black" stroke="black" points="172.17,-133.7 168.93,-123.61 165.17,-133.52 172.17,-133.7"/>
</g>
<!-- z -->
<g id="node2" class="node">
<title>z</title>
<ellipse fill="none" stroke="black" cx="154.01" cy="-315.79" rx="41.01" ry="40.66"/>
<text xml:space="preserve" text-anchor="middle" x="154.01" y="-327.24" font-family="Times,serif" font-size="14.00">z</text>
<text xml:space="preserve" text-anchor="middle" x="154.01" y="-310.74" font-family="Times,serif" font-size="14.00">~</text>
<text xml:space="preserve" text-anchor="middle" x="154.01" y="-294.24" font-family="Times,serif" font-size="14.00">Normal</text>
</g>
<!-- z&#45;&gt;x -->
<g id="edge2" class="edge">
<title>z&#45;&gt;x</title>
<path fill="none" stroke="black" d="M158.49,-275.11C159.37,-267.23 160.32,-258.85 161.24,-250.64"/>
<polygon fill="black" stroke="black" points="164.72,-251.07 162.36,-240.74 157.76,-250.28 164.72,-251.07"/>
</g>
<!-- z&#45;&gt;y -->
<g id="edge8" class="edge">
<title>z&#45;&gt;y</title>
<path fill="none" stroke="black" d="M130.55,-282.14C122.73,-269.37 114.99,-254.18 111.01,-239.13 101.78,-204.19 99.26,-191.99 111.01,-157.82 115.8,-143.9 124.31,-130.57 133.41,-119.09"/>
<polygon fill="black" stroke="black" points="136.06,-121.37 139.8,-111.46 130.69,-116.88 136.06,-121.37"/>
</g>
<!-- a0 -->
<g id="node4" class="node">
<title>a0</title>
<ellipse fill="none" stroke="black" cx="271.01" cy="-315.79" rx="41.01" ry="40.66"/>
<text xml:space="preserve" text-anchor="middle" x="271.01" y="-327.24" font-family="Times,serif" font-size="14.00">a0</text>
<text xml:space="preserve" text-anchor="middle" x="271.01" y="-310.74" font-family="Times,serif" font-size="14.00">~</text>
<text xml:space="preserve" text-anchor="middle" x="271.01" y="-294.24" font-family="Times,serif" font-size="14.00">Normal</text>
</g>
<!-- a0&#45;&gt;x -->
<g id="edge1" class="edge">
<title>a0&#45;&gt;x</title>
<path fill="none" stroke="black" d="M243.96,-284.8C231.58,-271.07 216.74,-254.61 203.4,-239.82"/>
<polygon fill="black" stroke="black" points="206.06,-237.55 196.76,-232.47 200.86,-242.24 206.06,-237.55"/>
</g>
<!-- b0 -->
<g id="node5" class="node">
<title>b0</title>
<ellipse fill="none" stroke="black" cx="41.01" cy="-198.48" rx="41.01" ry="40.66"/>
<text xml:space="preserve" text-anchor="middle" x="41.01" y="-209.93" font-family="Times,serif" font-size="14.00">b0</text>
<text xml:space="preserve" text-anchor="middle" x="41.01" y="-193.43" font-family="Times,serif" font-size="14.00">~</text>
<text xml:space="preserve" text-anchor="middle" x="41.01" y="-176.93" font-family="Times,serif" font-size="14.00">Normal</text>
</g>
<!-- b0&#45;&gt;y -->
<g id="edge5" class="edge">
<title>b0&#45;&gt;y</title>
<path fill="none" stroke="black" d="M71.26,-170.44C89.21,-154.39 112.15,-133.88 131.4,-116.67"/>
<polygon fill="black" stroke="black" points="133.71,-119.31 138.83,-110.03 129.04,-114.09 133.71,-119.31"/>
</g>
<!-- sigma_y -->
<g id="node6" class="node">
<title>sigma_y</title>
<ellipse fill="none" stroke="black" cx="288.01" cy="-198.48" rx="55.86" ry="40.66"/>
<text xml:space="preserve" text-anchor="middle" x="288.01" y="-209.93" font-family="Times,serif" font-size="14.00">sigma_y</text>
<text xml:space="preserve" text-anchor="middle" x="288.01" y="-193.43" font-family="Times,serif" font-size="14.00">~</text>
<text xml:space="preserve" text-anchor="middle" x="288.01" y="-176.93" font-family="Times,serif" font-size="14.00">Halfnormal</text>
</g>
<!-- sigma_y&#45;&gt;y -->
<g id="edge4" class="edge">
<title>sigma_y&#45;&gt;y</title>
<path fill="none" stroke="black" d="M255.14,-165.35C240.04,-150.6 222.08,-133.05 206.56,-117.88"/>
<polygon fill="black" stroke="black" points="209.38,-115.73 199.78,-111.25 204.48,-120.74 209.38,-115.73"/>
</g>
<!-- b2 -->
<g id="node7" class="node">
<title>b2</title>
<ellipse fill="none" stroke="black" cx="403.01" cy="-198.48" rx="41.01" ry="40.66"/>
<text xml:space="preserve" text-anchor="middle" x="403.01" y="-209.93" font-family="Times,serif" font-size="14.00">b2</text>
<text xml:space="preserve" text-anchor="middle" x="403.01" y="-193.43" font-family="Times,serif" font-size="14.00">~</text>
<text xml:space="preserve" text-anchor="middle" x="403.01" y="-176.93" font-family="Times,serif" font-size="14.00">Normal</text>
</g>
<!-- b2&#45;&gt;y -->
<g id="edge6" class="edge">
<title>b2&#45;&gt;y</title>
<path fill="none" stroke="black" d="M372.23,-170.9C366.08,-166.22 359.51,-161.63 353.01,-157.82 310.25,-132.69 257.57,-111.86 219.73,-98.46"/>
<polygon fill="black" stroke="black" points="221.01,-95.19 210.41,-95.21 218.7,-101.8 221.01,-95.19"/>
</g>
<!-- a1 -->
<g id="node8" class="node">
<title>a1</title>
<ellipse fill="none" stroke="black" cx="371.01" cy="-315.79" rx="41.01" ry="40.66"/>
<text xml:space="preserve" text-anchor="middle" x="371.01" y="-327.24" font-family="Times,serif" font-size="14.00">a1</text>
<text xml:space="preserve" text-anchor="middle" x="371.01" y="-310.74" font-family="Times,serif" font-size="14.00">~</text>
<text xml:space="preserve" text-anchor="middle" x="371.01" y="-294.24" font-family="Times,serif" font-size="14.00">Normal</text>
</g>
<!-- a1&#45;&gt;x -->
<g id="edge3" class="edge">
<title>a1&#45;&gt;x</title>
<path fill="none" stroke="black" d="M340.62,-288.21C334.38,-283.48 327.68,-278.88 321.01,-275.13 280.55,-252.43 264.08,-260.73 223.01,-239.13 219.15,-237.1 215.24,-234.84 211.39,-232.45"/>
<polygon fill="black" stroke="black" points="213.52,-229.67 203.23,-227.16 209.71,-235.54 213.52,-229.67"/>
</g>
<!-- b1 -->
<g id="node9" class="node">
<title>b1</title>
<ellipse fill="none" stroke="black" cx="503.01" cy="-198.48" rx="41.01" ry="40.66"/>
<text xml:space="preserve" text-anchor="middle" x="503.01" y="-209.93" font-family="Times,serif" font-size="14.00">b1</text>
<text xml:space="preserve" text-anchor="middle" x="503.01" y="-193.43" font-family="Times,serif" font-size="14.00">~</text>
<text xml:space="preserve" text-anchor="middle" x="503.01" y="-176.93" font-family="Times,serif" font-size="14.00">Normal</text>
</g>
<!-- b1&#45;&gt;y -->
<g id="edge9" class="edge">
<title>b1&#45;&gt;y</title>
<path fill="none" stroke="black" d="M472.88,-170.4C466.62,-165.72 459.84,-161.25 453.01,-157.82 377.4,-119.8 280.51,-99.24 221.96,-89.5"/>
<polygon fill="black" stroke="black" points="222.7,-86.08 212.27,-87.94 221.58,-92.99 222.7,-86.08"/>
</g>
</g>
</svg>
