<?xml version="1.0" encoding="UTF-8" standalone="no"?>
<!DOCTYPE svg PUBLIC "-//W3C//DTD SVG 1.1//EN"
 "http://www.w3.org/Graphics/SVG/1.1/DTD/svg11.dtd">
<!-- Generated by graphviz version 14.1.2 (0)
 -->
<!-- Pages: 1 -->
<svg width="488pt" height="380pt"
 viewBox="0.00 0.00 488.00 380.00" xmlns="http://www.w3.org/2000/svg" xmlns:xlink="http://www.w3.org/1999/xlink">
<g id="graph0" class="graph" transform="scale(1 1) rotate(0) translate(4 376.45)">
<polygon fill="white" stroke="none" points="-4,4 -4,-376.45 484,-376.45 484,4 -4,4"/>
<g id="clust1" class="cluster">
<title>clusterobs_idx (500)</title>
<path fill="none" stroke="black" d="M74,-8C74,-8 180,-8 180,-8 186,-8 192,-14 192,-20 192,-20 192,-352.45 192,-352.45 192,-358.45 186,-364.45 180,-364.45 180,-364.45 74,-364.45 74,-364.45 68,-364.45 62,-358.45 62,-352.45 62,-352.45 62,-20 62,-20 62,-14 68,-8 74,-8"/>
<text xml:space="preserve" text-anchor="middle" x="146.12" y="-15.2" font-family="Times,serif" font-size="14.00">obs_idx (500)</text>
</g>
<!-- a0 -->
<g id="node1" class="node">
<title>a0</title>
<path fill="lightgrey" stroke="black" d="M42,-344.54C42,-344.54 12,-344.54 12,-344.54 6,-344.54 0,-338.54 0,-332.54 0,-332.54 0,-299.04 0,-299.04 0,-293.04 6,-287.04 12,-287.04 12,-287.04 42,-287.04 42,-287.04 48,-287.04 54,-293.04 54,-299.04 54,-299.04 54,-332.54 54,-332.54 54,-338.54 48,-344.54 42,-344.54"/>
<text xml:space="preserve" text-anchor="middle" x="27" y="-327.24" font-family="Times,serif" font-size="14.00">a0</text>
<text xml:space="preserve" text-anchor="middle" x="27" y="-310.74" font-family="Times,serif" font-size="14.00">~</text>
<text xml:space="preserve" text-anchor="middle" x="27" y="-294.24" font-family="Times,serif" font-size="14.00">Data</text>
</g>
<!-- x -->
<g id="node7" class="node">
<title>x</title>
<ellipse fill="none" stroke="black" cx="117" cy="-198.48" rx="47.38" ry="40.66"/>
<text xml:space="preserve" text-anchor="middle" x="117" y="-209.93" font-family="Times,serif" font-size="14.00">x</text>
<text xml:space="preserve" text-anchor="middle" x="117" y="-193.43" font-family="Times,serif" font-size="14.00">~</text>
<text xml:space="preserve" text-anchor="middle" x="117" y="-176.93" font-family="Times,serif" font-size="14.00">Bernoulli</text>
</g>
<!-- a0&#45;&gt;x -->
<g id="edge1" class="edge">
<title>a0&#45;&gt;x</title>
<path fill="none" stroke="black" d="M49.02,-286.58C59.53,-273.11 72.34,-256.7 83.98,-241.78"/>
<polygon fill="black" stroke="black" points="86.73,-243.95 90.13,-233.91 81.21,-239.64 86.73,-243.95"/>
</g>
<!-- b0 -->
<g id="node2" class="node">
<title>b0</title>
<path fill="lightgrey" stroke="black" d="M244,-227.23C244,-227.23 214,-227.23 214,-227.23 208,-227.23 202,-221.23 202,-215.23 202,-215.23 202,-181.73 202,-181.73 202,-175.73 208,-169.73 214,-169.73 214,-169.73 244,-169.73 244,-169.73 250,-169.73 256,-175.73 256,-181.73 256,-181.73 256,-215.23 256,-215.23 256,-221.23 250,-227.23 244,-227.23"/>
<text xml:space="preserve" text-anchor="middle" x="229" y="-209.93" font-family="Times,serif" font-size="14.00">b0</text>
<text xml:space="preserve" text-anchor="middle" x="229" y="-193.43" font-family="Times,serif" font-size="14.00">~</text>
<text xml:space="preserve" text-anchor="middle" x="229" y="-176.93" font-family="Times,serif" font-size="14.00">Data</text>
</g>
<!-- y -->
<g id="node9" class="node">
<title>y</title>
<ellipse fill="none" stroke="black" cx="143" cy="-81.16" rx="41.01" ry="40.66"/>
<text xml:space="preserve" text-anchor="middle" x="143" y="-92.61" font-family="Times,serif" font-size="14.00">y</text>
<text xml:space="preserve" text-anchor="middle" x="143" y="-76.11" font-family="Times,serif" font-size="14.00">~</text>
<text xml:space="preserve" text-anchor="middle" x="143" y="-59.61" font-family="Times,serif" font-size="14.00">Normal</text>
</g>
<!-- b0&#45;&gt;y -->
<g id="edge5" class="edge">
<title>b0&#45;&gt;y</title>
<path fill="none" stroke="black" d="M207.96,-169.27C197.75,-155.57 185.28,-138.85 174,-123.73"/>
<polygon fill="black" stroke="black" points="176.86,-121.7 168.07,-115.78 171.24,-125.89 176.86,-121.7"/>
</g>
<!-- sigma_y -->
<g id="node3" class="node">
<title>sigma_y</title>
<path fill="lightgrey" stroke="black" d="M324.25,-227.23C324.25,-227.23 285.75,-227.23 285.75,-227.23 279.75,-227.23 273.75,-221.23 273.75,-215.23 273.75,-215.23 273.75,-181.73 273.75,-181.73 273.75,-175.73 279.75,-169.73 285.75,-169.73 285.75,-169.73 324.25,-169.73 324.25,-169.73 330.25,-169.73 336.25,-175.73 336.25,-181.73 336.25,-181.73 336.25,-215.23 336.25,-215.23 336.25,-221.23 330.25,-227.23 324.25,-227.23"/>
<text xml:space="preserve" text-anchor="middle" x="305" y="-209.93" font-family="Times,serif" font-size="14.00">sigma_y</text>
<text xml:space="preserve" text-anchor="middle" x="305" y="-193.43" font-family="Times,serif" font-size="14.00">~</text>
<text xml:space="preserve" text-anchor="middle" x="305" y="-176.93" font-family="Times,serif" font-size="14.00">Data</text>
</g>
<!-- sigma_y&#45;&gt;y -->
<g id="edge4" class="edge">
<title>sigma_y&#45;&gt;y</title>
<path fill="none" stroke="black" d="M278.22,-169.31C273.94,-165.29 269.45,-161.33 265,-157.82 241.12,-138.97 212.28,-120.9 188.63,-107.14"/>
<polygon fill="black" stroke="black" points="190.57,-104.22 180.16,-102.28 187.09,-110.29 190.57,-104.22"/>
</g>
<!-- b2 -->
<g id="node4" class="node">
<title>b2</title>
<path fill="lightgrey" stroke="black" d="M396,-227.23C396,-227.23 366,-227.23 366,-227.23 360,-227.23 354,-221.23 354,-215.23 354,-215.23 354,-181.73 354,-181.73 354,-175.73 360,-169.73 366,-169.73 366,-169.73 396,-169.73 396,-169.73 402,-169.73 408,-175.73 408,-181.73 408,-181.73 408,-215.23 408,-215.23 408,-221.23 402,-227.23 396,-227.23"/>
<text xml:space="preserve" text-anchor="middle" x="381" y="-209.93" font-family="Times,serif" font-size="14.00">b2</text>
<text xml:space="preserve" text-anchor="middle" x="381" y="-193.43" font-family="Times,serif" font-size="14.00">~</text>
<text xml:space="preserve" text-anchor="middle" x="381" y="-176.93" font-family="Times,serif" font-size="14.00">Data</text>
</g>
<!-- b2&#45;&gt;y -->
<g id="edge6" class="edge">
<title>b2&#45;&gt;y</title>
<path fill="none" stroke="black" d="M358.53,-169.24C354.34,-165.05 349.77,-161.05 345,-157.82 298.49,-126.26 237.08,-105.7 194.23,-94.09"/>
<polygon fill="black" stroke="black" points="195.24,-90.74 184.68,-91.58 193.46,-97.51 195.24,-90.74"/>
</g>
<!-- a1 -->
<g id="node5" class="node">
<title>a1</title>
<path fill="lightgrey" stroke="black" d="M242,-344.54C242,-344.54 212,-344.54 212,-344.54 206,-344.54 200,-338.54 200,-332.54 200,-332.54 200,-299.04 200,-299.04 200,-293.04 206,-287.04 212,-287.04 212,-287.04 242,-287.04 242,-287.04 248,-287.04 254,-293.04 254,-299.04 254,-299.04 254,-332.54 254,-332.54 254,-338.54 248,-344.54 242,-344.54"/>
<text xml:space="preserve" text-anchor="middle" x="227" y="-327.24" font-family="Times,serif" font-size="14.00">a1</text>
<text xml:space="preserve" text-anchor="middle" x="227" y="-310.74" font-family="Times,serif" font-size="14.00">~</text>
<text xml:space="preserve" text-anchor="middle" x="227" y="-294.24" font-family="Times,serif" font-size="14.00">Data</text>
</g>
<!-- a1&#45;&gt;x -->
<g id="edge3" class="edge">
<title>a1&#45;&gt;x</title>
<path fill="none" stroke="black" d="M205.81,-286.64C202.61,-282.7 199.28,-278.76 196,-275.13 183.98,-261.85 170.1,-248.08 157.35,-235.99"/>
<polygon fill="black" stroke="black" points="159.95,-233.64 150.27,-229.34 155.16,-238.74 159.95,-233.64"/>
</g>
<!-- b1 -->
<g id="node6" class="node">
<title>b1</title>
<path fill="lightgrey" stroke="black" d="M468,-227.23C468,-227.23 438,-227.23 438,-227.23 432,-227.23 426,-221.23 426,-215.23 426,-215.23 426,-181.73 426,-181.73 426,-175.73 432,-169.73 438,-169.73 438,-169.73 468,-169.73 468,-169.73 474,-169.73 480,-175.73 480,-181.73 480,-181.73 480,-215.23 480,-215.23 480,-221.23 474,-227.23 468,-227.23"/>
<text xml:space="preserve" text-anchor="middle" x="453" y="-209.93" font-family="Times,serif" font-size="14.00">b1</text>
<text xml:space="preserve" text-anchor="middle" x="453" y="-193.43" font-family="Times,serif" font-size="14.00">~</text>
<text xml:space="preserve" text-anchor="middle" x="453" y="-176.93" font-family="Times,serif" font-size="14.00">Data</text>
</g>
<!-- b1&#45;&gt;y -->
<g id="edge9" class="edge">
<title>b1&#45;&gt;y</title>
<path fill="none" stroke="black" d="M431.18,-169.28C426.85,-164.97 422.07,-160.94 417,-157.82 347.25,-114.91 252.8,-95.84 194.98,-87.73"/>
<polygon fill="black" stroke="black" points="195.8,-84.31 185.42,-86.45 194.87,-91.25 195.8,-84.31"/>
</g>
<!-- x&#45;&gt;y -->
<g id="edge7" class="edge">
<title>x&#45;&gt;y</title>
<path fill="none" stroke="black" d="M125.88,-158.11C127.74,-149.86 129.72,-141.04 131.66,-132.45"/>
<polygon fill="black" stroke="black" points="135.05,-133.35 133.83,-122.82 128.22,-131.81 135.05,-133.35"/>
</g>
<!-- z -->
<g id="node8" class="node">
<title>z</title>
<ellipse fill="none" stroke="black" cx="129" cy="-315.79" rx="41.01" ry="40.66"/>
<text xml:space="preserve" text-anchor="middle" x="129" y="-327.24" font-family="Times,serif" font-size="14.00">z</text>
<text xml:space="preserve" text-anchor="middle" x="129" y="-310.74" font-family="Times,serif" font-size="14.00">~</text>
<text xml:space="preserve" text-anchor="middle" x="129" y="-294.24" font-family="Times,serif" font-size="14.00">Normal</text>
</g>
<!-- z&#45;&gt;x -->
<g id="edge2" class="edge">
<title>z&#45;&gt;x</title>
<path fill="none" stroke="black" d="M124.87,-275.11C124.05,-267.23 123.18,-258.85 122.32,-250.64"/>
<polygon fill="black" stroke="black" points="125.81,-250.32 121.29,-240.74 118.85,-251.05 125.81,-250.32"/>
</g>
<!-- z&#45;&gt;y -->
<g id="edge8" class="edge">
<title>z&#45;&gt;y</title>
<path fill="none" stroke="black" d="M153,-282.21C161.01,-269.44 168.93,-254.25 173,-239.13 182.41,-204.24 179.78,-193.32 173,-157.82 171.17,-148.24 168.15,-138.33 164.71,-128.96"/>
<polygon fill="black" stroke="black" points="167.98,-127.71 161.08,-119.67 161.46,-130.26 167.98,-127.71"/>
</g>
</g>
</svg>
