<?xml version="1.0" encoding="UTF-8" standalone="no"?>
<!DOCTYPE svg PUBLIC "-//W3C//DTD SVG 1.1//EN"
 "http://www.w3.org/Graphics/SVG/1.1/DTD/svg11.dtd">
<!-- Generated by graphviz version 14.1.2 (0)
 -->
<!-- Pages: 1 -->
<svg width="554pt" height="458pt"
 viewBox="0.00 0.00 554.00 458.00" xmlns="http://www.w3.org/2000/svg" xmlns:xlink="http://www.w3.org/1999/xlink">
<g id="graph0" class="graph" transform="scale(1 1) rotate(0) translate(4 453.95)">
<polygon fill="white" stroke="none" points="-4,4 -4,-453.95 549.74,-453.95 549.74,4 -4,4"/>
<g id="clust1" class="cluster">
<title>clusterobs_idx (500)</title>
<path fill="none" stroke="black" d="M104.01,-8C104.01,-8 190.01,-8 190.01,-8 196.01,-8 202.01,-14 202.01,-20 202.01,-20 202.01,-328.63 202.01,-328.63 202.01,-334.63 196.01,-340.63 190.01,-340.63 190.01,-340.63 104.01,-340.63 104.01,-340.63 98.01,-340.63 92.01,-334.63 92.01,-328.63 92.01,-328.63 92.01,-20 92.01,-20 92.01,-14 98.01,-8 104.01,-8"/>
<text xml:space="preserve" text-anchor="middle" x="156.14" y="-15.2" font-family="Times,serif" font-size="14.00">obs_idx (500)</text>
</g>
<!-- a0 -->
<g id="node1" class="node">
<title>a0</title>
<ellipse fill="none" stroke="black" cx="97.01" cy="-409.29" rx="41.01" ry="40.66"/>
<text xml:space="preserve" text-anchor="middle" x="97.01" y="-420.74" font-family="Times,serif" font-size="14.00">a0</text>
<text xml:space="preserve" text-anchor="middle" x="97.01" y="-404.24" font-family="Times,serif" font-size="14.00">~</text>
<text xml:space="preserve" text-anchor="middle" x="97.01" y="-387.74" font-family="Times,serif" font-size="14.00">Normal</text>
</g>
<!-- x_hat -->
<g id="node10" class="node">
<title>x_hat</title>
<ellipse fill="lightgrey" stroke="black" cx="147.01" cy="-291.98" rx="47.38" ry="40.66"/>
<text xml:space="preserve" text-anchor="middle" x="147.01" y="-303.43" font-family="Times,serif" font-size="14.00">x_hat</text>
<text xml:space="preserve" text-anchor="middle" x="147.01" y="-286.93" font-family="Times,serif" font-size="14.00">~</text>
<text xml:space="preserve" text-anchor="middle" x="147.01" y="-270.43" font-family="Times,serif" font-size="14.00">Bernoulli</text>
</g>
<!-- a0&#45;&gt;x_hat -->
<g id="edge1" class="edge">
<title>a0&#45;&gt;x_hat</title>
<path fill="none" stroke="black" d="M112.97,-371.49C117.17,-361.8 121.76,-351.21 126.18,-341.03"/>
<polygon fill="black" stroke="black" points="129.32,-342.57 130.09,-332.01 122.9,-339.79 129.32,-342.57"/>
</g>
<!-- rho -->
<g id="node2" class="node">
<title>rho</title>
<ellipse fill="none" stroke="black" cx="501.01" cy="-291.98" rx="44.72" ry="40.66"/>
<text xml:space="preserve" text-anchor="middle" x="501.01" y="-303.43" font-family="Times,serif" font-size="14.00">rho</text>
<text xml:space="preserve" text-anchor="middle" x="501.01" y="-286.93" font-family="Times,serif" font-size="14.00">~</text>
<text xml:space="preserve" text-anchor="middle" x="501.01" y="-270.43" font-family="Times,serif" font-size="14.00">Uniform</text>
</g>
<!-- sigma_y_frugal -->
<g id="node3" class="node">
<title>sigma_y_frugal</title>
<polygon fill="none" stroke="black" points="539.76,-215.32 438.26,-215.32 438.26,-157.82 539.76,-157.82 539.76,-215.32"/>
<text xml:space="preserve" text-anchor="middle" x="489.01" y="-198.02" font-family="Times,serif" font-size="14.00">sigma_y_frugal</text>
<text xml:space="preserve" text-anchor="middle" x="489.01" y="-181.52" font-family="Times,serif" font-size="14.00">~</text>
<text xml:space="preserve" text-anchor="middle" x="489.01" y="-165.02" font-family="Times,serif" font-size="14.00">Deterministic</text>
</g>
<!-- rho&#45;&gt;sigma_y_frugal -->
<g id="edge10" class="edge">
<title>rho&#45;&gt;sigma_y_frugal</title>
<path fill="none" stroke="black" d="M496.41,-251.29C495.48,-243.33 494.51,-234.97 493.59,-227.02"/>
<polygon fill="black" stroke="black" points="497.09,-226.79 492.46,-217.26 490.13,-227.6 497.09,-226.79"/>
</g>
<!-- b2 -->
<g id="node6" class="node">
<title>b2</title>
<polygon fill="none" stroke="black" points="420.14,-215.32 329.89,-215.32 329.89,-157.82 420.14,-157.82 420.14,-215.32"/>
<text xml:space="preserve" text-anchor="middle" x="375.01" y="-198.02" font-family="Times,serif" font-size="14.00">b2</text>
<text xml:space="preserve" text-anchor="middle" x="375.01" y="-181.52" font-family="Times,serif" font-size="14.00">~</text>
<text xml:space="preserve" text-anchor="middle" x="375.01" y="-165.02" font-family="Times,serif" font-size="14.00">Deterministic</text>
</g>
<!-- rho&#45;&gt;b2 -->
<g id="edge3" class="edge">
<title>rho&#45;&gt;b2</title>
<path fill="none" stroke="black" d="M468.24,-264.08C452.98,-251.55 434.62,-236.49 418.25,-223.05"/>
<polygon fill="black" stroke="black" points="420.51,-220.38 410.55,-216.74 416.06,-225.79 420.51,-220.38"/>
</g>
<!-- mu_y_frugal -->
<g id="node11" class="node">
<title>mu_y_frugal</title>
<polygon fill="none" stroke="black" points="194.14,-215.32 103.89,-215.32 103.89,-157.82 194.14,-157.82 194.14,-215.32"/>
<text xml:space="preserve" text-anchor="middle" x="149.01" y="-198.02" font-family="Times,serif" font-size="14.00">mu_y_frugal</text>
<text xml:space="preserve" text-anchor="middle" x="149.01" y="-181.52" font-family="Times,serif" font-size="14.00">~</text>
<text xml:space="preserve" text-anchor="middle" x="149.01" y="-165.02" font-family="Times,serif" font-size="14.00">Deterministic</text>
</g>
<!-- rho&#45;&gt;mu_y_frugal -->
<g id="edge5" class="edge">
<title>rho&#45;&gt;mu_y_frugal</title>
<path fill="none" stroke="black" d="M468.39,-263.67C461.63,-259 454.33,-254.61 447.01,-251.32 404.49,-232.22 279.33,-209.21 205.43,-196.72"/>
<polygon fill="black" stroke="black" points="206.4,-193.34 195.96,-195.13 205.25,-200.24 206.4,-193.34"/>
</g>
<!-- y_hat -->
<g id="node9" class="node">
<title>y_hat</title>
<ellipse fill="lightgrey" stroke="black" cx="151.01" cy="-81.16" rx="41.01" ry="40.66"/>
<text xml:space="preserve" text-anchor="middle" x="151.01" y="-92.61" font-family="Times,serif" font-size="14.00">y_hat</text>
<text xml:space="preserve" text-anchor="middle" x="151.01" y="-76.11" font-family="Times,serif" font-size="14.00">~</text>
<text xml:space="preserve" text-anchor="middle" x="151.01" y="-59.61" font-family="Times,serif" font-size="14.00">Normal</text>
</g>
<!-- sigma_y_frugal&#45;&gt;y_hat -->
<g id="edge12" class="edge">
<title>sigma_y_frugal&#45;&gt;y_hat</title>
<path fill="none" stroke="black" d="M437.86,-161.23C434.89,-160.02 431.92,-158.88 429.01,-157.82 351.63,-129.62 258.78,-106.39 202.38,-93.41"/>
<polygon fill="black" stroke="black" points="203.26,-90.02 192.73,-91.21 201.7,-96.85 203.26,-90.02"/>
</g>
<!-- sigma_causal -->
<g id="node4" class="node">
<title>sigma_causal</title>
<ellipse fill="none" stroke="black" cx="375.01" cy="-291.98" rx="63.29" ry="40.66"/>
<text xml:space="preserve" text-anchor="middle" x="375.01" y="-303.43" font-family="Times,serif" font-size="14.00">sigma_causal</text>
<text xml:space="preserve" text-anchor="middle" x="375.01" y="-286.93" font-family="Times,serif" font-size="14.00">~</text>
<text xml:space="preserve" text-anchor="middle" x="375.01" y="-270.43" font-family="Times,serif" font-size="14.00">Halfnormal</text>
</g>
<!-- sigma_causal&#45;&gt;sigma_y_frugal -->
<g id="edge11" class="edge">
<title>sigma_causal&#45;&gt;sigma_y_frugal</title>
<path fill="none" stroke="black" d="M411.08,-258.26C423.38,-247.1 437.18,-234.58 449.72,-223.21"/>
<polygon fill="black" stroke="black" points="451.99,-225.88 457.04,-216.57 447.28,-220.69 451.99,-225.88"/>
</g>
<!-- sigma_causal&#45;&gt;b2 -->
<g id="edge4" class="edge">
<title>sigma_causal&#45;&gt;b2</title>
<path fill="none" stroke="black" d="M375.01,-251C375.01,-243.15 375.01,-234.91 375.01,-227.08"/>
<polygon fill="black" stroke="black" points="378.51,-227.11 375.01,-217.11 371.51,-227.11 378.51,-227.11"/>
</g>
<!-- sigma_causal&#45;&gt;mu_y_frugal -->
<g id="edge6" class="edge">
<title>sigma_causal&#45;&gt;mu_y_frugal</title>
<path fill="none" stroke="black" d="M328.15,-264.19C319.86,-259.73 311.24,-255.27 303.01,-251.32 271.07,-235.97 234.45,-220.72 204.93,-208.98"/>
<polygon fill="black" stroke="black" points="206.4,-205.8 195.81,-205.38 203.83,-212.31 206.4,-205.8"/>
</g>
<!-- mu0 -->
<g id="node5" class="node">
<title>mu0</title>
<ellipse fill="none" stroke="black" cx="253.01" cy="-291.98" rx="41.01" ry="40.66"/>
<text xml:space="preserve" text-anchor="middle" x="253.01" y="-303.43" font-family="Times,serif" font-size="14.00">mu0</text>
<text xml:space="preserve" text-anchor="middle" x="253.01" y="-286.93" font-family="Times,serif" font-size="14.00">~</text>
<text xml:space="preserve" text-anchor="middle" x="253.01" y="-270.43" font-family="Times,serif" font-size="14.00">Normal</text>
</g>
<!-- mu0&#45;&gt;mu_y_frugal -->
<g id="edge9" class="edge">
<title>mu0&#45;&gt;mu_y_frugal</title>
<path fill="none" stroke="black" d="M224.32,-262.45C212.28,-250.48 198.15,-236.43 185.4,-223.75"/>
<polygon fill="black" stroke="black" points="187.88,-221.28 178.33,-216.71 182.95,-226.25 187.88,-221.28"/>
</g>
<!-- a1 -->
<g id="node7" class="node">
<title>a1</title>
<ellipse fill="none" stroke="black" cx="197.01" cy="-409.29" rx="41.01" ry="40.66"/>
<text xml:space="preserve" text-anchor="middle" x="197.01" y="-420.74" font-family="Times,serif" font-size="14.00">a1</text>
<text xml:space="preserve" text-anchor="middle" x="197.01" y="-404.24" font-family="Times,serif" font-size="14.00">~</text>
<text xml:space="preserve" text-anchor="middle" x="197.01" y="-387.74" font-family="Times,serif" font-size="14.00">Normal</text>
</g>
<!-- a1&#45;&gt;x_hat -->
<g id="edge2" class="edge">
<title>a1&#45;&gt;x_hat</title>
<path fill="none" stroke="black" d="M181.05,-371.49C176.85,-361.8 172.26,-351.21 167.85,-341.03"/>
<polygon fill="black" stroke="black" points="171.13,-339.79 163.94,-332.01 164.7,-342.57 171.13,-339.79"/>
</g>
<!-- delta -->
<g id="node8" class="node">
<title>delta</title>
<ellipse fill="none" stroke="black" cx="41.01" cy="-291.98" rx="41.01" ry="40.66"/>
<text xml:space="preserve" text-anchor="middle" x="41.01" y="-303.43" font-family="Times,serif" font-size="14.00">delta</text>
<text xml:space="preserve" text-anchor="middle" x="41.01" y="-286.93" font-family="Times,serif" font-size="14.00">~</text>
<text xml:space="preserve" text-anchor="middle" x="41.01" y="-270.43" font-family="Times,serif" font-size="14.00">Normal</text>
</g>
<!-- delta&#45;&gt;mu_y_frugal -->
<g id="edge7" class="edge">
<title>delta&#45;&gt;mu_y_frugal</title>
<path fill="none" stroke="black" d="M70.24,-262.99C82.96,-250.81 98.03,-236.38 111.57,-223.42"/>
<polygon fill="black" stroke="black" points="113.87,-226.06 118.67,-216.62 109.03,-221.01 113.87,-226.06"/>
</g>
<!-- x_hat&#45;&gt;mu_y_frugal -->
<g id="edge8" class="edge">
<title>x_hat&#45;&gt;mu_y_frugal</title>
<path fill="none" stroke="black" d="M147.79,-251C147.94,-243.15 148.1,-234.91 148.25,-227.08"/>
<polygon fill="black" stroke="black" points="151.75,-227.17 148.44,-217.11 144.75,-227.04 151.75,-227.17"/>
</g>
<!-- mu_y_frugal&#45;&gt;y_hat -->
<g id="edge13" class="edge">
<title>mu_y_frugal&#45;&gt;y_hat</title>
<path fill="none" stroke="black" d="M149.55,-157.58C149.7,-150.1 149.86,-141.77 150.02,-133.45"/>
<polygon fill="black" stroke="black" points="153.51,-133.78 150.21,-123.71 146.52,-133.64 153.51,-133.78"/>
</g>
</g>
</svg>
