<?xml version="1.0" encoding="UTF-8" standalone="no"?>
<!DOCTYPE svg PUBLIC "-//W3C//DTD SVG 1.1//EN"
 "http://www.w3.org/Graphics/SVG/1.1/DTD/svg11.dtd">
<!-- Generated by graphviz version 14.1.2 (0)
 -->
<!-- Pages: 1 -->
<svg width="188pt" height="188pt"
 viewBox="0.00 0.00 188.00 188.00" xmlns="http://www.w3.org/2000/svg" xmlns:xlink="http://www.w3.org/1999/xlink">
<g id="graph0" class="graph" transform="scale(1 1) rotate(0) translate(4 184)">
<polygon fill="white" stroke="none" points="-4,4 -4,-184 183.92,-184 183.92,4 -4,4"/>
<!-- Z -->
<g id="node1" class="node">
<title>Z</title>
<ellipse fill="none" stroke="black" cx="110.66" cy="-162" rx="69.26" ry="18"/>
<text xml:space="preserve" text-anchor="middle" x="110.66" y="-156.95" font-family="Times,serif" font-size="14.00">Z (Confounder)</text>
</g>
<!-- X -->
<g id="node2" class="node">
<title>X</title>
<ellipse fill="none" stroke="black" cx="64.66" cy="-90" rx="64.66" ry="18"/>
<text xml:space="preserve" text-anchor="middle" x="64.66" y="-84.95" font-family="Times,serif" font-size="14.00">X (Treatment)</text>
</g>
<!-- Z&#45;&gt;X -->
<g id="edge1" class="edge">
<title>Z&#45;&gt;X</title>
<path fill="none" stroke="black" d="M99.52,-144.05C94.27,-136.06 87.88,-126.33 82.01,-117.4"/>
<polygon fill="black" stroke="black" points="84.94,-115.49 76.52,-109.05 79.09,-119.33 84.94,-115.49"/>
</g>
<!-- Y -->
<g id="node3" class="node">
<title>Y</title>
<ellipse fill="none" stroke="black" cx="110.66" cy="-18" rx="60.05" ry="18"/>
<text xml:space="preserve" text-anchor="middle" x="110.66" y="-12.95" font-family="Times,serif" font-size="14.00">Y (Outcome)</text>
</g>
<!-- Z&#45;&gt;Y -->
<g id="edge2" class="edge">
<title>Z&#45;&gt;Y</title>
<path fill="none" stroke="black" d="M122.25,-144.2C128.45,-134.18 135.45,-120.93 138.66,-108 142.51,-92.47 142.51,-87.53 138.66,-72 136.43,-63.01 132.37,-53.87 128.01,-45.76"/>
<polygon fill="black" stroke="black" points="131.05,-44.02 123.01,-37.11 124.99,-47.52 131.05,-44.02"/>
</g>
<!-- X&#45;&gt;Y -->
<g id="edge3" class="edge">
<title>X&#45;&gt;Y</title>
<path fill="none" stroke="black" d="M75.79,-72.05C81.05,-64.06 87.44,-54.33 93.31,-45.4"/>
<polygon fill="black" stroke="black" points="96.23,-47.33 98.79,-37.05 90.38,-43.49 96.23,-47.33"/>
</g>
</g>
</svg>
