<?xml version="1.0" encoding="UTF-8" standalone="no"?>
<!DOCTYPE svg PUBLIC "-//W3C//DTD SVG 1.1//EN"
 "http://www.w3.org/Graphics/SVG/1.1/DTD/svg11.dtd">
<!-- Generated by graphviz version 14.1.2 (0)
 -->
<!-- Pages: 1 -->
<svg width="446pt" height="482pt"
 viewBox="0.00 0.00 446.00 482.00" xmlns="http://www.w3.org/2000/svg" xmlns:xlink="http://www.w3.org/1999/xlink">
<g id="graph0" class="graph" transform="scale(1 1) rotate(0) translate(4 477.77)">
<polygon fill="white" stroke="none" points="-4,4 -4,-477.77 442.02,-477.77 442.02,4 -4,4"/>
<g id="clust1" class="cluster">
<title>clusterobs_idx (500)</title>
<path fill="none" stroke="black" d="M48.01,-8C48.01,-8 134.01,-8 134.01,-8 140.01,-8 146.01,-14 146.01,-20 146.01,-20 146.01,-352.45 146.01,-352.45 146.01,-358.45 140.01,-364.45 134.01,-364.45 134.01,-364.45 48.01,-364.45 48.01,-364.45 42.01,-364.45 36.01,-358.45 36.01,-352.45 36.01,-352.45 36.01,-20 36.01,-20 36.01,-14 42.01,-8 48.01,-8"/>
<text xml:space="preserve" text-anchor="middle" x="100.14" y="-15.2" font-family="Times,serif" font-size="14.00">obs_idx (500)</text>
</g>
<!-- a0 -->
<g id="node1" class="node">
<title>a0</title>
<ellipse fill="none" stroke="black" cx="41.01" cy="-433.11" rx="41.01" ry="40.66"/>
<text xml:space="preserve" text-anchor="middle" x="41.01" y="-444.56" font-family="Times,serif" font-size="14.00">a0</text>
<text xml:space="preserve" text-anchor="middle" x="41.01" y="-428.06" font-family="Times,serif" font-size="14.00">~</text>
<text xml:space="preserve" text-anchor="middle" x="41.01" y="-411.56" font-family="Times,serif" font-size="14.00">Normal</text>
</g>
<!-- x_hat -->
<g id="node8" class="node">
<title>x_hat</title>
<ellipse fill="lightgrey" stroke="black" cx="91.01" cy="-315.79" rx="47.38" ry="40.66"/>
<text xml:space="preserve" text-anchor="middle" x="91.01" y="-327.24" font-family="Times,serif" font-size="14.00">x_hat</text>
<text xml:space="preserve" text-anchor="middle" x="91.01" y="-310.74" font-family="Times,serif" font-size="14.00">~</text>
<text xml:space="preserve" text-anchor="middle" x="91.01" y="-294.24" font-family="Times,serif" font-size="14.00">Bernoulli</text>
</g>
<!-- a0&#45;&gt;x_hat -->
<g id="edge1" class="edge">
<title>a0&#45;&gt;x_hat</title>
<path fill="none" stroke="black" d="M56.97,-395.31C61.17,-385.62 65.76,-375.03 70.18,-364.84"/>
<polygon fill="black" stroke="black" points="73.32,-366.39 74.09,-355.83 66.9,-363.61 73.32,-366.39"/>
</g>
<!-- sigma -->
<g id="node2" class="node">
<title>sigma</title>
<ellipse fill="none" stroke="black" cx="212.01" cy="-198.48" rx="55.86" ry="40.66"/>
<text xml:space="preserve" text-anchor="middle" x="212.01" y="-209.93" font-family="Times,serif" font-size="14.00">sigma</text>
<text xml:space="preserve" text-anchor="middle" x="212.01" y="-193.43" font-family="Times,serif" font-size="14.00">~</text>
<text xml:space="preserve" text-anchor="middle" x="212.01" y="-176.93" font-family="Times,serif" font-size="14.00">Halfnormal</text>
</g>
<!-- y_hat -->
<g id="node9" class="node">
<title>y_hat</title>
<ellipse fill="lightgrey" stroke="black" cx="95.01" cy="-81.16" rx="41.01" ry="40.66"/>
<text xml:space="preserve" text-anchor="middle" x="95.01" y="-92.61" font-family="Times,serif" font-size="14.00">y_hat</text>
<text xml:space="preserve" text-anchor="middle" x="95.01" y="-76.11" font-family="Times,serif" font-size="14.00">~</text>
<text xml:space="preserve" text-anchor="middle" x="95.01" y="-59.61" font-family="Times,serif" font-size="14.00">Normal</text>
</g>
<!-- sigma&#45;&gt;y_hat -->
<g id="edge8" class="edge">
<title>sigma&#45;&gt;y_hat</title>
<path fill="none" stroke="black" d="M179.42,-165.35C164.7,-150.85 147.24,-133.64 132.03,-118.64"/>
<polygon fill="black" stroke="black" points="134.5,-116.16 124.92,-111.64 129.59,-121.15 134.5,-116.16"/>
</g>
<!-- b0 -->
<g id="node3" class="node">
<title>b0</title>
<ellipse fill="none" stroke="black" cx="197.01" cy="-315.79" rx="41.01" ry="40.66"/>
<text xml:space="preserve" text-anchor="middle" x="197.01" y="-327.24" font-family="Times,serif" font-size="14.00">b0</text>
<text xml:space="preserve" text-anchor="middle" x="197.01" y="-310.74" font-family="Times,serif" font-size="14.00">~</text>
<text xml:space="preserve" text-anchor="middle" x="197.01" y="-294.24" font-family="Times,serif" font-size="14.00">Normal</text>
</g>
<!-- mu_y -->
<g id="node7" class="node">
<title>mu_y</title>
<polygon fill="none" stroke="black" points="138.14,-227.23 47.89,-227.23 47.89,-169.73 138.14,-169.73 138.14,-227.23"/>
<text xml:space="preserve" text-anchor="middle" x="93.01" y="-209.93" font-family="Times,serif" font-size="14.00">mu_y</text>
<text xml:space="preserve" text-anchor="middle" x="93.01" y="-193.43" font-family="Times,serif" font-size="14.00">~</text>
<text xml:space="preserve" text-anchor="middle" x="93.01" y="-176.93" font-family="Times,serif" font-size="14.00">Deterministic</text>
</g>
<!-- b0&#45;&gt;mu_y -->
<g id="edge5" class="edge">
<title>b0&#45;&gt;mu_y</title>
<path fill="none" stroke="black" d="M169.96,-284.8C156.45,-269.82 140,-251.58 125.78,-235.81"/>
<polygon fill="black" stroke="black" points="128.46,-233.55 119.16,-228.47 123.26,-238.24 128.46,-233.55"/>
</g>
<!-- b2 -->
<g id="node4" class="node">
<title>b2</title>
<ellipse fill="none" stroke="black" cx="297.01" cy="-315.79" rx="41.01" ry="40.66"/>
<text xml:space="preserve" text-anchor="middle" x="297.01" y="-327.24" font-family="Times,serif" font-size="14.00">b2</text>
<text xml:space="preserve" text-anchor="middle" x="297.01" y="-310.74" font-family="Times,serif" font-size="14.00">~</text>
<text xml:space="preserve" text-anchor="middle" x="297.01" y="-294.24" font-family="Times,serif" font-size="14.00">Normal</text>
</g>
<!-- b2&#45;&gt;mu_y -->
<g id="edge6" class="edge">
<title>b2&#45;&gt;mu_y</title>
<path fill="none" stroke="black" d="M266.64,-288.18C260.4,-283.45 253.69,-278.85 247.01,-275.13 205.74,-252.15 188.7,-261.34 147.01,-239.13 143.98,-237.52 140.93,-235.75 137.9,-233.88"/>
<polygon fill="black" stroke="black" points="139.93,-231.02 129.64,-228.47 136.09,-236.88 139.93,-231.02"/>
</g>
<!-- a1 -->
<g id="node5" class="node">
<title>a1</title>
<ellipse fill="none" stroke="black" cx="141.01" cy="-433.11" rx="41.01" ry="40.66"/>
<text xml:space="preserve" text-anchor="middle" x="141.01" y="-444.56" font-family="Times,serif" font-size="14.00">a1</text>
<text xml:space="preserve" text-anchor="middle" x="141.01" y="-428.06" font-family="Times,serif" font-size="14.00">~</text>
<text xml:space="preserve" text-anchor="middle" x="141.01" y="-411.56" font-family="Times,serif" font-size="14.00">Normal</text>
</g>
<!-- a1&#45;&gt;x_hat -->
<g id="edge2" class="edge">
<title>a1&#45;&gt;x_hat</title>
<path fill="none" stroke="black" d="M125.05,-395.31C120.85,-385.62 116.26,-375.03 111.85,-364.84"/>
<polygon fill="black" stroke="black" points="115.13,-363.61 107.94,-355.83 108.7,-366.39 115.13,-363.61"/>
</g>
<!-- b1 -->
<g id="node6" class="node">
<title>b1</title>
<ellipse fill="none" stroke="black" cx="397.01" cy="-315.79" rx="41.01" ry="40.66"/>
<text xml:space="preserve" text-anchor="middle" x="397.01" y="-327.24" font-family="Times,serif" font-size="14.00">b1</text>
<text xml:space="preserve" text-anchor="middle" x="397.01" y="-310.74" font-family="Times,serif" font-size="14.00">~</text>
<text xml:space="preserve" text-anchor="middle" x="397.01" y="-294.24" font-family="Times,serif" font-size="14.00">Normal</text>
</g>
<!-- b1&#45;&gt;mu_y -->
<g id="edge4" class="edge">
<title>b1&#45;&gt;mu_y</title>
<path fill="none" stroke="black" d="M367.1,-287.26C360.82,-282.61 353.98,-278.28 347.01,-275.13 264.7,-237.95 230,-274.79 147.01,-239.13 143.27,-237.52 139.53,-235.61 135.88,-233.51"/>
<polygon fill="black" stroke="black" points="138.05,-230.74 127.72,-228.38 134.33,-236.67 138.05,-230.74"/>
</g>
<!-- mu_y&#45;&gt;y_hat -->
<g id="edge7" class="edge">
<title>mu_y&#45;&gt;y_hat</title>
<path fill="none" stroke="black" d="M93.5,-169.27C93.69,-158.44 93.91,-145.73 94.12,-133.41"/>
<polygon fill="black" stroke="black" points="97.62,-133.84 94.29,-123.78 90.62,-133.72 97.62,-133.84"/>
</g>
<!-- x_hat&#45;&gt;mu_y -->
<g id="edge3" class="edge">
<title>x_hat&#45;&gt;mu_y</title>
<path fill="none" stroke="black" d="M91.71,-274.78C91.91,-263.08 92.13,-250.29 92.33,-238.64"/>
<polygon fill="black" stroke="black" points="95.83,-239.01 92.5,-228.95 88.83,-238.89 95.83,-239.01"/>
</g>
</g>
</svg>
