<?xml version="1.0" encoding="UTF-8" standalone="no"?>
<!DOCTYPE svg PUBLIC "-//W3C//DTD SVG 1.1//EN"
 "http://www.w3.org/Graphics/SVG/1.1/DTD/svg11.dtd">
<!-- Generated by graphviz version 3.0.0 (20220226.1711)
 -->
<!-- Pages: 1 -->
<svg width="790pt" height="663pt"
 viewBox="0.00 0.00 790.13 662.79" xmlns="http://www.w3.org/2000/svg" xmlns:xlink="http://www.w3.org/1999/xlink">
<g id="graph0" class="graph" transform="scale(1 1) rotate(0) translate(4 658.79)">
<polygon fill="white" stroke="transparent" points="-4,4 -4,-658.79 786.13,-658.79 786.13,4 -4,4"/>
<g id="clust1" class="cluster">
<title>clusterdate (179)</title>
<path fill="none" stroke="black" d="M106.13,-8C106.13,-8 442.13,-8 442.13,-8 448.13,-8 454.13,-14 454.13,-20 454.13,-20 454.13,-634.79 454.13,-634.79 454.13,-640.79 448.13,-646.79 442.13,-646.79 442.13,-646.79 106.13,-646.79 106.13,-646.79 100.13,-646.79 94.13,-640.79 94.13,-634.79 94.13,-634.79 94.13,-20 94.13,-20 94.13,-14 100.13,-8 106.13,-8"/>
<text text-anchor="middle" x="418.13" y="-15.8" font-family="Times,serif" font-size="14.00">date (179)</text>
</g>
<g id="clust2" class="cluster">
<title>clusterfourier_mode (14)</title>
<path fill="none" stroke="black" d="M669.13,-321.91C669.13,-321.91 762.13,-321.91 762.13,-321.91 768.13,-321.91 774.13,-327.91 774.13,-333.91 774.13,-333.91 774.13,-423.86 774.13,-423.86 774.13,-429.86 768.13,-435.86 762.13,-435.86 762.13,-435.86 669.13,-435.86 669.13,-435.86 663.13,-435.86 657.13,-429.86 657.13,-423.86 657.13,-423.86 657.13,-333.91 657.13,-333.91 657.13,-327.91 663.13,-321.91 669.13,-321.91"/>
<text text-anchor="middle" x="715.63" y="-329.71" font-family="Times,serif" font-size="14.00">fourier_mode (14)</text>
</g>
<!-- z_effect -->
<g id="node1" class="node">
<title>z_effect</title>
<polygon fill="none" stroke="black" points="227.63,-313.91 136.63,-313.91 136.63,-260.91 227.63,-260.91 227.63,-313.91"/>
<text text-anchor="middle" x="182.13" y="-298.71" font-family="Times,serif" font-size="14.00">z_effect</text>
<text text-anchor="middle" x="182.13" y="-283.71" font-family="Times,serif" font-size="14.00">~</text>
<text text-anchor="middle" x="182.13" y="-268.71" font-family="Times,serif" font-size="14.00">Deterministic</text>
</g>
<!-- mu -->
<g id="node4" class="node">
<title>mu</title>
<polygon fill="none" stroke="black" points="336.63,-213.93 245.63,-213.93 245.63,-160.93 336.63,-160.93 336.63,-213.93"/>
<text text-anchor="middle" x="291.13" y="-198.73" font-family="Times,serif" font-size="14.00">mu</text>
<text text-anchor="middle" x="291.13" y="-183.73" font-family="Times,serif" font-size="14.00">~</text>
<text text-anchor="middle" x="291.13" y="-168.73" font-family="Times,serif" font-size="14.00">Deterministic</text>
</g>
<!-- z_effect&#45;&gt;mu -->
<g id="edge11" class="edge">
<title>z_effect&#45;&gt;mu</title>
<path fill="none" stroke="black" d="M210.77,-260.66C224.29,-248.51 240.57,-233.88 254.93,-220.97"/>
<polygon fill="black" stroke="black" points="257.59,-223.29 262.69,-214 252.91,-218.08 257.59,-223.29"/>
</g>
<!-- z_adstock -->
<g id="node2" class="node">
<title>z_adstock</title>
<polygon fill="none" stroke="black" points="326.63,-527.84 235.63,-527.84 235.63,-474.84 326.63,-474.84 326.63,-527.84"/>
<text text-anchor="middle" x="281.13" y="-512.64" font-family="Times,serif" font-size="14.00">z_adstock</text>
<text text-anchor="middle" x="281.13" y="-497.64" font-family="Times,serif" font-size="14.00">~</text>
<text text-anchor="middle" x="281.13" y="-482.64" font-family="Times,serif" font-size="14.00">Deterministic</text>
</g>
<!-- z_adstock_saturated -->
<g id="node3" class="node">
<title>z_adstock_saturated</title>
<polygon fill="none" stroke="black" points="228.13,-416.88 102.13,-416.88 102.13,-363.88 228.13,-363.88 228.13,-416.88"/>
<text text-anchor="middle" x="165.13" y="-401.68" font-family="Times,serif" font-size="14.00">z_adstock_saturated</text>
<text text-anchor="middle" x="165.13" y="-386.68" font-family="Times,serif" font-size="14.00">~</text>
<text text-anchor="middle" x="165.13" y="-371.68" font-family="Times,serif" font-size="14.00">Deterministic</text>
</g>
<!-- z_adstock&#45;&gt;z_adstock_saturated -->
<g id="edge7" class="edge">
<title>z_adstock&#45;&gt;z_adstock_saturated</title>
<path fill="none" stroke="black" d="M253.94,-474.79C237.91,-459.74 217.46,-440.53 200.23,-424.34"/>
<polygon fill="black" stroke="black" points="202.25,-421.44 192.56,-417.15 197.45,-426.54 202.25,-421.44"/>
</g>
<!-- z_adstock_saturated&#45;&gt;z_effect -->
<g id="edge9" class="edge">
<title>z_adstock_saturated&#45;&gt;z_effect</title>
<path fill="none" stroke="black" d="M169.47,-363.64C171.49,-351.65 173.92,-337.19 176.11,-324.17"/>
<polygon fill="black" stroke="black" points="179.6,-324.54 177.81,-314.1 172.7,-323.38 179.6,-324.54"/>
</g>
<!-- likelihood -->
<g id="node5" class="node">
<title>likelihood</title>
<ellipse fill="lightgrey" stroke="black" cx="291.13" cy="-76.48" rx="50.41" ry="37.45"/>
<text text-anchor="middle" x="291.13" y="-87.78" font-family="Times,serif" font-size="14.00">likelihood</text>
<text text-anchor="middle" x="291.13" y="-72.78" font-family="Times,serif" font-size="14.00">~</text>
<text text-anchor="middle" x="291.13" y="-57.78" font-family="Times,serif" font-size="14.00">StudentT</text>
</g>
<!-- mu&#45;&gt;likelihood -->
<g id="edge15" class="edge">
<title>mu&#45;&gt;likelihood</title>
<path fill="none" stroke="black" d="M291.13,-160.89C291.13,-149.98 291.13,-136.89 291.13,-124.35"/>
<polygon fill="black" stroke="black" points="294.63,-124 291.13,-114 287.63,-124 294.63,-124"/>
</g>
<!-- slopes -->
<g id="node6" class="node">
<title>slopes</title>
<ellipse fill="none" stroke="black" cx="346.13" cy="-390.38" rx="99.9" ry="37.45"/>
<text text-anchor="middle" x="346.13" y="-401.68" font-family="Times,serif" font-size="14.00">slopes</text>
<text text-anchor="middle" x="346.13" y="-386.68" font-family="Times,serif" font-size="14.00">~</text>
<text text-anchor="middle" x="346.13" y="-371.68" font-family="Times,serif" font-size="14.00">GaussianRandomWalk</text>
</g>
<!-- slopes&#45;&gt;z_effect -->
<g id="edge10" class="edge">
<title>slopes&#45;&gt;z_effect</title>
<path fill="none" stroke="black" d="M295.44,-357.89C277.09,-346.53 256.19,-333.61 237.13,-321.91 235.69,-321.02 234.23,-320.12 232.75,-319.22"/>
<polygon fill="black" stroke="black" points="234.55,-316.22 224.19,-313.98 230.9,-322.19 234.55,-316.22"/>
</g>
<!-- trend -->
<g id="node7" class="node">
<title>trend</title>
<polygon fill="none" stroke="black" points="336.63,-313.91 245.63,-313.91 245.63,-260.91 336.63,-260.91 336.63,-313.91"/>
<text text-anchor="middle" x="291.13" y="-298.71" font-family="Times,serif" font-size="14.00">trend</text>
<text text-anchor="middle" x="291.13" y="-283.71" font-family="Times,serif" font-size="14.00">~</text>
<text text-anchor="middle" x="291.13" y="-268.71" font-family="Times,serif" font-size="14.00">Deterministic</text>
</g>
<!-- trend&#45;&gt;mu -->
<g id="edge12" class="edge">
<title>trend&#45;&gt;mu</title>
<path fill="none" stroke="black" d="M291.13,-260.66C291.13,-249.53 291.13,-236.3 291.13,-224.23"/>
<polygon fill="black" stroke="black" points="294.63,-224 291.13,-214 287.63,-224 294.63,-224"/>
</g>
<!-- seasonality -->
<g id="node8" class="node">
<title>seasonality</title>
<polygon fill="none" stroke="black" points="445.63,-313.91 354.63,-313.91 354.63,-260.91 445.63,-260.91 445.63,-313.91"/>
<text text-anchor="middle" x="400.13" y="-298.71" font-family="Times,serif" font-size="14.00">seasonality</text>
<text text-anchor="middle" x="400.13" y="-283.71" font-family="Times,serif" font-size="14.00">~</text>
<text text-anchor="middle" x="400.13" y="-268.71" font-family="Times,serif" font-size="14.00">Deterministic</text>
</g>
<!-- seasonality&#45;&gt;mu -->
<g id="edge13" class="edge">
<title>seasonality&#45;&gt;mu</title>
<path fill="none" stroke="black" d="M371.5,-260.66C357.98,-248.51 341.7,-233.88 327.33,-220.97"/>
<polygon fill="black" stroke="black" points="329.36,-218.08 319.58,-214 324.68,-223.29 329.36,-218.08"/>
</g>
<!-- z_scaled -->
<g id="node9" class="node">
<title>z_scaled</title>
<path fill="lightgrey" stroke="black" d="M313.13,-638.79C313.13,-638.79 249.13,-638.79 249.13,-638.79 243.13,-638.79 237.13,-632.79 237.13,-626.79 237.13,-626.79 237.13,-597.79 237.13,-597.79 237.13,-591.79 243.13,-585.79 249.13,-585.79 249.13,-585.79 313.13,-585.79 313.13,-585.79 319.13,-585.79 325.13,-591.79 325.13,-597.79 325.13,-597.79 325.13,-626.79 325.13,-626.79 325.13,-632.79 319.13,-638.79 313.13,-638.79"/>
<text text-anchor="middle" x="281.13" y="-623.59" font-family="Times,serif" font-size="14.00">z_scaled</text>
<text text-anchor="middle" x="281.13" y="-608.59" font-family="Times,serif" font-size="14.00">~</text>
<text text-anchor="middle" x="281.13" y="-593.59" font-family="Times,serif" font-size="14.00">MutableData</text>
</g>
<!-- z_scaled&#45;&gt;z_adstock -->
<g id="edge6" class="edge">
<title>z_scaled&#45;&gt;z_adstock</title>
<path fill="none" stroke="black" d="M281.13,-585.75C281.13,-571.64 281.13,-553.89 281.13,-538.39"/>
<polygon fill="black" stroke="black" points="284.63,-538.1 281.13,-528.1 277.63,-538.1 284.63,-538.1"/>
</g>
<!-- alpha -->
<g id="node10" class="node">
<title>alpha</title>
<ellipse fill="none" stroke="black" cx="495.13" cy="-612.29" rx="32.55" ry="37.45"/>
<text text-anchor="middle" x="495.13" y="-623.59" font-family="Times,serif" font-size="14.00">alpha</text>
<text text-anchor="middle" x="495.13" y="-608.59" font-family="Times,serif" font-size="14.00">~</text>
<text text-anchor="middle" x="495.13" y="-593.59" font-family="Times,serif" font-size="14.00">Beta</text>
</g>
<!-- alpha&#45;&gt;z_adstock -->
<g id="edge5" class="edge">
<title>alpha&#45;&gt;z_adstock</title>
<path fill="none" stroke="black" d="M472.05,-585.88C467.67,-581.86 462.95,-577.99 458.13,-574.81 420.52,-549.98 373.03,-531.11 336.71,-518.85"/>
<polygon fill="black" stroke="black" points="337.38,-515.39 326.78,-515.57 335.18,-522.03 337.38,-515.39"/>
</g>
<!-- lam -->
<g id="node11" class="node">
<title>lam</title>
<ellipse fill="none" stroke="black" cx="505.13" cy="-501.34" rx="43.27" ry="37.45"/>
<text text-anchor="middle" x="505.13" y="-512.64" font-family="Times,serif" font-size="14.00">lam</text>
<text text-anchor="middle" x="505.13" y="-497.64" font-family="Times,serif" font-size="14.00">~</text>
<text text-anchor="middle" x="505.13" y="-482.64" font-family="Times,serif" font-size="14.00">Gamma</text>
</g>
<!-- lam&#45;&gt;z_adstock_saturated -->
<g id="edge8" class="edge">
<title>lam&#45;&gt;z_adstock_saturated</title>
<path fill="none" stroke="black" d="M475.78,-473.83C470.23,-469.94 464.24,-466.39 458.13,-463.86 366.67,-425.94 330.48,-468.85 237.13,-435.86 227.47,-432.45 217.73,-427.59 208.67,-422.33"/>
<polygon fill="black" stroke="black" points="210.23,-419.18 199.86,-416.98 206.59,-425.16 210.23,-419.18"/>
</g>
<!-- nu -->
<g id="node12" class="node">
<title>nu</title>
<ellipse fill="none" stroke="black" cx="43.13" cy="-187.43" rx="43.27" ry="37.45"/>
<text text-anchor="middle" x="43.13" y="-198.73" font-family="Times,serif" font-size="14.00">nu</text>
<text text-anchor="middle" x="43.13" y="-183.73" font-family="Times,serif" font-size="14.00">~</text>
<text text-anchor="middle" x="43.13" y="-168.73" font-family="Times,serif" font-size="14.00">Gamma</text>
</g>
<!-- nu&#45;&gt;likelihood -->
<g id="edge16" class="edge">
<title>nu&#45;&gt;likelihood</title>
<path fill="none" stroke="black" d="M73.53,-160.65C78.87,-156.77 84.52,-153.04 90.13,-149.95 136.17,-124.62 192.79,-105.14 234.2,-92.78"/>
<polygon fill="black" stroke="black" points="235.24,-96.12 243.85,-89.95 233.27,-89.4 235.24,-96.12"/>
</g>
<!-- a -->
<g id="node13" class="node">
<title>a</title>
<ellipse fill="none" stroke="black" cx="505.13" cy="-390.38" rx="41.94" ry="37.45"/>
<text text-anchor="middle" x="505.13" y="-401.68" font-family="Times,serif" font-size="14.00">a</text>
<text text-anchor="middle" x="505.13" y="-386.68" font-family="Times,serif" font-size="14.00">~</text>
<text text-anchor="middle" x="505.13" y="-371.68" font-family="Times,serif" font-size="14.00">Normal</text>
</g>
<!-- a&#45;&gt;trend -->
<g id="edge1" class="edge">
<title>a&#45;&gt;trend</title>
<path fill="none" stroke="black" d="M489.61,-355.44C482,-342.73 471.54,-329.53 458.13,-321.91 438.47,-310.73 382.31,-318.37 347.09,-313.16"/>
<polygon fill="black" stroke="black" points="347.39,-309.65 336.9,-311.09 346,-316.51 347.39,-309.65"/>
</g>
<!-- b_trend -->
<g id="node14" class="node">
<title>b_trend</title>
<ellipse fill="none" stroke="black" cx="606.13" cy="-390.38" rx="41.94" ry="37.45"/>
<text text-anchor="middle" x="606.13" y="-401.68" font-family="Times,serif" font-size="14.00">b_trend</text>
<text text-anchor="middle" x="606.13" y="-386.68" font-family="Times,serif" font-size="14.00">~</text>
<text text-anchor="middle" x="606.13" y="-371.68" font-family="Times,serif" font-size="14.00">Normal</text>
</g>
<!-- b_trend&#45;&gt;trend -->
<g id="edge2" class="edge">
<title>b_trend&#45;&gt;trend</title>
<path fill="none" stroke="black" d="M589.74,-355.88C581.54,-342.9 570.32,-329.39 556.13,-321.91 537.14,-311.88 394.59,-318.15 346.99,-312.87"/>
<polygon fill="black" stroke="black" points="347.3,-309.38 336.87,-311.21 346.17,-316.28 347.3,-309.38"/>
</g>
<!-- sigma -->
<g id="node15" class="node">
<title>sigma</title>
<ellipse fill="none" stroke="black" cx="521.13" cy="-187.43" rx="58.88" ry="37.45"/>
<text text-anchor="middle" x="521.13" y="-198.73" font-family="Times,serif" font-size="14.00">sigma</text>
<text text-anchor="middle" x="521.13" y="-183.73" font-family="Times,serif" font-size="14.00">~</text>
<text text-anchor="middle" x="521.13" y="-168.73" font-family="Times,serif" font-size="14.00">HalfNormal</text>
</g>
<!-- sigma&#45;&gt;likelihood -->
<g id="edge14" class="edge">
<title>sigma&#45;&gt;likelihood</title>
<path fill="none" stroke="black" d="M479.14,-161.22C472.2,-157.31 465.02,-153.43 458.13,-149.95 420.89,-131.17 377.67,-112.49 344.52,-98.8"/>
<polygon fill="black" stroke="black" points="345.6,-95.46 335.02,-94.9 342.94,-101.93 345.6,-95.46"/>
</g>
<!-- sigma_slope -->
<g id="node16" class="node">
<title>sigma_slope</title>
<ellipse fill="none" stroke="black" cx="626.13" cy="-501.34" rx="60.21" ry="37.45"/>
<text text-anchor="middle" x="626.13" y="-512.64" font-family="Times,serif" font-size="14.00">sigma_slope</text>
<text text-anchor="middle" x="626.13" y="-497.64" font-family="Times,serif" font-size="14.00">~</text>
<text text-anchor="middle" x="626.13" y="-482.64" font-family="Times,serif" font-size="14.00">HalfNormal</text>
</g>
<!-- sigma_slope&#45;&gt;slopes -->
<g id="edge4" class="edge">
<title>sigma_slope&#45;&gt;slopes</title>
<path fill="none" stroke="black" d="M582.27,-475.31C574.07,-471.16 565.45,-467.14 557.13,-463.86 513.01,-446.45 499.04,-451.14 454.13,-435.86 442.89,-432.03 431.13,-427.63 419.69,-423.11"/>
<polygon fill="black" stroke="black" points="420.75,-419.76 410.16,-419.3 418.15,-426.26 420.75,-419.76"/>
</g>
<!-- b_fourier -->
<g id="node17" class="node">
<title>b_fourier</title>
<ellipse fill="none" stroke="black" cx="713.13" cy="-390.38" rx="47.25" ry="37.45"/>
<text text-anchor="middle" x="713.13" y="-401.68" font-family="Times,serif" font-size="14.00">b_fourier</text>
<text text-anchor="middle" x="713.13" y="-386.68" font-family="Times,serif" font-size="14.00">~</text>
<text text-anchor="middle" x="713.13" y="-371.68" font-family="Times,serif" font-size="14.00">Laplace</text>
</g>
<!-- b_fourier&#45;&gt;seasonality -->
<g id="edge3" class="edge">
<title>b_fourier&#45;&gt;seasonality</title>
<path fill="none" stroke="black" d="M693.32,-356.11C683.97,-343.34 671.67,-329.92 657.13,-321.91 623.56,-303.4 520.83,-294.69 455.88,-290.93"/>
<polygon fill="black" stroke="black" points="455.97,-287.43 445.79,-290.37 455.58,-294.42 455.97,-287.43"/>
</g>
</g>
</svg>
