<?xml version="1.0" encoding="UTF-8" standalone="no"?>
<!DOCTYPE svg PUBLIC "-//W3C//DTD SVG 1.1//EN"
 "http://www.w3.org/Graphics/SVG/1.1/DTD/svg11.dtd">
<!-- Generated by graphviz version 3.0.0 (20220226.1711)
 -->
<!-- Pages: 1 -->
<svg width="822pt" height="658pt"
 viewBox="0.00 0.00 821.69 657.77" xmlns="http://www.w3.org/2000/svg" xmlns:xlink="http://www.w3.org/1999/xlink">
<g id="graph0" class="graph" transform="scale(1 1) rotate(0) translate(4 653.77)">
<polygon fill="white" stroke="transparent" points="-4,4 -4,-653.77 817.69,-653.77 817.69,4 -4,4"/>
<g id="clust1" class="cluster">
<title>clusterfourier_mode (14)</title>
<path fill="none" stroke="black" d="M700.69,-321.91C700.69,-321.91 793.69,-321.91 793.69,-321.91 799.69,-321.91 805.69,-327.91 805.69,-333.91 805.69,-333.91 805.69,-423.86 805.69,-423.86 805.69,-429.86 799.69,-435.86 793.69,-435.86 793.69,-435.86 700.69,-435.86 700.69,-435.86 694.69,-435.86 688.69,-429.86 688.69,-423.86 688.69,-423.86 688.69,-333.91 688.69,-333.91 688.69,-327.91 694.69,-321.91 700.69,-321.91"/>
<text text-anchor="middle" x="747.19" y="-329.71" font-family="Times,serif" font-size="14.00">fourier_mode (14)</text>
</g>
<g id="clust2" class="cluster">
<title>clusterdate (179)</title>
<path fill="none" stroke="black" d="M137.69,-8C137.69,-8 473.69,-8 473.69,-8 479.69,-8 485.69,-14 485.69,-20 485.69,-20 485.69,-523.84 485.69,-523.84 485.69,-529.84 479.69,-535.84 473.69,-535.84 473.69,-535.84 137.69,-535.84 137.69,-535.84 131.69,-535.84 125.69,-529.84 125.69,-523.84 125.69,-523.84 125.69,-20 125.69,-20 125.69,-14 131.69,-8 137.69,-8"/>
<text text-anchor="middle" x="449.69" y="-15.8" font-family="Times,serif" font-size="14.00">date (179)</text>
</g>
<!-- sigma -->
<g id="node1" class="node">
<title>sigma</title>
<ellipse fill="none" stroke="black" cx="58.69" cy="-187.43" rx="58.88" ry="37.45"/>
<text text-anchor="middle" x="58.69" y="-198.73" font-family="Times,serif" font-size="14.00">sigma</text>
<text text-anchor="middle" x="58.69" y="-183.73" font-family="Times,serif" font-size="14.00">~</text>
<text text-anchor="middle" x="58.69" y="-168.73" font-family="Times,serif" font-size="14.00">HalfNormal</text>
</g>
<!-- likelihood -->
<g id="node14" class="node">
<title>likelihood</title>
<ellipse fill="lightgrey" stroke="black" cx="322.69" cy="-76.48" rx="50.41" ry="37.45"/>
<text text-anchor="middle" x="322.69" y="-87.78" font-family="Times,serif" font-size="14.00">likelihood</text>
<text text-anchor="middle" x="322.69" y="-72.78" font-family="Times,serif" font-size="14.00">~</text>
<text text-anchor="middle" x="322.69" y="-57.78" font-family="Times,serif" font-size="14.00">StudentT</text>
</g>
<!-- sigma&#45;&gt;likelihood -->
<g id="edge14" class="edge">
<title>sigma&#45;&gt;likelihood</title>
<path fill="none" stroke="black" d="M100.5,-160.84C107.46,-156.98 114.7,-153.21 121.69,-149.95 169.49,-127.72 226.15,-107.83 267.12,-94.54"/>
<polygon fill="black" stroke="black" points="268.21,-97.87 276.65,-91.48 266.06,-91.21 268.21,-97.87"/>
</g>
<!-- sigma_slope -->
<g id="node2" class="node">
<title>sigma_slope</title>
<ellipse fill="none" stroke="black" cx="657.69" cy="-501.34" rx="60.21" ry="37.45"/>
<text text-anchor="middle" x="657.69" y="-512.64" font-family="Times,serif" font-size="14.00">sigma_slope</text>
<text text-anchor="middle" x="657.69" y="-497.64" font-family="Times,serif" font-size="14.00">~</text>
<text text-anchor="middle" x="657.69" y="-482.64" font-family="Times,serif" font-size="14.00">HalfNormal</text>
</g>
<!-- slopes -->
<g id="node11" class="node">
<title>slopes</title>
<ellipse fill="none" stroke="black" cx="377.69" cy="-390.38" rx="99.9" ry="37.45"/>
<text text-anchor="middle" x="377.69" y="-401.68" font-family="Times,serif" font-size="14.00">slopes</text>
<text text-anchor="middle" x="377.69" y="-386.68" font-family="Times,serif" font-size="14.00">~</text>
<text text-anchor="middle" x="377.69" y="-371.68" font-family="Times,serif" font-size="14.00">GaussianRandomWalk</text>
</g>
<!-- sigma_slope&#45;&gt;slopes -->
<g id="edge4" class="edge">
<title>sigma_slope&#45;&gt;slopes</title>
<path fill="none" stroke="black" d="M613.83,-475.31C605.62,-471.16 597.01,-467.14 588.69,-463.86 544.56,-446.45 530.6,-451.14 485.69,-435.86 474.44,-432.03 462.69,-427.63 451.24,-423.11"/>
<polygon fill="black" stroke="black" points="452.31,-419.76 441.72,-419.3 449.7,-426.26 452.31,-419.76"/>
</g>
<!-- nu -->
<g id="node3" class="node">
<title>nu</title>
<ellipse fill="none" stroke="black" cx="536.69" cy="-187.43" rx="43.27" ry="37.45"/>
<text text-anchor="middle" x="536.69" y="-198.73" font-family="Times,serif" font-size="14.00">nu</text>
<text text-anchor="middle" x="536.69" y="-183.73" font-family="Times,serif" font-size="14.00">~</text>
<text text-anchor="middle" x="536.69" y="-168.73" font-family="Times,serif" font-size="14.00">Gamma</text>
</g>
<!-- nu&#45;&gt;likelihood -->
<g id="edge13" class="edge">
<title>nu&#45;&gt;likelihood</title>
<path fill="none" stroke="black" d="M506.12,-160.96C500.8,-157.04 495.2,-153.22 489.69,-149.95 453.93,-128.77 410.83,-110.22 377.38,-97.2"/>
<polygon fill="black" stroke="black" points="378.36,-93.82 367.77,-93.5 375.85,-100.36 378.36,-93.82"/>
</g>
<!-- lam -->
<g id="node4" class="node">
<title>lam</title>
<ellipse fill="none" stroke="black" cx="536.69" cy="-501.34" rx="43.27" ry="37.45"/>
<text text-anchor="middle" x="536.69" y="-512.64" font-family="Times,serif" font-size="14.00">lam</text>
<text text-anchor="middle" x="536.69" y="-497.64" font-family="Times,serif" font-size="14.00">~</text>
<text text-anchor="middle" x="536.69" y="-482.64" font-family="Times,serif" font-size="14.00">Gamma</text>
</g>
<!-- z_adstock_saturated -->
<g id="node15" class="node">
<title>z_adstock_saturated</title>
<polygon fill="none" stroke="black" points="259.69,-416.88 133.69,-416.88 133.69,-363.88 259.69,-363.88 259.69,-416.88"/>
<text text-anchor="middle" x="196.69" y="-401.68" font-family="Times,serif" font-size="14.00">z_adstock_saturated</text>
<text text-anchor="middle" x="196.69" y="-386.68" font-family="Times,serif" font-size="14.00">~</text>
<text text-anchor="middle" x="196.69" y="-371.68" font-family="Times,serif" font-size="14.00">Deterministic</text>
</g>
<!-- lam&#45;&gt;z_adstock_saturated -->
<g id="edge7" class="edge">
<title>lam&#45;&gt;z_adstock_saturated</title>
<path fill="none" stroke="black" d="M507.34,-473.83C501.79,-469.94 495.8,-466.39 489.69,-463.86 398.23,-425.94 362.04,-468.85 268.69,-435.86 259.03,-432.45 249.29,-427.59 240.22,-422.33"/>
<polygon fill="black" stroke="black" points="241.78,-419.18 231.42,-416.98 238.14,-425.16 241.78,-419.18"/>
</g>
<!-- a -->
<g id="node5" class="node">
<title>a</title>
<ellipse fill="none" stroke="black" cx="536.69" cy="-390.38" rx="41.94" ry="37.45"/>
<text text-anchor="middle" x="536.69" y="-401.68" font-family="Times,serif" font-size="14.00">a</text>
<text text-anchor="middle" x="536.69" y="-386.68" font-family="Times,serif" font-size="14.00">~</text>
<text text-anchor="middle" x="536.69" y="-371.68" font-family="Times,serif" font-size="14.00">Normal</text>
</g>
<!-- trend -->
<g id="node10" class="node">
<title>trend</title>
<polygon fill="none" stroke="black" points="368.19,-313.91 277.19,-313.91 277.19,-260.91 368.19,-260.91 368.19,-313.91"/>
<text text-anchor="middle" x="322.69" y="-298.71" font-family="Times,serif" font-size="14.00">trend</text>
<text text-anchor="middle" x="322.69" y="-283.71" font-family="Times,serif" font-size="14.00">~</text>
<text text-anchor="middle" x="322.69" y="-268.71" font-family="Times,serif" font-size="14.00">Deterministic</text>
</g>
<!-- a&#45;&gt;trend -->
<g id="edge1" class="edge">
<title>a&#45;&gt;trend</title>
<path fill="none" stroke="black" d="M521.17,-355.44C513.55,-342.73 503.09,-329.53 489.69,-321.91 470.03,-310.73 413.86,-318.37 378.65,-313.16"/>
<polygon fill="black" stroke="black" points="378.95,-309.65 368.45,-311.09 377.56,-316.51 378.95,-309.65"/>
</g>
<!-- alpha -->
<g id="node6" class="node">
<title>alpha</title>
<ellipse fill="none" stroke="black" cx="196.69" cy="-612.29" rx="32.55" ry="37.45"/>
<text text-anchor="middle" x="196.69" y="-623.59" font-family="Times,serif" font-size="14.00">alpha</text>
<text text-anchor="middle" x="196.69" y="-608.59" font-family="Times,serif" font-size="14.00">~</text>
<text text-anchor="middle" x="196.69" y="-593.59" font-family="Times,serif" font-size="14.00">Beta</text>
</g>
<!-- z_adstock -->
<g id="node9" class="node">
<title>z_adstock</title>
<polygon fill="none" stroke="black" points="242.19,-527.84 151.19,-527.84 151.19,-474.84 242.19,-474.84 242.19,-527.84"/>
<text text-anchor="middle" x="196.69" y="-512.64" font-family="Times,serif" font-size="14.00">z_adstock</text>
<text text-anchor="middle" x="196.69" y="-497.64" font-family="Times,serif" font-size="14.00">~</text>
<text text-anchor="middle" x="196.69" y="-482.64" font-family="Times,serif" font-size="14.00">Deterministic</text>
</g>
<!-- alpha&#45;&gt;z_adstock -->
<g id="edge5" class="edge">
<title>alpha&#45;&gt;z_adstock</title>
<path fill="none" stroke="black" d="M196.69,-574.71C196.69,-562.97 196.69,-549.98 196.69,-538.29"/>
<polygon fill="black" stroke="black" points="200.19,-537.99 196.69,-527.99 193.19,-537.99 200.19,-537.99"/>
</g>
<!-- b_trend -->
<g id="node7" class="node">
<title>b_trend</title>
<ellipse fill="none" stroke="black" cx="637.69" cy="-390.38" rx="41.94" ry="37.45"/>
<text text-anchor="middle" x="637.69" y="-401.68" font-family="Times,serif" font-size="14.00">b_trend</text>
<text text-anchor="middle" x="637.69" y="-386.68" font-family="Times,serif" font-size="14.00">~</text>
<text text-anchor="middle" x="637.69" y="-371.68" font-family="Times,serif" font-size="14.00">Normal</text>
</g>
<!-- b_trend&#45;&gt;trend -->
<g id="edge2" class="edge">
<title>b_trend&#45;&gt;trend</title>
<path fill="none" stroke="black" d="M621.29,-355.88C613.1,-342.9 601.87,-329.39 587.69,-321.91 568.69,-311.88 426.15,-318.15 378.55,-312.87"/>
<polygon fill="black" stroke="black" points="378.86,-309.38 368.42,-311.21 377.73,-316.28 378.86,-309.38"/>
</g>
<!-- b_fourier -->
<g id="node8" class="node">
<title>b_fourier</title>
<ellipse fill="none" stroke="black" cx="744.69" cy="-390.38" rx="47.25" ry="37.45"/>
<text text-anchor="middle" x="744.69" y="-401.68" font-family="Times,serif" font-size="14.00">b_fourier</text>
<text text-anchor="middle" x="744.69" y="-386.68" font-family="Times,serif" font-size="14.00">~</text>
<text text-anchor="middle" x="744.69" y="-371.68" font-family="Times,serif" font-size="14.00">Laplace</text>
</g>
<!-- seasonality -->
<g id="node13" class="node">
<title>seasonality</title>
<polygon fill="none" stroke="black" points="477.19,-313.91 386.19,-313.91 386.19,-260.91 477.19,-260.91 477.19,-313.91"/>
<text text-anchor="middle" x="431.69" y="-298.71" font-family="Times,serif" font-size="14.00">seasonality</text>
<text text-anchor="middle" x="431.69" y="-283.71" font-family="Times,serif" font-size="14.00">~</text>
<text text-anchor="middle" x="431.69" y="-268.71" font-family="Times,serif" font-size="14.00">Deterministic</text>
</g>
<!-- b_fourier&#45;&gt;seasonality -->
<g id="edge3" class="edge">
<title>b_fourier&#45;&gt;seasonality</title>
<path fill="none" stroke="black" d="M724.88,-356.11C715.53,-343.34 703.22,-329.92 688.69,-321.91 655.12,-303.4 552.39,-294.69 487.43,-290.93"/>
<polygon fill="black" stroke="black" points="487.53,-287.43 477.35,-290.37 487.14,-294.42 487.53,-287.43"/>
</g>
<!-- z_adstock&#45;&gt;z_adstock_saturated -->
<g id="edge6" class="edge">
<title>z_adstock&#45;&gt;z_adstock_saturated</title>
<path fill="none" stroke="black" d="M196.69,-474.79C196.69,-460.69 196.69,-442.94 196.69,-427.44"/>
<polygon fill="black" stroke="black" points="200.19,-427.15 196.69,-417.15 193.19,-427.15 200.19,-427.15"/>
</g>
<!-- mu -->
<g id="node16" class="node">
<title>mu</title>
<polygon fill="none" stroke="black" points="368.19,-213.93 277.19,-213.93 277.19,-160.93 368.19,-160.93 368.19,-213.93"/>
<text text-anchor="middle" x="322.69" y="-198.73" font-family="Times,serif" font-size="14.00">mu</text>
<text text-anchor="middle" x="322.69" y="-183.73" font-family="Times,serif" font-size="14.00">~</text>
<text text-anchor="middle" x="322.69" y="-168.73" font-family="Times,serif" font-size="14.00">Deterministic</text>
</g>
<!-- trend&#45;&gt;mu -->
<g id="edge11" class="edge">
<title>trend&#45;&gt;mu</title>
<path fill="none" stroke="black" d="M322.69,-260.66C322.69,-249.53 322.69,-236.3 322.69,-224.23"/>
<polygon fill="black" stroke="black" points="326.19,-224 322.69,-214 319.19,-224 326.19,-224"/>
</g>
<!-- z_effect -->
<g id="node12" class="node">
<title>z_effect</title>
<polygon fill="none" stroke="black" points="259.19,-313.91 168.19,-313.91 168.19,-260.91 259.19,-260.91 259.19,-313.91"/>
<text text-anchor="middle" x="213.69" y="-298.71" font-family="Times,serif" font-size="14.00">z_effect</text>
<text text-anchor="middle" x="213.69" y="-283.71" font-family="Times,serif" font-size="14.00">~</text>
<text text-anchor="middle" x="213.69" y="-268.71" font-family="Times,serif" font-size="14.00">Deterministic</text>
</g>
<!-- slopes&#45;&gt;z_effect -->
<g id="edge9" class="edge">
<title>slopes&#45;&gt;z_effect</title>
<path fill="none" stroke="black" d="M326.99,-357.89C308.64,-346.53 287.75,-333.61 268.69,-321.91 267.25,-321.02 265.79,-320.12 264.31,-319.22"/>
<polygon fill="black" stroke="black" points="266.11,-316.22 255.75,-313.98 262.45,-322.19 266.11,-316.22"/>
</g>
<!-- z_effect&#45;&gt;mu -->
<g id="edge10" class="edge">
<title>z_effect&#45;&gt;mu</title>
<path fill="none" stroke="black" d="M242.33,-260.66C255.85,-248.51 272.13,-233.88 286.49,-220.97"/>
<polygon fill="black" stroke="black" points="289.15,-223.29 294.24,-214 284.47,-218.08 289.15,-223.29"/>
</g>
<!-- seasonality&#45;&gt;mu -->
<g id="edge12" class="edge">
<title>seasonality&#45;&gt;mu</title>
<path fill="none" stroke="black" d="M403.05,-260.66C389.53,-248.51 373.25,-233.88 358.89,-220.97"/>
<polygon fill="black" stroke="black" points="360.91,-218.08 351.14,-214 356.23,-223.29 360.91,-218.08"/>
</g>
<!-- z_adstock_saturated&#45;&gt;z_effect -->
<g id="edge8" class="edge">
<title>z_adstock_saturated&#45;&gt;z_effect</title>
<path fill="none" stroke="black" d="M201.02,-363.64C203.04,-351.65 205.48,-337.19 207.67,-324.17"/>
<polygon fill="black" stroke="black" points="211.16,-324.54 209.36,-314.1 204.25,-323.38 211.16,-324.54"/>
</g>
<!-- mu&#45;&gt;likelihood -->
<g id="edge15" class="edge">
<title>mu&#45;&gt;likelihood</title>
<path fill="none" stroke="black" d="M322.69,-160.89C322.69,-149.98 322.69,-136.89 322.69,-124.35"/>
<polygon fill="black" stroke="black" points="326.19,-124 322.69,-114 319.19,-124 326.19,-124"/>
</g>
</g>
</svg>
