<?xml version="1.0" encoding="UTF-8" standalone="no"?>
<!DOCTYPE svg PUBLIC "-//W3C//DTD SVG 1.1//EN"
 "http://www.w3.org/Graphics/SVG/1.1/DTD/svg11.dtd">
<!-- Generated by graphviz version 2.50.0 (20211204.2007)
 -->
<!-- Pages: 1 -->
<svg width="515pt" height="363pt"
 viewBox="0.00 0.00 514.69 362.86" xmlns="http://www.w3.org/2000/svg" xmlns:xlink="http://www.w3.org/1999/xlink">
<g id="graph0" class="graph" transform="scale(1 1) rotate(0) translate(4 358.86)">
<polygon fill="white" stroke="transparent" points="-4,4 -4,-358.86 510.69,-358.86 510.69,4 -4,4"/>
<g id="clust1" class="cluster">
<title>cluster20</title>
<path fill="none" stroke="black" d="M400.69,-232.91C400.69,-232.91 486.69,-232.91 486.69,-232.91 492.69,-232.91 498.69,-238.91 498.69,-244.91 498.69,-244.91 498.69,-334.86 498.69,-334.86 498.69,-340.86 492.69,-346.86 486.69,-346.86 486.69,-346.86 400.69,-346.86 400.69,-346.86 394.69,-346.86 388.69,-340.86 388.69,-334.86 388.69,-334.86 388.69,-244.91 388.69,-244.91 388.69,-238.91 394.69,-232.91 400.69,-232.91"/>
<text text-anchor="middle" x="483.69" y="-240.71" font-family="Times,serif" font-size="14.00">20</text>
</g>
<g id="clust2" class="cluster">
<title>cluster179</title>
<path fill="none" stroke="black" d="M138.69,-8C138.69,-8 440.69,-8 440.69,-8 446.69,-8 452.69,-14 452.69,-20 452.69,-20 452.69,-209.93 452.69,-209.93 452.69,-215.93 446.69,-221.93 440.69,-221.93 440.69,-221.93 138.69,-221.93 138.69,-221.93 132.69,-221.93 126.69,-215.93 126.69,-209.93 126.69,-209.93 126.69,-20 126.69,-20 126.69,-14 132.69,-8 138.69,-8"/>
<text text-anchor="middle" x="434.19" y="-15.8" font-family="Times,serif" font-size="14.00">179</text>
</g>
<!-- sigma -->
<g id="node1" class="node">
<title>sigma</title>
<ellipse fill="none" stroke="black" cx="58.69" cy="-187.43" rx="58.88" ry="37.45"/>
<text text-anchor="middle" x="58.69" y="-198.73" font-family="Times,serif" font-size="14.00">sigma</text>
<text text-anchor="middle" x="58.69" y="-183.73" font-family="Times,serif" font-size="14.00">~</text>
<text text-anchor="middle" x="58.69" y="-168.73" font-family="Times,serif" font-size="14.00">HalfNormal</text>
</g>
<!-- likelihood -->
<g id="node9" class="node">
<title>likelihood</title>
<ellipse fill="lightgrey" stroke="black" cx="236.69" cy="-76.48" rx="50.41" ry="37.45"/>
<text text-anchor="middle" x="236.69" y="-87.78" font-family="Times,serif" font-size="14.00">likelihood</text>
<text text-anchor="middle" x="236.69" y="-72.78" font-family="Times,serif" font-size="14.00">~</text>
<text text-anchor="middle" x="236.69" y="-57.78" font-family="Times,serif" font-size="14.00">Normal</text>
</g>
<!-- sigma&#45;&gt;likelihood -->
<g id="edge7" class="edge">
<title>sigma&#45;&gt;likelihood</title>
<path fill="none" stroke="black" d="M100.42,-160.89C127.13,-144.54 161.83,-123.3 189.53,-106.34"/>
<polygon fill="black" stroke="black" points="191.56,-109.21 198.26,-101 187.9,-103.24 191.56,-109.21"/>
</g>
<!-- b_z -->
<g id="node2" class="node">
<title>b_z</title>
<ellipse fill="none" stroke="black" cx="134.69" cy="-301.38" rx="41.94" ry="37.45"/>
<text text-anchor="middle" x="134.69" y="-312.68" font-family="Times,serif" font-size="14.00">b_z</text>
<text text-anchor="middle" x="134.69" y="-297.68" font-family="Times,serif" font-size="14.00">~</text>
<text text-anchor="middle" x="134.69" y="-282.68" font-family="Times,serif" font-size="14.00">Normal</text>
</g>
<!-- z_effect -->
<g id="node8" class="node">
<title>z_effect</title>
<polygon fill="none" stroke="black" points="226.19,-213.93 135.19,-213.93 135.19,-160.93 226.19,-160.93 226.19,-213.93"/>
<text text-anchor="middle" x="180.69" y="-198.73" font-family="Times,serif" font-size="14.00">z_effect</text>
<text text-anchor="middle" x="180.69" y="-183.73" font-family="Times,serif" font-size="14.00">~</text>
<text text-anchor="middle" x="180.69" y="-168.73" font-family="Times,serif" font-size="14.00">Deterministic</text>
</g>
<!-- b_z&#45;&gt;z_effect -->
<g id="edge4" class="edge">
<title>b_z&#45;&gt;z_effect</title>
<path fill="none" stroke="black" d="M148.87,-265.88C154.39,-252.44 160.71,-237.05 166.26,-223.55"/>
<polygon fill="black" stroke="black" points="169.58,-224.69 170.14,-214.11 163.1,-222.03 169.58,-224.69"/>
</g>
<!-- a -->
<g id="node3" class="node">
<title>a</title>
<ellipse fill="none" stroke="black" cx="235.69" cy="-301.38" rx="41.94" ry="37.45"/>
<text text-anchor="middle" x="235.69" y="-312.68" font-family="Times,serif" font-size="14.00">a</text>
<text text-anchor="middle" x="235.69" y="-297.68" font-family="Times,serif" font-size="14.00">~</text>
<text text-anchor="middle" x="235.69" y="-282.68" font-family="Times,serif" font-size="14.00">Normal</text>
</g>
<!-- trend -->
<g id="node7" class="node">
<title>trend</title>
<polygon fill="none" stroke="black" points="335.19,-213.93 244.19,-213.93 244.19,-160.93 335.19,-160.93 335.19,-213.93"/>
<text text-anchor="middle" x="289.69" y="-198.73" font-family="Times,serif" font-size="14.00">trend</text>
<text text-anchor="middle" x="289.69" y="-183.73" font-family="Times,serif" font-size="14.00">~</text>
<text text-anchor="middle" x="289.69" y="-168.73" font-family="Times,serif" font-size="14.00">Deterministic</text>
</g>
<!-- a&#45;&gt;trend -->
<g id="edge1" class="edge">
<title>a&#45;&gt;trend</title>
<path fill="none" stroke="black" d="M251.89,-266.79C258.5,-253.08 266.15,-237.23 272.83,-223.38"/>
<polygon fill="black" stroke="black" points="276.08,-224.69 277.28,-214.16 269.78,-221.65 276.08,-224.69"/>
</g>
<!-- b_trend -->
<g id="node4" class="node">
<title>b_trend</title>
<ellipse fill="none" stroke="black" cx="336.69" cy="-301.38" rx="41.94" ry="37.45"/>
<text text-anchor="middle" x="336.69" y="-312.68" font-family="Times,serif" font-size="14.00">b_trend</text>
<text text-anchor="middle" x="336.69" y="-297.68" font-family="Times,serif" font-size="14.00">~</text>
<text text-anchor="middle" x="336.69" y="-282.68" font-family="Times,serif" font-size="14.00">Normal</text>
</g>
<!-- b_trend&#45;&gt;trend -->
<g id="edge2" class="edge">
<title>b_trend&#45;&gt;trend</title>
<path fill="none" stroke="black" d="M322.33,-266.19C316.68,-252.73 310.2,-237.29 304.51,-223.73"/>
<polygon fill="black" stroke="black" points="307.63,-222.11 300.53,-214.25 301.17,-224.82 307.63,-222.11"/>
</g>
<!-- b_fourier -->
<g id="node5" class="node">
<title>b_fourier</title>
<ellipse fill="none" stroke="black" cx="443.69" cy="-301.38" rx="47.25" ry="37.45"/>
<text text-anchor="middle" x="443.69" y="-312.68" font-family="Times,serif" font-size="14.00">b_fourier</text>
<text text-anchor="middle" x="443.69" y="-297.68" font-family="Times,serif" font-size="14.00">~</text>
<text text-anchor="middle" x="443.69" y="-282.68" font-family="Times,serif" font-size="14.00">Normal</text>
</g>
<!-- seasonality -->
<g id="node6" class="node">
<title>seasonality</title>
<polygon fill="none" stroke="black" points="444.19,-213.93 353.19,-213.93 353.19,-160.93 444.19,-160.93 444.19,-213.93"/>
<text text-anchor="middle" x="398.69" y="-198.73" font-family="Times,serif" font-size="14.00">seasonality</text>
<text text-anchor="middle" x="398.69" y="-183.73" font-family="Times,serif" font-size="14.00">~</text>
<text text-anchor="middle" x="398.69" y="-168.73" font-family="Times,serif" font-size="14.00">Deterministic</text>
</g>
<!-- b_fourier&#45;&gt;seasonality -->
<g id="edge3" class="edge">
<title>b_fourier&#45;&gt;seasonality</title>
<path fill="none" stroke="black" d="M429.7,-265.57C424.3,-252.14 418.14,-236.81 412.73,-223.37"/>
<polygon fill="black" stroke="black" points="415.93,-221.94 408.96,-213.97 409.44,-224.55 415.93,-221.94"/>
</g>
<!-- seasonality&#45;&gt;likelihood -->
<g id="edge5" class="edge">
<title>seasonality&#45;&gt;likelihood</title>
<path fill="none" stroke="black" d="M360.93,-160.91C355.49,-157.23 349.95,-153.49 344.69,-149.95 324.13,-136.11 301.35,-120.82 282.03,-107.86"/>
<polygon fill="black" stroke="black" points="283.95,-104.93 273.7,-102.27 280.05,-110.75 283.95,-104.93"/>
</g>
<!-- trend&#45;&gt;likelihood -->
<g id="edge6" class="edge">
<title>trend&#45;&gt;likelihood</title>
<path fill="none" stroke="black" d="M277.26,-160.89C271.5,-149.03 264.48,-134.6 257.91,-121.09"/>
<polygon fill="black" stroke="black" points="260.97,-119.4 253.45,-111.94 254.68,-122.46 260.97,-119.4"/>
</g>
<!-- z_effect&#45;&gt;likelihood -->
<g id="edge8" class="edge">
<title>z_effect&#45;&gt;likelihood</title>
<path fill="none" stroke="black" d="M193.82,-160.89C199.91,-149.03 207.33,-134.6 214.27,-121.09"/>
<polygon fill="black" stroke="black" points="217.52,-122.43 218.98,-111.94 211.29,-119.23 217.52,-122.43"/>
</g>
</g>
</svg>
