<?xml version="1.0" encoding="UTF-8" standalone="no"?>
<!DOCTYPE svg PUBLIC "-//W3C//DTD SVG 1.1//EN"
 "http://www.w3.org/Graphics/SVG/1.1/DTD/svg11.dtd">
<!-- Generated by graphviz version 3.0.0 (20220226.1711)
 -->
<!-- Pages: 1 -->
<svg width="694pt" height="658pt"
 viewBox="0.00 0.00 693.82 657.77" xmlns="http://www.w3.org/2000/svg" xmlns:xlink="http://www.w3.org/1999/xlink">
<g id="graph0" class="graph" transform="scale(1 1) rotate(0) translate(4 653.77)">
<polygon fill="white" stroke="transparent" points="-4,4 -4,-653.77 689.82,-653.77 689.82,4 -4,4"/>
<g id="clust1" class="cluster">
<title>clusterfourier_mode (14)</title>
<path fill="none" stroke="black" d="M567.72,-321.91C567.72,-321.91 660.72,-321.91 660.72,-321.91 666.72,-321.91 672.72,-327.91 672.72,-333.91 672.72,-333.91 672.72,-423.86 672.72,-423.86 672.72,-429.86 666.72,-435.86 660.72,-435.86 660.72,-435.86 567.72,-435.86 567.72,-435.86 561.72,-435.86 555.72,-429.86 555.72,-423.86 555.72,-423.86 555.72,-333.91 555.72,-333.91 555.72,-327.91 561.72,-321.91 567.72,-321.91"/>
<text text-anchor="middle" x="614.22" y="-329.71" font-family="Times,serif" font-size="14.00">fourier_mode (14)</text>
</g>
<g id="clust2" class="cluster">
<title>clusterdate (179)</title>
<path fill="none" stroke="black" d="M105.72,-8C105.72,-8 441.72,-8 441.72,-8 447.72,-8 453.72,-14 453.72,-20 453.72,-20 453.72,-523.84 453.72,-523.84 453.72,-529.84 447.72,-535.84 441.72,-535.84 441.72,-535.84 105.72,-535.84 105.72,-535.84 99.72,-535.84 93.72,-529.84 93.72,-523.84 93.72,-523.84 93.72,-20 93.72,-20 93.72,-14 99.72,-8 105.72,-8"/>
<text text-anchor="middle" x="417.72" y="-15.8" font-family="Times,serif" font-size="14.00">date (179)</text>
</g>
<!-- b_trend -->
<g id="node1" class="node">
<title>b_trend</title>
<ellipse fill="none" stroke="black" cx="41.72" cy="-390.38" rx="41.94" ry="37.45"/>
<text text-anchor="middle" x="41.72" y="-401.68" font-family="Times,serif" font-size="14.00">b_trend</text>
<text text-anchor="middle" x="41.72" y="-386.68" font-family="Times,serif" font-size="14.00">~</text>
<text text-anchor="middle" x="41.72" y="-371.68" font-family="Times,serif" font-size="14.00">Normal</text>
</g>
<!-- trend -->
<g id="node11" class="node">
<title>trend</title>
<polygon fill="none" stroke="black" points="336.22,-313.91 245.22,-313.91 245.22,-260.91 336.22,-260.91 336.22,-313.91"/>
<text text-anchor="middle" x="290.72" y="-298.71" font-family="Times,serif" font-size="14.00">trend</text>
<text text-anchor="middle" x="290.72" y="-283.71" font-family="Times,serif" font-size="14.00">~</text>
<text text-anchor="middle" x="290.72" y="-268.71" font-family="Times,serif" font-size="14.00">Deterministic</text>
</g>
<!-- b_trend&#45;&gt;trend -->
<g id="edge1" class="edge">
<title>b_trend&#45;&gt;trend</title>
<path fill="none" stroke="black" d="M57.45,-355.67C65.25,-342.82 75.99,-329.47 89.72,-321.91 116.19,-307.33 192.14,-319.71 235.26,-313.35"/>
<polygon fill="black" stroke="black" points="236.09,-316.75 245.21,-311.36 234.72,-309.88 236.09,-316.75"/>
</g>
<!-- lam -->
<g id="node2" class="node">
<title>lam</title>
<ellipse fill="none" stroke="black" cx="504.72" cy="-501.34" rx="43.27" ry="37.45"/>
<text text-anchor="middle" x="504.72" y="-512.64" font-family="Times,serif" font-size="14.00">lam</text>
<text text-anchor="middle" x="504.72" y="-497.64" font-family="Times,serif" font-size="14.00">~</text>
<text text-anchor="middle" x="504.72" y="-482.64" font-family="Times,serif" font-size="14.00">Gamma</text>
</g>
<!-- z_adstock_saturated -->
<g id="node16" class="node">
<title>z_adstock_saturated</title>
<polygon fill="none" stroke="black" points="227.72,-416.88 101.72,-416.88 101.72,-363.88 227.72,-363.88 227.72,-416.88"/>
<text text-anchor="middle" x="164.72" y="-401.68" font-family="Times,serif" font-size="14.00">z_adstock_saturated</text>
<text text-anchor="middle" x="164.72" y="-386.68" font-family="Times,serif" font-size="14.00">~</text>
<text text-anchor="middle" x="164.72" y="-371.68" font-family="Times,serif" font-size="14.00">Deterministic</text>
</g>
<!-- lam&#45;&gt;z_adstock_saturated -->
<g id="edge6" class="edge">
<title>lam&#45;&gt;z_adstock_saturated</title>
<path fill="none" stroke="black" d="M475.37,-473.83C469.82,-469.94 463.83,-466.39 457.72,-463.86 366.26,-425.94 330.07,-468.85 236.72,-435.86 227.06,-432.45 217.31,-427.59 208.25,-422.33"/>
<polygon fill="black" stroke="black" points="209.81,-419.18 199.45,-416.98 206.17,-425.16 209.81,-419.18"/>
</g>
<!-- alpha -->
<g id="node3" class="node">
<title>alpha</title>
<ellipse fill="none" stroke="black" cx="164.72" cy="-612.29" rx="32.55" ry="37.45"/>
<text text-anchor="middle" x="164.72" y="-623.59" font-family="Times,serif" font-size="14.00">alpha</text>
<text text-anchor="middle" x="164.72" y="-608.59" font-family="Times,serif" font-size="14.00">~</text>
<text text-anchor="middle" x="164.72" y="-593.59" font-family="Times,serif" font-size="14.00">Beta</text>
</g>
<!-- z_adstock -->
<g id="node13" class="node">
<title>z_adstock</title>
<polygon fill="none" stroke="black" points="210.22,-527.84 119.22,-527.84 119.22,-474.84 210.22,-474.84 210.22,-527.84"/>
<text text-anchor="middle" x="164.72" y="-512.64" font-family="Times,serif" font-size="14.00">z_adstock</text>
<text text-anchor="middle" x="164.72" y="-497.64" font-family="Times,serif" font-size="14.00">~</text>
<text text-anchor="middle" x="164.72" y="-482.64" font-family="Times,serif" font-size="14.00">Deterministic</text>
</g>
<!-- alpha&#45;&gt;z_adstock -->
<g id="edge5" class="edge">
<title>alpha&#45;&gt;z_adstock</title>
<path fill="none" stroke="black" d="M164.72,-574.71C164.72,-562.97 164.72,-549.98 164.72,-538.29"/>
<polygon fill="black" stroke="black" points="168.22,-537.99 164.72,-527.99 161.22,-537.99 168.22,-537.99"/>
</g>
<!-- sigma -->
<g id="node4" class="node">
<title>sigma</title>
<ellipse fill="none" stroke="black" cx="520.72" cy="-187.43" rx="58.88" ry="37.45"/>
<text text-anchor="middle" x="520.72" y="-198.73" font-family="Times,serif" font-size="14.00">sigma</text>
<text text-anchor="middle" x="520.72" y="-183.73" font-family="Times,serif" font-size="14.00">~</text>
<text text-anchor="middle" x="520.72" y="-168.73" font-family="Times,serif" font-size="14.00">HalfNormal</text>
</g>
<!-- likelihood -->
<g id="node14" class="node">
<title>likelihood</title>
<ellipse fill="lightgrey" stroke="black" cx="395.72" cy="-76.48" rx="50.41" ry="37.45"/>
<text text-anchor="middle" x="395.72" y="-87.78" font-family="Times,serif" font-size="14.00">likelihood</text>
<text text-anchor="middle" x="395.72" y="-72.78" font-family="Times,serif" font-size="14.00">~</text>
<text text-anchor="middle" x="395.72" y="-57.78" font-family="Times,serif" font-size="14.00">StudentT</text>
</g>
<!-- sigma&#45;&gt;likelihood -->
<g id="edge13" class="edge">
<title>sigma&#45;&gt;likelihood</title>
<path fill="none" stroke="black" d="M486.56,-156.66C470.91,-143.01 452.24,-126.75 435.92,-112.51"/>
<polygon fill="black" stroke="black" points="437.95,-109.64 428.11,-105.71 433.35,-114.92 437.95,-109.64"/>
</g>
<!-- sigma_slope -->
<g id="node5" class="node">
<title>sigma_slope</title>
<ellipse fill="none" stroke="black" cx="625.72" cy="-501.34" rx="60.21" ry="37.45"/>
<text text-anchor="middle" x="625.72" y="-512.64" font-family="Times,serif" font-size="14.00">sigma_slope</text>
<text text-anchor="middle" x="625.72" y="-497.64" font-family="Times,serif" font-size="14.00">~</text>
<text text-anchor="middle" x="625.72" y="-482.64" font-family="Times,serif" font-size="14.00">HalfNormal</text>
</g>
<!-- slopes -->
<g id="node9" class="node">
<title>slopes</title>
<ellipse fill="none" stroke="black" cx="345.72" cy="-390.38" rx="99.9" ry="37.45"/>
<text text-anchor="middle" x="345.72" y="-401.68" font-family="Times,serif" font-size="14.00">slopes</text>
<text text-anchor="middle" x="345.72" y="-386.68" font-family="Times,serif" font-size="14.00">~</text>
<text text-anchor="middle" x="345.72" y="-371.68" font-family="Times,serif" font-size="14.00">GaussianRandomWalk</text>
</g>
<!-- sigma_slope&#45;&gt;slopes -->
<g id="edge4" class="edge">
<title>sigma_slope&#45;&gt;slopes</title>
<path fill="none" stroke="black" d="M581.86,-475.31C573.65,-471.16 565.04,-467.14 556.72,-463.86 512.59,-446.45 498.63,-451.14 453.72,-435.86 442.47,-432.03 430.71,-427.63 419.27,-423.11"/>
<polygon fill="black" stroke="black" points="420.33,-419.76 409.75,-419.3 417.73,-426.26 420.33,-419.76"/>
</g>
<!-- a -->
<g id="node6" class="node">
<title>a</title>
<ellipse fill="none" stroke="black" cx="504.72" cy="-390.38" rx="41.94" ry="37.45"/>
<text text-anchor="middle" x="504.72" y="-401.68" font-family="Times,serif" font-size="14.00">a</text>
<text text-anchor="middle" x="504.72" y="-386.68" font-family="Times,serif" font-size="14.00">~</text>
<text text-anchor="middle" x="504.72" y="-371.68" font-family="Times,serif" font-size="14.00">Normal</text>
</g>
<!-- a&#45;&gt;trend -->
<g id="edge2" class="edge">
<title>a&#45;&gt;trend</title>
<path fill="none" stroke="black" d="M489.2,-355.44C481.58,-342.73 471.12,-329.53 457.72,-321.91 438.06,-310.73 381.89,-318.37 346.68,-313.16"/>
<polygon fill="black" stroke="black" points="346.98,-309.65 336.48,-311.09 345.59,-316.51 346.98,-309.65"/>
</g>
<!-- nu -->
<g id="node7" class="node">
<title>nu</title>
<ellipse fill="none" stroke="black" cx="640.72" cy="-187.43" rx="43.27" ry="37.45"/>
<text text-anchor="middle" x="640.72" y="-198.73" font-family="Times,serif" font-size="14.00">nu</text>
<text text-anchor="middle" x="640.72" y="-183.73" font-family="Times,serif" font-size="14.00">~</text>
<text text-anchor="middle" x="640.72" y="-168.73" font-family="Times,serif" font-size="14.00">Gamma</text>
</g>
<!-- nu&#45;&gt;likelihood -->
<g id="edge14" class="edge">
<title>nu&#45;&gt;likelihood</title>
<path fill="none" stroke="black" d="M608.79,-162.16C602.33,-157.79 595.45,-153.5 588.72,-149.95 544.51,-126.63 491.09,-107.18 451.67,-94.32"/>
<polygon fill="black" stroke="black" points="452.56,-90.93 441.97,-91.2 450.41,-97.6 452.56,-90.93"/>
</g>
<!-- b_fourier -->
<g id="node8" class="node">
<title>b_fourier</title>
<ellipse fill="none" stroke="black" cx="611.72" cy="-390.38" rx="47.25" ry="37.45"/>
<text text-anchor="middle" x="611.72" y="-401.68" font-family="Times,serif" font-size="14.00">b_fourier</text>
<text text-anchor="middle" x="611.72" y="-386.68" font-family="Times,serif" font-size="14.00">~</text>
<text text-anchor="middle" x="611.72" y="-371.68" font-family="Times,serif" font-size="14.00">Laplace</text>
</g>
<!-- seasonality -->
<g id="node12" class="node">
<title>seasonality</title>
<polygon fill="none" stroke="black" points="445.22,-313.91 354.22,-313.91 354.22,-260.91 445.22,-260.91 445.22,-313.91"/>
<text text-anchor="middle" x="399.72" y="-298.71" font-family="Times,serif" font-size="14.00">seasonality</text>
<text text-anchor="middle" x="399.72" y="-283.71" font-family="Times,serif" font-size="14.00">~</text>
<text text-anchor="middle" x="399.72" y="-268.71" font-family="Times,serif" font-size="14.00">Deterministic</text>
</g>
<!-- b_fourier&#45;&gt;seasonality -->
<g id="edge3" class="edge">
<title>b_fourier&#45;&gt;seasonality</title>
<path fill="none" stroke="black" d="M591.31,-356.35C581.94,-343.77 569.78,-330.43 555.72,-321.91 525.6,-303.66 486.93,-295.27 455.62,-291.45"/>
<polygon fill="black" stroke="black" points="455.63,-287.93 445.31,-290.33 454.87,-294.89 455.63,-287.93"/>
</g>
<!-- z_effect -->
<g id="node10" class="node">
<title>z_effect</title>
<polygon fill="none" stroke="black" points="227.22,-313.91 136.22,-313.91 136.22,-260.91 227.22,-260.91 227.22,-313.91"/>
<text text-anchor="middle" x="181.72" y="-298.71" font-family="Times,serif" font-size="14.00">z_effect</text>
<text text-anchor="middle" x="181.72" y="-283.71" font-family="Times,serif" font-size="14.00">~</text>
<text text-anchor="middle" x="181.72" y="-268.71" font-family="Times,serif" font-size="14.00">Deterministic</text>
</g>
<!-- slopes&#45;&gt;z_effect -->
<g id="edge9" class="edge">
<title>slopes&#45;&gt;z_effect</title>
<path fill="none" stroke="black" d="M295.02,-357.89C276.67,-346.53 255.78,-333.61 236.72,-321.91 235.28,-321.02 233.82,-320.12 232.34,-319.22"/>
<polygon fill="black" stroke="black" points="234.14,-316.22 223.78,-313.98 230.48,-322.19 234.14,-316.22"/>
</g>
<!-- mu -->
<g id="node15" class="node">
<title>mu</title>
<polygon fill="none" stroke="black" points="388.22,-213.93 297.22,-213.93 297.22,-160.93 388.22,-160.93 388.22,-213.93"/>
<text text-anchor="middle" x="342.72" y="-198.73" font-family="Times,serif" font-size="14.00">mu</text>
<text text-anchor="middle" x="342.72" y="-183.73" font-family="Times,serif" font-size="14.00">~</text>
<text text-anchor="middle" x="342.72" y="-168.73" font-family="Times,serif" font-size="14.00">Deterministic</text>
</g>
<!-- z_effect&#45;&gt;mu -->
<g id="edge12" class="edge">
<title>z_effect&#45;&gt;mu</title>
<path fill="none" stroke="black" d="M224.02,-260.66C244.82,-248.01 270.05,-232.65 291.89,-219.36"/>
<polygon fill="black" stroke="black" points="293.98,-222.19 300.7,-214 290.34,-216.21 293.98,-222.19"/>
</g>
<!-- trend&#45;&gt;mu -->
<g id="edge10" class="edge">
<title>trend&#45;&gt;mu</title>
<path fill="none" stroke="black" d="M304.38,-260.66C310.47,-249.19 317.74,-235.5 324.3,-223.14"/>
<polygon fill="black" stroke="black" points="327.55,-224.47 329.15,-214 321.37,-221.19 327.55,-224.47"/>
</g>
<!-- seasonality&#45;&gt;mu -->
<g id="edge11" class="edge">
<title>seasonality&#45;&gt;mu</title>
<path fill="none" stroke="black" d="M384.74,-260.66C378,-249.08 369.95,-235.23 362.7,-222.77"/>
<polygon fill="black" stroke="black" points="365.65,-220.88 357.6,-214 359.6,-224.4 365.65,-220.88"/>
</g>
<!-- z_adstock&#45;&gt;z_adstock_saturated -->
<g id="edge7" class="edge">
<title>z_adstock&#45;&gt;z_adstock_saturated</title>
<path fill="none" stroke="black" d="M164.72,-474.79C164.72,-460.69 164.72,-442.94 164.72,-427.44"/>
<polygon fill="black" stroke="black" points="168.22,-427.15 164.72,-417.15 161.22,-427.15 168.22,-427.15"/>
</g>
<!-- mu&#45;&gt;likelihood -->
<g id="edge15" class="edge">
<title>mu&#45;&gt;likelihood</title>
<path fill="none" stroke="black" d="M355.15,-160.89C360.91,-149.03 367.93,-134.6 374.5,-121.09"/>
<polygon fill="black" stroke="black" points="377.73,-122.46 378.96,-111.94 371.43,-119.4 377.73,-122.46"/>
</g>
<!-- z_adstock_saturated&#45;&gt;z_effect -->
<g id="edge8" class="edge">
<title>z_adstock_saturated&#45;&gt;z_effect</title>
<path fill="none" stroke="black" d="M169.05,-363.64C171.07,-351.65 173.51,-337.19 175.7,-324.17"/>
<polygon fill="black" stroke="black" points="179.18,-324.54 177.39,-314.1 172.28,-323.38 179.18,-324.54"/>
</g>
</g>
</svg>
