<?xml version="1.0" encoding="UTF-8" standalone="no"?>
<!DOCTYPE svg PUBLIC "-//W3C//DTD SVG 1.1//EN"
 "http://www.w3.org/Graphics/SVG/1.1/DTD/svg11.dtd">
<!-- Generated by graphviz version 2.50.0 (20211204.2007)
 -->
<!-- Pages: 1 -->
<svg width="882pt" height="569pt"
 viewBox="0.00 0.00 881.69 568.77" xmlns="http://www.w3.org/2000/svg" xmlns:xlink="http://www.w3.org/1999/xlink">
<g id="graph0" class="graph" transform="scale(1 1) rotate(0) translate(4 564.77)">
<polygon fill="white" stroke="transparent" points="-4,4 -4,-564.77 877.69,-564.77 877.69,4 -4,4"/>
<g id="clust1" class="cluster">
<title>cluster20</title>
<path fill="none" stroke="black" d="M767.69,-232.91C767.69,-232.91 853.69,-232.91 853.69,-232.91 859.69,-232.91 865.69,-238.91 865.69,-244.91 865.69,-244.91 865.69,-334.86 865.69,-334.86 865.69,-340.86 859.69,-346.86 853.69,-346.86 853.69,-346.86 767.69,-346.86 767.69,-346.86 761.69,-346.86 755.69,-340.86 755.69,-334.86 755.69,-334.86 755.69,-244.91 755.69,-244.91 755.69,-238.91 761.69,-232.91 767.69,-232.91"/>
<text text-anchor="middle" x="850.69" y="-240.71" font-family="Times,serif" font-size="14.00">20</text>
</g>
<g id="clust2" class="cluster">
<title>cluster179</title>
<path fill="none" stroke="black" d="M137.69,-8C137.69,-8 439.69,-8 439.69,-8 445.69,-8 451.69,-14 451.69,-20 451.69,-20 451.69,-434.84 451.69,-434.84 451.69,-440.84 445.69,-446.84 439.69,-446.84 439.69,-446.84 137.69,-446.84 137.69,-446.84 131.69,-446.84 125.69,-440.84 125.69,-434.84 125.69,-434.84 125.69,-20 125.69,-20 125.69,-14 131.69,-8 137.69,-8"/>
<text text-anchor="middle" x="433.19" y="-15.8" font-family="Times,serif" font-size="14.00">179</text>
</g>
<!-- lam -->
<g id="node1" class="node">
<title>lam</title>
<ellipse fill="none" stroke="black" cx="58.69" cy="-412.34" rx="58.88" ry="37.45"/>
<text text-anchor="middle" x="58.69" y="-423.64" font-family="Times,serif" font-size="14.00">lam</text>
<text text-anchor="middle" x="58.69" y="-408.64" font-family="Times,serif" font-size="14.00">~</text>
<text text-anchor="middle" x="58.69" y="-393.64" font-family="Times,serif" font-size="14.00">HalfNormal</text>
</g>
<!-- z_adstock_saturated -->
<g id="node12" class="node">
<title>z_adstock_saturated</title>
<polygon fill="none" stroke="black" points="259.69,-327.88 133.69,-327.88 133.69,-274.88 259.69,-274.88 259.69,-327.88"/>
<text text-anchor="middle" x="196.69" y="-312.68" font-family="Times,serif" font-size="14.00">z_adstock_saturated</text>
<text text-anchor="middle" x="196.69" y="-297.68" font-family="Times,serif" font-size="14.00">~</text>
<text text-anchor="middle" x="196.69" y="-282.68" font-family="Times,serif" font-size="14.00">Deterministic</text>
</g>
<!-- lam&#45;&gt;z_adstock_saturated -->
<g id="edge6" class="edge">
<title>lam&#45;&gt;z_adstock_saturated</title>
<path fill="none" stroke="black" d="M94.95,-382.71C113.67,-367.93 136.59,-349.83 155.93,-334.57"/>
<polygon fill="black" stroke="black" points="158.3,-337.16 163.97,-328.21 153.96,-331.66 158.3,-337.16"/>
</g>
<!-- a -->
<g id="node2" class="node">
<title>a</title>
<ellipse fill="none" stroke="black" cx="602.69" cy="-301.38" rx="41.94" ry="37.45"/>
<text text-anchor="middle" x="602.69" y="-312.68" font-family="Times,serif" font-size="14.00">a</text>
<text text-anchor="middle" x="602.69" y="-297.68" font-family="Times,serif" font-size="14.00">~</text>
<text text-anchor="middle" x="602.69" y="-282.68" font-family="Times,serif" font-size="14.00">Normal</text>
</g>
<!-- trend -->
<g id="node9" class="node">
<title>trend</title>
<polygon fill="none" stroke="black" points="334.19,-213.93 243.19,-213.93 243.19,-160.93 334.19,-160.93 334.19,-213.93"/>
<text text-anchor="middle" x="288.69" y="-198.73" font-family="Times,serif" font-size="14.00">trend</text>
<text text-anchor="middle" x="288.69" y="-183.73" font-family="Times,serif" font-size="14.00">~</text>
<text text-anchor="middle" x="288.69" y="-168.73" font-family="Times,serif" font-size="14.00">Deterministic</text>
</g>
<!-- a&#45;&gt;trend -->
<g id="edge1" class="edge">
<title>a&#45;&gt;trend</title>
<path fill="none" stroke="black" d="M586.29,-266.88C578.1,-253.9 566.87,-240.39 552.69,-232.91 532.14,-222.06 365.81,-232.04 343.69,-224.91 339.03,-223.4 334.39,-221.39 329.9,-219.07"/>
<polygon fill="black" stroke="black" points="331.34,-215.86 320.92,-213.95 327.87,-221.94 331.34,-215.86"/>
</g>
<!-- sigma -->
<g id="node3" class="node">
<title>sigma</title>
<ellipse fill="none" stroke="black" cx="519.69" cy="-187.43" rx="58.88" ry="37.45"/>
<text text-anchor="middle" x="519.69" y="-198.73" font-family="Times,serif" font-size="14.00">sigma</text>
<text text-anchor="middle" x="519.69" y="-183.73" font-family="Times,serif" font-size="14.00">~</text>
<text text-anchor="middle" x="519.69" y="-168.73" font-family="Times,serif" font-size="14.00">HalfNormal</text>
</g>
<!-- likelihood -->
<g id="node10" class="node">
<title>likelihood</title>
<ellipse fill="lightgrey" stroke="black" cx="340.69" cy="-76.48" rx="50.41" ry="37.45"/>
<text text-anchor="middle" x="340.69" y="-87.78" font-family="Times,serif" font-size="14.00">likelihood</text>
<text text-anchor="middle" x="340.69" y="-72.78" font-family="Times,serif" font-size="14.00">~</text>
<text text-anchor="middle" x="340.69" y="-57.78" font-family="Times,serif" font-size="14.00">Normal</text>
</g>
<!-- sigma&#45;&gt;likelihood -->
<g id="edge10" class="edge">
<title>sigma&#45;&gt;likelihood</title>
<path fill="none" stroke="black" d="M477.72,-160.89C450.78,-144.48 415.73,-123.15 387.83,-106.17"/>
<polygon fill="black" stroke="black" points="389.4,-103.03 379.04,-100.82 385.76,-109.01 389.4,-103.03"/>
</g>
<!-- alpha -->
<g id="node4" class="node">
<title>alpha</title>
<ellipse fill="none" stroke="black" cx="196.69" cy="-523.29" rx="32.55" ry="37.45"/>
<text text-anchor="middle" x="196.69" y="-534.59" font-family="Times,serif" font-size="14.00">alpha</text>
<text text-anchor="middle" x="196.69" y="-519.59" font-family="Times,serif" font-size="14.00">~</text>
<text text-anchor="middle" x="196.69" y="-504.59" font-family="Times,serif" font-size="14.00">Beta</text>
</g>
<!-- z_adstock -->
<g id="node13" class="node">
<title>z_adstock</title>
<polygon fill="none" stroke="black" points="242.19,-438.84 151.19,-438.84 151.19,-385.84 242.19,-385.84 242.19,-438.84"/>
<text text-anchor="middle" x="196.69" y="-423.64" font-family="Times,serif" font-size="14.00">z_adstock</text>
<text text-anchor="middle" x="196.69" y="-408.64" font-family="Times,serif" font-size="14.00">~</text>
<text text-anchor="middle" x="196.69" y="-393.64" font-family="Times,serif" font-size="14.00">Deterministic</text>
</g>
<!-- alpha&#45;&gt;z_adstock -->
<g id="edge4" class="edge">
<title>alpha&#45;&gt;z_adstock</title>
<path fill="none" stroke="black" d="M196.69,-485.71C196.69,-473.97 196.69,-460.98 196.69,-449.29"/>
<polygon fill="black" stroke="black" points="200.19,-448.99 196.69,-438.99 193.19,-448.99 200.19,-448.99"/>
</g>
<!-- b_trend -->
<g id="node5" class="node">
<title>b_trend</title>
<ellipse fill="none" stroke="black" cx="703.69" cy="-301.38" rx="41.94" ry="37.45"/>
<text text-anchor="middle" x="703.69" y="-312.68" font-family="Times,serif" font-size="14.00">b_trend</text>
<text text-anchor="middle" x="703.69" y="-297.68" font-family="Times,serif" font-size="14.00">~</text>
<text text-anchor="middle" x="703.69" y="-282.68" font-family="Times,serif" font-size="14.00">Normal</text>
</g>
<!-- b_trend&#45;&gt;trend -->
<g id="edge2" class="edge">
<title>b_trend&#45;&gt;trend</title>
<path fill="none" stroke="black" d="M687.34,-266.79C679.15,-253.8 667.92,-240.3 653.69,-232.91 623.12,-217.01 376.55,-235.28 343.69,-224.91 339.02,-223.43 334.37,-221.43 329.88,-219.13"/>
<polygon fill="black" stroke="black" points="331.32,-215.92 320.89,-214.03 327.86,-222.01 331.32,-215.92"/>
</g>
<!-- b_z -->
<g id="node6" class="node">
<title>b_z</title>
<ellipse fill="none" stroke="black" cx="501.69" cy="-301.38" rx="41.94" ry="37.45"/>
<text text-anchor="middle" x="501.69" y="-312.68" font-family="Times,serif" font-size="14.00">b_z</text>
<text text-anchor="middle" x="501.69" y="-297.68" font-family="Times,serif" font-size="14.00">~</text>
<text text-anchor="middle" x="501.69" y="-282.68" font-family="Times,serif" font-size="14.00">Normal</text>
</g>
<!-- z_effect -->
<g id="node11" class="node">
<title>z_effect</title>
<polygon fill="none" stroke="black" points="225.19,-213.93 134.19,-213.93 134.19,-160.93 225.19,-160.93 225.19,-213.93"/>
<text text-anchor="middle" x="179.69" y="-198.73" font-family="Times,serif" font-size="14.00">z_effect</text>
<text text-anchor="middle" x="179.69" y="-183.73" font-family="Times,serif" font-size="14.00">~</text>
<text text-anchor="middle" x="179.69" y="-168.73" font-family="Times,serif" font-size="14.00">Deterministic</text>
</g>
<!-- b_z&#45;&gt;z_effect -->
<g id="edge8" class="edge">
<title>b_z&#45;&gt;z_effect</title>
<path fill="none" stroke="black" d="M486.78,-266.22C479.38,-253.47 469.1,-240.31 455.69,-232.91 434.18,-221.03 258.08,-232.42 234.69,-224.91 230.03,-223.41 225.39,-221.39 220.89,-219.08"/>
<polygon fill="black" stroke="black" points="222.33,-215.87 211.91,-213.96 218.87,-221.95 222.33,-215.87"/>
</g>
<!-- b_fourier -->
<g id="node7" class="node">
<title>b_fourier</title>
<ellipse fill="none" stroke="black" cx="810.69" cy="-301.38" rx="47.25" ry="37.45"/>
<text text-anchor="middle" x="810.69" y="-312.68" font-family="Times,serif" font-size="14.00">b_fourier</text>
<text text-anchor="middle" x="810.69" y="-297.68" font-family="Times,serif" font-size="14.00">~</text>
<text text-anchor="middle" x="810.69" y="-282.68" font-family="Times,serif" font-size="14.00">Normal</text>
</g>
<!-- seasonality -->
<g id="node8" class="node">
<title>seasonality</title>
<polygon fill="none" stroke="black" points="443.19,-213.93 352.19,-213.93 352.19,-160.93 443.19,-160.93 443.19,-213.93"/>
<text text-anchor="middle" x="397.69" y="-198.73" font-family="Times,serif" font-size="14.00">seasonality</text>
<text text-anchor="middle" x="397.69" y="-183.73" font-family="Times,serif" font-size="14.00">~</text>
<text text-anchor="middle" x="397.69" y="-168.73" font-family="Times,serif" font-size="14.00">Deterministic</text>
</g>
<!-- b_fourier&#45;&gt;seasonality -->
<g id="edge3" class="edge">
<title>b_fourier&#45;&gt;seasonality</title>
<path fill="none" stroke="black" d="M791.52,-266.72C782.21,-253.71 769.75,-240.22 754.69,-232.91 724.4,-218.19 483.76,-235.19 451.69,-224.91 447.08,-223.43 442.51,-221.43 438.09,-219.12"/>
<polygon fill="black" stroke="black" points="439.67,-215.99 429.26,-214.02 436.16,-222.05 439.67,-215.99"/>
</g>
<!-- seasonality&#45;&gt;likelihood -->
<g id="edge11" class="edge">
<title>seasonality&#45;&gt;likelihood</title>
<path fill="none" stroke="black" d="M384.33,-160.89C378.07,-148.93 370.44,-134.35 363.33,-120.74"/>
<polygon fill="black" stroke="black" points="366.24,-118.76 358.5,-111.53 360.04,-122.01 366.24,-118.76"/>
</g>
<!-- trend&#45;&gt;likelihood -->
<g id="edge12" class="edge">
<title>trend&#45;&gt;likelihood</title>
<path fill="none" stroke="black" d="M300.88,-160.89C306.54,-149.03 313.43,-134.6 319.87,-121.09"/>
<polygon fill="black" stroke="black" points="323.09,-122.47 324.24,-111.94 316.78,-119.45 323.09,-122.47"/>
</g>
<!-- z_effect&#45;&gt;likelihood -->
<g id="edge9" class="edge">
<title>z_effect&#45;&gt;likelihood</title>
<path fill="none" stroke="black" d="M217.44,-160.89C240.8,-145.08 270.93,-124.69 295.55,-108.02"/>
<polygon fill="black" stroke="black" points="297.69,-110.8 304.01,-102.3 293.77,-105 297.69,-110.8"/>
</g>
<!-- z_adstock_saturated&#45;&gt;z_effect -->
<g id="edge7" class="edge">
<title>z_adstock_saturated&#45;&gt;z_effect</title>
<path fill="none" stroke="black" d="M192.79,-274.7C190.52,-259.77 187.63,-240.72 185.14,-224.32"/>
<polygon fill="black" stroke="black" points="188.53,-223.36 183.57,-213.99 181.61,-224.41 188.53,-223.36"/>
</g>
<!-- z_adstock&#45;&gt;z_adstock_saturated -->
<g id="edge5" class="edge">
<title>z_adstock&#45;&gt;z_adstock_saturated</title>
<path fill="none" stroke="black" d="M196.69,-385.79C196.69,-371.69 196.69,-353.94 196.69,-338.44"/>
<polygon fill="black" stroke="black" points="200.19,-338.15 196.69,-328.15 193.19,-338.15 200.19,-338.15"/>
</g>
</g>
</svg>
