<?xml version="1.0" encoding="UTF-8" standalone="no"?>
<!DOCTYPE svg PUBLIC "-//W3C//DTD SVG 1.1//EN"
 "http://www.w3.org/Graphics/SVG/1.1/DTD/svg11.dtd">
<!-- Generated by graphviz version 2.50.0 (20211204.2007)
 -->
<!-- Pages: 1 -->
<svg width="545pt" height="363pt"
 viewBox="0.00 0.00 545.41 362.86" xmlns="http://www.w3.org/2000/svg" xmlns:xlink="http://www.w3.org/1999/xlink">
<g id="graph0" class="graph" transform="scale(1 1) rotate(0) translate(4 358.86)">
<polygon fill="white" stroke="transparent" points="-4,4 -4,-358.86 541.41,-358.86 541.41,4 -4,4"/>
<g id="clust1" class="cluster">
<title>cluster20</title>
<path fill="none" stroke="black" d="M313.72,-232.91C313.72,-232.91 399.72,-232.91 399.72,-232.91 405.72,-232.91 411.72,-238.91 411.72,-244.91 411.72,-244.91 411.72,-334.86 411.72,-334.86 411.72,-340.86 405.72,-346.86 399.72,-346.86 399.72,-346.86 313.72,-346.86 313.72,-346.86 307.72,-346.86 301.72,-340.86 301.72,-334.86 301.72,-334.86 301.72,-244.91 301.72,-244.91 301.72,-238.91 307.72,-232.91 313.72,-232.91"/>
<text text-anchor="middle" x="396.72" y="-240.71" font-family="Times,serif" font-size="14.00">20</text>
</g>
<g id="clust2" class="cluster">
<title>cluster179</title>
<path fill="none" stroke="black" d="M96.72,-8C96.72,-8 398.72,-8 398.72,-8 404.72,-8 410.72,-14 410.72,-20 410.72,-20 410.72,-209.93 410.72,-209.93 410.72,-215.93 404.72,-221.93 398.72,-221.93 398.72,-221.93 96.72,-221.93 96.72,-221.93 90.72,-221.93 84.72,-215.93 84.72,-209.93 84.72,-209.93 84.72,-20 84.72,-20 84.72,-14 90.72,-8 96.72,-8"/>
<text text-anchor="middle" x="392.22" y="-15.8" font-family="Times,serif" font-size="14.00">179</text>
</g>
<!-- a -->
<g id="node1" class="node">
<title>a</title>
<ellipse fill="none" stroke="black" cx="41.72" cy="-301.38" rx="41.94" ry="37.45"/>
<text text-anchor="middle" x="41.72" y="-312.68" font-family="Times,serif" font-size="14.00">a</text>
<text text-anchor="middle" x="41.72" y="-297.68" font-family="Times,serif" font-size="14.00">~</text>
<text text-anchor="middle" x="41.72" y="-282.68" font-family="Times,serif" font-size="14.00">Normal</text>
</g>
<!-- trend -->
<g id="node9" class="node">
<title>trend</title>
<polygon fill="none" stroke="black" points="184.22,-213.93 93.22,-213.93 93.22,-160.93 184.22,-160.93 184.22,-213.93"/>
<text text-anchor="middle" x="138.72" y="-198.73" font-family="Times,serif" font-size="14.00">trend</text>
<text text-anchor="middle" x="138.72" y="-183.73" font-family="Times,serif" font-size="14.00">~</text>
<text text-anchor="middle" x="138.72" y="-168.73" font-family="Times,serif" font-size="14.00">Deterministic</text>
</g>
<!-- a&#45;&gt;trend -->
<g id="edge1" class="edge">
<title>a&#45;&gt;trend</title>
<path fill="none" stroke="black" d="M63.27,-268.93C71.72,-257.26 81.76,-244.14 91.72,-232.91 95.17,-229.01 98.91,-225.07 102.72,-221.23"/>
<polygon fill="black" stroke="black" points="105.41,-223.5 110.09,-214 100.5,-218.51 105.41,-223.5"/>
</g>
<!-- sigma -->
<g id="node2" class="node">
<title>sigma</title>
<ellipse fill="none" stroke="black" cx="478.72" cy="-187.43" rx="58.88" ry="37.45"/>
<text text-anchor="middle" x="478.72" y="-198.73" font-family="Times,serif" font-size="14.00">sigma</text>
<text text-anchor="middle" x="478.72" y="-183.73" font-family="Times,serif" font-size="14.00">~</text>
<text text-anchor="middle" x="478.72" y="-168.73" font-family="Times,serif" font-size="14.00">HalfNormal</text>
</g>
<!-- likelihood -->
<g id="node8" class="node">
<title>likelihood</title>
<ellipse fill="lightgrey" stroke="black" cx="299.72" cy="-76.48" rx="50.41" ry="37.45"/>
<text text-anchor="middle" x="299.72" y="-87.78" font-family="Times,serif" font-size="14.00">likelihood</text>
<text text-anchor="middle" x="299.72" y="-72.78" font-family="Times,serif" font-size="14.00">~</text>
<text text-anchor="middle" x="299.72" y="-57.78" font-family="Times,serif" font-size="14.00">Normal</text>
</g>
<!-- sigma&#45;&gt;likelihood -->
<g id="edge6" class="edge">
<title>sigma&#45;&gt;likelihood</title>
<path fill="none" stroke="black" d="M436.75,-160.89C409.8,-144.48 374.76,-123.15 346.85,-106.17"/>
<polygon fill="black" stroke="black" points="348.43,-103.03 338.07,-100.82 344.79,-109.01 348.43,-103.03"/>
</g>
<!-- b_trend -->
<g id="node3" class="node">
<title>b_trend</title>
<ellipse fill="none" stroke="black" cx="142.72" cy="-301.38" rx="41.94" ry="37.45"/>
<text text-anchor="middle" x="142.72" y="-312.68" font-family="Times,serif" font-size="14.00">b_trend</text>
<text text-anchor="middle" x="142.72" y="-297.68" font-family="Times,serif" font-size="14.00">~</text>
<text text-anchor="middle" x="142.72" y="-282.68" font-family="Times,serif" font-size="14.00">Normal</text>
</g>
<!-- b_trend&#45;&gt;trend -->
<g id="edge2" class="edge">
<title>b_trend&#45;&gt;trend</title>
<path fill="none" stroke="black" d="M141.41,-263.73C140.96,-251.07 140.45,-236.92 140,-224.32"/>
<polygon fill="black" stroke="black" points="143.49,-224.05 139.64,-214.18 136.5,-224.3 143.49,-224.05"/>
</g>
<!-- b_z -->
<g id="node4" class="node">
<title>b_z</title>
<ellipse fill="none" stroke="black" cx="247.72" cy="-301.38" rx="41.94" ry="37.45"/>
<text text-anchor="middle" x="247.72" y="-312.68" font-family="Times,serif" font-size="14.00">b_z</text>
<text text-anchor="middle" x="247.72" y="-297.68" font-family="Times,serif" font-size="14.00">~</text>
<text text-anchor="middle" x="247.72" y="-282.68" font-family="Times,serif" font-size="14.00">Normal</text>
</g>
<!-- z_effect -->
<g id="node7" class="node">
<title>z_effect</title>
<polygon fill="none" stroke="black" points="293.22,-213.93 202.22,-213.93 202.22,-160.93 293.22,-160.93 293.22,-213.93"/>
<text text-anchor="middle" x="247.72" y="-198.73" font-family="Times,serif" font-size="14.00">z_effect</text>
<text text-anchor="middle" x="247.72" y="-183.73" font-family="Times,serif" font-size="14.00">~</text>
<text text-anchor="middle" x="247.72" y="-168.73" font-family="Times,serif" font-size="14.00">Deterministic</text>
</g>
<!-- b_z&#45;&gt;z_effect -->
<g id="edge4" class="edge">
<title>b_z&#45;&gt;z_effect</title>
<path fill="none" stroke="black" d="M247.72,-263.73C247.72,-251.07 247.72,-236.92 247.72,-224.32"/>
<polygon fill="black" stroke="black" points="251.22,-224.18 247.72,-214.18 244.22,-224.18 251.22,-224.18"/>
</g>
<!-- b_fourier -->
<g id="node5" class="node">
<title>b_fourier</title>
<ellipse fill="none" stroke="black" cx="356.72" cy="-301.38" rx="47.25" ry="37.45"/>
<text text-anchor="middle" x="356.72" y="-312.68" font-family="Times,serif" font-size="14.00">b_fourier</text>
<text text-anchor="middle" x="356.72" y="-297.68" font-family="Times,serif" font-size="14.00">~</text>
<text text-anchor="middle" x="356.72" y="-282.68" font-family="Times,serif" font-size="14.00">Normal</text>
</g>
<!-- seasonality -->
<g id="node6" class="node">
<title>seasonality</title>
<polygon fill="none" stroke="black" points="402.22,-213.93 311.22,-213.93 311.22,-160.93 402.22,-160.93 402.22,-213.93"/>
<text text-anchor="middle" x="356.72" y="-198.73" font-family="Times,serif" font-size="14.00">seasonality</text>
<text text-anchor="middle" x="356.72" y="-183.73" font-family="Times,serif" font-size="14.00">~</text>
<text text-anchor="middle" x="356.72" y="-168.73" font-family="Times,serif" font-size="14.00">Deterministic</text>
</g>
<!-- b_fourier&#45;&gt;seasonality -->
<g id="edge3" class="edge">
<title>b_fourier&#45;&gt;seasonality</title>
<path fill="none" stroke="black" d="M356.72,-263.73C356.72,-251.07 356.72,-236.92 356.72,-224.32"/>
<polygon fill="black" stroke="black" points="360.22,-224.18 356.72,-214.18 353.22,-224.18 360.22,-224.18"/>
</g>
<!-- seasonality&#45;&gt;likelihood -->
<g id="edge7" class="edge">
<title>seasonality&#45;&gt;likelihood</title>
<path fill="none" stroke="black" d="M343.36,-160.89C337.1,-148.93 329.47,-134.35 322.36,-120.74"/>
<polygon fill="black" stroke="black" points="325.27,-118.76 317.53,-111.53 319.07,-122.01 325.27,-118.76"/>
</g>
<!-- z_effect&#45;&gt;likelihood -->
<g id="edge5" class="edge">
<title>z_effect&#45;&gt;likelihood</title>
<path fill="none" stroke="black" d="M259.91,-160.89C265.57,-149.03 272.46,-134.6 278.9,-121.09"/>
<polygon fill="black" stroke="black" points="282.12,-122.47 283.27,-111.94 275.81,-119.45 282.12,-122.47"/>
</g>
<!-- trend&#45;&gt;likelihood -->
<g id="edge8" class="edge">
<title>trend&#45;&gt;likelihood</title>
<path fill="none" stroke="black" d="M176.47,-160.89C199.83,-145.08 229.96,-124.69 254.58,-108.02"/>
<polygon fill="black" stroke="black" points="256.72,-110.8 263.04,-102.3 252.8,-105 256.72,-110.8"/>
</g>
</g>
</svg>
