<?xml version="1.0" encoding="UTF-8" standalone="no"?>
<!DOCTYPE svg PUBLIC "-//W3C//DTD SVG 1.1//EN"
 "http://www.w3.org/Graphics/SVG/1.1/DTD/svg11.dtd">
<!-- Generated by graphviz version 3.0.0 (20220226.1711)
 -->
<!-- Pages: 1 -->
<svg width="787pt" height="658pt"
 viewBox="0.00 0.00 786.69 657.77" xmlns="http://www.w3.org/2000/svg" xmlns:xlink="http://www.w3.org/1999/xlink">
<g id="graph0" class="graph" transform="scale(1 1) rotate(0) translate(4 653.77)">
<polygon fill="white" stroke="transparent" points="-4,4 -4,-653.77 782.69,-653.77 782.69,4 -4,4"/>
<g id="clust1" class="cluster">
<title>clusterfourier_mode (14)</title>
<path fill="none" stroke="black" d="M665.69,-321.91C665.69,-321.91 758.69,-321.91 758.69,-321.91 764.69,-321.91 770.69,-327.91 770.69,-333.91 770.69,-333.91 770.69,-423.86 770.69,-423.86 770.69,-429.86 764.69,-435.86 758.69,-435.86 758.69,-435.86 665.69,-435.86 665.69,-435.86 659.69,-435.86 653.69,-429.86 653.69,-423.86 653.69,-423.86 653.69,-333.91 653.69,-333.91 653.69,-327.91 659.69,-321.91 665.69,-321.91"/>
<text text-anchor="middle" x="712.19" y="-329.71" font-family="Times,serif" font-size="14.00">fourier_mode (14)</text>
</g>
<g id="clust2" class="cluster">
<title>clusterdate (179)</title>
<path fill="none" stroke="black" d="M137.69,-8C137.69,-8 439.69,-8 439.69,-8 445.69,-8 451.69,-14 451.69,-20 451.69,-20 451.69,-523.84 451.69,-523.84 451.69,-529.84 445.69,-535.84 439.69,-535.84 439.69,-535.84 137.69,-535.84 137.69,-535.84 131.69,-535.84 125.69,-529.84 125.69,-523.84 125.69,-523.84 125.69,-20 125.69,-20 125.69,-14 131.69,-8 137.69,-8"/>
<text text-anchor="middle" x="415.69" y="-15.8" font-family="Times,serif" font-size="14.00">date (179)</text>
</g>
<!-- b_z -->
<g id="node1" class="node">
<title>b_z</title>
<ellipse fill="none" stroke="black" cx="58.69" cy="-390.38" rx="58.88" ry="37.45"/>
<text text-anchor="middle" x="58.69" y="-401.68" font-family="Times,serif" font-size="14.00">b_z</text>
<text text-anchor="middle" x="58.69" y="-386.68" font-family="Times,serif" font-size="14.00">~</text>
<text text-anchor="middle" x="58.69" y="-371.68" font-family="Times,serif" font-size="14.00">HalfNormal</text>
</g>
<!-- z_effect -->
<g id="node11" class="node">
<title>z_effect</title>
<polygon fill="none" stroke="black" points="225.19,-313.91 134.19,-313.91 134.19,-260.91 225.19,-260.91 225.19,-313.91"/>
<text text-anchor="middle" x="179.69" y="-298.71" font-family="Times,serif" font-size="14.00">z_effect</text>
<text text-anchor="middle" x="179.69" y="-283.71" font-family="Times,serif" font-size="14.00">~</text>
<text text-anchor="middle" x="179.69" y="-268.71" font-family="Times,serif" font-size="14.00">Deterministic</text>
</g>
<!-- b_z&#45;&gt;z_effect -->
<g id="edge7" class="edge">
<title>b_z&#45;&gt;z_effect</title>
<path fill="none" stroke="black" d="M85.45,-356.9C96.05,-345.11 108.77,-332.18 121.69,-321.91 123.04,-320.84 124.42,-319.78 125.83,-318.74"/>
<polygon fill="black" stroke="black" points="127.97,-321.51 134.18,-312.93 123.97,-315.77 127.97,-321.51"/>
</g>
<!-- sigma -->
<g id="node2" class="node">
<title>sigma</title>
<ellipse fill="none" stroke="black" cx="518.69" cy="-187.43" rx="58.88" ry="37.45"/>
<text text-anchor="middle" x="518.69" y="-198.73" font-family="Times,serif" font-size="14.00">sigma</text>
<text text-anchor="middle" x="518.69" y="-183.73" font-family="Times,serif" font-size="14.00">~</text>
<text text-anchor="middle" x="518.69" y="-168.73" font-family="Times,serif" font-size="14.00">HalfNormal</text>
</g>
<!-- likelihood -->
<g id="node13" class="node">
<title>likelihood</title>
<ellipse fill="lightgrey" stroke="black" cx="393.69" cy="-76.48" rx="50.41" ry="37.45"/>
<text text-anchor="middle" x="393.69" y="-87.78" font-family="Times,serif" font-size="14.00">likelihood</text>
<text text-anchor="middle" x="393.69" y="-72.78" font-family="Times,serif" font-size="14.00">~</text>
<text text-anchor="middle" x="393.69" y="-57.78" font-family="Times,serif" font-size="14.00">StudentT</text>
</g>
<!-- sigma&#45;&gt;likelihood -->
<g id="edge13" class="edge">
<title>sigma&#45;&gt;likelihood</title>
<path fill="none" stroke="black" d="M484.53,-156.66C468.88,-143.01 450.21,-126.75 433.89,-112.51"/>
<polygon fill="black" stroke="black" points="435.92,-109.64 426.08,-105.71 431.32,-114.92 435.92,-109.64"/>
</g>
<!-- nu -->
<g id="node3" class="node">
<title>nu</title>
<ellipse fill="none" stroke="black" cx="638.69" cy="-187.43" rx="43.27" ry="37.45"/>
<text text-anchor="middle" x="638.69" y="-198.73" font-family="Times,serif" font-size="14.00">nu</text>
<text text-anchor="middle" x="638.69" y="-183.73" font-family="Times,serif" font-size="14.00">~</text>
<text text-anchor="middle" x="638.69" y="-168.73" font-family="Times,serif" font-size="14.00">Gamma</text>
</g>
<!-- nu&#45;&gt;likelihood -->
<g id="edge12" class="edge">
<title>nu&#45;&gt;likelihood</title>
<path fill="none" stroke="black" d="M606.76,-162.16C600.3,-157.79 593.42,-153.5 586.69,-149.95 542.48,-126.63 489.06,-107.18 449.64,-94.32"/>
<polygon fill="black" stroke="black" points="450.53,-90.93 439.94,-91.2 448.39,-97.6 450.53,-90.93"/>
</g>
<!-- lam -->
<g id="node4" class="node">
<title>lam</title>
<ellipse fill="none" stroke="black" cx="502.69" cy="-501.34" rx="43.27" ry="37.45"/>
<text text-anchor="middle" x="502.69" y="-512.64" font-family="Times,serif" font-size="14.00">lam</text>
<text text-anchor="middle" x="502.69" y="-497.64" font-family="Times,serif" font-size="14.00">~</text>
<text text-anchor="middle" x="502.69" y="-482.64" font-family="Times,serif" font-size="14.00">Gamma</text>
</g>
<!-- z_adstock_saturated -->
<g id="node14" class="node">
<title>z_adstock_saturated</title>
<polygon fill="none" stroke="black" points="351.69,-416.88 225.69,-416.88 225.69,-363.88 351.69,-363.88 351.69,-416.88"/>
<text text-anchor="middle" x="288.69" y="-401.68" font-family="Times,serif" font-size="14.00">z_adstock_saturated</text>
<text text-anchor="middle" x="288.69" y="-386.68" font-family="Times,serif" font-size="14.00">~</text>
<text text-anchor="middle" x="288.69" y="-371.68" font-family="Times,serif" font-size="14.00">Deterministic</text>
</g>
<!-- lam&#45;&gt;z_adstock_saturated -->
<g id="edge6" class="edge">
<title>lam&#45;&gt;z_adstock_saturated</title>
<path fill="none" stroke="black" d="M472.12,-474.86C466.8,-470.95 461.2,-467.12 455.69,-463.86 426.12,-446.35 391.54,-430.64 361.55,-418.36"/>
<polygon fill="black" stroke="black" points="362.56,-414.99 351.98,-414.49 359.94,-421.48 362.56,-414.99"/>
</g>
<!-- a -->
<g id="node5" class="node">
<title>a</title>
<ellipse fill="none" stroke="black" cx="501.69" cy="-390.38" rx="41.94" ry="37.45"/>
<text text-anchor="middle" x="501.69" y="-401.68" font-family="Times,serif" font-size="14.00">a</text>
<text text-anchor="middle" x="501.69" y="-386.68" font-family="Times,serif" font-size="14.00">~</text>
<text text-anchor="middle" x="501.69" y="-371.68" font-family="Times,serif" font-size="14.00">Normal</text>
</g>
<!-- trend -->
<g id="node10" class="node">
<title>trend</title>
<polygon fill="none" stroke="black" points="334.19,-313.91 243.19,-313.91 243.19,-260.91 334.19,-260.91 334.19,-313.91"/>
<text text-anchor="middle" x="288.69" y="-298.71" font-family="Times,serif" font-size="14.00">trend</text>
<text text-anchor="middle" x="288.69" y="-283.71" font-family="Times,serif" font-size="14.00">~</text>
<text text-anchor="middle" x="288.69" y="-268.71" font-family="Times,serif" font-size="14.00">Deterministic</text>
</g>
<!-- a&#45;&gt;trend -->
<g id="edge1" class="edge">
<title>a&#45;&gt;trend</title>
<path fill="none" stroke="black" d="M486.45,-355.1C479.03,-342.5 468.84,-329.47 455.69,-321.91 436.09,-310.63 379.87,-318.35 344.65,-313.15"/>
<polygon fill="black" stroke="black" points="344.95,-309.64 334.45,-311.09 343.56,-316.5 344.95,-309.64"/>
</g>
<!-- alpha -->
<g id="node6" class="node">
<title>alpha</title>
<ellipse fill="none" stroke="black" cx="288.69" cy="-612.29" rx="32.55" ry="37.45"/>
<text text-anchor="middle" x="288.69" y="-623.59" font-family="Times,serif" font-size="14.00">alpha</text>
<text text-anchor="middle" x="288.69" y="-608.59" font-family="Times,serif" font-size="14.00">~</text>
<text text-anchor="middle" x="288.69" y="-593.59" font-family="Times,serif" font-size="14.00">Beta</text>
</g>
<!-- z_adstock -->
<g id="node9" class="node">
<title>z_adstock</title>
<polygon fill="none" stroke="black" points="334.19,-527.84 243.19,-527.84 243.19,-474.84 334.19,-474.84 334.19,-527.84"/>
<text text-anchor="middle" x="288.69" y="-512.64" font-family="Times,serif" font-size="14.00">z_adstock</text>
<text text-anchor="middle" x="288.69" y="-497.64" font-family="Times,serif" font-size="14.00">~</text>
<text text-anchor="middle" x="288.69" y="-482.64" font-family="Times,serif" font-size="14.00">Deterministic</text>
</g>
<!-- alpha&#45;&gt;z_adstock -->
<g id="edge4" class="edge">
<title>alpha&#45;&gt;z_adstock</title>
<path fill="none" stroke="black" d="M288.69,-574.71C288.69,-562.97 288.69,-549.98 288.69,-538.29"/>
<polygon fill="black" stroke="black" points="292.19,-537.99 288.69,-527.99 285.19,-537.99 292.19,-537.99"/>
</g>
<!-- b_trend -->
<g id="node7" class="node">
<title>b_trend</title>
<ellipse fill="none" stroke="black" cx="602.69" cy="-390.38" rx="41.94" ry="37.45"/>
<text text-anchor="middle" x="602.69" y="-401.68" font-family="Times,serif" font-size="14.00">b_trend</text>
<text text-anchor="middle" x="602.69" y="-386.68" font-family="Times,serif" font-size="14.00">~</text>
<text text-anchor="middle" x="602.69" y="-371.68" font-family="Times,serif" font-size="14.00">Normal</text>
</g>
<!-- b_trend&#45;&gt;trend -->
<g id="edge2" class="edge">
<title>b_trend&#45;&gt;trend</title>
<path fill="none" stroke="black" d="M586.29,-355.88C578.1,-342.9 566.87,-329.39 552.69,-321.91 533.78,-311.93 391.91,-318.14 344.51,-312.87"/>
<polygon fill="black" stroke="black" points="344.86,-309.38 334.42,-311.21 343.72,-316.28 344.86,-309.38"/>
</g>
<!-- b_fourier -->
<g id="node8" class="node">
<title>b_fourier</title>
<ellipse fill="none" stroke="black" cx="709.69" cy="-390.38" rx="47.25" ry="37.45"/>
<text text-anchor="middle" x="709.69" y="-401.68" font-family="Times,serif" font-size="14.00">b_fourier</text>
<text text-anchor="middle" x="709.69" y="-386.68" font-family="Times,serif" font-size="14.00">~</text>
<text text-anchor="middle" x="709.69" y="-371.68" font-family="Times,serif" font-size="14.00">Laplace</text>
</g>
<!-- seasonality -->
<g id="node12" class="node">
<title>seasonality</title>
<polygon fill="none" stroke="black" points="443.19,-313.91 352.19,-313.91 352.19,-260.91 443.19,-260.91 443.19,-313.91"/>
<text text-anchor="middle" x="397.69" y="-298.71" font-family="Times,serif" font-size="14.00">seasonality</text>
<text text-anchor="middle" x="397.69" y="-283.71" font-family="Times,serif" font-size="14.00">~</text>
<text text-anchor="middle" x="397.69" y="-268.71" font-family="Times,serif" font-size="14.00">Deterministic</text>
</g>
<!-- b_fourier&#45;&gt;seasonality -->
<g id="edge3" class="edge">
<title>b_fourier&#45;&gt;seasonality</title>
<path fill="none" stroke="black" d="M689.87,-356.12C680.53,-343.34 668.22,-329.92 653.69,-321.91 620.3,-303.49 518.21,-294.75 453.49,-290.97"/>
<polygon fill="black" stroke="black" points="453.62,-287.47 443.44,-290.4 453.23,-294.46 453.62,-287.47"/>
</g>
<!-- z_adstock&#45;&gt;z_adstock_saturated -->
<g id="edge5" class="edge">
<title>z_adstock&#45;&gt;z_adstock_saturated</title>
<path fill="none" stroke="black" d="M288.69,-474.79C288.69,-460.69 288.69,-442.94 288.69,-427.44"/>
<polygon fill="black" stroke="black" points="292.19,-427.15 288.69,-417.15 285.19,-427.15 292.19,-427.15"/>
</g>
<!-- mu -->
<g id="node15" class="node">
<title>mu</title>
<polygon fill="none" stroke="black" points="386.19,-213.93 295.19,-213.93 295.19,-160.93 386.19,-160.93 386.19,-213.93"/>
<text text-anchor="middle" x="340.69" y="-198.73" font-family="Times,serif" font-size="14.00">mu</text>
<text text-anchor="middle" x="340.69" y="-183.73" font-family="Times,serif" font-size="14.00">~</text>
<text text-anchor="middle" x="340.69" y="-168.73" font-family="Times,serif" font-size="14.00">Deterministic</text>
</g>
<!-- trend&#45;&gt;mu -->
<g id="edge10" class="edge">
<title>trend&#45;&gt;mu</title>
<path fill="none" stroke="black" d="M302.35,-260.66C308.44,-249.19 315.71,-235.5 322.27,-223.14"/>
<polygon fill="black" stroke="black" points="325.52,-224.47 327.12,-214 319.34,-221.19 325.52,-224.47"/>
</g>
<!-- z_effect&#45;&gt;mu -->
<g id="edge9" class="edge">
<title>z_effect&#45;&gt;mu</title>
<path fill="none" stroke="black" d="M221.99,-260.66C242.79,-248.01 268.02,-232.65 289.86,-219.36"/>
<polygon fill="black" stroke="black" points="291.95,-222.19 298.67,-214 288.31,-216.21 291.95,-222.19"/>
</g>
<!-- seasonality&#45;&gt;mu -->
<g id="edge11" class="edge">
<title>seasonality&#45;&gt;mu</title>
<path fill="none" stroke="black" d="M382.71,-260.66C375.97,-249.08 367.92,-235.23 360.67,-222.77"/>
<polygon fill="black" stroke="black" points="363.62,-220.88 355.57,-214 357.57,-224.4 363.62,-220.88"/>
</g>
<!-- z_adstock_saturated&#45;&gt;z_effect -->
<g id="edge8" class="edge">
<title>z_adstock_saturated&#45;&gt;z_effect</title>
<path fill="none" stroke="black" d="M260.9,-363.64C246.94,-350.7 229.86,-334.89 214.98,-321.1"/>
<polygon fill="black" stroke="black" points="217.14,-318.33 207.43,-314.1 212.38,-323.47 217.14,-318.33"/>
</g>
<!-- mu&#45;&gt;likelihood -->
<g id="edge14" class="edge">
<title>mu&#45;&gt;likelihood</title>
<path fill="none" stroke="black" d="M353.12,-160.89C358.88,-149.03 365.9,-134.6 372.47,-121.09"/>
<polygon fill="black" stroke="black" points="375.7,-122.46 376.93,-111.94 369.41,-119.4 375.7,-122.46"/>
</g>
</g>
</svg>
