<?xml version="1.0" encoding="utf-8" standalone="no"?>
<!DOCTYPE svg PUBLIC "-//W3C//DTD SVG 1.1//EN"
  "http://www.w3.org/Graphics/SVG/1.1/DTD/svg11.dtd">
<svg xmlns:xlink="http://www.w3.org/1999/xlink" width="872.39952pt" height="656.39952pt" viewBox="0 0 872.39952 656.39952" xmlns="http://www.w3.org/2000/svg" version="1.1">
 <metadata>
  <rdf:RDF xmlns:dc="http://purl.org/dc/elements/1.1/" xmlns:cc="http://creativecommons.org/ns#" xmlns:rdf="http://www.w3.org/1999/02/22-rdf-syntax-ns#">
   <cc:Work>
    <dc:type rdf:resource="http://purl.org/dc/dcmitype/StillImage"/>
    <dc:date>2022-02-10T18:18:34.838551</dc:date>
    <dc:format>image/svg+xml</dc:format>
    <dc:creator>
     <cc:Agent>
      <dc:title>Matplotlib v3.5.1, https://matplotlib.org/</dc:title>
     </cc:Agent>
    </dc:creator>
   </cc:Work>
  </rdf:RDF>
 </metadata>
 <defs>
  <style type="text/css">*{stroke-linejoin: round; stroke-linecap: butt}</style>
 </defs>
 <g id="figure_1">
  <g id="patch_1">
   <path d="M 0 656.39952 
L 872.39952 656.39952 
L 872.39952 0 
L 0 0 
L 0 656.39952 
z
" style="fill: none"/>
  </g>
  <g id="axes_1">
   <g id="patch_2">
    <path d="M 48.579375 207.602228 
L 865.19952 207.602228 
L 865.19952 24.14175 
L 48.579375 24.14175 
z
" style="fill: #eeeeee"/>
   </g>
   <g id="matplotlib.axis_1">
    <g id="xtick_1">
     <g id="line2d_1">
      <path d="M 139.321567 207.602228 
L 139.321567 24.14175 
" clip-path="url(#p7c18d023c5)" style="fill: none; stroke-dasharray: 1.85,0.8; stroke-dashoffset: 0; stroke: #b2b2b2; stroke-width: 0.5"/>
     </g>
     <g id="line2d_2">
      <defs>
       <path id="m74d69731d2" d="M 0 0 
L 0 -3.5 
" style="stroke: #000000; stroke-width: 0.8"/>
      </defs>
      <g>
       <use xlink:href="#m74d69731d2" x="139.321567" y="207.602228" style="stroke: #000000; stroke-width: 0.8"/>
      </g>
     </g>
    </g>
    <g id="xtick_2">
     <g id="line2d_3">
      <path d="M 248.951004 207.602228 
L 248.951004 24.14175 
" clip-path="url(#p7c18d023c5)" style="fill: none; stroke-dasharray: 1.85,0.8; stroke-dashoffset: 0; stroke: #b2b2b2; stroke-width: 0.5"/>
     </g>
     <g id="line2d_4">
      <g>
       <use xlink:href="#m74d69731d2" x="248.951004" y="207.602228" style="stroke: #000000; stroke-width: 0.8"/>
      </g>
     </g>
    </g>
    <g id="xtick_3">
     <g id="line2d_5">
      <path d="M 356.793005 207.602228 
L 356.793005 24.14175 
" clip-path="url(#p7c18d023c5)" style="fill: none; stroke-dasharray: 1.85,0.8; stroke-dashoffset: 0; stroke: #b2b2b2; stroke-width: 0.5"/>
     </g>
     <g id="line2d_6">
      <g>
       <use xlink:href="#m74d69731d2" x="356.793005" y="207.602228" style="stroke: #000000; stroke-width: 0.8"/>
      </g>
     </g>
    </g>
    <g id="xtick_4">
     <g id="line2d_7">
      <path d="M 466.422442 207.602228 
L 466.422442 24.14175 
" clip-path="url(#p7c18d023c5)" style="fill: none; stroke-dasharray: 1.85,0.8; stroke-dashoffset: 0; stroke: #b2b2b2; stroke-width: 0.5"/>
     </g>
     <g id="line2d_8">
      <g>
       <use xlink:href="#m74d69731d2" x="466.422442" y="207.602228" style="stroke: #000000; stroke-width: 0.8"/>
      </g>
     </g>
    </g>
    <g id="xtick_5">
     <g id="line2d_9">
      <path d="M 574.860255 207.602228 
L 574.860255 24.14175 
" clip-path="url(#p7c18d023c5)" style="fill: none; stroke-dasharray: 1.85,0.8; stroke-dashoffset: 0; stroke: #b2b2b2; stroke-width: 0.5"/>
     </g>
     <g id="line2d_10">
      <g>
       <use xlink:href="#m74d69731d2" x="574.860255" y="207.602228" style="stroke: #000000; stroke-width: 0.8"/>
      </g>
     </g>
    </g>
    <g id="xtick_6">
     <g id="line2d_11">
      <path d="M 684.489692 207.602228 
L 684.489692 24.14175 
" clip-path="url(#p7c18d023c5)" style="fill: none; stroke-dasharray: 1.85,0.8; stroke-dashoffset: 0; stroke: #b2b2b2; stroke-width: 0.5"/>
     </g>
     <g id="line2d_12">
      <g>
       <use xlink:href="#m74d69731d2" x="684.489692" y="207.602228" style="stroke: #000000; stroke-width: 0.8"/>
      </g>
     </g>
    </g>
    <g id="xtick_7">
     <g id="line2d_13">
      <path d="M 792.331693 207.602228 
L 792.331693 24.14175 
" clip-path="url(#p7c18d023c5)" style="fill: none; stroke-dasharray: 1.85,0.8; stroke-dashoffset: 0; stroke: #b2b2b2; stroke-width: 0.5"/>
     </g>
     <g id="line2d_14">
      <g>
       <use xlink:href="#m74d69731d2" x="792.331693" y="207.602228" style="stroke: #000000; stroke-width: 0.8"/>
      </g>
     </g>
    </g>
   </g>
   <g id="matplotlib.axis_2">
    <g id="ytick_1">
     <g id="line2d_15">
      <path d="M 48.579375 189.577527 
L 865.19952 189.577527 
" clip-path="url(#p7c18d023c5)" style="fill: none; stroke-dasharray: 1.85,0.8; stroke-dashoffset: 0; stroke: #b2b2b2; stroke-width: 0.5"/>
     </g>
     <g id="line2d_16">
      <defs>
       <path id="m4b82922c99" d="M 0 0 
L 3.5 0 
" style="stroke: #000000; stroke-width: 0.8"/>
      </defs>
      <g>
       <use xlink:href="#m4b82922c99" x="48.579375" y="189.577527" style="stroke: #000000; stroke-width: 0.8"/>
      </g>
     </g>
     <g id="text_1">
      <!-- 3.75 -->
      <g transform="translate(22.81375 193.376746)scale(0.1 -0.1)">
       <defs>
        <path id="DejaVuSans-33" d="M 2597 2516 
Q 3050 2419 3304 2112 
Q 3559 1806 3559 1356 
Q 3559 666 3084 287 
Q 2609 -91 1734 -91 
Q 1441 -91 1130 -33 
Q 819 25 488 141 
L 488 750 
Q 750 597 1062 519 
Q 1375 441 1716 441 
Q 2309 441 2620 675 
Q 2931 909 2931 1356 
Q 2931 1769 2642 2001 
Q 2353 2234 1838 2234 
L 1294 2234 
L 1294 2753 
L 1863 2753 
Q 2328 2753 2575 2939 
Q 2822 3125 2822 3475 
Q 2822 3834 2567 4026 
Q 2313 4219 1838 4219 
Q 1578 4219 1281 4162 
Q 984 4106 628 3988 
L 628 4550 
Q 988 4650 1302 4700 
Q 1616 4750 1894 4750 
Q 2613 4750 3031 4423 
Q 3450 4097 3450 3541 
Q 3450 3153 3228 2886 
Q 3006 2619 2597 2516 
z
" transform="scale(0.015625)"/>
        <path id="DejaVuSans-2e" d="M 684 794 
L 1344 794 
L 1344 0 
L 684 0 
L 684 794 
z
" transform="scale(0.015625)"/>
        <path id="DejaVuSans-37" d="M 525 4666 
L 3525 4666 
L 3525 4397 
L 1831 0 
L 1172 0 
L 2766 4134 
L 525 4134 
L 525 4666 
z
" transform="scale(0.015625)"/>
        <path id="DejaVuSans-35" d="M 691 4666 
L 3169 4666 
L 3169 4134 
L 1269 4134 
L 1269 2991 
Q 1406 3038 1543 3061 
Q 1681 3084 1819 3084 
Q 2600 3084 3056 2656 
Q 3513 2228 3513 1497 
Q 3513 744 3044 326 
Q 2575 -91 1722 -91 
Q 1428 -91 1123 -41 
Q 819 9 494 109 
L 494 744 
Q 775 591 1075 516 
Q 1375 441 1709 441 
Q 2250 441 2565 725 
Q 2881 1009 2881 1497 
Q 2881 1984 2565 2268 
Q 2250 2553 1709 2553 
Q 1456 2553 1204 2497 
Q 953 2441 691 2322 
L 691 4666 
z
" transform="scale(0.015625)"/>
       </defs>
       <use xlink:href="#DejaVuSans-33"/>
       <use xlink:href="#DejaVuSans-2e" x="63.623047"/>
       <use xlink:href="#DejaVuSans-37" x="95.410156"/>
       <use xlink:href="#DejaVuSans-35" x="159.033203"/>
      </g>
     </g>
    </g>
    <g id="ytick_2">
     <g id="line2d_17">
      <path d="M 48.579375 165.336847 
L 865.19952 165.336847 
" clip-path="url(#p7c18d023c5)" style="fill: none; stroke-dasharray: 1.85,0.8; stroke-dashoffset: 0; stroke: #b2b2b2; stroke-width: 0.5"/>
     </g>
     <g id="line2d_18">
      <g>
       <use xlink:href="#m4b82922c99" x="48.579375" y="165.336847" style="stroke: #000000; stroke-width: 0.8"/>
      </g>
     </g>
     <g id="text_2">
      <!-- 4.00 -->
      <g transform="translate(22.81375 169.136065)scale(0.1 -0.1)">
       <defs>
        <path id="DejaVuSans-34" d="M 2419 4116 
L 825 1625 
L 2419 1625 
L 2419 4116 
z
M 2253 4666 
L 3047 4666 
L 3047 1625 
L 3713 1625 
L 3713 1100 
L 3047 1100 
L 3047 0 
L 2419 0 
L 2419 1100 
L 313 1100 
L 313 1709 
L 2253 4666 
z
" transform="scale(0.015625)"/>
        <path id="DejaVuSans-30" d="M 2034 4250 
Q 1547 4250 1301 3770 
Q 1056 3291 1056 2328 
Q 1056 1369 1301 889 
Q 1547 409 2034 409 
Q 2525 409 2770 889 
Q 3016 1369 3016 2328 
Q 3016 3291 2770 3770 
Q 2525 4250 2034 4250 
z
M 2034 4750 
Q 2819 4750 3233 4129 
Q 3647 3509 3647 2328 
Q 3647 1150 3233 529 
Q 2819 -91 2034 -91 
Q 1250 -91 836 529 
Q 422 1150 422 2328 
Q 422 3509 836 4129 
Q 1250 4750 2034 4750 
z
" transform="scale(0.015625)"/>
       </defs>
       <use xlink:href="#DejaVuSans-34"/>
       <use xlink:href="#DejaVuSans-2e" x="63.623047"/>
       <use xlink:href="#DejaVuSans-30" x="95.410156"/>
       <use xlink:href="#DejaVuSans-30" x="159.033203"/>
      </g>
     </g>
    </g>
    <g id="ytick_3">
     <g id="line2d_19">
      <path d="M 48.579375 141.096166 
L 865.19952 141.096166 
" clip-path="url(#p7c18d023c5)" style="fill: none; stroke-dasharray: 1.85,0.8; stroke-dashoffset: 0; stroke: #b2b2b2; stroke-width: 0.5"/>
     </g>
     <g id="line2d_20">
      <g>
       <use xlink:href="#m4b82922c99" x="48.579375" y="141.096166" style="stroke: #000000; stroke-width: 0.8"/>
      </g>
     </g>
     <g id="text_3">
      <!-- 4.25 -->
      <g transform="translate(22.81375 144.895385)scale(0.1 -0.1)">
       <defs>
        <path id="DejaVuSans-32" d="M 1228 531 
L 3431 531 
L 3431 0 
L 469 0 
L 469 531 
Q 828 903 1448 1529 
Q 2069 2156 2228 2338 
Q 2531 2678 2651 2914 
Q 2772 3150 2772 3378 
Q 2772 3750 2511 3984 
Q 2250 4219 1831 4219 
Q 1534 4219 1204 4116 
Q 875 4013 500 3803 
L 500 4441 
Q 881 4594 1212 4672 
Q 1544 4750 1819 4750 
Q 2544 4750 2975 4387 
Q 3406 4025 3406 3419 
Q 3406 3131 3298 2873 
Q 3191 2616 2906 2266 
Q 2828 2175 2409 1742 
Q 1991 1309 1228 531 
z
" transform="scale(0.015625)"/>
       </defs>
       <use xlink:href="#DejaVuSans-34"/>
       <use xlink:href="#DejaVuSans-2e" x="63.623047"/>
       <use xlink:href="#DejaVuSans-32" x="95.410156"/>
       <use xlink:href="#DejaVuSans-35" x="159.033203"/>
      </g>
     </g>
    </g>
    <g id="ytick_4">
     <g id="line2d_21">
      <path d="M 48.579375 116.855485 
L 865.19952 116.855485 
" clip-path="url(#p7c18d023c5)" style="fill: none; stroke-dasharray: 1.85,0.8; stroke-dashoffset: 0; stroke: #b2b2b2; stroke-width: 0.5"/>
     </g>
     <g id="line2d_22">
      <g>
       <use xlink:href="#m4b82922c99" x="48.579375" y="116.855485" style="stroke: #000000; stroke-width: 0.8"/>
      </g>
     </g>
     <g id="text_4">
      <!-- 4.50 -->
      <g transform="translate(22.81375 120.654704)scale(0.1 -0.1)">
       <use xlink:href="#DejaVuSans-34"/>
       <use xlink:href="#DejaVuSans-2e" x="63.623047"/>
       <use xlink:href="#DejaVuSans-35" x="95.410156"/>
       <use xlink:href="#DejaVuSans-30" x="159.033203"/>
      </g>
     </g>
    </g>
    <g id="ytick_5">
     <g id="line2d_23">
      <path d="M 48.579375 92.614805 
L 865.19952 92.614805 
" clip-path="url(#p7c18d023c5)" style="fill: none; stroke-dasharray: 1.85,0.8; stroke-dashoffset: 0; stroke: #b2b2b2; stroke-width: 0.5"/>
     </g>
     <g id="line2d_24">
      <g>
       <use xlink:href="#m4b82922c99" x="48.579375" y="92.614805" style="stroke: #000000; stroke-width: 0.8"/>
      </g>
     </g>
     <g id="text_5">
      <!-- 4.75 -->
      <g transform="translate(22.81375 96.414023)scale(0.1 -0.1)">
       <use xlink:href="#DejaVuSans-34"/>
       <use xlink:href="#DejaVuSans-2e" x="63.623047"/>
       <use xlink:href="#DejaVuSans-37" x="95.410156"/>
       <use xlink:href="#DejaVuSans-35" x="159.033203"/>
      </g>
     </g>
    </g>
    <g id="ytick_6">
     <g id="line2d_25">
      <path d="M 48.579375 68.374124 
L 865.19952 68.374124 
" clip-path="url(#p7c18d023c5)" style="fill: none; stroke-dasharray: 1.85,0.8; stroke-dashoffset: 0; stroke: #b2b2b2; stroke-width: 0.5"/>
     </g>
     <g id="line2d_26">
      <g>
       <use xlink:href="#m4b82922c99" x="48.579375" y="68.374124" style="stroke: #000000; stroke-width: 0.8"/>
      </g>
     </g>
     <g id="text_6">
      <!-- 5.00 -->
      <g transform="translate(22.81375 72.173343)scale(0.1 -0.1)">
       <use xlink:href="#DejaVuSans-35"/>
       <use xlink:href="#DejaVuSans-2e" x="63.623047"/>
       <use xlink:href="#DejaVuSans-30" x="95.410156"/>
       <use xlink:href="#DejaVuSans-30" x="159.033203"/>
      </g>
     </g>
    </g>
    <g id="ytick_7">
     <g id="line2d_27">
      <path d="M 48.579375 44.133443 
L 865.19952 44.133443 
" clip-path="url(#p7c18d023c5)" style="fill: none; stroke-dasharray: 1.85,0.8; stroke-dashoffset: 0; stroke: #b2b2b2; stroke-width: 0.5"/>
     </g>
     <g id="line2d_28">
      <g>
       <use xlink:href="#m4b82922c99" x="48.579375" y="44.133443" style="stroke: #000000; stroke-width: 0.8"/>
      </g>
     </g>
     <g id="text_7">
      <!-- 5.25 -->
      <g transform="translate(22.81375 47.932662)scale(0.1 -0.1)">
       <use xlink:href="#DejaVuSans-35"/>
       <use xlink:href="#DejaVuSans-2e" x="63.623047"/>
       <use xlink:href="#DejaVuSans-32" x="95.410156"/>
       <use xlink:href="#DejaVuSans-35" x="159.033203"/>
      </g>
     </g>
    </g>
    <g id="text_8">
     <!-- y -->
     <g transform="translate(16.318125 119.423239)rotate(-90)scale(0.12 -0.12)">
      <defs>
       <path id="DejaVuSans-79" d="M 2059 -325 
Q 1816 -950 1584 -1140 
Q 1353 -1331 966 -1331 
L 506 -1331 
L 506 -850 
L 844 -850 
Q 1081 -850 1212 -737 
Q 1344 -625 1503 -206 
L 1606 56 
L 191 3500 
L 800 3500 
L 1894 763 
L 2988 3500 
L 3597 3500 
L 2059 -325 
z
" transform="scale(0.015625)"/>
      </defs>
      <use xlink:href="#DejaVuSans-79"/>
     </g>
    </g>
   </g>
   <g id="line2d_29">
    <path d="M 85.698473 178.332027 
L 89.869158 122.06324 
L 94.039843 107.77065 
L 98.210528 103.294216 
L 102.381213 132.232154 
L 106.551898 148.458543 
L 110.722583 153.992831 
L 114.893268 114.822181 
L 119.063953 116.689536 
L 123.234639 111.765224 
L 127.405324 145.423676 
L 131.576009 123.861367 
L 135.746694 122.331077 
L 139.917379 157.982603 
L 144.088064 180.512794 
L 148.258749 191.224222 
L 152.429434 199.263116 
L 156.600119 173.364132 
L 160.770805 172.433387 
L 164.94149 188.189109 
L 169.112175 157.225785 
L 173.28286 176.891503 
L 177.453545 178.426989 
L 181.62423 179.583202 
L 185.794915 150.659207 
L 189.9656 119.668891 
L 194.136285 134.243653 
L 198.306971 110.117174 
L 202.477656 97.891908 
L 206.648341 108.735686 
L 210.819026 87.725349 
L 214.989711 89.897372 
L 219.160396 103.367461 
L 223.331081 70.055991 
L 227.501766 52.295651 
L 231.672451 59.655581 
L 235.843137 74.736749 
L 240.013822 102.817556 
L 244.184507 86.56535 
L 248.355192 86.567285 
L 252.525877 106.842974 
L 256.696562 103.945955 
L 260.867247 125.327433 
L 265.037932 104.117687 
L 269.208617 128.698454 
L 273.379303 116.191751 
L 277.549988 131.263346 
L 281.720673 116.922255 
L 285.891358 114.540169 
L 290.062043 136.448418 
L 294.232728 103.586789 
L 298.403413 100.398793 
L 302.574098 94.649176 
L 306.744783 85.354013 
L 310.915469 84.47149 
L 315.086154 79.735678 
L 319.256839 102.368709 
L 323.427524 112.613789 
L 327.598209 119.485648 
L 331.768894 120.037713 
L 335.939579 128.963503 
L 340.110264 132.690953 
L 344.280949 114.448817 
L 348.451635 131.802879 
L 352.62232 136.345297 
L 356.793005 126.27813 
L 360.96369 148.982555 
L 365.134375 129.797662 
L 369.30506 150.715262 
L 373.475745 138.022255 
L 377.64643 132.151402 
L 381.817115 140.933724 
L 385.987801 158.129789 
L 390.158486 128.050906 
L 394.329171 137.347846 
L 398.499856 112.991954 
L 402.670541 107.062381 
L 406.841226 115.14578 
L 411.011911 113.064905 
L 415.182596 120.604132 
L 419.353281 81.622388 
L 423.523967 68.260412 
L 427.694652 67.707914 
L 431.865337 81.070448 
L 436.036022 81.221877 
L 440.206707 78.458278 
L 444.377392 51.315885 
L 448.548077 49.730991 
L 452.718762 49.970923 
L 456.889447 52.005987 
L 461.060133 71.304747 
L 465.230818 62.401745 
L 469.401503 72.230607 
L 473.572188 77.349143 
L 477.742873 80.54583 
L 481.913558 93.729042 
L 486.084243 90.230063 
L 490.254928 95.955912 
L 494.425614 111.189793 
L 498.596299 119.879188 
L 502.766984 129.637762 
L 506.937669 106.757431 
L 511.108354 111.631622 
L 515.279039 103.384948 
L 519.449724 86.532264 
L 523.620409 91.497569 
L 527.791094 79.334329 
L 531.96178 78.443085 
L 536.132465 86.930563 
L 540.30315 95.897414 
L 544.473835 108.713001 
L 548.64452 102.452269 
L 552.815205 83.502602 
L 556.98589 69.680197 
L 561.156575 88.897292 
L 565.32726 88.919004 
L 569.497946 96.006853 
L 573.668631 118.685263 
L 577.839316 103.641723 
L 582.010001 112.190886 
L 586.180686 113.258919 
L 590.351371 123.543206 
L 594.522056 121.813064 
L 598.692741 146.352357 
L 602.863426 137.895963 
L 607.034112 118.155333 
L 611.204797 120.793648 
L 615.375482 108.08705 
L 619.546167 107.786163 
L 623.716852 99.736685 
L 627.887537 97.164337 
L 632.058222 86.727742 
L 636.228907 89.720185 
L 640.399592 73.960723 
L 644.570278 57.284122 
L 648.740963 45.142775 
L 652.911648 50.028636 
L 657.082333 39.769483 
L 661.253018 39.929786 
L 665.423703 42.150289 
L 669.594388 32.480863 
L 673.765073 38.314024 
L 677.935758 59.079019 
L 682.106444 60.831838 
L 686.277129 70.013225 
L 694.618499 82.690524 
L 698.789184 85.571167 
L 702.959869 86.743776 
L 707.130554 94.892086 
L 711.301239 83.022501 
L 715.471924 91.515727 
L 719.64261 103.405551 
L 723.813295 89.87707 
L 727.98398 78.040364 
L 732.154665 90.136935 
L 736.32535 65.912553 
L 740.496035 68.591194 
L 744.66672 84.352775 
L 748.837405 64.215463 
L 753.00809 79.777621 
L 757.178776 62.292387 
L 761.349461 57.864124 
L 765.520146 72.091474 
L 769.690831 71.119234 
L 773.861516 69.62282 
L 778.032201 78.491241 
L 782.202886 81.817456 
L 786.373571 105.060804 
L 790.544256 104.435254 
L 794.714942 105.962158 
L 798.885627 118.61551 
L 803.056312 113.541879 
L 807.226997 119.66307 
L 811.397682 114.648591 
L 815.568367 117.69224 
L 819.739052 114.425115 
L 823.909737 107.427988 
L 828.080422 105.345084 
L 828.080422 105.345084 
" clip-path="url(#p7c18d023c5)" style="fill: none; stroke: #000000; stroke-width: 2; stroke-linecap: square"/>
   </g>
   <g id="patch_3">
    <path d="M 48.579375 207.602228 
L 48.579375 24.14175 
" style="fill: none; stroke: #bcbcbc; stroke-width: 0.8; stroke-linejoin: miter; stroke-linecap: square"/>
   </g>
   <g id="patch_4">
    <path d="M 865.19952 207.602228 
L 865.19952 24.14175 
" style="fill: none; stroke: #bcbcbc; stroke-width: 0.8; stroke-linejoin: miter; stroke-linecap: square"/>
   </g>
   <g id="patch_5">
    <path d="M 48.579375 207.602228 
L 865.19952 207.602228 
" style="fill: none; stroke: #bcbcbc; stroke-width: 0.8; stroke-linejoin: miter; stroke-linecap: square"/>
   </g>
   <g id="patch_6">
    <path d="M 48.579375 24.14175 
L 865.19952 24.14175 
" style="fill: none; stroke: #bcbcbc; stroke-width: 0.8; stroke-linejoin: miter; stroke-linecap: square"/>
   </g>
   <g id="text_9">
    <!-- Sales (Target Variable) -->
    <g transform="translate(376.097572 18.14175)scale(0.144 -0.144)">
     <defs>
      <path id="DejaVuSans-53" d="M 3425 4513 
L 3425 3897 
Q 3066 4069 2747 4153 
Q 2428 4238 2131 4238 
Q 1616 4238 1336 4038 
Q 1056 3838 1056 3469 
Q 1056 3159 1242 3001 
Q 1428 2844 1947 2747 
L 2328 2669 
Q 3034 2534 3370 2195 
Q 3706 1856 3706 1288 
Q 3706 609 3251 259 
Q 2797 -91 1919 -91 
Q 1588 -91 1214 -16 
Q 841 59 441 206 
L 441 856 
Q 825 641 1194 531 
Q 1563 422 1919 422 
Q 2459 422 2753 634 
Q 3047 847 3047 1241 
Q 3047 1584 2836 1778 
Q 2625 1972 2144 2069 
L 1759 2144 
Q 1053 2284 737 2584 
Q 422 2884 422 3419 
Q 422 4038 858 4394 
Q 1294 4750 2059 4750 
Q 2388 4750 2728 4690 
Q 3069 4631 3425 4513 
z
" transform="scale(0.015625)"/>
      <path id="DejaVuSans-61" d="M 2194 1759 
Q 1497 1759 1228 1600 
Q 959 1441 959 1056 
Q 959 750 1161 570 
Q 1363 391 1709 391 
Q 2188 391 2477 730 
Q 2766 1069 2766 1631 
L 2766 1759 
L 2194 1759 
z
M 3341 1997 
L 3341 0 
L 2766 0 
L 2766 531 
Q 2569 213 2275 61 
Q 1981 -91 1556 -91 
Q 1019 -91 701 211 
Q 384 513 384 1019 
Q 384 1609 779 1909 
Q 1175 2209 1959 2209 
L 2766 2209 
L 2766 2266 
Q 2766 2663 2505 2880 
Q 2244 3097 1772 3097 
Q 1472 3097 1187 3025 
Q 903 2953 641 2809 
L 641 3341 
Q 956 3463 1253 3523 
Q 1550 3584 1831 3584 
Q 2591 3584 2966 3190 
Q 3341 2797 3341 1997 
z
" transform="scale(0.015625)"/>
      <path id="DejaVuSans-6c" d="M 603 4863 
L 1178 4863 
L 1178 0 
L 603 0 
L 603 4863 
z
" transform="scale(0.015625)"/>
      <path id="DejaVuSans-65" d="M 3597 1894 
L 3597 1613 
L 953 1613 
Q 991 1019 1311 708 
Q 1631 397 2203 397 
Q 2534 397 2845 478 
Q 3156 559 3463 722 
L 3463 178 
Q 3153 47 2828 -22 
Q 2503 -91 2169 -91 
Q 1331 -91 842 396 
Q 353 884 353 1716 
Q 353 2575 817 3079 
Q 1281 3584 2069 3584 
Q 2775 3584 3186 3129 
Q 3597 2675 3597 1894 
z
M 3022 2063 
Q 3016 2534 2758 2815 
Q 2500 3097 2075 3097 
Q 1594 3097 1305 2825 
Q 1016 2553 972 2059 
L 3022 2063 
z
" transform="scale(0.015625)"/>
      <path id="DejaVuSans-73" d="M 2834 3397 
L 2834 2853 
Q 2591 2978 2328 3040 
Q 2066 3103 1784 3103 
Q 1356 3103 1142 2972 
Q 928 2841 928 2578 
Q 928 2378 1081 2264 
Q 1234 2150 1697 2047 
L 1894 2003 
Q 2506 1872 2764 1633 
Q 3022 1394 3022 966 
Q 3022 478 2636 193 
Q 2250 -91 1575 -91 
Q 1294 -91 989 -36 
Q 684 19 347 128 
L 347 722 
Q 666 556 975 473 
Q 1284 391 1588 391 
Q 1994 391 2212 530 
Q 2431 669 2431 922 
Q 2431 1156 2273 1281 
Q 2116 1406 1581 1522 
L 1381 1569 
Q 847 1681 609 1914 
Q 372 2147 372 2553 
Q 372 3047 722 3315 
Q 1072 3584 1716 3584 
Q 2034 3584 2315 3537 
Q 2597 3491 2834 3397 
z
" transform="scale(0.015625)"/>
      <path id="DejaVuSans-20" transform="scale(0.015625)"/>
      <path id="DejaVuSans-28" d="M 1984 4856 
Q 1566 4138 1362 3434 
Q 1159 2731 1159 2009 
Q 1159 1288 1364 580 
Q 1569 -128 1984 -844 
L 1484 -844 
Q 1016 -109 783 600 
Q 550 1309 550 2009 
Q 550 2706 781 3412 
Q 1013 4119 1484 4856 
L 1984 4856 
z
" transform="scale(0.015625)"/>
      <path id="DejaVuSans-54" d="M -19 4666 
L 3928 4666 
L 3928 4134 
L 2272 4134 
L 2272 0 
L 1638 0 
L 1638 4134 
L -19 4134 
L -19 4666 
z
" transform="scale(0.015625)"/>
      <path id="DejaVuSans-72" d="M 2631 2963 
Q 2534 3019 2420 3045 
Q 2306 3072 2169 3072 
Q 1681 3072 1420 2755 
Q 1159 2438 1159 1844 
L 1159 0 
L 581 0 
L 581 3500 
L 1159 3500 
L 1159 2956 
Q 1341 3275 1631 3429 
Q 1922 3584 2338 3584 
Q 2397 3584 2469 3576 
Q 2541 3569 2628 3553 
L 2631 2963 
z
" transform="scale(0.015625)"/>
      <path id="DejaVuSans-67" d="M 2906 1791 
Q 2906 2416 2648 2759 
Q 2391 3103 1925 3103 
Q 1463 3103 1205 2759 
Q 947 2416 947 1791 
Q 947 1169 1205 825 
Q 1463 481 1925 481 
Q 2391 481 2648 825 
Q 2906 1169 2906 1791 
z
M 3481 434 
Q 3481 -459 3084 -895 
Q 2688 -1331 1869 -1331 
Q 1566 -1331 1297 -1286 
Q 1028 -1241 775 -1147 
L 775 -588 
Q 1028 -725 1275 -790 
Q 1522 -856 1778 -856 
Q 2344 -856 2625 -561 
Q 2906 -266 2906 331 
L 2906 616 
Q 2728 306 2450 153 
Q 2172 0 1784 0 
Q 1141 0 747 490 
Q 353 981 353 1791 
Q 353 2603 747 3093 
Q 1141 3584 1784 3584 
Q 2172 3584 2450 3431 
Q 2728 3278 2906 2969 
L 2906 3500 
L 3481 3500 
L 3481 434 
z
" transform="scale(0.015625)"/>
      <path id="DejaVuSans-74" d="M 1172 4494 
L 1172 3500 
L 2356 3500 
L 2356 3053 
L 1172 3053 
L 1172 1153 
Q 1172 725 1289 603 
Q 1406 481 1766 481 
L 2356 481 
L 2356 0 
L 1766 0 
Q 1100 0 847 248 
Q 594 497 594 1153 
L 594 3053 
L 172 3053 
L 172 3500 
L 594 3500 
L 594 4494 
L 1172 4494 
z
" transform="scale(0.015625)"/>
      <path id="DejaVuSans-56" d="M 1831 0 
L 50 4666 
L 709 4666 
L 2188 738 
L 3669 4666 
L 4325 4666 
L 2547 0 
L 1831 0 
z
" transform="scale(0.015625)"/>
      <path id="DejaVuSans-69" d="M 603 3500 
L 1178 3500 
L 1178 0 
L 603 0 
L 603 3500 
z
M 603 4863 
L 1178 4863 
L 1178 4134 
L 603 4134 
L 603 4863 
z
" transform="scale(0.015625)"/>
      <path id="DejaVuSans-62" d="M 3116 1747 
Q 3116 2381 2855 2742 
Q 2594 3103 2138 3103 
Q 1681 3103 1420 2742 
Q 1159 2381 1159 1747 
Q 1159 1113 1420 752 
Q 1681 391 2138 391 
Q 2594 391 2855 752 
Q 3116 1113 3116 1747 
z
M 1159 2969 
Q 1341 3281 1617 3432 
Q 1894 3584 2278 3584 
Q 2916 3584 3314 3078 
Q 3713 2572 3713 1747 
Q 3713 922 3314 415 
Q 2916 -91 2278 -91 
Q 1894 -91 1617 61 
Q 1341 213 1159 525 
L 1159 0 
L 581 0 
L 581 4863 
L 1159 4863 
L 1159 2969 
z
" transform="scale(0.015625)"/>
      <path id="DejaVuSans-29" d="M 513 4856 
L 1013 4856 
Q 1481 4119 1714 3412 
Q 1947 2706 1947 2009 
Q 1947 1309 1714 600 
Q 1481 -109 1013 -844 
L 513 -844 
Q 928 -128 1133 580 
Q 1338 1288 1338 2009 
Q 1338 2731 1133 3434 
Q 928 4138 513 4856 
z
" transform="scale(0.015625)"/>
     </defs>
     <use xlink:href="#DejaVuSans-53"/>
     <use xlink:href="#DejaVuSans-61" x="63.476562"/>
     <use xlink:href="#DejaVuSans-6c" x="124.755859"/>
     <use xlink:href="#DejaVuSans-65" x="152.539062"/>
     <use xlink:href="#DejaVuSans-73" x="214.0625"/>
     <use xlink:href="#DejaVuSans-20" x="266.162109"/>
     <use xlink:href="#DejaVuSans-28" x="297.949219"/>
     <use xlink:href="#DejaVuSans-54" x="336.962891"/>
     <use xlink:href="#DejaVuSans-61" x="381.546875"/>
     <use xlink:href="#DejaVuSans-72" x="442.826172"/>
     <use xlink:href="#DejaVuSans-67" x="482.189453"/>
     <use xlink:href="#DejaVuSans-65" x="545.666016"/>
     <use xlink:href="#DejaVuSans-74" x="607.189453"/>
     <use xlink:href="#DejaVuSans-20" x="646.398438"/>
     <use xlink:href="#DejaVuSans-56" x="678.185547"/>
     <use xlink:href="#DejaVuSans-61" x="738.84375"/>
     <use xlink:href="#DejaVuSans-72" x="800.123047"/>
     <use xlink:href="#DejaVuSans-69" x="841.236328"/>
     <use xlink:href="#DejaVuSans-61" x="869.019531"/>
     <use xlink:href="#DejaVuSans-62" x="930.298828"/>
     <use xlink:href="#DejaVuSans-6c" x="993.775391"/>
     <use xlink:href="#DejaVuSans-65" x="1021.558594"/>
     <use xlink:href="#DejaVuSans-29" x="1083.082031"/>
    </g>
   </g>
  </g>
  <g id="axes_2">
   <g id="patch_7">
    <path d="M 48.579375 414.004937 
L 865.19952 414.004937 
L 865.19952 230.544458 
L 48.579375 230.544458 
z
" style="fill: #eeeeee"/>
   </g>
   <g id="matplotlib.axis_3">
    <g id="xtick_8">
     <g id="line2d_30">
      <path d="M 139.321567 414.004937 
L 139.321567 230.544458 
" clip-path="url(#p335d1deea2)" style="fill: none; stroke-dasharray: 1.85,0.8; stroke-dashoffset: 0; stroke: #b2b2b2; stroke-width: 0.5"/>
     </g>
     <g id="line2d_31">
      <g>
       <use xlink:href="#m74d69731d2" x="139.321567" y="414.004937" style="stroke: #000000; stroke-width: 0.8"/>
      </g>
     </g>
    </g>
    <g id="xtick_9">
     <g id="line2d_32">
      <path d="M 248.951004 414.004937 
L 248.951004 230.544458 
" clip-path="url(#p335d1deea2)" style="fill: none; stroke-dasharray: 1.85,0.8; stroke-dashoffset: 0; stroke: #b2b2b2; stroke-width: 0.5"/>
     </g>
     <g id="line2d_33">
      <g>
       <use xlink:href="#m74d69731d2" x="248.951004" y="414.004937" style="stroke: #000000; stroke-width: 0.8"/>
      </g>
     </g>
    </g>
    <g id="xtick_10">
     <g id="line2d_34">
      <path d="M 356.793005 414.004937 
L 356.793005 230.544458 
" clip-path="url(#p335d1deea2)" style="fill: none; stroke-dasharray: 1.85,0.8; stroke-dashoffset: 0; stroke: #b2b2b2; stroke-width: 0.5"/>
     </g>
     <g id="line2d_35">
      <g>
       <use xlink:href="#m74d69731d2" x="356.793005" y="414.004937" style="stroke: #000000; stroke-width: 0.8"/>
      </g>
     </g>
    </g>
    <g id="xtick_11">
     <g id="line2d_36">
      <path d="M 466.422442 414.004937 
L 466.422442 230.544458 
" clip-path="url(#p335d1deea2)" style="fill: none; stroke-dasharray: 1.85,0.8; stroke-dashoffset: 0; stroke: #b2b2b2; stroke-width: 0.5"/>
     </g>
     <g id="line2d_37">
      <g>
       <use xlink:href="#m74d69731d2" x="466.422442" y="414.004937" style="stroke: #000000; stroke-width: 0.8"/>
      </g>
     </g>
    </g>
    <g id="xtick_12">
     <g id="line2d_38">
      <path d="M 574.860255 414.004937 
L 574.860255 230.544458 
" clip-path="url(#p335d1deea2)" style="fill: none; stroke-dasharray: 1.85,0.8; stroke-dashoffset: 0; stroke: #b2b2b2; stroke-width: 0.5"/>
     </g>
     <g id="line2d_39">
      <g>
       <use xlink:href="#m74d69731d2" x="574.860255" y="414.004937" style="stroke: #000000; stroke-width: 0.8"/>
      </g>
     </g>
    </g>
    <g id="xtick_13">
     <g id="line2d_40">
      <path d="M 684.489692 414.004937 
L 684.489692 230.544458 
" clip-path="url(#p335d1deea2)" style="fill: none; stroke-dasharray: 1.85,0.8; stroke-dashoffset: 0; stroke: #b2b2b2; stroke-width: 0.5"/>
     </g>
     <g id="line2d_41">
      <g>
       <use xlink:href="#m74d69731d2" x="684.489692" y="414.004937" style="stroke: #000000; stroke-width: 0.8"/>
      </g>
     </g>
    </g>
    <g id="xtick_14">
     <g id="line2d_42">
      <path d="M 792.331693 414.004937 
L 792.331693 230.544458 
" clip-path="url(#p335d1deea2)" style="fill: none; stroke-dasharray: 1.85,0.8; stroke-dashoffset: 0; stroke: #b2b2b2; stroke-width: 0.5"/>
     </g>
     <g id="line2d_43">
      <g>
       <use xlink:href="#m74d69731d2" x="792.331693" y="414.004937" style="stroke: #000000; stroke-width: 0.8"/>
      </g>
     </g>
    </g>
   </g>
   <g id="matplotlib.axis_4">
    <g id="ytick_8">
     <g id="line2d_44">
      <path d="M 48.579375 391.662902 
L 865.19952 391.662902 
" clip-path="url(#p335d1deea2)" style="fill: none; stroke-dasharray: 1.85,0.8; stroke-dashoffset: 0; stroke: #b2b2b2; stroke-width: 0.5"/>
     </g>
     <g id="line2d_45">
      <g>
       <use xlink:href="#m4b82922c99" x="48.579375" y="391.662902" style="stroke: #000000; stroke-width: 0.8"/>
      </g>
     </g>
     <g id="text_10">
      <!-- 0.1 -->
      <g transform="translate(29.17625 395.462121)scale(0.1 -0.1)">
       <defs>
        <path id="DejaVuSans-31" d="M 794 531 
L 1825 531 
L 1825 4091 
L 703 3866 
L 703 4441 
L 1819 4666 
L 2450 4666 
L 2450 531 
L 3481 531 
L 3481 0 
L 794 0 
L 794 531 
z
" transform="scale(0.015625)"/>
       </defs>
       <use xlink:href="#DejaVuSans-30"/>
       <use xlink:href="#DejaVuSans-2e" x="63.623047"/>
       <use xlink:href="#DejaVuSans-31" x="95.410156"/>
      </g>
     </g>
    </g>
    <g id="ytick_9">
     <g id="line2d_46">
      <path d="M 48.579375 366.788831 
L 865.19952 366.788831 
" clip-path="url(#p335d1deea2)" style="fill: none; stroke-dasharray: 1.85,0.8; stroke-dashoffset: 0; stroke: #b2b2b2; stroke-width: 0.5"/>
     </g>
     <g id="line2d_47">
      <g>
       <use xlink:href="#m4b82922c99" x="48.579375" y="366.788831" style="stroke: #000000; stroke-width: 0.8"/>
      </g>
     </g>
     <g id="text_11">
      <!-- 0.2 -->
      <g transform="translate(29.17625 370.58805)scale(0.1 -0.1)">
       <use xlink:href="#DejaVuSans-30"/>
       <use xlink:href="#DejaVuSans-2e" x="63.623047"/>
       <use xlink:href="#DejaVuSans-32" x="95.410156"/>
      </g>
     </g>
    </g>
    <g id="ytick_10">
     <g id="line2d_48">
      <path d="M 48.579375 341.91476 
L 865.19952 341.91476 
" clip-path="url(#p335d1deea2)" style="fill: none; stroke-dasharray: 1.85,0.8; stroke-dashoffset: 0; stroke: #b2b2b2; stroke-width: 0.5"/>
     </g>
     <g id="line2d_49">
      <g>
       <use xlink:href="#m4b82922c99" x="48.579375" y="341.91476" style="stroke: #000000; stroke-width: 0.8"/>
      </g>
     </g>
     <g id="text_12">
      <!-- 0.3 -->
      <g transform="translate(29.17625 345.713979)scale(0.1 -0.1)">
       <use xlink:href="#DejaVuSans-30"/>
       <use xlink:href="#DejaVuSans-2e" x="63.623047"/>
       <use xlink:href="#DejaVuSans-33" x="95.410156"/>
      </g>
     </g>
    </g>
    <g id="ytick_11">
     <g id="line2d_50">
      <path d="M 48.579375 317.040689 
L 865.19952 317.040689 
" clip-path="url(#p335d1deea2)" style="fill: none; stroke-dasharray: 1.85,0.8; stroke-dashoffset: 0; stroke: #b2b2b2; stroke-width: 0.5"/>
     </g>
     <g id="line2d_51">
      <g>
       <use xlink:href="#m4b82922c99" x="48.579375" y="317.040689" style="stroke: #000000; stroke-width: 0.8"/>
      </g>
     </g>
     <g id="text_13">
      <!-- 0.4 -->
      <g transform="translate(29.17625 320.839908)scale(0.1 -0.1)">
       <use xlink:href="#DejaVuSans-30"/>
       <use xlink:href="#DejaVuSans-2e" x="63.623047"/>
       <use xlink:href="#DejaVuSans-34" x="95.410156"/>
      </g>
     </g>
    </g>
    <g id="ytick_12">
     <g id="line2d_52">
      <path d="M 48.579375 292.166619 
L 865.19952 292.166619 
" clip-path="url(#p335d1deea2)" style="fill: none; stroke-dasharray: 1.85,0.8; stroke-dashoffset: 0; stroke: #b2b2b2; stroke-width: 0.5"/>
     </g>
     <g id="line2d_53">
      <g>
       <use xlink:href="#m4b82922c99" x="48.579375" y="292.166619" style="stroke: #000000; stroke-width: 0.8"/>
      </g>
     </g>
     <g id="text_14">
      <!-- 0.5 -->
      <g transform="translate(29.17625 295.965837)scale(0.1 -0.1)">
       <use xlink:href="#DejaVuSans-30"/>
       <use xlink:href="#DejaVuSans-2e" x="63.623047"/>
       <use xlink:href="#DejaVuSans-35" x="95.410156"/>
      </g>
     </g>
    </g>
    <g id="ytick_13">
     <g id="line2d_54">
      <path d="M 48.579375 267.292548 
L 865.19952 267.292548 
" clip-path="url(#p335d1deea2)" style="fill: none; stroke-dasharray: 1.85,0.8; stroke-dashoffset: 0; stroke: #b2b2b2; stroke-width: 0.5"/>
     </g>
     <g id="line2d_55">
      <g>
       <use xlink:href="#m4b82922c99" x="48.579375" y="267.292548" style="stroke: #000000; stroke-width: 0.8"/>
      </g>
     </g>
     <g id="text_15">
      <!-- 0.6 -->
      <g transform="translate(29.17625 271.091766)scale(0.1 -0.1)">
       <defs>
        <path id="DejaVuSans-36" d="M 2113 2584 
Q 1688 2584 1439 2293 
Q 1191 2003 1191 1497 
Q 1191 994 1439 701 
Q 1688 409 2113 409 
Q 2538 409 2786 701 
Q 3034 994 3034 1497 
Q 3034 2003 2786 2293 
Q 2538 2584 2113 2584 
z
M 3366 4563 
L 3366 3988 
Q 3128 4100 2886 4159 
Q 2644 4219 2406 4219 
Q 1781 4219 1451 3797 
Q 1122 3375 1075 2522 
Q 1259 2794 1537 2939 
Q 1816 3084 2150 3084 
Q 2853 3084 3261 2657 
Q 3669 2231 3669 1497 
Q 3669 778 3244 343 
Q 2819 -91 2113 -91 
Q 1303 -91 875 529 
Q 447 1150 447 2328 
Q 447 3434 972 4092 
Q 1497 4750 2381 4750 
Q 2619 4750 2861 4703 
Q 3103 4656 3366 4563 
z
" transform="scale(0.015625)"/>
       </defs>
       <use xlink:href="#DejaVuSans-30"/>
       <use xlink:href="#DejaVuSans-2e" x="63.623047"/>
       <use xlink:href="#DejaVuSans-36" x="95.410156"/>
      </g>
     </g>
    </g>
    <g id="ytick_14">
     <g id="line2d_56">
      <path d="M 48.579375 242.418477 
L 865.19952 242.418477 
" clip-path="url(#p335d1deea2)" style="fill: none; stroke-dasharray: 1.85,0.8; stroke-dashoffset: 0; stroke: #b2b2b2; stroke-width: 0.5"/>
     </g>
     <g id="line2d_57">
      <g>
       <use xlink:href="#m4b82922c99" x="48.579375" y="242.418477" style="stroke: #000000; stroke-width: 0.8"/>
      </g>
     </g>
     <g id="text_16">
      <!-- 0.7 -->
      <g transform="translate(29.17625 246.217695)scale(0.1 -0.1)">
       <use xlink:href="#DejaVuSans-30"/>
       <use xlink:href="#DejaVuSans-2e" x="63.623047"/>
       <use xlink:href="#DejaVuSans-37" x="95.410156"/>
      </g>
     </g>
    </g>
    <g id="text_17">
     <!-- z_effect -->
     <g transform="translate(22.346875 345.683135)rotate(-90)scale(0.12 -0.12)">
      <defs>
       <path id="DejaVuSans-7a" d="M 353 3500 
L 3084 3500 
L 3084 2975 
L 922 459 
L 3084 459 
L 3084 0 
L 275 0 
L 275 525 
L 2438 3041 
L 353 3041 
L 353 3500 
z
" transform="scale(0.015625)"/>
       <path id="DejaVuSans-5f" d="M 3263 -1063 
L 3263 -1509 
L -63 -1509 
L -63 -1063 
L 3263 -1063 
z
" transform="scale(0.015625)"/>
       <path id="DejaVuSans-66" d="M 2375 4863 
L 2375 4384 
L 1825 4384 
Q 1516 4384 1395 4259 
Q 1275 4134 1275 3809 
L 1275 3500 
L 2222 3500 
L 2222 3053 
L 1275 3053 
L 1275 0 
L 697 0 
L 697 3053 
L 147 3053 
L 147 3500 
L 697 3500 
L 697 3744 
Q 697 4328 969 4595 
Q 1241 4863 1831 4863 
L 2375 4863 
z
" transform="scale(0.015625)"/>
       <path id="DejaVuSans-63" d="M 3122 3366 
L 3122 2828 
Q 2878 2963 2633 3030 
Q 2388 3097 2138 3097 
Q 1578 3097 1268 2742 
Q 959 2388 959 1747 
Q 959 1106 1268 751 
Q 1578 397 2138 397 
Q 2388 397 2633 464 
Q 2878 531 3122 666 
L 3122 134 
Q 2881 22 2623 -34 
Q 2366 -91 2075 -91 
Q 1284 -91 818 406 
Q 353 903 353 1747 
Q 353 2603 823 3093 
Q 1294 3584 2113 3584 
Q 2378 3584 2631 3529 
Q 2884 3475 3122 3366 
z
" transform="scale(0.015625)"/>
      </defs>
      <use xlink:href="#DejaVuSans-7a"/>
      <use xlink:href="#DejaVuSans-5f" x="52.490234"/>
      <use xlink:href="#DejaVuSans-65" x="102.490234"/>
      <use xlink:href="#DejaVuSans-66" x="164.013672"/>
      <use xlink:href="#DejaVuSans-66" x="199.21875"/>
      <use xlink:href="#DejaVuSans-65" x="234.423828"/>
      <use xlink:href="#DejaVuSans-63" x="295.947266"/>
      <use xlink:href="#DejaVuSans-74" x="350.927734"/>
     </g>
    </g>
   </g>
   <g id="line2d_58">
    <path d="M 85.698473 399.0975 
L 89.869158 260.398212 
L 94.039843 239.198804 
L 98.210528 242.38776 
L 102.381213 309.003798 
L 106.551898 353.803256 
L 110.722583 382.406539 
L 114.893268 272.900605 
L 119.063953 262.295115 
L 123.234639 249.40569 
L 127.405324 317.250464 
L 131.576009 249.884934 
L 135.746694 238.883571 
L 139.917379 299.930009 
L 144.088064 347.289758 
L 148.258749 374.178741 
L 152.429434 383.385097 
L 156.600119 323.631521 
L 160.770805 310.210812 
L 164.94149 349.643435 
L 169.112175 302.391275 
L 173.28286 350.002821 
L 177.453545 371.998871 
L 181.62423 380.775337 
L 185.794915 335.780298 
L 189.9656 285.451779 
L 194.136285 335.946017 
L 198.306971 312.028078 
L 202.477656 295.245771 
L 206.648341 347.326334 
L 210.819026 309.372277 
L 214.989711 352.898627 
L 219.160396 381.851738 
L 223.331081 294.064562 
L 227.501766 269.181674 
L 231.672451 267.871161 
L 235.843137 315.255548 
L 240.013822 358.582569 
L 244.184507 312.176198 
L 248.355192 314.329086 
L 252.525877 357.04257 
L 256.696562 330.567474 
L 260.867247 369.827667 
L 265.037932 302.308341 
L 269.208617 344.522145 
L 273.379303 313.368314 
L 277.549988 350.90022 
L 281.720673 328.653331 
L 285.891358 317.450769 
L 290.062043 356.801054 
L 294.232728 300.495266 
L 298.403413 293.173479 
L 302.574098 284.299884 
L 306.744783 282.800743 
L 310.915469 293.195745 
L 315.086154 286.861088 
L 319.256839 330.992968 
L 323.427524 365.127816 
L 327.598209 389.014656 
L 331.768894 393.830105 
L 335.939579 394.585196 
L 340.110264 398.194788 
L 344.280949 329.996266 
L 348.451635 360.524375 
L 352.62232 380.462954 
L 356.793005 346.82941 
L 360.96369 376.132447 
L 365.134375 327.525051 
L 369.30506 365.012794 
L 373.475745 315.211014 
L 377.64643 309.379351 
L 381.817115 347.244132 
L 385.987801 379.445819 
L 390.158486 331.004872 
L 394.329171 320.56494 
L 398.499856 315.645792 
L 402.670541 312.268548 
L 406.841226 350.864533 
L 411.011911 373.631283 
L 415.182596 391.927813 
L 419.353281 335.744973 
L 423.523967 329.460304 
L 427.694652 360.080686 
L 431.865337 385.533237 
L 436.036022 393.816396 
L 440.206707 397.75542 
L 444.377392 348.57187 
L 448.548077 336.269682 
L 452.718762 321.379979 
L 456.889447 331.304044 
L 461.060133 364.70573 
L 465.230818 339.944406 
L 469.401503 329.097357 
L 473.572188 332.761243 
L 477.742873 326.621726 
L 481.913558 334.653889 
L 486.084243 338.147361 
L 490.254928 344.921196 
L 494.425614 376.070542 
L 498.596299 393.570169 
L 502.766984 404.372384 
L 506.937669 362.423373 
L 511.108354 381.866242 
L 515.279039 362.119829 
L 519.449724 335.738066 
L 523.620409 364.531717 
L 527.791094 361.113756 
L 531.96178 342.524059 
L 536.132465 370.080365 
L 540.30315 390.800694 
L 544.473835 397.978174 
L 548.64452 404.121899 
L 552.815205 350.224221 
L 556.98589 338.707899 
L 561.156575 339.953248 
L 565.32726 333.706894 
L 569.497946 333.078773 
L 573.668631 361.060156 
L 577.839316 341.260611 
L 582.010001 345.635164 
L 586.180686 339.207333 
L 590.351371 334.729185 
L 594.522056 360.164418 
L 598.692741 383.898411 
L 602.863426 395.876843 
L 607.034112 377.758576 
L 611.204797 351.788713 
L 615.375482 342.118869 
L 619.546167 370.75683 
L 623.716852 363.099157 
L 627.887537 364.12641 
L 632.058222 384.574452 
L 636.228907 398.162645 
L 640.399592 401.6353 
L 644.570278 356.675321 
L 648.740963 377.985831 
L 652.911648 367.178061 
L 657.082333 355.422146 
L 661.253018 376.447073 
L 665.423703 350.280866 
L 669.594388 343.043706 
L 673.765073 366.506806 
L 677.935758 364.091417 
L 682.106444 383.281281 
L 686.277129 394.983665 
L 690.447814 405.066341 
L 694.618499 375.631157 
L 698.789184 368.820829 
L 702.959869 389.817574 
L 707.130554 398.694409 
L 711.301239 361.803614 
L 715.471924 382.358239 
L 719.64261 396.641667 
L 723.813295 379.345915 
L 727.98398 355.103898 
L 732.154665 376.786588 
L 736.32535 364.324481 
L 740.496035 357.026673 
L 744.66672 378.290818 
L 748.837405 363.592813 
L 753.00809 381.828491 
L 757.178776 368.639944 
L 761.349461 363.468431 
L 765.520146 364.307198 
L 769.690831 385.561998 
L 773.861516 363.938294 
L 778.032201 382.496277 
L 782.202886 396.180934 
L 786.373571 405.665824 
L 790.544256 380.892015 
L 794.714942 368.337215 
L 798.885627 389.170316 
L 803.056312 378.011811 
L 807.226997 393.024655 
L 811.397682 374.694201 
L 815.568367 391.554264 
L 819.739052 372.854664 
L 823.909737 387.850029 
L 828.080422 364.664913 
L 828.080422 364.664913 
" clip-path="url(#p335d1deea2)" style="fill: none; stroke: #467821; stroke-width: 2; stroke-linecap: square"/>
   </g>
   <g id="patch_8">
    <path d="M 48.579375 414.004937 
L 48.579375 230.544458 
" style="fill: none; stroke: #bcbcbc; stroke-width: 0.8; stroke-linejoin: miter; stroke-linecap: square"/>
   </g>
   <g id="patch_9">
    <path d="M 865.19952 414.004937 
L 865.19952 230.544458 
" style="fill: none; stroke: #bcbcbc; stroke-width: 0.8; stroke-linejoin: miter; stroke-linecap: square"/>
   </g>
   <g id="patch_10">
    <path d="M 48.579375 414.004937 
L 865.19952 414.004937 
" style="fill: none; stroke: #bcbcbc; stroke-width: 0.8; stroke-linejoin: miter; stroke-linecap: square"/>
   </g>
   <g id="patch_11">
    <path d="M 48.579375 230.544458 
L 865.19952 230.544458 
" style="fill: none; stroke: #bcbcbc; stroke-width: 0.8; stroke-linejoin: miter; stroke-linecap: square"/>
   </g>
   <g id="text_18">
    <!-- Media Cost Effect on Sales -->
    <g transform="translate(361.140697 224.544458)scale(0.144 -0.144)">
     <defs>
      <path id="DejaVuSans-4d" d="M 628 4666 
L 1569 4666 
L 2759 1491 
L 3956 4666 
L 4897 4666 
L 4897 0 
L 4281 0 
L 4281 4097 
L 3078 897 
L 2444 897 
L 1241 4097 
L 1241 0 
L 628 0 
L 628 4666 
z
" transform="scale(0.015625)"/>
      <path id="DejaVuSans-64" d="M 2906 2969 
L 2906 4863 
L 3481 4863 
L 3481 0 
L 2906 0 
L 2906 525 
Q 2725 213 2448 61 
Q 2172 -91 1784 -91 
Q 1150 -91 751 415 
Q 353 922 353 1747 
Q 353 2572 751 3078 
Q 1150 3584 1784 3584 
Q 2172 3584 2448 3432 
Q 2725 3281 2906 2969 
z
M 947 1747 
Q 947 1113 1208 752 
Q 1469 391 1925 391 
Q 2381 391 2643 752 
Q 2906 1113 2906 1747 
Q 2906 2381 2643 2742 
Q 2381 3103 1925 3103 
Q 1469 3103 1208 2742 
Q 947 2381 947 1747 
z
" transform="scale(0.015625)"/>
      <path id="DejaVuSans-43" d="M 4122 4306 
L 4122 3641 
Q 3803 3938 3442 4084 
Q 3081 4231 2675 4231 
Q 1875 4231 1450 3742 
Q 1025 3253 1025 2328 
Q 1025 1406 1450 917 
Q 1875 428 2675 428 
Q 3081 428 3442 575 
Q 3803 722 4122 1019 
L 4122 359 
Q 3791 134 3420 21 
Q 3050 -91 2638 -91 
Q 1578 -91 968 557 
Q 359 1206 359 2328 
Q 359 3453 968 4101 
Q 1578 4750 2638 4750 
Q 3056 4750 3426 4639 
Q 3797 4528 4122 4306 
z
" transform="scale(0.015625)"/>
      <path id="DejaVuSans-6f" d="M 1959 3097 
Q 1497 3097 1228 2736 
Q 959 2375 959 1747 
Q 959 1119 1226 758 
Q 1494 397 1959 397 
Q 2419 397 2687 759 
Q 2956 1122 2956 1747 
Q 2956 2369 2687 2733 
Q 2419 3097 1959 3097 
z
M 1959 3584 
Q 2709 3584 3137 3096 
Q 3566 2609 3566 1747 
Q 3566 888 3137 398 
Q 2709 -91 1959 -91 
Q 1206 -91 779 398 
Q 353 888 353 1747 
Q 353 2609 779 3096 
Q 1206 3584 1959 3584 
z
" transform="scale(0.015625)"/>
      <path id="DejaVuSans-45" d="M 628 4666 
L 3578 4666 
L 3578 4134 
L 1259 4134 
L 1259 2753 
L 3481 2753 
L 3481 2222 
L 1259 2222 
L 1259 531 
L 3634 531 
L 3634 0 
L 628 0 
L 628 4666 
z
" transform="scale(0.015625)"/>
      <path id="DejaVuSans-6e" d="M 3513 2113 
L 3513 0 
L 2938 0 
L 2938 2094 
Q 2938 2591 2744 2837 
Q 2550 3084 2163 3084 
Q 1697 3084 1428 2787 
Q 1159 2491 1159 1978 
L 1159 0 
L 581 0 
L 581 3500 
L 1159 3500 
L 1159 2956 
Q 1366 3272 1645 3428 
Q 1925 3584 2291 3584 
Q 2894 3584 3203 3211 
Q 3513 2838 3513 2113 
z
" transform="scale(0.015625)"/>
     </defs>
     <use xlink:href="#DejaVuSans-4d"/>
     <use xlink:href="#DejaVuSans-65" x="86.279297"/>
     <use xlink:href="#DejaVuSans-64" x="147.802734"/>
     <use xlink:href="#DejaVuSans-69" x="211.279297"/>
     <use xlink:href="#DejaVuSans-61" x="239.0625"/>
     <use xlink:href="#DejaVuSans-20" x="300.341797"/>
     <use xlink:href="#DejaVuSans-43" x="332.128906"/>
     <use xlink:href="#DejaVuSans-6f" x="401.953125"/>
     <use xlink:href="#DejaVuSans-73" x="463.134766"/>
     <use xlink:href="#DejaVuSans-74" x="515.234375"/>
     <use xlink:href="#DejaVuSans-20" x="554.443359"/>
     <use xlink:href="#DejaVuSans-45" x="586.230469"/>
     <use xlink:href="#DejaVuSans-66" x="649.414062"/>
     <use xlink:href="#DejaVuSans-66" x="684.619141"/>
     <use xlink:href="#DejaVuSans-65" x="719.824219"/>
     <use xlink:href="#DejaVuSans-63" x="781.347656"/>
     <use xlink:href="#DejaVuSans-74" x="836.328125"/>
     <use xlink:href="#DejaVuSans-20" x="875.537109"/>
     <use xlink:href="#DejaVuSans-6f" x="907.324219"/>
     <use xlink:href="#DejaVuSans-6e" x="968.505859"/>
     <use xlink:href="#DejaVuSans-20" x="1031.884766"/>
     <use xlink:href="#DejaVuSans-53" x="1063.671875"/>
     <use xlink:href="#DejaVuSans-61" x="1127.148438"/>
     <use xlink:href="#DejaVuSans-6c" x="1188.427734"/>
     <use xlink:href="#DejaVuSans-65" x="1216.210938"/>
     <use xlink:href="#DejaVuSans-73" x="1277.734375"/>
    </g>
   </g>
  </g>
  <g id="axes_3">
   <g id="patch_12">
    <path d="M 48.579375 620.407645 
L 865.19952 620.407645 
L 865.19952 436.947167 
L 48.579375 436.947167 
z
" style="fill: #eeeeee"/>
   </g>
   <g id="matplotlib.axis_5">
    <g id="xtick_15">
     <g id="line2d_59">
      <path d="M 139.321567 620.407645 
L 139.321567 436.947167 
" clip-path="url(#p02e9d4aebf)" style="fill: none; stroke-dasharray: 1.85,0.8; stroke-dashoffset: 0; stroke: #b2b2b2; stroke-width: 0.5"/>
     </g>
     <g id="line2d_60">
      <g>
       <use xlink:href="#m74d69731d2" x="139.321567" y="620.407645" style="stroke: #000000; stroke-width: 0.8"/>
      </g>
     </g>
     <g id="text_19">
      <!-- 2018-07 -->
      <g transform="translate(118.430161 631.506082)scale(0.1 -0.1)">
       <defs>
        <path id="DejaVuSans-38" d="M 2034 2216 
Q 1584 2216 1326 1975 
Q 1069 1734 1069 1313 
Q 1069 891 1326 650 
Q 1584 409 2034 409 
Q 2484 409 2743 651 
Q 3003 894 3003 1313 
Q 3003 1734 2745 1975 
Q 2488 2216 2034 2216 
z
M 1403 2484 
Q 997 2584 770 2862 
Q 544 3141 544 3541 
Q 544 4100 942 4425 
Q 1341 4750 2034 4750 
Q 2731 4750 3128 4425 
Q 3525 4100 3525 3541 
Q 3525 3141 3298 2862 
Q 3072 2584 2669 2484 
Q 3125 2378 3379 2068 
Q 3634 1759 3634 1313 
Q 3634 634 3220 271 
Q 2806 -91 2034 -91 
Q 1263 -91 848 271 
Q 434 634 434 1313 
Q 434 1759 690 2068 
Q 947 2378 1403 2484 
z
M 1172 3481 
Q 1172 3119 1398 2916 
Q 1625 2713 2034 2713 
Q 2441 2713 2670 2916 
Q 2900 3119 2900 3481 
Q 2900 3844 2670 4047 
Q 2441 4250 2034 4250 
Q 1625 4250 1398 4047 
Q 1172 3844 1172 3481 
z
" transform="scale(0.015625)"/>
        <path id="DejaVuSans-2d" d="M 313 2009 
L 1997 2009 
L 1997 1497 
L 313 1497 
L 313 2009 
z
" transform="scale(0.015625)"/>
       </defs>
       <use xlink:href="#DejaVuSans-32"/>
       <use xlink:href="#DejaVuSans-30" x="63.623047"/>
       <use xlink:href="#DejaVuSans-31" x="127.246094"/>
       <use xlink:href="#DejaVuSans-38" x="190.869141"/>
       <use xlink:href="#DejaVuSans-2d" x="254.492188"/>
       <use xlink:href="#DejaVuSans-30" x="290.576172"/>
       <use xlink:href="#DejaVuSans-37" x="354.199219"/>
      </g>
     </g>
    </g>
    <g id="xtick_16">
     <g id="line2d_61">
      <path d="M 248.951004 620.407645 
L 248.951004 436.947167 
" clip-path="url(#p02e9d4aebf)" style="fill: none; stroke-dasharray: 1.85,0.8; stroke-dashoffset: 0; stroke: #b2b2b2; stroke-width: 0.5"/>
     </g>
     <g id="line2d_62">
      <g>
       <use xlink:href="#m74d69731d2" x="248.951004" y="620.407645" style="stroke: #000000; stroke-width: 0.8"/>
      </g>
     </g>
     <g id="text_20">
      <!-- 2019-01 -->
      <g transform="translate(228.059598 631.506082)scale(0.1 -0.1)">
       <defs>
        <path id="DejaVuSans-39" d="M 703 97 
L 703 672 
Q 941 559 1184 500 
Q 1428 441 1663 441 
Q 2288 441 2617 861 
Q 2947 1281 2994 2138 
Q 2813 1869 2534 1725 
Q 2256 1581 1919 1581 
Q 1219 1581 811 2004 
Q 403 2428 403 3163 
Q 403 3881 828 4315 
Q 1253 4750 1959 4750 
Q 2769 4750 3195 4129 
Q 3622 3509 3622 2328 
Q 3622 1225 3098 567 
Q 2575 -91 1691 -91 
Q 1453 -91 1209 -44 
Q 966 3 703 97 
z
M 1959 2075 
Q 2384 2075 2632 2365 
Q 2881 2656 2881 3163 
Q 2881 3666 2632 3958 
Q 2384 4250 1959 4250 
Q 1534 4250 1286 3958 
Q 1038 3666 1038 3163 
Q 1038 2656 1286 2365 
Q 1534 2075 1959 2075 
z
" transform="scale(0.015625)"/>
       </defs>
       <use xlink:href="#DejaVuSans-32"/>
       <use xlink:href="#DejaVuSans-30" x="63.623047"/>
       <use xlink:href="#DejaVuSans-31" x="127.246094"/>
       <use xlink:href="#DejaVuSans-39" x="190.869141"/>
       <use xlink:href="#DejaVuSans-2d" x="254.492188"/>
       <use xlink:href="#DejaVuSans-30" x="290.576172"/>
       <use xlink:href="#DejaVuSans-31" x="354.199219"/>
      </g>
     </g>
    </g>
    <g id="xtick_17">
     <g id="line2d_63">
      <path d="M 356.793005 620.407645 
L 356.793005 436.947167 
" clip-path="url(#p02e9d4aebf)" style="fill: none; stroke-dasharray: 1.85,0.8; stroke-dashoffset: 0; stroke: #b2b2b2; stroke-width: 0.5"/>
     </g>
     <g id="line2d_64">
      <g>
       <use xlink:href="#m74d69731d2" x="356.793005" y="620.407645" style="stroke: #000000; stroke-width: 0.8"/>
      </g>
     </g>
     <g id="text_21">
      <!-- 2019-07 -->
      <g transform="translate(335.901599 631.506082)scale(0.1 -0.1)">
       <use xlink:href="#DejaVuSans-32"/>
       <use xlink:href="#DejaVuSans-30" x="63.623047"/>
       <use xlink:href="#DejaVuSans-31" x="127.246094"/>
       <use xlink:href="#DejaVuSans-39" x="190.869141"/>
       <use xlink:href="#DejaVuSans-2d" x="254.492188"/>
       <use xlink:href="#DejaVuSans-30" x="290.576172"/>
       <use xlink:href="#DejaVuSans-37" x="354.199219"/>
      </g>
     </g>
    </g>
    <g id="xtick_18">
     <g id="line2d_65">
      <path d="M 466.422442 620.407645 
L 466.422442 436.947167 
" clip-path="url(#p02e9d4aebf)" style="fill: none; stroke-dasharray: 1.85,0.8; stroke-dashoffset: 0; stroke: #b2b2b2; stroke-width: 0.5"/>
     </g>
     <g id="line2d_66">
      <g>
       <use xlink:href="#m74d69731d2" x="466.422442" y="620.407645" style="stroke: #000000; stroke-width: 0.8"/>
      </g>
     </g>
     <g id="text_22">
      <!-- 2020-01 -->
      <g transform="translate(445.531036 631.506082)scale(0.1 -0.1)">
       <use xlink:href="#DejaVuSans-32"/>
       <use xlink:href="#DejaVuSans-30" x="63.623047"/>
       <use xlink:href="#DejaVuSans-32" x="127.246094"/>
       <use xlink:href="#DejaVuSans-30" x="190.869141"/>
       <use xlink:href="#DejaVuSans-2d" x="254.492188"/>
       <use xlink:href="#DejaVuSans-30" x="290.576172"/>
       <use xlink:href="#DejaVuSans-31" x="354.199219"/>
      </g>
     </g>
    </g>
    <g id="xtick_19">
     <g id="line2d_67">
      <path d="M 574.860255 620.407645 
L 574.860255 436.947167 
" clip-path="url(#p02e9d4aebf)" style="fill: none; stroke-dasharray: 1.85,0.8; stroke-dashoffset: 0; stroke: #b2b2b2; stroke-width: 0.5"/>
     </g>
     <g id="line2d_68">
      <g>
       <use xlink:href="#m74d69731d2" x="574.860255" y="620.407645" style="stroke: #000000; stroke-width: 0.8"/>
      </g>
     </g>
     <g id="text_23">
      <!-- 2020-07 -->
      <g transform="translate(553.968849 631.506082)scale(0.1 -0.1)">
       <use xlink:href="#DejaVuSans-32"/>
       <use xlink:href="#DejaVuSans-30" x="63.623047"/>
       <use xlink:href="#DejaVuSans-32" x="127.246094"/>
       <use xlink:href="#DejaVuSans-30" x="190.869141"/>
       <use xlink:href="#DejaVuSans-2d" x="254.492188"/>
       <use xlink:href="#DejaVuSans-30" x="290.576172"/>
       <use xlink:href="#DejaVuSans-37" x="354.199219"/>
      </g>
     </g>
    </g>
    <g id="xtick_20">
     <g id="line2d_69">
      <path d="M 684.489692 620.407645 
L 684.489692 436.947167 
" clip-path="url(#p02e9d4aebf)" style="fill: none; stroke-dasharray: 1.85,0.8; stroke-dashoffset: 0; stroke: #b2b2b2; stroke-width: 0.5"/>
     </g>
     <g id="line2d_70">
      <g>
       <use xlink:href="#m74d69731d2" x="684.489692" y="620.407645" style="stroke: #000000; stroke-width: 0.8"/>
      </g>
     </g>
     <g id="text_24">
      <!-- 2021-01 -->
      <g transform="translate(663.598286 631.506082)scale(0.1 -0.1)">
       <use xlink:href="#DejaVuSans-32"/>
       <use xlink:href="#DejaVuSans-30" x="63.623047"/>
       <use xlink:href="#DejaVuSans-32" x="127.246094"/>
       <use xlink:href="#DejaVuSans-31" x="190.869141"/>
       <use xlink:href="#DejaVuSans-2d" x="254.492188"/>
       <use xlink:href="#DejaVuSans-30" x="290.576172"/>
       <use xlink:href="#DejaVuSans-31" x="354.199219"/>
      </g>
     </g>
    </g>
    <g id="xtick_21">
     <g id="line2d_71">
      <path d="M 792.331693 620.407645 
L 792.331693 436.947167 
" clip-path="url(#p02e9d4aebf)" style="fill: none; stroke-dasharray: 1.85,0.8; stroke-dashoffset: 0; stroke: #b2b2b2; stroke-width: 0.5"/>
     </g>
     <g id="line2d_72">
      <g>
       <use xlink:href="#m74d69731d2" x="792.331693" y="620.407645" style="stroke: #000000; stroke-width: 0.8"/>
      </g>
     </g>
     <g id="text_25">
      <!-- 2021-07 -->
      <g transform="translate(771.440287 631.506082)scale(0.1 -0.1)">
       <use xlink:href="#DejaVuSans-32"/>
       <use xlink:href="#DejaVuSans-30" x="63.623047"/>
       <use xlink:href="#DejaVuSans-32" x="127.246094"/>
       <use xlink:href="#DejaVuSans-31" x="190.869141"/>
       <use xlink:href="#DejaVuSans-2d" x="254.492188"/>
       <use xlink:href="#DejaVuSans-30" x="290.576172"/>
       <use xlink:href="#DejaVuSans-37" x="354.199219"/>
      </g>
     </g>
    </g>
    <g id="text_26">
     <!-- date -->
     <g transform="translate(443.359447 646.703895)scale(0.12 -0.12)">
      <use xlink:href="#DejaVuSans-64"/>
      <use xlink:href="#DejaVuSans-61" x="63.476562"/>
      <use xlink:href="#DejaVuSans-74" x="124.755859"/>
      <use xlink:href="#DejaVuSans-65" x="163.964844"/>
     </g>
    </g>
   </g>
   <g id="matplotlib.axis_6">
    <g id="ytick_15">
     <g id="line2d_73">
      <path d="M 48.579375 612.302166 
L 865.19952 612.302166 
" clip-path="url(#p02e9d4aebf)" style="fill: none; stroke-dasharray: 1.85,0.8; stroke-dashoffset: 0; stroke: #b2b2b2; stroke-width: 0.5"/>
     </g>
     <g id="line2d_74">
      <g>
       <use xlink:href="#m4b82922c99" x="48.579375" y="612.302166" style="stroke: #000000; stroke-width: 0.8"/>
      </g>
     </g>
     <g id="text_27">
      <!-- 0 -->
      <g transform="translate(38.716875 616.101385)scale(0.1 -0.1)">
       <use xlink:href="#DejaVuSans-30"/>
      </g>
     </g>
    </g>
    <g id="ytick_16">
     <g id="line2d_75">
      <path d="M 48.579375 578.455151 
L 865.19952 578.455151 
" clip-path="url(#p02e9d4aebf)" style="fill: none; stroke-dasharray: 1.85,0.8; stroke-dashoffset: 0; stroke: #b2b2b2; stroke-width: 0.5"/>
     </g>
     <g id="line2d_76">
      <g>
       <use xlink:href="#m4b82922c99" x="48.579375" y="578.455151" style="stroke: #000000; stroke-width: 0.8"/>
      </g>
     </g>
     <g id="text_28">
      <!-- 2 -->
      <g transform="translate(38.716875 582.25437)scale(0.1 -0.1)">
       <use xlink:href="#DejaVuSans-32"/>
      </g>
     </g>
    </g>
    <g id="ytick_17">
     <g id="line2d_77">
      <path d="M 48.579375 544.608135 
L 865.19952 544.608135 
" clip-path="url(#p02e9d4aebf)" style="fill: none; stroke-dasharray: 1.85,0.8; stroke-dashoffset: 0; stroke: #b2b2b2; stroke-width: 0.5"/>
     </g>
     <g id="line2d_78">
      <g>
       <use xlink:href="#m4b82922c99" x="48.579375" y="544.608135" style="stroke: #000000; stroke-width: 0.8"/>
      </g>
     </g>
     <g id="text_29">
      <!-- 4 -->
      <g transform="translate(38.716875 548.407354)scale(0.1 -0.1)">
       <use xlink:href="#DejaVuSans-34"/>
      </g>
     </g>
    </g>
    <g id="ytick_18">
     <g id="line2d_79">
      <path d="M 48.579375 510.76112 
L 865.19952 510.76112 
" clip-path="url(#p02e9d4aebf)" style="fill: none; stroke-dasharray: 1.85,0.8; stroke-dashoffset: 0; stroke: #b2b2b2; stroke-width: 0.5"/>
     </g>
     <g id="line2d_80">
      <g>
       <use xlink:href="#m4b82922c99" x="48.579375" y="510.76112" style="stroke: #000000; stroke-width: 0.8"/>
      </g>
     </g>
     <g id="text_30">
      <!-- 6 -->
      <g transform="translate(38.716875 514.560339)scale(0.1 -0.1)">
       <use xlink:href="#DejaVuSans-36"/>
      </g>
     </g>
    </g>
    <g id="ytick_19">
     <g id="line2d_81">
      <path d="M 48.579375 476.914104 
L 865.19952 476.914104 
" clip-path="url(#p02e9d4aebf)" style="fill: none; stroke-dasharray: 1.85,0.8; stroke-dashoffset: 0; stroke: #b2b2b2; stroke-width: 0.5"/>
     </g>
     <g id="line2d_82">
      <g>
       <use xlink:href="#m4b82922c99" x="48.579375" y="476.914104" style="stroke: #000000; stroke-width: 0.8"/>
      </g>
     </g>
     <g id="text_31">
      <!-- 8 -->
      <g transform="translate(38.716875 480.713323)scale(0.1 -0.1)">
       <use xlink:href="#DejaVuSans-38"/>
      </g>
     </g>
    </g>
    <g id="ytick_20">
     <g id="line2d_83">
      <path d="M 48.579375 443.067089 
L 865.19952 443.067089 
" clip-path="url(#p02e9d4aebf)" style="fill: none; stroke-dasharray: 1.85,0.8; stroke-dashoffset: 0; stroke: #b2b2b2; stroke-width: 0.5"/>
     </g>
     <g id="line2d_84">
      <g>
       <use xlink:href="#m4b82922c99" x="48.579375" y="443.067089" style="stroke: #000000; stroke-width: 0.8"/>
      </g>
     </g>
     <g id="text_32">
      <!-- 10 -->
      <g transform="translate(32.354375 446.866308)scale(0.1 -0.1)">
       <use xlink:href="#DejaVuSans-31"/>
       <use xlink:href="#DejaVuSans-30" x="63.623047"/>
      </g>
     </g>
    </g>
    <g id="text_33">
     <!-- z -->
     <g transform="translate(25.85875 531.826468)rotate(-90)scale(0.12 -0.12)">
      <use xlink:href="#DejaVuSans-7a"/>
     </g>
    </g>
   </g>
   <g id="line2d_85">
    <path d="M 85.698473 596.455835 
L 89.869158 451.407957 
L 94.039843 488.423115 
L 98.210528 510.988151 
L 102.381213 605.70121 
L 106.551898 605.70223 
L 110.722583 609.84472 
L 114.893268 465.714779 
L 119.063953 510.572421 
L 123.234639 492.471449 
L 127.405324 611.431262 
L 131.576009 448.159398 
L 135.746694 471.423672 
L 139.917379 603.31836 
L 144.088064 604.609376 
L 148.258749 604.542547 
L 152.429434 599.430051 
L 156.600119 523.494971 
L 160.770805 539.201918 
L 164.94149 599.98062 
L 169.112175 508.755194 
L 173.28286 606.400353 
L 177.453545 599.941886 
L 181.62423 596.801848 
L 185.794915 535.119127 
L 189.9656 479.422852 
L 194.136285 603.854214 
L 198.306971 525.275661 
L 202.477656 512.044841 
L 206.648341 610.336907 
L 210.819026 509.484266 
L 214.989711 605.087501 
L 219.160396 609.549913 
L 223.331081 451.717449 
L 227.501766 448.883355 
L 231.672451 475.492979 
L 235.843137 599.414333 
L 240.013822 608.169779 
L 244.184507 496.505937 
L 248.355192 537.812925 
L 252.525877 607.138879 
L 256.696562 528.500864 
L 260.867247 610.84723 
L 265.037932 458.413258 
L 269.208617 601.353504 
L 273.379303 500.180156 
L 277.549988 599.114054 
L 281.720673 524.288415 
L 285.891358 519.77961 
L 290.062043 604.481202 
L 294.232728 448.214437 
L 298.403413 481.122503 
L 302.574098 453.30599 
L 306.744783 460.865991 
L 310.915469 511.116517 
L 315.086154 456.288709 
L 319.256839 608.558157 
L 323.427524 604.010373 
L 327.598209 610.388655 
L 331.768894 598.53784 
L 335.939579 595.857709 
L 340.110264 600.821723 
L 344.280949 472.05071 
L 348.451635 597.208372 
L 352.62232 600.416173 
L 356.793005 520.458953 
L 360.96369 606.339836 
L 365.134375 476.542298 
L 369.30506 609.14802 
L 373.475745 445.286279 
L 377.64643 481.611263 
L 381.817115 603.89475 
L 385.987801 612.068532 
L 390.158486 474.297488 
L 394.329171 492.677109 
L 398.499856 488.928582 
L 402.670541 481.77617 
L 406.841226 609.169428 
L 411.011911 597.135923 
L 415.182596 607.399889 
L 419.353281 466.234791 
L 423.523967 506.81826 
L 427.694652 598.302278 
L 431.865337 609.613091 
L 436.036022 599.144887 
L 440.206707 598.54406 
L 444.377392 488.827208 
L 448.548077 504.405078 
L 452.718762 462.154649 
L 456.889447 532.386837 
L 461.060133 607.242281 
L 465.230818 491.59613 
L 469.401503 483.55065 
L 473.572188 517.314376 
L 477.742873 481.827476 
L 481.913558 528.73463 
L 486.084243 523.837436 
L 490.254928 539.947229 
L 494.425614 611.226714 
L 498.596299 607.737413 
L 502.766984 610.972436 
L 506.937669 504.599201 
L 511.108354 599.002152 
L 515.279039 526.234166 
L 519.449724 458.710084 
L 523.620409 601.754919 
L 531.96178 484.436411 
L 536.132465 602.621998 
L 540.30315 609.045241 
L 544.473835 600.043139 
L 548.64452 605.481092 
L 552.815205 454.964712 
L 556.98589 475.539851 
L 561.156575 505.108033 
L 565.32726 464.820466 
L 569.497946 476.29266 
L 573.668631 604.408617 
L 577.839316 461.249875 
L 582.010001 521.02654 
L 586.180686 475.654969 
L 590.351371 460.652086 
L 594.522056 598.847831 
L 598.692741 607.646005 
L 602.863426 602.65851 
L 607.034112 540.020547 
L 611.204797 473.865374 
L 615.375482 466.63636 
L 619.546167 612.00803 
L 623.716852 525.865807 
L 627.887537 541.661583 
L 632.058222 602.905058 
L 636.228907 607.23081 
L 640.399592 598.018084 
L 644.570278 452.72877 
L 648.740963 598.627848 
L 652.911648 524.504595 
L 657.082333 493.326698 
L 661.253018 596.917445 
L 665.423703 447.84255 
L 669.594388 449.422324 
L 673.765073 601.649567 
L 677.935758 528.150277 
L 682.106444 599.572375 
L 686.277129 600.250916 
L 690.447814 610.741525 
L 694.618499 509.142499 
L 698.789184 527.231243 
L 702.959869 610.124164 
L 707.130554 600.512977 
L 711.301239 458.591719 
L 715.471924 602.166598 
L 719.64261 606.171843 
L 723.813295 529.469591 
L 727.98398 445.495536 
L 732.154665 602.061106 
L 736.32535 498.553255 
L 740.496035 483.409412 
L 744.66672 602.248014 
L 748.837405 489.062416 
L 753.00809 596.741715 
L 757.178776 505.29384 
L 761.349461 505.086717 
L 765.520146 521.630296 
L 769.690831 608.482117 
L 773.861516 470.939684 
L 778.032201 598.730357 
L 782.202886 604.410798 
L 786.373571 610.57702 
L 790.544256 512.302353 
L 794.714942 497.634509 
L 798.885627 611.600356 
L 803.056312 525.638058 
L 807.226997 602.719409 
L 811.397682 503.116299 
L 815.568367 604.924937 
L 819.739052 495.371265 
L 823.909737 595.93987 
L 828.080422 453.774594 
L 828.080422 453.774594 
" clip-path="url(#p02e9d4aebf)" style="fill: none; stroke: #348abd; stroke-width: 2; stroke-linecap: square"/>
   </g>
   <g id="patch_13">
    <path d="M 48.579375 620.407645 
L 48.579375 436.947167 
" style="fill: none; stroke: #bcbcbc; stroke-width: 0.8; stroke-linejoin: miter; stroke-linecap: square"/>
   </g>
   <g id="patch_14">
    <path d="M 865.19952 620.407645 
L 865.19952 436.947167 
" style="fill: none; stroke: #bcbcbc; stroke-width: 0.8; stroke-linejoin: miter; stroke-linecap: square"/>
   </g>
   <g id="patch_15">
    <path d="M 48.579375 620.407645 
L 865.19952 620.407645 
" style="fill: none; stroke: #bcbcbc; stroke-width: 0.8; stroke-linejoin: miter; stroke-linecap: square"/>
   </g>
   <g id="patch_16">
    <path d="M 48.579375 436.947167 
L 865.19952 436.947167 
" style="fill: none; stroke: #bcbcbc; stroke-width: 0.8; stroke-linejoin: miter; stroke-linecap: square"/>
   </g>
   <g id="text_34">
    <!-- Raw Media Cost Data -->
    <g transform="translate(380.059822 430.947167)scale(0.144 -0.144)">
     <defs>
      <path id="DejaVuSans-52" d="M 2841 2188 
Q 3044 2119 3236 1894 
Q 3428 1669 3622 1275 
L 4263 0 
L 3584 0 
L 2988 1197 
Q 2756 1666 2539 1819 
Q 2322 1972 1947 1972 
L 1259 1972 
L 1259 0 
L 628 0 
L 628 4666 
L 2053 4666 
Q 2853 4666 3247 4331 
Q 3641 3997 3641 3322 
Q 3641 2881 3436 2590 
Q 3231 2300 2841 2188 
z
M 1259 4147 
L 1259 2491 
L 2053 2491 
Q 2509 2491 2742 2702 
Q 2975 2913 2975 3322 
Q 2975 3731 2742 3939 
Q 2509 4147 2053 4147 
L 1259 4147 
z
" transform="scale(0.015625)"/>
      <path id="DejaVuSans-77" d="M 269 3500 
L 844 3500 
L 1563 769 
L 2278 3500 
L 2956 3500 
L 3675 769 
L 4391 3500 
L 4966 3500 
L 4050 0 
L 3372 0 
L 2619 2869 
L 1863 0 
L 1184 0 
L 269 3500 
z
" transform="scale(0.015625)"/>
      <path id="DejaVuSans-44" d="M 1259 4147 
L 1259 519 
L 2022 519 
Q 2988 519 3436 956 
Q 3884 1394 3884 2338 
Q 3884 3275 3436 3711 
Q 2988 4147 2022 4147 
L 1259 4147 
z
M 628 4666 
L 1925 4666 
Q 3281 4666 3915 4102 
Q 4550 3538 4550 2338 
Q 4550 1131 3912 565 
Q 3275 0 1925 0 
L 628 0 
L 628 4666 
z
" transform="scale(0.015625)"/>
     </defs>
     <use xlink:href="#DejaVuSans-52"/>
     <use xlink:href="#DejaVuSans-61" x="67.232422"/>
     <use xlink:href="#DejaVuSans-77" x="128.511719"/>
     <use xlink:href="#DejaVuSans-20" x="210.298828"/>
     <use xlink:href="#DejaVuSans-4d" x="242.085938"/>
     <use xlink:href="#DejaVuSans-65" x="328.365234"/>
     <use xlink:href="#DejaVuSans-64" x="389.888672"/>
     <use xlink:href="#DejaVuSans-69" x="453.365234"/>
     <use xlink:href="#DejaVuSans-61" x="481.148438"/>
     <use xlink:href="#DejaVuSans-20" x="542.427734"/>
     <use xlink:href="#DejaVuSans-43" x="574.214844"/>
     <use xlink:href="#DejaVuSans-6f" x="644.039062"/>
     <use xlink:href="#DejaVuSans-73" x="705.220703"/>
     <use xlink:href="#DejaVuSans-74" x="757.320312"/>
     <use xlink:href="#DejaVuSans-20" x="796.529297"/>
     <use xlink:href="#DejaVuSans-44" x="828.316406"/>
     <use xlink:href="#DejaVuSans-61" x="905.318359"/>
     <use xlink:href="#DejaVuSans-74" x="966.597656"/>
     <use xlink:href="#DejaVuSans-61" x="1005.806641"/>
    </g>
   </g>
  </g>
 </g>
 <defs>
  <clipPath id="p7c18d023c5">
   <rect x="48.579375" y="24.14175" width="816.620145" height="183.460478"/>
  </clipPath>
  <clipPath id="p335d1deea2">
   <rect x="48.579375" y="230.544458" width="816.620145" height="183.460478"/>
  </clipPath>
  <clipPath id="p02e9d4aebf">
   <rect x="48.579375" y="436.947167" width="816.620145" height="183.460478"/>
  </clipPath>
 </defs>
</svg>
