<?xml version="1.0" encoding="UTF-8" standalone="no"?>
<!DOCTYPE svg PUBLIC "-//W3C//DTD SVG 1.1//EN"
 "http://www.w3.org/Graphics/SVG/1.1/DTD/svg11.dtd">
<!-- Generated by graphviz version 3.0.0 (20220226.1711)
 -->
<!-- Pages: 1 -->
<svg width="787pt" height="658pt"
 viewBox="0.00 0.00 786.72 657.77" xmlns="http://www.w3.org/2000/svg" xmlns:xlink="http://www.w3.org/1999/xlink">
<g id="graph0" class="graph" transform="scale(1 1) rotate(0) translate(4 653.77)">
<polygon fill="white" stroke="transparent" points="-4,4 -4,-653.77 782.72,-653.77 782.72,4 -4,4"/>
<g id="clust1" class="cluster">
<title>clusterfourier_mode (14)</title>
<path fill="none" stroke="black" d="M665.72,-321.91C665.72,-321.91 758.72,-321.91 758.72,-321.91 764.72,-321.91 770.72,-327.91 770.72,-333.91 770.72,-333.91 770.72,-423.86 770.72,-423.86 770.72,-429.86 764.72,-435.86 758.72,-435.86 758.72,-435.86 665.72,-435.86 665.72,-435.86 659.72,-435.86 653.72,-429.86 653.72,-423.86 653.72,-423.86 653.72,-333.91 653.72,-333.91 653.72,-327.91 659.72,-321.91 665.72,-321.91"/>
<text text-anchor="middle" x="712.22" y="-329.71" font-family="Times,serif" font-size="14.00">fourier_mode (14)</text>
</g>
<g id="clust2" class="cluster">
<title>clusterdate (179)</title>
<path fill="none" stroke="black" d="M103.72,-8C103.72,-8 405.72,-8 405.72,-8 411.72,-8 417.72,-14 417.72,-20 417.72,-20 417.72,-523.84 417.72,-523.84 417.72,-529.84 411.72,-535.84 405.72,-535.84 405.72,-535.84 103.72,-535.84 103.72,-535.84 97.72,-535.84 91.72,-529.84 91.72,-523.84 91.72,-523.84 91.72,-20 91.72,-20 91.72,-14 97.72,-8 103.72,-8"/>
<text text-anchor="middle" x="381.72" y="-15.8" font-family="Times,serif" font-size="14.00">date (179)</text>
</g>
<!-- b_trend -->
<g id="node1" class="node">
<title>b_trend</title>
<ellipse fill="none" stroke="black" cx="41.72" cy="-390.38" rx="41.94" ry="37.45"/>
<text text-anchor="middle" x="41.72" y="-401.68" font-family="Times,serif" font-size="14.00">b_trend</text>
<text text-anchor="middle" x="41.72" y="-386.68" font-family="Times,serif" font-size="14.00">~</text>
<text text-anchor="middle" x="41.72" y="-371.68" font-family="Times,serif" font-size="14.00">Normal</text>
</g>
<!-- trend -->
<g id="node10" class="node">
<title>trend</title>
<polygon fill="none" stroke="black" points="191.22,-313.91 100.22,-313.91 100.22,-260.91 191.22,-260.91 191.22,-313.91"/>
<text text-anchor="middle" x="145.72" y="-298.71" font-family="Times,serif" font-size="14.00">trend</text>
<text text-anchor="middle" x="145.72" y="-283.71" font-family="Times,serif" font-size="14.00">~</text>
<text text-anchor="middle" x="145.72" y="-268.71" font-family="Times,serif" font-size="14.00">Deterministic</text>
</g>
<!-- b_trend&#45;&gt;trend -->
<g id="edge1" class="edge">
<title>b_trend&#45;&gt;trend</title>
<path fill="none" stroke="black" d="M59.9,-356.53C67.48,-344.7 77.02,-331.84 87.72,-321.91 89.01,-320.71 90.35,-319.54 91.73,-318.39"/>
<polygon fill="black" stroke="black" points="94.14,-320.95 99.99,-312.12 89.91,-315.38 94.14,-320.95"/>
</g>
<!-- lam -->
<g id="node2" class="node">
<title>lam</title>
<ellipse fill="none" stroke="black" cx="468.72" cy="-501.34" rx="43.27" ry="37.45"/>
<text text-anchor="middle" x="468.72" y="-512.64" font-family="Times,serif" font-size="14.00">lam</text>
<text text-anchor="middle" x="468.72" y="-497.64" font-family="Times,serif" font-size="14.00">~</text>
<text text-anchor="middle" x="468.72" y="-482.64" font-family="Times,serif" font-size="14.00">Gamma</text>
</g>
<!-- z_adstock_saturated -->
<g id="node15" class="node">
<title>z_adstock_saturated</title>
<polygon fill="none" stroke="black" points="362.72,-416.88 236.72,-416.88 236.72,-363.88 362.72,-363.88 362.72,-416.88"/>
<text text-anchor="middle" x="299.72" y="-401.68" font-family="Times,serif" font-size="14.00">z_adstock_saturated</text>
<text text-anchor="middle" x="299.72" y="-386.68" font-family="Times,serif" font-size="14.00">~</text>
<text text-anchor="middle" x="299.72" y="-371.68" font-family="Times,serif" font-size="14.00">Deterministic</text>
</g>
<!-- lam&#45;&gt;z_adstock_saturated -->
<g id="edge5" class="edge">
<title>lam&#45;&gt;z_adstock_saturated</title>
<path fill="none" stroke="black" d="M437.52,-475.26C432.32,-471.34 426.93,-467.41 421.72,-463.86 400.34,-449.3 375.98,-434.49 354.67,-422.08"/>
<polygon fill="black" stroke="black" points="356.15,-418.9 345.74,-416.92 352.65,-424.96 356.15,-418.9"/>
</g>
<!-- alpha -->
<g id="node3" class="node">
<title>alpha</title>
<ellipse fill="none" stroke="black" cx="299.72" cy="-612.29" rx="32.55" ry="37.45"/>
<text text-anchor="middle" x="299.72" y="-623.59" font-family="Times,serif" font-size="14.00">alpha</text>
<text text-anchor="middle" x="299.72" y="-608.59" font-family="Times,serif" font-size="14.00">~</text>
<text text-anchor="middle" x="299.72" y="-593.59" font-family="Times,serif" font-size="14.00">Beta</text>
</g>
<!-- z_adstock -->
<g id="node12" class="node">
<title>z_adstock</title>
<polygon fill="none" stroke="black" points="345.22,-527.84 254.22,-527.84 254.22,-474.84 345.22,-474.84 345.22,-527.84"/>
<text text-anchor="middle" x="299.72" y="-512.64" font-family="Times,serif" font-size="14.00">z_adstock</text>
<text text-anchor="middle" x="299.72" y="-497.64" font-family="Times,serif" font-size="14.00">~</text>
<text text-anchor="middle" x="299.72" y="-482.64" font-family="Times,serif" font-size="14.00">Deterministic</text>
</g>
<!-- alpha&#45;&gt;z_adstock -->
<g id="edge4" class="edge">
<title>alpha&#45;&gt;z_adstock</title>
<path fill="none" stroke="black" d="M299.72,-574.71C299.72,-562.97 299.72,-549.98 299.72,-538.29"/>
<polygon fill="black" stroke="black" points="303.22,-537.99 299.72,-527.99 296.22,-537.99 303.22,-537.99"/>
</g>
<!-- sigma -->
<g id="node4" class="node">
<title>sigma</title>
<ellipse fill="none" stroke="black" cx="484.72" cy="-187.43" rx="58.88" ry="37.45"/>
<text text-anchor="middle" x="484.72" y="-198.73" font-family="Times,serif" font-size="14.00">sigma</text>
<text text-anchor="middle" x="484.72" y="-183.73" font-family="Times,serif" font-size="14.00">~</text>
<text text-anchor="middle" x="484.72" y="-168.73" font-family="Times,serif" font-size="14.00">HalfNormal</text>
</g>
<!-- likelihood -->
<g id="node13" class="node">
<title>likelihood</title>
<ellipse fill="lightgrey" stroke="black" cx="359.72" cy="-76.48" rx="50.41" ry="37.45"/>
<text text-anchor="middle" x="359.72" y="-87.78" font-family="Times,serif" font-size="14.00">likelihood</text>
<text text-anchor="middle" x="359.72" y="-72.78" font-family="Times,serif" font-size="14.00">~</text>
<text text-anchor="middle" x="359.72" y="-57.78" font-family="Times,serif" font-size="14.00">StudentT</text>
</g>
<!-- sigma&#45;&gt;likelihood -->
<g id="edge12" class="edge">
<title>sigma&#45;&gt;likelihood</title>
<path fill="none" stroke="black" d="M450.56,-156.66C434.91,-143.01 416.24,-126.75 399.92,-112.51"/>
<polygon fill="black" stroke="black" points="401.95,-109.64 392.11,-105.71 397.35,-114.92 401.95,-109.64"/>
</g>
<!-- a -->
<g id="node5" class="node">
<title>a</title>
<ellipse fill="none" stroke="black" cx="467.72" cy="-390.38" rx="41.94" ry="37.45"/>
<text text-anchor="middle" x="467.72" y="-401.68" font-family="Times,serif" font-size="14.00">a</text>
<text text-anchor="middle" x="467.72" y="-386.68" font-family="Times,serif" font-size="14.00">~</text>
<text text-anchor="middle" x="467.72" y="-371.68" font-family="Times,serif" font-size="14.00">Normal</text>
</g>
<!-- a&#45;&gt;trend -->
<g id="edge2" class="edge">
<title>a&#45;&gt;trend</title>
<path fill="none" stroke="black" d="M452.81,-355.22C445.41,-342.47 435.13,-329.31 421.72,-321.91 401.85,-310.94 250.47,-318.29 201.38,-312.84"/>
<polygon fill="black" stroke="black" points="201.89,-309.38 191.45,-311.22 200.75,-316.29 201.89,-309.38"/>
</g>
<!-- nu -->
<g id="node6" class="node">
<title>nu</title>
<ellipse fill="none" stroke="black" cx="604.72" cy="-187.43" rx="43.27" ry="37.45"/>
<text text-anchor="middle" x="604.72" y="-198.73" font-family="Times,serif" font-size="14.00">nu</text>
<text text-anchor="middle" x="604.72" y="-183.73" font-family="Times,serif" font-size="14.00">~</text>
<text text-anchor="middle" x="604.72" y="-168.73" font-family="Times,serif" font-size="14.00">Gamma</text>
</g>
<!-- nu&#45;&gt;likelihood -->
<g id="edge13" class="edge">
<title>nu&#45;&gt;likelihood</title>
<path fill="none" stroke="black" d="M572.79,-162.16C566.33,-157.79 559.45,-153.5 552.72,-149.95 508.51,-126.63 455.09,-107.18 415.67,-94.32"/>
<polygon fill="black" stroke="black" points="416.56,-90.93 405.97,-91.2 414.41,-97.6 416.56,-90.93"/>
</g>
<!-- b_z -->
<g id="node7" class="node">
<title>b_z</title>
<ellipse fill="none" stroke="black" cx="585.72" cy="-390.38" rx="58.88" ry="37.45"/>
<text text-anchor="middle" x="585.72" y="-401.68" font-family="Times,serif" font-size="14.00">b_z</text>
<text text-anchor="middle" x="585.72" y="-386.68" font-family="Times,serif" font-size="14.00">~</text>
<text text-anchor="middle" x="585.72" y="-371.68" font-family="Times,serif" font-size="14.00">HalfNormal</text>
</g>
<!-- z_effect -->
<g id="node9" class="node">
<title>z_effect</title>
<polygon fill="none" stroke="black" points="300.22,-313.91 209.22,-313.91 209.22,-260.91 300.22,-260.91 300.22,-313.91"/>
<text text-anchor="middle" x="254.72" y="-298.71" font-family="Times,serif" font-size="14.00">z_effect</text>
<text text-anchor="middle" x="254.72" y="-283.71" font-family="Times,serif" font-size="14.00">~</text>
<text text-anchor="middle" x="254.72" y="-268.71" font-family="Times,serif" font-size="14.00">Deterministic</text>
</g>
<!-- b_z&#45;&gt;z_effect -->
<g id="edge7" class="edge">
<title>b_z&#45;&gt;z_effect</title>
<path fill="none" stroke="black" d="M561.73,-356.05C550.32,-342.94 535.5,-329.27 518.72,-321.91 478.57,-304.28 368.39,-322.47 310.32,-313.19"/>
<polygon fill="black" stroke="black" points="310.95,-309.75 300.45,-311.21 309.57,-316.61 310.95,-309.75"/>
</g>
<!-- b_fourier -->
<g id="node8" class="node">
<title>b_fourier</title>
<ellipse fill="none" stroke="black" cx="709.72" cy="-390.38" rx="47.25" ry="37.45"/>
<text text-anchor="middle" x="709.72" y="-401.68" font-family="Times,serif" font-size="14.00">b_fourier</text>
<text text-anchor="middle" x="709.72" y="-386.68" font-family="Times,serif" font-size="14.00">~</text>
<text text-anchor="middle" x="709.72" y="-371.68" font-family="Times,serif" font-size="14.00">Laplace</text>
</g>
<!-- seasonality -->
<g id="node11" class="node">
<title>seasonality</title>
<polygon fill="none" stroke="black" points="409.22,-313.91 318.22,-313.91 318.22,-260.91 409.22,-260.91 409.22,-313.91"/>
<text text-anchor="middle" x="363.72" y="-298.71" font-family="Times,serif" font-size="14.00">seasonality</text>
<text text-anchor="middle" x="363.72" y="-283.71" font-family="Times,serif" font-size="14.00">~</text>
<text text-anchor="middle" x="363.72" y="-268.71" font-family="Times,serif" font-size="14.00">Deterministic</text>
</g>
<!-- b_fourier&#45;&gt;seasonality -->
<g id="edge3" class="edge">
<title>b_fourier&#45;&gt;seasonality</title>
<path fill="none" stroke="black" d="M689.96,-356.01C680.63,-343.22 668.31,-329.81 653.72,-321.91 614.54,-300.68 492.35,-292.81 419.68,-289.96"/>
<polygon fill="black" stroke="black" points="419.45,-286.45 409.33,-289.57 419.19,-293.44 419.45,-286.45"/>
</g>
<!-- mu -->
<g id="node14" class="node">
<title>mu</title>
<polygon fill="none" stroke="black" points="352.22,-213.93 261.22,-213.93 261.22,-160.93 352.22,-160.93 352.22,-213.93"/>
<text text-anchor="middle" x="306.72" y="-198.73" font-family="Times,serif" font-size="14.00">mu</text>
<text text-anchor="middle" x="306.72" y="-183.73" font-family="Times,serif" font-size="14.00">~</text>
<text text-anchor="middle" x="306.72" y="-168.73" font-family="Times,serif" font-size="14.00">Deterministic</text>
</g>
<!-- z_effect&#45;&gt;mu -->
<g id="edge11" class="edge">
<title>z_effect&#45;&gt;mu</title>
<path fill="none" stroke="black" d="M268.38,-260.66C274.47,-249.19 281.74,-235.5 288.3,-223.14"/>
<polygon fill="black" stroke="black" points="291.55,-224.47 293.15,-214 285.37,-221.19 291.55,-224.47"/>
</g>
<!-- trend&#45;&gt;mu -->
<g id="edge9" class="edge">
<title>trend&#45;&gt;mu</title>
<path fill="none" stroke="black" d="M188.02,-260.66C208.82,-248.01 234.05,-232.65 255.89,-219.36"/>
<polygon fill="black" stroke="black" points="257.98,-222.19 264.7,-214 254.34,-216.21 257.98,-222.19"/>
</g>
<!-- seasonality&#45;&gt;mu -->
<g id="edge10" class="edge">
<title>seasonality&#45;&gt;mu</title>
<path fill="none" stroke="black" d="M348.74,-260.66C342,-249.08 333.95,-235.23 326.7,-222.77"/>
<polygon fill="black" stroke="black" points="329.65,-220.88 321.6,-214 323.6,-224.4 329.65,-220.88"/>
</g>
<!-- z_adstock&#45;&gt;z_adstock_saturated -->
<g id="edge6" class="edge">
<title>z_adstock&#45;&gt;z_adstock_saturated</title>
<path fill="none" stroke="black" d="M299.72,-474.79C299.72,-460.69 299.72,-442.94 299.72,-427.44"/>
<polygon fill="black" stroke="black" points="303.22,-427.15 299.72,-417.15 296.22,-427.15 303.22,-427.15"/>
</g>
<!-- mu&#45;&gt;likelihood -->
<g id="edge14" class="edge">
<title>mu&#45;&gt;likelihood</title>
<path fill="none" stroke="black" d="M319.15,-160.89C324.91,-149.03 331.93,-134.6 338.5,-121.09"/>
<polygon fill="black" stroke="black" points="341.73,-122.46 342.96,-111.94 335.43,-119.4 341.73,-122.46"/>
</g>
<!-- z_adstock_saturated&#45;&gt;z_effect -->
<g id="edge8" class="edge">
<title>z_adstock_saturated&#45;&gt;z_effect</title>
<path fill="none" stroke="black" d="M288.25,-363.64C282.8,-351.42 276.21,-336.62 270.31,-323.39"/>
<polygon fill="black" stroke="black" points="273.44,-321.81 266.17,-314.1 267.04,-324.66 273.44,-321.81"/>
</g>
</g>
</svg>
