<?xml version="1.0" encoding="UTF-8" standalone="no"?>
<!DOCTYPE svg PUBLIC "-//W3C//DTD SVG 1.1//EN"
 "http://www.w3.org/Graphics/SVG/1.1/DTD/svg11.dtd">
<!-- Generated by graphviz version 2.50.0 (20211204.2007)
 -->
<!-- Pages: 1 -->
<svg width="816pt" height="569pt"
 viewBox="0.00 0.00 815.69 568.77" xmlns="http://www.w3.org/2000/svg" xmlns:xlink="http://www.w3.org/1999/xlink">
<g id="graph0" class="graph" transform="scale(1 1) rotate(0) translate(4 564.77)">
<polygon fill="white" stroke="transparent" points="-4,4 -4,-564.77 811.69,-564.77 811.69,4 -4,4"/>
<g id="clust1" class="cluster">
<title>cluster20</title>
<path fill="none" stroke="black" d="M701.69,-232.91C701.69,-232.91 787.69,-232.91 787.69,-232.91 793.69,-232.91 799.69,-238.91 799.69,-244.91 799.69,-244.91 799.69,-334.86 799.69,-334.86 799.69,-340.86 793.69,-346.86 787.69,-346.86 787.69,-346.86 701.69,-346.86 701.69,-346.86 695.69,-346.86 689.69,-340.86 689.69,-334.86 689.69,-334.86 689.69,-244.91 689.69,-244.91 689.69,-238.91 695.69,-232.91 701.69,-232.91"/>
<text text-anchor="middle" x="784.69" y="-240.71" font-family="Times,serif" font-size="14.00">20</text>
</g>
<g id="clust2" class="cluster">
<title>cluster179</title>
<path fill="none" stroke="black" d="M137.69,-8C137.69,-8 473.69,-8 473.69,-8 479.69,-8 485.69,-14 485.69,-20 485.69,-20 485.69,-434.84 485.69,-434.84 485.69,-440.84 479.69,-446.84 473.69,-446.84 473.69,-446.84 137.69,-446.84 137.69,-446.84 131.69,-446.84 125.69,-440.84 125.69,-434.84 125.69,-434.84 125.69,-20 125.69,-20 125.69,-14 131.69,-8 137.69,-8"/>
<text text-anchor="middle" x="467.19" y="-15.8" font-family="Times,serif" font-size="14.00">179</text>
</g>
<!-- sigma -->
<g id="node1" class="node">
<title>sigma</title>
<ellipse fill="none" stroke="black" cx="58.69" cy="-187.43" rx="58.88" ry="37.45"/>
<text text-anchor="middle" x="58.69" y="-198.73" font-family="Times,serif" font-size="14.00">sigma</text>
<text text-anchor="middle" x="58.69" y="-183.73" font-family="Times,serif" font-size="14.00">~</text>
<text text-anchor="middle" x="58.69" y="-168.73" font-family="Times,serif" font-size="14.00">HalfNormal</text>
</g>
<!-- likelihood -->
<g id="node12" class="node">
<title>likelihood</title>
<ellipse fill="lightgrey" stroke="black" cx="267.69" cy="-76.48" rx="50.41" ry="37.45"/>
<text text-anchor="middle" x="267.69" y="-87.78" font-family="Times,serif" font-size="14.00">likelihood</text>
<text text-anchor="middle" x="267.69" y="-72.78" font-family="Times,serif" font-size="14.00">~</text>
<text text-anchor="middle" x="267.69" y="-57.78" font-family="Times,serif" font-size="14.00">Normal</text>
</g>
<!-- sigma&#45;&gt;likelihood -->
<g id="edge12" class="edge">
<title>sigma&#45;&gt;likelihood</title>
<path fill="none" stroke="black" d="M101.18,-161.33C108,-157.45 115.01,-153.54 121.69,-149.95 152.82,-133.23 188.33,-115.58 216.53,-101.88"/>
<polygon fill="black" stroke="black" points="218.32,-104.9 225.79,-97.39 215.27,-98.6 218.32,-104.9"/>
</g>
<!-- alpha -->
<g id="node2" class="node">
<title>alpha</title>
<ellipse fill="none" stroke="black" cx="196.69" cy="-523.29" rx="41.94" ry="37.45"/>
<text text-anchor="middle" x="196.69" y="-534.59" font-family="Times,serif" font-size="14.00">alpha</text>
<text text-anchor="middle" x="196.69" y="-519.59" font-family="Times,serif" font-size="14.00">~</text>
<text text-anchor="middle" x="196.69" y="-504.59" font-family="Times,serif" font-size="14.00">Normal</text>
</g>
<!-- z_adstock -->
<g id="node10" class="node">
<title>z_adstock</title>
<polygon fill="none" stroke="black" points="242.19,-438.84 151.19,-438.84 151.19,-385.84 242.19,-385.84 242.19,-438.84"/>
<text text-anchor="middle" x="196.69" y="-423.64" font-family="Times,serif" font-size="14.00">z_adstock</text>
<text text-anchor="middle" x="196.69" y="-408.64" font-family="Times,serif" font-size="14.00">~</text>
<text text-anchor="middle" x="196.69" y="-393.64" font-family="Times,serif" font-size="14.00">Deterministic</text>
</g>
<!-- alpha&#45;&gt;z_adstock -->
<g id="edge5" class="edge">
<title>alpha&#45;&gt;z_adstock</title>
<path fill="none" stroke="black" d="M196.69,-485.71C196.69,-473.97 196.69,-460.98 196.69,-449.29"/>
<polygon fill="black" stroke="black" points="200.19,-448.99 196.69,-438.99 193.19,-448.99 200.19,-448.99"/>
</g>
<!-- lam -->
<g id="node3" class="node">
<title>lam</title>
<ellipse fill="none" stroke="black" cx="552.69" cy="-412.34" rx="58.88" ry="37.45"/>
<text text-anchor="middle" x="552.69" y="-423.64" font-family="Times,serif" font-size="14.00">lam</text>
<text text-anchor="middle" x="552.69" y="-408.64" font-family="Times,serif" font-size="14.00">~</text>
<text text-anchor="middle" x="552.69" y="-393.64" font-family="Times,serif" font-size="14.00">HalfNormal</text>
</g>
<!-- z_adstock_saturated -->
<g id="node9" class="node">
<title>z_adstock_saturated</title>
<polygon fill="none" stroke="black" points="259.69,-327.88 133.69,-327.88 133.69,-274.88 259.69,-274.88 259.69,-327.88"/>
<text text-anchor="middle" x="196.69" y="-312.68" font-family="Times,serif" font-size="14.00">z_adstock_saturated</text>
<text text-anchor="middle" x="196.69" y="-297.68" font-family="Times,serif" font-size="14.00">~</text>
<text text-anchor="middle" x="196.69" y="-282.68" font-family="Times,serif" font-size="14.00">Deterministic</text>
</g>
<!-- lam&#45;&gt;z_adstock_saturated -->
<g id="edge6" class="edge">
<title>lam&#45;&gt;z_adstock_saturated</title>
<path fill="none" stroke="black" d="M512.47,-384.92C505.12,-381.02 497.35,-377.45 489.69,-374.86 395.88,-343.21 362.04,-379.85 268.69,-346.86 259.03,-343.45 249.29,-338.59 240.22,-333.33"/>
<polygon fill="black" stroke="black" points="241.78,-330.18 231.42,-327.98 238.14,-336.16 241.78,-330.18"/>
</g>
<!-- a -->
<g id="node4" class="node">
<title>a</title>
<ellipse fill="none" stroke="black" cx="536.69" cy="-301.38" rx="41.94" ry="37.45"/>
<text text-anchor="middle" x="536.69" y="-312.68" font-family="Times,serif" font-size="14.00">a</text>
<text text-anchor="middle" x="536.69" y="-297.68" font-family="Times,serif" font-size="14.00">~</text>
<text text-anchor="middle" x="536.69" y="-282.68" font-family="Times,serif" font-size="14.00">Normal</text>
</g>
<!-- trend -->
<g id="node8" class="node">
<title>trend</title>
<polygon fill="none" stroke="black" points="368.19,-213.93 277.19,-213.93 277.19,-160.93 368.19,-160.93 368.19,-213.93"/>
<text text-anchor="middle" x="322.69" y="-198.73" font-family="Times,serif" font-size="14.00">trend</text>
<text text-anchor="middle" x="322.69" y="-183.73" font-family="Times,serif" font-size="14.00">~</text>
<text text-anchor="middle" x="322.69" y="-168.73" font-family="Times,serif" font-size="14.00">Deterministic</text>
</g>
<!-- a&#45;&gt;trend -->
<g id="edge1" class="edge">
<title>a&#45;&gt;trend</title>
<path fill="none" stroke="black" d="M521.17,-266.44C513.55,-253.73 503.09,-240.53 489.69,-232.91 468,-220.58 401.31,-232.96 377.69,-224.91 373.12,-223.35 368.56,-221.31 364.14,-219"/>
<polygon fill="black" stroke="black" points="365.7,-215.86 355.28,-213.93 362.22,-221.94 365.7,-215.86"/>
</g>
<!-- sigma_slope -->
<g id="node5" class="node">
<title>sigma_slope</title>
<ellipse fill="none" stroke="black" cx="689.69" cy="-412.34" rx="60.21" ry="37.45"/>
<text text-anchor="middle" x="689.69" y="-423.64" font-family="Times,serif" font-size="14.00">sigma_slope</text>
<text text-anchor="middle" x="689.69" y="-408.64" font-family="Times,serif" font-size="14.00">~</text>
<text text-anchor="middle" x="689.69" y="-393.64" font-family="Times,serif" font-size="14.00">HalfNormal</text>
</g>
<!-- slopes -->
<g id="node14" class="node">
<title>slopes</title>
<ellipse fill="none" stroke="black" cx="377.69" cy="-301.38" rx="99.9" ry="37.45"/>
<text text-anchor="middle" x="377.69" y="-312.68" font-family="Times,serif" font-size="14.00">slopes</text>
<text text-anchor="middle" x="377.69" y="-297.68" font-family="Times,serif" font-size="14.00">~</text>
<text text-anchor="middle" x="377.69" y="-282.68" font-family="Times,serif" font-size="14.00">GaussianRandomWalk</text>
</g>
<!-- sigma_slope&#45;&gt;slopes -->
<g id="edge4" class="edge">
<title>sigma_slope&#45;&gt;slopes</title>
<path fill="none" stroke="black" d="M646.36,-386.07C638.03,-381.9 629.23,-377.93 620.69,-374.86 563.03,-354.11 544.27,-364.83 485.69,-346.86 473.99,-343.27 461.8,-338.9 450,-334.32"/>
<polygon fill="black" stroke="black" points="451.23,-331.04 440.65,-330.61 448.65,-337.55 451.23,-331.04"/>
</g>
<!-- b_trend -->
<g id="node6" class="node">
<title>b_trend</title>
<ellipse fill="none" stroke="black" cx="637.69" cy="-301.38" rx="41.94" ry="37.45"/>
<text text-anchor="middle" x="637.69" y="-312.68" font-family="Times,serif" font-size="14.00">b_trend</text>
<text text-anchor="middle" x="637.69" y="-297.68" font-family="Times,serif" font-size="14.00">~</text>
<text text-anchor="middle" x="637.69" y="-282.68" font-family="Times,serif" font-size="14.00">Normal</text>
</g>
<!-- b_trend&#45;&gt;trend -->
<g id="edge2" class="edge">
<title>b_trend&#45;&gt;trend</title>
<path fill="none" stroke="black" d="M621.29,-266.88C613.1,-253.9 601.87,-240.39 587.69,-232.91 567.04,-222.01 399.91,-232.07 377.69,-224.91 373.03,-223.4 368.39,-221.39 363.9,-219.07"/>
<polygon fill="black" stroke="black" points="365.34,-215.86 354.92,-213.95 361.87,-221.94 365.34,-215.86"/>
</g>
<!-- b_fourier -->
<g id="node7" class="node">
<title>b_fourier</title>
<ellipse fill="none" stroke="black" cx="744.69" cy="-301.38" rx="47.25" ry="37.45"/>
<text text-anchor="middle" x="744.69" y="-312.68" font-family="Times,serif" font-size="14.00">b_fourier</text>
<text text-anchor="middle" x="744.69" y="-297.68" font-family="Times,serif" font-size="14.00">~</text>
<text text-anchor="middle" x="744.69" y="-282.68" font-family="Times,serif" font-size="14.00">Normal</text>
</g>
<!-- seasonality -->
<g id="node13" class="node">
<title>seasonality</title>
<polygon fill="none" stroke="black" points="477.19,-213.93 386.19,-213.93 386.19,-160.93 477.19,-160.93 477.19,-213.93"/>
<text text-anchor="middle" x="431.69" y="-198.73" font-family="Times,serif" font-size="14.00">seasonality</text>
<text text-anchor="middle" x="431.69" y="-183.73" font-family="Times,serif" font-size="14.00">~</text>
<text text-anchor="middle" x="431.69" y="-168.73" font-family="Times,serif" font-size="14.00">Deterministic</text>
</g>
<!-- b_fourier&#45;&gt;seasonality -->
<g id="edge3" class="edge">
<title>b_fourier&#45;&gt;seasonality</title>
<path fill="none" stroke="black" d="M724.45,-267.06C715.11,-254.44 702.92,-241.14 688.69,-232.91 655.3,-213.58 552.51,-200.28 487.49,-193.54"/>
<polygon fill="black" stroke="black" points="487.7,-190.05 477.4,-192.52 487,-197.01 487.7,-190.05"/>
</g>
<!-- trend&#45;&gt;likelihood -->
<g id="edge11" class="edge">
<title>trend&#45;&gt;likelihood</title>
<path fill="none" stroke="black" d="M309.79,-160.89C303.81,-149.03 296.52,-134.6 289.71,-121.09"/>
<polygon fill="black" stroke="black" points="292.72,-119.29 285.09,-111.94 286.47,-122.44 292.72,-119.29"/>
</g>
<!-- z_effect -->
<g id="node11" class="node">
<title>z_effect</title>
<polygon fill="none" stroke="black" points="259.19,-213.93 168.19,-213.93 168.19,-160.93 259.19,-160.93 259.19,-213.93"/>
<text text-anchor="middle" x="213.69" y="-198.73" font-family="Times,serif" font-size="14.00">z_effect</text>
<text text-anchor="middle" x="213.69" y="-183.73" font-family="Times,serif" font-size="14.00">~</text>
<text text-anchor="middle" x="213.69" y="-168.73" font-family="Times,serif" font-size="14.00">Deterministic</text>
</g>
<!-- z_adstock_saturated&#45;&gt;z_effect -->
<g id="edge9" class="edge">
<title>z_adstock_saturated&#45;&gt;z_effect</title>
<path fill="none" stroke="black" d="M200.59,-274.7C202.86,-259.77 205.75,-240.72 208.24,-224.32"/>
<polygon fill="black" stroke="black" points="211.77,-224.41 209.81,-213.99 204.85,-223.36 211.77,-224.41"/>
</g>
<!-- z_adstock&#45;&gt;z_adstock_saturated -->
<g id="edge7" class="edge">
<title>z_adstock&#45;&gt;z_adstock_saturated</title>
<path fill="none" stroke="black" d="M196.69,-385.79C196.69,-371.69 196.69,-353.94 196.69,-338.44"/>
<polygon fill="black" stroke="black" points="200.19,-338.15 196.69,-328.15 193.19,-338.15 200.19,-338.15"/>
</g>
<!-- z_effect&#45;&gt;likelihood -->
<g id="edge13" class="edge">
<title>z_effect&#45;&gt;likelihood</title>
<path fill="none" stroke="black" d="M226.35,-160.89C232.23,-149.03 239.38,-134.6 246.07,-121.09"/>
<polygon fill="black" stroke="black" points="249.31,-122.45 250.61,-111.94 243.03,-119.34 249.31,-122.45"/>
</g>
<!-- seasonality&#45;&gt;likelihood -->
<g id="edge10" class="edge">
<title>seasonality&#45;&gt;likelihood</title>
<path fill="none" stroke="black" d="M393.96,-160.86C388.51,-157.19 382.96,-153.47 377.69,-149.95 356.64,-135.91 333.24,-120.47 313.46,-107.46"/>
<polygon fill="black" stroke="black" points="315.21,-104.43 304.93,-101.86 311.37,-110.28 315.21,-104.43"/>
</g>
<!-- slopes&#45;&gt;z_effect -->
<g id="edge8" class="edge">
<title>slopes&#45;&gt;z_effect</title>
<path fill="none" stroke="black" d="M330.69,-268.3C308.28,-253 281.58,-234.78 259.35,-219.6"/>
<polygon fill="black" stroke="black" points="261.3,-216.69 251.06,-213.94 257.35,-222.47 261.3,-216.69"/>
</g>
</g>
</svg>
