<?xml version="1.0" encoding="UTF-8" standalone="no"?>
<!DOCTYPE svg PUBLIC "-//W3C//DTD SVG 1.1//EN"
 "http://www.w3.org/Graphics/SVG/1.1/DTD/svg11.dtd">
<!-- Generated by graphviz version 2.50.0 (20211204.2007)
 -->
<!-- Pages: 1 -->
<svg width="747pt" height="569pt"
 viewBox="0.00 0.00 746.72 568.77" xmlns="http://www.w3.org/2000/svg" xmlns:xlink="http://www.w3.org/1999/xlink">
<g id="graph0" class="graph" transform="scale(1 1) rotate(0) translate(4 564.77)">
<polygon fill="white" stroke="transparent" points="-4,4 -4,-564.77 742.72,-564.77 742.72,4 -4,4"/>
<g id="clust1" class="cluster">
<title>cluster20</title>
<path fill="none" stroke="black" d="M632.72,-232.91C632.72,-232.91 718.72,-232.91 718.72,-232.91 724.72,-232.91 730.72,-238.91 730.72,-244.91 730.72,-244.91 730.72,-334.86 730.72,-334.86 730.72,-340.86 724.72,-346.86 718.72,-346.86 718.72,-346.86 632.72,-346.86 632.72,-346.86 626.72,-346.86 620.72,-340.86 620.72,-334.86 620.72,-334.86 620.72,-244.91 620.72,-244.91 620.72,-238.91 626.72,-232.91 632.72,-232.91"/>
<text text-anchor="middle" x="715.72" y="-240.71" font-family="Times,serif" font-size="14.00">20</text>
</g>
<g id="clust2" class="cluster">
<title>cluster179</title>
<path fill="none" stroke="black" d="M103.72,-8C103.72,-8 405.72,-8 405.72,-8 411.72,-8 417.72,-14 417.72,-20 417.72,-20 417.72,-434.84 417.72,-434.84 417.72,-440.84 411.72,-446.84 405.72,-446.84 405.72,-446.84 103.72,-446.84 103.72,-446.84 97.72,-446.84 91.72,-440.84 91.72,-434.84 91.72,-434.84 91.72,-20 91.72,-20 91.72,-14 97.72,-8 103.72,-8"/>
<text text-anchor="middle" x="399.22" y="-15.8" font-family="Times,serif" font-size="14.00">179</text>
</g>
<!-- b_z -->
<g id="node1" class="node">
<title>b_z</title>
<ellipse fill="none" stroke="black" cx="41.72" cy="-301.38" rx="41.94" ry="37.45"/>
<text text-anchor="middle" x="41.72" y="-312.68" font-family="Times,serif" font-size="14.00">b_z</text>
<text text-anchor="middle" x="41.72" y="-297.68" font-family="Times,serif" font-size="14.00">~</text>
<text text-anchor="middle" x="41.72" y="-282.68" font-family="Times,serif" font-size="14.00">Normal</text>
</g>
<!-- z_effect -->
<g id="node11" class="node">
<title>z_effect</title>
<polygon fill="none" stroke="black" points="191.22,-213.93 100.22,-213.93 100.22,-160.93 191.22,-160.93 191.22,-213.93"/>
<text text-anchor="middle" x="145.72" y="-198.73" font-family="Times,serif" font-size="14.00">z_effect</text>
<text text-anchor="middle" x="145.72" y="-183.73" font-family="Times,serif" font-size="14.00">~</text>
<text text-anchor="middle" x="145.72" y="-168.73" font-family="Times,serif" font-size="14.00">Deterministic</text>
</g>
<!-- b_z&#45;&gt;z_effect -->
<g id="edge7" class="edge">
<title>b_z&#45;&gt;z_effect</title>
<path fill="none" stroke="black" d="M60.84,-267.91C68.46,-256.26 77.78,-243.41 87.72,-232.91 91.74,-228.65 96.2,-224.49 100.8,-220.52"/>
<polygon fill="black" stroke="black" points="103.16,-223.11 108.63,-214.04 98.69,-217.72 103.16,-223.11"/>
</g>
<!-- sigma -->
<g id="node2" class="node">
<title>sigma</title>
<ellipse fill="none" stroke="black" cx="485.72" cy="-187.43" rx="58.88" ry="37.45"/>
<text text-anchor="middle" x="485.72" y="-198.73" font-family="Times,serif" font-size="14.00">sigma</text>
<text text-anchor="middle" x="485.72" y="-183.73" font-family="Times,serif" font-size="14.00">~</text>
<text text-anchor="middle" x="485.72" y="-168.73" font-family="Times,serif" font-size="14.00">HalfNormal</text>
</g>
<!-- likelihood -->
<g id="node12" class="node">
<title>likelihood</title>
<ellipse fill="lightgrey" stroke="black" cx="306.72" cy="-76.48" rx="50.41" ry="37.45"/>
<text text-anchor="middle" x="306.72" y="-87.78" font-family="Times,serif" font-size="14.00">likelihood</text>
<text text-anchor="middle" x="306.72" y="-72.78" font-family="Times,serif" font-size="14.00">~</text>
<text text-anchor="middle" x="306.72" y="-57.78" font-family="Times,serif" font-size="14.00">Normal</text>
</g>
<!-- sigma&#45;&gt;likelihood -->
<g id="edge11" class="edge">
<title>sigma&#45;&gt;likelihood</title>
<path fill="none" stroke="black" d="M443.75,-160.89C416.8,-144.48 381.76,-123.15 353.85,-106.17"/>
<polygon fill="black" stroke="black" points="355.43,-103.03 345.07,-100.82 351.79,-109.01 355.43,-103.03"/>
</g>
<!-- alpha -->
<g id="node3" class="node">
<title>alpha</title>
<ellipse fill="none" stroke="black" cx="254.72" cy="-523.29" rx="41.94" ry="37.45"/>
<text text-anchor="middle" x="254.72" y="-534.59" font-family="Times,serif" font-size="14.00">alpha</text>
<text text-anchor="middle" x="254.72" y="-519.59" font-family="Times,serif" font-size="14.00">~</text>
<text text-anchor="middle" x="254.72" y="-504.59" font-family="Times,serif" font-size="14.00">Normal</text>
</g>
<!-- z_adstock -->
<g id="node10" class="node">
<title>z_adstock</title>
<polygon fill="none" stroke="black" points="300.22,-438.84 209.22,-438.84 209.22,-385.84 300.22,-385.84 300.22,-438.84"/>
<text text-anchor="middle" x="254.72" y="-423.64" font-family="Times,serif" font-size="14.00">z_adstock</text>
<text text-anchor="middle" x="254.72" y="-408.64" font-family="Times,serif" font-size="14.00">~</text>
<text text-anchor="middle" x="254.72" y="-393.64" font-family="Times,serif" font-size="14.00">Deterministic</text>
</g>
<!-- alpha&#45;&gt;z_adstock -->
<g id="edge4" class="edge">
<title>alpha&#45;&gt;z_adstock</title>
<path fill="none" stroke="black" d="M254.72,-485.71C254.72,-473.97 254.72,-460.98 254.72,-449.29"/>
<polygon fill="black" stroke="black" points="258.22,-448.99 254.72,-438.99 251.22,-448.99 258.22,-448.99"/>
</g>
<!-- lam -->
<g id="node4" class="node">
<title>lam</title>
<ellipse fill="none" stroke="black" cx="484.72" cy="-412.34" rx="58.88" ry="37.45"/>
<text text-anchor="middle" x="484.72" y="-423.64" font-family="Times,serif" font-size="14.00">lam</text>
<text text-anchor="middle" x="484.72" y="-408.64" font-family="Times,serif" font-size="14.00">~</text>
<text text-anchor="middle" x="484.72" y="-393.64" font-family="Times,serif" font-size="14.00">HalfNormal</text>
</g>
<!-- z_adstock_saturated -->
<g id="node9" class="node">
<title>z_adstock_saturated</title>
<polygon fill="none" stroke="black" points="317.72,-327.88 191.72,-327.88 191.72,-274.88 317.72,-274.88 317.72,-327.88"/>
<text text-anchor="middle" x="254.72" y="-312.68" font-family="Times,serif" font-size="14.00">z_adstock_saturated</text>
<text text-anchor="middle" x="254.72" y="-297.68" font-family="Times,serif" font-size="14.00">~</text>
<text text-anchor="middle" x="254.72" y="-282.68" font-family="Times,serif" font-size="14.00">Deterministic</text>
</g>
<!-- lam&#45;&gt;z_adstock_saturated -->
<g id="edge5" class="edge">
<title>lam&#45;&gt;z_adstock_saturated</title>
<path fill="none" stroke="black" d="M442.73,-386.13C435.78,-382.22 428.6,-378.33 421.72,-374.86 391.29,-359.51 356.87,-344.23 327.21,-331.69"/>
<polygon fill="black" stroke="black" points="328.34,-328.37 317.76,-327.72 325.62,-334.82 328.34,-328.37"/>
</g>
<!-- a -->
<g id="node5" class="node">
<title>a</title>
<ellipse fill="none" stroke="black" cx="467.72" cy="-301.38" rx="41.94" ry="37.45"/>
<text text-anchor="middle" x="467.72" y="-312.68" font-family="Times,serif" font-size="14.00">a</text>
<text text-anchor="middle" x="467.72" y="-297.68" font-family="Times,serif" font-size="14.00">~</text>
<text text-anchor="middle" x="467.72" y="-282.68" font-family="Times,serif" font-size="14.00">Normal</text>
</g>
<!-- trend -->
<g id="node8" class="node">
<title>trend</title>
<polygon fill="none" stroke="black" points="300.22,-213.93 209.22,-213.93 209.22,-160.93 300.22,-160.93 300.22,-213.93"/>
<text text-anchor="middle" x="254.72" y="-198.73" font-family="Times,serif" font-size="14.00">trend</text>
<text text-anchor="middle" x="254.72" y="-183.73" font-family="Times,serif" font-size="14.00">~</text>
<text text-anchor="middle" x="254.72" y="-168.73" font-family="Times,serif" font-size="14.00">Deterministic</text>
</g>
<!-- a&#45;&gt;trend -->
<g id="edge1" class="edge">
<title>a&#45;&gt;trend</title>
<path fill="none" stroke="black" d="M452.47,-266.1C445.06,-253.5 434.87,-240.47 421.72,-232.91 400.09,-220.47 333.34,-232.96 309.72,-224.91 305.15,-223.35 300.59,-221.31 296.17,-219"/>
<polygon fill="black" stroke="black" points="297.73,-215.86 287.31,-213.93 294.25,-221.94 297.73,-215.86"/>
</g>
<!-- b_trend -->
<g id="node6" class="node">
<title>b_trend</title>
<ellipse fill="none" stroke="black" cx="568.72" cy="-301.38" rx="41.94" ry="37.45"/>
<text text-anchor="middle" x="568.72" y="-312.68" font-family="Times,serif" font-size="14.00">b_trend</text>
<text text-anchor="middle" x="568.72" y="-297.68" font-family="Times,serif" font-size="14.00">~</text>
<text text-anchor="middle" x="568.72" y="-282.68" font-family="Times,serif" font-size="14.00">Normal</text>
</g>
<!-- b_trend&#45;&gt;trend -->
<g id="edge2" class="edge">
<title>b_trend&#45;&gt;trend</title>
<path fill="none" stroke="black" d="M552.32,-266.88C544.13,-253.9 532.9,-240.39 518.72,-232.91 498.17,-222.06 331.84,-232.04 309.72,-224.91 305.06,-223.4 300.42,-221.39 295.93,-219.07"/>
<polygon fill="black" stroke="black" points="297.37,-215.86 286.95,-213.95 293.9,-221.94 297.37,-215.86"/>
</g>
<!-- b_fourier -->
<g id="node7" class="node">
<title>b_fourier</title>
<ellipse fill="none" stroke="black" cx="675.72" cy="-301.38" rx="47.25" ry="37.45"/>
<text text-anchor="middle" x="675.72" y="-312.68" font-family="Times,serif" font-size="14.00">b_fourier</text>
<text text-anchor="middle" x="675.72" y="-297.68" font-family="Times,serif" font-size="14.00">~</text>
<text text-anchor="middle" x="675.72" y="-282.68" font-family="Times,serif" font-size="14.00">Normal</text>
</g>
<!-- seasonality -->
<g id="node13" class="node">
<title>seasonality</title>
<polygon fill="none" stroke="black" points="409.22,-213.93 318.22,-213.93 318.22,-160.93 409.22,-160.93 409.22,-213.93"/>
<text text-anchor="middle" x="363.72" y="-198.73" font-family="Times,serif" font-size="14.00">seasonality</text>
<text text-anchor="middle" x="363.72" y="-183.73" font-family="Times,serif" font-size="14.00">~</text>
<text text-anchor="middle" x="363.72" y="-168.73" font-family="Times,serif" font-size="14.00">Deterministic</text>
</g>
<!-- b_fourier&#45;&gt;seasonality -->
<g id="edge3" class="edge">
<title>b_fourier&#45;&gt;seasonality</title>
<path fill="none" stroke="black" d="M656.5,-266.81C647.18,-253.82 634.73,-240.32 619.72,-232.91 579.44,-213.01 460.41,-238.9 417.72,-224.91 413.12,-223.4 408.56,-221.38 404.14,-219.06"/>
<polygon fill="black" stroke="black" points="405.72,-215.93 395.31,-213.94 402.21,-221.98 405.72,-215.93"/>
</g>
<!-- trend&#45;&gt;likelihood -->
<g id="edge10" class="edge">
<title>trend&#45;&gt;likelihood</title>
<path fill="none" stroke="black" d="M266.91,-160.89C272.57,-149.03 279.46,-134.6 285.9,-121.09"/>
<polygon fill="black" stroke="black" points="289.12,-122.47 290.27,-111.94 282.81,-119.45 289.12,-122.47"/>
</g>
<!-- z_adstock_saturated&#45;&gt;z_effect -->
<g id="edge8" class="edge">
<title>z_adstock_saturated&#45;&gt;z_effect</title>
<path fill="none" stroke="black" d="M229.71,-274.7C214.34,-258.91 194.49,-238.53 177.95,-221.53"/>
<polygon fill="black" stroke="black" points="180.09,-218.72 170.61,-213.99 175.08,-223.6 180.09,-218.72"/>
</g>
<!-- z_adstock&#45;&gt;z_adstock_saturated -->
<g id="edge6" class="edge">
<title>z_adstock&#45;&gt;z_adstock_saturated</title>
<path fill="none" stroke="black" d="M254.72,-385.79C254.72,-371.69 254.72,-353.94 254.72,-338.44"/>
<polygon fill="black" stroke="black" points="258.22,-338.15 254.72,-328.15 251.22,-338.15 258.22,-338.15"/>
</g>
<!-- z_effect&#45;&gt;likelihood -->
<g id="edge9" class="edge">
<title>z_effect&#45;&gt;likelihood</title>
<path fill="none" stroke="black" d="M183.47,-160.89C206.83,-145.08 236.96,-124.69 261.58,-108.02"/>
<polygon fill="black" stroke="black" points="263.72,-110.8 270.04,-102.3 259.8,-105 263.72,-110.8"/>
</g>
<!-- seasonality&#45;&gt;likelihood -->
<g id="edge12" class="edge">
<title>seasonality&#45;&gt;likelihood</title>
<path fill="none" stroke="black" d="M350.36,-160.89C344.1,-148.93 336.47,-134.35 329.36,-120.74"/>
<polygon fill="black" stroke="black" points="332.27,-118.76 324.53,-111.53 326.07,-122.01 332.27,-118.76"/>
</g>
</g>
</svg>
