<?xml version="1.0" encoding="UTF-8" standalone="no"?>
<!DOCTYPE svg PUBLIC "-//W3C//DTD SVG 1.1//EN"
 "http://www.w3.org/Graphics/SVG/1.1/DTD/svg11.dtd">
<!-- Generated by graphviz version 3.0.0 (20220226.1711)
 -->
<!-- Pages: 1 -->
<svg width="628pt" height="460pt"
 viewBox="0.00 0.00 627.82 459.86" xmlns="http://www.w3.org/2000/svg" xmlns:xlink="http://www.w3.org/1999/xlink">
<g id="graph0" class="graph" transform="scale(1 1) rotate(0) translate(4 455.86)">
<polygon fill="white" stroke="transparent" points="-4,4 -4,-455.86 623.82,-455.86 623.82,4 -4,4"/>
<g id="clust1" class="cluster">
<title>clusterfourier_mode (14)</title>
<path fill="none" stroke="black" d="M340.69,-329.91C340.69,-329.91 433.69,-329.91 433.69,-329.91 439.69,-329.91 445.69,-335.91 445.69,-341.91 445.69,-341.91 445.69,-431.86 445.69,-431.86 445.69,-437.86 439.69,-443.86 433.69,-443.86 433.69,-443.86 340.69,-443.86 340.69,-443.86 334.69,-443.86 328.69,-437.86 328.69,-431.86 328.69,-431.86 328.69,-341.91 328.69,-341.91 328.69,-335.91 334.69,-329.91 340.69,-329.91"/>
<text text-anchor="middle" x="387.19" y="-337.71" font-family="Times,serif" font-size="14.00">fourier_mode (14)</text>
</g>
<g id="clust2" class="cluster">
<title>clusterdate (179)</title>
<path fill="none" stroke="black" d="M75.69,-8C75.69,-8 377.69,-8 377.69,-8 383.69,-8 389.69,-14 389.69,-20 389.69,-20 389.69,-309.91 389.69,-309.91 389.69,-315.91 383.69,-321.91 377.69,-321.91 377.69,-321.91 75.69,-321.91 75.69,-321.91 69.69,-321.91 63.69,-315.91 63.69,-309.91 63.69,-309.91 63.69,-20 63.69,-20 63.69,-14 69.69,-8 75.69,-8"/>
<text text-anchor="middle" x="353.69" y="-15.8" font-family="Times,serif" font-size="14.00">date (179)</text>
</g>
<!-- b_z -->
<g id="node1" class="node">
<title>b_z</title>
<ellipse fill="none" stroke="black" cx="58.69" cy="-398.38" rx="58.88" ry="37.45"/>
<text text-anchor="middle" x="58.69" y="-409.68" font-family="Times,serif" font-size="14.00">b_z</text>
<text text-anchor="middle" x="58.69" y="-394.68" font-family="Times,serif" font-size="14.00">~</text>
<text text-anchor="middle" x="58.69" y="-379.68" font-family="Times,serif" font-size="14.00">HalfNormal</text>
</g>
<!-- z_effect -->
<g id="node8" class="node">
<title>z_effect</title>
<polygon fill="none" stroke="black" points="163.19,-313.91 72.19,-313.91 72.19,-260.91 163.19,-260.91 163.19,-313.91"/>
<text text-anchor="middle" x="117.69" y="-298.71" font-family="Times,serif" font-size="14.00">z_effect</text>
<text text-anchor="middle" x="117.69" y="-283.71" font-family="Times,serif" font-size="14.00">~</text>
<text text-anchor="middle" x="117.69" y="-268.71" font-family="Times,serif" font-size="14.00">Deterministic</text>
</g>
<!-- b_z&#45;&gt;z_effect -->
<g id="edge4" class="edge">
<title>b_z&#45;&gt;z_effect</title>
<path fill="none" stroke="black" d="M77.52,-362.6C84.36,-349.97 92.08,-335.71 98.92,-323.08"/>
<polygon fill="black" stroke="black" points="102.03,-324.69 103.71,-314.23 95.87,-321.36 102.03,-324.69"/>
</g>
<!-- sigma -->
<g id="node2" class="node">
<title>sigma</title>
<ellipse fill="none" stroke="black" cx="456.69" cy="-187.43" rx="58.88" ry="37.45"/>
<text text-anchor="middle" x="456.69" y="-198.73" font-family="Times,serif" font-size="14.00">sigma</text>
<text text-anchor="middle" x="456.69" y="-183.73" font-family="Times,serif" font-size="14.00">~</text>
<text text-anchor="middle" x="456.69" y="-168.73" font-family="Times,serif" font-size="14.00">HalfNormal</text>
</g>
<!-- likelihood -->
<g id="node9" class="node">
<title>likelihood</title>
<ellipse fill="lightgrey" stroke="black" cx="331.69" cy="-76.48" rx="50.41" ry="37.45"/>
<text text-anchor="middle" x="331.69" y="-87.78" font-family="Times,serif" font-size="14.00">likelihood</text>
<text text-anchor="middle" x="331.69" y="-72.78" font-family="Times,serif" font-size="14.00">~</text>
<text text-anchor="middle" x="331.69" y="-57.78" font-family="Times,serif" font-size="14.00">StudentT</text>
</g>
<!-- sigma&#45;&gt;likelihood -->
<g id="edge9" class="edge">
<title>sigma&#45;&gt;likelihood</title>
<path fill="none" stroke="black" d="M422.53,-156.66C406.88,-143.01 388.21,-126.75 371.89,-112.51"/>
<polygon fill="black" stroke="black" points="373.92,-109.64 364.08,-105.71 369.32,-114.92 373.92,-109.64"/>
</g>
<!-- nu -->
<g id="node3" class="node">
<title>nu</title>
<ellipse fill="none" stroke="black" cx="576.69" cy="-187.43" rx="43.27" ry="37.45"/>
<text text-anchor="middle" x="576.69" y="-198.73" font-family="Times,serif" font-size="14.00">nu</text>
<text text-anchor="middle" x="576.69" y="-183.73" font-family="Times,serif" font-size="14.00">~</text>
<text text-anchor="middle" x="576.69" y="-168.73" font-family="Times,serif" font-size="14.00">Gamma</text>
</g>
<!-- nu&#45;&gt;likelihood -->
<g id="edge8" class="edge">
<title>nu&#45;&gt;likelihood</title>
<path fill="none" stroke="black" d="M544.76,-162.16C538.3,-157.79 531.42,-153.5 524.69,-149.95 480.48,-126.63 427.06,-107.18 387.64,-94.32"/>
<polygon fill="black" stroke="black" points="388.53,-90.93 377.94,-91.2 386.39,-97.6 388.53,-90.93"/>
</g>
<!-- a -->
<g id="node4" class="node">
<title>a</title>
<ellipse fill="none" stroke="black" cx="176.69" cy="-398.38" rx="41.94" ry="37.45"/>
<text text-anchor="middle" x="176.69" y="-409.68" font-family="Times,serif" font-size="14.00">a</text>
<text text-anchor="middle" x="176.69" y="-394.68" font-family="Times,serif" font-size="14.00">~</text>
<text text-anchor="middle" x="176.69" y="-379.68" font-family="Times,serif" font-size="14.00">Normal</text>
</g>
<!-- trend -->
<g id="node7" class="node">
<title>trend</title>
<polygon fill="none" stroke="black" points="272.19,-313.91 181.19,-313.91 181.19,-260.91 272.19,-260.91 272.19,-313.91"/>
<text text-anchor="middle" x="226.69" y="-298.71" font-family="Times,serif" font-size="14.00">trend</text>
<text text-anchor="middle" x="226.69" y="-283.71" font-family="Times,serif" font-size="14.00">~</text>
<text text-anchor="middle" x="226.69" y="-268.71" font-family="Times,serif" font-size="14.00">Deterministic</text>
</g>
<!-- a&#45;&gt;trend -->
<g id="edge1" class="edge">
<title>a&#45;&gt;trend</title>
<path fill="none" stroke="black" d="M192.24,-363.5C198.08,-350.75 204.74,-336.24 210.64,-323.4"/>
<polygon fill="black" stroke="black" points="213.98,-324.51 214.97,-313.96 207.62,-321.59 213.98,-324.51"/>
</g>
<!-- b_trend -->
<g id="node5" class="node">
<title>b_trend</title>
<ellipse fill="none" stroke="black" cx="277.69" cy="-398.38" rx="41.94" ry="37.45"/>
<text text-anchor="middle" x="277.69" y="-409.68" font-family="Times,serif" font-size="14.00">b_trend</text>
<text text-anchor="middle" x="277.69" y="-394.68" font-family="Times,serif" font-size="14.00">~</text>
<text text-anchor="middle" x="277.69" y="-379.68" font-family="Times,serif" font-size="14.00">Normal</text>
</g>
<!-- b_trend&#45;&gt;trend -->
<g id="edge2" class="edge">
<title>b_trend&#45;&gt;trend</title>
<path fill="none" stroke="black" d="M261.83,-363.5C255.81,-350.63 248.94,-335.96 242.89,-323.02"/>
<polygon fill="black" stroke="black" points="246.06,-321.53 238.65,-313.96 239.72,-324.5 246.06,-321.53"/>
</g>
<!-- b_fourier -->
<g id="node6" class="node">
<title>b_fourier</title>
<ellipse fill="none" stroke="black" cx="384.69" cy="-398.38" rx="47.25" ry="37.45"/>
<text text-anchor="middle" x="384.69" y="-409.68" font-family="Times,serif" font-size="14.00">b_fourier</text>
<text text-anchor="middle" x="384.69" y="-394.68" font-family="Times,serif" font-size="14.00">~</text>
<text text-anchor="middle" x="384.69" y="-379.68" font-family="Times,serif" font-size="14.00">Laplace</text>
</g>
<!-- seasonality -->
<g id="node10" class="node">
<title>seasonality</title>
<polygon fill="none" stroke="black" points="381.19,-313.91 290.19,-313.91 290.19,-260.91 381.19,-260.91 381.19,-313.91"/>
<text text-anchor="middle" x="335.69" y="-298.71" font-family="Times,serif" font-size="14.00">seasonality</text>
<text text-anchor="middle" x="335.69" y="-283.71" font-family="Times,serif" font-size="14.00">~</text>
<text text-anchor="middle" x="335.69" y="-268.71" font-family="Times,serif" font-size="14.00">Deterministic</text>
</g>
<!-- b_fourier&#45;&gt;seasonality -->
<g id="edge3" class="edge">
<title>b_fourier&#45;&gt;seasonality</title>
<path fill="none" stroke="black" d="M369.19,-362.9C363.51,-350.28 357.09,-336 351.4,-323.34"/>
<polygon fill="black" stroke="black" points="354.5,-321.71 347.21,-314.03 348.12,-324.58 354.5,-321.71"/>
</g>
<!-- mu -->
<g id="node11" class="node">
<title>mu</title>
<polygon fill="none" stroke="black" points="324.19,-213.93 233.19,-213.93 233.19,-160.93 324.19,-160.93 324.19,-213.93"/>
<text text-anchor="middle" x="278.69" y="-198.73" font-family="Times,serif" font-size="14.00">mu</text>
<text text-anchor="middle" x="278.69" y="-183.73" font-family="Times,serif" font-size="14.00">~</text>
<text text-anchor="middle" x="278.69" y="-168.73" font-family="Times,serif" font-size="14.00">Deterministic</text>
</g>
<!-- trend&#45;&gt;mu -->
<g id="edge6" class="edge">
<title>trend&#45;&gt;mu</title>
<path fill="none" stroke="black" d="M240.35,-260.66C246.44,-249.19 253.71,-235.5 260.27,-223.14"/>
<polygon fill="black" stroke="black" points="263.52,-224.47 265.12,-214 257.34,-221.19 263.52,-224.47"/>
</g>
<!-- z_effect&#45;&gt;mu -->
<g id="edge5" class="edge">
<title>z_effect&#45;&gt;mu</title>
<path fill="none" stroke="black" d="M159.99,-260.66C180.79,-248.01 206.02,-232.65 227.86,-219.36"/>
<polygon fill="black" stroke="black" points="229.95,-222.19 236.67,-214 226.31,-216.21 229.95,-222.19"/>
</g>
<!-- seasonality&#45;&gt;mu -->
<g id="edge7" class="edge">
<title>seasonality&#45;&gt;mu</title>
<path fill="none" stroke="black" d="M320.71,-260.66C313.97,-249.08 305.92,-235.23 298.67,-222.77"/>
<polygon fill="black" stroke="black" points="301.62,-220.88 293.57,-214 295.57,-224.4 301.62,-220.88"/>
</g>
<!-- mu&#45;&gt;likelihood -->
<g id="edge10" class="edge">
<title>mu&#45;&gt;likelihood</title>
<path fill="none" stroke="black" d="M291.12,-160.89C296.88,-149.03 303.9,-134.6 310.47,-121.09"/>
<polygon fill="black" stroke="black" points="313.7,-122.46 314.93,-111.94 307.41,-119.4 313.7,-122.46"/>
</g>
</g>
</svg>
