<?xml version="1.0" encoding="UTF-8" standalone="no"?>
<!DOCTYPE svg PUBLIC "-//W3C//DTD SVG 1.1//EN"
 "http://www.w3.org/Graphics/SVG/1.1/DTD/svg11.dtd">
<!-- Generated by graphviz version 3.0.0 (20220226.1711)
 -->
<!-- Pages: 1 -->
<svg width="657pt" height="460pt"
 viewBox="0.00 0.00 656.85 459.86" xmlns="http://www.w3.org/2000/svg" xmlns:xlink="http://www.w3.org/1999/xlink">
<g id="graph0" class="graph" transform="scale(1 1) rotate(0) translate(4 455.86)">
<polygon fill="white" stroke="transparent" points="-4,4 -4,-455.86 652.85,-455.86 652.85,4 -4,4"/>
<g id="clust1" class="cluster">
<title>clusterfourier_mode (14)</title>
<path fill="none" stroke="black" d="M340.72,-329.91C340.72,-329.91 433.72,-329.91 433.72,-329.91 439.72,-329.91 445.72,-335.91 445.72,-341.91 445.72,-341.91 445.72,-431.86 445.72,-431.86 445.72,-437.86 439.72,-443.86 433.72,-443.86 433.72,-443.86 340.72,-443.86 340.72,-443.86 334.72,-443.86 328.72,-437.86 328.72,-431.86 328.72,-431.86 328.72,-341.91 328.72,-341.91 328.72,-335.91 334.72,-329.91 340.72,-329.91"/>
<text text-anchor="middle" x="387.22" y="-337.71" font-family="Times,serif" font-size="14.00">fourier_mode (14)</text>
</g>
<g id="clust2" class="cluster">
<title>clusterdate (179)</title>
<path fill="none" stroke="black" d="M104.72,-8C104.72,-8 406.72,-8 406.72,-8 412.72,-8 418.72,-14 418.72,-20 418.72,-20 418.72,-309.91 418.72,-309.91 418.72,-315.91 412.72,-321.91 406.72,-321.91 406.72,-321.91 104.72,-321.91 104.72,-321.91 98.72,-321.91 92.72,-315.91 92.72,-309.91 92.72,-309.91 92.72,-20 92.72,-20 92.72,-14 98.72,-8 104.72,-8"/>
<text text-anchor="middle" x="382.72" y="-15.8" font-family="Times,serif" font-size="14.00">date (179)</text>
</g>
<!-- b_trend -->
<g id="node1" class="node">
<title>b_trend</title>
<ellipse fill="none" stroke="black" cx="41.72" cy="-398.38" rx="41.94" ry="37.45"/>
<text text-anchor="middle" x="41.72" y="-409.68" font-family="Times,serif" font-size="14.00">b_trend</text>
<text text-anchor="middle" x="41.72" y="-394.68" font-family="Times,serif" font-size="14.00">~</text>
<text text-anchor="middle" x="41.72" y="-379.68" font-family="Times,serif" font-size="14.00">Normal</text>
</g>
<!-- trend -->
<g id="node8" class="node">
<title>trend</title>
<polygon fill="none" stroke="black" points="192.22,-313.91 101.22,-313.91 101.22,-260.91 192.22,-260.91 192.22,-313.91"/>
<text text-anchor="middle" x="146.72" y="-298.71" font-family="Times,serif" font-size="14.00">trend</text>
<text text-anchor="middle" x="146.72" y="-283.71" font-family="Times,serif" font-size="14.00">~</text>
<text text-anchor="middle" x="146.72" y="-268.71" font-family="Times,serif" font-size="14.00">Deterministic</text>
</g>
<!-- b_trend&#45;&gt;trend -->
<g id="edge1" class="edge">
<title>b_trend&#45;&gt;trend</title>
<path fill="none" stroke="black" d="M62.38,-365.66C70.79,-353.83 81.04,-340.68 91.72,-329.91 94.88,-326.71 98.3,-323.57 101.84,-320.51"/>
<polygon fill="black" stroke="black" points="104.22,-323.09 109.7,-314.02 99.76,-317.69 104.22,-323.09"/>
</g>
<!-- sigma -->
<g id="node2" class="node">
<title>sigma</title>
<ellipse fill="none" stroke="black" cx="485.72" cy="-187.43" rx="58.88" ry="37.45"/>
<text text-anchor="middle" x="485.72" y="-198.73" font-family="Times,serif" font-size="14.00">sigma</text>
<text text-anchor="middle" x="485.72" y="-183.73" font-family="Times,serif" font-size="14.00">~</text>
<text text-anchor="middle" x="485.72" y="-168.73" font-family="Times,serif" font-size="14.00">HalfNormal</text>
</g>
<!-- likelihood -->
<g id="node10" class="node">
<title>likelihood</title>
<ellipse fill="lightgrey" stroke="black" cx="360.72" cy="-76.48" rx="50.41" ry="37.45"/>
<text text-anchor="middle" x="360.72" y="-87.78" font-family="Times,serif" font-size="14.00">likelihood</text>
<text text-anchor="middle" x="360.72" y="-72.78" font-family="Times,serif" font-size="14.00">~</text>
<text text-anchor="middle" x="360.72" y="-57.78" font-family="Times,serif" font-size="14.00">StudentT</text>
</g>
<!-- sigma&#45;&gt;likelihood -->
<g id="edge8" class="edge">
<title>sigma&#45;&gt;likelihood</title>
<path fill="none" stroke="black" d="M451.56,-156.66C435.91,-143.01 417.24,-126.75 400.92,-112.51"/>
<polygon fill="black" stroke="black" points="402.95,-109.64 393.11,-105.71 398.35,-114.92 402.95,-109.64"/>
</g>
<!-- a -->
<g id="node3" class="node">
<title>a</title>
<ellipse fill="none" stroke="black" cx="142.72" cy="-398.38" rx="41.94" ry="37.45"/>
<text text-anchor="middle" x="142.72" y="-409.68" font-family="Times,serif" font-size="14.00">a</text>
<text text-anchor="middle" x="142.72" y="-394.68" font-family="Times,serif" font-size="14.00">~</text>
<text text-anchor="middle" x="142.72" y="-379.68" font-family="Times,serif" font-size="14.00">Normal</text>
</g>
<!-- a&#45;&gt;trend -->
<g id="edge2" class="edge">
<title>a&#45;&gt;trend</title>
<path fill="none" stroke="black" d="M144.06,-360.79C144.49,-349.05 144.97,-336.06 145.4,-324.37"/>
<polygon fill="black" stroke="black" points="148.91,-324.19 145.78,-314.06 141.91,-323.93 148.91,-324.19"/>
</g>
<!-- nu -->
<g id="node4" class="node">
<title>nu</title>
<ellipse fill="none" stroke="black" cx="605.72" cy="-187.43" rx="43.27" ry="37.45"/>
<text text-anchor="middle" x="605.72" y="-198.73" font-family="Times,serif" font-size="14.00">nu</text>
<text text-anchor="middle" x="605.72" y="-183.73" font-family="Times,serif" font-size="14.00">~</text>
<text text-anchor="middle" x="605.72" y="-168.73" font-family="Times,serif" font-size="14.00">Gamma</text>
</g>
<!-- nu&#45;&gt;likelihood -->
<g id="edge9" class="edge">
<title>nu&#45;&gt;likelihood</title>
<path fill="none" stroke="black" d="M573.79,-162.16C567.33,-157.79 560.45,-153.5 553.72,-149.95 509.51,-126.63 456.09,-107.18 416.67,-94.32"/>
<polygon fill="black" stroke="black" points="417.56,-90.93 406.97,-91.2 415.41,-97.6 417.56,-90.93"/>
</g>
<!-- b_z -->
<g id="node5" class="node">
<title>b_z</title>
<ellipse fill="none" stroke="black" cx="260.72" cy="-398.38" rx="58.88" ry="37.45"/>
<text text-anchor="middle" x="260.72" y="-409.68" font-family="Times,serif" font-size="14.00">b_z</text>
<text text-anchor="middle" x="260.72" y="-394.68" font-family="Times,serif" font-size="14.00">~</text>
<text text-anchor="middle" x="260.72" y="-379.68" font-family="Times,serif" font-size="14.00">HalfNormal</text>
</g>
<!-- z_effect -->
<g id="node7" class="node">
<title>z_effect</title>
<polygon fill="none" stroke="black" points="301.22,-313.91 210.22,-313.91 210.22,-260.91 301.22,-260.91 301.22,-313.91"/>
<text text-anchor="middle" x="255.72" y="-298.71" font-family="Times,serif" font-size="14.00">z_effect</text>
<text text-anchor="middle" x="255.72" y="-283.71" font-family="Times,serif" font-size="14.00">~</text>
<text text-anchor="middle" x="255.72" y="-268.71" font-family="Times,serif" font-size="14.00">Deterministic</text>
</g>
<!-- b_z&#45;&gt;z_effect -->
<g id="edge4" class="edge">
<title>b_z&#45;&gt;z_effect</title>
<path fill="none" stroke="black" d="M259.04,-360.79C258.5,-349.05 257.91,-336.06 257.37,-324.37"/>
<polygon fill="black" stroke="black" points="260.85,-323.89 256.9,-314.06 253.86,-324.21 260.85,-323.89"/>
</g>
<!-- b_fourier -->
<g id="node6" class="node">
<title>b_fourier</title>
<ellipse fill="none" stroke="black" cx="384.72" cy="-398.38" rx="47.25" ry="37.45"/>
<text text-anchor="middle" x="384.72" y="-409.68" font-family="Times,serif" font-size="14.00">b_fourier</text>
<text text-anchor="middle" x="384.72" y="-394.68" font-family="Times,serif" font-size="14.00">~</text>
<text text-anchor="middle" x="384.72" y="-379.68" font-family="Times,serif" font-size="14.00">Laplace</text>
</g>
<!-- seasonality -->
<g id="node9" class="node">
<title>seasonality</title>
<polygon fill="none" stroke="black" points="410.22,-313.91 319.22,-313.91 319.22,-260.91 410.22,-260.91 410.22,-313.91"/>
<text text-anchor="middle" x="364.72" y="-298.71" font-family="Times,serif" font-size="14.00">seasonality</text>
<text text-anchor="middle" x="364.72" y="-283.71" font-family="Times,serif" font-size="14.00">~</text>
<text text-anchor="middle" x="364.72" y="-268.71" font-family="Times,serif" font-size="14.00">Deterministic</text>
</g>
<!-- b_fourier&#45;&gt;seasonality -->
<g id="edge3" class="edge">
<title>b_fourier&#45;&gt;seasonality</title>
<path fill="none" stroke="black" d="M378.06,-361.1C375.88,-349.22 373.46,-336.04 371.29,-324.2"/>
<polygon fill="black" stroke="black" points="374.7,-323.41 369.45,-314.21 367.82,-324.67 374.7,-323.41"/>
</g>
<!-- mu -->
<g id="node11" class="node">
<title>mu</title>
<polygon fill="none" stroke="black" points="353.22,-213.93 262.22,-213.93 262.22,-160.93 353.22,-160.93 353.22,-213.93"/>
<text text-anchor="middle" x="307.72" y="-198.73" font-family="Times,serif" font-size="14.00">mu</text>
<text text-anchor="middle" x="307.72" y="-183.73" font-family="Times,serif" font-size="14.00">~</text>
<text text-anchor="middle" x="307.72" y="-168.73" font-family="Times,serif" font-size="14.00">Deterministic</text>
</g>
<!-- z_effect&#45;&gt;mu -->
<g id="edge7" class="edge">
<title>z_effect&#45;&gt;mu</title>
<path fill="none" stroke="black" d="M269.38,-260.66C275.47,-249.19 282.74,-235.5 289.3,-223.14"/>
<polygon fill="black" stroke="black" points="292.55,-224.47 294.15,-214 286.37,-221.19 292.55,-224.47"/>
</g>
<!-- trend&#45;&gt;mu -->
<g id="edge5" class="edge">
<title>trend&#45;&gt;mu</title>
<path fill="none" stroke="black" d="M189.02,-260.66C209.82,-248.01 235.05,-232.65 256.89,-219.36"/>
<polygon fill="black" stroke="black" points="258.98,-222.19 265.7,-214 255.34,-216.21 258.98,-222.19"/>
</g>
<!-- seasonality&#45;&gt;mu -->
<g id="edge6" class="edge">
<title>seasonality&#45;&gt;mu</title>
<path fill="none" stroke="black" d="M349.74,-260.66C343,-249.08 334.95,-235.23 327.7,-222.77"/>
<polygon fill="black" stroke="black" points="330.65,-220.88 322.6,-214 324.6,-224.4 330.65,-220.88"/>
</g>
<!-- mu&#45;&gt;likelihood -->
<g id="edge10" class="edge">
<title>mu&#45;&gt;likelihood</title>
<path fill="none" stroke="black" d="M320.15,-160.89C325.91,-149.03 332.93,-134.6 339.5,-121.09"/>
<polygon fill="black" stroke="black" points="342.73,-122.46 343.96,-111.94 336.43,-119.4 342.73,-122.46"/>
</g>
</g>
</svg>
