<?xml version="1.0" encoding="UTF-8" standalone="no"?>
<!DOCTYPE svg PUBLIC "-//W3C//DTD SVG 1.1//EN"
 "http://www.w3.org/Graphics/SVG/1.1/DTD/svg11.dtd">
<!-- Generated by graphviz version 7.0.6 (20230106.0513)
 -->
<!-- Pages: 1 -->
<svg width="804pt" height="663pt"
 viewBox="0.00 0.00 804.00 662.79" xmlns="http://www.w3.org/2000/svg" xmlns:xlink="http://www.w3.org/1999/xlink">
<g id="graph0" class="graph" transform="scale(1 1) rotate(0) translate(4 658.79)">
<polygon fill="white" stroke="none" points="-4,4 -4,-658.79 800,-658.79 800,4 -4,4"/>
<g id="clust1" class="cluster">
<title>clusterdate (179)</title>
<path fill="none" stroke="black" d="M20,-8C20,-8 322,-8 322,-8 328,-8 334,-14 334,-20 334,-20 334,-634.79 334,-634.79 334,-640.79 328,-646.79 322,-646.79 322,-646.79 20,-646.79 20,-646.79 14,-646.79 8,-640.79 8,-634.79 8,-634.79 8,-20 8,-20 8,-14 14,-8 20,-8"/>
<text text-anchor="middle" x="298" y="-15.8" font-family="Times,serif" font-size="14.00">date (179)</text>
</g>
<g id="clust2" class="cluster">
<title>clusterfourier_mode (14)</title>
<path fill="none" stroke="black" d="M683,-321.91C683,-321.91 776,-321.91 776,-321.91 782,-321.91 788,-327.91 788,-333.91 788,-333.91 788,-423.86 788,-423.86 788,-429.86 782,-435.86 776,-435.86 776,-435.86 683,-435.86 683,-435.86 677,-435.86 671,-429.86 671,-423.86 671,-423.86 671,-333.91 671,-333.91 671,-327.91 677,-321.91 683,-321.91"/>
<text text-anchor="middle" x="729.5" y="-329.71" font-family="Times,serif" font-size="14.00">fourier_mode (14)</text>
</g>
<!-- likelihood -->
<g id="node1" class="node">
<title>likelihood</title>
<ellipse fill="lightgrey" stroke="black" cx="276" cy="-76.48" rx="50.41" ry="37.45"/>
<text text-anchor="middle" x="276" y="-87.78" font-family="Times,serif" font-size="14.00">likelihood</text>
<text text-anchor="middle" x="276" y="-72.78" font-family="Times,serif" font-size="14.00">~</text>
<text text-anchor="middle" x="276" y="-57.78" font-family="Times,serif" font-size="14.00">StudentT</text>
</g>
<!-- z_scaled -->
<g id="node2" class="node">
<title>z_scaled</title>
<path fill="lightgrey" stroke="black" d="M301,-638.79C301,-638.79 237,-638.79 237,-638.79 231,-638.79 225,-632.79 225,-626.79 225,-626.79 225,-597.79 225,-597.79 225,-591.79 231,-585.79 237,-585.79 237,-585.79 301,-585.79 301,-585.79 307,-585.79 313,-591.79 313,-597.79 313,-597.79 313,-626.79 313,-626.79 313,-632.79 307,-638.79 301,-638.79"/>
<text text-anchor="middle" x="269" y="-623.59" font-family="Times,serif" font-size="14.00">z_scaled</text>
<text text-anchor="middle" x="269" y="-608.59" font-family="Times,serif" font-size="14.00">~</text>
<text text-anchor="middle" x="269" y="-593.59" font-family="Times,serif" font-size="14.00">MutableData</text>
</g>
<!-- z_adstock -->
<g id="node4" class="node">
<title>z_adstock</title>
<polygon fill="none" stroke="black" points="314.5,-527.84 223.5,-527.84 223.5,-474.84 314.5,-474.84 314.5,-527.84"/>
<text text-anchor="middle" x="269" y="-512.64" font-family="Times,serif" font-size="14.00">z_adstock</text>
<text text-anchor="middle" x="269" y="-497.64" font-family="Times,serif" font-size="14.00">~</text>
<text text-anchor="middle" x="269" y="-482.64" font-family="Times,serif" font-size="14.00">Deterministic</text>
</g>
<!-- z_scaled&#45;&gt;z_adstock -->
<g id="edge4" class="edge">
<title>z_scaled&#45;&gt;z_adstock</title>
<path fill="none" stroke="black" d="M269,-585.47C269,-571.63 269,-554.34 269,-539.12"/>
<polygon fill="black" stroke="black" points="272.5,-539.49 269,-529.49 265.5,-539.49 272.5,-539.49"/>
</g>
<!-- trend -->
<g id="node3" class="node">
<title>trend</title>
<polygon fill="none" stroke="black" points="216.5,-313.91 125.5,-313.91 125.5,-260.91 216.5,-260.91 216.5,-313.91"/>
<text text-anchor="middle" x="171" y="-298.71" font-family="Times,serif" font-size="14.00">trend</text>
<text text-anchor="middle" x="171" y="-283.71" font-family="Times,serif" font-size="14.00">~</text>
<text text-anchor="middle" x="171" y="-268.71" font-family="Times,serif" font-size="14.00">Deterministic</text>
</g>
<!-- mu -->
<g id="node5" class="node">
<title>mu</title>
<polygon fill="none" stroke="black" points="268.5,-213.93 177.5,-213.93 177.5,-160.93 268.5,-160.93 268.5,-213.93"/>
<text text-anchor="middle" x="223" y="-198.73" font-family="Times,serif" font-size="14.00">mu</text>
<text text-anchor="middle" x="223" y="-183.73" font-family="Times,serif" font-size="14.00">~</text>
<text text-anchor="middle" x="223" y="-168.73" font-family="Times,serif" font-size="14.00">Deterministic</text>
</g>
<!-- trend&#45;&gt;mu -->
<g id="edge10" class="edge">
<title>trend&#45;&gt;mu</title>
<path fill="none" stroke="black" d="M184.8,-260.41C190.66,-249.36 197.6,-236.29 203.94,-224.34"/>
<polygon fill="black" stroke="black" points="207.01,-226.02 208.61,-215.55 200.83,-222.74 207.01,-226.02"/>
</g>
<!-- z_adstock_saturated -->
<g id="node6" class="node">
<title>z_adstock_saturated</title>
<polygon fill="none" stroke="black" points="324,-416.88 198,-416.88 198,-363.88 324,-363.88 324,-416.88"/>
<text text-anchor="middle" x="261" y="-401.68" font-family="Times,serif" font-size="14.00">z_adstock_saturated</text>
<text text-anchor="middle" x="261" y="-386.68" font-family="Times,serif" font-size="14.00">~</text>
<text text-anchor="middle" x="261" y="-371.68" font-family="Times,serif" font-size="14.00">Deterministic</text>
</g>
<!-- z_adstock&#45;&gt;z_adstock_saturated -->
<g id="edge7" class="edge">
<title>z_adstock&#45;&gt;z_adstock_saturated</title>
<path fill="none" stroke="black" d="M267.1,-474.52C266.09,-460.68 264.82,-443.39 263.7,-428.16"/>
<polygon fill="black" stroke="black" points="267.22,-428.24 262.99,-418.53 260.23,-428.76 267.22,-428.24"/>
</g>
<!-- mu&#45;&gt;likelihood -->
<g id="edge14" class="edge">
<title>mu&#45;&gt;likelihood</title>
<path fill="none" stroke="black" d="M235.56,-160.61C241.12,-149.19 247.81,-135.42 254.15,-122.4"/>
<polygon fill="black" stroke="black" points="257.23,-124.07 258.46,-113.54 250.93,-121 257.23,-124.07"/>
</g>
<!-- z_effect -->
<g id="node7" class="node">
<title>z_effect</title>
<polygon fill="none" stroke="black" points="107.5,-313.91 16.5,-313.91 16.5,-260.91 107.5,-260.91 107.5,-313.91"/>
<text text-anchor="middle" x="62" y="-298.71" font-family="Times,serif" font-size="14.00">z_effect</text>
<text text-anchor="middle" x="62" y="-283.71" font-family="Times,serif" font-size="14.00">~</text>
<text text-anchor="middle" x="62" y="-268.71" font-family="Times,serif" font-size="14.00">Deterministic</text>
</g>
<!-- z_adstock_saturated&#45;&gt;z_effect -->
<g id="edge8" class="edge">
<title>z_adstock_saturated&#45;&gt;z_effect</title>
<path fill="none" stroke="black" d="M210.01,-363.51C181.79,-349.19 146.66,-331.37 117.72,-316.68"/>
<polygon fill="black" stroke="black" points="119.61,-313.71 109.11,-312.31 116.44,-319.96 119.61,-313.71"/>
</g>
<!-- z_effect&#45;&gt;mu -->
<g id="edge12" class="edge">
<title>z_effect&#45;&gt;mu</title>
<path fill="none" stroke="black" d="M104.72,-260.41C125,-248.07 149.41,-233.21 170.78,-220.21"/>
<polygon fill="black" stroke="black" points="172.34,-223.36 179.06,-215.17 168.7,-217.38 172.34,-223.36"/>
</g>
<!-- seasonality -->
<g id="node8" class="node">
<title>seasonality</title>
<polygon fill="none" stroke="black" points="325.5,-313.91 234.5,-313.91 234.5,-260.91 325.5,-260.91 325.5,-313.91"/>
<text text-anchor="middle" x="280" y="-298.71" font-family="Times,serif" font-size="14.00">seasonality</text>
<text text-anchor="middle" x="280" y="-283.71" font-family="Times,serif" font-size="14.00">~</text>
<text text-anchor="middle" x="280" y="-268.71" font-family="Times,serif" font-size="14.00">Deterministic</text>
</g>
<!-- seasonality&#45;&gt;mu -->
<g id="edge11" class="edge">
<title>seasonality&#45;&gt;mu</title>
<path fill="none" stroke="black" d="M264.87,-260.41C258.38,-249.25 250.69,-236.03 243.68,-223.98"/>
<polygon fill="black" stroke="black" points="246.81,-222.4 238.76,-215.52 240.76,-225.92 246.81,-222.4"/>
</g>
<!-- b_z -->
<g id="node9" class="node">
<title>b_z</title>
<ellipse fill="none" stroke="black" cx="401" cy="-390.38" rx="58.88" ry="37.45"/>
<text text-anchor="middle" x="401" y="-401.68" font-family="Times,serif" font-size="14.00">b_z</text>
<text text-anchor="middle" x="401" y="-386.68" font-family="Times,serif" font-size="14.00">~</text>
<text text-anchor="middle" x="401" y="-371.68" font-family="Times,serif" font-size="14.00">HalfNormal</text>
</g>
<!-- b_z&#45;&gt;z_effect -->
<g id="edge9" class="edge">
<title>b_z&#45;&gt;z_effect</title>
<path fill="none" stroke="black" d="M378.26,-355.36C367.67,-342.47 353.89,-329.16 338,-321.91 317.52,-312.57 169.17,-318.43 118.91,-313.01"/>
<polygon fill="black" stroke="black" points="119.65,-309.59 109.23,-311.46 118.54,-316.5 119.65,-309.59"/>
</g>
<!-- b_trend -->
<g id="node10" class="node">
<title>b_trend</title>
<ellipse fill="none" stroke="black" cx="519" cy="-390.38" rx="41.94" ry="37.45"/>
<text text-anchor="middle" x="519" y="-401.68" font-family="Times,serif" font-size="14.00">b_trend</text>
<text text-anchor="middle" x="519" y="-386.68" font-family="Times,serif" font-size="14.00">~</text>
<text text-anchor="middle" x="519" y="-371.68" font-family="Times,serif" font-size="14.00">Normal</text>
</g>
<!-- b_trend&#45;&gt;trend -->
<g id="edge1" class="edge">
<title>b_trend&#45;&gt;trend</title>
<path fill="none" stroke="black" d="M502.4,-355.49C494.23,-342.62 483.07,-329.29 469,-321.91 446.94,-310.34 281.37,-318.61 227.79,-312.98"/>
<polygon fill="black" stroke="black" points="228.65,-309.57 218.22,-311.47 227.55,-316.49 228.65,-309.57"/>
</g>
<!-- sigma -->
<g id="node11" class="node">
<title>sigma</title>
<ellipse fill="none" stroke="black" cx="401" cy="-187.43" rx="58.88" ry="37.45"/>
<text text-anchor="middle" x="401" y="-198.73" font-family="Times,serif" font-size="14.00">sigma</text>
<text text-anchor="middle" x="401" y="-183.73" font-family="Times,serif" font-size="14.00">~</text>
<text text-anchor="middle" x="401" y="-168.73" font-family="Times,serif" font-size="14.00">HalfNormal</text>
</g>
<!-- sigma&#45;&gt;likelihood -->
<g id="edge13" class="edge">
<title>sigma&#45;&gt;likelihood</title>
<path fill="none" stroke="black" d="M366.84,-156.66C351.33,-143.14 332.86,-127.04 316.64,-112.9"/>
<polygon fill="black" stroke="black" points="319.37,-110.64 309.53,-106.71 314.77,-115.92 319.37,-110.64"/>
</g>
<!-- a -->
<g id="node12" class="node">
<title>a</title>
<ellipse fill="none" stroke="black" cx="620" cy="-390.38" rx="41.94" ry="37.45"/>
<text text-anchor="middle" x="620" y="-401.68" font-family="Times,serif" font-size="14.00">a</text>
<text text-anchor="middle" x="620" y="-386.68" font-family="Times,serif" font-size="14.00">~</text>
<text text-anchor="middle" x="620" y="-371.68" font-family="Times,serif" font-size="14.00">Normal</text>
</g>
<!-- a&#45;&gt;trend -->
<g id="edge2" class="edge">
<title>a&#45;&gt;trend</title>
<path fill="none" stroke="black" d="M603.66,-355.78C595.47,-342.78 584.24,-329.29 570,-321.91 538.18,-305.41 296.41,-320.43 227.98,-313.05"/>
<polygon fill="black" stroke="black" points="228.64,-309.62 218.22,-311.5 227.54,-316.53 228.64,-309.62"/>
</g>
<!-- lam -->
<g id="node13" class="node">
<title>lam</title>
<ellipse fill="none" stroke="black" cx="385" cy="-501.34" rx="43.27" ry="37.45"/>
<text text-anchor="middle" x="385" y="-512.64" font-family="Times,serif" font-size="14.00">lam</text>
<text text-anchor="middle" x="385" y="-497.64" font-family="Times,serif" font-size="14.00">~</text>
<text text-anchor="middle" x="385" y="-482.64" font-family="Times,serif" font-size="14.00">Gamma</text>
</g>
<!-- lam&#45;&gt;z_adstock_saturated -->
<g id="edge6" class="edge">
<title>lam&#45;&gt;z_adstock_saturated</title>
<path fill="none" stroke="black" d="M354.98,-473.96C338.11,-459.13 316.87,-440.48 298.86,-424.65"/>
<polygon fill="black" stroke="black" points="301.27,-422.11 291.45,-418.14 296.65,-427.37 301.27,-422.11"/>
</g>
<!-- alpha -->
<g id="node14" class="node">
<title>alpha</title>
<ellipse fill="none" stroke="black" cx="375" cy="-612.29" rx="32.55" ry="37.45"/>
<text text-anchor="middle" x="375" y="-623.59" font-family="Times,serif" font-size="14.00">alpha</text>
<text text-anchor="middle" x="375" y="-608.59" font-family="Times,serif" font-size="14.00">~</text>
<text text-anchor="middle" x="375" y="-593.59" font-family="Times,serif" font-size="14.00">Beta</text>
</g>
<!-- alpha&#45;&gt;z_adstock -->
<g id="edge5" class="edge">
<title>alpha&#45;&gt;z_adstock</title>
<path fill="none" stroke="black" d="M350.95,-586.57C336.49,-571.7 317.88,-552.58 302.05,-536.31"/>
<polygon fill="black" stroke="black" points="304.6,-533.91 295.12,-529.18 299.58,-538.79 304.6,-533.91"/>
</g>
<!-- nu -->
<g id="node15" class="node">
<title>nu</title>
<ellipse fill="none" stroke="black" cx="521" cy="-187.43" rx="43.27" ry="37.45"/>
<text text-anchor="middle" x="521" y="-198.73" font-family="Times,serif" font-size="14.00">nu</text>
<text text-anchor="middle" x="521" y="-183.73" font-family="Times,serif" font-size="14.00">~</text>
<text text-anchor="middle" x="521" y="-168.73" font-family="Times,serif" font-size="14.00">Gamma</text>
</g>
<!-- nu&#45;&gt;likelihood -->
<g id="edge15" class="edge">
<title>nu&#45;&gt;likelihood</title>
<path fill="none" stroke="black" d="M488.79,-161.97C482.41,-157.67 475.63,-153.45 469,-149.95 425.4,-126.95 372.85,-107.72 333.6,-94.86"/>
<polygon fill="black" stroke="black" points="334.68,-91.53 324.09,-91.79 332.53,-98.19 334.68,-91.53"/>
</g>
<!-- b_fourier -->
<g id="node16" class="node">
<title>b_fourier</title>
<ellipse fill="none" stroke="black" cx="727" cy="-390.38" rx="47.25" ry="37.45"/>
<text text-anchor="middle" x="727" y="-401.68" font-family="Times,serif" font-size="14.00">b_fourier</text>
<text text-anchor="middle" x="727" y="-386.68" font-family="Times,serif" font-size="14.00">~</text>
<text text-anchor="middle" x="727" y="-371.68" font-family="Times,serif" font-size="14.00">Laplace</text>
</g>
<!-- b_fourier&#45;&gt;seasonality -->
<g id="edge3" class="edge">
<title>b_fourier&#45;&gt;seasonality</title>
<path fill="none" stroke="black" d="M707.36,-355.79C698.04,-342.97 685.7,-329.6 671,-321.91 614.49,-292.36 431.56,-288.11 337.31,-287.96"/>
<polygon fill="black" stroke="black" points="337.51,-284.46 327.51,-287.96 337.51,-291.46 337.51,-284.46"/>
</g>
</g>
</svg>
