<?xml version="1.0" encoding="UTF-8" standalone="no"?>
<!DOCTYPE svg PUBLIC "-//W3C//DTD SVG 1.1//EN"
 "http://www.w3.org/Graphics/SVG/1.1/DTD/svg11.dtd">
<!-- Generated by graphviz version 3.0.0 (20220226.1711)
 -->
<!-- Pages: 1 -->
<svg width="890pt" height="663pt"
 viewBox="0.00 0.00 890.13 662.79" xmlns="http://www.w3.org/2000/svg" xmlns:xlink="http://www.w3.org/1999/xlink">
<g id="graph0" class="graph" transform="scale(1 1) rotate(0) translate(4 658.79)">
<polygon fill="white" stroke="transparent" points="-4,4 -4,-658.79 886.13,-658.79 886.13,4 -4,4"/>
<g id="clust1" class="cluster">
<title>clusterdate (179)</title>
<path fill="none" stroke="black" d="M106.13,-8C106.13,-8 408.13,-8 408.13,-8 414.13,-8 420.13,-14 420.13,-20 420.13,-20 420.13,-634.79 420.13,-634.79 420.13,-640.79 414.13,-646.79 408.13,-646.79 408.13,-646.79 106.13,-646.79 106.13,-646.79 100.13,-646.79 94.13,-640.79 94.13,-634.79 94.13,-634.79 94.13,-20 94.13,-20 94.13,-14 100.13,-8 106.13,-8"/>
<text text-anchor="middle" x="384.13" y="-15.8" font-family="Times,serif" font-size="14.00">date (179)</text>
</g>
<g id="clust2" class="cluster">
<title>clusterfourier_mode (14)</title>
<path fill="none" stroke="black" d="M769.13,-321.91C769.13,-321.91 862.13,-321.91 862.13,-321.91 868.13,-321.91 874.13,-327.91 874.13,-333.91 874.13,-333.91 874.13,-423.86 874.13,-423.86 874.13,-429.86 868.13,-435.86 862.13,-435.86 862.13,-435.86 769.13,-435.86 769.13,-435.86 763.13,-435.86 757.13,-429.86 757.13,-423.86 757.13,-423.86 757.13,-333.91 757.13,-333.91 757.13,-327.91 763.13,-321.91 769.13,-321.91"/>
<text text-anchor="middle" x="815.63" y="-329.71" font-family="Times,serif" font-size="14.00">fourier_mode (14)</text>
</g>
<!-- z_effect -->
<g id="node1" class="node">
<title>z_effect</title>
<polygon fill="none" stroke="black" points="193.63,-313.91 102.63,-313.91 102.63,-260.91 193.63,-260.91 193.63,-313.91"/>
<text text-anchor="middle" x="148.13" y="-298.71" font-family="Times,serif" font-size="14.00">z_effect</text>
<text text-anchor="middle" x="148.13" y="-283.71" font-family="Times,serif" font-size="14.00">~</text>
<text text-anchor="middle" x="148.13" y="-268.71" font-family="Times,serif" font-size="14.00">Deterministic</text>
</g>
<!-- mu -->
<g id="node4" class="node">
<title>mu</title>
<polygon fill="none" stroke="black" points="302.63,-213.93 211.63,-213.93 211.63,-160.93 302.63,-160.93 302.63,-213.93"/>
<text text-anchor="middle" x="257.13" y="-198.73" font-family="Times,serif" font-size="14.00">mu</text>
<text text-anchor="middle" x="257.13" y="-183.73" font-family="Times,serif" font-size="14.00">~</text>
<text text-anchor="middle" x="257.13" y="-168.73" font-family="Times,serif" font-size="14.00">Deterministic</text>
</g>
<!-- z_effect&#45;&gt;mu -->
<g id="edge10" class="edge">
<title>z_effect&#45;&gt;mu</title>
<path fill="none" stroke="black" d="M176.77,-260.66C190.29,-248.51 206.57,-233.88 220.93,-220.97"/>
<polygon fill="black" stroke="black" points="223.59,-223.29 228.69,-214 218.91,-218.08 223.59,-223.29"/>
</g>
<!-- z_adstock -->
<g id="node2" class="node">
<title>z_adstock</title>
<polygon fill="none" stroke="black" points="400.63,-527.84 309.63,-527.84 309.63,-474.84 400.63,-474.84 400.63,-527.84"/>
<text text-anchor="middle" x="355.13" y="-512.64" font-family="Times,serif" font-size="14.00">z_adstock</text>
<text text-anchor="middle" x="355.13" y="-497.64" font-family="Times,serif" font-size="14.00">~</text>
<text text-anchor="middle" x="355.13" y="-482.64" font-family="Times,serif" font-size="14.00">Deterministic</text>
</g>
<!-- z_adstock_saturated -->
<g id="node3" class="node">
<title>z_adstock_saturated</title>
<polygon fill="none" stroke="black" points="410.13,-416.88 284.13,-416.88 284.13,-363.88 410.13,-363.88 410.13,-416.88"/>
<text text-anchor="middle" x="347.13" y="-401.68" font-family="Times,serif" font-size="14.00">z_adstock_saturated</text>
<text text-anchor="middle" x="347.13" y="-386.68" font-family="Times,serif" font-size="14.00">~</text>
<text text-anchor="middle" x="347.13" y="-371.68" font-family="Times,serif" font-size="14.00">Deterministic</text>
</g>
<!-- z_adstock&#45;&gt;z_adstock_saturated -->
<g id="edge6" class="edge">
<title>z_adstock&#45;&gt;z_adstock_saturated</title>
<path fill="none" stroke="black" d="M353.26,-474.79C352.22,-460.69 350.92,-442.94 349.78,-427.44"/>
<polygon fill="black" stroke="black" points="353.25,-426.86 349.03,-417.15 346.27,-427.37 353.25,-426.86"/>
</g>
<!-- z_adstock_saturated&#45;&gt;z_effect -->
<g id="edge9" class="edge">
<title>z_adstock_saturated&#45;&gt;z_effect</title>
<path fill="none" stroke="black" d="M296.66,-363.77C268.09,-349.27 232.32,-331.13 203.05,-316.27"/>
<polygon fill="black" stroke="black" points="204.29,-312.98 193.79,-311.57 201.12,-319.22 204.29,-312.98"/>
</g>
<!-- likelihood -->
<g id="node5" class="node">
<title>likelihood</title>
<ellipse fill="lightgrey" stroke="black" cx="257.13" cy="-76.48" rx="50.41" ry="37.45"/>
<text text-anchor="middle" x="257.13" y="-87.78" font-family="Times,serif" font-size="14.00">likelihood</text>
<text text-anchor="middle" x="257.13" y="-72.78" font-family="Times,serif" font-size="14.00">~</text>
<text text-anchor="middle" x="257.13" y="-57.78" font-family="Times,serif" font-size="14.00">StudentT</text>
</g>
<!-- mu&#45;&gt;likelihood -->
<g id="edge14" class="edge">
<title>mu&#45;&gt;likelihood</title>
<path fill="none" stroke="black" d="M257.13,-160.89C257.13,-149.98 257.13,-136.89 257.13,-124.35"/>
<polygon fill="black" stroke="black" points="260.63,-124 257.13,-114 253.63,-124 260.63,-124"/>
</g>
<!-- trend -->
<g id="node6" class="node">
<title>trend</title>
<polygon fill="none" stroke="black" points="302.63,-313.91 211.63,-313.91 211.63,-260.91 302.63,-260.91 302.63,-313.91"/>
<text text-anchor="middle" x="257.13" y="-298.71" font-family="Times,serif" font-size="14.00">trend</text>
<text text-anchor="middle" x="257.13" y="-283.71" font-family="Times,serif" font-size="14.00">~</text>
<text text-anchor="middle" x="257.13" y="-268.71" font-family="Times,serif" font-size="14.00">Deterministic</text>
</g>
<!-- trend&#45;&gt;mu -->
<g id="edge11" class="edge">
<title>trend&#45;&gt;mu</title>
<path fill="none" stroke="black" d="M257.13,-260.66C257.13,-249.53 257.13,-236.3 257.13,-224.23"/>
<polygon fill="black" stroke="black" points="260.63,-224 257.13,-214 253.63,-224 260.63,-224"/>
</g>
<!-- seasonality -->
<g id="node7" class="node">
<title>seasonality</title>
<polygon fill="none" stroke="black" points="411.63,-313.91 320.63,-313.91 320.63,-260.91 411.63,-260.91 411.63,-313.91"/>
<text text-anchor="middle" x="366.13" y="-298.71" font-family="Times,serif" font-size="14.00">seasonality</text>
<text text-anchor="middle" x="366.13" y="-283.71" font-family="Times,serif" font-size="14.00">~</text>
<text text-anchor="middle" x="366.13" y="-268.71" font-family="Times,serif" font-size="14.00">Deterministic</text>
</g>
<!-- seasonality&#45;&gt;mu -->
<g id="edge12" class="edge">
<title>seasonality&#45;&gt;mu</title>
<path fill="none" stroke="black" d="M337.5,-260.66C323.98,-248.51 307.7,-233.88 293.33,-220.97"/>
<polygon fill="black" stroke="black" points="295.36,-218.08 285.58,-214 290.68,-223.29 295.36,-218.08"/>
</g>
<!-- z_scaled -->
<g id="node8" class="node">
<title>z_scaled</title>
<path fill="lightgrey" stroke="black" d="M387.13,-638.79C387.13,-638.79 323.13,-638.79 323.13,-638.79 317.13,-638.79 311.13,-632.79 311.13,-626.79 311.13,-626.79 311.13,-597.79 311.13,-597.79 311.13,-591.79 317.13,-585.79 323.13,-585.79 323.13,-585.79 387.13,-585.79 387.13,-585.79 393.13,-585.79 399.13,-591.79 399.13,-597.79 399.13,-597.79 399.13,-626.79 399.13,-626.79 399.13,-632.79 393.13,-638.79 387.13,-638.79"/>
<text text-anchor="middle" x="355.13" y="-623.59" font-family="Times,serif" font-size="14.00">z_scaled</text>
<text text-anchor="middle" x="355.13" y="-608.59" font-family="Times,serif" font-size="14.00">~</text>
<text text-anchor="middle" x="355.13" y="-593.59" font-family="Times,serif" font-size="14.00">MutableData</text>
</g>
<!-- z_scaled&#45;&gt;z_adstock -->
<g id="edge5" class="edge">
<title>z_scaled&#45;&gt;z_adstock</title>
<path fill="none" stroke="black" d="M355.13,-585.75C355.13,-571.64 355.13,-553.89 355.13,-538.39"/>
<polygon fill="black" stroke="black" points="358.63,-538.1 355.13,-528.1 351.63,-538.1 358.63,-538.1"/>
</g>
<!-- alpha -->
<g id="node9" class="node">
<title>alpha</title>
<ellipse fill="none" stroke="black" cx="461.13" cy="-612.29" rx="32.55" ry="37.45"/>
<text text-anchor="middle" x="461.13" y="-623.59" font-family="Times,serif" font-size="14.00">alpha</text>
<text text-anchor="middle" x="461.13" y="-608.59" font-family="Times,serif" font-size="14.00">~</text>
<text text-anchor="middle" x="461.13" y="-593.59" font-family="Times,serif" font-size="14.00">Beta</text>
</g>
<!-- alpha&#45;&gt;z_adstock -->
<g id="edge4" class="edge">
<title>alpha&#45;&gt;z_adstock</title>
<path fill="none" stroke="black" d="M437.08,-586.57C422.35,-571.43 403.33,-551.87 387.32,-535.42"/>
<polygon fill="black" stroke="black" points="389.68,-532.83 380.2,-528.1 384.66,-537.71 389.68,-532.83"/>
</g>
<!-- lam -->
<g id="node10" class="node">
<title>lam</title>
<ellipse fill="none" stroke="black" cx="471.13" cy="-501.34" rx="43.27" ry="37.45"/>
<text text-anchor="middle" x="471.13" y="-512.64" font-family="Times,serif" font-size="14.00">lam</text>
<text text-anchor="middle" x="471.13" y="-497.64" font-family="Times,serif" font-size="14.00">~</text>
<text text-anchor="middle" x="471.13" y="-482.64" font-family="Times,serif" font-size="14.00">Gamma</text>
</g>
<!-- lam&#45;&gt;z_adstock_saturated -->
<g id="edge7" class="edge">
<title>lam&#45;&gt;z_adstock_saturated</title>
<path fill="none" stroke="black" d="M441.12,-473.96C423.93,-458.86 402.23,-439.8 384.02,-423.79"/>
<polygon fill="black" stroke="black" points="386.27,-421.11 376.45,-417.14 381.65,-426.37 386.27,-421.11"/>
</g>
<!-- b_z -->
<g id="node11" class="node">
<title>b_z</title>
<ellipse fill="none" stroke="black" cx="487.13" cy="-390.38" rx="58.88" ry="37.45"/>
<text text-anchor="middle" x="487.13" y="-401.68" font-family="Times,serif" font-size="14.00">b_z</text>
<text text-anchor="middle" x="487.13" y="-386.68" font-family="Times,serif" font-size="14.00">~</text>
<text text-anchor="middle" x="487.13" y="-371.68" font-family="Times,serif" font-size="14.00">HalfNormal</text>
</g>
<!-- b_z&#45;&gt;z_effect -->
<g id="edge8" class="edge">
<title>b_z&#45;&gt;z_effect</title>
<path fill="none" stroke="black" d="M464.68,-355.71C454.06,-342.71 440.17,-329.22 424.13,-321.91 403.48,-312.49 252.77,-318.53 203.78,-312.87"/>
<polygon fill="black" stroke="black" points="204.3,-309.41 193.87,-311.22 203.15,-316.32 204.3,-309.41"/>
</g>
<!-- a -->
<g id="node12" class="node">
<title>a</title>
<ellipse fill="none" stroke="black" cx="605.13" cy="-390.38" rx="41.94" ry="37.45"/>
<text text-anchor="middle" x="605.13" y="-401.68" font-family="Times,serif" font-size="14.00">a</text>
<text text-anchor="middle" x="605.13" y="-386.68" font-family="Times,serif" font-size="14.00">~</text>
<text text-anchor="middle" x="605.13" y="-371.68" font-family="Times,serif" font-size="14.00">Normal</text>
</g>
<!-- a&#45;&gt;trend -->
<g id="edge1" class="edge">
<title>a&#45;&gt;trend</title>
<path fill="none" stroke="black" d="M588.75,-355.84C580.57,-342.86 569.34,-329.36 555.13,-321.91 532.94,-310.27 365.4,-318.72 312.91,-312.87"/>
<polygon fill="black" stroke="black" points="313.3,-309.39 302.86,-311.23 312.17,-316.3 313.3,-309.39"/>
</g>
<!-- b_trend -->
<g id="node13" class="node">
<title>b_trend</title>
<ellipse fill="none" stroke="black" cx="706.13" cy="-390.38" rx="41.94" ry="37.45"/>
<text text-anchor="middle" x="706.13" y="-401.68" font-family="Times,serif" font-size="14.00">b_trend</text>
<text text-anchor="middle" x="706.13" y="-386.68" font-family="Times,serif" font-size="14.00">~</text>
<text text-anchor="middle" x="706.13" y="-371.68" font-family="Times,serif" font-size="14.00">Normal</text>
</g>
<!-- b_trend&#45;&gt;trend -->
<g id="edge2" class="edge">
<title>b_trend&#45;&gt;trend</title>
<path fill="none" stroke="black" d="M689.79,-355.78C681.61,-342.78 670.37,-329.29 656.13,-321.91 624.11,-305.31 379.51,-320.62 312.85,-312.91"/>
<polygon fill="black" stroke="black" points="313.29,-309.44 302.85,-311.26 312.15,-316.35 313.29,-309.44"/>
</g>
<!-- nu -->
<g id="node14" class="node">
<title>nu</title>
<ellipse fill="none" stroke="black" cx="43.13" cy="-187.43" rx="43.27" ry="37.45"/>
<text text-anchor="middle" x="43.13" y="-198.73" font-family="Times,serif" font-size="14.00">nu</text>
<text text-anchor="middle" x="43.13" y="-183.73" font-family="Times,serif" font-size="14.00">~</text>
<text text-anchor="middle" x="43.13" y="-168.73" font-family="Times,serif" font-size="14.00">Gamma</text>
</g>
<!-- nu&#45;&gt;likelihood -->
<g id="edge15" class="edge">
<title>nu&#45;&gt;likelihood</title>
<path fill="none" stroke="black" d="M73.71,-160.96C79.03,-157.04 84.62,-153.22 90.13,-149.95 125.9,-128.77 168.99,-110.22 202.44,-97.2"/>
<polygon fill="black" stroke="black" points="203.97,-100.36 212.05,-93.5 201.46,-93.82 203.97,-100.36"/>
</g>
<!-- sigma -->
<g id="node15" class="node">
<title>sigma</title>
<ellipse fill="none" stroke="black" cx="487.13" cy="-187.43" rx="58.88" ry="37.45"/>
<text text-anchor="middle" x="487.13" y="-198.73" font-family="Times,serif" font-size="14.00">sigma</text>
<text text-anchor="middle" x="487.13" y="-183.73" font-family="Times,serif" font-size="14.00">~</text>
<text text-anchor="middle" x="487.13" y="-168.73" font-family="Times,serif" font-size="14.00">HalfNormal</text>
</g>
<!-- sigma&#45;&gt;likelihood -->
<g id="edge13" class="edge">
<title>sigma&#45;&gt;likelihood</title>
<path fill="none" stroke="black" d="M445.14,-161.22C438.2,-157.31 431.02,-153.43 424.13,-149.95 386.89,-131.17 343.67,-112.49 310.52,-98.8"/>
<polygon fill="black" stroke="black" points="311.6,-95.46 301.02,-94.9 308.94,-101.93 311.6,-95.46"/>
</g>
<!-- b_fourier -->
<g id="node16" class="node">
<title>b_fourier</title>
<ellipse fill="none" stroke="black" cx="813.13" cy="-390.38" rx="47.25" ry="37.45"/>
<text text-anchor="middle" x="813.13" y="-401.68" font-family="Times,serif" font-size="14.00">b_fourier</text>
<text text-anchor="middle" x="813.13" y="-386.68" font-family="Times,serif" font-size="14.00">~</text>
<text text-anchor="middle" x="813.13" y="-371.68" font-family="Times,serif" font-size="14.00">Laplace</text>
</g>
<!-- b_fourier&#45;&gt;seasonality -->
<g id="edge3" class="edge">
<title>b_fourier&#45;&gt;seasonality</title>
<path fill="none" stroke="black" d="M793.75,-356.15C784.4,-343.22 771.97,-329.67 757.13,-321.91 700.32,-292.2 515.73,-288.07 421.94,-287.96"/>
<polygon fill="black" stroke="black" points="421.78,-284.46 411.78,-287.96 421.78,-291.46 421.78,-284.46"/>
</g>
</g>
</svg>
