<?xml version="1.0" encoding="utf-8" standalone="no"?>
<!DOCTYPE svg PUBLIC "-//W3C//DTD SVG 1.1//EN"
  "http://www.w3.org/Graphics/SVG/1.1/DTD/svg11.dtd">
<svg xmlns:xlink="http://www.w3.org/1999/xlink" width="725.878128pt" height="401.628625pt" viewBox="0 0 725.878128 401.628625" xmlns="http://www.w3.org/2000/svg" version="1.1">
 <metadata>
  <rdf:RDF xmlns:dc="http://purl.org/dc/elements/1.1/" xmlns:cc="http://creativecommons.org/ns#" xmlns:rdf="http://www.w3.org/1999/02/22-rdf-syntax-ns#">
   <cc:Work>
    <dc:type rdf:resource="http://purl.org/dc/dcmitype/StillImage"/>
    <dc:date>2022-04-07T21:41:17.224050</dc:date>
    <dc:format>image/svg+xml</dc:format>
    <dc:creator>
     <cc:Agent>
      <dc:title>Matplotlib v3.5.1, https://matplotlib.org/</dc:title>
     </cc:Agent>
    </dc:creator>
   </cc:Work>
  </rdf:RDF>
 </metadata>
 <defs>
  <style type="text/css">*{stroke-linejoin: round; stroke-linecap: butt}</style>
 </defs>
 <g id="figure_1">
  <g id="patch_1">
   <path d="M 0 401.628625 
L 725.878128 401.628625 
L 725.878128 0 
L 0 0 
z
" style="fill: #f0f0f0"/>
  </g>
  <g id="axes_1">
   <g id="patch_2">
    <path d="M 66.58925 357.12 
L 692.98925 357.12 
L 692.98925 7.2 
L 66.58925 7.2 
z
" style="fill: #eeeeee"/>
   </g>
   <g id="matplotlib.axis_1">
    <g id="xtick_1">
     <g id="line2d_1">
      <path d="M 111.077886 357.12 
L 111.077886 7.2 
" clip-path="url(#p4483f1f3fa)" style="fill: none; stroke-dasharray: 1.85,0.8; stroke-dashoffset: 0; stroke: #b2b2b2; stroke-width: 0.5"/>
     </g>
     <g id="line2d_2"/>
     <g id="text_1">
      <!-- 2017-05 -->
      <g transform="translate(81.829918 371.257813)scale(0.14 -0.14)">
       <defs>
        <path id="DejaVuSans-32" d="M 1228 531 
L 3431 531 
L 3431 0 
L 469 0 
L 469 531 
Q 828 903 1448 1529 
Q 2069 2156 2228 2338 
Q 2531 2678 2651 2914 
Q 2772 3150 2772 3378 
Q 2772 3750 2511 3984 
Q 2250 4219 1831 4219 
Q 1534 4219 1204 4116 
Q 875 4013 500 3803 
L 500 4441 
Q 881 4594 1212 4672 
Q 1544 4750 1819 4750 
Q 2544 4750 2975 4387 
Q 3406 4025 3406 3419 
Q 3406 3131 3298 2873 
Q 3191 2616 2906 2266 
Q 2828 2175 2409 1742 
Q 1991 1309 1228 531 
z
" transform="scale(0.015625)"/>
        <path id="DejaVuSans-30" d="M 2034 4250 
Q 1547 4250 1301 3770 
Q 1056 3291 1056 2328 
Q 1056 1369 1301 889 
Q 1547 409 2034 409 
Q 2525 409 2770 889 
Q 3016 1369 3016 2328 
Q 3016 3291 2770 3770 
Q 2525 4250 2034 4250 
z
M 2034 4750 
Q 2819 4750 3233 4129 
Q 3647 3509 3647 2328 
Q 3647 1150 3233 529 
Q 2819 -91 2034 -91 
Q 1250 -91 836 529 
Q 422 1150 422 2328 
Q 422 3509 836 4129 
Q 1250 4750 2034 4750 
z
" transform="scale(0.015625)"/>
        <path id="DejaVuSans-31" d="M 794 531 
L 1825 531 
L 1825 4091 
L 703 3866 
L 703 4441 
L 1819 4666 
L 2450 4666 
L 2450 531 
L 3481 531 
L 3481 0 
L 794 0 
L 794 531 
z
" transform="scale(0.015625)"/>
        <path id="DejaVuSans-37" d="M 525 4666 
L 3525 4666 
L 3525 4397 
L 1831 0 
L 1172 0 
L 2766 4134 
L 525 4134 
L 525 4666 
z
" transform="scale(0.015625)"/>
        <path id="DejaVuSans-2d" d="M 313 2009 
L 1997 2009 
L 1997 1497 
L 313 1497 
L 313 2009 
z
" transform="scale(0.015625)"/>
        <path id="DejaVuSans-35" d="M 691 4666 
L 3169 4666 
L 3169 4134 
L 1269 4134 
L 1269 2991 
Q 1406 3038 1543 3061 
Q 1681 3084 1819 3084 
Q 2600 3084 3056 2656 
Q 3513 2228 3513 1497 
Q 3513 744 3044 326 
Q 2575 -91 1722 -91 
Q 1428 -91 1123 -41 
Q 819 9 494 109 
L 494 744 
Q 775 591 1075 516 
Q 1375 441 1709 441 
Q 2250 441 2565 725 
Q 2881 1009 2881 1497 
Q 2881 1984 2565 2268 
Q 2250 2553 1709 2553 
Q 1456 2553 1204 2497 
Q 953 2441 691 2322 
L 691 4666 
z
" transform="scale(0.015625)"/>
       </defs>
       <use xlink:href="#DejaVuSans-32"/>
       <use xlink:href="#DejaVuSans-30" x="63.623047"/>
       <use xlink:href="#DejaVuSans-31" x="127.246094"/>
       <use xlink:href="#DejaVuSans-37" x="190.869141"/>
       <use xlink:href="#DejaVuSans-2d" x="254.492188"/>
       <use xlink:href="#DejaVuSans-30" x="290.576172"/>
       <use xlink:href="#DejaVuSans-35" x="354.199219"/>
      </g>
     </g>
    </g>
    <g id="xtick_2">
     <g id="line2d_3">
      <path d="M 184.03925 357.12 
L 184.03925 7.2 
" clip-path="url(#p4483f1f3fa)" style="fill: none; stroke-dasharray: 1.85,0.8; stroke-dashoffset: 0; stroke: #b2b2b2; stroke-width: 0.5"/>
     </g>
     <g id="line2d_4"/>
     <g id="text_2">
      <!-- 2017-09 -->
      <g transform="translate(154.791281 371.257813)scale(0.14 -0.14)">
       <defs>
        <path id="DejaVuSans-39" d="M 703 97 
L 703 672 
Q 941 559 1184 500 
Q 1428 441 1663 441 
Q 2288 441 2617 861 
Q 2947 1281 2994 2138 
Q 2813 1869 2534 1725 
Q 2256 1581 1919 1581 
Q 1219 1581 811 2004 
Q 403 2428 403 3163 
Q 403 3881 828 4315 
Q 1253 4750 1959 4750 
Q 2769 4750 3195 4129 
Q 3622 3509 3622 2328 
Q 3622 1225 3098 567 
Q 2575 -91 1691 -91 
Q 1453 -91 1209 -44 
Q 966 3 703 97 
z
M 1959 2075 
Q 2384 2075 2632 2365 
Q 2881 2656 2881 3163 
Q 2881 3666 2632 3958 
Q 2384 4250 1959 4250 
Q 1534 4250 1286 3958 
Q 1038 3666 1038 3163 
Q 1038 2656 1286 2365 
Q 1534 2075 1959 2075 
z
" transform="scale(0.015625)"/>
       </defs>
       <use xlink:href="#DejaVuSans-32"/>
       <use xlink:href="#DejaVuSans-30" x="63.623047"/>
       <use xlink:href="#DejaVuSans-31" x="127.246094"/>
       <use xlink:href="#DejaVuSans-37" x="190.869141"/>
       <use xlink:href="#DejaVuSans-2d" x="254.492188"/>
       <use xlink:href="#DejaVuSans-30" x="290.576172"/>
       <use xlink:href="#DejaVuSans-39" x="354.199219"/>
      </g>
     </g>
    </g>
    <g id="xtick_3">
     <g id="line2d_5">
      <path d="M 256.407432 357.12 
L 256.407432 7.2 
" clip-path="url(#p4483f1f3fa)" style="fill: none; stroke-dasharray: 1.85,0.8; stroke-dashoffset: 0; stroke: #b2b2b2; stroke-width: 0.5"/>
     </g>
     <g id="line2d_6"/>
     <g id="text_3">
      <!-- 2018-01 -->
      <g transform="translate(227.159463 371.257813)scale(0.14 -0.14)">
       <defs>
        <path id="DejaVuSans-38" d="M 2034 2216 
Q 1584 2216 1326 1975 
Q 1069 1734 1069 1313 
Q 1069 891 1326 650 
Q 1584 409 2034 409 
Q 2484 409 2743 651 
Q 3003 894 3003 1313 
Q 3003 1734 2745 1975 
Q 2488 2216 2034 2216 
z
M 1403 2484 
Q 997 2584 770 2862 
Q 544 3141 544 3541 
Q 544 4100 942 4425 
Q 1341 4750 2034 4750 
Q 2731 4750 3128 4425 
Q 3525 4100 3525 3541 
Q 3525 3141 3298 2862 
Q 3072 2584 2669 2484 
Q 3125 2378 3379 2068 
Q 3634 1759 3634 1313 
Q 3634 634 3220 271 
Q 2806 -91 2034 -91 
Q 1263 -91 848 271 
Q 434 634 434 1313 
Q 434 1759 690 2068 
Q 947 2378 1403 2484 
z
M 1172 3481 
Q 1172 3119 1398 2916 
Q 1625 2713 2034 2713 
Q 2441 2713 2670 2916 
Q 2900 3119 2900 3481 
Q 2900 3844 2670 4047 
Q 2441 4250 2034 4250 
Q 1625 4250 1398 4047 
Q 1172 3844 1172 3481 
z
" transform="scale(0.015625)"/>
       </defs>
       <use xlink:href="#DejaVuSans-32"/>
       <use xlink:href="#DejaVuSans-30" x="63.623047"/>
       <use xlink:href="#DejaVuSans-31" x="127.246094"/>
       <use xlink:href="#DejaVuSans-38" x="190.869141"/>
       <use xlink:href="#DejaVuSans-2d" x="254.492188"/>
       <use xlink:href="#DejaVuSans-30" x="290.576172"/>
       <use xlink:href="#DejaVuSans-31" x="354.199219"/>
      </g>
     </g>
    </g>
    <g id="xtick_4">
     <g id="line2d_7">
      <path d="M 327.58925 357.12 
L 327.58925 7.2 
" clip-path="url(#p4483f1f3fa)" style="fill: none; stroke-dasharray: 1.85,0.8; stroke-dashoffset: 0; stroke: #b2b2b2; stroke-width: 0.5"/>
     </g>
     <g id="line2d_8"/>
     <g id="text_4">
      <!-- 2018-05 -->
      <g transform="translate(298.341281 371.257813)scale(0.14 -0.14)">
       <use xlink:href="#DejaVuSans-32"/>
       <use xlink:href="#DejaVuSans-30" x="63.623047"/>
       <use xlink:href="#DejaVuSans-31" x="127.246094"/>
       <use xlink:href="#DejaVuSans-38" x="190.869141"/>
       <use xlink:href="#DejaVuSans-2d" x="254.492188"/>
       <use xlink:href="#DejaVuSans-30" x="290.576172"/>
       <use xlink:href="#DejaVuSans-35" x="354.199219"/>
      </g>
     </g>
    </g>
    <g id="xtick_5">
     <g id="line2d_9">
      <path d="M 400.550614 357.12 
L 400.550614 7.2 
" clip-path="url(#p4483f1f3fa)" style="fill: none; stroke-dasharray: 1.85,0.8; stroke-dashoffset: 0; stroke: #b2b2b2; stroke-width: 0.5"/>
     </g>
     <g id="line2d_10"/>
     <g id="text_5">
      <!-- 2018-09 -->
      <g transform="translate(371.302645 371.257813)scale(0.14 -0.14)">
       <use xlink:href="#DejaVuSans-32"/>
       <use xlink:href="#DejaVuSans-30" x="63.623047"/>
       <use xlink:href="#DejaVuSans-31" x="127.246094"/>
       <use xlink:href="#DejaVuSans-38" x="190.869141"/>
       <use xlink:href="#DejaVuSans-2d" x="254.492188"/>
       <use xlink:href="#DejaVuSans-30" x="290.576172"/>
       <use xlink:href="#DejaVuSans-39" x="354.199219"/>
      </g>
     </g>
    </g>
    <g id="xtick_6">
     <g id="line2d_11">
      <path d="M 472.918795 357.12 
L 472.918795 7.2 
" clip-path="url(#p4483f1f3fa)" style="fill: none; stroke-dasharray: 1.85,0.8; stroke-dashoffset: 0; stroke: #b2b2b2; stroke-width: 0.5"/>
     </g>
     <g id="line2d_12"/>
     <g id="text_6">
      <!-- 2019-01 -->
      <g transform="translate(443.670827 371.257813)scale(0.14 -0.14)">
       <use xlink:href="#DejaVuSans-32"/>
       <use xlink:href="#DejaVuSans-30" x="63.623047"/>
       <use xlink:href="#DejaVuSans-31" x="127.246094"/>
       <use xlink:href="#DejaVuSans-39" x="190.869141"/>
       <use xlink:href="#DejaVuSans-2d" x="254.492188"/>
       <use xlink:href="#DejaVuSans-30" x="290.576172"/>
       <use xlink:href="#DejaVuSans-31" x="354.199219"/>
      </g>
     </g>
    </g>
    <g id="xtick_7">
     <g id="line2d_13">
      <path d="M 544.100614 357.12 
L 544.100614 7.2 
" clip-path="url(#p4483f1f3fa)" style="fill: none; stroke-dasharray: 1.85,0.8; stroke-dashoffset: 0; stroke: #b2b2b2; stroke-width: 0.5"/>
     </g>
     <g id="line2d_14"/>
     <g id="text_7">
      <!-- 2019-05 -->
      <g transform="translate(514.852645 371.257813)scale(0.14 -0.14)">
       <use xlink:href="#DejaVuSans-32"/>
       <use xlink:href="#DejaVuSans-30" x="63.623047"/>
       <use xlink:href="#DejaVuSans-31" x="127.246094"/>
       <use xlink:href="#DejaVuSans-39" x="190.869141"/>
       <use xlink:href="#DejaVuSans-2d" x="254.492188"/>
       <use xlink:href="#DejaVuSans-30" x="290.576172"/>
       <use xlink:href="#DejaVuSans-35" x="354.199219"/>
      </g>
     </g>
    </g>
    <g id="xtick_8">
     <g id="line2d_15">
      <path d="M 617.061977 357.12 
L 617.061977 7.2 
" clip-path="url(#p4483f1f3fa)" style="fill: none; stroke-dasharray: 1.85,0.8; stroke-dashoffset: 0; stroke: #b2b2b2; stroke-width: 0.5"/>
     </g>
     <g id="line2d_16"/>
     <g id="text_8">
      <!-- 2019-09 -->
      <g transform="translate(587.814009 371.257813)scale(0.14 -0.14)">
       <use xlink:href="#DejaVuSans-32"/>
       <use xlink:href="#DejaVuSans-30" x="63.623047"/>
       <use xlink:href="#DejaVuSans-31" x="127.246094"/>
       <use xlink:href="#DejaVuSans-39" x="190.869141"/>
       <use xlink:href="#DejaVuSans-2d" x="254.492188"/>
       <use xlink:href="#DejaVuSans-30" x="290.576172"/>
       <use xlink:href="#DejaVuSans-39" x="354.199219"/>
      </g>
     </g>
    </g>
    <g id="xtick_9">
     <g id="line2d_17">
      <path d="M 689.430159 357.12 
L 689.430159 7.2 
" clip-path="url(#p4483f1f3fa)" style="fill: none; stroke-dasharray: 1.85,0.8; stroke-dashoffset: 0; stroke: #b2b2b2; stroke-width: 0.5"/>
     </g>
     <g id="line2d_18"/>
     <g id="text_9">
      <!-- 2020-01 -->
      <g transform="translate(660.18219 371.257813)scale(0.14 -0.14)">
       <use xlink:href="#DejaVuSans-32"/>
       <use xlink:href="#DejaVuSans-30" x="63.623047"/>
       <use xlink:href="#DejaVuSans-32" x="127.246094"/>
       <use xlink:href="#DejaVuSans-30" x="190.869141"/>
       <use xlink:href="#DejaVuSans-2d" x="254.492188"/>
       <use xlink:href="#DejaVuSans-30" x="290.576172"/>
       <use xlink:href="#DejaVuSans-31" x="354.199219"/>
      </g>
     </g>
    </g>
    <g id="text_10">
     <!-- date -->
     <g transform="translate(360.84725 390.93475)scale(0.168 -0.168)">
      <defs>
       <path id="DejaVuSans-64" d="M 2906 2969 
L 2906 4863 
L 3481 4863 
L 3481 0 
L 2906 0 
L 2906 525 
Q 2725 213 2448 61 
Q 2172 -91 1784 -91 
Q 1150 -91 751 415 
Q 353 922 353 1747 
Q 353 2572 751 3078 
Q 1150 3584 1784 3584 
Q 2172 3584 2448 3432 
Q 2725 3281 2906 2969 
z
M 947 1747 
Q 947 1113 1208 752 
Q 1469 391 1925 391 
Q 2381 391 2643 752 
Q 2906 1113 2906 1747 
Q 2906 2381 2643 2742 
Q 2381 3103 1925 3103 
Q 1469 3103 1208 2742 
Q 947 2381 947 1747 
z
" transform="scale(0.015625)"/>
       <path id="DejaVuSans-61" d="M 2194 1759 
Q 1497 1759 1228 1600 
Q 959 1441 959 1056 
Q 959 750 1161 570 
Q 1363 391 1709 391 
Q 2188 391 2477 730 
Q 2766 1069 2766 1631 
L 2766 1759 
L 2194 1759 
z
M 3341 1997 
L 3341 0 
L 2766 0 
L 2766 531 
Q 2569 213 2275 61 
Q 1981 -91 1556 -91 
Q 1019 -91 701 211 
Q 384 513 384 1019 
Q 384 1609 779 1909 
Q 1175 2209 1959 2209 
L 2766 2209 
L 2766 2266 
Q 2766 2663 2505 2880 
Q 2244 3097 1772 3097 
Q 1472 3097 1187 3025 
Q 903 2953 641 2809 
L 641 3341 
Q 956 3463 1253 3523 
Q 1550 3584 1831 3584 
Q 2591 3584 2966 3190 
Q 3341 2797 3341 1997 
z
" transform="scale(0.015625)"/>
       <path id="DejaVuSans-74" d="M 1172 4494 
L 1172 3500 
L 2356 3500 
L 2356 3053 
L 1172 3053 
L 1172 1153 
Q 1172 725 1289 603 
Q 1406 481 1766 481 
L 2356 481 
L 2356 0 
L 1766 0 
Q 1100 0 847 248 
Q 594 497 594 1153 
L 594 3053 
L 172 3053 
L 172 3500 
L 594 3500 
L 594 4494 
L 1172 4494 
z
" transform="scale(0.015625)"/>
       <path id="DejaVuSans-65" d="M 3597 1894 
L 3597 1613 
L 953 1613 
Q 991 1019 1311 708 
Q 1631 397 2203 397 
Q 2534 397 2845 478 
Q 3156 559 3463 722 
L 3463 178 
Q 3153 47 2828 -22 
Q 2503 -91 2169 -91 
Q 1331 -91 842 396 
Q 353 884 353 1716 
Q 353 2575 817 3079 
Q 1281 3584 2069 3584 
Q 2775 3584 3186 3129 
Q 3597 2675 3597 1894 
z
M 3022 2063 
Q 3016 2534 2758 2815 
Q 2500 3097 2075 3097 
Q 1594 3097 1305 2825 
Q 1016 2553 972 2059 
L 3022 2063 
z
" transform="scale(0.015625)"/>
      </defs>
      <use xlink:href="#DejaVuSans-64"/>
      <use xlink:href="#DejaVuSans-61" x="63.476562"/>
      <use xlink:href="#DejaVuSans-74" x="124.755859"/>
      <use xlink:href="#DejaVuSans-65" x="163.964844"/>
     </g>
    </g>
   </g>
   <g id="matplotlib.axis_2">
    <g id="ytick_1">
     <g id="line2d_19">
      <path d="M 66.58925 341.337844 
L 692.98925 341.337844 
" clip-path="url(#p4483f1f3fa)" style="fill: none; stroke-dasharray: 1.85,0.8; stroke-dashoffset: 0; stroke: #b2b2b2; stroke-width: 0.5"/>
     </g>
     <g id="line2d_20"/>
     <g id="text_11">
      <!-- 0 -->
      <g transform="translate(54.18175 346.65675)scale(0.14 -0.14)">
       <use xlink:href="#DejaVuSans-30"/>
      </g>
     </g>
    </g>
    <g id="ytick_2">
     <g id="line2d_21">
      <path d="M 66.58925 279.688795 
L 692.98925 279.688795 
" clip-path="url(#p4483f1f3fa)" style="fill: none; stroke-dasharray: 1.85,0.8; stroke-dashoffset: 0; stroke: #b2b2b2; stroke-width: 0.5"/>
     </g>
     <g id="line2d_22"/>
     <g id="text_12">
      <!-- 500 -->
      <g transform="translate(36.36675 285.007701)scale(0.14 -0.14)">
       <use xlink:href="#DejaVuSans-35"/>
       <use xlink:href="#DejaVuSans-30" x="63.623047"/>
       <use xlink:href="#DejaVuSans-30" x="127.246094"/>
      </g>
     </g>
    </g>
    <g id="ytick_3">
     <g id="line2d_23">
      <path d="M 66.58925 218.039746 
L 692.98925 218.039746 
" clip-path="url(#p4483f1f3fa)" style="fill: none; stroke-dasharray: 1.85,0.8; stroke-dashoffset: 0; stroke: #b2b2b2; stroke-width: 0.5"/>
     </g>
     <g id="line2d_24"/>
     <g id="text_13">
      <!-- 1000 -->
      <g transform="translate(27.45925 223.358653)scale(0.14 -0.14)">
       <use xlink:href="#DejaVuSans-31"/>
       <use xlink:href="#DejaVuSans-30" x="63.623047"/>
       <use xlink:href="#DejaVuSans-30" x="127.246094"/>
       <use xlink:href="#DejaVuSans-30" x="190.869141"/>
      </g>
     </g>
    </g>
    <g id="ytick_4">
     <g id="line2d_25">
      <path d="M 66.58925 156.390698 
L 692.98925 156.390698 
" clip-path="url(#p4483f1f3fa)" style="fill: none; stroke-dasharray: 1.85,0.8; stroke-dashoffset: 0; stroke: #b2b2b2; stroke-width: 0.5"/>
     </g>
     <g id="line2d_26"/>
     <g id="text_14">
      <!-- 1500 -->
      <g transform="translate(27.45925 161.709604)scale(0.14 -0.14)">
       <use xlink:href="#DejaVuSans-31"/>
       <use xlink:href="#DejaVuSans-35" x="63.623047"/>
       <use xlink:href="#DejaVuSans-30" x="127.246094"/>
       <use xlink:href="#DejaVuSans-30" x="190.869141"/>
      </g>
     </g>
    </g>
    <g id="ytick_5">
     <g id="line2d_27">
      <path d="M 66.58925 94.741649 
L 692.98925 94.741649 
" clip-path="url(#p4483f1f3fa)" style="fill: none; stroke-dasharray: 1.85,0.8; stroke-dashoffset: 0; stroke: #b2b2b2; stroke-width: 0.5"/>
     </g>
     <g id="line2d_28"/>
     <g id="text_15">
      <!-- 2000 -->
      <g transform="translate(27.45925 100.060555)scale(0.14 -0.14)">
       <use xlink:href="#DejaVuSans-32"/>
       <use xlink:href="#DejaVuSans-30" x="63.623047"/>
       <use xlink:href="#DejaVuSans-30" x="127.246094"/>
       <use xlink:href="#DejaVuSans-30" x="190.869141"/>
      </g>
     </g>
    </g>
    <g id="ytick_6">
     <g id="line2d_29">
      <path d="M 66.58925 33.0926 
L 692.98925 33.0926 
" clip-path="url(#p4483f1f3fa)" style="fill: none; stroke-dasharray: 1.85,0.8; stroke-dashoffset: 0; stroke: #b2b2b2; stroke-width: 0.5"/>
     </g>
     <g id="line2d_30"/>
     <g id="text_16">
      <!-- 2500 -->
      <g transform="translate(27.45925 38.411507)scale(0.14 -0.14)">
       <use xlink:href="#DejaVuSans-32"/>
       <use xlink:href="#DejaVuSans-35" x="63.623047"/>
       <use xlink:href="#DejaVuSans-30" x="127.246094"/>
       <use xlink:href="#DejaVuSans-30" x="190.869141"/>
      </g>
     </g>
    </g>
    <g id="text_17">
     <!-- count -->
     <g transform="translate(19.965375 205.8585)rotate(-90)scale(0.168 -0.168)">
      <defs>
       <path id="DejaVuSans-63" d="M 3122 3366 
L 3122 2828 
Q 2878 2963 2633 3030 
Q 2388 3097 2138 3097 
Q 1578 3097 1268 2742 
Q 959 2388 959 1747 
Q 959 1106 1268 751 
Q 1578 397 2138 397 
Q 2388 397 2633 464 
Q 2878 531 3122 666 
L 3122 134 
Q 2881 22 2623 -34 
Q 2366 -91 2075 -91 
Q 1284 -91 818 406 
Q 353 903 353 1747 
Q 353 2603 823 3093 
Q 1294 3584 2113 3584 
Q 2378 3584 2631 3529 
Q 2884 3475 3122 3366 
z
" transform="scale(0.015625)"/>
       <path id="DejaVuSans-6f" d="M 1959 3097 
Q 1497 3097 1228 2736 
Q 959 2375 959 1747 
Q 959 1119 1226 758 
Q 1494 397 1959 397 
Q 2419 397 2687 759 
Q 2956 1122 2956 1747 
Q 2956 2369 2687 2733 
Q 2419 3097 1959 3097 
z
M 1959 3584 
Q 2709 3584 3137 3096 
Q 3566 2609 3566 1747 
Q 3566 888 3137 398 
Q 2709 -91 1959 -91 
Q 1206 -91 779 398 
Q 353 888 353 1747 
Q 353 2609 779 3096 
Q 1206 3584 1959 3584 
z
" transform="scale(0.015625)"/>
       <path id="DejaVuSans-75" d="M 544 1381 
L 544 3500 
L 1119 3500 
L 1119 1403 
Q 1119 906 1312 657 
Q 1506 409 1894 409 
Q 2359 409 2629 706 
Q 2900 1003 2900 1516 
L 2900 3500 
L 3475 3500 
L 3475 0 
L 2900 0 
L 2900 538 
Q 2691 219 2414 64 
Q 2138 -91 1772 -91 
Q 1169 -91 856 284 
Q 544 659 544 1381 
z
M 1991 3584 
L 1991 3584 
z
" transform="scale(0.015625)"/>
       <path id="DejaVuSans-6e" d="M 3513 2113 
L 3513 0 
L 2938 0 
L 2938 2094 
Q 2938 2591 2744 2837 
Q 2550 3084 2163 3084 
Q 1697 3084 1428 2787 
Q 1159 2491 1159 1978 
L 1159 0 
L 581 0 
L 581 3500 
L 1159 3500 
L 1159 2956 
Q 1366 3272 1645 3428 
Q 1925 3584 2291 3584 
Q 2894 3584 3203 3211 
Q 3513 2838 3513 2113 
z
" transform="scale(0.015625)"/>
      </defs>
      <use xlink:href="#DejaVuSans-63"/>
      <use xlink:href="#DejaVuSans-6f" x="54.980469"/>
      <use xlink:href="#DejaVuSans-75" x="116.162109"/>
      <use xlink:href="#DejaVuSans-6e" x="179.541016"/>
      <use xlink:href="#DejaVuSans-74" x="242.919922"/>
     </g>
    </g>
   </g>
   <g id="line2d_31">
    <path d="M 95.061977 341.214545 
L 98.027886 341.214545 
L 98.621068 265.509514 
L 99.21425 271.181226 
L 99.807432 266.002706 
L 100.400614 276.359746 
L 100.993795 278.332516 
L 101.586977 298.18351 
L 102.180159 310.636617 
L 102.773341 230.986047 
L 103.366523 229.506469 
L 103.959705 253.672896 
L 104.552886 268.098774 
L 105.146068 266.989091 
L 106.332432 293.004989 
L 106.925614 288.936152 
L 107.518795 300.032981 
L 108.111977 302.498943 
L 108.705159 306.937674 
L 109.298341 301.635856 
L 109.891523 309.280338 
L 110.484705 311.006512 
L 111.077886 317.664609 
L 111.671068 316.678224 
L 112.26425 257.741734 
L 113.450614 223.094968 
L 114.043795 244.795433 
L 115.823341 295.840846 
L 116.416523 289.182748 
L 117.009705 292.018605 
L 117.602886 286.963383 
L 118.196068 292.141903 
L 118.78925 306.197886 
L 119.382432 144.923975 
L 120.568795 204.107061 
L 121.161977 217.423256 
L 121.755159 224.697844 
L 122.941523 270.564736 
L 123.534705 134.073742 
L 124.127886 150.102495 
L 124.721068 170.446681 
L 125.31425 128.648626 
L 125.907432 99.920169 
L 126.500614 134.443636 
L 127.093795 186.475433 
L 127.686977 202.380888 
L 128.280159 200.654715 
L 128.873341 214.957294 
L 129.466523 103.865708 
L 130.059705 98.070698 
L 130.652886 140.485243 
L 131.246068 198.928541 
L 131.83925 217.669852 
L 132.432432 219.76592 
L 133.025614 241.219789 
L 133.618795 245.65852 
L 134.211977 238.014038 
L 134.805159 251.330233 
L 135.398341 275.373362 
L 135.991523 282.524651 
L 136.584705 270.194841 
L 137.177886 277.346131 
L 137.771068 279.812093 
L 138.36425 279.195603 
L 138.957432 288.812854 
L 139.550614 293.251586 
L 140.143795 186.475433 
L 140.736977 175.995095 
L 141.330159 184.13277 
L 142.516523 194.859704 
L 143.702886 238.014038 
L 144.296068 112.373277 
L 145.482432 145.540465 
L 146.075614 177.104778 
L 146.668795 167.487526 
L 147.855159 226.547315 
L 148.448341 161.815814 
L 149.041523 155.157717 
L 149.634705 156.144101 
L 150.227886 160.336237 
L 150.821068 154.541226 
L 151.41425 179.694038 
L 152.007432 214.094207 
L 152.600614 127.169049 
L 153.193795 131.854376 
L 153.786977 147.389937 
L 154.380159 170.816575 
L 154.973341 167.117632 
L 155.566523 205.340042 
L 156.159705 232.095729 
L 156.752886 131.977674 
L 157.346068 140.238647 
L 157.93925 160.336237 
L 158.532432 169.460296 
L 159.125614 165.268161 
L 159.718795 214.5874 
L 160.311977 226.547315 
L 160.905159 126.305962 
L 161.498341 133.210655 
L 162.091523 152.568457 
L 162.684705 76.863425 
L 163.277886 69.342241 
L 163.871068 141.594926 
L 164.46425 184.009471 
L 165.057432 176.118393 
L 165.650614 171.926258 
L 166.243795 171.309767 
L 166.836977 161.692516 
L 167.430159 139.128964 
L 168.616523 188.324905 
L 169.209705 184.379366 
L 169.802886 178.830951 
L 170.396068 176.611586 
L 170.98925 175.625201 
L 171.582432 161.569218 
L 172.175614 192.393742 
L 172.768795 208.545793 
L 173.361977 201.147907 
L 173.955159 185.858943 
L 174.548341 192.147146 
L 175.141523 193.503425 
L 175.734705 168.104017 
L 176.327886 206.696321 
L 176.921068 219.642622 
L 177.51425 211.381649 
L 178.107432 220.505708 
L 178.700614 227.410402 
L 179.293795 225.067738 
L 179.886977 211.99814 
L 180.480159 231.232643 
L 181.073341 243.809049 
L 181.666523 235.794672 
L 182.259705 224.327949 
L 182.852886 230.492854 
L 183.446068 227.780296 
L 184.03925 235.424778 
L 184.632432 249.110867 
L 185.225614 255.645666 
L 185.818795 249.234165 
L 186.411977 239.370317 
L 187.005159 245.04203 
L 187.598341 238.383932 
L 188.191523 226.424017 
L 188.784705 246.644905 
L 189.377886 259.837801 
L 189.971068 261.317378 
L 190.56425 254.535983 
L 191.157432 264.153235 
L 191.750614 259.098013 
L 192.343795 248.371078 
L 192.936977 266.126004 
L 193.530159 272.414207 
L 194.716523 267.358985 
L 195.309705 261.687273 
L 195.902886 267.728879 
L 196.496068 257.001945 
L 197.08925 258.974715 
L 197.682432 277.099535 
L 198.275614 274.633573 
L 198.868795 260.824186 
L 200.055159 253.056406 
L 200.648341 250.83704 
L 201.241523 257.248541 
L 201.834705 273.893784 
L 202.427886 271.921015 
L 203.021068 272.537505 
L 203.61425 265.386216 
L 204.207432 266.619197 
L 204.800614 256.508753 
L 205.986977 285.113911 
L 206.580159 280.181987 
L 207.173341 265.75611 
L 207.766523 270.564736 
L 208.359705 263.16685 
L 208.952886 252.80981 
L 209.546068 268.591966 
L 210.13925 279.812093 
L 210.732432 279.565497 
L 211.325614 273.52389 
L 211.918795 279.688795 
L 212.511977 266.865793 
L 213.105159 261.563975 
L 213.698341 265.75611 
L 214.291523 280.181987 
L 214.884705 277.222833 
L 215.477886 273.030698 
L 216.071068 264.769725 
L 216.66425 261.070782 
L 217.257432 242.699366 
L 217.850614 260.207696 
L 218.443795 271.551121 
L 219.036977 276.483044 
L 219.630159 258.234926 
L 220.223341 266.126004 
L 220.816523 261.070782 
L 221.409705 251.083636 
L 222.002886 267.482283 
L 222.596068 275.866554 
L 223.18925 281.414968 
L 223.782432 274.510275 
L 224.375614 269.455053 
L 224.968795 270.194841 
L 225.561977 250.22055 
L 226.748341 275.743256 
L 227.341523 273.770486 
L 227.934705 268.098774 
L 228.527886 266.742495 
L 229.121068 257.741734 
L 229.71425 252.070021 
L 230.307432 252.80981 
L 230.900614 277.346131 
L 231.493795 269.208457 
L 232.086977 265.016321 
L 232.680159 258.234926 
L 233.273341 260.824186 
L 233.866523 235.30148 
L 234.459705 248.617674 
L 235.052886 271.921015 
L 236.23925 253.672896 
L 236.832432 247.754588 
L 237.425614 245.04203 
L 238.018795 231.972431 
L 239.205159 261.070782 
L 239.798341 257.125243 
L 240.391523 243.932347 
L 240.984705 238.137336 
L 241.577886 243.192558 
L 242.171068 216.066977 
L 242.76425 229.506469 
L 243.357432 251.083636 
L 244.543795 230.246258 
L 245.136977 225.067738 
L 245.730159 223.341564 
L 246.323341 205.216744 
L 246.916523 215.450486 
L 247.509705 274.140381 
L 248.102886 238.137336 
L 248.696068 243.06926 
L 249.28925 233.945201 
L 249.882432 234.808288 
L 250.475614 229.013277 
L 251.068795 238.383932 
L 251.661977 258.358224 
L 252.255159 245.04203 
L 252.848341 228.273488 
L 253.441523 228.396786 
L 254.627886 209.902072 
L 255.221068 195.352896 
L 255.81425 245.905116 
L 256.407432 325.185793 
L 257.000614 308.170655 
L 258.186977 302.129049 
L 258.780159 292.511797 
L 259.373341 292.635095 
L 259.966523 299.169894 
L 260.559705 299.539789 
L 261.152886 293.991374 
L 261.746068 293.868076 
L 262.932432 273.52389 
L 263.525614 280.67518 
L 264.118795 291.772008 
L 264.711977 292.511797 
L 265.305159 287.086681 
L 265.898341 290.662326 
L 266.491523 293.251586 
L 267.084705 281.168372 
L 267.677886 290.908922 
L 268.271068 303.731924 
L 268.86425 301.635856 
L 269.457432 295.224355 
L 270.050614 295.840846 
L 270.643795 291.155518 
L 271.236977 276.236448 
L 271.830159 288.073066 
L 272.423341 304.964905 
L 273.016523 295.470951 
L 273.609705 291.895307 
L 274.202886 289.799239 
L 274.796068 294.114672 
L 275.38925 285.483805 
L 275.982432 292.141903 
L 276.575614 301.512558 
L 277.168795 299.046596 
L 277.761977 293.744778 
L 278.948341 287.949767 
L 279.541523 279.935391 
L 280.134705 286.963383 
L 280.727886 296.82723 
L 281.321068 291.278816 
L 281.91425 287.949767 
L 282.507432 290.415729 
L 283.693795 275.619958 
L 284.286977 290.539027 
L 284.880159 299.663087 
L 285.473341 296.950529 
L 286.066523 290.785624 
L 286.659705 288.44296 
L 287.252886 270.93463 
L 288.43925 301.019366 
L 289.032432 302.005751 
L 289.625614 298.430106 
L 290.218795 286.963383 
L 290.811977 281.29167 
L 291.405159 285.8537 
L 291.998341 279.072304 
L 292.591523 285.483805 
L 293.184705 297.813615 
L 293.777886 293.374884 
L 294.371068 285.976998 
L 294.96425 265.262918 
L 295.557432 293.868076 
L 296.150614 300.77277 
L 296.743795 301.38926 
L 297.336977 305.334799 
L 297.930159 297.197125 
L 298.523341 297.567019 
L 299.116523 273.153996 
L 299.709705 257.98833 
L 300.302886 256.632051 
L 300.896068 293.62148 
L 301.48925 294.114672 
L 302.082432 298.676702 
L 302.675614 290.415729 
L 303.268795 293.374884 
L 303.861977 291.772008 
L 304.455159 269.208457 
L 305.048341 288.073066 
L 305.641523 298.553404 
L 306.827886 261.687273 
L 308.01425 296.457336 
L 308.607432 280.67518 
L 310.386977 302.005751 
L 310.980159 297.690317 
L 312.166523 300.156279 
L 312.759705 282.647949 
L 313.352886 285.483805 
L 313.946068 314.458858 
L 314.53925 308.54055 
L 315.132432 305.088203 
L 315.725614 306.197886 
L 316.318795 296.703932 
L 316.911977 290.292431 
L 317.505159 295.470951 
L 318.098341 302.252347 
L 318.691523 303.238732 
L 319.284705 307.184271 
L 319.877886 305.088203 
L 320.471068 300.649471 
L 321.06425 286.716786 
L 321.657432 300.77277 
L 322.250614 302.498943 
L 322.843795 302.868837 
L 324.030159 302.622241 
L 324.623341 301.512558 
L 325.216523 290.292431 
L 325.809705 291.155518 
L 326.402886 303.97852 
L 326.996068 301.38926 
L 327.58925 302.745539 
L 328.182432 306.814376 
L 328.775614 305.334799 
L 329.368795 300.402875 
L 331.148341 308.54055 
L 331.741523 298.923298 
L 332.334705 303.855222 
L 332.927886 307.184271 
L 333.521068 298.553404 
L 334.11425 302.622241 
L 334.707432 308.417252 
L 335.300614 302.129049 
L 335.893795 303.36203 
L 337.080159 294.977759 
L 337.673341 293.374884 
L 338.266523 302.745539 
L 338.859705 307.307569 
L 339.452886 303.608626 
L 340.046068 304.101818 
L 340.63925 300.649471 
L 341.232432 303.238732 
L 341.825614 296.457336 
L 342.418795 301.635856 
L 343.011977 308.417252 
L 343.605159 306.321184 
L 344.198341 300.77277 
L 344.791523 302.252347 
L 345.384705 296.703932 
L 345.977886 297.936913 
L 346.571068 298.430106 
L 347.16425 308.293953 
L 347.757432 303.485328 
L 348.350614 306.197886 
L 348.943795 305.088203 
L 349.536977 300.649471 
L 350.723341 293.004989 
L 351.316523 303.608626 
L 351.909705 305.581395 
L 352.502886 309.403636 
L 353.096068 307.677463 
L 353.68925 303.36203 
L 354.282432 297.936913 
L 354.875614 300.156279 
L 355.468795 309.15704 
L 356.061977 305.704693 
L 356.655159 305.581395 
L 357.248341 303.97852 
L 357.841523 302.745539 
L 358.434705 295.224355 
L 359.027886 307.307569 
L 359.621068 310.266723 
L 360.21425 306.56778 
L 360.807432 308.417252 
L 361.400614 307.307569 
L 361.993795 307.677463 
L 362.586977 295.964144 
L 363.180159 302.868837 
L 363.773341 306.691078 
L 364.366523 306.074588 
L 364.959705 311.253108 
L 365.552886 304.348414 
L 366.146068 305.334799 
L 366.73925 298.306808 
L 367.332432 307.677463 
L 367.925614 311.7463 
L 368.518795 306.56778 
L 369.111977 306.814376 
L 369.705159 310.390021 
L 370.298341 302.252347 
L 370.891523 300.032981 
L 371.484705 305.704693 
L 372.077886 308.910444 
L 372.671068 305.211501 
L 373.857432 306.56778 
L 374.450614 305.334799 
L 375.043795 302.129049 
L 375.636977 299.786385 
L 376.230159 308.910444 
L 376.823341 308.170655 
L 377.416523 305.95129 
L 378.009705 305.088203 
L 378.602886 306.074588 
L 379.196068 297.073827 
L 379.78925 306.074588 
L 380.382432 310.513319 
L 380.975614 305.088203 
L 381.568795 304.348414 
L 382.161977 304.964905 
L 383.348341 301.635856 
L 383.941523 306.321184 
L 384.534705 309.033742 
L 385.127886 307.060973 
L 385.721068 303.97852 
L 386.31425 306.074588 
L 386.907432 300.156279 
L 387.500614 297.443721 
L 388.093795 304.841607 
L 388.686977 306.197886 
L 389.280159 304.348414 
L 389.873341 300.649471 
L 390.466523 305.211501 
L 391.652886 297.443721 
L 392.246068 304.471712 
L 392.83925 305.581395 
L 393.432432 300.896068 
L 394.025614 305.827992 
L 394.618795 309.650233 
L 395.211977 304.718309 
L 395.805159 301.142664 
L 396.398341 306.937674 
L 396.991523 308.417252 
L 397.584705 306.074588 
L 398.177886 304.225116 
L 398.771068 306.321184 
L 399.36425 300.77277 
L 399.957432 293.374884 
L 401.143795 306.691078 
L 401.736977 300.649471 
L 402.330159 300.896068 
L 402.923341 293.868076 
L 403.516523 302.129049 
L 404.109705 294.114672 
L 404.702886 303.855222 
L 405.296068 307.184271 
L 406.482432 299.909683 
L 407.075614 301.512558 
L 407.668795 303.485328 
L 408.261977 292.881691 
L 408.855159 300.526173 
L 409.448341 300.649471 
L 410.041523 301.019366 
L 410.634705 299.046596 
L 411.227886 298.18351 
L 411.821068 302.375645 
L 412.41425 295.101057 
L 413.007432 301.882452 
L 413.600614 304.964905 
L 414.193795 302.498943 
L 414.786977 301.019366 
L 415.380159 300.032981 
L 416.566523 283.26444 
L 417.159705 296.457336 
L 417.752886 299.169894 
L 418.346068 297.320423 
L 418.93925 298.430106 
L 420.718795 294.361268 
L 421.311977 301.019366 
L 421.905159 306.197886 
L 422.498341 299.41649 
L 423.091523 301.882452 
L 423.684705 294.731163 
L 424.277886 294.854461 
L 424.871068 285.237209 
L 425.46425 296.087442 
L 426.057432 301.142664 
L 426.650614 295.224355 
L 427.243795 295.347653 
L 427.836977 292.018605 
L 428.430159 293.128288 
L 429.023341 284.497421 
L 430.209705 298.18351 
L 430.802886 298.060211 
L 431.396068 294.484567 
L 431.98925 298.430106 
L 432.582432 295.224355 
L 433.175614 280.181987 
L 433.768795 293.498182 
L 434.361977 297.443721 
L 434.955159 292.881691 
L 436.141523 286.963383 
L 436.734705 288.319662 
L 437.327886 279.195603 
L 437.921068 283.88093 
L 438.51425 295.101057 
L 439.107432 299.046596 
L 439.700614 288.44296 
L 440.293795 286.963383 
L 440.886977 292.881691 
L 441.480159 277.592727 
L 442.073341 286.100296 
L 442.666523 292.141903 
L 443.259705 285.237209 
L 443.852886 281.908161 
L 444.446068 276.11315 
L 445.03925 276.236448 
L 445.632432 266.865793 
L 446.225614 285.730402 
L 446.818795 289.429345 
L 447.411977 288.319662 
L 448.005159 291.525412 
L 448.598341 285.483805 
L 449.191523 284.744017 
L 449.784705 276.236448 
L 450.971068 293.868076 
L 451.56425 292.265201 
L 452.157432 284.497421 
L 452.750614 288.196364 
L 453.343795 286.593488 
L 453.936977 269.455053 
L 454.530159 282.278055 
L 455.123341 292.018605 
L 455.716523 283.387738 
L 456.309705 284.004228 
L 456.902886 279.442199 
L 457.496068 282.031459 
L 458.08925 270.688034 
L 458.682432 279.318901 
L 459.275614 284.990613 
L 459.868795 285.976998 
L 460.461977 283.757632 
L 461.055159 277.346131 
L 461.648341 263.78334 
L 462.241523 266.495899 
L 462.834705 270.31814 
L 463.427886 281.784863 
L 464.021068 274.263679 
L 464.61425 280.551882 
L 465.207432 279.812093 
L 465.800614 274.140381 
L 466.393795 265.016321 
L 466.986977 272.537505 
L 467.580159 278.332516 
L 468.173341 275.373362 
L 468.766523 276.359746 
L 469.359705 266.3726 
L 469.952886 267.235687 
L 470.546068 263.290148 
L 471.13925 258.111628 
L 471.732432 249.357463 
L 472.325614 279.072304 
L 472.918795 324.939197 
L 473.511977 306.444482 
L 474.105159 309.403636 
L 474.698341 302.375645 
L 475.291523 302.498943 
L 475.884705 292.511797 
L 476.477886 297.320423 
L 477.071068 299.046596 
L 477.66425 292.758393 
L 478.257432 292.141903 
L 478.850614 284.497421 
L 479.443795 297.073827 
L 480.036977 296.703932 
L 480.630159 298.676702 
L 481.223341 296.82723 
L 481.816523 299.786385 
L 482.409705 300.279577 
L 483.002886 287.209979 
L 483.596068 294.361268 
L 484.18925 299.169894 
L 484.782432 294.484567 
L 485.375614 293.004989 
L 485.968795 293.991374 
L 486.561977 289.306047 
L 487.155159 292.881691 
L 487.748341 285.237209 
L 488.341523 301.38926 
L 488.934705 288.073066 
L 489.527886 295.594249 
L 490.121068 290.292431 
L 490.71425 288.566258 
L 491.307432 286.100296 
L 492.493795 293.374884 
L 493.086977 294.361268 
L 493.680159 292.018605 
L 494.273341 292.511797 
L 494.866523 295.594249 
L 495.459705 280.798478 
L 496.646068 298.8 
L 497.23925 290.908922 
L 497.832432 296.82723 
L 498.425614 295.101057 
L 499.018795 299.41649 
L 499.611977 289.05945 
L 500.798341 305.458097 
L 501.391523 301.265962 
L 501.984705 295.840846 
L 502.577886 300.032981 
L 503.171068 292.758393 
L 503.76425 293.62148 
L 504.357432 297.690317 
L 504.950614 307.430867 
L 505.543795 295.840846 
L 506.136977 295.840846 
L 506.730159 293.62148 
L 507.323341 285.237209 
L 507.916523 287.209979 
L 508.509705 292.388499 
L 509.102886 299.293192 
L 510.28925 309.773531 
L 510.882432 307.554165 
L 511.475614 297.443721 
L 512.068795 277.592727 
L 512.661977 286.593488 
L 513.255159 291.278816 
L 513.848341 292.141903 
L 514.441523 331.597294 
L 515.034705 330.734207 
L 515.627886 333.076871 
L 516.221068 330.487611 
L 516.221068 330.487611 
" clip-path="url(#p4483f1f3fa)" style="fill: none; stroke: #348abd; stroke-width: 2"/>
   </g>
   <g id="line2d_32">
    <path d="M 99.21425 341.091247 
L 99.807432 340.967949 
L 100.400614 340.351459 
L 100.993795 340.844651 
L 101.586977 340.474757 
L 102.180159 340.598055 
L 102.773341 340.474757 
L 103.366523 340.104863 
L 103.959705 339.365074 
L 104.552886 339.858266 
L 105.146068 338.99518 
L 105.73925 337.762199 
L 106.332432 338.99518 
L 106.925614 338.501987 
L 107.518795 339.858266 
L 108.111977 338.501987 
L 108.705159 338.132093 
L 109.298341 337.269006 
L 109.891523 337.145708 
L 110.484705 337.515603 
L 111.077886 337.392304 
L 111.671068 335.172939 
L 112.26425 335.172939 
L 112.857432 336.652516 
L 113.450614 335.296237 
L 114.043795 336.775814 
L 114.636977 334.556448 
L 115.230159 336.899112 
L 115.823341 334.556448 
L 116.416523 335.419535 
L 117.009705 335.049641 
L 117.602886 332.337082 
L 118.196068 333.446765 
L 118.78925 335.912727 
L 119.382432 334.556448 
L 119.975614 333.570063 
L 120.568795 332.830275 
L 121.755159 333.693362 
L 122.348341 333.81666 
L 122.941523 334.43315 
L 123.534705 331.84389 
L 124.127886 330.610909 
L 124.721068 330.364313 
L 125.31425 338.99518 
L 125.907432 335.419535 
L 126.500614 326.911966 
L 127.093795 330.980803 
L 128.280159 323.829514 
L 128.873341 326.295476 
L 129.466523 327.035264 
L 130.059705 323.213023 
L 131.246068 325.309091 
L 131.83925 323.952812 
L 132.432432 317.294715 
L 133.025614 320.993658 
L 133.618795 322.843129 
L 134.211977 323.213023 
L 134.805159 322.226638 
L 135.398341 323.829514 
L 135.991523 320.623763 
L 136.584705 318.281099 
L 137.177886 318.034503 
L 137.771068 320.377167 
L 138.36425 316.554926 
L 138.957432 318.650994 
L 139.550614 321.610148 
L 140.143795 316.185032 
L 141.330159 311.253108 
L 141.923341 312.239493 
L 142.516523 307.554165 
L 143.109705 314.088964 
L 143.702886 316.185032 
L 144.296068 312.855983 
L 144.88925 312.116195 
L 145.482432 307.800761 
L 146.075614 309.650233 
L 146.668795 312.116195 
L 147.261977 306.321184 
L 147.855159 313.472474 
L 148.448341 311.499704 
L 149.041523 310.759915 
L 149.634705 314.458858 
L 150.227886 311.869598 
L 150.821068 307.430867 
L 151.41425 311.623002 
L 152.007432 311.12981 
L 152.600614 311.623002 
L 153.193795 313.102579 
L 153.786977 312.979281 
L 154.973341 305.458097 
L 155.566523 309.15704 
L 156.159705 310.266723 
L 156.752886 308.787146 
L 157.346068 308.417252 
L 157.93925 309.526934 
L 158.532432 307.184271 
L 159.125614 305.458097 
L 159.718795 311.992896 
L 160.311977 312.732685 
L 160.905159 312.362791 
L 161.498341 305.458097 
L 162.091523 311.992896 
L 162.684705 304.964905 
L 163.277886 310.143425 
L 163.871068 308.663848 
L 164.46425 309.15704 
L 165.057432 301.512558 
L 165.650614 286.223594 
L 166.243795 291.772008 
L 166.836977 286.840085 
L 167.430159 285.483805 
L 168.023341 296.703932 
L 168.616523 300.649471 
L 169.209705 296.950529 
L 169.802886 290.292431 
L 170.396068 292.758393 
L 171.582432 286.223594 
L 172.175614 293.744778 
L 173.361977 297.073827 
L 173.955159 293.62148 
L 174.548341 300.032981 
L 175.141523 294.731163 
L 175.734705 287.456575 
L 176.921068 299.046596 
L 177.51425 295.347653 
L 178.107432 289.675941 
L 178.700614 280.058689 
L 179.293795 264.399831 
L 179.886977 260.824186 
L 180.480159 274.633573 
L 181.073341 284.867315 
L 181.666523 282.031459 
L 182.259705 282.524651 
L 182.852886 285.237209 
L 183.446068 282.524651 
L 184.03925 283.88093 
L 184.632432 286.840085 
L 185.225614 286.47019 
L 185.818795 294.484567 
L 186.411977 287.826469 
L 187.005159 282.771247 
L 187.598341 289.799239 
L 188.191523 285.8537 
L 188.784705 288.936152 
L 189.377886 293.991374 
L 189.971068 295.224355 
L 190.56425 290.169133 
L 191.157432 268.591966 
L 191.750614 269.331755 
L 192.343795 265.509514 
L 192.936977 268.468668 
L 193.530159 281.045074 
L 194.123341 286.716786 
L 194.716523 273.153996 
L 195.309705 274.140381 
L 195.902886 271.181226 
L 196.496068 272.537505 
L 197.08925 281.045074 
L 197.682432 285.607104 
L 198.275614 276.976237 
L 198.868795 274.756871 
L 199.461977 273.647188 
L 200.055159 270.93463 
L 200.648341 274.140381 
L 201.241523 281.661564 
L 201.834705 284.374123 
L 202.427886 293.744778 
L 203.021068 287.086681 
L 203.61425 261.810571 
L 204.207432 262.796956 
L 204.800614 257.248541 
L 205.393795 269.331755 
L 205.986977 271.551121 
L 206.580159 276.11315 
L 207.173341 272.537505 
L 207.766523 280.921776 
L 208.359705 276.483044 
L 208.952886 277.222833 
L 209.546068 275.743256 
L 210.13925 288.196364 
L 210.732432 294.607865 
L 211.325614 285.113911 
L 211.918795 279.442199 
L 212.511977 277.592727 
L 213.105159 276.359746 
L 213.698341 283.017844 
L 214.291523 283.017844 
L 214.884705 284.744017 
L 215.477886 279.318901 
L 216.071068 277.099535 
L 216.66425 270.194841 
L 217.850614 273.893784 
L 218.443795 287.333277 
L 219.036977 282.771247 
L 219.630159 274.880169 
L 220.223341 273.647188 
L 221.409705 268.222072 
L 222.002886 276.359746 
L 222.596068 278.455814 
L 223.18925 288.44296 
L 223.782432 280.305285 
L 224.375614 279.688795 
L 224.968795 276.11315 
L 225.561977 274.633573 
L 226.155159 277.222833 
L 226.748341 285.360507 
L 227.341523 295.717548 
L 228.527886 268.838562 
L 229.121068 274.140381 
L 229.71425 272.9074 
L 230.307432 279.195603 
L 230.900614 286.840085 
L 231.493795 287.456575 
L 232.086977 275.250063 
L 232.680159 266.126004 
L 233.273341 280.798478 
L 233.866523 266.002706 
L 234.459705 266.002706 
L 235.052886 279.688795 
L 235.646068 285.607104 
L 236.23925 274.756871 
L 236.832432 272.414207 
L 237.425614 266.989091 
L 238.018795 268.591966 
L 238.611977 269.455053 
L 239.205159 273.153996 
L 239.798341 284.497421 
L 240.391523 268.591966 
L 240.984705 270.194841 
L 241.577886 260.700888 
L 242.171068 258.234926 
L 242.76425 262.427061 
L 243.357432 274.263679 
L 243.950614 274.880169 
L 244.543795 266.495899 
L 245.136977 271.304524 
L 245.730159 261.933869 
L 246.323341 246.768203 
L 246.916523 246.275011 
L 247.509705 331.720592 
L 248.102886 264.153235 
L 248.696068 248.740973 
L 249.28925 238.260634 
L 249.882432 235.178182 
L 250.475614 209.038985 
L 251.068795 214.957294 
L 251.661977 229.876364 
L 252.255159 222.97167 
L 252.848341 193.626723 
L 253.441523 181.296913 
L 254.034705 163.541987 
L 254.627886 111.386892 
L 255.221068 23.105455 
L 255.81425 82.041945 
L 256.407432 312.486089 
L 257.000614 289.799239 
L 257.593795 275.126765 
L 258.186977 272.414207 
L 258.780159 265.386216 
L 259.373341 263.043552 
L 259.966523 278.209218 
L 260.559705 289.675941 
L 261.152886 270.811332 
L 262.33925 258.358224 
L 262.932432 263.043552 
L 263.525614 259.714503 
L 264.118795 286.593488 
L 264.711977 292.265201 
L 265.305159 278.332516 
L 265.898341 269.701649 
L 266.491523 279.565497 
L 267.084705 274.386977 
L 267.677886 275.743256 
L 268.271068 290.045835 
L 268.86425 289.182748 
L 269.457432 285.976998 
L 270.050614 279.812093 
L 270.643795 276.852939 
L 271.236977 277.346131 
L 271.830159 279.812093 
L 272.423341 291.278816 
L 273.016523 284.127526 
L 273.609705 280.798478 
L 274.202886 274.017082 
L 274.796068 275.989852 
L 275.38925 268.715264 
L 275.982432 271.797717 
L 276.575614 288.073066 
L 277.168795 295.224355 
L 277.761977 283.88093 
L 278.355159 292.511797 
L 278.948341 276.729641 
L 279.541523 251.576829 
L 280.134705 254.782579 
L 281.321068 276.976237 
L 281.91425 280.921776 
L 283.100614 265.386216 
L 283.693795 263.906638 
L 284.286977 268.222072 
L 284.880159 290.292431 
L 285.473341 293.251586 
L 286.066523 276.729641 
L 286.659705 270.811332 
L 287.252886 234.561691 
L 287.846068 270.071543 
L 288.43925 282.647949 
L 289.032432 288.196364 
L 289.625614 290.785624 
L 290.218795 277.592727 
L 290.811977 276.606342 
L 291.405159 273.400592 
L 291.998341 262.796956 
L 292.591523 269.578351 
L 293.184705 283.26444 
L 293.777886 287.209979 
L 294.371068 266.002706 
L 294.96425 254.905877 
L 295.557432 281.661564 
L 296.150614 284.497421 
L 296.743795 284.127526 
L 297.336977 288.319662 
L 297.930159 291.278816 
L 298.523341 272.660803 
L 299.116523 275.003467 
L 299.709705 270.811332 
L 300.896068 276.483044 
L 301.48925 289.429345 
L 302.082432 298.060211 
L 302.675614 290.908922 
L 303.268795 286.593488 
L 303.861977 271.181226 
L 304.455159 263.16685 
L 305.048341 269.701649 
L 305.641523 285.730402 
L 306.234705 287.456575 
L 306.827886 284.004228 
L 307.421068 282.401353 
L 308.01425 286.47019 
L 308.607432 277.222833 
L 309.200614 273.770486 
L 309.793795 288.812854 
L 310.386977 291.03222 
L 310.980159 279.935391 
L 311.573341 271.181226 
L 312.166523 298.306808 
L 312.759705 258.60482 
L 313.352886 260.57759 
L 313.946068 296.334038 
L 314.53925 298.923298 
L 315.132432 298.060211 
L 315.725614 281.908161 
L 316.318795 271.551121 
L 316.911977 270.93463 
L 317.505159 274.017082 
L 318.098341 283.017844 
L 318.691523 293.991374 
L 319.284705 289.306047 
L 319.877886 293.128288 
L 321.06425 274.880169 
L 321.657432 282.154757 
L 322.250614 298.18351 
L 322.843795 292.511797 
L 323.436977 276.976237 
L 324.030159 283.757632 
L 324.623341 277.469429 
L 325.216523 274.880169 
L 325.809705 276.236448 
L 326.402886 292.758393 
L 326.996068 295.594249 
L 327.58925 283.757632 
L 328.182432 278.08592 
L 328.775614 274.510275 
L 329.368795 265.262918 
L 329.961977 271.674419 
L 330.555159 282.647949 
L 331.148341 282.154757 
L 331.741523 269.455053 
L 332.334705 288.689556 
L 332.927886 284.127526 
L 333.521068 264.646427 
L 334.11425 251.083636 
L 334.707432 267.358985 
L 335.300614 272.784101 
L 335.893795 268.468668 
L 336.486977 267.975476 
L 337.080159 264.893023 
L 337.673341 265.262918 
L 338.266523 279.072304 
L 338.859705 287.579873 
L 339.452886 288.319662 
L 340.046068 281.414968 
L 340.63925 289.552643 
L 341.232432 283.757632 
L 341.825614 275.003467 
L 342.418795 289.182748 
L 343.011977 293.62148 
L 343.605159 294.361268 
L 344.198341 289.922537 
L 345.384705 276.11315 
L 345.977886 284.867315 
L 346.571068 274.633573 
L 347.16425 278.579112 
L 347.757432 291.402114 
L 348.350614 293.868076 
L 348.943795 293.868076 
L 349.536977 289.922537 
L 350.130159 292.018605 
L 350.723341 284.127526 
L 351.316523 290.169133 
L 351.909705 291.402114 
L 352.502886 301.882452 
L 353.096068 292.635095 
L 353.68925 287.086681 
L 354.282432 283.757632 
L 354.875614 290.662326 
L 355.468795 291.525412 
L 356.061977 286.716786 
L 356.655159 261.810571 
L 357.248341 264.893023 
L 357.841523 282.031459 
L 358.434705 283.141142 
L 359.027886 283.387738 
L 359.621068 295.964144 
L 360.21425 298.553404 
L 360.807432 291.772008 
L 361.400614 292.881691 
L 361.993795 295.594249 
L 362.586977 290.662326 
L 363.180159 287.086681 
L 363.773341 303.485328 
L 364.366523 304.225116 
L 364.959705 293.498182 
L 365.552886 293.128288 
L 366.146068 295.594249 
L 366.73925 292.265201 
L 367.332432 296.703932 
L 367.925614 298.676702 
L 368.518795 303.608626 
L 369.111977 293.251586 
L 369.705159 299.786385 
L 370.298341 300.402875 
L 370.891523 248.864271 
L 371.484705 264.893023 
L 372.077886 274.633573 
L 372.671068 287.949767 
L 373.26425 289.799239 
L 373.857432 295.594249 
L 374.450614 289.922537 
L 375.043795 299.293192 
L 375.636977 287.086681 
L 376.230159 298.923298 
L 376.823341 318.157801 
L 377.416523 292.511797 
L 378.009705 295.224355 
L 378.602886 289.429345 
L 379.196068 281.045074 
L 379.78925 284.744017 
L 380.975614 296.703932 
L 381.568795 290.292431 
L 382.161977 295.840846 
L 382.755159 292.018605 
L 383.348341 297.197125 
L 383.941523 295.101057 
L 384.534705 303.238732 
L 385.127886 303.36203 
L 385.721068 298.8 
L 386.31425 297.320423 
L 386.907432 297.443721 
L 387.500614 293.498182 
L 388.093795 297.320423 
L 388.686977 303.36203 
L 389.280159 302.005751 
L 389.873341 294.731163 
L 390.466523 298.060211 
L 391.059705 289.05945 
L 391.652886 283.387738 
L 392.246068 296.703932 
L 392.83925 305.581395 
L 393.432432 302.622241 
L 394.025614 306.074588 
L 394.618795 299.046596 
L 395.211977 303.238732 
L 395.805159 293.868076 
L 396.991523 308.047357 
L 397.584705 307.924059 
L 398.177886 299.293192 
L 398.771068 300.896068 
L 399.36425 286.346892 
L 399.957432 280.058689 
L 400.550614 290.169133 
L 401.143795 297.690317 
L 401.736977 303.36203 
L 402.330159 303.485328 
L 402.923341 301.019366 
L 403.516523 301.512558 
L 404.109705 295.101057 
L 404.702886 300.279577 
L 405.296068 303.855222 
L 405.88925 308.293953 
L 406.482432 297.073827 
L 407.075614 294.607865 
L 407.668795 290.415729 
L 408.261977 277.839323 
L 408.855159 286.716786 
L 409.448341 298.676702 
L 410.041523 307.060973 
L 410.634705 296.703932 
L 411.227886 292.018605 
L 411.821068 297.197125 
L 412.41425 290.292431 
L 413.007432 297.567019 
L 413.600614 302.745539 
L 414.193795 306.691078 
L 415.380159 291.525412 
L 415.973341 290.292431 
L 416.566523 284.867315 
L 417.159705 288.566258 
L 417.752886 302.622241 
L 418.346068 302.005751 
L 418.93925 301.019366 
L 419.532432 292.881691 
L 420.125614 295.840846 
L 420.718795 284.374123 
L 421.311977 290.539027 
L 421.905159 299.41649 
L 422.498341 304.225116 
L 423.091523 295.347653 
L 423.684705 292.758393 
L 424.277886 280.305285 
L 424.871068 294.731163 
L 425.46425 283.141142 
L 426.057432 299.663087 
L 426.650614 305.581395 
L 427.243795 287.086681 
L 427.836977 295.964144 
L 428.430159 292.018605 
L 429.023341 293.744778 
L 429.616523 290.785624 
L 430.802886 308.170655 
L 431.396068 298.553404 
L 431.98925 300.402875 
L 432.582432 304.348414 
L 433.175614 302.745539 
L 433.768795 293.744778 
L 434.361977 301.759154 
L 434.955159 303.855222 
L 435.548341 301.019366 
L 436.734705 286.100296 
L 437.327886 286.223594 
L 437.921068 288.566258 
L 438.51425 295.964144 
L 439.107432 300.156279 
L 439.700614 294.23797 
L 440.293795 290.415729 
L 440.886977 306.074588 
L 441.480159 287.703171 
L 442.073341 280.058689 
L 442.666523 289.429345 
L 443.259705 300.77277 
L 443.852886 285.113911 
L 444.446068 278.455814 
L 445.03925 285.8537 
L 446.225614 276.359746 
L 446.818795 290.415729 
L 447.411977 297.320423 
L 448.005159 302.745539 
L 448.598341 295.101057 
L 449.191523 290.415729 
L 449.784705 282.031459 
L 450.377886 282.154757 
L 450.971068 294.114672 
L 451.56425 299.41649 
L 452.157432 294.854461 
L 452.750614 289.306047 
L 453.936977 275.619958 
L 454.530159 275.126765 
L 455.123341 288.936152 
L 455.716523 293.498182 
L 456.309705 290.539027 
L 456.902886 279.442199 
L 457.496068 270.93463 
L 458.08925 255.522368 
L 458.682432 255.152474 
L 459.275614 279.195603 
L 459.868795 290.292431 
L 460.461977 291.155518 
L 461.055159 281.168372 
L 461.648341 275.989852 
L 462.241523 275.866554 
L 462.834705 269.208457 
L 463.427886 289.429345 
L 464.021068 289.799239 
L 464.61425 278.579112 
L 465.207432 270.811332 
L 465.800614 272.290909 
L 466.393795 259.221311 
L 466.986977 241.589683 
L 467.580159 253.796195 
L 468.173341 258.111628 
L 468.766523 241.836279 
L 469.359705 231.725835 
L 469.952886 218.902833 
L 471.13925 180.433827 
L 471.732432 116.07222 
L 472.325614 198.681945 
L 472.918795 316.431628 
L 473.511977 294.23797 
L 474.105159 287.333277 
L 474.698341 277.592727 
L 475.291523 275.250063 
L 475.884705 271.427822 
L 476.477886 279.688795 
L 477.071068 280.798478 
L 477.66425 280.551882 
L 478.257432 279.072304 
L 478.850614 278.209218 
L 479.443795 284.374123 
L 480.036977 282.771247 
L 480.630159 287.209979 
L 481.223341 280.921776 
L 481.816523 283.757632 
L 483.002886 268.222072 
L 483.596068 262.057167 
L 484.18925 277.099535 
L 484.782432 284.867315 
L 485.375614 281.168372 
L 485.968795 282.771247 
L 486.561977 275.743256 
L 487.155159 274.633573 
L 487.748341 263.660042 
L 488.341523 279.318901 
L 488.934705 285.483805 
L 490.121068 260.207696 
L 490.71425 269.578351 
L 491.307432 249.357463 
L 491.900614 242.822664 
L 492.493795 267.975476 
L 493.086977 275.373362 
L 493.680159 274.633573 
L 494.273341 270.564736 
L 494.866523 255.029175 
L 495.459705 243.562452 
L 496.052886 252.439915 
L 496.646068 274.633573 
L 497.23925 279.812093 
L 497.832432 267.112389 
L 498.425614 260.947484 
L 499.018795 249.234165 
L 499.611977 243.562452 
L 500.205159 245.411924 
L 500.798341 265.879408 
L 501.391523 271.921015 
L 501.984705 272.167611 
L 502.577886 271.674419 
L 503.171068 251.083636 
L 503.76425 244.918732 
L 504.357432 245.905116 
L 504.950614 271.181226 
L 505.543795 257.98833 
L 506.136977 266.249302 
L 506.730159 248.001184 
L 507.323341 239.493615 
L 507.916523 203.983763 
L 508.509705 202.750782 
L 509.102886 247.877886 
L 509.696068 256.262156 
L 510.28925 253.549598 
L 510.882432 240.849894 
L 511.475614 222.601776 
L 512.068795 215.20389 
L 512.661977 220.752304 
L 513.255159 251.330233 
L 513.848341 255.892262 
L 514.441523 264.153235 
L 515.034705 268.468668 
L 515.627886 274.263679 
L 516.221068 260.947484 
L 516.81425 269.208457 
L 517.407432 288.073066 
L 518.000614 297.690317 
L 518.593795 290.292431 
L 519.186977 295.594249 
L 519.780159 240.356702 
L 520.373341 69.835433 
L 520.966523 128.895222 
L 521.559705 224.574545 
L 522.152886 289.675941 
L 522.746068 287.579873 
L 523.33925 287.086681 
L 523.932432 281.784863 
L 525.118795 269.208457 
L 525.711977 288.689556 
L 526.305159 301.759154 
L 526.898341 294.361268 
L 527.491523 293.62148 
L 528.084705 293.374884 
L 528.677886 279.318901 
L 529.271068 279.935391 
L 529.86425 295.470951 
L 530.457432 303.115433 
L 531.050614 299.293192 
L 531.643795 293.374884 
L 532.236977 297.443721 
L 532.830159 299.909683 
L 533.423341 291.03222 
L 534.609705 312.732685 
L 535.202886 310.143425 
L 535.796068 308.293953 
L 536.38925 301.512558 
L 536.982432 296.457336 
L 537.575614 303.485328 
L 538.168795 307.554165 
L 538.761977 312.486089 
L 539.355159 308.787146 
L 539.948341 308.663848 
L 540.541523 303.731924 
L 541.727886 305.088203 
L 542.321068 318.527696 
L 542.91425 317.787907 
L 543.507432 312.362791 
L 544.100614 314.212262 
L 544.693795 313.965666 
L 545.286977 313.472474 
L 545.880159 314.705455 
L 546.473341 319.390782 
L 547.659705 311.499704 
L 548.252886 309.650233 
L 548.846068 313.71907 
L 549.43925 314.33556 
L 550.032432 316.431628 
L 550.625614 314.458858 
L 551.218795 319.760677 
L 551.811977 313.349175 
L 552.405159 313.595772 
L 552.998341 310.266723 
L 553.591523 305.827992 
L 554.184705 305.581395 
L 554.777886 310.513319 
L 555.371068 317.541311 
L 555.96425 317.664609 
L 556.557432 313.71907 
L 557.150614 313.842368 
L 557.743795 317.294715 
L 558.336977 313.595772 
L 558.930159 322.226638 
L 559.523341 315.198647 
L 560.116523 302.129049 
L 560.709705 308.047357 
L 561.302886 309.650233 
L 561.896068 301.265962 
L 562.48925 316.061734 
L 563.082432 315.815137 
L 563.675614 320.747061 
L 564.268795 318.404397 
L 564.861977 316.92482 
L 565.455159 314.828753 
L 566.048341 310.636617 
L 566.641523 323.336321 
L 567.234705 321.363552 
L 567.827886 318.650994 
L 568.421068 317.294715 
L 569.01425 317.911205 
L 569.607432 313.349175 
L 570.200614 310.759915 
L 570.793795 318.034503 
L 571.980159 322.719831 
L 572.573341 318.774292 
L 573.166523 319.883975 
L 573.759705 320.130571 
L 574.352886 316.554926 
L 574.946068 321.48685 
L 575.53925 321.733446 
L 576.132432 322.349937 
L 576.725614 319.020888 
L 577.318795 318.034503 
L 577.911977 317.911205 
L 578.505159 314.212262 
L 579.098341 318.527696 
L 580.284705 324.6926 
L 580.877886 322.966427 
L 581.471068 324.815899 
L 582.06425 319.267484 
L 582.657432 316.30833 
L 583.250614 319.020888 
L 583.843795 324.446004 
L 584.436977 322.596533 
L 585.030159 327.898351 
L 585.623341 320.007273 
L 586.216523 324.939197 
L 586.809705 317.911205 
L 587.996068 325.678985 
L 588.58925 325.309091 
L 589.182432 321.733446 
L 589.775614 326.172178 
L 590.368795 321.116956 
L 590.961977 318.527696 
L 591.555159 318.034503 
L 592.148341 323.829514 
L 592.741523 324.446004 
L 593.334705 321.610148 
L 593.927886 323.582918 
L 594.521068 324.199408 
L 595.11425 320.500465 
L 595.707432 326.418774 
L 596.300614 327.528457 
L 596.893795 325.678985 
L 597.486977 325.555687 
L 598.080159 326.542072 
L 598.673341 328.761438 
L 599.266523 325.925581 
L 599.859705 332.706977 
L 600.452886 329.25463 
L 601.046068 330.857505 
L 601.63925 329.501226 
L 602.232432 331.473996 
L 602.825614 330.857505 
L 603.418795 326.295476 
L 604.011977 331.473996 
L 605.198341 332.953573 
L 606.384705 330.610909 
L 606.977886 328.144947 
L 607.571068 328.144947 
L 608.16425 330.980803 
L 608.757432 330.364313 
L 609.350614 329.377928 
L 610.536977 333.693362 
L 611.130159 334.43315 
L 611.723341 331.720592 
L 612.316523 333.570063 
L 612.909705 331.967188 
L 613.502886 331.597294 
L 614.096068 331.84389 
L 614.68925 332.460381 
L 615.282432 332.830275 
L 615.875614 334.679746 
L 616.468795 332.460381 
L 617.061977 333.446765 
L 617.655159 333.200169 
L 618.248341 332.213784 
L 618.841523 331.84389 
L 619.434705 329.501226 
L 620.027886 330.364313 
L 620.621068 331.473996 
L 621.21425 332.213784 
L 621.807432 330.857505 
L 622.400614 331.597294 
L 622.993795 332.090486 
L 623.586977 332.090486 
L 624.180159 332.830275 
L 624.773341 330.117717 
L 625.959705 333.200169 
L 626.552886 330.980803 
L 627.146068 334.556448 
L 627.73925 332.583679 
L 628.332432 329.008034 
L 628.925614 333.323467 
L 629.518795 333.939958 
L 630.111977 332.830275 
L 630.705159 333.076871 
L 631.891523 333.323467 
L 632.484705 329.994419 
L 633.077886 330.857505 
L 633.671068 332.337082 
L 634.26425 329.747822 
L 634.857432 332.953573 
L 635.450614 333.200169 
L 636.043795 334.186554 
L 636.636977 332.953573 
L 637.823341 336.652516 
L 638.416523 334.679746 
L 639.009705 329.624524 
L 639.602886 333.076871 
L 640.196068 333.076871 
L 640.78925 334.063256 
L 641.975614 332.953573 
L 642.568795 332.706977 
L 643.161977 331.350698 
L 643.755159 333.939958 
L 644.348341 332.460381 
L 644.941523 332.583679 
L 645.534705 331.720592 
L 646.127886 334.926342 
L 646.721068 334.679746 
L 647.31425 333.446765 
L 647.907432 332.706977 
L 648.500614 334.063256 
L 649.093795 331.2274 
L 649.686977 331.473996 
L 650.280159 333.939958 
L 650.873341 333.323467 
L 651.466523 332.213784 
L 652.059705 334.186554 
L 652.652886 330.487611 
L 653.246068 332.213784 
L 653.83925 333.200169 
L 654.432432 332.953573 
L 655.025614 334.063256 
L 655.618795 333.693362 
L 656.211977 332.953573 
L 656.805159 333.323467 
L 657.398341 330.241015 
L 657.991523 332.090486 
L 658.584705 334.309852 
L 659.177886 332.090486 
L 659.771068 333.693362 
L 660.36425 332.953573 
L 660.957432 333.570063 
L 661.550614 332.090486 
L 662.143795 332.213784 
L 662.736977 334.556448 
L 663.330159 334.803044 
L 663.923341 332.953573 
L 664.516523 341.214545 
L 664.516523 341.214545 
" clip-path="url(#p4483f1f3fa)" style="fill: none; stroke: #a60628; stroke-width: 2"/>
   </g>
   <g id="patch_3">
    <path d="M 66.58925 357.12 
L 66.58925 7.2 
" style="fill: none; stroke: #bcbcbc; stroke-width: 3; stroke-linejoin: miter; stroke-linecap: square"/>
   </g>
   <g id="patch_4">
    <path d="M 692.98925 357.12 
L 692.98925 7.2 
" style="fill: none; stroke: #bcbcbc; stroke-width: 3; stroke-linejoin: miter; stroke-linecap: square"/>
   </g>
   <g id="patch_5">
    <path d="M 66.58925 357.12 
L 692.98925 357.12 
" style="fill: none; stroke: #bcbcbc; stroke-width: 3; stroke-linejoin: miter; stroke-linecap: square"/>
   </g>
   <g id="patch_6">
    <path d="M 66.58925 7.2 
L 692.98925 7.2 
" style="fill: none; stroke: #bcbcbc; stroke-width: 3; stroke-linejoin: miter; stroke-linecap: square"/>
   </g>
   <g id="legend_1">
    <g id="patch_7">
     <path d="M 511.656437 60.2775 
L 683.18925 60.2775 
Q 685.98925 60.2775 685.98925 57.4775 
L 685.98925 17 
Q 685.98925 14.2 683.18925 14.2 
L 511.656437 14.2 
Q 508.856437 14.2 508.856437 17 
L 508.856437 57.4775 
Q 508.856437 60.2775 511.656437 60.2775 
z
" style="fill: #eeeeee; opacity: 0.8; stroke: #cccccc; stroke-width: 0.5; stroke-linejoin: miter"/>
    </g>
    <g id="line2d_33">
     <path d="M 514.456437 25.537812 
L 528.456437 25.537812 
L 542.456437 25.537812 
" style="fill: none; stroke: #348abd; stroke-width: 2"/>
    </g>
    <g id="text_18">
     <!-- first_issue_date -->
     <g transform="translate(553.656438 30.437812)scale(0.14 -0.14)">
      <defs>
       <path id="DejaVuSans-66" d="M 2375 4863 
L 2375 4384 
L 1825 4384 
Q 1516 4384 1395 4259 
Q 1275 4134 1275 3809 
L 1275 3500 
L 2222 3500 
L 2222 3053 
L 1275 3053 
L 1275 0 
L 697 0 
L 697 3053 
L 147 3053 
L 147 3500 
L 697 3500 
L 697 3744 
Q 697 4328 969 4595 
Q 1241 4863 1831 4863 
L 2375 4863 
z
" transform="scale(0.015625)"/>
       <path id="DejaVuSans-69" d="M 603 3500 
L 1178 3500 
L 1178 0 
L 603 0 
L 603 3500 
z
M 603 4863 
L 1178 4863 
L 1178 4134 
L 603 4134 
L 603 4863 
z
" transform="scale(0.015625)"/>
       <path id="DejaVuSans-72" d="M 2631 2963 
Q 2534 3019 2420 3045 
Q 2306 3072 2169 3072 
Q 1681 3072 1420 2755 
Q 1159 2438 1159 1844 
L 1159 0 
L 581 0 
L 581 3500 
L 1159 3500 
L 1159 2956 
Q 1341 3275 1631 3429 
Q 1922 3584 2338 3584 
Q 2397 3584 2469 3576 
Q 2541 3569 2628 3553 
L 2631 2963 
z
" transform="scale(0.015625)"/>
       <path id="DejaVuSans-73" d="M 2834 3397 
L 2834 2853 
Q 2591 2978 2328 3040 
Q 2066 3103 1784 3103 
Q 1356 3103 1142 2972 
Q 928 2841 928 2578 
Q 928 2378 1081 2264 
Q 1234 2150 1697 2047 
L 1894 2003 
Q 2506 1872 2764 1633 
Q 3022 1394 3022 966 
Q 3022 478 2636 193 
Q 2250 -91 1575 -91 
Q 1294 -91 989 -36 
Q 684 19 347 128 
L 347 722 
Q 666 556 975 473 
Q 1284 391 1588 391 
Q 1994 391 2212 530 
Q 2431 669 2431 922 
Q 2431 1156 2273 1281 
Q 2116 1406 1581 1522 
L 1381 1569 
Q 847 1681 609 1914 
Q 372 2147 372 2553 
Q 372 3047 722 3315 
Q 1072 3584 1716 3584 
Q 2034 3584 2315 3537 
Q 2597 3491 2834 3397 
z
" transform="scale(0.015625)"/>
       <path id="DejaVuSans-5f" d="M 3263 -1063 
L 3263 -1509 
L -63 -1509 
L -63 -1063 
L 3263 -1063 
z
" transform="scale(0.015625)"/>
      </defs>
      <use xlink:href="#DejaVuSans-66"/>
      <use xlink:href="#DejaVuSans-69" x="35.205078"/>
      <use xlink:href="#DejaVuSans-72" x="62.988281"/>
      <use xlink:href="#DejaVuSans-73" x="104.101562"/>
      <use xlink:href="#DejaVuSans-74" x="156.201172"/>
      <use xlink:href="#DejaVuSans-5f" x="195.410156"/>
      <use xlink:href="#DejaVuSans-69" x="245.410156"/>
      <use xlink:href="#DejaVuSans-73" x="273.193359"/>
      <use xlink:href="#DejaVuSans-73" x="325.292969"/>
      <use xlink:href="#DejaVuSans-75" x="377.392578"/>
      <use xlink:href="#DejaVuSans-65" x="440.771484"/>
      <use xlink:href="#DejaVuSans-5f" x="502.294922"/>
      <use xlink:href="#DejaVuSans-64" x="552.294922"/>
      <use xlink:href="#DejaVuSans-61" x="615.771484"/>
      <use xlink:href="#DejaVuSans-74" x="677.050781"/>
      <use xlink:href="#DejaVuSans-65" x="716.259766"/>
     </g>
    </g>
    <g id="line2d_34">
     <path d="M 514.456437 46.476562 
L 528.456437 46.476562 
L 542.456437 46.476562 
" style="fill: none; stroke: #a60628; stroke-width: 2"/>
    </g>
    <g id="text_19">
     <!-- first_redeem_date -->
     <g transform="translate(553.656438 51.376562)scale(0.14 -0.14)">
      <defs>
       <path id="DejaVuSans-6d" d="M 3328 2828 
Q 3544 3216 3844 3400 
Q 4144 3584 4550 3584 
Q 5097 3584 5394 3201 
Q 5691 2819 5691 2113 
L 5691 0 
L 5113 0 
L 5113 2094 
Q 5113 2597 4934 2840 
Q 4756 3084 4391 3084 
Q 3944 3084 3684 2787 
Q 3425 2491 3425 1978 
L 3425 0 
L 2847 0 
L 2847 2094 
Q 2847 2600 2669 2842 
Q 2491 3084 2119 3084 
Q 1678 3084 1418 2786 
Q 1159 2488 1159 1978 
L 1159 0 
L 581 0 
L 581 3500 
L 1159 3500 
L 1159 2956 
Q 1356 3278 1631 3431 
Q 1906 3584 2284 3584 
Q 2666 3584 2933 3390 
Q 3200 3197 3328 2828 
z
" transform="scale(0.015625)"/>
      </defs>
      <use xlink:href="#DejaVuSans-66"/>
      <use xlink:href="#DejaVuSans-69" x="35.205078"/>
      <use xlink:href="#DejaVuSans-72" x="62.988281"/>
      <use xlink:href="#DejaVuSans-73" x="104.101562"/>
      <use xlink:href="#DejaVuSans-74" x="156.201172"/>
      <use xlink:href="#DejaVuSans-5f" x="195.410156"/>
      <use xlink:href="#DejaVuSans-72" x="245.410156"/>
      <use xlink:href="#DejaVuSans-65" x="284.273438"/>
      <use xlink:href="#DejaVuSans-64" x="345.796875"/>
      <use xlink:href="#DejaVuSans-65" x="409.273438"/>
      <use xlink:href="#DejaVuSans-65" x="470.796875"/>
      <use xlink:href="#DejaVuSans-6d" x="532.320312"/>
      <use xlink:href="#DejaVuSans-5f" x="629.732422"/>
      <use xlink:href="#DejaVuSans-64" x="679.732422"/>
      <use xlink:href="#DejaVuSans-61" x="743.208984"/>
      <use xlink:href="#DejaVuSans-74" x="804.488281"/>
      <use xlink:href="#DejaVuSans-65" x="843.697266"/>
     </g>
    </g>
   </g>
  </g>
 </g>
 <defs>
  <clipPath id="p4483f1f3fa">
   <rect x="66.58925" y="7.2" width="626.4" height="349.92"/>
  </clipPath>
 </defs>
</svg>
