<?xml version="1.0" encoding="utf-8" standalone="no"?>
<!DOCTYPE svg PUBLIC "-//W3C//DTD SVG 1.1//EN"
  "http://www.w3.org/Graphics/SVG/1.1/DTD/svg11.dtd">
<svg xmlns:xlink="http://www.w3.org/1999/xlink" width="715.412375pt" height="527.764425pt" viewBox="0 0 715.412375 527.764425" xmlns="http://www.w3.org/2000/svg" version="1.1">
 <metadata>
  <rdf:RDF xmlns:dc="http://purl.org/dc/elements/1.1/" xmlns:cc="http://creativecommons.org/ns#" xmlns:rdf="http://www.w3.org/1999/02/22-rdf-syntax-ns#">
   <cc:Work>
    <dc:type rdf:resource="http://purl.org/dc/dcmitype/StillImage"/>
    <dc:date>2022-04-07T21:43:23.957953</dc:date>
    <dc:format>image/svg+xml</dc:format>
    <dc:creator>
     <cc:Agent>
      <dc:title>Matplotlib v3.5.1, https://matplotlib.org/</dc:title>
     </cc:Agent>
    </dc:creator>
   </cc:Work>
  </rdf:RDF>
 </metadata>
 <defs>
  <style type="text/css">*{stroke-linejoin: round; stroke-linecap: butt}</style>
 </defs>
 <g id="figure_1">
  <g id="patch_1">
   <path d="M 0 527.764425 
L 715.412375 527.764425 
L 715.412375 0 
L 0 0 
z
" style="fill: #f0f0f0"/>
  </g>
  <g id="axes_1">
   <g id="patch_2">
    <path d="M 53.223625 452.16 
L 554.343625 452.16 
L 554.343625 102.24 
L 53.223625 102.24 
z
" style="fill: #eeeeee"/>
   </g>
   <g id="matplotlib.axis_1">
    <g id="xtick_1">
     <g id="line2d_1">
      <path d="M 76.001807 452.16 
L 76.001807 102.24 
" clip-path="url(#pecf83a81cd)" style="fill: none; stroke-dasharray: 1.85,0.8; stroke-dashoffset: 0; stroke: #b2b2b2; stroke-width: 0.5"/>
     </g>
     <g id="line2d_2"/>
     <g id="text_1">
      <!-- 0-10 -->
      <g transform="translate(67.499842 485.649282)rotate(-45)scale(0.14 -0.14)">
       <defs>
        <path id="DejaVuSans-30" d="M 2034 4250 
Q 1547 4250 1301 3770 
Q 1056 3291 1056 2328 
Q 1056 1369 1301 889 
Q 1547 409 2034 409 
Q 2525 409 2770 889 
Q 3016 1369 3016 2328 
Q 3016 3291 2770 3770 
Q 2525 4250 2034 4250 
z
M 2034 4750 
Q 2819 4750 3233 4129 
Q 3647 3509 3647 2328 
Q 3647 1150 3233 529 
Q 2819 -91 2034 -91 
Q 1250 -91 836 529 
Q 422 1150 422 2328 
Q 422 3509 836 4129 
Q 1250 4750 2034 4750 
z
" transform="scale(0.015625)"/>
        <path id="DejaVuSans-2d" d="M 313 2009 
L 1997 2009 
L 1997 1497 
L 313 1497 
L 313 2009 
z
" transform="scale(0.015625)"/>
        <path id="DejaVuSans-31" d="M 794 531 
L 1825 531 
L 1825 4091 
L 703 3866 
L 703 4441 
L 1819 4666 
L 2450 4666 
L 2450 531 
L 3481 531 
L 3481 0 
L 794 0 
L 794 531 
z
" transform="scale(0.015625)"/>
       </defs>
       <use xlink:href="#DejaVuSans-30"/>
       <use xlink:href="#DejaVuSans-2d" x="63.623047"/>
       <use xlink:href="#DejaVuSans-31" x="99.707031"/>
       <use xlink:href="#DejaVuSans-30" x="163.330078"/>
      </g>
     </g>
    </g>
    <g id="xtick_2">
     <g id="line2d_3">
      <path d="M 126.619989 452.16 
L 126.619989 102.24 
" clip-path="url(#pecf83a81cd)" style="fill: none; stroke-dasharray: 1.85,0.8; stroke-dashoffset: 0; stroke: #b2b2b2; stroke-width: 0.5"/>
     </g>
     <g id="line2d_4"/>
     <g id="text_2">
      <!-- 10-20 -->
      <g transform="translate(114.968747 491.947836)rotate(-45)scale(0.14 -0.14)">
       <defs>
        <path id="DejaVuSans-32" d="M 1228 531 
L 3431 531 
L 3431 0 
L 469 0 
L 469 531 
Q 828 903 1448 1529 
Q 2069 2156 2228 2338 
Q 2531 2678 2651 2914 
Q 2772 3150 2772 3378 
Q 2772 3750 2511 3984 
Q 2250 4219 1831 4219 
Q 1534 4219 1204 4116 
Q 875 4013 500 3803 
L 500 4441 
Q 881 4594 1212 4672 
Q 1544 4750 1819 4750 
Q 2544 4750 2975 4387 
Q 3406 4025 3406 3419 
Q 3406 3131 3298 2873 
Q 3191 2616 2906 2266 
Q 2828 2175 2409 1742 
Q 1991 1309 1228 531 
z
" transform="scale(0.015625)"/>
       </defs>
       <use xlink:href="#DejaVuSans-31"/>
       <use xlink:href="#DejaVuSans-30" x="63.623047"/>
       <use xlink:href="#DejaVuSans-2d" x="127.246094"/>
       <use xlink:href="#DejaVuSans-32" x="163.330078"/>
       <use xlink:href="#DejaVuSans-30" x="226.953125"/>
      </g>
     </g>
    </g>
    <g id="xtick_3">
     <g id="line2d_5">
      <path d="M 177.23817 452.16 
L 177.23817 102.24 
" clip-path="url(#pecf83a81cd)" style="fill: none; stroke-dasharray: 1.85,0.8; stroke-dashoffset: 0; stroke: #b2b2b2; stroke-width: 0.5"/>
     </g>
     <g id="line2d_6"/>
     <g id="text_3">
      <!-- 20-30 -->
      <g transform="translate(165.586929 491.947836)rotate(-45)scale(0.14 -0.14)">
       <defs>
        <path id="DejaVuSans-33" d="M 2597 2516 
Q 3050 2419 3304 2112 
Q 3559 1806 3559 1356 
Q 3559 666 3084 287 
Q 2609 -91 1734 -91 
Q 1441 -91 1130 -33 
Q 819 25 488 141 
L 488 750 
Q 750 597 1062 519 
Q 1375 441 1716 441 
Q 2309 441 2620 675 
Q 2931 909 2931 1356 
Q 2931 1769 2642 2001 
Q 2353 2234 1838 2234 
L 1294 2234 
L 1294 2753 
L 1863 2753 
Q 2328 2753 2575 2939 
Q 2822 3125 2822 3475 
Q 2822 3834 2567 4026 
Q 2313 4219 1838 4219 
Q 1578 4219 1281 4162 
Q 984 4106 628 3988 
L 628 4550 
Q 988 4650 1302 4700 
Q 1616 4750 1894 4750 
Q 2613 4750 3031 4423 
Q 3450 4097 3450 3541 
Q 3450 3153 3228 2886 
Q 3006 2619 2597 2516 
z
" transform="scale(0.015625)"/>
       </defs>
       <use xlink:href="#DejaVuSans-32"/>
       <use xlink:href="#DejaVuSans-30" x="63.623047"/>
       <use xlink:href="#DejaVuSans-2d" x="127.246094"/>
       <use xlink:href="#DejaVuSans-33" x="163.330078"/>
       <use xlink:href="#DejaVuSans-30" x="226.953125"/>
      </g>
     </g>
    </g>
    <g id="xtick_4">
     <g id="line2d_7">
      <path d="M 227.856352 452.16 
L 227.856352 102.24 
" clip-path="url(#pecf83a81cd)" style="fill: none; stroke-dasharray: 1.85,0.8; stroke-dashoffset: 0; stroke: #b2b2b2; stroke-width: 0.5"/>
     </g>
     <g id="line2d_8"/>
     <g id="text_4">
      <!-- 30-40 -->
      <g transform="translate(216.205111 491.947836)rotate(-45)scale(0.14 -0.14)">
       <defs>
        <path id="DejaVuSans-34" d="M 2419 4116 
L 825 1625 
L 2419 1625 
L 2419 4116 
z
M 2253 4666 
L 3047 4666 
L 3047 1625 
L 3713 1625 
L 3713 1100 
L 3047 1100 
L 3047 0 
L 2419 0 
L 2419 1100 
L 313 1100 
L 313 1709 
L 2253 4666 
z
" transform="scale(0.015625)"/>
       </defs>
       <use xlink:href="#DejaVuSans-33"/>
       <use xlink:href="#DejaVuSans-30" x="63.623047"/>
       <use xlink:href="#DejaVuSans-2d" x="127.246094"/>
       <use xlink:href="#DejaVuSans-34" x="163.330078"/>
       <use xlink:href="#DejaVuSans-30" x="226.953125"/>
      </g>
     </g>
    </g>
    <g id="xtick_5">
     <g id="line2d_9">
      <path d="M 278.474534 452.16 
L 278.474534 102.24 
" clip-path="url(#pecf83a81cd)" style="fill: none; stroke-dasharray: 1.85,0.8; stroke-dashoffset: 0; stroke: #b2b2b2; stroke-width: 0.5"/>
     </g>
     <g id="line2d_10"/>
     <g id="text_5">
      <!-- 40-50 -->
      <g transform="translate(266.823293 491.947836)rotate(-45)scale(0.14 -0.14)">
       <defs>
        <path id="DejaVuSans-35" d="M 691 4666 
L 3169 4666 
L 3169 4134 
L 1269 4134 
L 1269 2991 
Q 1406 3038 1543 3061 
Q 1681 3084 1819 3084 
Q 2600 3084 3056 2656 
Q 3513 2228 3513 1497 
Q 3513 744 3044 326 
Q 2575 -91 1722 -91 
Q 1428 -91 1123 -41 
Q 819 9 494 109 
L 494 744 
Q 775 591 1075 516 
Q 1375 441 1709 441 
Q 2250 441 2565 725 
Q 2881 1009 2881 1497 
Q 2881 1984 2565 2268 
Q 2250 2553 1709 2553 
Q 1456 2553 1204 2497 
Q 953 2441 691 2322 
L 691 4666 
z
" transform="scale(0.015625)"/>
       </defs>
       <use xlink:href="#DejaVuSans-34"/>
       <use xlink:href="#DejaVuSans-30" x="63.623047"/>
       <use xlink:href="#DejaVuSans-2d" x="127.246094"/>
       <use xlink:href="#DejaVuSans-35" x="163.330078"/>
       <use xlink:href="#DejaVuSans-30" x="226.953125"/>
      </g>
     </g>
    </g>
    <g id="xtick_6">
     <g id="line2d_11">
      <path d="M 329.092716 452.16 
L 329.092716 102.24 
" clip-path="url(#pecf83a81cd)" style="fill: none; stroke-dasharray: 1.85,0.8; stroke-dashoffset: 0; stroke: #b2b2b2; stroke-width: 0.5"/>
     </g>
     <g id="line2d_12"/>
     <g id="text_6">
      <!-- 50-60 -->
      <g transform="translate(317.441474 491.947836)rotate(-45)scale(0.14 -0.14)">
       <defs>
        <path id="DejaVuSans-36" d="M 2113 2584 
Q 1688 2584 1439 2293 
Q 1191 2003 1191 1497 
Q 1191 994 1439 701 
Q 1688 409 2113 409 
Q 2538 409 2786 701 
Q 3034 994 3034 1497 
Q 3034 2003 2786 2293 
Q 2538 2584 2113 2584 
z
M 3366 4563 
L 3366 3988 
Q 3128 4100 2886 4159 
Q 2644 4219 2406 4219 
Q 1781 4219 1451 3797 
Q 1122 3375 1075 2522 
Q 1259 2794 1537 2939 
Q 1816 3084 2150 3084 
Q 2853 3084 3261 2657 
Q 3669 2231 3669 1497 
Q 3669 778 3244 343 
Q 2819 -91 2113 -91 
Q 1303 -91 875 529 
Q 447 1150 447 2328 
Q 447 3434 972 4092 
Q 1497 4750 2381 4750 
Q 2619 4750 2861 4703 
Q 3103 4656 3366 4563 
z
" transform="scale(0.015625)"/>
       </defs>
       <use xlink:href="#DejaVuSans-35"/>
       <use xlink:href="#DejaVuSans-30" x="63.623047"/>
       <use xlink:href="#DejaVuSans-2d" x="127.246094"/>
       <use xlink:href="#DejaVuSans-36" x="163.330078"/>
       <use xlink:href="#DejaVuSans-30" x="226.953125"/>
      </g>
     </g>
    </g>
    <g id="xtick_7">
     <g id="line2d_13">
      <path d="M 379.710898 452.16 
L 379.710898 102.24 
" clip-path="url(#pecf83a81cd)" style="fill: none; stroke-dasharray: 1.85,0.8; stroke-dashoffset: 0; stroke: #b2b2b2; stroke-width: 0.5"/>
     </g>
     <g id="line2d_14"/>
     <g id="text_7">
      <!-- 60-70 -->
      <g transform="translate(368.059656 491.947836)rotate(-45)scale(0.14 -0.14)">
       <defs>
        <path id="DejaVuSans-37" d="M 525 4666 
L 3525 4666 
L 3525 4397 
L 1831 0 
L 1172 0 
L 2766 4134 
L 525 4134 
L 525 4666 
z
" transform="scale(0.015625)"/>
       </defs>
       <use xlink:href="#DejaVuSans-36"/>
       <use xlink:href="#DejaVuSans-30" x="63.623047"/>
       <use xlink:href="#DejaVuSans-2d" x="127.246094"/>
       <use xlink:href="#DejaVuSans-37" x="163.330078"/>
       <use xlink:href="#DejaVuSans-30" x="226.953125"/>
      </g>
     </g>
    </g>
    <g id="xtick_8">
     <g id="line2d_15">
      <path d="M 430.32908 452.16 
L 430.32908 102.24 
" clip-path="url(#pecf83a81cd)" style="fill: none; stroke-dasharray: 1.85,0.8; stroke-dashoffset: 0; stroke: #b2b2b2; stroke-width: 0.5"/>
     </g>
     <g id="line2d_16"/>
     <g id="text_8">
      <!-- 70-80 -->
      <g transform="translate(418.677838 491.947836)rotate(-45)scale(0.14 -0.14)">
       <defs>
        <path id="DejaVuSans-38" d="M 2034 2216 
Q 1584 2216 1326 1975 
Q 1069 1734 1069 1313 
Q 1069 891 1326 650 
Q 1584 409 2034 409 
Q 2484 409 2743 651 
Q 3003 894 3003 1313 
Q 3003 1734 2745 1975 
Q 2488 2216 2034 2216 
z
M 1403 2484 
Q 997 2584 770 2862 
Q 544 3141 544 3541 
Q 544 4100 942 4425 
Q 1341 4750 2034 4750 
Q 2731 4750 3128 4425 
Q 3525 4100 3525 3541 
Q 3525 3141 3298 2862 
Q 3072 2584 2669 2484 
Q 3125 2378 3379 2068 
Q 3634 1759 3634 1313 
Q 3634 634 3220 271 
Q 2806 -91 2034 -91 
Q 1263 -91 848 271 
Q 434 634 434 1313 
Q 434 1759 690 2068 
Q 947 2378 1403 2484 
z
M 1172 3481 
Q 1172 3119 1398 2916 
Q 1625 2713 2034 2713 
Q 2441 2713 2670 2916 
Q 2900 3119 2900 3481 
Q 2900 3844 2670 4047 
Q 2441 4250 2034 4250 
Q 1625 4250 1398 4047 
Q 1172 3844 1172 3481 
z
" transform="scale(0.015625)"/>
       </defs>
       <use xlink:href="#DejaVuSans-37"/>
       <use xlink:href="#DejaVuSans-30" x="63.623047"/>
       <use xlink:href="#DejaVuSans-2d" x="127.246094"/>
       <use xlink:href="#DejaVuSans-38" x="163.330078"/>
       <use xlink:href="#DejaVuSans-30" x="226.953125"/>
      </g>
     </g>
    </g>
    <g id="xtick_9">
     <g id="line2d_17">
      <path d="M 480.947261 452.16 
L 480.947261 102.24 
" clip-path="url(#pecf83a81cd)" style="fill: none; stroke-dasharray: 1.85,0.8; stroke-dashoffset: 0; stroke: #b2b2b2; stroke-width: 0.5"/>
     </g>
     <g id="line2d_18"/>
     <g id="text_9">
      <!-- 80-90 -->
      <g transform="translate(469.29602 491.947836)rotate(-45)scale(0.14 -0.14)">
       <defs>
        <path id="DejaVuSans-39" d="M 703 97 
L 703 672 
Q 941 559 1184 500 
Q 1428 441 1663 441 
Q 2288 441 2617 861 
Q 2947 1281 2994 2138 
Q 2813 1869 2534 1725 
Q 2256 1581 1919 1581 
Q 1219 1581 811 2004 
Q 403 2428 403 3163 
Q 403 3881 828 4315 
Q 1253 4750 1959 4750 
Q 2769 4750 3195 4129 
Q 3622 3509 3622 2328 
Q 3622 1225 3098 567 
Q 2575 -91 1691 -91 
Q 1453 -91 1209 -44 
Q 966 3 703 97 
z
M 1959 2075 
Q 2384 2075 2632 2365 
Q 2881 2656 2881 3163 
Q 2881 3666 2632 3958 
Q 2384 4250 1959 4250 
Q 1534 4250 1286 3958 
Q 1038 3666 1038 3163 
Q 1038 2656 1286 2365 
Q 1534 2075 1959 2075 
z
" transform="scale(0.015625)"/>
       </defs>
       <use xlink:href="#DejaVuSans-38"/>
       <use xlink:href="#DejaVuSans-30" x="63.623047"/>
       <use xlink:href="#DejaVuSans-2d" x="127.246094"/>
       <use xlink:href="#DejaVuSans-39" x="163.330078"/>
       <use xlink:href="#DejaVuSans-30" x="226.953125"/>
      </g>
     </g>
    </g>
    <g id="xtick_10">
     <g id="line2d_19">
      <path d="M 531.565443 452.16 
L 531.565443 102.24 
" clip-path="url(#pecf83a81cd)" style="fill: none; stroke-dasharray: 1.85,0.8; stroke-dashoffset: 0; stroke: #b2b2b2; stroke-width: 0.5"/>
     </g>
     <g id="line2d_20"/>
     <g id="text_10">
      <!-- 90-100 -->
      <g transform="translate(516.764925 498.24639)rotate(-45)scale(0.14 -0.14)">
       <use xlink:href="#DejaVuSans-39"/>
       <use xlink:href="#DejaVuSans-30" x="63.623047"/>
       <use xlink:href="#DejaVuSans-2d" x="127.246094"/>
       <use xlink:href="#DejaVuSans-31" x="163.330078"/>
       <use xlink:href="#DejaVuSans-30" x="226.953125"/>
       <use xlink:href="#DejaVuSans-30" x="290.576172"/>
      </g>
     </g>
    </g>
    <g id="text_11">
     <!-- Percentile -->
     <g transform="translate(262.350625 517.07055)scale(0.168 -0.168)">
      <defs>
       <path id="DejaVuSans-50" d="M 1259 4147 
L 1259 2394 
L 2053 2394 
Q 2494 2394 2734 2622 
Q 2975 2850 2975 3272 
Q 2975 3691 2734 3919 
Q 2494 4147 2053 4147 
L 1259 4147 
z
M 628 4666 
L 2053 4666 
Q 2838 4666 3239 4311 
Q 3641 3956 3641 3272 
Q 3641 2581 3239 2228 
Q 2838 1875 2053 1875 
L 1259 1875 
L 1259 0 
L 628 0 
L 628 4666 
z
" transform="scale(0.015625)"/>
       <path id="DejaVuSans-65" d="M 3597 1894 
L 3597 1613 
L 953 1613 
Q 991 1019 1311 708 
Q 1631 397 2203 397 
Q 2534 397 2845 478 
Q 3156 559 3463 722 
L 3463 178 
Q 3153 47 2828 -22 
Q 2503 -91 2169 -91 
Q 1331 -91 842 396 
Q 353 884 353 1716 
Q 353 2575 817 3079 
Q 1281 3584 2069 3584 
Q 2775 3584 3186 3129 
Q 3597 2675 3597 1894 
z
M 3022 2063 
Q 3016 2534 2758 2815 
Q 2500 3097 2075 3097 
Q 1594 3097 1305 2825 
Q 1016 2553 972 2059 
L 3022 2063 
z
" transform="scale(0.015625)"/>
       <path id="DejaVuSans-72" d="M 2631 2963 
Q 2534 3019 2420 3045 
Q 2306 3072 2169 3072 
Q 1681 3072 1420 2755 
Q 1159 2438 1159 1844 
L 1159 0 
L 581 0 
L 581 3500 
L 1159 3500 
L 1159 2956 
Q 1341 3275 1631 3429 
Q 1922 3584 2338 3584 
Q 2397 3584 2469 3576 
Q 2541 3569 2628 3553 
L 2631 2963 
z
" transform="scale(0.015625)"/>
       <path id="DejaVuSans-63" d="M 3122 3366 
L 3122 2828 
Q 2878 2963 2633 3030 
Q 2388 3097 2138 3097 
Q 1578 3097 1268 2742 
Q 959 2388 959 1747 
Q 959 1106 1268 751 
Q 1578 397 2138 397 
Q 2388 397 2633 464 
Q 2878 531 3122 666 
L 3122 134 
Q 2881 22 2623 -34 
Q 2366 -91 2075 -91 
Q 1284 -91 818 406 
Q 353 903 353 1747 
Q 353 2603 823 3093 
Q 1294 3584 2113 3584 
Q 2378 3584 2631 3529 
Q 2884 3475 3122 3366 
z
" transform="scale(0.015625)"/>
       <path id="DejaVuSans-6e" d="M 3513 2113 
L 3513 0 
L 2938 0 
L 2938 2094 
Q 2938 2591 2744 2837 
Q 2550 3084 2163 3084 
Q 1697 3084 1428 2787 
Q 1159 2491 1159 1978 
L 1159 0 
L 581 0 
L 581 3500 
L 1159 3500 
L 1159 2956 
Q 1366 3272 1645 3428 
Q 1925 3584 2291 3584 
Q 2894 3584 3203 3211 
Q 3513 2838 3513 2113 
z
" transform="scale(0.015625)"/>
       <path id="DejaVuSans-74" d="M 1172 4494 
L 1172 3500 
L 2356 3500 
L 2356 3053 
L 1172 3053 
L 1172 1153 
Q 1172 725 1289 603 
Q 1406 481 1766 481 
L 2356 481 
L 2356 0 
L 1766 0 
Q 1100 0 847 248 
Q 594 497 594 1153 
L 594 3053 
L 172 3053 
L 172 3500 
L 594 3500 
L 594 4494 
L 1172 4494 
z
" transform="scale(0.015625)"/>
       <path id="DejaVuSans-69" d="M 603 3500 
L 1178 3500 
L 1178 0 
L 603 0 
L 603 3500 
z
M 603 4863 
L 1178 4863 
L 1178 4134 
L 603 4134 
L 603 4863 
z
" transform="scale(0.015625)"/>
       <path id="DejaVuSans-6c" d="M 603 4863 
L 1178 4863 
L 1178 0 
L 603 0 
L 603 4863 
z
" transform="scale(0.015625)"/>
      </defs>
      <use xlink:href="#DejaVuSans-50"/>
      <use xlink:href="#DejaVuSans-65" x="56.677734"/>
      <use xlink:href="#DejaVuSans-72" x="118.201172"/>
      <use xlink:href="#DejaVuSans-63" x="157.064453"/>
      <use xlink:href="#DejaVuSans-65" x="212.044922"/>
      <use xlink:href="#DejaVuSans-6e" x="273.568359"/>
      <use xlink:href="#DejaVuSans-74" x="336.947266"/>
      <use xlink:href="#DejaVuSans-69" x="376.15625"/>
      <use xlink:href="#DejaVuSans-6c" x="403.939453"/>
      <use xlink:href="#DejaVuSans-65" x="431.722656"/>
     </g>
    </g>
   </g>
   <g id="matplotlib.axis_2">
    <g id="ytick_1">
     <g id="line2d_21">
      <path d="M 53.223625 427.545647 
L 554.343625 427.545647 
" clip-path="url(#pecf83a81cd)" style="fill: none; stroke-dasharray: 1.85,0.8; stroke-dashoffset: 0; stroke: #b2b2b2; stroke-width: 0.5"/>
     </g>
     <g id="line2d_22"/>
     <g id="text_12">
      <!-- 0.0 -->
      <g transform="translate(27.45925 432.864553)scale(0.14 -0.14)">
       <defs>
        <path id="DejaVuSans-2e" d="M 684 794 
L 1344 794 
L 1344 0 
L 684 0 
L 684 794 
z
" transform="scale(0.015625)"/>
       </defs>
       <use xlink:href="#DejaVuSans-30"/>
       <use xlink:href="#DejaVuSans-2e" x="63.623047"/>
       <use xlink:href="#DejaVuSans-30" x="95.410156"/>
      </g>
     </g>
    </g>
    <g id="ytick_2">
     <g id="line2d_23">
      <path d="M 53.223625 387.408295 
L 554.343625 387.408295 
" clip-path="url(#pecf83a81cd)" style="fill: none; stroke-dasharray: 1.85,0.8; stroke-dashoffset: 0; stroke: #b2b2b2; stroke-width: 0.5"/>
     </g>
     <g id="line2d_24"/>
     <g id="text_13">
      <!-- 0.1 -->
      <g transform="translate(27.45925 392.727201)scale(0.14 -0.14)">
       <use xlink:href="#DejaVuSans-30"/>
       <use xlink:href="#DejaVuSans-2e" x="63.623047"/>
       <use xlink:href="#DejaVuSans-31" x="95.410156"/>
      </g>
     </g>
    </g>
    <g id="ytick_3">
     <g id="line2d_25">
      <path d="M 53.223625 347.270943 
L 554.343625 347.270943 
" clip-path="url(#pecf83a81cd)" style="fill: none; stroke-dasharray: 1.85,0.8; stroke-dashoffset: 0; stroke: #b2b2b2; stroke-width: 0.5"/>
     </g>
     <g id="line2d_26"/>
     <g id="text_14">
      <!-- 0.2 -->
      <g transform="translate(27.45925 352.58985)scale(0.14 -0.14)">
       <use xlink:href="#DejaVuSans-30"/>
       <use xlink:href="#DejaVuSans-2e" x="63.623047"/>
       <use xlink:href="#DejaVuSans-32" x="95.410156"/>
      </g>
     </g>
    </g>
    <g id="ytick_4">
     <g id="line2d_27">
      <path d="M 53.223625 307.133592 
L 554.343625 307.133592 
" clip-path="url(#pecf83a81cd)" style="fill: none; stroke-dasharray: 1.85,0.8; stroke-dashoffset: 0; stroke: #b2b2b2; stroke-width: 0.5"/>
     </g>
     <g id="line2d_28"/>
     <g id="text_15">
      <!-- 0.3 -->
      <g transform="translate(27.45925 312.452498)scale(0.14 -0.14)">
       <use xlink:href="#DejaVuSans-30"/>
       <use xlink:href="#DejaVuSans-2e" x="63.623047"/>
       <use xlink:href="#DejaVuSans-33" x="95.410156"/>
      </g>
     </g>
    </g>
    <g id="ytick_5">
     <g id="line2d_29">
      <path d="M 53.223625 266.99624 
L 554.343625 266.99624 
" clip-path="url(#pecf83a81cd)" style="fill: none; stroke-dasharray: 1.85,0.8; stroke-dashoffset: 0; stroke: #b2b2b2; stroke-width: 0.5"/>
     </g>
     <g id="line2d_30"/>
     <g id="text_16">
      <!-- 0.4 -->
      <g transform="translate(27.45925 272.315146)scale(0.14 -0.14)">
       <use xlink:href="#DejaVuSans-30"/>
       <use xlink:href="#DejaVuSans-2e" x="63.623047"/>
       <use xlink:href="#DejaVuSans-34" x="95.410156"/>
      </g>
     </g>
    </g>
    <g id="ytick_6">
     <g id="line2d_31">
      <path d="M 53.223625 226.858888 
L 554.343625 226.858888 
" clip-path="url(#pecf83a81cd)" style="fill: none; stroke-dasharray: 1.85,0.8; stroke-dashoffset: 0; stroke: #b2b2b2; stroke-width: 0.5"/>
     </g>
     <g id="line2d_32"/>
     <g id="text_17">
      <!-- 0.5 -->
      <g transform="translate(27.45925 232.177794)scale(0.14 -0.14)">
       <use xlink:href="#DejaVuSans-30"/>
       <use xlink:href="#DejaVuSans-2e" x="63.623047"/>
       <use xlink:href="#DejaVuSans-35" x="95.410156"/>
      </g>
     </g>
    </g>
    <g id="ytick_7">
     <g id="line2d_33">
      <path d="M 53.223625 186.721536 
L 554.343625 186.721536 
" clip-path="url(#pecf83a81cd)" style="fill: none; stroke-dasharray: 1.85,0.8; stroke-dashoffset: 0; stroke: #b2b2b2; stroke-width: 0.5"/>
     </g>
     <g id="line2d_34"/>
     <g id="text_18">
      <!-- 0.6 -->
      <g transform="translate(27.45925 192.040443)scale(0.14 -0.14)">
       <use xlink:href="#DejaVuSans-30"/>
       <use xlink:href="#DejaVuSans-2e" x="63.623047"/>
       <use xlink:href="#DejaVuSans-36" x="95.410156"/>
      </g>
     </g>
    </g>
    <g id="ytick_8">
     <g id="line2d_35">
      <path d="M 53.223625 146.584185 
L 554.343625 146.584185 
" clip-path="url(#pecf83a81cd)" style="fill: none; stroke-dasharray: 1.85,0.8; stroke-dashoffset: 0; stroke: #b2b2b2; stroke-width: 0.5"/>
     </g>
     <g id="line2d_36"/>
     <g id="text_19">
      <!-- 0.7 -->
      <g transform="translate(27.45925 151.903091)scale(0.14 -0.14)">
       <use xlink:href="#DejaVuSans-30"/>
       <use xlink:href="#DejaVuSans-2e" x="63.623047"/>
       <use xlink:href="#DejaVuSans-37" x="95.410156"/>
      </g>
     </g>
    </g>
    <g id="ytick_9">
     <g id="line2d_37">
      <path d="M 53.223625 106.446833 
L 554.343625 106.446833 
" clip-path="url(#pecf83a81cd)" style="fill: none; stroke-dasharray: 1.85,0.8; stroke-dashoffset: 0; stroke: #b2b2b2; stroke-width: 0.5"/>
     </g>
     <g id="line2d_38"/>
     <g id="text_20">
      <!-- 0.8 -->
      <g transform="translate(27.45925 111.765739)scale(0.14 -0.14)">
       <use xlink:href="#DejaVuSans-30"/>
       <use xlink:href="#DejaVuSans-2e" x="63.623047"/>
       <use xlink:href="#DejaVuSans-38" x="95.410156"/>
      </g>
     </g>
    </g>
    <g id="text_21">
     <!-- Uplift = treatment response rate - control response rate -->
     <g transform="translate(19.965375 512.547)rotate(-90)scale(0.168 -0.168)">
      <defs>
       <path id="DejaVuSans-55" d="M 556 4666 
L 1191 4666 
L 1191 1831 
Q 1191 1081 1462 751 
Q 1734 422 2344 422 
Q 2950 422 3222 751 
Q 3494 1081 3494 1831 
L 3494 4666 
L 4128 4666 
L 4128 1753 
Q 4128 841 3676 375 
Q 3225 -91 2344 -91 
Q 1459 -91 1007 375 
Q 556 841 556 1753 
L 556 4666 
z
" transform="scale(0.015625)"/>
       <path id="DejaVuSans-70" d="M 1159 525 
L 1159 -1331 
L 581 -1331 
L 581 3500 
L 1159 3500 
L 1159 2969 
Q 1341 3281 1617 3432 
Q 1894 3584 2278 3584 
Q 2916 3584 3314 3078 
Q 3713 2572 3713 1747 
Q 3713 922 3314 415 
Q 2916 -91 2278 -91 
Q 1894 -91 1617 61 
Q 1341 213 1159 525 
z
M 3116 1747 
Q 3116 2381 2855 2742 
Q 2594 3103 2138 3103 
Q 1681 3103 1420 2742 
Q 1159 2381 1159 1747 
Q 1159 1113 1420 752 
Q 1681 391 2138 391 
Q 2594 391 2855 752 
Q 3116 1113 3116 1747 
z
" transform="scale(0.015625)"/>
       <path id="DejaVuSans-66" d="M 2375 4863 
L 2375 4384 
L 1825 4384 
Q 1516 4384 1395 4259 
Q 1275 4134 1275 3809 
L 1275 3500 
L 2222 3500 
L 2222 3053 
L 1275 3053 
L 1275 0 
L 697 0 
L 697 3053 
L 147 3053 
L 147 3500 
L 697 3500 
L 697 3744 
Q 697 4328 969 4595 
Q 1241 4863 1831 4863 
L 2375 4863 
z
" transform="scale(0.015625)"/>
       <path id="DejaVuSans-20" transform="scale(0.015625)"/>
       <path id="DejaVuSans-3d" d="M 678 2906 
L 4684 2906 
L 4684 2381 
L 678 2381 
L 678 2906 
z
M 678 1631 
L 4684 1631 
L 4684 1100 
L 678 1100 
L 678 1631 
z
" transform="scale(0.015625)"/>
       <path id="DejaVuSans-61" d="M 2194 1759 
Q 1497 1759 1228 1600 
Q 959 1441 959 1056 
Q 959 750 1161 570 
Q 1363 391 1709 391 
Q 2188 391 2477 730 
Q 2766 1069 2766 1631 
L 2766 1759 
L 2194 1759 
z
M 3341 1997 
L 3341 0 
L 2766 0 
L 2766 531 
Q 2569 213 2275 61 
Q 1981 -91 1556 -91 
Q 1019 -91 701 211 
Q 384 513 384 1019 
Q 384 1609 779 1909 
Q 1175 2209 1959 2209 
L 2766 2209 
L 2766 2266 
Q 2766 2663 2505 2880 
Q 2244 3097 1772 3097 
Q 1472 3097 1187 3025 
Q 903 2953 641 2809 
L 641 3341 
Q 956 3463 1253 3523 
Q 1550 3584 1831 3584 
Q 2591 3584 2966 3190 
Q 3341 2797 3341 1997 
z
" transform="scale(0.015625)"/>
       <path id="DejaVuSans-6d" d="M 3328 2828 
Q 3544 3216 3844 3400 
Q 4144 3584 4550 3584 
Q 5097 3584 5394 3201 
Q 5691 2819 5691 2113 
L 5691 0 
L 5113 0 
L 5113 2094 
Q 5113 2597 4934 2840 
Q 4756 3084 4391 3084 
Q 3944 3084 3684 2787 
Q 3425 2491 3425 1978 
L 3425 0 
L 2847 0 
L 2847 2094 
Q 2847 2600 2669 2842 
Q 2491 3084 2119 3084 
Q 1678 3084 1418 2786 
Q 1159 2488 1159 1978 
L 1159 0 
L 581 0 
L 581 3500 
L 1159 3500 
L 1159 2956 
Q 1356 3278 1631 3431 
Q 1906 3584 2284 3584 
Q 2666 3584 2933 3390 
Q 3200 3197 3328 2828 
z
" transform="scale(0.015625)"/>
       <path id="DejaVuSans-73" d="M 2834 3397 
L 2834 2853 
Q 2591 2978 2328 3040 
Q 2066 3103 1784 3103 
Q 1356 3103 1142 2972 
Q 928 2841 928 2578 
Q 928 2378 1081 2264 
Q 1234 2150 1697 2047 
L 1894 2003 
Q 2506 1872 2764 1633 
Q 3022 1394 3022 966 
Q 3022 478 2636 193 
Q 2250 -91 1575 -91 
Q 1294 -91 989 -36 
Q 684 19 347 128 
L 347 722 
Q 666 556 975 473 
Q 1284 391 1588 391 
Q 1994 391 2212 530 
Q 2431 669 2431 922 
Q 2431 1156 2273 1281 
Q 2116 1406 1581 1522 
L 1381 1569 
Q 847 1681 609 1914 
Q 372 2147 372 2553 
Q 372 3047 722 3315 
Q 1072 3584 1716 3584 
Q 2034 3584 2315 3537 
Q 2597 3491 2834 3397 
z
" transform="scale(0.015625)"/>
       <path id="DejaVuSans-6f" d="M 1959 3097 
Q 1497 3097 1228 2736 
Q 959 2375 959 1747 
Q 959 1119 1226 758 
Q 1494 397 1959 397 
Q 2419 397 2687 759 
Q 2956 1122 2956 1747 
Q 2956 2369 2687 2733 
Q 2419 3097 1959 3097 
z
M 1959 3584 
Q 2709 3584 3137 3096 
Q 3566 2609 3566 1747 
Q 3566 888 3137 398 
Q 2709 -91 1959 -91 
Q 1206 -91 779 398 
Q 353 888 353 1747 
Q 353 2609 779 3096 
Q 1206 3584 1959 3584 
z
" transform="scale(0.015625)"/>
      </defs>
      <use xlink:href="#DejaVuSans-55"/>
      <use xlink:href="#DejaVuSans-70" x="73.193359"/>
      <use xlink:href="#DejaVuSans-6c" x="136.669922"/>
      <use xlink:href="#DejaVuSans-69" x="164.453125"/>
      <use xlink:href="#DejaVuSans-66" x="192.236328"/>
      <use xlink:href="#DejaVuSans-74" x="225.691406"/>
      <use xlink:href="#DejaVuSans-20" x="264.900391"/>
      <use xlink:href="#DejaVuSans-3d" x="296.6875"/>
      <use xlink:href="#DejaVuSans-20" x="380.476562"/>
      <use xlink:href="#DejaVuSans-74" x="412.263672"/>
      <use xlink:href="#DejaVuSans-72" x="451.472656"/>
      <use xlink:href="#DejaVuSans-65" x="490.335938"/>
      <use xlink:href="#DejaVuSans-61" x="551.859375"/>
      <use xlink:href="#DejaVuSans-74" x="613.138672"/>
      <use xlink:href="#DejaVuSans-6d" x="652.347656"/>
      <use xlink:href="#DejaVuSans-65" x="749.759766"/>
      <use xlink:href="#DejaVuSans-6e" x="811.283203"/>
      <use xlink:href="#DejaVuSans-74" x="874.662109"/>
      <use xlink:href="#DejaVuSans-20" x="913.871094"/>
      <use xlink:href="#DejaVuSans-72" x="945.658203"/>
      <use xlink:href="#DejaVuSans-65" x="984.521484"/>
      <use xlink:href="#DejaVuSans-73" x="1046.044922"/>
      <use xlink:href="#DejaVuSans-70" x="1098.144531"/>
      <use xlink:href="#DejaVuSans-6f" x="1161.621094"/>
      <use xlink:href="#DejaVuSans-6e" x="1222.802734"/>
      <use xlink:href="#DejaVuSans-73" x="1286.181641"/>
      <use xlink:href="#DejaVuSans-65" x="1338.28125"/>
      <use xlink:href="#DejaVuSans-20" x="1399.804688"/>
      <use xlink:href="#DejaVuSans-72" x="1431.591797"/>
      <use xlink:href="#DejaVuSans-61" x="1472.705078"/>
      <use xlink:href="#DejaVuSans-74" x="1533.984375"/>
      <use xlink:href="#DejaVuSans-65" x="1573.193359"/>
      <use xlink:href="#DejaVuSans-20" x="1634.716797"/>
      <use xlink:href="#DejaVuSans-2d" x="1666.503906"/>
      <use xlink:href="#DejaVuSans-20" x="1702.587891"/>
      <use xlink:href="#DejaVuSans-63" x="1734.375"/>
      <use xlink:href="#DejaVuSans-6f" x="1789.355469"/>
      <use xlink:href="#DejaVuSans-6e" x="1850.537109"/>
      <use xlink:href="#DejaVuSans-74" x="1913.916016"/>
      <use xlink:href="#DejaVuSans-72" x="1953.125"/>
      <use xlink:href="#DejaVuSans-6f" x="1991.988281"/>
      <use xlink:href="#DejaVuSans-6c" x="2053.169922"/>
      <use xlink:href="#DejaVuSans-20" x="2080.953125"/>
      <use xlink:href="#DejaVuSans-72" x="2112.740234"/>
      <use xlink:href="#DejaVuSans-65" x="2151.603516"/>
      <use xlink:href="#DejaVuSans-73" x="2213.126953"/>
      <use xlink:href="#DejaVuSans-70" x="2265.226562"/>
      <use xlink:href="#DejaVuSans-6f" x="2328.703125"/>
      <use xlink:href="#DejaVuSans-6e" x="2389.884766"/>
      <use xlink:href="#DejaVuSans-73" x="2453.263672"/>
      <use xlink:href="#DejaVuSans-65" x="2505.363281"/>
      <use xlink:href="#DejaVuSans-20" x="2566.886719"/>
      <use xlink:href="#DejaVuSans-72" x="2598.673828"/>
      <use xlink:href="#DejaVuSans-61" x="2639.787109"/>
      <use xlink:href="#DejaVuSans-74" x="2701.066406"/>
      <use xlink:href="#DejaVuSans-65" x="2740.275391"/>
     </g>
    </g>
   </g>
   <g id="PolyCollection_1">
    <defs>
     <path id="mfcccf807e6" d="M 76.001807 -279.318828 
L 76.001807 -325.910408 
L 126.619989 -321.876773 
L 177.23817 -328.424457 
L 227.856352 -355.274858 
L 278.474534 -368.736726 
L 329.092716 -383.736001 
L 379.710898 -397.127067 
L 430.32908 -406.49475 
L 480.947261 -358.468973 
L 531.565443 -310.900886 
L 531.565443 -314.420656 
L 531.565443 -314.420656 
L 480.947261 -351.077227 
L 430.32908 -399.473224 
L 379.710898 -391.944894 
L 329.092716 -374.971749 
L 278.474534 -356.337162 
L 227.856352 -337.633852 
L 177.23817 -317.086705 
L 126.619989 -301.04132 
L 76.001807 -279.318828 
z
" style="stroke: #ff0000; stroke-opacity: 0.1; stroke-width: 0.5"/>
    </defs>
    <g clip-path="url(#pecf83a81cd)">
     <use xlink:href="#mfcccf807e6" x="0" y="527.764425" style="fill: #ff0000; fill-opacity: 0.1; stroke: #ff0000; stroke-opacity: 0.1; stroke-width: 0.5"/>
    </g>
   </g>
   <g id="LineCollection_1">
    <path d="M 76.001807 205.431525 
L 76.001807 198.27651 
" clip-path="url(#pecf83a81cd)" style="fill: none; stroke: #228b22; stroke-width: 2"/>
    <path d="M 126.619989 209.517126 
L 126.619989 202.258179 
" clip-path="url(#pecf83a81cd)" style="fill: none; stroke: #228b22; stroke-width: 2"/>
    <path d="M 177.23817 202.975444 
L 177.23817 195.704492 
" clip-path="url(#pecf83a81cd)" style="fill: none; stroke: #228b22; stroke-width: 2"/>
    <path d="M 227.856352 176.009532 
L 227.856352 168.969602 
" clip-path="url(#pecf83a81cd)" style="fill: none; stroke: #228b22; stroke-width: 2"/>
    <path d="M 278.474534 162.474363 
L 278.474534 155.581036 
" clip-path="url(#pecf83a81cd)" style="fill: none; stroke: #228b22; stroke-width: 2"/>
    <path d="M 329.092716 147.348693 
L 329.092716 140.708156 
" clip-path="url(#pecf83a81cd)" style="fill: none; stroke: #228b22; stroke-width: 2"/>
    <path d="M 379.710898 133.868967 
L 379.710898 127.405749 
" clip-path="url(#pecf83a81cd)" style="fill: none; stroke: #228b22; stroke-width: 2"/>
    <path d="M 430.32908 124.393896 
L 430.32908 118.145455 
" clip-path="url(#pecf83a81cd)" style="fill: none; stroke: #228b22; stroke-width: 2"/>
    <path d="M 480.947261 172.841755 
L 480.947261 165.74915 
" clip-path="url(#pecf83a81cd)" style="fill: none; stroke: #228b22; stroke-width: 2"/>
    <path d="M 531.565443 220.630659 
L 531.565443 213.096419 
" clip-path="url(#pecf83a81cd)" style="fill: none; stroke: #228b22; stroke-width: 2"/>
   </g>
   <g id="LineCollection_2">
    <path d="M 76.001807 252.162187 
L 76.001807 244.729007 
" clip-path="url(#pecf83a81cd)" style="fill: none; stroke: #ffa500; stroke-width: 2"/>
    <path d="M 126.619989 230.414295 
L 126.619989 223.031915 
" clip-path="url(#pecf83a81cd)" style="fill: none; stroke: #ffa500; stroke-width: 2"/>
    <path d="M 177.23817 214.336528 
L 177.23817 207.018914 
" clip-path="url(#pecf83a81cd)" style="fill: none; stroke: #ffa500; stroke-width: 2"/>
    <path d="M 227.856352 193.752689 
L 227.856352 186.508458 
" clip-path="url(#pecf83a81cd)" style="fill: none; stroke: #ffa500; stroke-width: 2"/>
    <path d="M 278.474534 174.962916 
L 278.474534 167.89161 
" clip-path="url(#pecf83a81cd)" style="fill: none; stroke: #ffa500; stroke-width: 2"/>
    <path d="M 329.092716 156.227935 
L 329.092716 149.357416 
" clip-path="url(#pecf83a81cd)" style="fill: none; stroke: #ffa500; stroke-width: 2"/>
    <path d="M 379.710898 139.079967 
L 379.710898 132.559095 
" clip-path="url(#pecf83a81cd)" style="fill: none; stroke: #ffa500; stroke-width: 2"/>
    <path d="M 430.32908 131.485498 
L 430.32908 125.096904 
" clip-path="url(#pecf83a81cd)" style="fill: none; stroke: #ffa500; stroke-width: 2"/>
    <path d="M 480.947261 180.211455 
L 480.947261 173.162941 
" clip-path="url(#pecf83a81cd)" style="fill: none; stroke: #ffa500; stroke-width: 2"/>
    <path d="M 531.565443 216.912505 
L 531.565443 209.775035 
" clip-path="url(#pecf83a81cd)" style="fill: none; stroke: #ffa500; stroke-width: 2"/>
   </g>
   <g id="LineCollection_3">
    <path d="M 76.001807 386.112711 
L 76.001807 375.795424 
" clip-path="url(#pecf83a81cd)" style="fill: none; stroke: #ff0000; stroke-width: 2"/>
    <path d="M 126.619989 411.886869 
L 126.619989 401.533519 
" clip-path="url(#pecf83a81cd)" style="fill: none; stroke: #ff0000; stroke-width: 2"/>
    <path d="M 177.23817 421.365757 
L 177.23817 411.050031 
" clip-path="url(#pecf83a81cd)" style="fill: none; stroke: #ff0000; stroke-width: 2"/>
    <path d="M 227.856352 414.955371 
L 227.856352 404.85391 
" clip-path="url(#pecf83a81cd)" style="fill: none; stroke: #ff0000; stroke-width: 2"/>
    <path d="M 278.474534 420.083727 
L 278.474534 410.208438 
" clip-path="url(#pecf83a81cd)" style="fill: none; stroke: #ff0000; stroke-width: 2"/>
    <path d="M 329.092716 423.558967 
L 329.092716 414.003824 
" clip-path="url(#pecf83a81cd)" style="fill: none; stroke: #ff0000; stroke-width: 2"/>
    <path d="M 379.710898 426.954088 
L 379.710898 417.772859 
" clip-path="url(#pecf83a81cd)" style="fill: none; stroke: #ff0000; stroke-width: 2"/>
    <path d="M 430.32908 424.992262 
L 430.32908 416.055979 
" clip-path="url(#pecf83a81cd)" style="fill: none; stroke: #ff0000; stroke-width: 2"/>
    <path d="M 480.947261 425.153565 
L 480.947261 415.154236 
" clip-path="url(#pecf83a81cd)" style="fill: none; stroke: #ff0000; stroke-width: 2"/>
    <path d="M 531.565443 436.254545 
L 531.565443 425.876287 
" clip-path="url(#pecf83a81cd)" style="fill: none; stroke: #ff0000; stroke-width: 2"/>
   </g>
   <g id="line2d_39">
    <path d="M 53.223625 427.545647 
L 554.343625 427.545647 
" clip-path="url(#pecf83a81cd)" style="fill: none; stroke: #000000"/>
   </g>
   <g id="line2d_40">
    <path d="M 76.001807 201.854018 
L 126.619989 205.887653 
L 177.23817 199.339968 
L 227.856352 172.489567 
L 278.474534 159.027699 
L 329.092716 144.028425 
L 379.710898 130.637358 
L 430.32908 121.269675 
L 480.947261 169.295452 
L 531.565443 216.863539 
" clip-path="url(#pecf83a81cd)" style="fill: none; stroke: #228b22; stroke-width: 2"/>
   </g>
   <g id="line2d_41">
    <path d="M 76.001807 248.445597 
L 126.619989 226.723105 
L 177.23817 210.677721 
L 227.856352 190.130573 
L 278.474534 171.427263 
L 329.092716 152.792676 
L 379.710898 135.819531 
L 430.32908 128.291201 
L 480.947261 176.687198 
L 531.565443 213.34377 
" clip-path="url(#pecf83a81cd)" style="fill: none; stroke: #ffa500; stroke-width: 2"/>
   </g>
   <g id="line2d_42">
    <path d="M 76.001807 380.954067 
L 126.619989 406.710194 
L 177.23817 416.207894 
L 227.856352 409.90464 
L 278.474534 415.146083 
L 329.092716 418.781395 
L 379.710898 422.363474 
L 430.32908 420.524121 
L 480.947261 420.153901 
L 531.565443 431.065416 
" clip-path="url(#pecf83a81cd)" style="fill: none; stroke: #ff0000; stroke-width: 2"/>
   </g>
   <g id="patch_3">
    <path d="M 53.223625 452.16 
L 53.223625 102.24 
" style="fill: none; stroke: #bcbcbc; stroke-width: 3; stroke-linejoin: miter; stroke-linecap: square"/>
   </g>
   <g id="patch_4">
    <path d="M 554.343625 452.16 
L 554.343625 102.24 
" style="fill: none; stroke: #bcbcbc; stroke-width: 3; stroke-linejoin: miter; stroke-linecap: square"/>
   </g>
   <g id="patch_5">
    <path d="M 53.223625 452.16 
L 554.343625 452.16 
" style="fill: none; stroke: #bcbcbc; stroke-width: 3; stroke-linejoin: miter; stroke-linecap: square"/>
   </g>
   <g id="patch_6">
    <path d="M 53.223625 102.24 
L 554.343625 102.24 
" style="fill: none; stroke: #bcbcbc; stroke-width: 3; stroke-linejoin: miter; stroke-linecap: square"/>
   </g>
   <g id="text_22">
    <!-- Uplift by percentile -->
    <g transform="translate(207.903925 73.66521)scale(0.2016 -0.2016)">
     <defs>
      <path id="DejaVuSans-62" d="M 3116 1747 
Q 3116 2381 2855 2742 
Q 2594 3103 2138 3103 
Q 1681 3103 1420 2742 
Q 1159 2381 1159 1747 
Q 1159 1113 1420 752 
Q 1681 391 2138 391 
Q 2594 391 2855 752 
Q 3116 1113 3116 1747 
z
M 1159 2969 
Q 1341 3281 1617 3432 
Q 1894 3584 2278 3584 
Q 2916 3584 3314 3078 
Q 3713 2572 3713 1747 
Q 3713 922 3314 415 
Q 2916 -91 2278 -91 
Q 1894 -91 1617 61 
Q 1341 213 1159 525 
L 1159 0 
L 581 0 
L 581 4863 
L 1159 4863 
L 1159 2969 
z
" transform="scale(0.015625)"/>
      <path id="DejaVuSans-79" d="M 2059 -325 
Q 1816 -950 1584 -1140 
Q 1353 -1331 966 -1331 
L 506 -1331 
L 506 -850 
L 844 -850 
Q 1081 -850 1212 -737 
Q 1344 -625 1503 -206 
L 1606 56 
L 191 3500 
L 800 3500 
L 1894 763 
L 2988 3500 
L 3597 3500 
L 2059 -325 
z
" transform="scale(0.015625)"/>
     </defs>
     <use xlink:href="#DejaVuSans-55"/>
     <use xlink:href="#DejaVuSans-70" x="73.193359"/>
     <use xlink:href="#DejaVuSans-6c" x="136.669922"/>
     <use xlink:href="#DejaVuSans-69" x="164.453125"/>
     <use xlink:href="#DejaVuSans-66" x="192.236328"/>
     <use xlink:href="#DejaVuSans-74" x="225.691406"/>
     <use xlink:href="#DejaVuSans-20" x="264.900391"/>
     <use xlink:href="#DejaVuSans-62" x="296.6875"/>
     <use xlink:href="#DejaVuSans-79" x="360.164062"/>
     <use xlink:href="#DejaVuSans-20" x="419.34375"/>
     <use xlink:href="#DejaVuSans-70" x="451.130859"/>
     <use xlink:href="#DejaVuSans-65" x="514.607422"/>
     <use xlink:href="#DejaVuSans-72" x="576.130859"/>
     <use xlink:href="#DejaVuSans-63" x="614.994141"/>
     <use xlink:href="#DejaVuSans-65" x="669.974609"/>
     <use xlink:href="#DejaVuSans-6e" x="731.498047"/>
     <use xlink:href="#DejaVuSans-74" x="794.876953"/>
     <use xlink:href="#DejaVuSans-69" x="834.085938"/>
     <use xlink:href="#DejaVuSans-6c" x="861.869141"/>
     <use xlink:href="#DejaVuSans-65" x="889.652344"/>
    </g>
    <!-- weighted average uplift = 0.0332 -->
    <g transform="translate(133.6852 96.24)scale(0.2016 -0.2016)">
     <defs>
      <path id="DejaVuSans-77" d="M 269 3500 
L 844 3500 
L 1563 769 
L 2278 3500 
L 2956 3500 
L 3675 769 
L 4391 3500 
L 4966 3500 
L 4050 0 
L 3372 0 
L 2619 2869 
L 1863 0 
L 1184 0 
L 269 3500 
z
" transform="scale(0.015625)"/>
      <path id="DejaVuSans-67" d="M 2906 1791 
Q 2906 2416 2648 2759 
Q 2391 3103 1925 3103 
Q 1463 3103 1205 2759 
Q 947 2416 947 1791 
Q 947 1169 1205 825 
Q 1463 481 1925 481 
Q 2391 481 2648 825 
Q 2906 1169 2906 1791 
z
M 3481 434 
Q 3481 -459 3084 -895 
Q 2688 -1331 1869 -1331 
Q 1566 -1331 1297 -1286 
Q 1028 -1241 775 -1147 
L 775 -588 
Q 1028 -725 1275 -790 
Q 1522 -856 1778 -856 
Q 2344 -856 2625 -561 
Q 2906 -266 2906 331 
L 2906 616 
Q 2728 306 2450 153 
Q 2172 0 1784 0 
Q 1141 0 747 490 
Q 353 981 353 1791 
Q 353 2603 747 3093 
Q 1141 3584 1784 3584 
Q 2172 3584 2450 3431 
Q 2728 3278 2906 2969 
L 2906 3500 
L 3481 3500 
L 3481 434 
z
" transform="scale(0.015625)"/>
      <path id="DejaVuSans-68" d="M 3513 2113 
L 3513 0 
L 2938 0 
L 2938 2094 
Q 2938 2591 2744 2837 
Q 2550 3084 2163 3084 
Q 1697 3084 1428 2787 
Q 1159 2491 1159 1978 
L 1159 0 
L 581 0 
L 581 4863 
L 1159 4863 
L 1159 2956 
Q 1366 3272 1645 3428 
Q 1925 3584 2291 3584 
Q 2894 3584 3203 3211 
Q 3513 2838 3513 2113 
z
" transform="scale(0.015625)"/>
      <path id="DejaVuSans-64" d="M 2906 2969 
L 2906 4863 
L 3481 4863 
L 3481 0 
L 2906 0 
L 2906 525 
Q 2725 213 2448 61 
Q 2172 -91 1784 -91 
Q 1150 -91 751 415 
Q 353 922 353 1747 
Q 353 2572 751 3078 
Q 1150 3584 1784 3584 
Q 2172 3584 2448 3432 
Q 2725 3281 2906 2969 
z
M 947 1747 
Q 947 1113 1208 752 
Q 1469 391 1925 391 
Q 2381 391 2643 752 
Q 2906 1113 2906 1747 
Q 2906 2381 2643 2742 
Q 2381 3103 1925 3103 
Q 1469 3103 1208 2742 
Q 947 2381 947 1747 
z
" transform="scale(0.015625)"/>
      <path id="DejaVuSans-76" d="M 191 3500 
L 800 3500 
L 1894 563 
L 2988 3500 
L 3597 3500 
L 2284 0 
L 1503 0 
L 191 3500 
z
" transform="scale(0.015625)"/>
      <path id="DejaVuSans-75" d="M 544 1381 
L 544 3500 
L 1119 3500 
L 1119 1403 
Q 1119 906 1312 657 
Q 1506 409 1894 409 
Q 2359 409 2629 706 
Q 2900 1003 2900 1516 
L 2900 3500 
L 3475 3500 
L 3475 0 
L 2900 0 
L 2900 538 
Q 2691 219 2414 64 
Q 2138 -91 1772 -91 
Q 1169 -91 856 284 
Q 544 659 544 1381 
z
M 1991 3584 
L 1991 3584 
z
" transform="scale(0.015625)"/>
     </defs>
     <use xlink:href="#DejaVuSans-77"/>
     <use xlink:href="#DejaVuSans-65" x="81.787109"/>
     <use xlink:href="#DejaVuSans-69" x="143.310547"/>
     <use xlink:href="#DejaVuSans-67" x="171.09375"/>
     <use xlink:href="#DejaVuSans-68" x="234.570312"/>
     <use xlink:href="#DejaVuSans-74" x="297.949219"/>
     <use xlink:href="#DejaVuSans-65" x="337.158203"/>
     <use xlink:href="#DejaVuSans-64" x="398.681641"/>
     <use xlink:href="#DejaVuSans-20" x="462.158203"/>
     <use xlink:href="#DejaVuSans-61" x="493.945312"/>
     <use xlink:href="#DejaVuSans-76" x="555.224609"/>
     <use xlink:href="#DejaVuSans-65" x="614.404297"/>
     <use xlink:href="#DejaVuSans-72" x="675.927734"/>
     <use xlink:href="#DejaVuSans-61" x="717.041016"/>
     <use xlink:href="#DejaVuSans-67" x="778.320312"/>
     <use xlink:href="#DejaVuSans-65" x="841.796875"/>
     <use xlink:href="#DejaVuSans-20" x="903.320312"/>
     <use xlink:href="#DejaVuSans-75" x="935.107422"/>
     <use xlink:href="#DejaVuSans-70" x="998.486328"/>
     <use xlink:href="#DejaVuSans-6c" x="1061.962891"/>
     <use xlink:href="#DejaVuSans-69" x="1089.746094"/>
     <use xlink:href="#DejaVuSans-66" x="1117.529297"/>
     <use xlink:href="#DejaVuSans-74" x="1150.984375"/>
     <use xlink:href="#DejaVuSans-20" x="1190.193359"/>
     <use xlink:href="#DejaVuSans-3d" x="1221.980469"/>
     <use xlink:href="#DejaVuSans-20" x="1305.769531"/>
     <use xlink:href="#DejaVuSans-30" x="1337.556641"/>
     <use xlink:href="#DejaVuSans-2e" x="1401.179688"/>
     <use xlink:href="#DejaVuSans-30" x="1432.966797"/>
     <use xlink:href="#DejaVuSans-33" x="1496.589844"/>
     <use xlink:href="#DejaVuSans-33" x="1560.212891"/>
     <use xlink:href="#DejaVuSans-32" x="1623.835938"/>
    </g>
   </g>
   <g id="legend_1">
    <g id="patch_7">
     <path d="M 564.143625 325.801 
L 705.412375 325.801 
Q 708.212375 325.801 708.212375 323.001 
L 708.212375 231.399 
Q 708.212375 228.599 705.412375 228.599 
L 564.143625 228.599 
Q 561.343625 228.599 561.343625 231.399 
L 561.343625 323.001 
Q 561.343625 325.801 564.143625 325.801 
z
" style="fill: #eeeeee; opacity: 0.8; stroke: #cccccc; stroke-width: 0.5; stroke-linejoin: miter"/>
    </g>
    <g id="LineCollection_4">
     <path d="M 580.943625 256.231063 
L 580.943625 242.231063 
" style="fill: none; stroke: #228b22; stroke-width: 2"/>
    </g>
    <g id="line2d_43">
     <path d="M 566.943625 249.231063 
L 594.943625 249.231063 
" style="fill: none; stroke: #228b22; stroke-width: 2"/>
    </g>
    <g id="line2d_44"/>
    <g id="text_23">
     <!-- treatment -->
     <g transform="translate(606.143625 244.836813)scale(0.14 -0.14)">
      <use xlink:href="#DejaVuSans-74"/>
      <use xlink:href="#DejaVuSans-72" x="39.208984"/>
      <use xlink:href="#DejaVuSans-65" x="78.072266"/>
      <use xlink:href="#DejaVuSans-61" x="139.595703"/>
      <use xlink:href="#DejaVuSans-74" x="200.875"/>
      <use xlink:href="#DejaVuSans-6d" x="240.083984"/>
      <use xlink:href="#DejaVuSans-65" x="337.496094"/>
      <use xlink:href="#DejaVuSans-6e" x="399.019531"/>
      <use xlink:href="#DejaVuSans-74" x="462.398438"/>
     </g>
     <!-- response rate -->
     <g transform="translate(606.143625 260.51375)scale(0.14 -0.14)">
      <use xlink:href="#DejaVuSans-72"/>
      <use xlink:href="#DejaVuSans-65" x="38.863281"/>
      <use xlink:href="#DejaVuSans-73" x="100.386719"/>
      <use xlink:href="#DejaVuSans-70" x="152.486328"/>
      <use xlink:href="#DejaVuSans-6f" x="215.962891"/>
      <use xlink:href="#DejaVuSans-6e" x="277.144531"/>
      <use xlink:href="#DejaVuSans-73" x="340.523438"/>
      <use xlink:href="#DejaVuSans-65" x="392.623047"/>
      <use xlink:href="#DejaVuSans-20" x="454.146484"/>
      <use xlink:href="#DejaVuSans-72" x="485.933594"/>
      <use xlink:href="#DejaVuSans-61" x="527.046875"/>
      <use xlink:href="#DejaVuSans-74" x="588.326172"/>
      <use xlink:href="#DejaVuSans-65" x="627.535156"/>
     </g>
    </g>
    <g id="LineCollection_5">
     <path d="M 580.943625 292.457375 
L 580.943625 278.457375 
" style="fill: none; stroke: #ffa500; stroke-width: 2"/>
    </g>
    <g id="line2d_45">
     <path d="M 566.943625 285.457375 
L 594.943625 285.457375 
" style="fill: none; stroke: #ffa500; stroke-width: 2"/>
    </g>
    <g id="line2d_46"/>
    <g id="text_24">
     <!-- control -->
     <g transform="translate(606.143625 281.063125)scale(0.14 -0.14)">
      <use xlink:href="#DejaVuSans-63"/>
      <use xlink:href="#DejaVuSans-6f" x="54.980469"/>
      <use xlink:href="#DejaVuSans-6e" x="116.162109"/>
      <use xlink:href="#DejaVuSans-74" x="179.541016"/>
      <use xlink:href="#DejaVuSans-72" x="218.75"/>
      <use xlink:href="#DejaVuSans-6f" x="257.613281"/>
      <use xlink:href="#DejaVuSans-6c" x="318.794922"/>
     </g>
     <!-- response rate -->
     <g transform="translate(606.143625 296.740063)scale(0.14 -0.14)">
      <use xlink:href="#DejaVuSans-72"/>
      <use xlink:href="#DejaVuSans-65" x="38.863281"/>
      <use xlink:href="#DejaVuSans-73" x="100.386719"/>
      <use xlink:href="#DejaVuSans-70" x="152.486328"/>
      <use xlink:href="#DejaVuSans-6f" x="215.962891"/>
      <use xlink:href="#DejaVuSans-6e" x="277.144531"/>
      <use xlink:href="#DejaVuSans-73" x="340.523438"/>
      <use xlink:href="#DejaVuSans-65" x="392.623047"/>
      <use xlink:href="#DejaVuSans-20" x="454.146484"/>
      <use xlink:href="#DejaVuSans-72" x="485.933594"/>
      <use xlink:href="#DejaVuSans-61" x="527.046875"/>
      <use xlink:href="#DejaVuSans-74" x="588.326172"/>
      <use xlink:href="#DejaVuSans-65" x="627.535156"/>
     </g>
    </g>
    <g id="LineCollection_6">
     <path d="M 580.943625 319.389438 
L 580.943625 305.389438 
" style="fill: none; stroke: #ff0000; stroke-width: 2"/>
    </g>
    <g id="line2d_47">
     <path d="M 566.943625 312.389438 
L 594.943625 312.389438 
" style="fill: none; stroke: #ff0000; stroke-width: 2"/>
    </g>
    <g id="line2d_48"/>
    <g id="text_25">
     <!-- uplift -->
     <g transform="translate(606.143625 317.289438)scale(0.14 -0.14)">
      <use xlink:href="#DejaVuSans-75"/>
      <use xlink:href="#DejaVuSans-70" x="63.378906"/>
      <use xlink:href="#DejaVuSans-6c" x="126.855469"/>
      <use xlink:href="#DejaVuSans-69" x="154.638672"/>
      <use xlink:href="#DejaVuSans-66" x="182.421875"/>
      <use xlink:href="#DejaVuSans-74" x="215.876953"/>
     </g>
    </g>
   </g>
  </g>
  <g id="text_26">
   <!-- Out-of-sample predictions (S-Learner) -->
   <g transform="translate(136.646125 19.965375)scale(0.168 -0.168)">
    <defs>
     <path id="DejaVuSans-4f" d="M 2522 4238 
Q 1834 4238 1429 3725 
Q 1025 3213 1025 2328 
Q 1025 1447 1429 934 
Q 1834 422 2522 422 
Q 3209 422 3611 934 
Q 4013 1447 4013 2328 
Q 4013 3213 3611 3725 
Q 3209 4238 2522 4238 
z
M 2522 4750 
Q 3503 4750 4090 4092 
Q 4678 3434 4678 2328 
Q 4678 1225 4090 567 
Q 3503 -91 2522 -91 
Q 1538 -91 948 565 
Q 359 1222 359 2328 
Q 359 3434 948 4092 
Q 1538 4750 2522 4750 
z
" transform="scale(0.015625)"/>
     <path id="DejaVuSans-28" d="M 1984 4856 
Q 1566 4138 1362 3434 
Q 1159 2731 1159 2009 
Q 1159 1288 1364 580 
Q 1569 -128 1984 -844 
L 1484 -844 
Q 1016 -109 783 600 
Q 550 1309 550 2009 
Q 550 2706 781 3412 
Q 1013 4119 1484 4856 
L 1984 4856 
z
" transform="scale(0.015625)"/>
     <path id="DejaVuSans-53" d="M 3425 4513 
L 3425 3897 
Q 3066 4069 2747 4153 
Q 2428 4238 2131 4238 
Q 1616 4238 1336 4038 
Q 1056 3838 1056 3469 
Q 1056 3159 1242 3001 
Q 1428 2844 1947 2747 
L 2328 2669 
Q 3034 2534 3370 2195 
Q 3706 1856 3706 1288 
Q 3706 609 3251 259 
Q 2797 -91 1919 -91 
Q 1588 -91 1214 -16 
Q 841 59 441 206 
L 441 856 
Q 825 641 1194 531 
Q 1563 422 1919 422 
Q 2459 422 2753 634 
Q 3047 847 3047 1241 
Q 3047 1584 2836 1778 
Q 2625 1972 2144 2069 
L 1759 2144 
Q 1053 2284 737 2584 
Q 422 2884 422 3419 
Q 422 4038 858 4394 
Q 1294 4750 2059 4750 
Q 2388 4750 2728 4690 
Q 3069 4631 3425 4513 
z
" transform="scale(0.015625)"/>
     <path id="DejaVuSans-4c" d="M 628 4666 
L 1259 4666 
L 1259 531 
L 3531 531 
L 3531 0 
L 628 0 
L 628 4666 
z
" transform="scale(0.015625)"/>
     <path id="DejaVuSans-29" d="M 513 4856 
L 1013 4856 
Q 1481 4119 1714 3412 
Q 1947 2706 1947 2009 
Q 1947 1309 1714 600 
Q 1481 -109 1013 -844 
L 513 -844 
Q 928 -128 1133 580 
Q 1338 1288 1338 2009 
Q 1338 2731 1133 3434 
Q 928 4138 513 4856 
z
" transform="scale(0.015625)"/>
    </defs>
    <use xlink:href="#DejaVuSans-4f"/>
    <use xlink:href="#DejaVuSans-75" x="78.710938"/>
    <use xlink:href="#DejaVuSans-74" x="142.089844"/>
    <use xlink:href="#DejaVuSans-2d" x="181.298828"/>
    <use xlink:href="#DejaVuSans-6f" x="219.257812"/>
    <use xlink:href="#DejaVuSans-66" x="280.439453"/>
    <use xlink:href="#DejaVuSans-2d" x="310.144531"/>
    <use xlink:href="#DejaVuSans-73" x="346.228516"/>
    <use xlink:href="#DejaVuSans-61" x="398.328125"/>
    <use xlink:href="#DejaVuSans-6d" x="459.607422"/>
    <use xlink:href="#DejaVuSans-70" x="557.019531"/>
    <use xlink:href="#DejaVuSans-6c" x="620.496094"/>
    <use xlink:href="#DejaVuSans-65" x="648.279297"/>
    <use xlink:href="#DejaVuSans-20" x="709.802734"/>
    <use xlink:href="#DejaVuSans-70" x="741.589844"/>
    <use xlink:href="#DejaVuSans-72" x="805.066406"/>
    <use xlink:href="#DejaVuSans-65" x="843.929688"/>
    <use xlink:href="#DejaVuSans-64" x="905.453125"/>
    <use xlink:href="#DejaVuSans-69" x="968.929688"/>
    <use xlink:href="#DejaVuSans-63" x="996.712891"/>
    <use xlink:href="#DejaVuSans-74" x="1051.693359"/>
    <use xlink:href="#DejaVuSans-69" x="1090.902344"/>
    <use xlink:href="#DejaVuSans-6f" x="1118.685547"/>
    <use xlink:href="#DejaVuSans-6e" x="1179.867188"/>
    <use xlink:href="#DejaVuSans-73" x="1243.246094"/>
    <use xlink:href="#DejaVuSans-20" x="1295.345703"/>
    <use xlink:href="#DejaVuSans-28" x="1327.132812"/>
    <use xlink:href="#DejaVuSans-53" x="1366.146484"/>
    <use xlink:href="#DejaVuSans-2d" x="1429.623047"/>
    <use xlink:href="#DejaVuSans-4c" x="1465.707031"/>
    <use xlink:href="#DejaVuSans-65" x="1519.669922"/>
    <use xlink:href="#DejaVuSans-61" x="1581.193359"/>
    <use xlink:href="#DejaVuSans-72" x="1642.472656"/>
    <use xlink:href="#DejaVuSans-6e" x="1681.835938"/>
    <use xlink:href="#DejaVuSans-65" x="1745.214844"/>
    <use xlink:href="#DejaVuSans-72" x="1806.738281"/>
    <use xlink:href="#DejaVuSans-29" x="1847.851562"/>
   </g>
  </g>
 </g>
 <defs>
  <clipPath id="pecf83a81cd">
   <rect x="53.223625" y="102.24" width="501.12" height="349.92"/>
  </clipPath>
 </defs>
</svg>
