<?xml version="1.0" encoding="utf-8" standalone="no"?>
<!DOCTYPE svg PUBLIC "-//W3C//DTD SVG 1.1//EN"
  "http://www.w3.org/Graphics/SVG/1.1/DTD/svg11.dtd">
<svg xmlns:xlink="http://www.w3.org/1999/xlink" width="714.599319pt" height="402.095875pt" viewBox="0 0 714.599319 402.095875" xmlns="http://www.w3.org/2000/svg" version="1.1">
 <metadata>
  <rdf:RDF xmlns:dc="http://purl.org/dc/elements/1.1/" xmlns:cc="http://creativecommons.org/ns#" xmlns:rdf="http://www.w3.org/1999/02/22-rdf-syntax-ns#">
   <cc:Work>
    <dc:type rdf:resource="http://purl.org/dc/dcmitype/StillImage"/>
    <dc:date>2022-04-07T21:41:16.233173</dc:date>
    <dc:format>image/svg+xml</dc:format>
    <dc:creator>
     <cc:Agent>
      <dc:title>Matplotlib v3.5.1, https://matplotlib.org/</dc:title>
     </cc:Agent>
    </dc:creator>
   </cc:Work>
  </rdf:RDF>
 </metadata>
 <defs>
  <style type="text/css">*{stroke-linejoin: round; stroke-linecap: butt}</style>
 </defs>
 <g id="figure_1">
  <g id="patch_1">
   <path d="M 0 402.095875 
L 714.599319 402.095875 
L 714.599319 0 
L 0 0 
z
" style="fill: #f0f0f0"/>
  </g>
  <g id="axes_1">
   <g id="patch_2">
    <path d="M 66.58925 357.12 
L 692.98925 357.12 
L 692.98925 7.2 
L 66.58925 7.2 
z
" style="fill: #eeeeee"/>
   </g>
   <g id="matplotlib.axis_1">
    <g id="xtick_1">
     <g id="line2d_1">
      <path d="M 92.655831 357.12 
L 92.655831 7.2 
" clip-path="url(#pd22a2d1cc7)" style="fill: none; stroke-dasharray: 1.85,0.8; stroke-dashoffset: 0; stroke: #b2b2b2; stroke-width: 0.5"/>
     </g>
     <g id="line2d_2"/>
     <g id="text_1">
      <!-- 2017-04 -->
      <g transform="translate(63.407863 371.257813)scale(0.14 -0.14)">
       <defs>
        <path id="DejaVuSans-32" d="M 1228 531 
L 3431 531 
L 3431 0 
L 469 0 
L 469 531 
Q 828 903 1448 1529 
Q 2069 2156 2228 2338 
Q 2531 2678 2651 2914 
Q 2772 3150 2772 3378 
Q 2772 3750 2511 3984 
Q 2250 4219 1831 4219 
Q 1534 4219 1204 4116 
Q 875 4013 500 3803 
L 500 4441 
Q 881 4594 1212 4672 
Q 1544 4750 1819 4750 
Q 2544 4750 2975 4387 
Q 3406 4025 3406 3419 
Q 3406 3131 3298 2873 
Q 3191 2616 2906 2266 
Q 2828 2175 2409 1742 
Q 1991 1309 1228 531 
z
" transform="scale(0.015625)"/>
        <path id="DejaVuSans-30" d="M 2034 4250 
Q 1547 4250 1301 3770 
Q 1056 3291 1056 2328 
Q 1056 1369 1301 889 
Q 1547 409 2034 409 
Q 2525 409 2770 889 
Q 3016 1369 3016 2328 
Q 3016 3291 2770 3770 
Q 2525 4250 2034 4250 
z
M 2034 4750 
Q 2819 4750 3233 4129 
Q 3647 3509 3647 2328 
Q 3647 1150 3233 529 
Q 2819 -91 2034 -91 
Q 1250 -91 836 529 
Q 422 1150 422 2328 
Q 422 3509 836 4129 
Q 1250 4750 2034 4750 
z
" transform="scale(0.015625)"/>
        <path id="DejaVuSans-31" d="M 794 531 
L 1825 531 
L 1825 4091 
L 703 3866 
L 703 4441 
L 1819 4666 
L 2450 4666 
L 2450 531 
L 3481 531 
L 3481 0 
L 794 0 
L 794 531 
z
" transform="scale(0.015625)"/>
        <path id="DejaVuSans-37" d="M 525 4666 
L 3525 4666 
L 3525 4397 
L 1831 0 
L 1172 0 
L 2766 4134 
L 525 4134 
L 525 4666 
z
" transform="scale(0.015625)"/>
        <path id="DejaVuSans-2d" d="M 313 2009 
L 1997 2009 
L 1997 1497 
L 313 1497 
L 313 2009 
z
" transform="scale(0.015625)"/>
        <path id="DejaVuSans-34" d="M 2419 4116 
L 825 1625 
L 2419 1625 
L 2419 4116 
z
M 2253 4666 
L 3047 4666 
L 3047 1625 
L 3713 1625 
L 3713 1100 
L 3047 1100 
L 3047 0 
L 2419 0 
L 2419 1100 
L 313 1100 
L 313 1709 
L 2253 4666 
z
" transform="scale(0.015625)"/>
       </defs>
       <use xlink:href="#DejaVuSans-32"/>
       <use xlink:href="#DejaVuSans-30" x="63.623047"/>
       <use xlink:href="#DejaVuSans-31" x="127.246094"/>
       <use xlink:href="#DejaVuSans-37" x="190.869141"/>
       <use xlink:href="#DejaVuSans-2d" x="254.492188"/>
       <use xlink:href="#DejaVuSans-30" x="290.576172"/>
       <use xlink:href="#DejaVuSans-34" x="354.199219"/>
      </g>
     </g>
    </g>
    <g id="xtick_2">
     <g id="line2d_3">
      <path d="M 165.642259 357.12 
L 165.642259 7.2 
" clip-path="url(#pd22a2d1cc7)" style="fill: none; stroke-dasharray: 1.85,0.8; stroke-dashoffset: 0; stroke: #b2b2b2; stroke-width: 0.5"/>
     </g>
     <g id="line2d_4"/>
     <g id="text_2">
      <!-- 2017-07 -->
      <g transform="translate(136.39429 371.257813)scale(0.14 -0.14)">
       <use xlink:href="#DejaVuSans-32"/>
       <use xlink:href="#DejaVuSans-30" x="63.623047"/>
       <use xlink:href="#DejaVuSans-31" x="127.246094"/>
       <use xlink:href="#DejaVuSans-37" x="190.869141"/>
       <use xlink:href="#DejaVuSans-2d" x="254.492188"/>
       <use xlink:href="#DejaVuSans-30" x="290.576172"/>
       <use xlink:href="#DejaVuSans-37" x="354.199219"/>
      </g>
     </g>
    </g>
    <g id="xtick_3">
     <g id="line2d_5">
      <path d="M 239.430735 357.12 
L 239.430735 7.2 
" clip-path="url(#pd22a2d1cc7)" style="fill: none; stroke-dasharray: 1.85,0.8; stroke-dashoffset: 0; stroke: #b2b2b2; stroke-width: 0.5"/>
     </g>
     <g id="line2d_6"/>
     <g id="text_3">
      <!-- 2017-10 -->
      <g transform="translate(210.182767 371.257813)scale(0.14 -0.14)">
       <use xlink:href="#DejaVuSans-32"/>
       <use xlink:href="#DejaVuSans-30" x="63.623047"/>
       <use xlink:href="#DejaVuSans-31" x="127.246094"/>
       <use xlink:href="#DejaVuSans-37" x="190.869141"/>
       <use xlink:href="#DejaVuSans-2d" x="254.492188"/>
       <use xlink:href="#DejaVuSans-31" x="290.576172"/>
       <use xlink:href="#DejaVuSans-30" x="354.199219"/>
      </g>
     </g>
    </g>
    <g id="xtick_4">
     <g id="line2d_7">
      <path d="M 313.219212 357.12 
L 313.219212 7.2 
" clip-path="url(#pd22a2d1cc7)" style="fill: none; stroke-dasharray: 1.85,0.8; stroke-dashoffset: 0; stroke: #b2b2b2; stroke-width: 0.5"/>
     </g>
     <g id="line2d_8"/>
     <g id="text_4">
      <!-- 2018-01 -->
      <g transform="translate(283.971243 371.257813)scale(0.14 -0.14)">
       <defs>
        <path id="DejaVuSans-38" d="M 2034 2216 
Q 1584 2216 1326 1975 
Q 1069 1734 1069 1313 
Q 1069 891 1326 650 
Q 1584 409 2034 409 
Q 2484 409 2743 651 
Q 3003 894 3003 1313 
Q 3003 1734 2745 1975 
Q 2488 2216 2034 2216 
z
M 1403 2484 
Q 997 2584 770 2862 
Q 544 3141 544 3541 
Q 544 4100 942 4425 
Q 1341 4750 2034 4750 
Q 2731 4750 3128 4425 
Q 3525 4100 3525 3541 
Q 3525 3141 3298 2862 
Q 3072 2584 2669 2484 
Q 3125 2378 3379 2068 
Q 3634 1759 3634 1313 
Q 3634 634 3220 271 
Q 2806 -91 2034 -91 
Q 1263 -91 848 271 
Q 434 634 434 1313 
Q 434 1759 690 2068 
Q 947 2378 1403 2484 
z
M 1172 3481 
Q 1172 3119 1398 2916 
Q 1625 2713 2034 2713 
Q 2441 2713 2670 2916 
Q 2900 3119 2900 3481 
Q 2900 3844 2670 4047 
Q 2441 4250 2034 4250 
Q 1625 4250 1398 4047 
Q 1172 3844 1172 3481 
z
" transform="scale(0.015625)"/>
       </defs>
       <use xlink:href="#DejaVuSans-32"/>
       <use xlink:href="#DejaVuSans-30" x="63.623047"/>
       <use xlink:href="#DejaVuSans-31" x="127.246094"/>
       <use xlink:href="#DejaVuSans-38" x="190.869141"/>
       <use xlink:href="#DejaVuSans-2d" x="254.492188"/>
       <use xlink:href="#DejaVuSans-30" x="290.576172"/>
       <use xlink:href="#DejaVuSans-31" x="354.199219"/>
      </g>
     </g>
    </g>
    <g id="xtick_5">
     <g id="line2d_9">
      <path d="M 385.403591 357.12 
L 385.403591 7.2 
" clip-path="url(#pd22a2d1cc7)" style="fill: none; stroke-dasharray: 1.85,0.8; stroke-dashoffset: 0; stroke: #b2b2b2; stroke-width: 0.5"/>
     </g>
     <g id="line2d_10"/>
     <g id="text_5">
      <!-- 2018-04 -->
      <g transform="translate(356.155622 371.257813)scale(0.14 -0.14)">
       <use xlink:href="#DejaVuSans-32"/>
       <use xlink:href="#DejaVuSans-30" x="63.623047"/>
       <use xlink:href="#DejaVuSans-31" x="127.246094"/>
       <use xlink:href="#DejaVuSans-38" x="190.869141"/>
       <use xlink:href="#DejaVuSans-2d" x="254.492188"/>
       <use xlink:href="#DejaVuSans-30" x="290.576172"/>
       <use xlink:href="#DejaVuSans-34" x="354.199219"/>
      </g>
     </g>
    </g>
    <g id="xtick_6">
     <g id="line2d_11">
      <path d="M 458.390018 357.12 
L 458.390018 7.2 
" clip-path="url(#pd22a2d1cc7)" style="fill: none; stroke-dasharray: 1.85,0.8; stroke-dashoffset: 0; stroke: #b2b2b2; stroke-width: 0.5"/>
     </g>
     <g id="line2d_12"/>
     <g id="text_6">
      <!-- 2018-07 -->
      <g transform="translate(429.142049 371.257813)scale(0.14 -0.14)">
       <use xlink:href="#DejaVuSans-32"/>
       <use xlink:href="#DejaVuSans-30" x="63.623047"/>
       <use xlink:href="#DejaVuSans-31" x="127.246094"/>
       <use xlink:href="#DejaVuSans-38" x="190.869141"/>
       <use xlink:href="#DejaVuSans-2d" x="254.492188"/>
       <use xlink:href="#DejaVuSans-30" x="290.576172"/>
       <use xlink:href="#DejaVuSans-37" x="354.199219"/>
      </g>
     </g>
    </g>
    <g id="xtick_7">
     <g id="line2d_13">
      <path d="M 532.178495 357.12 
L 532.178495 7.2 
" clip-path="url(#pd22a2d1cc7)" style="fill: none; stroke-dasharray: 1.85,0.8; stroke-dashoffset: 0; stroke: #b2b2b2; stroke-width: 0.5"/>
     </g>
     <g id="line2d_14"/>
     <g id="text_7">
      <!-- 2018-10 -->
      <g transform="translate(502.930526 371.257813)scale(0.14 -0.14)">
       <use xlink:href="#DejaVuSans-32"/>
       <use xlink:href="#DejaVuSans-30" x="63.623047"/>
       <use xlink:href="#DejaVuSans-31" x="127.246094"/>
       <use xlink:href="#DejaVuSans-38" x="190.869141"/>
       <use xlink:href="#DejaVuSans-2d" x="254.492188"/>
       <use xlink:href="#DejaVuSans-31" x="290.576172"/>
       <use xlink:href="#DejaVuSans-30" x="354.199219"/>
      </g>
     </g>
    </g>
    <g id="xtick_8">
     <g id="line2d_15">
      <path d="M 605.966971 357.12 
L 605.966971 7.2 
" clip-path="url(#pd22a2d1cc7)" style="fill: none; stroke-dasharray: 1.85,0.8; stroke-dashoffset: 0; stroke: #b2b2b2; stroke-width: 0.5"/>
     </g>
     <g id="line2d_16"/>
     <g id="text_8">
      <!-- 2019-01 -->
      <g transform="translate(576.719002 371.257813)scale(0.14 -0.14)">
       <defs>
        <path id="DejaVuSans-39" d="M 703 97 
L 703 672 
Q 941 559 1184 500 
Q 1428 441 1663 441 
Q 2288 441 2617 861 
Q 2947 1281 2994 2138 
Q 2813 1869 2534 1725 
Q 2256 1581 1919 1581 
Q 1219 1581 811 2004 
Q 403 2428 403 3163 
Q 403 3881 828 4315 
Q 1253 4750 1959 4750 
Q 2769 4750 3195 4129 
Q 3622 3509 3622 2328 
Q 3622 1225 3098 567 
Q 2575 -91 1691 -91 
Q 1453 -91 1209 -44 
Q 966 3 703 97 
z
M 1959 2075 
Q 2384 2075 2632 2365 
Q 2881 2656 2881 3163 
Q 2881 3666 2632 3958 
Q 2384 4250 1959 4250 
Q 1534 4250 1286 3958 
Q 1038 3666 1038 3163 
Q 1038 2656 1286 2365 
Q 1534 2075 1959 2075 
z
" transform="scale(0.015625)"/>
       </defs>
       <use xlink:href="#DejaVuSans-32"/>
       <use xlink:href="#DejaVuSans-30" x="63.623047"/>
       <use xlink:href="#DejaVuSans-31" x="127.246094"/>
       <use xlink:href="#DejaVuSans-39" x="190.869141"/>
       <use xlink:href="#DejaVuSans-2d" x="254.492188"/>
       <use xlink:href="#DejaVuSans-30" x="290.576172"/>
       <use xlink:href="#DejaVuSans-31" x="354.199219"/>
      </g>
     </g>
    </g>
    <g id="xtick_9">
     <g id="line2d_17">
      <path d="M 678.15135 357.12 
L 678.15135 7.2 
" clip-path="url(#pd22a2d1cc7)" style="fill: none; stroke-dasharray: 1.85,0.8; stroke-dashoffset: 0; stroke: #b2b2b2; stroke-width: 0.5"/>
     </g>
     <g id="line2d_18"/>
     <g id="text_9">
      <!-- 2019-04 -->
      <g transform="translate(648.903381 371.257813)scale(0.14 -0.14)">
       <use xlink:href="#DejaVuSans-32"/>
       <use xlink:href="#DejaVuSans-30" x="63.623047"/>
       <use xlink:href="#DejaVuSans-31" x="127.246094"/>
       <use xlink:href="#DejaVuSans-39" x="190.869141"/>
       <use xlink:href="#DejaVuSans-2d" x="254.492188"/>
       <use xlink:href="#DejaVuSans-30" x="290.576172"/>
       <use xlink:href="#DejaVuSans-34" x="354.199219"/>
      </g>
     </g>
    </g>
    <g id="text_10">
     <!-- first_issue_date -->
     <g transform="translate(314.456937 390.93475)scale(0.168 -0.168)">
      <defs>
       <path id="DejaVuSans-66" d="M 2375 4863 
L 2375 4384 
L 1825 4384 
Q 1516 4384 1395 4259 
Q 1275 4134 1275 3809 
L 1275 3500 
L 2222 3500 
L 2222 3053 
L 1275 3053 
L 1275 0 
L 697 0 
L 697 3053 
L 147 3053 
L 147 3500 
L 697 3500 
L 697 3744 
Q 697 4328 969 4595 
Q 1241 4863 1831 4863 
L 2375 4863 
z
" transform="scale(0.015625)"/>
       <path id="DejaVuSans-69" d="M 603 3500 
L 1178 3500 
L 1178 0 
L 603 0 
L 603 3500 
z
M 603 4863 
L 1178 4863 
L 1178 4134 
L 603 4134 
L 603 4863 
z
" transform="scale(0.015625)"/>
       <path id="DejaVuSans-72" d="M 2631 2963 
Q 2534 3019 2420 3045 
Q 2306 3072 2169 3072 
Q 1681 3072 1420 2755 
Q 1159 2438 1159 1844 
L 1159 0 
L 581 0 
L 581 3500 
L 1159 3500 
L 1159 2956 
Q 1341 3275 1631 3429 
Q 1922 3584 2338 3584 
Q 2397 3584 2469 3576 
Q 2541 3569 2628 3553 
L 2631 2963 
z
" transform="scale(0.015625)"/>
       <path id="DejaVuSans-73" d="M 2834 3397 
L 2834 2853 
Q 2591 2978 2328 3040 
Q 2066 3103 1784 3103 
Q 1356 3103 1142 2972 
Q 928 2841 928 2578 
Q 928 2378 1081 2264 
Q 1234 2150 1697 2047 
L 1894 2003 
Q 2506 1872 2764 1633 
Q 3022 1394 3022 966 
Q 3022 478 2636 193 
Q 2250 -91 1575 -91 
Q 1294 -91 989 -36 
Q 684 19 347 128 
L 347 722 
Q 666 556 975 473 
Q 1284 391 1588 391 
Q 1994 391 2212 530 
Q 2431 669 2431 922 
Q 2431 1156 2273 1281 
Q 2116 1406 1581 1522 
L 1381 1569 
Q 847 1681 609 1914 
Q 372 2147 372 2553 
Q 372 3047 722 3315 
Q 1072 3584 1716 3584 
Q 2034 3584 2315 3537 
Q 2597 3491 2834 3397 
z
" transform="scale(0.015625)"/>
       <path id="DejaVuSans-74" d="M 1172 4494 
L 1172 3500 
L 2356 3500 
L 2356 3053 
L 1172 3053 
L 1172 1153 
Q 1172 725 1289 603 
Q 1406 481 1766 481 
L 2356 481 
L 2356 0 
L 1766 0 
Q 1100 0 847 248 
Q 594 497 594 1153 
L 594 3053 
L 172 3053 
L 172 3500 
L 594 3500 
L 594 4494 
L 1172 4494 
z
" transform="scale(0.015625)"/>
       <path id="DejaVuSans-5f" d="M 3263 -1063 
L 3263 -1509 
L -63 -1509 
L -63 -1063 
L 3263 -1063 
z
" transform="scale(0.015625)"/>
       <path id="DejaVuSans-75" d="M 544 1381 
L 544 3500 
L 1119 3500 
L 1119 1403 
Q 1119 906 1312 657 
Q 1506 409 1894 409 
Q 2359 409 2629 706 
Q 2900 1003 2900 1516 
L 2900 3500 
L 3475 3500 
L 3475 0 
L 2900 0 
L 2900 538 
Q 2691 219 2414 64 
Q 2138 -91 1772 -91 
Q 1169 -91 856 284 
Q 544 659 544 1381 
z
M 1991 3584 
L 1991 3584 
z
" transform="scale(0.015625)"/>
       <path id="DejaVuSans-65" d="M 3597 1894 
L 3597 1613 
L 953 1613 
Q 991 1019 1311 708 
Q 1631 397 2203 397 
Q 2534 397 2845 478 
Q 3156 559 3463 722 
L 3463 178 
Q 3153 47 2828 -22 
Q 2503 -91 2169 -91 
Q 1331 -91 842 396 
Q 353 884 353 1716 
Q 353 2575 817 3079 
Q 1281 3584 2069 3584 
Q 2775 3584 3186 3129 
Q 3597 2675 3597 1894 
z
M 3022 2063 
Q 3016 2534 2758 2815 
Q 2500 3097 2075 3097 
Q 1594 3097 1305 2825 
Q 1016 2553 972 2059 
L 3022 2063 
z
" transform="scale(0.015625)"/>
       <path id="DejaVuSans-64" d="M 2906 2969 
L 2906 4863 
L 3481 4863 
L 3481 0 
L 2906 0 
L 2906 525 
Q 2725 213 2448 61 
Q 2172 -91 1784 -91 
Q 1150 -91 751 415 
Q 353 922 353 1747 
Q 353 2572 751 3078 
Q 1150 3584 1784 3584 
Q 2172 3584 2448 3432 
Q 2725 3281 2906 2969 
z
M 947 1747 
Q 947 1113 1208 752 
Q 1469 391 1925 391 
Q 2381 391 2643 752 
Q 2906 1113 2906 1747 
Q 2906 2381 2643 2742 
Q 2381 3103 1925 3103 
Q 1469 3103 1208 2742 
Q 947 2381 947 1747 
z
" transform="scale(0.015625)"/>
       <path id="DejaVuSans-61" d="M 2194 1759 
Q 1497 1759 1228 1600 
Q 959 1441 959 1056 
Q 959 750 1161 570 
Q 1363 391 1709 391 
Q 2188 391 2477 730 
Q 2766 1069 2766 1631 
L 2766 1759 
L 2194 1759 
z
M 3341 1997 
L 3341 0 
L 2766 0 
L 2766 531 
Q 2569 213 2275 61 
Q 1981 -91 1556 -91 
Q 1019 -91 701 211 
Q 384 513 384 1019 
Q 384 1609 779 1909 
Q 1175 2209 1959 2209 
L 2766 2209 
L 2766 2266 
Q 2766 2663 2505 2880 
Q 2244 3097 1772 3097 
Q 1472 3097 1187 3025 
Q 903 2953 641 2809 
L 641 3341 
Q 956 3463 1253 3523 
Q 1550 3584 1831 3584 
Q 2591 3584 2966 3190 
Q 3341 2797 3341 1997 
z
" transform="scale(0.015625)"/>
      </defs>
      <use xlink:href="#DejaVuSans-66"/>
      <use xlink:href="#DejaVuSans-69" x="35.205078"/>
      <use xlink:href="#DejaVuSans-72" x="62.988281"/>
      <use xlink:href="#DejaVuSans-73" x="104.101562"/>
      <use xlink:href="#DejaVuSans-74" x="156.201172"/>
      <use xlink:href="#DejaVuSans-5f" x="195.410156"/>
      <use xlink:href="#DejaVuSans-69" x="245.410156"/>
      <use xlink:href="#DejaVuSans-73" x="273.193359"/>
      <use xlink:href="#DejaVuSans-73" x="325.292969"/>
      <use xlink:href="#DejaVuSans-75" x="377.392578"/>
      <use xlink:href="#DejaVuSans-65" x="440.771484"/>
      <use xlink:href="#DejaVuSans-5f" x="502.294922"/>
      <use xlink:href="#DejaVuSans-64" x="552.294922"/>
      <use xlink:href="#DejaVuSans-61" x="615.771484"/>
      <use xlink:href="#DejaVuSans-74" x="677.050781"/>
      <use xlink:href="#DejaVuSans-65" x="716.259766"/>
     </g>
    </g>
   </g>
   <g id="matplotlib.axis_2">
    <g id="ytick_1">
     <g id="line2d_19">
      <path d="M 66.58925 341.358813 
L 692.98925 341.358813 
" clip-path="url(#pd22a2d1cc7)" style="fill: none; stroke-dasharray: 1.85,0.8; stroke-dashoffset: 0; stroke: #b2b2b2; stroke-width: 0.5"/>
     </g>
     <g id="line2d_20"/>
     <g id="text_11">
      <!-- 0 -->
      <g transform="translate(54.18175 346.677719)scale(0.14 -0.14)">
       <use xlink:href="#DejaVuSans-30"/>
      </g>
     </g>
    </g>
    <g id="ytick_2">
     <g id="line2d_21">
      <path d="M 66.58925 269.225232 
L 692.98925 269.225232 
" clip-path="url(#pd22a2d1cc7)" style="fill: none; stroke-dasharray: 1.85,0.8; stroke-dashoffset: 0; stroke: #b2b2b2; stroke-width: 0.5"/>
     </g>
     <g id="line2d_22"/>
     <g id="text_12">
      <!-- 500 -->
      <g transform="translate(36.36675 274.544138)scale(0.14 -0.14)">
       <defs>
        <path id="DejaVuSans-35" d="M 691 4666 
L 3169 4666 
L 3169 4134 
L 1269 4134 
L 1269 2991 
Q 1406 3038 1543 3061 
Q 1681 3084 1819 3084 
Q 2600 3084 3056 2656 
Q 3513 2228 3513 1497 
Q 3513 744 3044 326 
Q 2575 -91 1722 -91 
Q 1428 -91 1123 -41 
Q 819 9 494 109 
L 494 744 
Q 775 591 1075 516 
Q 1375 441 1709 441 
Q 2250 441 2565 725 
Q 2881 1009 2881 1497 
Q 2881 1984 2565 2268 
Q 2250 2553 1709 2553 
Q 1456 2553 1204 2497 
Q 953 2441 691 2322 
L 691 4666 
z
" transform="scale(0.015625)"/>
       </defs>
       <use xlink:href="#DejaVuSans-35"/>
       <use xlink:href="#DejaVuSans-30" x="63.623047"/>
       <use xlink:href="#DejaVuSans-30" x="127.246094"/>
      </g>
     </g>
    </g>
    <g id="ytick_3">
     <g id="line2d_23">
      <path d="M 66.58925 197.091651 
L 692.98925 197.091651 
" clip-path="url(#pd22a2d1cc7)" style="fill: none; stroke-dasharray: 1.85,0.8; stroke-dashoffset: 0; stroke: #b2b2b2; stroke-width: 0.5"/>
     </g>
     <g id="line2d_24"/>
     <g id="text_13">
      <!-- 1000 -->
      <g transform="translate(27.45925 202.410557)scale(0.14 -0.14)">
       <use xlink:href="#DejaVuSans-31"/>
       <use xlink:href="#DejaVuSans-30" x="63.623047"/>
       <use xlink:href="#DejaVuSans-30" x="127.246094"/>
       <use xlink:href="#DejaVuSans-30" x="190.869141"/>
      </g>
     </g>
    </g>
    <g id="ytick_4">
     <g id="line2d_25">
      <path d="M 66.58925 124.958071 
L 692.98925 124.958071 
" clip-path="url(#pd22a2d1cc7)" style="fill: none; stroke-dasharray: 1.85,0.8; stroke-dashoffset: 0; stroke: #b2b2b2; stroke-width: 0.5"/>
     </g>
     <g id="line2d_26"/>
     <g id="text_14">
      <!-- 1500 -->
      <g transform="translate(27.45925 130.276977)scale(0.14 -0.14)">
       <use xlink:href="#DejaVuSans-31"/>
       <use xlink:href="#DejaVuSans-35" x="63.623047"/>
       <use xlink:href="#DejaVuSans-30" x="127.246094"/>
       <use xlink:href="#DejaVuSans-30" x="190.869141"/>
      </g>
     </g>
    </g>
    <g id="ytick_5">
     <g id="line2d_27">
      <path d="M 66.58925 52.82449 
L 692.98925 52.82449 
" clip-path="url(#pd22a2d1cc7)" style="fill: none; stroke-dasharray: 1.85,0.8; stroke-dashoffset: 0; stroke: #b2b2b2; stroke-width: 0.5"/>
     </g>
     <g id="line2d_28"/>
     <g id="text_15">
      <!-- 2000 -->
      <g transform="translate(27.45925 58.143396)scale(0.14 -0.14)">
       <use xlink:href="#DejaVuSans-32"/>
       <use xlink:href="#DejaVuSans-30" x="63.623047"/>
       <use xlink:href="#DejaVuSans-30" x="127.246094"/>
       <use xlink:href="#DejaVuSans-30" x="190.869141"/>
      </g>
     </g>
    </g>
    <g id="text_16">
     <!-- count -->
     <g transform="translate(19.965375 205.8585)rotate(-90)scale(0.168 -0.168)">
      <defs>
       <path id="DejaVuSans-63" d="M 3122 3366 
L 3122 2828 
Q 2878 2963 2633 3030 
Q 2388 3097 2138 3097 
Q 1578 3097 1268 2742 
Q 959 2388 959 1747 
Q 959 1106 1268 751 
Q 1578 397 2138 397 
Q 2388 397 2633 464 
Q 2878 531 3122 666 
L 3122 134 
Q 2881 22 2623 -34 
Q 2366 -91 2075 -91 
Q 1284 -91 818 406 
Q 353 903 353 1747 
Q 353 2603 823 3093 
Q 1294 3584 2113 3584 
Q 2378 3584 2631 3529 
Q 2884 3475 3122 3366 
z
" transform="scale(0.015625)"/>
       <path id="DejaVuSans-6f" d="M 1959 3097 
Q 1497 3097 1228 2736 
Q 959 2375 959 1747 
Q 959 1119 1226 758 
Q 1494 397 1959 397 
Q 2419 397 2687 759 
Q 2956 1122 2956 1747 
Q 2956 2369 2687 2733 
Q 2419 3097 1959 3097 
z
M 1959 3584 
Q 2709 3584 3137 3096 
Q 3566 2609 3566 1747 
Q 3566 888 3137 398 
Q 2709 -91 1959 -91 
Q 1206 -91 779 398 
Q 353 888 353 1747 
Q 353 2609 779 3096 
Q 1206 3584 1959 3584 
z
" transform="scale(0.015625)"/>
       <path id="DejaVuSans-6e" d="M 3513 2113 
L 3513 0 
L 2938 0 
L 2938 2094 
Q 2938 2591 2744 2837 
Q 2550 3084 2163 3084 
Q 1697 3084 1428 2787 
Q 1159 2491 1159 1978 
L 1159 0 
L 581 0 
L 581 3500 
L 1159 3500 
L 1159 2956 
Q 1366 3272 1645 3428 
Q 1925 3584 2291 3584 
Q 2894 3584 3203 3211 
Q 3513 2838 3513 2113 
z
" transform="scale(0.015625)"/>
      </defs>
      <use xlink:href="#DejaVuSans-63"/>
      <use xlink:href="#DejaVuSans-6f" x="54.980469"/>
      <use xlink:href="#DejaVuSans-75" x="116.162109"/>
      <use xlink:href="#DejaVuSans-6e" x="179.541016"/>
      <use xlink:href="#DejaVuSans-74" x="242.919922"/>
     </g>
    </g>
   </g>
   <g id="line2d_29">
    <path d="M 95.061977 341.214545 
L 99.072221 341.214545 
L 99.874269 252.634508 
L 100.676318 259.270798 
L 101.478367 253.211577 
L 102.280415 265.330019 
L 103.082464 267.638293 
L 103.884512 290.865306 
L 104.686561 305.436289 
L 105.48861 212.239703 
L 106.290658 210.508497 
L 107.092707 238.784861 
L 107.894756 255.664119 
L 108.696804 254.365714 
L 110.300902 284.806085 
L 111.10295 280.045269 
L 111.904999 293.029314 
L 112.707048 295.914657 
L 113.509096 301.108275 
L 114.311145 294.904787 
L 115.113194 303.849351 
L 115.915242 305.869091 
L 116.717291 313.659518 
L 117.51934 312.50538 
L 118.321388 243.545677 
L 119.925486 203.006605 
L 120.727534 228.397625 
L 123.13368 288.12423 
L 123.935729 280.333803 
L 124.737778 283.651948 
L 125.539826 277.736994 
L 126.341875 283.796215 
L 127.143923 300.242672 
L 127.945972 111.541224 
L 129.550069 180.789462 
L 130.352118 196.370315 
L 131.154167 204.882078 
L 131.956215 234.312579 
L 132.758264 258.549462 
L 133.560313 98.845714 
L 134.362361 117.600445 
L 135.16441 141.404527 
L 135.966459 92.497959 
L 136.768507 58.883711 
L 137.570556 99.278516 
L 138.372605 160.159258 
L 139.174653 178.769722 
L 139.976702 176.749981 
L 140.778751 193.484972 
L 141.580799 63.50026 
L 142.382848 56.719703 
L 143.184897 106.347607 
L 143.986945 174.730241 
L 144.788994 196.65885 
L 145.591043 199.111391 
L 146.393091 224.213878 
L 147.19514 229.407495 
L 147.997189 220.462931 
L 148.799237 236.043785 
L 149.601286 264.175881 
L 150.403335 272.543377 
L 151.205383 258.11666 
L 152.007432 266.484156 
L 152.80948 269.369499 
L 153.611529 268.648163 
L 154.413578 279.901002 
L 155.215626 285.09462 
L 156.017675 160.159258 
L 156.819724 147.896549 
L 157.621772 157.418182 
L 158.423821 164.343006 
L 159.22587 169.969425 
L 160.829967 220.462931 
L 161.632016 73.454694 
L 162.434064 94.373432 
L 163.236113 112.26256 
L 164.038162 149.194954 
L 164.84021 137.942115 
L 165.642259 175.740111 
L 166.444308 207.046085 
L 167.246356 131.305826 
L 168.048405 123.515399 
L 168.850454 124.669536 
L 169.652502 129.57462 
L 170.454551 122.794063 
L 171.2566 152.224564 
L 172.058648 192.475102 
L 172.860697 90.766753 
L 173.662746 96.248905 
L 174.464794 114.426568 
L 175.266843 141.837328 
L 176.068891 137.509314 
L 176.87094 182.232134 
L 177.672989 213.538108 
L 178.475037 96.393173 
L 179.277086 106.059072 
L 180.079135 129.57462 
L 180.881183 140.25039 
L 181.683232 135.345306 
L 182.485281 193.052171 
L 183.287329 207.046085 
L 184.089378 89.756883 
L 184.891427 97.835844 
L 185.693475 120.485788 
L 186.495524 31.905751 
L 187.297573 23.105455 
L 188.099621 107.646011 
L 188.90167 157.273915 
L 189.703719 148.040816 
L 190.505767 143.135733 
L 191.307816 142.414397 
L 192.109865 131.161558 
L 192.911913 104.760668 
L 194.516011 162.323265 
L 195.318059 157.706716 
L 196.120108 151.214694 
L 196.922157 148.617885 
L 197.724205 147.463748 
L 198.526254 131.017291 
L 199.328302 167.084082 
L 200.130351 185.98308 
L 200.9324 177.32705 
L 201.734448 159.437922 
L 202.536497 166.795547 
L 203.338546 168.382486 
L 204.140594 138.663451 
L 204.942643 183.819072 
L 205.744692 198.967124 
L 206.54674 189.301224 
L 207.348789 199.976994 
L 208.150838 208.055955 
L 208.952886 205.314879 
L 209.754935 190.02256 
L 210.556984 212.528237 
L 211.359032 227.243488 
L 212.161081 217.866122 
L 212.96313 204.449276 
L 213.765178 211.662635 
L 214.567227 208.488757 
L 215.369276 217.433321 
L 216.171324 233.446976 
L 216.973373 241.093135 
L 217.775422 233.591243 
L 218.57747 222.04987 
L 219.379519 228.68616 
L 220.181568 220.895733 
L 220.983616 206.901818 
L 221.785665 230.561633 
L 222.587714 245.998219 
L 223.389762 247.729425 
L 224.191811 239.794731 
L 224.993859 251.04757 
L 225.795908 245.132616 
L 226.597957 232.581373 
L 227.400005 253.355844 
L 228.202054 260.713469 
L 229.806151 254.798516 
L 230.6082 248.162226 
L 231.410249 255.231317 
L 232.212297 242.680074 
L 233.014346 244.988349 
L 233.816395 266.195622 
L 234.618443 263.310278 
L 235.420492 247.152356 
L 237.024589 238.063525 
L 237.826638 235.466716 
L 238.628687 242.968609 
L 239.430735 262.444675 
L 240.232784 260.136401 
L 241.034833 260.857737 
L 241.836881 252.490241 
L 242.63893 253.932913 
L 243.440979 242.103006 
L 245.045076 275.572987 
L 245.847125 269.802301 
L 246.649173 252.923043 
L 247.451222 258.549462 
L 248.25327 249.893432 
L 249.055319 237.774991 
L 249.857368 256.241187 
L 250.659416 269.369499 
L 251.461465 269.080965 
L 252.263514 262.011874 
L 253.065562 269.225232 
L 253.867611 254.221447 
L 254.66966 248.017959 
L 255.471708 252.923043 
L 256.273757 269.802301 
L 257.075806 266.339889 
L 257.877854 261.434805 
L 258.679903 251.768905 
L 259.481952 247.440891 
L 260.284 225.945083 
L 261.086049 246.43102 
L 261.888098 259.703599 
L 262.690146 265.474286 
L 263.492195 244.122746 
L 264.294244 253.355844 
L 265.096292 247.440891 
L 265.898341 235.75525 
L 266.70039 254.942783 
L 267.502438 264.75295 
L 268.304487 271.244972 
L 269.106536 263.166011 
L 269.908584 257.251058 
L 270.710633 258.11666 
L 271.512681 234.74538 
L 273.116779 264.608683 
L 273.918827 262.300408 
L 274.720876 255.664119 
L 275.522925 254.07718 
L 276.324973 243.545677 
L 277.127022 236.909388 
L 277.929071 237.774991 
L 278.731119 266.484156 
L 279.533168 256.962523 
L 280.335217 252.05744 
L 281.137265 244.122746 
L 281.939314 247.152356 
L 282.741363 217.289054 
L 283.543411 232.869907 
L 284.34546 260.136401 
L 285.949557 238.784861 
L 286.751606 231.860037 
L 287.553655 228.68616 
L 288.355703 213.39384 
L 289.959801 247.440891 
L 290.761849 242.824341 
L 291.563898 227.387755 
L 292.365947 220.607199 
L 293.167995 226.522152 
L 293.970044 194.783377 
L 294.772093 210.508497 
L 295.574141 235.75525 
L 297.178238 211.3741 
L 297.980287 205.314879 
L 298.782336 203.295139 
L 299.584384 182.087866 
L 300.386433 194.062041 
L 301.188482 262.73321 
L 301.99053 220.607199 
L 302.792579 226.377885 
L 303.594628 215.702115 
L 304.396676 216.711985 
L 305.198725 209.931429 
L 306.000774 220.895733 
L 306.802822 244.267013 
L 307.604871 228.68616 
L 308.40692 209.065826 
L 309.208968 209.210093 
L 310.813066 187.570019 
L 311.615114 170.546494 
L 312.417163 229.69603 
L 313.219212 322.459814 
L 314.02126 302.550946 
L 315.625358 295.481855 
L 316.427406 284.229017 
L 317.229455 284.373284 
L 318.031504 292.019443 
L 318.833552 292.452245 
L 319.635601 285.960223 
L 320.437649 285.815955 
L 322.041747 262.011874 
L 322.843795 270.379369 
L 323.645844 283.363414 
L 324.447893 284.229017 
L 325.249941 277.881262 
L 326.05199 282.065009 
L 326.854039 285.09462 
L 327.656087 270.956438 
L 328.458136 282.353544 
L 329.260185 297.357328 
L 330.062233 294.904787 
L 330.864282 287.402894 
L 331.666331 288.12423 
L 332.468379 282.642078 
L 333.270428 265.185751 
L 334.072477 279.035399 
L 334.874525 298.8 
L 335.676574 287.691429 
L 336.478623 283.507681 
L 337.280671 281.055139 
L 338.08272 286.10449 
L 338.884769 276.005788 
L 339.686817 283.796215 
L 340.488866 294.760519 
L 341.290915 291.875176 
L 342.092963 285.671688 
L 343.69706 278.891132 
L 344.499109 269.513766 
L 345.301158 277.736994 
L 346.103206 289.278367 
L 346.905255 282.786345 
L 347.707304 278.891132 
L 348.509352 281.776475 
L 350.11345 264.464416 
L 350.915498 281.920742 
L 351.717547 292.596512 
L 352.519596 289.422635 
L 353.321644 282.209276 
L 354.123693 279.4682 
L 354.925742 258.982263 
L 355.72779 275.140186 
L 356.529839 294.183451 
L 357.331888 295.337588 
L 358.133936 291.15384 
L 358.935985 277.736994 
L 359.738034 271.100705 
L 360.540082 276.43859 
L 361.342131 268.503896 
L 362.14418 276.005788 
L 362.946228 290.432505 
L 363.748277 285.238887 
L 364.550326 276.582857 
L 365.352374 252.345974 
L 366.154423 285.815955 
L 366.956472 293.894917 
L 367.75852 294.616252 
L 368.560569 299.232801 
L 369.362617 289.711169 
L 370.164666 290.14397 
L 370.966715 261.579072 
L 371.768763 243.834212 
L 372.570812 242.247273 
L 373.372861 285.527421 
L 374.174909 286.10449 
L 374.976958 291.442375 
L 375.779007 281.776475 
L 376.581055 285.238887 
L 377.383104 283.363414 
L 378.185153 256.962523 
L 378.987201 279.035399 
L 379.78925 291.298108 
L 381.393347 248.162226 
L 382.997445 288.845566 
L 383.799493 270.379369 
L 384.601542 279.179666 
L 385.403591 286.537291 
L 386.205639 295.337588 
L 387.007688 290.288237 
L 388.611785 293.173581 
L 389.413834 272.687644 
L 390.215883 276.005788 
L 391.017931 309.908571 
L 391.81998 302.983748 
L 392.622028 298.944267 
L 393.424077 300.242672 
L 394.226126 289.1341 
L 395.028174 281.632208 
L 395.830223 287.691429 
L 396.632272 295.626122 
L 397.43432 296.78026 
L 398.236369 301.396809 
L 399.038418 298.944267 
L 399.840466 293.750649 
L 400.642515 277.44846 
L 401.444564 293.894917 
L 402.246612 295.914657 
L 403.048661 296.347458 
L 404.652758 296.058924 
L 405.454807 294.760519 
L 406.256856 281.632208 
L 407.058904 282.642078 
L 407.860953 297.645863 
L 408.663002 294.616252 
L 409.46505 296.203191 
L 410.267099 300.964007 
L 411.069148 299.232801 
L 411.871196 293.462115 
L 414.277342 302.983748 
L 415.079391 291.730909 
L 415.88144 297.501596 
L 416.683488 301.396809 
L 417.485537 291.298108 
L 418.287585 296.058924 
L 419.089634 302.839481 
L 419.891683 295.481855 
L 420.693731 296.924527 
L 422.297829 287.11436 
L 423.099877 285.238887 
L 423.901926 296.203191 
L 424.703975 301.541076 
L 425.506023 297.213061 
L 426.308072 297.79013 
L 427.110121 293.750649 
L 427.912169 296.78026 
L 428.714218 288.845566 
L 429.516267 294.904787 
L 430.318315 302.839481 
L 431.120364 300.386939 
L 431.922413 293.894917 
L 432.724461 295.626122 
L 433.52651 289.1341 
L 434.328559 290.576772 
L 435.130607 291.15384 
L 435.932656 302.695213 
L 436.734705 297.068794 
L 437.536753 300.242672 
L 438.338802 298.944267 
L 439.140851 293.750649 
L 440.744948 284.806085 
L 441.546996 297.213061 
L 442.349045 299.521336 
L 443.151094 303.993618 
L 443.953142 301.973878 
L 444.755191 296.924527 
L 445.55724 290.576772 
L 446.359288 293.173581 
L 447.161337 303.705083 
L 447.963386 299.665603 
L 448.765434 299.521336 
L 449.567483 297.645863 
L 450.369532 296.203191 
L 451.17158 287.402894 
L 451.973629 301.541076 
L 452.775678 305.003488 
L 453.577726 300.675473 
L 454.379775 302.839481 
L 455.181824 301.541076 
L 455.983872 301.973878 
L 456.785921 288.268497 
L 457.58797 296.347458 
L 458.390018 300.81974 
L 459.192067 300.098404 
L 459.994116 306.157625 
L 460.796164 298.078664 
L 461.598213 299.232801 
L 462.400262 291.009573 
L 463.20231 301.973878 
L 464.004359 306.734694 
L 464.806407 300.675473 
L 465.608456 300.964007 
L 466.410505 305.147755 
L 467.212553 295.626122 
L 468.014602 293.029314 
L 468.816651 299.665603 
L 469.618699 303.416549 
L 470.420748 299.088534 
L 472.024845 300.675473 
L 472.826894 299.232801 
L 473.628943 295.481855 
L 474.430991 292.740779 
L 475.23304 303.416549 
L 476.035089 302.550946 
L 476.837137 299.954137 
L 477.639186 298.944267 
L 478.441235 300.098404 
L 479.243283 289.566902 
L 480.045332 300.098404 
L 480.847381 305.292022 
L 481.649429 298.944267 
L 482.451478 298.078664 
L 483.253527 298.8 
L 484.857624 294.904787 
L 485.659673 300.386939 
L 486.461721 303.560816 
L 487.26377 301.252542 
L 488.065819 297.645863 
L 488.867867 300.098404 
L 489.669916 293.173581 
L 490.471964 289.999703 
L 491.274013 298.655733 
L 492.076062 300.242672 
L 492.87811 298.078664 
L 493.680159 293.750649 
L 494.482208 299.088534 
L 496.086305 289.999703 
L 496.888354 298.222931 
L 497.690402 299.521336 
L 498.492451 294.039184 
L 499.2945 299.80987 
L 500.096548 304.282152 
L 500.898597 298.511466 
L 501.700646 294.327718 
L 502.502694 301.108275 
L 503.304743 302.839481 
L 504.106792 300.098404 
L 504.90884 297.934397 
L 505.710889 300.386939 
L 506.512938 293.894917 
L 507.314986 285.238887 
L 508.117035 292.452245 
L 508.919084 300.81974 
L 509.721132 293.750649 
L 510.523181 294.039184 
L 511.32523 285.815955 
L 512.127278 295.481855 
L 512.929327 286.10449 
L 513.731375 297.501596 
L 514.533424 301.396809 
L 516.137521 292.885046 
L 516.93957 294.760519 
L 517.741619 297.068794 
L 518.543667 284.661818 
L 519.345716 293.606382 
L 520.147765 293.750649 
L 520.949813 294.183451 
L 521.751862 291.875176 
L 522.553911 290.865306 
L 523.355959 295.77039 
L 524.158008 287.258627 
L 524.960057 295.193321 
L 525.762105 298.8 
L 526.564154 295.914657 
L 527.366203 294.183451 
L 528.168251 293.029314 
L 528.9703 283.940482 
L 529.772349 273.40898 
L 530.574397 288.845566 
L 531.376446 292.019443 
L 532.178495 289.855436 
L 532.980543 291.15384 
L 535.386689 286.393024 
L 536.188738 294.183451 
L 536.990786 300.242672 
L 537.792835 292.307978 
L 538.594884 295.193321 
L 539.396932 286.825826 
L 540.198981 286.970093 
L 541.00103 275.717254 
L 541.803078 288.412764 
L 542.605127 294.327718 
L 543.407176 287.402894 
L 544.209224 287.547161 
L 545.011273 283.651948 
L 545.813322 284.950353 
L 546.61537 274.851651 
L 548.219468 290.865306 
L 549.021516 290.721039 
L 549.823565 286.537291 
L 550.625614 291.15384 
L 551.427662 287.402894 
L 552.229711 269.802301 
L 553.03176 285.383154 
L 553.833808 289.999703 
L 554.635857 284.661818 
L 556.239954 277.736994 
L 557.042003 279.323933 
L 557.844052 268.648163 
L 558.6461 274.130315 
L 559.448149 287.258627 
L 560.250198 291.875176 
L 561.052246 279.4682 
L 561.854295 277.736994 
L 562.656343 284.661818 
L 563.458392 266.77269 
L 564.260441 276.727124 
L 565.062489 283.796215 
L 565.864538 275.717254 
L 566.666587 271.822041 
L 567.468635 265.041484 
L 568.270684 265.185751 
L 569.072733 254.221447 
L 569.874781 276.294323 
L 570.67683 280.622338 
L 571.478879 279.323933 
L 572.280927 283.074879 
L 573.082976 276.005788 
L 573.885025 275.140186 
L 574.687073 265.185751 
L 576.291171 285.815955 
L 577.093219 283.940482 
L 577.895268 274.851651 
L 578.697317 279.179666 
L 579.499365 277.304193 
L 580.301414 257.251058 
L 581.103463 272.254842 
L 581.905511 283.651948 
L 582.70756 273.553247 
L 583.509609 274.274583 
L 584.311657 268.936698 
L 585.113706 271.966308 
L 585.915754 258.693729 
L 586.717803 268.79243 
L 587.519852 275.42872 
L 588.3219 276.582857 
L 589.123949 273.986048 
L 589.925998 266.484156 
L 590.728046 250.614768 
L 591.530095 253.788646 
L 592.332144 258.260928 
L 593.134192 271.677774 
L 593.936241 262.877477 
L 594.73829 270.235102 
L 595.540338 269.369499 
L 596.342387 262.73321 
L 597.144436 252.05744 
L 597.946484 260.857737 
L 598.748533 267.638293 
L 599.550582 264.175881 
L 600.35263 265.330019 
L 601.154679 253.644378 
L 601.956728 254.654249 
L 602.758776 250.037699 
L 603.560825 243.978479 
L 604.362874 233.73551 
L 605.164922 268.503896 
L 605.966971 322.17128 
L 606.76902 300.531206 
L 607.571068 303.993618 
L 608.373117 295.77039 
L 609.175165 295.914657 
L 609.977214 284.229017 
L 610.779263 289.855436 
L 611.581311 291.875176 
L 612.38336 284.517551 
L 613.185409 283.796215 
L 613.987457 274.851651 
L 614.789506 289.566902 
L 615.591555 289.1341 
L 616.393603 291.442375 
L 617.195652 289.278367 
L 617.997701 292.740779 
L 618.799749 293.317848 
L 619.601798 278.025529 
L 620.403847 286.393024 
L 621.205895 292.019443 
L 622.007944 286.537291 
L 622.809993 284.806085 
L 623.612041 285.960223 
L 624.41409 280.478071 
L 625.216139 284.661818 
L 626.018187 275.717254 
L 626.820236 294.616252 
L 627.622285 279.035399 
L 628.424333 287.835696 
L 629.226382 281.632208 
L 630.028431 279.612468 
L 630.830479 276.727124 
L 631.632528 280.622338 
L 632.434577 285.238887 
L 633.236625 286.393024 
L 634.038674 283.651948 
L 634.840722 284.229017 
L 635.642771 287.835696 
L 636.44482 270.523636 
L 638.048917 291.586642 
L 638.850966 282.353544 
L 639.653014 289.278367 
L 640.455063 287.258627 
L 641.257112 292.307978 
L 642.05916 280.189536 
L 642.861209 289.1341 
L 643.663258 299.377069 
L 644.465306 294.471985 
L 645.267355 288.12423 
L 646.069404 293.029314 
L 646.871452 284.517551 
L 647.673501 285.527421 
L 648.47555 290.288237 
L 649.277598 301.685343 
L 650.079647 288.12423 
L 650.881696 288.12423 
L 651.683744 285.527421 
L 652.485793 275.717254 
L 653.287842 278.025529 
L 654.08989 284.08475 
L 654.891939 292.163711 
L 656.496036 304.426419 
L 657.298085 301.82961 
L 658.100133 289.999703 
L 658.902182 266.77269 
L 659.704231 277.304193 
L 660.506279 282.786345 
L 661.308328 283.796215 
L 662.110377 329.961707 
L 662.912425 328.951837 
L 663.714474 331.692913 
L 664.516523 328.663302 
L 664.516523 328.663302 
" clip-path="url(#pd22a2d1cc7)" style="fill: none; stroke: #348abd; stroke-width: 2"/>
   </g>
   <g id="line2d_30">
    <path d="M 99.874269 338.906271 
L 100.676318 339.050538 
L 101.478367 338.184935 
L 102.280415 338.329202 
L 103.082464 339.916141 
L 103.884512 339.48334 
L 104.686561 340.348942 
L 105.48861 336.597996 
L 106.290658 337.030798 
L 107.092707 338.329202 
L 107.894756 338.040668 
L 108.696804 336.597996 
L 109.498853 338.906271 
L 110.300902 340.348942 
L 111.10295 340.204675 
L 111.904999 340.348942 
L 112.707048 339.627607 
L 113.509096 340.49321 
L 114.311145 339.050538 
L 115.113194 339.627607 
L 115.915242 339.339072 
L 116.717291 340.637477 
L 117.51934 340.204675 
L 118.321388 338.617737 
L 119.123437 338.473469 
L 119.925486 337.030798 
L 120.727534 337.896401 
L 121.529583 338.040668 
L 122.331632 338.762004 
L 123.13368 340.060408 
L 124.737778 338.329202 
L 125.539826 338.329202 
L 126.341875 339.627607 
L 127.143923 339.48334 
L 127.945972 336.453729 
L 128.748021 337.607866 
L 129.550069 337.607866 
L 131.154167 337.319332 
L 131.956215 337.030798 
L 132.758264 338.617737 
L 133.560313 334.578256 
L 134.362361 335.155325 
L 135.16441 335.588126 
L 135.966459 333.279852 
L 136.768507 331.83718 
L 137.570556 333.85692 
L 138.372605 337.030798 
L 139.174653 335.155325 
L 139.976702 337.175065 
L 140.778751 336.886531 
L 141.580799 331.404378 
L 142.382848 334.001187 
L 143.184897 332.84705 
L 143.986945 335.011058 
L 144.788994 335.588126 
L 145.591043 337.463599 
L 146.393091 334.86679 
L 147.19514 337.030798 
L 147.997189 337.030798 
L 148.799237 336.309462 
L 149.601286 338.040668 
L 150.403335 338.184935 
L 151.205383 338.473469 
L 152.007432 337.463599 
L 152.80948 339.194805 
L 153.611529 337.175065 
L 154.413578 338.329202 
L 155.215626 339.050538 
L 156.017675 334.86679 
L 156.819724 334.86679 
L 157.621772 333.135584 
L 158.423821 335.588126 
L 159.22587 333.712653 
L 160.027918 334.578256 
L 160.829967 337.030798 
L 161.632016 330.971577 
L 162.434064 331.83718 
L 163.236113 333.279852 
L 164.038162 334.145455 
L 164.84021 333.712653 
L 166.444308 335.87666 
L 167.246356 334.433989 
L 168.048405 335.299592 
L 168.850454 333.712653 
L 169.652502 333.279852 
L 170.454551 332.558516 
L 171.2566 334.578256 
L 172.058648 334.289722 
L 172.860697 333.85692 
L 173.662746 332.991317 
L 174.464794 332.414249 
L 175.266843 333.568386 
L 176.068891 332.125714 
L 177.672989 334.722523 
L 178.475037 333.424119 
L 179.277086 333.279852 
L 180.079135 336.597996 
L 180.881183 333.712653 
L 181.683232 332.702783 
L 182.485281 335.011058 
L 183.287329 335.443859 
L 184.089378 332.269981 
L 184.891427 331.260111 
L 185.693475 332.84705 
L 186.495524 331.404378 
L 187.297573 328.80757 
L 188.099621 332.125714 
L 188.90167 333.85692 
L 189.703719 333.135584 
L 190.505767 336.165195 
L 191.307816 332.991317 
L 192.109865 333.712653 
L 192.911913 329.81744 
L 193.713962 331.692913 
L 194.516011 331.692913 
L 195.318059 333.712653 
L 196.120108 333.712653 
L 196.922157 331.260111 
L 197.724205 332.414249 
L 198.526254 330.971577 
L 199.328302 331.548646 
L 200.9324 335.155325 
L 201.734448 331.548646 
L 202.536497 333.424119 
L 203.338546 333.279852 
L 204.140594 332.414249 
L 204.942643 334.145455 
L 205.744692 334.289722 
L 206.54674 331.404378 
L 207.348789 332.702783 
L 208.150838 332.125714 
L 208.952886 334.722523 
L 209.754935 333.568386 
L 210.556984 336.020928 
L 211.359032 334.86679 
L 212.161081 334.86679 
L 212.96313 335.011058 
L 213.765178 335.299592 
L 214.567227 335.87666 
L 215.369276 335.732393 
L 216.171324 335.155325 
L 216.973373 336.453729 
L 217.775422 334.145455 
L 218.57747 335.155325 
L 219.379519 334.722523 
L 220.181568 334.722523 
L 220.983616 332.558516 
L 222.587714 336.886531 
L 223.389762 337.175065 
L 224.191811 334.578256 
L 224.993859 335.588126 
L 225.795908 336.165195 
L 226.597957 332.991317 
L 227.400005 336.165195 
L 228.202054 337.607866 
L 229.004103 335.588126 
L 229.806151 336.309462 
L 230.6082 336.453729 
L 231.410249 336.886531 
L 232.212297 335.732393 
L 233.014346 335.732393 
L 233.816395 337.896401 
L 234.618443 337.752134 
L 235.420492 336.886531 
L 236.222541 334.722523 
L 237.024589 334.289722 
L 237.826638 336.020928 
L 238.628687 335.87666 
L 239.430735 336.165195 
L 240.232784 336.597996 
L 241.034833 338.762004 
L 241.836881 335.443859 
L 242.63893 336.742263 
L 243.440979 335.87666 
L 244.243027 335.732393 
L 245.045076 337.319332 
L 245.847125 336.742263 
L 246.649173 335.588126 
L 247.451222 336.597996 
L 248.25327 337.319332 
L 249.055319 333.279852 
L 249.857368 335.299592 
L 250.659416 336.165195 
L 251.461465 336.020928 
L 252.263514 334.722523 
L 253.065562 334.722523 
L 253.867611 334.86679 
L 254.66966 335.155325 
L 255.471708 335.011058 
L 256.273757 336.309462 
L 257.075806 335.87666 
L 257.877854 335.588126 
L 258.679903 335.011058 
L 259.481952 335.299592 
L 260.284 331.692913 
L 261.086049 336.742263 
L 261.888098 336.453729 
L 262.690146 336.309462 
L 263.492195 335.011058 
L 264.294244 336.309462 
L 265.096292 333.85692 
L 265.898341 334.578256 
L 266.70039 335.588126 
L 267.502438 335.443859 
L 268.304487 335.155325 
L 269.106536 336.453729 
L 269.908584 335.87666 
L 270.710633 336.020928 
L 271.512681 333.279852 
L 272.31473 335.155325 
L 273.116779 335.732393 
L 273.918827 336.453729 
L 274.720876 334.86679 
L 275.522925 335.299592 
L 276.324973 333.85692 
L 277.127022 333.85692 
L 278.731119 334.433989 
L 279.533168 335.299592 
L 280.335217 334.86679 
L 281.137265 334.001187 
L 281.939314 333.712653 
L 282.741363 330.82731 
L 283.543411 333.85692 
L 284.34546 335.011058 
L 285.147509 335.011058 
L 285.949557 334.433989 
L 286.751606 332.84705 
L 287.553655 334.001187 
L 288.355703 331.404378 
L 289.157752 332.991317 
L 289.959801 335.732393 
L 290.761849 335.588126 
L 291.563898 333.85692 
L 292.365947 332.558516 
L 293.167995 331.83718 
L 293.970044 330.82731 
L 294.772093 330.394508 
L 295.574141 332.991317 
L 296.37619 332.991317 
L 297.178238 332.702783 
L 297.980287 331.404378 
L 298.782336 331.260111 
L 299.584384 329.384638 
L 300.386433 331.260111 
L 301.188482 337.030798 
L 301.99053 329.961707 
L 302.792579 329.673173 
L 303.594628 330.683043 
L 304.396676 330.250241 
L 305.198725 330.971577 
L 306.000774 332.125714 
L 306.802822 334.578256 
L 307.604871 332.991317 
L 308.40692 329.81744 
L 309.208968 327.653432 
L 310.011017 328.951837 
L 310.813066 327.220631 
L 311.615114 325.200891 
L 312.417163 330.82731 
L 313.219212 340.060408 
L 314.02126 337.896401 
L 314.823309 338.762004 
L 316.427406 335.87666 
L 317.229455 335.732393 
L 318.031504 337.752134 
L 318.833552 336.886531 
L 319.635601 335.588126 
L 320.437649 336.165195 
L 321.239698 335.87666 
L 322.041747 334.145455 
L 322.843795 336.020928 
L 323.645844 337.030798 
L 324.447893 336.886531 
L 325.249941 336.020928 
L 326.05199 336.453729 
L 326.854039 336.597996 
L 327.656087 335.011058 
L 328.458136 335.87666 
L 329.260185 337.319332 
L 330.062233 335.87666 
L 330.864282 337.030798 
L 332.468379 336.165195 
L 333.270428 334.86679 
L 334.072477 335.732393 
L 334.874525 337.463599 
L 335.676574 336.742263 
L 336.478623 337.319332 
L 337.280671 336.020928 
L 338.08272 337.463599 
L 338.884769 335.87666 
L 339.686817 334.722523 
L 340.488866 336.886531 
L 341.290915 336.020928 
L 342.092963 335.87666 
L 342.895012 336.020928 
L 343.69706 335.155325 
L 344.499109 336.309462 
L 345.301158 336.020928 
L 346.103206 335.011058 
L 346.905255 336.597996 
L 347.707304 335.588126 
L 348.509352 335.732393 
L 349.311401 337.463599 
L 350.11345 334.578256 
L 351.717547 336.886531 
L 352.519596 336.020928 
L 353.321644 336.886531 
L 354.123693 335.011058 
L 354.925742 334.433989 
L 355.72779 334.578256 
L 356.529839 336.742263 
L 357.331888 337.752134 
L 358.133936 336.453729 
L 358.935985 336.597996 
L 359.738034 335.011058 
L 360.540082 334.145455 
L 361.342131 334.145455 
L 362.14418 334.86679 
L 362.946228 334.722523 
L 363.748277 335.155325 
L 364.550326 336.165195 
L 365.352374 332.125714 
L 366.154423 335.443859 
L 366.956472 335.443859 
L 367.75852 336.597996 
L 368.560569 336.886531 
L 369.362617 335.011058 
L 370.164666 338.040668 
L 370.966715 331.404378 
L 371.768763 329.961707 
L 372.570812 330.250241 
L 373.372861 335.299592 
L 374.174909 335.011058 
L 374.976958 335.443859 
L 375.779007 333.85692 
L 376.581055 334.578256 
L 377.383104 334.433989 
L 378.185153 333.568386 
L 378.987201 333.135584 
L 379.78925 336.742263 
L 380.591299 332.702783 
L 381.393347 330.105974 
L 382.997445 334.86679 
L 383.799493 334.145455 
L 384.601542 335.588126 
L 385.403591 336.742263 
L 386.205639 336.742263 
L 387.007688 336.597996 
L 387.809737 336.309462 
L 388.611785 335.732393 
L 389.413834 335.011058 
L 390.215883 333.712653 
L 391.017931 338.329202 
L 391.81998 338.184935 
L 392.622028 337.319332 
L 394.226126 335.011058 
L 395.028174 336.309462 
L 395.830223 335.299592 
L 396.632272 337.030798 
L 397.43432 336.597996 
L 398.236369 336.309462 
L 399.038418 337.175065 
L 400.642515 335.299592 
L 401.444564 334.578256 
L 402.246612 337.319332 
L 403.048661 337.463599 
L 403.85071 336.886531 
L 404.652758 336.020928 
L 405.454807 337.463599 
L 406.256856 335.443859 
L 407.058904 334.86679 
L 408.663002 336.309462 
L 409.46505 338.473469 
L 410.267099 337.896401 
L 411.871196 335.732393 
L 412.673245 335.299592 
L 413.475294 336.020928 
L 414.277342 336.453729 
L 415.079391 335.588126 
L 415.88144 337.175065 
L 416.683488 336.453729 
L 417.485537 336.309462 
L 418.287585 335.011058 
L 419.089634 336.597996 
L 419.891683 336.165195 
L 420.693731 336.597996 
L 421.49578 337.463599 
L 422.297829 335.299592 
L 423.099877 337.030798 
L 423.901926 335.443859 
L 424.703975 338.184935 
L 425.506023 336.453729 
L 426.308072 335.87666 
L 427.110121 335.155325 
L 427.912169 336.165195 
L 428.714218 336.165195 
L 429.516267 333.712653 
L 430.318315 336.742263 
L 431.120364 336.886531 
L 431.922413 335.732393 
L 432.724461 337.030798 
L 433.52651 335.443859 
L 434.328559 336.020928 
L 435.130607 334.86679 
L 435.932656 336.453729 
L 436.734705 335.443859 
L 437.536753 336.309462 
L 438.338802 334.433989 
L 439.140851 336.597996 
L 439.942899 334.722523 
L 440.744948 334.433989 
L 441.546996 335.299592 
L 442.349045 337.175065 
L 443.151094 335.155325 
L 443.953142 336.165195 
L 444.755191 334.001187 
L 445.55724 333.424119 
L 446.359288 334.578256 
L 447.161337 337.175065 
L 447.963386 336.309462 
L 448.765434 335.732393 
L 449.567483 335.87666 
L 450.369532 337.463599 
L 451.17158 335.011058 
L 451.973629 337.607866 
L 453.577726 336.165195 
L 454.379775 335.155325 
L 455.181824 337.607866 
L 456.785921 334.86679 
L 457.58797 334.289722 
L 458.390018 336.742263 
L 459.192067 336.453729 
L 459.994116 337.463599 
L 460.796164 335.011058 
L 461.598213 336.453729 
L 462.400262 335.299592 
L 463.20231 335.443859 
L 464.004359 337.463599 
L 464.806407 336.742263 
L 465.608456 337.030798 
L 466.410505 336.597996 
L 467.212553 335.443859 
L 468.014602 335.011058 
L 468.816651 335.87666 
L 469.618699 337.607866 
L 470.420748 334.145455 
L 471.222797 335.732393 
L 472.024845 336.309462 
L 472.826894 334.578256 
L 473.628943 335.443859 
L 474.430991 332.558516 
L 475.23304 335.443859 
L 476.035089 337.463599 
L 476.837137 335.732393 
L 477.639186 335.155325 
L 478.441235 336.020928 
L 479.243283 334.86679 
L 480.045332 336.742263 
L 480.847381 336.020928 
L 481.649429 334.86679 
L 482.451478 335.155325 
L 483.253527 337.175065 
L 484.055575 334.433989 
L 484.857624 336.020928 
L 486.461721 336.020928 
L 488.065819 336.309462 
L 488.867867 337.463599 
L 489.669916 335.443859 
L 490.471964 335.87666 
L 491.274013 334.86679 
L 492.076062 335.87666 
L 493.680159 334.289722 
L 495.284256 335.732393 
L 496.086305 334.578256 
L 496.888354 336.742263 
L 497.690402 335.155325 
L 498.492451 335.299592 
L 499.2945 336.742263 
L 500.096548 337.319332 
L 500.898597 335.87666 
L 501.700646 335.011058 
L 502.502694 336.742263 
L 503.304743 335.299592 
L 504.106792 336.165195 
L 504.90884 335.011058 
L 505.710889 335.299592 
L 506.512938 336.453729 
L 507.314986 335.155325 
L 508.117035 335.588126 
L 508.919084 336.453729 
L 509.721132 336.597996 
L 510.523181 336.597996 
L 511.32523 335.443859 
L 512.127278 335.299592 
L 512.929327 334.86679 
L 514.533424 337.319332 
L 515.335473 336.309462 
L 516.137521 336.453729 
L 516.93957 335.299592 
L 517.741619 335.299592 
L 518.543667 333.568386 
L 519.345716 336.165195 
L 520.147765 336.309462 
L 520.949813 334.578256 
L 521.751862 334.433989 
L 523.355959 335.588126 
L 524.158008 334.145455 
L 524.960057 337.607866 
L 527.366203 335.588126 
L 528.168251 336.020928 
L 528.9703 334.433989 
L 529.772349 334.433989 
L 530.574397 335.011058 
L 531.376446 334.86679 
L 532.178495 335.443859 
L 532.980543 334.145455 
L 533.782592 334.433989 
L 534.584641 332.702783 
L 535.386689 334.578256 
L 536.188738 334.578256 
L 536.990786 337.175065 
L 537.792835 335.299592 
L 538.594884 336.453729 
L 539.396932 334.001187 
L 540.198981 333.712653 
L 541.00103 334.145455 
L 541.803078 332.702783 
L 542.605127 335.011058 
L 543.407176 335.87666 
L 544.209224 333.712653 
L 545.011273 332.558516 
L 545.813322 333.85692 
L 546.61537 331.692913 
L 547.417419 333.135584 
L 548.219468 335.732393 
L 549.021516 334.578256 
L 549.823565 332.702783 
L 550.625614 335.588126 
L 551.427662 334.578256 
L 552.229711 332.558516 
L 553.03176 333.279852 
L 553.833808 334.86679 
L 554.635857 335.011058 
L 555.437906 334.722523 
L 556.239954 334.145455 
L 557.042003 332.702783 
L 557.844052 329.673173 
L 558.6461 332.125714 
L 560.250198 334.578256 
L 561.052246 332.558516 
L 561.854295 333.279852 
L 562.656343 334.289722 
L 563.458392 330.105974 
L 564.260441 331.981447 
L 565.062489 331.260111 
L 565.864538 332.84705 
L 566.666587 331.981447 
L 567.468635 331.83718 
L 568.270684 330.105974 
L 569.072733 330.394508 
L 569.874781 331.981447 
L 570.67683 334.433989 
L 572.280927 332.84705 
L 573.082976 332.991317 
L 573.885025 331.981447 
L 574.687073 330.538776 
L 575.489122 331.692913 
L 576.291171 332.414249 
L 577.895268 331.548646 
L 578.697317 334.001187 
L 579.499365 332.269981 
L 580.301414 327.220631 
L 581.103463 330.105974 
L 581.905511 332.125714 
L 582.70756 330.105974 
L 583.509609 332.125714 
L 584.311657 328.663302 
L 585.113706 330.250241 
L 586.717803 328.80757 
L 587.519852 331.115844 
L 588.3219 331.548646 
L 589.123949 328.663302 
L 590.728046 326.066494 
L 591.530095 326.643562 
L 592.332144 326.210761 
L 593.134192 329.240371 
L 593.936241 328.086234 
L 594.73829 330.250241 
L 595.540338 330.971577 
L 596.342387 324.479555 
L 597.144436 324.479555 
L 597.946484 327.653432 
L 598.748533 326.066494 
L 599.550582 326.066494 
L 600.35263 328.519035 
L 601.154679 326.355028 
L 601.956728 325.056623 
L 602.758776 325.922226 
L 603.560825 324.479555 
L 604.362874 322.315547 
L 605.164922 324.912356 
L 605.966971 337.463599 
L 606.76902 334.86679 
L 607.571068 333.279852 
L 608.373117 333.568386 
L 609.175165 331.981447 
L 609.977214 331.981447 
L 610.779263 330.971577 
L 611.581311 331.692913 
L 612.38336 331.548646 
L 613.987457 327.797699 
L 614.789506 330.250241 
L 615.591555 330.538776 
L 616.393603 329.961707 
L 617.195652 330.538776 
L 617.997701 333.568386 
L 618.799749 329.528905 
L 619.601798 329.673173 
L 620.403847 329.673173 
L 621.205895 330.971577 
L 622.007944 329.384638 
L 622.809993 329.81744 
L 623.612041 329.384638 
L 624.41409 325.922226 
L 625.216139 330.394508 
L 626.018187 327.076364 
L 626.820236 329.673173 
L 627.622285 328.230501 
L 628.424333 329.673173 
L 629.226382 328.519035 
L 630.028431 329.240371 
L 630.830479 327.797699 
L 631.632528 326.787829 
L 632.434577 326.499295 
L 633.236625 329.240371 
L 634.038674 329.528905 
L 634.840722 326.787829 
L 635.642771 327.941967 
L 636.44482 323.18115 
L 637.246868 327.653432 
L 638.048917 327.509165 
L 638.850966 326.643562 
L 639.653014 329.384638 
L 640.455063 328.519035 
L 641.257112 328.663302 
L 642.05916 325.922226 
L 642.861209 327.220631 
L 643.663258 331.260111 
L 644.465306 326.355028 
L 645.267355 325.777959 
L 646.069404 329.096104 
L 646.871452 325.922226 
L 647.673501 328.519035 
L 648.47555 323.758219 
L 649.277598 329.384638 
L 650.079647 324.046753 
L 650.881696 322.027013 
L 651.683744 323.036883 
L 653.287842 320.295807 
L 654.08989 320.872876 
L 654.891939 323.758219 
L 655.693988 328.519035 
L 656.496036 329.961707 
L 657.298085 330.683043 
L 658.100133 324.623822 
L 658.902182 307.600297 
L 659.704231 311.49551 
L 660.506279 311.062709 
L 661.308328 315.679258 
L 662.110377 336.453729 
L 662.912425 337.030798 
L 663.714474 337.175065 
L 664.516523 336.165195 
L 664.516523 336.165195 
" clip-path="url(#pd22a2d1cc7)" style="fill: none; stroke: #a60628; stroke-width: 2"/>
   </g>
   <g id="patch_3">
    <path d="M 66.58925 357.12 
L 66.58925 7.2 
" style="fill: none; stroke: #bcbcbc; stroke-width: 3; stroke-linejoin: miter; stroke-linecap: square"/>
   </g>
   <g id="patch_4">
    <path d="M 692.98925 357.12 
L 692.98925 7.2 
" style="fill: none; stroke: #bcbcbc; stroke-width: 3; stroke-linejoin: miter; stroke-linecap: square"/>
   </g>
   <g id="patch_5">
    <path d="M 66.58925 357.12 
L 692.98925 357.12 
" style="fill: none; stroke: #bcbcbc; stroke-width: 3; stroke-linejoin: miter; stroke-linecap: square"/>
   </g>
   <g id="patch_6">
    <path d="M 66.58925 7.2 
L 692.98925 7.2 
" style="fill: none; stroke: #bcbcbc; stroke-width: 3; stroke-linejoin: miter; stroke-linecap: square"/>
   </g>
   <g id="legend_1">
    <g id="patch_7">
     <path d="M 357.422375 60.2775 
L 683.18925 60.2775 
Q 685.98925 60.2775 685.98925 57.4775 
L 685.98925 17 
Q 685.98925 14.2 683.18925 14.2 
L 357.422375 14.2 
Q 354.622375 14.2 354.622375 17 
L 354.622375 57.4775 
Q 354.622375 60.2775 357.422375 60.2775 
z
" style="fill: #eeeeee; opacity: 0.8; stroke: #cccccc; stroke-width: 0.5; stroke-linejoin: miter"/>
    </g>
    <g id="line2d_31">
     <path d="M 360.222375 25.537813 
L 374.222375 25.537813 
L 388.222375 25.537813 
" style="fill: none; stroke: #348abd; stroke-width: 2"/>
    </g>
    <g id="text_17">
     <!-- first_issue_date -->
     <g transform="translate(399.422375 30.437813)scale(0.14 -0.14)">
      <use xlink:href="#DejaVuSans-66"/>
      <use xlink:href="#DejaVuSans-69" x="35.205078"/>
      <use xlink:href="#DejaVuSans-72" x="62.988281"/>
      <use xlink:href="#DejaVuSans-73" x="104.101562"/>
      <use xlink:href="#DejaVuSans-74" x="156.201172"/>
      <use xlink:href="#DejaVuSans-5f" x="195.410156"/>
      <use xlink:href="#DejaVuSans-69" x="245.410156"/>
      <use xlink:href="#DejaVuSans-73" x="273.193359"/>
      <use xlink:href="#DejaVuSans-73" x="325.292969"/>
      <use xlink:href="#DejaVuSans-75" x="377.392578"/>
      <use xlink:href="#DejaVuSans-65" x="440.771484"/>
      <use xlink:href="#DejaVuSans-5f" x="502.294922"/>
      <use xlink:href="#DejaVuSans-64" x="552.294922"/>
      <use xlink:href="#DejaVuSans-61" x="615.771484"/>
      <use xlink:href="#DejaVuSans-74" x="677.050781"/>
      <use xlink:href="#DejaVuSans-65" x="716.259766"/>
     </g>
    </g>
    <g id="line2d_32">
     <path d="M 360.222375 46.476563 
L 374.222375 46.476563 
L 388.222375 46.476563 
" style="fill: none; stroke: #a60628; stroke-width: 2"/>
    </g>
    <g id="text_18">
     <!-- first_issue_date (first_redeem_date null) -->
     <g transform="translate(399.422375 51.376563)scale(0.14 -0.14)">
      <defs>
       <path id="DejaVuSans-20" transform="scale(0.015625)"/>
       <path id="DejaVuSans-28" d="M 1984 4856 
Q 1566 4138 1362 3434 
Q 1159 2731 1159 2009 
Q 1159 1288 1364 580 
Q 1569 -128 1984 -844 
L 1484 -844 
Q 1016 -109 783 600 
Q 550 1309 550 2009 
Q 550 2706 781 3412 
Q 1013 4119 1484 4856 
L 1984 4856 
z
" transform="scale(0.015625)"/>
       <path id="DejaVuSans-6d" d="M 3328 2828 
Q 3544 3216 3844 3400 
Q 4144 3584 4550 3584 
Q 5097 3584 5394 3201 
Q 5691 2819 5691 2113 
L 5691 0 
L 5113 0 
L 5113 2094 
Q 5113 2597 4934 2840 
Q 4756 3084 4391 3084 
Q 3944 3084 3684 2787 
Q 3425 2491 3425 1978 
L 3425 0 
L 2847 0 
L 2847 2094 
Q 2847 2600 2669 2842 
Q 2491 3084 2119 3084 
Q 1678 3084 1418 2786 
Q 1159 2488 1159 1978 
L 1159 0 
L 581 0 
L 581 3500 
L 1159 3500 
L 1159 2956 
Q 1356 3278 1631 3431 
Q 1906 3584 2284 3584 
Q 2666 3584 2933 3390 
Q 3200 3197 3328 2828 
z
" transform="scale(0.015625)"/>
       <path id="DejaVuSans-6c" d="M 603 4863 
L 1178 4863 
L 1178 0 
L 603 0 
L 603 4863 
z
" transform="scale(0.015625)"/>
       <path id="DejaVuSans-29" d="M 513 4856 
L 1013 4856 
Q 1481 4119 1714 3412 
Q 1947 2706 1947 2009 
Q 1947 1309 1714 600 
Q 1481 -109 1013 -844 
L 513 -844 
Q 928 -128 1133 580 
Q 1338 1288 1338 2009 
Q 1338 2731 1133 3434 
Q 928 4138 513 4856 
z
" transform="scale(0.015625)"/>
      </defs>
      <use xlink:href="#DejaVuSans-66"/>
      <use xlink:href="#DejaVuSans-69" x="35.205078"/>
      <use xlink:href="#DejaVuSans-72" x="62.988281"/>
      <use xlink:href="#DejaVuSans-73" x="104.101562"/>
      <use xlink:href="#DejaVuSans-74" x="156.201172"/>
      <use xlink:href="#DejaVuSans-5f" x="195.410156"/>
      <use xlink:href="#DejaVuSans-69" x="245.410156"/>
      <use xlink:href="#DejaVuSans-73" x="273.193359"/>
      <use xlink:href="#DejaVuSans-73" x="325.292969"/>
      <use xlink:href="#DejaVuSans-75" x="377.392578"/>
      <use xlink:href="#DejaVuSans-65" x="440.771484"/>
      <use xlink:href="#DejaVuSans-5f" x="502.294922"/>
      <use xlink:href="#DejaVuSans-64" x="552.294922"/>
      <use xlink:href="#DejaVuSans-61" x="615.771484"/>
      <use xlink:href="#DejaVuSans-74" x="677.050781"/>
      <use xlink:href="#DejaVuSans-65" x="716.259766"/>
      <use xlink:href="#DejaVuSans-20" x="777.783203"/>
      <use xlink:href="#DejaVuSans-28" x="809.570312"/>
      <use xlink:href="#DejaVuSans-66" x="848.583984"/>
      <use xlink:href="#DejaVuSans-69" x="883.789062"/>
      <use xlink:href="#DejaVuSans-72" x="911.572266"/>
      <use xlink:href="#DejaVuSans-73" x="952.685547"/>
      <use xlink:href="#DejaVuSans-74" x="1004.785156"/>
      <use xlink:href="#DejaVuSans-5f" x="1043.994141"/>
      <use xlink:href="#DejaVuSans-72" x="1093.994141"/>
      <use xlink:href="#DejaVuSans-65" x="1132.857422"/>
      <use xlink:href="#DejaVuSans-64" x="1194.380859"/>
      <use xlink:href="#DejaVuSans-65" x="1257.857422"/>
      <use xlink:href="#DejaVuSans-65" x="1319.380859"/>
      <use xlink:href="#DejaVuSans-6d" x="1380.904297"/>
      <use xlink:href="#DejaVuSans-5f" x="1478.316406"/>
      <use xlink:href="#DejaVuSans-64" x="1528.316406"/>
      <use xlink:href="#DejaVuSans-61" x="1591.792969"/>
      <use xlink:href="#DejaVuSans-74" x="1653.072266"/>
      <use xlink:href="#DejaVuSans-65" x="1692.28125"/>
      <use xlink:href="#DejaVuSans-20" x="1753.804688"/>
      <use xlink:href="#DejaVuSans-6e" x="1785.591797"/>
      <use xlink:href="#DejaVuSans-75" x="1848.970703"/>
      <use xlink:href="#DejaVuSans-6c" x="1912.349609"/>
      <use xlink:href="#DejaVuSans-6c" x="1940.132812"/>
      <use xlink:href="#DejaVuSans-29" x="1967.916016"/>
     </g>
    </g>
   </g>
  </g>
 </g>
 <defs>
  <clipPath id="pd22a2d1cc7">
   <rect x="66.58925" y="7.2" width="626.4" height="349.92"/>
  </clipPath>
 </defs>
</svg>
