<?xml version="1.0" encoding="utf-8" standalone="no"?>
<!DOCTYPE svg PUBLIC "-//W3C//DTD SVG 1.1//EN"
  "http://www.w3.org/Graphics/SVG/1.1/DTD/svg11.dtd">
<svg xmlns:xlink="http://www.w3.org/1999/xlink" width="774.558625pt" height="343.534pt" viewBox="0 0 774.558625 343.534" xmlns="http://www.w3.org/2000/svg" version="1.1">
 <metadata>
  <rdf:RDF xmlns:dc="http://purl.org/dc/elements/1.1/" xmlns:cc="http://creativecommons.org/ns#" xmlns:rdf="http://www.w3.org/1999/02/22-rdf-syntax-ns#">
   <cc:Work>
    <dc:type rdf:resource="http://purl.org/dc/dcmitype/StillImage"/>
    <dc:date>2022-04-07T21:41:15.265409</dc:date>
    <dc:format>image/svg+xml</dc:format>
    <dc:creator>
     <cc:Agent>
      <dc:title>Matplotlib v3.5.1, https://matplotlib.org/</dc:title>
     </cc:Agent>
    </dc:creator>
   </cc:Work>
  </rdf:RDF>
 </metadata>
 <defs>
  <style type="text/css">*{stroke-linejoin: round; stroke-linecap: butt}</style>
 </defs>
 <g id="figure_1">
  <g id="patch_1">
   <path d="M 0 343.534 
L 774.558625 343.534 
L 774.558625 0 
L 0 0 
z
" style="fill: #f0f0f0"/>
  </g>
  <g id="axes_1">
   <g id="patch_2">
    <path d="M 71.038625 299.025375 
L 372.436325 299.025375 
L 372.436325 25.965375 
L 71.038625 25.965375 
z
" style="fill: #eeeeee"/>
   </g>
   <g id="matplotlib.axis_1">
    <g id="xtick_1">
     <g id="line2d_1">
      <path d="M 124.621288 299.025375 
L 124.621288 25.965375 
" clip-path="url(#p22d04292e3)" style="fill: none; stroke-dasharray: 1.85,0.8; stroke-dashoffset: 0; stroke: #b2b2b2; stroke-width: 0.5"/>
     </g>
     <g id="line2d_2"/>
     <g id="text_1">
      <!-- 20 -->
      <g transform="translate(115.713788 313.163187)scale(0.14 -0.14)">
       <defs>
        <path id="DejaVuSans-32" d="M 1228 531 
L 3431 531 
L 3431 0 
L 469 0 
L 469 531 
Q 828 903 1448 1529 
Q 2069 2156 2228 2338 
Q 2531 2678 2651 2914 
Q 2772 3150 2772 3378 
Q 2772 3750 2511 3984 
Q 2250 4219 1831 4219 
Q 1534 4219 1204 4116 
Q 875 4013 500 3803 
L 500 4441 
Q 881 4594 1212 4672 
Q 1544 4750 1819 4750 
Q 2544 4750 2975 4387 
Q 3406 4025 3406 3419 
Q 3406 3131 3298 2873 
Q 3191 2616 2906 2266 
Q 2828 2175 2409 1742 
Q 1991 1309 1228 531 
z
" transform="scale(0.015625)"/>
        <path id="DejaVuSans-30" d="M 2034 4250 
Q 1547 4250 1301 3770 
Q 1056 3291 1056 2328 
Q 1056 1369 1301 889 
Q 1547 409 2034 409 
Q 2525 409 2770 889 
Q 3016 1369 3016 2328 
Q 3016 3291 2770 3770 
Q 2525 4250 2034 4250 
z
M 2034 4750 
Q 2819 4750 3233 4129 
Q 3647 3509 3647 2328 
Q 3647 1150 3233 529 
Q 2819 -91 2034 -91 
Q 1250 -91 836 529 
Q 422 1150 422 2328 
Q 422 3509 836 4129 
Q 1250 4750 2034 4750 
z
" transform="scale(0.015625)"/>
       </defs>
       <use xlink:href="#DejaVuSans-32"/>
       <use xlink:href="#DejaVuSans-30" x="63.623047"/>
      </g>
     </g>
    </g>
    <g id="xtick_2">
     <g id="line2d_3">
      <path d="M 180.326992 299.025375 
L 180.326992 25.965375 
" clip-path="url(#p22d04292e3)" style="fill: none; stroke-dasharray: 1.85,0.8; stroke-dashoffset: 0; stroke: #b2b2b2; stroke-width: 0.5"/>
     </g>
     <g id="line2d_4"/>
     <g id="text_2">
      <!-- 40 -->
      <g transform="translate(171.419492 313.163187)scale(0.14 -0.14)">
       <defs>
        <path id="DejaVuSans-34" d="M 2419 4116 
L 825 1625 
L 2419 1625 
L 2419 4116 
z
M 2253 4666 
L 3047 4666 
L 3047 1625 
L 3713 1625 
L 3713 1100 
L 3047 1100 
L 3047 0 
L 2419 0 
L 2419 1100 
L 313 1100 
L 313 1709 
L 2253 4666 
z
" transform="scale(0.015625)"/>
       </defs>
       <use xlink:href="#DejaVuSans-34"/>
       <use xlink:href="#DejaVuSans-30" x="63.623047"/>
      </g>
     </g>
    </g>
    <g id="xtick_3">
     <g id="line2d_5">
      <path d="M 236.032696 299.025375 
L 236.032696 25.965375 
" clip-path="url(#p22d04292e3)" style="fill: none; stroke-dasharray: 1.85,0.8; stroke-dashoffset: 0; stroke: #b2b2b2; stroke-width: 0.5"/>
     </g>
     <g id="line2d_6"/>
     <g id="text_3">
      <!-- 60 -->
      <g transform="translate(227.125196 313.163187)scale(0.14 -0.14)">
       <defs>
        <path id="DejaVuSans-36" d="M 2113 2584 
Q 1688 2584 1439 2293 
Q 1191 2003 1191 1497 
Q 1191 994 1439 701 
Q 1688 409 2113 409 
Q 2538 409 2786 701 
Q 3034 994 3034 1497 
Q 3034 2003 2786 2293 
Q 2538 2584 2113 2584 
z
M 3366 4563 
L 3366 3988 
Q 3128 4100 2886 4159 
Q 2644 4219 2406 4219 
Q 1781 4219 1451 3797 
Q 1122 3375 1075 2522 
Q 1259 2794 1537 2939 
Q 1816 3084 2150 3084 
Q 2853 3084 3261 2657 
Q 3669 2231 3669 1497 
Q 3669 778 3244 343 
Q 2819 -91 2113 -91 
Q 1303 -91 875 529 
Q 447 1150 447 2328 
Q 447 3434 972 4092 
Q 1497 4750 2381 4750 
Q 2619 4750 2861 4703 
Q 3103 4656 3366 4563 
z
" transform="scale(0.015625)"/>
       </defs>
       <use xlink:href="#DejaVuSans-36"/>
       <use xlink:href="#DejaVuSans-30" x="63.623047"/>
      </g>
     </g>
    </g>
    <g id="xtick_4">
     <g id="line2d_7">
      <path d="M 291.7384 299.025375 
L 291.7384 25.965375 
" clip-path="url(#p22d04292e3)" style="fill: none; stroke-dasharray: 1.85,0.8; stroke-dashoffset: 0; stroke: #b2b2b2; stroke-width: 0.5"/>
     </g>
     <g id="line2d_8"/>
     <g id="text_4">
      <!-- 80 -->
      <g transform="translate(282.8309 313.163187)scale(0.14 -0.14)">
       <defs>
        <path id="DejaVuSans-38" d="M 2034 2216 
Q 1584 2216 1326 1975 
Q 1069 1734 1069 1313 
Q 1069 891 1326 650 
Q 1584 409 2034 409 
Q 2484 409 2743 651 
Q 3003 894 3003 1313 
Q 3003 1734 2745 1975 
Q 2488 2216 2034 2216 
z
M 1403 2484 
Q 997 2584 770 2862 
Q 544 3141 544 3541 
Q 544 4100 942 4425 
Q 1341 4750 2034 4750 
Q 2731 4750 3128 4425 
Q 3525 4100 3525 3541 
Q 3525 3141 3298 2862 
Q 3072 2584 2669 2484 
Q 3125 2378 3379 2068 
Q 3634 1759 3634 1313 
Q 3634 634 3220 271 
Q 2806 -91 2034 -91 
Q 1263 -91 848 271 
Q 434 634 434 1313 
Q 434 1759 690 2068 
Q 947 2378 1403 2484 
z
M 1172 3481 
Q 1172 3119 1398 2916 
Q 1625 2713 2034 2713 
Q 2441 2713 2670 2916 
Q 2900 3119 2900 3481 
Q 2900 3844 2670 4047 
Q 2441 4250 2034 4250 
Q 1625 4250 1398 4047 
Q 1172 3844 1172 3481 
z
" transform="scale(0.015625)"/>
       </defs>
       <use xlink:href="#DejaVuSans-38"/>
       <use xlink:href="#DejaVuSans-30" x="63.623047"/>
      </g>
     </g>
    </g>
    <g id="xtick_5">
     <g id="line2d_9">
      <path d="M 347.444104 299.025375 
L 347.444104 25.965375 
" clip-path="url(#p22d04292e3)" style="fill: none; stroke-dasharray: 1.85,0.8; stroke-dashoffset: 0; stroke: #b2b2b2; stroke-width: 0.5"/>
     </g>
     <g id="line2d_10"/>
     <g id="text_5">
      <!-- 100 -->
      <g transform="translate(334.082854 313.163187)scale(0.14 -0.14)">
       <defs>
        <path id="DejaVuSans-31" d="M 794 531 
L 1825 531 
L 1825 4091 
L 703 3866 
L 703 4441 
L 1819 4666 
L 2450 4666 
L 2450 531 
L 3481 531 
L 3481 0 
L 794 0 
L 794 531 
z
" transform="scale(0.015625)"/>
       </defs>
       <use xlink:href="#DejaVuSans-31"/>
       <use xlink:href="#DejaVuSans-30" x="63.623047"/>
       <use xlink:href="#DejaVuSans-30" x="127.246094"/>
      </g>
     </g>
    </g>
    <g id="text_6">
     <!-- age -->
     <g transform="translate(206.088538 332.840125)scale(0.168 -0.168)">
      <defs>
       <path id="DejaVuSans-61" d="M 2194 1759 
Q 1497 1759 1228 1600 
Q 959 1441 959 1056 
Q 959 750 1161 570 
Q 1363 391 1709 391 
Q 2188 391 2477 730 
Q 2766 1069 2766 1631 
L 2766 1759 
L 2194 1759 
z
M 3341 1997 
L 3341 0 
L 2766 0 
L 2766 531 
Q 2569 213 2275 61 
Q 1981 -91 1556 -91 
Q 1019 -91 701 211 
Q 384 513 384 1019 
Q 384 1609 779 1909 
Q 1175 2209 1959 2209 
L 2766 2209 
L 2766 2266 
Q 2766 2663 2505 2880 
Q 2244 3097 1772 3097 
Q 1472 3097 1187 3025 
Q 903 2953 641 2809 
L 641 3341 
Q 956 3463 1253 3523 
Q 1550 3584 1831 3584 
Q 2591 3584 2966 3190 
Q 3341 2797 3341 1997 
z
" transform="scale(0.015625)"/>
       <path id="DejaVuSans-67" d="M 2906 1791 
Q 2906 2416 2648 2759 
Q 2391 3103 1925 3103 
Q 1463 3103 1205 2759 
Q 947 2416 947 1791 
Q 947 1169 1205 825 
Q 1463 481 1925 481 
Q 2391 481 2648 825 
Q 2906 1169 2906 1791 
z
M 3481 434 
Q 3481 -459 3084 -895 
Q 2688 -1331 1869 -1331 
Q 1566 -1331 1297 -1286 
Q 1028 -1241 775 -1147 
L 775 -588 
Q 1028 -725 1275 -790 
Q 1522 -856 1778 -856 
Q 2344 -856 2625 -561 
Q 2906 -266 2906 331 
L 2906 616 
Q 2728 306 2450 153 
Q 2172 0 1784 0 
Q 1141 0 747 490 
Q 353 981 353 1791 
Q 353 2603 747 3093 
Q 1141 3584 1784 3584 
Q 2172 3584 2450 3431 
Q 2728 3278 2906 2969 
L 2906 3500 
L 3481 3500 
L 3481 434 
z
" transform="scale(0.015625)"/>
       <path id="DejaVuSans-65" d="M 3597 1894 
L 3597 1613 
L 953 1613 
Q 991 1019 1311 708 
Q 1631 397 2203 397 
Q 2534 397 2845 478 
Q 3156 559 3463 722 
L 3463 178 
Q 3153 47 2828 -22 
Q 2503 -91 2169 -91 
Q 1331 -91 842 396 
Q 353 884 353 1716 
Q 353 2575 817 3079 
Q 1281 3584 2069 3584 
Q 2775 3584 3186 3129 
Q 3597 2675 3597 1894 
z
M 3022 2063 
Q 3016 2534 2758 2815 
Q 2500 3097 2075 3097 
Q 1594 3097 1305 2825 
Q 1016 2553 972 2059 
L 3022 2063 
z
" transform="scale(0.015625)"/>
      </defs>
      <use xlink:href="#DejaVuSans-61"/>
      <use xlink:href="#DejaVuSans-67" x="61.279297"/>
      <use xlink:href="#DejaVuSans-65" x="124.755859"/>
     </g>
    </g>
   </g>
   <g id="matplotlib.axis_2">
    <g id="ytick_1">
     <g id="line2d_11">
      <path d="M 71.038625 299.025375 
L 372.436325 299.025375 
" clip-path="url(#p22d04292e3)" style="fill: none; stroke-dasharray: 1.85,0.8; stroke-dashoffset: 0; stroke: #b2b2b2; stroke-width: 0.5"/>
     </g>
     <g id="line2d_12"/>
     <g id="text_7">
      <!-- 0.000 -->
      <g transform="translate(27.45925 304.344281)scale(0.14 -0.14)">
       <defs>
        <path id="DejaVuSans-2e" d="M 684 794 
L 1344 794 
L 1344 0 
L 684 0 
L 684 794 
z
" transform="scale(0.015625)"/>
       </defs>
       <use xlink:href="#DejaVuSans-30"/>
       <use xlink:href="#DejaVuSans-2e" x="63.623047"/>
       <use xlink:href="#DejaVuSans-30" x="95.410156"/>
       <use xlink:href="#DejaVuSans-30" x="159.033203"/>
       <use xlink:href="#DejaVuSans-30" x="222.65625"/>
      </g>
     </g>
    </g>
    <g id="ytick_2">
     <g id="line2d_13">
      <path d="M 71.038625 253.403426 
L 372.436325 253.403426 
" clip-path="url(#p22d04292e3)" style="fill: none; stroke-dasharray: 1.85,0.8; stroke-dashoffset: 0; stroke: #b2b2b2; stroke-width: 0.5"/>
     </g>
     <g id="line2d_14"/>
     <g id="text_8">
      <!-- 0.001 -->
      <g transform="translate(27.45925 258.722332)scale(0.14 -0.14)">
       <use xlink:href="#DejaVuSans-30"/>
       <use xlink:href="#DejaVuSans-2e" x="63.623047"/>
       <use xlink:href="#DejaVuSans-30" x="95.410156"/>
       <use xlink:href="#DejaVuSans-30" x="159.033203"/>
       <use xlink:href="#DejaVuSans-31" x="222.65625"/>
      </g>
     </g>
    </g>
    <g id="ytick_3">
     <g id="line2d_15">
      <path d="M 71.038625 207.781476 
L 372.436325 207.781476 
" clip-path="url(#p22d04292e3)" style="fill: none; stroke-dasharray: 1.85,0.8; stroke-dashoffset: 0; stroke: #b2b2b2; stroke-width: 0.5"/>
     </g>
     <g id="line2d_16"/>
     <g id="text_9">
      <!-- 0.002 -->
      <g transform="translate(27.45925 213.100382)scale(0.14 -0.14)">
       <use xlink:href="#DejaVuSans-30"/>
       <use xlink:href="#DejaVuSans-2e" x="63.623047"/>
       <use xlink:href="#DejaVuSans-30" x="95.410156"/>
       <use xlink:href="#DejaVuSans-30" x="159.033203"/>
       <use xlink:href="#DejaVuSans-32" x="222.65625"/>
      </g>
     </g>
    </g>
    <g id="ytick_4">
     <g id="line2d_17">
      <path d="M 71.038625 162.159527 
L 372.436325 162.159527 
" clip-path="url(#p22d04292e3)" style="fill: none; stroke-dasharray: 1.85,0.8; stroke-dashoffset: 0; stroke: #b2b2b2; stroke-width: 0.5"/>
     </g>
     <g id="line2d_18"/>
     <g id="text_10">
      <!-- 0.003 -->
      <g transform="translate(27.45925 167.478433)scale(0.14 -0.14)">
       <defs>
        <path id="DejaVuSans-33" d="M 2597 2516 
Q 3050 2419 3304 2112 
Q 3559 1806 3559 1356 
Q 3559 666 3084 287 
Q 2609 -91 1734 -91 
Q 1441 -91 1130 -33 
Q 819 25 488 141 
L 488 750 
Q 750 597 1062 519 
Q 1375 441 1716 441 
Q 2309 441 2620 675 
Q 2931 909 2931 1356 
Q 2931 1769 2642 2001 
Q 2353 2234 1838 2234 
L 1294 2234 
L 1294 2753 
L 1863 2753 
Q 2328 2753 2575 2939 
Q 2822 3125 2822 3475 
Q 2822 3834 2567 4026 
Q 2313 4219 1838 4219 
Q 1578 4219 1281 4162 
Q 984 4106 628 3988 
L 628 4550 
Q 988 4650 1302 4700 
Q 1616 4750 1894 4750 
Q 2613 4750 3031 4423 
Q 3450 4097 3450 3541 
Q 3450 3153 3228 2886 
Q 3006 2619 2597 2516 
z
" transform="scale(0.015625)"/>
       </defs>
       <use xlink:href="#DejaVuSans-30"/>
       <use xlink:href="#DejaVuSans-2e" x="63.623047"/>
       <use xlink:href="#DejaVuSans-30" x="95.410156"/>
       <use xlink:href="#DejaVuSans-30" x="159.033203"/>
       <use xlink:href="#DejaVuSans-33" x="222.65625"/>
      </g>
     </g>
    </g>
    <g id="ytick_5">
     <g id="line2d_19">
      <path d="M 71.038625 116.537577 
L 372.436325 116.537577 
" clip-path="url(#p22d04292e3)" style="fill: none; stroke-dasharray: 1.85,0.8; stroke-dashoffset: 0; stroke: #b2b2b2; stroke-width: 0.5"/>
     </g>
     <g id="line2d_20"/>
     <g id="text_11">
      <!-- 0.004 -->
      <g transform="translate(27.45925 121.856483)scale(0.14 -0.14)">
       <use xlink:href="#DejaVuSans-30"/>
       <use xlink:href="#DejaVuSans-2e" x="63.623047"/>
       <use xlink:href="#DejaVuSans-30" x="95.410156"/>
       <use xlink:href="#DejaVuSans-30" x="159.033203"/>
       <use xlink:href="#DejaVuSans-34" x="222.65625"/>
      </g>
     </g>
    </g>
    <g id="ytick_6">
     <g id="line2d_21">
      <path d="M 71.038625 70.915628 
L 372.436325 70.915628 
" clip-path="url(#p22d04292e3)" style="fill: none; stroke-dasharray: 1.85,0.8; stroke-dashoffset: 0; stroke: #b2b2b2; stroke-width: 0.5"/>
     </g>
     <g id="line2d_22"/>
     <g id="text_12">
      <!-- 0.005 -->
      <g transform="translate(27.45925 76.234534)scale(0.14 -0.14)">
       <defs>
        <path id="DejaVuSans-35" d="M 691 4666 
L 3169 4666 
L 3169 4134 
L 1269 4134 
L 1269 2991 
Q 1406 3038 1543 3061 
Q 1681 3084 1819 3084 
Q 2600 3084 3056 2656 
Q 3513 2228 3513 1497 
Q 3513 744 3044 326 
Q 2575 -91 1722 -91 
Q 1428 -91 1123 -41 
Q 819 9 494 109 
L 494 744 
Q 775 591 1075 516 
Q 1375 441 1709 441 
Q 2250 441 2565 725 
Q 2881 1009 2881 1497 
Q 2881 1984 2565 2268 
Q 2250 2553 1709 2553 
Q 1456 2553 1204 2497 
Q 953 2441 691 2322 
L 691 4666 
z
" transform="scale(0.015625)"/>
       </defs>
       <use xlink:href="#DejaVuSans-30"/>
       <use xlink:href="#DejaVuSans-2e" x="63.623047"/>
       <use xlink:href="#DejaVuSans-30" x="95.410156"/>
       <use xlink:href="#DejaVuSans-30" x="159.033203"/>
       <use xlink:href="#DejaVuSans-35" x="222.65625"/>
      </g>
     </g>
    </g>
    <g id="text_13">
     <!-- Density -->
     <g transform="translate(19.965375 194.429812)rotate(-90)scale(0.168 -0.168)">
      <defs>
       <path id="DejaVuSans-44" d="M 1259 4147 
L 1259 519 
L 2022 519 
Q 2988 519 3436 956 
Q 3884 1394 3884 2338 
Q 3884 3275 3436 3711 
Q 2988 4147 2022 4147 
L 1259 4147 
z
M 628 4666 
L 1925 4666 
Q 3281 4666 3915 4102 
Q 4550 3538 4550 2338 
Q 4550 1131 3912 565 
Q 3275 0 1925 0 
L 628 0 
L 628 4666 
z
" transform="scale(0.015625)"/>
       <path id="DejaVuSans-6e" d="M 3513 2113 
L 3513 0 
L 2938 0 
L 2938 2094 
Q 2938 2591 2744 2837 
Q 2550 3084 2163 3084 
Q 1697 3084 1428 2787 
Q 1159 2491 1159 1978 
L 1159 0 
L 581 0 
L 581 3500 
L 1159 3500 
L 1159 2956 
Q 1366 3272 1645 3428 
Q 1925 3584 2291 3584 
Q 2894 3584 3203 3211 
Q 3513 2838 3513 2113 
z
" transform="scale(0.015625)"/>
       <path id="DejaVuSans-73" d="M 2834 3397 
L 2834 2853 
Q 2591 2978 2328 3040 
Q 2066 3103 1784 3103 
Q 1356 3103 1142 2972 
Q 928 2841 928 2578 
Q 928 2378 1081 2264 
Q 1234 2150 1697 2047 
L 1894 2003 
Q 2506 1872 2764 1633 
Q 3022 1394 3022 966 
Q 3022 478 2636 193 
Q 2250 -91 1575 -91 
Q 1294 -91 989 -36 
Q 684 19 347 128 
L 347 722 
Q 666 556 975 473 
Q 1284 391 1588 391 
Q 1994 391 2212 530 
Q 2431 669 2431 922 
Q 2431 1156 2273 1281 
Q 2116 1406 1581 1522 
L 1381 1569 
Q 847 1681 609 1914 
Q 372 2147 372 2553 
Q 372 3047 722 3315 
Q 1072 3584 1716 3584 
Q 2034 3584 2315 3537 
Q 2597 3491 2834 3397 
z
" transform="scale(0.015625)"/>
       <path id="DejaVuSans-69" d="M 603 3500 
L 1178 3500 
L 1178 0 
L 603 0 
L 603 3500 
z
M 603 4863 
L 1178 4863 
L 1178 4134 
L 603 4134 
L 603 4863 
z
" transform="scale(0.015625)"/>
       <path id="DejaVuSans-74" d="M 1172 4494 
L 1172 3500 
L 2356 3500 
L 2356 3053 
L 1172 3053 
L 1172 1153 
Q 1172 725 1289 603 
Q 1406 481 1766 481 
L 2356 481 
L 2356 0 
L 1766 0 
Q 1100 0 847 248 
Q 594 497 594 1153 
L 594 3053 
L 172 3053 
L 172 3500 
L 594 3500 
L 594 4494 
L 1172 4494 
z
" transform="scale(0.015625)"/>
       <path id="DejaVuSans-79" d="M 2059 -325 
Q 1816 -950 1584 -1140 
Q 1353 -1331 966 -1331 
L 506 -1331 
L 506 -850 
L 844 -850 
Q 1081 -850 1212 -737 
Q 1344 -625 1503 -206 
L 1606 56 
L 191 3500 
L 800 3500 
L 1894 763 
L 2988 3500 
L 3597 3500 
L 2059 -325 
z
" transform="scale(0.015625)"/>
      </defs>
      <use xlink:href="#DejaVuSans-44"/>
      <use xlink:href="#DejaVuSans-65" x="77.001953"/>
      <use xlink:href="#DejaVuSans-6e" x="138.525391"/>
      <use xlink:href="#DejaVuSans-73" x="201.904297"/>
      <use xlink:href="#DejaVuSans-69" x="254.003906"/>
      <use xlink:href="#DejaVuSans-74" x="281.787109"/>
      <use xlink:href="#DejaVuSans-79" x="320.996094"/>
     </g>
    </g>
   </g>
   <g id="line2d_23">
    <path d="M 89.036908 299.001403 
L 93.04905 298.862993 
L 95.723811 298.544936 
L 97.061191 298.243297 
L 98.398572 297.796854 
L 99.735953 297.161357 
L 101.073333 296.290601 
L 102.410714 295.140937 
L 103.748094 293.676383 
L 105.085475 291.87335 
L 106.422855 289.723957 
L 107.760236 287.237182 
L 109.097616 284.437767 
L 111.772377 278.061961 
L 115.784519 267.371725 
L 118.45928 260.258148 
L 121.134041 253.79351 
L 123.808802 248.319041 
L 126.483563 243.759237 
L 131.833085 235.421156 
L 134.507846 230.70884 
L 137.182607 225.422925 
L 141.194749 216.704012 
L 145.20689 207.991951 
L 146.544271 205.3714 
L 147.881651 203.005215 
L 149.219032 200.950445 
L 150.556412 199.249217 
L 151.893793 197.926035 
L 153.231173 196.987879 
L 154.568554 196.42657 
L 155.905934 196.22252 
L 157.243315 196.34888 
L 158.580695 196.775281 
L 159.918076 197.470576 
L 161.255456 198.404171 
L 162.592837 199.545807 
L 165.267598 202.323307 
L 171.9545 210.119492 
L 174.629261 212.609791 
L 177.304022 214.546485 
L 183.990925 218.860957 
L 186.665686 220.957999 
L 194.689969 227.740411 
L 198.702111 231.430456 
L 202.714252 235.518004 
L 208.063774 240.942623 
L 210.738535 243.318092 
L 212.075916 244.343107 
L 213.413296 245.220973 
L 214.750677 245.923412 
L 216.088057 246.428628 
L 217.425438 246.72632 
L 218.762819 246.82117 
L 220.100199 246.733801 
L 222.77496 246.161138 
L 226.787102 245.010686 
L 229.461863 244.525678 
L 230.799243 244.443509 
L 232.136624 244.482935 
L 233.474004 244.647256 
L 234.811385 244.935196 
L 237.486146 245.86061 
L 240.160907 247.199215 
L 242.835668 248.88789 
L 245.510429 250.881923 
L 248.18519 253.140511 
L 252.197331 256.859555 
L 260.221615 264.612157 
L 262.896376 267.400493 
L 265.571137 270.454771 
L 268.245898 273.828256 
L 276.270181 284.466027 
L 277.607561 285.871193 
L 278.944942 287.051642 
L 280.282322 287.988785 
L 281.619703 288.68402 
L 282.957083 289.158219 
L 284.294464 289.448547 
L 286.969225 289.676534 
L 290.981366 289.906672 
L 293.656127 290.417875 
L 296.330888 291.321543 
L 299.00565 292.519053 
L 304.355172 295.061089 
L 307.029933 296.107984 
L 309.704694 296.924717 
L 312.379455 297.525469 
L 316.391596 298.117019 
L 320.403738 298.47228 
L 325.75326 298.735593 
L 335.114923 298.913529 
L 352.50087 299.023781 
L 355.175631 299.024901 
L 355.175631 299.024901 
" clip-path="url(#p22d04292e3)" style="fill: none; stroke: #7a68a6; stroke-width: 2"/>
   </g>
   <g id="line2d_24">
    <path d="M 88.273439 299.020665 
L 93.597668 298.918544 
L 96.259782 298.638847 
L 97.590839 298.337678 
L 98.921897 297.854104 
L 100.252954 297.114113 
L 101.584011 296.034365 
L 102.915068 294.530932 
L 104.246125 292.530993 
L 105.577182 289.984916 
L 106.90824 286.875116 
L 108.239297 283.218365 
L 109.570354 279.06011 
L 112.232468 269.491576 
L 114.894583 258.669049 
L 121.549868 230.301387 
L 122.880926 225.468553 
L 124.211983 221.238072 
L 125.54304 217.654689 
L 126.874097 214.686764 
L 128.205154 212.234935 
L 130.867269 208.278934 
L 133.529383 204.529624 
L 134.86044 202.40621 
L 136.191497 199.999164 
L 137.522554 197.253631 
L 138.853612 194.136518 
L 140.184669 190.632007 
L 141.515726 186.737679 
L 144.17784 177.823719 
L 146.839955 167.606272 
L 153.49524 140.767823 
L 154.826298 136.301662 
L 156.157355 132.47216 
L 157.488412 129.359524 
L 158.819469 126.991071 
L 160.150526 125.34517 
L 161.481583 124.364942 
L 162.81264 123.976776 
L 164.143698 124.106926 
L 165.474755 124.690504 
L 166.805812 125.670682 
L 168.136869 126.990405 
L 169.467926 128.582099 
L 176.123212 137.341049 
L 177.454269 138.628871 
L 178.785326 139.655703 
L 180.116384 140.439763 
L 181.447441 141.028534 
L 185.440612 142.401714 
L 186.771669 143.02885 
L 188.102727 143.872232 
L 189.433784 144.973091 
L 190.764841 146.333344 
L 193.426955 149.639687 
L 197.420127 154.79416 
L 200.082241 157.633814 
L 202.744355 160.029835 
L 205.40647 162.187891 
L 206.737527 163.134817 
L 208.068584 163.900053 
L 209.399641 164.385562 
L 210.730698 164.493993 
L 212.061756 164.14752 
L 213.392813 163.300205 
L 214.72387 161.941577 
L 216.054927 160.092455 
L 217.385984 157.796322 
L 218.717041 155.110077 
L 221.379156 148.823544 
L 228.034442 131.385673 
L 229.365499 128.445355 
L 230.696556 125.990683 
L 232.027613 124.130046 
L 233.35867 122.928173 
L 234.689727 122.39394 
L 236.020785 122.479618 
L 237.351842 123.092468 
L 238.682899 124.115862 
L 240.013956 125.434505 
L 242.67607 128.632876 
L 245.338185 132.440201 
L 246.669242 134.637398 
L 248.000299 137.076872 
L 250.662413 142.681436 
L 253.324528 148.985348 
L 255.986642 155.677982 
L 258.648756 162.98756 
L 259.979814 167.100752 
L 261.310871 171.6505 
L 262.641928 176.69976 
L 263.972985 182.267942 
L 266.635099 194.83701 
L 269.297214 208.829953 
L 273.290385 230.356874 
L 274.621442 236.930409 
L 275.9525 242.81811 
L 277.283557 247.808186 
L 278.614614 251.752599 
L 279.945671 254.597583 
L 281.276728 256.397724 
L 282.607785 257.309587 
L 283.938843 257.56682 
L 287.932014 257.123292 
L 289.263071 257.357333 
L 290.594128 258.041222 
L 291.925186 259.236966 
L 293.256243 260.952177 
L 294.5873 263.150358 
L 295.918357 265.760789 
L 298.580471 271.81686 
L 302.573643 281.232449 
L 303.9047 284.031854 
L 305.235757 286.541065 
L 306.566814 288.72901 
L 307.897872 290.591259 
L 309.228929 292.144994 
L 310.559986 293.422231 
L 311.891043 294.462717 
L 313.2221 295.307692 
L 314.553157 295.995249 
L 317.215272 297.019928 
L 319.877386 297.714415 
L 322.5395 298.175364 
L 326.532672 298.559926 
L 331.856901 298.761825 
L 349.160644 299.017761 
L 353.153815 299.024264 
L 353.153815 299.024264 
" clip-path="url(#p22d04292e3)" style="fill: none; stroke: #a60628; stroke-width: 2"/>
   </g>
   <g id="line2d_25">
    <path d="M 84.813316 299.01275 
L 88.700867 298.912969 
L 91.292567 298.668584 
L 93.884268 298.119143 
L 95.180118 297.687152 
L 97.771819 296.470655 
L 100.363519 294.802828 
L 102.95522 292.693511 
L 104.25107 291.435194 
L 105.54692 289.990593 
L 106.84277 288.302744 
L 108.13862 286.302875 
L 109.434471 283.915505 
L 110.730321 281.065465 
L 112.026171 277.687149 
L 113.322021 273.735952 
L 114.617872 269.200939 
L 115.913722 264.116493 
L 118.505422 252.697676 
L 122.392973 234.947788 
L 124.984673 224.593314 
L 126.280524 220.085041 
L 128.872224 212.222586 
L 134.055625 198.147997 
L 135.351475 194.190623 
L 136.647326 189.775556 
L 137.943176 184.783717 
L 139.239026 179.123379 
L 140.534876 172.733173 
L 141.830726 165.580766 
L 143.126577 157.66123 
L 145.718277 139.658528 
L 148.309978 119.447301 
L 152.197528 88.636279 
L 153.493378 79.332996 
L 154.789229 70.926309 
L 156.085079 63.570195 
L 157.380929 57.332406 
L 158.676779 52.196462 
L 159.97263 48.078547 
L 161.26848 44.856531 
L 162.56433 42.405293 
L 163.86018 40.629401 
L 165.156031 39.482863 
L 166.451881 38.96821 
L 167.747731 39.114246 
L 169.043581 39.940893 
L 170.339431 41.425865 
L 171.635282 43.487343 
L 172.931132 45.989036 
L 179.410383 59.666423 
L 182.002084 63.970282 
L 184.593784 67.62231 
L 187.185484 71.193176 
L 189.777185 75.189314 
L 192.368885 79.751507 
L 196.256436 87.330367 
L 202.735687 100.707888 
L 206.623238 108.560449 
L 207.919088 110.842503 
L 209.214938 112.753861 
L 210.510789 114.147957 
L 211.806639 114.89088 
L 213.102489 114.883178 
L 214.398339 114.075115 
L 215.69419 112.473045 
L 216.99004 110.137794 
L 218.28589 107.177408 
L 220.87759 99.980475 
L 224.765141 88.468726 
L 227.356842 81.794409 
L 228.652692 78.950012 
L 229.948542 76.480608 
L 231.244392 74.437113 
L 232.540243 72.90252 
L 233.836093 71.997024 
L 235.131943 71.869566 
L 236.427793 72.674445 
L 237.723643 74.53559 
L 239.019494 77.507203 
L 240.315344 81.544949 
L 241.611194 86.502091 
L 244.202895 98.26361 
L 251.977996 136.224564 
L 254.569696 147.673655 
L 257.161397 157.929337 
L 261.048948 172.884258 
L 262.344798 178.462239 
L 263.640648 184.572645 
L 266.232348 198.527486 
L 268.824049 214.360868 
L 272.7116 238.64677 
L 274.00745 245.900406 
L 275.3033 252.288645 
L 276.59915 257.592208 
L 277.895001 261.671925 
L 279.190851 264.496771 
L 280.486701 266.156212 
L 281.782551 266.851394 
L 283.078401 266.864651 
L 286.965952 265.855317 
L 288.261802 265.948416 
L 289.557653 266.452018 
L 290.853503 267.378659 
L 292.149353 268.701073 
L 293.445203 270.371457 
L 294.741054 272.330708 
L 297.332754 276.828119 
L 301.220305 283.752176 
L 302.516155 285.799598 
L 303.812005 287.638583 
L 305.107855 289.255215 
L 306.403706 290.653431 
L 307.699556 291.849743 
L 308.995406 292.868058 
L 311.587107 294.476452 
L 314.178807 295.665927 
L 316.770507 296.561268 
L 319.362208 297.244754 
L 323.249759 298.009408 
L 327.137309 298.541964 
L 331.02486 298.849535 
L 336.208261 298.998866 
L 342.687512 299.024573 
L 342.687512 299.024573 
" clip-path="url(#p22d04292e3)" style="fill: none; stroke: #348abd; stroke-width: 2"/>
   </g>
   <g id="patch_3">
    <path d="M 71.038625 299.025375 
L 71.038625 25.965375 
" style="fill: none; stroke: #bcbcbc; stroke-width: 3; stroke-linejoin: miter; stroke-linecap: square"/>
   </g>
   <g id="patch_4">
    <path d="M 71.038625 299.025375 
L 372.436325 299.025375 
" style="fill: none; stroke: #bcbcbc; stroke-width: 3; stroke-linejoin: miter; stroke-linecap: square"/>
   </g>
   <g id="text_14">
    <!-- treatment_flg = 0.0 -->
    <g transform="translate(139.043413 19.965375)scale(0.168 -0.168)">
     <defs>
      <path id="DejaVuSans-72" d="M 2631 2963 
Q 2534 3019 2420 3045 
Q 2306 3072 2169 3072 
Q 1681 3072 1420 2755 
Q 1159 2438 1159 1844 
L 1159 0 
L 581 0 
L 581 3500 
L 1159 3500 
L 1159 2956 
Q 1341 3275 1631 3429 
Q 1922 3584 2338 3584 
Q 2397 3584 2469 3576 
Q 2541 3569 2628 3553 
L 2631 2963 
z
" transform="scale(0.015625)"/>
      <path id="DejaVuSans-6d" d="M 3328 2828 
Q 3544 3216 3844 3400 
Q 4144 3584 4550 3584 
Q 5097 3584 5394 3201 
Q 5691 2819 5691 2113 
L 5691 0 
L 5113 0 
L 5113 2094 
Q 5113 2597 4934 2840 
Q 4756 3084 4391 3084 
Q 3944 3084 3684 2787 
Q 3425 2491 3425 1978 
L 3425 0 
L 2847 0 
L 2847 2094 
Q 2847 2600 2669 2842 
Q 2491 3084 2119 3084 
Q 1678 3084 1418 2786 
Q 1159 2488 1159 1978 
L 1159 0 
L 581 0 
L 581 3500 
L 1159 3500 
L 1159 2956 
Q 1356 3278 1631 3431 
Q 1906 3584 2284 3584 
Q 2666 3584 2933 3390 
Q 3200 3197 3328 2828 
z
" transform="scale(0.015625)"/>
      <path id="DejaVuSans-5f" d="M 3263 -1063 
L 3263 -1509 
L -63 -1509 
L -63 -1063 
L 3263 -1063 
z
" transform="scale(0.015625)"/>
      <path id="DejaVuSans-66" d="M 2375 4863 
L 2375 4384 
L 1825 4384 
Q 1516 4384 1395 4259 
Q 1275 4134 1275 3809 
L 1275 3500 
L 2222 3500 
L 2222 3053 
L 1275 3053 
L 1275 0 
L 697 0 
L 697 3053 
L 147 3053 
L 147 3500 
L 697 3500 
L 697 3744 
Q 697 4328 969 4595 
Q 1241 4863 1831 4863 
L 2375 4863 
z
" transform="scale(0.015625)"/>
      <path id="DejaVuSans-6c" d="M 603 4863 
L 1178 4863 
L 1178 0 
L 603 0 
L 603 4863 
z
" transform="scale(0.015625)"/>
      <path id="DejaVuSans-20" transform="scale(0.015625)"/>
      <path id="DejaVuSans-3d" d="M 678 2906 
L 4684 2906 
L 4684 2381 
L 678 2381 
L 678 2906 
z
M 678 1631 
L 4684 1631 
L 4684 1100 
L 678 1100 
L 678 1631 
z
" transform="scale(0.015625)"/>
     </defs>
     <use xlink:href="#DejaVuSans-74"/>
     <use xlink:href="#DejaVuSans-72" x="39.208984"/>
     <use xlink:href="#DejaVuSans-65" x="78.072266"/>
     <use xlink:href="#DejaVuSans-61" x="139.595703"/>
     <use xlink:href="#DejaVuSans-74" x="200.875"/>
     <use xlink:href="#DejaVuSans-6d" x="240.083984"/>
     <use xlink:href="#DejaVuSans-65" x="337.496094"/>
     <use xlink:href="#DejaVuSans-6e" x="399.019531"/>
     <use xlink:href="#DejaVuSans-74" x="462.398438"/>
     <use xlink:href="#DejaVuSans-5f" x="501.607422"/>
     <use xlink:href="#DejaVuSans-66" x="551.607422"/>
     <use xlink:href="#DejaVuSans-6c" x="586.8125"/>
     <use xlink:href="#DejaVuSans-67" x="614.595703"/>
     <use xlink:href="#DejaVuSans-20" x="678.072266"/>
     <use xlink:href="#DejaVuSans-3d" x="709.859375"/>
     <use xlink:href="#DejaVuSans-20" x="793.648438"/>
     <use xlink:href="#DejaVuSans-30" x="825.435547"/>
     <use xlink:href="#DejaVuSans-2e" x="889.058594"/>
     <use xlink:href="#DejaVuSans-30" x="920.845703"/>
    </g>
   </g>
  </g>
  <g id="axes_2">
   <g id="patch_5">
    <path d="M 387.556325 299.025375 
L 688.954025 299.025375 
L 688.954025 25.965375 
L 387.556325 25.965375 
z
" style="fill: #eeeeee"/>
   </g>
   <g id="matplotlib.axis_3">
    <g id="xtick_6">
     <g id="line2d_26">
      <path d="M 441.138988 299.025375 
L 441.138988 25.965375 
" clip-path="url(#pcd60605935)" style="fill: none; stroke-dasharray: 1.85,0.8; stroke-dashoffset: 0; stroke: #b2b2b2; stroke-width: 0.5"/>
     </g>
     <g id="line2d_27"/>
     <g id="text_15">
      <!-- 20 -->
      <g transform="translate(432.231488 313.163187)scale(0.14 -0.14)">
       <use xlink:href="#DejaVuSans-32"/>
       <use xlink:href="#DejaVuSans-30" x="63.623047"/>
      </g>
     </g>
    </g>
    <g id="xtick_7">
     <g id="line2d_28">
      <path d="M 496.844692 299.025375 
L 496.844692 25.965375 
" clip-path="url(#pcd60605935)" style="fill: none; stroke-dasharray: 1.85,0.8; stroke-dashoffset: 0; stroke: #b2b2b2; stroke-width: 0.5"/>
     </g>
     <g id="line2d_29"/>
     <g id="text_16">
      <!-- 40 -->
      <g transform="translate(487.937192 313.163187)scale(0.14 -0.14)">
       <use xlink:href="#DejaVuSans-34"/>
       <use xlink:href="#DejaVuSans-30" x="63.623047"/>
      </g>
     </g>
    </g>
    <g id="xtick_8">
     <g id="line2d_30">
      <path d="M 552.550396 299.025375 
L 552.550396 25.965375 
" clip-path="url(#pcd60605935)" style="fill: none; stroke-dasharray: 1.85,0.8; stroke-dashoffset: 0; stroke: #b2b2b2; stroke-width: 0.5"/>
     </g>
     <g id="line2d_31"/>
     <g id="text_17">
      <!-- 60 -->
      <g transform="translate(543.642896 313.163187)scale(0.14 -0.14)">
       <use xlink:href="#DejaVuSans-36"/>
       <use xlink:href="#DejaVuSans-30" x="63.623047"/>
      </g>
     </g>
    </g>
    <g id="xtick_9">
     <g id="line2d_32">
      <path d="M 608.2561 299.025375 
L 608.2561 25.965375 
" clip-path="url(#pcd60605935)" style="fill: none; stroke-dasharray: 1.85,0.8; stroke-dashoffset: 0; stroke: #b2b2b2; stroke-width: 0.5"/>
     </g>
     <g id="line2d_33"/>
     <g id="text_18">
      <!-- 80 -->
      <g transform="translate(599.3486 313.163187)scale(0.14 -0.14)">
       <use xlink:href="#DejaVuSans-38"/>
       <use xlink:href="#DejaVuSans-30" x="63.623047"/>
      </g>
     </g>
    </g>
    <g id="xtick_10">
     <g id="line2d_34">
      <path d="M 663.961804 299.025375 
L 663.961804 25.965375 
" clip-path="url(#pcd60605935)" style="fill: none; stroke-dasharray: 1.85,0.8; stroke-dashoffset: 0; stroke: #b2b2b2; stroke-width: 0.5"/>
     </g>
     <g id="line2d_35"/>
     <g id="text_19">
      <!-- 100 -->
      <g transform="translate(650.600554 313.163187)scale(0.14 -0.14)">
       <use xlink:href="#DejaVuSans-31"/>
       <use xlink:href="#DejaVuSans-30" x="63.623047"/>
       <use xlink:href="#DejaVuSans-30" x="127.246094"/>
      </g>
     </g>
    </g>
    <g id="text_20">
     <!-- age -->
     <g transform="translate(522.606238 332.840125)scale(0.168 -0.168)">
      <use xlink:href="#DejaVuSans-61"/>
      <use xlink:href="#DejaVuSans-67" x="61.279297"/>
      <use xlink:href="#DejaVuSans-65" x="124.755859"/>
     </g>
    </g>
   </g>
   <g id="matplotlib.axis_4">
    <g id="ytick_7">
     <g id="line2d_36">
      <path d="M 387.556325 299.025375 
L 688.954025 299.025375 
" clip-path="url(#pcd60605935)" style="fill: none; stroke-dasharray: 1.85,0.8; stroke-dashoffset: 0; stroke: #b2b2b2; stroke-width: 0.5"/>
     </g>
     <g id="line2d_37"/>
    </g>
    <g id="ytick_8">
     <g id="line2d_38">
      <path d="M 387.556325 253.403426 
L 688.954025 253.403426 
" clip-path="url(#pcd60605935)" style="fill: none; stroke-dasharray: 1.85,0.8; stroke-dashoffset: 0; stroke: #b2b2b2; stroke-width: 0.5"/>
     </g>
     <g id="line2d_39"/>
    </g>
    <g id="ytick_9">
     <g id="line2d_40">
      <path d="M 387.556325 207.781476 
L 688.954025 207.781476 
" clip-path="url(#pcd60605935)" style="fill: none; stroke-dasharray: 1.85,0.8; stroke-dashoffset: 0; stroke: #b2b2b2; stroke-width: 0.5"/>
     </g>
     <g id="line2d_41"/>
    </g>
    <g id="ytick_10">
     <g id="line2d_42">
      <path d="M 387.556325 162.159527 
L 688.954025 162.159527 
" clip-path="url(#pcd60605935)" style="fill: none; stroke-dasharray: 1.85,0.8; stroke-dashoffset: 0; stroke: #b2b2b2; stroke-width: 0.5"/>
     </g>
     <g id="line2d_43"/>
    </g>
    <g id="ytick_11">
     <g id="line2d_44">
      <path d="M 387.556325 116.537577 
L 688.954025 116.537577 
" clip-path="url(#pcd60605935)" style="fill: none; stroke-dasharray: 1.85,0.8; stroke-dashoffset: 0; stroke: #b2b2b2; stroke-width: 0.5"/>
     </g>
     <g id="line2d_45"/>
    </g>
    <g id="ytick_12">
     <g id="line2d_46">
      <path d="M 387.556325 70.915628 
L 688.954025 70.915628 
" clip-path="url(#pcd60605935)" style="fill: none; stroke-dasharray: 1.85,0.8; stroke-dashoffset: 0; stroke: #b2b2b2; stroke-width: 0.5"/>
     </g>
     <g id="line2d_47"/>
    </g>
   </g>
   <g id="line2d_48">
    <path d="M 405.52255 298.999956 
L 409.409691 298.859704 
L 412.001118 298.543648 
L 413.296831 298.246526 
L 414.592545 297.809078 
L 415.888258 297.189362 
L 417.183972 296.344143 
L 418.479685 295.233493 
L 419.775399 293.825951 
L 421.071112 292.103197 
L 422.366826 290.063054 
L 423.662539 287.719921 
L 426.253966 282.248934 
L 428.845393 276.006325 
L 436.619674 256.14991 
L 439.211101 250.442734 
L 441.802528 245.64032 
L 444.393955 241.568318 
L 449.576809 233.929447 
L 452.168236 229.657928 
L 454.759663 224.848635 
L 457.35109 219.508573 
L 462.533944 208.45663 
L 463.829657 206.017286 
L 465.125371 203.854617 
L 466.421084 202.023827 
L 467.716798 200.562244 
L 469.012511 199.488427 
L 470.308225 198.80298 
L 471.603938 198.490243 
L 472.899652 198.520362 
L 474.195365 198.851723 
L 475.491079 199.433993 
L 476.786792 200.211899 
L 479.378219 202.134127 
L 484.561073 206.223416 
L 487.1525 207.982359 
L 493.631067 211.958385 
L 494.926781 212.993255 
L 496.222494 214.206065 
L 497.518208 215.607299 
L 500.109635 218.878211 
L 503.996775 224.061714 
L 506.588202 226.984818 
L 509.179629 229.288291 
L 513.06677 232.106819 
L 516.95391 235.017843 
L 522.136764 239.123195 
L 524.728191 240.903164 
L 527.319618 242.354171 
L 529.911045 243.451035 
L 532.502472 244.173786 
L 535.093899 244.494957 
L 537.685326 244.430651 
L 541.572466 243.894 
L 544.163893 243.580453 
L 546.75532 243.592606 
L 548.051034 243.775058 
L 549.346747 244.086334 
L 551.938174 245.070148 
L 554.529601 246.418756 
L 559.712455 249.546413 
L 563.599595 252.025381 
L 566.191022 253.874095 
L 568.782449 256.010836 
L 571.373876 258.485041 
L 573.965303 261.259494 
L 577.852444 265.782088 
L 581.739584 270.578018 
L 585.626725 275.712331 
L 590.809579 282.622558 
L 592.105292 284.132075 
L 593.401005 285.468887 
L 594.696719 286.602665 
L 595.992432 287.518244 
L 597.288146 288.217739 
L 598.583859 288.719966 
L 599.879573 289.057395 
L 602.471 289.406713 
L 606.35814 289.743092 
L 608.949567 290.187637 
L 611.540994 290.924741 
L 614.132421 291.943256 
L 618.019562 293.80027 
L 621.906702 295.629487 
L 624.498129 296.618016 
L 627.089556 297.351898 
L 629.680983 297.847518 
L 633.568123 298.281 
L 640.046691 298.664232 
L 647.820972 298.920626 
L 658.18668 299.019716 
L 663.369534 299.02479 
L 663.369534 299.02479 
" clip-path="url(#pcd60605935)" style="fill: none; stroke: #7a68a6; stroke-width: 2"/>
   </g>
   <g id="line2d_49">
    <path d="M 401.99381 299.023408 
L 408.859647 298.942789 
L 411.605982 298.73591 
L 412.97915 298.509758 
L 414.352317 298.137687 
L 415.725484 297.549727 
L 417.098652 296.658964 
L 418.471819 295.367174 
L 419.844987 293.575889 
L 421.218154 291.201844 
L 422.591322 288.193511 
L 423.964489 284.543697 
L 425.337656 280.293341 
L 426.710824 275.524219 
L 429.457159 264.860742 
L 437.696163 231.104365 
L 439.069331 226.256534 
L 440.442498 221.871815 
L 441.815666 217.97139 
L 443.188833 214.524879 
L 444.562001 211.459975 
L 447.308335 206.091699 
L 454.174173 193.581304 
L 456.920507 187.925142 
L 459.666842 181.400221 
L 462.413177 173.778013 
L 465.159512 165.070837 
L 470.652182 146.575154 
L 472.025349 142.49792 
L 473.398517 138.934298 
L 474.771684 135.981058 
L 476.144852 133.679697 
L 477.518019 132.016199 
L 478.891186 130.932646 
L 480.264354 130.345155 
L 481.637521 130.160807 
L 483.010689 130.28819 
L 484.383856 130.640834 
L 487.130191 131.702811 
L 491.249693 133.335352 
L 493.996028 134.398398 
L 495.369196 135.055461 
L 496.742363 135.858026 
L 498.11553 136.823955 
L 500.861865 139.18362 
L 510.474037 148.287371 
L 514.59354 152.068686 
L 517.339875 154.955845 
L 520.086209 158.294961 
L 524.205712 163.534612 
L 525.578879 164.924495 
L 526.952047 165.88194 
L 528.325214 166.253538 
L 529.698381 165.915734 
L 531.071549 164.791815 
L 532.444716 162.860904 
L 533.817884 160.15881 
L 535.191051 156.772742 
L 536.564219 152.83254 
L 539.310554 143.959496 
L 542.056888 135.016854 
L 543.430056 130.974794 
L 544.803223 127.419517 
L 546.176391 124.458754 
L 547.549558 122.16061 
L 548.922726 120.553034 
L 550.295893 119.625755 
L 551.66906 119.334404 
L 553.042228 119.607636 
L 554.415395 120.358208 
L 555.788563 121.497728 
L 557.16173 122.95226 
L 558.534898 124.674018 
L 559.908065 126.644489 
L 561.281232 128.867223 
L 562.6544 131.352949 
L 565.400735 137.100128 
L 568.14707 143.668884 
L 572.266572 154.361489 
L 575.012907 162.067465 
L 577.759242 170.748735 
L 579.132409 175.651115 
L 580.505577 181.026508 
L 581.878744 186.929612 
L 583.251911 193.386242 
L 585.998246 207.830886 
L 590.117749 231.083603 
L 591.490916 238.192223 
L 592.864083 244.44713 
L 594.237251 249.588243 
L 595.610418 253.462788 
L 596.983586 256.05517 
L 598.356753 257.491115 
L 599.729921 258.014839 
L 601.103088 257.945408 
L 603.849423 257.363416 
L 605.22259 257.414846 
L 606.595758 257.948327 
L 607.968925 259.053222 
L 609.342093 260.747893 
L 610.71526 262.993388 
L 612.088428 265.706345 
L 614.834762 272.045166 
L 617.581097 278.636216 
L 618.954265 281.681851 
L 620.327432 284.426047 
L 621.7006 286.815009 
L 623.073767 288.834304 
L 624.446934 290.502659 
L 625.820102 291.861727 
L 627.193269 292.964678 
L 628.566437 293.866116 
L 631.312772 295.249958 
L 634.059107 296.283564 
L 636.805441 297.094678 
L 639.551776 297.733101 
L 643.671279 298.413894 
L 647.790781 298.797972 
L 651.910283 298.947301 
L 665.641958 299.005663 
L 675.25413 299.024872 
L 675.25413 299.024872 
" clip-path="url(#pcd60605935)" style="fill: none; stroke: #a60628; stroke-width: 2"/>
   </g>
   <g id="line2d_50">
    <path d="M 401.25622 299.014681 
L 406.386643 298.853122 
L 408.951854 298.531709 
L 411.517065 297.863335 
L 412.79967 297.354205 
L 414.082276 296.710198 
L 415.364881 295.921344 
L 416.647487 294.979126 
L 417.930092 293.875012 
L 419.212698 292.599807 
L 420.495304 291.143966 
L 421.777909 289.497998 
L 423.060515 287.651397 
L 424.34312 285.588826 
L 425.625726 283.283851 
L 426.908331 280.692735 
L 428.190937 277.752546 
L 429.473542 274.387736 
L 430.756148 270.526902 
L 432.038753 266.127132 
L 433.321359 261.199024 
L 435.88657 250.150507 
L 438.451781 238.737028 
L 441.016992 228.512441 
L 442.299598 224.09874 
L 444.864809 216.406852 
L 447.43002 209.118686 
L 448.712625 205.168113 
L 449.995231 200.846742 
L 452.560442 190.972019 
L 455.125653 179.584426 
L 457.690864 166.562518 
L 458.97347 159.225129 
L 461.538681 142.508203 
L 464.103892 123.382605 
L 467.951708 93.706413 
L 470.51692 76.249667 
L 471.799525 68.852573 
L 473.082131 62.527627 
L 474.364736 57.343407 
L 475.647342 53.299797 
L 476.929947 50.325097 
L 478.212553 48.287072 
L 479.495158 47.018695 
L 480.777764 46.352642 
L 482.060369 46.153987 
L 483.342975 46.340412 
L 484.62558 46.883497 
L 485.908186 47.791508 
L 487.190792 49.080608 
L 488.473397 50.745137 
L 489.756003 52.737466 
L 496.16903 63.776266 
L 498.734241 67.197198 
L 502.582058 71.975345 
L 505.147269 75.579171 
L 515.408113 90.897047 
L 516.690719 93.200319 
L 519.25593 98.45926 
L 523.103747 106.73377 
L 524.386352 109.027738 
L 525.668958 110.849429 
L 526.951563 112.097163 
L 528.234169 112.708945 
L 529.516774 112.659631 
L 530.79938 111.952332 
L 532.081985 110.607909 
L 533.364591 108.657501 
L 534.647197 106.142372 
L 535.929802 103.122059 
L 538.495013 95.963983 
L 542.34283 84.746997 
L 543.625435 81.53194 
L 544.908041 78.78141 
L 546.190646 76.578641 
L 547.473252 75.003082 
L 548.755857 74.14091 
L 550.038463 74.07832 
L 551.321069 74.87881 
L 552.603674 76.556 
L 553.88628 79.057117 
L 555.168885 82.267613 
L 556.451491 86.03727 
L 559.016702 94.700368 
L 561.581913 104.400819 
L 564.147124 115.140556 
L 569.277546 138.623696 
L 573.125363 155.4585 
L 578.255785 177.678956 
L 580.820996 189.794568 
L 583.386207 202.89597 
L 585.951418 217.014933 
L 589.799235 238.945115 
L 591.08184 245.727232 
L 592.364446 251.804842 
L 593.647051 256.928921 
L 594.929657 260.928273 
L 596.212262 263.744344 
L 597.494868 265.442387 
L 598.777473 266.196931 
L 600.060079 266.257017 
L 601.342685 265.901833 
L 603.907896 264.973971 
L 605.190501 264.797666 
L 606.473107 264.984903 
L 607.755712 265.602599 
L 609.038318 266.677909 
L 610.320923 268.20346 
L 611.603529 270.139511 
L 612.886134 272.415698 
L 615.451345 277.584018 
L 618.016557 282.794507 
L 619.299162 285.151171 
L 620.581768 287.247977 
L 621.864373 289.054721 
L 623.146979 290.572452 
L 624.429584 291.826576 
L 625.71219 292.856926 
L 626.994795 293.70754 
L 629.560006 295.022736 
L 632.125217 295.997449 
L 634.690429 296.752808 
L 638.538245 297.624024 
L 642.386062 298.282159 
L 646.233878 298.727673 
L 650.081695 298.945823 
L 656.494723 299.022482 
L 656.494723 299.022482 
" clip-path="url(#pcd60605935)" style="fill: none; stroke: #348abd; stroke-width: 2"/>
   </g>
   <g id="patch_6">
    <path d="M 387.556325 299.025375 
L 387.556325 25.965375 
" style="fill: none; stroke: #bcbcbc; stroke-width: 3; stroke-linejoin: miter; stroke-linecap: square"/>
   </g>
   <g id="patch_7">
    <path d="M 387.556325 299.025375 
L 688.954025 299.025375 
" style="fill: none; stroke: #bcbcbc; stroke-width: 3; stroke-linejoin: miter; stroke-linecap: square"/>
   </g>
   <g id="text_21">
    <!-- treatment_flg = 1.0 -->
    <g transform="translate(455.561113 19.965375)scale(0.168 -0.168)">
     <use xlink:href="#DejaVuSans-74"/>
     <use xlink:href="#DejaVuSans-72" x="39.208984"/>
     <use xlink:href="#DejaVuSans-65" x="78.072266"/>
     <use xlink:href="#DejaVuSans-61" x="139.595703"/>
     <use xlink:href="#DejaVuSans-74" x="200.875"/>
     <use xlink:href="#DejaVuSans-6d" x="240.083984"/>
     <use xlink:href="#DejaVuSans-65" x="337.496094"/>
     <use xlink:href="#DejaVuSans-6e" x="399.019531"/>
     <use xlink:href="#DejaVuSans-74" x="462.398438"/>
     <use xlink:href="#DejaVuSans-5f" x="501.607422"/>
     <use xlink:href="#DejaVuSans-66" x="551.607422"/>
     <use xlink:href="#DejaVuSans-6c" x="586.8125"/>
     <use xlink:href="#DejaVuSans-67" x="614.595703"/>
     <use xlink:href="#DejaVuSans-20" x="678.072266"/>
     <use xlink:href="#DejaVuSans-3d" x="709.859375"/>
     <use xlink:href="#DejaVuSans-20" x="793.648438"/>
     <use xlink:href="#DejaVuSans-31" x="825.435547"/>
     <use xlink:href="#DejaVuSans-2e" x="889.058594"/>
     <use xlink:href="#DejaVuSans-30" x="920.845703"/>
    </g>
   </g>
  </g>
  <g id="legend_1">
   <g id="text_22">
    <!-- gender -->
    <g transform="translate(711.502844 144.806062)scale(0.14 -0.14)">
     <defs>
      <path id="DejaVuSans-64" d="M 2906 2969 
L 2906 4863 
L 3481 4863 
L 3481 0 
L 2906 0 
L 2906 525 
Q 2725 213 2448 61 
Q 2172 -91 1784 -91 
Q 1150 -91 751 415 
Q 353 922 353 1747 
Q 353 2572 751 3078 
Q 1150 3584 1784 3584 
Q 2172 3584 2448 3432 
Q 2725 3281 2906 2969 
z
M 947 1747 
Q 947 1113 1208 752 
Q 1469 391 1925 391 
Q 2381 391 2643 752 
Q 2906 1113 2906 1747 
Q 2906 2381 2643 2742 
Q 2381 3103 1925 3103 
Q 1469 3103 1208 2742 
Q 947 2381 947 1747 
z
" transform="scale(0.015625)"/>
     </defs>
     <use xlink:href="#DejaVuSans-67"/>
     <use xlink:href="#DejaVuSans-65" x="63.476562"/>
     <use xlink:href="#DejaVuSans-6e" x="125"/>
     <use xlink:href="#DejaVuSans-64" x="188.378906"/>
     <use xlink:href="#DejaVuSans-65" x="251.855469"/>
     <use xlink:href="#DejaVuSans-72" x="313.378906"/>
    </g>
   </g>
   <g id="line2d_51">
    <path d="M 710.67925 160.455437 
L 724.67925 160.455437 
L 738.67925 160.455437 
" style="fill: none; stroke: #348abd; stroke-width: 2"/>
   </g>
   <g id="text_23">
    <!-- U -->
    <g transform="translate(749.87925 165.355437)scale(0.14 -0.14)">
     <defs>
      <path id="DejaVuSans-55" d="M 556 4666 
L 1191 4666 
L 1191 1831 
Q 1191 1081 1462 751 
Q 1734 422 2344 422 
Q 2950 422 3222 751 
Q 3494 1081 3494 1831 
L 3494 4666 
L 4128 4666 
L 4128 1753 
Q 4128 841 3676 375 
Q 3225 -91 2344 -91 
Q 1459 -91 1007 375 
Q 556 841 556 1753 
L 556 4666 
z
" transform="scale(0.015625)"/>
     </defs>
     <use xlink:href="#DejaVuSans-55"/>
    </g>
   </g>
   <g id="line2d_52">
    <path d="M 710.67925 181.004812 
L 724.67925 181.004812 
L 738.67925 181.004812 
" style="fill: none; stroke: #a60628; stroke-width: 2"/>
   </g>
   <g id="text_24">
    <!-- F -->
    <g transform="translate(749.87925 185.904812)scale(0.14 -0.14)">
     <defs>
      <path id="DejaVuSans-46" d="M 628 4666 
L 3309 4666 
L 3309 4134 
L 1259 4134 
L 1259 2759 
L 3109 2759 
L 3109 2228 
L 1259 2228 
L 1259 0 
L 628 0 
L 628 4666 
z
" transform="scale(0.015625)"/>
     </defs>
     <use xlink:href="#DejaVuSans-46"/>
    </g>
   </g>
   <g id="line2d_53">
    <path d="M 710.67925 201.554187 
L 724.67925 201.554187 
L 738.67925 201.554187 
" style="fill: none; stroke: #7a68a6; stroke-width: 2"/>
   </g>
   <g id="text_25">
    <!-- M -->
    <g transform="translate(749.87925 206.454187)scale(0.14 -0.14)">
     <defs>
      <path id="DejaVuSans-4d" d="M 628 4666 
L 1569 4666 
L 2759 1491 
L 3956 4666 
L 4897 4666 
L 4897 0 
L 4281 0 
L 4281 4097 
L 3078 897 
L 2444 897 
L 1241 4097 
L 1241 0 
L 628 0 
L 628 4666 
z
" transform="scale(0.015625)"/>
     </defs>
     <use xlink:href="#DejaVuSans-4d"/>
    </g>
   </g>
  </g>
 </g>
 <defs>
  <clipPath id="p22d04292e3">
   <rect x="71.038625" y="25.965375" width="301.3977" height="273.06"/>
  </clipPath>
  <clipPath id="pcd60605935">
   <rect x="387.556325" y="25.965375" width="301.3977" height="273.06"/>
  </clipPath>
 </defs>
</svg>
