<?xml version="1.0" encoding="utf-8" standalone="no"?>
<!DOCTYPE svg PUBLIC "-//W3C//DTD SVG 1.1//EN"
  "http://www.w3.org/Graphics/SVG/1.1/DTD/svg11.dtd">
<svg xmlns:xlink="http://www.w3.org/1999/xlink" width="584.35333pt" height="584.39952pt" viewBox="0 0 584.35333 584.39952" xmlns="http://www.w3.org/2000/svg" version="1.1">
 <metadata>
  <rdf:RDF xmlns:dc="http://purl.org/dc/elements/1.1/" xmlns:cc="http://creativecommons.org/ns#" xmlns:rdf="http://www.w3.org/1999/02/22-rdf-syntax-ns#">
   <cc:Work>
    <dc:type rdf:resource="http://purl.org/dc/dcmitype/StillImage"/>
    <dc:date>2022-04-07T21:43:22.055900</dc:date>
    <dc:format>image/svg+xml</dc:format>
    <dc:creator>
     <cc:Agent>
      <dc:title>Matplotlib v3.5.1, https://matplotlib.org/</dc:title>
     </cc:Agent>
    </dc:creator>
   </cc:Work>
  </rdf:RDF>
 </metadata>
 <defs>
  <style type="text/css">*{stroke-linejoin: round; stroke-linecap: butt}</style>
 </defs>
 <g id="figure_1">
  <g id="patch_1">
   <path d="M 0 584.39952 
L 584.35333 584.39952 
L 584.35333 0 
L 0 0 
z
" style="fill: #f0f0f0"/>
  </g>
  <g id="axes_1">
   <g id="patch_2">
    <path d="M 44.695938 281.908698 
L 572.754302 281.908698 
L 572.754302 29.92698 
L 44.695938 29.92698 
z
" style="fill: #eeeeee"/>
   </g>
   <g id="matplotlib.axis_1">
    <g id="xtick_1">
     <g id="line2d_1">
      <path d="M 68.69859 281.908698 
L 68.69859 29.92698 
" clip-path="url(#p13a9bc9c80)" style="fill: none; stroke-dasharray: 1.85,0.8; stroke-dashoffset: 0; stroke: #b2b2b2; stroke-width: 0.5"/>
     </g>
     <g id="line2d_2"/>
    </g>
    <g id="xtick_2">
     <g id="line2d_3">
      <path d="M 137.517482 281.908698 
L 137.517482 29.92698 
" clip-path="url(#p13a9bc9c80)" style="fill: none; stroke-dasharray: 1.85,0.8; stroke-dashoffset: 0; stroke: #b2b2b2; stroke-width: 0.5"/>
     </g>
     <g id="line2d_4"/>
    </g>
    <g id="xtick_3">
     <g id="line2d_5">
      <path d="M 206.336373 281.908698 
L 206.336373 29.92698 
" clip-path="url(#p13a9bc9c80)" style="fill: none; stroke-dasharray: 1.85,0.8; stroke-dashoffset: 0; stroke: #b2b2b2; stroke-width: 0.5"/>
     </g>
     <g id="line2d_6"/>
    </g>
    <g id="xtick_4">
     <g id="line2d_7">
      <path d="M 275.155264 281.908698 
L 275.155264 29.92698 
" clip-path="url(#p13a9bc9c80)" style="fill: none; stroke-dasharray: 1.85,0.8; stroke-dashoffset: 0; stroke: #b2b2b2; stroke-width: 0.5"/>
     </g>
     <g id="line2d_8"/>
    </g>
    <g id="xtick_5">
     <g id="line2d_9">
      <path d="M 343.974156 281.908698 
L 343.974156 29.92698 
" clip-path="url(#p13a9bc9c80)" style="fill: none; stroke-dasharray: 1.85,0.8; stroke-dashoffset: 0; stroke: #b2b2b2; stroke-width: 0.5"/>
     </g>
     <g id="line2d_10"/>
    </g>
    <g id="xtick_6">
     <g id="line2d_11">
      <path d="M 412.793047 281.908698 
L 412.793047 29.92698 
" clip-path="url(#p13a9bc9c80)" style="fill: none; stroke-dasharray: 1.85,0.8; stroke-dashoffset: 0; stroke: #b2b2b2; stroke-width: 0.5"/>
     </g>
     <g id="line2d_12"/>
    </g>
    <g id="xtick_7">
     <g id="line2d_13">
      <path d="M 481.611939 281.908698 
L 481.611939 29.92698 
" clip-path="url(#p13a9bc9c80)" style="fill: none; stroke-dasharray: 1.85,0.8; stroke-dashoffset: 0; stroke: #b2b2b2; stroke-width: 0.5"/>
     </g>
     <g id="line2d_14"/>
    </g>
    <g id="xtick_8">
     <g id="line2d_15">
      <path d="M 550.43083 281.908698 
L 550.43083 29.92698 
" clip-path="url(#p13a9bc9c80)" style="fill: none; stroke-dasharray: 1.85,0.8; stroke-dashoffset: 0; stroke: #b2b2b2; stroke-width: 0.5"/>
     </g>
     <g id="line2d_16"/>
    </g>
   </g>
   <g id="matplotlib.axis_2">
    <g id="ytick_1">
     <g id="line2d_17">
      <path d="M 44.695938 270.454983 
L 572.754302 270.454983 
" clip-path="url(#p13a9bc9c80)" style="fill: none; stroke-dasharray: 1.85,0.8; stroke-dashoffset: 0; stroke: #b2b2b2; stroke-width: 0.5"/>
     </g>
     <g id="line2d_18"/>
     <g id="text_1">
      <!-- 0.0 -->
      <g transform="translate(18.931563 275.773889)scale(0.14 -0.14)">
       <defs>
        <path id="DejaVuSans-30" d="M 2034 4250 
Q 1547 4250 1301 3770 
Q 1056 3291 1056 2328 
Q 1056 1369 1301 889 
Q 1547 409 2034 409 
Q 2525 409 2770 889 
Q 3016 1369 3016 2328 
Q 3016 3291 2770 3770 
Q 2525 4250 2034 4250 
z
M 2034 4750 
Q 2819 4750 3233 4129 
Q 3647 3509 3647 2328 
Q 3647 1150 3233 529 
Q 2819 -91 2034 -91 
Q 1250 -91 836 529 
Q 422 1150 422 2328 
Q 422 3509 836 4129 
Q 1250 4750 2034 4750 
z
" transform="scale(0.015625)"/>
        <path id="DejaVuSans-2e" d="M 684 794 
L 1344 794 
L 1344 0 
L 684 0 
L 684 794 
z
" transform="scale(0.015625)"/>
       </defs>
       <use xlink:href="#DejaVuSans-30"/>
       <use xlink:href="#DejaVuSans-2e" x="63.623047"/>
       <use xlink:href="#DejaVuSans-30" x="95.410156"/>
      </g>
     </g>
    </g>
    <g id="ytick_2">
     <g id="line2d_19">
      <path d="M 44.695938 232.275935 
L 572.754302 232.275935 
" clip-path="url(#p13a9bc9c80)" style="fill: none; stroke-dasharray: 1.85,0.8; stroke-dashoffset: 0; stroke: #b2b2b2; stroke-width: 0.5"/>
     </g>
     <g id="line2d_20"/>
     <g id="text_2">
      <!-- 0.5 -->
      <g transform="translate(18.931563 237.594841)scale(0.14 -0.14)">
       <defs>
        <path id="DejaVuSans-35" d="M 691 4666 
L 3169 4666 
L 3169 4134 
L 1269 4134 
L 1269 2991 
Q 1406 3038 1543 3061 
Q 1681 3084 1819 3084 
Q 2600 3084 3056 2656 
Q 3513 2228 3513 1497 
Q 3513 744 3044 326 
Q 2575 -91 1722 -91 
Q 1428 -91 1123 -41 
Q 819 9 494 109 
L 494 744 
Q 775 591 1075 516 
Q 1375 441 1709 441 
Q 2250 441 2565 725 
Q 2881 1009 2881 1497 
Q 2881 1984 2565 2268 
Q 2250 2553 1709 2553 
Q 1456 2553 1204 2497 
Q 953 2441 691 2322 
L 691 4666 
z
" transform="scale(0.015625)"/>
       </defs>
       <use xlink:href="#DejaVuSans-30"/>
       <use xlink:href="#DejaVuSans-2e" x="63.623047"/>
       <use xlink:href="#DejaVuSans-35" x="95.410156"/>
      </g>
     </g>
    </g>
    <g id="ytick_3">
     <g id="line2d_21">
      <path d="M 44.695938 194.096887 
L 572.754302 194.096887 
" clip-path="url(#p13a9bc9c80)" style="fill: none; stroke-dasharray: 1.85,0.8; stroke-dashoffset: 0; stroke: #b2b2b2; stroke-width: 0.5"/>
     </g>
     <g id="line2d_22"/>
     <g id="text_3">
      <!-- 1.0 -->
      <g transform="translate(18.931563 199.415793)scale(0.14 -0.14)">
       <defs>
        <path id="DejaVuSans-31" d="M 794 531 
L 1825 531 
L 1825 4091 
L 703 3866 
L 703 4441 
L 1819 4666 
L 2450 4666 
L 2450 531 
L 3481 531 
L 3481 0 
L 794 0 
L 794 531 
z
" transform="scale(0.015625)"/>
       </defs>
       <use xlink:href="#DejaVuSans-31"/>
       <use xlink:href="#DejaVuSans-2e" x="63.623047"/>
       <use xlink:href="#DejaVuSans-30" x="95.410156"/>
      </g>
     </g>
    </g>
    <g id="ytick_4">
     <g id="line2d_23">
      <path d="M 44.695938 155.917839 
L 572.754302 155.917839 
" clip-path="url(#p13a9bc9c80)" style="fill: none; stroke-dasharray: 1.85,0.8; stroke-dashoffset: 0; stroke: #b2b2b2; stroke-width: 0.5"/>
     </g>
     <g id="line2d_24"/>
     <g id="text_4">
      <!-- 1.5 -->
      <g transform="translate(18.931563 161.236745)scale(0.14 -0.14)">
       <use xlink:href="#DejaVuSans-31"/>
       <use xlink:href="#DejaVuSans-2e" x="63.623047"/>
       <use xlink:href="#DejaVuSans-35" x="95.410156"/>
      </g>
     </g>
    </g>
    <g id="ytick_5">
     <g id="line2d_25">
      <path d="M 44.695938 117.738791 
L 572.754302 117.738791 
" clip-path="url(#p13a9bc9c80)" style="fill: none; stroke-dasharray: 1.85,0.8; stroke-dashoffset: 0; stroke: #b2b2b2; stroke-width: 0.5"/>
     </g>
     <g id="line2d_26"/>
     <g id="text_5">
      <!-- 2.0 -->
      <g transform="translate(18.931563 123.057697)scale(0.14 -0.14)">
       <defs>
        <path id="DejaVuSans-32" d="M 1228 531 
L 3431 531 
L 3431 0 
L 469 0 
L 469 531 
Q 828 903 1448 1529 
Q 2069 2156 2228 2338 
Q 2531 2678 2651 2914 
Q 2772 3150 2772 3378 
Q 2772 3750 2511 3984 
Q 2250 4219 1831 4219 
Q 1534 4219 1204 4116 
Q 875 4013 500 3803 
L 500 4441 
Q 881 4594 1212 4672 
Q 1544 4750 1819 4750 
Q 2544 4750 2975 4387 
Q 3406 4025 3406 3419 
Q 3406 3131 3298 2873 
Q 3191 2616 2906 2266 
Q 2828 2175 2409 1742 
Q 1991 1309 1228 531 
z
" transform="scale(0.015625)"/>
       </defs>
       <use xlink:href="#DejaVuSans-32"/>
       <use xlink:href="#DejaVuSans-2e" x="63.623047"/>
       <use xlink:href="#DejaVuSans-30" x="95.410156"/>
      </g>
     </g>
    </g>
    <g id="ytick_6">
     <g id="line2d_27">
      <path d="M 44.695938 79.559743 
L 572.754302 79.559743 
" clip-path="url(#p13a9bc9c80)" style="fill: none; stroke-dasharray: 1.85,0.8; stroke-dashoffset: 0; stroke: #b2b2b2; stroke-width: 0.5"/>
     </g>
     <g id="line2d_28"/>
     <g id="text_6">
      <!-- 2.5 -->
      <g transform="translate(18.931563 84.878649)scale(0.14 -0.14)">
       <use xlink:href="#DejaVuSans-32"/>
       <use xlink:href="#DejaVuSans-2e" x="63.623047"/>
       <use xlink:href="#DejaVuSans-35" x="95.410156"/>
      </g>
     </g>
    </g>
    <g id="ytick_7">
     <g id="line2d_29">
      <path d="M 44.695938 41.380694 
L 572.754302 41.380694 
" clip-path="url(#p13a9bc9c80)" style="fill: none; stroke-dasharray: 1.85,0.8; stroke-dashoffset: 0; stroke: #b2b2b2; stroke-width: 0.5"/>
     </g>
     <g id="line2d_30"/>
     <g id="text_7">
      <!-- 3.0 -->
      <g transform="translate(18.931563 46.699601)scale(0.14 -0.14)">
       <defs>
        <path id="DejaVuSans-33" d="M 2597 2516 
Q 3050 2419 3304 2112 
Q 3559 1806 3559 1356 
Q 3559 666 3084 287 
Q 2609 -91 1734 -91 
Q 1441 -91 1130 -33 
Q 819 25 488 141 
L 488 750 
Q 750 597 1062 519 
Q 1375 441 1716 441 
Q 2309 441 2620 675 
Q 2931 909 2931 1356 
Q 2931 1769 2642 2001 
Q 2353 2234 1838 2234 
L 1294 2234 
L 1294 2753 
L 1863 2753 
Q 2328 2753 2575 2939 
Q 2822 3125 2822 3475 
Q 2822 3834 2567 4026 
Q 2313 4219 1838 4219 
Q 1578 4219 1281 4162 
Q 984 4106 628 3988 
L 628 4550 
Q 988 4650 1302 4700 
Q 1616 4750 1894 4750 
Q 2613 4750 3031 4423 
Q 3450 4097 3450 3541 
Q 3450 3153 3228 2886 
Q 3006 2619 2597 2516 
z
" transform="scale(0.015625)"/>
       </defs>
       <use xlink:href="#DejaVuSans-33"/>
       <use xlink:href="#DejaVuSans-2e" x="63.623047"/>
       <use xlink:href="#DejaVuSans-30" x="95.410156"/>
      </g>
     </g>
    </g>
   </g>
   <g id="line2d_31">
    <path d="M 68.69859 41.380694 
L 221.455884 41.380694 
L 221.569435 117.738791 
L 316.66682 117.738791 
L 316.780371 194.096887 
L 461.602846 194.096887 
L 461.716397 270.454983 
L 548.751649 270.454983 
L 548.751649 270.454983 
" clip-path="url(#p13a9bc9c80)" style="fill: none; stroke: #467821; stroke-width: 2"/>
   </g>
   <g id="patch_3">
    <path d="M 44.695938 281.908698 
L 44.695938 29.92698 
" style="fill: none; stroke: #bcbcbc; stroke-width: 3; stroke-linejoin: miter; stroke-linecap: square"/>
   </g>
   <g id="patch_4">
    <path d="M 572.754302 281.908698 
L 572.754302 29.92698 
" style="fill: none; stroke: #bcbcbc; stroke-width: 3; stroke-linejoin: miter; stroke-linecap: square"/>
   </g>
   <g id="patch_5">
    <path d="M 44.695938 281.908698 
L 572.754302 281.908698 
" style="fill: none; stroke: #bcbcbc; stroke-width: 3; stroke-linejoin: miter; stroke-linecap: square"/>
   </g>
   <g id="patch_6">
    <path d="M 44.695938 29.92698 
L 572.754302 29.92698 
" style="fill: none; stroke: #bcbcbc; stroke-width: 3; stroke-linejoin: miter; stroke-linecap: square"/>
   </g>
   <g id="legend_1">
    <g id="patch_7">
     <path d="M 420.123677 61.676355 
L 562.954302 61.676355 
Q 565.754302 61.676355 565.754302 58.876355 
L 565.754302 39.72698 
Q 565.754302 36.92698 562.954302 36.92698 
L 420.123677 36.92698 
Q 417.323677 36.92698 417.323677 39.72698 
L 417.323677 58.876355 
Q 417.323677 61.676355 420.123677 61.676355 
z
" style="fill: #eeeeee; opacity: 0.8; stroke: #cccccc; stroke-width: 0.5; stroke-linejoin: miter"/>
    </g>
    <g id="line2d_32">
     <path d="M 422.923677 48.264792 
L 436.923677 48.264792 
L 450.923677 48.264792 
" style="fill: none; stroke: #467821; stroke-width: 2"/>
    </g>
    <g id="text_8">
     <!-- perfect model -->
     <g transform="translate(462.123677 53.164792)scale(0.14 -0.14)">
      <defs>
       <path id="DejaVuSans-70" d="M 1159 525 
L 1159 -1331 
L 581 -1331 
L 581 3500 
L 1159 3500 
L 1159 2969 
Q 1341 3281 1617 3432 
Q 1894 3584 2278 3584 
Q 2916 3584 3314 3078 
Q 3713 2572 3713 1747 
Q 3713 922 3314 415 
Q 2916 -91 2278 -91 
Q 1894 -91 1617 61 
Q 1341 213 1159 525 
z
M 3116 1747 
Q 3116 2381 2855 2742 
Q 2594 3103 2138 3103 
Q 1681 3103 1420 2742 
Q 1159 2381 1159 1747 
Q 1159 1113 1420 752 
Q 1681 391 2138 391 
Q 2594 391 2855 752 
Q 3116 1113 3116 1747 
z
" transform="scale(0.015625)"/>
       <path id="DejaVuSans-65" d="M 3597 1894 
L 3597 1613 
L 953 1613 
Q 991 1019 1311 708 
Q 1631 397 2203 397 
Q 2534 397 2845 478 
Q 3156 559 3463 722 
L 3463 178 
Q 3153 47 2828 -22 
Q 2503 -91 2169 -91 
Q 1331 -91 842 396 
Q 353 884 353 1716 
Q 353 2575 817 3079 
Q 1281 3584 2069 3584 
Q 2775 3584 3186 3129 
Q 3597 2675 3597 1894 
z
M 3022 2063 
Q 3016 2534 2758 2815 
Q 2500 3097 2075 3097 
Q 1594 3097 1305 2825 
Q 1016 2553 972 2059 
L 3022 2063 
z
" transform="scale(0.015625)"/>
       <path id="DejaVuSans-72" d="M 2631 2963 
Q 2534 3019 2420 3045 
Q 2306 3072 2169 3072 
Q 1681 3072 1420 2755 
Q 1159 2438 1159 1844 
L 1159 0 
L 581 0 
L 581 3500 
L 1159 3500 
L 1159 2956 
Q 1341 3275 1631 3429 
Q 1922 3584 2338 3584 
Q 2397 3584 2469 3576 
Q 2541 3569 2628 3553 
L 2631 2963 
z
" transform="scale(0.015625)"/>
       <path id="DejaVuSans-66" d="M 2375 4863 
L 2375 4384 
L 1825 4384 
Q 1516 4384 1395 4259 
Q 1275 4134 1275 3809 
L 1275 3500 
L 2222 3500 
L 2222 3053 
L 1275 3053 
L 1275 0 
L 697 0 
L 697 3053 
L 147 3053 
L 147 3500 
L 697 3500 
L 697 3744 
Q 697 4328 969 4595 
Q 1241 4863 1831 4863 
L 2375 4863 
z
" transform="scale(0.015625)"/>
       <path id="DejaVuSans-63" d="M 3122 3366 
L 3122 2828 
Q 2878 2963 2633 3030 
Q 2388 3097 2138 3097 
Q 1578 3097 1268 2742 
Q 959 2388 959 1747 
Q 959 1106 1268 751 
Q 1578 397 2138 397 
Q 2388 397 2633 464 
Q 2878 531 3122 666 
L 3122 134 
Q 2881 22 2623 -34 
Q 2366 -91 2075 -91 
Q 1284 -91 818 406 
Q 353 903 353 1747 
Q 353 2603 823 3093 
Q 1294 3584 2113 3584 
Q 2378 3584 2631 3529 
Q 2884 3475 3122 3366 
z
" transform="scale(0.015625)"/>
       <path id="DejaVuSans-74" d="M 1172 4494 
L 1172 3500 
L 2356 3500 
L 2356 3053 
L 1172 3053 
L 1172 1153 
Q 1172 725 1289 603 
Q 1406 481 1766 481 
L 2356 481 
L 2356 0 
L 1766 0 
Q 1100 0 847 248 
Q 594 497 594 1153 
L 594 3053 
L 172 3053 
L 172 3500 
L 594 3500 
L 594 4494 
L 1172 4494 
z
" transform="scale(0.015625)"/>
       <path id="DejaVuSans-20" transform="scale(0.015625)"/>
       <path id="DejaVuSans-6d" d="M 3328 2828 
Q 3544 3216 3844 3400 
Q 4144 3584 4550 3584 
Q 5097 3584 5394 3201 
Q 5691 2819 5691 2113 
L 5691 0 
L 5113 0 
L 5113 2094 
Q 5113 2597 4934 2840 
Q 4756 3084 4391 3084 
Q 3944 3084 3684 2787 
Q 3425 2491 3425 1978 
L 3425 0 
L 2847 0 
L 2847 2094 
Q 2847 2600 2669 2842 
Q 2491 3084 2119 3084 
Q 1678 3084 1418 2786 
Q 1159 2488 1159 1978 
L 1159 0 
L 581 0 
L 581 3500 
L 1159 3500 
L 1159 2956 
Q 1356 3278 1631 3431 
Q 1906 3584 2284 3584 
Q 2666 3584 2933 3390 
Q 3200 3197 3328 2828 
z
" transform="scale(0.015625)"/>
       <path id="DejaVuSans-6f" d="M 1959 3097 
Q 1497 3097 1228 2736 
Q 959 2375 959 1747 
Q 959 1119 1226 758 
Q 1494 397 1959 397 
Q 2419 397 2687 759 
Q 2956 1122 2956 1747 
Q 2956 2369 2687 2733 
Q 2419 3097 1959 3097 
z
M 1959 3584 
Q 2709 3584 3137 3096 
Q 3566 2609 3566 1747 
Q 3566 888 3137 398 
Q 2709 -91 1959 -91 
Q 1206 -91 779 398 
Q 353 888 353 1747 
Q 353 2609 779 3096 
Q 1206 3584 1959 3584 
z
" transform="scale(0.015625)"/>
       <path id="DejaVuSans-64" d="M 2906 2969 
L 2906 4863 
L 3481 4863 
L 3481 0 
L 2906 0 
L 2906 525 
Q 2725 213 2448 61 
Q 2172 -91 1784 -91 
Q 1150 -91 751 415 
Q 353 922 353 1747 
Q 353 2572 751 3078 
Q 1150 3584 1784 3584 
Q 2172 3584 2448 3432 
Q 2725 3281 2906 2969 
z
M 947 1747 
Q 947 1113 1208 752 
Q 1469 391 1925 391 
Q 2381 391 2643 752 
Q 2906 1113 2906 1747 
Q 2906 2381 2643 2742 
Q 2381 3103 1925 3103 
Q 1469 3103 1208 2742 
Q 947 2381 947 1747 
z
" transform="scale(0.015625)"/>
       <path id="DejaVuSans-6c" d="M 603 4863 
L 1178 4863 
L 1178 0 
L 603 0 
L 603 4863 
z
" transform="scale(0.015625)"/>
      </defs>
      <use xlink:href="#DejaVuSans-70"/>
      <use xlink:href="#DejaVuSans-65" x="63.476562"/>
      <use xlink:href="#DejaVuSans-72" x="125"/>
      <use xlink:href="#DejaVuSans-66" x="166.113281"/>
      <use xlink:href="#DejaVuSans-65" x="201.318359"/>
      <use xlink:href="#DejaVuSans-63" x="262.841797"/>
      <use xlink:href="#DejaVuSans-74" x="317.822266"/>
      <use xlink:href="#DejaVuSans-20" x="357.03125"/>
      <use xlink:href="#DejaVuSans-6d" x="388.818359"/>
      <use xlink:href="#DejaVuSans-6f" x="486.230469"/>
      <use xlink:href="#DejaVuSans-64" x="547.412109"/>
      <use xlink:href="#DejaVuSans-65" x="610.888672"/>
      <use xlink:href="#DejaVuSans-6c" x="672.412109"/>
     </g>
    </g>
   </g>
  </g>
  <g id="axes_2">
   <g id="patch_8">
    <path d="M 44.695938 539.890895 
L 572.754302 539.890895 
L 572.754302 287.909177 
L 44.695938 287.909177 
z
" style="fill: #eeeeee"/>
   </g>
   <g id="matplotlib.axis_3">
    <g id="xtick_9">
     <g id="line2d_33">
      <path d="M 68.69859 539.890895 
L 68.69859 287.909177 
" clip-path="url(#paeaa16124f)" style="fill: none; stroke-dasharray: 1.85,0.8; stroke-dashoffset: 0; stroke: #b2b2b2; stroke-width: 0.5"/>
     </g>
     <g id="line2d_34"/>
     <g id="text_9">
      <!-- 0 -->
      <g transform="translate(64.24484 554.028707)scale(0.14 -0.14)">
       <use xlink:href="#DejaVuSans-30"/>
      </g>
     </g>
    </g>
    <g id="xtick_10">
     <g id="line2d_35">
      <path d="M 137.517482 539.890895 
L 137.517482 287.909177 
" clip-path="url(#paeaa16124f)" style="fill: none; stroke-dasharray: 1.85,0.8; stroke-dashoffset: 0; stroke: #b2b2b2; stroke-width: 0.5"/>
     </g>
     <g id="line2d_36"/>
     <g id="text_10">
      <!-- 20000 -->
      <g transform="translate(115.248732 554.028707)scale(0.14 -0.14)">
       <use xlink:href="#DejaVuSans-32"/>
       <use xlink:href="#DejaVuSans-30" x="63.623047"/>
       <use xlink:href="#DejaVuSans-30" x="127.246094"/>
       <use xlink:href="#DejaVuSans-30" x="190.869141"/>
       <use xlink:href="#DejaVuSans-30" x="254.492188"/>
      </g>
     </g>
    </g>
    <g id="xtick_11">
     <g id="line2d_37">
      <path d="M 206.336373 539.890895 
L 206.336373 287.909177 
" clip-path="url(#paeaa16124f)" style="fill: none; stroke-dasharray: 1.85,0.8; stroke-dashoffset: 0; stroke: #b2b2b2; stroke-width: 0.5"/>
     </g>
     <g id="line2d_38"/>
     <g id="text_11">
      <!-- 40000 -->
      <g transform="translate(184.067623 554.028707)scale(0.14 -0.14)">
       <defs>
        <path id="DejaVuSans-34" d="M 2419 4116 
L 825 1625 
L 2419 1625 
L 2419 4116 
z
M 2253 4666 
L 3047 4666 
L 3047 1625 
L 3713 1625 
L 3713 1100 
L 3047 1100 
L 3047 0 
L 2419 0 
L 2419 1100 
L 313 1100 
L 313 1709 
L 2253 4666 
z
" transform="scale(0.015625)"/>
       </defs>
       <use xlink:href="#DejaVuSans-34"/>
       <use xlink:href="#DejaVuSans-30" x="63.623047"/>
       <use xlink:href="#DejaVuSans-30" x="127.246094"/>
       <use xlink:href="#DejaVuSans-30" x="190.869141"/>
       <use xlink:href="#DejaVuSans-30" x="254.492188"/>
      </g>
     </g>
    </g>
    <g id="xtick_12">
     <g id="line2d_39">
      <path d="M 275.155264 539.890895 
L 275.155264 287.909177 
" clip-path="url(#paeaa16124f)" style="fill: none; stroke-dasharray: 1.85,0.8; stroke-dashoffset: 0; stroke: #b2b2b2; stroke-width: 0.5"/>
     </g>
     <g id="line2d_40"/>
     <g id="text_12">
      <!-- 60000 -->
      <g transform="translate(252.886514 554.028707)scale(0.14 -0.14)">
       <defs>
        <path id="DejaVuSans-36" d="M 2113 2584 
Q 1688 2584 1439 2293 
Q 1191 2003 1191 1497 
Q 1191 994 1439 701 
Q 1688 409 2113 409 
Q 2538 409 2786 701 
Q 3034 994 3034 1497 
Q 3034 2003 2786 2293 
Q 2538 2584 2113 2584 
z
M 3366 4563 
L 3366 3988 
Q 3128 4100 2886 4159 
Q 2644 4219 2406 4219 
Q 1781 4219 1451 3797 
Q 1122 3375 1075 2522 
Q 1259 2794 1537 2939 
Q 1816 3084 2150 3084 
Q 2853 3084 3261 2657 
Q 3669 2231 3669 1497 
Q 3669 778 3244 343 
Q 2819 -91 2113 -91 
Q 1303 -91 875 529 
Q 447 1150 447 2328 
Q 447 3434 972 4092 
Q 1497 4750 2381 4750 
Q 2619 4750 2861 4703 
Q 3103 4656 3366 4563 
z
" transform="scale(0.015625)"/>
       </defs>
       <use xlink:href="#DejaVuSans-36"/>
       <use xlink:href="#DejaVuSans-30" x="63.623047"/>
       <use xlink:href="#DejaVuSans-30" x="127.246094"/>
       <use xlink:href="#DejaVuSans-30" x="190.869141"/>
       <use xlink:href="#DejaVuSans-30" x="254.492188"/>
      </g>
     </g>
    </g>
    <g id="xtick_13">
     <g id="line2d_41">
      <path d="M 343.974156 539.890895 
L 343.974156 287.909177 
" clip-path="url(#paeaa16124f)" style="fill: none; stroke-dasharray: 1.85,0.8; stroke-dashoffset: 0; stroke: #b2b2b2; stroke-width: 0.5"/>
     </g>
     <g id="line2d_42"/>
     <g id="text_13">
      <!-- 80000 -->
      <g transform="translate(321.705406 554.028707)scale(0.14 -0.14)">
       <defs>
        <path id="DejaVuSans-38" d="M 2034 2216 
Q 1584 2216 1326 1975 
Q 1069 1734 1069 1313 
Q 1069 891 1326 650 
Q 1584 409 2034 409 
Q 2484 409 2743 651 
Q 3003 894 3003 1313 
Q 3003 1734 2745 1975 
Q 2488 2216 2034 2216 
z
M 1403 2484 
Q 997 2584 770 2862 
Q 544 3141 544 3541 
Q 544 4100 942 4425 
Q 1341 4750 2034 4750 
Q 2731 4750 3128 4425 
Q 3525 4100 3525 3541 
Q 3525 3141 3298 2862 
Q 3072 2584 2669 2484 
Q 3125 2378 3379 2068 
Q 3634 1759 3634 1313 
Q 3634 634 3220 271 
Q 2806 -91 2034 -91 
Q 1263 -91 848 271 
Q 434 634 434 1313 
Q 434 1759 690 2068 
Q 947 2378 1403 2484 
z
M 1172 3481 
Q 1172 3119 1398 2916 
Q 1625 2713 2034 2713 
Q 2441 2713 2670 2916 
Q 2900 3119 2900 3481 
Q 2900 3844 2670 4047 
Q 2441 4250 2034 4250 
Q 1625 4250 1398 4047 
Q 1172 3844 1172 3481 
z
" transform="scale(0.015625)"/>
       </defs>
       <use xlink:href="#DejaVuSans-38"/>
       <use xlink:href="#DejaVuSans-30" x="63.623047"/>
       <use xlink:href="#DejaVuSans-30" x="127.246094"/>
       <use xlink:href="#DejaVuSans-30" x="190.869141"/>
       <use xlink:href="#DejaVuSans-30" x="254.492188"/>
      </g>
     </g>
    </g>
    <g id="xtick_14">
     <g id="line2d_43">
      <path d="M 412.793047 539.890895 
L 412.793047 287.909177 
" clip-path="url(#paeaa16124f)" style="fill: none; stroke-dasharray: 1.85,0.8; stroke-dashoffset: 0; stroke: #b2b2b2; stroke-width: 0.5"/>
     </g>
     <g id="line2d_44"/>
     <g id="text_14">
      <!-- 100000 -->
      <g transform="translate(386.070547 554.028707)scale(0.14 -0.14)">
       <use xlink:href="#DejaVuSans-31"/>
       <use xlink:href="#DejaVuSans-30" x="63.623047"/>
       <use xlink:href="#DejaVuSans-30" x="127.246094"/>
       <use xlink:href="#DejaVuSans-30" x="190.869141"/>
       <use xlink:href="#DejaVuSans-30" x="254.492188"/>
       <use xlink:href="#DejaVuSans-30" x="318.115234"/>
      </g>
     </g>
    </g>
    <g id="xtick_15">
     <g id="line2d_45">
      <path d="M 481.611939 539.890895 
L 481.611939 287.909177 
" clip-path="url(#paeaa16124f)" style="fill: none; stroke-dasharray: 1.85,0.8; stroke-dashoffset: 0; stroke: #b2b2b2; stroke-width: 0.5"/>
     </g>
     <g id="line2d_46"/>
     <g id="text_15">
      <!-- 120000 -->
      <g transform="translate(454.889439 554.028707)scale(0.14 -0.14)">
       <use xlink:href="#DejaVuSans-31"/>
       <use xlink:href="#DejaVuSans-32" x="63.623047"/>
       <use xlink:href="#DejaVuSans-30" x="127.246094"/>
       <use xlink:href="#DejaVuSans-30" x="190.869141"/>
       <use xlink:href="#DejaVuSans-30" x="254.492188"/>
       <use xlink:href="#DejaVuSans-30" x="318.115234"/>
      </g>
     </g>
    </g>
    <g id="xtick_16">
     <g id="line2d_47">
      <path d="M 550.43083 539.890895 
L 550.43083 287.909177 
" clip-path="url(#paeaa16124f)" style="fill: none; stroke-dasharray: 1.85,0.8; stroke-dashoffset: 0; stroke: #b2b2b2; stroke-width: 0.5"/>
     </g>
     <g id="line2d_48"/>
     <g id="text_16">
      <!-- 140000 -->
      <g transform="translate(523.70833 554.028707)scale(0.14 -0.14)">
       <use xlink:href="#DejaVuSans-31"/>
       <use xlink:href="#DejaVuSans-34" x="63.623047"/>
       <use xlink:href="#DejaVuSans-30" x="127.246094"/>
       <use xlink:href="#DejaVuSans-30" x="190.869141"/>
       <use xlink:href="#DejaVuSans-30" x="254.492188"/>
       <use xlink:href="#DejaVuSans-30" x="318.115234"/>
      </g>
     </g>
    </g>
    <g id="text_17">
     <!-- Number treated -->
     <g transform="translate(241.643245 573.705645)scale(0.168 -0.168)">
      <defs>
       <path id="DejaVuSans-4e" d="M 628 4666 
L 1478 4666 
L 3547 763 
L 3547 4666 
L 4159 4666 
L 4159 0 
L 3309 0 
L 1241 3903 
L 1241 0 
L 628 0 
L 628 4666 
z
" transform="scale(0.015625)"/>
       <path id="DejaVuSans-75" d="M 544 1381 
L 544 3500 
L 1119 3500 
L 1119 1403 
Q 1119 906 1312 657 
Q 1506 409 1894 409 
Q 2359 409 2629 706 
Q 2900 1003 2900 1516 
L 2900 3500 
L 3475 3500 
L 3475 0 
L 2900 0 
L 2900 538 
Q 2691 219 2414 64 
Q 2138 -91 1772 -91 
Q 1169 -91 856 284 
Q 544 659 544 1381 
z
M 1991 3584 
L 1991 3584 
z
" transform="scale(0.015625)"/>
       <path id="DejaVuSans-62" d="M 3116 1747 
Q 3116 2381 2855 2742 
Q 2594 3103 2138 3103 
Q 1681 3103 1420 2742 
Q 1159 2381 1159 1747 
Q 1159 1113 1420 752 
Q 1681 391 2138 391 
Q 2594 391 2855 752 
Q 3116 1113 3116 1747 
z
M 1159 2969 
Q 1341 3281 1617 3432 
Q 1894 3584 2278 3584 
Q 2916 3584 3314 3078 
Q 3713 2572 3713 1747 
Q 3713 922 3314 415 
Q 2916 -91 2278 -91 
Q 1894 -91 1617 61 
Q 1341 213 1159 525 
L 1159 0 
L 581 0 
L 581 4863 
L 1159 4863 
L 1159 2969 
z
" transform="scale(0.015625)"/>
       <path id="DejaVuSans-61" d="M 2194 1759 
Q 1497 1759 1228 1600 
Q 959 1441 959 1056 
Q 959 750 1161 570 
Q 1363 391 1709 391 
Q 2188 391 2477 730 
Q 2766 1069 2766 1631 
L 2766 1759 
L 2194 1759 
z
M 3341 1997 
L 3341 0 
L 2766 0 
L 2766 531 
Q 2569 213 2275 61 
Q 1981 -91 1556 -91 
Q 1019 -91 701 211 
Q 384 513 384 1019 
Q 384 1609 779 1909 
Q 1175 2209 1959 2209 
L 2766 2209 
L 2766 2266 
Q 2766 2663 2505 2880 
Q 2244 3097 1772 3097 
Q 1472 3097 1187 3025 
Q 903 2953 641 2809 
L 641 3341 
Q 956 3463 1253 3523 
Q 1550 3584 1831 3584 
Q 2591 3584 2966 3190 
Q 3341 2797 3341 1997 
z
" transform="scale(0.015625)"/>
      </defs>
      <use xlink:href="#DejaVuSans-4e"/>
      <use xlink:href="#DejaVuSans-75" x="74.804688"/>
      <use xlink:href="#DejaVuSans-6d" x="138.183594"/>
      <use xlink:href="#DejaVuSans-62" x="235.595703"/>
      <use xlink:href="#DejaVuSans-65" x="299.072266"/>
      <use xlink:href="#DejaVuSans-72" x="360.595703"/>
      <use xlink:href="#DejaVuSans-20" x="401.708984"/>
      <use xlink:href="#DejaVuSans-74" x="433.496094"/>
      <use xlink:href="#DejaVuSans-72" x="472.705078"/>
      <use xlink:href="#DejaVuSans-65" x="511.568359"/>
      <use xlink:href="#DejaVuSans-61" x="573.091797"/>
      <use xlink:href="#DejaVuSans-74" x="634.371094"/>
      <use xlink:href="#DejaVuSans-65" x="673.580078"/>
      <use xlink:href="#DejaVuSans-64" x="735.103516"/>
     </g>
    </g>
   </g>
   <g id="matplotlib.axis_4">
    <g id="ytick_8">
     <g id="line2d_49">
      <path d="M 44.695938 528.008105 
L 572.754302 528.008105 
" clip-path="url(#paeaa16124f)" style="fill: none; stroke-dasharray: 1.85,0.8; stroke-dashoffset: 0; stroke: #b2b2b2; stroke-width: 0.5"/>
     </g>
     <g id="line2d_50"/>
     <g id="text_18">
      <!-- −0.4 -->
      <g transform="translate(7.2 533.327011)scale(0.14 -0.14)">
       <defs>
        <path id="DejaVuSans-2212" d="M 678 2272 
L 4684 2272 
L 4684 1741 
L 678 1741 
L 678 2272 
z
" transform="scale(0.015625)"/>
       </defs>
       <use xlink:href="#DejaVuSans-2212"/>
       <use xlink:href="#DejaVuSans-30" x="83.789062"/>
       <use xlink:href="#DejaVuSans-2e" x="147.412109"/>
       <use xlink:href="#DejaVuSans-34" x="179.199219"/>
      </g>
     </g>
    </g>
    <g id="ytick_9">
     <g id="line2d_51">
      <path d="M 44.695938 484.959321 
L 572.754302 484.959321 
" clip-path="url(#paeaa16124f)" style="fill: none; stroke-dasharray: 1.85,0.8; stroke-dashoffset: 0; stroke: #b2b2b2; stroke-width: 0.5"/>
     </g>
     <g id="line2d_52"/>
     <g id="text_19">
      <!-- −0.2 -->
      <g transform="translate(7.2 490.278227)scale(0.14 -0.14)">
       <use xlink:href="#DejaVuSans-2212"/>
       <use xlink:href="#DejaVuSans-30" x="83.789062"/>
       <use xlink:href="#DejaVuSans-2e" x="147.412109"/>
       <use xlink:href="#DejaVuSans-32" x="179.199219"/>
      </g>
     </g>
    </g>
    <g id="ytick_10">
     <g id="line2d_53">
      <path d="M 44.695938 441.910537 
L 572.754302 441.910537 
" clip-path="url(#paeaa16124f)" style="fill: none; stroke-dasharray: 1.85,0.8; stroke-dashoffset: 0; stroke: #b2b2b2; stroke-width: 0.5"/>
     </g>
     <g id="line2d_54"/>
     <g id="text_20">
      <!-- 0.0 -->
      <g transform="translate(18.931563 447.229444)scale(0.14 -0.14)">
       <use xlink:href="#DejaVuSans-30"/>
       <use xlink:href="#DejaVuSans-2e" x="63.623047"/>
       <use xlink:href="#DejaVuSans-30" x="95.410156"/>
      </g>
     </g>
    </g>
    <g id="ytick_11">
     <g id="line2d_55">
      <path d="M 44.695938 398.861753 
L 572.754302 398.861753 
" clip-path="url(#paeaa16124f)" style="fill: none; stroke-dasharray: 1.85,0.8; stroke-dashoffset: 0; stroke: #b2b2b2; stroke-width: 0.5"/>
     </g>
     <g id="line2d_56"/>
     <g id="text_21">
      <!-- 0.2 -->
      <g transform="translate(18.931563 404.18066)scale(0.14 -0.14)">
       <use xlink:href="#DejaVuSans-30"/>
       <use xlink:href="#DejaVuSans-2e" x="63.623047"/>
       <use xlink:href="#DejaVuSans-32" x="95.410156"/>
      </g>
     </g>
    </g>
    <g id="ytick_12">
     <g id="line2d_57">
      <path d="M 44.695938 355.812969 
L 572.754302 355.812969 
" clip-path="url(#paeaa16124f)" style="fill: none; stroke-dasharray: 1.85,0.8; stroke-dashoffset: 0; stroke: #b2b2b2; stroke-width: 0.5"/>
     </g>
     <g id="line2d_58"/>
     <g id="text_22">
      <!-- 0.4 -->
      <g transform="translate(18.931563 361.131876)scale(0.14 -0.14)">
       <use xlink:href="#DejaVuSans-30"/>
       <use xlink:href="#DejaVuSans-2e" x="63.623047"/>
       <use xlink:href="#DejaVuSans-34" x="95.410156"/>
      </g>
     </g>
    </g>
    <g id="ytick_13">
     <g id="line2d_59">
      <path d="M 44.695938 312.764185 
L 572.754302 312.764185 
" clip-path="url(#paeaa16124f)" style="fill: none; stroke-dasharray: 1.85,0.8; stroke-dashoffset: 0; stroke: #b2b2b2; stroke-width: 0.5"/>
     </g>
     <g id="line2d_60"/>
     <g id="text_23">
      <!-- 0.6 -->
      <g transform="translate(18.931563 318.083092)scale(0.14 -0.14)">
       <use xlink:href="#DejaVuSans-30"/>
       <use xlink:href="#DejaVuSans-2e" x="63.623047"/>
       <use xlink:href="#DejaVuSans-36" x="95.410156"/>
      </g>
     </g>
    </g>
   </g>
   <g id="line2d_61">
    <path d="M 68.69859 377.252528 
L 68.819023 395.000181 
L 68.966984 398.652957 
L 69.183764 401.716147 
L 69.42463 403.347354 
L 69.637968 404.722657 
L 69.665496 404.838142 
L 69.868512 406.112335 
L 70.157551 407.349599 
L 70.219488 407.549936 
L 70.364008 408.029065 
L 71.244889 410.983297 
L 71.324031 411.141455 
L 71.482315 411.57348 
L 71.8677 412.426135 
L 71.964047 412.602871 
L 72.19459 413.018638 
L 72.352874 413.400192 
L 72.394165 413.508629 
L 72.652236 414.016367 
L 73.158055 414.936468 
L 73.412684 415.265489 
L 73.595055 415.636337 
L 73.698283 415.761683 
L 73.880653 416.058493 
L 73.959795 416.169922 
L 74.128401 416.414767 
L 74.358944 416.755847 
L 74.548196 416.9818 
L 75.14348 417.625385 
L 75.229503 417.725829 
L 75.391228 417.892683 
L 75.552952 418.029052 
L 75.780054 418.30206 
L 75.921133 418.413697 
L 76.34781 418.877919 
L 76.574913 419.062712 
L 76.709109 419.195753 
L 76.898361 419.332748 
L 80.033062 421.711337 
L 80.335865 421.896937 
L 80.738455 422.135479 
L 81.01029 422.290141 
L 81.182337 422.377239 
L 81.402558 422.498587 
L 81.732888 422.710346 
L 81.898054 422.821732 
L 82.527747 423.129074 
L 82.944101 423.298246 
L 84.416825 423.942668 
L 84.702424 424.069575 
L 84.994904 424.200715 
L 85.414699 424.396488 
L 85.638361 424.478989 
L 86.065038 424.629171 
L 86.502038 424.766266 
L 94.78095 427.098281 
L 96.198619 427.399082 
L 96.60121 427.474474 
L 97.310045 427.623658 
L 99.491603 428.064458 
L 100.114414 428.190721 
L 100.627115 428.274526 
L 101.332509 428.399745 
L 102.987603 428.695399 
L 103.682674 428.812182 
L 105.176044 429.046955 
L 105.440997 429.089675 
L 108.210957 429.511194 
L 109.167539 429.652493 
L 109.780028 429.749214 
L 110.815752 429.896715 
L 111.218342 429.94975 
L 113.496248 430.267 
L 114.322074 430.379375 
L 114.717783 430.424456 
L 115.894586 430.570008 
L 117.508389 430.740995 
L 117.91098 430.785627 
L 120.240499 431.04185 
L 122.153664 431.241479 
L 124.128766 431.423559 
L 124.933947 431.496102 
L 132.001648 432.144214 
L 136.209923 432.523423 
L 137.813403 432.655394 
L 140.793261 432.904274 
L 142.475883 433.027823 
L 143.181277 433.083991 
L 144.471631 433.186057 
L 146.309095 433.322404 
L 146.828678 433.358659 
L 148.401189 433.475895 
L 151.676969 433.698364 
L 152.268811 433.736015 
L 154.009929 433.847801 
L 157.07237 434.037654 
L 159.247047 434.165073 
L 162.261314 434.335216 
L 164.697503 434.479935 
L 169.287723 434.748066 
L 184.672186 435.520573 
L 191.671067 435.84437 
L 202.830051 436.335864 
L 203.896743 436.374157 
L 207.74716 436.526564 
L 219.095396 436.957699 
L 231.152465 437.376676 
L 234.951268 437.510435 
L 240.673559 437.694476 
L 246.337354 437.873635 
L 246.946401 437.893061 
L 251.880715 438.042339 
L 256.357384 438.173785 
L 260.89599 438.303986 
L 287.749122 439.001899 
L 288.750436 439.02877 
L 385.974325 440.952771 
L 399.407773 441.158632 
L 400.667159 441.179308 
L 409.651465 441.314808 
L 416.970354 441.427881 
L 432.819345 441.676081 
L 433.910124 441.693985 
L 447.164642 441.908725 
L 453.175973 442.021287 
L 476.887522 442.659381 
L 482.737127 442.877532 
L 485.575907 442.989611 
L 493.459111 443.353955 
L 494.298701 443.397558 
L 496.463055 443.511083 
L 497.894488 443.589803 
L 512.029889 444.546974 
L 514.201125 444.743722 
L 515.611912 444.866362 
L 516.950439 445.004155 
L 519.655022 445.303894 
L 519.895888 445.33358 
L 520.945376 445.465135 
L 521.664533 445.559938 
L 522.617675 445.679185 
L 522.99962 445.719705 
L 530.449265 446.800271 
L 530.94132 446.890979 
L 537.523847 448.353571 
L 538.057193 448.515094 
L 538.566453 448.678796 
L 538.824524 448.745322 
L 543.184201 450.331746 
L 543.476681 450.482806 
L 544.061642 450.736159 
L 544.887468 451.275667 
L 545.049193 451.375003 
L 545.272854 451.489249 
L 545.572216 451.727801 
L 547.684956 454.130423 
L 547.967114 454.638308 
L 548.02561 454.780381 
L 548.438523 456.268234 
L 548.596806 457.741723 
L 548.679389 458.969967 
L 548.737885 461.926289 
L 548.751649 465.10087 
L 548.751649 465.10087 
" clip-path="url(#paeaa16124f)" style="fill: none; stroke: #348abd; stroke-width: 2"/>
   </g>
   <g id="line2d_62">
    <path d="M 68.69859 299.362892 
L 68.822464 332.738217 
L 69.004834 349.3959 
L 69.369575 359.991366 
L 69.376457 360.053571 
L 69.53474 362.879355 
L 69.600118 364.234374 
L 70.00959 369.812715 
L 70.708102 376.002298 
L 70.797567 376.655241 
L 71.093488 378.889764 
L 71.127897 379.043544 
L 71.293063 380.14238 
L 71.375645 380.49668 
L 73.509031 389.669574 
L 73.550322 389.784406 
L 74.08711 391.526941 
L 74.210984 391.77874 
L 74.458732 392.385342 
L 74.513787 392.529009 
L 74.696157 392.972331 
L 74.761535 393.122613 
L 74.940464 393.648487 
L 75.504779 394.99749 
L 75.721558 395.44186 
L 76.832983 397.727007 
L 76.932771 397.873214 
L 77.066968 398.136106 
L 77.239015 398.389852 
L 77.352566 398.562992 
L 77.510849 398.847304 
L 77.583109 398.954732 
L 77.885912 399.439077 
L 78.002905 399.610893 
L 78.150865 399.838636 
L 78.219684 399.937371 
L 78.391731 400.167718 
L 78.584424 400.408701 
L 78.845936 400.753605 
L 78.980133 400.944347 
L 79.155621 401.212368 
L 79.723377 402.03576 
L 79.854133 402.221168 
L 80.029621 402.457035 
L 80.187904 402.622711 
L 80.342747 402.810277 
L 82.476132 405.025707 
L 82.634416 405.1639 
L 83.725195 406.103575 
L 83.914447 406.286611 
L 84.193164 406.492364 
L 84.368652 406.648932 
L 84.846943 407.003813 
L 85.156628 407.308429 
L 85.404376 407.456075 
L 85.603951 407.614948 
L 85.9274 407.812349 
L 86.106329 407.964648 
L 87.303778 408.791928 
L 87.616904 408.979311 
L 87.940352 409.209275 
L 88.243156 409.369258 
L 88.604455 409.60286 
L 88.965754 409.824949 
L 89.220384 409.960912 
L 89.626415 410.185547 
L 89.932659 410.340885 
L 90.259549 410.508862 
L 90.579557 410.704621 
L 92.946927 411.946778 
L 93.411454 412.153687 
L 93.838131 412.364924 
L 94.078998 412.484897 
L 95.266123 413.062823 
L 95.531076 413.184906 
L 95.813234 413.326064 
L 97.127674 413.838273 
L 97.341013 413.922836 
L 97.929415 414.139939 
L 98.270068 414.276336 
L 102.457698 415.75317 
L 102.877493 415.880461 
L 103.324816 416.009904 
L 104.277957 416.301077 
L 104.814745 416.463637 
L 105.003997 416.527921 
L 105.723154 416.726901 
L 106.053485 416.838387 
L 107.271579 417.183295 
L 107.45739 417.242992 
L 107.818689 417.354079 
L 108.121492 417.418938 
L 109.040225 417.672195 
L 109.442815 417.783848 
L 109.738736 417.866405 
L 110.523272 418.078511 
L 110.774461 418.155386 
L 111.424799 418.336998 
L 111.607169 418.389992 
L 112.432996 418.617468 
L 112.642894 418.673937 
L 113.740555 418.933391 
L 114.249815 419.061861 
L 115.412854 419.343685 
L 116.214594 419.529384 
L 117.178058 419.764606 
L 117.907539 419.912057 
L 119.14972 420.198543 
L 119.689948 420.328406 
L 120.261145 420.446303 
L 120.495129 420.489211 
L 121.035357 420.621768 
L 122.24657 420.872737 
L 122.886585 420.991381 
L 128.746514 422.092584 
L 128.956412 422.129346 
L 129.888908 422.286931 
L 130.446341 422.377007 
L 131.279049 422.511329 
L 134.117829 422.99651 
L 135.47012 423.220168 
L 135.910561 423.288657 
L 136.695096 423.414234 
L 136.980694 423.465872 
L 146.133607 424.819698 
L 147.885048 425.038624 
L 148.139678 425.079277 
L 151.694173 425.5555 
L 152.726457 425.682988 
L 153.332063 425.752406 
L 156.70763 426.18149 
L 157.165275 426.239839 
L 157.908519 426.326634 
L 159.80448 426.550809 
L 160.829881 426.668977 
L 163.007999 426.914705 
L 163.441558 426.962156 
L 166.242487 427.271213 
L 166.83777 427.336637 
L 169.20514 427.597654 
L 169.89677 427.671446 
L 172.594471 427.949764 
L 176.41736 428.346294 
L 178.540423 428.55349 
L 179.438509 428.637104 
L 181.048872 428.78465 
L 181.523722 428.826965 
L 187.252895 429.361616 
L 187.824091 429.408302 
L 192.156241 429.789536 
L 193.594555 429.914547 
L 194.310272 429.984452 
L 202.079925 430.676369 
L 202.558216 430.72458 
L 204.044704 430.848973 
L 205.310972 430.961867 
L 206.291641 431.048852 
L 207.692105 431.167701 
L 211.112404 431.438868 
L 215.675097 431.778263 
L 217.467829 431.918464 
L 224.824568 432.474375 
L 228.588962 432.744234 
L 230.670733 432.894676 
L 232.51852 433.02643 
L 235.508701 433.243908 
L 237.452835 433.379683 
L 237.889835 433.406923 
L 239.62063 433.525693 
L 240.539362 433.587976 
L 243.780732 433.806972 
L 245.88659 433.951925 
L 248.804511 434.165092 
L 250.648857 434.27968 
L 263.913699 435.126643 
L 267.571423 435.354329 
L 269.371037 435.46514 
L 270.238155 435.521866 
L 279.081382 436.059801 
L 287.879878 436.568835 
L 288.502688 436.609309 
L 291.692444 436.795138 
L 292.033098 436.817568 
L 294.266271 436.949375 
L 295.474042 437.019639 
L 298.419491 437.185468 
L 302.510774 437.423743 
L 306.646789 437.666061 
L 307.637781 437.717958 
L 316.821662 438.230587 
L 322.248032 438.550215 
L 324.911323 438.702151 
L 329.391433 438.941135 
L 330.213819 438.989535 
L 334.621669 439.218039 
L 339.4734 439.493613 
L 345.020203 439.79604 
L 346.568628 439.87974 
L 349.304179 440.027285 
L 350.040541 440.067968 
L 370.69309 441.21105 
L 372.626901 441.32791 
L 377.089806 441.58283 
L 378.713932 441.677199 
L 382.584995 441.907359 
L 383.29727 441.950348 
L 393.231277 442.535101 
L 393.571931 442.558282 
L 395.870482 442.691519 
L 397.209009 442.77442 
L 410.043733 443.589305 
L 414.000819 443.83362 
L 414.895464 443.889902 
L 416.901535 444.03865 
L 418.068015 444.108333 
L 420.063763 444.24237 
L 424.027731 444.510068 
L 425.937455 444.64599 
L 427.217487 444.736745 
L 430.090676 444.947101 
L 431.226187 445.028112 
L 433.122148 445.167816 
L 437.499029 445.498357 
L 439.787257 445.67899 
L 440.688785 445.750476 
L 446.142682 446.206936 
L 447.550028 446.315401 
L 449.067485 446.448569 
L 452.997044 446.80735 
L 459.768822 447.424868 
L 460.986917 447.545995 
L 482.334537 449.856538 
L 483.404671 449.990739 
L 492.385536 451.252401 
L 493.080607 451.350355 
L 494.061276 451.493569 
L 494.718496 451.606666 
L 495.320662 451.722002 
L 495.558087 451.767523 
L 496.397677 451.894583 
L 497.471252 452.071781 
L 498.217937 452.19681 
L 498.524181 452.246475 
L 499.535819 452.415962 
L 501.448984 452.757041 
L 501.61759 452.789851 
L 502.243842 452.905069 
L 503.117842 453.064404 
L 503.523874 453.14538 
L 508.114094 454.037134 
L 509.414771 454.305546 
L 509.624668 454.343563 
L 523.746305 457.957237 
L 524.035344 458.062792 
L 524.42073 458.196318 
L 524.802675 458.332362 
L 525.188061 458.4593 
L 526.141202 458.812166 
L 526.53347 458.966641 
L 527.655218 459.402852 
L 527.947698 459.517071 
L 528.274588 459.65168 
L 529.950328 460.346997 
L 530.445824 460.570218 
L 530.628194 460.666848 
L 530.934438 460.792961 
L 531.288855 460.97194 
L 531.715532 461.157449 
L 531.904784 461.245687 
L 535.383579 463.123611 
L 535.56939 463.246552 
L 535.85843 463.430564 
L 536.429626 463.835861 
L 536.646406 463.977954 
L 536.821894 464.090655 
L 537.059319 464.233368 
L 537.214162 464.333529 
L 539.942831 466.596112 
L 540.094232 466.739533 
L 540.252516 466.895396 
L 540.455532 467.100703 
L 540.627579 467.269413 
L 540.844358 467.490809 
L 540.937264 467.605698 
L 541.043933 467.770768 
L 541.195335 467.921132 
L 541.298563 468.059469 
L 541.43276 468.243619 
L 541.708035 468.563006 
L 542.63365 469.736748 
L 542.764405 469.911285 
L 542.850429 470.03027 
L 543.18076 470.47557 
L 543.249579 470.566222 
L 543.394098 470.847611 
L 543.631523 471.150282 
L 543.862067 471.545506 
L 543.906799 471.656308 
L 544.178634 472.160881 
L 544.31283 472.387973 
L 544.512405 472.700296 
L 544.853059 473.528495 
L 544.901232 473.659328 
L 545.11113 474.154677 
L 545.190271 474.284622 
L 545.496515 475.013793 
L 545.826846 475.97052 
L 545.971366 476.522049 
L 546.02298 476.639973 
L 546.480626 478.094838 
L 546.525358 478.265117 
L 546.6802 478.781239 
L 546.728374 478.953277 
L 546.927948 479.894741 
L 547.492263 483.110012 
L 547.712484 484.441604 
L 547.805389 484.953033 
L 547.980877 486.938346 
L 548.039373 487.442578 
L 548.521106 497.448053 
L 548.741326 516.980641 
L 548.751649 528.437181 
L 548.751649 528.437181 
" clip-path="url(#paeaa16124f)" style="fill: none; stroke: #a60628; stroke-width: 2"/>
   </g>
   <g id="line2d_63">
    <path d="M 68.69859 372.543871 
L 68.832787 385.0112 
L 69.087417 388.822846 
L 69.104622 388.950521 
L 69.304197 390.712093 
L 69.641409 392.764654 
L 69.713669 393.084728 
L 69.875393 393.947981 
L 70.019913 394.625035 
L 70.143787 395.086677 
L 73.102999 405.35707 
L 73.158055 405.451208 
L 73.367952 406.003936 
L 74.644543 408.910362 
L 74.713362 409.071851 
L 74.937023 409.473227 
L 77.214928 412.701619 
L 77.297511 412.814291 
L 77.958172 413.566111 
L 78.102692 413.720668 
L 78.233448 413.895458 
L 78.443345 414.103564 
L 78.718621 414.387236 
L 79.066156 414.774902 
L 79.682085 415.258546 
L 79.885101 415.461826 
L 80.993085 416.45983 
L 81.646865 417.024336 
L 82.080424 417.400368 
L 82.252471 417.573715 
L 87.572171 421.183267 
L 87.761423 421.294668 
L 88.119282 421.492768 
L 88.391116 421.647046 
L 90.789455 422.82523 
L 91.109462 422.970634 
L 91.364092 423.089238 
L 97.905328 425.506302 
L 98.290714 425.625108 
L 98.579753 425.710607 
L 99.230092 425.872817 
L 99.409021 425.920552 
L 99.949249 426.083798 
L 100.262375 426.174156 
L 101.00906 426.358816 
L 101.270572 426.426786 
L 101.824564 426.543516 
L 101.996611 426.58444 
L 102.629745 426.723489 
L 103.207823 426.852113 
L 103.909776 427.002717 
L 106.686618 427.571423 
L 106.961894 427.624974 
L 107.687933 427.789744 
L 108.056114 427.863078 
L 109.167539 428.066168 
L 109.404965 428.117846 
L 110.000248 428.229044 
L 110.912098 428.389847 
L 111.951264 428.570787 
L 124.878892 430.439302 
L 142.10082 432.107794 
L 144.151623 432.26647 
L 156.146756 433.111268 
L 159.374362 433.298762 
L 172.171235 433.976675 
L 175.32314 434.128369 
L 177.133077 434.215196 
L 184.933698 434.563067 
L 187.603871 434.684616 
L 190.828036 434.822357 
L 234.696638 436.365709 
L 238.732866 436.476743 
L 284.597216 437.593009 
L 291.695885 437.750395 
L 293.030972 437.779527 
L 305.765907 438.038353 
L 309.509655 438.113518 
L 315.548513 438.23048 
L 324.715189 438.402614 
L 347.673171 438.835187 
L 354.967974 438.972707 
L 367.000957 439.182069 
L 379.5432 439.381669 
L 391.12886 439.584623 
L 428.170628 440.231089 
L 431.250274 440.294447 
L 444.814477 440.579631 
L 452.398319 440.762048 
L 457.872862 440.915735 
L 478.064325 441.718213 
L 491.776489 442.712826 
L 492.210048 442.750918 
L 493.503843 442.873289 
L 497.915134 443.308989 
L 498.727197 443.402986 
L 499.714748 443.514951 
L 500.031315 443.54266 
L 526.450887 446.103914 
L 528.095659 446.271043 
L 528.835462 446.341424 
L 531.213155 446.578943 
L 533.205461 446.780357 
L 535.046367 446.98572 
L 535.469603 447.037239 
L 536.832217 447.193777 
L 537.399973 447.271445 
L 538.394406 447.400968 
L 538.941516 447.481102 
L 539.763902 447.619523 
L 544.945964 449.020599 
L 545.093925 449.101296 
L 545.379523 449.240381 
L 545.54813 449.350257 
L 545.737382 449.470866 
L 546.391161 449.9037 
L 546.86257 450.365003 
L 547.038059 450.567457 
L 547.254838 450.751224 
L 547.915499 451.857116 
L 548.042814 452.217082 
L 548.218303 452.763456 
L 548.311208 453.141205 
L 548.700035 459.601633 
L 548.748208 469.474421 
L 548.751649 470.400482 
L 548.751649 470.400482 
" clip-path="url(#paeaa16124f)" style="fill: none; stroke: #7a68a6; stroke-width: 2"/>
   </g>
   <g id="patch_9">
    <path d="M 44.695938 539.890895 
L 44.695938 287.909178 
" style="fill: none; stroke: #bcbcbc; stroke-width: 3; stroke-linejoin: miter; stroke-linecap: square"/>
   </g>
   <g id="patch_10">
    <path d="M 572.754302 539.890895 
L 572.754302 287.909178 
" style="fill: none; stroke: #bcbcbc; stroke-width: 3; stroke-linejoin: miter; stroke-linecap: square"/>
   </g>
   <g id="patch_11">
    <path d="M 44.695938 539.890895 
L 572.754302 539.890895 
" style="fill: none; stroke: #bcbcbc; stroke-width: 3; stroke-linejoin: miter; stroke-linecap: square"/>
   </g>
   <g id="patch_12">
    <path d="M 44.695938 287.909177 
L 572.754302 287.909177 
" style="fill: none; stroke: #bcbcbc; stroke-width: 3; stroke-linejoin: miter; stroke-linecap: square"/>
   </g>
   <g id="legend_2">
    <g id="patch_13">
     <path d="M 450.613052 360.757303 
L 562.954302 360.757303 
Q 565.754302 360.757303 565.754302 357.957303 
L 565.754302 297.709178 
Q 565.754302 294.909178 562.954302 294.909178 
L 450.613052 294.909178 
Q 447.813052 294.909178 447.813052 297.709178 
L 447.813052 357.957303 
Q 447.813052 360.757303 450.613052 360.757303 
z
" style="fill: #eeeeee; opacity: 0.8; stroke: #cccccc; stroke-width: 0.5; stroke-linejoin: miter"/>
    </g>
    <g id="line2d_64">
     <path d="M 453.413052 306.24699 
L 467.413052 306.24699 
L 481.413052 306.24699 
" style="fill: none; stroke: #348abd; stroke-width: 2"/>
    </g>
    <g id="text_24">
     <!-- S Learner -->
     <g transform="translate(492.613052 311.14699)scale(0.14 -0.14)">
      <defs>
       <path id="DejaVuSans-53" d="M 3425 4513 
L 3425 3897 
Q 3066 4069 2747 4153 
Q 2428 4238 2131 4238 
Q 1616 4238 1336 4038 
Q 1056 3838 1056 3469 
Q 1056 3159 1242 3001 
Q 1428 2844 1947 2747 
L 2328 2669 
Q 3034 2534 3370 2195 
Q 3706 1856 3706 1288 
Q 3706 609 3251 259 
Q 2797 -91 1919 -91 
Q 1588 -91 1214 -16 
Q 841 59 441 206 
L 441 856 
Q 825 641 1194 531 
Q 1563 422 1919 422 
Q 2459 422 2753 634 
Q 3047 847 3047 1241 
Q 3047 1584 2836 1778 
Q 2625 1972 2144 2069 
L 1759 2144 
Q 1053 2284 737 2584 
Q 422 2884 422 3419 
Q 422 4038 858 4394 
Q 1294 4750 2059 4750 
Q 2388 4750 2728 4690 
Q 3069 4631 3425 4513 
z
" transform="scale(0.015625)"/>
       <path id="DejaVuSans-4c" d="M 628 4666 
L 1259 4666 
L 1259 531 
L 3531 531 
L 3531 0 
L 628 0 
L 628 4666 
z
" transform="scale(0.015625)"/>
       <path id="DejaVuSans-6e" d="M 3513 2113 
L 3513 0 
L 2938 0 
L 2938 2094 
Q 2938 2591 2744 2837 
Q 2550 3084 2163 3084 
Q 1697 3084 1428 2787 
Q 1159 2491 1159 1978 
L 1159 0 
L 581 0 
L 581 3500 
L 1159 3500 
L 1159 2956 
Q 1366 3272 1645 3428 
Q 1925 3584 2291 3584 
Q 2894 3584 3203 3211 
Q 3513 2838 3513 2113 
z
" transform="scale(0.015625)"/>
      </defs>
      <use xlink:href="#DejaVuSans-53"/>
      <use xlink:href="#DejaVuSans-20" x="63.476562"/>
      <use xlink:href="#DejaVuSans-4c" x="95.263672"/>
      <use xlink:href="#DejaVuSans-65" x="149.226562"/>
      <use xlink:href="#DejaVuSans-61" x="210.75"/>
      <use xlink:href="#DejaVuSans-72" x="272.029297"/>
      <use xlink:href="#DejaVuSans-6e" x="311.392578"/>
      <use xlink:href="#DejaVuSans-65" x="374.771484"/>
      <use xlink:href="#DejaVuSans-72" x="436.294922"/>
     </g>
    </g>
    <g id="line2d_65">
     <path d="M 453.413052 326.796365 
L 467.413052 326.796365 
L 481.413052 326.796365 
" style="fill: none; stroke: #a60628; stroke-width: 2"/>
    </g>
    <g id="text_25">
     <!-- T Learner -->
     <g transform="translate(492.613052 331.696365)scale(0.14 -0.14)">
      <defs>
       <path id="DejaVuSans-54" d="M -19 4666 
L 3928 4666 
L 3928 4134 
L 2272 4134 
L 2272 0 
L 1638 0 
L 1638 4134 
L -19 4134 
L -19 4666 
z
" transform="scale(0.015625)"/>
      </defs>
      <use xlink:href="#DejaVuSans-54"/>
      <use xlink:href="#DejaVuSans-20" x="61.083984"/>
      <use xlink:href="#DejaVuSans-4c" x="92.871094"/>
      <use xlink:href="#DejaVuSans-65" x="146.833984"/>
      <use xlink:href="#DejaVuSans-61" x="208.357422"/>
      <use xlink:href="#DejaVuSans-72" x="269.636719"/>
      <use xlink:href="#DejaVuSans-6e" x="309"/>
      <use xlink:href="#DejaVuSans-65" x="372.378906"/>
      <use xlink:href="#DejaVuSans-72" x="433.902344"/>
     </g>
    </g>
    <g id="line2d_66">
     <path d="M 453.413052 347.34574 
L 467.413052 347.34574 
L 481.413052 347.34574 
" style="fill: none; stroke: #7a68a6; stroke-width: 2"/>
    </g>
    <g id="text_26">
     <!-- X Learner -->
     <g transform="translate(492.613052 352.24574)scale(0.14 -0.14)">
      <defs>
       <path id="DejaVuSans-58" d="M 403 4666 
L 1081 4666 
L 2241 2931 
L 3406 4666 
L 4084 4666 
L 2584 2425 
L 4184 0 
L 3506 0 
L 2194 1984 
L 872 0 
L 191 0 
L 1856 2491 
L 403 4666 
z
" transform="scale(0.015625)"/>
      </defs>
      <use xlink:href="#DejaVuSans-58"/>
      <use xlink:href="#DejaVuSans-20" x="68.505859"/>
      <use xlink:href="#DejaVuSans-4c" x="100.292969"/>
      <use xlink:href="#DejaVuSans-65" x="154.255859"/>
      <use xlink:href="#DejaVuSans-61" x="215.779297"/>
      <use xlink:href="#DejaVuSans-72" x="277.058594"/>
      <use xlink:href="#DejaVuSans-6e" x="316.421875"/>
      <use xlink:href="#DejaVuSans-65" x="379.800781"/>
      <use xlink:href="#DejaVuSans-72" x="441.324219"/>
     </g>
    </g>
   </g>
  </g>
  <g id="text_27">
   <!-- np.sort(a=uplift_prediction)[::-1] (train) -->
   <g transform="translate(126.739448 19.965375)scale(0.168 -0.168)">
    <defs>
     <path id="DejaVuSans-73" d="M 2834 3397 
L 2834 2853 
Q 2591 2978 2328 3040 
Q 2066 3103 1784 3103 
Q 1356 3103 1142 2972 
Q 928 2841 928 2578 
Q 928 2378 1081 2264 
Q 1234 2150 1697 2047 
L 1894 2003 
Q 2506 1872 2764 1633 
Q 3022 1394 3022 966 
Q 3022 478 2636 193 
Q 2250 -91 1575 -91 
Q 1294 -91 989 -36 
Q 684 19 347 128 
L 347 722 
Q 666 556 975 473 
Q 1284 391 1588 391 
Q 1994 391 2212 530 
Q 2431 669 2431 922 
Q 2431 1156 2273 1281 
Q 2116 1406 1581 1522 
L 1381 1569 
Q 847 1681 609 1914 
Q 372 2147 372 2553 
Q 372 3047 722 3315 
Q 1072 3584 1716 3584 
Q 2034 3584 2315 3537 
Q 2597 3491 2834 3397 
z
" transform="scale(0.015625)"/>
     <path id="DejaVuSans-28" d="M 1984 4856 
Q 1566 4138 1362 3434 
Q 1159 2731 1159 2009 
Q 1159 1288 1364 580 
Q 1569 -128 1984 -844 
L 1484 -844 
Q 1016 -109 783 600 
Q 550 1309 550 2009 
Q 550 2706 781 3412 
Q 1013 4119 1484 4856 
L 1984 4856 
z
" transform="scale(0.015625)"/>
     <path id="DejaVuSans-3d" d="M 678 2906 
L 4684 2906 
L 4684 2381 
L 678 2381 
L 678 2906 
z
M 678 1631 
L 4684 1631 
L 4684 1100 
L 678 1100 
L 678 1631 
z
" transform="scale(0.015625)"/>
     <path id="DejaVuSans-69" d="M 603 3500 
L 1178 3500 
L 1178 0 
L 603 0 
L 603 3500 
z
M 603 4863 
L 1178 4863 
L 1178 4134 
L 603 4134 
L 603 4863 
z
" transform="scale(0.015625)"/>
     <path id="DejaVuSans-5f" d="M 3263 -1063 
L 3263 -1509 
L -63 -1509 
L -63 -1063 
L 3263 -1063 
z
" transform="scale(0.015625)"/>
     <path id="DejaVuSans-29" d="M 513 4856 
L 1013 4856 
Q 1481 4119 1714 3412 
Q 1947 2706 1947 2009 
Q 1947 1309 1714 600 
Q 1481 -109 1013 -844 
L 513 -844 
Q 928 -128 1133 580 
Q 1338 1288 1338 2009 
Q 1338 2731 1133 3434 
Q 928 4138 513 4856 
z
" transform="scale(0.015625)"/>
     <path id="DejaVuSans-5b" d="M 550 4863 
L 1875 4863 
L 1875 4416 
L 1125 4416 
L 1125 -397 
L 1875 -397 
L 1875 -844 
L 550 -844 
L 550 4863 
z
" transform="scale(0.015625)"/>
     <path id="DejaVuSans-3a" d="M 750 794 
L 1409 794 
L 1409 0 
L 750 0 
L 750 794 
z
M 750 3309 
L 1409 3309 
L 1409 2516 
L 750 2516 
L 750 3309 
z
" transform="scale(0.015625)"/>
     <path id="DejaVuSans-2d" d="M 313 2009 
L 1997 2009 
L 1997 1497 
L 313 1497 
L 313 2009 
z
" transform="scale(0.015625)"/>
     <path id="DejaVuSans-5d" d="M 1947 4863 
L 1947 -844 
L 622 -844 
L 622 -397 
L 1369 -397 
L 1369 4416 
L 622 4416 
L 622 4863 
L 1947 4863 
z
" transform="scale(0.015625)"/>
    </defs>
    <use xlink:href="#DejaVuSans-6e"/>
    <use xlink:href="#DejaVuSans-70" x="63.378906"/>
    <use xlink:href="#DejaVuSans-2e" x="126.855469"/>
    <use xlink:href="#DejaVuSans-73" x="158.642578"/>
    <use xlink:href="#DejaVuSans-6f" x="210.742188"/>
    <use xlink:href="#DejaVuSans-72" x="271.923828"/>
    <use xlink:href="#DejaVuSans-74" x="313.037109"/>
    <use xlink:href="#DejaVuSans-28" x="352.246094"/>
    <use xlink:href="#DejaVuSans-61" x="391.259766"/>
    <use xlink:href="#DejaVuSans-3d" x="452.539062"/>
    <use xlink:href="#DejaVuSans-75" x="536.328125"/>
    <use xlink:href="#DejaVuSans-70" x="599.707031"/>
    <use xlink:href="#DejaVuSans-6c" x="663.183594"/>
    <use xlink:href="#DejaVuSans-69" x="690.966797"/>
    <use xlink:href="#DejaVuSans-66" x="718.75"/>
    <use xlink:href="#DejaVuSans-74" x="752.205078"/>
    <use xlink:href="#DejaVuSans-5f" x="791.414062"/>
    <use xlink:href="#DejaVuSans-70" x="841.414062"/>
    <use xlink:href="#DejaVuSans-72" x="904.890625"/>
    <use xlink:href="#DejaVuSans-65" x="943.753906"/>
    <use xlink:href="#DejaVuSans-64" x="1005.277344"/>
    <use xlink:href="#DejaVuSans-69" x="1068.753906"/>
    <use xlink:href="#DejaVuSans-63" x="1096.537109"/>
    <use xlink:href="#DejaVuSans-74" x="1151.517578"/>
    <use xlink:href="#DejaVuSans-69" x="1190.726562"/>
    <use xlink:href="#DejaVuSans-6f" x="1218.509766"/>
    <use xlink:href="#DejaVuSans-6e" x="1279.691406"/>
    <use xlink:href="#DejaVuSans-29" x="1343.070312"/>
    <use xlink:href="#DejaVuSans-5b" x="1382.083984"/>
    <use xlink:href="#DejaVuSans-3a" x="1421.097656"/>
    <use xlink:href="#DejaVuSans-3a" x="1454.789062"/>
    <use xlink:href="#DejaVuSans-2d" x="1488.480469"/>
    <use xlink:href="#DejaVuSans-31" x="1524.564453"/>
    <use xlink:href="#DejaVuSans-5d" x="1588.1875"/>
    <use xlink:href="#DejaVuSans-20" x="1627.201172"/>
    <use xlink:href="#DejaVuSans-28" x="1658.988281"/>
    <use xlink:href="#DejaVuSans-74" x="1698.001953"/>
    <use xlink:href="#DejaVuSans-72" x="1737.210938"/>
    <use xlink:href="#DejaVuSans-61" x="1778.324219"/>
    <use xlink:href="#DejaVuSans-69" x="1839.603516"/>
    <use xlink:href="#DejaVuSans-6e" x="1867.386719"/>
    <use xlink:href="#DejaVuSans-29" x="1930.765625"/>
   </g>
  </g>
 </g>
 <defs>
  <clipPath id="p13a9bc9c80">
   <rect x="44.695938" y="29.92698" width="528.058364" height="251.981718"/>
  </clipPath>
  <clipPath id="paeaa16124f">
   <rect x="44.695938" y="287.909177" width="528.058364" height="251.981717"/>
  </clipPath>
 </defs>
</svg>
