<?xml version="1.0" encoding="utf-8" standalone="no"?>
<!DOCTYPE svg PUBLIC "-//W3C//DTD SVG 1.1//EN"
  "http://www.w3.org/Graphics/SVG/1.1/DTD/svg11.dtd">
<svg xmlns:xlink="http://www.w3.org/1999/xlink" width="697.504688pt" height="519.327825pt" viewBox="0 0 697.504688 519.327825" xmlns="http://www.w3.org/2000/svg" version="1.1">
 <metadata>
  <rdf:RDF xmlns:dc="http://purl.org/dc/elements/1.1/" xmlns:cc="http://creativecommons.org/ns#" xmlns:rdf="http://www.w3.org/1999/02/22-rdf-syntax-ns#">
   <cc:Work>
    <dc:type rdf:resource="http://purl.org/dc/dcmitype/StillImage"/>
    <dc:date>2022-04-07T21:42:52.241880</dc:date>
    <dc:format>image/svg+xml</dc:format>
    <dc:creator>
     <cc:Agent>
      <dc:title>Matplotlib v3.5.1, https://matplotlib.org/</dc:title>
     </cc:Agent>
    </dc:creator>
   </cc:Work>
  </rdf:RDF>
 </metadata>
 <defs>
  <style type="text/css">*{stroke-linejoin: round; stroke-linecap: butt}</style>
 </defs>
 <g id="figure_1">
  <g id="patch_1">
   <path d="M 0 519.327825 
L 697.504688 519.327825 
L 697.504688 0 
L 0 0 
z
" style="fill: #f0f0f0"/>
  </g>
  <g id="axes_1">
   <g id="patch_2">
    <path d="M 189.184687 495.07845 
L 690.304688 495.07845 
L 690.304688 28.51845 
L 189.184687 28.51845 
z
" style="fill: #eeeeee"/>
   </g>
   <g id="matplotlib.axis_1">
    <g id="xtick_1">
     <g id="line2d_1">
      <path d="M 189.184687 495.07845 
L 189.184687 28.51845 
" clip-path="url(#p02b49bd6cc)" style="fill: none; stroke-dasharray: 1.85,0.8; stroke-dashoffset: 0; stroke: #b2b2b2; stroke-width: 0.5"/>
     </g>
     <g id="line2d_2"/>
     <g id="text_1">
      <!-- 0.000 -->
      <g transform="translate(169.145 509.216262)scale(0.14 -0.14)">
       <defs>
        <path id="DejaVuSans-30" d="M 2034 4250 
Q 1547 4250 1301 3770 
Q 1056 3291 1056 2328 
Q 1056 1369 1301 889 
Q 1547 409 2034 409 
Q 2525 409 2770 889 
Q 3016 1369 3016 2328 
Q 3016 3291 2770 3770 
Q 2525 4250 2034 4250 
z
M 2034 4750 
Q 2819 4750 3233 4129 
Q 3647 3509 3647 2328 
Q 3647 1150 3233 529 
Q 2819 -91 2034 -91 
Q 1250 -91 836 529 
Q 422 1150 422 2328 
Q 422 3509 836 4129 
Q 1250 4750 2034 4750 
z
" transform="scale(0.015625)"/>
        <path id="DejaVuSans-2e" d="M 684 794 
L 1344 794 
L 1344 0 
L 684 0 
L 684 794 
z
" transform="scale(0.015625)"/>
       </defs>
       <use xlink:href="#DejaVuSans-30"/>
       <use xlink:href="#DejaVuSans-2e" x="63.623047"/>
       <use xlink:href="#DejaVuSans-30" x="95.410156"/>
       <use xlink:href="#DejaVuSans-30" x="159.033203"/>
       <use xlink:href="#DejaVuSans-30" x="222.65625"/>
      </g>
     </g>
    </g>
    <g id="xtick_2">
     <g id="line2d_3">
      <path d="M 294.899751 495.07845 
L 294.899751 28.51845 
" clip-path="url(#p02b49bd6cc)" style="fill: none; stroke-dasharray: 1.85,0.8; stroke-dashoffset: 0; stroke: #b2b2b2; stroke-width: 0.5"/>
     </g>
     <g id="line2d_4"/>
     <g id="text_2">
      <!-- 0.005 -->
      <g transform="translate(274.860064 509.216262)scale(0.14 -0.14)">
       <defs>
        <path id="DejaVuSans-35" d="M 691 4666 
L 3169 4666 
L 3169 4134 
L 1269 4134 
L 1269 2991 
Q 1406 3038 1543 3061 
Q 1681 3084 1819 3084 
Q 2600 3084 3056 2656 
Q 3513 2228 3513 1497 
Q 3513 744 3044 326 
Q 2575 -91 1722 -91 
Q 1428 -91 1123 -41 
Q 819 9 494 109 
L 494 744 
Q 775 591 1075 516 
Q 1375 441 1709 441 
Q 2250 441 2565 725 
Q 2881 1009 2881 1497 
Q 2881 1984 2565 2268 
Q 2250 2553 1709 2553 
Q 1456 2553 1204 2497 
Q 953 2441 691 2322 
L 691 4666 
z
" transform="scale(0.015625)"/>
       </defs>
       <use xlink:href="#DejaVuSans-30"/>
       <use xlink:href="#DejaVuSans-2e" x="63.623047"/>
       <use xlink:href="#DejaVuSans-30" x="95.410156"/>
       <use xlink:href="#DejaVuSans-30" x="159.033203"/>
       <use xlink:href="#DejaVuSans-35" x="222.65625"/>
      </g>
     </g>
    </g>
    <g id="xtick_3">
     <g id="line2d_5">
      <path d="M 400.614815 495.07845 
L 400.614815 28.51845 
" clip-path="url(#p02b49bd6cc)" style="fill: none; stroke-dasharray: 1.85,0.8; stroke-dashoffset: 0; stroke: #b2b2b2; stroke-width: 0.5"/>
     </g>
     <g id="line2d_6"/>
     <g id="text_3">
      <!-- 0.010 -->
      <g transform="translate(380.575128 509.216262)scale(0.14 -0.14)">
       <defs>
        <path id="DejaVuSans-31" d="M 794 531 
L 1825 531 
L 1825 4091 
L 703 3866 
L 703 4441 
L 1819 4666 
L 2450 4666 
L 2450 531 
L 3481 531 
L 3481 0 
L 794 0 
L 794 531 
z
" transform="scale(0.015625)"/>
       </defs>
       <use xlink:href="#DejaVuSans-30"/>
       <use xlink:href="#DejaVuSans-2e" x="63.623047"/>
       <use xlink:href="#DejaVuSans-30" x="95.410156"/>
       <use xlink:href="#DejaVuSans-31" x="159.033203"/>
       <use xlink:href="#DejaVuSans-30" x="222.65625"/>
      </g>
     </g>
    </g>
    <g id="xtick_4">
     <g id="line2d_7">
      <path d="M 506.329879 495.07845 
L 506.329879 28.51845 
" clip-path="url(#p02b49bd6cc)" style="fill: none; stroke-dasharray: 1.85,0.8; stroke-dashoffset: 0; stroke: #b2b2b2; stroke-width: 0.5"/>
     </g>
     <g id="line2d_8"/>
     <g id="text_4">
      <!-- 0.015 -->
      <g transform="translate(486.290191 509.216262)scale(0.14 -0.14)">
       <use xlink:href="#DejaVuSans-30"/>
       <use xlink:href="#DejaVuSans-2e" x="63.623047"/>
       <use xlink:href="#DejaVuSans-30" x="95.410156"/>
       <use xlink:href="#DejaVuSans-31" x="159.033203"/>
       <use xlink:href="#DejaVuSans-35" x="222.65625"/>
      </g>
     </g>
    </g>
    <g id="xtick_5">
     <g id="line2d_9">
      <path d="M 612.044943 495.07845 
L 612.044943 28.51845 
" clip-path="url(#p02b49bd6cc)" style="fill: none; stroke-dasharray: 1.85,0.8; stroke-dashoffset: 0; stroke: #b2b2b2; stroke-width: 0.5"/>
     </g>
     <g id="line2d_10"/>
     <g id="text_5">
      <!-- 0.020 -->
      <g transform="translate(592.005255 509.216262)scale(0.14 -0.14)">
       <defs>
        <path id="DejaVuSans-32" d="M 1228 531 
L 3431 531 
L 3431 0 
L 469 0 
L 469 531 
Q 828 903 1448 1529 
Q 2069 2156 2228 2338 
Q 2531 2678 2651 2914 
Q 2772 3150 2772 3378 
Q 2772 3750 2511 3984 
Q 2250 4219 1831 4219 
Q 1534 4219 1204 4116 
Q 875 4013 500 3803 
L 500 4441 
Q 881 4594 1212 4672 
Q 1544 4750 1819 4750 
Q 2544 4750 2975 4387 
Q 3406 4025 3406 3419 
Q 3406 3131 3298 2873 
Q 3191 2616 2906 2266 
Q 2828 2175 2409 1742 
Q 1991 1309 1228 531 
z
" transform="scale(0.015625)"/>
       </defs>
       <use xlink:href="#DejaVuSans-30"/>
       <use xlink:href="#DejaVuSans-2e" x="63.623047"/>
       <use xlink:href="#DejaVuSans-30" x="95.410156"/>
       <use xlink:href="#DejaVuSans-32" x="159.033203"/>
       <use xlink:href="#DejaVuSans-30" x="222.65625"/>
      </g>
     </g>
    </g>
   </g>
   <g id="matplotlib.axis_2">
    <g id="ytick_1">
     <g id="line2d_11"/>
     <g id="text_6">
      <!-- first_redeem_time -->
      <g transform="translate(58.892812 49.389356)scale(0.14 -0.14)">
       <defs>
        <path id="DejaVuSans-66" d="M 2375 4863 
L 2375 4384 
L 1825 4384 
Q 1516 4384 1395 4259 
Q 1275 4134 1275 3809 
L 1275 3500 
L 2222 3500 
L 2222 3053 
L 1275 3053 
L 1275 0 
L 697 0 
L 697 3053 
L 147 3053 
L 147 3500 
L 697 3500 
L 697 3744 
Q 697 4328 969 4595 
Q 1241 4863 1831 4863 
L 2375 4863 
z
" transform="scale(0.015625)"/>
        <path id="DejaVuSans-69" d="M 603 3500 
L 1178 3500 
L 1178 0 
L 603 0 
L 603 3500 
z
M 603 4863 
L 1178 4863 
L 1178 4134 
L 603 4134 
L 603 4863 
z
" transform="scale(0.015625)"/>
        <path id="DejaVuSans-72" d="M 2631 2963 
Q 2534 3019 2420 3045 
Q 2306 3072 2169 3072 
Q 1681 3072 1420 2755 
Q 1159 2438 1159 1844 
L 1159 0 
L 581 0 
L 581 3500 
L 1159 3500 
L 1159 2956 
Q 1341 3275 1631 3429 
Q 1922 3584 2338 3584 
Q 2397 3584 2469 3576 
Q 2541 3569 2628 3553 
L 2631 2963 
z
" transform="scale(0.015625)"/>
        <path id="DejaVuSans-73" d="M 2834 3397 
L 2834 2853 
Q 2591 2978 2328 3040 
Q 2066 3103 1784 3103 
Q 1356 3103 1142 2972 
Q 928 2841 928 2578 
Q 928 2378 1081 2264 
Q 1234 2150 1697 2047 
L 1894 2003 
Q 2506 1872 2764 1633 
Q 3022 1394 3022 966 
Q 3022 478 2636 193 
Q 2250 -91 1575 -91 
Q 1294 -91 989 -36 
Q 684 19 347 128 
L 347 722 
Q 666 556 975 473 
Q 1284 391 1588 391 
Q 1994 391 2212 530 
Q 2431 669 2431 922 
Q 2431 1156 2273 1281 
Q 2116 1406 1581 1522 
L 1381 1569 
Q 847 1681 609 1914 
Q 372 2147 372 2553 
Q 372 3047 722 3315 
Q 1072 3584 1716 3584 
Q 2034 3584 2315 3537 
Q 2597 3491 2834 3397 
z
" transform="scale(0.015625)"/>
        <path id="DejaVuSans-74" d="M 1172 4494 
L 1172 3500 
L 2356 3500 
L 2356 3053 
L 1172 3053 
L 1172 1153 
Q 1172 725 1289 603 
Q 1406 481 1766 481 
L 2356 481 
L 2356 0 
L 1766 0 
Q 1100 0 847 248 
Q 594 497 594 1153 
L 594 3053 
L 172 3053 
L 172 3500 
L 594 3500 
L 594 4494 
L 1172 4494 
z
" transform="scale(0.015625)"/>
        <path id="DejaVuSans-5f" d="M 3263 -1063 
L 3263 -1509 
L -63 -1509 
L -63 -1063 
L 3263 -1063 
z
" transform="scale(0.015625)"/>
        <path id="DejaVuSans-65" d="M 3597 1894 
L 3597 1613 
L 953 1613 
Q 991 1019 1311 708 
Q 1631 397 2203 397 
Q 2534 397 2845 478 
Q 3156 559 3463 722 
L 3463 178 
Q 3153 47 2828 -22 
Q 2503 -91 2169 -91 
Q 1331 -91 842 396 
Q 353 884 353 1716 
Q 353 2575 817 3079 
Q 1281 3584 2069 3584 
Q 2775 3584 3186 3129 
Q 3597 2675 3597 1894 
z
M 3022 2063 
Q 3016 2534 2758 2815 
Q 2500 3097 2075 3097 
Q 1594 3097 1305 2825 
Q 1016 2553 972 2059 
L 3022 2063 
z
" transform="scale(0.015625)"/>
        <path id="DejaVuSans-64" d="M 2906 2969 
L 2906 4863 
L 3481 4863 
L 3481 0 
L 2906 0 
L 2906 525 
Q 2725 213 2448 61 
Q 2172 -91 1784 -91 
Q 1150 -91 751 415 
Q 353 922 353 1747 
Q 353 2572 751 3078 
Q 1150 3584 1784 3584 
Q 2172 3584 2448 3432 
Q 2725 3281 2906 2969 
z
M 947 1747 
Q 947 1113 1208 752 
Q 1469 391 1925 391 
Q 2381 391 2643 752 
Q 2906 1113 2906 1747 
Q 2906 2381 2643 2742 
Q 2381 3103 1925 3103 
Q 1469 3103 1208 2742 
Q 947 2381 947 1747 
z
" transform="scale(0.015625)"/>
        <path id="DejaVuSans-6d" d="M 3328 2828 
Q 3544 3216 3844 3400 
Q 4144 3584 4550 3584 
Q 5097 3584 5394 3201 
Q 5691 2819 5691 2113 
L 5691 0 
L 5113 0 
L 5113 2094 
Q 5113 2597 4934 2840 
Q 4756 3084 4391 3084 
Q 3944 3084 3684 2787 
Q 3425 2491 3425 1978 
L 3425 0 
L 2847 0 
L 2847 2094 
Q 2847 2600 2669 2842 
Q 2491 3084 2119 3084 
Q 1678 3084 1418 2786 
Q 1159 2488 1159 1978 
L 1159 0 
L 581 0 
L 581 3500 
L 1159 3500 
L 1159 2956 
Q 1356 3278 1631 3431 
Q 1906 3584 2284 3584 
Q 2666 3584 2933 3390 
Q 3200 3197 3328 2828 
z
" transform="scale(0.015625)"/>
       </defs>
       <use xlink:href="#DejaVuSans-66"/>
       <use xlink:href="#DejaVuSans-69" x="35.205078"/>
       <use xlink:href="#DejaVuSans-72" x="62.988281"/>
       <use xlink:href="#DejaVuSans-73" x="104.101562"/>
       <use xlink:href="#DejaVuSans-74" x="156.201172"/>
       <use xlink:href="#DejaVuSans-5f" x="195.410156"/>
       <use xlink:href="#DejaVuSans-72" x="245.410156"/>
       <use xlink:href="#DejaVuSans-65" x="284.273438"/>
       <use xlink:href="#DejaVuSans-64" x="345.796875"/>
       <use xlink:href="#DejaVuSans-65" x="409.273438"/>
       <use xlink:href="#DejaVuSans-65" x="470.796875"/>
       <use xlink:href="#DejaVuSans-6d" x="532.320312"/>
       <use xlink:href="#DejaVuSans-5f" x="629.732422"/>
       <use xlink:href="#DejaVuSans-74" x="679.732422"/>
       <use xlink:href="#DejaVuSans-69" x="718.941406"/>
       <use xlink:href="#DejaVuSans-6d" x="746.724609"/>
       <use xlink:href="#DejaVuSans-65" x="844.136719"/>
      </g>
     </g>
    </g>
    <g id="ytick_2">
     <g id="line2d_12"/>
     <g id="text_7">
      <!-- age -->
      <g transform="translate(159.603125 80.493356)scale(0.14 -0.14)">
       <defs>
        <path id="DejaVuSans-61" d="M 2194 1759 
Q 1497 1759 1228 1600 
Q 959 1441 959 1056 
Q 959 750 1161 570 
Q 1363 391 1709 391 
Q 2188 391 2477 730 
Q 2766 1069 2766 1631 
L 2766 1759 
L 2194 1759 
z
M 3341 1997 
L 3341 0 
L 2766 0 
L 2766 531 
Q 2569 213 2275 61 
Q 1981 -91 1556 -91 
Q 1019 -91 701 211 
Q 384 513 384 1019 
Q 384 1609 779 1909 
Q 1175 2209 1959 2209 
L 2766 2209 
L 2766 2266 
Q 2766 2663 2505 2880 
Q 2244 3097 1772 3097 
Q 1472 3097 1187 3025 
Q 903 2953 641 2809 
L 641 3341 
Q 956 3463 1253 3523 
Q 1550 3584 1831 3584 
Q 2591 3584 2966 3190 
Q 3341 2797 3341 1997 
z
" transform="scale(0.015625)"/>
        <path id="DejaVuSans-67" d="M 2906 1791 
Q 2906 2416 2648 2759 
Q 2391 3103 1925 3103 
Q 1463 3103 1205 2759 
Q 947 2416 947 1791 
Q 947 1169 1205 825 
Q 1463 481 1925 481 
Q 2391 481 2648 825 
Q 2906 1169 2906 1791 
z
M 3481 434 
Q 3481 -459 3084 -895 
Q 2688 -1331 1869 -1331 
Q 1566 -1331 1297 -1286 
Q 1028 -1241 775 -1147 
L 775 -588 
Q 1028 -725 1275 -790 
Q 1522 -856 1778 -856 
Q 2344 -856 2625 -561 
Q 2906 -266 2906 331 
L 2906 616 
Q 2728 306 2450 153 
Q 2172 0 1784 0 
Q 1141 0 747 490 
Q 353 981 353 1791 
Q 353 2603 747 3093 
Q 1141 3584 1784 3584 
Q 2172 3584 2450 3431 
Q 2728 3278 2906 2969 
L 2906 3500 
L 3481 3500 
L 3481 434 
z
" transform="scale(0.015625)"/>
       </defs>
       <use xlink:href="#DejaVuSans-61"/>
       <use xlink:href="#DejaVuSans-67" x="61.279297"/>
       <use xlink:href="#DejaVuSans-65" x="124.755859"/>
      </g>
     </g>
    </g>
    <g id="ytick_3">
     <g id="line2d_13"/>
     <g id="text_8">
      <!-- issue_redeem_delay -->
      <g transform="translate(43.656875 111.597356)scale(0.14 -0.14)">
       <defs>
        <path id="DejaVuSans-75" d="M 544 1381 
L 544 3500 
L 1119 3500 
L 1119 1403 
Q 1119 906 1312 657 
Q 1506 409 1894 409 
Q 2359 409 2629 706 
Q 2900 1003 2900 1516 
L 2900 3500 
L 3475 3500 
L 3475 0 
L 2900 0 
L 2900 538 
Q 2691 219 2414 64 
Q 2138 -91 1772 -91 
Q 1169 -91 856 284 
Q 544 659 544 1381 
z
M 1991 3584 
L 1991 3584 
z
" transform="scale(0.015625)"/>
        <path id="DejaVuSans-6c" d="M 603 4863 
L 1178 4863 
L 1178 0 
L 603 0 
L 603 4863 
z
" transform="scale(0.015625)"/>
        <path id="DejaVuSans-79" d="M 2059 -325 
Q 1816 -950 1584 -1140 
Q 1353 -1331 966 -1331 
L 506 -1331 
L 506 -850 
L 844 -850 
Q 1081 -850 1212 -737 
Q 1344 -625 1503 -206 
L 1606 56 
L 191 3500 
L 800 3500 
L 1894 763 
L 2988 3500 
L 3597 3500 
L 2059 -325 
z
" transform="scale(0.015625)"/>
       </defs>
       <use xlink:href="#DejaVuSans-69"/>
       <use xlink:href="#DejaVuSans-73" x="27.783203"/>
       <use xlink:href="#DejaVuSans-73" x="79.882812"/>
       <use xlink:href="#DejaVuSans-75" x="131.982422"/>
       <use xlink:href="#DejaVuSans-65" x="195.361328"/>
       <use xlink:href="#DejaVuSans-5f" x="256.884766"/>
       <use xlink:href="#DejaVuSans-72" x="306.884766"/>
       <use xlink:href="#DejaVuSans-65" x="345.748047"/>
       <use xlink:href="#DejaVuSans-64" x="407.271484"/>
       <use xlink:href="#DejaVuSans-65" x="470.748047"/>
       <use xlink:href="#DejaVuSans-65" x="532.271484"/>
       <use xlink:href="#DejaVuSans-6d" x="593.794922"/>
       <use xlink:href="#DejaVuSans-5f" x="691.207031"/>
       <use xlink:href="#DejaVuSans-64" x="741.207031"/>
       <use xlink:href="#DejaVuSans-65" x="804.683594"/>
       <use xlink:href="#DejaVuSans-6c" x="866.207031"/>
       <use xlink:href="#DejaVuSans-61" x="893.990234"/>
       <use xlink:href="#DejaVuSans-79" x="955.269531"/>
      </g>
     </g>
    </g>
    <g id="ytick_4">
     <g id="line2d_14"/>
     <g id="text_9">
      <!-- mean_product_quantity -->
      <g transform="translate(19.775937 142.701356)scale(0.14 -0.14)">
       <defs>
        <path id="DejaVuSans-6e" d="M 3513 2113 
L 3513 0 
L 2938 0 
L 2938 2094 
Q 2938 2591 2744 2837 
Q 2550 3084 2163 3084 
Q 1697 3084 1428 2787 
Q 1159 2491 1159 1978 
L 1159 0 
L 581 0 
L 581 3500 
L 1159 3500 
L 1159 2956 
Q 1366 3272 1645 3428 
Q 1925 3584 2291 3584 
Q 2894 3584 3203 3211 
Q 3513 2838 3513 2113 
z
" transform="scale(0.015625)"/>
        <path id="DejaVuSans-70" d="M 1159 525 
L 1159 -1331 
L 581 -1331 
L 581 3500 
L 1159 3500 
L 1159 2969 
Q 1341 3281 1617 3432 
Q 1894 3584 2278 3584 
Q 2916 3584 3314 3078 
Q 3713 2572 3713 1747 
Q 3713 922 3314 415 
Q 2916 -91 2278 -91 
Q 1894 -91 1617 61 
Q 1341 213 1159 525 
z
M 3116 1747 
Q 3116 2381 2855 2742 
Q 2594 3103 2138 3103 
Q 1681 3103 1420 2742 
Q 1159 2381 1159 1747 
Q 1159 1113 1420 752 
Q 1681 391 2138 391 
Q 2594 391 2855 752 
Q 3116 1113 3116 1747 
z
" transform="scale(0.015625)"/>
        <path id="DejaVuSans-6f" d="M 1959 3097 
Q 1497 3097 1228 2736 
Q 959 2375 959 1747 
Q 959 1119 1226 758 
Q 1494 397 1959 397 
Q 2419 397 2687 759 
Q 2956 1122 2956 1747 
Q 2956 2369 2687 2733 
Q 2419 3097 1959 3097 
z
M 1959 3584 
Q 2709 3584 3137 3096 
Q 3566 2609 3566 1747 
Q 3566 888 3137 398 
Q 2709 -91 1959 -91 
Q 1206 -91 779 398 
Q 353 888 353 1747 
Q 353 2609 779 3096 
Q 1206 3584 1959 3584 
z
" transform="scale(0.015625)"/>
        <path id="DejaVuSans-63" d="M 3122 3366 
L 3122 2828 
Q 2878 2963 2633 3030 
Q 2388 3097 2138 3097 
Q 1578 3097 1268 2742 
Q 959 2388 959 1747 
Q 959 1106 1268 751 
Q 1578 397 2138 397 
Q 2388 397 2633 464 
Q 2878 531 3122 666 
L 3122 134 
Q 2881 22 2623 -34 
Q 2366 -91 2075 -91 
Q 1284 -91 818 406 
Q 353 903 353 1747 
Q 353 2603 823 3093 
Q 1294 3584 2113 3584 
Q 2378 3584 2631 3529 
Q 2884 3475 3122 3366 
z
" transform="scale(0.015625)"/>
        <path id="DejaVuSans-71" d="M 947 1747 
Q 947 1113 1208 752 
Q 1469 391 1925 391 
Q 2381 391 2643 752 
Q 2906 1113 2906 1747 
Q 2906 2381 2643 2742 
Q 2381 3103 1925 3103 
Q 1469 3103 1208 2742 
Q 947 2381 947 1747 
z
M 2906 525 
Q 2725 213 2448 61 
Q 2172 -91 1784 -91 
Q 1150 -91 751 415 
Q 353 922 353 1747 
Q 353 2572 751 3078 
Q 1150 3584 1784 3584 
Q 2172 3584 2448 3432 
Q 2725 3281 2906 2969 
L 2906 3500 
L 3481 3500 
L 3481 -1331 
L 2906 -1331 
L 2906 525 
z
" transform="scale(0.015625)"/>
       </defs>
       <use xlink:href="#DejaVuSans-6d"/>
       <use xlink:href="#DejaVuSans-65" x="97.412109"/>
       <use xlink:href="#DejaVuSans-61" x="158.935547"/>
       <use xlink:href="#DejaVuSans-6e" x="220.214844"/>
       <use xlink:href="#DejaVuSans-5f" x="283.59375"/>
       <use xlink:href="#DejaVuSans-70" x="333.59375"/>
       <use xlink:href="#DejaVuSans-72" x="397.070312"/>
       <use xlink:href="#DejaVuSans-6f" x="435.933594"/>
       <use xlink:href="#DejaVuSans-64" x="497.115234"/>
       <use xlink:href="#DejaVuSans-75" x="560.591797"/>
       <use xlink:href="#DejaVuSans-63" x="623.970703"/>
       <use xlink:href="#DejaVuSans-74" x="678.951172"/>
       <use xlink:href="#DejaVuSans-5f" x="718.160156"/>
       <use xlink:href="#DejaVuSans-71" x="768.160156"/>
       <use xlink:href="#DejaVuSans-75" x="831.636719"/>
       <use xlink:href="#DejaVuSans-61" x="895.015625"/>
       <use xlink:href="#DejaVuSans-6e" x="956.294922"/>
       <use xlink:href="#DejaVuSans-74" x="1019.673828"/>
       <use xlink:href="#DejaVuSans-69" x="1058.882812"/>
       <use xlink:href="#DejaVuSans-74" x="1086.666016"/>
       <use xlink:href="#DejaVuSans-79" x="1125.875"/>
      </g>
     </g>
    </g>
    <g id="ytick_5">
     <g id="line2d_15"/>
     <g id="text_10">
      <!-- first_issue_time_weekday -->
      <g transform="translate(7.2 173.805356)scale(0.14 -0.14)">
       <defs>
        <path id="DejaVuSans-77" d="M 269 3500 
L 844 3500 
L 1563 769 
L 2278 3500 
L 2956 3500 
L 3675 769 
L 4391 3500 
L 4966 3500 
L 4050 0 
L 3372 0 
L 2619 2869 
L 1863 0 
L 1184 0 
L 269 3500 
z
" transform="scale(0.015625)"/>
        <path id="DejaVuSans-6b" d="M 581 4863 
L 1159 4863 
L 1159 1991 
L 2875 3500 
L 3609 3500 
L 1753 1863 
L 3688 0 
L 2938 0 
L 1159 1709 
L 1159 0 
L 581 0 
L 581 4863 
z
" transform="scale(0.015625)"/>
       </defs>
       <use xlink:href="#DejaVuSans-66"/>
       <use xlink:href="#DejaVuSans-69" x="35.205078"/>
       <use xlink:href="#DejaVuSans-72" x="62.988281"/>
       <use xlink:href="#DejaVuSans-73" x="104.101562"/>
       <use xlink:href="#DejaVuSans-74" x="156.201172"/>
       <use xlink:href="#DejaVuSans-5f" x="195.410156"/>
       <use xlink:href="#DejaVuSans-69" x="245.410156"/>
       <use xlink:href="#DejaVuSans-73" x="273.193359"/>
       <use xlink:href="#DejaVuSans-73" x="325.292969"/>
       <use xlink:href="#DejaVuSans-75" x="377.392578"/>
       <use xlink:href="#DejaVuSans-65" x="440.771484"/>
       <use xlink:href="#DejaVuSans-5f" x="502.294922"/>
       <use xlink:href="#DejaVuSans-74" x="552.294922"/>
       <use xlink:href="#DejaVuSans-69" x="591.503906"/>
       <use xlink:href="#DejaVuSans-6d" x="619.287109"/>
       <use xlink:href="#DejaVuSans-65" x="716.699219"/>
       <use xlink:href="#DejaVuSans-5f" x="778.222656"/>
       <use xlink:href="#DejaVuSans-77" x="828.222656"/>
       <use xlink:href="#DejaVuSans-65" x="910.009766"/>
       <use xlink:href="#DejaVuSans-65" x="971.533203"/>
       <use xlink:href="#DejaVuSans-6b" x="1033.056641"/>
       <use xlink:href="#DejaVuSans-64" x="1090.966797"/>
       <use xlink:href="#DejaVuSans-61" x="1154.443359"/>
       <use xlink:href="#DejaVuSans-79" x="1215.722656"/>
      </g>
     </g>
    </g>
    <g id="ytick_6">
     <g id="line2d_16"/>
     <g id="text_11">
      <!-- first_issue_time -->
      <g transform="translate(76.738437 204.909356)scale(0.14 -0.14)">
       <use xlink:href="#DejaVuSans-66"/>
       <use xlink:href="#DejaVuSans-69" x="35.205078"/>
       <use xlink:href="#DejaVuSans-72" x="62.988281"/>
       <use xlink:href="#DejaVuSans-73" x="104.101562"/>
       <use xlink:href="#DejaVuSans-74" x="156.201172"/>
       <use xlink:href="#DejaVuSans-5f" x="195.410156"/>
       <use xlink:href="#DejaVuSans-69" x="245.410156"/>
       <use xlink:href="#DejaVuSans-73" x="273.193359"/>
       <use xlink:href="#DejaVuSans-73" x="325.292969"/>
       <use xlink:href="#DejaVuSans-75" x="377.392578"/>
       <use xlink:href="#DejaVuSans-65" x="440.771484"/>
       <use xlink:href="#DejaVuSans-5f" x="502.294922"/>
       <use xlink:href="#DejaVuSans-74" x="552.294922"/>
       <use xlink:href="#DejaVuSans-69" x="591.503906"/>
       <use xlink:href="#DejaVuSans-6d" x="619.287109"/>
       <use xlink:href="#DejaVuSans-65" x="716.699219"/>
      </g>
     </g>
    </g>
    <g id="ytick_7">
     <g id="line2d_17"/>
     <g id="text_12">
      <!-- n_products -->
      <g transform="translate(108.678125 236.013356)scale(0.14 -0.14)">
       <use xlink:href="#DejaVuSans-6e"/>
       <use xlink:href="#DejaVuSans-5f" x="63.378906"/>
       <use xlink:href="#DejaVuSans-70" x="113.378906"/>
       <use xlink:href="#DejaVuSans-72" x="176.855469"/>
       <use xlink:href="#DejaVuSans-6f" x="215.71875"/>
       <use xlink:href="#DejaVuSans-64" x="276.900391"/>
       <use xlink:href="#DejaVuSans-75" x="340.376953"/>
       <use xlink:href="#DejaVuSans-63" x="403.755859"/>
       <use xlink:href="#DejaVuSans-74" x="458.736328"/>
       <use xlink:href="#DejaVuSans-73" x="497.945312"/>
      </g>
     </g>
    </g>
    <g id="ytick_8">
     <g id="line2d_18"/>
     <g id="text_13">
      <!-- n_transactions -->
      <g transform="translate(83.436562 267.117356)scale(0.14 -0.14)">
       <use xlink:href="#DejaVuSans-6e"/>
       <use xlink:href="#DejaVuSans-5f" x="63.378906"/>
       <use xlink:href="#DejaVuSans-74" x="113.378906"/>
       <use xlink:href="#DejaVuSans-72" x="152.587891"/>
       <use xlink:href="#DejaVuSans-61" x="193.701172"/>
       <use xlink:href="#DejaVuSans-6e" x="254.980469"/>
       <use xlink:href="#DejaVuSans-73" x="318.359375"/>
       <use xlink:href="#DejaVuSans-61" x="370.458984"/>
       <use xlink:href="#DejaVuSans-63" x="431.738281"/>
       <use xlink:href="#DejaVuSans-74" x="486.71875"/>
       <use xlink:href="#DejaVuSans-69" x="525.927734"/>
       <use xlink:href="#DejaVuSans-6f" x="553.710938"/>
       <use xlink:href="#DejaVuSans-6e" x="614.892578"/>
       <use xlink:href="#DejaVuSans-73" x="678.271484"/>
      </g>
     </g>
    </g>
    <g id="ytick_9">
     <g id="line2d_19"/>
     <g id="text_14">
      <!-- regular_points_spent -->
      <g transform="translate(39.491875 298.221356)scale(0.14 -0.14)">
       <use xlink:href="#DejaVuSans-72"/>
       <use xlink:href="#DejaVuSans-65" x="38.863281"/>
       <use xlink:href="#DejaVuSans-67" x="100.386719"/>
       <use xlink:href="#DejaVuSans-75" x="163.863281"/>
       <use xlink:href="#DejaVuSans-6c" x="227.242188"/>
       <use xlink:href="#DejaVuSans-61" x="255.025391"/>
       <use xlink:href="#DejaVuSans-72" x="316.304688"/>
       <use xlink:href="#DejaVuSans-5f" x="357.417969"/>
       <use xlink:href="#DejaVuSans-70" x="407.417969"/>
       <use xlink:href="#DejaVuSans-6f" x="470.894531"/>
       <use xlink:href="#DejaVuSans-69" x="532.076172"/>
       <use xlink:href="#DejaVuSans-6e" x="559.859375"/>
       <use xlink:href="#DejaVuSans-74" x="623.238281"/>
       <use xlink:href="#DejaVuSans-73" x="662.447266"/>
       <use xlink:href="#DejaVuSans-5f" x="714.546875"/>
       <use xlink:href="#DejaVuSans-73" x="764.546875"/>
       <use xlink:href="#DejaVuSans-70" x="816.646484"/>
       <use xlink:href="#DejaVuSans-65" x="880.123047"/>
       <use xlink:href="#DejaVuSans-6e" x="941.646484"/>
       <use xlink:href="#DejaVuSans-74" x="1005.025391"/>
      </g>
     </g>
    </g>
    <g id="ytick_10">
     <g id="line2d_20"/>
     <g id="text_15">
      <!-- last_transaction_time -->
      <g transform="translate(35.722812 329.325356)scale(0.14 -0.14)">
       <use xlink:href="#DejaVuSans-6c"/>
       <use xlink:href="#DejaVuSans-61" x="27.783203"/>
       <use xlink:href="#DejaVuSans-73" x="89.0625"/>
       <use xlink:href="#DejaVuSans-74" x="141.162109"/>
       <use xlink:href="#DejaVuSans-5f" x="180.371094"/>
       <use xlink:href="#DejaVuSans-74" x="230.371094"/>
       <use xlink:href="#DejaVuSans-72" x="269.580078"/>
       <use xlink:href="#DejaVuSans-61" x="310.693359"/>
       <use xlink:href="#DejaVuSans-6e" x="371.972656"/>
       <use xlink:href="#DejaVuSans-73" x="435.351562"/>
       <use xlink:href="#DejaVuSans-61" x="487.451172"/>
       <use xlink:href="#DejaVuSans-63" x="548.730469"/>
       <use xlink:href="#DejaVuSans-74" x="603.710938"/>
       <use xlink:href="#DejaVuSans-69" x="642.919922"/>
       <use xlink:href="#DejaVuSans-6f" x="670.703125"/>
       <use xlink:href="#DejaVuSans-6e" x="731.884766"/>
       <use xlink:href="#DejaVuSans-5f" x="795.263672"/>
       <use xlink:href="#DejaVuSans-74" x="845.263672"/>
       <use xlink:href="#DejaVuSans-69" x="884.472656"/>
       <use xlink:href="#DejaVuSans-6d" x="912.255859"/>
       <use xlink:href="#DejaVuSans-65" x="1009.667969"/>
      </g>
     </g>
    </g>
    <g id="ytick_11">
     <g id="line2d_21"/>
     <g id="text_16">
      <!-- first_issue_time_month -->
      <g transform="translate(24.301875 360.429356)scale(0.14 -0.14)">
       <defs>
        <path id="DejaVuSans-68" d="M 3513 2113 
L 3513 0 
L 2938 0 
L 2938 2094 
Q 2938 2591 2744 2837 
Q 2550 3084 2163 3084 
Q 1697 3084 1428 2787 
Q 1159 2491 1159 1978 
L 1159 0 
L 581 0 
L 581 4863 
L 1159 4863 
L 1159 2956 
Q 1366 3272 1645 3428 
Q 1925 3584 2291 3584 
Q 2894 3584 3203 3211 
Q 3513 2838 3513 2113 
z
" transform="scale(0.015625)"/>
       </defs>
       <use xlink:href="#DejaVuSans-66"/>
       <use xlink:href="#DejaVuSans-69" x="35.205078"/>
       <use xlink:href="#DejaVuSans-72" x="62.988281"/>
       <use xlink:href="#DejaVuSans-73" x="104.101562"/>
       <use xlink:href="#DejaVuSans-74" x="156.201172"/>
       <use xlink:href="#DejaVuSans-5f" x="195.410156"/>
       <use xlink:href="#DejaVuSans-69" x="245.410156"/>
       <use xlink:href="#DejaVuSans-73" x="273.193359"/>
       <use xlink:href="#DejaVuSans-73" x="325.292969"/>
       <use xlink:href="#DejaVuSans-75" x="377.392578"/>
       <use xlink:href="#DejaVuSans-65" x="440.771484"/>
       <use xlink:href="#DejaVuSans-5f" x="502.294922"/>
       <use xlink:href="#DejaVuSans-74" x="552.294922"/>
       <use xlink:href="#DejaVuSans-69" x="591.503906"/>
       <use xlink:href="#DejaVuSans-6d" x="619.287109"/>
       <use xlink:href="#DejaVuSans-65" x="716.699219"/>
       <use xlink:href="#DejaVuSans-5f" x="778.222656"/>
       <use xlink:href="#DejaVuSans-6d" x="828.222656"/>
       <use xlink:href="#DejaVuSans-6f" x="925.634766"/>
       <use xlink:href="#DejaVuSans-6e" x="986.816406"/>
       <use xlink:href="#DejaVuSans-74" x="1050.195312"/>
       <use xlink:href="#DejaVuSans-68" x="1089.404297"/>
      </g>
     </g>
    </g>
    <g id="ytick_12">
     <g id="line2d_22"/>
     <g id="text_17">
      <!-- n_stores -->
      <g transform="translate(127.116562 391.338669)scale(0.14 -0.14)">
       <use xlink:href="#DejaVuSans-6e"/>
       <use xlink:href="#DejaVuSans-5f" x="63.378906"/>
       <use xlink:href="#DejaVuSans-73" x="113.378906"/>
       <use xlink:href="#DejaVuSans-74" x="165.478516"/>
       <use xlink:href="#DejaVuSans-6f" x="204.6875"/>
       <use xlink:href="#DejaVuSans-72" x="265.869141"/>
       <use xlink:href="#DejaVuSans-65" x="304.732422"/>
       <use xlink:href="#DejaVuSans-73" x="366.255859"/>
      </g>
     </g>
    </g>
    <g id="ytick_13">
     <g id="line2d_23"/>
     <g id="text_18">
      <!-- express_points_spent -->
      <g transform="translate(35.346562 422.637356)scale(0.14 -0.14)">
       <defs>
        <path id="DejaVuSans-78" d="M 3513 3500 
L 2247 1797 
L 3578 0 
L 2900 0 
L 1881 1375 
L 863 0 
L 184 0 
L 1544 1831 
L 300 3500 
L 978 3500 
L 1906 2253 
L 2834 3500 
L 3513 3500 
z
" transform="scale(0.015625)"/>
       </defs>
       <use xlink:href="#DejaVuSans-65"/>
       <use xlink:href="#DejaVuSans-78" x="59.773438"/>
       <use xlink:href="#DejaVuSans-70" x="118.953125"/>
       <use xlink:href="#DejaVuSans-72" x="182.429688"/>
       <use xlink:href="#DejaVuSans-65" x="221.292969"/>
       <use xlink:href="#DejaVuSans-73" x="282.816406"/>
       <use xlink:href="#DejaVuSans-73" x="334.916016"/>
       <use xlink:href="#DejaVuSans-5f" x="387.015625"/>
       <use xlink:href="#DejaVuSans-70" x="437.015625"/>
       <use xlink:href="#DejaVuSans-6f" x="500.492188"/>
       <use xlink:href="#DejaVuSans-69" x="561.673828"/>
       <use xlink:href="#DejaVuSans-6e" x="589.457031"/>
       <use xlink:href="#DejaVuSans-74" x="652.835938"/>
       <use xlink:href="#DejaVuSans-73" x="692.044922"/>
       <use xlink:href="#DejaVuSans-5f" x="744.144531"/>
       <use xlink:href="#DejaVuSans-73" x="794.144531"/>
       <use xlink:href="#DejaVuSans-70" x="846.244141"/>
       <use xlink:href="#DejaVuSans-65" x="909.720703"/>
       <use xlink:href="#DejaVuSans-6e" x="971.244141"/>
       <use xlink:href="#DejaVuSans-74" x="1034.623047"/>
      </g>
     </g>
    </g>
    <g id="ytick_14">
     <g id="line2d_24"/>
     <g id="text_19">
      <!-- express_points_received -->
      <g transform="translate(14.458125 453.741356)scale(0.14 -0.14)">
       <defs>
        <path id="DejaVuSans-76" d="M 191 3500 
L 800 3500 
L 1894 563 
L 2988 3500 
L 3597 3500 
L 2284 0 
L 1503 0 
L 191 3500 
z
" transform="scale(0.015625)"/>
       </defs>
       <use xlink:href="#DejaVuSans-65"/>
       <use xlink:href="#DejaVuSans-78" x="59.773438"/>
       <use xlink:href="#DejaVuSans-70" x="118.953125"/>
       <use xlink:href="#DejaVuSans-72" x="182.429688"/>
       <use xlink:href="#DejaVuSans-65" x="221.292969"/>
       <use xlink:href="#DejaVuSans-73" x="282.816406"/>
       <use xlink:href="#DejaVuSans-73" x="334.916016"/>
       <use xlink:href="#DejaVuSans-5f" x="387.015625"/>
       <use xlink:href="#DejaVuSans-70" x="437.015625"/>
       <use xlink:href="#DejaVuSans-6f" x="500.492188"/>
       <use xlink:href="#DejaVuSans-69" x="561.673828"/>
       <use xlink:href="#DejaVuSans-6e" x="589.457031"/>
       <use xlink:href="#DejaVuSans-74" x="652.835938"/>
       <use xlink:href="#DejaVuSans-73" x="692.044922"/>
       <use xlink:href="#DejaVuSans-5f" x="744.144531"/>
       <use xlink:href="#DejaVuSans-72" x="794.144531"/>
       <use xlink:href="#DejaVuSans-65" x="833.007812"/>
       <use xlink:href="#DejaVuSans-63" x="894.53125"/>
       <use xlink:href="#DejaVuSans-65" x="949.511719"/>
       <use xlink:href="#DejaVuSans-69" x="1011.035156"/>
       <use xlink:href="#DejaVuSans-76" x="1038.818359"/>
       <use xlink:href="#DejaVuSans-65" x="1097.998047"/>
       <use xlink:href="#DejaVuSans-64" x="1159.521484"/>
      </g>
     </g>
    </g>
    <g id="ytick_15">
     <g id="line2d_25"/>
     <g id="text_20">
      <!-- gender -->
      <g transform="translate(136.0525 484.845356)scale(0.14 -0.14)">
       <use xlink:href="#DejaVuSans-67"/>
       <use xlink:href="#DejaVuSans-65" x="63.476562"/>
       <use xlink:href="#DejaVuSans-6e" x="125"/>
       <use xlink:href="#DejaVuSans-64" x="188.378906"/>
       <use xlink:href="#DejaVuSans-65" x="251.855469"/>
       <use xlink:href="#DejaVuSans-72" x="313.378906"/>
      </g>
     </g>
    </g>
   </g>
   <g id="patch_3">
    <path d="M 189.184687 31.62885 
L 666.44183 31.62885 
L 666.44183 56.51205 
L 189.184687 56.51205 
z
" clip-path="url(#p02b49bd6cc)" style="fill: #ba611b"/>
   </g>
   <g id="patch_4">
    <path d="M 189.184687 62.73285 
L 386.167678 62.73285 
L 386.167678 87.61605 
L 189.184687 87.61605 
z
" clip-path="url(#p02b49bd6cc)" style="fill: #ba611b"/>
   </g>
   <g id="patch_5">
    <path d="M 189.184687 93.83685 
L 383.257943 93.83685 
L 383.257943 118.72005 
L 189.184687 118.72005 
z
" clip-path="url(#p02b49bd6cc)" style="fill: #ba611b"/>
   </g>
   <g id="patch_6">
    <path d="M 189.184687 124.94085 
L 335.611034 124.94085 
L 335.611034 149.82405 
L 189.184687 149.82405 
z
" clip-path="url(#p02b49bd6cc)" style="fill: #ba611b"/>
   </g>
   <g id="patch_7">
    <path d="M 189.184687 156.04485 
L 333.004397 156.04485 
L 333.004397 180.92805 
L 189.184687 180.92805 
z
" clip-path="url(#p02b49bd6cc)" style="fill: #ba611b"/>
   </g>
   <g id="patch_8">
    <path d="M 189.184687 187.14885 
L 331.579839 187.14885 
L 331.579839 212.03205 
L 189.184687 212.03205 
z
" clip-path="url(#p02b49bd6cc)" style="fill: #ba611b"/>
   </g>
   <g id="patch_9">
    <path d="M 189.184687 218.25285 
L 331.4586 218.25285 
L 331.4586 243.13605 
L 189.184687 243.13605 
z
" clip-path="url(#p02b49bd6cc)" style="fill: #ba611b"/>
   </g>
   <g id="patch_10">
    <path d="M 189.184687 249.35685 
L 311.393553 249.35685 
L 311.393553 274.24005 
L 189.184687 274.24005 
z
" clip-path="url(#p02b49bd6cc)" style="fill: #ba611b"/>
   </g>
   <g id="patch_11">
    <path d="M 189.184687 280.46085 
L 298.542224 280.46085 
L 298.542224 305.34405 
L 189.184687 305.34405 
z
" clip-path="url(#p02b49bd6cc)" style="fill: #ba611b"/>
   </g>
   <g id="patch_12">
    <path d="M 189.184687 311.56485 
L 249.955713 311.56485 
L 249.955713 336.44805 
L 189.184687 336.44805 
z
" clip-path="url(#p02b49bd6cc)" style="fill: #ba611b"/>
   </g>
   <g id="patch_13">
    <path d="M 189.184687 342.66885 
L 239.135137 342.66885 
L 239.135137 367.55205 
L 189.184687 367.55205 
z
" clip-path="url(#p02b49bd6cc)" style="fill: #ba611b"/>
   </g>
   <g id="patch_14">
    <path d="M 189.184687 373.77285 
L 228.920755 373.77285 
L 228.920755 398.65605 
L 189.184687 398.65605 
z
" clip-path="url(#p02b49bd6cc)" style="fill: #ba611b"/>
   </g>
   <g id="patch_15">
    <path d="M 189.184687 404.87685 
L 224.283365 404.87685 
L 224.283365 429.76005 
L 189.184687 429.76005 
z
" clip-path="url(#p02b49bd6cc)" style="fill: #ba611b"/>
   </g>
   <g id="patch_16">
    <path d="M 189.184687 435.98085 
L 219.555046 435.98085 
L 219.555046 460.86405 
L 189.184687 460.86405 
z
" clip-path="url(#p02b49bd6cc)" style="fill: #ba611b"/>
   </g>
   <g id="patch_17">
    <path d="M 189.184687 467.08485 
L 208.55261 467.08485 
L 208.55261 491.96805 
L 189.184687 491.96805 
z
" clip-path="url(#p02b49bd6cc)" style="fill: #ba611b"/>
   </g>
   <g id="line2d_26">
    <path clip-path="url(#p02b49bd6cc)" style="fill: none; stroke: #424242; stroke-width: 3.6"/>
   </g>
   <g id="line2d_27">
    <path clip-path="url(#p02b49bd6cc)" style="fill: none; stroke: #424242; stroke-width: 3.6"/>
   </g>
   <g id="line2d_28">
    <path clip-path="url(#p02b49bd6cc)" style="fill: none; stroke: #424242; stroke-width: 3.6"/>
   </g>
   <g id="line2d_29">
    <path clip-path="url(#p02b49bd6cc)" style="fill: none; stroke: #424242; stroke-width: 3.6"/>
   </g>
   <g id="line2d_30">
    <path clip-path="url(#p02b49bd6cc)" style="fill: none; stroke: #424242; stroke-width: 3.6"/>
   </g>
   <g id="line2d_31">
    <path clip-path="url(#p02b49bd6cc)" style="fill: none; stroke: #424242; stroke-width: 3.6"/>
   </g>
   <g id="line2d_32">
    <path clip-path="url(#p02b49bd6cc)" style="fill: none; stroke: #424242; stroke-width: 3.6"/>
   </g>
   <g id="line2d_33">
    <path clip-path="url(#p02b49bd6cc)" style="fill: none; stroke: #424242; stroke-width: 3.6"/>
   </g>
   <g id="line2d_34">
    <path clip-path="url(#p02b49bd6cc)" style="fill: none; stroke: #424242; stroke-width: 3.6"/>
   </g>
   <g id="line2d_35">
    <path clip-path="url(#p02b49bd6cc)" style="fill: none; stroke: #424242; stroke-width: 3.6"/>
   </g>
   <g id="line2d_36">
    <path clip-path="url(#p02b49bd6cc)" style="fill: none; stroke: #424242; stroke-width: 3.6"/>
   </g>
   <g id="line2d_37">
    <path clip-path="url(#p02b49bd6cc)" style="fill: none; stroke: #424242; stroke-width: 3.6"/>
   </g>
   <g id="line2d_38">
    <path clip-path="url(#p02b49bd6cc)" style="fill: none; stroke: #424242; stroke-width: 3.6"/>
   </g>
   <g id="line2d_39">
    <path clip-path="url(#p02b49bd6cc)" style="fill: none; stroke: #424242; stroke-width: 3.6"/>
   </g>
   <g id="line2d_40">
    <path clip-path="url(#p02b49bd6cc)" style="fill: none; stroke: #424242; stroke-width: 3.6"/>
   </g>
   <g id="patch_18">
    <path d="M 189.184687 495.07845 
L 189.184687 28.51845 
" style="fill: none; stroke: #bcbcbc; stroke-width: 3; stroke-linejoin: miter; stroke-linecap: square"/>
   </g>
   <g id="patch_19">
    <path d="M 690.304688 495.07845 
L 690.304688 28.51845 
" style="fill: none; stroke: #bcbcbc; stroke-width: 3; stroke-linejoin: miter; stroke-linecap: square"/>
   </g>
   <g id="patch_20">
    <path d="M 189.184687 495.07845 
L 690.304688 495.07845 
" style="fill: none; stroke: #bcbcbc; stroke-width: 3; stroke-linejoin: miter; stroke-linecap: square"/>
   </g>
   <g id="patch_21">
    <path d="M 189.184687 28.51845 
L 690.304688 28.51845 
" style="fill: none; stroke: #bcbcbc; stroke-width: 3; stroke-linejoin: miter; stroke-linecap: square"/>
   </g>
   <g id="text_21">
    <!-- Permutation importance propensity score model -->
    <g transform="translate(195.901612 22.51845)scale(0.2016 -0.2016)">
     <defs>
      <path id="DejaVuSans-50" d="M 1259 4147 
L 1259 2394 
L 2053 2394 
Q 2494 2394 2734 2622 
Q 2975 2850 2975 3272 
Q 2975 3691 2734 3919 
Q 2494 4147 2053 4147 
L 1259 4147 
z
M 628 4666 
L 2053 4666 
Q 2838 4666 3239 4311 
Q 3641 3956 3641 3272 
Q 3641 2581 3239 2228 
Q 2838 1875 2053 1875 
L 1259 1875 
L 1259 0 
L 628 0 
L 628 4666 
z
" transform="scale(0.015625)"/>
      <path id="DejaVuSans-20" transform="scale(0.015625)"/>
     </defs>
     <use xlink:href="#DejaVuSans-50"/>
     <use xlink:href="#DejaVuSans-65" x="56.677734"/>
     <use xlink:href="#DejaVuSans-72" x="118.201172"/>
     <use xlink:href="#DejaVuSans-6d" x="157.564453"/>
     <use xlink:href="#DejaVuSans-75" x="254.976562"/>
     <use xlink:href="#DejaVuSans-74" x="318.355469"/>
     <use xlink:href="#DejaVuSans-61" x="357.564453"/>
     <use xlink:href="#DejaVuSans-74" x="418.84375"/>
     <use xlink:href="#DejaVuSans-69" x="458.052734"/>
     <use xlink:href="#DejaVuSans-6f" x="485.835938"/>
     <use xlink:href="#DejaVuSans-6e" x="547.017578"/>
     <use xlink:href="#DejaVuSans-20" x="610.396484"/>
     <use xlink:href="#DejaVuSans-69" x="642.183594"/>
     <use xlink:href="#DejaVuSans-6d" x="669.966797"/>
     <use xlink:href="#DejaVuSans-70" x="767.378906"/>
     <use xlink:href="#DejaVuSans-6f" x="830.855469"/>
     <use xlink:href="#DejaVuSans-72" x="892.037109"/>
     <use xlink:href="#DejaVuSans-74" x="933.150391"/>
     <use xlink:href="#DejaVuSans-61" x="972.359375"/>
     <use xlink:href="#DejaVuSans-6e" x="1033.638672"/>
     <use xlink:href="#DejaVuSans-63" x="1097.017578"/>
     <use xlink:href="#DejaVuSans-65" x="1151.998047"/>
     <use xlink:href="#DejaVuSans-20" x="1213.521484"/>
     <use xlink:href="#DejaVuSans-70" x="1245.308594"/>
     <use xlink:href="#DejaVuSans-72" x="1308.785156"/>
     <use xlink:href="#DejaVuSans-6f" x="1347.648438"/>
     <use xlink:href="#DejaVuSans-70" x="1408.830078"/>
     <use xlink:href="#DejaVuSans-65" x="1472.306641"/>
     <use xlink:href="#DejaVuSans-6e" x="1533.830078"/>
     <use xlink:href="#DejaVuSans-73" x="1597.208984"/>
     <use xlink:href="#DejaVuSans-69" x="1649.308594"/>
     <use xlink:href="#DejaVuSans-74" x="1677.091797"/>
     <use xlink:href="#DejaVuSans-79" x="1716.300781"/>
     <use xlink:href="#DejaVuSans-20" x="1775.480469"/>
     <use xlink:href="#DejaVuSans-73" x="1807.267578"/>
     <use xlink:href="#DejaVuSans-63" x="1859.367188"/>
     <use xlink:href="#DejaVuSans-6f" x="1914.347656"/>
     <use xlink:href="#DejaVuSans-72" x="1975.529297"/>
     <use xlink:href="#DejaVuSans-65" x="2014.392578"/>
     <use xlink:href="#DejaVuSans-20" x="2075.916016"/>
     <use xlink:href="#DejaVuSans-6d" x="2107.703125"/>
     <use xlink:href="#DejaVuSans-6f" x="2205.115234"/>
     <use xlink:href="#DejaVuSans-64" x="2266.296875"/>
     <use xlink:href="#DejaVuSans-65" x="2329.773438"/>
     <use xlink:href="#DejaVuSans-6c" x="2391.296875"/>
    </g>
   </g>
  </g>
 </g>
 <defs>
  <clipPath id="p02b49bd6cc">
   <rect x="189.184687" y="28.51845" width="501.12" height="466.56"/>
  </clipPath>
 </defs>
</svg>
