<?xml version="1.0" encoding="UTF-8" standalone="no"?>
<!DOCTYPE svg PUBLIC "-//W3C//DTD SVG 1.1//EN"
 "http://www.w3.org/Graphics/SVG/1.1/DTD/svg11.dtd">
<!-- Generated by graphviz version 7.0.6 (20230106.0513)
 -->
<!-- Pages: 1 -->
<svg width="594pt" height="447pt"
 viewBox="0.00 0.00 593.72 446.86" xmlns="http://www.w3.org/2000/svg" xmlns:xlink="http://www.w3.org/1999/xlink">
<g id="graph0" class="graph" transform="scale(1 1) rotate(0) translate(4 442.86)">
<polygon fill="white" stroke="none" points="-4,4 -4,-442.86 589.72,-442.86 589.72,4 -4,4"/>
<g id="clust1" class="cluster">
<title>cluster3</title>
<path fill="none" stroke="black" d="M286.72,-121.95C286.72,-121.95 448.72,-121.95 448.72,-121.95 454.72,-121.95 460.72,-127.95 460.72,-133.95 460.72,-133.95 460.72,-223.91 460.72,-223.91 460.72,-229.91 454.72,-235.91 448.72,-235.91 448.72,-235.91 286.72,-235.91 286.72,-235.91 280.72,-235.91 274.72,-229.91 274.72,-223.91 274.72,-223.91 274.72,-133.95 274.72,-133.95 274.72,-127.95 280.72,-121.95 286.72,-121.95"/>
<text text-anchor="middle" x="449.22" y="-129.75" font-family="Times,serif" font-size="14.00">3</text>
</g>
<g id="clust2" class="cluster">
<title>cluster2 x 2</title>
<path fill="none" stroke="black" d="M250.72,-18.98C250.72,-18.98 447.72,-18.98 447.72,-18.98 453.72,-18.98 459.72,-24.98 459.72,-30.98 459.72,-30.98 459.72,-98.98 459.72,-98.98 459.72,-104.98 453.72,-110.98 447.72,-110.98 447.72,-110.98 250.72,-110.98 250.72,-110.98 244.72,-110.98 238.72,-104.98 238.72,-98.98 238.72,-98.98 238.72,-30.98 238.72,-30.98 238.72,-24.98 244.72,-18.98 250.72,-18.98"/>
<text text-anchor="middle" x="437.72" y="-26.78" font-family="Times,serif" font-size="14.00">2 x 2</text>
</g>
<g id="clust3" class="cluster">
<title>cluster2</title>
<path fill="none" stroke="black" d="M479.72,-18.98C479.72,-18.98 565.72,-18.98 565.72,-18.98 571.72,-18.98 577.72,-24.98 577.72,-30.98 577.72,-30.98 577.72,-98.98 577.72,-98.98 577.72,-104.98 571.72,-110.98 565.72,-110.98 565.72,-110.98 479.72,-110.98 479.72,-110.98 473.72,-110.98 467.72,-104.98 467.72,-98.98 467.72,-98.98 467.72,-30.98 467.72,-30.98 467.72,-24.98 473.72,-18.98 479.72,-18.98"/>
<text text-anchor="middle" x="566.22" y="-26.78" font-family="Times,serif" font-size="14.00">2</text>
</g>
<g id="clust4" class="cluster">
<title>cluster10000</title>
<path fill="none" stroke="black" d="M121.72,-243.91C121.72,-243.91 314.72,-243.91 314.72,-243.91 320.72,-243.91 326.72,-249.91 326.72,-255.91 326.72,-255.91 326.72,-323.91 326.72,-323.91 326.72,-329.91 320.72,-335.91 314.72,-335.91 314.72,-335.91 121.72,-335.91 121.72,-335.91 115.72,-335.91 109.72,-329.91 109.72,-323.91 109.72,-323.91 109.72,-255.91 109.72,-255.91 109.72,-249.91 115.72,-243.91 121.72,-243.91"/>
<text text-anchor="middle" x="301.72" y="-251.71" font-family="Times,serif" font-size="14.00">10000</text>
</g>
<g id="clust5" class="cluster">
<title>cluster10000 x 2</title>
<path fill="none" stroke="black" d="M116.72,-8C116.72,-8 218.72,-8 218.72,-8 224.72,-8 230.72,-14 230.72,-20 230.72,-20 230.72,-212.93 230.72,-212.93 230.72,-218.93 224.72,-224.93 218.72,-224.93 218.72,-224.93 116.72,-224.93 116.72,-224.93 110.72,-224.93 104.72,-218.93 104.72,-212.93 104.72,-212.93 104.72,-20 104.72,-20 104.72,-14 110.72,-8 116.72,-8"/>
<text text-anchor="middle" x="195.22" y="-15.8" font-family="Times,serif" font-size="14.00">10000 x 2</text>
</g>
<!-- beta_t -->
<g id="node1" class="node">
<title>beta_t</title>
<ellipse fill="none" stroke="black" cx="41.72" cy="-401.38" rx="41.94" ry="37.45"/>
<text text-anchor="middle" x="41.72" y="-412.68" font-family="Times,serif" font-size="14.00">beta_t</text>
<text text-anchor="middle" x="41.72" y="-397.68" font-family="Times,serif" font-size="14.00">~</text>
<text text-anchor="middle" x="41.72" y="-382.68" font-family="Times,serif" font-size="14.00">Normal</text>
</g>
<!-- mu_y -->
<g id="node10" class="node">
<title>mu_y</title>
<polygon fill="none" stroke="black" points="209.22,-327.91 118.22,-327.91 118.22,-274.91 209.22,-274.91 209.22,-327.91"/>
<text text-anchor="middle" x="163.72" y="-312.71" font-family="Times,serif" font-size="14.00">mu_y</text>
<text text-anchor="middle" x="163.72" y="-297.71" font-family="Times,serif" font-size="14.00">~</text>
<text text-anchor="middle" x="163.72" y="-282.71" font-family="Times,serif" font-size="14.00">Deterministic</text>
</g>
<!-- beta_t&#45;&gt;mu_y -->
<g id="edge4" class="edge">
<title>beta_t&#45;&gt;mu_y</title>
<path fill="none" stroke="black" d="M72.51,-375.66C87.75,-363.41 106.37,-348.46 122.8,-335.27"/>
<polygon fill="black" stroke="black" points="124.88,-338.09 130.49,-329.1 120.5,-332.63 124.88,-338.09"/>
</g>
<!-- intercept_t -->
<g id="node2" class="node">
<title>intercept_t</title>
<ellipse fill="none" stroke="black" cx="280.72" cy="-401.38" rx="52.15" ry="37.45"/>
<text text-anchor="middle" x="280.72" y="-412.68" font-family="Times,serif" font-size="14.00">intercept_t</text>
<text text-anchor="middle" x="280.72" y="-397.68" font-family="Times,serif" font-size="14.00">~</text>
<text text-anchor="middle" x="280.72" y="-382.68" font-family="Times,serif" font-size="14.00">Normal</text>
</g>
<!-- mu_t -->
<g id="node9" class="node">
<title>mu_t</title>
<polygon fill="none" stroke="black" points="318.22,-327.91 227.22,-327.91 227.22,-274.91 318.22,-274.91 318.22,-327.91"/>
<text text-anchor="middle" x="272.72" y="-312.71" font-family="Times,serif" font-size="14.00">mu_t</text>
<text text-anchor="middle" x="272.72" y="-297.71" font-family="Times,serif" font-size="14.00">~</text>
<text text-anchor="middle" x="272.72" y="-282.71" font-family="Times,serif" font-size="14.00">Deterministic</text>
</g>
<!-- intercept_t&#45;&gt;mu_t -->
<g id="edge7" class="edge">
<title>intercept_t&#45;&gt;mu_t</title>
<path fill="none" stroke="black" d="M277.72,-363.62C277.08,-355.83 276.41,-347.6 275.77,-339.79"/>
<polygon fill="black" stroke="black" points="279.26,-339.56 274.96,-329.88 272.29,-340.13 279.26,-339.56"/>
</g>
<!-- beta_z -->
<g id="node3" class="node">
<title>beta_z</title>
<ellipse fill="none" stroke="black" cx="392.72" cy="-401.38" rx="41.94" ry="37.45"/>
<text text-anchor="middle" x="392.72" y="-412.68" font-family="Times,serif" font-size="14.00">beta_z</text>
<text text-anchor="middle" x="392.72" y="-397.68" font-family="Times,serif" font-size="14.00">~</text>
<text text-anchor="middle" x="392.72" y="-382.68" font-family="Times,serif" font-size="14.00">Normal</text>
</g>
<!-- beta_z&#45;&gt;mu_t -->
<g id="edge6" class="edge">
<title>beta_z&#45;&gt;mu_t</title>
<path fill="none" stroke="black" d="M362.13,-375.41C347.25,-363.26 329.16,-348.49 313.15,-335.42"/>
<polygon fill="black" stroke="black" points="315.64,-332.93 305.68,-329.32 311.22,-338.36 315.64,-332.93"/>
</g>
<!-- intercept_y -->
<g id="node4" class="node">
<title>intercept_y</title>
<ellipse fill="none" stroke="black" cx="155.72" cy="-401.38" rx="54.39" ry="37.45"/>
<text text-anchor="middle" x="155.72" y="-412.68" font-family="Times,serif" font-size="14.00">intercept_y</text>
<text text-anchor="middle" x="155.72" y="-397.68" font-family="Times,serif" font-size="14.00">~</text>
<text text-anchor="middle" x="155.72" y="-382.68" font-family="Times,serif" font-size="14.00">Normal</text>
</g>
<!-- intercept_y&#45;&gt;mu_y -->
<g id="edge5" class="edge">
<title>intercept_y&#45;&gt;mu_y</title>
<path fill="none" stroke="black" d="M158.72,-363.62C159.36,-355.83 160.03,-347.6 160.67,-339.79"/>
<polygon fill="black" stroke="black" points="164.15,-340.13 161.48,-329.88 157.17,-339.56 164.15,-340.13"/>
</g>
<!-- chol_cov -->
<g id="node5" class="node">
<title>chol_cov</title>
<ellipse fill="none" stroke="black" cx="367.72" cy="-190.43" rx="84.71" ry="37.45"/>
<text text-anchor="middle" x="367.72" y="-201.73" font-family="Times,serif" font-size="14.00">chol_cov</text>
<text text-anchor="middle" x="367.72" y="-186.73" font-family="Times,serif" font-size="14.00">~</text>
<text text-anchor="middle" x="367.72" y="-171.73" font-family="Times,serif" font-size="14.00">_LKJCholeskyCov</text>
</g>
<!-- chol_cov_corr -->
<g id="node6" class="node">
<title>chol_cov_corr</title>
<polygon fill="none" stroke="black" points="451.22,-102.98 356.22,-102.98 356.22,-49.98 451.22,-49.98 451.22,-102.98"/>
<text text-anchor="middle" x="403.72" y="-87.78" font-family="Times,serif" font-size="14.00">chol_cov_corr</text>
<text text-anchor="middle" x="403.72" y="-72.78" font-family="Times,serif" font-size="14.00">~</text>
<text text-anchor="middle" x="403.72" y="-57.78" font-family="Times,serif" font-size="14.00">Deterministic</text>
</g>
<!-- chol_cov&#45;&gt;chol_cov_corr -->
<g id="edge1" class="edge">
<title>chol_cov&#45;&gt;chol_cov_corr</title>
<path fill="none" stroke="black" d="M379.41,-153.08C383.4,-140.67 387.87,-126.77 391.87,-114.32"/>
<polygon fill="black" stroke="black" points="395.2,-115.4 394.93,-104.81 388.54,-113.26 395.2,-115.4"/>
</g>
<!-- cov -->
<g id="node7" class="node">
<title>cov</title>
<polygon fill="none" stroke="black" points="338.22,-102.98 247.22,-102.98 247.22,-49.98 338.22,-49.98 338.22,-102.98"/>
<text text-anchor="middle" x="292.72" y="-87.78" font-family="Times,serif" font-size="14.00">cov</text>
<text text-anchor="middle" x="292.72" y="-72.78" font-family="Times,serif" font-size="14.00">~</text>
<text text-anchor="middle" x="292.72" y="-57.78" font-family="Times,serif" font-size="14.00">Deterministic</text>
</g>
<!-- chol_cov&#45;&gt;cov -->
<g id="edge3" class="edge">
<title>chol_cov&#45;&gt;cov</title>
<path fill="none" stroke="black" d="M343.99,-154.01C335.15,-140.81 325.12,-125.84 316.3,-112.67"/>
<polygon fill="black" stroke="black" points="319.43,-111.06 310.96,-104.7 313.61,-114.96 319.43,-111.06"/>
</g>
<!-- chol_cov_stds -->
<g id="node8" class="node">
<title>chol_cov_stds</title>
<polygon fill="none" stroke="black" points="569.72,-102.98 475.72,-102.98 475.72,-49.98 569.72,-49.98 569.72,-102.98"/>
<text text-anchor="middle" x="522.72" y="-87.78" font-family="Times,serif" font-size="14.00">chol_cov_stds</text>
<text text-anchor="middle" x="522.72" y="-72.78" font-family="Times,serif" font-size="14.00">~</text>
<text text-anchor="middle" x="522.72" y="-57.78" font-family="Times,serif" font-size="14.00">Deterministic</text>
</g>
<!-- chol_cov&#45;&gt;chol_cov_stds -->
<g id="edge2" class="edge">
<title>chol_cov&#45;&gt;chol_cov_stds</title>
<path fill="none" stroke="black" d="M411.31,-157.95C431.96,-143.03 456.62,-125.22 477.48,-110.15"/>
<polygon fill="black" stroke="black" points="479.49,-113.02 485.54,-104.33 475.39,-107.35 479.49,-113.02"/>
</g>
<!-- likelihood -->
<g id="node11" class="node">
<title>likelihood</title>
<ellipse fill="lightgrey" stroke="black" cx="167.72" cy="-76.48" rx="55.31" ry="37.45"/>
<text text-anchor="middle" x="167.72" y="-87.78" font-family="Times,serif" font-size="14.00">likelihood</text>
<text text-anchor="middle" x="167.72" y="-72.78" font-family="Times,serif" font-size="14.00">~</text>
<text text-anchor="middle" x="167.72" y="-57.78" font-family="Times,serif" font-size="14.00">MvNormal</text>
</g>
<!-- chol_cov&#45;&gt;likelihood -->
<g id="edge10" class="edge">
<title>chol_cov&#45;&gt;likelihood</title>
<path fill="none" stroke="black" d="M315.95,-160.45C286.32,-143.86 249.25,-123.11 219.6,-106.52"/>
<polygon fill="black" stroke="black" points="221.6,-103.63 211.17,-101.8 218.18,-109.73 221.6,-103.63"/>
</g>
<!-- mu -->
<g id="node12" class="node">
<title>mu</title>
<polygon fill="none" stroke="black" points="213.22,-216.93 122.22,-216.93 122.22,-163.93 213.22,-163.93 213.22,-216.93"/>
<text text-anchor="middle" x="167.72" y="-201.73" font-family="Times,serif" font-size="14.00">mu</text>
<text text-anchor="middle" x="167.72" y="-186.73" font-family="Times,serif" font-size="14.00">~</text>
<text text-anchor="middle" x="167.72" y="-171.73" font-family="Times,serif" font-size="14.00">Deterministic</text>
</g>
<!-- mu_t&#45;&gt;mu -->
<g id="edge8" class="edge">
<title>mu_t&#45;&gt;mu</title>
<path fill="none" stroke="black" d="M248.03,-274.49C238.85,-264.87 228.32,-253.87 218.72,-243.91 212.96,-237.93 206.82,-231.59 200.87,-225.46"/>
<polygon fill="black" stroke="black" points="203.46,-223.1 193.98,-218.36 198.44,-227.98 203.46,-223.1"/>
</g>
<!-- mu_y&#45;&gt;mu -->
<g id="edge9" class="edge">
<title>mu_y&#45;&gt;mu</title>
<path fill="none" stroke="black" d="M164.67,-274.58C165.18,-260.74 165.81,-243.44 166.37,-228.22"/>
<polygon fill="black" stroke="black" points="169.85,-228.7 166.72,-218.58 162.86,-228.45 169.85,-228.7"/>
</g>
<!-- mu&#45;&gt;likelihood -->
<g id="edge11" class="edge">
<title>mu&#45;&gt;likelihood</title>
<path fill="none" stroke="black" d="M167.72,-163.46C167.72,-152.17 167.72,-138.57 167.72,-125.55"/>
<polygon fill="black" stroke="black" points="171.22,-125.84 167.72,-115.84 164.22,-125.84 171.22,-125.84"/>
</g>
</g>
</svg>
