<?xml version="1.0" encoding="UTF-8" standalone="no"?>
<!DOCTYPE svg PUBLIC "-//W3C//DTD SVG 1.1//EN"
 "http://www.w3.org/Graphics/SVG/1.1/DTD/svg11.dtd">
<!-- Generated by graphviz version 7.0.6 (20230106.0513)
 -->
<!-- Pages: 1 -->
<svg width="220pt" height="188pt"
 viewBox="0.00 0.00 219.84 188.00" xmlns="http://www.w3.org/2000/svg" xmlns:xlink="http://www.w3.org/1999/xlink">
<g id="graph0" class="graph" transform="scale(1 1) rotate(0) translate(4 184)">
<polygon fill="white" stroke="none" points="-4,4 -4,-184 215.84,-184 215.84,4 -4,4"/>
<!-- push assigned -->
<g id="node1" class="node">
<title>push assigned</title>
<ellipse fill="none" stroke="black" cx="59.79" cy="-162" rx="59.59" ry="18"/>
<text text-anchor="middle" x="59.79" y="-158.3" font-family="Times,serif" font-size="14.00">push assigned</text>
</g>
<!-- push delivered -->
<g id="node2" class="node">
<title>push delivered</title>
<ellipse fill="none" stroke="black" cx="84.79" cy="-90" rx="62.29" ry="18"/>
<text text-anchor="middle" x="84.79" y="-86.3" font-family="Times,serif" font-size="14.00">push delivered</text>
</g>
<!-- push assigned&#45;&gt;push delivered -->
<g id="edge1" class="edge">
<title>push assigned&#45;&gt;push delivered</title>
<path fill="none" stroke="black" d="M65.97,-143.7C68.67,-136.15 71.89,-127.12 74.91,-118.68"/>
<polygon fill="black" stroke="black" points="78.11,-120.12 78.18,-109.53 71.52,-117.77 78.11,-120.12"/>
</g>
<!-- in app purchase -->
<g id="node3" class="node">
<title>in app purchase</title>
<ellipse fill="none" stroke="black" cx="129.79" cy="-18" rx="66.09" ry="18"/>
<text text-anchor="middle" x="129.79" y="-14.3" font-family="Times,serif" font-size="14.00">in app purchase</text>
</g>
<!-- push delivered&#45;&gt;in app purchase -->
<g id="edge2" class="edge">
<title>push delivered&#45;&gt;in app purchase</title>
<path fill="none" stroke="black" d="M95.69,-72.05C100.83,-64.06 107.08,-54.33 112.82,-45.4"/>
<polygon fill="black" stroke="black" points="115.72,-47.37 118.18,-37.06 109.83,-43.58 115.72,-47.37"/>
</g>
<!-- income -->
<g id="node4" class="node">
<title>income</title>
<ellipse fill="none" stroke="blue" cx="174.79" cy="-162" rx="37.09" ry="18"/>
<text text-anchor="middle" x="174.79" y="-158.3" font-family="Times,serif" font-size="14.00">income</text>
</g>
<!-- income&#45;&gt;push delivered -->
<g id="edge4" class="edge">
<title>income&#45;&gt;push delivered</title>
<path fill="none" stroke="black" d="M155.71,-146.15C143.8,-136.89 128.22,-124.78 114.7,-114.26"/>
<polygon fill="black" stroke="black" points="116.98,-111.6 106.93,-108.22 112.68,-117.12 116.98,-111.6"/>
</g>
<!-- income&#45;&gt;in app purchase -->
<g id="edge3" class="edge">
<title>income&#45;&gt;in app purchase</title>
<path fill="none" stroke="black" d="M172.38,-143.6C169.55,-125.4 164.17,-96.19 155.79,-72 152.81,-63.38 148.76,-54.35 144.74,-46.23"/>
<polygon fill="black" stroke="black" points="147.96,-44.83 140.27,-37.55 141.74,-48.04 147.96,-44.83"/>
</g>
</g>
</svg>
