<?xml version="1.0" encoding="UTF-8" standalone="no"?>
<!DOCTYPE svg PUBLIC "-//W3C//DTD SVG 1.1//EN"
 "http://www.w3.org/Graphics/SVG/1.1/DTD/svg11.dtd">
<!-- Generated by graphviz version 7.0.6 (20230106.0513)
 -->
<!-- Pages: 1 -->
<svg width="630pt" height="596pt"
 viewBox="0.00 0.00 630.45 595.77" xmlns="http://www.w3.org/2000/svg" xmlns:xlink="http://www.w3.org/1999/xlink">
<g id="graph0" class="graph" transform="scale(1 1) rotate(0) translate(4 591.77)">
<polygon fill="white" stroke="none" points="-4,4 -4,-591.77 626.45,-591.77 626.45,4 -4,4"/>
<g id="clust1" class="cluster">
<title>cluster3</title>
<path fill="none" stroke="black" d="M315.45,-121.95C315.45,-121.95 477.45,-121.95 477.45,-121.95 483.45,-121.95 489.45,-127.95 489.45,-133.95 489.45,-133.95 489.45,-223.91 489.45,-223.91 489.45,-229.91 483.45,-235.91 477.45,-235.91 477.45,-235.91 315.45,-235.91 315.45,-235.91 309.45,-235.91 303.45,-229.91 303.45,-223.91 303.45,-223.91 303.45,-133.95 303.45,-133.95 303.45,-127.95 309.45,-121.95 315.45,-121.95"/>
<text text-anchor="middle" x="477.95" y="-129.75" font-family="Times,serif" font-size="14.00">3</text>
</g>
<g id="clust2" class="cluster">
<title>cluster2 x 2</title>
<path fill="none" stroke="black" d="M394.45,-18.98C394.45,-18.98 591.45,-18.98 591.45,-18.98 597.45,-18.98 603.45,-24.98 603.45,-30.98 603.45,-30.98 603.45,-98.98 603.45,-98.98 603.45,-104.98 597.45,-110.98 591.45,-110.98 591.45,-110.98 394.45,-110.98 394.45,-110.98 388.45,-110.98 382.45,-104.98 382.45,-98.98 382.45,-98.98 382.45,-30.98 382.45,-30.98 382.45,-24.98 388.45,-18.98 394.45,-18.98"/>
<text text-anchor="middle" x="581.45" y="-26.78" font-family="Times,serif" font-size="14.00">2 x 2</text>
</g>
<g id="clust3" class="cluster">
<title>cluster2</title>
<path fill="none" stroke="black" d="M276.45,-18.98C276.45,-18.98 362.45,-18.98 362.45,-18.98 368.45,-18.98 374.45,-24.98 374.45,-30.98 374.45,-30.98 374.45,-98.98 374.45,-98.98 374.45,-104.98 368.45,-110.98 362.45,-110.98 362.45,-110.98 276.45,-110.98 276.45,-110.98 270.45,-110.98 264.45,-104.98 264.45,-98.98 264.45,-98.98 264.45,-30.98 264.45,-30.98 264.45,-24.98 270.45,-18.98 276.45,-18.98"/>
<text text-anchor="middle" x="362.95" y="-26.78" font-family="Times,serif" font-size="14.00">2</text>
</g>
<g id="clust4" class="cluster">
<title>cluster5</title>
<path fill="none" stroke="black" d="M462.45,-243.91C462.45,-243.91 602.45,-243.91 602.45,-243.91 608.45,-243.91 614.45,-249.91 614.45,-255.91 614.45,-255.91 614.45,-567.77 614.45,-567.77 614.45,-573.77 608.45,-579.77 602.45,-579.77 602.45,-579.77 462.45,-579.77 462.45,-579.77 456.45,-579.77 450.45,-573.77 450.45,-567.77 450.45,-567.77 450.45,-255.91 450.45,-255.91 450.45,-249.91 456.45,-243.91 462.45,-243.91"/>
<text text-anchor="middle" x="602.95" y="-251.71" font-family="Times,serif" font-size="14.00">5</text>
</g>
<g id="clust5" class="cluster">
<title>cluster10000</title>
<path fill="none" stroke="black" d="M133.45,-254.88C133.45,-254.88 326.45,-254.88 326.45,-254.88 332.45,-254.88 338.45,-260.88 338.45,-266.88 338.45,-266.88 338.45,-334.88 338.45,-334.88 338.45,-340.88 332.45,-346.88 326.45,-346.88 326.45,-346.88 133.45,-346.88 133.45,-346.88 127.45,-346.88 121.45,-340.88 121.45,-334.88 121.45,-334.88 121.45,-266.88 121.45,-266.88 121.45,-260.88 127.45,-254.88 133.45,-254.88"/>
<text text-anchor="middle" x="313.45" y="-262.68" font-family="Times,serif" font-size="14.00">10000</text>
</g>
<g id="clust6" class="cluster">
<title>cluster10000 x 2</title>
<path fill="none" stroke="black" d="M142.45,-8C142.45,-8 244.45,-8 244.45,-8 250.45,-8 256.45,-14 256.45,-20 256.45,-20 256.45,-212.93 256.45,-212.93 256.45,-218.93 250.45,-224.93 244.45,-224.93 244.45,-224.93 142.45,-224.93 142.45,-224.93 136.45,-224.93 130.45,-218.93 130.45,-212.93 130.45,-212.93 130.45,-20 130.45,-20 130.45,-14 136.45,-8 142.45,-8"/>
<text text-anchor="middle" x="220.95" y="-15.8" font-family="Times,serif" font-size="14.00">10000 x 2</text>
</g>
<!-- beta_t_bar -->
<g id="node1" class="node">
<title>beta_t_bar</title>
<ellipse fill="none" stroke="black" cx="253.45" cy="-534.29" rx="52.15" ry="37.45"/>
<text text-anchor="middle" x="253.45" y="-545.59" font-family="Times,serif" font-size="14.00">beta_t_bar</text>
<text text-anchor="middle" x="253.45" y="-530.59" font-family="Times,serif" font-size="14.00">~</text>
<text text-anchor="middle" x="253.45" y="-515.59" font-family="Times,serif" font-size="14.00">Normal</text>
</g>
<!-- beta_t -->
<g id="node2" class="node">
<title>beta_t</title>
<polygon fill="none" stroke="black" points="217.95,-449.84 126.95,-449.84 126.95,-396.84 217.95,-396.84 217.95,-449.84"/>
<text text-anchor="middle" x="172.45" y="-434.64" font-family="Times,serif" font-size="14.00">beta_t</text>
<text text-anchor="middle" x="172.45" y="-419.64" font-family="Times,serif" font-size="14.00">~</text>
<text text-anchor="middle" x="172.45" y="-404.64" font-family="Times,serif" font-size="14.00">Deterministic</text>
</g>
<!-- beta_t_bar&#45;&gt;beta_t -->
<g id="edge9" class="edge">
<title>beta_t_bar&#45;&gt;beta_t</title>
<path fill="none" stroke="black" d="M229.36,-500.9C219.59,-487.75 208.28,-472.53 198.33,-459.15"/>
<polygon fill="black" stroke="black" points="201.37,-457.37 192.59,-451.43 195.75,-461.55 201.37,-457.37"/>
</g>
<!-- beta_j -->
<g id="node14" class="node">
<title>beta_j</title>
<polygon fill="none" stroke="black" points="550.95,-449.84 459.95,-449.84 459.95,-396.84 550.95,-396.84 550.95,-449.84"/>
<text text-anchor="middle" x="505.45" y="-434.64" font-family="Times,serif" font-size="14.00">beta_j</text>
<text text-anchor="middle" x="505.45" y="-419.64" font-family="Times,serif" font-size="14.00">~</text>
<text text-anchor="middle" x="505.45" y="-404.64" font-family="Times,serif" font-size="14.00">Deterministic</text>
</g>
<!-- beta_t_bar&#45;&gt;beta_j -->
<g id="edge5" class="edge">
<title>beta_t_bar&#45;&gt;beta_j</title>
<path fill="none" stroke="black" d="M291.97,-508.46C299.56,-504.19 307.61,-500.08 315.45,-496.81 373.15,-472.74 394.52,-486.68 451.45,-460.81 454.59,-459.39 457.75,-457.78 460.88,-456.06"/>
<polygon fill="black" stroke="black" points="462.58,-459.12 469.41,-451.02 459.02,-453.09 462.58,-459.12"/>
</g>
<!-- mu_y -->
<g id="node16" class="node">
<title>mu_y</title>
<polygon fill="none" stroke="black" points="220.95,-338.88 129.95,-338.88 129.95,-285.88 220.95,-285.88 220.95,-338.88"/>
<text text-anchor="middle" x="175.45" y="-323.68" font-family="Times,serif" font-size="14.00">mu_y</text>
<text text-anchor="middle" x="175.45" y="-308.68" font-family="Times,serif" font-size="14.00">~</text>
<text text-anchor="middle" x="175.45" y="-293.68" font-family="Times,serif" font-size="14.00">Deterministic</text>
</g>
<!-- beta_t&#45;&gt;mu_y -->
<g id="edge11" class="edge">
<title>beta_t&#45;&gt;mu_y</title>
<path fill="none" stroke="black" d="M173.16,-396.52C173.54,-382.68 174.02,-365.39 174.43,-350.16"/>
<polygon fill="black" stroke="black" points="177.92,-350.62 174.7,-340.53 170.93,-350.43 177.92,-350.62"/>
</g>
<!-- w -->
<g id="node3" class="node">
<title>w</title>
<ellipse fill="none" stroke="black" cx="141.45" cy="-534.29" rx="41.94" ry="37.45"/>
<text text-anchor="middle" x="141.45" y="-545.59" font-family="Times,serif" font-size="14.00">w</text>
<text text-anchor="middle" x="141.45" y="-530.59" font-family="Times,serif" font-size="14.00">~</text>
<text text-anchor="middle" x="141.45" y="-515.59" font-family="Times,serif" font-size="14.00">Normal</text>
</g>
<!-- w&#45;&gt;beta_t -->
<g id="edge10" class="edge">
<title>w&#45;&gt;beta_t</title>
<path fill="none" stroke="black" d="M151.6,-497.61C154.94,-485.86 158.67,-472.77 162.03,-460.94"/>
<polygon fill="black" stroke="black" points="165.34,-462.11 164.71,-451.53 158.61,-460.19 165.34,-462.11"/>
</g>
<!-- intercept_t -->
<g id="node4" class="node">
<title>intercept_t</title>
<ellipse fill="none" stroke="black" cx="288.45" cy="-423.34" rx="52.15" ry="37.45"/>
<text text-anchor="middle" x="288.45" y="-434.64" font-family="Times,serif" font-size="14.00">intercept_t</text>
<text text-anchor="middle" x="288.45" y="-419.64" font-family="Times,serif" font-size="14.00">~</text>
<text text-anchor="middle" x="288.45" y="-404.64" font-family="Times,serif" font-size="14.00">Normal</text>
</g>
<!-- mu_t -->
<g id="node15" class="node">
<title>mu_t</title>
<polygon fill="none" stroke="black" points="329.95,-338.88 238.95,-338.88 238.95,-285.88 329.95,-285.88 329.95,-338.88"/>
<text text-anchor="middle" x="284.45" y="-323.68" font-family="Times,serif" font-size="14.00">mu_t</text>
<text text-anchor="middle" x="284.45" y="-308.68" font-family="Times,serif" font-size="14.00">~</text>
<text text-anchor="middle" x="284.45" y="-293.68" font-family="Times,serif" font-size="14.00">Deterministic</text>
</g>
<!-- intercept_t&#45;&gt;mu_t -->
<g id="edge14" class="edge">
<title>intercept_t&#45;&gt;mu_t</title>
<path fill="none" stroke="black" d="M287.09,-385.45C286.68,-374.18 286.22,-361.78 285.81,-350.5"/>
<polygon fill="black" stroke="black" points="289.32,-350.61 285.45,-340.74 282.32,-350.86 289.32,-350.61"/>
</g>
<!-- sigma_t_bar -->
<g id="node5" class="node">
<title>sigma_t_bar</title>
<ellipse fill="none" stroke="black" cx="383.45" cy="-534.29" rx="59.29" ry="37.45"/>
<text text-anchor="middle" x="383.45" y="-545.59" font-family="Times,serif" font-size="14.00">sigma_t_bar</text>
<text text-anchor="middle" x="383.45" y="-530.59" font-family="Times,serif" font-size="14.00">~</text>
<text text-anchor="middle" x="383.45" y="-515.59" font-family="Times,serif" font-size="14.00">HalfCauchy</text>
</g>
<!-- sigma_t_bar&#45;&gt;beta_t -->
<g id="edge8" class="edge">
<title>sigma_t_bar&#45;&gt;beta_t</title>
<path fill="none" stroke="black" d="M339.22,-509.12C331.05,-504.88 322.54,-500.62 314.45,-496.81 276.57,-479.02 264.39,-480.47 227.45,-460.81 224.65,-459.32 221.81,-457.73 218.98,-456.08"/>
<polygon fill="black" stroke="black" points="221.08,-453.26 210.72,-451.04 217.44,-459.23 221.08,-453.26"/>
</g>
<!-- sigma_t_bar&#45;&gt;beta_j -->
<g id="edge6" class="edge">
<title>sigma_t_bar&#45;&gt;beta_j</title>
<path fill="none" stroke="black" d="M417.11,-503.23C432.96,-489.07 451.93,-472.13 468.21,-457.59"/>
<polygon fill="black" stroke="black" points="470.2,-460.51 475.32,-451.24 465.53,-455.29 470.2,-460.51"/>
</g>
<!-- beta_z -->
<g id="node6" class="node">
<title>beta_z</title>
<ellipse fill="none" stroke="black" cx="400.45" cy="-423.34" rx="41.94" ry="37.45"/>
<text text-anchor="middle" x="400.45" y="-434.64" font-family="Times,serif" font-size="14.00">beta_z</text>
<text text-anchor="middle" x="400.45" y="-419.64" font-family="Times,serif" font-size="14.00">~</text>
<text text-anchor="middle" x="400.45" y="-404.64" font-family="Times,serif" font-size="14.00">Normal</text>
</g>
<!-- beta_z&#45;&gt;mu_t -->
<g id="edge13" class="edge">
<title>beta_z&#45;&gt;mu_t</title>
<path fill="none" stroke="black" d="M371.77,-395.4C356.23,-380.81 336.88,-362.63 320.35,-347.1"/>
<polygon fill="black" stroke="black" points="322.78,-344.59 313.1,-340.29 317.99,-349.69 322.78,-344.59"/>
</g>
<!-- intercept_y -->
<g id="node7" class="node">
<title>intercept_y</title>
<ellipse fill="none" stroke="black" cx="54.45" cy="-423.34" rx="54.39" ry="37.45"/>
<text text-anchor="middle" x="54.45" y="-434.64" font-family="Times,serif" font-size="14.00">intercept_y</text>
<text text-anchor="middle" x="54.45" y="-419.64" font-family="Times,serif" font-size="14.00">~</text>
<text text-anchor="middle" x="54.45" y="-404.64" font-family="Times,serif" font-size="14.00">Normal</text>
</g>
<!-- intercept_y&#45;&gt;mu_y -->
<g id="edge12" class="edge">
<title>intercept_y&#45;&gt;mu_y</title>
<path fill="none" stroke="black" d="M86.87,-393.14C102.73,-378.86 121.89,-361.61 138.33,-346.8"/>
<polygon fill="black" stroke="black" points="140.44,-349.62 145.52,-340.33 135.75,-344.42 140.44,-349.62"/>
</g>
<!-- chol_cov -->
<g id="node8" class="node">
<title>chol_cov</title>
<ellipse fill="none" stroke="black" cx="396.45" cy="-190.43" rx="84.71" ry="37.45"/>
<text text-anchor="middle" x="396.45" y="-201.73" font-family="Times,serif" font-size="14.00">chol_cov</text>
<text text-anchor="middle" x="396.45" y="-186.73" font-family="Times,serif" font-size="14.00">~</text>
<text text-anchor="middle" x="396.45" y="-171.73" font-family="Times,serif" font-size="14.00">_LKJCholeskyCov</text>
</g>
<!-- chol_cov_corr -->
<g id="node9" class="node">
<title>chol_cov_corr</title>
<polygon fill="none" stroke="black" points="594.95,-102.98 499.95,-102.98 499.95,-49.98 594.95,-49.98 594.95,-102.98"/>
<text text-anchor="middle" x="547.45" y="-87.78" font-family="Times,serif" font-size="14.00">chol_cov_corr</text>
<text text-anchor="middle" x="547.45" y="-72.78" font-family="Times,serif" font-size="14.00">~</text>
<text text-anchor="middle" x="547.45" y="-57.78" font-family="Times,serif" font-size="14.00">Deterministic</text>
</g>
<!-- chol_cov&#45;&gt;chol_cov_corr -->
<g id="edge1" class="edge">
<title>chol_cov&#45;&gt;chol_cov_corr</title>
<path fill="none" stroke="black" d="M439.31,-157.65C459.43,-142.74 483.37,-124.99 503.6,-109.99"/>
<polygon fill="black" stroke="black" points="505.44,-112.97 511.39,-104.21 501.28,-107.35 505.44,-112.97"/>
</g>
<!-- cov -->
<g id="node10" class="node">
<title>cov</title>
<polygon fill="none" stroke="black" points="481.95,-102.98 390.95,-102.98 390.95,-49.98 481.95,-49.98 481.95,-102.98"/>
<text text-anchor="middle" x="436.45" y="-87.78" font-family="Times,serif" font-size="14.00">cov</text>
<text text-anchor="middle" x="436.45" y="-72.78" font-family="Times,serif" font-size="14.00">~</text>
<text text-anchor="middle" x="436.45" y="-57.78" font-family="Times,serif" font-size="14.00">Deterministic</text>
</g>
<!-- chol_cov&#45;&gt;cov -->
<g id="edge3" class="edge">
<title>chol_cov&#45;&gt;cov</title>
<path fill="none" stroke="black" d="M409.43,-153.08C413.92,-140.54 418.93,-126.49 423.42,-113.94"/>
<polygon fill="black" stroke="black" points="426.62,-115.39 426.69,-104.79 420.03,-113.03 426.62,-115.39"/>
</g>
<!-- chol_cov_stds -->
<g id="node11" class="node">
<title>chol_cov_stds</title>
<polygon fill="none" stroke="black" points="366.45,-102.98 272.45,-102.98 272.45,-49.98 366.45,-49.98 366.45,-102.98"/>
<text text-anchor="middle" x="319.45" y="-87.78" font-family="Times,serif" font-size="14.00">chol_cov_stds</text>
<text text-anchor="middle" x="319.45" y="-72.78" font-family="Times,serif" font-size="14.00">~</text>
<text text-anchor="middle" x="319.45" y="-57.78" font-family="Times,serif" font-size="14.00">Deterministic</text>
</g>
<!-- chol_cov&#45;&gt;chol_cov_stds -->
<g id="edge2" class="edge">
<title>chol_cov&#45;&gt;chol_cov_stds</title>
<path fill="none" stroke="black" d="M372.3,-154.31C363.14,-141 352.72,-125.85 343.57,-112.54"/>
<polygon fill="black" stroke="black" points="346.57,-110.73 338.02,-104.48 340.8,-114.7 346.57,-110.73"/>
</g>
<!-- likelihood -->
<g id="node17" class="node">
<title>likelihood</title>
<ellipse fill="lightgrey" stroke="black" cx="193.45" cy="-76.48" rx="55.31" ry="37.45"/>
<text text-anchor="middle" x="193.45" y="-87.78" font-family="Times,serif" font-size="14.00">likelihood</text>
<text text-anchor="middle" x="193.45" y="-72.78" font-family="Times,serif" font-size="14.00">~</text>
<text text-anchor="middle" x="193.45" y="-57.78" font-family="Times,serif" font-size="14.00">MvNormal</text>
</g>
<!-- chol_cov&#45;&gt;likelihood -->
<g id="edge17" class="edge">
<title>chol_cov&#45;&gt;likelihood</title>
<path fill="none" stroke="black" d="M344.17,-160.6C313.98,-143.95 276.13,-123.08 245.92,-106.41"/>
<polygon fill="black" stroke="black" points="247.76,-103.43 237.31,-101.67 244.38,-109.56 247.76,-103.43"/>
</g>
<!-- beta_j_observed -->
<g id="node12" class="node">
<title>beta_j_observed</title>
<ellipse fill="lightgrey" stroke="black" cx="532.45" cy="-312.38" rx="74.49" ry="37.45"/>
<text text-anchor="middle" x="532.45" y="-323.68" font-family="Times,serif" font-size="14.00">beta_j_observed</text>
<text text-anchor="middle" x="532.45" y="-308.68" font-family="Times,serif" font-size="14.00">~</text>
<text text-anchor="middle" x="532.45" y="-293.68" font-family="Times,serif" font-size="14.00">Normal</text>
</g>
<!-- w_j -->
<g id="node13" class="node">
<title>w_j</title>
<ellipse fill="none" stroke="black" cx="505.45" cy="-534.29" rx="41.94" ry="37.45"/>
<text text-anchor="middle" x="505.45" y="-545.59" font-family="Times,serif" font-size="14.00">w_j</text>
<text text-anchor="middle" x="505.45" y="-530.59" font-family="Times,serif" font-size="14.00">~</text>
<text text-anchor="middle" x="505.45" y="-515.59" font-family="Times,serif" font-size="14.00">Normal</text>
</g>
<!-- w_j&#45;&gt;beta_j -->
<g id="edge4" class="edge">
<title>w_j&#45;&gt;beta_j</title>
<path fill="none" stroke="black" d="M505.45,-496.4C505.45,-485.13 505.45,-472.74 505.45,-461.45"/>
<polygon fill="black" stroke="black" points="508.95,-461.7 505.45,-451.7 501.95,-461.7 508.95,-461.7"/>
</g>
<!-- beta_j&#45;&gt;beta_j_observed -->
<g id="edge7" class="edge">
<title>beta_j&#45;&gt;beta_j_observed</title>
<path fill="none" stroke="black" d="M511.85,-396.52C514.5,-385.82 517.66,-373.06 520.7,-360.79"/>
<polygon fill="black" stroke="black" points="524.07,-361.75 523.07,-351.21 517.27,-360.07 524.07,-361.75"/>
</g>
<!-- mu -->
<g id="node18" class="node">
<title>mu</title>
<polygon fill="none" stroke="black" points="238.95,-216.93 147.95,-216.93 147.95,-163.93 238.95,-163.93 238.95,-216.93"/>
<text text-anchor="middle" x="193.45" y="-201.73" font-family="Times,serif" font-size="14.00">mu</text>
<text text-anchor="middle" x="193.45" y="-186.73" font-family="Times,serif" font-size="14.00">~</text>
<text text-anchor="middle" x="193.45" y="-171.73" font-family="Times,serif" font-size="14.00">Deterministic</text>
</g>
<!-- mu_t&#45;&gt;mu -->
<g id="edge15" class="edge">
<title>mu_t&#45;&gt;mu</title>
<path fill="none" stroke="black" d="M264.93,-285.65C251.73,-268.26 234.15,-245.09 219.73,-226.08"/>
<polygon fill="black" stroke="black" points="222.68,-224.18 213.85,-218.33 217.11,-228.41 222.68,-224.18"/>
</g>
<!-- mu_y&#45;&gt;mu -->
<g id="edge16" class="edge">
<title>mu_y&#45;&gt;mu</title>
<path fill="none" stroke="black" d="M179.31,-285.65C181.81,-268.97 185.11,-246.97 187.9,-228.43"/>
<polygon fill="black" stroke="black" points="191.34,-229.03 189.37,-218.62 184.42,-227.99 191.34,-229.03"/>
</g>
<!-- mu&#45;&gt;likelihood -->
<g id="edge18" class="edge">
<title>mu&#45;&gt;likelihood</title>
<path fill="none" stroke="black" d="M193.45,-163.46C193.45,-152.17 193.45,-138.57 193.45,-125.55"/>
<polygon fill="black" stroke="black" points="196.95,-125.84 193.45,-115.84 189.95,-125.84 196.95,-125.84"/>
</g>
</g>
</svg>
