<?xml version="1.0" encoding="UTF-8" standalone="no"?>
<!DOCTYPE svg PUBLIC "-//W3C//DTD SVG 1.1//EN"
 "http://www.w3.org/Graphics/SVG/1.1/DTD/svg11.dtd">
<!-- Generated by graphviz version 12.0.0 (0)
 -->
<!-- Pages: 1 -->
<svg width="408pt" height="195pt"
 viewBox="0.00 0.00 408.04 194.50" xmlns="http://www.w3.org/2000/svg" xmlns:xlink="http://www.w3.org/1999/xlink">
<g id="graph0" class="graph" transform="scale(1 1) rotate(0) translate(4 190.5)">
<polygon fill="white" stroke="none" points="-4,4 -4,-190.5 404.04,-190.5 404.04,4 -4,4"/>
<g id="clust1" class="cluster">
<title>cluster_observations</title>
<polygon fill="none" stroke="black" points="67.16,-8 67.16,-84.5 195.16,-84.5 195.16,-8 67.16,-8"/>
<text text-anchor="middle" x="153.04" y="-15.2" font-family="Times,serif" font-size="14.00">observations</text>
</g>
<!-- intercept -->
<g id="node1" class="node">
<title>intercept</title>
<ellipse fill="white" stroke="black" cx="43.16" cy="-149.5" rx="43.16" ry="18"/>
<text text-anchor="middle" x="43.16" y="-144.45" font-family="Times,serif" font-size="14.00">intercept</text>
</g>
<!-- y_post_pred -->
<g id="node4" class="node">
<title>y_post_pred</title>
<ellipse fill="grey" stroke="black" cx="131.16" cy="-58.5" rx="56.47" ry="18"/>
<text text-anchor="middle" x="131.16" y="-53.45" font-family="Times,serif" font-size="14.00">y_post_pred</text>
</g>
<!-- intercept&#45;&gt;y_post_pred -->
<g id="edge1" class="edge">
<title>intercept&#45;&gt;y_post_pred</title>
<path fill="none" stroke="black" d="M58.9,-132.59C72.16,-119.17 91.37,-99.75 106.65,-84.29"/>
<polygon fill="black" stroke="black" points="109.06,-86.83 113.61,-77.26 104.09,-81.91 109.06,-86.83"/>
</g>
<!-- beta -->
<g id="node2" class="node">
<title>beta</title>
<ellipse fill="white" stroke="black" cx="131.16" cy="-149.5" rx="27" ry="18"/>
<text text-anchor="middle" x="131.16" y="-144.45" font-family="Times,serif" font-size="14.00">beta</text>
</g>
<!-- beta&#45;&gt;y_post_pred -->
<g id="edge2" class="edge">
<title>beta&#45;&gt;y_post_pred</title>
<path fill="none" stroke="black" d="M131.16,-131.34C131.16,-119.11 131.16,-102.37 131.16,-88.13"/>
<polygon fill="black" stroke="black" points="134.66,-88.42 131.16,-78.42 127.66,-88.42 134.66,-88.42"/>
</g>
<!-- sigma -->
<g id="node3" class="node">
<title>sigma</title>
<ellipse fill="white" stroke="black" cx="209.16" cy="-149.5" rx="33.44" ry="18"/>
<text text-anchor="middle" x="209.16" y="-144.45" font-family="Times,serif" font-size="14.00">sigma</text>
</g>
<!-- sigma&#45;&gt;y_post_pred -->
<g id="edge3" class="edge">
<title>sigma&#45;&gt;y_post_pred</title>
<path fill="none" stroke="black" d="M195.58,-133C183.97,-119.76 167.06,-100.45 153.47,-84.95"/>
<polygon fill="black" stroke="black" points="156.14,-82.69 146.92,-77.48 150.88,-87.3 156.14,-82.69"/>
</g>
<!-- distribution_description_node -->
<g id="node5" class="node">
<title>distribution_description_node</title>
<text text-anchor="start" x="268.29" y="-169.2" font-family="Times,serif" font-size="14.00">intercept ~ Normal</text>
<text text-anchor="start" x="268.29" y="-152.7" font-family="Times,serif" font-size="14.00">beta ~ Normal</text>
<text text-anchor="start" x="268.29" y="-136.2" font-family="Times,serif" font-size="14.00">sigma ~ HalfCauchy</text>
<text text-anchor="start" x="268.29" y="-119.7" font-family="Times,serif" font-size="14.00">y_post_pred ~ Normal</text>
</g>
</g>
</svg>
