<?xml version="1.0" encoding="UTF-8" standalone="no"?>
<!DOCTYPE svg PUBLIC "-//W3C//DTD SVG 1.1//EN"
 "http://www.w3.org/Graphics/SVG/1.1/DTD/svg11.dtd">
<!-- Generated by graphviz version 12.0.0 (0)
 -->
<!-- Pages: 1 -->
<svg width="1060pt" height="277pt"
 viewBox="0.00 0.00 1059.88 277.00" xmlns="http://www.w3.org/2000/svg" xmlns:xlink="http://www.w3.org/1999/xlink">
<g id="graph0" class="graph" transform="scale(1 1) rotate(0) translate(4 273)">
<polygon fill="white" stroke="none" points="-4,4 -4,-273 1055.88,-273 1055.88,4 -4,4"/>
<g id="clust1" class="cluster">
<title>cluster_target_conditioning</title>
<polygon fill="none" stroke="black" points="75.75,-8 75.75,-84.5 203.75,-84.5 203.75,-8 75.75,-8"/>
<text text-anchor="middle" x="142.88" y="-15.2" font-family="Times,serif" font-size="14.00">target_conditioning</text>
</g>
<g id="clust2" class="cluster">
<title>cluster_cuped_conditioning</title>
<polygon fill="none" stroke="black" points="501.75,-8 501.75,-84.5 643.75,-84.5 643.75,-8 501.75,-8"/>
<text text-anchor="middle" x="582.13" y="-15.2" font-family="Times,serif" font-size="14.00">cuped_conditioning</text>
</g>
<!-- intercept_target -->
<g id="node1" class="node">
<title>intercept_target</title>
<ellipse fill="white" stroke="black" cx="68.75" cy="-190.75" rx="68.75" ry="18"/>
<text text-anchor="middle" x="68.75" y="-185.7" font-family="Times,serif" font-size="14.00">intercept_target</text>
</g>
<!-- y_post_pred -->
<g id="node8" class="node">
<title>y_post_pred</title>
<ellipse fill="grey" stroke="black" cx="139.75" cy="-58.5" rx="56.47" ry="18"/>
<text text-anchor="middle" x="139.75" y="-53.45" font-family="Times,serif" font-size="14.00">y_post_pred</text>
</g>
<!-- intercept_target&#45;&gt;y_post_pred -->
<g id="edge1" class="edge">
<title>intercept_target&#45;&gt;y_post_pred</title>
<path fill="none" stroke="black" d="M78.18,-172.45C90.18,-150.44 111.04,-112.17 125.12,-86.34"/>
<polygon fill="black" stroke="black" points="128.07,-88.24 129.79,-77.78 121.93,-84.89 128.07,-88.24"/>
</g>
<!-- theta -->
<g id="node2" class="node">
<title>theta</title>
<ellipse fill="white" stroke="black" cx="314.75" cy="-190.75" rx="28.83" ry="18"/>
<text text-anchor="middle" x="314.75" y="-185.7" font-family="Times,serif" font-size="14.00">theta</text>
</g>
<!-- sigma_theta -->
<g id="node3" class="node">
<title>sigma_theta</title>
<ellipse fill="white" stroke="black" cx="211.75" cy="-190.75" rx="55.96" ry="18"/>
<text text-anchor="middle" x="211.75" y="-185.7" font-family="Times,serif" font-size="14.00">sigma_theta</text>
</g>
<!-- sigma_theta&#45;&gt;y_post_pred -->
<g id="edge2" class="edge">
<title>sigma_theta&#45;&gt;y_post_pred</title>
<path fill="none" stroke="black" d="M202.34,-172.72C190.21,-150.78 168.99,-112.39 154.66,-86.46"/>
<polygon fill="black" stroke="black" points="157.8,-84.92 149.9,-77.86 151.67,-88.3 157.8,-84.92"/>
</g>
<!-- intercept_cuped -->
<g id="node4" class="node">
<title>intercept_cuped</title>
<ellipse fill="white" stroke="black" cx="431.75" cy="-190.75" rx="69.78" ry="18"/>
<text text-anchor="middle" x="431.75" y="-185.7" font-family="Times,serif" font-size="14.00">intercept_cuped</text>
</g>
<!-- y_cuped_pred -->
<g id="node9" class="node">
<title>y_cuped_pred</title>
<ellipse fill="grey" stroke="black" cx="572.75" cy="-58.5" rx="63.12" ry="18"/>
<text text-anchor="middle" x="572.75" y="-53.45" font-family="Times,serif" font-size="14.00">y_cuped_pred</text>
</g>
<!-- intercept_cuped&#45;&gt;y_cuped_pred -->
<g id="edge3" class="edge">
<title>intercept_cuped&#45;&gt;y_cuped_pred</title>
<path fill="none" stroke="black" d="M448.39,-172.84C464.16,-156.96 488.67,-132.69 510.75,-112.5 521.53,-102.65 533.68,-92.13 544.36,-83.08"/>
<polygon fill="black" stroke="black" points="546.36,-85.97 551.76,-76.85 541.85,-80.62 546.36,-85.97"/>
</g>
<!-- beta_cuped -->
<g id="node5" class="node">
<title>beta_cuped</title>
<ellipse fill="white" stroke="black" cx="572.75" cy="-190.75" rx="52.89" ry="18"/>
<text text-anchor="middle" x="572.75" y="-185.7" font-family="Times,serif" font-size="14.00">beta_cuped</text>
</g>
<!-- beta_cuped&#45;&gt;y_cuped_pred -->
<g id="edge4" class="edge">
<title>beta_cuped&#45;&gt;y_cuped_pred</title>
<path fill="none" stroke="black" d="M572.75,-172.45C572.75,-150.95 572.75,-113.93 572.75,-88.16"/>
<polygon fill="black" stroke="black" points="576.25,-88.38 572.75,-78.38 569.25,-88.38 576.25,-88.38"/>
</g>
<!-- sigma_cuped -->
<g id="node6" class="node">
<title>sigma_cuped</title>
<ellipse fill="white" stroke="black" cx="703.75" cy="-190.75" rx="60.05" ry="18"/>
<text text-anchor="middle" x="703.75" y="-185.7" font-family="Times,serif" font-size="14.00">sigma_cuped</text>
</g>
<!-- sigma_cuped&#45;&gt;y_cuped_pred -->
<g id="edge5" class="edge">
<title>sigma_cuped&#45;&gt;y_cuped_pred</title>
<path fill="none" stroke="black" d="M689.83,-172.89C676.31,-156.83 654.93,-132.25 634.75,-112.5 624.39,-102.36 612.41,-91.86 601.75,-82.91"/>
<polygon fill="black" stroke="black" points="604.27,-80.45 594.34,-76.76 599.8,-85.84 604.27,-80.45"/>
</g>
<!-- y_cuped -->
<g id="node7" class="node">
<title>y_cuped</title>
<ellipse fill="white" stroke="black" stroke-dasharray="5,2" cx="823.75" cy="-190.75" rx="42.14" ry="18"/>
<text text-anchor="middle" x="823.75" y="-185.7" font-family="Times,serif" font-size="14.00">y_cuped</text>
</g>
<!-- distribution_description_node -->
<g id="node10" class="node">
<title>distribution_description_node</title>
<text text-anchor="start" x="891.63" y="-251.7" font-family="Times,serif" font-size="14.00">intercept_target ~ Normal</text>
<text text-anchor="start" x="891.63" y="-235.2" font-family="Times,serif" font-size="14.00">theta ~ Normal</text>
<text text-anchor="start" x="891.63" y="-218.7" font-family="Times,serif" font-size="14.00">sigma_theta ~ HalfCauchy</text>
<text text-anchor="start" x="891.63" y="-202.2" font-family="Times,serif" font-size="14.00">intercept_cuped ~ Normal</text>
<text text-anchor="start" x="891.63" y="-185.7" font-family="Times,serif" font-size="14.00">beta_cuped ~ Normal</text>
<text text-anchor="start" x="891.63" y="-169.2" font-family="Times,serif" font-size="14.00">sigma_cuped ~ HalfCauchy</text>
<text text-anchor="start" x="891.63" y="-152.7" font-family="Times,serif" font-size="14.00">y_post_pred ~ Normal</text>
<text text-anchor="start" x="891.63" y="-136.2" font-family="Times,serif" font-size="14.00">y_cuped ~ Deterministic</text>
<text text-anchor="start" x="891.63" y="-119.7" font-family="Times,serif" font-size="14.00">y_cuped_pred ~ Normal</text>
</g>
</g>
</svg>
