<?xml version="1.0" encoding="UTF-8" standalone="no"?>
<!DOCTYPE svg PUBLIC "-//W3C//DTD SVG 1.1//EN"
 "http://www.w3.org/Graphics/SVG/1.1/DTD/svg11.dtd">
<!-- Generated by graphviz version 14.0.5 (0)
 -->
<!-- Pages: 1 -->
<svg width="600pt" height="373pt"
 viewBox="0.00 0.00 600.00 373.00" xmlns="http://www.w3.org/2000/svg" xmlns:xlink="http://www.w3.org/1999/xlink">
<g id="graph0" class="graph" transform="scale(1 1) rotate(0) translate(4 368.5)">
<polygon fill="white" stroke="none" points="-4,4 -4,-368.5 595.69,-368.5 595.69,4 -4,4"/>
<g id="clust1" class="cluster">
<title>cluster_obs</title>
<polygon fill="none" stroke="black" points="8,-8 8,-300.5 248,-300.5 248,-8 8,-8"/>
<text xml:space="preserve" text-anchor="middle" x="230.62" y="-15.2" font-family="Times,serif" font-size="14.00">obs</text>
</g>
<!-- ρ_member -->
<g id="node1" class="node">
<title>ρ_member</title>
<ellipse fill="white" stroke="black" cx="164" cy="-346.5" rx="51.35" ry="18"/>
<text xml:space="preserve" text-anchor="middle" x="164" y="-341.45" font-family="Times,serif" font-size="14.00">ρ_member</text>
</g>
<!-- is_guild_member -->
<g id="node5" class="node">
<title>is_guild_member</title>
<ellipse fill="grey" stroke="black" cx="164" cy="-274.5" rx="76.43" ry="18"/>
<text xml:space="preserve" text-anchor="middle" x="164" y="-269.45" font-family="Times,serif" font-size="14.00">is_guild_member</text>
</g>
<!-- ρ_member&#45;&gt;is_guild_member -->
<g id="edge1" class="edge">
<title>ρ_member&#45;&gt;is_guild_member</title>
<path fill="none" stroke="black" d="M164,-328.2C164,-320.91 164,-312.23 164,-304.04"/>
<polygon fill="black" stroke="black" points="167.5,-304.12 164,-294.12 160.5,-304.12 167.5,-304.12"/>
</g>
<!-- ρ_won_engaged -->
<g id="node2" class="node">
<title>ρ_won_engaged</title>
<ellipse fill="white" stroke="black" cx="327" cy="-202.5" rx="71.31" ry="18"/>
<text xml:space="preserve" text-anchor="middle" x="327" y="-197.45" font-family="Times,serif" font-size="14.00">ρ_won_engaged</text>
</g>
<!-- won_items -->
<g id="node7" class="node">
<title>won_items</title>
<ellipse fill="grey" stroke="black" cx="188" cy="-130.5" rx="51.86" ry="18"/>
<text xml:space="preserve" text-anchor="middle" x="188" y="-125.45" font-family="Times,serif" font-size="14.00">won_items</text>
</g>
<!-- ρ_won_engaged&#45;&gt;won_items -->
<g id="edge4" class="edge">
<title>ρ_won_engaged&#45;&gt;won_items</title>
<path fill="none" stroke="black" d="M296.15,-185.96C275.58,-175.6 248.37,-161.9 226.4,-150.84"/>
<polygon fill="black" stroke="black" points="228.25,-147.85 217.75,-146.48 225.1,-154.1 228.25,-147.85"/>
</g>
<!-- ρ_won_not_engaged -->
<g id="node3" class="node">
<title>ρ_won_not_engaged</title>
<ellipse fill="white" stroke="black" cx="504" cy="-202.5" rx="87.69" ry="18"/>
<text xml:space="preserve" text-anchor="middle" x="504" y="-197.45" font-family="Times,serif" font-size="14.00">ρ_won_not_engaged</text>
</g>
<!-- ρ_won_not_engaged&#45;&gt;won_items -->
<g id="edge5" class="edge">
<title>ρ_won_not_engaged&#45;&gt;won_items</title>
<path fill="none" stroke="black" d="M446.04,-188.66C387.74,-175.75 298.58,-156 241.8,-143.42"/>
<polygon fill="black" stroke="black" points="242.9,-140.08 232.38,-141.33 241.38,-146.91 242.9,-140.08"/>
</g>
<!-- z -->
<g id="node4" class="node">
<title>z</title>
<ellipse fill="white" stroke="black" cx="43" cy="-274.5" rx="27" ry="18"/>
<text xml:space="preserve" text-anchor="middle" x="43" y="-269.45" font-family="Times,serif" font-size="14.00">z</text>
</g>
<!-- is_highly_engaged -->
<g id="node6" class="node">
<title>is_highly_engaged</title>
<ellipse fill="grey" stroke="black" cx="117" cy="-202.5" rx="80.52" ry="18"/>
<text xml:space="preserve" text-anchor="middle" x="117" y="-197.45" font-family="Times,serif" font-size="14.00">is_highly_engaged</text>
</g>
<!-- z&#45;&gt;is_highly_engaged -->
<g id="edge2" class="edge">
<title>z&#45;&gt;is_highly_engaged</title>
<path fill="none" stroke="black" d="M57.98,-259.33C67.47,-250.36 80,-238.5 91.07,-228.03"/>
<polygon fill="black" stroke="black" points="93.22,-230.81 98.08,-221.4 88.41,-225.73 93.22,-230.81"/>
</g>
<!-- in_game_purchases -->
<g id="node8" class="node">
<title>in_game_purchases</title>
<ellipse fill="grey" stroke="black" cx="117" cy="-58.5" rx="84.11" ry="18"/>
<text xml:space="preserve" text-anchor="middle" x="117" y="-53.45" font-family="Times,serif" font-size="14.00">in_game_purchases</text>
</g>
<!-- z&#45;&gt;in_game_purchases -->
<g id="edge7" class="edge">
<title>z&#45;&gt;in_game_purchases</title>
<path fill="none" stroke="black" d="M35.22,-256.77C27.89,-238.64 19.1,-209 27,-184.5 39.59,-145.46 69.41,-108.32 91.29,-84.83"/>
<polygon fill="black" stroke="black" points="93.81,-87.26 98.19,-77.61 88.75,-82.42 93.81,-87.26"/>
</g>
<!-- is_guild_member&#45;&gt;is_highly_engaged -->
<g id="edge3" class="edge">
<title>is_guild_member&#45;&gt;is_highly_engaged</title>
<path fill="none" stroke="black" d="M152.62,-256.55C147.33,-248.68 140.91,-239.12 134.99,-230.29"/>
<polygon fill="black" stroke="black" points="137.92,-228.38 129.44,-222.03 132.11,-232.29 137.92,-228.38"/>
</g>
<!-- is_guild_member&#45;&gt;in_game_purchases -->
<g id="edge8" class="edge">
<title>is_guild_member&#45;&gt;in_game_purchases</title>
<path fill="none" stroke="black" d="M182.27,-256.77C200.07,-238.38 222.37,-208.28 207,-184.5 185.83,-151.76 149.97,-180.01 127,-148.5 114.45,-131.29 112.47,-107.01 113.34,-88.16"/>
<polygon fill="black" stroke="black" points="116.83,-88.44 114.12,-78.19 109.85,-87.89 116.83,-88.44"/>
</g>
<!-- is_highly_engaged&#45;&gt;won_items -->
<g id="edge6" class="edge">
<title>is_highly_engaged&#45;&gt;won_items</title>
<path fill="none" stroke="black" d="M134.19,-184.55C142.95,-175.92 153.76,-165.26 163.39,-155.77"/>
<polygon fill="black" stroke="black" points="165.72,-158.38 170.38,-148.87 160.8,-153.4 165.72,-158.38"/>
</g>
<!-- won_items&#45;&gt;in_game_purchases -->
<g id="edge9" class="edge">
<title>won_items&#45;&gt;in_game_purchases</title>
<path fill="none" stroke="black" d="M171.53,-113.26C162.7,-104.56 151.63,-93.65 141.78,-83.93"/>
<polygon fill="black" stroke="black" points="144.53,-81.72 134.95,-77.2 139.61,-86.71 144.53,-81.72"/>
</g>
</g>
</svg>
