<?xml version="1.0" encoding="UTF-8" standalone="no"?>
<!DOCTYPE svg PUBLIC "-//W3C//DTD SVG 1.1//EN"
 "http://www.w3.org/Graphics/SVG/1.1/DTD/svg11.dtd">
<!-- Generated by graphviz version 12.0.0 (0)
 -->
<!-- Pages: 1 -->
<svg width="551pt" height="195pt"
 viewBox="0.00 0.00 550.62 194.50" xmlns="http://www.w3.org/2000/svg" xmlns:xlink="http://www.w3.org/1999/xlink">
<g id="graph0" class="graph" transform="scale(1 1) rotate(0) translate(4 190.5)">
<polygon fill="white" stroke="none" points="-4,4 -4,-190.5 546.62,-190.5 546.62,4 -4,4"/>
<g id="clust1" class="cluster">
<title>cluster_sku</title>
<polygon fill="none" stroke="black" points="8,-99 8,-175.5 379,-175.5 379,-99 8,-99"/>
<text text-anchor="middle" x="361.62" y="-106.2" font-family="Times,serif" font-size="14.00">sku</text>
</g>
<g id="clust2" class="cluster">
<title>cluster_data</title>
<polygon fill="none" stroke="black" points="186,-8 186,-84.5 256,-84.5 256,-8 186,-8"/>
<text text-anchor="middle" x="236.75" y="-15.2" font-family="Times,serif" font-size="14.00">data</text>
</g>
<!-- sku_intercept -->
<g id="node1" class="node">
<title>sku_intercept</title>
<ellipse fill="white" stroke="black" cx="77" cy="-149.5" rx="60.56" ry="18"/>
<text text-anchor="middle" x="77" y="-144.45" font-family="Times,serif" font-size="14.00">sku_intercept</text>
</g>
<!-- obs -->
<g id="node4" class="node">
<title>obs</title>
<ellipse fill="grey" stroke="black" cx="221" cy="-58.5" rx="27" ry="18"/>
<text text-anchor="middle" x="221" y="-53.45" font-family="Times,serif" font-size="14.00">obs</text>
</g>
<!-- sku_intercept&#45;&gt;obs -->
<g id="edge1" class="edge">
<title>sku_intercept&#45;&gt;obs</title>
<path fill="none" stroke="black" d="M97.93,-132.34C111.35,-122.27 129.32,-109.31 146,-99 159.97,-90.37 176,-81.76 189.65,-74.79"/>
<polygon fill="black" stroke="black" points="190.84,-78.11 198.2,-70.49 187.7,-71.86 190.84,-78.11"/>
</g>
<!-- beta_log_price -->
<g id="node2" class="node">
<title>beta_log_price</title>
<ellipse fill="white" stroke="black" cx="221" cy="-149.5" rx="65.68" ry="18"/>
<text text-anchor="middle" x="221" y="-144.45" font-family="Times,serif" font-size="14.00">beta_log_price</text>
</g>
<!-- beta_log_price&#45;&gt;obs -->
<g id="edge2" class="edge">
<title>beta_log_price&#45;&gt;obs</title>
<path fill="none" stroke="black" d="M221,-131.34C221,-119.11 221,-102.37 221,-88.13"/>
<polygon fill="black" stroke="black" points="224.5,-88.42 221,-78.42 217.5,-88.42 224.5,-88.42"/>
</g>
<!-- sigma -->
<g id="node3" class="node">
<title>sigma</title>
<ellipse fill="white" stroke="black" cx="338" cy="-149.5" rx="33.44" ry="18"/>
<text text-anchor="middle" x="338" y="-144.45" font-family="Times,serif" font-size="14.00">sigma</text>
</g>
<!-- sigma&#45;&gt;obs -->
<g id="edge3" class="edge">
<title>sigma&#45;&gt;obs</title>
<path fill="none" stroke="black" d="M326.85,-132.39C319.06,-121.96 307.96,-108.59 296,-99 283.28,-88.8 267.53,-80.03 253.75,-73.37"/>
<polygon fill="black" stroke="black" points="255.6,-70.37 245.05,-69.33 252.65,-76.71 255.6,-70.37"/>
</g>
<!-- distribution_description_node -->
<g id="node5" class="node">
<title>distribution_description_node</title>
<text text-anchor="start" x="397.38" y="-169.2" font-family="Times,serif" font-size="14.00">sku_intercept ~ Normal</text>
<text text-anchor="start" x="397.38" y="-152.7" font-family="Times,serif" font-size="14.00">beta_log_price ~ Normal</text>
<text text-anchor="start" x="397.38" y="-136.2" font-family="Times,serif" font-size="14.00">sigma ~ HalfNormal</text>
<text text-anchor="start" x="397.38" y="-119.7" font-family="Times,serif" font-size="14.00">obs ~ Normal</text>
</g>
</g>
</svg>
