<?xml version="1.0" encoding="UTF-8" standalone="no"?>
<!DOCTYPE svg PUBLIC "-//W3C//DTD SVG 1.1//EN"
 "http://www.w3.org/Graphics/SVG/1.1/DTD/svg11.dtd">
<!-- Generated by graphviz version 12.0.0 (0)
 -->
<!-- Pages: 1 -->
<svg width="701pt" height="211pt"
 viewBox="0.00 0.00 700.62 211.00" xmlns="http://www.w3.org/2000/svg" xmlns:xlink="http://www.w3.org/1999/xlink">
<g id="graph0" class="graph" transform="scale(1 1) rotate(0) translate(4 207)">
<polygon fill="white" stroke="none" points="-4,4 -4,-207 696.62,-207 696.62,4 -4,4"/>
<g id="clust1" class="cluster">
<title>cluster_sku</title>
<polygon fill="none" stroke="black" points="8,-107.25 8,-183.75 379,-183.75 379,-107.25 8,-107.25"/>
<text text-anchor="middle" x="361.62" y="-114.45" font-family="Times,serif" font-size="14.00">sku</text>
</g>
<g id="clust2" class="cluster">
<title>cluster_date</title>
<polygon fill="none" stroke="black" points="387,-107.25 387,-183.75 529,-183.75 529,-107.25 387,-107.25"/>
<text text-anchor="middle" x="509.75" y="-114.45" font-family="Times,serif" font-size="14.00">date</text>
</g>
<g id="clust3" class="cluster">
<title>cluster_data</title>
<polygon fill="none" stroke="black" points="244,-8 244,-84.5 314,-84.5 314,-8 244,-8"/>
<text text-anchor="middle" x="294.75" y="-15.2" font-family="Times,serif" font-size="14.00">data</text>
</g>
<!-- sku_intercept -->
<g id="node1" class="node">
<title>sku_intercept</title>
<ellipse fill="white" stroke="black" cx="77" cy="-157.75" rx="60.56" ry="18"/>
<text text-anchor="middle" x="77" y="-152.7" font-family="Times,serif" font-size="14.00">sku_intercept</text>
</g>
<!-- obs -->
<g id="node5" class="node">
<title>obs</title>
<ellipse fill="grey" stroke="black" cx="279" cy="-58.5" rx="27" ry="18"/>
<text text-anchor="middle" x="279" y="-53.45" font-family="Times,serif" font-size="14.00">obs</text>
</g>
<!-- sku_intercept&#45;&gt;obs -->
<g id="edge1" class="edge">
<title>sku_intercept&#45;&gt;obs</title>
<path fill="none" stroke="black" d="M96.57,-140.46C109.88,-129.96 128.25,-116.57 146,-107.25 177.36,-90.78 215.65,-77.7 243.08,-69.43"/>
<polygon fill="black" stroke="black" points="244.06,-72.79 252.66,-66.61 242.08,-66.07 244.06,-72.79"/>
</g>
<!-- beta_log_price -->
<g id="node2" class="node">
<title>beta_log_price</title>
<ellipse fill="white" stroke="black" cx="221" cy="-157.75" rx="65.68" ry="18"/>
<text text-anchor="middle" x="221" y="-152.7" font-family="Times,serif" font-size="14.00">beta_log_price</text>
</g>
<!-- beta_log_price&#45;&gt;obs -->
<g id="edge2" class="edge">
<title>beta_log_price&#45;&gt;obs</title>
<path fill="none" stroke="black" d="M231.1,-139.81C240.11,-124.71 253.43,-102.38 263.73,-85.1"/>
<polygon fill="black" stroke="black" points="266.51,-87.28 268.62,-76.9 260.49,-83.7 266.51,-87.28"/>
</g>
<!-- sigma -->
<g id="node3" class="node">
<title>sigma</title>
<ellipse fill="white" stroke="black" cx="338" cy="-157.75" rx="33.44" ry="18"/>
<text text-anchor="middle" x="338" y="-152.7" font-family="Times,serif" font-size="14.00">sigma</text>
</g>
<!-- sigma&#45;&gt;obs -->
<g id="edge3" class="edge">
<title>sigma&#45;&gt;obs</title>
<path fill="none" stroke="black" d="M327.99,-140.25C318.87,-125.21 305.24,-102.75 294.67,-85.33"/>
<polygon fill="black" stroke="black" points="297.83,-83.78 289.65,-77.05 291.84,-87.41 297.83,-83.78"/>
</g>
<!-- date_intercept -->
<g id="node4" class="node">
<title>date_intercept</title>
<ellipse fill="white" stroke="black" cx="458" cy="-157.75" rx="63.12" ry="18"/>
<text text-anchor="middle" x="458" y="-152.7" font-family="Times,serif" font-size="14.00">date_intercept</text>
</g>
<!-- date_intercept&#45;&gt;obs -->
<g id="edge4" class="edge">
<title>date_intercept&#45;&gt;obs</title>
<path fill="none" stroke="black" d="M435.59,-140.65C420.97,-130.49 401.28,-117.4 383,-107.25 360.03,-94.5 333.04,-82.18 312.32,-73.25"/>
<polygon fill="black" stroke="black" points="313.77,-70.06 303.2,-69.37 311.03,-76.5 313.77,-70.06"/>
</g>
<!-- distribution_description_node -->
<g id="node6" class="node">
<title>distribution_description_node</title>
<text text-anchor="start" x="547.38" y="-185.7" font-family="Times,serif" font-size="14.00">sku_intercept ~ Normal</text>
<text text-anchor="start" x="547.38" y="-169.2" font-family="Times,serif" font-size="14.00">beta_log_price ~ Normal</text>
<text text-anchor="start" x="547.38" y="-152.7" font-family="Times,serif" font-size="14.00">sigma ~ HalfNormal</text>
<text text-anchor="start" x="547.38" y="-136.2" font-family="Times,serif" font-size="14.00">date_intercept ~ Normal</text>
<text text-anchor="start" x="547.38" y="-119.7" font-family="Times,serif" font-size="14.00">obs ~ Normal</text>
</g>
</g>
</svg>
