<?xml version="1.0" encoding="UTF-8" standalone="no"?>
<!DOCTYPE svg PUBLIC "-//W3C//DTD SVG 1.1//EN"
 "http://www.w3.org/Graphics/SVG/1.1/DTD/svg11.dtd">
<!-- Generated by graphviz version 12.0.0 (0)
 -->
<!-- Pages: 1 -->
<svg width="256pt" height="188pt"
 viewBox="0.00 0.00 256.50 188.00" xmlns="http://www.w3.org/2000/svg" xmlns:xlink="http://www.w3.org/1999/xlink">
<g id="graph0" class="graph" transform="scale(1 1) rotate(0) translate(4 184)">
<polygon fill="white" stroke="none" points="-4,4 -4,-184 252.5,-184 252.5,4 -4,4"/>
<!-- price -->
<g id="node1" class="node">
<title>price</title>
<ellipse fill="none" stroke="black" cx="127.63" cy="-90" rx="29.34" ry="18"/>
<text text-anchor="middle" x="127.63" y="-84.95" font-family="Times,serif" font-size="14.00">price</text>
</g>
<!-- quantity -->
<g id="node2" class="node">
<title>quantity</title>
<ellipse fill="none" stroke="black" cx="127.63" cy="-18" rx="41.12" ry="18"/>
<text text-anchor="middle" x="127.63" y="-12.95" font-family="Times,serif" font-size="14.00">quantity</text>
</g>
<!-- price&#45;&gt;quantity -->
<g id="edge1" class="edge">
<title>price&#45;&gt;quantity</title>
<path fill="none" stroke="black" d="M127.63,-71.7C127.63,-64.41 127.63,-55.73 127.63,-47.54"/>
<polygon fill="black" stroke="black" points="131.13,-47.62 127.63,-37.62 124.13,-47.62 131.13,-47.62"/>
</g>
<!-- characteristics -->
<g id="node3" class="node">
<title>characteristics</title>
<ellipse fill="none" stroke="black" cx="63.63" cy="-162" rx="63.63" ry="18"/>
<text text-anchor="middle" x="63.63" y="-156.95" font-family="Times,serif" font-size="14.00">characteristics</text>
</g>
<!-- characteristics&#45;&gt;price -->
<g id="edge3" class="edge">
<title>characteristics&#45;&gt;price</title>
<path fill="none" stroke="black" d="M79.13,-144.05C87.28,-135.13 97.41,-124.06 106.3,-114.33"/>
<polygon fill="black" stroke="black" points="108.84,-116.75 113,-107.01 103.67,-112.02 108.84,-116.75"/>
</g>
<!-- characteristics&#45;&gt;quantity -->
<g id="edge2" class="edge">
<title>characteristics&#45;&gt;quantity</title>
<path fill="none" stroke="black" d="M66.89,-143.64C70.75,-125.22 78.15,-95.59 89.63,-72 94.32,-62.39 100.72,-52.65 106.93,-44.19"/>
<polygon fill="black" stroke="black" points="109.55,-46.53 112.84,-36.46 103.99,-42.28 109.55,-46.53"/>
</g>
<!-- seasonality -->
<g id="node4" class="node">
<title>seasonality</title>
<ellipse fill="none" stroke="black" cx="196.63" cy="-162" rx="51.86" ry="18"/>
<text text-anchor="middle" x="196.63" y="-156.95" font-family="Times,serif" font-size="14.00">seasonality</text>
</g>
<!-- seasonality&#45;&gt;price -->
<g id="edge5" class="edge">
<title>seasonality&#45;&gt;price</title>
<path fill="none" stroke="black" d="M180.63,-144.76C171.55,-135.55 160.04,-123.87 150.07,-113.76"/>
<polygon fill="black" stroke="black" points="152.72,-111.46 143.2,-106.79 147.73,-116.37 152.72,-111.46"/>
</g>
<!-- seasonality&#45;&gt;quantity -->
<g id="edge4" class="edge">
<title>seasonality&#45;&gt;quantity</title>
<path fill="none" stroke="black" d="M192.2,-143.67C187.13,-125.28 177.92,-95.67 165.63,-72 160.71,-62.51 154.25,-52.8 148.05,-44.34"/>
<polygon fill="black" stroke="black" points="151.01,-42.45 142.18,-36.59 145.43,-46.67 151.01,-42.45"/>
</g>
</g>
</svg>
