<?xml version="1.0" encoding="UTF-8" standalone="no"?>
<!DOCTYPE svg PUBLIC "-//W3C//DTD SVG 1.1//EN"
 "http://www.w3.org/Graphics/SVG/1.1/DTD/svg11.dtd">
<!-- Generated by graphviz version 10.0.1 (20240210.2158)
 -->
<!-- Pages: 1 -->
<svg width="864pt" height="335pt"
 viewBox="0.00 0.00 864.21 335.15" xmlns="http://www.w3.org/2000/svg" xmlns:xlink="http://www.w3.org/1999/xlink">
<g id="graph0" class="graph" transform="scale(1 1) rotate(0) translate(4 331.15)">
<polygon fill="white" stroke="none" points="-4,4 -4,-331.15 860.21,-331.15 860.21,4 -4,4"/>
<g id="clust1" class="cluster">
<title>clustergroup (4)</title>
<path fill="none" stroke="black" d="M254.6,-96.02C254.6,-96.02 641.6,-96.02 641.6,-96.02 647.6,-96.02 653.6,-102.02 653.6,-108.02 653.6,-108.02 653.6,-205.83 653.6,-205.83 653.6,-211.83 647.6,-217.83 641.6,-217.83 641.6,-217.83 254.6,-217.83 254.6,-217.83 248.6,-217.83 242.6,-211.83 242.6,-205.83 242.6,-205.83 242.6,-108.02 242.6,-108.02 242.6,-102.02 248.6,-96.02 254.6,-96.02"/>
<text text-anchor="middle" x="620.1" y="-103.22" font-family="Times,serif" font-size="14.00">group (4)</text>
</g>
<!-- beta_a -->
<g id="node1" class="node">
<title>beta_a</title>
<ellipse fill="none" stroke="black" cx="42.6" cy="-286.49" rx="42.6" ry="40.66"/>
<text text-anchor="middle" x="42.6" y="-297.94" font-family="Times,serif" font-size="14.00">beta_a</text>
<text text-anchor="middle" x="42.6" y="-281.44" font-family="Times,serif" font-size="14.00">~</text>
<text text-anchor="middle" x="42.6" y="-264.94" font-family="Times,serif" font-size="14.00">Gamma</text>
</g>
<!-- a -->
<g id="node11" class="node">
<title>a</title>
<ellipse fill="none" stroke="black" cx="293.6" cy="-169.18" rx="42.6" ry="40.66"/>
<text text-anchor="middle" x="293.6" y="-180.63" font-family="Times,serif" font-size="14.00">a</text>
<text text-anchor="middle" x="293.6" y="-164.13" font-family="Times,serif" font-size="14.00">~</text>
<text text-anchor="middle" x="293.6" y="-147.63" font-family="Times,serif" font-size="14.00">Gamma</text>
</g>
<!-- beta_a&#45;&gt;a -->
<g id="edge1" class="edge">
<title>beta_a&#45;&gt;a</title>
<path fill="none" stroke="black" d="M74.24,-258.57C80.43,-253.98 87.05,-249.51 93.6,-245.83 141.2,-219.13 200.09,-198.14 241.61,-185.12"/>
<polygon fill="black" stroke="black" points="242.59,-188.47 251.12,-182.18 240.53,-181.79 242.59,-188.47"/>
</g>
<!-- alpha_alpha -->
<g id="node2" class="node">
<title>alpha_alpha</title>
<ellipse fill="none" stroke="black" cx="263.6" cy="-286.49" rx="57.45" ry="40.66"/>
<text text-anchor="middle" x="263.6" y="-297.94" font-family="Times,serif" font-size="14.00">alpha_alpha</text>
<text text-anchor="middle" x="263.6" y="-281.44" font-family="Times,serif" font-size="14.00">~</text>
<text text-anchor="middle" x="263.6" y="-264.94" font-family="Times,serif" font-size="14.00">Gamma</text>
</g>
<!-- alpha -->
<g id="node12" class="node">
<title>alpha</title>
<ellipse fill="none" stroke="black" cx="396.6" cy="-169.18" rx="42.6" ry="40.66"/>
<text text-anchor="middle" x="396.6" y="-180.63" font-family="Times,serif" font-size="14.00">alpha</text>
<text text-anchor="middle" x="396.6" y="-164.13" font-family="Times,serif" font-size="14.00">~</text>
<text text-anchor="middle" x="396.6" y="-147.63" font-family="Times,serif" font-size="14.00">Gamma</text>
</g>
<!-- alpha_alpha&#45;&gt;alpha -->
<g id="edge5" class="edge">
<title>alpha_alpha&#45;&gt;alpha</title>
<path fill="none" stroke="black" d="M301.16,-255.32C315.26,-243.78 331.32,-230.38 345.6,-217.83 349.82,-214.13 354.18,-210.21 358.49,-206.27"/>
<polygon fill="black" stroke="black" points="360.59,-209.09 365.57,-199.74 355.85,-203.95 360.59,-209.09"/>
</g>
<!-- beta_b -->
<g id="node3" class="node">
<title>beta_b</title>
<ellipse fill="none" stroke="black" cx="504.6" cy="-286.49" rx="42.6" ry="40.66"/>
<text text-anchor="middle" x="504.6" y="-297.94" font-family="Times,serif" font-size="14.00">beta_b</text>
<text text-anchor="middle" x="504.6" y="-281.44" font-family="Times,serif" font-size="14.00">~</text>
<text text-anchor="middle" x="504.6" y="-264.94" font-family="Times,serif" font-size="14.00">Gamma</text>
</g>
<!-- b -->
<g id="node13" class="node">
<title>b</title>
<ellipse fill="none" stroke="black" cx="499.6" cy="-169.18" rx="42.6" ry="40.66"/>
<text text-anchor="middle" x="499.6" y="-180.63" font-family="Times,serif" font-size="14.00">b</text>
<text text-anchor="middle" x="499.6" y="-164.13" font-family="Times,serif" font-size="14.00">~</text>
<text text-anchor="middle" x="499.6" y="-147.63" font-family="Times,serif" font-size="14.00">Gamma</text>
</g>
<!-- beta_b&#45;&gt;b -->
<g id="edge3" class="edge">
<title>beta_b&#45;&gt;b</title>
<path fill="none" stroke="black" d="M502.87,-245.48C502.53,-237.7 502.17,-229.45 501.82,-221.36"/>
<polygon fill="black" stroke="black" points="505.33,-221.46 501.4,-211.63 498.34,-221.77 505.33,-221.46"/>
</g>
<!-- alpha_a -->
<g id="node4" class="node">
<title>alpha_a</title>
<ellipse fill="none" stroke="black" cx="145.6" cy="-286.49" rx="42.6" ry="40.66"/>
<text text-anchor="middle" x="145.6" y="-297.94" font-family="Times,serif" font-size="14.00">alpha_a</text>
<text text-anchor="middle" x="145.6" y="-281.44" font-family="Times,serif" font-size="14.00">~</text>
<text text-anchor="middle" x="145.6" y="-264.94" font-family="Times,serif" font-size="14.00">Gamma</text>
</g>
<!-- alpha_a&#45;&gt;a -->
<g id="edge2" class="edge">
<title>alpha_a&#45;&gt;a</title>
<path fill="none" stroke="black" d="M178.45,-259.9C200.1,-243.03 228.65,-220.79 251.9,-202.67"/>
<polygon fill="black" stroke="black" points="253.92,-205.53 259.66,-196.63 249.62,-200.01 253.92,-205.53"/>
</g>
<!-- beta_alpha -->
<g id="node5" class="node">
<title>beta_alpha</title>
<ellipse fill="none" stroke="black" cx="391.6" cy="-286.49" rx="52.68" ry="40.66"/>
<text text-anchor="middle" x="391.6" y="-297.94" font-family="Times,serif" font-size="14.00">beta_alpha</text>
<text text-anchor="middle" x="391.6" y="-281.44" font-family="Times,serif" font-size="14.00">~</text>
<text text-anchor="middle" x="391.6" y="-264.94" font-family="Times,serif" font-size="14.00">Gamma</text>
</g>
<!-- beta_alpha&#45;&gt;alpha -->
<g id="edge6" class="edge">
<title>beta_alpha&#45;&gt;alpha</title>
<path fill="none" stroke="black" d="M393.34,-245.48C393.68,-237.7 394.03,-229.45 394.38,-221.36"/>
<polygon fill="black" stroke="black" points="397.87,-221.77 394.81,-211.63 390.88,-221.46 397.87,-221.77"/>
</g>
<!-- likelihood -->
<g id="node6" class="node">
<title>likelihood</title>
<polygon fill="lightgrey" stroke="black" points="501.75,-25.78 501.75,-62.24 470.03,-88.02 425.17,-88.02 393.45,-62.24 393.45,-25.78 425.17,0 470.03,0 501.75,-25.78"/>
<text text-anchor="middle" x="447.6" y="-55.46" font-family="Times,serif" font-size="14.00">likelihood</text>
<text text-anchor="middle" x="447.6" y="-38.96" font-family="Times,serif" font-size="14.00">~</text>
<text text-anchor="middle" x="447.6" y="-22.46" font-family="Times,serif" font-size="14.00">Potential</text>
</g>
<!-- alpha_r -->
<g id="node7" class="node">
<title>alpha_r</title>
<ellipse fill="none" stroke="black" cx="710.6" cy="-286.49" rx="42.6" ry="40.66"/>
<text text-anchor="middle" x="710.6" y="-297.94" font-family="Times,serif" font-size="14.00">alpha_r</text>
<text text-anchor="middle" x="710.6" y="-281.44" font-family="Times,serif" font-size="14.00">~</text>
<text text-anchor="middle" x="710.6" y="-264.94" font-family="Times,serif" font-size="14.00">Gamma</text>
</g>
<!-- r -->
<g id="node10" class="node">
<title>r</title>
<ellipse fill="none" stroke="black" cx="602.6" cy="-169.18" rx="42.6" ry="40.66"/>
<text text-anchor="middle" x="602.6" y="-180.63" font-family="Times,serif" font-size="14.00">r</text>
<text text-anchor="middle" x="602.6" y="-164.13" font-family="Times,serif" font-size="14.00">~</text>
<text text-anchor="middle" x="602.6" y="-147.63" font-family="Times,serif" font-size="14.00">Gamma</text>
</g>
<!-- alpha_r&#45;&gt;r -->
<g id="edge8" class="edge">
<title>alpha_r&#45;&gt;r</title>
<path fill="none" stroke="black" d="M682.51,-255.5C669.01,-241.08 652.68,-223.64 638.31,-208.3"/>
<polygon fill="black" stroke="black" points="640.98,-206.03 631.59,-201.13 635.87,-210.82 640.98,-206.03"/>
</g>
<!-- beta_r -->
<g id="node8" class="node">
<title>beta_r</title>
<ellipse fill="none" stroke="black" cx="813.6" cy="-286.49" rx="42.6" ry="40.66"/>
<text text-anchor="middle" x="813.6" y="-297.94" font-family="Times,serif" font-size="14.00">beta_r</text>
<text text-anchor="middle" x="813.6" y="-281.44" font-family="Times,serif" font-size="14.00">~</text>
<text text-anchor="middle" x="813.6" y="-264.94" font-family="Times,serif" font-size="14.00">Gamma</text>
</g>
<!-- beta_r&#45;&gt;r -->
<g id="edge7" class="edge">
<title>beta_r&#45;&gt;r</title>
<path fill="none" stroke="black" d="M781.72,-259C775.55,-254.36 769,-249.77 762.6,-245.83 727.21,-224.07 684.57,-204.19 652.21,-190.28"/>
<polygon fill="black" stroke="black" points="653.62,-187.07 643.05,-186.38 650.88,-193.52 653.62,-187.07"/>
</g>
<!-- alpha_b -->
<g id="node9" class="node">
<title>alpha_b</title>
<ellipse fill="none" stroke="black" cx="607.6" cy="-286.49" rx="42.6" ry="40.66"/>
<text text-anchor="middle" x="607.6" y="-297.94" font-family="Times,serif" font-size="14.00">alpha_b</text>
<text text-anchor="middle" x="607.6" y="-281.44" font-family="Times,serif" font-size="14.00">~</text>
<text text-anchor="middle" x="607.6" y="-264.94" font-family="Times,serif" font-size="14.00">Gamma</text>
</g>
<!-- alpha_b&#45;&gt;b -->
<g id="edge4" class="edge">
<title>alpha_b&#45;&gt;b</title>
<path fill="none" stroke="black" d="M579.51,-255.5C566.01,-241.08 549.68,-223.64 535.31,-208.3"/>
<polygon fill="black" stroke="black" points="537.98,-206.03 528.59,-201.13 532.87,-210.82 537.98,-206.03"/>
</g>
<!-- r&#45;&gt;likelihood -->
<g id="edge9" class="edge">
<title>r&#45;&gt;likelihood</title>
<path fill="none" stroke="black" d="M582.86,-133.01C574.44,-120.21 563.75,-106.37 551.6,-96.02 539.23,-85.47 524.3,-76.5 509.66,-69.16"/>
<polygon fill="black" stroke="black" points="511.5,-66.16 500.97,-64.99 508.48,-72.47 511.5,-66.16"/>
</g>
<!-- a&#45;&gt;likelihood -->
<g id="edge10" class="edge">
<title>a&#45;&gt;likelihood</title>
<path fill="none" stroke="black" d="M313.37,-133.04C321.79,-120.24 332.48,-106.39 344.6,-96.02 356.68,-85.68 371.22,-76.84 385.51,-69.56"/>
<polygon fill="black" stroke="black" points="387.02,-72.72 394.48,-65.2 383.95,-66.43 387.02,-72.72"/>
</g>
<!-- alpha&#45;&gt;likelihood -->
<g id="edge11" class="edge">
<title>alpha&#45;&gt;likelihood</title>
<path fill="none" stroke="black" d="M412.04,-130.89C416.26,-120.69 420.92,-109.44 425.44,-98.53"/>
<polygon fill="black" stroke="black" points="428.54,-100.2 429.13,-89.62 422.07,-97.52 428.54,-100.2"/>
</g>
<!-- b&#45;&gt;likelihood -->
<g id="edge12" class="edge">
<title>b&#45;&gt;likelihood</title>
<path fill="none" stroke="black" d="M483.86,-130.89C479.56,-120.69 474.81,-109.44 470.2,-98.53"/>
<polygon fill="black" stroke="black" points="473.55,-97.47 466.44,-89.62 467.1,-100.19 473.55,-97.47"/>
</g>
</g>
</svg>
