<?xml version="1.0" encoding="UTF-8" standalone="no"?>
<!DOCTYPE svg PUBLIC "-//W3C//DTD SVG 1.1//EN"
 "http://www.w3.org/Graphics/SVG/1.1/DTD/svg11.dtd">
<!-- Generated by graphviz version 10.0.1 (20240210.2158)
 -->
<!-- Pages: 1 -->
<svg width="526pt" height="335pt"
 viewBox="0.00 0.00 525.97 335.15" xmlns="http://www.w3.org/2000/svg" xmlns:xlink="http://www.w3.org/1999/xlink">
<g id="graph0" class="graph" transform="scale(1 1) rotate(0) translate(4 331.15)">
<polygon fill="white" stroke="none" points="-4,4 -4,-331.15 521.97,-331.15 521.97,4 -4,4"/>
<g id="clust1" class="cluster">
<title>cluster2357</title>
<path fill="none" stroke="black" d="M188.98,-96.02C188.98,-96.02 341.98,-96.02 341.98,-96.02 347.98,-96.02 353.98,-102.02 353.98,-108.02 353.98,-108.02 353.98,-205.83 353.98,-205.83 353.98,-211.83 347.98,-217.83 341.98,-217.83 341.98,-217.83 188.98,-217.83 188.98,-217.83 182.98,-217.83 176.98,-211.83 176.98,-205.83 176.98,-205.83 176.98,-108.02 176.98,-108.02 176.98,-102.02 182.98,-96.02 188.98,-96.02"/>
<text text-anchor="middle" x="332.48" y="-103.22" font-family="Times,serif" font-size="14.00">2357</text>
</g>
<!-- a -->
<g id="node1" class="node">
<title>a</title>
<ellipse fill="none" stroke="black" cx="57.98" cy="-286.49" rx="57.98" ry="40.66"/>
<text text-anchor="middle" x="57.98" y="-297.94" font-family="Times,serif" font-size="14.00">a</text>
<text text-anchor="middle" x="57.98" y="-281.44" font-family="Times,serif" font-size="14.00">~</text>
<text text-anchor="middle" x="57.98" y="-264.94" font-family="Times,serif" font-size="14.00">HalfNormal</text>
</g>
<!-- p -->
<g id="node7" class="node">
<title>p</title>
<ellipse fill="none" stroke="black" cx="213.98" cy="-169.18" rx="28.81" ry="40.66"/>
<text text-anchor="middle" x="213.98" y="-180.63" font-family="Times,serif" font-size="14.00">p</text>
<text text-anchor="middle" x="213.98" y="-164.13" font-family="Times,serif" font-size="14.00">~</text>
<text text-anchor="middle" x="213.98" y="-147.63" font-family="Times,serif" font-size="14.00">Beta</text>
</g>
<!-- a&#45;&gt;p -->
<g id="edge3" class="edge">
<title>a&#45;&gt;p</title>
<path fill="none" stroke="black" d="M97.35,-256.39C122.69,-237.66 155.3,-213.55 179.6,-195.59"/>
<polygon fill="black" stroke="black" points="181.62,-198.45 187.58,-189.69 177.46,-192.82 181.62,-198.45"/>
</g>
<!-- b -->
<g id="node2" class="node">
<title>b</title>
<ellipse fill="none" stroke="black" cx="191.98" cy="-286.49" rx="57.98" ry="40.66"/>
<text text-anchor="middle" x="191.98" y="-297.94" font-family="Times,serif" font-size="14.00">b</text>
<text text-anchor="middle" x="191.98" y="-281.44" font-family="Times,serif" font-size="14.00">~</text>
<text text-anchor="middle" x="191.98" y="-264.94" font-family="Times,serif" font-size="14.00">HalfNormal</text>
</g>
<!-- b&#45;&gt;p -->
<g id="edge4" class="edge">
<title>b&#45;&gt;p</title>
<path fill="none" stroke="black" d="M199.55,-245.81C201.14,-237.47 202.84,-228.58 204.49,-219.93"/>
<polygon fill="black" stroke="black" points="207.9,-220.73 206.34,-210.25 201.03,-219.42 207.9,-220.73"/>
</g>
<!-- r -->
<g id="node3" class="node">
<title>r</title>
<ellipse fill="none" stroke="black" cx="325.98" cy="-286.49" rx="57.98" ry="40.66"/>
<text text-anchor="middle" x="325.98" y="-297.94" font-family="Times,serif" font-size="14.00">r</text>
<text text-anchor="middle" x="325.98" y="-281.44" font-family="Times,serif" font-size="14.00">~</text>
<text text-anchor="middle" x="325.98" y="-264.94" font-family="Times,serif" font-size="14.00">HalfNormal</text>
</g>
<!-- lam -->
<g id="node6" class="node">
<title>lam</title>
<ellipse fill="none" stroke="black" cx="302.98" cy="-169.18" rx="42.6" ry="40.66"/>
<text text-anchor="middle" x="302.98" y="-180.63" font-family="Times,serif" font-size="14.00">lam</text>
<text text-anchor="middle" x="302.98" y="-164.13" font-family="Times,serif" font-size="14.00">~</text>
<text text-anchor="middle" x="302.98" y="-147.63" font-family="Times,serif" font-size="14.00">Gamma</text>
</g>
<!-- r&#45;&gt;lam -->
<g id="edge1" class="edge">
<title>r&#45;&gt;lam</title>
<path fill="none" stroke="black" d="M318.07,-245.81C316.46,-237.75 314.75,-229.16 313.08,-220.78"/>
<polygon fill="black" stroke="black" points="316.52,-220.15 311.13,-211.03 309.65,-221.52 316.52,-220.15"/>
</g>
<!-- likelihood -->
<g id="node4" class="node">
<title>likelihood</title>
<polygon fill="lightgrey" stroke="black" points="312.13,-25.78 312.13,-62.24 280.41,-88.02 235.55,-88.02 203.83,-62.24 203.83,-25.78 235.55,0 280.41,0 312.13,-25.78"/>
<text text-anchor="middle" x="257.98" y="-55.46" font-family="Times,serif" font-size="14.00">likelihood</text>
<text text-anchor="middle" x="257.98" y="-38.96" font-family="Times,serif" font-size="14.00">~</text>
<text text-anchor="middle" x="257.98" y="-22.46" font-family="Times,serif" font-size="14.00">Potential</text>
</g>
<!-- alpha -->
<g id="node5" class="node">
<title>alpha</title>
<ellipse fill="none" stroke="black" cx="459.98" cy="-286.49" rx="57.98" ry="40.66"/>
<text text-anchor="middle" x="459.98" y="-297.94" font-family="Times,serif" font-size="14.00">alpha</text>
<text text-anchor="middle" x="459.98" y="-281.44" font-family="Times,serif" font-size="14.00">~</text>
<text text-anchor="middle" x="459.98" y="-264.94" font-family="Times,serif" font-size="14.00">HalfNormal</text>
</g>
<!-- alpha&#45;&gt;lam -->
<g id="edge2" class="edge">
<title>alpha&#45;&gt;lam</title>
<path fill="none" stroke="black" d="M420.37,-256.39C397.51,-239.61 368.77,-218.5 345.45,-201.37"/>
<polygon fill="black" stroke="black" points="347.83,-198.77 337.7,-195.67 343.68,-204.41 347.83,-198.77"/>
</g>
<!-- lam&#45;&gt;likelihood -->
<g id="edge5" class="edge">
<title>lam&#45;&gt;likelihood</title>
<path fill="none" stroke="black" d="M289.11,-130.22C285.51,-120.35 281.56,-109.54 277.72,-99.02"/>
<polygon fill="black" stroke="black" points="281.01,-97.84 274.29,-89.65 274.44,-100.24 281.01,-97.84"/>
</g>
<!-- p&#45;&gt;likelihood -->
<g id="edge6" class="edge">
<title>p&#45;&gt;likelihood</title>
<path fill="none" stroke="black" d="M226.83,-132.22C230.56,-121.78 234.71,-110.15 238.74,-98.86"/>
<polygon fill="black" stroke="black" points="241.97,-100.22 242.04,-89.63 235.38,-97.87 241.97,-100.22"/>
</g>
</g>
</svg>
