<?xml version="1.0" encoding="utf-8" standalone="no"?>
<!DOCTYPE svg PUBLIC "-//W3C//DTD SVG 1.1//EN"
  "http://www.w3.org/Graphics/SVG/1.1/DTD/svg11.dtd">
<svg xmlns:xlink="http://www.w3.org/1999/xlink" width="604.265pt" height="386.293625pt" viewBox="0 0 604.265 386.293625" xmlns="http://www.w3.org/2000/svg" version="1.1">
 <metadata>
  <rdf:RDF xmlns:dc="http://purl.org/dc/elements/1.1/" xmlns:cc="http://creativecommons.org/ns#" xmlns:rdf="http://www.w3.org/1999/02/22-rdf-syntax-ns#">
   <cc:Work>
    <dc:type rdf:resource="http://purl.org/dc/dcmitype/StillImage"/>
    <dc:date>2022-03-02T19:37:07.455321</dc:date>
    <dc:format>image/svg+xml</dc:format>
    <dc:creator>
     <cc:Agent>
      <dc:title>Matplotlib v3.5.1, https://matplotlib.org/</dc:title>
     </cc:Agent>
    </dc:creator>
   </cc:Work>
  </rdf:RDF>
 </metadata>
 <defs>
  <style type="text/css">*{stroke-linejoin: round; stroke-linecap: butt}</style>
 </defs>
 <g id="figure_1">
  <g id="patch_1">
   <path d="M 0 386.293625 
L 604.265 386.293625 
L 604.265 0 
L 0 0 
L 0 386.293625 
z
" style="fill: none"/>
  </g>
  <g id="axes_1">
   <g id="patch_2">
    <path d="M 39.065 350.30175 
L 597.065 350.30175 
L 597.065 24.14175 
L 39.065 24.14175 
z
" style="fill: #eeeeee"/>
   </g>
   <g id="patch_3">
    <path d="M 66.965 350.30175 
L 290.165 350.30175 
L 290.165 332.176602 
L 66.965 332.176602 
z
" clip-path="url(#pb9a28af0b6)" style="fill: #4586ac"/>
   </g>
   <g id="patch_4">
    <path d="M 0 0 
z
" clip-path="url(#pb9a28af0b6)" style="fill: #4586ac"/>
   </g>
   <g id="patch_5">
    <path d="M 0 0 
z
" clip-path="url(#pb9a28af0b6)" style="fill: #921a33"/>
   </g>
   <g id="patch_6">
    <path d="M 345.965 350.30175 
L 569.165 350.30175 
L 569.165 39.673179 
L 345.965 39.673179 
z
" clip-path="url(#pb9a28af0b6)" style="fill: #921a33"/>
   </g>
   <g id="matplotlib.axis_1">
    <g id="xtick_1">
     <g id="line2d_1">
      <defs>
       <path id="meda7dbe3e6" d="M 0 0 
L 0 -3.5 
" style="stroke: #000000; stroke-width: 0.8"/>
      </defs>
      <g>
       <use xlink:href="#meda7dbe3e6" x="178.565" y="350.30175" style="stroke: #000000; stroke-width: 0.8"/>
      </g>
     </g>
     <g id="text_1">
      <!-- 0 -->
      <g transform="translate(175.38375 361.400188)scale(0.1 -0.1)">
       <defs>
        <path id="DejaVuSans-30" d="M 2034 4250 
Q 1547 4250 1301 3770 
Q 1056 3291 1056 2328 
Q 1056 1369 1301 889 
Q 1547 409 2034 409 
Q 2525 409 2770 889 
Q 3016 1369 3016 2328 
Q 3016 3291 2770 3770 
Q 2525 4250 2034 4250 
z
M 2034 4750 
Q 2819 4750 3233 4129 
Q 3647 3509 3647 2328 
Q 3647 1150 3233 529 
Q 2819 -91 2034 -91 
Q 1250 -91 836 529 
Q 422 1150 422 2328 
Q 422 3509 836 4129 
Q 1250 4750 2034 4750 
z
" transform="scale(0.015625)"/>
       </defs>
       <use xlink:href="#DejaVuSans-30"/>
      </g>
     </g>
    </g>
    <g id="xtick_2">
     <g id="line2d_2">
      <g>
       <use xlink:href="#meda7dbe3e6" x="457.565" y="350.30175" style="stroke: #000000; stroke-width: 0.8"/>
      </g>
     </g>
     <g id="text_2">
      <!-- 1 -->
      <g transform="translate(454.38375 361.400188)scale(0.1 -0.1)">
       <defs>
        <path id="DejaVuSans-31" d="M 794 531 
L 1825 531 
L 1825 4091 
L 703 3866 
L 703 4441 
L 1819 4666 
L 2450 4666 
L 2450 531 
L 3481 531 
L 3481 0 
L 794 0 
L 794 531 
z
" transform="scale(0.015625)"/>
       </defs>
       <use xlink:href="#DejaVuSans-31"/>
      </g>
     </g>
    </g>
    <g id="text_3">
     <!-- z -->
     <g transform="translate(314.915937 376.598)scale(0.12 -0.12)">
      <defs>
       <path id="DejaVuSans-7a" d="M 353 3500 
L 3084 3500 
L 3084 2975 
L 922 459 
L 3084 459 
L 3084 0 
L 275 0 
L 275 525 
L 2438 3041 
L 353 3041 
L 353 3500 
z
" transform="scale(0.015625)"/>
      </defs>
      <use xlink:href="#DejaVuSans-7a"/>
     </g>
    </g>
   </g>
   <g id="matplotlib.axis_2">
    <g id="ytick_1">
     <g id="line2d_3">
      <path d="M 39.065 350.30175 
L 597.065 350.30175 
" clip-path="url(#pb9a28af0b6)" style="fill: none; stroke-dasharray: 1.85,0.8; stroke-dashoffset: 0; stroke: #b2b2b2; stroke-width: 0.5"/>
     </g>
     <g id="line2d_4">
      <defs>
       <path id="m71b1235d68" d="M 0 0 
L 3.5 0 
" style="stroke: #000000; stroke-width: 0.8"/>
      </defs>
      <g>
       <use xlink:href="#m71b1235d68" x="39.065" y="350.30175" style="stroke: #000000; stroke-width: 0.8"/>
      </g>
     </g>
     <g id="text_4">
      <!-- 0 -->
      <g transform="translate(29.2025 354.100969)scale(0.1 -0.1)">
       <use xlink:href="#DejaVuSans-30"/>
      </g>
     </g>
    </g>
    <g id="ytick_2">
     <g id="line2d_5">
      <path d="M 39.065 306.980005 
L 597.065 306.980005 
" clip-path="url(#pb9a28af0b6)" style="fill: none; stroke-dasharray: 1.85,0.8; stroke-dashoffset: 0; stroke: #b2b2b2; stroke-width: 0.5"/>
     </g>
     <g id="line2d_6">
      <g>
       <use xlink:href="#m71b1235d68" x="39.065" y="306.980005" style="stroke: #000000; stroke-width: 0.8"/>
      </g>
     </g>
     <g id="text_5">
      <!-- 10 -->
      <g transform="translate(22.84 310.779224)scale(0.1 -0.1)">
       <use xlink:href="#DejaVuSans-31"/>
       <use xlink:href="#DejaVuSans-30" x="63.623047"/>
      </g>
     </g>
    </g>
    <g id="ytick_3">
     <g id="line2d_7">
      <path d="M 39.065 263.65826 
L 597.065 263.65826 
" clip-path="url(#pb9a28af0b6)" style="fill: none; stroke-dasharray: 1.85,0.8; stroke-dashoffset: 0; stroke: #b2b2b2; stroke-width: 0.5"/>
     </g>
     <g id="line2d_8">
      <g>
       <use xlink:href="#m71b1235d68" x="39.065" y="263.65826" style="stroke: #000000; stroke-width: 0.8"/>
      </g>
     </g>
     <g id="text_6">
      <!-- 20 -->
      <g transform="translate(22.84 267.457479)scale(0.1 -0.1)">
       <defs>
        <path id="DejaVuSans-32" d="M 1228 531 
L 3431 531 
L 3431 0 
L 469 0 
L 469 531 
Q 828 903 1448 1529 
Q 2069 2156 2228 2338 
Q 2531 2678 2651 2914 
Q 2772 3150 2772 3378 
Q 2772 3750 2511 3984 
Q 2250 4219 1831 4219 
Q 1534 4219 1204 4116 
Q 875 4013 500 3803 
L 500 4441 
Q 881 4594 1212 4672 
Q 1544 4750 1819 4750 
Q 2544 4750 2975 4387 
Q 3406 4025 3406 3419 
Q 3406 3131 3298 2873 
Q 3191 2616 2906 2266 
Q 2828 2175 2409 1742 
Q 1991 1309 1228 531 
z
" transform="scale(0.015625)"/>
       </defs>
       <use xlink:href="#DejaVuSans-32"/>
       <use xlink:href="#DejaVuSans-30" x="63.623047"/>
      </g>
     </g>
    </g>
    <g id="ytick_4">
     <g id="line2d_9">
      <path d="M 39.065 220.336515 
L 597.065 220.336515 
" clip-path="url(#pb9a28af0b6)" style="fill: none; stroke-dasharray: 1.85,0.8; stroke-dashoffset: 0; stroke: #b2b2b2; stroke-width: 0.5"/>
     </g>
     <g id="line2d_10">
      <g>
       <use xlink:href="#m71b1235d68" x="39.065" y="220.336515" style="stroke: #000000; stroke-width: 0.8"/>
      </g>
     </g>
     <g id="text_7">
      <!-- 30 -->
      <g transform="translate(22.84 224.135734)scale(0.1 -0.1)">
       <defs>
        <path id="DejaVuSans-33" d="M 2597 2516 
Q 3050 2419 3304 2112 
Q 3559 1806 3559 1356 
Q 3559 666 3084 287 
Q 2609 -91 1734 -91 
Q 1441 -91 1130 -33 
Q 819 25 488 141 
L 488 750 
Q 750 597 1062 519 
Q 1375 441 1716 441 
Q 2309 441 2620 675 
Q 2931 909 2931 1356 
Q 2931 1769 2642 2001 
Q 2353 2234 1838 2234 
L 1294 2234 
L 1294 2753 
L 1863 2753 
Q 2328 2753 2575 2939 
Q 2822 3125 2822 3475 
Q 2822 3834 2567 4026 
Q 2313 4219 1838 4219 
Q 1578 4219 1281 4162 
Q 984 4106 628 3988 
L 628 4550 
Q 988 4650 1302 4700 
Q 1616 4750 1894 4750 
Q 2613 4750 3031 4423 
Q 3450 4097 3450 3541 
Q 3450 3153 3228 2886 
Q 3006 2619 2597 2516 
z
" transform="scale(0.015625)"/>
       </defs>
       <use xlink:href="#DejaVuSans-33"/>
       <use xlink:href="#DejaVuSans-30" x="63.623047"/>
      </g>
     </g>
    </g>
    <g id="ytick_5">
     <g id="line2d_11">
      <path d="M 39.065 177.01477 
L 597.065 177.01477 
" clip-path="url(#pb9a28af0b6)" style="fill: none; stroke-dasharray: 1.85,0.8; stroke-dashoffset: 0; stroke: #b2b2b2; stroke-width: 0.5"/>
     </g>
     <g id="line2d_12">
      <g>
       <use xlink:href="#m71b1235d68" x="39.065" y="177.01477" style="stroke: #000000; stroke-width: 0.8"/>
      </g>
     </g>
     <g id="text_8">
      <!-- 40 -->
      <g transform="translate(22.84 180.813989)scale(0.1 -0.1)">
       <defs>
        <path id="DejaVuSans-34" d="M 2419 4116 
L 825 1625 
L 2419 1625 
L 2419 4116 
z
M 2253 4666 
L 3047 4666 
L 3047 1625 
L 3713 1625 
L 3713 1100 
L 3047 1100 
L 3047 0 
L 2419 0 
L 2419 1100 
L 313 1100 
L 313 1709 
L 2253 4666 
z
" transform="scale(0.015625)"/>
       </defs>
       <use xlink:href="#DejaVuSans-34"/>
       <use xlink:href="#DejaVuSans-30" x="63.623047"/>
      </g>
     </g>
    </g>
    <g id="ytick_6">
     <g id="line2d_13">
      <path d="M 39.065 133.693025 
L 597.065 133.693025 
" clip-path="url(#pb9a28af0b6)" style="fill: none; stroke-dasharray: 1.85,0.8; stroke-dashoffset: 0; stroke: #b2b2b2; stroke-width: 0.5"/>
     </g>
     <g id="line2d_14">
      <g>
       <use xlink:href="#m71b1235d68" x="39.065" y="133.693025" style="stroke: #000000; stroke-width: 0.8"/>
      </g>
     </g>
     <g id="text_9">
      <!-- 50 -->
      <g transform="translate(22.84 137.492244)scale(0.1 -0.1)">
       <defs>
        <path id="DejaVuSans-35" d="M 691 4666 
L 3169 4666 
L 3169 4134 
L 1269 4134 
L 1269 2991 
Q 1406 3038 1543 3061 
Q 1681 3084 1819 3084 
Q 2600 3084 3056 2656 
Q 3513 2228 3513 1497 
Q 3513 744 3044 326 
Q 2575 -91 1722 -91 
Q 1428 -91 1123 -41 
Q 819 9 494 109 
L 494 744 
Q 775 591 1075 516 
Q 1375 441 1709 441 
Q 2250 441 2565 725 
Q 2881 1009 2881 1497 
Q 2881 1984 2565 2268 
Q 2250 2553 1709 2553 
Q 1456 2553 1204 2497 
Q 953 2441 691 2322 
L 691 4666 
z
" transform="scale(0.015625)"/>
       </defs>
       <use xlink:href="#DejaVuSans-35"/>
       <use xlink:href="#DejaVuSans-30" x="63.623047"/>
      </g>
     </g>
    </g>
    <g id="ytick_7">
     <g id="line2d_15">
      <path d="M 39.065 90.37128 
L 597.065 90.37128 
" clip-path="url(#pb9a28af0b6)" style="fill: none; stroke-dasharray: 1.85,0.8; stroke-dashoffset: 0; stroke: #b2b2b2; stroke-width: 0.5"/>
     </g>
     <g id="line2d_16">
      <g>
       <use xlink:href="#m71b1235d68" x="39.065" y="90.37128" style="stroke: #000000; stroke-width: 0.8"/>
      </g>
     </g>
     <g id="text_10">
      <!-- 60 -->
      <g transform="translate(22.84 94.170499)scale(0.1 -0.1)">
       <defs>
        <path id="DejaVuSans-36" d="M 2113 2584 
Q 1688 2584 1439 2293 
Q 1191 2003 1191 1497 
Q 1191 994 1439 701 
Q 1688 409 2113 409 
Q 2538 409 2786 701 
Q 3034 994 3034 1497 
Q 3034 2003 2786 2293 
Q 2538 2584 2113 2584 
z
M 3366 4563 
L 3366 3988 
Q 3128 4100 2886 4159 
Q 2644 4219 2406 4219 
Q 1781 4219 1451 3797 
Q 1122 3375 1075 2522 
Q 1259 2794 1537 2939 
Q 1816 3084 2150 3084 
Q 2853 3084 3261 2657 
Q 3669 2231 3669 1497 
Q 3669 778 3244 343 
Q 2819 -91 2113 -91 
Q 1303 -91 875 529 
Q 447 1150 447 2328 
Q 447 3434 972 4092 
Q 1497 4750 2381 4750 
Q 2619 4750 2861 4703 
Q 3103 4656 3366 4563 
z
" transform="scale(0.015625)"/>
       </defs>
       <use xlink:href="#DejaVuSans-36"/>
       <use xlink:href="#DejaVuSans-30" x="63.623047"/>
      </g>
     </g>
    </g>
    <g id="ytick_8">
     <g id="line2d_17">
      <path d="M 39.065 47.049535 
L 597.065 47.049535 
" clip-path="url(#pb9a28af0b6)" style="fill: none; stroke-dasharray: 1.85,0.8; stroke-dashoffset: 0; stroke: #b2b2b2; stroke-width: 0.5"/>
     </g>
     <g id="line2d_18">
      <g>
       <use xlink:href="#m71b1235d68" x="39.065" y="47.049535" style="stroke: #000000; stroke-width: 0.8"/>
      </g>
     </g>
     <g id="text_11">
      <!-- 70 -->
      <g transform="translate(22.84 50.848754)scale(0.1 -0.1)">
       <defs>
        <path id="DejaVuSans-37" d="M 525 4666 
L 3525 4666 
L 3525 4397 
L 1831 0 
L 1172 0 
L 2766 4134 
L 525 4134 
L 525 4666 
z
" transform="scale(0.015625)"/>
       </defs>
       <use xlink:href="#DejaVuSans-37"/>
       <use xlink:href="#DejaVuSans-30" x="63.623047"/>
      </g>
     </g>
    </g>
    <g id="text_12">
     <!-- mean posterior $\alpha$ -->
     <g transform="translate(16.32 238.82175)rotate(-90)scale(0.12 -0.12)">
      <defs>
       <path id="DejaVuSans-6d" d="M 3328 2828 
Q 3544 3216 3844 3400 
Q 4144 3584 4550 3584 
Q 5097 3584 5394 3201 
Q 5691 2819 5691 2113 
L 5691 0 
L 5113 0 
L 5113 2094 
Q 5113 2597 4934 2840 
Q 4756 3084 4391 3084 
Q 3944 3084 3684 2787 
Q 3425 2491 3425 1978 
L 3425 0 
L 2847 0 
L 2847 2094 
Q 2847 2600 2669 2842 
Q 2491 3084 2119 3084 
Q 1678 3084 1418 2786 
Q 1159 2488 1159 1978 
L 1159 0 
L 581 0 
L 581 3500 
L 1159 3500 
L 1159 2956 
Q 1356 3278 1631 3431 
Q 1906 3584 2284 3584 
Q 2666 3584 2933 3390 
Q 3200 3197 3328 2828 
z
" transform="scale(0.015625)"/>
       <path id="DejaVuSans-65" d="M 3597 1894 
L 3597 1613 
L 953 1613 
Q 991 1019 1311 708 
Q 1631 397 2203 397 
Q 2534 397 2845 478 
Q 3156 559 3463 722 
L 3463 178 
Q 3153 47 2828 -22 
Q 2503 -91 2169 -91 
Q 1331 -91 842 396 
Q 353 884 353 1716 
Q 353 2575 817 3079 
Q 1281 3584 2069 3584 
Q 2775 3584 3186 3129 
Q 3597 2675 3597 1894 
z
M 3022 2063 
Q 3016 2534 2758 2815 
Q 2500 3097 2075 3097 
Q 1594 3097 1305 2825 
Q 1016 2553 972 2059 
L 3022 2063 
z
" transform="scale(0.015625)"/>
       <path id="DejaVuSans-61" d="M 2194 1759 
Q 1497 1759 1228 1600 
Q 959 1441 959 1056 
Q 959 750 1161 570 
Q 1363 391 1709 391 
Q 2188 391 2477 730 
Q 2766 1069 2766 1631 
L 2766 1759 
L 2194 1759 
z
M 3341 1997 
L 3341 0 
L 2766 0 
L 2766 531 
Q 2569 213 2275 61 
Q 1981 -91 1556 -91 
Q 1019 -91 701 211 
Q 384 513 384 1019 
Q 384 1609 779 1909 
Q 1175 2209 1959 2209 
L 2766 2209 
L 2766 2266 
Q 2766 2663 2505 2880 
Q 2244 3097 1772 3097 
Q 1472 3097 1187 3025 
Q 903 2953 641 2809 
L 641 3341 
Q 956 3463 1253 3523 
Q 1550 3584 1831 3584 
Q 2591 3584 2966 3190 
Q 3341 2797 3341 1997 
z
" transform="scale(0.015625)"/>
       <path id="DejaVuSans-6e" d="M 3513 2113 
L 3513 0 
L 2938 0 
L 2938 2094 
Q 2938 2591 2744 2837 
Q 2550 3084 2163 3084 
Q 1697 3084 1428 2787 
Q 1159 2491 1159 1978 
L 1159 0 
L 581 0 
L 581 3500 
L 1159 3500 
L 1159 2956 
Q 1366 3272 1645 3428 
Q 1925 3584 2291 3584 
Q 2894 3584 3203 3211 
Q 3513 2838 3513 2113 
z
" transform="scale(0.015625)"/>
       <path id="DejaVuSans-20" transform="scale(0.015625)"/>
       <path id="DejaVuSans-70" d="M 1159 525 
L 1159 -1331 
L 581 -1331 
L 581 3500 
L 1159 3500 
L 1159 2969 
Q 1341 3281 1617 3432 
Q 1894 3584 2278 3584 
Q 2916 3584 3314 3078 
Q 3713 2572 3713 1747 
Q 3713 922 3314 415 
Q 2916 -91 2278 -91 
Q 1894 -91 1617 61 
Q 1341 213 1159 525 
z
M 3116 1747 
Q 3116 2381 2855 2742 
Q 2594 3103 2138 3103 
Q 1681 3103 1420 2742 
Q 1159 2381 1159 1747 
Q 1159 1113 1420 752 
Q 1681 391 2138 391 
Q 2594 391 2855 752 
Q 3116 1113 3116 1747 
z
" transform="scale(0.015625)"/>
       <path id="DejaVuSans-6f" d="M 1959 3097 
Q 1497 3097 1228 2736 
Q 959 2375 959 1747 
Q 959 1119 1226 758 
Q 1494 397 1959 397 
Q 2419 397 2687 759 
Q 2956 1122 2956 1747 
Q 2956 2369 2687 2733 
Q 2419 3097 1959 3097 
z
M 1959 3584 
Q 2709 3584 3137 3096 
Q 3566 2609 3566 1747 
Q 3566 888 3137 398 
Q 2709 -91 1959 -91 
Q 1206 -91 779 398 
Q 353 888 353 1747 
Q 353 2609 779 3096 
Q 1206 3584 1959 3584 
z
" transform="scale(0.015625)"/>
       <path id="DejaVuSans-73" d="M 2834 3397 
L 2834 2853 
Q 2591 2978 2328 3040 
Q 2066 3103 1784 3103 
Q 1356 3103 1142 2972 
Q 928 2841 928 2578 
Q 928 2378 1081 2264 
Q 1234 2150 1697 2047 
L 1894 2003 
Q 2506 1872 2764 1633 
Q 3022 1394 3022 966 
Q 3022 478 2636 193 
Q 2250 -91 1575 -91 
Q 1294 -91 989 -36 
Q 684 19 347 128 
L 347 722 
Q 666 556 975 473 
Q 1284 391 1588 391 
Q 1994 391 2212 530 
Q 2431 669 2431 922 
Q 2431 1156 2273 1281 
Q 2116 1406 1581 1522 
L 1381 1569 
Q 847 1681 609 1914 
Q 372 2147 372 2553 
Q 372 3047 722 3315 
Q 1072 3584 1716 3584 
Q 2034 3584 2315 3537 
Q 2597 3491 2834 3397 
z
" transform="scale(0.015625)"/>
       <path id="DejaVuSans-74" d="M 1172 4494 
L 1172 3500 
L 2356 3500 
L 2356 3053 
L 1172 3053 
L 1172 1153 
Q 1172 725 1289 603 
Q 1406 481 1766 481 
L 2356 481 
L 2356 0 
L 1766 0 
Q 1100 0 847 248 
Q 594 497 594 1153 
L 594 3053 
L 172 3053 
L 172 3500 
L 594 3500 
L 594 4494 
L 1172 4494 
z
" transform="scale(0.015625)"/>
       <path id="DejaVuSans-72" d="M 2631 2963 
Q 2534 3019 2420 3045 
Q 2306 3072 2169 3072 
Q 1681 3072 1420 2755 
Q 1159 2438 1159 1844 
L 1159 0 
L 581 0 
L 581 3500 
L 1159 3500 
L 1159 2956 
Q 1341 3275 1631 3429 
Q 1922 3584 2338 3584 
Q 2397 3584 2469 3576 
Q 2541 3569 2628 3553 
L 2631 2963 
z
" transform="scale(0.015625)"/>
       <path id="DejaVuSans-69" d="M 603 3500 
L 1178 3500 
L 1178 0 
L 603 0 
L 603 3500 
z
M 603 4863 
L 1178 4863 
L 1178 4134 
L 603 4134 
L 603 4863 
z
" transform="scale(0.015625)"/>
       <path id="Cmmi10-ae" d="M 1288 -72 
Q 984 -72 748 72 
Q 513 216 384 459 
Q 256 703 256 1013 
Q 256 1447 498 1872 
Q 741 2297 1142 2562 
Q 1544 2828 1984 2828 
Q 2309 2828 2556 2658 
Q 2803 2488 2931 2205 
Q 3059 1922 3059 1600 
L 3066 1172 
Q 3284 1475 3436 1801 
Q 3588 2128 3669 2478 
Q 3681 2516 3719 2516 
L 3794 2516 
Q 3853 2516 3853 2456 
Q 3853 2450 3847 2438 
Q 3772 2144 3659 1873 
Q 3547 1603 3395 1350 
Q 3244 1097 3066 891 
Q 3066 97 3250 97 
Q 3369 97 3445 167 
Q 3522 238 3580 341 
Q 3638 444 3653 447 
L 3731 447 
Q 3781 447 3781 384 
Q 3781 225 3598 76 
Q 3416 -72 3238 -72 
Q 3006 -72 2853 78 
Q 2700 228 2644 469 
Q 2344 213 1994 70 
Q 1644 -72 1288 -72 
z
M 1300 97 
Q 1984 97 2613 659 
Q 2609 697 2603 751 
Q 2597 806 2597 813 
L 2597 1503 
Q 2597 2663 1972 2663 
Q 1597 2663 1315 2342 
Q 1034 2022 892 1576 
Q 750 1131 750 763 
Q 750 484 892 290 
Q 1034 97 1300 97 
z
" transform="scale(0.015625)"/>
      </defs>
      <use xlink:href="#DejaVuSans-6d" transform="translate(0 0.015625)"/>
      <use xlink:href="#DejaVuSans-65" transform="translate(97.412109 0.015625)"/>
      <use xlink:href="#DejaVuSans-61" transform="translate(158.935547 0.015625)"/>
      <use xlink:href="#DejaVuSans-6e" transform="translate(220.214844 0.015625)"/>
      <use xlink:href="#DejaVuSans-20" transform="translate(283.59375 0.015625)"/>
      <use xlink:href="#DejaVuSans-70" transform="translate(315.380859 0.015625)"/>
      <use xlink:href="#DejaVuSans-6f" transform="translate(378.857422 0.015625)"/>
      <use xlink:href="#DejaVuSans-73" transform="translate(440.039062 0.015625)"/>
      <use xlink:href="#DejaVuSans-74" transform="translate(492.138672 0.015625)"/>
      <use xlink:href="#DejaVuSans-65" transform="translate(531.347656 0.015625)"/>
      <use xlink:href="#DejaVuSans-72" transform="translate(592.871094 0.015625)"/>
      <use xlink:href="#DejaVuSans-69" transform="translate(633.984375 0.015625)"/>
      <use xlink:href="#DejaVuSans-6f" transform="translate(661.767578 0.015625)"/>
      <use xlink:href="#DejaVuSans-72" transform="translate(722.949219 0.015625)"/>
      <use xlink:href="#DejaVuSans-20" transform="translate(764.0625 0.015625)"/>
      <use xlink:href="#Cmmi10-ae" transform="translate(795.849609 0.015625)"/>
     </g>
    </g>
   </g>
   <g id="line2d_19">
    <path d="M 178.565 332.176602 
L 178.565 332.176602 
" clip-path="url(#pb9a28af0b6)" style="fill: none; stroke: #424242; stroke-width: 3.6; stroke-linecap: square"/>
   </g>
   <g id="line2d_20">
    <path clip-path="url(#pb9a28af0b6)" style="fill: none; stroke: #424242; stroke-width: 3.6; stroke-linecap: square"/>
   </g>
   <g id="line2d_21">
    <path clip-path="url(#pb9a28af0b6)" style="fill: none; stroke: #424242; stroke-width: 3.6; stroke-linecap: square"/>
   </g>
   <g id="line2d_22">
    <path d="M 457.565 39.673179 
L 457.565 39.673179 
" clip-path="url(#pb9a28af0b6)" style="fill: none; stroke: #424242; stroke-width: 3.6; stroke-linecap: square"/>
   </g>
   <g id="patch_7">
    <path d="M 39.065 350.30175 
L 39.065 24.14175 
" style="fill: none; stroke: #bcbcbc; stroke-width: 0.8; stroke-linejoin: miter; stroke-linecap: square"/>
   </g>
   <g id="patch_8">
    <path d="M 597.065 350.30175 
L 597.065 24.14175 
" style="fill: none; stroke: #bcbcbc; stroke-width: 0.8; stroke-linejoin: miter; stroke-linecap: square"/>
   </g>
   <g id="patch_9">
    <path d="M 39.065 350.30175 
L 597.065 350.30175 
" style="fill: none; stroke: #bcbcbc; stroke-width: 0.8; stroke-linejoin: miter; stroke-linecap: square"/>
   </g>
   <g id="patch_10">
    <path d="M 39.065 24.14175 
L 597.065 24.14175 
" style="fill: none; stroke: #bcbcbc; stroke-width: 0.8; stroke-linejoin: miter; stroke-linecap: square"/>
   </g>
   <g id="text_13">
    <!-- Mean Posterior $\alpha$ -->
    <g transform="translate(257.153 18.14175)scale(0.144 -0.144)">
     <defs>
      <path id="DejaVuSans-4d" d="M 628 4666 
L 1569 4666 
L 2759 1491 
L 3956 4666 
L 4897 4666 
L 4897 0 
L 4281 0 
L 4281 4097 
L 3078 897 
L 2444 897 
L 1241 4097 
L 1241 0 
L 628 0 
L 628 4666 
z
" transform="scale(0.015625)"/>
      <path id="DejaVuSans-50" d="M 1259 4147 
L 1259 2394 
L 2053 2394 
Q 2494 2394 2734 2622 
Q 2975 2850 2975 3272 
Q 2975 3691 2734 3919 
Q 2494 4147 2053 4147 
L 1259 4147 
z
M 628 4666 
L 2053 4666 
Q 2838 4666 3239 4311 
Q 3641 3956 3641 3272 
Q 3641 2581 3239 2228 
Q 2838 1875 2053 1875 
L 1259 1875 
L 1259 0 
L 628 0 
L 628 4666 
z
" transform="scale(0.015625)"/>
     </defs>
     <use xlink:href="#DejaVuSans-4d" transform="translate(0 0.015625)"/>
     <use xlink:href="#DejaVuSans-65" transform="translate(86.279297 0.015625)"/>
     <use xlink:href="#DejaVuSans-61" transform="translate(147.802734 0.015625)"/>
     <use xlink:href="#DejaVuSans-6e" transform="translate(209.082031 0.015625)"/>
     <use xlink:href="#DejaVuSans-20" transform="translate(272.460938 0.015625)"/>
     <use xlink:href="#DejaVuSans-50" transform="translate(304.248047 0.015625)"/>
     <use xlink:href="#DejaVuSans-6f" transform="translate(364.550781 0.015625)"/>
     <use xlink:href="#DejaVuSans-73" transform="translate(425.732422 0.015625)"/>
     <use xlink:href="#DejaVuSans-74" transform="translate(477.832031 0.015625)"/>
     <use xlink:href="#DejaVuSans-65" transform="translate(517.041016 0.015625)"/>
     <use xlink:href="#DejaVuSans-72" transform="translate(578.564453 0.015625)"/>
     <use xlink:href="#DejaVuSans-69" transform="translate(619.677734 0.015625)"/>
     <use xlink:href="#DejaVuSans-6f" transform="translate(647.460938 0.015625)"/>
     <use xlink:href="#DejaVuSans-72" transform="translate(708.642578 0.015625)"/>
     <use xlink:href="#DejaVuSans-20" transform="translate(749.755859 0.015625)"/>
     <use xlink:href="#Cmmi10-ae" transform="translate(781.542969 0.015625)"/>
    </g>
   </g>
   <g id="legend_1">
    <g id="patch_11">
     <path d="M 46.065 76.176125 
L 84.4275 76.176125 
Q 86.4275 76.176125 86.4275 74.176125 
L 86.4275 31.14175 
Q 86.4275 29.14175 84.4275 29.14175 
L 46.065 29.14175 
Q 44.065 29.14175 44.065 31.14175 
L 44.065 74.176125 
Q 44.065 76.176125 46.065 76.176125 
z
" style="fill: #eeeeee; opacity: 0.8; stroke: #cccccc; stroke-width: 0.5; stroke-linejoin: miter"/>
    </g>
    <g id="text_14">
     <!-- z -->
     <g transform="translate(62.622031 40.740187)scale(0.1 -0.1)">
      <use xlink:href="#DejaVuSans-7a"/>
     </g>
    </g>
    <g id="patch_12">
     <path d="M 48.065 55.418313 
L 68.065 55.418313 
L 68.065 48.418313 
L 48.065 48.418313 
z
" style="fill: #4586ac"/>
    </g>
    <g id="text_15">
     <!-- 0 -->
     <g transform="translate(76.065 55.418313)scale(0.1 -0.1)">
      <use xlink:href="#DejaVuSans-30"/>
     </g>
    </g>
    <g id="patch_13">
     <path d="M 48.065 70.096438 
L 68.065 70.096438 
L 68.065 63.096438 
L 48.065 63.096438 
z
" style="fill: #921a33"/>
    </g>
    <g id="text_16">
     <!-- 1 -->
     <g transform="translate(76.065 70.096438)scale(0.1 -0.1)">
      <use xlink:href="#DejaVuSans-31"/>
     </g>
    </g>
   </g>
  </g>
 </g>
 <defs>
  <clipPath id="pb9a28af0b6">
   <rect x="39.065" y="24.14175" width="558" height="326.16"/>
  </clipPath>
 </defs>
</svg>
