<?xml version="1.0" encoding="UTF-8" standalone="no"?>
<!DOCTYPE svg PUBLIC "-//W3C//DTD SVG 1.1//EN"
 "http://www.w3.org/Graphics/SVG/1.1/DTD/svg11.dtd">
<!-- Generated by graphviz version 10.0.1 (20240210.2158)
 -->
<!-- Pages: 1 -->
<svg width="526pt" height="213pt"
 viewBox="0.00 0.00 525.97 213.33" xmlns="http://www.w3.org/2000/svg" xmlns:xlink="http://www.w3.org/1999/xlink">
<g id="graph0" class="graph" transform="scale(1 1) rotate(0) translate(4 209.33)">
<polygon fill="white" stroke="none" points="-4,4 -4,-209.33 521.97,-209.33 521.97,4 -4,4"/>
<!-- a -->
<g id="node1" class="node">
<title>a</title>
<ellipse fill="none" stroke="black" cx="57.98" cy="-164.68" rx="57.98" ry="40.66"/>
<text text-anchor="middle" x="57.98" y="-176.13" font-family="Times,serif" font-size="14.00">a</text>
<text text-anchor="middle" x="57.98" y="-159.63" font-family="Times,serif" font-size="14.00">~</text>
<text text-anchor="middle" x="57.98" y="-143.13" font-family="Times,serif" font-size="14.00">HalfNormal</text>
</g>
<!-- likelihood -->
<g id="node4" class="node">
<title>likelihood</title>
<polygon fill="lightgrey" stroke="black" points="313.13,-25.78 313.13,-62.24 281.41,-88.02 236.55,-88.02 204.83,-62.24 204.83,-25.78 236.55,0 281.41,0 313.13,-25.78"/>
<text text-anchor="middle" x="258.98" y="-55.46" font-family="Times,serif" font-size="14.00">likelihood</text>
<text text-anchor="middle" x="258.98" y="-38.96" font-family="Times,serif" font-size="14.00">~</text>
<text text-anchor="middle" x="258.98" y="-22.46" font-family="Times,serif" font-size="14.00">Potential</text>
</g>
<!-- a&#45;&gt;likelihood -->
<g id="edge2" class="edge">
<title>a&#45;&gt;likelihood</title>
<path fill="none" stroke="black" d="M101.95,-137.64C109.62,-133.1 117.53,-128.42 124.98,-124.02 151.35,-108.44 180.64,-91.17 205.1,-76.75"/>
<polygon fill="black" stroke="black" points="206.77,-79.83 213.61,-71.74 203.22,-73.8 206.77,-79.83"/>
</g>
<!-- b -->
<g id="node2" class="node">
<title>b</title>
<ellipse fill="none" stroke="black" cx="191.98" cy="-164.68" rx="57.98" ry="40.66"/>
<text text-anchor="middle" x="191.98" y="-176.13" font-family="Times,serif" font-size="14.00">b</text>
<text text-anchor="middle" x="191.98" y="-159.63" font-family="Times,serif" font-size="14.00">~</text>
<text text-anchor="middle" x="191.98" y="-143.13" font-family="Times,serif" font-size="14.00">HalfNormal</text>
</g>
<!-- b&#45;&gt;likelihood -->
<g id="edge4" class="edge">
<title>b&#45;&gt;likelihood</title>
<path fill="none" stroke="black" d="M213,-126.45C218.29,-117.07 224.08,-106.83 229.7,-96.88"/>
<polygon fill="black" stroke="black" points="232.63,-98.81 234.5,-88.38 226.53,-95.37 232.63,-98.81"/>
</g>
<!-- r -->
<g id="node3" class="node">
<title>r</title>
<ellipse fill="none" stroke="black" cx="325.98" cy="-164.68" rx="57.98" ry="40.66"/>
<text text-anchor="middle" x="325.98" y="-176.13" font-family="Times,serif" font-size="14.00">r</text>
<text text-anchor="middle" x="325.98" y="-159.63" font-family="Times,serif" font-size="14.00">~</text>
<text text-anchor="middle" x="325.98" y="-143.13" font-family="Times,serif" font-size="14.00">HalfNormal</text>
</g>
<!-- r&#45;&gt;likelihood -->
<g id="edge1" class="edge">
<title>r&#45;&gt;likelihood</title>
<path fill="none" stroke="black" d="M304.97,-126.45C299.67,-117.07 293.89,-106.83 288.27,-96.88"/>
<polygon fill="black" stroke="black" points="291.43,-95.37 283.47,-88.38 285.34,-98.81 291.43,-95.37"/>
</g>
<!-- alpha -->
<g id="node5" class="node">
<title>alpha</title>
<ellipse fill="none" stroke="black" cx="459.98" cy="-164.68" rx="57.98" ry="40.66"/>
<text text-anchor="middle" x="459.98" y="-176.13" font-family="Times,serif" font-size="14.00">alpha</text>
<text text-anchor="middle" x="459.98" y="-159.63" font-family="Times,serif" font-size="14.00">~</text>
<text text-anchor="middle" x="459.98" y="-143.13" font-family="Times,serif" font-size="14.00">HalfNormal</text>
</g>
<!-- alpha&#45;&gt;likelihood -->
<g id="edge3" class="edge">
<title>alpha&#45;&gt;likelihood</title>
<path fill="none" stroke="black" d="M416.02,-137.64C408.34,-133.1 400.43,-128.42 392.98,-124.02 366.62,-108.44 337.32,-91.17 312.87,-76.75"/>
<polygon fill="black" stroke="black" points="314.75,-73.8 304.36,-71.74 311.19,-79.83 314.75,-73.8"/>
</g>
</g>
</svg>
