<?xml version="1.0" encoding="UTF-8" standalone="no"?>
<!DOCTYPE svg PUBLIC "-//W3C//DTD SVG 1.1//EN"
 "http://www.w3.org/Graphics/SVG/1.1/DTD/svg11.dtd">
<!-- Generated by graphviz version 10.0.1 (20240210.2158)
 -->
<!-- Pages: 1 -->
<svg width="572pt" height="331pt"
 viewBox="0.00 0.00 571.97 330.65" xmlns="http://www.w3.org/2000/svg" xmlns:xlink="http://www.w3.org/1999/xlink">
<g id="graph0" class="graph" transform="scale(1 1) rotate(0) translate(4 326.65)">
<polygon fill="white" stroke="none" points="-4,4 -4,-326.65 567.97,-326.65 567.97,4 -4,4"/>
<g id="clust1" class="cluster">
<title>cluster2357</title>
<path fill="none" stroke="black" d="M405.98,-103.43C405.98,-103.43 487.98,-103.43 487.98,-103.43 493.98,-103.43 499.98,-109.43 499.98,-115.43 499.98,-115.43 499.98,-189.43 499.98,-189.43 499.98,-195.43 493.98,-201.43 487.98,-201.43 487.98,-201.43 405.98,-201.43 405.98,-201.43 399.98,-201.43 393.98,-195.43 393.98,-189.43 393.98,-189.43 393.98,-115.43 393.98,-115.43 393.98,-109.43 399.98,-103.43 405.98,-103.43"/>
<text text-anchor="middle" x="478.48" y="-110.63" font-family="Times,serif" font-size="14.00">2357</text>
</g>
<!-- a -->
<g id="node1" class="node">
<title>a</title>
<ellipse fill="none" stroke="black" cx="57.98" cy="-164.68" rx="57.98" ry="40.66"/>
<text text-anchor="middle" x="57.98" y="-176.13" font-family="Times,serif" font-size="14.00">a</text>
<text text-anchor="middle" x="57.98" y="-159.63" font-family="Times,serif" font-size="14.00">~</text>
<text text-anchor="middle" x="57.98" y="-143.13" font-family="Times,serif" font-size="14.00">HalfNormal</text>
</g>
<!-- likelihood -->
<g id="node6" class="node">
<title>likelihood</title>
<polygon fill="lightgrey" stroke="black" points="313.13,-25.78 313.13,-62.24 281.41,-88.02 236.55,-88.02 204.83,-62.24 204.83,-25.78 236.55,0 281.41,0 313.13,-25.78"/>
<text text-anchor="middle" x="258.98" y="-55.46" font-family="Times,serif" font-size="14.00">likelihood</text>
<text text-anchor="middle" x="258.98" y="-38.96" font-family="Times,serif" font-size="14.00">~</text>
<text text-anchor="middle" x="258.98" y="-22.46" font-family="Times,serif" font-size="14.00">Potential</text>
</g>
<!-- a&#45;&gt;likelihood -->
<g id="edge4" class="edge">
<title>a&#45;&gt;likelihood</title>
<path fill="none" stroke="black" d="M90.34,-130.77C100.82,-121.18 112.88,-111.21 124.98,-103.43 146.73,-89.43 172.39,-77.32 195.41,-67.82"/>
<polygon fill="black" stroke="black" points="196.41,-71.19 204.37,-64.2 193.79,-64.7 196.41,-71.19"/>
</g>
<!-- g1 -->
<g id="node2" class="node">
<title>g1</title>
<ellipse fill="none" stroke="black" cx="388.98" cy="-281.99" rx="41.01" ry="40.66"/>
<text text-anchor="middle" x="388.98" y="-293.44" font-family="Times,serif" font-size="14.00">g1</text>
<text text-anchor="middle" x="388.98" y="-276.94" font-family="Times,serif" font-size="14.00">~</text>
<text text-anchor="middle" x="388.98" y="-260.44" font-family="Times,serif" font-size="14.00">Normal</text>
</g>
<!-- alpha -->
<g id="node7" class="node">
<title>alpha</title>
<polygon fill="none" stroke="black" points="492.11,-193.43 401.86,-193.43 401.86,-135.93 492.11,-135.93 492.11,-193.43"/>
<text text-anchor="middle" x="446.98" y="-176.13" font-family="Times,serif" font-size="14.00">alpha</text>
<text text-anchor="middle" x="446.98" y="-159.63" font-family="Times,serif" font-size="14.00">~</text>
<text text-anchor="middle" x="446.98" y="-143.13" font-family="Times,serif" font-size="14.00">Deterministic</text>
</g>
<!-- g1&#45;&gt;alpha -->
<g id="edge1" class="edge">
<title>g1&#45;&gt;alpha</title>
<path fill="none" stroke="black" d="M407.02,-245.14C413.58,-232.1 421.01,-217.31 427.68,-204.06"/>
<polygon fill="black" stroke="black" points="430.78,-205.68 432.15,-195.17 424.53,-202.53 430.78,-205.68"/>
</g>
<!-- alpha0 -->
<g id="node3" class="node">
<title>alpha0</title>
<ellipse fill="none" stroke="black" cx="505.98" cy="-281.99" rx="57.98" ry="40.66"/>
<text text-anchor="middle" x="505.98" y="-293.44" font-family="Times,serif" font-size="14.00">alpha0</text>
<text text-anchor="middle" x="505.98" y="-276.94" font-family="Times,serif" font-size="14.00">~</text>
<text text-anchor="middle" x="505.98" y="-260.44" font-family="Times,serif" font-size="14.00">HalfNormal</text>
</g>
<!-- alpha0&#45;&gt;alpha -->
<g id="edge2" class="edge">
<title>alpha0&#45;&gt;alpha</title>
<path fill="none" stroke="black" d="M486.66,-243.23C480.21,-230.61 473,-216.54 466.53,-203.88"/>
<polygon fill="black" stroke="black" points="469.65,-202.3 461.98,-194.99 463.42,-205.49 469.65,-202.3"/>
</g>
<!-- b -->
<g id="node4" class="node">
<title>b</title>
<ellipse fill="none" stroke="black" cx="191.98" cy="-164.68" rx="57.98" ry="40.66"/>
<text text-anchor="middle" x="191.98" y="-176.13" font-family="Times,serif" font-size="14.00">b</text>
<text text-anchor="middle" x="191.98" y="-159.63" font-family="Times,serif" font-size="14.00">~</text>
<text text-anchor="middle" x="191.98" y="-143.13" font-family="Times,serif" font-size="14.00">HalfNormal</text>
</g>
<!-- b&#45;&gt;likelihood -->
<g id="edge6" class="edge">
<title>b&#45;&gt;likelihood</title>
<path fill="none" stroke="black" d="M213,-126.45C218.29,-117.07 224.08,-106.83 229.7,-96.88"/>
<polygon fill="black" stroke="black" points="232.63,-98.81 234.5,-88.38 226.53,-95.37 232.63,-98.81"/>
</g>
<!-- r -->
<g id="node5" class="node">
<title>r</title>
<ellipse fill="none" stroke="black" cx="325.98" cy="-164.68" rx="57.98" ry="40.66"/>
<text text-anchor="middle" x="325.98" y="-176.13" font-family="Times,serif" font-size="14.00">r</text>
<text text-anchor="middle" x="325.98" y="-159.63" font-family="Times,serif" font-size="14.00">~</text>
<text text-anchor="middle" x="325.98" y="-143.13" font-family="Times,serif" font-size="14.00">HalfNormal</text>
</g>
<!-- r&#45;&gt;likelihood -->
<g id="edge3" class="edge">
<title>r&#45;&gt;likelihood</title>
<path fill="none" stroke="black" d="M304.97,-126.45C299.67,-117.07 293.89,-106.83 288.27,-96.88"/>
<polygon fill="black" stroke="black" points="291.43,-95.37 283.47,-88.38 285.34,-98.81 291.43,-95.37"/>
</g>
<!-- alpha&#45;&gt;likelihood -->
<g id="edge5" class="edge">
<title>alpha&#45;&gt;likelihood</title>
<path fill="none" stroke="black" d="M426.04,-135.45C416.81,-124.42 405.28,-112.31 392.98,-103.43 372.2,-88.42 346.96,-76.16 324.01,-66.81"/>
<polygon fill="black" stroke="black" points="325.3,-63.56 314.72,-63.15 322.74,-70.07 325.3,-63.56"/>
</g>
</g>
</svg>
