<?xml version="1.0" encoding="utf-8" standalone="no"?>
<!DOCTYPE svg PUBLIC "-//W3C//DTD SVG 1.1//EN"
  "http://www.w3.org/Graphics/SVG/1.1/DTD/svg11.dtd">
<svg xmlns:xlink="http://www.w3.org/1999/xlink" width="614.708438pt" height="566.049375pt" viewBox="0 0 614.708438 566.049375" xmlns="http://www.w3.org/2000/svg" version="1.1">
 <metadata>
  <rdf:RDF xmlns:dc="http://purl.org/dc/elements/1.1/" xmlns:cc="http://creativecommons.org/ns#" xmlns:rdf="http://www.w3.org/1999/02/22-rdf-syntax-ns#">
   <cc:Work>
    <dc:type rdf:resource="http://purl.org/dc/dcmitype/StillImage"/>
    <dc:date>2022-03-02T19:36:46.784354</dc:date>
    <dc:format>image/svg+xml</dc:format>
    <dc:creator>
     <cc:Agent>
      <dc:title>Matplotlib v3.5.1, https://matplotlib.org/</dc:title>
     </cc:Agent>
    </dc:creator>
   </cc:Work>
  </rdf:RDF>
 </metadata>
 <defs>
  <style type="text/css">*{stroke-linejoin: round; stroke-linecap: butt}</style>
 </defs>
 <g id="figure_1">
  <g id="patch_1">
   <path d="M 0 566.049375 
L 614.708438 566.049375 
L 614.708438 0 
L 0 0 
L 0 566.049375 
z
" style="fill: none"/>
  </g>
  <g id="axes_1">
   <g id="patch_2">
    <path d="M 49.508438 541.8 
L 344.920202 541.8 
L 344.920202 52.56 
L 49.508438 52.56 
z
" style="fill: #eeeeee"/>
   </g>
   <g id="patch_3">
    <path d="M 49.508438 509.893043 
L 49.508438 435.443478 
L 344.920202 435.443478 
L 344.920202 509.893043 
L 49.508438 509.893043 
z
" clip-path="url(#p1d3b279fc3)" style="fill: none; opacity: 0"/>
   </g>
   <g id="patch_4">
    <path d="M 49.508438 435.443478 
L 49.508438 313.133478 
L 344.920202 313.133478 
L 344.920202 435.443478 
z
" clip-path="url(#p1d3b279fc3)" style="opacity: 0.1; stroke: #000000; stroke-width: 0.5; stroke-linejoin: miter"/>
   </g>
   <g id="patch_5">
    <path d="M 49.508438 313.133478 
L 49.508438 190.823478 
L 344.920202 190.823478 
L 344.920202 313.133478 
L 49.508438 313.133478 
z
" clip-path="url(#p1d3b279fc3)" style="fill: none; opacity: 0"/>
   </g>
   <g id="patch_6">
    <path d="M 49.508438 190.823478 
L 49.508438 84.466957 
L 344.920202 84.466957 
L 344.920202 190.823478 
z
" clip-path="url(#p1d3b279fc3)" style="opacity: 0.1; stroke: #000000; stroke-width: 0.5; stroke-linejoin: miter"/>
   </g>
   <g id="matplotlib.axis_1">
    <g id="xtick_1">
     <g id="line2d_1">
      <path d="M 51.125708 541.8 
L 51.125708 52.56 
" clip-path="url(#p1d3b279fc3)" style="fill: none; stroke-dasharray: 1.85,0.8; stroke-dashoffset: 0; stroke: #b2b2b2; stroke-width: 0.5"/>
     </g>
     <g id="line2d_2">
      <defs>
       <path id="mec32f30dd9" d="M 0 0 
L 0 -3.5 
" style="stroke: #000000; stroke-width: 0.8"/>
      </defs>
      <g>
       <use xlink:href="#mec32f30dd9" x="51.125708" y="541.8" style="stroke: #000000; stroke-width: 0.8"/>
      </g>
     </g>
     <g id="text_1">
      <!-- 0 -->
      <g transform="translate(46.671958 555.937813)scale(0.14 -0.14)">
       <defs>
        <path id="DejaVuSans-30" d="M 2034 4250 
Q 1547 4250 1301 3770 
Q 1056 3291 1056 2328 
Q 1056 1369 1301 889 
Q 1547 409 2034 409 
Q 2525 409 2770 889 
Q 3016 1369 3016 2328 
Q 3016 3291 2770 3770 
Q 2525 4250 2034 4250 
z
M 2034 4750 
Q 2819 4750 3233 4129 
Q 3647 3509 3647 2328 
Q 3647 1150 3233 529 
Q 2819 -91 2034 -91 
Q 1250 -91 836 529 
Q 422 1150 422 2328 
Q 422 3509 836 4129 
Q 1250 4750 2034 4750 
z
" transform="scale(0.015625)"/>
       </defs>
       <use xlink:href="#DejaVuSans-30"/>
      </g>
     </g>
    </g>
    <g id="xtick_2">
     <g id="line2d_3">
      <path d="M 104.895566 541.8 
L 104.895566 52.56 
" clip-path="url(#p1d3b279fc3)" style="fill: none; stroke-dasharray: 1.85,0.8; stroke-dashoffset: 0; stroke: #b2b2b2; stroke-width: 0.5"/>
     </g>
     <g id="line2d_4">
      <g>
       <use xlink:href="#mec32f30dd9" x="104.895566" y="541.8" style="stroke: #000000; stroke-width: 0.8"/>
      </g>
     </g>
     <g id="text_2">
      <!-- 1 -->
      <g transform="translate(100.441816 555.937813)scale(0.14 -0.14)">
       <defs>
        <path id="DejaVuSans-31" d="M 794 531 
L 1825 531 
L 1825 4091 
L 703 3866 
L 703 4441 
L 1819 4666 
L 2450 4666 
L 2450 531 
L 3481 531 
L 3481 0 
L 794 0 
L 794 531 
z
" transform="scale(0.015625)"/>
       </defs>
       <use xlink:href="#DejaVuSans-31"/>
      </g>
     </g>
    </g>
    <g id="xtick_3">
     <g id="line2d_5">
      <path d="M 158.665424 541.8 
L 158.665424 52.56 
" clip-path="url(#p1d3b279fc3)" style="fill: none; stroke-dasharray: 1.85,0.8; stroke-dashoffset: 0; stroke: #b2b2b2; stroke-width: 0.5"/>
     </g>
     <g id="line2d_6">
      <g>
       <use xlink:href="#mec32f30dd9" x="158.665424" y="541.8" style="stroke: #000000; stroke-width: 0.8"/>
      </g>
     </g>
     <g id="text_3">
      <!-- 2 -->
      <g transform="translate(154.211674 555.937813)scale(0.14 -0.14)">
       <defs>
        <path id="DejaVuSans-32" d="M 1228 531 
L 3431 531 
L 3431 0 
L 469 0 
L 469 531 
Q 828 903 1448 1529 
Q 2069 2156 2228 2338 
Q 2531 2678 2651 2914 
Q 2772 3150 2772 3378 
Q 2772 3750 2511 3984 
Q 2250 4219 1831 4219 
Q 1534 4219 1204 4116 
Q 875 4013 500 3803 
L 500 4441 
Q 881 4594 1212 4672 
Q 1544 4750 1819 4750 
Q 2544 4750 2975 4387 
Q 3406 4025 3406 3419 
Q 3406 3131 3298 2873 
Q 3191 2616 2906 2266 
Q 2828 2175 2409 1742 
Q 1991 1309 1228 531 
z
" transform="scale(0.015625)"/>
       </defs>
       <use xlink:href="#DejaVuSans-32"/>
      </g>
     </g>
    </g>
    <g id="xtick_4">
     <g id="line2d_7">
      <path d="M 212.435282 541.8 
L 212.435282 52.56 
" clip-path="url(#p1d3b279fc3)" style="fill: none; stroke-dasharray: 1.85,0.8; stroke-dashoffset: 0; stroke: #b2b2b2; stroke-width: 0.5"/>
     </g>
     <g id="line2d_8">
      <g>
       <use xlink:href="#mec32f30dd9" x="212.435282" y="541.8" style="stroke: #000000; stroke-width: 0.8"/>
      </g>
     </g>
     <g id="text_4">
      <!-- 3 -->
      <g transform="translate(207.981532 555.937813)scale(0.14 -0.14)">
       <defs>
        <path id="DejaVuSans-33" d="M 2597 2516 
Q 3050 2419 3304 2112 
Q 3559 1806 3559 1356 
Q 3559 666 3084 287 
Q 2609 -91 1734 -91 
Q 1441 -91 1130 -33 
Q 819 25 488 141 
L 488 750 
Q 750 597 1062 519 
Q 1375 441 1716 441 
Q 2309 441 2620 675 
Q 2931 909 2931 1356 
Q 2931 1769 2642 2001 
Q 2353 2234 1838 2234 
L 1294 2234 
L 1294 2753 
L 1863 2753 
Q 2328 2753 2575 2939 
Q 2822 3125 2822 3475 
Q 2822 3834 2567 4026 
Q 2313 4219 1838 4219 
Q 1578 4219 1281 4162 
Q 984 4106 628 3988 
L 628 4550 
Q 988 4650 1302 4700 
Q 1616 4750 1894 4750 
Q 2613 4750 3031 4423 
Q 3450 4097 3450 3541 
Q 3450 3153 3228 2886 
Q 3006 2619 2597 2516 
z
" transform="scale(0.015625)"/>
       </defs>
       <use xlink:href="#DejaVuSans-33"/>
      </g>
     </g>
    </g>
    <g id="xtick_5">
     <g id="line2d_9">
      <path d="M 266.20514 541.8 
L 266.20514 52.56 
" clip-path="url(#p1d3b279fc3)" style="fill: none; stroke-dasharray: 1.85,0.8; stroke-dashoffset: 0; stroke: #b2b2b2; stroke-width: 0.5"/>
     </g>
     <g id="line2d_10">
      <g>
       <use xlink:href="#mec32f30dd9" x="266.20514" y="541.8" style="stroke: #000000; stroke-width: 0.8"/>
      </g>
     </g>
     <g id="text_5">
      <!-- 4 -->
      <g transform="translate(261.75139 555.937813)scale(0.14 -0.14)">
       <defs>
        <path id="DejaVuSans-34" d="M 2419 4116 
L 825 1625 
L 2419 1625 
L 2419 4116 
z
M 2253 4666 
L 3047 4666 
L 3047 1625 
L 3713 1625 
L 3713 1100 
L 3047 1100 
L 3047 0 
L 2419 0 
L 2419 1100 
L 313 1100 
L 313 1709 
L 2253 4666 
z
" transform="scale(0.015625)"/>
       </defs>
       <use xlink:href="#DejaVuSans-34"/>
      </g>
     </g>
    </g>
    <g id="xtick_6">
     <g id="line2d_11">
      <path d="M 319.974999 541.8 
L 319.974999 52.56 
" clip-path="url(#p1d3b279fc3)" style="fill: none; stroke-dasharray: 1.85,0.8; stroke-dashoffset: 0; stroke: #b2b2b2; stroke-width: 0.5"/>
     </g>
     <g id="line2d_12">
      <g>
       <use xlink:href="#mec32f30dd9" x="319.974999" y="541.8" style="stroke: #000000; stroke-width: 0.8"/>
      </g>
     </g>
     <g id="text_6">
      <!-- 5 -->
      <g transform="translate(315.521249 555.937813)scale(0.14 -0.14)">
       <defs>
        <path id="DejaVuSans-35" d="M 691 4666 
L 3169 4666 
L 3169 4134 
L 1269 4134 
L 1269 2991 
Q 1406 3038 1543 3061 
Q 1681 3084 1819 3084 
Q 2600 3084 3056 2656 
Q 3513 2228 3513 1497 
Q 3513 744 3044 326 
Q 2575 -91 1722 -91 
Q 1428 -91 1123 -41 
Q 819 9 494 109 
L 494 744 
Q 775 591 1075 516 
Q 1375 441 1709 441 
Q 2250 441 2565 725 
Q 2881 1009 2881 1497 
Q 2881 1984 2565 2268 
Q 2250 2553 1709 2553 
Q 1456 2553 1204 2497 
Q 953 2441 691 2322 
L 691 4666 
z
" transform="scale(0.015625)"/>
       </defs>
       <use xlink:href="#DejaVuSans-35"/>
      </g>
     </g>
    </g>
   </g>
   <g id="matplotlib.axis_2">
    <g id="ytick_1">
     <g id="text_7">
      <!-- r -->
      <g transform="translate(40.253125 501.917385)scale(0.14 -0.14)">
       <defs>
        <path id="DejaVuSans-72" d="M 2631 2963 
Q 2534 3019 2420 3045 
Q 2306 3072 2169 3072 
Q 1681 3072 1420 2755 
Q 1159 2438 1159 1844 
L 1159 0 
L 581 0 
L 581 3500 
L 1159 3500 
L 1159 2956 
Q 1341 3275 1631 3429 
Q 1922 3584 2338 3584 
Q 2397 3584 2469 3576 
Q 2541 3569 2628 3553 
L 2631 2963 
z
" transform="scale(0.015625)"/>
       </defs>
       <use xlink:href="#DejaVuSans-72"/>
      </g>
     </g>
    </g>
    <g id="ytick_2">
     <g id="text_8">
      <!-- alpha -->
      <g transform="translate(7.2 379.607385)scale(0.14 -0.14)">
       <defs>
        <path id="DejaVuSans-61" d="M 2194 1759 
Q 1497 1759 1228 1600 
Q 959 1441 959 1056 
Q 959 750 1161 570 
Q 1363 391 1709 391 
Q 2188 391 2477 730 
Q 2766 1069 2766 1631 
L 2766 1759 
L 2194 1759 
z
M 3341 1997 
L 3341 0 
L 2766 0 
L 2766 531 
Q 2569 213 2275 61 
Q 1981 -91 1556 -91 
Q 1019 -91 701 211 
Q 384 513 384 1019 
Q 384 1609 779 1909 
Q 1175 2209 1959 2209 
L 2766 2209 
L 2766 2266 
Q 2766 2663 2505 2880 
Q 2244 3097 1772 3097 
Q 1472 3097 1187 3025 
Q 903 2953 641 2809 
L 641 3341 
Q 956 3463 1253 3523 
Q 1550 3584 1831 3584 
Q 2591 3584 2966 3190 
Q 3341 2797 3341 1997 
z
" transform="scale(0.015625)"/>
        <path id="DejaVuSans-6c" d="M 603 4863 
L 1178 4863 
L 1178 0 
L 603 0 
L 603 4863 
z
" transform="scale(0.015625)"/>
        <path id="DejaVuSans-70" d="M 1159 525 
L 1159 -1331 
L 581 -1331 
L 581 3500 
L 1159 3500 
L 1159 2969 
Q 1341 3281 1617 3432 
Q 1894 3584 2278 3584 
Q 2916 3584 3314 3078 
Q 3713 2572 3713 1747 
Q 3713 922 3314 415 
Q 2916 -91 2278 -91 
Q 1894 -91 1617 61 
Q 1341 213 1159 525 
z
M 3116 1747 
Q 3116 2381 2855 2742 
Q 2594 3103 2138 3103 
Q 1681 3103 1420 2742 
Q 1159 2381 1159 1747 
Q 1159 1113 1420 752 
Q 1681 391 2138 391 
Q 2594 391 2855 752 
Q 3116 1113 3116 1747 
z
" transform="scale(0.015625)"/>
        <path id="DejaVuSans-68" d="M 3513 2113 
L 3513 0 
L 2938 0 
L 2938 2094 
Q 2938 2591 2744 2837 
Q 2550 3084 2163 3084 
Q 1697 3084 1428 2787 
Q 1159 2491 1159 1978 
L 1159 0 
L 581 0 
L 581 4863 
L 1159 4863 
L 1159 2956 
Q 1366 3272 1645 3428 
Q 1925 3584 2291 3584 
Q 2894 3584 3203 3211 
Q 3513 2838 3513 2113 
z
" transform="scale(0.015625)"/>
       </defs>
       <use xlink:href="#DejaVuSans-61"/>
       <use xlink:href="#DejaVuSans-6c" x="61.279297"/>
       <use xlink:href="#DejaVuSans-70" x="89.0625"/>
       <use xlink:href="#DejaVuSans-68" x="152.539062"/>
       <use xlink:href="#DejaVuSans-61" x="215.917969"/>
      </g>
     </g>
    </g>
    <g id="ytick_3">
     <g id="text_9">
      <!-- b -->
      <g transform="translate(37.120625 257.297385)scale(0.14 -0.14)">
       <defs>
        <path id="DejaVuSans-62" d="M 3116 1747 
Q 3116 2381 2855 2742 
Q 2594 3103 2138 3103 
Q 1681 3103 1420 2742 
Q 1159 2381 1159 1747 
Q 1159 1113 1420 752 
Q 1681 391 2138 391 
Q 2594 391 2855 752 
Q 3116 1113 3116 1747 
z
M 1159 2969 
Q 1341 3281 1617 3432 
Q 1894 3584 2278 3584 
Q 2916 3584 3314 3078 
Q 3713 2572 3713 1747 
Q 3713 922 3314 415 
Q 2916 -91 2278 -91 
Q 1894 -91 1617 61 
Q 1341 213 1159 525 
L 1159 0 
L 581 0 
L 581 4863 
L 1159 4863 
L 1159 2969 
z
" transform="scale(0.015625)"/>
       </defs>
       <use xlink:href="#DejaVuSans-62"/>
      </g>
     </g>
    </g>
    <g id="ytick_4">
     <g id="text_10">
      <!-- a -->
      <g transform="translate(37.429063 134.987385)scale(0.14 -0.14)">
       <use xlink:href="#DejaVuSans-61"/>
      </g>
     </g>
    </g>
   </g>
   <g id="LineCollection_1">
    <path d="M 62.936245 509.893043 
L 65.501395 509.893043 
" clip-path="url(#p1d3b279fc3)" style="fill: none; stroke: #a60628; stroke-width: 2"/>
   </g>
   <g id="LineCollection_2">
    <path d="M 63.785661 509.893043 
L 64.713421 509.893043 
" clip-path="url(#p1d3b279fc3)" style="fill: none; stroke: #a60628; stroke-width: 4"/>
   </g>
   <g id="line2d_13">
    <defs>
     <path id="m019033c2dc" d="M 0 2.25 
C 0.596707 2.25 1.169055 2.012926 1.59099 1.59099 
C 2.012926 1.169055 2.25 0.596707 2.25 0 
C 2.25 -0.596707 2.012926 -1.169055 1.59099 -1.59099 
C 1.169055 -2.012926 0.596707 -2.25 0 -2.25 
C -0.596707 -2.25 -1.169055 -2.012926 -1.59099 -1.59099 
C -2.012926 -1.169055 -2.25 -0.596707 -2.25 0 
C -2.25 0.596707 -2.012926 1.169055 -1.59099 1.59099 
C -1.169055 2.012926 -0.596707 2.25 0 2.25 
z
" style="stroke: #a60628"/>
    </defs>
    <g clip-path="url(#p1d3b279fc3)">
     <use xlink:href="#m019033c2dc" x="64.237539" y="509.893043" style="fill: #eeeeee; stroke: #a60628"/>
    </g>
   </g>
   <g id="LineCollection_3">
    <path d="M 62.96814 483.303913 
L 65.491695 483.303913 
" clip-path="url(#p1d3b279fc3)" style="fill: none; stroke: #348abd; stroke-width: 2"/>
   </g>
   <g id="LineCollection_4">
    <path d="M 63.77945 483.303913 
L 64.679748 483.303913 
" clip-path="url(#p1d3b279fc3)" style="fill: none; stroke: #348abd; stroke-width: 4"/>
   </g>
   <g id="line2d_14">
    <defs>
     <path id="mf90fa6c2c3" d="M 0 2.25 
C 0.596707 2.25 1.169055 2.012926 1.59099 1.59099 
C 2.012926 1.169055 2.25 0.596707 2.25 0 
C 2.25 -0.596707 2.012926 -1.169055 1.59099 -1.59099 
C 1.169055 -2.012926 0.596707 -2.25 0 -2.25 
C -0.596707 -2.25 -1.169055 -2.012926 -1.59099 -1.59099 
C -2.012926 -1.169055 -2.25 -0.596707 -2.25 0 
C -2.25 0.596707 -2.012926 1.169055 -1.59099 1.59099 
C -1.169055 2.012926 -0.596707 2.25 0 2.25 
z
" style="stroke: #348abd"/>
    </defs>
    <g clip-path="url(#p1d3b279fc3)">
     <use xlink:href="#mf90fa6c2c3" x="64.213942" y="483.303913" style="fill: #eeeeee; stroke: #348abd"/>
    </g>
   </g>
   <g id="LineCollection_5">
    <path d="M 253.782528 387.583043 
L 331.492395 387.583043 
" clip-path="url(#p1d3b279fc3)" style="fill: none; stroke: #a60628; stroke-width: 2"/>
   </g>
   <g id="LineCollection_6">
    <path d="M 277.451823 387.583043 
L 305.42412 387.583043 
" clip-path="url(#p1d3b279fc3)" style="fill: none; stroke: #a60628; stroke-width: 4"/>
   </g>
   <g id="line2d_15">
    <g clip-path="url(#p1d3b279fc3)">
     <use xlink:href="#m019033c2dc" x="291.241444" y="387.583043" style="fill: #eeeeee; stroke: #a60628"/>
    </g>
   </g>
   <g id="LineCollection_7">
    <path d="M 254.407856 360.993913 
L 331.325412 360.993913 
" clip-path="url(#p1d3b279fc3)" style="fill: none; stroke: #348abd; stroke-width: 2"/>
   </g>
   <g id="LineCollection_8">
    <path d="M 277.228191 360.993913 
L 304.541042 360.993913 
" clip-path="url(#p1d3b279fc3)" style="fill: none; stroke: #348abd; stroke-width: 4"/>
   </g>
   <g id="line2d_16">
    <g clip-path="url(#p1d3b279fc3)">
     <use xlink:href="#mf90fa6c2c3" x="290.588956" y="360.993913" style="fill: #eeeeee; stroke: #348abd"/>
    </g>
   </g>
   <g id="LineCollection_9">
    <path d="M 128.754407 265.273043 
L 327.786494 265.273043 
" clip-path="url(#p1d3b279fc3)" style="fill: none; stroke: #a60628; stroke-width: 2"/>
   </g>
   <g id="LineCollection_10">
    <path d="M 178.474494 265.273043 
L 246.076799 265.273043 
" clip-path="url(#p1d3b279fc3)" style="fill: none; stroke: #a60628; stroke-width: 4"/>
   </g>
   <g id="line2d_17">
    <g clip-path="url(#p1d3b279fc3)">
     <use xlink:href="#m019033c2dc" x="207.47895" y="265.273043" style="fill: #eeeeee; stroke: #a60628"/>
    </g>
   </g>
   <g id="LineCollection_11">
    <path d="M 135.921556 238.683913 
L 326.196793 238.683913 
" clip-path="url(#p1d3b279fc3)" style="fill: none; stroke: #348abd; stroke-width: 2"/>
   </g>
   <g id="LineCollection_12">
    <path d="M 180.543701 238.683913 
L 247.413646 238.683913 
" clip-path="url(#p1d3b279fc3)" style="fill: none; stroke: #348abd; stroke-width: 4"/>
   </g>
   <g id="line2d_18">
    <g clip-path="url(#p1d3b279fc3)">
     <use xlink:href="#mf90fa6c2c3" x="209.129667" y="238.683913" style="fill: #eeeeee; stroke: #348abd"/>
    </g>
   </g>
   <g id="LineCollection_13">
    <path d="M 79.705167 142.963043 
L 129.394976 142.963043 
" clip-path="url(#p1d3b279fc3)" style="fill: none; stroke: #a60628; stroke-width: 2"/>
   </g>
   <g id="LineCollection_14">
    <path d="M 92.801708 142.963043 
L 109.834974 142.963043 
" clip-path="url(#p1d3b279fc3)" style="fill: none; stroke: #a60628; stroke-width: 4"/>
   </g>
   <g id="line2d_19">
    <g clip-path="url(#p1d3b279fc3)">
     <use xlink:href="#m019033c2dc" x="100.170224" y="142.963043" style="fill: #eeeeee; stroke: #a60628"/>
    </g>
   </g>
   <g id="LineCollection_15">
    <path d="M 81.200932 116.373913 
L 128.265269 116.373913 
" clip-path="url(#p1d3b279fc3)" style="fill: none; stroke: #348abd; stroke-width: 2"/>
   </g>
   <g id="LineCollection_16">
    <path d="M 93.5845 116.373913 
L 109.676828 116.373913 
" clip-path="url(#p1d3b279fc3)" style="fill: none; stroke: #348abd; stroke-width: 4"/>
   </g>
   <g id="line2d_20">
    <g clip-path="url(#p1d3b279fc3)">
     <use xlink:href="#mf90fa6c2c3" x="100.624085" y="116.373913" style="fill: #eeeeee; stroke: #348abd"/>
    </g>
   </g>
   <g id="patch_7">
    <path d="M 49.508438 541.8 
L 344.920202 541.8 
" style="fill: none; stroke: #bcbcbc; stroke-width: 0.8; stroke-linejoin: miter; stroke-linecap: square"/>
   </g>
   <g id="patch_8">
    <path d="M 49.508438 52.56 
L 344.920202 52.56 
" style="fill: none; stroke: #bcbcbc; stroke-width: 0.8; stroke-linejoin: miter; stroke-linecap: square"/>
   </g>
   <g id="text_11">
    <!-- 94.0% HDI -->
    <g transform="translate(154.72182 46.56)scale(0.16 -0.16)">
     <defs>
      <path id="DejaVuSans-39" d="M 703 97 
L 703 672 
Q 941 559 1184 500 
Q 1428 441 1663 441 
Q 2288 441 2617 861 
Q 2947 1281 2994 2138 
Q 2813 1869 2534 1725 
Q 2256 1581 1919 1581 
Q 1219 1581 811 2004 
Q 403 2428 403 3163 
Q 403 3881 828 4315 
Q 1253 4750 1959 4750 
Q 2769 4750 3195 4129 
Q 3622 3509 3622 2328 
Q 3622 1225 3098 567 
Q 2575 -91 1691 -91 
Q 1453 -91 1209 -44 
Q 966 3 703 97 
z
M 1959 2075 
Q 2384 2075 2632 2365 
Q 2881 2656 2881 3163 
Q 2881 3666 2632 3958 
Q 2384 4250 1959 4250 
Q 1534 4250 1286 3958 
Q 1038 3666 1038 3163 
Q 1038 2656 1286 2365 
Q 1534 2075 1959 2075 
z
" transform="scale(0.015625)"/>
      <path id="DejaVuSans-2e" d="M 684 794 
L 1344 794 
L 1344 0 
L 684 0 
L 684 794 
z
" transform="scale(0.015625)"/>
      <path id="DejaVuSans-25" d="M 4653 2053 
Q 4381 2053 4226 1822 
Q 4072 1591 4072 1178 
Q 4072 772 4226 539 
Q 4381 306 4653 306 
Q 4919 306 5073 539 
Q 5228 772 5228 1178 
Q 5228 1588 5073 1820 
Q 4919 2053 4653 2053 
z
M 4653 2450 
Q 5147 2450 5437 2106 
Q 5728 1763 5728 1178 
Q 5728 594 5436 251 
Q 5144 -91 4653 -91 
Q 4153 -91 3862 251 
Q 3572 594 3572 1178 
Q 3572 1766 3864 2108 
Q 4156 2450 4653 2450 
z
M 1428 4353 
Q 1159 4353 1004 4120 
Q 850 3888 850 3481 
Q 850 3069 1003 2837 
Q 1156 2606 1428 2606 
Q 1700 2606 1854 2837 
Q 2009 3069 2009 3481 
Q 2009 3884 1853 4118 
Q 1697 4353 1428 4353 
z
M 4250 4750 
L 4750 4750 
L 1831 -91 
L 1331 -91 
L 4250 4750 
z
M 1428 4750 
Q 1922 4750 2215 4408 
Q 2509 4066 2509 3481 
Q 2509 2891 2217 2550 
Q 1925 2209 1428 2209 
Q 931 2209 642 2551 
Q 353 2894 353 3481 
Q 353 4063 643 4406 
Q 934 4750 1428 4750 
z
" transform="scale(0.015625)"/>
      <path id="DejaVuSans-20" transform="scale(0.015625)"/>
      <path id="DejaVuSans-48" d="M 628 4666 
L 1259 4666 
L 1259 2753 
L 3553 2753 
L 3553 4666 
L 4184 4666 
L 4184 0 
L 3553 0 
L 3553 2222 
L 1259 2222 
L 1259 0 
L 628 0 
L 628 4666 
z
" transform="scale(0.015625)"/>
      <path id="DejaVuSans-44" d="M 1259 4147 
L 1259 519 
L 2022 519 
Q 2988 519 3436 956 
Q 3884 1394 3884 2338 
Q 3884 3275 3436 3711 
Q 2988 4147 2022 4147 
L 1259 4147 
z
M 628 4666 
L 1925 4666 
Q 3281 4666 3915 4102 
Q 4550 3538 4550 2338 
Q 4550 1131 3912 565 
Q 3275 0 1925 0 
L 628 0 
L 628 4666 
z
" transform="scale(0.015625)"/>
      <path id="DejaVuSans-49" d="M 628 4666 
L 1259 4666 
L 1259 0 
L 628 0 
L 628 4666 
z
" transform="scale(0.015625)"/>
     </defs>
     <use xlink:href="#DejaVuSans-39"/>
     <use xlink:href="#DejaVuSans-34" x="63.623047"/>
     <use xlink:href="#DejaVuSans-2e" x="127.246094"/>
     <use xlink:href="#DejaVuSans-30" x="159.033203"/>
     <use xlink:href="#DejaVuSans-25" x="222.65625"/>
     <use xlink:href="#DejaVuSans-20" x="317.675781"/>
     <use xlink:href="#DejaVuSans-48" x="349.462891"/>
     <use xlink:href="#DejaVuSans-44" x="424.658203"/>
     <use xlink:href="#DejaVuSans-49" x="501.660156"/>
    </g>
   </g>
   <g id="legend_1">
    <g id="patch_9">
     <path d="M 233.04989 90.4725 
L 337.920202 90.4725 
Q 339.920202 90.4725 339.920202 88.4725 
L 339.920202 59.56 
Q 339.920202 57.56 337.920202 57.56 
L 233.04989 57.56 
Q 231.04989 57.56 231.04989 59.56 
L 231.04989 88.4725 
Q 231.04989 90.4725 233.04989 90.4725 
z
" style="fill: #eeeeee; opacity: 0.8; stroke: #cccccc; stroke-width: 0.5; stroke-linejoin: miter"/>
    </g>
    <g id="line2d_21">
     <path d="M 235.04989 65.658438 
L 245.04989 65.658438 
L 255.04989 65.658438 
" style="fill: none; stroke: #a60628; stroke-width: 2; stroke-linecap: square"/>
    </g>
    <g id="text_12">
     <!-- bg_nbd_model -->
     <g transform="translate(263.04989 69.158438)scale(0.1 -0.1)">
      <defs>
       <path id="DejaVuSans-67" d="M 2906 1791 
Q 2906 2416 2648 2759 
Q 2391 3103 1925 3103 
Q 1463 3103 1205 2759 
Q 947 2416 947 1791 
Q 947 1169 1205 825 
Q 1463 481 1925 481 
Q 2391 481 2648 825 
Q 2906 1169 2906 1791 
z
M 3481 434 
Q 3481 -459 3084 -895 
Q 2688 -1331 1869 -1331 
Q 1566 -1331 1297 -1286 
Q 1028 -1241 775 -1147 
L 775 -588 
Q 1028 -725 1275 -790 
Q 1522 -856 1778 -856 
Q 2344 -856 2625 -561 
Q 2906 -266 2906 331 
L 2906 616 
Q 2728 306 2450 153 
Q 2172 0 1784 0 
Q 1141 0 747 490 
Q 353 981 353 1791 
Q 353 2603 747 3093 
Q 1141 3584 1784 3584 
Q 2172 3584 2450 3431 
Q 2728 3278 2906 2969 
L 2906 3500 
L 3481 3500 
L 3481 434 
z
" transform="scale(0.015625)"/>
       <path id="DejaVuSans-5f" d="M 3263 -1063 
L 3263 -1509 
L -63 -1509 
L -63 -1063 
L 3263 -1063 
z
" transform="scale(0.015625)"/>
       <path id="DejaVuSans-6e" d="M 3513 2113 
L 3513 0 
L 2938 0 
L 2938 2094 
Q 2938 2591 2744 2837 
Q 2550 3084 2163 3084 
Q 1697 3084 1428 2787 
Q 1159 2491 1159 1978 
L 1159 0 
L 581 0 
L 581 3500 
L 1159 3500 
L 1159 2956 
Q 1366 3272 1645 3428 
Q 1925 3584 2291 3584 
Q 2894 3584 3203 3211 
Q 3513 2838 3513 2113 
z
" transform="scale(0.015625)"/>
       <path id="DejaVuSans-64" d="M 2906 2969 
L 2906 4863 
L 3481 4863 
L 3481 0 
L 2906 0 
L 2906 525 
Q 2725 213 2448 61 
Q 2172 -91 1784 -91 
Q 1150 -91 751 415 
Q 353 922 353 1747 
Q 353 2572 751 3078 
Q 1150 3584 1784 3584 
Q 2172 3584 2448 3432 
Q 2725 3281 2906 2969 
z
M 947 1747 
Q 947 1113 1208 752 
Q 1469 391 1925 391 
Q 2381 391 2643 752 
Q 2906 1113 2906 1747 
Q 2906 2381 2643 2742 
Q 2381 3103 1925 3103 
Q 1469 3103 1208 2742 
Q 947 2381 947 1747 
z
" transform="scale(0.015625)"/>
       <path id="DejaVuSans-6d" d="M 3328 2828 
Q 3544 3216 3844 3400 
Q 4144 3584 4550 3584 
Q 5097 3584 5394 3201 
Q 5691 2819 5691 2113 
L 5691 0 
L 5113 0 
L 5113 2094 
Q 5113 2597 4934 2840 
Q 4756 3084 4391 3084 
Q 3944 3084 3684 2787 
Q 3425 2491 3425 1978 
L 3425 0 
L 2847 0 
L 2847 2094 
Q 2847 2600 2669 2842 
Q 2491 3084 2119 3084 
Q 1678 3084 1418 2786 
Q 1159 2488 1159 1978 
L 1159 0 
L 581 0 
L 581 3500 
L 1159 3500 
L 1159 2956 
Q 1356 3278 1631 3431 
Q 1906 3584 2284 3584 
Q 2666 3584 2933 3390 
Q 3200 3197 3328 2828 
z
" transform="scale(0.015625)"/>
       <path id="DejaVuSans-6f" d="M 1959 3097 
Q 1497 3097 1228 2736 
Q 959 2375 959 1747 
Q 959 1119 1226 758 
Q 1494 397 1959 397 
Q 2419 397 2687 759 
Q 2956 1122 2956 1747 
Q 2956 2369 2687 2733 
Q 2419 3097 1959 3097 
z
M 1959 3584 
Q 2709 3584 3137 3096 
Q 3566 2609 3566 1747 
Q 3566 888 3137 398 
Q 2709 -91 1959 -91 
Q 1206 -91 779 398 
Q 353 888 353 1747 
Q 353 2609 779 3096 
Q 1206 3584 1959 3584 
z
" transform="scale(0.015625)"/>
       <path id="DejaVuSans-65" d="M 3597 1894 
L 3597 1613 
L 953 1613 
Q 991 1019 1311 708 
Q 1631 397 2203 397 
Q 2534 397 2845 478 
Q 3156 559 3463 722 
L 3463 178 
Q 3153 47 2828 -22 
Q 2503 -91 2169 -91 
Q 1331 -91 842 396 
Q 353 884 353 1716 
Q 353 2575 817 3079 
Q 1281 3584 2069 3584 
Q 2775 3584 3186 3129 
Q 3597 2675 3597 1894 
z
M 3022 2063 
Q 3016 2534 2758 2815 
Q 2500 3097 2075 3097 
Q 1594 3097 1305 2825 
Q 1016 2553 972 2059 
L 3022 2063 
z
" transform="scale(0.015625)"/>
      </defs>
      <use xlink:href="#DejaVuSans-62"/>
      <use xlink:href="#DejaVuSans-67" x="63.476562"/>
      <use xlink:href="#DejaVuSans-5f" x="126.953125"/>
      <use xlink:href="#DejaVuSans-6e" x="176.953125"/>
      <use xlink:href="#DejaVuSans-62" x="240.332031"/>
      <use xlink:href="#DejaVuSans-64" x="303.808594"/>
      <use xlink:href="#DejaVuSans-5f" x="367.285156"/>
      <use xlink:href="#DejaVuSans-6d" x="417.285156"/>
      <use xlink:href="#DejaVuSans-6f" x="514.697266"/>
      <use xlink:href="#DejaVuSans-64" x="575.878906"/>
      <use xlink:href="#DejaVuSans-65" x="639.355469"/>
      <use xlink:href="#DejaVuSans-6c" x="700.878906"/>
     </g>
    </g>
    <g id="line2d_22">
     <path d="M 235.04989 80.614688 
L 245.04989 80.614688 
L 255.04989 80.614688 
" style="fill: none; stroke: #348abd; stroke-width: 2; stroke-linecap: square"/>
    </g>
    <g id="text_13">
     <!-- full_model -->
     <g transform="translate(263.04989 84.114688)scale(0.1 -0.1)">
      <defs>
       <path id="DejaVuSans-66" d="M 2375 4863 
L 2375 4384 
L 1825 4384 
Q 1516 4384 1395 4259 
Q 1275 4134 1275 3809 
L 1275 3500 
L 2222 3500 
L 2222 3053 
L 1275 3053 
L 1275 0 
L 697 0 
L 697 3053 
L 147 3053 
L 147 3500 
L 697 3500 
L 697 3744 
Q 697 4328 969 4595 
Q 1241 4863 1831 4863 
L 2375 4863 
z
" transform="scale(0.015625)"/>
       <path id="DejaVuSans-75" d="M 544 1381 
L 544 3500 
L 1119 3500 
L 1119 1403 
Q 1119 906 1312 657 
Q 1506 409 1894 409 
Q 2359 409 2629 706 
Q 2900 1003 2900 1516 
L 2900 3500 
L 3475 3500 
L 3475 0 
L 2900 0 
L 2900 538 
Q 2691 219 2414 64 
Q 2138 -91 1772 -91 
Q 1169 -91 856 284 
Q 544 659 544 1381 
z
M 1991 3584 
L 1991 3584 
z
" transform="scale(0.015625)"/>
      </defs>
      <use xlink:href="#DejaVuSans-66"/>
      <use xlink:href="#DejaVuSans-75" x="35.205078"/>
      <use xlink:href="#DejaVuSans-6c" x="98.583984"/>
      <use xlink:href="#DejaVuSans-6c" x="126.367188"/>
      <use xlink:href="#DejaVuSans-5f" x="154.150391"/>
      <use xlink:href="#DejaVuSans-6d" x="204.150391"/>
      <use xlink:href="#DejaVuSans-6f" x="301.5625"/>
      <use xlink:href="#DejaVuSans-64" x="362.744141"/>
      <use xlink:href="#DejaVuSans-65" x="426.220703"/>
      <use xlink:href="#DejaVuSans-6c" x="487.744141"/>
     </g>
    </g>
   </g>
  </g>
  <g id="axes_2">
   <g id="patch_10">
    <path d="M 377.743732 541.8 
L 476.21432 541.8 
L 476.21432 52.56 
L 377.743732 52.56 
z
" style="fill: #eeeeee"/>
   </g>
   <g id="patch_11">
    <path d="M 377.743732 509.893043 
L 377.743732 435.443478 
L 476.21432 435.443478 
L 476.21432 509.893043 
L 377.743732 509.893043 
z
" clip-path="url(#p596598d045)" style="fill: none; opacity: 0"/>
   </g>
   <g id="patch_12">
    <path d="M 377.743732 435.443478 
L 377.743732 313.133478 
L 476.21432 313.133478 
L 476.21432 435.443478 
z
" clip-path="url(#p596598d045)" style="opacity: 0.1; stroke: #000000; stroke-width: 0.5; stroke-linejoin: miter"/>
   </g>
   <g id="patch_13">
    <path d="M 377.743732 313.133478 
L 377.743732 190.823478 
L 476.21432 190.823478 
L 476.21432 313.133478 
L 377.743732 313.133478 
z
" clip-path="url(#p596598d045)" style="fill: none; opacity: 0"/>
   </g>
   <g id="patch_14">
    <path d="M 377.743732 190.823478 
L 377.743732 84.466957 
L 476.21432 84.466957 
L 476.21432 190.823478 
z
" clip-path="url(#p596598d045)" style="opacity: 0.1; stroke: #000000; stroke-width: 0.5; stroke-linejoin: miter"/>
   </g>
   <g id="matplotlib.axis_3">
    <g id="xtick_7">
     <g id="line2d_23">
      <path d="M 377.743732 541.8 
L 377.743732 52.56 
" clip-path="url(#p596598d045)" style="fill: none; stroke-dasharray: 1.85,0.8; stroke-dashoffset: 0; stroke: #b2b2b2; stroke-width: 0.5"/>
     </g>
     <g id="line2d_24">
      <g>
       <use xlink:href="#mec32f30dd9" x="377.743732" y="541.8" style="stroke: #000000; stroke-width: 0.8"/>
      </g>
     </g>
     <g id="text_14">
      <!-- 0 -->
      <g transform="translate(373.289982 555.937813)scale(0.14 -0.14)">
       <use xlink:href="#DejaVuSans-30"/>
      </g>
     </g>
    </g>
    <g id="xtick_8">
     <g id="line2d_25">
      <path d="M 457.661482 541.8 
L 457.661482 52.56 
" clip-path="url(#p596598d045)" style="fill: none; stroke-dasharray: 1.85,0.8; stroke-dashoffset: 0; stroke: #b2b2b2; stroke-width: 0.5"/>
     </g>
     <g id="line2d_26">
      <g>
       <use xlink:href="#mec32f30dd9" x="457.661482" y="541.8" style="stroke: #000000; stroke-width: 0.8"/>
      </g>
     </g>
     <g id="text_15">
      <!-- 10000 -->
      <g transform="translate(435.392732 555.937813)scale(0.14 -0.14)">
       <use xlink:href="#DejaVuSans-31"/>
       <use xlink:href="#DejaVuSans-30" x="63.623047"/>
       <use xlink:href="#DejaVuSans-30" x="127.246094"/>
       <use xlink:href="#DejaVuSans-30" x="190.869141"/>
       <use xlink:href="#DejaVuSans-30" x="254.492188"/>
      </g>
     </g>
    </g>
   </g>
   <g id="matplotlib.axis_4">
    <g id="ytick_5"/>
    <g id="ytick_6"/>
    <g id="ytick_7"/>
    <g id="ytick_8"/>
   </g>
   <g id="line2d_27">
    <defs>
     <path id="m1267bd2603" d="M 0 3 
C 0.795609 3 1.55874 2.683901 2.12132 2.12132 
C 2.683901 1.55874 3 0.795609 3 0 
C 3 -0.795609 2.683901 -1.55874 2.12132 -2.12132 
C 1.55874 -2.683901 0.795609 -3 0 -3 
C -0.795609 -3 -1.55874 -2.683901 -2.12132 -2.12132 
C -2.683901 -1.55874 -3 -0.795609 -3 0 
C -3 0.795609 -2.683901 1.55874 -2.12132 2.12132 
C -1.55874 2.683901 -0.795609 3 0 3 
z
" style="stroke: #000000"/>
    </defs>
    <g>
     <use xlink:href="#m1267bd2603" x="471.033507" y="509.893043" style="fill: #a60628; stroke: #000000"/>
    </g>
   </g>
   <g id="line2d_28">
    <defs>
     <path id="mc8587e9a49" d="M 0 3 
C 0.795609 3 1.55874 2.683901 2.12132 2.12132 
C 2.683901 1.55874 3 0.795609 3 0 
C 3 -0.795609 2.683901 -1.55874 2.12132 -2.12132 
C 1.55874 -2.683901 0.795609 -3 0 -3 
C -0.795609 -3 -1.55874 -2.683901 -2.12132 -2.12132 
C -2.683901 -1.55874 -3 -0.795609 -3 0 
C -3 0.795609 -2.683901 1.55874 -2.12132 2.12132 
C -1.55874 2.683901 -0.795609 3 0 3 
z
" style="stroke: #000000"/>
    </defs>
    <g>
     <use xlink:href="#mc8587e9a49" x="391.651994" y="483.303913" style="fill: #348abd; stroke: #000000"/>
    </g>
   </g>
   <g id="line2d_29">
    <g>
     <use xlink:href="#m1267bd2603" x="471.578199" y="387.583043" style="fill: #a60628; stroke: #000000"/>
    </g>
   </g>
   <g id="line2d_30">
    <g>
     <use xlink:href="#mc8587e9a49" x="397.452128" y="360.993913" style="fill: #348abd; stroke: #000000"/>
    </g>
   </g>
   <g id="line2d_31">
    <g>
     <use xlink:href="#m1267bd2603" x="444.303047" y="265.273043" style="fill: #a60628; stroke: #000000"/>
    </g>
   </g>
   <g id="line2d_32">
    <g>
     <use xlink:href="#mc8587e9a49" x="378.913125" y="238.683913" style="fill: #348abd; stroke: #000000"/>
    </g>
   </g>
   <g id="line2d_33">
    <g>
     <use xlink:href="#m1267bd2603" x="445.889043" y="142.963043" style="fill: #a60628; stroke: #000000"/>
    </g>
   </g>
   <g id="line2d_34">
    <g>
     <use xlink:href="#mc8587e9a49" x="378.855788" y="116.373913" style="fill: #348abd; stroke: #000000"/>
    </g>
   </g>
   <g id="patch_15">
    <path d="M 377.743732 541.8 
L 476.21432 541.8 
" style="fill: none; stroke: #bcbcbc; stroke-width: 0.8; stroke-linejoin: miter; stroke-linecap: square"/>
   </g>
   <g id="patch_16">
    <path d="M 377.743732 52.56 
L 476.21432 52.56 
" style="fill: none; stroke: #bcbcbc; stroke-width: 0.8; stroke-linejoin: miter; stroke-linecap: square"/>
   </g>
   <g id="text_16">
    <!-- ess -->
    <g transform="translate(413.721526 46.56)scale(0.16 -0.16)">
     <defs>
      <path id="DejaVuSans-73" d="M 2834 3397 
L 2834 2853 
Q 2591 2978 2328 3040 
Q 2066 3103 1784 3103 
Q 1356 3103 1142 2972 
Q 928 2841 928 2578 
Q 928 2378 1081 2264 
Q 1234 2150 1697 2047 
L 1894 2003 
Q 2506 1872 2764 1633 
Q 3022 1394 3022 966 
Q 3022 478 2636 193 
Q 2250 -91 1575 -91 
Q 1294 -91 989 -36 
Q 684 19 347 128 
L 347 722 
Q 666 556 975 473 
Q 1284 391 1588 391 
Q 1994 391 2212 530 
Q 2431 669 2431 922 
Q 2431 1156 2273 1281 
Q 2116 1406 1581 1522 
L 1381 1569 
Q 847 1681 609 1914 
Q 372 2147 372 2553 
Q 372 3047 722 3315 
Q 1072 3584 1716 3584 
Q 2034 3584 2315 3537 
Q 2597 3491 2834 3397 
z
" transform="scale(0.015625)"/>
     </defs>
     <use xlink:href="#DejaVuSans-65"/>
     <use xlink:href="#DejaVuSans-73" x="61.523438"/>
     <use xlink:href="#DejaVuSans-73" x="113.623047"/>
    </g>
   </g>
  </g>
  <g id="axes_3">
   <g id="patch_17">
    <path d="M 509.037849 541.8 
L 607.508438 541.8 
L 607.508438 52.56 
L 509.037849 52.56 
z
" style="fill: #eeeeee"/>
   </g>
   <g id="patch_18">
    <path d="M 509.037849 509.893043 
L 509.037849 435.443478 
L 607.508438 435.443478 
L 607.508438 509.893043 
L 509.037849 509.893043 
z
" clip-path="url(#p6219256fd4)" style="fill: none; opacity: 0"/>
   </g>
   <g id="patch_19">
    <path d="M 509.037849 435.443478 
L 509.037849 313.133478 
L 607.508438 313.133478 
L 607.508438 435.443478 
z
" clip-path="url(#p6219256fd4)" style="opacity: 0.1; stroke: #000000; stroke-width: 0.5; stroke-linejoin: miter"/>
   </g>
   <g id="patch_20">
    <path d="M 509.037849 313.133478 
L 509.037849 190.823478 
L 607.508438 190.823478 
L 607.508438 313.133478 
L 509.037849 313.133478 
z
" clip-path="url(#p6219256fd4)" style="fill: none; opacity: 0"/>
   </g>
   <g id="patch_21">
    <path d="M 509.037849 190.823478 
L 509.037849 84.466957 
L 607.508438 84.466957 
L 607.508438 190.823478 
z
" clip-path="url(#p6219256fd4)" style="opacity: 0.1; stroke: #000000; stroke-width: 0.5; stroke-linejoin: miter"/>
   </g>
   <g id="matplotlib.axis_5">
    <g id="xtick_9">
     <g id="line2d_35">
      <path d="M 517.243732 541.8 
L 517.243732 52.56 
" clip-path="url(#p6219256fd4)" style="fill: none; stroke-dasharray: 1.85,0.8; stroke-dashoffset: 0; stroke: #b2b2b2; stroke-width: 0.5"/>
     </g>
     <g id="line2d_36">
      <g>
       <use xlink:href="#mec32f30dd9" x="517.243732" y="541.8" style="stroke: #000000; stroke-width: 0.8"/>
      </g>
     </g>
     <g id="text_17">
      <!-- 1 -->
      <g transform="translate(512.789982 555.937813)scale(0.14 -0.14)">
       <use xlink:href="#DejaVuSans-31"/>
      </g>
     </g>
    </g>
    <g id="xtick_10">
     <g id="line2d_37">
      <path d="M 599.302555 541.8 
L 599.302555 52.56 
" clip-path="url(#p6219256fd4)" style="fill: none; stroke-dasharray: 1.85,0.8; stroke-dashoffset: 0; stroke: #b2b2b2; stroke-width: 0.5"/>
     </g>
     <g id="line2d_38">
      <g>
       <use xlink:href="#mec32f30dd9" x="599.302555" y="541.8" style="stroke: #000000; stroke-width: 0.8"/>
      </g>
     </g>
     <g id="text_18">
      <!-- 2 -->
      <g transform="translate(594.848805 555.937813)scale(0.14 -0.14)">
       <use xlink:href="#DejaVuSans-32"/>
      </g>
     </g>
    </g>
   </g>
   <g id="matplotlib.axis_6">
    <g id="ytick_9"/>
    <g id="ytick_10"/>
    <g id="ytick_11"/>
    <g id="ytick_12"/>
   </g>
   <g id="line2d_39">
    <g clip-path="url(#p6219256fd4)">
     <use xlink:href="#m1267bd2603" x="517.252827" y="509.893043" style="fill: #a60628; stroke: #000000"/>
    </g>
   </g>
   <g id="line2d_40">
    <g clip-path="url(#p6219256fd4)">
     <use xlink:href="#mc8587e9a49" x="517.250601" y="483.303913" style="fill: #348abd; stroke: #000000"/>
    </g>
   </g>
   <g id="line2d_41">
    <g clip-path="url(#p6219256fd4)">
     <use xlink:href="#m1267bd2603" x="517.251281" y="387.583043" style="fill: #a60628; stroke: #000000"/>
    </g>
   </g>
   <g id="line2d_42">
    <g clip-path="url(#p6219256fd4)">
     <use xlink:href="#mc8587e9a49" x="517.246172" y="360.993913" style="fill: #348abd; stroke: #000000"/>
    </g>
   </g>
   <g id="line2d_43">
    <g clip-path="url(#p6219256fd4)">
     <use xlink:href="#m1267bd2603" x="517.24066" y="265.273043" style="fill: #a60628; stroke: #000000"/>
    </g>
   </g>
   <g id="line2d_44">
    <g clip-path="url(#p6219256fd4)">
     <use xlink:href="#mc8587e9a49" x="518.46637" y="238.683913" style="fill: #348abd; stroke: #000000"/>
    </g>
   </g>
   <g id="line2d_45">
    <g clip-path="url(#p6219256fd4)">
     <use xlink:href="#m1267bd2603" x="517.244572" y="142.963043" style="fill: #a60628; stroke: #000000"/>
    </g>
   </g>
   <g id="line2d_46">
    <g clip-path="url(#p6219256fd4)">
     <use xlink:href="#mc8587e9a49" x="518.38451" y="116.373913" style="fill: #348abd; stroke: #000000"/>
    </g>
   </g>
   <g id="patch_22">
    <path d="M 509.037849 541.8 
L 607.508438 541.8 
" style="fill: none; stroke: #bcbcbc; stroke-width: 0.8; stroke-linejoin: miter; stroke-linecap: square"/>
   </g>
   <g id="patch_23">
    <path d="M 509.037849 52.56 
L 607.508438 52.56 
" style="fill: none; stroke: #bcbcbc; stroke-width: 0.8; stroke-linejoin: miter; stroke-linecap: square"/>
   </g>
   <g id="text_19">
    <!-- r_hat -->
    <g transform="translate(537.875643 46.56)scale(0.16 -0.16)">
     <defs>
      <path id="DejaVuSans-74" d="M 1172 4494 
L 1172 3500 
L 2356 3500 
L 2356 3053 
L 1172 3053 
L 1172 1153 
Q 1172 725 1289 603 
Q 1406 481 1766 481 
L 2356 481 
L 2356 0 
L 1766 0 
Q 1100 0 847 248 
Q 594 497 594 1153 
L 594 3053 
L 172 3053 
L 172 3500 
L 594 3500 
L 594 4494 
L 1172 4494 
z
" transform="scale(0.015625)"/>
     </defs>
     <use xlink:href="#DejaVuSans-72"/>
     <use xlink:href="#DejaVuSans-5f" x="41.113281"/>
     <use xlink:href="#DejaVuSans-68" x="91.113281"/>
     <use xlink:href="#DejaVuSans-61" x="154.492188"/>
     <use xlink:href="#DejaVuSans-74" x="215.771484"/>
    </g>
   </g>
  </g>
  <g id="text_20">
   <!-- Model Comparison -->
   <g transform="translate(245.045938 19.3575)scale(0.16 -0.16)">
    <defs>
     <path id="DejaVuSans-4d" d="M 628 4666 
L 1569 4666 
L 2759 1491 
L 3956 4666 
L 4897 4666 
L 4897 0 
L 4281 0 
L 4281 4097 
L 3078 897 
L 2444 897 
L 1241 4097 
L 1241 0 
L 628 0 
L 628 4666 
z
" transform="scale(0.015625)"/>
     <path id="DejaVuSans-43" d="M 4122 4306 
L 4122 3641 
Q 3803 3938 3442 4084 
Q 3081 4231 2675 4231 
Q 1875 4231 1450 3742 
Q 1025 3253 1025 2328 
Q 1025 1406 1450 917 
Q 1875 428 2675 428 
Q 3081 428 3442 575 
Q 3803 722 4122 1019 
L 4122 359 
Q 3791 134 3420 21 
Q 3050 -91 2638 -91 
Q 1578 -91 968 557 
Q 359 1206 359 2328 
Q 359 3453 968 4101 
Q 1578 4750 2638 4750 
Q 3056 4750 3426 4639 
Q 3797 4528 4122 4306 
z
" transform="scale(0.015625)"/>
     <path id="DejaVuSans-69" d="M 603 3500 
L 1178 3500 
L 1178 0 
L 603 0 
L 603 3500 
z
M 603 4863 
L 1178 4863 
L 1178 4134 
L 603 4134 
L 603 4863 
z
" transform="scale(0.015625)"/>
    </defs>
    <use xlink:href="#DejaVuSans-4d"/>
    <use xlink:href="#DejaVuSans-6f" x="86.279297"/>
    <use xlink:href="#DejaVuSans-64" x="147.460938"/>
    <use xlink:href="#DejaVuSans-65" x="210.9375"/>
    <use xlink:href="#DejaVuSans-6c" x="272.460938"/>
    <use xlink:href="#DejaVuSans-20" x="300.244141"/>
    <use xlink:href="#DejaVuSans-43" x="332.03125"/>
    <use xlink:href="#DejaVuSans-6f" x="401.855469"/>
    <use xlink:href="#DejaVuSans-6d" x="463.037109"/>
    <use xlink:href="#DejaVuSans-70" x="560.449219"/>
    <use xlink:href="#DejaVuSans-61" x="623.925781"/>
    <use xlink:href="#DejaVuSans-72" x="685.205078"/>
    <use xlink:href="#DejaVuSans-69" x="726.318359"/>
    <use xlink:href="#DejaVuSans-73" x="754.101562"/>
    <use xlink:href="#DejaVuSans-6f" x="806.201172"/>
    <use xlink:href="#DejaVuSans-6e" x="867.382812"/>
   </g>
  </g>
 </g>
 <defs>
  <clipPath id="p1d3b279fc3">
   <rect x="49.508438" y="52.56" width="295.411765" height="489.24"/>
  </clipPath>
  <clipPath id="p596598d045">
   <rect x="377.743732" y="52.56" width="98.470588" height="489.24"/>
  </clipPath>
  <clipPath id="p6219256fd4">
   <rect x="509.037849" y="52.56" width="98.470588" height="489.24"/>
  </clipPath>
 </defs>
</svg>
