<?xml version="1.0" encoding="UTF-8" standalone="no"?>
<!DOCTYPE svg PUBLIC "-//W3C//DTD SVG 1.1//EN"
 "http://www.w3.org/Graphics/SVG/1.1/DTD/svg11.dtd">
<!-- Generated by graphviz version 14.1.2 (0)
 -->
<!-- Pages: 1 -->
<svg width="306pt" height="116pt"
 viewBox="0.00 0.00 306.00 116.00" xmlns="http://www.w3.org/2000/svg" xmlns:xlink="http://www.w3.org/1999/xlink">
<g id="graph0" class="graph" transform="scale(1 1) rotate(0) translate(4 112)">
<polygon fill="white" stroke="none" points="-4,4 -4,-112 301.73,-112 301.73,4 -4,4"/>
<!-- seasonality -->
<g id="node1" class="node">
<title>seasonality</title>
<ellipse fill="lightgray" stroke="lightgray" cx="51.86" cy="-90" rx="51.86" ry="18"/>
<text xml:space="preserve" text-anchor="middle" x="51.86" y="-84.95" font-family="Times,serif" font-size="14.00">seasonality</text>
</g>
<!-- budget_next -->
<g id="node4" class="node">
<title>budget_next</title>
<ellipse fill="#328c06" fill-opacity="0.501961" stroke="#328c06" stroke-opacity="0.501961" cx="148.86" cy="-18" rx="56.47" ry="18"/>
<text xml:space="preserve" text-anchor="middle" x="148.86" y="-12.95" font-family="Times,serif" font-size="14.00">budget_next</text>
</g>
<!-- seasonality&#45;&gt;budget_next -->
<g id="edge1" class="edge">
<title>seasonality&#45;&gt;budget_next</title>
<path fill="none" stroke="black" d="M73.39,-73.46C86.39,-64.08 103.19,-51.96 117.63,-41.54"/>
<polygon fill="black" stroke="black" points="119.44,-44.55 125.5,-35.86 115.34,-38.88 119.44,-44.55"/>
</g>
<!-- roas -->
<g id="node2" class="node">
<title>roas</title>
<ellipse fill="#2a2eec" fill-opacity="0.501961" stroke="#2a2eec" stroke-opacity="0.501961" cx="148.86" cy="-90" rx="27" ry="18"/>
<text xml:space="preserve" text-anchor="middle" x="148.86" y="-84.95" font-family="Times,serif" font-size="14.00">roas</text>
</g>
<!-- roas&#45;&gt;budget_next -->
<g id="edge3" class="edge">
<title>roas&#45;&gt;budget_next</title>
<path fill="none" stroke="black" d="M148.86,-71.7C148.86,-64.41 148.86,-55.73 148.86,-47.54"/>
<polygon fill="black" stroke="black" points="152.36,-47.62 148.86,-37.62 145.36,-47.62 152.36,-47.62"/>
</g>
<!-- cohort_age -->
<g id="node3" class="node">
<title>cohort_age</title>
<ellipse fill="#fa7c17" fill-opacity="0.501961" stroke="#fa7c17" stroke-opacity="0.501961" cx="245.86" cy="-90" rx="51.86" ry="18"/>
<text xml:space="preserve" text-anchor="middle" x="245.86" y="-84.95" font-family="Times,serif" font-size="14.00">cohort_age</text>
</g>
<!-- cohort_age&#45;&gt;budget_next -->
<g id="edge2" class="edge">
<title>cohort_age&#45;&gt;budget_next</title>
<path fill="none" stroke="black" d="M224.34,-73.46C211.33,-64.08 194.54,-51.96 180.09,-41.54"/>
<polygon fill="black" stroke="black" points="182.39,-38.88 172.23,-35.86 178.29,-44.55 182.39,-38.88"/>
</g>
</g>
</svg>
