<?xml version="1.0" encoding="UTF-8" standalone="no"?>
<!DOCTYPE svg PUBLIC "-//W3C//DTD SVG 1.1//EN"
 "http://www.w3.org/Graphics/SVG/1.1/DTD/svg11.dtd">
<!-- Generated by graphviz version 9.0.0 (20230911.1827)
 -->
<!-- Pages: 1 -->
<svg width="295pt" height="250pt"
 viewBox="0.00 0.00 294.56 250.00" xmlns="http://www.w3.org/2000/svg" xmlns:xlink="http://www.w3.org/1999/xlink">
<g id="graph0" class="graph" transform="scale(1 1) rotate(0) translate(4 246)">
<polygon fill="white" stroke="none" points="-4,4 -4,-246 290.56,-246 290.56,4 -4,4"/>
<g id="clust1" class="cluster">
<title>cluster_data</title>
<polygon fill="none" stroke="black" points="16.44,-8 16.44,-84.5 128.44,-84.5 128.44,-8 16.44,-8"/>
<text text-anchor="middle" x="109.19" y="-15.2" font-family="Times,serif" font-size="14.00">data</text>
</g>
<!-- mu -->
<g id="node1" class="node">
<title>mu</title>
<ellipse fill="white" stroke="black" stroke-dasharray="5,2" cx="111.44" cy="-130.5" rx="27" ry="18"/>
<text text-anchor="middle" x="111.44" y="-125.45" font-family="Times,serif" font-size="14.00">mu</text>
</g>
<!-- likelihood -->
<g id="node5" class="node">
<title>likelihood</title>
<ellipse fill="grey" stroke="black" cx="72.44" cy="-58.5" rx="48.28" ry="18"/>
<text text-anchor="middle" x="72.44" y="-53.45" font-family="Times,serif" font-size="14.00">likelihood</text>
</g>
<!-- mu&#45;&gt;likelihood -->
<g id="edge1" class="edge">
<title>mu&#45;&gt;likelihood</title>
<path fill="none" stroke="black" d="M102.39,-113.26C97.95,-105.28 92.47,-95.45 87.42,-86.39"/>
<polygon fill="black" stroke="black" points="90.64,-84.98 82.72,-77.95 84.52,-88.39 90.64,-84.98"/>
</g>
<!-- sigma -->
<g id="node2" class="node">
<title>sigma</title>
<ellipse fill="white" stroke="black" stroke-dasharray="5,2" cx="33.44" cy="-130.5" rx="33.44" ry="18"/>
<text text-anchor="middle" x="33.44" y="-125.45" font-family="Times,serif" font-size="14.00">sigma</text>
</g>
<!-- sigma&#45;&gt;likelihood -->
<g id="edge2" class="edge">
<title>sigma&#45;&gt;likelihood</title>
<path fill="none" stroke="black" d="M42.68,-112.91C47.08,-105.01 52.46,-95.35 57.43,-86.44"/>
<polygon fill="black" stroke="black" points="60.44,-88.22 62.25,-77.78 54.33,-84.81 60.44,-88.22"/>
</g>
<!-- sigma_nn$params -->
<g id="node3" class="node">
<title>sigma_nn$params</title>
<polygon fill="white" stroke="none" points="60.06,-221.5 6.81,-221.5 6.81,-205 60.06,-205 60.06,-221.5"/>
<text text-anchor="middle" x="33.44" y="-208.2" font-family="Times,serif" font-size="14.00">sigma_nn</text>
</g>
<!-- sigma_nn$params&#45;&gt;sigma -->
<g id="edge4" class="edge">
<title>sigma_nn$params&#45;&gt;sigma</title>
<path fill="none" stroke="black" d="M33.44,-205.08C33.44,-195.02 33.44,-176.13 33.44,-160"/>
<polygon fill="black" stroke="black" points="36.94,-160.43 33.44,-150.43 29.94,-160.43 36.94,-160.43"/>
</g>
<!-- mu_nn$params -->
<g id="node4" class="node">
<title>mu_nn$params</title>
<polygon fill="white" stroke="none" points="130.56,-221.5 92.31,-221.5 92.31,-205 130.56,-205 130.56,-221.5"/>
<text text-anchor="middle" x="111.44" y="-208.2" font-family="Times,serif" font-size="14.00">mu_nn</text>
</g>
<!-- mu_nn$params&#45;&gt;mu -->
<g id="edge3" class="edge">
<title>mu_nn$params&#45;&gt;mu</title>
<path fill="none" stroke="black" d="M111.44,-205.08C111.44,-195.02 111.44,-176.13 111.44,-160"/>
<polygon fill="black" stroke="black" points="114.94,-160.43 111.44,-150.43 107.94,-160.43 114.94,-160.43"/>
</g>
<!-- distribution_description_node -->
<g id="node6" class="node">
<title>distribution_description_node</title>
<text text-anchor="start" x="156.31" y="-224.7" font-family="Times,serif" font-size="14.00">mu ~ Deterministic</text>
<text text-anchor="start" x="156.31" y="-208.2" font-family="Times,serif" font-size="14.00">sigma ~ Deterministic</text>
<text text-anchor="start" x="156.31" y="-191.7" font-family="Times,serif" font-size="14.00">likelihood ~ Normal</text>
</g>
</g>
</svg>
