<?xml version="1.0" encoding="UTF-8" standalone="no"?>
<!DOCTYPE svg PUBLIC "-//W3C//DTD SVG 1.1//EN"
 "http://www.w3.org/Graphics/SVG/1.1/DTD/svg11.dtd">
<!-- Generated by graphviz version 15.1.0 (20260618.0150)
 -->
<!-- Pages: 1 -->
<svg width="1788pt" height="684pt"
 viewBox="0.00 0.00 1788.00 684.00" xmlns="http://www.w3.org/2000/svg" xmlns:xlink="http://www.w3.org/1999/xlink">
<g id="graph0" class="graph" transform="scale(1 1) rotate(0) translate(4 679.5)">
<polygon fill="white" stroke="none" points="-4,4 -4,-679.5 1784.48,-679.5 1784.48,4 -4,4"/>
<g id="clust1" class="cluster">
<title>cluster_covariate</title>
<polygon fill="none" stroke="black" points="1390.13,-44 1390.13,-317.5 1670.13,-317.5 1670.13,-44 1390.13,-44"/>
<text xml:space="preserve" text-anchor="middle" x="1637.38" y="-51.2" font-family="Times,serif" font-size="14.00">covariate</text>
</g>
<g id="clust2" class="cluster">
<title>cluster_store</title>
<polygon fill="none" stroke="black" points="1398.13,-233 1398.13,-309.5 1662.13,-309.5 1662.13,-233 1398.13,-233"/>
<text xml:space="preserve" text-anchor="middle" x="1641.01" y="-240.2" font-family="Times,serif" font-size="14.00">store</text>
</g>
<g id="clust3" class="cluster">
<title>cluster_series</title>
<polygon fill="none" stroke="black" points="1525.13,-76.5 1525.13,-225 1661.13,-225 1661.13,-76.5 1525.13,-76.5"/>
<text xml:space="preserve" text-anchor="middle" x="1637.76" y="-83.7" font-family="Times,serif" font-size="14.00">series</text>
</g>
<g id="clust4" class="cluster">
<title>cluster_series__CLONE</title>
<polygon fill="none" stroke="black" points="301.13,-44 301.13,-309.5 1247.13,-309.5 1247.13,-44 301.13,-44"/>
<text xml:space="preserve" text-anchor="middle" x="1223.76" y="-51.2" font-family="Times,serif" font-size="14.00">series</text>
</g>
<g id="clust5" class="cluster">
<title>cluster_time</title>
<polygon fill="none" stroke="black" points="1081.13,-76.5 1081.13,-225 1239.13,-225 1239.13,-76.5 1081.13,-76.5"/>
<text xml:space="preserve" text-anchor="middle" x="1218.76" y="-83.7" font-family="Times,serif" font-size="14.00">time</text>
</g>
<!-- centered_drift -->
<g id="node1" class="node">
<title>centered_drift</title>
<ellipse fill="white" stroke="black" cx="1319.13" cy="-283.5" rx="62.61" ry="18"/>
<text xml:space="preserve" text-anchor="middle" x="1319.13" y="-278.45" font-family="Times,serif" font-size="14.00">centered_drift</text>
</g>
<!-- drift_decentered -->
<g id="node19" class="node">
<title>drift_decentered</title>
<ellipse fill="white" stroke="black" cx="1160.13" cy="-199" rx="71.31" ry="18"/>
<text xml:space="preserve" text-anchor="middle" x="1160.13" y="-193.95" font-family="Times,serif" font-size="14.00">drift_decentered</text>
</g>
<!-- centered_drift&#45;&gt;drift_decentered -->
<g id="edge9" class="edge">
<title>centered_drift&#45;&gt;drift_decentered</title>
<path fill="none" stroke="black" d="M1299.58,-265.98C1286.5,-255.51 1268.54,-242.25 1251.13,-233 1239.88,-227.02 1227.32,-221.69 1215.2,-217.15"/>
<polygon fill="black" stroke="black" points="1216.73,-213.98 1206.14,-213.88 1214.36,-220.56 1216.73,-213.98"/>
</g>
<!-- drift -->
<g id="node20" class="node">
<title>drift</title>
<ellipse fill="white" stroke="black" stroke-dasharray="5,2" cx="1138.13" cy="-127" rx="27" ry="18"/>
<text xml:space="preserve" text-anchor="middle" x="1138.13" y="-121.95" font-family="Times,serif" font-size="14.00">drift</text>
</g>
<!-- centered_drift&#45;&gt;drift -->
<g id="edge11" class="edge">
<title>centered_drift&#45;&gt;drift</title>
<path fill="none" stroke="black" d="M1309.2,-265.58C1295.76,-243.82 1269.99,-205.86 1240.13,-181 1219.63,-163.93 1192.72,-150.23 1171.69,-141.04"/>
<polygon fill="black" stroke="black" points="1173.26,-137.91 1162.69,-137.24 1170.54,-144.36 1173.26,-137.91"/>
</g>
<!-- centered_b -->
<g id="node2" class="node">
<title>centered_b</title>
<ellipse fill="white" stroke="black" cx="1729.13" cy="-283.5" rx="51.35" ry="18"/>
<text xml:space="preserve" text-anchor="middle" x="1729.13" y="-278.45" font-family="Times,serif" font-size="14.00">centered_b</text>
</g>
<!-- b_decentered -->
<g id="node8" class="node">
<title>b_decentered</title>
<ellipse fill="white" stroke="black" cx="1593.13" cy="-199" rx="60.05" ry="18"/>
<text xml:space="preserve" text-anchor="middle" x="1593.13" y="-193.95" font-family="Times,serif" font-size="14.00">b_decentered</text>
</g>
<!-- centered_b&#45;&gt;b_decentered -->
<g id="edge2" class="edge">
<title>centered_b&#45;&gt;b_decentered</title>
<path fill="none" stroke="black" d="M1710.97,-266.31C1698.83,-255.97 1682.19,-242.74 1666.13,-233 1657.58,-227.81 1648.07,-222.93 1638.81,-218.6"/>
<polygon fill="black" stroke="black" points="1640.47,-215.51 1629.92,-214.58 1637.59,-221.89 1640.47,-215.51"/>
</g>
<!-- b -->
<g id="node9" class="node">
<title>b</title>
<ellipse fill="white" stroke="black" stroke-dasharray="5,2" cx="1560.13" cy="-127" rx="27" ry="18"/>
<text xml:space="preserve" text-anchor="middle" x="1560.13" y="-121.95" font-family="Times,serif" font-size="14.00">b</text>
</g>
<!-- centered_b&#45;&gt;b -->
<g id="edge5" class="edge">
<title>centered_b&#45;&gt;b</title>
<path fill="none" stroke="black" d="M1721.31,-265.5C1710.57,-243.64 1689.43,-205.59 1662.13,-181 1642.31,-163.14 1615.37,-149.48 1594.16,-140.5"/>
<polygon fill="black" stroke="black" points="1595.64,-137.33 1585.05,-136.81 1593,-143.81 1595.64,-137.33"/>
</g>
<!-- seasonal_scale -->
<g id="node3" class="node">
<title>seasonal_scale</title>
<ellipse fill="white" stroke="black" cx="495.13" cy="-506.5" rx="65.17" ry="18"/>
<text xml:space="preserve" text-anchor="middle" x="495.13" y="-501.45" font-family="Times,serif" font-size="14.00">seasonal_scale</text>
</g>
<!-- seasonal -->
<g id="node18" class="node">
<title>seasonal</title>
<ellipse fill="white" stroke="black" cx="495.13" cy="-283.5" rx="42.14" ry="18"/>
<text xml:space="preserve" text-anchor="middle" x="495.13" y="-278.45" font-family="Times,serif" font-size="14.00">seasonal</text>
</g>
<!-- seasonal_scale&#45;&gt;seasonal -->
<g id="edge1" class="edge">
<title>seasonal_scale&#45;&gt;seasonal</title>
<path fill="none" stroke="black" d="M495.13,-488.16C495.13,-450.23 495.13,-359.61 495.13,-313.1"/>
<polygon fill="black" stroke="black" points="498.63,-313.27 495.13,-303.27 491.63,-313.27 498.63,-313.27"/>
</g>
<!-- slope -->
<g id="node4" class="node">
<title>slope</title>
<ellipse fill="white" stroke="black" cx="263.13" cy="-199" rx="30.37" ry="18"/>
<text xml:space="preserve" text-anchor="middle" x="263.13" y="-193.95" font-family="Times,serif" font-size="14.00">slope</text>
</g>
<!-- obs -->
<g id="node5" class="node">
<title>obs</title>
<ellipse fill="grey" stroke="black" cx="205.13" cy="-18" rx="27" ry="18"/>
<text xml:space="preserve" text-anchor="middle" x="205.13" y="-12.95" font-family="Times,serif" font-size="14.00">obs</text>
</g>
<!-- slope&#45;&gt;obs -->
<g id="edge26" class="edge">
<title>slope&#45;&gt;obs</title>
<path fill="none" stroke="black" d="M259.62,-180.93C253.76,-153.8 240.81,-99.16 219.17,-45.49"/>
<polygon fill="black" stroke="black" points="222.52,-44.43 215.46,-36.53 216.05,-47.11 222.52,-44.43"/>
</g>
<!-- b_loc_store -->
<g id="node6" class="node">
<title>b_loc_store</title>
<ellipse fill="white" stroke="black" cx="1460.13" cy="-283.5" rx="53.91" ry="18"/>
<text xml:space="preserve" text-anchor="middle" x="1460.13" y="-278.45" font-family="Times,serif" font-size="14.00">b_loc_store</text>
</g>
<!-- b_loc_store&#45;&gt;b_decentered -->
<g id="edge3" class="edge">
<title>b_loc_store&#45;&gt;b_decentered</title>
<path fill="none" stroke="black" d="M1478.61,-266.16C1490.75,-255.9 1507.27,-242.79 1523.13,-233 1531.27,-227.98 1540.29,-223.2 1549.07,-218.91"/>
<polygon fill="black" stroke="black" points="1550.29,-222.21 1557.84,-214.77 1547.3,-215.88 1550.29,-222.21"/>
</g>
<!-- b_loc_store&#45;&gt;b -->
<g id="edge6" class="edge">
<title>b_loc_store&#45;&gt;b</title>
<path fill="none" stroke="black" d="M1468.07,-265.35C1477.95,-244.65 1495.89,-209.12 1515.13,-181 1522.19,-170.69 1530.89,-160.05 1538.76,-151.04"/>
<polygon fill="black" stroke="black" points="1541.2,-153.56 1545.25,-143.77 1535.98,-148.9 1541.2,-153.56"/>
</g>
<!-- b_scale_store -->
<g id="node7" class="node">
<title>b_scale_store</title>
<ellipse fill="white" stroke="black" cx="1593.13" cy="-283.5" rx="61.08" ry="18"/>
<text xml:space="preserve" text-anchor="middle" x="1593.13" y="-278.45" font-family="Times,serif" font-size="14.00">b_scale_store</text>
</g>
<!-- b_scale_store&#45;&gt;b_decentered -->
<g id="edge4" class="edge">
<title>b_scale_store&#45;&gt;b_decentered</title>
<path fill="none" stroke="black" d="M1593.13,-265C1593.13,-254.5 1593.13,-240.89 1593.13,-228.83"/>
<polygon fill="black" stroke="black" points="1596.63,-228.98 1593.13,-218.98 1589.63,-228.98 1596.63,-228.98"/>
</g>
<!-- b_scale_store&#45;&gt;b -->
<g id="edge7" class="edge">
<title>b_scale_store&#45;&gt;b</title>
<path fill="none" stroke="black" d="M1564.98,-267.31C1549.85,-257.45 1532.6,-243.08 1524.13,-225 1515.84,-207.29 1518.38,-199.69 1524.13,-181 1527.31,-170.65 1533.28,-160.51 1539.46,-151.91"/>
<polygon fill="black" stroke="black" points="1542.12,-154.19 1545.46,-144.13 1536.58,-149.91 1542.12,-154.19"/>
</g>
<!-- b_decentered&#45;&gt;b -->
<g id="edge8" class="edge">
<title>b_decentered&#45;&gt;b</title>
<path fill="none" stroke="black" d="M1584.97,-180.7C1581.32,-172.95 1576.93,-163.64 1572.87,-155.02"/>
<polygon fill="black" stroke="black" points="1576.04,-153.54 1568.61,-145.99 1569.71,-156.53 1576.04,-153.54"/>
</g>
<!-- b&#45;&gt;obs -->
<g id="edge24" class="edge">
<title>b&#45;&gt;obs</title>
<path fill="none" stroke="black" d="M1536.65,-117.94C1484.57,-100.51 1355.17,-59.63 1243.13,-44 1044.57,-16.3 407.42,-17.86 243.75,-18.75"/>
<polygon fill="black" stroke="black" points="243.86,-15.25 233.88,-18.8 243.9,-22.25 243.86,-15.25"/>
</g>
<!-- drift_scale -->
<g id="node10" class="node">
<title>drift_scale</title>
<ellipse fill="white" stroke="black" cx="1189.13" cy="-283.5" rx="49.82" ry="18"/>
<text xml:space="preserve" text-anchor="middle" x="1189.13" y="-278.45" font-family="Times,serif" font-size="14.00">drift_scale</text>
</g>
<!-- drift_scale&#45;&gt;drift_decentered -->
<g id="edge10" class="edge">
<title>drift_scale&#45;&gt;drift_decentered</title>
<path fill="none" stroke="black" d="M1183.12,-265.41C1179.34,-254.64 1174.36,-240.48 1170,-228.09"/>
<polygon fill="black" stroke="black" points="1173.35,-227.06 1166.73,-218.78 1166.75,-229.38 1173.35,-227.06"/>
</g>
<!-- drift_scale&#45;&gt;drift -->
<g id="edge12" class="edge">
<title>drift_scale&#45;&gt;drift</title>
<path fill="none" stroke="black" d="M1174.26,-266.01C1163.21,-254.85 1147.16,-240.78 1130.13,-233 1109.66,-223.65 1094.73,-242.12 1080.13,-225 1067.44,-210.12 1072.24,-198.89 1080.13,-181 1086.24,-167.15 1097.94,-155.35 1109.25,-146.43"/>
<polygon fill="black" stroke="black" points="1111.31,-149.26 1117.3,-140.52 1107.16,-143.62 1111.31,-149.26"/>
</g>
<!-- phi_trend -->
<g id="node11" class="node">
<title>phi_trend</title>
<ellipse fill="white" stroke="black" cx="881.13" cy="-283.5" rx="46.23" ry="18"/>
<text xml:space="preserve" text-anchor="middle" x="881.13" y="-278.45" font-family="Times,serif" font-size="14.00">phi_trend</text>
</g>
<!-- phi_trend&#45;&gt;slope -->
<g id="edge14" class="edge">
<title>phi_trend&#45;&gt;slope</title>
<path fill="none" stroke="black" d="M868.23,-265.76C858.18,-254.17 843.11,-239.66 826.13,-233 771.41,-211.53 352.85,-243.75 297.13,-225 294.17,-224 291.26,-222.65 288.45,-221.08"/>
<polygon fill="black" stroke="black" points="290.43,-218.19 280.16,-215.56 286.55,-224.02 290.43,-218.19"/>
</g>
<!-- phi_trend&#45;&gt;obs -->
<g id="edge16" class="edge">
<title>phi_trend&#45;&gt;obs</title>
<path fill="none" stroke="black" d="M868.23,-265.75C858.18,-254.15 843.12,-239.65 826.13,-233 810.56,-226.9 236.41,-236.35 224.13,-225 198.97,-201.75 200.76,-98.75 203.3,-47.78"/>
<polygon fill="black" stroke="black" points="206.8,-47.99 203.85,-37.82 199.81,-47.61 206.8,-47.99"/>
</g>
<!-- tau_trend -->
<g id="node12" class="node">
<title>tau_trend</title>
<ellipse fill="white" stroke="black" cx="991.13" cy="-283.5" rx="45.72" ry="18"/>
<text xml:space="preserve" text-anchor="middle" x="991.13" y="-278.45" font-family="Times,serif" font-size="14.00">tau_trend</text>
</g>
<!-- tau_trend&#45;&gt;slope -->
<g id="edge15" class="edge">
<title>tau_trend&#45;&gt;slope</title>
<path fill="none" stroke="black" d="M978.23,-265.75C968.18,-254.15 953.12,-239.64 936.13,-233 903.07,-220.07 330.79,-236.28 297.13,-225 294.17,-224.01 291.26,-222.66 288.45,-221.09"/>
<polygon fill="black" stroke="black" points="290.43,-218.2 280.16,-215.57 286.55,-224.03 290.43,-218.2"/>
</g>
<!-- tau_trend&#45;&gt;obs -->
<g id="edge17" class="edge">
<title>tau_trend&#45;&gt;obs</title>
<path fill="none" stroke="black" d="M978.06,-266.17C967.92,-254.78 952.82,-240.36 936.13,-233 902.62,-218.24 890,-232.36 854.13,-225 612.38,-175.41 333.32,-69.71 238.57,-32.39"/>
<polygon fill="black" stroke="black" points="239.94,-29.16 229.35,-28.74 237.36,-35.67 239.94,-29.16"/>
</g>
<!-- init_level -->
<g id="node13" class="node">
<title>init_level</title>
<ellipse fill="white" stroke="black" cx="601.13" cy="-283.5" rx="45.72" ry="18"/>
<text xml:space="preserve" text-anchor="middle" x="601.13" y="-278.45" font-family="Times,serif" font-size="14.00">init_level</text>
</g>
<!-- init_level&#45;&gt;obs -->
<g id="edge18" class="edge">
<title>init_level&#45;&gt;obs</title>
<path fill="none" stroke="black" d="M588.22,-265.78C578.17,-254.19 563.1,-239.69 546.13,-233 523.85,-224.21 131.91,-242.09 115.13,-225 58.78,-167.59 66.45,-108.04 115.13,-44 127.08,-28.28 148.01,-21.86 166.69,-19.45"/>
<polygon fill="black" stroke="black" points="166.78,-22.95 176.42,-18.55 166.14,-15.98 166.78,-22.95"/>
</g>
<!-- b_avail -->
<g id="node14" class="node">
<title>b_avail</title>
<ellipse fill="white" stroke="black" cx="703.13" cy="-283.5" rx="38.04" ry="18"/>
<text xml:space="preserve" text-anchor="middle" x="703.13" y="-278.45" font-family="Times,serif" font-size="14.00">b_avail</text>
</g>
<!-- b_avail&#45;&gt;obs -->
<g id="edge19" class="edge">
<title>b_avail&#45;&gt;obs</title>
<path fill="none" stroke="black" d="M692.64,-265.82C684.32,-254.25 671.54,-239.76 656.13,-233 643.34,-227.38 162.93,-234.96 153.13,-225 96.7,-167.67 110.31,-112.1 153.13,-44 157.02,-37.82 162.9,-33.14 169.33,-29.59"/>
<polygon fill="black" stroke="black" points="170.63,-32.85 178.3,-25.54 167.74,-26.47 170.63,-32.85"/>
</g>
<!-- floor -->
<g id="node15" class="node">
<title>floor</title>
<ellipse fill="white" stroke="black" cx="788.13" cy="-283.5" rx="28.83" ry="18"/>
<text xml:space="preserve" text-anchor="middle" x="788.13" y="-278.45" font-family="Times,serif" font-size="14.00">floor</text>
</g>
<!-- floor&#45;&gt;obs -->
<g id="edge20" class="edge">
<title>floor&#45;&gt;obs</title>
<path fill="none" stroke="black" d="M780.42,-265.9C774.07,-254.38 763.88,-239.9 750.13,-233 736.25,-226.03 202.03,-236.06 191.13,-225 137.08,-170.17 167.88,-125.8 191.54,-45.88"/>
<polygon fill="black" stroke="black" points="194.88,-46.93 194.26,-36.35 188.15,-45.01 194.88,-46.93"/>
</g>
<!-- sigma -->
<g id="node16" class="node">
<title>sigma</title>
<ellipse fill="white" stroke="black" cx="1088.13" cy="-283.5" rx="33.44" ry="18"/>
<text xml:space="preserve" text-anchor="middle" x="1088.13" y="-278.45" font-family="Times,serif" font-size="14.00">sigma</text>
</g>
<!-- sigma&#45;&gt;obs -->
<g id="edge21" class="edge">
<title>sigma&#45;&gt;obs</title>
<path fill="none" stroke="black" d="M1077.87,-266.09C1070.32,-255.25 1059.13,-241.54 1046.13,-233 804.63,-74.4 707.05,-102.63 424.13,-44 361.66,-31.05 287.68,-24.37 243.67,-21.28"/>
<polygon fill="black" stroke="black" points="244.08,-17.8 233.86,-20.62 243.61,-24.78 244.08,-17.8"/>
</g>
<!-- noise_loading -->
<g id="node17" class="node">
<title>noise_loading</title>
<ellipse fill="white" stroke="black" cx="372.13" cy="-283.5" rx="62.61" ry="18"/>
<text xml:space="preserve" text-anchor="middle" x="372.13" y="-278.45" font-family="Times,serif" font-size="14.00">noise_loading</text>
</g>
<!-- noise_loading&#45;&gt;obs -->
<g id="edge22" class="edge">
<title>noise_loading&#45;&gt;obs</title>
<path fill="none" stroke="black" d="M309.78,-280.95C223.12,-277.34 73.05,-265.28 39.13,-225 -12.69,-163.47 -13.35,-104.97 39.13,-44 55.24,-25.28 122.76,-20.39 166.57,-19.22"/>
<polygon fill="black" stroke="black" points="166.53,-22.72 176.45,-19.02 166.38,-15.73 166.53,-22.72"/>
</g>
<!-- seasonal&#45;&gt;obs -->
<g id="edge23" class="edge">
<title>seasonal&#45;&gt;obs</title>
<path fill="none" stroke="black" d="M483.41,-265.82C474.22,-254.25 460.3,-239.76 444.13,-233 425.32,-225.13 91.39,-239.58 77.13,-225 20.87,-167.5 25.99,-106.1 77.13,-44 88.33,-30.4 133.23,-24.09 166.71,-21.24"/>
<polygon fill="black" stroke="black" points="166.79,-24.75 176.49,-20.49 166.25,-17.77 166.79,-24.75"/>
</g>
<!-- drift_decentered&#45;&gt;drift -->
<g id="edge13" class="edge">
<title>drift_decentered&#45;&gt;drift</title>
<path fill="none" stroke="black" d="M1154.69,-180.7C1152.35,-173.24 1149.55,-164.32 1146.92,-155.97"/>
<polygon fill="black" stroke="black" points="1150.3,-155.04 1143.96,-146.55 1143.62,-157.14 1150.3,-155.04"/>
</g>
<!-- drift&#45;&gt;obs -->
<g id="edge25" class="edge">
<title>drift&#45;&gt;obs</title>
<path fill="none" stroke="black" d="M1137.04,-108.85C1134.8,-89.51 1127.96,-58.83 1107.13,-44 1071.51,-18.65 411.88,-18.5 243.83,-18.88"/>
<polygon fill="black" stroke="black" points="243.88,-15.38 233.89,-18.9 243.9,-22.38 243.88,-15.38"/>
</g>
<!-- distribution_description_node -->
<g id="node21" class="node">
<title>distribution_description_node</title>
<text xml:space="preserve" text-anchor="start" x="585.88" y="-658.2" font-family="Times,serif" font-size="14.00">centered_drift ~ Uniform</text>
<text xml:space="preserve" text-anchor="start" x="585.88" y="-641.7" font-family="Times,serif" font-size="14.00">centered_b ~ Uniform</text>
<text xml:space="preserve" text-anchor="start" x="585.88" y="-625.2" font-family="Times,serif" font-size="14.00">seasonal_scale ~ HalfNormal</text>
<text xml:space="preserve" text-anchor="start" x="585.88" y="-608.7" font-family="Times,serif" font-size="14.00">b_loc_store ~ Normal</text>
<text xml:space="preserve" text-anchor="start" x="585.88" y="-592.2" font-family="Times,serif" font-size="14.00">b_scale_store ~ HalfNormal</text>
<text xml:space="preserve" text-anchor="start" x="585.88" y="-575.7" font-family="Times,serif" font-size="14.00">drift_scale ~ LogNormal</text>
<text xml:space="preserve" text-anchor="start" x="585.88" y="-559.2" font-family="Times,serif" font-size="14.00">phi_trend ~ Beta</text>
<text xml:space="preserve" text-anchor="start" x="585.88" y="-542.7" font-family="Times,serif" font-size="14.00">tau_trend ~ LogNormal</text>
<text xml:space="preserve" text-anchor="start" x="585.88" y="-526.2" font-family="Times,serif" font-size="14.00">init_level ~ Normal</text>
<text xml:space="preserve" text-anchor="start" x="585.88" y="-509.7" font-family="Times,serif" font-size="14.00">b_avail ~ LogNormal</text>
<text xml:space="preserve" text-anchor="start" x="585.88" y="-493.2" font-family="Times,serif" font-size="14.00">floor ~ Beta</text>
<text xml:space="preserve" text-anchor="start" x="585.88" y="-476.7" font-family="Times,serif" font-size="14.00">sigma ~ HalfNormal</text>
<text xml:space="preserve" text-anchor="start" x="585.88" y="-460.2" font-family="Times,serif" font-size="14.00">noise_loading ~ HalfNormal</text>
<text xml:space="preserve" text-anchor="start" x="585.88" y="-443.7" font-family="Times,serif" font-size="14.00">seasonal ~ ZeroSumNormal</text>
<text xml:space="preserve" text-anchor="start" x="585.88" y="-427.2" font-family="Times,serif" font-size="14.00">b_decentered ~ Normal</text>
<text xml:space="preserve" text-anchor="start" x="585.88" y="-410.7" font-family="Times,serif" font-size="14.00">b ~ Deterministic</text>
<text xml:space="preserve" text-anchor="start" x="585.88" y="-394.2" font-family="Times,serif" font-size="14.00">drift_decentered ~ Normal</text>
<text xml:space="preserve" text-anchor="start" x="585.88" y="-377.7" font-family="Times,serif" font-size="14.00">drift ~ Deterministic</text>
<text xml:space="preserve" text-anchor="start" x="585.88" y="-361.2" font-family="Times,serif" font-size="14.00">slope ~ Normal</text>
<text xml:space="preserve" text-anchor="start" x="585.88" y="-344.7" font-family="Times,serif" font-size="14.00">obs ~ Normal</text>
</g>
</g>
</svg>
