<?xml version="1.0" encoding="UTF-8" standalone="no"?>
<!DOCTYPE svg PUBLIC "-//W3C//DTD SVG 1.1//EN"
 "http://www.w3.org/Graphics/SVG/1.1/DTD/svg11.dtd">
<!-- Generated by graphviz version 12.0.0 (0)
 -->
<!-- Pages: 1 -->
<svg width="532pt" height="389pt"
 viewBox="0.00 0.00 532.19 389.00" xmlns="http://www.w3.org/2000/svg" xmlns:xlink="http://www.w3.org/1999/xlink">
<g id="graph0" class="graph" transform="scale(1 1) rotate(0) translate(4 385)">
<polygon fill="white" stroke="none" points="-4,4 -4,-385 528.19,-385 528.19,4 -4,4"/>
<g id="clust1" class="cluster">
<title>cluster_n_series</title>
<polygon fill="none" stroke="black" points="74.44,-44 74.44,-237.5 356.44,-237.5 356.44,-44 74.44,-44"/>
<text text-anchor="middle" x="326.31" y="-51.2" font-family="Times,serif" font-size="14.00">n_series</text>
</g>
<g id="clust2" class="cluster">
<title>cluster_time</title>
<polygon fill="none" stroke="black" points="82.44,-76.5 82.44,-229.5 240.44,-229.5 240.44,-76.5 82.44,-76.5"/>
<text text-anchor="middle" x="220.06" y="-83.7" font-family="Times,serif" font-size="14.00">time</text>
</g>
<g id="clust3" class="cluster">
<title>cluster_hour_of_week</title>
<polygon fill="none" stroke="black" points="248.44,-153 248.44,-229.5 348.44,-229.5 348.44,-153 248.44,-153"/>
<text text-anchor="middle" x="301.44" y="-160.2" font-family="Times,serif" font-size="14.00">hour_of_week</text>
</g>
<!-- drift_scale -->
<g id="node1" class="node">
<title>drift_scale</title>
<ellipse fill="white" stroke="black" cx="294.44" cy="-319.25" rx="49.82" ry="18"/>
<text text-anchor="middle" x="294.44" y="-314.2" font-family="Times,serif" font-size="14.00">drift_scale</text>
</g>
<!-- drift_decentered -->
<g id="node5" class="node">
<title>drift_decentered</title>
<ellipse fill="white" stroke="black" cx="161.44" cy="-203.5" rx="71.31" ry="18"/>
<text text-anchor="middle" x="161.44" y="-198.45" font-family="Times,serif" font-size="14.00">drift_decentered</text>
</g>
<!-- drift_scale&#45;&gt;drift_decentered -->
<g id="edge1" class="edge">
<title>drift_scale&#45;&gt;drift_decentered</title>
<path fill="none" stroke="black" d="M275.66,-302.19C253.25,-283.02 215.53,-250.77 189.61,-228.6"/>
<polygon fill="black" stroke="black" points="192.01,-226.04 182.13,-222.2 187.46,-231.36 192.01,-226.04"/>
</g>
<!-- drift -->
<g id="node6" class="node">
<title>drift</title>
<ellipse fill="white" stroke="black" stroke-dasharray="5,2" cx="161.44" cy="-127" rx="27" ry="18"/>
<text text-anchor="middle" x="161.44" y="-121.95" font-family="Times,serif" font-size="14.00">drift</text>
</g>
<!-- drift_scale&#45;&gt;drift -->
<g id="edge3" class="edge">
<title>drift_scale&#45;&gt;drift</title>
<path fill="none" stroke="black" d="M309.84,-301.67C337.98,-269.37 391.35,-197.33 352.44,-153 333.04,-130.89 250.12,-127.36 200.14,-127.32"/>
<polygon fill="black" stroke="black" points="200.3,-123.82 190.31,-127.36 200.33,-130.82 200.3,-123.82"/>
</g>
<!-- sigma -->
<g id="node2" class="node">
<title>sigma</title>
<ellipse fill="white" stroke="black" cx="33.44" cy="-127" rx="33.44" ry="18"/>
<text text-anchor="middle" x="33.44" y="-121.95" font-family="Times,serif" font-size="14.00">sigma</text>
</g>
<!-- obs -->
<g id="node4" class="node">
<title>obs</title>
<ellipse fill="grey" stroke="black" cx="161.44" cy="-18" rx="27" ry="18"/>
<text text-anchor="middle" x="161.44" y="-12.95" font-family="Times,serif" font-size="14.00">obs</text>
</g>
<!-- sigma&#45;&gt;obs -->
<g id="edge6" class="edge">
<title>sigma&#45;&gt;obs</title>
<path fill="none" stroke="black" d="M38.45,-109.01C44.79,-90.41 57.49,-60.97 78.44,-44 91.21,-33.66 108.18,-27.59 123.45,-24.03"/>
<polygon fill="black" stroke="black" points="124.1,-27.47 133.21,-22.07 122.72,-20.61 124.1,-27.47"/>
</g>
<!-- centered -->
<g id="node3" class="node">
<title>centered</title>
<ellipse fill="white" stroke="black" cx="111.44" cy="-319.25" rx="42.14" ry="18"/>
<text text-anchor="middle" x="111.44" y="-314.2" font-family="Times,serif" font-size="14.00">centered</text>
</g>
<!-- centered&#45;&gt;drift_decentered -->
<g id="edge2" class="edge">
<title>centered&#45;&gt;drift_decentered</title>
<path fill="none" stroke="black" d="M118.82,-301.47C126.82,-283.26 139.73,-253.89 149.24,-232.24"/>
<polygon fill="black" stroke="black" points="152.44,-233.67 153.26,-223.11 146.03,-230.86 152.44,-233.67"/>
</g>
<!-- centered&#45;&gt;drift -->
<g id="edge4" class="edge">
<title>centered&#45;&gt;drift</title>
<path fill="none" stroke="black" d="M100.83,-301.39C82.08,-269.24 48.1,-198.34 81.44,-153 91.08,-139.89 107.57,-133.46 123.08,-130.38"/>
<polygon fill="black" stroke="black" points="123.24,-133.9 132.59,-128.91 122.18,-126.98 123.24,-133.9"/>
</g>
<!-- drift_decentered&#45;&gt;drift -->
<g id="edge5" class="edge">
<title>drift_decentered&#45;&gt;drift</title>
<path fill="none" stroke="black" d="M161.44,-185.22C161.44,-176.82 161.44,-166.49 161.44,-156.93"/>
<polygon fill="black" stroke="black" points="164.94,-156.96 161.44,-146.96 157.94,-156.96 164.94,-156.96"/>
</g>
<!-- drift&#45;&gt;obs -->
<g id="edge7" class="edge">
<title>drift&#45;&gt;obs</title>
<path fill="none" stroke="black" d="M161.44,-108.81C161.44,-92.27 161.44,-66.98 161.44,-47.44"/>
<polygon fill="black" stroke="black" points="164.94,-47.66 161.44,-37.66 157.94,-47.66 164.94,-47.66"/>
</g>
<!-- seasonal -->
<g id="node7" class="node">
<title>seasonal</title>
<ellipse fill="white" stroke="black" cx="298.44" cy="-203.5" rx="42.14" ry="18"/>
<text text-anchor="middle" x="298.44" y="-198.45" font-family="Times,serif" font-size="14.00">seasonal</text>
</g>
<!-- seasonal&#45;&gt;obs -->
<g id="edge8" class="edge">
<title>seasonal&#45;&gt;obs</title>
<path fill="none" stroke="black" d="M297.57,-185.51C295,-153.26 284.81,-82.96 244.44,-44 232.41,-32.4 215.2,-26.16 199.57,-22.81"/>
<polygon fill="black" stroke="black" points="200.51,-19.42 190.05,-21.11 199.28,-26.31 200.51,-19.42"/>
</g>
<!-- distribution_description_node -->
<g id="node8" class="node">
<title>distribution_description_node</title>
<text text-anchor="start" x="370.69" y="-363.7" font-family="Times,serif" font-size="14.00">drift_scale ~ LogNormal</text>
<text text-anchor="start" x="370.69" y="-347.2" font-family="Times,serif" font-size="14.00">sigma ~ LogNormal</text>
<text text-anchor="start" x="370.69" y="-330.7" font-family="Times,serif" font-size="14.00">centered ~ Uniform</text>
<text text-anchor="start" x="370.69" y="-314.2" font-family="Times,serif" font-size="14.00">drift_decentered ~ Normal</text>
<text text-anchor="start" x="370.69" y="-297.7" font-family="Times,serif" font-size="14.00">drift ~ Deterministic</text>
<text text-anchor="start" x="370.69" y="-281.2" font-family="Times,serif" font-size="14.00">seasonal ~ Normal</text>
<text text-anchor="start" x="370.69" y="-264.7" font-family="Times,serif" font-size="14.00">obs ~ Normal</text>
</g>
</g>
</svg>
