<?xml version="1.0" encoding="UTF-8" standalone="no"?>
<!DOCTYPE svg PUBLIC "-//W3C//DTD SVG 1.1//EN"
 "http://www.w3.org/Graphics/SVG/1.1/DTD/svg11.dtd">
<!-- Generated by graphviz version 13.0.1 (0)
 -->
<!-- Pages: 1 -->
<svg width="585pt" height="556pt"
 viewBox="0.00 0.00 585.00 556.00" xmlns="http://www.w3.org/2000/svg" xmlns:xlink="http://www.w3.org/1999/xlink">
<g id="graph0" class="graph" transform="scale(1 1) rotate(0) translate(4 552.13)">
<polygon fill="white" stroke="none" points="-4,4 -4,-552.13 581,-552.13 581,4 -4,4"/>
<g id="clust1" class="cluster">
<title>clusteridx (105) x domain_dim (2)</title>
<path fill="none" stroke="black" d="M20,-430.23C20,-430.23 165,-430.23 165,-430.23 171,-430.23 177,-436.23 177,-442.23 177,-442.23 177,-516.23 177,-516.23 177,-522.23 171,-528.23 165,-528.23 165,-528.23 20,-528.23 20,-528.23 14,-528.23 8,-522.23 8,-516.23 8,-516.23 8,-442.23 8,-442.23 8,-436.23 14,-430.23 20,-430.23"/>
<text xml:space="preserve" text-anchor="middle" x="92.12" y="-437.43" font-family="Times,serif" font-size="14.00">idx (105) x domain_dim (2)</text>
</g>
<g id="clust2" class="cluster">
<title>clusteridx (105)</title>
<path fill="none" stroke="black" d="M257,-8C257,-8 349,-8 349,-8 355,-8 361,-14 361,-20 361,-20 361,-398.32 361,-398.32 361,-404.32 355,-410.32 349,-410.32 349,-410.32 257,-410.32 257,-410.32 251,-410.32 245,-404.32 245,-398.32 245,-398.32 245,-20 245,-20 245,-14 251,-8 257,-8"/>
<text xml:space="preserve" text-anchor="middle" x="327.88" y="-15.2" font-family="Times,serif" font-size="14.00">idx (105)</text>
</g>
<g id="clust3" class="cluster">
<title>clusterdomain_dim (2)</title>
<path fill="none" stroke="black" d="M322,-418.32C322,-418.32 403,-418.32 403,-418.32 409,-418.32 415,-424.32 415,-430.32 415,-430.32 415,-528.13 415,-528.13 415,-534.13 409,-540.13 403,-540.13 403,-540.13 322,-540.13 322,-540.13 316,-540.13 310,-534.13 310,-528.13 310,-528.13 310,-430.32 310,-430.32 310,-424.32 316,-418.32 322,-418.32"/>
<text xml:space="preserve" text-anchor="middle" x="362.38" y="-425.52" font-family="Times,serif" font-size="14.00">domain_dim (2)</text>
</g>
<g id="clust4" class="cluster">
<title>cluster64</title>
<path fill="none" stroke="black" d="M435,-418.32C435,-418.32 557,-418.32 557,-418.32 563,-418.32 569,-424.32 569,-430.32 569,-430.32 569,-528.13 569,-528.13 569,-534.13 563,-540.13 557,-540.13 557,-540.13 435,-540.13 435,-540.13 429,-540.13 423,-534.13 423,-528.13 423,-528.13 423,-430.32 423,-430.32 423,-424.32 429,-418.32 435,-418.32"/>
<text xml:space="preserve" text-anchor="middle" x="554.25" y="-425.52" font-family="Times,serif" font-size="14.00">64</text>
</g>
<!-- x_data -->
<g id="node1" class="node">
<title>x_data</title>
<path fill="lightgrey" stroke="black" d="M156,-520.23C156,-520.23 126,-520.23 126,-520.23 120,-520.23 114,-514.23 114,-508.23 114,-508.23 114,-474.73 114,-474.73 114,-468.73 120,-462.73 126,-462.73 126,-462.73 156,-462.73 156,-462.73 162,-462.73 168,-468.73 168,-474.73 168,-474.73 168,-508.23 168,-508.23 168,-514.23 162,-520.23 156,-520.23"/>
<text xml:space="preserve" text-anchor="middle" x="141" y="-502.93" font-family="Times,serif" font-size="14.00">x_data</text>
<text xml:space="preserve" text-anchor="middle" x="141" y="-486.43" font-family="Times,serif" font-size="14.00">~</text>
<text xml:space="preserve" text-anchor="middle" x="141" y="-469.93" font-family="Times,serif" font-size="14.00">Data</text>
</g>
<!-- f -->
<g id="node3" class="node">
<title>f</title>
<polygon fill="none" stroke="black" points="348.12,-402.32 257.88,-402.32 257.88,-344.82 348.12,-344.82 348.12,-402.32"/>
<text xml:space="preserve" text-anchor="middle" x="303" y="-385.02" font-family="Times,serif" font-size="14.00">f</text>
<text xml:space="preserve" text-anchor="middle" x="303" y="-368.52" font-family="Times,serif" font-size="14.00">~</text>
<text xml:space="preserve" text-anchor="middle" x="303" y="-352.02" font-family="Times,serif" font-size="14.00">Deterministic</text>
</g>
<!-- x_data&#45;&gt;f -->
<g id="edge4" class="edge">
<title>x_data&#45;&gt;f</title>
<path fill="none" stroke="black" d="M149.17,-462.56C154.82,-447.63 163.75,-429.96 177,-418.32 196.44,-401.23 222.93,-390.72 246.61,-384.3"/>
<polygon fill="black" stroke="black" points="247.28,-387.74 256.14,-381.92 245.59,-380.95 247.28,-387.74"/>
</g>
<!-- p -->
<g id="node2" class="node">
<title>p</title>
<polygon fill="none" stroke="black" points="348.12,-308.82 257.88,-308.82 257.88,-251.32 348.12,-251.32 348.12,-308.82"/>
<text xml:space="preserve" text-anchor="middle" x="303" y="-291.52" font-family="Times,serif" font-size="14.00">p</text>
<text xml:space="preserve" text-anchor="middle" x="303" y="-275.02" font-family="Times,serif" font-size="14.00">~</text>
<text xml:space="preserve" text-anchor="middle" x="303" y="-258.52" font-family="Times,serif" font-size="14.00">Deterministic</text>
</g>
<!-- likelihood -->
<g id="node5" class="node">
<title>likelihood</title>
<ellipse fill="lightgrey" stroke="black" cx="303" cy="-174.66" rx="50.03" ry="40.66"/>
<text xml:space="preserve" text-anchor="middle" x="303" y="-186.11" font-family="Times,serif" font-size="14.00">likelihood</text>
<text xml:space="preserve" text-anchor="middle" x="303" y="-169.61" font-family="Times,serif" font-size="14.00">~</text>
<text xml:space="preserve" text-anchor="middle" x="303" y="-153.11" font-family="Times,serif" font-size="14.00">Bernoulli</text>
</g>
<!-- p&#45;&gt;likelihood -->
<g id="edge7" class="edge">
<title>p&#45;&gt;likelihood</title>
<path fill="none" stroke="black" d="M303,-251.08C303,-243.6 303,-235.27 303,-226.95"/>
<polygon fill="black" stroke="black" points="306.5,-227.21 303,-217.21 299.5,-227.21 306.5,-227.21"/>
</g>
<!-- f&#45;&gt;p -->
<g id="edge6" class="edge">
<title>f&#45;&gt;p</title>
<path fill="none" stroke="black" d="M303,-344.62C303,-337.06 303,-328.74 303,-320.67"/>
<polygon fill="black" stroke="black" points="306.5,-320.68 303,-310.68 299.5,-320.68 306.5,-320.68"/>
</g>
<!-- y_data -->
<g id="node4" class="node">
<title>y_data</title>
<path fill="lightgrey" stroke="black" d="M318,-98C318,-98 288,-98 288,-98 282,-98 276,-92 276,-86 276,-86 276,-52.5 276,-52.5 276,-46.5 282,-40.5 288,-40.5 288,-40.5 318,-40.5 318,-40.5 324,-40.5 330,-46.5 330,-52.5 330,-52.5 330,-86 330,-86 330,-92 324,-98 318,-98"/>
<text xml:space="preserve" text-anchor="middle" x="303" y="-80.7" font-family="Times,serif" font-size="14.00">y_data</text>
<text xml:space="preserve" text-anchor="middle" x="303" y="-64.2" font-family="Times,serif" font-size="14.00">~</text>
<text xml:space="preserve" text-anchor="middle" x="303" y="-47.7" font-family="Times,serif" font-size="14.00">Data</text>
</g>
<!-- likelihood&#45;&gt;y_data -->
<g id="edge1" class="edge">
<title>likelihood&#45;&gt;y_data</title>
<path fill="none" stroke="black" d="M303,-133.68C303,-125.83 303,-117.6 303,-109.76"/>
<polygon fill="black" stroke="black" points="306.5,-109.79 303,-99.79 299.5,-109.79 306.5,-109.79"/>
</g>
<!-- amplitude -->
<g id="node6" class="node">
<title>amplitude</title>
<ellipse fill="none" stroke="black" cx="244" cy="-491.48" rx="57.98" ry="40.66"/>
<text xml:space="preserve" text-anchor="middle" x="244" y="-502.93" font-family="Times,serif" font-size="14.00">amplitude</text>
<text xml:space="preserve" text-anchor="middle" x="244" y="-486.43" font-family="Times,serif" font-size="14.00">~</text>
<text xml:space="preserve" text-anchor="middle" x="244" y="-469.93" font-family="Times,serif" font-size="14.00">HalfNormal</text>
</g>
<!-- amplitude&#45;&gt;f -->
<g id="edge2" class="edge">
<title>amplitude&#45;&gt;f</title>
<path fill="none" stroke="black" d="M263.16,-452.84C269.74,-439.91 277.11,-425.43 283.71,-412.47"/>
<polygon fill="black" stroke="black" points="286.7,-414.31 288.11,-403.81 280.46,-411.14 286.7,-414.31"/>
</g>
<!-- ls -->
<g id="node7" class="node">
<title>ls</title>
<ellipse fill="none" stroke="black" cx="363" cy="-491.48" rx="42.6" ry="40.66"/>
<text xml:space="preserve" text-anchor="middle" x="363" y="-502.93" font-family="Times,serif" font-size="14.00">ls</text>
<text xml:space="preserve" text-anchor="middle" x="363" y="-486.43" font-family="Times,serif" font-size="14.00">~</text>
<text xml:space="preserve" text-anchor="middle" x="363" y="-469.93" font-family="Times,serif" font-size="14.00">Gamma</text>
</g>
<!-- ls&#45;&gt;f -->
<g id="edge5" class="edge">
<title>ls&#45;&gt;f</title>
<path fill="none" stroke="black" d="M344.34,-454.44C337.44,-441.09 329.59,-425.93 322.6,-412.43"/>
<polygon fill="black" stroke="black" points="325.85,-411.1 318.15,-403.83 319.63,-414.32 325.85,-411.1"/>
</g>
<!-- f_hsgp_coeffs -->
<g id="node8" class="node">
<title>f_hsgp_coeffs</title>
<ellipse fill="none" stroke="black" cx="496" cy="-491.48" rx="65.41" ry="40.66"/>
<text xml:space="preserve" text-anchor="middle" x="496" y="-502.93" font-family="Times,serif" font-size="14.00">f_hsgp_coeffs</text>
<text xml:space="preserve" text-anchor="middle" x="496" y="-486.43" font-family="Times,serif" font-size="14.00">~</text>
<text xml:space="preserve" text-anchor="middle" x="496" y="-469.93" font-family="Times,serif" font-size="14.00">Normal</text>
</g>
<!-- f_hsgp_coeffs&#45;&gt;f -->
<g id="edge3" class="edge">
<title>f_hsgp_coeffs&#45;&gt;f</title>
<path fill="none" stroke="black" d="M464.65,-455.76C451.52,-442.72 435.49,-428.58 419,-418.32 400.65,-406.9 378.85,-397.7 359.13,-390.75"/>
<polygon fill="black" stroke="black" points="360.45,-387.5 349.86,-387.6 358.2,-394.13 360.45,-387.5"/>
</g>
</g>
</svg>
