<?xml version="1.0" encoding="UTF-8" standalone="no"?>
<!DOCTYPE svg PUBLIC "-//W3C//DTD SVG 1.1//EN"
 "http://www.w3.org/Graphics/SVG/1.1/DTD/svg11.dtd">
<!-- Generated by graphviz version 12.0.0 (0)
 -->
<!-- Pages: 1 -->
<svg width="965pt" height="277pt"
 viewBox="0.00 0.00 964.88 277.00" xmlns="http://www.w3.org/2000/svg" xmlns:xlink="http://www.w3.org/1999/xlink">
<g id="graph0" class="graph" transform="scale(1 1) rotate(0) translate(4 273)">
<polygon fill="white" stroke="none" points="-4,4 -4,-273 960.88,-273 960.88,4 -4,4"/>
<g id="clust1" class="cluster">
<title>cluster_target_conditioning</title>
<polygon fill="none" stroke="black" points="143.75,-8 143.75,-84.5 271.75,-84.5 271.75,-8 143.75,-8"/>
<text text-anchor="middle" x="210.88" y="-15.2" font-family="Times,serif" font-size="14.00">target_conditioning</text>
</g>
<g id="clust2" class="cluster">
<title>cluster_cuped_conditioning</title>
<polygon fill="none" stroke="black" points="508.75,-8 508.75,-84.5 650.75,-84.5 650.75,-8 508.75,-8"/>
<text text-anchor="middle" x="589.13" y="-15.2" font-family="Times,serif" font-size="14.00">cuped_conditioning</text>
</g>
<!-- intercept_target -->
<g id="node1" class="node">
<title>intercept_target</title>
<ellipse fill="white" stroke="black" cx="68.75" cy="-190.75" rx="68.75" ry="18"/>
<text text-anchor="middle" x="68.75" y="-185.7" font-family="Times,serif" font-size="14.00">intercept_target</text>
</g>
<!-- y_post_pred -->
<g id="node8" class="node">
<title>y_post_pred</title>
<ellipse fill="grey" stroke="black" cx="207.75" cy="-58.5" rx="56.47" ry="18"/>
<text text-anchor="middle" x="207.75" y="-53.45" font-family="Times,serif" font-size="14.00">y_post_pred</text>
</g>
<!-- intercept_target&#45;&gt;y_post_pred -->
<g id="edge1" class="edge">
<title>intercept_target&#45;&gt;y_post_pred</title>
<path fill="none" stroke="black" d="M85.18,-172.85C100.76,-156.98 124.96,-132.72 146.75,-112.5 157.44,-102.59 169.5,-91.99 180.06,-82.9"/>
<polygon fill="black" stroke="black" points="182.04,-85.81 187.36,-76.64 177.49,-80.49 182.04,-85.81"/>
</g>
<!-- theta -->
<g id="node2" class="node">
<title>theta</title>
<ellipse fill="white" stroke="black" cx="321.75" cy="-190.75" rx="28.83" ry="18"/>
<text text-anchor="middle" x="321.75" y="-185.7" font-family="Times,serif" font-size="14.00">theta</text>
</g>
<!-- y_cuped -->
<g id="node7" class="node">
<title>y_cuped</title>
<ellipse fill="white" stroke="black" stroke-dasharray="5,2" cx="324.75" cy="-58.5" rx="42.14" ry="18"/>
<text text-anchor="middle" x="324.75" y="-53.45" font-family="Times,serif" font-size="14.00">y_cuped</text>
</g>
<!-- theta&#45;&gt;y_cuped -->
<g id="edge4" class="edge">
<title>theta&#45;&gt;y_cuped</title>
<path fill="none" stroke="black" d="M322.15,-172.45C322.65,-150.95 323.5,-113.93 324.09,-88.16"/>
<polygon fill="black" stroke="black" points="327.59,-88.46 324.32,-78.38 320.59,-88.3 327.59,-88.46"/>
</g>
<!-- theta&#45;&gt;y_post_pred -->
<g id="edge2" class="edge">
<title>theta&#45;&gt;y_post_pred</title>
<path fill="none" stroke="black" d="M314.29,-172.86C306.47,-156.34 293.06,-131.03 276.75,-112.5 266.67,-101.05 253.81,-90.38 241.92,-81.66"/>
<polygon fill="black" stroke="black" points="244.09,-78.91 233.91,-75.99 240.05,-84.62 244.09,-78.91"/>
</g>
<!-- sigma_theta -->
<g id="node3" class="node">
<title>sigma_theta</title>
<ellipse fill="white" stroke="black" cx="211.75" cy="-190.75" rx="55.96" ry="18"/>
<text text-anchor="middle" x="211.75" y="-185.7" font-family="Times,serif" font-size="14.00">sigma_theta</text>
</g>
<!-- sigma_theta&#45;&gt;y_post_pred -->
<g id="edge3" class="edge">
<title>sigma_theta&#45;&gt;y_post_pred</title>
<path fill="none" stroke="black" d="M211.22,-172.45C210.56,-150.95 209.42,-113.93 208.63,-88.16"/>
<polygon fill="black" stroke="black" points="212.14,-88.27 208.33,-78.38 205.14,-88.48 212.14,-88.27"/>
</g>
<!-- intercept_cuped -->
<g id="node4" class="node">
<title>intercept_cuped</title>
<ellipse fill="white" stroke="black" cx="438.75" cy="-190.75" rx="69.78" ry="18"/>
<text text-anchor="middle" x="438.75" y="-185.7" font-family="Times,serif" font-size="14.00">intercept_cuped</text>
</g>
<!-- y_cuped_pred -->
<g id="node9" class="node">
<title>y_cuped_pred</title>
<ellipse fill="grey" stroke="black" cx="579.75" cy="-58.5" rx="63.12" ry="18"/>
<text text-anchor="middle" x="579.75" y="-53.45" font-family="Times,serif" font-size="14.00">y_cuped_pred</text>
</g>
<!-- intercept_cuped&#45;&gt;y_cuped_pred -->
<g id="edge5" class="edge">
<title>intercept_cuped&#45;&gt;y_cuped_pred</title>
<path fill="none" stroke="black" d="M455.39,-172.84C471.16,-156.96 495.67,-132.69 517.75,-112.5 528.53,-102.65 540.68,-92.13 551.36,-83.08"/>
<polygon fill="black" stroke="black" points="553.36,-85.97 558.76,-76.85 548.85,-80.62 553.36,-85.97"/>
</g>
<!-- beta_cuped -->
<g id="node5" class="node">
<title>beta_cuped</title>
<ellipse fill="white" stroke="black" cx="579.75" cy="-190.75" rx="52.89" ry="18"/>
<text text-anchor="middle" x="579.75" y="-185.7" font-family="Times,serif" font-size="14.00">beta_cuped</text>
</g>
<!-- beta_cuped&#45;&gt;y_cuped_pred -->
<g id="edge6" class="edge">
<title>beta_cuped&#45;&gt;y_cuped_pred</title>
<path fill="none" stroke="black" d="M579.75,-172.45C579.75,-150.95 579.75,-113.93 579.75,-88.16"/>
<polygon fill="black" stroke="black" points="583.25,-88.38 579.75,-78.38 576.25,-88.38 583.25,-88.38"/>
</g>
<!-- sigma_cuped -->
<g id="node6" class="node">
<title>sigma_cuped</title>
<ellipse fill="white" stroke="black" cx="710.75" cy="-190.75" rx="60.05" ry="18"/>
<text text-anchor="middle" x="710.75" y="-185.7" font-family="Times,serif" font-size="14.00">sigma_cuped</text>
</g>
<!-- sigma_cuped&#45;&gt;y_cuped_pred -->
<g id="edge7" class="edge">
<title>sigma_cuped&#45;&gt;y_cuped_pred</title>
<path fill="none" stroke="black" d="M696.83,-172.89C683.31,-156.83 661.93,-132.25 641.75,-112.5 631.39,-102.36 619.41,-91.86 608.75,-82.91"/>
<polygon fill="black" stroke="black" points="611.27,-80.45 601.34,-76.76 606.8,-85.84 611.27,-80.45"/>
</g>
<!-- distribution_description_node -->
<g id="node10" class="node">
<title>distribution_description_node</title>
<text text-anchor="start" x="796.63" y="-251.7" font-family="Times,serif" font-size="14.00">intercept_target ~ Normal</text>
<text text-anchor="start" x="796.63" y="-235.2" font-family="Times,serif" font-size="14.00">theta ~ Normal</text>
<text text-anchor="start" x="796.63" y="-218.7" font-family="Times,serif" font-size="14.00">sigma_theta ~ HalfCauchy</text>
<text text-anchor="start" x="796.63" y="-202.2" font-family="Times,serif" font-size="14.00">intercept_cuped ~ Normal</text>
<text text-anchor="start" x="796.63" y="-185.7" font-family="Times,serif" font-size="14.00">beta_cuped ~ Normal</text>
<text text-anchor="start" x="796.63" y="-169.2" font-family="Times,serif" font-size="14.00">sigma_cuped ~ HalfCauchy</text>
<text text-anchor="start" x="796.63" y="-152.7" font-family="Times,serif" font-size="14.00">y_post_pred ~ Normal</text>
<text text-anchor="start" x="796.63" y="-136.2" font-family="Times,serif" font-size="14.00">y_cuped ~ Deterministic</text>
<text text-anchor="start" x="796.63" y="-119.7" font-family="Times,serif" font-size="14.00">y_cuped_pred ~ Normal</text>
</g>
</g>
</svg>
