<?xml version="1.0" encoding="UTF-8" standalone="no"?>
<!DOCTYPE svg PUBLIC "-//W3C//DTD SVG 1.1//EN"
 "http://www.w3.org/Graphics/SVG/1.1/DTD/svg11.dtd">
<!-- Generated by graphviz version 14.1.2 (0)
 -->
<!-- Pages: 1 -->
<svg width="276pt" height="404pt"
 viewBox="0.00 0.00 276.00 404.00" xmlns="http://www.w3.org/2000/svg" xmlns:xlink="http://www.w3.org/1999/xlink">
<g id="graph0" class="graph" transform="scale(1 1) rotate(0) translate(4 400)">
<polygon fill="white" stroke="none" points="-4,4 -4,-400 272.09,-400 272.09,4 -4,4"/>
<!-- education -->
<g id="node1" class="node">
<title>education</title>
<polygon fill="none" stroke="black" points="68.5,-396 0,-396 0,-360 68.5,-360 68.5,-396"/>
<text xml:space="preserve" text-anchor="middle" x="34.25" y="-372.95" font-family="Times,serif" font-size="14.00">education</text>
</g>
<!-- treat -->
<g id="node8" class="node">
<title>treat</title>
<ellipse fill="none" stroke="black" cx="138.12" cy="-232" rx="27.3" ry="18"/>
<text xml:space="preserve" text-anchor="middle" x="138.12" y="-226.95" font-family="Times,serif" font-size="14.00">treat</text>
</g>
<!-- education&#45;&gt;treat -->
<g id="edge1" class="edge">
<title>education&#45;&gt;treat</title>
<path fill="none" stroke="black" d="M56.59,-359.82C60.86,-355.56 65.08,-350.85 68.5,-346 91.54,-313.32 82.87,-296.96 105.5,-264 107.73,-260.75 110.32,-257.53 113.03,-254.46"/>
<polygon fill="black" stroke="black" points="115.39,-257.06 119.76,-247.41 110.33,-252.22 115.39,-257.06"/>
</g>
<!-- re78 -->
<g id="node9" class="node">
<title>re78</title>
<ellipse fill="none" stroke="black" cx="240.8" cy="-205" rx="27.3" ry="18"/>
<text xml:space="preserve" text-anchor="middle" x="240.8" y="-199.95" font-family="Times,serif" font-size="14.00">re78</text>
</g>
<!-- education&#45;&gt;re78 -->
<g id="edge9" class="edge">
<title>education&#45;&gt;re78</title>
<path fill="none" stroke="black" d="M68.97,-373.28C98.64,-367.64 141.54,-355.65 170.75,-331 201.41,-305.13 220.8,-262.03 230.98,-233.56"/>
<polygon fill="black" stroke="black" points="234.27,-234.74 234.18,-224.15 227.65,-232.49 234.27,-234.74"/>
<text xml:space="preserve" text-anchor="middle" x="138.12" y="-367.29" font-family="Times,serif" font-size="14.00">c_education</text>
</g>
<!-- age -->
<g id="node2" class="node">
<title>age</title>
<polygon fill="none" stroke="black" points="61.25,-337 7.25,-337 7.25,-301 61.25,-301 61.25,-337"/>
<text xml:space="preserve" text-anchor="middle" x="34.25" y="-313.95" font-family="Times,serif" font-size="14.00">age</text>
</g>
<!-- age&#45;&gt;treat -->
<g id="edge2" class="edge">
<title>age&#45;&gt;treat</title>
<path fill="none" stroke="black" d="M56.86,-300.55C73.07,-286.7 95.3,-267.72 112.25,-253.24"/>
<polygon fill="black" stroke="black" points="114.1,-256.27 119.43,-247.11 109.55,-250.94 114.1,-256.27"/>
</g>
<!-- age&#45;&gt;re78 -->
<g id="edge10" class="edge">
<title>age&#45;&gt;re78</title>
<path fill="none" stroke="black" d="M61.58,-317.48C90.14,-314.84 136.25,-307.64 170.75,-288 193.95,-274.8 212.7,-250.6 224.78,-231.72"/>
<polygon fill="black" stroke="black" points="227.61,-233.81 229.84,-223.45 221.64,-230.15 227.61,-233.81"/>
<text xml:space="preserve" text-anchor="middle" x="138.12" y="-314.13" font-family="Times,serif" font-size="14.00">c_age</text>
</g>
<!-- re75 -->
<g id="node3" class="node">
<title>re75</title>
<polygon fill="none" stroke="black" points="61.25,-274 7.25,-274 7.25,-238 61.25,-238 61.25,-274"/>
<text xml:space="preserve" text-anchor="middle" x="34.25" y="-250.95" font-family="Times,serif" font-size="14.00">re75</text>
</g>
<!-- re75&#45;&gt;treat -->
<g id="edge3" class="edge">
<title>re75&#45;&gt;treat</title>
<path fill="none" stroke="black" d="M61.49,-249.82C73.52,-246.98 87.99,-243.58 101.03,-240.5"/>
<polygon fill="black" stroke="black" points="101.63,-243.96 110.56,-238.26 100.02,-237.14 101.63,-243.96"/>
</g>
<!-- re75&#45;&gt;re78 -->
<g id="edge11" class="edge">
<title>re75&#45;&gt;re78</title>
<path fill="none" stroke="black" d="M61.55,-261.85C89.47,-266.86 134.49,-271.5 170.75,-259 188.64,-252.84 205.43,-239.93 217.98,-228.27"/>
<polygon fill="black" stroke="black" points="220.15,-231.05 224.87,-221.56 215.26,-226.04 220.15,-231.05"/>
<text xml:space="preserve" text-anchor="middle" x="138.12" y="-270.21" font-family="Times,serif" font-size="14.00">c_re75</text>
</g>
<!-- black -->
<g id="node4" class="node">
<title>black</title>
<polygon fill="none" stroke="black" points="61.25,-212 7.25,-212 7.25,-176 61.25,-176 61.25,-212"/>
<text xml:space="preserve" text-anchor="middle" x="34.25" y="-188.95" font-family="Times,serif" font-size="14.00">black</text>
</g>
<!-- black&#45;&gt;treat -->
<g id="edge4" class="edge">
<title>black&#45;&gt;treat</title>
<path fill="none" stroke="black" d="M61.49,-203.79C74.23,-208.54 89.7,-214.31 103.32,-219.39"/>
<polygon fill="black" stroke="black" points="101.75,-222.54 112.34,-222.76 104.19,-215.98 101.75,-222.54"/>
</g>
<!-- black&#45;&gt;re78 -->
<g id="edge12" class="edge">
<title>black&#45;&gt;re78</title>
<path fill="none" stroke="black" d="M61.57,-190.49C88.94,-187.4 132.99,-184.05 170.75,-188.5 181.81,-189.8 193.66,-192.24 204.36,-194.85"/>
<polygon fill="black" stroke="black" points="203.42,-198.22 213.98,-197.33 205.17,-191.44 203.42,-198.22"/>
<text xml:space="preserve" text-anchor="middle" x="138.12" y="-191.7" font-family="Times,serif" font-size="14.00">c_black</text>
</g>
<!-- hispanic -->
<g id="node5" class="node">
<title>hispanic</title>
<polygon fill="none" stroke="black" points="64.75,-156 3.75,-156 3.75,-120 64.75,-120 64.75,-156"/>
<text xml:space="preserve" text-anchor="middle" x="34.25" y="-132.95" font-family="Times,serif" font-size="14.00">hispanic</text>
</g>
<!-- hispanic&#45;&gt;treat -->
<g id="edge5" class="edge">
<title>hispanic&#45;&gt;treat</title>
<path fill="none" stroke="black" d="M56.47,-156.28C60.49,-159.81 64.65,-163.5 68.5,-167 83.74,-180.85 100.53,-196.75 113.69,-209.35"/>
<polygon fill="black" stroke="black" points="111.03,-211.65 120.67,-216.05 115.88,-206.6 111.03,-211.65"/>
</g>
<!-- hispanic&#45;&gt;re78 -->
<g id="edge13" class="edge">
<title>hispanic&#45;&gt;re78</title>
<path fill="none" stroke="black" d="M65.08,-141.27C93.05,-144.98 135.7,-152.31 170.75,-165.5 184.89,-170.82 199.55,-178.8 211.7,-186.21"/>
<polygon fill="black" stroke="black" points="209.65,-189.05 219.98,-191.41 213.38,-183.12 209.65,-189.05"/>
<text xml:space="preserve" text-anchor="middle" x="138.12" y="-168.7" font-family="Times,serif" font-size="14.00">c_hispanic</text>
</g>
<!-- married -->
<g id="node6" class="node">
<title>married</title>
<polygon fill="none" stroke="black" points="63.62,-98 4.88,-98 4.88,-62 63.62,-62 63.62,-98"/>
<text xml:space="preserve" text-anchor="middle" x="34.25" y="-74.95" font-family="Times,serif" font-size="14.00">married</text>
</g>
<!-- married&#45;&gt;treat -->
<g id="edge6" class="edge">
<title>married&#45;&gt;treat</title>
<path fill="none" stroke="black" d="M57.75,-98.47C61.66,-102.34 65.44,-106.59 68.5,-111 92.94,-146.18 81.78,-164.33 105.5,-200 107.69,-203.29 110.24,-206.52 112.93,-209.6"/>
<polygon fill="black" stroke="black" points="110.23,-211.83 119.66,-216.67 115.3,-207.01 110.23,-211.83"/>
</g>
<!-- married&#45;&gt;re78 -->
<g id="edge14" class="edge">
<title>married&#45;&gt;re78</title>
<path fill="none" stroke="black" d="M63.87,-85.6C92.69,-92.22 137.51,-105.24 170.75,-127.5 191.28,-141.25 209.62,-162.5 222.23,-179.27"/>
<polygon fill="black" stroke="black" points="219.37,-181.28 228.08,-187.31 225.03,-177.17 219.37,-181.28"/>
<text xml:space="preserve" text-anchor="middle" x="138.12" y="-130.7" font-family="Times,serif" font-size="14.00">c_married</text>
</g>
<!-- nodegree -->
<g id="node7" class="node">
<title>nodegree</title>
<polygon fill="none" stroke="black" points="67,-36 1.5,-36 1.5,0 67,0 67,-36"/>
<text xml:space="preserve" text-anchor="middle" x="34.25" y="-12.95" font-family="Times,serif" font-size="14.00">nodegree</text>
</g>
<!-- nodegree&#45;&gt;treat -->
<g id="edge7" class="edge">
<title>nodegree&#45;&gt;treat</title>
<path fill="none" stroke="black" d="M55.86,-36.18C60.58,-41.22 65.19,-46.98 68.5,-53 100.99,-112.02 72.43,-141.3 105.5,-200 107.44,-203.44 109.84,-206.77 112.45,-209.89"/>
<polygon fill="black" stroke="black" points="109.72,-212.09 119.11,-217 114.83,-207.31 109.72,-212.09"/>
</g>
<!-- nodegree&#45;&gt;re78 -->
<g id="edge15" class="edge">
<title>nodegree&#45;&gt;re78</title>
<path fill="none" stroke="black" d="M67.36,-25.35C97.15,-33.56 141.21,-49.38 170.75,-76.5 200.89,-104.17 220.49,-148.09 230.84,-176.73"/>
<polygon fill="black" stroke="black" points="227.41,-177.52 233.99,-185.83 234.03,-175.23 227.41,-177.52"/>
<text xml:space="preserve" text-anchor="middle" x="138.12" y="-79.7" font-family="Times,serif" font-size="14.00">c_nodegree</text>
</g>
<!-- treat&#45;&gt;re78 -->
<g id="edge8" class="edge">
<title>treat&#45;&gt;re78</title>
<path fill="none" stroke="black" d="M164.01,-225.33C176.2,-222.06 191.1,-218.06 204.44,-214.48"/>
<polygon fill="black" stroke="black" points="204.98,-217.96 213.74,-211.99 203.17,-211.2 204.98,-217.96"/>
<text xml:space="preserve" text-anchor="middle" x="192.12" y="-221.7" font-family="Times,serif" font-size="14.00">b</text>
</g>
</g>
</svg>
