<?xml version="1.0" encoding="UTF-8" standalone="no"?>
<!DOCTYPE svg PUBLIC "-//W3C//DTD SVG 1.1//EN"
 "http://www.w3.org/Graphics/SVG/1.1/DTD/svg11.dtd">
<!-- Generated by graphviz version 8.0.1 (20230327.1645)
 -->
<!-- Pages: 1 -->
<svg width="1396pt" height="556pt"
 viewBox="0.00 0.00 1396.04 556.00" xmlns="http://www.w3.org/2000/svg" xmlns:xlink="http://www.w3.org/1999/xlink">
<g id="graph0" class="graph" transform="scale(1 1) rotate(0) translate(4 552)">
<polygon fill="white" stroke="none" points="-4,4 -4,-552 1392.04,-552 1392.04,4 -4,4"/>
<g id="clust1" class="cluster">
<title>cluster_districts</title>
<polygon fill="none" stroke="black" points="123.54,-227 123.54,-465 608.54,-465 608.54,-227 123.54,-227"/>
<text text-anchor="middle" x="579.04" y="-234.8" font-family="Times,serif" font-size="14.00">districts</text>
</g>
<g id="clust2" class="cluster">
<title>cluster_data</title>
<polygon fill="none" stroke="black" points="523.54,-8 523.54,-83 593.54,-83 593.54,-8 523.54,-8"/>
<text text-anchor="middle" x="574.04" y="-15.8" font-family="Times,serif" font-size="14.00">data</text>
</g>
<!-- intercept_loc -->
<g id="node1" class="node">
<title>intercept_loc</title>
<ellipse fill="white" stroke="black" cx="56.54" cy="-439" rx="56.59" ry="18"/>
<text text-anchor="middle" x="56.54" y="-435.3" font-family="Times,serif" font-size="14.00">intercept_loc</text>
</g>
<!-- intercept_district -->
<g id="node11" class="node">
<title>intercept_district</title>
<ellipse fill="white" stroke="black" stroke-dasharray="5,2" cx="307.54" cy="-276" rx="70.39" ry="18"/>
<text text-anchor="middle" x="307.54" y="-272.3" font-family="Times,serif" font-size="14.00">intercept_district</text>
</g>
<!-- intercept_loc&#45;&gt;intercept_district -->
<g id="edge2" class="edge">
<title>intercept_loc&#45;&gt;intercept_district</title>
<path fill="none" stroke="black" d="M62.02,-420.62C70.47,-396.63 88.99,-353.65 119.54,-330 151.64,-305.16 194.82,-291.96 231.7,-284.95"/>
<polygon fill="black" stroke="black" points="232.18,-288.24 241.42,-283.05 230.96,-281.34 232.18,-288.24"/>
</g>
<!-- intercept_scale -->
<g id="node2" class="node">
<title>intercept_scale</title>
<ellipse fill="white" stroke="black" cx="682.54" cy="-439" rx="63.89" ry="18"/>
<text text-anchor="middle" x="682.54" y="-435.3" font-family="Times,serif" font-size="14.00">intercept_scale</text>
</g>
<!-- intercept_scale&#45;&gt;intercept_district -->
<g id="edge3" class="edge">
<title>intercept_scale&#45;&gt;intercept_district</title>
<path fill="none" stroke="black" d="M676.57,-420.96C667.08,-396.56 646.1,-352.17 612.54,-330 593.4,-317.35 464.09,-297.99 380.1,-286.51"/>
<polygon fill="black" stroke="black" points="380.71,-282.92 370.33,-285.04 379.76,-289.86 380.71,-282.92"/>
</g>
<!-- slope_einwohner_loc -->
<g id="node3" class="node">
<title>slope_einwohner_loc</title>
<ellipse fill="white" stroke="black" cx="849.54" cy="-439" rx="85.59" ry="18"/>
<text text-anchor="middle" x="849.54" y="-435.3" font-family="Times,serif" font-size="14.00">slope_einwohner_loc</text>
</g>
<!-- slope_einwohner -->
<g id="node13" class="node">
<title>slope_einwohner</title>
<ellipse fill="white" stroke="black" stroke-dasharray="5,2" cx="528.54" cy="-276" rx="70.69" ry="18"/>
<text text-anchor="middle" x="528.54" y="-272.3" font-family="Times,serif" font-size="14.00">slope_einwohner</text>
</g>
<!-- slope_einwohner_loc&#45;&gt;slope_einwohner -->
<g id="edge5" class="edge">
<title>slope_einwohner_loc&#45;&gt;slope_einwohner</title>
<path fill="none" stroke="black" d="M839.49,-420.79C824.43,-396.61 793.66,-352.95 755.54,-330 748.4,-325.7 656.36,-304.97 591.7,-290.74"/>
<polygon fill="black" stroke="black" points="592.69,-287.16 582.17,-288.43 591.19,-294 592.69,-287.16"/>
</g>
<!-- slope_einwohner_scale -->
<g id="node4" class="node">
<title>slope_einwohner_scale</title>
<ellipse fill="white" stroke="black" cx="1046.54" cy="-439" rx="92.88" ry="18"/>
<text text-anchor="middle" x="1046.54" y="-435.3" font-family="Times,serif" font-size="14.00">slope_einwohner_scale</text>
</g>
<!-- slope_einwohner_scale&#45;&gt;slope_einwohner -->
<g id="edge6" class="edge">
<title>slope_einwohner_scale&#45;&gt;slope_einwohner</title>
<path fill="none" stroke="black" d="M1036.18,-420.96C1020.04,-396.14 986.37,-350.74 944.54,-330 809.99,-263.28 756.86,-317.64 608.54,-294 602.76,-293.08 596.76,-292.01 590.77,-290.87"/>
<polygon fill="black" stroke="black" points="591.53,-287.26 581.04,-288.76 590.17,-294.12 591.53,-287.26"/>
</g>
<!-- beta_area -->
<g id="node5" class="node">
<title>beta_area</title>
<ellipse fill="white" stroke="black" cx="661.54" cy="-276" rx="44.39" ry="18"/>
<text text-anchor="middle" x="661.54" y="-272.3" font-family="Times,serif" font-size="14.00">beta_area</text>
</g>
<!-- log_mu -->
<g id="node8" class="node">
<title>log_mu</title>
<ellipse fill="white" stroke="black" stroke-dasharray="5,2" cx="528.54" cy="-201" rx="38.19" ry="18"/>
<text text-anchor="middle" x="528.54" y="-197.3" font-family="Times,serif" font-size="14.00">log_mu</text>
</g>
<!-- beta_area&#45;&gt;log_mu -->
<g id="edge8" class="edge">
<title>beta_area&#45;&gt;log_mu</title>
<path fill="none" stroke="black" d="M648.74,-258.31C639.74,-247.75 626.8,-234.68 612.54,-227 597.73,-219.02 591.71,-223.65 575.54,-219 572.95,-218.26 570.3,-217.44 567.64,-216.58"/>
<polygon fill="black" stroke="black" points="569.02,-213.02 558.43,-213.14 566.78,-219.65 569.02,-213.02"/>
</g>
<!-- concentration_tilde -->
<g id="node6" class="node">
<title>concentration_tilde</title>
<ellipse fill="white" stroke="black" cx="663.54" cy="-201" rx="78.79" ry="18"/>
<text text-anchor="middle" x="663.54" y="-197.3" font-family="Times,serif" font-size="14.00">concentration_tilde</text>
</g>
<!-- concentration -->
<g id="node7" class="node">
<title>concentration</title>
<ellipse fill="white" stroke="black" stroke-dasharray="5,2" cx="655.54" cy="-129" rx="58.49" ry="18"/>
<text text-anchor="middle" x="655.54" y="-125.3" font-family="Times,serif" font-size="14.00">concentration</text>
</g>
<!-- concentration_tilde&#45;&gt;concentration -->
<g id="edge1" class="edge">
<title>concentration_tilde&#45;&gt;concentration</title>
<path fill="none" stroke="black" d="M661.57,-182.7C660.71,-175.24 659.7,-166.32 658.74,-157.97"/>
<polygon fill="black" stroke="black" points="662.11,-157.64 657.5,-148.1 655.16,-158.44 662.11,-157.64"/>
</g>
<!-- obs -->
<g id="node14" class="node">
<title>obs</title>
<ellipse fill="grey" stroke="black" cx="558.54" cy="-57" rx="27" ry="18"/>
<text text-anchor="middle" x="558.54" y="-53.3" font-family="Times,serif" font-size="14.00">obs</text>
</g>
<!-- concentration&#45;&gt;obs -->
<g id="edge12" class="edge">
<title>concentration&#45;&gt;obs</title>
<path fill="none" stroke="black" d="M633.53,-112.12C619.18,-101.76 600.37,-88.18 585.18,-77.22"/>
<polygon fill="black" stroke="black" points="587.42,-73.8 577.26,-70.78 583.32,-79.47 587.42,-73.8"/>
</g>
<!-- mu -->
<g id="node9" class="node">
<title>mu</title>
<ellipse fill="white" stroke="black" stroke-dasharray="5,2" cx="544.54" cy="-129" rx="27" ry="18"/>
<text text-anchor="middle" x="544.54" y="-125.3" font-family="Times,serif" font-size="14.00">mu</text>
</g>
<!-- log_mu&#45;&gt;mu -->
<g id="edge11" class="edge">
<title>log_mu&#45;&gt;mu</title>
<path fill="none" stroke="black" d="M532.5,-182.7C534.22,-175.15 536.29,-166.12 538.22,-157.68"/>
<polygon fill="black" stroke="black" points="541.82,-158.63 540.64,-148.1 535,-157.07 541.82,-158.63"/>
</g>
<!-- mu&#45;&gt;obs -->
<g id="edge13" class="edge">
<title>mu&#45;&gt;obs</title>
<path fill="none" stroke="black" d="M548.01,-110.7C549.51,-103.15 551.32,-94.12 553.01,-85.68"/>
<polygon fill="black" stroke="black" points="556.59,-86.6 555.12,-76.1 549.73,-85.22 556.59,-86.6"/>
</g>
<!-- intercept_district_decentered -->
<g id="node10" class="node">
<title>intercept_district_decentered</title>
<ellipse fill="white" stroke="black" cx="243.54" cy="-439" rx="112.38" ry="18"/>
<text text-anchor="middle" x="243.54" y="-435.3" font-family="Times,serif" font-size="14.00">intercept_district_decentered</text>
</g>
<!-- intercept_district_decentered&#45;&gt;intercept_district -->
<g id="edge4" class="edge">
<title>intercept_district_decentered&#45;&gt;intercept_district</title>
<path fill="none" stroke="black" d="M250.39,-420.77C261.51,-392.81 283.56,-337.33 296.79,-304.06"/>
<polygon fill="black" stroke="black" points="300.3,-305.69 300.75,-295.11 293.8,-303.11 300.3,-305.69"/>
</g>
<!-- intercept_district&#45;&gt;log_mu -->
<g id="edge9" class="edge">
<title>intercept_district&#45;&gt;log_mu</title>
<path fill="none" stroke="black" d="M348.18,-260.86C376.3,-251.16 414.62,-238.07 448.54,-227 460.85,-222.98 474.26,-218.74 486.52,-214.91"/>
<polygon fill="black" stroke="black" points="487.44,-217.98 495.95,-211.67 485.36,-211.3 487.44,-217.98"/>
</g>
<!-- slope_einwohner_decentered -->
<g id="node12" class="node">
<title>slope_einwohner_decentered</title>
<ellipse fill="white" stroke="black" cx="487.54" cy="-439" rx="113.18" ry="18"/>
<text text-anchor="middle" x="487.54" y="-435.3" font-family="Times,serif" font-size="14.00">slope_einwohner_decentered</text>
</g>
<!-- slope_einwohner_decentered&#45;&gt;slope_einwohner -->
<g id="edge7" class="edge">
<title>slope_einwohner_decentered&#45;&gt;slope_einwohner</title>
<path fill="none" stroke="black" d="M491.93,-420.77C499.02,-392.93 513.06,-337.81 521.54,-304.5"/>
<polygon fill="black" stroke="black" points="525.11,-305.66 524.19,-295.11 518.33,-303.93 525.11,-305.66"/>
</g>
<!-- slope_einwohner&#45;&gt;log_mu -->
<g id="edge10" class="edge">
<title>slope_einwohner&#45;&gt;log_mu</title>
<path fill="none" stroke="black" d="M528.54,-257.7C528.54,-249.49 528.54,-239.46 528.54,-230.19"/>
<polygon fill="black" stroke="black" points="532.05,-230.43 528.54,-220.43 525.05,-230.43 532.05,-230.43"/>
</g>
<!-- distribution_description_node -->
<g id="node15" class="node">
<title>distribution_description_node</title>
<text text-anchor="start" x="1165.04" y="-532.8" font-family="Times,serif" font-size="14.00">intercept_loc ~ Normal</text>
<text text-anchor="start" x="1165.04" y="-517.8" font-family="Times,serif" font-size="14.00">intercept_scale ~ HalfCauchy</text>
<text text-anchor="start" x="1165.04" y="-502.8" font-family="Times,serif" font-size="14.00">slope_einwohner_loc ~ Normal</text>
<text text-anchor="start" x="1165.04" y="-487.8" font-family="Times,serif" font-size="14.00">slope_einwohner_scale ~ HalfCauchy</text>
<text text-anchor="start" x="1165.04" y="-472.8" font-family="Times,serif" font-size="14.00">beta_area ~ Normal</text>
<text text-anchor="start" x="1165.04" y="-457.8" font-family="Times,serif" font-size="14.00">concentration_tilde ~ HalfCauchy</text>
<text text-anchor="start" x="1165.04" y="-442.8" font-family="Times,serif" font-size="14.00">concentration ~ Deterministic</text>
<text text-anchor="start" x="1165.04" y="-427.8" font-family="Times,serif" font-size="14.00">intercept_district_decentered ~ Normal</text>
<text text-anchor="start" x="1165.04" y="-412.8" font-family="Times,serif" font-size="14.00">intercept_district ~ Deterministic</text>
<text text-anchor="start" x="1165.04" y="-397.8" font-family="Times,serif" font-size="14.00">slope_einwohner_decentered ~ Normal</text>
<text text-anchor="start" x="1165.04" y="-382.8" font-family="Times,serif" font-size="14.00">slope_einwohner ~ Deterministic</text>
<text text-anchor="start" x="1165.04" y="-367.8" font-family="Times,serif" font-size="14.00">log_mu ~ Deterministic</text>
<text text-anchor="start" x="1165.04" y="-352.8" font-family="Times,serif" font-size="14.00">mu ~ Deterministic</text>
<text text-anchor="start" x="1165.04" y="-337.8" font-family="Times,serif" font-size="14.00">obs ~ NegativeBinomial2</text>
</g>
</g>
</svg>
