<?xml version="1.0" encoding="UTF-8" standalone="no"?>
<!DOCTYPE svg PUBLIC "-//W3C//DTD SVG 1.1//EN"
 "http://www.w3.org/Graphics/SVG/1.1/DTD/svg11.dtd">
<!-- Generated by graphviz version 8.0.1 (20230327.1645)
 -->
<!-- Pages: 1 -->
<svg width="900pt" height="526pt"
 viewBox="0.00 0.00 900.04 526.00" xmlns="http://www.w3.org/2000/svg" xmlns:xlink="http://www.w3.org/1999/xlink">
<g id="graph0" class="graph" transform="scale(1 1) rotate(0) translate(4 522)">
<polygon fill="white" stroke="none" points="-4,4 -4,-522 896.04,-522 896.04,4 -4,4"/>
<g id="clust1" class="cluster">
<title>cluster_districts</title>
<polygon fill="none" stroke="black" points="120.54,-227 120.54,-302 436.54,-302 436.54,-227 120.54,-227"/>
<text text-anchor="middle" x="407.04" y="-234.8" font-family="Times,serif" font-size="14.00">districts</text>
</g>
<g id="clust2" class="cluster">
<title>cluster_data</title>
<polygon fill="none" stroke="black" points="352.54,-8 352.54,-83 422.54,-83 422.54,-8 352.54,-8"/>
<text text-anchor="middle" x="403.04" y="-15.8" font-family="Times,serif" font-size="14.00">data</text>
</g>
<!-- intercept_loc -->
<g id="node1" class="node">
<title>intercept_loc</title>
<ellipse fill="white" stroke="black" cx="56.54" cy="-424" rx="56.59" ry="18"/>
<text text-anchor="middle" x="56.54" y="-420.3" font-family="Times,serif" font-size="14.00">intercept_loc</text>
</g>
<!-- intercept_district -->
<g id="node10" class="node">
<title>intercept_district</title>
<ellipse fill="white" stroke="black" cx="198.54" cy="-276" rx="70.39" ry="18"/>
<text text-anchor="middle" x="198.54" y="-272.3" font-family="Times,serif" font-size="14.00">intercept_district</text>
</g>
<!-- intercept_loc&#45;&gt;intercept_district -->
<g id="edge2" class="edge">
<title>intercept_loc&#45;&gt;intercept_district</title>
<path fill="none" stroke="black" d="M65.98,-405.85C77.41,-386.08 98.06,-353.32 121.54,-330 133.33,-318.29 148.01,-307.47 161.38,-298.71"/>
<polygon fill="black" stroke="black" points="162.82,-301.3 169.37,-292.98 159.05,-295.4 162.82,-301.3"/>
</g>
<!-- intercept_scale -->
<g id="node2" class="node">
<title>intercept_scale</title>
<ellipse fill="white" stroke="black" cx="194.54" cy="-424" rx="63.89" ry="18"/>
<text text-anchor="middle" x="194.54" y="-420.3" font-family="Times,serif" font-size="14.00">intercept_scale</text>
</g>
<!-- intercept_scale&#45;&gt;intercept_district -->
<g id="edge3" class="edge">
<title>intercept_scale&#45;&gt;intercept_district</title>
<path fill="none" stroke="black" d="M195.02,-405.68C195.7,-380.87 196.96,-334.95 197.77,-305.2"/>
<polygon fill="black" stroke="black" points="201.3,-305.39 198.07,-295.3 194.3,-305.2 201.3,-305.39"/>
</g>
<!-- slope_einwohner_loc -->
<g id="node3" class="node">
<title>slope_einwohner_loc</title>
<ellipse fill="white" stroke="black" cx="361.54" cy="-424" rx="85.59" ry="18"/>
<text text-anchor="middle" x="361.54" y="-420.3" font-family="Times,serif" font-size="14.00">slope_einwohner_loc</text>
</g>
<!-- slope_einwohner -->
<g id="node11" class="node">
<title>slope_einwohner</title>
<ellipse fill="white" stroke="black" cx="357.54" cy="-276" rx="70.69" ry="18"/>
<text text-anchor="middle" x="357.54" y="-272.3" font-family="Times,serif" font-size="14.00">slope_einwohner</text>
</g>
<!-- slope_einwohner_loc&#45;&gt;slope_einwohner -->
<g id="edge4" class="edge">
<title>slope_einwohner_loc&#45;&gt;slope_einwohner</title>
<path fill="none" stroke="black" d="M361.07,-405.68C360.39,-380.87 359.13,-334.95 358.32,-305.2"/>
<polygon fill="black" stroke="black" points="361.79,-305.2 358.02,-295.3 354.79,-305.39 361.79,-305.2"/>
</g>
<!-- slope_einwohner_scale -->
<g id="node4" class="node">
<title>slope_einwohner_scale</title>
<ellipse fill="white" stroke="black" cx="558.54" cy="-424" rx="92.88" ry="18"/>
<text text-anchor="middle" x="558.54" y="-420.3" font-family="Times,serif" font-size="14.00">slope_einwohner_scale</text>
</g>
<!-- slope_einwohner_scale&#45;&gt;slope_einwohner -->
<g id="edge5" class="edge">
<title>slope_einwohner_scale&#45;&gt;slope_einwohner</title>
<path fill="none" stroke="black" d="M542.33,-405.83C523.07,-386.03 489.42,-353.24 456.54,-330 439.08,-317.66 418.41,-306.16 400.48,-297.05"/>
<polygon fill="black" stroke="black" points="402.36,-293.57 391.85,-292.25 399.23,-299.84 402.36,-293.57"/>
</g>
<!-- beta_area -->
<g id="node5" class="node">
<title>beta_area</title>
<ellipse fill="white" stroke="black" cx="490.54" cy="-276" rx="44.39" ry="18"/>
<text text-anchor="middle" x="490.54" y="-272.3" font-family="Times,serif" font-size="14.00">beta_area</text>
</g>
<!-- log_mu -->
<g id="node8" class="node">
<title>log_mu</title>
<ellipse fill="white" stroke="black" stroke-dasharray="5,2" cx="357.54" cy="-201" rx="38.19" ry="18"/>
<text text-anchor="middle" x="357.54" y="-197.3" font-family="Times,serif" font-size="14.00">log_mu</text>
</g>
<!-- beta_area&#45;&gt;log_mu -->
<g id="edge6" class="edge">
<title>beta_area&#45;&gt;log_mu</title>
<path fill="none" stroke="black" d="M477.39,-258.34C468.18,-247.79 454.97,-234.73 440.54,-227 426.1,-219.26 420.28,-223.57 404.54,-219 401.96,-218.25 399.3,-217.43 396.64,-216.57"/>
<polygon fill="black" stroke="black" points="398.03,-213 387.44,-213.11 395.78,-219.63 398.03,-213"/>
</g>
<!-- concentration_tilde -->
<g id="node6" class="node">
<title>concentration_tilde</title>
<ellipse fill="white" stroke="black" cx="492.54" cy="-201" rx="78.79" ry="18"/>
<text text-anchor="middle" x="492.54" y="-197.3" font-family="Times,serif" font-size="14.00">concentration_tilde</text>
</g>
<!-- concentration -->
<g id="node7" class="node">
<title>concentration</title>
<ellipse fill="white" stroke="black" stroke-dasharray="5,2" cx="484.54" cy="-129" rx="58.49" ry="18"/>
<text text-anchor="middle" x="484.54" y="-125.3" font-family="Times,serif" font-size="14.00">concentration</text>
</g>
<!-- concentration_tilde&#45;&gt;concentration -->
<g id="edge1" class="edge">
<title>concentration_tilde&#45;&gt;concentration</title>
<path fill="none" stroke="black" d="M490.57,-182.7C489.71,-175.24 488.7,-166.32 487.74,-157.97"/>
<polygon fill="black" stroke="black" points="491.11,-157.64 486.5,-148.1 484.16,-158.44 491.11,-157.64"/>
</g>
<!-- obs -->
<g id="node12" class="node">
<title>obs</title>
<ellipse fill="grey" stroke="black" cx="387.54" cy="-57" rx="27" ry="18"/>
<text text-anchor="middle" x="387.54" y="-53.3" font-family="Times,serif" font-size="14.00">obs</text>
</g>
<!-- concentration&#45;&gt;obs -->
<g id="edge10" class="edge">
<title>concentration&#45;&gt;obs</title>
<path fill="none" stroke="black" d="M462.53,-112.12C448.18,-101.76 429.37,-88.18 414.18,-77.22"/>
<polygon fill="black" stroke="black" points="416.42,-73.8 406.26,-70.78 412.32,-79.47 416.42,-73.8"/>
</g>
<!-- mu -->
<g id="node9" class="node">
<title>mu</title>
<ellipse fill="white" stroke="black" stroke-dasharray="5,2" cx="373.54" cy="-129" rx="27" ry="18"/>
<text text-anchor="middle" x="373.54" y="-125.3" font-family="Times,serif" font-size="14.00">mu</text>
</g>
<!-- log_mu&#45;&gt;mu -->
<g id="edge9" class="edge">
<title>log_mu&#45;&gt;mu</title>
<path fill="none" stroke="black" d="M361.5,-182.7C363.22,-175.15 365.29,-166.12 367.22,-157.68"/>
<polygon fill="black" stroke="black" points="370.82,-158.63 369.64,-148.1 364,-157.07 370.82,-158.63"/>
</g>
<!-- mu&#45;&gt;obs -->
<g id="edge11" class="edge">
<title>mu&#45;&gt;obs</title>
<path fill="none" stroke="black" d="M377.01,-110.7C378.51,-103.15 380.32,-94.12 382.01,-85.68"/>
<polygon fill="black" stroke="black" points="385.59,-86.6 384.12,-76.1 378.73,-85.22 385.59,-86.6"/>
</g>
<!-- intercept_district&#45;&gt;log_mu -->
<g id="edge7" class="edge">
<title>intercept_district&#45;&gt;log_mu</title>
<path fill="none" stroke="black" d="M221.92,-258.72C237.22,-248.59 257.95,-235.86 277.54,-227 289.13,-221.76 302.13,-217.19 314.23,-213.43"/>
<polygon fill="black" stroke="black" points="314.99,-216.56 323.57,-210.35 312.99,-209.85 314.99,-216.56"/>
</g>
<!-- slope_einwohner&#45;&gt;log_mu -->
<g id="edge8" class="edge">
<title>slope_einwohner&#45;&gt;log_mu</title>
<path fill="none" stroke="black" d="M357.54,-257.7C357.54,-249.49 357.54,-239.46 357.54,-230.19"/>
<polygon fill="black" stroke="black" points="361.05,-230.43 357.54,-220.43 354.05,-230.43 361.05,-230.43"/>
</g>
<!-- distribution_description_node -->
<g id="node13" class="node">
<title>distribution_description_node</title>
<text text-anchor="start" x="677.04" y="-502.8" font-family="Times,serif" font-size="14.00">intercept_loc ~ Normal</text>
<text text-anchor="start" x="677.04" y="-487.8" font-family="Times,serif" font-size="14.00">intercept_scale ~ HalfCauchy</text>
<text text-anchor="start" x="677.04" y="-472.8" font-family="Times,serif" font-size="14.00">slope_einwohner_loc ~ Normal</text>
<text text-anchor="start" x="677.04" y="-457.8" font-family="Times,serif" font-size="14.00">slope_einwohner_scale ~ HalfCauchy</text>
<text text-anchor="start" x="677.04" y="-442.8" font-family="Times,serif" font-size="14.00">beta_area ~ Normal</text>
<text text-anchor="start" x="677.04" y="-427.8" font-family="Times,serif" font-size="14.00">concentration_tilde ~ HalfCauchy</text>
<text text-anchor="start" x="677.04" y="-412.8" font-family="Times,serif" font-size="14.00">concentration ~ Deterministic</text>
<text text-anchor="start" x="677.04" y="-397.8" font-family="Times,serif" font-size="14.00">intercept_district ~ Normal</text>
<text text-anchor="start" x="677.04" y="-382.8" font-family="Times,serif" font-size="14.00">slope_einwohner ~ Normal</text>
<text text-anchor="start" x="677.04" y="-367.8" font-family="Times,serif" font-size="14.00">log_mu ~ Deterministic</text>
<text text-anchor="start" x="677.04" y="-352.8" font-family="Times,serif" font-size="14.00">mu ~ Deterministic</text>
<text text-anchor="start" x="677.04" y="-337.8" font-family="Times,serif" font-size="14.00">obs ~ NegativeBinomial2</text>
</g>
</g>
</svg>
