<?xml version="1.0" encoding="UTF-8" standalone="no"?>
<!DOCTYPE svg PUBLIC "-//W3C//DTD SVG 1.1//EN"
 "http://www.w3.org/Graphics/SVG/1.1/DTD/svg11.dtd">
<!-- Generated by graphviz version 13.0.0 (20250608.1624)
 -->
<!-- Pages: 1 -->
<svg width="4651pt" height="1015pt"
 viewBox="0.00 0.00 4651.00 1015.00" xmlns="http://www.w3.org/2000/svg" xmlns:xlink="http://www.w3.org/1999/xlink">
<g id="graph0" class="graph" transform="scale(1 1) rotate(0) translate(4 1011)">
<polygon fill="white" stroke="none" points="-4,4 -4,-1011 4647.19,-1011 4647.19,4 -4,4"/>
<g id="clust1" class="cluster">
<title>cluster_markets</title>
<polygon fill="none" stroke="black" points="2380.82,-228.5 2380.82,-377 3445.82,-377 3445.82,-228.5 2380.82,-228.5"/>
<text xml:space="preserve" text-anchor="middle" x="3416.07" y="-235.7" font-family="Times,serif" font-size="14.00">markets</text>
</g>
<g id="clust2" class="cluster">
<title>cluster_data</title>
<polygon fill="none" stroke="black" points="1493.82,-8 1493.82,-156.5 1775.82,-156.5 1775.82,-8 1493.82,-8"/>
<text xml:space="preserve" text-anchor="middle" x="1756.57" y="-15.2" font-family="Times,serif" font-size="14.00">data</text>
</g>
<!-- retention_nn/layers.0.bias -->
<g id="node1" class="node">
<title>retention_nn/layers.0.bias</title>
<ellipse fill="white" stroke="black" cx="1309.82" cy="-279" rx="106.63" ry="18"/>
<text xml:space="preserve" text-anchor="middle" x="1309.82" y="-273.95" font-family="Times,serif" font-size="14.00">retention_nn/layers.0.bias</text>
</g>
<!-- retention -->
<g id="node11" class="node">
<title>retention</title>
<ellipse fill="white" stroke="black" stroke-dasharray="5,2" cx="1309.82" cy="-202.5" rx="43.67" ry="18"/>
<text xml:space="preserve" text-anchor="middle" x="1309.82" y="-197.45" font-family="Times,serif" font-size="14.00">retention</text>
</g>
<!-- retention_nn/layers.0.bias&#45;&gt;retention -->
<g id="edge1" class="edge">
<title>retention_nn/layers.0.bias&#45;&gt;retention</title>
<path fill="none" stroke="black" d="M1309.82,-260.72C1309.82,-252.32 1309.82,-241.99 1309.82,-232.43"/>
<polygon fill="black" stroke="black" points="1313.32,-232.46 1309.82,-222.46 1306.32,-232.46 1313.32,-232.46"/>
</g>
<!-- retention_nn/layers.0.kernel -->
<g id="node2" class="node">
<title>retention_nn/layers.0.kernel</title>
<ellipse fill="white" stroke="black" cx="1548.82" cy="-279" rx="114.82" ry="18"/>
<text xml:space="preserve" text-anchor="middle" x="1548.82" y="-273.95" font-family="Times,serif" font-size="14.00">retention_nn/layers.0.kernel</text>
</g>
<!-- retention_nn/layers.0.kernel&#45;&gt;retention -->
<g id="edge2" class="edge">
<title>retention_nn/layers.0.kernel&#45;&gt;retention</title>
<path fill="none" stroke="black" d="M1512.54,-261.5C1488.35,-250.97 1455.64,-237.64 1425.82,-228.5 1404.89,-222.09 1381.35,-216.69 1360.98,-212.57"/>
<polygon fill="black" stroke="black" points="1361.68,-209.14 1351.19,-210.65 1360.33,-216.01 1361.68,-209.14"/>
</g>
<!-- retention_nn/layers.1.bias -->
<g id="node3" class="node">
<title>retention_nn/layers.1.bias</title>
<ellipse fill="white" stroke="black" cx="1787.82" cy="-279" rx="106.63" ry="18"/>
<text xml:space="preserve" text-anchor="middle" x="1787.82" y="-273.95" font-family="Times,serif" font-size="14.00">retention_nn/layers.1.bias</text>
</g>
<!-- retention_nn/layers.1.bias&#45;&gt;retention -->
<g id="edge3" class="edge">
<title>retention_nn/layers.1.bias&#45;&gt;retention</title>
<path fill="none" stroke="black" d="M1757.08,-261.37C1734.46,-250 1702.6,-235.71 1672.82,-228.5 1616.03,-214.75 1451.75,-207.82 1364.99,-205.03"/>
<polygon fill="black" stroke="black" points="1365.16,-201.53 1355.05,-204.72 1364.94,-208.53 1365.16,-201.53"/>
</g>
<!-- retention_nn/layers.1.kernel -->
<g id="node4" class="node">
<title>retention_nn/layers.1.kernel</title>
<ellipse fill="white" stroke="black" cx="2026.82" cy="-279" rx="114.82" ry="18"/>
<text xml:space="preserve" text-anchor="middle" x="2026.82" y="-273.95" font-family="Times,serif" font-size="14.00">retention_nn/layers.1.kernel</text>
</g>
<!-- retention_nn/layers.1.kernel&#45;&gt;retention -->
<g id="edge4" class="edge">
<title>retention_nn/layers.1.kernel&#45;&gt;retention</title>
<path fill="none" stroke="black" d="M1994.12,-261.27C1969.88,-249.76 1935.66,-235.36 1903.82,-228.5 1802.06,-206.56 1491.9,-203.67 1364.91,-203.44"/>
<polygon fill="black" stroke="black" points="1365.08,-199.94 1355.08,-203.42 1365.07,-206.94 1365.08,-199.94"/>
</g>
<!-- retention_nn/layers.2.bias -->
<g id="node5" class="node">
<title>retention_nn/layers.2.bias</title>
<ellipse fill="white" stroke="black" cx="2265.82" cy="-279" rx="106.63" ry="18"/>
<text xml:space="preserve" text-anchor="middle" x="2265.82" y="-273.95" font-family="Times,serif" font-size="14.00">retention_nn/layers.2.bias</text>
</g>
<!-- retention_nn/layers.2.bias&#45;&gt;retention -->
<g id="edge5" class="edge">
<title>retention_nn/layers.2.bias&#45;&gt;retention</title>
<path fill="none" stroke="black" d="M2235.64,-261.27C2213.04,-249.68 2180.95,-235.18 2150.82,-228.5 2074.66,-211.62 1540.14,-205.51 1365.14,-203.94"/>
<polygon fill="black" stroke="black" points="1365.2,-200.44 1355.17,-203.85 1365.13,-207.44 1365.2,-200.44"/>
</g>
<!-- retention_nn/layers.2.kernel -->
<g id="node6" class="node">
<title>retention_nn/layers.2.kernel</title>
<ellipse fill="white" stroke="black" cx="114.82" cy="-279" rx="114.82" ry="18"/>
<text xml:space="preserve" text-anchor="middle" x="114.82" y="-273.95" font-family="Times,serif" font-size="14.00">retention_nn/layers.2.kernel</text>
</g>
<!-- retention_nn/layers.2.kernel&#45;&gt;retention -->
<g id="edge6" class="edge">
<title>retention_nn/layers.2.kernel&#45;&gt;retention</title>
<path fill="none" stroke="black" d="M146.96,-261.34C171.22,-249.7 205.69,-235.11 237.82,-228.5 337.53,-207.98 1049.59,-204.27 1254.67,-203.63"/>
<polygon fill="black" stroke="black" points="1254.53,-207.13 1264.52,-203.6 1254.51,-200.13 1254.53,-207.13"/>
</g>
<!-- retention_nn/layers.3.bias -->
<g id="node7" class="node">
<title>retention_nn/layers.3.bias</title>
<ellipse fill="white" stroke="black" cx="353.82" cy="-279" rx="106.63" ry="18"/>
<text xml:space="preserve" text-anchor="middle" x="353.82" y="-273.95" font-family="Times,serif" font-size="14.00">retention_nn/layers.3.bias</text>
</g>
<!-- retention_nn/layers.3.bias&#45;&gt;retention -->
<g id="edge7" class="edge">
<title>retention_nn/layers.3.bias&#45;&gt;retention</title>
<path fill="none" stroke="black" d="M383.99,-261.27C406.59,-249.68 438.68,-235.18 468.82,-228.5 544.97,-211.62 1079.49,-205.51 1254.5,-203.94"/>
<polygon fill="black" stroke="black" points="1254.5,-207.44 1264.47,-203.85 1254.44,-200.44 1254.5,-207.44"/>
</g>
<!-- retention_nn/layers.3.kernel -->
<g id="node8" class="node">
<title>retention_nn/layers.3.kernel</title>
<ellipse fill="white" stroke="black" cx="592.82" cy="-279" rx="114.82" ry="18"/>
<text xml:space="preserve" text-anchor="middle" x="592.82" y="-273.95" font-family="Times,serif" font-size="14.00">retention_nn/layers.3.kernel</text>
</g>
<!-- retention_nn/layers.3.kernel&#45;&gt;retention -->
<g id="edge8" class="edge">
<title>retention_nn/layers.3.kernel&#45;&gt;retention</title>
<path fill="none" stroke="black" d="M625.51,-261.27C649.76,-249.76 683.98,-235.36 715.82,-228.5 817.57,-206.56 1127.73,-203.67 1254.72,-203.44"/>
<polygon fill="black" stroke="black" points="1254.56,-206.94 1264.55,-203.42 1254.55,-199.94 1254.56,-206.94"/>
</g>
<!-- retention_nn/layers.4.bias -->
<g id="node9" class="node">
<title>retention_nn/layers.4.bias</title>
<ellipse fill="white" stroke="black" cx="831.82" cy="-279" rx="106.63" ry="18"/>
<text xml:space="preserve" text-anchor="middle" x="831.82" y="-273.95" font-family="Times,serif" font-size="14.00">retention_nn/layers.4.bias</text>
</g>
<!-- retention_nn/layers.4.bias&#45;&gt;retention -->
<g id="edge9" class="edge">
<title>retention_nn/layers.4.bias&#45;&gt;retention</title>
<path fill="none" stroke="black" d="M862.55,-261.37C885.17,-250 917.03,-235.71 946.82,-228.5 1003.61,-214.75 1167.88,-207.82 1254.64,-205.03"/>
<polygon fill="black" stroke="black" points="1254.69,-208.53 1264.58,-204.72 1254.48,-201.53 1254.69,-208.53"/>
</g>
<!-- retention_nn/layers.4.kernel -->
<g id="node10" class="node">
<title>retention_nn/layers.4.kernel</title>
<ellipse fill="white" stroke="black" cx="1070.82" cy="-279" rx="114.82" ry="18"/>
<text xml:space="preserve" text-anchor="middle" x="1070.82" y="-273.95" font-family="Times,serif" font-size="14.00">retention_nn/layers.4.kernel</text>
</g>
<!-- retention_nn/layers.4.kernel&#45;&gt;retention -->
<g id="edge10" class="edge">
<title>retention_nn/layers.4.kernel&#45;&gt;retention</title>
<path fill="none" stroke="black" d="M1107.1,-261.5C1131.28,-250.97 1164,-237.64 1193.82,-228.5 1214.74,-222.09 1238.28,-216.69 1258.65,-212.57"/>
<polygon fill="black" stroke="black" points="1259.3,-216.01 1268.44,-210.65 1257.95,-209.14 1259.3,-216.01"/>
</g>
<!-- n_active_users -->
<g id="node34" class="node">
<title>n_active_users</title>
<ellipse fill="white" stroke="black" cx="1585.82" cy="-130.5" rx="65.68" ry="18"/>
<text xml:space="preserve" text-anchor="middle" x="1585.82" y="-125.45" font-family="Times,serif" font-size="14.00">n_active_users</text>
</g>
<!-- retention&#45;&gt;n_active_users -->
<g id="edge44" class="edge">
<title>retention&#45;&gt;n_active_users</title>
<path fill="none" stroke="black" d="M1346.47,-192.2C1392.83,-180.44 1473.23,-160.06 1527.93,-146.18"/>
<polygon fill="black" stroke="black" points="1528.55,-149.64 1537.38,-143.78 1526.83,-142.85 1528.55,-149.64"/>
</g>
<!-- market_intercept_loc -->
<g id="node12" class="node">
<title>market_intercept_loc</title>
<ellipse fill="white" stroke="black" cx="1746.82" cy="-706" rx="89.74" ry="18"/>
<text xml:space="preserve" text-anchor="middle" x="1746.82" y="-700.95" font-family="Times,serif" font-size="14.00">market_intercept_loc</text>
</g>
<!-- market_intercept_decentered -->
<g id="node26" class="node">
<title>market_intercept_decentered</title>
<ellipse fill="white" stroke="black" cx="2506.82" cy="-351" rx="118.4" ry="18"/>
<text xml:space="preserve" text-anchor="middle" x="2506.82" y="-345.95" font-family="Times,serif" font-size="14.00">market_intercept_decentered</text>
</g>
<!-- market_intercept_loc&#45;&gt;market_intercept_decentered -->
<g id="edge11" class="edge">
<title>market_intercept_loc&#45;&gt;market_intercept_decentered</title>
<path fill="none" stroke="black" d="M1746.48,-687.83C1746.5,-635.43 1754.39,-476.84 1845.82,-405 1886.66,-372.9 2198.53,-359.72 2378.92,-354.73"/>
<polygon fill="black" stroke="black" points="2378.92,-358.24 2388.83,-354.47 2378.74,-351.24 2378.92,-358.24"/>
</g>
<!-- market_intercept -->
<g id="node27" class="node">
<title>market_intercept</title>
<ellipse fill="white" stroke="black" stroke-dasharray="5,2" cx="2484.82" cy="-279" rx="73.87" ry="18"/>
<text xml:space="preserve" text-anchor="middle" x="2484.82" y="-273.95" font-family="Times,serif" font-size="14.00">market_intercept</text>
</g>
<!-- market_intercept_loc&#45;&gt;market_intercept -->
<g id="edge14" class="edge">
<title>market_intercept_loc&#45;&gt;market_intercept</title>
<path fill="none" stroke="black" d="M1747.2,-687.52C1749.29,-636.28 1762.59,-485.01 1845.82,-405 2021,-236.58 2141.34,-332.02 2381.82,-297 2392.4,-295.46 2403.57,-293.73 2414.51,-291.97"/>
<polygon fill="black" stroke="black" points="2414.97,-295.44 2424.28,-290.38 2413.85,-288.53 2414.97,-295.44"/>
</g>
<!-- market_intercept_scale -->
<g id="node13" class="node">
<title>market_intercept_scale</title>
<ellipse fill="white" stroke="black" cx="1951.82" cy="-706" rx="96.9" ry="18"/>
<text xml:space="preserve" text-anchor="middle" x="1951.82" y="-700.95" font-family="Times,serif" font-size="14.00">market_intercept_scale</text>
</g>
<!-- market_intercept_scale&#45;&gt;market_intercept_decentered -->
<g id="edge12" class="edge">
<title>market_intercept_scale&#45;&gt;market_intercept_decentered</title>
<path fill="none" stroke="black" d="M1951.98,-687.57C1953.49,-635.14 1965.75,-477.99 2056.82,-405 2104.78,-366.55 2261.92,-355.3 2377.04,-352.36"/>
<polygon fill="black" stroke="black" points="2376.96,-355.86 2386.88,-352.13 2376.8,-348.86 2376.96,-355.86"/>
</g>
<!-- market_intercept_scale&#45;&gt;market_intercept -->
<g id="edge15" class="edge">
<title>market_intercept_scale&#45;&gt;market_intercept</title>
<path fill="none" stroke="black" d="M1952.84,-687.76C1956.78,-637.19 1975.11,-487.56 2056.82,-405 2106.91,-354.38 2306.07,-311.96 2414.16,-292.09"/>
<polygon fill="black" stroke="black" points="2414.58,-295.57 2423.79,-290.34 2413.33,-288.69 2414.58,-295.57"/>
</g>
<!-- market_b_age_loc -->
<g id="node14" class="node">
<title>market_b_age_loc</title>
<ellipse fill="white" stroke="black" cx="2145.82" cy="-706" rx="79.5" ry="18"/>
<text xml:space="preserve" text-anchor="middle" x="2145.82" y="-700.95" font-family="Times,serif" font-size="14.00">market_b_age_loc</text>
</g>
<!-- market_b_age_decentered -->
<g id="node28" class="node">
<title>market_b_age_decentered</title>
<ellipse fill="white" stroke="black" cx="2751.82" cy="-351" rx="108.16" ry="18"/>
<text xml:space="preserve" text-anchor="middle" x="2751.82" y="-345.95" font-family="Times,serif" font-size="14.00">market_b_age_decentered</text>
</g>
<!-- market_b_age_loc&#45;&gt;market_b_age_decentered -->
<g id="edge18" class="edge">
<title>market_b_age_loc&#45;&gt;market_b_age_decentered</title>
<path fill="none" stroke="black" d="M2144.78,-687.85C2142.65,-635.54 2144.17,-477.15 2233.82,-405 2268.52,-377.07 2589.69,-383.19 2633.82,-377 2649.08,-374.86 2665.33,-371.88 2680.73,-368.73"/>
<polygon fill="black" stroke="black" points="2681.22,-372.2 2690.29,-366.72 2679.78,-365.35 2681.22,-372.2"/>
</g>
<!-- market_b_age -->
<g id="node29" class="node">
<title>market_b_age</title>
<ellipse fill="white" stroke="black" stroke-dasharray="5,2" cx="2640.82" cy="-279" rx="63.63" ry="18"/>
<text xml:space="preserve" text-anchor="middle" x="2640.82" y="-273.95" font-family="Times,serif" font-size="14.00">market_b_age</text>
</g>
<!-- market_b_age_loc&#45;&gt;market_b_age -->
<g id="edge21" class="edge">
<title>market_b_age_loc&#45;&gt;market_b_age</title>
<path fill="none" stroke="black" d="M2147.35,-687.61C2152.34,-639.07 2171.57,-499.51 2233.82,-405 2319.63,-274.71 2414.52,-325.97 2567.82,-297 2572.69,-296.08 2577.74,-295.05 2582.8,-293.98"/>
<polygon fill="black" stroke="black" points="2583.32,-297.45 2592.34,-291.88 2581.82,-290.61 2583.32,-297.45"/>
</g>
<!-- market_b_age_scale -->
<g id="node15" class="node">
<title>market_b_age_scale</title>
<ellipse fill="white" stroke="black" cx="2329.82" cy="-706" rx="86.67" ry="18"/>
<text xml:space="preserve" text-anchor="middle" x="2329.82" y="-700.95" font-family="Times,serif" font-size="14.00">market_b_age_scale</text>
</g>
<!-- market_b_age_scale&#45;&gt;market_b_age_decentered -->
<g id="edge19" class="edge">
<title>market_b_age_scale&#45;&gt;market_b_age_decentered</title>
<path fill="none" stroke="black" d="M2329.41,-687.69C2329.21,-635.61 2336.34,-479.32 2424.82,-405 2460.7,-374.86 2587.64,-384.97 2633.82,-377 2648.29,-374.5 2663.68,-371.5 2678.41,-368.45"/>
<polygon fill="black" stroke="black" points="2678.97,-371.91 2688.04,-366.43 2677.53,-365.06 2678.97,-371.91"/>
</g>
<!-- market_b_age_scale&#45;&gt;market_b_age -->
<g id="edge22" class="edge">
<title>market_b_age_scale&#45;&gt;market_b_age</title>
<path fill="none" stroke="black" d="M2324.35,-687.79C2306.99,-629.39 2259.48,-436.6 2352.82,-333 2385.24,-297.01 2520.31,-306.5 2567.82,-297 2572.68,-296.03 2577.72,-294.97 2582.77,-293.86"/>
<polygon fill="black" stroke="black" points="2583.31,-297.33 2592.31,-291.74 2581.79,-290.5 2583.31,-297.33"/>
</g>
<!-- market_b_cohort_age_loc -->
<g id="node16" class="node">
<title>market_b_cohort_age_loc</title>
<ellipse fill="white" stroke="black" cx="2541.82" cy="-706" rx="107.65" ry="18"/>
<text xml:space="preserve" text-anchor="middle" x="2541.82" y="-700.95" font-family="Times,serif" font-size="14.00">market_b_cohort_age_loc</text>
</g>
<!-- market_b_cohort_age_decentered -->
<g id="node30" class="node">
<title>market_b_cohort_age_decentered</title>
<ellipse fill="white" stroke="black" cx="3013.82" cy="-351" rx="136.31" ry="18"/>
<text xml:space="preserve" text-anchor="middle" x="3013.82" y="-345.95" font-family="Times,serif" font-size="14.00">market_b_cohort_age_decentered</text>
</g>
<!-- market_b_cohort_age_loc&#45;&gt;market_b_cohort_age_decentered -->
<g id="edge25" class="edge">
<title>market_b_cohort_age_loc&#45;&gt;market_b_cohort_age_decentered</title>
<path fill="none" stroke="black" d="M2542.7,-687.58C2546.38,-635.17 2565.01,-478.05 2657.82,-405 2694.98,-375.74 2822.06,-384.13 2868.82,-377 2886.7,-374.27 2905.78,-371.14 2924.03,-368.04"/>
<polygon fill="black" stroke="black" points="2924.51,-371.51 2933.77,-366.37 2923.33,-364.61 2924.51,-371.51"/>
</g>
<!-- market_b_cohort_age -->
<g id="node31" class="node">
<title>market_b_cohort_age</title>
<ellipse fill="white" stroke="black" stroke-dasharray="5,2" cx="2813.82" cy="-279" rx="91.78" ry="18"/>
<text xml:space="preserve" text-anchor="middle" x="2813.82" y="-273.95" font-family="Times,serif" font-size="14.00">market_b_cohort_age</text>
</g>
<!-- market_b_cohort_age_loc&#45;&gt;market_b_cohort_age -->
<g id="edge28" class="edge">
<title>market_b_cohort_age_loc&#45;&gt;market_b_cohort_age</title>
<path fill="none" stroke="black" d="M2539.68,-687.72C2532.65,-637.66 2505.88,-490.68 2425.82,-405 2405.72,-383.5 2381.62,-401.82 2365.82,-377 2355.31,-360.51 2352.72,-347.52 2365.82,-333 2417.89,-275.27 2636.78,-307.52 2713.82,-297 2721.2,-295.99 2728.88,-294.85 2736.55,-293.65"/>
<polygon fill="black" stroke="black" points="2736.93,-297.13 2746.25,-292.1 2735.82,-290.22 2736.93,-297.13"/>
</g>
<!-- market_b_cohort_age_scale -->
<g id="node17" class="node">
<title>market_b_cohort_age_scale</title>
<ellipse fill="white" stroke="black" cx="2781.82" cy="-706" rx="114.82" ry="18"/>
<text xml:space="preserve" text-anchor="middle" x="2781.82" y="-700.95" font-family="Times,serif" font-size="14.00">market_b_cohort_age_scale</text>
</g>
<!-- market_b_cohort_age_scale&#45;&gt;market_b_cohort_age_decentered -->
<g id="edge26" class="edge">
<title>market_b_cohort_age_scale&#45;&gt;market_b_cohort_age_decentered</title>
<path fill="none" stroke="black" d="M2784.55,-687.78C2793.28,-637.9 2824.86,-491.33 2905.82,-405 2918.59,-391.37 2935.62,-380.8 2952.38,-372.81"/>
<polygon fill="black" stroke="black" points="2953.66,-376.07 2961.35,-368.78 2950.8,-369.68 2953.66,-376.07"/>
</g>
<!-- market_b_cohort_age_scale&#45;&gt;market_b_cohort_age -->
<g id="edge29" class="edge">
<title>market_b_cohort_age_scale&#45;&gt;market_b_cohort_age</title>
<path fill="none" stroke="black" d="M2780.64,-687.78C2776.05,-635.26 2754.47,-476.35 2658.82,-405 2608.87,-367.74 2421.62,-423.21 2379.82,-377 2366.7,-362.5 2366.75,-347.55 2379.82,-333 2429.69,-277.46 2639.87,-307.26 2713.82,-297 2721.2,-295.98 2728.87,-294.83 2736.54,-293.62"/>
<polygon fill="black" stroke="black" points="2736.93,-297.1 2746.25,-292.06 2735.82,-290.19 2736.93,-297.1"/>
</g>
<!-- market_b_interaction_loc -->
<g id="node18" class="node">
<title>market_b_interaction_loc</title>
<ellipse fill="white" stroke="black" cx="3748.82" cy="-706" rx="106.11" ry="18"/>
<text xml:space="preserve" text-anchor="middle" x="3748.82" y="-700.95" font-family="Times,serif" font-size="14.00">market_b_interaction_loc</text>
</g>
<!-- market_b_interaction_decentered -->
<g id="node32" class="node">
<title>market_b_interaction_decentered</title>
<ellipse fill="white" stroke="black" cx="3302.82" cy="-351" rx="134.78" ry="18"/>
<text xml:space="preserve" text-anchor="middle" x="3302.82" y="-345.95" font-family="Times,serif" font-size="14.00">market_b_interaction_decentered</text>
</g>
<!-- market_b_interaction_loc&#45;&gt;market_b_interaction_decentered -->
<g id="edge32" class="edge">
<title>market_b_interaction_loc&#45;&gt;market_b_interaction_decentered</title>
<path fill="none" stroke="black" d="M3747.9,-687.7C3744.16,-635.61 3725.42,-479.34 3633.82,-405 3603.56,-380.44 3514.38,-367.08 3436.21,-359.91"/>
<polygon fill="black" stroke="black" points="3436.54,-356.43 3426.27,-359.03 3435.92,-363.4 3436.54,-356.43"/>
</g>
<!-- market_b_interaction -->
<g id="node33" class="node">
<title>market_b_interaction</title>
<ellipse fill="white" stroke="black" stroke-dasharray="5,2" cx="3347.82" cy="-279" rx="90.25" ry="18"/>
<text xml:space="preserve" text-anchor="middle" x="3347.82" y="-273.95" font-family="Times,serif" font-size="14.00">market_b_interaction</text>
</g>
<!-- market_b_interaction_loc&#45;&gt;market_b_interaction -->
<g id="edge35" class="edge">
<title>market_b_interaction_loc&#45;&gt;market_b_interaction</title>
<path fill="none" stroke="black" d="M3745.15,-687.79C3734.31,-639.72 3699.07,-501.27 3633.82,-405 3607.34,-365.95 3597.28,-355.51 3555.82,-333 3518.03,-312.48 3472.05,-299.69 3432.94,-291.83"/>
<polygon fill="black" stroke="black" points="3433.81,-288.44 3423.33,-289.98 3432.49,-295.31 3433.81,-288.44"/>
</g>
<!-- market_b_interaction_scale -->
<g id="node19" class="node">
<title>market_b_interaction_scale</title>
<ellipse fill="white" stroke="black" cx="3985.82" cy="-706" rx="113.28" ry="18"/>
<text xml:space="preserve" text-anchor="middle" x="3985.82" y="-700.95" font-family="Times,serif" font-size="14.00">market_b_interaction_scale</text>
</g>
<!-- market_b_interaction_scale&#45;&gt;market_b_interaction_decentered -->
<g id="edge33" class="edge">
<title>market_b_interaction_scale&#45;&gt;market_b_interaction_decentered</title>
<path fill="none" stroke="black" d="M3984.72,-687.76C3980.36,-635.19 3959.47,-476.12 3863.82,-405 3830.67,-380.35 3597.07,-365.16 3441.94,-357.67"/>
<polygon fill="black" stroke="black" points="3442.11,-354.18 3431.96,-357.2 3441.78,-361.17 3442.11,-354.18"/>
</g>
<!-- market_b_interaction_scale&#45;&gt;market_b_interaction -->
<g id="edge36" class="edge">
<title>market_b_interaction_scale&#45;&gt;market_b_interaction</title>
<path fill="none" stroke="black" d="M3984.06,-687.74C3977.92,-636.46 3952.62,-483.66 3863.82,-405 3800.59,-348.99 3563.4,-309.11 3433.76,-290.97"/>
<polygon fill="black" stroke="black" points="3434.59,-287.55 3424.2,-289.65 3433.63,-294.49 3434.59,-287.55"/>
</g>
<!-- market_intercept_centered -->
<g id="node20" class="node">
<title>market_intercept_centered</title>
<ellipse fill="white" stroke="black" cx="3024.82" cy="-706" rx="109.7" ry="18"/>
<text xml:space="preserve" text-anchor="middle" x="3024.82" y="-700.95" font-family="Times,serif" font-size="14.00">market_intercept_centered</text>
</g>
<!-- market_intercept_centered&#45;&gt;market_intercept_decentered -->
<g id="edge13" class="edge">
<title>market_intercept_centered&#45;&gt;market_intercept_decentered</title>
<path fill="none" stroke="black" d="M3023.87,-687.81C3019.98,-635.39 3000.52,-476.7 2905.82,-405 2857.55,-368.45 2694.7,-385.92 2634.82,-377 2618.62,-374.59 2601.36,-371.54 2584.93,-368.42"/>
<polygon fill="black" stroke="black" points="2585.68,-365 2575.2,-366.53 2584.35,-371.87 2585.68,-365"/>
</g>
<!-- market_intercept_centered&#45;&gt;market_intercept -->
<g id="edge16" class="edge">
<title>market_intercept_centered&#45;&gt;market_intercept</title>
<path fill="none" stroke="black" d="M3025.73,-687.77C3029.52,-635.21 3048.73,-476.19 3143.82,-405 3197.95,-364.47 3401.25,-426.97 3446.82,-377 3459.99,-362.55 3460.36,-347.11 3446.82,-333 3412.97,-297.74 2616.33,-302.92 2567.82,-297 2561.46,-296.22 2554.86,-295.22 2548.28,-294.09"/>
<polygon fill="black" stroke="black" points="2549.25,-290.71 2538.78,-292.35 2547.99,-297.59 2549.25,-290.71"/>
</g>
<!-- market_b_age_centered -->
<g id="node21" class="node">
<title>market_b_age_centered</title>
<ellipse fill="white" stroke="black" cx="3251.82" cy="-706" rx="99.46" ry="18"/>
<text xml:space="preserve" text-anchor="middle" x="3251.82" y="-700.95" font-family="Times,serif" font-size="14.00">market_b_age_centered</text>
</g>
<!-- market_b_age_centered&#45;&gt;market_b_age_decentered -->
<g id="edge20" class="edge">
<title>market_b_age_centered&#45;&gt;market_b_age_decentered</title>
<path fill="none" stroke="black" d="M3251.54,-687.86C3249.67,-635.58 3236.28,-477.26 3143.82,-405 3095.42,-367.18 2929.5,-386.54 2868.82,-377 2854.18,-374.7 2838.62,-371.74 2823.78,-368.67"/>
<polygon fill="black" stroke="black" points="2824.6,-365.26 2814.09,-366.62 2823.15,-372.11 2824.6,-365.26"/>
</g>
<!-- market_b_age_centered&#45;&gt;market_b_age -->
<g id="edge23" class="edge">
<title>market_b_age_centered&#45;&gt;market_b_age</title>
<path fill="none" stroke="black" d="M3252.67,-687.76C3256.17,-636.54 3273.7,-483.91 3359.82,-405 3395.74,-372.08 3436.08,-415.61 3465.82,-377 3477.75,-361.51 3479.31,-347.15 3465.82,-333 3436.92,-302.69 2754.29,-302.84 2712.82,-297 2707.61,-296.27 2702.22,-295.33 2696.85,-294.28"/>
<polygon fill="black" stroke="black" points="2697.88,-290.92 2687.38,-292.29 2696.45,-297.77 2697.88,-290.92"/>
</g>
<!-- market_b_cohort_age_centered -->
<g id="node22" class="node">
<title>market_b_cohort_age_centered</title>
<ellipse fill="white" stroke="black" cx="3496.82" cy="-706" rx="127.61" ry="18"/>
<text xml:space="preserve" text-anchor="middle" x="3496.82" y="-700.95" font-family="Times,serif" font-size="14.00">market_b_cohort_age_centered</text>
</g>
<!-- market_b_cohort_age_centered&#45;&gt;market_b_cohort_age_decentered -->
<g id="edge27" class="edge">
<title>market_b_cohort_age_centered&#45;&gt;market_b_cohort_age_decentered</title>
<path fill="none" stroke="black" d="M3494.64,-687.52C3487.08,-634.92 3456.92,-477.36 3359.82,-405 3323.65,-378.05 3203.38,-383.94 3158.82,-377 3141.05,-374.23 3122.09,-371.1 3103.94,-368"/>
<polygon fill="black" stroke="black" points="3104.7,-364.58 3094.25,-366.34 3103.51,-371.48 3104.7,-364.58"/>
</g>
<!-- market_b_cohort_age_centered&#45;&gt;market_b_cohort_age -->
<g id="edge30" class="edge">
<title>market_b_cohort_age_centered&#45;&gt;market_b_cohort_age</title>
<path fill="none" stroke="black" d="M3503.23,-687.58C3523.74,-628.48 3580.96,-433.73 3484.82,-333 3465.41,-312.67 3096.26,-292.97 2913.96,-284.43"/>
<polygon fill="black" stroke="black" points="2914.16,-280.93 2904.01,-283.96 2913.83,-287.93 2914.16,-280.93"/>
</g>
<!-- market_b_interaction_centered -->
<g id="node23" class="node">
<title>market_b_interaction_centered</title>
<ellipse fill="white" stroke="black" cx="4242.82" cy="-706" rx="126.08" ry="18"/>
<text xml:space="preserve" text-anchor="middle" x="4242.82" y="-700.95" font-family="Times,serif" font-size="14.00">market_b_interaction_centered</text>
</g>
<!-- market_b_interaction_centered&#45;&gt;market_b_interaction_decentered -->
<g id="edge34" class="edge">
<title>market_b_interaction_centered&#45;&gt;market_b_interaction_decentered</title>
<path fill="none" stroke="black" d="M4241.04,-687.58C4234.59,-634.47 4207.28,-474.05 4107.82,-405 4055.12,-368.41 3665.5,-357.05 3448.23,-353.54"/>
<polygon fill="black" stroke="black" points="3448.3,-350.05 3438.25,-353.39 3448.19,-357.04 3448.3,-350.05"/>
</g>
<!-- market_b_interaction_centered&#45;&gt;market_b_interaction -->
<g id="edge37" class="edge">
<title>market_b_interaction_centered&#45;&gt;market_b_interaction</title>
<path fill="none" stroke="black" d="M4240.55,-687.8C4232.76,-636 4202.15,-480.44 4107.82,-405 4007.37,-324.67 3628.72,-294.48 3446.7,-284.44"/>
<polygon fill="black" stroke="black" points="3446.96,-280.95 3436.78,-283.9 3446.58,-287.94 3446.96,-280.95"/>
</g>
<!-- lam_log -->
<g id="node24" class="node">
<title>lam_log</title>
<ellipse fill="white" stroke="black" stroke-dasharray="5,2" cx="2640.82" cy="-202.5" rx="41.63" ry="18"/>
<text xml:space="preserve" text-anchor="middle" x="2640.82" y="-197.45" font-family="Times,serif" font-size="14.00">lam_log</text>
</g>
<!-- lam -->
<g id="node25" class="node">
<title>lam</title>
<ellipse fill="white" stroke="black" stroke-dasharray="5,2" cx="2087.82" cy="-130.5" rx="27" ry="18"/>
<text xml:space="preserve" text-anchor="middle" x="2087.82" y="-125.45" font-family="Times,serif" font-size="14.00">lam</text>
</g>
<!-- lam_log&#45;&gt;lam -->
<g id="edge43" class="edge">
<title>lam_log&#45;&gt;lam</title>
<path fill="none" stroke="black" d="M2601.05,-196.47C2498.48,-183.48 2226.02,-148.99 2125.64,-136.29"/>
<polygon fill="black" stroke="black" points="2126.13,-132.82 2115.77,-135.04 2125.26,-139.77 2126.13,-132.82"/>
</g>
<!-- revenue -->
<g id="node36" class="node">
<title>revenue</title>
<ellipse fill="white" stroke="black" cx="1727.82" cy="-58.5" rx="40.09" ry="18"/>
<text xml:space="preserve" text-anchor="middle" x="1727.82" y="-53.45" font-family="Times,serif" font-size="14.00">revenue</text>
</g>
<!-- lam&#45;&gt;revenue -->
<g id="edge46" class="edge">
<title>lam&#45;&gt;revenue</title>
<path fill="none" stroke="black" d="M2061.93,-124.47C2001.89,-112.79 1852.44,-83.73 1775.41,-68.75"/>
<polygon fill="black" stroke="black" points="1776.11,-65.32 1765.62,-66.85 1774.77,-72.2 1776.11,-65.32"/>
</g>
<!-- market_intercept_decentered&#45;&gt;market_intercept -->
<g id="edge17" class="edge">
<title>market_intercept_decentered&#45;&gt;market_intercept</title>
<path fill="none" stroke="black" d="M2501.38,-332.7C2499.03,-325.24 2496.23,-316.32 2493.6,-307.97"/>
<polygon fill="black" stroke="black" points="2496.98,-307.04 2490.65,-298.55 2490.3,-309.14 2496.98,-307.04"/>
</g>
<!-- market_intercept&#45;&gt;lam_log -->
<g id="edge39" class="edge">
<title>market_intercept&#45;&gt;lam_log</title>
<path fill="none" stroke="black" d="M2509.14,-261.66C2525.31,-251.27 2547.26,-238.02 2567.82,-228.5 2576.91,-224.29 2586.93,-220.4 2596.55,-217.01"/>
<polygon fill="black" stroke="black" points="2597.4,-220.42 2605.74,-213.89 2595.15,-213.79 2597.4,-220.42"/>
</g>
<!-- market_b_age_decentered&#45;&gt;market_b_age -->
<g id="edge24" class="edge">
<title>market_b_age_decentered&#45;&gt;market_b_age</title>
<path fill="none" stroke="black" d="M2725.23,-333.23C2710.36,-323.85 2691.64,-312.05 2675.62,-301.95"/>
<polygon fill="black" stroke="black" points="2677.65,-299.09 2667.32,-296.72 2673.91,-305.01 2677.65,-299.09"/>
</g>
<!-- market_b_age&#45;&gt;lam_log -->
<g id="edge40" class="edge">
<title>market_b_age&#45;&gt;lam_log</title>
<path fill="none" stroke="black" d="M2640.82,-260.72C2640.82,-252.32 2640.82,-241.99 2640.82,-232.43"/>
<polygon fill="black" stroke="black" points="2644.32,-232.46 2640.82,-222.46 2637.32,-232.46 2644.32,-232.46"/>
</g>
<!-- market_b_cohort_age_decentered&#45;&gt;market_b_cohort_age -->
<g id="edge31" class="edge">
<title>market_b_cohort_age_decentered&#45;&gt;market_b_cohort_age</title>
<path fill="none" stroke="black" d="M2967.18,-333.68C2937.54,-323.3 2899.07,-309.84 2868.07,-298.99"/>
<polygon fill="black" stroke="black" points="2869.47,-295.77 2858.87,-295.77 2867.15,-302.38 2869.47,-295.77"/>
</g>
<!-- market_b_cohort_age&#45;&gt;lam_log -->
<g id="edge41" class="edge">
<title>market_b_cohort_age&#45;&gt;lam_log</title>
<path fill="none" stroke="black" d="M2783.21,-261.56C2763.66,-251.38 2737.6,-238.41 2713.82,-228.5 2704.47,-224.61 2694.28,-220.83 2684.56,-217.45"/>
<polygon fill="black" stroke="black" points="2685.89,-214.2 2675.29,-214.29 2683.63,-220.83 2685.89,-214.2"/>
</g>
<!-- market_b_interaction_decentered&#45;&gt;market_b_interaction -->
<g id="edge38" class="edge">
<title>market_b_interaction_decentered&#45;&gt;market_b_interaction</title>
<path fill="none" stroke="black" d="M3313.94,-332.7C3319.01,-324.81 3325.12,-315.3 3330.75,-306.55"/>
<polygon fill="black" stroke="black" points="3333.54,-308.68 3336,-298.38 3327.65,-304.9 3333.54,-308.68"/>
</g>
<!-- market_b_interaction&#45;&gt;lam_log -->
<g id="edge42" class="edge">
<title>market_b_interaction&#45;&gt;lam_log</title>
<path fill="none" stroke="black" d="M3272.39,-268.85C3186.04,-258.5 3040.32,-241.4 2914.82,-228.5 2837.63,-220.57 2748.07,-212.64 2692.92,-207.9"/>
<polygon fill="black" stroke="black" points="2693.46,-204.43 2683.2,-207.07 2692.87,-211.41 2693.46,-204.43"/>
</g>
<!-- retention_estimated -->
<g id="node35" class="node">
<title>retention_estimated</title>
<ellipse fill="white" stroke="black" stroke-dasharray="5,2" cx="1585.82" cy="-58.5" rx="84.11" ry="18"/>
<text xml:space="preserve" text-anchor="middle" x="1585.82" y="-53.45" font-family="Times,serif" font-size="14.00">retention_estimated</text>
</g>
<!-- n_active_users&#45;&gt;retention_estimated -->
<g id="edge45" class="edge">
<title>n_active_users&#45;&gt;retention_estimated</title>
<path fill="none" stroke="black" d="M1585.82,-112.2C1585.82,-104.91 1585.82,-96.23 1585.82,-88.04"/>
<polygon fill="black" stroke="black" points="1589.32,-88.12 1585.82,-78.12 1582.32,-88.12 1589.32,-88.12"/>
</g>
<!-- n_active_users&#45;&gt;revenue -->
<g id="edge47" class="edge">
<title>n_active_users&#45;&gt;revenue</title>
<path fill="none" stroke="black" d="M1616.63,-114.31C1638.7,-103.43 1668.49,-88.74 1691.68,-77.31"/>
<polygon fill="black" stroke="black" points="1693.04,-80.54 1700.46,-72.98 1689.95,-74.27 1693.04,-80.54"/>
</g>
<!-- distribution_description_node -->
<g id="node37" class="node">
<title>distribution_description_node</title>
<text xml:space="preserve" text-anchor="start" x="4394.44" y="-989.7" font-family="Times,serif" font-size="14.00">retention_nn/layers.0.bias ~ SoftLaplace</text>
<text xml:space="preserve" text-anchor="start" x="4394.44" y="-973.2" font-family="Times,serif" font-size="14.00">retention_nn/layers.0.kernel ~ SoftLaplace</text>
<text xml:space="preserve" text-anchor="start" x="4394.44" y="-956.7" font-family="Times,serif" font-size="14.00">retention_nn/layers.1.bias ~ SoftLaplace</text>
<text xml:space="preserve" text-anchor="start" x="4394.44" y="-940.2" font-family="Times,serif" font-size="14.00">retention_nn/layers.1.kernel ~ SoftLaplace</text>
<text xml:space="preserve" text-anchor="start" x="4394.44" y="-923.7" font-family="Times,serif" font-size="14.00">retention_nn/layers.2.bias ~ SoftLaplace</text>
<text xml:space="preserve" text-anchor="start" x="4394.44" y="-907.2" font-family="Times,serif" font-size="14.00">retention_nn/layers.2.kernel ~ SoftLaplace</text>
<text xml:space="preserve" text-anchor="start" x="4394.44" y="-890.7" font-family="Times,serif" font-size="14.00">retention_nn/layers.3.bias ~ SoftLaplace</text>
<text xml:space="preserve" text-anchor="start" x="4394.44" y="-874.2" font-family="Times,serif" font-size="14.00">retention_nn/layers.3.kernel ~ SoftLaplace</text>
<text xml:space="preserve" text-anchor="start" x="4394.44" y="-857.7" font-family="Times,serif" font-size="14.00">retention_nn/layers.4.bias ~ SoftLaplace</text>
<text xml:space="preserve" text-anchor="start" x="4394.44" y="-841.2" font-family="Times,serif" font-size="14.00">retention_nn/layers.4.kernel ~ SoftLaplace</text>
<text xml:space="preserve" text-anchor="start" x="4394.44" y="-824.7" font-family="Times,serif" font-size="14.00">retention ~ Deterministic</text>
<text xml:space="preserve" text-anchor="start" x="4394.44" y="-808.2" font-family="Times,serif" font-size="14.00">market_intercept_loc ~ Normal</text>
<text xml:space="preserve" text-anchor="start" x="4394.44" y="-791.7" font-family="Times,serif" font-size="14.00">market_intercept_scale ~ HalfNormal</text>
<text xml:space="preserve" text-anchor="start" x="4394.44" y="-775.2" font-family="Times,serif" font-size="14.00">market_b_age_loc ~ Normal</text>
<text xml:space="preserve" text-anchor="start" x="4394.44" y="-758.7" font-family="Times,serif" font-size="14.00">market_b_age_scale ~ HalfNormal</text>
<text xml:space="preserve" text-anchor="start" x="4394.44" y="-742.2" font-family="Times,serif" font-size="14.00">market_b_cohort_age_loc ~ Normal</text>
<text xml:space="preserve" text-anchor="start" x="4394.44" y="-725.7" font-family="Times,serif" font-size="14.00">market_b_cohort_age_scale ~ HalfNormal</text>
<text xml:space="preserve" text-anchor="start" x="4394.44" y="-709.2" font-family="Times,serif" font-size="14.00">market_b_interaction_loc ~ Normal</text>
<text xml:space="preserve" text-anchor="start" x="4394.44" y="-692.7" font-family="Times,serif" font-size="14.00">market_b_interaction_scale ~ HalfNormal</text>
<text xml:space="preserve" text-anchor="start" x="4394.44" y="-676.2" font-family="Times,serif" font-size="14.00">market_intercept_centered ~ Uniform</text>
<text xml:space="preserve" text-anchor="start" x="4394.44" y="-659.7" font-family="Times,serif" font-size="14.00">market_b_age_centered ~ Uniform</text>
<text xml:space="preserve" text-anchor="start" x="4394.44" y="-643.2" font-family="Times,serif" font-size="14.00">market_b_cohort_age_centered ~ Uniform</text>
<text xml:space="preserve" text-anchor="start" x="4394.44" y="-626.7" font-family="Times,serif" font-size="14.00">market_b_interaction_centered ~ Uniform</text>
<text xml:space="preserve" text-anchor="start" x="4394.44" y="-610.2" font-family="Times,serif" font-size="14.00">market_intercept_decentered ~ Normal</text>
<text xml:space="preserve" text-anchor="start" x="4394.44" y="-593.7" font-family="Times,serif" font-size="14.00">market_intercept ~ Deterministic</text>
<text xml:space="preserve" text-anchor="start" x="4394.44" y="-577.2" font-family="Times,serif" font-size="14.00">market_b_age_decentered ~ Normal</text>
<text xml:space="preserve" text-anchor="start" x="4394.44" y="-560.7" font-family="Times,serif" font-size="14.00">market_b_age ~ Deterministic</text>
<text xml:space="preserve" text-anchor="start" x="4394.44" y="-544.2" font-family="Times,serif" font-size="14.00">market_b_cohort_age_decentered ~ Normal</text>
<text xml:space="preserve" text-anchor="start" x="4394.44" y="-527.7" font-family="Times,serif" font-size="14.00">market_b_cohort_age ~ Deterministic</text>
<text xml:space="preserve" text-anchor="start" x="4394.44" y="-511.2" font-family="Times,serif" font-size="14.00">market_b_interaction_decentered ~ Normal</text>
<text xml:space="preserve" text-anchor="start" x="4394.44" y="-494.7" font-family="Times,serif" font-size="14.00">market_b_interaction ~ Deterministic</text>
<text xml:space="preserve" text-anchor="start" x="4394.44" y="-478.2" font-family="Times,serif" font-size="14.00">lam_log ~ Deterministic</text>
<text xml:space="preserve" text-anchor="start" x="4394.44" y="-461.7" font-family="Times,serif" font-size="14.00">lam ~ Deterministic</text>
<text xml:space="preserve" text-anchor="start" x="4394.44" y="-445.2" font-family="Times,serif" font-size="14.00">n_active_users ~ BinomialProbs</text>
<text xml:space="preserve" text-anchor="start" x="4394.44" y="-428.7" font-family="Times,serif" font-size="14.00">retention_estimated ~ Deterministic</text>
<text xml:space="preserve" text-anchor="start" x="4394.44" y="-412.2" font-family="Times,serif" font-size="14.00">revenue ~ Gamma</text>
</g>
</g>
</svg>
