<?xml version="1.0" encoding="utf-8" standalone="no"?>
<!DOCTYPE svg PUBLIC "-//W3C//DTD SVG 1.1//EN"
  "http://www.w3.org/Graphics/SVG/1.1/DTD/svg11.dtd">
<!-- Created with matplotlib (https://matplotlib.org/) -->
<svg height="384.703438pt" version="1.1" viewBox="0 0 437.773437 384.703438" width="437.773437pt" xmlns="http://www.w3.org/2000/svg" xmlns:xlink="http://www.w3.org/1999/xlink">
 <metadata>
  <rdf:RDF xmlns:cc="http://creativecommons.org/ns#" xmlns:dc="http://purl.org/dc/elements/1.1/" xmlns:rdf="http://www.w3.org/1999/02/22-rdf-syntax-ns#">
   <cc:Work>
    <dc:type rdf:resource="http://purl.org/dc/dcmitype/StillImage"/>
    <dc:date>2021-03-01T09:12:28.218828</dc:date>
    <dc:format>image/svg+xml</dc:format>
    <dc:creator>
     <cc:Agent>
      <dc:title>Matplotlib v3.3.4, https://matplotlib.org/</dc:title>
     </cc:Agent>
    </dc:creator>
   </cc:Work>
  </rdf:RDF>
 </metadata>
 <defs>
  <style type="text/css">*{stroke-linecap:butt;stroke-linejoin:round;}</style>
 </defs>
 <g id="figure_1">
  <g id="patch_1">
   <path d="M 0 384.703438 
L 437.773437 384.703438 
L 437.773437 0 
L 0 0 
z
" style="fill:#ffffff;"/>
  </g>
  <g id="axes_1">
   <g id="patch_2">
    <path d="M 33.023438 348.095625 
L 423.623438 348.095625 
L 423.623438 21.935625 
L 33.023438 21.935625 
z
" style="fill:#e6e6e6;"/>
   </g>
   <g id="matplotlib.axis_1">
    <g id="xtick_1">
     <g id="line2d_1">
      <path clip-path="url(#pef6d8d7ac3)" d="M 33.023438 348.095625 
L 33.023438 21.935625 
" style="fill:none;stroke:#cccccc;stroke-linecap:round;stroke-width:0.8;"/>
     </g>
     <g id="text_1">
      <!-- 0.0 -->
      <g style="fill:#262626;" transform="translate(26.073438 362.253438)scale(0.1 -0.1)">
       <defs>
        <path d="M 4.15625 35.296875 
Q 4.15625 48 6.765625 55.734375 
Q 9.375 63.484375 14.515625 67.671875 
Q 19.671875 71.875 27.484375 71.875 
Q 33.25 71.875 37.59375 69.546875 
Q 41.9375 67.234375 44.765625 62.859375 
Q 47.609375 58.5 49.21875 52.21875 
Q 50.828125 45.953125 50.828125 35.296875 
Q 50.828125 22.703125 48.234375 14.96875 
Q 45.65625 7.234375 40.5 3 
Q 35.359375 -1.21875 27.484375 -1.21875 
Q 17.140625 -1.21875 11.234375 6.203125 
Q 4.15625 15.140625 4.15625 35.296875 
z
M 13.1875 35.296875 
Q 13.1875 17.671875 17.3125 11.828125 
Q 21.4375 6 27.484375 6 
Q 33.546875 6 37.671875 11.859375 
Q 41.796875 17.71875 41.796875 35.296875 
Q 41.796875 52.984375 37.671875 58.78125 
Q 33.546875 64.59375 27.390625 64.59375 
Q 21.34375 64.59375 17.71875 59.46875 
Q 13.1875 52.9375 13.1875 35.296875 
z
" id="ArialMT-48"/>
        <path d="M 9.078125 0 
L 9.078125 10.015625 
L 19.09375 10.015625 
L 19.09375 0 
z
" id="ArialMT-46"/>
       </defs>
       <use xlink:href="#ArialMT-48"/>
       <use x="55.615234" xlink:href="#ArialMT-46"/>
       <use x="83.398438" xlink:href="#ArialMT-48"/>
      </g>
     </g>
    </g>
    <g id="xtick_2">
     <g id="line2d_2">
      <path clip-path="url(#pef6d8d7ac3)" d="M 111.143438 348.095625 
L 111.143438 21.935625 
" style="fill:none;stroke:#cccccc;stroke-linecap:round;stroke-width:0.8;"/>
     </g>
     <g id="text_2">
      <!-- 0.2 -->
      <g style="fill:#262626;" transform="translate(104.193438 362.253438)scale(0.1 -0.1)">
       <defs>
        <path d="M 50.34375 8.453125 
L 50.34375 0 
L 3.03125 0 
Q 2.9375 3.171875 4.046875 6.109375 
Q 5.859375 10.9375 9.828125 15.625 
Q 13.8125 20.3125 21.34375 26.46875 
Q 33.015625 36.03125 37.109375 41.625 
Q 41.21875 47.21875 41.21875 52.203125 
Q 41.21875 57.421875 37.46875 61 
Q 33.734375 64.59375 27.734375 64.59375 
Q 21.390625 64.59375 17.578125 60.78125 
Q 13.765625 56.984375 13.71875 50.25 
L 4.6875 51.171875 
Q 5.609375 61.28125 11.65625 66.578125 
Q 17.71875 71.875 27.9375 71.875 
Q 38.234375 71.875 44.234375 66.15625 
Q 50.25 60.453125 50.25 52 
Q 50.25 47.703125 48.484375 43.546875 
Q 46.734375 39.40625 42.65625 34.8125 
Q 38.578125 30.21875 29.109375 22.21875 
Q 21.1875 15.578125 18.9375 13.203125 
Q 16.703125 10.84375 15.234375 8.453125 
z
" id="ArialMT-50"/>
       </defs>
       <use xlink:href="#ArialMT-48"/>
       <use x="55.615234" xlink:href="#ArialMT-46"/>
       <use x="83.398438" xlink:href="#ArialMT-50"/>
      </g>
     </g>
    </g>
    <g id="xtick_3">
     <g id="line2d_3">
      <path clip-path="url(#pef6d8d7ac3)" d="M 189.263438 348.095625 
L 189.263438 21.935625 
" style="fill:none;stroke:#cccccc;stroke-linecap:round;stroke-width:0.8;"/>
     </g>
     <g id="text_3">
      <!-- 0.4 -->
      <g style="fill:#262626;" transform="translate(182.313438 362.253438)scale(0.1 -0.1)">
       <defs>
        <path d="M 32.328125 0 
L 32.328125 17.140625 
L 1.265625 17.140625 
L 1.265625 25.203125 
L 33.9375 71.578125 
L 41.109375 71.578125 
L 41.109375 25.203125 
L 50.78125 25.203125 
L 50.78125 17.140625 
L 41.109375 17.140625 
L 41.109375 0 
z
M 32.328125 25.203125 
L 32.328125 57.46875 
L 9.90625 25.203125 
z
" id="ArialMT-52"/>
       </defs>
       <use xlink:href="#ArialMT-48"/>
       <use x="55.615234" xlink:href="#ArialMT-46"/>
       <use x="83.398438" xlink:href="#ArialMT-52"/>
      </g>
     </g>
    </g>
    <g id="xtick_4">
     <g id="line2d_4">
      <path clip-path="url(#pef6d8d7ac3)" d="M 267.383438 348.095625 
L 267.383438 21.935625 
" style="fill:none;stroke:#cccccc;stroke-linecap:round;stroke-width:0.8;"/>
     </g>
     <g id="text_4">
      <!-- 0.6 -->
      <g style="fill:#262626;" transform="translate(260.433438 362.253438)scale(0.1 -0.1)">
       <defs>
        <path d="M 49.75 54.046875 
L 41.015625 53.375 
Q 39.84375 58.546875 37.703125 60.890625 
Q 34.125 64.65625 28.90625 64.65625 
Q 24.703125 64.65625 21.53125 62.3125 
Q 17.390625 59.28125 14.984375 53.46875 
Q 12.59375 47.65625 12.5 36.921875 
Q 15.671875 41.75 20.265625 44.09375 
Q 24.859375 46.4375 29.890625 46.4375 
Q 38.671875 46.4375 44.84375 39.96875 
Q 51.03125 33.5 51.03125 23.25 
Q 51.03125 16.5 48.125 10.71875 
Q 45.21875 4.9375 40.140625 1.859375 
Q 35.0625 -1.21875 28.609375 -1.21875 
Q 17.625 -1.21875 10.6875 6.859375 
Q 3.765625 14.9375 3.765625 33.5 
Q 3.765625 54.25 11.421875 63.671875 
Q 18.109375 71.875 29.4375 71.875 
Q 37.890625 71.875 43.28125 67.140625 
Q 48.6875 62.40625 49.75 54.046875 
z
M 13.875 23.1875 
Q 13.875 18.65625 15.796875 14.5 
Q 17.71875 10.359375 21.1875 8.171875 
Q 24.65625 6 28.46875 6 
Q 34.03125 6 38.03125 10.484375 
Q 42.046875 14.984375 42.046875 22.703125 
Q 42.046875 30.125 38.078125 34.390625 
Q 34.125 38.671875 28.125 38.671875 
Q 22.171875 38.671875 18.015625 34.390625 
Q 13.875 30.125 13.875 23.1875 
z
" id="ArialMT-54"/>
       </defs>
       <use xlink:href="#ArialMT-48"/>
       <use x="55.615234" xlink:href="#ArialMT-46"/>
       <use x="83.398438" xlink:href="#ArialMT-54"/>
      </g>
     </g>
    </g>
    <g id="xtick_5">
     <g id="line2d_5">
      <path clip-path="url(#pef6d8d7ac3)" d="M 345.503438 348.095625 
L 345.503438 21.935625 
" style="fill:none;stroke:#cccccc;stroke-linecap:round;stroke-width:0.8;"/>
     </g>
     <g id="text_5">
      <!-- 0.8 -->
      <g style="fill:#262626;" transform="translate(338.553438 362.253438)scale(0.1 -0.1)">
       <defs>
        <path d="M 17.671875 38.8125 
Q 12.203125 40.828125 9.5625 44.53125 
Q 6.9375 48.25 6.9375 53.421875 
Q 6.9375 61.234375 12.546875 66.546875 
Q 18.171875 71.875 27.484375 71.875 
Q 36.859375 71.875 42.578125 66.421875 
Q 48.296875 60.984375 48.296875 53.171875 
Q 48.296875 48.1875 45.671875 44.5 
Q 43.0625 40.828125 37.75 38.8125 
Q 44.34375 36.671875 47.78125 31.875 
Q 51.21875 27.09375 51.21875 20.453125 
Q 51.21875 11.28125 44.71875 5.03125 
Q 38.234375 -1.21875 27.640625 -1.21875 
Q 17.046875 -1.21875 10.546875 5.046875 
Q 4.046875 11.328125 4.046875 20.703125 
Q 4.046875 27.6875 7.59375 32.390625 
Q 11.140625 37.109375 17.671875 38.8125 
z
M 15.921875 53.71875 
Q 15.921875 48.640625 19.1875 45.40625 
Q 22.46875 42.1875 27.6875 42.1875 
Q 32.765625 42.1875 36.015625 45.375 
Q 39.265625 48.578125 39.265625 53.21875 
Q 39.265625 58.0625 35.90625 61.359375 
Q 32.5625 64.65625 27.59375 64.65625 
Q 22.5625 64.65625 19.234375 61.421875 
Q 15.921875 58.203125 15.921875 53.71875 
z
M 13.09375 20.65625 
Q 13.09375 16.890625 14.875 13.375 
Q 16.65625 9.859375 20.171875 7.921875 
Q 23.6875 6 27.734375 6 
Q 34.03125 6 38.125 10.046875 
Q 42.234375 14.109375 42.234375 20.359375 
Q 42.234375 26.703125 38.015625 30.859375 
Q 33.796875 35.015625 27.4375 35.015625 
Q 21.234375 35.015625 17.15625 30.90625 
Q 13.09375 26.8125 13.09375 20.65625 
z
" id="ArialMT-56"/>
       </defs>
       <use xlink:href="#ArialMT-48"/>
       <use x="55.615234" xlink:href="#ArialMT-46"/>
       <use x="83.398438" xlink:href="#ArialMT-56"/>
      </g>
     </g>
    </g>
    <g id="xtick_6">
     <g id="line2d_6">
      <path clip-path="url(#pef6d8d7ac3)" d="M 423.623438 348.095625 
L 423.623438 21.935625 
" style="fill:none;stroke:#cccccc;stroke-linecap:round;stroke-width:0.8;"/>
     </g>
     <g id="text_6">
      <!-- 1.0 -->
      <g style="fill:#262626;" transform="translate(416.673438 362.253438)scale(0.1 -0.1)">
       <defs>
        <path d="M 37.25 0 
L 28.46875 0 
L 28.46875 56 
Q 25.296875 52.984375 20.140625 49.953125 
Q 14.984375 46.921875 10.890625 45.40625 
L 10.890625 53.90625 
Q 18.265625 57.375 23.78125 62.296875 
Q 29.296875 67.234375 31.59375 71.875 
L 37.25 71.875 
z
" id="ArialMT-49"/>
       </defs>
       <use xlink:href="#ArialMT-49"/>
       <use x="55.615234" xlink:href="#ArialMT-46"/>
       <use x="83.398438" xlink:href="#ArialMT-48"/>
      </g>
     </g>
    </g>
    <g id="text_7">
     <!-- y_train_prior_mean -->
     <g style="fill:#262626;" transform="translate(185.248438 375.39875)scale(0.1 -0.1)">
      <defs>
       <path d="M 6.203125 -19.96875 
L 5.21875 -11.71875 
Q 8.109375 -12.5 10.25 -12.5 
Q 13.1875 -12.5 14.9375 -11.515625 
Q 16.703125 -10.546875 17.828125 -8.796875 
Q 18.65625 -7.46875 20.515625 -2.25 
Q 20.75 -1.515625 21.296875 -0.09375 
L 1.609375 51.859375 
L 11.078125 51.859375 
L 21.875 21.828125 
Q 23.96875 16.109375 25.640625 9.8125 
Q 27.15625 15.875 29.25 21.625 
L 40.328125 51.859375 
L 49.125 51.859375 
L 29.390625 -0.875 
Q 26.21875 -9.421875 24.46875 -12.640625 
Q 22.125 -17 19.09375 -19.015625 
Q 16.0625 -21.046875 11.859375 -21.046875 
Q 9.328125 -21.046875 6.203125 -19.96875 
z
" id="ArialMT-121"/>
       <path d="M -1.515625 -19.875 
L -1.515625 -13.53125 
L 56.734375 -13.53125 
L 56.734375 -19.875 
z
" id="ArialMT-95"/>
       <path d="M 25.78125 7.859375 
L 27.046875 0.09375 
Q 23.34375 -0.6875 20.40625 -0.6875 
Q 15.625 -0.6875 12.984375 0.828125 
Q 10.359375 2.34375 9.28125 4.8125 
Q 8.203125 7.28125 8.203125 15.1875 
L 8.203125 45.015625 
L 1.765625 45.015625 
L 1.765625 51.859375 
L 8.203125 51.859375 
L 8.203125 64.703125 
L 16.9375 69.96875 
L 16.9375 51.859375 
L 25.78125 51.859375 
L 25.78125 45.015625 
L 16.9375 45.015625 
L 16.9375 14.703125 
Q 16.9375 10.9375 17.40625 9.859375 
Q 17.875 8.796875 18.921875 8.15625 
Q 19.96875 7.515625 21.921875 7.515625 
Q 23.390625 7.515625 25.78125 7.859375 
z
" id="ArialMT-116"/>
       <path d="M 6.5 0 
L 6.5 51.859375 
L 14.40625 51.859375 
L 14.40625 44 
Q 17.4375 49.515625 20 51.265625 
Q 22.5625 53.03125 25.640625 53.03125 
Q 30.078125 53.03125 34.671875 50.203125 
L 31.640625 42.046875 
Q 28.421875 43.953125 25.203125 43.953125 
Q 22.3125 43.953125 20.015625 42.21875 
Q 17.71875 40.484375 16.75 37.40625 
Q 15.28125 32.71875 15.28125 27.15625 
L 15.28125 0 
z
" id="ArialMT-114"/>
       <path d="M 40.4375 6.390625 
Q 35.546875 2.25 31.03125 0.53125 
Q 26.515625 -1.171875 21.34375 -1.171875 
Q 12.796875 -1.171875 8.203125 3 
Q 3.609375 7.171875 3.609375 13.671875 
Q 3.609375 17.484375 5.34375 20.625 
Q 7.078125 23.78125 9.890625 25.6875 
Q 12.703125 27.59375 16.21875 28.5625 
Q 18.796875 29.25 24.03125 29.890625 
Q 34.671875 31.15625 39.703125 32.90625 
Q 39.75 34.71875 39.75 35.203125 
Q 39.75 40.578125 37.25 42.78125 
Q 33.890625 45.75 27.25 45.75 
Q 21.046875 45.75 18.09375 43.578125 
Q 15.140625 41.40625 13.71875 35.890625 
L 5.125 37.0625 
Q 6.296875 42.578125 8.984375 45.96875 
Q 11.671875 49.359375 16.75 51.1875 
Q 21.828125 53.03125 28.515625 53.03125 
Q 35.15625 53.03125 39.296875 51.46875 
Q 43.453125 49.90625 45.40625 47.53125 
Q 47.359375 45.171875 48.140625 41.546875 
Q 48.578125 39.3125 48.578125 33.453125 
L 48.578125 21.734375 
Q 48.578125 9.46875 49.140625 6.21875 
Q 49.703125 2.984375 51.375 0 
L 42.1875 0 
Q 40.828125 2.734375 40.4375 6.390625 
z
M 39.703125 26.03125 
Q 34.90625 24.078125 25.34375 22.703125 
Q 19.921875 21.921875 17.671875 20.9375 
Q 15.4375 19.96875 14.203125 18.09375 
Q 12.984375 16.21875 12.984375 13.921875 
Q 12.984375 10.40625 15.640625 8.0625 
Q 18.3125 5.71875 23.4375 5.71875 
Q 28.515625 5.71875 32.46875 7.9375 
Q 36.421875 10.15625 38.28125 14.015625 
Q 39.703125 17 39.703125 22.796875 
z
" id="ArialMT-97"/>
       <path d="M 6.640625 61.46875 
L 6.640625 71.578125 
L 15.4375 71.578125 
L 15.4375 61.46875 
z
M 6.640625 0 
L 6.640625 51.859375 
L 15.4375 51.859375 
L 15.4375 0 
z
" id="ArialMT-105"/>
       <path d="M 6.59375 0 
L 6.59375 51.859375 
L 14.5 51.859375 
L 14.5 44.484375 
Q 20.21875 53.03125 31 53.03125 
Q 35.6875 53.03125 39.625 51.34375 
Q 43.5625 49.65625 45.515625 46.921875 
Q 47.46875 44.1875 48.25 40.4375 
Q 48.734375 37.984375 48.734375 31.890625 
L 48.734375 0 
L 39.9375 0 
L 39.9375 31.546875 
Q 39.9375 36.921875 38.90625 39.578125 
Q 37.890625 42.234375 35.28125 43.8125 
Q 32.671875 45.40625 29.15625 45.40625 
Q 23.53125 45.40625 19.453125 41.84375 
Q 15.375 38.28125 15.375 28.328125 
L 15.375 0 
z
" id="ArialMT-110"/>
       <path d="M 6.59375 -19.875 
L 6.59375 51.859375 
L 14.59375 51.859375 
L 14.59375 45.125 
Q 17.4375 49.078125 21 51.046875 
Q 24.5625 53.03125 29.640625 53.03125 
Q 36.28125 53.03125 41.359375 49.609375 
Q 46.4375 46.1875 49.015625 39.953125 
Q 51.609375 33.734375 51.609375 26.3125 
Q 51.609375 18.359375 48.75 11.984375 
Q 45.90625 5.609375 40.453125 2.21875 
Q 35.015625 -1.171875 29 -1.171875 
Q 24.609375 -1.171875 21.109375 0.6875 
Q 17.625 2.546875 15.375 5.375 
L 15.375 -19.875 
z
M 14.546875 25.640625 
Q 14.546875 15.625 18.59375 10.84375 
Q 22.65625 6.0625 28.421875 6.0625 
Q 34.28125 6.0625 38.453125 11.015625 
Q 42.625 15.96875 42.625 26.375 
Q 42.625 36.28125 38.546875 41.203125 
Q 34.46875 46.140625 28.8125 46.140625 
Q 23.1875 46.140625 18.859375 40.890625 
Q 14.546875 35.640625 14.546875 25.640625 
z
" id="ArialMT-112"/>
       <path d="M 3.328125 25.921875 
Q 3.328125 40.328125 11.328125 47.265625 
Q 18.015625 53.03125 27.640625 53.03125 
Q 38.328125 53.03125 45.109375 46.015625 
Q 51.90625 39.015625 51.90625 26.65625 
Q 51.90625 16.65625 48.90625 10.90625 
Q 45.90625 5.171875 40.15625 2 
Q 34.421875 -1.171875 27.640625 -1.171875 
Q 16.75 -1.171875 10.03125 5.8125 
Q 3.328125 12.796875 3.328125 25.921875 
z
M 12.359375 25.921875 
Q 12.359375 15.96875 16.703125 11.015625 
Q 21.046875 6.0625 27.640625 6.0625 
Q 34.1875 6.0625 38.53125 11.03125 
Q 42.875 16.015625 42.875 26.21875 
Q 42.875 35.84375 38.5 40.796875 
Q 34.125 45.75 27.640625 45.75 
Q 21.046875 45.75 16.703125 40.8125 
Q 12.359375 35.890625 12.359375 25.921875 
z
" id="ArialMT-111"/>
       <path d="M 6.59375 0 
L 6.59375 51.859375 
L 14.453125 51.859375 
L 14.453125 44.578125 
Q 16.890625 48.390625 20.9375 50.703125 
Q 25 53.03125 30.171875 53.03125 
Q 35.9375 53.03125 39.625 50.640625 
Q 43.3125 48.25 44.828125 43.953125 
Q 50.984375 53.03125 60.84375 53.03125 
Q 68.5625 53.03125 72.703125 48.75 
Q 76.859375 44.484375 76.859375 35.59375 
L 76.859375 0 
L 68.109375 0 
L 68.109375 32.671875 
Q 68.109375 37.9375 67.25 40.25 
Q 66.40625 42.578125 64.15625 43.984375 
Q 61.921875 45.40625 58.890625 45.40625 
Q 53.421875 45.40625 49.796875 41.765625 
Q 46.1875 38.140625 46.1875 30.125 
L 46.1875 0 
L 37.40625 0 
L 37.40625 33.6875 
Q 37.40625 39.546875 35.25 42.46875 
Q 33.109375 45.40625 28.21875 45.40625 
Q 24.515625 45.40625 21.359375 43.453125 
Q 18.21875 41.5 16.796875 37.734375 
Q 15.375 33.984375 15.375 26.90625 
L 15.375 0 
z
" id="ArialMT-109"/>
       <path d="M 42.09375 16.703125 
L 51.171875 15.578125 
Q 49.03125 7.625 43.21875 3.21875 
Q 37.40625 -1.171875 28.375 -1.171875 
Q 17 -1.171875 10.328125 5.828125 
Q 3.65625 12.84375 3.65625 25.484375 
Q 3.65625 38.578125 10.390625 45.796875 
Q 17.140625 53.03125 27.875 53.03125 
Q 38.28125 53.03125 44.875 45.953125 
Q 51.46875 38.875 51.46875 26.03125 
Q 51.46875 25.25 51.421875 23.6875 
L 12.75 23.6875 
Q 13.234375 15.140625 17.578125 10.59375 
Q 21.921875 6.0625 28.421875 6.0625 
Q 33.25 6.0625 36.671875 8.59375 
Q 40.09375 11.140625 42.09375 16.703125 
z
M 13.234375 30.90625 
L 42.1875 30.90625 
Q 41.609375 37.453125 38.875 40.71875 
Q 34.671875 45.796875 27.984375 45.796875 
Q 21.921875 45.796875 17.796875 41.75 
Q 13.671875 37.703125 13.234375 30.90625 
z
" id="ArialMT-101"/>
      </defs>
      <use xlink:href="#ArialMT-121"/>
      <use x="50" xlink:href="#ArialMT-95"/>
      <use x="105.615234" xlink:href="#ArialMT-116"/>
      <use x="133.398438" xlink:href="#ArialMT-114"/>
      <use x="166.699219" xlink:href="#ArialMT-97"/>
      <use x="222.314453" xlink:href="#ArialMT-105"/>
      <use x="244.53125" xlink:href="#ArialMT-110"/>
      <use x="300.146484" xlink:href="#ArialMT-95"/>
      <use x="355.761719" xlink:href="#ArialMT-112"/>
      <use x="411.376953" xlink:href="#ArialMT-114"/>
      <use x="444.677734" xlink:href="#ArialMT-105"/>
      <use x="466.894531" xlink:href="#ArialMT-111"/>
      <use x="522.509766" xlink:href="#ArialMT-114"/>
      <use x="555.810547" xlink:href="#ArialMT-95"/>
      <use x="611.425781" xlink:href="#ArialMT-109"/>
      <use x="694.726562" xlink:href="#ArialMT-101"/>
      <use x="750.341797" xlink:href="#ArialMT-97"/>
      <use x="805.957031" xlink:href="#ArialMT-110"/>
     </g>
    </g>
   </g>
   <g id="matplotlib.axis_2">
    <g id="ytick_1">
     <g id="line2d_7">
      <path clip-path="url(#pef6d8d7ac3)" d="M 33.023438 348.095625 
L 423.623438 348.095625 
" style="fill:none;stroke:#cccccc;stroke-linecap:round;stroke-width:0.8;"/>
     </g>
     <g id="text_8">
      <!-- 0 -->
      <g style="fill:#262626;" transform="translate(20.4625 351.674531)scale(0.1 -0.1)">
       <use xlink:href="#ArialMT-48"/>
      </g>
     </g>
    </g>
    <g id="ytick_2">
     <g id="line2d_8">
      <path clip-path="url(#pef6d8d7ac3)" d="M 33.023438 295.377239 
L 423.623438 295.377239 
" style="fill:none;stroke:#cccccc;stroke-linecap:round;stroke-width:0.8;"/>
     </g>
     <g id="text_9">
      <!-- 1 -->
      <g style="fill:#262626;" transform="translate(20.4625 298.956145)scale(0.1 -0.1)">
       <use xlink:href="#ArialMT-49"/>
      </g>
     </g>
    </g>
    <g id="ytick_3">
     <g id="line2d_9">
      <path clip-path="url(#pef6d8d7ac3)" d="M 33.023438 242.658853 
L 423.623438 242.658853 
" style="fill:none;stroke:#cccccc;stroke-linecap:round;stroke-width:0.8;"/>
     </g>
     <g id="text_10">
      <!-- 2 -->
      <g style="fill:#262626;" transform="translate(20.4625 246.237759)scale(0.1 -0.1)">
       <use xlink:href="#ArialMT-50"/>
      </g>
     </g>
    </g>
    <g id="ytick_4">
     <g id="line2d_10">
      <path clip-path="url(#pef6d8d7ac3)" d="M 33.023438 189.940467 
L 423.623438 189.940467 
" style="fill:none;stroke:#cccccc;stroke-linecap:round;stroke-width:0.8;"/>
     </g>
     <g id="text_11">
      <!-- 3 -->
      <g style="fill:#262626;" transform="translate(20.4625 193.519373)scale(0.1 -0.1)">
       <defs>
        <path d="M 4.203125 18.890625 
L 12.984375 20.0625 
Q 14.5 12.59375 18.140625 9.296875 
Q 21.78125 6 27 6 
Q 33.203125 6 37.46875 10.296875 
Q 41.75 14.59375 41.75 20.953125 
Q 41.75 27 37.796875 30.921875 
Q 33.84375 34.859375 27.734375 34.859375 
Q 25.25 34.859375 21.53125 33.890625 
L 22.515625 41.609375 
Q 23.390625 41.5 23.921875 41.5 
Q 29.546875 41.5 34.03125 44.421875 
Q 38.53125 47.359375 38.53125 53.46875 
Q 38.53125 58.296875 35.25 61.46875 
Q 31.984375 64.65625 26.8125 64.65625 
Q 21.6875 64.65625 18.265625 61.421875 
Q 14.84375 58.203125 13.875 51.765625 
L 5.078125 53.328125 
Q 6.6875 62.15625 12.390625 67.015625 
Q 18.109375 71.875 26.609375 71.875 
Q 32.46875 71.875 37.390625 69.359375 
Q 42.328125 66.84375 44.9375 62.5 
Q 47.5625 58.15625 47.5625 53.265625 
Q 47.5625 48.640625 45.0625 44.828125 
Q 42.578125 41.015625 37.703125 38.765625 
Q 44.046875 37.3125 47.5625 32.6875 
Q 51.078125 28.078125 51.078125 21.140625 
Q 51.078125 11.765625 44.234375 5.25 
Q 37.40625 -1.265625 26.953125 -1.265625 
Q 17.53125 -1.265625 11.296875 4.34375 
Q 5.078125 9.96875 4.203125 18.890625 
z
" id="ArialMT-51"/>
       </defs>
       <use xlink:href="#ArialMT-51"/>
      </g>
     </g>
    </g>
    <g id="ytick_5">
     <g id="line2d_11">
      <path clip-path="url(#pef6d8d7ac3)" d="M 33.023438 137.222081 
L 423.623438 137.222081 
" style="fill:none;stroke:#cccccc;stroke-linecap:round;stroke-width:0.8;"/>
     </g>
     <g id="text_12">
      <!-- 4 -->
      <g style="fill:#262626;" transform="translate(20.4625 140.800987)scale(0.1 -0.1)">
       <use xlink:href="#ArialMT-52"/>
      </g>
     </g>
    </g>
    <g id="ytick_6">
     <g id="line2d_12">
      <path clip-path="url(#pef6d8d7ac3)" d="M 33.023438 84.503695 
L 423.623438 84.503695 
" style="fill:none;stroke:#cccccc;stroke-linecap:round;stroke-width:0.8;"/>
     </g>
     <g id="text_13">
      <!-- 5 -->
      <g style="fill:#262626;" transform="translate(20.4625 88.082602)scale(0.1 -0.1)">
       <defs>
        <path d="M 4.15625 18.75 
L 13.375 19.53125 
Q 14.40625 12.796875 18.140625 9.390625 
Q 21.875 6 27.15625 6 
Q 33.5 6 37.890625 10.78125 
Q 42.28125 15.578125 42.28125 23.484375 
Q 42.28125 31 38.0625 35.34375 
Q 33.84375 39.703125 27 39.703125 
Q 22.75 39.703125 19.328125 37.765625 
Q 15.921875 35.84375 13.96875 32.765625 
L 5.71875 33.84375 
L 12.640625 70.609375 
L 48.25 70.609375 
L 48.25 62.203125 
L 19.671875 62.203125 
L 15.828125 42.96875 
Q 22.265625 47.46875 29.34375 47.46875 
Q 38.71875 47.46875 45.15625 40.96875 
Q 51.609375 34.46875 51.609375 24.265625 
Q 51.609375 14.546875 45.953125 7.46875 
Q 39.0625 -1.21875 27.15625 -1.21875 
Q 17.390625 -1.21875 11.203125 4.25 
Q 5.03125 9.71875 4.15625 18.75 
z
" id="ArialMT-53"/>
       </defs>
       <use xlink:href="#ArialMT-53"/>
      </g>
     </g>
    </g>
    <g id="ytick_7">
     <g id="line2d_13">
      <path clip-path="url(#pef6d8d7ac3)" d="M 33.023438 31.785309 
L 423.623438 31.785309 
" style="fill:none;stroke:#cccccc;stroke-linecap:round;stroke-width:0.8;"/>
     </g>
     <g id="text_14">
      <!-- 6 -->
      <g style="fill:#262626;" transform="translate(20.4625 35.364216)scale(0.1 -0.1)">
       <use xlink:href="#ArialMT-54"/>
      </g>
     </g>
    </g>
    <g id="text_15">
     <!-- Density -->
     <g style="fill:#262626;" transform="translate(14.357813 201.6875)rotate(-90)scale(0.1 -0.1)">
      <defs>
       <path d="M 7.71875 0 
L 7.71875 71.578125 
L 32.375 71.578125 
Q 40.71875 71.578125 45.125 70.5625 
Q 51.265625 69.140625 55.609375 65.4375 
Q 61.28125 60.640625 64.078125 53.1875 
Q 66.890625 45.75 66.890625 36.1875 
Q 66.890625 28.03125 64.984375 21.734375 
Q 63.09375 15.4375 60.109375 11.296875 
Q 57.125 7.171875 53.578125 4.796875 
Q 50.046875 2.4375 45.046875 1.21875 
Q 40.046875 0 33.546875 0 
z
M 17.1875 8.453125 
L 32.46875 8.453125 
Q 39.546875 8.453125 43.578125 9.765625 
Q 47.609375 11.078125 50 13.484375 
Q 53.375 16.84375 55.25 22.53125 
Q 57.125 28.21875 57.125 36.328125 
Q 57.125 47.5625 53.4375 53.59375 
Q 49.75 59.625 44.484375 61.671875 
Q 40.671875 63.140625 32.234375 63.140625 
L 17.1875 63.140625 
z
" id="ArialMT-68"/>
       <path d="M 3.078125 15.484375 
L 11.765625 16.84375 
Q 12.5 11.625 15.84375 8.84375 
Q 19.1875 6.0625 25.203125 6.0625 
Q 31.25 6.0625 34.171875 8.515625 
Q 37.109375 10.984375 37.109375 14.3125 
Q 37.109375 17.28125 34.515625 19 
Q 32.71875 20.171875 25.53125 21.96875 
Q 15.875 24.421875 12.140625 26.203125 
Q 8.40625 27.984375 6.46875 31.125 
Q 4.546875 34.28125 4.546875 38.09375 
Q 4.546875 41.546875 6.125 44.5 
Q 7.71875 47.46875 10.453125 49.421875 
Q 12.5 50.921875 16.03125 51.96875 
Q 19.578125 53.03125 23.640625 53.03125 
Q 29.734375 53.03125 34.34375 51.265625 
Q 38.96875 49.515625 41.15625 46.5 
Q 43.359375 43.5 44.1875 38.484375 
L 35.59375 37.3125 
Q 35.015625 41.3125 32.203125 43.546875 
Q 29.390625 45.796875 24.265625 45.796875 
Q 18.21875 45.796875 15.625 43.796875 
Q 13.03125 41.796875 13.03125 39.109375 
Q 13.03125 37.40625 14.109375 36.03125 
Q 15.1875 34.625 17.484375 33.6875 
Q 18.796875 33.203125 25.25 31.453125 
Q 34.578125 28.953125 38.25 27.359375 
Q 41.9375 25.78125 44.03125 22.75 
Q 46.140625 19.734375 46.140625 15.234375 
Q 46.140625 10.84375 43.578125 6.953125 
Q 41.015625 3.078125 36.171875 0.953125 
Q 31.34375 -1.171875 25.25 -1.171875 
Q 15.140625 -1.171875 9.84375 3.03125 
Q 4.546875 7.234375 3.078125 15.484375 
z
" id="ArialMT-115"/>
      </defs>
      <use xlink:href="#ArialMT-68"/>
      <use x="72.216797" xlink:href="#ArialMT-101"/>
      <use x="127.832031" xlink:href="#ArialMT-110"/>
      <use x="183.447266" xlink:href="#ArialMT-115"/>
      <use x="233.447266" xlink:href="#ArialMT-105"/>
      <use x="255.664062" xlink:href="#ArialMT-116"/>
      <use x="283.447266" xlink:href="#ArialMT-121"/>
     </g>
    </g>
   </g>
   <g id="PolyCollection_1">
    <defs>
     <path d="M 196.546887 -36.828709 
L 196.546887 -36.607813 
L 196.984018 -36.607813 
L 197.421149 -36.607813 
L 197.85828 -36.607813 
L 198.295411 -36.607813 
L 198.732543 -36.607813 
L 199.169674 -36.607813 
L 199.606805 -36.607813 
L 200.043936 -36.607813 
L 200.481067 -36.607813 
L 200.918198 -36.607813 
L 201.35533 -36.607813 
L 201.792461 -36.607813 
L 202.229592 -36.607813 
L 202.666723 -36.607813 
L 203.103854 -36.607813 
L 203.540985 -36.607813 
L 203.978117 -36.607813 
L 204.415248 -36.607813 
L 204.852379 -36.607813 
L 205.28951 -36.607813 
L 205.726641 -36.607813 
L 206.163772 -36.607813 
L 206.600904 -36.607813 
L 207.038035 -36.607813 
L 207.475166 -36.607813 
L 207.912297 -36.607813 
L 208.349428 -36.607813 
L 208.786559 -36.607813 
L 209.223691 -36.607813 
L 209.660822 -36.607813 
L 210.097953 -36.607813 
L 210.535084 -36.607813 
L 210.972215 -36.607813 
L 211.409346 -36.607813 
L 211.846477 -36.607813 
L 212.283609 -36.607813 
L 212.72074 -36.607813 
L 213.157871 -36.607813 
L 213.595002 -36.607813 
L 214.032133 -36.607813 
L 214.469264 -36.607813 
L 214.906396 -36.607813 
L 215.343527 -36.607813 
L 215.780658 -36.607813 
L 216.217789 -36.607813 
L 216.65492 -36.607813 
L 217.092051 -36.607813 
L 217.529183 -36.607813 
L 217.966314 -36.607813 
L 218.403445 -36.607813 
L 218.840576 -36.607813 
L 219.277707 -36.607813 
L 219.714838 -36.607813 
L 220.15197 -36.607813 
L 220.589101 -36.607813 
L 221.026232 -36.607813 
L 221.463363 -36.607813 
L 221.900494 -36.607813 
L 222.337625 -36.607813 
L 222.774757 -36.607813 
L 223.211888 -36.607813 
L 223.649019 -36.607813 
L 224.08615 -36.607813 
L 224.523281 -36.607813 
L 224.960412 -36.607813 
L 225.397544 -36.607813 
L 225.834675 -36.607813 
L 226.271806 -36.607813 
L 226.708937 -36.607813 
L 227.146068 -36.607813 
L 227.583199 -36.607813 
L 228.020331 -36.607813 
L 228.457462 -36.607813 
L 228.894593 -36.607813 
L 229.331724 -36.607813 
L 229.768855 -36.607813 
L 230.205986 -36.607813 
L 230.643117 -36.607813 
L 231.080249 -36.607813 
L 231.51738 -36.607813 
L 231.954511 -36.607813 
L 232.391642 -36.607813 
L 232.828773 -36.607813 
L 233.265904 -36.607813 
L 233.703036 -36.607813 
L 234.140167 -36.607813 
L 234.577298 -36.607813 
L 235.014429 -36.607813 
L 235.45156 -36.607813 
L 235.888691 -36.607813 
L 236.325823 -36.607813 
L 236.762954 -36.607813 
L 237.200085 -36.607813 
L 237.637216 -36.607813 
L 238.074347 -36.607813 
L 238.511478 -36.607813 
L 238.94861 -36.607813 
L 239.385741 -36.607813 
L 239.822872 -36.607813 
L 240.260003 -36.607813 
L 240.697134 -36.607813 
L 241.134265 -36.607813 
L 241.571397 -36.607813 
L 242.008528 -36.607813 
L 242.445659 -36.607813 
L 242.88279 -36.607813 
L 243.319921 -36.607813 
L 243.757052 -36.607813 
L 244.194184 -36.607813 
L 244.631315 -36.607813 
L 245.068446 -36.607813 
L 245.505577 -36.607813 
L 245.942708 -36.607813 
L 246.379839 -36.607813 
L 246.816971 -36.607813 
L 247.254102 -36.607813 
L 247.691233 -36.607813 
L 248.128364 -36.607813 
L 248.565495 -36.607813 
L 249.002626 -36.607813 
L 249.439758 -36.607813 
L 249.876889 -36.607813 
L 250.31402 -36.607813 
L 250.751151 -36.607813 
L 251.188282 -36.607813 
L 251.625413 -36.607813 
L 252.062544 -36.607813 
L 252.499676 -36.607813 
L 252.936807 -36.607813 
L 253.373938 -36.607813 
L 253.811069 -36.607813 
L 254.2482 -36.607813 
L 254.685331 -36.607813 
L 255.122463 -36.607813 
L 255.559594 -36.607813 
L 255.996725 -36.607813 
L 256.433856 -36.607813 
L 256.870987 -36.607813 
L 257.308118 -36.607813 
L 257.74525 -36.607813 
L 258.182381 -36.607813 
L 258.619512 -36.607813 
L 259.056643 -36.607813 
L 259.493774 -36.607813 
L 259.930905 -36.607813 
L 260.368037 -36.607813 
L 260.805168 -36.607813 
L 261.242299 -36.607813 
L 261.67943 -36.607813 
L 262.116561 -36.607813 
L 262.553692 -36.607813 
L 262.990824 -36.607813 
L 263.427955 -36.607813 
L 263.865086 -36.607813 
L 264.302217 -36.607813 
L 264.739348 -36.607813 
L 265.176479 -36.607813 
L 265.613611 -36.607813 
L 266.050742 -36.607813 
L 266.487873 -36.607813 
L 266.925004 -36.607813 
L 267.362135 -36.607813 
L 267.799266 -36.607813 
L 268.236398 -36.607813 
L 268.673529 -36.607813 
L 269.11066 -36.607813 
L 269.547791 -36.607813 
L 269.984922 -36.607813 
L 270.422053 -36.607813 
L 270.859184 -36.607813 
L 271.296316 -36.607813 
L 271.733447 -36.607813 
L 272.170578 -36.607813 
L 272.607709 -36.607813 
L 273.04484 -36.607813 
L 273.481971 -36.607813 
L 273.919103 -36.607813 
L 274.356234 -36.607813 
L 274.793365 -36.607813 
L 275.230496 -36.607813 
L 275.667627 -36.607813 
L 276.104758 -36.607813 
L 276.54189 -36.607813 
L 276.979021 -36.607813 
L 277.416152 -36.607813 
L 277.853283 -36.607813 
L 278.290414 -36.607813 
L 278.727545 -36.607813 
L 279.164677 -36.607813 
L 279.601808 -36.607813 
L 280.038939 -36.607813 
L 280.47607 -36.607813 
L 280.913201 -36.607813 
L 281.350332 -36.607813 
L 281.787464 -36.607813 
L 282.224595 -36.607813 
L 282.661726 -36.607813 
L 283.098857 -36.607813 
L 283.535988 -36.607813 
L 283.535988 -36.714882 
L 283.535988 -36.714882 
L 283.098857 -36.744896 
L 282.661726 -36.782259 
L 282.224595 -36.828465 
L 281.787464 -36.885237 
L 281.350332 -36.954543 
L 280.913201 -37.038607 
L 280.47607 -37.139922 
L 280.038939 -37.26126 
L 279.601808 -37.405669 
L 279.164677 -37.576474 
L 278.727545 -37.777264 
L 278.290414 -38.011879 
L 277.853283 -38.284387 
L 277.416152 -38.599053 
L 276.979021 -38.960311 
L 276.54189 -39.372716 
L 276.104758 -39.84091 
L 275.667627 -40.369568 
L 275.230496 -40.963354 
L 274.793365 -41.62687 
L 274.356234 -42.364612 
L 273.919103 -43.180921 
L 273.481971 -44.07994 
L 273.04484 -45.065575 
L 272.607709 -46.141461 
L 272.170578 -47.310924 
L 271.733447 -48.576953 
L 271.296316 -49.942173 
L 270.859184 -51.408813 
L 270.422053 -52.978684 
L 269.984922 -54.653149 
L 269.547791 -56.433096 
L 269.11066 -58.318908 
L 268.673529 -60.310437 
L 268.236398 -62.406981 
L 267.799266 -64.607261 
L 267.362135 -66.909412 
L 266.925004 -69.310976 
L 266.487873 -71.80892 
L 266.050742 -74.399668 
L 265.613611 -77.079144 
L 265.176479 -79.842852 
L 264.739348 -82.685968 
L 264.302217 -85.603454 
L 263.865086 -88.590195 
L 263.427955 -91.641146 
L 262.990824 -94.751484 
L 262.553692 -97.916771 
L 262.116561 -101.133097 
L 261.67943 -104.397217 
L 261.242299 -107.706663 
L 260.805168 -111.059827 
L 260.368037 -114.456008 
L 259.930905 -117.895426 
L 259.493774 -121.3792 
L 259.056643 -124.90929 
L 258.619512 -128.488405 
L 258.182381 -132.119902 
L 257.74525 -135.807648 
L 257.308118 -139.555894 
L 256.870987 -143.369134 
L 256.433856 -147.251973 
L 255.996725 -151.209007 
L 255.559594 -155.244707 
L 255.122463 -159.363312 
L 254.685331 -163.568725 
L 254.2482 -167.864404 
L 253.811069 -172.253236 
L 253.373938 -176.737393 
L 252.936807 -181.318148 
L 252.499676 -185.995653 
L 252.062544 -190.768672 
L 251.625413 -195.634272 
L 251.188282 -200.587471 
L 250.751151 -205.620862 
L 250.31402 -210.724226 
L 249.876889 -215.884158 
L 249.439758 -221.08373 
L 249.002626 -226.302227 
L 248.565495 -231.514977 
L 248.128364 -236.693313 
L 247.691233 -241.80468 
L 247.254102 -246.812927 
L 246.816971 -251.678771 
L 246.379839 -256.360451 
L 245.942708 -260.814571 
L 245.505577 -264.997096 
L 245.068446 -268.864484 
L 244.631315 -272.374925 
L 244.194184 -275.489627 
L 243.757052 -278.174106 
L 243.319921 -280.399437 
L 242.88279 -282.143391 
L 242.445659 -283.391425 
L 242.008528 -284.137469 
L 241.571397 -284.384472 
L 241.134265 -284.144676 
L 240.697134 -283.439596 
L 240.260003 -282.299702 
L 239.822872 -280.763802 
L 239.385741 -278.87814 
L 238.94861 -276.695242 
L 238.511478 -274.272546 
L 238.074347 -271.670851 
L 237.637216 -268.952652 
L 237.200085 -266.180411 
L 236.762954 -263.414817 
L 236.325823 -260.713105 
L 235.888691 -258.12748 
L 235.45156 -255.703702 
L 235.014429 -253.479878 
L 234.577298 -251.4855 
L 234.140167 -249.740746 
L 233.703036 -248.256076 
L 233.265904 -247.032128 
L 232.828773 -246.059903 
L 232.391642 -245.321241 
L 231.954511 -244.78955 
L 231.51738 -244.430774 
L 231.080249 -244.204556 
L 230.643117 -244.065552 
L 230.205986 -243.96486 
L 229.768855 -243.851498 
L 229.331724 -243.673907 
L 228.894593 -243.381411 
L 228.457462 -242.925598 
L 228.020331 -242.261588 
L 227.583199 -241.349137 
L 227.146068 -240.153571 
L 226.708937 -238.646502 
L 226.271806 -236.806347 
L 225.834675 -234.618604 
L 225.397544 -232.075925 
L 224.960412 -229.17797 
L 224.523281 -225.931066 
L 224.08615 -222.347701 
L 223.649019 -218.445867 
L 223.211888 -214.248285 
L 222.774757 -209.781555 
L 222.337625 -205.075252 
L 221.900494 -200.161008 
L 221.463363 -195.071611 
L 221.026232 -189.840152 
L 220.589101 -184.499238 
L 220.15197 -179.080306 
L 219.714838 -173.613044 
L 219.277707 -168.124928 
L 218.840576 -162.640893 
L 218.403445 -157.183129 
L 217.966314 -151.770991 
L 217.529183 -146.421034 
L 217.092051 -141.147138 
L 216.65492 -135.960718 
L 216.217789 -130.870998 
L 215.780658 -125.885333 
L 215.343527 -121.009549 
L 214.906396 -116.248296 
L 214.469264 -111.605381 
L 214.032133 -107.084079 
L 213.595002 -102.687398 
L 213.157871 -98.4183 
L 212.72074 -94.279853 
L 212.283609 -90.275341 
L 211.846477 -86.408295 
L 211.409346 -82.682485 
L 210.972215 -79.101851 
L 210.535084 -75.670395 
L 210.097953 -72.392048 
L 209.660822 -69.270506 
L 209.223691 -66.309066 
L 208.786559 -63.510452 
L 208.349428 -60.876665 
L 207.912297 -58.408844 
L 207.475166 -56.107151 
L 207.038035 -53.9707 
L 206.600904 -51.997508 
L 206.163772 -50.184491 
L 205.726641 -48.527487 
L 205.28951 -47.021324 
L 204.852379 -45.659906 
L 204.415248 -44.436326 
L 203.978117 -43.343003 
L 203.540985 -42.371822 
L 203.103854 -41.514291 
L 202.666723 -40.76169 
L 202.229592 -40.105219 
L 201.792461 -39.536136 
L 201.35533 -39.045882 
L 200.918198 -38.62619 
L 200.481067 -38.269176 
L 200.043936 -37.967412 
L 199.606805 -37.71398 
L 199.169674 -37.502508 
L 198.732543 -37.327188 
L 198.295411 -37.182782 
L 197.85828 -37.064614 
L 197.421149 -36.968548 
L 196.984018 -36.89096 
L 196.546887 -36.828709 
z
" id="m61fb65992f" style="stroke:#c44e52;"/>
    </defs>
    <g clip-path="url(#pef6d8d7ac3)">
     <use style="fill:#c44e52;fill-opacity:0.1;stroke:#c44e52;" x="0" xlink:href="#m61fb65992f" y="384.703438"/>
    </g>
   </g>
   <g id="PolyCollection_2">
    <defs>
     <path d="M 188.282579 -36.713466 
L 188.282579 -36.607813 
L 188.802769 -36.607813 
L 189.322958 -36.607813 
L 189.843148 -36.607813 
L 190.363337 -36.607813 
L 190.883527 -36.607813 
L 191.403717 -36.607813 
L 191.923906 -36.607813 
L 192.444096 -36.607813 
L 192.964285 -36.607813 
L 193.484475 -36.607813 
L 194.004664 -36.607813 
L 194.524854 -36.607813 
L 195.045043 -36.607813 
L 195.565233 -36.607813 
L 196.085422 -36.607813 
L 196.605612 -36.607813 
L 197.125801 -36.607813 
L 197.645991 -36.607813 
L 198.16618 -36.607813 
L 198.68637 -36.607813 
L 199.206559 -36.607813 
L 199.726749 -36.607813 
L 200.246939 -36.607813 
L 200.767128 -36.607813 
L 201.287318 -36.607813 
L 201.807507 -36.607813 
L 202.327697 -36.607813 
L 202.847886 -36.607813 
L 203.368076 -36.607813 
L 203.888265 -36.607813 
L 204.408455 -36.607813 
L 204.928644 -36.607813 
L 205.448834 -36.607813 
L 205.969023 -36.607813 
L 206.489213 -36.607813 
L 207.009402 -36.607813 
L 207.529592 -36.607813 
L 208.049781 -36.607813 
L 208.569971 -36.607813 
L 209.090161 -36.607813 
L 209.61035 -36.607813 
L 210.13054 -36.607813 
L 210.650729 -36.607813 
L 211.170919 -36.607813 
L 211.691108 -36.607813 
L 212.211298 -36.607813 
L 212.731487 -36.607813 
L 213.251677 -36.607813 
L 213.771866 -36.607813 
L 214.292056 -36.607813 
L 214.812245 -36.607813 
L 215.332435 -36.607813 
L 215.852624 -36.607813 
L 216.372814 -36.607813 
L 216.893003 -36.607813 
L 217.413193 -36.607813 
L 217.933383 -36.607813 
L 218.453572 -36.607813 
L 218.973762 -36.607813 
L 219.493951 -36.607813 
L 220.014141 -36.607813 
L 220.53433 -36.607813 
L 221.05452 -36.607813 
L 221.574709 -36.607813 
L 222.094899 -36.607813 
L 222.615088 -36.607813 
L 223.135278 -36.607813 
L 223.655467 -36.607813 
L 224.175657 -36.607813 
L 224.695846 -36.607813 
L 225.216036 -36.607813 
L 225.736225 -36.607813 
L 226.256415 -36.607813 
L 226.776605 -36.607813 
L 227.296794 -36.607813 
L 227.816984 -36.607813 
L 228.337173 -36.607813 
L 228.857363 -36.607813 
L 229.377552 -36.607813 
L 229.897742 -36.607813 
L 230.417931 -36.607813 
L 230.938121 -36.607813 
L 231.45831 -36.607813 
L 231.9785 -36.607813 
L 232.498689 -36.607813 
L 233.018879 -36.607813 
L 233.539068 -36.607813 
L 234.059258 -36.607813 
L 234.579447 -36.607813 
L 235.099637 -36.607813 
L 235.619827 -36.607813 
L 236.140016 -36.607813 
L 236.660206 -36.607813 
L 237.180395 -36.607813 
L 237.700585 -36.607813 
L 238.220774 -36.607813 
L 238.740964 -36.607813 
L 239.261153 -36.607813 
L 239.781343 -36.607813 
L 240.301532 -36.607813 
L 240.821722 -36.607813 
L 241.341911 -36.607813 
L 241.862101 -36.607813 
L 242.38229 -36.607813 
L 242.90248 -36.607813 
L 243.422669 -36.607813 
L 243.942859 -36.607813 
L 244.463048 -36.607813 
L 244.983238 -36.607813 
L 245.503428 -36.607813 
L 246.023617 -36.607813 
L 246.543807 -36.607813 
L 247.063996 -36.607813 
L 247.584186 -36.607813 
L 248.104375 -36.607813 
L 248.624565 -36.607813 
L 249.144754 -36.607813 
L 249.664944 -36.607813 
L 250.185133 -36.607813 
L 250.705323 -36.607813 
L 251.225512 -36.607813 
L 251.745702 -36.607813 
L 252.265891 -36.607813 
L 252.786081 -36.607813 
L 253.30627 -36.607813 
L 253.82646 -36.607813 
L 254.34665 -36.607813 
L 254.866839 -36.607813 
L 255.387029 -36.607813 
L 255.907218 -36.607813 
L 256.427408 -36.607813 
L 256.947597 -36.607813 
L 257.467787 -36.607813 
L 257.987976 -36.607813 
L 258.508166 -36.607813 
L 259.028355 -36.607813 
L 259.548545 -36.607813 
L 260.068734 -36.607813 
L 260.588924 -36.607813 
L 261.109113 -36.607813 
L 261.629303 -36.607813 
L 262.149492 -36.607813 
L 262.669682 -36.607813 
L 263.189872 -36.607813 
L 263.710061 -36.607813 
L 264.230251 -36.607813 
L 264.75044 -36.607813 
L 265.27063 -36.607813 
L 265.790819 -36.607813 
L 266.311009 -36.607813 
L 266.831198 -36.607813 
L 267.351388 -36.607813 
L 267.871577 -36.607813 
L 268.391767 -36.607813 
L 268.911956 -36.607813 
L 269.432146 -36.607813 
L 269.952335 -36.607813 
L 270.472525 -36.607813 
L 270.992714 -36.607813 
L 271.512904 -36.607813 
L 272.033094 -36.607813 
L 272.553283 -36.607813 
L 273.073473 -36.607813 
L 273.593662 -36.607813 
L 274.113852 -36.607813 
L 274.634041 -36.607813 
L 275.154231 -36.607813 
L 275.67442 -36.607813 
L 276.19461 -36.607813 
L 276.714799 -36.607813 
L 277.234989 -36.607813 
L 277.755178 -36.607813 
L 278.275368 -36.607813 
L 278.795557 -36.607813 
L 279.315747 -36.607813 
L 279.835936 -36.607813 
L 280.356126 -36.607813 
L 280.876316 -36.607813 
L 281.396505 -36.607813 
L 281.916695 -36.607813 
L 282.436884 -36.607813 
L 282.957074 -36.607813 
L 283.477263 -36.607813 
L 283.997453 -36.607813 
L 284.517642 -36.607813 
L 285.037832 -36.607813 
L 285.558021 -36.607813 
L 286.078211 -36.607813 
L 286.5984 -36.607813 
L 287.11859 -36.607813 
L 287.638779 -36.607813 
L 288.158969 -36.607813 
L 288.679158 -36.607813 
L 289.199348 -36.607813 
L 289.719538 -36.607813 
L 290.239727 -36.607813 
L 290.759917 -36.607813 
L 291.280106 -36.607813 
L 291.800296 -36.607813 
L 291.800296 -36.702048 
L 291.800296 -36.702048 
L 291.280106 -36.732197 
L 290.759917 -36.77055 
L 290.239727 -36.818858 
L 289.719538 -36.879104 
L 289.199348 -36.953489 
L 288.679158 -37.044406 
L 288.158969 -37.154405 
L 287.638779 -37.286125 
L 287.11859 -37.442226 
L 286.5984 -37.625284 
L 286.078211 -37.837683 
L 285.558021 -38.081482 
L 285.037832 -38.358282 
L 284.517642 -38.66908 
L 283.997453 -39.014142 
L 283.477263 -39.392877 
L 282.957074 -39.803753 
L 282.436884 -40.244239 
L 281.916695 -40.710806 
L 281.396505 -41.198976 
L 280.876316 -41.70345 
L 280.356126 -42.218296 
L 279.835936 -42.737213 
L 279.315747 -43.253865 
L 278.795557 -43.762263 
L 278.275368 -44.257208 
L 277.755178 -44.734743 
L 277.234989 -45.192626 
L 276.714799 -45.630777 
L 276.19461 -46.051678 
L 275.67442 -46.460708 
L 275.154231 -46.866375 
L 274.634041 -47.280444 
L 274.113852 -47.71791 
L 273.593662 -48.196846 
L 273.073473 -48.738082 
L 272.553283 -49.364741 
L 272.033094 -50.101633 
L 271.512904 -50.974521 
L 270.992714 -52.009282 
L 270.472525 -53.231001 
L 269.952335 -54.663021 
L 269.432146 -56.325998 
L 268.911956 -58.236999 
L 268.391767 -60.408691 
L 267.871577 -62.848658 
L 267.351388 -65.558901 
L 266.831198 -68.53554 
L 266.311009 -71.768761 
L 265.790819 -75.243028 
L 265.27063 -78.937562 
L 264.75044 -82.827084 
L 264.230251 -86.882812 
L 263.710061 -91.073659 
L 263.189872 -95.367606 
L 262.669682 -99.73316 
L 262.149492 -104.140842 
L 261.629303 -108.564612 
L 261.109113 -112.983152 
L 260.588924 -117.380911 
L 260.068734 -121.748856 
L 259.548545 -126.084852 
L 259.028355 -130.393641 
L 258.508166 -134.686401 
L 257.987976 -138.97989 
L 257.467787 -143.295234 
L 256.947597 -147.656401 
L 256.427408 -152.088482 
L 255.907218 -156.615868 
L 255.387029 -161.260465 
L 254.866839 -166.04006 
L 254.34665 -170.966977 
L 253.82646 -176.04711 
L 253.30627 -181.279425 
L 252.786081 -186.655972 
L 252.265891 -192.16242 
L 251.745702 -197.779072 
L 251.225512 -203.482296 
L 250.705323 -209.246263 
L 250.185133 -215.044845 
L 249.664944 -220.853521 
L 249.144754 -226.651129 
L 248.624565 -232.421309 
L 248.104375 -238.153495 
L 247.584186 -243.843357 
L 247.063996 -249.492636 
L 246.543807 -255.10835 
L 246.023617 -260.701418 
L 245.503428 -266.28479 
L 244.983238 -271.871215 
L 244.463048 -277.470818 
L 243.942859 -283.088671 
L 243.422669 -288.722558 
L 242.90248 -294.361129 
L 242.38229 -299.982593 
L 241.862101 -305.554087 
L 241.341911 -311.031802 
L 240.821722 -316.361882 
L 240.301532 -321.482075 
L 239.781343 -326.324035 
L 239.261153 -330.816158 
L 238.740964 -334.886755 
L 238.220774 -338.467387 
L 237.700585 -341.496128 
L 237.180395 -343.920578 
L 236.660206 -345.700416 
L 236.140016 -346.809355 
L 235.619827 -347.236384 
L 235.099637 -346.986243 
L 234.579447 -346.079105 
L 234.059258 -344.549526 
L 233.539068 -342.444722 
L 233.018879 -339.822321 
L 232.498689 -336.747712 
L 231.9785 -333.291164 
L 231.45831 -329.524878 
L 230.938121 -325.520127 
L 230.417931 -321.344614 
L 229.897742 -317.060181 
L 229.377552 -312.720933 
L 228.857363 -308.371849 
L 228.337173 -304.047896 
L 227.816984 -299.773647 
L 227.296794 -295.563373 
L 226.776605 -291.42156 
L 226.256415 -287.3438 
L 225.736225 -283.317967 
L 225.216036 -279.325616 
L 224.695846 -275.343517 
L 224.175657 -271.345251 
L 223.655467 -267.302796 
L 223.135278 -263.188029 
L 222.615088 -258.974102 
L 222.094899 -254.636627 
L 221.574709 -250.154642 
L 221.05452 -245.511346 
L 220.53433 -240.694567 
L 220.014141 -235.69699 
L 219.493951 -230.516154 
L 218.973762 -225.154235 
L 218.453572 -219.617673 
L 217.933383 -213.916667 
L 217.413193 -208.064598 
L 216.893003 -202.077423 
L 216.372814 -195.973081 
L 215.852624 -189.77095 
L 215.332435 -183.491383 
L 214.812245 -177.155324 
L 214.292056 -170.784033 
L 213.771866 -164.398884 
L 213.251677 -158.02124 
L 212.731487 -151.672371 
L 212.211298 -145.373401 
L 211.691108 -139.145245 
L 211.170919 -133.00853 
L 210.650729 -126.98347 
L 210.13054 -121.089705 
L 209.61035 -115.34609 
L 209.090161 -109.770446 
L 208.569971 -104.379292 
L 208.049781 -99.187573 
L 207.529592 -94.208406 
L 207.009402 -89.45286 
L 206.489213 -84.929786 
L 205.969023 -80.645722 
L 205.448834 -76.604857 
L 204.928644 -72.809074 
L 204.408455 -69.258058 
L 203.888265 -65.949453 
L 203.368076 -62.879075 
L 202.847886 -60.04114 
L 202.327697 -57.428508 
L 201.807507 -55.032934 
L 201.287318 -52.845294 
L 200.767128 -50.855799 
L 200.246939 -49.054182 
L 199.726749 -47.429857 
L 199.206559 -45.972049 
L 198.68637 -44.669904 
L 198.16618 -43.512583 
L 197.645991 -42.489333 
L 197.125801 -41.589555 
L 196.605612 -40.802866 
L 196.085422 -40.119153 
L 195.565233 -39.528632 
L 195.045043 -39.021897 
L 194.524854 -38.589975 
L 194.004664 -38.224373 
L 193.484475 -37.917117 
L 192.964285 -37.660792 
L 192.444096 -37.448566 
L 191.923906 -37.274204 
L 191.403717 -37.132075 
L 190.883527 -37.017147 
L 190.363337 -36.924967 
L 189.843148 -36.851641 
L 189.322958 -36.793799 
L 188.802769 -36.748555 
L 188.282579 -36.713466 
z
" id="m41bc0f2cb4" style="stroke:#4c72b0;"/>
    </defs>
    <g clip-path="url(#pef6d8d7ac3)">
     <use style="fill:#4c72b0;fill-opacity:0.1;stroke:#4c72b0;" x="0" xlink:href="#m41bc0f2cb4" y="384.703438"/>
    </g>
   </g>
   <g id="line2d_14">
    <path clip-path="url(#pef6d8d7ac3)" d="M 228.323438 348.095625 
L 228.323438 21.935625 
" style="fill:none;stroke:#808080;stroke-dasharray:5.55,2.4;stroke-dashoffset:0;stroke-width:1.5;"/>
   </g>
   <g id="patch_3">
    <path d="M 33.023438 348.095625 
L 33.023438 21.935625 
" style="fill:none;stroke:#ffffff;stroke-linecap:square;stroke-linejoin:miter;stroke-width:0.8;"/>
   </g>
   <g id="patch_4">
    <path d="M 423.623438 348.095625 
L 423.623438 21.935625 
" style="fill:none;stroke:#ffffff;stroke-linecap:square;stroke-linejoin:miter;stroke-width:0.8;"/>
   </g>
   <g id="patch_5">
    <path d="M 33.023438 348.095625 
L 423.623438 348.095625 
" style="fill:none;stroke:#ffffff;stroke-linecap:square;stroke-linejoin:miter;stroke-width:0.8;"/>
   </g>
   <g id="patch_6">
    <path d="M 33.023438 21.935625 
L 423.623438 21.935625 
" style="fill:none;stroke:#ffffff;stroke-linecap:square;stroke-linejoin:miter;stroke-width:0.8;"/>
   </g>
   <g id="text_16">
    <!-- Prior Means Distribution (train) -->
    <g style="fill:#262626;" transform="translate(146.970938 15.935625)scale(0.12 -0.12)">
     <defs>
      <path d="M 7.71875 0 
L 7.71875 71.578125 
L 34.71875 71.578125 
Q 41.84375 71.578125 45.609375 70.90625 
Q 50.875 70.015625 54.4375 67.546875 
Q 58.015625 65.09375 60.1875 60.640625 
Q 62.359375 56.203125 62.359375 50.875 
Q 62.359375 41.75 56.546875 35.421875 
Q 50.734375 29.109375 35.546875 29.109375 
L 17.1875 29.109375 
L 17.1875 0 
z
M 17.1875 37.546875 
L 35.6875 37.546875 
Q 44.875 37.546875 48.734375 40.96875 
Q 52.59375 44.390625 52.59375 50.59375 
Q 52.59375 55.078125 50.3125 58.265625 
Q 48.046875 61.46875 44.34375 62.5 
Q 41.9375 63.140625 35.5 63.140625 
L 17.1875 63.140625 
z
" id="ArialMT-80"/>
      <path id="ArialMT-32"/>
      <path d="M 7.421875 0 
L 7.421875 71.578125 
L 21.6875 71.578125 
L 38.625 20.90625 
Q 40.96875 13.8125 42.046875 10.296875 
Q 43.265625 14.203125 45.84375 21.78125 
L 62.984375 71.578125 
L 75.734375 71.578125 
L 75.734375 0 
L 66.609375 0 
L 66.609375 59.90625 
L 45.796875 0 
L 37.25 0 
L 16.546875 60.9375 
L 16.546875 0 
z
" id="ArialMT-77"/>
      <path d="M 14.703125 0 
L 6.546875 0 
L 6.546875 71.578125 
L 15.328125 71.578125 
L 15.328125 46.046875 
Q 20.90625 53.03125 29.546875 53.03125 
Q 34.328125 53.03125 38.59375 51.09375 
Q 42.875 49.171875 45.625 45.671875 
Q 48.390625 42.1875 49.953125 37.25 
Q 51.515625 32.328125 51.515625 26.703125 
Q 51.515625 13.375 44.921875 6.09375 
Q 38.328125 -1.171875 29.109375 -1.171875 
Q 19.921875 -1.171875 14.703125 6.5 
z
M 14.59375 26.3125 
Q 14.59375 17 17.140625 12.84375 
Q 21.296875 6.0625 28.375 6.0625 
Q 34.125 6.0625 38.328125 11.0625 
Q 42.53125 16.0625 42.53125 25.984375 
Q 42.53125 36.140625 38.5 40.96875 
Q 34.46875 45.796875 28.765625 45.796875 
Q 23 45.796875 18.796875 40.796875 
Q 14.59375 35.796875 14.59375 26.3125 
z
" id="ArialMT-98"/>
      <path d="M 40.578125 0 
L 40.578125 7.625 
Q 34.515625 -1.171875 24.125 -1.171875 
Q 19.53125 -1.171875 15.546875 0.578125 
Q 11.578125 2.34375 9.640625 5 
Q 7.71875 7.671875 6.9375 11.53125 
Q 6.390625 14.109375 6.390625 19.734375 
L 6.390625 51.859375 
L 15.1875 51.859375 
L 15.1875 23.09375 
Q 15.1875 16.21875 15.71875 13.8125 
Q 16.546875 10.359375 19.234375 8.375 
Q 21.921875 6.390625 25.875 6.390625 
Q 29.828125 6.390625 33.296875 8.421875 
Q 36.765625 10.453125 38.203125 13.9375 
Q 39.65625 17.4375 39.65625 24.078125 
L 39.65625 51.859375 
L 48.4375 51.859375 
L 48.4375 0 
z
" id="ArialMT-117"/>
      <path d="M 23.390625 -21.046875 
Q 16.109375 -11.859375 11.078125 0.4375 
Q 6.0625 12.75 6.0625 25.921875 
Q 6.0625 37.546875 9.8125 48.1875 
Q 14.203125 60.546875 23.390625 72.796875 
L 29.6875 72.796875 
Q 23.78125 62.640625 21.875 58.296875 
Q 18.890625 51.5625 17.1875 44.234375 
Q 15.09375 35.109375 15.09375 25.875 
Q 15.09375 2.390625 29.6875 -21.046875 
z
" id="ArialMT-40"/>
      <path d="M 12.359375 -21.046875 
L 6.0625 -21.046875 
Q 20.65625 2.390625 20.65625 25.875 
Q 20.65625 35.0625 18.5625 44.09375 
Q 16.890625 51.421875 13.921875 58.15625 
Q 12.015625 62.546875 6.0625 72.796875 
L 12.359375 72.796875 
Q 21.53125 60.546875 25.921875 48.1875 
Q 29.6875 37.546875 29.6875 25.921875 
Q 29.6875 12.75 24.625 0.4375 
Q 19.578125 -11.859375 12.359375 -21.046875 
z
" id="ArialMT-41"/>
     </defs>
     <use xlink:href="#ArialMT-80"/>
     <use x="66.699219" xlink:href="#ArialMT-114"/>
     <use x="100" xlink:href="#ArialMT-105"/>
     <use x="122.216797" xlink:href="#ArialMT-111"/>
     <use x="177.832031" xlink:href="#ArialMT-114"/>
     <use x="211.132812" xlink:href="#ArialMT-32"/>
     <use x="238.916016" xlink:href="#ArialMT-77"/>
     <use x="322.216797" xlink:href="#ArialMT-101"/>
     <use x="377.832031" xlink:href="#ArialMT-97"/>
     <use x="433.447266" xlink:href="#ArialMT-110"/>
     <use x="489.0625" xlink:href="#ArialMT-115"/>
     <use x="539.0625" xlink:href="#ArialMT-32"/>
     <use x="566.845703" xlink:href="#ArialMT-68"/>
     <use x="639.0625" xlink:href="#ArialMT-105"/>
     <use x="661.279297" xlink:href="#ArialMT-115"/>
     <use x="711.279297" xlink:href="#ArialMT-116"/>
     <use x="739.0625" xlink:href="#ArialMT-114"/>
     <use x="772.363281" xlink:href="#ArialMT-105"/>
     <use x="794.580078" xlink:href="#ArialMT-98"/>
     <use x="850.195312" xlink:href="#ArialMT-117"/>
     <use x="905.810547" xlink:href="#ArialMT-116"/>
     <use x="933.59375" xlink:href="#ArialMT-105"/>
     <use x="955.810547" xlink:href="#ArialMT-111"/>
     <use x="1011.425781" xlink:href="#ArialMT-110"/>
     <use x="1067.041016" xlink:href="#ArialMT-32"/>
     <use x="1094.824219" xlink:href="#ArialMT-40"/>
     <use x="1128.125" xlink:href="#ArialMT-116"/>
     <use x="1155.908203" xlink:href="#ArialMT-114"/>
     <use x="1189.208984" xlink:href="#ArialMT-97"/>
     <use x="1244.824219" xlink:href="#ArialMT-105"/>
     <use x="1267.041016" xlink:href="#ArialMT-110"/>
     <use x="1322.65625" xlink:href="#ArialMT-41"/>
    </g>
   </g>
   <g id="legend_1">
    <g id="patch_7">
     <path d="M 370.723438 72.48875 
L 416.623438 72.48875 
Q 418.623438 72.48875 418.623438 70.48875 
L 418.623438 28.935625 
Q 418.623438 26.935625 416.623438 26.935625 
L 370.723438 26.935625 
Q 368.723438 26.935625 368.723438 28.935625 
L 368.723438 70.48875 
Q 368.723438 72.48875 370.723438 72.48875 
z
" style="fill:#e6e6e6;opacity:0.8;stroke:#cccccc;stroke-linejoin:miter;"/>
    </g>
    <g id="text_17">
     <!-- y_train -->
     <g style="fill:#262626;" transform="translate(378.667188 38.093437)scale(0.1 -0.1)">
      <use xlink:href="#ArialMT-121"/>
      <use x="50" xlink:href="#ArialMT-95"/>
      <use x="105.615234" xlink:href="#ArialMT-116"/>
      <use x="133.398438" xlink:href="#ArialMT-114"/>
      <use x="166.699219" xlink:href="#ArialMT-97"/>
      <use x="222.314453" xlink:href="#ArialMT-105"/>
      <use x="244.53125" xlink:href="#ArialMT-110"/>
     </g>
    </g>
    <g id="patch_8">
     <path d="M 372.723438 52.355937 
L 392.723438 52.355937 
L 392.723438 45.355937 
L 372.723438 45.355937 
z
" style="fill:#4c72b0;fill-opacity:0.1;stroke:#4c72b0;stroke-linejoin:miter;"/>
    </g>
    <g id="text_18">
     <!-- 0.0 -->
     <g style="fill:#262626;" transform="translate(400.723438 52.355937)scale(0.1 -0.1)">
      <use xlink:href="#ArialMT-48"/>
      <use x="55.615234" xlink:href="#ArialMT-46"/>
      <use x="83.398438" xlink:href="#ArialMT-48"/>
     </g>
    </g>
    <g id="patch_9">
     <path d="M 372.723438 66.50125 
L 392.723438 66.50125 
L 392.723438 59.50125 
L 372.723438 59.50125 
z
" style="fill:#c44e52;fill-opacity:0.1;stroke:#c44e52;stroke-linejoin:miter;"/>
    </g>
    <g id="text_19">
     <!-- 1.0 -->
     <g style="fill:#262626;" transform="translate(400.723438 66.50125)scale(0.1 -0.1)">
      <use xlink:href="#ArialMT-49"/>
      <use x="55.615234" xlink:href="#ArialMT-46"/>
      <use x="83.398438" xlink:href="#ArialMT-48"/>
     </g>
    </g>
   </g>
  </g>
 </g>
 <defs>
  <clipPath id="pef6d8d7ac3">
   <rect height="326.16" width="390.6" x="33.023438" y="21.935625"/>
  </clipPath>
 </defs>
</svg>
