<?xml version="1.0" encoding="utf-8" standalone="no"?>
<!DOCTYPE svg PUBLIC "-//W3C//DTD SVG 1.1//EN"
  "http://www.w3.org/Graphics/SVG/1.1/DTD/svg11.dtd">
<!-- Created with matplotlib (https://matplotlib.org/) -->
<svg height="384.703438pt" version="1.1" viewBox="0 0 437.773437 384.703438" width="437.773437pt" xmlns="http://www.w3.org/2000/svg" xmlns:xlink="http://www.w3.org/1999/xlink">
 <metadata>
  <rdf:RDF xmlns:cc="http://creativecommons.org/ns#" xmlns:dc="http://purl.org/dc/elements/1.1/" xmlns:rdf="http://www.w3.org/1999/02/22-rdf-syntax-ns#">
   <cc:Work>
    <dc:type rdf:resource="http://purl.org/dc/dcmitype/StillImage"/>
    <dc:date>2021-03-04T22:05:55.018200</dc:date>
    <dc:format>image/svg+xml</dc:format>
    <dc:creator>
     <cc:Agent>
      <dc:title>Matplotlib v3.3.4, https://matplotlib.org/</dc:title>
     </cc:Agent>
    </dc:creator>
   </cc:Work>
  </rdf:RDF>
 </metadata>
 <defs>
  <style type="text/css">*{stroke-linecap:butt;stroke-linejoin:round;}</style>
 </defs>
 <g id="figure_1">
  <g id="patch_1">
   <path d="M 0 384.703438 
L 437.773437 384.703438 
L 437.773437 0 
L 0 0 
z
" style="fill:#ffffff;"/>
  </g>
  <g id="axes_1">
   <g id="patch_2">
    <path d="M 33.023438 348.095625 
L 423.623438 348.095625 
L 423.623438 21.935625 
L 33.023438 21.935625 
z
" style="fill:#e6e6e6;"/>
   </g>
   <g id="matplotlib.axis_1">
    <g id="xtick_1">
     <g id="line2d_1">
      <path clip-path="url(#p1ddccff765)" d="M 33.023438 348.095625 
L 33.023438 21.935625 
" style="fill:none;stroke:#cccccc;stroke-linecap:round;stroke-width:0.8;"/>
     </g>
     <g id="text_1">
      <!-- 0.0 -->
      <g style="fill:#262626;" transform="translate(26.073438 362.253438)scale(0.1 -0.1)">
       <defs>
        <path d="M 4.15625 35.296875 
Q 4.15625 48 6.765625 55.734375 
Q 9.375 63.484375 14.515625 67.671875 
Q 19.671875 71.875 27.484375 71.875 
Q 33.25 71.875 37.59375 69.546875 
Q 41.9375 67.234375 44.765625 62.859375 
Q 47.609375 58.5 49.21875 52.21875 
Q 50.828125 45.953125 50.828125 35.296875 
Q 50.828125 22.703125 48.234375 14.96875 
Q 45.65625 7.234375 40.5 3 
Q 35.359375 -1.21875 27.484375 -1.21875 
Q 17.140625 -1.21875 11.234375 6.203125 
Q 4.15625 15.140625 4.15625 35.296875 
z
M 13.1875 35.296875 
Q 13.1875 17.671875 17.3125 11.828125 
Q 21.4375 6 27.484375 6 
Q 33.546875 6 37.671875 11.859375 
Q 41.796875 17.71875 41.796875 35.296875 
Q 41.796875 52.984375 37.671875 58.78125 
Q 33.546875 64.59375 27.390625 64.59375 
Q 21.34375 64.59375 17.71875 59.46875 
Q 13.1875 52.9375 13.1875 35.296875 
z
" id="ArialMT-48"/>
        <path d="M 9.078125 0 
L 9.078125 10.015625 
L 19.09375 10.015625 
L 19.09375 0 
z
" id="ArialMT-46"/>
       </defs>
       <use xlink:href="#ArialMT-48"/>
       <use x="55.615234" xlink:href="#ArialMT-46"/>
       <use x="83.398438" xlink:href="#ArialMT-48"/>
      </g>
     </g>
    </g>
    <g id="xtick_2">
     <g id="line2d_2">
      <path clip-path="url(#p1ddccff765)" d="M 111.143438 348.095625 
L 111.143438 21.935625 
" style="fill:none;stroke:#cccccc;stroke-linecap:round;stroke-width:0.8;"/>
     </g>
     <g id="text_2">
      <!-- 0.2 -->
      <g style="fill:#262626;" transform="translate(104.193438 362.253438)scale(0.1 -0.1)">
       <defs>
        <path d="M 50.34375 8.453125 
L 50.34375 0 
L 3.03125 0 
Q 2.9375 3.171875 4.046875 6.109375 
Q 5.859375 10.9375 9.828125 15.625 
Q 13.8125 20.3125 21.34375 26.46875 
Q 33.015625 36.03125 37.109375 41.625 
Q 41.21875 47.21875 41.21875 52.203125 
Q 41.21875 57.421875 37.46875 61 
Q 33.734375 64.59375 27.734375 64.59375 
Q 21.390625 64.59375 17.578125 60.78125 
Q 13.765625 56.984375 13.71875 50.25 
L 4.6875 51.171875 
Q 5.609375 61.28125 11.65625 66.578125 
Q 17.71875 71.875 27.9375 71.875 
Q 38.234375 71.875 44.234375 66.15625 
Q 50.25 60.453125 50.25 52 
Q 50.25 47.703125 48.484375 43.546875 
Q 46.734375 39.40625 42.65625 34.8125 
Q 38.578125 30.21875 29.109375 22.21875 
Q 21.1875 15.578125 18.9375 13.203125 
Q 16.703125 10.84375 15.234375 8.453125 
z
" id="ArialMT-50"/>
       </defs>
       <use xlink:href="#ArialMT-48"/>
       <use x="55.615234" xlink:href="#ArialMT-46"/>
       <use x="83.398438" xlink:href="#ArialMT-50"/>
      </g>
     </g>
    </g>
    <g id="xtick_3">
     <g id="line2d_3">
      <path clip-path="url(#p1ddccff765)" d="M 189.263438 348.095625 
L 189.263438 21.935625 
" style="fill:none;stroke:#cccccc;stroke-linecap:round;stroke-width:0.8;"/>
     </g>
     <g id="text_3">
      <!-- 0.4 -->
      <g style="fill:#262626;" transform="translate(182.313438 362.253438)scale(0.1 -0.1)">
       <defs>
        <path d="M 32.328125 0 
L 32.328125 17.140625 
L 1.265625 17.140625 
L 1.265625 25.203125 
L 33.9375 71.578125 
L 41.109375 71.578125 
L 41.109375 25.203125 
L 50.78125 25.203125 
L 50.78125 17.140625 
L 41.109375 17.140625 
L 41.109375 0 
z
M 32.328125 25.203125 
L 32.328125 57.46875 
L 9.90625 25.203125 
z
" id="ArialMT-52"/>
       </defs>
       <use xlink:href="#ArialMT-48"/>
       <use x="55.615234" xlink:href="#ArialMT-46"/>
       <use x="83.398438" xlink:href="#ArialMT-52"/>
      </g>
     </g>
    </g>
    <g id="xtick_4">
     <g id="line2d_4">
      <path clip-path="url(#p1ddccff765)" d="M 267.383438 348.095625 
L 267.383438 21.935625 
" style="fill:none;stroke:#cccccc;stroke-linecap:round;stroke-width:0.8;"/>
     </g>
     <g id="text_4">
      <!-- 0.6 -->
      <g style="fill:#262626;" transform="translate(260.433438 362.253438)scale(0.1 -0.1)">
       <defs>
        <path d="M 49.75 54.046875 
L 41.015625 53.375 
Q 39.84375 58.546875 37.703125 60.890625 
Q 34.125 64.65625 28.90625 64.65625 
Q 24.703125 64.65625 21.53125 62.3125 
Q 17.390625 59.28125 14.984375 53.46875 
Q 12.59375 47.65625 12.5 36.921875 
Q 15.671875 41.75 20.265625 44.09375 
Q 24.859375 46.4375 29.890625 46.4375 
Q 38.671875 46.4375 44.84375 39.96875 
Q 51.03125 33.5 51.03125 23.25 
Q 51.03125 16.5 48.125 10.71875 
Q 45.21875 4.9375 40.140625 1.859375 
Q 35.0625 -1.21875 28.609375 -1.21875 
Q 17.625 -1.21875 10.6875 6.859375 
Q 3.765625 14.9375 3.765625 33.5 
Q 3.765625 54.25 11.421875 63.671875 
Q 18.109375 71.875 29.4375 71.875 
Q 37.890625 71.875 43.28125 67.140625 
Q 48.6875 62.40625 49.75 54.046875 
z
M 13.875 23.1875 
Q 13.875 18.65625 15.796875 14.5 
Q 17.71875 10.359375 21.1875 8.171875 
Q 24.65625 6 28.46875 6 
Q 34.03125 6 38.03125 10.484375 
Q 42.046875 14.984375 42.046875 22.703125 
Q 42.046875 30.125 38.078125 34.390625 
Q 34.125 38.671875 28.125 38.671875 
Q 22.171875 38.671875 18.015625 34.390625 
Q 13.875 30.125 13.875 23.1875 
z
" id="ArialMT-54"/>
       </defs>
       <use xlink:href="#ArialMT-48"/>
       <use x="55.615234" xlink:href="#ArialMT-46"/>
       <use x="83.398438" xlink:href="#ArialMT-54"/>
      </g>
     </g>
    </g>
    <g id="xtick_5">
     <g id="line2d_5">
      <path clip-path="url(#p1ddccff765)" d="M 345.503438 348.095625 
L 345.503438 21.935625 
" style="fill:none;stroke:#cccccc;stroke-linecap:round;stroke-width:0.8;"/>
     </g>
     <g id="text_5">
      <!-- 0.8 -->
      <g style="fill:#262626;" transform="translate(338.553438 362.253438)scale(0.1 -0.1)">
       <defs>
        <path d="M 17.671875 38.8125 
Q 12.203125 40.828125 9.5625 44.53125 
Q 6.9375 48.25 6.9375 53.421875 
Q 6.9375 61.234375 12.546875 66.546875 
Q 18.171875 71.875 27.484375 71.875 
Q 36.859375 71.875 42.578125 66.421875 
Q 48.296875 60.984375 48.296875 53.171875 
Q 48.296875 48.1875 45.671875 44.5 
Q 43.0625 40.828125 37.75 38.8125 
Q 44.34375 36.671875 47.78125 31.875 
Q 51.21875 27.09375 51.21875 20.453125 
Q 51.21875 11.28125 44.71875 5.03125 
Q 38.234375 -1.21875 27.640625 -1.21875 
Q 17.046875 -1.21875 10.546875 5.046875 
Q 4.046875 11.328125 4.046875 20.703125 
Q 4.046875 27.6875 7.59375 32.390625 
Q 11.140625 37.109375 17.671875 38.8125 
z
M 15.921875 53.71875 
Q 15.921875 48.640625 19.1875 45.40625 
Q 22.46875 42.1875 27.6875 42.1875 
Q 32.765625 42.1875 36.015625 45.375 
Q 39.265625 48.578125 39.265625 53.21875 
Q 39.265625 58.0625 35.90625 61.359375 
Q 32.5625 64.65625 27.59375 64.65625 
Q 22.5625 64.65625 19.234375 61.421875 
Q 15.921875 58.203125 15.921875 53.71875 
z
M 13.09375 20.65625 
Q 13.09375 16.890625 14.875 13.375 
Q 16.65625 9.859375 20.171875 7.921875 
Q 23.6875 6 27.734375 6 
Q 34.03125 6 38.125 10.046875 
Q 42.234375 14.109375 42.234375 20.359375 
Q 42.234375 26.703125 38.015625 30.859375 
Q 33.796875 35.015625 27.4375 35.015625 
Q 21.234375 35.015625 17.15625 30.90625 
Q 13.09375 26.8125 13.09375 20.65625 
z
" id="ArialMT-56"/>
       </defs>
       <use xlink:href="#ArialMT-48"/>
       <use x="55.615234" xlink:href="#ArialMT-46"/>
       <use x="83.398438" xlink:href="#ArialMT-56"/>
      </g>
     </g>
    </g>
    <g id="xtick_6">
     <g id="line2d_6">
      <path clip-path="url(#p1ddccff765)" d="M 423.623438 348.095625 
L 423.623438 21.935625 
" style="fill:none;stroke:#cccccc;stroke-linecap:round;stroke-width:0.8;"/>
     </g>
     <g id="text_6">
      <!-- 1.0 -->
      <g style="fill:#262626;" transform="translate(416.673438 362.253438)scale(0.1 -0.1)">
       <defs>
        <path d="M 37.25 0 
L 28.46875 0 
L 28.46875 56 
Q 25.296875 52.984375 20.140625 49.953125 
Q 14.984375 46.921875 10.890625 45.40625 
L 10.890625 53.90625 
Q 18.265625 57.375 23.78125 62.296875 
Q 29.296875 67.234375 31.59375 71.875 
L 37.25 71.875 
z
" id="ArialMT-49"/>
       </defs>
       <use xlink:href="#ArialMT-49"/>
       <use x="55.615234" xlink:href="#ArialMT-46"/>
       <use x="83.398438" xlink:href="#ArialMT-48"/>
      </g>
     </g>
    </g>
    <g id="text_7">
     <!-- y_train_prior_mean -->
     <g style="fill:#262626;" transform="translate(185.248438 375.39875)scale(0.1 -0.1)">
      <defs>
       <path d="M 6.203125 -19.96875 
L 5.21875 -11.71875 
Q 8.109375 -12.5 10.25 -12.5 
Q 13.1875 -12.5 14.9375 -11.515625 
Q 16.703125 -10.546875 17.828125 -8.796875 
Q 18.65625 -7.46875 20.515625 -2.25 
Q 20.75 -1.515625 21.296875 -0.09375 
L 1.609375 51.859375 
L 11.078125 51.859375 
L 21.875 21.828125 
Q 23.96875 16.109375 25.640625 9.8125 
Q 27.15625 15.875 29.25 21.625 
L 40.328125 51.859375 
L 49.125 51.859375 
L 29.390625 -0.875 
Q 26.21875 -9.421875 24.46875 -12.640625 
Q 22.125 -17 19.09375 -19.015625 
Q 16.0625 -21.046875 11.859375 -21.046875 
Q 9.328125 -21.046875 6.203125 -19.96875 
z
" id="ArialMT-121"/>
       <path d="M -1.515625 -19.875 
L -1.515625 -13.53125 
L 56.734375 -13.53125 
L 56.734375 -19.875 
z
" id="ArialMT-95"/>
       <path d="M 25.78125 7.859375 
L 27.046875 0.09375 
Q 23.34375 -0.6875 20.40625 -0.6875 
Q 15.625 -0.6875 12.984375 0.828125 
Q 10.359375 2.34375 9.28125 4.8125 
Q 8.203125 7.28125 8.203125 15.1875 
L 8.203125 45.015625 
L 1.765625 45.015625 
L 1.765625 51.859375 
L 8.203125 51.859375 
L 8.203125 64.703125 
L 16.9375 69.96875 
L 16.9375 51.859375 
L 25.78125 51.859375 
L 25.78125 45.015625 
L 16.9375 45.015625 
L 16.9375 14.703125 
Q 16.9375 10.9375 17.40625 9.859375 
Q 17.875 8.796875 18.921875 8.15625 
Q 19.96875 7.515625 21.921875 7.515625 
Q 23.390625 7.515625 25.78125 7.859375 
z
" id="ArialMT-116"/>
       <path d="M 6.5 0 
L 6.5 51.859375 
L 14.40625 51.859375 
L 14.40625 44 
Q 17.4375 49.515625 20 51.265625 
Q 22.5625 53.03125 25.640625 53.03125 
Q 30.078125 53.03125 34.671875 50.203125 
L 31.640625 42.046875 
Q 28.421875 43.953125 25.203125 43.953125 
Q 22.3125 43.953125 20.015625 42.21875 
Q 17.71875 40.484375 16.75 37.40625 
Q 15.28125 32.71875 15.28125 27.15625 
L 15.28125 0 
z
" id="ArialMT-114"/>
       <path d="M 40.4375 6.390625 
Q 35.546875 2.25 31.03125 0.53125 
Q 26.515625 -1.171875 21.34375 -1.171875 
Q 12.796875 -1.171875 8.203125 3 
Q 3.609375 7.171875 3.609375 13.671875 
Q 3.609375 17.484375 5.34375 20.625 
Q 7.078125 23.78125 9.890625 25.6875 
Q 12.703125 27.59375 16.21875 28.5625 
Q 18.796875 29.25 24.03125 29.890625 
Q 34.671875 31.15625 39.703125 32.90625 
Q 39.75 34.71875 39.75 35.203125 
Q 39.75 40.578125 37.25 42.78125 
Q 33.890625 45.75 27.25 45.75 
Q 21.046875 45.75 18.09375 43.578125 
Q 15.140625 41.40625 13.71875 35.890625 
L 5.125 37.0625 
Q 6.296875 42.578125 8.984375 45.96875 
Q 11.671875 49.359375 16.75 51.1875 
Q 21.828125 53.03125 28.515625 53.03125 
Q 35.15625 53.03125 39.296875 51.46875 
Q 43.453125 49.90625 45.40625 47.53125 
Q 47.359375 45.171875 48.140625 41.546875 
Q 48.578125 39.3125 48.578125 33.453125 
L 48.578125 21.734375 
Q 48.578125 9.46875 49.140625 6.21875 
Q 49.703125 2.984375 51.375 0 
L 42.1875 0 
Q 40.828125 2.734375 40.4375 6.390625 
z
M 39.703125 26.03125 
Q 34.90625 24.078125 25.34375 22.703125 
Q 19.921875 21.921875 17.671875 20.9375 
Q 15.4375 19.96875 14.203125 18.09375 
Q 12.984375 16.21875 12.984375 13.921875 
Q 12.984375 10.40625 15.640625 8.0625 
Q 18.3125 5.71875 23.4375 5.71875 
Q 28.515625 5.71875 32.46875 7.9375 
Q 36.421875 10.15625 38.28125 14.015625 
Q 39.703125 17 39.703125 22.796875 
z
" id="ArialMT-97"/>
       <path d="M 6.640625 61.46875 
L 6.640625 71.578125 
L 15.4375 71.578125 
L 15.4375 61.46875 
z
M 6.640625 0 
L 6.640625 51.859375 
L 15.4375 51.859375 
L 15.4375 0 
z
" id="ArialMT-105"/>
       <path d="M 6.59375 0 
L 6.59375 51.859375 
L 14.5 51.859375 
L 14.5 44.484375 
Q 20.21875 53.03125 31 53.03125 
Q 35.6875 53.03125 39.625 51.34375 
Q 43.5625 49.65625 45.515625 46.921875 
Q 47.46875 44.1875 48.25 40.4375 
Q 48.734375 37.984375 48.734375 31.890625 
L 48.734375 0 
L 39.9375 0 
L 39.9375 31.546875 
Q 39.9375 36.921875 38.90625 39.578125 
Q 37.890625 42.234375 35.28125 43.8125 
Q 32.671875 45.40625 29.15625 45.40625 
Q 23.53125 45.40625 19.453125 41.84375 
Q 15.375 38.28125 15.375 28.328125 
L 15.375 0 
z
" id="ArialMT-110"/>
       <path d="M 6.59375 -19.875 
L 6.59375 51.859375 
L 14.59375 51.859375 
L 14.59375 45.125 
Q 17.4375 49.078125 21 51.046875 
Q 24.5625 53.03125 29.640625 53.03125 
Q 36.28125 53.03125 41.359375 49.609375 
Q 46.4375 46.1875 49.015625 39.953125 
Q 51.609375 33.734375 51.609375 26.3125 
Q 51.609375 18.359375 48.75 11.984375 
Q 45.90625 5.609375 40.453125 2.21875 
Q 35.015625 -1.171875 29 -1.171875 
Q 24.609375 -1.171875 21.109375 0.6875 
Q 17.625 2.546875 15.375 5.375 
L 15.375 -19.875 
z
M 14.546875 25.640625 
Q 14.546875 15.625 18.59375 10.84375 
Q 22.65625 6.0625 28.421875 6.0625 
Q 34.28125 6.0625 38.453125 11.015625 
Q 42.625 15.96875 42.625 26.375 
Q 42.625 36.28125 38.546875 41.203125 
Q 34.46875 46.140625 28.8125 46.140625 
Q 23.1875 46.140625 18.859375 40.890625 
Q 14.546875 35.640625 14.546875 25.640625 
z
" id="ArialMT-112"/>
       <path d="M 3.328125 25.921875 
Q 3.328125 40.328125 11.328125 47.265625 
Q 18.015625 53.03125 27.640625 53.03125 
Q 38.328125 53.03125 45.109375 46.015625 
Q 51.90625 39.015625 51.90625 26.65625 
Q 51.90625 16.65625 48.90625 10.90625 
Q 45.90625 5.171875 40.15625 2 
Q 34.421875 -1.171875 27.640625 -1.171875 
Q 16.75 -1.171875 10.03125 5.8125 
Q 3.328125 12.796875 3.328125 25.921875 
z
M 12.359375 25.921875 
Q 12.359375 15.96875 16.703125 11.015625 
Q 21.046875 6.0625 27.640625 6.0625 
Q 34.1875 6.0625 38.53125 11.03125 
Q 42.875 16.015625 42.875 26.21875 
Q 42.875 35.84375 38.5 40.796875 
Q 34.125 45.75 27.640625 45.75 
Q 21.046875 45.75 16.703125 40.8125 
Q 12.359375 35.890625 12.359375 25.921875 
z
" id="ArialMT-111"/>
       <path d="M 6.59375 0 
L 6.59375 51.859375 
L 14.453125 51.859375 
L 14.453125 44.578125 
Q 16.890625 48.390625 20.9375 50.703125 
Q 25 53.03125 30.171875 53.03125 
Q 35.9375 53.03125 39.625 50.640625 
Q 43.3125 48.25 44.828125 43.953125 
Q 50.984375 53.03125 60.84375 53.03125 
Q 68.5625 53.03125 72.703125 48.75 
Q 76.859375 44.484375 76.859375 35.59375 
L 76.859375 0 
L 68.109375 0 
L 68.109375 32.671875 
Q 68.109375 37.9375 67.25 40.25 
Q 66.40625 42.578125 64.15625 43.984375 
Q 61.921875 45.40625 58.890625 45.40625 
Q 53.421875 45.40625 49.796875 41.765625 
Q 46.1875 38.140625 46.1875 30.125 
L 46.1875 0 
L 37.40625 0 
L 37.40625 33.6875 
Q 37.40625 39.546875 35.25 42.46875 
Q 33.109375 45.40625 28.21875 45.40625 
Q 24.515625 45.40625 21.359375 43.453125 
Q 18.21875 41.5 16.796875 37.734375 
Q 15.375 33.984375 15.375 26.90625 
L 15.375 0 
z
" id="ArialMT-109"/>
       <path d="M 42.09375 16.703125 
L 51.171875 15.578125 
Q 49.03125 7.625 43.21875 3.21875 
Q 37.40625 -1.171875 28.375 -1.171875 
Q 17 -1.171875 10.328125 5.828125 
Q 3.65625 12.84375 3.65625 25.484375 
Q 3.65625 38.578125 10.390625 45.796875 
Q 17.140625 53.03125 27.875 53.03125 
Q 38.28125 53.03125 44.875 45.953125 
Q 51.46875 38.875 51.46875 26.03125 
Q 51.46875 25.25 51.421875 23.6875 
L 12.75 23.6875 
Q 13.234375 15.140625 17.578125 10.59375 
Q 21.921875 6.0625 28.421875 6.0625 
Q 33.25 6.0625 36.671875 8.59375 
Q 40.09375 11.140625 42.09375 16.703125 
z
M 13.234375 30.90625 
L 42.1875 30.90625 
Q 41.609375 37.453125 38.875 40.71875 
Q 34.671875 45.796875 27.984375 45.796875 
Q 21.921875 45.796875 17.796875 41.75 
Q 13.671875 37.703125 13.234375 30.90625 
z
" id="ArialMT-101"/>
      </defs>
      <use xlink:href="#ArialMT-121"/>
      <use x="50" xlink:href="#ArialMT-95"/>
      <use x="105.615234" xlink:href="#ArialMT-116"/>
      <use x="133.398438" xlink:href="#ArialMT-114"/>
      <use x="166.699219" xlink:href="#ArialMT-97"/>
      <use x="222.314453" xlink:href="#ArialMT-105"/>
      <use x="244.53125" xlink:href="#ArialMT-110"/>
      <use x="300.146484" xlink:href="#ArialMT-95"/>
      <use x="355.761719" xlink:href="#ArialMT-112"/>
      <use x="411.376953" xlink:href="#ArialMT-114"/>
      <use x="444.677734" xlink:href="#ArialMT-105"/>
      <use x="466.894531" xlink:href="#ArialMT-111"/>
      <use x="522.509766" xlink:href="#ArialMT-114"/>
      <use x="555.810547" xlink:href="#ArialMT-95"/>
      <use x="611.425781" xlink:href="#ArialMT-109"/>
      <use x="694.726562" xlink:href="#ArialMT-101"/>
      <use x="750.341797" xlink:href="#ArialMT-97"/>
      <use x="805.957031" xlink:href="#ArialMT-110"/>
     </g>
    </g>
   </g>
   <g id="matplotlib.axis_2">
    <g id="ytick_1">
     <g id="line2d_7">
      <path clip-path="url(#p1ddccff765)" d="M 33.023438 348.095625 
L 423.623438 348.095625 
" style="fill:none;stroke:#cccccc;stroke-linecap:round;stroke-width:0.8;"/>
     </g>
     <g id="text_8">
      <!-- 0 -->
      <g style="fill:#262626;" transform="translate(20.4625 351.674531)scale(0.1 -0.1)">
       <use xlink:href="#ArialMT-48"/>
      </g>
     </g>
    </g>
    <g id="ytick_2">
     <g id="line2d_8">
      <path clip-path="url(#p1ddccff765)" d="M 33.023438 298.279085 
L 423.623438 298.279085 
" style="fill:none;stroke:#cccccc;stroke-linecap:round;stroke-width:0.8;"/>
     </g>
     <g id="text_9">
      <!-- 1 -->
      <g style="fill:#262626;" transform="translate(20.4625 301.857992)scale(0.1 -0.1)">
       <use xlink:href="#ArialMT-49"/>
      </g>
     </g>
    </g>
    <g id="ytick_3">
     <g id="line2d_9">
      <path clip-path="url(#p1ddccff765)" d="M 33.023438 248.462546 
L 423.623438 248.462546 
" style="fill:none;stroke:#cccccc;stroke-linecap:round;stroke-width:0.8;"/>
     </g>
     <g id="text_10">
      <!-- 2 -->
      <g style="fill:#262626;" transform="translate(20.4625 252.041452)scale(0.1 -0.1)">
       <use xlink:href="#ArialMT-50"/>
      </g>
     </g>
    </g>
    <g id="ytick_4">
     <g id="line2d_10">
      <path clip-path="url(#p1ddccff765)" d="M 33.023438 198.646006 
L 423.623438 198.646006 
" style="fill:none;stroke:#cccccc;stroke-linecap:round;stroke-width:0.8;"/>
     </g>
     <g id="text_11">
      <!-- 3 -->
      <g style="fill:#262626;" transform="translate(20.4625 202.224912)scale(0.1 -0.1)">
       <defs>
        <path d="M 4.203125 18.890625 
L 12.984375 20.0625 
Q 14.5 12.59375 18.140625 9.296875 
Q 21.78125 6 27 6 
Q 33.203125 6 37.46875 10.296875 
Q 41.75 14.59375 41.75 20.953125 
Q 41.75 27 37.796875 30.921875 
Q 33.84375 34.859375 27.734375 34.859375 
Q 25.25 34.859375 21.53125 33.890625 
L 22.515625 41.609375 
Q 23.390625 41.5 23.921875 41.5 
Q 29.546875 41.5 34.03125 44.421875 
Q 38.53125 47.359375 38.53125 53.46875 
Q 38.53125 58.296875 35.25 61.46875 
Q 31.984375 64.65625 26.8125 64.65625 
Q 21.6875 64.65625 18.265625 61.421875 
Q 14.84375 58.203125 13.875 51.765625 
L 5.078125 53.328125 
Q 6.6875 62.15625 12.390625 67.015625 
Q 18.109375 71.875 26.609375 71.875 
Q 32.46875 71.875 37.390625 69.359375 
Q 42.328125 66.84375 44.9375 62.5 
Q 47.5625 58.15625 47.5625 53.265625 
Q 47.5625 48.640625 45.0625 44.828125 
Q 42.578125 41.015625 37.703125 38.765625 
Q 44.046875 37.3125 47.5625 32.6875 
Q 51.078125 28.078125 51.078125 21.140625 
Q 51.078125 11.765625 44.234375 5.25 
Q 37.40625 -1.265625 26.953125 -1.265625 
Q 17.53125 -1.265625 11.296875 4.34375 
Q 5.078125 9.96875 4.203125 18.890625 
z
" id="ArialMT-51"/>
       </defs>
       <use xlink:href="#ArialMT-51"/>
      </g>
     </g>
    </g>
    <g id="ytick_5">
     <g id="line2d_11">
      <path clip-path="url(#p1ddccff765)" d="M 33.023438 148.829466 
L 423.623438 148.829466 
" style="fill:none;stroke:#cccccc;stroke-linecap:round;stroke-width:0.8;"/>
     </g>
     <g id="text_12">
      <!-- 4 -->
      <g style="fill:#262626;" transform="translate(20.4625 152.408372)scale(0.1 -0.1)">
       <use xlink:href="#ArialMT-52"/>
      </g>
     </g>
    </g>
    <g id="ytick_6">
     <g id="line2d_12">
      <path clip-path="url(#p1ddccff765)" d="M 33.023438 99.012926 
L 423.623438 99.012926 
" style="fill:none;stroke:#cccccc;stroke-linecap:round;stroke-width:0.8;"/>
     </g>
     <g id="text_13">
      <!-- 5 -->
      <g style="fill:#262626;" transform="translate(20.4625 102.591833)scale(0.1 -0.1)">
       <defs>
        <path d="M 4.15625 18.75 
L 13.375 19.53125 
Q 14.40625 12.796875 18.140625 9.390625 
Q 21.875 6 27.15625 6 
Q 33.5 6 37.890625 10.78125 
Q 42.28125 15.578125 42.28125 23.484375 
Q 42.28125 31 38.0625 35.34375 
Q 33.84375 39.703125 27 39.703125 
Q 22.75 39.703125 19.328125 37.765625 
Q 15.921875 35.84375 13.96875 32.765625 
L 5.71875 33.84375 
L 12.640625 70.609375 
L 48.25 70.609375 
L 48.25 62.203125 
L 19.671875 62.203125 
L 15.828125 42.96875 
Q 22.265625 47.46875 29.34375 47.46875 
Q 38.71875 47.46875 45.15625 40.96875 
Q 51.609375 34.46875 51.609375 24.265625 
Q 51.609375 14.546875 45.953125 7.46875 
Q 39.0625 -1.21875 27.15625 -1.21875 
Q 17.390625 -1.21875 11.203125 4.25 
Q 5.03125 9.71875 4.15625 18.75 
z
" id="ArialMT-53"/>
       </defs>
       <use xlink:href="#ArialMT-53"/>
      </g>
     </g>
    </g>
    <g id="ytick_7">
     <g id="line2d_13">
      <path clip-path="url(#p1ddccff765)" d="M 33.023438 49.196387 
L 423.623438 49.196387 
" style="fill:none;stroke:#cccccc;stroke-linecap:round;stroke-width:0.8;"/>
     </g>
     <g id="text_14">
      <!-- 6 -->
      <g style="fill:#262626;" transform="translate(20.4625 52.775293)scale(0.1 -0.1)">
       <use xlink:href="#ArialMT-54"/>
      </g>
     </g>
    </g>
    <g id="text_15">
     <!-- Density -->
     <g style="fill:#262626;" transform="translate(14.357813 201.6875)rotate(-90)scale(0.1 -0.1)">
      <defs>
       <path d="M 7.71875 0 
L 7.71875 71.578125 
L 32.375 71.578125 
Q 40.71875 71.578125 45.125 70.5625 
Q 51.265625 69.140625 55.609375 65.4375 
Q 61.28125 60.640625 64.078125 53.1875 
Q 66.890625 45.75 66.890625 36.1875 
Q 66.890625 28.03125 64.984375 21.734375 
Q 63.09375 15.4375 60.109375 11.296875 
Q 57.125 7.171875 53.578125 4.796875 
Q 50.046875 2.4375 45.046875 1.21875 
Q 40.046875 0 33.546875 0 
z
M 17.1875 8.453125 
L 32.46875 8.453125 
Q 39.546875 8.453125 43.578125 9.765625 
Q 47.609375 11.078125 50 13.484375 
Q 53.375 16.84375 55.25 22.53125 
Q 57.125 28.21875 57.125 36.328125 
Q 57.125 47.5625 53.4375 53.59375 
Q 49.75 59.625 44.484375 61.671875 
Q 40.671875 63.140625 32.234375 63.140625 
L 17.1875 63.140625 
z
" id="ArialMT-68"/>
       <path d="M 3.078125 15.484375 
L 11.765625 16.84375 
Q 12.5 11.625 15.84375 8.84375 
Q 19.1875 6.0625 25.203125 6.0625 
Q 31.25 6.0625 34.171875 8.515625 
Q 37.109375 10.984375 37.109375 14.3125 
Q 37.109375 17.28125 34.515625 19 
Q 32.71875 20.171875 25.53125 21.96875 
Q 15.875 24.421875 12.140625 26.203125 
Q 8.40625 27.984375 6.46875 31.125 
Q 4.546875 34.28125 4.546875 38.09375 
Q 4.546875 41.546875 6.125 44.5 
Q 7.71875 47.46875 10.453125 49.421875 
Q 12.5 50.921875 16.03125 51.96875 
Q 19.578125 53.03125 23.640625 53.03125 
Q 29.734375 53.03125 34.34375 51.265625 
Q 38.96875 49.515625 41.15625 46.5 
Q 43.359375 43.5 44.1875 38.484375 
L 35.59375 37.3125 
Q 35.015625 41.3125 32.203125 43.546875 
Q 29.390625 45.796875 24.265625 45.796875 
Q 18.21875 45.796875 15.625 43.796875 
Q 13.03125 41.796875 13.03125 39.109375 
Q 13.03125 37.40625 14.109375 36.03125 
Q 15.1875 34.625 17.484375 33.6875 
Q 18.796875 33.203125 25.25 31.453125 
Q 34.578125 28.953125 38.25 27.359375 
Q 41.9375 25.78125 44.03125 22.75 
Q 46.140625 19.734375 46.140625 15.234375 
Q 46.140625 10.84375 43.578125 6.953125 
Q 41.015625 3.078125 36.171875 0.953125 
Q 31.34375 -1.171875 25.25 -1.171875 
Q 15.140625 -1.171875 9.84375 3.03125 
Q 4.546875 7.234375 3.078125 15.484375 
z
" id="ArialMT-115"/>
      </defs>
      <use xlink:href="#ArialMT-68"/>
      <use x="72.216797" xlink:href="#ArialMT-101"/>
      <use x="127.832031" xlink:href="#ArialMT-110"/>
      <use x="183.447266" xlink:href="#ArialMT-115"/>
      <use x="233.447266" xlink:href="#ArialMT-105"/>
      <use x="255.664062" xlink:href="#ArialMT-116"/>
      <use x="283.447266" xlink:href="#ArialMT-121"/>
     </g>
    </g>
   </g>
   <g id="PolyCollection_1">
    <defs>
     <path d="M 172.087898 -36.694026 
L 172.087898 -36.607813 
L 172.574567 -36.607813 
L 173.061236 -36.607813 
L 173.547904 -36.607813 
L 174.034573 -36.607813 
L 174.521242 -36.607813 
L 175.007911 -36.607813 
L 175.494579 -36.607813 
L 175.981248 -36.607813 
L 176.467917 -36.607813 
L 176.954585 -36.607813 
L 177.441254 -36.607813 
L 177.927923 -36.607813 
L 178.414592 -36.607813 
L 178.90126 -36.607813 
L 179.387929 -36.607813 
L 179.874598 -36.607813 
L 180.361267 -36.607813 
L 180.847935 -36.607813 
L 181.334604 -36.607813 
L 181.821273 -36.607813 
L 182.307942 -36.607813 
L 182.79461 -36.607813 
L 183.281279 -36.607813 
L 183.767948 -36.607813 
L 184.254617 -36.607813 
L 184.741285 -36.607813 
L 185.227954 -36.607813 
L 185.714623 -36.607813 
L 186.201292 -36.607813 
L 186.68796 -36.607813 
L 187.174629 -36.607813 
L 187.661298 -36.607813 
L 188.147966 -36.607813 
L 188.634635 -36.607813 
L 189.121304 -36.607813 
L 189.607973 -36.607813 
L 190.094641 -36.607813 
L 190.58131 -36.607813 
L 191.067979 -36.607813 
L 191.554648 -36.607813 
L 192.041316 -36.607813 
L 192.527985 -36.607813 
L 193.014654 -36.607813 
L 193.501323 -36.607813 
L 193.987991 -36.607813 
L 194.47466 -36.607813 
L 194.961329 -36.607813 
L 195.447998 -36.607813 
L 195.934666 -36.607813 
L 196.421335 -36.607813 
L 196.908004 -36.607813 
L 197.394672 -36.607813 
L 197.881341 -36.607813 
L 198.36801 -36.607813 
L 198.854679 -36.607813 
L 199.341347 -36.607813 
L 199.828016 -36.607813 
L 200.314685 -36.607813 
L 200.801354 -36.607813 
L 201.288022 -36.607813 
L 201.774691 -36.607813 
L 202.26136 -36.607813 
L 202.748029 -36.607813 
L 203.234697 -36.607813 
L 203.721366 -36.607813 
L 204.208035 -36.607813 
L 204.694704 -36.607813 
L 205.181372 -36.607813 
L 205.668041 -36.607813 
L 206.15471 -36.607813 
L 206.641378 -36.607813 
L 207.128047 -36.607813 
L 207.614716 -36.607813 
L 208.101385 -36.607813 
L 208.588053 -36.607813 
L 209.074722 -36.607813 
L 209.561391 -36.607813 
L 210.04806 -36.607813 
L 210.534728 -36.607813 
L 211.021397 -36.607813 
L 211.508066 -36.607813 
L 211.994735 -36.607813 
L 212.481403 -36.607813 
L 212.968072 -36.607813 
L 213.454741 -36.607813 
L 213.94141 -36.607813 
L 214.428078 -36.607813 
L 214.914747 -36.607813 
L 215.401416 -36.607813 
L 215.888084 -36.607813 
L 216.374753 -36.607813 
L 216.861422 -36.607813 
L 217.348091 -36.607813 
L 217.834759 -36.607813 
L 218.321428 -36.607813 
L 218.808097 -36.607813 
L 219.294766 -36.607813 
L 219.781434 -36.607813 
L 220.268103 -36.607813 
L 220.754772 -36.607813 
L 221.241441 -36.607813 
L 221.728109 -36.607813 
L 222.214778 -36.607813 
L 222.701447 -36.607813 
L 223.188116 -36.607813 
L 223.674784 -36.607813 
L 224.161453 -36.607813 
L 224.648122 -36.607813 
L 225.134791 -36.607813 
L 225.621459 -36.607813 
L 226.108128 -36.607813 
L 226.594797 -36.607813 
L 227.081465 -36.607813 
L 227.568134 -36.607813 
L 228.054803 -36.607813 
L 228.541472 -36.607813 
L 229.02814 -36.607813 
L 229.514809 -36.607813 
L 230.001478 -36.607813 
L 230.488147 -36.607813 
L 230.974815 -36.607813 
L 231.461484 -36.607813 
L 231.948153 -36.607813 
L 232.434822 -36.607813 
L 232.92149 -36.607813 
L 233.408159 -36.607813 
L 233.894828 -36.607813 
L 234.381497 -36.607813 
L 234.868165 -36.607813 
L 235.354834 -36.607813 
L 235.841503 -36.607813 
L 236.328171 -36.607813 
L 236.81484 -36.607813 
L 237.301509 -36.607813 
L 237.788178 -36.607813 
L 238.274846 -36.607813 
L 238.761515 -36.607813 
L 239.248184 -36.607813 
L 239.734853 -36.607813 
L 240.221521 -36.607813 
L 240.70819 -36.607813 
L 241.194859 -36.607813 
L 241.681528 -36.607813 
L 242.168196 -36.607813 
L 242.654865 -36.607813 
L 243.141534 -36.607813 
L 243.628203 -36.607813 
L 244.114871 -36.607813 
L 244.60154 -36.607813 
L 245.088209 -36.607813 
L 245.574877 -36.607813 
L 246.061546 -36.607813 
L 246.548215 -36.607813 
L 247.034884 -36.607813 
L 247.521552 -36.607813 
L 248.008221 -36.607813 
L 248.49489 -36.607813 
L 248.981559 -36.607813 
L 249.468227 -36.607813 
L 249.954896 -36.607813 
L 250.441565 -36.607813 
L 250.928234 -36.607813 
L 251.414902 -36.607813 
L 251.901571 -36.607813 
L 252.38824 -36.607813 
L 252.874909 -36.607813 
L 253.361577 -36.607813 
L 253.848246 -36.607813 
L 254.334915 -36.607813 
L 254.821583 -36.607813 
L 255.308252 -36.607813 
L 255.794921 -36.607813 
L 256.28159 -36.607813 
L 256.768258 -36.607813 
L 257.254927 -36.607813 
L 257.741596 -36.607813 
L 258.228265 -36.607813 
L 258.714933 -36.607813 
L 259.201602 -36.607813 
L 259.688271 -36.607813 
L 260.17494 -36.607813 
L 260.661608 -36.607813 
L 261.148277 -36.607813 
L 261.634946 -36.607813 
L 262.121615 -36.607813 
L 262.608283 -36.607813 
L 263.094952 -36.607813 
L 263.581621 -36.607813 
L 264.06829 -36.607813 
L 264.554958 -36.607813 
L 265.041627 -36.607813 
L 265.528296 -36.607813 
L 266.014964 -36.607813 
L 266.501633 -36.607813 
L 266.988302 -36.607813 
L 267.474971 -36.607813 
L 267.961639 -36.607813 
L 268.448308 -36.607813 
L 268.934977 -36.607813 
L 268.934977 -36.78999 
L 268.934977 -36.78999 
L 268.448308 -36.842939 
L 267.961639 -36.909174 
L 267.474971 -36.991398 
L 266.988302 -37.092692 
L 266.501633 -37.216531 
L 266.014964 -37.366776 
L 265.528296 -37.547668 
L 265.041627 -37.763798 
L 264.554958 -38.020059 
L 264.06829 -38.321587 
L 263.581621 -38.673678 
L 263.094952 -39.081683 
L 262.608283 -39.550894 
L 262.121615 -40.086412 
L 261.634946 -40.693001 
L 261.148277 -41.374944 
L 260.661608 -42.135892 
L 260.17494 -42.978726 
L 259.688271 -43.905435 
L 259.201602 -44.917011 
L 258.714933 -46.013386 
L 258.228265 -47.193389 
L 257.741596 -48.454762 
L 257.254927 -49.794211 
L 256.768258 -51.207504 
L 256.28159 -52.689616 
L 255.794921 -54.234906 
L 255.308252 -55.837341 
L 254.821583 -57.490722 
L 254.334915 -59.188944 
L 253.848246 -60.926233 
L 253.361577 -62.69739 
L 252.874909 -64.49799 
L 252.38824 -66.324559 
L 251.901571 -68.174692 
L 251.414902 -70.04713 
L 250.928234 -71.941776 
L 250.441565 -73.859655 
L 249.954896 -75.802841 
L 249.468227 -77.774324 
L 248.981559 -79.777869 
L 248.49489 -81.817851 
L 248.008221 -83.899092 
L 247.521552 -86.026717 
L 247.034884 -88.206032 
L 246.548215 -90.442449 
L 246.061546 -92.741444 
L 245.574877 -95.108568 
L 245.088209 -97.549498 
L 244.60154 -100.070122 
L 244.114871 -102.676644 
L 243.628203 -105.375697 
L 243.141534 -108.174434 
L 242.654865 -111.080593 
L 242.168196 -114.102497 
L 241.681528 -117.248992 
L 241.194859 -120.529288 
L 240.70819 -123.952711 
L 240.221521 -127.528358 
L 239.734853 -131.264653 
L 239.248184 -135.16883 
L 238.761515 -139.246352 
L 238.274846 -143.500291 
L 237.788178 -147.930707 
L 237.301509 -152.53405 
L 236.81484 -157.302631 
L 236.328171 -162.224175 
L 235.841503 -167.281521 
L 235.354834 -172.45246 
L 234.868165 -177.70975 
L 234.381497 -183.021328 
L 233.894828 -188.350701 
L 233.408159 -193.657529 
L 232.92149 -198.898391 
L 232.434822 -204.02769 
L 231.948153 -208.998703 
L 231.461484 -213.764716 
L 230.974815 -218.28022 
L 230.488147 -222.502128 
L 230.001478 -226.390968 
L 229.514809 -229.912019 
L 229.02814 -233.036344 
L 228.541472 -235.741691 
L 228.054803 -238.013226 
L 227.568134 -239.844079 
L 227.081465 -241.235675 
L 226.594797 -242.197843 
L 226.108128 -242.748687 
L 225.621459 -242.914232 
L 225.134791 -242.727829 
L 224.648122 -242.229361 
L 224.161453 -241.464244 
L 223.674784 -240.482267 
L 223.188116 -239.336287 
L 222.701447 -238.080838 
L 222.214778 -236.770669 
L 221.728109 -235.459279 
L 221.241441 -234.197473 
L 220.754772 -233.032006 
L 220.268103 -232.004333 
L 219.781434 -231.149528 
L 219.294766 -230.495394 
L 218.808097 -230.061792 
L 218.321428 -229.860206 
L 217.834759 -229.893572 
L 217.348091 -230.156343 
L 216.861422 -230.634808 
L 216.374753 -231.30763 
L 215.888084 -232.146592 
L 215.401416 -233.117496 
L 214.914747 -234.181202 
L 214.428078 -235.294746 
L 213.94141 -236.4125 
L 213.454741 -237.487335 
L 212.968072 -238.471746 
L 212.481403 -239.318894 
L 211.994735 -239.983556 
L 211.508066 -240.422945 
L 211.021397 -240.597402 
L 210.534728 -240.470937 
L 210.04806 -240.011646 
L 209.561391 -239.191998 
L 209.074722 -237.989007 
L 208.588053 -236.384323 
L 208.101385 -234.364249 
L 207.614716 -231.919714 
L 207.128047 -229.04622 
L 206.641378 -225.743778 
L 206.15471 -222.016848 
L 205.668041 -217.874282 
L 205.181372 -213.329283 
L 204.694704 -208.39936 
L 204.208035 -203.106276 
L 203.721366 -197.475974 
L 203.234697 -191.538462 
L 202.748029 -185.327636 
L 202.26136 -178.881032 
L 201.774691 -172.239478 
L 201.288022 -165.446654 
L 200.801354 -158.548539 
L 200.314685 -151.592761 
L 199.828016 -144.627851 
L 199.341347 -137.702416 
L 198.854679 -130.864269 
L 198.36801 -124.159522 
L 197.881341 -117.631695 
L 197.394672 -111.320863 
L 196.908004 -105.262875 
L 196.421335 -99.488686 
L 195.934666 -94.023821 
L 195.447998 -88.887995 
L 194.961329 -84.094904 
L 194.47466 -79.652201 
L 193.987991 -75.561643 
L 193.501323 -71.819412 
L 193.014654 -68.416584 
L 192.527985 -65.339729 
L 192.041316 -62.571613 
L 191.554648 -60.091964 
L 191.067979 -57.878279 
L 190.58131 -55.906631 
L 190.094641 -54.152449 
L 189.607973 -52.591239 
L 189.121304 -51.199229 
L 188.634635 -49.953914 
L 188.147966 -48.834496 
L 187.661298 -47.822198 
L 187.174629 -46.90048 
L 186.68796 -46.055128 
L 186.201292 -45.274251 
L 185.714623 -44.548194 
L 185.227954 -43.869368 
L 184.741285 -43.232039 
L 184.254617 -42.632074 
L 183.767948 -42.066661 
L 183.281279 -41.53404 
L 182.79461 -41.033227 
L 182.307942 -40.563768 
L 181.821273 -40.125521 
L 181.334604 -39.718465 
L 180.847935 -39.342553 
L 180.361267 -38.9976 
L 179.874598 -38.683204 
L 179.387929 -38.398706 
L 178.90126 -38.143173 
L 178.414592 -37.915405 
L 177.927923 -37.713964 
L 177.441254 -37.53721 
L 176.954585 -37.383352 
L 176.467917 -37.250496 
L 175.981248 -37.136696 
L 175.494579 -37.040004 
L 175.007911 -36.958507 
L 174.521242 -36.89037 
L 174.034573 -36.833861 
L 173.547904 -36.787369 
L 173.061236 -36.749425 
L 172.574567 -36.718703 
L 172.087898 -36.694026 
z
" id="m4017ddcc39" style="stroke:#c44e52;"/>
    </defs>
    <g clip-path="url(#p1ddccff765)">
     <use style="fill:#c44e52;fill-opacity:0.1;stroke:#c44e52;" x="0" xlink:href="#m4017ddcc39" y="384.703438"/>
    </g>
   </g>
   <g id="PolyCollection_2">
    <defs>
     <path d="M 186.937766 -36.84392 
L 186.937766 -36.607813 
L 187.334075 -36.607813 
L 187.730383 -36.607813 
L 188.126691 -36.607813 
L 188.522999 -36.607813 
L 188.919308 -36.607813 
L 189.315616 -36.607813 
L 189.711924 -36.607813 
L 190.108232 -36.607813 
L 190.504541 -36.607813 
L 190.900849 -36.607813 
L 191.297157 -36.607813 
L 191.693465 -36.607813 
L 192.089774 -36.607813 
L 192.486082 -36.607813 
L 192.88239 -36.607813 
L 193.278698 -36.607813 
L 193.675007 -36.607813 
L 194.071315 -36.607813 
L 194.467623 -36.607813 
L 194.863931 -36.607813 
L 195.26024 -36.607813 
L 195.656548 -36.607813 
L 196.052856 -36.607813 
L 196.449164 -36.607813 
L 196.845473 -36.607813 
L 197.241781 -36.607813 
L 197.638089 -36.607813 
L 198.034397 -36.607813 
L 198.430706 -36.607813 
L 198.827014 -36.607813 
L 199.223322 -36.607813 
L 199.61963 -36.607813 
L 200.015939 -36.607813 
L 200.412247 -36.607813 
L 200.808555 -36.607813 
L 201.204863 -36.607813 
L 201.601172 -36.607813 
L 201.99748 -36.607813 
L 202.393788 -36.607813 
L 202.790096 -36.607813 
L 203.186405 -36.607813 
L 203.582713 -36.607813 
L 203.979021 -36.607813 
L 204.375329 -36.607813 
L 204.771638 -36.607813 
L 205.167946 -36.607813 
L 205.564254 -36.607813 
L 205.960562 -36.607813 
L 206.356871 -36.607813 
L 206.753179 -36.607813 
L 207.149487 -36.607813 
L 207.545795 -36.607813 
L 207.942104 -36.607813 
L 208.338412 -36.607813 
L 208.73472 -36.607813 
L 209.131028 -36.607813 
L 209.527337 -36.607813 
L 209.923645 -36.607813 
L 210.319953 -36.607813 
L 210.716261 -36.607813 
L 211.11257 -36.607813 
L 211.508878 -36.607813 
L 211.905186 -36.607813 
L 212.301494 -36.607813 
L 212.697803 -36.607813 
L 213.094111 -36.607813 
L 213.490419 -36.607813 
L 213.886728 -36.607813 
L 214.283036 -36.607813 
L 214.679344 -36.607813 
L 215.075652 -36.607813 
L 215.471961 -36.607813 
L 215.868269 -36.607813 
L 216.264577 -36.607813 
L 216.660885 -36.607813 
L 217.057194 -36.607813 
L 217.453502 -36.607813 
L 217.84981 -36.607813 
L 218.246118 -36.607813 
L 218.642427 -36.607813 
L 219.038735 -36.607813 
L 219.435043 -36.607813 
L 219.831351 -36.607813 
L 220.22766 -36.607813 
L 220.623968 -36.607813 
L 221.020276 -36.607813 
L 221.416584 -36.607813 
L 221.812893 -36.607813 
L 222.209201 -36.607813 
L 222.605509 -36.607813 
L 223.001817 -36.607813 
L 223.398126 -36.607813 
L 223.794434 -36.607813 
L 224.190742 -36.607813 
L 224.58705 -36.607813 
L 224.983359 -36.607813 
L 225.379667 -36.607813 
L 225.775975 -36.607813 
L 226.172283 -36.607813 
L 226.568592 -36.607813 
L 226.9649 -36.607813 
L 227.361208 -36.607813 
L 227.757516 -36.607813 
L 228.153825 -36.607813 
L 228.550133 -36.607813 
L 228.946441 -36.607813 
L 229.342749 -36.607813 
L 229.739058 -36.607813 
L 230.135366 -36.607813 
L 230.531674 -36.607813 
L 230.927982 -36.607813 
L 231.324291 -36.607813 
L 231.720599 -36.607813 
L 232.116907 -36.607813 
L 232.513215 -36.607813 
L 232.909524 -36.607813 
L 233.305832 -36.607813 
L 233.70214 -36.607813 
L 234.098448 -36.607813 
L 234.494757 -36.607813 
L 234.891065 -36.607813 
L 235.287373 -36.607813 
L 235.683681 -36.607813 
L 236.07999 -36.607813 
L 236.476298 -36.607813 
L 236.872606 -36.607813 
L 237.268914 -36.607813 
L 237.665223 -36.607813 
L 238.061531 -36.607813 
L 238.457839 -36.607813 
L 238.854147 -36.607813 
L 239.250456 -36.607813 
L 239.646764 -36.607813 
L 240.043072 -36.607813 
L 240.439381 -36.607813 
L 240.835689 -36.607813 
L 241.231997 -36.607813 
L 241.628305 -36.607813 
L 242.024614 -36.607813 
L 242.420922 -36.607813 
L 242.81723 -36.607813 
L 243.213538 -36.607813 
L 243.609847 -36.607813 
L 244.006155 -36.607813 
L 244.402463 -36.607813 
L 244.798771 -36.607813 
L 245.19508 -36.607813 
L 245.591388 -36.607813 
L 245.987696 -36.607813 
L 246.384004 -36.607813 
L 246.780313 -36.607813 
L 247.176621 -36.607813 
L 247.572929 -36.607813 
L 247.969237 -36.607813 
L 248.365546 -36.607813 
L 248.761854 -36.607813 
L 249.158162 -36.607813 
L 249.55447 -36.607813 
L 249.950779 -36.607813 
L 250.347087 -36.607813 
L 250.743395 -36.607813 
L 251.139703 -36.607813 
L 251.536012 -36.607813 
L 251.93232 -36.607813 
L 252.328628 -36.607813 
L 252.724936 -36.607813 
L 253.121245 -36.607813 
L 253.517553 -36.607813 
L 253.913861 -36.607813 
L 254.310169 -36.607813 
L 254.706478 -36.607813 
L 255.102786 -36.607813 
L 255.499094 -36.607813 
L 255.895402 -36.607813 
L 256.291711 -36.607813 
L 256.688019 -36.607813 
L 257.084327 -36.607813 
L 257.480635 -36.607813 
L 257.876944 -36.607813 
L 258.273252 -36.607813 
L 258.66956 -36.607813 
L 259.065868 -36.607813 
L 259.462177 -36.607813 
L 259.858485 -36.607813 
L 260.254793 -36.607813 
L 260.651101 -36.607813 
L 261.04741 -36.607813 
L 261.443718 -36.607813 
L 261.840026 -36.607813 
L 262.236334 -36.607813 
L 262.632643 -36.607813 
L 263.028951 -36.607813 
L 263.425259 -36.607813 
L 263.821567 -36.607813 
L 264.217876 -36.607813 
L 264.614184 -36.607813 
L 265.010492 -36.607813 
L 265.4068 -36.607813 
L 265.803109 -36.607813 
L 265.803109 -36.825141 
L 265.803109 -36.825141 
L 265.4068 -36.88769 
L 265.010492 -36.965746 
L 264.614184 -37.062411 
L 264.217876 -37.18121 
L 263.821567 -37.326097 
L 263.425259 -37.501454 
L 263.028951 -37.712066 
L 262.632643 -37.963093 
L 262.236334 -38.260006 
L 261.840026 -38.608517 
L 261.443718 -39.01448 
L 261.04741 -39.483779 
L 260.651101 -40.022192 
L 260.254793 -40.63525 
L 259.858485 -41.328081 
L 259.462177 -42.105259 
L 259.065868 -42.970652 
L 258.66956 -43.927291 
L 258.273252 -44.977259 
L 257.876944 -46.121612 
L 257.480635 -47.360344 
L 257.084327 -48.692386 
L 256.688019 -50.115674 
L 256.291711 -51.627255 
L 255.895402 -53.22345 
L 255.499094 -54.90006 
L 255.102786 -56.65262 
L 254.706478 -58.476674 
L 254.310169 -60.368064 
L 253.913861 -62.323225 
L 253.517553 -64.33946 
L 253.121245 -66.415179 
L 252.724936 -68.550096 
L 252.328628 -70.745359 
L 251.93232 -73.003609 
L 251.536012 -75.328969 
L 251.139703 -77.726946 
L 250.743395 -80.204267 
L 250.347087 -82.76865 
L 249.950779 -85.428524 
L 249.55447 -88.192722 
L 249.158162 -91.070157 
L 248.761854 -94.069511 
L 248.365546 -97.198956 
L 247.969237 -100.465924 
L 247.572929 -103.876943 
L 247.176621 -107.437555 
L 246.780313 -111.152308 
L 246.384004 -115.024839 
L 245.987696 -119.058029 
L 245.591388 -123.254216 
L 245.19508 -127.615457 
L 244.798771 -132.143802 
L 244.402463 -136.841571 
L 244.006155 -141.711586 
L 243.609847 -146.757347 
L 243.213538 -151.983119 
L 242.81723 -157.393907 
L 242.420922 -162.995312 
L 242.024614 -168.79325 
L 241.628305 -174.793534 
L 241.231997 -181.001334 
L 240.835689 -187.420519 
L 240.439381 -194.052915 
L 240.043072 -200.897506 
L 239.646764 -207.949616 
L 239.250456 -215.200117 
L 238.854147 -222.634707 
L 238.457839 -230.233305 
L 238.061531 -237.969604 
L 237.665223 -245.810828 
L 237.268914 -253.717727 
L 236.872606 -261.644819 
L 236.476298 -269.540916 
L 236.07999 -277.349917 
L 235.683681 -285.011867 
L 235.287373 -292.464243 
L 234.891065 -299.643455 
L 234.494757 -306.486478 
L 234.098448 -312.932592 
L 233.70214 -318.925137 
L 233.305832 -324.413232 
L 232.909524 -329.353376 
L 232.513215 -333.710875 
L 232.116907 -337.461025 
L 231.720599 -340.590006 
L 231.324291 -343.095448 
L 230.927982 -344.986635 
L 230.531674 -346.284342 
L 230.135366 -347.020313 
L 229.739058 -347.236384 
L 229.342749 -346.983296 
L 228.946441 -346.319242 
L 228.550133 -345.308184 
L 228.153825 -344.01803 
L 227.757516 -342.518703 
L 227.361208 -340.880194 
L 226.9649 -339.170652 
L 226.568592 -337.45457 
L 226.172283 -335.791137 
L 225.775975 -334.232778 
L 225.379667 -332.823955 
L 224.983359 -331.600221 
L 224.58705 -330.587578 
L 224.190742 -329.802125 
L 223.794434 -329.250007 
L 223.398126 -328.92764 
L 223.001817 -328.822212 
L 222.605509 -328.912413 
L 222.209201 -329.16937 
L 221.812893 -329.557748 
L 221.416584 -330.036976 
L 221.020276 -330.562555 
L 220.623968 -331.087401 
L 220.22766 -331.563187 
L 219.831351 -331.941643 
L 219.435043 -332.175772 
L 219.038735 -332.220968 
L 218.642427 -332.035981 
L 218.246118 -331.583744 
L 217.84981 -330.832019 
L 217.453502 -329.753871 
L 217.057194 -328.327959 
L 216.660885 -326.538659 
L 216.264577 -324.376024 
L 215.868269 -321.835586 
L 215.471961 -318.918039 
L 215.075652 -315.628808 
L 214.679344 -311.977538 
L 214.283036 -307.977524 
L 213.886728 -303.645106 
L 213.490419 -298.999059 
L 213.094111 -294.05999 
L 212.697803 -288.84978 
L 212.301494 -283.391062 
L 211.905186 -277.706769 
L 211.508878 -271.819746 
L 211.11257 -265.752444 
L 210.716261 -259.526678 
L 210.319953 -253.163463 
L 209.923645 -246.682911 
L 209.527337 -240.104188 
L 209.131028 -233.445513 
L 208.73472 -226.724197 
L 208.338412 -219.956709 
L 207.942104 -213.158752 
L 207.545795 -206.345354 
L 207.149487 -199.530953 
L 206.753179 -192.729484 
L 206.356871 -185.954449 
L 205.960562 -179.218985 
L 205.564254 -172.53591 
L 205.167946 -165.917765 
L 204.771638 -159.376841 
L 204.375329 -152.925199 
L 203.979021 -146.574675 
L 203.582713 -140.336877 
L 203.186405 -134.223182 
L 202.790096 -128.244711 
L 202.393788 -122.412304 
L 201.99748 -116.73648 
L 201.601172 -111.227383 
L 201.204863 -105.894725 
L 200.808555 -100.747703 
L 200.412247 -95.794915 
L 200.015939 -91.044261 
L 199.61963 -86.50283 
L 199.223322 -82.176794 
L 198.827014 -78.071288 
L 198.430706 -74.190305 
L 198.034397 -70.53659 
L 197.638089 -67.111559 
L 197.241781 -63.915228 
L 196.845473 -60.94618 
L 196.449164 -58.201542 
L 196.052856 -55.677011 
L 195.656548 -53.366903 
L 195.26024 -51.264228 
L 194.863931 -49.360811 
L 194.467623 -47.647422 
L 194.071315 -46.113936 
L 193.675007 -44.749509 
L 193.278698 -43.542764 
L 192.88239 -42.481981 
L 192.486082 -41.555281 
L 192.089774 -40.75081 
L 191.693465 -40.056901 
L 191.297157 -39.462228 
L 190.900849 -38.955931 
L 190.504541 -38.527725 
L 190.108232 -38.167983 
L 189.711924 -37.867793 
L 189.315616 -37.618997 
L 188.919308 -37.414206 
L 188.522999 -37.246797 
L 188.126691 -37.110894 
L 187.730383 -37.001336 
L 187.334075 -36.913633 
L 186.937766 -36.84392 
z
" id="mcc75f5e15a" style="stroke:#4c72b0;"/>
    </defs>
    <g clip-path="url(#p1ddccff765)">
     <use style="fill:#4c72b0;fill-opacity:0.1;stroke:#4c72b0;" x="0" xlink:href="#mcc75f5e15a" y="384.703438"/>
    </g>
   </g>
   <g id="line2d_14">
    <path clip-path="url(#p1ddccff765)" d="M 228.323438 348.095625 
L 228.323438 21.935625 
" style="fill:none;stroke:#808080;stroke-dasharray:5.55,2.4;stroke-dashoffset:0;stroke-width:1.5;"/>
   </g>
   <g id="patch_3">
    <path d="M 33.023438 348.095625 
L 33.023438 21.935625 
" style="fill:none;stroke:#ffffff;stroke-linecap:square;stroke-linejoin:miter;stroke-width:0.8;"/>
   </g>
   <g id="patch_4">
    <path d="M 423.623438 348.095625 
L 423.623438 21.935625 
" style="fill:none;stroke:#ffffff;stroke-linecap:square;stroke-linejoin:miter;stroke-width:0.8;"/>
   </g>
   <g id="patch_5">
    <path d="M 33.023438 348.095625 
L 423.623438 348.095625 
" style="fill:none;stroke:#ffffff;stroke-linecap:square;stroke-linejoin:miter;stroke-width:0.8;"/>
   </g>
   <g id="patch_6">
    <path d="M 33.023438 21.935625 
L 423.623438 21.935625 
" style="fill:none;stroke:#ffffff;stroke-linecap:square;stroke-linejoin:miter;stroke-width:0.8;"/>
   </g>
   <g id="text_16">
    <!-- Prior Means Distribution (train) -->
    <g style="fill:#262626;" transform="translate(146.970938 15.935625)scale(0.12 -0.12)">
     <defs>
      <path d="M 7.71875 0 
L 7.71875 71.578125 
L 34.71875 71.578125 
Q 41.84375 71.578125 45.609375 70.90625 
Q 50.875 70.015625 54.4375 67.546875 
Q 58.015625 65.09375 60.1875 60.640625 
Q 62.359375 56.203125 62.359375 50.875 
Q 62.359375 41.75 56.546875 35.421875 
Q 50.734375 29.109375 35.546875 29.109375 
L 17.1875 29.109375 
L 17.1875 0 
z
M 17.1875 37.546875 
L 35.6875 37.546875 
Q 44.875 37.546875 48.734375 40.96875 
Q 52.59375 44.390625 52.59375 50.59375 
Q 52.59375 55.078125 50.3125 58.265625 
Q 48.046875 61.46875 44.34375 62.5 
Q 41.9375 63.140625 35.5 63.140625 
L 17.1875 63.140625 
z
" id="ArialMT-80"/>
      <path id="ArialMT-32"/>
      <path d="M 7.421875 0 
L 7.421875 71.578125 
L 21.6875 71.578125 
L 38.625 20.90625 
Q 40.96875 13.8125 42.046875 10.296875 
Q 43.265625 14.203125 45.84375 21.78125 
L 62.984375 71.578125 
L 75.734375 71.578125 
L 75.734375 0 
L 66.609375 0 
L 66.609375 59.90625 
L 45.796875 0 
L 37.25 0 
L 16.546875 60.9375 
L 16.546875 0 
z
" id="ArialMT-77"/>
      <path d="M 14.703125 0 
L 6.546875 0 
L 6.546875 71.578125 
L 15.328125 71.578125 
L 15.328125 46.046875 
Q 20.90625 53.03125 29.546875 53.03125 
Q 34.328125 53.03125 38.59375 51.09375 
Q 42.875 49.171875 45.625 45.671875 
Q 48.390625 42.1875 49.953125 37.25 
Q 51.515625 32.328125 51.515625 26.703125 
Q 51.515625 13.375 44.921875 6.09375 
Q 38.328125 -1.171875 29.109375 -1.171875 
Q 19.921875 -1.171875 14.703125 6.5 
z
M 14.59375 26.3125 
Q 14.59375 17 17.140625 12.84375 
Q 21.296875 6.0625 28.375 6.0625 
Q 34.125 6.0625 38.328125 11.0625 
Q 42.53125 16.0625 42.53125 25.984375 
Q 42.53125 36.140625 38.5 40.96875 
Q 34.46875 45.796875 28.765625 45.796875 
Q 23 45.796875 18.796875 40.796875 
Q 14.59375 35.796875 14.59375 26.3125 
z
" id="ArialMT-98"/>
      <path d="M 40.578125 0 
L 40.578125 7.625 
Q 34.515625 -1.171875 24.125 -1.171875 
Q 19.53125 -1.171875 15.546875 0.578125 
Q 11.578125 2.34375 9.640625 5 
Q 7.71875 7.671875 6.9375 11.53125 
Q 6.390625 14.109375 6.390625 19.734375 
L 6.390625 51.859375 
L 15.1875 51.859375 
L 15.1875 23.09375 
Q 15.1875 16.21875 15.71875 13.8125 
Q 16.546875 10.359375 19.234375 8.375 
Q 21.921875 6.390625 25.875 6.390625 
Q 29.828125 6.390625 33.296875 8.421875 
Q 36.765625 10.453125 38.203125 13.9375 
Q 39.65625 17.4375 39.65625 24.078125 
L 39.65625 51.859375 
L 48.4375 51.859375 
L 48.4375 0 
z
" id="ArialMT-117"/>
      <path d="M 23.390625 -21.046875 
Q 16.109375 -11.859375 11.078125 0.4375 
Q 6.0625 12.75 6.0625 25.921875 
Q 6.0625 37.546875 9.8125 48.1875 
Q 14.203125 60.546875 23.390625 72.796875 
L 29.6875 72.796875 
Q 23.78125 62.640625 21.875 58.296875 
Q 18.890625 51.5625 17.1875 44.234375 
Q 15.09375 35.109375 15.09375 25.875 
Q 15.09375 2.390625 29.6875 -21.046875 
z
" id="ArialMT-40"/>
      <path d="M 12.359375 -21.046875 
L 6.0625 -21.046875 
Q 20.65625 2.390625 20.65625 25.875 
Q 20.65625 35.0625 18.5625 44.09375 
Q 16.890625 51.421875 13.921875 58.15625 
Q 12.015625 62.546875 6.0625 72.796875 
L 12.359375 72.796875 
Q 21.53125 60.546875 25.921875 48.1875 
Q 29.6875 37.546875 29.6875 25.921875 
Q 29.6875 12.75 24.625 0.4375 
Q 19.578125 -11.859375 12.359375 -21.046875 
z
" id="ArialMT-41"/>
     </defs>
     <use xlink:href="#ArialMT-80"/>
     <use x="66.699219" xlink:href="#ArialMT-114"/>
     <use x="100" xlink:href="#ArialMT-105"/>
     <use x="122.216797" xlink:href="#ArialMT-111"/>
     <use x="177.832031" xlink:href="#ArialMT-114"/>
     <use x="211.132812" xlink:href="#ArialMT-32"/>
     <use x="238.916016" xlink:href="#ArialMT-77"/>
     <use x="322.216797" xlink:href="#ArialMT-101"/>
     <use x="377.832031" xlink:href="#ArialMT-97"/>
     <use x="433.447266" xlink:href="#ArialMT-110"/>
     <use x="489.0625" xlink:href="#ArialMT-115"/>
     <use x="539.0625" xlink:href="#ArialMT-32"/>
     <use x="566.845703" xlink:href="#ArialMT-68"/>
     <use x="639.0625" xlink:href="#ArialMT-105"/>
     <use x="661.279297" xlink:href="#ArialMT-115"/>
     <use x="711.279297" xlink:href="#ArialMT-116"/>
     <use x="739.0625" xlink:href="#ArialMT-114"/>
     <use x="772.363281" xlink:href="#ArialMT-105"/>
     <use x="794.580078" xlink:href="#ArialMT-98"/>
     <use x="850.195312" xlink:href="#ArialMT-117"/>
     <use x="905.810547" xlink:href="#ArialMT-116"/>
     <use x="933.59375" xlink:href="#ArialMT-105"/>
     <use x="955.810547" xlink:href="#ArialMT-111"/>
     <use x="1011.425781" xlink:href="#ArialMT-110"/>
     <use x="1067.041016" xlink:href="#ArialMT-32"/>
     <use x="1094.824219" xlink:href="#ArialMT-40"/>
     <use x="1128.125" xlink:href="#ArialMT-116"/>
     <use x="1155.908203" xlink:href="#ArialMT-114"/>
     <use x="1189.208984" xlink:href="#ArialMT-97"/>
     <use x="1244.824219" xlink:href="#ArialMT-105"/>
     <use x="1267.041016" xlink:href="#ArialMT-110"/>
     <use x="1322.65625" xlink:href="#ArialMT-41"/>
    </g>
   </g>
   <g id="legend_1">
    <g id="patch_7">
     <path d="M 370.723438 72.48875 
L 416.623438 72.48875 
Q 418.623438 72.48875 418.623438 70.48875 
L 418.623438 28.935625 
Q 418.623438 26.935625 416.623438 26.935625 
L 370.723438 26.935625 
Q 368.723438 26.935625 368.723438 28.935625 
L 368.723438 70.48875 
Q 368.723438 72.48875 370.723438 72.48875 
z
" style="fill:#e6e6e6;opacity:0.8;stroke:#cccccc;stroke-linejoin:miter;"/>
    </g>
    <g id="text_17">
     <!-- y_train -->
     <g style="fill:#262626;" transform="translate(378.667188 38.093437)scale(0.1 -0.1)">
      <use xlink:href="#ArialMT-121"/>
      <use x="50" xlink:href="#ArialMT-95"/>
      <use x="105.615234" xlink:href="#ArialMT-116"/>
      <use x="133.398438" xlink:href="#ArialMT-114"/>
      <use x="166.699219" xlink:href="#ArialMT-97"/>
      <use x="222.314453" xlink:href="#ArialMT-105"/>
      <use x="244.53125" xlink:href="#ArialMT-110"/>
     </g>
    </g>
    <g id="patch_8">
     <path d="M 372.723438 52.355937 
L 392.723438 52.355937 
L 392.723438 45.355937 
L 372.723438 45.355937 
z
" style="fill:#4c72b0;fill-opacity:0.1;stroke:#4c72b0;stroke-linejoin:miter;"/>
    </g>
    <g id="text_18">
     <!-- 0.0 -->
     <g style="fill:#262626;" transform="translate(400.723438 52.355937)scale(0.1 -0.1)">
      <use xlink:href="#ArialMT-48"/>
      <use x="55.615234" xlink:href="#ArialMT-46"/>
      <use x="83.398438" xlink:href="#ArialMT-48"/>
     </g>
    </g>
    <g id="patch_9">
     <path d="M 372.723438 66.50125 
L 392.723438 66.50125 
L 392.723438 59.50125 
L 372.723438 59.50125 
z
" style="fill:#c44e52;fill-opacity:0.1;stroke:#c44e52;stroke-linejoin:miter;"/>
    </g>
    <g id="text_19">
     <!-- 1.0 -->
     <g style="fill:#262626;" transform="translate(400.723438 66.50125)scale(0.1 -0.1)">
      <use xlink:href="#ArialMT-49"/>
      <use x="55.615234" xlink:href="#ArialMT-46"/>
      <use x="83.398438" xlink:href="#ArialMT-48"/>
     </g>
    </g>
   </g>
  </g>
 </g>
 <defs>
  <clipPath id="p1ddccff765">
   <rect height="326.16" width="390.6" x="33.023438" y="21.935625"/>
  </clipPath>
 </defs>
</svg>
