<?xml version="1.0" encoding="utf-8" standalone="no"?>
<!DOCTYPE svg PUBLIC "-//W3C//DTD SVG 1.1//EN"
  "http://www.w3.org/Graphics/SVG/1.1/DTD/svg11.dtd">
<svg height="459.490625pt" version="1.1" viewBox="0 0 450.945436 459.490625" width="450.945436pt" xmlns="http://www.w3.org/2000/svg" xmlns:xlink="http://www.w3.org/1999/xlink">
 <metadata>
  <rdf:RDF xmlns:cc="http://creativecommons.org/ns#" xmlns:dc="http://purl.org/dc/elements/1.1/" xmlns:rdf="http://www.w3.org/1999/02/22-rdf-syntax-ns#">
   <cc:Work>
    <dc:type rdf:resource="http://purl.org/dc/dcmitype/StillImage"/>
    <dc:date>2021-10-31T20:16:52.840236</dc:date>
    <dc:format>image/svg+xml</dc:format>
    <dc:creator>
     <cc:Agent>
      <dc:title>Matplotlib v3.4.3, https://matplotlib.org/</dc:title>
     </cc:Agent>
    </dc:creator>
   </cc:Work>
  </rdf:RDF>
 </metadata>
 <defs>
  <style type="text/css">*{stroke-linecap:butt;stroke-linejoin:round;}</style>
 </defs>
 <g id="figure_1">
  <g id="patch_1">
   <path d="M 0 459.490625 
L 450.945436 459.490625 
L 450.945436 0 
L 0 0 
z
" style="fill:#ffffff;"/>
  </g>
  <g id="axes_1"/>
  <g id="axes_2">
   <g id="patch_2">
    <path d="M 49.589063 423 
L 440.189063 423 
L 440.189063 42.48 
L 49.589063 42.48 
z
" style="fill:#e6e6e6;"/>
   </g>
   <g id="matplotlib.axis_1">
    <g id="xtick_1">
     <g id="line2d_1">
      <path clip-path="url(#pe9a5dd8830)" d="M 95.839191 423 
L 95.839191 42.48 
" style="fill:none;stroke:#cccccc;stroke-linecap:round;stroke-width:0.8;"/>
     </g>
     <g id="text_1">
      <!-- 24 -->
      <g style="fill:#262626;" transform="translate(90.278253 437.157812)scale(0.1 -0.1)">
       <defs>
        <path d="M 3222 541 
L 3222 0 
L 194 0 
Q 188 203 259 391 
Q 375 700 629 1000 
Q 884 1300 1366 1694 
Q 2113 2306 2375 2664 
Q 2638 3022 2638 3341 
Q 2638 3675 2398 3904 
Q 2159 4134 1775 4134 
Q 1369 4134 1125 3890 
Q 881 3647 878 3216 
L 300 3275 
Q 359 3922 746 4261 
Q 1134 4600 1788 4600 
Q 2447 4600 2831 4234 
Q 3216 3869 3216 3328 
Q 3216 3053 3103 2787 
Q 2991 2522 2730 2228 
Q 2469 1934 1863 1422 
Q 1356 997 1212 845 
Q 1069 694 975 541 
L 3222 541 
z
" id="ArialMT-32" transform="scale(0.015625)"/>
        <path d="M 2069 0 
L 2069 1097 
L 81 1097 
L 81 1613 
L 2172 4581 
L 2631 4581 
L 2631 1613 
L 3250 1613 
L 3250 1097 
L 2631 1097 
L 2631 0 
L 2069 0 
z
M 2069 1613 
L 2069 3678 
L 634 1613 
L 2069 1613 
z
" id="ArialMT-34" transform="scale(0.015625)"/>
       </defs>
       <use xlink:href="#ArialMT-32"/>
       <use x="55.615234" xlink:href="#ArialMT-34"/>
      </g>
     </g>
    </g>
    <g id="xtick_2">
     <g id="line2d_2">
      <path clip-path="url(#pe9a5dd8830)" d="M 181.425518 423 
L 181.425518 42.48 
" style="fill:none;stroke:#cccccc;stroke-linecap:round;stroke-width:0.8;"/>
     </g>
     <g id="text_2">
      <!-- 26 -->
      <g style="fill:#262626;" transform="translate(175.86458 437.157812)scale(0.1 -0.1)">
       <defs>
        <path d="M 3184 3459 
L 2625 3416 
Q 2550 3747 2413 3897 
Q 2184 4138 1850 4138 
Q 1581 4138 1378 3988 
Q 1113 3794 959 3422 
Q 806 3050 800 2363 
Q 1003 2672 1297 2822 
Q 1591 2972 1913 2972 
Q 2475 2972 2870 2558 
Q 3266 2144 3266 1488 
Q 3266 1056 3080 686 
Q 2894 316 2569 119 
Q 2244 -78 1831 -78 
Q 1128 -78 684 439 
Q 241 956 241 2144 
Q 241 3472 731 4075 
Q 1159 4600 1884 4600 
Q 2425 4600 2770 4297 
Q 3116 3994 3184 3459 
z
M 888 1484 
Q 888 1194 1011 928 
Q 1134 663 1356 523 
Q 1578 384 1822 384 
Q 2178 384 2434 671 
Q 2691 959 2691 1453 
Q 2691 1928 2437 2201 
Q 2184 2475 1800 2475 
Q 1419 2475 1153 2201 
Q 888 1928 888 1484 
z
" id="ArialMT-36" transform="scale(0.015625)"/>
       </defs>
       <use xlink:href="#ArialMT-32"/>
       <use x="55.615234" xlink:href="#ArialMT-36"/>
      </g>
     </g>
    </g>
    <g id="xtick_3">
     <g id="line2d_3">
      <path clip-path="url(#pe9a5dd8830)" d="M 267.011844 423 
L 267.011844 42.48 
" style="fill:none;stroke:#cccccc;stroke-linecap:round;stroke-width:0.8;"/>
     </g>
     <g id="text_3">
      <!-- 28 -->
      <g style="fill:#262626;" transform="translate(261.450907 437.157812)scale(0.1 -0.1)">
       <defs>
        <path d="M 1131 2484 
Q 781 2613 612 2850 
Q 444 3088 444 3419 
Q 444 3919 803 4259 
Q 1163 4600 1759 4600 
Q 2359 4600 2725 4251 
Q 3091 3903 3091 3403 
Q 3091 3084 2923 2848 
Q 2756 2613 2416 2484 
Q 2838 2347 3058 2040 
Q 3278 1734 3278 1309 
Q 3278 722 2862 322 
Q 2447 -78 1769 -78 
Q 1091 -78 675 323 
Q 259 725 259 1325 
Q 259 1772 486 2073 
Q 713 2375 1131 2484 
z
M 1019 3438 
Q 1019 3113 1228 2906 
Q 1438 2700 1772 2700 
Q 2097 2700 2305 2904 
Q 2513 3109 2513 3406 
Q 2513 3716 2298 3927 
Q 2084 4138 1766 4138 
Q 1444 4138 1231 3931 
Q 1019 3725 1019 3438 
z
M 838 1322 
Q 838 1081 952 856 
Q 1066 631 1291 507 
Q 1516 384 1775 384 
Q 2178 384 2440 643 
Q 2703 903 2703 1303 
Q 2703 1709 2433 1975 
Q 2163 2241 1756 2241 
Q 1359 2241 1098 1978 
Q 838 1716 838 1322 
z
" id="ArialMT-38" transform="scale(0.015625)"/>
       </defs>
       <use xlink:href="#ArialMT-32"/>
       <use x="55.615234" xlink:href="#ArialMT-38"/>
      </g>
     </g>
    </g>
    <g id="xtick_4">
     <g id="line2d_4">
      <path clip-path="url(#pe9a5dd8830)" d="M 352.598171 423 
L 352.598171 42.48 
" style="fill:none;stroke:#cccccc;stroke-linecap:round;stroke-width:0.8;"/>
     </g>
     <g id="text_4">
      <!-- 30 -->
      <g style="fill:#262626;" transform="translate(347.037234 437.157812)scale(0.1 -0.1)">
       <defs>
        <path d="M 269 1209 
L 831 1284 
Q 928 806 1161 595 
Q 1394 384 1728 384 
Q 2125 384 2398 659 
Q 2672 934 2672 1341 
Q 2672 1728 2419 1979 
Q 2166 2231 1775 2231 
Q 1616 2231 1378 2169 
L 1441 2663 
Q 1497 2656 1531 2656 
Q 1891 2656 2178 2843 
Q 2466 3031 2466 3422 
Q 2466 3731 2256 3934 
Q 2047 4138 1716 4138 
Q 1388 4138 1169 3931 
Q 950 3725 888 3313 
L 325 3413 
Q 428 3978 793 4289 
Q 1159 4600 1703 4600 
Q 2078 4600 2393 4439 
Q 2709 4278 2876 4000 
Q 3044 3722 3044 3409 
Q 3044 3113 2884 2869 
Q 2725 2625 2413 2481 
Q 2819 2388 3044 2092 
Q 3269 1797 3269 1353 
Q 3269 753 2831 336 
Q 2394 -81 1725 -81 
Q 1122 -81 723 278 
Q 325 638 269 1209 
z
" id="ArialMT-33" transform="scale(0.015625)"/>
        <path d="M 266 2259 
Q 266 3072 433 3567 
Q 600 4063 929 4331 
Q 1259 4600 1759 4600 
Q 2128 4600 2406 4451 
Q 2684 4303 2865 4023 
Q 3047 3744 3150 3342 
Q 3253 2941 3253 2259 
Q 3253 1453 3087 958 
Q 2922 463 2592 192 
Q 2263 -78 1759 -78 
Q 1097 -78 719 397 
Q 266 969 266 2259 
z
M 844 2259 
Q 844 1131 1108 757 
Q 1372 384 1759 384 
Q 2147 384 2411 759 
Q 2675 1134 2675 2259 
Q 2675 3391 2411 3762 
Q 2147 4134 1753 4134 
Q 1366 4134 1134 3806 
Q 844 3388 844 2259 
z
" id="ArialMT-30" transform="scale(0.015625)"/>
       </defs>
       <use xlink:href="#ArialMT-33"/>
       <use x="55.615234" xlink:href="#ArialMT-30"/>
      </g>
     </g>
    </g>
    <g id="xtick_5">
     <g id="line2d_5">
      <path clip-path="url(#pe9a5dd8830)" d="M 438.184498 423 
L 438.184498 42.48 
" style="fill:none;stroke:#cccccc;stroke-linecap:round;stroke-width:0.8;"/>
     </g>
     <g id="text_5">
      <!-- 32 -->
      <g style="fill:#262626;" transform="translate(432.623561 437.157812)scale(0.1 -0.1)">
       <use xlink:href="#ArialMT-33"/>
       <use x="55.615234" xlink:href="#ArialMT-32"/>
      </g>
     </g>
    </g>
    <g id="text_6">
     <!-- temp -->
     <g style="fill:#262626;" transform="translate(233.774219 450.303125)scale(0.1 -0.1)">
      <defs>
       <path d="M 1650 503 
L 1731 6 
Q 1494 -44 1306 -44 
Q 1000 -44 831 53 
Q 663 150 594 308 
Q 525 466 525 972 
L 525 2881 
L 113 2881 
L 113 3319 
L 525 3319 
L 525 4141 
L 1084 4478 
L 1084 3319 
L 1650 3319 
L 1650 2881 
L 1084 2881 
L 1084 941 
Q 1084 700 1114 631 
Q 1144 563 1211 522 
Q 1278 481 1403 481 
Q 1497 481 1650 503 
z
" id="ArialMT-74" transform="scale(0.015625)"/>
       <path d="M 2694 1069 
L 3275 997 
Q 3138 488 2766 206 
Q 2394 -75 1816 -75 
Q 1088 -75 661 373 
Q 234 822 234 1631 
Q 234 2469 665 2931 
Q 1097 3394 1784 3394 
Q 2450 3394 2872 2941 
Q 3294 2488 3294 1666 
Q 3294 1616 3291 1516 
L 816 1516 
Q 847 969 1125 678 
Q 1403 388 1819 388 
Q 2128 388 2347 550 
Q 2566 713 2694 1069 
z
M 847 1978 
L 2700 1978 
Q 2663 2397 2488 2606 
Q 2219 2931 1791 2931 
Q 1403 2931 1139 2672 
Q 875 2413 847 1978 
z
" id="ArialMT-65" transform="scale(0.015625)"/>
       <path d="M 422 0 
L 422 3319 
L 925 3319 
L 925 2853 
Q 1081 3097 1340 3245 
Q 1600 3394 1931 3394 
Q 2300 3394 2536 3241 
Q 2772 3088 2869 2813 
Q 3263 3394 3894 3394 
Q 4388 3394 4653 3120 
Q 4919 2847 4919 2278 
L 4919 0 
L 4359 0 
L 4359 2091 
Q 4359 2428 4304 2576 
Q 4250 2725 4106 2815 
Q 3963 2906 3769 2906 
Q 3419 2906 3187 2673 
Q 2956 2441 2956 1928 
L 2956 0 
L 2394 0 
L 2394 2156 
Q 2394 2531 2256 2718 
Q 2119 2906 1806 2906 
Q 1569 2906 1367 2781 
Q 1166 2656 1075 2415 
Q 984 2175 984 1722 
L 984 0 
L 422 0 
z
" id="ArialMT-6d" transform="scale(0.015625)"/>
       <path d="M 422 -1272 
L 422 3319 
L 934 3319 
L 934 2888 
Q 1116 3141 1344 3267 
Q 1572 3394 1897 3394 
Q 2322 3394 2647 3175 
Q 2972 2956 3137 2557 
Q 3303 2159 3303 1684 
Q 3303 1175 3120 767 
Q 2938 359 2589 142 
Q 2241 -75 1856 -75 
Q 1575 -75 1351 44 
Q 1128 163 984 344 
L 984 -1272 
L 422 -1272 
z
M 931 1641 
Q 931 1000 1190 694 
Q 1450 388 1819 388 
Q 2194 388 2461 705 
Q 2728 1022 2728 1688 
Q 2728 2322 2467 2637 
Q 2206 2953 1844 2953 
Q 1484 2953 1207 2617 
Q 931 2281 931 1641 
z
" id="ArialMT-70" transform="scale(0.015625)"/>
      </defs>
      <use xlink:href="#ArialMT-74"/>
      <use x="27.783203" xlink:href="#ArialMT-65"/>
      <use x="83.398438" xlink:href="#ArialMT-6d"/>
      <use x="166.699219" xlink:href="#ArialMT-70"/>
     </g>
    </g>
   </g>
   <g id="matplotlib.axis_2">
    <g id="ytick_1">
     <g id="line2d_6">
      <path clip-path="url(#pe9a5dd8830)" d="M 49.589063 399.393299 
L 440.189063 399.393299 
" style="fill:none;stroke:#cccccc;stroke-linecap:round;stroke-width:0.8;"/>
     </g>
     <g id="text_7">
      <!-- 3500 -->
      <g style="fill:#262626;" transform="translate(20.345313 402.972205)scale(0.1 -0.1)">
       <defs>
        <path d="M 266 1200 
L 856 1250 
Q 922 819 1161 601 
Q 1400 384 1738 384 
Q 2144 384 2425 690 
Q 2706 997 2706 1503 
Q 2706 1984 2436 2262 
Q 2166 2541 1728 2541 
Q 1456 2541 1237 2417 
Q 1019 2294 894 2097 
L 366 2166 
L 809 4519 
L 3088 4519 
L 3088 3981 
L 1259 3981 
L 1013 2750 
Q 1425 3038 1878 3038 
Q 2478 3038 2890 2622 
Q 3303 2206 3303 1553 
Q 3303 931 2941 478 
Q 2500 -78 1738 -78 
Q 1113 -78 717 272 
Q 322 622 266 1200 
z
" id="ArialMT-35" transform="scale(0.015625)"/>
       </defs>
       <use xlink:href="#ArialMT-33"/>
       <use x="55.615234" xlink:href="#ArialMT-35"/>
       <use x="111.230469" xlink:href="#ArialMT-30"/>
       <use x="166.845703" xlink:href="#ArialMT-30"/>
      </g>
     </g>
    </g>
    <g id="ytick_2">
     <g id="line2d_7">
      <path clip-path="url(#pe9a5dd8830)" d="M 49.589063 357.106118 
L 440.189063 357.106118 
" style="fill:none;stroke:#cccccc;stroke-linecap:round;stroke-width:0.8;"/>
     </g>
     <g id="text_8">
      <!-- 4000 -->
      <g style="fill:#262626;" transform="translate(20.345313 360.685024)scale(0.1 -0.1)">
       <use xlink:href="#ArialMT-34"/>
       <use x="55.615234" xlink:href="#ArialMT-30"/>
       <use x="111.230469" xlink:href="#ArialMT-30"/>
       <use x="166.845703" xlink:href="#ArialMT-30"/>
      </g>
     </g>
    </g>
    <g id="ytick_3">
     <g id="line2d_8">
      <path clip-path="url(#pe9a5dd8830)" d="M 49.589063 314.818937 
L 440.189063 314.818937 
" style="fill:none;stroke:#cccccc;stroke-linecap:round;stroke-width:0.8;"/>
     </g>
     <g id="text_9">
      <!-- 4500 -->
      <g style="fill:#262626;" transform="translate(20.345313 318.397844)scale(0.1 -0.1)">
       <use xlink:href="#ArialMT-34"/>
       <use x="55.615234" xlink:href="#ArialMT-35"/>
       <use x="111.230469" xlink:href="#ArialMT-30"/>
       <use x="166.845703" xlink:href="#ArialMT-30"/>
      </g>
     </g>
    </g>
    <g id="ytick_4">
     <g id="line2d_9">
      <path clip-path="url(#pe9a5dd8830)" d="M 49.589063 272.531756 
L 440.189063 272.531756 
" style="fill:none;stroke:#cccccc;stroke-linecap:round;stroke-width:0.8;"/>
     </g>
     <g id="text_10">
      <!-- 5000 -->
      <g style="fill:#262626;" transform="translate(20.345313 276.110663)scale(0.1 -0.1)">
       <use xlink:href="#ArialMT-35"/>
       <use x="55.615234" xlink:href="#ArialMT-30"/>
       <use x="111.230469" xlink:href="#ArialMT-30"/>
       <use x="166.845703" xlink:href="#ArialMT-30"/>
      </g>
     </g>
    </g>
    <g id="ytick_5">
     <g id="line2d_10">
      <path clip-path="url(#pe9a5dd8830)" d="M 49.589063 230.244575 
L 440.189063 230.244575 
" style="fill:none;stroke:#cccccc;stroke-linecap:round;stroke-width:0.8;"/>
     </g>
     <g id="text_11">
      <!-- 5500 -->
      <g style="fill:#262626;" transform="translate(20.345313 233.823482)scale(0.1 -0.1)">
       <use xlink:href="#ArialMT-35"/>
       <use x="55.615234" xlink:href="#ArialMT-35"/>
       <use x="111.230469" xlink:href="#ArialMT-30"/>
       <use x="166.845703" xlink:href="#ArialMT-30"/>
      </g>
     </g>
    </g>
    <g id="ytick_6">
     <g id="line2d_11">
      <path clip-path="url(#pe9a5dd8830)" d="M 49.589063 187.957395 
L 440.189063 187.957395 
" style="fill:none;stroke:#cccccc;stroke-linecap:round;stroke-width:0.8;"/>
     </g>
     <g id="text_12">
      <!-- 6000 -->
      <g style="fill:#262626;" transform="translate(20.345313 191.536301)scale(0.1 -0.1)">
       <use xlink:href="#ArialMT-36"/>
       <use x="55.615234" xlink:href="#ArialMT-30"/>
       <use x="111.230469" xlink:href="#ArialMT-30"/>
       <use x="166.845703" xlink:href="#ArialMT-30"/>
      </g>
     </g>
    </g>
    <g id="ytick_7">
     <g id="line2d_12">
      <path clip-path="url(#pe9a5dd8830)" d="M 49.589063 145.670214 
L 440.189063 145.670214 
" style="fill:none;stroke:#cccccc;stroke-linecap:round;stroke-width:0.8;"/>
     </g>
     <g id="text_13">
      <!-- 6500 -->
      <g style="fill:#262626;" transform="translate(20.345313 149.24912)scale(0.1 -0.1)">
       <use xlink:href="#ArialMT-36"/>
       <use x="55.615234" xlink:href="#ArialMT-35"/>
       <use x="111.230469" xlink:href="#ArialMT-30"/>
       <use x="166.845703" xlink:href="#ArialMT-30"/>
      </g>
     </g>
    </g>
    <g id="ytick_8">
     <g id="line2d_13">
      <path clip-path="url(#pe9a5dd8830)" d="M 49.589063 103.383033 
L 440.189063 103.383033 
" style="fill:none;stroke:#cccccc;stroke-linecap:round;stroke-width:0.8;"/>
     </g>
     <g id="text_14">
      <!-- 7000 -->
      <g style="fill:#262626;" transform="translate(20.345313 106.961939)scale(0.1 -0.1)">
       <defs>
        <path d="M 303 3981 
L 303 4522 
L 3269 4522 
L 3269 4084 
Q 2831 3619 2401 2847 
Q 1972 2075 1738 1259 
Q 1569 684 1522 0 
L 944 0 
Q 953 541 1156 1306 
Q 1359 2072 1739 2783 
Q 2119 3494 2547 3981 
L 303 3981 
z
" id="ArialMT-37" transform="scale(0.015625)"/>
       </defs>
       <use xlink:href="#ArialMT-37"/>
       <use x="55.615234" xlink:href="#ArialMT-30"/>
       <use x="111.230469" xlink:href="#ArialMT-30"/>
       <use x="166.845703" xlink:href="#ArialMT-30"/>
      </g>
     </g>
    </g>
    <g id="ytick_9">
     <g id="line2d_14">
      <path clip-path="url(#pe9a5dd8830)" d="M 49.589063 61.095852 
L 440.189063 61.095852 
" style="fill:none;stroke:#cccccc;stroke-linecap:round;stroke-width:0.8;"/>
     </g>
     <g id="text_15">
      <!-- 7500 -->
      <g style="fill:#262626;" transform="translate(20.345313 64.674758)scale(0.1 -0.1)">
       <use xlink:href="#ArialMT-37"/>
       <use x="55.615234" xlink:href="#ArialMT-35"/>
       <use x="111.230469" xlink:href="#ArialMT-30"/>
       <use x="166.845703" xlink:href="#ArialMT-30"/>
      </g>
     </g>
    </g>
    <g id="text_16">
     <!-- Partial dependence -->
     <g style="fill:#262626;" transform="translate(14.357813 275.825156)rotate(-90)scale(0.1 -0.1)">
      <defs>
       <path d="M 494 0 
L 494 4581 
L 2222 4581 
Q 2678 4581 2919 4538 
Q 3256 4481 3484 4323 
Q 3713 4166 3852 3881 
Q 3991 3597 3991 3256 
Q 3991 2672 3619 2267 
Q 3247 1863 2275 1863 
L 1100 1863 
L 1100 0 
L 494 0 
z
M 1100 2403 
L 2284 2403 
Q 2872 2403 3119 2622 
Q 3366 2841 3366 3238 
Q 3366 3525 3220 3729 
Q 3075 3934 2838 4000 
Q 2684 4041 2272 4041 
L 1100 4041 
L 1100 2403 
z
" id="ArialMT-50" transform="scale(0.015625)"/>
       <path d="M 2588 409 
Q 2275 144 1986 34 
Q 1697 -75 1366 -75 
Q 819 -75 525 192 
Q 231 459 231 875 
Q 231 1119 342 1320 
Q 453 1522 633 1644 
Q 813 1766 1038 1828 
Q 1203 1872 1538 1913 
Q 2219 1994 2541 2106 
Q 2544 2222 2544 2253 
Q 2544 2597 2384 2738 
Q 2169 2928 1744 2928 
Q 1347 2928 1158 2789 
Q 969 2650 878 2297 
L 328 2372 
Q 403 2725 575 2942 
Q 747 3159 1072 3276 
Q 1397 3394 1825 3394 
Q 2250 3394 2515 3294 
Q 2781 3194 2906 3042 
Q 3031 2891 3081 2659 
Q 3109 2516 3109 2141 
L 3109 1391 
Q 3109 606 3145 398 
Q 3181 191 3288 0 
L 2700 0 
Q 2613 175 2588 409 
z
M 2541 1666 
Q 2234 1541 1622 1453 
Q 1275 1403 1131 1340 
Q 988 1278 909 1158 
Q 831 1038 831 891 
Q 831 666 1001 516 
Q 1172 366 1500 366 
Q 1825 366 2078 508 
Q 2331 650 2450 897 
Q 2541 1088 2541 1459 
L 2541 1666 
z
" id="ArialMT-61" transform="scale(0.015625)"/>
       <path d="M 416 0 
L 416 3319 
L 922 3319 
L 922 2816 
Q 1116 3169 1280 3281 
Q 1444 3394 1641 3394 
Q 1925 3394 2219 3213 
L 2025 2691 
Q 1819 2813 1613 2813 
Q 1428 2813 1281 2702 
Q 1134 2591 1072 2394 
Q 978 2094 978 1738 
L 978 0 
L 416 0 
z
" id="ArialMT-72" transform="scale(0.015625)"/>
       <path d="M 425 3934 
L 425 4581 
L 988 4581 
L 988 3934 
L 425 3934 
z
M 425 0 
L 425 3319 
L 988 3319 
L 988 0 
L 425 0 
z
" id="ArialMT-69" transform="scale(0.015625)"/>
       <path d="M 409 0 
L 409 4581 
L 972 4581 
L 972 0 
L 409 0 
z
" id="ArialMT-6c" transform="scale(0.015625)"/>
       <path id="ArialMT-20" transform="scale(0.015625)"/>
       <path d="M 2575 0 
L 2575 419 
Q 2259 -75 1647 -75 
Q 1250 -75 917 144 
Q 584 363 401 755 
Q 219 1147 219 1656 
Q 219 2153 384 2558 
Q 550 2963 881 3178 
Q 1213 3394 1622 3394 
Q 1922 3394 2156 3267 
Q 2391 3141 2538 2938 
L 2538 4581 
L 3097 4581 
L 3097 0 
L 2575 0 
z
M 797 1656 
Q 797 1019 1065 703 
Q 1334 388 1700 388 
Q 2069 388 2326 689 
Q 2584 991 2584 1609 
Q 2584 2291 2321 2609 
Q 2059 2928 1675 2928 
Q 1300 2928 1048 2622 
Q 797 2316 797 1656 
z
" id="ArialMT-64" transform="scale(0.015625)"/>
       <path d="M 422 0 
L 422 3319 
L 928 3319 
L 928 2847 
Q 1294 3394 1984 3394 
Q 2284 3394 2536 3286 
Q 2788 3178 2913 3003 
Q 3038 2828 3088 2588 
Q 3119 2431 3119 2041 
L 3119 0 
L 2556 0 
L 2556 2019 
Q 2556 2363 2490 2533 
Q 2425 2703 2258 2804 
Q 2091 2906 1866 2906 
Q 1506 2906 1245 2678 
Q 984 2450 984 1813 
L 984 0 
L 422 0 
z
" id="ArialMT-6e" transform="scale(0.015625)"/>
       <path d="M 2588 1216 
L 3141 1144 
Q 3050 572 2676 248 
Q 2303 -75 1759 -75 
Q 1078 -75 664 370 
Q 250 816 250 1647 
Q 250 2184 428 2587 
Q 606 2991 970 3192 
Q 1334 3394 1763 3394 
Q 2303 3394 2647 3120 
Q 2991 2847 3088 2344 
L 2541 2259 
Q 2463 2594 2264 2762 
Q 2066 2931 1784 2931 
Q 1359 2931 1093 2626 
Q 828 2322 828 1663 
Q 828 994 1084 691 
Q 1341 388 1753 388 
Q 2084 388 2306 591 
Q 2528 794 2588 1216 
z
" id="ArialMT-63" transform="scale(0.015625)"/>
      </defs>
      <use xlink:href="#ArialMT-50"/>
      <use x="66.699219" xlink:href="#ArialMT-61"/>
      <use x="122.314453" xlink:href="#ArialMT-72"/>
      <use x="155.615234" xlink:href="#ArialMT-74"/>
      <use x="183.398438" xlink:href="#ArialMT-69"/>
      <use x="205.615234" xlink:href="#ArialMT-61"/>
      <use x="261.230469" xlink:href="#ArialMT-6c"/>
      <use x="283.447266" xlink:href="#ArialMT-20"/>
      <use x="311.230469" xlink:href="#ArialMT-64"/>
      <use x="366.845703" xlink:href="#ArialMT-65"/>
      <use x="422.460938" xlink:href="#ArialMT-70"/>
      <use x="478.076172" xlink:href="#ArialMT-65"/>
      <use x="533.691406" xlink:href="#ArialMT-6e"/>
      <use x="589.306641" xlink:href="#ArialMT-64"/>
      <use x="644.921875" xlink:href="#ArialMT-65"/>
      <use x="700.537109" xlink:href="#ArialMT-6e"/>
      <use x="756.152344" xlink:href="#ArialMT-63"/>
      <use x="806.152344" xlink:href="#ArialMT-65"/>
     </g>
    </g>
   </g>
   <g id="LineCollection_1">
    <path clip-path="url(#pe9a5dd8830)" d="M 128.319041 423 
L 128.319041 403.974 
" style="fill:none;stroke:#000000;stroke-width:1.5;"/>
    <path clip-path="url(#pe9a5dd8830)" d="M 167.87502 423 
L 167.87502 403.974 
" style="fill:none;stroke:#000000;stroke-width:1.5;"/>
    <path clip-path="url(#pe9a5dd8830)" d="M 183.261301 423 
L 183.261301 403.974 
" style="fill:none;stroke:#000000;stroke-width:1.5;"/>
    <path clip-path="url(#pe9a5dd8830)" d="M 219.095208 423 
L 219.095208 403.974 
" style="fill:none;stroke:#000000;stroke-width:1.5;"/>
    <path clip-path="url(#pe9a5dd8830)" d="M 232.402873 423 
L 232.402873 403.974 
" style="fill:none;stroke:#000000;stroke-width:1.5;"/>
    <path clip-path="url(#pe9a5dd8830)" d="M 274.203761 423 
L 274.203761 403.974 
" style="fill:none;stroke:#000000;stroke-width:1.5;"/>
    <path clip-path="url(#pe9a5dd8830)" d="M 296.72968 423 
L 296.72968 403.974 
" style="fill:none;stroke:#000000;stroke-width:1.5;"/>
    <path clip-path="url(#pe9a5dd8830)" d="M 344.398031 423 
L 344.398031 403.974 
" style="fill:none;stroke:#000000;stroke-width:1.5;"/>
    <path clip-path="url(#pe9a5dd8830)" d="M 391.42772 423 
L 391.42772 403.974 
" style="fill:none;stroke:#000000;stroke-width:1.5;"/>
   </g>
   <g id="line2d_15">
    <path clip-path="url(#pe9a5dd8830)" d="M 67.343608 207.561254 
L 86.032603 211.508107 
L 104.721598 215.454961 
L 123.410594 219.401814 
L 142.099589 223.348667 
L 160.788584 227.29552 
L 179.477579 231.242373 
L 198.166574 235.189227 
L 216.85557 239.13608 
L 235.544565 243.082933 
L 254.23356 247.029786 
L 272.922555 250.976639 
L 291.611551 254.923493 
L 310.300546 258.870346 
L 328.989541 262.817199 
L 347.678536 266.764052 
L 366.367531 270.710905 
L 385.056527 274.657759 
L 403.745522 278.604612 
L 422.434517 282.551465 
" style="fill:none;stroke:#8172b3;stroke-linecap:round;stroke-opacity:0.3;stroke-width:0.5;"/>
   </g>
   <g id="line2d_16">
    <path clip-path="url(#pe9a5dd8830)" d="M 67.343608 86.242294 
L 86.032603 91.720332 
L 104.721598 97.19837 
L 123.410594 102.676408 
L 142.099589 108.154446 
L 160.788584 113.632484 
L 179.477579 119.110523 
L 198.166574 124.588561 
L 216.85557 130.066599 
L 235.544565 135.544637 
L 254.23356 141.022675 
L 272.922555 146.500713 
L 291.611551 151.978751 
L 310.300546 157.45679 
L 328.989541 162.934828 
L 347.678536 168.412866 
L 366.367531 173.890904 
L 385.056527 179.368942 
L 403.745522 184.84698 
L 422.434517 190.325018 
" style="fill:none;stroke:#8172b3;stroke-linecap:round;stroke-opacity:0.3;stroke-width:0.5;"/>
   </g>
   <g id="line2d_17">
    <path clip-path="url(#pe9a5dd8830)" d="M 67.343608 242.199853 
L 86.032603 247.72786 
L 104.721598 253.255867 
L 123.410594 258.783874 
L 142.099589 264.311882 
L 160.788584 269.839889 
L 179.477579 275.367896 
L 198.166574 280.895903 
L 216.85557 286.423911 
L 235.544565 291.951918 
L 254.23356 297.479925 
L 272.922555 303.007932 
L 291.611551 308.53594 
L 310.300546 314.063947 
L 328.989541 319.591954 
L 347.678536 325.119962 
L 366.367531 330.647969 
L 385.056527 336.175976 
L 403.745522 341.703983 
L 422.434517 347.231991 
" style="fill:none;stroke:#8172b3;stroke-linecap:round;stroke-opacity:0.3;stroke-width:0.5;"/>
   </g>
   <g id="line2d_18">
    <path clip-path="url(#pe9a5dd8830)" d="M 67.343608 67.844636 
L 86.032603 73.322547 
L 104.721598 78.800457 
L 123.410594 84.278367 
L 142.099589 89.756278 
L 160.788584 95.234188 
L 179.477579 100.712098 
L 198.166574 106.190009 
L 216.85557 111.667919 
L 235.544565 117.145829 
L 254.23356 122.62374 
L 272.922555 128.10165 
L 291.611551 133.579561 
L 310.300546 139.057471 
L 328.989541 144.535381 
L 347.678536 150.013292 
L 366.367531 155.491202 
L 385.056527 160.969112 
L 403.745522 166.447023 
L 422.434517 171.924933 
" style="fill:none;stroke:#8172b3;stroke-linecap:round;stroke-opacity:0.3;stroke-width:0.5;"/>
   </g>
   <g id="line2d_19">
    <path clip-path="url(#pe9a5dd8830)" d="M 67.343608 265.432354 
L 86.032603 270.959722 
L 104.721598 276.48709 
L 123.410594 282.014459 
L 142.099589 287.541827 
L 160.788584 293.069195 
L 179.477579 298.596563 
L 198.166574 304.123932 
L 216.85557 309.6513 
L 235.544565 315.178668 
L 254.23356 320.706037 
L 272.922555 326.233405 
L 291.611551 331.760773 
L 310.300546 337.288141 
L 328.989541 342.81551 
L 347.678536 348.342878 
L 366.367531 353.870246 
L 385.056527 359.397614 
L 403.745522 364.924983 
L 422.434517 370.452351 
" style="fill:none;stroke:#8172b3;stroke-linecap:round;stroke-opacity:0.3;stroke-width:0.5;"/>
   </g>
   <g id="line2d_20">
    <path clip-path="url(#pe9a5dd8830)" d="M 67.343608 65.086495 
L 86.032603 70.565555 
L 104.721598 76.044616 
L 123.410594 81.523676 
L 142.099589 87.002737 
L 160.788584 92.481797 
L 179.477579 97.960858 
L 198.166574 103.439918 
L 216.85557 108.918979 
L 235.544565 114.398039 
L 254.23356 119.8771 
L 272.922555 125.35616 
L 291.611551 130.835221 
L 310.300546 136.314282 
L 328.989541 141.793342 
L 347.678536 147.272403 
L 366.367531 152.751463 
L 385.056527 158.230524 
L 403.745522 163.709584 
L 422.434517 169.188645 
" style="fill:none;stroke:#8172b3;stroke-linecap:round;stroke-opacity:0.3;stroke-width:0.5;"/>
   </g>
   <g id="line2d_21">
    <path clip-path="url(#pe9a5dd8830)" d="M 67.343608 296.493288 
L 86.032603 301.244684 
L 104.721598 305.996079 
L 123.410594 310.747475 
L 142.099589 315.49887 
L 160.788584 320.250266 
L 179.477579 325.001661 
L 198.166574 329.753057 
L 216.85557 334.504452 
L 235.544565 339.255847 
L 254.23356 344.007243 
L 272.922555 348.758638 
L 291.611551 353.510034 
L 310.300546 358.261429 
L 328.989541 363.012825 
L 347.678536 367.76422 
L 366.367531 372.515616 
L 385.056527 377.267011 
L 403.745522 382.018407 
L 422.434517 386.769802 
" style="fill:none;stroke:#8172b3;stroke-linecap:round;stroke-opacity:0.3;stroke-width:0.5;"/>
   </g>
   <g id="line2d_22">
    <path clip-path="url(#pe9a5dd8830)" d="M 67.343608 258.637915 
L 86.032603 264.164389 
L 104.721598 269.690863 
L 123.410594 275.217336 
L 142.099589 280.74381 
L 160.788584 286.270284 
L 179.477579 291.796757 
L 198.166574 297.323231 
L 216.85557 302.849705 
L 235.544565 308.376178 
L 254.23356 313.902652 
L 272.922555 319.429126 
L 291.611551 324.955599 
L 310.300546 330.482073 
L 328.989541 336.008547 
L 347.678536 341.53502 
L 366.367531 347.061494 
L 385.056527 352.587968 
L 403.745522 358.114441 
L 422.434517 363.640915 
" style="fill:none;stroke:#8172b3;stroke-linecap:round;stroke-opacity:0.3;stroke-width:0.5;"/>
   </g>
   <g id="line2d_23">
    <path clip-path="url(#pe9a5dd8830)" d="M 67.343608 249.212518 
L 86.032603 254.63476 
L 104.721598 260.057002 
L 123.410594 265.479245 
L 142.099589 270.901487 
L 160.788584 276.323729 
L 179.477579 281.745972 
L 198.166574 287.168214 
L 216.85557 292.590456 
L 235.544565 298.012698 
L 254.23356 303.434941 
L 272.922555 308.857183 
L 291.611551 314.279425 
L 310.300546 319.701668 
L 328.989541 325.12391 
L 347.678536 330.546152 
L 366.367531 335.968395 
L 385.056527 341.390637 
L 403.745522 346.812879 
L 422.434517 352.235121 
" style="fill:none;stroke:#8172b3;stroke-linecap:round;stroke-opacity:0.3;stroke-width:0.5;"/>
   </g>
   <g id="line2d_24">
    <path clip-path="url(#pe9a5dd8830)" d="M 67.343608 107.78708 
L 86.032603 112.490168 
L 104.721598 117.193256 
L 123.410594 121.896343 
L 142.099589 126.599431 
L 160.788584 131.302519 
L 179.477579 136.005606 
L 198.166574 140.708694 
L 216.85557 145.411782 
L 235.544565 150.11487 
L 254.23356 154.817957 
L 272.922555 159.521045 
L 291.611551 164.224133 
L 310.300546 168.92722 
L 328.989541 173.630308 
L 347.678536 178.333396 
L 366.367531 183.036484 
L 385.056527 187.739571 
L 403.745522 192.442659 
L 422.434517 197.145747 
" style="fill:none;stroke:#8172b3;stroke-linecap:round;stroke-opacity:0.3;stroke-width:0.5;"/>
   </g>
   <g id="line2d_25">
    <path clip-path="url(#pe9a5dd8830)" d="M 67.343608 265.685906 
L 86.032603 270.435512 
L 104.721598 275.185118 
L 123.410594 279.934725 
L 142.099589 284.684331 
L 160.788584 289.433937 
L 179.477579 294.183544 
L 198.166574 298.93315 
L 216.85557 303.682756 
L 235.544565 308.432362 
L 254.23356 313.181969 
L 272.922555 317.931575 
L 291.611551 322.681181 
L 310.300546 327.430787 
L 328.989541 332.180394 
L 347.678536 336.93 
L 366.367531 341.679606 
L 385.056527 346.429213 
L 403.745522 351.178819 
L 422.434517 355.928425 
" style="fill:none;stroke:#8172b3;stroke-linecap:round;stroke-opacity:0.3;stroke-width:0.5;"/>
   </g>
   <g id="line2d_26">
    <path clip-path="url(#pe9a5dd8830)" d="M 67.343608 279.093679 
L 86.032603 283.845969 
L 104.721598 288.598259 
L 123.410594 293.350549 
L 142.099589 298.102839 
L 160.788584 302.855129 
L 179.477579 307.607419 
L 198.166574 312.359709 
L 216.85557 317.111999 
L 235.544565 321.864289 
L 254.23356 326.616579 
L 272.922555 331.368869 
L 291.611551 336.121159 
L 310.300546 340.873449 
L 328.989541 345.625739 
L 347.678536 350.37803 
L 366.367531 355.13032 
L 385.056527 359.88261 
L 403.745522 364.6349 
L 422.434517 369.38719 
" style="fill:none;stroke:#8172b3;stroke-linecap:round;stroke-opacity:0.3;stroke-width:0.5;"/>
   </g>
   <g id="line2d_27">
    <path clip-path="url(#pe9a5dd8830)" d="M 67.343608 48.376502 
L 86.032603 53.753121 
L 104.721598 59.129739 
L 123.410594 64.506357 
L 142.099589 69.882976 
L 160.788584 75.259594 
L 179.477579 80.636212 
L 198.166574 86.012831 
L 216.85557 91.389449 
L 235.544565 96.766067 
L 254.23356 102.142686 
L 272.922555 107.519304 
L 291.611551 112.895922 
L 310.300546 118.272541 
L 328.989541 123.649159 
L 347.678536 129.025777 
L 366.367531 134.402396 
L 385.056527 139.779014 
L 403.745522 145.155632 
L 422.434517 150.532251 
" style="fill:none;stroke:#8172b3;stroke-linecap:round;stroke-opacity:0.3;stroke-width:0.5;"/>
   </g>
   <g id="line2d_28">
    <path clip-path="url(#pe9a5dd8830)" d="M 67.343608 260.428808 
L 86.032603 265.955153 
L 104.721598 271.481499 
L 123.410594 277.007845 
L 142.099589 282.534191 
L 160.788584 288.060537 
L 179.477579 293.586883 
L 198.166574 299.113229 
L 216.85557 304.639575 
L 235.544565 310.165921 
L 254.23356 315.692266 
L 272.922555 321.218612 
L 291.611551 326.744958 
L 310.300546 332.271304 
L 328.989541 337.79765 
L 347.678536 343.323996 
L 366.367531 348.850342 
L 385.056527 354.376688 
L 403.745522 359.903033 
L 422.434517 365.429379 
" style="fill:none;stroke:#8172b3;stroke-linecap:round;stroke-opacity:0.3;stroke-width:0.5;"/>
   </g>
   <g id="line2d_29">
    <path clip-path="url(#pe9a5dd8830)" d="M 67.343608 56.417983 
L 86.032603 61.79639 
L 104.721598 67.174798 
L 123.410594 72.553205 
L 142.099589 77.931613 
L 160.788584 83.31002 
L 179.477579 88.688428 
L 198.166574 94.066835 
L 216.85557 99.445243 
L 235.544565 104.82365 
L 254.23356 110.202058 
L 272.922555 115.580465 
L 291.611551 120.958873 
L 310.300546 126.33728 
L 328.989541 131.715688 
L 347.678536 137.094095 
L 366.367531 142.472503 
L 385.056527 147.85091 
L 403.745522 153.229318 
L 422.434517 158.607725 
" style="fill:none;stroke:#8172b3;stroke-linecap:round;stroke-opacity:0.3;stroke-width:0.5;"/>
   </g>
   <g id="line2d_30">
    <path clip-path="url(#pe9a5dd8830)" d="M 67.343608 87.977045 
L 86.032603 92.633067 
L 104.721598 97.289089 
L 123.410594 101.945111 
L 142.099589 106.601134 
L 160.788584 111.257156 
L 179.477579 115.913178 
L 198.166574 120.5692 
L 216.85557 125.225222 
L 235.544565 129.881245 
L 254.23356 134.537267 
L 272.922555 139.193289 
L 291.611551 143.849311 
L 310.300546 148.505333 
L 328.989541 153.161356 
L 347.678536 157.817378 
L 366.367531 162.4734 
L 385.056527 167.129422 
L 403.745522 171.785444 
L 422.434517 176.441467 
" style="fill:none;stroke:#8172b3;stroke-linecap:round;stroke-opacity:0.3;stroke-width:0.5;"/>
   </g>
   <g id="line2d_31">
    <path clip-path="url(#pe9a5dd8830)" d="M 67.343608 221.181619 
L 86.032603 224.352463 
L 104.721598 227.523308 
L 123.410594 230.694153 
L 142.099589 233.864997 
L 160.788584 237.035842 
L 179.477579 240.206686 
L 198.166574 243.377531 
L 216.85557 246.548376 
L 235.544565 249.71922 
L 254.23356 252.890065 
L 272.922555 256.06091 
L 291.611551 259.231754 
L 310.300546 262.402599 
L 328.989541 265.573443 
L 347.678536 268.744288 
L 366.367531 271.915133 
L 385.056527 275.085977 
L 403.745522 278.256822 
L 422.434517 281.427667 
" style="fill:none;stroke:#8172b3;stroke-linecap:round;stroke-opacity:0.3;stroke-width:0.5;"/>
   </g>
   <g id="line2d_32">
    <path clip-path="url(#pe9a5dd8830)" d="M 67.343608 277.731088 
L 86.032603 283.256923 
L 104.721598 288.782758 
L 123.410594 294.308592 
L 142.099589 299.834427 
L 160.788584 305.360262 
L 179.477579 310.886096 
L 198.166574 316.411931 
L 216.85557 321.937766 
L 235.544565 327.4636 
L 254.23356 332.989435 
L 272.922555 338.51527 
L 291.611551 344.041104 
L 310.300546 349.566939 
L 328.989541 355.092774 
L 347.678536 360.618609 
L 366.367531 366.144443 
L 385.056527 371.670278 
L 403.745522 377.196113 
L 422.434517 382.721947 
" style="fill:none;stroke:#8172b3;stroke-linecap:round;stroke-opacity:0.3;stroke-width:0.5;"/>
   </g>
   <g id="line2d_33">
    <path clip-path="url(#pe9a5dd8830)" d="M 67.343608 83.179918 
L 86.032603 88.555642 
L 104.721598 93.931366 
L 123.410594 99.30709 
L 142.099589 104.682813 
L 160.788584 110.058537 
L 179.477579 115.434261 
L 198.166574 120.809985 
L 216.85557 126.185708 
L 235.544565 131.561432 
L 254.23356 136.937156 
L 272.922555 142.31288 
L 291.611551 147.688603 
L 310.300546 153.064327 
L 328.989541 158.440051 
L 347.678536 163.815775 
L 366.367531 169.191498 
L 385.056527 174.567222 
L 403.745522 179.942946 
L 422.434517 185.31867 
" style="fill:none;stroke:#8172b3;stroke-linecap:round;stroke-opacity:0.3;stroke-width:0.5;"/>
   </g>
   <g id="line2d_34">
    <path clip-path="url(#pe9a5dd8830)" d="M 67.343608 255.083358 
L 86.032603 259.835776 
L 104.721598 264.588194 
L 123.410594 269.340612 
L 142.099589 274.093029 
L 160.788584 278.845447 
L 179.477579 283.597865 
L 198.166574 288.350283 
L 216.85557 293.102701 
L 235.544565 297.855119 
L 254.23356 302.607537 
L 272.922555 307.359954 
L 291.611551 312.112372 
L 310.300546 316.86479 
L 328.989541 321.617208 
L 347.678536 326.369626 
L 366.367531 331.122044 
L 385.056527 335.874461 
L 403.745522 340.626879 
L 422.434517 345.379297 
" style="fill:none;stroke:#8172b3;stroke-linecap:round;stroke-opacity:0.3;stroke-width:0.5;"/>
   </g>
   <g id="line2d_35">
    <path clip-path="url(#pe9a5dd8830)" d="M 67.343608 269.65049 
L 86.032603 275.17773 
L 104.721598 280.704971 
L 123.410594 286.232211 
L 142.099589 291.759452 
L 160.788584 297.286692 
L 179.477579 302.813933 
L 198.166574 308.341173 
L 216.85557 313.868414 
L 235.544565 319.395654 
L 254.23356 324.922895 
L 272.922555 330.450135 
L 291.611551 335.977376 
L 310.300546 341.504616 
L 328.989541 347.031857 
L 347.678536 352.559097 
L 366.367531 358.086337 
L 385.056527 363.613578 
L 403.745522 369.140818 
L 422.434517 374.668059 
" style="fill:none;stroke:#8172b3;stroke-linecap:round;stroke-opacity:0.3;stroke-width:0.5;"/>
   </g>
   <g id="line2d_36">
    <path clip-path="url(#pe9a5dd8830)" d="M 67.343608 106.190372 
L 86.032603 110.897038 
L 104.721598 115.603704 
L 123.410594 120.31037 
L 142.099589 125.017036 
L 160.788584 129.723702 
L 179.477579 134.430368 
L 198.166574 139.137034 
L 216.85557 143.8437 
L 235.544565 148.550366 
L 254.23356 153.257032 
L 272.922555 157.963698 
L 291.611551 162.670364 
L 310.300546 167.37703 
L 328.989541 172.083696 
L 347.678536 176.790363 
L 366.367531 181.497029 
L 385.056527 186.203695 
L 403.745522 190.910361 
L 422.434517 195.617027 
" style="fill:none;stroke:#8172b3;stroke-linecap:round;stroke-opacity:0.3;stroke-width:0.5;"/>
   </g>
   <g id="line2d_37">
    <path clip-path="url(#pe9a5dd8830)" d="M 67.343608 252.101904 
L 86.032603 257.526831 
L 104.721598 262.951757 
L 123.410594 268.376683 
L 142.099589 273.801609 
L 160.788584 279.226535 
L 179.477579 284.651461 
L 198.166574 290.076387 
L 216.85557 295.501313 
L 235.544565 300.926239 
L 254.23356 306.351165 
L 272.922555 311.776091 
L 291.611551 317.201017 
L 310.300546 322.625943 
L 328.989541 328.050869 
L 347.678536 333.475795 
L 366.367531 338.900721 
L 385.056527 344.325648 
L 403.745522 349.750574 
L 422.434517 355.1755 
" style="fill:none;stroke:#8172b3;stroke-linecap:round;stroke-opacity:0.3;stroke-width:0.5;"/>
   </g>
   <g id="line2d_38">
    <path clip-path="url(#pe9a5dd8830)" d="M 67.343608 124.754171 
L 86.032603 129.459048 
L 104.721598 134.163925 
L 123.410594 138.868802 
L 142.099589 143.573679 
L 160.788584 148.278556 
L 179.477579 152.983432 
L 198.166574 157.688309 
L 216.85557 162.393186 
L 235.544565 167.098063 
L 254.23356 171.80294 
L 272.922555 176.507817 
L 291.611551 181.212694 
L 310.300546 185.917571 
L 328.989541 190.622448 
L 347.678536 195.327325 
L 366.367531 200.032201 
L 385.056527 204.737078 
L 403.745522 209.441955 
L 422.434517 214.146832 
" style="fill:none;stroke:#8172b3;stroke-linecap:round;stroke-opacity:0.3;stroke-width:0.5;"/>
   </g>
   <g id="line2d_39">
    <path clip-path="url(#pe9a5dd8830)" d="M 67.343608 259.283787 
L 86.032603 264.809366 
L 104.721598 270.334945 
L 123.410594 275.860524 
L 142.099589 281.386103 
L 160.788584 286.911682 
L 179.477579 292.437261 
L 198.166574 297.96284 
L 216.85557 303.48842 
L 235.544565 309.013999 
L 254.23356 314.539578 
L 272.922555 320.065157 
L 291.611551 325.590736 
L 310.300546 331.116315 
L 328.989541 336.641894 
L 347.678536 342.167473 
L 366.367531 347.693052 
L 385.056527 353.218631 
L 403.745522 358.74421 
L 422.434517 364.26979 
" style="fill:none;stroke:#8172b3;stroke-linecap:round;stroke-opacity:0.3;stroke-width:0.5;"/>
   </g>
   <g id="line2d_40">
    <path clip-path="url(#pe9a5dd8830)" d="M 67.343608 117.633056 
L 86.032603 120.805087 
L 104.721598 123.977118 
L 123.410594 127.149148 
L 142.099589 130.321179 
L 160.788584 133.493209 
L 179.477579 136.66524 
L 198.166574 139.83727 
L 216.85557 143.009301 
L 235.544565 146.181331 
L 254.23356 149.353362 
L 272.922555 152.525393 
L 291.611551 155.697423 
L 310.300546 158.869454 
L 328.989541 162.041484 
L 347.678536 165.213515 
L 366.367531 168.385545 
L 385.056527 171.557576 
L 403.745522 174.729607 
L 422.434517 177.901637 
" style="fill:none;stroke:#8172b3;stroke-linecap:round;stroke-opacity:0.3;stroke-width:0.5;"/>
   </g>
   <g id="line2d_41">
    <path clip-path="url(#pe9a5dd8830)" d="M 67.343608 52.69099 
L 86.032603 58.171584 
L 104.721598 63.652179 
L 123.410594 69.132773 
L 142.099589 74.613367 
L 160.788584 80.093961 
L 179.477579 85.574555 
L 198.166574 91.055149 
L 216.85557 96.535743 
L 235.544565 102.016337 
L 254.23356 107.496931 
L 272.922555 112.977526 
L 291.611551 118.45812 
L 310.300546 123.938714 
L 328.989541 129.419308 
L 347.678536 134.899902 
L 366.367531 140.380496 
L 385.056527 145.86109 
L 403.745522 151.341684 
L 422.434517 156.822279 
" style="fill:none;stroke:#8172b3;stroke-linecap:round;stroke-opacity:0.3;stroke-width:0.5;"/>
   </g>
   <g id="line2d_42">
    <path clip-path="url(#pe9a5dd8830)" d="M 67.343608 86.043438 
L 86.032603 91.521859 
L 104.721598 97.000281 
L 123.410594 102.478702 
L 142.099589 107.957124 
L 160.788584 113.435545 
L 179.477579 118.913967 
L 198.166574 124.392388 
L 216.85557 129.87081 
L 235.544565 135.349231 
L 254.23356 140.827653 
L 272.922555 146.306075 
L 291.611551 151.784496 
L 310.300546 157.262918 
L 328.989541 162.741339 
L 347.678536 168.219761 
L 366.367531 173.698182 
L 385.056527 179.176604 
L 403.745522 184.655025 
L 422.434517 190.133447 
" style="fill:none;stroke:#8172b3;stroke-linecap:round;stroke-opacity:0.3;stroke-width:0.5;"/>
   </g>
   <g id="line2d_43">
    <path clip-path="url(#pe9a5dd8830)" d="M 67.343608 78.111254 
L 86.032603 83.591209 
L 104.721598 89.071164 
L 123.410594 94.551119 
L 142.099589 100.031074 
L 160.788584 105.511029 
L 179.477579 110.990984 
L 198.166574 116.470939 
L 216.85557 121.950895 
L 235.544565 127.43085 
L 254.23356 132.910805 
L 272.922555 138.39076 
L 291.611551 143.870715 
L 310.300546 149.35067 
L 328.989541 154.830625 
L 347.678536 160.31058 
L 366.367531 165.790536 
L 385.056527 171.270491 
L 403.745522 176.750446 
L 422.434517 182.230401 
" style="fill:none;stroke:#8172b3;stroke-linecap:round;stroke-opacity:0.3;stroke-width:0.5;"/>
   </g>
   <g id="line2d_44">
    <path clip-path="url(#pe9a5dd8830)" d="M 67.343608 70.548652 
L 86.032603 75.251867 
L 104.721598 79.955083 
L 123.410594 84.658298 
L 142.099589 89.361514 
L 160.788584 94.064729 
L 179.477579 98.767945 
L 198.166574 103.47116 
L 216.85557 108.174376 
L 235.544565 112.877591 
L 254.23356 117.580807 
L 272.922555 122.284022 
L 291.611551 126.987238 
L 310.300546 131.690453 
L 328.989541 136.393669 
L 347.678536 141.096884 
L 366.367531 145.8001 
L 385.056527 150.503315 
L 403.745522 155.206531 
L 422.434517 159.909746 
" style="fill:none;stroke:#8172b3;stroke-linecap:round;stroke-opacity:0.3;stroke-width:0.5;"/>
   </g>
   <g id="line2d_45">
    <path clip-path="url(#pe9a5dd8830)" d="M 67.343608 263.169373 
L 86.032603 267.920896 
L 104.721598 272.67242 
L 123.410594 277.423943 
L 142.099589 282.175466 
L 160.788584 286.926989 
L 179.477579 291.678513 
L 198.166574 296.430036 
L 216.85557 301.181559 
L 235.544565 305.933082 
L 254.23356 310.684606 
L 272.922555 315.436129 
L 291.611551 320.187652 
L 310.300546 324.939175 
L 328.989541 329.690699 
L 347.678536 334.442222 
L 366.367531 339.193745 
L 385.056527 343.945268 
L 403.745522 348.696792 
L 422.434517 353.448315 
" style="fill:none;stroke:#8172b3;stroke-linecap:round;stroke-opacity:0.3;stroke-width:0.5;"/>
   </g>
   <g id="line2d_46">
    <path clip-path="url(#pe9a5dd8830)" d="M 67.343608 117.055636 
L 86.032603 120.901197 
L 104.721598 124.746759 
L 123.410594 128.59232 
L 142.099589 132.437881 
L 160.788584 136.283442 
L 179.477579 140.129003 
L 198.166574 143.974564 
L 216.85557 147.820126 
L 235.544565 151.665687 
L 254.23356 155.511248 
L 272.922555 159.356809 
L 291.611551 163.20237 
L 310.300546 167.047932 
L 328.989541 170.893493 
L 347.678536 174.739054 
L 366.367531 178.584615 
L 385.056527 182.430176 
L 403.745522 186.275737 
L 422.434517 190.121299 
" style="fill:none;stroke:#8172b3;stroke-linecap:round;stroke-opacity:0.3;stroke-width:0.5;"/>
   </g>
   <g id="line2d_47">
    <path clip-path="url(#pe9a5dd8830)" d="M 67.343608 264.157459 
L 86.032603 269.682016 
L 104.721598 275.206572 
L 123.410594 280.731129 
L 142.099589 286.255686 
L 160.788584 291.780242 
L 179.477579 297.304799 
L 198.166574 302.829356 
L 216.85557 308.353913 
L 235.544565 313.878469 
L 254.23356 319.403026 
L 272.922555 324.927583 
L 291.611551 330.452139 
L 310.300546 335.976696 
L 328.989541 341.501253 
L 347.678536 347.02581 
L 366.367531 352.550366 
L 385.056527 358.074923 
L 403.745522 363.59948 
L 422.434517 369.124036 
" style="fill:none;stroke:#8172b3;stroke-linecap:round;stroke-opacity:0.3;stroke-width:0.5;"/>
   </g>
   <g id="line2d_48">
    <path clip-path="url(#pe9a5dd8830)" d="M 67.343608 244.005379 
L 86.032603 249.530063 
L 104.721598 255.054748 
L 123.410594 260.579432 
L 142.099589 266.104117 
L 160.788584 271.628801 
L 179.477579 277.153486 
L 198.166574 282.678171 
L 216.85557 288.202855 
L 235.544565 293.72754 
L 254.23356 299.252224 
L 272.922555 304.776909 
L 291.611551 310.301593 
L 310.300546 315.826278 
L 328.989541 321.350962 
L 347.678536 326.875647 
L 366.367531 332.400331 
L 385.056527 337.925016 
L 403.745522 343.4497 
L 422.434517 348.974385 
" style="fill:none;stroke:#8172b3;stroke-linecap:round;stroke-opacity:0.3;stroke-width:0.5;"/>
   </g>
   <g id="line2d_49">
    <path clip-path="url(#pe9a5dd8830)" d="M 67.343608 265.223271 
L 86.032603 270.748211 
L 104.721598 276.273151 
L 123.410594 281.798091 
L 142.099589 287.323031 
L 160.788584 292.847971 
L 179.477579 298.372911 
L 198.166574 303.897852 
L 216.85557 309.422792 
L 235.544565 314.947732 
L 254.23356 320.472672 
L 272.922555 325.997612 
L 291.611551 331.522552 
L 310.300546 337.047492 
L 328.989541 342.572432 
L 347.678536 348.097372 
L 366.367531 353.622313 
L 385.056527 359.147253 
L 403.745522 364.672193 
L 422.434517 370.197133 
" style="fill:none;stroke:#8172b3;stroke-linecap:round;stroke-opacity:0.3;stroke-width:0.5;"/>
   </g>
   <g id="line2d_50">
    <path clip-path="url(#pe9a5dd8830)" d="M 67.343608 126.486101 
L 86.032603 129.659154 
L 104.721598 132.832207 
L 123.410594 136.00526 
L 142.099589 139.178313 
L 160.788584 142.351366 
L 179.477579 145.524418 
L 198.166574 148.697471 
L 216.85557 151.870524 
L 235.544565 155.043577 
L 254.23356 158.21663 
L 272.922555 161.389683 
L 291.611551 164.562736 
L 310.300546 167.735789 
L 328.989541 170.908842 
L 347.678536 174.081895 
L 366.367531 177.254948 
L 385.056527 180.428001 
L 403.745522 183.601054 
L 422.434517 186.774107 
" style="fill:none;stroke:#8172b3;stroke-linecap:round;stroke-opacity:0.3;stroke-width:0.5;"/>
   </g>
   <g id="line2d_51">
    <path clip-path="url(#pe9a5dd8830)" d="M 67.343608 252.559289 
L 86.032603 257.983321 
L 104.721598 263.407352 
L 123.410594 268.831384 
L 142.099589 274.255415 
L 160.788584 279.679447 
L 179.477579 285.103478 
L 198.166574 290.527509 
L 216.85557 295.951541 
L 235.544565 301.375572 
L 254.23356 306.799604 
L 272.922555 312.223635 
L 291.611551 317.647667 
L 310.300546 323.071698 
L 328.989541 328.49573 
L 347.678536 333.919761 
L 366.367531 339.343793 
L 385.056527 344.767824 
L 403.745522 350.191856 
L 422.434517 355.615887 
" style="fill:none;stroke:#8172b3;stroke-linecap:round;stroke-opacity:0.3;stroke-width:0.5;"/>
   </g>
   <g id="line2d_52">
    <path clip-path="url(#pe9a5dd8830)" d="M 67.343608 81.33732 
L 86.032603 86.818425 
L 104.721598 92.29953 
L 123.410594 97.780636 
L 142.099589 103.261741 
L 160.788584 108.742846 
L 179.477579 114.223952 
L 198.166574 119.705057 
L 216.85557 125.186162 
L 235.544565 130.667268 
L 254.23356 136.148373 
L 272.922555 141.629478 
L 291.611551 147.110583 
L 310.300546 152.591689 
L 328.989541 158.072794 
L 347.678536 163.553899 
L 366.367531 169.035005 
L 385.056527 174.51611 
L 403.745522 179.997215 
L 422.434517 185.478321 
" style="fill:none;stroke:#8172b3;stroke-linecap:round;stroke-opacity:0.3;stroke-width:0.5;"/>
   </g>
   <g id="line2d_53">
    <path clip-path="url(#pe9a5dd8830)" d="M 67.343608 51.089253 
L 86.032603 56.567419 
L 104.721598 62.045585 
L 123.410594 67.523751 
L 142.099589 73.001917 
L 160.788584 78.480083 
L 179.477579 83.958249 
L 198.166574 89.436415 
L 216.85557 94.914581 
L 235.544565 100.392747 
L 254.23356 105.870913 
L 272.922555 111.349079 
L 291.611551 116.827244 
L 310.300546 122.30541 
L 328.989541 127.783576 
L 347.678536 133.261742 
L 366.367531 138.739908 
L 385.056527 144.218074 
L 403.745522 149.69624 
L 422.434517 155.174406 
" style="fill:none;stroke:#8172b3;stroke-linecap:round;stroke-opacity:0.3;stroke-width:0.5;"/>
   </g>
   <g id="line2d_54">
    <path clip-path="url(#pe9a5dd8830)" d="M 67.343608 42.48 
L 86.032603 46.427748 
L 104.721598 50.375496 
L 123.410594 54.323243 
L 142.099589 58.270991 
L 160.788584 62.218739 
L 179.477579 66.166487 
L 198.166574 70.114235 
L 216.85557 74.061982 
L 235.544565 78.00973 
L 254.23356 81.957478 
L 272.922555 85.905226 
L 291.611551 89.852973 
L 310.300546 93.800721 
L 328.989541 97.748469 
L 347.678536 101.696217 
L 366.367531 105.643965 
L 385.056527 109.591712 
L 403.745522 113.53946 
L 422.434517 117.487208 
" style="fill:none;stroke:#8172b3;stroke-linecap:round;stroke-opacity:0.3;stroke-width:0.5;"/>
   </g>
   <g id="line2d_55">
    <path clip-path="url(#pe9a5dd8830)" d="M 67.343608 67.401149 
L 86.032603 72.107048 
L 104.721598 76.812948 
L 123.410594 81.518847 
L 142.099589 86.224746 
L 160.788584 90.930646 
L 179.477579 95.636545 
L 198.166574 100.342444 
L 216.85557 105.048343 
L 235.544565 109.754243 
L 254.23356 114.460142 
L 272.922555 119.166041 
L 291.611551 123.871941 
L 310.300546 128.57784 
L 328.989541 133.283739 
L 347.678536 137.989638 
L 366.367531 142.695538 
L 385.056527 147.401437 
L 403.745522 152.107336 
L 422.434517 156.813235 
" style="fill:none;stroke:#8172b3;stroke-linecap:round;stroke-opacity:0.3;stroke-width:0.5;"/>
   </g>
   <g id="line2d_56">
    <path clip-path="url(#pe9a5dd8830)" d="M 67.343608 242.870611 
L 86.032603 247.620345 
L 104.721598 252.370079 
L 123.410594 257.119813 
L 142.099589 261.869547 
L 160.788584 266.619281 
L 179.477579 271.369015 
L 198.166574 276.118749 
L 216.85557 280.868484 
L 235.544565 285.618218 
L 254.23356 290.367952 
L 272.922555 295.117686 
L 291.611551 299.86742 
L 310.300546 304.617154 
L 328.989541 309.366888 
L 347.678536 314.116622 
L 366.367531 318.866356 
L 385.056527 323.61609 
L 403.745522 328.365824 
L 422.434517 333.115558 
" style="fill:none;stroke:#8172b3;stroke-linecap:round;stroke-opacity:0.3;stroke-width:0.5;"/>
   </g>
   <g id="line2d_57">
    <path clip-path="url(#pe9a5dd8830)" d="M 67.343608 90.999851 
L 86.032603 96.479167 
L 104.721598 101.958483 
L 123.410594 107.437799 
L 142.099589 112.917115 
L 160.788584 118.396432 
L 179.477579 123.875748 
L 198.166574 129.355064 
L 216.85557 134.83438 
L 235.544565 140.313696 
L 254.23356 145.793012 
L 272.922555 151.272328 
L 291.611551 156.751644 
L 310.300546 162.230961 
L 328.989541 167.710277 
L 347.678536 173.189593 
L 366.367531 178.668909 
L 385.056527 184.148225 
L 403.745522 189.627541 
L 422.434517 195.106857 
" style="fill:none;stroke:#8172b3;stroke-linecap:round;stroke-opacity:0.3;stroke-width:0.5;"/>
   </g>
   <g id="line2d_58">
    <path clip-path="url(#pe9a5dd8830)" d="M 67.343608 233.709778 
L 86.032603 238.46309 
L 104.721598 243.216403 
L 123.410594 247.969715 
L 142.099589 252.723028 
L 160.788584 257.47634 
L 179.477579 262.229653 
L 198.166574 266.982965 
L 216.85557 271.736277 
L 235.544565 276.48959 
L 254.23356 281.242902 
L 272.922555 285.996215 
L 291.611551 290.749527 
L 310.300546 295.50284 
L 328.989541 300.256152 
L 347.678536 305.009464 
L 366.367531 309.762777 
L 385.056527 314.516089 
L 403.745522 319.269402 
L 422.434517 324.022714 
" style="fill:none;stroke:#8172b3;stroke-linecap:round;stroke-opacity:0.3;stroke-width:0.5;"/>
   </g>
   <g id="line2d_59">
    <path clip-path="url(#pe9a5dd8830)" d="M 67.343608 256.887598 
L 86.032603 262.412921 
L 104.721598 267.938245 
L 123.410594 273.463568 
L 142.099589 278.988892 
L 160.788584 284.514215 
L 179.477579 290.039539 
L 198.166574 295.564862 
L 216.85557 301.090186 
L 235.544565 306.615509 
L 254.23356 312.140833 
L 272.922555 317.666156 
L 291.611551 323.19148 
L 310.300546 328.716803 
L 328.989541 334.242127 
L 347.678536 339.76745 
L 366.367531 345.292774 
L 385.056527 350.818097 
L 403.745522 356.343421 
L 422.434517 361.868744 
" style="fill:none;stroke:#8172b3;stroke-linecap:round;stroke-opacity:0.3;stroke-width:0.5;"/>
   </g>
   <g id="line2d_60">
    <path clip-path="url(#pe9a5dd8830)" d="M 67.343608 294.897019 
L 86.032603 298.118252 
L 104.721598 301.339485 
L 123.410594 304.560718 
L 142.099589 307.781951 
L 160.788584 311.003184 
L 179.477579 314.224417 
L 198.166574 317.445649 
L 216.85557 320.666882 
L 235.544565 323.888115 
L 254.23356 327.109348 
L 272.922555 330.330581 
L 291.611551 333.551814 
L 310.300546 336.773047 
L 328.989541 339.99428 
L 347.678536 343.215513 
L 366.367531 346.436745 
L 385.056527 349.657978 
L 403.745522 352.879211 
L 422.434517 356.100444 
" style="fill:none;stroke:#8172b3;stroke-linecap:round;stroke-opacity:0.3;stroke-width:0.5;"/>
   </g>
   <g id="line2d_61">
    <path clip-path="url(#pe9a5dd8830)" d="M 67.343608 68.227197 
L 86.032603 73.706129 
L 104.721598 79.185062 
L 123.410594 84.663995 
L 142.099589 90.142928 
L 160.788584 95.62186 
L 179.477579 101.100793 
L 198.166574 106.579726 
L 216.85557 112.058659 
L 235.544565 117.537591 
L 254.23356 123.016524 
L 272.922555 128.495457 
L 291.611551 133.97439 
L 310.300546 139.453322 
L 328.989541 144.932255 
L 347.678536 150.411188 
L 366.367531 155.890121 
L 385.056527 161.369053 
L 403.745522 166.847986 
L 422.434517 172.326919 
" style="fill:none;stroke:#8172b3;stroke-linecap:round;stroke-opacity:0.3;stroke-width:0.5;"/>
   </g>
   <g id="line2d_62">
    <path clip-path="url(#pe9a5dd8830)" d="M 67.343608 141.808391 
L 86.032603 145.75665 
L 104.721598 149.704909 
L 123.410594 153.653168 
L 142.099589 157.601427 
L 160.788584 161.549686 
L 179.477579 165.497945 
L 198.166574 169.446204 
L 216.85557 173.394463 
L 235.544565 177.342722 
L 254.23356 181.290981 
L 272.922555 185.23924 
L 291.611551 189.187499 
L 310.300546 193.135758 
L 328.989541 197.084017 
L 347.678536 201.032276 
L 366.367531 204.980535 
L 385.056527 208.928794 
L 403.745522 212.877053 
L 422.434517 216.825312 
" style="fill:none;stroke:#8172b3;stroke-linecap:round;stroke-opacity:0.3;stroke-width:0.5;"/>
   </g>
   <g id="line2d_63">
    <path clip-path="url(#pe9a5dd8830)" d="M 67.343608 63.965862 
L 86.032603 69.446584 
L 104.721598 74.927306 
L 123.410594 80.408028 
L 142.099589 85.88875 
L 160.788584 91.369472 
L 179.477579 96.850193 
L 198.166574 102.330915 
L 216.85557 107.811637 
L 235.544565 113.292359 
L 254.23356 118.773081 
L 272.922555 124.253803 
L 291.611551 129.734525 
L 310.300546 135.215247 
L 328.989541 140.695969 
L 347.678536 146.176691 
L 366.367531 151.657413 
L 385.056527 157.138135 
L 403.745522 162.618856 
L 422.434517 168.099578 
" style="fill:none;stroke:#8172b3;stroke-linecap:round;stroke-opacity:0.3;stroke-width:0.5;"/>
   </g>
   <g id="line2d_64">
    <path clip-path="url(#pe9a5dd8830)" d="M 67.343608 272.192631 
L 86.032603 276.943132 
L 104.721598 281.693633 
L 123.410594 286.444134 
L 142.099589 291.194635 
L 160.788584 295.945136 
L 179.477579 300.695636 
L 198.166574 305.446137 
L 216.85557 310.196638 
L 235.544565 314.947139 
L 254.23356 319.69764 
L 272.922555 324.448141 
L 291.611551 329.198642 
L 310.300546 333.949143 
L 328.989541 338.699643 
L 347.678536 343.450144 
L 366.367531 348.200645 
L 385.056527 352.951146 
L 403.745522 357.701647 
L 422.434517 362.452148 
" style="fill:none;stroke:#8172b3;stroke-linecap:round;stroke-opacity:0.3;stroke-width:0.5;"/>
   </g>
   <g id="line2d_65">
    <path clip-path="url(#pe9a5dd8830)" d="M 67.343608 178.628455 
L 86.032603 183.607162 
L 104.721598 188.585868 
L 123.410594 193.564575 
L 142.099589 198.543281 
L 160.788584 203.521988 
L 179.477579 208.500694 
L 198.166574 213.479401 
L 216.85557 218.458107 
L 235.544565 223.436814 
L 254.23356 228.415521 
L 272.922555 233.394227 
L 291.611551 238.372934 
L 310.300546 243.35164 
L 328.989541 248.330347 
L 347.678536 253.309053 
L 366.367531 258.28776 
L 385.056527 263.266466 
L 403.745522 268.245173 
L 422.434517 273.223879 
" style="fill:none;stroke:#8172b3;stroke-linecap:round;stroke-width:1.5;"/>
   </g>
   <g id="patch_3">
    <path d="M 49.589063 423 
L 49.589063 42.48 
" style="fill:none;stroke:#ffffff;stroke-linecap:square;stroke-linejoin:miter;stroke-width:0.8;"/>
   </g>
   <g id="patch_4">
    <path d="M 440.189063 423 
L 440.189063 42.48 
" style="fill:none;stroke:#ffffff;stroke-linecap:square;stroke-linejoin:miter;stroke-width:0.8;"/>
   </g>
   <g id="patch_5">
    <path d="M 49.589062 423 
L 440.189062 423 
" style="fill:none;stroke:#ffffff;stroke-linecap:square;stroke-linejoin:miter;stroke-width:0.8;"/>
   </g>
   <g id="patch_6">
    <path d="M 49.589062 42.48 
L 440.189062 42.48 
" style="fill:none;stroke:#ffffff;stroke-linecap:square;stroke-linejoin:miter;stroke-width:0.8;"/>
   </g>
   <g id="legend_1">
    <g id="patch_7">
     <path d="M 365.054688 64.7425 
L 433.189063 64.7425 
Q 435.189063 64.7425 435.189063 62.7425 
L 435.189063 49.48 
Q 435.189063 47.48 433.189063 47.48 
L 365.054688 47.48 
Q 363.054688 47.48 363.054688 49.48 
L 363.054688 62.7425 
Q 363.054688 64.7425 365.054688 64.7425 
z
" style="fill:#e6e6e6;opacity:0.8;stroke:#cccccc;stroke-linejoin:miter;"/>
    </g>
    <g id="line2d_66">
     <path d="M 367.054688 55.137812 
L 387.054688 55.137812 
" style="fill:none;stroke:#8172b3;stroke-linecap:round;stroke-width:1.5;"/>
    </g>
    <g id="line2d_67"/>
    <g id="text_17">
     <!-- average -->
     <g style="fill:#262626;" transform="translate(395.054688 58.637812)scale(0.1 -0.1)">
      <defs>
       <path d="M 1344 0 
L 81 3319 
L 675 3319 
L 1388 1331 
Q 1503 1009 1600 663 
Q 1675 925 1809 1294 
L 2547 3319 
L 3125 3319 
L 1869 0 
L 1344 0 
z
" id="ArialMT-76" transform="scale(0.015625)"/>
       <path d="M 319 -275 
L 866 -356 
Q 900 -609 1056 -725 
Q 1266 -881 1628 -881 
Q 2019 -881 2231 -725 
Q 2444 -569 2519 -288 
Q 2563 -116 2559 434 
Q 2191 0 1641 0 
Q 956 0 581 494 
Q 206 988 206 1678 
Q 206 2153 378 2554 
Q 550 2956 876 3175 
Q 1203 3394 1644 3394 
Q 2231 3394 2613 2919 
L 2613 3319 
L 3131 3319 
L 3131 450 
Q 3131 -325 2973 -648 
Q 2816 -972 2473 -1159 
Q 2131 -1347 1631 -1347 
Q 1038 -1347 672 -1080 
Q 306 -813 319 -275 
z
M 784 1719 
Q 784 1066 1043 766 
Q 1303 466 1694 466 
Q 2081 466 2343 764 
Q 2606 1063 2606 1700 
Q 2606 2309 2336 2618 
Q 2066 2928 1684 2928 
Q 1309 2928 1046 2623 
Q 784 2319 784 1719 
z
" id="ArialMT-67" transform="scale(0.015625)"/>
      </defs>
      <use xlink:href="#ArialMT-61"/>
      <use x="55.615234" xlink:href="#ArialMT-76"/>
      <use x="105.615234" xlink:href="#ArialMT-65"/>
      <use x="161.230469" xlink:href="#ArialMT-72"/>
      <use x="194.53125" xlink:href="#ArialMT-61"/>
      <use x="250.146484" xlink:href="#ArialMT-67"/>
      <use x="305.761719" xlink:href="#ArialMT-65"/>
     </g>
    </g>
   </g>
  </g>
  <g id="text_18">
   <!-- Single ICE Plot - Linear Model -  Filtering for mnth = JUL -->
   <g style="fill:#262626;" transform="translate(88.7025 15.935625)scale(0.12 -0.12)">
    <defs>
     <path d="M 288 1472 
L 859 1522 
Q 900 1178 1048 958 
Q 1197 738 1509 602 
Q 1822 466 2213 466 
Q 2559 466 2825 569 
Q 3091 672 3220 851 
Q 3350 1031 3350 1244 
Q 3350 1459 3225 1620 
Q 3100 1781 2813 1891 
Q 2628 1963 1997 2114 
Q 1366 2266 1113 2400 
Q 784 2572 623 2826 
Q 463 3081 463 3397 
Q 463 3744 659 4045 
Q 856 4347 1234 4503 
Q 1613 4659 2075 4659 
Q 2584 4659 2973 4495 
Q 3363 4331 3572 4012 
Q 3781 3694 3797 3291 
L 3216 3247 
Q 3169 3681 2898 3903 
Q 2628 4125 2100 4125 
Q 1550 4125 1298 3923 
Q 1047 3722 1047 3438 
Q 1047 3191 1225 3031 
Q 1400 2872 2139 2705 
Q 2878 2538 3153 2413 
Q 3553 2228 3743 1945 
Q 3934 1663 3934 1294 
Q 3934 928 3725 604 
Q 3516 281 3123 101 
Q 2731 -78 2241 -78 
Q 1619 -78 1198 103 
Q 778 284 539 648 
Q 300 1013 288 1472 
z
" id="ArialMT-53" transform="scale(0.015625)"/>
     <path d="M 597 0 
L 597 4581 
L 1203 4581 
L 1203 0 
L 597 0 
z
" id="ArialMT-49" transform="scale(0.015625)"/>
     <path d="M 3763 1606 
L 4369 1453 
Q 4178 706 3683 314 
Q 3188 -78 2472 -78 
Q 1731 -78 1267 223 
Q 803 525 561 1097 
Q 319 1669 319 2325 
Q 319 3041 592 3573 
Q 866 4106 1370 4382 
Q 1875 4659 2481 4659 
Q 3169 4659 3637 4309 
Q 4106 3959 4291 3325 
L 3694 3184 
Q 3534 3684 3231 3912 
Q 2928 4141 2469 4141 
Q 1941 4141 1586 3887 
Q 1231 3634 1087 3207 
Q 944 2781 944 2328 
Q 944 1744 1114 1308 
Q 1284 872 1643 656 
Q 2003 441 2422 441 
Q 2931 441 3284 734 
Q 3638 1028 3763 1606 
z
" id="ArialMT-43" transform="scale(0.015625)"/>
     <path d="M 506 0 
L 506 4581 
L 3819 4581 
L 3819 4041 
L 1113 4041 
L 1113 2638 
L 3647 2638 
L 3647 2100 
L 1113 2100 
L 1113 541 
L 3925 541 
L 3925 0 
L 506 0 
z
" id="ArialMT-45" transform="scale(0.015625)"/>
     <path d="M 213 1659 
Q 213 2581 725 3025 
Q 1153 3394 1769 3394 
Q 2453 3394 2887 2945 
Q 3322 2497 3322 1706 
Q 3322 1066 3130 698 
Q 2938 331 2570 128 
Q 2203 -75 1769 -75 
Q 1072 -75 642 372 
Q 213 819 213 1659 
z
M 791 1659 
Q 791 1022 1069 705 
Q 1347 388 1769 388 
Q 2188 388 2466 706 
Q 2744 1025 2744 1678 
Q 2744 2294 2464 2611 
Q 2184 2928 1769 2928 
Q 1347 2928 1069 2612 
Q 791 2297 791 1659 
z
" id="ArialMT-6f" transform="scale(0.015625)"/>
     <path d="M 203 1375 
L 203 1941 
L 1931 1941 
L 1931 1375 
L 203 1375 
z
" id="ArialMT-2d" transform="scale(0.015625)"/>
     <path d="M 469 0 
L 469 4581 
L 1075 4581 
L 1075 541 
L 3331 541 
L 3331 0 
L 469 0 
z
" id="ArialMT-4c" transform="scale(0.015625)"/>
     <path d="M 475 0 
L 475 4581 
L 1388 4581 
L 2472 1338 
Q 2622 884 2691 659 
Q 2769 909 2934 1394 
L 4031 4581 
L 4847 4581 
L 4847 0 
L 4263 0 
L 4263 3834 
L 2931 0 
L 2384 0 
L 1059 3900 
L 1059 0 
L 475 0 
z
" id="ArialMT-4d" transform="scale(0.015625)"/>
     <path d="M 525 0 
L 525 4581 
L 3616 4581 
L 3616 4041 
L 1131 4041 
L 1131 2622 
L 3281 2622 
L 3281 2081 
L 1131 2081 
L 1131 0 
L 525 0 
z
" id="ArialMT-46" transform="scale(0.015625)"/>
     <path d="M 556 0 
L 556 2881 
L 59 2881 
L 59 3319 
L 556 3319 
L 556 3672 
Q 556 4006 616 4169 
Q 697 4388 901 4523 
Q 1106 4659 1475 4659 
Q 1713 4659 2000 4603 
L 1916 4113 
Q 1741 4144 1584 4144 
Q 1328 4144 1222 4034 
Q 1116 3925 1116 3625 
L 1116 3319 
L 1763 3319 
L 1763 2881 
L 1116 2881 
L 1116 0 
L 556 0 
z
" id="ArialMT-66" transform="scale(0.015625)"/>
     <path d="M 422 0 
L 422 4581 
L 984 4581 
L 984 2938 
Q 1378 3394 1978 3394 
Q 2347 3394 2619 3248 
Q 2891 3103 3008 2847 
Q 3125 2591 3125 2103 
L 3125 0 
L 2563 0 
L 2563 2103 
Q 2563 2525 2380 2717 
Q 2197 2909 1863 2909 
Q 1613 2909 1392 2779 
Q 1172 2650 1078 2428 
Q 984 2206 984 1816 
L 984 0 
L 422 0 
z
" id="ArialMT-68" transform="scale(0.015625)"/>
     <path d="M 3381 2694 
L 356 2694 
L 356 3219 
L 3381 3219 
L 3381 2694 
z
M 3381 1303 
L 356 1303 
L 356 1828 
L 3381 1828 
L 3381 1303 
z
" id="ArialMT-3d" transform="scale(0.015625)"/>
     <path d="M 184 1300 
L 731 1375 
Q 753 850 928 656 
Q 1103 463 1413 463 
Q 1641 463 1806 567 
Q 1972 672 2034 851 
Q 2097 1031 2097 1425 
L 2097 4581 
L 2703 4581 
L 2703 1459 
Q 2703 884 2564 568 
Q 2425 253 2123 87 
Q 1822 -78 1416 -78 
Q 813 -78 492 269 
Q 172 616 184 1300 
z
" id="ArialMT-4a" transform="scale(0.015625)"/>
     <path d="M 3500 4581 
L 4106 4581 
L 4106 1934 
Q 4106 1244 3950 837 
Q 3794 431 3386 176 
Q 2978 -78 2316 -78 
Q 1672 -78 1262 144 
Q 853 366 678 786 
Q 503 1206 503 1934 
L 503 4581 
L 1109 4581 
L 1109 1938 
Q 1109 1341 1220 1058 
Q 1331 775 1601 622 
Q 1872 469 2263 469 
Q 2931 469 3215 772 
Q 3500 1075 3500 1938 
L 3500 4581 
z
" id="ArialMT-55" transform="scale(0.015625)"/>
    </defs>
    <use xlink:href="#ArialMT-53"/>
    <use x="66.699219" xlink:href="#ArialMT-69"/>
    <use x="88.916016" xlink:href="#ArialMT-6e"/>
    <use x="144.53125" xlink:href="#ArialMT-67"/>
    <use x="200.146484" xlink:href="#ArialMT-6c"/>
    <use x="222.363281" xlink:href="#ArialMT-65"/>
    <use x="277.978516" xlink:href="#ArialMT-20"/>
    <use x="305.761719" xlink:href="#ArialMT-49"/>
    <use x="333.544922" xlink:href="#ArialMT-43"/>
    <use x="405.761719" xlink:href="#ArialMT-45"/>
    <use x="472.460938" xlink:href="#ArialMT-20"/>
    <use x="500.244141" xlink:href="#ArialMT-50"/>
    <use x="566.943359" xlink:href="#ArialMT-6c"/>
    <use x="589.160156" xlink:href="#ArialMT-6f"/>
    <use x="644.775391" xlink:href="#ArialMT-74"/>
    <use x="672.558594" xlink:href="#ArialMT-20"/>
    <use x="700.341797" xlink:href="#ArialMT-2d"/>
    <use x="733.642578" xlink:href="#ArialMT-20"/>
    <use x="761.425781" xlink:href="#ArialMT-4c"/>
    <use x="817.041016" xlink:href="#ArialMT-69"/>
    <use x="839.257812" xlink:href="#ArialMT-6e"/>
    <use x="894.873047" xlink:href="#ArialMT-65"/>
    <use x="950.488281" xlink:href="#ArialMT-61"/>
    <use x="1006.103516" xlink:href="#ArialMT-72"/>
    <use x="1039.404297" xlink:href="#ArialMT-20"/>
    <use x="1067.1875" xlink:href="#ArialMT-4d"/>
    <use x="1150.488281" xlink:href="#ArialMT-6f"/>
    <use x="1206.103516" xlink:href="#ArialMT-64"/>
    <use x="1261.71875" xlink:href="#ArialMT-65"/>
    <use x="1317.333984" xlink:href="#ArialMT-6c"/>
    <use x="1339.550781" xlink:href="#ArialMT-20"/>
    <use x="1367.333984" xlink:href="#ArialMT-2d"/>
    <use x="1400.634766" xlink:href="#ArialMT-20"/>
    <use x="1428.417969" xlink:href="#ArialMT-20"/>
    <use x="1456.201172" xlink:href="#ArialMT-46"/>
    <use x="1517.285156" xlink:href="#ArialMT-69"/>
    <use x="1539.501953" xlink:href="#ArialMT-6c"/>
    <use x="1561.71875" xlink:href="#ArialMT-74"/>
    <use x="1589.501953" xlink:href="#ArialMT-65"/>
    <use x="1645.117188" xlink:href="#ArialMT-72"/>
    <use x="1678.417969" xlink:href="#ArialMT-69"/>
    <use x="1700.634766" xlink:href="#ArialMT-6e"/>
    <use x="1756.25" xlink:href="#ArialMT-67"/>
    <use x="1811.865234" xlink:href="#ArialMT-20"/>
    <use x="1839.648438" xlink:href="#ArialMT-66"/>
    <use x="1867.431641" xlink:href="#ArialMT-6f"/>
    <use x="1923.046875" xlink:href="#ArialMT-72"/>
    <use x="1956.347656" xlink:href="#ArialMT-20"/>
    <use x="1984.130859" xlink:href="#ArialMT-6d"/>
    <use x="2067.431641" xlink:href="#ArialMT-6e"/>
    <use x="2123.046875" xlink:href="#ArialMT-74"/>
    <use x="2150.830078" xlink:href="#ArialMT-68"/>
    <use x="2206.445312" xlink:href="#ArialMT-20"/>
    <use x="2234.228516" xlink:href="#ArialMT-3d"/>
    <use x="2292.626953" xlink:href="#ArialMT-20"/>
    <use x="2320.410156" xlink:href="#ArialMT-4a"/>
    <use x="2370.410156" xlink:href="#ArialMT-55"/>
    <use x="2442.626953" xlink:href="#ArialMT-4c"/>
   </g>
  </g>
 </g>
 <defs>
  <clipPath id="pe9a5dd8830">
   <rect height="380.52" width="390.6" x="49.589063" y="42.48"/>
  </clipPath>
 </defs>
</svg>
