<?xml version="1.0" encoding="utf-8" standalone="no"?>
<!DOCTYPE svg PUBLIC "-//W3C//DTD SVG 1.1//EN"
  "http://www.w3.org/Graphics/SVG/1.1/DTD/svg11.dtd">
<svg height="459.490625pt" version="1.1" viewBox="0 0 882.667187 459.490625" width="882.667187pt" xmlns="http://www.w3.org/2000/svg" xmlns:xlink="http://www.w3.org/1999/xlink">
 <metadata>
  <rdf:RDF xmlns:cc="http://creativecommons.org/ns#" xmlns:dc="http://purl.org/dc/elements/1.1/" xmlns:rdf="http://www.w3.org/1999/02/22-rdf-syntax-ns#">
   <cc:Work>
    <dc:type rdf:resource="http://purl.org/dc/dcmitype/StillImage"/>
    <dc:date>2021-10-31T20:16:57.358300</dc:date>
    <dc:format>image/svg+xml</dc:format>
    <dc:creator>
     <cc:Agent>
      <dc:title>Matplotlib v3.4.3, https://matplotlib.org/</dc:title>
     </cc:Agent>
    </dc:creator>
   </cc:Work>
  </rdf:RDF>
 </metadata>
 <defs>
  <style type="text/css">*{stroke-linecap:butt;stroke-linejoin:round;}</style>
 </defs>
 <g id="figure_1">
  <g id="patch_1">
   <path d="M 0 459.490625 
L 882.667187 459.490625 
L 882.667187 0 
L 0 0 
z
" style="fill:#ffffff;"/>
  </g>
  <g id="axes_1"/>
  <g id="axes_2">
   <g id="patch_2">
    <path d="M 38.467188 423 
L 284.643658 423 
L 284.643658 42.48 
L 38.467188 42.48 
z
" style="fill:#e6e6e6;"/>
   </g>
   <g id="matplotlib.axis_1">
    <g id="xtick_1">
     <g id="line2d_1">
      <path clip-path="url(#p407c6f23cd)" d="M 72.727442 423 
L 72.727442 42.48 
" style="fill:none;stroke:#cccccc;stroke-linecap:round;stroke-width:0.8;"/>
     </g>
     <g id="text_1">
      <!-- 5 -->
      <g style="fill:#262626;" transform="translate(69.946973 437.157812)scale(0.1 -0.1)">
       <defs>
        <path d="M 266 1200 
L 856 1250 
Q 922 819 1161 601 
Q 1400 384 1738 384 
Q 2144 384 2425 690 
Q 2706 997 2706 1503 
Q 2706 1984 2436 2262 
Q 2166 2541 1728 2541 
Q 1456 2541 1237 2417 
Q 1019 2294 894 2097 
L 366 2166 
L 809 4519 
L 3088 4519 
L 3088 3981 
L 1259 3981 
L 1013 2750 
Q 1425 3038 1878 3038 
Q 2478 3038 2890 2622 
Q 3303 2206 3303 1553 
Q 3303 931 2941 478 
Q 2500 -78 1738 -78 
Q 1113 -78 717 272 
Q 322 622 266 1200 
z
" id="ArialMT-35" transform="scale(0.015625)"/>
       </defs>
       <use xlink:href="#ArialMT-35"/>
      </g>
     </g>
    </g>
    <g id="xtick_2">
     <g id="line2d_2">
      <path clip-path="url(#p407c6f23cd)" d="M 117.855484 423 
L 117.855484 42.48 
" style="fill:none;stroke:#cccccc;stroke-linecap:round;stroke-width:0.8;"/>
     </g>
     <g id="text_2">
      <!-- 10 -->
      <g style="fill:#262626;" transform="translate(112.294546 437.157812)scale(0.1 -0.1)">
       <defs>
        <path d="M 2384 0 
L 1822 0 
L 1822 3584 
Q 1619 3391 1289 3197 
Q 959 3003 697 2906 
L 697 3450 
Q 1169 3672 1522 3987 
Q 1875 4303 2022 4600 
L 2384 4600 
L 2384 0 
z
" id="ArialMT-31" transform="scale(0.015625)"/>
        <path d="M 266 2259 
Q 266 3072 433 3567 
Q 600 4063 929 4331 
Q 1259 4600 1759 4600 
Q 2128 4600 2406 4451 
Q 2684 4303 2865 4023 
Q 3047 3744 3150 3342 
Q 3253 2941 3253 2259 
Q 3253 1453 3087 958 
Q 2922 463 2592 192 
Q 2263 -78 1759 -78 
Q 1097 -78 719 397 
Q 266 969 266 2259 
z
M 844 2259 
Q 844 1131 1108 757 
Q 1372 384 1759 384 
Q 2147 384 2411 759 
Q 2675 1134 2675 2259 
Q 2675 3391 2411 3762 
Q 2147 4134 1753 4134 
Q 1366 4134 1134 3806 
Q 844 3388 844 2259 
z
" id="ArialMT-30" transform="scale(0.015625)"/>
       </defs>
       <use xlink:href="#ArialMT-31"/>
       <use x="55.615234" xlink:href="#ArialMT-30"/>
      </g>
     </g>
    </g>
    <g id="xtick_3">
     <g id="line2d_3">
      <path clip-path="url(#p407c6f23cd)" d="M 162.983526 423 
L 162.983526 42.48 
" style="fill:none;stroke:#cccccc;stroke-linecap:round;stroke-width:0.8;"/>
     </g>
     <g id="text_3">
      <!-- 15 -->
      <g style="fill:#262626;" transform="translate(157.422589 437.157812)scale(0.1 -0.1)">
       <use xlink:href="#ArialMT-31"/>
       <use x="55.615234" xlink:href="#ArialMT-35"/>
      </g>
     </g>
    </g>
    <g id="xtick_4">
     <g id="line2d_4">
      <path clip-path="url(#p407c6f23cd)" d="M 208.111569 423 
L 208.111569 42.48 
" style="fill:none;stroke:#cccccc;stroke-linecap:round;stroke-width:0.8;"/>
     </g>
     <g id="text_4">
      <!-- 20 -->
      <g style="fill:#262626;" transform="translate(202.550631 437.157812)scale(0.1 -0.1)">
       <defs>
        <path d="M 3222 541 
L 3222 0 
L 194 0 
Q 188 203 259 391 
Q 375 700 629 1000 
Q 884 1300 1366 1694 
Q 2113 2306 2375 2664 
Q 2638 3022 2638 3341 
Q 2638 3675 2398 3904 
Q 2159 4134 1775 4134 
Q 1369 4134 1125 3890 
Q 881 3647 878 3216 
L 300 3275 
Q 359 3922 746 4261 
Q 1134 4600 1788 4600 
Q 2447 4600 2831 4234 
Q 3216 3869 3216 3328 
Q 3216 3053 3103 2787 
Q 2991 2522 2730 2228 
Q 2469 1934 1863 1422 
Q 1356 997 1212 845 
Q 1069 694 975 541 
L 3222 541 
z
" id="ArialMT-32" transform="scale(0.015625)"/>
       </defs>
       <use xlink:href="#ArialMT-32"/>
       <use x="55.615234" xlink:href="#ArialMT-30"/>
      </g>
     </g>
    </g>
    <g id="xtick_5">
     <g id="line2d_5">
      <path clip-path="url(#p407c6f23cd)" d="M 253.239611 423 
L 253.239611 42.48 
" style="fill:none;stroke:#cccccc;stroke-linecap:round;stroke-width:0.8;"/>
     </g>
     <g id="text_5">
      <!-- 25 -->
      <g style="fill:#262626;" transform="translate(247.678674 437.157812)scale(0.1 -0.1)">
       <use xlink:href="#ArialMT-32"/>
       <use x="55.615234" xlink:href="#ArialMT-35"/>
      </g>
     </g>
    </g>
    <g id="text_6">
     <!-- temp -->
     <g style="fill:#262626;" transform="translate(150.440579 450.303125)scale(0.1 -0.1)">
      <defs>
       <path d="M 1650 503 
L 1731 6 
Q 1494 -44 1306 -44 
Q 1000 -44 831 53 
Q 663 150 594 308 
Q 525 466 525 972 
L 525 2881 
L 113 2881 
L 113 3319 
L 525 3319 
L 525 4141 
L 1084 4478 
L 1084 3319 
L 1650 3319 
L 1650 2881 
L 1084 2881 
L 1084 941 
Q 1084 700 1114 631 
Q 1144 563 1211 522 
Q 1278 481 1403 481 
Q 1497 481 1650 503 
z
" id="ArialMT-74" transform="scale(0.015625)"/>
       <path d="M 2694 1069 
L 3275 997 
Q 3138 488 2766 206 
Q 2394 -75 1816 -75 
Q 1088 -75 661 373 
Q 234 822 234 1631 
Q 234 2469 665 2931 
Q 1097 3394 1784 3394 
Q 2450 3394 2872 2941 
Q 3294 2488 3294 1666 
Q 3294 1616 3291 1516 
L 816 1516 
Q 847 969 1125 678 
Q 1403 388 1819 388 
Q 2128 388 2347 550 
Q 2566 713 2694 1069 
z
M 847 1978 
L 2700 1978 
Q 2663 2397 2488 2606 
Q 2219 2931 1791 2931 
Q 1403 2931 1139 2672 
Q 875 2413 847 1978 
z
" id="ArialMT-65" transform="scale(0.015625)"/>
       <path d="M 422 0 
L 422 3319 
L 925 3319 
L 925 2853 
Q 1081 3097 1340 3245 
Q 1600 3394 1931 3394 
Q 2300 3394 2536 3241 
Q 2772 3088 2869 2813 
Q 3263 3394 3894 3394 
Q 4388 3394 4653 3120 
Q 4919 2847 4919 2278 
L 4919 0 
L 4359 0 
L 4359 2091 
Q 4359 2428 4304 2576 
Q 4250 2725 4106 2815 
Q 3963 2906 3769 2906 
Q 3419 2906 3187 2673 
Q 2956 2441 2956 1928 
L 2956 0 
L 2394 0 
L 2394 2156 
Q 2394 2531 2256 2718 
Q 2119 2906 1806 2906 
Q 1569 2906 1367 2781 
Q 1166 2656 1075 2415 
Q 984 2175 984 1722 
L 984 0 
L 422 0 
z
" id="ArialMT-6d" transform="scale(0.015625)"/>
       <path d="M 422 -1272 
L 422 3319 
L 934 3319 
L 934 2888 
Q 1116 3141 1344 3267 
Q 1572 3394 1897 3394 
Q 2322 3394 2647 3175 
Q 2972 2956 3137 2557 
Q 3303 2159 3303 1684 
Q 3303 1175 3120 767 
Q 2938 359 2589 142 
Q 2241 -75 1856 -75 
Q 1575 -75 1351 44 
Q 1128 163 984 344 
L 984 -1272 
L 422 -1272 
z
M 931 1641 
Q 931 1000 1190 694 
Q 1450 388 1819 388 
Q 2194 388 2461 705 
Q 2728 1022 2728 1688 
Q 2728 2322 2467 2637 
Q 2206 2953 1844 2953 
Q 1484 2953 1207 2617 
Q 931 2281 931 1641 
z
" id="ArialMT-70" transform="scale(0.015625)"/>
      </defs>
      <use xlink:href="#ArialMT-74"/>
      <use x="27.783203" xlink:href="#ArialMT-65"/>
      <use x="83.398438" xlink:href="#ArialMT-6d"/>
      <use x="166.699219" xlink:href="#ArialMT-70"/>
     </g>
    </g>
   </g>
   <g id="matplotlib.axis_2">
    <g id="ytick_1">
     <g id="line2d_6">
      <path clip-path="url(#p407c6f23cd)" d="M 38.467188 342.786556 
L 284.643658 342.786556 
" style="fill:none;stroke:#cccccc;stroke-linecap:round;stroke-width:0.8;"/>
     </g>
     <g id="text_7">
      <!-- 50 -->
      <g style="fill:#262626;" transform="translate(20.345313 346.365462)scale(0.1 -0.1)">
       <use xlink:href="#ArialMT-35"/>
       <use x="55.615234" xlink:href="#ArialMT-30"/>
      </g>
     </g>
    </g>
    <g id="ytick_2">
     <g id="line2d_7">
      <path clip-path="url(#p407c6f23cd)" d="M 38.467188 262.163442 
L 284.643658 262.163442 
" style="fill:none;stroke:#cccccc;stroke-linecap:round;stroke-width:0.8;"/>
     </g>
     <g id="text_8">
      <!-- 60 -->
      <g style="fill:#262626;" transform="translate(20.345313 265.742348)scale(0.1 -0.1)">
       <defs>
        <path d="M 3184 3459 
L 2625 3416 
Q 2550 3747 2413 3897 
Q 2184 4138 1850 4138 
Q 1581 4138 1378 3988 
Q 1113 3794 959 3422 
Q 806 3050 800 2363 
Q 1003 2672 1297 2822 
Q 1591 2972 1913 2972 
Q 2475 2972 2870 2558 
Q 3266 2144 3266 1488 
Q 3266 1056 3080 686 
Q 2894 316 2569 119 
Q 2244 -78 1831 -78 
Q 1128 -78 684 439 
Q 241 956 241 2144 
Q 241 3472 731 4075 
Q 1159 4600 1884 4600 
Q 2425 4600 2770 4297 
Q 3116 3994 3184 3459 
z
M 888 1484 
Q 888 1194 1011 928 
Q 1134 663 1356 523 
Q 1578 384 1822 384 
Q 2178 384 2434 671 
Q 2691 959 2691 1453 
Q 2691 1928 2437 2201 
Q 2184 2475 1800 2475 
Q 1419 2475 1153 2201 
Q 888 1928 888 1484 
z
" id="ArialMT-36" transform="scale(0.015625)"/>
       </defs>
       <use xlink:href="#ArialMT-36"/>
       <use x="55.615234" xlink:href="#ArialMT-30"/>
      </g>
     </g>
    </g>
    <g id="ytick_3">
     <g id="line2d_8">
      <path clip-path="url(#p407c6f23cd)" d="M 38.467188 181.540328 
L 284.643658 181.540328 
" style="fill:none;stroke:#cccccc;stroke-linecap:round;stroke-width:0.8;"/>
     </g>
     <g id="text_9">
      <!-- 70 -->
      <g style="fill:#262626;" transform="translate(20.345313 185.119234)scale(0.1 -0.1)">
       <defs>
        <path d="M 303 3981 
L 303 4522 
L 3269 4522 
L 3269 4084 
Q 2831 3619 2401 2847 
Q 1972 2075 1738 1259 
Q 1569 684 1522 0 
L 944 0 
Q 953 541 1156 1306 
Q 1359 2072 1739 2783 
Q 2119 3494 2547 3981 
L 303 3981 
z
" id="ArialMT-37" transform="scale(0.015625)"/>
       </defs>
       <use xlink:href="#ArialMT-37"/>
       <use x="55.615234" xlink:href="#ArialMT-30"/>
      </g>
     </g>
    </g>
    <g id="ytick_4">
     <g id="line2d_9">
      <path clip-path="url(#p407c6f23cd)" d="M 38.467188 100.917213 
L 284.643658 100.917213 
" style="fill:none;stroke:#cccccc;stroke-linecap:round;stroke-width:0.8;"/>
     </g>
     <g id="text_10">
      <!-- 80 -->
      <g style="fill:#262626;" transform="translate(20.345313 104.49612)scale(0.1 -0.1)">
       <defs>
        <path d="M 1131 2484 
Q 781 2613 612 2850 
Q 444 3088 444 3419 
Q 444 3919 803 4259 
Q 1163 4600 1759 4600 
Q 2359 4600 2725 4251 
Q 3091 3903 3091 3403 
Q 3091 3084 2923 2848 
Q 2756 2613 2416 2484 
Q 2838 2347 3058 2040 
Q 3278 1734 3278 1309 
Q 3278 722 2862 322 
Q 2447 -78 1769 -78 
Q 1091 -78 675 323 
Q 259 725 259 1325 
Q 259 1772 486 2073 
Q 713 2375 1131 2484 
z
M 1019 3438 
Q 1019 3113 1228 2906 
Q 1438 2700 1772 2700 
Q 2097 2700 2305 2904 
Q 2513 3109 2513 3406 
Q 2513 3716 2298 3927 
Q 2084 4138 1766 4138 
Q 1444 4138 1231 3931 
Q 1019 3725 1019 3438 
z
M 838 1322 
Q 838 1081 952 856 
Q 1066 631 1291 507 
Q 1516 384 1775 384 
Q 2178 384 2440 643 
Q 2703 903 2703 1303 
Q 2703 1709 2433 1975 
Q 2163 2241 1756 2241 
Q 1359 2241 1098 1978 
Q 838 1716 838 1322 
z
" id="ArialMT-38" transform="scale(0.015625)"/>
       </defs>
       <use xlink:href="#ArialMT-38"/>
       <use x="55.615234" xlink:href="#ArialMT-30"/>
      </g>
     </g>
    </g>
    <g id="text_11">
     <!-- hum -->
     <g style="fill:#262626;" transform="translate(14.357813 242.465781)rotate(-90)scale(0.1 -0.1)">
      <defs>
       <path d="M 422 0 
L 422 4581 
L 984 4581 
L 984 2938 
Q 1378 3394 1978 3394 
Q 2347 3394 2619 3248 
Q 2891 3103 3008 2847 
Q 3125 2591 3125 2103 
L 3125 0 
L 2563 0 
L 2563 2103 
Q 2563 2525 2380 2717 
Q 2197 2909 1863 2909 
Q 1613 2909 1392 2779 
Q 1172 2650 1078 2428 
Q 984 2206 984 1816 
L 984 0 
L 422 0 
z
" id="ArialMT-68" transform="scale(0.015625)"/>
       <path d="M 2597 0 
L 2597 488 
Q 2209 -75 1544 -75 
Q 1250 -75 995 37 
Q 741 150 617 320 
Q 494 491 444 738 
Q 409 903 409 1263 
L 409 3319 
L 972 3319 
L 972 1478 
Q 972 1038 1006 884 
Q 1059 663 1231 536 
Q 1403 409 1656 409 
Q 1909 409 2131 539 
Q 2353 669 2445 892 
Q 2538 1116 2538 1541 
L 2538 3319 
L 3100 3319 
L 3100 0 
L 2597 0 
z
" id="ArialMT-75" transform="scale(0.015625)"/>
      </defs>
      <use xlink:href="#ArialMT-68"/>
      <use x="55.615234" xlink:href="#ArialMT-75"/>
      <use x="111.230469" xlink:href="#ArialMT-6d"/>
     </g>
    </g>
   </g>
   <g id="PathCollection_1">
    <path clip-path="url(#p407c6f23cd)" d="M 42.548477 62.507368 
L 49.817866 42.48 
L 38.467188 42.48 
L 38.467188 62.507368 
L 38.467188 73.751434 
z
" style="fill:#d0e11c;fill-opacity:0.75;"/>
   </g>
   <g id="PathCollection_2">
    <path clip-path="url(#p407c6f23cd)" d="M 39.281339 242.753684 
L 46.550728 222.726316 
L 51.423844 209.300748 
L 53.820118 202.698947 
L 61.089507 182.671579 
L 64.3805 173.604801 
L 68.358896 162.644211 
L 75.628285 142.616842 
L 77.337157 137.908853 
L 82.897674 122.589474 
L 90.167063 102.562105 
L 90.293813 102.212906 
L 97.436452 82.534737 
L 103.250469 66.516958 
L 104.705841 62.507368 
L 111.97523 42.48 
L 103.250469 42.48 
L 90.293813 42.48 
L 77.337157 42.48 
L 64.3805 42.48 
L 51.423844 42.48 
L 49.817866 42.48 
L 42.548477 62.507368 
L 38.467188 73.751434 
L 38.467188 82.534737 
L 38.467188 102.562105 
L 38.467188 122.589474 
L 38.467188 142.616842 
L 38.467188 162.644211 
L 38.467188 182.671579 
L 38.467188 202.698947 
L 38.467188 222.726316 
L 38.467188 242.753684 
L 38.467188 244.996695 
z
" style="fill:#73d056;fill-opacity:0.75;"/>
   </g>
   <g id="PathCollection_3">
    <path clip-path="url(#p407c6f23cd)" d="M 43.283591 402.972632 
L 50.55298 382.945263 
L 51.423844 380.546009 
L 57.822369 362.917895 
L 64.3805 344.850061 
L 65.091758 342.890526 
L 72.361147 322.863158 
L 77.337157 309.154114 
L 79.630536 302.835789 
L 86.899925 282.808421 
L 90.293813 273.458167 
L 94.169314 262.781053 
L 101.438703 242.753684 
L 103.250469 237.762219 
L 108.708093 222.726316 
L 115.977482 202.698947 
L 116.207126 202.066272 
L 123.246871 182.671579 
L 129.163782 166.370325 
L 130.51626 162.644211 
L 137.785649 142.616842 
L 142.120438 130.674377 
L 145.055038 122.589474 
L 152.324427 102.562105 
L 155.077095 94.97843 
L 159.593816 82.534737 
L 166.863205 62.507368 
L 168.033751 59.282483 
L 174.132594 42.48 
L 168.033751 42.48 
L 155.077095 42.48 
L 142.120438 42.48 
L 129.163782 42.48 
L 116.207126 42.48 
L 111.97523 42.48 
L 104.705841 62.507368 
L 103.250469 66.516958 
L 97.436452 82.534737 
L 90.293813 102.212906 
L 90.167063 102.562105 
L 82.897674 122.589474 
L 77.337157 137.908853 
L 75.628285 142.616842 
L 68.358896 162.644211 
L 64.3805 173.604801 
L 61.089507 182.671579 
L 53.820118 202.698947 
L 51.423844 209.300748 
L 46.550728 222.726316 
L 39.281339 242.753684 
L 38.467188 244.996695 
L 38.467188 262.781053 
L 38.467188 282.808421 
L 38.467188 302.835789 
L 38.467188 322.863158 
L 38.467188 342.890526 
L 38.467188 362.917895 
L 38.467188 382.945263 
L 38.467188 402.972632 
L 38.467188 416.241956 
z
" style="fill:#2db27d;fill-opacity:0.75;"/>
   </g>
   <g id="PathCollection_4">
    <path clip-path="url(#p407c6f23cd)" d="M 51.423844 423 
L 64.3805 423 
L 77.337157 423 
L 90.293813 423 
L 98.171566 423 
L 103.250469 409.00748 
L 105.440955 402.972632 
L 112.710344 382.945263 
L 116.207126 373.311533 
L 119.979733 362.917895 
L 127.249122 342.890526 
L 129.163782 337.615586 
L 134.518511 322.863158 
L 141.7879 302.835789 
L 142.120438 301.919638 
L 149.057289 282.808421 
L 155.077095 266.223691 
L 156.326679 262.781053 
L 163.596068 242.753684 
L 168.033751 230.527744 
L 170.865457 222.726316 
L 178.134846 202.698947 
L 180.990407 194.831796 
L 185.404235 182.671579 
L 192.673624 162.644211 
L 193.947064 159.135849 
L 199.943013 142.616842 
L 206.90372 123.439901 
L 207.212402 122.589474 
L 214.481791 102.562105 
L 219.860376 87.743954 
L 221.75118 82.534737 
L 229.020569 62.507368 
L 232.817033 52.048007 
L 236.289958 42.48 
L 232.817033 42.48 
L 219.860376 42.48 
L 206.90372 42.48 
L 193.947064 42.48 
L 180.990407 42.48 
L 174.132594 42.48 
L 168.033751 59.282483 
L 166.863205 62.507368 
L 159.593816 82.534737 
L 155.077095 94.97843 
L 152.324427 102.562105 
L 145.055038 122.589474 
L 142.120438 130.674377 
L 137.785649 142.616842 
L 130.51626 162.644211 
L 129.163782 166.370325 
L 123.246871 182.671579 
L 116.207126 202.066272 
L 115.977482 202.698947 
L 108.708093 222.726316 
L 103.250469 237.762219 
L 101.438703 242.753684 
L 94.169314 262.781053 
L 90.293813 273.458167 
L 86.899925 282.808421 
L 79.630536 302.835789 
L 77.337157 309.154114 
L 72.361147 322.863158 
L 65.091758 342.890526 
L 64.3805 344.850061 
L 57.822369 362.917895 
L 51.423844 380.546009 
L 50.55298 382.945263 
L 43.283591 402.972632 
L 38.467188 416.241956 
L 38.467188 423 
z
" style="fill:#21918c;fill-opacity:0.75;"/>
   </g>
   <g id="PathCollection_5">
    <path clip-path="url(#p407c6f23cd)" d="M 103.250469 423 
L 116.207126 423 
L 129.163782 423 
L 142.120438 423 
L 155.077095 423 
L 160.32893 423 
L 167.598319 402.972632 
L 168.033751 401.773004 
L 174.867708 382.945263 
L 180.990407 366.077057 
L 182.137097 362.917895 
L 189.406486 342.890526 
L 193.947064 330.38111 
L 196.675875 322.863158 
L 203.945264 302.835789 
L 206.90372 294.685162 
L 211.214654 282.808421 
L 218.484043 262.781053 
L 219.860376 258.989215 
L 225.753432 242.753684 
L 232.817033 223.293268 
L 233.022821 222.726316 
L 240.29221 202.698947 
L 245.773689 187.59732 
L 247.561599 182.671579 
L 254.830988 162.644211 
L 258.730345 151.901373 
L 262.100377 142.616842 
L 269.369766 122.589474 
L 271.687002 116.205426 
L 276.639155 102.562105 
L 283.908544 82.534737 
L 284.643658 80.509478 
L 284.643658 62.507368 
L 284.643658 42.48 
L 271.687002 42.48 
L 258.730345 42.48 
L 245.773689 42.48 
L 236.289958 42.48 
L 232.817033 52.048007 
L 229.020569 62.507368 
L 221.75118 82.534737 
L 219.860376 87.743954 
L 214.481791 102.562105 
L 207.212402 122.589474 
L 206.90372 123.439901 
L 199.943013 142.616842 
L 193.947064 159.135849 
L 192.673624 162.644211 
L 185.404235 182.671579 
L 180.990407 194.831796 
L 178.134846 202.698947 
L 170.865457 222.726316 
L 168.033751 230.527744 
L 163.596068 242.753684 
L 156.326679 262.781053 
L 155.077095 266.223691 
L 149.057289 282.808421 
L 142.120438 301.919638 
L 141.7879 302.835789 
L 134.518511 322.863158 
L 129.163782 337.615586 
L 127.249122 342.890526 
L 119.979733 362.917895 
L 116.207126 373.311533 
L 112.710344 382.945263 
L 105.440955 402.972632 
L 103.250469 409.00748 
L 98.171566 423 
z
" style="fill:#2e6e8e;fill-opacity:0.75;"/>
   </g>
   <g id="PathCollection_6">
    <path clip-path="url(#p407c6f23cd)" d="M 168.033751 423 
L 180.990407 423 
L 193.947064 423 
L 206.90372 423 
L 219.860376 423 
L 222.486294 423 
L 229.755683 402.972632 
L 232.817033 394.538529 
L 237.025072 382.945263 
L 244.294461 362.917895 
L 245.773689 358.842581 
L 251.56385 342.890526 
L 258.730345 323.146634 
L 258.833239 322.863158 
L 266.102629 302.835789 
L 271.687002 287.450686 
L 273.372018 282.808421 
L 280.641407 262.781053 
L 284.643658 251.754739 
L 284.643658 242.753684 
L 284.643658 222.726316 
L 284.643658 202.698947 
L 284.643658 182.671579 
L 284.643658 162.644211 
L 284.643658 142.616842 
L 284.643658 122.589474 
L 284.643658 102.562105 
L 284.643658 82.534737 
L 284.643658 80.509478 
L 283.908544 82.534737 
L 276.639155 102.562105 
L 271.687002 116.205426 
L 269.369766 122.589474 
L 262.100377 142.616842 
L 258.730345 151.901373 
L 254.830988 162.644211 
L 247.561599 182.671579 
L 245.773689 187.59732 
L 240.29221 202.698947 
L 233.022821 222.726316 
L 232.817033 223.293268 
L 225.753432 242.753684 
L 219.860376 258.989215 
L 218.484043 262.781053 
L 211.214654 282.808421 
L 206.90372 294.685162 
L 203.945264 302.835789 
L 196.675875 322.863158 
L 193.947064 330.38111 
L 189.406486 342.890526 
L 182.137097 362.917895 
L 180.990407 366.077057 
L 174.867708 382.945263 
L 168.033751 401.773004 
L 167.598319 402.972632 
L 160.32893 423 
z
" style="fill:#3f4788;fill-opacity:0.75;"/>
   </g>
   <g id="PathCollection_7">
    <path clip-path="url(#p407c6f23cd)" d="M 232.817033 423 
L 245.773689 423 
L 258.730345 423 
L 271.687002 423 
L 284.643658 423 
L 284.643658 402.972632 
L 284.643658 382.945263 
L 284.643658 362.917895 
L 284.643658 342.890526 
L 284.643658 322.863158 
L 284.643658 302.835789 
L 284.643658 282.808421 
L 284.643658 262.781053 
L 284.643658 251.754739 
L 280.641407 262.781053 
L 273.372018 282.808421 
L 271.687002 287.450686 
L 266.102629 302.835789 
L 258.833239 322.863158 
L 258.730345 323.146634 
L 251.56385 342.890526 
L 245.773689 358.842581 
L 244.294461 362.917895 
L 237.025072 382.945263 
L 232.817033 394.538529 
L 229.755683 402.972632 
L 222.486294 423 
z
" style="fill:#481b6d;fill-opacity:0.75;"/>
   </g>
   <g id="LineCollection_1"/>
   <g id="LineCollection_2">
    <path clip-path="url(#p407c6f23cd)" d="M 49.817866 42.48 
L 42.548477 62.507368 
L 38.467188 73.751434 
" style="fill:none;stroke:#000000;stroke-width:0.5;"/>
   </g>
   <g id="LineCollection_3">
    <path clip-path="url(#p407c6f23cd)" d="M 111.97523 42.48 
L 104.705841 62.507368 
L 103.250469 66.516958 
L 97.436452 82.534737 
L 90.293813 102.212906 
L 90.167063 102.562105 
L 83.044094 122.186081 
" style="fill:none;stroke:#000000;stroke-width:0.5;"/>
    <path clip-path="url(#p407c6f23cd)" d="M 68.212475 163.047603 
L 64.3805 173.604801 
L 61.089507 182.671579 
L 53.820118 202.698947 
L 51.423844 209.300748 
L 46.550728 222.726316 
L 39.281339 242.753684 
L 38.467188 244.996695 
" style="fill:none;stroke:#000000;stroke-width:0.5;"/>
   </g>
   <g id="LineCollection_4">
    <path clip-path="url(#p407c6f23cd)" d="M 174.132594 42.48 
L 168.033751 59.282483 
L 166.863205 62.507368 
L 159.593816 82.534737 
L 155.077095 94.97843 
L 152.324427 102.562105 
L 145.055038 122.589474 
L 142.120438 130.674377 
L 137.785649 142.616842 
L 130.51626 162.644211 
L 129.163782 166.370325 
L 123.246871 182.671579 
L 116.207126 202.066272 
L 115.977482 202.698947 
L 110.54345 217.669856 
" style="fill:none;stroke:#000000;stroke-width:0.5;"/>
    <path clip-path="url(#p407c6f23cd)" d="M 95.957489 257.854583 
L 94.169314 262.781053 
L 90.293813 273.458167 
L 86.899925 282.808421 
L 79.630536 302.835789 
L 77.337157 309.154114 
L 72.361147 322.863158 
L 65.091758 342.890526 
L 64.3805 344.850061 
L 57.822369 362.917895 
L 51.423844 380.546009 
L 50.55298 382.945263 
L 43.283591 402.972632 
L 38.467188 416.241956 
" style="fill:none;stroke:#000000;stroke-width:0.5;"/>
   </g>
   <g id="LineCollection_5">
    <path clip-path="url(#p407c6f23cd)" d="M 236.289958 42.48 
L 232.817033 52.048007 
L 229.020569 62.507368 
L 221.75118 82.534737 
L 219.860376 87.743954 
L 214.481791 102.562105 
L 207.212402 122.589474 
L 206.90372 123.439901 
L 199.943013 142.616842 
L 193.947064 159.135849 
L 192.673624 162.644211 
L 185.404235 182.671579 
L 180.990407 194.831796 
L 178.134846 202.698947 
L 175.449561 210.096983 
" style="fill:none;stroke:#000000;stroke-width:0.5;"/>
    <path clip-path="url(#p407c6f23cd)" d="M 160.617941 250.958504 
L 156.326679 262.781053 
L 155.077095 266.223691 
L 149.057289 282.808421 
L 142.120438 301.919638 
L 141.7879 302.835789 
L 134.518511 322.863158 
L 129.163782 337.615586 
L 127.249122 342.890526 
L 119.979733 362.917895 
L 116.207126 373.311533 
L 112.710344 382.945263 
L 105.440955 402.972632 
L 103.250469 409.00748 
L 98.171566 423 
" style="fill:none;stroke:#000000;stroke-width:0.5;"/>
   </g>
   <g id="LineCollection_6">
    <path clip-path="url(#p407c6f23cd)" d="M 284.643658 80.509478 
L 283.908544 82.534737 
L 276.639155 102.562105 
L 271.687002 116.205426 
L 269.369766 122.589474 
L 262.100377 142.616842 
L 258.730345 151.901373 
L 254.830988 162.644211 
L 247.561599 182.671579 
L 245.773689 187.59732 
L 240.29221 202.698947 
L 233.022821 222.726316 
L 232.817033 223.293268 
L 227.276186 238.558454 
" style="fill:none;stroke:#000000;stroke-width:0.5;"/>
    <path clip-path="url(#p407c6f23cd)" d="M 212.444567 279.419976 
L 211.214654 282.808421 
L 206.90372 294.685162 
L 203.945264 302.835789 
L 196.675875 322.863158 
L 193.947064 330.38111 
L 189.406486 342.890526 
L 182.137097 362.917895 
L 180.990407 366.077057 
L 174.867708 382.945263 
L 168.033751 401.773004 
L 167.598319 402.972632 
L 160.32893 423 
" style="fill:none;stroke:#000000;stroke-width:0.5;"/>
   </g>
   <g id="LineCollection_7">
    <path clip-path="url(#p407c6f23cd)" d="M 284.643658 251.754739 
L 280.641407 262.781053 
L 273.372018 282.808421 
L 271.687002 287.450686 
L 266.102629 302.835789 
L 258.97966 322.459765 
" style="fill:none;stroke:#000000;stroke-width:0.5;"/>
    <path clip-path="url(#p407c6f23cd)" d="M 244.148041 363.321287 
L 237.025072 382.945263 
L 232.817033 394.538529 
L 229.755683 402.972632 
L 222.486294 423 
" style="fill:none;stroke:#000000;stroke-width:0.5;"/>
   </g>
   <g id="LineCollection_8"/>
   <g id="LineCollection_9">
    <path clip-path="url(#p407c6f23cd)" d="M 62.376643 423 
L 62.376643 403.974 
" style="fill:none;stroke:#000000;stroke-width:1.5;"/>
    <path clip-path="url(#p407c6f23cd)" d="M 87.689601 423 
L 87.689601 403.974 
" style="fill:none;stroke:#000000;stroke-width:1.5;"/>
    <path clip-path="url(#p407c6f23cd)" d="M 113.201825 423 
L 113.201825 403.974 
" style="fill:none;stroke:#000000;stroke-width:1.5;"/>
    <path clip-path="url(#p407c6f23cd)" d="M 138.000114 423 
L 138.000114 403.974 
" style="fill:none;stroke:#000000;stroke-width:1.5;"/>
    <path clip-path="url(#p407c6f23cd)" d="M 168.55684 423 
L 168.55684 403.974 
" style="fill:none;stroke:#000000;stroke-width:1.5;"/>
    <path clip-path="url(#p407c6f23cd)" d="M 195.041296 423 
L 195.041296 403.974 
" style="fill:none;stroke:#000000;stroke-width:1.5;"/>
    <path clip-path="url(#p407c6f23cd)" d="M 224.763816 423 
L 224.763816 403.974 
" style="fill:none;stroke:#000000;stroke-width:1.5;"/>
    <path clip-path="url(#p407c6f23cd)" d="M 249.155523 423 
L 249.155523 403.974 
" style="fill:none;stroke:#000000;stroke-width:1.5;"/>
    <path clip-path="url(#p407c6f23cd)" d="M 270.782746 423 
L 270.782746 403.974 
" style="fill:none;stroke:#000000;stroke-width:1.5;"/>
   </g>
   <g id="LineCollection_10">
    <path clip-path="url(#p407c6f23cd)" style="fill:none;stroke:#000000;stroke-width:1.5;"/>
    <path clip-path="url(#p407c6f23cd)" style="fill:none;stroke:#000000;stroke-width:1.5;"/>
    <path clip-path="url(#p407c6f23cd)" style="fill:none;stroke:#000000;stroke-width:1.5;"/>
    <path clip-path="url(#p407c6f23cd)" style="fill:none;stroke:#000000;stroke-width:1.5;"/>
    <path clip-path="url(#p407c6f23cd)" style="fill:none;stroke:#000000;stroke-width:1.5;"/>
    <path clip-path="url(#p407c6f23cd)" style="fill:none;stroke:#000000;stroke-width:1.5;"/>
    <path clip-path="url(#p407c6f23cd)" style="fill:none;stroke:#000000;stroke-width:1.5;"/>
    <path clip-path="url(#p407c6f23cd)" style="fill:none;stroke:#000000;stroke-width:1.5;"/>
    <path clip-path="url(#p407c6f23cd)" style="fill:none;stroke:#000000;stroke-width:1.5;"/>
   </g>
   <g id="patch_3">
    <path d="M 38.467188 423 
L 38.467188 42.48 
" style="fill:none;stroke:#ffffff;stroke-linecap:square;stroke-linejoin:miter;stroke-width:0.8;"/>
   </g>
   <g id="patch_4">
    <path d="M 284.643658 423 
L 284.643658 42.48 
" style="fill:none;stroke:#ffffff;stroke-linecap:square;stroke-linejoin:miter;stroke-width:0.8;"/>
   </g>
   <g id="patch_5">
    <path d="M 38.467188 423 
L 284.643658 423 
" style="fill:none;stroke:#ffffff;stroke-linecap:square;stroke-linejoin:miter;stroke-width:0.8;"/>
   </g>
   <g id="patch_6">
    <path d="M 38.467188 42.48 
L 284.643658 42.48 
" style="fill:none;stroke:#ffffff;stroke-linecap:square;stroke-linejoin:miter;stroke-width:0.8;"/>
   </g>
   <g id="text_12">
    <g clip-path="url(#p407c6f23cd)">
     <!-- 4019.32 -->
     <g transform="translate(71.892335 160.486324)rotate(-70.050482)scale(0.1 -0.1)">
      <defs>
       <path d="M 2069 0 
L 2069 1097 
L 81 1097 
L 81 1613 
L 2172 4581 
L 2631 4581 
L 2631 1613 
L 3250 1613 
L 3250 1097 
L 2631 1097 
L 2631 0 
L 2069 0 
z
M 2069 1613 
L 2069 3678 
L 634 1613 
L 2069 1613 
z
" id="ArialMT-34" transform="scale(0.015625)"/>
       <path d="M 350 1059 
L 891 1109 
Q 959 728 1153 556 
Q 1347 384 1650 384 
Q 1909 384 2104 503 
Q 2300 622 2425 820 
Q 2550 1019 2634 1356 
Q 2719 1694 2719 2044 
Q 2719 2081 2716 2156 
Q 2547 1888 2255 1720 
Q 1963 1553 1622 1553 
Q 1053 1553 659 1965 
Q 266 2378 266 3053 
Q 266 3750 677 4175 
Q 1088 4600 1706 4600 
Q 2153 4600 2523 4359 
Q 2894 4119 3086 3673 
Q 3278 3228 3278 2384 
Q 3278 1506 3087 986 
Q 2897 466 2520 194 
Q 2144 -78 1638 -78 
Q 1100 -78 759 220 
Q 419 519 350 1059 
z
M 2653 3081 
Q 2653 3566 2395 3850 
Q 2138 4134 1775 4134 
Q 1400 4134 1122 3828 
Q 844 3522 844 3034 
Q 844 2597 1108 2323 
Q 1372 2050 1759 2050 
Q 2150 2050 2401 2323 
Q 2653 2597 2653 3081 
z
" id="ArialMT-39" transform="scale(0.015625)"/>
       <path d="M 581 0 
L 581 641 
L 1222 641 
L 1222 0 
L 581 0 
z
" id="ArialMT-2e" transform="scale(0.015625)"/>
       <path d="M 269 1209 
L 831 1284 
Q 928 806 1161 595 
Q 1394 384 1728 384 
Q 2125 384 2398 659 
Q 2672 934 2672 1341 
Q 2672 1728 2419 1979 
Q 2166 2231 1775 2231 
Q 1616 2231 1378 2169 
L 1441 2663 
Q 1497 2656 1531 2656 
Q 1891 2656 2178 2843 
Q 2466 3031 2466 3422 
Q 2466 3731 2256 3934 
Q 2047 4138 1716 4138 
Q 1388 4138 1169 3931 
Q 950 3725 888 3313 
L 325 3413 
Q 428 3978 793 4289 
Q 1159 4600 1703 4600 
Q 2078 4600 2393 4439 
Q 2709 4278 2876 4000 
Q 3044 3722 3044 3409 
Q 3044 3113 2884 2869 
Q 2725 2625 2413 2481 
Q 2819 2388 3044 2092 
Q 3269 1797 3269 1353 
Q 3269 753 2831 336 
Q 2394 -81 1725 -81 
Q 1122 -81 723 278 
Q 325 638 269 1209 
z
" id="ArialMT-33" transform="scale(0.015625)"/>
      </defs>
      <use xlink:href="#ArialMT-34"/>
      <use x="55.615234" xlink:href="#ArialMT-30"/>
      <use x="111.230469" xlink:href="#ArialMT-31"/>
      <use x="166.845703" xlink:href="#ArialMT-39"/>
      <use x="222.460938" xlink:href="#ArialMT-2e"/>
      <use x="250.244141" xlink:href="#ArialMT-33"/>
      <use x="305.859375" xlink:href="#ArialMT-32"/>
     </g>
    </g>
   </g>
   <g id="text_13">
    <g clip-path="url(#p407c6f23cd)">
     <!-- 4411.94 -->
     <g transform="translate(99.640334 255.285078)rotate(-70.050482)scale(0.1 -0.1)">
      <use xlink:href="#ArialMT-34"/>
      <use x="55.615234" xlink:href="#ArialMT-34"/>
      <use x="111.230469" xlink:href="#ArialMT-31"/>
      <use x="159.470703" xlink:href="#ArialMT-31"/>
      <use x="215.085938" xlink:href="#ArialMT-2e"/>
      <use x="242.869141" xlink:href="#ArialMT-39"/>
      <use x="298.484375" xlink:href="#ArialMT-34"/>
     </g>
    </g>
   </g>
   <g id="text_14">
    <g clip-path="url(#p407c6f23cd)">
     <!-- 4804.57 -->
     <g transform="translate(164.297801 248.397225)rotate(-70.050482)scale(0.1 -0.1)">
      <use xlink:href="#ArialMT-34"/>
      <use x="55.615234" xlink:href="#ArialMT-38"/>
      <use x="111.230469" xlink:href="#ArialMT-30"/>
      <use x="166.845703" xlink:href="#ArialMT-34"/>
      <use x="222.460938" xlink:href="#ArialMT-2e"/>
      <use x="250.244141" xlink:href="#ArialMT-35"/>
      <use x="305.859375" xlink:href="#ArialMT-37"/>
     </g>
    </g>
   </g>
   <g id="text_15">
    <g clip-path="url(#p407c6f23cd)">
     <!-- 5197.19 -->
     <g transform="translate(216.124426 276.858697)rotate(-70.050482)scale(0.1 -0.1)">
      <use xlink:href="#ArialMT-35"/>
      <use x="55.615234" xlink:href="#ArialMT-31"/>
      <use x="111.230469" xlink:href="#ArialMT-39"/>
      <use x="166.845703" xlink:href="#ArialMT-37"/>
      <use x="222.460938" xlink:href="#ArialMT-2e"/>
      <use x="250.244141" xlink:href="#ArialMT-31"/>
      <use x="305.859375" xlink:href="#ArialMT-39"/>
     </g>
    </g>
   </g>
   <g id="text_16">
    <g clip-path="url(#p407c6f23cd)">
     <!-- 5589.82 -->
     <g transform="translate(247.8279 360.760008)rotate(-70.050482)scale(0.1 -0.1)">
      <use xlink:href="#ArialMT-35"/>
      <use x="55.615234" xlink:href="#ArialMT-35"/>
      <use x="111.230469" xlink:href="#ArialMT-38"/>
      <use x="166.845703" xlink:href="#ArialMT-39"/>
      <use x="222.460938" xlink:href="#ArialMT-2e"/>
      <use x="250.244141" xlink:href="#ArialMT-38"/>
      <use x="305.859375" xlink:href="#ArialMT-32"/>
     </g>
    </g>
   </g>
  </g>
  <g id="axes_3">
   <g id="patch_7">
    <path d="M 333.878952 423 
L 580.055423 423 
L 580.055423 42.48 
L 333.878952 42.48 
z
" style="fill:#e6e6e6;"/>
   </g>
   <g id="matplotlib.axis_3">
    <g id="xtick_6">
     <g id="line2d_10">
      <path clip-path="url(#p5ad9968738)" d="M 368.139206 423 
L 368.139206 42.48 
" style="fill:none;stroke:#cccccc;stroke-linecap:round;stroke-width:0.8;"/>
     </g>
     <g id="text_17">
      <!-- 5 -->
      <g style="fill:#262626;" transform="translate(365.358738 437.157812)scale(0.1 -0.1)">
       <use xlink:href="#ArialMT-35"/>
      </g>
     </g>
    </g>
    <g id="xtick_7">
     <g id="line2d_11">
      <path clip-path="url(#p5ad9968738)" d="M 413.267249 423 
L 413.267249 42.48 
" style="fill:none;stroke:#cccccc;stroke-linecap:round;stroke-width:0.8;"/>
     </g>
     <g id="text_18">
      <!-- 10 -->
      <g style="fill:#262626;" transform="translate(407.706311 437.157812)scale(0.1 -0.1)">
       <use xlink:href="#ArialMT-31"/>
       <use x="55.615234" xlink:href="#ArialMT-30"/>
      </g>
     </g>
    </g>
    <g id="xtick_8">
     <g id="line2d_12">
      <path clip-path="url(#p5ad9968738)" d="M 458.395291 423 
L 458.395291 42.48 
" style="fill:none;stroke:#cccccc;stroke-linecap:round;stroke-width:0.8;"/>
     </g>
     <g id="text_19">
      <!-- 15 -->
      <g style="fill:#262626;" transform="translate(452.834354 437.157812)scale(0.1 -0.1)">
       <use xlink:href="#ArialMT-31"/>
       <use x="55.615234" xlink:href="#ArialMT-35"/>
      </g>
     </g>
    </g>
    <g id="xtick_9">
     <g id="line2d_13">
      <path clip-path="url(#p5ad9968738)" d="M 503.523333 423 
L 503.523333 42.48 
" style="fill:none;stroke:#cccccc;stroke-linecap:round;stroke-width:0.8;"/>
     </g>
     <g id="text_20">
      <!-- 20 -->
      <g style="fill:#262626;" transform="translate(497.962396 437.157812)scale(0.1 -0.1)">
       <use xlink:href="#ArialMT-32"/>
       <use x="55.615234" xlink:href="#ArialMT-30"/>
      </g>
     </g>
    </g>
    <g id="xtick_10">
     <g id="line2d_14">
      <path clip-path="url(#p5ad9968738)" d="M 548.651376 423 
L 548.651376 42.48 
" style="fill:none;stroke:#cccccc;stroke-linecap:round;stroke-width:0.8;"/>
     </g>
     <g id="text_21">
      <!-- 25 -->
      <g style="fill:#262626;" transform="translate(543.090438 437.157812)scale(0.1 -0.1)">
       <use xlink:href="#ArialMT-32"/>
       <use x="55.615234" xlink:href="#ArialMT-35"/>
      </g>
     </g>
    </g>
    <g id="text_22">
     <!-- temp -->
     <g style="fill:#262626;" transform="translate(445.852344 450.303125)scale(0.1 -0.1)">
      <use xlink:href="#ArialMT-74"/>
      <use x="27.783203" xlink:href="#ArialMT-65"/>
      <use x="83.398438" xlink:href="#ArialMT-6d"/>
      <use x="166.699219" xlink:href="#ArialMT-70"/>
     </g>
    </g>
   </g>
   <g id="matplotlib.axis_4">
    <g id="ytick_5">
     <g id="line2d_15">
      <path clip-path="url(#p5ad9968738)" d="M 333.878952 413.89426 
L 580.055423 413.89426 
" style="fill:none;stroke:#cccccc;stroke-linecap:round;stroke-width:0.8;"/>
     </g>
     <g id="text_23">
      <!-- 6 -->
      <g style="fill:#262626;" transform="translate(321.318015 417.473166)scale(0.1 -0.1)">
       <use xlink:href="#ArialMT-36"/>
      </g>
     </g>
    </g>
    <g id="ytick_6">
     <g id="line2d_16">
      <path clip-path="url(#p5ad9968738)" d="M 333.878952 370.133288 
L 580.055423 370.133288 
" style="fill:none;stroke:#cccccc;stroke-linecap:round;stroke-width:0.8;"/>
     </g>
     <g id="text_24">
      <!-- 8 -->
      <g style="fill:#262626;" transform="translate(321.318015 373.712194)scale(0.1 -0.1)">
       <use xlink:href="#ArialMT-38"/>
      </g>
     </g>
    </g>
    <g id="ytick_7">
     <g id="line2d_17">
      <path clip-path="url(#p5ad9968738)" d="M 333.878952 326.372316 
L 580.055423 326.372316 
" style="fill:none;stroke:#cccccc;stroke-linecap:round;stroke-width:0.8;"/>
     </g>
     <g id="text_25">
      <!-- 10 -->
      <g style="fill:#262626;" transform="translate(315.757077 329.951222)scale(0.1 -0.1)">
       <use xlink:href="#ArialMT-31"/>
       <use x="55.615234" xlink:href="#ArialMT-30"/>
      </g>
     </g>
    </g>
    <g id="ytick_8">
     <g id="line2d_18">
      <path clip-path="url(#p5ad9968738)" d="M 333.878952 282.611344 
L 580.055423 282.611344 
" style="fill:none;stroke:#cccccc;stroke-linecap:round;stroke-width:0.8;"/>
     </g>
     <g id="text_26">
      <!-- 12 -->
      <g style="fill:#262626;" transform="translate(315.757077 286.19025)scale(0.1 -0.1)">
       <use xlink:href="#ArialMT-31"/>
       <use x="55.615234" xlink:href="#ArialMT-32"/>
      </g>
     </g>
    </g>
    <g id="ytick_9">
     <g id="line2d_19">
      <path clip-path="url(#p5ad9968738)" d="M 333.878952 238.850372 
L 580.055423 238.850372 
" style="fill:none;stroke:#cccccc;stroke-linecap:round;stroke-width:0.8;"/>
     </g>
     <g id="text_27">
      <!-- 14 -->
      <g style="fill:#262626;" transform="translate(315.757077 242.429279)scale(0.1 -0.1)">
       <use xlink:href="#ArialMT-31"/>
       <use x="55.615234" xlink:href="#ArialMT-34"/>
      </g>
     </g>
    </g>
    <g id="ytick_10">
     <g id="line2d_20">
      <path clip-path="url(#p5ad9968738)" d="M 333.878952 195.0894 
L 580.055423 195.0894 
" style="fill:none;stroke:#cccccc;stroke-linecap:round;stroke-width:0.8;"/>
     </g>
     <g id="text_28">
      <!-- 16 -->
      <g style="fill:#262626;" transform="translate(315.757077 198.668307)scale(0.1 -0.1)">
       <use xlink:href="#ArialMT-31"/>
       <use x="55.615234" xlink:href="#ArialMT-36"/>
      </g>
     </g>
    </g>
    <g id="ytick_11">
     <g id="line2d_21">
      <path clip-path="url(#p5ad9968738)" d="M 333.878952 151.328428 
L 580.055423 151.328428 
" style="fill:none;stroke:#cccccc;stroke-linecap:round;stroke-width:0.8;"/>
     </g>
     <g id="text_29">
      <!-- 18 -->
      <g style="fill:#262626;" transform="translate(315.757077 154.907335)scale(0.1 -0.1)">
       <use xlink:href="#ArialMT-31"/>
       <use x="55.615234" xlink:href="#ArialMT-38"/>
      </g>
     </g>
    </g>
    <g id="ytick_12">
     <g id="line2d_22">
      <path clip-path="url(#p5ad9968738)" d="M 333.878952 107.567456 
L 580.055423 107.567456 
" style="fill:none;stroke:#cccccc;stroke-linecap:round;stroke-width:0.8;"/>
     </g>
     <g id="text_30">
      <!-- 20 -->
      <g style="fill:#262626;" transform="translate(315.757077 111.146363)scale(0.1 -0.1)">
       <use xlink:href="#ArialMT-32"/>
       <use x="55.615234" xlink:href="#ArialMT-30"/>
      </g>
     </g>
    </g>
    <g id="ytick_13">
     <g id="line2d_23">
      <path clip-path="url(#p5ad9968738)" d="M 333.878952 63.806484 
L 580.055423 63.806484 
" style="fill:none;stroke:#cccccc;stroke-linecap:round;stroke-width:0.8;"/>
     </g>
     <g id="text_31">
      <!-- 22 -->
      <g style="fill:#262626;" transform="translate(315.757077 67.385391)scale(0.1 -0.1)">
       <use xlink:href="#ArialMT-32"/>
       <use x="55.615234" xlink:href="#ArialMT-32"/>
      </g>
     </g>
    </g>
    <g id="text_32">
     <!-- windspeed -->
     <g style="fill:#262626;" transform="translate(309.769577 256.644687)rotate(-90)scale(0.1 -0.1)">
      <defs>
       <path d="M 1034 0 
L 19 3319 
L 600 3319 
L 1128 1403 
L 1325 691 
Q 1338 744 1497 1375 
L 2025 3319 
L 2603 3319 
L 3100 1394 
L 3266 759 
L 3456 1400 
L 4025 3319 
L 4572 3319 
L 3534 0 
L 2950 0 
L 2422 1988 
L 2294 2553 
L 1622 0 
L 1034 0 
z
" id="ArialMT-77" transform="scale(0.015625)"/>
       <path d="M 425 3934 
L 425 4581 
L 988 4581 
L 988 3934 
L 425 3934 
z
M 425 0 
L 425 3319 
L 988 3319 
L 988 0 
L 425 0 
z
" id="ArialMT-69" transform="scale(0.015625)"/>
       <path d="M 422 0 
L 422 3319 
L 928 3319 
L 928 2847 
Q 1294 3394 1984 3394 
Q 2284 3394 2536 3286 
Q 2788 3178 2913 3003 
Q 3038 2828 3088 2588 
Q 3119 2431 3119 2041 
L 3119 0 
L 2556 0 
L 2556 2019 
Q 2556 2363 2490 2533 
Q 2425 2703 2258 2804 
Q 2091 2906 1866 2906 
Q 1506 2906 1245 2678 
Q 984 2450 984 1813 
L 984 0 
L 422 0 
z
" id="ArialMT-6e" transform="scale(0.015625)"/>
       <path d="M 2575 0 
L 2575 419 
Q 2259 -75 1647 -75 
Q 1250 -75 917 144 
Q 584 363 401 755 
Q 219 1147 219 1656 
Q 219 2153 384 2558 
Q 550 2963 881 3178 
Q 1213 3394 1622 3394 
Q 1922 3394 2156 3267 
Q 2391 3141 2538 2938 
L 2538 4581 
L 3097 4581 
L 3097 0 
L 2575 0 
z
M 797 1656 
Q 797 1019 1065 703 
Q 1334 388 1700 388 
Q 2069 388 2326 689 
Q 2584 991 2584 1609 
Q 2584 2291 2321 2609 
Q 2059 2928 1675 2928 
Q 1300 2928 1048 2622 
Q 797 2316 797 1656 
z
" id="ArialMT-64" transform="scale(0.015625)"/>
       <path d="M 197 991 
L 753 1078 
Q 800 744 1014 566 
Q 1228 388 1613 388 
Q 2000 388 2187 545 
Q 2375 703 2375 916 
Q 2375 1106 2209 1216 
Q 2094 1291 1634 1406 
Q 1016 1563 777 1677 
Q 538 1791 414 1992 
Q 291 2194 291 2438 
Q 291 2659 392 2848 
Q 494 3038 669 3163 
Q 800 3259 1026 3326 
Q 1253 3394 1513 3394 
Q 1903 3394 2198 3281 
Q 2494 3169 2634 2976 
Q 2775 2784 2828 2463 
L 2278 2388 
Q 2241 2644 2061 2787 
Q 1881 2931 1553 2931 
Q 1166 2931 1000 2803 
Q 834 2675 834 2503 
Q 834 2394 903 2306 
Q 972 2216 1119 2156 
Q 1203 2125 1616 2013 
Q 2213 1853 2448 1751 
Q 2684 1650 2818 1456 
Q 2953 1263 2953 975 
Q 2953 694 2789 445 
Q 2625 197 2315 61 
Q 2006 -75 1616 -75 
Q 969 -75 630 194 
Q 291 463 197 991 
z
" id="ArialMT-73" transform="scale(0.015625)"/>
      </defs>
      <use xlink:href="#ArialMT-77"/>
      <use x="72.216797" xlink:href="#ArialMT-69"/>
      <use x="94.433594" xlink:href="#ArialMT-6e"/>
      <use x="150.048828" xlink:href="#ArialMT-64"/>
      <use x="205.664062" xlink:href="#ArialMT-73"/>
      <use x="255.664062" xlink:href="#ArialMT-70"/>
      <use x="311.279297" xlink:href="#ArialMT-65"/>
      <use x="366.894531" xlink:href="#ArialMT-65"/>
      <use x="422.509766" xlink:href="#ArialMT-64"/>
     </g>
    </g>
   </g>
   <g id="PathCollection_8">
    <path clip-path="url(#p5ad9968738)" d="M 337.221276 82.534737 
L 343.169517 62.507368 
L 346.835609 50.163857 
L 349.117757 42.48 
L 346.835609 42.48 
L 333.878952 42.48 
L 333.878952 62.507368 
L 333.878952 82.534737 
L 333.878952 93.788142 
z
" style="fill:#d0e11c;fill-opacity:0.75;"/>
   </g>
   <g id="PathCollection_9">
    <path clip-path="url(#p5ad9968738)" d="M 333.947997 302.835789 
L 339.896237 282.808421 
L 345.844478 262.781053 
L 346.835609 259.443974 
L 351.792718 242.753684 
L 357.740958 222.726316 
L 359.792265 215.819689 
L 363.689199 202.698947 
L 369.637439 182.671579 
L 372.748921 172.195404 
L 375.585679 162.644211 
L 381.533919 142.616842 
L 385.705578 128.571119 
L 387.48216 122.589474 
L 393.4304 102.562105 
L 398.662234 84.946834 
L 399.37864 82.534737 
L 405.326881 62.507368 
L 411.275121 42.48 
L 398.662234 42.48 
L 385.705578 42.48 
L 372.748921 42.48 
L 359.792265 42.48 
L 349.117757 42.48 
L 346.835609 50.163857 
L 343.169517 62.507368 
L 337.221276 82.534737 
L 333.878952 93.788142 
L 333.878952 102.562105 
L 333.878952 122.589474 
L 333.878952 142.616842 
L 333.878952 162.644211 
L 333.878952 182.671579 
L 333.878952 202.698947 
L 333.878952 222.726316 
L 333.878952 242.753684 
L 333.878952 262.781053 
L 333.878952 282.808421 
L 333.878952 302.835789 
L 333.878952 303.068259 
z
" style="fill:#73d056;fill-opacity:0.75;"/>
   </g>
   <g id="PathCollection_10">
    <path clip-path="url(#p5ad9968738)" d="M 346.835609 423 
L 359.792265 423 
L 360.415919 423 
L 366.364159 402.972632 
L 372.3124 382.945263 
L 372.748921 381.475522 
L 378.26064 362.917895 
L 384.20888 342.890526 
L 385.705578 337.851237 
L 390.157121 322.863158 
L 396.105361 302.835789 
L 398.662234 294.226952 
L 402.053601 282.808421 
L 408.001842 262.781053 
L 411.61889 250.602667 
L 413.950082 242.753684 
L 419.898322 222.726316 
L 424.575547 206.978382 
L 425.846563 202.698947 
L 431.794803 182.671579 
L 437.532203 163.354097 
L 437.743043 162.644211 
L 443.691284 142.616842 
L 449.639524 122.589474 
L 450.488859 119.729812 
L 455.587764 102.562105 
L 461.536004 82.534737 
L 463.445516 76.105527 
L 467.484245 62.507368 
L 473.432485 42.48 
L 463.445516 42.48 
L 450.488859 42.48 
L 437.532203 42.48 
L 424.575547 42.48 
L 411.61889 42.48 
L 411.275121 42.48 
L 405.326881 62.507368 
L 399.37864 82.534737 
L 398.662234 84.946834 
L 393.4304 102.562105 
L 387.48216 122.589474 
L 385.705578 128.571119 
L 381.533919 142.616842 
L 375.585679 162.644211 
L 372.748921 172.195404 
L 369.637439 182.671579 
L 363.689199 202.698947 
L 359.792265 215.819689 
L 357.740958 222.726316 
L 351.792718 242.753684 
L 346.835609 259.443974 
L 345.844478 262.781053 
L 339.896237 282.808421 
L 333.947997 302.835789 
L 333.878952 303.068259 
L 333.878952 322.863158 
L 333.878952 342.890526 
L 333.878952 362.917895 
L 333.878952 382.945263 
L 333.878952 402.972632 
L 333.878952 423 
z
" style="fill:#2db27d;fill-opacity:0.75;"/>
   </g>
   <g id="PathCollection_11">
    <path clip-path="url(#p5ad9968738)" d="M 372.748921 423 
L 385.705578 423 
L 398.662234 423 
L 411.61889 423 
L 422.573283 423 
L 424.575547 416.258499 
L 428.521524 402.972632 
L 434.469764 382.945263 
L 437.532203 372.634214 
L 440.418004 362.917895 
L 446.366245 342.890526 
L 450.488859 329.00993 
L 452.314485 322.863158 
L 458.262725 302.835789 
L 463.445516 285.385645 
L 464.210965 282.808421 
L 470.159206 262.781053 
L 476.107446 242.753684 
L 476.402172 241.76136 
L 482.055686 222.726316 
L 488.003927 202.698947 
L 489.358828 198.137075 
L 493.952167 182.671579 
L 499.900407 162.644211 
L 502.315485 154.51279 
L 505.848648 142.616842 
L 511.796888 122.589474 
L 515.272141 110.888505 
L 517.745128 102.562105 
L 523.693369 82.534737 
L 528.228797 67.26422 
L 529.641609 62.507368 
L 535.589849 42.48 
L 528.228797 42.48 
L 515.272141 42.48 
L 502.315485 42.48 
L 489.358828 42.48 
L 476.402172 42.48 
L 473.432485 42.48 
L 467.484245 62.507368 
L 463.445516 76.105527 
L 461.536004 82.534737 
L 455.587764 102.562105 
L 450.488859 119.729812 
L 449.639524 122.589474 
L 443.691284 142.616842 
L 437.743043 162.644211 
L 437.532203 163.354097 
L 431.794803 182.671579 
L 425.846563 202.698947 
L 424.575547 206.978382 
L 419.898322 222.726316 
L 413.950082 242.753684 
L 411.61889 250.602667 
L 408.001842 262.781053 
L 402.053601 282.808421 
L 398.662234 294.226952 
L 396.105361 302.835789 
L 390.157121 322.863158 
L 385.705578 337.851237 
L 384.20888 342.890526 
L 378.26064 362.917895 
L 372.748921 381.475522 
L 372.3124 382.945263 
L 366.364159 402.972632 
L 360.415919 423 
z
" style="fill:#21918c;fill-opacity:0.75;"/>
   </g>
   <g id="PathCollection_12">
    <path clip-path="url(#p5ad9968738)" d="M 424.575547 423 
L 437.532203 423 
L 450.488859 423 
L 463.445516 423 
L 476.402172 423 
L 484.730647 423 
L 489.358828 407.417192 
L 490.678888 402.972632 
L 496.627128 382.945263 
L 502.315485 363.792907 
L 502.575368 362.917895 
L 508.523609 342.890526 
L 514.471849 322.863158 
L 515.272141 320.168622 
L 520.420089 302.835789 
L 526.36833 282.808421 
L 528.228797 276.544337 
L 532.31657 262.781053 
L 538.26481 242.753684 
L 541.185454 232.920052 
L 544.21305 222.726316 
L 550.161291 202.698947 
L 554.14211 189.295768 
L 556.109531 182.671579 
L 562.057771 162.644211 
L 567.098766 145.671483 
L 568.006012 142.616842 
L 573.954252 122.589474 
L 579.902492 102.562105 
L 580.055423 102.047198 
L 580.055423 82.534737 
L 580.055423 62.507368 
L 580.055423 42.48 
L 567.098766 42.48 
L 554.14211 42.48 
L 541.185454 42.48 
L 535.589849 42.48 
L 529.641609 62.507368 
L 528.228797 67.26422 
L 523.693369 82.534737 
L 517.745128 102.562105 
L 515.272141 110.888505 
L 511.796888 122.589474 
L 505.848648 142.616842 
L 502.315485 154.51279 
L 499.900407 162.644211 
L 493.952167 182.671579 
L 489.358828 198.137075 
L 488.003927 202.698947 
L 482.055686 222.726316 
L 476.402172 241.76136 
L 476.107446 242.753684 
L 470.159206 262.781053 
L 464.210965 282.808421 
L 463.445516 285.385645 
L 458.262725 302.835789 
L 452.314485 322.863158 
L 450.488859 329.00993 
L 446.366245 342.890526 
L 440.418004 362.917895 
L 437.532203 372.634214 
L 434.469764 382.945263 
L 428.521524 402.972632 
L 424.575547 416.258499 
L 422.573283 423 
z
" style="fill:#2e6e8e;fill-opacity:0.75;"/>
   </g>
   <g id="PathCollection_13">
    <path clip-path="url(#p5ad9968738)" d="M 489.358828 423 
L 502.315485 423 
L 515.272141 423 
L 528.228797 423 
L 541.185454 423 
L 546.888011 423 
L 552.836252 402.972632 
L 554.14211 398.575885 
L 558.784492 382.945263 
L 564.732732 362.917895 
L 567.098766 354.9516 
L 570.680973 342.890526 
L 576.629213 322.863158 
L 580.055423 311.327315 
L 580.055423 302.835789 
L 580.055423 282.808421 
L 580.055423 262.781053 
L 580.055423 242.753684 
L 580.055423 222.726316 
L 580.055423 202.698947 
L 580.055423 182.671579 
L 580.055423 162.644211 
L 580.055423 142.616842 
L 580.055423 122.589474 
L 580.055423 102.562105 
L 580.055423 102.047198 
L 579.902492 102.562105 
L 573.954252 122.589474 
L 568.006012 142.616842 
L 567.098766 145.671483 
L 562.057771 162.644211 
L 556.109531 182.671579 
L 554.14211 189.295768 
L 550.161291 202.698947 
L 544.21305 222.726316 
L 541.185454 232.920052 
L 538.26481 242.753684 
L 532.31657 262.781053 
L 528.228797 276.544337 
L 526.36833 282.808421 
L 520.420089 302.835789 
L 515.272141 320.168622 
L 514.471849 322.863158 
L 508.523609 342.890526 
L 502.575368 362.917895 
L 502.315485 363.792907 
L 496.627128 382.945263 
L 490.678888 402.972632 
L 489.358828 407.417192 
L 484.730647 423 
z
" style="fill:#3f4788;fill-opacity:0.75;"/>
   </g>
   <g id="PathCollection_14">
    <path clip-path="url(#p5ad9968738)" d="M 554.14211 423 
L 567.098766 423 
L 580.055423 423 
L 580.055423 402.972632 
L 580.055423 382.945263 
L 580.055423 362.917895 
L 580.055423 342.890526 
L 580.055423 322.863158 
L 580.055423 311.327315 
L 576.629213 322.863158 
L 570.680973 342.890526 
L 567.098766 354.9516 
L 564.732732 362.917895 
L 558.784492 382.945263 
L 554.14211 398.575885 
L 552.836252 402.972632 
L 546.888011 423 
z
" style="fill:#481b6d;fill-opacity:0.75;"/>
   </g>
   <g id="LineCollection_11"/>
   <g id="LineCollection_12">
    <path clip-path="url(#p5ad9968738)" d="M 336.981272 83.342816 
L 333.878952 93.788142 
" style="fill:none;stroke:#000000;stroke-width:0.5;"/>
   </g>
   <g id="LineCollection_13">
    <path clip-path="url(#p5ad9968738)" d="M 411.275121 42.48 
L 405.326881 62.507368 
L 399.37864 82.534737 
L 398.662234 84.946834 
L 393.4304 102.562105 
L 387.48216 122.589474 
L 385.705578 128.571119 
L 381.533919 142.616842 
L 375.825683 161.836132 
" style="fill:none;stroke:#000000;stroke-width:0.5;"/>
    <path clip-path="url(#p5ad9968738)" d="M 363.449195 203.507026 
L 359.792265 215.819689 
L 357.740958 222.726316 
L 351.792718 242.753684 
L 346.835609 259.443974 
L 345.844478 262.781053 
L 339.896237 282.808421 
L 333.947997 302.835789 
L 333.878952 303.068259 
" style="fill:none;stroke:#000000;stroke-width:0.5;"/>
   </g>
   <g id="LineCollection_14">
    <path clip-path="url(#p5ad9968738)" d="M 473.432485 42.48 
L 467.484245 62.507368 
L 463.445516 76.105527 
L 461.536004 82.534737 
L 455.587764 102.562105 
L 450.488859 119.729812 
L 449.639524 122.589474 
L 443.691284 142.616842 
L 437.743043 162.644211 
L 437.532203 163.354097 
L 431.794803 182.671579 
L 425.846563 202.698947 
L 424.575547 206.978382 
L 420.035829 222.263338 
" style="fill:none;stroke:#000000;stroke-width:0.5;"/>
    <path clip-path="url(#p5ad9968738)" d="M 407.864335 263.244031 
L 402.053601 282.808421 
L 398.662234 294.226952 
L 396.105361 302.835789 
L 390.157121 322.863158 
L 385.705578 337.851237 
L 384.20888 342.890526 
L 378.26064 362.917895 
L 372.748921 381.475522 
L 372.3124 382.945263 
L 366.364159 402.972632 
L 360.415919 423 
" style="fill:none;stroke:#000000;stroke-width:0.5;"/>
   </g>
   <g id="LineCollection_15">
    <path clip-path="url(#p5ad9968738)" d="M 535.589849 42.48 
L 529.641609 62.507368 
L 528.228797 67.26422 
L 523.693369 82.534737 
L 517.745128 102.562105 
L 515.272141 110.888505 
L 511.796888 122.589474 
L 505.848648 142.616842 
L 502.315485 154.51279 
L 499.900407 162.644211 
L 493.952167 182.671579 
L 489.358828 198.137075 
L 488.003927 202.698947 
L 482.590416 220.925912 
" style="fill:none;stroke:#000000;stroke-width:0.5;"/>
    <path clip-path="url(#p5ad9968738)" d="M 470.213928 262.596807 
L 470.159206 262.781053 
L 464.210965 282.808421 
L 463.445516 285.385645 
L 458.262725 302.835789 
L 452.314485 322.863158 
L 450.488859 329.00993 
L 446.366245 342.890526 
L 440.418004 362.917895 
L 437.532203 372.634214 
L 434.469764 382.945263 
L 428.521524 402.972632 
L 424.575547 416.258499 
L 422.573283 423 
" style="fill:none;stroke:#000000;stroke-width:0.5;"/>
   </g>
   <g id="LineCollection_16">
    <path clip-path="url(#p5ad9968738)" d="M 580.055423 102.047198 
L 579.902492 102.562105 
L 573.954252 122.589474 
L 568.006012 142.616842 
L 567.098766 145.671483 
L 562.057771 162.644211 
L 556.109531 182.671579 
L 554.14211 189.295768 
L 550.161291 202.698947 
L 544.21305 222.726316 
L 541.185454 232.920052 
L 538.504814 241.945605 
" style="fill:none;stroke:#000000;stroke-width:0.5;"/>
    <path clip-path="url(#p5ad9968738)" d="M 526.128326 283.6165 
L 520.420089 302.835789 
L 515.272141 320.168622 
L 514.471849 322.863158 
L 508.523609 342.890526 
L 502.575368 362.917895 
L 502.315485 363.792907 
L 496.627128 382.945263 
L 490.678888 402.972632 
L 489.358828 407.417192 
L 484.730647 423 
" style="fill:none;stroke:#000000;stroke-width:0.5;"/>
   </g>
   <g id="LineCollection_17">
    <path clip-path="url(#p5ad9968738)" d="M 580.055423 311.327315 
L 576.629213 322.863158 
L 570.920977 342.082448 
" style="fill:none;stroke:#000000;stroke-width:0.5;"/>
    <path clip-path="url(#p5ad9968738)" d="M 558.544488 383.753342 
L 554.14211 398.575885 
L 552.836252 402.972632 
L 546.888011 423 
" style="fill:none;stroke:#000000;stroke-width:0.5;"/>
   </g>
   <g id="LineCollection_18"/>
   <g id="LineCollection_19">
    <path clip-path="url(#p5ad9968738)" d="M 357.788407 423 
L 357.788407 403.974 
" style="fill:none;stroke:#000000;stroke-width:1.5;"/>
    <path clip-path="url(#p5ad9968738)" d="M 383.101366 423 
L 383.101366 403.974 
" style="fill:none;stroke:#000000;stroke-width:1.5;"/>
    <path clip-path="url(#p5ad9968738)" d="M 408.61359 423 
L 408.61359 403.974 
" style="fill:none;stroke:#000000;stroke-width:1.5;"/>
    <path clip-path="url(#p5ad9968738)" d="M 433.411879 423 
L 433.411879 403.974 
" style="fill:none;stroke:#000000;stroke-width:1.5;"/>
    <path clip-path="url(#p5ad9968738)" d="M 463.968604 423 
L 463.968604 403.974 
" style="fill:none;stroke:#000000;stroke-width:1.5;"/>
    <path clip-path="url(#p5ad9968738)" d="M 490.45306 423 
L 490.45306 403.974 
" style="fill:none;stroke:#000000;stroke-width:1.5;"/>
    <path clip-path="url(#p5ad9968738)" d="M 520.175581 423 
L 520.175581 403.974 
" style="fill:none;stroke:#000000;stroke-width:1.5;"/>
    <path clip-path="url(#p5ad9968738)" d="M 544.567288 423 
L 544.567288 403.974 
" style="fill:none;stroke:#000000;stroke-width:1.5;"/>
    <path clip-path="url(#p5ad9968738)" d="M 566.194511 423 
L 566.194511 403.974 
" style="fill:none;stroke:#000000;stroke-width:1.5;"/>
   </g>
   <g id="LineCollection_20">
    <path clip-path="url(#p5ad9968738)" style="fill:none;stroke:#000000;stroke-width:1.5;"/>
    <path clip-path="url(#p5ad9968738)" style="fill:none;stroke:#000000;stroke-width:1.5;"/>
    <path clip-path="url(#p5ad9968738)" style="fill:none;stroke:#000000;stroke-width:1.5;"/>
    <path clip-path="url(#p5ad9968738)" style="fill:none;stroke:#000000;stroke-width:1.5;"/>
    <path clip-path="url(#p5ad9968738)" style="fill:none;stroke:#000000;stroke-width:1.5;"/>
    <path clip-path="url(#p5ad9968738)" style="fill:none;stroke:#000000;stroke-width:1.5;"/>
    <path clip-path="url(#p5ad9968738)" style="fill:none;stroke:#000000;stroke-width:1.5;"/>
    <path clip-path="url(#p5ad9968738)" style="fill:none;stroke:#000000;stroke-width:1.5;"/>
    <path clip-path="url(#p5ad9968738)" style="fill:none;stroke:#000000;stroke-width:1.5;"/>
   </g>
   <g id="patch_8">
    <path d="M 333.878952 423 
L 333.878952 42.48 
" style="fill:none;stroke:#ffffff;stroke-linecap:square;stroke-linejoin:miter;stroke-width:0.8;"/>
   </g>
   <g id="patch_9">
    <path d="M 580.055423 423 
L 580.055423 42.48 
" style="fill:none;stroke:#ffffff;stroke-linecap:square;stroke-linejoin:miter;stroke-width:0.8;"/>
   </g>
   <g id="patch_10">
    <path d="M 333.878952 423 
L 580.055423 423 
" style="fill:none;stroke:#ffffff;stroke-linecap:square;stroke-linejoin:miter;stroke-width:0.8;"/>
   </g>
   <g id="patch_11">
    <path d="M 333.878952 42.48 
L 580.055423 42.48 
" style="fill:none;stroke:#ffffff;stroke-linecap:square;stroke-linejoin:miter;stroke-width:0.8;"/>
   </g>
   <g id="text_33">
    <g clip-path="url(#p5ad9968738)">
     <!-- 3626.69 -->
     <g transform="translate(340.502377 80.567326)rotate(-73.458286)scale(0.1 -0.1)">
      <use xlink:href="#ArialMT-33"/>
      <use x="55.615234" xlink:href="#ArialMT-36"/>
      <use x="111.230469" xlink:href="#ArialMT-32"/>
      <use x="166.845703" xlink:href="#ArialMT-36"/>
      <use x="222.460938" xlink:href="#ArialMT-2e"/>
      <use x="250.244141" xlink:href="#ArialMT-36"/>
      <use x="305.859375" xlink:href="#ArialMT-39"/>
     </g>
    </g>
   </g>
   <g id="text_34">
    <g clip-path="url(#p5ad9968738)">
     <!-- 4019.32 -->
     <g transform="translate(366.970299 200.731536)rotate(-73.458286)scale(0.1 -0.1)">
      <use xlink:href="#ArialMT-34"/>
      <use x="55.615234" xlink:href="#ArialMT-30"/>
      <use x="111.230469" xlink:href="#ArialMT-31"/>
      <use x="166.845703" xlink:href="#ArialMT-39"/>
      <use x="222.460938" xlink:href="#ArialMT-2e"/>
      <use x="250.244141" xlink:href="#ArialMT-33"/>
      <use x="305.859375" xlink:href="#ArialMT-32"/>
     </g>
    </g>
   </g>
   <g id="text_35">
    <g clip-path="url(#p5ad9968738)">
     <!-- 4411.94 -->
     <g transform="translate(411.38793 260.460153)rotate(-73.458286)scale(0.1 -0.1)">
      <use xlink:href="#ArialMT-34"/>
      <use x="55.615234" xlink:href="#ArialMT-34"/>
      <use x="111.230469" xlink:href="#ArialMT-31"/>
      <use x="159.470703" xlink:href="#ArialMT-31"/>
      <use x="215.085938" xlink:href="#ArialMT-2e"/>
      <use x="242.869141" xlink:href="#ArialMT-39"/>
      <use x="298.484375" xlink:href="#ArialMT-34"/>
     </g>
    </g>
   </g>
   <g id="text_36">
    <g clip-path="url(#p5ad9968738)">
     <!-- 4804.57 -->
     <g transform="translate(473.735032 259.821317)rotate(-73.458286)scale(0.1 -0.1)">
      <use xlink:href="#ArialMT-34"/>
      <use x="55.615234" xlink:href="#ArialMT-38"/>
      <use x="111.230469" xlink:href="#ArialMT-30"/>
      <use x="166.845703" xlink:href="#ArialMT-34"/>
      <use x="222.460938" xlink:href="#ArialMT-2e"/>
      <use x="250.244141" xlink:href="#ArialMT-35"/>
      <use x="305.859375" xlink:href="#ArialMT-37"/>
     </g>
    </g>
   </g>
   <g id="text_37">
    <g clip-path="url(#p5ad9968738)">
     <!-- 5197.19 -->
     <g transform="translate(529.64943 280.84101)rotate(-73.458286)scale(0.1 -0.1)">
      <use xlink:href="#ArialMT-35"/>
      <use x="55.615234" xlink:href="#ArialMT-31"/>
      <use x="111.230469" xlink:href="#ArialMT-39"/>
      <use x="166.845703" xlink:href="#ArialMT-37"/>
      <use x="222.460938" xlink:href="#ArialMT-2e"/>
      <use x="250.244141" xlink:href="#ArialMT-31"/>
      <use x="305.859375" xlink:href="#ArialMT-39"/>
     </g>
    </g>
   </g>
   <g id="text_38">
    <g clip-path="url(#p5ad9968738)">
     <!-- 5589.82 -->
     <g transform="translate(562.065592 380.977852)rotate(-73.458286)scale(0.1 -0.1)">
      <use xlink:href="#ArialMT-35"/>
      <use x="55.615234" xlink:href="#ArialMT-35"/>
      <use x="111.230469" xlink:href="#ArialMT-38"/>
      <use x="166.845703" xlink:href="#ArialMT-39"/>
      <use x="222.460938" xlink:href="#ArialMT-2e"/>
      <use x="250.244141" xlink:href="#ArialMT-38"/>
      <use x="305.859375" xlink:href="#ArialMT-32"/>
     </g>
    </g>
   </g>
  </g>
  <g id="axes_4">
   <g id="patch_12">
    <path d="M 629.290717 423 
L 875.467188 423 
L 875.467188 42.48 
L 629.290717 42.48 
z
" style="fill:#e6e6e6;"/>
   </g>
   <g id="matplotlib.axis_5">
    <g id="xtick_11">
     <g id="line2d_24">
      <path clip-path="url(#p37bdca0eee)" d="M 681.184606 423 
L 681.184606 42.48 
" style="fill:none;stroke:#cccccc;stroke-linecap:round;stroke-width:0.8;"/>
     </g>
     <g id="text_39">
      <!-- 50 -->
      <g style="fill:#262626;" transform="translate(675.623668 437.157812)scale(0.1 -0.1)">
       <use xlink:href="#ArialMT-35"/>
       <use x="55.615234" xlink:href="#ArialMT-30"/>
      </g>
     </g>
    </g>
    <g id="xtick_12">
     <g id="line2d_25">
      <path clip-path="url(#p37bdca0eee)" d="M 733.343529 423 
L 733.343529 42.48 
" style="fill:none;stroke:#cccccc;stroke-linecap:round;stroke-width:0.8;"/>
     </g>
     <g id="text_40">
      <!-- 60 -->
      <g style="fill:#262626;" transform="translate(727.782592 437.157812)scale(0.1 -0.1)">
       <use xlink:href="#ArialMT-36"/>
       <use x="55.615234" xlink:href="#ArialMT-30"/>
      </g>
     </g>
    </g>
    <g id="xtick_13">
     <g id="line2d_26">
      <path clip-path="url(#p37bdca0eee)" d="M 785.502453 423 
L 785.502453 42.48 
" style="fill:none;stroke:#cccccc;stroke-linecap:round;stroke-width:0.8;"/>
     </g>
     <g id="text_41">
      <!-- 70 -->
      <g style="fill:#262626;" transform="translate(779.941516 437.157812)scale(0.1 -0.1)">
       <use xlink:href="#ArialMT-37"/>
       <use x="55.615234" xlink:href="#ArialMT-30"/>
      </g>
     </g>
    </g>
    <g id="xtick_14">
     <g id="line2d_27">
      <path clip-path="url(#p37bdca0eee)" d="M 837.661377 423 
L 837.661377 42.48 
" style="fill:none;stroke:#cccccc;stroke-linecap:round;stroke-width:0.8;"/>
     </g>
     <g id="text_42">
      <!-- 80 -->
      <g style="fill:#262626;" transform="translate(832.10044 437.157812)scale(0.1 -0.1)">
       <use xlink:href="#ArialMT-38"/>
       <use x="55.615234" xlink:href="#ArialMT-30"/>
      </g>
     </g>
    </g>
    <g id="text_43">
     <!-- hum -->
     <g style="fill:#262626;" transform="translate(742.653171 450.303125)scale(0.1 -0.1)">
      <use xlink:href="#ArialMT-68"/>
      <use x="55.615234" xlink:href="#ArialMT-75"/>
      <use x="111.230469" xlink:href="#ArialMT-6d"/>
     </g>
    </g>
   </g>
   <g id="matplotlib.axis_6">
    <g id="ytick_14">
     <g id="line2d_28">
      <path clip-path="url(#p37bdca0eee)" d="M 629.290717 413.89426 
L 875.467188 413.89426 
" style="fill:none;stroke:#cccccc;stroke-linecap:round;stroke-width:0.8;"/>
     </g>
     <g id="text_44">
      <!-- 6 -->
      <g style="fill:#262626;" transform="translate(616.729779 417.473166)scale(0.1 -0.1)">
       <use xlink:href="#ArialMT-36"/>
      </g>
     </g>
    </g>
    <g id="ytick_15">
     <g id="line2d_29">
      <path clip-path="url(#p37bdca0eee)" d="M 629.290717 370.133288 
L 875.467188 370.133288 
" style="fill:none;stroke:#cccccc;stroke-linecap:round;stroke-width:0.8;"/>
     </g>
     <g id="text_45">
      <!-- 8 -->
      <g style="fill:#262626;" transform="translate(616.729779 373.712194)scale(0.1 -0.1)">
       <use xlink:href="#ArialMT-38"/>
      </g>
     </g>
    </g>
    <g id="ytick_16">
     <g id="line2d_30">
      <path clip-path="url(#p37bdca0eee)" d="M 629.290717 326.372316 
L 875.467188 326.372316 
" style="fill:none;stroke:#cccccc;stroke-linecap:round;stroke-width:0.8;"/>
     </g>
     <g id="text_46">
      <!-- 10 -->
      <g style="fill:#262626;" transform="translate(611.168842 329.951222)scale(0.1 -0.1)">
       <use xlink:href="#ArialMT-31"/>
       <use x="55.615234" xlink:href="#ArialMT-30"/>
      </g>
     </g>
    </g>
    <g id="ytick_17">
     <g id="line2d_31">
      <path clip-path="url(#p37bdca0eee)" d="M 629.290717 282.611344 
L 875.467188 282.611344 
" style="fill:none;stroke:#cccccc;stroke-linecap:round;stroke-width:0.8;"/>
     </g>
     <g id="text_47">
      <!-- 12 -->
      <g style="fill:#262626;" transform="translate(611.168842 286.19025)scale(0.1 -0.1)">
       <use xlink:href="#ArialMT-31"/>
       <use x="55.615234" xlink:href="#ArialMT-32"/>
      </g>
     </g>
    </g>
    <g id="ytick_18">
     <g id="line2d_32">
      <path clip-path="url(#p37bdca0eee)" d="M 629.290717 238.850372 
L 875.467188 238.850372 
" style="fill:none;stroke:#cccccc;stroke-linecap:round;stroke-width:0.8;"/>
     </g>
     <g id="text_48">
      <!-- 14 -->
      <g style="fill:#262626;" transform="translate(611.168842 242.429279)scale(0.1 -0.1)">
       <use xlink:href="#ArialMT-31"/>
       <use x="55.615234" xlink:href="#ArialMT-34"/>
      </g>
     </g>
    </g>
    <g id="ytick_19">
     <g id="line2d_33">
      <path clip-path="url(#p37bdca0eee)" d="M 629.290717 195.0894 
L 875.467188 195.0894 
" style="fill:none;stroke:#cccccc;stroke-linecap:round;stroke-width:0.8;"/>
     </g>
     <g id="text_49">
      <!-- 16 -->
      <g style="fill:#262626;" transform="translate(611.168842 198.668307)scale(0.1 -0.1)">
       <use xlink:href="#ArialMT-31"/>
       <use x="55.615234" xlink:href="#ArialMT-36"/>
      </g>
     </g>
    </g>
    <g id="ytick_20">
     <g id="line2d_34">
      <path clip-path="url(#p37bdca0eee)" d="M 629.290717 151.328428 
L 875.467188 151.328428 
" style="fill:none;stroke:#cccccc;stroke-linecap:round;stroke-width:0.8;"/>
     </g>
     <g id="text_50">
      <!-- 18 -->
      <g style="fill:#262626;" transform="translate(611.168842 154.907335)scale(0.1 -0.1)">
       <use xlink:href="#ArialMT-31"/>
       <use x="55.615234" xlink:href="#ArialMT-38"/>
      </g>
     </g>
    </g>
    <g id="ytick_21">
     <g id="line2d_35">
      <path clip-path="url(#p37bdca0eee)" d="M 629.290717 107.567456 
L 875.467188 107.567456 
" style="fill:none;stroke:#cccccc;stroke-linecap:round;stroke-width:0.8;"/>
     </g>
     <g id="text_51">
      <!-- 20 -->
      <g style="fill:#262626;" transform="translate(611.168842 111.146363)scale(0.1 -0.1)">
       <use xlink:href="#ArialMT-32"/>
       <use x="55.615234" xlink:href="#ArialMT-30"/>
      </g>
     </g>
    </g>
    <g id="ytick_22">
     <g id="line2d_36">
      <path clip-path="url(#p37bdca0eee)" d="M 629.290717 63.806484 
L 875.467188 63.806484 
" style="fill:none;stroke:#cccccc;stroke-linecap:round;stroke-width:0.8;"/>
     </g>
     <g id="text_52">
      <!-- 22 -->
      <g style="fill:#262626;" transform="translate(611.168842 67.385391)scale(0.1 -0.1)">
       <use xlink:href="#ArialMT-32"/>
       <use x="55.615234" xlink:href="#ArialMT-32"/>
      </g>
     </g>
    </g>
    <g id="text_53">
     <!-- windspeed -->
     <g style="fill:#262626;" transform="translate(605.181342 256.644687)rotate(-90)scale(0.1 -0.1)">
      <use xlink:href="#ArialMT-77"/>
      <use x="72.216797" xlink:href="#ArialMT-69"/>
      <use x="94.433594" xlink:href="#ArialMT-6e"/>
      <use x="150.048828" xlink:href="#ArialMT-64"/>
      <use x="205.664062" xlink:href="#ArialMT-73"/>
      <use x="255.664062" xlink:href="#ArialMT-70"/>
      <use x="311.279297" xlink:href="#ArialMT-65"/>
      <use x="366.894531" xlink:href="#ArialMT-65"/>
      <use x="422.509766" xlink:href="#ArialMT-64"/>
     </g>
    </g>
   </g>
   <g id="PathCollection_15">
    <path clip-path="url(#p37bdca0eee)" d="M 875.467188 204.088017 
L 875.467188 202.698947 
L 875.467188 182.671579 
L 875.467188 162.644211 
L 875.467188 142.616842 
L 875.467188 122.589474 
L 875.467188 102.562105 
L 875.467188 82.534737 
L 875.467188 62.507368 
L 875.467188 42.48 
L 862.510531 42.48 
L 849.553875 42.48 
L 836.597218 42.48 
L 823.640562 42.48 
L 810.683906 42.48 
L 797.727249 42.48 
L 787.650443 42.48 
L 797.038213 62.507368 
L 797.727249 63.947289 
L 806.798056 82.534737 
L 810.683906 90.293592 
L 816.952542 102.562105 
L 823.640562 115.324701 
L 827.526098 122.589474 
L 836.597218 139.136699 
L 838.545215 142.616842 
L 849.553875 161.81653 
L 850.038662 162.644211 
L 862.037739 182.671579 
L 862.510531 183.443066 
L 874.576563 202.698947 
z
" style="fill:#d0e11c;fill-opacity:0.75;"/>
   </g>
   <g id="PathCollection_16">
    <path clip-path="url(#p37bdca0eee)" d="M 875.467188 365.696033 
L 875.467188 362.917895 
L 875.467188 342.890526 
L 875.467188 322.863158 
L 875.467188 302.835789 
L 875.467188 282.808421 
L 875.467188 262.781053 
L 875.467188 242.753684 
L 875.467188 222.726316 
L 875.467188 204.088017 
L 874.576563 202.698947 
L 862.510531 183.443066 
L 862.037739 182.671579 
L 850.038662 162.644211 
L 849.553875 161.81653 
L 838.545215 142.616842 
L 836.597218 139.136699 
L 827.526098 122.589474 
L 823.640562 115.324701 
L 816.952542 102.562105 
L 810.683906 90.293592 
L 806.798056 82.534737 
L 797.727249 63.947289 
L 797.038213 62.507368 
L 787.650443 42.48 
L 784.770593 42.48 
L 771.813937 42.48 
L 758.85728 42.48 
L 745.900624 42.48 
L 732.943968 42.48 
L 719.987311 42.48 
L 707.030655 42.48 
L 699.833698 42.48 
L 707.030655 61.267064 
L 707.515024 62.507368 
L 715.500791 82.534737 
L 719.987311 93.448616 
L 723.809464 102.562105 
L 732.461032 122.589474 
L 732.943968 123.683576 
L 741.47717 142.616842 
L 745.900624 152.143376 
L 750.881418 162.644211 
L 758.85728 178.979894 
L 760.699385 182.671579 
L 770.958989 202.698947 
L 771.813937 204.328161 
L 781.690713 222.726316 
L 784.770593 228.308636 
L 792.927912 242.753684 
L 797.727249 251.029119 
L 804.707162 262.781053 
L 810.683906 272.586373 
L 817.068652 282.808421 
L 823.640562 293.0675 
L 830.056646 302.835789 
L 836.597218 312.551117 
L 843.72001 322.863158 
L 849.553875 331.108366 
L 858.112828 342.890526 
L 862.510531 348.803779 
L 873.29512 362.917895 
z
" style="fill:#73d056;fill-opacity:0.75;"/>
   </g>
   <g id="PathCollection_17">
    <path clip-path="url(#p37bdca0eee)" d="M 784.770593 420.437932 
L 786.606574 423 
L 797.727249 423 
L 810.683906 423 
L 823.640562 423 
L 836.597218 423 
L 849.553875 423 
L 862.510531 423 
L 875.467188 423 
L 875.467188 402.972632 
L 875.467188 382.945263 
L 875.467188 365.696033 
L 873.29512 362.917895 
L 862.510531 348.803779 
L 858.112828 342.890526 
L 849.553875 331.108366 
L 843.72001 322.863158 
L 836.597218 312.551117 
L 830.056646 302.835789 
L 823.640562 293.0675 
L 817.068652 282.808421 
L 810.683906 272.586373 
L 804.707162 262.781053 
L 797.727249 251.029119 
L 792.927912 242.753684 
L 784.770593 228.308636 
L 781.690713 222.726316 
L 771.813937 204.328161 
L 770.958989 202.698947 
L 760.699385 182.671579 
L 758.85728 178.979894 
L 750.881418 162.644211 
L 745.900624 152.143376 
L 741.47717 142.616842 
L 732.943968 123.683576 
L 732.461032 122.589474 
L 723.809464 102.562105 
L 719.987311 93.448616 
L 715.500791 82.534737 
L 707.515024 62.507368 
L 707.030655 61.267064 
L 699.833698 42.48 
L 694.073999 42.48 
L 681.117342 42.48 
L 668.160686 42.48 
L 655.20403 42.48 
L 642.247373 42.48 
L 629.290717 42.48 
L 629.290717 62.507368 
L 629.290717 82.534737 
L 629.290717 98.365907 
L 630.666386 102.562105 
L 637.395966 122.589474 
L 642.247373 136.532244 
L 644.409125 142.616842 
L 651.724173 162.644211 
L 655.20403 171.878183 
L 659.361032 182.671579 
L 667.341414 202.698947 
L 668.160686 204.705215 
L 675.689033 222.726316 
L 681.117342 235.273338 
L 684.429834 242.753684 
L 693.592267 262.781053 
L 694.073999 263.807959 
L 703.207591 282.808421 
L 707.030655 290.505459 
L 713.310239 302.835789 
L 719.987311 315.537723 
L 723.93822 322.863158 
L 732.943968 339.055839 
L 735.133604 342.890526 
L 745.900624 361.193156 
L 746.943076 362.917895 
L 758.85728 382.06781 
L 759.418586 382.945263 
L 771.813937 401.784836 
L 772.618115 402.972632 
z
" style="fill:#2db27d;fill-opacity:0.75;"/>
   </g>
   <g id="PathCollection_18">
    <path clip-path="url(#p37bdca0eee)" d="M 642.247373 409.745845 
L 648.926517 423 
L 655.20403 423 
L 668.160686 423 
L 681.117342 423 
L 694.073999 423 
L 707.030655 423 
L 719.987311 423 
L 732.943968 423 
L 745.900624 423 
L 758.85728 423 
L 771.813937 423 
L 784.770593 423 
L 786.606574 423 
L 784.770593 420.437932 
L 772.618115 402.972632 
L 771.813937 401.784836 
L 759.418586 382.945263 
L 758.85728 382.06781 
L 746.943076 362.917895 
L 745.900624 361.193156 
L 735.133604 342.890526 
L 732.943968 339.055839 
L 723.93822 322.863158 
L 719.987311 315.537723 
L 713.310239 302.835789 
L 707.030655 290.505459 
L 703.207591 282.808421 
L 694.073999 263.807959 
L 693.592267 262.781053 
L 684.429834 242.753684 
L 681.117342 235.273338 
L 675.689033 222.726316 
L 668.160686 204.705215 
L 667.341414 202.698947 
L 659.361032 182.671579 
L 655.20403 171.878183 
L 651.724173 162.644211 
L 644.409125 142.616842 
L 642.247373 136.532244 
L 637.395966 122.589474 
L 630.666386 102.562105 
L 629.290717 98.365907 
L 629.290717 102.562105 
L 629.290717 122.589474 
L 629.290717 142.616842 
L 629.290717 162.644211 
L 629.290717 182.671579 
L 629.290717 202.698947 
L 629.290717 222.726316 
L 629.290717 242.753684 
L 629.290717 262.781053 
L 629.290717 282.808421 
L 629.290717 302.835789 
L 629.290717 322.863158 
L 629.290717 342.890526 
L 629.290717 362.917895 
L 629.290717 382.479927 
L 629.503498 382.945263 
L 638.933203 402.972632 
z
" style="fill:#21918c;fill-opacity:0.75;"/>
   </g>
   <g id="PathCollection_19">
    <path clip-path="url(#p37bdca0eee)" d="M 642.247373 423 
L 648.926517 423 
L 642.247373 409.745845 
L 638.933203 402.972632 
L 629.503498 382.945263 
L 629.290717 382.479927 
L 629.290717 382.945263 
L 629.290717 402.972632 
L 629.290717 423 
z
" style="fill:#2e6e8e;fill-opacity:0.75;"/>
   </g>
   <g id="PathCollection_20"/>
   <g id="PathCollection_21"/>
   <g id="LineCollection_21">
    <path clip-path="url(#p37bdca0eee)" d="M 875.467188 42.48 
" style="fill:none;stroke:#000000;stroke-width:0.5;"/>
   </g>
   <g id="LineCollection_22">
    <path clip-path="url(#p37bdca0eee)" d="M 875.467188 204.088017 
L 874.576563 202.698947 
L 862.510531 183.443066 
L 862.037739 182.671579 
L 850.038662 162.644211 
L 849.553875 161.81653 
L 838.545215 142.616842 
L 837.996338 141.63626 
" style="fill:none;stroke:#000000;stroke-width:0.5;"/>
    <path clip-path="url(#p37bdca0eee)" d="M 817.376036 103.370251 
L 816.952542 102.562105 
L 810.683906 90.293592 
L 806.798056 82.534737 
L 797.727249 63.947289 
L 797.038213 62.507368 
L 787.650443 42.48 
" style="fill:none;stroke:#000000;stroke-width:0.5;"/>
   </g>
   <g id="LineCollection_23">
    <path clip-path="url(#p37bdca0eee)" d="M 875.467188 365.696033 
L 873.29512 362.917895 
L 862.510531 348.803779 
L 858.112828 342.890526 
L 849.553875 331.108366 
L 843.72001 322.863158 
L 836.597218 312.551117 
L 830.056646 302.835789 
L 823.640562 293.0675 
L 817.068652 282.808421 
L 810.683906 272.586373 
L 804.707162 262.781053 
L 797.727249 251.029119 
L 792.927912 242.753684 
L 792.323205 241.682864 
" style="fill:none;stroke:#000000;stroke-width:0.5;"/>
    <path clip-path="url(#p37bdca0eee)" d="M 771.417407 203.572522 
L 770.958989 202.698947 
L 760.699385 182.671579 
L 758.85728 178.979894 
L 750.881418 162.644211 
L 745.900624 152.143376 
L 741.47717 142.616842 
L 732.943968 123.683576 
L 732.461032 122.589474 
L 723.809464 102.562105 
L 719.987311 93.448616 
L 715.500791 82.534737 
L 707.515024 62.507368 
L 707.030655 61.267064 
L 699.833698 42.48 
" style="fill:none;stroke:#000000;stroke-width:0.5;"/>
   </g>
   <g id="LineCollection_24">
    <path clip-path="url(#p37bdca0eee)" d="M 786.606574 423 
L 784.770593 420.437932 
L 772.618115 402.972632 
L 771.813937 401.784836 
L 759.418586 382.945263 
L 758.85728 382.06781 
L 746.943076 362.917895 
L 745.900624 361.193156 
L 735.133604 342.890526 
L 732.943968 339.055839 
L 723.93822 322.863158 
L 719.987311 315.537723 
L 713.310239 302.835789 
L 707.030655 290.505459 
L 703.338043 283.071061 
" style="fill:none;stroke:#000000;stroke-width:0.5;"/>
    <path clip-path="url(#p37bdca0eee)" d="M 685.171623 244.375095 
L 684.429834 242.753684 
L 681.117342 235.273338 
L 675.689033 222.726316 
L 668.160686 204.705215 
L 667.341414 202.698947 
L 659.361032 182.671579 
L 655.20403 171.878183 
L 651.724173 162.644211 
L 644.409125 142.616842 
L 642.247373 136.532244 
L 637.395966 122.589474 
L 630.666386 102.562105 
L 629.290717 98.365907 
" style="fill:none;stroke:#000000;stroke-width:0.5;"/>
   </g>
   <g id="LineCollection_25">
    <path clip-path="url(#p37bdca0eee)" d="M 648.926517 423 
L 642.247373 409.745845 
L 638.933203 402.972632 
L 629.503498 382.945263 
L 629.290717 382.479927 
" style="fill:none;stroke:#000000;stroke-width:0.5;"/>
   </g>
   <g id="LineCollection_26"/>
   <g id="LineCollection_27"/>
   <g id="LineCollection_28"/>
   <g id="LineCollection_29">
    <path clip-path="url(#p37bdca0eee)" d="M 648.449039 423 
L 648.449039 403.974 
" style="fill:none;stroke:#000000;stroke-width:1.5;"/>
    <path clip-path="url(#p37bdca0eee)" d="M 676.455398 423 
L 676.455398 403.974 
" style="fill:none;stroke:#000000;stroke-width:1.5;"/>
    <path clip-path="url(#p37bdca0eee)" d="M 699.222726 423 
L 699.222726 403.974 
" style="fill:none;stroke:#000000;stroke-width:1.5;"/>
    <path clip-path="url(#p37bdca0eee)" d="M 722.711642 423 
L 722.711642 403.974 
" style="fill:none;stroke:#000000;stroke-width:1.5;"/>
    <path clip-path="url(#p37bdca0eee)" d="M 744.885517 423 
L 744.885517 403.974 
" style="fill:none;stroke:#000000;stroke-width:1.5;"/>
    <path clip-path="url(#p37bdca0eee)" d="M 769.802617 423 
L 769.802617 403.974 
" style="fill:none;stroke:#000000;stroke-width:1.5;"/>
    <path clip-path="url(#p37bdca0eee)" d="M 789.270821 423 
L 789.270821 403.974 
" style="fill:none;stroke:#000000;stroke-width:1.5;"/>
    <path clip-path="url(#p37bdca0eee)" d="M 813.537875 423 
L 813.537875 403.974 
" style="fill:none;stroke:#000000;stroke-width:1.5;"/>
    <path clip-path="url(#p37bdca0eee)" d="M 849.292786 423 
L 849.292786 403.974 
" style="fill:none;stroke:#000000;stroke-width:1.5;"/>
   </g>
   <g id="LineCollection_30">
    <path clip-path="url(#p37bdca0eee)" style="fill:none;stroke:#000000;stroke-width:1.5;"/>
    <path clip-path="url(#p37bdca0eee)" style="fill:none;stroke:#000000;stroke-width:1.5;"/>
    <path clip-path="url(#p37bdca0eee)" style="fill:none;stroke:#000000;stroke-width:1.5;"/>
    <path clip-path="url(#p37bdca0eee)" style="fill:none;stroke:#000000;stroke-width:1.5;"/>
    <path clip-path="url(#p37bdca0eee)" style="fill:none;stroke:#000000;stroke-width:1.5;"/>
    <path clip-path="url(#p37bdca0eee)" style="fill:none;stroke:#000000;stroke-width:1.5;"/>
    <path clip-path="url(#p37bdca0eee)" style="fill:none;stroke:#000000;stroke-width:1.5;"/>
    <path clip-path="url(#p37bdca0eee)" style="fill:none;stroke:#000000;stroke-width:1.5;"/>
    <path clip-path="url(#p37bdca0eee)" style="fill:none;stroke:#000000;stroke-width:1.5;"/>
   </g>
   <g id="patch_13">
    <path d="M 629.290717 423 
L 629.290717 42.48 
" style="fill:none;stroke:#ffffff;stroke-linecap:square;stroke-linejoin:miter;stroke-width:0.8;"/>
   </g>
   <g id="patch_14">
    <path d="M 875.467188 423 
L 875.467188 42.48 
" style="fill:none;stroke:#ffffff;stroke-linecap:square;stroke-linejoin:miter;stroke-width:0.8;"/>
   </g>
   <g id="patch_15">
    <path d="M 629.290717 423 
L 875.467188 423 
" style="fill:none;stroke:#ffffff;stroke-linecap:square;stroke-linejoin:miter;stroke-width:0.8;"/>
   </g>
   <g id="patch_16">
    <path d="M 629.290717 42.48 
L 875.467188 42.48 
" style="fill:none;stroke:#ffffff;stroke-linecap:square;stroke-linejoin:miter;stroke-width:0.8;"/>
   </g>
   <g id="text_54">
    <g clip-path="url(#p37bdca0eee)">
     <!-- 3626.69 -->
     <g transform="translate(816.681337 107.903873)rotate(-298.303615)scale(0.1 -0.1)">
      <use xlink:href="#ArialMT-33"/>
      <use x="55.615234" xlink:href="#ArialMT-36"/>
      <use x="111.230469" xlink:href="#ArialMT-32"/>
      <use x="166.845703" xlink:href="#ArialMT-36"/>
      <use x="222.460938" xlink:href="#ArialMT-2e"/>
      <use x="250.244141" xlink:href="#ArialMT-36"/>
      <use x="305.859375" xlink:href="#ArialMT-39"/>
     </g>
    </g>
   </g>
   <g id="text_55">
    <g clip-path="url(#p37bdca0eee)">
     <!-- 4019.32 -->
     <g transform="translate(770.734042 208.124019)rotate(-298.741468)scale(0.1 -0.1)">
      <use xlink:href="#ArialMT-34"/>
      <use x="55.615234" xlink:href="#ArialMT-30"/>
      <use x="111.230469" xlink:href="#ArialMT-31"/>
      <use x="166.845703" xlink:href="#ArialMT-39"/>
      <use x="222.460938" xlink:href="#ArialMT-2e"/>
      <use x="250.244141" xlink:href="#ArialMT-33"/>
      <use x="305.859375" xlink:href="#ArialMT-32"/>
     </g>
    </g>
   </g>
   <g id="text_56">
    <g clip-path="url(#p37bdca0eee)">
     <!-- 4411.94 -->
     <g transform="translate(684.211239 248.88115)rotate(-295.146306)scale(0.1 -0.1)">
      <use xlink:href="#ArialMT-34"/>
      <use x="55.615234" xlink:href="#ArialMT-34"/>
      <use x="111.230469" xlink:href="#ArialMT-31"/>
      <use x="159.470703" xlink:href="#ArialMT-31"/>
      <use x="215.085938" xlink:href="#ArialMT-2e"/>
      <use x="242.869141" xlink:href="#ArialMT-39"/>
      <use x="298.484375" xlink:href="#ArialMT-34"/>
     </g>
    </g>
   </g>
  </g>
  <g id="text_57">
   <!-- Pair ICE Plot - Linear Model -->
   <g style="fill:#262626;" transform="translate(369.106562 15.789375)scale(0.12 -0.12)">
    <defs>
     <path d="M 494 0 
L 494 4581 
L 2222 4581 
Q 2678 4581 2919 4538 
Q 3256 4481 3484 4323 
Q 3713 4166 3852 3881 
Q 3991 3597 3991 3256 
Q 3991 2672 3619 2267 
Q 3247 1863 2275 1863 
L 1100 1863 
L 1100 0 
L 494 0 
z
M 1100 2403 
L 2284 2403 
Q 2872 2403 3119 2622 
Q 3366 2841 3366 3238 
Q 3366 3525 3220 3729 
Q 3075 3934 2838 4000 
Q 2684 4041 2272 4041 
L 1100 4041 
L 1100 2403 
z
" id="ArialMT-50" transform="scale(0.015625)"/>
     <path d="M 2588 409 
Q 2275 144 1986 34 
Q 1697 -75 1366 -75 
Q 819 -75 525 192 
Q 231 459 231 875 
Q 231 1119 342 1320 
Q 453 1522 633 1644 
Q 813 1766 1038 1828 
Q 1203 1872 1538 1913 
Q 2219 1994 2541 2106 
Q 2544 2222 2544 2253 
Q 2544 2597 2384 2738 
Q 2169 2928 1744 2928 
Q 1347 2928 1158 2789 
Q 969 2650 878 2297 
L 328 2372 
Q 403 2725 575 2942 
Q 747 3159 1072 3276 
Q 1397 3394 1825 3394 
Q 2250 3394 2515 3294 
Q 2781 3194 2906 3042 
Q 3031 2891 3081 2659 
Q 3109 2516 3109 2141 
L 3109 1391 
Q 3109 606 3145 398 
Q 3181 191 3288 0 
L 2700 0 
Q 2613 175 2588 409 
z
M 2541 1666 
Q 2234 1541 1622 1453 
Q 1275 1403 1131 1340 
Q 988 1278 909 1158 
Q 831 1038 831 891 
Q 831 666 1001 516 
Q 1172 366 1500 366 
Q 1825 366 2078 508 
Q 2331 650 2450 897 
Q 2541 1088 2541 1459 
L 2541 1666 
z
" id="ArialMT-61" transform="scale(0.015625)"/>
     <path d="M 416 0 
L 416 3319 
L 922 3319 
L 922 2816 
Q 1116 3169 1280 3281 
Q 1444 3394 1641 3394 
Q 1925 3394 2219 3213 
L 2025 2691 
Q 1819 2813 1613 2813 
Q 1428 2813 1281 2702 
Q 1134 2591 1072 2394 
Q 978 2094 978 1738 
L 978 0 
L 416 0 
z
" id="ArialMT-72" transform="scale(0.015625)"/>
     <path id="ArialMT-20" transform="scale(0.015625)"/>
     <path d="M 597 0 
L 597 4581 
L 1203 4581 
L 1203 0 
L 597 0 
z
" id="ArialMT-49" transform="scale(0.015625)"/>
     <path d="M 3763 1606 
L 4369 1453 
Q 4178 706 3683 314 
Q 3188 -78 2472 -78 
Q 1731 -78 1267 223 
Q 803 525 561 1097 
Q 319 1669 319 2325 
Q 319 3041 592 3573 
Q 866 4106 1370 4382 
Q 1875 4659 2481 4659 
Q 3169 4659 3637 4309 
Q 4106 3959 4291 3325 
L 3694 3184 
Q 3534 3684 3231 3912 
Q 2928 4141 2469 4141 
Q 1941 4141 1586 3887 
Q 1231 3634 1087 3207 
Q 944 2781 944 2328 
Q 944 1744 1114 1308 
Q 1284 872 1643 656 
Q 2003 441 2422 441 
Q 2931 441 3284 734 
Q 3638 1028 3763 1606 
z
" id="ArialMT-43" transform="scale(0.015625)"/>
     <path d="M 506 0 
L 506 4581 
L 3819 4581 
L 3819 4041 
L 1113 4041 
L 1113 2638 
L 3647 2638 
L 3647 2100 
L 1113 2100 
L 1113 541 
L 3925 541 
L 3925 0 
L 506 0 
z
" id="ArialMT-45" transform="scale(0.015625)"/>
     <path d="M 409 0 
L 409 4581 
L 972 4581 
L 972 0 
L 409 0 
z
" id="ArialMT-6c" transform="scale(0.015625)"/>
     <path d="M 213 1659 
Q 213 2581 725 3025 
Q 1153 3394 1769 3394 
Q 2453 3394 2887 2945 
Q 3322 2497 3322 1706 
Q 3322 1066 3130 698 
Q 2938 331 2570 128 
Q 2203 -75 1769 -75 
Q 1072 -75 642 372 
Q 213 819 213 1659 
z
M 791 1659 
Q 791 1022 1069 705 
Q 1347 388 1769 388 
Q 2188 388 2466 706 
Q 2744 1025 2744 1678 
Q 2744 2294 2464 2611 
Q 2184 2928 1769 2928 
Q 1347 2928 1069 2612 
Q 791 2297 791 1659 
z
" id="ArialMT-6f" transform="scale(0.015625)"/>
     <path d="M 203 1375 
L 203 1941 
L 1931 1941 
L 1931 1375 
L 203 1375 
z
" id="ArialMT-2d" transform="scale(0.015625)"/>
     <path d="M 469 0 
L 469 4581 
L 1075 4581 
L 1075 541 
L 3331 541 
L 3331 0 
L 469 0 
z
" id="ArialMT-4c" transform="scale(0.015625)"/>
     <path d="M 475 0 
L 475 4581 
L 1388 4581 
L 2472 1338 
Q 2622 884 2691 659 
Q 2769 909 2934 1394 
L 4031 4581 
L 4847 4581 
L 4847 0 
L 4263 0 
L 4263 3834 
L 2931 0 
L 2384 0 
L 1059 3900 
L 1059 0 
L 475 0 
z
" id="ArialMT-4d" transform="scale(0.015625)"/>
    </defs>
    <use xlink:href="#ArialMT-50"/>
    <use x="66.699219" xlink:href="#ArialMT-61"/>
    <use x="122.314453" xlink:href="#ArialMT-69"/>
    <use x="144.53125" xlink:href="#ArialMT-72"/>
    <use x="177.832031" xlink:href="#ArialMT-20"/>
    <use x="205.615234" xlink:href="#ArialMT-49"/>
    <use x="233.398438" xlink:href="#ArialMT-43"/>
    <use x="305.615234" xlink:href="#ArialMT-45"/>
    <use x="372.314453" xlink:href="#ArialMT-20"/>
    <use x="400.097656" xlink:href="#ArialMT-50"/>
    <use x="466.796875" xlink:href="#ArialMT-6c"/>
    <use x="489.013672" xlink:href="#ArialMT-6f"/>
    <use x="544.628906" xlink:href="#ArialMT-74"/>
    <use x="572.412109" xlink:href="#ArialMT-20"/>
    <use x="600.195312" xlink:href="#ArialMT-2d"/>
    <use x="633.496094" xlink:href="#ArialMT-20"/>
    <use x="661.279297" xlink:href="#ArialMT-4c"/>
    <use x="716.894531" xlink:href="#ArialMT-69"/>
    <use x="739.111328" xlink:href="#ArialMT-6e"/>
    <use x="794.726562" xlink:href="#ArialMT-65"/>
    <use x="850.341797" xlink:href="#ArialMT-61"/>
    <use x="905.957031" xlink:href="#ArialMT-72"/>
    <use x="939.257812" xlink:href="#ArialMT-20"/>
    <use x="967.041016" xlink:href="#ArialMT-4d"/>
    <use x="1050.341797" xlink:href="#ArialMT-6f"/>
    <use x="1105.957031" xlink:href="#ArialMT-64"/>
    <use x="1161.572266" xlink:href="#ArialMT-65"/>
    <use x="1217.1875" xlink:href="#ArialMT-6c"/>
   </g>
  </g>
 </g>
 <defs>
  <clipPath id="p407c6f23cd">
   <rect height="380.52" width="246.176471" x="38.467188" y="42.48"/>
  </clipPath>
  <clipPath id="p5ad9968738">
   <rect height="380.52" width="246.176471" x="333.878952" y="42.48"/>
  </clipPath>
  <clipPath id="p37bdca0eee">
   <rect height="380.52" width="246.176471" x="629.290717" y="42.48"/>
  </clipPath>
 </defs>
</svg>
