<?xml version="1.0" encoding="utf-8" standalone="no"?>
<!DOCTYPE svg PUBLIC "-//W3C//DTD SVG 1.1//EN"
  "http://www.w3.org/Graphics/SVG/1.1/DTD/svg11.dtd">
<svg height="371.440938pt" version="1.1" viewBox="0 0 614.789062 371.440938" width="614.789062pt" xmlns="http://www.w3.org/2000/svg" xmlns:xlink="http://www.w3.org/1999/xlink">
 <metadata>
  <rdf:RDF xmlns:cc="http://creativecommons.org/ns#" xmlns:dc="http://purl.org/dc/elements/1.1/" xmlns:rdf="http://www.w3.org/1999/02/22-rdf-syntax-ns#">
   <cc:Work>
    <dc:type rdf:resource="http://purl.org/dc/dcmitype/StillImage"/>
    <dc:date>2021-10-31T20:16:41.569200</dc:date>
    <dc:format>image/svg+xml</dc:format>
    <dc:creator>
     <cc:Agent>
      <dc:title>Matplotlib v3.4.3, https://matplotlib.org/</dc:title>
     </cc:Agent>
    </dc:creator>
   </cc:Work>
  </rdf:RDF>
 </metadata>
 <defs>
  <style type="text/css">*{stroke-linecap:butt;stroke-linejoin:round;}</style>
 </defs>
 <g id="figure_1">
  <g id="patch_1">
   <path d="M 0 371.440938 
L 614.789062 371.440938 
L 614.789062 0 
L 0 0 
z
" style="fill:#ffffff;"/>
  </g>
  <g id="axes_1">
   <g id="patch_2">
    <path d="M 49.589063 348.095625 
L 607.589062 348.095625 
L 607.589062 21.935625 
L 49.589063 21.935625 
z
" style="fill:#e6e6e6;"/>
   </g>
   <g id="matplotlib.axis_1">
    <g id="xtick_1">
     <g id="line2d_1">
      <path clip-path="url(#pe2f58bc8e3)" d="M 74.952699 348.095625 
L 74.952699 21.935625 
" style="fill:none;stroke:#cccccc;stroke-linecap:round;stroke-width:0.8;"/>
     </g>
     <g id="text_1">
      <!-- 0 -->
      <g style="fill:#262626;" transform="translate(72.17223 362.253438)scale(0.1 -0.1)">
       <defs>
        <path d="M 266 2259 
Q 266 3072 433 3567 
Q 600 4063 929 4331 
Q 1259 4600 1759 4600 
Q 2128 4600 2406 4451 
Q 2684 4303 2865 4023 
Q 3047 3744 3150 3342 
Q 3253 2941 3253 2259 
Q 3253 1453 3087 958 
Q 2922 463 2592 192 
Q 2263 -78 1759 -78 
Q 1097 -78 719 397 
Q 266 969 266 2259 
z
M 844 2259 
Q 844 1131 1108 757 
Q 1372 384 1759 384 
Q 2147 384 2411 759 
Q 2675 1134 2675 2259 
Q 2675 3391 2411 3762 
Q 2147 4134 1753 4134 
Q 1366 4134 1134 3806 
Q 844 3388 844 2259 
z
" id="ArialMT-30" transform="scale(0.015625)"/>
       </defs>
       <use xlink:href="#ArialMT-30"/>
      </g>
     </g>
    </g>
    <g id="xtick_2">
     <g id="line2d_2">
      <path clip-path="url(#pe2f58bc8e3)" d="M 161.963458 348.095625 
L 161.963458 21.935625 
" style="fill:none;stroke:#cccccc;stroke-linecap:round;stroke-width:0.8;"/>
     </g>
     <g id="text_2">
      <!-- 100 -->
      <g style="fill:#262626;" transform="translate(153.622052 362.253438)scale(0.1 -0.1)">
       <defs>
        <path d="M 2384 0 
L 1822 0 
L 1822 3584 
Q 1619 3391 1289 3197 
Q 959 3003 697 2906 
L 697 3450 
Q 1169 3672 1522 3987 
Q 1875 4303 2022 4600 
L 2384 4600 
L 2384 0 
z
" id="ArialMT-31" transform="scale(0.015625)"/>
       </defs>
       <use xlink:href="#ArialMT-31"/>
       <use x="55.615234" xlink:href="#ArialMT-30"/>
       <use x="111.230469" xlink:href="#ArialMT-30"/>
      </g>
     </g>
    </g>
    <g id="xtick_3">
     <g id="line2d_3">
      <path clip-path="url(#pe2f58bc8e3)" d="M 248.974218 348.095625 
L 248.974218 21.935625 
" style="fill:none;stroke:#cccccc;stroke-linecap:round;stroke-width:0.8;"/>
     </g>
     <g id="text_3">
      <!-- 200 -->
      <g style="fill:#262626;" transform="translate(240.632811 362.253438)scale(0.1 -0.1)">
       <defs>
        <path d="M 3222 541 
L 3222 0 
L 194 0 
Q 188 203 259 391 
Q 375 700 629 1000 
Q 884 1300 1366 1694 
Q 2113 2306 2375 2664 
Q 2638 3022 2638 3341 
Q 2638 3675 2398 3904 
Q 2159 4134 1775 4134 
Q 1369 4134 1125 3890 
Q 881 3647 878 3216 
L 300 3275 
Q 359 3922 746 4261 
Q 1134 4600 1788 4600 
Q 2447 4600 2831 4234 
Q 3216 3869 3216 3328 
Q 3216 3053 3103 2787 
Q 2991 2522 2730 2228 
Q 2469 1934 1863 1422 
Q 1356 997 1212 845 
Q 1069 694 975 541 
L 3222 541 
z
" id="ArialMT-32" transform="scale(0.015625)"/>
       </defs>
       <use xlink:href="#ArialMT-32"/>
       <use x="55.615234" xlink:href="#ArialMT-30"/>
       <use x="111.230469" xlink:href="#ArialMT-30"/>
      </g>
     </g>
    </g>
    <g id="xtick_4">
     <g id="line2d_4">
      <path clip-path="url(#pe2f58bc8e3)" d="M 335.984977 348.095625 
L 335.984977 21.935625 
" style="fill:none;stroke:#cccccc;stroke-linecap:round;stroke-width:0.8;"/>
     </g>
     <g id="text_4">
      <!-- 300 -->
      <g style="fill:#262626;" transform="translate(327.643571 362.253438)scale(0.1 -0.1)">
       <defs>
        <path d="M 269 1209 
L 831 1284 
Q 928 806 1161 595 
Q 1394 384 1728 384 
Q 2125 384 2398 659 
Q 2672 934 2672 1341 
Q 2672 1728 2419 1979 
Q 2166 2231 1775 2231 
Q 1616 2231 1378 2169 
L 1441 2663 
Q 1497 2656 1531 2656 
Q 1891 2656 2178 2843 
Q 2466 3031 2466 3422 
Q 2466 3731 2256 3934 
Q 2047 4138 1716 4138 
Q 1388 4138 1169 3931 
Q 950 3725 888 3313 
L 325 3413 
Q 428 3978 793 4289 
Q 1159 4600 1703 4600 
Q 2078 4600 2393 4439 
Q 2709 4278 2876 4000 
Q 3044 3722 3044 3409 
Q 3044 3113 2884 2869 
Q 2725 2625 2413 2481 
Q 2819 2388 3044 2092 
Q 3269 1797 3269 1353 
Q 3269 753 2831 336 
Q 2394 -81 1725 -81 
Q 1122 -81 723 278 
Q 325 638 269 1209 
z
" id="ArialMT-33" transform="scale(0.015625)"/>
       </defs>
       <use xlink:href="#ArialMT-33"/>
       <use x="55.615234" xlink:href="#ArialMT-30"/>
       <use x="111.230469" xlink:href="#ArialMT-30"/>
      </g>
     </g>
    </g>
    <g id="xtick_5">
     <g id="line2d_5">
      <path clip-path="url(#pe2f58bc8e3)" d="M 422.995736 348.095625 
L 422.995736 21.935625 
" style="fill:none;stroke:#cccccc;stroke-linecap:round;stroke-width:0.8;"/>
     </g>
     <g id="text_5">
      <!-- 400 -->
      <g style="fill:#262626;" transform="translate(414.65433 362.253438)scale(0.1 -0.1)">
       <defs>
        <path d="M 2069 0 
L 2069 1097 
L 81 1097 
L 81 1613 
L 2172 4581 
L 2631 4581 
L 2631 1613 
L 3250 1613 
L 3250 1097 
L 2631 1097 
L 2631 0 
L 2069 0 
z
M 2069 1613 
L 2069 3678 
L 634 1613 
L 2069 1613 
z
" id="ArialMT-34" transform="scale(0.015625)"/>
       </defs>
       <use xlink:href="#ArialMT-34"/>
       <use x="55.615234" xlink:href="#ArialMT-30"/>
       <use x="111.230469" xlink:href="#ArialMT-30"/>
      </g>
     </g>
    </g>
    <g id="xtick_6">
     <g id="line2d_6">
      <path clip-path="url(#pe2f58bc8e3)" d="M 510.006496 348.095625 
L 510.006496 21.935625 
" style="fill:none;stroke:#cccccc;stroke-linecap:round;stroke-width:0.8;"/>
     </g>
     <g id="text_6">
      <!-- 500 -->
      <g style="fill:#262626;" transform="translate(501.66509 362.253438)scale(0.1 -0.1)">
       <defs>
        <path d="M 266 1200 
L 856 1250 
Q 922 819 1161 601 
Q 1400 384 1738 384 
Q 2144 384 2425 690 
Q 2706 997 2706 1503 
Q 2706 1984 2436 2262 
Q 2166 2541 1728 2541 
Q 1456 2541 1237 2417 
Q 1019 2294 894 2097 
L 366 2166 
L 809 4519 
L 3088 4519 
L 3088 3981 
L 1259 3981 
L 1013 2750 
Q 1425 3038 1878 3038 
Q 2478 3038 2890 2622 
Q 3303 2206 3303 1553 
Q 3303 931 2941 478 
Q 2500 -78 1738 -78 
Q 1113 -78 717 272 
Q 322 622 266 1200 
z
" id="ArialMT-35" transform="scale(0.015625)"/>
       </defs>
       <use xlink:href="#ArialMT-35"/>
       <use x="55.615234" xlink:href="#ArialMT-30"/>
       <use x="111.230469" xlink:href="#ArialMT-30"/>
      </g>
     </g>
    </g>
    <g id="xtick_7">
     <g id="line2d_7">
      <path clip-path="url(#pe2f58bc8e3)" d="M 597.017255 348.095625 
L 597.017255 21.935625 
" style="fill:none;stroke:#cccccc;stroke-linecap:round;stroke-width:0.8;"/>
     </g>
     <g id="text_7">
      <!-- 600 -->
      <g style="fill:#262626;" transform="translate(588.675849 362.253438)scale(0.1 -0.1)">
       <defs>
        <path d="M 3184 3459 
L 2625 3416 
Q 2550 3747 2413 3897 
Q 2184 4138 1850 4138 
Q 1581 4138 1378 3988 
Q 1113 3794 959 3422 
Q 806 3050 800 2363 
Q 1003 2672 1297 2822 
Q 1591 2972 1913 2972 
Q 2475 2972 2870 2558 
Q 3266 2144 3266 1488 
Q 3266 1056 3080 686 
Q 2894 316 2569 119 
Q 2244 -78 1831 -78 
Q 1128 -78 684 439 
Q 241 956 241 2144 
Q 241 3472 731 4075 
Q 1159 4600 1884 4600 
Q 2425 4600 2770 4297 
Q 3116 3994 3184 3459 
z
M 888 1484 
Q 888 1194 1011 928 
Q 1134 663 1356 523 
Q 1578 384 1822 384 
Q 2178 384 2434 671 
Q 2691 959 2691 1453 
Q 2691 1928 2437 2201 
Q 2184 2475 1800 2475 
Q 1419 2475 1153 2201 
Q 888 1928 888 1484 
z
" id="ArialMT-36" transform="scale(0.015625)"/>
       </defs>
       <use xlink:href="#ArialMT-36"/>
       <use x="55.615234" xlink:href="#ArialMT-30"/>
       <use x="111.230469" xlink:href="#ArialMT-30"/>
      </g>
     </g>
    </g>
   </g>
   <g id="matplotlib.axis_2">
    <g id="ytick_1">
     <g id="line2d_8">
      <path clip-path="url(#pe2f58bc8e3)" d="M 49.589063 342.226105 
L 607.589062 342.226105 
" style="fill:none;stroke:#cccccc;stroke-linecap:round;stroke-width:0.8;"/>
     </g>
     <g id="text_8">
      <!-- 0 -->
      <g style="fill:#262626;" transform="translate(37.028125 345.805011)scale(0.1 -0.1)">
       <use xlink:href="#ArialMT-30"/>
      </g>
     </g>
    </g>
    <g id="ytick_2">
     <g id="line2d_9">
      <path clip-path="url(#pe2f58bc8e3)" d="M 49.589063 305.695965 
L 607.589062 305.695965 
" style="fill:none;stroke:#cccccc;stroke-linecap:round;stroke-width:0.8;"/>
     </g>
     <g id="text_9">
      <!-- 1000 -->
      <g style="fill:#262626;" transform="translate(20.345313 309.274872)scale(0.1 -0.1)">
       <use xlink:href="#ArialMT-31"/>
       <use x="55.615234" xlink:href="#ArialMT-30"/>
       <use x="111.230469" xlink:href="#ArialMT-30"/>
       <use x="166.845703" xlink:href="#ArialMT-30"/>
      </g>
     </g>
    </g>
    <g id="ytick_3">
     <g id="line2d_10">
      <path clip-path="url(#pe2f58bc8e3)" d="M 49.589063 269.165826 
L 607.589062 269.165826 
" style="fill:none;stroke:#cccccc;stroke-linecap:round;stroke-width:0.8;"/>
     </g>
     <g id="text_10">
      <!-- 2000 -->
      <g style="fill:#262626;" transform="translate(20.345313 272.744732)scale(0.1 -0.1)">
       <use xlink:href="#ArialMT-32"/>
       <use x="55.615234" xlink:href="#ArialMT-30"/>
       <use x="111.230469" xlink:href="#ArialMT-30"/>
       <use x="166.845703" xlink:href="#ArialMT-30"/>
      </g>
     </g>
    </g>
    <g id="ytick_4">
     <g id="line2d_11">
      <path clip-path="url(#pe2f58bc8e3)" d="M 49.589063 232.635687 
L 607.589062 232.635687 
" style="fill:none;stroke:#cccccc;stroke-linecap:round;stroke-width:0.8;"/>
     </g>
     <g id="text_11">
      <!-- 3000 -->
      <g style="fill:#262626;" transform="translate(20.345313 236.214593)scale(0.1 -0.1)">
       <use xlink:href="#ArialMT-33"/>
       <use x="55.615234" xlink:href="#ArialMT-30"/>
       <use x="111.230469" xlink:href="#ArialMT-30"/>
       <use x="166.845703" xlink:href="#ArialMT-30"/>
      </g>
     </g>
    </g>
    <g id="ytick_5">
     <g id="line2d_12">
      <path clip-path="url(#pe2f58bc8e3)" d="M 49.589063 196.105547 
L 607.589062 196.105547 
" style="fill:none;stroke:#cccccc;stroke-linecap:round;stroke-width:0.8;"/>
     </g>
     <g id="text_12">
      <!-- 4000 -->
      <g style="fill:#262626;" transform="translate(20.345313 199.684454)scale(0.1 -0.1)">
       <use xlink:href="#ArialMT-34"/>
       <use x="55.615234" xlink:href="#ArialMT-30"/>
       <use x="111.230469" xlink:href="#ArialMT-30"/>
       <use x="166.845703" xlink:href="#ArialMT-30"/>
      </g>
     </g>
    </g>
    <g id="ytick_6">
     <g id="line2d_13">
      <path clip-path="url(#pe2f58bc8e3)" d="M 49.589063 159.575408 
L 607.589062 159.575408 
" style="fill:none;stroke:#cccccc;stroke-linecap:round;stroke-width:0.8;"/>
     </g>
     <g id="text_13">
      <!-- 5000 -->
      <g style="fill:#262626;" transform="translate(20.345313 163.154314)scale(0.1 -0.1)">
       <use xlink:href="#ArialMT-35"/>
       <use x="55.615234" xlink:href="#ArialMT-30"/>
       <use x="111.230469" xlink:href="#ArialMT-30"/>
       <use x="166.845703" xlink:href="#ArialMT-30"/>
      </g>
     </g>
    </g>
    <g id="ytick_7">
     <g id="line2d_14">
      <path clip-path="url(#pe2f58bc8e3)" d="M 49.589063 123.045269 
L 607.589062 123.045269 
" style="fill:none;stroke:#cccccc;stroke-linecap:round;stroke-width:0.8;"/>
     </g>
     <g id="text_14">
      <!-- 6000 -->
      <g style="fill:#262626;" transform="translate(20.345313 126.624175)scale(0.1 -0.1)">
       <use xlink:href="#ArialMT-36"/>
       <use x="55.615234" xlink:href="#ArialMT-30"/>
       <use x="111.230469" xlink:href="#ArialMT-30"/>
       <use x="166.845703" xlink:href="#ArialMT-30"/>
      </g>
     </g>
    </g>
    <g id="ytick_8">
     <g id="line2d_15">
      <path clip-path="url(#pe2f58bc8e3)" d="M 49.589063 86.515129 
L 607.589062 86.515129 
" style="fill:none;stroke:#cccccc;stroke-linecap:round;stroke-width:0.8;"/>
     </g>
     <g id="text_15">
      <!-- 7000 -->
      <g style="fill:#262626;" transform="translate(20.345313 90.094036)scale(0.1 -0.1)">
       <defs>
        <path d="M 303 3981 
L 303 4522 
L 3269 4522 
L 3269 4084 
Q 2831 3619 2401 2847 
Q 1972 2075 1738 1259 
Q 1569 684 1522 0 
L 944 0 
Q 953 541 1156 1306 
Q 1359 2072 1739 2783 
Q 2119 3494 2547 3981 
L 303 3981 
z
" id="ArialMT-37" transform="scale(0.015625)"/>
       </defs>
       <use xlink:href="#ArialMT-37"/>
       <use x="55.615234" xlink:href="#ArialMT-30"/>
       <use x="111.230469" xlink:href="#ArialMT-30"/>
       <use x="166.845703" xlink:href="#ArialMT-30"/>
      </g>
     </g>
    </g>
    <g id="ytick_9">
     <g id="line2d_16">
      <path clip-path="url(#pe2f58bc8e3)" d="M 49.589063 49.98499 
L 607.589062 49.98499 
" style="fill:none;stroke:#cccccc;stroke-linecap:round;stroke-width:0.8;"/>
     </g>
     <g id="text_16">
      <!-- 8000 -->
      <g style="fill:#262626;" transform="translate(20.345313 53.563896)scale(0.1 -0.1)">
       <defs>
        <path d="M 1131 2484 
Q 781 2613 612 2850 
Q 444 3088 444 3419 
Q 444 3919 803 4259 
Q 1163 4600 1759 4600 
Q 2359 4600 2725 4251 
Q 3091 3903 3091 3403 
Q 3091 3084 2923 2848 
Q 2756 2613 2416 2484 
Q 2838 2347 3058 2040 
Q 3278 1734 3278 1309 
Q 3278 722 2862 322 
Q 2447 -78 1769 -78 
Q 1091 -78 675 323 
Q 259 725 259 1325 
Q 259 1772 486 2073 
Q 713 2375 1131 2484 
z
M 1019 3438 
Q 1019 3113 1228 2906 
Q 1438 2700 1772 2700 
Q 2097 2700 2305 2904 
Q 2513 3109 2513 3406 
Q 2513 3716 2298 3927 
Q 2084 4138 1766 4138 
Q 1444 4138 1231 3931 
Q 1019 3725 1019 3438 
z
M 838 1322 
Q 838 1081 952 856 
Q 1066 631 1291 507 
Q 1516 384 1775 384 
Q 2178 384 2440 643 
Q 2703 903 2703 1303 
Q 2703 1709 2433 1975 
Q 2163 2241 1756 2241 
Q 1359 2241 1098 1978 
Q 838 1716 838 1322 
z
" id="ArialMT-38" transform="scale(0.015625)"/>
       </defs>
       <use xlink:href="#ArialMT-38"/>
       <use x="55.615234" xlink:href="#ArialMT-30"/>
       <use x="111.230469" xlink:href="#ArialMT-30"/>
       <use x="166.845703" xlink:href="#ArialMT-30"/>
      </g>
     </g>
    </g>
    <g id="text_17">
     <!-- cnt -->
     <g style="fill:#262626;" transform="translate(14.357813 191.685156)rotate(-90)scale(0.1 -0.1)">
      <defs>
       <path d="M 2588 1216 
L 3141 1144 
Q 3050 572 2676 248 
Q 2303 -75 1759 -75 
Q 1078 -75 664 370 
Q 250 816 250 1647 
Q 250 2184 428 2587 
Q 606 2991 970 3192 
Q 1334 3394 1763 3394 
Q 2303 3394 2647 3120 
Q 2991 2847 3088 2344 
L 2541 2259 
Q 2463 2594 2264 2762 
Q 2066 2931 1784 2931 
Q 1359 2931 1093 2626 
Q 828 2322 828 1663 
Q 828 994 1084 691 
Q 1341 388 1753 388 
Q 2084 388 2306 591 
Q 2528 794 2588 1216 
z
" id="ArialMT-63" transform="scale(0.015625)"/>
       <path d="M 422 0 
L 422 3319 
L 928 3319 
L 928 2847 
Q 1294 3394 1984 3394 
Q 2284 3394 2536 3286 
Q 2788 3178 2913 3003 
Q 3038 2828 3088 2588 
Q 3119 2431 3119 2041 
L 3119 0 
L 2556 0 
L 2556 2019 
Q 2556 2363 2490 2533 
Q 2425 2703 2258 2804 
Q 2091 2906 1866 2906 
Q 1506 2906 1245 2678 
Q 984 2450 984 1813 
L 984 0 
L 422 0 
z
" id="ArialMT-6e" transform="scale(0.015625)"/>
       <path d="M 1650 503 
L 1731 6 
Q 1494 -44 1306 -44 
Q 1000 -44 831 53 
Q 663 150 594 308 
Q 525 466 525 972 
L 525 2881 
L 113 2881 
L 113 3319 
L 525 3319 
L 525 4141 
L 1084 4478 
L 1084 3319 
L 1650 3319 
L 1650 2881 
L 1084 2881 
L 1084 941 
Q 1084 700 1114 631 
Q 1144 563 1211 522 
Q 1278 481 1403 481 
Q 1497 481 1650 503 
z
" id="ArialMT-74" transform="scale(0.015625)"/>
      </defs>
      <use xlink:href="#ArialMT-63"/>
      <use x="50" xlink:href="#ArialMT-6e"/>
      <use x="105.615234" xlink:href="#ArialMT-74"/>
     </g>
    </g>
   </g>
   <g id="line2d_17">
    <path clip-path="url(#pe2f58bc8e3)" d="M 74.952699 274.60442 
L 75.822806 276.736776 
L 76.692914 292.384159 
L 77.563022 289.258839 
L 78.433129 280.781512 
L 79.303237 289.920773 
L 80.173344 283.10292 
L 81.043452 320.000604 
L 81.91356 328.030984 
L 82.783667 298.954746 
L 83.653775 302.225596 
L 84.523882 290.833931 
L 85.39399 292.606255 
L 86.264098 291.198706 
L 87.134205 280.172745 
L 88.87442 310.472716 
L 89.744528 305.726526 
L 90.614636 288.561862 
L 91.484743 277.493461 
L 92.354851 284.022277 
L 93.224958 317.764563 
L 94.095066 325.468371 
L 95.835281 285.24913 
L 96.705389 333.27017 
L 97.575496 288.527307 
L 98.445604 304.221086 
L 99.315711 290.806867 
L 100.185819 287.106819 
L 101.055927 297.519804 
L 101.926034 293.80318 
L 102.796142 303.071434 
L 103.666249 286.244559 
L 104.536357 280.436469 
L 105.406465 305.922449 
L 106.276572 272.583555 
L 107.14668 267.37817 
L 108.886895 300.734644 
L 109.757003 292.557114 
L 110.62711 280.269998 
L 111.497218 282.808143 
L 112.367325 277.50343 
L 113.237433 256.428977 
L 114.107541 269.650646 
L 114.977648 260.47856 
L 115.847756 247.151864 
L 116.717863 230.135949 
L 117.587971 263.541204 
L 118.458079 278.329732 
L 119.328186 300.177451 
L 120.198294 286.485331 
L 121.068401 274.563439 
L 121.938509 283.925894 
L 122.808617 282.118323 
L 123.678724 268.418397 
L 124.548832 259.343567 
L 125.418939 281.171686 
L 126.289047 278.398272 
L 127.159155 262.219362 
L 128.029262 300.044915 
L 129.769477 263.117251 
L 130.639585 293.509702 
L 131.509692 286.934911 
L 132.3798 274.854042 
L 133.249908 283.895273 
L 134.120015 302.867764 
L 134.990123 271.29445 
L 135.86023 262.728458 
L 136.730338 263.63826 
L 137.600446 265.976679 
L 138.470553 266.276396 
L 139.340661 261.734947 
L 140.210768 243.304098 
L 141.080876 214.243504 
L 142.821091 270.99741 
L 143.691199 254.641164 
L 144.561306 224.711352 
L 145.431414 271.480638 
L 146.301522 277.588778 
L 147.171629 240.338238 
L 148.041737 249.358059 
L 148.911844 264.856374 
L 149.781952 261.979388 
L 150.65206 251.228302 
L 151.522167 266.019137 
L 152.392275 296.956425 
L 154.13249 256.179315 
L 155.002598 224.437824 
L 155.872705 201.580806 
L 156.742813 263.163948 
L 157.61292 226.0796 
L 158.483028 218.466898 
L 159.353135 278.749678 
L 160.223243 252.655736 
L 161.093351 232.811766 
L 161.963458 219.920022 
L 162.833566 236.234169 
L 163.703673 268.196785 
L 164.573781 211.187724 
L 165.443889 223.286342 
L 166.313996 295.043807 
L 167.184104 216.947672 
L 168.054211 206.952902 
L 168.924319 215.533219 
L 169.794427 188.262817 
L 170.664534 208.715933 
L 171.534642 264.989405 
L 172.404749 239.710896 
L 173.274857 191.923277 
L 174.144965 192.768322 
L 175.015072 186.87275 
L 175.88518 221.863297 
L 176.755287 203.193768 
L 177.625395 187.468642 
L 178.495503 191.817934 
L 179.36561 190.309635 
L 180.235718 198.308255 
L 181.105825 198.406942 
L 181.975933 237.655021 
L 182.846041 176.185647 
L 183.716148 176.029475 
L 184.586256 162.248401 
L 185.456363 168.286183 
L 186.326471 186.94204 
L 187.196578 175.428805 
L 188.066686 179.084458 
L 188.936794 181.864068 
L 189.806901 211.39659 
L 190.677009 196.803243 
L 191.547116 190.477428 
L 192.417224 187.708784 
L 193.287332 216.794505 
L 194.157439 216.947707 
L 195.027547 194.495016 
L 195.897654 176.191175 
L 196.767762 150.588124 
L 197.63787 172.156706 
L 198.507977 201.550629 
L 199.378085 180.968281 
L 200.248192 171.445842 
L 201.1183 163.778696 
L 201.988408 162.396113 
L 202.858515 162.194013 
L 203.728623 176.52355 
L 204.59873 177.550492 
L 205.468838 157.359366 
L 206.338946 192.366866 
L 207.209053 149.697822 
L 208.079161 141.155467 
L 208.949268 147.168704 
L 209.819376 171.212993 
L 210.689484 182.206221 
L 211.559591 174.39742 
L 212.429699 179.814221 
L 213.299806 170.492982 
L 214.169914 170.92314 
L 215.040021 155.861046 
L 215.910129 175.290003 
L 216.780237 167.114982 
L 217.650344 161.488729 
L 218.520452 166.587268 
L 219.390559 193.970267 
L 220.260667 177.624025 
L 221.130775 155.022985 
L 222.000882 163.130064 
L 222.87099 200.673115 
L 224.611205 176.677908 
L 225.481313 192.623377 
L 226.35142 166.537213 
L 227.221528 151.780891 
L 228.091635 158.468365 
L 228.961743 175.570222 
L 229.831851 173.358911 
L 230.701958 156.724204 
L 231.572066 157.555838 
L 232.442173 160.81693 
L 233.312281 158.638136 
L 234.182389 176.719908 
L 235.052496 146.236918 
L 235.922604 170.920648 
L 236.792711 170.20774 
L 237.662819 179.737125 
L 238.532927 184.377883 
L 239.403034 166.762486 
L 240.273142 180.262384 
L 241.143249 189.815096 
L 242.013357 183.09096 
L 242.883464 174.121289 
L 243.753572 157.982655 
L 244.62368 153.746182 
L 245.493787 159.945299 
L 246.363895 181.516753 
L 247.234002 182.365813 
L 248.10411 178.916424 
L 248.974218 179.961809 
L 249.844325 194.750431 
L 250.714433 199.472531 
L 251.58454 184.688126 
L 252.454648 195.492544 
L 253.324756 176.103761 
L 254.194863 175.96378 
L 255.064971 175.070521 
L 256.805186 195.217739 
L 257.675294 177.118164 
L 258.545401 187.339757 
L 259.415509 175.856098 
L 260.285616 168.840102 
L 261.155724 173.470839 
L 262.025832 195.332299 
L 262.895939 176.629981 
L 263.766047 198.72347 
L 264.636154 193.860278 
L 266.37637 169.355229 
L 267.246477 163.83488 
L 268.116585 162.585817 
L 268.986692 151.288816 
L 269.8568 191.367238 
L 270.726908 208.061071 
L 271.597015 184.841008 
L 272.467123 171.173178 
L 273.33723 167.131183 
L 274.207338 182.720459 
L 275.077445 181.8275 
L 275.947553 157.40149 
L 276.817661 202.911301 
L 277.687768 173.978995 
L 278.557876 150.200844 
L 280.298091 199.465011 
L 281.168199 177.300748 
L 282.038306 256.480304 
L 282.908414 194.182996 
L 283.778521 164.195987 
L 284.648629 154.496121 
L 285.518737 157.744917 
L 286.388844 166.333636 
L 287.258952 179.181786 
L 288.129059 168.312147 
L 289.869275 198.784681 
L 290.739382 249.55922 
L 291.60949 248.715656 
L 292.479597 255.667841 
L 293.349705 203.959997 
L 294.219813 166.238602 
L 295.08992 167.941068 
L 295.960028 165.572073 
L 296.830135 164.483929 
L 297.700243 167.903986 
L 298.570351 188.89303 
L 299.440458 158.924773 
L 300.310566 183.867218 
L 301.180673 168.615363 
L 302.050781 170.972179 
L 302.920888 192.605729 
L 303.790996 196.881322 
L 304.661104 199.022704 
L 305.531211 214.44707 
L 306.401319 173.538571 
L 307.271426 158.731447 
L 308.141534 182.077342 
L 309.011642 192.542791 
L 309.881749 195.614941 
L 310.751857 173.107951 
L 311.621964 171.306417 
L 312.492072 244.784018 
L 313.36218 247.824028 
L 315.102395 181.584366 
L 315.972502 168.455594 
L 316.84261 180.349969 
L 317.712718 172.291568 
L 318.582825 151.825381 
L 319.452933 162.118315 
L 320.32304 166.117323 
L 321.193148 191.312818 
L 322.063256 259.14714 
L 322.933363 201.808735 
L 323.803471 196.417372 
L 324.673578 168.1775 
L 325.543686 180.440932 
L 326.413794 170.202234 
L 327.283901 182.76735 
L 328.154009 258.48986 
L 329.024116 187.823833 
L 329.894224 180.36251 
L 330.764331 170.865684 
L 331.634439 186.975497 
L 332.504547 184.324725 
L 333.374654 176.550852 
L 334.244762 202.631356 
L 335.114869 223.758569 
L 335.984977 222.604182 
L 336.855085 318.572866 
L 337.725192 208.150237 
L 338.5953 196.456041 
L 339.465407 201.387208 
L 340.335515 203.056251 
L 341.205623 206.964084 
L 342.07573 215.695916 
L 342.945838 209.92816 
L 343.815945 217.898847 
L 344.686053 203.352356 
L 345.556161 200.570798 
L 346.426268 200.925506 
L 347.296376 241.191997 
L 348.166483 234.928845 
L 349.036591 208.468403 
L 349.906699 204.957843 
L 350.776806 185.779959 
L 351.646914 191.799732 
L 352.517021 266.462609 
L 353.387129 229.734014 
L 354.257237 198.691254 
L 355.127344 210.734745 
L 355.997452 208.407328 
L 356.867559 261.797646 
L 357.737667 269.32217 
L 358.607774 234.578825 
L 359.477882 231.266797 
L 360.34799 201.891578 
L 361.218097 197.221834 
L 362.088205 209.59156 
L 362.958312 191.383522 
L 363.82842 230.065795 
L 364.698528 204.435919 
L 365.568635 209.28037 
L 366.438743 205.560882 
L 367.30885 212.058526 
L 368.178958 223.002052 
L 369.049066 217.559605 
L 369.919173 269.263931 
L 370.789281 282.95127 
L 371.659388 218.586455 
L 372.529496 212.514937 
L 373.399604 225.864724 
L 374.269711 227.591659 
L 375.139819 216.171888 
L 376.009926 209.257111 
L 376.880034 221.804845 
L 377.750142 220.288406 
L 378.620249 204.19991 
L 379.490357 259.31912 
L 380.360464 240.470375 
L 381.230572 215.32667 
L 382.10068 196.831726 
L 382.970787 266.937739 
L 383.840895 235.09433 
L 386.451217 286.265309 
L 387.321325 294.650575 
L 388.191433 274.820904 
L 389.06154 252.258075 
L 389.931648 265.069527 
L 390.801755 254.805453 
L 391.671863 252.893759 
L 392.541971 219.992328 
L 393.412078 259.581462 
L 394.282186 240.640922 
L 395.152293 253.208245 
L 396.022401 204.917723 
L 396.892509 198.120029 
L 397.762616 193.371937 
L 398.632724 215.71631 
L 399.502831 234.361819 
L 400.372939 209.488246 
L 401.243047 247.980958 
L 402.113154 219.142767 
L 402.983262 217.905356 
L 403.853369 232.232341 
L 404.723477 254.512384 
L 405.593585 261.613969 
L 406.463692 246.295171 
L 407.3338 211.584365 
L 408.203907 218.024664 
L 409.074015 223.176711 
L 409.944123 298.298847 
L 410.81423 292.869666 
L 411.684338 255.304751 
L 412.554445 200.888575 
L 413.424553 203.208063 
L 414.294661 204.844372 
L 415.164768 235.894061 
L 416.034876 210.09899 
L 416.904983 222.02156 
L 417.775091 206.892317 
L 418.645198 187.05192 
L 419.515306 171.831759 
L 420.385414 200.6956 
L 421.255521 195.209771 
L 422.125629 233.84423 
L 422.995736 241.205128 
L 423.865844 205.856151 
L 424.735952 187.299464 
L 425.606059 235.551423 
L 426.476167 202.758318 
L 427.346274 203.280694 
L 428.216382 303.081283 
L 429.08649 282.256131 
L 429.956597 207.708166 
L 431.696812 187.974941 
L 432.56692 207.962864 
L 433.437028 196.53975 
L 434.307135 191.860052 
L 435.177243 236.505445 
L 436.04735 231.58281 
L 436.917458 203.855423 
L 437.787566 184.977267 
L 438.657673 169.068866 
L 439.527781 218.124745 
L 440.397888 232.850202 
L 441.267996 212.161341 
L 442.138104 195.52121 
L 443.008211 181.25415 
L 443.878319 228.921285 
L 444.748426 142.618864 
L 445.618534 184.01736 
L 446.488641 162.784108 
L 447.358749 214.59684 
L 449.098964 194.765845 
L 450.839179 147.696943 
L 451.709287 182.492511 
L 452.579395 193.058474 
L 453.449502 186.680459 
L 454.31961 150.887929 
L 455.189717 127.629089 
L 456.059825 113.93113 
L 456.929933 117.625071 
L 457.80004 167.225058 
L 458.670148 122.807023 
L 459.540255 146.886732 
L 460.410363 127.007724 
L 461.280471 115.219065 
L 462.150578 126.837699 
L 463.020686 89.811245 
L 463.890793 95.986671 
L 464.760901 143.218429 
L 465.631009 174.236251 
L 466.501116 144.558045 
L 467.371224 137.66693 
L 468.241331 119.737588 
L 469.111439 112.886481 
L 470.851654 166.794162 
L 471.721762 163.217889 
L 472.591869 148.926941 
L 473.461977 114.059724 
L 474.332084 106.574665 
L 475.202192 120.013373 
L 476.0723 121.391844 
L 476.942407 112.089192 
L 477.812515 110.047917 
L 478.682622 128.978652 
L 479.55273 127.784872 
L 480.422838 150.071932 
L 481.292945 133.584404 
L 482.163053 104.902092 
L 483.03316 97.084771 
L 483.903268 94.544045 
L 484.773376 108.510325 
L 485.643483 92.861158 
L 486.513591 150.407061 
L 487.383698 101.480605 
L 488.253806 104.450728 
L 489.123914 104.669269 
L 489.994021 259.355529 
L 490.864129 233.601959 
L 491.734236 131.24478 
L 492.604344 106.899335 
L 493.474452 149.326007 
L 494.344559 109.529277 
L 495.214667 132.6724 
L 496.084774 109.42435 
L 496.954882 144.310409 
L 497.82499 119.927933 
L 498.695097 115.822338 
L 499.565205 128.090973 
L 500.435312 102.213312 
L 501.30542 114.305842 
L 502.175527 129.662645 
L 503.045635 149.248312 
L 503.915743 152.391129 
L 504.78585 151.778668 
L 505.655958 107.038639 
L 506.526065 78.386004 
L 507.396173 73.348247 
L 508.266281 109.076542 
L 509.136388 156.494564 
L 510.006496 134.248895 
L 510.876603 98.368738 
L 511.746711 89.254206 
L 512.616819 82.727676 
L 513.486926 59.152962 
L 515.227141 158.979807 
L 516.097249 123.127692 
L 516.967357 125.035987 
L 517.837464 91.349115 
L 518.707572 91.786972 
L 519.577679 87.182567 
L 520.447787 104.505079 
L 521.317895 116.228361 
L 522.188002 104.463966 
L 523.05811 110.3374 
L 523.928217 74.133351 
L 524.798325 140.314896 
L 525.668433 72.792872 
L 526.53854 84.191601 
L 527.408648 87.535793 
L 528.278755 126.561725 
L 529.148863 87.753166 
L 530.01897 79.643174 
L 531.759186 54.938426 
L 532.629293 78.7401 
L 533.499401 112.692983 
L 534.369508 152.031839 
L 535.239616 86.320114 
L 536.109724 77.960701 
L 536.979831 77.276842 
L 537.849939 62.139119 
L 538.720046 85.663346 
L 539.590154 144.112967 
L 540.460262 92.745723 
L 541.330369 85.951756 
L 542.200477 116.263794 
L 543.070584 115.169598 
L 543.940692 98.656083 
L 544.8108 105.182854 
L 545.680907 103.951375 
L 546.551015 64.568074 
L 547.421122 77.484103 
L 548.29123 92.741277 
L 549.161338 114.358555 
L 550.031445 106.003048 
L 550.901553 120.359051 
L 551.77166 106.288637 
L 552.641768 94.767836 
L 553.511876 106.369793 
L 554.381983 110.459908 
L 555.252091 105.801219 
L 556.122198 113.625573 
L 556.992306 115.734944 
L 557.862414 111.214936 
L 558.732521 102.100289 
L 559.602629 88.331767 
L 561.342844 72.134198 
L 562.212951 101.899673 
L 563.083059 113.055952 
L 563.953167 105.782974 
L 564.823274 100.657145 
L 565.693382 102.229668 
L 566.563489 97.643028 
L 568.303705 169.074922 
L 569.173812 92.79057 
L 570.04392 98.120752 
L 570.914027 98.816383 
L 571.784135 78.565851 
L 572.654243 107.117653 
L 573.52435 100.443676 
L 574.394458 91.823111 
L 575.264565 100.437712 
L 576.134673 94.464089 
L 577.874888 77.443674 
L 578.744996 74.174636 
L 579.615103 105.156024 
L 580.485211 97.171382 
L 581.355319 122.176621 
L 582.225426 84.276934 
L 582.225426 84.276934 
" style="fill:none;stroke:#4c72b0;stroke-linecap:round;stroke-opacity:0.8;stroke-width:1.5;"/>
   </g>
   <g id="line2d_18">
    <path clip-path="url(#pe2f58bc8e3)" d="M 74.952699 300.720183 
L 75.822806 300.822385 
L 76.692914 295.526264 
L 77.563022 288.737794 
L 78.433129 283.03651 
L 79.303237 289.884288 
L 80.173344 286.805496 
L 81.043452 304.64947 
L 81.91356 313.936511 
L 82.783667 293.36596 
L 83.653775 301.929352 
L 84.523882 292.285137 
L 85.39399 290.049142 
L 86.264098 290.04788 
L 87.134205 297.262694 
L 88.004313 296.808368 
L 88.87442 305.789003 
L 89.744528 307.378731 
L 90.614636 290.9391 
L 91.484743 281.208804 
L 92.354851 287.289422 
L 94.095066 308.789137 
L 94.965174 291.863546 
L 95.835281 283.813346 
L 96.705389 321.531652 
L 97.575496 306.156956 
L 98.445604 300.667381 
L 99.315711 301.415148 
L 100.185819 298.937025 
L 101.055927 292.747627 
L 101.926034 292.710803 
L 103.666249 286.509602 
L 104.536357 284.28059 
L 105.406465 308.939349 
L 106.276572 282.579544 
L 107.14668 277.566376 
L 108.016787 290.002324 
L 108.886895 287.055842 
L 109.757003 285.628121 
L 110.62711 284.71159 
L 111.497218 293.703569 
L 112.367325 281.812487 
L 113.237433 271.676832 
L 114.107541 277.445642 
L 114.977648 265.953421 
L 115.847756 245.724295 
L 116.717863 220.63847 
L 117.587971 281.699869 
L 118.458079 274.40061 
L 119.328186 301.132726 
L 120.198294 282.997376 
L 121.068401 274.596393 
L 121.938509 280.957628 
L 122.808617 290.880604 
L 123.678724 273.147362 
L 124.548832 267.64566 
L 125.418939 284.230999 
L 126.289047 268.303756 
L 127.159155 263.510504 
L 128.029262 280.057738 
L 128.89937 271.016007 
L 129.769477 269.572255 
L 130.639585 316.785891 
L 131.509692 274.990979 
L 132.3798 267.490786 
L 133.249908 283.55859 
L 134.120015 303.998135 
L 134.990123 269.322007 
L 135.86023 260.214203 
L 136.730338 247.167128 
L 137.600446 261.171157 
L 138.470553 266.685148 
L 139.340661 266.85616 
L 140.210768 244.238082 
L 141.080876 215.445973 
L 141.950984 233.187991 
L 142.821091 256.912426 
L 143.691199 260.727087 
L 144.561306 234.797975 
L 145.431414 275.457139 
L 146.301522 273.476347 
L 147.171629 255.078659 
L 148.041737 258.574833 
L 148.911844 273.302936 
L 149.781952 267.011101 
L 150.65206 262.537684 
L 151.522167 267.40454 
L 152.392275 296.910587 
L 153.262382 265.725875 
L 154.13249 262.095443 
L 155.002598 238.925123 
L 155.872705 237.215501 
L 156.742813 278.528792 
L 157.61292 241.556514 
L 158.483028 232.148907 
L 159.353135 278.1908 
L 160.223243 257.535909 
L 161.093351 244.459341 
L 161.963458 238.155528 
L 162.833566 254.182948 
L 163.703673 266.735386 
L 164.573781 220.827899 
L 165.443889 242.258774 
L 166.313996 296.777492 
L 167.184104 209.88681 
L 168.054211 205.237146 
L 168.924319 217.233729 
L 169.794427 182.548424 
L 170.664534 186.45706 
L 171.534642 247.734014 
L 172.404749 212.163469 
L 173.274857 199.32498 
L 174.144965 184.580092 
L 175.015072 178.915566 
L 175.88518 207.390872 
L 176.755287 192.048365 
L 177.625395 169.356549 
L 178.495503 166.386941 
L 179.36561 211.086356 
L 180.235718 185.335203 
L 181.105825 190.774288 
L 181.975933 232.691231 
L 182.846041 187.821643 
L 183.716148 170.499061 
L 184.586256 167.786431 
L 185.456363 166.734602 
L 186.326471 178.874238 
L 187.196578 168.080135 
L 188.066686 174.429155 
L 188.936794 176.694933 
L 190.677009 213.640951 
L 191.547116 185.735518 
L 192.417224 189.64312 
L 193.287332 199.726499 
L 194.157439 203.492742 
L 195.027547 178.820816 
L 196.767762 144.65727 
L 198.507977 196.108499 
L 199.378085 184.902068 
L 200.248192 162.802082 
L 201.1183 167.578327 
L 201.988408 167.200914 
L 202.858515 163.071385 
L 203.728623 178.763292 
L 204.59873 190.423826 
L 205.468838 187.260545 
L 206.338946 199.106147 
L 207.209053 166.911955 
L 208.079161 148.380668 
L 208.949268 140.678963 
L 209.819376 173.792803 
L 210.689484 167.157606 
L 211.559591 156.647592 
L 212.429699 187.821803 
L 213.299806 200.76578 
L 214.169914 175.803976 
L 215.040021 161.117683 
L 215.910129 178.998562 
L 216.780237 163.626098 
L 218.520452 151.127742 
L 219.390559 187.326345 
L 220.260667 164.582463 
L 221.130775 150.551215 
L 222.87099 191.619921 
L 224.611205 173.310295 
L 225.481313 186.340139 
L 226.35142 158.380509 
L 227.221528 144.499145 
L 228.091635 149.023959 
L 228.961743 171.292789 
L 229.831851 173.42322 
L 230.701958 155.701198 
L 231.572066 145.566331 
L 232.442173 146.272052 
L 233.312281 150.787805 
L 234.182389 173.415372 
L 235.052496 147.28216 
L 235.922604 172.009087 
L 236.792711 167.881074 
L 237.662819 172.04312 
L 238.532927 188.70864 
L 239.403034 156.73824 
L 240.273142 171.269494 
L 241.143249 192.630992 
L 242.013357 172.494841 
L 242.883464 177.949676 
L 243.753572 152.701606 
L 245.493787 144.639344 
L 246.363895 156.108095 
L 247.234002 178.789815 
L 248.10411 180.925295 
L 248.974218 189.213926 
L 249.844325 206.073888 
L 250.714433 208.886958 
L 251.58454 207.409842 
L 252.454648 209.241129 
L 253.324756 196.979542 
L 254.194863 173.203843 
L 255.064971 171.952597 
L 255.935078 180.85796 
L 256.805186 202.283092 
L 257.675294 180.141056 
L 258.545401 189.757241 
L 259.415509 192.260304 
L 260.285616 167.814328 
L 261.155724 197.305031 
L 262.025832 196.888047 
L 262.895939 164.745992 
L 263.766047 193.659205 
L 264.636154 198.91967 
L 265.506262 186.653873 
L 266.37637 183.302287 
L 268.116585 159.225179 
L 268.986692 156.608583 
L 269.8568 184.653456 
L 270.726908 205.265631 
L 271.597015 182.175221 
L 272.467123 166.666161 
L 273.33723 169.145894 
L 274.207338 176.725613 
L 275.077445 183.051302 
L 275.947553 151.986575 
L 276.817661 199.347579 
L 278.557876 148.881263 
L 279.427983 163.636175 
L 280.298091 204.540442 
L 281.168199 167.348283 
L 282.038306 269.623389 
L 282.908414 182.739066 
L 283.778521 168.103965 
L 284.648629 158.121944 
L 285.518737 151.048385 
L 286.388844 156.305515 
L 287.258952 174.610718 
L 288.129059 165.183427 
L 288.999167 179.127345 
L 289.869275 212.600199 
L 290.739382 257.156953 
L 291.60949 256.153962 
L 292.479597 269.871943 
L 293.349705 203.074974 
L 294.219813 161.342215 
L 295.08992 154.761528 
L 295.960028 160.405042 
L 296.830135 161.387949 
L 297.700243 170.108182 
L 298.570351 196.015141 
L 299.440458 180.553055 
L 300.310566 181.137394 
L 301.180673 171.811792 
L 302.050781 175.95502 
L 302.920888 198.802223 
L 303.790996 199.208264 
L 304.661104 190.916395 
L 305.531211 234.811709 
L 306.401319 155.189134 
L 307.271426 161.345675 
L 308.141534 175.058765 
L 309.011642 194.754521 
L 309.881749 193.673154 
L 310.751857 168.981045 
L 311.621964 160.539354 
L 312.492072 246.589317 
L 313.36218 234.635828 
L 314.232287 203.59914 
L 315.102395 181.004063 
L 315.972502 169.293531 
L 316.84261 171.385113 
L 318.582825 144.838511 
L 319.452933 152.538344 
L 320.32304 162.852739 
L 321.193148 187.629431 
L 322.063256 249.561101 
L 322.933363 216.064569 
L 323.803471 190.523749 
L 324.673578 154.841152 
L 325.543686 166.934358 
L 326.413794 174.553247 
L 327.283901 171.830271 
L 328.154009 258.092547 
L 329.024116 201.02892 
L 329.894224 194.276294 
L 330.764331 178.185213 
L 331.634439 189.837293 
L 332.504547 184.705665 
L 333.374654 171.512666 
L 334.244762 191.45591 
L 335.114869 216.591535 
L 335.984977 213.659876 
L 336.855085 313.568137 
L 337.725192 218.908203 
L 338.5953 210.872294 
L 339.465407 200.545235 
L 340.335515 194.34064 
L 341.205623 203.579939 
L 342.07573 207.100575 
L 342.945838 206.662767 
L 343.815945 207.146514 
L 344.686053 195.734503 
L 345.556161 194.598902 
L 346.426268 195.118226 
L 347.296376 231.348312 
L 348.166483 223.541742 
L 349.036591 206.860864 
L 349.906699 198.881847 
L 350.776806 175.597602 
L 351.646914 187.764279 
L 352.517021 278.7593 
L 353.387129 222.922353 
L 354.257237 220.981591 
L 355.127344 208.260158 
L 355.997452 206.130333 
L 357.737667 281.493901 
L 358.607774 250.055506 
L 359.477882 249.321167 
L 360.34799 229.799107 
L 361.218097 222.188272 
L 362.088205 209.159498 
L 362.958312 199.475123 
L 363.82842 230.391108 
L 364.698528 224.088285 
L 365.568635 218.651725 
L 366.438743 206.119836 
L 367.30885 213.675724 
L 368.178958 209.926212 
L 369.049066 198.803025 
L 369.919173 278.335841 
L 370.789281 298.809602 
L 371.659388 229.477934 
L 372.529496 212.655618 
L 373.399604 223.973959 
L 374.269711 238.882367 
L 375.139819 223.886157 
L 376.009926 210.998429 
L 376.880034 213.263181 
L 377.750142 214.316928 
L 378.620249 213.702943 
L 379.490357 243.308311 
L 380.360464 249.972636 
L 382.10068 199.329832 
L 382.970787 252.485296 
L 383.840895 224.935141 
L 384.711002 268.88426 
L 385.58111 273.357508 
L 386.451217 300.556475 
L 387.321325 284.223155 
L 388.191433 282.996702 
L 389.06154 256.027622 
L 389.931648 261.828325 
L 390.801755 243.748653 
L 391.671863 236.770736 
L 392.541971 262.378542 
L 393.412078 273.33065 
L 394.282186 260.445201 
L 395.152293 262.75534 
L 396.022401 217.92237 
L 396.892509 203.979897 
L 397.762616 183.277654 
L 398.632724 214.924928 
L 399.502831 242.038711 
L 400.372939 210.035258 
L 401.243047 259.729429 
L 402.113154 215.984837 
L 402.983262 225.38383 
L 403.853369 247.825598 
L 404.723477 259.322577 
L 405.593585 261.973286 
L 407.3338 212.800793 
L 408.203907 228.493404 
L 409.074015 224.097578 
L 409.944123 286.063611 
L 410.81423 276.496505 
L 411.684338 250.903254 
L 412.554445 194.943504 
L 413.424553 194.073344 
L 414.294661 198.220362 
L 415.164768 213.133212 
L 416.034876 197.044263 
L 416.904983 226.086304 
L 417.775091 208.455874 
L 418.645198 177.665961 
L 419.515306 169.666859 
L 420.385414 204.719454 
L 421.255521 188.145562 
L 422.125629 231.403954 
L 422.995736 246.062778 
L 423.865844 201.095764 
L 424.735952 195.035855 
L 425.606059 238.032435 
L 426.476167 199.38757 
L 427.346274 201.519321 
L 428.216382 278.977977 
L 429.08649 271.749736 
L 429.956597 221.277275 
L 430.826705 203.094612 
L 431.696812 195.938085 
L 432.56692 221.117491 
L 433.437028 189.584543 
L 434.307135 190.461873 
L 435.177243 229.444677 
L 436.04735 227.642509 
L 436.917458 196.296421 
L 437.787566 185.269723 
L 438.657673 168.557327 
L 439.527781 224.99757 
L 440.397888 230.672022 
L 441.267996 214.857915 
L 442.138104 203.77875 
L 443.008211 189.848084 
L 443.878319 247.704227 
L 444.748426 166.829084 
L 445.618534 213.345062 
L 446.488641 201.205444 
L 447.358749 223.441168 
L 448.228857 216.379177 
L 449.098964 201.475228 
L 449.969072 166.558604 
L 450.839179 164.169911 
L 451.709287 181.53746 
L 452.579395 196.446492 
L 453.449502 165.559091 
L 454.31961 142.784494 
L 455.189717 115.631309 
L 456.059825 105.54801 
L 456.929933 101.574055 
L 457.80004 165.001953 
L 458.670148 69.053455 
L 459.540255 135.75881 
L 460.410363 108.612207 
L 461.280471 108.653642 
L 462.150578 118.719801 
L 463.020686 102.851308 
L 463.890793 68.211924 
L 464.760901 202.989071 
L 465.631009 176.779659 
L 466.501116 139.502703 
L 467.371224 152.765748 
L 468.241331 116.667531 
L 469.111439 104.98932 
L 469.981547 142.209394 
L 470.851654 128.935861 
L 471.721762 134.228985 
L 472.591869 114.613424 
L 473.461977 100.93674 
L 474.332084 95.406526 
L 475.202192 101.494716 
L 476.0723 125.349129 
L 476.942407 106.300534 
L 477.812515 126.81062 
L 478.682622 136.729944 
L 479.55273 119.796691 
L 480.422838 160.809317 
L 481.292945 142.536399 
L 482.163053 108.400732 
L 483.03316 97.367524 
L 483.903268 92.472378 
L 484.773376 103.585228 
L 485.643483 95.708649 
L 486.513591 157.764937 
L 487.383698 98.342779 
L 488.253806 84.059084 
L 489.123914 104.712187 
L 489.994021 295.978342 
L 490.864129 247.736859 
L 491.734236 129.849417 
L 492.604344 111.078651 
L 493.474452 159.506629 
L 494.344559 110.952062 
L 495.214667 174.811723 
L 496.084774 107.491385 
L 496.954882 149.483154 
L 497.82499 125.022302 
L 498.695097 132.508715 
L 499.565205 121.322751 
L 500.435312 104.817282 
L 501.30542 102.634267 
L 502.175527 108.33766 
L 503.045635 122.064681 
L 503.915743 133.584678 
L 504.78585 163.90241 
L 505.655958 101.459256 
L 507.396173 69.05597 
L 508.266281 112.107506 
L 509.136388 200.657572 
L 510.006496 155.521401 
L 510.876603 81.999697 
L 511.746711 76.406466 
L 513.486926 46.908967 
L 514.357034 84.161647 
L 515.227141 189.529355 
L 516.097249 109.967229 
L 516.967357 144.362763 
L 517.837464 95.491912 
L 518.707572 100.642394 
L 519.577679 101.186333 
L 520.447787 111.805865 
L 521.317895 120.543578 
L 522.188002 123.123484 
L 523.928217 75.232864 
L 524.798325 150.865699 
L 525.668433 69.254228 
L 526.53854 68.604302 
L 527.408648 77.893356 
L 528.278755 90.145562 
L 529.148863 83.361604 
L 530.01897 72.457429 
L 530.889078 58.158341 
L 531.759186 67.734393 
L 533.499401 97.539526 
L 534.369508 171.481219 
L 535.239616 77.505723 
L 536.109724 78.692899 
L 536.979831 67.98659 
L 537.849939 62.707128 
L 538.720046 80.760116 
L 539.590154 157.683778 
L 540.460262 87.558183 
L 541.330369 117.231287 
L 542.200477 129.062432 
L 543.070584 112.380858 
L 543.940692 75.366516 
L 544.8108 94.431164 
L 545.680907 94.875965 
L 546.551015 72.333962 
L 547.421122 76.988415 
L 548.29123 80.255597 
L 549.161338 141.21368 
L 550.031445 122.430428 
L 550.901553 150.383119 
L 551.77166 104.457421 
L 552.641768 93.079032 
L 553.511876 92.919908 
L 554.381983 120.179151 
L 555.252091 124.311926 
L 556.122198 149.001913 
L 556.992306 165.015349 
L 557.862414 108.81191 
L 558.732521 100.394121 
L 559.602629 78.986121 
L 560.472736 63.607503 
L 561.342844 66.915871 
L 562.212951 84.087605 
L 563.083059 121.457224 
L 563.953167 103.512221 
L 564.823274 116.216719 
L 565.693382 111.491167 
L 566.563489 100.227399 
L 568.303705 171.898836 
L 569.173812 69.345768 
L 570.04392 83.985489 
L 570.914027 75.497386 
L 571.784135 55.54014 
L 572.654243 91.219937 
L 573.52435 87.030904 
L 574.394458 91.431341 
L 575.264565 88.944294 
L 576.134673 80.159902 
L 577.004781 81.286771 
L 577.874888 71.234276 
L 578.744996 82.352602 
L 579.615103 86.082351 
L 580.485211 103.521515 
L 581.355319 129.635498 
L 582.225426 90.179827 
L 582.225426 90.179827 
" style="fill:none;stroke:#dd8452;stroke-linecap:round;stroke-opacity:0.8;stroke-width:1.5;"/>
   </g>
   <g id="line2d_19">
    <path clip-path="url(#pe2f58bc8e3)" d="M 74.952699 306.243918 
L 75.822806 312.965463 
L 76.692914 292.946947 
L 77.563022 285.166027 
L 78.433129 283.777882 
L 79.303237 283.558701 
L 80.173344 287.065594 
L 81.043452 307.193701 
L 81.91356 312.19833 
L 82.783667 293.969791 
L 83.653775 296.088539 
L 84.523882 299.778083 
L 85.39399 290.864729 
L 86.264098 290.316777 
L 87.134205 296.636491 
L 88.004313 298.243817 
L 88.87442 305.695965 
L 89.744528 317.27602 
L 90.614636 281.951375 
L 91.484743 271.832526 
L 92.354851 285.8601 
L 93.224958 306.390038 
L 94.095066 306.207387 
L 94.965174 290.499428 
L 95.835281 269.713778 
L 96.705389 323.741854 
L 97.575496 326.481615 
L 98.445604 299.595432 
L 99.315711 302.116012 
L 100.185819 302.189072 
L 101.055927 287.394366 
L 101.926034 292.545115 
L 102.796142 286.481112 
L 103.666249 285.604389 
L 104.536357 279.832627 
L 105.406465 305.513315 
L 106.276572 282.937689 
L 107.14668 279.686506 
L 108.016787 286.334992 
L 108.886895 283.595231 
L 109.757003 286.042751 
L 110.62711 278.444482 
L 111.497218 288.45374 
L 112.367325 284.179713 
L 113.237433 272.343948 
L 114.107541 275.923902 
L 114.977648 264.96486 
L 115.847756 251.81401 
L 116.717863 235.302387 
L 117.587971 282.499327 
L 118.458079 276.033492 
L 119.328186 301.787241 
L 120.198294 289.257403 
L 121.068401 272.197828 
L 121.938509 276.216143 
L 122.808617 288.855571 
L 123.678724 270.29826 
L 124.548832 254.48071 
L 125.418939 289.403523 
L 126.289047 274.608817 
L 127.159155 264.270787 
L 128.029262 280.67282 
L 128.89937 271.211514 
L 129.769477 266.353005 
L 130.639585 320.125371 
L 131.509692 273.841684 
L 132.3798 264.307318 
L 133.249908 273.147611 
L 134.120015 319.467828 
L 134.990123 270.006019 
L 135.86023 264.343848 
L 136.730338 253.932758 
L 137.600446 267.48544 
L 138.470553 267.120138 
L 139.340661 262.152039 
L 141.080876 223.904983 
L 141.950984 228.36166 
L 142.821091 251.96013 
L 143.691199 266.353005 
L 144.561306 243.485138 
L 145.431414 264.745679 
L 146.301522 274.097395 
L 147.171629 261.494497 
L 148.041737 251.046877 
L 148.911844 280.380579 
L 149.781952 268.142982 
L 150.65206 253.640517 
L 151.522167 286.115811 
L 152.392275 280.67282 
L 153.262382 260.873484 
L 154.13249 259.960231 
L 155.002598 223.539682 
L 155.872705 228.434721 
L 156.742813 276.654505 
L 157.61292 239.649474 
L 158.483028 227.484937 
L 159.353135 288.49027 
L 160.223243 252.544613 
L 161.963458 219.923198 
L 162.833566 267.923801 
L 163.703673 263.247944 
L 164.573781 222.88214 
L 165.443889 228.032889 
L 166.313996 313.184644 
L 167.184104 205.457263 
L 168.054211 216.964257 
L 168.924319 225.183538 
L 169.794427 198.151235 
L 170.664534 189.201351 
L 171.534642 280.74588 
L 172.404749 194.790462 
L 173.274857 189.128291 
L 174.144965 193.438847 
L 175.015072 181.493492 
L 175.88518 200.781405 
L 176.755287 193.986799 
L 177.625395 174.370115 
L 178.495503 148.178005 
L 179.36561 219.813608 
L 180.235718 181.456962 
L 181.105825 179.630455 
L 181.975933 246.042248 
L 182.846041 180.287997 
L 183.716148 173.895223 
L 184.586256 170.023028 
L 185.456363 183.941011 
L 186.326471 182.881637 
L 187.196578 166.771846 
L 188.066686 189.457062 
L 188.936794 164.543507 
L 190.677009 217.69486 
L 191.547116 175.90438 
L 192.417224 197.639813 
L 193.287332 191.61234 
L 194.157439 201.402418 
L 195.027547 175.100717 
L 195.897654 162.60741 
L 196.767762 130.168646 
L 197.63787 171.995655 
L 198.507977 186.096289 
L 199.378085 178.132719 
L 200.248192 160.379071 
L 201.1183 171.374643 
L 201.988408 171.301583 
L 202.858515 168.415702 
L 203.728623 167.319798 
L 204.59873 192.525594 
L 205.468838 196.76309 
L 206.338946 197.055331 
L 207.209053 160.744373 
L 208.079161 148.178005 
L 208.949268 147.0821 
L 209.819376 163.009241 
L 210.689484 176.087031 
L 211.559591 165.675941 
L 213.299806 199.210609 
L 214.169914 174.698886 
L 215.040021 160.817433 
L 215.910129 179.301683 
L 216.780237 158.844805 
L 217.650344 163.557193 
L 218.520452 152.999983 
L 219.390559 204.61707 
L 220.260667 165.27411 
L 221.130775 155.228321 
L 222.000882 168.927124 
L 222.87099 195.740246 
L 223.741097 165.602881 
L 224.611205 177.584767 
L 225.481313 167.246737 
L 227.221528 152.19632 
L 228.091635 148.433716 
L 228.961743 170.242209 
L 229.831851 172.434017 
L 230.701958 151.356127 
L 231.572066 140.762386 
L 232.442173 146.351498 
L 233.312281 155.228321 
L 234.182389 172.397487 
L 235.052496 121.474473 
L 235.922604 171.813005 
L 237.662819 174.479705 
L 238.532927 194.644342 
L 239.403034 147.301281 
L 240.273142 163.922495 
L 241.143249 192.963955 
L 242.013357 186.680771 
L 242.883464 183.61224 
L 243.753572 156.506876 
L 244.62368 139.922193 
L 245.493787 125.858089 
L 246.363895 148.543306 
L 247.234002 179.374744 
L 248.10411 176.342742 
L 248.974218 183.977541 
L 249.844325 203.996058 
L 250.714433 218.498523 
L 251.58454 222.224597 
L 252.454648 210.498422 
L 253.324756 201.95037 
L 254.194863 174.552765 
L 255.064971 172.141776 
L 255.935078 181.858793 
L 256.805186 201.731189 
L 257.675294 178.753731 
L 258.545401 185.073445 
L 259.415509 186.38853 
L 260.285616 165.23758 
L 261.155724 211.667387 
L 262.025832 175.064187 
L 262.895939 164.470447 
L 264.636154 203.959527 
L 265.506262 184.196722 
L 266.37637 174.114404 
L 267.246477 167.612039 
L 268.116585 167.173677 
L 268.986692 163.045771 
L 269.8568 190.626027 
L 270.726908 202.680973 
L 271.597015 183.75836 
L 272.467123 169.621196 
L 273.33723 170.753631 
L 274.207338 203.228925 
L 275.077445 190.516436 
L 275.947553 152.598151 
L 276.817661 200.744875 
L 277.687768 168.415702 
L 278.557876 126.880933 
L 279.427983 154.82649 
L 280.298091 212.836351 
L 281.168199 171.959125 
L 282.038306 301.494999 
L 282.908414 183.904481 
L 283.778521 172.945439 
L 284.648629 152.12326 
L 285.518737 157.45666 
L 286.388844 155.374442 
L 287.258952 169.548136 
L 288.129059 178.42496 
L 288.999167 161.767216 
L 289.869275 219.813608 
L 291.60949 269.311947 
L 292.479597 274.937588 
L 294.219813 146.97251 
L 295.960028 170.059558 
L 296.830135 168.233051 
L 297.700243 167.429388 
L 298.570351 208.562325 
L 299.440458 168.342642 
L 301.180673 186.096289 
L 302.050781 176.415802 
L 302.920888 209.219867 
L 303.790996 183.246938 
L 304.661104 167.064087 
L 305.531211 254.736421 
L 306.401319 144.123159 
L 308.141534 173.09156 
L 309.011642 191.721931 
L 309.881749 199.50285 
L 310.751857 165.45676 
L 311.621964 152.19632 
L 312.492072 253.494396 
L 313.36218 235.631158 
L 314.232287 211.813507 
L 315.102395 179.447804 
L 315.972502 165.931652 
L 316.84261 168.159991 
L 317.712718 160.12336 
L 318.582825 144.634581 
L 319.452933 140.908507 
L 320.32304 155.301382 
L 321.193148 175.539079 
L 322.063256 253.969288 
L 322.933363 235.813809 
L 323.803471 209.110277 
L 324.673578 151.648368 
L 325.543686 158.077672 
L 326.413794 175.283368 
L 327.283901 168.781003 
L 328.154009 253.677047 
L 329.024116 188.98217 
L 329.894224 185.000385 
L 330.764331 184.854264 
L 331.634439 182.187564 
L 332.504547 189.274411 
L 333.374654 171.009342 
L 334.244762 199.977742 
L 335.114869 245.092464 
L 335.984977 205.347673 
L 336.855085 319.321707 
L 337.725192 220.544211 
L 338.5953 208.197024 
L 339.465407 193.621498 
L 340.335515 189.310941 
L 341.205623 197.055331 
L 342.07573 194.425161 
L 342.945838 198.808778 
L 343.815945 208.927626 
L 344.686053 194.826993 
L 345.556161 188.616869 
L 346.426268 192.123762 
L 347.296376 235.083206 
L 348.166483 219.192595 
L 349.036591 193.658028 
L 349.906699 206.443577 
L 350.776806 178.3519 
L 351.646914 188.98217 
L 352.517021 275.850842 
L 353.387129 230.699589 
L 354.257237 218.315872 
L 355.127344 208.416204 
L 355.997452 213.640014 
L 356.867559 241.22027 
L 357.737667 283.522171 
L 358.607774 248.489767 
L 359.477882 287.613547 
L 360.34799 240.233956 
L 361.218097 230.151637 
L 362.088205 230.042047 
L 362.958312 200.964056 
L 363.82842 235.777279 
L 364.698528 210.242711 
L 365.568635 206.078275 
L 366.438743 198.297356 
L 367.30885 210.206181 
L 368.178958 214.918569 
L 369.049066 203.009744 
L 369.919173 247.466923 
L 370.789281 316.472357 
L 371.659388 220.872982 
L 372.529496 209.987 
L 374.269711 242.023933 
L 375.139819 221.311344 
L 376.880034 205.603384 
L 377.750142 206.735818 
L 378.620249 211.557796 
L 379.490357 242.170053 
L 380.360464 253.421336 
L 381.230572 217.914041 
L 382.10068 205.238082 
L 382.970787 245.055934 
L 383.840895 230.151637 
L 384.711002 261.531027 
L 385.58111 305.294134 
L 386.451217 314.68238 
L 387.321325 294.115911 
L 388.191433 299.778083 
L 389.06154 258.133724 
L 389.931648 253.713577 
L 390.801755 232.672217 
L 391.671863 251.448709 
L 392.541971 258.425965 
L 393.412078 270.955803 
L 394.282186 260.544713 
L 395.152293 255.722735 
L 396.892509 192.525594 
L 397.762616 177.073345 
L 399.502831 255.430494 
L 400.372939 210.790663 
L 401.243047 262.699991 
L 402.113154 192.562124 
L 402.983262 224.818237 
L 403.853369 251.156467 
L 404.723477 257.804953 
L 405.593585 258.279845 
L 406.463692 235.010146 
L 407.3338 218.900354 
L 408.203907 221.968886 
L 409.074015 226.681274 
L 409.944123 294.700394 
L 410.81423 270.006019 
L 411.684338 253.384806 
L 412.554445 183.72183 
L 413.424553 186.24241 
L 414.294661 193.365787 
L 415.164768 215.977943 
L 416.034876 195.265354 
L 416.904983 223.758863 
L 417.775091 209.84088 
L 418.645198 177.511706 
L 419.515306 174.954597 
L 420.385414 204.836251 
L 421.255521 190.589496 
L 422.125629 238.77275 
L 422.995736 234.571784 
L 423.865844 203.996058 
L 424.735952 182.406745 
L 425.606059 239.868654 
L 426.476167 202.315671 
L 427.346274 202.279141 
L 428.216382 262.992233 
L 429.08649 286.371522 
L 429.956597 217.219968 
L 430.826705 198.954898 
L 431.696812 189.931954 
L 432.56692 232.453036 
L 433.437028 190.479906 
L 434.307135 184.488963 
L 435.177243 243.99656 
L 436.04735 227.923299 
L 436.917458 204.251768 
L 437.787566 167.86775 
L 438.657673 157.310539 
L 439.527781 214.845509 
L 440.397888 242.425764 
L 441.267996 218.425463 
L 442.138104 184.342843 
L 443.008211 182.845107 
L 443.878319 275.229829 
L 444.748426 159.940709 
L 445.618534 225.54884 
L 446.488641 193.694558 
L 447.358749 217.183438 
L 448.228857 220.47115 
L 449.098964 197.712874 
L 449.969072 162.64394 
L 450.839179 145.620895 
L 451.709287 175.319898 
L 452.579395 191.794991 
L 453.449502 162.82659 
L 454.31961 148.689427 
L 455.189717 128.63438 
L 456.059825 111.647865 
L 456.929933 116.031482 
L 457.80004 182.297155 
L 458.670148 55.975933 
L 459.540255 126.990524 
L 460.410363 117.456157 
L 461.280471 119.647966 
L 462.150578 114.643337 
L 463.020686 91.227517 
L 463.890793 36.76108 
L 464.760901 219.046475 
L 465.631009 159.721529 
L 466.501116 139.19159 
L 467.371224 155.849334 
L 468.241331 134.077371 
L 469.111439 118.18676 
L 469.981547 142.808074 
L 470.851654 114.460686 
L 471.721762 121.547533 
L 472.591869 125.383198 
L 473.461977 94.844001 
L 474.332084 107.118128 
L 475.202192 106.350995 
L 476.0723 106.241405 
L 476.942407 91.738939 
L 477.812515 153.401815 
L 478.682622 138.205277 
L 479.55273 126.04074 
L 480.422838 164.616567 
L 481.292945 144.634581 
L 483.03316 69.711265 
L 483.903268 81.693151 
L 484.773376 109.529117 
L 485.643483 97.802942 
L 486.513591 182.698986 
L 487.383698 102.40574 
L 488.253806 75.921389 
L 489.123914 100.250462 
L 489.994021 304.709652 
L 491.734236 136.45183 
L 492.604344 115.885361 
L 493.474452 158.625624 
L 494.344559 114.533746 
L 495.214667 188.068917 
L 496.084774 111.940106 
L 496.954882 138.680168 
L 497.82499 132.543105 
L 498.695097 116.871675 
L 499.565205 107.66608 
L 500.435312 112.232347 
L 501.30542 90.789156 
L 502.175527 109.930949 
L 503.045635 113.072541 
L 503.915743 132.981467 
L 504.78585 169.913437 
L 505.655958 102.150029 
L 506.526065 85.419225 
L 507.396173 70.8437 
L 508.266281 118.734712 
L 509.136388 238.370919 
L 510.876603 71.02635 
L 511.746711 72.487556 
L 512.616819 63.17237 
L 513.486926 39.245129 
L 514.357034 81.802741 
L 515.227141 182.991227 
L 516.097249 120.378569 
L 516.967357 150.077572 
L 517.837464 94.917061 
L 518.707572 96.232146 
L 519.577679 103.465114 
L 520.447787 101.455956 
L 521.317895 121.474473 
L 522.188002 132.433515 
L 523.05811 91.812 
L 523.928217 74.167942 
L 524.798325 191.46622 
L 525.668433 45.601373 
L 526.53854 63.09931 
L 527.408648 86.58819 
L 528.278755 86.478599 
L 529.148863 84.505972 
L 530.01897 68.469241 
L 530.889078 59.628947 
L 531.759186 68.32312 
L 532.629293 101.200245 
L 533.499401 98.789256 
L 534.369508 160.598252 
L 535.239616 71.135941 
L 536.109724 73.254689 
L 536.979831 62.222587 
L 537.849939 60.870972 
L 538.720046 87.318792 
L 539.590154 155.958924 
L 540.460262 92.907904 
L 541.330369 115.337409 
L 542.200477 126.515632 
L 543.070584 129.511103 
L 543.940692 69.784326 
L 544.8108 90.496915 
L 545.680907 94.58829 
L 546.551015 70.368808 
L 547.421122 74.277533 
L 548.29123 90.935276 
L 549.161338 142.661954 
L 550.031445 134.479202 
L 550.901553 140.177904 
L 551.77166 114.752927 
L 552.641768 98.935377 
L 553.511876 71.793483 
L 554.381983 114.241505 
L 555.252091 115.48353 
L 556.122198 165.42023 
L 556.992306 171.557294 
L 557.862414 102.259619 
L 558.732521 112.451528 
L 559.602629 76.871173 
L 560.472736 70.222687 
L 561.342844 68.28659 
L 562.212951 87.647564 
L 563.083059 121.912834 
L 563.953167 92.725253 
L 564.823274 94.332579 
L 565.693382 133.529419 
L 566.563489 101.455956 
L 567.433597 127.794187 
L 568.303705 179.338213 
L 569.173812 71.537772 
L 570.04392 87.757154 
L 571.784135 43.665276 
L 572.654243 91.592819 
L 573.52435 90.022023 
L 574.394458 98.022123 
L 575.264565 101.236776 
L 576.134673 82.679465 
L 577.004781 78.624619 
L 577.874888 65.327649 
L 578.744996 76.980763 
L 579.615103 80.122355 
L 580.485211 92.944434 
L 581.355319 142.625423 
L 582.225426 86.040238 
L 582.225426 86.040238 
" style="fill:none;stroke:#000000;stroke-linecap:round;stroke-width:1.5;"/>
   </g>
   <g id="patch_3">
    <path d="M 49.589063 348.095625 
L 49.589063 21.935625 
" style="fill:none;stroke:#ffffff;stroke-linecap:square;stroke-linejoin:miter;stroke-width:0.8;"/>
   </g>
   <g id="patch_4">
    <path d="M 607.589062 348.095625 
L 607.589062 21.935625 
" style="fill:none;stroke:#ffffff;stroke-linecap:square;stroke-linejoin:miter;stroke-width:0.8;"/>
   </g>
   <g id="patch_5">
    <path d="M 49.589063 348.095625 
L 607.589062 348.095625 
" style="fill:none;stroke:#ffffff;stroke-linecap:square;stroke-linejoin:miter;stroke-width:0.8;"/>
   </g>
   <g id="patch_6">
    <path d="M 49.589063 21.935625 
L 607.589062 21.935625 
" style="fill:none;stroke:#ffffff;stroke-linecap:square;stroke-linejoin:miter;stroke-width:0.8;"/>
   </g>
   <g id="text_18">
    <!-- In-Sample Predictions -->
    <g style="fill:#262626;" transform="translate(269.89875 15.935625)scale(0.12 -0.12)">
     <defs>
      <path d="M 597 0 
L 597 4581 
L 1203 4581 
L 1203 0 
L 597 0 
z
" id="ArialMT-49" transform="scale(0.015625)"/>
      <path d="M 203 1375 
L 203 1941 
L 1931 1941 
L 1931 1375 
L 203 1375 
z
" id="ArialMT-2d" transform="scale(0.015625)"/>
      <path d="M 288 1472 
L 859 1522 
Q 900 1178 1048 958 
Q 1197 738 1509 602 
Q 1822 466 2213 466 
Q 2559 466 2825 569 
Q 3091 672 3220 851 
Q 3350 1031 3350 1244 
Q 3350 1459 3225 1620 
Q 3100 1781 2813 1891 
Q 2628 1963 1997 2114 
Q 1366 2266 1113 2400 
Q 784 2572 623 2826 
Q 463 3081 463 3397 
Q 463 3744 659 4045 
Q 856 4347 1234 4503 
Q 1613 4659 2075 4659 
Q 2584 4659 2973 4495 
Q 3363 4331 3572 4012 
Q 3781 3694 3797 3291 
L 3216 3247 
Q 3169 3681 2898 3903 
Q 2628 4125 2100 4125 
Q 1550 4125 1298 3923 
Q 1047 3722 1047 3438 
Q 1047 3191 1225 3031 
Q 1400 2872 2139 2705 
Q 2878 2538 3153 2413 
Q 3553 2228 3743 1945 
Q 3934 1663 3934 1294 
Q 3934 928 3725 604 
Q 3516 281 3123 101 
Q 2731 -78 2241 -78 
Q 1619 -78 1198 103 
Q 778 284 539 648 
Q 300 1013 288 1472 
z
" id="ArialMT-53" transform="scale(0.015625)"/>
      <path d="M 2588 409 
Q 2275 144 1986 34 
Q 1697 -75 1366 -75 
Q 819 -75 525 192 
Q 231 459 231 875 
Q 231 1119 342 1320 
Q 453 1522 633 1644 
Q 813 1766 1038 1828 
Q 1203 1872 1538 1913 
Q 2219 1994 2541 2106 
Q 2544 2222 2544 2253 
Q 2544 2597 2384 2738 
Q 2169 2928 1744 2928 
Q 1347 2928 1158 2789 
Q 969 2650 878 2297 
L 328 2372 
Q 403 2725 575 2942 
Q 747 3159 1072 3276 
Q 1397 3394 1825 3394 
Q 2250 3394 2515 3294 
Q 2781 3194 2906 3042 
Q 3031 2891 3081 2659 
Q 3109 2516 3109 2141 
L 3109 1391 
Q 3109 606 3145 398 
Q 3181 191 3288 0 
L 2700 0 
Q 2613 175 2588 409 
z
M 2541 1666 
Q 2234 1541 1622 1453 
Q 1275 1403 1131 1340 
Q 988 1278 909 1158 
Q 831 1038 831 891 
Q 831 666 1001 516 
Q 1172 366 1500 366 
Q 1825 366 2078 508 
Q 2331 650 2450 897 
Q 2541 1088 2541 1459 
L 2541 1666 
z
" id="ArialMT-61" transform="scale(0.015625)"/>
      <path d="M 422 0 
L 422 3319 
L 925 3319 
L 925 2853 
Q 1081 3097 1340 3245 
Q 1600 3394 1931 3394 
Q 2300 3394 2536 3241 
Q 2772 3088 2869 2813 
Q 3263 3394 3894 3394 
Q 4388 3394 4653 3120 
Q 4919 2847 4919 2278 
L 4919 0 
L 4359 0 
L 4359 2091 
Q 4359 2428 4304 2576 
Q 4250 2725 4106 2815 
Q 3963 2906 3769 2906 
Q 3419 2906 3187 2673 
Q 2956 2441 2956 1928 
L 2956 0 
L 2394 0 
L 2394 2156 
Q 2394 2531 2256 2718 
Q 2119 2906 1806 2906 
Q 1569 2906 1367 2781 
Q 1166 2656 1075 2415 
Q 984 2175 984 1722 
L 984 0 
L 422 0 
z
" id="ArialMT-6d" transform="scale(0.015625)"/>
      <path d="M 422 -1272 
L 422 3319 
L 934 3319 
L 934 2888 
Q 1116 3141 1344 3267 
Q 1572 3394 1897 3394 
Q 2322 3394 2647 3175 
Q 2972 2956 3137 2557 
Q 3303 2159 3303 1684 
Q 3303 1175 3120 767 
Q 2938 359 2589 142 
Q 2241 -75 1856 -75 
Q 1575 -75 1351 44 
Q 1128 163 984 344 
L 984 -1272 
L 422 -1272 
z
M 931 1641 
Q 931 1000 1190 694 
Q 1450 388 1819 388 
Q 2194 388 2461 705 
Q 2728 1022 2728 1688 
Q 2728 2322 2467 2637 
Q 2206 2953 1844 2953 
Q 1484 2953 1207 2617 
Q 931 2281 931 1641 
z
" id="ArialMT-70" transform="scale(0.015625)"/>
      <path d="M 409 0 
L 409 4581 
L 972 4581 
L 972 0 
L 409 0 
z
" id="ArialMT-6c" transform="scale(0.015625)"/>
      <path d="M 2694 1069 
L 3275 997 
Q 3138 488 2766 206 
Q 2394 -75 1816 -75 
Q 1088 -75 661 373 
Q 234 822 234 1631 
Q 234 2469 665 2931 
Q 1097 3394 1784 3394 
Q 2450 3394 2872 2941 
Q 3294 2488 3294 1666 
Q 3294 1616 3291 1516 
L 816 1516 
Q 847 969 1125 678 
Q 1403 388 1819 388 
Q 2128 388 2347 550 
Q 2566 713 2694 1069 
z
M 847 1978 
L 2700 1978 
Q 2663 2397 2488 2606 
Q 2219 2931 1791 2931 
Q 1403 2931 1139 2672 
Q 875 2413 847 1978 
z
" id="ArialMT-65" transform="scale(0.015625)"/>
      <path id="ArialMT-20" transform="scale(0.015625)"/>
      <path d="M 494 0 
L 494 4581 
L 2222 4581 
Q 2678 4581 2919 4538 
Q 3256 4481 3484 4323 
Q 3713 4166 3852 3881 
Q 3991 3597 3991 3256 
Q 3991 2672 3619 2267 
Q 3247 1863 2275 1863 
L 1100 1863 
L 1100 0 
L 494 0 
z
M 1100 2403 
L 2284 2403 
Q 2872 2403 3119 2622 
Q 3366 2841 3366 3238 
Q 3366 3525 3220 3729 
Q 3075 3934 2838 4000 
Q 2684 4041 2272 4041 
L 1100 4041 
L 1100 2403 
z
" id="ArialMT-50" transform="scale(0.015625)"/>
      <path d="M 416 0 
L 416 3319 
L 922 3319 
L 922 2816 
Q 1116 3169 1280 3281 
Q 1444 3394 1641 3394 
Q 1925 3394 2219 3213 
L 2025 2691 
Q 1819 2813 1613 2813 
Q 1428 2813 1281 2702 
Q 1134 2591 1072 2394 
Q 978 2094 978 1738 
L 978 0 
L 416 0 
z
" id="ArialMT-72" transform="scale(0.015625)"/>
      <path d="M 2575 0 
L 2575 419 
Q 2259 -75 1647 -75 
Q 1250 -75 917 144 
Q 584 363 401 755 
Q 219 1147 219 1656 
Q 219 2153 384 2558 
Q 550 2963 881 3178 
Q 1213 3394 1622 3394 
Q 1922 3394 2156 3267 
Q 2391 3141 2538 2938 
L 2538 4581 
L 3097 4581 
L 3097 0 
L 2575 0 
z
M 797 1656 
Q 797 1019 1065 703 
Q 1334 388 1700 388 
Q 2069 388 2326 689 
Q 2584 991 2584 1609 
Q 2584 2291 2321 2609 
Q 2059 2928 1675 2928 
Q 1300 2928 1048 2622 
Q 797 2316 797 1656 
z
" id="ArialMT-64" transform="scale(0.015625)"/>
      <path d="M 425 3934 
L 425 4581 
L 988 4581 
L 988 3934 
L 425 3934 
z
M 425 0 
L 425 3319 
L 988 3319 
L 988 0 
L 425 0 
z
" id="ArialMT-69" transform="scale(0.015625)"/>
      <path d="M 213 1659 
Q 213 2581 725 3025 
Q 1153 3394 1769 3394 
Q 2453 3394 2887 2945 
Q 3322 2497 3322 1706 
Q 3322 1066 3130 698 
Q 2938 331 2570 128 
Q 2203 -75 1769 -75 
Q 1072 -75 642 372 
Q 213 819 213 1659 
z
M 791 1659 
Q 791 1022 1069 705 
Q 1347 388 1769 388 
Q 2188 388 2466 706 
Q 2744 1025 2744 1678 
Q 2744 2294 2464 2611 
Q 2184 2928 1769 2928 
Q 1347 2928 1069 2612 
Q 791 2297 791 1659 
z
" id="ArialMT-6f" transform="scale(0.015625)"/>
      <path d="M 197 991 
L 753 1078 
Q 800 744 1014 566 
Q 1228 388 1613 388 
Q 2000 388 2187 545 
Q 2375 703 2375 916 
Q 2375 1106 2209 1216 
Q 2094 1291 1634 1406 
Q 1016 1563 777 1677 
Q 538 1791 414 1992 
Q 291 2194 291 2438 
Q 291 2659 392 2848 
Q 494 3038 669 3163 
Q 800 3259 1026 3326 
Q 1253 3394 1513 3394 
Q 1903 3394 2198 3281 
Q 2494 3169 2634 2976 
Q 2775 2784 2828 2463 
L 2278 2388 
Q 2241 2644 2061 2787 
Q 1881 2931 1553 2931 
Q 1166 2931 1000 2803 
Q 834 2675 834 2503 
Q 834 2394 903 2306 
Q 972 2216 1119 2156 
Q 1203 2125 1616 2013 
Q 2213 1853 2448 1751 
Q 2684 1650 2818 1456 
Q 2953 1263 2953 975 
Q 2953 694 2789 445 
Q 2625 197 2315 61 
Q 2006 -75 1616 -75 
Q 969 -75 630 194 
Q 291 463 197 991 
z
" id="ArialMT-73" transform="scale(0.015625)"/>
     </defs>
     <use xlink:href="#ArialMT-49"/>
     <use x="27.783203" xlink:href="#ArialMT-6e"/>
     <use x="83.398438" xlink:href="#ArialMT-2d"/>
     <use x="116.699219" xlink:href="#ArialMT-53"/>
     <use x="183.398438" xlink:href="#ArialMT-61"/>
     <use x="239.013672" xlink:href="#ArialMT-6d"/>
     <use x="322.314453" xlink:href="#ArialMT-70"/>
     <use x="377.929688" xlink:href="#ArialMT-6c"/>
     <use x="400.146484" xlink:href="#ArialMT-65"/>
     <use x="455.761719" xlink:href="#ArialMT-20"/>
     <use x="483.544922" xlink:href="#ArialMT-50"/>
     <use x="550.244141" xlink:href="#ArialMT-72"/>
     <use x="583.544922" xlink:href="#ArialMT-65"/>
     <use x="639.160156" xlink:href="#ArialMT-64"/>
     <use x="694.775391" xlink:href="#ArialMT-69"/>
     <use x="716.992188" xlink:href="#ArialMT-63"/>
     <use x="766.992188" xlink:href="#ArialMT-74"/>
     <use x="794.775391" xlink:href="#ArialMT-69"/>
     <use x="816.992188" xlink:href="#ArialMT-6f"/>
     <use x="872.607422" xlink:href="#ArialMT-6e"/>
     <use x="928.222656" xlink:href="#ArialMT-73"/>
    </g>
   </g>
   <g id="legend_1">
    <g id="patch_7">
     <path d="M 56.589063 72.48875 
L 118.601562 72.48875 
Q 120.601562 72.48875 120.601562 70.48875 
L 120.601562 28.935625 
Q 120.601562 26.935625 118.601562 26.935625 
L 56.589063 26.935625 
Q 54.589063 26.935625 54.589063 28.935625 
L 54.589063 70.48875 
Q 54.589063 72.48875 56.589063 72.48875 
z
" style="fill:#e6e6e6;opacity:0.8;stroke:#cccccc;stroke-linejoin:miter;"/>
    </g>
    <g id="line2d_20">
     <path d="M 58.589063 34.593438 
L 78.589063 34.593438 
" style="fill:none;stroke:#4c72b0;stroke-linecap:round;stroke-opacity:0.8;stroke-width:1.5;"/>
    </g>
    <g id="line2d_21"/>
    <g id="text_19">
     <!-- linear -->
     <g style="fill:#262626;" transform="translate(86.589063 38.093438)scale(0.1 -0.1)">
      <use xlink:href="#ArialMT-6c"/>
      <use x="22.216797" xlink:href="#ArialMT-69"/>
      <use x="44.433594" xlink:href="#ArialMT-6e"/>
      <use x="100.048828" xlink:href="#ArialMT-65"/>
      <use x="155.664062" xlink:href="#ArialMT-61"/>
      <use x="211.279297" xlink:href="#ArialMT-72"/>
     </g>
    </g>
    <g id="line2d_22">
     <path d="M 58.589063 48.73875 
L 78.589063 48.73875 
" style="fill:none;stroke:#dd8452;stroke-linecap:round;stroke-opacity:0.8;stroke-width:1.5;"/>
    </g>
    <g id="line2d_23"/>
    <g id="text_20">
     <!-- tree -->
     <g style="fill:#262626;" transform="translate(86.589063 52.23875)scale(0.1 -0.1)">
      <use xlink:href="#ArialMT-74"/>
      <use x="27.783203" xlink:href="#ArialMT-72"/>
      <use x="61.083984" xlink:href="#ArialMT-65"/>
      <use x="116.699219" xlink:href="#ArialMT-65"/>
     </g>
    </g>
    <g id="line2d_24">
     <path d="M 58.589063 62.884063 
L 78.589063 62.884063 
" style="fill:none;stroke:#000000;stroke-linecap:round;stroke-width:1.5;"/>
    </g>
    <g id="line2d_25"/>
    <g id="text_21">
     <!-- y_train -->
     <g style="fill:#262626;" transform="translate(86.589063 66.384063)scale(0.1 -0.1)">
      <defs>
       <path d="M 397 -1278 
L 334 -750 
Q 519 -800 656 -800 
Q 844 -800 956 -737 
Q 1069 -675 1141 -563 
Q 1194 -478 1313 -144 
Q 1328 -97 1363 -6 
L 103 3319 
L 709 3319 
L 1400 1397 
Q 1534 1031 1641 628 
Q 1738 1016 1872 1384 
L 2581 3319 
L 3144 3319 
L 1881 -56 
Q 1678 -603 1566 -809 
Q 1416 -1088 1222 -1217 
Q 1028 -1347 759 -1347 
Q 597 -1347 397 -1278 
z
" id="ArialMT-79" transform="scale(0.015625)"/>
       <path d="M -97 -1272 
L -97 -866 
L 3631 -866 
L 3631 -1272 
L -97 -1272 
z
" id="ArialMT-5f" transform="scale(0.015625)"/>
      </defs>
      <use xlink:href="#ArialMT-79"/>
      <use x="50" xlink:href="#ArialMT-5f"/>
      <use x="105.615234" xlink:href="#ArialMT-74"/>
      <use x="133.398438" xlink:href="#ArialMT-72"/>
      <use x="166.699219" xlink:href="#ArialMT-61"/>
      <use x="222.314453" xlink:href="#ArialMT-69"/>
      <use x="244.53125" xlink:href="#ArialMT-6e"/>
     </g>
    </g>
   </g>
  </g>
 </g>
 <defs>
  <clipPath id="pe2f58bc8e3">
   <rect height="326.16" width="558" x="49.589063" y="21.935625"/>
  </clipPath>
 </defs>
</svg>
