<?xml version="1.0" encoding="utf-8" standalone="no"?>
<!DOCTYPE svg PUBLIC "-//W3C//DTD SVG 1.1//EN"
  "http://www.w3.org/Graphics/SVG/1.1/DTD/svg11.dtd">
<svg height="368.39952pt" version="1.1" viewBox="0 0 728.390803 368.39952" width="728.390803pt" xmlns="http://www.w3.org/2000/svg" xmlns:xlink="http://www.w3.org/1999/xlink">
 <metadata>
  <rdf:RDF xmlns:cc="http://creativecommons.org/ns#" xmlns:dc="http://purl.org/dc/elements/1.1/" xmlns:rdf="http://www.w3.org/1999/02/22-rdf-syntax-ns#">
   <cc:Work>
    <dc:type rdf:resource="http://purl.org/dc/dcmitype/StillImage"/>
    <dc:date>2021-10-31T20:17:11.418834</dc:date>
    <dc:format>image/svg+xml</dc:format>
    <dc:creator>
     <cc:Agent>
      <dc:title>Matplotlib v3.4.3, https://matplotlib.org/</dc:title>
     </cc:Agent>
    </dc:creator>
   </cc:Work>
  </rdf:RDF>
 </metadata>
 <defs>
  <style type="text/css">*{stroke-linecap:butt;stroke-linejoin:round;}</style>
 </defs>
 <g id="figure_1">
  <g id="patch_1">
   <path d="M 0 368.39952 
L 728.390803 368.39952 
L 728.390803 0 
L 0 0 
z
" style="fill:#ffffff;"/>
  </g>
  <g id="axes_1">
   <g id="patch_2">
    <path d="M 91.29375 345.054207 
L 357.199593 345.054207 
L 357.199593 38.76423 
L 91.29375 38.76423 
z
" style="fill:#e6e6e6;"/>
   </g>
   <g id="matplotlib.axis_1">
    <g id="xtick_1">
     <g id="line2d_1">
      <path clip-path="url(#p26c050c4ec)" d="M 91.29375 345.054207 
L 91.29375 38.76423 
" style="fill:none;stroke:#cccccc;stroke-linecap:round;stroke-width:0.8;"/>
     </g>
     <g id="text_1">
      <!-- 0 -->
      <g style="fill:#262626;" transform="translate(88.513281 359.21202)scale(0.1 -0.1)">
       <defs>
        <path d="M 266 2259 
Q 266 3072 433 3567 
Q 600 4063 929 4331 
Q 1259 4600 1759 4600 
Q 2128 4600 2406 4451 
Q 2684 4303 2865 4023 
Q 3047 3744 3150 3342 
Q 3253 2941 3253 2259 
Q 3253 1453 3087 958 
Q 2922 463 2592 192 
Q 2263 -78 1759 -78 
Q 1097 -78 719 397 
Q 266 969 266 2259 
z
M 844 2259 
Q 844 1131 1108 757 
Q 1372 384 1759 384 
Q 2147 384 2411 759 
Q 2675 1134 2675 2259 
Q 2675 3391 2411 3762 
Q 2147 4134 1753 4134 
Q 1366 4134 1134 3806 
Q 844 3388 844 2259 
z
" id="ArialMT-30" transform="scale(0.015625)"/>
       </defs>
       <use xlink:href="#ArialMT-30"/>
      </g>
     </g>
    </g>
    <g id="xtick_2">
     <g id="line2d_2">
      <path clip-path="url(#p26c050c4ec)" d="M 142.719447 345.054207 
L 142.719447 38.76423 
" style="fill:none;stroke:#cccccc;stroke-linecap:round;stroke-width:0.8;"/>
     </g>
     <g id="text_2">
      <!-- 200 -->
      <g style="fill:#262626;" transform="translate(134.378041 359.21202)scale(0.1 -0.1)">
       <defs>
        <path d="M 3222 541 
L 3222 0 
L 194 0 
Q 188 203 259 391 
Q 375 700 629 1000 
Q 884 1300 1366 1694 
Q 2113 2306 2375 2664 
Q 2638 3022 2638 3341 
Q 2638 3675 2398 3904 
Q 2159 4134 1775 4134 
Q 1369 4134 1125 3890 
Q 881 3647 878 3216 
L 300 3275 
Q 359 3922 746 4261 
Q 1134 4600 1788 4600 
Q 2447 4600 2831 4234 
Q 3216 3869 3216 3328 
Q 3216 3053 3103 2787 
Q 2991 2522 2730 2228 
Q 2469 1934 1863 1422 
Q 1356 997 1212 845 
Q 1069 694 975 541 
L 3222 541 
z
" id="ArialMT-32" transform="scale(0.015625)"/>
       </defs>
       <use xlink:href="#ArialMT-32"/>
       <use x="55.615234" xlink:href="#ArialMT-30"/>
       <use x="111.230469" xlink:href="#ArialMT-30"/>
      </g>
     </g>
    </g>
    <g id="xtick_3">
     <g id="line2d_3">
      <path clip-path="url(#p26c050c4ec)" d="M 194.145144 345.054207 
L 194.145144 38.76423 
" style="fill:none;stroke:#cccccc;stroke-linecap:round;stroke-width:0.8;"/>
     </g>
     <g id="text_3">
      <!-- 400 -->
      <g style="fill:#262626;" transform="translate(185.803738 359.21202)scale(0.1 -0.1)">
       <defs>
        <path d="M 2069 0 
L 2069 1097 
L 81 1097 
L 81 1613 
L 2172 4581 
L 2631 4581 
L 2631 1613 
L 3250 1613 
L 3250 1097 
L 2631 1097 
L 2631 0 
L 2069 0 
z
M 2069 1613 
L 2069 3678 
L 634 1613 
L 2069 1613 
z
" id="ArialMT-34" transform="scale(0.015625)"/>
       </defs>
       <use xlink:href="#ArialMT-34"/>
       <use x="55.615234" xlink:href="#ArialMT-30"/>
       <use x="111.230469" xlink:href="#ArialMT-30"/>
      </g>
     </g>
    </g>
    <g id="xtick_4">
     <g id="line2d_4">
      <path clip-path="url(#p26c050c4ec)" d="M 245.570841 345.054207 
L 245.570841 38.76423 
" style="fill:none;stroke:#cccccc;stroke-linecap:round;stroke-width:0.8;"/>
     </g>
     <g id="text_4">
      <!-- 600 -->
      <g style="fill:#262626;" transform="translate(237.229435 359.21202)scale(0.1 -0.1)">
       <defs>
        <path d="M 3184 3459 
L 2625 3416 
Q 2550 3747 2413 3897 
Q 2184 4138 1850 4138 
Q 1581 4138 1378 3988 
Q 1113 3794 959 3422 
Q 806 3050 800 2363 
Q 1003 2672 1297 2822 
Q 1591 2972 1913 2972 
Q 2475 2972 2870 2558 
Q 3266 2144 3266 1488 
Q 3266 1056 3080 686 
Q 2894 316 2569 119 
Q 2244 -78 1831 -78 
Q 1128 -78 684 439 
Q 241 956 241 2144 
Q 241 3472 731 4075 
Q 1159 4600 1884 4600 
Q 2425 4600 2770 4297 
Q 3116 3994 3184 3459 
z
M 888 1484 
Q 888 1194 1011 928 
Q 1134 663 1356 523 
Q 1578 384 1822 384 
Q 2178 384 2434 671 
Q 2691 959 2691 1453 
Q 2691 1928 2437 2201 
Q 2184 2475 1800 2475 
Q 1419 2475 1153 2201 
Q 888 1928 888 1484 
z
" id="ArialMT-36" transform="scale(0.015625)"/>
       </defs>
       <use xlink:href="#ArialMT-36"/>
       <use x="55.615234" xlink:href="#ArialMT-30"/>
       <use x="111.230469" xlink:href="#ArialMT-30"/>
      </g>
     </g>
    </g>
    <g id="xtick_5">
     <g id="line2d_5">
      <path clip-path="url(#p26c050c4ec)" d="M 296.996538 345.054207 
L 296.996538 38.76423 
" style="fill:none;stroke:#cccccc;stroke-linecap:round;stroke-width:0.8;"/>
     </g>
     <g id="text_5">
      <!-- 800 -->
      <g style="fill:#262626;" transform="translate(288.655132 359.21202)scale(0.1 -0.1)">
       <defs>
        <path d="M 1131 2484 
Q 781 2613 612 2850 
Q 444 3088 444 3419 
Q 444 3919 803 4259 
Q 1163 4600 1759 4600 
Q 2359 4600 2725 4251 
Q 3091 3903 3091 3403 
Q 3091 3084 2923 2848 
Q 2756 2613 2416 2484 
Q 2838 2347 3058 2040 
Q 3278 1734 3278 1309 
Q 3278 722 2862 322 
Q 2447 -78 1769 -78 
Q 1091 -78 675 323 
Q 259 725 259 1325 
Q 259 1772 486 2073 
Q 713 2375 1131 2484 
z
M 1019 3438 
Q 1019 3113 1228 2906 
Q 1438 2700 1772 2700 
Q 2097 2700 2305 2904 
Q 2513 3109 2513 3406 
Q 2513 3716 2298 3927 
Q 2084 4138 1766 4138 
Q 1444 4138 1231 3931 
Q 1019 3725 1019 3438 
z
M 838 1322 
Q 838 1081 952 856 
Q 1066 631 1291 507 
Q 1516 384 1775 384 
Q 2178 384 2440 643 
Q 2703 903 2703 1303 
Q 2703 1709 2433 1975 
Q 2163 2241 1756 2241 
Q 1359 2241 1098 1978 
Q 838 1716 838 1322 
z
" id="ArialMT-38" transform="scale(0.015625)"/>
       </defs>
       <use xlink:href="#ArialMT-38"/>
       <use x="55.615234" xlink:href="#ArialMT-30"/>
       <use x="111.230469" xlink:href="#ArialMT-30"/>
      </g>
     </g>
    </g>
    <g id="xtick_6">
     <g id="line2d_6">
      <path clip-path="url(#p26c050c4ec)" d="M 348.422236 345.054207 
L 348.422236 38.76423 
" style="fill:none;stroke:#cccccc;stroke-linecap:round;stroke-width:0.8;"/>
     </g>
     <g id="text_6">
      <!-- 1000 -->
      <g style="fill:#262626;" transform="translate(337.300361 359.21202)scale(0.1 -0.1)">
       <defs>
        <path d="M 2384 0 
L 1822 0 
L 1822 3584 
Q 1619 3391 1289 3197 
Q 959 3003 697 2906 
L 697 3450 
Q 1169 3672 1522 3987 
Q 1875 4303 2022 4600 
L 2384 4600 
L 2384 0 
z
" id="ArialMT-31" transform="scale(0.015625)"/>
       </defs>
       <use xlink:href="#ArialMT-31"/>
       <use x="55.615234" xlink:href="#ArialMT-30"/>
       <use x="111.230469" xlink:href="#ArialMT-30"/>
       <use x="166.845703" xlink:href="#ArialMT-30"/>
      </g>
     </g>
    </g>
   </g>
   <g id="matplotlib.axis_2">
    <g id="ytick_1">
     <g id="text_7">
      <!-- temp -->
      <g style="fill:#262626;" transform="translate(62.064063 56.265408)scale(0.1 -0.1)">
       <defs>
        <path d="M 1650 503 
L 1731 6 
Q 1494 -44 1306 -44 
Q 1000 -44 831 53 
Q 663 150 594 308 
Q 525 466 525 972 
L 525 2881 
L 113 2881 
L 113 3319 
L 525 3319 
L 525 4141 
L 1084 4478 
L 1084 3319 
L 1650 3319 
L 1650 2881 
L 1084 2881 
L 1084 941 
Q 1084 700 1114 631 
Q 1144 563 1211 522 
Q 1278 481 1403 481 
Q 1497 481 1650 503 
z
" id="ArialMT-74" transform="scale(0.015625)"/>
        <path d="M 2694 1069 
L 3275 997 
Q 3138 488 2766 206 
Q 2394 -75 1816 -75 
Q 1088 -75 661 373 
Q 234 822 234 1631 
Q 234 2469 665 2931 
Q 1097 3394 1784 3394 
Q 2450 3394 2872 2941 
Q 3294 2488 3294 1666 
Q 3294 1616 3291 1516 
L 816 1516 
Q 847 969 1125 678 
Q 1403 388 1819 388 
Q 2128 388 2347 550 
Q 2566 713 2694 1069 
z
M 847 1978 
L 2700 1978 
Q 2663 2397 2488 2606 
Q 2219 2931 1791 2931 
Q 1403 2931 1139 2672 
Q 875 2413 847 1978 
z
" id="ArialMT-65" transform="scale(0.015625)"/>
        <path d="M 422 0 
L 422 3319 
L 925 3319 
L 925 2853 
Q 1081 3097 1340 3245 
Q 1600 3394 1931 3394 
Q 2300 3394 2536 3241 
Q 2772 3088 2869 2813 
Q 3263 3394 3894 3394 
Q 4388 3394 4653 3120 
Q 4919 2847 4919 2278 
L 4919 0 
L 4359 0 
L 4359 2091 
Q 4359 2428 4304 2576 
Q 4250 2725 4106 2815 
Q 3963 2906 3769 2906 
Q 3419 2906 3187 2673 
Q 2956 2441 2956 1928 
L 2956 0 
L 2394 0 
L 2394 2156 
Q 2394 2531 2256 2718 
Q 2119 2906 1806 2906 
Q 1569 2906 1367 2781 
Q 1166 2656 1075 2415 
Q 984 2175 984 1722 
L 984 0 
L 422 0 
z
" id="ArialMT-6d" transform="scale(0.015625)"/>
        <path d="M 422 -1272 
L 422 3319 
L 934 3319 
L 934 2888 
Q 1116 3141 1344 3267 
Q 1572 3394 1897 3394 
Q 2322 3394 2647 3175 
Q 2972 2956 3137 2557 
Q 3303 2159 3303 1684 
Q 3303 1175 3120 767 
Q 2938 359 2589 142 
Q 2241 -75 1856 -75 
Q 1575 -75 1351 44 
Q 1128 163 984 344 
L 984 -1272 
L 422 -1272 
z
M 931 1641 
Q 931 1000 1190 694 
Q 1450 388 1819 388 
Q 2194 388 2461 705 
Q 2728 1022 2728 1688 
Q 2728 2322 2467 2637 
Q 2206 2953 1844 2953 
Q 1484 2953 1207 2617 
Q 931 2281 931 1641 
z
" id="ArialMT-70" transform="scale(0.015625)"/>
       </defs>
       <use xlink:href="#ArialMT-74"/>
       <use x="27.783203" xlink:href="#ArialMT-65"/>
       <use x="83.398438" xlink:href="#ArialMT-6d"/>
       <use x="166.699219" xlink:href="#ArialMT-70"/>
      </g>
     </g>
    </g>
    <g id="ytick_2">
     <g id="text_8">
      <!-- days_since_2011 -->
      <g style="fill:#262626;" transform="translate(7.2 84.124795)scale(0.1 -0.1)">
       <defs>
        <path d="M 2575 0 
L 2575 419 
Q 2259 -75 1647 -75 
Q 1250 -75 917 144 
Q 584 363 401 755 
Q 219 1147 219 1656 
Q 219 2153 384 2558 
Q 550 2963 881 3178 
Q 1213 3394 1622 3394 
Q 1922 3394 2156 3267 
Q 2391 3141 2538 2938 
L 2538 4581 
L 3097 4581 
L 3097 0 
L 2575 0 
z
M 797 1656 
Q 797 1019 1065 703 
Q 1334 388 1700 388 
Q 2069 388 2326 689 
Q 2584 991 2584 1609 
Q 2584 2291 2321 2609 
Q 2059 2928 1675 2928 
Q 1300 2928 1048 2622 
Q 797 2316 797 1656 
z
" id="ArialMT-64" transform="scale(0.015625)"/>
        <path d="M 2588 409 
Q 2275 144 1986 34 
Q 1697 -75 1366 -75 
Q 819 -75 525 192 
Q 231 459 231 875 
Q 231 1119 342 1320 
Q 453 1522 633 1644 
Q 813 1766 1038 1828 
Q 1203 1872 1538 1913 
Q 2219 1994 2541 2106 
Q 2544 2222 2544 2253 
Q 2544 2597 2384 2738 
Q 2169 2928 1744 2928 
Q 1347 2928 1158 2789 
Q 969 2650 878 2297 
L 328 2372 
Q 403 2725 575 2942 
Q 747 3159 1072 3276 
Q 1397 3394 1825 3394 
Q 2250 3394 2515 3294 
Q 2781 3194 2906 3042 
Q 3031 2891 3081 2659 
Q 3109 2516 3109 2141 
L 3109 1391 
Q 3109 606 3145 398 
Q 3181 191 3288 0 
L 2700 0 
Q 2613 175 2588 409 
z
M 2541 1666 
Q 2234 1541 1622 1453 
Q 1275 1403 1131 1340 
Q 988 1278 909 1158 
Q 831 1038 831 891 
Q 831 666 1001 516 
Q 1172 366 1500 366 
Q 1825 366 2078 508 
Q 2331 650 2450 897 
Q 2541 1088 2541 1459 
L 2541 1666 
z
" id="ArialMT-61" transform="scale(0.015625)"/>
        <path d="M 397 -1278 
L 334 -750 
Q 519 -800 656 -800 
Q 844 -800 956 -737 
Q 1069 -675 1141 -563 
Q 1194 -478 1313 -144 
Q 1328 -97 1363 -6 
L 103 3319 
L 709 3319 
L 1400 1397 
Q 1534 1031 1641 628 
Q 1738 1016 1872 1384 
L 2581 3319 
L 3144 3319 
L 1881 -56 
Q 1678 -603 1566 -809 
Q 1416 -1088 1222 -1217 
Q 1028 -1347 759 -1347 
Q 597 -1347 397 -1278 
z
" id="ArialMT-79" transform="scale(0.015625)"/>
        <path d="M 197 991 
L 753 1078 
Q 800 744 1014 566 
Q 1228 388 1613 388 
Q 2000 388 2187 545 
Q 2375 703 2375 916 
Q 2375 1106 2209 1216 
Q 2094 1291 1634 1406 
Q 1016 1563 777 1677 
Q 538 1791 414 1992 
Q 291 2194 291 2438 
Q 291 2659 392 2848 
Q 494 3038 669 3163 
Q 800 3259 1026 3326 
Q 1253 3394 1513 3394 
Q 1903 3394 2198 3281 
Q 2494 3169 2634 2976 
Q 2775 2784 2828 2463 
L 2278 2388 
Q 2241 2644 2061 2787 
Q 1881 2931 1553 2931 
Q 1166 2931 1000 2803 
Q 834 2675 834 2503 
Q 834 2394 903 2306 
Q 972 2216 1119 2156 
Q 1203 2125 1616 2013 
Q 2213 1853 2448 1751 
Q 2684 1650 2818 1456 
Q 2953 1263 2953 975 
Q 2953 694 2789 445 
Q 2625 197 2315 61 
Q 2006 -75 1616 -75 
Q 969 -75 630 194 
Q 291 463 197 991 
z
" id="ArialMT-73" transform="scale(0.015625)"/>
        <path d="M -97 -1272 
L -97 -866 
L 3631 -866 
L 3631 -1272 
L -97 -1272 
z
" id="ArialMT-5f" transform="scale(0.015625)"/>
        <path d="M 425 3934 
L 425 4581 
L 988 4581 
L 988 3934 
L 425 3934 
z
M 425 0 
L 425 3319 
L 988 3319 
L 988 0 
L 425 0 
z
" id="ArialMT-69" transform="scale(0.015625)"/>
        <path d="M 422 0 
L 422 3319 
L 928 3319 
L 928 2847 
Q 1294 3394 1984 3394 
Q 2284 3394 2536 3286 
Q 2788 3178 2913 3003 
Q 3038 2828 3088 2588 
Q 3119 2431 3119 2041 
L 3119 0 
L 2556 0 
L 2556 2019 
Q 2556 2363 2490 2533 
Q 2425 2703 2258 2804 
Q 2091 2906 1866 2906 
Q 1506 2906 1245 2678 
Q 984 2450 984 1813 
L 984 0 
L 422 0 
z
" id="ArialMT-6e" transform="scale(0.015625)"/>
        <path d="M 2588 1216 
L 3141 1144 
Q 3050 572 2676 248 
Q 2303 -75 1759 -75 
Q 1078 -75 664 370 
Q 250 816 250 1647 
Q 250 2184 428 2587 
Q 606 2991 970 3192 
Q 1334 3394 1763 3394 
Q 2303 3394 2647 3120 
Q 2991 2847 3088 2344 
L 2541 2259 
Q 2463 2594 2264 2762 
Q 2066 2931 1784 2931 
Q 1359 2931 1093 2626 
Q 828 2322 828 1663 
Q 828 994 1084 691 
Q 1341 388 1753 388 
Q 2084 388 2306 591 
Q 2528 794 2588 1216 
z
" id="ArialMT-63" transform="scale(0.015625)"/>
       </defs>
       <use xlink:href="#ArialMT-64"/>
       <use x="55.615234" xlink:href="#ArialMT-61"/>
       <use x="111.230469" xlink:href="#ArialMT-79"/>
       <use x="161.230469" xlink:href="#ArialMT-73"/>
       <use x="211.230469" xlink:href="#ArialMT-5f"/>
       <use x="266.845703" xlink:href="#ArialMT-73"/>
       <use x="316.845703" xlink:href="#ArialMT-69"/>
       <use x="339.0625" xlink:href="#ArialMT-6e"/>
       <use x="394.677734" xlink:href="#ArialMT-63"/>
       <use x="444.677734" xlink:href="#ArialMT-65"/>
       <use x="500.292969" xlink:href="#ArialMT-5f"/>
       <use x="555.908203" xlink:href="#ArialMT-32"/>
       <use x="611.523438" xlink:href="#ArialMT-30"/>
       <use x="667.138672" xlink:href="#ArialMT-31"/>
       <use x="715.378906" xlink:href="#ArialMT-31"/>
      </g>
     </g>
    </g>
    <g id="ytick_3">
     <g id="text_9">
      <!-- season -->
      <g style="fill:#262626;" transform="translate(52.05 111.954495)scale(0.1 -0.1)">
       <defs>
        <path d="M 213 1659 
Q 213 2581 725 3025 
Q 1153 3394 1769 3394 
Q 2453 3394 2887 2945 
Q 3322 2497 3322 1706 
Q 3322 1066 3130 698 
Q 2938 331 2570 128 
Q 2203 -75 1769 -75 
Q 1072 -75 642 372 
Q 213 819 213 1659 
z
M 791 1659 
Q 791 1022 1069 705 
Q 1347 388 1769 388 
Q 2188 388 2466 706 
Q 2744 1025 2744 1678 
Q 2744 2294 2464 2611 
Q 2184 2928 1769 2928 
Q 1347 2928 1069 2612 
Q 791 2297 791 1659 
z
" id="ArialMT-6f" transform="scale(0.015625)"/>
       </defs>
       <use xlink:href="#ArialMT-73"/>
       <use x="50" xlink:href="#ArialMT-65"/>
       <use x="105.615234" xlink:href="#ArialMT-61"/>
       <use x="161.230469" xlink:href="#ArialMT-73"/>
       <use x="211.230469" xlink:href="#ArialMT-6f"/>
       <use x="266.845703" xlink:href="#ArialMT-6e"/>
      </g>
     </g>
    </g>
    <g id="ytick_4">
     <g id="text_10">
      <!-- mnth -->
      <g style="fill:#262626;" transform="translate(62.064063 139.799038)scale(0.1 -0.1)">
       <defs>
        <path d="M 422 0 
L 422 4581 
L 984 4581 
L 984 2938 
Q 1378 3394 1978 3394 
Q 2347 3394 2619 3248 
Q 2891 3103 3008 2847 
Q 3125 2591 3125 2103 
L 3125 0 
L 2563 0 
L 2563 2103 
Q 2563 2525 2380 2717 
Q 2197 2909 1863 2909 
Q 1613 2909 1392 2779 
Q 1172 2650 1078 2428 
Q 984 2206 984 1816 
L 984 0 
L 422 0 
z
" id="ArialMT-68" transform="scale(0.015625)"/>
       </defs>
       <use xlink:href="#ArialMT-6d"/>
       <use x="83.300781" xlink:href="#ArialMT-6e"/>
       <use x="138.916016" xlink:href="#ArialMT-74"/>
       <use x="166.699219" xlink:href="#ArialMT-68"/>
      </g>
     </g>
    </g>
    <g id="ytick_5">
     <g id="text_11">
      <!-- yr -->
      <g style="fill:#262626;" transform="translate(75.964062 167.584988)scale(0.1 -0.1)">
       <defs>
        <path d="M 416 0 
L 416 3319 
L 922 3319 
L 922 2816 
Q 1116 3169 1280 3281 
Q 1444 3394 1641 3394 
Q 1925 3394 2219 3213 
L 2025 2691 
Q 1819 2813 1613 2813 
Q 1428 2813 1281 2702 
Q 1134 2591 1072 2394 
Q 978 2094 978 1738 
L 978 0 
L 416 0 
z
" id="ArialMT-72" transform="scale(0.015625)"/>
       </defs>
       <use xlink:href="#ArialMT-79"/>
       <use x="50" xlink:href="#ArialMT-72"/>
      </g>
     </g>
    </g>
    <g id="ytick_6">
     <g id="text_12">
      <!-- weathersit -->
      <g style="fill:#262626;" transform="translate(38.720312 195.488125)scale(0.1 -0.1)">
       <defs>
        <path d="M 1034 0 
L 19 3319 
L 600 3319 
L 1128 1403 
L 1325 691 
Q 1338 744 1497 1375 
L 2025 3319 
L 2603 3319 
L 3100 1394 
L 3266 759 
L 3456 1400 
L 4025 3319 
L 4572 3319 
L 3534 0 
L 2950 0 
L 2422 1988 
L 2294 2553 
L 1622 0 
L 1034 0 
z
" id="ArialMT-77" transform="scale(0.015625)"/>
       </defs>
       <use xlink:href="#ArialMT-77"/>
       <use x="72.216797" xlink:href="#ArialMT-65"/>
       <use x="127.832031" xlink:href="#ArialMT-61"/>
       <use x="183.447266" xlink:href="#ArialMT-74"/>
       <use x="211.230469" xlink:href="#ArialMT-68"/>
       <use x="266.845703" xlink:href="#ArialMT-65"/>
       <use x="322.460938" xlink:href="#ArialMT-72"/>
       <use x="355.761719" xlink:href="#ArialMT-73"/>
       <use x="405.761719" xlink:href="#ArialMT-69"/>
       <use x="427.978516" xlink:href="#ArialMT-74"/>
      </g>
     </g>
    </g>
    <g id="ytick_7">
     <g id="text_13">
      <!-- hum -->
      <g style="fill:#262626;" transform="translate(64.842187 223.332668)scale(0.1 -0.1)">
       <defs>
        <path d="M 2597 0 
L 2597 488 
Q 2209 -75 1544 -75 
Q 1250 -75 995 37 
Q 741 150 617 320 
Q 494 491 444 738 
Q 409 903 409 1263 
L 409 3319 
L 972 3319 
L 972 1478 
Q 972 1038 1006 884 
Q 1059 663 1231 536 
Q 1403 409 1656 409 
Q 1909 409 2131 539 
Q 2353 669 2445 892 
Q 2538 1116 2538 1541 
L 2538 3319 
L 3100 3319 
L 3100 0 
L 2597 0 
z
" id="ArialMT-75" transform="scale(0.015625)"/>
       </defs>
       <use xlink:href="#ArialMT-68"/>
       <use x="55.615234" xlink:href="#ArialMT-75"/>
       <use x="111.230469" xlink:href="#ArialMT-6d"/>
      </g>
     </g>
    </g>
    <g id="ytick_8">
     <g id="text_14">
      <!-- windspeed -->
      <g style="fill:#262626;" transform="translate(36.484375 251.177212)scale(0.1 -0.1)">
       <use xlink:href="#ArialMT-77"/>
       <use x="72.216797" xlink:href="#ArialMT-69"/>
       <use x="94.433594" xlink:href="#ArialMT-6e"/>
       <use x="150.048828" xlink:href="#ArialMT-64"/>
       <use x="205.664062" xlink:href="#ArialMT-73"/>
       <use x="255.664062" xlink:href="#ArialMT-70"/>
       <use x="311.279297" xlink:href="#ArialMT-65"/>
       <use x="366.894531" xlink:href="#ArialMT-65"/>
       <use x="422.509766" xlink:href="#ArialMT-64"/>
      </g>
     </g>
    </g>
    <g id="ytick_9">
     <g id="text_15">
      <!-- workingday -->
      <g style="fill:#262626;" transform="translate(33.715625 279.021755)scale(0.1 -0.1)">
       <defs>
        <path d="M 425 0 
L 425 4581 
L 988 4581 
L 988 1969 
L 2319 3319 
L 3047 3319 
L 1778 2088 
L 3175 0 
L 2481 0 
L 1384 1697 
L 988 1316 
L 988 0 
L 425 0 
z
" id="ArialMT-6b" transform="scale(0.015625)"/>
        <path d="M 319 -275 
L 866 -356 
Q 900 -609 1056 -725 
Q 1266 -881 1628 -881 
Q 2019 -881 2231 -725 
Q 2444 -569 2519 -288 
Q 2563 -116 2559 434 
Q 2191 0 1641 0 
Q 956 0 581 494 
Q 206 988 206 1678 
Q 206 2153 378 2554 
Q 550 2956 876 3175 
Q 1203 3394 1644 3394 
Q 2231 3394 2613 2919 
L 2613 3319 
L 3131 3319 
L 3131 450 
Q 3131 -325 2973 -648 
Q 2816 -972 2473 -1159 
Q 2131 -1347 1631 -1347 
Q 1038 -1347 672 -1080 
Q 306 -813 319 -275 
z
M 784 1719 
Q 784 1066 1043 766 
Q 1303 466 1694 466 
Q 2081 466 2343 764 
Q 2606 1063 2606 1700 
Q 2606 2309 2336 2618 
Q 2066 2928 1684 2928 
Q 1309 2928 1046 2623 
Q 784 2319 784 1719 
z
" id="ArialMT-67" transform="scale(0.015625)"/>
       </defs>
       <use xlink:href="#ArialMT-77"/>
       <use x="72.216797" xlink:href="#ArialMT-6f"/>
       <use x="127.832031" xlink:href="#ArialMT-72"/>
       <use x="161.132812" xlink:href="#ArialMT-6b"/>
       <use x="211.132812" xlink:href="#ArialMT-69"/>
       <use x="233.349609" xlink:href="#ArialMT-6e"/>
       <use x="288.964844" xlink:href="#ArialMT-67"/>
       <use x="344.580078" xlink:href="#ArialMT-64"/>
       <use x="400.195312" xlink:href="#ArialMT-61"/>
       <use x="455.810547" xlink:href="#ArialMT-79"/>
      </g>
     </g>
    </g>
    <g id="ytick_10">
     <g id="text_16">
      <!-- weekday -->
      <g style="fill:#262626;" transform="translate(44.828125 306.866299)scale(0.1 -0.1)">
       <use xlink:href="#ArialMT-77"/>
       <use x="72.216797" xlink:href="#ArialMT-65"/>
       <use x="127.832031" xlink:href="#ArialMT-65"/>
       <use x="183.447266" xlink:href="#ArialMT-6b"/>
       <use x="233.447266" xlink:href="#ArialMT-64"/>
       <use x="289.0625" xlink:href="#ArialMT-61"/>
       <use x="344.677734" xlink:href="#ArialMT-79"/>
      </g>
     </g>
    </g>
    <g id="ytick_11">
     <g id="text_17">
      <!-- holiday -->
      <g style="fill:#262626;" transform="translate(52.60625 334.710842)scale(0.1 -0.1)">
       <defs>
        <path d="M 409 0 
L 409 4581 
L 972 4581 
L 972 0 
L 409 0 
z
" id="ArialMT-6c" transform="scale(0.015625)"/>
       </defs>
       <use xlink:href="#ArialMT-68"/>
       <use x="55.615234" xlink:href="#ArialMT-6f"/>
       <use x="111.230469" xlink:href="#ArialMT-6c"/>
       <use x="133.447266" xlink:href="#ArialMT-69"/>
       <use x="155.664062" xlink:href="#ArialMT-64"/>
       <use x="211.279297" xlink:href="#ArialMT-61"/>
       <use x="266.894531" xlink:href="#ArialMT-79"/>
      </g>
     </g>
    </g>
   </g>
   <g id="patch_3">
    <path clip-path="url(#p26c050c4ec)" d="M 91.29375 41.548684 
L 344.53741 41.548684 
L 344.53741 63.824319 
L 91.29375 63.824319 
z
" style="fill:#5875a4;stroke:#ffffff;stroke-linejoin:miter;"/>
   </g>
   <g id="patch_4">
    <path clip-path="url(#p26c050c4ec)" d="M 91.29375 69.393228 
L 266.225372 69.393228 
L 266.225372 91.668862 
L 91.29375 91.668862 
z
" style="fill:#5875a4;stroke:#ffffff;stroke-linejoin:miter;"/>
   </g>
   <g id="patch_5">
    <path clip-path="url(#p26c050c4ec)" d="M 91.29375 97.237771 
L 261.768088 97.237771 
L 261.768088 119.513406 
L 91.29375 119.513406 
z
" style="fill:#5875a4;stroke:#ffffff;stroke-linejoin:miter;"/>
   </g>
   <g id="patch_6">
    <path clip-path="url(#p26c050c4ec)" d="M 91.29375 125.082315 
L 193.411313 125.082315 
L 193.411313 147.357949 
L 91.29375 147.357949 
z
" style="fill:#5875a4;stroke:#ffffff;stroke-linejoin:miter;"/>
   </g>
   <g id="patch_7">
    <path clip-path="url(#p26c050c4ec)" d="M 91.29375 152.926858 
L 180.875865 152.926858 
L 180.875865 175.202493 
L 91.29375 175.202493 
z
" style="fill:#5875a4;stroke:#ffffff;stroke-linejoin:miter;"/>
   </g>
   <g id="patch_8">
    <path clip-path="url(#p26c050c4ec)" d="M 91.29375 180.771401 
L 151.617182 180.771401 
L 151.617182 203.047036 
L 91.29375 203.047036 
z
" style="fill:#5875a4;stroke:#ffffff;stroke-linejoin:miter;"/>
   </g>
   <g id="patch_9">
    <path clip-path="url(#p26c050c4ec)" d="M 91.29375 208.615945 
L 139.135164 208.615945 
L 139.135164 230.89158 
L 91.29375 230.89158 
z
" style="fill:#5875a4;stroke:#ffffff;stroke-linejoin:miter;"/>
   </g>
   <g id="patch_10">
    <path clip-path="url(#p26c050c4ec)" d="M 91.29375 236.460488 
L 123.888508 236.460488 
L 123.888508 258.736123 
L 91.29375 258.736123 
z
" style="fill:#5875a4;stroke:#ffffff;stroke-linejoin:miter;"/>
   </g>
   <g id="patch_11">
    <path clip-path="url(#p26c050c4ec)" d="M 91.29375 264.305032 
L 104.05005 264.305032 
L 104.05005 286.580666 
L 91.29375 286.580666 
z
" style="fill:#5875a4;stroke:#ffffff;stroke-linejoin:miter;"/>
   </g>
   <g id="patch_12">
    <path clip-path="url(#p26c050c4ec)" d="M 91.29375 292.149575 
L 103.331142 292.149575 
L 103.331142 314.42521 
L 91.29375 314.42521 
z
" style="fill:#5875a4;stroke:#ffffff;stroke-linejoin:miter;"/>
   </g>
   <g id="patch_13">
    <path clip-path="url(#p26c050c4ec)" d="M 91.29375 319.994118 
L 93.774509 319.994118 
L 93.774509 342.269753 
L 91.29375 342.269753 
z
" style="fill:#5875a4;stroke:#ffffff;stroke-linejoin:miter;"/>
   </g>
   <g id="line2d_7">
    <path clip-path="url(#p26c050c4ec)" style="fill:none;stroke:#424242;stroke-linecap:round;stroke-width:2.7;"/>
   </g>
   <g id="line2d_8">
    <path clip-path="url(#p26c050c4ec)" style="fill:none;stroke:#424242;stroke-linecap:round;stroke-width:2.7;"/>
   </g>
   <g id="line2d_9">
    <path clip-path="url(#p26c050c4ec)" style="fill:none;stroke:#424242;stroke-linecap:round;stroke-width:2.7;"/>
   </g>
   <g id="line2d_10">
    <path clip-path="url(#p26c050c4ec)" style="fill:none;stroke:#424242;stroke-linecap:round;stroke-width:2.7;"/>
   </g>
   <g id="line2d_11">
    <path clip-path="url(#p26c050c4ec)" style="fill:none;stroke:#424242;stroke-linecap:round;stroke-width:2.7;"/>
   </g>
   <g id="line2d_12">
    <path clip-path="url(#p26c050c4ec)" style="fill:none;stroke:#424242;stroke-linecap:round;stroke-width:2.7;"/>
   </g>
   <g id="line2d_13">
    <path clip-path="url(#p26c050c4ec)" style="fill:none;stroke:#424242;stroke-linecap:round;stroke-width:2.7;"/>
   </g>
   <g id="line2d_14">
    <path clip-path="url(#p26c050c4ec)" style="fill:none;stroke:#424242;stroke-linecap:round;stroke-width:2.7;"/>
   </g>
   <g id="line2d_15">
    <path clip-path="url(#p26c050c4ec)" style="fill:none;stroke:#424242;stroke-linecap:round;stroke-width:2.7;"/>
   </g>
   <g id="line2d_16">
    <path clip-path="url(#p26c050c4ec)" style="fill:none;stroke:#424242;stroke-linecap:round;stroke-width:2.7;"/>
   </g>
   <g id="line2d_17">
    <path clip-path="url(#p26c050c4ec)" style="fill:none;stroke:#424242;stroke-linecap:round;stroke-width:2.7;"/>
   </g>
   <g id="patch_14">
    <path d="M 91.29375 345.054207 
L 91.29375 38.76423 
" style="fill:none;stroke:#ffffff;stroke-linecap:square;stroke-linejoin:miter;stroke-width:0.8;"/>
   </g>
   <g id="patch_15">
    <path d="M 357.199593 345.054207 
L 357.199593 38.76423 
" style="fill:none;stroke:#ffffff;stroke-linecap:square;stroke-linejoin:miter;stroke-width:0.8;"/>
   </g>
   <g id="patch_16">
    <path d="M 91.29375 345.054207 
L 357.199593 345.054207 
" style="fill:none;stroke:#ffffff;stroke-linecap:square;stroke-linejoin:miter;stroke-width:0.8;"/>
   </g>
   <g id="patch_17">
    <path d="M 91.29375 38.76423 
L 357.199593 38.76423 
" style="fill:none;stroke:#ffffff;stroke-linecap:square;stroke-linejoin:miter;stroke-width:0.8;"/>
   </g>
   <g id="text_18">
    <!-- Linear Model -->
    <g style="fill:#262626;" transform="translate(189.561984 32.76423)scale(0.12 -0.12)">
     <defs>
      <path d="M 469 0 
L 469 4581 
L 1075 4581 
L 1075 541 
L 3331 541 
L 3331 0 
L 469 0 
z
" id="ArialMT-4c" transform="scale(0.015625)"/>
      <path id="ArialMT-20" transform="scale(0.015625)"/>
      <path d="M 475 0 
L 475 4581 
L 1388 4581 
L 2472 1338 
Q 2622 884 2691 659 
Q 2769 909 2934 1394 
L 4031 4581 
L 4847 4581 
L 4847 0 
L 4263 0 
L 4263 3834 
L 2931 0 
L 2384 0 
L 1059 3900 
L 1059 0 
L 475 0 
z
" id="ArialMT-4d" transform="scale(0.015625)"/>
     </defs>
     <use xlink:href="#ArialMT-4c"/>
     <use x="55.615234" xlink:href="#ArialMT-69"/>
     <use x="77.832031" xlink:href="#ArialMT-6e"/>
     <use x="133.447266" xlink:href="#ArialMT-65"/>
     <use x="189.0625" xlink:href="#ArialMT-61"/>
     <use x="244.677734" xlink:href="#ArialMT-72"/>
     <use x="277.978516" xlink:href="#ArialMT-20"/>
     <use x="305.761719" xlink:href="#ArialMT-4d"/>
     <use x="389.0625" xlink:href="#ArialMT-6f"/>
     <use x="444.677734" xlink:href="#ArialMT-64"/>
     <use x="500.292969" xlink:href="#ArialMT-65"/>
     <use x="555.908203" xlink:href="#ArialMT-6c"/>
    </g>
   </g>
  </g>
  <g id="axes_2">
   <g id="patch_18">
    <path d="M 450.849304 345.054207 
L 716.755147 345.054207 
L 716.755147 38.76423 
L 450.849304 38.76423 
z
" style="fill:#e6e6e6;"/>
   </g>
   <g id="matplotlib.axis_3">
    <g id="xtick_7">
     <g id="line2d_18">
      <path clip-path="url(#p0c7f0c4992)" d="M 450.849304 345.054207 
L 450.849304 38.76423 
" style="fill:none;stroke:#cccccc;stroke-linecap:round;stroke-width:0.8;"/>
     </g>
     <g id="text_19">
      <!-- 0 -->
      <g style="fill:#262626;" transform="translate(448.068836 359.21202)scale(0.1 -0.1)">
       <use xlink:href="#ArialMT-30"/>
      </g>
     </g>
    </g>
    <g id="xtick_8">
     <g id="line2d_19">
      <path clip-path="url(#p0c7f0c4992)" d="M 487.880679 345.054207 
L 487.880679 38.76423 
" style="fill:none;stroke:#cccccc;stroke-linecap:round;stroke-width:0.8;"/>
     </g>
     <g id="text_20">
      <!-- 200 -->
      <g style="fill:#262626;" transform="translate(479.539273 359.21202)scale(0.1 -0.1)">
       <use xlink:href="#ArialMT-32"/>
       <use x="55.615234" xlink:href="#ArialMT-30"/>
       <use x="111.230469" xlink:href="#ArialMT-30"/>
      </g>
     </g>
    </g>
    <g id="xtick_9">
     <g id="line2d_20">
      <path clip-path="url(#p0c7f0c4992)" d="M 524.912054 345.054207 
L 524.912054 38.76423 
" style="fill:none;stroke:#cccccc;stroke-linecap:round;stroke-width:0.8;"/>
     </g>
     <g id="text_21">
      <!-- 400 -->
      <g style="fill:#262626;" transform="translate(516.570648 359.21202)scale(0.1 -0.1)">
       <use xlink:href="#ArialMT-34"/>
       <use x="55.615234" xlink:href="#ArialMT-30"/>
       <use x="111.230469" xlink:href="#ArialMT-30"/>
      </g>
     </g>
    </g>
    <g id="xtick_10">
     <g id="line2d_21">
      <path clip-path="url(#p0c7f0c4992)" d="M 561.943429 345.054207 
L 561.943429 38.76423 
" style="fill:none;stroke:#cccccc;stroke-linecap:round;stroke-width:0.8;"/>
     </g>
     <g id="text_22">
      <!-- 600 -->
      <g style="fill:#262626;" transform="translate(553.602022 359.21202)scale(0.1 -0.1)">
       <use xlink:href="#ArialMT-36"/>
       <use x="55.615234" xlink:href="#ArialMT-30"/>
       <use x="111.230469" xlink:href="#ArialMT-30"/>
      </g>
     </g>
    </g>
    <g id="xtick_11">
     <g id="line2d_22">
      <path clip-path="url(#p0c7f0c4992)" d="M 598.974803 345.054207 
L 598.974803 38.76423 
" style="fill:none;stroke:#cccccc;stroke-linecap:round;stroke-width:0.8;"/>
     </g>
     <g id="text_23">
      <!-- 800 -->
      <g style="fill:#262626;" transform="translate(590.633397 359.21202)scale(0.1 -0.1)">
       <use xlink:href="#ArialMT-38"/>
       <use x="55.615234" xlink:href="#ArialMT-30"/>
       <use x="111.230469" xlink:href="#ArialMT-30"/>
      </g>
     </g>
    </g>
    <g id="xtick_12">
     <g id="line2d_23">
      <path clip-path="url(#p0c7f0c4992)" d="M 636.006178 345.054207 
L 636.006178 38.76423 
" style="fill:none;stroke:#cccccc;stroke-linecap:round;stroke-width:0.8;"/>
     </g>
     <g id="text_24">
      <!-- 1000 -->
      <g style="fill:#262626;" transform="translate(624.884303 359.21202)scale(0.1 -0.1)">
       <use xlink:href="#ArialMT-31"/>
       <use x="55.615234" xlink:href="#ArialMT-30"/>
       <use x="111.230469" xlink:href="#ArialMT-30"/>
       <use x="166.845703" xlink:href="#ArialMT-30"/>
      </g>
     </g>
    </g>
    <g id="xtick_13">
     <g id="line2d_24">
      <path clip-path="url(#p0c7f0c4992)" d="M 673.037553 345.054207 
L 673.037553 38.76423 
" style="fill:none;stroke:#cccccc;stroke-linecap:round;stroke-width:0.8;"/>
     </g>
     <g id="text_25">
      <!-- 1200 -->
      <g style="fill:#262626;" transform="translate(661.915678 359.21202)scale(0.1 -0.1)">
       <use xlink:href="#ArialMT-31"/>
       <use x="55.615234" xlink:href="#ArialMT-32"/>
       <use x="111.230469" xlink:href="#ArialMT-30"/>
       <use x="166.845703" xlink:href="#ArialMT-30"/>
      </g>
     </g>
    </g>
    <g id="xtick_14">
     <g id="line2d_25">
      <path clip-path="url(#p0c7f0c4992)" d="M 710.068928 345.054207 
L 710.068928 38.76423 
" style="fill:none;stroke:#cccccc;stroke-linecap:round;stroke-width:0.8;"/>
     </g>
     <g id="text_26">
      <!-- 1400 -->
      <g style="fill:#262626;" transform="translate(698.947053 359.21202)scale(0.1 -0.1)">
       <use xlink:href="#ArialMT-31"/>
       <use x="55.615234" xlink:href="#ArialMT-34"/>
       <use x="111.230469" xlink:href="#ArialMT-30"/>
       <use x="166.845703" xlink:href="#ArialMT-30"/>
      </g>
     </g>
    </g>
   </g>
   <g id="matplotlib.axis_4">
    <g id="ytick_12">
     <g id="text_27">
      <!-- days_since_2011 -->
      <g style="fill:#262626;" transform="translate(366.755554 56.280252)scale(0.1 -0.1)">
       <use xlink:href="#ArialMT-64"/>
       <use x="55.615234" xlink:href="#ArialMT-61"/>
       <use x="111.230469" xlink:href="#ArialMT-79"/>
       <use x="161.230469" xlink:href="#ArialMT-73"/>
       <use x="211.230469" xlink:href="#ArialMT-5f"/>
       <use x="266.845703" xlink:href="#ArialMT-73"/>
       <use x="316.845703" xlink:href="#ArialMT-69"/>
       <use x="339.0625" xlink:href="#ArialMT-6e"/>
       <use x="394.677734" xlink:href="#ArialMT-63"/>
       <use x="444.677734" xlink:href="#ArialMT-65"/>
       <use x="500.292969" xlink:href="#ArialMT-5f"/>
       <use x="555.908203" xlink:href="#ArialMT-32"/>
       <use x="611.523438" xlink:href="#ArialMT-30"/>
       <use x="667.138672" xlink:href="#ArialMT-31"/>
       <use x="715.378906" xlink:href="#ArialMT-31"/>
      </g>
     </g>
    </g>
    <g id="ytick_13">
     <g id="text_28">
      <!-- temp -->
      <g style="fill:#262626;" transform="translate(421.619617 84.109951)scale(0.1 -0.1)">
       <use xlink:href="#ArialMT-74"/>
       <use x="27.783203" xlink:href="#ArialMT-65"/>
       <use x="83.398438" xlink:href="#ArialMT-6d"/>
       <use x="166.699219" xlink:href="#ArialMT-70"/>
      </g>
     </g>
    </g>
    <g id="ytick_14">
     <g id="text_29">
      <!-- hum -->
      <g style="fill:#262626;" transform="translate(424.397742 111.954495)scale(0.1 -0.1)">
       <use xlink:href="#ArialMT-68"/>
       <use x="55.615234" xlink:href="#ArialMT-75"/>
       <use x="111.230469" xlink:href="#ArialMT-6d"/>
      </g>
     </g>
    </g>
    <g id="ytick_15">
     <g id="text_30">
      <!-- windspeed -->
      <g style="fill:#262626;" transform="translate(396.039929 139.799038)scale(0.1 -0.1)">
       <use xlink:href="#ArialMT-77"/>
       <use x="72.216797" xlink:href="#ArialMT-69"/>
       <use x="94.433594" xlink:href="#ArialMT-6e"/>
       <use x="150.048828" xlink:href="#ArialMT-64"/>
       <use x="205.664062" xlink:href="#ArialMT-73"/>
       <use x="255.664062" xlink:href="#ArialMT-70"/>
       <use x="311.279297" xlink:href="#ArialMT-65"/>
       <use x="366.894531" xlink:href="#ArialMT-65"/>
       <use x="422.509766" xlink:href="#ArialMT-64"/>
      </g>
     </g>
    </g>
    <g id="ytick_16">
     <g id="text_31">
      <!-- weathersit -->
      <g style="fill:#262626;" transform="translate(398.275867 167.643582)scale(0.1 -0.1)">
       <use xlink:href="#ArialMT-77"/>
       <use x="72.216797" xlink:href="#ArialMT-65"/>
       <use x="127.832031" xlink:href="#ArialMT-61"/>
       <use x="183.447266" xlink:href="#ArialMT-74"/>
       <use x="211.230469" xlink:href="#ArialMT-68"/>
       <use x="266.845703" xlink:href="#ArialMT-65"/>
       <use x="322.460938" xlink:href="#ArialMT-72"/>
       <use x="355.761719" xlink:href="#ArialMT-73"/>
       <use x="405.761719" xlink:href="#ArialMT-69"/>
       <use x="427.978516" xlink:href="#ArialMT-74"/>
      </g>
     </g>
    </g>
    <g id="ytick_17">
     <g id="text_32">
      <!-- weekday -->
      <g style="fill:#262626;" transform="translate(404.383679 195.488125)scale(0.1 -0.1)">
       <use xlink:href="#ArialMT-77"/>
       <use x="72.216797" xlink:href="#ArialMT-65"/>
       <use x="127.832031" xlink:href="#ArialMT-65"/>
       <use x="183.447266" xlink:href="#ArialMT-6b"/>
       <use x="233.447266" xlink:href="#ArialMT-64"/>
       <use x="289.0625" xlink:href="#ArialMT-61"/>
       <use x="344.677734" xlink:href="#ArialMT-79"/>
      </g>
     </g>
    </g>
    <g id="ytick_18">
     <g id="text_33">
      <!-- mnth -->
      <g style="fill:#262626;" transform="translate(421.619617 223.332668)scale(0.1 -0.1)">
       <use xlink:href="#ArialMT-6d"/>
       <use x="83.300781" xlink:href="#ArialMT-6e"/>
       <use x="138.916016" xlink:href="#ArialMT-74"/>
       <use x="166.699219" xlink:href="#ArialMT-68"/>
      </g>
     </g>
    </g>
    <g id="ytick_19">
     <g id="text_34">
      <!-- workingday -->
      <g style="fill:#262626;" transform="translate(393.271179 251.177212)scale(0.1 -0.1)">
       <use xlink:href="#ArialMT-77"/>
       <use x="72.216797" xlink:href="#ArialMT-6f"/>
       <use x="127.832031" xlink:href="#ArialMT-72"/>
       <use x="161.132812" xlink:href="#ArialMT-6b"/>
       <use x="211.132812" xlink:href="#ArialMT-69"/>
       <use x="233.349609" xlink:href="#ArialMT-6e"/>
       <use x="288.964844" xlink:href="#ArialMT-67"/>
       <use x="344.580078" xlink:href="#ArialMT-64"/>
       <use x="400.195312" xlink:href="#ArialMT-61"/>
       <use x="455.810547" xlink:href="#ArialMT-79"/>
      </g>
     </g>
    </g>
    <g id="ytick_20">
     <g id="text_35">
      <!-- season -->
      <g style="fill:#262626;" transform="translate(411.605554 279.021755)scale(0.1 -0.1)">
       <use xlink:href="#ArialMT-73"/>
       <use x="50" xlink:href="#ArialMT-65"/>
       <use x="105.615234" xlink:href="#ArialMT-61"/>
       <use x="161.230469" xlink:href="#ArialMT-73"/>
       <use x="211.230469" xlink:href="#ArialMT-6f"/>
       <use x="266.845703" xlink:href="#ArialMT-6e"/>
      </g>
     </g>
    </g>
    <g id="ytick_21">
     <g id="text_36">
      <!-- holiday -->
      <g style="fill:#262626;" transform="translate(412.161804 306.866299)scale(0.1 -0.1)">
       <use xlink:href="#ArialMT-68"/>
       <use x="55.615234" xlink:href="#ArialMT-6f"/>
       <use x="111.230469" xlink:href="#ArialMT-6c"/>
       <use x="133.447266" xlink:href="#ArialMT-69"/>
       <use x="155.664062" xlink:href="#ArialMT-64"/>
       <use x="211.279297" xlink:href="#ArialMT-61"/>
       <use x="266.894531" xlink:href="#ArialMT-79"/>
      </g>
     </g>
    </g>
    <g id="ytick_22">
     <g id="text_37">
      <!-- yr -->
      <g style="fill:#262626;" transform="translate(435.519617 334.652248)scale(0.1 -0.1)">
       <use xlink:href="#ArialMT-79"/>
       <use x="50" xlink:href="#ArialMT-72"/>
      </g>
     </g>
    </g>
   </g>
   <g id="patch_19">
    <path clip-path="url(#p0c7f0c4992)" d="M 450.849304 41.548684 
L 704.092964 41.548684 
L 704.092964 63.824319 
L 450.849304 63.824319 
z
" style="fill:#cc8963;stroke:#ffffff;stroke-linejoin:miter;"/>
   </g>
   <g id="patch_20">
    <path clip-path="url(#p0c7f0c4992)" d="M 450.849304 69.393228 
L 601.207085 69.393228 
L 601.207085 91.668862 
L 450.849304 91.668862 
z
" style="fill:#cc8963;stroke:#ffffff;stroke-linejoin:miter;"/>
   </g>
   <g id="patch_21">
    <path clip-path="url(#p0c7f0c4992)" d="M 450.849304 97.237771 
L 528.438033 97.237771 
L 528.438033 119.513406 
L 450.849304 119.513406 
z
" style="fill:#cc8963;stroke:#ffffff;stroke-linejoin:miter;"/>
   </g>
   <g id="patch_22">
    <path clip-path="url(#p0c7f0c4992)" d="M 450.849304 125.082315 
L 491.502757 125.082315 
L 491.502757 147.357949 
L 450.849304 147.357949 
z
" style="fill:#cc8963;stroke:#ffffff;stroke-linejoin:miter;"/>
   </g>
   <g id="patch_23">
    <path clip-path="url(#p0c7f0c4992)" d="M 450.849304 152.926858 
L 478.122292 152.926858 
L 478.122292 175.202493 
L 450.849304 175.202493 
z
" style="fill:#cc8963;stroke:#ffffff;stroke-linejoin:miter;"/>
   </g>
   <g id="patch_24">
    <path clip-path="url(#p0c7f0c4992)" d="M 450.849304 180.771401 
L 462.158169 180.771401 
L 462.158169 203.047036 
L 450.849304 203.047036 
z
" style="fill:#cc8963;stroke:#ffffff;stroke-linejoin:miter;"/>
   </g>
   <g id="patch_25">
    <path clip-path="url(#p0c7f0c4992)" d="M 450.849304 208.615945 
L 458.75285 208.615945 
L 458.75285 230.89158 
L 450.849304 230.89158 
z
" style="fill:#cc8963;stroke:#ffffff;stroke-linejoin:miter;"/>
   </g>
   <g id="patch_26">
    <path clip-path="url(#p0c7f0c4992)" d="M 450.849304 236.460488 
L 457.820759 236.460488 
L 457.820759 258.736123 
L 450.849304 258.736123 
z
" style="fill:#cc8963;stroke:#ffffff;stroke-linejoin:miter;"/>
   </g>
   <g id="patch_27">
    <path clip-path="url(#p0c7f0c4992)" d="M 450.849304 264.305032 
L 452.156987 264.305032 
L 452.156987 286.580666 
L 450.849304 286.580666 
z
" style="fill:#cc8963;stroke:#ffffff;stroke-linejoin:miter;"/>
   </g>
   <g id="patch_28">
    <path clip-path="url(#p0c7f0c4992)" d="M 450.849304 292.149575 
L 451.354404 292.149575 
L 451.354404 314.42521 
L 450.849304 314.42521 
z
" style="fill:#cc8963;stroke:#ffffff;stroke-linejoin:miter;"/>
   </g>
   <g id="patch_29">
    <path clip-path="url(#p0c7f0c4992)" d="M 450.849304 319.994118 
L 450.849304 319.994118 
L 450.849304 342.269753 
L 450.849304 342.269753 
z
" style="fill:#cc8963;stroke:#ffffff;stroke-linejoin:miter;"/>
   </g>
   <g id="line2d_26">
    <path clip-path="url(#p0c7f0c4992)" style="fill:none;stroke:#424242;stroke-linecap:round;stroke-width:2.7;"/>
   </g>
   <g id="line2d_27">
    <path clip-path="url(#p0c7f0c4992)" style="fill:none;stroke:#424242;stroke-linecap:round;stroke-width:2.7;"/>
   </g>
   <g id="line2d_28">
    <path clip-path="url(#p0c7f0c4992)" style="fill:none;stroke:#424242;stroke-linecap:round;stroke-width:2.7;"/>
   </g>
   <g id="line2d_29">
    <path clip-path="url(#p0c7f0c4992)" style="fill:none;stroke:#424242;stroke-linecap:round;stroke-width:2.7;"/>
   </g>
   <g id="line2d_30">
    <path clip-path="url(#p0c7f0c4992)" style="fill:none;stroke:#424242;stroke-linecap:round;stroke-width:2.7;"/>
   </g>
   <g id="line2d_31">
    <path clip-path="url(#p0c7f0c4992)" style="fill:none;stroke:#424242;stroke-linecap:round;stroke-width:2.7;"/>
   </g>
   <g id="line2d_32">
    <path clip-path="url(#p0c7f0c4992)" style="fill:none;stroke:#424242;stroke-linecap:round;stroke-width:2.7;"/>
   </g>
   <g id="line2d_33">
    <path clip-path="url(#p0c7f0c4992)" style="fill:none;stroke:#424242;stroke-linecap:round;stroke-width:2.7;"/>
   </g>
   <g id="line2d_34">
    <path clip-path="url(#p0c7f0c4992)" style="fill:none;stroke:#424242;stroke-linecap:round;stroke-width:2.7;"/>
   </g>
   <g id="line2d_35">
    <path clip-path="url(#p0c7f0c4992)" style="fill:none;stroke:#424242;stroke-linecap:round;stroke-width:2.7;"/>
   </g>
   <g id="line2d_36">
    <path clip-path="url(#p0c7f0c4992)" style="fill:none;stroke:#424242;stroke-linecap:round;stroke-width:2.7;"/>
   </g>
   <g id="patch_30">
    <path d="M 450.849304 345.054207 
L 450.849304 38.76423 
" style="fill:none;stroke:#ffffff;stroke-linecap:square;stroke-linejoin:miter;stroke-width:0.8;"/>
   </g>
   <g id="patch_31">
    <path d="M 716.755147 345.054207 
L 716.755147 38.76423 
" style="fill:none;stroke:#ffffff;stroke-linecap:square;stroke-linejoin:miter;stroke-width:0.8;"/>
   </g>
   <g id="patch_32">
    <path d="M 450.849304 345.054207 
L 716.755147 345.054207 
" style="fill:none;stroke:#ffffff;stroke-linecap:square;stroke-linejoin:miter;stroke-width:0.8;"/>
   </g>
   <g id="patch_33">
    <path d="M 450.849304 38.76423 
L 716.755147 38.76423 
" style="fill:none;stroke:#ffffff;stroke-linecap:square;stroke-linejoin:miter;stroke-width:0.8;"/>
   </g>
   <g id="text_38">
    <!-- Tree Model -->
    <g style="fill:#262626;" transform="translate(553.684101 32.76423)scale(0.12 -0.12)">
     <defs>
      <path d="M 1659 0 
L 1659 4041 
L 150 4041 
L 150 4581 
L 3781 4581 
L 3781 4041 
L 2266 4041 
L 2266 0 
L 1659 0 
z
" id="ArialMT-54" transform="scale(0.015625)"/>
     </defs>
     <use xlink:href="#ArialMT-54"/>
     <use x="57.333984" xlink:href="#ArialMT-72"/>
     <use x="90.634766" xlink:href="#ArialMT-65"/>
     <use x="146.25" xlink:href="#ArialMT-65"/>
     <use x="201.865234" xlink:href="#ArialMT-20"/>
     <use x="229.648438" xlink:href="#ArialMT-4d"/>
     <use x="312.949219" xlink:href="#ArialMT-6f"/>
     <use x="368.564453" xlink:href="#ArialMT-64"/>
     <use x="424.179688" xlink:href="#ArialMT-65"/>
     <use x="479.794922" xlink:href="#ArialMT-6c"/>
    </g>
   </g>
  </g>
  <g id="text_39">
   <!-- Permutation Importance -->
   <g style="fill:#262626;" transform="translate(300.173197 15.789375)scale(0.12 -0.12)">
    <defs>
     <path d="M 494 0 
L 494 4581 
L 2222 4581 
Q 2678 4581 2919 4538 
Q 3256 4481 3484 4323 
Q 3713 4166 3852 3881 
Q 3991 3597 3991 3256 
Q 3991 2672 3619 2267 
Q 3247 1863 2275 1863 
L 1100 1863 
L 1100 0 
L 494 0 
z
M 1100 2403 
L 2284 2403 
Q 2872 2403 3119 2622 
Q 3366 2841 3366 3238 
Q 3366 3525 3220 3729 
Q 3075 3934 2838 4000 
Q 2684 4041 2272 4041 
L 1100 4041 
L 1100 2403 
z
" id="ArialMT-50" transform="scale(0.015625)"/>
     <path d="M 597 0 
L 597 4581 
L 1203 4581 
L 1203 0 
L 597 0 
z
" id="ArialMT-49" transform="scale(0.015625)"/>
    </defs>
    <use xlink:href="#ArialMT-50"/>
    <use x="66.699219" xlink:href="#ArialMT-65"/>
    <use x="122.314453" xlink:href="#ArialMT-72"/>
    <use x="155.615234" xlink:href="#ArialMT-6d"/>
    <use x="238.916016" xlink:href="#ArialMT-75"/>
    <use x="294.53125" xlink:href="#ArialMT-74"/>
    <use x="322.314453" xlink:href="#ArialMT-61"/>
    <use x="377.929688" xlink:href="#ArialMT-74"/>
    <use x="405.712891" xlink:href="#ArialMT-69"/>
    <use x="427.929688" xlink:href="#ArialMT-6f"/>
    <use x="483.544922" xlink:href="#ArialMT-6e"/>
    <use x="539.160156" xlink:href="#ArialMT-20"/>
    <use x="566.943359" xlink:href="#ArialMT-49"/>
    <use x="594.726562" xlink:href="#ArialMT-6d"/>
    <use x="678.027344" xlink:href="#ArialMT-70"/>
    <use x="733.642578" xlink:href="#ArialMT-6f"/>
    <use x="789.257812" xlink:href="#ArialMT-72"/>
    <use x="822.558594" xlink:href="#ArialMT-74"/>
    <use x="850.341797" xlink:href="#ArialMT-61"/>
    <use x="905.957031" xlink:href="#ArialMT-6e"/>
    <use x="961.572266" xlink:href="#ArialMT-63"/>
    <use x="1011.572266" xlink:href="#ArialMT-65"/>
   </g>
  </g>
 </g>
 <defs>
  <clipPath id="p26c050c4ec">
   <rect height="306.289978" width="265.905843" x="91.29375" y="38.76423"/>
  </clipPath>
  <clipPath id="p0c7f0c4992">
   <rect height="306.289978" width="265.905843" x="450.849304" y="38.76423"/>
  </clipPath>
 </defs>
</svg>
