<?xml version="1.0" encoding="utf-8" standalone="no"?>
<!DOCTYPE svg PUBLIC "-//W3C//DTD SVG 1.1//EN"
  "http://www.w3.org/Graphics/SVG/1.1/DTD/svg11.dtd">
<svg height="371.440938pt" version="1.1" viewBox="0 0 614.789062 371.440938" width="614.789062pt" xmlns="http://www.w3.org/2000/svg" xmlns:xlink="http://www.w3.org/1999/xlink">
 <metadata>
  <rdf:RDF xmlns:cc="http://creativecommons.org/ns#" xmlns:dc="http://purl.org/dc/elements/1.1/" xmlns:rdf="http://www.w3.org/1999/02/22-rdf-syntax-ns#">
   <cc:Work>
    <dc:type rdf:resource="http://purl.org/dc/dcmitype/StillImage"/>
    <dc:date>2021-10-31T20:16:07.666650</dc:date>
    <dc:format>image/svg+xml</dc:format>
    <dc:creator>
     <cc:Agent>
      <dc:title>Matplotlib v3.4.3, https://matplotlib.org/</dc:title>
     </cc:Agent>
    </dc:creator>
   </cc:Work>
  </rdf:RDF>
 </metadata>
 <defs>
  <style type="text/css">*{stroke-linecap:butt;stroke-linejoin:round;}</style>
 </defs>
 <g id="figure_1">
  <g id="patch_1">
   <path d="M 0 371.440938 
L 614.789062 371.440938 
L 614.789062 0 
L 0 0 
z
" style="fill:#ffffff;"/>
  </g>
  <g id="axes_1">
   <g id="patch_2">
    <path d="M 49.589063 348.095625 
L 607.589062 348.095625 
L 607.589062 21.935625 
L 49.589063 21.935625 
z
" style="fill:#e6e6e6;"/>
   </g>
   <g id="matplotlib.axis_1">
    <g id="xtick_1">
     <g id="line2d_1">
      <path clip-path="url(#p05444c0df1)" d="M 74.952699 348.095625 
L 74.952699 21.935625 
" style="fill:none;stroke:#cccccc;stroke-linecap:round;stroke-width:0.8;"/>
     </g>
     <g id="text_1">
      <!-- 0 -->
      <g style="fill:#262626;" transform="translate(72.17223 362.253438)scale(0.1 -0.1)">
       <defs>
        <path d="M 266 2259 
Q 266 3072 433 3567 
Q 600 4063 929 4331 
Q 1259 4600 1759 4600 
Q 2128 4600 2406 4451 
Q 2684 4303 2865 4023 
Q 3047 3744 3150 3342 
Q 3253 2941 3253 2259 
Q 3253 1453 3087 958 
Q 2922 463 2592 192 
Q 2263 -78 1759 -78 
Q 1097 -78 719 397 
Q 266 969 266 2259 
z
M 844 2259 
Q 844 1131 1108 757 
Q 1372 384 1759 384 
Q 2147 384 2411 759 
Q 2675 1134 2675 2259 
Q 2675 3391 2411 3762 
Q 2147 4134 1753 4134 
Q 1366 4134 1134 3806 
Q 844 3388 844 2259 
z
" id="ArialMT-30" transform="scale(0.015625)"/>
       </defs>
       <use xlink:href="#ArialMT-30"/>
      </g>
     </g>
    </g>
    <g id="xtick_2">
     <g id="line2d_2">
      <path clip-path="url(#p05444c0df1)" d="M 144.442114 348.095625 
L 144.442114 21.935625 
" style="fill:none;stroke:#cccccc;stroke-linecap:round;stroke-width:0.8;"/>
     </g>
     <g id="text_2">
      <!-- 100 -->
      <g style="fill:#262626;" transform="translate(136.100707 362.253438)scale(0.1 -0.1)">
       <defs>
        <path d="M 2384 0 
L 1822 0 
L 1822 3584 
Q 1619 3391 1289 3197 
Q 959 3003 697 2906 
L 697 3450 
Q 1169 3672 1522 3987 
Q 1875 4303 2022 4600 
L 2384 4600 
L 2384 0 
z
" id="ArialMT-31" transform="scale(0.015625)"/>
       </defs>
       <use xlink:href="#ArialMT-31"/>
       <use x="55.615234" xlink:href="#ArialMT-30"/>
       <use x="111.230469" xlink:href="#ArialMT-30"/>
      </g>
     </g>
    </g>
    <g id="xtick_3">
     <g id="line2d_3">
      <path clip-path="url(#p05444c0df1)" d="M 213.931528 348.095625 
L 213.931528 21.935625 
" style="fill:none;stroke:#cccccc;stroke-linecap:round;stroke-width:0.8;"/>
     </g>
     <g id="text_3">
      <!-- 200 -->
      <g style="fill:#262626;" transform="translate(205.590122 362.253438)scale(0.1 -0.1)">
       <defs>
        <path d="M 3222 541 
L 3222 0 
L 194 0 
Q 188 203 259 391 
Q 375 700 629 1000 
Q 884 1300 1366 1694 
Q 2113 2306 2375 2664 
Q 2638 3022 2638 3341 
Q 2638 3675 2398 3904 
Q 2159 4134 1775 4134 
Q 1369 4134 1125 3890 
Q 881 3647 878 3216 
L 300 3275 
Q 359 3922 746 4261 
Q 1134 4600 1788 4600 
Q 2447 4600 2831 4234 
Q 3216 3869 3216 3328 
Q 3216 3053 3103 2787 
Q 2991 2522 2730 2228 
Q 2469 1934 1863 1422 
Q 1356 997 1212 845 
Q 1069 694 975 541 
L 3222 541 
z
" id="ArialMT-32" transform="scale(0.015625)"/>
       </defs>
       <use xlink:href="#ArialMT-32"/>
       <use x="55.615234" xlink:href="#ArialMT-30"/>
       <use x="111.230469" xlink:href="#ArialMT-30"/>
      </g>
     </g>
    </g>
    <g id="xtick_4">
     <g id="line2d_4">
      <path clip-path="url(#p05444c0df1)" d="M 283.420943 348.095625 
L 283.420943 21.935625 
" style="fill:none;stroke:#cccccc;stroke-linecap:round;stroke-width:0.8;"/>
     </g>
     <g id="text_4">
      <!-- 300 -->
      <g style="fill:#262626;" transform="translate(275.079537 362.253438)scale(0.1 -0.1)">
       <defs>
        <path d="M 269 1209 
L 831 1284 
Q 928 806 1161 595 
Q 1394 384 1728 384 
Q 2125 384 2398 659 
Q 2672 934 2672 1341 
Q 2672 1728 2419 1979 
Q 2166 2231 1775 2231 
Q 1616 2231 1378 2169 
L 1441 2663 
Q 1497 2656 1531 2656 
Q 1891 2656 2178 2843 
Q 2466 3031 2466 3422 
Q 2466 3731 2256 3934 
Q 2047 4138 1716 4138 
Q 1388 4138 1169 3931 
Q 950 3725 888 3313 
L 325 3413 
Q 428 3978 793 4289 
Q 1159 4600 1703 4600 
Q 2078 4600 2393 4439 
Q 2709 4278 2876 4000 
Q 3044 3722 3044 3409 
Q 3044 3113 2884 2869 
Q 2725 2625 2413 2481 
Q 2819 2388 3044 2092 
Q 3269 1797 3269 1353 
Q 3269 753 2831 336 
Q 2394 -81 1725 -81 
Q 1122 -81 723 278 
Q 325 638 269 1209 
z
" id="ArialMT-33" transform="scale(0.015625)"/>
       </defs>
       <use xlink:href="#ArialMT-33"/>
       <use x="55.615234" xlink:href="#ArialMT-30"/>
       <use x="111.230469" xlink:href="#ArialMT-30"/>
      </g>
     </g>
    </g>
    <g id="xtick_5">
     <g id="line2d_5">
      <path clip-path="url(#p05444c0df1)" d="M 352.910358 348.095625 
L 352.910358 21.935625 
" style="fill:none;stroke:#cccccc;stroke-linecap:round;stroke-width:0.8;"/>
     </g>
     <g id="text_5">
      <!-- 400 -->
      <g style="fill:#262626;" transform="translate(344.568951 362.253438)scale(0.1 -0.1)">
       <defs>
        <path d="M 2069 0 
L 2069 1097 
L 81 1097 
L 81 1613 
L 2172 4581 
L 2631 4581 
L 2631 1613 
L 3250 1613 
L 3250 1097 
L 2631 1097 
L 2631 0 
L 2069 0 
z
M 2069 1613 
L 2069 3678 
L 634 1613 
L 2069 1613 
z
" id="ArialMT-34" transform="scale(0.015625)"/>
       </defs>
       <use xlink:href="#ArialMT-34"/>
       <use x="55.615234" xlink:href="#ArialMT-30"/>
       <use x="111.230469" xlink:href="#ArialMT-30"/>
      </g>
     </g>
    </g>
    <g id="xtick_6">
     <g id="line2d_6">
      <path clip-path="url(#p05444c0df1)" d="M 422.399772 348.095625 
L 422.399772 21.935625 
" style="fill:none;stroke:#cccccc;stroke-linecap:round;stroke-width:0.8;"/>
     </g>
     <g id="text_6">
      <!-- 500 -->
      <g style="fill:#262626;" transform="translate(414.058366 362.253438)scale(0.1 -0.1)">
       <defs>
        <path d="M 266 1200 
L 856 1250 
Q 922 819 1161 601 
Q 1400 384 1738 384 
Q 2144 384 2425 690 
Q 2706 997 2706 1503 
Q 2706 1984 2436 2262 
Q 2166 2541 1728 2541 
Q 1456 2541 1237 2417 
Q 1019 2294 894 2097 
L 366 2166 
L 809 4519 
L 3088 4519 
L 3088 3981 
L 1259 3981 
L 1013 2750 
Q 1425 3038 1878 3038 
Q 2478 3038 2890 2622 
Q 3303 2206 3303 1553 
Q 3303 931 2941 478 
Q 2500 -78 1738 -78 
Q 1113 -78 717 272 
Q 322 622 266 1200 
z
" id="ArialMT-35" transform="scale(0.015625)"/>
       </defs>
       <use xlink:href="#ArialMT-35"/>
       <use x="55.615234" xlink:href="#ArialMT-30"/>
       <use x="111.230469" xlink:href="#ArialMT-30"/>
      </g>
     </g>
    </g>
    <g id="xtick_7">
     <g id="line2d_7">
      <path clip-path="url(#p05444c0df1)" d="M 491.889187 348.095625 
L 491.889187 21.935625 
" style="fill:none;stroke:#cccccc;stroke-linecap:round;stroke-width:0.8;"/>
     </g>
     <g id="text_7">
      <!-- 600 -->
      <g style="fill:#262626;" transform="translate(483.547781 362.253438)scale(0.1 -0.1)">
       <defs>
        <path d="M 3184 3459 
L 2625 3416 
Q 2550 3747 2413 3897 
Q 2184 4138 1850 4138 
Q 1581 4138 1378 3988 
Q 1113 3794 959 3422 
Q 806 3050 800 2363 
Q 1003 2672 1297 2822 
Q 1591 2972 1913 2972 
Q 2475 2972 2870 2558 
Q 3266 2144 3266 1488 
Q 3266 1056 3080 686 
Q 2894 316 2569 119 
Q 2244 -78 1831 -78 
Q 1128 -78 684 439 
Q 241 956 241 2144 
Q 241 3472 731 4075 
Q 1159 4600 1884 4600 
Q 2425 4600 2770 4297 
Q 3116 3994 3184 3459 
z
M 888 1484 
Q 888 1194 1011 928 
Q 1134 663 1356 523 
Q 1578 384 1822 384 
Q 2178 384 2434 671 
Q 2691 959 2691 1453 
Q 2691 1928 2437 2201 
Q 2184 2475 1800 2475 
Q 1419 2475 1153 2201 
Q 888 1928 888 1484 
z
" id="ArialMT-36" transform="scale(0.015625)"/>
       </defs>
       <use xlink:href="#ArialMT-36"/>
       <use x="55.615234" xlink:href="#ArialMT-30"/>
       <use x="111.230469" xlink:href="#ArialMT-30"/>
      </g>
     </g>
    </g>
    <g id="xtick_8">
     <g id="line2d_8">
      <path clip-path="url(#p05444c0df1)" d="M 561.378602 348.095625 
L 561.378602 21.935625 
" style="fill:none;stroke:#cccccc;stroke-linecap:round;stroke-width:0.8;"/>
     </g>
     <g id="text_8">
      <!-- 700 -->
      <g style="fill:#262626;" transform="translate(553.037195 362.253438)scale(0.1 -0.1)">
       <defs>
        <path d="M 303 3981 
L 303 4522 
L 3269 4522 
L 3269 4084 
Q 2831 3619 2401 2847 
Q 1972 2075 1738 1259 
Q 1569 684 1522 0 
L 944 0 
Q 953 541 1156 1306 
Q 1359 2072 1739 2783 
Q 2119 3494 2547 3981 
L 303 3981 
z
" id="ArialMT-37" transform="scale(0.015625)"/>
       </defs>
       <use xlink:href="#ArialMT-37"/>
       <use x="55.615234" xlink:href="#ArialMT-30"/>
       <use x="111.230469" xlink:href="#ArialMT-30"/>
      </g>
     </g>
    </g>
   </g>
   <g id="matplotlib.axis_2">
    <g id="ytick_1">
     <g id="line2d_9">
      <path clip-path="url(#p05444c0df1)" d="M 49.589063 334.020654 
L 607.589062 334.020654 
" style="fill:none;stroke:#cccccc;stroke-linecap:round;stroke-width:0.8;"/>
     </g>
     <g id="text_9">
      <!-- 0 -->
      <g style="fill:#262626;" transform="translate(37.028125 337.59956)scale(0.1 -0.1)">
       <use xlink:href="#ArialMT-30"/>
      </g>
     </g>
    </g>
    <g id="ytick_2">
     <g id="line2d_10">
      <path clip-path="url(#p05444c0df1)" d="M 49.589063 265.794908 
L 607.589062 265.794908 
" style="fill:none;stroke:#cccccc;stroke-linecap:round;stroke-width:0.8;"/>
     </g>
     <g id="text_10">
      <!-- 2000 -->
      <g style="fill:#262626;" transform="translate(20.345313 269.373814)scale(0.1 -0.1)">
       <use xlink:href="#ArialMT-32"/>
       <use x="55.615234" xlink:href="#ArialMT-30"/>
       <use x="111.230469" xlink:href="#ArialMT-30"/>
       <use x="166.845703" xlink:href="#ArialMT-30"/>
      </g>
     </g>
    </g>
    <g id="ytick_3">
     <g id="line2d_11">
      <path clip-path="url(#p05444c0df1)" d="M 49.589063 197.569162 
L 607.589062 197.569162 
" style="fill:none;stroke:#cccccc;stroke-linecap:round;stroke-width:0.8;"/>
     </g>
     <g id="text_11">
      <!-- 4000 -->
      <g style="fill:#262626;" transform="translate(20.345313 201.148068)scale(0.1 -0.1)">
       <use xlink:href="#ArialMT-34"/>
       <use x="55.615234" xlink:href="#ArialMT-30"/>
       <use x="111.230469" xlink:href="#ArialMT-30"/>
       <use x="166.845703" xlink:href="#ArialMT-30"/>
      </g>
     </g>
    </g>
    <g id="ytick_4">
     <g id="line2d_12">
      <path clip-path="url(#p05444c0df1)" d="M 49.589063 129.343416 
L 607.589062 129.343416 
" style="fill:none;stroke:#cccccc;stroke-linecap:round;stroke-width:0.8;"/>
     </g>
     <g id="text_12">
      <!-- 6000 -->
      <g style="fill:#262626;" transform="translate(20.345313 132.922323)scale(0.1 -0.1)">
       <use xlink:href="#ArialMT-36"/>
       <use x="55.615234" xlink:href="#ArialMT-30"/>
       <use x="111.230469" xlink:href="#ArialMT-30"/>
       <use x="166.845703" xlink:href="#ArialMT-30"/>
      </g>
     </g>
    </g>
    <g id="ytick_5">
     <g id="line2d_13">
      <path clip-path="url(#p05444c0df1)" d="M 49.589063 61.117671 
L 607.589062 61.117671 
" style="fill:none;stroke:#cccccc;stroke-linecap:round;stroke-width:0.8;"/>
     </g>
     <g id="text_13">
      <!-- 8000 -->
      <g style="fill:#262626;" transform="translate(20.345313 64.696577)scale(0.1 -0.1)">
       <defs>
        <path d="M 1131 2484 
Q 781 2613 612 2850 
Q 444 3088 444 3419 
Q 444 3919 803 4259 
Q 1163 4600 1759 4600 
Q 2359 4600 2725 4251 
Q 3091 3903 3091 3403 
Q 3091 3084 2923 2848 
Q 2756 2613 2416 2484 
Q 2838 2347 3058 2040 
Q 3278 1734 3278 1309 
Q 3278 722 2862 322 
Q 2447 -78 1769 -78 
Q 1091 -78 675 323 
Q 259 725 259 1325 
Q 259 1772 486 2073 
Q 713 2375 1131 2484 
z
M 1019 3438 
Q 1019 3113 1228 2906 
Q 1438 2700 1772 2700 
Q 2097 2700 2305 2904 
Q 2513 3109 2513 3406 
Q 2513 3716 2298 3927 
Q 2084 4138 1766 4138 
Q 1444 4138 1231 3931 
Q 1019 3725 1019 3438 
z
M 838 1322 
Q 838 1081 952 856 
Q 1066 631 1291 507 
Q 1516 384 1775 384 
Q 2178 384 2440 643 
Q 2703 903 2703 1303 
Q 2703 1709 2433 1975 
Q 2163 2241 1756 2241 
Q 1359 2241 1098 1978 
Q 838 1716 838 1322 
z
" id="ArialMT-38" transform="scale(0.015625)"/>
       </defs>
       <use xlink:href="#ArialMT-38"/>
       <use x="55.615234" xlink:href="#ArialMT-30"/>
       <use x="111.230469" xlink:href="#ArialMT-30"/>
       <use x="166.845703" xlink:href="#ArialMT-30"/>
      </g>
     </g>
    </g>
    <g id="text_14">
     <!-- cnt -->
     <g style="fill:#262626;" transform="translate(14.357813 191.685156)rotate(-90)scale(0.1 -0.1)">
      <defs>
       <path d="M 2588 1216 
L 3141 1144 
Q 3050 572 2676 248 
Q 2303 -75 1759 -75 
Q 1078 -75 664 370 
Q 250 816 250 1647 
Q 250 2184 428 2587 
Q 606 2991 970 3192 
Q 1334 3394 1763 3394 
Q 2303 3394 2647 3120 
Q 2991 2847 3088 2344 
L 2541 2259 
Q 2463 2594 2264 2762 
Q 2066 2931 1784 2931 
Q 1359 2931 1093 2626 
Q 828 2322 828 1663 
Q 828 994 1084 691 
Q 1341 388 1753 388 
Q 2084 388 2306 591 
Q 2528 794 2588 1216 
z
" id="ArialMT-63" transform="scale(0.015625)"/>
       <path d="M 422 0 
L 422 3319 
L 928 3319 
L 928 2847 
Q 1294 3394 1984 3394 
Q 2284 3394 2536 3286 
Q 2788 3178 2913 3003 
Q 3038 2828 3088 2588 
Q 3119 2431 3119 2041 
L 3119 0 
L 2556 0 
L 2556 2019 
Q 2556 2363 2490 2533 
Q 2425 2703 2258 2804 
Q 2091 2906 1866 2906 
Q 1506 2906 1245 2678 
Q 984 2450 984 1813 
L 984 0 
L 422 0 
z
" id="ArialMT-6e" transform="scale(0.015625)"/>
       <path d="M 1650 503 
L 1731 6 
Q 1494 -44 1306 -44 
Q 1000 -44 831 53 
Q 663 150 594 308 
Q 525 466 525 972 
L 525 2881 
L 113 2881 
L 113 3319 
L 525 3319 
L 525 4141 
L 1084 4478 
L 1084 3319 
L 1650 3319 
L 1650 2881 
L 1084 2881 
L 1084 941 
Q 1084 700 1114 631 
Q 1144 563 1211 522 
Q 1278 481 1403 481 
Q 1497 481 1650 503 
z
" id="ArialMT-74" transform="scale(0.015625)"/>
      </defs>
      <use xlink:href="#ArialMT-63"/>
      <use x="50" xlink:href="#ArialMT-6e"/>
      <use x="105.615234" xlink:href="#ArialMT-74"/>
     </g>
    </g>
   </g>
   <g id="line2d_14">
    <path clip-path="url(#p05444c0df1)" d="M 74.952699 300.419474 
L 75.647593 306.696242 
L 76.342487 288.002388 
L 77.037381 280.736346 
L 77.732275 279.440057 
L 78.42717 279.23538 
L 79.122064 282.510216 
L 79.816958 301.306409 
L 80.511852 305.979872 
L 81.206746 288.957549 
L 81.90164 290.936095 
L 82.596534 294.381495 
L 83.291429 286.057954 
L 83.986323 285.546261 
L 84.681217 291.447788 
L 85.376111 292.948755 
L 86.071005 299.907781 
L 86.765899 310.721561 
L 87.460794 277.734413 
L 88.155688 268.285148 
L 88.850582 281.384491 
L 89.545476 300.555925 
L 90.24037 300.385361 
L 90.935264 285.716826 
L 91.630158 266.306601 
L 92.325053 316.75954 
L 93.019947 319.318005 
L 93.714841 294.210931 
L 94.409735 296.564719 
L 95.104629 296.632945 
L 95.799523 282.817231 
L 96.494417 287.627147 
L 97.189312 281.96441 
L 97.884206 281.145701 
L 98.5791 275.755867 
L 99.273994 299.737216 
L 99.968888 278.655461 
L 100.663782 275.619415 
L 101.358676 281.827958 
L 102.053571 279.269493 
L 102.748465 281.555055 
L 103.443359 274.459578 
L 104.138253 283.806505 
L 104.833147 279.815299 
L 105.528041 268.762728 
L 106.222935 272.105789 
L 106.91783 261.871928 
L 107.612724 249.591293 
L 108.307618 234.172275 
L 109.002512 278.246107 
L 109.697406 272.208128 
L 110.3923 296.257703 
L 111.087195 284.556988 
L 111.782089 268.626276 
L 112.476983 272.378692 
L 113.171877 284.181746 
L 114.561665 252.081533 
L 115.256559 284.69344 
L 115.951454 270.877726 
L 116.646348 261.223783 
L 117.341242 276.540463 
L 118.036136 267.705229 
L 118.73103 263.168217 
L 119.425924 313.382366 
L 120.120818 270.161356 
L 120.815713 261.257896 
L 121.510607 269.513211 
L 122.205501 312.768334 
L 122.900395 266.579504 
L 123.595289 261.292009 
L 124.290183 251.56984 
L 124.985077 264.225716 
L 125.679972 263.884587 
L 126.374866 259.245236 
L 127.764654 223.529058 
L 128.459548 227.690829 
L 129.154442 249.727745 
L 129.849336 263.168217 
L 130.544231 241.813558 
L 131.239125 261.66725 
L 131.934019 270.400146 
L 132.628913 258.631205 
L 133.323807 248.874923 
L 134.018701 276.26756 
L 134.713596 264.839747 
L 135.40849 251.296937 
L 136.103384 281.623281 
L 136.798278 276.540463 
L 137.493172 258.051286 
L 138.188066 257.198464 
L 138.88296 223.18793 
L 139.577855 227.759055 
L 140.272749 272.788047 
L 140.967643 238.231707 
L 141.662537 226.87212 
L 142.357431 283.840618 
L 143.052325 250.273551 
L 144.442114 219.810755 
L 145.137008 264.63507 
L 145.831902 260.268623 
L 146.526796 222.573898 
L 147.22169 227.383813 
L 147.916584 306.90092 
L 148.611478 206.302058 
L 149.306373 217.047613 
L 150.001267 224.723009 
L 150.696161 199.479483 
L 151.391055 191.121829 
L 152.085949 276.608689 
L 152.780843 196.341099 
L 153.475737 191.053603 
L 154.170632 195.078922 
L 154.865526 183.924013 
L 155.56042 201.93561 
L 156.255314 195.590616 
L 156.950208 177.272003 
L 157.645102 152.813073 
L 158.339996 219.708417 
L 159.034891 183.8899 
L 159.729785 182.184257 
L 160.424679 244.201459 
L 161.119573 182.798288 
L 161.814467 176.828536 
L 162.509361 173.212571 
L 163.204256 186.209576 
L 163.89915 185.220302 
L 164.594044 170.176525 
L 165.288938 191.360619 
L 165.983832 168.09564 
L 167.37362 217.72987 
L 168.068515 178.704744 
L 168.763409 199.001903 
L 169.458303 193.373279 
L 170.153197 202.515529 
L 170.848091 177.95426 
L 171.542985 166.287658 
L 172.237879 135.995427 
L 172.932774 175.054666 
L 173.627668 188.222235 
L 174.322562 180.785629 
L 175.017456 164.206773 
L 175.71235 174.474747 
L 176.407244 174.406522 
L 177.102138 171.711605 
L 177.797033 170.688218 
L 178.491927 194.226101 
L 179.186821 198.183194 
L 179.881715 198.456097 
L 180.576609 164.547901 
L 181.271503 152.813073 
L 181.966397 151.789687 
L 182.661292 166.662899 
L 183.356186 178.875308 
L 184.05108 169.153139 
L 185.440868 200.468756 
L 186.135762 177.579019 
L 186.830657 164.616127 
L 187.525551 181.877241 
L 188.220445 162.774032 
L 188.915339 167.174592 
L 189.610233 157.315972 
L 190.305127 205.517462 
L 191.000021 168.777898 
L 191.694916 159.396857 
L 192.38981 172.189185 
L 193.084704 197.228033 
L 193.779598 169.084913 
L 194.474492 180.273936 
L 195.169386 170.619993 
L 196.559175 156.565489 
L 197.254069 153.051863 
L 197.948963 173.417248 
L 198.643857 175.464021 
L 199.338751 155.780893 
L 200.033645 145.88816 
L 200.728539 151.107429 
L 201.423434 159.396857 
L 202.118328 175.429908 
L 202.813222 127.876563 
L 203.508116 174.884102 
L 204.897904 177.374341 
L 205.592798 196.204647 
L 206.287693 151.994364 
L 206.982587 167.515721 
L 207.677481 194.635455 
L 208.372375 188.768041 
L 209.067269 185.90256 
L 209.762163 160.590808 
L 211.151952 131.970108 
L 211.846846 153.154202 
L 212.54174 181.945466 
L 213.236634 179.114098 
L 213.931528 186.243688 
L 214.626422 204.937543 
L 215.321317 218.480353 
L 216.016211 221.959866 
L 216.711105 211.009634 
L 217.405999 203.027222 
L 218.100893 177.442567 
L 218.795787 175.191118 
L 219.490681 184.265142 
L 220.185576 202.822545 
L 220.88047 181.365548 
L 221.575364 187.267075 
L 222.270258 188.495138 
L 222.965152 168.743785 
L 223.660046 212.101246 
L 224.35494 177.920147 
L 225.049835 168.027414 
L 226.439623 204.90343 
L 227.134517 186.448366 
L 227.829411 177.033213 
L 228.524305 170.961121 
L 229.219199 170.551767 
L 229.914094 166.697012 
L 230.608988 192.452231 
L 231.303882 203.709479 
L 231.998776 186.039011 
L 232.69367 172.837329 
L 233.388564 173.894828 
L 234.083459 204.221172 
L 234.778353 192.349893 
L 235.473247 156.940731 
L 236.168141 201.901497 
L 236.863035 171.711605 
L 237.557929 132.925268 
L 238.252823 159.021616 
L 238.947718 213.192858 
L 239.642612 175.020553 
L 240.337506 295.9848 
L 241.0324 186.175463 
L 241.727294 175.941601 
L 242.422188 156.497263 
L 243.117082 161.477743 
L 243.811977 159.533309 
L 244.506871 172.769104 
L 245.201765 181.058532 
L 245.896659 165.503062 
L 246.591553 219.708417 
L 247.981341 265.931359 
L 248.676236 271.184742 
L 250.066024 151.687348 
L 251.455812 173.246684 
L 252.150706 171.54104 
L 252.8456 170.790557 
L 253.540495 209.201652 
L 254.235389 171.643379 
L 255.625177 188.222235 
L 256.320071 179.182324 
L 257.014965 209.815684 
L 257.70986 185.561431 
L 258.404754 170.449428 
L 259.099648 252.320323 
L 259.794542 149.026544 
L 261.879224 193.475617 
L 262.574119 200.741659 
L 263.269013 168.948462 
L 263.963907 156.565489 
L 264.658801 251.160485 
L 265.353695 234.479291 
L 266.048589 212.237698 
L 266.743483 182.013692 
L 267.438378 169.391929 
L 268.133272 171.472814 
L 268.828166 163.967982 
L 269.52306 149.504124 
L 270.217954 146.024611 
L 270.912848 159.465083 
L 271.607742 178.363615 
L 272.302637 251.603953 
L 272.997531 234.649855 
L 273.692425 209.713345 
L 274.387319 156.053796 
L 275.082213 162.057662 
L 275.777107 178.124825 
L 276.472001 172.052733 
L 277.166896 251.33105 
L 277.86179 190.917152 
L 278.556684 187.198849 
L 279.251578 187.062397 
L 279.946472 184.572158 
L 280.641366 191.190055 
L 281.336261 174.133619 
L 282.031155 201.185127 
L 282.726049 243.314525 
L 283.420943 206.199719 
L 284.115837 312.631882 
L 284.810731 220.390674 
L 285.505625 208.860523 
L 286.20052 195.249487 
L 286.895414 191.224168 
L 287.590308 198.456097 
L 288.285202 195.99997 
L 288.980096 200.093515 
L 289.67499 209.542781 
L 290.369884 196.375212 
L 291.064779 190.576023 
L 291.759673 193.850859 
L 292.454567 233.967598 
L 293.149461 219.128498 
L 293.844355 195.2836 
L 294.539249 207.223105 
L 295.234143 180.990306 
L 295.929038 190.917152 
L 296.623932 272.037564 
L 297.318826 229.874053 
L 298.01372 218.309789 
L 298.708614 209.0652 
L 299.403508 213.943341 
L 300.098402 239.69856 
L 300.793297 279.201267 
L 301.488191 246.487022 
L 302.183085 283.021909 
L 302.877979 238.777513 
L 303.572873 229.36236 
L 304.267767 229.260021 
L 304.962662 202.106174 
L 305.657556 234.615742 
L 306.35245 210.770844 
L 307.047344 206.881977 
L 307.742238 199.615935 
L 308.437132 210.736731 
L 309.132026 215.137292 
L 309.826921 204.016495 
L 310.521815 245.531861 
L 311.216709 309.971078 
L 311.911603 220.69769 
L 312.606497 210.532054 
L 313.996285 240.449043 
L 314.69118 221.107044 
L 316.080968 206.438509 
L 316.775862 207.496008 
L 317.470756 211.998907 
L 318.16565 240.585495 
L 318.860544 251.09226 
L 319.555439 217.934547 
L 320.250333 206.09738 
L 320.945227 243.280412 
L 321.640121 229.36236 
L 322.335015 258.665318 
L 323.029909 299.532539 
L 323.724803 308.299548 
L 324.419698 289.094 
L 325.114592 294.381495 
L 325.809486 255.49282 
L 326.50438 251.365163 
L 327.199274 231.716148 
L 327.894168 249.250165 
L 328.589063 255.765723 
L 329.283957 267.466439 
L 329.978851 257.74427 
L 330.673745 253.241371 
L 332.063533 194.226101 
L 332.758427 179.796355 
L 334.148216 252.968468 
L 334.84311 211.282537 
L 335.538004 259.756929 
L 336.232898 194.260214 
L 336.927792 224.38188 
L 337.622686 248.977262 
L 338.317581 255.185804 
L 339.012475 255.629272 
L 339.707369 233.899372 
L 340.402263 218.855595 
L 341.097157 221.721076 
L 341.792051 226.121637 
L 342.486945 289.639806 
L 343.18184 266.579504 
L 343.876734 251.058147 
L 344.571628 186.004898 
L 345.266522 188.358687 
L 345.961416 195.010697 
L 346.65631 216.126565 
L 347.351204 196.784566 
L 348.046099 223.392607 
L 348.740993 210.395602 
L 349.435887 180.20571 
L 350.130781 177.817809 
L 350.825675 205.722139 
L 351.520569 192.418118 
L 352.215463 237.412998 
L 352.910358 233.490017 
L 353.605252 204.937543 
L 354.300146 184.776835 
L 354.99504 238.436384 
L 355.689934 203.368351 
L 356.384828 203.334238 
L 357.079723 260.029832 
L 357.774617 281.862071 
L 358.469511 217.286403 
L 359.164405 200.229966 
L 359.859299 191.804087 
L 360.554193 231.511471 
L 361.249087 192.31578 
L 361.943982 186.721269 
L 362.638876 242.291139 
L 363.33377 227.281474 
L 364.028664 205.176333 
L 364.723558 171.199911 
L 365.418452 161.341291 
L 366.113346 215.069066 
L 366.808241 240.824285 
L 367.503135 218.412128 
L 368.198029 186.584817 
L 368.892923 185.186189 
L 369.587817 271.457645 
L 370.282711 163.797418 
L 370.977605 225.064138 
L 371.6725 195.317713 
L 372.367394 217.25229 
L 373.062288 220.322448 
L 373.757182 199.070129 
L 374.452076 166.321771 
L 375.14697 150.425172 
L 375.841864 178.158938 
L 376.536759 193.543843 
L 377.231653 166.492335 
L 377.926547 153.290653 
L 379.316335 118.7002 
L 380.011229 122.793745 
L 380.706124 184.674496 
L 381.401018 66.712182 
L 382.095912 133.027607 
L 382.790806 124.124147 
L 383.4857 126.170919 
L 384.180594 121.497456 
L 384.875488 99.631104 
L 385.570383 48.768811 
L 386.265277 218.992046 
L 386.960171 163.592741 
L 387.655065 144.421306 
L 388.349959 159.976776 
L 389.044853 139.645504 
L 389.739747 124.806404 
L 390.434642 147.798481 
L 391.129536 121.326891 
L 391.82443 127.944789 
L 392.519324 131.52664 
L 393.214218 103.008279 
L 393.909112 114.470204 
L 394.604006 113.753834 
L 395.298901 113.651495 
L 395.993795 100.108684 
L 396.688689 157.691214 
L 397.383583 143.500259 
L 398.078477 132.140672 
L 398.773371 168.163866 
L 399.468265 149.504124 
L 400.858054 79.538622 
L 401.552948 90.727644 
L 402.247842 116.721654 
L 402.942736 105.771421 
L 403.63763 185.049738 
L 404.332525 110.069643 
L 405.027419 85.33781 
L 405.722313 108.056984 
L 406.417207 298.986733 
L 407.806995 141.862841 
L 408.501889 122.657293 
L 409.196784 162.569355 
L 409.891678 121.395117 
L 410.586572 190.06433 
L 411.281466 118.973103 
L 411.97636 143.943726 
L 412.671254 138.212763 
L 413.366148 123.578341 
L 414.061043 114.981897 
L 414.755937 119.246006 
L 415.450831 99.22175 
L 416.145725 117.096895 
L 416.840619 120.030602 
L 417.535513 138.622118 
L 418.230407 173.110232 
L 418.925302 109.830853 
L 420.31509 80.596121 
L 421.009984 125.318097 
L 421.704878 237.037756 
L 423.094666 80.766686 
L 423.789561 82.1312 
L 424.484455 73.432418 
L 425.179349 51.088486 
L 425.874243 90.829983 
L 426.569137 185.322641 
L 427.264031 126.853177 
L 427.958926 154.586942 
L 428.65382 103.076504 
L 429.348714 104.304568 
L 430.043608 111.058917 
L 430.738502 109.182709 
L 431.433396 127.876563 
L 432.12829 138.110425 
L 432.823185 100.17691 
L 433.518079 83.700393 
L 434.212973 193.236827 
L 434.907867 57.024126 
L 435.602761 73.364192 
L 436.297655 95.298769 
L 436.992549 95.196431 
L 437.687444 93.354336 
L 438.382338 78.378784 
L 439.077232 70.123469 
L 439.772126 78.242333 
L 440.46702 108.943919 
L 441.161914 106.692469 
L 441.856808 164.41145 
L 442.551703 80.869024 
L 443.246597 82.847571 
L 443.941491 72.545483 
L 444.636385 71.283307 
L 445.331279 95.981027 
L 446.026173 160.079115 
L 446.721067 101.200296 
L 447.415962 122.1456 
L 448.110856 132.584139 
L 448.80575 135.381395 
L 449.500644 79.606848 
L 450.195538 98.948847 
L 450.890432 102.769489 
L 451.585327 80.152654 
L 452.280221 83.802731 
L 452.975115 99.358201 
L 453.670009 147.662029 
L 454.364903 140.020746 
L 455.059797 145.342354 
L 455.754691 121.599794 
L 456.449586 106.82892 
L 457.14448 81.483056 
L 457.839374 121.122214 
L 458.534268 122.282052 
L 459.229162 168.914349 
L 459.924056 174.645312 
L 460.61895 109.933192 
L 461.313845 119.450683 
L 462.008739 86.224745 
L 462.703633 80.016202 
L 463.398527 78.20822 
L 464.093421 96.288043 
L 464.788315 128.285917 
L 465.483209 101.029732 
L 466.178104 102.530698 
L 466.872998 139.133811 
L 467.567892 109.182709 
L 468.262786 133.77809 
L 468.95768 181.911354 
L 469.652574 81.244266 
L 470.347468 96.390381 
L 471.737257 55.216144 
L 472.432151 99.972233 
L 473.127045 98.505379 
L 473.821939 105.976099 
L 474.516833 108.978031 
L 475.211728 91.648692 
L 475.906622 87.862163 
L 476.601516 75.445077 
L 477.29641 86.327084 
L 477.991304 89.260791 
L 478.686198 101.234409 
L 479.381092 147.627916 
L 480.075987 94.787076 
L 480.075987 94.787076 
" style="fill:none;stroke:#000000;stroke-linecap:round;stroke-width:1.5;"/>
   </g>
   <g id="line2d_15">
    <path clip-path="url(#p05444c0df1)" d="M 480.770881 85.917729 
L 481.465775 77.01427 
L 482.160669 85.474262 
L 482.855563 136.643571 
L 483.550457 119.143668 
L 484.245351 110.786014 
L 484.940246 99.22175 
L 485.63514 102.598924 
L 486.330034 83.393377 
L 487.024928 74.592256 
L 487.719822 90.181838 
L 488.414716 65.722909 
L 489.10961 178.841195 
L 489.804505 111.263594 
L 490.499399 95.025866 
L 491.889187 69.134196 
L 492.584081 75.376852 
L 493.278975 127.535434 
L 493.973869 154.757507 
L 494.668764 98.061912 
L 495.363658 93.866029 
L 496.058552 71.453871 
L 496.753446 70.908065 
L 497.44834 83.291038 
L 498.143234 124.567614 
L 498.838129 135.824862 
L 499.533023 128.183579 
L 500.227917 99.869894 
L 500.922811 91.409902 
L 501.617705 122.418503 
L 502.312599 78.037656 
L 503.007493 130.162125 
L 503.702388 53.374049 
L 504.397282 77.321285 
L 505.092176 69.06597 
L 505.78707 65.552344 
L 506.481964 67.803794 
L 507.176858 60.810655 
L 507.871752 36.76108 
L 508.566647 83.870957 
L 509.261541 99.69933 
L 509.956435 195.078922 
L 510.651329 75.069836 
L 511.346223 70.669275 
L 512.041117 55.420821 
L 512.736011 47.643086 
L 514.1258 80.357331 
L 514.820694 76.877818 
L 515.515588 70.225808 
L 516.210482 81.824185 
L 516.905376 81.073701 
L 517.60027 42.185026 
L 518.295165 99.017073 
L 518.990059 102.803601 
L 519.684953 175.771036 
L 520.379847 75.71798 
L 521.074741 84.041521 
L 521.769635 55.796063 
L 522.464529 62.311621 
L 523.159424 214.28447 
L 523.854318 147.150336 
L 524.549212 115.97117 
L 525.244106 71.658548 
L 525.939 75.786206 
L 526.633894 85.610713 
L 527.328789 91.51224 
L 528.023683 107.545291 
L 528.718577 133.607526 
L 529.413471 77.01427 
L 530.108365 79.504509 
L 530.803259 77.867091 
L 531.498153 148.992431 
L 532.193048 58.047512 
L 532.887942 101.234409 
L 533.582836 93.251997 
L 534.27773 79.333945 
L 534.972624 71.590323 
L 535.667518 82.984022 
L 536.362412 80.084428 
L 537.057307 66.166376 
L 537.752201 181.911354 
L 538.447095 333.27017 
L 539.141989 296.632945 
L 539.836883 144.148403 
L 540.531777 129.820997 
L 541.226671 134.562686 
L 541.921566 158.748713 
L 542.61646 159.806212 
L 543.311354 154.621055 
L 544.006248 140.054859 
L 544.701142 162.262339 
L 545.396036 152.710734 
L 546.09093 129.616319 
L 546.785825 111.058917 
L 547.480719 100.279249 
L 548.175613 120.167054 
L 548.870507 194.362552 
L 549.565401 146.570417 
L 550.260295 148.276061 
L 550.95519 139.645504 
L 551.650084 141.999292 
L 552.344978 174.74765 
L 553.039872 146.433966 
L 553.734766 141.828728 
L 554.42966 158.47581 
L 555.124554 251.296937 
L 555.819449 200.639321 
L 556.514343 256.345642 
L 557.209237 251.33105 
L 557.904131 160.488469 
L 558.599025 198.96779 
L 559.293919 154.586942 
L 559.988813 152.437831 
L 560.683708 140.66889 
L 562.073496 175.429908 
L 562.76839 121.361004 
L 563.463284 108.671016 
L 564.158178 138.588005 
L 565.547967 163.183386 
L 566.242861 143.602597 
L 566.937755 223.9043 
L 567.632649 157.657101 
L 568.327543 146.36574 
L 569.022437 152.574283 
L 569.717331 145.308241 
L 570.412226 142.613324 
L 571.10712 161.852984 
L 571.802014 204.869317 
L 572.496908 177.613132 
L 573.191802 144.455419 
L 573.886696 154.348152 
L 574.581591 193.202714 
L 575.276485 210.429715 
L 575.971379 274.357239 
L 576.666273 273.06095 
L 577.361167 302.636811 
L 578.056061 299.464313 
L 578.750955 318.976877 
L 579.44585 261.90604 
L 580.140744 228.441312 
L 580.835638 288.275291 
L 581.530532 272.753934 
L 582.225426 240.926624 
L 582.225426 240.926624 
" style="fill:none;stroke:#c44e52;stroke-linecap:round;stroke-width:1.5;"/>
   </g>
   <g id="line2d_16">
    <path clip-path="url(#p05444c0df1)" d="M 328.589063 348.095625 
L 328.589063 21.935625 
" style="fill:none;stroke:#da8bc3;stroke-dasharray:5.55,2.4;stroke-dashoffset:0;stroke-width:1.5;"/>
   </g>
   <g id="line2d_17">
    <path clip-path="url(#p05444c0df1)" d="M 480.770881 348.095625 
L 480.770881 21.935625 
" style="fill:none;stroke:#808080;stroke-dasharray:5.55,2.4;stroke-dashoffset:0;stroke-width:1.5;"/>
   </g>
   <g id="patch_3">
    <path d="M 49.589063 348.095625 
L 49.589063 21.935625 
" style="fill:none;stroke:#ffffff;stroke-linecap:square;stroke-linejoin:miter;stroke-width:0.8;"/>
   </g>
   <g id="patch_4">
    <path d="M 607.589062 348.095625 
L 607.589062 21.935625 
" style="fill:none;stroke:#ffffff;stroke-linecap:square;stroke-linejoin:miter;stroke-width:0.8;"/>
   </g>
   <g id="patch_5">
    <path d="M 49.589063 348.095625 
L 607.589062 348.095625 
" style="fill:none;stroke:#ffffff;stroke-linecap:square;stroke-linejoin:miter;stroke-width:0.8;"/>
   </g>
   <g id="patch_6">
    <path d="M 49.589063 21.935625 
L 607.589062 21.935625 
" style="fill:none;stroke:#ffffff;stroke-linecap:square;stroke-linejoin:miter;stroke-width:0.8;"/>
   </g>
   <g id="text_15">
    <!-- Train - Test Split -->
    <g style="fill:#262626;" transform="translate(285.579375 15.935625)scale(0.12 -0.12)">
     <defs>
      <path d="M 1659 0 
L 1659 4041 
L 150 4041 
L 150 4581 
L 3781 4581 
L 3781 4041 
L 2266 4041 
L 2266 0 
L 1659 0 
z
" id="ArialMT-54" transform="scale(0.015625)"/>
      <path d="M 416 0 
L 416 3319 
L 922 3319 
L 922 2816 
Q 1116 3169 1280 3281 
Q 1444 3394 1641 3394 
Q 1925 3394 2219 3213 
L 2025 2691 
Q 1819 2813 1613 2813 
Q 1428 2813 1281 2702 
Q 1134 2591 1072 2394 
Q 978 2094 978 1738 
L 978 0 
L 416 0 
z
" id="ArialMT-72" transform="scale(0.015625)"/>
      <path d="M 2588 409 
Q 2275 144 1986 34 
Q 1697 -75 1366 -75 
Q 819 -75 525 192 
Q 231 459 231 875 
Q 231 1119 342 1320 
Q 453 1522 633 1644 
Q 813 1766 1038 1828 
Q 1203 1872 1538 1913 
Q 2219 1994 2541 2106 
Q 2544 2222 2544 2253 
Q 2544 2597 2384 2738 
Q 2169 2928 1744 2928 
Q 1347 2928 1158 2789 
Q 969 2650 878 2297 
L 328 2372 
Q 403 2725 575 2942 
Q 747 3159 1072 3276 
Q 1397 3394 1825 3394 
Q 2250 3394 2515 3294 
Q 2781 3194 2906 3042 
Q 3031 2891 3081 2659 
Q 3109 2516 3109 2141 
L 3109 1391 
Q 3109 606 3145 398 
Q 3181 191 3288 0 
L 2700 0 
Q 2613 175 2588 409 
z
M 2541 1666 
Q 2234 1541 1622 1453 
Q 1275 1403 1131 1340 
Q 988 1278 909 1158 
Q 831 1038 831 891 
Q 831 666 1001 516 
Q 1172 366 1500 366 
Q 1825 366 2078 508 
Q 2331 650 2450 897 
Q 2541 1088 2541 1459 
L 2541 1666 
z
" id="ArialMT-61" transform="scale(0.015625)"/>
      <path d="M 425 3934 
L 425 4581 
L 988 4581 
L 988 3934 
L 425 3934 
z
M 425 0 
L 425 3319 
L 988 3319 
L 988 0 
L 425 0 
z
" id="ArialMT-69" transform="scale(0.015625)"/>
      <path id="ArialMT-20" transform="scale(0.015625)"/>
      <path d="M 203 1375 
L 203 1941 
L 1931 1941 
L 1931 1375 
L 203 1375 
z
" id="ArialMT-2d" transform="scale(0.015625)"/>
      <path d="M 2694 1069 
L 3275 997 
Q 3138 488 2766 206 
Q 2394 -75 1816 -75 
Q 1088 -75 661 373 
Q 234 822 234 1631 
Q 234 2469 665 2931 
Q 1097 3394 1784 3394 
Q 2450 3394 2872 2941 
Q 3294 2488 3294 1666 
Q 3294 1616 3291 1516 
L 816 1516 
Q 847 969 1125 678 
Q 1403 388 1819 388 
Q 2128 388 2347 550 
Q 2566 713 2694 1069 
z
M 847 1978 
L 2700 1978 
Q 2663 2397 2488 2606 
Q 2219 2931 1791 2931 
Q 1403 2931 1139 2672 
Q 875 2413 847 1978 
z
" id="ArialMT-65" transform="scale(0.015625)"/>
      <path d="M 197 991 
L 753 1078 
Q 800 744 1014 566 
Q 1228 388 1613 388 
Q 2000 388 2187 545 
Q 2375 703 2375 916 
Q 2375 1106 2209 1216 
Q 2094 1291 1634 1406 
Q 1016 1563 777 1677 
Q 538 1791 414 1992 
Q 291 2194 291 2438 
Q 291 2659 392 2848 
Q 494 3038 669 3163 
Q 800 3259 1026 3326 
Q 1253 3394 1513 3394 
Q 1903 3394 2198 3281 
Q 2494 3169 2634 2976 
Q 2775 2784 2828 2463 
L 2278 2388 
Q 2241 2644 2061 2787 
Q 1881 2931 1553 2931 
Q 1166 2931 1000 2803 
Q 834 2675 834 2503 
Q 834 2394 903 2306 
Q 972 2216 1119 2156 
Q 1203 2125 1616 2013 
Q 2213 1853 2448 1751 
Q 2684 1650 2818 1456 
Q 2953 1263 2953 975 
Q 2953 694 2789 445 
Q 2625 197 2315 61 
Q 2006 -75 1616 -75 
Q 969 -75 630 194 
Q 291 463 197 991 
z
" id="ArialMT-73" transform="scale(0.015625)"/>
      <path d="M 288 1472 
L 859 1522 
Q 900 1178 1048 958 
Q 1197 738 1509 602 
Q 1822 466 2213 466 
Q 2559 466 2825 569 
Q 3091 672 3220 851 
Q 3350 1031 3350 1244 
Q 3350 1459 3225 1620 
Q 3100 1781 2813 1891 
Q 2628 1963 1997 2114 
Q 1366 2266 1113 2400 
Q 784 2572 623 2826 
Q 463 3081 463 3397 
Q 463 3744 659 4045 
Q 856 4347 1234 4503 
Q 1613 4659 2075 4659 
Q 2584 4659 2973 4495 
Q 3363 4331 3572 4012 
Q 3781 3694 3797 3291 
L 3216 3247 
Q 3169 3681 2898 3903 
Q 2628 4125 2100 4125 
Q 1550 4125 1298 3923 
Q 1047 3722 1047 3438 
Q 1047 3191 1225 3031 
Q 1400 2872 2139 2705 
Q 2878 2538 3153 2413 
Q 3553 2228 3743 1945 
Q 3934 1663 3934 1294 
Q 3934 928 3725 604 
Q 3516 281 3123 101 
Q 2731 -78 2241 -78 
Q 1619 -78 1198 103 
Q 778 284 539 648 
Q 300 1013 288 1472 
z
" id="ArialMT-53" transform="scale(0.015625)"/>
      <path d="M 422 -1272 
L 422 3319 
L 934 3319 
L 934 2888 
Q 1116 3141 1344 3267 
Q 1572 3394 1897 3394 
Q 2322 3394 2647 3175 
Q 2972 2956 3137 2557 
Q 3303 2159 3303 1684 
Q 3303 1175 3120 767 
Q 2938 359 2589 142 
Q 2241 -75 1856 -75 
Q 1575 -75 1351 44 
Q 1128 163 984 344 
L 984 -1272 
L 422 -1272 
z
M 931 1641 
Q 931 1000 1190 694 
Q 1450 388 1819 388 
Q 2194 388 2461 705 
Q 2728 1022 2728 1688 
Q 2728 2322 2467 2637 
Q 2206 2953 1844 2953 
Q 1484 2953 1207 2617 
Q 931 2281 931 1641 
z
" id="ArialMT-70" transform="scale(0.015625)"/>
      <path d="M 409 0 
L 409 4581 
L 972 4581 
L 972 0 
L 409 0 
z
" id="ArialMT-6c" transform="scale(0.015625)"/>
     </defs>
     <use xlink:href="#ArialMT-54"/>
     <use x="57.333984" xlink:href="#ArialMT-72"/>
     <use x="90.634766" xlink:href="#ArialMT-61"/>
     <use x="146.25" xlink:href="#ArialMT-69"/>
     <use x="168.466797" xlink:href="#ArialMT-6e"/>
     <use x="224.082031" xlink:href="#ArialMT-20"/>
     <use x="251.865234" xlink:href="#ArialMT-2d"/>
     <use x="285.166016" xlink:href="#ArialMT-20"/>
     <use x="311.199219" xlink:href="#ArialMT-54"/>
     <use x="361.158203" xlink:href="#ArialMT-65"/>
     <use x="416.773438" xlink:href="#ArialMT-73"/>
     <use x="466.773438" xlink:href="#ArialMT-74"/>
     <use x="494.556641" xlink:href="#ArialMT-20"/>
     <use x="522.339844" xlink:href="#ArialMT-53"/>
     <use x="589.039062" xlink:href="#ArialMT-70"/>
     <use x="644.654297" xlink:href="#ArialMT-6c"/>
     <use x="666.871094" xlink:href="#ArialMT-69"/>
     <use x="689.087891" xlink:href="#ArialMT-74"/>
    </g>
   </g>
   <g id="legend_1">
    <g id="patch_7">
     <path d="M 56.589063 86.75125 
L 151.789062 86.75125 
Q 153.789062 86.75125 153.789062 84.75125 
L 153.789062 28.935625 
Q 153.789062 26.935625 151.789062 26.935625 
L 56.589063 26.935625 
Q 54.589063 26.935625 54.589063 28.935625 
L 54.589063 84.75125 
Q 54.589063 86.75125 56.589063 86.75125 
z
" style="fill:#e6e6e6;opacity:0.8;stroke:#cccccc;stroke-linejoin:miter;"/>
    </g>
    <g id="line2d_18">
     <path d="M 58.589063 34.593438 
L 78.589063 34.593438 
" style="fill:none;stroke:#000000;stroke-linecap:round;stroke-width:1.5;"/>
    </g>
    <g id="line2d_19"/>
    <g id="text_16">
     <!-- y_train -->
     <g style="fill:#262626;" transform="translate(86.589063 38.093438)scale(0.1 -0.1)">
      <defs>
       <path d="M 397 -1278 
L 334 -750 
Q 519 -800 656 -800 
Q 844 -800 956 -737 
Q 1069 -675 1141 -563 
Q 1194 -478 1313 -144 
Q 1328 -97 1363 -6 
L 103 3319 
L 709 3319 
L 1400 1397 
Q 1534 1031 1641 628 
Q 1738 1016 1872 1384 
L 2581 3319 
L 3144 3319 
L 1881 -56 
Q 1678 -603 1566 -809 
Q 1416 -1088 1222 -1217 
Q 1028 -1347 759 -1347 
Q 597 -1347 397 -1278 
z
" id="ArialMT-79" transform="scale(0.015625)"/>
       <path d="M -97 -1272 
L -97 -866 
L 3631 -866 
L 3631 -1272 
L -97 -1272 
z
" id="ArialMT-5f" transform="scale(0.015625)"/>
      </defs>
      <use xlink:href="#ArialMT-79"/>
      <use x="50" xlink:href="#ArialMT-5f"/>
      <use x="105.615234" xlink:href="#ArialMT-74"/>
      <use x="133.398438" xlink:href="#ArialMT-72"/>
      <use x="166.699219" xlink:href="#ArialMT-61"/>
      <use x="222.314453" xlink:href="#ArialMT-69"/>
      <use x="244.53125" xlink:href="#ArialMT-6e"/>
     </g>
    </g>
    <g id="line2d_20">
     <path d="M 58.589063 48.855938 
L 78.589063 48.855938 
" style="fill:none;stroke:#c44e52;stroke-linecap:round;stroke-width:1.5;"/>
    </g>
    <g id="line2d_21"/>
    <g id="text_17">
     <!-- y_test -->
     <g style="fill:#262626;" transform="translate(86.589063 52.355938)scale(0.1 -0.1)">
      <use xlink:href="#ArialMT-79"/>
      <use x="50" xlink:href="#ArialMT-5f"/>
      <use x="105.615234" xlink:href="#ArialMT-74"/>
      <use x="133.398438" xlink:href="#ArialMT-65"/>
      <use x="189.013672" xlink:href="#ArialMT-73"/>
      <use x="239.013672" xlink:href="#ArialMT-74"/>
     </g>
    </g>
    <g id="line2d_22">
     <path d="M 58.589063 63.118438 
L 78.589063 63.118438 
" style="fill:none;stroke:#da8bc3;stroke-dasharray:5.55,2.4;stroke-dashoffset:0;stroke-width:1.5;"/>
    </g>
    <g id="line2d_23"/>
    <g id="text_18">
     <!-- $2011 \rightarrow 2012$ -->
     <g style="fill:#262626;" transform="translate(86.589063 66.618438)scale(0.1 -0.1)">
      <defs>
       <path d="M 1228 531 
L 3431 531 
L 3431 0 
L 469 0 
L 469 531 
Q 828 903 1448 1529 
Q 2069 2156 2228 2338 
Q 2531 2678 2651 2914 
Q 2772 3150 2772 3378 
Q 2772 3750 2511 3984 
Q 2250 4219 1831 4219 
Q 1534 4219 1204 4116 
Q 875 4013 500 3803 
L 500 4441 
Q 881 4594 1212 4672 
Q 1544 4750 1819 4750 
Q 2544 4750 2975 4387 
Q 3406 4025 3406 3419 
Q 3406 3131 3298 2873 
Q 3191 2616 2906 2266 
Q 2828 2175 2409 1742 
Q 1991 1309 1228 531 
z
" id="DejaVuSans-32" transform="scale(0.015625)"/>
       <path d="M 2034 4250 
Q 1547 4250 1301 3770 
Q 1056 3291 1056 2328 
Q 1056 1369 1301 889 
Q 1547 409 2034 409 
Q 2525 409 2770 889 
Q 3016 1369 3016 2328 
Q 3016 3291 2770 3770 
Q 2525 4250 2034 4250 
z
M 2034 4750 
Q 2819 4750 3233 4129 
Q 3647 3509 3647 2328 
Q 3647 1150 3233 529 
Q 2819 -91 2034 -91 
Q 1250 -91 836 529 
Q 422 1150 422 2328 
Q 422 3509 836 4129 
Q 1250 4750 2034 4750 
z
" id="DejaVuSans-30" transform="scale(0.015625)"/>
       <path d="M 794 531 
L 1825 531 
L 1825 4091 
L 703 3866 
L 703 4441 
L 1819 4666 
L 2450 4666 
L 2450 531 
L 3481 531 
L 3481 0 
L 794 0 
L 794 531 
z
" id="DejaVuSans-31" transform="scale(0.015625)"/>
       <path d="M 5050 2147 
L 5050 1866 
L 3822 638 
L 3447 1013 
L 4175 1741 
L 366 1741 
L 366 2272 
L 4175 2272 
L 3447 3000 
L 3822 3375 
L 5050 2147 
z
" id="DejaVuSans-2192" transform="scale(0.015625)"/>
      </defs>
      <use transform="translate(0 0.78125)" xlink:href="#DejaVuSans-32"/>
      <use transform="translate(63.623047 0.78125)" xlink:href="#DejaVuSans-30"/>
      <use transform="translate(127.246094 0.78125)" xlink:href="#DejaVuSans-31"/>
      <use transform="translate(190.869141 0.78125)" xlink:href="#DejaVuSans-31"/>
      <use transform="translate(273.974609 0.78125)" xlink:href="#DejaVuSans-2192"/>
      <use transform="translate(377.246094 0.78125)" xlink:href="#DejaVuSans-32"/>
      <use transform="translate(440.869141 0.78125)" xlink:href="#DejaVuSans-30"/>
      <use transform="translate(504.492188 0.78125)" xlink:href="#DejaVuSans-31"/>
      <use transform="translate(568.115234 0.78125)" xlink:href="#DejaVuSans-32"/>
     </g>
    </g>
    <g id="line2d_24">
     <path d="M 58.589063 77.26375 
L 78.589063 77.26375 
" style="fill:none;stroke:#808080;stroke-dasharray:5.55,2.4;stroke-dashoffset:0;stroke-width:1.5;"/>
    </g>
    <g id="line2d_25"/>
    <g id="text_19">
     <!-- train-test-split -->
     <g style="fill:#262626;" transform="translate(86.589063 80.76375)scale(0.1 -0.1)">
      <use xlink:href="#ArialMT-74"/>
      <use x="27.783203" xlink:href="#ArialMT-72"/>
      <use x="61.083984" xlink:href="#ArialMT-61"/>
      <use x="116.699219" xlink:href="#ArialMT-69"/>
      <use x="138.916016" xlink:href="#ArialMT-6e"/>
      <use x="194.53125" xlink:href="#ArialMT-2d"/>
      <use x="227.832031" xlink:href="#ArialMT-74"/>
      <use x="255.615234" xlink:href="#ArialMT-65"/>
      <use x="311.230469" xlink:href="#ArialMT-73"/>
      <use x="361.230469" xlink:href="#ArialMT-74"/>
      <use x="389.013672" xlink:href="#ArialMT-2d"/>
      <use x="422.314453" xlink:href="#ArialMT-73"/>
      <use x="472.314453" xlink:href="#ArialMT-70"/>
      <use x="527.929688" xlink:href="#ArialMT-6c"/>
      <use x="550.146484" xlink:href="#ArialMT-69"/>
      <use x="572.363281" xlink:href="#ArialMT-74"/>
     </g>
    </g>
   </g>
  </g>
 </g>
 <defs>
  <clipPath id="p05444c0df1">
   <rect height="326.16" width="558" x="49.589063" y="21.935625"/>
  </clipPath>
 </defs>
</svg>
