<?xml version="1.0" encoding="utf-8" standalone="no"?>
<!DOCTYPE svg PUBLIC "-//W3C//DTD SVG 1.1//EN"
  "http://www.w3.org/Graphics/SVG/1.1/DTD/svg11.dtd">
<svg height="439.185312pt" version="1.1" viewBox="0 0 497.238437 439.185312" width="497.238437pt" xmlns="http://www.w3.org/2000/svg" xmlns:xlink="http://www.w3.org/1999/xlink">
 <metadata>
  <rdf:RDF xmlns:cc="http://creativecommons.org/ns#" xmlns:dc="http://purl.org/dc/elements/1.1/" xmlns:rdf="http://www.w3.org/1999/02/22-rdf-syntax-ns#">
   <cc:Work>
    <dc:type rdf:resource="http://purl.org/dc/dcmitype/StillImage"/>
    <dc:date>2021-10-31T20:16:46.318957</dc:date>
    <dc:format>image/svg+xml</dc:format>
    <dc:creator>
     <cc:Agent>
      <dc:title>Matplotlib v3.4.3, https://matplotlib.org/</dc:title>
     </cc:Agent>
    </dc:creator>
   </cc:Work>
  </rdf:RDF>
 </metadata>
 <defs>
  <style type="text/css">*{stroke-linecap:butt;stroke-linejoin:round;}</style>
 </defs>
 <g id="figure_1">
  <g id="patch_1">
   <path d="M 0 439.185312 
L 497.238437 439.185312 
L 497.238437 0 
L 0 0 
z
" style="fill:#ffffff;"/>
  </g>
  <g id="axes_1">
   <g id="patch_2">
    <path d="M 210.020313 402.455625 
L 489.020313 402.455625 
L 489.020313 21.935625 
L 210.020313 21.935625 
z
" style="fill:#e6e6e6;"/>
   </g>
   <g id="matplotlib.axis_1">
    <g id="xtick_1">
     <g id="line2d_1">
      <path clip-path="url(#p3b9797b6e4)" d="M 210.020313 402.455625 
L 210.020313 21.935625 
" style="fill:none;stroke:#cccccc;stroke-linecap:round;stroke-width:0.8;"/>
     </g>
     <g id="text_1">
      <!-- 0 -->
      <g style="fill:#262626;" transform="translate(207.239844 416.613437)scale(0.1 -0.1)">
       <defs>
        <path d="M 266 2259 
Q 266 3072 433 3567 
Q 600 4063 929 4331 
Q 1259 4600 1759 4600 
Q 2128 4600 2406 4451 
Q 2684 4303 2865 4023 
Q 3047 3744 3150 3342 
Q 3253 2941 3253 2259 
Q 3253 1453 3087 958 
Q 2922 463 2592 192 
Q 2263 -78 1759 -78 
Q 1097 -78 719 397 
Q 266 969 266 2259 
z
M 844 2259 
Q 844 1131 1108 757 
Q 1372 384 1759 384 
Q 2147 384 2411 759 
Q 2675 1134 2675 2259 
Q 2675 3391 2411 3762 
Q 2147 4134 1753 4134 
Q 1366 4134 1134 3806 
Q 844 3388 844 2259 
z
" id="ArialMT-30" transform="scale(0.015625)"/>
       </defs>
       <use xlink:href="#ArialMT-30"/>
      </g>
     </g>
    </g>
    <g id="xtick_2">
     <g id="line2d_2">
      <path clip-path="url(#p3b9797b6e4)" d="M 244.913709 402.455625 
L 244.913709 21.935625 
" style="fill:none;stroke:#cccccc;stroke-linecap:round;stroke-width:0.8;"/>
     </g>
     <g id="text_2">
      <!-- 50 -->
      <g style="fill:#262626;" transform="translate(239.352772 416.613437)scale(0.1 -0.1)">
       <defs>
        <path d="M 266 1200 
L 856 1250 
Q 922 819 1161 601 
Q 1400 384 1738 384 
Q 2144 384 2425 690 
Q 2706 997 2706 1503 
Q 2706 1984 2436 2262 
Q 2166 2541 1728 2541 
Q 1456 2541 1237 2417 
Q 1019 2294 894 2097 
L 366 2166 
L 809 4519 
L 3088 4519 
L 3088 3981 
L 1259 3981 
L 1013 2750 
Q 1425 3038 1878 3038 
Q 2478 3038 2890 2622 
Q 3303 2206 3303 1553 
Q 3303 931 2941 478 
Q 2500 -78 1738 -78 
Q 1113 -78 717 272 
Q 322 622 266 1200 
z
" id="ArialMT-35" transform="scale(0.015625)"/>
       </defs>
       <use xlink:href="#ArialMT-35"/>
       <use x="55.615234" xlink:href="#ArialMT-30"/>
      </g>
     </g>
    </g>
    <g id="xtick_3">
     <g id="line2d_3">
      <path clip-path="url(#p3b9797b6e4)" d="M 279.807106 402.455625 
L 279.807106 21.935625 
" style="fill:none;stroke:#cccccc;stroke-linecap:round;stroke-width:0.8;"/>
     </g>
     <g id="text_3">
      <!-- 100 -->
      <g style="fill:#262626;" transform="translate(271.4657 416.613437)scale(0.1 -0.1)">
       <defs>
        <path d="M 2384 0 
L 1822 0 
L 1822 3584 
Q 1619 3391 1289 3197 
Q 959 3003 697 2906 
L 697 3450 
Q 1169 3672 1522 3987 
Q 1875 4303 2022 4600 
L 2384 4600 
L 2384 0 
z
" id="ArialMT-31" transform="scale(0.015625)"/>
       </defs>
       <use xlink:href="#ArialMT-31"/>
       <use x="55.615234" xlink:href="#ArialMT-30"/>
       <use x="111.230469" xlink:href="#ArialMT-30"/>
      </g>
     </g>
    </g>
    <g id="xtick_4">
     <g id="line2d_4">
      <path clip-path="url(#p3b9797b6e4)" d="M 314.700502 402.455625 
L 314.700502 21.935625 
" style="fill:none;stroke:#cccccc;stroke-linecap:round;stroke-width:0.8;"/>
     </g>
     <g id="text_4">
      <!-- 150 -->
      <g style="fill:#262626;" transform="translate(306.359096 416.613437)scale(0.1 -0.1)">
       <use xlink:href="#ArialMT-31"/>
       <use x="55.615234" xlink:href="#ArialMT-35"/>
       <use x="111.230469" xlink:href="#ArialMT-30"/>
      </g>
     </g>
    </g>
    <g id="xtick_5">
     <g id="line2d_5">
      <path clip-path="url(#p3b9797b6e4)" d="M 349.593899 402.455625 
L 349.593899 21.935625 
" style="fill:none;stroke:#cccccc;stroke-linecap:round;stroke-width:0.8;"/>
     </g>
     <g id="text_5">
      <!-- 200 -->
      <g style="fill:#262626;" transform="translate(341.252493 416.613437)scale(0.1 -0.1)">
       <defs>
        <path d="M 3222 541 
L 3222 0 
L 194 0 
Q 188 203 259 391 
Q 375 700 629 1000 
Q 884 1300 1366 1694 
Q 2113 2306 2375 2664 
Q 2638 3022 2638 3341 
Q 2638 3675 2398 3904 
Q 2159 4134 1775 4134 
Q 1369 4134 1125 3890 
Q 881 3647 878 3216 
L 300 3275 
Q 359 3922 746 4261 
Q 1134 4600 1788 4600 
Q 2447 4600 2831 4234 
Q 3216 3869 3216 3328 
Q 3216 3053 3103 2787 
Q 2991 2522 2730 2228 
Q 2469 1934 1863 1422 
Q 1356 997 1212 845 
Q 1069 694 975 541 
L 3222 541 
z
" id="ArialMT-32" transform="scale(0.015625)"/>
       </defs>
       <use xlink:href="#ArialMT-32"/>
       <use x="55.615234" xlink:href="#ArialMT-30"/>
       <use x="111.230469" xlink:href="#ArialMT-30"/>
      </g>
     </g>
    </g>
    <g id="xtick_6">
     <g id="line2d_6">
      <path clip-path="url(#p3b9797b6e4)" d="M 384.487296 402.455625 
L 384.487296 21.935625 
" style="fill:none;stroke:#cccccc;stroke-linecap:round;stroke-width:0.8;"/>
     </g>
     <g id="text_6">
      <!-- 250 -->
      <g style="fill:#262626;" transform="translate(376.145889 416.613437)scale(0.1 -0.1)">
       <use xlink:href="#ArialMT-32"/>
       <use x="55.615234" xlink:href="#ArialMT-35"/>
       <use x="111.230469" xlink:href="#ArialMT-30"/>
      </g>
     </g>
    </g>
    <g id="xtick_7">
     <g id="line2d_7">
      <path clip-path="url(#p3b9797b6e4)" d="M 419.380692 402.455625 
L 419.380692 21.935625 
" style="fill:none;stroke:#cccccc;stroke-linecap:round;stroke-width:0.8;"/>
     </g>
     <g id="text_7">
      <!-- 300 -->
      <g style="fill:#262626;" transform="translate(411.039286 416.613437)scale(0.1 -0.1)">
       <defs>
        <path d="M 269 1209 
L 831 1284 
Q 928 806 1161 595 
Q 1394 384 1728 384 
Q 2125 384 2398 659 
Q 2672 934 2672 1341 
Q 2672 1728 2419 1979 
Q 2166 2231 1775 2231 
Q 1616 2231 1378 2169 
L 1441 2663 
Q 1497 2656 1531 2656 
Q 1891 2656 2178 2843 
Q 2466 3031 2466 3422 
Q 2466 3731 2256 3934 
Q 2047 4138 1716 4138 
Q 1388 4138 1169 3931 
Q 950 3725 888 3313 
L 325 3413 
Q 428 3978 793 4289 
Q 1159 4600 1703 4600 
Q 2078 4600 2393 4439 
Q 2709 4278 2876 4000 
Q 3044 3722 3044 3409 
Q 3044 3113 2884 2869 
Q 2725 2625 2413 2481 
Q 2819 2388 3044 2092 
Q 3269 1797 3269 1353 
Q 3269 753 2831 336 
Q 2394 -81 1725 -81 
Q 1122 -81 723 278 
Q 325 638 269 1209 
z
" id="ArialMT-33" transform="scale(0.015625)"/>
       </defs>
       <use xlink:href="#ArialMT-33"/>
       <use x="55.615234" xlink:href="#ArialMT-30"/>
       <use x="111.230469" xlink:href="#ArialMT-30"/>
      </g>
     </g>
    </g>
    <g id="xtick_8">
     <g id="line2d_8">
      <path clip-path="url(#p3b9797b6e4)" d="M 454.274089 402.455625 
L 454.274089 21.935625 
" style="fill:none;stroke:#cccccc;stroke-linecap:round;stroke-width:0.8;"/>
     </g>
     <g id="text_8">
      <!-- 350 -->
      <g style="fill:#262626;" transform="translate(445.932683 416.613437)scale(0.1 -0.1)">
       <use xlink:href="#ArialMT-33"/>
       <use x="55.615234" xlink:href="#ArialMT-35"/>
       <use x="111.230469" xlink:href="#ArialMT-30"/>
      </g>
     </g>
    </g>
    <g id="text_9">
     <!-- weight effect -->
     <g style="fill:#262626;" transform="translate(321.538281 429.880625)scale(0.1 -0.1)">
      <defs>
       <path d="M 1034 0 
L 19 3319 
L 600 3319 
L 1128 1403 
L 1325 691 
Q 1338 744 1497 1375 
L 2025 3319 
L 2603 3319 
L 3100 1394 
L 3266 759 
L 3456 1400 
L 4025 3319 
L 4572 3319 
L 3534 0 
L 2950 0 
L 2422 1988 
L 2294 2553 
L 1622 0 
L 1034 0 
z
" id="ArialMT-77" transform="scale(0.015625)"/>
       <path d="M 2694 1069 
L 3275 997 
Q 3138 488 2766 206 
Q 2394 -75 1816 -75 
Q 1088 -75 661 373 
Q 234 822 234 1631 
Q 234 2469 665 2931 
Q 1097 3394 1784 3394 
Q 2450 3394 2872 2941 
Q 3294 2488 3294 1666 
Q 3294 1616 3291 1516 
L 816 1516 
Q 847 969 1125 678 
Q 1403 388 1819 388 
Q 2128 388 2347 550 
Q 2566 713 2694 1069 
z
M 847 1978 
L 2700 1978 
Q 2663 2397 2488 2606 
Q 2219 2931 1791 2931 
Q 1403 2931 1139 2672 
Q 875 2413 847 1978 
z
" id="ArialMT-65" transform="scale(0.015625)"/>
       <path d="M 425 3934 
L 425 4581 
L 988 4581 
L 988 3934 
L 425 3934 
z
M 425 0 
L 425 3319 
L 988 3319 
L 988 0 
L 425 0 
z
" id="ArialMT-69" transform="scale(0.015625)"/>
       <path d="M 319 -275 
L 866 -356 
Q 900 -609 1056 -725 
Q 1266 -881 1628 -881 
Q 2019 -881 2231 -725 
Q 2444 -569 2519 -288 
Q 2563 -116 2559 434 
Q 2191 0 1641 0 
Q 956 0 581 494 
Q 206 988 206 1678 
Q 206 2153 378 2554 
Q 550 2956 876 3175 
Q 1203 3394 1644 3394 
Q 2231 3394 2613 2919 
L 2613 3319 
L 3131 3319 
L 3131 450 
Q 3131 -325 2973 -648 
Q 2816 -972 2473 -1159 
Q 2131 -1347 1631 -1347 
Q 1038 -1347 672 -1080 
Q 306 -813 319 -275 
z
M 784 1719 
Q 784 1066 1043 766 
Q 1303 466 1694 466 
Q 2081 466 2343 764 
Q 2606 1063 2606 1700 
Q 2606 2309 2336 2618 
Q 2066 2928 1684 2928 
Q 1309 2928 1046 2623 
Q 784 2319 784 1719 
z
" id="ArialMT-67" transform="scale(0.015625)"/>
       <path d="M 422 0 
L 422 4581 
L 984 4581 
L 984 2938 
Q 1378 3394 1978 3394 
Q 2347 3394 2619 3248 
Q 2891 3103 3008 2847 
Q 3125 2591 3125 2103 
L 3125 0 
L 2563 0 
L 2563 2103 
Q 2563 2525 2380 2717 
Q 2197 2909 1863 2909 
Q 1613 2909 1392 2779 
Q 1172 2650 1078 2428 
Q 984 2206 984 1816 
L 984 0 
L 422 0 
z
" id="ArialMT-68" transform="scale(0.015625)"/>
       <path d="M 1650 503 
L 1731 6 
Q 1494 -44 1306 -44 
Q 1000 -44 831 53 
Q 663 150 594 308 
Q 525 466 525 972 
L 525 2881 
L 113 2881 
L 113 3319 
L 525 3319 
L 525 4141 
L 1084 4478 
L 1084 3319 
L 1650 3319 
L 1650 2881 
L 1084 2881 
L 1084 941 
Q 1084 700 1114 631 
Q 1144 563 1211 522 
Q 1278 481 1403 481 
Q 1497 481 1650 503 
z
" id="ArialMT-74" transform="scale(0.015625)"/>
       <path id="ArialMT-20" transform="scale(0.015625)"/>
       <path d="M 556 0 
L 556 2881 
L 59 2881 
L 59 3319 
L 556 3319 
L 556 3672 
Q 556 4006 616 4169 
Q 697 4388 901 4523 
Q 1106 4659 1475 4659 
Q 1713 4659 2000 4603 
L 1916 4113 
Q 1741 4144 1584 4144 
Q 1328 4144 1222 4034 
Q 1116 3925 1116 3625 
L 1116 3319 
L 1763 3319 
L 1763 2881 
L 1116 2881 
L 1116 0 
L 556 0 
z
" id="ArialMT-66" transform="scale(0.015625)"/>
       <path d="M 2588 1216 
L 3141 1144 
Q 3050 572 2676 248 
Q 2303 -75 1759 -75 
Q 1078 -75 664 370 
Q 250 816 250 1647 
Q 250 2184 428 2587 
Q 606 2991 970 3192 
Q 1334 3394 1763 3394 
Q 2303 3394 2647 3120 
Q 2991 2847 3088 2344 
L 2541 2259 
Q 2463 2594 2264 2762 
Q 2066 2931 1784 2931 
Q 1359 2931 1093 2626 
Q 828 2322 828 1663 
Q 828 994 1084 691 
Q 1341 388 1753 388 
Q 2084 388 2306 591 
Q 2528 794 2588 1216 
z
" id="ArialMT-63" transform="scale(0.015625)"/>
      </defs>
      <use xlink:href="#ArialMT-77"/>
      <use x="72.216797" xlink:href="#ArialMT-65"/>
      <use x="127.832031" xlink:href="#ArialMT-69"/>
      <use x="150.048828" xlink:href="#ArialMT-67"/>
      <use x="205.664062" xlink:href="#ArialMT-68"/>
      <use x="261.279297" xlink:href="#ArialMT-74"/>
      <use x="289.0625" xlink:href="#ArialMT-20"/>
      <use x="316.845703" xlink:href="#ArialMT-65"/>
      <use x="372.460938" xlink:href="#ArialMT-66"/>
      <use x="398.494141" xlink:href="#ArialMT-66"/>
      <use x="426.277344" xlink:href="#ArialMT-65"/>
      <use x="481.892578" xlink:href="#ArialMT-63"/>
      <use x="531.892578" xlink:href="#ArialMT-74"/>
     </g>
    </g>
   </g>
   <g id="matplotlib.axis_2">
    <g id="ytick_1">
     <g id="line2d_9">
      <path clip-path="url(#p3b9797b6e4)" d="M 210.020313 394.845225 
L 489.020313 394.845225 
" style="fill:none;stroke:#cccccc;stroke-linecap:round;stroke-width:0.8;"/>
     </g>
     <g id="text_10">
      <!-- weathersit_MISTY windspeed -->
      <g style="fill:#262626;" transform="translate(70.917188 398.485069)scale(0.1 -0.1)">
       <defs>
        <path d="M 2588 409 
Q 2275 144 1986 34 
Q 1697 -75 1366 -75 
Q 819 -75 525 192 
Q 231 459 231 875 
Q 231 1119 342 1320 
Q 453 1522 633 1644 
Q 813 1766 1038 1828 
Q 1203 1872 1538 1913 
Q 2219 1994 2541 2106 
Q 2544 2222 2544 2253 
Q 2544 2597 2384 2738 
Q 2169 2928 1744 2928 
Q 1347 2928 1158 2789 
Q 969 2650 878 2297 
L 328 2372 
Q 403 2725 575 2942 
Q 747 3159 1072 3276 
Q 1397 3394 1825 3394 
Q 2250 3394 2515 3294 
Q 2781 3194 2906 3042 
Q 3031 2891 3081 2659 
Q 3109 2516 3109 2141 
L 3109 1391 
Q 3109 606 3145 398 
Q 3181 191 3288 0 
L 2700 0 
Q 2613 175 2588 409 
z
M 2541 1666 
Q 2234 1541 1622 1453 
Q 1275 1403 1131 1340 
Q 988 1278 909 1158 
Q 831 1038 831 891 
Q 831 666 1001 516 
Q 1172 366 1500 366 
Q 1825 366 2078 508 
Q 2331 650 2450 897 
Q 2541 1088 2541 1459 
L 2541 1666 
z
" id="ArialMT-61" transform="scale(0.015625)"/>
        <path d="M 416 0 
L 416 3319 
L 922 3319 
L 922 2816 
Q 1116 3169 1280 3281 
Q 1444 3394 1641 3394 
Q 1925 3394 2219 3213 
L 2025 2691 
Q 1819 2813 1613 2813 
Q 1428 2813 1281 2702 
Q 1134 2591 1072 2394 
Q 978 2094 978 1738 
L 978 0 
L 416 0 
z
" id="ArialMT-72" transform="scale(0.015625)"/>
        <path d="M 197 991 
L 753 1078 
Q 800 744 1014 566 
Q 1228 388 1613 388 
Q 2000 388 2187 545 
Q 2375 703 2375 916 
Q 2375 1106 2209 1216 
Q 2094 1291 1634 1406 
Q 1016 1563 777 1677 
Q 538 1791 414 1992 
Q 291 2194 291 2438 
Q 291 2659 392 2848 
Q 494 3038 669 3163 
Q 800 3259 1026 3326 
Q 1253 3394 1513 3394 
Q 1903 3394 2198 3281 
Q 2494 3169 2634 2976 
Q 2775 2784 2828 2463 
L 2278 2388 
Q 2241 2644 2061 2787 
Q 1881 2931 1553 2931 
Q 1166 2931 1000 2803 
Q 834 2675 834 2503 
Q 834 2394 903 2306 
Q 972 2216 1119 2156 
Q 1203 2125 1616 2013 
Q 2213 1853 2448 1751 
Q 2684 1650 2818 1456 
Q 2953 1263 2953 975 
Q 2953 694 2789 445 
Q 2625 197 2315 61 
Q 2006 -75 1616 -75 
Q 969 -75 630 194 
Q 291 463 197 991 
z
" id="ArialMT-73" transform="scale(0.015625)"/>
        <path d="M -97 -1272 
L -97 -866 
L 3631 -866 
L 3631 -1272 
L -97 -1272 
z
" id="ArialMT-5f" transform="scale(0.015625)"/>
        <path d="M 475 0 
L 475 4581 
L 1388 4581 
L 2472 1338 
Q 2622 884 2691 659 
Q 2769 909 2934 1394 
L 4031 4581 
L 4847 4581 
L 4847 0 
L 4263 0 
L 4263 3834 
L 2931 0 
L 2384 0 
L 1059 3900 
L 1059 0 
L 475 0 
z
" id="ArialMT-4d" transform="scale(0.015625)"/>
        <path d="M 597 0 
L 597 4581 
L 1203 4581 
L 1203 0 
L 597 0 
z
" id="ArialMT-49" transform="scale(0.015625)"/>
        <path d="M 288 1472 
L 859 1522 
Q 900 1178 1048 958 
Q 1197 738 1509 602 
Q 1822 466 2213 466 
Q 2559 466 2825 569 
Q 3091 672 3220 851 
Q 3350 1031 3350 1244 
Q 3350 1459 3225 1620 
Q 3100 1781 2813 1891 
Q 2628 1963 1997 2114 
Q 1366 2266 1113 2400 
Q 784 2572 623 2826 
Q 463 3081 463 3397 
Q 463 3744 659 4045 
Q 856 4347 1234 4503 
Q 1613 4659 2075 4659 
Q 2584 4659 2973 4495 
Q 3363 4331 3572 4012 
Q 3781 3694 3797 3291 
L 3216 3247 
Q 3169 3681 2898 3903 
Q 2628 4125 2100 4125 
Q 1550 4125 1298 3923 
Q 1047 3722 1047 3438 
Q 1047 3191 1225 3031 
Q 1400 2872 2139 2705 
Q 2878 2538 3153 2413 
Q 3553 2228 3743 1945 
Q 3934 1663 3934 1294 
Q 3934 928 3725 604 
Q 3516 281 3123 101 
Q 2731 -78 2241 -78 
Q 1619 -78 1198 103 
Q 778 284 539 648 
Q 300 1013 288 1472 
z
" id="ArialMT-53" transform="scale(0.015625)"/>
        <path d="M 1659 0 
L 1659 4041 
L 150 4041 
L 150 4581 
L 3781 4581 
L 3781 4041 
L 2266 4041 
L 2266 0 
L 1659 0 
z
" id="ArialMT-54" transform="scale(0.015625)"/>
        <path d="M 1784 0 
L 1784 1941 
L 19 4581 
L 756 4581 
L 1659 3200 
Q 1909 2813 2125 2425 
Q 2331 2784 2625 3234 
L 3513 4581 
L 4219 4581 
L 2391 1941 
L 2391 0 
L 1784 0 
z
" id="ArialMT-59" transform="scale(0.015625)"/>
        <path d="M 422 0 
L 422 3319 
L 928 3319 
L 928 2847 
Q 1294 3394 1984 3394 
Q 2284 3394 2536 3286 
Q 2788 3178 2913 3003 
Q 3038 2828 3088 2588 
Q 3119 2431 3119 2041 
L 3119 0 
L 2556 0 
L 2556 2019 
Q 2556 2363 2490 2533 
Q 2425 2703 2258 2804 
Q 2091 2906 1866 2906 
Q 1506 2906 1245 2678 
Q 984 2450 984 1813 
L 984 0 
L 422 0 
z
" id="ArialMT-6e" transform="scale(0.015625)"/>
        <path d="M 2575 0 
L 2575 419 
Q 2259 -75 1647 -75 
Q 1250 -75 917 144 
Q 584 363 401 755 
Q 219 1147 219 1656 
Q 219 2153 384 2558 
Q 550 2963 881 3178 
Q 1213 3394 1622 3394 
Q 1922 3394 2156 3267 
Q 2391 3141 2538 2938 
L 2538 4581 
L 3097 4581 
L 3097 0 
L 2575 0 
z
M 797 1656 
Q 797 1019 1065 703 
Q 1334 388 1700 388 
Q 2069 388 2326 689 
Q 2584 991 2584 1609 
Q 2584 2291 2321 2609 
Q 2059 2928 1675 2928 
Q 1300 2928 1048 2622 
Q 797 2316 797 1656 
z
" id="ArialMT-64" transform="scale(0.015625)"/>
        <path d="M 422 -1272 
L 422 3319 
L 934 3319 
L 934 2888 
Q 1116 3141 1344 3267 
Q 1572 3394 1897 3394 
Q 2322 3394 2647 3175 
Q 2972 2956 3137 2557 
Q 3303 2159 3303 1684 
Q 3303 1175 3120 767 
Q 2938 359 2589 142 
Q 2241 -75 1856 -75 
Q 1575 -75 1351 44 
Q 1128 163 984 344 
L 984 -1272 
L 422 -1272 
z
M 931 1641 
Q 931 1000 1190 694 
Q 1450 388 1819 388 
Q 2194 388 2461 705 
Q 2728 1022 2728 1688 
Q 2728 2322 2467 2637 
Q 2206 2953 1844 2953 
Q 1484 2953 1207 2617 
Q 931 2281 931 1641 
z
" id="ArialMT-70" transform="scale(0.015625)"/>
       </defs>
       <use xlink:href="#ArialMT-77"/>
       <use x="72.216797" xlink:href="#ArialMT-65"/>
       <use x="127.832031" xlink:href="#ArialMT-61"/>
       <use x="183.447266" xlink:href="#ArialMT-74"/>
       <use x="211.230469" xlink:href="#ArialMT-68"/>
       <use x="266.845703" xlink:href="#ArialMT-65"/>
       <use x="322.460938" xlink:href="#ArialMT-72"/>
       <use x="355.761719" xlink:href="#ArialMT-73"/>
       <use x="405.761719" xlink:href="#ArialMT-69"/>
       <use x="427.978516" xlink:href="#ArialMT-74"/>
       <use x="455.761719" xlink:href="#ArialMT-5f"/>
       <use x="511.376953" xlink:href="#ArialMT-4d"/>
       <use x="594.677734" xlink:href="#ArialMT-49"/>
       <use x="622.460938" xlink:href="#ArialMT-53"/>
       <use x="689.160156" xlink:href="#ArialMT-54"/>
       <use x="750.244141" xlink:href="#ArialMT-59"/>
       <use x="815.193359" xlink:href="#ArialMT-20"/>
       <use x="842.976562" xlink:href="#ArialMT-77"/>
       <use x="915.193359" xlink:href="#ArialMT-69"/>
       <use x="937.410156" xlink:href="#ArialMT-6e"/>
       <use x="993.025391" xlink:href="#ArialMT-64"/>
       <use x="1048.640625" xlink:href="#ArialMT-73"/>
       <use x="1098.640625" xlink:href="#ArialMT-70"/>
       <use x="1154.255859" xlink:href="#ArialMT-65"/>
       <use x="1209.871094" xlink:href="#ArialMT-65"/>
       <use x="1265.486328" xlink:href="#ArialMT-64"/>
      </g>
     </g>
    </g>
    <g id="ytick_2">
     <g id="line2d_10">
      <path clip-path="url(#p3b9797b6e4)" d="M 210.020313 379.624425 
L 489.020313 379.624425 
" style="fill:none;stroke:#cccccc;stroke-linecap:round;stroke-width:0.8;"/>
     </g>
     <g id="text_11">
      <!-- hum days_since_2011 -->
      <g style="fill:#262626;" transform="translate(103.696875 383.218175)scale(0.1 -0.1)">
       <defs>
        <path d="M 2597 0 
L 2597 488 
Q 2209 -75 1544 -75 
Q 1250 -75 995 37 
Q 741 150 617 320 
Q 494 491 444 738 
Q 409 903 409 1263 
L 409 3319 
L 972 3319 
L 972 1478 
Q 972 1038 1006 884 
Q 1059 663 1231 536 
Q 1403 409 1656 409 
Q 1909 409 2131 539 
Q 2353 669 2445 892 
Q 2538 1116 2538 1541 
L 2538 3319 
L 3100 3319 
L 3100 0 
L 2597 0 
z
" id="ArialMT-75" transform="scale(0.015625)"/>
        <path d="M 422 0 
L 422 3319 
L 925 3319 
L 925 2853 
Q 1081 3097 1340 3245 
Q 1600 3394 1931 3394 
Q 2300 3394 2536 3241 
Q 2772 3088 2869 2813 
Q 3263 3394 3894 3394 
Q 4388 3394 4653 3120 
Q 4919 2847 4919 2278 
L 4919 0 
L 4359 0 
L 4359 2091 
Q 4359 2428 4304 2576 
Q 4250 2725 4106 2815 
Q 3963 2906 3769 2906 
Q 3419 2906 3187 2673 
Q 2956 2441 2956 1928 
L 2956 0 
L 2394 0 
L 2394 2156 
Q 2394 2531 2256 2718 
Q 2119 2906 1806 2906 
Q 1569 2906 1367 2781 
Q 1166 2656 1075 2415 
Q 984 2175 984 1722 
L 984 0 
L 422 0 
z
" id="ArialMT-6d" transform="scale(0.015625)"/>
        <path d="M 397 -1278 
L 334 -750 
Q 519 -800 656 -800 
Q 844 -800 956 -737 
Q 1069 -675 1141 -563 
Q 1194 -478 1313 -144 
Q 1328 -97 1363 -6 
L 103 3319 
L 709 3319 
L 1400 1397 
Q 1534 1031 1641 628 
Q 1738 1016 1872 1384 
L 2581 3319 
L 3144 3319 
L 1881 -56 
Q 1678 -603 1566 -809 
Q 1416 -1088 1222 -1217 
Q 1028 -1347 759 -1347 
Q 597 -1347 397 -1278 
z
" id="ArialMT-79" transform="scale(0.015625)"/>
       </defs>
       <use xlink:href="#ArialMT-68"/>
       <use x="55.615234" xlink:href="#ArialMT-75"/>
       <use x="111.230469" xlink:href="#ArialMT-6d"/>
       <use x="194.53125" xlink:href="#ArialMT-20"/>
       <use x="222.314453" xlink:href="#ArialMT-64"/>
       <use x="277.929688" xlink:href="#ArialMT-61"/>
       <use x="333.544922" xlink:href="#ArialMT-79"/>
       <use x="383.544922" xlink:href="#ArialMT-73"/>
       <use x="433.544922" xlink:href="#ArialMT-5f"/>
       <use x="489.160156" xlink:href="#ArialMT-73"/>
       <use x="539.160156" xlink:href="#ArialMT-69"/>
       <use x="561.376953" xlink:href="#ArialMT-6e"/>
       <use x="616.992188" xlink:href="#ArialMT-63"/>
       <use x="666.992188" xlink:href="#ArialMT-65"/>
       <use x="722.607422" xlink:href="#ArialMT-5f"/>
       <use x="778.222656" xlink:href="#ArialMT-32"/>
       <use x="833.837891" xlink:href="#ArialMT-30"/>
       <use x="889.453125" xlink:href="#ArialMT-31"/>
       <use x="937.693359" xlink:href="#ArialMT-31"/>
      </g>
     </g>
    </g>
    <g id="ytick_3">
     <g id="line2d_11">
      <path clip-path="url(#p3b9797b6e4)" d="M 210.020313 364.403625 
L 489.020313 364.403625 
" style="fill:none;stroke:#cccccc;stroke-linecap:round;stroke-width:0.8;"/>
     </g>
     <g id="text_12">
      <!-- weathersit_RAIN/SNOW/STORM -->
      <g style="fill:#262626;" transform="translate(55.395313 368.046594)scale(0.1 -0.1)">
       <defs>
        <path d="M 503 0 
L 503 4581 
L 2534 4581 
Q 3147 4581 3465 4457 
Q 3784 4334 3975 4021 
Q 4166 3709 4166 3331 
Q 4166 2844 3850 2509 
Q 3534 2175 2875 2084 
Q 3116 1969 3241 1856 
Q 3506 1613 3744 1247 
L 4541 0 
L 3778 0 
L 3172 953 
Q 2906 1366 2734 1584 
Q 2563 1803 2427 1890 
Q 2291 1978 2150 2013 
Q 2047 2034 1813 2034 
L 1109 2034 
L 1109 0 
L 503 0 
z
M 1109 2559 
L 2413 2559 
Q 2828 2559 3062 2645 
Q 3297 2731 3419 2920 
Q 3541 3109 3541 3331 
Q 3541 3656 3305 3865 
Q 3069 4075 2559 4075 
L 1109 4075 
L 1109 2559 
z
" id="ArialMT-52" transform="scale(0.015625)"/>
        <path d="M -9 0 
L 1750 4581 
L 2403 4581 
L 4278 0 
L 3588 0 
L 3053 1388 
L 1138 1388 
L 634 0 
L -9 0 
z
M 1313 1881 
L 2866 1881 
L 2388 3150 
Q 2169 3728 2063 4100 
Q 1975 3659 1816 3225 
L 1313 1881 
z
" id="ArialMT-41" transform="scale(0.015625)"/>
        <path d="M 488 0 
L 488 4581 
L 1109 4581 
L 3516 984 
L 3516 4581 
L 4097 4581 
L 4097 0 
L 3475 0 
L 1069 3600 
L 1069 0 
L 488 0 
z
" id="ArialMT-4e" transform="scale(0.015625)"/>
        <path d="M 0 -78 
L 1328 4659 
L 1778 4659 
L 453 -78 
L 0 -78 
z
" id="ArialMT-2f" transform="scale(0.015625)"/>
        <path d="M 309 2231 
Q 309 3372 921 4017 
Q 1534 4663 2503 4663 
Q 3138 4663 3647 4359 
Q 4156 4056 4423 3514 
Q 4691 2972 4691 2284 
Q 4691 1588 4409 1038 
Q 4128 488 3612 205 
Q 3097 -78 2500 -78 
Q 1853 -78 1343 234 
Q 834 547 571 1087 
Q 309 1628 309 2231 
z
M 934 2222 
Q 934 1394 1379 917 
Q 1825 441 2497 441 
Q 3181 441 3623 922 
Q 4066 1403 4066 2288 
Q 4066 2847 3877 3264 
Q 3688 3681 3323 3911 
Q 2959 4141 2506 4141 
Q 1863 4141 1398 3698 
Q 934 3256 934 2222 
z
" id="ArialMT-4f" transform="scale(0.015625)"/>
        <path d="M 1294 0 
L 78 4581 
L 700 4581 
L 1397 1578 
Q 1509 1106 1591 641 
Q 1766 1375 1797 1488 
L 2669 4581 
L 3400 4581 
L 4056 2263 
Q 4303 1400 4413 641 
Q 4500 1075 4641 1638 
L 5359 4581 
L 5969 4581 
L 4713 0 
L 4128 0 
L 3163 3491 
Q 3041 3928 3019 4028 
Q 2947 3713 2884 3491 
L 1913 0 
L 1294 0 
z
" id="ArialMT-57" transform="scale(0.015625)"/>
       </defs>
       <use xlink:href="#ArialMT-77"/>
       <use x="72.216797" xlink:href="#ArialMT-65"/>
       <use x="127.832031" xlink:href="#ArialMT-61"/>
       <use x="183.447266" xlink:href="#ArialMT-74"/>
       <use x="211.230469" xlink:href="#ArialMT-68"/>
       <use x="266.845703" xlink:href="#ArialMT-65"/>
       <use x="322.460938" xlink:href="#ArialMT-72"/>
       <use x="355.761719" xlink:href="#ArialMT-73"/>
       <use x="405.761719" xlink:href="#ArialMT-69"/>
       <use x="427.978516" xlink:href="#ArialMT-74"/>
       <use x="455.761719" xlink:href="#ArialMT-5f"/>
       <use x="511.376953" xlink:href="#ArialMT-52"/>
       <use x="583.59375" xlink:href="#ArialMT-41"/>
       <use x="650.292969" xlink:href="#ArialMT-49"/>
       <use x="678.076172" xlink:href="#ArialMT-4e"/>
       <use x="750.292969" xlink:href="#ArialMT-2f"/>
       <use x="778.076172" xlink:href="#ArialMT-53"/>
       <use x="844.775391" xlink:href="#ArialMT-4e"/>
       <use x="916.992188" xlink:href="#ArialMT-4f"/>
       <use x="994.775391" xlink:href="#ArialMT-57"/>
       <use x="1089.160156" xlink:href="#ArialMT-2f"/>
       <use x="1116.943359" xlink:href="#ArialMT-53"/>
       <use x="1183.642578" xlink:href="#ArialMT-54"/>
       <use x="1242.976562" xlink:href="#ArialMT-4f"/>
       <use x="1320.759766" xlink:href="#ArialMT-52"/>
       <use x="1392.976562" xlink:href="#ArialMT-4d"/>
      </g>
     </g>
    </g>
    <g id="ytick_4">
     <g id="line2d_12">
      <path clip-path="url(#p3b9797b6e4)" d="M 210.020313 349.182825 
L 489.020313 349.182825 
" style="fill:none;stroke:#cccccc;stroke-linecap:round;stroke-width:0.8;"/>
     </g>
     <g id="text_13">
      <!-- windspeed yr -->
      <g style="fill:#262626;" transform="translate(144.103125 352.761731)scale(0.1 -0.1)">
       <use xlink:href="#ArialMT-77"/>
       <use x="72.216797" xlink:href="#ArialMT-69"/>
       <use x="94.433594" xlink:href="#ArialMT-6e"/>
       <use x="150.048828" xlink:href="#ArialMT-64"/>
       <use x="205.664062" xlink:href="#ArialMT-73"/>
       <use x="255.664062" xlink:href="#ArialMT-70"/>
       <use x="311.279297" xlink:href="#ArialMT-65"/>
       <use x="366.894531" xlink:href="#ArialMT-65"/>
       <use x="422.509766" xlink:href="#ArialMT-64"/>
       <use x="478.125" xlink:href="#ArialMT-20"/>
       <use x="505.908203" xlink:href="#ArialMT-79"/>
       <use x="555.908203" xlink:href="#ArialMT-72"/>
      </g>
     </g>
    </g>
    <g id="ytick_5">
     <g id="line2d_13">
      <path clip-path="url(#p3b9797b6e4)" d="M 210.020313 333.962025 
L 489.020313 333.962025 
" style="fill:none;stroke:#cccccc;stroke-linecap:round;stroke-width:0.8;"/>
     </g>
     <g id="text_14">
      <!-- workingday_NO WORKING DAY windspeed -->
      <g style="fill:#262626;" transform="translate(7.2 337.604994)scale(0.1 -0.1)">
       <defs>
        <path d="M 213 1659 
Q 213 2581 725 3025 
Q 1153 3394 1769 3394 
Q 2453 3394 2887 2945 
Q 3322 2497 3322 1706 
Q 3322 1066 3130 698 
Q 2938 331 2570 128 
Q 2203 -75 1769 -75 
Q 1072 -75 642 372 
Q 213 819 213 1659 
z
M 791 1659 
Q 791 1022 1069 705 
Q 1347 388 1769 388 
Q 2188 388 2466 706 
Q 2744 1025 2744 1678 
Q 2744 2294 2464 2611 
Q 2184 2928 1769 2928 
Q 1347 2928 1069 2612 
Q 791 2297 791 1659 
z
" id="ArialMT-6f" transform="scale(0.015625)"/>
        <path d="M 425 0 
L 425 4581 
L 988 4581 
L 988 1969 
L 2319 3319 
L 3047 3319 
L 1778 2088 
L 3175 0 
L 2481 0 
L 1384 1697 
L 988 1316 
L 988 0 
L 425 0 
z
" id="ArialMT-6b" transform="scale(0.015625)"/>
        <path d="M 469 0 
L 469 4581 
L 1075 4581 
L 1075 2309 
L 3350 4581 
L 4172 4581 
L 2250 2725 
L 4256 0 
L 3456 0 
L 1825 2319 
L 1075 1588 
L 1075 0 
L 469 0 
z
" id="ArialMT-4b" transform="scale(0.015625)"/>
        <path d="M 2638 1797 
L 2638 2334 
L 4578 2338 
L 4578 638 
Q 4131 281 3656 101 
Q 3181 -78 2681 -78 
Q 2006 -78 1454 211 
Q 903 500 622 1047 
Q 341 1594 341 2269 
Q 341 2938 620 3517 
Q 900 4097 1425 4378 
Q 1950 4659 2634 4659 
Q 3131 4659 3532 4498 
Q 3934 4338 4162 4050 
Q 4391 3763 4509 3300 
L 3963 3150 
Q 3859 3500 3706 3700 
Q 3553 3900 3268 4020 
Q 2984 4141 2638 4141 
Q 2222 4141 1919 4014 
Q 1616 3888 1430 3681 
Q 1244 3475 1141 3228 
Q 966 2803 966 2306 
Q 966 1694 1177 1281 
Q 1388 869 1791 669 
Q 2194 469 2647 469 
Q 3041 469 3416 620 
Q 3791 772 3984 944 
L 3984 1797 
L 2638 1797 
z
" id="ArialMT-47" transform="scale(0.015625)"/>
        <path d="M 494 0 
L 494 4581 
L 2072 4581 
Q 2606 4581 2888 4516 
Q 3281 4425 3559 4188 
Q 3922 3881 4101 3404 
Q 4281 2928 4281 2316 
Q 4281 1794 4159 1391 
Q 4038 988 3847 723 
Q 3656 459 3429 307 
Q 3203 156 2883 78 
Q 2563 0 2147 0 
L 494 0 
z
M 1100 541 
L 2078 541 
Q 2531 541 2789 625 
Q 3047 709 3200 863 
Q 3416 1078 3536 1442 
Q 3656 1806 3656 2325 
Q 3656 3044 3420 3430 
Q 3184 3816 2847 3947 
Q 2603 4041 2063 4041 
L 1100 4041 
L 1100 541 
z
" id="ArialMT-44" transform="scale(0.015625)"/>
       </defs>
       <use xlink:href="#ArialMT-77"/>
       <use x="72.216797" xlink:href="#ArialMT-6f"/>
       <use x="127.832031" xlink:href="#ArialMT-72"/>
       <use x="161.132812" xlink:href="#ArialMT-6b"/>
       <use x="211.132812" xlink:href="#ArialMT-69"/>
       <use x="233.349609" xlink:href="#ArialMT-6e"/>
       <use x="288.964844" xlink:href="#ArialMT-67"/>
       <use x="344.580078" xlink:href="#ArialMT-64"/>
       <use x="400.195312" xlink:href="#ArialMT-61"/>
       <use x="455.810547" xlink:href="#ArialMT-79"/>
       <use x="505.810547" xlink:href="#ArialMT-5f"/>
       <use x="561.425781" xlink:href="#ArialMT-4e"/>
       <use x="633.642578" xlink:href="#ArialMT-4f"/>
       <use x="711.425781" xlink:href="#ArialMT-20"/>
       <use x="739.208984" xlink:href="#ArialMT-57"/>
       <use x="833.59375" xlink:href="#ArialMT-4f"/>
       <use x="911.376953" xlink:href="#ArialMT-52"/>
       <use x="983.59375" xlink:href="#ArialMT-4b"/>
       <use x="1050.292969" xlink:href="#ArialMT-49"/>
       <use x="1078.076172" xlink:href="#ArialMT-4e"/>
       <use x="1150.292969" xlink:href="#ArialMT-47"/>
       <use x="1228.076172" xlink:href="#ArialMT-20"/>
       <use x="1255.859375" xlink:href="#ArialMT-44"/>
       <use x="1328.076172" xlink:href="#ArialMT-41"/>
       <use x="1387.400391" xlink:href="#ArialMT-59"/>
       <use x="1452.349609" xlink:href="#ArialMT-20"/>
       <use x="1480.132812" xlink:href="#ArialMT-77"/>
       <use x="1552.349609" xlink:href="#ArialMT-69"/>
       <use x="1574.566406" xlink:href="#ArialMT-6e"/>
       <use x="1630.181641" xlink:href="#ArialMT-64"/>
       <use x="1685.796875" xlink:href="#ArialMT-73"/>
       <use x="1735.796875" xlink:href="#ArialMT-70"/>
       <use x="1791.412109" xlink:href="#ArialMT-65"/>
       <use x="1847.027344" xlink:href="#ArialMT-65"/>
       <use x="1902.642578" xlink:href="#ArialMT-64"/>
      </g>
     </g>
    </g>
    <g id="ytick_6">
     <g id="line2d_14">
      <path clip-path="url(#p3b9797b6e4)" d="M 210.020313 318.741225 
L 489.020313 318.741225 
" style="fill:none;stroke:#cccccc;stroke-linecap:round;stroke-width:0.8;"/>
     </g>
     <g id="text_15">
      <!-- workingday_NO WORKING DAY temp -->
      <g style="fill:#262626;" transform="translate(32.779687 322.384194)scale(0.1 -0.1)">
       <use xlink:href="#ArialMT-77"/>
       <use x="72.216797" xlink:href="#ArialMT-6f"/>
       <use x="127.832031" xlink:href="#ArialMT-72"/>
       <use x="161.132812" xlink:href="#ArialMT-6b"/>
       <use x="211.132812" xlink:href="#ArialMT-69"/>
       <use x="233.349609" xlink:href="#ArialMT-6e"/>
       <use x="288.964844" xlink:href="#ArialMT-67"/>
       <use x="344.580078" xlink:href="#ArialMT-64"/>
       <use x="400.195312" xlink:href="#ArialMT-61"/>
       <use x="455.810547" xlink:href="#ArialMT-79"/>
       <use x="505.810547" xlink:href="#ArialMT-5f"/>
       <use x="561.425781" xlink:href="#ArialMT-4e"/>
       <use x="633.642578" xlink:href="#ArialMT-4f"/>
       <use x="711.425781" xlink:href="#ArialMT-20"/>
       <use x="739.208984" xlink:href="#ArialMT-57"/>
       <use x="833.59375" xlink:href="#ArialMT-4f"/>
       <use x="911.376953" xlink:href="#ArialMT-52"/>
       <use x="983.59375" xlink:href="#ArialMT-4b"/>
       <use x="1050.292969" xlink:href="#ArialMT-49"/>
       <use x="1078.076172" xlink:href="#ArialMT-4e"/>
       <use x="1150.292969" xlink:href="#ArialMT-47"/>
       <use x="1228.076172" xlink:href="#ArialMT-20"/>
       <use x="1255.859375" xlink:href="#ArialMT-44"/>
       <use x="1328.076172" xlink:href="#ArialMT-41"/>
       <use x="1387.400391" xlink:href="#ArialMT-59"/>
       <use x="1452.349609" xlink:href="#ArialMT-20"/>
       <use x="1480.132812" xlink:href="#ArialMT-74"/>
       <use x="1507.916016" xlink:href="#ArialMT-65"/>
       <use x="1563.53125" xlink:href="#ArialMT-6d"/>
       <use x="1646.832031" xlink:href="#ArialMT-70"/>
      </g>
     </g>
    </g>
    <g id="ytick_7">
     <g id="line2d_15">
      <path clip-path="url(#p3b9797b6e4)" d="M 210.020313 303.520425 
L 489.020313 303.520425 
" style="fill:none;stroke:#cccccc;stroke-linecap:round;stroke-width:0.8;"/>
     </g>
     <g id="text_16">
      <!-- mnth_JUN temp -->
      <g style="fill:#262626;" transform="translate(130.778125 307.099331)scale(0.1 -0.1)">
       <defs>
        <path d="M 184 1300 
L 731 1375 
Q 753 850 928 656 
Q 1103 463 1413 463 
Q 1641 463 1806 567 
Q 1972 672 2034 851 
Q 2097 1031 2097 1425 
L 2097 4581 
L 2703 4581 
L 2703 1459 
Q 2703 884 2564 568 
Q 2425 253 2123 87 
Q 1822 -78 1416 -78 
Q 813 -78 492 269 
Q 172 616 184 1300 
z
" id="ArialMT-4a" transform="scale(0.015625)"/>
        <path d="M 3500 4581 
L 4106 4581 
L 4106 1934 
Q 4106 1244 3950 837 
Q 3794 431 3386 176 
Q 2978 -78 2316 -78 
Q 1672 -78 1262 144 
Q 853 366 678 786 
Q 503 1206 503 1934 
L 503 4581 
L 1109 4581 
L 1109 1938 
Q 1109 1341 1220 1058 
Q 1331 775 1601 622 
Q 1872 469 2263 469 
Q 2931 469 3215 772 
Q 3500 1075 3500 1938 
L 3500 4581 
z
" id="ArialMT-55" transform="scale(0.015625)"/>
       </defs>
       <use xlink:href="#ArialMT-6d"/>
       <use x="83.300781" xlink:href="#ArialMT-6e"/>
       <use x="138.916016" xlink:href="#ArialMT-74"/>
       <use x="166.699219" xlink:href="#ArialMT-68"/>
       <use x="222.314453" xlink:href="#ArialMT-5f"/>
       <use x="277.929688" xlink:href="#ArialMT-4a"/>
       <use x="327.929688" xlink:href="#ArialMT-55"/>
       <use x="400.146484" xlink:href="#ArialMT-4e"/>
       <use x="472.363281" xlink:href="#ArialMT-20"/>
       <use x="500.146484" xlink:href="#ArialMT-74"/>
       <use x="527.929688" xlink:href="#ArialMT-65"/>
       <use x="583.544922" xlink:href="#ArialMT-6d"/>
       <use x="666.845703" xlink:href="#ArialMT-70"/>
      </g>
     </g>
    </g>
    <g id="ytick_8">
     <g id="line2d_16">
      <path clip-path="url(#p3b9797b6e4)" d="M 210.020313 288.299625 
L 489.020313 288.299625 
" style="fill:none;stroke:#cccccc;stroke-linecap:round;stroke-width:0.8;"/>
     </g>
     <g id="text_17">
      <!-- weathersit_MISTY hum -->
      <g style="fill:#262626;" transform="translate(99.275 291.939469)scale(0.1 -0.1)">
       <use xlink:href="#ArialMT-77"/>
       <use x="72.216797" xlink:href="#ArialMT-65"/>
       <use x="127.832031" xlink:href="#ArialMT-61"/>
       <use x="183.447266" xlink:href="#ArialMT-74"/>
       <use x="211.230469" xlink:href="#ArialMT-68"/>
       <use x="266.845703" xlink:href="#ArialMT-65"/>
       <use x="322.460938" xlink:href="#ArialMT-72"/>
       <use x="355.761719" xlink:href="#ArialMT-73"/>
       <use x="405.761719" xlink:href="#ArialMT-69"/>
       <use x="427.978516" xlink:href="#ArialMT-74"/>
       <use x="455.761719" xlink:href="#ArialMT-5f"/>
       <use x="511.376953" xlink:href="#ArialMT-4d"/>
       <use x="594.677734" xlink:href="#ArialMT-49"/>
       <use x="622.460938" xlink:href="#ArialMT-53"/>
       <use x="689.160156" xlink:href="#ArialMT-54"/>
       <use x="750.244141" xlink:href="#ArialMT-59"/>
       <use x="815.193359" xlink:href="#ArialMT-20"/>
       <use x="842.976562" xlink:href="#ArialMT-68"/>
       <use x="898.591797" xlink:href="#ArialMT-75"/>
       <use x="954.207031" xlink:href="#ArialMT-6d"/>
      </g>
     </g>
    </g>
    <g id="ytick_9">
     <g id="line2d_17">
      <path clip-path="url(#p3b9797b6e4)" d="M 210.020313 273.078825 
L 489.020313 273.078825 
" style="fill:none;stroke:#cccccc;stroke-linecap:round;stroke-width:0.8;"/>
     </g>
     <g id="text_18">
      <!-- season_WINTER weathersit_GOOD -->
      <g style="fill:#262626;" transform="translate(41.307813 276.721794)scale(0.1 -0.1)">
       <defs>
        <path d="M 506 0 
L 506 4581 
L 3819 4581 
L 3819 4041 
L 1113 4041 
L 1113 2638 
L 3647 2638 
L 3647 2100 
L 1113 2100 
L 1113 541 
L 3925 541 
L 3925 0 
L 506 0 
z
" id="ArialMT-45" transform="scale(0.015625)"/>
       </defs>
       <use xlink:href="#ArialMT-73"/>
       <use x="50" xlink:href="#ArialMT-65"/>
       <use x="105.615234" xlink:href="#ArialMT-61"/>
       <use x="161.230469" xlink:href="#ArialMT-73"/>
       <use x="211.230469" xlink:href="#ArialMT-6f"/>
       <use x="266.845703" xlink:href="#ArialMT-6e"/>
       <use x="322.460938" xlink:href="#ArialMT-5f"/>
       <use x="378.076172" xlink:href="#ArialMT-57"/>
       <use x="472.460938" xlink:href="#ArialMT-49"/>
       <use x="500.244141" xlink:href="#ArialMT-4e"/>
       <use x="572.460938" xlink:href="#ArialMT-54"/>
       <use x="633.544922" xlink:href="#ArialMT-45"/>
       <use x="700.244141" xlink:href="#ArialMT-52"/>
       <use x="772.460938" xlink:href="#ArialMT-20"/>
       <use x="800.244141" xlink:href="#ArialMT-77"/>
       <use x="872.460938" xlink:href="#ArialMT-65"/>
       <use x="928.076172" xlink:href="#ArialMT-61"/>
       <use x="983.691406" xlink:href="#ArialMT-74"/>
       <use x="1011.474609" xlink:href="#ArialMT-68"/>
       <use x="1067.089844" xlink:href="#ArialMT-65"/>
       <use x="1122.705078" xlink:href="#ArialMT-72"/>
       <use x="1156.005859" xlink:href="#ArialMT-73"/>
       <use x="1206.005859" xlink:href="#ArialMT-69"/>
       <use x="1228.222656" xlink:href="#ArialMT-74"/>
       <use x="1256.005859" xlink:href="#ArialMT-5f"/>
       <use x="1311.621094" xlink:href="#ArialMT-47"/>
       <use x="1389.404297" xlink:href="#ArialMT-4f"/>
       <use x="1467.1875" xlink:href="#ArialMT-4f"/>
       <use x="1544.970703" xlink:href="#ArialMT-44"/>
      </g>
     </g>
    </g>
    <g id="ytick_10">
     <g id="line2d_18">
      <path clip-path="url(#p3b9797b6e4)" d="M 210.020313 257.858025 
L 489.020313 257.858025 
" style="fill:none;stroke:#cccccc;stroke-linecap:round;stroke-width:0.8;"/>
     </g>
     <g id="text_19">
      <!-- windspeed -->
      <g style="fill:#262626;" transform="translate(155.210938 261.436931)scale(0.1 -0.1)">
       <use xlink:href="#ArialMT-77"/>
       <use x="72.216797" xlink:href="#ArialMT-69"/>
       <use x="94.433594" xlink:href="#ArialMT-6e"/>
       <use x="150.048828" xlink:href="#ArialMT-64"/>
       <use x="205.664062" xlink:href="#ArialMT-73"/>
       <use x="255.664062" xlink:href="#ArialMT-70"/>
       <use x="311.279297" xlink:href="#ArialMT-65"/>
       <use x="366.894531" xlink:href="#ArialMT-65"/>
       <use x="422.509766" xlink:href="#ArialMT-64"/>
      </g>
     </g>
    </g>
    <g id="ytick_11">
     <g id="line2d_19">
      <path clip-path="url(#p3b9797b6e4)" d="M 210.020313 242.637225 
L 489.020313 242.637225 
" style="fill:none;stroke:#cccccc;stroke-linecap:round;stroke-width:0.8;"/>
     </g>
     <g id="text_20">
      <!-- weathersit_MISTY temp -->
      <g style="fill:#262626;" transform="translate(96.496875 246.277069)scale(0.1 -0.1)">
       <use xlink:href="#ArialMT-77"/>
       <use x="72.216797" xlink:href="#ArialMT-65"/>
       <use x="127.832031" xlink:href="#ArialMT-61"/>
       <use x="183.447266" xlink:href="#ArialMT-74"/>
       <use x="211.230469" xlink:href="#ArialMT-68"/>
       <use x="266.845703" xlink:href="#ArialMT-65"/>
       <use x="322.460938" xlink:href="#ArialMT-72"/>
       <use x="355.761719" xlink:href="#ArialMT-73"/>
       <use x="405.761719" xlink:href="#ArialMT-69"/>
       <use x="427.978516" xlink:href="#ArialMT-74"/>
       <use x="455.761719" xlink:href="#ArialMT-5f"/>
       <use x="511.376953" xlink:href="#ArialMT-4d"/>
       <use x="594.677734" xlink:href="#ArialMT-49"/>
       <use x="622.460938" xlink:href="#ArialMT-53"/>
       <use x="689.160156" xlink:href="#ArialMT-54"/>
       <use x="750.244141" xlink:href="#ArialMT-59"/>
       <use x="815.193359" xlink:href="#ArialMT-20"/>
       <use x="842.976562" xlink:href="#ArialMT-74"/>
       <use x="870.759766" xlink:href="#ArialMT-65"/>
       <use x="926.375" xlink:href="#ArialMT-6d"/>
       <use x="1009.675781" xlink:href="#ArialMT-70"/>
      </g>
     </g>
    </g>
    <g id="ytick_12">
     <g id="line2d_20">
      <path clip-path="url(#p3b9797b6e4)" d="M 210.020313 227.416425 
L 489.020313 227.416425 
" style="fill:none;stroke:#cccccc;stroke-linecap:round;stroke-width:0.8;"/>
     </g>
     <g id="text_21">
      <!-- mnth_JUL -->
      <g style="fill:#262626;" transform="translate(157.446875 230.995331)scale(0.1 -0.1)">
       <defs>
        <path d="M 469 0 
L 469 4581 
L 1075 4581 
L 1075 541 
L 3331 541 
L 3331 0 
L 469 0 
z
" id="ArialMT-4c" transform="scale(0.015625)"/>
       </defs>
       <use xlink:href="#ArialMT-6d"/>
       <use x="83.300781" xlink:href="#ArialMT-6e"/>
       <use x="138.916016" xlink:href="#ArialMT-74"/>
       <use x="166.699219" xlink:href="#ArialMT-68"/>
       <use x="222.314453" xlink:href="#ArialMT-5f"/>
       <use x="277.929688" xlink:href="#ArialMT-4a"/>
       <use x="327.929688" xlink:href="#ArialMT-55"/>
       <use x="400.146484" xlink:href="#ArialMT-4c"/>
      </g>
     </g>
    </g>
    <g id="ytick_13">
     <g id="line2d_21">
      <path clip-path="url(#p3b9797b6e4)" d="M 210.020313 212.195625 
L 489.020313 212.195625 
" style="fill:none;stroke:#cccccc;stroke-linecap:round;stroke-width:0.8;"/>
     </g>
     <g id="text_22">
      <!-- season_SPRING days_since_2011 -->
      <g style="fill:#262626;" transform="translate(47.003125 215.835469)scale(0.1 -0.1)">
       <defs>
        <path d="M 494 0 
L 494 4581 
L 2222 4581 
Q 2678 4581 2919 4538 
Q 3256 4481 3484 4323 
Q 3713 4166 3852 3881 
Q 3991 3597 3991 3256 
Q 3991 2672 3619 2267 
Q 3247 1863 2275 1863 
L 1100 1863 
L 1100 0 
L 494 0 
z
M 1100 2403 
L 2284 2403 
Q 2872 2403 3119 2622 
Q 3366 2841 3366 3238 
Q 3366 3525 3220 3729 
Q 3075 3934 2838 4000 
Q 2684 4041 2272 4041 
L 1100 4041 
L 1100 2403 
z
" id="ArialMT-50" transform="scale(0.015625)"/>
       </defs>
       <use xlink:href="#ArialMT-73"/>
       <use x="50" xlink:href="#ArialMT-65"/>
       <use x="105.615234" xlink:href="#ArialMT-61"/>
       <use x="161.230469" xlink:href="#ArialMT-73"/>
       <use x="211.230469" xlink:href="#ArialMT-6f"/>
       <use x="266.845703" xlink:href="#ArialMT-6e"/>
       <use x="322.460938" xlink:href="#ArialMT-5f"/>
       <use x="378.076172" xlink:href="#ArialMT-53"/>
       <use x="444.775391" xlink:href="#ArialMT-50"/>
       <use x="511.474609" xlink:href="#ArialMT-52"/>
       <use x="583.691406" xlink:href="#ArialMT-49"/>
       <use x="611.474609" xlink:href="#ArialMT-4e"/>
       <use x="683.691406" xlink:href="#ArialMT-47"/>
       <use x="761.474609" xlink:href="#ArialMT-20"/>
       <use x="789.257812" xlink:href="#ArialMT-64"/>
       <use x="844.873047" xlink:href="#ArialMT-61"/>
       <use x="900.488281" xlink:href="#ArialMT-79"/>
       <use x="950.488281" xlink:href="#ArialMT-73"/>
       <use x="1000.488281" xlink:href="#ArialMT-5f"/>
       <use x="1056.103516" xlink:href="#ArialMT-73"/>
       <use x="1106.103516" xlink:href="#ArialMT-69"/>
       <use x="1128.320312" xlink:href="#ArialMT-6e"/>
       <use x="1183.935547" xlink:href="#ArialMT-63"/>
       <use x="1233.935547" xlink:href="#ArialMT-65"/>
       <use x="1289.550781" xlink:href="#ArialMT-5f"/>
       <use x="1345.166016" xlink:href="#ArialMT-32"/>
       <use x="1400.78125" xlink:href="#ArialMT-30"/>
       <use x="1456.396484" xlink:href="#ArialMT-31"/>
       <use x="1504.636719" xlink:href="#ArialMT-31"/>
      </g>
     </g>
    </g>
    <g id="ytick_14">
     <g id="line2d_22">
      <path clip-path="url(#p3b9797b6e4)" d="M 210.020313 196.974825 
L 489.020313 196.974825 
" style="fill:none;stroke:#cccccc;stroke-linecap:round;stroke-width:0.8;"/>
     </g>
     <g id="text_23">
      <!-- hum -->
      <g style="fill:#262626;" transform="translate(183.56875 200.553731)scale(0.1 -0.1)">
       <use xlink:href="#ArialMT-68"/>
       <use x="55.615234" xlink:href="#ArialMT-75"/>
       <use x="111.230469" xlink:href="#ArialMT-6d"/>
      </g>
     </g>
    </g>
    <g id="ytick_15">
     <g id="line2d_23">
      <path clip-path="url(#p3b9797b6e4)" d="M 210.020313 181.754025 
L 489.020313 181.754025 
" style="fill:none;stroke:#cccccc;stroke-linecap:round;stroke-width:0.8;"/>
     </g>
     <g id="text_24">
      <!-- season_WINTER temp -->
      <g style="fill:#262626;" transform="translate(100.76875 185.332931)scale(0.1 -0.1)">
       <use xlink:href="#ArialMT-73"/>
       <use x="50" xlink:href="#ArialMT-65"/>
       <use x="105.615234" xlink:href="#ArialMT-61"/>
       <use x="161.230469" xlink:href="#ArialMT-73"/>
       <use x="211.230469" xlink:href="#ArialMT-6f"/>
       <use x="266.845703" xlink:href="#ArialMT-6e"/>
       <use x="322.460938" xlink:href="#ArialMT-5f"/>
       <use x="378.076172" xlink:href="#ArialMT-57"/>
       <use x="472.460938" xlink:href="#ArialMT-49"/>
       <use x="500.244141" xlink:href="#ArialMT-4e"/>
       <use x="572.460938" xlink:href="#ArialMT-54"/>
       <use x="633.544922" xlink:href="#ArialMT-45"/>
       <use x="700.244141" xlink:href="#ArialMT-52"/>
       <use x="772.460938" xlink:href="#ArialMT-20"/>
       <use x="800.244141" xlink:href="#ArialMT-74"/>
       <use x="828.027344" xlink:href="#ArialMT-65"/>
       <use x="883.642578" xlink:href="#ArialMT-6d"/>
       <use x="966.943359" xlink:href="#ArialMT-70"/>
      </g>
     </g>
    </g>
    <g id="ytick_16">
     <g id="line2d_24">
      <path clip-path="url(#p3b9797b6e4)" d="M 210.020313 166.533225 
L 489.020313 166.533225 
" style="fill:none;stroke:#cccccc;stroke-linecap:round;stroke-width:0.8;"/>
     </g>
     <g id="text_25">
      <!-- weathersit_GOOD days_since_2011 -->
      <g style="fill:#262626;" transform="translate(41.457813 170.176194)scale(0.1 -0.1)">
       <use xlink:href="#ArialMT-77"/>
       <use x="72.216797" xlink:href="#ArialMT-65"/>
       <use x="127.832031" xlink:href="#ArialMT-61"/>
       <use x="183.447266" xlink:href="#ArialMT-74"/>
       <use x="211.230469" xlink:href="#ArialMT-68"/>
       <use x="266.845703" xlink:href="#ArialMT-65"/>
       <use x="322.460938" xlink:href="#ArialMT-72"/>
       <use x="355.761719" xlink:href="#ArialMT-73"/>
       <use x="405.761719" xlink:href="#ArialMT-69"/>
       <use x="427.978516" xlink:href="#ArialMT-74"/>
       <use x="455.761719" xlink:href="#ArialMT-5f"/>
       <use x="511.376953" xlink:href="#ArialMT-47"/>
       <use x="589.160156" xlink:href="#ArialMT-4f"/>
       <use x="666.943359" xlink:href="#ArialMT-4f"/>
       <use x="744.726562" xlink:href="#ArialMT-44"/>
       <use x="816.943359" xlink:href="#ArialMT-20"/>
       <use x="844.726562" xlink:href="#ArialMT-64"/>
       <use x="900.341797" xlink:href="#ArialMT-61"/>
       <use x="955.957031" xlink:href="#ArialMT-79"/>
       <use x="1005.957031" xlink:href="#ArialMT-73"/>
       <use x="1055.957031" xlink:href="#ArialMT-5f"/>
       <use x="1111.572266" xlink:href="#ArialMT-73"/>
       <use x="1161.572266" xlink:href="#ArialMT-69"/>
       <use x="1183.789062" xlink:href="#ArialMT-6e"/>
       <use x="1239.404297" xlink:href="#ArialMT-63"/>
       <use x="1289.404297" xlink:href="#ArialMT-65"/>
       <use x="1345.019531" xlink:href="#ArialMT-5f"/>
       <use x="1400.634766" xlink:href="#ArialMT-32"/>
       <use x="1456.25" xlink:href="#ArialMT-30"/>
       <use x="1511.865234" xlink:href="#ArialMT-31"/>
       <use x="1560.105469" xlink:href="#ArialMT-31"/>
      </g>
     </g>
    </g>
    <g id="ytick_17">
     <g id="line2d_25">
      <path clip-path="url(#p3b9797b6e4)" d="M 210.020313 151.312425 
L 489.020313 151.312425 
" style="fill:none;stroke:#cccccc;stroke-linecap:round;stroke-width:0.8;"/>
     </g>
     <g id="text_26">
      <!-- season_SUMMER -->
      <g style="fill:#262626;" transform="translate(120.771875 154.952269)scale(0.1 -0.1)">
       <use xlink:href="#ArialMT-73"/>
       <use x="50" xlink:href="#ArialMT-65"/>
       <use x="105.615234" xlink:href="#ArialMT-61"/>
       <use x="161.230469" xlink:href="#ArialMT-73"/>
       <use x="211.230469" xlink:href="#ArialMT-6f"/>
       <use x="266.845703" xlink:href="#ArialMT-6e"/>
       <use x="322.460938" xlink:href="#ArialMT-5f"/>
       <use x="378.076172" xlink:href="#ArialMT-53"/>
       <use x="444.775391" xlink:href="#ArialMT-55"/>
       <use x="516.992188" xlink:href="#ArialMT-4d"/>
       <use x="600.292969" xlink:href="#ArialMT-4d"/>
       <use x="683.59375" xlink:href="#ArialMT-45"/>
       <use x="750.292969" xlink:href="#ArialMT-52"/>
      </g>
     </g>
    </g>
    <g id="ytick_18">
     <g id="line2d_26">
      <path clip-path="url(#p3b9797b6e4)" d="M 210.020313 136.091625 
L 489.020313 136.091625 
" style="fill:none;stroke:#cccccc;stroke-linecap:round;stroke-width:0.8;"/>
     </g>
     <g id="text_27">
      <!-- mnth_JUL temp -->
      <g style="fill:#262626;" transform="translate(132.814063 139.670531)scale(0.1 -0.1)">
       <use xlink:href="#ArialMT-6d"/>
       <use x="83.300781" xlink:href="#ArialMT-6e"/>
       <use x="138.916016" xlink:href="#ArialMT-74"/>
       <use x="166.699219" xlink:href="#ArialMT-68"/>
       <use x="222.314453" xlink:href="#ArialMT-5f"/>
       <use x="277.929688" xlink:href="#ArialMT-4a"/>
       <use x="327.929688" xlink:href="#ArialMT-55"/>
       <use x="400.146484" xlink:href="#ArialMT-4c"/>
       <use x="452.011719" xlink:href="#ArialMT-20"/>
       <use x="479.794922" xlink:href="#ArialMT-74"/>
       <use x="507.578125" xlink:href="#ArialMT-65"/>
       <use x="563.193359" xlink:href="#ArialMT-6d"/>
       <use x="646.494141" xlink:href="#ArialMT-70"/>
      </g>
     </g>
    </g>
    <g id="ytick_19">
     <g id="line2d_27">
      <path clip-path="url(#p3b9797b6e4)" d="M 210.020313 120.870825 
L 489.020313 120.870825 
" style="fill:none;stroke:#cccccc;stroke-linecap:round;stroke-width:0.8;"/>
     </g>
     <g id="text_28">
      <!-- yr -->
      <g style="fill:#262626;" transform="translate(194.690625 124.391137)scale(0.1 -0.1)">
       <use xlink:href="#ArialMT-79"/>
       <use x="50" xlink:href="#ArialMT-72"/>
      </g>
     </g>
    </g>
    <g id="ytick_20">
     <g id="line2d_28">
      <path clip-path="url(#p3b9797b6e4)" d="M 210.020313 105.650025 
L 489.020313 105.650025 
" style="fill:none;stroke:#cccccc;stroke-linecap:round;stroke-width:0.8;"/>
     </g>
     <g id="text_29">
      <!-- season_WINTER -->
      <g style="fill:#262626;" transform="translate(125.776563 109.228931)scale(0.1 -0.1)">
       <use xlink:href="#ArialMT-73"/>
       <use x="50" xlink:href="#ArialMT-65"/>
       <use x="105.615234" xlink:href="#ArialMT-61"/>
       <use x="161.230469" xlink:href="#ArialMT-73"/>
       <use x="211.230469" xlink:href="#ArialMT-6f"/>
       <use x="266.845703" xlink:href="#ArialMT-6e"/>
       <use x="322.460938" xlink:href="#ArialMT-5f"/>
       <use x="378.076172" xlink:href="#ArialMT-57"/>
       <use x="472.460938" xlink:href="#ArialMT-49"/>
       <use x="500.244141" xlink:href="#ArialMT-4e"/>
       <use x="572.460938" xlink:href="#ArialMT-54"/>
       <use x="633.544922" xlink:href="#ArialMT-45"/>
       <use x="700.244141" xlink:href="#ArialMT-52"/>
      </g>
     </g>
    </g>
    <g id="ytick_21">
     <g id="line2d_29">
      <path clip-path="url(#p3b9797b6e4)" d="M 210.020313 90.429225 
L 489.020313 90.429225 
" style="fill:none;stroke:#cccccc;stroke-linecap:round;stroke-width:0.8;"/>
     </g>
     <g id="text_30">
      <!-- days_since_2011 -->
      <g style="fill:#262626;" transform="translate(125.926563 94.022975)scale(0.1 -0.1)">
       <use xlink:href="#ArialMT-64"/>
       <use x="55.615234" xlink:href="#ArialMT-61"/>
       <use x="111.230469" xlink:href="#ArialMT-79"/>
       <use x="161.230469" xlink:href="#ArialMT-73"/>
       <use x="211.230469" xlink:href="#ArialMT-5f"/>
       <use x="266.845703" xlink:href="#ArialMT-73"/>
       <use x="316.845703" xlink:href="#ArialMT-69"/>
       <use x="339.0625" xlink:href="#ArialMT-6e"/>
       <use x="394.677734" xlink:href="#ArialMT-63"/>
       <use x="444.677734" xlink:href="#ArialMT-65"/>
       <use x="500.292969" xlink:href="#ArialMT-5f"/>
       <use x="555.908203" xlink:href="#ArialMT-32"/>
       <use x="611.523438" xlink:href="#ArialMT-30"/>
       <use x="667.138672" xlink:href="#ArialMT-31"/>
       <use x="715.378906" xlink:href="#ArialMT-31"/>
      </g>
     </g>
    </g>
    <g id="ytick_22">
     <g id="line2d_30">
      <path clip-path="url(#p3b9797b6e4)" d="M 210.020313 75.208425 
L 489.020313 75.208425 
" style="fill:none;stroke:#cccccc;stroke-linecap:round;stroke-width:0.8;"/>
     </g>
     <g id="text_31">
      <!-- season_SUMMER temp -->
      <g style="fill:#262626;" transform="translate(95.764063 78.848269)scale(0.1 -0.1)">
       <use xlink:href="#ArialMT-73"/>
       <use x="50" xlink:href="#ArialMT-65"/>
       <use x="105.615234" xlink:href="#ArialMT-61"/>
       <use x="161.230469" xlink:href="#ArialMT-73"/>
       <use x="211.230469" xlink:href="#ArialMT-6f"/>
       <use x="266.845703" xlink:href="#ArialMT-6e"/>
       <use x="322.460938" xlink:href="#ArialMT-5f"/>
       <use x="378.076172" xlink:href="#ArialMT-53"/>
       <use x="444.775391" xlink:href="#ArialMT-55"/>
       <use x="516.992188" xlink:href="#ArialMT-4d"/>
       <use x="600.292969" xlink:href="#ArialMT-4d"/>
       <use x="683.59375" xlink:href="#ArialMT-45"/>
       <use x="750.292969" xlink:href="#ArialMT-52"/>
       <use x="822.509766" xlink:href="#ArialMT-20"/>
       <use x="850.292969" xlink:href="#ArialMT-74"/>
       <use x="878.076172" xlink:href="#ArialMT-65"/>
       <use x="933.691406" xlink:href="#ArialMT-6d"/>
       <use x="1016.992188" xlink:href="#ArialMT-70"/>
      </g>
     </g>
    </g>
    <g id="ytick_23">
     <g id="line2d_31">
      <path clip-path="url(#p3b9797b6e4)" d="M 210.020313 59.987625 
L 489.020313 59.987625 
" style="fill:none;stroke:#cccccc;stroke-linecap:round;stroke-width:0.8;"/>
     </g>
     <g id="text_32">
      <!-- holiday_NO HOLIDAY weathersit_GOOD -->
      <g style="fill:#262626;" transform="translate(20.535938 63.630594)scale(0.1 -0.1)">
       <defs>
        <path d="M 409 0 
L 409 4581 
L 972 4581 
L 972 0 
L 409 0 
z
" id="ArialMT-6c" transform="scale(0.015625)"/>
        <path d="M 513 0 
L 513 4581 
L 1119 4581 
L 1119 2700 
L 3500 2700 
L 3500 4581 
L 4106 4581 
L 4106 0 
L 3500 0 
L 3500 2159 
L 1119 2159 
L 1119 0 
L 513 0 
z
" id="ArialMT-48" transform="scale(0.015625)"/>
       </defs>
       <use xlink:href="#ArialMT-68"/>
       <use x="55.615234" xlink:href="#ArialMT-6f"/>
       <use x="111.230469" xlink:href="#ArialMT-6c"/>
       <use x="133.447266" xlink:href="#ArialMT-69"/>
       <use x="155.664062" xlink:href="#ArialMT-64"/>
       <use x="211.279297" xlink:href="#ArialMT-61"/>
       <use x="266.894531" xlink:href="#ArialMT-79"/>
       <use x="316.894531" xlink:href="#ArialMT-5f"/>
       <use x="372.509766" xlink:href="#ArialMT-4e"/>
       <use x="444.726562" xlink:href="#ArialMT-4f"/>
       <use x="522.509766" xlink:href="#ArialMT-20"/>
       <use x="550.292969" xlink:href="#ArialMT-48"/>
       <use x="622.509766" xlink:href="#ArialMT-4f"/>
       <use x="700.292969" xlink:href="#ArialMT-4c"/>
       <use x="755.908203" xlink:href="#ArialMT-49"/>
       <use x="783.691406" xlink:href="#ArialMT-44"/>
       <use x="855.908203" xlink:href="#ArialMT-41"/>
       <use x="915.232422" xlink:href="#ArialMT-59"/>
       <use x="980.181641" xlink:href="#ArialMT-20"/>
       <use x="1007.964844" xlink:href="#ArialMT-77"/>
       <use x="1080.181641" xlink:href="#ArialMT-65"/>
       <use x="1135.796875" xlink:href="#ArialMT-61"/>
       <use x="1191.412109" xlink:href="#ArialMT-74"/>
       <use x="1219.195312" xlink:href="#ArialMT-68"/>
       <use x="1274.810547" xlink:href="#ArialMT-65"/>
       <use x="1330.425781" xlink:href="#ArialMT-72"/>
       <use x="1363.726562" xlink:href="#ArialMT-73"/>
       <use x="1413.726562" xlink:href="#ArialMT-69"/>
       <use x="1435.943359" xlink:href="#ArialMT-74"/>
       <use x="1463.726562" xlink:href="#ArialMT-5f"/>
       <use x="1519.341797" xlink:href="#ArialMT-47"/>
       <use x="1597.125" xlink:href="#ArialMT-4f"/>
       <use x="1674.908203" xlink:href="#ArialMT-4f"/>
       <use x="1752.691406" xlink:href="#ArialMT-44"/>
      </g>
     </g>
    </g>
    <g id="ytick_24">
     <g id="line2d_32">
      <path clip-path="url(#p3b9797b6e4)" d="M 210.020313 44.766825 
L 489.020313 44.766825 
" style="fill:none;stroke:#cccccc;stroke-linecap:round;stroke-width:0.8;"/>
     </g>
     <g id="text_33">
      <!-- days_since_2011 yr -->
      <g style="fill:#262626;" transform="translate(114.81875 48.360575)scale(0.1 -0.1)">
       <use xlink:href="#ArialMT-64"/>
       <use x="55.615234" xlink:href="#ArialMT-61"/>
       <use x="111.230469" xlink:href="#ArialMT-79"/>
       <use x="161.230469" xlink:href="#ArialMT-73"/>
       <use x="211.230469" xlink:href="#ArialMT-5f"/>
       <use x="266.845703" xlink:href="#ArialMT-73"/>
       <use x="316.845703" xlink:href="#ArialMT-69"/>
       <use x="339.0625" xlink:href="#ArialMT-6e"/>
       <use x="394.677734" xlink:href="#ArialMT-63"/>
       <use x="444.677734" xlink:href="#ArialMT-65"/>
       <use x="500.292969" xlink:href="#ArialMT-5f"/>
       <use x="555.908203" xlink:href="#ArialMT-32"/>
       <use x="611.523438" xlink:href="#ArialMT-30"/>
       <use x="667.138672" xlink:href="#ArialMT-31"/>
       <use x="715.378906" xlink:href="#ArialMT-31"/>
       <use x="770.994141" xlink:href="#ArialMT-20"/>
       <use x="798.777344" xlink:href="#ArialMT-79"/>
       <use x="848.777344" xlink:href="#ArialMT-72"/>
      </g>
     </g>
    </g>
    <g id="ytick_25">
     <g id="line2d_33">
      <path clip-path="url(#p3b9797b6e4)" d="M 210.020313 29.546025 
L 489.020313 29.546025 
" style="fill:none;stroke:#cccccc;stroke-linecap:round;stroke-width:0.8;"/>
     </g>
     <g id="text_34">
      <!-- temp -->
      <g style="fill:#262626;" transform="translate(180.790625 33.124931)scale(0.1 -0.1)">
       <use xlink:href="#ArialMT-74"/>
       <use x="27.783203" xlink:href="#ArialMT-65"/>
       <use x="83.398438" xlink:href="#ArialMT-6d"/>
       <use x="166.699219" xlink:href="#ArialMT-70"/>
      </g>
     </g>
    </g>
   </g>
   <g id="patch_3">
    <path clip-path="url(#p3b9797b6e4)" d="M 210.020313 398.650425 
L 237.662259 398.650425 
L 237.662259 391.040025 
L 210.020313 391.040025 
z
" style="fill:#4c72b0;stroke:#ffffff;stroke-linejoin:miter;"/>
   </g>
   <g id="patch_4">
    <path clip-path="url(#p3b9797b6e4)" d="M 210.020313 383.429625 
L 239.801365 383.429625 
L 239.801365 375.819225 
L 210.020313 375.819225 
z
" style="fill:#4c72b0;stroke:#ffffff;stroke-linejoin:miter;"/>
   </g>
   <g id="patch_5">
    <path clip-path="url(#p3b9797b6e4)" d="M 210.020313 368.208825 
L 239.963843 368.208825 
L 239.963843 360.598425 
L 210.020313 360.598425 
z
" style="fill:#4c72b0;stroke:#ffffff;stroke-linejoin:miter;"/>
   </g>
   <g id="patch_6">
    <path clip-path="url(#p3b9797b6e4)" d="M 210.020313 352.988025 
L 242.283215 352.988025 
L 242.283215 345.377625 
L 210.020313 345.377625 
z
" style="fill:#4c72b0;stroke:#ffffff;stroke-linejoin:miter;"/>
   </g>
   <g id="patch_7">
    <path clip-path="url(#p3b9797b6e4)" d="M 210.020313 337.767225 
L 242.802735 337.767225 
L 242.802735 330.156825 
L 210.020313 330.156825 
z
" style="fill:#4c72b0;stroke:#ffffff;stroke-linejoin:miter;"/>
   </g>
   <g id="patch_8">
    <path clip-path="url(#p3b9797b6e4)" d="M 210.020313 322.546425 
L 247.151302 322.546425 
L 247.151302 314.936025 
L 210.020313 314.936025 
z
" style="fill:#4c72b0;stroke:#ffffff;stroke-linejoin:miter;"/>
   </g>
   <g id="patch_9">
    <path clip-path="url(#p3b9797b6e4)" d="M 210.020313 307.325625 
L 247.20011 307.325625 
L 247.20011 299.715225 
L 210.020313 299.715225 
z
" style="fill:#4c72b0;stroke:#ffffff;stroke-linejoin:miter;"/>
   </g>
   <g id="patch_10">
    <path clip-path="url(#p3b9797b6e4)" d="M 210.020313 292.104825 
L 262.219516 292.104825 
L 262.219516 284.494425 
L 210.020313 284.494425 
z
" style="fill:#4c72b0;stroke:#ffffff;stroke-linejoin:miter;"/>
   </g>
   <g id="patch_11">
    <path clip-path="url(#p3b9797b6e4)" d="M 210.020313 276.884025 
L 263.339517 276.884025 
L 263.339517 269.273625 
L 210.020313 269.273625 
z
" style="fill:#4c72b0;stroke:#ffffff;stroke-linejoin:miter;"/>
   </g>
   <g id="patch_12">
    <path clip-path="url(#p3b9797b6e4)" d="M 210.020313 261.663225 
L 264.717821 261.663225 
L 264.717821 254.052825 
L 210.020313 254.052825 
z
" style="fill:#4c72b0;stroke:#ffffff;stroke-linejoin:miter;"/>
   </g>
   <g id="patch_13">
    <path clip-path="url(#p3b9797b6e4)" d="M 210.020313 246.442425 
L 274.923106 246.442425 
L 274.923106 238.832025 
L 210.020313 238.832025 
z
" style="fill:#4c72b0;stroke:#ffffff;stroke-linejoin:miter;"/>
   </g>
   <g id="patch_14">
    <path clip-path="url(#p3b9797b6e4)" d="M 210.020313 231.221625 
L 282.890076 231.221625 
L 282.890076 223.611225 
L 210.020313 223.611225 
z
" style="fill:#4c72b0;stroke:#ffffff;stroke-linejoin:miter;"/>
   </g>
   <g id="patch_15">
    <path clip-path="url(#p3b9797b6e4)" d="M 210.020313 216.000825 
L 286.302471 216.000825 
L 286.302471 208.390425 
L 210.020313 208.390425 
z
" style="fill:#4c72b0;stroke:#ffffff;stroke-linejoin:miter;"/>
   </g>
   <g id="patch_16">
    <path clip-path="url(#p3b9797b6e4)" d="M 210.020313 200.780025 
L 289.042567 200.780025 
L 289.042567 193.169625 
L 210.020313 193.169625 
z
" style="fill:#4c72b0;stroke:#ffffff;stroke-linejoin:miter;"/>
   </g>
   <g id="patch_17">
    <path clip-path="url(#p3b9797b6e4)" d="M 210.020313 185.559225 
L 291.480689 185.559225 
L 291.480689 177.948825 
L 210.020313 177.948825 
z
" style="fill:#4c72b0;stroke:#ffffff;stroke-linejoin:miter;"/>
   </g>
   <g id="patch_18">
    <path clip-path="url(#p3b9797b6e4)" d="M 210.020313 170.338425 
L 293.73987 170.338425 
L 293.73987 162.728025 
L 210.020313 162.728025 
z
" style="fill:#4c72b0;stroke:#ffffff;stroke-linejoin:miter;"/>
   </g>
   <g id="patch_19">
    <path clip-path="url(#p3b9797b6e4)" d="M 210.020313 155.117625 
L 295.778411 155.117625 
L 295.778411 147.507225 
L 210.020313 147.507225 
z
" style="fill:#4c72b0;stroke:#ffffff;stroke-linejoin:miter;"/>
   </g>
   <g id="patch_20">
    <path clip-path="url(#p3b9797b6e4)" d="M 210.020313 139.896825 
L 304.092888 139.896825 
L 304.092888 132.286425 
L 210.020313 132.286425 
z
" style="fill:#4c72b0;stroke:#ffffff;stroke-linejoin:miter;"/>
   </g>
   <g id="patch_21">
    <path clip-path="url(#p3b9797b6e4)" d="M 210.020313 124.676025 
L 322.388261 124.676025 
L 322.388261 117.065625 
L 210.020313 117.065625 
z
" style="fill:#4c72b0;stroke:#ffffff;stroke-linejoin:miter;"/>
   </g>
   <g id="patch_22">
    <path clip-path="url(#p3b9797b6e4)" d="M 210.020313 109.455225 
L 341.138574 109.455225 
L 341.138574 101.844825 
L 210.020313 101.844825 
z
" style="fill:#4c72b0;stroke:#ffffff;stroke-linejoin:miter;"/>
   </g>
   <g id="patch_23">
    <path clip-path="url(#p3b9797b6e4)" d="M 210.020313 94.234425 
L 373.100788 94.234425 
L 373.100788 86.624025 
L 210.020313 86.624025 
z
" style="fill:#4c72b0;stroke:#ffffff;stroke-linejoin:miter;"/>
   </g>
   <g id="patch_24">
    <path clip-path="url(#p3b9797b6e4)" d="M 210.020313 79.013625 
L 375.099045 79.013625 
L 375.099045 71.403225 
L 210.020313 71.403225 
z
" style="fill:#4c72b0;stroke:#ffffff;stroke-linejoin:miter;"/>
   </g>
   <g id="patch_25">
    <path clip-path="url(#p3b9797b6e4)" d="M 210.020313 63.792825 
L 376.114995 63.792825 
L 376.114995 56.182425 
L 210.020313 56.182425 
z
" style="fill:#4c72b0;stroke:#ffffff;stroke-linejoin:miter;"/>
   </g>
   <g id="patch_26">
    <path clip-path="url(#p3b9797b6e4)" d="M 210.020313 48.572025 
L 424.15306 48.572025 
L 424.15306 40.961625 
L 210.020313 40.961625 
z
" style="fill:#4c72b0;stroke:#ffffff;stroke-linejoin:miter;"/>
   </g>
   <g id="patch_27">
    <path clip-path="url(#p3b9797b6e4)" d="M 210.020313 33.351225 
L 475.734598 33.351225 
L 475.734598 25.740825 
L 210.020313 25.740825 
z
" style="fill:#4c72b0;stroke:#ffffff;stroke-linejoin:miter;"/>
   </g>
   <g id="patch_28">
    <path d="M 210.020313 402.455625 
L 210.020313 21.935625 
" style="fill:none;stroke:#ffffff;stroke-linecap:square;stroke-linejoin:miter;stroke-width:0.8;"/>
   </g>
   <g id="patch_29">
    <path d="M 489.020313 402.455625 
L 489.020313 21.935625 
" style="fill:none;stroke:#ffffff;stroke-linecap:square;stroke-linejoin:miter;stroke-width:0.8;"/>
   </g>
   <g id="patch_30">
    <path d="M 210.020313 402.455625 
L 489.020313 402.455625 
" style="fill:none;stroke:#ffffff;stroke-linecap:square;stroke-linejoin:miter;stroke-width:0.8;"/>
   </g>
   <g id="patch_31">
    <path d="M 210.020313 21.935625 
L 489.020313 21.935625 
" style="fill:none;stroke:#ffffff;stroke-linecap:square;stroke-linejoin:miter;stroke-width:0.8;"/>
   </g>
   <g id="text_35">
    <!-- Mean Absolute Weight Effect - Linear Model (Top 25) -->
    <g style="fill:#262626;" transform="translate(209.002188 15.935625)scale(0.12 -0.12)">
     <defs>
      <path d="M 941 0 
L 419 0 
L 419 4581 
L 981 4581 
L 981 2947 
Q 1338 3394 1891 3394 
Q 2197 3394 2470 3270 
Q 2744 3147 2920 2923 
Q 3097 2700 3197 2384 
Q 3297 2069 3297 1709 
Q 3297 856 2875 390 
Q 2453 -75 1863 -75 
Q 1275 -75 941 416 
L 941 0 
z
M 934 1684 
Q 934 1088 1097 822 
Q 1363 388 1816 388 
Q 2184 388 2453 708 
Q 2722 1028 2722 1663 
Q 2722 2313 2464 2622 
Q 2206 2931 1841 2931 
Q 1472 2931 1203 2611 
Q 934 2291 934 1684 
z
" id="ArialMT-62" transform="scale(0.015625)"/>
      <path d="M 203 1375 
L 203 1941 
L 1931 1941 
L 1931 1375 
L 203 1375 
z
" id="ArialMT-2d" transform="scale(0.015625)"/>
      <path d="M 1497 -1347 
Q 1031 -759 709 28 
Q 388 816 388 1659 
Q 388 2403 628 3084 
Q 909 3875 1497 4659 
L 1900 4659 
Q 1522 4009 1400 3731 
Q 1209 3300 1100 2831 
Q 966 2247 966 1656 
Q 966 153 1900 -1347 
L 1497 -1347 
z
" id="ArialMT-28" transform="scale(0.015625)"/>
      <path d="M 791 -1347 
L 388 -1347 
Q 1322 153 1322 1656 
Q 1322 2244 1188 2822 
Q 1081 3291 891 3722 
Q 769 4003 388 4659 
L 791 4659 
Q 1378 3875 1659 3084 
Q 1900 2403 1900 1659 
Q 1900 816 1576 28 
Q 1253 -759 791 -1347 
z
" id="ArialMT-29" transform="scale(0.015625)"/>
     </defs>
     <use xlink:href="#ArialMT-4d"/>
     <use x="83.300781" xlink:href="#ArialMT-65"/>
     <use x="138.916016" xlink:href="#ArialMT-61"/>
     <use x="194.53125" xlink:href="#ArialMT-6e"/>
     <use x="250.146484" xlink:href="#ArialMT-20"/>
     <use x="272.429688" xlink:href="#ArialMT-41"/>
     <use x="339.128906" xlink:href="#ArialMT-62"/>
     <use x="394.744141" xlink:href="#ArialMT-73"/>
     <use x="444.744141" xlink:href="#ArialMT-6f"/>
     <use x="500.359375" xlink:href="#ArialMT-6c"/>
     <use x="522.576172" xlink:href="#ArialMT-75"/>
     <use x="578.191406" xlink:href="#ArialMT-74"/>
     <use x="605.974609" xlink:href="#ArialMT-65"/>
     <use x="661.589844" xlink:href="#ArialMT-20"/>
     <use x="689.373047" xlink:href="#ArialMT-57"/>
     <use x="782.007812" xlink:href="#ArialMT-65"/>
     <use x="837.623047" xlink:href="#ArialMT-69"/>
     <use x="859.839844" xlink:href="#ArialMT-67"/>
     <use x="915.455078" xlink:href="#ArialMT-68"/>
     <use x="971.070312" xlink:href="#ArialMT-74"/>
     <use x="998.853516" xlink:href="#ArialMT-20"/>
     <use x="1026.636719" xlink:href="#ArialMT-45"/>
     <use x="1093.335938" xlink:href="#ArialMT-66"/>
     <use x="1119.369141" xlink:href="#ArialMT-66"/>
     <use x="1147.152344" xlink:href="#ArialMT-65"/>
     <use x="1202.767578" xlink:href="#ArialMT-63"/>
     <use x="1252.767578" xlink:href="#ArialMT-74"/>
     <use x="1280.550781" xlink:href="#ArialMT-20"/>
     <use x="1308.333984" xlink:href="#ArialMT-2d"/>
     <use x="1341.634766" xlink:href="#ArialMT-20"/>
     <use x="1369.417969" xlink:href="#ArialMT-4c"/>
     <use x="1425.033203" xlink:href="#ArialMT-69"/>
     <use x="1447.25" xlink:href="#ArialMT-6e"/>
     <use x="1502.865234" xlink:href="#ArialMT-65"/>
     <use x="1558.480469" xlink:href="#ArialMT-61"/>
     <use x="1614.095703" xlink:href="#ArialMT-72"/>
     <use x="1647.396484" xlink:href="#ArialMT-20"/>
     <use x="1675.179688" xlink:href="#ArialMT-4d"/>
     <use x="1758.480469" xlink:href="#ArialMT-6f"/>
     <use x="1814.095703" xlink:href="#ArialMT-64"/>
     <use x="1869.710938" xlink:href="#ArialMT-65"/>
     <use x="1925.326172" xlink:href="#ArialMT-6c"/>
     <use x="1947.542969" xlink:href="#ArialMT-20"/>
     <use x="1975.326172" xlink:href="#ArialMT-28"/>
     <use x="2008.626953" xlink:href="#ArialMT-54"/>
     <use x="2058.585938" xlink:href="#ArialMT-6f"/>
     <use x="2114.201172" xlink:href="#ArialMT-70"/>
     <use x="2169.816406" xlink:href="#ArialMT-20"/>
     <use x="2197.599609" xlink:href="#ArialMT-32"/>
     <use x="2253.214844" xlink:href="#ArialMT-35"/>
     <use x="2308.830078" xlink:href="#ArialMT-29"/>
    </g>
   </g>
  </g>
 </g>
 <defs>
  <clipPath id="p3b9797b6e4">
   <rect height="380.52" width="279" x="210.020313" y="21.935625"/>
  </clipPath>
 </defs>
</svg>
