<?xml version="1.0" encoding="utf-8" standalone="no"?>
<!DOCTYPE svg PUBLIC "-//W3C//DTD SVG 1.1//EN"
  "http://www.w3.org/Graphics/SVG/1.1/DTD/svg11.dtd">
<svg height="438.8pt" version="1.1" viewBox="0 0 606.5625 438.8" width="606.5625pt" xmlns="http://www.w3.org/2000/svg" xmlns:xlink="http://www.w3.org/1999/xlink">
 <metadata>
  <rdf:RDF xmlns:cc="http://creativecommons.org/ns#" xmlns:dc="http://purl.org/dc/elements/1.1/" xmlns:rdf="http://www.w3.org/1999/02/22-rdf-syntax-ns#">
   <cc:Work>
    <dc:type rdf:resource="http://purl.org/dc/dcmitype/StillImage"/>
    <dc:date>2021-07-27T21:48:54.731904</dc:date>
    <dc:format>image/svg+xml</dc:format>
    <dc:creator>
     <cc:Agent>
      <dc:title>Matplotlib v3.4.2, https://matplotlib.org/</dc:title>
     </cc:Agent>
    </dc:creator>
   </cc:Work>
  </rdf:RDF>
 </metadata>
 <defs>
  <style type="text/css">*{stroke-linecap:butt;stroke-linejoin:round;}</style>
 </defs>
 <g id="figure_1">
  <g id="patch_1">
   <path d="M 0 438.8 
L 606.5625 438.8 
L 606.5625 0 
L 0 0 
z
" style="fill:#ffffff;"/>
  </g>
  <g id="axes_1">
   <g id="patch_2">
    <path d="M 41.3625 402.309375 
L 599.3625 402.309375 
L 599.3625 21.789375 
L 41.3625 21.789375 
z
" style="fill:#e6e6e6;"/>
   </g>
   <g id="matplotlib.axis_1">
    <g id="xtick_1">
     <g id="line2d_1">
      <path clip-path="url(#pee488bf367)" d="M 68.078029 402.309375 
L 68.078029 21.789375 
" style="fill:none;stroke:#cccccc;stroke-linecap:round;stroke-width:0.8;"/>
     </g>
     <g id="text_1">
      <!-- 7 -->
      <g style="fill:#262626;" transform="translate(65.29756 416.467187)scale(0.1 -0.1)">
       <defs>
        <path d="M 303 3981 
L 303 4522 
L 3269 4522 
L 3269 4084 
Q 2831 3619 2401 2847 
Q 1972 2075 1738 1259 
Q 1569 684 1522 0 
L 944 0 
Q 953 541 1156 1306 
Q 1359 2072 1739 2783 
Q 2119 3494 2547 3981 
L 303 3981 
z
" id="ArialMT-37" transform="scale(0.015625)"/>
       </defs>
       <use xlink:href="#ArialMT-37"/>
      </g>
     </g>
    </g>
    <g id="xtick_2">
     <g id="line2d_2">
      <path clip-path="url(#pee488bf367)" d="M 176.081024 402.309375 
L 176.081024 21.789375 
" style="fill:none;stroke:#cccccc;stroke-linecap:round;stroke-width:0.8;"/>
     </g>
     <g id="text_2">
      <!-- 8 -->
      <g style="fill:#262626;" transform="translate(173.300556 416.467187)scale(0.1 -0.1)">
       <defs>
        <path d="M 1131 2484 
Q 781 2613 612 2850 
Q 444 3088 444 3419 
Q 444 3919 803 4259 
Q 1163 4600 1759 4600 
Q 2359 4600 2725 4251 
Q 3091 3903 3091 3403 
Q 3091 3084 2923 2848 
Q 2756 2613 2416 2484 
Q 2838 2347 3058 2040 
Q 3278 1734 3278 1309 
Q 3278 722 2862 322 
Q 2447 -78 1769 -78 
Q 1091 -78 675 323 
Q 259 725 259 1325 
Q 259 1772 486 2073 
Q 713 2375 1131 2484 
z
M 1019 3438 
Q 1019 3113 1228 2906 
Q 1438 2700 1772 2700 
Q 2097 2700 2305 2904 
Q 2513 3109 2513 3406 
Q 2513 3716 2298 3927 
Q 2084 4138 1766 4138 
Q 1444 4138 1231 3931 
Q 1019 3725 1019 3438 
z
M 838 1322 
Q 838 1081 952 856 
Q 1066 631 1291 507 
Q 1516 384 1775 384 
Q 2178 384 2440 643 
Q 2703 903 2703 1303 
Q 2703 1709 2433 1975 
Q 2163 2241 1756 2241 
Q 1359 2241 1098 1978 
Q 838 1716 838 1322 
z
" id="ArialMT-38" transform="scale(0.015625)"/>
       </defs>
       <use xlink:href="#ArialMT-38"/>
      </g>
     </g>
    </g>
    <g id="xtick_3">
     <g id="line2d_3">
      <path clip-path="url(#pee488bf367)" d="M 284.08402 402.309375 
L 284.08402 21.789375 
" style="fill:none;stroke:#cccccc;stroke-linecap:round;stroke-width:0.8;"/>
     </g>
     <g id="text_3">
      <!-- 9 -->
      <g style="fill:#262626;" transform="translate(281.303551 416.467187)scale(0.1 -0.1)">
       <defs>
        <path d="M 350 1059 
L 891 1109 
Q 959 728 1153 556 
Q 1347 384 1650 384 
Q 1909 384 2104 503 
Q 2300 622 2425 820 
Q 2550 1019 2634 1356 
Q 2719 1694 2719 2044 
Q 2719 2081 2716 2156 
Q 2547 1888 2255 1720 
Q 1963 1553 1622 1553 
Q 1053 1553 659 1965 
Q 266 2378 266 3053 
Q 266 3750 677 4175 
Q 1088 4600 1706 4600 
Q 2153 4600 2523 4359 
Q 2894 4119 3086 3673 
Q 3278 3228 3278 2384 
Q 3278 1506 3087 986 
Q 2897 466 2520 194 
Q 2144 -78 1638 -78 
Q 1100 -78 759 220 
Q 419 519 350 1059 
z
M 2653 3081 
Q 2653 3566 2395 3850 
Q 2138 4134 1775 4134 
Q 1400 4134 1122 3828 
Q 844 3522 844 3034 
Q 844 2597 1108 2323 
Q 1372 2050 1759 2050 
Q 2150 2050 2401 2323 
Q 2653 2597 2653 3081 
z
" id="ArialMT-39" transform="scale(0.015625)"/>
       </defs>
       <use xlink:href="#ArialMT-39"/>
      </g>
     </g>
    </g>
    <g id="xtick_4">
     <g id="line2d_4">
      <path clip-path="url(#pee488bf367)" d="M 392.087015 402.309375 
L 392.087015 21.789375 
" style="fill:none;stroke:#cccccc;stroke-linecap:round;stroke-width:0.8;"/>
     </g>
     <g id="text_4">
      <!-- 10 -->
      <g style="fill:#262626;" transform="translate(386.526078 416.467187)scale(0.1 -0.1)">
       <defs>
        <path d="M 2384 0 
L 1822 0 
L 1822 3584 
Q 1619 3391 1289 3197 
Q 959 3003 697 2906 
L 697 3450 
Q 1169 3672 1522 3987 
Q 1875 4303 2022 4600 
L 2384 4600 
L 2384 0 
z
" id="ArialMT-31" transform="scale(0.015625)"/>
        <path d="M 266 2259 
Q 266 3072 433 3567 
Q 600 4063 929 4331 
Q 1259 4600 1759 4600 
Q 2128 4600 2406 4451 
Q 2684 4303 2865 4023 
Q 3047 3744 3150 3342 
Q 3253 2941 3253 2259 
Q 3253 1453 3087 958 
Q 2922 463 2592 192 
Q 2263 -78 1759 -78 
Q 1097 -78 719 397 
Q 266 969 266 2259 
z
M 844 2259 
Q 844 1131 1108 757 
Q 1372 384 1759 384 
Q 2147 384 2411 759 
Q 2675 1134 2675 2259 
Q 2675 3391 2411 3762 
Q 2147 4134 1753 4134 
Q 1366 4134 1134 3806 
Q 844 3388 844 2259 
z
" id="ArialMT-30" transform="scale(0.015625)"/>
       </defs>
       <use xlink:href="#ArialMT-31"/>
       <use x="55.615234" xlink:href="#ArialMT-30"/>
      </g>
     </g>
    </g>
    <g id="xtick_5">
     <g id="line2d_5">
      <path clip-path="url(#pee488bf367)" d="M 500.090011 402.309375 
L 500.090011 21.789375 
" style="fill:none;stroke:#cccccc;stroke-linecap:round;stroke-width:0.8;"/>
     </g>
     <g id="text_5">
      <!-- 11 -->
      <g style="fill:#262626;" transform="translate(494.897823 416.467187)scale(0.1 -0.1)">
       <use xlink:href="#ArialMT-31"/>
       <use x="48.240234" xlink:href="#ArialMT-31"/>
      </g>
     </g>
    </g>
    <g id="text_6">
     <!-- $\lambda$ -->
     <g style="fill:#262626;" transform="translate(317.3625 429.6125)scale(0.1 -0.1)">
      <defs>
       <path d="M 2350 4316 
L 3125 0 
L 2516 0 
L 2038 2588 
L 328 0 
L -281 0 
L 1903 3356 
L 1794 3975 
Q 1725 4369 1391 4369 
L 1091 4369 
L 1184 4863 
L 1550 4856 
Q 2253 4847 2350 4316 
z
" id="DejaVuSans-Oblique-3bb" transform="scale(0.015625)"/>
      </defs>
      <use transform="translate(0 0.015625)" xlink:href="#DejaVuSans-Oblique-3bb"/>
     </g>
    </g>
   </g>
   <g id="matplotlib.axis_2">
    <g id="ytick_1">
     <g id="line2d_6">
      <path clip-path="url(#pee488bf367)" d="M 41.3625 402.309375 
L 599.3625 402.309375 
" style="fill:none;stroke:#cccccc;stroke-linecap:round;stroke-width:0.8;"/>
     </g>
     <g id="text_7">
      <!-- 0.0 -->
      <g style="fill:#262626;" transform="translate(20.4625 405.888281)scale(0.1 -0.1)">
       <defs>
        <path d="M 581 0 
L 581 641 
L 1222 641 
L 1222 0 
L 581 0 
z
" id="ArialMT-2e" transform="scale(0.015625)"/>
       </defs>
       <use xlink:href="#ArialMT-30"/>
       <use x="55.615234" xlink:href="#ArialMT-2e"/>
       <use x="83.398438" xlink:href="#ArialMT-30"/>
      </g>
     </g>
    </g>
    <g id="ytick_2">
     <g id="line2d_7">
      <path clip-path="url(#pee488bf367)" d="M 41.3625 352.875011 
L 599.3625 352.875011 
" style="fill:none;stroke:#cccccc;stroke-linecap:round;stroke-width:0.8;"/>
     </g>
     <g id="text_8">
      <!-- 0.1 -->
      <g style="fill:#262626;" transform="translate(20.4625 356.453917)scale(0.1 -0.1)">
       <use xlink:href="#ArialMT-30"/>
       <use x="55.615234" xlink:href="#ArialMT-2e"/>
       <use x="83.398438" xlink:href="#ArialMT-31"/>
      </g>
     </g>
    </g>
    <g id="ytick_3">
     <g id="line2d_8">
      <path clip-path="url(#pee488bf367)" d="M 41.3625 303.440647 
L 599.3625 303.440647 
" style="fill:none;stroke:#cccccc;stroke-linecap:round;stroke-width:0.8;"/>
     </g>
     <g id="text_9">
      <!-- 0.2 -->
      <g style="fill:#262626;" transform="translate(20.4625 307.019553)scale(0.1 -0.1)">
       <defs>
        <path d="M 3222 541 
L 3222 0 
L 194 0 
Q 188 203 259 391 
Q 375 700 629 1000 
Q 884 1300 1366 1694 
Q 2113 2306 2375 2664 
Q 2638 3022 2638 3341 
Q 2638 3675 2398 3904 
Q 2159 4134 1775 4134 
Q 1369 4134 1125 3890 
Q 881 3647 878 3216 
L 300 3275 
Q 359 3922 746 4261 
Q 1134 4600 1788 4600 
Q 2447 4600 2831 4234 
Q 3216 3869 3216 3328 
Q 3216 3053 3103 2787 
Q 2991 2522 2730 2228 
Q 2469 1934 1863 1422 
Q 1356 997 1212 845 
Q 1069 694 975 541 
L 3222 541 
z
" id="ArialMT-32" transform="scale(0.015625)"/>
       </defs>
       <use xlink:href="#ArialMT-30"/>
       <use x="55.615234" xlink:href="#ArialMT-2e"/>
       <use x="83.398438" xlink:href="#ArialMT-32"/>
      </g>
     </g>
    </g>
    <g id="ytick_4">
     <g id="line2d_9">
      <path clip-path="url(#pee488bf367)" d="M 41.3625 254.006283 
L 599.3625 254.006283 
" style="fill:none;stroke:#cccccc;stroke-linecap:round;stroke-width:0.8;"/>
     </g>
     <g id="text_10">
      <!-- 0.3 -->
      <g style="fill:#262626;" transform="translate(20.4625 257.58519)scale(0.1 -0.1)">
       <defs>
        <path d="M 269 1209 
L 831 1284 
Q 928 806 1161 595 
Q 1394 384 1728 384 
Q 2125 384 2398 659 
Q 2672 934 2672 1341 
Q 2672 1728 2419 1979 
Q 2166 2231 1775 2231 
Q 1616 2231 1378 2169 
L 1441 2663 
Q 1497 2656 1531 2656 
Q 1891 2656 2178 2843 
Q 2466 3031 2466 3422 
Q 2466 3731 2256 3934 
Q 2047 4138 1716 4138 
Q 1388 4138 1169 3931 
Q 950 3725 888 3313 
L 325 3413 
Q 428 3978 793 4289 
Q 1159 4600 1703 4600 
Q 2078 4600 2393 4439 
Q 2709 4278 2876 4000 
Q 3044 3722 3044 3409 
Q 3044 3113 2884 2869 
Q 2725 2625 2413 2481 
Q 2819 2388 3044 2092 
Q 3269 1797 3269 1353 
Q 3269 753 2831 336 
Q 2394 -81 1725 -81 
Q 1122 -81 723 278 
Q 325 638 269 1209 
z
" id="ArialMT-33" transform="scale(0.015625)"/>
       </defs>
       <use xlink:href="#ArialMT-30"/>
       <use x="55.615234" xlink:href="#ArialMT-2e"/>
       <use x="83.398438" xlink:href="#ArialMT-33"/>
      </g>
     </g>
    </g>
    <g id="ytick_5">
     <g id="line2d_10">
      <path clip-path="url(#pee488bf367)" d="M 41.3625 204.571919 
L 599.3625 204.571919 
" style="fill:none;stroke:#cccccc;stroke-linecap:round;stroke-width:0.8;"/>
     </g>
     <g id="text_11">
      <!-- 0.4 -->
      <g style="fill:#262626;" transform="translate(20.4625 208.150826)scale(0.1 -0.1)">
       <defs>
        <path d="M 2069 0 
L 2069 1097 
L 81 1097 
L 81 1613 
L 2172 4581 
L 2631 4581 
L 2631 1613 
L 3250 1613 
L 3250 1097 
L 2631 1097 
L 2631 0 
L 2069 0 
z
M 2069 1613 
L 2069 3678 
L 634 1613 
L 2069 1613 
z
" id="ArialMT-34" transform="scale(0.015625)"/>
       </defs>
       <use xlink:href="#ArialMT-30"/>
       <use x="55.615234" xlink:href="#ArialMT-2e"/>
       <use x="83.398438" xlink:href="#ArialMT-34"/>
      </g>
     </g>
    </g>
    <g id="ytick_6">
     <g id="line2d_11">
      <path clip-path="url(#pee488bf367)" d="M 41.3625 155.137555 
L 599.3625 155.137555 
" style="fill:none;stroke:#cccccc;stroke-linecap:round;stroke-width:0.8;"/>
     </g>
     <g id="text_12">
      <!-- 0.5 -->
      <g style="fill:#262626;" transform="translate(20.4625 158.716462)scale(0.1 -0.1)">
       <defs>
        <path d="M 266 1200 
L 856 1250 
Q 922 819 1161 601 
Q 1400 384 1738 384 
Q 2144 384 2425 690 
Q 2706 997 2706 1503 
Q 2706 1984 2436 2262 
Q 2166 2541 1728 2541 
Q 1456 2541 1237 2417 
Q 1019 2294 894 2097 
L 366 2166 
L 809 4519 
L 3088 4519 
L 3088 3981 
L 1259 3981 
L 1013 2750 
Q 1425 3038 1878 3038 
Q 2478 3038 2890 2622 
Q 3303 2206 3303 1553 
Q 3303 931 2941 478 
Q 2500 -78 1738 -78 
Q 1113 -78 717 272 
Q 322 622 266 1200 
z
" id="ArialMT-35" transform="scale(0.015625)"/>
       </defs>
       <use xlink:href="#ArialMT-30"/>
       <use x="55.615234" xlink:href="#ArialMT-2e"/>
       <use x="83.398438" xlink:href="#ArialMT-35"/>
      </g>
     </g>
    </g>
    <g id="ytick_7">
     <g id="line2d_12">
      <path clip-path="url(#pee488bf367)" d="M 41.3625 105.703192 
L 599.3625 105.703192 
" style="fill:none;stroke:#cccccc;stroke-linecap:round;stroke-width:0.8;"/>
     </g>
     <g id="text_13">
      <!-- 0.6 -->
      <g style="fill:#262626;" transform="translate(20.4625 109.282098)scale(0.1 -0.1)">
       <defs>
        <path d="M 3184 3459 
L 2625 3416 
Q 2550 3747 2413 3897 
Q 2184 4138 1850 4138 
Q 1581 4138 1378 3988 
Q 1113 3794 959 3422 
Q 806 3050 800 2363 
Q 1003 2672 1297 2822 
Q 1591 2972 1913 2972 
Q 2475 2972 2870 2558 
Q 3266 2144 3266 1488 
Q 3266 1056 3080 686 
Q 2894 316 2569 119 
Q 2244 -78 1831 -78 
Q 1128 -78 684 439 
Q 241 956 241 2144 
Q 241 3472 731 4075 
Q 1159 4600 1884 4600 
Q 2425 4600 2770 4297 
Q 3116 3994 3184 3459 
z
M 888 1484 
Q 888 1194 1011 928 
Q 1134 663 1356 523 
Q 1578 384 1822 384 
Q 2178 384 2434 671 
Q 2691 959 2691 1453 
Q 2691 1928 2437 2201 
Q 2184 2475 1800 2475 
Q 1419 2475 1153 2201 
Q 888 1928 888 1484 
z
" id="ArialMT-36" transform="scale(0.015625)"/>
       </defs>
       <use xlink:href="#ArialMT-30"/>
       <use x="55.615234" xlink:href="#ArialMT-2e"/>
       <use x="83.398438" xlink:href="#ArialMT-36"/>
      </g>
     </g>
    </g>
    <g id="ytick_8">
     <g id="line2d_13">
      <path clip-path="url(#pee488bf367)" d="M 41.3625 56.268828 
L 599.3625 56.268828 
" style="fill:none;stroke:#cccccc;stroke-linecap:round;stroke-width:0.8;"/>
     </g>
     <g id="text_14">
      <!-- 0.7 -->
      <g style="fill:#262626;" transform="translate(20.4625 59.847734)scale(0.1 -0.1)">
       <use xlink:href="#ArialMT-30"/>
       <use x="55.615234" xlink:href="#ArialMT-2e"/>
       <use x="83.398438" xlink:href="#ArialMT-37"/>
      </g>
     </g>
    </g>
    <g id="text_15">
     <!-- Density -->
     <g style="fill:#262626;" transform="translate(14.357813 228.72125)rotate(-90)scale(0.1 -0.1)">
      <defs>
       <path d="M 494 0 
L 494 4581 
L 2072 4581 
Q 2606 4581 2888 4516 
Q 3281 4425 3559 4188 
Q 3922 3881 4101 3404 
Q 4281 2928 4281 2316 
Q 4281 1794 4159 1391 
Q 4038 988 3847 723 
Q 3656 459 3429 307 
Q 3203 156 2883 78 
Q 2563 0 2147 0 
L 494 0 
z
M 1100 541 
L 2078 541 
Q 2531 541 2789 625 
Q 3047 709 3200 863 
Q 3416 1078 3536 1442 
Q 3656 1806 3656 2325 
Q 3656 3044 3420 3430 
Q 3184 3816 2847 3947 
Q 2603 4041 2063 4041 
L 1100 4041 
L 1100 541 
z
" id="ArialMT-44" transform="scale(0.015625)"/>
       <path d="M 2694 1069 
L 3275 997 
Q 3138 488 2766 206 
Q 2394 -75 1816 -75 
Q 1088 -75 661 373 
Q 234 822 234 1631 
Q 234 2469 665 2931 
Q 1097 3394 1784 3394 
Q 2450 3394 2872 2941 
Q 3294 2488 3294 1666 
Q 3294 1616 3291 1516 
L 816 1516 
Q 847 969 1125 678 
Q 1403 388 1819 388 
Q 2128 388 2347 550 
Q 2566 713 2694 1069 
z
M 847 1978 
L 2700 1978 
Q 2663 2397 2488 2606 
Q 2219 2931 1791 2931 
Q 1403 2931 1139 2672 
Q 875 2413 847 1978 
z
" id="ArialMT-65" transform="scale(0.015625)"/>
       <path d="M 422 0 
L 422 3319 
L 928 3319 
L 928 2847 
Q 1294 3394 1984 3394 
Q 2284 3394 2536 3286 
Q 2788 3178 2913 3003 
Q 3038 2828 3088 2588 
Q 3119 2431 3119 2041 
L 3119 0 
L 2556 0 
L 2556 2019 
Q 2556 2363 2490 2533 
Q 2425 2703 2258 2804 
Q 2091 2906 1866 2906 
Q 1506 2906 1245 2678 
Q 984 2450 984 1813 
L 984 0 
L 422 0 
z
" id="ArialMT-6e" transform="scale(0.015625)"/>
       <path d="M 197 991 
L 753 1078 
Q 800 744 1014 566 
Q 1228 388 1613 388 
Q 2000 388 2187 545 
Q 2375 703 2375 916 
Q 2375 1106 2209 1216 
Q 2094 1291 1634 1406 
Q 1016 1563 777 1677 
Q 538 1791 414 1992 
Q 291 2194 291 2438 
Q 291 2659 392 2848 
Q 494 3038 669 3163 
Q 800 3259 1026 3326 
Q 1253 3394 1513 3394 
Q 1903 3394 2198 3281 
Q 2494 3169 2634 2976 
Q 2775 2784 2828 2463 
L 2278 2388 
Q 2241 2644 2061 2787 
Q 1881 2931 1553 2931 
Q 1166 2931 1000 2803 
Q 834 2675 834 2503 
Q 834 2394 903 2306 
Q 972 2216 1119 2156 
Q 1203 2125 1616 2013 
Q 2213 1853 2448 1751 
Q 2684 1650 2818 1456 
Q 2953 1263 2953 975 
Q 2953 694 2789 445 
Q 2625 197 2315 61 
Q 2006 -75 1616 -75 
Q 969 -75 630 194 
Q 291 463 197 991 
z
" id="ArialMT-73" transform="scale(0.015625)"/>
       <path d="M 425 3934 
L 425 4581 
L 988 4581 
L 988 3934 
L 425 3934 
z
M 425 0 
L 425 3319 
L 988 3319 
L 988 0 
L 425 0 
z
" id="ArialMT-69" transform="scale(0.015625)"/>
       <path d="M 1650 503 
L 1731 6 
Q 1494 -44 1306 -44 
Q 1000 -44 831 53 
Q 663 150 594 308 
Q 525 466 525 972 
L 525 2881 
L 113 2881 
L 113 3319 
L 525 3319 
L 525 4141 
L 1084 4478 
L 1084 3319 
L 1650 3319 
L 1650 2881 
L 1084 2881 
L 1084 941 
Q 1084 700 1114 631 
Q 1144 563 1211 522 
Q 1278 481 1403 481 
Q 1497 481 1650 503 
z
" id="ArialMT-74" transform="scale(0.015625)"/>
       <path d="M 397 -1278 
L 334 -750 
Q 519 -800 656 -800 
Q 844 -800 956 -737 
Q 1069 -675 1141 -563 
Q 1194 -478 1313 -144 
Q 1328 -97 1363 -6 
L 103 3319 
L 709 3319 
L 1400 1397 
Q 1534 1031 1641 628 
Q 1738 1016 1872 1384 
L 2581 3319 
L 3144 3319 
L 1881 -56 
Q 1678 -603 1566 -809 
Q 1416 -1088 1222 -1217 
Q 1028 -1347 759 -1347 
Q 597 -1347 397 -1278 
z
" id="ArialMT-79" transform="scale(0.015625)"/>
      </defs>
      <use xlink:href="#ArialMT-44"/>
      <use x="72.216797" xlink:href="#ArialMT-65"/>
      <use x="127.832031" xlink:href="#ArialMT-6e"/>
      <use x="183.447266" xlink:href="#ArialMT-73"/>
      <use x="233.447266" xlink:href="#ArialMT-69"/>
      <use x="255.664062" xlink:href="#ArialMT-74"/>
      <use x="283.447266" xlink:href="#ArialMT-79"/>
     </g>
    </g>
   </g>
   <g id="patch_3">
    <path clip-path="url(#pee488bf367)" d="M 95.728648 402.309375 
L 103.610538 402.309375 
L 103.610538 401.462646 
L 95.728648 401.462646 
z
" style="fill:#4c72b0;fill-opacity:0.5;stroke:#ffffff;stroke-linejoin:miter;stroke-width:0.889952;"/>
   </g>
   <g id="patch_4">
    <path clip-path="url(#pee488bf367)" d="M 103.610538 402.309375 
L 111.492427 402.309375 
L 111.492427 402.309375 
L 103.610538 402.309375 
z
" style="fill:#4c72b0;fill-opacity:0.5;stroke:#ffffff;stroke-linejoin:miter;stroke-width:0.889952;"/>
   </g>
   <g id="patch_5">
    <path clip-path="url(#pee488bf367)" d="M 111.492427 402.309375 
L 119.374317 402.309375 
L 119.374317 401.462646 
L 111.492427 401.462646 
z
" style="fill:#4c72b0;fill-opacity:0.5;stroke:#ffffff;stroke-linejoin:miter;stroke-width:0.889952;"/>
   </g>
   <g id="patch_6">
    <path clip-path="url(#pee488bf367)" d="M 119.374317 402.309375 
L 127.256206 402.309375 
L 127.256206 401.462646 
L 119.374317 401.462646 
z
" style="fill:#4c72b0;fill-opacity:0.5;stroke:#ffffff;stroke-linejoin:miter;stroke-width:0.889952;"/>
   </g>
   <g id="patch_7">
    <path clip-path="url(#pee488bf367)" d="M 127.256206 402.309375 
L 135.138096 402.309375 
L 135.138096 401.462646 
L 127.256206 401.462646 
z
" style="fill:#4c72b0;fill-opacity:0.5;stroke:#ffffff;stroke-linejoin:miter;stroke-width:0.889952;"/>
   </g>
   <g id="patch_8">
    <path clip-path="url(#pee488bf367)" d="M 135.138096 402.309375 
L 143.019985 402.309375 
L 143.019985 400.615917 
L 135.138096 400.615917 
z
" style="fill:#4c72b0;fill-opacity:0.5;stroke:#ffffff;stroke-linejoin:miter;stroke-width:0.889952;"/>
   </g>
   <g id="patch_9">
    <path clip-path="url(#pee488bf367)" d="M 143.019985 402.309375 
L 150.901875 402.309375 
L 150.901875 400.615917 
L 143.019985 400.615917 
z
" style="fill:#4c72b0;fill-opacity:0.5;stroke:#ffffff;stroke-linejoin:miter;stroke-width:0.889952;"/>
   </g>
   <g id="patch_10">
    <path clip-path="url(#pee488bf367)" d="M 150.901875 402.309375 
L 158.783765 402.309375 
L 158.783765 392.995356 
L 150.901875 392.995356 
z
" style="fill:#4c72b0;fill-opacity:0.5;stroke:#ffffff;stroke-linejoin:miter;stroke-width:0.889952;"/>
   </g>
   <g id="patch_11">
    <path clip-path="url(#pee488bf367)" d="M 158.783765 402.309375 
L 166.665654 402.309375 
L 166.665654 396.382272 
L 158.783765 396.382272 
z
" style="fill:#4c72b0;fill-opacity:0.5;stroke:#ffffff;stroke-linejoin:miter;stroke-width:0.889952;"/>
   </g>
   <g id="patch_12">
    <path clip-path="url(#pee488bf367)" d="M 166.665654 402.309375 
L 174.547544 402.309375 
L 174.547544 388.761711 
L 166.665654 388.761711 
z
" style="fill:#4c72b0;fill-opacity:0.5;stroke:#ffffff;stroke-linejoin:miter;stroke-width:0.889952;"/>
   </g>
   <g id="patch_13">
    <path clip-path="url(#pee488bf367)" d="M 174.547544 402.309375 
L 182.429433 402.309375 
L 182.429433 378.600964 
L 174.547544 378.600964 
z
" style="fill:#4c72b0;fill-opacity:0.5;stroke:#ffffff;stroke-linejoin:miter;stroke-width:0.889952;"/>
   </g>
   <g id="patch_14">
    <path clip-path="url(#pee488bf367)" d="M 182.429433 402.309375 
L 190.311323 402.309375 
L 190.311323 370.133674 
L 182.429433 370.133674 
z
" style="fill:#4c72b0;fill-opacity:0.5;stroke:#ffffff;stroke-linejoin:miter;stroke-width:0.889952;"/>
   </g>
   <g id="patch_15">
    <path clip-path="url(#pee488bf367)" d="M 190.311323 402.309375 
L 198.193212 402.309375 
L 198.193212 362.513113 
L 190.311323 362.513113 
z
" style="fill:#4c72b0;fill-opacity:0.5;stroke:#ffffff;stroke-linejoin:miter;stroke-width:0.889952;"/>
   </g>
   <g id="patch_16">
    <path clip-path="url(#pee488bf367)" d="M 198.193212 402.309375 
L 206.075102 402.309375 
L 206.075102 349.812179 
L 198.193212 349.812179 
z
" style="fill:#4c72b0;fill-opacity:0.5;stroke:#ffffff;stroke-linejoin:miter;stroke-width:0.889952;"/>
   </g>
   <g id="patch_17">
    <path clip-path="url(#pee488bf367)" d="M 206.075102 402.309375 
L 213.956991 402.309375 
L 213.956991 326.103768 
L 206.075102 326.103768 
z
" style="fill:#4c72b0;fill-opacity:0.5;stroke:#ffffff;stroke-linejoin:miter;stroke-width:0.889952;"/>
   </g>
   <g id="patch_18">
    <path clip-path="url(#pee488bf367)" d="M 213.956991 402.309375 
L 221.838881 402.309375 
L 221.838881 310.015917 
L 213.956991 310.015917 
z
" style="fill:#4c72b0;fill-opacity:0.5;stroke:#ffffff;stroke-linejoin:miter;stroke-width:0.889952;"/>
   </g>
   <g id="patch_19">
    <path clip-path="url(#pee488bf367)" d="M 221.838881 402.309375 
L 229.72077 402.309375 
L 229.72077 276.146758 
L 221.838881 276.146758 
z
" style="fill:#4c72b0;fill-opacity:0.5;stroke:#ffffff;stroke-linejoin:miter;stroke-width:0.889952;"/>
   </g>
   <g id="patch_20">
    <path clip-path="url(#pee488bf367)" d="M 229.72077 402.309375 
L 237.60266 402.309375 
L 237.60266 250.744889 
L 229.72077 250.744889 
z
" style="fill:#4c72b0;fill-opacity:0.5;stroke:#ffffff;stroke-linejoin:miter;stroke-width:0.889952;"/>
   </g>
   <g id="patch_21">
    <path clip-path="url(#pee488bf367)" d="M 237.60266 402.309375 
L 245.484549 402.309375 
L 245.484549 227.883207 
L 237.60266 227.883207 
z
" style="fill:#4c72b0;fill-opacity:0.5;stroke:#ffffff;stroke-linejoin:miter;stroke-width:0.889952;"/>
   </g>
   <g id="patch_22">
    <path clip-path="url(#pee488bf367)" d="M 245.484549 402.309375 
L 253.366439 402.309375 
L 253.366439 185.546758 
L 245.484549 185.546758 
z
" style="fill:#4c72b0;fill-opacity:0.5;stroke:#ffffff;stroke-linejoin:miter;stroke-width:0.889952;"/>
   </g>
   <g id="patch_23">
    <path clip-path="url(#pee488bf367)" d="M 253.366439 402.309375 
L 261.248328 402.309375 
L 261.248328 171.999095 
L 253.366439 171.999095 
z
" style="fill:#4c72b0;fill-opacity:0.5;stroke:#ffffff;stroke-linejoin:miter;stroke-width:0.889952;"/>
   </g>
   <g id="patch_24">
    <path clip-path="url(#pee488bf367)" d="M 261.248328 402.309375 
L 269.130218 402.309375 
L 269.130218 130.509375 
L 261.248328 130.509375 
z
" style="fill:#4c72b0;fill-opacity:0.5;stroke:#ffffff;stroke-linejoin:miter;stroke-width:0.889952;"/>
   </g>
   <g id="patch_25">
    <path clip-path="url(#pee488bf367)" d="M 269.130218 402.309375 
L 277.012108 402.309375 
L 277.012108 125.429001 
L 269.130218 125.429001 
z
" style="fill:#4c72b0;fill-opacity:0.5;stroke:#ffffff;stroke-linejoin:miter;stroke-width:0.889952;"/>
   </g>
   <g id="patch_26">
    <path clip-path="url(#pee488bf367)" d="M 277.012108 402.309375 
L 284.893997 402.309375 
L 284.893997 103.414048 
L 277.012108 103.414048 
z
" style="fill:#4c72b0;fill-opacity:0.5;stroke:#ffffff;stroke-linejoin:miter;stroke-width:0.889952;"/>
   </g>
   <g id="patch_27">
    <path clip-path="url(#pee488bf367)" d="M 284.893997 402.309375 
L 292.775887 402.309375 
L 292.775887 57.690683 
L 284.893997 57.690683 
z
" style="fill:#4c72b0;fill-opacity:0.5;stroke:#ffffff;stroke-linejoin:miter;stroke-width:0.889952;"/>
   </g>
   <g id="patch_28">
    <path clip-path="url(#pee488bf367)" d="M 292.775887 402.309375 
L 300.657776 402.309375 
L 300.657776 44.14302 
L 292.775887 44.14302 
z
" style="fill:#4c72b0;fill-opacity:0.5;stroke:#ffffff;stroke-linejoin:miter;stroke-width:0.889952;"/>
   </g>
   <g id="patch_29">
    <path clip-path="url(#pee488bf367)" d="M 300.657776 402.309375 
L 308.539666 402.309375 
L 308.539666 39.909375 
L 300.657776 39.909375 
z
" style="fill:#4c72b0;fill-opacity:0.5;stroke:#ffffff;stroke-linejoin:miter;stroke-width:0.889952;"/>
   </g>
   <g id="patch_30">
    <path clip-path="url(#pee488bf367)" d="M 308.539666 402.309375 
L 316.421555 402.309375 
L 316.421555 40.756104 
L 308.539666 40.756104 
z
" style="fill:#4c72b0;fill-opacity:0.5;stroke:#ffffff;stroke-linejoin:miter;stroke-width:0.889952;"/>
   </g>
   <g id="patch_31">
    <path clip-path="url(#pee488bf367)" d="M 316.421555 402.309375 
L 324.303445 402.309375 
L 324.303445 50.070123 
L 316.421555 50.070123 
z
" style="fill:#4c72b0;fill-opacity:0.5;stroke:#ffffff;stroke-linejoin:miter;stroke-width:0.889952;"/>
   </g>
   <g id="patch_32">
    <path clip-path="url(#pee488bf367)" d="M 324.303445 402.309375 
L 332.185334 402.309375 
L 332.185334 55.150496 
L 324.303445 55.150496 
z
" style="fill:#4c72b0;fill-opacity:0.5;stroke:#ffffff;stroke-linejoin:miter;stroke-width:0.889952;"/>
   </g>
   <g id="patch_33">
    <path clip-path="url(#pee488bf367)" d="M 332.185334 402.309375 
L 340.067224 402.309375 
L 340.067224 67.004702 
L 332.185334 67.004702 
z
" style="fill:#4c72b0;fill-opacity:0.5;stroke:#ffffff;stroke-linejoin:miter;stroke-width:0.889952;"/>
   </g>
   <g id="patch_34">
    <path clip-path="url(#pee488bf367)" d="M 340.067224 402.309375 
L 347.949113 402.309375 
L 347.949113 57.690683 
L 340.067224 57.690683 
z
" style="fill:#4c72b0;fill-opacity:0.5;stroke:#ffffff;stroke-linejoin:miter;stroke-width:0.889952;"/>
   </g>
   <g id="patch_35">
    <path clip-path="url(#pee488bf367)" d="M 347.949113 402.309375 
L 355.831003 402.309375 
L 355.831003 144.903768 
L 347.949113 144.903768 
z
" style="fill:#4c72b0;fill-opacity:0.5;stroke:#ffffff;stroke-linejoin:miter;stroke-width:0.889952;"/>
   </g>
   <g id="patch_36">
    <path clip-path="url(#pee488bf367)" d="M 355.831003 402.309375 
L 363.712892 402.309375 
L 363.712892 111.881338 
L 355.831003 111.881338 
z
" style="fill:#4c72b0;fill-opacity:0.5;stroke:#ffffff;stroke-linejoin:miter;stroke-width:0.889952;"/>
   </g>
   <g id="patch_37">
    <path clip-path="url(#pee488bf367)" d="M 363.712892 402.309375 
L 371.594782 402.309375 
L 371.594782 178.772926 
L 363.712892 178.772926 
z
" style="fill:#4c72b0;fill-opacity:0.5;stroke:#ffffff;stroke-linejoin:miter;stroke-width:0.889952;"/>
   </g>
   <g id="patch_38">
    <path clip-path="url(#pee488bf367)" d="M 371.594782 402.309375 
L 379.476672 402.309375 
L 379.476672 193.167319 
L 371.594782 193.167319 
z
" style="fill:#4c72b0;fill-opacity:0.5;stroke:#ffffff;stroke-linejoin:miter;stroke-width:0.889952;"/>
   </g>
   <g id="patch_39">
    <path clip-path="url(#pee488bf367)" d="M 379.476672 402.309375 
L 387.358561 402.309375 
L 387.358561 242.277599 
L 379.476672 242.277599 
z
" style="fill:#4c72b0;fill-opacity:0.5;stroke:#ffffff;stroke-linejoin:miter;stroke-width:0.889952;"/>
   </g>
   <g id="patch_40">
    <path clip-path="url(#pee488bf367)" d="M 387.358561 402.309375 
L 395.240451 402.309375 
L 395.240451 265.986011 
L 387.358561 265.986011 
z
" style="fill:#4c72b0;fill-opacity:0.5;stroke:#ffffff;stroke-linejoin:miter;stroke-width:0.889952;"/>
   </g>
   <g id="patch_41">
    <path clip-path="url(#pee488bf367)" d="M 395.240451 402.309375 
L 403.12234 402.309375 
L 403.12234 275.300029 
L 395.240451 275.300029 
z
" style="fill:#4c72b0;fill-opacity:0.5;stroke:#ffffff;stroke-linejoin:miter;stroke-width:0.889952;"/>
   </g>
   <g id="patch_42">
    <path clip-path="url(#pee488bf367)" d="M 403.12234 402.309375 
L 411.00423 402.309375 
L 411.00423 295.621525 
L 403.12234 295.621525 
z
" style="fill:#4c72b0;fill-opacity:0.5;stroke:#ffffff;stroke-linejoin:miter;stroke-width:0.889952;"/>
   </g>
   <g id="patch_43">
    <path clip-path="url(#pee488bf367)" d="M 411.00423 402.309375 
L 418.886119 402.309375 
L 418.886119 317.636478 
L 411.00423 317.636478 
z
" style="fill:#4c72b0;fill-opacity:0.5;stroke:#ffffff;stroke-linejoin:miter;stroke-width:0.889952;"/>
   </g>
   <g id="patch_44">
    <path clip-path="url(#pee488bf367)" d="M 418.886119 402.309375 
L 426.768009 402.309375 
L 426.768009 336.264515 
L 418.886119 336.264515 
z
" style="fill:#4c72b0;fill-opacity:0.5;stroke:#ffffff;stroke-linejoin:miter;stroke-width:0.889952;"/>
   </g>
   <g id="patch_45">
    <path clip-path="url(#pee488bf367)" d="M 426.768009 402.309375 
L 434.649898 402.309375 
L 434.649898 343.885076 
L 426.768009 343.885076 
z
" style="fill:#4c72b0;fill-opacity:0.5;stroke:#ffffff;stroke-linejoin:miter;stroke-width:0.889952;"/>
   </g>
   <g id="patch_46">
    <path clip-path="url(#pee488bf367)" d="M 434.649898 402.309375 
L 442.531788 402.309375 
L 442.531788 363.359842 
L 434.649898 363.359842 
z
" style="fill:#4c72b0;fill-opacity:0.5;stroke:#ffffff;stroke-linejoin:miter;stroke-width:0.889952;"/>
   </g>
   <g id="patch_47">
    <path clip-path="url(#pee488bf367)" d="M 442.531788 402.309375 
L 450.413677 402.309375 
L 450.413677 372.673861 
L 442.531788 372.673861 
z
" style="fill:#4c72b0;fill-opacity:0.5;stroke:#ffffff;stroke-linejoin:miter;stroke-width:0.889952;"/>
   </g>
   <g id="patch_48">
    <path clip-path="url(#pee488bf367)" d="M 450.413677 402.309375 
L 458.295567 402.309375 
L 458.295567 376.907506 
L 450.413677 376.907506 
z
" style="fill:#4c72b0;fill-opacity:0.5;stroke:#ffffff;stroke-linejoin:miter;stroke-width:0.889952;"/>
   </g>
   <g id="patch_49">
    <path clip-path="url(#pee488bf367)" d="M 458.295567 402.309375 
L 466.177456 402.309375 
L 466.177456 389.60844 
L 458.295567 389.60844 
z
" style="fill:#4c72b0;fill-opacity:0.5;stroke:#ffffff;stroke-linejoin:miter;stroke-width:0.889952;"/>
   </g>
   <g id="patch_50">
    <path clip-path="url(#pee488bf367)" d="M 466.177456 402.309375 
L 474.059346 402.309375 
L 474.059346 389.60844 
L 466.177456 389.60844 
z
" style="fill:#4c72b0;fill-opacity:0.5;stroke:#ffffff;stroke-linejoin:miter;stroke-width:0.889952;"/>
   </g>
   <g id="patch_51">
    <path clip-path="url(#pee488bf367)" d="M 474.059346 402.309375 
L 481.941235 402.309375 
L 481.941235 392.148627 
L 474.059346 392.148627 
z
" style="fill:#4c72b0;fill-opacity:0.5;stroke:#ffffff;stroke-linejoin:miter;stroke-width:0.889952;"/>
   </g>
   <g id="patch_52">
    <path clip-path="url(#pee488bf367)" d="M 481.941235 402.309375 
L 489.823125 402.309375 
L 489.823125 394.688814 
L 481.941235 394.688814 
z
" style="fill:#4c72b0;fill-opacity:0.5;stroke:#ffffff;stroke-linejoin:miter;stroke-width:0.889952;"/>
   </g>
   <g id="patch_53">
    <path clip-path="url(#pee488bf367)" d="M 489.823125 402.309375 
L 497.705015 402.309375 
L 497.705015 395.535543 
L 489.823125 395.535543 
z
" style="fill:#4c72b0;fill-opacity:0.5;stroke:#ffffff;stroke-linejoin:miter;stroke-width:0.889952;"/>
   </g>
   <g id="patch_54">
    <path clip-path="url(#pee488bf367)" d="M 497.705015 402.309375 
L 505.586904 402.309375 
L 505.586904 400.615917 
L 497.705015 400.615917 
z
" style="fill:#4c72b0;fill-opacity:0.5;stroke:#ffffff;stroke-linejoin:miter;stroke-width:0.889952;"/>
   </g>
   <g id="patch_55">
    <path clip-path="url(#pee488bf367)" d="M 505.586904 402.309375 
L 513.468794 402.309375 
L 513.468794 402.309375 
L 505.586904 402.309375 
z
" style="fill:#4c72b0;fill-opacity:0.5;stroke:#ffffff;stroke-linejoin:miter;stroke-width:0.889952;"/>
   </g>
   <g id="patch_56">
    <path clip-path="url(#pee488bf367)" d="M 513.468794 402.309375 
L 521.350683 402.309375 
L 521.350683 402.309375 
L 513.468794 402.309375 
z
" style="fill:#4c72b0;fill-opacity:0.5;stroke:#ffffff;stroke-linejoin:miter;stroke-width:0.889952;"/>
   </g>
   <g id="patch_57">
    <path clip-path="url(#pee488bf367)" d="M 521.350683 402.309375 
L 529.232573 402.309375 
L 529.232573 399.769188 
L 521.350683 399.769188 
z
" style="fill:#4c72b0;fill-opacity:0.5;stroke:#ffffff;stroke-linejoin:miter;stroke-width:0.889952;"/>
   </g>
   <g id="patch_58">
    <path clip-path="url(#pee488bf367)" d="M 529.232573 402.309375 
L 537.114462 402.309375 
L 537.114462 402.309375 
L 529.232573 402.309375 
z
" style="fill:#4c72b0;fill-opacity:0.5;stroke:#ffffff;stroke-linejoin:miter;stroke-width:0.889952;"/>
   </g>
   <g id="patch_59">
    <path clip-path="url(#pee488bf367)" d="M 537.114462 402.309375 
L 544.996352 402.309375 
L 544.996352 401.462646 
L 537.114462 401.462646 
z
" style="fill:#4c72b0;fill-opacity:0.5;stroke:#ffffff;stroke-linejoin:miter;stroke-width:0.889952;"/>
   </g>
   <g id="line2d_14">
    <path clip-path="url(#pee488bf367)" d="M 66.726136 402.306313 
L 82.020791 402.206963 
L 125.355648 401.39036 
L 130.453866 401.122759 
L 135.552084 400.655733 
L 140.650303 399.871795 
L 145.748521 398.703209 
L 150.846739 397.174722 
L 155.944958 395.304668 
L 158.494067 394.197658 
L 161.043176 392.924649 
L 163.592285 391.44353 
L 166.141394 389.726434 
L 168.690504 387.772275 
L 171.239613 385.611252 
L 176.337831 380.893502 
L 181.43605 375.945616 
L 183.985159 373.359272 
L 186.534268 370.591185 
L 189.083377 367.528507 
L 191.632486 364.067694 
L 194.181595 360.140746 
L 196.730705 355.725961 
L 199.279814 350.84031 
L 201.828923 345.519712 
L 204.378032 339.798633 
L 206.927141 333.698892 
L 209.476251 327.230945 
L 212.02536 320.403646 
L 217.123578 305.753562 
L 222.221796 289.999927 
L 227.320015 273.320256 
L 232.418233 255.620445 
L 237.516452 236.819334 
L 247.712888 198.275472 
L 252.811107 180.470299 
L 255.360216 172.200706 
L 257.909325 164.364459 
L 263.007543 149.82168 
L 270.654871 129.024092 
L 273.20398 121.662837 
L 275.753089 113.84897 
L 280.851308 96.898644 
L 285.949526 79.357572 
L 288.498635 71.110516 
L 291.047744 63.653861 
L 293.596854 57.260207 
L 296.145963 52.1074 
L 298.695072 48.258188 
L 301.244181 45.661611 
L 303.79329 44.175871 
L 306.342399 43.607171 
L 308.891509 43.754149 
L 311.440618 44.445259 
L 313.989727 45.558961 
L 316.538836 47.02349 
L 319.087945 48.801435 
L 321.637055 50.870406 
L 324.186164 53.211889 
L 326.735273 55.815547 
L 329.284382 58.697483 
L 331.833491 61.921909 
L 334.382601 65.610541 
L 336.93171 69.926842 
L 339.480819 75.033541 
L 342.029928 81.037345 
L 344.579037 87.945432 
L 347.128146 95.656025 
L 349.677256 103.989233 
L 354.775474 121.749202 
L 362.422802 149.501484 
L 367.52102 168.582931 
L 372.619238 188.346381 
L 382.815675 228.841373 
L 385.364784 238.304033 
L 387.913893 247.123 
L 390.463003 255.206932 
L 393.012112 262.570822 
L 395.561221 269.325275 
L 400.659439 281.69695 
L 418.503204 323.098996 
L 421.052313 328.543633 
L 423.601422 333.720676 
L 426.150531 338.628595 
L 431.248749 347.730875 
L 436.346968 356.051288 
L 438.896077 359.929796 
L 441.445186 363.595968 
L 443.994295 367.028278 
L 446.543405 370.216359 
L 449.092514 373.165092 
L 451.641623 375.889821 
L 454.190732 378.406184 
L 456.739841 380.721036 
L 459.28895 382.829957 
L 461.83806 384.722501 
L 464.387169 386.391589 
L 466.936278 387.84128 
L 469.485387 389.088817 
L 472.034496 390.161008 
L 477.132715 391.903217 
L 492.42737 396.345179 
L 500.074697 398.945422 
L 502.623807 399.692728 
L 505.172916 400.317272 
L 507.722025 400.802595 
L 510.271134 401.147635 
L 515.369352 401.4722 
L 520.467571 401.480616 
L 528.114898 401.41931 
L 535.762226 401.597188 
L 553.60599 402.104679 
L 566.351536 402.285126 
L 573.998864 402.306308 
L 573.998864 402.306308 
" style="fill:none;stroke:#4c72b0;stroke-linecap:round;stroke-width:1.5;"/>
   </g>
   <g id="patch_60">
    <path d="M 41.3625 402.309375 
L 41.3625 21.789375 
" style="fill:none;stroke:#ffffff;stroke-linecap:square;stroke-linejoin:miter;stroke-width:0.8;"/>
   </g>
   <g id="patch_61">
    <path d="M 599.3625 402.309375 
L 599.3625 21.789375 
" style="fill:none;stroke:#ffffff;stroke-linecap:square;stroke-linejoin:miter;stroke-width:0.8;"/>
   </g>
   <g id="patch_62">
    <path d="M 41.3625 402.309375 
L 599.3625 402.309375 
" style="fill:none;stroke:#ffffff;stroke-linecap:square;stroke-linejoin:miter;stroke-width:0.8;"/>
   </g>
   <g id="patch_63">
    <path d="M 41.3625 21.789375 
L 599.3625 21.789375 
" style="fill:none;stroke:#ffffff;stroke-linecap:square;stroke-linejoin:miter;stroke-width:0.8;"/>
   </g>
   <g id="text_16">
    <!-- Lambda = 1 Distribution -->
    <g style="fill:#262626;" transform="translate(256.83 15.789375)scale(0.12 -0.12)">
     <defs>
      <path d="M 469 0 
L 469 4581 
L 1075 4581 
L 1075 541 
L 3331 541 
L 3331 0 
L 469 0 
z
" id="ArialMT-4c" transform="scale(0.015625)"/>
      <path d="M 2588 409 
Q 2275 144 1986 34 
Q 1697 -75 1366 -75 
Q 819 -75 525 192 
Q 231 459 231 875 
Q 231 1119 342 1320 
Q 453 1522 633 1644 
Q 813 1766 1038 1828 
Q 1203 1872 1538 1913 
Q 2219 1994 2541 2106 
Q 2544 2222 2544 2253 
Q 2544 2597 2384 2738 
Q 2169 2928 1744 2928 
Q 1347 2928 1158 2789 
Q 969 2650 878 2297 
L 328 2372 
Q 403 2725 575 2942 
Q 747 3159 1072 3276 
Q 1397 3394 1825 3394 
Q 2250 3394 2515 3294 
Q 2781 3194 2906 3042 
Q 3031 2891 3081 2659 
Q 3109 2516 3109 2141 
L 3109 1391 
Q 3109 606 3145 398 
Q 3181 191 3288 0 
L 2700 0 
Q 2613 175 2588 409 
z
M 2541 1666 
Q 2234 1541 1622 1453 
Q 1275 1403 1131 1340 
Q 988 1278 909 1158 
Q 831 1038 831 891 
Q 831 666 1001 516 
Q 1172 366 1500 366 
Q 1825 366 2078 508 
Q 2331 650 2450 897 
Q 2541 1088 2541 1459 
L 2541 1666 
z
" id="ArialMT-61" transform="scale(0.015625)"/>
      <path d="M 422 0 
L 422 3319 
L 925 3319 
L 925 2853 
Q 1081 3097 1340 3245 
Q 1600 3394 1931 3394 
Q 2300 3394 2536 3241 
Q 2772 3088 2869 2813 
Q 3263 3394 3894 3394 
Q 4388 3394 4653 3120 
Q 4919 2847 4919 2278 
L 4919 0 
L 4359 0 
L 4359 2091 
Q 4359 2428 4304 2576 
Q 4250 2725 4106 2815 
Q 3963 2906 3769 2906 
Q 3419 2906 3187 2673 
Q 2956 2441 2956 1928 
L 2956 0 
L 2394 0 
L 2394 2156 
Q 2394 2531 2256 2718 
Q 2119 2906 1806 2906 
Q 1569 2906 1367 2781 
Q 1166 2656 1075 2415 
Q 984 2175 984 1722 
L 984 0 
L 422 0 
z
" id="ArialMT-6d" transform="scale(0.015625)"/>
      <path d="M 941 0 
L 419 0 
L 419 4581 
L 981 4581 
L 981 2947 
Q 1338 3394 1891 3394 
Q 2197 3394 2470 3270 
Q 2744 3147 2920 2923 
Q 3097 2700 3197 2384 
Q 3297 2069 3297 1709 
Q 3297 856 2875 390 
Q 2453 -75 1863 -75 
Q 1275 -75 941 416 
L 941 0 
z
M 934 1684 
Q 934 1088 1097 822 
Q 1363 388 1816 388 
Q 2184 388 2453 708 
Q 2722 1028 2722 1663 
Q 2722 2313 2464 2622 
Q 2206 2931 1841 2931 
Q 1472 2931 1203 2611 
Q 934 2291 934 1684 
z
" id="ArialMT-62" transform="scale(0.015625)"/>
      <path d="M 2575 0 
L 2575 419 
Q 2259 -75 1647 -75 
Q 1250 -75 917 144 
Q 584 363 401 755 
Q 219 1147 219 1656 
Q 219 2153 384 2558 
Q 550 2963 881 3178 
Q 1213 3394 1622 3394 
Q 1922 3394 2156 3267 
Q 2391 3141 2538 2938 
L 2538 4581 
L 3097 4581 
L 3097 0 
L 2575 0 
z
M 797 1656 
Q 797 1019 1065 703 
Q 1334 388 1700 388 
Q 2069 388 2326 689 
Q 2584 991 2584 1609 
Q 2584 2291 2321 2609 
Q 2059 2928 1675 2928 
Q 1300 2928 1048 2622 
Q 797 2316 797 1656 
z
" id="ArialMT-64" transform="scale(0.015625)"/>
      <path id="ArialMT-20" transform="scale(0.015625)"/>
      <path d="M 3381 2694 
L 356 2694 
L 356 3219 
L 3381 3219 
L 3381 2694 
z
M 3381 1303 
L 356 1303 
L 356 1828 
L 3381 1828 
L 3381 1303 
z
" id="ArialMT-3d" transform="scale(0.015625)"/>
      <path d="M 416 0 
L 416 3319 
L 922 3319 
L 922 2816 
Q 1116 3169 1280 3281 
Q 1444 3394 1641 3394 
Q 1925 3394 2219 3213 
L 2025 2691 
Q 1819 2813 1613 2813 
Q 1428 2813 1281 2702 
Q 1134 2591 1072 2394 
Q 978 2094 978 1738 
L 978 0 
L 416 0 
z
" id="ArialMT-72" transform="scale(0.015625)"/>
      <path d="M 2597 0 
L 2597 488 
Q 2209 -75 1544 -75 
Q 1250 -75 995 37 
Q 741 150 617 320 
Q 494 491 444 738 
Q 409 903 409 1263 
L 409 3319 
L 972 3319 
L 972 1478 
Q 972 1038 1006 884 
Q 1059 663 1231 536 
Q 1403 409 1656 409 
Q 1909 409 2131 539 
Q 2353 669 2445 892 
Q 2538 1116 2538 1541 
L 2538 3319 
L 3100 3319 
L 3100 0 
L 2597 0 
z
" id="ArialMT-75" transform="scale(0.015625)"/>
      <path d="M 213 1659 
Q 213 2581 725 3025 
Q 1153 3394 1769 3394 
Q 2453 3394 2887 2945 
Q 3322 2497 3322 1706 
Q 3322 1066 3130 698 
Q 2938 331 2570 128 
Q 2203 -75 1769 -75 
Q 1072 -75 642 372 
Q 213 819 213 1659 
z
M 791 1659 
Q 791 1022 1069 705 
Q 1347 388 1769 388 
Q 2188 388 2466 706 
Q 2744 1025 2744 1678 
Q 2744 2294 2464 2611 
Q 2184 2928 1769 2928 
Q 1347 2928 1069 2612 
Q 791 2297 791 1659 
z
" id="ArialMT-6f" transform="scale(0.015625)"/>
     </defs>
     <use xlink:href="#ArialMT-4c"/>
     <use x="55.615234" xlink:href="#ArialMT-61"/>
     <use x="111.230469" xlink:href="#ArialMT-6d"/>
     <use x="194.53125" xlink:href="#ArialMT-62"/>
     <use x="250.146484" xlink:href="#ArialMT-64"/>
     <use x="305.761719" xlink:href="#ArialMT-61"/>
     <use x="361.376953" xlink:href="#ArialMT-20"/>
     <use x="389.160156" xlink:href="#ArialMT-3d"/>
     <use x="447.558594" xlink:href="#ArialMT-20"/>
     <use x="475.341797" xlink:href="#ArialMT-31"/>
     <use x="530.957031" xlink:href="#ArialMT-20"/>
     <use x="558.740234" xlink:href="#ArialMT-44"/>
     <use x="630.957031" xlink:href="#ArialMT-69"/>
     <use x="653.173828" xlink:href="#ArialMT-73"/>
     <use x="703.173828" xlink:href="#ArialMT-74"/>
     <use x="730.957031" xlink:href="#ArialMT-72"/>
     <use x="764.257812" xlink:href="#ArialMT-69"/>
     <use x="786.474609" xlink:href="#ArialMT-62"/>
     <use x="842.089844" xlink:href="#ArialMT-75"/>
     <use x="897.705078" xlink:href="#ArialMT-74"/>
     <use x="925.488281" xlink:href="#ArialMT-69"/>
     <use x="947.705078" xlink:href="#ArialMT-6f"/>
     <use x="1003.320312" xlink:href="#ArialMT-6e"/>
    </g>
   </g>
   <g id="legend_1">
    <g id="patch_64">
     <path d="M 496.153125 43.934687 
L 592.3625 43.934687 
Q 594.3625 43.934687 594.3625 41.934687 
L 594.3625 28.789375 
Q 594.3625 26.789375 592.3625 26.789375 
L 496.153125 26.789375 
Q 494.153125 26.789375 494.153125 28.789375 
L 494.153125 41.934687 
Q 494.153125 43.934687 496.153125 43.934687 
z
" style="fill:#e6e6e6;opacity:0.8;stroke:#cccccc;stroke-linejoin:miter;"/>
    </g>
    <g id="patch_65">
     <path d="M 498.153125 37.947187 
L 518.153125 37.947187 
L 518.153125 30.947187 
L 498.153125 30.947187 
z
" style="fill:#4c72b0;fill-opacity:0.5;stroke:#ffffff;stroke-linejoin:miter;stroke-width:0.889952;"/>
    </g>
    <g id="text_17">
     <!-- mean =  9.281 -->
     <g style="fill:#262626;" transform="translate(526.153125 37.947187)scale(0.1 -0.1)">
      <use xlink:href="#ArialMT-6d"/>
      <use x="83.300781" xlink:href="#ArialMT-65"/>
      <use x="138.916016" xlink:href="#ArialMT-61"/>
      <use x="194.53125" xlink:href="#ArialMT-6e"/>
      <use x="250.146484" xlink:href="#ArialMT-20"/>
      <use x="277.929688" xlink:href="#ArialMT-3d"/>
      <use x="336.328125" xlink:href="#ArialMT-20"/>
      <use x="364.111328" xlink:href="#ArialMT-20"/>
      <use x="391.894531" xlink:href="#ArialMT-39"/>
      <use x="447.509766" xlink:href="#ArialMT-2e"/>
      <use x="475.292969" xlink:href="#ArialMT-32"/>
      <use x="530.908203" xlink:href="#ArialMT-38"/>
      <use x="586.523438" xlink:href="#ArialMT-31"/>
     </g>
    </g>
   </g>
  </g>
 </g>
 <defs>
  <clipPath id="pee488bf367">
   <rect height="380.52" width="558" x="41.3625" y="21.789375"/>
  </clipPath>
 </defs>
</svg>
