<?xml version="1.0" encoding="utf-8" standalone="no"?>
<!DOCTYPE svg PUBLIC "-//W3C//DTD SVG 1.1//EN"
  "http://www.w3.org/Graphics/SVG/1.1/DTD/svg11.dtd">
<svg height="431.675937pt" version="1.1" viewBox="0 0 572.4 431.675937" width="572.4pt" xmlns="http://www.w3.org/2000/svg" xmlns:xlink="http://www.w3.org/1999/xlink">
 <metadata>
  <rdf:RDF xmlns:cc="http://creativecommons.org/ns#" xmlns:dc="http://purl.org/dc/elements/1.1/" xmlns:rdf="http://www.w3.org/1999/02/22-rdf-syntax-ns#">
   <cc:Work>
    <dc:type rdf:resource="http://purl.org/dc/dcmitype/StillImage"/>
    <dc:date>2021-07-27T21:46:57.018564</dc:date>
    <dc:format>image/svg+xml</dc:format>
    <dc:creator>
     <cc:Agent>
      <dc:title>Matplotlib v3.4.2, https://matplotlib.org/</dc:title>
     </cc:Agent>
    </dc:creator>
   </cc:Work>
  </rdf:RDF>
 </metadata>
 <defs>
  <style type="text/css">*{stroke-linecap:butt;stroke-linejoin:round;}</style>
 </defs>
 <g id="figure_1">
  <g id="patch_1">
   <path d="M 0 431.675937 
L 572.4 431.675937 
L 572.4 0 
L 0 0 
z
" style="fill:#ffffff;"/>
  </g>
  <g id="axes_1">
   <g id="patch_2">
    <path d="M 7.2 405.1725 
L 565.2 405.1725 
L 565.2 24.6525 
L 7.2 24.6525 
z
" style="fill:#e6e6e6;"/>
   </g>
   <g id="matplotlib.axis_1">
    <g id="xtick_1">
     <g id="line2d_1">
      <path clip-path="url(#pfc4dd4851f)" d="M 41.619564 405.1725 
L 41.619564 24.6525 
" style="fill:none;stroke:#cccccc;stroke-linecap:round;stroke-width:0.8;"/>
     </g>
     <g id="line2d_2">
      <defs>
       <path d="M 0 0 
L 0 3 
" id="m3c921db666" style="stroke:#808080;"/>
      </defs>
      <g>
       <use style="fill:#808080;stroke:#808080;" x="41.619564" xlink:href="#m3c921db666" y="405.1725"/>
      </g>
     </g>
     <g id="text_1">
      <!-- 1.6 -->
      <g style="fill:#262626;" transform="translate(31.889564 421.693437)scale(0.14 -0.14)">
       <defs>
        <path d="M 2384 0 
L 1822 0 
L 1822 3584 
Q 1619 3391 1289 3197 
Q 959 3003 697 2906 
L 697 3450 
Q 1169 3672 1522 3987 
Q 1875 4303 2022 4600 
L 2384 4600 
L 2384 0 
z
" id="ArialMT-31" transform="scale(0.015625)"/>
        <path d="M 581 0 
L 581 641 
L 1222 641 
L 1222 0 
L 581 0 
z
" id="ArialMT-2e" transform="scale(0.015625)"/>
        <path d="M 3184 3459 
L 2625 3416 
Q 2550 3747 2413 3897 
Q 2184 4138 1850 4138 
Q 1581 4138 1378 3988 
Q 1113 3794 959 3422 
Q 806 3050 800 2363 
Q 1003 2672 1297 2822 
Q 1591 2972 1913 2972 
Q 2475 2972 2870 2558 
Q 3266 2144 3266 1488 
Q 3266 1056 3080 686 
Q 2894 316 2569 119 
Q 2244 -78 1831 -78 
Q 1128 -78 684 439 
Q 241 956 241 2144 
Q 241 3472 731 4075 
Q 1159 4600 1884 4600 
Q 2425 4600 2770 4297 
Q 3116 3994 3184 3459 
z
M 888 1484 
Q 888 1194 1011 928 
Q 1134 663 1356 523 
Q 1578 384 1822 384 
Q 2178 384 2434 671 
Q 2691 959 2691 1453 
Q 2691 1928 2437 2201 
Q 2184 2475 1800 2475 
Q 1419 2475 1153 2201 
Q 888 1928 888 1484 
z
" id="ArialMT-36" transform="scale(0.015625)"/>
       </defs>
       <use xlink:href="#ArialMT-31"/>
       <use x="55.615234" xlink:href="#ArialMT-2e"/>
       <use x="83.398438" xlink:href="#ArialMT-36"/>
      </g>
     </g>
    </g>
    <g id="xtick_2">
     <g id="line2d_3">
      <path clip-path="url(#pfc4dd4851f)" d="M 134.843687 405.1725 
L 134.843687 24.6525 
" style="fill:none;stroke:#cccccc;stroke-linecap:round;stroke-width:0.8;"/>
     </g>
     <g id="line2d_4">
      <g>
       <use style="fill:#808080;stroke:#808080;" x="134.843687" xlink:href="#m3c921db666" y="405.1725"/>
      </g>
     </g>
     <g id="text_2">
      <!-- 1.8 -->
      <g style="fill:#262626;" transform="translate(125.113687 421.693437)scale(0.14 -0.14)">
       <defs>
        <path d="M 1131 2484 
Q 781 2613 612 2850 
Q 444 3088 444 3419 
Q 444 3919 803 4259 
Q 1163 4600 1759 4600 
Q 2359 4600 2725 4251 
Q 3091 3903 3091 3403 
Q 3091 3084 2923 2848 
Q 2756 2613 2416 2484 
Q 2838 2347 3058 2040 
Q 3278 1734 3278 1309 
Q 3278 722 2862 322 
Q 2447 -78 1769 -78 
Q 1091 -78 675 323 
Q 259 725 259 1325 
Q 259 1772 486 2073 
Q 713 2375 1131 2484 
z
M 1019 3438 
Q 1019 3113 1228 2906 
Q 1438 2700 1772 2700 
Q 2097 2700 2305 2904 
Q 2513 3109 2513 3406 
Q 2513 3716 2298 3927 
Q 2084 4138 1766 4138 
Q 1444 4138 1231 3931 
Q 1019 3725 1019 3438 
z
M 838 1322 
Q 838 1081 952 856 
Q 1066 631 1291 507 
Q 1516 384 1775 384 
Q 2178 384 2440 643 
Q 2703 903 2703 1303 
Q 2703 1709 2433 1975 
Q 2163 2241 1756 2241 
Q 1359 2241 1098 1978 
Q 838 1716 838 1322 
z
" id="ArialMT-38" transform="scale(0.015625)"/>
       </defs>
       <use xlink:href="#ArialMT-31"/>
       <use x="55.615234" xlink:href="#ArialMT-2e"/>
       <use x="83.398438" xlink:href="#ArialMT-38"/>
      </g>
     </g>
    </g>
    <g id="xtick_3">
     <g id="line2d_5">
      <path clip-path="url(#pfc4dd4851f)" d="M 228.067811 405.1725 
L 228.067811 24.6525 
" style="fill:none;stroke:#cccccc;stroke-linecap:round;stroke-width:0.8;"/>
     </g>
     <g id="line2d_6">
      <g>
       <use style="fill:#808080;stroke:#808080;" x="228.067811" xlink:href="#m3c921db666" y="405.1725"/>
      </g>
     </g>
     <g id="text_3">
      <!-- 2.0 -->
      <g style="fill:#262626;" transform="translate(218.337811 421.693437)scale(0.14 -0.14)">
       <defs>
        <path d="M 3222 541 
L 3222 0 
L 194 0 
Q 188 203 259 391 
Q 375 700 629 1000 
Q 884 1300 1366 1694 
Q 2113 2306 2375 2664 
Q 2638 3022 2638 3341 
Q 2638 3675 2398 3904 
Q 2159 4134 1775 4134 
Q 1369 4134 1125 3890 
Q 881 3647 878 3216 
L 300 3275 
Q 359 3922 746 4261 
Q 1134 4600 1788 4600 
Q 2447 4600 2831 4234 
Q 3216 3869 3216 3328 
Q 3216 3053 3103 2787 
Q 2991 2522 2730 2228 
Q 2469 1934 1863 1422 
Q 1356 997 1212 845 
Q 1069 694 975 541 
L 3222 541 
z
" id="ArialMT-32" transform="scale(0.015625)"/>
        <path d="M 266 2259 
Q 266 3072 433 3567 
Q 600 4063 929 4331 
Q 1259 4600 1759 4600 
Q 2128 4600 2406 4451 
Q 2684 4303 2865 4023 
Q 3047 3744 3150 3342 
Q 3253 2941 3253 2259 
Q 3253 1453 3087 958 
Q 2922 463 2592 192 
Q 2263 -78 1759 -78 
Q 1097 -78 719 397 
Q 266 969 266 2259 
z
M 844 2259 
Q 844 1131 1108 757 
Q 1372 384 1759 384 
Q 2147 384 2411 759 
Q 2675 1134 2675 2259 
Q 2675 3391 2411 3762 
Q 2147 4134 1753 4134 
Q 1366 4134 1134 3806 
Q 844 3388 844 2259 
z
" id="ArialMT-30" transform="scale(0.015625)"/>
       </defs>
       <use xlink:href="#ArialMT-32"/>
       <use x="55.615234" xlink:href="#ArialMT-2e"/>
       <use x="83.398438" xlink:href="#ArialMT-30"/>
      </g>
     </g>
    </g>
    <g id="xtick_4">
     <g id="line2d_7">
      <path clip-path="url(#pfc4dd4851f)" d="M 321.291934 405.1725 
L 321.291934 24.6525 
" style="fill:none;stroke:#cccccc;stroke-linecap:round;stroke-width:0.8;"/>
     </g>
     <g id="line2d_8">
      <g>
       <use style="fill:#808080;stroke:#808080;" x="321.291934" xlink:href="#m3c921db666" y="405.1725"/>
      </g>
     </g>
     <g id="text_4">
      <!-- 2.2 -->
      <g style="fill:#262626;" transform="translate(311.561934 421.693437)scale(0.14 -0.14)">
       <use xlink:href="#ArialMT-32"/>
       <use x="55.615234" xlink:href="#ArialMT-2e"/>
       <use x="83.398438" xlink:href="#ArialMT-32"/>
      </g>
     </g>
    </g>
    <g id="xtick_5">
     <g id="line2d_9">
      <path clip-path="url(#pfc4dd4851f)" d="M 414.516057 405.1725 
L 414.516057 24.6525 
" style="fill:none;stroke:#cccccc;stroke-linecap:round;stroke-width:0.8;"/>
     </g>
     <g id="line2d_10">
      <g>
       <use style="fill:#808080;stroke:#808080;" x="414.516057" xlink:href="#m3c921db666" y="405.1725"/>
      </g>
     </g>
     <g id="text_5">
      <!-- 2.4 -->
      <g style="fill:#262626;" transform="translate(404.786057 421.693437)scale(0.14 -0.14)">
       <defs>
        <path d="M 2069 0 
L 2069 1097 
L 81 1097 
L 81 1613 
L 2172 4581 
L 2631 4581 
L 2631 1613 
L 3250 1613 
L 3250 1097 
L 2631 1097 
L 2631 0 
L 2069 0 
z
M 2069 1613 
L 2069 3678 
L 634 1613 
L 2069 1613 
z
" id="ArialMT-34" transform="scale(0.015625)"/>
       </defs>
       <use xlink:href="#ArialMT-32"/>
       <use x="55.615234" xlink:href="#ArialMT-2e"/>
       <use x="83.398438" xlink:href="#ArialMT-34"/>
      </g>
     </g>
    </g>
    <g id="xtick_6">
     <g id="line2d_11">
      <path clip-path="url(#pfc4dd4851f)" d="M 507.740181 405.1725 
L 507.740181 24.6525 
" style="fill:none;stroke:#cccccc;stroke-linecap:round;stroke-width:0.8;"/>
     </g>
     <g id="line2d_12">
      <g>
       <use style="fill:#808080;stroke:#808080;" x="507.740181" xlink:href="#m3c921db666" y="405.1725"/>
      </g>
     </g>
     <g id="text_6">
      <!-- 2.6 -->
      <g style="fill:#262626;" transform="translate(498.010181 421.693437)scale(0.14 -0.14)">
       <use xlink:href="#ArialMT-32"/>
       <use x="55.615234" xlink:href="#ArialMT-2e"/>
       <use x="83.398438" xlink:href="#ArialMT-36"/>
      </g>
     </g>
    </g>
   </g>
   <g id="matplotlib.axis_2"/>
   <g id="PolyCollection_1">
    <defs>
     <path d="M 32.563636 -43.799801 
L 32.563636 -44.397839 
L 33.556342 -44.398717 
L 34.549048 -44.396414 
L 35.541754 -44.391196 
L 36.53446 -44.385774 
L 37.527166 -44.38237 
L 38.519872 -44.37909 
L 39.512578 -44.379016 
L 40.505284 -44.381061 
L 41.49799 -44.383552 
L 42.490696 -44.38959 
L 43.483402 -44.399771 
L 44.476107 -44.416508 
L 45.468813 -44.436059 
L 46.461519 -44.463116 
L 47.454225 -44.496196 
L 48.446931 -44.535586 
L 49.439637 -44.58395 
L 50.432343 -44.639684 
L 51.425049 -44.703017 
L 52.417755 -44.77168 
L 53.410461 -44.850057 
L 54.403167 -44.93647 
L 55.395873 -45.026204 
L 56.388579 -45.130384 
L 57.381284 -45.246335 
L 58.37399 -45.367997 
L 59.366696 -45.497229 
L 60.359402 -45.633965 
L 61.352108 -45.787933 
L 62.344814 -45.949524 
L 63.33752 -46.125667 
L 64.330226 -46.322787 
L 65.322932 -46.534175 
L 66.315638 -46.763586 
L 67.308344 -47.00305 
L 68.30105 -47.267565 
L 69.293756 -47.549465 
L 70.286461 -47.853807 
L 71.279167 -48.174437 
L 72.271873 -48.517687 
L 73.264579 -48.886602 
L 74.257285 -49.279911 
L 75.249991 -49.695663 
L 76.242697 -50.126147 
L 77.235403 -50.583414 
L 78.228109 -51.05614 
L 79.220815 -51.549287 
L 80.213521 -52.064649 
L 81.206227 -52.592459 
L 82.198933 -53.139972 
L 83.191638 -53.697353 
L 84.184344 -54.271874 
L 85.17705 -54.853792 
L 86.169756 -55.443124 
L 87.162462 -56.052776 
L 88.155168 -56.66555 
L 89.147874 -57.281444 
L 90.14058 -57.905834 
L 91.133286 -58.53192 
L 92.125992 -59.172546 
L 93.118698 -59.841792 
L 94.111404 -60.502073 
L 95.10411 -61.168174 
L 96.096816 -61.852201 
L 97.089521 -62.535939 
L 98.082227 -63.232174 
L 99.074933 -63.946358 
L 100.067639 -64.668278 
L 101.060345 -65.407216 
L 102.053051 -66.148475 
L 103.045757 -66.928542 
L 104.038463 -67.732694 
L 105.031169 -68.531921 
L 106.023875 -69.361926 
L 107.016581 -70.202684 
L 108.009287 -71.072613 
L 109.001993 -71.955953 
L 109.994698 -72.864952 
L 110.987404 -73.801472 
L 111.98011 -74.757772 
L 112.972816 -75.745645 
L 113.965522 -76.750652 
L 114.958228 -77.780695 
L 115.950934 -78.834171 
L 116.94364 -79.925252 
L 117.936346 -81.035809 
L 118.929052 -82.178624 
L 119.921758 -83.352257 
L 120.914464 -84.549047 
L 121.90717 -85.796617 
L 122.899875 -87.062463 
L 123.892581 -88.368406 
L 124.885287 -89.700757 
L 125.877993 -91.045532 
L 126.870699 -92.420436 
L 127.863405 -93.840712 
L 128.856111 -95.278261 
L 129.848817 -96.731155 
L 130.841523 -98.211143 
L 131.834229 -99.740187 
L 132.826935 -101.288804 
L 133.819641 -102.848682 
L 134.812347 -104.435007 
L 135.805052 -106.056449 
L 136.797758 -107.718173 
L 137.790464 -109.431308 
L 138.78317 -111.169584 
L 139.775876 -112.966358 
L 140.768582 -114.785672 
L 141.761288 -116.648418 
L 142.753994 -118.560704 
L 143.7467 -120.522694 
L 144.739406 -122.560455 
L 145.732112 -124.642411 
L 146.724818 -126.812679 
L 147.717524 -129.035076 
L 148.710229 -131.320091 
L 149.702935 -133.663445 
L 150.695641 -136.056383 
L 151.688347 -138.529145 
L 152.681053 -141.049781 
L 153.673759 -143.608641 
L 154.666465 -146.194533 
L 155.659171 -148.833359 
L 156.651877 -151.482268 
L 157.644583 -154.186234 
L 158.637289 -156.874005 
L 159.629995 -159.573715 
L 160.622701 -162.252297 
L 161.615407 -164.899654 
L 162.608112 -167.588265 
L 163.600818 -170.220468 
L 164.593524 -172.838468 
L 165.58623 -175.421756 
L 166.578936 -177.956383 
L 167.571642 -180.442705 
L 168.564348 -182.922778 
L 169.557054 -185.39878 
L 170.54976 -187.840555 
L 171.542466 -190.225684 
L 172.535172 -192.615763 
L 173.527878 -195.046564 
L 174.520584 -197.473063 
L 175.513289 -199.944389 
L 176.505995 -202.444049 
L 177.498701 -204.990541 
L 178.491407 -207.623529 
L 179.484113 -210.296154 
L 180.476819 -213.082197 
L 181.469525 -215.955963 
L 182.462231 -218.971513 
L 183.454937 -222.100013 
L 184.447643 -225.319798 
L 185.440349 -228.653506 
L 186.433055 -232.102111 
L 187.425761 -235.594191 
L 188.418466 -239.194132 
L 189.411172 -242.85578 
L 190.403878 -246.568819 
L 191.396584 -250.342101 
L 192.38929 -254.12167 
L 193.381996 -257.977499 
L 194.374702 -261.770568 
L 195.367408 -265.549314 
L 196.360114 -269.27295 
L 197.35282 -272.966289 
L 198.345526 -276.58811 
L 199.338232 -280.145818 
L 200.330938 -283.597948 
L 201.323643 -286.987777 
L 202.316349 -290.332478 
L 203.309055 -293.544977 
L 204.301761 -296.724531 
L 205.294467 -299.768718 
L 206.287173 -302.728296 
L 207.279879 -305.660301 
L 208.272585 -308.527283 
L 209.265291 -311.35549 
L 210.257997 -314.081588 
L 211.250703 -316.798556 
L 212.243409 -319.442334 
L 213.236115 -322.011769 
L 214.22882 -324.568503 
L 215.221526 -327.065542 
L 216.214232 -329.546854 
L 217.206938 -331.998869 
L 218.199644 -334.426372 
L 219.19235 -336.836003 
L 220.185056 -339.18257 
L 221.177762 -341.519108 
L 222.170468 -343.835557 
L 223.163174 -346.119511 
L 224.15588 -348.368592 
L 225.148586 -350.596825 
L 226.141292 -352.768034 
L 227.133998 -354.870533 
L 228.126703 -356.939519 
L 229.119409 -358.996371 
L 230.112115 -360.971244 
L 231.104821 -362.828892 
L 232.097527 -364.670587 
L 233.090233 -366.430507 
L 234.082939 -368.083788 
L 235.075645 -369.694554 
L 236.068351 -371.230395 
L 237.061057 -372.622378 
L 238.053763 -373.903061 
L 239.046469 -375.100546 
L 240.039175 -376.244124 
L 241.03188 -377.244249 
L 242.024586 -378.163056 
L 243.017292 -379.006953 
L 244.009998 -379.825911 
L 245.002704 -380.59294 
L 245.99541 -381.34195 
L 246.988116 -382.018903 
L 247.980822 -382.70401 
L 248.973528 -383.367737 
L 249.966234 -384.027836 
L 250.95894 -384.638301 
L 251.951646 -385.279644 
L 252.944352 -385.923278 
L 253.937057 -386.532093 
L 254.929763 -387.137578 
L 255.922469 -387.750918 
L 256.915175 -388.285928 
L 257.907881 -388.787671 
L 258.900587 -389.198495 
L 259.893293 -389.503407 
L 260.885999 -389.707955 
L 261.878705 -389.727074 
L 262.871411 -389.681699 
L 263.864117 -389.503389 
L 264.856823 -389.166334 
L 265.849529 -388.639145 
L 266.842234 -387.953184 
L 267.83494 -387.111763 
L 268.827646 -386.099098 
L 269.820352 -384.943181 
L 270.813058 -383.624302 
L 271.805764 -382.199536 
L 272.79847 -380.65017 
L 273.791176 -379.044109 
L 274.783882 -377.351164 
L 275.776588 -375.553948 
L 276.769294 -373.725049 
L 277.762 -371.912444 
L 278.754706 -370.119863 
L 279.747411 -368.264376 
L 280.740117 -366.4393 
L 281.732823 -364.64082 
L 282.725529 -362.825185 
L 283.718235 -361.064261 
L 284.710941 -359.31736 
L 285.703647 -357.58693 
L 286.696353 -355.857141 
L 287.689059 -354.130645 
L 288.681765 -352.398146 
L 289.674471 -350.671517 
L 290.667177 -348.897744 
L 291.659883 -347.114087 
L 292.652589 -345.262121 
L 293.645294 -343.372381 
L 294.638 -341.408539 
L 295.630706 -339.410388 
L 296.623412 -337.344234 
L 297.616118 -335.151219 
L 298.608824 -332.875053 
L 299.60153 -330.564849 
L 300.594236 -328.139431 
L 301.586942 -325.637322 
L 302.579648 -323.100788 
L 303.572354 -320.457223 
L 304.56506 -317.729476 
L 305.557766 -314.966598 
L 306.550471 -312.130577 
L 307.543177 -309.257058 
L 308.535883 -306.315913 
L 309.528589 -303.341254 
L 310.521295 -300.304934 
L 311.514001 -297.230836 
L 312.506707 -294.082238 
L 313.499413 -290.887731 
L 314.492119 -287.646427 
L 315.484825 -284.413868 
L 316.477531 -281.141621 
L 317.470237 -277.811548 
L 318.462943 -274.479606 
L 319.455648 -271.142664 
L 320.448354 -267.763919 
L 321.44106 -264.393463 
L 322.433766 -261.010253 
L 323.426472 -257.609191 
L 324.419178 -254.221983 
L 325.411884 -250.868536 
L 326.40459 -247.508663 
L 327.397296 -244.18753 
L 328.390002 -240.909101 
L 329.382708 -237.700855 
L 330.375414 -234.523937 
L 331.36812 -231.414501 
L 332.360825 -228.327254 
L 333.353531 -225.293522 
L 334.346237 -222.362358 
L 335.338943 -219.500035 
L 336.331649 -216.68505 
L 337.324355 -213.966867 
L 338.317061 -211.301246 
L 339.309767 -208.722305 
L 340.302473 -206.214971 
L 341.295179 -203.721938 
L 342.287885 -201.303215 
L 343.280591 -198.931152 
L 344.273297 -196.631483 
L 345.266002 -194.351411 
L 346.258708 -192.105031 
L 347.251414 -189.901092 
L 348.24412 -187.762628 
L 349.236826 -185.659115 
L 350.229532 -183.57475 
L 351.222238 -181.52676 
L 352.214944 -179.477233 
L 353.20765 -177.455376 
L 354.200356 -175.469068 
L 355.193062 -173.511607 
L 356.185768 -171.570502 
L 357.178474 -169.660109 
L 358.17118 -167.751129 
L 359.163885 -165.873692 
L 360.156591 -164.000967 
L 361.149297 -162.127256 
L 362.142003 -160.271093 
L 363.134709 -158.416563 
L 364.127415 -156.569085 
L 365.120121 -154.677131 
L 366.112827 -152.794424 
L 367.105533 -150.919341 
L 368.098239 -148.976309 
L 369.090945 -147.031507 
L 370.083651 -145.03999 
L 371.076357 -143.008026 
L 372.069062 -140.945556 
L 373.061768 -138.852997 
L 374.054474 -136.710969 
L 375.04718 -134.542853 
L 376.039886 -132.336331 
L 377.032592 -130.084603 
L 378.025298 -127.815481 
L 379.018004 -125.514561 
L 380.01071 -123.19064 
L 381.003416 -120.85775 
L 381.996122 -118.544212 
L 382.988828 -116.245415 
L 383.981534 -113.929942 
L 384.974239 -111.650234 
L 385.966945 -109.421397 
L 386.959651 -107.225001 
L 387.952357 -105.090923 
L 388.945063 -103.011946 
L 389.937769 -101.007023 
L 390.930475 -99.078742 
L 391.923181 -97.224784 
L 392.915887 -95.450326 
L 393.908593 -93.745164 
L 394.901299 -92.138207 
L 395.894005 -90.613681 
L 396.886711 -89.180678 
L 397.879416 -87.805612 
L 398.872122 -86.532949 
L 399.864828 -85.329011 
L 400.857534 -84.21384 
L 401.85024 -83.185538 
L 402.842946 -82.208478 
L 403.835652 -81.293082 
L 404.828358 -80.444286 
L 405.821064 -79.648467 
L 406.81377 -78.899648 
L 407.806476 -78.19144 
L 408.799182 -77.536211 
L 409.791888 -76.919273 
L 410.784593 -76.326128 
L 411.777299 -75.761196 
L 412.770005 -75.203866 
L 413.762711 -74.670801 
L 414.755417 -74.123859 
L 415.748123 -73.596384 
L 416.740829 -73.053259 
L 417.733535 -72.501185 
L 418.726241 -71.938779 
L 419.718947 -71.356164 
L 420.711653 -70.74892 
L 421.704359 -70.127407 
L 422.697065 -69.476068 
L 423.689771 -68.811463 
L 424.682476 -68.118298 
L 425.675182 -67.407174 
L 426.667888 -66.661154 
L 427.660594 -65.916952 
L 428.6533 -65.151697 
L 429.646006 -64.390742 
L 430.638712 -63.619626 
L 431.631418 -62.859477 
L 432.624124 -62.099779 
L 433.61683 -61.352263 
L 434.609536 -60.623352 
L 435.602242 -59.910427 
L 436.594948 -59.22544 
L 437.587653 -58.557537 
L 438.580359 -57.920491 
L 439.573065 -57.320075 
L 440.565771 -56.74561 
L 441.558477 -56.207131 
L 442.551183 -55.703969 
L 443.543889 -55.217942 
L 444.536595 -54.756323 
L 445.529301 -54.323553 
L 446.522007 -53.915618 
L 447.514713 -53.521224 
L 448.507419 -53.144287 
L 449.500125 -52.774673 
L 450.49283 -52.419403 
L 451.485536 -52.070466 
L 452.478242 -51.742929 
L 453.470948 -51.417769 
L 454.463654 -51.09517 
L 455.45636 -50.774694 
L 456.449066 -50.46335 
L 457.441772 -50.164272 
L 458.434478 -49.871199 
L 459.427184 -49.594673 
L 460.41989 -49.326042 
L 461.412596 -49.062743 
L 462.405302 -48.808644 
L 463.398007 -48.572388 
L 464.390713 -48.343655 
L 465.383419 -48.129593 
L 466.376125 -47.93174 
L 467.368831 -47.74979 
L 468.361537 -47.577839 
L 469.354243 -47.412062 
L 470.346949 -47.262904 
L 471.339655 -47.122999 
L 472.332361 -46.997145 
L 473.325067 -46.877885 
L 474.317773 -46.763668 
L 475.310479 -46.662024 
L 476.303184 -46.568475 
L 477.29589 -46.478041 
L 478.288596 -46.394328 
L 479.281302 -46.312477 
L 480.274008 -46.236265 
L 481.266714 -46.161034 
L 482.25942 -46.087637 
L 483.252126 -46.018215 
L 484.244832 -45.950134 
L 485.237538 -45.885685 
L 486.230244 -45.828542 
L 487.22295 -45.774045 
L 488.215656 -45.722472 
L 489.208362 -45.675937 
L 490.201067 -45.630422 
L 491.193773 -45.588483 
L 492.186479 -45.550116 
L 493.179185 -45.517083 
L 494.171891 -45.484959 
L 495.164597 -45.457736 
L 496.157303 -45.432624 
L 497.150009 -45.409191 
L 498.142715 -45.386913 
L 499.135421 -45.363328 
L 500.128127 -45.338269 
L 501.120833 -45.317065 
L 502.113539 -45.292348 
L 503.106244 -45.267808 
L 504.09895 -45.240536 
L 505.091656 -45.210171 
L 506.084362 -45.177043 
L 507.077068 -45.143493 
L 508.069774 -45.10475 
L 509.06248 -45.062845 
L 510.055186 -45.018053 
L 511.047892 -44.970759 
L 512.040598 -44.921442 
L 513.033304 -44.866922 
L 514.02601 -44.814371 
L 515.018716 -44.761904 
L 516.011421 -44.712019 
L 517.004127 -44.663024 
L 517.996833 -44.615662 
L 518.989539 -44.570626 
L 519.982245 -44.528539 
L 520.974951 -44.488068 
L 521.967657 -44.453864 
L 522.960363 -44.423812 
L 523.953069 -44.396282 
L 524.945775 -44.375597 
L 525.938481 -44.359296 
L 526.931187 -44.347262 
L 527.923893 -44.339255 
L 528.916598 -44.334917 
L 529.909304 -44.333787 
L 530.90201 -44.337791 
L 531.894716 -44.342134 
L 532.887422 -44.348059 
L 533.880128 -44.354919 
L 534.872834 -44.36207 
L 535.86554 -44.367025 
L 536.858246 -44.371553 
L 537.850952 -44.376921 
L 538.843658 -44.380895 
L 539.836364 -44.383236 
L 539.836364 -43.799801 
L 539.836364 -43.799801 
L 538.843658 -43.799801 
L 537.850952 -43.799801 
L 536.858246 -43.799801 
L 535.86554 -43.799801 
L 534.872834 -43.799801 
L 533.880128 -43.799801 
L 532.887422 -43.799801 
L 531.894716 -43.799801 
L 530.90201 -43.799801 
L 529.909304 -43.799801 
L 528.916598 -43.799801 
L 527.923893 -43.799801 
L 526.931187 -43.799801 
L 525.938481 -43.799801 
L 524.945775 -43.799801 
L 523.953069 -43.799801 
L 522.960363 -43.799801 
L 521.967657 -43.799801 
L 520.974951 -43.799801 
L 519.982245 -43.799801 
L 518.989539 -43.799801 
L 517.996833 -43.799801 
L 517.004127 -43.799801 
L 516.011421 -43.799801 
L 515.018716 -43.799801 
L 514.02601 -43.799801 
L 513.033304 -43.799801 
L 512.040598 -43.799801 
L 511.047892 -43.799801 
L 510.055186 -43.799801 
L 509.06248 -43.799801 
L 508.069774 -43.799801 
L 507.077068 -43.799801 
L 506.084362 -43.799801 
L 505.091656 -43.799801 
L 504.09895 -43.799801 
L 503.106244 -43.799801 
L 502.113539 -43.799801 
L 501.120833 -43.799801 
L 500.128127 -43.799801 
L 499.135421 -43.799801 
L 498.142715 -43.799801 
L 497.150009 -43.799801 
L 496.157303 -43.799801 
L 495.164597 -43.799801 
L 494.171891 -43.799801 
L 493.179185 -43.799801 
L 492.186479 -43.799801 
L 491.193773 -43.799801 
L 490.201067 -43.799801 
L 489.208362 -43.799801 
L 488.215656 -43.799801 
L 487.22295 -43.799801 
L 486.230244 -43.799801 
L 485.237538 -43.799801 
L 484.244832 -43.799801 
L 483.252126 -43.799801 
L 482.25942 -43.799801 
L 481.266714 -43.799801 
L 480.274008 -43.799801 
L 479.281302 -43.799801 
L 478.288596 -43.799801 
L 477.29589 -43.799801 
L 476.303184 -43.799801 
L 475.310479 -43.799801 
L 474.317773 -43.799801 
L 473.325067 -43.799801 
L 472.332361 -43.799801 
L 471.339655 -43.799801 
L 470.346949 -43.799801 
L 469.354243 -43.799801 
L 468.361537 -43.799801 
L 467.368831 -43.799801 
L 466.376125 -43.799801 
L 465.383419 -43.799801 
L 464.390713 -43.799801 
L 463.398007 -43.799801 
L 462.405302 -43.799801 
L 461.412596 -43.799801 
L 460.41989 -43.799801 
L 459.427184 -43.799801 
L 458.434478 -43.799801 
L 457.441772 -43.799801 
L 456.449066 -43.799801 
L 455.45636 -43.799801 
L 454.463654 -43.799801 
L 453.470948 -43.799801 
L 452.478242 -43.799801 
L 451.485536 -43.799801 
L 450.49283 -43.799801 
L 449.500125 -43.799801 
L 448.507419 -43.799801 
L 447.514713 -43.799801 
L 446.522007 -43.799801 
L 445.529301 -43.799801 
L 444.536595 -43.799801 
L 443.543889 -43.799801 
L 442.551183 -43.799801 
L 441.558477 -43.799801 
L 440.565771 -43.799801 
L 439.573065 -43.799801 
L 438.580359 -43.799801 
L 437.587653 -43.799801 
L 436.594948 -43.799801 
L 435.602242 -43.799801 
L 434.609536 -43.799801 
L 433.61683 -43.799801 
L 432.624124 -43.799801 
L 431.631418 -43.799801 
L 430.638712 -43.799801 
L 429.646006 -43.799801 
L 428.6533 -43.799801 
L 427.660594 -43.799801 
L 426.667888 -43.799801 
L 425.675182 -43.799801 
L 424.682476 -43.799801 
L 423.689771 -43.799801 
L 422.697065 -43.799801 
L 421.704359 -43.799801 
L 420.711653 -43.799801 
L 419.718947 -43.799801 
L 418.726241 -43.799801 
L 417.733535 -43.799801 
L 416.740829 -43.799801 
L 415.748123 -43.799801 
L 414.755417 -43.799801 
L 413.762711 -43.799801 
L 412.770005 -43.799801 
L 411.777299 -43.799801 
L 410.784593 -43.799801 
L 409.791888 -43.799801 
L 408.799182 -43.799801 
L 407.806476 -43.799801 
L 406.81377 -43.799801 
L 405.821064 -43.799801 
L 404.828358 -43.799801 
L 403.835652 -43.799801 
L 402.842946 -43.799801 
L 401.85024 -43.799801 
L 400.857534 -43.799801 
L 399.864828 -43.799801 
L 398.872122 -43.799801 
L 397.879416 -43.799801 
L 396.886711 -43.799801 
L 395.894005 -43.799801 
L 394.901299 -43.799801 
L 393.908593 -43.799801 
L 392.915887 -43.799801 
L 391.923181 -43.799801 
L 390.930475 -43.799801 
L 389.937769 -43.799801 
L 388.945063 -43.799801 
L 387.952357 -43.799801 
L 386.959651 -43.799801 
L 385.966945 -43.799801 
L 384.974239 -43.799801 
L 383.981534 -43.799801 
L 382.988828 -43.799801 
L 381.996122 -43.799801 
L 381.003416 -43.799801 
L 380.01071 -43.799801 
L 379.018004 -43.799801 
L 378.025298 -43.799801 
L 377.032592 -43.799801 
L 376.039886 -43.799801 
L 375.04718 -43.799801 
L 374.054474 -43.799801 
L 373.061768 -43.799801 
L 372.069062 -43.799801 
L 371.076357 -43.799801 
L 370.083651 -43.799801 
L 369.090945 -43.799801 
L 368.098239 -43.799801 
L 367.105533 -43.799801 
L 366.112827 -43.799801 
L 365.120121 -43.799801 
L 364.127415 -43.799801 
L 363.134709 -43.799801 
L 362.142003 -43.799801 
L 361.149297 -43.799801 
L 360.156591 -43.799801 
L 359.163885 -43.799801 
L 358.17118 -43.799801 
L 357.178474 -43.799801 
L 356.185768 -43.799801 
L 355.193062 -43.799801 
L 354.200356 -43.799801 
L 353.20765 -43.799801 
L 352.214944 -43.799801 
L 351.222238 -43.799801 
L 350.229532 -43.799801 
L 349.236826 -43.799801 
L 348.24412 -43.799801 
L 347.251414 -43.799801 
L 346.258708 -43.799801 
L 345.266002 -43.799801 
L 344.273297 -43.799801 
L 343.280591 -43.799801 
L 342.287885 -43.799801 
L 341.295179 -43.799801 
L 340.302473 -43.799801 
L 339.309767 -43.799801 
L 338.317061 -43.799801 
L 337.324355 -43.799801 
L 336.331649 -43.799801 
L 335.338943 -43.799801 
L 334.346237 -43.799801 
L 333.353531 -43.799801 
L 332.360825 -43.799801 
L 331.36812 -43.799801 
L 330.375414 -43.799801 
L 329.382708 -43.799801 
L 328.390002 -43.799801 
L 327.397296 -43.799801 
L 326.40459 -43.799801 
L 325.411884 -43.799801 
L 324.419178 -43.799801 
L 323.426472 -43.799801 
L 322.433766 -43.799801 
L 321.44106 -43.799801 
L 320.448354 -43.799801 
L 319.455648 -43.799801 
L 318.462943 -43.799801 
L 317.470237 -43.799801 
L 316.477531 -43.799801 
L 315.484825 -43.799801 
L 314.492119 -43.799801 
L 313.499413 -43.799801 
L 312.506707 -43.799801 
L 311.514001 -43.799801 
L 310.521295 -43.799801 
L 309.528589 -43.799801 
L 308.535883 -43.799801 
L 307.543177 -43.799801 
L 306.550471 -43.799801 
L 305.557766 -43.799801 
L 304.56506 -43.799801 
L 303.572354 -43.799801 
L 302.579648 -43.799801 
L 301.586942 -43.799801 
L 300.594236 -43.799801 
L 299.60153 -43.799801 
L 298.608824 -43.799801 
L 297.616118 -43.799801 
L 296.623412 -43.799801 
L 295.630706 -43.799801 
L 294.638 -43.799801 
L 293.645294 -43.799801 
L 292.652589 -43.799801 
L 291.659883 -43.799801 
L 290.667177 -43.799801 
L 289.674471 -43.799801 
L 288.681765 -43.799801 
L 287.689059 -43.799801 
L 286.696353 -43.799801 
L 285.703647 -43.799801 
L 284.710941 -43.799801 
L 283.718235 -43.799801 
L 282.725529 -43.799801 
L 281.732823 -43.799801 
L 280.740117 -43.799801 
L 279.747411 -43.799801 
L 278.754706 -43.799801 
L 277.762 -43.799801 
L 276.769294 -43.799801 
L 275.776588 -43.799801 
L 274.783882 -43.799801 
L 273.791176 -43.799801 
L 272.79847 -43.799801 
L 271.805764 -43.799801 
L 270.813058 -43.799801 
L 269.820352 -43.799801 
L 268.827646 -43.799801 
L 267.83494 -43.799801 
L 266.842234 -43.799801 
L 265.849529 -43.799801 
L 264.856823 -43.799801 
L 263.864117 -43.799801 
L 262.871411 -43.799801 
L 261.878705 -43.799801 
L 260.885999 -43.799801 
L 259.893293 -43.799801 
L 258.900587 -43.799801 
L 257.907881 -43.799801 
L 256.915175 -43.799801 
L 255.922469 -43.799801 
L 254.929763 -43.799801 
L 253.937057 -43.799801 
L 252.944352 -43.799801 
L 251.951646 -43.799801 
L 250.95894 -43.799801 
L 249.966234 -43.799801 
L 248.973528 -43.799801 
L 247.980822 -43.799801 
L 246.988116 -43.799801 
L 245.99541 -43.799801 
L 245.002704 -43.799801 
L 244.009998 -43.799801 
L 243.017292 -43.799801 
L 242.024586 -43.799801 
L 241.03188 -43.799801 
L 240.039175 -43.799801 
L 239.046469 -43.799801 
L 238.053763 -43.799801 
L 237.061057 -43.799801 
L 236.068351 -43.799801 
L 235.075645 -43.799801 
L 234.082939 -43.799801 
L 233.090233 -43.799801 
L 232.097527 -43.799801 
L 231.104821 -43.799801 
L 230.112115 -43.799801 
L 229.119409 -43.799801 
L 228.126703 -43.799801 
L 227.133998 -43.799801 
L 226.141292 -43.799801 
L 225.148586 -43.799801 
L 224.15588 -43.799801 
L 223.163174 -43.799801 
L 222.170468 -43.799801 
L 221.177762 -43.799801 
L 220.185056 -43.799801 
L 219.19235 -43.799801 
L 218.199644 -43.799801 
L 217.206938 -43.799801 
L 216.214232 -43.799801 
L 215.221526 -43.799801 
L 214.22882 -43.799801 
L 213.236115 -43.799801 
L 212.243409 -43.799801 
L 211.250703 -43.799801 
L 210.257997 -43.799801 
L 209.265291 -43.799801 
L 208.272585 -43.799801 
L 207.279879 -43.799801 
L 206.287173 -43.799801 
L 205.294467 -43.799801 
L 204.301761 -43.799801 
L 203.309055 -43.799801 
L 202.316349 -43.799801 
L 201.323643 -43.799801 
L 200.330938 -43.799801 
L 199.338232 -43.799801 
L 198.345526 -43.799801 
L 197.35282 -43.799801 
L 196.360114 -43.799801 
L 195.367408 -43.799801 
L 194.374702 -43.799801 
L 193.381996 -43.799801 
L 192.38929 -43.799801 
L 191.396584 -43.799801 
L 190.403878 -43.799801 
L 189.411172 -43.799801 
L 188.418466 -43.799801 
L 187.425761 -43.799801 
L 186.433055 -43.799801 
L 185.440349 -43.799801 
L 184.447643 -43.799801 
L 183.454937 -43.799801 
L 182.462231 -43.799801 
L 181.469525 -43.799801 
L 180.476819 -43.799801 
L 179.484113 -43.799801 
L 178.491407 -43.799801 
L 177.498701 -43.799801 
L 176.505995 -43.799801 
L 175.513289 -43.799801 
L 174.520584 -43.799801 
L 173.527878 -43.799801 
L 172.535172 -43.799801 
L 171.542466 -43.799801 
L 170.54976 -43.799801 
L 169.557054 -43.799801 
L 168.564348 -43.799801 
L 167.571642 -43.799801 
L 166.578936 -43.799801 
L 165.58623 -43.799801 
L 164.593524 -43.799801 
L 163.600818 -43.799801 
L 162.608112 -43.799801 
L 161.615407 -43.799801 
L 160.622701 -43.799801 
L 159.629995 -43.799801 
L 158.637289 -43.799801 
L 157.644583 -43.799801 
L 156.651877 -43.799801 
L 155.659171 -43.799801 
L 154.666465 -43.799801 
L 153.673759 -43.799801 
L 152.681053 -43.799801 
L 151.688347 -43.799801 
L 150.695641 -43.799801 
L 149.702935 -43.799801 
L 148.710229 -43.799801 
L 147.717524 -43.799801 
L 146.724818 -43.799801 
L 145.732112 -43.799801 
L 144.739406 -43.799801 
L 143.7467 -43.799801 
L 142.753994 -43.799801 
L 141.761288 -43.799801 
L 140.768582 -43.799801 
L 139.775876 -43.799801 
L 138.78317 -43.799801 
L 137.790464 -43.799801 
L 136.797758 -43.799801 
L 135.805052 -43.799801 
L 134.812347 -43.799801 
L 133.819641 -43.799801 
L 132.826935 -43.799801 
L 131.834229 -43.799801 
L 130.841523 -43.799801 
L 129.848817 -43.799801 
L 128.856111 -43.799801 
L 127.863405 -43.799801 
L 126.870699 -43.799801 
L 125.877993 -43.799801 
L 124.885287 -43.799801 
L 123.892581 -43.799801 
L 122.899875 -43.799801 
L 121.90717 -43.799801 
L 120.914464 -43.799801 
L 119.921758 -43.799801 
L 118.929052 -43.799801 
L 117.936346 -43.799801 
L 116.94364 -43.799801 
L 115.950934 -43.799801 
L 114.958228 -43.799801 
L 113.965522 -43.799801 
L 112.972816 -43.799801 
L 111.98011 -43.799801 
L 110.987404 -43.799801 
L 109.994698 -43.799801 
L 109.001993 -43.799801 
L 108.009287 -43.799801 
L 107.016581 -43.799801 
L 106.023875 -43.799801 
L 105.031169 -43.799801 
L 104.038463 -43.799801 
L 103.045757 -43.799801 
L 102.053051 -43.799801 
L 101.060345 -43.799801 
L 100.067639 -43.799801 
L 99.074933 -43.799801 
L 98.082227 -43.799801 
L 97.089521 -43.799801 
L 96.096816 -43.799801 
L 95.10411 -43.799801 
L 94.111404 -43.799801 
L 93.118698 -43.799801 
L 92.125992 -43.799801 
L 91.133286 -43.799801 
L 90.14058 -43.799801 
L 89.147874 -43.799801 
L 88.155168 -43.799801 
L 87.162462 -43.799801 
L 86.169756 -43.799801 
L 85.17705 -43.799801 
L 84.184344 -43.799801 
L 83.191638 -43.799801 
L 82.198933 -43.799801 
L 81.206227 -43.799801 
L 80.213521 -43.799801 
L 79.220815 -43.799801 
L 78.228109 -43.799801 
L 77.235403 -43.799801 
L 76.242697 -43.799801 
L 75.249991 -43.799801 
L 74.257285 -43.799801 
L 73.264579 -43.799801 
L 72.271873 -43.799801 
L 71.279167 -43.799801 
L 70.286461 -43.799801 
L 69.293756 -43.799801 
L 68.30105 -43.799801 
L 67.308344 -43.799801 
L 66.315638 -43.799801 
L 65.322932 -43.799801 
L 64.330226 -43.799801 
L 63.33752 -43.799801 
L 62.344814 -43.799801 
L 61.352108 -43.799801 
L 60.359402 -43.799801 
L 59.366696 -43.799801 
L 58.37399 -43.799801 
L 57.381284 -43.799801 
L 56.388579 -43.799801 
L 55.395873 -43.799801 
L 54.403167 -43.799801 
L 53.410461 -43.799801 
L 52.417755 -43.799801 
L 51.425049 -43.799801 
L 50.432343 -43.799801 
L 49.439637 -43.799801 
L 48.446931 -43.799801 
L 47.454225 -43.799801 
L 46.461519 -43.799801 
L 45.468813 -43.799801 
L 44.476107 -43.799801 
L 43.483402 -43.799801 
L 42.490696 -43.799801 
L 41.49799 -43.799801 
L 40.505284 -43.799801 
L 39.512578 -43.799801 
L 38.519872 -43.799801 
L 37.527166 -43.799801 
L 36.53446 -43.799801 
L 35.541754 -43.799801 
L 34.549048 -43.799801 
L 33.556342 -43.799801 
L 32.563636 -43.799801 
z
" id="ma94fd36e7d" style="stroke:#4c72b0;stroke-opacity:0;"/>
    </defs>
    <g clip-path="url(#pfc4dd4851f)">
     <use style="fill:#4c72b0;fill-opacity:0;stroke:#4c72b0;stroke-opacity:0;" x="0" xlink:href="#ma94fd36e7d" y="431.675937"/>
    </g>
   </g>
   <g id="line2d_13">
    <path clip-path="url(#pfc4dd4851f)" d="M 32.563636 387.278098 
L 47.454225 387.179741 
L 52.417755 386.904257 
L 57.381284 386.429602 
L 62.344814 385.726413 
L 66.315638 384.912352 
L 69.293756 384.126473 
L 72.271873 383.15825 
L 75.249991 381.980275 
L 78.228109 380.619798 
L 82.198933 378.535966 
L 87.162462 375.623161 
L 93.118698 371.834145 
L 98.082227 368.443764 
L 103.045757 364.747396 
L 108.009287 360.603324 
L 110.987404 357.874465 
L 114.958228 353.895242 
L 117.936346 350.640128 
L 120.914464 347.126891 
L 124.885287 341.97518 
L 127.863405 337.835225 
L 131.834229 331.935751 
L 135.805052 325.619488 
L 138.78317 320.506353 
L 142.753994 313.115234 
L 145.732112 307.033527 
L 148.710229 300.355847 
L 151.688347 293.146793 
L 155.659171 282.842579 
L 167.571642 251.233233 
L 173.527878 236.629374 
L 177.498701 226.685396 
L 180.476819 218.59374 
L 182.462231 212.704425 
L 185.440349 203.022432 
L 188.418466 192.481806 
L 192.38929 177.554267 
L 197.35282 158.709649 
L 200.330938 148.07799 
L 203.309055 138.130961 
L 206.287173 128.947641 
L 209.265291 120.320448 
L 213.236115 109.664168 
L 217.206938 99.677069 
L 221.177762 90.156829 
L 225.148586 81.079112 
L 228.126703 74.736419 
L 230.112115 70.704694 
L 233.090233 65.245431 
L 236.068351 60.445543 
L 238.053763 57.772876 
L 240.039175 55.431814 
L 242.024586 53.512881 
L 245.002704 51.082998 
L 247.980822 48.971927 
L 252.944352 45.75266 
L 256.915175 43.390009 
L 258.900587 42.477443 
L 260.885999 41.967982 
L 262.871411 41.994238 
L 263.864117 42.172548 
L 264.856823 42.509604 
L 265.849529 43.036792 
L 266.842234 43.722753 
L 267.83494 44.564175 
L 269.820352 46.732757 
L 271.805764 49.476401 
L 274.783882 54.324774 
L 288.681765 79.277792 
L 291.659883 84.561851 
L 294.638 90.267399 
L 296.623412 94.331703 
L 299.60153 101.111089 
L 302.579648 108.575149 
L 305.557766 116.709339 
L 309.528589 128.334683 
L 313.499413 140.788207 
L 319.455648 160.533274 
L 329.382708 193.975083 
L 333.353531 206.382416 
L 336.331649 214.990888 
L 339.309767 222.953632 
L 343.280591 232.744786 
L 347.251414 241.774845 
L 351.222238 250.149177 
L 355.193062 258.164331 
L 360.156591 267.67497 
L 370.083651 286.635947 
L 374.054474 294.964969 
L 378.025298 303.860456 
L 386.959651 324.450937 
L 389.937769 330.668915 
L 392.915887 336.225611 
L 394.901299 339.53773 
L 396.886711 342.495259 
L 398.872122 345.142988 
L 400.857534 347.462097 
L 402.842946 349.467459 
L 404.828358 351.231651 
L 407.806476 353.484497 
L 410.784593 355.34981 
L 416.740829 358.622679 
L 420.711653 360.927018 
L 423.689771 362.864474 
L 427.660594 365.758985 
L 435.602242 371.76551 
L 438.580359 373.755446 
L 441.558477 375.468807 
L 444.536595 376.919614 
L 448.507419 378.53165 
L 452.478242 379.933009 
L 458.434478 381.804739 
L 463.398007 383.103549 
L 467.368831 383.926148 
L 472.332361 384.678793 
L 477.29589 385.197897 
L 486.230244 385.847395 
L 494.171891 386.190978 
L 513.033304 386.809016 
L 523.953069 387.279655 
L 530.90201 387.338147 
L 539.836364 387.292702 
L 539.836364 387.292702 
" style="fill:none;stroke:#4c72b0;stroke-linecap:round;stroke-width:1.5;"/>
   </g>
   <g id="line2d_14">
    <path clip-path="url(#pfc4dd4851f)" d="M 136.560497 380.611664 
L 388.112497 380.611664 
" style="fill:none;stroke:#000000;stroke-width:3;"/>
   </g>
   <g id="patch_3">
    <path d="M 7.2 405.1725 
L 565.2 405.1725 
" style="fill:none;stroke:#808080;stroke-linecap:square;stroke-linejoin:miter;stroke-width:0.8;"/>
   </g>
   <g id="text_7">
    <!-- 1.8  -->
    <g style="fill:#262626;" transform="translate(111.54331 362.450482)scale(0.15 -0.15)">
     <defs>
      <path id="ArialMT-20" transform="scale(0.015625)"/>
     </defs>
     <use xlink:href="#ArialMT-31"/>
     <use x="55.615234" xlink:href="#ArialMT-2e"/>
     <use x="83.398438" xlink:href="#ArialMT-38"/>
     <use x="139.013672" xlink:href="#ArialMT-20"/>
    </g>
   </g>
   <g id="text_8">
    <!--  2.3 -->
    <g style="fill:#262626;" transform="translate(388.112497 362.450482)scale(0.15 -0.15)">
     <defs>
      <path d="M 269 1209 
L 831 1284 
Q 928 806 1161 595 
Q 1394 384 1728 384 
Q 2125 384 2398 659 
Q 2672 934 2672 1341 
Q 2672 1728 2419 1979 
Q 2166 2231 1775 2231 
Q 1616 2231 1378 2169 
L 1441 2663 
Q 1497 2656 1531 2656 
Q 1891 2656 2178 2843 
Q 2466 3031 2466 3422 
Q 2466 3731 2256 3934 
Q 2047 4138 1716 4138 
Q 1388 4138 1169 3931 
Q 950 3725 888 3313 
L 325 3413 
Q 428 3978 793 4289 
Q 1159 4600 1703 4600 
Q 2078 4600 2393 4439 
Q 2709 4278 2876 4000 
Q 3044 3722 3044 3409 
Q 3044 3113 2884 2869 
Q 2725 2625 2413 2481 
Q 2819 2388 3044 2092 
Q 3269 1797 3269 1353 
Q 3269 753 2831 336 
Q 2394 -81 1725 -81 
Q 1122 -81 723 278 
Q 325 638 269 1209 
z
" id="ArialMT-33" transform="scale(0.015625)"/>
     </defs>
     <use xlink:href="#ArialMT-20"/>
     <use x="27.783203" xlink:href="#ArialMT-32"/>
     <use x="83.398438" xlink:href="#ArialMT-2e"/>
     <use x="111.181641" xlink:href="#ArialMT-33"/>
    </g>
   </g>
   <g id="text_9">
    <!-- 94% HDI -->
    <g style="fill:#262626;" transform="translate(232.32595 278.909045)scale(0.15 -0.15)">
     <defs>
      <path d="M 350 1059 
L 891 1109 
Q 959 728 1153 556 
Q 1347 384 1650 384 
Q 1909 384 2104 503 
Q 2300 622 2425 820 
Q 2550 1019 2634 1356 
Q 2719 1694 2719 2044 
Q 2719 2081 2716 2156 
Q 2547 1888 2255 1720 
Q 1963 1553 1622 1553 
Q 1053 1553 659 1965 
Q 266 2378 266 3053 
Q 266 3750 677 4175 
Q 1088 4600 1706 4600 
Q 2153 4600 2523 4359 
Q 2894 4119 3086 3673 
Q 3278 3228 3278 2384 
Q 3278 1506 3087 986 
Q 2897 466 2520 194 
Q 2144 -78 1638 -78 
Q 1100 -78 759 220 
Q 419 519 350 1059 
z
M 2653 3081 
Q 2653 3566 2395 3850 
Q 2138 4134 1775 4134 
Q 1400 4134 1122 3828 
Q 844 3522 844 3034 
Q 844 2597 1108 2323 
Q 1372 2050 1759 2050 
Q 2150 2050 2401 2323 
Q 2653 2597 2653 3081 
z
" id="ArialMT-39" transform="scale(0.015625)"/>
      <path d="M 372 3481 
Q 372 3972 619 4315 
Q 866 4659 1334 4659 
Q 1766 4659 2048 4351 
Q 2331 4044 2331 3447 
Q 2331 2866 2045 2552 
Q 1759 2238 1341 2238 
Q 925 2238 648 2547 
Q 372 2856 372 3481 
z
M 1350 4272 
Q 1141 4272 1002 4090 
Q 863 3909 863 3425 
Q 863 2984 1003 2804 
Q 1144 2625 1350 2625 
Q 1563 2625 1702 2806 
Q 1841 2988 1841 3469 
Q 1841 3913 1700 4092 
Q 1559 4272 1350 4272 
z
M 1353 -169 
L 3859 4659 
L 4316 4659 
L 1819 -169 
L 1353 -169 
z
M 3334 1075 
Q 3334 1569 3581 1911 
Q 3828 2253 4300 2253 
Q 4731 2253 5014 1945 
Q 5297 1638 5297 1041 
Q 5297 459 5011 145 
Q 4725 -169 4303 -169 
Q 3888 -169 3611 142 
Q 3334 453 3334 1075 
z
M 4316 1866 
Q 4103 1866 3964 1684 
Q 3825 1503 3825 1019 
Q 3825 581 3965 400 
Q 4106 219 4313 219 
Q 4528 219 4667 400 
Q 4806 581 4806 1063 
Q 4806 1506 4665 1686 
Q 4525 1866 4316 1866 
z
" id="ArialMT-25" transform="scale(0.015625)"/>
      <path d="M 513 0 
L 513 4581 
L 1119 4581 
L 1119 2700 
L 3500 2700 
L 3500 4581 
L 4106 4581 
L 4106 0 
L 3500 0 
L 3500 2159 
L 1119 2159 
L 1119 0 
L 513 0 
z
" id="ArialMT-48" transform="scale(0.015625)"/>
      <path d="M 494 0 
L 494 4581 
L 2072 4581 
Q 2606 4581 2888 4516 
Q 3281 4425 3559 4188 
Q 3922 3881 4101 3404 
Q 4281 2928 4281 2316 
Q 4281 1794 4159 1391 
Q 4038 988 3847 723 
Q 3656 459 3429 307 
Q 3203 156 2883 78 
Q 2563 0 2147 0 
L 494 0 
z
M 1100 541 
L 2078 541 
Q 2531 541 2789 625 
Q 3047 709 3200 863 
Q 3416 1078 3536 1442 
Q 3656 1806 3656 2325 
Q 3656 3044 3420 3430 
Q 3184 3816 2847 3947 
Q 2603 4041 2063 4041 
L 1100 4041 
L 1100 541 
z
" id="ArialMT-44" transform="scale(0.015625)"/>
      <path d="M 597 0 
L 597 4581 
L 1203 4581 
L 1203 0 
L 597 0 
z
" id="ArialMT-49" transform="scale(0.015625)"/>
     </defs>
     <use xlink:href="#ArialMT-39"/>
     <use x="55.615234" xlink:href="#ArialMT-34"/>
     <use x="111.230469" xlink:href="#ArialMT-25"/>
     <use x="200.146484" xlink:href="#ArialMT-20"/>
     <use x="227.929688" xlink:href="#ArialMT-48"/>
     <use x="300.146484" xlink:href="#ArialMT-44"/>
     <use x="372.363281" xlink:href="#ArialMT-49"/>
    </g>
   </g>
   <g id="text_10">
    <!-- mean=2.1 -->
    <g style="fill:#262626;" transform="translate(227.768407 97.297227)scale(0.15 -0.15)">
     <defs>
      <path d="M 422 0 
L 422 3319 
L 925 3319 
L 925 2853 
Q 1081 3097 1340 3245 
Q 1600 3394 1931 3394 
Q 2300 3394 2536 3241 
Q 2772 3088 2869 2813 
Q 3263 3394 3894 3394 
Q 4388 3394 4653 3120 
Q 4919 2847 4919 2278 
L 4919 0 
L 4359 0 
L 4359 2091 
Q 4359 2428 4304 2576 
Q 4250 2725 4106 2815 
Q 3963 2906 3769 2906 
Q 3419 2906 3187 2673 
Q 2956 2441 2956 1928 
L 2956 0 
L 2394 0 
L 2394 2156 
Q 2394 2531 2256 2718 
Q 2119 2906 1806 2906 
Q 1569 2906 1367 2781 
Q 1166 2656 1075 2415 
Q 984 2175 984 1722 
L 984 0 
L 422 0 
z
" id="ArialMT-6d" transform="scale(0.015625)"/>
      <path d="M 2694 1069 
L 3275 997 
Q 3138 488 2766 206 
Q 2394 -75 1816 -75 
Q 1088 -75 661 373 
Q 234 822 234 1631 
Q 234 2469 665 2931 
Q 1097 3394 1784 3394 
Q 2450 3394 2872 2941 
Q 3294 2488 3294 1666 
Q 3294 1616 3291 1516 
L 816 1516 
Q 847 969 1125 678 
Q 1403 388 1819 388 
Q 2128 388 2347 550 
Q 2566 713 2694 1069 
z
M 847 1978 
L 2700 1978 
Q 2663 2397 2488 2606 
Q 2219 2931 1791 2931 
Q 1403 2931 1139 2672 
Q 875 2413 847 1978 
z
" id="ArialMT-65" transform="scale(0.015625)"/>
      <path d="M 2588 409 
Q 2275 144 1986 34 
Q 1697 -75 1366 -75 
Q 819 -75 525 192 
Q 231 459 231 875 
Q 231 1119 342 1320 
Q 453 1522 633 1644 
Q 813 1766 1038 1828 
Q 1203 1872 1538 1913 
Q 2219 1994 2541 2106 
Q 2544 2222 2544 2253 
Q 2544 2597 2384 2738 
Q 2169 2928 1744 2928 
Q 1347 2928 1158 2789 
Q 969 2650 878 2297 
L 328 2372 
Q 403 2725 575 2942 
Q 747 3159 1072 3276 
Q 1397 3394 1825 3394 
Q 2250 3394 2515 3294 
Q 2781 3194 2906 3042 
Q 3031 2891 3081 2659 
Q 3109 2516 3109 2141 
L 3109 1391 
Q 3109 606 3145 398 
Q 3181 191 3288 0 
L 2700 0 
Q 2613 175 2588 409 
z
M 2541 1666 
Q 2234 1541 1622 1453 
Q 1275 1403 1131 1340 
Q 988 1278 909 1158 
Q 831 1038 831 891 
Q 831 666 1001 516 
Q 1172 366 1500 366 
Q 1825 366 2078 508 
Q 2331 650 2450 897 
Q 2541 1088 2541 1459 
L 2541 1666 
z
" id="ArialMT-61" transform="scale(0.015625)"/>
      <path d="M 422 0 
L 422 3319 
L 928 3319 
L 928 2847 
Q 1294 3394 1984 3394 
Q 2284 3394 2536 3286 
Q 2788 3178 2913 3003 
Q 3038 2828 3088 2588 
Q 3119 2431 3119 2041 
L 3119 0 
L 2556 0 
L 2556 2019 
Q 2556 2363 2490 2533 
Q 2425 2703 2258 2804 
Q 2091 2906 1866 2906 
Q 1506 2906 1245 2678 
Q 984 2450 984 1813 
L 984 0 
L 422 0 
z
" id="ArialMT-6e" transform="scale(0.015625)"/>
      <path d="M 3381 2694 
L 356 2694 
L 356 3219 
L 3381 3219 
L 3381 2694 
z
M 3381 1303 
L 356 1303 
L 356 1828 
L 3381 1828 
L 3381 1303 
z
" id="ArialMT-3d" transform="scale(0.015625)"/>
     </defs>
     <use xlink:href="#ArialMT-6d"/>
     <use x="83.300781" xlink:href="#ArialMT-65"/>
     <use x="138.916016" xlink:href="#ArialMT-61"/>
     <use x="194.53125" xlink:href="#ArialMT-6e"/>
     <use x="250.146484" xlink:href="#ArialMT-3d"/>
     <use x="308.544922" xlink:href="#ArialMT-32"/>
     <use x="364.160156" xlink:href="#ArialMT-2e"/>
     <use x="391.943359" xlink:href="#ArialMT-31"/>
    </g>
   </g>
   <g id="text_11">
    <!-- lambda -->
    <g style="fill:#262626;" transform="translate(259.96375 18.6525)scale(0.16 -0.16)">
     <defs>
      <path d="M 409 0 
L 409 4581 
L 972 4581 
L 972 0 
L 409 0 
z
" id="ArialMT-6c" transform="scale(0.015625)"/>
      <path d="M 941 0 
L 419 0 
L 419 4581 
L 981 4581 
L 981 2947 
Q 1338 3394 1891 3394 
Q 2197 3394 2470 3270 
Q 2744 3147 2920 2923 
Q 3097 2700 3197 2384 
Q 3297 2069 3297 1709 
Q 3297 856 2875 390 
Q 2453 -75 1863 -75 
Q 1275 -75 941 416 
L 941 0 
z
M 934 1684 
Q 934 1088 1097 822 
Q 1363 388 1816 388 
Q 2184 388 2453 708 
Q 2722 1028 2722 1663 
Q 2722 2313 2464 2622 
Q 2206 2931 1841 2931 
Q 1472 2931 1203 2611 
Q 934 2291 934 1684 
z
" id="ArialMT-62" transform="scale(0.015625)"/>
      <path d="M 2575 0 
L 2575 419 
Q 2259 -75 1647 -75 
Q 1250 -75 917 144 
Q 584 363 401 755 
Q 219 1147 219 1656 
Q 219 2153 384 2558 
Q 550 2963 881 3178 
Q 1213 3394 1622 3394 
Q 1922 3394 2156 3267 
Q 2391 3141 2538 2938 
L 2538 4581 
L 3097 4581 
L 3097 0 
L 2575 0 
z
M 797 1656 
Q 797 1019 1065 703 
Q 1334 388 1700 388 
Q 2069 388 2326 689 
Q 2584 991 2584 1609 
Q 2584 2291 2321 2609 
Q 2059 2928 1675 2928 
Q 1300 2928 1048 2622 
Q 797 2316 797 1656 
z
" id="ArialMT-64" transform="scale(0.015625)"/>
     </defs>
     <use xlink:href="#ArialMT-6c"/>
     <use x="22.216797" xlink:href="#ArialMT-61"/>
     <use x="77.832031" xlink:href="#ArialMT-6d"/>
     <use x="161.132812" xlink:href="#ArialMT-62"/>
     <use x="216.748047" xlink:href="#ArialMT-64"/>
     <use x="272.363281" xlink:href="#ArialMT-61"/>
    </g>
   </g>
  </g>
 </g>
 <defs>
  <clipPath id="pfc4dd4851f">
   <rect height="380.52" width="558" x="7.2" y="24.6525"/>
  </clipPath>
 </defs>
</svg>
