<?xml version="1.0" encoding="UTF-8" standalone="no"?>
<!DOCTYPE svg PUBLIC "-//W3C//DTD SVG 1.1//EN"
 "http://www.w3.org/Graphics/SVG/1.1/DTD/svg11.dtd">
<!-- Generated by graphviz version 2.47.3 (0)
 -->
<!-- Pages: 1 -->
<svg width="232pt" height="444pt"
 viewBox="0.00 0.00 231.53 443.86" xmlns="http://www.w3.org/2000/svg" xmlns:xlink="http://www.w3.org/1999/xlink">
<g id="graph0" class="graph" transform="scale(1 1) rotate(0) translate(4 439.86)">
<polygon fill="white" stroke="transparent" points="-4,4 -4,-439.86 227.53,-439.86 227.53,4 -4,4"/>
<g id="clust1" class="cluster">
<title>cluster5</title>
<path fill="none" stroke="black" d="M80.4,-129.95C80.4,-129.95 158.4,-129.95 158.4,-129.95 164.4,-129.95 170.4,-135.95 170.4,-141.95 170.4,-141.95 170.4,-231.91 170.4,-231.91 170.4,-237.91 164.4,-243.91 158.4,-243.91 158.4,-243.91 80.4,-243.91 80.4,-243.91 74.4,-243.91 68.4,-237.91 68.4,-231.91 68.4,-231.91 68.4,-141.95 68.4,-141.95 68.4,-135.95 74.4,-129.95 80.4,-129.95"/>
<text text-anchor="middle" x="158.9" y="-137.75" font-family="Times,serif" font-size="14.00">5</text>
</g>
<g id="clust2" class="cluster">
<title>cluster150</title>
<path fill="none" stroke="black" d="M71.4,-8C71.4,-8 167.4,-8 167.4,-8 173.4,-8 179.4,-14 179.4,-20 179.4,-20 179.4,-109.95 179.4,-109.95 179.4,-115.95 173.4,-121.95 167.4,-121.95 167.4,-121.95 71.4,-121.95 71.4,-121.95 65.4,-121.95 59.4,-115.95 59.4,-109.95 59.4,-109.95 59.4,-20 59.4,-20 59.4,-14 65.4,-8 71.4,-8"/>
<text text-anchor="middle" x="160.9" y="-15.8" font-family="Times,serif" font-size="14.00">150</text>
</g>
<!-- alpha -->
<g id="node1" class="node">
<title>alpha</title>
<polygon fill="none" stroke="black" points="110.9,-324.91 17.9,-324.91 17.9,-271.91 110.9,-271.91 110.9,-324.91"/>
<text text-anchor="middle" x="64.4" y="-309.71" font-family="Times,serif" font-size="14.00">alpha</text>
<text text-anchor="middle" x="64.4" y="-294.71" font-family="Times,serif" font-size="14.00">~</text>
<text text-anchor="middle" x="64.4" y="-279.71" font-family="Times,serif" font-size="14.00">Deterministic</text>
</g>
<!-- lam -->
<g id="node5" class="node">
<title>lam</title>
<ellipse fill="none" stroke="black" cx="119.4" cy="-198.43" rx="43.27" ry="37.45"/>
<text text-anchor="middle" x="119.4" y="-209.73" font-family="Times,serif" font-size="14.00">lam</text>
<text text-anchor="middle" x="119.4" y="-194.73" font-family="Times,serif" font-size="14.00">~</text>
<text text-anchor="middle" x="119.4" y="-179.73" font-family="Times,serif" font-size="14.00">Gamma</text>
</g>
<!-- alpha&#45;&gt;lam -->
<g id="edge6" class="edge">
<title>alpha&#45;&gt;lam</title>
<path fill="none" stroke="black" d="M78.85,-271.66C84.07,-262.37 90.1,-251.62 95.89,-241.3"/>
<polygon fill="black" stroke="black" points="99.05,-242.82 100.9,-232.39 92.95,-239.39 99.05,-242.82"/>
</g>
<!-- beta -->
<g id="node2" class="node">
<title>beta</title>
<polygon fill="none" stroke="black" points="221.9,-324.91 128.9,-324.91 128.9,-271.91 221.9,-271.91 221.9,-324.91"/>
<text text-anchor="middle" x="175.4" y="-309.71" font-family="Times,serif" font-size="14.00">beta</text>
<text text-anchor="middle" x="175.4" y="-294.71" font-family="Times,serif" font-size="14.00">~</text>
<text text-anchor="middle" x="175.4" y="-279.71" font-family="Times,serif" font-size="14.00">Deterministic</text>
</g>
<!-- beta&#45;&gt;lam -->
<g id="edge5" class="edge">
<title>beta&#45;&gt;lam</title>
<path fill="none" stroke="black" d="M160.68,-271.66C155.37,-262.37 149.23,-251.62 143.33,-241.3"/>
<polygon fill="black" stroke="black" points="146.24,-239.33 138.23,-232.39 140.16,-242.81 146.24,-239.33"/>
</g>
<!-- sigma -->
<g id="node3" class="node">
<title>sigma</title>
<ellipse fill="none" stroke="black" cx="59.4" cy="-398.38" rx="59.29" ry="37.45"/>
<text text-anchor="middle" x="59.4" y="-409.68" font-family="Times,serif" font-size="14.00">sigma</text>
<text text-anchor="middle" x="59.4" y="-394.68" font-family="Times,serif" font-size="14.00">~</text>
<text text-anchor="middle" x="59.4" y="-379.68" font-family="Times,serif" font-size="14.00">Exponential</text>
</g>
<!-- sigma&#45;&gt;alpha -->
<g id="edge1" class="edge">
<title>sigma&#45;&gt;alpha</title>
<path fill="none" stroke="black" d="M61.26,-360.9C61.69,-352.48 62.14,-343.54 62.57,-335.16"/>
<polygon fill="black" stroke="black" points="66.08,-335.08 63.1,-324.92 59.09,-334.73 66.08,-335.08"/>
</g>
<!-- sigma&#45;&gt;beta -->
<g id="edge3" class="edge">
<title>sigma&#45;&gt;beta</title>
<path fill="none" stroke="black" d="M94.2,-367.99C107.7,-356.58 123.21,-343.49 137.03,-331.81"/>
<polygon fill="black" stroke="black" points="139.56,-334.25 144.95,-325.13 135.05,-328.91 139.56,-334.25"/>
</g>
<!-- mu -->
<g id="node4" class="node">
<title>mu</title>
<ellipse fill="none" stroke="black" cx="180.4" cy="-398.38" rx="43.27" ry="37.45"/>
<text text-anchor="middle" x="180.4" y="-409.68" font-family="Times,serif" font-size="14.00">mu</text>
<text text-anchor="middle" x="180.4" y="-394.68" font-family="Times,serif" font-size="14.00">~</text>
<text text-anchor="middle" x="180.4" y="-379.68" font-family="Times,serif" font-size="14.00">Gamma</text>
</g>
<!-- mu&#45;&gt;alpha -->
<g id="edge2" class="edge">
<title>mu&#45;&gt;alpha</title>
<path fill="none" stroke="black" d="M149.92,-371.64C135.4,-359.38 117.89,-344.58 102.5,-331.59"/>
<polygon fill="black" stroke="black" points="104.57,-328.76 94.67,-324.98 100.05,-334.1 104.57,-328.76"/>
</g>
<!-- mu&#45;&gt;beta -->
<g id="edge4" class="edge">
<title>mu&#45;&gt;beta</title>
<path fill="none" stroke="black" d="M178.54,-360.9C178.11,-352.48 177.65,-343.54 177.22,-335.16"/>
<polygon fill="black" stroke="black" points="180.7,-334.73 176.7,-324.92 173.71,-335.08 180.7,-334.73"/>
</g>
<!-- likelihood -->
<g id="node6" class="node">
<title>likelihood</title>
<ellipse fill="lightgrey" stroke="black" cx="119.4" cy="-76.48" rx="51.74" ry="37.45"/>
<text text-anchor="middle" x="119.4" y="-87.78" font-family="Times,serif" font-size="14.00">likelihood</text>
<text text-anchor="middle" x="119.4" y="-72.78" font-family="Times,serif" font-size="14.00">~</text>
<text text-anchor="middle" x="119.4" y="-57.78" font-family="Times,serif" font-size="14.00">Poisson</text>
</g>
<!-- lam&#45;&gt;likelihood -->
<g id="edge7" class="edge">
<title>lam&#45;&gt;likelihood</title>
<path fill="none" stroke="black" d="M119.4,-160.79C119.4,-149.38 119.4,-136.65 119.4,-124.63"/>
<polygon fill="black" stroke="black" points="122.9,-124.31 119.4,-114.31 115.9,-124.31 122.9,-124.31"/>
</g>
</g>
</svg>
