<?xml version="1.0" encoding="utf-8" standalone="no"?>
<!DOCTYPE svg PUBLIC "-//W3C//DTD SVG 1.1//EN"
  "http://www.w3.org/Graphics/SVG/1.1/DTD/svg11.dtd">
<svg height="584.39952pt" version="1.1" viewBox="0 0 872.39952 584.39952" width="872.39952pt" xmlns="http://www.w3.org/2000/svg" xmlns:xlink="http://www.w3.org/1999/xlink">
 <metadata>
  <rdf:RDF xmlns:cc="http://creativecommons.org/ns#" xmlns:dc="http://purl.org/dc/elements/1.1/" xmlns:rdf="http://www.w3.org/1999/02/22-rdf-syntax-ns#">
   <cc:Work>
    <dc:type rdf:resource="http://purl.org/dc/dcmitype/StillImage"/>
    <dc:date>2021-07-27T21:47:03.988562</dc:date>
    <dc:format>image/svg+xml</dc:format>
    <dc:creator>
     <cc:Agent>
      <dc:title>Matplotlib v3.4.2, https://matplotlib.org/</dc:title>
     </cc:Agent>
    </dc:creator>
   </cc:Work>
  </rdf:RDF>
 </metadata>
 <defs>
  <style type="text/css">*{stroke-linecap:butt;stroke-linejoin:round;}</style>
 </defs>
 <g id="figure_1">
  <g id="patch_1">
   <path d="M 0 584.39952 
L 872.39952 584.39952 
L 872.39952 0 
L 0 0 
z
" style="fill:#ffffff;"/>
  </g>
  <g id="axes_1">
   <g id="patch_2">
    <path d="M 52.484375 268.469448 
L 817.733895 268.469448 
L 817.733895 24.321105 
L 52.484375 24.321105 
z
" style="fill:#e6e6e6;"/>
   </g>
   <g id="matplotlib.axis_1">
    <g id="xtick_1">
     <g id="line2d_1">
      <path clip-path="url(#pe38c651e0c)" d="M 84.878283 268.469448 
L 84.878283 24.321105 
" style="fill:none;stroke:#cccccc;stroke-linecap:round;stroke-width:0.8;"/>
     </g>
     <g id="text_1">
      <!-- −5 -->
      <g style="fill:#262626;" transform="translate(79.177502 282.62726)scale(0.1 -0.1)">
       <defs>
        <path d="M 3381 1997 
L 356 1997 
L 356 2522 
L 3381 2522 
L 3381 1997 
z
" id="ArialMT-2212" transform="scale(0.015625)"/>
        <path d="M 266 1200 
L 856 1250 
Q 922 819 1161 601 
Q 1400 384 1738 384 
Q 2144 384 2425 690 
Q 2706 997 2706 1503 
Q 2706 1984 2436 2262 
Q 2166 2541 1728 2541 
Q 1456 2541 1237 2417 
Q 1019 2294 894 2097 
L 366 2166 
L 809 4519 
L 3088 4519 
L 3088 3981 
L 1259 3981 
L 1013 2750 
Q 1425 3038 1878 3038 
Q 2478 3038 2890 2622 
Q 3303 2206 3303 1553 
Q 3303 931 2941 478 
Q 2500 -78 1738 -78 
Q 1113 -78 717 272 
Q 322 622 266 1200 
z
" id="ArialMT-35" transform="scale(0.015625)"/>
       </defs>
       <use xlink:href="#ArialMT-2212"/>
       <use x="58.398438" xlink:href="#ArialMT-35"/>
      </g>
     </g>
    </g>
    <g id="xtick_2">
     <g id="line2d_2">
      <path clip-path="url(#pe38c651e0c)" d="M 194.325425 268.469448 
L 194.325425 24.321105 
" style="fill:none;stroke:#cccccc;stroke-linecap:round;stroke-width:0.8;"/>
     </g>
     <g id="text_2">
      <!-- 0 -->
      <g style="fill:#262626;" transform="translate(191.544956 282.62726)scale(0.1 -0.1)">
       <defs>
        <path d="M 266 2259 
Q 266 3072 433 3567 
Q 600 4063 929 4331 
Q 1259 4600 1759 4600 
Q 2128 4600 2406 4451 
Q 2684 4303 2865 4023 
Q 3047 3744 3150 3342 
Q 3253 2941 3253 2259 
Q 3253 1453 3087 958 
Q 2922 463 2592 192 
Q 2263 -78 1759 -78 
Q 1097 -78 719 397 
Q 266 969 266 2259 
z
M 844 2259 
Q 844 1131 1108 757 
Q 1372 384 1759 384 
Q 2147 384 2411 759 
Q 2675 1134 2675 2259 
Q 2675 3391 2411 3762 
Q 2147 4134 1753 4134 
Q 1366 4134 1134 3806 
Q 844 3388 844 2259 
z
" id="ArialMT-30" transform="scale(0.015625)"/>
       </defs>
       <use xlink:href="#ArialMT-30"/>
      </g>
     </g>
    </g>
    <g id="xtick_3">
     <g id="line2d_3">
      <path clip-path="url(#pe38c651e0c)" d="M 303.772566 268.469448 
L 303.772566 24.321105 
" style="fill:none;stroke:#cccccc;stroke-linecap:round;stroke-width:0.8;"/>
     </g>
     <g id="text_3">
      <!-- 5 -->
      <g style="fill:#262626;" transform="translate(300.992097 282.62726)scale(0.1 -0.1)">
       <use xlink:href="#ArialMT-35"/>
      </g>
     </g>
    </g>
    <g id="xtick_4">
     <g id="line2d_4">
      <path clip-path="url(#pe38c651e0c)" d="M 413.219707 268.469448 
L 413.219707 24.321105 
" style="fill:none;stroke:#cccccc;stroke-linecap:round;stroke-width:0.8;"/>
     </g>
     <g id="text_4">
      <!-- 10 -->
      <g style="fill:#262626;" transform="translate(407.658769 282.62726)scale(0.1 -0.1)">
       <defs>
        <path d="M 2384 0 
L 1822 0 
L 1822 3584 
Q 1619 3391 1289 3197 
Q 959 3003 697 2906 
L 697 3450 
Q 1169 3672 1522 3987 
Q 1875 4303 2022 4600 
L 2384 4600 
L 2384 0 
z
" id="ArialMT-31" transform="scale(0.015625)"/>
       </defs>
       <use xlink:href="#ArialMT-31"/>
       <use x="55.615234" xlink:href="#ArialMT-30"/>
      </g>
     </g>
    </g>
    <g id="xtick_5">
     <g id="line2d_5">
      <path clip-path="url(#pe38c651e0c)" d="M 522.666848 268.469448 
L 522.666848 24.321105 
" style="fill:none;stroke:#cccccc;stroke-linecap:round;stroke-width:0.8;"/>
     </g>
     <g id="text_5">
      <!-- 15 -->
      <g style="fill:#262626;" transform="translate(517.10591 282.62726)scale(0.1 -0.1)">
       <use xlink:href="#ArialMT-31"/>
       <use x="55.615234" xlink:href="#ArialMT-35"/>
      </g>
     </g>
    </g>
    <g id="xtick_6">
     <g id="line2d_6">
      <path clip-path="url(#pe38c651e0c)" d="M 632.113989 268.469448 
L 632.113989 24.321105 
" style="fill:none;stroke:#cccccc;stroke-linecap:round;stroke-width:0.8;"/>
     </g>
     <g id="text_6">
      <!-- 20 -->
      <g style="fill:#262626;" transform="translate(626.553052 282.62726)scale(0.1 -0.1)">
       <defs>
        <path d="M 3222 541 
L 3222 0 
L 194 0 
Q 188 203 259 391 
Q 375 700 629 1000 
Q 884 1300 1366 1694 
Q 2113 2306 2375 2664 
Q 2638 3022 2638 3341 
Q 2638 3675 2398 3904 
Q 2159 4134 1775 4134 
Q 1369 4134 1125 3890 
Q 881 3647 878 3216 
L 300 3275 
Q 359 3922 746 4261 
Q 1134 4600 1788 4600 
Q 2447 4600 2831 4234 
Q 3216 3869 3216 3328 
Q 3216 3053 3103 2787 
Q 2991 2522 2730 2228 
Q 2469 1934 1863 1422 
Q 1356 997 1212 845 
Q 1069 694 975 541 
L 3222 541 
z
" id="ArialMT-32" transform="scale(0.015625)"/>
       </defs>
       <use xlink:href="#ArialMT-32"/>
       <use x="55.615234" xlink:href="#ArialMT-30"/>
      </g>
     </g>
    </g>
    <g id="xtick_7">
     <g id="line2d_7">
      <path clip-path="url(#pe38c651e0c)" d="M 741.56113 268.469448 
L 741.56113 24.321105 
" style="fill:none;stroke:#cccccc;stroke-linecap:round;stroke-width:0.8;"/>
     </g>
     <g id="text_7">
      <!-- 25 -->
      <g style="fill:#262626;" transform="translate(736.000193 282.62726)scale(0.1 -0.1)">
       <use xlink:href="#ArialMT-32"/>
       <use x="55.615234" xlink:href="#ArialMT-35"/>
      </g>
     </g>
    </g>
    <g id="text_8">
     <!-- chips -->
     <g style="fill:#262626;" transform="translate(423.43726 295.772572)scale(0.1 -0.1)">
      <defs>
       <path d="M 2588 1216 
L 3141 1144 
Q 3050 572 2676 248 
Q 2303 -75 1759 -75 
Q 1078 -75 664 370 
Q 250 816 250 1647 
Q 250 2184 428 2587 
Q 606 2991 970 3192 
Q 1334 3394 1763 3394 
Q 2303 3394 2647 3120 
Q 2991 2847 3088 2344 
L 2541 2259 
Q 2463 2594 2264 2762 
Q 2066 2931 1784 2931 
Q 1359 2931 1093 2626 
Q 828 2322 828 1663 
Q 828 994 1084 691 
Q 1341 388 1753 388 
Q 2084 388 2306 591 
Q 2528 794 2588 1216 
z
" id="ArialMT-63" transform="scale(0.015625)"/>
       <path d="M 422 0 
L 422 4581 
L 984 4581 
L 984 2938 
Q 1378 3394 1978 3394 
Q 2347 3394 2619 3248 
Q 2891 3103 3008 2847 
Q 3125 2591 3125 2103 
L 3125 0 
L 2563 0 
L 2563 2103 
Q 2563 2525 2380 2717 
Q 2197 2909 1863 2909 
Q 1613 2909 1392 2779 
Q 1172 2650 1078 2428 
Q 984 2206 984 1816 
L 984 0 
L 422 0 
z
" id="ArialMT-68" transform="scale(0.015625)"/>
       <path d="M 425 3934 
L 425 4581 
L 988 4581 
L 988 3934 
L 425 3934 
z
M 425 0 
L 425 3319 
L 988 3319 
L 988 0 
L 425 0 
z
" id="ArialMT-69" transform="scale(0.015625)"/>
       <path d="M 422 -1272 
L 422 3319 
L 934 3319 
L 934 2888 
Q 1116 3141 1344 3267 
Q 1572 3394 1897 3394 
Q 2322 3394 2647 3175 
Q 2972 2956 3137 2557 
Q 3303 2159 3303 1684 
Q 3303 1175 3120 767 
Q 2938 359 2589 142 
Q 2241 -75 1856 -75 
Q 1575 -75 1351 44 
Q 1128 163 984 344 
L 984 -1272 
L 422 -1272 
z
M 931 1641 
Q 931 1000 1190 694 
Q 1450 388 1819 388 
Q 2194 388 2461 705 
Q 2728 1022 2728 1688 
Q 2728 2322 2467 2637 
Q 2206 2953 1844 2953 
Q 1484 2953 1207 2617 
Q 931 2281 931 1641 
z
" id="ArialMT-70" transform="scale(0.015625)"/>
       <path d="M 197 991 
L 753 1078 
Q 800 744 1014 566 
Q 1228 388 1613 388 
Q 2000 388 2187 545 
Q 2375 703 2375 916 
Q 2375 1106 2209 1216 
Q 2094 1291 1634 1406 
Q 1016 1563 777 1677 
Q 538 1791 414 1992 
Q 291 2194 291 2438 
Q 291 2659 392 2848 
Q 494 3038 669 3163 
Q 800 3259 1026 3326 
Q 1253 3394 1513 3394 
Q 1903 3394 2198 3281 
Q 2494 3169 2634 2976 
Q 2775 2784 2828 2463 
L 2278 2388 
Q 2241 2644 2061 2787 
Q 1881 2931 1553 2931 
Q 1166 2931 1000 2803 
Q 834 2675 834 2503 
Q 834 2394 903 2306 
Q 972 2216 1119 2156 
Q 1203 2125 1616 2013 
Q 2213 1853 2448 1751 
Q 2684 1650 2818 1456 
Q 2953 1263 2953 975 
Q 2953 694 2789 445 
Q 2625 197 2315 61 
Q 2006 -75 1616 -75 
Q 969 -75 630 194 
Q 291 463 197 991 
z
" id="ArialMT-73" transform="scale(0.015625)"/>
      </defs>
      <use xlink:href="#ArialMT-63"/>
      <use x="50" xlink:href="#ArialMT-68"/>
      <use x="105.615234" xlink:href="#ArialMT-69"/>
      <use x="127.832031" xlink:href="#ArialMT-70"/>
      <use x="183.447266" xlink:href="#ArialMT-73"/>
     </g>
    </g>
   </g>
   <g id="matplotlib.axis_2">
    <g id="ytick_1">
     <g id="line2d_8">
      <path clip-path="url(#pe38c651e0c)" d="M 52.484375 268.469448 
L 817.733895 268.469448 
" style="fill:none;stroke:#cccccc;stroke-linecap:round;stroke-width:0.8;"/>
     </g>
     <g id="text_9">
      <!-- 0.000 -->
      <g style="fill:#262626;" transform="translate(20.4625 272.048354)scale(0.1 -0.1)">
       <defs>
        <path d="M 581 0 
L 581 641 
L 1222 641 
L 1222 0 
L 581 0 
z
" id="ArialMT-2e" transform="scale(0.015625)"/>
       </defs>
       <use xlink:href="#ArialMT-30"/>
       <use x="55.615234" xlink:href="#ArialMT-2e"/>
       <use x="83.398438" xlink:href="#ArialMT-30"/>
       <use x="139.013672" xlink:href="#ArialMT-30"/>
       <use x="194.628906" xlink:href="#ArialMT-30"/>
      </g>
     </g>
    </g>
    <g id="ytick_2">
     <g id="line2d_9">
      <path clip-path="url(#pe38c651e0c)" d="M 52.484375 226.866804 
L 817.733895 226.866804 
" style="fill:none;stroke:#cccccc;stroke-linecap:round;stroke-width:0.8;"/>
     </g>
     <g id="text_10">
      <!-- 0.005 -->
      <g style="fill:#262626;" transform="translate(20.4625 230.445711)scale(0.1 -0.1)">
       <use xlink:href="#ArialMT-30"/>
       <use x="55.615234" xlink:href="#ArialMT-2e"/>
       <use x="83.398438" xlink:href="#ArialMT-30"/>
       <use x="139.013672" xlink:href="#ArialMT-30"/>
       <use x="194.628906" xlink:href="#ArialMT-35"/>
      </g>
     </g>
    </g>
    <g id="ytick_3">
     <g id="line2d_10">
      <path clip-path="url(#pe38c651e0c)" d="M 52.484375 185.264161 
L 817.733895 185.264161 
" style="fill:none;stroke:#cccccc;stroke-linecap:round;stroke-width:0.8;"/>
     </g>
     <g id="text_11">
      <!-- 0.010 -->
      <g style="fill:#262626;" transform="translate(20.4625 188.843068)scale(0.1 -0.1)">
       <use xlink:href="#ArialMT-30"/>
       <use x="55.615234" xlink:href="#ArialMT-2e"/>
       <use x="83.398438" xlink:href="#ArialMT-30"/>
       <use x="139.013672" xlink:href="#ArialMT-31"/>
       <use x="194.628906" xlink:href="#ArialMT-30"/>
      </g>
     </g>
    </g>
    <g id="ytick_4">
     <g id="line2d_11">
      <path clip-path="url(#pe38c651e0c)" d="M 52.484375 143.661518 
L 817.733895 143.661518 
" style="fill:none;stroke:#cccccc;stroke-linecap:round;stroke-width:0.8;"/>
     </g>
     <g id="text_12">
      <!-- 0.015 -->
      <g style="fill:#262626;" transform="translate(20.4625 147.240425)scale(0.1 -0.1)">
       <use xlink:href="#ArialMT-30"/>
       <use x="55.615234" xlink:href="#ArialMT-2e"/>
       <use x="83.398438" xlink:href="#ArialMT-30"/>
       <use x="139.013672" xlink:href="#ArialMT-31"/>
       <use x="194.628906" xlink:href="#ArialMT-35"/>
      </g>
     </g>
    </g>
    <g id="ytick_5">
     <g id="line2d_12">
      <path clip-path="url(#pe38c651e0c)" d="M 52.484375 102.058875 
L 817.733895 102.058875 
" style="fill:none;stroke:#cccccc;stroke-linecap:round;stroke-width:0.8;"/>
     </g>
     <g id="text_13">
      <!-- 0.020 -->
      <g style="fill:#262626;" transform="translate(20.4625 105.637781)scale(0.1 -0.1)">
       <use xlink:href="#ArialMT-30"/>
       <use x="55.615234" xlink:href="#ArialMT-2e"/>
       <use x="83.398438" xlink:href="#ArialMT-30"/>
       <use x="139.013672" xlink:href="#ArialMT-32"/>
       <use x="194.628906" xlink:href="#ArialMT-30"/>
      </g>
     </g>
    </g>
    <g id="ytick_6">
     <g id="line2d_13">
      <path clip-path="url(#pe38c651e0c)" d="M 52.484375 60.456232 
L 817.733895 60.456232 
" style="fill:none;stroke:#cccccc;stroke-linecap:round;stroke-width:0.8;"/>
     </g>
     <g id="text_14">
      <!-- 0.025 -->
      <g style="fill:#262626;" transform="translate(20.4625 64.035138)scale(0.1 -0.1)">
       <use xlink:href="#ArialMT-30"/>
       <use x="55.615234" xlink:href="#ArialMT-2e"/>
       <use x="83.398438" xlink:href="#ArialMT-30"/>
       <use x="139.013672" xlink:href="#ArialMT-32"/>
       <use x="194.628906" xlink:href="#ArialMT-35"/>
      </g>
     </g>
    </g>
    <g id="text_15">
     <!-- Density -->
     <g style="fill:#262626;" transform="translate(14.357813 163.067151)rotate(-90)scale(0.1 -0.1)">
      <defs>
       <path d="M 494 0 
L 494 4581 
L 2072 4581 
Q 2606 4581 2888 4516 
Q 3281 4425 3559 4188 
Q 3922 3881 4101 3404 
Q 4281 2928 4281 2316 
Q 4281 1794 4159 1391 
Q 4038 988 3847 723 
Q 3656 459 3429 307 
Q 3203 156 2883 78 
Q 2563 0 2147 0 
L 494 0 
z
M 1100 541 
L 2078 541 
Q 2531 541 2789 625 
Q 3047 709 3200 863 
Q 3416 1078 3536 1442 
Q 3656 1806 3656 2325 
Q 3656 3044 3420 3430 
Q 3184 3816 2847 3947 
Q 2603 4041 2063 4041 
L 1100 4041 
L 1100 541 
z
" id="ArialMT-44" transform="scale(0.015625)"/>
       <path d="M 2694 1069 
L 3275 997 
Q 3138 488 2766 206 
Q 2394 -75 1816 -75 
Q 1088 -75 661 373 
Q 234 822 234 1631 
Q 234 2469 665 2931 
Q 1097 3394 1784 3394 
Q 2450 3394 2872 2941 
Q 3294 2488 3294 1666 
Q 3294 1616 3291 1516 
L 816 1516 
Q 847 969 1125 678 
Q 1403 388 1819 388 
Q 2128 388 2347 550 
Q 2566 713 2694 1069 
z
M 847 1978 
L 2700 1978 
Q 2663 2397 2488 2606 
Q 2219 2931 1791 2931 
Q 1403 2931 1139 2672 
Q 875 2413 847 1978 
z
" id="ArialMT-65" transform="scale(0.015625)"/>
       <path d="M 422 0 
L 422 3319 
L 928 3319 
L 928 2847 
Q 1294 3394 1984 3394 
Q 2284 3394 2536 3286 
Q 2788 3178 2913 3003 
Q 3038 2828 3088 2588 
Q 3119 2431 3119 2041 
L 3119 0 
L 2556 0 
L 2556 2019 
Q 2556 2363 2490 2533 
Q 2425 2703 2258 2804 
Q 2091 2906 1866 2906 
Q 1506 2906 1245 2678 
Q 984 2450 984 1813 
L 984 0 
L 422 0 
z
" id="ArialMT-6e" transform="scale(0.015625)"/>
       <path d="M 1650 503 
L 1731 6 
Q 1494 -44 1306 -44 
Q 1000 -44 831 53 
Q 663 150 594 308 
Q 525 466 525 972 
L 525 2881 
L 113 2881 
L 113 3319 
L 525 3319 
L 525 4141 
L 1084 4478 
L 1084 3319 
L 1650 3319 
L 1650 2881 
L 1084 2881 
L 1084 941 
Q 1084 700 1114 631 
Q 1144 563 1211 522 
Q 1278 481 1403 481 
Q 1497 481 1650 503 
z
" id="ArialMT-74" transform="scale(0.015625)"/>
       <path d="M 397 -1278 
L 334 -750 
Q 519 -800 656 -800 
Q 844 -800 956 -737 
Q 1069 -675 1141 -563 
Q 1194 -478 1313 -144 
Q 1328 -97 1363 -6 
L 103 3319 
L 709 3319 
L 1400 1397 
Q 1534 1031 1641 628 
Q 1738 1016 1872 1384 
L 2581 3319 
L 3144 3319 
L 1881 -56 
Q 1678 -603 1566 -809 
Q 1416 -1088 1222 -1217 
Q 1028 -1347 759 -1347 
Q 597 -1347 397 -1278 
z
" id="ArialMT-79" transform="scale(0.015625)"/>
      </defs>
      <use xlink:href="#ArialMT-44"/>
      <use x="72.216797" xlink:href="#ArialMT-65"/>
      <use x="127.832031" xlink:href="#ArialMT-6e"/>
      <use x="183.447266" xlink:href="#ArialMT-73"/>
      <use x="233.447266" xlink:href="#ArialMT-69"/>
      <use x="255.664062" xlink:href="#ArialMT-74"/>
      <use x="283.447266" xlink:href="#ArialMT-79"/>
     </g>
    </g>
   </g>
   <g id="line2d_14">
    <path clip-path="url(#pe38c651e0c)" d="M 202.44405 267.942248 
L 210.779043 267.518668 
L 219.114036 266.823296 
L 224.670698 266.148965 
L 230.22736 265.256872 
L 235.784023 264.101102 
L 241.340685 262.635046 
L 246.897347 260.814807 
L 252.454009 258.603385 
L 258.010671 255.975349 
L 263.567333 252.921521 
L 269.123995 249.453075 
L 274.680658 245.604347 
L 280.23732 241.433662 
L 288.572313 234.755234 
L 305.242299 221.159135 
L 310.798962 216.926009 
L 316.355624 212.958988 
L 321.912286 209.274608 
L 327.468948 205.842855 
L 346.917266 194.300119 
L 352.473928 190.470272 
L 355.252259 188.352787 
L 358.03059 186.072477 
L 360.808921 183.611391 
L 363.587252 180.954675 
L 366.365583 178.09116 
L 369.143914 175.013896 
L 371.922245 171.720593 
L 374.700576 168.213969 
L 377.478907 164.501987 
L 383.035569 156.520555 
L 388.592232 147.945897 
L 405.262218 121.425541 
L 408.040549 117.336223 
L 410.81888 113.461631 
L 413.597211 109.844659 
L 416.375542 106.525399 
L 419.153873 103.540296 
L 421.932204 100.921379 
L 424.710536 98.695591 
L 427.488867 96.884225 
L 430.267198 95.502496 
L 433.045529 94.559242 
L 435.82386 94.05678 
L 438.602191 93.990899 
L 441.380522 94.35101 
L 444.158853 95.120432 
L 446.937184 96.276813 
L 449.715515 97.792675 
L 452.493846 99.636056 
L 455.272177 101.77126 
L 458.050508 104.159653 
L 460.828839 106.760531 
L 466.385502 112.431869 
L 483.055488 130.33894 
L 488.61215 135.740684 
L 494.168812 140.589934 
L 496.947143 142.790385 
L 499.725474 144.842142 
L 505.282137 148.528857 
L 510.838799 151.746942 
L 516.395461 154.642147 
L 530.287116 161.623709 
L 535.843778 164.756018 
L 541.400441 168.273603 
L 546.957103 172.239502 
L 552.513765 176.662634 
L 558.070427 181.500282 
L 563.627089 186.666341 
L 574.740413 197.500609 
L 583.075407 205.547259 
L 588.632069 210.654871 
L 594.188731 215.460573 
L 599.745393 219.918087 
L 605.302055 224.013603 
L 610.858717 227.761598 
L 616.41538 231.197782 
L 621.972042 234.370527 
L 627.528704 237.332105 
L 635.863697 241.481944 
L 644.19869 245.382214 
L 652.533683 249.08334 
L 660.868677 252.570906 
L 669.20367 255.787328 
L 674.760332 257.745262 
L 680.316994 259.53138 
L 685.873656 261.131632 
L 691.430318 262.538543 
L 696.986981 263.751705 
L 702.543643 264.777391 
L 708.100305 265.627528 
L 716.435298 266.609713 
L 724.770291 267.298135 
L 733.105285 267.759709 
L 744.218609 268.126965 
L 755.331933 268.315339 
L 755.331933 268.315339 
" style="fill:none;stroke:#8172b3;stroke-linecap:round;stroke-width:1.5;"/>
   </g>
   <g id="line2d_15">
    <path clip-path="url(#pe38c651e0c)" d="M 87.268444 268.344139 
L 104.747876 268.078221 
L 115.235535 267.753448 
L 125.723194 267.233654 
L 136.210853 266.456649 
L 146.698512 265.372496 
L 157.186171 263.960078 
L 167.67383 262.237601 
L 178.161489 260.256288 
L 188.649148 258.06871 
L 199.136807 255.671594 
L 206.12858 253.90056 
L 213.120352 251.900967 
L 220.112125 249.550507 
L 223.608011 248.194845 
L 227.103898 246.688663 
L 230.599784 245.007334 
L 234.09567 243.125275 
L 237.591557 241.016571 
L 241.087443 238.655658 
L 244.583329 236.018077 
L 248.079216 233.081259 
L 251.575102 229.825327 
L 255.070988 226.233886 
L 258.566875 222.294779 
L 262.062761 218.000783 
L 265.558647 213.350221 
L 269.054534 208.347471 
L 272.55042 203.003346 
L 276.046306 197.335341 
L 279.542193 191.367722 
L 283.038079 185.131462 
L 290.029852 172.008892 
L 300.517511 151.431657 
L 307.509284 137.787101 
L 314.501056 124.787013 
L 317.996943 118.686473 
L 321.492829 112.932616 
L 324.988715 107.581281 
L 328.484602 102.683462 
L 331.980488 98.284319 
L 335.476374 94.422309 
L 338.972261 91.12846 
L 342.468147 88.425807 
L 345.964033 86.329 
L 349.45992 84.844111 
L 352.955806 83.968626 
L 356.451692 83.691645 
L 359.947579 83.994261 
L 363.443465 84.850125 
L 366.939351 86.226169 
L 370.435238 88.083476 
L 373.931124 90.378264 
L 377.42701 93.062948 
L 380.922897 96.087272 
L 384.418783 99.39945 
L 387.914669 102.947308 
L 394.906442 110.54593 
L 415.88176 134.211301 
L 422.873533 141.542849 
L 429.865305 148.376696 
L 436.857078 154.698524 
L 443.848851 160.555006 
L 450.840624 166.035776 
L 461.328283 173.803174 
L 482.303601 189.084371 
L 492.79126 197.122654 
L 503.278919 205.536877 
L 517.262464 217.140188 
L 527.750123 225.806033 
L 534.741896 231.378441 
L 541.733668 236.657941 
L 548.725441 241.536631 
L 552.221327 243.794823 
L 555.717214 245.91786 
L 559.2131 247.896612 
L 562.708986 249.723484 
L 566.204873 251.392555 
L 569.700759 252.899684 
L 573.196645 254.242581 
L 576.692532 255.420848 
L 580.188418 256.435977 
L 583.684304 257.291331 
L 587.180191 257.992079 
L 590.676077 258.545118 
L 594.171964 258.958956 
L 597.66785 259.243583 
L 604.659623 259.471584 
L 611.651395 259.332147 
L 618.643168 258.939929 
L 643.114372 257.235844 
L 650.106145 257.051062 
L 657.097918 257.11299 
L 664.08969 257.438527 
L 671.081463 258.017019 
L 678.073236 258.814182 
L 688.560895 260.303879 
L 716.527985 264.556729 
L 727.015644 265.806439 
L 737.503303 266.76169 
L 747.990963 267.437563 
L 758.478622 267.881981 
L 772.462167 268.216769 
L 782.949826 268.344251 
L 782.949826 268.344251 
" style="fill:none;stroke:#c44e52;stroke-linecap:round;stroke-width:1.5;"/>
   </g>
   <g id="line2d_16">
    <path clip-path="url(#pe38c651e0c)" d="M 161.901664 268.163036 
L 172.884879 267.776941 
L 181.12229 267.248921 
L 186.613898 266.725491 
L 192.105505 266.018275 
L 197.597113 265.079606 
L 203.08872 263.85542 
L 208.580328 262.286245 
L 214.071935 260.30879 
L 216.817739 259.146663 
L 219.563542 257.858142 
L 222.309346 256.435315 
L 225.05515 254.870543 
L 227.800954 253.156574 
L 230.546757 251.286658 
L 233.292561 249.254669 
L 236.038365 247.055227 
L 238.784169 244.683826 
L 241.529972 242.136956 
L 244.275776 239.41223 
L 247.02158 236.508508 
L 249.767383 233.42601 
L 252.513187 230.166435 
L 258.004795 223.130874 
L 263.496402 215.448808 
L 268.98801 207.196651 
L 274.479617 198.481831 
L 282.717028 184.853574 
L 293.700243 166.594608 
L 299.191851 157.90011 
L 304.683458 149.794315 
L 307.429262 146.030964 
L 310.175065 142.4952 
L 312.920869 139.210815 
L 315.666673 136.199344 
L 318.412477 133.479622 
L 321.15828 131.067357 
L 323.904084 128.974741 
L 326.649888 127.21011 
L 329.395692 125.777657 
L 332.141495 124.677221 
L 334.887299 123.904143 
L 337.633103 123.449214 
L 340.378906 123.298708 
L 343.12471 123.434509 
L 345.870514 123.834332 
L 348.616318 124.472032 
L 351.362121 125.318008 
L 354.107925 126.339676 
L 359.599533 128.768263 
L 373.328551 135.329455 
L 376.074355 136.432391 
L 378.820159 137.389922 
L 381.565962 138.176107 
L 384.311766 138.769296 
L 387.05757 139.152593 
L 389.803374 139.314227 
L 392.549177 139.24782 
L 395.294981 138.952546 
L 398.040785 138.433174 
L 400.786588 137.699999 
L 403.532392 136.768645 
L 406.278196 135.659761 
L 409.024 134.398604 
L 414.515607 131.540337 
L 425.498822 125.480808 
L 428.244626 124.119194 
L 430.990429 122.895674 
L 433.736233 121.845992 
L 436.482037 121.003188 
L 439.227841 120.396946 
L 441.973644 120.053036 
L 444.719448 119.992857 
L 447.465252 120.23309 
L 450.211055 120.785472 
L 452.956859 121.656699 
L 455.702663 122.848438 
L 458.448467 124.357474 
L 461.19427 126.175953 
L 463.940074 128.291734 
L 466.685878 130.68882 
L 469.431682 133.347862 
L 472.177485 136.246717 
L 474.923289 139.361029 
L 480.414896 146.131163 
L 485.906504 153.441833 
L 494.143915 164.954517 
L 505.12713 180.346851 
L 510.618737 187.733128 
L 516.110345 194.777887 
L 521.601952 201.417132 
L 527.09356 207.611202 
L 532.585167 213.339644 
L 538.076775 218.59666 
L 543.568382 223.38765 
L 549.05999 227.72696 
L 554.551597 231.636624 
L 560.043205 235.145632 
L 565.534812 238.289232 
L 571.026419 241.107838 
L 576.518027 243.645321 
L 582.009634 245.946671 
L 587.501242 248.05526 
L 595.738653 250.940168 
L 603.976064 253.578532 
L 612.213475 256.027277 
L 620.450887 258.299907 
L 628.688298 260.377537 
L 636.925709 262.225868 
L 645.16312 263.812443 
L 653.400531 265.119397 
L 661.637942 266.14932 
L 669.875354 266.924419 
L 678.112765 267.481062 
L 689.09598 267.958184 
L 702.824998 268.26723 
L 708.316606 268.334371 
L 708.316606 268.334371 
" style="fill:none;stroke:#55a868;stroke-linecap:round;stroke-width:1.5;"/>
   </g>
   <g id="line2d_17">
    <path clip-path="url(#pe38c651e0c)" d="M 131.761963 268.249754 
L 139.556939 267.968313 
L 145.403171 267.580806 
L 151.249403 266.953112 
L 155.146891 266.349246 
L 159.044379 265.55357 
L 162.941867 264.524144 
L 166.839355 263.216196 
L 170.736844 261.583876 
L 174.634332 259.582465 
L 178.53182 257.170938 
L 182.429308 254.314665 
L 186.326796 250.988013 
L 190.224284 247.176574 
L 194.121772 242.878731 
L 198.01926 238.10632 
L 201.916748 232.88425 
L 205.814236 227.249003 
L 209.711724 221.246123 
L 213.609212 214.926915 
L 219.455444 204.971184 
L 225.301676 194.591893 
L 233.096652 180.322709 
L 242.840373 162.043843 
L 252.584093 143.357314 
L 262.327813 124.239846 
L 277.917765 93.020716 
L 285.712741 77.617974 
L 291.558973 66.593046 
L 295.456461 59.706865 
L 299.353949 53.364244 
L 301.302694 50.449771 
L 303.251438 47.736711 
L 305.200182 45.248319 
L 307.148926 43.007837 
L 309.09767 41.038008 
L 311.046414 39.360549 
L 312.995158 37.995587 
L 314.943902 36.961095 
L 316.892646 36.272322 
L 318.84139 35.941255 
L 320.790134 35.976128 
L 322.738878 36.380995 
L 324.687622 37.155391 
L 326.636366 38.294093 
L 328.58511 39.787001 
L 330.533854 41.61914 
L 332.482598 43.770804 
L 334.431342 46.217827 
L 336.380086 48.931991 
L 340.277574 55.031917 
L 344.175062 61.786687 
L 357.81627 86.325379 
L 361.713758 92.598844 
L 365.611246 98.299109 
L 369.508735 103.427436 
L 373.406223 108.065784 
L 379.252455 114.441407 
L 385.098687 120.719676 
L 388.996175 125.197949 
L 392.893663 130.119347 
L 396.791151 135.610472 
L 400.688639 141.738409 
L 404.586127 148.507382 
L 408.483615 155.862743 
L 412.381103 163.70091 
L 418.227335 176.054418 
L 427.971055 196.904973 
L 431.868543 204.899846 
L 435.766032 212.516187 
L 439.66352 219.668355 
L 443.561008 226.296612 
L 447.458496 232.364678 
L 451.355984 237.856209 
L 455.253472 242.770993 
L 459.15096 247.121399 
L 463.048448 250.929399 
L 466.945936 254.224216 
L 470.843424 257.04053 
L 474.740912 259.417046 
L 478.6384 261.395284 
L 482.535888 263.018419 
L 486.433376 264.330139 
L 490.330864 265.37349 
L 494.228352 266.189779 
L 498.125841 266.817602 
L 503.972073 267.48165 
L 509.818305 267.900856 
L 517.613281 268.213281 
L 519.562025 268.261886 
L 519.562025 268.261886 
" style="fill:none;stroke:#dd8452;stroke-linecap:round;stroke-width:1.5;"/>
   </g>
   <g id="line2d_18">
    <path clip-path="url(#pe38c651e0c)" d="M 187.746859 268.106812 
L 195.931117 267.693029 
L 202.06931 267.152416 
L 206.161439 266.633367 
L 210.253568 265.95008 
L 214.345697 265.066432 
L 218.437826 263.943742 
L 222.529955 262.542267 
L 226.622084 260.823147 
L 230.714213 258.750658 
L 234.806343 256.294619 
L 238.898472 253.432725 
L 242.990601 250.152551 
L 247.08273 246.452971 
L 251.174859 242.344776 
L 255.266988 237.850379 
L 259.359117 233.002584 
L 263.451246 227.842544 
L 269.589439 219.620496 
L 275.727633 210.969874 
L 285.957956 196.037562 
L 300.280407 175.114212 
L 306.418601 166.469975 
L 312.556794 158.185028 
L 318.694988 150.370989 
L 322.787117 145.471141 
L 326.879246 140.84295 
L 330.971375 136.496217 
L 335.063504 132.429098 
L 339.155633 128.627565 
L 343.247762 125.066403 
L 349.385956 120.099998 
L 355.524149 115.468622 
L 363.708407 109.621597 
L 371.892666 104.035704 
L 378.030859 100.050354 
L 384.169053 96.329128 
L 388.261182 94.040719 
L 392.353311 91.930232 
L 396.44544 90.005797 
L 400.537569 88.261998 
L 406.675762 85.942907 
L 412.813956 83.897441 
L 418.95215 82.050326 
L 425.090343 80.41159 
L 429.182472 79.505053 
L 433.274601 78.846703 
L 437.36673 78.559638 
L 439.412795 78.601388 
L 441.458859 78.793663 
L 443.504924 79.15752 
L 445.550988 79.714097 
L 447.597053 80.484101 
L 449.643117 81.487293 
L 451.689182 82.741973 
L 453.735247 84.264491 
L 455.781311 86.068787 
L 457.827376 88.165982 
L 459.87344 90.564037 
L 461.919505 93.267474 
L 463.965569 96.277188 
L 466.011634 99.590334 
L 468.057698 103.200305 
L 470.103763 107.0968 
L 472.149827 111.265965 
L 476.241956 120.350568 
L 480.334085 130.282472 
L 484.426214 140.853835 
L 490.564408 157.404493 
L 498.748666 179.541167 
L 502.840795 190.159874 
L 506.932924 200.245078 
L 511.025053 209.665157 
L 515.117182 218.325796 
L 519.209311 226.168863 
L 523.30144 233.169323 
L 525.347505 236.353732 
L 527.393569 239.33082 
L 529.439634 242.10468 
L 531.485698 244.680537 
L 533.531763 247.064589 
L 535.577827 249.263846 
L 537.623892 251.285975 
L 539.669956 253.139158 
L 541.716021 254.831961 
L 543.762086 256.373211 
L 547.854215 259.036991 
L 551.946344 261.202333 
L 556.038473 262.939216 
L 560.130602 264.313733 
L 564.222731 265.386656 
L 568.31486 266.212539 
L 572.406989 266.83928 
L 578.545182 267.494283 
L 584.683376 267.90437 
L 592.867634 268.209997 
L 594.913699 268.257847 
L 594.913699 268.257847 
" style="fill:none;stroke:#4c72b0;stroke-linecap:round;stroke-width:1.5;"/>
   </g>
   <g id="patch_3">
    <path d="M 52.484375 268.469448 
L 52.484375 24.321105 
" style="fill:none;stroke:#ffffff;stroke-linecap:square;stroke-linejoin:miter;stroke-width:0.8;"/>
   </g>
   <g id="patch_4">
    <path d="M 817.733895 268.469448 
L 817.733895 24.321105 
" style="fill:none;stroke:#ffffff;stroke-linecap:square;stroke-linejoin:miter;stroke-width:0.8;"/>
   </g>
   <g id="patch_5">
    <path d="M 52.484375 268.469448 
L 817.733895 268.469448 
" style="fill:none;stroke:#ffffff;stroke-linecap:square;stroke-linejoin:miter;stroke-width:0.8;"/>
   </g>
   <g id="patch_6">
    <path d="M 52.484375 24.321105 
L 817.733895 24.321105 
" style="fill:none;stroke:#ffffff;stroke-linecap:square;stroke-linejoin:miter;stroke-width:0.8;"/>
   </g>
   <g id="legend_1">
    <g id="patch_7">
     <path d="M 772.26827 117.19298 
L 810.733895 117.19298 
Q 812.733895 117.19298 812.733895 115.19298 
L 812.733895 31.321105 
Q 812.733895 29.321105 810.733895 29.321105 
L 772.26827 29.321105 
Q 770.26827 29.321105 770.26827 31.321105 
L 770.26827 115.19298 
Q 770.26827 117.19298 772.26827 117.19298 
z
" style="fill:#e6e6e6;opacity:0.8;stroke:#cccccc;stroke-linejoin:miter;"/>
    </g>
    <g id="text_16">
     <!-- location -->
     <g style="fill:#262626;" transform="translate(774.26827 40.478917)scale(0.1 -0.1)">
      <defs>
       <path d="M 409 0 
L 409 4581 
L 972 4581 
L 972 0 
L 409 0 
z
" id="ArialMT-6c" transform="scale(0.015625)"/>
       <path d="M 213 1659 
Q 213 2581 725 3025 
Q 1153 3394 1769 3394 
Q 2453 3394 2887 2945 
Q 3322 2497 3322 1706 
Q 3322 1066 3130 698 
Q 2938 331 2570 128 
Q 2203 -75 1769 -75 
Q 1072 -75 642 372 
Q 213 819 213 1659 
z
M 791 1659 
Q 791 1022 1069 705 
Q 1347 388 1769 388 
Q 2188 388 2466 706 
Q 2744 1025 2744 1678 
Q 2744 2294 2464 2611 
Q 2184 2928 1769 2928 
Q 1347 2928 1069 2612 
Q 791 2297 791 1659 
z
" id="ArialMT-6f" transform="scale(0.015625)"/>
       <path d="M 2588 409 
Q 2275 144 1986 34 
Q 1697 -75 1366 -75 
Q 819 -75 525 192 
Q 231 459 231 875 
Q 231 1119 342 1320 
Q 453 1522 633 1644 
Q 813 1766 1038 1828 
Q 1203 1872 1538 1913 
Q 2219 1994 2541 2106 
Q 2544 2222 2544 2253 
Q 2544 2597 2384 2738 
Q 2169 2928 1744 2928 
Q 1347 2928 1158 2789 
Q 969 2650 878 2297 
L 328 2372 
Q 403 2725 575 2942 
Q 747 3159 1072 3276 
Q 1397 3394 1825 3394 
Q 2250 3394 2515 3294 
Q 2781 3194 2906 3042 
Q 3031 2891 3081 2659 
Q 3109 2516 3109 2141 
L 3109 1391 
Q 3109 606 3145 398 
Q 3181 191 3288 0 
L 2700 0 
Q 2613 175 2588 409 
z
M 2541 1666 
Q 2234 1541 1622 1453 
Q 1275 1403 1131 1340 
Q 988 1278 909 1158 
Q 831 1038 831 891 
Q 831 666 1001 516 
Q 1172 366 1500 366 
Q 1825 366 2078 508 
Q 2331 650 2450 897 
Q 2541 1088 2541 1459 
L 2541 1666 
z
" id="ArialMT-61" transform="scale(0.015625)"/>
      </defs>
      <use xlink:href="#ArialMT-6c"/>
      <use x="22.216797" xlink:href="#ArialMT-6f"/>
      <use x="77.832031" xlink:href="#ArialMT-63"/>
      <use x="127.832031" xlink:href="#ArialMT-61"/>
      <use x="183.447266" xlink:href="#ArialMT-74"/>
      <use x="211.230469" xlink:href="#ArialMT-69"/>
      <use x="233.447266" xlink:href="#ArialMT-6f"/>
      <use x="289.0625" xlink:href="#ArialMT-6e"/>
     </g>
    </g>
    <g id="line2d_19">
     <path d="M 774.720614 51.12423 
L 794.720614 51.12423 
" style="fill:none;stroke:#4c72b0;stroke-linecap:round;stroke-width:1.5;"/>
    </g>
    <g id="line2d_20"/>
    <g id="text_17">
     <!-- 1 -->
     <g style="fill:#262626;" transform="translate(802.720614 54.62423)scale(0.1 -0.1)">
      <use xlink:href="#ArialMT-31"/>
     </g>
    </g>
    <g id="line2d_21">
     <path d="M 774.720614 65.269543 
L 794.720614 65.269543 
" style="fill:none;stroke:#dd8452;stroke-linecap:round;stroke-width:1.5;"/>
    </g>
    <g id="line2d_22"/>
    <g id="text_18">
     <!-- 2 -->
     <g style="fill:#262626;" transform="translate(802.720614 68.769543)scale(0.1 -0.1)">
      <use xlink:href="#ArialMT-32"/>
     </g>
    </g>
    <g id="line2d_23">
     <path d="M 774.720614 79.414855 
L 794.720614 79.414855 
" style="fill:none;stroke:#55a868;stroke-linecap:round;stroke-width:1.5;"/>
    </g>
    <g id="line2d_24"/>
    <g id="text_19">
     <!-- 3 -->
     <g style="fill:#262626;" transform="translate(802.720614 82.914855)scale(0.1 -0.1)">
      <defs>
       <path d="M 269 1209 
L 831 1284 
Q 928 806 1161 595 
Q 1394 384 1728 384 
Q 2125 384 2398 659 
Q 2672 934 2672 1341 
Q 2672 1728 2419 1979 
Q 2166 2231 1775 2231 
Q 1616 2231 1378 2169 
L 1441 2663 
Q 1497 2656 1531 2656 
Q 1891 2656 2178 2843 
Q 2466 3031 2466 3422 
Q 2466 3731 2256 3934 
Q 2047 4138 1716 4138 
Q 1388 4138 1169 3931 
Q 950 3725 888 3313 
L 325 3413 
Q 428 3978 793 4289 
Q 1159 4600 1703 4600 
Q 2078 4600 2393 4439 
Q 2709 4278 2876 4000 
Q 3044 3722 3044 3409 
Q 3044 3113 2884 2869 
Q 2725 2625 2413 2481 
Q 2819 2388 3044 2092 
Q 3269 1797 3269 1353 
Q 3269 753 2831 336 
Q 2394 -81 1725 -81 
Q 1122 -81 723 278 
Q 325 638 269 1209 
z
" id="ArialMT-33" transform="scale(0.015625)"/>
      </defs>
      <use xlink:href="#ArialMT-33"/>
     </g>
    </g>
    <g id="line2d_25">
     <path d="M 774.720614 93.560168 
L 794.720614 93.560168 
" style="fill:none;stroke:#c44e52;stroke-linecap:round;stroke-width:1.5;"/>
    </g>
    <g id="line2d_26"/>
    <g id="text_20">
     <!-- 4 -->
     <g style="fill:#262626;" transform="translate(802.720614 97.060168)scale(0.1 -0.1)">
      <defs>
       <path d="M 2069 0 
L 2069 1097 
L 81 1097 
L 81 1613 
L 2172 4581 
L 2631 4581 
L 2631 1613 
L 3250 1613 
L 3250 1097 
L 2631 1097 
L 2631 0 
L 2069 0 
z
M 2069 1613 
L 2069 3678 
L 634 1613 
L 2069 1613 
z
" id="ArialMT-34" transform="scale(0.015625)"/>
      </defs>
      <use xlink:href="#ArialMT-34"/>
     </g>
    </g>
    <g id="line2d_27">
     <path d="M 774.720614 107.70548 
L 794.720614 107.70548 
" style="fill:none;stroke:#8172b3;stroke-linecap:round;stroke-width:1.5;"/>
    </g>
    <g id="line2d_28"/>
    <g id="text_21">
     <!-- 5 -->
     <g style="fill:#262626;" transform="translate(802.720614 111.20548)scale(0.1 -0.1)">
      <use xlink:href="#ArialMT-35"/>
     </g>
    </g>
   </g>
  </g>
  <g id="axes_2">
   <g id="patch_8">
    <path d="M 52.484375 547.908895 
L 817.733895 547.908895 
L 817.733895 303.760552 
L 52.484375 303.760552 
z
" style="fill:#e6e6e6;"/>
   </g>
   <g id="matplotlib.axis_3">
    <g id="xtick_8">
     <g id="text_22">
      <!-- 1 -->
      <g style="fill:#262626;" transform="translate(126.228858 562.066707)scale(0.1 -0.1)">
       <use xlink:href="#ArialMT-31"/>
      </g>
     </g>
    </g>
    <g id="xtick_9">
     <g id="text_23">
      <!-- 2 -->
      <g style="fill:#262626;" transform="translate(279.278762 562.066707)scale(0.1 -0.1)">
       <use xlink:href="#ArialMT-32"/>
      </g>
     </g>
    </g>
    <g id="xtick_10">
     <g id="text_24">
      <!-- 3 -->
      <g style="fill:#262626;" transform="translate(432.328666 562.066707)scale(0.1 -0.1)">
       <use xlink:href="#ArialMT-33"/>
      </g>
     </g>
    </g>
    <g id="xtick_11">
     <g id="text_25">
      <!-- 4 -->
      <g style="fill:#262626;" transform="translate(585.37857 562.066707)scale(0.1 -0.1)">
       <use xlink:href="#ArialMT-34"/>
      </g>
     </g>
    </g>
    <g id="xtick_12">
     <g id="text_26">
      <!-- 5 -->
      <g style="fill:#262626;" transform="translate(738.428474 562.066707)scale(0.1 -0.1)">
       <use xlink:href="#ArialMT-35"/>
      </g>
     </g>
    </g>
    <g id="text_27">
     <!-- location -->
     <g style="fill:#262626;" transform="translate(417.876322 575.21202)scale(0.1 -0.1)">
      <use xlink:href="#ArialMT-6c"/>
      <use x="22.216797" xlink:href="#ArialMT-6f"/>
      <use x="77.832031" xlink:href="#ArialMT-63"/>
      <use x="127.832031" xlink:href="#ArialMT-61"/>
      <use x="183.447266" xlink:href="#ArialMT-74"/>
      <use x="211.230469" xlink:href="#ArialMT-69"/>
      <use x="233.447266" xlink:href="#ArialMT-6f"/>
      <use x="289.0625" xlink:href="#ArialMT-6e"/>
     </g>
    </g>
   </g>
   <g id="matplotlib.axis_4">
    <g id="ytick_7">
     <g id="line2d_29">
      <path clip-path="url(#pa04b15f526)" d="M 52.484375 547.908895 
L 817.733895 547.908895 
" style="fill:none;stroke:#cccccc;stroke-linecap:round;stroke-width:0.8;"/>
     </g>
     <g id="text_28">
      <!-- 0.0 -->
      <g style="fill:#262626;" transform="translate(31.584375 551.487801)scale(0.1 -0.1)">
       <use xlink:href="#ArialMT-30"/>
       <use x="55.615234" xlink:href="#ArialMT-2e"/>
       <use x="83.398438" xlink:href="#ArialMT-30"/>
      </g>
     </g>
    </g>
    <g id="ytick_8">
     <g id="line2d_30">
      <path clip-path="url(#pa04b15f526)" d="M 52.484375 520.164765 
L 817.733895 520.164765 
" style="fill:none;stroke:#cccccc;stroke-linecap:round;stroke-width:0.8;"/>
     </g>
     <g id="text_29">
      <!-- 2.5 -->
      <g style="fill:#262626;" transform="translate(31.584375 523.743671)scale(0.1 -0.1)">
       <use xlink:href="#ArialMT-32"/>
       <use x="55.615234" xlink:href="#ArialMT-2e"/>
       <use x="83.398438" xlink:href="#ArialMT-35"/>
      </g>
     </g>
    </g>
    <g id="ytick_9">
     <g id="line2d_31">
      <path clip-path="url(#pa04b15f526)" d="M 52.484375 492.420635 
L 817.733895 492.420635 
" style="fill:none;stroke:#cccccc;stroke-linecap:round;stroke-width:0.8;"/>
     </g>
     <g id="text_30">
      <!-- 5.0 -->
      <g style="fill:#262626;" transform="translate(31.584375 495.999542)scale(0.1 -0.1)">
       <use xlink:href="#ArialMT-35"/>
       <use x="55.615234" xlink:href="#ArialMT-2e"/>
       <use x="83.398438" xlink:href="#ArialMT-30"/>
      </g>
     </g>
    </g>
    <g id="ytick_10">
     <g id="line2d_32">
      <path clip-path="url(#pa04b15f526)" d="M 52.484375 464.676506 
L 817.733895 464.676506 
" style="fill:none;stroke:#cccccc;stroke-linecap:round;stroke-width:0.8;"/>
     </g>
     <g id="text_31">
      <!-- 7.5 -->
      <g style="fill:#262626;" transform="translate(31.584375 468.255412)scale(0.1 -0.1)">
       <defs>
        <path d="M 303 3981 
L 303 4522 
L 3269 4522 
L 3269 4084 
Q 2831 3619 2401 2847 
Q 1972 2075 1738 1259 
Q 1569 684 1522 0 
L 944 0 
Q 953 541 1156 1306 
Q 1359 2072 1739 2783 
Q 2119 3494 2547 3981 
L 303 3981 
z
" id="ArialMT-37" transform="scale(0.015625)"/>
       </defs>
       <use xlink:href="#ArialMT-37"/>
       <use x="55.615234" xlink:href="#ArialMT-2e"/>
       <use x="83.398438" xlink:href="#ArialMT-35"/>
      </g>
     </g>
    </g>
    <g id="ytick_11">
     <g id="line2d_33">
      <path clip-path="url(#pa04b15f526)" d="M 52.484375 436.932376 
L 817.733895 436.932376 
" style="fill:none;stroke:#cccccc;stroke-linecap:round;stroke-width:0.8;"/>
     </g>
     <g id="text_32">
      <!-- 10.0 -->
      <g style="fill:#262626;" transform="translate(26.023438 440.511282)scale(0.1 -0.1)">
       <use xlink:href="#ArialMT-31"/>
       <use x="55.615234" xlink:href="#ArialMT-30"/>
       <use x="111.230469" xlink:href="#ArialMT-2e"/>
       <use x="139.013672" xlink:href="#ArialMT-30"/>
      </g>
     </g>
    </g>
    <g id="ytick_12">
     <g id="line2d_34">
      <path clip-path="url(#pa04b15f526)" d="M 52.484375 409.188246 
L 817.733895 409.188246 
" style="fill:none;stroke:#cccccc;stroke-linecap:round;stroke-width:0.8;"/>
     </g>
     <g id="text_33">
      <!-- 12.5 -->
      <g style="fill:#262626;" transform="translate(26.023438 412.767152)scale(0.1 -0.1)">
       <use xlink:href="#ArialMT-31"/>
       <use x="55.615234" xlink:href="#ArialMT-32"/>
       <use x="111.230469" xlink:href="#ArialMT-2e"/>
       <use x="139.013672" xlink:href="#ArialMT-35"/>
      </g>
     </g>
    </g>
    <g id="ytick_13">
     <g id="line2d_35">
      <path clip-path="url(#pa04b15f526)" d="M 52.484375 381.444116 
L 817.733895 381.444116 
" style="fill:none;stroke:#cccccc;stroke-linecap:round;stroke-width:0.8;"/>
     </g>
     <g id="text_34">
      <!-- 15.0 -->
      <g style="fill:#262626;" transform="translate(26.023438 385.023022)scale(0.1 -0.1)">
       <use xlink:href="#ArialMT-31"/>
       <use x="55.615234" xlink:href="#ArialMT-35"/>
       <use x="111.230469" xlink:href="#ArialMT-2e"/>
       <use x="139.013672" xlink:href="#ArialMT-30"/>
      </g>
     </g>
    </g>
    <g id="ytick_14">
     <g id="line2d_36">
      <path clip-path="url(#pa04b15f526)" d="M 52.484375 353.699986 
L 817.733895 353.699986 
" style="fill:none;stroke:#cccccc;stroke-linecap:round;stroke-width:0.8;"/>
     </g>
     <g id="text_35">
      <!-- 17.5 -->
      <g style="fill:#262626;" transform="translate(26.023438 357.278892)scale(0.1 -0.1)">
       <use xlink:href="#ArialMT-31"/>
       <use x="55.615234" xlink:href="#ArialMT-37"/>
       <use x="111.230469" xlink:href="#ArialMT-2e"/>
       <use x="139.013672" xlink:href="#ArialMT-35"/>
      </g>
     </g>
    </g>
    <g id="ytick_15">
     <g id="line2d_37">
      <path clip-path="url(#pa04b15f526)" d="M 52.484375 325.955856 
L 817.733895 325.955856 
" style="fill:none;stroke:#cccccc;stroke-linecap:round;stroke-width:0.8;"/>
     </g>
     <g id="text_36">
      <!-- 20.0 -->
      <g style="fill:#262626;" transform="translate(26.023438 329.534763)scale(0.1 -0.1)">
       <use xlink:href="#ArialMT-32"/>
       <use x="55.615234" xlink:href="#ArialMT-30"/>
       <use x="111.230469" xlink:href="#ArialMT-2e"/>
       <use x="139.013672" xlink:href="#ArialMT-30"/>
      </g>
     </g>
    </g>
    <g id="text_37">
     <!-- chips -->
     <g style="fill:#262626;" transform="translate(20.035938 437.506599)rotate(-90)scale(0.1 -0.1)">
      <use xlink:href="#ArialMT-63"/>
      <use x="50" xlink:href="#ArialMT-68"/>
      <use x="105.615234" xlink:href="#ArialMT-69"/>
      <use x="127.832031" xlink:href="#ArialMT-70"/>
      <use x="183.447266" xlink:href="#ArialMT-73"/>
     </g>
    </g>
   </g>
   <g id="patch_9">
    <path clip-path="url(#pa04b15f526)" d="M 67.789365 470.225331 
L 190.229289 470.225331 
L 190.229289 414.737072 
L 67.789365 414.737072 
L 67.789365 470.225331 
z
" style="fill:#5875a4;stroke:#4c4c4c;stroke-linejoin:miter;stroke-width:1.5;"/>
   </g>
   <g id="patch_10">
    <path clip-path="url(#pa04b15f526)" d="M 220.839269 503.518287 
L 343.279193 503.518287 
L 343.279193 461.902093 
L 220.839269 461.902093 
L 220.839269 503.518287 
z
" style="fill:#cc8963;stroke:#4c4c4c;stroke-linejoin:miter;stroke-width:1.5;"/>
   </g>
   <g id="patch_11">
    <path clip-path="url(#pa04b15f526)" d="M 373.889173 478.54857 
L 496.329097 478.54857 
L 496.329097 414.737072 
L 373.889173 414.737072 
L 373.889173 478.54857 
z
" style="fill:#5f9e6e;stroke:#4c4c4c;stroke-linejoin:miter;stroke-width:1.5;"/>
   </g>
   <g id="patch_12">
    <path clip-path="url(#pa04b15f526)" d="M 526.939077 470.225331 
L 649.379001 470.225331 
L 649.379001 420.285898 
L 526.939077 420.285898 
L 526.939077 470.225331 
z
" style="fill:#b55d60;stroke:#4c4c4c;stroke-linejoin:miter;stroke-width:1.5;"/>
   </g>
   <g id="patch_13">
    <path clip-path="url(#pa04b15f526)" d="M 679.988981 436.932376 
L 802.428905 436.932376 
L 802.428905 381.444116 
L 679.988981 381.444116 
L 679.988981 436.932376 
z
" style="fill:#857aab;stroke:#4c4c4c;stroke-linejoin:miter;stroke-width:1.5;"/>
   </g>
   <g id="patch_14">
    <path clip-path="url(#pa04b15f526)" d="M 129.009327 547.908895 
L 129.009327 547.908895 
L 129.009327 547.908895 
L 129.009327 547.908895 
z
" style="fill:#5875a4;stroke:#4c4c4c;stroke-linejoin:miter;stroke-width:0.75;"/>
   </g>
   <g id="patch_15">
    <path clip-path="url(#pa04b15f526)" d="M 129.009327 547.908895 
L 129.009327 547.908895 
L 129.009327 547.908895 
L 129.009327 547.908895 
z
" style="fill:#cc8963;stroke:#4c4c4c;stroke-linejoin:miter;stroke-width:0.75;"/>
   </g>
   <g id="patch_16">
    <path clip-path="url(#pa04b15f526)" d="M 129.009327 547.908895 
L 129.009327 547.908895 
L 129.009327 547.908895 
L 129.009327 547.908895 
z
" style="fill:#5f9e6e;stroke:#4c4c4c;stroke-linejoin:miter;stroke-width:0.75;"/>
   </g>
   <g id="patch_17">
    <path clip-path="url(#pa04b15f526)" d="M 129.009327 547.908895 
L 129.009327 547.908895 
L 129.009327 547.908895 
L 129.009327 547.908895 
z
" style="fill:#b55d60;stroke:#4c4c4c;stroke-linejoin:miter;stroke-width:0.75;"/>
   </g>
   <g id="patch_18">
    <path clip-path="url(#pa04b15f526)" d="M 129.009327 547.908895 
L 129.009327 547.908895 
L 129.009327 547.908895 
L 129.009327 547.908895 
z
" style="fill:#857aab;stroke:#4c4c4c;stroke-linejoin:miter;stroke-width:0.75;"/>
   </g>
   <g id="line2d_38">
    <path clip-path="url(#pa04b15f526)" d="M 129.009327 470.225331 
L 129.009327 503.518287 
" style="fill:none;stroke:#4c4c4c;stroke-linecap:round;stroke-width:1.5;"/>
   </g>
   <g id="line2d_39">
    <path clip-path="url(#pa04b15f526)" d="M 129.009327 414.737072 
L 129.009327 392.541768 
" style="fill:none;stroke:#4c4c4c;stroke-linecap:round;stroke-width:1.5;"/>
   </g>
   <g id="line2d_40">
    <path clip-path="url(#pa04b15f526)" d="M 98.399346 503.518287 
L 159.619308 503.518287 
" style="fill:none;stroke:#4c4c4c;stroke-linecap:round;stroke-width:1.5;"/>
   </g>
   <g id="line2d_41">
    <path clip-path="url(#pa04b15f526)" d="M 98.399346 392.541768 
L 159.619308 392.541768 
" style="fill:none;stroke:#4c4c4c;stroke-linecap:round;stroke-width:1.5;"/>
   </g>
   <g id="line2d_42"/>
   <g id="line2d_43">
    <path clip-path="url(#pa04b15f526)" d="M 282.059231 503.518287 
L 282.059231 536.811243 
" style="fill:none;stroke:#4c4c4c;stroke-linecap:round;stroke-width:1.5;"/>
   </g>
   <g id="line2d_44">
    <path clip-path="url(#pa04b15f526)" d="M 282.059231 461.902093 
L 282.059231 425.834724 
" style="fill:none;stroke:#4c4c4c;stroke-linecap:round;stroke-width:1.5;"/>
   </g>
   <g id="line2d_45">
    <path clip-path="url(#pa04b15f526)" d="M 251.44925 536.811243 
L 312.669212 536.811243 
" style="fill:none;stroke:#4c4c4c;stroke-linecap:round;stroke-width:1.5;"/>
   </g>
   <g id="line2d_46">
    <path clip-path="url(#pa04b15f526)" d="M 251.44925 425.834724 
L 312.669212 425.834724 
" style="fill:none;stroke:#4c4c4c;stroke-linecap:round;stroke-width:1.5;"/>
   </g>
   <g id="line2d_47"/>
   <g id="line2d_48">
    <path clip-path="url(#pa04b15f526)" d="M 435.109135 478.54857 
L 435.109135 503.518287 
" style="fill:none;stroke:#4c4c4c;stroke-linecap:round;stroke-width:1.5;"/>
   </g>
   <g id="line2d_49">
    <path clip-path="url(#pa04b15f526)" d="M 435.109135 414.737072 
L 435.109135 348.15116 
" style="fill:none;stroke:#4c4c4c;stroke-linecap:round;stroke-width:1.5;"/>
   </g>
   <g id="line2d_50">
    <path clip-path="url(#pa04b15f526)" d="M 404.499154 503.518287 
L 465.719116 503.518287 
" style="fill:none;stroke:#4c4c4c;stroke-linecap:round;stroke-width:1.5;"/>
   </g>
   <g id="line2d_51">
    <path clip-path="url(#pa04b15f526)" d="M 404.499154 348.15116 
L 465.719116 348.15116 
" style="fill:none;stroke:#4c4c4c;stroke-linecap:round;stroke-width:1.5;"/>
   </g>
   <g id="line2d_52"/>
   <g id="line2d_53">
    <path clip-path="url(#pa04b15f526)" d="M 588.159039 470.225331 
L 588.159039 536.811243 
" style="fill:none;stroke:#4c4c4c;stroke-linecap:round;stroke-width:1.5;"/>
   </g>
   <g id="line2d_54">
    <path clip-path="url(#pa04b15f526)" d="M 588.159039 420.285898 
L 588.159039 381.444116 
" style="fill:none;stroke:#4c4c4c;stroke-linecap:round;stroke-width:1.5;"/>
   </g>
   <g id="line2d_55">
    <path clip-path="url(#pa04b15f526)" d="M 557.549058 536.811243 
L 618.76902 536.811243 
" style="fill:none;stroke:#4c4c4c;stroke-linecap:round;stroke-width:1.5;"/>
   </g>
   <g id="line2d_56">
    <path clip-path="url(#pa04b15f526)" d="M 557.549058 381.444116 
L 618.76902 381.444116 
" style="fill:none;stroke:#4c4c4c;stroke-linecap:round;stroke-width:1.5;"/>
   </g>
   <g id="line2d_57">
    <defs>
     <path d="M -0 3.535534 
L 2.12132 0 
L -0 -3.535534 
L -2.12132 -0 
z
" id="mad6ea6e9ee" style="stroke:#4c4c4c;stroke-linejoin:miter;"/>
    </defs>
    <g clip-path="url(#pa04b15f526)">
     <use style="fill:#4c4c4c;stroke:#4c4c4c;stroke-linejoin:miter;" x="588.159039" xlink:href="#mad6ea6e9ee" y="314.858204"/>
    </g>
   </g>
   <g id="line2d_58">
    <path clip-path="url(#pa04b15f526)" d="M 741.208943 436.932376 
L 741.208943 481.322983 
" style="fill:none;stroke:#4c4c4c;stroke-linecap:round;stroke-width:1.5;"/>
   </g>
   <g id="line2d_59">
    <path clip-path="url(#pa04b15f526)" d="M 741.208943 381.444116 
L 741.208943 325.955856 
" style="fill:none;stroke:#4c4c4c;stroke-linecap:round;stroke-width:1.5;"/>
   </g>
   <g id="line2d_60">
    <path clip-path="url(#pa04b15f526)" d="M 710.598962 481.322983 
L 771.818924 481.322983 
" style="fill:none;stroke:#4c4c4c;stroke-linecap:round;stroke-width:1.5;"/>
   </g>
   <g id="line2d_61">
    <path clip-path="url(#pa04b15f526)" d="M 710.598962 325.955856 
L 771.818924 325.955856 
" style="fill:none;stroke:#4c4c4c;stroke-linecap:round;stroke-width:1.5;"/>
   </g>
   <g id="line2d_62"/>
   <g id="line2d_63">
    <path clip-path="url(#pa04b15f526)" d="M 67.789365 442.481202 
L 190.229289 442.481202 
" style="fill:none;stroke:#4c4c4c;stroke-linecap:round;stroke-width:1.5;"/>
   </g>
   <g id="line2d_64">
    <path clip-path="url(#pa04b15f526)" d="M 220.839269 481.322983 
L 343.279193 481.322983 
" style="fill:none;stroke:#4c4c4c;stroke-linecap:round;stroke-width:1.5;"/>
   </g>
   <g id="line2d_65">
    <path clip-path="url(#pa04b15f526)" d="M 373.889173 436.932376 
L 496.329097 436.932376 
" style="fill:none;stroke:#4c4c4c;stroke-linecap:round;stroke-width:1.5;"/>
   </g>
   <g id="line2d_66">
    <path clip-path="url(#pa04b15f526)" d="M 526.939077 459.12768 
L 649.379001 459.12768 
" style="fill:none;stroke:#4c4c4c;stroke-linecap:round;stroke-width:1.5;"/>
   </g>
   <g id="line2d_67">
    <path clip-path="url(#pa04b15f526)" d="M 679.988981 425.834724 
L 802.428905 425.834724 
" style="fill:none;stroke:#4c4c4c;stroke-linecap:round;stroke-width:1.5;"/>
   </g>
   <g id="patch_19">
    <path d="M 52.484375 547.908895 
L 52.484375 303.760552 
" style="fill:none;stroke:#ffffff;stroke-linecap:square;stroke-linejoin:miter;stroke-width:0.8;"/>
   </g>
   <g id="patch_20">
    <path d="M 817.733895 547.908895 
L 817.733895 303.760552 
" style="fill:none;stroke:#ffffff;stroke-linecap:square;stroke-linejoin:miter;stroke-width:0.8;"/>
   </g>
   <g id="patch_21">
    <path d="M 52.484375 547.908895 
L 817.733895 547.908895 
" style="fill:none;stroke:#ffffff;stroke-linecap:square;stroke-linejoin:miter;stroke-width:0.8;"/>
   </g>
   <g id="patch_22">
    <path d="M 52.484375 303.760552 
L 817.733895 303.760552 
" style="fill:none;stroke:#ffffff;stroke-linecap:square;stroke-linejoin:miter;stroke-width:0.8;"/>
   </g>
   <g id="legend_2">
    <g id="patch_23">
     <path d="M 824.733895 469.770661 
L 863.19952 469.770661 
Q 865.19952 469.770661 865.19952 467.770661 
L 865.19952 383.898786 
Q 865.19952 381.898786 863.19952 381.898786 
L 824.733895 381.898786 
Q 822.733895 381.898786 822.733895 383.898786 
L 822.733895 467.770661 
Q 822.733895 469.770661 824.733895 469.770661 
z
" style="fill:#e6e6e6;opacity:0.8;stroke:#cccccc;stroke-linejoin:miter;"/>
    </g>
    <g id="text_38">
     <!-- location -->
     <g style="fill:#262626;" transform="translate(826.733895 393.056599)scale(0.1 -0.1)">
      <use xlink:href="#ArialMT-6c"/>
      <use x="22.216797" xlink:href="#ArialMT-6f"/>
      <use x="77.832031" xlink:href="#ArialMT-63"/>
      <use x="127.832031" xlink:href="#ArialMT-61"/>
      <use x="183.447266" xlink:href="#ArialMT-74"/>
      <use x="211.230469" xlink:href="#ArialMT-69"/>
      <use x="233.447266" xlink:href="#ArialMT-6f"/>
      <use x="289.0625" xlink:href="#ArialMT-6e"/>
     </g>
    </g>
    <g id="patch_24">
     <path d="M 827.186239 407.201911 
L 847.186239 407.201911 
L 847.186239 400.201911 
L 827.186239 400.201911 
z
" style="fill:#5875a4;stroke:#4c4c4c;stroke-linejoin:miter;stroke-width:0.75;"/>
    </g>
    <g id="text_39">
     <!-- 1 -->
     <g style="fill:#262626;" transform="translate(855.186239 407.201911)scale(0.1 -0.1)">
      <use xlink:href="#ArialMT-31"/>
     </g>
    </g>
    <g id="patch_25">
     <path d="M 827.186239 421.347224 
L 847.186239 421.347224 
L 847.186239 414.347224 
L 827.186239 414.347224 
z
" style="fill:#cc8963;stroke:#4c4c4c;stroke-linejoin:miter;stroke-width:0.75;"/>
    </g>
    <g id="text_40">
     <!-- 2 -->
     <g style="fill:#262626;" transform="translate(855.186239 421.347224)scale(0.1 -0.1)">
      <use xlink:href="#ArialMT-32"/>
     </g>
    </g>
    <g id="patch_26">
     <path d="M 827.186239 435.492536 
L 847.186239 435.492536 
L 847.186239 428.492536 
L 827.186239 428.492536 
z
" style="fill:#5f9e6e;stroke:#4c4c4c;stroke-linejoin:miter;stroke-width:0.75;"/>
    </g>
    <g id="text_41">
     <!-- 3 -->
     <g style="fill:#262626;" transform="translate(855.186239 435.492536)scale(0.1 -0.1)">
      <use xlink:href="#ArialMT-33"/>
     </g>
    </g>
    <g id="patch_27">
     <path d="M 827.186239 449.637849 
L 847.186239 449.637849 
L 847.186239 442.637849 
L 827.186239 442.637849 
z
" style="fill:#b55d60;stroke:#4c4c4c;stroke-linejoin:miter;stroke-width:0.75;"/>
    </g>
    <g id="text_42">
     <!-- 4 -->
     <g style="fill:#262626;" transform="translate(855.186239 449.637849)scale(0.1 -0.1)">
      <use xlink:href="#ArialMT-34"/>
     </g>
    </g>
    <g id="patch_28">
     <path d="M 827.186239 463.783161 
L 847.186239 463.783161 
L 847.186239 456.783161 
L 827.186239 456.783161 
z
" style="fill:#857aab;stroke:#4c4c4c;stroke-linejoin:miter;stroke-width:0.75;"/>
    </g>
    <g id="text_43">
     <!-- 5 -->
     <g style="fill:#262626;" transform="translate(855.186239 463.783161)scale(0.1 -0.1)">
      <use xlink:href="#ArialMT-35"/>
     </g>
    </g>
   </g>
  </g>
  <g id="text_44">
   <!-- Chips Distribution per Location -->
   <g style="fill:#262626;" transform="translate(354.495698 15.935625)scale(0.12 -0.12)">
    <defs>
     <path d="M 3763 1606 
L 4369 1453 
Q 4178 706 3683 314 
Q 3188 -78 2472 -78 
Q 1731 -78 1267 223 
Q 803 525 561 1097 
Q 319 1669 319 2325 
Q 319 3041 592 3573 
Q 866 4106 1370 4382 
Q 1875 4659 2481 4659 
Q 3169 4659 3637 4309 
Q 4106 3959 4291 3325 
L 3694 3184 
Q 3534 3684 3231 3912 
Q 2928 4141 2469 4141 
Q 1941 4141 1586 3887 
Q 1231 3634 1087 3207 
Q 944 2781 944 2328 
Q 944 1744 1114 1308 
Q 1284 872 1643 656 
Q 2003 441 2422 441 
Q 2931 441 3284 734 
Q 3638 1028 3763 1606 
z
" id="ArialMT-43" transform="scale(0.015625)"/>
     <path id="ArialMT-20" transform="scale(0.015625)"/>
     <path d="M 416 0 
L 416 3319 
L 922 3319 
L 922 2816 
Q 1116 3169 1280 3281 
Q 1444 3394 1641 3394 
Q 1925 3394 2219 3213 
L 2025 2691 
Q 1819 2813 1613 2813 
Q 1428 2813 1281 2702 
Q 1134 2591 1072 2394 
Q 978 2094 978 1738 
L 978 0 
L 416 0 
z
" id="ArialMT-72" transform="scale(0.015625)"/>
     <path d="M 941 0 
L 419 0 
L 419 4581 
L 981 4581 
L 981 2947 
Q 1338 3394 1891 3394 
Q 2197 3394 2470 3270 
Q 2744 3147 2920 2923 
Q 3097 2700 3197 2384 
Q 3297 2069 3297 1709 
Q 3297 856 2875 390 
Q 2453 -75 1863 -75 
Q 1275 -75 941 416 
L 941 0 
z
M 934 1684 
Q 934 1088 1097 822 
Q 1363 388 1816 388 
Q 2184 388 2453 708 
Q 2722 1028 2722 1663 
Q 2722 2313 2464 2622 
Q 2206 2931 1841 2931 
Q 1472 2931 1203 2611 
Q 934 2291 934 1684 
z
" id="ArialMT-62" transform="scale(0.015625)"/>
     <path d="M 2597 0 
L 2597 488 
Q 2209 -75 1544 -75 
Q 1250 -75 995 37 
Q 741 150 617 320 
Q 494 491 444 738 
Q 409 903 409 1263 
L 409 3319 
L 972 3319 
L 972 1478 
Q 972 1038 1006 884 
Q 1059 663 1231 536 
Q 1403 409 1656 409 
Q 1909 409 2131 539 
Q 2353 669 2445 892 
Q 2538 1116 2538 1541 
L 2538 3319 
L 3100 3319 
L 3100 0 
L 2597 0 
z
" id="ArialMT-75" transform="scale(0.015625)"/>
     <path d="M 469 0 
L 469 4581 
L 1075 4581 
L 1075 541 
L 3331 541 
L 3331 0 
L 469 0 
z
" id="ArialMT-4c" transform="scale(0.015625)"/>
    </defs>
    <use xlink:href="#ArialMT-43"/>
    <use x="72.216797" xlink:href="#ArialMT-68"/>
    <use x="127.832031" xlink:href="#ArialMT-69"/>
    <use x="150.048828" xlink:href="#ArialMT-70"/>
    <use x="205.664062" xlink:href="#ArialMT-73"/>
    <use x="255.664062" xlink:href="#ArialMT-20"/>
    <use x="283.447266" xlink:href="#ArialMT-44"/>
    <use x="355.664062" xlink:href="#ArialMT-69"/>
    <use x="377.880859" xlink:href="#ArialMT-73"/>
    <use x="427.880859" xlink:href="#ArialMT-74"/>
    <use x="455.664062" xlink:href="#ArialMT-72"/>
    <use x="488.964844" xlink:href="#ArialMT-69"/>
    <use x="511.181641" xlink:href="#ArialMT-62"/>
    <use x="566.796875" xlink:href="#ArialMT-75"/>
    <use x="622.412109" xlink:href="#ArialMT-74"/>
    <use x="650.195312" xlink:href="#ArialMT-69"/>
    <use x="672.412109" xlink:href="#ArialMT-6f"/>
    <use x="728.027344" xlink:href="#ArialMT-6e"/>
    <use x="783.642578" xlink:href="#ArialMT-20"/>
    <use x="811.425781" xlink:href="#ArialMT-70"/>
    <use x="867.041016" xlink:href="#ArialMT-65"/>
    <use x="922.65625" xlink:href="#ArialMT-72"/>
    <use x="955.957031" xlink:href="#ArialMT-20"/>
    <use x="983.740234" xlink:href="#ArialMT-4c"/>
    <use x="1039.355469" xlink:href="#ArialMT-6f"/>
    <use x="1094.970703" xlink:href="#ArialMT-63"/>
    <use x="1144.970703" xlink:href="#ArialMT-61"/>
    <use x="1200.585938" xlink:href="#ArialMT-74"/>
    <use x="1228.369141" xlink:href="#ArialMT-69"/>
    <use x="1250.585938" xlink:href="#ArialMT-6f"/>
    <use x="1306.201172" xlink:href="#ArialMT-6e"/>
   </g>
  </g>
 </g>
 <defs>
  <clipPath id="pe38c651e0c">
   <rect height="244.148343" width="765.24952" x="52.484375" y="24.321105"/>
  </clipPath>
  <clipPath id="pa04b15f526">
   <rect height="244.148342" width="765.24952" x="52.484375" y="303.760552"/>
  </clipPath>
 </defs>
</svg>
