<?xml version="1.0" encoding="utf-8" standalone="no"?>
<!DOCTYPE svg PUBLIC "-//W3C//DTD SVG 1.1//EN"
  "http://www.w3.org/Graphics/SVG/1.1/DTD/svg11.dtd">
<svg height="440.39952pt" version="1.1" viewBox="0 0 872.377523 440.39952" width="872.377523pt" xmlns="http://www.w3.org/2000/svg" xmlns:xlink="http://www.w3.org/1999/xlink">
 <metadata>
  <rdf:RDF xmlns:cc="http://creativecommons.org/ns#" xmlns:dc="http://purl.org/dc/elements/1.1/" xmlns:rdf="http://www.w3.org/1999/02/22-rdf-syntax-ns#">
   <cc:Work>
    <dc:type rdf:resource="http://purl.org/dc/dcmitype/StillImage"/>
    <dc:date>2021-07-27T21:48:56.864480</dc:date>
    <dc:format>image/svg+xml</dc:format>
    <dc:creator>
     <cc:Agent>
      <dc:title>Matplotlib v3.4.2, https://matplotlib.org/</dc:title>
     </cc:Agent>
    </dc:creator>
   </cc:Work>
  </rdf:RDF>
 </metadata>
 <defs>
  <style type="text/css">*{stroke-linecap:butt;stroke-linejoin:round;}</style>
 </defs>
 <g id="figure_1">
  <g id="patch_1">
   <path d="M 0 440.39952 
L 872.377523 440.39952 
L 872.377523 0 
L 0 0 
z
" style="fill:#ffffff;"/>
  </g>
  <g id="axes_1">
   <g id="patch_2">
    <path d="M 52.484375 417.054207 
L 434.360088 417.054207 
L 434.360088 22.44 
L 52.484375 22.44 
z
" style="fill:#e6e6e6;"/>
   </g>
   <g id="matplotlib.axis_1">
    <g id="xtick_1">
     <g id="line2d_1">
      <path clip-path="url(#pce1dc21501)" d="M 83.405917 417.054207 
L 83.405917 22.44 
" style="fill:none;stroke:#cccccc;stroke-linecap:round;stroke-width:0.8;"/>
     </g>
     <g id="text_1">
      <!-- 0 -->
      <g style="fill:#262626;" transform="translate(80.625448 431.21202)scale(0.1 -0.1)">
       <defs>
        <path d="M 266 2259 
Q 266 3072 433 3567 
Q 600 4063 929 4331 
Q 1259 4600 1759 4600 
Q 2128 4600 2406 4451 
Q 2684 4303 2865 4023 
Q 3047 3744 3150 3342 
Q 3253 2941 3253 2259 
Q 3253 1453 3087 958 
Q 2922 463 2592 192 
Q 2263 -78 1759 -78 
Q 1097 -78 719 397 
Q 266 969 266 2259 
z
M 844 2259 
Q 844 1131 1108 757 
Q 1372 384 1759 384 
Q 2147 384 2411 759 
Q 2675 1134 2675 2259 
Q 2675 3391 2411 3762 
Q 2147 4134 1753 4134 
Q 1366 4134 1134 3806 
Q 844 3388 844 2259 
z
" id="ArialMT-30" transform="scale(0.015625)"/>
       </defs>
       <use xlink:href="#ArialMT-30"/>
      </g>
     </g>
    </g>
    <g id="xtick_2">
     <g id="line2d_2">
      <path clip-path="url(#pce1dc21501)" d="M 130.045944 417.054207 
L 130.045944 22.44 
" style="fill:none;stroke:#cccccc;stroke-linecap:round;stroke-width:0.8;"/>
     </g>
     <g id="text_2">
      <!-- 25 -->
      <g style="fill:#262626;" transform="translate(124.485007 431.21202)scale(0.1 -0.1)">
       <defs>
        <path d="M 3222 541 
L 3222 0 
L 194 0 
Q 188 203 259 391 
Q 375 700 629 1000 
Q 884 1300 1366 1694 
Q 2113 2306 2375 2664 
Q 2638 3022 2638 3341 
Q 2638 3675 2398 3904 
Q 2159 4134 1775 4134 
Q 1369 4134 1125 3890 
Q 881 3647 878 3216 
L 300 3275 
Q 359 3922 746 4261 
Q 1134 4600 1788 4600 
Q 2447 4600 2831 4234 
Q 3216 3869 3216 3328 
Q 3216 3053 3103 2787 
Q 2991 2522 2730 2228 
Q 2469 1934 1863 1422 
Q 1356 997 1212 845 
Q 1069 694 975 541 
L 3222 541 
z
" id="ArialMT-32" transform="scale(0.015625)"/>
        <path d="M 266 1200 
L 856 1250 
Q 922 819 1161 601 
Q 1400 384 1738 384 
Q 2144 384 2425 690 
Q 2706 997 2706 1503 
Q 2706 1984 2436 2262 
Q 2166 2541 1728 2541 
Q 1456 2541 1237 2417 
Q 1019 2294 894 2097 
L 366 2166 
L 809 4519 
L 3088 4519 
L 3088 3981 
L 1259 3981 
L 1013 2750 
Q 1425 3038 1878 3038 
Q 2478 3038 2890 2622 
Q 3303 2206 3303 1553 
Q 3303 931 2941 478 
Q 2500 -78 1738 -78 
Q 1113 -78 717 272 
Q 322 622 266 1200 
z
" id="ArialMT-35" transform="scale(0.015625)"/>
       </defs>
       <use xlink:href="#ArialMT-32"/>
       <use x="55.615234" xlink:href="#ArialMT-35"/>
      </g>
     </g>
    </g>
    <g id="xtick_3">
     <g id="line2d_3">
      <path clip-path="url(#pce1dc21501)" d="M 176.685972 417.054207 
L 176.685972 22.44 
" style="fill:none;stroke:#cccccc;stroke-linecap:round;stroke-width:0.8;"/>
     </g>
     <g id="text_3">
      <!-- 50 -->
      <g style="fill:#262626;" transform="translate(171.125034 431.21202)scale(0.1 -0.1)">
       <use xlink:href="#ArialMT-35"/>
       <use x="55.615234" xlink:href="#ArialMT-30"/>
      </g>
     </g>
    </g>
    <g id="xtick_4">
     <g id="line2d_4">
      <path clip-path="url(#pce1dc21501)" d="M 223.325999 417.054207 
L 223.325999 22.44 
" style="fill:none;stroke:#cccccc;stroke-linecap:round;stroke-width:0.8;"/>
     </g>
     <g id="text_4">
      <!-- 75 -->
      <g style="fill:#262626;" transform="translate(217.765061 431.21202)scale(0.1 -0.1)">
       <defs>
        <path d="M 303 3981 
L 303 4522 
L 3269 4522 
L 3269 4084 
Q 2831 3619 2401 2847 
Q 1972 2075 1738 1259 
Q 1569 684 1522 0 
L 944 0 
Q 953 541 1156 1306 
Q 1359 2072 1739 2783 
Q 2119 3494 2547 3981 
L 303 3981 
z
" id="ArialMT-37" transform="scale(0.015625)"/>
       </defs>
       <use xlink:href="#ArialMT-37"/>
       <use x="55.615234" xlink:href="#ArialMT-35"/>
      </g>
     </g>
    </g>
    <g id="xtick_5">
     <g id="line2d_5">
      <path clip-path="url(#pce1dc21501)" d="M 269.966026 417.054207 
L 269.966026 22.44 
" style="fill:none;stroke:#cccccc;stroke-linecap:round;stroke-width:0.8;"/>
     </g>
     <g id="text_5">
      <!-- 100 -->
      <g style="fill:#262626;" transform="translate(261.62462 431.21202)scale(0.1 -0.1)">
       <defs>
        <path d="M 2384 0 
L 1822 0 
L 1822 3584 
Q 1619 3391 1289 3197 
Q 959 3003 697 2906 
L 697 3450 
Q 1169 3672 1522 3987 
Q 1875 4303 2022 4600 
L 2384 4600 
L 2384 0 
z
" id="ArialMT-31" transform="scale(0.015625)"/>
       </defs>
       <use xlink:href="#ArialMT-31"/>
       <use x="55.615234" xlink:href="#ArialMT-30"/>
       <use x="111.230469" xlink:href="#ArialMT-30"/>
      </g>
     </g>
    </g>
    <g id="xtick_6">
     <g id="line2d_6">
      <path clip-path="url(#pce1dc21501)" d="M 316.606053 417.054207 
L 316.606053 22.44 
" style="fill:none;stroke:#cccccc;stroke-linecap:round;stroke-width:0.8;"/>
     </g>
     <g id="text_6">
      <!-- 125 -->
      <g style="fill:#262626;" transform="translate(308.264647 431.21202)scale(0.1 -0.1)">
       <use xlink:href="#ArialMT-31"/>
       <use x="55.615234" xlink:href="#ArialMT-32"/>
       <use x="111.230469" xlink:href="#ArialMT-35"/>
      </g>
     </g>
    </g>
    <g id="xtick_7">
     <g id="line2d_7">
      <path clip-path="url(#pce1dc21501)" d="M 363.246081 417.054207 
L 363.246081 22.44 
" style="fill:none;stroke:#cccccc;stroke-linecap:round;stroke-width:0.8;"/>
     </g>
     <g id="text_7">
      <!-- 150 -->
      <g style="fill:#262626;" transform="translate(354.904675 431.21202)scale(0.1 -0.1)">
       <use xlink:href="#ArialMT-31"/>
       <use x="55.615234" xlink:href="#ArialMT-35"/>
       <use x="111.230469" xlink:href="#ArialMT-30"/>
      </g>
     </g>
    </g>
    <g id="xtick_8">
     <g id="line2d_8">
      <path clip-path="url(#pce1dc21501)" d="M 409.886108 417.054207 
L 409.886108 22.44 
" style="fill:none;stroke:#cccccc;stroke-linecap:round;stroke-width:0.8;"/>
     </g>
     <g id="text_8">
      <!-- 175 -->
      <g style="fill:#262626;" transform="translate(401.544702 431.21202)scale(0.1 -0.1)">
       <use xlink:href="#ArialMT-31"/>
       <use x="55.615234" xlink:href="#ArialMT-37"/>
       <use x="111.230469" xlink:href="#ArialMT-35"/>
      </g>
     </g>
    </g>
   </g>
   <g id="matplotlib.axis_2">
    <g id="ytick_1">
     <g id="line2d_9">
      <path clip-path="url(#pce1dc21501)" d="M 52.484375 417.054207 
L 434.360088 417.054207 
" style="fill:none;stroke:#cccccc;stroke-linecap:round;stroke-width:0.8;"/>
     </g>
     <g id="text_9">
      <!-- 0.000 -->
      <g style="fill:#262626;" transform="translate(20.4625 420.633114)scale(0.1 -0.1)">
       <defs>
        <path d="M 581 0 
L 581 641 
L 1222 641 
L 1222 0 
L 581 0 
z
" id="ArialMT-2e" transform="scale(0.015625)"/>
       </defs>
       <use xlink:href="#ArialMT-30"/>
       <use x="55.615234" xlink:href="#ArialMT-2e"/>
       <use x="83.398438" xlink:href="#ArialMT-30"/>
       <use x="139.013672" xlink:href="#ArialMT-30"/>
       <use x="194.628906" xlink:href="#ArialMT-30"/>
      </g>
     </g>
    </g>
    <g id="ytick_2">
     <g id="line2d_10">
      <path clip-path="url(#pce1dc21501)" d="M 52.484375 362.910309 
L 434.360088 362.910309 
" style="fill:none;stroke:#cccccc;stroke-linecap:round;stroke-width:0.8;"/>
     </g>
     <g id="text_10">
      <!-- 0.005 -->
      <g style="fill:#262626;" transform="translate(20.4625 366.489215)scale(0.1 -0.1)">
       <use xlink:href="#ArialMT-30"/>
       <use x="55.615234" xlink:href="#ArialMT-2e"/>
       <use x="83.398438" xlink:href="#ArialMT-30"/>
       <use x="139.013672" xlink:href="#ArialMT-30"/>
       <use x="194.628906" xlink:href="#ArialMT-35"/>
      </g>
     </g>
    </g>
    <g id="ytick_3">
     <g id="line2d_11">
      <path clip-path="url(#pce1dc21501)" d="M 52.484375 308.76641 
L 434.360088 308.76641 
" style="fill:none;stroke:#cccccc;stroke-linecap:round;stroke-width:0.8;"/>
     </g>
     <g id="text_11">
      <!-- 0.010 -->
      <g style="fill:#262626;" transform="translate(20.4625 312.345316)scale(0.1 -0.1)">
       <use xlink:href="#ArialMT-30"/>
       <use x="55.615234" xlink:href="#ArialMT-2e"/>
       <use x="83.398438" xlink:href="#ArialMT-30"/>
       <use x="139.013672" xlink:href="#ArialMT-31"/>
       <use x="194.628906" xlink:href="#ArialMT-30"/>
      </g>
     </g>
    </g>
    <g id="ytick_4">
     <g id="line2d_12">
      <path clip-path="url(#pce1dc21501)" d="M 52.484375 254.622511 
L 434.360088 254.622511 
" style="fill:none;stroke:#cccccc;stroke-linecap:round;stroke-width:0.8;"/>
     </g>
     <g id="text_12">
      <!-- 0.015 -->
      <g style="fill:#262626;" transform="translate(20.4625 258.201418)scale(0.1 -0.1)">
       <use xlink:href="#ArialMT-30"/>
       <use x="55.615234" xlink:href="#ArialMT-2e"/>
       <use x="83.398438" xlink:href="#ArialMT-30"/>
       <use x="139.013672" xlink:href="#ArialMT-31"/>
       <use x="194.628906" xlink:href="#ArialMT-35"/>
      </g>
     </g>
    </g>
    <g id="ytick_5">
     <g id="line2d_13">
      <path clip-path="url(#pce1dc21501)" d="M 52.484375 200.478613 
L 434.360088 200.478613 
" style="fill:none;stroke:#cccccc;stroke-linecap:round;stroke-width:0.8;"/>
     </g>
     <g id="text_13">
      <!-- 0.020 -->
      <g style="fill:#262626;" transform="translate(20.4625 204.057519)scale(0.1 -0.1)">
       <use xlink:href="#ArialMT-30"/>
       <use x="55.615234" xlink:href="#ArialMT-2e"/>
       <use x="83.398438" xlink:href="#ArialMT-30"/>
       <use x="139.013672" xlink:href="#ArialMT-32"/>
       <use x="194.628906" xlink:href="#ArialMT-30"/>
      </g>
     </g>
    </g>
    <g id="ytick_6">
     <g id="line2d_14">
      <path clip-path="url(#pce1dc21501)" d="M 52.484375 146.334714 
L 434.360088 146.334714 
" style="fill:none;stroke:#cccccc;stroke-linecap:round;stroke-width:0.8;"/>
     </g>
     <g id="text_14">
      <!-- 0.025 -->
      <g style="fill:#262626;" transform="translate(20.4625 149.91362)scale(0.1 -0.1)">
       <use xlink:href="#ArialMT-30"/>
       <use x="55.615234" xlink:href="#ArialMT-2e"/>
       <use x="83.398438" xlink:href="#ArialMT-30"/>
       <use x="139.013672" xlink:href="#ArialMT-32"/>
       <use x="194.628906" xlink:href="#ArialMT-35"/>
      </g>
     </g>
    </g>
    <g id="ytick_7">
     <g id="line2d_15">
      <path clip-path="url(#pce1dc21501)" d="M 52.484375 92.190815 
L 434.360088 92.190815 
" style="fill:none;stroke:#cccccc;stroke-linecap:round;stroke-width:0.8;"/>
     </g>
     <g id="text_15">
      <!-- 0.030 -->
      <g style="fill:#262626;" transform="translate(20.4625 95.769721)scale(0.1 -0.1)">
       <defs>
        <path d="M 269 1209 
L 831 1284 
Q 928 806 1161 595 
Q 1394 384 1728 384 
Q 2125 384 2398 659 
Q 2672 934 2672 1341 
Q 2672 1728 2419 1979 
Q 2166 2231 1775 2231 
Q 1616 2231 1378 2169 
L 1441 2663 
Q 1497 2656 1531 2656 
Q 1891 2656 2178 2843 
Q 2466 3031 2466 3422 
Q 2466 3731 2256 3934 
Q 2047 4138 1716 4138 
Q 1388 4138 1169 3931 
Q 950 3725 888 3313 
L 325 3413 
Q 428 3978 793 4289 
Q 1159 4600 1703 4600 
Q 2078 4600 2393 4439 
Q 2709 4278 2876 4000 
Q 3044 3722 3044 3409 
Q 3044 3113 2884 2869 
Q 2725 2625 2413 2481 
Q 2819 2388 3044 2092 
Q 3269 1797 3269 1353 
Q 3269 753 2831 336 
Q 2394 -81 1725 -81 
Q 1122 -81 723 278 
Q 325 638 269 1209 
z
" id="ArialMT-33" transform="scale(0.015625)"/>
       </defs>
       <use xlink:href="#ArialMT-30"/>
       <use x="55.615234" xlink:href="#ArialMT-2e"/>
       <use x="83.398438" xlink:href="#ArialMT-30"/>
       <use x="139.013672" xlink:href="#ArialMT-33"/>
       <use x="194.628906" xlink:href="#ArialMT-30"/>
      </g>
     </g>
    </g>
    <g id="ytick_8">
     <g id="line2d_16">
      <path clip-path="url(#pce1dc21501)" d="M 52.484375 38.046916 
L 434.360088 38.046916 
" style="fill:none;stroke:#cccccc;stroke-linecap:round;stroke-width:0.8;"/>
     </g>
     <g id="text_16">
      <!-- 0.035 -->
      <g style="fill:#262626;" transform="translate(20.4625 41.625823)scale(0.1 -0.1)">
       <use xlink:href="#ArialMT-30"/>
       <use x="55.615234" xlink:href="#ArialMT-2e"/>
       <use x="83.398438" xlink:href="#ArialMT-30"/>
       <use x="139.013672" xlink:href="#ArialMT-33"/>
       <use x="194.628906" xlink:href="#ArialMT-35"/>
      </g>
     </g>
    </g>
    <g id="text_17">
     <!-- Density -->
     <g style="fill:#262626;" transform="translate(14.357813 236.418979)rotate(-90)scale(0.1 -0.1)">
      <defs>
       <path d="M 494 0 
L 494 4581 
L 2072 4581 
Q 2606 4581 2888 4516 
Q 3281 4425 3559 4188 
Q 3922 3881 4101 3404 
Q 4281 2928 4281 2316 
Q 4281 1794 4159 1391 
Q 4038 988 3847 723 
Q 3656 459 3429 307 
Q 3203 156 2883 78 
Q 2563 0 2147 0 
L 494 0 
z
M 1100 541 
L 2078 541 
Q 2531 541 2789 625 
Q 3047 709 3200 863 
Q 3416 1078 3536 1442 
Q 3656 1806 3656 2325 
Q 3656 3044 3420 3430 
Q 3184 3816 2847 3947 
Q 2603 4041 2063 4041 
L 1100 4041 
L 1100 541 
z
" id="ArialMT-44" transform="scale(0.015625)"/>
       <path d="M 2694 1069 
L 3275 997 
Q 3138 488 2766 206 
Q 2394 -75 1816 -75 
Q 1088 -75 661 373 
Q 234 822 234 1631 
Q 234 2469 665 2931 
Q 1097 3394 1784 3394 
Q 2450 3394 2872 2941 
Q 3294 2488 3294 1666 
Q 3294 1616 3291 1516 
L 816 1516 
Q 847 969 1125 678 
Q 1403 388 1819 388 
Q 2128 388 2347 550 
Q 2566 713 2694 1069 
z
M 847 1978 
L 2700 1978 
Q 2663 2397 2488 2606 
Q 2219 2931 1791 2931 
Q 1403 2931 1139 2672 
Q 875 2413 847 1978 
z
" id="ArialMT-65" transform="scale(0.015625)"/>
       <path d="M 422 0 
L 422 3319 
L 928 3319 
L 928 2847 
Q 1294 3394 1984 3394 
Q 2284 3394 2536 3286 
Q 2788 3178 2913 3003 
Q 3038 2828 3088 2588 
Q 3119 2431 3119 2041 
L 3119 0 
L 2556 0 
L 2556 2019 
Q 2556 2363 2490 2533 
Q 2425 2703 2258 2804 
Q 2091 2906 1866 2906 
Q 1506 2906 1245 2678 
Q 984 2450 984 1813 
L 984 0 
L 422 0 
z
" id="ArialMT-6e" transform="scale(0.015625)"/>
       <path d="M 197 991 
L 753 1078 
Q 800 744 1014 566 
Q 1228 388 1613 388 
Q 2000 388 2187 545 
Q 2375 703 2375 916 
Q 2375 1106 2209 1216 
Q 2094 1291 1634 1406 
Q 1016 1563 777 1677 
Q 538 1791 414 1992 
Q 291 2194 291 2438 
Q 291 2659 392 2848 
Q 494 3038 669 3163 
Q 800 3259 1026 3326 
Q 1253 3394 1513 3394 
Q 1903 3394 2198 3281 
Q 2494 3169 2634 2976 
Q 2775 2784 2828 2463 
L 2278 2388 
Q 2241 2644 2061 2787 
Q 1881 2931 1553 2931 
Q 1166 2931 1000 2803 
Q 834 2675 834 2503 
Q 834 2394 903 2306 
Q 972 2216 1119 2156 
Q 1203 2125 1616 2013 
Q 2213 1853 2448 1751 
Q 2684 1650 2818 1456 
Q 2953 1263 2953 975 
Q 2953 694 2789 445 
Q 2625 197 2315 61 
Q 2006 -75 1616 -75 
Q 969 -75 630 194 
Q 291 463 197 991 
z
" id="ArialMT-73" transform="scale(0.015625)"/>
       <path d="M 425 3934 
L 425 4581 
L 988 4581 
L 988 3934 
L 425 3934 
z
M 425 0 
L 425 3319 
L 988 3319 
L 988 0 
L 425 0 
z
" id="ArialMT-69" transform="scale(0.015625)"/>
       <path d="M 1650 503 
L 1731 6 
Q 1494 -44 1306 -44 
Q 1000 -44 831 53 
Q 663 150 594 308 
Q 525 466 525 972 
L 525 2881 
L 113 2881 
L 113 3319 
L 525 3319 
L 525 4141 
L 1084 4478 
L 1084 3319 
L 1650 3319 
L 1650 2881 
L 1084 2881 
L 1084 941 
Q 1084 700 1114 631 
Q 1144 563 1211 522 
Q 1278 481 1403 481 
Q 1497 481 1650 503 
z
" id="ArialMT-74" transform="scale(0.015625)"/>
       <path d="M 397 -1278 
L 334 -750 
Q 519 -800 656 -800 
Q 844 -800 956 -737 
Q 1069 -675 1141 -563 
Q 1194 -478 1313 -144 
Q 1328 -97 1363 -6 
L 103 3319 
L 709 3319 
L 1400 1397 
Q 1534 1031 1641 628 
Q 1738 1016 1872 1384 
L 2581 3319 
L 3144 3319 
L 1881 -56 
Q 1678 -603 1566 -809 
Q 1416 -1088 1222 -1217 
Q 1028 -1347 759 -1347 
Q 597 -1347 397 -1278 
z
" id="ArialMT-79" transform="scale(0.015625)"/>
      </defs>
      <use xlink:href="#ArialMT-44"/>
      <use x="72.216797" xlink:href="#ArialMT-65"/>
      <use x="127.832031" xlink:href="#ArialMT-6e"/>
      <use x="183.447266" xlink:href="#ArialMT-73"/>
      <use x="233.447266" xlink:href="#ArialMT-69"/>
      <use x="255.664062" xlink:href="#ArialMT-74"/>
      <use x="283.447266" xlink:href="#ArialMT-79"/>
     </g>
    </g>
   </g>
   <g id="patch_3">
    <path clip-path="url(#pce1dc21501)" d="M 85.844251 417.054207 
L 89.38533 417.054207 
L 89.38533 394.233832 
L 85.844251 394.233832 
z
" style="fill:#da8bc3;fill-opacity:0.5;stroke:#ffffff;stroke-linejoin:miter;stroke-width:0.310892;"/>
   </g>
   <g id="patch_4">
    <path clip-path="url(#pce1dc21501)" d="M 89.38533 417.054207 
L 92.926408 417.054207 
L 92.926408 329.33839 
L 89.38533 329.33839 
z
" style="fill:#da8bc3;fill-opacity:0.5;stroke:#ffffff;stroke-linejoin:miter;stroke-width:0.310892;"/>
   </g>
   <g id="patch_5">
    <path clip-path="url(#pce1dc21501)" d="M 92.926408 417.054207 
L 96.467486 417.054207 
L 96.467486 238.056889 
L 92.926408 238.056889 
z
" style="fill:#da8bc3;fill-opacity:0.5;stroke:#ffffff;stroke-linejoin:miter;stroke-width:0.310892;"/>
   </g>
   <g id="patch_6">
    <path clip-path="url(#pce1dc21501)" d="M 96.467486 417.054207 
L 100.008564 417.054207 
L 100.008564 178.866541 
L 96.467486 178.866541 
z
" style="fill:#da8bc3;fill-opacity:0.5;stroke:#ffffff;stroke-linejoin:miter;stroke-width:0.310892;"/>
   </g>
   <g id="patch_7">
    <path clip-path="url(#pce1dc21501)" d="M 100.008564 417.054207 
L 103.549642 417.054207 
L 103.549642 118.963056 
L 100.008564 118.963056 
z
" style="fill:#da8bc3;fill-opacity:0.5;stroke:#ffffff;stroke-linejoin:miter;stroke-width:0.310892;"/>
   </g>
   <g id="patch_8">
    <path clip-path="url(#pce1dc21501)" d="M 103.549642 417.054207 
L 107.090721 417.054207 
L 107.090721 74.748579 
L 103.549642 74.748579 
z
" style="fill:#da8bc3;fill-opacity:0.5;stroke:#ffffff;stroke-linejoin:miter;stroke-width:0.310892;"/>
   </g>
   <g id="patch_9">
    <path clip-path="url(#pce1dc21501)" d="M 107.090721 417.054207 
L 110.631799 417.054207 
L 110.631799 67.617212 
L 107.090721 67.617212 
z
" style="fill:#da8bc3;fill-opacity:0.5;stroke:#ffffff;stroke-linejoin:miter;stroke-width:0.310892;"/>
   </g>
   <g id="patch_10">
    <path clip-path="url(#pce1dc21501)" d="M 110.631799 417.054207 
L 114.172877 417.054207 
L 114.172877 59.059571 
L 110.631799 59.059571 
z
" style="fill:#da8bc3;fill-opacity:0.5;stroke:#ffffff;stroke-linejoin:miter;stroke-width:0.310892;"/>
   </g>
   <g id="patch_11">
    <path clip-path="url(#pce1dc21501)" d="M 114.172877 417.054207 
L 117.713955 417.054207 
L 117.713955 41.231153 
L 114.172877 41.231153 
z
" style="fill:#da8bc3;fill-opacity:0.5;stroke:#ffffff;stroke-linejoin:miter;stroke-width:0.310892;"/>
   </g>
   <g id="patch_12">
    <path clip-path="url(#pce1dc21501)" d="M 117.713955 417.054207 
L 121.255033 417.054207 
L 121.255033 64.051528 
L 117.713955 64.051528 
z
" style="fill:#da8bc3;fill-opacity:0.5;stroke:#ffffff;stroke-linejoin:miter;stroke-width:0.310892;"/>
   </g>
   <g id="patch_13">
    <path clip-path="url(#pce1dc21501)" d="M 121.255033 417.054207 
L 124.796112 417.054207 
L 124.796112 99.708364 
L 121.255033 99.708364 
z
" style="fill:#da8bc3;fill-opacity:0.5;stroke:#ffffff;stroke-linejoin:miter;stroke-width:0.310892;"/>
   </g>
   <g id="patch_14">
    <path clip-path="url(#pce1dc21501)" d="M 124.796112 417.054207 
L 128.33719 417.054207 
L 128.33719 115.397372 
L 124.796112 115.397372 
z
" style="fill:#da8bc3;fill-opacity:0.5;stroke:#ffffff;stroke-linejoin:miter;stroke-width:0.310892;"/>
   </g>
   <g id="patch_15">
    <path clip-path="url(#pce1dc21501)" d="M 128.33719 417.054207 
L 131.878268 417.054207 
L 131.878268 158.898713 
L 128.33719 158.898713 
z
" style="fill:#da8bc3;fill-opacity:0.5;stroke:#ffffff;stroke-linejoin:miter;stroke-width:0.310892;"/>
   </g>
   <g id="patch_16">
    <path clip-path="url(#pce1dc21501)" d="M 131.878268 417.054207 
L 135.419346 417.054207 
L 135.419346 177.440267 
L 131.878268 177.440267 
z
" style="fill:#da8bc3;fill-opacity:0.5;stroke:#ffffff;stroke-linejoin:miter;stroke-width:0.310892;"/>
   </g>
   <g id="patch_17">
    <path clip-path="url(#pce1dc21501)" d="M 135.419346 417.054207 
L 138.960424 417.054207 
L 138.960424 184.571635 
L 135.419346 184.571635 
z
" style="fill:#da8bc3;fill-opacity:0.5;stroke:#ffffff;stroke-linejoin:miter;stroke-width:0.310892;"/>
   </g>
   <g id="patch_18">
    <path clip-path="url(#pce1dc21501)" d="M 138.960424 417.054207 
L 142.501503 417.054207 
L 142.501503 234.491206 
L 138.960424 234.491206 
z
" style="fill:#da8bc3;fill-opacity:0.5;stroke:#ffffff;stroke-linejoin:miter;stroke-width:0.310892;"/>
   </g>
   <g id="patch_19">
    <path clip-path="url(#pce1dc21501)" d="M 142.501503 417.054207 
L 146.042581 417.054207 
L 146.042581 243.761983 
L 142.501503 243.761983 
z
" style="fill:#da8bc3;fill-opacity:0.5;stroke:#ffffff;stroke-linejoin:miter;stroke-width:0.310892;"/>
   </g>
   <g id="patch_20">
    <path clip-path="url(#pce1dc21501)" d="M 146.042581 417.054207 
L 149.583659 417.054207 
L 149.583659 273.000589 
L 146.042581 273.000589 
z
" style="fill:#da8bc3;fill-opacity:0.5;stroke:#ffffff;stroke-linejoin:miter;stroke-width:0.310892;"/>
   </g>
   <g id="patch_21">
    <path clip-path="url(#pce1dc21501)" d="M 149.583659 417.054207 
L 153.124737 417.054207 
L 153.124737 275.139999 
L 149.583659 275.139999 
z
" style="fill:#da8bc3;fill-opacity:0.5;stroke:#ffffff;stroke-linejoin:miter;stroke-width:0.310892;"/>
   </g>
   <g id="patch_22">
    <path clip-path="url(#pce1dc21501)" d="M 153.124737 417.054207 
L 156.665815 417.054207 
L 156.665815 286.550187 
L 153.124737 286.550187 
z
" style="fill:#da8bc3;fill-opacity:0.5;stroke:#ffffff;stroke-linejoin:miter;stroke-width:0.310892;"/>
   </g>
   <g id="patch_23">
    <path clip-path="url(#pce1dc21501)" d="M 156.665815 417.054207 
L 160.206894 417.054207 
L 160.206894 302.952331 
L 156.665815 302.952331 
z
" style="fill:#da8bc3;fill-opacity:0.5;stroke:#ffffff;stroke-linejoin:miter;stroke-width:0.310892;"/>
   </g>
   <g id="patch_24">
    <path clip-path="url(#pce1dc21501)" d="M 160.206894 417.054207 
L 163.747972 417.054207 
L 163.747972 315.075656 
L 160.206894 315.075656 
z
" style="fill:#da8bc3;fill-opacity:0.5;stroke:#ffffff;stroke-linejoin:miter;stroke-width:0.310892;"/>
   </g>
   <g id="patch_25">
    <path clip-path="url(#pce1dc21501)" d="M 163.747972 417.054207 
L 167.28905 417.054207 
L 167.28905 342.887988 
L 163.747972 342.887988 
z
" style="fill:#da8bc3;fill-opacity:0.5;stroke:#ffffff;stroke-linejoin:miter;stroke-width:0.310892;"/>
   </g>
   <g id="patch_26">
    <path clip-path="url(#pce1dc21501)" d="M 167.28905 417.054207 
L 170.830128 417.054207 
L 170.830128 336.469757 
L 167.28905 336.469757 
z
" style="fill:#da8bc3;fill-opacity:0.5;stroke:#ffffff;stroke-linejoin:miter;stroke-width:0.310892;"/>
   </g>
   <g id="patch_27">
    <path clip-path="url(#pce1dc21501)" d="M 170.830128 417.054207 
L 174.371206 417.054207 
L 174.371206 333.617211 
L 170.830128 333.617211 
z
" style="fill:#da8bc3;fill-opacity:0.5;stroke:#ffffff;stroke-linejoin:miter;stroke-width:0.310892;"/>
   </g>
   <g id="patch_28">
    <path clip-path="url(#pce1dc21501)" d="M 174.371206 417.054207 
L 177.912285 417.054207 
L 177.912285 362.855816 
L 174.371206 362.855816 
z
" style="fill:#da8bc3;fill-opacity:0.5;stroke:#ffffff;stroke-linejoin:miter;stroke-width:0.310892;"/>
   </g>
   <g id="patch_29">
    <path clip-path="url(#pce1dc21501)" d="M 177.912285 417.054207 
L 181.453363 417.054207 
L 181.453363 365.708363 
L 177.912285 365.708363 
z
" style="fill:#da8bc3;fill-opacity:0.5;stroke:#ffffff;stroke-linejoin:miter;stroke-width:0.310892;"/>
   </g>
   <g id="patch_30">
    <path clip-path="url(#pce1dc21501)" d="M 181.453363 417.054207 
L 184.994441 417.054207 
L 184.994441 369.987184 
L 181.453363 369.987184 
z
" style="fill:#da8bc3;fill-opacity:0.5;stroke:#ffffff;stroke-linejoin:miter;stroke-width:0.310892;"/>
   </g>
   <g id="patch_31">
    <path clip-path="url(#pce1dc21501)" d="M 184.994441 417.054207 
L 188.535519 417.054207 
L 188.535519 367.134637 
L 184.994441 367.134637 
z
" style="fill:#da8bc3;fill-opacity:0.5;stroke:#ffffff;stroke-linejoin:miter;stroke-width:0.310892;"/>
   </g>
   <g id="patch_32">
    <path clip-path="url(#pce1dc21501)" d="M 188.535519 417.054207 
L 192.076597 417.054207 
L 192.076597 382.110508 
L 188.535519 382.110508 
z
" style="fill:#da8bc3;fill-opacity:0.5;stroke:#ffffff;stroke-linejoin:miter;stroke-width:0.310892;"/>
   </g>
   <g id="patch_33">
    <path clip-path="url(#pce1dc21501)" d="M 192.076597 417.054207 
L 195.617676 417.054207 
L 195.617676 379.971098 
L 192.076597 379.971098 
z
" style="fill:#da8bc3;fill-opacity:0.5;stroke:#ffffff;stroke-linejoin:miter;stroke-width:0.310892;"/>
   </g>
   <g id="patch_34">
    <path clip-path="url(#pce1dc21501)" d="M 195.617676 417.054207 
L 199.158754 417.054207 
L 199.158754 389.955012 
L 195.617676 389.955012 
z
" style="fill:#da8bc3;fill-opacity:0.5;stroke:#ffffff;stroke-linejoin:miter;stroke-width:0.310892;"/>
   </g>
   <g id="patch_35">
    <path clip-path="url(#pce1dc21501)" d="M 199.158754 417.054207 
L 202.699832 417.054207 
L 202.699832 390.668149 
L 199.158754 390.668149 
z
" style="fill:#da8bc3;fill-opacity:0.5;stroke:#ffffff;stroke-linejoin:miter;stroke-width:0.310892;"/>
   </g>
   <g id="patch_36">
    <path clip-path="url(#pce1dc21501)" d="M 202.699832 417.054207 
L 206.24091 417.054207 
L 206.24091 402.791473 
L 202.699832 402.791473 
z
" style="fill:#da8bc3;fill-opacity:0.5;stroke:#ffffff;stroke-linejoin:miter;stroke-width:0.310892;"/>
   </g>
   <g id="patch_37">
    <path clip-path="url(#pce1dc21501)" d="M 206.24091 417.054207 
L 209.781988 417.054207 
L 209.781988 397.086379 
L 206.24091 397.086379 
z
" style="fill:#da8bc3;fill-opacity:0.5;stroke:#ffffff;stroke-linejoin:miter;stroke-width:0.310892;"/>
   </g>
   <g id="patch_38">
    <path clip-path="url(#pce1dc21501)" d="M 209.781988 417.054207 
L 213.323067 417.054207 
L 213.323067 400.652063 
L 209.781988 400.652063 
z
" style="fill:#da8bc3;fill-opacity:0.5;stroke:#ffffff;stroke-linejoin:miter;stroke-width:0.310892;"/>
   </g>
   <g id="patch_39">
    <path clip-path="url(#pce1dc21501)" d="M 213.323067 417.054207 
L 216.864145 417.054207 
L 216.864145 397.086379 
L 213.323067 397.086379 
z
" style="fill:#da8bc3;fill-opacity:0.5;stroke:#ffffff;stroke-linejoin:miter;stroke-width:0.310892;"/>
   </g>
   <g id="patch_40">
    <path clip-path="url(#pce1dc21501)" d="M 216.864145 417.054207 
L 220.405223 417.054207 
L 220.405223 402.078336 
L 216.864145 402.078336 
z
" style="fill:#da8bc3;fill-opacity:0.5;stroke:#ffffff;stroke-linejoin:miter;stroke-width:0.310892;"/>
   </g>
   <g id="patch_41">
    <path clip-path="url(#pce1dc21501)" d="M 220.405223 417.054207 
L 223.946301 417.054207 
L 223.946301 404.930883 
L 220.405223 404.930883 
z
" style="fill:#da8bc3;fill-opacity:0.5;stroke:#ffffff;stroke-linejoin:miter;stroke-width:0.310892;"/>
   </g>
   <g id="patch_42">
    <path clip-path="url(#pce1dc21501)" d="M 223.946301 417.054207 
L 227.487379 417.054207 
L 227.487379 404.217746 
L 223.946301 404.217746 
z
" style="fill:#da8bc3;fill-opacity:0.5;stroke:#ffffff;stroke-linejoin:miter;stroke-width:0.310892;"/>
   </g>
   <g id="patch_43">
    <path clip-path="url(#pce1dc21501)" d="M 227.487379 417.054207 
L 231.028458 417.054207 
L 231.028458 404.930883 
L 227.487379 404.930883 
z
" style="fill:#da8bc3;fill-opacity:0.5;stroke:#ffffff;stroke-linejoin:miter;stroke-width:0.310892;"/>
   </g>
   <g id="patch_44">
    <path clip-path="url(#pce1dc21501)" d="M 231.028458 417.054207 
L 234.569536 417.054207 
L 234.569536 409.92284 
L 231.028458 409.92284 
z
" style="fill:#da8bc3;fill-opacity:0.5;stroke:#ffffff;stroke-linejoin:miter;stroke-width:0.310892;"/>
   </g>
   <g id="patch_45">
    <path clip-path="url(#pce1dc21501)" d="M 234.569536 417.054207 
L 238.110614 417.054207 
L 238.110614 408.496567 
L 234.569536 408.496567 
z
" style="fill:#da8bc3;fill-opacity:0.5;stroke:#ffffff;stroke-linejoin:miter;stroke-width:0.310892;"/>
   </g>
   <g id="patch_46">
    <path clip-path="url(#pce1dc21501)" d="M 238.110614 417.054207 
L 241.651692 417.054207 
L 241.651692 408.496567 
L 238.110614 408.496567 
z
" style="fill:#da8bc3;fill-opacity:0.5;stroke:#ffffff;stroke-linejoin:miter;stroke-width:0.310892;"/>
   </g>
   <g id="patch_47">
    <path clip-path="url(#pce1dc21501)" d="M 241.651692 417.054207 
L 245.19277 417.054207 
L 245.19277 412.06225 
L 241.651692 412.06225 
z
" style="fill:#da8bc3;fill-opacity:0.5;stroke:#ffffff;stroke-linejoin:miter;stroke-width:0.310892;"/>
   </g>
   <g id="patch_48">
    <path clip-path="url(#pce1dc21501)" d="M 245.19277 417.054207 
L 248.733849 417.054207 
L 248.733849 410.635977 
L 245.19277 410.635977 
z
" style="fill:#da8bc3;fill-opacity:0.5;stroke:#ffffff;stroke-linejoin:miter;stroke-width:0.310892;"/>
   </g>
   <g id="patch_49">
    <path clip-path="url(#pce1dc21501)" d="M 248.733849 417.054207 
L 252.274927 417.054207 
L 252.274927 416.341071 
L 248.733849 416.341071 
z
" style="fill:#da8bc3;fill-opacity:0.5;stroke:#ffffff;stroke-linejoin:miter;stroke-width:0.310892;"/>
   </g>
   <g id="patch_50">
    <path clip-path="url(#pce1dc21501)" d="M 252.274927 417.054207 
L 255.816005 417.054207 
L 255.816005 417.054207 
L 252.274927 417.054207 
z
" style="fill:#da8bc3;fill-opacity:0.5;stroke:#ffffff;stroke-linejoin:miter;stroke-width:0.310892;"/>
   </g>
   <g id="patch_51">
    <path clip-path="url(#pce1dc21501)" d="M 255.816005 417.054207 
L 259.357083 417.054207 
L 259.357083 411.349114 
L 255.816005 411.349114 
z
" style="fill:#da8bc3;fill-opacity:0.5;stroke:#ffffff;stroke-linejoin:miter;stroke-width:0.310892;"/>
   </g>
   <g id="patch_52">
    <path clip-path="url(#pce1dc21501)" d="M 259.357083 417.054207 
L 262.898161 417.054207 
L 262.898161 416.341071 
L 259.357083 416.341071 
z
" style="fill:#da8bc3;fill-opacity:0.5;stroke:#ffffff;stroke-linejoin:miter;stroke-width:0.310892;"/>
   </g>
   <g id="patch_53">
    <path clip-path="url(#pce1dc21501)" d="M 262.898161 417.054207 
L 266.43924 417.054207 
L 266.43924 417.054207 
L 262.898161 417.054207 
z
" style="fill:#da8bc3;fill-opacity:0.5;stroke:#ffffff;stroke-linejoin:miter;stroke-width:0.310892;"/>
   </g>
   <g id="patch_54">
    <path clip-path="url(#pce1dc21501)" d="M 266.43924 417.054207 
L 269.980318 417.054207 
L 269.980318 413.488524 
L 266.43924 413.488524 
z
" style="fill:#da8bc3;fill-opacity:0.5;stroke:#ffffff;stroke-linejoin:miter;stroke-width:0.310892;"/>
   </g>
   <g id="patch_55">
    <path clip-path="url(#pce1dc21501)" d="M 269.980318 417.054207 
L 273.521396 417.054207 
L 273.521396 416.341071 
L 269.980318 416.341071 
z
" style="fill:#da8bc3;fill-opacity:0.5;stroke:#ffffff;stroke-linejoin:miter;stroke-width:0.310892;"/>
   </g>
   <g id="patch_56">
    <path clip-path="url(#pce1dc21501)" d="M 273.521396 417.054207 
L 277.062474 417.054207 
L 277.062474 416.341071 
L 273.521396 416.341071 
z
" style="fill:#da8bc3;fill-opacity:0.5;stroke:#ffffff;stroke-linejoin:miter;stroke-width:0.310892;"/>
   </g>
   <g id="patch_57">
    <path clip-path="url(#pce1dc21501)" d="M 277.062474 417.054207 
L 280.603552 417.054207 
L 280.603552 415.627934 
L 277.062474 415.627934 
z
" style="fill:#da8bc3;fill-opacity:0.5;stroke:#ffffff;stroke-linejoin:miter;stroke-width:0.310892;"/>
   </g>
   <g id="patch_58">
    <path clip-path="url(#pce1dc21501)" d="M 280.603552 417.054207 
L 284.144631 417.054207 
L 284.144631 412.775387 
L 280.603552 412.775387 
z
" style="fill:#da8bc3;fill-opacity:0.5;stroke:#ffffff;stroke-linejoin:miter;stroke-width:0.310892;"/>
   </g>
   <g id="patch_59">
    <path clip-path="url(#pce1dc21501)" d="M 284.144631 417.054207 
L 287.685709 417.054207 
L 287.685709 415.627934 
L 284.144631 415.627934 
z
" style="fill:#da8bc3;fill-opacity:0.5;stroke:#ffffff;stroke-linejoin:miter;stroke-width:0.310892;"/>
   </g>
   <g id="patch_60">
    <path clip-path="url(#pce1dc21501)" d="M 287.685709 417.054207 
L 291.226787 417.054207 
L 291.226787 416.341071 
L 287.685709 416.341071 
z
" style="fill:#da8bc3;fill-opacity:0.5;stroke:#ffffff;stroke-linejoin:miter;stroke-width:0.310892;"/>
   </g>
   <g id="patch_61">
    <path clip-path="url(#pce1dc21501)" d="M 291.226787 417.054207 
L 294.767865 417.054207 
L 294.767865 415.627934 
L 291.226787 415.627934 
z
" style="fill:#da8bc3;fill-opacity:0.5;stroke:#ffffff;stroke-linejoin:miter;stroke-width:0.310892;"/>
   </g>
   <g id="patch_62">
    <path clip-path="url(#pce1dc21501)" d="M 294.767865 417.054207 
L 298.308943 417.054207 
L 298.308943 414.914797 
L 294.767865 414.914797 
z
" style="fill:#da8bc3;fill-opacity:0.5;stroke:#ffffff;stroke-linejoin:miter;stroke-width:0.310892;"/>
   </g>
   <g id="patch_63">
    <path clip-path="url(#pce1dc21501)" d="M 298.308943 417.054207 
L 301.850022 417.054207 
L 301.850022 416.341071 
L 298.308943 416.341071 
z
" style="fill:#da8bc3;fill-opacity:0.5;stroke:#ffffff;stroke-linejoin:miter;stroke-width:0.310892;"/>
   </g>
   <g id="patch_64">
    <path clip-path="url(#pce1dc21501)" d="M 301.850022 417.054207 
L 305.3911 417.054207 
L 305.3911 414.914797 
L 301.850022 414.914797 
z
" style="fill:#da8bc3;fill-opacity:0.5;stroke:#ffffff;stroke-linejoin:miter;stroke-width:0.310892;"/>
   </g>
   <g id="patch_65">
    <path clip-path="url(#pce1dc21501)" d="M 305.3911 417.054207 
L 308.932178 417.054207 
L 308.932178 416.341071 
L 305.3911 416.341071 
z
" style="fill:#da8bc3;fill-opacity:0.5;stroke:#ffffff;stroke-linejoin:miter;stroke-width:0.310892;"/>
   </g>
   <g id="patch_66">
    <path clip-path="url(#pce1dc21501)" d="M 308.932178 417.054207 
L 312.473256 417.054207 
L 312.473256 417.054207 
L 308.932178 417.054207 
z
" style="fill:#da8bc3;fill-opacity:0.5;stroke:#ffffff;stroke-linejoin:miter;stroke-width:0.310892;"/>
   </g>
   <g id="patch_67">
    <path clip-path="url(#pce1dc21501)" d="M 312.473256 417.054207 
L 316.014334 417.054207 
L 316.014334 414.201661 
L 312.473256 414.201661 
z
" style="fill:#da8bc3;fill-opacity:0.5;stroke:#ffffff;stroke-linejoin:miter;stroke-width:0.310892;"/>
   </g>
   <g id="patch_68">
    <path clip-path="url(#pce1dc21501)" d="M 316.014334 417.054207 
L 319.555413 417.054207 
L 319.555413 417.054207 
L 316.014334 417.054207 
z
" style="fill:#da8bc3;fill-opacity:0.5;stroke:#ffffff;stroke-linejoin:miter;stroke-width:0.310892;"/>
   </g>
   <g id="patch_69">
    <path clip-path="url(#pce1dc21501)" d="M 319.555413 417.054207 
L 323.096491 417.054207 
L 323.096491 417.054207 
L 319.555413 417.054207 
z
" style="fill:#da8bc3;fill-opacity:0.5;stroke:#ffffff;stroke-linejoin:miter;stroke-width:0.310892;"/>
   </g>
   <g id="patch_70">
    <path clip-path="url(#pce1dc21501)" d="M 323.096491 417.054207 
L 326.637569 417.054207 
L 326.637569 416.341071 
L 323.096491 416.341071 
z
" style="fill:#da8bc3;fill-opacity:0.5;stroke:#ffffff;stroke-linejoin:miter;stroke-width:0.310892;"/>
   </g>
   <g id="patch_71">
    <path clip-path="url(#pce1dc21501)" d="M 326.637569 417.054207 
L 330.178647 417.054207 
L 330.178647 417.054207 
L 326.637569 417.054207 
z
" style="fill:#da8bc3;fill-opacity:0.5;stroke:#ffffff;stroke-linejoin:miter;stroke-width:0.310892;"/>
   </g>
   <g id="patch_72">
    <path clip-path="url(#pce1dc21501)" d="M 330.178647 417.054207 
L 333.719725 417.054207 
L 333.719725 416.341071 
L 330.178647 416.341071 
z
" style="fill:#da8bc3;fill-opacity:0.5;stroke:#ffffff;stroke-linejoin:miter;stroke-width:0.310892;"/>
   </g>
   <g id="patch_73">
    <path clip-path="url(#pce1dc21501)" d="M 333.719725 417.054207 
L 337.260803 417.054207 
L 337.260803 417.054207 
L 333.719725 417.054207 
z
" style="fill:#da8bc3;fill-opacity:0.5;stroke:#ffffff;stroke-linejoin:miter;stroke-width:0.310892;"/>
   </g>
   <g id="patch_74">
    <path clip-path="url(#pce1dc21501)" d="M 337.260803 417.054207 
L 340.801882 417.054207 
L 340.801882 417.054207 
L 337.260803 417.054207 
z
" style="fill:#da8bc3;fill-opacity:0.5;stroke:#ffffff;stroke-linejoin:miter;stroke-width:0.310892;"/>
   </g>
   <g id="patch_75">
    <path clip-path="url(#pce1dc21501)" d="M 340.801882 417.054207 
L 344.34296 417.054207 
L 344.34296 417.054207 
L 340.801882 417.054207 
z
" style="fill:#da8bc3;fill-opacity:0.5;stroke:#ffffff;stroke-linejoin:miter;stroke-width:0.310892;"/>
   </g>
   <g id="patch_76">
    <path clip-path="url(#pce1dc21501)" d="M 344.34296 417.054207 
L 347.884038 417.054207 
L 347.884038 416.341071 
L 344.34296 416.341071 
z
" style="fill:#da8bc3;fill-opacity:0.5;stroke:#ffffff;stroke-linejoin:miter;stroke-width:0.310892;"/>
   </g>
   <g id="patch_77">
    <path clip-path="url(#pce1dc21501)" d="M 347.884038 417.054207 
L 351.425116 417.054207 
L 351.425116 417.054207 
L 347.884038 417.054207 
z
" style="fill:#da8bc3;fill-opacity:0.5;stroke:#ffffff;stroke-linejoin:miter;stroke-width:0.310892;"/>
   </g>
   <g id="patch_78">
    <path clip-path="url(#pce1dc21501)" d="M 351.425116 417.054207 
L 354.966194 417.054207 
L 354.966194 416.341071 
L 351.425116 416.341071 
z
" style="fill:#da8bc3;fill-opacity:0.5;stroke:#ffffff;stroke-linejoin:miter;stroke-width:0.310892;"/>
   </g>
   <g id="patch_79">
    <path clip-path="url(#pce1dc21501)" d="M 354.966194 417.054207 
L 358.507273 417.054207 
L 358.507273 417.054207 
L 354.966194 417.054207 
z
" style="fill:#da8bc3;fill-opacity:0.5;stroke:#ffffff;stroke-linejoin:miter;stroke-width:0.310892;"/>
   </g>
   <g id="patch_80">
    <path clip-path="url(#pce1dc21501)" d="M 358.507273 417.054207 
L 362.048351 417.054207 
L 362.048351 417.054207 
L 358.507273 417.054207 
z
" style="fill:#da8bc3;fill-opacity:0.5;stroke:#ffffff;stroke-linejoin:miter;stroke-width:0.310892;"/>
   </g>
   <g id="patch_81">
    <path clip-path="url(#pce1dc21501)" d="M 362.048351 417.054207 
L 365.589429 417.054207 
L 365.589429 417.054207 
L 362.048351 417.054207 
z
" style="fill:#da8bc3;fill-opacity:0.5;stroke:#ffffff;stroke-linejoin:miter;stroke-width:0.310892;"/>
   </g>
   <g id="patch_82">
    <path clip-path="url(#pce1dc21501)" d="M 365.589429 417.054207 
L 369.130507 417.054207 
L 369.130507 417.054207 
L 365.589429 417.054207 
z
" style="fill:#da8bc3;fill-opacity:0.5;stroke:#ffffff;stroke-linejoin:miter;stroke-width:0.310892;"/>
   </g>
   <g id="patch_83">
    <path clip-path="url(#pce1dc21501)" d="M 369.130507 417.054207 
L 372.671585 417.054207 
L 372.671585 415.627934 
L 369.130507 415.627934 
z
" style="fill:#da8bc3;fill-opacity:0.5;stroke:#ffffff;stroke-linejoin:miter;stroke-width:0.310892;"/>
   </g>
   <g id="patch_84">
    <path clip-path="url(#pce1dc21501)" d="M 372.671585 417.054207 
L 376.212664 417.054207 
L 376.212664 417.054207 
L 372.671585 417.054207 
z
" style="fill:#da8bc3;fill-opacity:0.5;stroke:#ffffff;stroke-linejoin:miter;stroke-width:0.310892;"/>
   </g>
   <g id="patch_85">
    <path clip-path="url(#pce1dc21501)" d="M 376.212664 417.054207 
L 379.753742 417.054207 
L 379.753742 417.054207 
L 376.212664 417.054207 
z
" style="fill:#da8bc3;fill-opacity:0.5;stroke:#ffffff;stroke-linejoin:miter;stroke-width:0.310892;"/>
   </g>
   <g id="patch_86">
    <path clip-path="url(#pce1dc21501)" d="M 379.753742 417.054207 
L 383.29482 417.054207 
L 383.29482 417.054207 
L 379.753742 417.054207 
z
" style="fill:#da8bc3;fill-opacity:0.5;stroke:#ffffff;stroke-linejoin:miter;stroke-width:0.310892;"/>
   </g>
   <g id="patch_87">
    <path clip-path="url(#pce1dc21501)" d="M 383.29482 417.054207 
L 386.835898 417.054207 
L 386.835898 417.054207 
L 383.29482 417.054207 
z
" style="fill:#da8bc3;fill-opacity:0.5;stroke:#ffffff;stroke-linejoin:miter;stroke-width:0.310892;"/>
   </g>
   <g id="patch_88">
    <path clip-path="url(#pce1dc21501)" d="M 386.835898 417.054207 
L 390.376976 417.054207 
L 390.376976 417.054207 
L 386.835898 417.054207 
z
" style="fill:#da8bc3;fill-opacity:0.5;stroke:#ffffff;stroke-linejoin:miter;stroke-width:0.310892;"/>
   </g>
   <g id="patch_89">
    <path clip-path="url(#pce1dc21501)" d="M 390.376976 417.054207 
L 393.918055 417.054207 
L 393.918055 417.054207 
L 390.376976 417.054207 
z
" style="fill:#da8bc3;fill-opacity:0.5;stroke:#ffffff;stroke-linejoin:miter;stroke-width:0.310892;"/>
   </g>
   <g id="patch_90">
    <path clip-path="url(#pce1dc21501)" d="M 393.918055 417.054207 
L 397.459133 417.054207 
L 397.459133 416.341071 
L 393.918055 416.341071 
z
" style="fill:#da8bc3;fill-opacity:0.5;stroke:#ffffff;stroke-linejoin:miter;stroke-width:0.310892;"/>
   </g>
   <g id="patch_91">
    <path clip-path="url(#pce1dc21501)" d="M 397.459133 417.054207 
L 401.000211 417.054207 
L 401.000211 413.488524 
L 397.459133 413.488524 
z
" style="fill:#da8bc3;fill-opacity:0.5;stroke:#ffffff;stroke-linejoin:miter;stroke-width:0.310892;"/>
   </g>
   <g id="line2d_17">
    <path clip-path="url(#pce1dc21501)" d="M 69.842362 417.027559 
L 73.331405 416.824695 
L 75.075926 416.462791 
L 76.820447 415.652942 
L 78.564968 413.993954 
L 80.30949 410.876423 
L 82.054011 405.489234 
L 83.798532 396.904889 
L 85.543054 384.251609 
L 87.287575 366.939686 
L 89.032096 344.871458 
L 90.776618 318.552567 
L 94.26566 257.799251 
L 97.754703 196.021652 
L 99.499224 167.921108 
L 101.243745 142.740953 
L 102.988267 120.902498 
L 104.732788 102.617597 
L 106.477309 87.944817 
L 108.221831 76.821016 
L 109.966352 69.092267 
L 111.710873 64.558025 
L 113.455394 63.013354 
L 115.199916 64.261369 
L 116.944437 68.08887 
L 118.688958 74.231872 
L 120.43348 82.367151 
L 122.178001 92.138775 
L 123.922522 103.193397 
L 127.411565 127.809446 
L 136.134171 191.553842 
L 139.623214 215.846916 
L 143.112257 238.211747 
L 144.856778 248.157918 
L 146.601299 257.112391 
L 148.34582 265.08652 
L 150.090342 272.224143 
L 153.579384 285.086363 
L 157.068427 297.891408 
L 162.301991 317.434732 
L 164.046512 323.190407 
L 165.791033 328.285749 
L 167.535555 332.807834 
L 172.769119 345.596019 
L 176.258161 354.611876 
L 178.002683 358.729885 
L 179.747204 362.292251 
L 181.491725 365.282294 
L 183.236246 367.844871 
L 190.214332 377.362183 
L 193.703374 382.588579 
L 198.936938 390.537208 
L 200.681459 392.850646 
L 202.425981 394.774685 
L 204.170502 396.223627 
L 205.915023 397.20377 
L 207.659545 397.82274 
L 211.148587 398.688463 
L 212.893109 399.248092 
L 214.63763 399.979767 
L 221.615715 403.445951 
L 225.104758 404.744094 
L 237.316407 408.879899 
L 240.805449 410.201457 
L 247.783535 413.07818 
L 249.528056 413.65317 
L 251.272577 414.097446 
L 254.76162 414.600584 
L 266.973269 415.513954 
L 272.206833 415.662571 
L 275.695875 415.556389 
L 282.673961 415.061486 
L 286.163003 415.20663 
L 291.396567 415.541476 
L 296.630131 415.532471 
L 301.863695 415.606768 
L 312.330823 416.0879 
L 317.564387 416.282042 
L 324.542472 416.650706 
L 338.498642 416.92241 
L 345.476727 416.784574 
L 350.710291 416.719996 
L 362.92194 416.86497 
L 369.900025 416.675678 
L 375.133589 416.82203 
L 382.111675 417.021695 
L 387.345238 416.981585 
L 390.834281 416.80616 
L 401.301409 415.972409 
L 404.790451 416.253358 
L 410.024015 416.818316 
L 413.513058 416.992251 
L 417.002101 417.043535 
L 417.002101 417.043535 
" style="fill:none;stroke:#da8bc3;stroke-linecap:round;stroke-width:1.5;"/>
   </g>
   <g id="patch_92">
    <path d="M 52.484375 417.054207 
L 52.484375 22.44 
" style="fill:none;stroke:#ffffff;stroke-linecap:square;stroke-linejoin:miter;stroke-width:0.8;"/>
   </g>
   <g id="patch_93">
    <path d="M 434.360088 417.054207 
L 434.360088 22.44 
" style="fill:none;stroke:#ffffff;stroke-linecap:square;stroke-linejoin:miter;stroke-width:0.8;"/>
   </g>
   <g id="patch_94">
    <path d="M 52.484375 417.054207 
L 434.360088 417.054207 
" style="fill:none;stroke:#ffffff;stroke-linecap:square;stroke-linejoin:miter;stroke-width:0.8;"/>
   </g>
   <g id="patch_95">
    <path d="M 52.484375 22.44 
L 434.360088 22.44 
" style="fill:none;stroke:#ffffff;stroke-linecap:square;stroke-linejoin:miter;stroke-width:0.8;"/>
   </g>
   <g id="text_18">
    <!-- Posterior Distribution $\beta$ -->
    <g style="fill:#262626;" transform="translate(182.222231 16.44)scale(0.12 -0.12)">
     <defs>
      <path d="M 494 0 
L 494 4581 
L 2222 4581 
Q 2678 4581 2919 4538 
Q 3256 4481 3484 4323 
Q 3713 4166 3852 3881 
Q 3991 3597 3991 3256 
Q 3991 2672 3619 2267 
Q 3247 1863 2275 1863 
L 1100 1863 
L 1100 0 
L 494 0 
z
M 1100 2403 
L 2284 2403 
Q 2872 2403 3119 2622 
Q 3366 2841 3366 3238 
Q 3366 3525 3220 3729 
Q 3075 3934 2838 4000 
Q 2684 4041 2272 4041 
L 1100 4041 
L 1100 2403 
z
" id="ArialMT-50" transform="scale(0.015625)"/>
      <path d="M 213 1659 
Q 213 2581 725 3025 
Q 1153 3394 1769 3394 
Q 2453 3394 2887 2945 
Q 3322 2497 3322 1706 
Q 3322 1066 3130 698 
Q 2938 331 2570 128 
Q 2203 -75 1769 -75 
Q 1072 -75 642 372 
Q 213 819 213 1659 
z
M 791 1659 
Q 791 1022 1069 705 
Q 1347 388 1769 388 
Q 2188 388 2466 706 
Q 2744 1025 2744 1678 
Q 2744 2294 2464 2611 
Q 2184 2928 1769 2928 
Q 1347 2928 1069 2612 
Q 791 2297 791 1659 
z
" id="ArialMT-6f" transform="scale(0.015625)"/>
      <path d="M 416 0 
L 416 3319 
L 922 3319 
L 922 2816 
Q 1116 3169 1280 3281 
Q 1444 3394 1641 3394 
Q 1925 3394 2219 3213 
L 2025 2691 
Q 1819 2813 1613 2813 
Q 1428 2813 1281 2702 
Q 1134 2591 1072 2394 
Q 978 2094 978 1738 
L 978 0 
L 416 0 
z
" id="ArialMT-72" transform="scale(0.015625)"/>
      <path id="ArialMT-20" transform="scale(0.015625)"/>
      <path d="M 941 0 
L 419 0 
L 419 4581 
L 981 4581 
L 981 2947 
Q 1338 3394 1891 3394 
Q 2197 3394 2470 3270 
Q 2744 3147 2920 2923 
Q 3097 2700 3197 2384 
Q 3297 2069 3297 1709 
Q 3297 856 2875 390 
Q 2453 -75 1863 -75 
Q 1275 -75 941 416 
L 941 0 
z
M 934 1684 
Q 934 1088 1097 822 
Q 1363 388 1816 388 
Q 2184 388 2453 708 
Q 2722 1028 2722 1663 
Q 2722 2313 2464 2622 
Q 2206 2931 1841 2931 
Q 1472 2931 1203 2611 
Q 934 2291 934 1684 
z
" id="ArialMT-62" transform="scale(0.015625)"/>
      <path d="M 2597 0 
L 2597 488 
Q 2209 -75 1544 -75 
Q 1250 -75 995 37 
Q 741 150 617 320 
Q 494 491 444 738 
Q 409 903 409 1263 
L 409 3319 
L 972 3319 
L 972 1478 
Q 972 1038 1006 884 
Q 1059 663 1231 536 
Q 1403 409 1656 409 
Q 1909 409 2131 539 
Q 2353 669 2445 892 
Q 2538 1116 2538 1541 
L 2538 3319 
L 3100 3319 
L 3100 0 
L 2597 0 
z
" id="ArialMT-75" transform="scale(0.015625)"/>
      <path d="M 872 216 
L 572 -1331 
L -6 -1331 
L 928 3478 
Q 1206 4903 2538 4903 
Q 3888 4903 3659 3700 
Q 3503 2844 2894 2531 
Q 3713 2250 3553 1416 
Q 3272 -69 1759 -66 
Q 1097 -63 872 216 
z
M 1019 966 
Q 1259 422 1875 425 
Q 2775 425 2966 1406 
Q 3138 2288 1675 2219 
L 1778 2750 
Q 2909 2731 3106 3750 
Q 3241 4438 2509 4434 
Q 1691 4434 1503 3459 
L 1019 966 
z
" id="DejaVuSans-Oblique-3b2" transform="scale(0.015625)"/>
     </defs>
     <use transform="translate(0 0.390625)" xlink:href="#ArialMT-50"/>
     <use transform="translate(66.699219 0.390625)" xlink:href="#ArialMT-6f"/>
     <use transform="translate(122.314453 0.390625)" xlink:href="#ArialMT-73"/>
     <use transform="translate(172.314453 0.390625)" xlink:href="#ArialMT-74"/>
     <use transform="translate(200.097656 0.390625)" xlink:href="#ArialMT-65"/>
     <use transform="translate(255.712891 0.390625)" xlink:href="#ArialMT-72"/>
     <use transform="translate(289.013672 0.390625)" xlink:href="#ArialMT-69"/>
     <use transform="translate(311.230469 0.390625)" xlink:href="#ArialMT-6f"/>
     <use transform="translate(366.845703 0.390625)" xlink:href="#ArialMT-72"/>
     <use transform="translate(400.146484 0.390625)" xlink:href="#ArialMT-20"/>
     <use transform="translate(427.929688 0.390625)" xlink:href="#ArialMT-44"/>
     <use transform="translate(500.146484 0.390625)" xlink:href="#ArialMT-69"/>
     <use transform="translate(522.363281 0.390625)" xlink:href="#ArialMT-73"/>
     <use transform="translate(572.363281 0.390625)" xlink:href="#ArialMT-74"/>
     <use transform="translate(600.146484 0.390625)" xlink:href="#ArialMT-72"/>
     <use transform="translate(633.447266 0.390625)" xlink:href="#ArialMT-69"/>
     <use transform="translate(655.664062 0.390625)" xlink:href="#ArialMT-62"/>
     <use transform="translate(711.279297 0.390625)" xlink:href="#ArialMT-75"/>
     <use transform="translate(766.894531 0.390625)" xlink:href="#ArialMT-74"/>
     <use transform="translate(794.677734 0.390625)" xlink:href="#ArialMT-69"/>
     <use transform="translate(816.894531 0.390625)" xlink:href="#ArialMT-6f"/>
     <use transform="translate(872.509766 0.390625)" xlink:href="#ArialMT-6e"/>
     <use transform="translate(928.125 0.390625)" xlink:href="#ArialMT-20"/>
     <use transform="translate(955.908203 0.390625)" xlink:href="#DejaVuSans-Oblique-3b2"/>
    </g>
   </g>
   <g id="legend_1">
    <g id="patch_96">
     <path d="M 325.589775 44.585312 
L 427.360088 44.585312 
Q 429.360088 44.585312 429.360088 42.585312 
L 429.360088 29.44 
Q 429.360088 27.44 427.360088 27.44 
L 325.589775 27.44 
Q 323.589775 27.44 323.589775 29.44 
L 323.589775 42.585312 
Q 323.589775 44.585312 325.589775 44.585312 
z
" style="fill:#e6e6e6;opacity:0.8;stroke:#cccccc;stroke-linejoin:miter;"/>
    </g>
    <g id="patch_97">
     <path d="M 327.589775 38.597812 
L 347.589775 38.597812 
L 347.589775 31.597812 
L 327.589775 31.597812 
z
" style="fill:#da8bc3;fill-opacity:0.5;stroke:#ffffff;stroke-linejoin:miter;stroke-width:0.310892;"/>
    </g>
    <g id="text_19">
     <!-- mean =  25.948 -->
     <g style="fill:#262626;" transform="translate(355.589775 38.597812)scale(0.1 -0.1)">
      <defs>
       <path d="M 422 0 
L 422 3319 
L 925 3319 
L 925 2853 
Q 1081 3097 1340 3245 
Q 1600 3394 1931 3394 
Q 2300 3394 2536 3241 
Q 2772 3088 2869 2813 
Q 3263 3394 3894 3394 
Q 4388 3394 4653 3120 
Q 4919 2847 4919 2278 
L 4919 0 
L 4359 0 
L 4359 2091 
Q 4359 2428 4304 2576 
Q 4250 2725 4106 2815 
Q 3963 2906 3769 2906 
Q 3419 2906 3187 2673 
Q 2956 2441 2956 1928 
L 2956 0 
L 2394 0 
L 2394 2156 
Q 2394 2531 2256 2718 
Q 2119 2906 1806 2906 
Q 1569 2906 1367 2781 
Q 1166 2656 1075 2415 
Q 984 2175 984 1722 
L 984 0 
L 422 0 
z
" id="ArialMT-6d" transform="scale(0.015625)"/>
       <path d="M 2588 409 
Q 2275 144 1986 34 
Q 1697 -75 1366 -75 
Q 819 -75 525 192 
Q 231 459 231 875 
Q 231 1119 342 1320 
Q 453 1522 633 1644 
Q 813 1766 1038 1828 
Q 1203 1872 1538 1913 
Q 2219 1994 2541 2106 
Q 2544 2222 2544 2253 
Q 2544 2597 2384 2738 
Q 2169 2928 1744 2928 
Q 1347 2928 1158 2789 
Q 969 2650 878 2297 
L 328 2372 
Q 403 2725 575 2942 
Q 747 3159 1072 3276 
Q 1397 3394 1825 3394 
Q 2250 3394 2515 3294 
Q 2781 3194 2906 3042 
Q 3031 2891 3081 2659 
Q 3109 2516 3109 2141 
L 3109 1391 
Q 3109 606 3145 398 
Q 3181 191 3288 0 
L 2700 0 
Q 2613 175 2588 409 
z
M 2541 1666 
Q 2234 1541 1622 1453 
Q 1275 1403 1131 1340 
Q 988 1278 909 1158 
Q 831 1038 831 891 
Q 831 666 1001 516 
Q 1172 366 1500 366 
Q 1825 366 2078 508 
Q 2331 650 2450 897 
Q 2541 1088 2541 1459 
L 2541 1666 
z
" id="ArialMT-61" transform="scale(0.015625)"/>
       <path d="M 3381 2694 
L 356 2694 
L 356 3219 
L 3381 3219 
L 3381 2694 
z
M 3381 1303 
L 356 1303 
L 356 1828 
L 3381 1828 
L 3381 1303 
z
" id="ArialMT-3d" transform="scale(0.015625)"/>
       <path d="M 350 1059 
L 891 1109 
Q 959 728 1153 556 
Q 1347 384 1650 384 
Q 1909 384 2104 503 
Q 2300 622 2425 820 
Q 2550 1019 2634 1356 
Q 2719 1694 2719 2044 
Q 2719 2081 2716 2156 
Q 2547 1888 2255 1720 
Q 1963 1553 1622 1553 
Q 1053 1553 659 1965 
Q 266 2378 266 3053 
Q 266 3750 677 4175 
Q 1088 4600 1706 4600 
Q 2153 4600 2523 4359 
Q 2894 4119 3086 3673 
Q 3278 3228 3278 2384 
Q 3278 1506 3087 986 
Q 2897 466 2520 194 
Q 2144 -78 1638 -78 
Q 1100 -78 759 220 
Q 419 519 350 1059 
z
M 2653 3081 
Q 2653 3566 2395 3850 
Q 2138 4134 1775 4134 
Q 1400 4134 1122 3828 
Q 844 3522 844 3034 
Q 844 2597 1108 2323 
Q 1372 2050 1759 2050 
Q 2150 2050 2401 2323 
Q 2653 2597 2653 3081 
z
" id="ArialMT-39" transform="scale(0.015625)"/>
       <path d="M 2069 0 
L 2069 1097 
L 81 1097 
L 81 1613 
L 2172 4581 
L 2631 4581 
L 2631 1613 
L 3250 1613 
L 3250 1097 
L 2631 1097 
L 2631 0 
L 2069 0 
z
M 2069 1613 
L 2069 3678 
L 634 1613 
L 2069 1613 
z
" id="ArialMT-34" transform="scale(0.015625)"/>
       <path d="M 1131 2484 
Q 781 2613 612 2850 
Q 444 3088 444 3419 
Q 444 3919 803 4259 
Q 1163 4600 1759 4600 
Q 2359 4600 2725 4251 
Q 3091 3903 3091 3403 
Q 3091 3084 2923 2848 
Q 2756 2613 2416 2484 
Q 2838 2347 3058 2040 
Q 3278 1734 3278 1309 
Q 3278 722 2862 322 
Q 2447 -78 1769 -78 
Q 1091 -78 675 323 
Q 259 725 259 1325 
Q 259 1772 486 2073 
Q 713 2375 1131 2484 
z
M 1019 3438 
Q 1019 3113 1228 2906 
Q 1438 2700 1772 2700 
Q 2097 2700 2305 2904 
Q 2513 3109 2513 3406 
Q 2513 3716 2298 3927 
Q 2084 4138 1766 4138 
Q 1444 4138 1231 3931 
Q 1019 3725 1019 3438 
z
M 838 1322 
Q 838 1081 952 856 
Q 1066 631 1291 507 
Q 1516 384 1775 384 
Q 2178 384 2440 643 
Q 2703 903 2703 1303 
Q 2703 1709 2433 1975 
Q 2163 2241 1756 2241 
Q 1359 2241 1098 1978 
Q 838 1716 838 1322 
z
" id="ArialMT-38" transform="scale(0.015625)"/>
      </defs>
      <use xlink:href="#ArialMT-6d"/>
      <use x="83.300781" xlink:href="#ArialMT-65"/>
      <use x="138.916016" xlink:href="#ArialMT-61"/>
      <use x="194.53125" xlink:href="#ArialMT-6e"/>
      <use x="250.146484" xlink:href="#ArialMT-20"/>
      <use x="277.929688" xlink:href="#ArialMT-3d"/>
      <use x="336.328125" xlink:href="#ArialMT-20"/>
      <use x="364.111328" xlink:href="#ArialMT-20"/>
      <use x="391.894531" xlink:href="#ArialMT-32"/>
      <use x="447.509766" xlink:href="#ArialMT-35"/>
      <use x="503.125" xlink:href="#ArialMT-2e"/>
      <use x="530.908203" xlink:href="#ArialMT-39"/>
      <use x="586.523438" xlink:href="#ArialMT-34"/>
      <use x="642.138672" xlink:href="#ArialMT-38"/>
     </g>
    </g>
   </g>
  </g>
  <g id="axes_2">
   <g id="patch_98">
    <path d="M 482.723525 417.054207 
L 864.599238 417.054207 
L 864.599238 22.44 
L 482.723525 22.44 
z
" style="fill:#e6e6e6;"/>
   </g>
   <g id="matplotlib.axis_3">
    <g id="xtick_9">
     <g id="line2d_18">
      <path clip-path="url(#p27e9c4dc74)" d="M 513.253685 417.054207 
L 513.253685 22.44 
" style="fill:none;stroke:#cccccc;stroke-linecap:round;stroke-width:0.8;"/>
     </g>
     <g id="text_20">
      <!-- 0.0 -->
      <g style="fill:#262626;" transform="translate(506.303685 431.21202)scale(0.1 -0.1)">
       <use xlink:href="#ArialMT-30"/>
       <use x="55.615234" xlink:href="#ArialMT-2e"/>
       <use x="83.398438" xlink:href="#ArialMT-30"/>
      </g>
     </g>
    </g>
    <g id="xtick_10">
     <g id="line2d_19">
      <path clip-path="url(#p27e9c4dc74)" d="M 556.027856 417.054207 
L 556.027856 22.44 
" style="fill:none;stroke:#cccccc;stroke-linecap:round;stroke-width:0.8;"/>
     </g>
     <g id="text_21">
      <!-- 2.5 -->
      <g style="fill:#262626;" transform="translate(549.077856 431.21202)scale(0.1 -0.1)">
       <use xlink:href="#ArialMT-32"/>
       <use x="55.615234" xlink:href="#ArialMT-2e"/>
       <use x="83.398438" xlink:href="#ArialMT-35"/>
      </g>
     </g>
    </g>
    <g id="xtick_11">
     <g id="line2d_20">
      <path clip-path="url(#p27e9c4dc74)" d="M 598.802027 417.054207 
L 598.802027 22.44 
" style="fill:none;stroke:#cccccc;stroke-linecap:round;stroke-width:0.8;"/>
     </g>
     <g id="text_22">
      <!-- 5.0 -->
      <g style="fill:#262626;" transform="translate(591.852027 431.21202)scale(0.1 -0.1)">
       <use xlink:href="#ArialMT-35"/>
       <use x="55.615234" xlink:href="#ArialMT-2e"/>
       <use x="83.398438" xlink:href="#ArialMT-30"/>
      </g>
     </g>
    </g>
    <g id="xtick_12">
     <g id="line2d_21">
      <path clip-path="url(#p27e9c4dc74)" d="M 641.576198 417.054207 
L 641.576198 22.44 
" style="fill:none;stroke:#cccccc;stroke-linecap:round;stroke-width:0.8;"/>
     </g>
     <g id="text_23">
      <!-- 7.5 -->
      <g style="fill:#262626;" transform="translate(634.626198 431.21202)scale(0.1 -0.1)">
       <use xlink:href="#ArialMT-37"/>
       <use x="55.615234" xlink:href="#ArialMT-2e"/>
       <use x="83.398438" xlink:href="#ArialMT-35"/>
      </g>
     </g>
    </g>
    <g id="xtick_13">
     <g id="line2d_22">
      <path clip-path="url(#p27e9c4dc74)" d="M 684.350369 417.054207 
L 684.350369 22.44 
" style="fill:none;stroke:#cccccc;stroke-linecap:round;stroke-width:0.8;"/>
     </g>
     <g id="text_24">
      <!-- 10.0 -->
      <g style="fill:#262626;" transform="translate(674.619901 431.21202)scale(0.1 -0.1)">
       <use xlink:href="#ArialMT-31"/>
       <use x="55.615234" xlink:href="#ArialMT-30"/>
       <use x="111.230469" xlink:href="#ArialMT-2e"/>
       <use x="139.013672" xlink:href="#ArialMT-30"/>
      </g>
     </g>
    </g>
    <g id="xtick_14">
     <g id="line2d_23">
      <path clip-path="url(#p27e9c4dc74)" d="M 727.124541 417.054207 
L 727.124541 22.44 
" style="fill:none;stroke:#cccccc;stroke-linecap:round;stroke-width:0.8;"/>
     </g>
     <g id="text_25">
      <!-- 12.5 -->
      <g style="fill:#262626;" transform="translate(717.394072 431.21202)scale(0.1 -0.1)">
       <use xlink:href="#ArialMT-31"/>
       <use x="55.615234" xlink:href="#ArialMT-32"/>
       <use x="111.230469" xlink:href="#ArialMT-2e"/>
       <use x="139.013672" xlink:href="#ArialMT-35"/>
      </g>
     </g>
    </g>
    <g id="xtick_15">
     <g id="line2d_24">
      <path clip-path="url(#p27e9c4dc74)" d="M 769.898712 417.054207 
L 769.898712 22.44 
" style="fill:none;stroke:#cccccc;stroke-linecap:round;stroke-width:0.8;"/>
     </g>
     <g id="text_26">
      <!-- 15.0 -->
      <g style="fill:#262626;" transform="translate(760.168243 431.21202)scale(0.1 -0.1)">
       <use xlink:href="#ArialMT-31"/>
       <use x="55.615234" xlink:href="#ArialMT-35"/>
       <use x="111.230469" xlink:href="#ArialMT-2e"/>
       <use x="139.013672" xlink:href="#ArialMT-30"/>
      </g>
     </g>
    </g>
    <g id="xtick_16">
     <g id="line2d_25">
      <path clip-path="url(#p27e9c4dc74)" d="M 812.672883 417.054207 
L 812.672883 22.44 
" style="fill:none;stroke:#cccccc;stroke-linecap:round;stroke-width:0.8;"/>
     </g>
     <g id="text_27">
      <!-- 17.5 -->
      <g style="fill:#262626;" transform="translate(802.942414 431.21202)scale(0.1 -0.1)">
       <use xlink:href="#ArialMT-31"/>
       <use x="55.615234" xlink:href="#ArialMT-37"/>
       <use x="111.230469" xlink:href="#ArialMT-2e"/>
       <use x="139.013672" xlink:href="#ArialMT-35"/>
      </g>
     </g>
    </g>
    <g id="xtick_17">
     <g id="line2d_26">
      <path clip-path="url(#p27e9c4dc74)" d="M 855.447054 417.054207 
L 855.447054 22.44 
" style="fill:none;stroke:#cccccc;stroke-linecap:round;stroke-width:0.8;"/>
     </g>
     <g id="text_28">
      <!-- 20.0 -->
      <g style="fill:#262626;" transform="translate(845.716585 431.21202)scale(0.1 -0.1)">
       <use xlink:href="#ArialMT-32"/>
       <use x="55.615234" xlink:href="#ArialMT-30"/>
       <use x="111.230469" xlink:href="#ArialMT-2e"/>
       <use x="139.013672" xlink:href="#ArialMT-30"/>
      </g>
     </g>
    </g>
   </g>
   <g id="matplotlib.axis_4">
    <g id="ytick_9">
     <g id="line2d_27">
      <path clip-path="url(#p27e9c4dc74)" d="M 482.723525 417.054207 
L 864.599238 417.054207 
" style="fill:none;stroke:#cccccc;stroke-linecap:round;stroke-width:0.8;"/>
     </g>
     <g id="text_29">
      <!-- 0.00 -->
      <g style="fill:#262626;" transform="translate(456.262588 420.633114)scale(0.1 -0.1)">
       <use xlink:href="#ArialMT-30"/>
       <use x="55.615234" xlink:href="#ArialMT-2e"/>
       <use x="83.398438" xlink:href="#ArialMT-30"/>
       <use x="139.013672" xlink:href="#ArialMT-30"/>
      </g>
     </g>
    </g>
    <g id="ytick_10">
     <g id="line2d_28">
      <path clip-path="url(#p27e9c4dc74)" d="M 482.723525 357.375243 
L 864.599238 357.375243 
" style="fill:none;stroke:#cccccc;stroke-linecap:round;stroke-width:0.8;"/>
     </g>
     <g id="text_30">
      <!-- 0.05 -->
      <g style="fill:#262626;" transform="translate(456.262588 360.95415)scale(0.1 -0.1)">
       <use xlink:href="#ArialMT-30"/>
       <use x="55.615234" xlink:href="#ArialMT-2e"/>
       <use x="83.398438" xlink:href="#ArialMT-30"/>
       <use x="139.013672" xlink:href="#ArialMT-35"/>
      </g>
     </g>
    </g>
    <g id="ytick_11">
     <g id="line2d_29">
      <path clip-path="url(#p27e9c4dc74)" d="M 482.723525 297.696279 
L 864.599238 297.696279 
" style="fill:none;stroke:#cccccc;stroke-linecap:round;stroke-width:0.8;"/>
     </g>
     <g id="text_31">
      <!-- 0.10 -->
      <g style="fill:#262626;" transform="translate(456.262588 301.275185)scale(0.1 -0.1)">
       <use xlink:href="#ArialMT-30"/>
       <use x="55.615234" xlink:href="#ArialMT-2e"/>
       <use x="83.398438" xlink:href="#ArialMT-31"/>
       <use x="139.013672" xlink:href="#ArialMT-30"/>
      </g>
     </g>
    </g>
    <g id="ytick_12">
     <g id="line2d_30">
      <path clip-path="url(#p27e9c4dc74)" d="M 482.723525 238.017315 
L 864.599238 238.017315 
" style="fill:none;stroke:#cccccc;stroke-linecap:round;stroke-width:0.8;"/>
     </g>
     <g id="text_32">
      <!-- 0.15 -->
      <g style="fill:#262626;" transform="translate(456.262588 241.596221)scale(0.1 -0.1)">
       <use xlink:href="#ArialMT-30"/>
       <use x="55.615234" xlink:href="#ArialMT-2e"/>
       <use x="83.398438" xlink:href="#ArialMT-31"/>
       <use x="139.013672" xlink:href="#ArialMT-35"/>
      </g>
     </g>
    </g>
    <g id="ytick_13">
     <g id="line2d_31">
      <path clip-path="url(#p27e9c4dc74)" d="M 482.723525 178.338351 
L 864.599238 178.338351 
" style="fill:none;stroke:#cccccc;stroke-linecap:round;stroke-width:0.8;"/>
     </g>
     <g id="text_33">
      <!-- 0.20 -->
      <g style="fill:#262626;" transform="translate(456.262588 181.917257)scale(0.1 -0.1)">
       <use xlink:href="#ArialMT-30"/>
       <use x="55.615234" xlink:href="#ArialMT-2e"/>
       <use x="83.398438" xlink:href="#ArialMT-32"/>
       <use x="139.013672" xlink:href="#ArialMT-30"/>
      </g>
     </g>
    </g>
    <g id="ytick_14">
     <g id="line2d_32">
      <path clip-path="url(#p27e9c4dc74)" d="M 482.723525 118.659387 
L 864.599238 118.659387 
" style="fill:none;stroke:#cccccc;stroke-linecap:round;stroke-width:0.8;"/>
     </g>
     <g id="text_34">
      <!-- 0.25 -->
      <g style="fill:#262626;" transform="translate(456.262588 122.238293)scale(0.1 -0.1)">
       <use xlink:href="#ArialMT-30"/>
       <use x="55.615234" xlink:href="#ArialMT-2e"/>
       <use x="83.398438" xlink:href="#ArialMT-32"/>
       <use x="139.013672" xlink:href="#ArialMT-35"/>
      </g>
     </g>
    </g>
    <g id="ytick_15">
     <g id="line2d_33">
      <path clip-path="url(#p27e9c4dc74)" d="M 482.723525 58.980423 
L 864.599238 58.980423 
" style="fill:none;stroke:#cccccc;stroke-linecap:round;stroke-width:0.8;"/>
     </g>
     <g id="text_35">
      <!-- 0.30 -->
      <g style="fill:#262626;" transform="translate(456.262588 62.559329)scale(0.1 -0.1)">
       <use xlink:href="#ArialMT-30"/>
       <use x="55.615234" xlink:href="#ArialMT-2e"/>
       <use x="83.398438" xlink:href="#ArialMT-33"/>
       <use x="139.013672" xlink:href="#ArialMT-30"/>
      </g>
     </g>
    </g>
    <g id="text_36">
     <!-- Density -->
     <g style="fill:#262626;" transform="translate(450.1579 236.418979)rotate(-90)scale(0.1 -0.1)">
      <use xlink:href="#ArialMT-44"/>
      <use x="72.216797" xlink:href="#ArialMT-65"/>
      <use x="127.832031" xlink:href="#ArialMT-6e"/>
      <use x="183.447266" xlink:href="#ArialMT-73"/>
      <use x="233.447266" xlink:href="#ArialMT-69"/>
      <use x="255.664062" xlink:href="#ArialMT-74"/>
      <use x="283.447266" xlink:href="#ArialMT-79"/>
     </g>
    </g>
   </g>
   <g id="patch_99">
    <path clip-path="url(#p27e9c4dc74)" d="M 516.177566 417.054207 
L 519.797884 417.054207 
L 519.797884 398.721376 
L 516.177566 398.721376 
z
" style="fill:#ccb974;fill-opacity:0.5;stroke:#ffffff;stroke-linejoin:miter;stroke-width:0.318039;"/>
   </g>
   <g id="patch_100">
    <path clip-path="url(#p27e9c4dc74)" d="M 519.797884 417.054207 
L 523.418202 417.054207 
L 523.418202 317.63385 
L 519.797884 317.63385 
z
" style="fill:#ccb974;fill-opacity:0.5;stroke:#ffffff;stroke-linejoin:miter;stroke-width:0.318039;"/>
   </g>
   <g id="patch_101">
    <path clip-path="url(#p27e9c4dc74)" d="M 523.418202 417.054207 
L 527.038519 417.054207 
L 527.038519 228.085017 
L 523.418202 228.085017 
z
" style="fill:#ccb974;fill-opacity:0.5;stroke:#ffffff;stroke-linejoin:miter;stroke-width:0.318039;"/>
   </g>
   <g id="patch_102">
    <path clip-path="url(#p27e9c4dc74)" d="M 527.038519 417.054207 
L 530.658837 417.054207 
L 530.658837 169.560976 
L 527.038519 169.560976 
z
" style="fill:#ccb974;fill-opacity:0.5;stroke:#ffffff;stroke-linejoin:miter;stroke-width:0.318039;"/>
   </g>
   <g id="patch_103">
    <path clip-path="url(#p27e9c4dc74)" d="M 530.658837 417.054207 
L 534.279154 417.054207 
L 534.279154 109.626718 
L 530.658837 109.626718 
z
" style="fill:#ccb974;fill-opacity:0.5;stroke:#ffffff;stroke-linejoin:miter;stroke-width:0.318039;"/>
   </g>
   <g id="patch_104">
    <path clip-path="url(#p27e9c4dc74)" d="M 534.279154 417.054207 
L 537.899472 417.054207 
L 537.899472 53.218004 
L 534.279154 53.218004 
z
" style="fill:#ccb974;fill-opacity:0.5;stroke:#ffffff;stroke-linejoin:miter;stroke-width:0.318039;"/>
   </g>
   <g id="patch_105">
    <path clip-path="url(#p27e9c4dc74)" d="M 537.899472 417.054207 
L 541.51979 417.054207 
L 541.51979 41.231153 
L 537.899472 41.231153 
z
" style="fill:#ccb974;fill-opacity:0.5;stroke:#ffffff;stroke-linejoin:miter;stroke-width:0.318039;"/>
   </g>
   <g id="patch_106">
    <path clip-path="url(#p27e9c4dc74)" d="M 541.51979 417.054207 
L 545.140107 417.054207 
L 545.140107 55.333331 
L 541.51979 55.333331 
z
" style="fill:#ccb974;fill-opacity:0.5;stroke:#ffffff;stroke-linejoin:miter;stroke-width:0.318039;"/>
   </g>
   <g id="patch_107">
    <path clip-path="url(#p27e9c4dc74)" d="M 545.140107 417.054207 
L 548.760425 417.054207 
L 548.760425 53.923113 
L 545.140107 53.923113 
z
" style="fill:#ccb974;fill-opacity:0.5;stroke:#ffffff;stroke-linejoin:miter;stroke-width:0.318039;"/>
   </g>
   <g id="patch_108">
    <path clip-path="url(#p27e9c4dc74)" d="M 548.760425 417.054207 
L 552.380742 417.054207 
L 552.380742 81.422361 
L 548.760425 81.422361 
z
" style="fill:#ccb974;fill-opacity:0.5;stroke:#ffffff;stroke-linejoin:miter;stroke-width:0.318039;"/>
   </g>
   <g id="patch_109">
    <path clip-path="url(#p27e9c4dc74)" d="M 552.380742 417.054207 
L 556.00106 417.054207 
L 556.00106 99.755193 
L 552.380742 99.755193 
z
" style="fill:#ccb974;fill-opacity:0.5;stroke:#ffffff;stroke-linejoin:miter;stroke-width:0.318039;"/>
   </g>
   <g id="patch_110">
    <path clip-path="url(#p27e9c4dc74)" d="M 556.00106 417.054207 
L 559.621377 417.054207 
L 559.621377 138.536184 
L 556.00106 138.536184 
z
" style="fill:#ccb974;fill-opacity:0.5;stroke:#ffffff;stroke-linejoin:miter;stroke-width:0.318039;"/>
   </g>
   <g id="patch_111">
    <path clip-path="url(#p27e9c4dc74)" d="M 559.621377 417.054207 
L 563.241695 417.054207 
L 563.241695 155.458798 
L 559.621377 155.458798 
z
" style="fill:#ccb974;fill-opacity:0.5;stroke:#ffffff;stroke-linejoin:miter;stroke-width:0.318039;"/>
   </g>
   <g id="patch_112">
    <path clip-path="url(#p27e9c4dc74)" d="M 563.241695 417.054207 
L 566.862013 417.054207 
L 566.862013 156.869016 
L 563.241695 156.869016 
z
" style="fill:#ccb974;fill-opacity:0.5;stroke:#ffffff;stroke-linejoin:miter;stroke-width:0.318039;"/>
   </g>
   <g id="patch_113">
    <path clip-path="url(#p27e9c4dc74)" d="M 566.862013 417.054207 
L 570.48233 417.054207 
L 570.48233 211.867512 
L 566.862013 211.867512 
z
" style="fill:#ccb974;fill-opacity:0.5;stroke:#ffffff;stroke-linejoin:miter;stroke-width:0.318039;"/>
   </g>
   <g id="patch_114">
    <path clip-path="url(#p27e9c4dc74)" d="M 570.48233 417.054207 
L 574.102648 417.054207 
L 574.102648 257.699591 
L 570.48233 257.699591 
z
" style="fill:#ccb974;fill-opacity:0.5;stroke:#ffffff;stroke-linejoin:miter;stroke-width:0.318039;"/>
   </g>
   <g id="patch_115">
    <path clip-path="url(#p27e9c4dc74)" d="M 574.102648 417.054207 
L 577.722965 417.054207 
L 577.722965 256.289374 
L 574.102648 256.289374 
z
" style="fill:#ccb974;fill-opacity:0.5;stroke:#ffffff;stroke-linejoin:miter;stroke-width:0.318039;"/>
   </g>
   <g id="patch_116">
    <path clip-path="url(#p27e9c4dc74)" d="M 577.722965 417.054207 
L 581.343283 417.054207 
L 581.343283 272.506879 
L 577.722965 272.506879 
z
" style="fill:#ccb974;fill-opacity:0.5;stroke:#ffffff;stroke-linejoin:miter;stroke-width:0.318039;"/>
   </g>
   <g id="patch_117">
    <path clip-path="url(#p27e9c4dc74)" d="M 581.343283 417.054207 
L 584.963601 417.054207 
L 584.963601 274.622206 
L 581.343283 274.622206 
z
" style="fill:#ccb974;fill-opacity:0.5;stroke:#ffffff;stroke-linejoin:miter;stroke-width:0.318039;"/>
   </g>
   <g id="patch_118">
    <path clip-path="url(#p27e9c4dc74)" d="M 584.963601 417.054207 
L 588.583918 417.054207 
L 588.583918 297.185691 
L 584.963601 297.185691 
z
" style="fill:#ccb974;fill-opacity:0.5;stroke:#ffffff;stroke-linejoin:miter;stroke-width:0.318039;"/>
   </g>
   <g id="patch_119">
    <path clip-path="url(#p27e9c4dc74)" d="M 588.583918 417.054207 
L 592.204236 417.054207 
L 592.204236 314.813414 
L 588.583918 314.813414 
z
" style="fill:#ccb974;fill-opacity:0.5;stroke:#ffffff;stroke-linejoin:miter;stroke-width:0.318039;"/>
   </g>
   <g id="patch_120">
    <path clip-path="url(#p27e9c4dc74)" d="M 592.204236 417.054207 
L 595.824553 417.054207 
L 595.824553 324.684939 
L 592.204236 324.684939 
z
" style="fill:#ccb974;fill-opacity:0.5;stroke:#ffffff;stroke-linejoin:miter;stroke-width:0.318039;"/>
   </g>
   <g id="patch_121">
    <path clip-path="url(#p27e9c4dc74)" d="M 595.824553 417.054207 
L 599.444871 417.054207 
L 599.444871 332.441137 
L 595.824553 332.441137 
z
" style="fill:#ccb974;fill-opacity:0.5;stroke:#ffffff;stroke-linejoin:miter;stroke-width:0.318039;"/>
   </g>
   <g id="patch_122">
    <path clip-path="url(#p27e9c4dc74)" d="M 599.444871 417.054207 
L 603.065188 417.054207 
L 603.065188 339.492226 
L 599.444871 339.492226 
z
" style="fill:#ccb974;fill-opacity:0.5;stroke:#ffffff;stroke-linejoin:miter;stroke-width:0.318039;"/>
   </g>
   <g id="patch_123">
    <path clip-path="url(#p27e9c4dc74)" d="M 603.065188 417.054207 
L 606.685506 417.054207 
L 606.685506 347.248424 
L 603.065188 347.248424 
z
" style="fill:#ccb974;fill-opacity:0.5;stroke:#ffffff;stroke-linejoin:miter;stroke-width:0.318039;"/>
   </g>
   <g id="patch_124">
    <path clip-path="url(#p27e9c4dc74)" d="M 606.685506 417.054207 
L 610.305824 417.054207 
L 610.305824 364.171038 
L 606.685506 364.171038 
z
" style="fill:#ccb974;fill-opacity:0.5;stroke:#ffffff;stroke-linejoin:miter;stroke-width:0.318039;"/>
   </g>
   <g id="patch_125">
    <path clip-path="url(#p27e9c4dc74)" d="M 610.305824 417.054207 
L 613.926141 417.054207 
L 613.926141 352.889296 
L 610.305824 352.889296 
z
" style="fill:#ccb974;fill-opacity:0.5;stroke:#ffffff;stroke-linejoin:miter;stroke-width:0.318039;"/>
   </g>
   <g id="patch_126">
    <path clip-path="url(#p27e9c4dc74)" d="M 613.926141 417.054207 
L 617.546459 417.054207 
L 617.546459 369.81191 
L 613.926141 369.81191 
z
" style="fill:#ccb974;fill-opacity:0.5;stroke:#ffffff;stroke-linejoin:miter;stroke-width:0.318039;"/>
   </g>
   <g id="patch_127">
    <path clip-path="url(#p27e9c4dc74)" d="M 617.546459 417.054207 
L 621.166776 417.054207 
L 621.166776 383.208979 
L 617.546459 383.208979 
z
" style="fill:#ccb974;fill-opacity:0.5;stroke:#ffffff;stroke-linejoin:miter;stroke-width:0.318039;"/>
   </g>
   <g id="patch_128">
    <path clip-path="url(#p27e9c4dc74)" d="M 621.166776 417.054207 
L 624.787094 417.054207 
L 624.787094 379.683435 
L 621.166776 379.683435 
z
" style="fill:#ccb974;fill-opacity:0.5;stroke:#ffffff;stroke-linejoin:miter;stroke-width:0.318039;"/>
   </g>
   <g id="patch_129">
    <path clip-path="url(#p27e9c4dc74)" d="M 624.787094 417.054207 
L 628.407411 417.054207 
L 628.407411 382.50387 
L 624.787094 382.50387 
z
" style="fill:#ccb974;fill-opacity:0.5;stroke:#ffffff;stroke-linejoin:miter;stroke-width:0.318039;"/>
   </g>
   <g id="patch_130">
    <path clip-path="url(#p27e9c4dc74)" d="M 628.407411 417.054207 
L 632.027729 417.054207 
L 632.027729 398.721376 
L 628.407411 398.721376 
z
" style="fill:#ccb974;fill-opacity:0.5;stroke:#ffffff;stroke-linejoin:miter;stroke-width:0.318039;"/>
   </g>
   <g id="patch_131">
    <path clip-path="url(#p27e9c4dc74)" d="M 632.027729 417.054207 
L 635.648047 417.054207 
L 635.648047 396.606049 
L 632.027729 396.606049 
z
" style="fill:#ccb974;fill-opacity:0.5;stroke:#ffffff;stroke-linejoin:miter;stroke-width:0.318039;"/>
   </g>
   <g id="patch_132">
    <path clip-path="url(#p27e9c4dc74)" d="M 635.648047 417.054207 
L 639.268364 417.054207 
L 639.268364 395.90094 
L 635.648047 395.90094 
z
" style="fill:#ccb974;fill-opacity:0.5;stroke:#ffffff;stroke-linejoin:miter;stroke-width:0.318039;"/>
   </g>
   <g id="patch_133">
    <path clip-path="url(#p27e9c4dc74)" d="M 639.268364 417.054207 
L 642.888682 417.054207 
L 642.888682 391.670286 
L 639.268364 391.670286 
z
" style="fill:#ccb974;fill-opacity:0.5;stroke:#ffffff;stroke-linejoin:miter;stroke-width:0.318039;"/>
   </g>
   <g id="patch_134">
    <path clip-path="url(#p27e9c4dc74)" d="M 642.888682 417.054207 
L 646.508999 417.054207 
L 646.508999 401.541811 
L 642.888682 401.541811 
z
" style="fill:#ccb974;fill-opacity:0.5;stroke:#ffffff;stroke-linejoin:miter;stroke-width:0.318039;"/>
   </g>
   <g id="patch_135">
    <path clip-path="url(#p27e9c4dc74)" d="M 646.508999 417.054207 
L 650.129317 417.054207 
L 650.129317 398.721376 
L 646.508999 398.721376 
z
" style="fill:#ccb974;fill-opacity:0.5;stroke:#ffffff;stroke-linejoin:miter;stroke-width:0.318039;"/>
   </g>
   <g id="patch_136">
    <path clip-path="url(#p27e9c4dc74)" d="M 650.129317 417.054207 
L 653.749635 417.054207 
L 653.749635 398.721376 
L 650.129317 398.721376 
z
" style="fill:#ccb974;fill-opacity:0.5;stroke:#ffffff;stroke-linejoin:miter;stroke-width:0.318039;"/>
   </g>
   <g id="patch_137">
    <path clip-path="url(#p27e9c4dc74)" d="M 653.749635 417.054207 
L 657.369952 417.054207 
L 657.369952 407.182683 
L 653.749635 407.182683 
z
" style="fill:#ccb974;fill-opacity:0.5;stroke:#ffffff;stroke-linejoin:miter;stroke-width:0.318039;"/>
   </g>
   <g id="patch_138">
    <path clip-path="url(#p27e9c4dc74)" d="M 657.369952 417.054207 
L 660.99027 417.054207 
L 660.99027 409.298009 
L 657.369952 409.298009 
z
" style="fill:#ccb974;fill-opacity:0.5;stroke:#ffffff;stroke-linejoin:miter;stroke-width:0.318039;"/>
   </g>
   <g id="patch_139">
    <path clip-path="url(#p27e9c4dc74)" d="M 660.99027 417.054207 
L 664.610587 417.054207 
L 664.610587 411.413336 
L 660.99027 411.413336 
z
" style="fill:#ccb974;fill-opacity:0.5;stroke:#ffffff;stroke-linejoin:miter;stroke-width:0.318039;"/>
   </g>
   <g id="patch_140">
    <path clip-path="url(#p27e9c4dc74)" d="M 664.610587 417.054207 
L 668.230905 417.054207 
L 668.230905 410.003118 
L 664.610587 410.003118 
z
" style="fill:#ccb974;fill-opacity:0.5;stroke:#ffffff;stroke-linejoin:miter;stroke-width:0.318039;"/>
   </g>
   <g id="patch_141">
    <path clip-path="url(#p27e9c4dc74)" d="M 668.230905 417.054207 
L 671.851222 417.054207 
L 671.851222 404.362247 
L 668.230905 404.362247 
z
" style="fill:#ccb974;fill-opacity:0.5;stroke:#ffffff;stroke-linejoin:miter;stroke-width:0.318039;"/>
   </g>
   <g id="patch_142">
    <path clip-path="url(#p27e9c4dc74)" d="M 671.851222 417.054207 
L 675.47154 417.054207 
L 675.47154 409.298009 
L 671.851222 409.298009 
z
" style="fill:#ccb974;fill-opacity:0.5;stroke:#ffffff;stroke-linejoin:miter;stroke-width:0.318039;"/>
   </g>
   <g id="patch_143">
    <path clip-path="url(#p27e9c4dc74)" d="M 675.47154 417.054207 
L 679.091858 417.054207 
L 679.091858 412.823554 
L 675.47154 412.823554 
z
" style="fill:#ccb974;fill-opacity:0.5;stroke:#ffffff;stroke-linejoin:miter;stroke-width:0.318039;"/>
   </g>
   <g id="patch_144">
    <path clip-path="url(#p27e9c4dc74)" d="M 679.091858 417.054207 
L 682.712175 417.054207 
L 682.712175 416.349099 
L 679.091858 416.349099 
z
" style="fill:#ccb974;fill-opacity:0.5;stroke:#ffffff;stroke-linejoin:miter;stroke-width:0.318039;"/>
   </g>
   <g id="patch_145">
    <path clip-path="url(#p27e9c4dc74)" d="M 682.712175 417.054207 
L 686.332493 417.054207 
L 686.332493 414.938881 
L 682.712175 414.938881 
z
" style="fill:#ccb974;fill-opacity:0.5;stroke:#ffffff;stroke-linejoin:miter;stroke-width:0.318039;"/>
   </g>
   <g id="patch_146">
    <path clip-path="url(#p27e9c4dc74)" d="M 686.332493 417.054207 
L 689.95281 417.054207 
L 689.95281 414.938881 
L 686.332493 414.938881 
z
" style="fill:#ccb974;fill-opacity:0.5;stroke:#ffffff;stroke-linejoin:miter;stroke-width:0.318039;"/>
   </g>
   <g id="patch_147">
    <path clip-path="url(#p27e9c4dc74)" d="M 689.95281 417.054207 
L 693.573128 417.054207 
L 693.573128 413.528663 
L 689.95281 413.528663 
z
" style="fill:#ccb974;fill-opacity:0.5;stroke:#ffffff;stroke-linejoin:miter;stroke-width:0.318039;"/>
   </g>
   <g id="patch_148">
    <path clip-path="url(#p27e9c4dc74)" d="M 693.573128 417.054207 
L 697.193446 417.054207 
L 697.193446 416.349099 
L 693.573128 416.349099 
z
" style="fill:#ccb974;fill-opacity:0.5;stroke:#ffffff;stroke-linejoin:miter;stroke-width:0.318039;"/>
   </g>
   <g id="patch_149">
    <path clip-path="url(#p27e9c4dc74)" d="M 697.193446 417.054207 
L 700.813763 417.054207 
L 700.813763 416.349099 
L 697.193446 416.349099 
z
" style="fill:#ccb974;fill-opacity:0.5;stroke:#ffffff;stroke-linejoin:miter;stroke-width:0.318039;"/>
   </g>
   <g id="patch_150">
    <path clip-path="url(#p27e9c4dc74)" d="M 700.813763 417.054207 
L 704.434081 417.054207 
L 704.434081 414.938881 
L 700.813763 414.938881 
z
" style="fill:#ccb974;fill-opacity:0.5;stroke:#ffffff;stroke-linejoin:miter;stroke-width:0.318039;"/>
   </g>
   <g id="patch_151">
    <path clip-path="url(#p27e9c4dc74)" d="M 704.434081 417.054207 
L 708.054398 417.054207 
L 708.054398 416.349099 
L 704.434081 416.349099 
z
" style="fill:#ccb974;fill-opacity:0.5;stroke:#ffffff;stroke-linejoin:miter;stroke-width:0.318039;"/>
   </g>
   <g id="patch_152">
    <path clip-path="url(#p27e9c4dc74)" d="M 708.054398 417.054207 
L 711.674716 417.054207 
L 711.674716 415.64399 
L 708.054398 415.64399 
z
" style="fill:#ccb974;fill-opacity:0.5;stroke:#ffffff;stroke-linejoin:miter;stroke-width:0.318039;"/>
   </g>
   <g id="patch_153">
    <path clip-path="url(#p27e9c4dc74)" d="M 711.674716 417.054207 
L 715.295033 417.054207 
L 715.295033 412.823554 
L 711.674716 412.823554 
z
" style="fill:#ccb974;fill-opacity:0.5;stroke:#ffffff;stroke-linejoin:miter;stroke-width:0.318039;"/>
   </g>
   <g id="patch_154">
    <path clip-path="url(#p27e9c4dc74)" d="M 715.295033 417.054207 
L 718.915351 417.054207 
L 718.915351 414.938881 
L 715.295033 414.938881 
z
" style="fill:#ccb974;fill-opacity:0.5;stroke:#ffffff;stroke-linejoin:miter;stroke-width:0.318039;"/>
   </g>
   <g id="patch_155">
    <path clip-path="url(#p27e9c4dc74)" d="M 718.915351 417.054207 
L 722.535669 417.054207 
L 722.535669 417.054207 
L 718.915351 417.054207 
z
" style="fill:#ccb974;fill-opacity:0.5;stroke:#ffffff;stroke-linejoin:miter;stroke-width:0.318039;"/>
   </g>
   <g id="patch_156">
    <path clip-path="url(#p27e9c4dc74)" d="M 722.535669 417.054207 
L 726.155986 417.054207 
L 726.155986 414.938881 
L 722.535669 414.938881 
z
" style="fill:#ccb974;fill-opacity:0.5;stroke:#ffffff;stroke-linejoin:miter;stroke-width:0.318039;"/>
   </g>
   <g id="patch_157">
    <path clip-path="url(#p27e9c4dc74)" d="M 726.155986 417.054207 
L 729.776304 417.054207 
L 729.776304 413.528663 
L 726.155986 413.528663 
z
" style="fill:#ccb974;fill-opacity:0.5;stroke:#ffffff;stroke-linejoin:miter;stroke-width:0.318039;"/>
   </g>
   <g id="patch_158">
    <path clip-path="url(#p27e9c4dc74)" d="M 729.776304 417.054207 
L 733.396621 417.054207 
L 733.396621 416.349099 
L 729.776304 416.349099 
z
" style="fill:#ccb974;fill-opacity:0.5;stroke:#ffffff;stroke-linejoin:miter;stroke-width:0.318039;"/>
   </g>
   <g id="patch_159">
    <path clip-path="url(#p27e9c4dc74)" d="M 733.396621 417.054207 
L 737.016939 417.054207 
L 737.016939 414.938881 
L 733.396621 414.938881 
z
" style="fill:#ccb974;fill-opacity:0.5;stroke:#ffffff;stroke-linejoin:miter;stroke-width:0.318039;"/>
   </g>
   <g id="patch_160">
    <path clip-path="url(#p27e9c4dc74)" d="M 737.016939 417.054207 
L 740.637257 417.054207 
L 740.637257 417.054207 
L 737.016939 417.054207 
z
" style="fill:#ccb974;fill-opacity:0.5;stroke:#ffffff;stroke-linejoin:miter;stroke-width:0.318039;"/>
   </g>
   <g id="patch_161">
    <path clip-path="url(#p27e9c4dc74)" d="M 740.637257 417.054207 
L 744.257574 417.054207 
L 744.257574 414.233772 
L 740.637257 414.233772 
z
" style="fill:#ccb974;fill-opacity:0.5;stroke:#ffffff;stroke-linejoin:miter;stroke-width:0.318039;"/>
   </g>
   <g id="patch_162">
    <path clip-path="url(#p27e9c4dc74)" d="M 744.257574 417.054207 
L 747.877892 417.054207 
L 747.877892 416.349099 
L 744.257574 416.349099 
z
" style="fill:#ccb974;fill-opacity:0.5;stroke:#ffffff;stroke-linejoin:miter;stroke-width:0.318039;"/>
   </g>
   <g id="patch_163">
    <path clip-path="url(#p27e9c4dc74)" d="M 747.877892 417.054207 
L 751.498209 417.054207 
L 751.498209 417.054207 
L 747.877892 417.054207 
z
" style="fill:#ccb974;fill-opacity:0.5;stroke:#ffffff;stroke-linejoin:miter;stroke-width:0.318039;"/>
   </g>
   <g id="patch_164">
    <path clip-path="url(#p27e9c4dc74)" d="M 751.498209 417.054207 
L 755.118527 417.054207 
L 755.118527 417.054207 
L 751.498209 417.054207 
z
" style="fill:#ccb974;fill-opacity:0.5;stroke:#ffffff;stroke-linejoin:miter;stroke-width:0.318039;"/>
   </g>
   <g id="patch_165">
    <path clip-path="url(#p27e9c4dc74)" d="M 755.118527 417.054207 
L 758.738844 417.054207 
L 758.738844 416.349099 
L 755.118527 416.349099 
z
" style="fill:#ccb974;fill-opacity:0.5;stroke:#ffffff;stroke-linejoin:miter;stroke-width:0.318039;"/>
   </g>
   <g id="patch_166">
    <path clip-path="url(#p27e9c4dc74)" d="M 758.738844 417.054207 
L 762.359162 417.054207 
L 762.359162 417.054207 
L 758.738844 417.054207 
z
" style="fill:#ccb974;fill-opacity:0.5;stroke:#ffffff;stroke-linejoin:miter;stroke-width:0.318039;"/>
   </g>
   <g id="patch_167">
    <path clip-path="url(#p27e9c4dc74)" d="M 762.359162 417.054207 
L 765.97948 417.054207 
L 765.97948 416.349099 
L 762.359162 416.349099 
z
" style="fill:#ccb974;fill-opacity:0.5;stroke:#ffffff;stroke-linejoin:miter;stroke-width:0.318039;"/>
   </g>
   <g id="patch_168">
    <path clip-path="url(#p27e9c4dc74)" d="M 765.97948 417.054207 
L 769.599797 417.054207 
L 769.599797 417.054207 
L 765.97948 417.054207 
z
" style="fill:#ccb974;fill-opacity:0.5;stroke:#ffffff;stroke-linejoin:miter;stroke-width:0.318039;"/>
   </g>
   <g id="patch_169">
    <path clip-path="url(#p27e9c4dc74)" d="M 769.599797 417.054207 
L 773.220115 417.054207 
L 773.220115 417.054207 
L 769.599797 417.054207 
z
" style="fill:#ccb974;fill-opacity:0.5;stroke:#ffffff;stroke-linejoin:miter;stroke-width:0.318039;"/>
   </g>
   <g id="patch_170">
    <path clip-path="url(#p27e9c4dc74)" d="M 773.220115 417.054207 
L 776.840432 417.054207 
L 776.840432 417.054207 
L 773.220115 417.054207 
z
" style="fill:#ccb974;fill-opacity:0.5;stroke:#ffffff;stroke-linejoin:miter;stroke-width:0.318039;"/>
   </g>
   <g id="patch_171">
    <path clip-path="url(#p27e9c4dc74)" d="M 776.840432 417.054207 
L 780.46075 417.054207 
L 780.46075 417.054207 
L 776.840432 417.054207 
z
" style="fill:#ccb974;fill-opacity:0.5;stroke:#ffffff;stroke-linejoin:miter;stroke-width:0.318039;"/>
   </g>
   <g id="patch_172">
    <path clip-path="url(#p27e9c4dc74)" d="M 780.46075 417.054207 
L 784.081068 417.054207 
L 784.081068 417.054207 
L 780.46075 417.054207 
z
" style="fill:#ccb974;fill-opacity:0.5;stroke:#ffffff;stroke-linejoin:miter;stroke-width:0.318039;"/>
   </g>
   <g id="patch_173">
    <path clip-path="url(#p27e9c4dc74)" d="M 784.081068 417.054207 
L 787.701385 417.054207 
L 787.701385 416.349099 
L 784.081068 416.349099 
z
" style="fill:#ccb974;fill-opacity:0.5;stroke:#ffffff;stroke-linejoin:miter;stroke-width:0.318039;"/>
   </g>
   <g id="patch_174">
    <path clip-path="url(#p27e9c4dc74)" d="M 787.701385 417.054207 
L 791.321703 417.054207 
L 791.321703 417.054207 
L 787.701385 417.054207 
z
" style="fill:#ccb974;fill-opacity:0.5;stroke:#ffffff;stroke-linejoin:miter;stroke-width:0.318039;"/>
   </g>
   <g id="patch_175">
    <path clip-path="url(#p27e9c4dc74)" d="M 791.321703 417.054207 
L 794.94202 417.054207 
L 794.94202 417.054207 
L 791.321703 417.054207 
z
" style="fill:#ccb974;fill-opacity:0.5;stroke:#ffffff;stroke-linejoin:miter;stroke-width:0.318039;"/>
   </g>
   <g id="patch_176">
    <path clip-path="url(#p27e9c4dc74)" d="M 794.94202 417.054207 
L 798.562338 417.054207 
L 798.562338 417.054207 
L 794.94202 417.054207 
z
" style="fill:#ccb974;fill-opacity:0.5;stroke:#ffffff;stroke-linejoin:miter;stroke-width:0.318039;"/>
   </g>
   <g id="patch_177">
    <path clip-path="url(#p27e9c4dc74)" d="M 798.562338 417.054207 
L 802.182655 417.054207 
L 802.182655 417.054207 
L 798.562338 417.054207 
z
" style="fill:#ccb974;fill-opacity:0.5;stroke:#ffffff;stroke-linejoin:miter;stroke-width:0.318039;"/>
   </g>
   <g id="patch_178">
    <path clip-path="url(#p27e9c4dc74)" d="M 802.182655 417.054207 
L 805.802973 417.054207 
L 805.802973 412.118445 
L 802.182655 412.118445 
z
" style="fill:#ccb974;fill-opacity:0.5;stroke:#ffffff;stroke-linejoin:miter;stroke-width:0.318039;"/>
   </g>
   <g id="patch_179">
    <path clip-path="url(#p27e9c4dc74)" d="M 805.802973 417.054207 
L 809.423291 417.054207 
L 809.423291 417.054207 
L 805.802973 417.054207 
z
" style="fill:#ccb974;fill-opacity:0.5;stroke:#ffffff;stroke-linejoin:miter;stroke-width:0.318039;"/>
   </g>
   <g id="patch_180">
    <path clip-path="url(#p27e9c4dc74)" d="M 809.423291 417.054207 
L 813.043608 417.054207 
L 813.043608 417.054207 
L 809.423291 417.054207 
z
" style="fill:#ccb974;fill-opacity:0.5;stroke:#ffffff;stroke-linejoin:miter;stroke-width:0.318039;"/>
   </g>
   <g id="patch_181">
    <path clip-path="url(#p27e9c4dc74)" d="M 813.043608 417.054207 
L 816.663926 417.054207 
L 816.663926 417.054207 
L 813.043608 417.054207 
z
" style="fill:#ccb974;fill-opacity:0.5;stroke:#ffffff;stroke-linejoin:miter;stroke-width:0.318039;"/>
   </g>
   <g id="patch_182">
    <path clip-path="url(#p27e9c4dc74)" d="M 816.663926 417.054207 
L 820.284243 417.054207 
L 820.284243 417.054207 
L 816.663926 417.054207 
z
" style="fill:#ccb974;fill-opacity:0.5;stroke:#ffffff;stroke-linejoin:miter;stroke-width:0.318039;"/>
   </g>
   <g id="patch_183">
    <path clip-path="url(#p27e9c4dc74)" d="M 820.284243 417.054207 
L 823.904561 417.054207 
L 823.904561 417.054207 
L 820.284243 417.054207 
z
" style="fill:#ccb974;fill-opacity:0.5;stroke:#ffffff;stroke-linejoin:miter;stroke-width:0.318039;"/>
   </g>
   <g id="patch_184">
    <path clip-path="url(#p27e9c4dc74)" d="M 823.904561 417.054207 
L 827.524879 417.054207 
L 827.524879 417.054207 
L 823.904561 417.054207 
z
" style="fill:#ccb974;fill-opacity:0.5;stroke:#ffffff;stroke-linejoin:miter;stroke-width:0.318039;"/>
   </g>
   <g id="patch_185">
    <path clip-path="url(#p27e9c4dc74)" d="M 827.524879 417.054207 
L 831.145196 417.054207 
L 831.145196 416.349099 
L 827.524879 416.349099 
z
" style="fill:#ccb974;fill-opacity:0.5;stroke:#ffffff;stroke-linejoin:miter;stroke-width:0.318039;"/>
   </g>
   <g id="line2d_34">
    <path clip-path="url(#p27e9c4dc74)" d="M 500.081512 417.031532 
L 503.570555 416.850104 
L 505.315076 416.516699 
L 507.059597 415.753572 
L 508.804118 414.156555 
L 510.54864 411.096391 
L 512.293161 405.71774 
L 514.037682 397.027376 
L 515.782204 384.085471 
L 517.526725 366.26218 
L 519.271246 343.470453 
L 521.015768 316.272954 
L 524.50481 253.551692 
L 527.993853 189.662208 
L 529.738374 160.491992 
L 531.482895 134.365577 
L 533.227417 111.898907 
L 534.971938 93.52185 
L 536.716459 79.450889 
L 538.460981 69.640655 
L 540.205502 63.780407 
L 541.950023 61.375249 
L 543.694544 61.883377 
L 545.439066 64.83119 
L 547.183587 69.847232 
L 548.928108 76.625277 
L 550.67263 84.875502 
L 552.417151 94.306696 
L 555.906194 115.594684 
L 559.395236 138.611447 
L 562.884279 162.917363 
L 566.373321 189.450581 
L 569.862364 216.806423 
L 571.606885 229.351954 
L 573.351407 240.455849 
L 575.095928 250.002506 
L 576.840449 258.21744 
L 580.329492 272.348758 
L 589.052098 305.300131 
L 590.79662 311.237912 
L 592.541141 316.742893 
L 596.030183 326.743321 
L 601.263747 340.638005 
L 604.75279 349.021836 
L 606.497311 352.689632 
L 608.241833 355.979151 
L 616.964439 371.158628 
L 620.453482 377.289473 
L 623.942524 382.738158 
L 627.431567 387.715064 
L 629.176088 389.929913 
L 630.920609 391.799686 
L 632.665131 393.233604 
L 634.409652 394.237524 
L 636.154173 394.920852 
L 639.643216 395.993859 
L 641.387737 396.639054 
L 644.87678 398.253233 
L 648.365822 400.130776 
L 650.110344 401.209486 
L 653.599386 403.760328 
L 657.088429 406.408704 
L 658.83295 407.485944 
L 660.577472 408.281508 
L 662.321993 408.770623 
L 664.066514 408.984111 
L 669.300078 408.992451 
L 671.044599 409.234798 
L 672.789121 409.756121 
L 674.533642 410.540952 
L 679.767206 413.344903 
L 681.511727 414.02026 
L 683.256248 414.473333 
L 685.00077 414.733593 
L 688.489812 414.929123 
L 693.723376 415.182442 
L 700.701461 415.606837 
L 704.190504 415.632991 
L 707.679547 415.485608 
L 714.657632 414.958904 
L 718.146674 414.936257 
L 730.358324 415.246121 
L 735.591887 415.650799 
L 746.059015 416.14565 
L 751.292579 416.625015 
L 754.781622 416.73633 
L 765.24875 416.791629 
L 773.971356 417.000749 
L 793.16109 416.857494 
L 796.650133 416.58242 
L 803.628218 415.74264 
L 805.372739 415.743262 
L 808.861782 416.10004 
L 814.095346 416.784796 
L 817.584389 416.97858 
L 822.817952 416.993383 
L 833.28508 416.87891 
L 847.241251 417.052099 
L 847.241251 417.052099 
" style="fill:none;stroke:#ccb974;stroke-linecap:round;stroke-width:1.5;"/>
   </g>
   <g id="patch_186">
    <path d="M 482.723525 417.054207 
L 482.723525 22.44 
" style="fill:none;stroke:#ffffff;stroke-linecap:square;stroke-linejoin:miter;stroke-width:0.8;"/>
   </g>
   <g id="patch_187">
    <path d="M 864.599238 417.054207 
L 864.599238 22.44 
" style="fill:none;stroke:#ffffff;stroke-linecap:square;stroke-linejoin:miter;stroke-width:0.8;"/>
   </g>
   <g id="patch_188">
    <path d="M 482.723525 417.054207 
L 864.599238 417.054207 
" style="fill:none;stroke:#ffffff;stroke-linecap:square;stroke-linejoin:miter;stroke-width:0.8;"/>
   </g>
   <g id="patch_189">
    <path d="M 482.723525 22.44 
L 864.599238 22.44 
" style="fill:none;stroke:#ffffff;stroke-linecap:square;stroke-linejoin:miter;stroke-width:0.8;"/>
   </g>
   <g id="legend_2">
    <g id="patch_190">
     <path d="M 761.389863 44.585312 
L 857.599238 44.585312 
Q 859.599238 44.585312 859.599238 42.585312 
L 859.599238 29.44 
Q 859.599238 27.44 857.599238 27.44 
L 761.389863 27.44 
Q 759.389863 27.44 759.389863 29.44 
L 759.389863 42.585312 
Q 759.389863 44.585312 761.389863 44.585312 
z
" style="fill:#e6e6e6;opacity:0.8;stroke:#cccccc;stroke-linejoin:miter;"/>
    </g>
    <g id="patch_191">
     <path d="M 763.389863 38.597812 
L 783.389863 38.597812 
L 783.389863 31.597812 
L 763.389863 31.597812 
z
" style="fill:#ccb974;fill-opacity:0.5;stroke:#ffffff;stroke-linejoin:miter;stroke-width:0.318039;"/>
    </g>
    <g id="text_37">
     <!-- mean =  2.857 -->
     <g style="fill:#262626;" transform="translate(791.389863 38.597812)scale(0.1 -0.1)">
      <use xlink:href="#ArialMT-6d"/>
      <use x="83.300781" xlink:href="#ArialMT-65"/>
      <use x="138.916016" xlink:href="#ArialMT-61"/>
      <use x="194.53125" xlink:href="#ArialMT-6e"/>
      <use x="250.146484" xlink:href="#ArialMT-20"/>
      <use x="277.929688" xlink:href="#ArialMT-3d"/>
      <use x="336.328125" xlink:href="#ArialMT-20"/>
      <use x="364.111328" xlink:href="#ArialMT-20"/>
      <use x="391.894531" xlink:href="#ArialMT-32"/>
      <use x="447.509766" xlink:href="#ArialMT-2e"/>
      <use x="475.292969" xlink:href="#ArialMT-38"/>
      <use x="530.908203" xlink:href="#ArialMT-35"/>
      <use x="586.523438" xlink:href="#ArialMT-37"/>
     </g>
    </g>
   </g>
  </g>
 </g>
 <defs>
  <clipPath id="pce1dc21501">
   <rect height="394.614208" width="381.875713" x="52.484375" y="22.44"/>
  </clipPath>
  <clipPath id="p27e9c4dc74">
   <rect height="394.614208" width="381.875713" x="482.723525" y="22.44"/>
  </clipPath>
 </defs>
</svg>
