<?xml version="1.0" encoding="UTF-8" standalone="no"?>
<!DOCTYPE svg PUBLIC "-//W3C//DTD SVG 1.1//EN"
 "http://www.w3.org/Graphics/SVG/1.1/DTD/svg11.dtd">
<!-- Generated by graphviz version 2.47.3 (0)
 -->
<!-- Pages: 1 -->
<svg width="124pt" height="233pt"
 viewBox="0.00 0.00 124.00 232.91" xmlns="http://www.w3.org/2000/svg" xmlns:xlink="http://www.w3.org/1999/xlink">
<g id="graph0" class="graph" transform="scale(1 1) rotate(0) translate(4 228.91)">
<polygon fill="white" stroke="transparent" points="-4,4 -4,-228.91 120,-228.91 120,4 -4,4"/>
<g id="clust1" class="cluster">
<title>cluster100</title>
<path fill="none" stroke="black" d="M20,-8C20,-8 96,-8 96,-8 102,-8 108,-14 108,-20 108,-20 108,-109.95 108,-109.95 108,-115.95 102,-121.95 96,-121.95 96,-121.95 20,-121.95 20,-121.95 14,-121.95 8,-115.95 8,-109.95 8,-109.95 8,-20 8,-20 8,-14 14,-8 20,-8"/>
<text text-anchor="middle" x="89.5" y="-15.8" font-family="Times,serif" font-size="14.00">100</text>
</g>
<!-- lambda -->
<g id="node1" class="node">
<title>lambda</title>
<ellipse fill="none" stroke="black" cx="58" cy="-187.43" rx="43.27" ry="37.45"/>
<text text-anchor="middle" x="58" y="-198.73" font-family="Times,serif" font-size="14.00">lambda</text>
<text text-anchor="middle" x="58" y="-183.73" font-family="Times,serif" font-size="14.00">~</text>
<text text-anchor="middle" x="58" y="-168.73" font-family="Times,serif" font-size="14.00">Gamma</text>
</g>
<!-- y_obs -->
<g id="node2" class="node">
<title>y_obs</title>
<ellipse fill="lightgrey" stroke="black" cx="58" cy="-76.48" rx="42.35" ry="37.45"/>
<text text-anchor="middle" x="58" y="-87.78" font-family="Times,serif" font-size="14.00">y_obs</text>
<text text-anchor="middle" x="58" y="-72.78" font-family="Times,serif" font-size="14.00">~</text>
<text text-anchor="middle" x="58" y="-57.78" font-family="Times,serif" font-size="14.00">Poisson</text>
</g>
<!-- lambda&#45;&gt;y_obs -->
<g id="edge1" class="edge">
<title>lambda&#45;&gt;y_obs</title>
<path fill="none" stroke="black" d="M58,-149.85C58,-141.67 58,-132.89 58,-124.37"/>
<polygon fill="black" stroke="black" points="61.5,-124.15 58,-114.15 54.5,-124.15 61.5,-124.15"/>
</g>
</g>
</svg>
