<?xml version="1.0" encoding="utf-8" standalone="no"?>
<!DOCTYPE svg PUBLIC "-//W3C//DTD SVG 1.1//EN"
  "http://www.w3.org/Graphics/SVG/1.1/DTD/svg11.dtd">
<svg height="439.054688pt" version="1.1" viewBox="0 0 617.684375 439.054688" width="617.684375pt" xmlns="http://www.w3.org/2000/svg" xmlns:xlink="http://www.w3.org/1999/xlink">
 <metadata>
  <rdf:RDF xmlns:cc="http://creativecommons.org/ns#" xmlns:dc="http://purl.org/dc/elements/1.1/" xmlns:rdf="http://www.w3.org/1999/02/22-rdf-syntax-ns#">
   <cc:Work>
    <dc:type rdf:resource="http://purl.org/dc/dcmitype/StillImage"/>
    <dc:date>2021-07-27T21:48:57.805393</dc:date>
    <dc:format>image/svg+xml</dc:format>
    <dc:creator>
     <cc:Agent>
      <dc:title>Matplotlib v3.4.2, https://matplotlib.org/</dc:title>
     </cc:Agent>
    </dc:creator>
   </cc:Work>
  </rdf:RDF>
 </metadata>
 <defs>
  <style type="text/css">*{stroke-linecap:butt;stroke-linejoin:round;}</style>
 </defs>
 <g id="figure_1">
  <g id="patch_1">
   <path d="M 0 439.054688 
L 617.684375 439.054688 
L 617.684375 0 
L 0 0 
z
" style="fill:#ffffff;"/>
  </g>
  <g id="axes_1">
   <g id="patch_2">
    <path d="M 52.484375 402.309375 
L 610.484375 402.309375 
L 610.484375 21.789375 
L 52.484375 21.789375 
z
" style="fill:#e6e6e6;"/>
   </g>
   <g id="matplotlib.axis_1">
    <g id="xtick_1">
     <g id="line2d_1">
      <path clip-path="url(#p2dbc93a735)" d="M 80.72841 402.309375 
L 80.72841 21.789375 
" style="fill:none;stroke:#cccccc;stroke-linecap:round;stroke-width:0.8;"/>
     </g>
     <g id="text_1">
      <!-- 0 -->
      <g style="fill:#262626;" transform="translate(77.947941 416.467188)scale(0.1 -0.1)">
       <defs>
        <path d="M 266 2259 
Q 266 3072 433 3567 
Q 600 4063 929 4331 
Q 1259 4600 1759 4600 
Q 2128 4600 2406 4451 
Q 2684 4303 2865 4023 
Q 3047 3744 3150 3342 
Q 3253 2941 3253 2259 
Q 3253 1453 3087 958 
Q 2922 463 2592 192 
Q 2263 -78 1759 -78 
Q 1097 -78 719 397 
Q 266 969 266 2259 
z
M 844 2259 
Q 844 1131 1108 757 
Q 1372 384 1759 384 
Q 2147 384 2411 759 
Q 2675 1134 2675 2259 
Q 2675 3391 2411 3762 
Q 2147 4134 1753 4134 
Q 1366 4134 1134 3806 
Q 844 3388 844 2259 
z
" id="ArialMT-30" transform="scale(0.015625)"/>
       </defs>
       <use xlink:href="#ArialMT-30"/>
      </g>
     </g>
    </g>
    <g id="xtick_2">
     <g id="line2d_2">
      <path clip-path="url(#p2dbc93a735)" d="M 182.150781 402.309375 
L 182.150781 21.789375 
" style="fill:none;stroke:#cccccc;stroke-linecap:round;stroke-width:0.8;"/>
     </g>
     <g id="text_2">
      <!-- 5 -->
      <g style="fill:#262626;" transform="translate(179.370312 416.467188)scale(0.1 -0.1)">
       <defs>
        <path d="M 266 1200 
L 856 1250 
Q 922 819 1161 601 
Q 1400 384 1738 384 
Q 2144 384 2425 690 
Q 2706 997 2706 1503 
Q 2706 1984 2436 2262 
Q 2166 2541 1728 2541 
Q 1456 2541 1237 2417 
Q 1019 2294 894 2097 
L 366 2166 
L 809 4519 
L 3088 4519 
L 3088 3981 
L 1259 3981 
L 1013 2750 
Q 1425 3038 1878 3038 
Q 2478 3038 2890 2622 
Q 3303 2206 3303 1553 
Q 3303 931 2941 478 
Q 2500 -78 1738 -78 
Q 1113 -78 717 272 
Q 322 622 266 1200 
z
" id="ArialMT-35" transform="scale(0.015625)"/>
       </defs>
       <use xlink:href="#ArialMT-35"/>
      </g>
     </g>
    </g>
    <g id="xtick_3">
     <g id="line2d_3">
      <path clip-path="url(#p2dbc93a735)" d="M 283.573152 402.309375 
L 283.573152 21.789375 
" style="fill:none;stroke:#cccccc;stroke-linecap:round;stroke-width:0.8;"/>
     </g>
     <g id="text_3">
      <!-- 10 -->
      <g style="fill:#262626;" transform="translate(278.012214 416.467188)scale(0.1 -0.1)">
       <defs>
        <path d="M 2384 0 
L 1822 0 
L 1822 3584 
Q 1619 3391 1289 3197 
Q 959 3003 697 2906 
L 697 3450 
Q 1169 3672 1522 3987 
Q 1875 4303 2022 4600 
L 2384 4600 
L 2384 0 
z
" id="ArialMT-31" transform="scale(0.015625)"/>
       </defs>
       <use xlink:href="#ArialMT-31"/>
       <use x="55.615234" xlink:href="#ArialMT-30"/>
      </g>
     </g>
    </g>
    <g id="xtick_4">
     <g id="line2d_4">
      <path clip-path="url(#p2dbc93a735)" d="M 384.995523 402.309375 
L 384.995523 21.789375 
" style="fill:none;stroke:#cccccc;stroke-linecap:round;stroke-width:0.8;"/>
     </g>
     <g id="text_4">
      <!-- 15 -->
      <g style="fill:#262626;" transform="translate(379.434585 416.467188)scale(0.1 -0.1)">
       <use xlink:href="#ArialMT-31"/>
       <use x="55.615234" xlink:href="#ArialMT-35"/>
      </g>
     </g>
    </g>
    <g id="xtick_5">
     <g id="line2d_5">
      <path clip-path="url(#p2dbc93a735)" d="M 486.417894 402.309375 
L 486.417894 21.789375 
" style="fill:none;stroke:#cccccc;stroke-linecap:round;stroke-width:0.8;"/>
     </g>
     <g id="text_5">
      <!-- 20 -->
      <g style="fill:#262626;" transform="translate(480.856956 416.467188)scale(0.1 -0.1)">
       <defs>
        <path d="M 3222 541 
L 3222 0 
L 194 0 
Q 188 203 259 391 
Q 375 700 629 1000 
Q 884 1300 1366 1694 
Q 2113 2306 2375 2664 
Q 2638 3022 2638 3341 
Q 2638 3675 2398 3904 
Q 2159 4134 1775 4134 
Q 1369 4134 1125 3890 
Q 881 3647 878 3216 
L 300 3275 
Q 359 3922 746 4261 
Q 1134 4600 1788 4600 
Q 2447 4600 2831 4234 
Q 3216 3869 3216 3328 
Q 3216 3053 3103 2787 
Q 2991 2522 2730 2228 
Q 2469 1934 1863 1422 
Q 1356 997 1212 845 
Q 1069 694 975 541 
L 3222 541 
z
" id="ArialMT-32" transform="scale(0.015625)"/>
       </defs>
       <use xlink:href="#ArialMT-32"/>
       <use x="55.615234" xlink:href="#ArialMT-30"/>
      </g>
     </g>
    </g>
    <g id="xtick_6">
     <g id="line2d_6">
      <path clip-path="url(#p2dbc93a735)" d="M 587.840265 402.309375 
L 587.840265 21.789375 
" style="fill:none;stroke:#cccccc;stroke-linecap:round;stroke-width:0.8;"/>
     </g>
     <g id="text_6">
      <!-- 25 -->
      <g style="fill:#262626;" transform="translate(582.279327 416.467188)scale(0.1 -0.1)">
       <use xlink:href="#ArialMT-32"/>
       <use x="55.615234" xlink:href="#ArialMT-35"/>
      </g>
     </g>
    </g>
    <g id="text_7">
     <!-- $\lambda_{new}$ -->
     <g style="fill:#262626;" transform="translate(321.134375 429.867188)scale(0.1 -0.1)">
      <defs>
       <path d="M 2350 4316 
L 3125 0 
L 2516 0 
L 2038 2588 
L 328 0 
L -281 0 
L 1903 3356 
L 1794 3975 
Q 1725 4369 1391 4369 
L 1091 4369 
L 1184 4863 
L 1550 4856 
Q 2253 4847 2350 4316 
z
" id="DejaVuSans-Oblique-3bb" transform="scale(0.015625)"/>
       <path d="M 3566 2113 
L 3156 0 
L 2578 0 
L 2988 2091 
Q 3016 2238 3031 2350 
Q 3047 2463 3047 2528 
Q 3047 2791 2881 2937 
Q 2716 3084 2419 3084 
Q 1956 3084 1622 2776 
Q 1288 2469 1184 1941 
L 800 0 
L 225 0 
L 903 3500 
L 1478 3500 
L 1363 2950 
Q 1603 3253 1940 3418 
Q 2278 3584 2650 3584 
Q 3113 3584 3367 3334 
Q 3622 3084 3622 2631 
Q 3622 2519 3608 2391 
Q 3594 2263 3566 2113 
z
" id="DejaVuSans-Oblique-6e" transform="scale(0.015625)"/>
       <path d="M 3078 2063 
Q 3088 2113 3092 2166 
Q 3097 2219 3097 2272 
Q 3097 2653 2873 2875 
Q 2650 3097 2266 3097 
Q 1838 3097 1509 2826 
Q 1181 2556 1013 2059 
L 3078 2063 
z
M 3578 1613 
L 903 1613 
Q 884 1494 878 1425 
Q 872 1356 872 1306 
Q 872 872 1139 634 
Q 1406 397 1894 397 
Q 2269 397 2603 481 
Q 2938 566 3225 728 
L 3116 159 
Q 2806 34 2476 -28 
Q 2147 -91 1806 -91 
Q 1078 -91 686 257 
Q 294 606 294 1247 
Q 294 1794 489 2264 
Q 684 2734 1063 3103 
Q 1306 3334 1642 3459 
Q 1978 3584 2356 3584 
Q 2950 3584 3301 3228 
Q 3653 2872 3653 2272 
Q 3653 2128 3634 1964 
Q 3616 1800 3578 1613 
z
" id="DejaVuSans-Oblique-65" transform="scale(0.015625)"/>
       <path d="M 544 3500 
L 1113 3500 
L 1259 684 
L 2566 3500 
L 3231 3500 
L 3425 684 
L 4666 3500 
L 5241 3500 
L 3641 0 
L 2969 0 
L 2797 2900 
L 1459 0 
L 781 0 
L 544 3500 
z
" id="DejaVuSans-Oblique-77" transform="scale(0.015625)"/>
      </defs>
      <use transform="translate(0 0.015625)" xlink:href="#DejaVuSans-Oblique-3bb"/>
      <use transform="translate(59.179688 -16.390625)scale(0.7)" xlink:href="#DejaVuSans-Oblique-6e"/>
      <use transform="translate(103.544922 -16.390625)scale(0.7)" xlink:href="#DejaVuSans-Oblique-65"/>
      <use transform="translate(146.611328 -16.390625)scale(0.7)" xlink:href="#DejaVuSans-Oblique-77"/>
     </g>
    </g>
   </g>
   <g id="matplotlib.axis_2">
    <g id="ytick_1">
     <g id="line2d_7">
      <path clip-path="url(#p2dbc93a735)" d="M 52.484375 402.309375 
L 610.484375 402.309375 
" style="fill:none;stroke:#cccccc;stroke-linecap:round;stroke-width:0.8;"/>
     </g>
     <g id="text_8">
      <!-- 0.000 -->
      <g style="fill:#262626;" transform="translate(20.4625 405.888281)scale(0.1 -0.1)">
       <defs>
        <path d="M 581 0 
L 581 641 
L 1222 641 
L 1222 0 
L 581 0 
z
" id="ArialMT-2e" transform="scale(0.015625)"/>
       </defs>
       <use xlink:href="#ArialMT-30"/>
       <use x="55.615234" xlink:href="#ArialMT-2e"/>
       <use x="83.398438" xlink:href="#ArialMT-30"/>
       <use x="139.013672" xlink:href="#ArialMT-30"/>
       <use x="194.628906" xlink:href="#ArialMT-30"/>
      </g>
     </g>
    </g>
    <g id="ytick_2">
     <g id="line2d_8">
      <path clip-path="url(#p2dbc93a735)" d="M 52.484375 359.230227 
L 610.484375 359.230227 
" style="fill:none;stroke:#cccccc;stroke-linecap:round;stroke-width:0.8;"/>
     </g>
     <g id="text_9">
      <!-- 0.025 -->
      <g style="fill:#262626;" transform="translate(20.4625 362.809133)scale(0.1 -0.1)">
       <use xlink:href="#ArialMT-30"/>
       <use x="55.615234" xlink:href="#ArialMT-2e"/>
       <use x="83.398438" xlink:href="#ArialMT-30"/>
       <use x="139.013672" xlink:href="#ArialMT-32"/>
       <use x="194.628906" xlink:href="#ArialMT-35"/>
      </g>
     </g>
    </g>
    <g id="ytick_3">
     <g id="line2d_9">
      <path clip-path="url(#p2dbc93a735)" d="M 52.484375 316.151079 
L 610.484375 316.151079 
" style="fill:none;stroke:#cccccc;stroke-linecap:round;stroke-width:0.8;"/>
     </g>
     <g id="text_10">
      <!-- 0.050 -->
      <g style="fill:#262626;" transform="translate(20.4625 319.729986)scale(0.1 -0.1)">
       <use xlink:href="#ArialMT-30"/>
       <use x="55.615234" xlink:href="#ArialMT-2e"/>
       <use x="83.398438" xlink:href="#ArialMT-30"/>
       <use x="139.013672" xlink:href="#ArialMT-35"/>
       <use x="194.628906" xlink:href="#ArialMT-30"/>
      </g>
     </g>
    </g>
    <g id="ytick_4">
     <g id="line2d_10">
      <path clip-path="url(#p2dbc93a735)" d="M 52.484375 273.071932 
L 610.484375 273.071932 
" style="fill:none;stroke:#cccccc;stroke-linecap:round;stroke-width:0.8;"/>
     </g>
     <g id="text_11">
      <!-- 0.075 -->
      <g style="fill:#262626;" transform="translate(20.4625 276.650838)scale(0.1 -0.1)">
       <defs>
        <path d="M 303 3981 
L 303 4522 
L 3269 4522 
L 3269 4084 
Q 2831 3619 2401 2847 
Q 1972 2075 1738 1259 
Q 1569 684 1522 0 
L 944 0 
Q 953 541 1156 1306 
Q 1359 2072 1739 2783 
Q 2119 3494 2547 3981 
L 303 3981 
z
" id="ArialMT-37" transform="scale(0.015625)"/>
       </defs>
       <use xlink:href="#ArialMT-30"/>
       <use x="55.615234" xlink:href="#ArialMT-2e"/>
       <use x="83.398438" xlink:href="#ArialMT-30"/>
       <use x="139.013672" xlink:href="#ArialMT-37"/>
       <use x="194.628906" xlink:href="#ArialMT-35"/>
      </g>
     </g>
    </g>
    <g id="ytick_5">
     <g id="line2d_11">
      <path clip-path="url(#p2dbc93a735)" d="M 52.484375 229.992784 
L 610.484375 229.992784 
" style="fill:none;stroke:#cccccc;stroke-linecap:round;stroke-width:0.8;"/>
     </g>
     <g id="text_12">
      <!-- 0.100 -->
      <g style="fill:#262626;" transform="translate(20.4625 233.57169)scale(0.1 -0.1)">
       <use xlink:href="#ArialMT-30"/>
       <use x="55.615234" xlink:href="#ArialMT-2e"/>
       <use x="83.398438" xlink:href="#ArialMT-31"/>
       <use x="139.013672" xlink:href="#ArialMT-30"/>
       <use x="194.628906" xlink:href="#ArialMT-30"/>
      </g>
     </g>
    </g>
    <g id="ytick_6">
     <g id="line2d_12">
      <path clip-path="url(#p2dbc93a735)" d="M 52.484375 186.913636 
L 610.484375 186.913636 
" style="fill:none;stroke:#cccccc;stroke-linecap:round;stroke-width:0.8;"/>
     </g>
     <g id="text_13">
      <!-- 0.125 -->
      <g style="fill:#262626;" transform="translate(20.4625 190.492542)scale(0.1 -0.1)">
       <use xlink:href="#ArialMT-30"/>
       <use x="55.615234" xlink:href="#ArialMT-2e"/>
       <use x="83.398438" xlink:href="#ArialMT-31"/>
       <use x="139.013672" xlink:href="#ArialMT-32"/>
       <use x="194.628906" xlink:href="#ArialMT-35"/>
      </g>
     </g>
    </g>
    <g id="ytick_7">
     <g id="line2d_13">
      <path clip-path="url(#p2dbc93a735)" d="M 52.484375 143.834488 
L 610.484375 143.834488 
" style="fill:none;stroke:#cccccc;stroke-linecap:round;stroke-width:0.8;"/>
     </g>
     <g id="text_14">
      <!-- 0.150 -->
      <g style="fill:#262626;" transform="translate(20.4625 147.413394)scale(0.1 -0.1)">
       <use xlink:href="#ArialMT-30"/>
       <use x="55.615234" xlink:href="#ArialMT-2e"/>
       <use x="83.398438" xlink:href="#ArialMT-31"/>
       <use x="139.013672" xlink:href="#ArialMT-35"/>
       <use x="194.628906" xlink:href="#ArialMT-30"/>
      </g>
     </g>
    </g>
    <g id="ytick_8">
     <g id="line2d_14">
      <path clip-path="url(#p2dbc93a735)" d="M 52.484375 100.75534 
L 610.484375 100.75534 
" style="fill:none;stroke:#cccccc;stroke-linecap:round;stroke-width:0.8;"/>
     </g>
     <g id="text_15">
      <!-- 0.175 -->
      <g style="fill:#262626;" transform="translate(20.4625 104.334247)scale(0.1 -0.1)">
       <use xlink:href="#ArialMT-30"/>
       <use x="55.615234" xlink:href="#ArialMT-2e"/>
       <use x="83.398438" xlink:href="#ArialMT-31"/>
       <use x="139.013672" xlink:href="#ArialMT-37"/>
       <use x="194.628906" xlink:href="#ArialMT-35"/>
      </g>
     </g>
    </g>
    <g id="ytick_9">
     <g id="line2d_15">
      <path clip-path="url(#p2dbc93a735)" d="M 52.484375 57.676192 
L 610.484375 57.676192 
" style="fill:none;stroke:#cccccc;stroke-linecap:round;stroke-width:0.8;"/>
     </g>
     <g id="text_16">
      <!-- 0.200 -->
      <g style="fill:#262626;" transform="translate(20.4625 61.255099)scale(0.1 -0.1)">
       <use xlink:href="#ArialMT-30"/>
       <use x="55.615234" xlink:href="#ArialMT-2e"/>
       <use x="83.398438" xlink:href="#ArialMT-32"/>
       <use x="139.013672" xlink:href="#ArialMT-30"/>
       <use x="194.628906" xlink:href="#ArialMT-30"/>
      </g>
     </g>
    </g>
    <g id="text_17">
     <!-- Density -->
     <g style="fill:#262626;" transform="translate(14.357813 228.72125)rotate(-90)scale(0.1 -0.1)">
      <defs>
       <path d="M 494 0 
L 494 4581 
L 2072 4581 
Q 2606 4581 2888 4516 
Q 3281 4425 3559 4188 
Q 3922 3881 4101 3404 
Q 4281 2928 4281 2316 
Q 4281 1794 4159 1391 
Q 4038 988 3847 723 
Q 3656 459 3429 307 
Q 3203 156 2883 78 
Q 2563 0 2147 0 
L 494 0 
z
M 1100 541 
L 2078 541 
Q 2531 541 2789 625 
Q 3047 709 3200 863 
Q 3416 1078 3536 1442 
Q 3656 1806 3656 2325 
Q 3656 3044 3420 3430 
Q 3184 3816 2847 3947 
Q 2603 4041 2063 4041 
L 1100 4041 
L 1100 541 
z
" id="ArialMT-44" transform="scale(0.015625)"/>
       <path d="M 2694 1069 
L 3275 997 
Q 3138 488 2766 206 
Q 2394 -75 1816 -75 
Q 1088 -75 661 373 
Q 234 822 234 1631 
Q 234 2469 665 2931 
Q 1097 3394 1784 3394 
Q 2450 3394 2872 2941 
Q 3294 2488 3294 1666 
Q 3294 1616 3291 1516 
L 816 1516 
Q 847 969 1125 678 
Q 1403 388 1819 388 
Q 2128 388 2347 550 
Q 2566 713 2694 1069 
z
M 847 1978 
L 2700 1978 
Q 2663 2397 2488 2606 
Q 2219 2931 1791 2931 
Q 1403 2931 1139 2672 
Q 875 2413 847 1978 
z
" id="ArialMT-65" transform="scale(0.015625)"/>
       <path d="M 422 0 
L 422 3319 
L 928 3319 
L 928 2847 
Q 1294 3394 1984 3394 
Q 2284 3394 2536 3286 
Q 2788 3178 2913 3003 
Q 3038 2828 3088 2588 
Q 3119 2431 3119 2041 
L 3119 0 
L 2556 0 
L 2556 2019 
Q 2556 2363 2490 2533 
Q 2425 2703 2258 2804 
Q 2091 2906 1866 2906 
Q 1506 2906 1245 2678 
Q 984 2450 984 1813 
L 984 0 
L 422 0 
z
" id="ArialMT-6e" transform="scale(0.015625)"/>
       <path d="M 197 991 
L 753 1078 
Q 800 744 1014 566 
Q 1228 388 1613 388 
Q 2000 388 2187 545 
Q 2375 703 2375 916 
Q 2375 1106 2209 1216 
Q 2094 1291 1634 1406 
Q 1016 1563 777 1677 
Q 538 1791 414 1992 
Q 291 2194 291 2438 
Q 291 2659 392 2848 
Q 494 3038 669 3163 
Q 800 3259 1026 3326 
Q 1253 3394 1513 3394 
Q 1903 3394 2198 3281 
Q 2494 3169 2634 2976 
Q 2775 2784 2828 2463 
L 2278 2388 
Q 2241 2644 2061 2787 
Q 1881 2931 1553 2931 
Q 1166 2931 1000 2803 
Q 834 2675 834 2503 
Q 834 2394 903 2306 
Q 972 2216 1119 2156 
Q 1203 2125 1616 2013 
Q 2213 1853 2448 1751 
Q 2684 1650 2818 1456 
Q 2953 1263 2953 975 
Q 2953 694 2789 445 
Q 2625 197 2315 61 
Q 2006 -75 1616 -75 
Q 969 -75 630 194 
Q 291 463 197 991 
z
" id="ArialMT-73" transform="scale(0.015625)"/>
       <path d="M 425 3934 
L 425 4581 
L 988 4581 
L 988 3934 
L 425 3934 
z
M 425 0 
L 425 3319 
L 988 3319 
L 988 0 
L 425 0 
z
" id="ArialMT-69" transform="scale(0.015625)"/>
       <path d="M 1650 503 
L 1731 6 
Q 1494 -44 1306 -44 
Q 1000 -44 831 53 
Q 663 150 594 308 
Q 525 466 525 972 
L 525 2881 
L 113 2881 
L 113 3319 
L 525 3319 
L 525 4141 
L 1084 4478 
L 1084 3319 
L 1650 3319 
L 1650 2881 
L 1084 2881 
L 1084 941 
Q 1084 700 1114 631 
Q 1144 563 1211 522 
Q 1278 481 1403 481 
Q 1497 481 1650 503 
z
" id="ArialMT-74" transform="scale(0.015625)"/>
       <path d="M 397 -1278 
L 334 -750 
Q 519 -800 656 -800 
Q 844 -800 956 -737 
Q 1069 -675 1141 -563 
Q 1194 -478 1313 -144 
Q 1328 -97 1363 -6 
L 103 3319 
L 709 3319 
L 1400 1397 
Q 1534 1031 1641 628 
Q 1738 1016 1872 1384 
L 2581 3319 
L 3144 3319 
L 1881 -56 
Q 1678 -603 1566 -809 
Q 1416 -1088 1222 -1217 
Q 1028 -1347 759 -1347 
Q 597 -1347 397 -1278 
z
" id="ArialMT-79" transform="scale(0.015625)"/>
      </defs>
      <use xlink:href="#ArialMT-44"/>
      <use x="72.216797" xlink:href="#ArialMT-65"/>
      <use x="127.832031" xlink:href="#ArialMT-6e"/>
      <use x="183.447266" xlink:href="#ArialMT-73"/>
      <use x="233.447266" xlink:href="#ArialMT-69"/>
      <use x="255.664062" xlink:href="#ArialMT-74"/>
      <use x="283.447266" xlink:href="#ArialMT-79"/>
     </g>
    </g>
   </g>
   <g id="patch_3">
    <path clip-path="url(#p2dbc93a735)" d="M 101.505151 402.309375 
L 107.183651 402.309375 
L 107.183651 400.770521 
L 101.505151 400.770521 
z
" style="fill:#64b5cd;fill-opacity:0.5;stroke:#ffffff;stroke-linejoin:miter;stroke-width:0.626263;"/>
   </g>
   <g id="patch_4">
    <path clip-path="url(#p2dbc93a735)" d="M 107.183651 402.309375 
L 112.86215 402.309375 
L 112.86215 402.309375 
L 107.183651 402.309375 
z
" style="fill:#64b5cd;fill-opacity:0.5;stroke:#ffffff;stroke-linejoin:miter;stroke-width:0.626263;"/>
   </g>
   <g id="patch_5">
    <path clip-path="url(#p2dbc93a735)" d="M 112.86215 402.309375 
L 118.540649 402.309375 
L 118.540649 397.692814 
L 112.86215 397.692814 
z
" style="fill:#64b5cd;fill-opacity:0.5;stroke:#ffffff;stroke-linejoin:miter;stroke-width:0.626263;"/>
   </g>
   <g id="patch_6">
    <path clip-path="url(#p2dbc93a735)" d="M 118.540649 402.309375 
L 124.219149 402.309375 
L 124.219149 400.001095 
L 118.540649 400.001095 
z
" style="fill:#64b5cd;fill-opacity:0.5;stroke:#ffffff;stroke-linejoin:miter;stroke-width:0.626263;"/>
   </g>
   <g id="patch_7">
    <path clip-path="url(#p2dbc93a735)" d="M 124.219149 402.309375 
L 129.897648 402.309375 
L 129.897648 400.001095 
L 124.219149 400.001095 
z
" style="fill:#64b5cd;fill-opacity:0.5;stroke:#ffffff;stroke-linejoin:miter;stroke-width:0.626263;"/>
   </g>
   <g id="patch_8">
    <path clip-path="url(#p2dbc93a735)" d="M 129.897648 402.309375 
L 135.576148 402.309375 
L 135.576148 395.384534 
L 129.897648 395.384534 
z
" style="fill:#64b5cd;fill-opacity:0.5;stroke:#ffffff;stroke-linejoin:miter;stroke-width:0.626263;"/>
   </g>
   <g id="patch_9">
    <path clip-path="url(#p2dbc93a735)" d="M 135.576148 402.309375 
L 141.254647 402.309375 
L 141.254647 396.923388 
L 135.576148 396.923388 
z
" style="fill:#64b5cd;fill-opacity:0.5;stroke:#ffffff;stroke-linejoin:miter;stroke-width:0.626263;"/>
   </g>
   <g id="patch_10">
    <path clip-path="url(#p2dbc93a735)" d="M 141.254647 402.309375 
L 146.933146 402.309375 
L 146.933146 393.076254 
L 141.254647 393.076254 
z
" style="fill:#64b5cd;fill-opacity:0.5;stroke:#ffffff;stroke-linejoin:miter;stroke-width:0.626263;"/>
   </g>
   <g id="patch_11">
    <path clip-path="url(#p2dbc93a735)" d="M 146.933146 402.309375 
L 152.611646 402.309375 
L 152.611646 393.845681 
L 146.933146 393.845681 
z
" style="fill:#64b5cd;fill-opacity:0.5;stroke:#ffffff;stroke-linejoin:miter;stroke-width:0.626263;"/>
   </g>
   <g id="patch_12">
    <path clip-path="url(#p2dbc93a735)" d="M 152.611646 402.309375 
L 158.290145 402.309375 
L 158.290145 385.381986 
L 152.611646 385.381986 
z
" style="fill:#64b5cd;fill-opacity:0.5;stroke:#ffffff;stroke-linejoin:miter;stroke-width:0.626263;"/>
   </g>
   <g id="patch_13">
    <path clip-path="url(#p2dbc93a735)" d="M 158.290145 402.309375 
L 163.968644 402.309375 
L 163.968644 386.151413 
L 158.290145 386.151413 
z
" style="fill:#64b5cd;fill-opacity:0.5;stroke:#ffffff;stroke-linejoin:miter;stroke-width:0.626263;"/>
   </g>
   <g id="patch_14">
    <path clip-path="url(#p2dbc93a735)" d="M 163.968644 402.309375 
L 169.647144 402.309375 
L 169.647144 376.148865 
L 163.968644 376.148865 
z
" style="fill:#64b5cd;fill-opacity:0.5;stroke:#ffffff;stroke-linejoin:miter;stroke-width:0.626263;"/>
   </g>
   <g id="patch_15">
    <path clip-path="url(#p2dbc93a735)" d="M 169.647144 402.309375 
L 175.325643 402.309375 
L 175.325643 369.993451 
L 169.647144 369.993451 
z
" style="fill:#64b5cd;fill-opacity:0.5;stroke:#ffffff;stroke-linejoin:miter;stroke-width:0.626263;"/>
   </g>
   <g id="patch_16">
    <path clip-path="url(#p2dbc93a735)" d="M 175.325643 402.309375 
L 181.004142 402.309375 
L 181.004142 369.993451 
L 175.325643 369.993451 
z
" style="fill:#64b5cd;fill-opacity:0.5;stroke:#ffffff;stroke-linejoin:miter;stroke-width:0.626263;"/>
   </g>
   <g id="patch_17">
    <path clip-path="url(#p2dbc93a735)" d="M 181.004142 402.309375 
L 186.682642 402.309375 
L 186.682642 349.988356 
L 181.004142 349.988356 
z
" style="fill:#64b5cd;fill-opacity:0.5;stroke:#ffffff;stroke-linejoin:miter;stroke-width:0.626263;"/>
   </g>
   <g id="patch_18">
    <path clip-path="url(#p2dbc93a735)" d="M 186.682642 402.309375 
L 192.361141 402.309375 
L 192.361141 346.910649 
L 186.682642 346.910649 
z
" style="fill:#64b5cd;fill-opacity:0.5;stroke:#ffffff;stroke-linejoin:miter;stroke-width:0.626263;"/>
   </g>
   <g id="patch_19">
    <path clip-path="url(#p2dbc93a735)" d="M 192.361141 402.309375 
L 198.03964 402.309375 
L 198.03964 317.672432 
L 192.361141 317.672432 
z
" style="fill:#64b5cd;fill-opacity:0.5;stroke:#ffffff;stroke-linejoin:miter;stroke-width:0.626263;"/>
   </g>
   <g id="patch_20">
    <path clip-path="url(#p2dbc93a735)" d="M 198.03964 402.309375 
L 203.71814 402.309375 
L 203.71814 301.514471 
L 198.03964 301.514471 
z
" style="fill:#64b5cd;fill-opacity:0.5;stroke:#ffffff;stroke-linejoin:miter;stroke-width:0.626263;"/>
   </g>
   <g id="patch_21">
    <path clip-path="url(#p2dbc93a735)" d="M 203.71814 402.309375 
L 209.396639 402.309375 
L 209.396639 259.195999 
L 203.71814 259.195999 
z
" style="fill:#64b5cd;fill-opacity:0.5;stroke:#ffffff;stroke-linejoin:miter;stroke-width:0.626263;"/>
   </g>
   <g id="patch_22">
    <path clip-path="url(#p2dbc93a735)" d="M 209.396639 402.309375 
L 215.075138 402.309375 
L 215.075138 237.65205 
L 209.396639 237.65205 
z
" style="fill:#64b5cd;fill-opacity:0.5;stroke:#ffffff;stroke-linejoin:miter;stroke-width:0.626263;"/>
   </g>
   <g id="patch_23">
    <path clip-path="url(#p2dbc93a735)" d="M 215.075138 402.309375 
L 220.753638 402.309375 
L 220.753638 232.266063 
L 215.075138 232.266063 
z
" style="fill:#64b5cd;fill-opacity:0.5;stroke:#ffffff;stroke-linejoin:miter;stroke-width:0.626263;"/>
   </g>
   <g id="patch_24">
    <path clip-path="url(#p2dbc93a735)" d="M 220.753638 402.309375 
L 226.432137 402.309375 
L 226.432137 186.100458 
L 220.753638 186.100458 
z
" style="fill:#64b5cd;fill-opacity:0.5;stroke:#ffffff;stroke-linejoin:miter;stroke-width:0.626263;"/>
   </g>
   <g id="patch_25">
    <path clip-path="url(#p2dbc93a735)" d="M 226.432137 402.309375 
L 232.110636 402.309375 
L 232.110636 166.095362 
L 226.432137 166.095362 
z
" style="fill:#64b5cd;fill-opacity:0.5;stroke:#ffffff;stroke-linejoin:miter;stroke-width:0.626263;"/>
   </g>
   <g id="patch_26">
    <path clip-path="url(#p2dbc93a735)" d="M 232.110636 402.309375 
L 237.789136 402.309375 
L 237.789136 107.618929 
L 232.110636 107.618929 
z
" style="fill:#64b5cd;fill-opacity:0.5;stroke:#ffffff;stroke-linejoin:miter;stroke-width:0.626263;"/>
   </g>
   <g id="patch_27">
    <path clip-path="url(#p2dbc93a735)" d="M 237.789136 402.309375 
L 243.467635 402.309375 
L 243.467635 94.538674 
L 237.789136 94.538674 
z
" style="fill:#64b5cd;fill-opacity:0.5;stroke:#ffffff;stroke-linejoin:miter;stroke-width:0.626263;"/>
   </g>
   <g id="patch_28">
    <path clip-path="url(#p2dbc93a735)" d="M 243.467635 402.309375 
L 249.146134 402.309375 
L 249.146134 92.999821 
L 243.467635 92.999821 
z
" style="fill:#64b5cd;fill-opacity:0.5;stroke:#ffffff;stroke-linejoin:miter;stroke-width:0.626263;"/>
   </g>
   <g id="patch_29">
    <path clip-path="url(#p2dbc93a735)" d="M 249.146134 402.309375 
L 254.824634 402.309375 
L 254.824634 86.844407 
L 249.146134 86.844407 
z
" style="fill:#64b5cd;fill-opacity:0.5;stroke:#ffffff;stroke-linejoin:miter;stroke-width:0.626263;"/>
   </g>
   <g id="patch_30">
    <path clip-path="url(#p2dbc93a735)" d="M 254.824634 402.309375 
L 260.503133 402.309375 
L 260.503133 79.150139 
L 254.824634 79.150139 
z
" style="fill:#64b5cd;fill-opacity:0.5;stroke:#ffffff;stroke-linejoin:miter;stroke-width:0.626263;"/>
   </g>
   <g id="patch_31">
    <path clip-path="url(#p2dbc93a735)" d="M 260.503133 402.309375 
L 266.181633 402.309375 
L 266.181633 39.909375 
L 260.503133 39.909375 
z
" style="fill:#64b5cd;fill-opacity:0.5;stroke:#ffffff;stroke-linejoin:miter;stroke-width:0.626263;"/>
   </g>
   <g id="patch_32">
    <path clip-path="url(#p2dbc93a735)" d="M 266.181633 402.309375 
L 271.860132 402.309375 
L 271.860132 76.841859 
L 266.181633 76.841859 
z
" style="fill:#64b5cd;fill-opacity:0.5;stroke:#ffffff;stroke-linejoin:miter;stroke-width:0.626263;"/>
   </g>
   <g id="patch_33">
    <path clip-path="url(#p2dbc93a735)" d="M 271.860132 402.309375 
L 277.538631 402.309375 
L 277.538631 99.924662 
L 271.860132 99.924662 
z
" style="fill:#64b5cd;fill-opacity:0.5;stroke:#ffffff;stroke-linejoin:miter;stroke-width:0.626263;"/>
   </g>
   <g id="patch_34">
    <path clip-path="url(#p2dbc93a735)" d="M 277.538631 402.309375 
L 283.217131 402.309375 
L 283.217131 107.618929 
L 277.538631 107.618929 
z
" style="fill:#64b5cd;fill-opacity:0.5;stroke:#ffffff;stroke-linejoin:miter;stroke-width:0.626263;"/>
   </g>
   <g id="patch_35">
    <path clip-path="url(#p2dbc93a735)" d="M 283.217131 402.309375 
L 288.89563 402.309375 
L 288.89563 144.551413 
L 283.217131 144.551413 
z
" style="fill:#64b5cd;fill-opacity:0.5;stroke:#ffffff;stroke-linejoin:miter;stroke-width:0.626263;"/>
   </g>
   <g id="patch_36">
    <path clip-path="url(#p2dbc93a735)" d="M 288.89563 402.309375 
L 294.574129 402.309375 
L 294.574129 149.9374 
L 288.89563 149.9374 
z
" style="fill:#64b5cd;fill-opacity:0.5;stroke:#ffffff;stroke-linejoin:miter;stroke-width:0.626263;"/>
   </g>
   <g id="patch_37">
    <path clip-path="url(#p2dbc93a735)" d="M 294.574129 402.309375 
L 300.252629 402.309375 
L 300.252629 203.797273 
L 294.574129 203.797273 
z
" style="fill:#64b5cd;fill-opacity:0.5;stroke:#ffffff;stroke-linejoin:miter;stroke-width:0.626263;"/>
   </g>
   <g id="patch_38">
    <path clip-path="url(#p2dbc93a735)" d="M 300.252629 402.309375 
L 305.931128 402.309375 
L 305.931128 224.571795 
L 300.252629 224.571795 
z
" style="fill:#64b5cd;fill-opacity:0.5;stroke:#ffffff;stroke-linejoin:miter;stroke-width:0.626263;"/>
   </g>
   <g id="patch_39">
    <path clip-path="url(#p2dbc93a735)" d="M 305.931128 402.309375 
L 311.609627 402.309375 
L 311.609627 239.96033 
L 305.931128 239.96033 
z
" style="fill:#64b5cd;fill-opacity:0.5;stroke:#ffffff;stroke-linejoin:miter;stroke-width:0.626263;"/>
   </g>
   <g id="patch_40">
    <path clip-path="url(#p2dbc93a735)" d="M 311.609627 402.309375 
L 317.288127 402.309375 
L 317.288127 258.426572 
L 311.609627 258.426572 
z
" style="fill:#64b5cd;fill-opacity:0.5;stroke:#ffffff;stroke-linejoin:miter;stroke-width:0.626263;"/>
   </g>
   <g id="patch_41">
    <path clip-path="url(#p2dbc93a735)" d="M 317.288127 402.309375 
L 322.966626 402.309375 
L 322.966626 276.123388 
L 317.288127 276.123388 
z
" style="fill:#64b5cd;fill-opacity:0.5;stroke:#ffffff;stroke-linejoin:miter;stroke-width:0.626263;"/>
   </g>
   <g id="patch_42">
    <path clip-path="url(#p2dbc93a735)" d="M 322.966626 402.309375 
L 328.645125 402.309375 
L 328.645125 317.672432 
L 322.966626 317.672432 
z
" style="fill:#64b5cd;fill-opacity:0.5;stroke:#ffffff;stroke-linejoin:miter;stroke-width:0.626263;"/>
   </g>
   <g id="patch_43">
    <path clip-path="url(#p2dbc93a735)" d="M 328.645125 402.309375 
L 334.323625 402.309375 
L 334.323625 326.905553 
L 328.645125 326.905553 
z
" style="fill:#64b5cd;fill-opacity:0.5;stroke:#ffffff;stroke-linejoin:miter;stroke-width:0.626263;"/>
   </g>
   <g id="patch_44">
    <path clip-path="url(#p2dbc93a735)" d="M 334.323625 402.309375 
L 340.002124 402.309375 
L 340.002124 330.752687 
L 334.323625 330.752687 
z
" style="fill:#64b5cd;fill-opacity:0.5;stroke:#ffffff;stroke-linejoin:miter;stroke-width:0.626263;"/>
   </g>
   <g id="patch_45">
    <path clip-path="url(#p2dbc93a735)" d="M 340.002124 402.309375 
L 345.680623 402.309375 
L 345.680623 346.910649 
L 340.002124 346.910649 
z
" style="fill:#64b5cd;fill-opacity:0.5;stroke:#ffffff;stroke-linejoin:miter;stroke-width:0.626263;"/>
   </g>
   <g id="patch_46">
    <path clip-path="url(#p2dbc93a735)" d="M 345.680623 402.309375 
L 351.359123 402.309375 
L 351.359123 359.990904 
L 345.680623 359.990904 
z
" style="fill:#64b5cd;fill-opacity:0.5;stroke:#ffffff;stroke-linejoin:miter;stroke-width:0.626263;"/>
   </g>
   <g id="patch_47">
    <path clip-path="url(#p2dbc93a735)" d="M 351.359123 402.309375 
L 357.037622 402.309375 
L 357.037622 350.757783 
L 351.359123 350.757783 
z
" style="fill:#64b5cd;fill-opacity:0.5;stroke:#ffffff;stroke-linejoin:miter;stroke-width:0.626263;"/>
   </g>
   <g id="patch_48">
    <path clip-path="url(#p2dbc93a735)" d="M 357.037622 402.309375 
L 362.716121 402.309375 
L 362.716121 365.376891 
L 357.037622 365.376891 
z
" style="fill:#64b5cd;fill-opacity:0.5;stroke:#ffffff;stroke-linejoin:miter;stroke-width:0.626263;"/>
   </g>
   <g id="patch_49">
    <path clip-path="url(#p2dbc93a735)" d="M 362.716121 402.309375 
L 368.394621 402.309375 
L 368.394621 372.301732 
L 362.716121 372.301732 
z
" style="fill:#64b5cd;fill-opacity:0.5;stroke:#ffffff;stroke-linejoin:miter;stroke-width:0.626263;"/>
   </g>
   <g id="patch_50">
    <path clip-path="url(#p2dbc93a735)" d="M 368.394621 402.309375 
L 374.07312 402.309375 
L 374.07312 373.840585 
L 368.394621 373.840585 
z
" style="fill:#64b5cd;fill-opacity:0.5;stroke:#ffffff;stroke-linejoin:miter;stroke-width:0.626263;"/>
   </g>
   <g id="patch_51">
    <path clip-path="url(#p2dbc93a735)" d="M 374.07312 402.309375 
L 379.751619 402.309375 
L 379.751619 376.918292 
L 374.07312 376.918292 
z
" style="fill:#64b5cd;fill-opacity:0.5;stroke:#ffffff;stroke-linejoin:miter;stroke-width:0.626263;"/>
   </g>
   <g id="patch_52">
    <path clip-path="url(#p2dbc93a735)" d="M 379.751619 402.309375 
L 385.430119 402.309375 
L 385.430119 386.151413 
L 379.751619 386.151413 
z
" style="fill:#64b5cd;fill-opacity:0.5;stroke:#ffffff;stroke-linejoin:miter;stroke-width:0.626263;"/>
   </g>
   <g id="patch_53">
    <path clip-path="url(#p2dbc93a735)" d="M 385.430119 402.309375 
L 391.108618 402.309375 
L 391.108618 390.767974 
L 385.430119 390.767974 
z
" style="fill:#64b5cd;fill-opacity:0.5;stroke:#ffffff;stroke-linejoin:miter;stroke-width:0.626263;"/>
   </g>
   <g id="patch_54">
    <path clip-path="url(#p2dbc93a735)" d="M 391.108618 402.309375 
L 396.787117 402.309375 
L 396.787117 393.845681 
L 391.108618 393.845681 
z
" style="fill:#64b5cd;fill-opacity:0.5;stroke:#ffffff;stroke-linejoin:miter;stroke-width:0.626263;"/>
   </g>
   <g id="patch_55">
    <path clip-path="url(#p2dbc93a735)" d="M 396.787117 402.309375 
L 402.465617 402.309375 
L 402.465617 394.615107 
L 396.787117 394.615107 
z
" style="fill:#64b5cd;fill-opacity:0.5;stroke:#ffffff;stroke-linejoin:miter;stroke-width:0.626263;"/>
   </g>
   <g id="patch_56">
    <path clip-path="url(#p2dbc93a735)" d="M 402.465617 402.309375 
L 408.144116 402.309375 
L 408.144116 388.459693 
L 402.465617 388.459693 
z
" style="fill:#64b5cd;fill-opacity:0.5;stroke:#ffffff;stroke-linejoin:miter;stroke-width:0.626263;"/>
   </g>
   <g id="patch_57">
    <path clip-path="url(#p2dbc93a735)" d="M 408.144116 402.309375 
L 413.822616 402.309375 
L 413.822616 395.384534 
L 408.144116 395.384534 
z
" style="fill:#64b5cd;fill-opacity:0.5;stroke:#ffffff;stroke-linejoin:miter;stroke-width:0.626263;"/>
   </g>
   <g id="patch_58">
    <path clip-path="url(#p2dbc93a735)" d="M 413.822616 402.309375 
L 419.501115 402.309375 
L 419.501115 394.615107 
L 413.822616 394.615107 
z
" style="fill:#64b5cd;fill-opacity:0.5;stroke:#ffffff;stroke-linejoin:miter;stroke-width:0.626263;"/>
   </g>
   <g id="patch_59">
    <path clip-path="url(#p2dbc93a735)" d="M 419.501115 402.309375 
L 425.179614 402.309375 
L 425.179614 398.462241 
L 419.501115 398.462241 
z
" style="fill:#64b5cd;fill-opacity:0.5;stroke:#ffffff;stroke-linejoin:miter;stroke-width:0.626263;"/>
   </g>
   <g id="patch_60">
    <path clip-path="url(#p2dbc93a735)" d="M 425.179614 402.309375 
L 430.858114 402.309375 
L 430.858114 397.692814 
L 425.179614 397.692814 
z
" style="fill:#64b5cd;fill-opacity:0.5;stroke:#ffffff;stroke-linejoin:miter;stroke-width:0.626263;"/>
   </g>
   <g id="patch_61">
    <path clip-path="url(#p2dbc93a735)" d="M 430.858114 402.309375 
L 436.536613 402.309375 
L 436.536613 396.923388 
L 430.858114 396.923388 
z
" style="fill:#64b5cd;fill-opacity:0.5;stroke:#ffffff;stroke-linejoin:miter;stroke-width:0.626263;"/>
   </g>
   <g id="patch_62">
    <path clip-path="url(#p2dbc93a735)" d="M 436.536613 402.309375 
L 442.215112 402.309375 
L 442.215112 398.462241 
L 436.536613 398.462241 
z
" style="fill:#64b5cd;fill-opacity:0.5;stroke:#ffffff;stroke-linejoin:miter;stroke-width:0.626263;"/>
   </g>
   <g id="patch_63">
    <path clip-path="url(#p2dbc93a735)" d="M 442.215112 402.309375 
L 447.893612 402.309375 
L 447.893612 399.231668 
L 442.215112 399.231668 
z
" style="fill:#64b5cd;fill-opacity:0.5;stroke:#ffffff;stroke-linejoin:miter;stroke-width:0.626263;"/>
   </g>
   <g id="patch_64">
    <path clip-path="url(#p2dbc93a735)" d="M 447.893612 402.309375 
L 453.572111 402.309375 
L 453.572111 398.462241 
L 447.893612 398.462241 
z
" style="fill:#64b5cd;fill-opacity:0.5;stroke:#ffffff;stroke-linejoin:miter;stroke-width:0.626263;"/>
   </g>
   <g id="patch_65">
    <path clip-path="url(#p2dbc93a735)" d="M 453.572111 402.309375 
L 459.25061 402.309375 
L 459.25061 398.462241 
L 453.572111 398.462241 
z
" style="fill:#64b5cd;fill-opacity:0.5;stroke:#ffffff;stroke-linejoin:miter;stroke-width:0.626263;"/>
   </g>
   <g id="patch_66">
    <path clip-path="url(#p2dbc93a735)" d="M 459.25061 402.309375 
L 464.92911 402.309375 
L 464.92911 401.539948 
L 459.25061 401.539948 
z
" style="fill:#64b5cd;fill-opacity:0.5;stroke:#ffffff;stroke-linejoin:miter;stroke-width:0.626263;"/>
   </g>
   <g id="patch_67">
    <path clip-path="url(#p2dbc93a735)" d="M 464.92911 402.309375 
L 470.607609 402.309375 
L 470.607609 400.770521 
L 464.92911 400.770521 
z
" style="fill:#64b5cd;fill-opacity:0.5;stroke:#ffffff;stroke-linejoin:miter;stroke-width:0.626263;"/>
   </g>
   <g id="patch_68">
    <path clip-path="url(#p2dbc93a735)" d="M 470.607609 402.309375 
L 476.286108 402.309375 
L 476.286108 400.001095 
L 470.607609 400.001095 
z
" style="fill:#64b5cd;fill-opacity:0.5;stroke:#ffffff;stroke-linejoin:miter;stroke-width:0.626263;"/>
   </g>
   <g id="patch_69">
    <path clip-path="url(#p2dbc93a735)" d="M 476.286108 402.309375 
L 481.964608 402.309375 
L 481.964608 402.309375 
L 476.286108 402.309375 
z
" style="fill:#64b5cd;fill-opacity:0.5;stroke:#ffffff;stroke-linejoin:miter;stroke-width:0.626263;"/>
   </g>
   <g id="patch_70">
    <path clip-path="url(#p2dbc93a735)" d="M 481.964608 402.309375 
L 487.643107 402.309375 
L 487.643107 401.539948 
L 481.964608 401.539948 
z
" style="fill:#64b5cd;fill-opacity:0.5;stroke:#ffffff;stroke-linejoin:miter;stroke-width:0.626263;"/>
   </g>
   <g id="patch_71">
    <path clip-path="url(#p2dbc93a735)" d="M 487.643107 402.309375 
L 493.321606 402.309375 
L 493.321606 402.309375 
L 487.643107 402.309375 
z
" style="fill:#64b5cd;fill-opacity:0.5;stroke:#ffffff;stroke-linejoin:miter;stroke-width:0.626263;"/>
   </g>
   <g id="patch_72">
    <path clip-path="url(#p2dbc93a735)" d="M 493.321606 402.309375 
L 499.000106 402.309375 
L 499.000106 402.309375 
L 493.321606 402.309375 
z
" style="fill:#64b5cd;fill-opacity:0.5;stroke:#ffffff;stroke-linejoin:miter;stroke-width:0.626263;"/>
   </g>
   <g id="patch_73">
    <path clip-path="url(#p2dbc93a735)" d="M 499.000106 402.309375 
L 504.678605 402.309375 
L 504.678605 401.539948 
L 499.000106 401.539948 
z
" style="fill:#64b5cd;fill-opacity:0.5;stroke:#ffffff;stroke-linejoin:miter;stroke-width:0.626263;"/>
   </g>
   <g id="patch_74">
    <path clip-path="url(#p2dbc93a735)" d="M 504.678605 402.309375 
L 510.357104 402.309375 
L 510.357104 402.309375 
L 504.678605 402.309375 
z
" style="fill:#64b5cd;fill-opacity:0.5;stroke:#ffffff;stroke-linejoin:miter;stroke-width:0.626263;"/>
   </g>
   <g id="patch_75">
    <path clip-path="url(#p2dbc93a735)" d="M 510.357104 402.309375 
L 516.035604 402.309375 
L 516.035604 401.539948 
L 510.357104 401.539948 
z
" style="fill:#64b5cd;fill-opacity:0.5;stroke:#ffffff;stroke-linejoin:miter;stroke-width:0.626263;"/>
   </g>
   <g id="patch_76">
    <path clip-path="url(#p2dbc93a735)" d="M 516.035604 402.309375 
L 521.714103 402.309375 
L 521.714103 401.539948 
L 516.035604 401.539948 
z
" style="fill:#64b5cd;fill-opacity:0.5;stroke:#ffffff;stroke-linejoin:miter;stroke-width:0.626263;"/>
   </g>
   <g id="patch_77">
    <path clip-path="url(#p2dbc93a735)" d="M 521.714103 402.309375 
L 527.392602 402.309375 
L 527.392602 402.309375 
L 521.714103 402.309375 
z
" style="fill:#64b5cd;fill-opacity:0.5;stroke:#ffffff;stroke-linejoin:miter;stroke-width:0.626263;"/>
   </g>
   <g id="patch_78">
    <path clip-path="url(#p2dbc93a735)" d="M 527.392602 402.309375 
L 533.071102 402.309375 
L 533.071102 402.309375 
L 527.392602 402.309375 
z
" style="fill:#64b5cd;fill-opacity:0.5;stroke:#ffffff;stroke-linejoin:miter;stroke-width:0.626263;"/>
   </g>
   <g id="patch_79">
    <path clip-path="url(#p2dbc93a735)" d="M 533.071102 402.309375 
L 538.749601 402.309375 
L 538.749601 401.539948 
L 533.071102 401.539948 
z
" style="fill:#64b5cd;fill-opacity:0.5;stroke:#ffffff;stroke-linejoin:miter;stroke-width:0.626263;"/>
   </g>
   <g id="patch_80">
    <path clip-path="url(#p2dbc93a735)" d="M 538.749601 402.309375 
L 544.428101 402.309375 
L 544.428101 402.309375 
L 538.749601 402.309375 
z
" style="fill:#64b5cd;fill-opacity:0.5;stroke:#ffffff;stroke-linejoin:miter;stroke-width:0.626263;"/>
   </g>
   <g id="patch_81">
    <path clip-path="url(#p2dbc93a735)" d="M 544.428101 402.309375 
L 550.1066 402.309375 
L 550.1066 401.539948 
L 544.428101 401.539948 
z
" style="fill:#64b5cd;fill-opacity:0.5;stroke:#ffffff;stroke-linejoin:miter;stroke-width:0.626263;"/>
   </g>
   <g id="patch_82">
    <path clip-path="url(#p2dbc93a735)" d="M 550.1066 402.309375 
L 555.785099 402.309375 
L 555.785099 401.539948 
L 550.1066 401.539948 
z
" style="fill:#64b5cd;fill-opacity:0.5;stroke:#ffffff;stroke-linejoin:miter;stroke-width:0.626263;"/>
   </g>
   <g id="patch_83">
    <path clip-path="url(#p2dbc93a735)" d="M 555.785099 402.309375 
L 561.463599 402.309375 
L 561.463599 401.539948 
L 555.785099 401.539948 
z
" style="fill:#64b5cd;fill-opacity:0.5;stroke:#ffffff;stroke-linejoin:miter;stroke-width:0.626263;"/>
   </g>
   <g id="line2d_16">
    <path clip-path="url(#p2dbc93a735)" d="M 77.848011 402.305214 
L 88.044448 402.21335 
L 95.691776 401.934387 
L 103.339103 401.464436 
L 108.437322 400.96161 
L 113.53554 400.234803 
L 128.830195 397.704507 
L 133.928413 396.653861 
L 139.026632 395.343263 
L 141.575741 394.549289 
L 144.12485 393.631949 
L 146.673959 392.562145 
L 149.223068 391.309317 
L 151.772178 389.847303 
L 154.321287 388.159219 
L 156.870396 386.239105 
L 159.419505 384.092967 
L 161.968614 381.742118 
L 167.066833 376.582533 
L 172.165051 370.945081 
L 174.71416 367.803218 
L 177.263269 364.249829 
L 179.812379 360.113595 
L 182.361488 355.247808 
L 184.910597 349.544954 
L 187.459706 342.934691 
L 190.008815 335.381289 
L 192.557925 326.8884 
L 195.107034 317.505697 
L 197.656143 307.330718 
L 202.754361 285.226021 
L 218.049016 216.419295 
L 220.598126 204.026283 
L 223.147235 190.792823 
L 233.343671 135.05208 
L 235.892781 123.28584 
L 238.44189 113.33435 
L 240.990999 105.187256 
L 243.540108 98.527921 
L 246.089217 92.876595 
L 248.638327 87.782606 
L 251.187436 82.994959 
L 253.736545 78.558141 
L 256.285654 74.80414 
L 258.834763 72.237881 
L 261.383872 71.352072 
L 263.932982 72.45032 
L 266.482091 75.565666 
L 269.0312 80.508092 
L 271.580309 86.989385 
L 274.129418 94.728618 
L 276.678528 103.477972 
L 279.227637 112.991951 
L 284.325855 133.325748 
L 289.424073 154.566954 
L 294.522292 177.171555 
L 302.169619 212.305328 
L 304.718729 223.334835 
L 309.816947 244.052333 
L 322.562493 293.886861 
L 325.111602 302.994021 
L 327.660711 311.275726 
L 330.20982 318.59185 
L 332.75893 324.946748 
L 335.308039 330.47128 
L 337.857148 335.356514 
L 340.406257 339.774077 
L 342.955366 343.8249 
L 345.504476 347.539682 
L 348.053585 350.92143 
L 350.602694 353.994589 
L 355.700912 359.501063 
L 360.799131 364.632994 
L 365.897349 369.501331 
L 383.741113 385.740545 
L 386.290222 387.772735 
L 388.839332 389.472522 
L 391.388441 390.785305 
L 393.93755 391.709934 
L 396.486659 392.294649 
L 399.035768 392.624005 
L 409.232205 393.361473 
L 411.781314 393.762614 
L 416.879533 394.926917 
L 421.977751 396.224717 
L 427.075969 397.208647 
L 432.174188 397.846825 
L 439.821515 398.58341 
L 444.919734 398.910633 
L 455.11617 399.36146 
L 462.763498 400.083086 
L 470.410825 400.782971 
L 483.156371 401.678933 
L 490.803699 401.949038 
L 498.451026 401.972238 
L 518.8439 401.885034 
L 529.040337 402.021424 
L 541.785883 401.895052 
L 554.531428 401.781639 
L 564.727865 402.015757 
L 574.924302 402.253159 
L 585.120739 402.30687 
L 585.120739 402.30687 
" style="fill:none;stroke:#64b5cd;stroke-linecap:round;stroke-width:1.5;"/>
   </g>
   <g id="patch_84">
    <path d="M 52.484375 402.309375 
L 52.484375 21.789375 
" style="fill:none;stroke:#ffffff;stroke-linecap:square;stroke-linejoin:miter;stroke-width:0.8;"/>
   </g>
   <g id="patch_85">
    <path d="M 610.484375 402.309375 
L 610.484375 21.789375 
" style="fill:none;stroke:#ffffff;stroke-linecap:square;stroke-linejoin:miter;stroke-width:0.8;"/>
   </g>
   <g id="patch_86">
    <path d="M 52.484375 402.309375 
L 610.484375 402.309375 
" style="fill:none;stroke:#ffffff;stroke-linecap:square;stroke-linejoin:miter;stroke-width:0.8;"/>
   </g>
   <g id="patch_87">
    <path d="M 52.484375 21.789375 
L 610.484375 21.789375 
" style="fill:none;stroke:#ffffff;stroke-linecap:square;stroke-linejoin:miter;stroke-width:0.8;"/>
   </g>
   <g id="text_18">
    <!-- Lambda New - Distribution -->
    <g style="fill:#262626;" transform="translate(260.792188 15.789375)scale(0.12 -0.12)">
     <defs>
      <path d="M 469 0 
L 469 4581 
L 1075 4581 
L 1075 541 
L 3331 541 
L 3331 0 
L 469 0 
z
" id="ArialMT-4c" transform="scale(0.015625)"/>
      <path d="M 2588 409 
Q 2275 144 1986 34 
Q 1697 -75 1366 -75 
Q 819 -75 525 192 
Q 231 459 231 875 
Q 231 1119 342 1320 
Q 453 1522 633 1644 
Q 813 1766 1038 1828 
Q 1203 1872 1538 1913 
Q 2219 1994 2541 2106 
Q 2544 2222 2544 2253 
Q 2544 2597 2384 2738 
Q 2169 2928 1744 2928 
Q 1347 2928 1158 2789 
Q 969 2650 878 2297 
L 328 2372 
Q 403 2725 575 2942 
Q 747 3159 1072 3276 
Q 1397 3394 1825 3394 
Q 2250 3394 2515 3294 
Q 2781 3194 2906 3042 
Q 3031 2891 3081 2659 
Q 3109 2516 3109 2141 
L 3109 1391 
Q 3109 606 3145 398 
Q 3181 191 3288 0 
L 2700 0 
Q 2613 175 2588 409 
z
M 2541 1666 
Q 2234 1541 1622 1453 
Q 1275 1403 1131 1340 
Q 988 1278 909 1158 
Q 831 1038 831 891 
Q 831 666 1001 516 
Q 1172 366 1500 366 
Q 1825 366 2078 508 
Q 2331 650 2450 897 
Q 2541 1088 2541 1459 
L 2541 1666 
z
" id="ArialMT-61" transform="scale(0.015625)"/>
      <path d="M 422 0 
L 422 3319 
L 925 3319 
L 925 2853 
Q 1081 3097 1340 3245 
Q 1600 3394 1931 3394 
Q 2300 3394 2536 3241 
Q 2772 3088 2869 2813 
Q 3263 3394 3894 3394 
Q 4388 3394 4653 3120 
Q 4919 2847 4919 2278 
L 4919 0 
L 4359 0 
L 4359 2091 
Q 4359 2428 4304 2576 
Q 4250 2725 4106 2815 
Q 3963 2906 3769 2906 
Q 3419 2906 3187 2673 
Q 2956 2441 2956 1928 
L 2956 0 
L 2394 0 
L 2394 2156 
Q 2394 2531 2256 2718 
Q 2119 2906 1806 2906 
Q 1569 2906 1367 2781 
Q 1166 2656 1075 2415 
Q 984 2175 984 1722 
L 984 0 
L 422 0 
z
" id="ArialMT-6d" transform="scale(0.015625)"/>
      <path d="M 941 0 
L 419 0 
L 419 4581 
L 981 4581 
L 981 2947 
Q 1338 3394 1891 3394 
Q 2197 3394 2470 3270 
Q 2744 3147 2920 2923 
Q 3097 2700 3197 2384 
Q 3297 2069 3297 1709 
Q 3297 856 2875 390 
Q 2453 -75 1863 -75 
Q 1275 -75 941 416 
L 941 0 
z
M 934 1684 
Q 934 1088 1097 822 
Q 1363 388 1816 388 
Q 2184 388 2453 708 
Q 2722 1028 2722 1663 
Q 2722 2313 2464 2622 
Q 2206 2931 1841 2931 
Q 1472 2931 1203 2611 
Q 934 2291 934 1684 
z
" id="ArialMT-62" transform="scale(0.015625)"/>
      <path d="M 2575 0 
L 2575 419 
Q 2259 -75 1647 -75 
Q 1250 -75 917 144 
Q 584 363 401 755 
Q 219 1147 219 1656 
Q 219 2153 384 2558 
Q 550 2963 881 3178 
Q 1213 3394 1622 3394 
Q 1922 3394 2156 3267 
Q 2391 3141 2538 2938 
L 2538 4581 
L 3097 4581 
L 3097 0 
L 2575 0 
z
M 797 1656 
Q 797 1019 1065 703 
Q 1334 388 1700 388 
Q 2069 388 2326 689 
Q 2584 991 2584 1609 
Q 2584 2291 2321 2609 
Q 2059 2928 1675 2928 
Q 1300 2928 1048 2622 
Q 797 2316 797 1656 
z
" id="ArialMT-64" transform="scale(0.015625)"/>
      <path id="ArialMT-20" transform="scale(0.015625)"/>
      <path d="M 488 0 
L 488 4581 
L 1109 4581 
L 3516 984 
L 3516 4581 
L 4097 4581 
L 4097 0 
L 3475 0 
L 1069 3600 
L 1069 0 
L 488 0 
z
" id="ArialMT-4e" transform="scale(0.015625)"/>
      <path d="M 1034 0 
L 19 3319 
L 600 3319 
L 1128 1403 
L 1325 691 
Q 1338 744 1497 1375 
L 2025 3319 
L 2603 3319 
L 3100 1394 
L 3266 759 
L 3456 1400 
L 4025 3319 
L 4572 3319 
L 3534 0 
L 2950 0 
L 2422 1988 
L 2294 2553 
L 1622 0 
L 1034 0 
z
" id="ArialMT-77" transform="scale(0.015625)"/>
      <path d="M 203 1375 
L 203 1941 
L 1931 1941 
L 1931 1375 
L 203 1375 
z
" id="ArialMT-2d" transform="scale(0.015625)"/>
      <path d="M 416 0 
L 416 3319 
L 922 3319 
L 922 2816 
Q 1116 3169 1280 3281 
Q 1444 3394 1641 3394 
Q 1925 3394 2219 3213 
L 2025 2691 
Q 1819 2813 1613 2813 
Q 1428 2813 1281 2702 
Q 1134 2591 1072 2394 
Q 978 2094 978 1738 
L 978 0 
L 416 0 
z
" id="ArialMT-72" transform="scale(0.015625)"/>
      <path d="M 2597 0 
L 2597 488 
Q 2209 -75 1544 -75 
Q 1250 -75 995 37 
Q 741 150 617 320 
Q 494 491 444 738 
Q 409 903 409 1263 
L 409 3319 
L 972 3319 
L 972 1478 
Q 972 1038 1006 884 
Q 1059 663 1231 536 
Q 1403 409 1656 409 
Q 1909 409 2131 539 
Q 2353 669 2445 892 
Q 2538 1116 2538 1541 
L 2538 3319 
L 3100 3319 
L 3100 0 
L 2597 0 
z
" id="ArialMT-75" transform="scale(0.015625)"/>
      <path d="M 213 1659 
Q 213 2581 725 3025 
Q 1153 3394 1769 3394 
Q 2453 3394 2887 2945 
Q 3322 2497 3322 1706 
Q 3322 1066 3130 698 
Q 2938 331 2570 128 
Q 2203 -75 1769 -75 
Q 1072 -75 642 372 
Q 213 819 213 1659 
z
M 791 1659 
Q 791 1022 1069 705 
Q 1347 388 1769 388 
Q 2188 388 2466 706 
Q 2744 1025 2744 1678 
Q 2744 2294 2464 2611 
Q 2184 2928 1769 2928 
Q 1347 2928 1069 2612 
Q 791 2297 791 1659 
z
" id="ArialMT-6f" transform="scale(0.015625)"/>
     </defs>
     <use xlink:href="#ArialMT-4c"/>
     <use x="55.615234" xlink:href="#ArialMT-61"/>
     <use x="111.230469" xlink:href="#ArialMT-6d"/>
     <use x="194.53125" xlink:href="#ArialMT-62"/>
     <use x="250.146484" xlink:href="#ArialMT-64"/>
     <use x="305.761719" xlink:href="#ArialMT-61"/>
     <use x="361.376953" xlink:href="#ArialMT-20"/>
     <use x="389.160156" xlink:href="#ArialMT-4e"/>
     <use x="461.376953" xlink:href="#ArialMT-65"/>
     <use x="516.992188" xlink:href="#ArialMT-77"/>
     <use x="589.208984" xlink:href="#ArialMT-20"/>
     <use x="616.992188" xlink:href="#ArialMT-2d"/>
     <use x="650.292969" xlink:href="#ArialMT-20"/>
     <use x="678.076172" xlink:href="#ArialMT-44"/>
     <use x="750.292969" xlink:href="#ArialMT-69"/>
     <use x="772.509766" xlink:href="#ArialMT-73"/>
     <use x="822.509766" xlink:href="#ArialMT-74"/>
     <use x="850.292969" xlink:href="#ArialMT-72"/>
     <use x="883.59375" xlink:href="#ArialMT-69"/>
     <use x="905.810547" xlink:href="#ArialMT-62"/>
     <use x="961.425781" xlink:href="#ArialMT-75"/>
     <use x="1017.041016" xlink:href="#ArialMT-74"/>
     <use x="1044.824219" xlink:href="#ArialMT-69"/>
     <use x="1067.041016" xlink:href="#ArialMT-6f"/>
     <use x="1122.65625" xlink:href="#ArialMT-6e"/>
    </g>
   </g>
   <g id="legend_1">
    <g id="patch_88">
     <path d="M 507.275 43.934687 
L 603.484375 43.934687 
Q 605.484375 43.934687 605.484375 41.934687 
L 605.484375 28.789375 
Q 605.484375 26.789375 603.484375 26.789375 
L 507.275 26.789375 
Q 505.275 26.789375 505.275 28.789375 
L 505.275 41.934687 
Q 505.275 43.934687 507.275 43.934687 
z
" style="fill:#e6e6e6;opacity:0.8;stroke:#cccccc;stroke-linejoin:miter;"/>
    </g>
    <g id="patch_89">
     <path d="M 509.275 37.947187 
L 529.275 37.947187 
L 529.275 30.947187 
L 509.275 30.947187 
z
" style="fill:#64b5cd;fill-opacity:0.5;stroke:#ffffff;stroke-linejoin:miter;stroke-width:0.626263;"/>
    </g>
    <g id="text_19">
     <!-- mean =  9.107 -->
     <g style="fill:#262626;" transform="translate(537.275 37.947187)scale(0.1 -0.1)">
      <defs>
       <path d="M 3381 2694 
L 356 2694 
L 356 3219 
L 3381 3219 
L 3381 2694 
z
M 3381 1303 
L 356 1303 
L 356 1828 
L 3381 1828 
L 3381 1303 
z
" id="ArialMT-3d" transform="scale(0.015625)"/>
       <path d="M 350 1059 
L 891 1109 
Q 959 728 1153 556 
Q 1347 384 1650 384 
Q 1909 384 2104 503 
Q 2300 622 2425 820 
Q 2550 1019 2634 1356 
Q 2719 1694 2719 2044 
Q 2719 2081 2716 2156 
Q 2547 1888 2255 1720 
Q 1963 1553 1622 1553 
Q 1053 1553 659 1965 
Q 266 2378 266 3053 
Q 266 3750 677 4175 
Q 1088 4600 1706 4600 
Q 2153 4600 2523 4359 
Q 2894 4119 3086 3673 
Q 3278 3228 3278 2384 
Q 3278 1506 3087 986 
Q 2897 466 2520 194 
Q 2144 -78 1638 -78 
Q 1100 -78 759 220 
Q 419 519 350 1059 
z
M 2653 3081 
Q 2653 3566 2395 3850 
Q 2138 4134 1775 4134 
Q 1400 4134 1122 3828 
Q 844 3522 844 3034 
Q 844 2597 1108 2323 
Q 1372 2050 1759 2050 
Q 2150 2050 2401 2323 
Q 2653 2597 2653 3081 
z
" id="ArialMT-39" transform="scale(0.015625)"/>
      </defs>
      <use xlink:href="#ArialMT-6d"/>
      <use x="83.300781" xlink:href="#ArialMT-65"/>
      <use x="138.916016" xlink:href="#ArialMT-61"/>
      <use x="194.53125" xlink:href="#ArialMT-6e"/>
      <use x="250.146484" xlink:href="#ArialMT-20"/>
      <use x="277.929688" xlink:href="#ArialMT-3d"/>
      <use x="336.328125" xlink:href="#ArialMT-20"/>
      <use x="364.111328" xlink:href="#ArialMT-20"/>
      <use x="391.894531" xlink:href="#ArialMT-39"/>
      <use x="447.509766" xlink:href="#ArialMT-2e"/>
      <use x="475.292969" xlink:href="#ArialMT-31"/>
      <use x="530.908203" xlink:href="#ArialMT-30"/>
      <use x="586.523438" xlink:href="#ArialMT-37"/>
     </g>
    </g>
   </g>
  </g>
 </g>
 <defs>
  <clipPath id="p2dbc93a735">
   <rect height="380.52" width="558" x="52.484375" y="21.789375"/>
  </clipPath>
 </defs>
</svg>
