<?xml version="1.0" encoding="utf-8" standalone="no"?>
<!DOCTYPE svg PUBLIC "-//W3C//DTD SVG 1.1//EN"
  "http://www.w3.org/Graphics/SVG/1.1/DTD/svg11.dtd">
<svg height="409.509375pt" version="1.1" viewBox="0 0 572.4 409.509375" width="572.4pt" xmlns="http://www.w3.org/2000/svg" xmlns:xlink="http://www.w3.org/1999/xlink">
 <metadata>
  <rdf:RDF xmlns:cc="http://creativecommons.org/ns#" xmlns:dc="http://purl.org/dc/elements/1.1/" xmlns:rdf="http://www.w3.org/1999/02/22-rdf-syntax-ns#">
   <cc:Work>
    <dc:type rdf:resource="http://purl.org/dc/dcmitype/StillImage"/>
    <dc:date>2021-07-27T21:47:45.489809</dc:date>
    <dc:format>image/svg+xml</dc:format>
    <dc:creator>
     <cc:Agent>
      <dc:title>Matplotlib v3.4.2, https://matplotlib.org/</dc:title>
     </cc:Agent>
    </dc:creator>
   </cc:Work>
  </rdf:RDF>
 </metadata>
 <defs>
  <style type="text/css">*{stroke-linecap:butt;stroke-linejoin:round;}</style>
 </defs>
 <g id="figure_1">
  <g id="patch_1">
   <path d="M 0 409.509375 
L 572.4 409.509375 
L 572.4 0 
L 0 0 
z
" style="fill:#ffffff;"/>
  </g>
  <g id="axes_1">
   <g id="patch_2">
    <path d="M 7.2 402.309375 
L 565.2 402.309375 
L 565.2 21.789375 
L 7.2 21.789375 
z
" style="fill:#e6e6e6;"/>
   </g>
   <g id="matplotlib.axis_1"/>
   <g id="matplotlib.axis_2"/>
   <g id="PolyCollection_1">
    <defs>
     <path d="M 160.93825 -24.496364 
L 160.93825 -33.965495 
L 161.679733 -33.995449 
L 162.421217 -34.086971 
L 163.1627 -34.250742 
L 163.904184 -34.482237 
L 164.645667 -34.786775 
L 165.387151 -35.164827 
L 166.128635 -35.602839 
L 166.870118 -36.123111 
L 167.611602 -36.721617 
L 168.353085 -37.388169 
L 169.094569 -38.118814 
L 169.836053 -38.932906 
L 170.577536 -39.813719 
L 171.31902 -40.798238 
L 172.060503 -41.858738 
L 172.801987 -43.027525 
L 173.543471 -44.278943 
L 174.284954 -45.617429 
L 175.026438 -47.041333 
L 175.767921 -48.550687 
L 176.509405 -50.150116 
L 177.250888 -51.845445 
L 177.992372 -53.638145 
L 178.733856 -55.504622 
L 179.475339 -57.480297 
L 180.216823 -59.538618 
L 180.958306 -61.678266 
L 181.69979 -63.910088 
L 182.441274 -66.195462 
L 183.182757 -68.581106 
L 183.924241 -71.027434 
L 184.665724 -73.548481 
L 185.407208 -76.129681 
L 186.148692 -78.791438 
L 186.890175 -81.520479 
L 187.631659 -84.276205 
L 188.373142 -87.093252 
L 189.114626 -89.953258 
L 189.85611 -92.905194 
L 190.597593 -95.915458 
L 191.339077 -98.971274 
L 192.08056 -102.090204 
L 192.822044 -105.266719 
L 193.563527 -108.489676 
L 194.305011 -111.786179 
L 195.046495 -115.196199 
L 195.787978 -118.639186 
L 196.529462 -122.198962 
L 197.270945 -125.840688 
L 198.012429 -129.571771 
L 198.753913 -133.414493 
L 199.495396 -137.348602 
L 200.23688 -141.410708 
L 200.978363 -145.565133 
L 201.719847 -149.879853 
L 202.461331 -154.274299 
L 203.202814 -158.774508 
L 203.944298 -163.437994 
L 204.685781 -168.171528 
L 205.427265 -173.006079 
L 206.168748 -177.942273 
L 206.910232 -182.949944 
L 207.651716 -188.018063 
L 208.393199 -193.102934 
L 209.134683 -198.251816 
L 209.876166 -203.390847 
L 210.61765 -208.545976 
L 211.359134 -213.64578 
L 212.100617 -218.713609 
L 212.842101 -223.691297 
L 213.583584 -228.60462 
L 214.325068 -233.44386 
L 215.066552 -238.193101 
L 215.808035 -242.833573 
L 216.549519 -247.359835 
L 217.291002 -251.779525 
L 218.032486 -256.140218 
L 218.773969 -260.379268 
L 219.515453 -264.528248 
L 220.256937 -268.564666 
L 220.99842 -272.541292 
L 221.739904 -276.446282 
L 222.481387 -280.300369 
L 223.222871 -284.12659 
L 223.964355 -287.896303 
L 224.705838 -291.646444 
L 225.447322 -295.351607 
L 226.188805 -299.026556 
L 226.930289 -302.681232 
L 227.671773 -306.311521 
L 228.413256 -309.891055 
L 229.15474 -313.405688 
L 229.896223 -316.882474 
L 230.637707 -320.274748 
L 231.379191 -323.599247 
L 232.120674 -326.800701 
L 232.862158 -329.949074 
L 233.603641 -332.960429 
L 234.345125 -335.809734 
L 235.086608 -338.536782 
L 235.828092 -341.101337 
L 236.569576 -343.551866 
L 237.311059 -345.825077 
L 238.052543 -347.928375 
L 238.794026 -349.850218 
L 239.53551 -351.632451 
L 240.276994 -353.250428 
L 241.018477 -354.752675 
L 241.759961 -356.146104 
L 242.501444 -357.421051 
L 243.242928 -358.5561 
L 243.984412 -359.559917 
L 244.725895 -360.547996 
L 245.467379 -361.451427 
L 246.208862 -362.240256 
L 246.950346 -363.011856 
L 247.691829 -363.748304 
L 248.433313 -364.449534 
L 249.174797 -365.092806 
L 249.91628 -365.710702 
L 250.657764 -366.299564 
L 251.399247 -366.852202 
L 252.140731 -367.414054 
L 252.882215 -367.90568 
L 253.623698 -368.371706 
L 254.365182 -368.776537 
L 255.106665 -369.140177 
L 255.848149 -369.453599 
L 256.589633 -369.720414 
L 257.331116 -370.006361 
L 258.0726 -370.194177 
L 258.814083 -370.340588 
L 259.555567 -370.40452 
L 260.29705 -370.423636 
L 261.038534 -370.399034 
L 261.780018 -370.324083 
L 262.521501 -370.168444 
L 263.262985 -369.941257 
L 264.004468 -369.671448 
L 264.745952 -369.3261 
L 265.487436 -368.90419 
L 266.228919 -368.410479 
L 266.970403 -367.822701 
L 267.711886 -367.136509 
L 268.45337 -366.389804 
L 269.194854 -365.524637 
L 269.936337 -364.568564 
L 270.677821 -363.477848 
L 271.419304 -362.313659 
L 272.160788 -361.016314 
L 272.902272 -359.620046 
L 273.643755 -358.096393 
L 274.385239 -356.462986 
L 275.126722 -354.718335 
L 275.868206 -352.877426 
L 276.609689 -350.979165 
L 277.351173 -348.973484 
L 278.092657 -346.94634 
L 278.83414 -344.811231 
L 279.575624 -342.649493 
L 280.317107 -340.494402 
L 281.058591 -338.294484 
L 281.800075 -336.087096 
L 282.541558 -333.896438 
L 283.283042 -331.742237 
L 284.024525 -329.626009 
L 284.766009 -327.572791 
L 285.507493 -325.550131 
L 286.248976 -323.595699 
L 286.99046 -321.733107 
L 287.731943 -319.909992 
L 288.473427 -318.144158 
L 289.21491 -316.478514 
L 289.956394 -314.851126 
L 290.697878 -313.324755 
L 291.439361 -311.846482 
L 292.180845 -310.427712 
L 292.922328 -309.040398 
L 293.663812 -307.658493 
L 294.405296 -306.262248 
L 295.146779 -304.948443 
L 295.888263 -303.564323 
L 296.629746 -302.167599 
L 297.37123 -300.723638 
L 298.112714 -299.235528 
L 298.854197 -297.699798 
L 299.595681 -296.058093 
L 300.337164 -294.370719 
L 301.078648 -292.572714 
L 301.820131 -290.676755 
L 302.561615 -288.686357 
L 303.303099 -286.580448 
L 304.044582 -284.360985 
L 304.786066 -282.051576 
L 305.527549 -279.623468 
L 306.269033 -277.077697 
L 307.010517 -274.464272 
L 307.752 -271.802102 
L 308.493484 -269.044838 
L 309.234967 -266.246055 
L 309.976451 -263.356475 
L 310.717935 -260.433833 
L 311.459418 -257.455139 
L 312.200902 -254.43252 
L 312.942385 -251.356879 
L 313.683869 -248.261979 
L 314.425353 -245.165311 
L 315.166836 -242.056482 
L 315.90832 -238.926259 
L 316.649803 -235.82942 
L 317.391287 -232.709169 
L 318.13277 -229.619551 
L 318.874254 -226.530996 
L 319.615738 -223.476556 
L 320.357221 -220.428723 
L 321.098705 -217.452893 
L 321.840188 -214.510426 
L 322.581672 -211.619404 
L 323.323156 -208.808025 
L 324.064639 -206.038685 
L 324.806123 -203.326054 
L 325.547606 -200.69082 
L 326.28909 -198.145691 
L 327.030574 -195.659804 
L 327.772057 -193.304502 
L 328.513541 -190.9919 
L 329.255024 -188.721253 
L 329.996508 -186.541897 
L 330.737991 -184.390769 
L 331.479475 -182.309582 
L 332.220959 -180.284856 
L 332.962442 -178.259991 
L 333.703926 -176.25072 
L 334.445409 -174.272031 
L 335.186893 -172.279491 
L 335.928377 -170.270217 
L 336.66986 -168.257942 
L 337.411344 -166.230467 
L 338.152827 -164.182955 
L 338.894311 -162.088478 
L 339.635795 -159.923391 
L 340.377278 -157.772093 
L 341.118762 -155.605369 
L 341.860245 -153.418455 
L 342.601729 -151.225081 
L 343.343212 -149.041178 
L 344.084696 -146.827141 
L 344.82618 -144.634479 
L 345.567663 -142.44259 
L 346.309147 -140.27169 
L 347.05063 -138.126767 
L 347.792114 -135.990477 
L 348.533598 -133.894729 
L 349.275081 -131.828237 
L 350.016565 -129.776311 
L 350.758048 -127.759339 
L 351.499532 -125.799839 
L 352.241016 -123.874231 
L 352.982499 -121.947331 
L 353.723983 -120.032555 
L 354.465466 -118.143332 
L 355.20695 -116.249595 
L 355.948434 -114.390639 
L 356.689917 -112.529452 
L 357.431401 -110.698607 
L 358.172884 -108.87608 
L 358.914368 -107.067485 
L 359.655851 -105.292562 
L 360.397335 -103.549497 
L 361.138819 -101.823001 
L 361.880302 -100.139252 
L 362.621786 -98.485962 
L 363.363269 -96.865742 
L 364.104753 -95.28918 
L 364.846237 -93.757333 
L 365.58772 -92.277165 
L 366.329204 -90.843731 
L 367.070687 -89.468726 
L 367.812171 -88.141728 
L 368.553655 -86.868245 
L 369.295138 -85.641605 
L 370.036622 -84.464596 
L 370.778105 -83.355738 
L 371.519589 -82.278686 
L 372.261072 -81.22984 
L 373.002556 -80.2437 
L 373.74404 -79.27621 
L 374.485523 -78.332479 
L 375.227007 -77.422983 
L 375.96849 -76.533172 
L 376.709974 -75.647868 
L 377.451458 -74.793835 
L 378.192941 -73.963283 
L 378.934425 -73.141661 
L 379.675908 -72.31813 
L 380.417392 -71.495399 
L 381.158876 -70.670785 
L 381.900359 -69.837303 
L 382.641843 -69.018468 
L 383.383326 -68.182351 
L 384.12481 -67.354757 
L 384.866293 -66.511386 
L 385.607777 -65.650225 
L 386.349261 -64.783102 
L 387.090744 -63.888775 
L 387.832228 -63.001113 
L 388.573711 -62.100693 
L 389.315195 -61.188837 
L 390.056679 -60.268761 
L 390.798162 -59.342602 
L 391.539646 -58.40527 
L 392.281129 -57.46736 
L 393.022613 -56.53858 
L 393.764097 -55.628133 
L 394.50558 -54.724258 
L 395.247064 -53.861185 
L 395.988547 -53.019326 
L 396.730031 -52.215408 
L 397.471515 -51.449019 
L 398.212998 -50.733602 
L 398.954482 -50.067583 
L 399.695965 -49.446681 
L 400.437449 -48.878479 
L 401.178932 -48.358362 
L 401.920416 -47.907267 
L 402.6619 -47.514586 
L 403.403383 -47.165937 
L 404.144867 -46.866568 
L 404.88635 -46.60346 
L 405.627834 -46.385995 
L 406.369318 -46.220397 
L 407.110801 -46.069601 
L 407.852285 -45.942724 
L 408.593768 -45.833754 
L 409.335252 -45.735065 
L 410.076736 -45.655566 
L 410.818219 -45.566029 
L 411.559703 -45.492595 
L 412.301186 -45.398795 
L 413.04267 -45.302731 
L 413.784153 -45.19653 
L 414.525637 -45.088957 
L 415.267121 -44.965617 
L 416.008604 -44.834034 
L 416.750088 -44.684706 
L 417.491571 -44.531703 
L 418.233055 -44.359636 
L 418.974539 -44.166832 
L 419.716022 -43.960921 
L 420.457506 -43.747138 
L 421.198989 -43.517867 
L 421.940473 -43.265508 
L 422.681957 -43.006711 
L 423.42344 -42.728402 
L 424.164924 -42.443329 
L 424.906407 -42.140584 
L 425.647891 -41.820658 
L 426.389374 -41.489957 
L 427.130858 -41.135197 
L 427.872342 -40.77274 
L 428.613825 -40.405972 
L 429.355309 -40.021979 
L 430.096792 -39.624574 
L 430.838276 -39.21682 
L 431.57976 -38.797577 
L 432.321243 -38.369859 
L 433.062727 -37.928251 
L 433.80421 -37.482145 
L 434.545694 -37.039356 
L 435.287178 -36.580057 
L 436.028661 -36.124413 
L 436.770145 -35.660534 
L 437.511628 -35.200027 
L 438.253112 -34.732023 
L 438.994595 -34.267194 
L 439.736079 -33.799536 
L 440.477563 -33.340961 
L 441.219046 -32.890473 
L 441.96053 -32.449743 
L 442.702013 -32.013325 
L 443.443497 -31.596517 
L 444.184981 -31.19435 
L 444.926464 -30.802933 
L 445.667948 -30.436502 
L 446.409431 -30.082175 
L 447.150915 -29.752882 
L 447.892399 -29.448637 
L 448.633882 -29.170477 
L 449.375366 -28.912696 
L 450.116849 -28.681157 
L 450.858333 -28.466451 
L 451.599817 -28.267644 
L 452.3413 -28.097614 
L 453.082784 -27.944757 
L 453.824267 -27.808249 
L 454.565751 -27.687773 
L 455.307234 -27.573909 
L 456.048718 -27.47854 
L 456.790202 -27.394711 
L 457.531685 -27.318786 
L 458.273169 -27.253935 
L 459.014652 -27.189229 
L 459.756136 -27.134078 
L 460.49762 -27.075933 
L 461.239103 -27.030944 
L 461.980587 -26.982061 
L 462.72207 -26.943937 
L 463.463554 -26.909941 
L 464.205038 -26.882635 
L 464.946521 -26.855659 
L 465.688005 -26.839325 
L 466.429488 -26.819484 
L 467.170972 -26.810414 
L 467.912455 -26.803071 
L 468.653939 -26.802104 
L 469.395423 -26.80307 
L 470.136906 -26.809134 
L 470.87839 -26.817422 
L 471.619873 -26.827367 
L 472.361357 -26.838301 
L 473.102841 -26.847671 
L 473.844324 -26.858812 
L 474.585808 -26.86854 
L 475.327291 -26.876135 
L 476.068775 -26.880927 
L 476.810259 -26.880499 
L 477.551742 -26.876632 
L 478.293226 -26.870605 
L 479.034709 -26.857902 
L 479.776193 -26.842448 
L 480.517676 -26.819916 
L 481.25916 -26.794402 
L 482.000644 -26.763533 
L 482.742127 -26.727406 
L 483.483611 -26.684327 
L 484.225094 -26.638533 
L 484.966578 -26.585944 
L 485.708062 -26.53084 
L 486.449545 -26.469179 
L 487.191029 -26.40529 
L 487.932512 -26.335189 
L 488.673996 -26.263278 
L 489.41548 -26.187481 
L 490.156963 -26.108204 
L 490.898447 -26.025904 
L 491.63993 -25.943536 
L 492.381414 -25.855789 
L 493.122898 -25.769253 
L 493.864381 -25.682246 
L 494.605865 -25.595556 
L 495.347348 -25.509993 
L 496.088832 -25.424551 
L 496.830315 -25.344124 
L 497.571799 -25.267056 
L 498.313283 -25.192244 
L 499.054766 -25.124426 
L 499.79625 -25.061727 
L 500.537733 -25.002779 
L 501.279217 -24.952013 
L 502.020701 -24.907217 
L 502.762184 -24.86667 
L 503.503668 -24.830813 
L 504.245151 -24.805294 
L 504.986635 -24.78505 
L 505.728119 -24.769781 
L 506.469602 -24.759084 
L 507.211086 -24.7531 
L 507.952569 -24.751312 
L 508.694053 -24.752572 
L 509.435536 -24.756329 
L 510.17702 -24.762024 
L 510.918504 -24.769109 
L 511.659987 -24.777067 
L 512.401471 -24.783605 
L 513.142954 -24.790599 
L 513.884438 -24.799395 
L 514.625922 -24.80552 
L 515.367405 -24.812929 
L 516.108889 -24.82157 
L 516.850372 -24.829823 
L 517.591856 -24.833728 
L 518.33334 -24.839414 
L 519.074823 -24.844732 
L 519.816307 -24.850001 
L 520.55779 -24.85556 
L 521.299274 -24.861747 
L 522.040757 -24.868888 
L 522.782241 -24.877277 
L 523.523725 -24.887167 
L 524.265208 -24.898754 
L 525.006692 -24.912169 
L 525.748175 -24.92991 
L 526.489659 -24.947891 
L 527.231143 -24.967875 
L 527.972626 -24.989742 
L 528.71411 -25.013302 
L 529.455593 -25.038308 
L 530.197077 -25.064458 
L 530.938561 -25.091401 
L 531.680044 -25.118752 
L 532.421528 -25.146097 
L 533.163011 -25.173003 
L 533.904495 -25.199027 
L 534.645979 -25.223729 
L 535.387462 -25.246677 
L 536.128946 -25.267463 
L 536.870429 -25.285704 
L 537.611913 -25.301057 
L 538.353396 -25.313223 
L 539.09488 -25.321956 
L 539.836364 -25.327066 
L 539.836364 -24.496364 
L 539.836364 -24.496364 
L 539.09488 -24.496364 
L 538.353396 -24.496364 
L 537.611913 -24.496364 
L 536.870429 -24.496364 
L 536.128946 -24.496364 
L 535.387462 -24.496364 
L 534.645979 -24.496364 
L 533.904495 -24.496364 
L 533.163011 -24.496364 
L 532.421528 -24.496364 
L 531.680044 -24.496364 
L 530.938561 -24.496364 
L 530.197077 -24.496364 
L 529.455593 -24.496364 
L 528.71411 -24.496364 
L 527.972626 -24.496364 
L 527.231143 -24.496364 
L 526.489659 -24.496364 
L 525.748175 -24.496364 
L 525.006692 -24.496364 
L 524.265208 -24.496364 
L 523.523725 -24.496364 
L 522.782241 -24.496364 
L 522.040757 -24.496364 
L 521.299274 -24.496364 
L 520.55779 -24.496364 
L 519.816307 -24.496364 
L 519.074823 -24.496364 
L 518.33334 -24.496364 
L 517.591856 -24.496364 
L 516.850372 -24.496364 
L 516.108889 -24.496364 
L 515.367405 -24.496364 
L 514.625922 -24.496364 
L 513.884438 -24.496364 
L 513.142954 -24.496364 
L 512.401471 -24.496364 
L 511.659987 -24.496364 
L 510.918504 -24.496364 
L 510.17702 -24.496364 
L 509.435536 -24.496364 
L 508.694053 -24.496364 
L 507.952569 -24.496364 
L 507.211086 -24.496364 
L 506.469602 -24.496364 
L 505.728119 -24.496364 
L 504.986635 -24.496364 
L 504.245151 -24.496364 
L 503.503668 -24.496364 
L 502.762184 -24.496364 
L 502.020701 -24.496364 
L 501.279217 -24.496364 
L 500.537733 -24.496364 
L 499.79625 -24.496364 
L 499.054766 -24.496364 
L 498.313283 -24.496364 
L 497.571799 -24.496364 
L 496.830315 -24.496364 
L 496.088832 -24.496364 
L 495.347348 -24.496364 
L 494.605865 -24.496364 
L 493.864381 -24.496364 
L 493.122898 -24.496364 
L 492.381414 -24.496364 
L 491.63993 -24.496364 
L 490.898447 -24.496364 
L 490.156963 -24.496364 
L 489.41548 -24.496364 
L 488.673996 -24.496364 
L 487.932512 -24.496364 
L 487.191029 -24.496364 
L 486.449545 -24.496364 
L 485.708062 -24.496364 
L 484.966578 -24.496364 
L 484.225094 -24.496364 
L 483.483611 -24.496364 
L 482.742127 -24.496364 
L 482.000644 -24.496364 
L 481.25916 -24.496364 
L 480.517676 -24.496364 
L 479.776193 -24.496364 
L 479.034709 -24.496364 
L 478.293226 -24.496364 
L 477.551742 -24.496364 
L 476.810259 -24.496364 
L 476.068775 -24.496364 
L 475.327291 -24.496364 
L 474.585808 -24.496364 
L 473.844324 -24.496364 
L 473.102841 -24.496364 
L 472.361357 -24.496364 
L 471.619873 -24.496364 
L 470.87839 -24.496364 
L 470.136906 -24.496364 
L 469.395423 -24.496364 
L 468.653939 -24.496364 
L 467.912455 -24.496364 
L 467.170972 -24.496364 
L 466.429488 -24.496364 
L 465.688005 -24.496364 
L 464.946521 -24.496364 
L 464.205038 -24.496364 
L 463.463554 -24.496364 
L 462.72207 -24.496364 
L 461.980587 -24.496364 
L 461.239103 -24.496364 
L 460.49762 -24.496364 
L 459.756136 -24.496364 
L 459.014652 -24.496364 
L 458.273169 -24.496364 
L 457.531685 -24.496364 
L 456.790202 -24.496364 
L 456.048718 -24.496364 
L 455.307234 -24.496364 
L 454.565751 -24.496364 
L 453.824267 -24.496364 
L 453.082784 -24.496364 
L 452.3413 -24.496364 
L 451.599817 -24.496364 
L 450.858333 -24.496364 
L 450.116849 -24.496364 
L 449.375366 -24.496364 
L 448.633882 -24.496364 
L 447.892399 -24.496364 
L 447.150915 -24.496364 
L 446.409431 -24.496364 
L 445.667948 -24.496364 
L 444.926464 -24.496364 
L 444.184981 -24.496364 
L 443.443497 -24.496364 
L 442.702013 -24.496364 
L 441.96053 -24.496364 
L 441.219046 -24.496364 
L 440.477563 -24.496364 
L 439.736079 -24.496364 
L 438.994595 -24.496364 
L 438.253112 -24.496364 
L 437.511628 -24.496364 
L 436.770145 -24.496364 
L 436.028661 -24.496364 
L 435.287178 -24.496364 
L 434.545694 -24.496364 
L 433.80421 -24.496364 
L 433.062727 -24.496364 
L 432.321243 -24.496364 
L 431.57976 -24.496364 
L 430.838276 -24.496364 
L 430.096792 -24.496364 
L 429.355309 -24.496364 
L 428.613825 -24.496364 
L 427.872342 -24.496364 
L 427.130858 -24.496364 
L 426.389374 -24.496364 
L 425.647891 -24.496364 
L 424.906407 -24.496364 
L 424.164924 -24.496364 
L 423.42344 -24.496364 
L 422.681957 -24.496364 
L 421.940473 -24.496364 
L 421.198989 -24.496364 
L 420.457506 -24.496364 
L 419.716022 -24.496364 
L 418.974539 -24.496364 
L 418.233055 -24.496364 
L 417.491571 -24.496364 
L 416.750088 -24.496364 
L 416.008604 -24.496364 
L 415.267121 -24.496364 
L 414.525637 -24.496364 
L 413.784153 -24.496364 
L 413.04267 -24.496364 
L 412.301186 -24.496364 
L 411.559703 -24.496364 
L 410.818219 -24.496364 
L 410.076736 -24.496364 
L 409.335252 -24.496364 
L 408.593768 -24.496364 
L 407.852285 -24.496364 
L 407.110801 -24.496364 
L 406.369318 -24.496364 
L 405.627834 -24.496364 
L 404.88635 -24.496364 
L 404.144867 -24.496364 
L 403.403383 -24.496364 
L 402.6619 -24.496364 
L 401.920416 -24.496364 
L 401.178932 -24.496364 
L 400.437449 -24.496364 
L 399.695965 -24.496364 
L 398.954482 -24.496364 
L 398.212998 -24.496364 
L 397.471515 -24.496364 
L 396.730031 -24.496364 
L 395.988547 -24.496364 
L 395.247064 -24.496364 
L 394.50558 -24.496364 
L 393.764097 -24.496364 
L 393.022613 -24.496364 
L 392.281129 -24.496364 
L 391.539646 -24.496364 
L 390.798162 -24.496364 
L 390.056679 -24.496364 
L 389.315195 -24.496364 
L 388.573711 -24.496364 
L 387.832228 -24.496364 
L 387.090744 -24.496364 
L 386.349261 -24.496364 
L 385.607777 -24.496364 
L 384.866293 -24.496364 
L 384.12481 -24.496364 
L 383.383326 -24.496364 
L 382.641843 -24.496364 
L 381.900359 -24.496364 
L 381.158876 -24.496364 
L 380.417392 -24.496364 
L 379.675908 -24.496364 
L 378.934425 -24.496364 
L 378.192941 -24.496364 
L 377.451458 -24.496364 
L 376.709974 -24.496364 
L 375.96849 -24.496364 
L 375.227007 -24.496364 
L 374.485523 -24.496364 
L 373.74404 -24.496364 
L 373.002556 -24.496364 
L 372.261072 -24.496364 
L 371.519589 -24.496364 
L 370.778105 -24.496364 
L 370.036622 -24.496364 
L 369.295138 -24.496364 
L 368.553655 -24.496364 
L 367.812171 -24.496364 
L 367.070687 -24.496364 
L 366.329204 -24.496364 
L 365.58772 -24.496364 
L 364.846237 -24.496364 
L 364.104753 -24.496364 
L 363.363269 -24.496364 
L 362.621786 -24.496364 
L 361.880302 -24.496364 
L 361.138819 -24.496364 
L 360.397335 -24.496364 
L 359.655851 -24.496364 
L 358.914368 -24.496364 
L 358.172884 -24.496364 
L 357.431401 -24.496364 
L 356.689917 -24.496364 
L 355.948434 -24.496364 
L 355.20695 -24.496364 
L 354.465466 -24.496364 
L 353.723983 -24.496364 
L 352.982499 -24.496364 
L 352.241016 -24.496364 
L 351.499532 -24.496364 
L 350.758048 -24.496364 
L 350.016565 -24.496364 
L 349.275081 -24.496364 
L 348.533598 -24.496364 
L 347.792114 -24.496364 
L 347.05063 -24.496364 
L 346.309147 -24.496364 
L 345.567663 -24.496364 
L 344.82618 -24.496364 
L 344.084696 -24.496364 
L 343.343212 -24.496364 
L 342.601729 -24.496364 
L 341.860245 -24.496364 
L 341.118762 -24.496364 
L 340.377278 -24.496364 
L 339.635795 -24.496364 
L 338.894311 -24.496364 
L 338.152827 -24.496364 
L 337.411344 -24.496364 
L 336.66986 -24.496364 
L 335.928377 -24.496364 
L 335.186893 -24.496364 
L 334.445409 -24.496364 
L 333.703926 -24.496364 
L 332.962442 -24.496364 
L 332.220959 -24.496364 
L 331.479475 -24.496364 
L 330.737991 -24.496364 
L 329.996508 -24.496364 
L 329.255024 -24.496364 
L 328.513541 -24.496364 
L 327.772057 -24.496364 
L 327.030574 -24.496364 
L 326.28909 -24.496364 
L 325.547606 -24.496364 
L 324.806123 -24.496364 
L 324.064639 -24.496364 
L 323.323156 -24.496364 
L 322.581672 -24.496364 
L 321.840188 -24.496364 
L 321.098705 -24.496364 
L 320.357221 -24.496364 
L 319.615738 -24.496364 
L 318.874254 -24.496364 
L 318.13277 -24.496364 
L 317.391287 -24.496364 
L 316.649803 -24.496364 
L 315.90832 -24.496364 
L 315.166836 -24.496364 
L 314.425353 -24.496364 
L 313.683869 -24.496364 
L 312.942385 -24.496364 
L 312.200902 -24.496364 
L 311.459418 -24.496364 
L 310.717935 -24.496364 
L 309.976451 -24.496364 
L 309.234967 -24.496364 
L 308.493484 -24.496364 
L 307.752 -24.496364 
L 307.010517 -24.496364 
L 306.269033 -24.496364 
L 305.527549 -24.496364 
L 304.786066 -24.496364 
L 304.044582 -24.496364 
L 303.303099 -24.496364 
L 302.561615 -24.496364 
L 301.820131 -24.496364 
L 301.078648 -24.496364 
L 300.337164 -24.496364 
L 299.595681 -24.496364 
L 298.854197 -24.496364 
L 298.112714 -24.496364 
L 297.37123 -24.496364 
L 296.629746 -24.496364 
L 295.888263 -24.496364 
L 295.146779 -24.496364 
L 294.405296 -24.496364 
L 293.663812 -24.496364 
L 292.922328 -24.496364 
L 292.180845 -24.496364 
L 291.439361 -24.496364 
L 290.697878 -24.496364 
L 289.956394 -24.496364 
L 289.21491 -24.496364 
L 288.473427 -24.496364 
L 287.731943 -24.496364 
L 286.99046 -24.496364 
L 286.248976 -24.496364 
L 285.507493 -24.496364 
L 284.766009 -24.496364 
L 284.024525 -24.496364 
L 283.283042 -24.496364 
L 282.541558 -24.496364 
L 281.800075 -24.496364 
L 281.058591 -24.496364 
L 280.317107 -24.496364 
L 279.575624 -24.496364 
L 278.83414 -24.496364 
L 278.092657 -24.496364 
L 277.351173 -24.496364 
L 276.609689 -24.496364 
L 275.868206 -24.496364 
L 275.126722 -24.496364 
L 274.385239 -24.496364 
L 273.643755 -24.496364 
L 272.902272 -24.496364 
L 272.160788 -24.496364 
L 271.419304 -24.496364 
L 270.677821 -24.496364 
L 269.936337 -24.496364 
L 269.194854 -24.496364 
L 268.45337 -24.496364 
L 267.711886 -24.496364 
L 266.970403 -24.496364 
L 266.228919 -24.496364 
L 265.487436 -24.496364 
L 264.745952 -24.496364 
L 264.004468 -24.496364 
L 263.262985 -24.496364 
L 262.521501 -24.496364 
L 261.780018 -24.496364 
L 261.038534 -24.496364 
L 260.29705 -24.496364 
L 259.555567 -24.496364 
L 258.814083 -24.496364 
L 258.0726 -24.496364 
L 257.331116 -24.496364 
L 256.589633 -24.496364 
L 255.848149 -24.496364 
L 255.106665 -24.496364 
L 254.365182 -24.496364 
L 253.623698 -24.496364 
L 252.882215 -24.496364 
L 252.140731 -24.496364 
L 251.399247 -24.496364 
L 250.657764 -24.496364 
L 249.91628 -24.496364 
L 249.174797 -24.496364 
L 248.433313 -24.496364 
L 247.691829 -24.496364 
L 246.950346 -24.496364 
L 246.208862 -24.496364 
L 245.467379 -24.496364 
L 244.725895 -24.496364 
L 243.984412 -24.496364 
L 243.242928 -24.496364 
L 242.501444 -24.496364 
L 241.759961 -24.496364 
L 241.018477 -24.496364 
L 240.276994 -24.496364 
L 239.53551 -24.496364 
L 238.794026 -24.496364 
L 238.052543 -24.496364 
L 237.311059 -24.496364 
L 236.569576 -24.496364 
L 235.828092 -24.496364 
L 235.086608 -24.496364 
L 234.345125 -24.496364 
L 233.603641 -24.496364 
L 232.862158 -24.496364 
L 232.120674 -24.496364 
L 231.379191 -24.496364 
L 230.637707 -24.496364 
L 229.896223 -24.496364 
L 229.15474 -24.496364 
L 228.413256 -24.496364 
L 227.671773 -24.496364 
L 226.930289 -24.496364 
L 226.188805 -24.496364 
L 225.447322 -24.496364 
L 224.705838 -24.496364 
L 223.964355 -24.496364 
L 223.222871 -24.496364 
L 222.481387 -24.496364 
L 221.739904 -24.496364 
L 220.99842 -24.496364 
L 220.256937 -24.496364 
L 219.515453 -24.496364 
L 218.773969 -24.496364 
L 218.032486 -24.496364 
L 217.291002 -24.496364 
L 216.549519 -24.496364 
L 215.808035 -24.496364 
L 215.066552 -24.496364 
L 214.325068 -24.496364 
L 213.583584 -24.496364 
L 212.842101 -24.496364 
L 212.100617 -24.496364 
L 211.359134 -24.496364 
L 210.61765 -24.496364 
L 209.876166 -24.496364 
L 209.134683 -24.496364 
L 208.393199 -24.496364 
L 207.651716 -24.496364 
L 206.910232 -24.496364 
L 206.168748 -24.496364 
L 205.427265 -24.496364 
L 204.685781 -24.496364 
L 203.944298 -24.496364 
L 203.202814 -24.496364 
L 202.461331 -24.496364 
L 201.719847 -24.496364 
L 200.978363 -24.496364 
L 200.23688 -24.496364 
L 199.495396 -24.496364 
L 198.753913 -24.496364 
L 198.012429 -24.496364 
L 197.270945 -24.496364 
L 196.529462 -24.496364 
L 195.787978 -24.496364 
L 195.046495 -24.496364 
L 194.305011 -24.496364 
L 193.563527 -24.496364 
L 192.822044 -24.496364 
L 192.08056 -24.496364 
L 191.339077 -24.496364 
L 190.597593 -24.496364 
L 189.85611 -24.496364 
L 189.114626 -24.496364 
L 188.373142 -24.496364 
L 187.631659 -24.496364 
L 186.890175 -24.496364 
L 186.148692 -24.496364 
L 185.407208 -24.496364 
L 184.665724 -24.496364 
L 183.924241 -24.496364 
L 183.182757 -24.496364 
L 182.441274 -24.496364 
L 181.69979 -24.496364 
L 180.958306 -24.496364 
L 180.216823 -24.496364 
L 179.475339 -24.496364 
L 178.733856 -24.496364 
L 177.992372 -24.496364 
L 177.250888 -24.496364 
L 176.509405 -24.496364 
L 175.767921 -24.496364 
L 175.026438 -24.496364 
L 174.284954 -24.496364 
L 173.543471 -24.496364 
L 172.801987 -24.496364 
L 172.060503 -24.496364 
L 171.31902 -24.496364 
L 170.577536 -24.496364 
L 169.836053 -24.496364 
L 169.094569 -24.496364 
L 168.353085 -24.496364 
L 167.611602 -24.496364 
L 166.870118 -24.496364 
L 166.128635 -24.496364 
L 165.387151 -24.496364 
L 164.645667 -24.496364 
L 163.904184 -24.496364 
L 163.1627 -24.496364 
L 162.421217 -24.496364 
L 161.679733 -24.496364 
L 160.93825 -24.496364 
z
" id="mbf0949a72c" style="stroke:#4c72b0;stroke-opacity:0.5;"/>
    </defs>
    <g clip-path="url(#pd1ad01e678)">
     <use style="fill:#4c72b0;fill-opacity:0.5;stroke:#4c72b0;stroke-opacity:0.5;" x="0" xlink:href="#mbf0949a72c" y="409.509375"/>
    </g>
   </g>
   <g id="PolyCollection_2">
    <defs>
     <path d="M 32.563636 -24.496364 
L 32.563636 -25.512637 
L 33.461753 -25.508513 
L 34.359869 -25.499773 
L 35.257985 -25.486707 
L 36.156101 -25.469709 
L 37.054217 -25.451539 
L 37.952333 -25.429075 
L 38.85045 -25.404579 
L 39.748566 -25.378721 
L 40.646682 -25.352175 
L 41.544798 -25.325593 
L 42.442914 -25.299588 
L 43.34103 -25.273102 
L 44.239147 -25.250334 
L 45.137263 -25.229447 
L 46.035379 -25.210783 
L 46.933495 -25.194576 
L 47.831611 -25.180946 
L 48.729727 -25.169895 
L 49.627844 -25.161307 
L 50.52596 -25.15495 
L 51.424076 -25.151148 
L 52.322192 -25.151792 
L 53.220308 -25.152133 
L 54.118425 -25.153368 
L 55.016541 -25.155052 
L 55.914657 -25.156748 
L 56.812773 -25.158054 
L 57.710889 -25.157021 
L 58.609005 -25.155508 
L 59.507122 -25.154864 
L 60.405238 -25.152881 
L 61.303354 -25.149736 
L 62.20147 -25.145706 
L 63.099586 -25.141143 
L 63.997702 -25.136442 
L 64.895819 -25.132677 
L 65.793935 -25.130273 
L 66.692051 -25.128968 
L 67.590167 -25.129057 
L 68.488283 -25.132977 
L 69.3864 -25.139352 
L 70.284516 -25.146043 
L 71.182632 -25.154503 
L 72.080748 -25.166751 
L 72.978864 -25.177181 
L 73.87698 -25.19083 
L 74.775097 -25.205192 
L 75.673213 -25.226944 
L 76.571329 -25.2473 
L 77.469445 -25.269944 
L 78.367561 -25.293253 
L 79.265677 -25.319477 
L 80.163794 -25.353937 
L 81.06191 -25.390147 
L 81.960026 -25.439166 
L 82.858142 -25.490965 
L 83.756258 -25.549819 
L 84.654374 -25.622626 
L 85.552491 -25.706452 
L 86.450607 -25.799757 
L 87.348723 -25.904395 
L 88.246839 -26.018629 
L 89.144955 -26.150231 
L 90.043072 -26.288736 
L 90.941188 -26.438513 
L 91.839304 -26.598949 
L 92.73742 -26.77167 
L 93.635536 -26.950149 
L 94.533652 -27.134785 
L 95.431769 -27.319876 
L 96.329885 -27.509494 
L 97.228001 -27.69868 
L 98.126117 -27.885744 
L 99.024233 -28.073605 
L 99.922349 -28.257888 
L 100.820466 -28.439829 
L 101.718582 -28.626165 
L 102.616698 -28.813548 
L 103.514814 -29.001598 
L 104.41293 -29.188099 
L 105.311046 -29.376731 
L 106.209163 -29.57079 
L 107.107279 -29.769655 
L 108.005395 -29.978546 
L 108.903511 -30.190337 
L 109.801627 -30.408019 
L 110.699744 -30.628469 
L 111.59786 -30.865289 
L 112.495976 -31.094148 
L 113.394092 -31.33128 
L 114.292208 -31.561318 
L 115.190324 -31.784022 
L 116.088441 -32.014589 
L 116.986557 -32.231336 
L 117.884673 -32.434046 
L 118.782789 -32.624687 
L 119.680905 -32.812437 
L 120.579021 -32.988018 
L 121.477138 -33.153367 
L 122.375254 -33.309427 
L 123.27337 -33.465717 
L 124.171486 -33.627188 
L 125.069602 -33.787583 
L 125.967718 -33.964915 
L 126.865835 -34.148182 
L 127.763951 -34.352167 
L 128.662067 -34.588969 
L 129.560183 -34.842663 
L 130.458299 -35.120943 
L 131.356416 -35.444161 
L 132.254532 -35.798595 
L 133.152648 -36.173313 
L 134.050764 -36.592272 
L 134.94888 -37.04097 
L 135.846996 -37.517986 
L 136.745113 -38.018824 
L 137.643229 -38.549736 
L 138.541345 -39.099922 
L 139.439461 -39.678802 
L 140.337577 -40.267748 
L 141.235693 -40.871941 
L 142.13381 -41.485764 
L 143.031926 -42.109539 
L 143.930042 -42.733945 
L 144.828158 -43.365939 
L 145.726274 -43.98566 
L 146.62439 -44.609641 
L 147.522507 -45.236234 
L 148.420623 -45.846747 
L 149.318739 -46.460178 
L 150.216855 -47.062482 
L 151.114971 -47.654974 
L 152.013088 -48.255279 
L 152.911204 -48.838673 
L 153.80932 -49.427314 
L 154.707436 -50.018956 
L 155.605552 -50.620936 
L 156.503668 -51.239554 
L 157.401785 -51.873927 
L 158.299901 -52.525067 
L 159.198017 -53.197224 
L 160.096133 -53.91062 
L 160.994249 -54.669458 
L 161.892365 -55.457644 
L 162.790482 -56.281709 
L 163.688598 -57.171731 
L 164.586714 -58.109838 
L 165.48483 -59.108243 
L 166.382946 -60.151884 
L 167.281062 -61.233785 
L 168.179179 -62.369235 
L 169.077295 -63.575051 
L 169.975411 -64.807139 
L 170.873527 -66.066125 
L 171.771643 -67.376657 
L 172.66976 -68.737484 
L 173.567876 -70.13369 
L 174.465992 -71.549377 
L 175.364108 -73.003028 
L 176.262224 -74.516918 
L 177.16034 -76.050232 
L 178.058457 -77.637701 
L 178.956573 -79.240108 
L 179.854689 -80.885086 
L 180.752805 -82.579435 
L 181.650921 -84.318921 
L 182.549037 -86.096416 
L 183.447154 -87.94901 
L 184.34527 -89.871976 
L 185.243386 -91.847391 
L 186.141502 -93.879996 
L 187.039618 -95.990631 
L 187.937735 -98.158739 
L 188.835851 -100.376449 
L 189.733967 -102.653184 
L 190.632083 -104.964959 
L 191.530199 -107.370571 
L 192.428315 -109.81202 
L 193.326432 -112.305274 
L 194.224548 -114.837857 
L 195.122664 -117.385571 
L 196.02078 -119.959789 
L 196.918896 -122.565059 
L 197.817012 -125.17235 
L 198.715129 -127.749692 
L 199.613245 -130.343802 
L 200.511361 -132.923926 
L 201.409477 -135.478612 
L 202.307593 -138.053107 
L 203.205709 -140.586943 
L 204.103826 -143.14182 
L 205.001942 -145.660864 
L 205.900058 -148.18984 
L 206.798174 -150.730172 
L 207.69629 -153.297428 
L 208.594407 -155.881306 
L 209.492523 -158.484583 
L 210.390639 -161.139813 
L 211.288755 -163.827624 
L 212.186871 -166.565307 
L 213.084987 -169.395169 
L 213.983104 -172.302018 
L 214.88122 -175.249033 
L 215.779336 -178.265629 
L 216.677452 -181.383517 
L 217.575568 -184.587979 
L 218.473684 -187.8533 
L 219.371801 -191.235085 
L 220.269917 -194.668482 
L 221.168033 -198.253496 
L 222.066149 -201.92986 
L 222.964265 -205.705614 
L 223.862381 -209.57779 
L 224.760498 -213.57495 
L 225.658614 -217.717091 
L 226.55673 -221.956936 
L 227.454846 -226.292185 
L 228.352962 -230.726876 
L 229.251079 -235.285322 
L 230.149195 -239.978912 
L 231.047311 -244.738064 
L 231.945427 -249.601063 
L 232.843543 -254.505463 
L 233.741659 -259.435828 
L 234.639776 -264.406558 
L 235.537892 -269.357331 
L 236.436008 -274.300063 
L 237.334124 -279.206407 
L 238.23224 -284.057641 
L 239.130356 -288.832468 
L 240.028473 -293.532607 
L 240.926589 -298.082332 
L 241.824705 -302.482927 
L 242.722821 -306.711235 
L 243.620937 -310.791679 
L 244.519053 -314.679876 
L 245.41717 -318.346968 
L 246.315286 -321.816729 
L 247.213402 -325.104987 
L 248.111518 -328.149956 
L 249.009634 -330.994632 
L 249.907751 -333.608482 
L 250.805867 -336.033144 
L 251.703983 -338.246554 
L 252.602099 -340.282936 
L 253.500215 -342.100418 
L 254.398331 -343.750815 
L 255.296448 -345.207473 
L 256.194564 -346.540842 
L 257.09268 -347.697076 
L 257.990796 -348.776806 
L 258.888912 -349.722751 
L 259.787028 -350.566233 
L 260.685145 -351.334251 
L 261.583261 -352.04142 
L 262.481377 -352.666797 
L 263.379493 -353.269021 
L 264.277609 -353.797032 
L 265.175725 -354.30568 
L 266.073842 -354.826059 
L 266.971958 -355.373278 
L 267.870074 -355.856164 
L 268.76819 -356.358848 
L 269.666306 -356.873572 
L 270.564423 -357.346743 
L 271.462539 -357.857895 
L 272.360655 -358.347619 
L 273.258771 -358.826138 
L 274.156887 -359.328896 
L 275.055003 -359.815023 
L 275.95312 -360.275586 
L 276.851236 -360.689536 
L 277.749352 -361.064056 
L 278.647468 -361.404171 
L 279.545584 -361.718289 
L 280.4437 -361.923241 
L 281.341817 -362.028429 
L 282.239933 -362.049973 
L 283.138049 -361.913332 
L 284.036165 -361.631807 
L 284.934281 -361.217296 
L 285.832397 -360.586753 
L 286.730514 -359.773364 
L 287.62863 -358.719646 
L 288.526746 -357.433112 
L 289.424862 -355.894344 
L 290.322978 -354.09883 
L 291.221095 -352.032954 
L 292.119211 -349.75506 
L 293.017327 -347.237073 
L 293.915443 -344.492 
L 294.813559 -341.528672 
L 295.711675 -338.386629 
L 296.609792 -335.112435 
L 297.507908 -331.73968 
L 298.406024 -328.226971 
L 299.30414 -324.635531 
L 300.202256 -320.985943 
L 301.100372 -317.31532 
L 301.998489 -313.595867 
L 302.896605 -309.886878 
L 303.794721 -306.173032 
L 304.692837 -302.496582 
L 305.590953 -298.852323 
L 306.489069 -295.216892 
L 307.387186 -291.603155 
L 308.285302 -288.008552 
L 309.183418 -284.383292 
L 310.081534 -280.807786 
L 310.97965 -277.26923 
L 311.877767 -273.767818 
L 312.775883 -270.255059 
L 313.673999 -266.829482 
L 314.572115 -263.419813 
L 315.470231 -260.060137 
L 316.368347 -256.723453 
L 317.266464 -253.44765 
L 318.16458 -250.18224 
L 319.062696 -246.992725 
L 319.960812 -243.827994 
L 320.858928 -240.69551 
L 321.757044 -237.59133 
L 322.655161 -234.453864 
L 323.553277 -231.303961 
L 324.451393 -228.170028 
L 325.349509 -224.983395 
L 326.247625 -221.794816 
L 327.145742 -218.541332 
L 328.043858 -215.240088 
L 328.941974 -211.919335 
L 329.84009 -208.534044 
L 330.738206 -205.079075 
L 331.636322 -201.591241 
L 332.534439 -198.066148 
L 333.432555 -194.511672 
L 334.330671 -190.977158 
L 335.228787 -187.469119 
L 336.126903 -183.938431 
L 337.025019 -180.442391 
L 337.923136 -177.013909 
L 338.821252 -173.661001 
L 339.719368 -170.389118 
L 340.617484 -167.205302 
L 341.5156 -164.139544 
L 342.413716 -161.192129 
L 343.311833 -158.355756 
L 344.209949 -155.641605 
L 345.108065 -153.028719 
L 346.006181 -150.56406 
L 346.904297 -148.216712 
L 347.802414 -145.952404 
L 348.70053 -143.759479 
L 349.598646 -141.669862 
L 350.496762 -139.677146 
L 351.394878 -137.715618 
L 352.292994 -135.814081 
L 353.191111 -133.939153 
L 354.089227 -132.08782 
L 354.987343 -130.237607 
L 355.885459 -128.357528 
L 356.783575 -126.487813 
L 357.681691 -124.610424 
L 358.579808 -122.694097 
L 359.477924 -120.777114 
L 360.37604 -118.822953 
L 361.274156 -116.832805 
L 362.172272 -114.818912 
L 363.070388 -112.764867 
L 363.968505 -110.703307 
L 364.866621 -108.600607 
L 365.764737 -106.48956 
L 366.662853 -104.390557 
L 367.560969 -102.295549 
L 368.459086 -100.195939 
L 369.357202 -98.122072 
L 370.255318 -96.07534 
L 371.153434 -94.056103 
L 372.05155 -92.069834 
L 372.949666 -90.131957 
L 373.847783 -88.236951 
L 374.745899 -86.388505 
L 375.644015 -84.569543 
L 376.542131 -82.784808 
L 377.440247 -81.030838 
L 378.338363 -79.336408 
L 379.23648 -77.674137 
L 380.134596 -76.021408 
L 381.032712 -74.395691 
L 381.930828 -72.807821 
L 382.828944 -71.237339 
L 383.72706 -69.696603 
L 384.625177 -68.177787 
L 385.523293 -66.67532 
L 386.421409 -65.215963 
L 387.319525 -63.806687 
L 388.217641 -62.447558 
L 389.115758 -61.123726 
L 390.013874 -59.855069 
L 390.91199 -58.634512 
L 391.810106 -57.465518 
L 392.708222 -56.354583 
L 393.606338 -55.296009 
L 394.504455 -54.2892 
L 395.402571 -53.327427 
L 396.300687 -52.401327 
L 397.198803 -51.499652 
L 398.096919 -50.62351 
L 398.995035 -49.786208 
L 399.893152 -48.954696 
L 400.791268 -48.132239 
L 401.689384 -47.323603 
L 402.5875 -46.531523 
L 403.485616 -45.744295 
L 404.383732 -44.954738 
L 405.281849 -44.176802 
L 406.179965 -43.436206 
L 407.078081 -42.721258 
L 407.976197 -42.003832 
L 408.874313 -41.320055 
L 409.77243 -40.664599 
L 410.670546 -40.025396 
L 411.568662 -39.413142 
L 412.466778 -38.830533 
L 413.364894 -38.275277 
L 414.26301 -37.74575 
L 415.161127 -37.240724 
L 416.059243 -36.75556 
L 416.957359 -36.289058 
L 417.855475 -35.843576 
L 418.753591 -35.417735 
L 419.651707 -35.004883 
L 420.549824 -34.609744 
L 421.44794 -34.232174 
L 422.346056 -33.861498 
L 423.244172 -33.505013 
L 424.142288 -33.156062 
L 425.040404 -32.828296 
L 425.938521 -32.49919 
L 426.836637 -32.185975 
L 427.734753 -31.886724 
L 428.632869 -31.595259 
L 429.530985 -31.313167 
L 430.429102 -31.034437 
L 431.327218 -30.767299 
L 432.225334 -30.504247 
L 433.12345 -30.247595 
L 434.021566 -30.002882 
L 434.919682 -29.767127 
L 435.817799 -29.538957 
L 436.715915 -29.320938 
L 437.614031 -29.103882 
L 438.512147 -28.90426 
L 439.410263 -28.718408 
L 440.308379 -28.544142 
L 441.206496 -28.380608 
L 442.104612 -28.235156 
L 443.002728 -28.106829 
L 443.900844 -27.991436 
L 444.79896 -27.884014 
L 445.697076 -27.792541 
L 446.595193 -27.715108 
L 447.493309 -27.64903 
L 448.391425 -27.589577 
L 449.289541 -27.535495 
L 450.187657 -27.490778 
L 451.085774 -27.44917 
L 451.98389 -27.40455 
L 452.882006 -27.361318 
L 453.780122 -27.318203 
L 454.678238 -27.26738 
L 455.576354 -27.219012 
L 456.474471 -27.166422 
L 457.372587 -27.11076 
L 458.270703 -27.051228 
L 459.168819 -26.991963 
L 460.066935 -26.930346 
L 460.965051 -26.87047 
L 461.863168 -26.811916 
L 462.761284 -26.760495 
L 463.6594 -26.711216 
L 464.557516 -26.667053 
L 465.455632 -26.630005 
L 466.353749 -26.598686 
L 467.251865 -26.575272 
L 468.149981 -26.555028 
L 469.048097 -26.538917 
L 469.946213 -26.524437 
L 470.844329 -26.514249 
L 471.742446 -26.503364 
L 472.640562 -26.496666 
L 473.538678 -26.487196 
L 474.436794 -26.47572 
L 475.33491 -26.458323 
L 476.233026 -26.444227 
L 477.131143 -26.425014 
L 478.029259 -26.402355 
L 478.927375 -26.374874 
L 479.825491 -26.347341 
L 480.723607 -26.316456 
L 481.621723 -26.285974 
L 482.51984 -26.251143 
L 483.417956 -26.224671 
L 484.316072 -26.193782 
L 485.214188 -26.168422 
L 486.112304 -26.14329 
L 487.010421 -26.120559 
L 487.908537 -26.102939 
L 488.806653 -26.087067 
L 489.704769 -26.074805 
L 490.602885 -26.064694 
L 491.501001 -26.058902 
L 491.501001 -24.496364 
L 491.501001 -24.496364 
L 490.602885 -24.496364 
L 489.704769 -24.496364 
L 488.806653 -24.496364 
L 487.908537 -24.496364 
L 487.010421 -24.496364 
L 486.112304 -24.496364 
L 485.214188 -24.496364 
L 484.316072 -24.496364 
L 483.417956 -24.496364 
L 482.51984 -24.496364 
L 481.621723 -24.496364 
L 480.723607 -24.496364 
L 479.825491 -24.496364 
L 478.927375 -24.496364 
L 478.029259 -24.496364 
L 477.131143 -24.496364 
L 476.233026 -24.496364 
L 475.33491 -24.496364 
L 474.436794 -24.496364 
L 473.538678 -24.496364 
L 472.640562 -24.496364 
L 471.742446 -24.496364 
L 470.844329 -24.496364 
L 469.946213 -24.496364 
L 469.048097 -24.496364 
L 468.149981 -24.496364 
L 467.251865 -24.496364 
L 466.353749 -24.496364 
L 465.455632 -24.496364 
L 464.557516 -24.496364 
L 463.6594 -24.496364 
L 462.761284 -24.496364 
L 461.863168 -24.496364 
L 460.965051 -24.496364 
L 460.066935 -24.496364 
L 459.168819 -24.496364 
L 458.270703 -24.496364 
L 457.372587 -24.496364 
L 456.474471 -24.496364 
L 455.576354 -24.496364 
L 454.678238 -24.496364 
L 453.780122 -24.496364 
L 452.882006 -24.496364 
L 451.98389 -24.496364 
L 451.085774 -24.496364 
L 450.187657 -24.496364 
L 449.289541 -24.496364 
L 448.391425 -24.496364 
L 447.493309 -24.496364 
L 446.595193 -24.496364 
L 445.697076 -24.496364 
L 444.79896 -24.496364 
L 443.900844 -24.496364 
L 443.002728 -24.496364 
L 442.104612 -24.496364 
L 441.206496 -24.496364 
L 440.308379 -24.496364 
L 439.410263 -24.496364 
L 438.512147 -24.496364 
L 437.614031 -24.496364 
L 436.715915 -24.496364 
L 435.817799 -24.496364 
L 434.919682 -24.496364 
L 434.021566 -24.496364 
L 433.12345 -24.496364 
L 432.225334 -24.496364 
L 431.327218 -24.496364 
L 430.429102 -24.496364 
L 429.530985 -24.496364 
L 428.632869 -24.496364 
L 427.734753 -24.496364 
L 426.836637 -24.496364 
L 425.938521 -24.496364 
L 425.040404 -24.496364 
L 424.142288 -24.496364 
L 423.244172 -24.496364 
L 422.346056 -24.496364 
L 421.44794 -24.496364 
L 420.549824 -24.496364 
L 419.651707 -24.496364 
L 418.753591 -24.496364 
L 417.855475 -24.496364 
L 416.957359 -24.496364 
L 416.059243 -24.496364 
L 415.161127 -24.496364 
L 414.26301 -24.496364 
L 413.364894 -24.496364 
L 412.466778 -24.496364 
L 411.568662 -24.496364 
L 410.670546 -24.496364 
L 409.77243 -24.496364 
L 408.874313 -24.496364 
L 407.976197 -24.496364 
L 407.078081 -24.496364 
L 406.179965 -24.496364 
L 405.281849 -24.496364 
L 404.383732 -24.496364 
L 403.485616 -24.496364 
L 402.5875 -24.496364 
L 401.689384 -24.496364 
L 400.791268 -24.496364 
L 399.893152 -24.496364 
L 398.995035 -24.496364 
L 398.096919 -24.496364 
L 397.198803 -24.496364 
L 396.300687 -24.496364 
L 395.402571 -24.496364 
L 394.504455 -24.496364 
L 393.606338 -24.496364 
L 392.708222 -24.496364 
L 391.810106 -24.496364 
L 390.91199 -24.496364 
L 390.013874 -24.496364 
L 389.115758 -24.496364 
L 388.217641 -24.496364 
L 387.319525 -24.496364 
L 386.421409 -24.496364 
L 385.523293 -24.496364 
L 384.625177 -24.496364 
L 383.72706 -24.496364 
L 382.828944 -24.496364 
L 381.930828 -24.496364 
L 381.032712 -24.496364 
L 380.134596 -24.496364 
L 379.23648 -24.496364 
L 378.338363 -24.496364 
L 377.440247 -24.496364 
L 376.542131 -24.496364 
L 375.644015 -24.496364 
L 374.745899 -24.496364 
L 373.847783 -24.496364 
L 372.949666 -24.496364 
L 372.05155 -24.496364 
L 371.153434 -24.496364 
L 370.255318 -24.496364 
L 369.357202 -24.496364 
L 368.459086 -24.496364 
L 367.560969 -24.496364 
L 366.662853 -24.496364 
L 365.764737 -24.496364 
L 364.866621 -24.496364 
L 363.968505 -24.496364 
L 363.070388 -24.496364 
L 362.172272 -24.496364 
L 361.274156 -24.496364 
L 360.37604 -24.496364 
L 359.477924 -24.496364 
L 358.579808 -24.496364 
L 357.681691 -24.496364 
L 356.783575 -24.496364 
L 355.885459 -24.496364 
L 354.987343 -24.496364 
L 354.089227 -24.496364 
L 353.191111 -24.496364 
L 352.292994 -24.496364 
L 351.394878 -24.496364 
L 350.496762 -24.496364 
L 349.598646 -24.496364 
L 348.70053 -24.496364 
L 347.802414 -24.496364 
L 346.904297 -24.496364 
L 346.006181 -24.496364 
L 345.108065 -24.496364 
L 344.209949 -24.496364 
L 343.311833 -24.496364 
L 342.413716 -24.496364 
L 341.5156 -24.496364 
L 340.617484 -24.496364 
L 339.719368 -24.496364 
L 338.821252 -24.496364 
L 337.923136 -24.496364 
L 337.025019 -24.496364 
L 336.126903 -24.496364 
L 335.228787 -24.496364 
L 334.330671 -24.496364 
L 333.432555 -24.496364 
L 332.534439 -24.496364 
L 331.636322 -24.496364 
L 330.738206 -24.496364 
L 329.84009 -24.496364 
L 328.941974 -24.496364 
L 328.043858 -24.496364 
L 327.145742 -24.496364 
L 326.247625 -24.496364 
L 325.349509 -24.496364 
L 324.451393 -24.496364 
L 323.553277 -24.496364 
L 322.655161 -24.496364 
L 321.757044 -24.496364 
L 320.858928 -24.496364 
L 319.960812 -24.496364 
L 319.062696 -24.496364 
L 318.16458 -24.496364 
L 317.266464 -24.496364 
L 316.368347 -24.496364 
L 315.470231 -24.496364 
L 314.572115 -24.496364 
L 313.673999 -24.496364 
L 312.775883 -24.496364 
L 311.877767 -24.496364 
L 310.97965 -24.496364 
L 310.081534 -24.496364 
L 309.183418 -24.496364 
L 308.285302 -24.496364 
L 307.387186 -24.496364 
L 306.489069 -24.496364 
L 305.590953 -24.496364 
L 304.692837 -24.496364 
L 303.794721 -24.496364 
L 302.896605 -24.496364 
L 301.998489 -24.496364 
L 301.100372 -24.496364 
L 300.202256 -24.496364 
L 299.30414 -24.496364 
L 298.406024 -24.496364 
L 297.507908 -24.496364 
L 296.609792 -24.496364 
L 295.711675 -24.496364 
L 294.813559 -24.496364 
L 293.915443 -24.496364 
L 293.017327 -24.496364 
L 292.119211 -24.496364 
L 291.221095 -24.496364 
L 290.322978 -24.496364 
L 289.424862 -24.496364 
L 288.526746 -24.496364 
L 287.62863 -24.496364 
L 286.730514 -24.496364 
L 285.832397 -24.496364 
L 284.934281 -24.496364 
L 284.036165 -24.496364 
L 283.138049 -24.496364 
L 282.239933 -24.496364 
L 281.341817 -24.496364 
L 280.4437 -24.496364 
L 279.545584 -24.496364 
L 278.647468 -24.496364 
L 277.749352 -24.496364 
L 276.851236 -24.496364 
L 275.95312 -24.496364 
L 275.055003 -24.496364 
L 274.156887 -24.496364 
L 273.258771 -24.496364 
L 272.360655 -24.496364 
L 271.462539 -24.496364 
L 270.564423 -24.496364 
L 269.666306 -24.496364 
L 268.76819 -24.496364 
L 267.870074 -24.496364 
L 266.971958 -24.496364 
L 266.073842 -24.496364 
L 265.175725 -24.496364 
L 264.277609 -24.496364 
L 263.379493 -24.496364 
L 262.481377 -24.496364 
L 261.583261 -24.496364 
L 260.685145 -24.496364 
L 259.787028 -24.496364 
L 258.888912 -24.496364 
L 257.990796 -24.496364 
L 257.09268 -24.496364 
L 256.194564 -24.496364 
L 255.296448 -24.496364 
L 254.398331 -24.496364 
L 253.500215 -24.496364 
L 252.602099 -24.496364 
L 251.703983 -24.496364 
L 250.805867 -24.496364 
L 249.907751 -24.496364 
L 249.009634 -24.496364 
L 248.111518 -24.496364 
L 247.213402 -24.496364 
L 246.315286 -24.496364 
L 245.41717 -24.496364 
L 244.519053 -24.496364 
L 243.620937 -24.496364 
L 242.722821 -24.496364 
L 241.824705 -24.496364 
L 240.926589 -24.496364 
L 240.028473 -24.496364 
L 239.130356 -24.496364 
L 238.23224 -24.496364 
L 237.334124 -24.496364 
L 236.436008 -24.496364 
L 235.537892 -24.496364 
L 234.639776 -24.496364 
L 233.741659 -24.496364 
L 232.843543 -24.496364 
L 231.945427 -24.496364 
L 231.047311 -24.496364 
L 230.149195 -24.496364 
L 229.251079 -24.496364 
L 228.352962 -24.496364 
L 227.454846 -24.496364 
L 226.55673 -24.496364 
L 225.658614 -24.496364 
L 224.760498 -24.496364 
L 223.862381 -24.496364 
L 222.964265 -24.496364 
L 222.066149 -24.496364 
L 221.168033 -24.496364 
L 220.269917 -24.496364 
L 219.371801 -24.496364 
L 218.473684 -24.496364 
L 217.575568 -24.496364 
L 216.677452 -24.496364 
L 215.779336 -24.496364 
L 214.88122 -24.496364 
L 213.983104 -24.496364 
L 213.084987 -24.496364 
L 212.186871 -24.496364 
L 211.288755 -24.496364 
L 210.390639 -24.496364 
L 209.492523 -24.496364 
L 208.594407 -24.496364 
L 207.69629 -24.496364 
L 206.798174 -24.496364 
L 205.900058 -24.496364 
L 205.001942 -24.496364 
L 204.103826 -24.496364 
L 203.205709 -24.496364 
L 202.307593 -24.496364 
L 201.409477 -24.496364 
L 200.511361 -24.496364 
L 199.613245 -24.496364 
L 198.715129 -24.496364 
L 197.817012 -24.496364 
L 196.918896 -24.496364 
L 196.02078 -24.496364 
L 195.122664 -24.496364 
L 194.224548 -24.496364 
L 193.326432 -24.496364 
L 192.428315 -24.496364 
L 191.530199 -24.496364 
L 190.632083 -24.496364 
L 189.733967 -24.496364 
L 188.835851 -24.496364 
L 187.937735 -24.496364 
L 187.039618 -24.496364 
L 186.141502 -24.496364 
L 185.243386 -24.496364 
L 184.34527 -24.496364 
L 183.447154 -24.496364 
L 182.549037 -24.496364 
L 181.650921 -24.496364 
L 180.752805 -24.496364 
L 179.854689 -24.496364 
L 178.956573 -24.496364 
L 178.058457 -24.496364 
L 177.16034 -24.496364 
L 176.262224 -24.496364 
L 175.364108 -24.496364 
L 174.465992 -24.496364 
L 173.567876 -24.496364 
L 172.66976 -24.496364 
L 171.771643 -24.496364 
L 170.873527 -24.496364 
L 169.975411 -24.496364 
L 169.077295 -24.496364 
L 168.179179 -24.496364 
L 167.281062 -24.496364 
L 166.382946 -24.496364 
L 165.48483 -24.496364 
L 164.586714 -24.496364 
L 163.688598 -24.496364 
L 162.790482 -24.496364 
L 161.892365 -24.496364 
L 160.994249 -24.496364 
L 160.096133 -24.496364 
L 159.198017 -24.496364 
L 158.299901 -24.496364 
L 157.401785 -24.496364 
L 156.503668 -24.496364 
L 155.605552 -24.496364 
L 154.707436 -24.496364 
L 153.80932 -24.496364 
L 152.911204 -24.496364 
L 152.013088 -24.496364 
L 151.114971 -24.496364 
L 150.216855 -24.496364 
L 149.318739 -24.496364 
L 148.420623 -24.496364 
L 147.522507 -24.496364 
L 146.62439 -24.496364 
L 145.726274 -24.496364 
L 144.828158 -24.496364 
L 143.930042 -24.496364 
L 143.031926 -24.496364 
L 142.13381 -24.496364 
L 141.235693 -24.496364 
L 140.337577 -24.496364 
L 139.439461 -24.496364 
L 138.541345 -24.496364 
L 137.643229 -24.496364 
L 136.745113 -24.496364 
L 135.846996 -24.496364 
L 134.94888 -24.496364 
L 134.050764 -24.496364 
L 133.152648 -24.496364 
L 132.254532 -24.496364 
L 131.356416 -24.496364 
L 130.458299 -24.496364 
L 129.560183 -24.496364 
L 128.662067 -24.496364 
L 127.763951 -24.496364 
L 126.865835 -24.496364 
L 125.967718 -24.496364 
L 125.069602 -24.496364 
L 124.171486 -24.496364 
L 123.27337 -24.496364 
L 122.375254 -24.496364 
L 121.477138 -24.496364 
L 120.579021 -24.496364 
L 119.680905 -24.496364 
L 118.782789 -24.496364 
L 117.884673 -24.496364 
L 116.986557 -24.496364 
L 116.088441 -24.496364 
L 115.190324 -24.496364 
L 114.292208 -24.496364 
L 113.394092 -24.496364 
L 112.495976 -24.496364 
L 111.59786 -24.496364 
L 110.699744 -24.496364 
L 109.801627 -24.496364 
L 108.903511 -24.496364 
L 108.005395 -24.496364 
L 107.107279 -24.496364 
L 106.209163 -24.496364 
L 105.311046 -24.496364 
L 104.41293 -24.496364 
L 103.514814 -24.496364 
L 102.616698 -24.496364 
L 101.718582 -24.496364 
L 100.820466 -24.496364 
L 99.922349 -24.496364 
L 99.024233 -24.496364 
L 98.126117 -24.496364 
L 97.228001 -24.496364 
L 96.329885 -24.496364 
L 95.431769 -24.496364 
L 94.533652 -24.496364 
L 93.635536 -24.496364 
L 92.73742 -24.496364 
L 91.839304 -24.496364 
L 90.941188 -24.496364 
L 90.043072 -24.496364 
L 89.144955 -24.496364 
L 88.246839 -24.496364 
L 87.348723 -24.496364 
L 86.450607 -24.496364 
L 85.552491 -24.496364 
L 84.654374 -24.496364 
L 83.756258 -24.496364 
L 82.858142 -24.496364 
L 81.960026 -24.496364 
L 81.06191 -24.496364 
L 80.163794 -24.496364 
L 79.265677 -24.496364 
L 78.367561 -24.496364 
L 77.469445 -24.496364 
L 76.571329 -24.496364 
L 75.673213 -24.496364 
L 74.775097 -24.496364 
L 73.87698 -24.496364 
L 72.978864 -24.496364 
L 72.080748 -24.496364 
L 71.182632 -24.496364 
L 70.284516 -24.496364 
L 69.3864 -24.496364 
L 68.488283 -24.496364 
L 67.590167 -24.496364 
L 66.692051 -24.496364 
L 65.793935 -24.496364 
L 64.895819 -24.496364 
L 63.997702 -24.496364 
L 63.099586 -24.496364 
L 62.20147 -24.496364 
L 61.303354 -24.496364 
L 60.405238 -24.496364 
L 59.507122 -24.496364 
L 58.609005 -24.496364 
L 57.710889 -24.496364 
L 56.812773 -24.496364 
L 55.914657 -24.496364 
L 55.016541 -24.496364 
L 54.118425 -24.496364 
L 53.220308 -24.496364 
L 52.322192 -24.496364 
L 51.424076 -24.496364 
L 50.52596 -24.496364 
L 49.627844 -24.496364 
L 48.729727 -24.496364 
L 47.831611 -24.496364 
L 46.933495 -24.496364 
L 46.035379 -24.496364 
L 45.137263 -24.496364 
L 44.239147 -24.496364 
L 43.34103 -24.496364 
L 42.442914 -24.496364 
L 41.544798 -24.496364 
L 40.646682 -24.496364 
L 39.748566 -24.496364 
L 38.85045 -24.496364 
L 37.952333 -24.496364 
L 37.054217 -24.496364 
L 36.156101 -24.496364 
L 35.257985 -24.496364 
L 34.359869 -24.496364 
L 33.461753 -24.496364 
L 32.563636 -24.496364 
z
" id="m5ff371117d" style="stroke:#c44e52;stroke-opacity:0.5;"/>
    </defs>
    <g clip-path="url(#pd1ad01e678)">
     <use style="fill:#c44e52;fill-opacity:0.5;stroke:#c44e52;stroke-opacity:0.5;" x="0" xlink:href="#m5ff371117d" y="409.509375"/>
    </g>
   </g>
   <g id="line2d_1">
    <path clip-path="url(#pd1ad01e678)" d="M 160.93825 375.54388 
L 162.421217 375.422404 
L 163.904184 375.027138 
L 165.387151 374.344548 
L 166.870118 373.386264 
L 168.353085 372.121206 
L 169.836053 370.576469 
L 171.31902 368.711137 
L 172.801987 366.48185 
L 174.284954 363.891946 
L 175.767921 360.958688 
L 177.250888 357.66393 
L 179.475339 352.029078 
L 181.69979 345.599287 
L 183.924241 338.481941 
L 186.148692 330.717937 
L 189.114626 319.556117 
L 192.08056 307.419171 
L 195.046495 294.313176 
L 197.270945 283.668687 
L 199.495396 272.160773 
L 201.719847 259.629522 
L 203.944298 246.071381 
L 206.910232 226.559431 
L 215.066552 171.316274 
L 218.032486 153.369157 
L 220.99842 136.968083 
L 224.705838 117.862931 
L 229.15474 96.103687 
L 232.120674 82.708674 
L 234.345125 73.699641 
L 235.828092 68.408038 
L 237.311059 63.684298 
L 238.794026 59.659157 
L 240.276994 56.258947 
L 241.759961 53.363271 
L 243.242928 50.953275 
L 245.467379 48.057948 
L 248.433313 45.059841 
L 250.657764 43.209811 
L 253.623698 41.137669 
L 255.106665 40.369198 
L 257.331116 39.503014 
L 258.814083 39.168787 
L 260.29705 39.085739 
L 261.780018 39.185292 
L 263.262985 39.568118 
L 264.745952 40.183275 
L 266.228919 41.098896 
L 267.711886 42.372866 
L 269.194854 43.984738 
L 270.677821 46.031527 
L 272.160788 48.493061 
L 273.643755 51.412982 
L 275.126722 54.79104 
L 277.351173 60.535891 
L 279.575624 66.859882 
L 285.507493 83.959244 
L 287.731943 89.599383 
L 289.956394 94.658249 
L 292.180845 99.081663 
L 298.112714 110.273847 
L 299.595681 113.451282 
L 301.078648 116.936661 
L 303.303099 122.928927 
L 305.527549 129.885907 
L 308.493484 140.464537 
L 311.459418 152.054236 
L 315.90832 170.583116 
L 321.840188 194.998949 
L 324.806123 206.183321 
L 327.030574 213.849571 
L 329.996508 222.967478 
L 332.962442 231.249384 
L 339.635795 249.585984 
L 351.499532 283.709536 
L 357.431401 298.810768 
L 361.138819 307.686374 
L 364.104753 314.220195 
L 366.329204 318.665644 
L 368.553655 322.64113 
L 370.778105 326.153637 
L 373.002556 329.265675 
L 375.96849 332.976203 
L 378.934425 336.367714 
L 386.349261 344.726273 
L 392.281129 352.042015 
L 395.247064 355.64819 
L 397.471515 358.060356 
L 399.695965 360.062694 
L 401.178932 361.151013 
L 402.6619 361.994789 
L 404.144867 362.642807 
L 405.627834 363.12338 
L 408.593768 363.675621 
L 416.750088 364.824669 
L 419.716022 365.548454 
L 422.681957 366.502664 
L 425.647891 367.688717 
L 428.613825 369.103403 
L 432.321243 371.139516 
L 438.994595 375.242181 
L 442.702013 377.49605 
L 445.667948 379.072873 
L 447.892399 380.060738 
L 450.116849 380.828218 
L 452.3413 381.411761 
L 455.307234 381.935466 
L 459.014652 382.320146 
L 464.946521 382.653716 
L 470.87839 382.691953 
L 479.776193 382.666927 
L 484.966578 382.923431 
L 490.156963 383.401171 
L 501.279217 384.557362 
L 505.728119 384.739594 
L 512.401471 384.72577 
L 529.455593 384.471067 
L 539.836364 384.182309 
L 539.836364 384.182309 
" style="fill:none;stroke:#4c72b0;stroke-linecap:round;stroke-opacity:0;stroke-width:1.5;"/>
   </g>
   <g id="line2d_2">
    <path clip-path="url(#pd1ad01e678)" d="M 32.563636 383.996738 
L 39.748566 384.130654 
L 50.52596 384.354425 
L 72.080748 384.342624 
L 80.163794 384.155438 
L 84.654374 383.886749 
L 89.144955 383.359144 
L 93.635536 382.559226 
L 108.903511 379.319038 
L 121.477138 376.356008 
L 127.763951 375.157208 
L 130.458299 374.388432 
L 133.152648 373.336062 
L 135.846996 371.991389 
L 138.541345 370.409453 
L 143.031926 367.399836 
L 152.013088 361.254096 
L 157.401785 357.635448 
L 160.096133 355.598755 
L 162.790482 353.227666 
L 164.586714 351.399537 
L 167.281062 348.27559 
L 169.975411 344.702236 
L 172.66976 340.771891 
L 176.262224 334.992457 
L 178.956573 330.269267 
L 181.650921 325.190454 
L 184.34527 319.637399 
L 187.039618 313.518744 
L 189.733967 306.856191 
L 192.428315 299.697355 
L 196.918896 286.944316 
L 204.103826 266.367555 
L 209.492523 251.024792 
L 213.084987 240.114206 
L 216.677452 228.125858 
L 219.371801 218.27429 
L 222.066149 207.579515 
L 224.760498 195.934425 
L 227.454846 183.21719 
L 230.149195 169.530463 
L 233.741659 150.073547 
L 239.130356 120.676907 
L 241.824705 107.026448 
L 244.519053 94.829499 
L 246.315286 87.692646 
L 248.111518 81.359419 
L 249.907751 75.900893 
L 251.703983 71.262821 
L 253.500215 67.408957 
L 255.296448 64.301902 
L 257.09268 61.812299 
L 258.888912 59.786624 
L 260.685145 58.175124 
L 262.481377 56.842578 
L 264.277609 55.712343 
L 275.055003 49.694352 
L 276.851236 48.819839 
L 279.545584 47.791086 
L 281.341817 47.480946 
L 282.239933 47.459402 
L 283.138049 47.596043 
L 284.036165 47.877568 
L 284.934281 48.292079 
L 285.832397 48.922622 
L 286.730514 49.736011 
L 287.62863 50.789729 
L 288.526746 52.076263 
L 289.424862 53.615031 
L 290.322978 55.410545 
L 292.119211 59.754315 
L 293.915443 65.017375 
L 295.711675 71.122746 
L 298.406024 81.282404 
L 302.896605 99.622497 
L 308.285302 121.500823 
L 312.775883 139.254316 
L 317.266464 156.061725 
L 320.858928 168.813865 
L 326.247625 187.714559 
L 329.84009 200.975331 
L 336.126903 225.570944 
L 339.719368 239.120257 
L 342.413716 248.317246 
L 345.108065 256.480656 
L 347.802414 263.556971 
L 349.598646 267.839513 
L 353.191111 275.570222 
L 359.477924 288.732261 
L 363.070388 296.744508 
L 373.847783 321.272424 
L 377.440247 328.478537 
L 381.032712 335.113684 
L 385.523293 342.834055 
L 388.217641 347.061817 
L 390.91199 350.874863 
L 393.606338 354.213366 
L 396.300687 357.108048 
L 398.995035 359.723167 
L 403.485616 363.76508 
L 407.078081 366.788117 
L 409.77243 368.844776 
L 412.466778 370.678842 
L 415.161127 372.268651 
L 418.753591 374.09164 
L 422.346056 375.647877 
L 426.836637 377.3234 
L 432.225334 379.005128 
L 436.715915 380.188437 
L 440.308379 380.965233 
L 443.900844 381.517939 
L 447.493309 381.860345 
L 455.576354 382.290363 
L 469.048097 382.970458 
L 485.214188 383.340953 
L 491.501001 383.450473 
L 491.501001 383.450473 
" style="fill:none;stroke:#4c72b0;stroke-linecap:round;stroke-opacity:0;stroke-width:1.5;"/>
   </g>
   <g id="line2d_3"/>
   <g id="line2d_4"/>
   <g id="line2d_5"/>
   <g id="line2d_6"/>
   <g id="patch_3">
    <path d="M 7.2 402.309375 
L 7.2 21.789375 
" style="fill:none;stroke:#ffffff;stroke-linecap:square;stroke-linejoin:miter;stroke-width:0.8;"/>
   </g>
   <g id="patch_4">
    <path d="M 565.2 402.309375 
L 565.2 21.789375 
" style="fill:none;stroke:#ffffff;stroke-linecap:square;stroke-linejoin:miter;stroke-width:0.8;"/>
   </g>
   <g id="patch_5">
    <path d="M 7.2 402.309375 
L 565.2 402.309375 
" style="fill:none;stroke:#ffffff;stroke-linecap:square;stroke-linejoin:miter;stroke-width:0.8;"/>
   </g>
   <g id="patch_6">
    <path d="M 7.2 21.789375 
L 565.2 21.789375 
" style="fill:none;stroke:#ffffff;stroke-linecap:square;stroke-linejoin:miter;stroke-width:0.8;"/>
   </g>
   <g id="text_1">
    <!-- Energy transition distribution and marginal energy distribution -->
    <g style="fill:#262626;" transform="translate(123.455625 15.789375)scale(0.12 -0.12)">
     <defs>
      <path d="M 506 0 
L 506 4581 
L 3819 4581 
L 3819 4041 
L 1113 4041 
L 1113 2638 
L 3647 2638 
L 3647 2100 
L 1113 2100 
L 1113 541 
L 3925 541 
L 3925 0 
L 506 0 
z
" id="ArialMT-45" transform="scale(0.015625)"/>
      <path d="M 422 0 
L 422 3319 
L 928 3319 
L 928 2847 
Q 1294 3394 1984 3394 
Q 2284 3394 2536 3286 
Q 2788 3178 2913 3003 
Q 3038 2828 3088 2588 
Q 3119 2431 3119 2041 
L 3119 0 
L 2556 0 
L 2556 2019 
Q 2556 2363 2490 2533 
Q 2425 2703 2258 2804 
Q 2091 2906 1866 2906 
Q 1506 2906 1245 2678 
Q 984 2450 984 1813 
L 984 0 
L 422 0 
z
" id="ArialMT-6e" transform="scale(0.015625)"/>
      <path d="M 2694 1069 
L 3275 997 
Q 3138 488 2766 206 
Q 2394 -75 1816 -75 
Q 1088 -75 661 373 
Q 234 822 234 1631 
Q 234 2469 665 2931 
Q 1097 3394 1784 3394 
Q 2450 3394 2872 2941 
Q 3294 2488 3294 1666 
Q 3294 1616 3291 1516 
L 816 1516 
Q 847 969 1125 678 
Q 1403 388 1819 388 
Q 2128 388 2347 550 
Q 2566 713 2694 1069 
z
M 847 1978 
L 2700 1978 
Q 2663 2397 2488 2606 
Q 2219 2931 1791 2931 
Q 1403 2931 1139 2672 
Q 875 2413 847 1978 
z
" id="ArialMT-65" transform="scale(0.015625)"/>
      <path d="M 416 0 
L 416 3319 
L 922 3319 
L 922 2816 
Q 1116 3169 1280 3281 
Q 1444 3394 1641 3394 
Q 1925 3394 2219 3213 
L 2025 2691 
Q 1819 2813 1613 2813 
Q 1428 2813 1281 2702 
Q 1134 2591 1072 2394 
Q 978 2094 978 1738 
L 978 0 
L 416 0 
z
" id="ArialMT-72" transform="scale(0.015625)"/>
      <path d="M 319 -275 
L 866 -356 
Q 900 -609 1056 -725 
Q 1266 -881 1628 -881 
Q 2019 -881 2231 -725 
Q 2444 -569 2519 -288 
Q 2563 -116 2559 434 
Q 2191 0 1641 0 
Q 956 0 581 494 
Q 206 988 206 1678 
Q 206 2153 378 2554 
Q 550 2956 876 3175 
Q 1203 3394 1644 3394 
Q 2231 3394 2613 2919 
L 2613 3319 
L 3131 3319 
L 3131 450 
Q 3131 -325 2973 -648 
Q 2816 -972 2473 -1159 
Q 2131 -1347 1631 -1347 
Q 1038 -1347 672 -1080 
Q 306 -813 319 -275 
z
M 784 1719 
Q 784 1066 1043 766 
Q 1303 466 1694 466 
Q 2081 466 2343 764 
Q 2606 1063 2606 1700 
Q 2606 2309 2336 2618 
Q 2066 2928 1684 2928 
Q 1309 2928 1046 2623 
Q 784 2319 784 1719 
z
" id="ArialMT-67" transform="scale(0.015625)"/>
      <path d="M 397 -1278 
L 334 -750 
Q 519 -800 656 -800 
Q 844 -800 956 -737 
Q 1069 -675 1141 -563 
Q 1194 -478 1313 -144 
Q 1328 -97 1363 -6 
L 103 3319 
L 709 3319 
L 1400 1397 
Q 1534 1031 1641 628 
Q 1738 1016 1872 1384 
L 2581 3319 
L 3144 3319 
L 1881 -56 
Q 1678 -603 1566 -809 
Q 1416 -1088 1222 -1217 
Q 1028 -1347 759 -1347 
Q 597 -1347 397 -1278 
z
" id="ArialMT-79" transform="scale(0.015625)"/>
      <path id="ArialMT-20" transform="scale(0.015625)"/>
      <path d="M 1650 503 
L 1731 6 
Q 1494 -44 1306 -44 
Q 1000 -44 831 53 
Q 663 150 594 308 
Q 525 466 525 972 
L 525 2881 
L 113 2881 
L 113 3319 
L 525 3319 
L 525 4141 
L 1084 4478 
L 1084 3319 
L 1650 3319 
L 1650 2881 
L 1084 2881 
L 1084 941 
Q 1084 700 1114 631 
Q 1144 563 1211 522 
Q 1278 481 1403 481 
Q 1497 481 1650 503 
z
" id="ArialMT-74" transform="scale(0.015625)"/>
      <path d="M 2588 409 
Q 2275 144 1986 34 
Q 1697 -75 1366 -75 
Q 819 -75 525 192 
Q 231 459 231 875 
Q 231 1119 342 1320 
Q 453 1522 633 1644 
Q 813 1766 1038 1828 
Q 1203 1872 1538 1913 
Q 2219 1994 2541 2106 
Q 2544 2222 2544 2253 
Q 2544 2597 2384 2738 
Q 2169 2928 1744 2928 
Q 1347 2928 1158 2789 
Q 969 2650 878 2297 
L 328 2372 
Q 403 2725 575 2942 
Q 747 3159 1072 3276 
Q 1397 3394 1825 3394 
Q 2250 3394 2515 3294 
Q 2781 3194 2906 3042 
Q 3031 2891 3081 2659 
Q 3109 2516 3109 2141 
L 3109 1391 
Q 3109 606 3145 398 
Q 3181 191 3288 0 
L 2700 0 
Q 2613 175 2588 409 
z
M 2541 1666 
Q 2234 1541 1622 1453 
Q 1275 1403 1131 1340 
Q 988 1278 909 1158 
Q 831 1038 831 891 
Q 831 666 1001 516 
Q 1172 366 1500 366 
Q 1825 366 2078 508 
Q 2331 650 2450 897 
Q 2541 1088 2541 1459 
L 2541 1666 
z
" id="ArialMT-61" transform="scale(0.015625)"/>
      <path d="M 197 991 
L 753 1078 
Q 800 744 1014 566 
Q 1228 388 1613 388 
Q 2000 388 2187 545 
Q 2375 703 2375 916 
Q 2375 1106 2209 1216 
Q 2094 1291 1634 1406 
Q 1016 1563 777 1677 
Q 538 1791 414 1992 
Q 291 2194 291 2438 
Q 291 2659 392 2848 
Q 494 3038 669 3163 
Q 800 3259 1026 3326 
Q 1253 3394 1513 3394 
Q 1903 3394 2198 3281 
Q 2494 3169 2634 2976 
Q 2775 2784 2828 2463 
L 2278 2388 
Q 2241 2644 2061 2787 
Q 1881 2931 1553 2931 
Q 1166 2931 1000 2803 
Q 834 2675 834 2503 
Q 834 2394 903 2306 
Q 972 2216 1119 2156 
Q 1203 2125 1616 2013 
Q 2213 1853 2448 1751 
Q 2684 1650 2818 1456 
Q 2953 1263 2953 975 
Q 2953 694 2789 445 
Q 2625 197 2315 61 
Q 2006 -75 1616 -75 
Q 969 -75 630 194 
Q 291 463 197 991 
z
" id="ArialMT-73" transform="scale(0.015625)"/>
      <path d="M 425 3934 
L 425 4581 
L 988 4581 
L 988 3934 
L 425 3934 
z
M 425 0 
L 425 3319 
L 988 3319 
L 988 0 
L 425 0 
z
" id="ArialMT-69" transform="scale(0.015625)"/>
      <path d="M 213 1659 
Q 213 2581 725 3025 
Q 1153 3394 1769 3394 
Q 2453 3394 2887 2945 
Q 3322 2497 3322 1706 
Q 3322 1066 3130 698 
Q 2938 331 2570 128 
Q 2203 -75 1769 -75 
Q 1072 -75 642 372 
Q 213 819 213 1659 
z
M 791 1659 
Q 791 1022 1069 705 
Q 1347 388 1769 388 
Q 2188 388 2466 706 
Q 2744 1025 2744 1678 
Q 2744 2294 2464 2611 
Q 2184 2928 1769 2928 
Q 1347 2928 1069 2612 
Q 791 2297 791 1659 
z
" id="ArialMT-6f" transform="scale(0.015625)"/>
      <path d="M 2575 0 
L 2575 419 
Q 2259 -75 1647 -75 
Q 1250 -75 917 144 
Q 584 363 401 755 
Q 219 1147 219 1656 
Q 219 2153 384 2558 
Q 550 2963 881 3178 
Q 1213 3394 1622 3394 
Q 1922 3394 2156 3267 
Q 2391 3141 2538 2938 
L 2538 4581 
L 3097 4581 
L 3097 0 
L 2575 0 
z
M 797 1656 
Q 797 1019 1065 703 
Q 1334 388 1700 388 
Q 2069 388 2326 689 
Q 2584 991 2584 1609 
Q 2584 2291 2321 2609 
Q 2059 2928 1675 2928 
Q 1300 2928 1048 2622 
Q 797 2316 797 1656 
z
" id="ArialMT-64" transform="scale(0.015625)"/>
      <path d="M 941 0 
L 419 0 
L 419 4581 
L 981 4581 
L 981 2947 
Q 1338 3394 1891 3394 
Q 2197 3394 2470 3270 
Q 2744 3147 2920 2923 
Q 3097 2700 3197 2384 
Q 3297 2069 3297 1709 
Q 3297 856 2875 390 
Q 2453 -75 1863 -75 
Q 1275 -75 941 416 
L 941 0 
z
M 934 1684 
Q 934 1088 1097 822 
Q 1363 388 1816 388 
Q 2184 388 2453 708 
Q 2722 1028 2722 1663 
Q 2722 2313 2464 2622 
Q 2206 2931 1841 2931 
Q 1472 2931 1203 2611 
Q 934 2291 934 1684 
z
" id="ArialMT-62" transform="scale(0.015625)"/>
      <path d="M 2597 0 
L 2597 488 
Q 2209 -75 1544 -75 
Q 1250 -75 995 37 
Q 741 150 617 320 
Q 494 491 444 738 
Q 409 903 409 1263 
L 409 3319 
L 972 3319 
L 972 1478 
Q 972 1038 1006 884 
Q 1059 663 1231 536 
Q 1403 409 1656 409 
Q 1909 409 2131 539 
Q 2353 669 2445 892 
Q 2538 1116 2538 1541 
L 2538 3319 
L 3100 3319 
L 3100 0 
L 2597 0 
z
" id="ArialMT-75" transform="scale(0.015625)"/>
      <path d="M 422 0 
L 422 3319 
L 925 3319 
L 925 2853 
Q 1081 3097 1340 3245 
Q 1600 3394 1931 3394 
Q 2300 3394 2536 3241 
Q 2772 3088 2869 2813 
Q 3263 3394 3894 3394 
Q 4388 3394 4653 3120 
Q 4919 2847 4919 2278 
L 4919 0 
L 4359 0 
L 4359 2091 
Q 4359 2428 4304 2576 
Q 4250 2725 4106 2815 
Q 3963 2906 3769 2906 
Q 3419 2906 3187 2673 
Q 2956 2441 2956 1928 
L 2956 0 
L 2394 0 
L 2394 2156 
Q 2394 2531 2256 2718 
Q 2119 2906 1806 2906 
Q 1569 2906 1367 2781 
Q 1166 2656 1075 2415 
Q 984 2175 984 1722 
L 984 0 
L 422 0 
z
" id="ArialMT-6d" transform="scale(0.015625)"/>
      <path d="M 409 0 
L 409 4581 
L 972 4581 
L 972 0 
L 409 0 
z
" id="ArialMT-6c" transform="scale(0.015625)"/>
     </defs>
     <use xlink:href="#ArialMT-45"/>
     <use x="66.699219" xlink:href="#ArialMT-6e"/>
     <use x="122.314453" xlink:href="#ArialMT-65"/>
     <use x="177.929688" xlink:href="#ArialMT-72"/>
     <use x="211.230469" xlink:href="#ArialMT-67"/>
     <use x="266.845703" xlink:href="#ArialMT-79"/>
     <use x="316.845703" xlink:href="#ArialMT-20"/>
     <use x="344.628906" xlink:href="#ArialMT-74"/>
     <use x="372.412109" xlink:href="#ArialMT-72"/>
     <use x="405.712891" xlink:href="#ArialMT-61"/>
     <use x="461.328125" xlink:href="#ArialMT-6e"/>
     <use x="516.943359" xlink:href="#ArialMT-73"/>
     <use x="566.943359" xlink:href="#ArialMT-69"/>
     <use x="589.160156" xlink:href="#ArialMT-74"/>
     <use x="616.943359" xlink:href="#ArialMT-69"/>
     <use x="639.160156" xlink:href="#ArialMT-6f"/>
     <use x="694.775391" xlink:href="#ArialMT-6e"/>
     <use x="750.390625" xlink:href="#ArialMT-20"/>
     <use x="778.173828" xlink:href="#ArialMT-64"/>
     <use x="833.789062" xlink:href="#ArialMT-69"/>
     <use x="856.005859" xlink:href="#ArialMT-73"/>
     <use x="906.005859" xlink:href="#ArialMT-74"/>
     <use x="933.789062" xlink:href="#ArialMT-72"/>
     <use x="967.089844" xlink:href="#ArialMT-69"/>
     <use x="989.306641" xlink:href="#ArialMT-62"/>
     <use x="1044.921875" xlink:href="#ArialMT-75"/>
     <use x="1100.537109" xlink:href="#ArialMT-74"/>
     <use x="1128.320312" xlink:href="#ArialMT-69"/>
     <use x="1150.537109" xlink:href="#ArialMT-6f"/>
     <use x="1206.152344" xlink:href="#ArialMT-6e"/>
     <use x="1261.767578" xlink:href="#ArialMT-20"/>
     <use x="1289.550781" xlink:href="#ArialMT-61"/>
     <use x="1345.166016" xlink:href="#ArialMT-6e"/>
     <use x="1400.78125" xlink:href="#ArialMT-64"/>
     <use x="1456.396484" xlink:href="#ArialMT-20"/>
     <use x="1484.179688" xlink:href="#ArialMT-6d"/>
     <use x="1567.480469" xlink:href="#ArialMT-61"/>
     <use x="1623.095703" xlink:href="#ArialMT-72"/>
     <use x="1656.396484" xlink:href="#ArialMT-67"/>
     <use x="1712.011719" xlink:href="#ArialMT-69"/>
     <use x="1734.228516" xlink:href="#ArialMT-6e"/>
     <use x="1789.84375" xlink:href="#ArialMT-61"/>
     <use x="1845.458984" xlink:href="#ArialMT-6c"/>
     <use x="1867.675781" xlink:href="#ArialMT-20"/>
     <use x="1895.458984" xlink:href="#ArialMT-65"/>
     <use x="1951.074219" xlink:href="#ArialMT-6e"/>
     <use x="2006.689453" xlink:href="#ArialMT-65"/>
     <use x="2062.304688" xlink:href="#ArialMT-72"/>
     <use x="2095.605469" xlink:href="#ArialMT-67"/>
     <use x="2151.220703" xlink:href="#ArialMT-79"/>
     <use x="2201.220703" xlink:href="#ArialMT-20"/>
     <use x="2229.003906" xlink:href="#ArialMT-64"/>
     <use x="2284.619141" xlink:href="#ArialMT-69"/>
     <use x="2306.835938" xlink:href="#ArialMT-73"/>
     <use x="2356.835938" xlink:href="#ArialMT-74"/>
     <use x="2384.619141" xlink:href="#ArialMT-72"/>
     <use x="2417.919922" xlink:href="#ArialMT-69"/>
     <use x="2440.136719" xlink:href="#ArialMT-62"/>
     <use x="2495.751953" xlink:href="#ArialMT-75"/>
     <use x="2551.367188" xlink:href="#ArialMT-74"/>
     <use x="2579.150391" xlink:href="#ArialMT-69"/>
     <use x="2601.367188" xlink:href="#ArialMT-6f"/>
     <use x="2656.982422" xlink:href="#ArialMT-6e"/>
    </g>
   </g>
   <g id="legend_1">
    <g id="patch_7">
     <path d="M 433.65625 114.895625 
L 558.2 114.895625 
Q 560.2 114.895625 560.2 112.895625 
L 560.2 28.789375 
Q 560.2 26.789375 558.2 26.789375 
L 433.65625 26.789375 
Q 431.65625 26.789375 431.65625 28.789375 
L 431.65625 112.895625 
Q 431.65625 114.895625 433.65625 114.895625 
z
" style="fill:#e6e6e6;opacity:0.8;stroke:#cccccc;stroke-linejoin:miter;"/>
    </g>
    <g id="line2d_7">
     <path d="M 435.65625 34.447187 
L 455.65625 34.447187 
" style="fill:none;stroke:#4c72b0;stroke-linecap:round;stroke-opacity:0;stroke-width:1.5;"/>
    </g>
    <g id="line2d_8"/>
    <g id="text_2">
     <!-- chain  0 BFMI = 1.12 -->
     <g style="fill:#262626;" transform="translate(463.65625 37.947187)scale(0.1 -0.1)">
      <defs>
       <path d="M 2588 1216 
L 3141 1144 
Q 3050 572 2676 248 
Q 2303 -75 1759 -75 
Q 1078 -75 664 370 
Q 250 816 250 1647 
Q 250 2184 428 2587 
Q 606 2991 970 3192 
Q 1334 3394 1763 3394 
Q 2303 3394 2647 3120 
Q 2991 2847 3088 2344 
L 2541 2259 
Q 2463 2594 2264 2762 
Q 2066 2931 1784 2931 
Q 1359 2931 1093 2626 
Q 828 2322 828 1663 
Q 828 994 1084 691 
Q 1341 388 1753 388 
Q 2084 388 2306 591 
Q 2528 794 2588 1216 
z
" id="ArialMT-63" transform="scale(0.015625)"/>
       <path d="M 422 0 
L 422 4581 
L 984 4581 
L 984 2938 
Q 1378 3394 1978 3394 
Q 2347 3394 2619 3248 
Q 2891 3103 3008 2847 
Q 3125 2591 3125 2103 
L 3125 0 
L 2563 0 
L 2563 2103 
Q 2563 2525 2380 2717 
Q 2197 2909 1863 2909 
Q 1613 2909 1392 2779 
Q 1172 2650 1078 2428 
Q 984 2206 984 1816 
L 984 0 
L 422 0 
z
" id="ArialMT-68" transform="scale(0.015625)"/>
       <path d="M 266 2259 
Q 266 3072 433 3567 
Q 600 4063 929 4331 
Q 1259 4600 1759 4600 
Q 2128 4600 2406 4451 
Q 2684 4303 2865 4023 
Q 3047 3744 3150 3342 
Q 3253 2941 3253 2259 
Q 3253 1453 3087 958 
Q 2922 463 2592 192 
Q 2263 -78 1759 -78 
Q 1097 -78 719 397 
Q 266 969 266 2259 
z
M 844 2259 
Q 844 1131 1108 757 
Q 1372 384 1759 384 
Q 2147 384 2411 759 
Q 2675 1134 2675 2259 
Q 2675 3391 2411 3762 
Q 2147 4134 1753 4134 
Q 1366 4134 1134 3806 
Q 844 3388 844 2259 
z
" id="ArialMT-30" transform="scale(0.015625)"/>
       <path d="M 469 0 
L 469 4581 
L 2188 4581 
Q 2713 4581 3030 4442 
Q 3347 4303 3526 4014 
Q 3706 3725 3706 3409 
Q 3706 3116 3547 2856 
Q 3388 2597 3066 2438 
Q 3481 2316 3704 2022 
Q 3928 1728 3928 1328 
Q 3928 1006 3792 729 
Q 3656 453 3456 303 
Q 3256 153 2954 76 
Q 2653 0 2216 0 
L 469 0 
z
M 1075 2656 
L 2066 2656 
Q 2469 2656 2644 2709 
Q 2875 2778 2992 2937 
Q 3109 3097 3109 3338 
Q 3109 3566 3000 3739 
Q 2891 3913 2687 3977 
Q 2484 4041 1991 4041 
L 1075 4041 
L 1075 2656 
z
M 1075 541 
L 2216 541 
Q 2509 541 2628 563 
Q 2838 600 2978 687 
Q 3119 775 3209 942 
Q 3300 1109 3300 1328 
Q 3300 1584 3169 1773 
Q 3038 1963 2805 2039 
Q 2572 2116 2134 2116 
L 1075 2116 
L 1075 541 
z
" id="ArialMT-42" transform="scale(0.015625)"/>
       <path d="M 525 0 
L 525 4581 
L 3616 4581 
L 3616 4041 
L 1131 4041 
L 1131 2622 
L 3281 2622 
L 3281 2081 
L 1131 2081 
L 1131 0 
L 525 0 
z
" id="ArialMT-46" transform="scale(0.015625)"/>
       <path d="M 475 0 
L 475 4581 
L 1388 4581 
L 2472 1338 
Q 2622 884 2691 659 
Q 2769 909 2934 1394 
L 4031 4581 
L 4847 4581 
L 4847 0 
L 4263 0 
L 4263 3834 
L 2931 0 
L 2384 0 
L 1059 3900 
L 1059 0 
L 475 0 
z
" id="ArialMT-4d" transform="scale(0.015625)"/>
       <path d="M 597 0 
L 597 4581 
L 1203 4581 
L 1203 0 
L 597 0 
z
" id="ArialMT-49" transform="scale(0.015625)"/>
       <path d="M 3381 2694 
L 356 2694 
L 356 3219 
L 3381 3219 
L 3381 2694 
z
M 3381 1303 
L 356 1303 
L 356 1828 
L 3381 1828 
L 3381 1303 
z
" id="ArialMT-3d" transform="scale(0.015625)"/>
       <path d="M 2384 0 
L 1822 0 
L 1822 3584 
Q 1619 3391 1289 3197 
Q 959 3003 697 2906 
L 697 3450 
Q 1169 3672 1522 3987 
Q 1875 4303 2022 4600 
L 2384 4600 
L 2384 0 
z
" id="ArialMT-31" transform="scale(0.015625)"/>
       <path d="M 581 0 
L 581 641 
L 1222 641 
L 1222 0 
L 581 0 
z
" id="ArialMT-2e" transform="scale(0.015625)"/>
       <path d="M 3222 541 
L 3222 0 
L 194 0 
Q 188 203 259 391 
Q 375 700 629 1000 
Q 884 1300 1366 1694 
Q 2113 2306 2375 2664 
Q 2638 3022 2638 3341 
Q 2638 3675 2398 3904 
Q 2159 4134 1775 4134 
Q 1369 4134 1125 3890 
Q 881 3647 878 3216 
L 300 3275 
Q 359 3922 746 4261 
Q 1134 4600 1788 4600 
Q 2447 4600 2831 4234 
Q 3216 3869 3216 3328 
Q 3216 3053 3103 2787 
Q 2991 2522 2730 2228 
Q 2469 1934 1863 1422 
Q 1356 997 1212 845 
Q 1069 694 975 541 
L 3222 541 
z
" id="ArialMT-32" transform="scale(0.015625)"/>
      </defs>
      <use xlink:href="#ArialMT-63"/>
      <use x="50" xlink:href="#ArialMT-68"/>
      <use x="105.615234" xlink:href="#ArialMT-61"/>
      <use x="161.230469" xlink:href="#ArialMT-69"/>
      <use x="183.447266" xlink:href="#ArialMT-6e"/>
      <use x="239.0625" xlink:href="#ArialMT-20"/>
      <use x="266.845703" xlink:href="#ArialMT-20"/>
      <use x="294.628906" xlink:href="#ArialMT-30"/>
      <use x="350.244141" xlink:href="#ArialMT-20"/>
      <use x="378.027344" xlink:href="#ArialMT-42"/>
      <use x="444.726562" xlink:href="#ArialMT-46"/>
      <use x="505.810547" xlink:href="#ArialMT-4d"/>
      <use x="589.111328" xlink:href="#ArialMT-49"/>
      <use x="616.894531" xlink:href="#ArialMT-20"/>
      <use x="644.677734" xlink:href="#ArialMT-3d"/>
      <use x="703.076172" xlink:href="#ArialMT-20"/>
      <use x="730.859375" xlink:href="#ArialMT-31"/>
      <use x="786.474609" xlink:href="#ArialMT-2e"/>
      <use x="814.257812" xlink:href="#ArialMT-31"/>
      <use x="869.873047" xlink:href="#ArialMT-32"/>
     </g>
    </g>
    <g id="line2d_9">
     <path d="M 435.65625 48.5925 
L 455.65625 48.5925 
" style="fill:none;stroke:#dd8452;stroke-linecap:round;stroke-opacity:0;stroke-width:1.5;"/>
    </g>
    <g id="line2d_10"/>
    <g id="text_3">
     <!-- chain  1 BFMI = 1.13 -->
     <g style="fill:#262626;" transform="translate(463.65625 52.0925)scale(0.1 -0.1)">
      <defs>
       <path d="M 269 1209 
L 831 1284 
Q 928 806 1161 595 
Q 1394 384 1728 384 
Q 2125 384 2398 659 
Q 2672 934 2672 1341 
Q 2672 1728 2419 1979 
Q 2166 2231 1775 2231 
Q 1616 2231 1378 2169 
L 1441 2663 
Q 1497 2656 1531 2656 
Q 1891 2656 2178 2843 
Q 2466 3031 2466 3422 
Q 2466 3731 2256 3934 
Q 2047 4138 1716 4138 
Q 1388 4138 1169 3931 
Q 950 3725 888 3313 
L 325 3413 
Q 428 3978 793 4289 
Q 1159 4600 1703 4600 
Q 2078 4600 2393 4439 
Q 2709 4278 2876 4000 
Q 3044 3722 3044 3409 
Q 3044 3113 2884 2869 
Q 2725 2625 2413 2481 
Q 2819 2388 3044 2092 
Q 3269 1797 3269 1353 
Q 3269 753 2831 336 
Q 2394 -81 1725 -81 
Q 1122 -81 723 278 
Q 325 638 269 1209 
z
" id="ArialMT-33" transform="scale(0.015625)"/>
      </defs>
      <use xlink:href="#ArialMT-63"/>
      <use x="50" xlink:href="#ArialMT-68"/>
      <use x="105.615234" xlink:href="#ArialMT-61"/>
      <use x="161.230469" xlink:href="#ArialMT-69"/>
      <use x="183.447266" xlink:href="#ArialMT-6e"/>
      <use x="239.0625" xlink:href="#ArialMT-20"/>
      <use x="266.845703" xlink:href="#ArialMT-20"/>
      <use x="294.628906" xlink:href="#ArialMT-31"/>
      <use x="350.244141" xlink:href="#ArialMT-20"/>
      <use x="378.027344" xlink:href="#ArialMT-42"/>
      <use x="444.726562" xlink:href="#ArialMT-46"/>
      <use x="505.810547" xlink:href="#ArialMT-4d"/>
      <use x="589.111328" xlink:href="#ArialMT-49"/>
      <use x="616.894531" xlink:href="#ArialMT-20"/>
      <use x="644.677734" xlink:href="#ArialMT-3d"/>
      <use x="703.076172" xlink:href="#ArialMT-20"/>
      <use x="730.859375" xlink:href="#ArialMT-31"/>
      <use x="786.474609" xlink:href="#ArialMT-2e"/>
      <use x="814.257812" xlink:href="#ArialMT-31"/>
      <use x="869.873047" xlink:href="#ArialMT-33"/>
     </g>
    </g>
    <g id="line2d_11">
     <path d="M 435.65625 62.737812 
L 455.65625 62.737812 
" style="fill:none;stroke:#55a868;stroke-linecap:round;stroke-opacity:0;stroke-width:1.5;"/>
    </g>
    <g id="line2d_12"/>
    <g id="text_4">
     <!-- chain  2 BFMI = 1.10 -->
     <g style="fill:#262626;" transform="translate(463.65625 66.237812)scale(0.1 -0.1)">
      <use xlink:href="#ArialMT-63"/>
      <use x="50" xlink:href="#ArialMT-68"/>
      <use x="105.615234" xlink:href="#ArialMT-61"/>
      <use x="161.230469" xlink:href="#ArialMT-69"/>
      <use x="183.447266" xlink:href="#ArialMT-6e"/>
      <use x="239.0625" xlink:href="#ArialMT-20"/>
      <use x="266.845703" xlink:href="#ArialMT-20"/>
      <use x="294.628906" xlink:href="#ArialMT-32"/>
      <use x="350.244141" xlink:href="#ArialMT-20"/>
      <use x="378.027344" xlink:href="#ArialMT-42"/>
      <use x="444.726562" xlink:href="#ArialMT-46"/>
      <use x="505.810547" xlink:href="#ArialMT-4d"/>
      <use x="589.111328" xlink:href="#ArialMT-49"/>
      <use x="616.894531" xlink:href="#ArialMT-20"/>
      <use x="644.677734" xlink:href="#ArialMT-3d"/>
      <use x="703.076172" xlink:href="#ArialMT-20"/>
      <use x="730.859375" xlink:href="#ArialMT-31"/>
      <use x="786.474609" xlink:href="#ArialMT-2e"/>
      <use x="814.257812" xlink:href="#ArialMT-31"/>
      <use x="869.873047" xlink:href="#ArialMT-30"/>
     </g>
    </g>
    <g id="line2d_13">
     <path d="M 435.65625 76.883125 
L 455.65625 76.883125 
" style="fill:none;stroke:#c44e52;stroke-linecap:round;stroke-opacity:0;stroke-width:1.5;"/>
    </g>
    <g id="line2d_14"/>
    <g id="text_5">
     <!-- chain  3 BFMI = 1.15 -->
     <g style="fill:#262626;" transform="translate(463.65625 80.383125)scale(0.1 -0.1)">
      <defs>
       <path d="M 266 1200 
L 856 1250 
Q 922 819 1161 601 
Q 1400 384 1738 384 
Q 2144 384 2425 690 
Q 2706 997 2706 1503 
Q 2706 1984 2436 2262 
Q 2166 2541 1728 2541 
Q 1456 2541 1237 2417 
Q 1019 2294 894 2097 
L 366 2166 
L 809 4519 
L 3088 4519 
L 3088 3981 
L 1259 3981 
L 1013 2750 
Q 1425 3038 1878 3038 
Q 2478 3038 2890 2622 
Q 3303 2206 3303 1553 
Q 3303 931 2941 478 
Q 2500 -78 1738 -78 
Q 1113 -78 717 272 
Q 322 622 266 1200 
z
" id="ArialMT-35" transform="scale(0.015625)"/>
      </defs>
      <use xlink:href="#ArialMT-63"/>
      <use x="50" xlink:href="#ArialMT-68"/>
      <use x="105.615234" xlink:href="#ArialMT-61"/>
      <use x="161.230469" xlink:href="#ArialMT-69"/>
      <use x="183.447266" xlink:href="#ArialMT-6e"/>
      <use x="239.0625" xlink:href="#ArialMT-20"/>
      <use x="266.845703" xlink:href="#ArialMT-20"/>
      <use x="294.628906" xlink:href="#ArialMT-33"/>
      <use x="350.244141" xlink:href="#ArialMT-20"/>
      <use x="378.027344" xlink:href="#ArialMT-42"/>
      <use x="444.726562" xlink:href="#ArialMT-46"/>
      <use x="505.810547" xlink:href="#ArialMT-4d"/>
      <use x="589.111328" xlink:href="#ArialMT-49"/>
      <use x="616.894531" xlink:href="#ArialMT-20"/>
      <use x="644.677734" xlink:href="#ArialMT-3d"/>
      <use x="703.076172" xlink:href="#ArialMT-20"/>
      <use x="730.859375" xlink:href="#ArialMT-31"/>
      <use x="786.474609" xlink:href="#ArialMT-2e"/>
      <use x="814.257812" xlink:href="#ArialMT-31"/>
      <use x="869.873047" xlink:href="#ArialMT-35"/>
     </g>
    </g>
    <g id="patch_8">
     <path d="M 435.65625 94.528437 
L 455.65625 94.528437 
L 455.65625 87.528437 
L 435.65625 87.528437 
z
" style="fill:#4c72b0;opacity:0.5;stroke:#4c72b0;stroke-linejoin:miter;"/>
    </g>
    <g id="text_6">
     <!-- Marginal Energy -->
     <g style="fill:#262626;" transform="translate(463.65625 94.528437)scale(0.1 -0.1)">
      <use xlink:href="#ArialMT-4d"/>
      <use x="83.300781" xlink:href="#ArialMT-61"/>
      <use x="138.916016" xlink:href="#ArialMT-72"/>
      <use x="172.216797" xlink:href="#ArialMT-67"/>
      <use x="227.832031" xlink:href="#ArialMT-69"/>
      <use x="250.048828" xlink:href="#ArialMT-6e"/>
      <use x="305.664062" xlink:href="#ArialMT-61"/>
      <use x="361.279297" xlink:href="#ArialMT-6c"/>
      <use x="383.496094" xlink:href="#ArialMT-20"/>
      <use x="411.279297" xlink:href="#ArialMT-45"/>
      <use x="477.978516" xlink:href="#ArialMT-6e"/>
      <use x="533.59375" xlink:href="#ArialMT-65"/>
      <use x="589.208984" xlink:href="#ArialMT-72"/>
      <use x="622.509766" xlink:href="#ArialMT-67"/>
      <use x="678.125" xlink:href="#ArialMT-79"/>
     </g>
    </g>
    <g id="patch_9">
     <path d="M 435.65625 108.790937 
L 455.65625 108.790937 
L 455.65625 101.790937 
L 435.65625 101.790937 
z
" style="fill:#c44e52;opacity:0.5;stroke:#c44e52;stroke-linejoin:miter;"/>
    </g>
    <g id="text_7">
     <!-- Energy transition -->
     <g style="fill:#262626;" transform="translate(463.65625 108.790937)scale(0.1 -0.1)">
      <use xlink:href="#ArialMT-45"/>
      <use x="66.699219" xlink:href="#ArialMT-6e"/>
      <use x="122.314453" xlink:href="#ArialMT-65"/>
      <use x="177.929688" xlink:href="#ArialMT-72"/>
      <use x="211.230469" xlink:href="#ArialMT-67"/>
      <use x="266.845703" xlink:href="#ArialMT-79"/>
      <use x="316.845703" xlink:href="#ArialMT-20"/>
      <use x="344.628906" xlink:href="#ArialMT-74"/>
      <use x="372.412109" xlink:href="#ArialMT-72"/>
      <use x="405.712891" xlink:href="#ArialMT-61"/>
      <use x="461.328125" xlink:href="#ArialMT-6e"/>
      <use x="516.943359" xlink:href="#ArialMT-73"/>
      <use x="566.943359" xlink:href="#ArialMT-69"/>
      <use x="589.160156" xlink:href="#ArialMT-74"/>
      <use x="616.943359" xlink:href="#ArialMT-69"/>
      <use x="639.160156" xlink:href="#ArialMT-6f"/>
      <use x="694.775391" xlink:href="#ArialMT-6e"/>
     </g>
    </g>
   </g>
  </g>
 </g>
 <defs>
  <clipPath id="pd1ad01e678">
   <rect height="380.52" width="558" x="7.2" y="21.789375"/>
  </clipPath>
 </defs>
</svg>
