<?xml version="1.0" encoding="utf-8" standalone="no"?>
<!DOCTYPE svg PUBLIC "-//W3C//DTD SVG 1.1//EN"
  "http://www.w3.org/Graphics/SVG/1.1/DTD/svg11.dtd">
<!-- Created with matplotlib (https://matplotlib.org/) -->
<svg height="384.58625pt" version="1.1" viewBox="0 0 748.401562 384.58625" width="748.401562pt" xmlns="http://www.w3.org/2000/svg" xmlns:xlink="http://www.w3.org/1999/xlink">
 <metadata>
  <rdf:RDF xmlns:cc="http://creativecommons.org/ns#" xmlns:dc="http://purl.org/dc/elements/1.1/" xmlns:rdf="http://www.w3.org/1999/02/22-rdf-syntax-ns#">
   <cc:Work>
    <dc:type rdf:resource="http://purl.org/dc/dcmitype/StillImage"/>
    <dc:date>2020-12-29T19:10:00.282314</dc:date>
    <dc:format>image/svg+xml</dc:format>
    <dc:creator>
     <cc:Agent>
      <dc:title>Matplotlib v3.3.1, https://matplotlib.org/</dc:title>
     </cc:Agent>
    </dc:creator>
   </cc:Work>
  </rdf:RDF>
 </metadata>
 <defs>
  <style type="text/css">*{stroke-linecap:butt;stroke-linejoin:round;}</style>
 </defs>
 <g id="figure_1">
  <g id="patch_1">
   <path d="M 0 384.58625 
L 748.401562 384.58625 
L 748.401562 0 
L 0 0 
z
" style="fill:#ffffff;"/>
  </g>
  <g id="axes_1">
   <g id="patch_2">
    <path d="M 25.601563 348.095625 
L 695.201563 348.095625 
L 695.201563 21.935625 
L 25.601563 21.935625 
z
" style="fill:#e6e6e6;"/>
   </g>
   <g id="matplotlib.axis_1">
    <g id="xtick_1">
     <g id="line2d_1">
      <path clip-path="url(#pd79f6ebd73)" d="M 56.037926 348.095625 
L 56.037926 21.935625 
" style="fill:none;stroke:#cccccc;stroke-linecap:round;stroke-width:0.8;"/>
     </g>
     <g id="text_1">
      <!-- 0 -->
      <g style="fill:#262626;" transform="translate(53.257457 362.253438)scale(0.1 -0.1)">
       <defs>
        <path d="M 4.15625 35.296875 
Q 4.15625 48 6.765625 55.734375 
Q 9.375 63.484375 14.515625 67.671875 
Q 19.671875 71.875 27.484375 71.875 
Q 33.25 71.875 37.59375 69.546875 
Q 41.9375 67.234375 44.765625 62.859375 
Q 47.609375 58.5 49.21875 52.21875 
Q 50.828125 45.953125 50.828125 35.296875 
Q 50.828125 22.703125 48.234375 14.96875 
Q 45.65625 7.234375 40.5 3 
Q 35.359375 -1.21875 27.484375 -1.21875 
Q 17.140625 -1.21875 11.234375 6.203125 
Q 4.15625 15.140625 4.15625 35.296875 
z
M 13.1875 35.296875 
Q 13.1875 17.671875 17.3125 11.828125 
Q 21.4375 6 27.484375 6 
Q 33.546875 6 37.671875 11.859375 
Q 41.796875 17.71875 41.796875 35.296875 
Q 41.796875 52.984375 37.671875 58.78125 
Q 33.546875 64.59375 27.390625 64.59375 
Q 21.34375 64.59375 17.71875 59.46875 
Q 13.1875 52.9375 13.1875 35.296875 
z
" id="ArialMT-48"/>
       </defs>
       <use xlink:href="#ArialMT-48"/>
      </g>
     </g>
    </g>
    <g id="xtick_2">
     <g id="line2d_2">
      <path clip-path="url(#pd79f6ebd73)" d="M 191.611929 348.095625 
L 191.611929 21.935625 
" style="fill:none;stroke:#cccccc;stroke-linecap:round;stroke-width:0.8;"/>
     </g>
     <g id="text_2">
      <!-- 100 -->
      <g style="fill:#262626;" transform="translate(183.270523 362.253438)scale(0.1 -0.1)">
       <defs>
        <path d="M 37.25 0 
L 28.46875 0 
L 28.46875 56 
Q 25.296875 52.984375 20.140625 49.953125 
Q 14.984375 46.921875 10.890625 45.40625 
L 10.890625 53.90625 
Q 18.265625 57.375 23.78125 62.296875 
Q 29.296875 67.234375 31.59375 71.875 
L 37.25 71.875 
z
" id="ArialMT-49"/>
       </defs>
       <use xlink:href="#ArialMT-49"/>
       <use x="55.615234" xlink:href="#ArialMT-48"/>
       <use x="111.230469" xlink:href="#ArialMT-48"/>
      </g>
     </g>
    </g>
    <g id="xtick_3">
     <g id="line2d_3">
      <path clip-path="url(#pd79f6ebd73)" d="M 327.185932 348.095625 
L 327.185932 21.935625 
" style="fill:none;stroke:#cccccc;stroke-linecap:round;stroke-width:0.8;"/>
     </g>
     <g id="text_3">
      <!-- 200 -->
      <g style="fill:#262626;" transform="translate(318.844526 362.253438)scale(0.1 -0.1)">
       <defs>
        <path d="M 50.34375 8.453125 
L 50.34375 0 
L 3.03125 0 
Q 2.9375 3.171875 4.046875 6.109375 
Q 5.859375 10.9375 9.828125 15.625 
Q 13.8125 20.3125 21.34375 26.46875 
Q 33.015625 36.03125 37.109375 41.625 
Q 41.21875 47.21875 41.21875 52.203125 
Q 41.21875 57.421875 37.46875 61 
Q 33.734375 64.59375 27.734375 64.59375 
Q 21.390625 64.59375 17.578125 60.78125 
Q 13.765625 56.984375 13.71875 50.25 
L 4.6875 51.171875 
Q 5.609375 61.28125 11.65625 66.578125 
Q 17.71875 71.875 27.9375 71.875 
Q 38.234375 71.875 44.234375 66.15625 
Q 50.25 60.453125 50.25 52 
Q 50.25 47.703125 48.484375 43.546875 
Q 46.734375 39.40625 42.65625 34.8125 
Q 38.578125 30.21875 29.109375 22.21875 
Q 21.1875 15.578125 18.9375 13.203125 
Q 16.703125 10.84375 15.234375 8.453125 
z
" id="ArialMT-50"/>
       </defs>
       <use xlink:href="#ArialMT-50"/>
       <use x="55.615234" xlink:href="#ArialMT-48"/>
       <use x="111.230469" xlink:href="#ArialMT-48"/>
      </g>
     </g>
    </g>
    <g id="xtick_4">
     <g id="line2d_4">
      <path clip-path="url(#pd79f6ebd73)" d="M 462.759935 348.095625 
L 462.759935 21.935625 
" style="fill:none;stroke:#cccccc;stroke-linecap:round;stroke-width:0.8;"/>
     </g>
     <g id="text_4">
      <!-- 300 -->
      <g style="fill:#262626;" transform="translate(454.418528 362.253438)scale(0.1 -0.1)">
       <defs>
        <path d="M 4.203125 18.890625 
L 12.984375 20.0625 
Q 14.5 12.59375 18.140625 9.296875 
Q 21.78125 6 27 6 
Q 33.203125 6 37.46875 10.296875 
Q 41.75 14.59375 41.75 20.953125 
Q 41.75 27 37.796875 30.921875 
Q 33.84375 34.859375 27.734375 34.859375 
Q 25.25 34.859375 21.53125 33.890625 
L 22.515625 41.609375 
Q 23.390625 41.5 23.921875 41.5 
Q 29.546875 41.5 34.03125 44.421875 
Q 38.53125 47.359375 38.53125 53.46875 
Q 38.53125 58.296875 35.25 61.46875 
Q 31.984375 64.65625 26.8125 64.65625 
Q 21.6875 64.65625 18.265625 61.421875 
Q 14.84375 58.203125 13.875 51.765625 
L 5.078125 53.328125 
Q 6.6875 62.15625 12.390625 67.015625 
Q 18.109375 71.875 26.609375 71.875 
Q 32.46875 71.875 37.390625 69.359375 
Q 42.328125 66.84375 44.9375 62.5 
Q 47.5625 58.15625 47.5625 53.265625 
Q 47.5625 48.640625 45.0625 44.828125 
Q 42.578125 41.015625 37.703125 38.765625 
Q 44.046875 37.3125 47.5625 32.6875 
Q 51.078125 28.078125 51.078125 21.140625 
Q 51.078125 11.765625 44.234375 5.25 
Q 37.40625 -1.265625 26.953125 -1.265625 
Q 17.53125 -1.265625 11.296875 4.34375 
Q 5.078125 9.96875 4.203125 18.890625 
z
" id="ArialMT-51"/>
       </defs>
       <use xlink:href="#ArialMT-51"/>
       <use x="55.615234" xlink:href="#ArialMT-48"/>
       <use x="111.230469" xlink:href="#ArialMT-48"/>
      </g>
     </g>
    </g>
    <g id="xtick_5">
     <g id="line2d_5">
      <path clip-path="url(#pd79f6ebd73)" d="M 598.333937 348.095625 
L 598.333937 21.935625 
" style="fill:none;stroke:#cccccc;stroke-linecap:round;stroke-width:0.8;"/>
     </g>
     <g id="text_5">
      <!-- 400 -->
      <g style="fill:#262626;" transform="translate(589.992531 362.253438)scale(0.1 -0.1)">
       <defs>
        <path d="M 32.328125 0 
L 32.328125 17.140625 
L 1.265625 17.140625 
L 1.265625 25.203125 
L 33.9375 71.578125 
L 41.109375 71.578125 
L 41.109375 25.203125 
L 50.78125 25.203125 
L 50.78125 17.140625 
L 41.109375 17.140625 
L 41.109375 0 
z
M 32.328125 25.203125 
L 32.328125 57.46875 
L 9.90625 25.203125 
z
" id="ArialMT-52"/>
       </defs>
       <use xlink:href="#ArialMT-52"/>
       <use x="55.615234" xlink:href="#ArialMT-48"/>
       <use x="111.230469" xlink:href="#ArialMT-48"/>
      </g>
     </g>
    </g>
    <g id="text_6">
     <!-- t -->
     <g style="fill:#262626;" transform="translate(359.0125 375.39875)scale(0.1 -0.1)">
      <defs>
       <path d="M 25.78125 7.859375 
L 27.046875 0.09375 
Q 23.34375 -0.6875 20.40625 -0.6875 
Q 15.625 -0.6875 12.984375 0.828125 
Q 10.359375 2.34375 9.28125 4.8125 
Q 8.203125 7.28125 8.203125 15.1875 
L 8.203125 45.015625 
L 1.765625 45.015625 
L 1.765625 51.859375 
L 8.203125 51.859375 
L 8.203125 64.703125 
L 16.9375 69.96875 
L 16.9375 51.859375 
L 25.78125 51.859375 
L 25.78125 45.015625 
L 16.9375 45.015625 
L 16.9375 14.703125 
Q 16.9375 10.9375 17.40625 9.859375 
Q 17.875 8.796875 18.921875 8.15625 
Q 19.96875 7.515625 21.921875 7.515625 
Q 23.390625 7.515625 25.78125 7.859375 
z
" id="ArialMT-116"/>
      </defs>
      <use xlink:href="#ArialMT-116"/>
     </g>
    </g>
   </g>
   <g id="matplotlib.axis_2">
    <g id="ytick_1">
     <g id="line2d_6">
      <path clip-path="url(#pd79f6ebd73)" d="M 25.601563 327.765254 
L 695.201563 327.765254 
" style="fill:none;stroke:#cccccc;stroke-linecap:round;stroke-width:0.8;"/>
     </g>
     <g id="text_7">
      <!-- −2 -->
      <g style="fill:#262626;" transform="translate(7.2 331.34416)scale(0.1 -0.1)">
       <defs>
        <path d="M 52.828125 31.203125 
L 5.5625 31.203125 
L 5.5625 39.40625 
L 52.828125 39.40625 
z
" id="ArialMT-8722"/>
       </defs>
       <use xlink:href="#ArialMT-8722"/>
       <use x="58.398438" xlink:href="#ArialMT-50"/>
      </g>
     </g>
    </g>
    <g id="ytick_2">
     <g id="line2d_7">
      <path clip-path="url(#pd79f6ebd73)" d="M 25.601563 261.517011 
L 695.201563 261.517011 
" style="fill:none;stroke:#cccccc;stroke-linecap:round;stroke-width:0.8;"/>
     </g>
     <g id="text_8">
      <!-- 0 -->
      <g style="fill:#262626;" transform="translate(13.040625 265.095917)scale(0.1 -0.1)">
       <use xlink:href="#ArialMT-48"/>
      </g>
     </g>
    </g>
    <g id="ytick_3">
     <g id="line2d_8">
      <path clip-path="url(#pd79f6ebd73)" d="M 25.601563 195.268768 
L 695.201563 195.268768 
" style="fill:none;stroke:#cccccc;stroke-linecap:round;stroke-width:0.8;"/>
     </g>
     <g id="text_9">
      <!-- 2 -->
      <g style="fill:#262626;" transform="translate(13.040625 198.847675)scale(0.1 -0.1)">
       <use xlink:href="#ArialMT-50"/>
      </g>
     </g>
    </g>
    <g id="ytick_4">
     <g id="line2d_9">
      <path clip-path="url(#pd79f6ebd73)" d="M 25.601563 129.020526 
L 695.201563 129.020526 
" style="fill:none;stroke:#cccccc;stroke-linecap:round;stroke-width:0.8;"/>
     </g>
     <g id="text_10">
      <!-- 4 -->
      <g style="fill:#262626;" transform="translate(13.040625 132.599432)scale(0.1 -0.1)">
       <use xlink:href="#ArialMT-52"/>
      </g>
     </g>
    </g>
    <g id="ytick_5">
     <g id="line2d_10">
      <path clip-path="url(#pd79f6ebd73)" d="M 25.601563 62.772283 
L 695.201563 62.772283 
" style="fill:none;stroke:#cccccc;stroke-linecap:round;stroke-width:0.8;"/>
     </g>
     <g id="text_11">
      <!-- 6 -->
      <g style="fill:#262626;" transform="translate(13.040625 66.351189)scale(0.1 -0.1)">
       <defs>
        <path d="M 49.75 54.046875 
L 41.015625 53.375 
Q 39.84375 58.546875 37.703125 60.890625 
Q 34.125 64.65625 28.90625 64.65625 
Q 24.703125 64.65625 21.53125 62.3125 
Q 17.390625 59.28125 14.984375 53.46875 
Q 12.59375 47.65625 12.5 36.921875 
Q 15.671875 41.75 20.265625 44.09375 
Q 24.859375 46.4375 29.890625 46.4375 
Q 38.671875 46.4375 44.84375 39.96875 
Q 51.03125 33.5 51.03125 23.25 
Q 51.03125 16.5 48.125 10.71875 
Q 45.21875 4.9375 40.140625 1.859375 
Q 35.0625 -1.21875 28.609375 -1.21875 
Q 17.625 -1.21875 10.6875 6.859375 
Q 3.765625 14.9375 3.765625 33.5 
Q 3.765625 54.25 11.421875 63.671875 
Q 18.109375 71.875 29.4375 71.875 
Q 37.890625 71.875 43.28125 67.140625 
Q 48.6875 62.40625 49.75 54.046875 
z
M 13.875 23.1875 
Q 13.875 18.65625 15.796875 14.5 
Q 17.71875 10.359375 21.1875 8.171875 
Q 24.65625 6 28.46875 6 
Q 34.03125 6 38.03125 10.484375 
Q 42.046875 14.984375 42.046875 22.703125 
Q 42.046875 30.125 38.078125 34.390625 
Q 34.125 38.671875 28.125 38.671875 
Q 22.171875 38.671875 18.015625 34.390625 
Q 13.875 30.125 13.875 23.1875 
z
" id="ArialMT-54"/>
       </defs>
       <use xlink:href="#ArialMT-54"/>
      </g>
     </g>
    </g>
   </g>
   <g id="line2d_11">
    <path clip-path="url(#pd79f6ebd73)" d="M 56.037926 256.581045 
L 57.393666 237.123343 
L 58.749406 207.10257 
L 60.105146 182.578044 
L 61.460886 192.12494 
L 62.816626 192.059329 
L 64.172366 180.228176 
L 65.528106 197.996577 
L 66.883846 220.248732 
L 68.239586 217.38366 
L 69.595326 229.683259 
L 70.951066 226.384763 
L 72.306806 211.219988 
L 73.662547 221.874826 
L 75.018287 209.669212 
L 76.374027 191.457858 
L 77.729767 195.651453 
L 79.085507 190.081405 
L 81.796987 244.522298 
L 83.152727 241.110041 
L 84.508467 282.933386 
L 85.864207 301.325256 
L 87.219947 330.977575 
L 88.575687 329.116779 
L 89.931427 321.698908 
L 91.287167 327.202263 
L 92.642907 301.645503 
L 93.998647 300.871512 
L 95.354387 290.230805 
L 96.710127 290.703987 
L 98.065867 269.331053 
L 99.421607 295.613825 
L 100.777347 316.221356 
L 102.133087 307.169287 
L 103.488827 333.27017 
L 104.844567 318.366059 
L 106.200307 331.269576 
L 107.556047 308.497658 
L 108.911787 270.668989 
L 110.267527 239.364778 
L 112.979007 200.551868 
L 114.334747 187.252534 
L 115.690487 191.766378 
L 117.046227 184.774862 
L 118.401967 188.751281 
L 119.757707 183.405086 
L 121.113447 200.15396 
L 122.469188 227.707508 
L 123.824928 208.552592 
L 125.180668 211.572785 
L 126.536408 205.80179 
L 127.892148 181.980283 
L 129.247888 167.565849 
L 130.603628 162.30653 
L 131.959368 180.256734 
L 133.315108 183.339275 
L 134.670848 193.138877 
L 136.026588 208.969422 
L 137.382328 248.749516 
L 138.738068 270.643225 
L 140.093808 300.596375 
L 141.449548 315.622861 
L 142.805288 301.823044 
L 144.161028 294.91062 
L 145.516768 301.718318 
L 146.872508 280.627431 
L 148.228248 276.847785 
L 149.583988 279.8647 
L 150.939728 267.97611 
L 152.295468 259.997095 
L 153.651208 283.905996 
L 155.006948 278.470475 
L 156.362688 329.580768 
L 157.718428 300.75353 
L 159.074168 306.711042 
L 160.429908 301.169349 
L 161.785648 280.133463 
L 163.141388 277.686302 
L 164.497128 234.075601 
L 167.208608 170.642178 
L 168.564348 176.031708 
L 169.920089 172.453014 
L 171.275829 170.546038 
L 172.631569 163.348844 
L 173.987309 178.914688 
L 175.343049 196.771289 
L 176.698789 192.432169 
L 178.054529 197.429547 
L 179.410269 184.046194 
L 180.766009 191.462464 
L 182.121749 176.504286 
L 183.477489 167.017721 
L 184.833229 171.850327 
L 186.188969 155.376786 
L 187.544709 164.806854 
L 188.900449 184.162518 
L 190.256189 209.199424 
L 191.611929 246.360799 
L 192.967669 261.048625 
L 195.679149 298.55099 
L 197.034889 297.621857 
L 198.390629 289.911373 
L 199.746369 267.480134 
L 201.102109 274.103123 
L 202.457849 263.468834 
L 203.813589 260.383966 
L 205.169329 277.551024 
L 206.525069 263.150566 
L 207.880809 271.059957 
L 209.236549 257.854199 
L 210.592289 293.635021 
L 211.948029 293.650351 
L 213.303769 294.983392 
L 214.659509 296.141993 
L 216.015249 255.379417 
L 217.37099 235.746064 
L 218.72673 209.228546 
L 220.08247 201.021984 
L 221.43821 157.377896 
L 222.79395 171.506983 
L 224.14969 145.999639 
L 225.50543 131.778007 
L 226.86117 170.575807 
L 228.21691 176.061617 
L 229.57265 178.405623 
L 232.28413 200.351183 
L 233.63987 178.854361 
L 234.99561 180.416594 
L 236.35135 153.728113 
L 237.70709 157.598387 
L 239.06283 127.708909 
L 240.41857 152.577376 
L 241.77431 157.80709 
L 243.13005 163.966209 
L 244.48579 207.329942 
L 245.84153 218.334969 
L 247.19727 231.908317 
L 248.55301 280.598517 
L 249.90875 275.512651 
L 251.26449 279.491455 
L 252.62023 271.650589 
L 253.97597 283.722468 
L 255.33171 274.218474 
L 256.68745 246.478941 
L 258.04319 242.952779 
L 259.39893 242.984182 
L 260.75467 247.111422 
L 262.11041 266.559718 
L 263.46615 268.339114 
L 264.821891 276.954827 
L 266.177631 291.412646 
L 267.533371 263.087459 
L 268.889111 266.07978 
L 270.244851 264.211607 
L 271.600591 221.952712 
L 272.956331 211.981847 
L 274.312071 169.656965 
L 275.667811 145.859406 
L 277.023551 152.500603 
L 278.379291 129.736844 
L 279.735031 137.472312 
L 281.090771 140.862974 
L 282.446511 139.815578 
L 283.802251 169.671352 
L 285.157991 179.504202 
L 286.513731 180.255789 
L 287.869471 173.446527 
L 289.225211 155.967011 
L 290.580951 140.230289 
L 291.936691 131.086545 
L 293.292431 120.754898 
L 294.648171 131.212444 
L 296.003911 127.43843 
L 297.359651 162.569225 
L 298.715391 156.320205 
L 300.071131 202.66509 
L 301.426871 241.400604 
L 302.782611 262.678842 
L 304.138351 259.247882 
L 305.494091 270.284009 
L 306.849831 257.775188 
L 308.205571 251.92447 
L 309.561311 247.103343 
L 310.917051 245.770993 
L 312.272791 247.287902 
L 313.628532 236.972918 
L 314.984272 229.769851 
L 316.340012 245.850395 
L 317.695752 271.339585 
L 319.051492 266.254712 
L 320.407232 268.091141 
L 321.762972 277.327559 
L 323.118712 255.450954 
L 324.474452 237.381634 
L 325.830192 225.073176 
L 327.185932 183.96166 
L 329.897412 132.731925 
L 331.253152 120.716106 
L 332.608892 140.543716 
L 333.964632 138.963888 
L 335.320372 132.222029 
L 336.676112 141.763478 
L 338.031852 149.897333 
L 339.387592 120.863108 
L 340.743332 152.145572 
L 342.099072 139.801396 
L 344.810552 122.336943 
L 346.166292 122.379931 
L 347.522032 107.358473 
L 348.877772 125.642533 
L 350.233512 131.580731 
L 351.589252 152.7008 
L 352.944992 170.809173 
L 354.300732 174.152791 
L 355.656472 239.376642 
L 357.012212 232.562467 
L 358.367952 266.689403 
L 359.723692 258.678822 
L 361.079433 239.46016 
L 362.435173 241.177953 
L 363.790913 242.399543 
L 365.146653 230.210499 
L 366.502393 211.883355 
L 367.858133 226.928082 
L 369.213873 223.9117 
L 370.569613 235.729668 
L 371.925353 253.743567 
L 373.281093 234.741058 
L 374.636833 253.164076 
L 375.992573 275.511477 
L 377.348313 241.247533 
L 378.704053 230.07502 
L 380.059793 190.46525 
L 381.415533 180.630712 
L 382.771273 149.743924 
L 384.127013 124.66647 
L 385.482753 109.50113 
L 386.838493 126.387282 
L 388.194233 121.077011 
L 389.549973 130.37301 
L 390.905713 141.53712 
L 392.261453 125.197676 
L 393.617193 142.186616 
L 394.972933 156.678869 
L 396.328673 127.655376 
L 397.684413 104.705419 
L 399.040153 103.746668 
L 400.395893 119.795997 
L 403.107373 92.068114 
L 404.463113 123.672241 
L 405.818853 131.452412 
L 407.174593 152.212256 
L 408.530334 194.617845 
L 409.886074 209.301649 
L 411.241814 258.86709 
L 412.597554 247.39069 
L 413.953294 242.362792 
L 415.309034 248.055071 
L 416.664774 210.781146 
L 418.020514 231.241993 
L 419.376254 213.279123 
L 420.731994 203.812079 
L 422.087734 192.553649 
L 423.443474 228.168192 
L 424.799214 212.854169 
L 426.154954 235.466139 
L 427.510694 253.828552 
L 428.866434 242.350212 
L 430.222174 240.177884 
L 431.577914 235.119721 
L 432.933654 208.298277 
L 434.289394 187.972022 
L 437.000874 127.661436 
L 438.356614 100.183831 
L 439.712354 117.394457 
L 441.068094 80.930265 
L 442.423834 125.295024 
L 443.779574 115.476746 
L 445.135314 117.342258 
L 446.491054 127.616198 
L 447.846794 139.388575 
L 449.202534 132.477133 
L 450.558274 127.312878 
L 451.914014 116.909285 
L 453.269754 90.77081 
L 454.625494 86.643137 
L 455.981234 93.830421 
L 457.336975 82.487004 
L 458.692715 101.065019 
L 460.048455 115.814278 
L 461.404195 141.952574 
L 462.759935 181.874913 
L 464.115675 202.113774 
L 465.471415 206.437483 
L 466.827155 217.620314 
L 468.182895 225.864607 
L 469.538635 219.830246 
L 470.894375 199.492428 
L 472.250115 208.283161 
L 473.605855 189.3335 
L 474.961595 193.668159 
L 476.317335 196.314925 
L 477.673075 190.869831 
L 479.028815 204.463062 
L 480.384555 215.770992 
L 481.740295 219.087339 
L 483.096035 234.146077 
L 484.451775 222.074183 
L 485.807515 218.227852 
L 487.163255 191.221232 
L 488.518995 170.632879 
L 491.230475 114.017575 
L 492.586215 110.405828 
L 493.941955 71.363849 
L 495.297695 99.849683 
L 496.653435 106.138088 
L 498.009175 90.77331 
L 499.364915 103.430061 
L 500.720655 111.812618 
L 502.076395 113.873003 
L 503.432135 116.720859 
L 504.787876 116.916766 
L 506.143616 95.537509 
L 507.499356 91.163495 
L 508.855096 66.039512 
L 510.210836 74.527975 
L 511.566576 86.472399 
L 512.922316 94.855762 
L 514.278056 107.858769 
L 515.633796 142.119285 
L 516.989536 170.012224 
L 518.345276 181.908156 
L 521.056756 215.125494 
L 522.412496 216.083875 
L 523.768236 204.000335 
L 525.123976 211.768417 
L 526.479716 201.801816 
L 527.835456 187.835203 
L 529.191196 180.401136 
L 530.546936 178.40708 
L 531.902676 175.066032 
L 533.258416 192.414259 
L 534.614156 213.715983 
L 535.969896 220.187519 
L 537.325636 231.662036 
L 538.681376 215.656019 
L 540.037116 203.938844 
L 541.392856 176.646558 
L 542.748596 162.749581 
L 544.104336 123.446172 
L 545.460076 90.446755 
L 546.815816 89.757923 
L 548.171556 75.298955 
L 549.527296 70.777137 
L 550.883036 86.264063 
L 552.238777 88.362948 
L 553.594517 99.242152 
L 554.950257 104.587363 
L 556.305997 114.641299 
L 557.661737 102.477414 
L 559.017477 88.590434 
L 560.373217 67.091312 
L 561.728957 60.140047 
L 563.084697 39.91955 
L 564.440437 66.882132 
L 565.796177 56.517139 
L 567.151917 77.446326 
L 568.507657 78.310071 
L 569.863397 132.862982 
L 571.219137 158.361882 
L 572.574877 178.011969 
L 573.930617 209.166037 
L 575.286357 201.642953 
L 576.642097 204.637343 
L 577.997837 190.094612 
L 579.353577 179.178899 
L 580.709317 154.622194 
L 582.065057 157.240701 
L 583.420797 170.707813 
L 584.776537 177.836956 
L 586.132277 172.823801 
L 587.488017 202.343697 
L 588.843757 182.179614 
L 590.199497 196.167121 
L 591.555237 213.637826 
L 592.910977 219.043516 
L 594.266717 173.480464 
L 595.622457 166.365934 
L 596.978197 127.414802 
L 598.333937 129.791847 
L 599.689678 97.438015 
L 601.045418 75.09964 
L 602.401158 66.029668 
L 603.756898 69.944659 
L 605.112638 64.317909 
L 606.468378 89.498372 
L 607.824118 88.811275 
L 609.179858 91.841351 
L 610.535598 88.616449 
L 611.891338 81.704341 
L 613.247078 90.20822 
L 614.602818 81.963512 
L 615.958558 42.234812 
L 617.314298 43.651375 
L 618.670038 52.954512 
L 620.025778 36.76108 
L 621.381518 65.785821 
L 622.737258 76.495379 
L 624.092998 112.474839 
L 625.448738 117.682901 
L 626.804478 142.279494 
L 628.160218 177.524047 
L 629.515958 173.023477 
L 630.871698 176.317833 
L 632.227438 163.247535 
L 633.583178 177.370669 
L 634.938918 151.941918 
L 636.294658 142.222323 
L 637.650398 169.220826 
L 639.006138 168.14628 
L 640.361878 186.005581 
L 641.717618 180.200754 
L 643.073358 181.479141 
L 644.429098 180.79521 
L 645.784838 195.444886 
L 647.140578 172.310356 
L 648.496319 186.452549 
L 649.852059 167.49524 
L 651.207799 125.45335 
L 652.563539 95.505329 
L 653.919279 77.670619 
L 655.275019 82.244052 
L 656.630759 54.657985 
L 657.986499 66.324019 
L 659.342239 52.105239 
L 660.697979 63.533404 
L 662.053719 84.721346 
L 663.409459 85.555728 
L 664.765199 90.949128 
L 664.765199 90.949128 
" style="fill:none;stroke:#4c72b0;stroke-linecap:round;stroke-width:1.5;"/>
   </g>
   <g id="patch_3">
    <path d="M 25.601563 348.095625 
L 25.601563 21.935625 
" style="fill:none;stroke:#ffffff;stroke-linecap:square;stroke-linejoin:miter;stroke-width:0.8;"/>
   </g>
   <g id="patch_4">
    <path d="M 695.201563 348.095625 
L 695.201563 21.935625 
" style="fill:none;stroke:#ffffff;stroke-linecap:square;stroke-linejoin:miter;stroke-width:0.8;"/>
   </g>
   <g id="patch_5">
    <path d="M 25.601563 348.095625 
L 695.201563 348.095625 
" style="fill:none;stroke:#ffffff;stroke-linecap:square;stroke-linejoin:miter;stroke-width:0.8;"/>
   </g>
   <g id="patch_6">
    <path d="M 25.601563 21.935625 
L 695.201563 21.935625 
" style="fill:none;stroke:#ffffff;stroke-linecap:square;stroke-linejoin:miter;stroke-width:0.8;"/>
   </g>
   <g id="text_12">
    <!-- Sample Data -->
    <g style="fill:#262626;" transform="translate(325.71875 15.935625)scale(0.12 -0.12)">
     <defs>
      <path d="M 4.5 23 
L 13.421875 23.78125 
Q 14.0625 18.40625 16.375 14.96875 
Q 18.703125 11.53125 23.578125 9.40625 
Q 28.46875 7.28125 34.578125 7.28125 
Q 39.984375 7.28125 44.140625 8.890625 
Q 48.296875 10.5 50.3125 13.296875 
Q 52.34375 16.109375 52.34375 19.4375 
Q 52.34375 22.796875 50.390625 25.3125 
Q 48.4375 27.828125 43.953125 29.546875 
Q 41.0625 30.671875 31.203125 33.03125 
Q 21.34375 35.40625 17.390625 37.5 
Q 12.25 40.1875 9.734375 44.15625 
Q 7.234375 48.140625 7.234375 53.078125 
Q 7.234375 58.5 10.296875 63.203125 
Q 13.375 67.921875 19.28125 70.359375 
Q 25.203125 72.796875 32.421875 72.796875 
Q 40.375 72.796875 46.453125 70.234375 
Q 52.546875 67.671875 55.8125 62.6875 
Q 59.078125 57.71875 59.328125 51.421875 
L 50.25 50.734375 
Q 49.515625 57.515625 45.28125 60.984375 
Q 41.0625 64.453125 32.8125 64.453125 
Q 24.21875 64.453125 20.28125 61.296875 
Q 16.359375 58.15625 16.359375 53.71875 
Q 16.359375 49.859375 19.140625 47.359375 
Q 21.875 44.875 33.421875 42.265625 
Q 44.96875 39.65625 49.265625 37.703125 
Q 55.515625 34.8125 58.484375 30.390625 
Q 61.46875 25.984375 61.46875 20.21875 
Q 61.46875 14.5 58.203125 9.4375 
Q 54.9375 4.390625 48.796875 1.578125 
Q 42.671875 -1.21875 35.015625 -1.21875 
Q 25.296875 -1.21875 18.71875 1.609375 
Q 12.15625 4.4375 8.421875 10.125 
Q 4.6875 15.828125 4.5 23 
z
" id="ArialMT-83"/>
      <path d="M 40.4375 6.390625 
Q 35.546875 2.25 31.03125 0.53125 
Q 26.515625 -1.171875 21.34375 -1.171875 
Q 12.796875 -1.171875 8.203125 3 
Q 3.609375 7.171875 3.609375 13.671875 
Q 3.609375 17.484375 5.34375 20.625 
Q 7.078125 23.78125 9.890625 25.6875 
Q 12.703125 27.59375 16.21875 28.5625 
Q 18.796875 29.25 24.03125 29.890625 
Q 34.671875 31.15625 39.703125 32.90625 
Q 39.75 34.71875 39.75 35.203125 
Q 39.75 40.578125 37.25 42.78125 
Q 33.890625 45.75 27.25 45.75 
Q 21.046875 45.75 18.09375 43.578125 
Q 15.140625 41.40625 13.71875 35.890625 
L 5.125 37.0625 
Q 6.296875 42.578125 8.984375 45.96875 
Q 11.671875 49.359375 16.75 51.1875 
Q 21.828125 53.03125 28.515625 53.03125 
Q 35.15625 53.03125 39.296875 51.46875 
Q 43.453125 49.90625 45.40625 47.53125 
Q 47.359375 45.171875 48.140625 41.546875 
Q 48.578125 39.3125 48.578125 33.453125 
L 48.578125 21.734375 
Q 48.578125 9.46875 49.140625 6.21875 
Q 49.703125 2.984375 51.375 0 
L 42.1875 0 
Q 40.828125 2.734375 40.4375 6.390625 
z
M 39.703125 26.03125 
Q 34.90625 24.078125 25.34375 22.703125 
Q 19.921875 21.921875 17.671875 20.9375 
Q 15.4375 19.96875 14.203125 18.09375 
Q 12.984375 16.21875 12.984375 13.921875 
Q 12.984375 10.40625 15.640625 8.0625 
Q 18.3125 5.71875 23.4375 5.71875 
Q 28.515625 5.71875 32.46875 7.9375 
Q 36.421875 10.15625 38.28125 14.015625 
Q 39.703125 17 39.703125 22.796875 
z
" id="ArialMT-97"/>
      <path d="M 6.59375 0 
L 6.59375 51.859375 
L 14.453125 51.859375 
L 14.453125 44.578125 
Q 16.890625 48.390625 20.9375 50.703125 
Q 25 53.03125 30.171875 53.03125 
Q 35.9375 53.03125 39.625 50.640625 
Q 43.3125 48.25 44.828125 43.953125 
Q 50.984375 53.03125 60.84375 53.03125 
Q 68.5625 53.03125 72.703125 48.75 
Q 76.859375 44.484375 76.859375 35.59375 
L 76.859375 0 
L 68.109375 0 
L 68.109375 32.671875 
Q 68.109375 37.9375 67.25 40.25 
Q 66.40625 42.578125 64.15625 43.984375 
Q 61.921875 45.40625 58.890625 45.40625 
Q 53.421875 45.40625 49.796875 41.765625 
Q 46.1875 38.140625 46.1875 30.125 
L 46.1875 0 
L 37.40625 0 
L 37.40625 33.6875 
Q 37.40625 39.546875 35.25 42.46875 
Q 33.109375 45.40625 28.21875 45.40625 
Q 24.515625 45.40625 21.359375 43.453125 
Q 18.21875 41.5 16.796875 37.734375 
Q 15.375 33.984375 15.375 26.90625 
L 15.375 0 
z
" id="ArialMT-109"/>
      <path d="M 6.59375 -19.875 
L 6.59375 51.859375 
L 14.59375 51.859375 
L 14.59375 45.125 
Q 17.4375 49.078125 21 51.046875 
Q 24.5625 53.03125 29.640625 53.03125 
Q 36.28125 53.03125 41.359375 49.609375 
Q 46.4375 46.1875 49.015625 39.953125 
Q 51.609375 33.734375 51.609375 26.3125 
Q 51.609375 18.359375 48.75 11.984375 
Q 45.90625 5.609375 40.453125 2.21875 
Q 35.015625 -1.171875 29 -1.171875 
Q 24.609375 -1.171875 21.109375 0.6875 
Q 17.625 2.546875 15.375 5.375 
L 15.375 -19.875 
z
M 14.546875 25.640625 
Q 14.546875 15.625 18.59375 10.84375 
Q 22.65625 6.0625 28.421875 6.0625 
Q 34.28125 6.0625 38.453125 11.015625 
Q 42.625 15.96875 42.625 26.375 
Q 42.625 36.28125 38.546875 41.203125 
Q 34.46875 46.140625 28.8125 46.140625 
Q 23.1875 46.140625 18.859375 40.890625 
Q 14.546875 35.640625 14.546875 25.640625 
z
" id="ArialMT-112"/>
      <path d="M 6.390625 0 
L 6.390625 71.578125 
L 15.1875 71.578125 
L 15.1875 0 
z
" id="ArialMT-108"/>
      <path d="M 42.09375 16.703125 
L 51.171875 15.578125 
Q 49.03125 7.625 43.21875 3.21875 
Q 37.40625 -1.171875 28.375 -1.171875 
Q 17 -1.171875 10.328125 5.828125 
Q 3.65625 12.84375 3.65625 25.484375 
Q 3.65625 38.578125 10.390625 45.796875 
Q 17.140625 53.03125 27.875 53.03125 
Q 38.28125 53.03125 44.875 45.953125 
Q 51.46875 38.875 51.46875 26.03125 
Q 51.46875 25.25 51.421875 23.6875 
L 12.75 23.6875 
Q 13.234375 15.140625 17.578125 10.59375 
Q 21.921875 6.0625 28.421875 6.0625 
Q 33.25 6.0625 36.671875 8.59375 
Q 40.09375 11.140625 42.09375 16.703125 
z
M 13.234375 30.90625 
L 42.1875 30.90625 
Q 41.609375 37.453125 38.875 40.71875 
Q 34.671875 45.796875 27.984375 45.796875 
Q 21.921875 45.796875 17.796875 41.75 
Q 13.671875 37.703125 13.234375 30.90625 
z
" id="ArialMT-101"/>
      <path id="ArialMT-32"/>
      <path d="M 7.71875 0 
L 7.71875 71.578125 
L 32.375 71.578125 
Q 40.71875 71.578125 45.125 70.5625 
Q 51.265625 69.140625 55.609375 65.4375 
Q 61.28125 60.640625 64.078125 53.1875 
Q 66.890625 45.75 66.890625 36.1875 
Q 66.890625 28.03125 64.984375 21.734375 
Q 63.09375 15.4375 60.109375 11.296875 
Q 57.125 7.171875 53.578125 4.796875 
Q 50.046875 2.4375 45.046875 1.21875 
Q 40.046875 0 33.546875 0 
z
M 17.1875 8.453125 
L 32.46875 8.453125 
Q 39.546875 8.453125 43.578125 9.765625 
Q 47.609375 11.078125 50 13.484375 
Q 53.375 16.84375 55.25 22.53125 
Q 57.125 28.21875 57.125 36.328125 
Q 57.125 47.5625 53.4375 53.59375 
Q 49.75 59.625 44.484375 61.671875 
Q 40.671875 63.140625 32.234375 63.140625 
L 17.1875 63.140625 
z
" id="ArialMT-68"/>
     </defs>
     <use xlink:href="#ArialMT-83"/>
     <use x="66.699219" xlink:href="#ArialMT-97"/>
     <use x="122.314453" xlink:href="#ArialMT-109"/>
     <use x="205.615234" xlink:href="#ArialMT-112"/>
     <use x="261.230469" xlink:href="#ArialMT-108"/>
     <use x="283.447266" xlink:href="#ArialMT-101"/>
     <use x="339.0625" xlink:href="#ArialMT-32"/>
     <use x="366.845703" xlink:href="#ArialMT-68"/>
     <use x="439.0625" xlink:href="#ArialMT-97"/>
     <use x="494.677734" xlink:href="#ArialMT-116"/>
     <use x="522.460938" xlink:href="#ArialMT-97"/>
    </g>
   </g>
   <g id="legend_1">
    <g id="patch_7">
     <path d="M 702.201563 193.646875 
L 739.201563 193.646875 
Q 741.201563 193.646875 741.201563 191.646875 
L 741.201563 178.384375 
Q 741.201563 176.384375 739.201563 176.384375 
L 702.201563 176.384375 
Q 700.201563 176.384375 700.201563 178.384375 
L 700.201563 191.646875 
Q 700.201563 193.646875 702.201563 193.646875 
z
" style="fill:#e6e6e6;opacity:0.8;stroke:#cccccc;stroke-linejoin:miter;"/>
    </g>
    <g id="line2d_12">
     <path d="M 704.201563 184.042188 
L 724.201563 184.042188 
" style="fill:none;stroke:#4c72b0;stroke-linecap:round;stroke-width:1.5;"/>
    </g>
    <g id="line2d_13"/>
    <g id="text_13">
     <!-- y -->
     <g style="fill:#262626;" transform="translate(732.201563 187.542188)scale(0.1 -0.1)">
      <defs>
       <path d="M 6.203125 -19.96875 
L 5.21875 -11.71875 
Q 8.109375 -12.5 10.25 -12.5 
Q 13.1875 -12.5 14.9375 -11.515625 
Q 16.703125 -10.546875 17.828125 -8.796875 
Q 18.65625 -7.46875 20.515625 -2.25 
Q 20.75 -1.515625 21.296875 -0.09375 
L 1.609375 51.859375 
L 11.078125 51.859375 
L 21.875 21.828125 
Q 23.96875 16.109375 25.640625 9.8125 
Q 27.15625 15.875 29.25 21.625 
L 40.328125 51.859375 
L 49.125 51.859375 
L 29.390625 -0.875 
Q 26.21875 -9.421875 24.46875 -12.640625 
Q 22.125 -17 19.09375 -19.015625 
Q 16.0625 -21.046875 11.859375 -21.046875 
Q 9.328125 -21.046875 6.203125 -19.96875 
z
" id="ArialMT-121"/>
      </defs>
      <use xlink:href="#ArialMT-121"/>
     </g>
    </g>
   </g>
  </g>
 </g>
 <defs>
  <clipPath id="pd79f6ebd73">
   <rect height="326.16" width="669.6" x="25.601563" y="21.935625"/>
  </clipPath>
 </defs>
</svg>
