<?xml version="1.0" encoding="utf-8" standalone="no"?>
<!DOCTYPE svg PUBLIC "-//W3C//DTD SVG 1.1//EN"
  "http://www.w3.org/Graphics/SVG/1.1/DTD/svg11.dtd">
<!-- Created with matplotlib (https://matplotlib.org/) -->
<svg height="384.44pt" version="1.1" viewBox="0 0 803.4125 384.44" width="803.4125pt" xmlns="http://www.w3.org/2000/svg" xmlns:xlink="http://www.w3.org/1999/xlink">
 <metadata>
  <rdf:RDF xmlns:cc="http://creativecommons.org/ns#" xmlns:dc="http://purl.org/dc/elements/1.1/" xmlns:rdf="http://www.w3.org/1999/02/22-rdf-syntax-ns#">
   <cc:Work>
    <dc:type rdf:resource="http://purl.org/dc/dcmitype/StillImage"/>
    <dc:date>2020-12-29T19:10:00.743505</dc:date>
    <dc:format>image/svg+xml</dc:format>
    <dc:creator>
     <cc:Agent>
      <dc:title>Matplotlib v3.3.1, https://matplotlib.org/</dc:title>
     </cc:Agent>
    </dc:creator>
   </cc:Work>
  </rdf:RDF>
 </metadata>
 <defs>
  <style type="text/css">*{stroke-linecap:butt;stroke-linejoin:round;}</style>
 </defs>
 <g id="figure_1">
  <g id="patch_1">
   <path d="M 0 384.44 
L 803.4125 384.44 
L 803.4125 0 
L 0 0 
z
" style="fill:#ffffff;"/>
  </g>
  <g id="axes_1">
   <g id="patch_2">
    <path d="M 25.601563 347.949375 
L 695.201563 347.949375 
L 695.201563 21.789375 
L 25.601563 21.789375 
z
" style="fill:#e6e6e6;"/>
   </g>
   <g id="matplotlib.axis_1">
    <g id="xtick_1">
     <g id="line2d_1">
      <path clip-path="url(#p2e5e31d661)" d="M 56.037926 347.949375 
L 56.037926 21.789375 
" style="fill:none;stroke:#cccccc;stroke-linecap:round;stroke-width:0.8;"/>
     </g>
     <g id="text_1">
      <!-- 0 -->
      <g style="fill:#262626;" transform="translate(53.257457 362.107188)scale(0.1 -0.1)">
       <defs>
        <path d="M 4.15625 35.296875 
Q 4.15625 48 6.765625 55.734375 
Q 9.375 63.484375 14.515625 67.671875 
Q 19.671875 71.875 27.484375 71.875 
Q 33.25 71.875 37.59375 69.546875 
Q 41.9375 67.234375 44.765625 62.859375 
Q 47.609375 58.5 49.21875 52.21875 
Q 50.828125 45.953125 50.828125 35.296875 
Q 50.828125 22.703125 48.234375 14.96875 
Q 45.65625 7.234375 40.5 3 
Q 35.359375 -1.21875 27.484375 -1.21875 
Q 17.140625 -1.21875 11.234375 6.203125 
Q 4.15625 15.140625 4.15625 35.296875 
z
M 13.1875 35.296875 
Q 13.1875 17.671875 17.3125 11.828125 
Q 21.4375 6 27.484375 6 
Q 33.546875 6 37.671875 11.859375 
Q 41.796875 17.71875 41.796875 35.296875 
Q 41.796875 52.984375 37.671875 58.78125 
Q 33.546875 64.59375 27.390625 64.59375 
Q 21.34375 64.59375 17.71875 59.46875 
Q 13.1875 52.9375 13.1875 35.296875 
z
" id="ArialMT-48"/>
       </defs>
       <use xlink:href="#ArialMT-48"/>
      </g>
     </g>
    </g>
    <g id="xtick_2">
     <g id="line2d_2">
      <path clip-path="url(#p2e5e31d661)" d="M 191.611929 347.949375 
L 191.611929 21.789375 
" style="fill:none;stroke:#cccccc;stroke-linecap:round;stroke-width:0.8;"/>
     </g>
     <g id="text_2">
      <!-- 100 -->
      <g style="fill:#262626;" transform="translate(183.270523 362.107188)scale(0.1 -0.1)">
       <defs>
        <path d="M 37.25 0 
L 28.46875 0 
L 28.46875 56 
Q 25.296875 52.984375 20.140625 49.953125 
Q 14.984375 46.921875 10.890625 45.40625 
L 10.890625 53.90625 
Q 18.265625 57.375 23.78125 62.296875 
Q 29.296875 67.234375 31.59375 71.875 
L 37.25 71.875 
z
" id="ArialMT-49"/>
       </defs>
       <use xlink:href="#ArialMT-49"/>
       <use x="55.615234" xlink:href="#ArialMT-48"/>
       <use x="111.230469" xlink:href="#ArialMT-48"/>
      </g>
     </g>
    </g>
    <g id="xtick_3">
     <g id="line2d_3">
      <path clip-path="url(#p2e5e31d661)" d="M 327.185932 347.949375 
L 327.185932 21.789375 
" style="fill:none;stroke:#cccccc;stroke-linecap:round;stroke-width:0.8;"/>
     </g>
     <g id="text_3">
      <!-- 200 -->
      <g style="fill:#262626;" transform="translate(318.844526 362.107188)scale(0.1 -0.1)">
       <defs>
        <path d="M 50.34375 8.453125 
L 50.34375 0 
L 3.03125 0 
Q 2.9375 3.171875 4.046875 6.109375 
Q 5.859375 10.9375 9.828125 15.625 
Q 13.8125 20.3125 21.34375 26.46875 
Q 33.015625 36.03125 37.109375 41.625 
Q 41.21875 47.21875 41.21875 52.203125 
Q 41.21875 57.421875 37.46875 61 
Q 33.734375 64.59375 27.734375 64.59375 
Q 21.390625 64.59375 17.578125 60.78125 
Q 13.765625 56.984375 13.71875 50.25 
L 4.6875 51.171875 
Q 5.609375 61.28125 11.65625 66.578125 
Q 17.71875 71.875 27.9375 71.875 
Q 38.234375 71.875 44.234375 66.15625 
Q 50.25 60.453125 50.25 52 
Q 50.25 47.703125 48.484375 43.546875 
Q 46.734375 39.40625 42.65625 34.8125 
Q 38.578125 30.21875 29.109375 22.21875 
Q 21.1875 15.578125 18.9375 13.203125 
Q 16.703125 10.84375 15.234375 8.453125 
z
" id="ArialMT-50"/>
       </defs>
       <use xlink:href="#ArialMT-50"/>
       <use x="55.615234" xlink:href="#ArialMT-48"/>
       <use x="111.230469" xlink:href="#ArialMT-48"/>
      </g>
     </g>
    </g>
    <g id="xtick_4">
     <g id="line2d_4">
      <path clip-path="url(#p2e5e31d661)" d="M 462.759935 347.949375 
L 462.759935 21.789375 
" style="fill:none;stroke:#cccccc;stroke-linecap:round;stroke-width:0.8;"/>
     </g>
     <g id="text_4">
      <!-- 300 -->
      <g style="fill:#262626;" transform="translate(454.418528 362.107188)scale(0.1 -0.1)">
       <defs>
        <path d="M 4.203125 18.890625 
L 12.984375 20.0625 
Q 14.5 12.59375 18.140625 9.296875 
Q 21.78125 6 27 6 
Q 33.203125 6 37.46875 10.296875 
Q 41.75 14.59375 41.75 20.953125 
Q 41.75 27 37.796875 30.921875 
Q 33.84375 34.859375 27.734375 34.859375 
Q 25.25 34.859375 21.53125 33.890625 
L 22.515625 41.609375 
Q 23.390625 41.5 23.921875 41.5 
Q 29.546875 41.5 34.03125 44.421875 
Q 38.53125 47.359375 38.53125 53.46875 
Q 38.53125 58.296875 35.25 61.46875 
Q 31.984375 64.65625 26.8125 64.65625 
Q 21.6875 64.65625 18.265625 61.421875 
Q 14.84375 58.203125 13.875 51.765625 
L 5.078125 53.328125 
Q 6.6875 62.15625 12.390625 67.015625 
Q 18.109375 71.875 26.609375 71.875 
Q 32.46875 71.875 37.390625 69.359375 
Q 42.328125 66.84375 44.9375 62.5 
Q 47.5625 58.15625 47.5625 53.265625 
Q 47.5625 48.640625 45.0625 44.828125 
Q 42.578125 41.015625 37.703125 38.765625 
Q 44.046875 37.3125 47.5625 32.6875 
Q 51.078125 28.078125 51.078125 21.140625 
Q 51.078125 11.765625 44.234375 5.25 
Q 37.40625 -1.265625 26.953125 -1.265625 
Q 17.53125 -1.265625 11.296875 4.34375 
Q 5.078125 9.96875 4.203125 18.890625 
z
" id="ArialMT-51"/>
       </defs>
       <use xlink:href="#ArialMT-51"/>
       <use x="55.615234" xlink:href="#ArialMT-48"/>
       <use x="111.230469" xlink:href="#ArialMT-48"/>
      </g>
     </g>
    </g>
    <g id="xtick_5">
     <g id="line2d_5">
      <path clip-path="url(#p2e5e31d661)" d="M 598.333937 347.949375 
L 598.333937 21.789375 
" style="fill:none;stroke:#cccccc;stroke-linecap:round;stroke-width:0.8;"/>
     </g>
     <g id="text_5">
      <!-- 400 -->
      <g style="fill:#262626;" transform="translate(589.992531 362.107188)scale(0.1 -0.1)">
       <defs>
        <path d="M 32.328125 0 
L 32.328125 17.140625 
L 1.265625 17.140625 
L 1.265625 25.203125 
L 33.9375 71.578125 
L 41.109375 71.578125 
L 41.109375 25.203125 
L 50.78125 25.203125 
L 50.78125 17.140625 
L 41.109375 17.140625 
L 41.109375 0 
z
M 32.328125 25.203125 
L 32.328125 57.46875 
L 9.90625 25.203125 
z
" id="ArialMT-52"/>
       </defs>
       <use xlink:href="#ArialMT-52"/>
       <use x="55.615234" xlink:href="#ArialMT-48"/>
       <use x="111.230469" xlink:href="#ArialMT-48"/>
      </g>
     </g>
    </g>
    <g id="text_6">
     <!-- t -->
     <g style="fill:#262626;" transform="translate(359.0125 375.2525)scale(0.1 -0.1)">
      <defs>
       <path d="M 25.78125 7.859375 
L 27.046875 0.09375 
Q 23.34375 -0.6875 20.40625 -0.6875 
Q 15.625 -0.6875 12.984375 0.828125 
Q 10.359375 2.34375 9.28125 4.8125 
Q 8.203125 7.28125 8.203125 15.1875 
L 8.203125 45.015625 
L 1.765625 45.015625 
L 1.765625 51.859375 
L 8.203125 51.859375 
L 8.203125 64.703125 
L 16.9375 69.96875 
L 16.9375 51.859375 
L 25.78125 51.859375 
L 25.78125 45.015625 
L 16.9375 45.015625 
L 16.9375 14.703125 
Q 16.9375 10.9375 17.40625 9.859375 
Q 17.875 8.796875 18.921875 8.15625 
Q 19.96875 7.515625 21.921875 7.515625 
Q 23.390625 7.515625 25.78125 7.859375 
z
" id="ArialMT-116"/>
      </defs>
      <use xlink:href="#ArialMT-116"/>
     </g>
    </g>
   </g>
   <g id="matplotlib.axis_2">
    <g id="ytick_1">
     <g id="line2d_6">
      <path clip-path="url(#p2e5e31d661)" d="M 25.601563 327.619004 
L 695.201563 327.619004 
" style="fill:none;stroke:#cccccc;stroke-linecap:round;stroke-width:0.8;"/>
     </g>
     <g id="text_7">
      <!-- −2 -->
      <g style="fill:#262626;" transform="translate(7.2 331.19791)scale(0.1 -0.1)">
       <defs>
        <path d="M 52.828125 31.203125 
L 5.5625 31.203125 
L 5.5625 39.40625 
L 52.828125 39.40625 
z
" id="ArialMT-8722"/>
       </defs>
       <use xlink:href="#ArialMT-8722"/>
       <use x="58.398438" xlink:href="#ArialMT-50"/>
      </g>
     </g>
    </g>
    <g id="ytick_2">
     <g id="line2d_7">
      <path clip-path="url(#p2e5e31d661)" d="M 25.601563 261.370761 
L 695.201563 261.370761 
" style="fill:none;stroke:#cccccc;stroke-linecap:round;stroke-width:0.8;"/>
     </g>
     <g id="text_8">
      <!-- 0 -->
      <g style="fill:#262626;" transform="translate(13.040625 264.949667)scale(0.1 -0.1)">
       <use xlink:href="#ArialMT-48"/>
      </g>
     </g>
    </g>
    <g id="ytick_3">
     <g id="line2d_8">
      <path clip-path="url(#p2e5e31d661)" d="M 25.601563 195.122518 
L 695.201563 195.122518 
" style="fill:none;stroke:#cccccc;stroke-linecap:round;stroke-width:0.8;"/>
     </g>
     <g id="text_9">
      <!-- 2 -->
      <g style="fill:#262626;" transform="translate(13.040625 198.701425)scale(0.1 -0.1)">
       <use xlink:href="#ArialMT-50"/>
      </g>
     </g>
    </g>
    <g id="ytick_4">
     <g id="line2d_9">
      <path clip-path="url(#p2e5e31d661)" d="M 25.601563 128.874276 
L 695.201563 128.874276 
" style="fill:none;stroke:#cccccc;stroke-linecap:round;stroke-width:0.8;"/>
     </g>
     <g id="text_10">
      <!-- 4 -->
      <g style="fill:#262626;" transform="translate(13.040625 132.453182)scale(0.1 -0.1)">
       <use xlink:href="#ArialMT-52"/>
      </g>
     </g>
    </g>
    <g id="ytick_5">
     <g id="line2d_10">
      <path clip-path="url(#p2e5e31d661)" d="M 25.601563 62.626033 
L 695.201563 62.626033 
" style="fill:none;stroke:#cccccc;stroke-linecap:round;stroke-width:0.8;"/>
     </g>
     <g id="text_11">
      <!-- 6 -->
      <g style="fill:#262626;" transform="translate(13.040625 66.204939)scale(0.1 -0.1)">
       <defs>
        <path d="M 49.75 54.046875 
L 41.015625 53.375 
Q 39.84375 58.546875 37.703125 60.890625 
Q 34.125 64.65625 28.90625 64.65625 
Q 24.703125 64.65625 21.53125 62.3125 
Q 17.390625 59.28125 14.984375 53.46875 
Q 12.59375 47.65625 12.5 36.921875 
Q 15.671875 41.75 20.265625 44.09375 
Q 24.859375 46.4375 29.890625 46.4375 
Q 38.671875 46.4375 44.84375 39.96875 
Q 51.03125 33.5 51.03125 23.25 
Q 51.03125 16.5 48.125 10.71875 
Q 45.21875 4.9375 40.140625 1.859375 
Q 35.0625 -1.21875 28.609375 -1.21875 
Q 17.625 -1.21875 10.6875 6.859375 
Q 3.765625 14.9375 3.765625 33.5 
Q 3.765625 54.25 11.421875 63.671875 
Q 18.109375 71.875 29.4375 71.875 
Q 37.890625 71.875 43.28125 67.140625 
Q 48.6875 62.40625 49.75 54.046875 
z
M 13.875 23.1875 
Q 13.875 18.65625 15.796875 14.5 
Q 17.71875 10.359375 21.1875 8.171875 
Q 24.65625 6 28.46875 6 
Q 34.03125 6 38.03125 10.484375 
Q 42.046875 14.984375 42.046875 22.703125 
Q 42.046875 30.125 38.078125 34.390625 
Q 34.125 38.671875 28.125 38.671875 
Q 22.171875 38.671875 18.015625 34.390625 
Q 13.875 30.125 13.875 23.1875 
z
" id="ArialMT-54"/>
       </defs>
       <use xlink:href="#ArialMT-54"/>
      </g>
     </g>
    </g>
   </g>
   <g id="line2d_11">
    <path clip-path="url(#p2e5e31d661)" d="M 56.037926 256.434795 
L 57.393666 236.977093 
L 58.749406 206.95632 
L 60.105146 182.431794 
L 61.460886 191.97869 
L 62.816626 191.913079 
L 64.172366 180.081926 
L 65.528106 197.850327 
L 66.883846 220.102482 
L 68.239586 217.23741 
L 69.595326 229.537009 
L 70.951066 226.238513 
L 72.306806 211.073738 
L 73.662547 221.728576 
L 75.018287 209.522962 
L 76.374027 191.311608 
L 77.729767 195.505203 
L 79.085507 189.935155 
L 81.796987 244.376048 
L 83.152727 240.963791 
L 84.508467 282.787136 
L 85.864207 301.179006 
L 87.219947 330.831325 
L 88.575687 328.970529 
L 89.931427 321.552658 
L 91.287167 327.056013 
L 92.642907 301.499253 
L 93.998647 300.725262 
L 95.354387 290.084555 
L 96.710127 290.557737 
L 98.065867 269.184803 
L 99.421607 295.467575 
L 100.777347 316.075106 
L 102.133087 307.023037 
L 103.488827 333.12392 
L 104.844567 318.219809 
L 106.200307 331.123326 
L 107.556047 308.351408 
L 108.911787 270.522739 
L 110.267527 239.218528 
L 112.979007 200.405618 
L 114.334747 187.106284 
L 115.690487 191.620128 
L 117.046227 184.628612 
L 118.401967 188.605031 
L 119.757707 183.258836 
L 121.113447 200.00771 
L 122.469188 227.561258 
L 123.824928 208.406342 
L 125.180668 211.426535 
L 126.536408 205.65554 
L 127.892148 181.834033 
L 129.247888 167.419599 
L 130.603628 162.16028 
L 131.959368 180.110484 
L 133.315108 183.193025 
L 134.670848 192.992627 
L 136.026588 208.823172 
L 137.382328 248.603266 
L 138.738068 270.496975 
L 140.093808 300.450125 
L 141.449548 315.476611 
L 142.805288 301.676794 
L 144.161028 294.76437 
L 145.516768 301.572068 
L 146.872508 280.481181 
L 148.228248 276.701535 
L 149.583988 279.71845 
L 150.939728 267.82986 
L 152.295468 259.850845 
L 153.651208 283.759746 
L 155.006948 278.324225 
L 156.362688 329.434518 
L 157.718428 300.60728 
L 159.074168 306.564792 
L 160.429908 301.023099 
L 161.785648 279.987213 
L 163.141388 277.540052 
L 164.497128 233.929351 
L 167.208608 170.495928 
L 168.564348 175.885458 
L 169.920089 172.306764 
L 171.275829 170.399788 
L 172.631569 163.202594 
L 173.987309 178.768438 
L 175.343049 196.625039 
L 176.698789 192.285919 
L 178.054529 197.283297 
L 179.410269 183.899944 
L 180.766009 191.316214 
L 182.121749 176.358036 
L 183.477489 166.871471 
L 184.833229 171.704077 
L 186.188969 155.230536 
L 187.544709 164.660604 
L 188.900449 184.016268 
L 190.256189 209.053174 
L 191.611929 246.214549 
L 192.967669 260.902375 
L 195.679149 298.40474 
L 197.034889 297.475607 
L 198.390629 289.765123 
L 199.746369 267.333884 
L 201.102109 273.956873 
L 202.457849 263.322584 
L 203.813589 260.237716 
L 205.169329 277.404774 
L 206.525069 263.004316 
L 207.880809 270.913707 
L 209.236549 257.707949 
L 210.592289 293.488771 
L 211.948029 293.504101 
L 213.303769 294.837142 
L 214.659509 295.995743 
L 216.015249 255.233167 
L 217.37099 235.599814 
L 218.72673 209.082296 
L 220.08247 200.875734 
L 221.43821 157.231646 
L 222.79395 171.360733 
L 224.14969 145.853389 
L 225.50543 131.631757 
L 226.86117 170.429557 
L 228.21691 175.915367 
L 229.57265 178.259373 
L 232.28413 200.204933 
L 233.63987 178.708111 
L 234.99561 180.270344 
L 236.35135 153.581863 
L 237.70709 157.452137 
L 239.06283 127.562659 
L 240.41857 152.431126 
L 241.77431 157.66084 
L 243.13005 163.819959 
L 244.48579 207.183692 
L 245.84153 218.188719 
L 247.19727 231.762067 
L 248.55301 280.452267 
L 249.90875 275.366401 
L 251.26449 279.345205 
L 252.62023 271.504339 
L 253.97597 283.576218 
L 255.33171 274.072224 
L 256.68745 246.332691 
L 258.04319 242.806529 
L 259.39893 242.837932 
L 260.75467 246.965172 
L 262.11041 266.413468 
L 263.46615 268.192864 
L 264.821891 276.808577 
L 266.177631 291.266396 
L 267.533371 262.941209 
L 268.889111 265.93353 
L 270.244851 264.065357 
L 271.600591 221.806462 
L 272.956331 211.835597 
L 274.312071 169.510715 
L 275.667811 145.713156 
L 277.023551 152.354353 
L 278.379291 129.590594 
L 279.735031 137.326062 
L 281.090771 140.716724 
L 282.446511 139.669328 
L 283.802251 169.525102 
L 285.157991 179.357952 
L 286.513731 180.109539 
L 287.869471 173.300277 
L 289.225211 155.820761 
L 290.580951 140.084039 
L 291.936691 130.940295 
L 293.292431 120.608648 
L 294.648171 131.066194 
L 296.003911 127.29218 
L 297.359651 162.422975 
L 298.715391 156.173955 
L 300.071131 202.51884 
L 301.426871 241.254354 
L 302.782611 262.532592 
L 304.138351 259.101632 
L 305.494091 270.137759 
L 306.849831 257.628938 
L 308.205571 251.77822 
L 309.561311 246.957093 
L 310.917051 245.624743 
L 312.272791 247.141652 
L 313.628532 236.826668 
L 314.984272 229.623601 
L 316.340012 245.704145 
L 317.695752 271.193335 
L 319.051492 266.108462 
L 320.407232 267.944891 
L 321.762972 277.181309 
L 323.118712 255.304704 
L 324.474452 237.235384 
L 325.830192 224.926926 
L 327.185932 183.81541 
L 329.897412 132.585675 
L 331.253152 120.569856 
L 332.608892 140.397466 
L 333.964632 138.817638 
L 335.320372 132.075779 
L 336.676112 141.617228 
L 338.031852 149.751083 
L 339.387592 120.716858 
L 340.743332 151.999322 
L 342.099072 139.655146 
L 344.810552 122.190693 
L 346.166292 122.233681 
L 347.522032 107.212223 
L 348.877772 125.496283 
L 350.233512 131.434481 
L 351.589252 152.55455 
L 352.944992 170.662923 
L 354.300732 174.006541 
L 355.656472 239.230392 
L 357.012212 232.416217 
L 358.367952 266.543153 
L 359.723692 258.532572 
L 361.079433 239.31391 
L 362.435173 241.031703 
L 363.790913 242.253293 
L 365.146653 230.064249 
L 366.502393 211.737105 
L 367.858133 226.781832 
L 369.213873 223.76545 
L 370.569613 235.583418 
L 371.925353 253.597317 
L 373.281093 234.594808 
L 374.636833 253.017826 
L 375.992573 275.365227 
L 377.348313 241.101283 
L 378.704053 229.92877 
L 380.059793 190.319 
L 381.415533 180.484462 
L 382.771273 149.597674 
L 384.127013 124.52022 
L 385.482753 109.35488 
L 386.838493 126.241032 
L 388.194233 120.930761 
L 389.549973 130.22676 
L 390.905713 141.39087 
L 392.261453 125.051426 
L 393.617193 142.040366 
L 394.972933 156.532619 
L 396.328673 127.509126 
L 397.684413 104.559169 
L 399.040153 103.600418 
L 400.395893 119.649747 
L 403.107373 91.921864 
L 404.463113 123.525991 
L 405.818853 131.306162 
L 407.174593 152.066006 
L 408.530334 194.471595 
L 409.886074 209.155399 
L 411.241814 258.72084 
L 412.597554 247.24444 
L 413.953294 242.216542 
L 415.309034 247.908821 
L 416.664774 210.634896 
L 418.020514 231.095743 
L 419.376254 213.132873 
L 420.731994 203.665829 
L 422.087734 192.407399 
L 423.443474 228.021942 
L 424.799214 212.707919 
L 426.154954 235.319889 
L 427.510694 253.682302 
L 428.866434 242.203962 
L 430.222174 240.031634 
L 431.577914 234.973471 
L 432.933654 208.152027 
L 434.289394 187.825772 
L 437.000874 127.515186 
L 438.356614 100.037581 
L 439.712354 117.248207 
L 441.068094 80.784015 
L 442.423834 125.148774 
L 443.779574 115.330496 
L 445.135314 117.196008 
L 446.491054 127.469948 
L 447.846794 139.242325 
L 449.202534 132.330883 
L 450.558274 127.166628 
L 451.914014 116.763035 
L 453.269754 90.62456 
L 454.625494 86.496887 
L 455.981234 93.684171 
L 457.336975 82.340754 
L 458.692715 100.918769 
L 460.048455 115.668028 
L 461.404195 141.806324 
L 462.759935 181.728663 
L 464.115675 201.967524 
L 465.471415 206.291233 
L 466.827155 217.474064 
L 468.182895 225.718357 
L 469.538635 219.683996 
L 470.894375 199.346178 
L 472.250115 208.136911 
L 473.605855 189.18725 
L 474.961595 193.521909 
L 476.317335 196.168675 
L 477.673075 190.723581 
L 479.028815 204.316812 
L 480.384555 215.624742 
L 481.740295 218.941089 
L 481.740295 218.941089 
" style="fill:none;stroke:#4c72b0;stroke-linecap:round;stroke-width:1.5;"/>
   </g>
   <g id="line2d_12">
    <path clip-path="url(#p2e5e31d661)" d="M 483.096035 233.999827 
L 484.451775 221.927933 
L 485.807515 218.081602 
L 487.163255 191.074982 
L 488.518995 170.486629 
L 491.230475 113.871325 
L 492.586215 110.259578 
L 493.941955 71.217599 
L 495.297695 99.703433 
L 496.653435 105.991838 
L 498.009175 90.62706 
L 499.364915 103.283811 
L 500.720655 111.666368 
L 502.076395 113.726753 
L 503.432135 116.574609 
L 504.787876 116.770516 
L 506.143616 95.391259 
L 507.499356 91.017245 
L 508.855096 65.893262 
L 510.210836 74.381725 
L 511.566576 86.326149 
L 512.922316 94.709512 
L 514.278056 107.712519 
L 515.633796 141.973035 
L 516.989536 169.865974 
L 518.345276 181.761906 
L 521.056756 214.979244 
L 522.412496 215.937625 
L 523.768236 203.854085 
L 525.123976 211.622167 
L 526.479716 201.655566 
L 527.835456 187.688953 
L 529.191196 180.254886 
L 530.546936 178.26083 
L 531.902676 174.919782 
L 533.258416 192.268009 
L 534.614156 213.569733 
L 535.969896 220.041269 
L 537.325636 231.515786 
L 538.681376 215.509769 
L 540.037116 203.792594 
L 541.392856 176.500308 
L 542.748596 162.603331 
L 544.104336 123.299922 
L 545.460076 90.300505 
L 546.815816 89.611673 
L 548.171556 75.152705 
L 549.527296 70.630887 
L 550.883036 86.117813 
L 552.238777 88.216698 
L 553.594517 99.095902 
L 554.950257 104.441113 
L 556.305997 114.495049 
L 557.661737 102.331164 
L 559.017477 88.444184 
L 560.373217 66.945062 
L 561.728957 59.993797 
L 563.084697 39.7733 
L 564.440437 66.735882 
L 565.796177 56.370889 
L 567.151917 77.300076 
L 568.507657 78.163821 
L 569.863397 132.716732 
L 571.219137 158.215632 
L 572.574877 177.865719 
L 573.930617 209.019787 
L 575.286357 201.496703 
L 576.642097 204.491093 
L 577.997837 189.948362 
L 579.353577 179.032649 
L 580.709317 154.475944 
L 582.065057 157.094451 
L 583.420797 170.561563 
L 584.776537 177.690706 
L 586.132277 172.677551 
L 587.488017 202.197447 
L 588.843757 182.033364 
L 590.199497 196.020871 
L 591.555237 213.491576 
L 592.910977 218.897266 
L 594.266717 173.334214 
L 595.622457 166.219684 
L 596.978197 127.268552 
L 598.333937 129.645597 
L 599.689678 97.291765 
L 601.045418 74.95339 
L 602.401158 65.883418 
L 603.756898 69.798409 
L 605.112638 64.171659 
L 606.468378 89.352122 
L 607.824118 88.665025 
L 609.179858 91.695101 
L 610.535598 88.470199 
L 611.891338 81.558091 
L 613.247078 90.06197 
L 614.602818 81.817262 
L 615.958558 42.088562 
L 617.314298 43.505125 
L 618.670038 52.808262 
L 620.025778 36.61483 
L 621.381518 65.639571 
L 622.737258 76.349129 
L 624.092998 112.328589 
L 625.448738 117.536651 
L 626.804478 142.133244 
L 628.160218 177.377797 
L 629.515958 172.877227 
L 630.871698 176.171583 
L 632.227438 163.101285 
L 633.583178 177.224419 
L 634.938918 151.795668 
L 636.294658 142.076073 
L 637.650398 169.074576 
L 639.006138 168.00003 
L 640.361878 185.859331 
L 641.717618 180.054504 
L 643.073358 181.332891 
L 644.429098 180.64896 
L 645.784838 195.298636 
L 647.140578 172.164106 
L 648.496319 186.306299 
L 649.852059 167.34899 
L 651.207799 125.3071 
L 652.563539 95.359079 
L 653.919279 77.524369 
L 655.275019 82.097802 
L 656.630759 54.511735 
L 657.986499 66.177769 
L 659.342239 51.958989 
L 660.697979 63.387154 
L 662.053719 84.575096 
L 663.409459 85.409478 
L 664.765199 90.802878 
L 664.765199 90.802878 
" style="fill:none;stroke:#dd8452;stroke-linecap:round;stroke-width:1.5;"/>
   </g>
   <g id="line2d_13">
    <path clip-path="url(#p2e5e31d661)" d="M 481.740295 347.949375 
L 481.740295 21.789375 
" style="fill:none;stroke:#8c8c8c;stroke-dasharray:5.55,2.4;stroke-dashoffset:0;stroke-width:1.5;"/>
   </g>
   <g id="patch_3">
    <path d="M 25.601563 347.949375 
L 25.601563 21.789375 
" style="fill:none;stroke:#ffffff;stroke-linecap:square;stroke-linejoin:miter;stroke-width:0.8;"/>
   </g>
   <g id="patch_4">
    <path d="M 695.201563 347.949375 
L 695.201563 21.789375 
" style="fill:none;stroke:#ffffff;stroke-linecap:square;stroke-linejoin:miter;stroke-width:0.8;"/>
   </g>
   <g id="patch_5">
    <path d="M 25.601563 347.949375 
L 695.201563 347.949375 
" style="fill:none;stroke:#ffffff;stroke-linecap:square;stroke-linejoin:miter;stroke-width:0.8;"/>
   </g>
   <g id="patch_6">
    <path d="M 25.601563 21.789375 
L 695.201563 21.789375 
" style="fill:none;stroke:#ffffff;stroke-linecap:square;stroke-linejoin:miter;stroke-width:0.8;"/>
   </g>
   <g id="text_12">
    <!-- y train-test split  -->
    <g style="fill:#262626;" transform="translate(318.392188 15.789375)scale(0.12 -0.12)">
     <defs>
      <path d="M 6.203125 -19.96875 
L 5.21875 -11.71875 
Q 8.109375 -12.5 10.25 -12.5 
Q 13.1875 -12.5 14.9375 -11.515625 
Q 16.703125 -10.546875 17.828125 -8.796875 
Q 18.65625 -7.46875 20.515625 -2.25 
Q 20.75 -1.515625 21.296875 -0.09375 
L 1.609375 51.859375 
L 11.078125 51.859375 
L 21.875 21.828125 
Q 23.96875 16.109375 25.640625 9.8125 
Q 27.15625 15.875 29.25 21.625 
L 40.328125 51.859375 
L 49.125 51.859375 
L 29.390625 -0.875 
Q 26.21875 -9.421875 24.46875 -12.640625 
Q 22.125 -17 19.09375 -19.015625 
Q 16.0625 -21.046875 11.859375 -21.046875 
Q 9.328125 -21.046875 6.203125 -19.96875 
z
" id="ArialMT-121"/>
      <path id="ArialMT-32"/>
      <path d="M 6.5 0 
L 6.5 51.859375 
L 14.40625 51.859375 
L 14.40625 44 
Q 17.4375 49.515625 20 51.265625 
Q 22.5625 53.03125 25.640625 53.03125 
Q 30.078125 53.03125 34.671875 50.203125 
L 31.640625 42.046875 
Q 28.421875 43.953125 25.203125 43.953125 
Q 22.3125 43.953125 20.015625 42.21875 
Q 17.71875 40.484375 16.75 37.40625 
Q 15.28125 32.71875 15.28125 27.15625 
L 15.28125 0 
z
" id="ArialMT-114"/>
      <path d="M 40.4375 6.390625 
Q 35.546875 2.25 31.03125 0.53125 
Q 26.515625 -1.171875 21.34375 -1.171875 
Q 12.796875 -1.171875 8.203125 3 
Q 3.609375 7.171875 3.609375 13.671875 
Q 3.609375 17.484375 5.34375 20.625 
Q 7.078125 23.78125 9.890625 25.6875 
Q 12.703125 27.59375 16.21875 28.5625 
Q 18.796875 29.25 24.03125 29.890625 
Q 34.671875 31.15625 39.703125 32.90625 
Q 39.75 34.71875 39.75 35.203125 
Q 39.75 40.578125 37.25 42.78125 
Q 33.890625 45.75 27.25 45.75 
Q 21.046875 45.75 18.09375 43.578125 
Q 15.140625 41.40625 13.71875 35.890625 
L 5.125 37.0625 
Q 6.296875 42.578125 8.984375 45.96875 
Q 11.671875 49.359375 16.75 51.1875 
Q 21.828125 53.03125 28.515625 53.03125 
Q 35.15625 53.03125 39.296875 51.46875 
Q 43.453125 49.90625 45.40625 47.53125 
Q 47.359375 45.171875 48.140625 41.546875 
Q 48.578125 39.3125 48.578125 33.453125 
L 48.578125 21.734375 
Q 48.578125 9.46875 49.140625 6.21875 
Q 49.703125 2.984375 51.375 0 
L 42.1875 0 
Q 40.828125 2.734375 40.4375 6.390625 
z
M 39.703125 26.03125 
Q 34.90625 24.078125 25.34375 22.703125 
Q 19.921875 21.921875 17.671875 20.9375 
Q 15.4375 19.96875 14.203125 18.09375 
Q 12.984375 16.21875 12.984375 13.921875 
Q 12.984375 10.40625 15.640625 8.0625 
Q 18.3125 5.71875 23.4375 5.71875 
Q 28.515625 5.71875 32.46875 7.9375 
Q 36.421875 10.15625 38.28125 14.015625 
Q 39.703125 17 39.703125 22.796875 
z
" id="ArialMT-97"/>
      <path d="M 6.640625 61.46875 
L 6.640625 71.578125 
L 15.4375 71.578125 
L 15.4375 61.46875 
z
M 6.640625 0 
L 6.640625 51.859375 
L 15.4375 51.859375 
L 15.4375 0 
z
" id="ArialMT-105"/>
      <path d="M 6.59375 0 
L 6.59375 51.859375 
L 14.5 51.859375 
L 14.5 44.484375 
Q 20.21875 53.03125 31 53.03125 
Q 35.6875 53.03125 39.625 51.34375 
Q 43.5625 49.65625 45.515625 46.921875 
Q 47.46875 44.1875 48.25 40.4375 
Q 48.734375 37.984375 48.734375 31.890625 
L 48.734375 0 
L 39.9375 0 
L 39.9375 31.546875 
Q 39.9375 36.921875 38.90625 39.578125 
Q 37.890625 42.234375 35.28125 43.8125 
Q 32.671875 45.40625 29.15625 45.40625 
Q 23.53125 45.40625 19.453125 41.84375 
Q 15.375 38.28125 15.375 28.328125 
L 15.375 0 
z
" id="ArialMT-110"/>
      <path d="M 3.171875 21.484375 
L 3.171875 30.328125 
L 30.171875 30.328125 
L 30.171875 21.484375 
z
" id="ArialMT-45"/>
      <path d="M 42.09375 16.703125 
L 51.171875 15.578125 
Q 49.03125 7.625 43.21875 3.21875 
Q 37.40625 -1.171875 28.375 -1.171875 
Q 17 -1.171875 10.328125 5.828125 
Q 3.65625 12.84375 3.65625 25.484375 
Q 3.65625 38.578125 10.390625 45.796875 
Q 17.140625 53.03125 27.875 53.03125 
Q 38.28125 53.03125 44.875 45.953125 
Q 51.46875 38.875 51.46875 26.03125 
Q 51.46875 25.25 51.421875 23.6875 
L 12.75 23.6875 
Q 13.234375 15.140625 17.578125 10.59375 
Q 21.921875 6.0625 28.421875 6.0625 
Q 33.25 6.0625 36.671875 8.59375 
Q 40.09375 11.140625 42.09375 16.703125 
z
M 13.234375 30.90625 
L 42.1875 30.90625 
Q 41.609375 37.453125 38.875 40.71875 
Q 34.671875 45.796875 27.984375 45.796875 
Q 21.921875 45.796875 17.796875 41.75 
Q 13.671875 37.703125 13.234375 30.90625 
z
" id="ArialMT-101"/>
      <path d="M 3.078125 15.484375 
L 11.765625 16.84375 
Q 12.5 11.625 15.84375 8.84375 
Q 19.1875 6.0625 25.203125 6.0625 
Q 31.25 6.0625 34.171875 8.515625 
Q 37.109375 10.984375 37.109375 14.3125 
Q 37.109375 17.28125 34.515625 19 
Q 32.71875 20.171875 25.53125 21.96875 
Q 15.875 24.421875 12.140625 26.203125 
Q 8.40625 27.984375 6.46875 31.125 
Q 4.546875 34.28125 4.546875 38.09375 
Q 4.546875 41.546875 6.125 44.5 
Q 7.71875 47.46875 10.453125 49.421875 
Q 12.5 50.921875 16.03125 51.96875 
Q 19.578125 53.03125 23.640625 53.03125 
Q 29.734375 53.03125 34.34375 51.265625 
Q 38.96875 49.515625 41.15625 46.5 
Q 43.359375 43.5 44.1875 38.484375 
L 35.59375 37.3125 
Q 35.015625 41.3125 32.203125 43.546875 
Q 29.390625 45.796875 24.265625 45.796875 
Q 18.21875 45.796875 15.625 43.796875 
Q 13.03125 41.796875 13.03125 39.109375 
Q 13.03125 37.40625 14.109375 36.03125 
Q 15.1875 34.625 17.484375 33.6875 
Q 18.796875 33.203125 25.25 31.453125 
Q 34.578125 28.953125 38.25 27.359375 
Q 41.9375 25.78125 44.03125 22.75 
Q 46.140625 19.734375 46.140625 15.234375 
Q 46.140625 10.84375 43.578125 6.953125 
Q 41.015625 3.078125 36.171875 0.953125 
Q 31.34375 -1.171875 25.25 -1.171875 
Q 15.140625 -1.171875 9.84375 3.03125 
Q 4.546875 7.234375 3.078125 15.484375 
z
" id="ArialMT-115"/>
      <path d="M 6.59375 -19.875 
L 6.59375 51.859375 
L 14.59375 51.859375 
L 14.59375 45.125 
Q 17.4375 49.078125 21 51.046875 
Q 24.5625 53.03125 29.640625 53.03125 
Q 36.28125 53.03125 41.359375 49.609375 
Q 46.4375 46.1875 49.015625 39.953125 
Q 51.609375 33.734375 51.609375 26.3125 
Q 51.609375 18.359375 48.75 11.984375 
Q 45.90625 5.609375 40.453125 2.21875 
Q 35.015625 -1.171875 29 -1.171875 
Q 24.609375 -1.171875 21.109375 0.6875 
Q 17.625 2.546875 15.375 5.375 
L 15.375 -19.875 
z
M 14.546875 25.640625 
Q 14.546875 15.625 18.59375 10.84375 
Q 22.65625 6.0625 28.421875 6.0625 
Q 34.28125 6.0625 38.453125 11.015625 
Q 42.625 15.96875 42.625 26.375 
Q 42.625 36.28125 38.546875 41.203125 
Q 34.46875 46.140625 28.8125 46.140625 
Q 23.1875 46.140625 18.859375 40.890625 
Q 14.546875 35.640625 14.546875 25.640625 
z
" id="ArialMT-112"/>
      <path d="M 6.390625 0 
L 6.390625 71.578125 
L 15.1875 71.578125 
L 15.1875 0 
z
" id="ArialMT-108"/>
     </defs>
     <use xlink:href="#ArialMT-121"/>
     <use x="50" xlink:href="#ArialMT-32"/>
     <use x="77.783203" xlink:href="#ArialMT-116"/>
     <use x="105.566406" xlink:href="#ArialMT-114"/>
     <use x="138.867188" xlink:href="#ArialMT-97"/>
     <use x="194.482422" xlink:href="#ArialMT-105"/>
     <use x="216.699219" xlink:href="#ArialMT-110"/>
     <use x="272.314453" xlink:href="#ArialMT-45"/>
     <use x="305.615234" xlink:href="#ArialMT-116"/>
     <use x="333.398438" xlink:href="#ArialMT-101"/>
     <use x="389.013672" xlink:href="#ArialMT-115"/>
     <use x="439.013672" xlink:href="#ArialMT-116"/>
     <use x="466.796875" xlink:href="#ArialMT-32"/>
     <use x="494.580078" xlink:href="#ArialMT-115"/>
     <use x="544.580078" xlink:href="#ArialMT-112"/>
     <use x="600.195312" xlink:href="#ArialMT-108"/>
     <use x="622.412109" xlink:href="#ArialMT-105"/>
     <use x="644.628906" xlink:href="#ArialMT-116"/>
     <use x="672.412109" xlink:href="#ArialMT-32"/>
    </g>
   </g>
   <g id="legend_1">
    <g id="patch_7">
     <path d="M 702.201563 207.704531 
L 794.2125 207.704531 
Q 796.2125 207.704531 796.2125 205.704531 
L 796.2125 164.034219 
Q 796.2125 162.034219 794.2125 162.034219 
L 702.201563 162.034219 
Q 700.201563 162.034219 700.201563 164.034219 
L 700.201563 205.704531 
Q 700.201563 207.704531 702.201563 207.704531 
z
" style="fill:#e6e6e6;opacity:0.8;stroke:#cccccc;stroke-linejoin:miter;"/>
    </g>
    <g id="line2d_14">
     <path d="M 704.201563 169.692031 
L 724.201563 169.692031 
" style="fill:none;stroke:#4c72b0;stroke-linecap:round;stroke-width:1.5;"/>
    </g>
    <g id="line2d_15"/>
    <g id="text_13">
     <!-- y_train -->
     <g style="fill:#262626;" transform="translate(732.201563 173.192031)scale(0.1 -0.1)">
      <defs>
       <path d="M -1.515625 -19.875 
L -1.515625 -13.53125 
L 56.734375 -13.53125 
L 56.734375 -19.875 
z
" id="ArialMT-95"/>
      </defs>
      <use xlink:href="#ArialMT-121"/>
      <use x="50" xlink:href="#ArialMT-95"/>
      <use x="105.615234" xlink:href="#ArialMT-116"/>
      <use x="133.398438" xlink:href="#ArialMT-114"/>
      <use x="166.699219" xlink:href="#ArialMT-97"/>
      <use x="222.314453" xlink:href="#ArialMT-105"/>
      <use x="244.53125" xlink:href="#ArialMT-110"/>
     </g>
    </g>
    <g id="line2d_16">
     <path d="M 704.201563 183.954531 
L 724.201563 183.954531 
" style="fill:none;stroke:#dd8452;stroke-linecap:round;stroke-width:1.5;"/>
    </g>
    <g id="line2d_17"/>
    <g id="text_14">
     <!-- y_test -->
     <g style="fill:#262626;" transform="translate(732.201563 187.454531)scale(0.1 -0.1)">
      <use xlink:href="#ArialMT-121"/>
      <use x="50" xlink:href="#ArialMT-95"/>
      <use x="105.615234" xlink:href="#ArialMT-116"/>
      <use x="133.398438" xlink:href="#ArialMT-101"/>
      <use x="189.013672" xlink:href="#ArialMT-115"/>
      <use x="239.013672" xlink:href="#ArialMT-116"/>
     </g>
    </g>
    <g id="line2d_18">
     <path d="M 704.201563 198.217031 
L 724.201563 198.217031 
" style="fill:none;stroke:#8c8c8c;stroke-dasharray:5.55,2.4;stroke-dashoffset:0;stroke-width:1.5;"/>
    </g>
    <g id="line2d_19"/>
    <g id="text_15">
     <!-- train-test-split -->
     <g style="fill:#262626;" transform="translate(732.201563 201.717031)scale(0.1 -0.1)">
      <use xlink:href="#ArialMT-116"/>
      <use x="27.783203" xlink:href="#ArialMT-114"/>
      <use x="61.083984" xlink:href="#ArialMT-97"/>
      <use x="116.699219" xlink:href="#ArialMT-105"/>
      <use x="138.916016" xlink:href="#ArialMT-110"/>
      <use x="194.53125" xlink:href="#ArialMT-45"/>
      <use x="227.832031" xlink:href="#ArialMT-116"/>
      <use x="255.615234" xlink:href="#ArialMT-101"/>
      <use x="311.230469" xlink:href="#ArialMT-115"/>
      <use x="361.230469" xlink:href="#ArialMT-116"/>
      <use x="389.013672" xlink:href="#ArialMT-45"/>
      <use x="422.314453" xlink:href="#ArialMT-115"/>
      <use x="472.314453" xlink:href="#ArialMT-112"/>
      <use x="527.929688" xlink:href="#ArialMT-108"/>
      <use x="550.146484" xlink:href="#ArialMT-105"/>
      <use x="572.363281" xlink:href="#ArialMT-116"/>
     </g>
    </g>
   </g>
  </g>
 </g>
 <defs>
  <clipPath id="p2e5e31d661">
   <rect height="326.16" width="669.6" x="25.601563" y="21.789375"/>
  </clipPath>
 </defs>
</svg>
