<?xml version="1.0" encoding="utf-8" standalone="no"?>
<!DOCTYPE svg PUBLIC "-//W3C//DTD SVG 1.1//EN"
  "http://www.w3.org/Graphics/SVG/1.1/DTD/svg11.dtd">
<!-- Created with matplotlib (https://matplotlib.org/) -->
<svg height="384.44pt" version="1.1" viewBox="0 0 845.103125 384.44" width="845.103125pt" xmlns="http://www.w3.org/2000/svg" xmlns:xlink="http://www.w3.org/1999/xlink">
 <metadata>
  <rdf:RDF xmlns:cc="http://creativecommons.org/ns#" xmlns:dc="http://purl.org/dc/elements/1.1/" xmlns:rdf="http://www.w3.org/1999/02/22-rdf-syntax-ns#">
   <cc:Work>
    <dc:type rdf:resource="http://purl.org/dc/dcmitype/StillImage"/>
    <dc:date>2020-12-29T19:39:31.268136</dc:date>
    <dc:format>image/svg+xml</dc:format>
    <dc:creator>
     <cc:Agent>
      <dc:title>Matplotlib v3.3.1, https://matplotlib.org/</dc:title>
     </cc:Agent>
    </dc:creator>
   </cc:Work>
  </rdf:RDF>
 </metadata>
 <defs>
  <style type="text/css">*{stroke-linecap:butt;stroke-linejoin:round;}</style>
 </defs>
 <g id="figure_1">
  <g id="patch_1">
   <path d="M 0 384.44 
L 845.103125 384.44 
L 845.103125 0 
L 0 0 
z
" style="fill:#ffffff;"/>
  </g>
  <g id="axes_1">
   <g id="patch_2">
    <path d="M 25.601563 347.949375 
L 695.201563 347.949375 
L 695.201563 21.789375 
L 25.601563 21.789375 
z
" style="fill:#e6e6e6;"/>
   </g>
   <g id="matplotlib.axis_1">
    <g id="xtick_1">
     <g id="line2d_1">
      <path clip-path="url(#p17c284b5ab)" d="M 56.037926 347.949375 
L 56.037926 21.789375 
" style="fill:none;stroke:#cccccc;stroke-linecap:round;stroke-width:0.8;"/>
     </g>
     <g id="text_1">
      <!-- 0 -->
      <g style="fill:#262626;" transform="translate(53.257457 362.107188)scale(0.1 -0.1)">
       <defs>
        <path d="M 4.15625 35.296875 
Q 4.15625 48 6.765625 55.734375 
Q 9.375 63.484375 14.515625 67.671875 
Q 19.671875 71.875 27.484375 71.875 
Q 33.25 71.875 37.59375 69.546875 
Q 41.9375 67.234375 44.765625 62.859375 
Q 47.609375 58.5 49.21875 52.21875 
Q 50.828125 45.953125 50.828125 35.296875 
Q 50.828125 22.703125 48.234375 14.96875 
Q 45.65625 7.234375 40.5 3 
Q 35.359375 -1.21875 27.484375 -1.21875 
Q 17.140625 -1.21875 11.234375 6.203125 
Q 4.15625 15.140625 4.15625 35.296875 
z
M 13.1875 35.296875 
Q 13.1875 17.671875 17.3125 11.828125 
Q 21.4375 6 27.484375 6 
Q 33.546875 6 37.671875 11.859375 
Q 41.796875 17.71875 41.796875 35.296875 
Q 41.796875 52.984375 37.671875 58.78125 
Q 33.546875 64.59375 27.390625 64.59375 
Q 21.34375 64.59375 17.71875 59.46875 
Q 13.1875 52.9375 13.1875 35.296875 
z
" id="ArialMT-48"/>
       </defs>
       <use xlink:href="#ArialMT-48"/>
      </g>
     </g>
    </g>
    <g id="xtick_2">
     <g id="line2d_2">
      <path clip-path="url(#p17c284b5ab)" d="M 191.611929 347.949375 
L 191.611929 21.789375 
" style="fill:none;stroke:#cccccc;stroke-linecap:round;stroke-width:0.8;"/>
     </g>
     <g id="text_2">
      <!-- 100 -->
      <g style="fill:#262626;" transform="translate(183.270523 362.107188)scale(0.1 -0.1)">
       <defs>
        <path d="M 37.25 0 
L 28.46875 0 
L 28.46875 56 
Q 25.296875 52.984375 20.140625 49.953125 
Q 14.984375 46.921875 10.890625 45.40625 
L 10.890625 53.90625 
Q 18.265625 57.375 23.78125 62.296875 
Q 29.296875 67.234375 31.59375 71.875 
L 37.25 71.875 
z
" id="ArialMT-49"/>
       </defs>
       <use xlink:href="#ArialMT-49"/>
       <use x="55.615234" xlink:href="#ArialMT-48"/>
       <use x="111.230469" xlink:href="#ArialMT-48"/>
      </g>
     </g>
    </g>
    <g id="xtick_3">
     <g id="line2d_3">
      <path clip-path="url(#p17c284b5ab)" d="M 327.185932 347.949375 
L 327.185932 21.789375 
" style="fill:none;stroke:#cccccc;stroke-linecap:round;stroke-width:0.8;"/>
     </g>
     <g id="text_3">
      <!-- 200 -->
      <g style="fill:#262626;" transform="translate(318.844526 362.107188)scale(0.1 -0.1)">
       <defs>
        <path d="M 50.34375 8.453125 
L 50.34375 0 
L 3.03125 0 
Q 2.9375 3.171875 4.046875 6.109375 
Q 5.859375 10.9375 9.828125 15.625 
Q 13.8125 20.3125 21.34375 26.46875 
Q 33.015625 36.03125 37.109375 41.625 
Q 41.21875 47.21875 41.21875 52.203125 
Q 41.21875 57.421875 37.46875 61 
Q 33.734375 64.59375 27.734375 64.59375 
Q 21.390625 64.59375 17.578125 60.78125 
Q 13.765625 56.984375 13.71875 50.25 
L 4.6875 51.171875 
Q 5.609375 61.28125 11.65625 66.578125 
Q 17.71875 71.875 27.9375 71.875 
Q 38.234375 71.875 44.234375 66.15625 
Q 50.25 60.453125 50.25 52 
Q 50.25 47.703125 48.484375 43.546875 
Q 46.734375 39.40625 42.65625 34.8125 
Q 38.578125 30.21875 29.109375 22.21875 
Q 21.1875 15.578125 18.9375 13.203125 
Q 16.703125 10.84375 15.234375 8.453125 
z
" id="ArialMT-50"/>
       </defs>
       <use xlink:href="#ArialMT-50"/>
       <use x="55.615234" xlink:href="#ArialMT-48"/>
       <use x="111.230469" xlink:href="#ArialMT-48"/>
      </g>
     </g>
    </g>
    <g id="xtick_4">
     <g id="line2d_4">
      <path clip-path="url(#p17c284b5ab)" d="M 462.759935 347.949375 
L 462.759935 21.789375 
" style="fill:none;stroke:#cccccc;stroke-linecap:round;stroke-width:0.8;"/>
     </g>
     <g id="text_4">
      <!-- 300 -->
      <g style="fill:#262626;" transform="translate(454.418528 362.107188)scale(0.1 -0.1)">
       <defs>
        <path d="M 4.203125 18.890625 
L 12.984375 20.0625 
Q 14.5 12.59375 18.140625 9.296875 
Q 21.78125 6 27 6 
Q 33.203125 6 37.46875 10.296875 
Q 41.75 14.59375 41.75 20.953125 
Q 41.75 27 37.796875 30.921875 
Q 33.84375 34.859375 27.734375 34.859375 
Q 25.25 34.859375 21.53125 33.890625 
L 22.515625 41.609375 
Q 23.390625 41.5 23.921875 41.5 
Q 29.546875 41.5 34.03125 44.421875 
Q 38.53125 47.359375 38.53125 53.46875 
Q 38.53125 58.296875 35.25 61.46875 
Q 31.984375 64.65625 26.8125 64.65625 
Q 21.6875 64.65625 18.265625 61.421875 
Q 14.84375 58.203125 13.875 51.765625 
L 5.078125 53.328125 
Q 6.6875 62.15625 12.390625 67.015625 
Q 18.109375 71.875 26.609375 71.875 
Q 32.46875 71.875 37.390625 69.359375 
Q 42.328125 66.84375 44.9375 62.5 
Q 47.5625 58.15625 47.5625 53.265625 
Q 47.5625 48.640625 45.0625 44.828125 
Q 42.578125 41.015625 37.703125 38.765625 
Q 44.046875 37.3125 47.5625 32.6875 
Q 51.078125 28.078125 51.078125 21.140625 
Q 51.078125 11.765625 44.234375 5.25 
Q 37.40625 -1.265625 26.953125 -1.265625 
Q 17.53125 -1.265625 11.296875 4.34375 
Q 5.078125 9.96875 4.203125 18.890625 
z
" id="ArialMT-51"/>
       </defs>
       <use xlink:href="#ArialMT-51"/>
       <use x="55.615234" xlink:href="#ArialMT-48"/>
       <use x="111.230469" xlink:href="#ArialMT-48"/>
      </g>
     </g>
    </g>
    <g id="xtick_5">
     <g id="line2d_5">
      <path clip-path="url(#p17c284b5ab)" d="M 598.333937 347.949375 
L 598.333937 21.789375 
" style="fill:none;stroke:#cccccc;stroke-linecap:round;stroke-width:0.8;"/>
     </g>
     <g id="text_5">
      <!-- 400 -->
      <g style="fill:#262626;" transform="translate(589.992531 362.107188)scale(0.1 -0.1)">
       <defs>
        <path d="M 32.328125 0 
L 32.328125 17.140625 
L 1.265625 17.140625 
L 1.265625 25.203125 
L 33.9375 71.578125 
L 41.109375 71.578125 
L 41.109375 25.203125 
L 50.78125 25.203125 
L 50.78125 17.140625 
L 41.109375 17.140625 
L 41.109375 0 
z
M 32.328125 25.203125 
L 32.328125 57.46875 
L 9.90625 25.203125 
z
" id="ArialMT-52"/>
       </defs>
       <use xlink:href="#ArialMT-52"/>
       <use x="55.615234" xlink:href="#ArialMT-48"/>
       <use x="111.230469" xlink:href="#ArialMT-48"/>
      </g>
     </g>
    </g>
    <g id="text_6">
     <!-- t -->
     <g style="fill:#262626;" transform="translate(359.0125 375.2525)scale(0.1 -0.1)">
      <defs>
       <path d="M 25.78125 7.859375 
L 27.046875 0.09375 
Q 23.34375 -0.6875 20.40625 -0.6875 
Q 15.625 -0.6875 12.984375 0.828125 
Q 10.359375 2.34375 9.28125 4.8125 
Q 8.203125 7.28125 8.203125 15.1875 
L 8.203125 45.015625 
L 1.765625 45.015625 
L 1.765625 51.859375 
L 8.203125 51.859375 
L 8.203125 64.703125 
L 16.9375 69.96875 
L 16.9375 51.859375 
L 25.78125 51.859375 
L 25.78125 45.015625 
L 16.9375 45.015625 
L 16.9375 14.703125 
Q 16.9375 10.9375 17.40625 9.859375 
Q 17.875 8.796875 18.921875 8.15625 
Q 19.96875 7.515625 21.921875 7.515625 
Q 23.390625 7.515625 25.78125 7.859375 
z
" id="ArialMT-116"/>
      </defs>
      <use xlink:href="#ArialMT-116"/>
     </g>
    </g>
   </g>
   <g id="matplotlib.axis_2">
    <g id="ytick_1">
     <g id="line2d_6">
      <path clip-path="url(#p17c284b5ab)" d="M 25.601563 327.619004 
L 695.201563 327.619004 
" style="fill:none;stroke:#cccccc;stroke-linecap:round;stroke-width:0.8;"/>
     </g>
     <g id="text_7">
      <!-- −2 -->
      <g style="fill:#262626;" transform="translate(7.2 331.19791)scale(0.1 -0.1)">
       <defs>
        <path d="M 52.828125 31.203125 
L 5.5625 31.203125 
L 5.5625 39.40625 
L 52.828125 39.40625 
z
" id="ArialMT-8722"/>
       </defs>
       <use xlink:href="#ArialMT-8722"/>
       <use x="58.398438" xlink:href="#ArialMT-50"/>
      </g>
     </g>
    </g>
    <g id="ytick_2">
     <g id="line2d_7">
      <path clip-path="url(#p17c284b5ab)" d="M 25.601563 261.370761 
L 695.201563 261.370761 
" style="fill:none;stroke:#cccccc;stroke-linecap:round;stroke-width:0.8;"/>
     </g>
     <g id="text_8">
      <!-- 0 -->
      <g style="fill:#262626;" transform="translate(13.040625 264.949667)scale(0.1 -0.1)">
       <use xlink:href="#ArialMT-48"/>
      </g>
     </g>
    </g>
    <g id="ytick_3">
     <g id="line2d_8">
      <path clip-path="url(#p17c284b5ab)" d="M 25.601563 195.122518 
L 695.201563 195.122518 
" style="fill:none;stroke:#cccccc;stroke-linecap:round;stroke-width:0.8;"/>
     </g>
     <g id="text_9">
      <!-- 2 -->
      <g style="fill:#262626;" transform="translate(13.040625 198.701425)scale(0.1 -0.1)">
       <use xlink:href="#ArialMT-50"/>
      </g>
     </g>
    </g>
    <g id="ytick_4">
     <g id="line2d_9">
      <path clip-path="url(#p17c284b5ab)" d="M 25.601563 128.874276 
L 695.201563 128.874276 
" style="fill:none;stroke:#cccccc;stroke-linecap:round;stroke-width:0.8;"/>
     </g>
     <g id="text_10">
      <!-- 4 -->
      <g style="fill:#262626;" transform="translate(13.040625 132.453182)scale(0.1 -0.1)">
       <use xlink:href="#ArialMT-52"/>
      </g>
     </g>
    </g>
    <g id="ytick_5">
     <g id="line2d_10">
      <path clip-path="url(#p17c284b5ab)" d="M 25.601563 62.626033 
L 695.201563 62.626033 
" style="fill:none;stroke:#cccccc;stroke-linecap:round;stroke-width:0.8;"/>
     </g>
     <g id="text_11">
      <!-- 6 -->
      <g style="fill:#262626;" transform="translate(13.040625 66.204939)scale(0.1 -0.1)">
       <defs>
        <path d="M 49.75 54.046875 
L 41.015625 53.375 
Q 39.84375 58.546875 37.703125 60.890625 
Q 34.125 64.65625 28.90625 64.65625 
Q 24.703125 64.65625 21.53125 62.3125 
Q 17.390625 59.28125 14.984375 53.46875 
Q 12.59375 47.65625 12.5 36.921875 
Q 15.671875 41.75 20.265625 44.09375 
Q 24.859375 46.4375 29.890625 46.4375 
Q 38.671875 46.4375 44.84375 39.96875 
Q 51.03125 33.5 51.03125 23.25 
Q 51.03125 16.5 48.125 10.71875 
Q 45.21875 4.9375 40.140625 1.859375 
Q 35.0625 -1.21875 28.609375 -1.21875 
Q 17.625 -1.21875 10.6875 6.859375 
Q 3.765625 14.9375 3.765625 33.5 
Q 3.765625 54.25 11.421875 63.671875 
Q 18.109375 71.875 29.4375 71.875 
Q 37.890625 71.875 43.28125 67.140625 
Q 48.6875 62.40625 49.75 54.046875 
z
M 13.875 23.1875 
Q 13.875 18.65625 15.796875 14.5 
Q 17.71875 10.359375 21.1875 8.171875 
Q 24.65625 6 28.46875 6 
Q 34.03125 6 38.03125 10.484375 
Q 42.046875 14.984375 42.046875 22.703125 
Q 42.046875 30.125 38.078125 34.390625 
Q 34.125 38.671875 28.125 38.671875 
Q 22.171875 38.671875 18.015625 34.390625 
Q 13.875 30.125 13.875 23.1875 
z
" id="ArialMT-54"/>
       </defs>
       <use xlink:href="#ArialMT-54"/>
      </g>
     </g>
    </g>
   </g>
   <g id="PolyCollection_1">
    <defs>
     <path d="M 56.037926 -127.71216 
L 56.037926 -118.48525 
L 57.393666 -144.512159 
L 58.749406 -166.508218 
L 60.105146 -182.144248 
L 61.460886 -190.405828 
L 62.816626 -190.957095 
L 64.172366 -185.369092 
L 65.528106 -175.790097 
L 66.883846 -164.889797 
L 68.239586 -156.179196 
L 69.595326 -152.844244 
L 70.951066 -156.1066 
L 72.306806 -164.931438 
L 73.662547 -176.296353 
L 75.018287 -186.815841 
L 76.374027 -193.073811 
L 77.729767 -192.304887 
L 79.085507 -184.189424 
L 80.441247 -168.82778 
L 81.796987 -147.315553 
L 83.152727 -122.028118 
L 84.508467 -96.11722 
L 85.864207 -73.601235 
L 87.219947 -58.325232 
L 88.575687 -52.308437 
L 89.931427 -54.917689 
L 91.287167 -63.067204 
L 92.642907 -73.640707 
L 93.998647 -83.879656 
L 95.354387 -91.097882 
L 96.710127 -93.925044 
L 98.065867 -92.226818 
L 99.421607 -85.889783 
L 100.777347 -76.234552 
L 102.133087 -66.034192 
L 103.488827 -58.719235 
L 104.844567 -57.518798 
L 106.200307 -65.174751 
L 107.556047 -82.715927 
L 108.911787 -107.254929 
L 110.267527 -134.373863 
L 111.623267 -160.029307 
L 112.979007 -181.393564 
L 114.334747 -196.272901 
L 115.690487 -203.822801 
L 117.046227 -203.769507 
L 118.401967 -197.84603 
L 119.757707 -188.193638 
L 121.113447 -177.436166 
L 122.469188 -169.288821 
L 123.824928 -166.72841 
L 125.180668 -170.877019 
L 126.536408 -180.350839 
L 127.892148 -191.990043 
L 129.247888 -202.348702 
L 130.603628 -208.153842 
L 131.959368 -206.797933 
L 133.315108 -198.174457 
L 134.670848 -182.322804 
L 136.026588 -160.39551 
L 137.382328 -134.883138 
L 138.738068 -108.994699 
L 140.093808 -86.88741 
L 141.449548 -72.301077 
L 142.805288 -67.09148 
L 144.161028 -70.327227 
L 145.516768 -78.726897 
L 146.872508 -89.201414 
L 148.228248 -98.977865 
L 149.583988 -105.519587 
L 150.939728 -107.682658 
L 152.295468 -105.338901 
L 153.651208 -98.467969 
L 155.006948 -88.526384 
L 156.362688 -78.36717 
L 157.718428 -71.37004 
L 159.074168 -70.785191 
L 160.429908 -79.383342 
L 161.785648 -97.856118 
L 163.141388 -122.90715 
L 164.497128 -150.045352 
L 165.852868 -175.311561 
L 167.208608 -196.035034 
L 168.564348 -210.230185 
L 169.920089 -217.048322 
L 171.275829 -216.439124 
L 172.631569 -210.197206 
L 173.987309 -200.469213 
L 175.343049 -189.9551 
L 176.698789 -182.354936 
L 178.054529 -180.63475 
L 179.410269 -185.687022 
L 180.766009 -195.759628 
L 182.121749 -207.568043 
L 183.477489 -217.707584 
L 184.833229 -223.021025 
L 186.188969 -221.099269 
L 187.544709 -211.995967 
L 188.900449 -195.64109 
L 190.256189 -173.338097 
L 191.611929 -147.569362 
L 192.967669 -121.7391 
L 194.323409 -100.110787 
L 195.679149 -86.271433 
L 197.034889 -81.857189 
L 198.390629 -85.670689 
L 199.746369 -94.317616 
L 201.102109 -104.632028 
L 202.457849 -113.94666 
L 203.813589 -119.791724 
L 205.169329 -121.300271 
L 206.525069 -118.313659 
L 207.880809 -110.912157 
L 209.236549 -100.685012 
L 210.592289 -90.547981 
L 211.948029 -83.956208 
L 213.303769 -84.000448 
L 214.659509 -93.55493 
L 216.015249 -112.884077 
L 217.37099 -138.333382 
L 218.72673 -165.429297 
L 220.08247 -190.319731 
L 221.43821 -210.4388 
L 222.79395 -223.958916 
L 224.14969 -230.082061 
L 225.50543 -228.933228 
L 226.86117 -222.412551 
L 228.21691 -212.606817 
L 229.57265 -202.36507 
L 230.92839 -195.443304 
L 232.28413 -194.579578 
L 233.63987 -200.507152 
L 234.99561 -211.113237 
L 236.35135 -222.990696 
L 237.70709 -232.859883 
L 239.06283 -237.672882 
L 240.41857 -235.214668 
L 241.77431 -225.585453 
L 243.13005 -208.739095 
L 244.48579 -185.982356 
L 245.84153 -159.992854 
L 247.19727 -134.272674 
L 248.55301 -113.182269 
L 249.90875 -100.144177 
L 251.26449 -96.553591 
L 252.62023 -100.923896 
L 253.97597 -109.748174 
L 255.33171 -119.888001 
L 256.68745 -128.748069 
L 258.04319 -133.950364 
L 259.39893 -134.816412 
L 260.75467 -131.158153 
L 262.11041 -123.216593 
L 263.46615 -112.709944 
L 264.821891 -102.63925 
L 266.177631 -96.410634 
L 267.533371 -97.192986 
L 268.889111 -107.739618 
L 270.244851 -127.772831 
L 271.600591 -153.520891 
L 272.956331 -180.487982 
L 274.312071 -205.022962 
L 275.667811 -224.572664 
L 277.023551 -237.467521 
L 278.379291 -242.925442 
L 279.735031 -241.253065 
L 281.090771 -234.450146 
L 282.446511 -224.618594 
L 283.802251 -214.705937 
L 285.157991 -208.483384 
L 286.513731 -208.543425 
L 287.869471 -215.320802 
L 289.225211 -226.372316 
L 290.580951 -238.261199 
L 291.936691 -247.786796 
L 293.292431 -252.063002 
L 294.648171 -249.0625 
L 296.003911 -238.924239 
L 297.359651 -221.482644 
L 298.715391 -198.307088 
L 300.071131 -172.071967 
L 301.426871 -146.545176 
L 302.782611 -126.114184 
L 304.138351 -113.917062 
L 305.494091 -111.142111 
L 306.849831 -116.03177 
L 308.205571 -125.040116 
L 309.561311 -135.015194 
L 310.917051 -143.411234 
L 312.272791 -147.955986 
L 313.628532 -148.202609 
L 314.984272 -143.862656 
L 316.340012 -135.352868 
L 317.695752 -124.5756 
L 319.051492 -114.593163 
L 320.407232 -108.805568 
L 321.762972 -110.379503 
L 323.118712 -121.85814 
L 324.474452 -142.505683 
L 325.830192 -168.396301 
L 327.185932 -195.213469 
L 328.541672 -219.436379 
L 329.897412 -238.481633 
L 331.253152 -250.775664 
L 332.608892 -255.521957 
L 333.964632 -253.381594 
L 335.320372 -246.306685 
L 336.676112 -236.487721 
L 338.031852 -226.993047 
L 339.387592 -221.54025 
L 340.743332 -222.546628 
L 342.099072 -230.112968 
L 343.454812 -241.519742 
L 344.810552 -253.35338 
L 346.166292 -262.513854 
L 347.522032 -266.23296 
L 348.877772 -262.680248 
L 350.233512 -251.917344 
L 351.589252 -233.870404 
L 352.944992 -210.224747 
L 354.300732 -183.82393 
L 355.656472 -158.557118 
L 357.012212 -138.872266 
L 358.367952 -127.598071 
L 359.723692 -125.647848 
L 361.079433 -131.000854 
L 362.435173 -140.140977 
L 363.790913 -149.953129 
L 365.146653 -157.906948 
L 366.502393 -161.850338 
L 367.858133 -161.433048 
L 369.213873 -156.388716 
L 370.569613 -147.332885 
L 371.925353 -136.305835 
L 373.281093 -126.437114 
L 374.636833 -121.127169 
L 375.992573 -123.567835 
L 377.348313 -135.95802 
L 378.704053 -157.080408 
L 380.059793 -183.031759 
L 381.415533 -209.706042 
L 382.771273 -233.598353 
L 384.127013 -252.171333 
L 385.482753 -263.854151 
L 386.838493 -267.933595 
L 388.194233 -265.323294 
L 389.549973 -258.00258 
L 390.905713 -248.221312 
L 392.261453 -239.212708 
L 393.617193 -234.611777 
L 394.972933 -236.552807 
L 396.328673 -244.84309 
L 397.684413 -256.571225 
L 399.040153 -268.301601 
L 400.395893 -277.075714 
L 401.751633 -280.221379 
L 403.107373 -276.068335 
L 404.463113 -264.60722 
L 405.818853 -245.892312 
L 407.174593 -221.810225 
L 408.530334 -195.287688 
L 409.886074 -170.410748 
L 411.241814 -151.50903 
L 412.597554 -141.196256 
L 413.953294 -140.027834 
L 415.309034 -145.852526 
L 416.664774 -155.108697 
L 418.020514 -164.762444 
L 419.376254 -172.257473 
L 420.731994 -175.598289 
L 422.087734 -174.523365 
L 423.443474 -168.76451 
L 424.799214 -159.16831 
L 426.154954 -147.9367 
L 427.510694 -138.205043 
L 428.866434 -133.482759 
L 430.222174 -136.7835 
L 431.577914 -150.002374 
L 432.933654 -171.534085 
L 434.289394 -197.528061 
L 435.645134 -224.025184 
L 437.000874 -247.601337 
L 438.356614 -265.685736 
L 439.712354 -276.72576 
L 441.068094 -280.18538 
L 442.423834 -277.105338 
L 443.779574 -269.559376 
L 445.135314 -259.907193 
L 446.491054 -251.435603 
L 447.846794 -247.723422 
L 449.202534 -250.593176 
L 450.558274 -259.555945 
L 451.914014 -271.524168 
L 453.269754 -283.098218 
L 454.625494 -291.499017 
L 455.981234 -294.028614 
L 457.336975 -289.26064 
L 458.692715 -277.039996 
L 460.048455 -257.656482 
L 461.404195 -233.136828 
L 462.759935 -206.583067 
L 464.115675 -182.17403 
L 465.471415 -164.144451 
L 466.827155 -154.758959 
L 468.182895 -154.380398 
L 469.538635 -160.619781 
L 470.894375 -169.970166 
L 472.250115 -179.432469 
L 473.605855 -186.462349 
L 474.961595 -189.211175 
L 476.317335 -187.431334 
L 477.673075 -180.963188 
L 479.028815 -170.876398 
L 480.384555 -159.434806 
L 481.740295 -149.971897 
L 481.740295 -159.396995 
L 481.740295 -159.396995 
L 480.384555 -169.217969 
L 479.028815 -180.360397 
L 477.673075 -189.911265 
L 476.317335 -196.054322 
L 474.961595 -197.798048 
L 473.605855 -194.757927 
L 472.250115 -188.148042 
L 470.894375 -179.14769 
L 469.538635 -169.696778 
L 468.182895 -163.149813 
L 466.827155 -163.360679 
L 465.471415 -173.00888 
L 464.115675 -192.048582 
L 462.759935 -216.773523 
L 461.404195 -242.977087 
L 460.048455 -266.876438 
L 458.692715 -285.687807 
L 457.336975 -297.850833 
L 455.981234 -302.376847 
L 454.625494 -300.016944 
L 453.269754 -292.150511 
L 451.914014 -280.511654 
L 450.558274 -268.265647 
L 449.202534 -259.174339 
L 447.846794 -256.091834 
L 446.491054 -259.924167 
L 445.135314 -268.535356 
L 443.779574 -278.516147 
L 442.423834 -286.350584 
L 441.068094 -289.093836 
L 439.712354 -285.315654 
L 438.356614 -274.54336 
L 437.000874 -256.802064 
L 435.645134 -233.561254 
L 434.289394 -207.28596 
L 432.933654 -181.2637 
L 431.577914 -159.603872 
L 430.222174 -145.913342 
L 428.866434 -141.910413 
L 427.510694 -146.833872 
L 426.154954 -156.871398 
L 424.799214 -167.931103 
L 423.443474 -177.116022 
L 422.087734 -182.769276 
L 420.731994 -183.879762 
L 419.376254 -180.135344 
L 418.020514 -172.933212 
L 416.664774 -163.479243 
L 415.309034 -153.949099 
L 413.953294 -147.787958 
L 412.597554 -148.768725 
L 411.241814 -159.338485 
L 409.886074 -178.996744 
L 408.530334 -204.009096 
L 407.174593 -230.148407 
L 405.818853 -253.809528 
L 404.463113 -272.197254 
L 403.107373 -283.827481 
L 401.751633 -287.67582 
L 400.395893 -284.795843 
L 399.040153 -276.581684 
L 397.684413 -264.943469 
L 396.328673 -253.023275 
L 394.972933 -244.673898 
L 393.617193 -242.51709 
L 392.261453 -247.130971 
L 390.905713 -256.185508 
L 389.549973 -266.225292 
L 388.194233 -273.778252 
L 386.838493 -276.010597 
L 385.482753 -271.60141 
L 384.127013 -260.125256 
L 382.771273 -241.67088 
L 381.415533 -217.86825 
L 380.059793 -191.391839 
L 378.704053 -165.667484 
L 377.348313 -144.742732 
L 375.992573 -131.944434 
L 374.636833 -128.830589 
L 373.281093 -134.374369 
L 371.925353 -144.662974 
L 370.569613 -155.554317 
L 369.213873 -164.390024 
L 367.858133 -169.529731 
L 366.502393 -169.943366 
L 365.146653 -165.501667 
L 363.790913 -157.739168 
L 362.435173 -147.898738 
L 361.079433 -138.347846 
L 359.723692 -132.633402 
L 358.367952 -134.439259 
L 357.012212 -145.871881 
L 355.656472 -166.164725 
L 354.300732 -191.405765 
L 352.944992 -217.550781 
L 351.589252 -240.887052 
L 350.233512 -258.801608 
L 348.877772 -269.835728 
L 347.522032 -272.981562 
L 346.166292 -269.611353 
L 344.810552 -261.107419 
L 343.454812 -249.47815 
L 342.099072 -237.960859 
L 340.743332 -230.343475 
L 339.387592 -229.114642 
L 338.031852 -234.494271 
L 336.676112 -243.959323 
L 335.320372 -254.036897 
L 333.964632 -261.251553 
L 332.608892 -262.932579 
L 331.253152 -257.922636 
L 329.897412 -245.742096 
L 328.541672 -226.578138 
L 327.185932 -202.274218 
L 325.830192 -175.645215 
L 324.474452 -150.250937 
L 323.118712 -130.098954 
L 321.762972 -118.173469 
L 320.407232 -115.929235 
L 319.051492 -122.096667 
L 317.695752 -132.530357 
L 316.340012 -143.23942 
L 314.984272 -151.674615 
L 313.628532 -156.285099 
L 312.272791 -155.998866 
L 310.917051 -150.894132 
L 309.561311 -142.608328 
L 308.205571 -132.422474 
L 306.849831 -122.931681 
L 305.494091 -117.745435 
L 304.138351 -120.397185 
L 302.782611 -132.726914 
L 301.426871 -153.625934 
L 300.071131 -179.140205 
L 298.715391 -205.201394 
L 297.359651 -228.218537 
L 296.003911 -245.595248 
L 294.648171 -255.927178 
L 293.292431 -258.349285 
L 291.936691 -254.483451 
L 290.580951 -245.743946 
L 289.225211 -234.147702 
L 287.869471 -223.0653 
L 286.513731 -216.211239 
L 285.157991 -215.892546 
L 283.802251 -222.050174 
L 282.446511 -231.916083 
L 281.090771 -241.969778 
L 279.735031 -248.829698 
L 278.379291 -249.908925 
L 277.023551 -244.322773 
L 275.667811 -231.411343 
L 274.312071 -211.618612 
L 272.956331 -186.850439 
L 271.600591 -160.120078 
L 270.244851 -135.128463 
L 268.889111 -115.675919 
L 267.533371 -104.626386 
L 266.177631 -103.250522 
L 264.821891 -109.989355 
L 263.46615 -120.534383 
L 262.11041 -131.017286 
L 260.75467 -139.016264 
L 259.39893 -143.032256 
L 258.04319 -142.022863 
L 256.68745 -136.319996 
L 255.33171 -127.562941 
L 253.97597 -117.145338 
L 252.62023 -107.716514 
L 251.26449 -103.130095 
L 249.90875 -106.685564 
L 248.55301 -119.97291 
L 247.19727 -141.450621 
L 245.84153 -167.213313 
L 244.48579 -193.188539 
L 243.13005 -215.766803 
L 241.77431 -232.547041 
L 240.41857 -242.069469 
L 239.06283 -243.771423 
L 237.70709 -239.452057 
L 236.35135 -230.477635 
L 234.99561 -218.986124 
L 233.63987 -208.3476 
L 232.28413 -202.236933 
L 230.92839 -202.865046 
L 229.57265 -209.809052 
L 228.21691 -220.037033 
L 226.86117 -230.059885 
L 225.50543 -236.472337 
L 224.14969 -236.958234 
L 222.79395 -230.749511 
L 221.43821 -217.163091 
L 220.08247 -196.805514 
L 218.72673 -171.681465 
L 217.37099 -144.956317 
L 216.015249 -120.282973 
L 214.659509 -101.497218 
L 213.303769 -91.300591 
L 211.948029 -90.807099 
L 210.592289 -98.103989 
L 209.236549 -108.681282 
L 207.880809 -118.842669 
L 206.525069 -126.365623 
L 205.169329 -129.769957 
L 203.813589 -128.022408 
L 202.457849 -121.756773 
L 201.102109 -112.589122 
L 199.746369 -101.988104 
L 198.390629 -92.758492 
L 197.034889 -88.800522 
L 195.679149 -93.296047 
L 194.323409 -107.513424 
L 192.967669 -129.617571 
L 191.611929 -155.618392 
L 190.256189 -181.432973 
L 188.900449 -203.547892 
L 187.544709 -219.617666 
L 186.188969 -228.326747 
L 184.833229 -229.311421 
L 183.477489 -224.537167 
L 182.121749 -215.353879 
L 180.766009 -203.972644 
L 179.410269 -193.766594 
L 178.054529 -188.462769 
L 176.698789 -190.064092 
L 175.343049 -197.745037 
L 173.987309 -208.329325 
L 172.631569 -218.225691 
L 171.275829 -224.199527 
L 169.920089 -224.086353 
L 168.564348 -217.266344 
L 167.208608 -203.033851 
L 165.852868 -182.207752 
L 164.497128 -156.795593 
L 163.141388 -130.056791 
L 161.785648 -105.705254 
L 160.429908 -87.560405 
L 159.074168 -78.223541 
L 157.718428 -78.631305 
L 156.362688 -86.364812 
L 155.006948 -96.916983 
L 153.651208 -106.748052 
L 152.295468 -113.709198 
L 150.939728 -116.435257 
L 149.583988 -114.015393 
L 148.228248 -107.246023 
L 146.872508 -97.710112 
L 145.516768 -86.992362 
L 144.161028 -77.986927 
L 142.805288 -74.723937 
L 141.449548 -80.205707 
L 140.093808 -95.379333 
L 138.738068 -118.096012 
L 137.382328 -144.277699 
L 136.026588 -169.884737 
L 134.670848 -191.422384 
L 133.315108 -206.758524 
L 131.959368 -214.61179 
L 130.603628 -214.946407 
L 129.247888 -209.740002 
L 127.892148 -200.368763 
L 126.536408 -189.070793 
L 125.180668 -179.358462 
L 123.824928 -174.869689 
L 122.469188 -177.457651 
L 121.113447 -185.886445 
L 119.757707 -196.737013 
L 118.401967 -206.474348 
L 117.046227 -211.938702 
L 115.690487 -211.253368 
L 114.334747 -203.819446 
L 112.979007 -188.978883 
L 111.623267 -167.765759 
L 110.267527 -142.158172 
L 108.911787 -115.439884 
L 107.556047 -91.370329 
L 106.200307 -73.849593 
L 104.844567 -65.395582 
L 103.488827 -66.693389 
L 102.133087 -74.811373 
L 100.777347 -85.242119 
L 99.421607 -94.643402 
L 98.065867 -101.05528 
L 96.710127 -103.100512 
L 95.354387 -99.988875 
L 93.998647 -92.739427 
L 92.642907 -82.907407 
L 91.287167 -72.084471 
L 89.931427 -63.406284 
L 88.575687 -60.870361 
L 87.219947 -67.375783 
L 85.864207 -83.509767 
L 84.508467 -106.774522 
L 83.152727 -133.081234 
L 81.796987 -158.391381 
L 80.441247 -179.330548 
L 79.085507 -193.896091 
L 77.729767 -200.93358 
L 76.374027 -200.658421 
L 75.018287 -195.04635 
L 73.662547 -185.487932 
L 72.306806 -174.285469 
L 70.951066 -165.084017 
L 69.595326 -161.477773 
L 68.239586 -165.077704 
L 66.883846 -174.188454 
L 65.528106 -185.275212 
L 64.172366 -194.774872 
L 62.816626 -199.705428 
L 61.460886 -198.449439 
L 60.105146 -190.396581 
L 58.749406 -175.050279 
L 57.393666 -153.465502 
L 56.037926 -127.71216 
z
" id="m5f82c51983" style="stroke:#55a868;stroke-opacity:0.2;"/>
    </defs>
    <g clip-path="url(#p17c284b5ab)">
     <use style="fill:#55a868;fill-opacity:0.2;stroke:#55a868;stroke-opacity:0.2;" x="0" xlink:href="#m5f82c51983" y="384.44"/>
    </g>
   </g>
   <g id="PolyCollection_2">
    <defs>
     <path d="M 483.096035 -155.953444 
L 483.096035 -145.426378 
L 484.451775 -149.959577 
L 485.807515 -164.161216 
L 487.163255 -185.846679 
L 488.518995 -211.452955 
L 489.874735 -237.269087 
L 491.230475 -260.758203 
L 492.586215 -278.613823 
L 493.941955 -288.744487 
L 495.297695 -291.616376 
L 496.653435 -288.437602 
L 498.009175 -280.936547 
L 499.364915 -271.653007 
L 500.720655 -263.801834 
L 502.076395 -260.845402 
L 503.432135 -264.999901 
L 504.787876 -274.536639 
L 506.143616 -286.226826 
L 507.499356 -297.462774 
L 508.855096 -305.803312 
L 510.210836 -308.169127 
L 511.566576 -302.432265 
L 512.922316 -289.129699 
L 514.278056 -269.168298 
L 515.633796 -244.400422 
L 516.989536 -218.118344 
L 518.345276 -194.360602 
L 519.701016 -176.836975 
L 521.056756 -168.153609 
L 522.412496 -168.358968 
L 523.768236 -174.823321 
L 525.123976 -184.37955 
L 526.479716 -193.83575 
L 527.835456 -200.910165 
L 529.191196 -203.103129 
L 530.546936 -200.231993 
L 531.902676 -193.213093 
L 533.258416 -182.946889 
L 534.614156 -171.211818 
L 535.969896 -161.413724 
L 537.325636 -157.769786 
L 538.681376 -163.184953 
L 540.037116 -178.092562 
L 541.392856 -200.080859 
L 542.748596 -225.654164 
L 544.104336 -251.364637 
L 545.460076 -274.464116 
L 546.815816 -291.690076 
L 548.171556 -301.176004 
L 549.527296 -303.497634 
L 550.883036 -299.860872 
L 552.238777 -292.176003 
L 553.594517 -283.132551 
L 554.950257 -276.004714 
L 556.305997 -274.014937 
L 557.661737 -279.033673 
L 559.017477 -289.083827 
L 560.373217 -300.974074 
L 561.728957 -312.157552 
L 563.084697 -320.118078 
L 564.440437 -321.773357 
L 565.796177 -315.287319 
L 567.151917 -301.236145 
L 568.507657 -280.636762 
L 569.863397 -255.536232 
L 571.219137 -229.410553 
L 572.574877 -206.236453 
L 573.930617 -189.584088 
L 575.286357 -181.787475 
L 576.642097 -182.645093 
L 577.997837 -189.502213 
L 579.353577 -199.100628 
L 580.709317 -208.364306 
L 582.065057 -214.858513 
L 583.420797 -216.293546 
L 584.776537 -212.722873 
L 586.132277 -205.12957 
L 587.488017 -194.390226 
L 588.843757 -182.527598 
L 590.199497 -173.106339 
L 591.555237 -170.207338 
L 592.910977 -176.463069 
L 594.266717 -192.01675 
L 595.622457 -214.266089 
L 596.978197 -239.802264 
L 598.333937 -265.338365 
L 599.689678 -288.081434 
L 601.045418 -304.665366 
L 602.401158 -313.492026 
L 603.756898 -315.244309 
L 605.112638 -311.185989 
L 606.468378 -303.354575 
L 607.824118 -294.633195 
L 609.179858 -288.293405 
L 610.535598 -287.243295 
L 611.891338 -293.106425 
L 613.247078 -303.623709 
L 614.602818 -315.684488 
L 615.958558 -326.767862 
L 617.314298 -334.32897 
L 618.670038 -335.219111 
L 620.025778 -327.980027 
L 621.381518 -313.206601 
L 622.737258 -291.971521 
L 624.092998 -266.603861 
L 625.448738 -240.717593 
L 626.804478 -218.168465 
L 628.160218 -202.357665 
L 629.515958 -195.4512 
L 630.871698 -196.948448 
L 632.227438 -204.151896 
L 633.583178 -213.771096 
L 634.938918 -222.814761 
L 636.294658 -228.68468 
L 637.650398 -229.335815 
L 639.006138 -225.129751 
L 640.361878 -216.899943 
L 641.717618 -205.72301 
L 643.073358 -193.842318 
L 644.429098 -184.822196 
L 645.784838 -182.701227 
L 647.140578 -189.787239 
L 648.496319 -205.946477 
L 649.852059 -228.442974 
L 651.207799 -253.921001 
L 652.563539 -279.290278 
L 653.919279 -301.606181 
L 655.275019 -317.542118 
L 656.630759 -325.70078 
L 657.986499 -326.893661 
L 659.342239 -322.444052 
L 660.697979 -314.528672 
L 662.053719 -306.178171 
L 663.409459 -300.630302 
L 664.765199 -300.559626 
L 664.765199 -313.448638 
L 664.765199 -313.448638 
L 663.409459 -314.08233 
L 662.053719 -320.848077 
L 660.697979 -330.22709 
L 659.342239 -338.559343 
L 657.986499 -343.290063 
L 656.630759 -342.444837 
L 655.275019 -334.41311 
L 653.919279 -319.140144 
L 652.563539 -297.834561 
L 651.207799 -272.363326 
L 649.852059 -245.817169 
L 648.496319 -221.655595 
L 647.140578 -204.308625 
L 645.784838 -196.906759 
L 644.429098 -198.968001 
L 643.073358 -207.009651 
L 641.717618 -217.639877 
L 640.361878 -228.195196 
L 639.006138 -236.538952 
L 637.650398 -240.531371 
L 636.294658 -239.35356 
L 634.938918 -234.153391 
L 633.583178 -226.315731 
L 632.227438 -217.82085 
L 630.871698 -210.747824 
L 629.515958 -208.610772 
L 628.160218 -215.413766 
L 626.804478 -232.239041 
L 625.448738 -256.249342 
L 624.092998 -282.584989 
L 622.737258 -307.091383 
L 621.381518 -327.309239 
L 620.025778 -341.151647 
L 618.670038 -347.067854 
L 617.314298 -345.732475 
L 615.958558 -338.820691 
L 614.602818 -327.888668 
L 613.247078 -315.259869 
L 611.891338 -304.447052 
L 610.535598 -299.130612 
L 609.179858 -300.642857 
L 607.824118 -307.922844 
L 606.468378 -317.454355 
L 605.112638 -325.665001 
L 603.756898 -330.075114 
L 602.401158 -328.649826 
L 601.045418 -319.886388 
L 599.689678 -303.910551 
L 598.333937 -282.0073 
L 596.978197 -256.163703 
L 595.622457 -229.636991 
L 594.266717 -205.96089 
L 592.910977 -189.507529 
L 591.555237 -183.118904 
L 590.199497 -185.898329 
L 588.843757 -194.270727 
L 587.488017 -204.869193 
L 586.132277 -215.22408 
L 584.776537 -223.14072 
L 583.420797 -226.452766 
L 582.065057 -224.617307 
L 580.709317 -218.874289 
L 579.353577 -210.582585 
L 577.997837 -201.874733 
L 576.642097 -194.918663 
L 575.286357 -193.434434 
L 573.930617 -201.170144 
L 572.574877 -218.835043 
L 571.219137 -243.18804 
L 569.863397 -269.481142 
L 568.507657 -293.811262 
L 567.151917 -313.732904 
L 565.796177 -327.075896 
L 564.440437 -332.347637 
L 563.084697 -330.547759 
L 561.728957 -323.221389 
L 560.373217 -312.07067 
L 559.017477 -299.558617 
L 557.661737 -289.335961 
L 556.305997 -284.961434 
L 554.950257 -287.323569 
L 553.594517 -295.068188 
L 552.238777 -304.708024 
L 550.883036 -312.783144 
L 549.527296 -316.818609 
L 548.171556 -314.801506 
L 546.815816 -305.301221 
L 545.460076 -288.655271 
L 544.104336 -266.123233 
L 542.748596 -239.967388 
L 541.392856 -213.546713 
L 540.037116 -190.374536 
L 538.681376 -174.858221 
L 537.325636 -169.48081 
L 535.969896 -172.925369 
L 534.614156 -181.561422 
L 533.258416 -192.161251 
L 531.902676 -202.288963 
L 530.546936 -209.702191 
L 529.191196 -212.320048 
L 527.835456 -209.849558 
L 526.479716 -203.57708 
L 525.123976 -194.834586 
L 523.768236 -185.976786 
L 522.412496 -179.191587 
L 521.056756 -178.414341 
L 519.701016 -187.136671 
L 518.345276 -205.523558 
L 516.989536 -230.19097 
L 515.633796 -256.422592 
L 514.278056 -280.54924 
L 512.922316 -300.175398 
L 511.566576 -312.979786 
L 510.210836 -317.614919 
L 508.855096 -315.345991 
L 507.499356 -307.616384 
L 506.143616 -296.290811 
L 504.787876 -283.949497 
L 503.432135 -274.374846 
L 502.076395 -270.929657 
L 500.720655 -274.123195 
L 499.364915 -282.266236 
L 498.009175 -292.006127 
L 496.653435 -299.917766 
L 495.297695 -303.578704 
L 493.941955 -300.927027 
L 492.586215 -290.676171 
L 491.230475 -273.342009 
L 489.874735 -250.271597 
L 488.518995 -223.785899 
L 487.163255 -197.55889 
L 485.807515 -174.962451 
L 484.451775 -160.38398 
L 483.096035 -155.953444 
z
" id="m6718037841" style="stroke:#c44e52;stroke-opacity:0.2;"/>
    </defs>
    <g clip-path="url(#p17c284b5ab)">
     <use style="fill:#c44e52;fill-opacity:0.2;stroke:#c44e52;stroke-opacity:0.2;" x="0" xlink:href="#m6718037841" y="384.44"/>
    </g>
   </g>
   <g id="line2d_11">
    <path clip-path="url(#p17c284b5ab)" d="M 56.037926 256.434795 
L 57.393666 236.977093 
L 58.749406 206.95632 
L 60.105146 182.431794 
L 61.460886 191.97869 
L 62.816626 191.913079 
L 64.172366 180.081926 
L 65.528106 197.850327 
L 66.883846 220.102482 
L 68.239586 217.23741 
L 69.595326 229.537009 
L 70.951066 226.238513 
L 72.306806 211.073738 
L 73.662547 221.728576 
L 75.018287 209.522962 
L 76.374027 191.311608 
L 77.729767 195.505203 
L 79.085507 189.935155 
L 81.796987 244.376048 
L 83.152727 240.963791 
L 84.508467 282.787136 
L 85.864207 301.179006 
L 87.219947 330.831325 
L 88.575687 328.970529 
L 89.931427 321.552658 
L 91.287167 327.056013 
L 92.642907 301.499253 
L 93.998647 300.725262 
L 95.354387 290.084555 
L 96.710127 290.557737 
L 98.065867 269.184803 
L 99.421607 295.467575 
L 100.777347 316.075106 
L 102.133087 307.023037 
L 103.488827 333.12392 
L 104.844567 318.219809 
L 106.200307 331.123326 
L 107.556047 308.351408 
L 108.911787 270.522739 
L 110.267527 239.218528 
L 112.979007 200.405618 
L 114.334747 187.106284 
L 115.690487 191.620128 
L 117.046227 184.628612 
L 118.401967 188.605031 
L 119.757707 183.258836 
L 121.113447 200.00771 
L 122.469188 227.561258 
L 123.824928 208.406342 
L 125.180668 211.426535 
L 126.536408 205.65554 
L 127.892148 181.834033 
L 129.247888 167.419599 
L 130.603628 162.16028 
L 131.959368 180.110484 
L 133.315108 183.193025 
L 134.670848 192.992627 
L 136.026588 208.823172 
L 137.382328 248.603266 
L 138.738068 270.496975 
L 140.093808 300.450125 
L 141.449548 315.476611 
L 142.805288 301.676794 
L 144.161028 294.76437 
L 145.516768 301.572068 
L 146.872508 280.481181 
L 148.228248 276.701535 
L 149.583988 279.71845 
L 150.939728 267.82986 
L 152.295468 259.850845 
L 153.651208 283.759746 
L 155.006948 278.324225 
L 156.362688 329.434518 
L 157.718428 300.60728 
L 159.074168 306.564792 
L 160.429908 301.023099 
L 161.785648 279.987213 
L 163.141388 277.540052 
L 164.497128 233.929351 
L 167.208608 170.495928 
L 168.564348 175.885458 
L 169.920089 172.306764 
L 171.275829 170.399788 
L 172.631569 163.202594 
L 173.987309 178.768438 
L 175.343049 196.625039 
L 176.698789 192.285919 
L 178.054529 197.283297 
L 179.410269 183.899944 
L 180.766009 191.316214 
L 182.121749 176.358036 
L 183.477489 166.871471 
L 184.833229 171.704077 
L 186.188969 155.230536 
L 187.544709 164.660604 
L 188.900449 184.016268 
L 190.256189 209.053174 
L 191.611929 246.214549 
L 192.967669 260.902375 
L 195.679149 298.40474 
L 197.034889 297.475607 
L 198.390629 289.765123 
L 199.746369 267.333884 
L 201.102109 273.956873 
L 202.457849 263.322584 
L 203.813589 260.237716 
L 205.169329 277.404774 
L 206.525069 263.004316 
L 207.880809 270.913707 
L 209.236549 257.707949 
L 210.592289 293.488771 
L 211.948029 293.504101 
L 213.303769 294.837142 
L 214.659509 295.995743 
L 216.015249 255.233167 
L 217.37099 235.599814 
L 218.72673 209.082296 
L 220.08247 200.875734 
L 221.43821 157.231646 
L 222.79395 171.360733 
L 224.14969 145.853389 
L 225.50543 131.631757 
L 226.86117 170.429557 
L 228.21691 175.915367 
L 229.57265 178.259373 
L 232.28413 200.204933 
L 233.63987 178.708111 
L 234.99561 180.270344 
L 236.35135 153.581863 
L 237.70709 157.452137 
L 239.06283 127.562659 
L 240.41857 152.431126 
L 241.77431 157.66084 
L 243.13005 163.819959 
L 244.48579 207.183692 
L 245.84153 218.188719 
L 247.19727 231.762067 
L 248.55301 280.452267 
L 249.90875 275.366401 
L 251.26449 279.345205 
L 252.62023 271.504339 
L 253.97597 283.576218 
L 255.33171 274.072224 
L 256.68745 246.332691 
L 258.04319 242.806529 
L 259.39893 242.837932 
L 260.75467 246.965172 
L 262.11041 266.413468 
L 263.46615 268.192864 
L 264.821891 276.808577 
L 266.177631 291.266396 
L 267.533371 262.941209 
L 268.889111 265.93353 
L 270.244851 264.065357 
L 271.600591 221.806462 
L 272.956331 211.835597 
L 274.312071 169.510715 
L 275.667811 145.713156 
L 277.023551 152.354353 
L 278.379291 129.590594 
L 279.735031 137.326062 
L 281.090771 140.716724 
L 282.446511 139.669328 
L 283.802251 169.525102 
L 285.157991 179.357952 
L 286.513731 180.109539 
L 287.869471 173.300277 
L 289.225211 155.820761 
L 290.580951 140.084039 
L 291.936691 130.940295 
L 293.292431 120.608648 
L 294.648171 131.066194 
L 296.003911 127.29218 
L 297.359651 162.422975 
L 298.715391 156.173955 
L 300.071131 202.51884 
L 301.426871 241.254354 
L 302.782611 262.532592 
L 304.138351 259.101632 
L 305.494091 270.137759 
L 306.849831 257.628938 
L 308.205571 251.77822 
L 309.561311 246.957093 
L 310.917051 245.624743 
L 312.272791 247.141652 
L 313.628532 236.826668 
L 314.984272 229.623601 
L 316.340012 245.704145 
L 317.695752 271.193335 
L 319.051492 266.108462 
L 320.407232 267.944891 
L 321.762972 277.181309 
L 323.118712 255.304704 
L 324.474452 237.235384 
L 325.830192 224.926926 
L 327.185932 183.81541 
L 329.897412 132.585675 
L 331.253152 120.569856 
L 332.608892 140.397466 
L 333.964632 138.817638 
L 335.320372 132.075779 
L 336.676112 141.617228 
L 338.031852 149.751083 
L 339.387592 120.716858 
L 340.743332 151.999322 
L 342.099072 139.655146 
L 344.810552 122.190693 
L 346.166292 122.233681 
L 347.522032 107.212223 
L 348.877772 125.496283 
L 350.233512 131.434481 
L 351.589252 152.55455 
L 352.944992 170.662923 
L 354.300732 174.006541 
L 355.656472 239.230392 
L 357.012212 232.416217 
L 358.367952 266.543153 
L 359.723692 258.532572 
L 361.079433 239.31391 
L 362.435173 241.031703 
L 363.790913 242.253293 
L 365.146653 230.064249 
L 366.502393 211.737105 
L 367.858133 226.781832 
L 369.213873 223.76545 
L 370.569613 235.583418 
L 371.925353 253.597317 
L 373.281093 234.594808 
L 374.636833 253.017826 
L 375.992573 275.365227 
L 377.348313 241.101283 
L 378.704053 229.92877 
L 380.059793 190.319 
L 381.415533 180.484462 
L 382.771273 149.597674 
L 384.127013 124.52022 
L 385.482753 109.35488 
L 386.838493 126.241032 
L 388.194233 120.930761 
L 389.549973 130.22676 
L 390.905713 141.39087 
L 392.261453 125.051426 
L 393.617193 142.040366 
L 394.972933 156.532619 
L 396.328673 127.509126 
L 397.684413 104.559169 
L 399.040153 103.600418 
L 400.395893 119.649747 
L 403.107373 91.921864 
L 404.463113 123.525991 
L 405.818853 131.306162 
L 407.174593 152.066006 
L 408.530334 194.471595 
L 409.886074 209.155399 
L 411.241814 258.72084 
L 412.597554 247.24444 
L 413.953294 242.216542 
L 415.309034 247.908821 
L 416.664774 210.634896 
L 418.020514 231.095743 
L 419.376254 213.132873 
L 420.731994 203.665829 
L 422.087734 192.407399 
L 423.443474 228.021942 
L 424.799214 212.707919 
L 426.154954 235.319889 
L 427.510694 253.682302 
L 428.866434 242.203962 
L 430.222174 240.031634 
L 431.577914 234.973471 
L 432.933654 208.152027 
L 434.289394 187.825772 
L 437.000874 127.515186 
L 438.356614 100.037581 
L 439.712354 117.248207 
L 441.068094 80.784015 
L 442.423834 125.148774 
L 443.779574 115.330496 
L 445.135314 117.196008 
L 446.491054 127.469948 
L 447.846794 139.242325 
L 449.202534 132.330883 
L 450.558274 127.166628 
L 451.914014 116.763035 
L 453.269754 90.62456 
L 454.625494 86.496887 
L 455.981234 93.684171 
L 457.336975 82.340754 
L 458.692715 100.918769 
L 460.048455 115.668028 
L 461.404195 141.806324 
L 462.759935 181.728663 
L 464.115675 201.967524 
L 465.471415 206.291233 
L 466.827155 217.474064 
L 468.182895 225.718357 
L 469.538635 219.683996 
L 470.894375 199.346178 
L 472.250115 208.136911 
L 473.605855 189.18725 
L 474.961595 193.521909 
L 476.317335 196.168675 
L 477.673075 190.723581 
L 479.028815 204.316812 
L 480.384555 215.624742 
L 481.740295 218.941089 
L 481.740295 218.941089 
" style="fill:none;stroke:#4c72b0;stroke-linecap:round;stroke-width:1.5;"/>
   </g>
   <g id="line2d_12">
    <path clip-path="url(#p17c284b5ab)" d="M 483.096035 233.999827 
L 484.451775 221.927933 
L 485.807515 218.081602 
L 487.163255 191.074982 
L 488.518995 170.486629 
L 491.230475 113.871325 
L 492.586215 110.259578 
L 493.941955 71.217599 
L 495.297695 99.703433 
L 496.653435 105.991838 
L 498.009175 90.62706 
L 499.364915 103.283811 
L 500.720655 111.666368 
L 502.076395 113.726753 
L 503.432135 116.574609 
L 504.787876 116.770516 
L 506.143616 95.391259 
L 507.499356 91.017245 
L 508.855096 65.893262 
L 510.210836 74.381725 
L 511.566576 86.326149 
L 512.922316 94.709512 
L 514.278056 107.712519 
L 515.633796 141.973035 
L 516.989536 169.865974 
L 518.345276 181.761906 
L 521.056756 214.979244 
L 522.412496 215.937625 
L 523.768236 203.854085 
L 525.123976 211.622167 
L 526.479716 201.655566 
L 527.835456 187.688953 
L 529.191196 180.254886 
L 530.546936 178.26083 
L 531.902676 174.919782 
L 533.258416 192.268009 
L 534.614156 213.569733 
L 535.969896 220.041269 
L 537.325636 231.515786 
L 538.681376 215.509769 
L 540.037116 203.792594 
L 541.392856 176.500308 
L 542.748596 162.603331 
L 544.104336 123.299922 
L 545.460076 90.300505 
L 546.815816 89.611673 
L 548.171556 75.152705 
L 549.527296 70.630887 
L 550.883036 86.117813 
L 552.238777 88.216698 
L 553.594517 99.095902 
L 554.950257 104.441113 
L 556.305997 114.495049 
L 557.661737 102.331164 
L 559.017477 88.444184 
L 560.373217 66.945062 
L 561.728957 59.993797 
L 563.084697 39.7733 
L 564.440437 66.735882 
L 565.796177 56.370889 
L 567.151917 77.300076 
L 568.507657 78.163821 
L 569.863397 132.716732 
L 571.219137 158.215632 
L 572.574877 177.865719 
L 573.930617 209.019787 
L 575.286357 201.496703 
L 576.642097 204.491093 
L 577.997837 189.948362 
L 579.353577 179.032649 
L 580.709317 154.475944 
L 582.065057 157.094451 
L 583.420797 170.561563 
L 584.776537 177.690706 
L 586.132277 172.677551 
L 587.488017 202.197447 
L 588.843757 182.033364 
L 590.199497 196.020871 
L 591.555237 213.491576 
L 592.910977 218.897266 
L 594.266717 173.334214 
L 595.622457 166.219684 
L 596.978197 127.268552 
L 598.333937 129.645597 
L 599.689678 97.291765 
L 601.045418 74.95339 
L 602.401158 65.883418 
L 603.756898 69.798409 
L 605.112638 64.171659 
L 606.468378 89.352122 
L 607.824118 88.665025 
L 609.179858 91.695101 
L 610.535598 88.470199 
L 611.891338 81.558091 
L 613.247078 90.06197 
L 614.602818 81.817262 
L 615.958558 42.088562 
L 617.314298 43.505125 
L 618.670038 52.808262 
L 620.025778 36.61483 
L 621.381518 65.639571 
L 622.737258 76.349129 
L 624.092998 112.328589 
L 625.448738 117.536651 
L 626.804478 142.133244 
L 628.160218 177.377797 
L 629.515958 172.877227 
L 630.871698 176.171583 
L 632.227438 163.101285 
L 633.583178 177.224419 
L 634.938918 151.795668 
L 636.294658 142.076073 
L 637.650398 169.074576 
L 639.006138 168.00003 
L 640.361878 185.859331 
L 641.717618 180.054504 
L 643.073358 181.332891 
L 644.429098 180.64896 
L 645.784838 195.298636 
L 647.140578 172.164106 
L 648.496319 186.306299 
L 649.852059 167.34899 
L 651.207799 125.3071 
L 652.563539 95.359079 
L 653.919279 77.524369 
L 655.275019 82.097802 
L 656.630759 54.511735 
L 657.986499 66.177769 
L 659.342239 51.958989 
L 660.697979 63.387154 
L 662.053719 84.575096 
L 663.409459 85.409478 
L 664.765199 90.802878 
L 664.765199 90.802878 
" style="fill:none;stroke:#dd8452;stroke-linecap:round;stroke-width:1.5;"/>
   </g>
   <g id="line2d_13">
    <path clip-path="url(#p17c284b5ab)" d="M 56.037926 261.341295 
L 57.393666 235.451169 
L 58.749406 213.660752 
L 60.105146 198.169586 
L 61.460886 190.012366 
L 62.816626 189.108738 
L 64.172366 194.368018 
L 65.528106 203.907346 
L 66.883846 214.900874 
L 68.239586 223.81155 
L 69.595326 227.278992 
L 70.951066 223.844692 
L 72.306806 214.831547 
L 73.662547 203.547858 
L 75.018287 193.508905 
L 76.374027 187.573884 
L 77.729767 187.820766 
L 79.085507 195.397242 
L 80.441247 210.360836 
L 81.796987 231.586533 
L 85.864207 305.884499 
L 87.219947 321.589492 
L 88.575687 327.850601 
L 89.931427 325.278013 
L 91.287167 316.864162 
L 93.998647 296.130458 
L 95.354387 288.896622 
L 96.710127 285.927222 
L 98.065867 287.798951 
L 99.421607 294.173408 
L 102.133087 314.017217 
L 103.488827 321.733688 
L 104.844567 322.98281 
L 106.200307 314.927828 
L 107.556047 297.396872 
L 108.911787 273.092594 
L 111.623267 220.542467 
L 112.979007 199.253776 
L 114.334747 184.393826 
L 115.690487 176.901915 
L 117.046227 176.585895 
L 118.401967 182.279811 
L 119.757707 191.974675 
L 121.113447 202.778694 
L 122.469188 211.066764 
L 123.824928 213.640951 
L 125.180668 209.32226 
L 126.536408 199.729184 
L 127.892148 188.260597 
L 129.247888 178.395648 
L 130.603628 172.889876 
L 131.959368 173.735139 
L 133.315108 181.973509 
L 134.670848 197.567406 
L 136.026588 219.299877 
L 138.738068 270.894644 
L 140.093808 293.306629 
L 141.449548 308.186608 
L 142.805288 313.532292 
L 144.161028 310.282923 
L 145.516768 301.580371 
L 146.872508 290.984237 
L 148.228248 281.328056 
L 149.583988 274.67251 
L 150.939728 272.381042 
L 152.295468 274.915951 
L 153.651208 281.83199 
L 156.362688 302.074009 
L 157.718428 309.439328 
L 159.074168 309.935634 
L 160.429908 300.968127 
L 161.785648 282.659314 
L 163.141388 257.95803 
L 165.852868 205.680344 
L 167.208608 184.905557 
L 168.564348 170.691735 
L 169.920089 163.872662 
L 171.275829 164.120675 
L 172.631569 170.228552 
L 175.343049 190.589932 
L 176.698789 198.230486 
L 178.054529 199.89124 
L 179.410269 194.713192 
L 180.766009 184.573864 
L 182.121749 172.979039 
L 183.477489 163.317624 
L 184.833229 158.273777 
L 186.188969 159.726992 
L 187.544709 168.633184 
L 188.900449 184.845509 
L 190.256189 207.054465 
L 192.967669 258.761665 
L 194.323409 280.627895 
L 195.679149 294.65626 
L 197.034889 299.111145 
L 198.390629 295.225409 
L 199.746369 286.28714 
L 201.102109 275.829425 
L 202.457849 266.588284 
L 203.813589 260.532934 
L 205.169329 258.904886 
L 206.525069 262.100359 
L 207.880809 269.562587 
L 210.592289 290.114015 
L 211.948029 297.058346 
L 213.303769 296.78948 
L 214.659509 286.913926 
L 216.015249 267.856475 
L 220.08247 190.877377 
L 221.43821 170.639055 
L 222.79395 157.085787 
L 224.14969 150.919853 
L 225.50543 151.737217 
L 226.86117 158.203782 
L 229.57265 178.352939 
L 230.92839 185.285825 
L 232.28413 186.031745 
L 233.63987 180.012624 
L 234.99561 169.390319 
L 236.35135 157.705835 
L 237.70709 148.28403 
L 239.06283 143.717848 
L 240.41857 145.797931 
L 241.77431 155.373753 
L 243.13005 172.187051 
L 244.48579 194.854552 
L 247.19727 246.578353 
L 248.55301 267.86241 
L 249.90875 281.02513 
L 251.26449 284.598157 
L 252.62023 280.119795 
L 253.97597 270.993244 
L 255.33171 260.714529 
L 256.68745 251.905968 
L 258.04319 246.453386 
L 259.39893 245.515666 
L 260.75467 249.352792 
L 262.11041 257.323061 
L 264.821891 278.125698 
L 266.177631 284.609422 
L 267.533371 283.530314 
L 268.889111 272.732232 
L 270.244851 252.989353 
L 274.312071 176.119213 
L 275.667811 156.447996 
L 277.023551 143.544853 
L 278.379291 138.022817 
L 279.735031 139.398618 
L 281.090771 146.230038 
L 283.802251 166.061945 
L 285.157991 172.252035 
L 286.513731 172.062668 
L 287.869471 165.246949 
L 290.580951 142.437427 
L 291.936691 133.304877 
L 293.292431 129.233856 
L 294.648171 131.945161 
L 296.003911 142.180257 
L 297.359651 159.58941 
L 298.715391 182.685759 
L 301.426871 234.354445 
L 302.782611 255.019451 
L 304.138351 267.282877 
L 305.494091 269.996227 
L 306.849831 264.958275 
L 308.205571 255.708705 
L 309.561311 245.628239 
L 310.917051 237.287317 
L 312.272791 232.462574 
L 313.628532 232.196146 
L 314.984272 236.671364 
L 316.340012 245.143856 
L 319.051492 266.095085 
L 320.407232 272.072599 
L 321.762972 270.163514 
L 323.118712 258.461453 
L 324.474452 238.06169 
L 328.541672 161.432741 
L 329.897412 142.328136 
L 331.253152 130.09085 
L 332.608892 125.212732 
L 333.964632 127.123426 
L 335.320372 134.268209 
L 338.031852 153.696341 
L 339.387592 159.112554 
L 340.743332 157.994948 
L 342.099072 150.403086 
L 344.810552 127.2096 
L 346.166292 118.377396 
L 347.522032 114.832739 
L 348.877772 118.182012 
L 350.233512 129.080524 
L 351.589252 147.061272 
L 352.944992 170.552236 
L 355.656472 222.079078 
L 357.012212 242.067926 
L 358.367952 253.421335 
L 359.723692 255.299375 
L 361.079433 249.76565 
L 363.790913 230.593852 
L 365.146653 222.735693 
L 366.502393 218.543148 
L 367.858133 218.958611 
L 369.213873 224.05063 
L 370.569613 232.996399 
L 373.281093 254.034258 
L 374.636833 259.461121 
L 375.992573 256.683865 
L 377.348313 244.089624 
L 378.704053 223.066054 
L 382.771273 146.805383 
L 384.127013 128.291705 
L 385.482753 116.712219 
L 386.838493 112.467904 
L 388.194233 114.889227 
L 389.549973 122.326064 
L 390.905713 132.23659 
L 392.261453 141.26816 
L 393.617193 145.875566 
L 394.972933 143.826647 
L 396.328673 135.506817 
L 399.040153 111.998357 
L 400.395893 103.504222 
L 401.751633 100.491401 
L 403.107373 104.492092 
L 404.463113 116.037763 
L 405.818853 134.58908 
L 407.174593 158.460684 
L 409.886074 209.736254 
L 411.241814 229.016242 
L 412.597554 239.457509 
L 413.953294 240.532104 
L 415.309034 234.539187 
L 418.020514 215.592172 
L 419.376254 208.243591 
L 420.731994 204.700975 
L 422.087734 205.79368 
L 423.443474 211.499734 
L 424.799214 220.890293 
L 426.154954 232.035951 
L 427.510694 241.920543 
L 428.866434 246.743414 
L 430.222174 243.091579 
L 431.577914 229.636877 
L 432.933654 208.041108 
L 435.645134 155.646781 
L 437.000874 132.238299 
L 438.356614 114.325452 
L 439.712354 103.419293 
L 441.068094 99.800392 
L 442.423834 102.712039 
L 443.779574 110.402239 
L 445.135314 120.218726 
L 446.491054 128.760115 
L 447.846794 132.532372 
L 449.202534 129.556243 
L 450.558274 120.529204 
L 453.269754 96.815635 
L 454.625494 88.68202 
L 455.981234 86.237269 
L 457.336975 90.884263 
L 458.692715 103.076099 
L 460.048455 122.17354 
L 461.404195 146.383043 
L 464.115675 197.328694 
L 465.471415 215.863335 
L 466.827155 225.380181 
L 468.182895 225.674895 
L 469.538635 219.281721 
L 472.250115 200.649744 
L 473.605855 193.829862 
L 474.961595 190.935388 
L 476.317335 192.697172 
L 477.673075 199.002773 
L 479.028815 208.821603 
L 480.384555 220.113613 
L 481.740295 229.755554 
L 481.740295 229.755554 
" style="fill:none;stroke:#55a868;stroke-linecap:round;stroke-width:1.5;"/>
   </g>
   <g id="line2d_14">
    <path clip-path="url(#p17c284b5ab)" d="M 483.096035 233.750089 
L 484.451775 229.268221 
L 485.807515 214.878167 
L 487.163255 192.737216 
L 489.874735 140.669658 
L 491.230475 117.389894 
L 492.586215 99.795003 
L 493.941955 89.604243 
L 495.297695 86.84246 
L 496.653435 90.262316 
L 498.009175 97.968663 
L 499.364915 107.480378 
L 500.720655 115.477485 
L 502.076395 118.55247 
L 503.432135 114.752627 
L 504.787876 105.196932 
L 507.499356 81.900421 
L 508.855096 73.865349 
L 510.210836 71.547977 
L 511.566576 76.733975 
L 512.922316 89.787451 
L 514.278056 109.581231 
L 518.345276 184.49792 
L 519.701016 202.453177 
L 521.056756 211.156025 
L 522.412496 210.664723 
L 523.768236 204.039946 
L 526.479716 185.733585 
L 527.835456 179.060138 
L 529.191196 176.728411 
L 530.546936 179.472908 
L 531.902676 186.688972 
L 533.258416 196.88593 
L 534.614156 208.05338 
L 535.969896 217.270454 
L 537.325636 220.814702 
L 538.681376 215.418413 
L 540.037116 200.206451 
L 541.392856 177.626214 
L 544.104336 125.696065 
L 545.460076 102.880306 
L 546.815816 85.944351 
L 548.171556 76.451245 
L 549.527296 74.281879 
L 550.883036 78.117992 
L 552.238777 85.997987 
L 553.594517 95.33963 
L 554.950257 102.775858 
L 556.305997 104.951815 
L 557.661737 100.255183 
L 559.017477 90.118778 
L 560.373217 77.917628 
L 561.728957 66.750529 
L 563.084697 59.107082 
L 564.440437 57.379503 
L 565.796177 63.258392 
L 567.151917 76.955476 
L 568.507657 97.215988 
L 572.574877 171.904252 
L 573.930617 189.062884 
L 575.286357 196.829045 
L 576.642097 195.658122 
L 577.997837 188.751527 
L 580.709317 170.820702 
L 582.065057 164.70209 
L 583.420797 163.066844 
L 584.776537 166.508204 
L 586.132277 174.263175 
L 588.843757 196.040838 
L 590.199497 204.937666 
L 591.555237 207.776879 
L 592.910977 201.454701 
L 594.266717 185.45118 
L 595.622457 162.48846 
L 598.333937 110.767167 
L 599.689678 88.444008 
L 601.045418 72.164123 
L 602.401158 63.369074 
L 603.756898 61.780288 
L 605.112638 66.014505 
L 606.468378 74.035535 
L 607.824118 83.161981 
L 609.179858 89.971869 
L 610.535598 91.253047 
L 611.891338 85.663262 
L 613.247078 74.998211 
L 614.602818 62.653422 
L 615.958558 51.645724 
L 617.314298 44.409277 
L 618.670038 43.296517 
L 620.025778 49.874163 
L 621.381518 64.18208 
L 622.737258 84.908548 
L 626.804478 159.236247 
L 628.160218 175.554284 
L 629.515958 182.409014 
L 630.871698 180.591864 
L 632.227438 173.453627 
L 634.938918 155.955924 
L 636.294658 150.42088 
L 637.650398 149.506407 
L 639.006138 153.605648 
L 640.361878 161.892431 
L 643.073358 184.014015 
L 644.429098 192.544902 
L 645.784838 194.636007 
L 647.140578 187.392068 
L 648.496319 170.638964 
L 649.852059 147.309929 
L 652.563539 95.87758 
L 653.919279 74.066837 
L 655.275019 58.462386 
L 656.630759 50.367191 
L 657.986499 49.348138 
L 659.342239 53.938303 
L 660.697979 62.062119 
L 662.053719 70.926876 
L 663.409459 77.083684 
L 664.765199 77.435868 
L 664.765199 77.435868 
" style="fill:none;stroke:#c44e52;stroke-linecap:round;stroke-width:1.5;"/>
   </g>
   <g id="line2d_15">
    <path clip-path="url(#p17c284b5ab)" d="M 481.740295 347.949375 
L 481.740295 21.789375 
" style="fill:none;stroke:#8c8c8c;stroke-dasharray:5.55,2.4;stroke-dashoffset:0;stroke-width:1.5;"/>
   </g>
   <g id="patch_3">
    <path d="M 25.601563 347.949375 
L 25.601563 21.789375 
" style="fill:none;stroke:#ffffff;stroke-linecap:square;stroke-linejoin:miter;stroke-width:0.8;"/>
   </g>
   <g id="patch_4">
    <path d="M 695.201563 347.949375 
L 695.201563 21.789375 
" style="fill:none;stroke:#ffffff;stroke-linecap:square;stroke-linejoin:miter;stroke-width:0.8;"/>
   </g>
   <g id="patch_5">
    <path d="M 25.601563 347.949375 
L 695.201563 347.949375 
" style="fill:none;stroke:#ffffff;stroke-linecap:square;stroke-linejoin:miter;stroke-width:0.8;"/>
   </g>
   <g id="patch_6">
    <path d="M 25.601563 21.789375 
L 695.201563 21.789375 
" style="fill:none;stroke:#ffffff;stroke-linecap:square;stroke-linejoin:miter;stroke-width:0.8;"/>
   </g>
   <g id="text_12">
    <!-- Model Predictions -->
    <g style="fill:#262626;" transform="translate(312.714688 15.789375)scale(0.12 -0.12)">
     <defs>
      <path d="M 7.421875 0 
L 7.421875 71.578125 
L 21.6875 71.578125 
L 38.625 20.90625 
Q 40.96875 13.8125 42.046875 10.296875 
Q 43.265625 14.203125 45.84375 21.78125 
L 62.984375 71.578125 
L 75.734375 71.578125 
L 75.734375 0 
L 66.609375 0 
L 66.609375 59.90625 
L 45.796875 0 
L 37.25 0 
L 16.546875 60.9375 
L 16.546875 0 
z
" id="ArialMT-77"/>
      <path d="M 3.328125 25.921875 
Q 3.328125 40.328125 11.328125 47.265625 
Q 18.015625 53.03125 27.640625 53.03125 
Q 38.328125 53.03125 45.109375 46.015625 
Q 51.90625 39.015625 51.90625 26.65625 
Q 51.90625 16.65625 48.90625 10.90625 
Q 45.90625 5.171875 40.15625 2 
Q 34.421875 -1.171875 27.640625 -1.171875 
Q 16.75 -1.171875 10.03125 5.8125 
Q 3.328125 12.796875 3.328125 25.921875 
z
M 12.359375 25.921875 
Q 12.359375 15.96875 16.703125 11.015625 
Q 21.046875 6.0625 27.640625 6.0625 
Q 34.1875 6.0625 38.53125 11.03125 
Q 42.875 16.015625 42.875 26.21875 
Q 42.875 35.84375 38.5 40.796875 
Q 34.125 45.75 27.640625 45.75 
Q 21.046875 45.75 16.703125 40.8125 
Q 12.359375 35.890625 12.359375 25.921875 
z
" id="ArialMT-111"/>
      <path d="M 40.234375 0 
L 40.234375 6.546875 
Q 35.296875 -1.171875 25.734375 -1.171875 
Q 19.53125 -1.171875 14.328125 2.25 
Q 9.125 5.671875 6.265625 11.796875 
Q 3.421875 17.921875 3.421875 25.875 
Q 3.421875 33.640625 6 39.96875 
Q 8.59375 46.296875 13.765625 49.65625 
Q 18.953125 53.03125 25.34375 53.03125 
Q 30.03125 53.03125 33.6875 51.046875 
Q 37.359375 49.078125 39.65625 45.90625 
L 39.65625 71.578125 
L 48.390625 71.578125 
L 48.390625 0 
z
M 12.453125 25.875 
Q 12.453125 15.921875 16.640625 10.984375 
Q 20.84375 6.0625 26.5625 6.0625 
Q 32.328125 6.0625 36.34375 10.765625 
Q 40.375 15.484375 40.375 25.140625 
Q 40.375 35.796875 36.265625 40.765625 
Q 32.171875 45.75 26.171875 45.75 
Q 20.3125 45.75 16.375 40.96875 
Q 12.453125 36.1875 12.453125 25.875 
z
" id="ArialMT-100"/>
      <path d="M 42.09375 16.703125 
L 51.171875 15.578125 
Q 49.03125 7.625 43.21875 3.21875 
Q 37.40625 -1.171875 28.375 -1.171875 
Q 17 -1.171875 10.328125 5.828125 
Q 3.65625 12.84375 3.65625 25.484375 
Q 3.65625 38.578125 10.390625 45.796875 
Q 17.140625 53.03125 27.875 53.03125 
Q 38.28125 53.03125 44.875 45.953125 
Q 51.46875 38.875 51.46875 26.03125 
Q 51.46875 25.25 51.421875 23.6875 
L 12.75 23.6875 
Q 13.234375 15.140625 17.578125 10.59375 
Q 21.921875 6.0625 28.421875 6.0625 
Q 33.25 6.0625 36.671875 8.59375 
Q 40.09375 11.140625 42.09375 16.703125 
z
M 13.234375 30.90625 
L 42.1875 30.90625 
Q 41.609375 37.453125 38.875 40.71875 
Q 34.671875 45.796875 27.984375 45.796875 
Q 21.921875 45.796875 17.796875 41.75 
Q 13.671875 37.703125 13.234375 30.90625 
z
" id="ArialMT-101"/>
      <path d="M 6.390625 0 
L 6.390625 71.578125 
L 15.1875 71.578125 
L 15.1875 0 
z
" id="ArialMT-108"/>
      <path id="ArialMT-32"/>
      <path d="M 7.71875 0 
L 7.71875 71.578125 
L 34.71875 71.578125 
Q 41.84375 71.578125 45.609375 70.90625 
Q 50.875 70.015625 54.4375 67.546875 
Q 58.015625 65.09375 60.1875 60.640625 
Q 62.359375 56.203125 62.359375 50.875 
Q 62.359375 41.75 56.546875 35.421875 
Q 50.734375 29.109375 35.546875 29.109375 
L 17.1875 29.109375 
L 17.1875 0 
z
M 17.1875 37.546875 
L 35.6875 37.546875 
Q 44.875 37.546875 48.734375 40.96875 
Q 52.59375 44.390625 52.59375 50.59375 
Q 52.59375 55.078125 50.3125 58.265625 
Q 48.046875 61.46875 44.34375 62.5 
Q 41.9375 63.140625 35.5 63.140625 
L 17.1875 63.140625 
z
" id="ArialMT-80"/>
      <path d="M 6.5 0 
L 6.5 51.859375 
L 14.40625 51.859375 
L 14.40625 44 
Q 17.4375 49.515625 20 51.265625 
Q 22.5625 53.03125 25.640625 53.03125 
Q 30.078125 53.03125 34.671875 50.203125 
L 31.640625 42.046875 
Q 28.421875 43.953125 25.203125 43.953125 
Q 22.3125 43.953125 20.015625 42.21875 
Q 17.71875 40.484375 16.75 37.40625 
Q 15.28125 32.71875 15.28125 27.15625 
L 15.28125 0 
z
" id="ArialMT-114"/>
      <path d="M 6.640625 61.46875 
L 6.640625 71.578125 
L 15.4375 71.578125 
L 15.4375 61.46875 
z
M 6.640625 0 
L 6.640625 51.859375 
L 15.4375 51.859375 
L 15.4375 0 
z
" id="ArialMT-105"/>
      <path d="M 40.4375 19 
L 49.078125 17.875 
Q 47.65625 8.9375 41.8125 3.875 
Q 35.984375 -1.171875 27.484375 -1.171875 
Q 16.84375 -1.171875 10.375 5.78125 
Q 3.90625 12.75 3.90625 25.734375 
Q 3.90625 34.125 6.6875 40.421875 
Q 9.46875 46.734375 15.15625 49.875 
Q 20.84375 53.03125 27.546875 53.03125 
Q 35.984375 53.03125 41.359375 48.75 
Q 46.734375 44.484375 48.25 36.625 
L 39.703125 35.296875 
Q 38.484375 40.53125 35.375 43.15625 
Q 32.28125 45.796875 27.875 45.796875 
Q 21.234375 45.796875 17.078125 41.03125 
Q 12.9375 36.28125 12.9375 25.984375 
Q 12.9375 15.53125 16.9375 10.796875 
Q 20.953125 6.0625 27.390625 6.0625 
Q 32.5625 6.0625 36.03125 9.234375 
Q 39.5 12.40625 40.4375 19 
z
" id="ArialMT-99"/>
      <path d="M 6.59375 0 
L 6.59375 51.859375 
L 14.5 51.859375 
L 14.5 44.484375 
Q 20.21875 53.03125 31 53.03125 
Q 35.6875 53.03125 39.625 51.34375 
Q 43.5625 49.65625 45.515625 46.921875 
Q 47.46875 44.1875 48.25 40.4375 
Q 48.734375 37.984375 48.734375 31.890625 
L 48.734375 0 
L 39.9375 0 
L 39.9375 31.546875 
Q 39.9375 36.921875 38.90625 39.578125 
Q 37.890625 42.234375 35.28125 43.8125 
Q 32.671875 45.40625 29.15625 45.40625 
Q 23.53125 45.40625 19.453125 41.84375 
Q 15.375 38.28125 15.375 28.328125 
L 15.375 0 
z
" id="ArialMT-110"/>
      <path d="M 3.078125 15.484375 
L 11.765625 16.84375 
Q 12.5 11.625 15.84375 8.84375 
Q 19.1875 6.0625 25.203125 6.0625 
Q 31.25 6.0625 34.171875 8.515625 
Q 37.109375 10.984375 37.109375 14.3125 
Q 37.109375 17.28125 34.515625 19 
Q 32.71875 20.171875 25.53125 21.96875 
Q 15.875 24.421875 12.140625 26.203125 
Q 8.40625 27.984375 6.46875 31.125 
Q 4.546875 34.28125 4.546875 38.09375 
Q 4.546875 41.546875 6.125 44.5 
Q 7.71875 47.46875 10.453125 49.421875 
Q 12.5 50.921875 16.03125 51.96875 
Q 19.578125 53.03125 23.640625 53.03125 
Q 29.734375 53.03125 34.34375 51.265625 
Q 38.96875 49.515625 41.15625 46.5 
Q 43.359375 43.5 44.1875 38.484375 
L 35.59375 37.3125 
Q 35.015625 41.3125 32.203125 43.546875 
Q 29.390625 45.796875 24.265625 45.796875 
Q 18.21875 45.796875 15.625 43.796875 
Q 13.03125 41.796875 13.03125 39.109375 
Q 13.03125 37.40625 14.109375 36.03125 
Q 15.1875 34.625 17.484375 33.6875 
Q 18.796875 33.203125 25.25 31.453125 
Q 34.578125 28.953125 38.25 27.359375 
Q 41.9375 25.78125 44.03125 22.75 
Q 46.140625 19.734375 46.140625 15.234375 
Q 46.140625 10.84375 43.578125 6.953125 
Q 41.015625 3.078125 36.171875 0.953125 
Q 31.34375 -1.171875 25.25 -1.171875 
Q 15.140625 -1.171875 9.84375 3.03125 
Q 4.546875 7.234375 3.078125 15.484375 
z
" id="ArialMT-115"/>
     </defs>
     <use xlink:href="#ArialMT-77"/>
     <use x="83.300781" xlink:href="#ArialMT-111"/>
     <use x="138.916016" xlink:href="#ArialMT-100"/>
     <use x="194.53125" xlink:href="#ArialMT-101"/>
     <use x="250.146484" xlink:href="#ArialMT-108"/>
     <use x="272.363281" xlink:href="#ArialMT-32"/>
     <use x="300.146484" xlink:href="#ArialMT-80"/>
     <use x="366.845703" xlink:href="#ArialMT-114"/>
     <use x="400.146484" xlink:href="#ArialMT-101"/>
     <use x="455.761719" xlink:href="#ArialMT-100"/>
     <use x="511.376953" xlink:href="#ArialMT-105"/>
     <use x="533.59375" xlink:href="#ArialMT-99"/>
     <use x="583.59375" xlink:href="#ArialMT-116"/>
     <use x="611.376953" xlink:href="#ArialMT-105"/>
     <use x="633.59375" xlink:href="#ArialMT-111"/>
     <use x="689.208984" xlink:href="#ArialMT-110"/>
     <use x="744.824219" xlink:href="#ArialMT-115"/>
    </g>
   </g>
   <g id="legend_1">
    <g id="patch_7">
     <path d="M 702.201563 236.351406 
L 835.903125 236.351406 
Q 837.903125 236.351406 837.903125 234.351406 
L 837.903125 135.387344 
Q 837.903125 133.387344 835.903125 133.387344 
L 702.201563 133.387344 
Q 700.201563 133.387344 700.201563 135.387344 
L 700.201563 234.351406 
Q 700.201563 236.351406 702.201563 236.351406 
z
" style="fill:#e6e6e6;opacity:0.8;stroke:#cccccc;stroke-linejoin:miter;"/>
    </g>
    <g id="line2d_16">
     <path d="M 704.201563 141.045156 
L 724.201563 141.045156 
" style="fill:none;stroke:#4c72b0;stroke-linecap:round;stroke-width:1.5;"/>
    </g>
    <g id="line2d_17"/>
    <g id="text_13">
     <!-- y_train -->
     <g style="fill:#262626;" transform="translate(732.201563 144.545156)scale(0.1 -0.1)">
      <defs>
       <path d="M 6.203125 -19.96875 
L 5.21875 -11.71875 
Q 8.109375 -12.5 10.25 -12.5 
Q 13.1875 -12.5 14.9375 -11.515625 
Q 16.703125 -10.546875 17.828125 -8.796875 
Q 18.65625 -7.46875 20.515625 -2.25 
Q 20.75 -1.515625 21.296875 -0.09375 
L 1.609375 51.859375 
L 11.078125 51.859375 
L 21.875 21.828125 
Q 23.96875 16.109375 25.640625 9.8125 
Q 27.15625 15.875 29.25 21.625 
L 40.328125 51.859375 
L 49.125 51.859375 
L 29.390625 -0.875 
Q 26.21875 -9.421875 24.46875 -12.640625 
Q 22.125 -17 19.09375 -19.015625 
Q 16.0625 -21.046875 11.859375 -21.046875 
Q 9.328125 -21.046875 6.203125 -19.96875 
z
" id="ArialMT-121"/>
       <path d="M -1.515625 -19.875 
L -1.515625 -13.53125 
L 56.734375 -13.53125 
L 56.734375 -19.875 
z
" id="ArialMT-95"/>
       <path d="M 40.4375 6.390625 
Q 35.546875 2.25 31.03125 0.53125 
Q 26.515625 -1.171875 21.34375 -1.171875 
Q 12.796875 -1.171875 8.203125 3 
Q 3.609375 7.171875 3.609375 13.671875 
Q 3.609375 17.484375 5.34375 20.625 
Q 7.078125 23.78125 9.890625 25.6875 
Q 12.703125 27.59375 16.21875 28.5625 
Q 18.796875 29.25 24.03125 29.890625 
Q 34.671875 31.15625 39.703125 32.90625 
Q 39.75 34.71875 39.75 35.203125 
Q 39.75 40.578125 37.25 42.78125 
Q 33.890625 45.75 27.25 45.75 
Q 21.046875 45.75 18.09375 43.578125 
Q 15.140625 41.40625 13.71875 35.890625 
L 5.125 37.0625 
Q 6.296875 42.578125 8.984375 45.96875 
Q 11.671875 49.359375 16.75 51.1875 
Q 21.828125 53.03125 28.515625 53.03125 
Q 35.15625 53.03125 39.296875 51.46875 
Q 43.453125 49.90625 45.40625 47.53125 
Q 47.359375 45.171875 48.140625 41.546875 
Q 48.578125 39.3125 48.578125 33.453125 
L 48.578125 21.734375 
Q 48.578125 9.46875 49.140625 6.21875 
Q 49.703125 2.984375 51.375 0 
L 42.1875 0 
Q 40.828125 2.734375 40.4375 6.390625 
z
M 39.703125 26.03125 
Q 34.90625 24.078125 25.34375 22.703125 
Q 19.921875 21.921875 17.671875 20.9375 
Q 15.4375 19.96875 14.203125 18.09375 
Q 12.984375 16.21875 12.984375 13.921875 
Q 12.984375 10.40625 15.640625 8.0625 
Q 18.3125 5.71875 23.4375 5.71875 
Q 28.515625 5.71875 32.46875 7.9375 
Q 36.421875 10.15625 38.28125 14.015625 
Q 39.703125 17 39.703125 22.796875 
z
" id="ArialMT-97"/>
      </defs>
      <use xlink:href="#ArialMT-121"/>
      <use x="50" xlink:href="#ArialMT-95"/>
      <use x="105.615234" xlink:href="#ArialMT-116"/>
      <use x="133.398438" xlink:href="#ArialMT-114"/>
      <use x="166.699219" xlink:href="#ArialMT-97"/>
      <use x="222.314453" xlink:href="#ArialMT-105"/>
      <use x="244.53125" xlink:href="#ArialMT-110"/>
     </g>
    </g>
    <g id="line2d_18">
     <path d="M 704.201563 155.307656 
L 724.201563 155.307656 
" style="fill:none;stroke:#dd8452;stroke-linecap:round;stroke-width:1.5;"/>
    </g>
    <g id="line2d_19"/>
    <g id="text_14">
     <!-- y_test -->
     <g style="fill:#262626;" transform="translate(732.201563 158.807656)scale(0.1 -0.1)">
      <use xlink:href="#ArialMT-121"/>
      <use x="50" xlink:href="#ArialMT-95"/>
      <use x="105.615234" xlink:href="#ArialMT-116"/>
      <use x="133.398438" xlink:href="#ArialMT-101"/>
      <use x="189.013672" xlink:href="#ArialMT-115"/>
      <use x="239.013672" xlink:href="#ArialMT-116"/>
     </g>
    </g>
    <g id="line2d_20">
     <path d="M 704.201563 169.570156 
L 724.201563 169.570156 
" style="fill:none;stroke:#55a868;stroke-linecap:round;stroke-width:1.5;"/>
    </g>
    <g id="line2d_21"/>
    <g id="text_15">
     <!-- y_pred_train -->
     <g style="fill:#262626;" transform="translate(732.201563 173.070156)scale(0.1 -0.1)">
      <defs>
       <path d="M 6.59375 -19.875 
L 6.59375 51.859375 
L 14.59375 51.859375 
L 14.59375 45.125 
Q 17.4375 49.078125 21 51.046875 
Q 24.5625 53.03125 29.640625 53.03125 
Q 36.28125 53.03125 41.359375 49.609375 
Q 46.4375 46.1875 49.015625 39.953125 
Q 51.609375 33.734375 51.609375 26.3125 
Q 51.609375 18.359375 48.75 11.984375 
Q 45.90625 5.609375 40.453125 2.21875 
Q 35.015625 -1.171875 29 -1.171875 
Q 24.609375 -1.171875 21.109375 0.6875 
Q 17.625 2.546875 15.375 5.375 
L 15.375 -19.875 
z
M 14.546875 25.640625 
Q 14.546875 15.625 18.59375 10.84375 
Q 22.65625 6.0625 28.421875 6.0625 
Q 34.28125 6.0625 38.453125 11.015625 
Q 42.625 15.96875 42.625 26.375 
Q 42.625 36.28125 38.546875 41.203125 
Q 34.46875 46.140625 28.8125 46.140625 
Q 23.1875 46.140625 18.859375 40.890625 
Q 14.546875 35.640625 14.546875 25.640625 
z
" id="ArialMT-112"/>
      </defs>
      <use xlink:href="#ArialMT-121"/>
      <use x="50" xlink:href="#ArialMT-95"/>
      <use x="105.615234" xlink:href="#ArialMT-112"/>
      <use x="161.230469" xlink:href="#ArialMT-114"/>
      <use x="194.53125" xlink:href="#ArialMT-101"/>
      <use x="250.146484" xlink:href="#ArialMT-100"/>
      <use x="305.761719" xlink:href="#ArialMT-95"/>
      <use x="361.376953" xlink:href="#ArialMT-116"/>
      <use x="389.160156" xlink:href="#ArialMT-114"/>
      <use x="422.460938" xlink:href="#ArialMT-97"/>
      <use x="478.076172" xlink:href="#ArialMT-105"/>
      <use x="500.292969" xlink:href="#ArialMT-110"/>
     </g>
    </g>
    <g id="line2d_22">
     <path d="M 704.201563 183.832656 
L 724.201563 183.832656 
" style="fill:none;stroke:#c44e52;stroke-linecap:round;stroke-width:1.5;"/>
    </g>
    <g id="line2d_23"/>
    <g id="text_16">
     <!-- y_pred_test -->
     <g style="fill:#262626;" transform="translate(732.201563 187.332656)scale(0.1 -0.1)">
      <use xlink:href="#ArialMT-121"/>
      <use x="50" xlink:href="#ArialMT-95"/>
      <use x="105.615234" xlink:href="#ArialMT-112"/>
      <use x="161.230469" xlink:href="#ArialMT-114"/>
      <use x="194.53125" xlink:href="#ArialMT-101"/>
      <use x="250.146484" xlink:href="#ArialMT-100"/>
      <use x="305.761719" xlink:href="#ArialMT-95"/>
      <use x="361.376953" xlink:href="#ArialMT-116"/>
      <use x="389.160156" xlink:href="#ArialMT-101"/>
      <use x="444.775391" xlink:href="#ArialMT-115"/>
      <use x="494.775391" xlink:href="#ArialMT-116"/>
     </g>
    </g>
    <g id="line2d_24">
     <path d="M 704.201563 198.095156 
L 724.201563 198.095156 
" style="fill:none;stroke:#8c8c8c;stroke-dasharray:5.55,2.4;stroke-dashoffset:0;stroke-width:1.5;"/>
    </g>
    <g id="line2d_25"/>
    <g id="text_17">
     <!-- train-test-split -->
     <g style="fill:#262626;" transform="translate(732.201563 201.595156)scale(0.1 -0.1)">
      <defs>
       <path d="M 3.171875 21.484375 
L 3.171875 30.328125 
L 30.171875 30.328125 
L 30.171875 21.484375 
z
" id="ArialMT-45"/>
      </defs>
      <use xlink:href="#ArialMT-116"/>
      <use x="27.783203" xlink:href="#ArialMT-114"/>
      <use x="61.083984" xlink:href="#ArialMT-97"/>
      <use x="116.699219" xlink:href="#ArialMT-105"/>
      <use x="138.916016" xlink:href="#ArialMT-110"/>
      <use x="194.53125" xlink:href="#ArialMT-45"/>
      <use x="227.832031" xlink:href="#ArialMT-116"/>
      <use x="255.615234" xlink:href="#ArialMT-101"/>
      <use x="311.230469" xlink:href="#ArialMT-115"/>
      <use x="361.230469" xlink:href="#ArialMT-116"/>
      <use x="389.013672" xlink:href="#ArialMT-45"/>
      <use x="422.314453" xlink:href="#ArialMT-115"/>
      <use x="472.314453" xlink:href="#ArialMT-112"/>
      <use x="527.929688" xlink:href="#ArialMT-108"/>
      <use x="550.146484" xlink:href="#ArialMT-105"/>
      <use x="572.363281" xlink:href="#ArialMT-116"/>
     </g>
    </g>
    <g id="patch_8">
     <path d="M 704.201563 215.862344 
L 724.201563 215.862344 
L 724.201563 208.862344 
L 704.201563 208.862344 
z
" style="fill:#55a868;opacity:0.2;stroke:#55a868;stroke-linejoin:miter;"/>
    </g>
    <g id="text_18">
     <!-- credible_interval (train) -->
     <g style="fill:#262626;" transform="translate(732.201563 215.862344)scale(0.1 -0.1)">
      <defs>
       <path d="M 14.703125 0 
L 6.546875 0 
L 6.546875 71.578125 
L 15.328125 71.578125 
L 15.328125 46.046875 
Q 20.90625 53.03125 29.546875 53.03125 
Q 34.328125 53.03125 38.59375 51.09375 
Q 42.875 49.171875 45.625 45.671875 
Q 48.390625 42.1875 49.953125 37.25 
Q 51.515625 32.328125 51.515625 26.703125 
Q 51.515625 13.375 44.921875 6.09375 
Q 38.328125 -1.171875 29.109375 -1.171875 
Q 19.921875 -1.171875 14.703125 6.5 
z
M 14.59375 26.3125 
Q 14.59375 17 17.140625 12.84375 
Q 21.296875 6.0625 28.375 6.0625 
Q 34.125 6.0625 38.328125 11.0625 
Q 42.53125 16.0625 42.53125 25.984375 
Q 42.53125 36.140625 38.5 40.96875 
Q 34.46875 45.796875 28.765625 45.796875 
Q 23 45.796875 18.796875 40.796875 
Q 14.59375 35.796875 14.59375 26.3125 
z
" id="ArialMT-98"/>
       <path d="M 21 0 
L 1.265625 51.859375 
L 10.546875 51.859375 
L 21.6875 20.796875 
Q 23.484375 15.765625 25 10.359375 
Q 26.171875 14.453125 28.265625 20.21875 
L 39.796875 51.859375 
L 48.828125 51.859375 
L 29.203125 0 
z
" id="ArialMT-118"/>
       <path d="M 23.390625 -21.046875 
Q 16.109375 -11.859375 11.078125 0.4375 
Q 6.0625 12.75 6.0625 25.921875 
Q 6.0625 37.546875 9.8125 48.1875 
Q 14.203125 60.546875 23.390625 72.796875 
L 29.6875 72.796875 
Q 23.78125 62.640625 21.875 58.296875 
Q 18.890625 51.5625 17.1875 44.234375 
Q 15.09375 35.109375 15.09375 25.875 
Q 15.09375 2.390625 29.6875 -21.046875 
z
" id="ArialMT-40"/>
       <path d="M 12.359375 -21.046875 
L 6.0625 -21.046875 
Q 20.65625 2.390625 20.65625 25.875 
Q 20.65625 35.0625 18.5625 44.09375 
Q 16.890625 51.421875 13.921875 58.15625 
Q 12.015625 62.546875 6.0625 72.796875 
L 12.359375 72.796875 
Q 21.53125 60.546875 25.921875 48.1875 
Q 29.6875 37.546875 29.6875 25.921875 
Q 29.6875 12.75 24.625 0.4375 
Q 19.578125 -11.859375 12.359375 -21.046875 
z
" id="ArialMT-41"/>
      </defs>
      <use xlink:href="#ArialMT-99"/>
      <use x="50" xlink:href="#ArialMT-114"/>
      <use x="83.300781" xlink:href="#ArialMT-101"/>
      <use x="138.916016" xlink:href="#ArialMT-100"/>
      <use x="194.53125" xlink:href="#ArialMT-105"/>
      <use x="216.748047" xlink:href="#ArialMT-98"/>
      <use x="272.363281" xlink:href="#ArialMT-108"/>
      <use x="294.580078" xlink:href="#ArialMT-101"/>
      <use x="350.195312" xlink:href="#ArialMT-95"/>
      <use x="405.810547" xlink:href="#ArialMT-105"/>
      <use x="428.027344" xlink:href="#ArialMT-110"/>
      <use x="483.642578" xlink:href="#ArialMT-116"/>
      <use x="511.425781" xlink:href="#ArialMT-101"/>
      <use x="567.041016" xlink:href="#ArialMT-114"/>
      <use x="600.341797" xlink:href="#ArialMT-118"/>
      <use x="650.341797" xlink:href="#ArialMT-97"/>
      <use x="705.957031" xlink:href="#ArialMT-108"/>
      <use x="728.173828" xlink:href="#ArialMT-32"/>
      <use x="755.957031" xlink:href="#ArialMT-40"/>
      <use x="789.257812" xlink:href="#ArialMT-116"/>
      <use x="817.041016" xlink:href="#ArialMT-114"/>
      <use x="850.341797" xlink:href="#ArialMT-97"/>
      <use x="905.957031" xlink:href="#ArialMT-105"/>
      <use x="928.173828" xlink:href="#ArialMT-110"/>
      <use x="983.789062" xlink:href="#ArialMT-41"/>
     </g>
    </g>
    <g id="patch_9">
     <path d="M 704.201563 230.246719 
L 724.201563 230.246719 
L 724.201563 223.246719 
L 704.201563 223.246719 
z
" style="fill:#c44e52;opacity:0.2;stroke:#c44e52;stroke-linejoin:miter;"/>
    </g>
    <g id="text_19">
     <!-- credible_interval (test) -->
     <g style="fill:#262626;" transform="translate(732.201563 230.246719)scale(0.1 -0.1)">
      <use xlink:href="#ArialMT-99"/>
      <use x="50" xlink:href="#ArialMT-114"/>
      <use x="83.300781" xlink:href="#ArialMT-101"/>
      <use x="138.916016" xlink:href="#ArialMT-100"/>
      <use x="194.53125" xlink:href="#ArialMT-105"/>
      <use x="216.748047" xlink:href="#ArialMT-98"/>
      <use x="272.363281" xlink:href="#ArialMT-108"/>
      <use x="294.580078" xlink:href="#ArialMT-101"/>
      <use x="350.195312" xlink:href="#ArialMT-95"/>
      <use x="405.810547" xlink:href="#ArialMT-105"/>
      <use x="428.027344" xlink:href="#ArialMT-110"/>
      <use x="483.642578" xlink:href="#ArialMT-116"/>
      <use x="511.425781" xlink:href="#ArialMT-101"/>
      <use x="567.041016" xlink:href="#ArialMT-114"/>
      <use x="600.341797" xlink:href="#ArialMT-118"/>
      <use x="650.341797" xlink:href="#ArialMT-97"/>
      <use x="705.957031" xlink:href="#ArialMT-108"/>
      <use x="728.173828" xlink:href="#ArialMT-32"/>
      <use x="755.957031" xlink:href="#ArialMT-40"/>
      <use x="789.257812" xlink:href="#ArialMT-116"/>
      <use x="817.041016" xlink:href="#ArialMT-101"/>
      <use x="872.65625" xlink:href="#ArialMT-115"/>
      <use x="922.65625" xlink:href="#ArialMT-116"/>
      <use x="950.439453" xlink:href="#ArialMT-41"/>
     </g>
    </g>
   </g>
  </g>
 </g>
 <defs>
  <clipPath id="p17c284b5ab">
   <rect height="326.16" width="669.6" x="25.601563" y="21.789375"/>
  </clipPath>
 </defs>
</svg>
