<?xml version="1.0" encoding="UTF-8" standalone="no"?>
<!DOCTYPE svg PUBLIC "-//W3C//DTD SVG 1.1//EN"
 "http://www.w3.org/Graphics/SVG/1.1/DTD/svg11.dtd">
<!-- Generated by graphviz version 8.0.5 (20230430.1635)
 -->
<!-- Pages: 1 -->
<svg width="1124pt" height="486pt"
 viewBox="0.00 0.00 1124.01 486.27" xmlns="http://www.w3.org/2000/svg" xmlns:xlink="http://www.w3.org/1999/xlink">
<g id="graph0" class="graph" transform="scale(1 1) rotate(0) translate(4 482.27)">
<polygon fill="white" stroke="none" points="-4,4 -4,-482.27 1120.01,-482.27 1120.01,4 -4,4"/>
<g id="clust1" class="cluster">
<title>clusterholiday (2)</title>
<path fill="none" stroke="black" d="M594.01,-247.13C594.01,-247.13 740.01,-247.13 740.01,-247.13 746.01,-247.13 752.01,-253.13 752.01,-259.13 752.01,-259.13 752.01,-356.95 752.01,-356.95 752.01,-362.95 746.01,-368.95 740.01,-368.95 740.01,-368.95 594.01,-368.95 594.01,-368.95 588.01,-368.95 582.01,-362.95 582.01,-356.95 582.01,-356.95 582.01,-259.13 582.01,-259.13 582.01,-253.13 588.01,-247.13 594.01,-247.13"/>
<text text-anchor="middle" x="714.01" y="-254.33" font-family="Times,serif" font-size="14.00">holiday (2)</text>
</g>
<g id="clust2" class="cluster">
<title>clusterworkingday (2)</title>
<path fill="none" stroke="black" d="M772.01,-247.13C772.01,-247.13 918.01,-247.13 918.01,-247.13 924.01,-247.13 930.01,-253.13 930.01,-259.13 930.01,-259.13 930.01,-356.95 930.01,-356.95 930.01,-362.95 924.01,-368.95 918.01,-368.95 918.01,-368.95 772.01,-368.95 772.01,-368.95 766.01,-368.95 760.01,-362.95 760.01,-356.95 760.01,-356.95 760.01,-259.13 760.01,-259.13 760.01,-253.13 766.01,-247.13 772.01,-247.13"/>
<text text-anchor="middle" x="880.01" y="-254.33" font-family="Times,serif" font-size="14.00">workingday (2)</text>
</g>
<g id="clust3" class="cluster">
<title>clusterweathersit (3)</title>
<path fill="none" stroke="black" d="M950.01,-247.13C950.01,-247.13 1096.01,-247.13 1096.01,-247.13 1102.01,-247.13 1108.01,-253.13 1108.01,-259.13 1108.01,-259.13 1108.01,-356.95 1108.01,-356.95 1108.01,-362.95 1102.01,-368.95 1096.01,-368.95 1096.01,-368.95 950.01,-368.95 950.01,-368.95 944.01,-368.95 938.01,-362.95 938.01,-356.95 938.01,-356.95 938.01,-259.13 938.01,-259.13 938.01,-253.13 944.01,-247.13 950.01,-247.13"/>
<text text-anchor="middle" x="1062.51" y="-254.33" font-family="Times,serif" font-size="14.00">weathersit (3)</text>
</g>
<g id="clust4" class="cluster">
<title>clusterdate (731)</title>
<path fill="none" stroke="black" d="M104.01,-8C104.01,-8 226.01,-8 226.01,-8 232.01,-8 238.01,-14 238.01,-20 238.01,-20 238.01,-356.95 238.01,-356.95 238.01,-362.95 232.01,-368.95 226.01,-368.95 226.01,-368.95 104.01,-368.95 104.01,-368.95 98.01,-368.95 92.01,-362.95 92.01,-356.95 92.01,-356.95 92.01,-20 92.01,-20 92.01,-14 98.01,-8 104.01,-8"/>
<text text-anchor="middle" x="202.26" y="-15.2" font-family="Times,serif" font-size="14.00">date (731)</text>
</g>
<!-- b_eoy -->
<g id="node1" class="node">
<title>b_eoy</title>
<ellipse fill="none" stroke="black" cx="41.01" cy="-320.29" rx="41.01" ry="40.66"/>
<text text-anchor="middle" x="41.01" y="-331.74" font-family="Times,serif" font-size="14.00">b_eoy</text>
<text text-anchor="middle" x="41.01" y="-315.24" font-family="Times,serif" font-size="14.00">~</text>
<text text-anchor="middle" x="41.01" y="-298.74" font-family="Times,serif" font-size="14.00">Normal</text>
</g>
<!-- mu -->
<g id="node11" class="node">
<title>mu</title>
<polygon fill="none" stroke="black" points="230.14,-227.23 139.89,-227.23 139.89,-169.73 230.14,-169.73 230.14,-227.23"/>
<text text-anchor="middle" x="185.01" y="-209.93" font-family="Times,serif" font-size="14.00">mu</text>
<text text-anchor="middle" x="185.01" y="-193.43" font-family="Times,serif" font-size="14.00">~</text>
<text text-anchor="middle" x="185.01" y="-176.93" font-family="Times,serif" font-size="14.00">Deterministic</text>
</g>
<!-- b_eoy&#45;&gt;mu -->
<g id="edge3" class="edge">
<title>b_eoy&#45;&gt;mu</title>
<path fill="none" stroke="black" d="M59.18,-283.35C66.82,-270.76 76.6,-257.25 88.01,-247.13 100.11,-236.42 115.04,-227.52 129.54,-220.42"/>
<polygon fill="black" stroke="black" points="130.88,-223.2 138.46,-215.8 127.92,-216.85 130.88,-223.2"/>
</g>
<!-- nu -->
<g id="node2" class="node">
<title>nu</title>
<ellipse fill="none" stroke="black" cx="291.01" cy="-198.48" rx="42.6" ry="40.66"/>
<text text-anchor="middle" x="291.01" y="-209.93" font-family="Times,serif" font-size="14.00">nu</text>
<text text-anchor="middle" x="291.01" y="-193.43" font-family="Times,serif" font-size="14.00">~</text>
<text text-anchor="middle" x="291.01" y="-176.93" font-family="Times,serif" font-size="14.00">Gamma</text>
</g>
<!-- likelihood -->
<g id="node13" class="node">
<title>likelihood</title>
<ellipse fill="lightgrey" stroke="black" cx="180.01" cy="-81.16" rx="50.03" ry="40.66"/>
<text text-anchor="middle" x="180.01" y="-92.61" font-family="Times,serif" font-size="14.00">likelihood</text>
<text text-anchor="middle" x="180.01" y="-76.11" font-family="Times,serif" font-size="14.00">~</text>
<text text-anchor="middle" x="180.01" y="-59.61" font-family="Times,serif" font-size="14.00">StudentT</text>
</g>
<!-- nu&#45;&gt;likelihood -->
<g id="edge12" class="edge">
<title>nu&#45;&gt;likelihood</title>
<path fill="none" stroke="black" d="M262.43,-167.78C248.86,-153.69 232.46,-136.65 217.88,-121.5"/>
<polygon fill="black" stroke="black" points="220.9,-119.55 211.44,-114.77 215.86,-124.41 220.9,-119.55"/>
</g>
<!-- sigma_slope -->
<g id="node3" class="node">
<title>sigma_slope</title>
<ellipse fill="none" stroke="black" cx="165.01" cy="-437.61" rx="59.57" ry="40.66"/>
<text text-anchor="middle" x="165.01" y="-449.06" font-family="Times,serif" font-size="14.00">sigma_slope</text>
<text text-anchor="middle" x="165.01" y="-432.56" font-family="Times,serif" font-size="14.00">~</text>
<text text-anchor="middle" x="165.01" y="-416.06" font-family="Times,serif" font-size="14.00">Exponential</text>
</g>
<!-- slopes -->
<g id="node12" class="node">
<title>slopes</title>
<ellipse fill="none" stroke="black" cx="165.01" cy="-320.29" rx="64.88" ry="40.66"/>
<text text-anchor="middle" x="165.01" y="-331.74" font-family="Times,serif" font-size="14.00">slopes</text>
<text text-anchor="middle" x="165.01" y="-315.24" font-family="Times,serif" font-size="14.00">~</text>
<text text-anchor="middle" x="165.01" y="-298.74" font-family="Times,serif" font-size="14.00">RandomWalk</text>
</g>
<!-- sigma_slope&#45;&gt;slopes -->
<g id="edge1" class="edge">
<title>sigma_slope&#45;&gt;slopes</title>
<path fill="none" stroke="black" d="M165.01,-396.6C165.01,-388.73 165.01,-380.37 165.01,-372.2"/>
<polygon fill="black" stroke="black" points="168.51,-372.23 165.01,-362.23 161.51,-372.23 168.51,-372.23"/>
</g>
<!-- b_t -->
<g id="node4" class="node">
<title>b_t</title>
<ellipse fill="none" stroke="black" cx="289.01" cy="-320.29" rx="41.01" ry="40.66"/>
<text text-anchor="middle" x="289.01" y="-331.74" font-family="Times,serif" font-size="14.00">b_t</text>
<text text-anchor="middle" x="289.01" y="-315.24" font-family="Times,serif" font-size="14.00">~</text>
<text text-anchor="middle" x="289.01" y="-298.74" font-family="Times,serif" font-size="14.00">Normal</text>
</g>
<!-- b_t&#45;&gt;mu -->
<g id="edge6" class="edge">
<title>b_t&#45;&gt;mu</title>
<path fill="none" stroke="black" d="M269.21,-284.39C261.47,-272.04 252.04,-258.43 242.01,-247.13 238.36,-243.02 234.34,-238.95 230.18,-235.03"/>
<polygon fill="black" stroke="black" points="232.83,-232.81 223.07,-228.7 228.14,-238 232.83,-232.81"/>
</g>
<!-- sigma -->
<g id="node5" class="node">
<title>sigma</title>
<ellipse fill="none" stroke="black" cx="410.01" cy="-198.48" rx="57.98" ry="40.66"/>
<text text-anchor="middle" x="410.01" y="-209.93" font-family="Times,serif" font-size="14.00">sigma</text>
<text text-anchor="middle" x="410.01" y="-193.43" font-family="Times,serif" font-size="14.00">~</text>
<text text-anchor="middle" x="410.01" y="-176.93" font-family="Times,serif" font-size="14.00">HalfNormal</text>
</g>
<!-- sigma&#45;&gt;likelihood -->
<g id="edge11" class="edge">
<title>sigma&#45;&gt;likelihood</title>
<path fill="none" stroke="black" d="M366.76,-171.02C358.93,-166.48 350.79,-161.91 343.01,-157.82 307.11,-138.92 265.62,-119.7 233.48,-105.36"/>
<polygon fill="black" stroke="black" points="235.39,-101.93 224.83,-101.07 232.55,-108.33 235.39,-101.93"/>
</g>
<!-- b_windspeed -->
<g id="node6" class="node">
<title>b_windspeed</title>
<ellipse fill="none" stroke="black" cx="410.01" cy="-320.29" rx="61.7" ry="40.66"/>
<text text-anchor="middle" x="410.01" y="-331.74" font-family="Times,serif" font-size="14.00">b_windspeed</text>
<text text-anchor="middle" x="410.01" y="-315.24" font-family="Times,serif" font-size="14.00">~</text>
<text text-anchor="middle" x="410.01" y="-298.74" font-family="Times,serif" font-size="14.00">Normal</text>
</g>
<!-- b_windspeed&#45;&gt;mu -->
<g id="edge8" class="edge">
<title>b_windspeed&#45;&gt;mu</title>
<path fill="none" stroke="black" d="M383.84,-283.25C371.82,-269.52 356.37,-255.24 339.01,-247.13 298.61,-228.28 280.79,-254.7 239.01,-239.13 234.78,-237.56 230.59,-235.55 226.53,-233.27"/>
<polygon fill="black" stroke="black" points="228.66,-229.86 218.32,-227.56 224.97,-235.8 228.66,-229.86"/>
</g>
<!-- b_hum -->
<g id="node7" class="node">
<title>b_hum</title>
<ellipse fill="none" stroke="black" cx="531.01" cy="-320.29" rx="41.01" ry="40.66"/>
<text text-anchor="middle" x="531.01" y="-331.74" font-family="Times,serif" font-size="14.00">b_hum</text>
<text text-anchor="middle" x="531.01" y="-315.24" font-family="Times,serif" font-size="14.00">~</text>
<text text-anchor="middle" x="531.01" y="-298.74" font-family="Times,serif" font-size="14.00">Normal</text>
</g>
<!-- b_hum&#45;&gt;mu -->
<g id="edge9" class="edge">
<title>b_hum&#45;&gt;mu</title>
<path fill="none" stroke="black" d="M514.69,-282.72C506.62,-269.08 495.47,-255.01 481.01,-247.13 457.39,-234.26 264.44,-247.94 239.01,-239.13 234.68,-237.64 230.41,-235.66 226.28,-233.39"/>
<polygon fill="black" stroke="black" points="228.27,-229.9 217.92,-227.64 224.61,-235.86 228.27,-229.9"/>
</g>
<!-- b_holiday -->
<g id="node8" class="node">
<title>b_holiday</title>
<ellipse fill="none" stroke="black" cx="667.01" cy="-320.29" rx="77.07" ry="40.66"/>
<text text-anchor="middle" x="667.01" y="-331.74" font-family="Times,serif" font-size="14.00">b_holiday</text>
<text text-anchor="middle" x="667.01" y="-315.24" font-family="Times,serif" font-size="14.00">~</text>
<text text-anchor="middle" x="667.01" y="-298.74" font-family="Times,serif" font-size="14.00">ZeroSumNormal</text>
</g>
<!-- b_holiday&#45;&gt;mu -->
<g id="edge4" class="edge">
<title>b_holiday&#45;&gt;mu</title>
<path fill="none" stroke="black" d="M634.57,-283.04C619.77,-269.09 601.07,-254.7 581.01,-247.13 545.45,-233.72 274.99,-251.39 239.01,-239.13 234.68,-237.66 230.4,-235.7 226.26,-233.44"/>
<polygon fill="black" stroke="black" points="228.26,-229.94 217.9,-227.7 224.6,-235.91 228.26,-229.94"/>
</g>
<!-- b_workingday -->
<g id="node9" class="node">
<title>b_workingday</title>
<ellipse fill="none" stroke="black" cx="845.01" cy="-320.29" rx="77.07" ry="40.66"/>
<text text-anchor="middle" x="845.01" y="-331.74" font-family="Times,serif" font-size="14.00">b_workingday</text>
<text text-anchor="middle" x="845.01" y="-315.24" font-family="Times,serif" font-size="14.00">~</text>
<text text-anchor="middle" x="845.01" y="-298.74" font-family="Times,serif" font-size="14.00">ZeroSumNormal</text>
</g>
<!-- b_workingday&#45;&gt;mu -->
<g id="edge5" class="edge">
<title>b_workingday&#45;&gt;mu</title>
<path fill="none" stroke="black" d="M811.67,-283.32C796.25,-269.24 776.77,-254.67 756.01,-247.13 702.01,-227.52 293.47,-257.45 239.01,-239.13 234.49,-237.61 230.02,-235.56 225.72,-233.18"/>
<polygon fill="black" stroke="black" points="227.94,-229.82 217.59,-227.55 224.26,-235.78 227.94,-229.82"/>
</g>
<!-- b_weathersit -->
<g id="node10" class="node">
<title>b_weathersit</title>
<ellipse fill="none" stroke="black" cx="1023.01" cy="-320.29" rx="77.07" ry="40.66"/>
<text text-anchor="middle" x="1023.01" y="-331.74" font-family="Times,serif" font-size="14.00">b_weathersit</text>
<text text-anchor="middle" x="1023.01" y="-315.24" font-family="Times,serif" font-size="14.00">~</text>
<text text-anchor="middle" x="1023.01" y="-298.74" font-family="Times,serif" font-size="14.00">ZeroSumNormal</text>
</g>
<!-- b_weathersit&#45;&gt;mu -->
<g id="edge7" class="edge">
<title>b_weathersit&#45;&gt;mu</title>
<path fill="none" stroke="black" d="M989.69,-283.28C974.27,-269.19 954.78,-254.63 934.01,-247.13 897.69,-234.02 275.64,-251.37 239.01,-239.13 234.48,-237.62 230.02,-235.57 225.71,-233.2"/>
<polygon fill="black" stroke="black" points="227.93,-229.84 217.58,-227.57 224.26,-235.8 227.93,-229.84"/>
</g>
<!-- mu&#45;&gt;likelihood -->
<g id="edge10" class="edge">
<title>mu&#45;&gt;likelihood</title>
<path fill="none" stroke="black" d="M183.79,-169.27C183.32,-158.33 182.76,-145.47 182.22,-133.03"/>
<polygon fill="black" stroke="black" points="185.68,-133.11 181.75,-123.27 178.69,-133.41 185.68,-133.11"/>
</g>
<!-- slopes&#45;&gt;mu -->
<g id="edge2" class="edge">
<title>slopes&#45;&gt;mu</title>
<path fill="none" stroke="black" d="M171.67,-279.4C173.89,-266.1 176.36,-251.32 178.56,-238.12"/>
<polygon fill="black" stroke="black" points="182.14,-238.91 180.34,-228.47 175.24,-237.76 182.14,-238.91"/>
</g>
</g>
</svg>
