<?xml version="1.0" encoding="utf-8" standalone="no"?>
<!DOCTYPE svg PUBLIC "-//W3C//DTD SVG 1.1//EN"
  "http://www.w3.org/Graphics/SVG/1.1/DTD/svg11.dtd">
<svg xmlns:xlink="http://www.w3.org/1999/xlink" width="728.39952pt" height="440.39952pt" viewBox="0 0 728.39952 440.39952" xmlns="http://www.w3.org/2000/svg" version="1.1">
 <metadata>
  <rdf:RDF xmlns:dc="http://purl.org/dc/elements/1.1/" xmlns:cc="http://creativecommons.org/ns#" xmlns:rdf="http://www.w3.org/1999/02/22-rdf-syntax-ns#">
   <cc:Work>
    <dc:type rdf:resource="http://purl.org/dc/dcmitype/StillImage"/>
    <dc:date>2022-07-01T23:24:29.091190</dc:date>
    <dc:format>image/svg+xml</dc:format>
    <dc:creator>
     <cc:Agent>
      <dc:title>Matplotlib v3.5.1, https://matplotlib.org/</dc:title>
     </cc:Agent>
    </dc:creator>
   </cc:Work>
  </rdf:RDF>
 </metadata>
 <defs>
  <style type="text/css">*{stroke-linejoin: round; stroke-linecap: butt}</style>
 </defs>
 <g id="figure_1">
  <g id="patch_1">
   <path d="M 0 440.39952 
L 728.39952 440.39952 
L 728.39952 0 
L 0 0 
z
" style="fill: #ffffff"/>
  </g>
  <g id="axes_1">
   <g id="patch_2">
    <path d="M 51.76375 202.803582 
L 721.19952 202.803582 
L 721.19952 24.14175 
L 51.76375 24.14175 
z
" style="fill: #eeeeee"/>
   </g>
   <g id="matplotlib.axis_1">
    <g id="xtick_1">
     <g id="line2d_1">
      <path d="M 82.192649 202.803582 
L 82.192649 24.14175 
" clip-path="url(#pa2da7973e8)" style="fill: none; stroke-dasharray: 1.85,0.8; stroke-dashoffset: 0; stroke: #b2b2b2; stroke-width: 0.5"/>
     </g>
     <g id="line2d_2">
      <defs>
       <path id="m12903f850c" d="M 0 0 
L 0 -3.5 
" style="stroke: #000000; stroke-width: 0.8"/>
      </defs>
      <g>
       <use xlink:href="#m12903f850c" x="82.192649" y="202.803582" style="stroke: #000000; stroke-width: 0.8"/>
      </g>
     </g>
    </g>
    <g id="xtick_2">
     <g id="line2d_3">
      <path d="M 157.22281 202.803582 
L 157.22281 24.14175 
" clip-path="url(#pa2da7973e8)" style="fill: none; stroke-dasharray: 1.85,0.8; stroke-dashoffset: 0; stroke: #b2b2b2; stroke-width: 0.5"/>
     </g>
     <g id="line2d_4">
      <g>
       <use xlink:href="#m12903f850c" x="157.22281" y="202.803582" style="stroke: #000000; stroke-width: 0.8"/>
      </g>
     </g>
    </g>
    <g id="xtick_3">
     <g id="line2d_5">
      <path d="M 233.086639 202.803582 
L 233.086639 24.14175 
" clip-path="url(#pa2da7973e8)" style="fill: none; stroke-dasharray: 1.85,0.8; stroke-dashoffset: 0; stroke: #b2b2b2; stroke-width: 0.5"/>
     </g>
     <g id="line2d_6">
      <g>
       <use xlink:href="#m12903f850c" x="233.086639" y="202.803582" style="stroke: #000000; stroke-width: 0.8"/>
      </g>
     </g>
    </g>
    <g id="xtick_4">
     <g id="line2d_7">
      <path d="M 309.784137 202.803582 
L 309.784137 24.14175 
" clip-path="url(#pa2da7973e8)" style="fill: none; stroke-dasharray: 1.85,0.8; stroke-dashoffset: 0; stroke: #b2b2b2; stroke-width: 0.5"/>
     </g>
     <g id="line2d_8">
      <g>
       <use xlink:href="#m12903f850c" x="309.784137" y="202.803582" style="stroke: #000000; stroke-width: 0.8"/>
      </g>
     </g>
    </g>
    <g id="xtick_5">
     <g id="line2d_9">
      <path d="M 386.481635 202.803582 
L 386.481635 24.14175 
" clip-path="url(#pa2da7973e8)" style="fill: none; stroke-dasharray: 1.85,0.8; stroke-dashoffset: 0; stroke: #b2b2b2; stroke-width: 0.5"/>
     </g>
     <g id="line2d_10">
      <g>
       <use xlink:href="#m12903f850c" x="386.481635" y="202.803582" style="stroke: #000000; stroke-width: 0.8"/>
      </g>
     </g>
    </g>
    <g id="xtick_6">
     <g id="line2d_11">
      <path d="M 462.345464 202.803582 
L 462.345464 24.14175 
" clip-path="url(#pa2da7973e8)" style="fill: none; stroke-dasharray: 1.85,0.8; stroke-dashoffset: 0; stroke: #b2b2b2; stroke-width: 0.5"/>
     </g>
     <g id="line2d_12">
      <g>
       <use xlink:href="#m12903f850c" x="462.345464" y="202.803582" style="stroke: #000000; stroke-width: 0.8"/>
      </g>
     </g>
    </g>
    <g id="xtick_7">
     <g id="line2d_13">
      <path d="M 538.209294 202.803582 
L 538.209294 24.14175 
" clip-path="url(#pa2da7973e8)" style="fill: none; stroke-dasharray: 1.85,0.8; stroke-dashoffset: 0; stroke: #b2b2b2; stroke-width: 0.5"/>
     </g>
     <g id="line2d_14">
      <g>
       <use xlink:href="#m12903f850c" x="538.209294" y="202.803582" style="stroke: #000000; stroke-width: 0.8"/>
      </g>
     </g>
    </g>
    <g id="xtick_8">
     <g id="line2d_15">
      <path d="M 614.906792 202.803582 
L 614.906792 24.14175 
" clip-path="url(#pa2da7973e8)" style="fill: none; stroke-dasharray: 1.85,0.8; stroke-dashoffset: 0; stroke: #b2b2b2; stroke-width: 0.5"/>
     </g>
     <g id="line2d_16">
      <g>
       <use xlink:href="#m12903f850c" x="614.906792" y="202.803582" style="stroke: #000000; stroke-width: 0.8"/>
      </g>
     </g>
    </g>
    <g id="xtick_9">
     <g id="line2d_17">
      <path d="M 691.60429 202.803582 
L 691.60429 24.14175 
" clip-path="url(#pa2da7973e8)" style="fill: none; stroke-dasharray: 1.85,0.8; stroke-dashoffset: 0; stroke: #b2b2b2; stroke-width: 0.5"/>
     </g>
     <g id="line2d_18">
      <g>
       <use xlink:href="#m12903f850c" x="691.60429" y="202.803582" style="stroke: #000000; stroke-width: 0.8"/>
      </g>
     </g>
    </g>
   </g>
   <g id="matplotlib.axis_2">
    <g id="ytick_1">
     <g id="line2d_19">
      <path d="M 51.76375 195.093685 
L 721.19952 195.093685 
" clip-path="url(#pa2da7973e8)" style="fill: none; stroke-dasharray: 1.85,0.8; stroke-dashoffset: 0; stroke: #b2b2b2; stroke-width: 0.5"/>
     </g>
     <g id="line2d_20">
      <defs>
       <path id="mbd44fe1555" d="M 0 0 
L 3.5 0 
" style="stroke: #000000; stroke-width: 0.8"/>
      </defs>
      <g>
       <use xlink:href="#mbd44fe1555" x="51.76375" y="195.093685" style="stroke: #000000; stroke-width: 0.8"/>
      </g>
     </g>
     <g id="text_1">
      <!-- 0 -->
      <g transform="translate(41.90125 198.892904)scale(0.1 -0.1)">
       <defs>
        <path id="DejaVuSans-30" d="M 2034 4250 
Q 1547 4250 1301 3770 
Q 1056 3291 1056 2328 
Q 1056 1369 1301 889 
Q 1547 409 2034 409 
Q 2525 409 2770 889 
Q 3016 1369 3016 2328 
Q 3016 3291 2770 3770 
Q 2525 4250 2034 4250 
z
M 2034 4750 
Q 2819 4750 3233 4129 
Q 3647 3509 3647 2328 
Q 3647 1150 3233 529 
Q 2819 -91 2034 -91 
Q 1250 -91 836 529 
Q 422 1150 422 2328 
Q 422 3509 836 4129 
Q 1250 4750 2034 4750 
z
" transform="scale(0.015625)"/>
       </defs>
       <use xlink:href="#DejaVuSans-30"/>
      </g>
     </g>
    </g>
    <g id="ytick_2">
     <g id="line2d_21">
      <path d="M 51.76375 157.721424 
L 721.19952 157.721424 
" clip-path="url(#pa2da7973e8)" style="fill: none; stroke-dasharray: 1.85,0.8; stroke-dashoffset: 0; stroke: #b2b2b2; stroke-width: 0.5"/>
     </g>
     <g id="line2d_22">
      <g>
       <use xlink:href="#mbd44fe1555" x="51.76375" y="157.721424" style="stroke: #000000; stroke-width: 0.8"/>
      </g>
     </g>
     <g id="text_2">
      <!-- 2000 -->
      <g transform="translate(22.81375 161.520642)scale(0.1 -0.1)">
       <defs>
        <path id="DejaVuSans-32" d="M 1228 531 
L 3431 531 
L 3431 0 
L 469 0 
L 469 531 
Q 828 903 1448 1529 
Q 2069 2156 2228 2338 
Q 2531 2678 2651 2914 
Q 2772 3150 2772 3378 
Q 2772 3750 2511 3984 
Q 2250 4219 1831 4219 
Q 1534 4219 1204 4116 
Q 875 4013 500 3803 
L 500 4441 
Q 881 4594 1212 4672 
Q 1544 4750 1819 4750 
Q 2544 4750 2975 4387 
Q 3406 4025 3406 3419 
Q 3406 3131 3298 2873 
Q 3191 2616 2906 2266 
Q 2828 2175 2409 1742 
Q 1991 1309 1228 531 
z
" transform="scale(0.015625)"/>
       </defs>
       <use xlink:href="#DejaVuSans-32"/>
       <use xlink:href="#DejaVuSans-30" x="63.623047"/>
       <use xlink:href="#DejaVuSans-30" x="127.246094"/>
       <use xlink:href="#DejaVuSans-30" x="190.869141"/>
      </g>
     </g>
    </g>
    <g id="ytick_3">
     <g id="line2d_23">
      <path d="M 51.76375 120.349162 
L 721.19952 120.349162 
" clip-path="url(#pa2da7973e8)" style="fill: none; stroke-dasharray: 1.85,0.8; stroke-dashoffset: 0; stroke: #b2b2b2; stroke-width: 0.5"/>
     </g>
     <g id="line2d_24">
      <g>
       <use xlink:href="#mbd44fe1555" x="51.76375" y="120.349162" style="stroke: #000000; stroke-width: 0.8"/>
      </g>
     </g>
     <g id="text_3">
      <!-- 4000 -->
      <g transform="translate(22.81375 124.148381)scale(0.1 -0.1)">
       <defs>
        <path id="DejaVuSans-34" d="M 2419 4116 
L 825 1625 
L 2419 1625 
L 2419 4116 
z
M 2253 4666 
L 3047 4666 
L 3047 1625 
L 3713 1625 
L 3713 1100 
L 3047 1100 
L 3047 0 
L 2419 0 
L 2419 1100 
L 313 1100 
L 313 1709 
L 2253 4666 
z
" transform="scale(0.015625)"/>
       </defs>
       <use xlink:href="#DejaVuSans-34"/>
       <use xlink:href="#DejaVuSans-30" x="63.623047"/>
       <use xlink:href="#DejaVuSans-30" x="127.246094"/>
       <use xlink:href="#DejaVuSans-30" x="190.869141"/>
      </g>
     </g>
    </g>
    <g id="ytick_4">
     <g id="line2d_25">
      <path d="M 51.76375 82.976901 
L 721.19952 82.976901 
" clip-path="url(#pa2da7973e8)" style="fill: none; stroke-dasharray: 1.85,0.8; stroke-dashoffset: 0; stroke: #b2b2b2; stroke-width: 0.5"/>
     </g>
     <g id="line2d_26">
      <g>
       <use xlink:href="#mbd44fe1555" x="51.76375" y="82.976901" style="stroke: #000000; stroke-width: 0.8"/>
      </g>
     </g>
     <g id="text_4">
      <!-- 6000 -->
      <g transform="translate(22.81375 86.77612)scale(0.1 -0.1)">
       <defs>
        <path id="DejaVuSans-36" d="M 2113 2584 
Q 1688 2584 1439 2293 
Q 1191 2003 1191 1497 
Q 1191 994 1439 701 
Q 1688 409 2113 409 
Q 2538 409 2786 701 
Q 3034 994 3034 1497 
Q 3034 2003 2786 2293 
Q 2538 2584 2113 2584 
z
M 3366 4563 
L 3366 3988 
Q 3128 4100 2886 4159 
Q 2644 4219 2406 4219 
Q 1781 4219 1451 3797 
Q 1122 3375 1075 2522 
Q 1259 2794 1537 2939 
Q 1816 3084 2150 3084 
Q 2853 3084 3261 2657 
Q 3669 2231 3669 1497 
Q 3669 778 3244 343 
Q 2819 -91 2113 -91 
Q 1303 -91 875 529 
Q 447 1150 447 2328 
Q 447 3434 972 4092 
Q 1497 4750 2381 4750 
Q 2619 4750 2861 4703 
Q 3103 4656 3366 4563 
z
" transform="scale(0.015625)"/>
       </defs>
       <use xlink:href="#DejaVuSans-36"/>
       <use xlink:href="#DejaVuSans-30" x="63.623047"/>
       <use xlink:href="#DejaVuSans-30" x="127.246094"/>
       <use xlink:href="#DejaVuSans-30" x="190.869141"/>
      </g>
     </g>
    </g>
    <g id="ytick_5">
     <g id="line2d_27">
      <path d="M 51.76375 45.60464 
L 721.19952 45.60464 
" clip-path="url(#pa2da7973e8)" style="fill: none; stroke-dasharray: 1.85,0.8; stroke-dashoffset: 0; stroke: #b2b2b2; stroke-width: 0.5"/>
     </g>
     <g id="line2d_28">
      <g>
       <use xlink:href="#mbd44fe1555" x="51.76375" y="45.60464" style="stroke: #000000; stroke-width: 0.8"/>
      </g>
     </g>
     <g id="text_5">
      <!-- 8000 -->
      <g transform="translate(22.81375 49.403858)scale(0.1 -0.1)">
       <defs>
        <path id="DejaVuSans-38" d="M 2034 2216 
Q 1584 2216 1326 1975 
Q 1069 1734 1069 1313 
Q 1069 891 1326 650 
Q 1584 409 2034 409 
Q 2484 409 2743 651 
Q 3003 894 3003 1313 
Q 3003 1734 2745 1975 
Q 2488 2216 2034 2216 
z
M 1403 2484 
Q 997 2584 770 2862 
Q 544 3141 544 3541 
Q 544 4100 942 4425 
Q 1341 4750 2034 4750 
Q 2731 4750 3128 4425 
Q 3525 4100 3525 3541 
Q 3525 3141 3298 2862 
Q 3072 2584 2669 2484 
Q 3125 2378 3379 2068 
Q 3634 1759 3634 1313 
Q 3634 634 3220 271 
Q 2806 -91 2034 -91 
Q 1263 -91 848 271 
Q 434 634 434 1313 
Q 434 1759 690 2068 
Q 947 2378 1403 2484 
z
M 1172 3481 
Q 1172 3119 1398 2916 
Q 1625 2713 2034 2713 
Q 2441 2713 2670 2916 
Q 2900 3119 2900 3481 
Q 2900 3844 2670 4047 
Q 2441 4250 2034 4250 
Q 1625 4250 1398 4047 
Q 1172 3844 1172 3481 
z
" transform="scale(0.015625)"/>
       </defs>
       <use xlink:href="#DejaVuSans-38"/>
       <use xlink:href="#DejaVuSans-30" x="63.623047"/>
       <use xlink:href="#DejaVuSans-30" x="127.246094"/>
       <use xlink:href="#DejaVuSans-30" x="190.869141"/>
      </g>
     </g>
    </g>
    <g id="text_6">
     <!-- cnt -->
     <g transform="translate(16.318125 122.926416)rotate(-90)scale(0.12 -0.12)">
      <defs>
       <path id="DejaVuSans-63" d="M 3122 3366 
L 3122 2828 
Q 2878 2963 2633 3030 
Q 2388 3097 2138 3097 
Q 1578 3097 1268 2742 
Q 959 2388 959 1747 
Q 959 1106 1268 751 
Q 1578 397 2138 397 
Q 2388 397 2633 464 
Q 2878 531 3122 666 
L 3122 134 
Q 2881 22 2623 -34 
Q 2366 -91 2075 -91 
Q 1284 -91 818 406 
Q 353 903 353 1747 
Q 353 2603 823 3093 
Q 1294 3584 2113 3584 
Q 2378 3584 2631 3529 
Q 2884 3475 3122 3366 
z
" transform="scale(0.015625)"/>
       <path id="DejaVuSans-6e" d="M 3513 2113 
L 3513 0 
L 2938 0 
L 2938 2094 
Q 2938 2591 2744 2837 
Q 2550 3084 2163 3084 
Q 1697 3084 1428 2787 
Q 1159 2491 1159 1978 
L 1159 0 
L 581 0 
L 581 3500 
L 1159 3500 
L 1159 2956 
Q 1366 3272 1645 3428 
Q 1925 3584 2291 3584 
Q 2894 3584 3203 3211 
Q 3513 2838 3513 2113 
z
" transform="scale(0.015625)"/>
       <path id="DejaVuSans-74" d="M 1172 4494 
L 1172 3500 
L 2356 3500 
L 2356 3053 
L 1172 3053 
L 1172 1153 
Q 1172 725 1289 603 
Q 1406 481 1766 481 
L 2356 481 
L 2356 0 
L 1766 0 
Q 1100 0 847 248 
Q 594 497 594 1153 
L 594 3053 
L 172 3053 
L 172 3500 
L 594 3500 
L 594 4494 
L 1172 4494 
z
" transform="scale(0.015625)"/>
      </defs>
      <use xlink:href="#DejaVuSans-63"/>
      <use xlink:href="#DejaVuSans-6e" x="54.980469"/>
      <use xlink:href="#DejaVuSans-74" x="118.359375"/>
     </g>
    </g>
   </g>
   <g id="line2d_29">
    <path d="M 82.192649 176.687846 
L 83.026317 180.126094 
L 83.859986 169.886095 
L 84.693654 165.905949 
L 85.527322 165.195876 
L 86.360991 165.083759 
L 87.194659 166.877628 
L 88.028328 177.173686 
L 88.861996 179.733686 
L 89.695665 170.409306 
L 90.529333 171.493102 
L 91.363002 173.380401 
L 92.19667 168.820985 
L 93.030339 168.540693 
L 93.864007 171.773394 
L 94.697675 172.595584 
L 95.531344 176.407554 
L 96.365012 182.331058 
L 97.198681 164.261569 
L 98.032349 159.085511 
L 98.866018 166.260985 
L 99.699686 176.762591 
L 100.533355 176.66916 
L 101.367023 168.634124 
L 102.200692 158.001716 
L 103.03436 185.638503 
L 103.868028 187.039963 
L 104.701697 173.286971 
L 105.535365 174.576314 
L 106.369034 174.613686 
L 107.202702 167.045803 
L 108.036371 169.680547 
L 108.870039 166.57865 
L 109.703708 166.130182 
L 110.537376 163.177774 
L 111.371045 176.314124 
L 112.204713 164.766095 
L 113.038382 163.103029 
L 113.87205 166.503905 
L 114.705718 165.102445 
L 115.539387 166.354416 
L 116.373055 162.467701 
L 117.206724 167.587701 
L 118.040392 165.401423 
L 118.874061 159.347117 
L 119.707729 161.178358 
L 120.541398 155.572519 
L 121.375066 148.845512 
L 122.208735 140.399381 
L 123.042403 164.541861 
L 123.876071 161.234416 
L 124.70974 174.408138 
L 125.543408 167.998796 
L 126.377077 159.272373 
L 127.210745 161.327847 
L 128.044414 167.793248 
L 128.878082 158.300694 
L 129.711751 150.209599 
L 130.545419 168.07354 
L 131.379088 160.505657 
L 132.212756 155.217482 
L 133.046424 163.607555 
L 133.880093 158.767847 
L 134.713761 156.282592 
L 135.54743 183.788576 
L 136.381098 160.113248 
L 137.214767 155.236168 
L 138.048435 159.758212 
L 138.882104 183.452226 
L 139.715772 158.151205 
L 140.549441 155.254854 
L 141.383109 149.929307 
L 142.216777 156.861862 
L 143.050446 156.675 
L 143.884114 154.133687 
L 145.551451 134.569308 
L 146.38512 136.849016 
L 147.218788 148.920256 
L 148.052457 156.282592 
L 148.886125 144.585074 
L 149.719794 155.460402 
L 150.553462 160.244051 
L 151.38713 153.797336 
L 152.220799 148.453103 
L 153.054467 163.458066 
L 153.888136 157.198212 
L 154.721804 149.779818 
L 155.555473 166.391788 
L 156.389141 163.607555 
L 157.22281 153.479672 
L 158.056478 153.012519 
L 158.890147 134.382446 
L 159.723815 136.886388 
L 160.557483 161.55208 
L 161.391152 142.62303 
L 162.22482 136.400549 
L 163.058489 167.606387 
L 163.892157 149.219234 
L 165.559494 132.53252 
L 166.393163 157.086095 
L 167.226831 154.69427 
L 168.0605 134.046096 
L 168.894168 136.680841 
L 169.727836 180.238211 
L 170.561505 125.132812 
L 171.395173 131.018943 
L 172.228842 135.223322 
L 173.06251 121.395586 
L 173.896179 116.817484 
L 174.729847 163.644927 
L 175.563516 119.676462 
L 176.397184 116.780111 
L 177.230853 118.985075 
L 178.064521 112.87471 
L 178.89819 122.740987 
L 179.731858 119.265367 
L 180.565526 109.230915 
L 181.399195 95.832959 
L 182.232863 132.476461 
L 183.066532 112.856024 
L 183.9002 111.921717 
L 184.733869 145.893103 
L 185.567537 112.258068 
L 186.401206 108.987995 
L 187.234874 107.007265 
L 188.068543 114.126681 
L 188.902211 113.584783 
L 189.735879 105.344199 
L 190.569548 116.948287 
L 191.403216 104.204345 
L 193.070553 131.392666 
L 193.904222 110.015732 
L 194.73789 121.13398 
L 195.571559 118.050768 
L 196.405227 123.058651 
L 197.238896 109.604637 
L 198.072564 103.213981 
L 198.906232 86.620696 
L 199.739901 108.016316 
L 200.573569 115.229163 
L 201.407238 111.155586 
L 202.240906 102.074127 
L 203.074575 107.698652 
L 203.908243 107.66128 
L 204.741912 106.185075 
L 205.57558 105.624491 
L 206.409249 118.517922 
L 207.242917 120.685513 
L 208.076585 120.835002 
L 208.910254 102.260988 
L 209.743922 95.832959 
L 210.577591 95.272375 
L 211.411259 103.419528 
L 212.244928 110.109163 
L 213.078596 104.783615 
L 214.745933 121.937483 
L 215.579602 109.39909 
L 216.41327 102.29836 
L 217.246938 111.753542 
L 218.080607 101.289309 
L 218.914275 103.69982 
L 219.747944 98.299528 
L 220.581612 124.703031 
L 221.415281 104.578068 
L 222.248949 99.439382 
L 223.082618 106.446681 
L 223.916286 120.162301 
L 224.749955 104.746243 
L 225.583623 110.875294 
L 226.417291 105.587119 
L 228.084628 97.888433 
L 228.918297 95.963762 
L 229.751965 107.119382 
L 230.585634 108.24055 
L 231.419302 97.458652 
L 232.252971 92.039674 
L 233.086639 94.898652 
L 233.920308 99.439382 
L 234.753976 108.221864 
L 235.587645 82.173397 
L 236.421313 107.922885 
L 238.08865 109.286973 
L 238.922318 119.601717 
L 239.755987 95.384492 
L 240.589655 103.886681 
L 241.423324 118.742155 
L 242.256992 115.528141 
L 243.090661 113.958506 
L 243.924329 100.093397 
L 244.757998 91.609893 
L 245.591666 84.415733 
L 246.425334 96.01982 
L 247.259003 111.790914 
L 248.092671 110.239966 
L 248.92634 114.145367 
L 249.760008 124.385367 
L 250.593677 131.80376 
L 251.427345 133.709746 
L 252.261014 127.711498 
L 253.094682 123.338943 
L 253.928351 109.324345 
L 254.762019 108.091061 
L 255.595687 113.061571 
L 256.429356 123.226826 
L 257.263024 111.47325 
L 258.096693 114.705951 
L 258.930361 115.378652 
L 259.76403 104.559382 
L 260.597698 128.309454 
L 261.431367 109.585951 
L 262.265035 104.166973 
L 263.932372 124.36668 
L 264.76604 114.257484 
L 265.599709 109.100112 
L 266.433377 105.77398 
L 267.267046 105.549747 
L 268.100714 103.438214 
L 268.934383 117.546243 
L 269.768051 123.712666 
L 270.60172 114.03325 
L 271.435388 106.801718 
L 272.269057 107.380988 
L 273.102725 123.992958 
L 273.936393 117.490184 
L 274.770062 98.093981 
L 275.60373 122.722301 
L 276.437399 106.185075 
L 277.271067 84.938945 
L 278.104736 99.233835 
L 278.938404 128.90741 
L 279.772073 107.99763 
L 280.605741 174.258649 
L 281.43941 114.107995 
L 282.273078 108.502155 
L 283.106746 97.851061 
L 283.940415 100.579236 
L 284.774083 99.514127 
L 285.607752 106.764345 
L 286.44142 111.305075 
L 287.275089 102.7842 
L 288.108757 132.476461 
L 289.776094 157.796168 
L 290.609763 160.673832 
L 292.277099 95.216317 
L 293.944436 107.025951 
L 294.778105 106.091645 
L 295.611773 105.68055 
L 296.445442 126.721133 
L 297.27911 106.147703 
L 298.946447 115.229163 
L 299.780116 110.277338 
L 300.613784 127.057483 
L 301.447453 113.771644 
L 302.281121 105.493688 
L 303.114789 150.340402 
L 303.948458 93.758798 
L 305.615795 108.5769 
L 306.449463 118.106827 
L 307.283132 122.086972 
L 308.1168 104.671499 
L 308.950469 97.888433 
L 309.784137 149.705074 
L 310.617806 140.567556 
L 311.451474 128.384199 
L 312.285142 111.828287 
L 313.118811 104.914418 
L 313.952479 106.054272 
L 314.786148 101.943324 
L 315.619816 94.020404 
L 316.453485 92.114419 
L 317.287153 99.476754 
L 318.120822 109.828871 
L 318.95449 149.947993 
L 319.788159 140.660986 
L 320.621827 127.001425 
L 321.455495 97.608141 
L 322.289164 100.8969 
L 323.122832 109.698068 
L 323.956501 106.371937 
L 324.790169 149.798504 
L 325.623838 116.705367 
L 326.457506 114.668579 
L 327.291175 114.593834 
L 328.124843 113.229747 
L 328.958512 116.854856 
L 329.79218 107.511791 
L 330.625848 122.329892 
L 331.459517 145.407264 
L 332.293185 125.076753 
L 333.126854 183.377481 
L 333.960522 132.850184 
L 334.794191 126.534272 
L 335.627859 119.078505 
L 336.461528 116.873542 
L 337.295196 120.835002 
L 338.128865 119.4896 
L 338.962533 121.731936 
L 339.796201 126.907994 
L 340.62987 119.695148 
L 341.463538 116.518506 
L 342.297207 118.312374 
L 343.130875 140.287264 
L 343.964544 132.158797 
L 344.798212 119.097192 
L 345.631881 125.637337 
L 346.465549 111.267703 
L 347.299218 116.705367 
L 348.132886 161.140986 
L 348.966554 138.044928 
L 349.800223 131.71033 
L 350.633891 126.646388 
L 351.46756 129.318505 
L 352.301228 143.426534 
L 353.134897 165.065073 
L 353.968565 147.145074 
L 354.802234 167.15792 
L 355.635902 142.922008 
L 356.469571 137.764636 
L 357.303239 137.708578 
L 358.136908 122.834418 
L 358.970576 140.6423 
L 359.804244 127.580695 
L 360.637913 125.450476 
L 361.471581 121.47033 
L 362.30525 127.562009 
L 363.138918 129.97252 
L 363.972587 123.880841 
L 364.806255 146.621862 
L 365.639924 181.919963 
L 366.473592 133.018359 
L 367.307261 127.449892 
L 368.974597 143.837629 
L 369.808266 133.242592 
L 371.475603 125.207556 
L 372.309271 125.786826 
L 373.14294 128.253396 
L 373.976608 143.912373 
L 374.810277 149.667701 
L 375.643945 131.504782 
L 376.477614 125.020695 
L 377.311282 145.388577 
L 378.14495 137.764636 
L 378.978619 153.816022 
L 379.812287 176.202007 
L 380.645956 181.004342 
L 381.479624 170.484051 
L 382.313293 173.380401 
L 383.146961 152.078212 
L 383.98063 149.81719 
L 384.814298 139.053979 
L 385.647967 148.65865 
L 386.481635 152.227701 
L 387.315303 158.637044 
L 388.148972 153.311497 
L 388.98264 150.844928 
L 390.649977 118.517922 
L 391.483646 110.613688 
L 393.150983 150.695439 
L 393.984651 127.860987 
L 394.81832 154.413979 
L 395.651988 118.536608 
L 396.485656 135.036461 
L 397.319325 148.509161 
L 398.152993 151.910037 
L 398.986662 152.152957 
L 399.82033 140.249891 
L 400.653999 132.009308 
L 401.487667 133.578943 
L 402.321336 135.989454 
L 403.155004 170.783029 
L 403.988673 158.151205 
L 404.822341 149.649015 
L 405.656009 114.014564 
L 406.489678 115.303907 
L 407.323346 118.947703 
L 408.157015 130.514417 
L 408.990683 119.919381 
L 409.824352 134.494563 
L 410.65802 127.375147 
L 411.491689 110.837922 
L 412.325357 109.529893 
L 413.159026 124.815148 
L 413.992694 117.527557 
L 414.826362 142.174563 
L 415.660031 140.025658 
L 416.493699 124.385367 
L 417.327368 113.341863 
L 418.161036 142.735147 
L 418.994705 123.525805 
L 419.828373 123.507118 
L 420.662042 154.563468 
L 421.49571 166.522591 
L 422.329379 131.149746 
L 423.163047 121.806681 
L 423.996716 117.191206 
L 424.830384 138.941862 
L 425.664052 117.471498 
L 426.497721 114.406973 
L 427.331389 144.84668 
L 428.165058 136.624782 
L 428.998726 124.516169 
L 429.832395 105.904783 
L 430.666063 100.504492 
L 431.499732 129.935147 
L 432.3334 144.043176 
L 433.167069 131.766388 
L 434.000737 114.332228 
L 434.834405 113.566097 
L 435.668074 160.823321 
L 436.501742 101.849893 
L 437.335411 135.410184 
L 438.169079 119.115878 
L 439.002748 131.13106 
L 439.836416 132.812811 
L 440.670085 121.171352 
L 441.503753 103.232667 
L 442.337422 94.52493 
L 443.17109 109.716754 
L 444.004758 118.144199 
L 444.838427 103.326097 
L 445.672095 96.094565 
L 446.505764 85.835879 
L 447.339432 77.146828 
L 448.173101 79.389164 
L 449.006769 113.285805 
L 449.840438 48.669165 
L 450.674106 84.995003 
L 451.507775 80.117923 
L 452.341443 81.239091 
L 453.175111 78.679091 
L 454.00878 66.701281 
L 454.842448 38.84026 
L 455.676117 132.084052 
L 456.509785 101.737776 
L 457.343454 91.236171 
L 458.177122 99.757046 
L 459.010791 88.620112 
L 459.844459 80.491646 
L 460.678128 93.086098 
L 461.511796 78.58566 
L 462.345464 82.21077 
L 463.179133 84.172813 
L 464.012801 68.551208 
L 464.84647 74.829748 
L 465.680138 74.437339 
L 466.513807 74.381281 
L 467.347475 66.962887 
L 468.181144 98.505076 
L 469.014812 90.731645 
L 469.848481 84.509164 
L 470.682149 104.241718 
L 471.515817 94.020404 
L 473.183154 55.69515 
L 474.016823 61.824201 
L 474.850491 76.063033 
L 475.68416 70.064785 
L 476.517828 113.491352 
L 477.351497 72.419237 
L 478.185165 58.871792 
L 479.018834 71.316755 
L 479.852502 175.903029 
L 481.519839 89.834711 
L 482.353507 79.314419 
L 483.187176 101.177192 
L 484.020844 78.623033 
L 484.854513 116.238214 
L 485.688181 77.296317 
L 486.52185 90.974565 
L 487.355518 87.835295 
L 488.189187 79.818945 
L 489.022855 75.11004 
L 489.856524 77.445806 
L 490.690192 66.477048 
L 491.52386 76.26858 
L 492.357529 77.875587 
L 493.191197 88.059529 
L 494.024866 106.951207 
L 494.858534 72.288434 
L 496.525871 56.27442 
L 497.35954 80.771938 
L 498.193208 141.969016 
L 499.860545 56.367851 
L 500.694213 57.115296 
L 501.527882 52.350333 
L 502.36155 40.110917 
L 503.195219 61.880259 
L 504.028887 113.640841 
L 504.862556 81.612813 
L 505.696224 96.804638 
L 506.529893 68.58858 
L 507.363561 69.261281 
L 508.19723 72.961135 
L 509.030898 71.933398 
L 509.864566 82.173397 
L 510.698235 87.779237 
L 511.531903 67.000259 
L 512.365572 57.974858 
L 513.19924 117.976024 
L 514.032909 43.362304 
L 514.866577 52.312961 
L 515.700246 64.328143 
L 516.533914 64.272084 
L 517.367583 63.263033 
L 518.201251 55.059822 
L 519.034919 50.537778 
L 519.868588 54.985077 
L 520.702256 71.802595 
L 521.535925 70.56931 
L 522.369593 102.186243 
L 523.203262 56.423909 
L 524.03693 57.507705 
L 524.870599 51.864493 
L 525.704267 51.173107 
L 526.537936 64.701865 
L 527.371604 99.813105 
L 528.205272 67.560843 
L 529.038941 79.034127 
L 529.872609 84.752083 
L 530.706278 86.284346 
L 531.539946 55.732522 
L 532.373615 66.327559 
L 533.207283 68.420405 
L 534.040952 56.031501 
L 534.87462 58.030917 
L 535.708289 66.551792 
L 536.541957 93.011353 
L 537.375625 88.82566 
L 538.209294 91.740696 
L 539.042962 78.735149 
L 539.876631 70.644055 
L 540.710299 56.76026 
L 541.543968 78.473544 
L 542.377636 79.108872 
L 543.211305 104.652813 
L 544.044973 107.792083 
L 544.878642 72.344493 
L 545.71231 77.557923 
L 546.545979 59.357632 
L 547.379647 55.956756 
L 548.213315 54.966391 
L 549.046984 64.87004 
L 549.880652 82.397631 
L 550.714321 67.467413 
L 551.547989 68.289602 
L 552.381658 88.339821 
L 553.215326 71.933398 
L 554.048995 85.406098 
L 554.882663 111.772228 
L 555.716332 56.629457 
L 556.55 64.926099 
L 558.217337 42.371939 
L 559.051005 66.888143 
L 559.884674 66.084639 
L 560.718342 70.176902 
L 561.552011 71.821281 
L 562.385679 62.328727 
L 563.219348 60.254566 
L 564.053016 53.452815 
L 564.886685 59.41369 
L 565.720353 61.020697 
L 566.554021 67.579529 
L 567.38769 92.992667 
L 568.221358 64.047851 
L 569.888695 54.312377 
L 570.722364 58.946537 
L 571.556032 86.975733 
L 572.389701 77.389748 
L 573.223369 72.811646 
L 574.057038 66.477048 
L 574.890706 68.326975 
L 575.724374 57.806683 
L 576.558043 52.985661 
L 577.391711 61.525223 
L 578.22538 48.127267 
L 579.059048 110.090477 
L 579.892717 73.073252 
L 580.726385 64.178654 
L 582.393722 49.99588 
L 583.227391 53.415442 
L 584.061059 81.986536 
L 584.894727 96.898068 
L 585.728396 65.841719 
L 586.562064 63.543325 
L 587.395733 51.266537 
L 588.229401 50.967559 
L 589.06307 57.750625 
L 589.896738 80.360843 
L 590.730407 86.527266 
L 591.564075 82.341573 
L 592.397744 66.832084 
L 593.231412 62.197924 
L 594.06508 79.183616 
L 594.898749 54.87296 
L 595.732417 83.425368 
L 596.566086 41.362888 
L 597.399754 54.480552 
L 598.233423 49.958508 
L 599.067091 48.033837 
L 599.90076 49.267121 
L 600.734428 45.436465 
L 601.568097 32.262742 
L 602.401765 58.068289 
L 603.235434 66.738653 
L 604.069102 118.985075 
L 604.90277 53.247267 
L 605.736439 50.836756 
L 606.570107 42.484056 
L 607.403776 38.223618 
L 609.071113 56.143617 
L 609.904781 54.237632 
L 610.73845 50.593837 
L 611.572118 56.947121 
L 612.405787 56.536026 
L 613.239455 35.233837 
L 614.073123 66.364931 
L 614.906792 68.439091 
L 615.74046 108.408725 
L 616.574129 53.602304 
L 617.407797 58.161719 
L 618.241466 42.689603 
L 619.075134 46.258654 
L 619.908803 129.505366 
L 620.742471 92.731061 
L 621.57614 75.651938 
L 622.409808 51.378654 
L 623.243476 53.639676 
L 624.077145 59.021281 
L 624.910813 62.253982 
L 625.744482 71.036464 
L 626.57815 85.312667 
L 627.411819 54.312377 
L 628.245487 55.676464 
L 629.079156 54.77953 
L 629.912824 93.740112 
L 630.746493 43.922888 
L 631.580161 67.579529 
L 632.413829 63.206975 
L 633.247498 55.583033 
L 634.081166 51.341282 
L 634.914835 57.582449 
L 635.748503 55.994128 
L 636.582172 48.370187 
L 637.41584 111.772228 
L 638.249509 194.68259 
L 639.083177 174.613686 
L 639.916846 91.086682 
L 640.750514 83.238507 
L 641.584182 85.835879 
L 642.417851 99.084346 
L 643.251519 99.663616 
L 644.085188 96.823324 
L 644.918856 88.844346 
L 645.752525 101.009017 
L 646.586193 95.776901 
L 647.419862 83.12639 
L 648.25353 72.961135 
L 649.087199 67.056318 
L 649.920867 77.950332 
L 650.754535 118.592666 
L 651.588204 92.413397 
L 652.421872 93.347704 
L 653.255541 88.620112 
L 654.089209 89.909455 
L 654.922878 107.848141 
L 655.756546 92.338652 
L 656.590215 89.816025 
L 657.423883 98.934857 
L 658.257552 149.779818 
L 659.09122 122.030914 
L 659.924888 152.545365 
L 660.758557 149.798504 
L 661.592225 100.037338 
L 662.425894 121.115294 
L 663.259562 96.804638 
L 664.093231 95.627411 
L 664.926899 89.180696 
L 665.760568 98.093981 
L 666.594236 108.221864 
L 667.427905 78.604346 
L 668.261573 71.653106 
L 669.095242 88.040842 
L 670.762578 101.513543 
L 671.596247 90.787704 
L 672.429915 134.774855 
L 673.263584 98.486389 
L 674.097252 92.30128 
L 674.930921 95.702156 
L 675.764589 91.72201 
L 676.598258 90.245806 
L 677.431926 100.784784 
L 678.265595 124.347994 
L 679.099263 109.417776 
L 679.932931 91.254857 
L 680.7666 96.673835 
L 681.600268 117.957338 
L 682.433937 127.393834 
L 683.267605 162.411642 
L 684.101274 161.701569 
L 684.934942 177.902445 
L 685.768611 176.164635 
L 686.602279 186.853101 
L 687.435948 155.591205 
L 688.269616 137.260111 
L 689.103284 170.035584 
L 689.936953 161.533394 
L 690.770621 144.099234 
L 690.770621 144.099234 
" clip-path="url(#pa2da7973e8)" style="fill: none; stroke: #000000; stroke-width: 2; stroke-linecap: square"/>
   </g>
   <g id="patch_3">
    <path d="M 51.76375 202.803582 
L 51.76375 24.14175 
" style="fill: none; stroke: #bcbcbc; stroke-width: 0.8; stroke-linejoin: miter; stroke-linecap: square"/>
   </g>
   <g id="patch_4">
    <path d="M 721.19952 202.803582 
L 721.19952 24.14175 
" style="fill: none; stroke: #bcbcbc; stroke-width: 0.8; stroke-linejoin: miter; stroke-linecap: square"/>
   </g>
   <g id="patch_5">
    <path d="M 51.76375 202.803582 
L 721.19952 202.803582 
" style="fill: none; stroke: #bcbcbc; stroke-width: 0.8; stroke-linejoin: miter; stroke-linecap: square"/>
   </g>
   <g id="patch_6">
    <path d="M 51.76375 24.14175 
L 721.19952 24.14175 
" style="fill: none; stroke: #bcbcbc; stroke-width: 0.8; stroke-linejoin: miter; stroke-linecap: square"/>
   </g>
   <g id="text_7">
    <!-- Count of bikes -->
    <g transform="translate(334.922885 18.14175)scale(0.144 -0.144)">
     <defs>
      <path id="DejaVuSans-43" d="M 4122 4306 
L 4122 3641 
Q 3803 3938 3442 4084 
Q 3081 4231 2675 4231 
Q 1875 4231 1450 3742 
Q 1025 3253 1025 2328 
Q 1025 1406 1450 917 
Q 1875 428 2675 428 
Q 3081 428 3442 575 
Q 3803 722 4122 1019 
L 4122 359 
Q 3791 134 3420 21 
Q 3050 -91 2638 -91 
Q 1578 -91 968 557 
Q 359 1206 359 2328 
Q 359 3453 968 4101 
Q 1578 4750 2638 4750 
Q 3056 4750 3426 4639 
Q 3797 4528 4122 4306 
z
" transform="scale(0.015625)"/>
      <path id="DejaVuSans-6f" d="M 1959 3097 
Q 1497 3097 1228 2736 
Q 959 2375 959 1747 
Q 959 1119 1226 758 
Q 1494 397 1959 397 
Q 2419 397 2687 759 
Q 2956 1122 2956 1747 
Q 2956 2369 2687 2733 
Q 2419 3097 1959 3097 
z
M 1959 3584 
Q 2709 3584 3137 3096 
Q 3566 2609 3566 1747 
Q 3566 888 3137 398 
Q 2709 -91 1959 -91 
Q 1206 -91 779 398 
Q 353 888 353 1747 
Q 353 2609 779 3096 
Q 1206 3584 1959 3584 
z
" transform="scale(0.015625)"/>
      <path id="DejaVuSans-75" d="M 544 1381 
L 544 3500 
L 1119 3500 
L 1119 1403 
Q 1119 906 1312 657 
Q 1506 409 1894 409 
Q 2359 409 2629 706 
Q 2900 1003 2900 1516 
L 2900 3500 
L 3475 3500 
L 3475 0 
L 2900 0 
L 2900 538 
Q 2691 219 2414 64 
Q 2138 -91 1772 -91 
Q 1169 -91 856 284 
Q 544 659 544 1381 
z
M 1991 3584 
L 1991 3584 
z
" transform="scale(0.015625)"/>
      <path id="DejaVuSans-20" transform="scale(0.015625)"/>
      <path id="DejaVuSans-66" d="M 2375 4863 
L 2375 4384 
L 1825 4384 
Q 1516 4384 1395 4259 
Q 1275 4134 1275 3809 
L 1275 3500 
L 2222 3500 
L 2222 3053 
L 1275 3053 
L 1275 0 
L 697 0 
L 697 3053 
L 147 3053 
L 147 3500 
L 697 3500 
L 697 3744 
Q 697 4328 969 4595 
Q 1241 4863 1831 4863 
L 2375 4863 
z
" transform="scale(0.015625)"/>
      <path id="DejaVuSans-62" d="M 3116 1747 
Q 3116 2381 2855 2742 
Q 2594 3103 2138 3103 
Q 1681 3103 1420 2742 
Q 1159 2381 1159 1747 
Q 1159 1113 1420 752 
Q 1681 391 2138 391 
Q 2594 391 2855 752 
Q 3116 1113 3116 1747 
z
M 1159 2969 
Q 1341 3281 1617 3432 
Q 1894 3584 2278 3584 
Q 2916 3584 3314 3078 
Q 3713 2572 3713 1747 
Q 3713 922 3314 415 
Q 2916 -91 2278 -91 
Q 1894 -91 1617 61 
Q 1341 213 1159 525 
L 1159 0 
L 581 0 
L 581 4863 
L 1159 4863 
L 1159 2969 
z
" transform="scale(0.015625)"/>
      <path id="DejaVuSans-69" d="M 603 3500 
L 1178 3500 
L 1178 0 
L 603 0 
L 603 3500 
z
M 603 4863 
L 1178 4863 
L 1178 4134 
L 603 4134 
L 603 4863 
z
" transform="scale(0.015625)"/>
      <path id="DejaVuSans-6b" d="M 581 4863 
L 1159 4863 
L 1159 1991 
L 2875 3500 
L 3609 3500 
L 1753 1863 
L 3688 0 
L 2938 0 
L 1159 1709 
L 1159 0 
L 581 0 
L 581 4863 
z
" transform="scale(0.015625)"/>
      <path id="DejaVuSans-65" d="M 3597 1894 
L 3597 1613 
L 953 1613 
Q 991 1019 1311 708 
Q 1631 397 2203 397 
Q 2534 397 2845 478 
Q 3156 559 3463 722 
L 3463 178 
Q 3153 47 2828 -22 
Q 2503 -91 2169 -91 
Q 1331 -91 842 396 
Q 353 884 353 1716 
Q 353 2575 817 3079 
Q 1281 3584 2069 3584 
Q 2775 3584 3186 3129 
Q 3597 2675 3597 1894 
z
M 3022 2063 
Q 3016 2534 2758 2815 
Q 2500 3097 2075 3097 
Q 1594 3097 1305 2825 
Q 1016 2553 972 2059 
L 3022 2063 
z
" transform="scale(0.015625)"/>
      <path id="DejaVuSans-73" d="M 2834 3397 
L 2834 2853 
Q 2591 2978 2328 3040 
Q 2066 3103 1784 3103 
Q 1356 3103 1142 2972 
Q 928 2841 928 2578 
Q 928 2378 1081 2264 
Q 1234 2150 1697 2047 
L 1894 2003 
Q 2506 1872 2764 1633 
Q 3022 1394 3022 966 
Q 3022 478 2636 193 
Q 2250 -91 1575 -91 
Q 1294 -91 989 -36 
Q 684 19 347 128 
L 347 722 
Q 666 556 975 473 
Q 1284 391 1588 391 
Q 1994 391 2212 530 
Q 2431 669 2431 922 
Q 2431 1156 2273 1281 
Q 2116 1406 1581 1522 
L 1381 1569 
Q 847 1681 609 1914 
Q 372 2147 372 2553 
Q 372 3047 722 3315 
Q 1072 3584 1716 3584 
Q 2034 3584 2315 3537 
Q 2597 3491 2834 3397 
z
" transform="scale(0.015625)"/>
     </defs>
     <use xlink:href="#DejaVuSans-43"/>
     <use xlink:href="#DejaVuSans-6f" x="69.824219"/>
     <use xlink:href="#DejaVuSans-75" x="131.005859"/>
     <use xlink:href="#DejaVuSans-6e" x="194.384766"/>
     <use xlink:href="#DejaVuSans-74" x="257.763672"/>
     <use xlink:href="#DejaVuSans-20" x="296.972656"/>
     <use xlink:href="#DejaVuSans-6f" x="328.759766"/>
     <use xlink:href="#DejaVuSans-66" x="389.941406"/>
     <use xlink:href="#DejaVuSans-20" x="425.146484"/>
     <use xlink:href="#DejaVuSans-62" x="456.933594"/>
     <use xlink:href="#DejaVuSans-69" x="520.410156"/>
     <use xlink:href="#DejaVuSans-6b" x="548.193359"/>
     <use xlink:href="#DejaVuSans-65" x="602.478516"/>
     <use xlink:href="#DejaVuSans-73" x="664.001953"/>
    </g>
   </g>
  </g>
  <g id="axes_2">
   <g id="patch_7">
    <path d="M 51.76375 404.407645 
L 721.19952 404.407645 
L 721.19952 225.745812 
L 51.76375 225.745812 
z
" style="fill: #eeeeee"/>
   </g>
   <g id="matplotlib.axis_3">
    <g id="xtick_10">
     <g id="line2d_30">
      <path d="M 82.192649 404.407645 
L 82.192649 225.745812 
" clip-path="url(#p7887dde670)" style="fill: none; stroke-dasharray: 1.85,0.8; stroke-dashoffset: 0; stroke: #b2b2b2; stroke-width: 0.5"/>
     </g>
     <g id="line2d_31">
      <g>
       <use xlink:href="#m12903f850c" x="82.192649" y="404.407645" style="stroke: #000000; stroke-width: 0.8"/>
      </g>
     </g>
     <g id="text_8">
      <!-- 2011-01 -->
      <g transform="translate(61.301242 415.506082)scale(0.1 -0.1)">
       <defs>
        <path id="DejaVuSans-31" d="M 794 531 
L 1825 531 
L 1825 4091 
L 703 3866 
L 703 4441 
L 1819 4666 
L 2450 4666 
L 2450 531 
L 3481 531 
L 3481 0 
L 794 0 
L 794 531 
z
" transform="scale(0.015625)"/>
        <path id="DejaVuSans-2d" d="M 313 2009 
L 1997 2009 
L 1997 1497 
L 313 1497 
L 313 2009 
z
" transform="scale(0.015625)"/>
       </defs>
       <use xlink:href="#DejaVuSans-32"/>
       <use xlink:href="#DejaVuSans-30" x="63.623047"/>
       <use xlink:href="#DejaVuSans-31" x="127.246094"/>
       <use xlink:href="#DejaVuSans-31" x="190.869141"/>
       <use xlink:href="#DejaVuSans-2d" x="254.492188"/>
       <use xlink:href="#DejaVuSans-30" x="290.576172"/>
       <use xlink:href="#DejaVuSans-31" x="354.199219"/>
      </g>
     </g>
    </g>
    <g id="xtick_11">
     <g id="line2d_32">
      <path d="M 157.22281 404.407645 
L 157.22281 225.745812 
" clip-path="url(#p7887dde670)" style="fill: none; stroke-dasharray: 1.85,0.8; stroke-dashoffset: 0; stroke: #b2b2b2; stroke-width: 0.5"/>
     </g>
     <g id="line2d_33">
      <g>
       <use xlink:href="#m12903f850c" x="157.22281" y="404.407645" style="stroke: #000000; stroke-width: 0.8"/>
      </g>
     </g>
     <g id="text_9">
      <!-- 2011-04 -->
      <g transform="translate(136.331403 415.506082)scale(0.1 -0.1)">
       <use xlink:href="#DejaVuSans-32"/>
       <use xlink:href="#DejaVuSans-30" x="63.623047"/>
       <use xlink:href="#DejaVuSans-31" x="127.246094"/>
       <use xlink:href="#DejaVuSans-31" x="190.869141"/>
       <use xlink:href="#DejaVuSans-2d" x="254.492188"/>
       <use xlink:href="#DejaVuSans-30" x="290.576172"/>
       <use xlink:href="#DejaVuSans-34" x="354.199219"/>
      </g>
     </g>
    </g>
    <g id="xtick_12">
     <g id="line2d_34">
      <path d="M 233.086639 404.407645 
L 233.086639 225.745812 
" clip-path="url(#p7887dde670)" style="fill: none; stroke-dasharray: 1.85,0.8; stroke-dashoffset: 0; stroke: #b2b2b2; stroke-width: 0.5"/>
     </g>
     <g id="line2d_35">
      <g>
       <use xlink:href="#m12903f850c" x="233.086639" y="404.407645" style="stroke: #000000; stroke-width: 0.8"/>
      </g>
     </g>
     <g id="text_10">
      <!-- 2011-07 -->
      <g transform="translate(212.195233 415.506082)scale(0.1 -0.1)">
       <defs>
        <path id="DejaVuSans-37" d="M 525 4666 
L 3525 4666 
L 3525 4397 
L 1831 0 
L 1172 0 
L 2766 4134 
L 525 4134 
L 525 4666 
z
" transform="scale(0.015625)"/>
       </defs>
       <use xlink:href="#DejaVuSans-32"/>
       <use xlink:href="#DejaVuSans-30" x="63.623047"/>
       <use xlink:href="#DejaVuSans-31" x="127.246094"/>
       <use xlink:href="#DejaVuSans-31" x="190.869141"/>
       <use xlink:href="#DejaVuSans-2d" x="254.492188"/>
       <use xlink:href="#DejaVuSans-30" x="290.576172"/>
       <use xlink:href="#DejaVuSans-37" x="354.199219"/>
      </g>
     </g>
    </g>
    <g id="xtick_13">
     <g id="line2d_36">
      <path d="M 309.784137 404.407645 
L 309.784137 225.745812 
" clip-path="url(#p7887dde670)" style="fill: none; stroke-dasharray: 1.85,0.8; stroke-dashoffset: 0; stroke: #b2b2b2; stroke-width: 0.5"/>
     </g>
     <g id="line2d_37">
      <g>
       <use xlink:href="#m12903f850c" x="309.784137" y="404.407645" style="stroke: #000000; stroke-width: 0.8"/>
      </g>
     </g>
     <g id="text_11">
      <!-- 2011-10 -->
      <g transform="translate(288.892731 415.506082)scale(0.1 -0.1)">
       <use xlink:href="#DejaVuSans-32"/>
       <use xlink:href="#DejaVuSans-30" x="63.623047"/>
       <use xlink:href="#DejaVuSans-31" x="127.246094"/>
       <use xlink:href="#DejaVuSans-31" x="190.869141"/>
       <use xlink:href="#DejaVuSans-2d" x="254.492188"/>
       <use xlink:href="#DejaVuSans-31" x="290.576172"/>
       <use xlink:href="#DejaVuSans-30" x="354.199219"/>
      </g>
     </g>
    </g>
    <g id="xtick_14">
     <g id="line2d_38">
      <path d="M 386.481635 404.407645 
L 386.481635 225.745812 
" clip-path="url(#p7887dde670)" style="fill: none; stroke-dasharray: 1.85,0.8; stroke-dashoffset: 0; stroke: #b2b2b2; stroke-width: 0.5"/>
     </g>
     <g id="line2d_39">
      <g>
       <use xlink:href="#m12903f850c" x="386.481635" y="404.407645" style="stroke: #000000; stroke-width: 0.8"/>
      </g>
     </g>
     <g id="text_12">
      <!-- 2012-01 -->
      <g transform="translate(365.590229 415.506082)scale(0.1 -0.1)">
       <use xlink:href="#DejaVuSans-32"/>
       <use xlink:href="#DejaVuSans-30" x="63.623047"/>
       <use xlink:href="#DejaVuSans-31" x="127.246094"/>
       <use xlink:href="#DejaVuSans-32" x="190.869141"/>
       <use xlink:href="#DejaVuSans-2d" x="254.492188"/>
       <use xlink:href="#DejaVuSans-30" x="290.576172"/>
       <use xlink:href="#DejaVuSans-31" x="354.199219"/>
      </g>
     </g>
    </g>
    <g id="xtick_15">
     <g id="line2d_40">
      <path d="M 462.345464 404.407645 
L 462.345464 225.745812 
" clip-path="url(#p7887dde670)" style="fill: none; stroke-dasharray: 1.85,0.8; stroke-dashoffset: 0; stroke: #b2b2b2; stroke-width: 0.5"/>
     </g>
     <g id="line2d_41">
      <g>
       <use xlink:href="#m12903f850c" x="462.345464" y="404.407645" style="stroke: #000000; stroke-width: 0.8"/>
      </g>
     </g>
     <g id="text_13">
      <!-- 2012-04 -->
      <g transform="translate(441.454058 415.506082)scale(0.1 -0.1)">
       <use xlink:href="#DejaVuSans-32"/>
       <use xlink:href="#DejaVuSans-30" x="63.623047"/>
       <use xlink:href="#DejaVuSans-31" x="127.246094"/>
       <use xlink:href="#DejaVuSans-32" x="190.869141"/>
       <use xlink:href="#DejaVuSans-2d" x="254.492188"/>
       <use xlink:href="#DejaVuSans-30" x="290.576172"/>
       <use xlink:href="#DejaVuSans-34" x="354.199219"/>
      </g>
     </g>
    </g>
    <g id="xtick_16">
     <g id="line2d_42">
      <path d="M 538.209294 404.407645 
L 538.209294 225.745812 
" clip-path="url(#p7887dde670)" style="fill: none; stroke-dasharray: 1.85,0.8; stroke-dashoffset: 0; stroke: #b2b2b2; stroke-width: 0.5"/>
     </g>
     <g id="line2d_43">
      <g>
       <use xlink:href="#m12903f850c" x="538.209294" y="404.407645" style="stroke: #000000; stroke-width: 0.8"/>
      </g>
     </g>
     <g id="text_14">
      <!-- 2012-07 -->
      <g transform="translate(517.317888 415.506082)scale(0.1 -0.1)">
       <use xlink:href="#DejaVuSans-32"/>
       <use xlink:href="#DejaVuSans-30" x="63.623047"/>
       <use xlink:href="#DejaVuSans-31" x="127.246094"/>
       <use xlink:href="#DejaVuSans-32" x="190.869141"/>
       <use xlink:href="#DejaVuSans-2d" x="254.492188"/>
       <use xlink:href="#DejaVuSans-30" x="290.576172"/>
       <use xlink:href="#DejaVuSans-37" x="354.199219"/>
      </g>
     </g>
    </g>
    <g id="xtick_17">
     <g id="line2d_44">
      <path d="M 614.906792 404.407645 
L 614.906792 225.745812 
" clip-path="url(#p7887dde670)" style="fill: none; stroke-dasharray: 1.85,0.8; stroke-dashoffset: 0; stroke: #b2b2b2; stroke-width: 0.5"/>
     </g>
     <g id="line2d_45">
      <g>
       <use xlink:href="#m12903f850c" x="614.906792" y="404.407645" style="stroke: #000000; stroke-width: 0.8"/>
      </g>
     </g>
     <g id="text_15">
      <!-- 2012-10 -->
      <g transform="translate(594.015386 415.506082)scale(0.1 -0.1)">
       <use xlink:href="#DejaVuSans-32"/>
       <use xlink:href="#DejaVuSans-30" x="63.623047"/>
       <use xlink:href="#DejaVuSans-31" x="127.246094"/>
       <use xlink:href="#DejaVuSans-32" x="190.869141"/>
       <use xlink:href="#DejaVuSans-2d" x="254.492188"/>
       <use xlink:href="#DejaVuSans-31" x="290.576172"/>
       <use xlink:href="#DejaVuSans-30" x="354.199219"/>
      </g>
     </g>
    </g>
    <g id="xtick_18">
     <g id="line2d_46">
      <path d="M 691.60429 404.407645 
L 691.60429 225.745812 
" clip-path="url(#p7887dde670)" style="fill: none; stroke-dasharray: 1.85,0.8; stroke-dashoffset: 0; stroke: #b2b2b2; stroke-width: 0.5"/>
     </g>
     <g id="line2d_47">
      <g>
       <use xlink:href="#m12903f850c" x="691.60429" y="404.407645" style="stroke: #000000; stroke-width: 0.8"/>
      </g>
     </g>
     <g id="text_16">
      <!-- 2013-01 -->
      <g transform="translate(670.712884 415.506082)scale(0.1 -0.1)">
       <defs>
        <path id="DejaVuSans-33" d="M 2597 2516 
Q 3050 2419 3304 2112 
Q 3559 1806 3559 1356 
Q 3559 666 3084 287 
Q 2609 -91 1734 -91 
Q 1441 -91 1130 -33 
Q 819 25 488 141 
L 488 750 
Q 750 597 1062 519 
Q 1375 441 1716 441 
Q 2309 441 2620 675 
Q 2931 909 2931 1356 
Q 2931 1769 2642 2001 
Q 2353 2234 1838 2234 
L 1294 2234 
L 1294 2753 
L 1863 2753 
Q 2328 2753 2575 2939 
Q 2822 3125 2822 3475 
Q 2822 3834 2567 4026 
Q 2313 4219 1838 4219 
Q 1578 4219 1281 4162 
Q 984 4106 628 3988 
L 628 4550 
Q 988 4650 1302 4700 
Q 1616 4750 1894 4750 
Q 2613 4750 3031 4423 
Q 3450 4097 3450 3541 
Q 3450 3153 3228 2886 
Q 3006 2619 2597 2516 
z
" transform="scale(0.015625)"/>
       </defs>
       <use xlink:href="#DejaVuSans-32"/>
       <use xlink:href="#DejaVuSans-30" x="63.623047"/>
       <use xlink:href="#DejaVuSans-31" x="127.246094"/>
       <use xlink:href="#DejaVuSans-33" x="190.869141"/>
       <use xlink:href="#DejaVuSans-2d" x="254.492188"/>
       <use xlink:href="#DejaVuSans-30" x="290.576172"/>
       <use xlink:href="#DejaVuSans-31" x="354.199219"/>
      </g>
     </g>
    </g>
    <g id="text_17">
     <!-- date -->
     <g transform="translate(372.951635 430.703895)scale(0.12 -0.12)">
      <defs>
       <path id="DejaVuSans-64" d="M 2906 2969 
L 2906 4863 
L 3481 4863 
L 3481 0 
L 2906 0 
L 2906 525 
Q 2725 213 2448 61 
Q 2172 -91 1784 -91 
Q 1150 -91 751 415 
Q 353 922 353 1747 
Q 353 2572 751 3078 
Q 1150 3584 1784 3584 
Q 2172 3584 2448 3432 
Q 2725 3281 2906 2969 
z
M 947 1747 
Q 947 1113 1208 752 
Q 1469 391 1925 391 
Q 2381 391 2643 752 
Q 2906 1113 2906 1747 
Q 2906 2381 2643 2742 
Q 2381 3103 1925 3103 
Q 1469 3103 1208 2742 
Q 947 2381 947 1747 
z
" transform="scale(0.015625)"/>
       <path id="DejaVuSans-61" d="M 2194 1759 
Q 1497 1759 1228 1600 
Q 959 1441 959 1056 
Q 959 750 1161 570 
Q 1363 391 1709 391 
Q 2188 391 2477 730 
Q 2766 1069 2766 1631 
L 2766 1759 
L 2194 1759 
z
M 3341 1997 
L 3341 0 
L 2766 0 
L 2766 531 
Q 2569 213 2275 61 
Q 1981 -91 1556 -91 
Q 1019 -91 701 211 
Q 384 513 384 1019 
Q 384 1609 779 1909 
Q 1175 2209 1959 2209 
L 2766 2209 
L 2766 2266 
Q 2766 2663 2505 2880 
Q 2244 3097 1772 3097 
Q 1472 3097 1187 3025 
Q 903 2953 641 2809 
L 641 3341 
Q 956 3463 1253 3523 
Q 1550 3584 1831 3584 
Q 2591 3584 2966 3190 
Q 3341 2797 3341 1997 
z
" transform="scale(0.015625)"/>
      </defs>
      <use xlink:href="#DejaVuSans-64"/>
      <use xlink:href="#DejaVuSans-61" x="63.476562"/>
      <use xlink:href="#DejaVuSans-74" x="124.755859"/>
      <use xlink:href="#DejaVuSans-65" x="163.964844"/>
     </g>
    </g>
   </g>
   <g id="matplotlib.axis_4">
    <g id="ytick_6">
     <g id="line2d_48">
      <path d="M 51.76375 373.805459 
L 721.19952 373.805459 
" clip-path="url(#p7887dde670)" style="fill: none; stroke-dasharray: 1.85,0.8; stroke-dashoffset: 0; stroke: #b2b2b2; stroke-width: 0.5"/>
     </g>
     <g id="line2d_49">
      <g>
       <use xlink:href="#mbd44fe1555" x="51.76375" y="373.805459" style="stroke: #000000; stroke-width: 0.8"/>
      </g>
     </g>
     <g id="text_18">
      <!-- 0 -->
      <g transform="translate(41.90125 377.604677)scale(0.1 -0.1)">
       <use xlink:href="#DejaVuSans-30"/>
      </g>
     </g>
    </g>
    <g id="ytick_7">
     <g id="line2d_50">
      <path d="M 51.76375 330.745224 
L 721.19952 330.745224 
" clip-path="url(#p7887dde670)" style="fill: none; stroke-dasharray: 1.85,0.8; stroke-dashoffset: 0; stroke: #b2b2b2; stroke-width: 0.5"/>
     </g>
     <g id="line2d_51">
      <g>
       <use xlink:href="#mbd44fe1555" x="51.76375" y="330.745224" style="stroke: #000000; stroke-width: 0.8"/>
      </g>
     </g>
     <g id="text_19">
      <!-- 10 -->
      <g transform="translate(35.53875 334.544443)scale(0.1 -0.1)">
       <use xlink:href="#DejaVuSans-31"/>
       <use xlink:href="#DejaVuSans-30" x="63.623047"/>
      </g>
     </g>
    </g>
    <g id="ytick_8">
     <g id="line2d_52">
      <path d="M 51.76375 287.684989 
L 721.19952 287.684989 
" clip-path="url(#p7887dde670)" style="fill: none; stroke-dasharray: 1.85,0.8; stroke-dashoffset: 0; stroke: #b2b2b2; stroke-width: 0.5"/>
     </g>
     <g id="line2d_53">
      <g>
       <use xlink:href="#mbd44fe1555" x="51.76375" y="287.684989" style="stroke: #000000; stroke-width: 0.8"/>
      </g>
     </g>
     <g id="text_20">
      <!-- 20 -->
      <g transform="translate(35.53875 291.484208)scale(0.1 -0.1)">
       <use xlink:href="#DejaVuSans-32"/>
       <use xlink:href="#DejaVuSans-30" x="63.623047"/>
      </g>
     </g>
    </g>
    <g id="ytick_9">
     <g id="line2d_54">
      <path d="M 51.76375 244.624754 
L 721.19952 244.624754 
" clip-path="url(#p7887dde670)" style="fill: none; stroke-dasharray: 1.85,0.8; stroke-dashoffset: 0; stroke: #b2b2b2; stroke-width: 0.5"/>
     </g>
     <g id="line2d_55">
      <g>
       <use xlink:href="#mbd44fe1555" x="51.76375" y="244.624754" style="stroke: #000000; stroke-width: 0.8"/>
      </g>
     </g>
     <g id="text_21">
      <!-- 30 -->
      <g transform="translate(35.53875 248.423973)scale(0.1 -0.1)">
       <use xlink:href="#DejaVuSans-33"/>
       <use xlink:href="#DejaVuSans-30" x="63.623047"/>
      </g>
     </g>
    </g>
    <g id="text_22">
     <!-- temp -->
     <g transform="translate(29.043125 330.774229)rotate(-90)scale(0.12 -0.12)">
      <defs>
       <path id="DejaVuSans-6d" d="M 3328 2828 
Q 3544 3216 3844 3400 
Q 4144 3584 4550 3584 
Q 5097 3584 5394 3201 
Q 5691 2819 5691 2113 
L 5691 0 
L 5113 0 
L 5113 2094 
Q 5113 2597 4934 2840 
Q 4756 3084 4391 3084 
Q 3944 3084 3684 2787 
Q 3425 2491 3425 1978 
L 3425 0 
L 2847 0 
L 2847 2094 
Q 2847 2600 2669 2842 
Q 2491 3084 2119 3084 
Q 1678 3084 1418 2786 
Q 1159 2488 1159 1978 
L 1159 0 
L 581 0 
L 581 3500 
L 1159 3500 
L 1159 2956 
Q 1356 3278 1631 3431 
Q 1906 3584 2284 3584 
Q 2666 3584 2933 3390 
Q 3200 3197 3328 2828 
z
" transform="scale(0.015625)"/>
       <path id="DejaVuSans-70" d="M 1159 525 
L 1159 -1331 
L 581 -1331 
L 581 3500 
L 1159 3500 
L 1159 2969 
Q 1341 3281 1617 3432 
Q 1894 3584 2278 3584 
Q 2916 3584 3314 3078 
Q 3713 2572 3713 1747 
Q 3713 922 3314 415 
Q 2916 -91 2278 -91 
Q 1894 -91 1617 61 
Q 1341 213 1159 525 
z
M 3116 1747 
Q 3116 2381 2855 2742 
Q 2594 3103 2138 3103 
Q 1681 3103 1420 2742 
Q 1159 2381 1159 1747 
Q 1159 1113 1420 752 
Q 1681 391 2138 391 
Q 2594 391 2855 752 
Q 3116 1113 3116 1747 
z
" transform="scale(0.015625)"/>
      </defs>
      <use xlink:href="#DejaVuSans-74"/>
      <use xlink:href="#DejaVuSans-65" x="39.208984"/>
      <use xlink:href="#DejaVuSans-6d" x="100.732422"/>
      <use xlink:href="#DejaVuSans-70" x="198.144531"/>
     </g>
    </g>
   </g>
   <g id="line2d_56">
    <path d="M 82.192649 338.600061 
L 83.026317 334.691841 
L 83.859986 368.512891 
L 84.693654 367.777026 
L 85.527322 362.321384 
L 86.360991 366.897064 
L 87.194659 368.480914 
L 88.028328 374.860434 
L 88.861996 380.257385 
L 89.695665 377.727596 
L 90.529333 374.032485 
L 91.363002 373.29662 
L 92.19667 374.860434 
L 93.030339 375.696277 
L 93.864007 361.03099 
L 94.697675 361.36816 
L 95.531344 372.668018 
L 96.365012 364.403907 
L 97.198681 349.122566 
L 98.032349 355.296667 
L 98.866018 372.330646 
L 99.699686 396.286653 
L 100.533355 388.719285 
L 101.367023 388.543293 
L 102.200692 363.025475 
L 103.03436 364.235321 
L 103.868028 368.788941 
L 104.701697 367.073137 
L 105.535365 368.480914 
L 106.369034 364.433252 
L 107.202702 371.656103 
L 108.036371 369.360876 
L 108.870039 355.63404 
L 109.703708 370.416709 
L 111.371045 361.03099 
L 112.204713 350.405877 
L 113.038382 353.272836 
L 113.87205 363.560779 
L 114.705718 380.975845 
L 115.539387 379.04005 
L 116.373055 369.984823 
L 117.206724 363.223406 
L 118.874061 324.264659 
L 119.707729 354.402134 
L 120.541398 343.842998 
L 121.375066 320.048411 
L 122.208735 302.67706 
L 123.876071 350.530545 
L 124.70974 346.864173 
L 125.543408 371.374993 
L 126.377077 363.37742 
L 128.044414 334.515768 
L 128.878082 351.08042 
L 130.545419 325.828473 
L 131.379088 354.284751 
L 132.212756 340.455307 
L 133.046424 368.114398 
L 133.880093 355.296667 
L 134.713761 330.504737 
L 135.54743 332.051956 
L 136.381098 355.282095 
L 137.214767 349.056589 
L 138.048435 348.382046 
L 138.882104 329.508202 
L 139.715772 344.194942 
L 140.549441 341.635807 
L 141.383109 330.468105 
L 142.216777 342.435221 
L 143.050446 344.019071 
L 144.717783 324.264659 
L 145.551451 298.966771 
L 146.38512 312.62763 
L 147.218788 340.961265 
L 148.052457 321.140875 
L 148.886125 318.867708 
L 149.719794 338.035412 
L 150.553462 350.574462 
L 151.38713 354.790709 
L 152.220799 354.453539 
L 153.054467 357.042019 
L 153.888136 354.754078 
L 154.721804 347.032758 
L 155.555473 347.538715 
L 156.389141 353.947581 
L 157.22281 347.538715 
L 158.056478 344.502969 
L 158.890147 331.68544 
L 159.723815 292.220735 
L 160.557483 324.433244 
L 161.391152 329.155651 
L 162.22482 319.711039 
L 163.058489 340.286722 
L 163.892157 338.937434 
L 164.725826 321.903455 
L 165.559494 287.703746 
L 167.226831 324.770616 
L 168.0605 313.639546 
L 168.894168 317.855793 
L 169.727836 321.060327 
L 170.561505 315.831962 
L 171.395173 304.532306 
L 172.228842 305.881594 
L 173.06251 287.8357 
L 174.729847 340.117934 
L 176.397184 290.534074 
L 178.064521 280.414919 
L 178.89819 282.776122 
L 179.731858 283.28208 
L 180.565526 305.038264 
L 181.399195 312.62763 
L 182.232863 316.843877 
L 183.066532 297.111525 
L 183.9002 283.450665 
L 184.733869 324.433244 
L 185.567537 315.326004 
L 186.401206 311.278342 
L 187.234874 303.014433 
L 188.068543 301.327974 
L 188.902211 300.484644 
L 189.735879 300.484644 
L 190.569548 298.460813 
L 191.403216 299.978686 
L 192.236885 304.532306 
L 193.070553 302.845848 
L 193.904222 294.413151 
L 194.73789 291.377404 
L 195.571559 294.581736 
L 196.405227 296.94294 
L 197.238896 300.822017 
L 198.072564 299.641314 
L 198.906232 286.317827 
L 199.739901 285.980454 
L 201.407238 274.680798 
L 202.240906 274.512213 
L 203.074575 264.899016 
L 204.741912 275.524129 
L 205.57558 273.162925 
L 206.409249 259.839438 
L 207.242917 251.406741 
L 208.076585 253.599157 
L 208.910254 263.549728 
L 209.743922 282.776122 
L 211.411259 277.042002 
L 213.078596 265.067601 
L 213.912265 251.238156 
L 214.745933 244.660705 
L 215.579602 255.454403 
L 217.246938 268.103347 
L 218.080607 279.740376 
L 218.914275 285.980454 
L 219.747944 281.426834 
L 220.581612 281.089664 
L 221.415281 276.873214 
L 222.248949 267.260017 
L 223.082618 266.754059 
L 223.916286 279.740376 
L 224.749955 270.464551 
L 225.583623 259.839438 
L 227.25096 261.694482 
L 228.084628 267.59739 
L 228.918297 270.633136 
L 229.751965 270.127178 
L 230.585634 257.64682 
L 231.419302 260.851354 
L 232.252971 267.260017 
L 233.086639 262.031854 
L 233.920308 258.827523 
L 234.753976 263.212355 
L 235.587645 261.188524 
L 236.421313 257.140862 
L 237.254981 262.537812 
L 238.08865 256.466319 
L 238.922318 264.730228 
L 239.755987 259.839438 
L 241.423324 253.93653 
L 242.256992 247.527664 
L 243.090661 257.140862 
L 243.924329 270.464551 
L 244.757998 274.006255 
L 245.591666 269.283848 
L 246.425334 262.706397 
L 248.092671 251.069369 
L 248.92634 252.756029 
L 249.760008 243.311417 
L 250.593677 236.565381 
L 251.427345 236.396594 
L 252.261014 240.275671 
L 253.094682 257.815607 
L 253.928351 252.081284 
L 254.762019 251.406741 
L 255.595687 250.563411 
L 256.429356 238.589212 
L 257.263024 245.503833 
L 258.096693 245.166663 
L 258.930361 252.081284 
L 259.76403 249.720283 
L 260.597698 260.176608 
L 261.431367 264.561643 
L 262.265035 264.393058 
L 263.098704 263.212355 
L 264.76604 253.430572 
L 265.599709 251.406741 
L 266.433377 253.0932 
L 267.267046 263.04377 
L 268.100714 264.899016 
L 268.934383 269.452635 
L 269.768051 271.307679 
L 270.60172 273.500298 
L 271.435388 266.416889 
L 272.269057 261.863269 
L 273.102725 264.22427 
L 273.936393 269.621221 
L 275.60373 264.393058 
L 276.437399 268.271932 
L 277.271067 278.559875 
L 278.104736 271.982424 
L 278.938404 269.789806 
L 279.772073 266.585474 
L 280.605741 270.633136 
L 281.43941 265.156852 
L 282.273078 279.403003 
L 283.106746 278.897045 
L 283.940415 275.355341 
L 284.774083 275.692714 
L 285.607752 278.053917 
L 286.44142 272.825552 
L 287.275089 264.730228 
L 288.108757 271.982424 
L 288.942426 298.966771 
L 289.776094 286.99237 
L 290.609763 279.960366 
L 291.443431 276.704629 
L 292.277099 274.680798 
L 293.110768 276.030086 
L 293.944436 277.848499 
L 294.778105 276.536044 
L 295.611773 271.982424 
L 297.27911 313.302173 
L 298.112779 308.748553 
L 298.946447 305.544221 
L 299.780116 297.111525 
L 300.613784 294.581736 
L 302.281121 281.089664 
L 303.114789 284.968539 
L 303.948458 285.474496 
L 304.782126 279.908961 
L 305.615795 276.873214 
L 306.449463 279.403003 
L 307.283132 279.740376 
L 308.1168 283.450665 
L 308.950469 294.075778 
L 309.784137 325.276574 
L 310.617806 336.070272 
L 311.451474 330.504737 
L 312.285142 310.266426 
L 313.118811 299.304143 
L 313.952479 308.242595 
L 314.786148 304.869679 
L 315.619816 302.67706 
L 316.453485 298.798185 
L 317.287153 292.726692 
L 318.120822 293.56982 
L 318.95449 298.292228 
L 319.788159 289.016201 
L 320.621827 296.774354 
L 321.455495 305.712807 
L 322.289164 304.700891 
L 323.122832 300.147271 
L 323.956501 300.484644 
L 324.790169 298.614826 
L 325.623838 311.953087 
L 326.457506 321.73487 
L 327.291175 322.746785 
L 328.124843 322.91537 
L 328.958512 314.482876 
L 329.79218 312.796215 
L 330.625848 310.266426 
L 331.459517 313.133588 
L 332.293185 341.298637 
L 333.126854 356.81454 
L 333.960522 343.659638 
L 334.794191 339.443391 
L 335.627859 327.13182 
L 336.461528 331.854025 
L 337.295196 325.613947 
L 338.128865 326.625862 
L 338.962533 342.141765 
L 339.796201 337.756933 
L 340.62987 328.312321 
L 341.463538 325.613947 
L 342.297207 327.300405 
L 343.130875 331.348067 
L 343.964544 342.647723 
L 344.798212 336.070272 
L 346.465549 300.990602 
L 347.299218 300.990602 
L 348.132886 315.831962 
L 348.966554 339.106019 
L 349.800223 352.766878 
L 350.633891 341.635807 
L 351.46756 314.482876 
L 352.301228 317.687208 
L 353.134897 323.927286 
L 353.968565 319.036496 
L 354.802234 332.697355 
L 355.635902 332.359983 
L 356.469571 332.191398 
L 357.303239 315.326004 
L 358.136908 306.358206 
L 358.970576 315.494792 
L 359.804244 342.479138 
L 360.637913 345.008927 
L 361.471581 344.671554 
L 362.30525 347.707301 
L 363.138918 341.298637 
L 363.972587 330.167567 
L 364.806255 314.651461 
L 365.639924 325.276574 
L 366.473592 354.453539 
L 367.307261 349.393961 
L 368.140929 352.598293 
L 368.974597 363.560779 
L 369.808266 360.019074 
L 370.641934 351.08042 
L 371.475603 343.997011 
L 372.309271 322.746785 
L 373.14294 332.359983 
L 373.976608 355.971412 
L 374.810277 360.019074 
L 375.643945 352.26092 
L 376.477614 330.167567 
L 377.311282 321.566285 
L 378.14495 322.5782 
L 378.978619 332.697355 
L 379.812287 347.032758 
L 380.645956 352.64221 
L 381.479624 343.139109 
L 382.313293 342.479138 
L 383.146961 347.714789 
L 383.98063 357.995243 
L 384.814298 345.177512 
L 385.647967 325.276574 
L 386.481635 333.371898 
L 387.315303 352.994357 
L 388.148972 377.896181 
L 388.98264 386.497463 
L 389.816309 354.453539 
L 390.649977 340.623892 
L 391.483646 328.649693 
L 392.317314 339.949349 
L 393.150983 362.886033 
L 393.984651 345.778792 
L 394.81832 352.766878 
L 395.651988 330.842109 
L 397.319325 371.824688 
L 398.152993 374.523062 
L 398.986662 369.800857 
L 399.82033 332.756046 
L 400.653999 346.864173 
L 401.487667 369.800857 
L 402.321336 364.235321 
L 403.155004 373.173976 
L 403.988673 375.366392 
L 404.822341 364.066736 
L 405.656009 338.937434 
L 406.489678 348.719216 
L 407.323346 339.106019 
L 408.157015 322.240828 
L 408.990683 344.334384 
L 409.824352 351.08042 
L 410.65802 353.778794 
L 411.491689 329.324236 
L 412.325357 313.302173 
L 413.159026 327.46899 
L 413.992694 344.840342 
L 414.826362 354.790709 
L 415.660031 354.453539 
L 416.493699 351.05836 
L 417.327368 336.57623 
L 418.161036 356.308582 
L 418.994705 354.622124 
L 419.828373 351.417792 
L 420.662042 362.886033 
L 421.49571 382.449801 
L 423.163047 343.659638 
L 423.996716 337.756933 
L 424.830384 344.165596 
L 425.664052 338.768848 
L 426.497721 338.094103 
L 427.331389 351.586378 
L 428.165058 351.586378 
L 428.998726 350.002527 
L 429.832395 328.143735 
L 430.666063 316.33792 
L 431.499732 325.782532 
L 432.3334 349.393961 
L 433.167069 351.754963 
L 434.000737 334.046441 
L 434.834405 335.564314 
L 435.668074 338.56343 
L 436.501742 309.929256 
L 437.335411 336.745017 
L 438.169079 324.433244 
L 439.836416 359.007159 
L 440.670085 355.971412 
L 441.503753 326.457075 
L 442.337422 301.496559 
L 444.004758 350.068504 
L 444.838427 335.043785 
L 446.505764 293.907193 
L 447.339432 292.38932 
L 448.173101 295.425066 
L 449.006769 320.048411 
L 449.840438 304.194933 
L 450.674106 312.62763 
L 451.507775 297.954855 
L 452.341443 294.750523 
L 453.175111 300.653229 
L 454.00878 296.099609 
L 454.842448 286.486412 
L 455.676117 306.556137 
L 456.509785 319.711039 
L 457.343454 318.02458 
L 458.177122 342.81651 
L 459.010791 310.266426 
L 459.844459 308.242595 
L 460.678128 333.371898 
L 461.511796 322.409413 
L 462.345464 322.072242 
L 463.179133 320.436987 
L 464.012801 313.808131 
L 464.84647 298.629398 
L 465.680138 320.216996 
L 466.513807 326.625862 
L 467.347475 319.711039 
L 468.181144 307.062095 
L 469.014812 309.254511 
L 469.848481 317.855793 
L 470.682149 337.683468 
L 473.183154 308.07401 
L 474.016823 285.474496 
L 474.850491 273.837468 
L 475.68416 285.137326 
L 476.517828 314.482876 
L 477.351497 307.399467 
L 478.185165 301.665145 
L 479.018834 292.895278 
L 479.852502 327.974948 
L 480.686171 343.153681 
L 481.519839 324.602031 
L 482.353507 311.7843 
L 483.187176 307.399467 
L 484.020844 315.663377 
L 484.854513 332.02261 
L 485.688181 315.494792 
L 486.52185 314.314089 
L 487.355518 284.12541 
L 488.189187 294.075778 
L 489.022855 294.919109 
L 489.856524 281.258249 
L 490.690192 282.43875 
L 491.52386 294.413151 
L 492.357529 299.472728 
L 493.191197 290.534074 
L 494.024866 291.883362 
L 494.858534 305.881594 
L 496.525871 294.075778 
L 497.35954 284.293996 
L 498.193208 292.220735 
L 499.026877 284.462581 
L 499.860545 279.403003 
L 500.694213 288.173073 
L 501.527882 294.075778 
L 502.36155 286.823784 
L 503.195219 282.607537 
L 504.028887 287.161157 
L 504.862556 283.788038 
L 505.696224 282.43875 
L 506.529893 275.692714 
L 507.363561 270.633136 
L 508.19723 268.103347 
L 509.030898 268.609305 
L 509.864566 264.055685 
L 510.698235 262.031854 
L 511.531903 275.355341 
L 512.365572 270.633136 
L 513.19924 275.861299 
L 514.032909 290.196904 
L 514.866577 286.317827 
L 515.700246 287.329742 
L 516.533914 298.798185 
L 517.367583 296.099609 
L 519.034919 276.873214 
L 519.868588 264.393058 
L 520.702256 261.188524 
L 521.535925 262.369227 
L 522.369593 276.030086 
L 523.203262 275.524129 
L 524.03693 277.042002 
L 524.870599 278.897045 
L 525.704267 280.414919 
L 526.537936 288.341658 
L 527.371604 293.23265 
L 528.205272 268.946678 
L 529.038941 249.888868 
L 529.872609 245.166663 
L 530.706278 250.900784 
L 531.539946 260.176608 
L 532.373615 257.815607 
L 533.207283 263.381142 
L 534.040952 280.583706 
L 534.87462 267.091432 
L 535.708289 256.634904 
L 536.541957 239.43234 
L 537.375625 253.430572 
L 538.209294 243.142832 
L 539.042962 250.057453 
L 539.876631 250.226241 
L 540.710299 248.53958 
L 541.543968 240.781628 
L 542.377636 240.613043 
L 543.211305 233.866805 
L 544.044973 241.793544 
L 544.878642 264.393058 
L 545.71231 262.369227 
L 546.545979 263.212355 
L 547.379647 263.381142 
L 548.213315 260.176608 
L 549.046984 265.910931 
L 549.880652 257.309649 
L 550.714321 253.767945 
L 551.547989 242.636874 
L 553.215326 252.418657 
L 554.048995 273.500298 
L 554.882663 287.667115 
L 556.55 258.152777 
L 557.383668 256.297734 
L 558.217337 261.694482 
L 559.051005 251.069369 
L 559.884674 250.057453 
L 560.718342 255.285818 
L 561.552011 262.200439 
L 562.385679 260.345396 
L 563.219348 263.8871 
L 564.053016 263.04377 
L 564.886685 255.960361 
L 565.720353 253.261987 
L 566.554021 247.696452 
L 567.38769 252.587242 
L 569.055027 259.33348 
L 569.888695 256.466319 
L 570.722364 255.285818 
L 571.556032 263.381142 
L 572.389701 268.103347 
L 573.223369 266.416889 
L 574.057038 262.369227 
L 574.890706 261.188524 
L 575.724374 265.236186 
L 576.558043 262.706397 
L 577.391711 261.863269 
L 579.059048 279.571791 
L 579.892717 279.571791 
L 580.726385 276.873214 
L 581.560054 273.162925 
L 582.393722 267.428804 
L 583.227391 266.079516 
L 584.061059 274.343426 
L 584.894727 276.030086 
L 585.728396 265.910931 
L 586.562064 260.851354 
L 587.395733 269.621221 
L 588.229401 265.236186 
L 589.06307 253.599157 
L 589.896738 255.791776 
L 590.730407 267.260017 
L 591.564075 265.067601 
L 592.397744 261.357311 
L 593.231412 259.164693 
L 594.06508 267.260017 
L 594.898749 265.910931 
L 596.566086 284.799953 
L 597.399754 290.196904 
L 598.233423 291.377404 
L 599.067091 286.99237 
L 599.90076 284.293996 
L 600.734428 280.077748 
L 602.401765 290.871446 
L 603.235434 290.702861 
L 604.069102 282.101579 
L 604.90277 296.436982 
L 605.736439 297.617482 
L 607.403776 276.704629 
L 608.237444 301.159187 
L 609.071113 304.194933 
L 609.904781 296.94294 
L 610.73845 279.740376 
L 611.572118 276.704629 
L 612.405787 282.944707 
L 613.239455 298.460813 
L 614.073123 301.665145 
L 614.906792 302.845848 
L 616.574129 275.186756 
L 617.407797 275.186756 
L 618.241466 283.788038 
L 619.075134 296.099609 
L 619.908803 324.096073 
L 620.742471 330.673524 
L 622.409808 304.194933 
L 623.243476 320.216996 
L 624.077145 319.711039 
L 624.910813 328.649693 
L 625.744482 302.67706 
L 626.57815 294.581736 
L 627.411819 313.47096 
L 628.245487 316.000749 
L 629.079156 302.508475 
L 629.912824 294.244566 
L 630.746493 310.266426 
L 631.580161 314.314089 
L 632.413829 309.591884 
L 633.247498 298.12344 
L 634.081166 289.353573 
L 634.914835 296.94294 
L 635.748503 297.78627 
L 636.582172 300.990602 
L 637.41584 311.615715 
L 638.249509 319.205081 
L 639.083177 343.858986 
L 639.916846 335.901687 
L 640.750514 334.215229 
L 642.417851 338.768848 
L 643.251519 342.310553 
L 644.085188 343.659638 
L 644.918856 351.417792 
L 645.752525 348.382046 
L 646.586193 336.979579 
L 647.419862 335.058357 
L 648.25353 329.492821 
L 649.087199 323.084158 
L 649.920867 310.097841 
L 650.754535 338.768848 
L 651.588204 349.731132 
L 652.421872 343.153681 
L 653.255541 338.431476 
L 654.089209 342.479138 
L 654.922878 338.937434 
L 655.756546 331.179482 
L 656.590215 332.528568 
L 657.423883 336.745017 
L 658.257552 339.443391 
L 659.09122 333.709271 
L 659.924888 351.92375 
L 660.758557 358.501201 
L 661.592225 344.840342 
L 662.425894 349.225174 
L 663.259562 348.213258 
L 664.093231 351.410304 
L 664.926899 347.876088 
L 665.760568 347.876088 
L 666.594236 337.925518 
L 667.427905 316.675292 
L 668.261573 311.953087 
L 669.095242 319.542454 
L 669.92891 356.47737 
L 671.596247 331.010695 
L 672.429915 330.504737 
L 673.263584 320.048411 
L 674.097252 336.745017 
L 674.930921 348.044673 
L 675.764589 348.382046 
L 676.598258 351.249005 
L 678.265595 334.889771 
L 679.099263 328.649693 
L 679.932931 325.107989 
L 680.7666 340.961265 
L 681.600268 341.467222 
L 682.433937 342.141765 
L 683.267605 354.453539 
L 684.101274 358.501201 
L 684.934942 361.441625 
L 685.768611 349.298639 
L 686.602279 359.007159 
L 687.435948 356.81454 
L 688.269616 356.983328 
L 689.103284 356.983328 
L 689.936953 356.47737 
L 690.770621 364.572694 
L 690.770621 364.572694 
" clip-path="url(#p7887dde670)" style="fill: none; stroke: #348abd; stroke-width: 2; stroke-linecap: square"/>
   </g>
   <g id="patch_8">
    <path d="M 51.76375 404.407645 
L 51.76375 225.745812 
" style="fill: none; stroke: #bcbcbc; stroke-width: 0.8; stroke-linejoin: miter; stroke-linecap: square"/>
   </g>
   <g id="patch_9">
    <path d="M 721.19952 404.407645 
L 721.19952 225.745812 
" style="fill: none; stroke: #bcbcbc; stroke-width: 0.8; stroke-linejoin: miter; stroke-linecap: square"/>
   </g>
   <g id="patch_10">
    <path d="M 51.76375 404.407645 
L 721.19952 404.407645 
" style="fill: none; stroke: #bcbcbc; stroke-width: 0.8; stroke-linejoin: miter; stroke-linecap: square"/>
   </g>
   <g id="patch_11">
    <path d="M 51.76375 225.745812 
L 721.19952 225.745812 
" style="fill: none; stroke: #bcbcbc; stroke-width: 0.8; stroke-linejoin: miter; stroke-linecap: square"/>
   </g>
   <g id="text_23">
    <!-- Temperature -->
    <g transform="translate(340.87751 219.745812)scale(0.144 -0.144)">
     <defs>
      <path id="DejaVuSans-54" d="M -19 4666 
L 3928 4666 
L 3928 4134 
L 2272 4134 
L 2272 0 
L 1638 0 
L 1638 4134 
L -19 4134 
L -19 4666 
z
" transform="scale(0.015625)"/>
      <path id="DejaVuSans-72" d="M 2631 2963 
Q 2534 3019 2420 3045 
Q 2306 3072 2169 3072 
Q 1681 3072 1420 2755 
Q 1159 2438 1159 1844 
L 1159 0 
L 581 0 
L 581 3500 
L 1159 3500 
L 1159 2956 
Q 1341 3275 1631 3429 
Q 1922 3584 2338 3584 
Q 2397 3584 2469 3576 
Q 2541 3569 2628 3553 
L 2631 2963 
z
" transform="scale(0.015625)"/>
     </defs>
     <use xlink:href="#DejaVuSans-54"/>
     <use xlink:href="#DejaVuSans-65" x="44.083984"/>
     <use xlink:href="#DejaVuSans-6d" x="105.607422"/>
     <use xlink:href="#DejaVuSans-70" x="203.019531"/>
     <use xlink:href="#DejaVuSans-65" x="266.496094"/>
     <use xlink:href="#DejaVuSans-72" x="328.019531"/>
     <use xlink:href="#DejaVuSans-61" x="369.132812"/>
     <use xlink:href="#DejaVuSans-74" x="430.412109"/>
     <use xlink:href="#DejaVuSans-75" x="469.621094"/>
     <use xlink:href="#DejaVuSans-72" x="533"/>
     <use xlink:href="#DejaVuSans-65" x="571.863281"/>
    </g>
   </g>
  </g>
 </g>
 <defs>
  <clipPath id="pa2da7973e8">
   <rect x="51.76375" y="24.14175" width="669.43577" height="178.661833"/>
  </clipPath>
  <clipPath id="p7887dde670">
   <rect x="51.76375" y="225.745812" width="669.43577" height="178.661833"/>
  </clipPath>
 </defs>
</svg>
