<?xml version="1.0" encoding="UTF-8" standalone="no"?>
<!DOCTYPE svg PUBLIC "-//W3C//DTD SVG 1.1//EN"
 "http://www.w3.org/Graphics/SVG/1.1/DTD/svg11.dtd">
<!-- Generated by graphviz version 8.0.5 (20230430.1635)
 -->
<!-- Pages: 1 -->
<svg width="1006pt" height="385pt"
 viewBox="0.00 0.00 1005.72 384.95" xmlns="http://www.w3.org/2000/svg" xmlns:xlink="http://www.w3.org/1999/xlink">
<g id="graph0" class="graph" transform="scale(1 1) rotate(0) translate(4 380.95)">
<polygon fill="white" stroke="none" points="-4,4 -4,-380.95 1001.72,-380.95 1001.72,4 -4,4"/>
<g id="clust1" class="cluster">
<title>clusterworkingday (2)</title>
<path fill="none" stroke="black" d="M653.72,-247.13C653.72,-247.13 799.72,-247.13 799.72,-247.13 805.72,-247.13 811.72,-253.13 811.72,-259.13 811.72,-259.13 811.72,-356.95 811.72,-356.95 811.72,-362.95 805.72,-368.95 799.72,-368.95 799.72,-368.95 653.72,-368.95 653.72,-368.95 647.72,-368.95 641.72,-362.95 641.72,-356.95 641.72,-356.95 641.72,-259.13 641.72,-259.13 641.72,-253.13 647.72,-247.13 653.72,-247.13"/>
<text text-anchor="middle" x="761.72" y="-254.33" font-family="Times,serif" font-size="14.00">workingday (2)</text>
</g>
<g id="clust2" class="cluster">
<title>clusterweathersit (3)</title>
<path fill="none" stroke="black" d="M831.72,-247.13C831.72,-247.13 977.72,-247.13 977.72,-247.13 983.72,-247.13 989.72,-253.13 989.72,-259.13 989.72,-259.13 989.72,-356.95 989.72,-356.95 989.72,-362.95 983.72,-368.95 977.72,-368.95 977.72,-368.95 831.72,-368.95 831.72,-368.95 825.72,-368.95 819.72,-362.95 819.72,-356.95 819.72,-356.95 819.72,-259.13 819.72,-259.13 819.72,-253.13 825.72,-247.13 831.72,-247.13"/>
<text text-anchor="middle" x="944.22" y="-254.33" font-family="Times,serif" font-size="14.00">weathersit (3)</text>
</g>
<g id="clust3" class="cluster">
<title>clusterdate (731)</title>
<path fill="none" stroke="black" d="M383.72,-8C383.72,-8 475.72,-8 475.72,-8 481.72,-8 487.72,-14 487.72,-20 487.72,-20 487.72,-223.23 487.72,-223.23 487.72,-229.23 481.72,-235.23 475.72,-235.23 475.72,-235.23 383.72,-235.23 383.72,-235.23 377.72,-235.23 371.72,-229.23 371.72,-223.23 371.72,-223.23 371.72,-20 371.72,-20 371.72,-14 377.72,-8 383.72,-8"/>
<text text-anchor="middle" x="451.97" y="-15.2" font-family="Times,serif" font-size="14.00">date (731)</text>
</g>
<!-- intercept -->
<g id="node1" class="node">
<title>intercept</title>
<ellipse fill="none" stroke="black" cx="44.72" cy="-320.29" rx="44.72" ry="40.66"/>
<text text-anchor="middle" x="44.72" y="-331.74" font-family="Times,serif" font-size="14.00">intercept</text>
<text text-anchor="middle" x="44.72" y="-315.24" font-family="Times,serif" font-size="14.00">~</text>
<text text-anchor="middle" x="44.72" y="-298.74" font-family="Times,serif" font-size="14.00">Normal</text>
</g>
<!-- mu -->
<g id="node12" class="node">
<title>mu</title>
<polygon fill="none" stroke="black" points="474.85,-227.23 384.6,-227.23 384.6,-169.73 474.85,-169.73 474.85,-227.23"/>
<text text-anchor="middle" x="429.72" y="-209.93" font-family="Times,serif" font-size="14.00">mu</text>
<text text-anchor="middle" x="429.72" y="-193.43" font-family="Times,serif" font-size="14.00">~</text>
<text text-anchor="middle" x="429.72" y="-176.93" font-family="Times,serif" font-size="14.00">Deterministic</text>
</g>
<!-- intercept&#45;&gt;mu -->
<g id="edge1" class="edge">
<title>intercept&#45;&gt;mu</title>
<path fill="none" stroke="black" d="M63.68,-283.1C72.53,-269.69 84.33,-255.68 98.72,-247.13 144.01,-220.25 291.33,-207.54 373.33,-202.41"/>
<polygon fill="black" stroke="black" points="373.44,-205.85 383.21,-201.75 373.02,-198.86 373.44,-205.85"/>
</g>
<!-- b_t -->
<g id="node2" class="node">
<title>b_t</title>
<ellipse fill="none" stroke="black" cx="148.72" cy="-320.29" rx="41.01" ry="40.66"/>
<text text-anchor="middle" x="148.72" y="-331.74" font-family="Times,serif" font-size="14.00">b_t</text>
<text text-anchor="middle" x="148.72" y="-315.24" font-family="Times,serif" font-size="14.00">~</text>
<text text-anchor="middle" x="148.72" y="-298.74" font-family="Times,serif" font-size="14.00">Normal</text>
</g>
<!-- b_t&#45;&gt;mu -->
<g id="edge2" class="edge">
<title>b_t&#45;&gt;mu</title>
<path fill="none" stroke="black" d="M166.23,-283.18C174.36,-269.95 185.25,-256.04 198.72,-247.13 251.12,-212.49 323.67,-202.25 373.4,-199.61"/>
<polygon fill="black" stroke="black" points="373.44,-203.07 383.28,-199.14 373.13,-196.08 373.44,-203.07"/>
</g>
<!-- b_temp -->
<g id="node3" class="node">
<title>b_temp</title>
<ellipse fill="none" stroke="black" cx="248.72" cy="-320.29" rx="41.01" ry="40.66"/>
<text text-anchor="middle" x="248.72" y="-331.74" font-family="Times,serif" font-size="14.00">b_temp</text>
<text text-anchor="middle" x="248.72" y="-315.24" font-family="Times,serif" font-size="14.00">~</text>
<text text-anchor="middle" x="248.72" y="-298.74" font-family="Times,serif" font-size="14.00">Normal</text>
</g>
<!-- b_temp&#45;&gt;mu -->
<g id="edge3" class="edge">
<title>b_temp&#45;&gt;mu</title>
<path fill="none" stroke="black" d="M267.16,-283.79C275.36,-270.8 286.05,-256.91 298.72,-247.13 320.61,-230.26 349.03,-218.96 373.81,-211.61"/>
<polygon fill="black" stroke="black" points="374.49,-214.77 383.18,-208.7 372.6,-208.04 374.49,-214.77"/>
</g>
<!-- sigma -->
<g id="node4" class="node">
<title>sigma</title>
<ellipse fill="none" stroke="black" cx="553.72" cy="-198.48" rx="57.98" ry="40.66"/>
<text text-anchor="middle" x="553.72" y="-209.93" font-family="Times,serif" font-size="14.00">sigma</text>
<text text-anchor="middle" x="553.72" y="-193.43" font-family="Times,serif" font-size="14.00">~</text>
<text text-anchor="middle" x="553.72" y="-176.93" font-family="Times,serif" font-size="14.00">HalfNormal</text>
</g>
<!-- likelihood -->
<g id="node11" class="node">
<title>likelihood</title>
<ellipse fill="lightgrey" stroke="black" cx="429.72" cy="-81.16" rx="50.03" ry="40.66"/>
<text text-anchor="middle" x="429.72" y="-92.61" font-family="Times,serif" font-size="14.00">likelihood</text>
<text text-anchor="middle" x="429.72" y="-76.11" font-family="Times,serif" font-size="14.00">~</text>
<text text-anchor="middle" x="429.72" y="-59.61" font-family="Times,serif" font-size="14.00">StudentT</text>
</g>
<!-- sigma&#45;&gt;likelihood -->
<g id="edge10" class="edge">
<title>sigma&#45;&gt;likelihood</title>
<path fill="none" stroke="black" d="M519.18,-165.35C504.05,-151.28 486.18,-134.66 470.41,-119.99"/>
<polygon fill="black" stroke="black" points="473.08,-117.77 463.37,-113.52 468.31,-122.9 473.08,-117.77"/>
</g>
<!-- b_windspeed -->
<g id="node5" class="node">
<title>b_windspeed</title>
<ellipse fill="none" stroke="black" cx="369.72" cy="-320.29" rx="61.7" ry="40.66"/>
<text text-anchor="middle" x="369.72" y="-331.74" font-family="Times,serif" font-size="14.00">b_windspeed</text>
<text text-anchor="middle" x="369.72" y="-315.24" font-family="Times,serif" font-size="14.00">~</text>
<text text-anchor="middle" x="369.72" y="-298.74" font-family="Times,serif" font-size="14.00">Normal</text>
</g>
<!-- b_windspeed&#45;&gt;mu -->
<g id="edge4" class="edge">
<title>b_windspeed&#45;&gt;mu</title>
<path fill="none" stroke="black" d="M388.71,-281.38C395.73,-267.37 403.68,-251.49 410.7,-237.47"/>
<polygon fill="black" stroke="black" points="414.27,-239.15 415.62,-228.64 408.01,-236.02 414.27,-239.15"/>
</g>
<!-- b_eoy -->
<g id="node6" class="node">
<title>b_eoy</title>
<ellipse fill="none" stroke="black" cx="490.72" cy="-320.29" rx="41.01" ry="40.66"/>
<text text-anchor="middle" x="490.72" y="-331.74" font-family="Times,serif" font-size="14.00">b_eoy</text>
<text text-anchor="middle" x="490.72" y="-315.24" font-family="Times,serif" font-size="14.00">~</text>
<text text-anchor="middle" x="490.72" y="-298.74" font-family="Times,serif" font-size="14.00">Normal</text>
</g>
<!-- b_eoy&#45;&gt;mu -->
<g id="edge5" class="edge">
<title>b_eoy&#45;&gt;mu</title>
<path fill="none" stroke="black" d="M472.59,-283.67C465.1,-268.96 456.41,-251.89 448.82,-236.99"/>
<polygon fill="black" stroke="black" points="451.67,-235.87 444.02,-228.55 445.44,-239.05 451.67,-235.87"/>
</g>
<!-- nu -->
<g id="node7" class="node">
<title>nu</title>
<ellipse fill="none" stroke="black" cx="672.72" cy="-198.48" rx="42.6" ry="40.66"/>
<text text-anchor="middle" x="672.72" y="-209.93" font-family="Times,serif" font-size="14.00">nu</text>
<text text-anchor="middle" x="672.72" y="-193.43" font-family="Times,serif" font-size="14.00">~</text>
<text text-anchor="middle" x="672.72" y="-176.93" font-family="Times,serif" font-size="14.00">Gamma</text>
</g>
<!-- nu&#45;&gt;likelihood -->
<g id="edge11" class="edge">
<title>nu&#45;&gt;likelihood</title>
<path fill="none" stroke="black" d="M640.94,-171.08C634.47,-166.33 627.54,-161.67 620.72,-157.82 577.83,-133.58 525.6,-113.46 486.61,-100.08"/>
<polygon fill="black" stroke="black" points="488.09,-96.55 477.49,-96.66 485.84,-103.18 488.09,-96.55"/>
</g>
<!-- b_hum -->
<g id="node8" class="node">
<title>b_hum</title>
<ellipse fill="none" stroke="black" cx="590.72" cy="-320.29" rx="41.01" ry="40.66"/>
<text text-anchor="middle" x="590.72" y="-331.74" font-family="Times,serif" font-size="14.00">b_hum</text>
<text text-anchor="middle" x="590.72" y="-315.24" font-family="Times,serif" font-size="14.00">~</text>
<text text-anchor="middle" x="590.72" y="-298.74" font-family="Times,serif" font-size="14.00">Normal</text>
</g>
<!-- b_hum&#45;&gt;mu -->
<g id="edge8" class="edge">
<title>b_hum&#45;&gt;mu</title>
<path fill="none" stroke="black" d="M573.7,-283.16C565.58,-269.76 554.58,-255.74 540.72,-247.13 520.12,-234.33 509.28,-248.08 486.72,-239.13 482.5,-237.46 478.29,-235.42 474.17,-233.16"/>
<polygon fill="black" stroke="black" points="476.16,-229.67 465.78,-227.54 472.56,-235.68 476.16,-229.67"/>
</g>
<!-- b_workingday -->
<g id="node9" class="node">
<title>b_workingday</title>
<ellipse fill="none" stroke="black" cx="726.72" cy="-320.29" rx="77.07" ry="40.66"/>
<text text-anchor="middle" x="726.72" y="-331.74" font-family="Times,serif" font-size="14.00">b_workingday</text>
<text text-anchor="middle" x="726.72" y="-315.24" font-family="Times,serif" font-size="14.00">~</text>
<text text-anchor="middle" x="726.72" y="-298.74" font-family="Times,serif" font-size="14.00">ZeroSumNormal</text>
</g>
<!-- b_workingday&#45;&gt;mu -->
<g id="edge7" class="edge">
<title>b_workingday&#45;&gt;mu</title>
<path fill="none" stroke="black" d="M694.18,-283.32C679.36,-269.41 660.67,-254.99 640.72,-247.13 608.84,-234.58 519.15,-250.24 486.72,-239.13 482.11,-237.55 477.53,-235.48 473.09,-233.11"/>
<polygon fill="black" stroke="black" points="475.02,-229.6 464.63,-227.53 471.46,-235.63 475.02,-229.6"/>
</g>
<!-- b_weathersit -->
<g id="node10" class="node">
<title>b_weathersit</title>
<ellipse fill="none" stroke="black" cx="904.72" cy="-320.29" rx="77.07" ry="40.66"/>
<text text-anchor="middle" x="904.72" y="-331.74" font-family="Times,serif" font-size="14.00">b_weathersit</text>
<text text-anchor="middle" x="904.72" y="-315.24" font-family="Times,serif" font-size="14.00">~</text>
<text text-anchor="middle" x="904.72" y="-298.74" font-family="Times,serif" font-size="14.00">ZeroSumNormal</text>
</g>
<!-- b_weathersit&#45;&gt;mu -->
<g id="edge6" class="edge">
<title>b_weathersit&#45;&gt;mu</title>
<path fill="none" stroke="black" d="M871.35,-283.41C855.93,-269.34 836.44,-254.76 815.72,-247.13 781.41,-234.5 521.48,-250.5 486.72,-239.13 482.09,-237.62 477.49,-235.59 473.04,-233.25"/>
<polygon fill="black" stroke="black" points="474.97,-229.74 464.57,-227.71 471.43,-235.78 474.97,-229.74"/>
</g>
<!-- mu&#45;&gt;likelihood -->
<g id="edge9" class="edge">
<title>mu&#45;&gt;likelihood</title>
<path fill="none" stroke="black" d="M429.72,-169.27C429.72,-158.33 429.72,-145.47 429.72,-133.03"/>
<polygon fill="black" stroke="black" points="433.22,-133.27 429.72,-123.27 426.22,-133.27 433.22,-133.27"/>
</g>
</g>
</svg>
