<?xml version="1.0" encoding="UTF-8" standalone="no"?>
<!DOCTYPE svg PUBLIC "-//W3C//DTD SVG 1.1//EN"
 "http://www.w3.org/Graphics/SVG/1.1/DTD/svg11.dtd">
<!-- Generated by graphviz version 8.0.5 (20230430.1635)
 -->
<!-- Pages: 1 -->
<svg width="1184pt" height="385pt"
 viewBox="0.00 0.00 1184.01 384.95" xmlns="http://www.w3.org/2000/svg" xmlns:xlink="http://www.w3.org/1999/xlink">
<g id="graph0" class="graph" transform="scale(1 1) rotate(0) translate(4 380.95)">
<polygon fill="white" stroke="none" points="-4,4 -4,-380.95 1180.01,-380.95 1180.01,4 -4,4"/>
<g id="clust1" class="cluster">
<title>clusterholiday (2)</title>
<path fill="none" stroke="black" d="M654.01,-247.13C654.01,-247.13 800.01,-247.13 800.01,-247.13 806.01,-247.13 812.01,-253.13 812.01,-259.13 812.01,-259.13 812.01,-356.95 812.01,-356.95 812.01,-362.95 806.01,-368.95 800.01,-368.95 800.01,-368.95 654.01,-368.95 654.01,-368.95 648.01,-368.95 642.01,-362.95 642.01,-356.95 642.01,-356.95 642.01,-259.13 642.01,-259.13 642.01,-253.13 648.01,-247.13 654.01,-247.13"/>
<text text-anchor="middle" x="774.01" y="-254.33" font-family="Times,serif" font-size="14.00">holiday (2)</text>
</g>
<g id="clust2" class="cluster">
<title>clusterworkingday (2)</title>
<path fill="none" stroke="black" d="M832.01,-247.13C832.01,-247.13 978.01,-247.13 978.01,-247.13 984.01,-247.13 990.01,-253.13 990.01,-259.13 990.01,-259.13 990.01,-356.95 990.01,-356.95 990.01,-362.95 984.01,-368.95 978.01,-368.95 978.01,-368.95 832.01,-368.95 832.01,-368.95 826.01,-368.95 820.01,-362.95 820.01,-356.95 820.01,-356.95 820.01,-259.13 820.01,-259.13 820.01,-253.13 826.01,-247.13 832.01,-247.13"/>
<text text-anchor="middle" x="940.01" y="-254.33" font-family="Times,serif" font-size="14.00">workingday (2)</text>
</g>
<g id="clust3" class="cluster">
<title>clusterweathersit (3)</title>
<path fill="none" stroke="black" d="M1010.01,-247.13C1010.01,-247.13 1156.01,-247.13 1156.01,-247.13 1162.01,-247.13 1168.01,-253.13 1168.01,-259.13 1168.01,-259.13 1168.01,-356.95 1168.01,-356.95 1168.01,-362.95 1162.01,-368.95 1156.01,-368.95 1156.01,-368.95 1010.01,-368.95 1010.01,-368.95 1004.01,-368.95 998.01,-362.95 998.01,-356.95 998.01,-356.95 998.01,-259.13 998.01,-259.13 998.01,-253.13 1004.01,-247.13 1010.01,-247.13"/>
<text text-anchor="middle" x="1122.51" y="-254.33" font-family="Times,serif" font-size="14.00">weathersit (3)</text>
</g>
<g id="clust4" class="cluster">
<title>clusterdate (731)</title>
<path fill="none" stroke="black" d="M424.01,-8C424.01,-8 516.01,-8 516.01,-8 522.01,-8 528.01,-14 528.01,-20 528.01,-20 528.01,-223.23 528.01,-223.23 528.01,-229.23 522.01,-235.23 516.01,-235.23 516.01,-235.23 424.01,-235.23 424.01,-235.23 418.01,-235.23 412.01,-229.23 412.01,-223.23 412.01,-223.23 412.01,-20 412.01,-20 412.01,-14 418.01,-8 424.01,-8"/>
<text text-anchor="middle" x="492.26" y="-15.2" font-family="Times,serif" font-size="14.00">date (731)</text>
</g>
<!-- b_eoy -->
<g id="node1" class="node">
<title>b_eoy</title>
<ellipse fill="none" stroke="black" cx="41.01" cy="-320.29" rx="41.01" ry="40.66"/>
<text text-anchor="middle" x="41.01" y="-331.74" font-family="Times,serif" font-size="14.00">b_eoy</text>
<text text-anchor="middle" x="41.01" y="-315.24" font-family="Times,serif" font-size="14.00">~</text>
<text text-anchor="middle" x="41.01" y="-298.74" font-family="Times,serif" font-size="14.00">Normal</text>
</g>
<!-- mu -->
<g id="node12" class="node">
<title>mu</title>
<polygon fill="none" stroke="black" points="515.14,-227.23 424.89,-227.23 424.89,-169.73 515.14,-169.73 515.14,-227.23"/>
<text text-anchor="middle" x="470.01" y="-209.93" font-family="Times,serif" font-size="14.00">mu</text>
<text text-anchor="middle" x="470.01" y="-193.43" font-family="Times,serif" font-size="14.00">~</text>
<text text-anchor="middle" x="470.01" y="-176.93" font-family="Times,serif" font-size="14.00">Deterministic</text>
</g>
<!-- b_eoy&#45;&gt;mu -->
<g id="edge1" class="edge">
<title>b_eoy&#45;&gt;mu</title>
<path fill="none" stroke="black" d="M57.94,-283.01C66.04,-269.58 77.07,-255.59 91.01,-247.13 144.01,-215.01 321.64,-204.39 413.67,-201"/>
<polygon fill="black" stroke="black" points="413.58,-204.47 423.45,-200.62 413.33,-197.47 413.58,-204.47"/>
</g>
<!-- nu -->
<g id="node2" class="node">
<title>nu</title>
<ellipse fill="none" stroke="black" cx="579.01" cy="-198.48" rx="42.6" ry="40.66"/>
<text text-anchor="middle" x="579.01" y="-209.93" font-family="Times,serif" font-size="14.00">nu</text>
<text text-anchor="middle" x="579.01" y="-193.43" font-family="Times,serif" font-size="14.00">~</text>
<text text-anchor="middle" x="579.01" y="-176.93" font-family="Times,serif" font-size="14.00">Gamma</text>
</g>
<!-- likelihood -->
<g id="node13" class="node">
<title>likelihood</title>
<ellipse fill="lightgrey" stroke="black" cx="470.01" cy="-81.16" rx="50.03" ry="40.66"/>
<text text-anchor="middle" x="470.01" y="-92.61" font-family="Times,serif" font-size="14.00">likelihood</text>
<text text-anchor="middle" x="470.01" y="-76.11" font-family="Times,serif" font-size="14.00">~</text>
<text text-anchor="middle" x="470.01" y="-59.61" font-family="Times,serif" font-size="14.00">StudentT</text>
</g>
<!-- nu&#45;&gt;likelihood -->
<g id="edge12" class="edge">
<title>nu&#45;&gt;likelihood</title>
<path fill="none" stroke="black" d="M550.66,-167.48C537.44,-153.5 521.54,-136.68 507.37,-121.68"/>
<polygon fill="black" stroke="black" points="510.54,-119.89 501.13,-115.02 505.46,-124.7 510.54,-119.89"/>
</g>
<!-- b_temp -->
<g id="node3" class="node">
<title>b_temp</title>
<ellipse fill="none" stroke="black" cx="141.01" cy="-320.29" rx="41.01" ry="40.66"/>
<text text-anchor="middle" x="141.01" y="-331.74" font-family="Times,serif" font-size="14.00">b_temp</text>
<text text-anchor="middle" x="141.01" y="-315.24" font-family="Times,serif" font-size="14.00">~</text>
<text text-anchor="middle" x="141.01" y="-298.74" font-family="Times,serif" font-size="14.00">Normal</text>
</g>
<!-- b_temp&#45;&gt;mu -->
<g id="edge4" class="edge">
<title>b_temp&#45;&gt;mu</title>
<path fill="none" stroke="black" d="M158.36,-282.94C166.47,-269.67 177.38,-255.81 191.01,-247.13 227.06,-224.18 342.93,-210.42 413.51,-203.95"/>
<polygon fill="black" stroke="black" points="413.78,-207.35 423.42,-202.98 413.15,-200.38 413.78,-207.35"/>
</g>
<!-- intercept -->
<g id="node4" class="node">
<title>intercept</title>
<ellipse fill="none" stroke="black" cx="245.01" cy="-320.29" rx="44.72" ry="40.66"/>
<text text-anchor="middle" x="245.01" y="-331.74" font-family="Times,serif" font-size="14.00">intercept</text>
<text text-anchor="middle" x="245.01" y="-315.24" font-family="Times,serif" font-size="14.00">~</text>
<text text-anchor="middle" x="245.01" y="-298.74" font-family="Times,serif" font-size="14.00">Normal</text>
</g>
<!-- intercept&#45;&gt;mu -->
<g id="edge5" class="edge">
<title>intercept&#45;&gt;mu</title>
<path fill="none" stroke="black" d="M264.81,-283.65C273.71,-270.48 285.32,-256.5 299.01,-247.13 333.13,-223.79 378.43,-211.83 413.84,-205.72"/>
<polygon fill="black" stroke="black" points="414.17,-209.06 423.49,-204.01 413.06,-202.14 414.17,-209.06"/>
</g>
<!-- b_t -->
<g id="node5" class="node">
<title>b_t</title>
<ellipse fill="none" stroke="black" cx="349.01" cy="-320.29" rx="41.01" ry="40.66"/>
<text text-anchor="middle" x="349.01" y="-331.74" font-family="Times,serif" font-size="14.00">b_t</text>
<text text-anchor="middle" x="349.01" y="-315.24" font-family="Times,serif" font-size="14.00">~</text>
<text text-anchor="middle" x="349.01" y="-298.74" font-family="Times,serif" font-size="14.00">Normal</text>
</g>
<!-- b_t&#45;&gt;mu -->
<g id="edge6" class="edge">
<title>b_t&#45;&gt;mu</title>
<path fill="none" stroke="black" d="M369.26,-284.58C377.55,-271.99 387.83,-258.15 399.01,-247.13 404.13,-242.09 409.85,-237.26 415.75,-232.73"/>
<polygon fill="black" stroke="black" points="417.5,-235.05 423.5,-226.32 413.37,-229.4 417.5,-235.05"/>
</g>
<!-- sigma -->
<g id="node6" class="node">
<title>sigma</title>
<ellipse fill="none" stroke="black" cx="698.01" cy="-198.48" rx="57.98" ry="40.66"/>
<text text-anchor="middle" x="698.01" y="-209.93" font-family="Times,serif" font-size="14.00">sigma</text>
<text text-anchor="middle" x="698.01" y="-193.43" font-family="Times,serif" font-size="14.00">~</text>
<text text-anchor="middle" x="698.01" y="-176.93" font-family="Times,serif" font-size="14.00">HalfNormal</text>
</g>
<!-- sigma&#45;&gt;likelihood -->
<g id="edge11" class="edge">
<title>sigma&#45;&gt;likelihood</title>
<path fill="none" stroke="black" d="M654.74,-171.05C646.92,-166.51 638.78,-161.93 631.01,-157.82 595.92,-139.24 555.46,-120.23 523.88,-105.92"/>
<polygon fill="black" stroke="black" points="525.51,-102.37 514.96,-101.44 522.63,-108.75 525.51,-102.37"/>
</g>
<!-- b_windspeed -->
<g id="node7" class="node">
<title>b_windspeed</title>
<ellipse fill="none" stroke="black" cx="470.01" cy="-320.29" rx="61.7" ry="40.66"/>
<text text-anchor="middle" x="470.01" y="-331.74" font-family="Times,serif" font-size="14.00">b_windspeed</text>
<text text-anchor="middle" x="470.01" y="-315.24" font-family="Times,serif" font-size="14.00">~</text>
<text text-anchor="middle" x="470.01" y="-298.74" font-family="Times,serif" font-size="14.00">Normal</text>
</g>
<!-- b_windspeed&#45;&gt;mu -->
<g id="edge8" class="edge">
<title>b_windspeed&#45;&gt;mu</title>
<path fill="none" stroke="black" d="M470.01,-279.4C470.01,-266.1 470.01,-251.32 470.01,-238.12"/>
<polygon fill="black" stroke="black" points="473.51,-238.47 470.01,-228.47 466.51,-238.47 473.51,-238.47"/>
</g>
<!-- b_hum -->
<g id="node8" class="node">
<title>b_hum</title>
<ellipse fill="none" stroke="black" cx="591.01" cy="-320.29" rx="41.01" ry="40.66"/>
<text text-anchor="middle" x="591.01" y="-331.74" font-family="Times,serif" font-size="14.00">b_hum</text>
<text text-anchor="middle" x="591.01" y="-315.24" font-family="Times,serif" font-size="14.00">~</text>
<text text-anchor="middle" x="591.01" y="-298.74" font-family="Times,serif" font-size="14.00">Normal</text>
</g>
<!-- b_hum&#45;&gt;mu -->
<g id="edge9" class="edge">
<title>b_hum&#45;&gt;mu</title>
<path fill="none" stroke="black" d="M571.18,-284.15C562.94,-271.5 552.58,-257.74 541.01,-247.13 535.73,-242.29 533.07,-242.96 527.01,-239.13 524.25,-237.39 521.43,-235.57 518.6,-233.7"/>
<polygon fill="black" stroke="black" points="520.83,-230.32 510.57,-227.67 516.94,-236.14 520.83,-230.32"/>
</g>
<!-- b_holiday -->
<g id="node9" class="node">
<title>b_holiday</title>
<ellipse fill="none" stroke="black" cx="727.01" cy="-320.29" rx="77.07" ry="40.66"/>
<text text-anchor="middle" x="727.01" y="-331.74" font-family="Times,serif" font-size="14.00">b_holiday</text>
<text text-anchor="middle" x="727.01" y="-315.24" font-family="Times,serif" font-size="14.00">~</text>
<text text-anchor="middle" x="727.01" y="-298.74" font-family="Times,serif" font-size="14.00">ZeroSumNormal</text>
</g>
<!-- b_holiday&#45;&gt;mu -->
<g id="edge2" class="edge">
<title>b_holiday&#45;&gt;mu</title>
<path fill="none" stroke="black" d="M693.99,-283.11C679.22,-269.36 660.71,-255.09 641.01,-247.13 593.92,-228.1 574.91,-256.02 527.01,-239.13 522.48,-237.54 517.97,-235.47 513.6,-233.13"/>
<polygon fill="black" stroke="black" points="515.65,-229.69 505.26,-227.62 512.09,-235.72 515.65,-229.69"/>
</g>
<!-- b_workingday -->
<g id="node10" class="node">
<title>b_workingday</title>
<ellipse fill="none" stroke="black" cx="905.01" cy="-320.29" rx="77.07" ry="40.66"/>
<text text-anchor="middle" x="905.01" y="-331.74" font-family="Times,serif" font-size="14.00">b_workingday</text>
<text text-anchor="middle" x="905.01" y="-315.24" font-family="Times,serif" font-size="14.00">~</text>
<text text-anchor="middle" x="905.01" y="-298.74" font-family="Times,serif" font-size="14.00">ZeroSumNormal</text>
</g>
<!-- b_workingday&#45;&gt;mu -->
<g id="edge3" class="edge">
<title>b_workingday&#45;&gt;mu</title>
<path fill="none" stroke="black" d="M871.63,-283.44C856.2,-269.38 836.72,-254.8 816.01,-247.13 755.76,-224.83 588.04,-259.21 527.01,-239.13 522.38,-237.61 517.78,-235.58 513.33,-233.23"/>
<polygon fill="black" stroke="black" points="515.26,-229.72 504.86,-227.68 511.72,-235.76 515.26,-229.72"/>
</g>
<!-- b_weathersit -->
<g id="node11" class="node">
<title>b_weathersit</title>
<ellipse fill="none" stroke="black" cx="1083.01" cy="-320.29" rx="77.07" ry="40.66"/>
<text text-anchor="middle" x="1083.01" y="-331.74" font-family="Times,serif" font-size="14.00">b_weathersit</text>
<text text-anchor="middle" x="1083.01" y="-315.24" font-family="Times,serif" font-size="14.00">~</text>
<text text-anchor="middle" x="1083.01" y="-298.74" font-family="Times,serif" font-size="14.00">ZeroSumNormal</text>
</g>
<!-- b_weathersit&#45;&gt;mu -->
<g id="edge7" class="edge">
<title>b_weathersit&#45;&gt;mu</title>
<path fill="none" stroke="black" d="M1049.67,-283.34C1034.25,-269.26 1014.76,-254.69 994.01,-247.13 945.25,-229.38 576.4,-255.09 527.01,-239.13 522.18,-237.57 517.39,-235.45 512.76,-232.99"/>
<polygon fill="black" stroke="black" points="514.92,-229.61 504.53,-227.55 511.37,-235.64 514.92,-229.61"/>
</g>
<!-- mu&#45;&gt;likelihood -->
<g id="edge10" class="edge">
<title>mu&#45;&gt;likelihood</title>
<path fill="none" stroke="black" d="M470.01,-169.27C470.01,-158.33 470.01,-145.47 470.01,-133.03"/>
<polygon fill="black" stroke="black" points="473.51,-133.27 470.01,-123.27 466.51,-133.27 473.51,-133.27"/>
</g>
</g>
</svg>
