<?xml version="1.0" encoding="UTF-8" standalone="no"?>
<!DOCTYPE svg PUBLIC "-//W3C//DTD SVG 1.1//EN"
 "http://www.w3.org/Graphics/SVG/1.1/DTD/svg11.dtd">
<!-- Generated by graphviz version 8.0.5 (20230430.1635)
 -->
<!-- Pages: 1 -->
<svg width="946pt" height="486pt"
 viewBox="0.00 0.00 946.01 486.27" xmlns="http://www.w3.org/2000/svg" xmlns:xlink="http://www.w3.org/1999/xlink">
<g id="graph0" class="graph" transform="scale(1 1) rotate(0) translate(4 482.27)">
<polygon fill="white" stroke="none" points="-4,4 -4,-482.27 942.01,-482.27 942.01,4 -4,4"/>
<g id="clust1" class="cluster">
<title>clusterworkingday (2)</title>
<path fill="none" stroke="black" d="M594.01,-247.13C594.01,-247.13 740.01,-247.13 740.01,-247.13 746.01,-247.13 752.01,-253.13 752.01,-259.13 752.01,-259.13 752.01,-356.95 752.01,-356.95 752.01,-362.95 746.01,-368.95 740.01,-368.95 740.01,-368.95 594.01,-368.95 594.01,-368.95 588.01,-368.95 582.01,-362.95 582.01,-356.95 582.01,-356.95 582.01,-259.13 582.01,-259.13 582.01,-253.13 588.01,-247.13 594.01,-247.13"/>
<text text-anchor="middle" x="702.01" y="-254.33" font-family="Times,serif" font-size="14.00">workingday (2)</text>
</g>
<g id="clust2" class="cluster">
<title>clusterweathersit (3)</title>
<path fill="none" stroke="black" d="M772.01,-247.13C772.01,-247.13 918.01,-247.13 918.01,-247.13 924.01,-247.13 930.01,-253.13 930.01,-259.13 930.01,-259.13 930.01,-356.95 930.01,-356.95 930.01,-362.95 924.01,-368.95 918.01,-368.95 918.01,-368.95 772.01,-368.95 772.01,-368.95 766.01,-368.95 760.01,-362.95 760.01,-356.95 760.01,-356.95 760.01,-259.13 760.01,-259.13 760.01,-253.13 766.01,-247.13 772.01,-247.13"/>
<text text-anchor="middle" x="884.51" y="-254.33" font-family="Times,serif" font-size="14.00">weathersit (3)</text>
</g>
<g id="clust3" class="cluster">
<title>clusterdate (731)</title>
<path fill="none" stroke="black" d="M104.01,-8C104.01,-8 226.01,-8 226.01,-8 232.01,-8 238.01,-14 238.01,-20 238.01,-20 238.01,-356.95 238.01,-356.95 238.01,-362.95 232.01,-368.95 226.01,-368.95 226.01,-368.95 104.01,-368.95 104.01,-368.95 98.01,-368.95 92.01,-362.95 92.01,-356.95 92.01,-356.95 92.01,-20 92.01,-20 92.01,-14 98.01,-8 104.01,-8"/>
<text text-anchor="middle" x="202.26" y="-15.2" font-family="Times,serif" font-size="14.00">date (731)</text>
</g>
<!-- b_t -->
<g id="node1" class="node">
<title>b_t</title>
<ellipse fill="none" stroke="black" cx="41.01" cy="-320.29" rx="41.01" ry="40.66"/>
<text text-anchor="middle" x="41.01" y="-331.74" font-family="Times,serif" font-size="14.00">b_t</text>
<text text-anchor="middle" x="41.01" y="-315.24" font-family="Times,serif" font-size="14.00">~</text>
<text text-anchor="middle" x="41.01" y="-298.74" font-family="Times,serif" font-size="14.00">Normal</text>
</g>
<!-- mu -->
<g id="node11" class="node">
<title>mu</title>
<polygon fill="none" stroke="black" points="229.14,-227.23 138.89,-227.23 138.89,-169.73 229.14,-169.73 229.14,-227.23"/>
<text text-anchor="middle" x="184.01" y="-209.93" font-family="Times,serif" font-size="14.00">mu</text>
<text text-anchor="middle" x="184.01" y="-193.43" font-family="Times,serif" font-size="14.00">~</text>
<text text-anchor="middle" x="184.01" y="-176.93" font-family="Times,serif" font-size="14.00">Deterministic</text>
</g>
<!-- b_t&#45;&gt;mu -->
<g id="edge3" class="edge">
<title>b_t&#45;&gt;mu</title>
<path fill="none" stroke="black" d="M59.21,-283.38C66.84,-270.79 76.62,-257.27 88.01,-247.13 99.87,-236.58 114.49,-227.77 128.71,-220.71"/>
<polygon fill="black" stroke="black" points="129.91,-223.54 137.45,-216.1 126.91,-217.21 129.91,-223.54"/>
</g>
<!-- sigma_slope -->
<g id="node2" class="node">
<title>sigma_slope</title>
<ellipse fill="none" stroke="black" cx="165.01" cy="-437.61" rx="59.57" ry="40.66"/>
<text text-anchor="middle" x="165.01" y="-449.06" font-family="Times,serif" font-size="14.00">sigma_slope</text>
<text text-anchor="middle" x="165.01" y="-432.56" font-family="Times,serif" font-size="14.00">~</text>
<text text-anchor="middle" x="165.01" y="-416.06" font-family="Times,serif" font-size="14.00">Exponential</text>
</g>
<!-- slopes -->
<g id="node12" class="node">
<title>slopes</title>
<ellipse fill="none" stroke="black" cx="165.01" cy="-320.29" rx="64.88" ry="40.66"/>
<text text-anchor="middle" x="165.01" y="-331.74" font-family="Times,serif" font-size="14.00">slopes</text>
<text text-anchor="middle" x="165.01" y="-315.24" font-family="Times,serif" font-size="14.00">~</text>
<text text-anchor="middle" x="165.01" y="-298.74" font-family="Times,serif" font-size="14.00">RandomWalk</text>
</g>
<!-- sigma_slope&#45;&gt;slopes -->
<g id="edge1" class="edge">
<title>sigma_slope&#45;&gt;slopes</title>
<path fill="none" stroke="black" d="M165.01,-396.6C165.01,-388.73 165.01,-380.37 165.01,-372.2"/>
<polygon fill="black" stroke="black" points="168.51,-372.23 165.01,-362.23 161.51,-372.23 168.51,-372.23"/>
</g>
<!-- sigma -->
<g id="node3" class="node">
<title>sigma</title>
<ellipse fill="none" stroke="black" cx="305.01" cy="-198.48" rx="57.98" ry="40.66"/>
<text text-anchor="middle" x="305.01" y="-209.93" font-family="Times,serif" font-size="14.00">sigma</text>
<text text-anchor="middle" x="305.01" y="-193.43" font-family="Times,serif" font-size="14.00">~</text>
<text text-anchor="middle" x="305.01" y="-176.93" font-family="Times,serif" font-size="14.00">HalfNormal</text>
</g>
<!-- likelihood -->
<g id="node10" class="node">
<title>likelihood</title>
<ellipse fill="lightgrey" stroke="black" cx="180.01" cy="-81.16" rx="50.03" ry="40.66"/>
<text text-anchor="middle" x="180.01" y="-92.61" font-family="Times,serif" font-size="14.00">likelihood</text>
<text text-anchor="middle" x="180.01" y="-76.11" font-family="Times,serif" font-size="14.00">~</text>
<text text-anchor="middle" x="180.01" y="-59.61" font-family="Times,serif" font-size="14.00">StudentT</text>
</g>
<!-- sigma&#45;&gt;likelihood -->
<g id="edge10" class="edge">
<title>sigma&#45;&gt;likelihood</title>
<path fill="none" stroke="black" d="M270.52,-165.66C255,-151.34 236.57,-134.33 220.4,-119.42"/>
<polygon fill="black" stroke="black" points="223.39,-117.49 213.67,-113.28 218.64,-122.64 223.39,-117.49"/>
</g>
<!-- b_windspeed -->
<g id="node4" class="node">
<title>b_windspeed</title>
<ellipse fill="none" stroke="black" cx="310.01" cy="-320.29" rx="61.7" ry="40.66"/>
<text text-anchor="middle" x="310.01" y="-331.74" font-family="Times,serif" font-size="14.00">b_windspeed</text>
<text text-anchor="middle" x="310.01" y="-315.24" font-family="Times,serif" font-size="14.00">~</text>
<text text-anchor="middle" x="310.01" y="-298.74" font-family="Times,serif" font-size="14.00">Normal</text>
</g>
<!-- b_windspeed&#45;&gt;mu -->
<g id="edge7" class="edge">
<title>b_windspeed&#45;&gt;mu</title>
<path fill="none" stroke="black" d="M279.05,-284.66C267.72,-272.47 254.59,-258.89 242.01,-247.13 237.5,-242.92 232.67,-238.63 227.79,-234.44"/>
<polygon fill="black" stroke="black" points="230.49,-231.29 220.59,-227.51 225.97,-236.63 230.49,-231.29"/>
</g>
<!-- b_eoy -->
<g id="node5" class="node">
<title>b_eoy</title>
<ellipse fill="none" stroke="black" cx="431.01" cy="-320.29" rx="41.01" ry="40.66"/>
<text text-anchor="middle" x="431.01" y="-331.74" font-family="Times,serif" font-size="14.00">b_eoy</text>
<text text-anchor="middle" x="431.01" y="-315.24" font-family="Times,serif" font-size="14.00">~</text>
<text text-anchor="middle" x="431.01" y="-298.74" font-family="Times,serif" font-size="14.00">Normal</text>
</g>
<!-- b_eoy&#45;&gt;mu -->
<g id="edge2" class="edge">
<title>b_eoy&#45;&gt;mu</title>
<path fill="none" stroke="black" d="M414.6,-282.89C406.52,-269.27 395.37,-255.18 381.01,-247.13 353.24,-231.59 267.97,-249.89 238.01,-239.13 233.76,-237.61 229.56,-235.63 225.49,-233.38"/>
<polygon fill="black" stroke="black" points="227.62,-229.97 217.27,-227.7 223.95,-235.93 227.62,-229.97"/>
</g>
<!-- nu -->
<g id="node6" class="node">
<title>nu</title>
<ellipse fill="none" stroke="black" cx="424.01" cy="-198.48" rx="42.6" ry="40.66"/>
<text text-anchor="middle" x="424.01" y="-209.93" font-family="Times,serif" font-size="14.00">nu</text>
<text text-anchor="middle" x="424.01" y="-193.43" font-family="Times,serif" font-size="14.00">~</text>
<text text-anchor="middle" x="424.01" y="-176.93" font-family="Times,serif" font-size="14.00">Gamma</text>
</g>
<!-- nu&#45;&gt;likelihood -->
<g id="edge11" class="edge">
<title>nu&#45;&gt;likelihood</title>
<path fill="none" stroke="black" d="M392.23,-171.07C385.76,-166.32 378.84,-161.67 372.01,-157.82 328.75,-133.42 276.05,-113.26 236.81,-99.91"/>
<polygon fill="black" stroke="black" points="238.23,-96.35 227.63,-96.49 236,-102.99 238.23,-96.35"/>
</g>
<!-- b_hum -->
<g id="node7" class="node">
<title>b_hum</title>
<ellipse fill="none" stroke="black" cx="531.01" cy="-320.29" rx="41.01" ry="40.66"/>
<text text-anchor="middle" x="531.01" y="-331.74" font-family="Times,serif" font-size="14.00">b_hum</text>
<text text-anchor="middle" x="531.01" y="-315.24" font-family="Times,serif" font-size="14.00">~</text>
<text text-anchor="middle" x="531.01" y="-298.74" font-family="Times,serif" font-size="14.00">Normal</text>
</g>
<!-- b_hum&#45;&gt;mu -->
<g id="edge8" class="edge">
<title>b_hum&#45;&gt;mu</title>
<path fill="none" stroke="black" d="M514.69,-282.72C506.62,-269.08 495.47,-255.01 481.01,-247.13 457.29,-234.21 263.54,-247.97 238.01,-239.13 233.68,-237.64 229.41,-235.66 225.28,-233.39"/>
<polygon fill="black" stroke="black" points="227.27,-229.9 216.92,-227.64 223.61,-235.86 227.27,-229.9"/>
</g>
<!-- b_workingday -->
<g id="node8" class="node">
<title>b_workingday</title>
<ellipse fill="none" stroke="black" cx="667.01" cy="-320.29" rx="77.07" ry="40.66"/>
<text text-anchor="middle" x="667.01" y="-331.74" font-family="Times,serif" font-size="14.00">b_workingday</text>
<text text-anchor="middle" x="667.01" y="-315.24" font-family="Times,serif" font-size="14.00">~</text>
<text text-anchor="middle" x="667.01" y="-298.74" font-family="Times,serif" font-size="14.00">ZeroSumNormal</text>
</g>
<!-- b_workingday&#45;&gt;mu -->
<g id="edge6" class="edge">
<title>b_workingday&#45;&gt;mu</title>
<path fill="none" stroke="black" d="M634.57,-283.04C619.77,-269.09 601.07,-254.7 581.01,-247.13 545.34,-233.68 274.1,-251.43 238.01,-239.13 233.68,-237.66 229.4,-235.7 225.26,-233.44"/>
<polygon fill="black" stroke="black" points="227.26,-229.94 216.9,-227.7 223.6,-235.91 227.26,-229.94"/>
</g>
<!-- b_weathersit -->
<g id="node9" class="node">
<title>b_weathersit</title>
<ellipse fill="none" stroke="black" cx="845.01" cy="-320.29" rx="77.07" ry="40.66"/>
<text text-anchor="middle" x="845.01" y="-331.74" font-family="Times,serif" font-size="14.00">b_weathersit</text>
<text text-anchor="middle" x="845.01" y="-315.24" font-family="Times,serif" font-size="14.00">~</text>
<text text-anchor="middle" x="845.01" y="-298.74" font-family="Times,serif" font-size="14.00">ZeroSumNormal</text>
</g>
<!-- b_weathersit&#45;&gt;mu -->
<g id="edge4" class="edge">
<title>b_weathersit&#45;&gt;mu</title>
<path fill="none" stroke="black" d="M811.67,-283.32C796.25,-269.24 776.77,-254.67 756.01,-247.13 701.91,-227.49 292.57,-257.48 238.01,-239.13 233.49,-237.61 229.02,-235.56 224.72,-233.18"/>
<polygon fill="black" stroke="black" points="226.94,-229.82 216.59,-227.55 223.26,-235.78 226.94,-229.82"/>
</g>
<!-- mu&#45;&gt;likelihood -->
<g id="edge9" class="edge">
<title>mu&#45;&gt;likelihood</title>
<path fill="none" stroke="black" d="M183.03,-169.27C182.65,-158.33 182.21,-145.47 181.78,-133.03"/>
<polygon fill="black" stroke="black" points="185.25,-133.14 181.4,-123.27 178.25,-133.39 185.25,-133.14"/>
</g>
<!-- slopes&#45;&gt;mu -->
<g id="edge5" class="edge">
<title>slopes&#45;&gt;mu</title>
<path fill="none" stroke="black" d="M171.34,-279.4C173.45,-266.1 175.79,-251.32 177.88,-238.12"/>
<polygon fill="black" stroke="black" points="181.46,-238.9 179.57,-228.47 174.55,-237.8 181.46,-238.9"/>
</g>
</g>
</svg>
