<?xml version="1.0" encoding="UTF-8" standalone="no"?>
<!DOCTYPE svg PUBLIC "-//W3C//DTD SVG 1.1//EN"
 "http://www.w3.org/Graphics/SVG/1.1/DTD/svg11.dtd">
<!-- Generated by graphviz version 12.0.0 (0)
 -->
<!-- Pages: 1 -->
<svg width="694pt" height="385pt"
 viewBox="0.00 0.00 693.75 385.00" xmlns="http://www.w3.org/2000/svg" xmlns:xlink="http://www.w3.org/1999/xlink">
<g id="graph0" class="graph" transform="scale(1 1) rotate(0) translate(4 381)">
<polygon fill="white" stroke="none" points="-4,4 -4,-381 689.75,-381 689.75,4 -4,4"/>
<g id="clust1" class="cluster">
<title>cluster_time</title>
<polygon fill="none" stroke="black" points="308,-44 308,-192.5 466,-192.5 466,-44 308,-44"/>
<text text-anchor="middle" x="445.62" y="-51.2" font-family="Times,serif" font-size="14.00">time</text>
</g>
<!-- bias -->
<g id="node1" class="node">
<title>bias</title>
<ellipse fill="white" stroke="black" cx="27" cy="-94.5" rx="27" ry="18"/>
<text text-anchor="middle" x="27" y="-89.45" font-family="Times,serif" font-size="14.00">bias</text>
</g>
<!-- obs -->
<g id="node7" class="node">
<title>obs</title>
<ellipse fill="grey" stroke="black" cx="189" cy="-18" rx="27" ry="18"/>
<text text-anchor="middle" x="189" y="-12.95" font-family="Times,serif" font-size="14.00">obs</text>
</g>
<!-- bias&#45;&gt;obs -->
<g id="edge6" class="edge">
<title>bias&#45;&gt;obs</title>
<path fill="none" stroke="black" d="M34.76,-77.16C40.88,-66.07 50.47,-52.01 63,-44 88.99,-27.38 123.68,-21.42 150.08,-19.46"/>
<polygon fill="black" stroke="black" points="150.26,-22.95 160.05,-18.9 149.87,-15.96 150.26,-22.95"/>
</g>
<!-- weight -->
<g id="node2" class="node">
<title>weight</title>
<ellipse fill="white" stroke="black" cx="108" cy="-94.5" rx="36" ry="18"/>
<text text-anchor="middle" x="108" y="-89.45" font-family="Times,serif" font-size="14.00">weight</text>
</g>
<!-- weight&#45;&gt;obs -->
<g id="edge7" class="edge">
<title>weight&#45;&gt;obs</title>
<path fill="none" stroke="black" d="M120.95,-77.48C129.52,-67.34 141.3,-54.26 153,-44 155.47,-41.84 158.12,-39.69 160.84,-37.62"/>
<polygon fill="black" stroke="black" points="162.8,-40.53 168.86,-31.84 158.7,-34.85 162.8,-40.53"/>
</g>
<!-- drift_scale -->
<g id="node3" class="node">
<title>drift_scale</title>
<ellipse fill="white" stroke="black" cx="332" cy="-298.75" rx="49.82" ry="18"/>
<text text-anchor="middle" x="332" y="-293.7" font-family="Times,serif" font-size="14.00">drift_scale</text>
</g>
<!-- drift_decentered -->
<g id="node8" class="node">
<title>drift_decentered</title>
<ellipse fill="white" stroke="black" cx="387" cy="-166.5" rx="71.31" ry="18"/>
<text text-anchor="middle" x="387" y="-161.45" font-family="Times,serif" font-size="14.00">drift_decentered</text>
</g>
<!-- drift_scale&#45;&gt;drift_decentered -->
<g id="edge1" class="edge">
<title>drift_scale&#45;&gt;drift_decentered</title>
<path fill="none" stroke="black" d="M339.3,-280.45C348.47,-258.75 364.3,-221.26 375.19,-195.46"/>
<polygon fill="black" stroke="black" points="378.41,-196.84 379.08,-186.26 371.96,-194.11 378.41,-196.84"/>
</g>
<!-- drift -->
<g id="node9" class="node">
<title>drift</title>
<ellipse fill="white" stroke="black" stroke-dasharray="5,2" cx="366" cy="-94.5" rx="27" ry="18"/>
<text text-anchor="middle" x="366" y="-89.45" font-family="Times,serif" font-size="14.00">drift</text>
</g>
<!-- drift_scale&#45;&gt;drift -->
<g id="edge3" class="edge">
<title>drift_scale&#45;&gt;drift</title>
<path fill="none" stroke="black" d="M323.17,-280.85C309.55,-252.33 286.99,-193.37 307,-148.5 313.28,-134.41 325.37,-122.5 336.97,-113.56"/>
<polygon fill="black" stroke="black" points="338.74,-116.6 344.83,-107.93 334.66,-110.91 338.74,-116.6"/>
</g>
<!-- nu -->
<g id="node4" class="node">
<title>nu</title>
<ellipse fill="white" stroke="black" cx="189" cy="-94.5" rx="27" ry="18"/>
<text text-anchor="middle" x="189" y="-89.45" font-family="Times,serif" font-size="14.00">nu</text>
</g>
<!-- nu&#45;&gt;obs -->
<g id="edge8" class="edge">
<title>nu&#45;&gt;obs</title>
<path fill="none" stroke="black" d="M189,-76.22C189,-67.82 189,-57.49 189,-47.93"/>
<polygon fill="black" stroke="black" points="192.5,-47.96 189,-37.96 185.5,-47.96 192.5,-47.96"/>
</g>
<!-- sigma -->
<g id="node5" class="node">
<title>sigma</title>
<ellipse fill="white" stroke="black" cx="267" cy="-94.5" rx="33.44" ry="18"/>
<text text-anchor="middle" x="267" y="-89.45" font-family="Times,serif" font-size="14.00">sigma</text>
</g>
<!-- sigma&#45;&gt;obs -->
<g id="edge9" class="edge">
<title>sigma&#45;&gt;obs</title>
<path fill="none" stroke="black" d="M255.09,-77.41C247.17,-67.24 236.18,-54.15 225,-44 222.7,-41.91 220.22,-39.86 217.68,-37.88"/>
<polygon fill="black" stroke="black" points="219.75,-35.05 209.61,-31.99 215.62,-40.71 219.75,-35.05"/>
</g>
<!-- centered -->
<g id="node6" class="node">
<title>centered</title>
<ellipse fill="white" stroke="black" cx="464" cy="-298.75" rx="42.14" ry="18"/>
<text text-anchor="middle" x="464" y="-293.7" font-family="Times,serif" font-size="14.00">centered</text>
</g>
<!-- centered&#45;&gt;drift_decentered -->
<g id="edge2" class="edge">
<title>centered&#45;&gt;drift_decentered</title>
<path fill="none" stroke="black" d="M454.09,-280.99C441.11,-259.03 418.2,-220.27 402.81,-194.24"/>
<polygon fill="black" stroke="black" points="405.99,-192.74 397.89,-185.91 399.96,-196.3 405.99,-192.74"/>
</g>
<!-- centered&#45;&gt;drift -->
<g id="edge4" class="edge">
<title>centered&#45;&gt;drift</title>
<path fill="none" stroke="black" d="M469.86,-280.58C478.77,-251.14 492.21,-190.2 467,-148.5 453,-125.34 425.17,-111.81 402.26,-104.22"/>
<polygon fill="black" stroke="black" points="403.53,-100.95 392.95,-101.4 401.5,-107.65 403.53,-100.95"/>
</g>
<!-- drift_decentered&#45;&gt;drift -->
<g id="edge5" class="edge">
<title>drift_decentered&#45;&gt;drift</title>
<path fill="none" stroke="black" d="M381.81,-148.2C379.57,-140.74 376.9,-131.82 374.39,-123.47"/>
<polygon fill="black" stroke="black" points="377.79,-122.63 371.57,-114.05 371.09,-124.64 377.79,-122.63"/>
</g>
<!-- drift&#45;&gt;obs -->
<g id="edge10" class="edge">
<title>drift&#45;&gt;obs</title>
<path fill="none" stroke="black" d="M352.97,-78.64C342.27,-67.4 326.14,-52.5 309,-44 283.44,-31.33 251.74,-25.07 227.34,-21.99"/>
<polygon fill="black" stroke="black" points="227.84,-18.52 217.52,-20.88 227.06,-25.48 227.84,-18.52"/>
</g>
<!-- distribution_description_node -->
<g id="node10" class="node">
<title>distribution_description_node</title>
<text text-anchor="start" x="532.25" y="-359.7" font-family="Times,serif" font-size="14.00">bias ~ Normal</text>
<text text-anchor="start" x="532.25" y="-343.2" font-family="Times,serif" font-size="14.00">weight ~ Normal</text>
<text text-anchor="start" x="532.25" y="-326.7" font-family="Times,serif" font-size="14.00">drift_scale ~ LogNormal</text>
<text text-anchor="start" x="532.25" y="-310.2" font-family="Times,serif" font-size="14.00">nu ~ Gamma</text>
<text text-anchor="start" x="532.25" y="-293.7" font-family="Times,serif" font-size="14.00">sigma ~ LogNormal</text>
<text text-anchor="start" x="532.25" y="-277.2" font-family="Times,serif" font-size="14.00">centered ~ Uniform</text>
<text text-anchor="start" x="532.25" y="-260.7" font-family="Times,serif" font-size="14.00">drift_decentered ~ Normal</text>
<text text-anchor="start" x="532.25" y="-244.2" font-family="Times,serif" font-size="14.00">drift ~ Deterministic</text>
<text text-anchor="start" x="532.25" y="-227.7" font-family="Times,serif" font-size="14.00">obs ~ StudentT</text>
</g>
</g>
</svg>
