<?xml version="1.0" encoding="UTF-8" standalone="no"?>
<!DOCTYPE svg PUBLIC "-//W3C//DTD SVG 1.1//EN"
 "http://www.w3.org/Graphics/SVG/1.1/DTD/svg11.dtd">
<!-- Generated by graphviz version 9.0.0 (20230911.1827)
 -->
<!-- Pages: 1 -->
<svg width="2825pt" height="718pt"
 viewBox="0.00 0.00 2825.00 717.59" xmlns="http://www.w3.org/2000/svg" xmlns:xlink="http://www.w3.org/1999/xlink">
<g id="graph0" class="graph" transform="scale(1 1) rotate(0) translate(4 713.59)">
<polygon fill="white" stroke="none" points="-4,4 -4,-713.59 2821,-713.59 2821,4 -4,4"/>
<g id="clust1" class="cluster">
<title>clusterobs (7305)</title>
<path fill="none" stroke="black" d="M20,-8C20,-8 909,-8 909,-8 915,-8 921,-14 921,-20 921,-20 921,-677.68 921,-677.68 921,-683.68 915,-689.68 909,-689.68 909,-689.68 20,-689.68 20,-689.68 14,-689.68 8,-683.68 8,-677.68 8,-677.68 8,-20 8,-20 8,-14 14,-8 20,-8"/>
<text text-anchor="middle" x="883.75" y="-15.2" font-family="Times,serif" font-size="14.00">obs (7305)</text>
</g>
<g id="clust2" class="cluster">
<title>cluster20</title>
<path fill="none" stroke="black" d="M2027,-579.77C2027,-579.77 2209,-579.77 2209,-579.77 2215,-579.77 2221,-585.77 2221,-591.77 2221,-591.77 2221,-689.59 2221,-689.59 2221,-695.59 2215,-701.59 2209,-701.59 2209,-701.59 2027,-701.59 2027,-701.59 2021,-701.59 2015,-695.59 2015,-689.59 2015,-689.59 2015,-591.77 2015,-591.77 2015,-585.77 2021,-579.77 2027,-579.77"/>
<text text-anchor="middle" x="2206.25" y="-586.97" font-family="Times,serif" font-size="14.00">20</text>
</g>
<g id="clust3" class="cluster">
<title>cluster39</title>
<path fill="none" stroke="black" d="M2241,-579.77C2241,-579.77 2487,-579.77 2487,-579.77 2493,-579.77 2499,-585.77 2499,-591.77 2499,-591.77 2499,-689.59 2499,-689.59 2499,-695.59 2493,-701.59 2487,-701.59 2487,-701.59 2241,-701.59 2241,-701.59 2235,-701.59 2229,-695.59 2229,-689.59 2229,-689.59 2229,-591.77 2229,-591.77 2229,-585.77 2235,-579.77 2241,-579.77"/>
<text text-anchor="middle" x="2484.25" y="-586.97" font-family="Times,serif" font-size="14.00">39</text>
</g>
<g id="clust4" class="cluster">
<title>cluster5</title>
<path fill="none" stroke="black" d="M2519,-579.77C2519,-579.77 2797,-579.77 2797,-579.77 2803,-579.77 2809,-585.77 2809,-591.77 2809,-591.77 2809,-689.59 2809,-689.59 2809,-695.59 2803,-701.59 2797,-701.59 2797,-701.59 2519,-701.59 2519,-701.59 2513,-701.59 2507,-695.59 2507,-689.59 2507,-689.59 2507,-591.77 2507,-591.77 2507,-585.77 2513,-579.77 2519,-579.77"/>
<text text-anchor="middle" x="2797.62" y="-586.97" font-family="Times,serif" font-size="14.00">5</text>
</g>
<g id="clust5" class="cluster">
<title>clusterday_of_week (7)</title>
<path fill="none" stroke="black" d="M1439,-340.63C1439,-340.63 1585,-340.63 1585,-340.63 1591,-340.63 1597,-346.63 1597,-352.63 1597,-352.63 1597,-450.45 1597,-450.45 1597,-456.45 1591,-462.45 1585,-462.45 1585,-462.45 1439,-462.45 1439,-462.45 1433,-462.45 1427,-456.45 1427,-450.45 1427,-450.45 1427,-352.63 1427,-352.63 1427,-346.63 1433,-340.63 1439,-340.63"/>
<text text-anchor="middle" x="1542.88" y="-347.83" font-family="Times,serif" font-size="14.00">day_of_week (7)</text>
</g>
<g id="clust6" class="cluster">
<title>clusterday_of_year2 (366)</title>
<path fill="none" stroke="black" d="M1617,-340.63C1617,-340.63 1755,-340.63 1755,-340.63 1761,-340.63 1767,-346.63 1767,-352.63 1767,-352.63 1767,-450.45 1767,-450.45 1767,-456.45 1761,-462.45 1755,-462.45 1755,-462.45 1617,-462.45 1617,-462.45 1611,-462.45 1605,-456.45 1605,-450.45 1605,-450.45 1605,-352.63 1605,-352.63 1605,-346.63 1611,-340.63 1617,-340.63"/>
<text text-anchor="middle" x="1705.38" y="-347.83" font-family="Times,serif" font-size="14.00">day_of_year2 (366)</text>
</g>
<!-- normalized_obs_data -->
<g id="node1" class="node">
<title>normalized_obs_data</title>
<path fill="lightgrey" stroke="black" d="M797.12,-681.68C797.12,-681.68 688.88,-681.68 688.88,-681.68 682.88,-681.68 676.88,-675.68 676.88,-669.68 676.88,-669.68 676.88,-636.18 676.88,-636.18 676.88,-630.18 682.88,-624.18 688.88,-624.18 688.88,-624.18 797.12,-624.18 797.12,-624.18 803.12,-624.18 809.12,-630.18 809.12,-636.18 809.12,-636.18 809.12,-669.68 809.12,-669.68 809.12,-675.68 803.12,-681.68 797.12,-681.68"/>
<text text-anchor="middle" x="743" y="-664.38" font-family="Times,serif" font-size="14.00">normalized_obs_data</text>
<text text-anchor="middle" x="743" y="-647.88" font-family="Times,serif" font-size="14.00">~</text>
<text text-anchor="middle" x="743" y="-631.38" font-family="Times,serif" font-size="14.00">ConstantData</text>
</g>
<!-- log_f_day_of_week -->
<g id="node4" class="node">
<title>log_f_day_of_week</title>
<polygon fill="none" stroke="black" points="805,-559.86 681,-559.86 681,-502.36 805,-502.36 805,-559.86"/>
<text text-anchor="middle" x="743" y="-542.56" font-family="Times,serif" font-size="14.00">log_f_day_of_week</text>
<text text-anchor="middle" x="743" y="-526.06" font-family="Times,serif" font-size="14.00">~</text>
<text text-anchor="middle" x="743" y="-509.56" font-family="Times,serif" font-size="14.00">Deterministic</text>
</g>
<!-- normalized_obs_data&#45;&gt;log_f_day_of_week -->
<g id="edge10" class="edge">
<title>normalized_obs_data&#45;&gt;log_f_day_of_week</title>
<path fill="none" stroke="black" d="M743,-623.84C743,-608.21 743,-588.52 743,-571.39"/>
<polygon fill="black" stroke="black" points="746.5,-571.54 743,-561.54 739.5,-571.54 746.5,-571.54"/>
</g>
<!-- f_trend -->
<g id="node5" class="node">
<title>f_trend</title>
<polygon fill="none" stroke="black" points="913.12,-559.86 822.88,-559.86 822.88,-502.36 913.12,-502.36 913.12,-559.86"/>
<text text-anchor="middle" x="868" y="-542.56" font-family="Times,serif" font-size="14.00">f_trend</text>
<text text-anchor="middle" x="868" y="-526.06" font-family="Times,serif" font-size="14.00">~</text>
<text text-anchor="middle" x="868" y="-509.56" font-family="Times,serif" font-size="14.00">Deterministic</text>
</g>
<!-- normalized_obs_data&#45;&gt;f_trend -->
<g id="edge3" class="edge">
<title>normalized_obs_data&#45;&gt;f_trend</title>
<path fill="none" stroke="black" d="M772.31,-623.84C789.7,-607.16 811.93,-585.85 830.59,-567.97"/>
<polygon fill="black" stroke="black" points="832.99,-570.52 837.78,-561.07 828.14,-565.47 832.99,-570.52"/>
</g>
<!-- f_year_periodic -->
<g id="node10" class="node">
<title>f_year_periodic</title>
<polygon fill="none" stroke="black" points="662.75,-559.86 561.25,-559.86 561.25,-502.36 662.75,-502.36 662.75,-559.86"/>
<text text-anchor="middle" x="612" y="-542.56" font-family="Times,serif" font-size="14.00">f_year_periodic</text>
<text text-anchor="middle" x="612" y="-526.06" font-family="Times,serif" font-size="14.00">~</text>
<text text-anchor="middle" x="612" y="-509.56" font-family="Times,serif" font-size="14.00">Deterministic</text>
</g>
<!-- normalized_obs_data&#45;&gt;f_year_periodic -->
<g id="edge7" class="edge">
<title>normalized_obs_data&#45;&gt;f_year_periodic</title>
<path fill="none" stroke="black" d="M712.29,-623.84C693.97,-607.09 670.55,-585.66 650.94,-567.73"/>
<polygon fill="black" stroke="black" points="653.38,-565.21 643.64,-561.05 648.65,-570.38 653.38,-565.21"/>
</g>
<!-- memorial_days_data -->
<g id="node2" class="node">
<title>memorial_days_data</title>
<path fill="lightgrey" stroke="black" d="M421,-442.54C421,-442.54 315,-442.54 315,-442.54 309,-442.54 303,-436.54 303,-430.54 303,-430.54 303,-397.04 303,-397.04 303,-391.04 309,-385.04 315,-385.04 315,-385.04 421,-385.04 421,-385.04 427,-385.04 433,-391.04 433,-397.04 433,-397.04 433,-430.54 433,-430.54 433,-436.54 427,-442.54 421,-442.54"/>
<text text-anchor="middle" x="368" y="-425.24" font-family="Times,serif" font-size="14.00">memorial_days_data</text>
<text text-anchor="middle" x="368" y="-408.74" font-family="Times,serif" font-size="14.00">~</text>
<text text-anchor="middle" x="368" y="-392.24" font-family="Times,serif" font-size="14.00">ConstantData</text>
</g>
<!-- mu -->
<g id="node7" class="node">
<title>mu</title>
<polygon fill="none" stroke="black" points="766.12,-320.73 675.88,-320.73 675.88,-263.23 766.12,-263.23 766.12,-320.73"/>
<text text-anchor="middle" x="721" y="-303.43" font-family="Times,serif" font-size="14.00">mu</text>
<text text-anchor="middle" x="721" y="-286.93" font-family="Times,serif" font-size="14.00">~</text>
<text text-anchor="middle" x="721" y="-270.43" font-family="Times,serif" font-size="14.00">Deterministic</text>
</g>
<!-- memorial_days_data&#45;&gt;mu -->
<g id="edge19" class="edge">
<title>memorial_days_data&#45;&gt;mu</title>
<path fill="none" stroke="black" d="M391.49,-384.57C405.9,-369.15 425.65,-351.11 447,-340.63 516.55,-306.51 606.55,-296.44 664.04,-293.67"/>
<polygon fill="black" stroke="black" points="664.09,-297.18 673.93,-293.26 663.8,-290.18 664.09,-297.18"/>
</g>
<!-- thanksgiving_days_data -->
<g id="node3" class="node">
<title>thanksgiving_days_data</title>
<path fill="lightgrey" stroke="black" d="M273.25,-442.54C273.25,-442.54 150.75,-442.54 150.75,-442.54 144.75,-442.54 138.75,-436.54 138.75,-430.54 138.75,-430.54 138.75,-397.04 138.75,-397.04 138.75,-391.04 144.75,-385.04 150.75,-385.04 150.75,-385.04 273.25,-385.04 273.25,-385.04 279.25,-385.04 285.25,-391.04 285.25,-397.04 285.25,-397.04 285.25,-430.54 285.25,-430.54 285.25,-436.54 279.25,-442.54 273.25,-442.54"/>
<text text-anchor="middle" x="212" y="-425.24" font-family="Times,serif" font-size="14.00">thanksgiving_days_data</text>
<text text-anchor="middle" x="212" y="-408.74" font-family="Times,serif" font-size="14.00">~</text>
<text text-anchor="middle" x="212" y="-392.24" font-family="Times,serif" font-size="14.00">ConstantData</text>
</g>
<!-- thanksgiving_days_data&#45;&gt;mu -->
<g id="edge18" class="edge">
<title>thanksgiving_days_data&#45;&gt;mu</title>
<path fill="none" stroke="black" d="M235.65,-384.81C250.66,-369.06 271.45,-350.61 294,-340.63 358.96,-311.9 563.61,-299.54 664.14,-295.1"/>
<polygon fill="black" stroke="black" points="664.22,-298.6 674.07,-294.67 663.92,-291.6 664.22,-298.6"/>
</g>
<!-- f_day_of_week -->
<g id="node13" class="node">
<title>f_day_of_week</title>
<polygon fill="none" stroke="black" points="571,-442.54 471,-442.54 471,-385.04 571,-385.04 571,-442.54"/>
<text text-anchor="middle" x="521" y="-425.24" font-family="Times,serif" font-size="14.00">f_day_of_week</text>
<text text-anchor="middle" x="521" y="-408.74" font-family="Times,serif" font-size="14.00">~</text>
<text text-anchor="middle" x="521" y="-392.24" font-family="Times,serif" font-size="14.00">Deterministic</text>
</g>
<!-- log_f_day_of_week&#45;&gt;f_day_of_week -->
<g id="edge14" class="edge">
<title>log_f_day_of_week&#45;&gt;f_day_of_week</title>
<path fill="none" stroke="black" d="M695.53,-501.91C687.79,-497.81 679.77,-493.83 672,-490.45 634.75,-474.25 621.11,-481.06 585,-462.45 577.8,-458.74 570.56,-454.25 563.66,-449.51"/>
<polygon fill="black" stroke="black" points="565.91,-446.81 555.74,-443.84 561.83,-452.51 565.91,-446.81"/>
</g>
<!-- f_trend&#45;&gt;mu -->
<g id="edge27" class="edge">
<title>f_trend&#45;&gt;mu</title>
<path fill="none" stroke="black" d="M834.99,-501.93C828.38,-497.46 821.23,-493.36 814,-490.45 769.49,-472.58 631.64,-498.5 600,-462.45 582.14,-442.11 584.76,-363.01 600,-340.63 614.6,-319.19 640.47,-307.4 664.55,-300.91"/>
<polygon fill="black" stroke="black" points="665.07,-304.38 673.97,-298.64 663.43,-297.58 665.07,-304.38"/>
</g>
<!-- labor_days_data -->
<g id="node6" class="node">
<title>labor_days_data</title>
<path fill="lightgrey" stroke="black" d="M108.25,-442.54C108.25,-442.54 27.75,-442.54 27.75,-442.54 21.75,-442.54 15.75,-436.54 15.75,-430.54 15.75,-430.54 15.75,-397.04 15.75,-397.04 15.75,-391.04 21.75,-385.04 27.75,-385.04 27.75,-385.04 108.25,-385.04 108.25,-385.04 114.25,-385.04 120.25,-391.04 120.25,-397.04 120.25,-397.04 120.25,-430.54 120.25,-430.54 120.25,-436.54 114.25,-442.54 108.25,-442.54"/>
<text text-anchor="middle" x="68" y="-425.24" font-family="Times,serif" font-size="14.00">labor_days_data</text>
<text text-anchor="middle" x="68" y="-408.74" font-family="Times,serif" font-size="14.00">~</text>
<text text-anchor="middle" x="68" y="-392.24" font-family="Times,serif" font-size="14.00">ConstantData</text>
</g>
<!-- labor_days_data&#45;&gt;mu -->
<g id="edge24" class="edge">
<title>labor_days_data&#45;&gt;mu</title>
<path fill="none" stroke="black" d="M84.37,-384.64C95.17,-368.83 110.86,-350.37 130,-340.63 176.9,-316.77 526.01,-300.62 664.57,-295.09"/>
<polygon fill="black" stroke="black" points="664.37,-298.6 674.23,-294.71 664.1,-291.6 664.37,-298.6"/>
</g>
<!-- likelihood -->
<g id="node9" class="node">
<title>likelihood</title>
<ellipse fill="lightgrey" stroke="black" cx="803" cy="-174.66" rx="50.03" ry="40.66"/>
<text text-anchor="middle" x="803" y="-186.11" font-family="Times,serif" font-size="14.00">likelihood</text>
<text text-anchor="middle" x="803" y="-169.61" font-family="Times,serif" font-size="14.00">~</text>
<text text-anchor="middle" x="803" y="-153.11" font-family="Times,serif" font-size="14.00">Normal</text>
</g>
<!-- mu&#45;&gt;likelihood -->
<g id="edge31" class="edge">
<title>mu&#45;&gt;likelihood</title>
<path fill="none" stroke="black" d="M741.06,-262.77C750.32,-249.75 761.52,-233.99 771.84,-219.48"/>
<polygon fill="black" stroke="black" points="774.64,-221.58 777.59,-211.4 768.94,-217.52 774.64,-221.58"/>
</g>
<!-- log_births_relative100 -->
<g id="node8" class="node">
<title>log_births_relative100</title>
<path fill="lightgrey" stroke="black" d="M860.12,-98C860.12,-98 745.88,-98 745.88,-98 739.88,-98 733.88,-92 733.88,-86 733.88,-86 733.88,-52.5 733.88,-52.5 733.88,-46.5 739.88,-40.5 745.88,-40.5 745.88,-40.5 860.12,-40.5 860.12,-40.5 866.12,-40.5 872.12,-46.5 872.12,-52.5 872.12,-52.5 872.12,-86 872.12,-86 872.12,-92 866.12,-98 860.12,-98"/>
<text text-anchor="middle" x="803" y="-80.7" font-family="Times,serif" font-size="14.00">log_births_relative100</text>
<text text-anchor="middle" x="803" y="-64.2" font-family="Times,serif" font-size="14.00">~</text>
<text text-anchor="middle" x="803" y="-47.7" font-family="Times,serif" font-size="14.00">ConstantData</text>
</g>
<!-- likelihood&#45;&gt;log_births_relative100 -->
<g id="edge1" class="edge">
<title>likelihood&#45;&gt;log_births_relative100</title>
<path fill="none" stroke="black" d="M803,-133.68C803,-125.83 803,-117.6 803,-109.76"/>
<polygon fill="black" stroke="black" points="806.5,-109.79 803,-99.79 799.5,-109.79 806.5,-109.79"/>
</g>
<!-- f_year_periodic&#45;&gt;mu -->
<g id="edge25" class="edge">
<title>f_year_periodic&#45;&gt;mu</title>
<path fill="none" stroke="black" d="M560.88,-521.72C526.53,-513.13 483.7,-496.05 462,-462.45 447.31,-439.71 444.68,-361.44 462,-340.63 487.2,-310.37 595.79,-299.26 664.11,-295.22"/>
<polygon fill="black" stroke="black" points="664.23,-298.72 674.03,-294.68 663.85,-291.73 664.23,-298.72"/>
</g>
<!-- day_of_year2_idx_data -->
<g id="node11" class="node">
<title>day_of_year2_idx_data</title>
<path fill="lightgrey" stroke="black" d="M900.75,-442.54C900.75,-442.54 781.25,-442.54 781.25,-442.54 775.25,-442.54 769.25,-436.54 769.25,-430.54 769.25,-430.54 769.25,-397.04 769.25,-397.04 769.25,-391.04 775.25,-385.04 781.25,-385.04 781.25,-385.04 900.75,-385.04 900.75,-385.04 906.75,-385.04 912.75,-391.04 912.75,-397.04 912.75,-397.04 912.75,-430.54 912.75,-430.54 912.75,-436.54 906.75,-442.54 900.75,-442.54"/>
<text text-anchor="middle" x="841" y="-425.24" font-family="Times,serif" font-size="14.00">day_of_year2_idx_data</text>
<text text-anchor="middle" x="841" y="-408.74" font-family="Times,serif" font-size="14.00">~</text>
<text text-anchor="middle" x="841" y="-392.24" font-family="Times,serif" font-size="14.00">ConstantData</text>
</g>
<!-- day_of_year2_idx_data&#45;&gt;mu -->
<g id="edge23" class="edge">
<title>day_of_year2_idx_data&#45;&gt;mu</title>
<path fill="none" stroke="black" d="M812.87,-384.7C796.16,-368.03 774.82,-346.72 756.92,-328.84"/>
<polygon fill="black" stroke="black" points="759.58,-326.55 750.03,-321.96 754.63,-331.5 759.58,-326.55"/>
</g>
<!-- day_of_week_idx_data -->
<g id="node12" class="node">
<title>day_of_week_idx_data</title>
<path fill="lightgrey" stroke="black" d="M739,-442.54C739,-442.54 621,-442.54 621,-442.54 615,-442.54 609,-436.54 609,-430.54 609,-430.54 609,-397.04 609,-397.04 609,-391.04 615,-385.04 621,-385.04 621,-385.04 739,-385.04 739,-385.04 745,-385.04 751,-391.04 751,-397.04 751,-397.04 751,-430.54 751,-430.54 751,-436.54 745,-442.54 739,-442.54"/>
<text text-anchor="middle" x="680" y="-425.24" font-family="Times,serif" font-size="14.00">day_of_week_idx_data</text>
<text text-anchor="middle" x="680" y="-408.74" font-family="Times,serif" font-size="14.00">~</text>
<text text-anchor="middle" x="680" y="-392.24" font-family="Times,serif" font-size="14.00">ConstantData</text>
</g>
<!-- day_of_week_idx_data&#45;&gt;mu -->
<g id="edge20" class="edge">
<title>day_of_week_idx_data&#45;&gt;mu</title>
<path fill="none" stroke="black" d="M689.61,-384.7C695.01,-368.93 701.83,-349.01 707.73,-331.77"/>
<polygon fill="black" stroke="black" points="711.03,-332.92 710.96,-322.32 704.41,-330.65 711.03,-332.92"/>
</g>
<!-- f_day_of_week&#45;&gt;mu -->
<g id="edge28" class="edge">
<title>f_day_of_week&#45;&gt;mu</title>
<path fill="none" stroke="black" d="M540.47,-384.61C551.95,-369.78 567.62,-352.3 585,-340.63 608.89,-324.6 638.75,-313.36 664.41,-305.83"/>
<polygon fill="black" stroke="black" points="665.34,-309.21 674.03,-303.14 663.46,-302.46 665.34,-309.21"/>
</g>
<!-- amplitude_year_periodic -->
<g id="node14" class="node">
<title>amplitude_year_periodic</title>
<ellipse fill="none" stroke="black" cx="1036" cy="-652.93" rx="107.3" ry="40.66"/>
<text text-anchor="middle" x="1036" y="-664.38" font-family="Times,serif" font-size="14.00">amplitude_year_periodic</text>
<text text-anchor="middle" x="1036" y="-647.88" font-family="Times,serif" font-size="14.00">~</text>
<text text-anchor="middle" x="1036" y="-631.38" font-family="Times,serif" font-size="14.00">HalfNormal</text>
</g>
<!-- amplitude_year_periodic&#45;&gt;f_year_periodic -->
<g id="edge6" class="edge">
<title>amplitude_year_periodic&#45;&gt;f_year_periodic</title>
<path fill="none" stroke="black" d="M992.14,-615.48C972.79,-601.59 949.01,-587.3 925,-579.77 871.33,-562.93 725.61,-588.81 672,-571.77 667.18,-570.24 662.39,-568.2 657.74,-565.85"/>
<polygon fill="black" stroke="black" points="659.56,-562.86 649.12,-561.04 656.15,-568.97 659.56,-562.86"/>
</g>
<!-- b_thanksgiving_day -->
<g id="node15" class="node">
<title>b_thanksgiving_day</title>
<ellipse fill="none" stroke="black" cx="1156" cy="-413.79" rx="88.74" ry="40.66"/>
<text text-anchor="middle" x="1156" y="-425.24" font-family="Times,serif" font-size="14.00">b_thanksgiving_day</text>
<text text-anchor="middle" x="1156" y="-408.74" font-family="Times,serif" font-size="14.00">~</text>
<text text-anchor="middle" x="1156" y="-392.24" font-family="Times,serif" font-size="14.00">Normal</text>
</g>
<!-- b_thanksgiving_day&#45;&gt;mu -->
<g id="edge17" class="edge">
<title>b_thanksgiving_day&#45;&gt;mu</title>
<path fill="none" stroke="black" d="M1118.06,-376.85C1101.03,-362.96 1079.86,-348.52 1058,-340.63 1029.11,-330.21 950.47,-336.53 920,-332.63 871.55,-326.43 817.22,-315.32 777.58,-306.43"/>
<polygon fill="black" stroke="black" points="778.55,-303.06 768.02,-304.26 777,-309.89 778.55,-303.06"/>
</g>
<!-- ls_day_of_week -->
<g id="node16" class="node">
<title>ls_day_of_week</title>
<ellipse fill="none" stroke="black" cx="1403" cy="-652.93" rx="73.89" ry="40.66"/>
<text text-anchor="middle" x="1403" y="-664.38" font-family="Times,serif" font-size="14.00">ls_day_of_week</text>
<text text-anchor="middle" x="1403" y="-647.88" font-family="Times,serif" font-size="14.00">~</text>
<text text-anchor="middle" x="1403" y="-631.38" font-family="Times,serif" font-size="14.00">LogNormal</text>
</g>
<!-- ls_day_of_week&#45;&gt;log_f_day_of_week -->
<g id="edge12" class="edge">
<title>ls_day_of_week&#45;&gt;log_f_day_of_week</title>
<path fill="none" stroke="black" d="M1371.94,-615.62C1357.7,-601.66 1339.61,-587.28 1320,-579.77 1267.49,-559.66 868.3,-586.37 814,-571.77 807.8,-570.1 801.56,-567.78 795.49,-565.08"/>
<polygon fill="black" stroke="black" points="797.37,-562.1 786.84,-560.89 794.32,-568.4 797.37,-562.1"/>
</g>
<!-- ls_year_periodic -->
<g id="node17" class="node">
<title>ls_year_periodic</title>
<ellipse fill="none" stroke="black" cx="1236" cy="-652.93" rx="74.95" ry="40.66"/>
<text text-anchor="middle" x="1236" y="-664.38" font-family="Times,serif" font-size="14.00">ls_year_periodic</text>
<text text-anchor="middle" x="1236" y="-647.88" font-family="Times,serif" font-size="14.00">~</text>
<text text-anchor="middle" x="1236" y="-631.38" font-family="Times,serif" font-size="14.00">LogNormal</text>
</g>
<!-- ls_year_periodic&#45;&gt;f_year_periodic -->
<g id="edge9" class="edge">
<title>ls_year_periodic&#45;&gt;f_year_periodic</title>
<path fill="none" stroke="black" d="M1204.49,-615.62C1190.06,-601.66 1171.77,-587.28 1152,-579.77 1102.14,-560.82 722.95,-587.55 672,-571.77 666.97,-570.21 661.97,-568.09 657.13,-565.64"/>
<polygon fill="black" stroke="black" points="659.2,-562.79 648.77,-560.94 655.77,-568.89 659.2,-562.79"/>
</g>
<!-- b_memorial_day -->
<g id="node18" class="node">
<title>b_memorial_day</title>
<ellipse fill="none" stroke="black" cx="1340" cy="-413.79" rx="77.07" ry="40.66"/>
<text text-anchor="middle" x="1340" y="-425.24" font-family="Times,serif" font-size="14.00">b_memorial_day</text>
<text text-anchor="middle" x="1340" y="-408.74" font-family="Times,serif" font-size="14.00">~</text>
<text text-anchor="middle" x="1340" y="-392.24" font-family="Times,serif" font-size="14.00">Normal</text>
</g>
<!-- b_memorial_day&#45;&gt;mu -->
<g id="edge26" class="edge">
<title>b_memorial_day&#45;&gt;mu</title>
<path fill="none" stroke="black" d="M1307.56,-376.54C1292.76,-362.6 1274.06,-348.21 1254,-340.63 1219.27,-327.52 956.9,-336.72 920,-332.63 871.46,-327.26 817.13,-316.07 777.52,-306.95"/>
<polygon fill="black" stroke="black" points="778.5,-303.58 767.97,-304.72 776.91,-310.4 778.5,-303.58"/>
</g>
<!-- amplitude_trend -->
<g id="node19" class="node">
<title>amplitude_trend</title>
<ellipse fill="none" stroke="black" cx="1800" cy="-652.93" rx="74.42" ry="40.66"/>
<text text-anchor="middle" x="1800" y="-664.38" font-family="Times,serif" font-size="14.00">amplitude_trend</text>
<text text-anchor="middle" x="1800" y="-647.88" font-family="Times,serif" font-size="14.00">~</text>
<text text-anchor="middle" x="1800" y="-631.38" font-family="Times,serif" font-size="14.00">HalfNormal</text>
</g>
<!-- amplitude_trend&#45;&gt;f_trend -->
<g id="edge5" class="edge">
<title>amplitude_trend&#45;&gt;f_trend</title>
<path fill="none" stroke="black" d="M1768.42,-615.8C1753.98,-601.87 1735.7,-587.47 1716,-579.77 1692.7,-570.66 1515.99,-573.01 1491,-571.77 1282.12,-561.41 1034.16,-544.13 924.72,-536.26"/>
<polygon fill="black" stroke="black" points="925.05,-532.77 914.82,-535.54 924.55,-539.75 925.05,-532.77"/>
</g>
<!-- sigma -->
<g id="node20" class="node">
<title>sigma</title>
<ellipse fill="none" stroke="black" cx="987" cy="-291.98" rx="57.98" ry="40.66"/>
<text text-anchor="middle" x="987" y="-303.43" font-family="Times,serif" font-size="14.00">sigma</text>
<text text-anchor="middle" x="987" y="-286.93" font-family="Times,serif" font-size="14.00">~</text>
<text text-anchor="middle" x="987" y="-270.43" font-family="Times,serif" font-size="14.00">HalfNormal</text>
</g>
<!-- sigma&#45;&gt;likelihood -->
<g id="edge30" class="edge">
<title>sigma&#45;&gt;likelihood</title>
<path fill="none" stroke="black" d="M944.69,-263.8C938.11,-259.61 931.38,-255.34 925,-251.32 901.12,-236.28 874.49,-219.74 852.22,-205.97"/>
<polygon fill="black" stroke="black" points="854.28,-203.13 843.93,-200.85 850.6,-209.08 854.28,-203.13"/>
</g>
<!-- sigma_day_of_year2 -->
<g id="node21" class="node">
<title>sigma_day_of_year2</title>
<ellipse fill="none" stroke="black" cx="1592" cy="-531.11" rx="91.92" ry="40.66"/>
<text text-anchor="middle" x="1592" y="-542.56" font-family="Times,serif" font-size="14.00">sigma_day_of_year2</text>
<text text-anchor="middle" x="1592" y="-526.06" font-family="Times,serif" font-size="14.00">~</text>
<text text-anchor="middle" x="1592" y="-509.56" font-family="Times,serif" font-size="14.00">HalfNormal</text>
</g>
<!-- b_day_of_year2 -->
<g id="node30" class="node">
<title>b_day_of_year2</title>
<ellipse fill="none" stroke="black" cx="1686" cy="-413.79" rx="73.36" ry="40.66"/>
<text text-anchor="middle" x="1686" y="-425.24" font-family="Times,serif" font-size="14.00">b_day_of_year2</text>
<text text-anchor="middle" x="1686" y="-408.74" font-family="Times,serif" font-size="14.00">~</text>
<text text-anchor="middle" x="1686" y="-392.24" font-family="Times,serif" font-size="14.00">StudentT</text>
</g>
<!-- sigma_day_of_year2&#45;&gt;b_day_of_year2 -->
<g id="edge15" class="edge">
<title>sigma_day_of_year2&#45;&gt;b_day_of_year2</title>
<path fill="none" stroke="black" d="M1622.78,-492.35C1631.23,-481.99 1640.48,-470.64 1649.23,-459.91"/>
<polygon fill="black" stroke="black" points="1651.87,-462.2 1655.47,-452.24 1646.44,-457.78 1651.87,-462.2"/>
</g>
<!-- amplitude_day_of_week -->
<g id="node22" class="node">
<title>amplitude_day_of_week</title>
<ellipse fill="none" stroke="black" cx="1601" cy="-652.93" rx="106.24" ry="40.66"/>
<text text-anchor="middle" x="1601" y="-664.38" font-family="Times,serif" font-size="14.00">amplitude_day_of_week</text>
<text text-anchor="middle" x="1601" y="-647.88" font-family="Times,serif" font-size="14.00">~</text>
<text text-anchor="middle" x="1601" y="-631.38" font-family="Times,serif" font-size="14.00">HalfNormal</text>
</g>
<!-- amplitude_day_of_week&#45;&gt;log_f_day_of_week -->
<g id="edge13" class="edge">
<title>amplitude_day_of_week&#45;&gt;log_f_day_of_week</title>
<path fill="none" stroke="black" d="M1556,-615.62C1535.83,-601.57 1510.99,-587.12 1486,-579.77 1414.36,-558.69 886.15,-591.01 814,-571.77 807.79,-570.11 801.55,-567.8 795.48,-565.1"/>
<polygon fill="black" stroke="black" points="797.36,-562.12 786.83,-560.92 794.31,-568.42 797.36,-562.12"/>
</g>
<!-- ls_trend -->
<g id="node23" class="node">
<title>ls_trend</title>
<ellipse fill="none" stroke="black" cx="1949" cy="-652.93" rx="56.39" ry="40.66"/>
<text text-anchor="middle" x="1949" y="-664.38" font-family="Times,serif" font-size="14.00">ls_trend</text>
<text text-anchor="middle" x="1949" y="-647.88" font-family="Times,serif" font-size="14.00">~</text>
<text text-anchor="middle" x="1949" y="-631.38" font-family="Times,serif" font-size="14.00">LogNormal</text>
</g>
<!-- ls_trend&#45;&gt;f_trend -->
<g id="edge2" class="edge">
<title>ls_trend&#45;&gt;f_trend</title>
<path fill="none" stroke="black" d="M1925.69,-615.8C1914.59,-601.88 1900.01,-587.47 1883,-579.77 1863.16,-570.78 1512.76,-572.68 1491,-571.77 1282.05,-562.99 1034.12,-544.91 924.7,-536.54"/>
<polygon fill="black" stroke="black" points="925.05,-533.06 914.81,-535.78 924.51,-540.04 925.05,-533.06"/>
</g>
<!-- nu_day_of_year2 -->
<g id="node24" class="node">
<title>nu_day_of_year2</title>
<ellipse fill="none" stroke="black" cx="1780" cy="-531.11" rx="78.14" ry="40.66"/>
<text text-anchor="middle" x="1780" y="-542.56" font-family="Times,serif" font-size="14.00">nu_day_of_year2</text>
<text text-anchor="middle" x="1780" y="-526.06" font-family="Times,serif" font-size="14.00">~</text>
<text text-anchor="middle" x="1780" y="-509.56" font-family="Times,serif" font-size="14.00">Gamma</text>
</g>
<!-- nu_day_of_year2&#45;&gt;b_day_of_year2 -->
<g id="edge16" class="edge">
<title>nu_day_of_year2&#45;&gt;b_day_of_year2</title>
<path fill="none" stroke="black" d="M1750,-493.31C1741.35,-482.7 1731.81,-471 1722.8,-459.94"/>
<polygon fill="black" stroke="black" points="1725.7,-457.96 1716.67,-452.42 1720.28,-462.38 1725.7,-457.96"/>
</g>
<!-- b_labor_day -->
<g id="node25" class="node">
<title>b_labor_day</title>
<ellipse fill="none" stroke="black" cx="990" cy="-413.79" rx="59.04" ry="40.66"/>
<text text-anchor="middle" x="990" y="-425.24" font-family="Times,serif" font-size="14.00">b_labor_day</text>
<text text-anchor="middle" x="990" y="-408.74" font-family="Times,serif" font-size="14.00">~</text>
<text text-anchor="middle" x="990" y="-392.24" font-family="Times,serif" font-size="14.00">Normal</text>
</g>
<!-- b_labor_day&#45;&gt;mu -->
<g id="edge29" class="edge">
<title>b_labor_day&#45;&gt;mu</title>
<path fill="none" stroke="black" d="M965.05,-376.87C954.18,-363.66 940.39,-349.72 925,-340.63 879.82,-313.95 820.77,-302.2 777.84,-297.04"/>
<polygon fill="black" stroke="black" points="778.29,-293.56 767.96,-295.94 777.51,-300.52 778.29,-293.56"/>
</g>
<!-- f_trend_hsgp_coeffs_ -->
<g id="node26" class="node">
<title>f_trend_hsgp_coeffs_</title>
<ellipse fill="none" stroke="black" cx="2118" cy="-652.93" rx="94.58" ry="40.66"/>
<text text-anchor="middle" x="2118" y="-664.38" font-family="Times,serif" font-size="14.00">f_trend_hsgp_coeffs_</text>
<text text-anchor="middle" x="2118" y="-647.88" font-family="Times,serif" font-size="14.00">~</text>
<text text-anchor="middle" x="2118" y="-631.38" font-family="Times,serif" font-size="14.00">Normal</text>
</g>
<!-- f_trend_hsgp_coeffs_&#45;&gt;f_trend -->
<g id="edge4" class="edge">
<title>f_trend_hsgp_coeffs_&#45;&gt;f_trend</title>
<path fill="none" stroke="black" d="M2078.05,-615.89C2059.86,-601.79 2037.22,-587.23 2014,-579.77 1986.33,-570.88 1520.04,-572.91 1491,-571.77 1282.03,-563.52 1034.11,-545.18 924.7,-536.64"/>
<polygon fill="black" stroke="black" points="925.05,-533.16 914.81,-535.86 924.5,-540.14 925.05,-533.16"/>
</g>
<!-- f_year_periodic_hsgp_coeffs_ -->
<g id="node27" class="node">
<title>f_year_periodic_hsgp_coeffs_</title>
<ellipse fill="none" stroke="black" cx="2364" cy="-652.93" rx="127.46" ry="40.66"/>
<text text-anchor="middle" x="2364" y="-664.38" font-family="Times,serif" font-size="14.00">f_year_periodic_hsgp_coeffs_</text>
<text text-anchor="middle" x="2364" y="-647.88" font-family="Times,serif" font-size="14.00">~</text>
<text text-anchor="middle" x="2364" y="-631.38" font-family="Times,serif" font-size="14.00">Normal</text>
</g>
<!-- f_year_periodic_hsgp_coeffs_&#45;&gt;f_year_periodic -->
<g id="edge8" class="edge">
<title>f_year_periodic_hsgp_coeffs_&#45;&gt;f_year_periodic</title>
<path fill="none" stroke="black" d="M2309.27,-615.85C2284.6,-601.66 2254.43,-587.03 2225,-579.77 2183.12,-569.43 713.28,-584.3 672,-571.77 666.96,-570.24 661.96,-568.14 657.11,-565.7"/>
<polygon fill="black" stroke="black" points="659.18,-562.84 648.74,-561.02 655.76,-568.95 659.18,-562.84"/>
</g>
<!-- log_f_day_of_week_hsgp_coeffs_ -->
<g id="node28" class="node">
<title>log_f_day_of_week_hsgp_coeffs_</title>
<ellipse fill="none" stroke="black" cx="2658" cy="-652.93" rx="143.37" ry="40.66"/>
<text text-anchor="middle" x="2658" y="-664.38" font-family="Times,serif" font-size="14.00">log_f_day_of_week_hsgp_coeffs_</text>
<text text-anchor="middle" x="2658" y="-647.88" font-family="Times,serif" font-size="14.00">~</text>
<text text-anchor="middle" x="2658" y="-631.38" font-family="Times,serif" font-size="14.00">Normal</text>
</g>
<!-- log_f_day_of_week_hsgp_coeffs_&#45;&gt;log_f_day_of_week -->
<g id="edge11" class="edge">
<title>log_f_day_of_week_hsgp_coeffs_&#45;&gt;log_f_day_of_week</title>
<path fill="none" stroke="black" d="M2596.47,-615.82C2568.86,-601.62 2535.3,-587 2503,-579.77 2457.22,-569.52 859.38,-583.7 814,-571.77 807.79,-570.14 801.54,-567.83 795.47,-565.15"/>
<polygon fill="black" stroke="black" points="797.35,-562.16 786.82,-560.97 794.31,-568.47 797.35,-562.16"/>
</g>
<!-- b_day_of_week -->
<g id="node29" class="node">
<title>b_day_of_week</title>
<ellipse fill="none" stroke="black" cx="1512" cy="-413.79" rx="77.07" ry="40.66"/>
<text text-anchor="middle" x="1512" y="-425.24" font-family="Times,serif" font-size="14.00">b_day_of_week</text>
<text text-anchor="middle" x="1512" y="-408.74" font-family="Times,serif" font-size="14.00">~</text>
<text text-anchor="middle" x="1512" y="-392.24" font-family="Times,serif" font-size="14.00">ZeroSumNormal</text>
</g>
<!-- b_day_of_week&#45;&gt;mu -->
<g id="edge21" class="edge">
<title>b_day_of_week&#45;&gt;mu</title>
<path fill="none" stroke="black" d="M1479.59,-376.46C1464.79,-362.5 1446.09,-348.13 1426,-340.63 1399.66,-330.81 947.96,-335.62 920,-332.63 871.44,-327.45 817.11,-316.25 777.5,-307.07"/>
<polygon fill="black" stroke="black" points="778.49,-303.71 767.95,-304.83 776.89,-310.52 778.49,-303.71"/>
</g>
<!-- b_day_of_year2&#45;&gt;mu -->
<g id="edge22" class="edge">
<title>b_day_of_year2&#45;&gt;mu</title>
<path fill="none" stroke="black" d="M1654.45,-376.81C1639.78,-362.73 1621.13,-348.16 1601,-340.63 1565.56,-327.38 957.63,-336.57 920,-332.63 871.42,-327.55 817.1,-316.34 777.5,-307.13"/>
<polygon fill="black" stroke="black" points="778.49,-303.77 767.95,-304.88 776.88,-310.59 778.49,-303.77"/>
</g>
</g>
</svg>
