<?xml version="1.0" encoding="UTF-8" standalone="no"?>
<!DOCTYPE svg PUBLIC "-//W3C//DTD SVG 1.1//EN"
 "http://www.w3.org/Graphics/SVG/1.1/DTD/svg11.dtd">
<!-- Generated by graphviz version 14.1.2 (0)
 -->
<!-- Pages: 1 -->
<svg width="880pt" height="556pt"
 viewBox="0.00 0.00 880.00 556.00" xmlns="http://www.w3.org/2000/svg" xmlns:xlink="http://www.w3.org/1999/xlink">
<g id="graph0" class="graph" transform="scale(1 1) rotate(0) translate(4 551.95)">
<polygon fill="white" stroke="none" points="-4,4 -4,-551.95 876.01,-551.95 876.01,4 -4,4"/>
<g id="clust1" class="cluster">
<title>clusterid (2000)</title>
<path fill="none" stroke="black" d="M20,-8C20,-8 138,-8 138,-8 144,-8 150,-14 150,-20 150,-20 150,-414.73 150,-414.73 150,-420.73 144,-426.73 138,-426.73 138,-426.73 20,-426.73 20,-426.73 14,-426.73 8,-420.73 8,-414.73 8,-414.73 8,-20 8,-20 8,-14 14,-8 20,-8"/>
<text xml:space="preserve" text-anchor="middle" x="116.88" y="-15.2" font-family="Times,serif" font-size="14.00">id (2000)</text>
</g>
<g id="clust2" class="cluster">
<title>clustergroup (30)</title>
<path fill="none" stroke="black" d="M202,-316.82C202,-316.82 436,-316.82 436,-316.82 442,-316.82 448,-322.82 448,-328.82 448,-328.82 448,-426.63 448,-426.63 448,-432.63 442,-438.63 436,-438.63 436,-438.63 202,-438.63 202,-438.63 196,-438.63 190,-432.63 190,-426.63 190,-426.63 190,-328.82 190,-328.82 190,-322.82 196,-316.82 202,-316.82"/>
<text xml:space="preserve" text-anchor="middle" x="411.12" y="-324.02" font-family="Times,serif" font-size="14.00">group (30)</text>
</g>
<!-- y_obs -->
<g id="node1" class="node">
<title>y_obs</title>
<ellipse fill="lightgrey" stroke="black" cx="95" cy="-174.66" rx="47.38" ry="40.66"/>
<text xml:space="preserve" text-anchor="middle" x="95" y="-186.11" font-family="Times,serif" font-size="14.00">y_obs</text>
<text xml:space="preserve" text-anchor="middle" x="95" y="-169.61" font-family="Times,serif" font-size="14.00">~</text>
<text xml:space="preserve" text-anchor="middle" x="95" y="-153.11" font-family="Times,serif" font-size="14.00">Bernoulli</text>
</g>
<!-- y_data -->
<g id="node5" class="node">
<title>y_data</title>
<path fill="lightgrey" stroke="black" d="M110,-98C110,-98 80,-98 80,-98 74,-98 68,-92 68,-86 68,-86 68,-52.5 68,-52.5 68,-46.5 74,-40.5 80,-40.5 80,-40.5 110,-40.5 110,-40.5 116,-40.5 122,-46.5 122,-52.5 122,-52.5 122,-86 122,-86 122,-92 116,-98 110,-98"/>
<text xml:space="preserve" text-anchor="middle" x="95" y="-80.7" font-family="Times,serif" font-size="14.00">y_data</text>
<text xml:space="preserve" text-anchor="middle" x="95" y="-64.2" font-family="Times,serif" font-size="14.00">~</text>
<text xml:space="preserve" text-anchor="middle" x="95" y="-47.7" font-family="Times,serif" font-size="14.00">Data</text>
</g>
<!-- y_obs&#45;&gt;y_data -->
<g id="edge1" class="edge">
<title>y_obs&#45;&gt;y_data</title>
<path fill="none" stroke="black" d="M95,-133.68C95,-125.83 95,-117.6 95,-109.76"/>
<polygon fill="black" stroke="black" points="98.5,-109.79 95,-99.79 91.5,-109.79 98.5,-109.79"/>
</g>
<!-- g_data -->
<g id="node2" class="node">
<title>g_data</title>
<path fill="lightgrey" stroke="black" d="M58,-418.73C58,-418.73 28,-418.73 28,-418.73 22,-418.73 16,-412.73 16,-406.73 16,-406.73 16,-373.23 16,-373.23 16,-367.23 22,-361.23 28,-361.23 28,-361.23 58,-361.23 58,-361.23 64,-361.23 70,-367.23 70,-373.23 70,-373.23 70,-406.73 70,-406.73 70,-412.73 64,-418.73 58,-418.73"/>
<text xml:space="preserve" text-anchor="middle" x="43" y="-401.43" font-family="Times,serif" font-size="14.00">g_data</text>
<text xml:space="preserve" text-anchor="middle" x="43" y="-384.93" font-family="Times,serif" font-size="14.00">~</text>
<text xml:space="preserve" text-anchor="middle" x="43" y="-368.43" font-family="Times,serif" font-size="14.00">Data</text>
</g>
<!-- p -->
<g id="node3" class="node">
<title>p</title>
<polygon fill="none" stroke="black" points="142.12,-308.82 51.88,-308.82 51.88,-251.32 142.12,-251.32 142.12,-308.82"/>
<text xml:space="preserve" text-anchor="middle" x="97" y="-291.52" font-family="Times,serif" font-size="14.00">p</text>
<text xml:space="preserve" text-anchor="middle" x="97" y="-275.02" font-family="Times,serif" font-size="14.00">~</text>
<text xml:space="preserve" text-anchor="middle" x="97" y="-258.52" font-family="Times,serif" font-size="14.00">Deterministic</text>
</g>
<!-- g_data&#45;&gt;p -->
<g id="edge8" class="edge">
<title>g_data&#45;&gt;p</title>
<path fill="none" stroke="black" d="M57,-360.86C62.61,-349.6 69.23,-336.32 77.85,-319.13"/>
<polygon fill="black" stroke="black" points="80.81,-321.03 82.16,-310.52 74.55,-317.89 80.81,-321.03"/>
</g>
<!-- p&#45;&gt;y_obs -->
<g id="edge13" class="edge">
<title>p&#45;&gt;y_obs</title>
<path fill="none" stroke="black" d="M96.46,-251.08C96.31,-243.6 96.15,-235.27 95.99,-226.95"/>
<polygon fill="black" stroke="black" points="99.5,-227.14 95.8,-217.21 92.5,-227.28 99.5,-227.14"/>
</g>
<!-- x_data -->
<g id="node4" class="node">
<title>x_data</title>
<path fill="lightgrey" stroke="black" d="M130,-418.73C130,-418.73 100,-418.73 100,-418.73 94,-418.73 88,-412.73 88,-406.73 88,-406.73 88,-373.23 88,-373.23 88,-367.23 94,-361.23 100,-361.23 100,-361.23 130,-361.23 130,-361.23 136,-361.23 142,-367.23 142,-373.23 142,-373.23 142,-406.73 142,-406.73 142,-412.73 136,-418.73 130,-418.73"/>
<text xml:space="preserve" text-anchor="middle" x="115" y="-401.43" font-family="Times,serif" font-size="14.00">x_data</text>
<text xml:space="preserve" text-anchor="middle" x="115" y="-384.93" font-family="Times,serif" font-size="14.00">~</text>
<text xml:space="preserve" text-anchor="middle" x="115" y="-368.43" font-family="Times,serif" font-size="14.00">Data</text>
</g>
<!-- x_data&#45;&gt;p -->
<g id="edge9" class="edge">
<title>x_data&#45;&gt;p</title>
<path fill="none" stroke="black" d="M110.32,-360.91C108.23,-348.42 105.75,-333.5 103.49,-319.96"/>
<polygon fill="black" stroke="black" points="107.01,-319.78 101.91,-310.49 100.1,-320.93 107.01,-319.78"/>
</g>
<!-- xbar_data -->
<g id="node6" class="node">
<title>xbar_data</title>
<path fill="lightgrey" stroke="black" d="M255.62,-418.73C255.62,-418.73 210.38,-418.73 210.38,-418.73 204.38,-418.73 198.38,-412.73 198.38,-406.73 198.38,-406.73 198.38,-373.23 198.38,-373.23 198.38,-367.23 204.38,-361.23 210.38,-361.23 210.38,-361.23 255.62,-361.23 255.62,-361.23 261.62,-361.23 267.62,-367.23 267.62,-373.23 267.62,-373.23 267.62,-406.73 267.62,-406.73 267.62,-412.73 261.62,-418.73 255.62,-418.73"/>
<text xml:space="preserve" text-anchor="middle" x="233" y="-401.43" font-family="Times,serif" font-size="14.00">xbar_data</text>
<text xml:space="preserve" text-anchor="middle" x="233" y="-384.93" font-family="Times,serif" font-size="14.00">~</text>
<text xml:space="preserve" text-anchor="middle" x="233" y="-368.43" font-family="Times,serif" font-size="14.00">Data</text>
</g>
<!-- xbar_data&#45;&gt;p -->
<g id="edge3" class="edge">
<title>xbar_data&#45;&gt;p</title>
<path fill="none" stroke="black" d="M219.18,-361C210.72,-346.23 198.69,-328.75 184,-316.82 174.78,-309.33 163.77,-303.21 152.74,-298.28"/>
<polygon fill="black" stroke="black" points="154.19,-295.1 143.61,-294.5 151.51,-301.56 154.19,-295.1"/>
</g>
<!-- z -->
<g id="node7" class="node">
<title>z</title>
<ellipse fill="none" stroke="black" cx="327" cy="-389.98" rx="41.01" ry="40.66"/>
<text xml:space="preserve" text-anchor="middle" x="327" y="-401.43" font-family="Times,serif" font-size="14.00">z</text>
<text xml:space="preserve" text-anchor="middle" x="327" y="-384.93" font-family="Times,serif" font-size="14.00">~</text>
<text xml:space="preserve" text-anchor="middle" x="327" y="-368.43" font-family="Times,serif" font-size="14.00">Normal</text>
</g>
<!-- z&#45;&gt;p -->
<g id="edge4" class="edge">
<title>z&#45;&gt;p</title>
<path fill="none" stroke="black" d="M309.53,-352.81C301.4,-339.57 290.51,-325.68 277,-316.82 240.42,-292.83 191.3,-284.29 153.62,-281.53"/>
<polygon fill="black" stroke="black" points="154.02,-278.04 143.83,-280.93 153.6,-285.03 154.02,-278.04"/>
</g>
<!-- z_data -->
<g id="node8" class="node">
<title>z_data</title>
<path fill="lightgrey" stroke="black" d="M428,-418.73C428,-418.73 398,-418.73 398,-418.73 392,-418.73 386,-412.73 386,-406.73 386,-406.73 386,-373.23 386,-373.23 386,-367.23 392,-361.23 398,-361.23 398,-361.23 428,-361.23 428,-361.23 434,-361.23 440,-367.23 440,-373.23 440,-373.23 440,-406.73 440,-406.73 440,-412.73 434,-418.73 428,-418.73"/>
<text xml:space="preserve" text-anchor="middle" x="413" y="-401.43" font-family="Times,serif" font-size="14.00">z_data</text>
<text xml:space="preserve" text-anchor="middle" x="413" y="-384.93" font-family="Times,serif" font-size="14.00">~</text>
<text xml:space="preserve" text-anchor="middle" x="413" y="-368.43" font-family="Times,serif" font-size="14.00">Data</text>
</g>
<!-- z_data&#45;&gt;p -->
<g id="edge11" class="edge">
<title>z_data&#45;&gt;p</title>
<path fill="none" stroke="black" d="M406.08,-361.04C400.75,-345.52 391.72,-327.27 377,-316.82 342.23,-292.12 225.3,-284.48 154.01,-282.12"/>
<polygon fill="black" stroke="black" points="154.16,-278.62 144.06,-281.82 153.95,-285.62 154.16,-278.62"/>
</g>
<!-- abar -->
<g id="node9" class="node">
<title>abar</title>
<ellipse fill="none" stroke="black" cx="248" cy="-507.29" rx="41.01" ry="40.66"/>
<text xml:space="preserve" text-anchor="middle" x="248" y="-518.74" font-family="Times,serif" font-size="14.00">abar</text>
<text xml:space="preserve" text-anchor="middle" x="248" y="-502.24" font-family="Times,serif" font-size="14.00">~</text>
<text xml:space="preserve" text-anchor="middle" x="248" y="-485.74" font-family="Times,serif" font-size="14.00">Normal</text>
</g>
<!-- abar&#45;&gt;p -->
<g id="edge5" class="edge">
<title>abar&#45;&gt;p</title>
<path fill="none" stroke="black" d="M217.91,-479.33C206.53,-467.77 194.33,-453.51 186,-438.63 158.46,-389.49 184.32,-362.24 151,-316.82 150.77,-316.5 150.53,-316.19 150.3,-315.88"/>
<polygon fill="black" stroke="black" points="152.9,-313.54 143.56,-308.54 147.75,-318.28 152.9,-313.54"/>
</g>
<!-- abar&#45;&gt;z -->
<g id="edge2" class="edge">
<title>abar&#45;&gt;z</title>
<path fill="none" stroke="black" d="M270.85,-472.94C279.28,-460.63 288.96,-446.51 297.87,-433.49"/>
<polygon fill="black" stroke="black" points="300.58,-435.73 303.35,-425.5 294.81,-431.78 300.58,-435.73"/>
</g>
<!-- buy -->
<g id="node10" class="node">
<title>buy</title>
<ellipse fill="none" stroke="black" cx="499" cy="-389.98" rx="41.01" ry="40.66"/>
<text xml:space="preserve" text-anchor="middle" x="499" y="-401.43" font-family="Times,serif" font-size="14.00">buy</text>
<text xml:space="preserve" text-anchor="middle" x="499" y="-384.93" font-family="Times,serif" font-size="14.00">~</text>
<text xml:space="preserve" text-anchor="middle" x="499" y="-368.43" font-family="Times,serif" font-size="14.00">Normal</text>
</g>
<!-- buy&#45;&gt;p -->
<g id="edge6" class="edge">
<title>buy&#45;&gt;p</title>
<path fill="none" stroke="black" d="M483.44,-352.18C475.92,-338.85 465.54,-325.06 452,-316.82 403.33,-287.18 241.25,-281.68 153.91,-280.93"/>
<polygon fill="black" stroke="black" points="154.15,-277.43 144.13,-280.86 154.11,-284.43 154.15,-277.43"/>
</g>
<!-- tau -->
<g id="node11" class="node">
<title>tau</title>
<ellipse fill="none" stroke="black" cx="615" cy="-389.98" rx="57.45" ry="40.66"/>
<text xml:space="preserve" text-anchor="middle" x="615" y="-401.43" font-family="Times,serif" font-size="14.00">tau</text>
<text xml:space="preserve" text-anchor="middle" x="615" y="-384.93" font-family="Times,serif" font-size="14.00">~</text>
<text xml:space="preserve" text-anchor="middle" x="615" y="-368.43" font-family="Times,serif" font-size="14.00">Exponential</text>
</g>
<!-- tau&#45;&gt;p -->
<g id="edge7" class="edge">
<title>tau&#45;&gt;p</title>
<path fill="none" stroke="black" d="M590.85,-352.58C579.8,-338.97 565.47,-324.87 549,-316.82 480.83,-283.51 259.02,-280.09 153.62,-280.44"/>
<polygon fill="black" stroke="black" points="153.77,-276.94 143.78,-280.48 153.8,-283.94 153.77,-276.94"/>
</g>
<!-- bzy -->
<g id="node12" class="node">
<title>bzy</title>
<ellipse fill="none" stroke="black" cx="731" cy="-389.98" rx="41.01" ry="40.66"/>
<text xml:space="preserve" text-anchor="middle" x="731" y="-401.43" font-family="Times,serif" font-size="14.00">bzy</text>
<text xml:space="preserve" text-anchor="middle" x="731" y="-384.93" font-family="Times,serif" font-size="14.00">~</text>
<text xml:space="preserve" text-anchor="middle" x="731" y="-368.43" font-family="Times,serif" font-size="14.00">Normal</text>
</g>
<!-- bzy&#45;&gt;p -->
<g id="edge10" class="edge">
<title>bzy&#45;&gt;p</title>
<path fill="none" stroke="black" d="M714.57,-352.61C706.48,-339 695.34,-324.9 681,-316.82 635.81,-291.36 290.95,-283.77 153.39,-281.74"/>
<polygon fill="black" stroke="black" points="153.85,-278.24 143.8,-281.6 153.75,-285.24 153.85,-278.24"/>
</g>
<!-- bxy -->
<g id="node13" class="node">
<title>bxy</title>
<ellipse fill="none" stroke="black" cx="831" cy="-389.98" rx="41.01" ry="40.66"/>
<text xml:space="preserve" text-anchor="middle" x="831" y="-401.43" font-family="Times,serif" font-size="14.00">bxy</text>
<text xml:space="preserve" text-anchor="middle" x="831" y="-384.93" font-family="Times,serif" font-size="14.00">~</text>
<text xml:space="preserve" text-anchor="middle" x="831" y="-368.43" font-family="Times,serif" font-size="14.00">Normal</text>
</g>
<!-- bxy&#45;&gt;p -->
<g id="edge12" class="edge">
<title>bxy&#45;&gt;p</title>
<path fill="none" stroke="black" d="M814.6,-352.55C806.52,-338.93 795.38,-324.83 781,-316.82 726.88,-286.65 307.55,-281.91 153.52,-281.19"/>
<polygon fill="black" stroke="black" points="153.99,-277.69 143.97,-281.15 153.96,-284.69 153.99,-277.69"/>
</g>
</g>
</svg>
