<?xml version="1.0" encoding="UTF-8" standalone="no"?>
<!DOCTYPE svg PUBLIC "-//W3C//DTD SVG 1.1//EN"
 "http://www.w3.org/Graphics/SVG/1.1/DTD/svg11.dtd">
<!-- Generated by graphviz version 14.1.2 (0)
 -->
<!-- Pages: 1 -->
<svg width="530pt" height="438pt"
 viewBox="0.00 0.00 530.00 438.00" xmlns="http://www.w3.org/2000/svg" xmlns:xlink="http://www.w3.org/1999/xlink">
<g id="graph0" class="graph" transform="scale(1 1) rotate(0) translate(4 434.23)">
<polygon fill="white" stroke="none" points="-4,4 -4,-434.23 526.01,-434.23 526.01,4 -4,4"/>
<g id="clust1" class="cluster">
<title>clusterid (2000)</title>
<path fill="none" stroke="black" d="M20,-8C20,-8 138,-8 138,-8 144,-8 150,-14 150,-20 150,-20 150,-410.23 150,-410.23 150,-416.23 144,-422.23 138,-422.23 138,-422.23 20,-422.23 20,-422.23 14,-422.23 8,-416.23 8,-410.23 8,-410.23 8,-20 8,-20 8,-14 14,-8 20,-8"/>
<text xml:space="preserve" text-anchor="middle" x="116.88" y="-15.2" font-family="Times,serif" font-size="14.00">id (2000)</text>
</g>
<g id="clust2" class="cluster">
<title>clustergroup (30)</title>
<path fill="none" stroke="black" d="M170,-324.23C170,-324.23 220,-324.23 220,-324.23 226,-324.23 232,-330.23 232,-336.23 232,-336.23 232,-410.23 232,-410.23 232,-416.23 226,-422.23 220,-422.23 220,-422.23 170,-422.23 170,-422.23 164,-422.23 158,-416.23 158,-410.23 158,-410.23 158,-336.23 158,-336.23 158,-330.23 164,-324.23 170,-324.23"/>
<text xml:space="preserve" text-anchor="middle" x="195.12" y="-331.43" font-family="Times,serif" font-size="14.00">group (30)</text>
</g>
<!-- y_obs -->
<g id="node1" class="node">
<title>y_obs</title>
<ellipse fill="lightgrey" stroke="black" cx="95" cy="-174.66" rx="47.38" ry="40.66"/>
<text xml:space="preserve" text-anchor="middle" x="95" y="-186.11" font-family="Times,serif" font-size="14.00">y_obs</text>
<text xml:space="preserve" text-anchor="middle" x="95" y="-169.61" font-family="Times,serif" font-size="14.00">~</text>
<text xml:space="preserve" text-anchor="middle" x="95" y="-153.11" font-family="Times,serif" font-size="14.00">Bernoulli</text>
</g>
<!-- y_data -->
<g id="node5" class="node">
<title>y_data</title>
<path fill="lightgrey" stroke="black" d="M110,-98C110,-98 80,-98 80,-98 74,-98 68,-92 68,-86 68,-86 68,-52.5 68,-52.5 68,-46.5 74,-40.5 80,-40.5 80,-40.5 110,-40.5 110,-40.5 116,-40.5 122,-46.5 122,-52.5 122,-52.5 122,-86 122,-86 122,-92 116,-98 110,-98"/>
<text xml:space="preserve" text-anchor="middle" x="95" y="-80.7" font-family="Times,serif" font-size="14.00">y_data</text>
<text xml:space="preserve" text-anchor="middle" x="95" y="-64.2" font-family="Times,serif" font-size="14.00">~</text>
<text xml:space="preserve" text-anchor="middle" x="95" y="-47.7" font-family="Times,serif" font-size="14.00">Data</text>
</g>
<!-- y_obs&#45;&gt;y_data -->
<g id="edge1" class="edge">
<title>y_obs&#45;&gt;y_data</title>
<path fill="none" stroke="black" d="M95,-133.68C95,-125.83 95,-117.6 95,-109.76"/>
<polygon fill="black" stroke="black" points="98.5,-109.79 95,-99.79 91.5,-109.79 98.5,-109.79"/>
</g>
<!-- g_data -->
<g id="node2" class="node">
<title>g_data</title>
<path fill="lightgrey" stroke="black" d="M58,-414.23C58,-414.23 28,-414.23 28,-414.23 22,-414.23 16,-408.23 16,-402.23 16,-402.23 16,-368.73 16,-368.73 16,-362.73 22,-356.73 28,-356.73 28,-356.73 58,-356.73 58,-356.73 64,-356.73 70,-362.73 70,-368.73 70,-368.73 70,-402.23 70,-402.23 70,-408.23 64,-414.23 58,-414.23"/>
<text xml:space="preserve" text-anchor="middle" x="43" y="-396.93" font-family="Times,serif" font-size="14.00">g_data</text>
<text xml:space="preserve" text-anchor="middle" x="43" y="-380.43" font-family="Times,serif" font-size="14.00">~</text>
<text xml:space="preserve" text-anchor="middle" x="43" y="-363.93" font-family="Times,serif" font-size="14.00">Data</text>
</g>
<!-- p -->
<g id="node3" class="node">
<title>p</title>
<polygon fill="none" stroke="black" points="142.12,-308.82 51.88,-308.82 51.88,-251.32 142.12,-251.32 142.12,-308.82"/>
<text xml:space="preserve" text-anchor="middle" x="97" y="-291.52" font-family="Times,serif" font-size="14.00">p</text>
<text xml:space="preserve" text-anchor="middle" x="97" y="-275.02" font-family="Times,serif" font-size="14.00">~</text>
<text xml:space="preserve" text-anchor="middle" x="97" y="-258.52" font-family="Times,serif" font-size="14.00">Deterministic</text>
</g>
<!-- g_data&#45;&gt;p -->
<g id="edge4" class="edge">
<title>g_data&#45;&gt;p</title>
<path fill="none" stroke="black" d="M57.61,-356.49C63.62,-345 70.66,-331.5 77.12,-319.13"/>
<polygon fill="black" stroke="black" points="80.15,-320.9 81.67,-310.42 73.94,-317.66 80.15,-320.9"/>
</g>
<!-- p&#45;&gt;y_obs -->
<g id="edge8" class="edge">
<title>p&#45;&gt;y_obs</title>
<path fill="none" stroke="black" d="M96.46,-251.08C96.31,-243.6 96.15,-235.27 95.99,-226.95"/>
<polygon fill="black" stroke="black" points="99.5,-227.14 95.8,-217.21 92.5,-227.28 99.5,-227.14"/>
</g>
<!-- x_data -->
<g id="node4" class="node">
<title>x_data</title>
<path fill="lightgrey" stroke="black" d="M130,-414.23C130,-414.23 100,-414.23 100,-414.23 94,-414.23 88,-408.23 88,-402.23 88,-402.23 88,-368.73 88,-368.73 88,-362.73 94,-356.73 100,-356.73 100,-356.73 130,-356.73 130,-356.73 136,-356.73 142,-362.73 142,-368.73 142,-368.73 142,-402.23 142,-402.23 142,-408.23 136,-414.23 130,-414.23"/>
<text xml:space="preserve" text-anchor="middle" x="115" y="-396.93" font-family="Times,serif" font-size="14.00">x_data</text>
<text xml:space="preserve" text-anchor="middle" x="115" y="-380.43" font-family="Times,serif" font-size="14.00">~</text>
<text xml:space="preserve" text-anchor="middle" x="115" y="-363.93" font-family="Times,serif" font-size="14.00">Data</text>
</g>
<!-- x_data&#45;&gt;p -->
<g id="edge2" class="edge">
<title>x_data&#45;&gt;p</title>
<path fill="none" stroke="black" d="M110.13,-356.49C108.19,-345.34 105.92,-332.31 103.82,-320.25"/>
<polygon fill="black" stroke="black" points="107.3,-319.82 102.13,-310.56 100.4,-321.02 107.3,-319.82"/>
</g>
<!-- z_data -->
<g id="node6" class="node">
<title>z_data</title>
<path fill="lightgrey" stroke="black" d="M208,-414.23C208,-414.23 178,-414.23 178,-414.23 172,-414.23 166,-408.23 166,-402.23 166,-402.23 166,-368.73 166,-368.73 166,-362.73 172,-356.73 178,-356.73 178,-356.73 208,-356.73 208,-356.73 214,-356.73 220,-362.73 220,-368.73 220,-368.73 220,-402.23 220,-402.23 220,-408.23 214,-414.23 208,-414.23"/>
<text xml:space="preserve" text-anchor="middle" x="193" y="-396.93" font-family="Times,serif" font-size="14.00">z_data</text>
<text xml:space="preserve" text-anchor="middle" x="193" y="-380.43" font-family="Times,serif" font-size="14.00">~</text>
<text xml:space="preserve" text-anchor="middle" x="193" y="-363.93" font-family="Times,serif" font-size="14.00">Data</text>
</g>
<!-- z_data&#45;&gt;p -->
<g id="edge5" class="edge">
<title>z_data&#45;&gt;p</title>
<path fill="none" stroke="black" d="M177.59,-356.32C171.07,-345.67 162.9,-333.81 154,-324.23 151.55,-321.59 148.92,-319 146.19,-316.47"/>
<polygon fill="black" stroke="black" points="148.73,-314.04 138.9,-310.11 144.14,-319.32 148.73,-314.04"/>
</g>
<!-- a0 -->
<g id="node7" class="node">
<title>a0</title>
<ellipse fill="none" stroke="black" cx="281" cy="-385.48" rx="41.01" ry="40.66"/>
<text xml:space="preserve" text-anchor="middle" x="281" y="-396.93" font-family="Times,serif" font-size="14.00">a0</text>
<text xml:space="preserve" text-anchor="middle" x="281" y="-380.43" font-family="Times,serif" font-size="14.00">~</text>
<text xml:space="preserve" text-anchor="middle" x="281" y="-363.93" font-family="Times,serif" font-size="14.00">Normal</text>
</g>
<!-- a0&#45;&gt;p -->
<g id="edge6" class="edge">
<title>a0&#45;&gt;p</title>
<path fill="none" stroke="black" d="M260.88,-349.88C254.01,-340.47 245.6,-331.01 236,-324.23 211.71,-307.06 180.38,-296.56 153.61,-290.22"/>
<polygon fill="black" stroke="black" points="154.45,-286.82 143.93,-288.08 152.94,-293.66 154.45,-286.82"/>
</g>
<!-- bzy -->
<g id="node8" class="node">
<title>bzy</title>
<ellipse fill="none" stroke="black" cx="381" cy="-385.48" rx="41.01" ry="40.66"/>
<text xml:space="preserve" text-anchor="middle" x="381" y="-396.93" font-family="Times,serif" font-size="14.00">bzy</text>
<text xml:space="preserve" text-anchor="middle" x="381" y="-380.43" font-family="Times,serif" font-size="14.00">~</text>
<text xml:space="preserve" text-anchor="middle" x="381" y="-363.93" font-family="Times,serif" font-size="14.00">Normal</text>
</g>
<!-- bzy&#45;&gt;p -->
<g id="edge3" class="edge">
<title>bzy&#45;&gt;p</title>
<path fill="none" stroke="black" d="M359.52,-350.39C351.69,-340.53 342.02,-330.69 331,-324.23 276.45,-292.24 203.47,-283.08 153.6,-280.88"/>
<polygon fill="black" stroke="black" points="154.02,-277.39 143.9,-280.54 153.78,-284.39 154.02,-277.39"/>
</g>
<!-- bxy -->
<g id="node9" class="node">
<title>bxy</title>
<ellipse fill="none" stroke="black" cx="481" cy="-385.48" rx="41.01" ry="40.66"/>
<text xml:space="preserve" text-anchor="middle" x="481" y="-396.93" font-family="Times,serif" font-size="14.00">bxy</text>
<text xml:space="preserve" text-anchor="middle" x="481" y="-380.43" font-family="Times,serif" font-size="14.00">~</text>
<text xml:space="preserve" text-anchor="middle" x="481" y="-363.93" font-family="Times,serif" font-size="14.00">Normal</text>
</g>
<!-- bxy&#45;&gt;p -->
<g id="edge7" class="edge">
<title>bxy&#45;&gt;p</title>
<path fill="none" stroke="black" d="M459.97,-350.35C452.11,-340.36 442.31,-330.45 431,-324.23 384.58,-298.67 236.42,-287.66 153.89,-283.42"/>
<polygon fill="black" stroke="black" points="154.12,-279.93 143.96,-282.93 153.78,-286.92 154.12,-279.93"/>
</g>
</g>
</svg>
