<?xml version="1.0" encoding="UTF-8" standalone="no"?>
<!DOCTYPE svg PUBLIC "-//W3C//DTD SVG 1.1//EN"
 "http://www.w3.org/Graphics/SVG/1.1/DTD/svg11.dtd">
<!-- Generated by graphviz version 14.1.2 (0)
 -->
<!-- Pages: 1 -->
<svg width="692pt" height="556pt"
 viewBox="0.00 0.00 692.00 556.00" xmlns="http://www.w3.org/2000/svg" xmlns:xlink="http://www.w3.org/1999/xlink">
<g id="graph0" class="graph" transform="scale(1 1) rotate(0) translate(4 551.95)">
<polygon fill="white" stroke="none" points="-4,4 -4,-551.95 688.01,-551.95 688.01,4 -4,4"/>
<g id="clust1" class="cluster">
<title>clusterid (2000)</title>
<path fill="none" stroke="black" d="M20,-8C20,-8 138,-8 138,-8 144,-8 150,-14 150,-20 150,-20 150,-414.73 150,-414.73 150,-420.73 144,-426.73 138,-426.73 138,-426.73 20,-426.73 20,-426.73 14,-426.73 8,-420.73 8,-414.73 8,-414.73 8,-20 8,-20 8,-14 14,-8 20,-8"/>
<text xml:space="preserve" text-anchor="middle" x="116.88" y="-15.2" font-family="Times,serif" font-size="14.00">id (2000)</text>
</g>
<g id="clust2" class="cluster">
<title>clustergroup (30)</title>
<path fill="none" stroke="black" d="M202,-316.82C202,-316.82 348,-316.82 348,-316.82 354,-316.82 360,-322.82 360,-328.82 360,-328.82 360,-426.63 360,-426.63 360,-432.63 354,-438.63 348,-438.63 348,-438.63 202,-438.63 202,-438.63 196,-438.63 190,-432.63 190,-426.63 190,-426.63 190,-328.82 190,-328.82 190,-322.82 196,-316.82 202,-316.82"/>
<text xml:space="preserve" text-anchor="middle" x="323.12" y="-324.02" font-family="Times,serif" font-size="14.00">group (30)</text>
</g>
<!-- y_obs -->
<g id="node1" class="node">
<title>y_obs</title>
<ellipse fill="lightgrey" stroke="black" cx="95" cy="-174.66" rx="47.38" ry="40.66"/>
<text xml:space="preserve" text-anchor="middle" x="95" y="-186.11" font-family="Times,serif" font-size="14.00">y_obs</text>
<text xml:space="preserve" text-anchor="middle" x="95" y="-169.61" font-family="Times,serif" font-size="14.00">~</text>
<text xml:space="preserve" text-anchor="middle" x="95" y="-153.11" font-family="Times,serif" font-size="14.00">Bernoulli</text>
</g>
<!-- y_data -->
<g id="node5" class="node">
<title>y_data</title>
<path fill="lightgrey" stroke="black" d="M110,-98C110,-98 80,-98 80,-98 74,-98 68,-92 68,-86 68,-86 68,-52.5 68,-52.5 68,-46.5 74,-40.5 80,-40.5 80,-40.5 110,-40.5 110,-40.5 116,-40.5 122,-46.5 122,-52.5 122,-52.5 122,-86 122,-86 122,-92 116,-98 110,-98"/>
<text xml:space="preserve" text-anchor="middle" x="95" y="-80.7" font-family="Times,serif" font-size="14.00">y_data</text>
<text xml:space="preserve" text-anchor="middle" x="95" y="-64.2" font-family="Times,serif" font-size="14.00">~</text>
<text xml:space="preserve" text-anchor="middle" x="95" y="-47.7" font-family="Times,serif" font-size="14.00">Data</text>
</g>
<!-- y_obs&#45;&gt;y_data -->
<g id="edge1" class="edge">
<title>y_obs&#45;&gt;y_data</title>
<path fill="none" stroke="black" d="M95,-133.68C95,-125.83 95,-117.6 95,-109.76"/>
<polygon fill="black" stroke="black" points="98.5,-109.79 95,-99.79 91.5,-109.79 98.5,-109.79"/>
</g>
<!-- g_data -->
<g id="node2" class="node">
<title>g_data</title>
<path fill="lightgrey" stroke="black" d="M58,-418.73C58,-418.73 28,-418.73 28,-418.73 22,-418.73 16,-412.73 16,-406.73 16,-406.73 16,-373.23 16,-373.23 16,-367.23 22,-361.23 28,-361.23 28,-361.23 58,-361.23 58,-361.23 64,-361.23 70,-367.23 70,-373.23 70,-373.23 70,-406.73 70,-406.73 70,-412.73 64,-418.73 58,-418.73"/>
<text xml:space="preserve" text-anchor="middle" x="43" y="-401.43" font-family="Times,serif" font-size="14.00">g_data</text>
<text xml:space="preserve" text-anchor="middle" x="43" y="-384.93" font-family="Times,serif" font-size="14.00">~</text>
<text xml:space="preserve" text-anchor="middle" x="43" y="-368.43" font-family="Times,serif" font-size="14.00">Data</text>
</g>
<!-- p -->
<g id="node3" class="node">
<title>p</title>
<polygon fill="none" stroke="black" points="142.12,-308.82 51.88,-308.82 51.88,-251.32 142.12,-251.32 142.12,-308.82"/>
<text xml:space="preserve" text-anchor="middle" x="97" y="-291.52" font-family="Times,serif" font-size="14.00">p</text>
<text xml:space="preserve" text-anchor="middle" x="97" y="-275.02" font-family="Times,serif" font-size="14.00">~</text>
<text xml:space="preserve" text-anchor="middle" x="97" y="-258.52" font-family="Times,serif" font-size="14.00">Deterministic</text>
</g>
<!-- g_data&#45;&gt;p -->
<g id="edge6" class="edge">
<title>g_data&#45;&gt;p</title>
<path fill="none" stroke="black" d="M57,-360.86C62.61,-349.6 69.23,-336.32 77.85,-319.13"/>
<polygon fill="black" stroke="black" points="80.81,-321.03 82.16,-310.52 74.55,-317.89 80.81,-321.03"/>
</g>
<!-- p&#45;&gt;y_obs -->
<g id="edge11" class="edge">
<title>p&#45;&gt;y_obs</title>
<path fill="none" stroke="black" d="M96.46,-251.08C96.31,-243.6 96.15,-235.27 95.99,-226.95"/>
<polygon fill="black" stroke="black" points="99.5,-227.14 95.8,-217.21 92.5,-227.28 99.5,-227.14"/>
</g>
<!-- x_data -->
<g id="node4" class="node">
<title>x_data</title>
<path fill="lightgrey" stroke="black" d="M130,-418.73C130,-418.73 100,-418.73 100,-418.73 94,-418.73 88,-412.73 88,-406.73 88,-406.73 88,-373.23 88,-373.23 88,-367.23 94,-361.23 100,-361.23 100,-361.23 130,-361.23 130,-361.23 136,-361.23 142,-367.23 142,-373.23 142,-373.23 142,-406.73 142,-406.73 142,-412.73 136,-418.73 130,-418.73"/>
<text xml:space="preserve" text-anchor="middle" x="115" y="-401.43" font-family="Times,serif" font-size="14.00">x_data</text>
<text xml:space="preserve" text-anchor="middle" x="115" y="-384.93" font-family="Times,serif" font-size="14.00">~</text>
<text xml:space="preserve" text-anchor="middle" x="115" y="-368.43" font-family="Times,serif" font-size="14.00">Data</text>
</g>
<!-- x_data&#45;&gt;p -->
<g id="edge7" class="edge">
<title>x_data&#45;&gt;p</title>
<path fill="none" stroke="black" d="M110.32,-360.91C108.23,-348.42 105.75,-333.5 103.49,-319.96"/>
<polygon fill="black" stroke="black" points="107.01,-319.78 101.91,-310.49 100.1,-320.93 107.01,-319.78"/>
</g>
<!-- z -->
<g id="node6" class="node">
<title>z</title>
<ellipse fill="none" stroke="black" cx="239" cy="-389.98" rx="41.01" ry="40.66"/>
<text xml:space="preserve" text-anchor="middle" x="239" y="-401.43" font-family="Times,serif" font-size="14.00">z</text>
<text xml:space="preserve" text-anchor="middle" x="239" y="-384.93" font-family="Times,serif" font-size="14.00">~</text>
<text xml:space="preserve" text-anchor="middle" x="239" y="-368.43" font-family="Times,serif" font-size="14.00">Normal</text>
</g>
<!-- z&#45;&gt;p -->
<g id="edge3" class="edge">
<title>z&#45;&gt;p</title>
<path fill="none" stroke="black" d="M218.38,-354.53C209.17,-341.37 197.37,-327.08 184,-316.82 174.67,-309.66 163.71,-303.7 152.78,-298.83"/>
<polygon fill="black" stroke="black" points="154.32,-295.68 143.75,-295.07 151.63,-302.15 154.32,-295.68"/>
</g>
<!-- z_data -->
<g id="node7" class="node">
<title>z_data</title>
<path fill="lightgrey" stroke="black" d="M340,-418.73C340,-418.73 310,-418.73 310,-418.73 304,-418.73 298,-412.73 298,-406.73 298,-406.73 298,-373.23 298,-373.23 298,-367.23 304,-361.23 310,-361.23 310,-361.23 340,-361.23 340,-361.23 346,-361.23 352,-367.23 352,-373.23 352,-373.23 352,-406.73 352,-406.73 352,-412.73 346,-418.73 340,-418.73"/>
<text xml:space="preserve" text-anchor="middle" x="325" y="-401.43" font-family="Times,serif" font-size="14.00">z_data</text>
<text xml:space="preserve" text-anchor="middle" x="325" y="-384.93" font-family="Times,serif" font-size="14.00">~</text>
<text xml:space="preserve" text-anchor="middle" x="325" y="-368.43" font-family="Times,serif" font-size="14.00">Data</text>
</g>
<!-- z_data&#45;&gt;p -->
<g id="edge9" class="edge">
<title>z_data&#45;&gt;p</title>
<path fill="none" stroke="black" d="M317.73,-360.99C312.31,-345.65 303.31,-327.61 289,-316.82 268.07,-301.04 202.39,-291.28 153.65,-286.02"/>
<polygon fill="black" stroke="black" points="154.1,-282.55 143.79,-285 153.38,-289.51 154.1,-282.55"/>
</g>
<!-- abar -->
<g id="node8" class="node">
<title>abar</title>
<ellipse fill="none" stroke="black" cx="204" cy="-507.29" rx="41.01" ry="40.66"/>
<text xml:space="preserve" text-anchor="middle" x="204" y="-518.74" font-family="Times,serif" font-size="14.00">abar</text>
<text xml:space="preserve" text-anchor="middle" x="204" y="-502.24" font-family="Times,serif" font-size="14.00">~</text>
<text xml:space="preserve" text-anchor="middle" x="204" y="-485.74" font-family="Times,serif" font-size="14.00">Normal</text>
</g>
<!-- abar&#45;&gt;p -->
<g id="edge4" class="edge">
<title>abar&#45;&gt;p</title>
<path fill="none" stroke="black" d="M193.6,-467.84C178.83,-413.37 153.27,-319.94 151,-316.82 150.77,-316.5 150.54,-316.19 150.3,-315.88"/>
<polygon fill="black" stroke="black" points="152.91,-313.55 143.59,-308.53 147.75,-318.27 152.91,-313.55"/>
</g>
<!-- abar&#45;&gt;z -->
<g id="edge2" class="edge">
<title>abar&#45;&gt;z</title>
<path fill="none" stroke="black" d="M215.65,-467.89C218.37,-458.95 221.3,-449.3 224.13,-439.96"/>
<polygon fill="black" stroke="black" points="227.4,-441.24 226.96,-430.66 220.7,-439.21 227.4,-441.24"/>
</g>
<!-- tau -->
<g id="node9" class="node">
<title>tau</title>
<ellipse fill="none" stroke="black" cx="427" cy="-389.98" rx="57.45" ry="40.66"/>
<text xml:space="preserve" text-anchor="middle" x="427" y="-401.43" font-family="Times,serif" font-size="14.00">tau</text>
<text xml:space="preserve" text-anchor="middle" x="427" y="-384.93" font-family="Times,serif" font-size="14.00">~</text>
<text xml:space="preserve" text-anchor="middle" x="427" y="-368.43" font-family="Times,serif" font-size="14.00">Exponential</text>
</g>
<!-- tau&#45;&gt;p -->
<g id="edge5" class="edge">
<title>tau&#45;&gt;p</title>
<path fill="none" stroke="black" d="M403.75,-352.66C393.25,-339.23 379.67,-325.24 364,-316.82 328.71,-297.85 221.05,-288.26 153.71,-283.99"/>
<polygon fill="black" stroke="black" points="154.16,-280.51 143.96,-283.39 153.73,-287.5 154.16,-280.51"/>
</g>
<!-- bzy -->
<g id="node10" class="node">
<title>bzy</title>
<ellipse fill="none" stroke="black" cx="543" cy="-389.98" rx="41.01" ry="40.66"/>
<text xml:space="preserve" text-anchor="middle" x="543" y="-401.43" font-family="Times,serif" font-size="14.00">bzy</text>
<text xml:space="preserve" text-anchor="middle" x="543" y="-384.93" font-family="Times,serif" font-size="14.00">~</text>
<text xml:space="preserve" text-anchor="middle" x="543" y="-368.43" font-family="Times,serif" font-size="14.00">Normal</text>
</g>
<!-- bzy&#45;&gt;p -->
<g id="edge8" class="edge">
<title>bzy&#45;&gt;p</title>
<path fill="none" stroke="black" d="M526.22,-352.44C518.14,-338.98 507.09,-325.03 493,-316.82 436.88,-284.13 249.34,-280.18 153.88,-280.38"/>
<polygon fill="black" stroke="black" points="153.93,-276.88 143.94,-280.42 153.96,-283.88 153.93,-276.88"/>
</g>
<!-- bxy -->
<g id="node11" class="node">
<title>bxy</title>
<ellipse fill="none" stroke="black" cx="643" cy="-389.98" rx="41.01" ry="40.66"/>
<text xml:space="preserve" text-anchor="middle" x="643" y="-401.43" font-family="Times,serif" font-size="14.00">bxy</text>
<text xml:space="preserve" text-anchor="middle" x="643" y="-384.93" font-family="Times,serif" font-size="14.00">~</text>
<text xml:space="preserve" text-anchor="middle" x="643" y="-368.43" font-family="Times,serif" font-size="14.00">Normal</text>
</g>
<!-- bxy&#45;&gt;p -->
<g id="edge10" class="edge">
<title>bxy&#45;&gt;p</title>
<path fill="none" stroke="black" d="M626.3,-352.31C618.22,-338.83 607.17,-324.9 593,-316.82 555.63,-295.5 275.77,-285.71 153.68,-282.41"/>
<polygon fill="black" stroke="black" points="153.97,-278.92 143.88,-282.16 153.79,-285.92 153.97,-278.92"/>
</g>
</g>
</svg>
