<?xml version="1.0" encoding="UTF-8" standalone="no"?>
<!DOCTYPE svg PUBLIC "-//W3C//DTD SVG 1.1//EN"
 "http://www.w3.org/Graphics/SVG/1.1/DTD/svg11.dtd">
<!-- Generated by graphviz version 14.1.2 (0)
 -->
<!-- Pages: 1 -->
<svg width="915pt" height="791pt"
 viewBox="0.00 0.00 915.00 791.00" xmlns="http://www.w3.org/2000/svg" xmlns:xlink="http://www.w3.org/1999/xlink">
<g id="graph0" class="graph" transform="scale(1 1) rotate(0) translate(4 787.18)">
<polygon fill="white" stroke="none" points="-4,4 -4,-787.18 911.02,-787.18 911.02,4 -4,4"/>
<g id="clust1" class="cluster">
<title>clusterid (2000)</title>
<path fill="none" stroke="black" d="M101.01,-8C101.01,-8 319.01,-8 319.01,-8 325.01,-8 331.01,-14 331.01,-20 331.01,-20 331.01,-422.13 331.01,-422.13 331.01,-428.13 325.01,-434.13 319.01,-434.13 319.01,-434.13 101.01,-434.13 101.01,-434.13 95.01,-434.13 89.01,-428.13 89.01,-422.13 89.01,-422.13 89.01,-20 89.01,-20 89.01,-14 95.01,-8 101.01,-8"/>
<text xml:space="preserve" text-anchor="middle" x="297.89" y="-15.2" font-family="Times,serif" font-size="14.00">id (2000)</text>
</g>
<g id="clust2" class="cluster">
<title>clustergroup (30)</title>
<path fill="none" stroke="black" d="M204.01,-552.04C204.01,-552.04 450.01,-552.04 450.01,-552.04 456.01,-552.04 462.01,-558.04 462.01,-564.04 462.01,-564.04 462.01,-661.86 462.01,-661.86 462.01,-667.86 456.01,-673.86 450.01,-673.86 450.01,-673.86 204.01,-673.86 204.01,-673.86 198.01,-673.86 192.01,-667.86 192.01,-661.86 192.01,-661.86 192.01,-564.04 192.01,-564.04 192.01,-558.04 198.01,-552.04 204.01,-552.04"/>
<text xml:space="preserve" text-anchor="middle" x="425.14" y="-559.24" font-family="Times,serif" font-size="14.00">group (30)</text>
</g>
<g id="clust3" class="cluster">
<title>cluster2000</title>
<path fill="none" stroke="black" d="M200.01,-442.13C200.01,-442.13 282.01,-442.13 282.01,-442.13 288.01,-442.13 294.01,-448.13 294.01,-454.13 294.01,-454.13 294.01,-528.13 294.01,-528.13 294.01,-534.13 288.01,-540.13 282.01,-540.13 282.01,-540.13 200.01,-540.13 200.01,-540.13 194.01,-540.13 188.01,-534.13 188.01,-528.13 188.01,-528.13 188.01,-454.13 188.01,-454.13 188.01,-448.13 194.01,-442.13 200.01,-442.13"/>
<text xml:space="preserve" text-anchor="middle" x="272.51" y="-449.33" font-family="Times,serif" font-size="14.00">2000</text>
</g>
<!-- g_data -->
<g id="node1" class="node">
<title>g_data</title>
<path fill="lightgrey" stroke="black" d="M211.01,-414.23C211.01,-414.23 181.01,-414.23 181.01,-414.23 175.01,-414.23 169.01,-408.23 169.01,-402.23 169.01,-402.23 169.01,-368.73 169.01,-368.73 169.01,-362.73 175.01,-356.73 181.01,-356.73 181.01,-356.73 211.01,-356.73 211.01,-356.73 217.01,-356.73 223.01,-362.73 223.01,-368.73 223.01,-368.73 223.01,-402.23 223.01,-402.23 223.01,-408.23 217.01,-414.23 211.01,-414.23"/>
<text xml:space="preserve" text-anchor="middle" x="196.01" y="-396.93" font-family="Times,serif" font-size="14.00">g_data</text>
<text xml:space="preserve" text-anchor="middle" x="196.01" y="-380.43" font-family="Times,serif" font-size="14.00">~</text>
<text xml:space="preserve" text-anchor="middle" x="196.01" y="-363.93" font-family="Times,serif" font-size="14.00">Data</text>
</g>
<!-- p -->
<g id="node3" class="node">
<title>p</title>
<polygon fill="none" stroke="black" points="323.14,-308.82 232.89,-308.82 232.89,-251.32 323.14,-251.32 323.14,-308.82"/>
<text xml:space="preserve" text-anchor="middle" x="278.01" y="-291.52" font-family="Times,serif" font-size="14.00">p</text>
<text xml:space="preserve" text-anchor="middle" x="278.01" y="-275.02" font-family="Times,serif" font-size="14.00">~</text>
<text xml:space="preserve" text-anchor="middle" x="278.01" y="-258.52" font-family="Times,serif" font-size="14.00">Deterministic</text>
</g>
<!-- g_data&#45;&gt;p -->
<g id="edge12" class="edge">
<title>g_data&#45;&gt;p</title>
<path fill="none" stroke="black" d="M218.2,-356.49C227.59,-344.65 238.66,-330.69 248.71,-318.02"/>
<polygon fill="black" stroke="black" points="251.39,-320.27 254.86,-310.26 245.91,-315.92 251.39,-320.27"/>
</g>
<!-- y_obs -->
<g id="node2" class="node">
<title>y_obs</title>
<ellipse fill="lightgrey" stroke="black" cx="276.01" cy="-174.66" rx="47.38" ry="40.66"/>
<text xml:space="preserve" text-anchor="middle" x="276.01" y="-186.11" font-family="Times,serif" font-size="14.00">y_obs</text>
<text xml:space="preserve" text-anchor="middle" x="276.01" y="-169.61" font-family="Times,serif" font-size="14.00">~</text>
<text xml:space="preserve" text-anchor="middle" x="276.01" y="-153.11" font-family="Times,serif" font-size="14.00">Bernoulli</text>
</g>
<!-- y_data -->
<g id="node6" class="node">
<title>y_data</title>
<path fill="lightgrey" stroke="black" d="M291.01,-98C291.01,-98 261.01,-98 261.01,-98 255.01,-98 249.01,-92 249.01,-86 249.01,-86 249.01,-52.5 249.01,-52.5 249.01,-46.5 255.01,-40.5 261.01,-40.5 261.01,-40.5 291.01,-40.5 291.01,-40.5 297.01,-40.5 303.01,-46.5 303.01,-52.5 303.01,-52.5 303.01,-86 303.01,-86 303.01,-92 297.01,-98 291.01,-98"/>
<text xml:space="preserve" text-anchor="middle" x="276.01" y="-80.7" font-family="Times,serif" font-size="14.00">y_data</text>
<text xml:space="preserve" text-anchor="middle" x="276.01" y="-64.2" font-family="Times,serif" font-size="14.00">~</text>
<text xml:space="preserve" text-anchor="middle" x="276.01" y="-47.7" font-family="Times,serif" font-size="14.00">Data</text>
</g>
<!-- y_obs&#45;&gt;y_data -->
<g id="edge1" class="edge">
<title>y_obs&#45;&gt;y_data</title>
<path fill="none" stroke="black" d="M276.01,-133.68C276.01,-125.83 276.01,-117.6 276.01,-109.76"/>
<polygon fill="black" stroke="black" points="279.51,-109.79 276.01,-99.79 272.51,-109.79 279.51,-109.79"/>
</g>
<!-- p&#45;&gt;y_obs -->
<g id="edge18" class="edge">
<title>p&#45;&gt;y_obs</title>
<path fill="none" stroke="black" d="M277.47,-251.08C277.33,-243.6 277.17,-235.27 277,-226.95"/>
<polygon fill="black" stroke="black" points="280.51,-227.14 276.82,-217.21 273.51,-227.28 280.51,-227.14"/>
</g>
<!-- x_data -->
<g id="node4" class="node">
<title>x_data</title>
<path fill="lightgrey" stroke="black" d="M139.01,-414.23C139.01,-414.23 109.01,-414.23 109.01,-414.23 103.01,-414.23 97.01,-408.23 97.01,-402.23 97.01,-402.23 97.01,-368.73 97.01,-368.73 97.01,-362.73 103.01,-356.73 109.01,-356.73 109.01,-356.73 139.01,-356.73 139.01,-356.73 145.01,-356.73 151.01,-362.73 151.01,-368.73 151.01,-368.73 151.01,-402.23 151.01,-402.23 151.01,-408.23 145.01,-414.23 139.01,-414.23"/>
<text xml:space="preserve" text-anchor="middle" x="124.01" y="-396.93" font-family="Times,serif" font-size="14.00">x_data</text>
<text xml:space="preserve" text-anchor="middle" x="124.01" y="-380.43" font-family="Times,serif" font-size="14.00">~</text>
<text xml:space="preserve" text-anchor="middle" x="124.01" y="-363.93" font-family="Times,serif" font-size="14.00">Data</text>
</g>
<!-- x_data&#45;&gt;p -->
<g id="edge13" class="edge">
<title>x_data&#45;&gt;p</title>
<path fill="none" stroke="black" d="M147.28,-356.38C151.31,-352.26 155.62,-348.26 160.01,-344.82 178.91,-330.02 201.72,-316.8 222.23,-306.29"/>
<polygon fill="black" stroke="black" points="223.67,-309.48 231.04,-301.88 220.53,-303.22 223.67,-309.48"/>
</g>
<!-- x_obs -->
<g id="node5" class="node">
<title>x_obs</title>
<ellipse fill="lightgrey" stroke="black" cx="282.01" cy="-385.48" rx="41.01" ry="40.66"/>
<text xml:space="preserve" text-anchor="middle" x="282.01" y="-396.93" font-family="Times,serif" font-size="14.00">x_obs</text>
<text xml:space="preserve" text-anchor="middle" x="282.01" y="-380.43" font-family="Times,serif" font-size="14.00">~</text>
<text xml:space="preserve" text-anchor="middle" x="282.01" y="-363.93" font-family="Times,serif" font-size="14.00">Normal</text>
</g>
<!-- z -->
<g id="node7" class="node">
<title>z</title>
<ellipse fill="none" stroke="black" cx="341.01" cy="-625.2" rx="41.01" ry="40.66"/>
<text xml:space="preserve" text-anchor="middle" x="341.01" y="-636.65" font-family="Times,serif" font-size="14.00">z</text>
<text xml:space="preserve" text-anchor="middle" x="341.01" y="-620.15" font-family="Times,serif" font-size="14.00">~</text>
<text xml:space="preserve" text-anchor="middle" x="341.01" y="-603.65" font-family="Times,serif" font-size="14.00">Normal</text>
</g>
<!-- z&#45;&gt;p -->
<g id="edge8" class="edge">
<title>z&#45;&gt;p</title>
<path fill="none" stroke="black" d="M352.4,-586.01C366.86,-530.23 385.87,-424.47 350.01,-344.82 345.33,-334.43 338.03,-325.05 329.84,-316.87"/>
<polygon fill="black" stroke="black" points="332.25,-314.34 322.53,-310.14 327.51,-319.49 332.25,-314.34"/>
</g>
<!-- u -->
<g id="node8" class="node">
<title>u</title>
<ellipse fill="none" stroke="black" cx="241.01" cy="-625.2" rx="41.01" ry="40.66"/>
<text xml:space="preserve" text-anchor="middle" x="241.01" y="-636.65" font-family="Times,serif" font-size="14.00">u</text>
<text xml:space="preserve" text-anchor="middle" x="241.01" y="-620.15" font-family="Times,serif" font-size="14.00">~</text>
<text xml:space="preserve" text-anchor="middle" x="241.01" y="-603.65" font-family="Times,serif" font-size="14.00">Normal</text>
</g>
<!-- u&#45;&gt;p -->
<g id="edge16" class="edge">
<title>u&#45;&gt;p</title>
<path fill="none" stroke="black" d="M263.15,-590.59C271.57,-578.25 281.45,-564.3 291.01,-552.04 293.92,-548.32 295.71,-548.17 298.01,-544.04 322.95,-499.4 324.37,-484.69 332.01,-434.13 337.94,-394.88 345.68,-382.09 332.01,-344.82 328.46,-335.12 322.7,-325.88 316.24,-317.6"/>
<polygon fill="black" stroke="black" points="319.11,-315.57 310,-310.17 313.75,-320.08 319.11,-315.57"/>
</g>
<!-- mu -->
<g id="node18" class="node">
<title>mu</title>
<polygon fill="none" stroke="black" points="286.14,-532.13 195.89,-532.13 195.89,-474.63 286.14,-474.63 286.14,-532.13"/>
<text xml:space="preserve" text-anchor="middle" x="241.01" y="-514.83" font-family="Times,serif" font-size="14.00">mu</text>
<text xml:space="preserve" text-anchor="middle" x="241.01" y="-498.33" font-family="Times,serif" font-size="14.00">~</text>
<text xml:space="preserve" text-anchor="middle" x="241.01" y="-481.83" font-family="Times,serif" font-size="14.00">Deterministic</text>
</g>
<!-- u&#45;&gt;mu -->
<g id="edge4" class="edge">
<title>u&#45;&gt;mu</title>
<path fill="none" stroke="black" d="M241.01,-584.3C241.01,-571.27 241.01,-556.82 241.01,-543.82"/>
<polygon fill="black" stroke="black" points="244.51,-543.89 241.01,-533.89 237.51,-543.89 244.51,-543.89"/>
</g>
<!-- z_data -->
<g id="node9" class="node">
<title>z_data</title>
<path fill="lightgrey" stroke="black" d="M442.01,-653.95C442.01,-653.95 412.01,-653.95 412.01,-653.95 406.01,-653.95 400.01,-647.95 400.01,-641.95 400.01,-641.95 400.01,-608.45 400.01,-608.45 400.01,-602.45 406.01,-596.45 412.01,-596.45 412.01,-596.45 442.01,-596.45 442.01,-596.45 448.01,-596.45 454.01,-602.45 454.01,-608.45 454.01,-608.45 454.01,-641.95 454.01,-641.95 454.01,-647.95 448.01,-653.95 442.01,-653.95"/>
<text xml:space="preserve" text-anchor="middle" x="427.01" y="-636.65" font-family="Times,serif" font-size="14.00">z_data</text>
<text xml:space="preserve" text-anchor="middle" x="427.01" y="-620.15" font-family="Times,serif" font-size="14.00">~</text>
<text xml:space="preserve" text-anchor="middle" x="427.01" y="-603.65" font-family="Times,serif" font-size="14.00">Data</text>
</g>
<!-- z_data&#45;&gt;p -->
<g id="edge15" class="edge">
<title>z_data&#45;&gt;p</title>
<path fill="none" stroke="black" d="M428.54,-596.19C430.07,-542.68 426.71,-424.2 374.01,-344.82 363.75,-329.36 348.32,-316.73 332.82,-306.92"/>
<polygon fill="black" stroke="black" points="334.88,-304.07 324.5,-301.94 331.29,-310.08 334.88,-304.07"/>
</g>
<!-- abar -->
<g id="node10" class="node">
<title>abar</title>
<ellipse fill="none" stroke="black" cx="411.01" cy="-742.52" rx="41.01" ry="40.66"/>
<text xml:space="preserve" text-anchor="middle" x="411.01" y="-753.97" font-family="Times,serif" font-size="14.00">abar</text>
<text xml:space="preserve" text-anchor="middle" x="411.01" y="-737.47" font-family="Times,serif" font-size="14.00">~</text>
<text xml:space="preserve" text-anchor="middle" x="411.01" y="-720.97" font-family="Times,serif" font-size="14.00">Normal</text>
</g>
<!-- abar&#45;&gt;p -->
<g id="edge9" class="edge">
<title>abar&#45;&gt;p</title>
<path fill="none" stroke="black" d="M440.58,-713.98C450.68,-702.64 460.74,-688.7 466.01,-673.86 515.74,-533.86 502.81,-458.38 407.01,-344.82 388.2,-322.51 359.69,-307.29 334.26,-297.33"/>
<polygon fill="black" stroke="black" points="335.6,-294.09 325.01,-293.9 333.17,-300.66 335.6,-294.09"/>
</g>
<!-- abar&#45;&gt;z -->
<g id="edge2" class="edge">
<title>abar&#45;&gt;z</title>
<path fill="none" stroke="black" d="M390.2,-707.23C383.14,-695.6 375.15,-682.45 367.7,-670.17"/>
<polygon fill="black" stroke="black" points="370.83,-668.58 362.65,-661.85 364.85,-672.21 370.83,-668.58"/>
</g>
<!-- buy -->
<g id="node11" class="node">
<title>buy</title>
<ellipse fill="none" stroke="black" cx="534.01" cy="-385.48" rx="41.01" ry="40.66"/>
<text xml:space="preserve" text-anchor="middle" x="534.01" y="-396.93" font-family="Times,serif" font-size="14.00">buy</text>
<text xml:space="preserve" text-anchor="middle" x="534.01" y="-380.43" font-family="Times,serif" font-size="14.00">~</text>
<text xml:space="preserve" text-anchor="middle" x="534.01" y="-363.93" font-family="Times,serif" font-size="14.00">Normal</text>
</g>
<!-- buy&#45;&gt;p -->
<g id="edge10" class="edge">
<title>buy&#45;&gt;p</title>
<path fill="none" stroke="black" d="M502.53,-359.19C495.1,-353.96 487.01,-348.84 479.01,-344.82 432.57,-321.47 375.82,-304.41 334.48,-293.84"/>
<polygon fill="black" stroke="black" points="335.53,-290.5 324.98,-291.47 333.83,-297.29 335.53,-290.5"/>
</g>
<!-- tau -->
<g id="node12" class="node">
<title>tau</title>
<ellipse fill="none" stroke="black" cx="650.01" cy="-385.48" rx="57.45" ry="40.66"/>
<text xml:space="preserve" text-anchor="middle" x="650.01" y="-396.93" font-family="Times,serif" font-size="14.00">tau</text>
<text xml:space="preserve" text-anchor="middle" x="650.01" y="-380.43" font-family="Times,serif" font-size="14.00">~</text>
<text xml:space="preserve" text-anchor="middle" x="650.01" y="-363.93" font-family="Times,serif" font-size="14.00">Exponential</text>
</g>
<!-- tau&#45;&gt;p -->
<g id="edge11" class="edge">
<title>tau&#45;&gt;p</title>
<path fill="none" stroke="black" d="M608.85,-356.88C600.85,-352.36 592.35,-348.08 584.01,-344.82 500.53,-312.13 397.35,-295.08 334.67,-287.1"/>
<polygon fill="black" stroke="black" points="335.31,-283.65 324.95,-285.9 334.45,-290.6 335.31,-283.65"/>
</g>
<!-- bux -->
<g id="node13" class="node">
<title>bux</title>
<ellipse fill="none" stroke="black" cx="41.01" cy="-625.2" rx="41.01" ry="40.66"/>
<text xml:space="preserve" text-anchor="middle" x="41.01" y="-636.65" font-family="Times,serif" font-size="14.00">bux</text>
<text xml:space="preserve" text-anchor="middle" x="41.01" y="-620.15" font-family="Times,serif" font-size="14.00">~</text>
<text xml:space="preserve" text-anchor="middle" x="41.01" y="-603.65" font-family="Times,serif" font-size="14.00">Normal</text>
</g>
<!-- bux&#45;&gt;mu -->
<g id="edge3" class="edge">
<title>bux&#45;&gt;mu</title>
<path fill="none" stroke="black" d="M57.76,-587.62C65.84,-574.15 76.9,-560.21 91.01,-552.04 109.35,-541.44 166.14,-551.39 186.01,-544.04 190.18,-542.5 194.31,-540.55 198.33,-538.35"/>
<polygon fill="black" stroke="black" points="200.02,-541.42 206.75,-533.23 196.38,-535.44 200.02,-541.42"/>
</g>
<!-- sigma -->
<g id="node14" class="node">
<title>sigma</title>
<ellipse fill="none" stroke="black" cx="120.01" cy="-503.38" rx="57.45" ry="40.66"/>
<text xml:space="preserve" text-anchor="middle" x="120.01" y="-514.83" font-family="Times,serif" font-size="14.00">sigma</text>
<text xml:space="preserve" text-anchor="middle" x="120.01" y="-498.33" font-family="Times,serif" font-size="14.00">~</text>
<text xml:space="preserve" text-anchor="middle" x="120.01" y="-481.83" font-family="Times,serif" font-size="14.00">Exponential</text>
</g>
<!-- sigma&#45;&gt;x_obs -->
<g id="edge7" class="edge">
<title>sigma&#45;&gt;x_obs</title>
<path fill="none" stroke="black" d="M149.02,-468.19C159.12,-458.32 171.16,-448.51 184.01,-442.13 203.39,-432.53 212.66,-443.8 232.01,-434.13 237.24,-431.52 242.29,-428.18 247.04,-424.47"/>
<polygon fill="black" stroke="black" points="249.3,-427.14 254.63,-417.99 244.75,-421.82 249.3,-427.14"/>
</g>
<!-- bzy -->
<g id="node15" class="node">
<title>bzy</title>
<ellipse fill="none" stroke="black" cx="766.01" cy="-385.48" rx="41.01" ry="40.66"/>
<text xml:space="preserve" text-anchor="middle" x="766.01" y="-396.93" font-family="Times,serif" font-size="14.00">bzy</text>
<text xml:space="preserve" text-anchor="middle" x="766.01" y="-380.43" font-family="Times,serif" font-size="14.00">~</text>
<text xml:space="preserve" text-anchor="middle" x="766.01" y="-363.93" font-family="Times,serif" font-size="14.00">Normal</text>
</g>
<!-- bzy&#45;&gt;p -->
<g id="edge14" class="edge">
<title>bzy&#45;&gt;p</title>
<path fill="none" stroke="black" d="M736.46,-356.96C730.1,-352.25 723.13,-347.89 716.01,-344.82 648.51,-315.67 437.16,-294.48 334.75,-285.63"/>
<polygon fill="black" stroke="black" points="335.18,-282.16 324.92,-284.79 334.59,-289.13 335.18,-282.16"/>
</g>
<!-- ax -->
<g id="node16" class="node">
<title>ax</title>
<ellipse fill="none" stroke="black" cx="141.01" cy="-625.2" rx="41.01" ry="40.66"/>
<text xml:space="preserve" text-anchor="middle" x="141.01" y="-636.65" font-family="Times,serif" font-size="14.00">ax</text>
<text xml:space="preserve" text-anchor="middle" x="141.01" y="-620.15" font-family="Times,serif" font-size="14.00">~</text>
<text xml:space="preserve" text-anchor="middle" x="141.01" y="-603.65" font-family="Times,serif" font-size="14.00">Normal</text>
</g>
<!-- ax&#45;&gt;mu -->
<g id="edge5" class="edge">
<title>ax&#45;&gt;mu</title>
<path fill="none" stroke="black" d="M161.04,-589.49C168.81,-577.17 178.19,-563.52 188.01,-552.04 191.31,-548.18 194.92,-544.34 198.65,-540.6"/>
<polygon fill="black" stroke="black" points="201.07,-543.13 205.84,-533.67 196.21,-538.09 201.07,-543.13"/>
</g>
<!-- bxy -->
<g id="node17" class="node">
<title>bxy</title>
<ellipse fill="none" stroke="black" cx="866.01" cy="-385.48" rx="41.01" ry="40.66"/>
<text xml:space="preserve" text-anchor="middle" x="866.01" y="-396.93" font-family="Times,serif" font-size="14.00">bxy</text>
<text xml:space="preserve" text-anchor="middle" x="866.01" y="-380.43" font-family="Times,serif" font-size="14.00">~</text>
<text xml:space="preserve" text-anchor="middle" x="866.01" y="-363.93" font-family="Times,serif" font-size="14.00">Normal</text>
</g>
<!-- bxy&#45;&gt;p -->
<g id="edge17" class="edge">
<title>bxy&#45;&gt;p</title>
<path fill="none" stroke="black" d="M836.52,-356.81C830.16,-352.11 823.17,-347.8 816.01,-344.82 729.97,-309.02 454.8,-290.45 334.83,-283.88"/>
<polygon fill="black" stroke="black" points="335.06,-280.39 324.89,-283.34 334.68,-287.38 335.06,-280.39"/>
</g>
<!-- mu&#45;&gt;x_obs -->
<g id="edge6" class="edge">
<title>mu&#45;&gt;x_obs</title>
<path fill="none" stroke="black" d="M250.94,-474.33C255.13,-462.48 260.13,-448.35 264.88,-434.91"/>
<polygon fill="black" stroke="black" points="268.08,-436.37 268.11,-425.78 261.48,-434.04 268.08,-436.37"/>
</g>
</g>
</svg>
