<?xml version="1.0" encoding="UTF-8" standalone="no"?>
<!DOCTYPE svg PUBLIC "-//W3C//DTD SVG 1.1//EN"
 "http://www.w3.org/Graphics/SVG/1.1/DTD/svg11.dtd">
<!-- Generated by graphviz version 14.1.2 (0)
 -->
<!-- Pages: 1 -->
<svg width="528pt" height="455pt"
 viewBox="0.00 0.00 528.00 455.00" xmlns="http://www.w3.org/2000/svg" xmlns:xlink="http://www.w3.org/1999/xlink">
<g id="graph0" class="graph" transform="scale(1 1) rotate(0) translate(4 450.63)">
<polygon fill="white" stroke="none" points="-4,4 -4,-450.63 524.01,-450.63 524.01,4 -4,4"/>
<g id="clust1" class="cluster">
<title>clusterid (2000)</title>
<path fill="none" stroke="black" d="M20,-8C20,-8 138,-8 138,-8 144,-8 150,-14 150,-20 150,-20 150,-414.73 150,-414.73 150,-420.73 144,-426.73 138,-426.73 138,-426.73 20,-426.73 20,-426.73 14,-426.73 8,-420.73 8,-414.73 8,-414.73 8,-20 8,-20 8,-14 14,-8 20,-8"/>
<text xml:space="preserve" text-anchor="middle" x="116.88" y="-15.2" font-family="Times,serif" font-size="14.00">id (2000)</text>
</g>
<g id="clust2" class="cluster">
<title>clustergroup (30)</title>
<path fill="none" stroke="black" d="M170,-316.82C170,-316.82 316,-316.82 316,-316.82 322,-316.82 328,-322.82 328,-328.82 328,-328.82 328,-426.63 328,-426.63 328,-432.63 322,-438.63 316,-438.63 316,-438.63 170,-438.63 170,-438.63 164,-438.63 158,-432.63 158,-426.63 158,-426.63 158,-328.82 158,-328.82 158,-322.82 164,-316.82 170,-316.82"/>
<text xml:space="preserve" text-anchor="middle" x="291.12" y="-324.02" font-family="Times,serif" font-size="14.00">group (30)</text>
</g>
<!-- y_obs -->
<g id="node1" class="node">
<title>y_obs</title>
<ellipse fill="lightgrey" stroke="black" cx="95" cy="-174.66" rx="47.38" ry="40.66"/>
<text xml:space="preserve" text-anchor="middle" x="95" y="-186.11" font-family="Times,serif" font-size="14.00">y_obs</text>
<text xml:space="preserve" text-anchor="middle" x="95" y="-169.61" font-family="Times,serif" font-size="14.00">~</text>
<text xml:space="preserve" text-anchor="middle" x="95" y="-153.11" font-family="Times,serif" font-size="14.00">Bernoulli</text>
</g>
<!-- y_data -->
<g id="node5" class="node">
<title>y_data</title>
<path fill="lightgrey" stroke="black" d="M110,-98C110,-98 80,-98 80,-98 74,-98 68,-92 68,-86 68,-86 68,-52.5 68,-52.5 68,-46.5 74,-40.5 80,-40.5 80,-40.5 110,-40.5 110,-40.5 116,-40.5 122,-46.5 122,-52.5 122,-52.5 122,-86 122,-86 122,-92 116,-98 110,-98"/>
<text xml:space="preserve" text-anchor="middle" x="95" y="-80.7" font-family="Times,serif" font-size="14.00">y_data</text>
<text xml:space="preserve" text-anchor="middle" x="95" y="-64.2" font-family="Times,serif" font-size="14.00">~</text>
<text xml:space="preserve" text-anchor="middle" x="95" y="-47.7" font-family="Times,serif" font-size="14.00">Data</text>
</g>
<!-- y_obs&#45;&gt;y_data -->
<g id="edge1" class="edge">
<title>y_obs&#45;&gt;y_data</title>
<path fill="none" stroke="black" d="M95,-133.68C95,-125.83 95,-117.6 95,-109.76"/>
<polygon fill="black" stroke="black" points="98.5,-109.79 95,-99.79 91.5,-109.79 98.5,-109.79"/>
</g>
<!-- g_data -->
<g id="node2" class="node">
<title>g_data</title>
<path fill="lightgrey" stroke="black" d="M58,-418.73C58,-418.73 28,-418.73 28,-418.73 22,-418.73 16,-412.73 16,-406.73 16,-406.73 16,-373.23 16,-373.23 16,-367.23 22,-361.23 28,-361.23 28,-361.23 58,-361.23 58,-361.23 64,-361.23 70,-367.23 70,-373.23 70,-373.23 70,-406.73 70,-406.73 70,-412.73 64,-418.73 58,-418.73"/>
<text xml:space="preserve" text-anchor="middle" x="43" y="-401.43" font-family="Times,serif" font-size="14.00">g_data</text>
<text xml:space="preserve" text-anchor="middle" x="43" y="-384.93" font-family="Times,serif" font-size="14.00">~</text>
<text xml:space="preserve" text-anchor="middle" x="43" y="-368.43" font-family="Times,serif" font-size="14.00">Data</text>
</g>
<!-- p -->
<g id="node3" class="node">
<title>p</title>
<polygon fill="none" stroke="black" points="142.12,-308.82 51.88,-308.82 51.88,-251.32 142.12,-251.32 142.12,-308.82"/>
<text xml:space="preserve" text-anchor="middle" x="97" y="-291.52" font-family="Times,serif" font-size="14.00">p</text>
<text xml:space="preserve" text-anchor="middle" x="97" y="-275.02" font-family="Times,serif" font-size="14.00">~</text>
<text xml:space="preserve" text-anchor="middle" x="97" y="-258.52" font-family="Times,serif" font-size="14.00">Deterministic</text>
</g>
<!-- g_data&#45;&gt;p -->
<g id="edge4" class="edge">
<title>g_data&#45;&gt;p</title>
<path fill="none" stroke="black" d="M57,-360.86C62.61,-349.6 69.23,-336.32 77.85,-319.13"/>
<polygon fill="black" stroke="black" points="80.81,-321.03 82.16,-310.52 74.55,-317.89 80.81,-321.03"/>
</g>
<!-- p&#45;&gt;y_obs -->
<g id="edge8" class="edge">
<title>p&#45;&gt;y_obs</title>
<path fill="none" stroke="black" d="M96.46,-251.08C96.31,-243.6 96.15,-235.27 95.99,-226.95"/>
<polygon fill="black" stroke="black" points="99.5,-227.14 95.8,-217.21 92.5,-227.28 99.5,-227.14"/>
</g>
<!-- x_data -->
<g id="node4" class="node">
<title>x_data</title>
<path fill="lightgrey" stroke="black" d="M130,-418.73C130,-418.73 100,-418.73 100,-418.73 94,-418.73 88,-412.73 88,-406.73 88,-406.73 88,-373.23 88,-373.23 88,-367.23 94,-361.23 100,-361.23 100,-361.23 130,-361.23 130,-361.23 136,-361.23 142,-367.23 142,-373.23 142,-373.23 142,-406.73 142,-406.73 142,-412.73 136,-418.73 130,-418.73"/>
<text xml:space="preserve" text-anchor="middle" x="115" y="-401.43" font-family="Times,serif" font-size="14.00">x_data</text>
<text xml:space="preserve" text-anchor="middle" x="115" y="-384.93" font-family="Times,serif" font-size="14.00">~</text>
<text xml:space="preserve" text-anchor="middle" x="115" y="-368.43" font-family="Times,serif" font-size="14.00">Data</text>
</g>
<!-- x_data&#45;&gt;p -->
<g id="edge2" class="edge">
<title>x_data&#45;&gt;p</title>
<path fill="none" stroke="black" d="M110.32,-360.91C108.23,-348.42 105.75,-333.5 103.49,-319.96"/>
<polygon fill="black" stroke="black" points="107.01,-319.78 101.91,-310.49 100.1,-320.93 107.01,-319.78"/>
</g>
<!-- a0 -->
<g id="node6" class="node">
<title>a0</title>
<ellipse fill="none" stroke="black" cx="207" cy="-389.98" rx="41.01" ry="40.66"/>
<text xml:space="preserve" text-anchor="middle" x="207" y="-401.43" font-family="Times,serif" font-size="14.00">a0</text>
<text xml:space="preserve" text-anchor="middle" x="207" y="-384.93" font-family="Times,serif" font-size="14.00">~</text>
<text xml:space="preserve" text-anchor="middle" x="207" y="-368.43" font-family="Times,serif" font-size="14.00">Normal</text>
</g>
<!-- a0&#45;&gt;p -->
<g id="edge6" class="edge">
<title>a0&#45;&gt;p</title>
<path fill="none" stroke="black" d="M185.91,-354.87C177.02,-342.06 165.96,-327.93 154,-316.82 153.1,-315.98 152.18,-315.16 151.24,-314.34"/>
<polygon fill="black" stroke="black" points="153.55,-311.7 143.55,-308.19 149.18,-317.17 153.55,-311.7"/>
</g>
<!-- z_data -->
<g id="node7" class="node">
<title>z_data</title>
<path fill="lightgrey" stroke="black" d="M308,-418.73C308,-418.73 278,-418.73 278,-418.73 272,-418.73 266,-412.73 266,-406.73 266,-406.73 266,-373.23 266,-373.23 266,-367.23 272,-361.23 278,-361.23 278,-361.23 308,-361.23 308,-361.23 314,-361.23 320,-367.23 320,-373.23 320,-373.23 320,-406.73 320,-406.73 320,-412.73 314,-418.73 308,-418.73"/>
<text xml:space="preserve" text-anchor="middle" x="293" y="-401.43" font-family="Times,serif" font-size="14.00">z_data</text>
<text xml:space="preserve" text-anchor="middle" x="293" y="-384.93" font-family="Times,serif" font-size="14.00">~</text>
<text xml:space="preserve" text-anchor="middle" x="293" y="-368.43" font-family="Times,serif" font-size="14.00">Data</text>
</g>
<!-- z_data&#45;&gt;p -->
<g id="edge5" class="edge">
<title>z_data&#45;&gt;p</title>
<path fill="none" stroke="black" d="M285.46,-360.82C279.97,-345.62 271,-327.77 257,-316.82 227.82,-293.99 186.96,-285.13 153.83,-281.94"/>
<polygon fill="black" stroke="black" points="154.22,-278.46 143.97,-281.16 153.66,-285.44 154.22,-278.46"/>
</g>
<!-- bzy -->
<g id="node8" class="node">
<title>bzy</title>
<ellipse fill="none" stroke="black" cx="379" cy="-389.98" rx="41.01" ry="40.66"/>
<text xml:space="preserve" text-anchor="middle" x="379" y="-401.43" font-family="Times,serif" font-size="14.00">bzy</text>
<text xml:space="preserve" text-anchor="middle" x="379" y="-384.93" font-family="Times,serif" font-size="14.00">~</text>
<text xml:space="preserve" text-anchor="middle" x="379" y="-368.43" font-family="Times,serif" font-size="14.00">Normal</text>
</g>
<!-- bzy&#45;&gt;p -->
<g id="edge3" class="edge">
<title>bzy&#45;&gt;p</title>
<path fill="none" stroke="black" d="M363.01,-352.15C355.48,-338.98 345.2,-325.32 332,-316.82 303.32,-298.34 213.65,-288.82 153.75,-284.39"/>
<polygon fill="black" stroke="black" points="154.29,-280.92 144.07,-283.7 153.8,-287.9 154.29,-280.92"/>
</g>
<!-- bxy -->
<g id="node9" class="node">
<title>bxy</title>
<ellipse fill="none" stroke="black" cx="479" cy="-389.98" rx="41.01" ry="40.66"/>
<text xml:space="preserve" text-anchor="middle" x="479" y="-401.43" font-family="Times,serif" font-size="14.00">bxy</text>
<text xml:space="preserve" text-anchor="middle" x="479" y="-384.93" font-family="Times,serif" font-size="14.00">~</text>
<text xml:space="preserve" text-anchor="middle" x="479" y="-368.43" font-family="Times,serif" font-size="14.00">Normal</text>
</g>
<!-- bxy&#45;&gt;p -->
<g id="edge7" class="edge">
<title>bxy&#45;&gt;p</title>
<path fill="none" stroke="black" d="M462.15,-352.56C454.06,-339.12 443.02,-325.15 429,-316.82 383.82,-289.98 236.15,-283.22 153.8,-281.57"/>
<polygon fill="black" stroke="black" points="153.96,-278.07 143.89,-281.39 153.83,-285.07 153.96,-278.07"/>
</g>
</g>
</svg>
