<?xml version="1.0" encoding="UTF-8" standalone="no"?>
<!DOCTYPE svg PUBLIC "-//W3C//DTD SVG 1.1//EN"
 "http://www.w3.org/Graphics/SVG/1.1/DTD/svg11.dtd">
<!-- Generated by graphviz version 14.1.2 (0)
 -->
<!-- Pages: 1 -->
<svg width="429pt" height="486pt"
 viewBox="0.00 0.00 429.00 486.00" xmlns="http://www.w3.org/2000/svg" xmlns:xlink="http://www.w3.org/1999/xlink">
<g id="graph0" class="graph" transform="scale(1 1) rotate(0) translate(4 482.45)">
<polygon fill="white" stroke="none" points="-4,4 -4,-482.45 425,-482.45 425,4 -4,4"/>
<g id="clust1" class="cluster">
<title>clustergroup (30)</title>
<path fill="none" stroke="black" d="M20,-348.63C20,-348.63 194,-348.63 194,-348.63 200,-348.63 206,-354.63 206,-360.63 206,-360.63 206,-458.45 206,-458.45 206,-464.45 200,-470.45 194,-470.45 194,-470.45 20,-470.45 20,-470.45 14,-470.45 8,-464.45 8,-458.45 8,-458.45 8,-360.63 8,-360.63 8,-354.63 14,-348.63 20,-348.63"/>
<text xml:space="preserve" text-anchor="middle" x="169.12" y="-355.83" font-family="Times,serif" font-size="14.00">group (30)</text>
</g>
<g id="clust2" class="cluster">
<title>clusterid (2000)</title>
<path fill="none" stroke="black" d="M117,-8C117,-8 203,-8 203,-8 209,-8 215,-14 215,-20 215,-20 215,-328.63 215,-328.63 215,-334.63 209,-340.63 203,-340.63 203,-340.63 117,-340.63 117,-340.63 111,-340.63 105,-334.63 105,-328.63 105,-328.63 105,-20 105,-20 105,-14 111,-8 117,-8"/>
<text xml:space="preserve" text-anchor="middle" x="181.88" y="-15.2" font-family="Times,serif" font-size="14.00">id (2000)</text>
</g>
<!-- z -->
<g id="node1" class="node">
<title>z</title>
<ellipse fill="none" stroke="black" cx="57" cy="-421.79" rx="41.01" ry="40.66"/>
<text xml:space="preserve" text-anchor="middle" x="57" y="-433.24" font-family="Times,serif" font-size="14.00">z</text>
<text xml:space="preserve" text-anchor="middle" x="57" y="-416.74" font-family="Times,serif" font-size="14.00">~</text>
<text xml:space="preserve" text-anchor="middle" x="57" y="-400.24" font-family="Times,serif" font-size="14.00">Normal</text>
</g>
<!-- p -->
<g id="node6" class="node">
<title>p</title>
<polygon fill="none" stroke="black" points="207.12,-215.32 116.88,-215.32 116.88,-157.82 207.12,-157.82 207.12,-215.32"/>
<text xml:space="preserve" text-anchor="middle" x="162" y="-198.02" font-family="Times,serif" font-size="14.00">p</text>
<text xml:space="preserve" text-anchor="middle" x="162" y="-181.52" font-family="Times,serif" font-size="14.00">~</text>
<text xml:space="preserve" text-anchor="middle" x="162" y="-165.02" font-family="Times,serif" font-size="14.00">Deterministic</text>
</g>
<!-- z&#45;&gt;p -->
<g id="edge2" class="edge">
<title>z&#45;&gt;p</title>
<path fill="none" stroke="black" d="M61.89,-381.03C67.57,-345.3 79.22,-292.29 102,-251.32 107.37,-241.65 114.53,-232.34 122.04,-223.95"/>
<polygon fill="black" stroke="black" points="124.58,-226.35 128.88,-216.67 119.48,-221.56 124.58,-226.35"/>
</g>
<!-- ug -->
<g id="node2" class="node">
<title>ug</title>
<ellipse fill="none" stroke="black" cx="157" cy="-421.79" rx="41.01" ry="40.66"/>
<text xml:space="preserve" text-anchor="middle" x="157" y="-433.24" font-family="Times,serif" font-size="14.00">ug</text>
<text xml:space="preserve" text-anchor="middle" x="157" y="-416.74" font-family="Times,serif" font-size="14.00">~</text>
<text xml:space="preserve" text-anchor="middle" x="157" y="-400.24" font-family="Times,serif" font-size="14.00">Normal</text>
</g>
<!-- ug&#45;&gt;p -->
<g id="edge5" class="edge">
<title>ug&#45;&gt;p</title>
<path fill="none" stroke="black" d="M134.44,-387.59C126.31,-373.72 118.12,-357.02 114,-340.63 104.33,-302.13 101.41,-288.96 114,-251.32 117.09,-242.06 122.12,-233.07 127.78,-224.91"/>
<polygon fill="black" stroke="black" points="130.55,-227.05 133.73,-216.94 124.94,-222.86 130.55,-227.05"/>
</g>
<!-- x -->
<g id="node7" class="node">
<title>x</title>
<ellipse fill="none" stroke="black" cx="164" cy="-291.98" rx="41.01" ry="40.66"/>
<text xml:space="preserve" text-anchor="middle" x="164" y="-303.43" font-family="Times,serif" font-size="14.00">x</text>
<text xml:space="preserve" text-anchor="middle" x="164" y="-286.93" font-family="Times,serif" font-size="14.00">~</text>
<text xml:space="preserve" text-anchor="middle" x="164" y="-270.43" font-family="Times,serif" font-size="14.00">Normal</text>
</g>
<!-- ug&#45;&gt;x -->
<g id="edge1" class="edge">
<title>ug&#45;&gt;x</title>
<path fill="none" stroke="black" d="M159.2,-380.7C159.83,-369.16 160.53,-356.41 161.19,-344.29"/>
<polygon fill="black" stroke="black" points="164.68,-344.61 161.73,-334.44 157.69,-344.23 164.68,-344.61"/>
</g>
<!-- a0 -->
<g id="node3" class="node">
<title>a0</title>
<path fill="lightgrey" stroke="black" d="M265,-320.73C265,-320.73 235,-320.73 235,-320.73 229,-320.73 223,-314.73 223,-308.73 223,-308.73 223,-275.23 223,-275.23 223,-269.23 229,-263.23 235,-263.23 235,-263.23 265,-263.23 265,-263.23 271,-263.23 277,-269.23 277,-275.23 277,-275.23 277,-308.73 277,-308.73 277,-314.73 271,-320.73 265,-320.73"/>
<text xml:space="preserve" text-anchor="middle" x="250" y="-303.43" font-family="Times,serif" font-size="14.00">a0</text>
<text xml:space="preserve" text-anchor="middle" x="250" y="-286.93" font-family="Times,serif" font-size="14.00">~</text>
<text xml:space="preserve" text-anchor="middle" x="250" y="-270.43" font-family="Times,serif" font-size="14.00">Data</text>
</g>
<!-- a0&#45;&gt;p -->
<g id="edge6" class="edge">
<title>a0&#45;&gt;p</title>
<path fill="none" stroke="black" d="M228.55,-263.05C225.39,-259.08 222.14,-255.07 219,-251.32 211.57,-242.43 203.38,-233.05 195.57,-224.29"/>
<polygon fill="black" stroke="black" points="198.24,-222.01 188.96,-216.9 193.02,-226.68 198.24,-222.01"/>
</g>
<!-- bzy -->
<g id="node4" class="node">
<title>bzy</title>
<path fill="lightgrey" stroke="black" d="M337,-320.73C337,-320.73 307,-320.73 307,-320.73 301,-320.73 295,-314.73 295,-308.73 295,-308.73 295,-275.23 295,-275.23 295,-269.23 301,-263.23 307,-263.23 307,-263.23 337,-263.23 337,-263.23 343,-263.23 349,-269.23 349,-275.23 349,-275.23 349,-308.73 349,-308.73 349,-314.73 343,-320.73 337,-320.73"/>
<text xml:space="preserve" text-anchor="middle" x="322" y="-303.43" font-family="Times,serif" font-size="14.00">bzy</text>
<text xml:space="preserve" text-anchor="middle" x="322" y="-286.93" font-family="Times,serif" font-size="14.00">~</text>
<text xml:space="preserve" text-anchor="middle" x="322" y="-270.43" font-family="Times,serif" font-size="14.00">Data</text>
</g>
<!-- bzy&#45;&gt;p -->
<g id="edge3" class="edge">
<title>bzy&#45;&gt;p</title>
<path fill="none" stroke="black" d="M298.79,-262.8C294.76,-258.7 290.43,-254.71 286,-251.32 265.36,-235.48 240.19,-221.71 217.94,-211.05"/>
<polygon fill="black" stroke="black" points="219.53,-207.93 208.98,-206.87 216.56,-214.28 219.53,-207.93"/>
</g>
<!-- bxy -->
<g id="node5" class="node">
<title>bxy</title>
<path fill="lightgrey" stroke="black" d="M409,-320.73C409,-320.73 379,-320.73 379,-320.73 373,-320.73 367,-314.73 367,-308.73 367,-308.73 367,-275.23 367,-275.23 367,-269.23 373,-263.23 379,-263.23 379,-263.23 409,-263.23 409,-263.23 415,-263.23 421,-269.23 421,-275.23 421,-275.23 421,-308.73 421,-308.73 421,-314.73 415,-320.73 409,-320.73"/>
<text xml:space="preserve" text-anchor="middle" x="394" y="-303.43" font-family="Times,serif" font-size="14.00">bxy</text>
<text xml:space="preserve" text-anchor="middle" x="394" y="-286.93" font-family="Times,serif" font-size="14.00">~</text>
<text xml:space="preserve" text-anchor="middle" x="394" y="-270.43" font-family="Times,serif" font-size="14.00">Data</text>
</g>
<!-- bxy&#45;&gt;p -->
<g id="edge7" class="edge">
<title>bxy&#45;&gt;p</title>
<path fill="none" stroke="black" d="M372.06,-262.97C367.75,-258.64 363,-254.55 358,-251.32 315.29,-223.7 259.59,-207.09 218.49,-197.79"/>
<polygon fill="black" stroke="black" points="219.3,-194.39 208.78,-195.68 217.81,-201.23 219.3,-194.39"/>
</g>
<!-- y -->
<g id="node8" class="node">
<title>y</title>
<ellipse fill="none" stroke="black" cx="160" cy="-81.16" rx="47.38" ry="40.66"/>
<text xml:space="preserve" text-anchor="middle" x="160" y="-92.61" font-family="Times,serif" font-size="14.00">y</text>
<text xml:space="preserve" text-anchor="middle" x="160" y="-76.11" font-family="Times,serif" font-size="14.00">~</text>
<text xml:space="preserve" text-anchor="middle" x="160" y="-59.61" font-family="Times,serif" font-size="14.00">Bernoulli</text>
</g>
<!-- p&#45;&gt;y -->
<g id="edge8" class="edge">
<title>p&#45;&gt;y</title>
<path fill="none" stroke="black" d="M161.46,-157.58C161.31,-150.1 161.15,-141.77 160.99,-133.45"/>
<polygon fill="black" stroke="black" points="164.5,-133.64 160.8,-123.71 157.5,-133.78 164.5,-133.64"/>
</g>
<!-- x&#45;&gt;p -->
<g id="edge4" class="edge">
<title>x&#45;&gt;p</title>
<path fill="none" stroke="black" d="M163.23,-251C163.07,-243.15 162.92,-234.91 162.76,-227.08"/>
<polygon fill="black" stroke="black" points="166.26,-227.04 162.57,-217.11 159.27,-227.17 166.26,-227.04"/>
</g>
</g>
</svg>
