<?xml version="1.0" encoding="utf-8" standalone="no"?>
<!DOCTYPE svg PUBLIC "-//W3C//DTD SVG 1.1//EN"
  "http://www.w3.org/Graphics/SVG/1.1/DTD/svg11.dtd">
<!-- Created with matplotlib (https://matplotlib.org/) -->
<svg height="384.59375pt" version="1.1" viewBox="0 0 733.785938 384.59375" width="733.785938pt" xmlns="http://www.w3.org/2000/svg" xmlns:xlink="http://www.w3.org/1999/xlink">
 <defs>
  <style type="text/css">
*{stroke-linecap:butt;stroke-linejoin:round;}
  </style>
 </defs>
 <g id="figure_1">
  <g id="patch_1">
   <path d="M 0 384.59375 
L 733.785938 384.59375 
L 733.785938 0 
L 0 0 
z
" style="fill:none;"/>
  </g>
  <g id="axes_1">
   <g id="patch_2">
    <path d="M 25.601563 348.103125 
L 695.201563 348.103125 
L 695.201563 21.943125 
L 25.601563 21.943125 
z
" style="fill:#e6e6e6;"/>
   </g>
   <g id="matplotlib.axis_1">
    <g id="xtick_1">
     <g id="text_1">
      <!-- 0 -->
      <defs>
       <path d="M 4.15625 35.296875 
Q 4.15625 48 6.765625 55.734375 
Q 9.375 63.484375 14.515625 67.671875 
Q 19.671875 71.875 27.484375 71.875 
Q 33.25 71.875 37.59375 69.546875 
Q 41.9375 67.234375 44.765625 62.859375 
Q 47.609375 58.5 49.21875 52.21875 
Q 50.828125 45.953125 50.828125 35.296875 
Q 50.828125 22.703125 48.234375 14.96875 
Q 45.65625 7.234375 40.5 3 
Q 35.359375 -1.21875 27.484375 -1.21875 
Q 17.140625 -1.21875 11.234375 6.203125 
Q 4.15625 15.140625 4.15625 35.296875 
z
M 13.1875 35.296875 
Q 13.1875 17.671875 17.3125 11.828125 
Q 21.4375 6 27.484375 6 
Q 33.546875 6 37.671875 11.859375 
Q 41.796875 17.71875 41.796875 35.296875 
Q 41.796875 52.984375 37.671875 58.78125 
Q 33.546875 64.59375 27.390625 64.59375 
Q 21.34375 64.59375 17.71875 59.46875 
Q 13.1875 52.9375 13.1875 35.296875 
z
" id="ArialMT-48"/>
      </defs>
      <g style="fill:#262626;" transform="translate(102.188672 362.260938)scale(0.1 -0.1)">
       <use xlink:href="#ArialMT-48"/>
      </g>
     </g>
    </g>
    <g id="xtick_2">
     <g id="text_2">
      <!-- 1 -->
      <defs>
       <path d="M 37.25 0 
L 28.46875 0 
L 28.46875 56 
Q 25.296875 52.984375 20.140625 49.953125 
Q 14.984375 46.921875 10.890625 45.40625 
L 10.890625 53.90625 
Q 18.265625 57.375 23.78125 62.296875 
Q 29.296875 67.234375 31.59375 71.875 
L 37.25 71.875 
z
" id="ArialMT-49"/>
      </defs>
      <g style="fill:#262626;" transform="translate(230.634959 362.260938)scale(0.1 -0.1)">
       <use xlink:href="#ArialMT-49"/>
      </g>
     </g>
    </g>
    <g id="xtick_3">
     <g id="text_3">
      <!-- 2 -->
      <defs>
       <path d="M 50.34375 8.453125 
L 50.34375 0 
L 3.03125 0 
Q 2.9375 3.171875 4.046875 6.109375 
Q 5.859375 10.9375 9.828125 15.625 
Q 13.8125 20.3125 21.34375 26.46875 
Q 33.015625 36.03125 37.109375 41.625 
Q 41.21875 47.21875 41.21875 52.203125 
Q 41.21875 57.421875 37.46875 61 
Q 33.734375 64.59375 27.734375 64.59375 
Q 21.390625 64.59375 17.578125 60.78125 
Q 13.765625 56.984375 13.71875 50.25 
L 4.6875 51.171875 
Q 5.609375 61.28125 11.65625 66.578125 
Q 17.71875 71.875 27.9375 71.875 
Q 38.234375 71.875 44.234375 66.15625 
Q 50.25 60.453125 50.25 52 
Q 50.25 47.703125 48.484375 43.546875 
Q 46.734375 39.40625 42.65625 34.8125 
Q 38.578125 30.21875 29.109375 22.21875 
Q 21.1875 15.578125 18.9375 13.203125 
Q 16.703125 10.84375 15.234375 8.453125 
z
" id="ArialMT-50"/>
      </defs>
      <g style="fill:#262626;" transform="translate(359.081246 362.260938)scale(0.1 -0.1)">
       <use xlink:href="#ArialMT-50"/>
      </g>
     </g>
    </g>
    <g id="xtick_4">
     <g id="text_4">
      <!-- 3 -->
      <defs>
       <path d="M 4.203125 18.890625 
L 12.984375 20.0625 
Q 14.5 12.59375 18.140625 9.296875 
Q 21.78125 6 27 6 
Q 33.203125 6 37.46875 10.296875 
Q 41.75 14.59375 41.75 20.953125 
Q 41.75 27 37.796875 30.921875 
Q 33.84375 34.859375 27.734375 34.859375 
Q 25.25 34.859375 21.53125 33.890625 
L 22.515625 41.609375 
Q 23.390625 41.5 23.921875 41.5 
Q 29.546875 41.5 34.03125 44.421875 
Q 38.53125 47.359375 38.53125 53.46875 
Q 38.53125 58.296875 35.25 61.46875 
Q 31.984375 64.65625 26.8125 64.65625 
Q 21.6875 64.65625 18.265625 61.421875 
Q 14.84375 58.203125 13.875 51.765625 
L 5.078125 53.328125 
Q 6.6875 62.15625 12.390625 67.015625 
Q 18.109375 71.875 26.609375 71.875 
Q 32.46875 71.875 37.390625 69.359375 
Q 42.328125 66.84375 44.9375 62.5 
Q 47.5625 58.15625 47.5625 53.265625 
Q 47.5625 48.640625 45.0625 44.828125 
Q 42.578125 41.015625 37.703125 38.765625 
Q 44.046875 37.3125 47.5625 32.6875 
Q 51.078125 28.078125 51.078125 21.140625 
Q 51.078125 11.765625 44.234375 5.25 
Q 37.40625 -1.265625 26.953125 -1.265625 
Q 17.53125 -1.265625 11.296875 4.34375 
Q 5.078125 9.96875 4.203125 18.890625 
z
" id="ArialMT-51"/>
      </defs>
      <g style="fill:#262626;" transform="translate(487.527533 362.260938)scale(0.1 -0.1)">
       <use xlink:href="#ArialMT-51"/>
      </g>
     </g>
    </g>
    <g id="xtick_5">
     <g id="text_5">
      <!-- 4 -->
      <defs>
       <path d="M 32.328125 0 
L 32.328125 17.140625 
L 1.265625 17.140625 
L 1.265625 25.203125 
L 33.9375 71.578125 
L 41.109375 71.578125 
L 41.109375 25.203125 
L 50.78125 25.203125 
L 50.78125 17.140625 
L 41.109375 17.140625 
L 41.109375 0 
z
M 32.328125 25.203125 
L 32.328125 57.46875 
L 9.90625 25.203125 
z
" id="ArialMT-52"/>
      </defs>
      <g style="fill:#262626;" transform="translate(615.97382 362.260938)scale(0.1 -0.1)">
       <use xlink:href="#ArialMT-52"/>
      </g>
     </g>
    </g>
    <g id="text_6">
     <!-- batch -->
     <defs>
      <path d="M 14.703125 0 
L 6.546875 0 
L 6.546875 71.578125 
L 15.328125 71.578125 
L 15.328125 46.046875 
Q 20.90625 53.03125 29.546875 53.03125 
Q 34.328125 53.03125 38.59375 51.09375 
Q 42.875 49.171875 45.625 45.671875 
Q 48.390625 42.1875 49.953125 37.25 
Q 51.515625 32.328125 51.515625 26.703125 
Q 51.515625 13.375 44.921875 6.09375 
Q 38.328125 -1.171875 29.109375 -1.171875 
Q 19.921875 -1.171875 14.703125 6.5 
z
M 14.59375 26.3125 
Q 14.59375 17 17.140625 12.84375 
Q 21.296875 6.0625 28.375 6.0625 
Q 34.125 6.0625 38.328125 11.0625 
Q 42.53125 16.0625 42.53125 25.984375 
Q 42.53125 36.140625 38.5 40.96875 
Q 34.46875 45.796875 28.765625 45.796875 
Q 23 45.796875 18.796875 40.796875 
Q 14.59375 35.796875 14.59375 26.3125 
z
" id="ArialMT-98"/>
      <path d="M 40.4375 6.390625 
Q 35.546875 2.25 31.03125 0.53125 
Q 26.515625 -1.171875 21.34375 -1.171875 
Q 12.796875 -1.171875 8.203125 3 
Q 3.609375 7.171875 3.609375 13.671875 
Q 3.609375 17.484375 5.34375 20.625 
Q 7.078125 23.78125 9.890625 25.6875 
Q 12.703125 27.59375 16.21875 28.5625 
Q 18.796875 29.25 24.03125 29.890625 
Q 34.671875 31.15625 39.703125 32.90625 
Q 39.75 34.71875 39.75 35.203125 
Q 39.75 40.578125 37.25 42.78125 
Q 33.890625 45.75 27.25 45.75 
Q 21.046875 45.75 18.09375 43.578125 
Q 15.140625 41.40625 13.71875 35.890625 
L 5.125 37.0625 
Q 6.296875 42.578125 8.984375 45.96875 
Q 11.671875 49.359375 16.75 51.1875 
Q 21.828125 53.03125 28.515625 53.03125 
Q 35.15625 53.03125 39.296875 51.46875 
Q 43.453125 49.90625 45.40625 47.53125 
Q 47.359375 45.171875 48.140625 41.546875 
Q 48.578125 39.3125 48.578125 33.453125 
L 48.578125 21.734375 
Q 48.578125 9.46875 49.140625 6.21875 
Q 49.703125 2.984375 51.375 0 
L 42.1875 0 
Q 40.828125 2.734375 40.4375 6.390625 
z
M 39.703125 26.03125 
Q 34.90625 24.078125 25.34375 22.703125 
Q 19.921875 21.921875 17.671875 20.9375 
Q 15.4375 19.96875 14.203125 18.09375 
Q 12.984375 16.21875 12.984375 13.921875 
Q 12.984375 10.40625 15.640625 8.0625 
Q 18.3125 5.71875 23.4375 5.71875 
Q 28.515625 5.71875 32.46875 7.9375 
Q 36.421875 10.15625 38.28125 14.015625 
Q 39.703125 17 39.703125 22.796875 
z
" id="ArialMT-97"/>
      <path d="M 25.78125 7.859375 
L 27.046875 0.09375 
Q 23.34375 -0.6875 20.40625 -0.6875 
Q 15.625 -0.6875 12.984375 0.828125 
Q 10.359375 2.34375 9.28125 4.8125 
Q 8.203125 7.28125 8.203125 15.1875 
L 8.203125 45.015625 
L 1.765625 45.015625 
L 1.765625 51.859375 
L 8.203125 51.859375 
L 8.203125 64.703125 
L 16.9375 69.96875 
L 16.9375 51.859375 
L 25.78125 51.859375 
L 25.78125 45.015625 
L 16.9375 45.015625 
L 16.9375 14.703125 
Q 16.9375 10.9375 17.40625 9.859375 
Q 17.875 8.796875 18.921875 8.15625 
Q 19.96875 7.515625 21.921875 7.515625 
Q 23.390625 7.515625 25.78125 7.859375 
z
" id="ArialMT-116"/>
      <path d="M 40.4375 19 
L 49.078125 17.875 
Q 47.65625 8.9375 41.8125 3.875 
Q 35.984375 -1.171875 27.484375 -1.171875 
Q 16.84375 -1.171875 10.375 5.78125 
Q 3.90625 12.75 3.90625 25.734375 
Q 3.90625 34.125 6.6875 40.421875 
Q 9.46875 46.734375 15.15625 49.875 
Q 20.84375 53.03125 27.546875 53.03125 
Q 35.984375 53.03125 41.359375 48.75 
Q 46.734375 44.484375 48.25 36.625 
L 39.703125 35.296875 
Q 38.484375 40.53125 35.375 43.15625 
Q 32.28125 45.796875 27.875 45.796875 
Q 21.234375 45.796875 17.078125 41.03125 
Q 12.9375 36.28125 12.9375 25.984375 
Q 12.9375 15.53125 16.9375 10.796875 
Q 20.953125 6.0625 27.390625 6.0625 
Q 32.5625 6.0625 36.03125 9.234375 
Q 39.5 12.40625 40.4375 19 
z
" id="ArialMT-99"/>
      <path d="M 6.59375 0 
L 6.59375 71.578125 
L 15.375 71.578125 
L 15.375 45.90625 
Q 21.53125 53.03125 30.90625 53.03125 
Q 36.671875 53.03125 40.921875 50.75 
Q 45.171875 48.484375 47 44.484375 
Q 48.828125 40.484375 48.828125 32.859375 
L 48.828125 0 
L 40.046875 0 
L 40.046875 32.859375 
Q 40.046875 39.453125 37.1875 42.453125 
Q 34.328125 45.453125 29.109375 45.453125 
Q 25.203125 45.453125 21.75 43.421875 
Q 18.3125 41.40625 16.84375 37.9375 
Q 15.375 34.46875 15.375 28.375 
L 15.375 0 
z
" id="ArialMT-104"/>
     </defs>
     <g style="fill:#262626;" transform="translate(348.171094 375.40625)scale(0.1 -0.1)">
      <use xlink:href="#ArialMT-98"/>
      <use x="55.615234" xlink:href="#ArialMT-97"/>
      <use x="111.230469" xlink:href="#ArialMT-116"/>
      <use x="139.013672" xlink:href="#ArialMT-99"/>
      <use x="189.013672" xlink:href="#ArialMT-104"/>
     </g>
    </g>
   </g>
   <g id="matplotlib.axis_2">
    <g id="ytick_1">
     <g id="line2d_1">
      <path clip-path="url(#p05fb24fd54)" d="M 25.601563 342.918969 
L 695.201563 342.918969 
" style="fill:none;stroke:#cccccc;stroke-linecap:round;stroke-width:0.8;"/>
     </g>
     <g id="line2d_2">
      <defs>
       <path d="M 0 0 
L -3.5 0 
" id="mbc3d802c53" style="stroke:#262626;stroke-width:0.8;"/>
      </defs>
      <g>
       <use style="fill:#262626;stroke:#262626;stroke-width:0.8;" x="25.601563" xlink:href="#mbc3d802c53" y="342.918969"/>
      </g>
     </g>
     <g id="text_7">
      <!-- −4 -->
      <defs>
       <path d="M 52.828125 31.203125 
L 5.5625 31.203125 
L 5.5625 39.40625 
L 52.828125 39.40625 
z
" id="ArialMT-8722"/>
      </defs>
      <g style="fill:#262626;" transform="translate(7.2 346.497875)scale(0.1 -0.1)">
       <use xlink:href="#ArialMT-8722"/>
       <use x="58.398438" xlink:href="#ArialMT-52"/>
      </g>
     </g>
    </g>
    <g id="ytick_2">
     <g id="line2d_3">
      <path clip-path="url(#p05fb24fd54)" d="M 25.601563 303.286494 
L 695.201563 303.286494 
" style="fill:none;stroke:#cccccc;stroke-linecap:round;stroke-width:0.8;"/>
     </g>
     <g id="line2d_4">
      <g>
       <use style="fill:#262626;stroke:#262626;stroke-width:0.8;" x="25.601563" xlink:href="#mbc3d802c53" y="303.286494"/>
      </g>
     </g>
     <g id="text_8">
      <!-- −2 -->
      <g style="fill:#262626;" transform="translate(7.2 306.8654)scale(0.1 -0.1)">
       <use xlink:href="#ArialMT-8722"/>
       <use x="58.398438" xlink:href="#ArialMT-50"/>
      </g>
     </g>
    </g>
    <g id="ytick_3">
     <g id="line2d_5">
      <path clip-path="url(#p05fb24fd54)" d="M 25.601563 263.654019 
L 695.201563 263.654019 
" style="fill:none;stroke:#cccccc;stroke-linecap:round;stroke-width:0.8;"/>
     </g>
     <g id="line2d_6">
      <g>
       <use style="fill:#262626;stroke:#262626;stroke-width:0.8;" x="25.601563" xlink:href="#mbc3d802c53" y="263.654019"/>
      </g>
     </g>
     <g id="text_9">
      <!-- 0 -->
      <g style="fill:#262626;" transform="translate(13.040625 267.232925)scale(0.1 -0.1)">
       <use xlink:href="#ArialMT-48"/>
      </g>
     </g>
    </g>
    <g id="ytick_4">
     <g id="line2d_7">
      <path clip-path="url(#p05fb24fd54)" d="M 25.601563 224.021544 
L 695.201563 224.021544 
" style="fill:none;stroke:#cccccc;stroke-linecap:round;stroke-width:0.8;"/>
     </g>
     <g id="line2d_8">
      <g>
       <use style="fill:#262626;stroke:#262626;stroke-width:0.8;" x="25.601563" xlink:href="#mbc3d802c53" y="224.021544"/>
      </g>
     </g>
     <g id="text_10">
      <!-- 2 -->
      <g style="fill:#262626;" transform="translate(13.040625 227.60045)scale(0.1 -0.1)">
       <use xlink:href="#ArialMT-50"/>
      </g>
     </g>
    </g>
    <g id="ytick_5">
     <g id="line2d_9">
      <path clip-path="url(#p05fb24fd54)" d="M 25.601563 184.389069 
L 695.201563 184.389069 
" style="fill:none;stroke:#cccccc;stroke-linecap:round;stroke-width:0.8;"/>
     </g>
     <g id="line2d_10">
      <g>
       <use style="fill:#262626;stroke:#262626;stroke-width:0.8;" x="25.601563" xlink:href="#mbc3d802c53" y="184.389069"/>
      </g>
     </g>
     <g id="text_11">
      <!-- 4 -->
      <g style="fill:#262626;" transform="translate(13.040625 187.967975)scale(0.1 -0.1)">
       <use xlink:href="#ArialMT-52"/>
      </g>
     </g>
    </g>
    <g id="ytick_6">
     <g id="line2d_11">
      <path clip-path="url(#p05fb24fd54)" d="M 25.601563 144.756594 
L 695.201563 144.756594 
" style="fill:none;stroke:#cccccc;stroke-linecap:round;stroke-width:0.8;"/>
     </g>
     <g id="line2d_12">
      <g>
       <use style="fill:#262626;stroke:#262626;stroke-width:0.8;" x="25.601563" xlink:href="#mbc3d802c53" y="144.756594"/>
      </g>
     </g>
     <g id="text_12">
      <!-- 6 -->
      <defs>
       <path d="M 49.75 54.046875 
L 41.015625 53.375 
Q 39.84375 58.546875 37.703125 60.890625 
Q 34.125 64.65625 28.90625 64.65625 
Q 24.703125 64.65625 21.53125 62.3125 
Q 17.390625 59.28125 14.984375 53.46875 
Q 12.59375 47.65625 12.5 36.921875 
Q 15.671875 41.75 20.265625 44.09375 
Q 24.859375 46.4375 29.890625 46.4375 
Q 38.671875 46.4375 44.84375 39.96875 
Q 51.03125 33.5 51.03125 23.25 
Q 51.03125 16.5 48.125 10.71875 
Q 45.21875 4.9375 40.140625 1.859375 
Q 35.0625 -1.21875 28.609375 -1.21875 
Q 17.625 -1.21875 10.6875 6.859375 
Q 3.765625 14.9375 3.765625 33.5 
Q 3.765625 54.25 11.421875 63.671875 
Q 18.109375 71.875 29.4375 71.875 
Q 37.890625 71.875 43.28125 67.140625 
Q 48.6875 62.40625 49.75 54.046875 
z
M 13.875 23.1875 
Q 13.875 18.65625 15.796875 14.5 
Q 17.71875 10.359375 21.1875 8.171875 
Q 24.65625 6 28.46875 6 
Q 34.03125 6 38.03125 10.484375 
Q 42.046875 14.984375 42.046875 22.703125 
Q 42.046875 30.125 38.078125 34.390625 
Q 34.125 38.671875 28.125 38.671875 
Q 22.171875 38.671875 18.015625 34.390625 
Q 13.875 30.125 13.875 23.1875 
z
" id="ArialMT-54"/>
      </defs>
      <g style="fill:#262626;" transform="translate(13.040625 148.3355)scale(0.1 -0.1)">
       <use xlink:href="#ArialMT-54"/>
      </g>
     </g>
    </g>
    <g id="ytick_7">
     <g id="line2d_13">
      <path clip-path="url(#p05fb24fd54)" d="M 25.601563 105.124119 
L 695.201563 105.124119 
" style="fill:none;stroke:#cccccc;stroke-linecap:round;stroke-width:0.8;"/>
     </g>
     <g id="line2d_14">
      <g>
       <use style="fill:#262626;stroke:#262626;stroke-width:0.8;" x="25.601563" xlink:href="#mbc3d802c53" y="105.124119"/>
      </g>
     </g>
     <g id="text_13">
      <!-- 8 -->
      <defs>
       <path d="M 17.671875 38.8125 
Q 12.203125 40.828125 9.5625 44.53125 
Q 6.9375 48.25 6.9375 53.421875 
Q 6.9375 61.234375 12.546875 66.546875 
Q 18.171875 71.875 27.484375 71.875 
Q 36.859375 71.875 42.578125 66.421875 
Q 48.296875 60.984375 48.296875 53.171875 
Q 48.296875 48.1875 45.671875 44.5 
Q 43.0625 40.828125 37.75 38.8125 
Q 44.34375 36.671875 47.78125 31.875 
Q 51.21875 27.09375 51.21875 20.453125 
Q 51.21875 11.28125 44.71875 5.03125 
Q 38.234375 -1.21875 27.640625 -1.21875 
Q 17.046875 -1.21875 10.546875 5.046875 
Q 4.046875 11.328125 4.046875 20.703125 
Q 4.046875 27.6875 7.59375 32.390625 
Q 11.140625 37.109375 17.671875 38.8125 
z
M 15.921875 53.71875 
Q 15.921875 48.640625 19.1875 45.40625 
Q 22.46875 42.1875 27.6875 42.1875 
Q 32.765625 42.1875 36.015625 45.375 
Q 39.265625 48.578125 39.265625 53.21875 
Q 39.265625 58.0625 35.90625 61.359375 
Q 32.5625 64.65625 27.59375 64.65625 
Q 22.5625 64.65625 19.234375 61.421875 
Q 15.921875 58.203125 15.921875 53.71875 
z
M 13.09375 20.65625 
Q 13.09375 16.890625 14.875 13.375 
Q 16.65625 9.859375 20.171875 7.921875 
Q 23.6875 6 27.734375 6 
Q 34.03125 6 38.125 10.046875 
Q 42.234375 14.109375 42.234375 20.359375 
Q 42.234375 26.703125 38.015625 30.859375 
Q 33.796875 35.015625 27.4375 35.015625 
Q 21.234375 35.015625 17.15625 30.90625 
Q 13.09375 26.8125 13.09375 20.65625 
z
" id="ArialMT-56"/>
      </defs>
      <g style="fill:#262626;" transform="translate(13.040625 108.703026)scale(0.1 -0.1)">
       <use xlink:href="#ArialMT-56"/>
      </g>
     </g>
    </g>
    <g id="ytick_8">
     <g id="line2d_15">
      <path clip-path="url(#p05fb24fd54)" d="M 25.601563 65.491644 
L 695.201563 65.491644 
" style="fill:none;stroke:#cccccc;stroke-linecap:round;stroke-width:0.8;"/>
     </g>
     <g id="line2d_16">
      <g>
       <use style="fill:#262626;stroke:#262626;stroke-width:0.8;" x="25.601563" xlink:href="#mbc3d802c53" y="65.491644"/>
      </g>
     </g>
     <g id="text_14">
      <!-- 10 -->
      <g style="fill:#262626;" transform="translate(7.479688 69.070551)scale(0.1 -0.1)">
       <use xlink:href="#ArialMT-49"/>
       <use x="55.615234" xlink:href="#ArialMT-48"/>
      </g>
     </g>
    </g>
    <g id="ytick_9">
     <g id="line2d_17">
      <path clip-path="url(#p05fb24fd54)" d="M 25.601563 25.85917 
L 695.201563 25.85917 
" style="fill:none;stroke:#cccccc;stroke-linecap:round;stroke-width:0.8;"/>
     </g>
     <g id="line2d_18">
      <g>
       <use style="fill:#262626;stroke:#262626;stroke-width:0.8;" x="25.601563" xlink:href="#mbc3d802c53" y="25.85917"/>
      </g>
     </g>
     <g id="text_15">
      <!-- 12 -->
      <g style="fill:#262626;" transform="translate(7.479688 29.438076)scale(0.1 -0.1)">
       <use xlink:href="#ArialMT-49"/>
       <use x="55.615234" xlink:href="#ArialMT-50"/>
      </g>
     </g>
    </g>
   </g>
   <g id="PolyCollection_1">
    <defs>
     <path d="M 105.012418 -51.31608 
L 104.925863 -51.31608 
L 104.888424 -52.822826 
L 104.828574 -54.329572 
L 104.739499 -55.836318 
L 104.61528 -57.343064 
L 104.451676 -58.84981 
L 104.246367 -60.356556 
L 103.998772 -61.863302 
L 103.709912 -63.370049 
L 103.382726 -64.876795 
L 103.022648 -66.383541 
L 102.637509 -67.890287 
L 102.235776 -69.397033 
L 101.82315 -70.903779 
L 101.399124 -72.410525 
L 100.955891 -73.917271 
L 100.480976 -75.424018 
L 99.962516 -76.930764 
L 99.394029 -78.43751 
L 98.775487 -79.944256 
L 98.109618 -81.451002 
L 97.395335 -82.957748 
L 96.621851 -84.464494 
L 95.766361 -85.97124 
L 94.7956 -87.477987 
L 93.669211 -88.984733 
L 92.343073 -90.491479 
L 90.773648 -91.998225 
L 88.926866 -93.504971 
L 86.793045 -95.011717 
L 84.402391 -96.518463 
L 81.829537 -98.025209 
L 79.177851 -99.531956 
L 76.546756 -101.038702 
L 73.999478 -102.545448 
L 71.551916 -104.052194 
L 69.190345 -105.55894 
L 66.905259 -107.065686 
L 64.717446 -108.572432 
L 62.679902 -110.079178 
L 60.858745 -111.585925 
L 59.310577 -113.092671 
L 58.071103 -114.599417 
L 57.154851 -116.106163 
L 56.554575 -117.612909 
L 56.232929 -119.119655 
L 56.114111 -120.626401 
L 56.093638 -122.133147 
L 56.077269 -123.639894 
L 56.037926 -125.14664 
L 56.059027 -126.653386 
L 56.331551 -128.160132 
L 57.09464 -129.666878 
L 58.541895 -131.173624 
L 60.736527 -132.68037 
L 63.575038 -134.187116 
L 66.814691 -135.693863 
L 70.150143 -137.200609 
L 73.304938 -138.707355 
L 76.101349 -140.214101 
L 78.485632 -141.720847 
L 80.507616 -143.227593 
L 82.273193 -144.734339 
L 83.896019 -146.241085 
L 85.467231 -147.747832 
L 87.045954 -149.254578 
L 88.660935 -150.761324 
L 90.312949 -152.26807 
L 91.975723 -153.774816 
L 93.600259 -155.281562 
L 95.126711 -156.788308 
L 96.501502 -158.295054 
L 97.692366 -159.801801 
L 98.695011 -161.308547 
L 99.530272 -162.815293 
L 100.235024 -164.322039 
L 100.851117 -165.828785 
L 101.415358 -167.335531 
L 101.952292 -168.842277 
L 102.471008 -170.349023 
L 102.96646 -171.85577 
L 103.424482 -173.362516 
L 103.828333 -174.869262 
L 104.164394 -176.376008 
L 104.425508 -177.882754 
L 104.61176 -179.3895 
L 104.729463 -180.896246 
L 104.789406 -182.402992 
L 104.805228 -183.909739 
L 104.79218 -185.416485 
L 104.765966 -186.923231 
L 104.741133 -188.429977 
L 104.728933 -189.936723 
L 104.735286 -191.443469 
L 104.75995 -192.950215 
L 104.79755 -194.456961 
L 104.840172 -195.963708 
L 104.880342 -197.470454 
L 104.913137 -198.9772 
L 104.936789 -200.483946 
L 105.001492 -200.483946 
L 105.001492 -200.483946 
L 105.025144 -198.9772 
L 105.057939 -197.470454 
L 105.098109 -195.963708 
L 105.140731 -194.456961 
L 105.178331 -192.950215 
L 105.202995 -191.443469 
L 105.209348 -189.936723 
L 105.197148 -188.429977 
L 105.172315 -186.923231 
L 105.146101 -185.416485 
L 105.133053 -183.909739 
L 105.148875 -182.402992 
L 105.208818 -180.896246 
L 105.326521 -179.3895 
L 105.512773 -177.882754 
L 105.773887 -176.376008 
L 106.109948 -174.869262 
L 106.513799 -173.362516 
L 106.971821 -171.85577 
L 107.467273 -170.349023 
L 107.985989 -168.842277 
L 108.522923 -167.335531 
L 109.087164 -165.828785 
L 109.703257 -164.322039 
L 110.408009 -162.815293 
L 111.24327 -161.308547 
L 112.245915 -159.801801 
L 113.436779 -158.295054 
L 114.81157 -156.788308 
L 116.338022 -155.281562 
L 117.962558 -153.774816 
L 119.625332 -152.26807 
L 121.277346 -150.761324 
L 122.892327 -149.254578 
L 124.47105 -147.747832 
L 126.042262 -146.241085 
L 127.665088 -144.734339 
L 129.430665 -143.227593 
L 131.452649 -141.720847 
L 133.836932 -140.214101 
L 136.633343 -138.707355 
L 139.788138 -137.200609 
L 143.12359 -135.693863 
L 146.363243 -134.187116 
L 149.201754 -132.68037 
L 151.396386 -131.173624 
L 152.843641 -129.666878 
L 153.60673 -128.160132 
L 153.879254 -126.653386 
L 153.900355 -125.14664 
L 153.861012 -123.639894 
L 153.844643 -122.133147 
L 153.82417 -120.626401 
L 153.705352 -119.119655 
L 153.383706 -117.612909 
L 152.78343 -116.106163 
L 151.867178 -114.599417 
L 150.627704 -113.092671 
L 149.079536 -111.585925 
L 147.258379 -110.079178 
L 145.220835 -108.572432 
L 143.033022 -107.065686 
L 140.747936 -105.55894 
L 138.386365 -104.052194 
L 135.938803 -102.545448 
L 133.391525 -101.038702 
L 130.76043 -99.531956 
L 128.108744 -98.025209 
L 125.53589 -96.518463 
L 123.145236 -95.011717 
L 121.011415 -93.504971 
L 119.164633 -91.998225 
L 117.595208 -90.491479 
L 116.26907 -88.984733 
L 115.142681 -87.477987 
L 114.17192 -85.97124 
L 113.31643 -84.464494 
L 112.542946 -82.957748 
L 111.828663 -81.451002 
L 111.162794 -79.944256 
L 110.544252 -78.43751 
L 109.975765 -76.930764 
L 109.457305 -75.424018 
L 108.98239 -73.917271 
L 108.539157 -72.410525 
L 108.115131 -70.903779 
L 107.702505 -69.397033 
L 107.300772 -67.890287 
L 106.915633 -66.383541 
L 106.555555 -64.876795 
L 106.228369 -63.370049 
L 105.939509 -61.863302 
L 105.691914 -60.356556 
L 105.486605 -58.84981 
L 105.323001 -57.343064 
L 105.198782 -55.836318 
L 105.109707 -54.329572 
L 105.049857 -52.822826 
L 105.012418 -51.31608 
z
" id="m13a0c7d143" style="stroke:#4c4c4c;stroke-width:1.5;"/>
    </defs>
    <g clip-path="url(#p05fb24fd54)">
     <use style="fill:#5875a4;stroke:#4c4c4c;stroke-width:1.5;" x="0" xlink:href="#m13a0c7d143" y="384.59375"/>
    </g>
   </g>
   <g id="PolyCollection_2">
    <defs>
     <path d="M 233.450404 -92.858702 
L 233.380451 -92.858702 
L 233.354674 -94.280069 
L 233.316401 -95.701436 
L 233.263039 -97.122804 
L 233.192227 -98.544171 
L 233.10107 -99.965538 
L 232.984679 -101.386906 
L 232.834547 -102.808273 
L 232.63761 -104.22964 
L 232.376789 -105.651008 
L 232.033219 -107.072375 
L 231.589578 -108.493742 
L 231.033389 -109.91511 
L 230.359193 -111.336477 
L 229.56907 -112.757844 
L 228.671865 -114.179212 
L 227.682263 -115.600579 
L 226.620993 -117.021946 
L 225.516581 -118.443314 
L 224.407311 -119.864681 
L 223.34047 -121.286048 
L 222.365829 -122.707416 
L 221.522676 -124.128783 
L 220.823713 -125.55015 
L 220.24241 -126.971518 
L 219.710805 -128.392885 
L 219.131208 -129.814252 
L 218.399358 -131.23562 
L 217.431101 -132.656987 
L 216.182496 -134.078354 
L 214.655659 -135.499722 
L 212.888877 -136.921089 
L 210.936505 -138.342456 
L 208.848367 -139.763824 
L 206.657528 -141.185191 
L 204.379848 -142.606558 
L 202.022139 -144.027926 
L 199.592081 -145.449293 
L 197.104565 -146.87066 
L 194.584268 -148.292028 
L 192.068604 -149.713395 
L 189.614753 -151.134762 
L 187.308884 -152.55613 
L 185.269301 -153.977497 
L 183.634095 -155.398864 
L 182.53076 -156.820232 
L 182.036913 -158.241599 
L 182.149747 -159.662967 
L 182.780696 -161.084334 
L 183.780542 -162.505701 
L 184.985433 -163.927069 
L 186.264506 -165.348436 
L 187.549975 -166.769803 
L 188.839821 -168.191171 
L 190.176105 -169.612538 
L 191.612054 -171.033905 
L 193.184004 -172.455273 
L 194.899109 -173.87664 
L 196.739608 -175.298007 
L 198.675398 -176.719375 
L 200.67406 -178.140742 
L 202.702586 -179.562109 
L 204.723561 -180.983477 
L 206.693771 -182.404844 
L 208.571244 -183.826211 
L 210.32933 -185.247579 
L 211.969616 -186.668946 
L 213.524428 -188.090313 
L 215.045163 -189.511681 
L 216.580928 -190.933048 
L 218.157654 -192.354415 
L 219.767767 -193.775783 
L 221.374902 -195.19715 
L 222.93041 -196.618517 
L 224.392729 -198.039885 
L 225.740041 -199.461252 
L 226.971115 -200.882619 
L 228.09606 -202.303987 
L 229.123735 -203.725354 
L 230.053233 -205.146721 
L 230.873196 -206.568089 
L 231.567753 -207.989456 
L 232.12461 -209.410823 
L 232.540864 -210.832191 
L 232.824586 -212.253558 
L 232.992889 -213.674925 
L 233.06863 -215.096293 
L 233.077487 -216.51766 
L 233.045905 -217.939027 
L 232.99931 -219.360395 
L 232.95986 -220.781762 
L 232.94373 -222.203129 
L 232.958816 -223.624497 
L 233.004079 -225.045864 
L 233.071186 -226.467231 
L 233.148016 -227.888599 
L 233.222668 -229.309966 
L 233.286517 -230.731333 
L 233.335455 -232.152701 
L 233.369409 -233.574068 
L 233.461446 -233.574068 
L 233.461446 -233.574068 
L 233.4954 -232.152701 
L 233.544338 -230.731333 
L 233.608187 -229.309966 
L 233.682839 -227.888599 
L 233.759669 -226.467231 
L 233.826776 -225.045864 
L 233.872038 -223.624497 
L 233.887125 -222.203129 
L 233.870995 -220.781762 
L 233.831545 -219.360395 
L 233.78495 -217.939027 
L 233.753368 -216.51766 
L 233.762225 -215.096293 
L 233.837966 -213.674925 
L 234.006269 -212.253558 
L 234.289991 -210.832191 
L 234.706245 -209.410823 
L 235.263101 -207.989456 
L 235.957659 -206.568089 
L 236.777622 -205.146721 
L 237.70712 -203.725354 
L 238.734795 -202.303987 
L 239.85974 -200.882619 
L 241.090814 -199.461252 
L 242.438126 -198.039885 
L 243.900445 -196.618517 
L 245.455953 -195.19715 
L 247.063088 -193.775783 
L 248.673201 -192.354415 
L 250.249927 -190.933048 
L 251.785692 -189.511681 
L 253.306427 -188.090313 
L 254.861239 -186.668946 
L 256.501525 -185.247579 
L 258.259611 -183.826211 
L 260.137084 -182.404844 
L 262.107294 -180.983477 
L 264.128269 -179.562109 
L 266.156795 -178.140742 
L 268.155457 -176.719375 
L 270.091247 -175.298007 
L 271.931746 -173.87664 
L 273.646851 -172.455273 
L 275.218801 -171.033905 
L 276.65475 -169.612538 
L 277.991034 -168.191171 
L 279.28088 -166.769803 
L 280.566349 -165.348436 
L 281.845422 -163.927069 
L 283.050313 -162.505701 
L 284.050159 -161.084334 
L 284.681108 -159.662967 
L 284.793942 -158.241599 
L 284.300095 -156.820232 
L 283.19676 -155.398864 
L 281.561554 -153.977497 
L 279.521971 -152.55613 
L 277.216102 -151.134762 
L 274.762251 -149.713395 
L 272.246587 -148.292028 
L 269.72629 -146.87066 
L 267.238774 -145.449293 
L 264.808716 -144.027926 
L 262.451007 -142.606558 
L 260.173327 -141.185191 
L 257.982488 -139.763824 
L 255.89435 -138.342456 
L 253.941978 -136.921089 
L 252.175196 -135.499722 
L 250.648359 -134.078354 
L 249.399754 -132.656987 
L 248.431497 -131.23562 
L 247.699646 -129.814252 
L 247.12005 -128.392885 
L 246.588445 -126.971518 
L 246.007142 -125.55015 
L 245.308179 -124.128783 
L 244.465026 -122.707416 
L 243.490385 -121.286048 
L 242.423544 -119.864681 
L 241.314274 -118.443314 
L 240.209862 -117.021946 
L 239.148592 -115.600579 
L 238.15899 -114.179212 
L 237.261784 -112.757844 
L 236.471662 -111.336477 
L 235.797466 -109.91511 
L 235.241277 -108.493742 
L 234.797636 -107.072375 
L 234.454066 -105.651008 
L 234.193245 -104.22964 
L 233.996307 -102.808273 
L 233.846176 -101.386906 
L 233.729785 -99.965538 
L 233.638627 -98.544171 
L 233.567816 -97.122804 
L 233.514454 -95.701436 
L 233.47618 -94.280069 
L 233.450404 -92.858702 
z
" id="me123d00f2c" style="stroke:#4c4c4c;stroke-width:1.5;"/>
    </defs>
    <g clip-path="url(#p05fb24fd54)">
     <use style="fill:#cc8963;stroke:#4c4c4c;stroke-width:1.5;" x="0" xlink:href="#me123d00f2c" y="384.59375"/>
    </g>
   </g>
   <g id="PolyCollection_3">
    <defs>
     <path d="M 361.909273 -135.404587 
L 361.814156 -135.404587 
L 361.776488 -136.748 
L 361.716421 -138.091412 
L 361.625456 -139.434825 
L 361.494361 -140.778237 
L 361.314316 -142.12165 
L 361.07854 -143.465062 
L 360.784217 -144.808475 
L 360.434244 -146.151887 
L 360.038038 -147.4953 
L 359.610464 -148.838712 
L 359.168297 -150.182125 
L 358.724498 -151.525538 
L 358.281864 -152.86895 
L 357.828635 -154.212363 
L 357.338626 -155.555775 
L 356.777021 -156.899188 
L 356.110405 -158.2426 
L 355.317182 -159.586013 
L 354.393744 -160.929425 
L 353.353393 -162.272838 
L 352.21844 -163.61625 
L 351.00922 -164.959663 
L 349.735109 -166.303075 
L 348.391189 -167.646488 
L 346.961169 -168.9899 
L 345.424363 -170.333313 
L 343.763514 -171.676726 
L 341.971091 -173.020138 
L 340.0532 -174.363551 
L 338.031243 -175.706963 
L 335.941369 -177.050376 
L 333.831297 -178.393788 
L 331.754107 -179.737201 
L 329.759731 -181.080613 
L 327.88645 -182.424026 
L 326.155631 -183.767438 
L 324.571963 -185.110851 
L 323.128667 -186.454263 
L 321.814104 -187.797676 
L 320.615163 -189.141088 
L 319.515273 -190.484501 
L 318.489755 -191.827914 
L 317.50517 -193.171326 
L 316.528741 -194.514739 
L 315.547832 -195.858151 
L 314.590979 -197.201564 
L 313.736991 -198.544976 
L 313.101798 -199.888389 
L 312.803776 -201.231801 
L 312.921425 -202.575214 
L 313.463977 -203.918626 
L 314.37078 -205.262039 
L 315.54071 -206.605451 
L 316.876858 -207.948864 
L 318.323807 -209.292276 
L 319.879613 -210.635689 
L 321.57891 -211.979102 
L 323.458638 -213.322514 
L 325.525371 -214.665927 
L 327.739867 -216.009339 
L 330.023735 -217.352752 
L 332.281808 -218.696164 
L 334.427941 -220.039577 
L 336.403343 -221.382989 
L 338.18262 -222.726402 
L 339.769378 -224.069814 
L 341.186848 -225.413227 
L 342.468918 -226.756639 
L 343.654363 -228.100052 
L 344.784137 -229.443464 
L 345.899767 -230.786877 
L 347.040679 -232.13029 
L 348.239216 -233.473702 
L 349.513727 -234.817115 
L 350.861695 -236.160527 
L 352.25589 -237.50394 
L 353.646278 -238.847352 
L 354.968709 -240.190765 
L 356.158726 -241.534177 
L 357.166519 -242.87759 
L 357.968212 -244.221002 
L 358.569977 -245.564415 
L 359.004061 -246.907827 
L 359.318605 -248.25124 
L 359.564894 -249.594653 
L 359.785974 -250.938065 
L 360.009547 -252.281478 
L 360.246328 -253.62489 
L 360.493174 -254.968303 
L 360.738928 -256.311715 
L 360.970502 -257.655128 
L 361.177299 -258.99854 
L 361.353192 -260.341953 
L 361.496454 -261.685365 
L 361.608589 -263.028778 
L 361.693005 -264.37219 
L 361.753997 -265.715603 
L 361.796114 -267.059015 
L 361.823767 -268.402428 
L 361.899662 -268.402428 
L 361.899662 -268.402428 
L 361.927315 -267.059015 
L 361.969432 -265.715603 
L 362.030424 -264.37219 
L 362.11484 -263.028778 
L 362.226975 -261.685365 
L 362.370237 -260.341953 
L 362.54613 -258.99854 
L 362.752927 -257.655128 
L 362.984501 -256.311715 
L 363.230254 -254.968303 
L 363.477101 -253.62489 
L 363.713882 -252.281478 
L 363.937455 -250.938065 
L 364.158535 -249.594653 
L 364.404824 -248.25124 
L 364.719368 -246.907827 
L 365.153452 -245.564415 
L 365.755217 -244.221002 
L 366.55691 -242.87759 
L 367.564703 -241.534177 
L 368.75472 -240.190765 
L 370.077151 -238.847352 
L 371.467539 -237.50394 
L 372.861734 -236.160527 
L 374.209702 -234.817115 
L 375.484213 -233.473702 
L 376.68275 -232.13029 
L 377.823661 -230.786877 
L 378.939291 -229.443464 
L 380.069065 -228.100052 
L 381.254511 -226.756639 
L 382.536581 -225.413227 
L 383.954051 -224.069814 
L 385.540809 -222.726402 
L 387.320086 -221.382989 
L 389.295487 -220.039577 
L 391.441621 -218.696164 
L 393.699694 -217.352752 
L 395.983562 -216.009339 
L 398.198058 -214.665927 
L 400.26479 -213.322514 
L 402.144519 -211.979102 
L 403.843816 -210.635689 
L 405.399622 -209.292276 
L 406.846571 -207.948864 
L 408.182719 -206.605451 
L 409.352649 -205.262039 
L 410.259452 -203.918626 
L 410.802004 -202.575214 
L 410.919653 -201.231801 
L 410.621631 -199.888389 
L 409.986437 -198.544976 
L 409.13245 -197.201564 
L 408.175597 -195.858151 
L 407.194688 -194.514739 
L 406.218259 -193.171326 
L 405.233674 -191.827914 
L 404.208156 -190.484501 
L 403.108266 -189.141088 
L 401.909325 -187.797676 
L 400.594762 -186.454263 
L 399.151466 -185.110851 
L 397.567798 -183.767438 
L 395.836979 -182.424026 
L 393.963698 -181.080613 
L 391.969322 -179.737201 
L 389.892132 -178.393788 
L 387.78206 -177.050376 
L 385.692186 -175.706963 
L 383.670229 -174.363551 
L 381.752338 -173.020138 
L 379.959914 -171.676726 
L 378.299066 -170.333313 
L 376.76226 -168.9899 
L 375.33224 -167.646488 
L 373.98832 -166.303075 
L 372.714209 -164.959663 
L 371.504989 -163.61625 
L 370.370036 -162.272838 
L 369.329685 -160.929425 
L 368.406247 -159.586013 
L 367.613024 -158.2426 
L 366.946408 -156.899188 
L 366.384803 -155.555775 
L 365.894794 -154.212363 
L 365.441565 -152.86895 
L 364.998931 -151.525538 
L 364.555132 -150.182125 
L 364.112965 -148.838712 
L 363.685391 -147.4953 
L 363.289185 -146.151887 
L 362.939212 -144.808475 
L 362.644889 -143.465062 
L 362.409113 -142.12165 
L 362.229068 -140.778237 
L 362.097973 -139.434825 
L 362.007008 -138.091412 
L 361.946941 -136.748 
L 361.909273 -135.404587 
z
" id="m74fcaeb9cb" style="stroke:#4c4c4c;stroke-width:1.5;"/>
    </defs>
    <g clip-path="url(#p05fb24fd54)">
     <use style="fill:#5f9e6e;stroke:#4c4c4c;stroke-width:1.5;" x="0" xlink:href="#m74fcaeb9cb" y="384.59375"/>
    </g>
   </g>
   <g id="PolyCollection_4">
    <defs>
     <path d="M 490.350842 -172.988777 
L 490.265161 -172.988777 
L 490.226513 -174.564017 
L 490.164512 -176.139257 
L 490.073007 -177.714497 
L 489.947965 -179.289736 
L 489.788245 -180.864976 
L 489.594972 -182.440216 
L 489.36965 -184.015455 
L 489.112072 -185.590695 
L 488.819417 -187.165935 
L 488.487151 -188.741175 
L 488.110817 -190.316414 
L 487.686869 -191.891654 
L 487.211174 -193.466894 
L 486.675551 -195.042133 
L 486.06418 -196.617373 
L 485.351717 -198.192613 
L 484.503657 -199.767853 
L 483.478421 -201.343092 
L 482.231126 -202.918332 
L 480.720537 -204.493572 
L 478.921133 -206.068812 
L 476.839347 -207.644051 
L 474.527322 -209.219291 
L 472.083342 -210.794531 
L 469.63107 -212.36977 
L 467.280994 -213.94501 
L 465.090532 -215.52025 
L 463.043903 -217.09549 
L 461.06401 -218.670729 
L 459.05183 -220.245969 
L 456.935468 -221.821209 
L 454.708593 -223.396448 
L 452.444503 -224.971688 
L 450.28116 -226.546928 
L 448.380328 -228.122168 
L 446.871808 -229.697407 
L 445.802422 -231.272647 
L 445.114069 -232.847887 
L 444.667693 -234.423127 
L 444.308197 -235.998366 
L 443.939863 -237.573606 
L 443.571198 -239.148846 
L 443.304041 -240.724085 
L 443.275877 -242.299325 
L 443.593046 -243.874565 
L 444.294407 -245.449805 
L 445.359862 -247.025044 
L 446.746152 -248.600284 
L 448.417562 -250.175524 
L 450.349846 -251.750763 
L 452.509893 -253.326003 
L 454.831827 -254.901243 
L 457.210776 -256.476483 
L 459.521696 -258.051722 
L 461.654453 -259.626962 
L 463.548067 -261.202202 
L 465.209289 -262.777442 
L 466.7093 -264.352681 
L 468.161199 -265.927921 
L 469.686183 -267.503161 
L 471.377757 -269.0784 
L 473.272815 -270.65364 
L 475.337487 -272.22888 
L 477.473473 -273.80412 
L 479.545462 -275.379359 
L 481.42209 -276.954599 
L 483.015444 -278.529839 
L 484.30279 -280.105079 
L 485.321749 -281.680318 
L 486.143271 -283.255558 
L 486.837474 -284.830798 
L 487.449197 -286.406037 
L 487.992325 -287.981277 
L 488.46038 -289.556517 
L 488.843199 -291.131757 
L 489.139343 -292.706996 
L 489.35954 -294.282236 
L 489.522792 -295.857476 
L 489.649771 -297.432715 
L 489.757408 -299.007955 
L 489.856156 -300.583195 
L 489.949661 -302.158435 
L 490.036072 -303.733674 
L 490.110286 -305.308914 
L 490.16645 -306.884154 
L 490.20007 -308.459394 
L 490.209393 -310.034633 
L 490.196155 -311.609873 
L 490.16591 -313.185113 
L 490.127751 -314.760352 
L 490.0929 -316.335592 
L 490.071977 -317.910832 
L 490.071723 -319.486072 
L 490.092759 -321.061311 
L 490.129722 -322.636551 
L 490.173779 -324.211791 
L 490.216156 -325.78703 
L 490.250881 -327.36227 
L 490.275715 -328.93751 
L 490.340287 -328.93751 
L 490.340287 -328.93751 
L 490.365122 -327.36227 
L 490.399847 -325.78703 
L 490.442224 -324.211791 
L 490.486281 -322.636551 
L 490.523244 -321.061311 
L 490.54428 -319.486072 
L 490.544026 -317.910832 
L 490.523103 -316.335592 
L 490.488252 -314.760352 
L 490.450093 -313.185113 
L 490.419848 -311.609873 
L 490.40661 -310.034633 
L 490.415933 -308.459394 
L 490.449553 -306.884154 
L 490.505717 -305.308914 
L 490.579931 -303.733674 
L 490.666342 -302.158435 
L 490.759847 -300.583195 
L 490.858595 -299.007955 
L 490.966232 -297.432715 
L 491.093211 -295.857476 
L 491.256463 -294.282236 
L 491.47666 -292.706996 
L 491.772804 -291.131757 
L 492.155623 -289.556517 
L 492.623678 -287.981277 
L 493.166806 -286.406037 
L 493.778529 -284.830798 
L 494.472732 -283.255558 
L 495.294254 -281.680318 
L 496.313213 -280.105079 
L 497.600558 -278.529839 
L 499.193913 -276.954599 
L 501.070541 -275.379359 
L 503.14253 -273.80412 
L 505.278516 -272.22888 
L 507.343188 -270.65364 
L 509.238246 -269.0784 
L 510.92982 -267.503161 
L 512.454804 -265.927921 
L 513.906703 -264.352681 
L 515.406714 -262.777442 
L 517.067936 -261.202202 
L 518.96155 -259.626962 
L 521.094307 -258.051722 
L 523.405226 -256.476483 
L 525.784176 -254.901243 
L 528.10611 -253.326003 
L 530.266157 -251.750763 
L 532.198441 -250.175524 
L 533.869851 -248.600284 
L 535.256141 -247.025044 
L 536.321596 -245.449805 
L 537.022957 -243.874565 
L 537.340126 -242.299325 
L 537.311962 -240.724085 
L 537.044804 -239.148846 
L 536.67614 -237.573606 
L 536.307805 -235.998366 
L 535.94831 -234.423127 
L 535.501933 -232.847887 
L 534.813581 -231.272647 
L 533.744195 -229.697407 
L 532.235674 -228.122168 
L 530.334843 -226.546928 
L 528.171499 -224.971688 
L 525.90741 -223.396448 
L 523.680535 -221.821209 
L 521.564173 -220.245969 
L 519.551992 -218.670729 
L 517.5721 -217.09549 
L 515.525471 -215.52025 
L 513.335009 -213.94501 
L 510.984932 -212.36977 
L 508.532661 -210.794531 
L 506.08868 -209.219291 
L 503.776656 -207.644051 
L 501.69487 -206.068812 
L 499.895466 -204.493572 
L 498.384877 -202.918332 
L 497.137582 -201.343092 
L 496.112346 -199.767853 
L 495.264286 -198.192613 
L 494.551823 -196.617373 
L 493.940452 -195.042133 
L 493.404829 -193.466894 
L 492.929134 -191.891654 
L 492.505185 -190.316414 
L 492.128852 -188.741175 
L 491.796586 -187.165935 
L 491.503931 -185.590695 
L 491.246352 -184.015455 
L 491.021031 -182.440216 
L 490.827758 -180.864976 
L 490.668037 -179.289736 
L 490.542996 -177.714497 
L 490.451491 -176.139257 
L 490.38949 -174.564017 
L 490.350842 -172.988777 
z
" id="m24e9ea25e8" style="stroke:#4c4c4c;stroke-width:1.5;"/>
    </defs>
    <g clip-path="url(#p05fb24fd54)">
     <use style="fill:#b55d60;stroke:#4c4c4c;stroke-width:1.5;" x="0" xlink:href="#m24e9ea25e8" y="384.59375"/>
    </g>
   </g>
   <g id="PolyCollection_5">
    <defs>
     <path d="M 618.794245 -207.026968 
L 618.714332 -207.026968 
L 618.685225 -208.449172 
L 618.642948 -209.871376 
L 618.586685 -211.29358 
L 618.518307 -212.715784 
L 618.44265 -214.137988 
L 618.366425 -215.560192 
L 618.295588 -216.982396 
L 618.231711 -218.4046 
L 618.168683 -219.826804 
L 618.091325 -221.249008 
L 617.977155 -222.671212 
L 617.801414 -224.093416 
L 617.544106 -225.515621 
L 617.196661 -226.937825 
L 616.765477 -228.360029 
L 616.270514 -229.782233 
L 615.738896 -231.204437 
L 615.195666 -232.626641 
L 614.655099 -234.048845 
L 614.115537 -235.471049 
L 613.558737 -236.893253 
L 612.952417 -238.315457 
L 612.253707 -239.737661 
L 611.412185 -241.159865 
L 610.373258 -242.582069 
L 609.084005 -244.004273 
L 607.502913 -245.426478 
L 605.612387 -246.848682 
L 603.429929 -248.270886 
L 601.012576 -249.69309 
L 598.450791 -251.115294 
L 595.852331 -252.537498 
L 593.321635 -253.959702 
L 590.942924 -255.381906 
L 588.773253 -256.80411 
L 586.845762 -258.226314 
L 585.177075 -259.648518 
L 583.770797 -261.070722 
L 582.613373 -262.492926 
L 581.666261 -263.91513 
L 580.863626 -265.337334 
L 580.122908 -266.759539 
L 579.367234 -268.181743 
L 578.549524 -269.603947 
L 577.665167 -271.026151 
L 576.746081 -272.448355 
L 575.840381 -273.870559 
L 574.990926 -275.292763 
L 574.226457 -276.714967 
L 573.570274 -278.137171 
L 573.058896 -279.559375 
L 572.75529 -280.981579 
L 572.743378 -282.403783 
L 573.101915 -283.825987 
L 573.86945 -285.248191 
L 575.019196 -286.670396 
L 576.458281 -288.0926 
L 578.052865 -289.514804 
L 579.667409 -290.937008 
L 581.20109 -292.359212 
L 582.608874 -293.781416 
L 583.904101 -295.20362 
L 585.14674 -296.625824 
L 586.423462 -298.048028 
L 587.824283 -299.470232 
L 589.419334 -300.892436 
L 591.239953 -302.31464 
L 593.269116 -303.736844 
L 595.444882 -305.159048 
L 597.676458 -306.581252 
L 599.8677 -308.003457 
L 601.940017 -309.425661 
L 603.847258 -310.847865 
L 605.578767 -312.270069 
L 607.151355 -313.692273 
L 608.594657 -315.114477 
L 609.935787 -316.536681 
L 611.1884 -317.958885 
L 612.34889 -319.381089 
L 613.399608 -320.803293 
L 614.316852 -322.225497 
L 615.080337 -323.647701 
L 615.681144 -325.069905 
L 616.126126 -326.492109 
L 616.438032 -327.914313 
L 616.651709 -329.336518 
L 616.807587 -330.758722 
L 616.944114 -332.180926 
L 617.091003 -333.60313 
L 617.26485 -335.025334 
L 617.468099 -336.447538 
L 617.691374 -337.869742 
L 617.918254 -339.291946 
L 618.130929 -340.71415 
L 618.315034 -342.136354 
L 618.462473 -343.558558 
L 618.571876 -344.980762 
L 618.647178 -346.402966 
L 618.695294 -347.82517 
L 618.813283 -347.82517 
L 618.813283 -347.82517 
L 618.861398 -346.402966 
L 618.936701 -344.980762 
L 619.046104 -343.558558 
L 619.193543 -342.136354 
L 619.377648 -340.71415 
L 619.590323 -339.291946 
L 619.817203 -337.869742 
L 620.040478 -336.447538 
L 620.243727 -335.025334 
L 620.417574 -333.60313 
L 620.564463 -332.180926 
L 620.70099 -330.758722 
L 620.856868 -329.336518 
L 621.070545 -327.914313 
L 621.382451 -326.492109 
L 621.827433 -325.069905 
L 622.42824 -323.647701 
L 623.191725 -322.225497 
L 624.108969 -320.803293 
L 625.159687 -319.381089 
L 626.320176 -317.958885 
L 627.57279 -316.536681 
L 628.91392 -315.114477 
L 630.357222 -313.692273 
L 631.92981 -312.270069 
L 633.661319 -310.847865 
L 635.56856 -309.425661 
L 637.640877 -308.003457 
L 639.832119 -306.581252 
L 642.063695 -305.159048 
L 644.239461 -303.736844 
L 646.268624 -302.31464 
L 648.089243 -300.892436 
L 649.684294 -299.470232 
L 651.085115 -298.048028 
L 652.361837 -296.625824 
L 653.604476 -295.20362 
L 654.899703 -293.781416 
L 656.307487 -292.359212 
L 657.841167 -290.937008 
L 659.455712 -289.514804 
L 661.050296 -288.0926 
L 662.48938 -286.670396 
L 663.639127 -285.248191 
L 664.406662 -283.825987 
L 664.765199 -282.403783 
L 664.753287 -280.981579 
L 664.449681 -279.559375 
L 663.938303 -278.137171 
L 663.28212 -276.714967 
L 662.517651 -275.292763 
L 661.668196 -273.870559 
L 660.762496 -272.448355 
L 659.843409 -271.026151 
L 658.959052 -269.603947 
L 658.141343 -268.181743 
L 657.385669 -266.759539 
L 656.644951 -265.337334 
L 655.842316 -263.91513 
L 654.895204 -262.492926 
L 653.73778 -261.070722 
L 652.331502 -259.648518 
L 650.662814 -258.226314 
L 648.735324 -256.80411 
L 646.565653 -255.381906 
L 644.186942 -253.959702 
L 641.656246 -252.537498 
L 639.057786 -251.115294 
L 636.496 -249.69309 
L 634.078647 -248.270886 
L 631.89619 -246.848682 
L 630.005664 -245.426478 
L 628.424572 -244.004273 
L 627.135319 -242.582069 
L 626.096392 -241.159865 
L 625.25487 -239.737661 
L 624.556159 -238.315457 
L 623.94984 -236.893253 
L 623.39304 -235.471049 
L 622.853478 -234.048845 
L 622.312911 -232.626641 
L 621.769681 -231.204437 
L 621.238063 -229.782233 
L 620.7431 -228.360029 
L 620.311916 -226.937825 
L 619.96447 -225.515621 
L 619.707163 -224.093416 
L 619.531421 -222.671212 
L 619.417252 -221.249008 
L 619.339894 -219.826804 
L 619.276866 -218.4046 
L 619.212989 -216.982396 
L 619.142151 -215.560192 
L 619.065927 -214.137988 
L 618.990269 -212.715784 
L 618.921891 -211.29358 
L 618.865629 -209.871376 
L 618.823352 -208.449172 
L 618.794245 -207.026968 
z
" id="m11891931d7" style="stroke:#4c4c4c;stroke-width:1.5;"/>
    </defs>
    <g clip-path="url(#p05fb24fd54)">
     <use style="fill:#857aab;stroke:#4c4c4c;stroke-width:1.5;" x="0" xlink:href="#m11891931d7" y="384.59375"/>
    </g>
   </g>
   <g id="line2d_19">
    <path clip-path="url(#p05fb24fd54)" d="M 104.96914 311.126409 
L 104.96914 215.40501 
" style="fill:none;stroke:#4c4c4c;stroke-linecap:round;stroke-width:1.5;"/>
   </g>
   <g id="line2d_20">
    <path clip-path="url(#p05fb24fd54)" d="M 104.96914 275.462491 
L 104.96914 251.321753 
" style="fill:none;stroke:#4c4c4c;stroke-linecap:round;stroke-width:4.5;"/>
   </g>
   <g id="line2d_21">
    <path clip-path="url(#p05fb24fd54)" d="M 233.415427 273.505206 
L 233.415427 177.732098 
" style="fill:none;stroke:#4c4c4c;stroke-linecap:round;stroke-width:1.5;"/>
   </g>
   <g id="line2d_22">
    <path clip-path="url(#p05fb24fd54)" d="M 233.415427 236.351983 
L 233.415427 211.311724 
" style="fill:none;stroke:#4c4c4c;stroke-linecap:round;stroke-width:4.5;"/>
   </g>
   <g id="line2d_23">
    <path clip-path="url(#p05fb24fd54)" d="M 361.861714 235.059649 
L 361.861714 132.614575 
" style="fill:none;stroke:#4c4c4c;stroke-linecap:round;stroke-width:1.5;"/>
   </g>
   <g id="line2d_24">
    <path clip-path="url(#p05fb24fd54)" d="M 361.861714 198.356901 
L 361.861714 171.701975 
" style="fill:none;stroke:#4c4c4c;stroke-linecap:round;stroke-width:4.5;"/>
   </g>
   <g id="line2d_25">
    <path clip-path="url(#p05fb24fd54)" d="M 490.308001 196.780207 
L 490.308001 92.637344 
" style="fill:none;stroke:#4c4c4c;stroke-linecap:round;stroke-width:1.5;"/>
   </g>
   <g id="line2d_26">
    <path clip-path="url(#p05fb24fd54)" d="M 490.308001 157.931736 
L 490.308001 131.640745 
" style="fill:none;stroke:#4c4c4c;stroke-linecap:round;stroke-width:4.5;"/>
   </g>
   <g id="line2d_27">
    <path clip-path="url(#p05fb24fd54)" d="M 618.754288 155.860608 
L 618.754288 49.704804 
" style="fill:none;stroke:#4c4c4c;stroke-linecap:round;stroke-width:1.5;"/>
   </g>
   <g id="line2d_28">
    <path clip-path="url(#p05fb24fd54)" d="M 618.754288 119.952838 
L 618.754288 91.479679 
" style="fill:none;stroke:#4c4c4c;stroke-linecap:round;stroke-width:4.5;"/>
   </g>
   <g id="patch_3">
    <path d="M 25.601563 348.103125 
L 25.601563 21.943125 
" style="fill:none;stroke:#ffffff;stroke-linecap:square;stroke-linejoin:miter;stroke-width:0.8;"/>
   </g>
   <g id="patch_4">
    <path d="M 695.201563 348.103125 
L 695.201563 21.943125 
" style="fill:none;stroke:#ffffff;stroke-linecap:square;stroke-linejoin:miter;stroke-width:0.8;"/>
   </g>
   <g id="patch_5">
    <path d="M 25.601563 348.103125 
L 695.201562 348.103125 
" style="fill:none;stroke:#ffffff;stroke-linecap:square;stroke-linejoin:miter;stroke-width:0.8;"/>
   </g>
   <g id="patch_6">
    <path d="M 25.601563 21.943125 
L 695.201562 21.943125 
" style="fill:none;stroke:#ffffff;stroke-linecap:square;stroke-linejoin:miter;stroke-width:0.8;"/>
   </g>
   <g id="PathCollection_1">
    <defs>
     <path d="M 0 1.5 
C 0.397805 1.5 0.77937 1.341951 1.06066 1.06066 
C 1.341951 0.77937 1.5 0.397805 1.5 0 
C 1.5 -0.397805 1.341951 -0.77937 1.06066 -1.06066 
C 0.77937 -1.341951 0.397805 -1.5 0 -1.5 
C -0.397805 -1.5 -0.77937 -1.341951 -1.06066 -1.06066 
C -1.341951 -0.77937 -1.5 -0.397805 -1.5 0 
C -1.5 0.397805 -1.341951 0.77937 -1.06066 1.06066 
C -0.77937 1.341951 -0.397805 1.5 0 1.5 
z
" id="m14aec1da17" style="stroke:#4c4c4c;"/>
    </defs>
    <g clip-path="url(#p05fb24fd54)">
     <use style="fill:#ffffff;stroke:#4c4c4c;" x="104.96914" xlink:href="#m14aec1da17" y="263.342494"/>
    </g>
   </g>
   <g id="PathCollection_2">
    <g clip-path="url(#p05fb24fd54)">
     <use style="fill:#ffffff;stroke:#4c4c4c;" x="233.415427" xlink:href="#m14aec1da17" y="224.25905"/>
    </g>
   </g>
   <g id="PathCollection_3">
    <g clip-path="url(#p05fb24fd54)">
     <use style="fill:#ffffff;stroke:#4c4c4c;" x="361.861714" xlink:href="#m14aec1da17" y="184.171193"/>
    </g>
   </g>
   <g id="PathCollection_4">
    <g clip-path="url(#p05fb24fd54)">
     <use style="fill:#ffffff;stroke:#4c4c4c;" x="490.308001" xlink:href="#m14aec1da17" y="144.540867"/>
    </g>
   </g>
   <g id="PathCollection_5">
    <g clip-path="url(#p05fb24fd54)">
     <use style="fill:#ffffff;stroke:#4c4c4c;" x="618.754288" xlink:href="#m14aec1da17" y="105.355287"/>
    </g>
   </g>
   <g id="text_16">
    <!-- Kullback-Leibler Divergence from First Batch to the Others -->
    <defs>
     <path d="M 7.328125 0 
L 7.328125 71.578125 
L 16.796875 71.578125 
L 16.796875 36.078125 
L 52.34375 71.578125 
L 65.1875 71.578125 
L 35.15625 42.578125 
L 66.5 0 
L 54 0 
L 28.515625 36.234375 
L 16.796875 24.8125 
L 16.796875 0 
z
" id="ArialMT-75"/>
     <path d="M 40.578125 0 
L 40.578125 7.625 
Q 34.515625 -1.171875 24.125 -1.171875 
Q 19.53125 -1.171875 15.546875 0.578125 
Q 11.578125 2.34375 9.640625 5 
Q 7.71875 7.671875 6.9375 11.53125 
Q 6.390625 14.109375 6.390625 19.734375 
L 6.390625 51.859375 
L 15.1875 51.859375 
L 15.1875 23.09375 
Q 15.1875 16.21875 15.71875 13.8125 
Q 16.546875 10.359375 19.234375 8.375 
Q 21.921875 6.390625 25.875 6.390625 
Q 29.828125 6.390625 33.296875 8.421875 
Q 36.765625 10.453125 38.203125 13.9375 
Q 39.65625 17.4375 39.65625 24.078125 
L 39.65625 51.859375 
L 48.4375 51.859375 
L 48.4375 0 
z
" id="ArialMT-117"/>
     <path d="M 6.390625 0 
L 6.390625 71.578125 
L 15.1875 71.578125 
L 15.1875 0 
z
" id="ArialMT-108"/>
     <path d="M 6.640625 0 
L 6.640625 71.578125 
L 15.4375 71.578125 
L 15.4375 30.765625 
L 36.234375 51.859375 
L 47.609375 51.859375 
L 27.78125 32.625 
L 49.609375 0 
L 38.765625 0 
L 21.625 26.515625 
L 15.4375 20.5625 
L 15.4375 0 
z
" id="ArialMT-107"/>
     <path d="M 3.171875 21.484375 
L 3.171875 30.328125 
L 30.171875 30.328125 
L 30.171875 21.484375 
z
" id="ArialMT-45"/>
     <path d="M 7.328125 0 
L 7.328125 71.578125 
L 16.796875 71.578125 
L 16.796875 8.453125 
L 52.046875 8.453125 
L 52.046875 0 
z
" id="ArialMT-76"/>
     <path d="M 42.09375 16.703125 
L 51.171875 15.578125 
Q 49.03125 7.625 43.21875 3.21875 
Q 37.40625 -1.171875 28.375 -1.171875 
Q 17 -1.171875 10.328125 5.828125 
Q 3.65625 12.84375 3.65625 25.484375 
Q 3.65625 38.578125 10.390625 45.796875 
Q 17.140625 53.03125 27.875 53.03125 
Q 38.28125 53.03125 44.875 45.953125 
Q 51.46875 38.875 51.46875 26.03125 
Q 51.46875 25.25 51.421875 23.6875 
L 12.75 23.6875 
Q 13.234375 15.140625 17.578125 10.59375 
Q 21.921875 6.0625 28.421875 6.0625 
Q 33.25 6.0625 36.671875 8.59375 
Q 40.09375 11.140625 42.09375 16.703125 
z
M 13.234375 30.90625 
L 42.1875 30.90625 
Q 41.609375 37.453125 38.875 40.71875 
Q 34.671875 45.796875 27.984375 45.796875 
Q 21.921875 45.796875 17.796875 41.75 
Q 13.671875 37.703125 13.234375 30.90625 
z
" id="ArialMT-101"/>
     <path d="M 6.640625 61.46875 
L 6.640625 71.578125 
L 15.4375 71.578125 
L 15.4375 61.46875 
z
M 6.640625 0 
L 6.640625 51.859375 
L 15.4375 51.859375 
L 15.4375 0 
z
" id="ArialMT-105"/>
     <path d="M 6.5 0 
L 6.5 51.859375 
L 14.40625 51.859375 
L 14.40625 44 
Q 17.4375 49.515625 20 51.265625 
Q 22.5625 53.03125 25.640625 53.03125 
Q 30.078125 53.03125 34.671875 50.203125 
L 31.640625 42.046875 
Q 28.421875 43.953125 25.203125 43.953125 
Q 22.3125 43.953125 20.015625 42.21875 
Q 17.71875 40.484375 16.75 37.40625 
Q 15.28125 32.71875 15.28125 27.15625 
L 15.28125 0 
z
" id="ArialMT-114"/>
     <path id="ArialMT-32"/>
     <path d="M 7.71875 0 
L 7.71875 71.578125 
L 32.375 71.578125 
Q 40.71875 71.578125 45.125 70.5625 
Q 51.265625 69.140625 55.609375 65.4375 
Q 61.28125 60.640625 64.078125 53.1875 
Q 66.890625 45.75 66.890625 36.1875 
Q 66.890625 28.03125 64.984375 21.734375 
Q 63.09375 15.4375 60.109375 11.296875 
Q 57.125 7.171875 53.578125 4.796875 
Q 50.046875 2.4375 45.046875 1.21875 
Q 40.046875 0 33.546875 0 
z
M 17.1875 8.453125 
L 32.46875 8.453125 
Q 39.546875 8.453125 43.578125 9.765625 
Q 47.609375 11.078125 50 13.484375 
Q 53.375 16.84375 55.25 22.53125 
Q 57.125 28.21875 57.125 36.328125 
Q 57.125 47.5625 53.4375 53.59375 
Q 49.75 59.625 44.484375 61.671875 
Q 40.671875 63.140625 32.234375 63.140625 
L 17.1875 63.140625 
z
" id="ArialMT-68"/>
     <path d="M 21 0 
L 1.265625 51.859375 
L 10.546875 51.859375 
L 21.6875 20.796875 
Q 23.484375 15.765625 25 10.359375 
Q 26.171875 14.453125 28.265625 20.21875 
L 39.796875 51.859375 
L 48.828125 51.859375 
L 29.203125 0 
z
" id="ArialMT-118"/>
     <path d="M 4.984375 -4.296875 
L 13.53125 -5.5625 
Q 14.0625 -9.515625 16.5 -11.328125 
Q 19.78125 -13.765625 25.4375 -13.765625 
Q 31.546875 -13.765625 34.859375 -11.328125 
Q 38.1875 -8.890625 39.359375 -4.5 
Q 40.046875 -1.8125 39.984375 6.78125 
Q 34.234375 0 25.640625 0 
Q 14.9375 0 9.078125 7.71875 
Q 3.21875 15.4375 3.21875 26.21875 
Q 3.21875 33.640625 5.90625 39.90625 
Q 8.59375 46.1875 13.6875 49.609375 
Q 18.796875 53.03125 25.6875 53.03125 
Q 34.859375 53.03125 40.828125 45.609375 
L 40.828125 51.859375 
L 48.921875 51.859375 
L 48.921875 7.03125 
Q 48.921875 -5.078125 46.453125 -10.125 
Q 44 -15.1875 38.640625 -18.109375 
Q 33.296875 -21.046875 25.484375 -21.046875 
Q 16.21875 -21.046875 10.5 -16.875 
Q 4.78125 -12.703125 4.984375 -4.296875 
z
M 12.25 26.859375 
Q 12.25 16.65625 16.296875 11.96875 
Q 20.359375 7.28125 26.46875 7.28125 
Q 32.515625 7.28125 36.609375 11.9375 
Q 40.71875 16.609375 40.71875 26.5625 
Q 40.71875 36.078125 36.5 40.90625 
Q 32.28125 45.75 26.3125 45.75 
Q 20.453125 45.75 16.34375 40.984375 
Q 12.25 36.234375 12.25 26.859375 
z
" id="ArialMT-103"/>
     <path d="M 6.59375 0 
L 6.59375 51.859375 
L 14.5 51.859375 
L 14.5 44.484375 
Q 20.21875 53.03125 31 53.03125 
Q 35.6875 53.03125 39.625 51.34375 
Q 43.5625 49.65625 45.515625 46.921875 
Q 47.46875 44.1875 48.25 40.4375 
Q 48.734375 37.984375 48.734375 31.890625 
L 48.734375 0 
L 39.9375 0 
L 39.9375 31.546875 
Q 39.9375 36.921875 38.90625 39.578125 
Q 37.890625 42.234375 35.28125 43.8125 
Q 32.671875 45.40625 29.15625 45.40625 
Q 23.53125 45.40625 19.453125 41.84375 
Q 15.375 38.28125 15.375 28.328125 
L 15.375 0 
z
" id="ArialMT-110"/>
     <path d="M 8.6875 0 
L 8.6875 45.015625 
L 0.921875 45.015625 
L 0.921875 51.859375 
L 8.6875 51.859375 
L 8.6875 57.375 
Q 8.6875 62.59375 9.625 65.140625 
Q 10.890625 68.5625 14.078125 70.671875 
Q 17.28125 72.796875 23.046875 72.796875 
Q 26.765625 72.796875 31.25 71.921875 
L 29.9375 64.265625 
Q 27.203125 64.75 24.75 64.75 
Q 20.75 64.75 19.09375 63.03125 
Q 17.4375 61.328125 17.4375 56.640625 
L 17.4375 51.859375 
L 27.546875 51.859375 
L 27.546875 45.015625 
L 17.4375 45.015625 
L 17.4375 0 
z
" id="ArialMT-102"/>
     <path d="M 3.328125 25.921875 
Q 3.328125 40.328125 11.328125 47.265625 
Q 18.015625 53.03125 27.640625 53.03125 
Q 38.328125 53.03125 45.109375 46.015625 
Q 51.90625 39.015625 51.90625 26.65625 
Q 51.90625 16.65625 48.90625 10.90625 
Q 45.90625 5.171875 40.15625 2 
Q 34.421875 -1.171875 27.640625 -1.171875 
Q 16.75 -1.171875 10.03125 5.8125 
Q 3.328125 12.796875 3.328125 25.921875 
z
M 12.359375 25.921875 
Q 12.359375 15.96875 16.703125 11.015625 
Q 21.046875 6.0625 27.640625 6.0625 
Q 34.1875 6.0625 38.53125 11.03125 
Q 42.875 16.015625 42.875 26.21875 
Q 42.875 35.84375 38.5 40.796875 
Q 34.125 45.75 27.640625 45.75 
Q 21.046875 45.75 16.703125 40.8125 
Q 12.359375 35.890625 12.359375 25.921875 
z
" id="ArialMT-111"/>
     <path d="M 6.59375 0 
L 6.59375 51.859375 
L 14.453125 51.859375 
L 14.453125 44.578125 
Q 16.890625 48.390625 20.9375 50.703125 
Q 25 53.03125 30.171875 53.03125 
Q 35.9375 53.03125 39.625 50.640625 
Q 43.3125 48.25 44.828125 43.953125 
Q 50.984375 53.03125 60.84375 53.03125 
Q 68.5625 53.03125 72.703125 48.75 
Q 76.859375 44.484375 76.859375 35.59375 
L 76.859375 0 
L 68.109375 0 
L 68.109375 32.671875 
Q 68.109375 37.9375 67.25 40.25 
Q 66.40625 42.578125 64.15625 43.984375 
Q 61.921875 45.40625 58.890625 45.40625 
Q 53.421875 45.40625 49.796875 41.765625 
Q 46.1875 38.140625 46.1875 30.125 
L 46.1875 0 
L 37.40625 0 
L 37.40625 33.6875 
Q 37.40625 39.546875 35.25 42.46875 
Q 33.109375 45.40625 28.21875 45.40625 
Q 24.515625 45.40625 21.359375 43.453125 
Q 18.21875 41.5 16.796875 37.734375 
Q 15.375 33.984375 15.375 26.90625 
L 15.375 0 
z
" id="ArialMT-109"/>
     <path d="M 8.203125 0 
L 8.203125 71.578125 
L 56.5 71.578125 
L 56.5 63.140625 
L 17.671875 63.140625 
L 17.671875 40.96875 
L 51.265625 40.96875 
L 51.265625 32.515625 
L 17.671875 32.515625 
L 17.671875 0 
z
" id="ArialMT-70"/>
     <path d="M 3.078125 15.484375 
L 11.765625 16.84375 
Q 12.5 11.625 15.84375 8.84375 
Q 19.1875 6.0625 25.203125 6.0625 
Q 31.25 6.0625 34.171875 8.515625 
Q 37.109375 10.984375 37.109375 14.3125 
Q 37.109375 17.28125 34.515625 19 
Q 32.71875 20.171875 25.53125 21.96875 
Q 15.875 24.421875 12.140625 26.203125 
Q 8.40625 27.984375 6.46875 31.125 
Q 4.546875 34.28125 4.546875 38.09375 
Q 4.546875 41.546875 6.125 44.5 
Q 7.71875 47.46875 10.453125 49.421875 
Q 12.5 50.921875 16.03125 51.96875 
Q 19.578125 53.03125 23.640625 53.03125 
Q 29.734375 53.03125 34.34375 51.265625 
Q 38.96875 49.515625 41.15625 46.5 
Q 43.359375 43.5 44.1875 38.484375 
L 35.59375 37.3125 
Q 35.015625 41.3125 32.203125 43.546875 
Q 29.390625 45.796875 24.265625 45.796875 
Q 18.21875 45.796875 15.625 43.796875 
Q 13.03125 41.796875 13.03125 39.109375 
Q 13.03125 37.40625 14.109375 36.03125 
Q 15.1875 34.625 17.484375 33.6875 
Q 18.796875 33.203125 25.25 31.453125 
Q 34.578125 28.953125 38.25 27.359375 
Q 41.9375 25.78125 44.03125 22.75 
Q 46.140625 19.734375 46.140625 15.234375 
Q 46.140625 10.84375 43.578125 6.953125 
Q 41.015625 3.078125 36.171875 0.953125 
Q 31.34375 -1.171875 25.25 -1.171875 
Q 15.140625 -1.171875 9.84375 3.03125 
Q 4.546875 7.234375 3.078125 15.484375 
z
" id="ArialMT-115"/>
     <path d="M 7.328125 0 
L 7.328125 71.578125 
L 34.1875 71.578125 
Q 42.390625 71.578125 47.34375 69.40625 
Q 52.296875 67.234375 55.09375 62.71875 
Q 57.90625 58.203125 57.90625 53.265625 
Q 57.90625 48.6875 55.421875 44.625 
Q 52.9375 40.578125 47.90625 38.09375 
Q 54.390625 36.1875 57.875 31.59375 
Q 61.375 27 61.375 20.75 
Q 61.375 15.71875 59.25 11.390625 
Q 57.125 7.078125 54 4.734375 
Q 50.875 2.390625 46.15625 1.1875 
Q 41.453125 0 34.625 0 
z
M 16.796875 41.5 
L 32.28125 41.5 
Q 38.578125 41.5 41.3125 42.328125 
Q 44.921875 43.40625 46.75 45.890625 
Q 48.578125 48.390625 48.578125 52.15625 
Q 48.578125 55.71875 46.875 58.421875 
Q 45.171875 61.140625 41.984375 62.140625 
Q 38.8125 63.140625 31.109375 63.140625 
L 16.796875 63.140625 
z
M 16.796875 8.453125 
L 34.625 8.453125 
Q 39.203125 8.453125 41.0625 8.796875 
Q 44.34375 9.375 46.53125 10.734375 
Q 48.734375 12.109375 50.140625 14.71875 
Q 51.5625 17.328125 51.5625 20.75 
Q 51.5625 24.75 49.515625 27.703125 
Q 47.46875 30.671875 43.828125 31.859375 
Q 40.1875 33.0625 33.34375 33.0625 
L 16.796875 33.0625 
z
" id="ArialMT-66"/>
     <path d="M 4.828125 34.859375 
Q 4.828125 52.6875 14.390625 62.765625 
Q 23.96875 72.859375 39.109375 72.859375 
Q 49.03125 72.859375 56.984375 68.109375 
Q 64.9375 63.375 69.109375 54.90625 
Q 73.296875 46.4375 73.296875 35.6875 
Q 73.296875 24.8125 68.890625 16.21875 
Q 64.5 7.625 56.4375 3.203125 
Q 48.390625 -1.21875 39.0625 -1.21875 
Q 28.953125 -1.21875 20.984375 3.65625 
Q 13.03125 8.546875 8.921875 16.984375 
Q 4.828125 25.4375 4.828125 34.859375 
z
M 14.59375 34.71875 
Q 14.59375 21.78125 21.546875 14.328125 
Q 28.515625 6.890625 39.015625 6.890625 
Q 49.703125 6.890625 56.609375 14.40625 
Q 63.53125 21.921875 63.53125 35.75 
Q 63.53125 44.484375 60.578125 51 
Q 57.625 57.515625 51.921875 61.109375 
Q 46.234375 64.703125 39.15625 64.703125 
Q 29.109375 64.703125 21.84375 57.78125 
Q 14.59375 50.875 14.59375 34.71875 
z
" id="ArialMT-79"/>
    </defs>
    <g style="fill:#262626;" transform="translate(205.348438 15.943125)scale(0.12 -0.12)">
     <use xlink:href="#ArialMT-75"/>
     <use x="66.699219" xlink:href="#ArialMT-117"/>
     <use x="122.314453" xlink:href="#ArialMT-108"/>
     <use x="144.53125" xlink:href="#ArialMT-108"/>
     <use x="166.748047" xlink:href="#ArialMT-98"/>
     <use x="222.363281" xlink:href="#ArialMT-97"/>
     <use x="277.978516" xlink:href="#ArialMT-99"/>
     <use x="327.978516" xlink:href="#ArialMT-107"/>
     <use x="377.978516" xlink:href="#ArialMT-45"/>
     <use x="411.279297" xlink:href="#ArialMT-76"/>
     <use x="466.894531" xlink:href="#ArialMT-101"/>
     <use x="522.509766" xlink:href="#ArialMT-105"/>
     <use x="544.726562" xlink:href="#ArialMT-98"/>
     <use x="600.341797" xlink:href="#ArialMT-108"/>
     <use x="622.558594" xlink:href="#ArialMT-101"/>
     <use x="678.173828" xlink:href="#ArialMT-114"/>
     <use x="711.474609" xlink:href="#ArialMT-32"/>
     <use x="739.257812" xlink:href="#ArialMT-68"/>
     <use x="811.474609" xlink:href="#ArialMT-105"/>
     <use x="833.691406" xlink:href="#ArialMT-118"/>
     <use x="883.691406" xlink:href="#ArialMT-101"/>
     <use x="939.306641" xlink:href="#ArialMT-114"/>
     <use x="972.607422" xlink:href="#ArialMT-103"/>
     <use x="1028.222656" xlink:href="#ArialMT-101"/>
     <use x="1083.837891" xlink:href="#ArialMT-110"/>
     <use x="1139.453125" xlink:href="#ArialMT-99"/>
     <use x="1189.453125" xlink:href="#ArialMT-101"/>
     <use x="1245.068359" xlink:href="#ArialMT-32"/>
     <use x="1272.851562" xlink:href="#ArialMT-102"/>
     <use x="1300.634766" xlink:href="#ArialMT-114"/>
     <use x="1333.935547" xlink:href="#ArialMT-111"/>
     <use x="1389.550781" xlink:href="#ArialMT-109"/>
     <use x="1472.851562" xlink:href="#ArialMT-32"/>
     <use x="1500.634766" xlink:href="#ArialMT-70"/>
     <use x="1561.71875" xlink:href="#ArialMT-105"/>
     <use x="1583.935547" xlink:href="#ArialMT-114"/>
     <use x="1617.236328" xlink:href="#ArialMT-115"/>
     <use x="1667.236328" xlink:href="#ArialMT-116"/>
     <use x="1695.019531" xlink:href="#ArialMT-32"/>
     <use x="1722.802734" xlink:href="#ArialMT-66"/>
     <use x="1789.501953" xlink:href="#ArialMT-97"/>
     <use x="1845.117188" xlink:href="#ArialMT-116"/>
     <use x="1872.900391" xlink:href="#ArialMT-99"/>
     <use x="1922.900391" xlink:href="#ArialMT-104"/>
     <use x="1978.515625" xlink:href="#ArialMT-32"/>
     <use x="2006.298828" xlink:href="#ArialMT-116"/>
     <use x="2034.082031" xlink:href="#ArialMT-111"/>
     <use x="2089.697266" xlink:href="#ArialMT-32"/>
     <use x="2117.480469" xlink:href="#ArialMT-116"/>
     <use x="2145.263672" xlink:href="#ArialMT-104"/>
     <use x="2200.878906" xlink:href="#ArialMT-101"/>
     <use x="2256.494141" xlink:href="#ArialMT-32"/>
     <use x="2284.277344" xlink:href="#ArialMT-79"/>
     <use x="2362.060547" xlink:href="#ArialMT-116"/>
     <use x="2389.84375" xlink:href="#ArialMT-104"/>
     <use x="2445.458984" xlink:href="#ArialMT-101"/>
     <use x="2501.074219" xlink:href="#ArialMT-114"/>
     <use x="2534.375" xlink:href="#ArialMT-115"/>
    </g>
   </g>
  </g>
  <g id="axes_2">
   <g id="matplotlib.axis_3">
    <g id="ytick_10">
     <g id="line2d_29">
      <defs>
       <path d="M 0 0 
L 3.5 0 
" id="m9ee0166e6b" style="stroke:#262626;stroke-width:0.8;"/>
      </defs>
      <g>
       <use style="fill:#262626;stroke:#262626;stroke-width:0.8;" x="695.201563" xlink:href="#m9ee0166e6b" y="333.27767"/>
      </g>
     </g>
     <g id="text_17">
      <!-- 0 -->
      <g transform="translate(702.201563 336.856577)scale(0.1 -0.1)">
       <use xlink:href="#ArialMT-48"/>
      </g>
     </g>
    </g>
    <g id="ytick_11">
     <g id="line2d_30">
      <g>
       <use style="fill:#262626;stroke:#262626;stroke-width:0.8;" x="695.201563" xlink:href="#m9ee0166e6b" y="286.948125"/>
      </g>
     </g>
     <g id="text_18">
      <!-- 5 -->
      <defs>
       <path d="M 4.15625 18.75 
L 13.375 19.53125 
Q 14.40625 12.796875 18.140625 9.390625 
Q 21.875 6 27.15625 6 
Q 33.5 6 37.890625 10.78125 
Q 42.28125 15.578125 42.28125 23.484375 
Q 42.28125 31 38.0625 35.34375 
Q 33.84375 39.703125 27 39.703125 
Q 22.75 39.703125 19.328125 37.765625 
Q 15.921875 35.84375 13.96875 32.765625 
L 5.71875 33.84375 
L 12.640625 70.609375 
L 48.25 70.609375 
L 48.25 62.203125 
L 19.671875 62.203125 
L 15.828125 42.96875 
Q 22.265625 47.46875 29.34375 47.46875 
Q 38.71875 47.46875 45.15625 40.96875 
Q 51.609375 34.46875 51.609375 24.265625 
Q 51.609375 14.546875 45.953125 7.46875 
Q 39.0625 -1.21875 27.15625 -1.21875 
Q 17.390625 -1.21875 11.203125 4.25 
Q 5.03125 9.71875 4.15625 18.75 
z
" id="ArialMT-53"/>
      </defs>
      <g transform="translate(702.201563 290.527031)scale(0.1 -0.1)">
       <use xlink:href="#ArialMT-53"/>
      </g>
     </g>
    </g>
    <g id="ytick_12">
     <g id="line2d_31">
      <g>
       <use style="fill:#262626;stroke:#262626;stroke-width:0.8;" x="695.201563" xlink:href="#m9ee0166e6b" y="240.61858"/>
      </g>
     </g>
     <g id="text_19">
      <!-- 10 -->
      <g transform="translate(702.201563 244.197486)scale(0.1 -0.1)">
       <use xlink:href="#ArialMT-49"/>
       <use x="55.615234" xlink:href="#ArialMT-48"/>
      </g>
     </g>
    </g>
    <g id="ytick_13">
     <g id="line2d_32">
      <g>
       <use style="fill:#262626;stroke:#262626;stroke-width:0.8;" x="695.201563" xlink:href="#m9ee0166e6b" y="194.289034"/>
      </g>
     </g>
     <g id="text_20">
      <!-- 15 -->
      <g transform="translate(702.201563 197.86794)scale(0.1 -0.1)">
       <use xlink:href="#ArialMT-49"/>
       <use x="55.615234" xlink:href="#ArialMT-53"/>
      </g>
     </g>
    </g>
    <g id="ytick_14">
     <g id="line2d_33">
      <g>
       <use style="fill:#262626;stroke:#262626;stroke-width:0.8;" x="695.201563" xlink:href="#m9ee0166e6b" y="147.959489"/>
      </g>
     </g>
     <g id="text_21">
      <!-- 20 -->
      <g transform="translate(702.201563 151.538395)scale(0.1 -0.1)">
       <use xlink:href="#ArialMT-50"/>
       <use x="55.615234" xlink:href="#ArialMT-48"/>
      </g>
     </g>
    </g>
    <g id="ytick_15">
     <g id="line2d_34">
      <g>
       <use style="fill:#262626;stroke:#262626;stroke-width:0.8;" x="695.201563" xlink:href="#m9ee0166e6b" y="101.629943"/>
      </g>
     </g>
     <g id="text_22">
      <!-- 25 -->
      <g transform="translate(702.201563 105.208849)scale(0.1 -0.1)">
       <use xlink:href="#ArialMT-50"/>
       <use x="55.615234" xlink:href="#ArialMT-53"/>
      </g>
     </g>
    </g>
    <g id="ytick_16">
     <g id="line2d_35">
      <g>
       <use style="fill:#262626;stroke:#262626;stroke-width:0.8;" x="695.201563" xlink:href="#m9ee0166e6b" y="55.300398"/>
      </g>
     </g>
     <g id="text_23">
      <!-- 30 -->
      <g transform="translate(702.201563 58.879304)scale(0.1 -0.1)">
       <use xlink:href="#ArialMT-51"/>
       <use x="55.615234" xlink:href="#ArialMT-48"/>
      </g>
     </g>
    </g>
    <g id="text_24">
     <!-- Kullback-Leibler Divergence -->
     <g style="fill:#262626;" transform="translate(724.48125 247.273125)rotate(-90)scale(0.1 -0.1)">
      <use xlink:href="#ArialMT-75"/>
      <use x="66.699219" xlink:href="#ArialMT-117"/>
      <use x="122.314453" xlink:href="#ArialMT-108"/>
      <use x="144.53125" xlink:href="#ArialMT-108"/>
      <use x="166.748047" xlink:href="#ArialMT-98"/>
      <use x="222.363281" xlink:href="#ArialMT-97"/>
      <use x="277.978516" xlink:href="#ArialMT-99"/>
      <use x="327.978516" xlink:href="#ArialMT-107"/>
      <use x="377.978516" xlink:href="#ArialMT-45"/>
      <use x="411.279297" xlink:href="#ArialMT-76"/>
      <use x="466.894531" xlink:href="#ArialMT-101"/>
      <use x="522.509766" xlink:href="#ArialMT-105"/>
      <use x="544.726562" xlink:href="#ArialMT-98"/>
      <use x="600.341797" xlink:href="#ArialMT-108"/>
      <use x="622.558594" xlink:href="#ArialMT-101"/>
      <use x="678.173828" xlink:href="#ArialMT-114"/>
      <use x="711.474609" xlink:href="#ArialMT-32"/>
      <use x="739.257812" xlink:href="#ArialMT-68"/>
      <use x="811.474609" xlink:href="#ArialMT-105"/>
      <use x="833.691406" xlink:href="#ArialMT-118"/>
      <use x="883.691406" xlink:href="#ArialMT-101"/>
      <use x="939.306641" xlink:href="#ArialMT-114"/>
      <use x="972.607422" xlink:href="#ArialMT-103"/>
      <use x="1028.222656" xlink:href="#ArialMT-101"/>
      <use x="1083.837891" xlink:href="#ArialMT-110"/>
      <use x="1139.453125" xlink:href="#ArialMT-99"/>
      <use x="1189.453125" xlink:href="#ArialMT-101"/>
     </g>
    </g>
   </g>
   <g id="PathCollection_6">
    <defs>
     <path d="M 0 4.472136 
C 1.186024 4.472136 2.323632 4.000923 3.162278 3.162278 
C 4.000923 2.323632 4.472136 1.186024 4.472136 0 
C 4.472136 -1.186024 4.000923 -2.323632 3.162278 -3.162278 
C 2.323632 -4.000923 1.186024 -4.472136 0 -4.472136 
C -1.186024 -4.472136 -2.323632 -4.000923 -3.162278 -3.162278 
C -4.000923 -2.323632 -4.472136 -1.186024 -4.472136 0 
C -4.472136 1.186024 -4.000923 2.323632 -3.162278 3.162278 
C -2.323632 4.000923 -1.186024 4.472136 0 4.472136 
z
" id="me7d5fa045d" style="stroke:#ffffff;stroke-width:0.75;"/>
    </defs>
    <g clip-path="url(#p05fb24fd54)">
     <use style="stroke:#ffffff;stroke-width:0.75;" x="104.96914" xlink:href="#me7d5fa045d" y="333.27767"/>
     <use style="stroke:#ffffff;stroke-width:0.75;" x="233.415427" xlink:href="#me7d5fa045d" y="314.745852"/>
     <use style="stroke:#ffffff;stroke-width:0.75;" x="361.861714" xlink:href="#me7d5fa045d" y="259.150398"/>
     <use style="stroke:#ffffff;stroke-width:0.75;" x="490.308001" xlink:href="#me7d5fa045d" y="166.491307"/>
     <use style="stroke:#ffffff;stroke-width:0.75;" x="618.754288" xlink:href="#me7d5fa045d" y="36.76858"/>
    </g>
   </g>
   <g id="line2d_36">
    <path clip-path="url(#p05fb24fd54)" d="M 104.96914 333.27767 
L 233.415427 314.745852 
L 361.861714 259.150398 
L 490.308001 166.491307 
L 618.754288 36.76858 
" style="fill:none;stroke:#000000;stroke-linecap:round;stroke-opacity:0.5;stroke-width:1.5;"/>
   </g>
   <g id="patch_7">
    <path d="M 25.601563 348.103125 
L 25.601563 21.943125 
" style="fill:none;stroke:#ffffff;stroke-linecap:square;stroke-linejoin:miter;stroke-width:0.8;"/>
   </g>
   <g id="patch_8">
    <path d="M 695.201563 348.103125 
L 695.201563 21.943125 
" style="fill:none;stroke:#ffffff;stroke-linecap:square;stroke-linejoin:miter;stroke-width:0.8;"/>
   </g>
   <g id="patch_9">
    <path d="M 25.601563 348.103125 
L 695.201562 348.103125 
" style="fill:none;stroke:#ffffff;stroke-linecap:square;stroke-linejoin:miter;stroke-width:0.8;"/>
   </g>
   <g id="patch_10">
    <path d="M 25.601563 21.943125 
L 695.201562 21.943125 
" style="fill:none;stroke:#ffffff;stroke-linecap:square;stroke-linejoin:miter;stroke-width:0.8;"/>
   </g>
   <g id="legend_1">
    <g id="patch_11">
     <path d="M 436.679688 343.103125 
L 688.201563 343.103125 
Q 690.201563 343.103125 690.201563 341.103125 
L 690.201563 327.71875 
Q 690.201563 325.71875 688.201563 325.71875 
L 436.679688 325.71875 
Q 434.679688 325.71875 434.679688 327.71875 
L 434.679688 341.103125 
Q 434.679688 343.103125 436.679688 343.103125 
z
" style="fill:#e6e6e6;opacity:0.8;stroke:#cccccc;stroke-linejoin:miter;"/>
    </g>
    <g id="PathCollection_7">
     <g>
      <use style="stroke:#ffffff;stroke-width:0.75;" x="448.679688" xlink:href="#me7d5fa045d" y="334.373438"/>
     </g>
    </g>
    <g id="text_25">
     <!-- Kullback- -Leibler Divergence(first batch to others) -->
     <defs>
      <path d="M 23.390625 -21.046875 
Q 16.109375 -11.859375 11.078125 0.4375 
Q 6.0625 12.75 6.0625 25.921875 
Q 6.0625 37.546875 9.8125 48.1875 
Q 14.203125 60.546875 23.390625 72.796875 
L 29.6875 72.796875 
Q 23.78125 62.640625 21.875 58.296875 
Q 18.890625 51.5625 17.1875 44.234375 
Q 15.09375 35.109375 15.09375 25.875 
Q 15.09375 2.390625 29.6875 -21.046875 
z
" id="ArialMT-40"/>
      <path d="M 12.359375 -21.046875 
L 6.0625 -21.046875 
Q 20.65625 2.390625 20.65625 25.875 
Q 20.65625 35.0625 18.5625 44.09375 
Q 16.890625 51.421875 13.921875 58.15625 
Q 12.015625 62.546875 6.0625 72.796875 
L 12.359375 72.796875 
Q 21.53125 60.546875 25.921875 48.1875 
Q 29.6875 37.546875 29.6875 25.921875 
Q 29.6875 12.75 24.625 0.4375 
Q 19.578125 -11.859375 12.359375 -21.046875 
z
" id="ArialMT-41"/>
     </defs>
     <g style="fill:#262626;" transform="translate(466.679688 336.998438)scale(0.1 -0.1)">
      <use xlink:href="#ArialMT-75"/>
      <use x="66.699219" xlink:href="#ArialMT-117"/>
      <use x="122.314453" xlink:href="#ArialMT-108"/>
      <use x="144.53125" xlink:href="#ArialMT-108"/>
      <use x="166.748047" xlink:href="#ArialMT-98"/>
      <use x="222.363281" xlink:href="#ArialMT-97"/>
      <use x="277.978516" xlink:href="#ArialMT-99"/>
      <use x="327.978516" xlink:href="#ArialMT-107"/>
      <use x="377.978516" xlink:href="#ArialMT-45"/>
      <use x="411.279297" xlink:href="#ArialMT-45"/>
      <use x="444.580078" xlink:href="#ArialMT-76"/>
      <use x="500.195312" xlink:href="#ArialMT-101"/>
      <use x="555.810547" xlink:href="#ArialMT-105"/>
      <use x="578.027344" xlink:href="#ArialMT-98"/>
      <use x="633.642578" xlink:href="#ArialMT-108"/>
      <use x="655.859375" xlink:href="#ArialMT-101"/>
      <use x="711.474609" xlink:href="#ArialMT-114"/>
      <use x="744.775391" xlink:href="#ArialMT-32"/>
      <use x="772.558594" xlink:href="#ArialMT-68"/>
      <use x="844.775391" xlink:href="#ArialMT-105"/>
      <use x="866.992188" xlink:href="#ArialMT-118"/>
      <use x="916.992188" xlink:href="#ArialMT-101"/>
      <use x="972.607422" xlink:href="#ArialMT-114"/>
      <use x="1005.908203" xlink:href="#ArialMT-103"/>
      <use x="1061.523438" xlink:href="#ArialMT-101"/>
      <use x="1117.138672" xlink:href="#ArialMT-110"/>
      <use x="1172.753906" xlink:href="#ArialMT-99"/>
      <use x="1222.753906" xlink:href="#ArialMT-101"/>
      <use x="1278.369141" xlink:href="#ArialMT-40"/>
      <use x="1311.669922" xlink:href="#ArialMT-102"/>
      <use x="1339.453125" xlink:href="#ArialMT-105"/>
      <use x="1361.669922" xlink:href="#ArialMT-114"/>
      <use x="1394.970703" xlink:href="#ArialMT-115"/>
      <use x="1444.970703" xlink:href="#ArialMT-116"/>
      <use x="1472.753906" xlink:href="#ArialMT-32"/>
      <use x="1500.537109" xlink:href="#ArialMT-98"/>
      <use x="1556.152344" xlink:href="#ArialMT-97"/>
      <use x="1611.767578" xlink:href="#ArialMT-116"/>
      <use x="1639.550781" xlink:href="#ArialMT-99"/>
      <use x="1689.550781" xlink:href="#ArialMT-104"/>
      <use x="1745.166016" xlink:href="#ArialMT-32"/>
      <use x="1772.949219" xlink:href="#ArialMT-116"/>
      <use x="1800.732422" xlink:href="#ArialMT-111"/>
      <use x="1856.347656" xlink:href="#ArialMT-32"/>
      <use x="1884.130859" xlink:href="#ArialMT-111"/>
      <use x="1939.746094" xlink:href="#ArialMT-116"/>
      <use x="1967.529297" xlink:href="#ArialMT-104"/>
      <use x="2023.144531" xlink:href="#ArialMT-101"/>
      <use x="2078.759766" xlink:href="#ArialMT-114"/>
      <use x="2112.060547" xlink:href="#ArialMT-115"/>
      <use x="2162.060547" xlink:href="#ArialMT-41"/>
     </g>
    </g>
   </g>
  </g>
 </g>
 <defs>
  <clipPath id="p05fb24fd54">
   <rect height="326.16" width="669.6" x="25.601563" y="21.943125"/>
  </clipPath>
 </defs>
</svg>
