<?xml version="1.0" encoding="utf-8" standalone="no"?>
<!DOCTYPE svg PUBLIC "-//W3C//DTD SVG 1.1//EN"
  "http://www.w3.org/Graphics/SVG/1.1/DTD/svg11.dtd">
<!-- Created with matplotlib (https://matplotlib.org/) -->
<svg height="378.505313pt" version="1.1" viewBox="0 0 350.251563 378.505313" width="350.251563pt" xmlns="http://www.w3.org/2000/svg" xmlns:xlink="http://www.w3.org/1999/xlink">
 <defs>
  <style type="text/css">
*{stroke-linecap:butt;stroke-linejoin:round;}
  </style>
 </defs>
 <g id="figure_1">
  <g id="patch_1">
   <path d="M 0 378.505313 
L 350.251563 378.505313 
L 350.251563 0 
L 0 0 
z
" style="fill:none;"/>
  </g>
  <g id="axes_1">
   <g id="patch_2">
    <path d="M 25.601562 355.16 
L 290.143229 355.16 
L 290.143229 86.193333 
L 25.601562 86.193333 
z
" style="fill:#e6e6e6;"/>
   </g>
   <g id="matplotlib.axis_1">
    <g id="xtick_1">
     <g id="line2d_1">
      <path clip-path="url(#p01352437d5)" d="M 32.30912 355.16 
L 32.30912 86.193333 
" style="fill:none;stroke:#cccccc;stroke-linecap:round;stroke-width:0.8;"/>
     </g>
     <g id="text_1">
      <!-- −4 -->
      <defs>
       <path d="M 52.828125 31.203125 
L 5.5625 31.203125 
L 5.5625 39.40625 
L 52.828125 39.40625 
z
" id="ArialMT-8722"/>
       <path d="M 32.328125 0 
L 32.328125 17.140625 
L 1.265625 17.140625 
L 1.265625 25.203125 
L 33.9375 71.578125 
L 41.109375 71.578125 
L 41.109375 25.203125 
L 50.78125 25.203125 
L 50.78125 17.140625 
L 41.109375 17.140625 
L 41.109375 0 
z
M 32.328125 25.203125 
L 32.328125 57.46875 
L 9.90625 25.203125 
z
" id="ArialMT-52"/>
      </defs>
      <g style="fill:#262626;" transform="translate(26.608339 369.317813)scale(0.1 -0.1)">
       <use xlink:href="#ArialMT-8722"/>
       <use x="58.398438" xlink:href="#ArialMT-52"/>
      </g>
     </g>
    </g>
    <g id="xtick_2">
     <g id="line2d_2">
      <path clip-path="url(#p01352437d5)" d="M 80.534388 355.16 
L 80.534388 86.193333 
" style="fill:none;stroke:#cccccc;stroke-linecap:round;stroke-width:0.8;"/>
     </g>
     <g id="text_2">
      <!-- −2 -->
      <defs>
       <path d="M 50.34375 8.453125 
L 50.34375 0 
L 3.03125 0 
Q 2.9375 3.171875 4.046875 6.109375 
Q 5.859375 10.9375 9.828125 15.625 
Q 13.8125 20.3125 21.34375 26.46875 
Q 33.015625 36.03125 37.109375 41.625 
Q 41.21875 47.21875 41.21875 52.203125 
Q 41.21875 57.421875 37.46875 61 
Q 33.734375 64.59375 27.734375 64.59375 
Q 21.390625 64.59375 17.578125 60.78125 
Q 13.765625 56.984375 13.71875 50.25 
L 4.6875 51.171875 
Q 5.609375 61.28125 11.65625 66.578125 
Q 17.71875 71.875 27.9375 71.875 
Q 38.234375 71.875 44.234375 66.15625 
Q 50.25 60.453125 50.25 52 
Q 50.25 47.703125 48.484375 43.546875 
Q 46.734375 39.40625 42.65625 34.8125 
Q 38.578125 30.21875 29.109375 22.21875 
Q 21.1875 15.578125 18.9375 13.203125 
Q 16.703125 10.84375 15.234375 8.453125 
z
" id="ArialMT-50"/>
      </defs>
      <g style="fill:#262626;" transform="translate(74.833607 369.317813)scale(0.1 -0.1)">
       <use xlink:href="#ArialMT-8722"/>
       <use x="58.398438" xlink:href="#ArialMT-50"/>
      </g>
     </g>
    </g>
    <g id="xtick_3">
     <g id="line2d_3">
      <path clip-path="url(#p01352437d5)" d="M 128.759656 355.16 
L 128.759656 86.193333 
" style="fill:none;stroke:#cccccc;stroke-linecap:round;stroke-width:0.8;"/>
     </g>
     <g id="text_3">
      <!-- 0 -->
      <defs>
       <path d="M 4.15625 35.296875 
Q 4.15625 48 6.765625 55.734375 
Q 9.375 63.484375 14.515625 67.671875 
Q 19.671875 71.875 27.484375 71.875 
Q 33.25 71.875 37.59375 69.546875 
Q 41.9375 67.234375 44.765625 62.859375 
Q 47.609375 58.5 49.21875 52.21875 
Q 50.828125 45.953125 50.828125 35.296875 
Q 50.828125 22.703125 48.234375 14.96875 
Q 45.65625 7.234375 40.5 3 
Q 35.359375 -1.21875 27.484375 -1.21875 
Q 17.140625 -1.21875 11.234375 6.203125 
Q 4.15625 15.140625 4.15625 35.296875 
z
M 13.1875 35.296875 
Q 13.1875 17.671875 17.3125 11.828125 
Q 21.4375 6 27.484375 6 
Q 33.546875 6 37.671875 11.859375 
Q 41.796875 17.71875 41.796875 35.296875 
Q 41.796875 52.984375 37.671875 58.78125 
Q 33.546875 64.59375 27.390625 64.59375 
Q 21.34375 64.59375 17.71875 59.46875 
Q 13.1875 52.9375 13.1875 35.296875 
z
" id="ArialMT-48"/>
      </defs>
      <g style="fill:#262626;" transform="translate(125.979187 369.317813)scale(0.1 -0.1)">
       <use xlink:href="#ArialMT-48"/>
      </g>
     </g>
    </g>
    <g id="xtick_4">
     <g id="line2d_4">
      <path clip-path="url(#p01352437d5)" d="M 176.984924 355.16 
L 176.984924 86.193333 
" style="fill:none;stroke:#cccccc;stroke-linecap:round;stroke-width:0.8;"/>
     </g>
     <g id="text_4">
      <!-- 2 -->
      <g style="fill:#262626;" transform="translate(174.204455 369.317813)scale(0.1 -0.1)">
       <use xlink:href="#ArialMT-50"/>
      </g>
     </g>
    </g>
    <g id="xtick_5">
     <g id="line2d_5">
      <path clip-path="url(#p01352437d5)" d="M 225.210192 355.16 
L 225.210192 86.193333 
" style="fill:none;stroke:#cccccc;stroke-linecap:round;stroke-width:0.8;"/>
     </g>
     <g id="text_5">
      <!-- 4 -->
      <g style="fill:#262626;" transform="translate(222.429723 369.317813)scale(0.1 -0.1)">
       <use xlink:href="#ArialMT-52"/>
      </g>
     </g>
    </g>
    <g id="xtick_6">
     <g id="line2d_6">
      <path clip-path="url(#p01352437d5)" d="M 273.43546 355.16 
L 273.43546 86.193333 
" style="fill:none;stroke:#cccccc;stroke-linecap:round;stroke-width:0.8;"/>
     </g>
     <g id="text_6">
      <!-- 6 -->
      <defs>
       <path d="M 49.75 54.046875 
L 41.015625 53.375 
Q 39.84375 58.546875 37.703125 60.890625 
Q 34.125 64.65625 28.90625 64.65625 
Q 24.703125 64.65625 21.53125 62.3125 
Q 17.390625 59.28125 14.984375 53.46875 
Q 12.59375 47.65625 12.5 36.921875 
Q 15.671875 41.75 20.265625 44.09375 
Q 24.859375 46.4375 29.890625 46.4375 
Q 38.671875 46.4375 44.84375 39.96875 
Q 51.03125 33.5 51.03125 23.25 
Q 51.03125 16.5 48.125 10.71875 
Q 45.21875 4.9375 40.140625 1.859375 
Q 35.0625 -1.21875 28.609375 -1.21875 
Q 17.625 -1.21875 10.6875 6.859375 
Q 3.765625 14.9375 3.765625 33.5 
Q 3.765625 54.25 11.421875 63.671875 
Q 18.109375 71.875 29.4375 71.875 
Q 37.890625 71.875 43.28125 67.140625 
Q 48.6875 62.40625 49.75 54.046875 
z
M 13.875 23.1875 
Q 13.875 18.65625 15.796875 14.5 
Q 17.71875 10.359375 21.1875 8.171875 
Q 24.65625 6 28.46875 6 
Q 34.03125 6 38.03125 10.484375 
Q 42.046875 14.984375 42.046875 22.703125 
Q 42.046875 30.125 38.078125 34.390625 
Q 34.125 38.671875 28.125 38.671875 
Q 22.171875 38.671875 18.015625 34.390625 
Q 13.875 30.125 13.875 23.1875 
z
" id="ArialMT-54"/>
      </defs>
      <g style="fill:#262626;" transform="translate(270.654992 369.317813)scale(0.1 -0.1)">
       <use xlink:href="#ArialMT-54"/>
      </g>
     </g>
    </g>
   </g>
   <g id="matplotlib.axis_2">
    <g id="ytick_1">
     <g id="line2d_7">
      <path clip-path="url(#p01352437d5)" d="M 25.601562 345.360616 
L 290.143229 345.360616 
" style="fill:none;stroke:#cccccc;stroke-linecap:round;stroke-width:0.8;"/>
     </g>
     <g id="text_7">
      <!-- −2 -->
      <g style="fill:#262626;" transform="translate(7.2 348.939522)scale(0.1 -0.1)">
       <use xlink:href="#ArialMT-8722"/>
       <use x="58.398438" xlink:href="#ArialMT-50"/>
      </g>
     </g>
    </g>
    <g id="ytick_2">
     <g id="line2d_8">
      <path clip-path="url(#p01352437d5)" d="M 25.601562 314.514159 
L 290.143229 314.514159 
" style="fill:none;stroke:#cccccc;stroke-linecap:round;stroke-width:0.8;"/>
     </g>
     <g id="text_8">
      <!-- −1 -->
      <defs>
       <path d="M 37.25 0 
L 28.46875 0 
L 28.46875 56 
Q 25.296875 52.984375 20.140625 49.953125 
Q 14.984375 46.921875 10.890625 45.40625 
L 10.890625 53.90625 
Q 18.265625 57.375 23.78125 62.296875 
Q 29.296875 67.234375 31.59375 71.875 
L 37.25 71.875 
z
" id="ArialMT-49"/>
      </defs>
      <g style="fill:#262626;" transform="translate(7.2 318.093065)scale(0.1 -0.1)">
       <use xlink:href="#ArialMT-8722"/>
       <use x="58.398438" xlink:href="#ArialMT-49"/>
      </g>
     </g>
    </g>
    <g id="ytick_3">
     <g id="line2d_9">
      <path clip-path="url(#p01352437d5)" d="M 25.601562 283.667703 
L 290.143229 283.667703 
" style="fill:none;stroke:#cccccc;stroke-linecap:round;stroke-width:0.8;"/>
     </g>
     <g id="text_9">
      <!-- 0 -->
      <g style="fill:#262626;" transform="translate(13.040625 287.246609)scale(0.1 -0.1)">
       <use xlink:href="#ArialMT-48"/>
      </g>
     </g>
    </g>
    <g id="ytick_4">
     <g id="line2d_10">
      <path clip-path="url(#p01352437d5)" d="M 25.601562 252.821246 
L 290.143229 252.821246 
" style="fill:none;stroke:#cccccc;stroke-linecap:round;stroke-width:0.8;"/>
     </g>
     <g id="text_10">
      <!-- 1 -->
      <g style="fill:#262626;" transform="translate(13.040625 256.400153)scale(0.1 -0.1)">
       <use xlink:href="#ArialMT-49"/>
      </g>
     </g>
    </g>
    <g id="ytick_5">
     <g id="line2d_11">
      <path clip-path="url(#p01352437d5)" d="M 25.601562 221.97479 
L 290.143229 221.97479 
" style="fill:none;stroke:#cccccc;stroke-linecap:round;stroke-width:0.8;"/>
     </g>
     <g id="text_11">
      <!-- 2 -->
      <g style="fill:#262626;" transform="translate(13.040625 225.553696)scale(0.1 -0.1)">
       <use xlink:href="#ArialMT-50"/>
      </g>
     </g>
    </g>
    <g id="ytick_6">
     <g id="line2d_12">
      <path clip-path="url(#p01352437d5)" d="M 25.601562 191.128333 
L 290.143229 191.128333 
" style="fill:none;stroke:#cccccc;stroke-linecap:round;stroke-width:0.8;"/>
     </g>
     <g id="text_12">
      <!-- 3 -->
      <defs>
       <path d="M 4.203125 18.890625 
L 12.984375 20.0625 
Q 14.5 12.59375 18.140625 9.296875 
Q 21.78125 6 27 6 
Q 33.203125 6 37.46875 10.296875 
Q 41.75 14.59375 41.75 20.953125 
Q 41.75 27 37.796875 30.921875 
Q 33.84375 34.859375 27.734375 34.859375 
Q 25.25 34.859375 21.53125 33.890625 
L 22.515625 41.609375 
Q 23.390625 41.5 23.921875 41.5 
Q 29.546875 41.5 34.03125 44.421875 
Q 38.53125 47.359375 38.53125 53.46875 
Q 38.53125 58.296875 35.25 61.46875 
Q 31.984375 64.65625 26.8125 64.65625 
Q 21.6875 64.65625 18.265625 61.421875 
Q 14.84375 58.203125 13.875 51.765625 
L 5.078125 53.328125 
Q 6.6875 62.15625 12.390625 67.015625 
Q 18.109375 71.875 26.609375 71.875 
Q 32.46875 71.875 37.390625 69.359375 
Q 42.328125 66.84375 44.9375 62.5 
Q 47.5625 58.15625 47.5625 53.265625 
Q 47.5625 48.640625 45.0625 44.828125 
Q 42.578125 41.015625 37.703125 38.765625 
Q 44.046875 37.3125 47.5625 32.6875 
Q 51.078125 28.078125 51.078125 21.140625 
Q 51.078125 11.765625 44.234375 5.25 
Q 37.40625 -1.265625 26.953125 -1.265625 
Q 17.53125 -1.265625 11.296875 4.34375 
Q 5.078125 9.96875 4.203125 18.890625 
z
" id="ArialMT-51"/>
      </defs>
      <g style="fill:#262626;" transform="translate(13.040625 194.70724)scale(0.1 -0.1)">
       <use xlink:href="#ArialMT-51"/>
      </g>
     </g>
    </g>
    <g id="ytick_7">
     <g id="line2d_13">
      <path clip-path="url(#p01352437d5)" d="M 25.601562 160.281877 
L 290.143229 160.281877 
" style="fill:none;stroke:#cccccc;stroke-linecap:round;stroke-width:0.8;"/>
     </g>
     <g id="text_13">
      <!-- 4 -->
      <g style="fill:#262626;" transform="translate(13.040625 163.860783)scale(0.1 -0.1)">
       <use xlink:href="#ArialMT-52"/>
      </g>
     </g>
    </g>
    <g id="ytick_8">
     <g id="line2d_14">
      <path clip-path="url(#p01352437d5)" d="M 25.601562 129.435421 
L 290.143229 129.435421 
" style="fill:none;stroke:#cccccc;stroke-linecap:round;stroke-width:0.8;"/>
     </g>
     <g id="text_14">
      <!-- 5 -->
      <defs>
       <path d="M 4.15625 18.75 
L 13.375 19.53125 
Q 14.40625 12.796875 18.140625 9.390625 
Q 21.875 6 27.15625 6 
Q 33.5 6 37.890625 10.78125 
Q 42.28125 15.578125 42.28125 23.484375 
Q 42.28125 31 38.0625 35.34375 
Q 33.84375 39.703125 27 39.703125 
Q 22.75 39.703125 19.328125 37.765625 
Q 15.921875 35.84375 13.96875 32.765625 
L 5.71875 33.84375 
L 12.640625 70.609375 
L 48.25 70.609375 
L 48.25 62.203125 
L 19.671875 62.203125 
L 15.828125 42.96875 
Q 22.265625 47.46875 29.34375 47.46875 
Q 38.71875 47.46875 45.15625 40.96875 
Q 51.609375 34.46875 51.609375 24.265625 
Q 51.609375 14.546875 45.953125 7.46875 
Q 39.0625 -1.21875 27.15625 -1.21875 
Q 17.390625 -1.21875 11.203125 4.25 
Q 5.03125 9.71875 4.15625 18.75 
z
" id="ArialMT-53"/>
      </defs>
      <g style="fill:#262626;" transform="translate(13.040625 133.014327)scale(0.1 -0.1)">
       <use xlink:href="#ArialMT-53"/>
      </g>
     </g>
    </g>
    <g id="ytick_9">
     <g id="line2d_15">
      <path clip-path="url(#p01352437d5)" d="M 25.601562 98.588964 
L 290.143229 98.588964 
" style="fill:none;stroke:#cccccc;stroke-linecap:round;stroke-width:0.8;"/>
     </g>
     <g id="text_15">
      <!-- 6 -->
      <g style="fill:#262626;" transform="translate(13.040625 102.167871)scale(0.1 -0.1)">
       <use xlink:href="#ArialMT-54"/>
      </g>
     </g>
    </g>
   </g>
   <g id="LineCollection_1"/>
   <g id="LineCollection_2">
    <path clip-path="url(#p01352437d5)" d="M 103.093566 290.802593 
L 105.765704 291.346576 
L 108.437842 291.631142 
L 111.10998 291.70344 
L 113.782118 291.554636 
L 116.454256 291.126807 
L 119.126394 290.328761 
L 121.798532 289.073206 
L 129.814946 283.952048 
L 133.942324 281.805455 
L 137.83136 280.208551 
L 145.989128 276.371785 
L 148.519913 275.052731 
L 151.192051 273.447452 
L 156.536327 270.524438 
L 161.880603 267.870223 
L 164.552741 266.422574 
L 167.224879 264.61238 
L 169.897017 262.274761 
L 174.448938 257.353939 
L 177.053083 254.637104 
L 177.913431 253.786988 
L 186.188175 246.486599 
L 188.820825 243.769764 
L 193.946259 237.789422 
L 196.618398 235.003839 
L 199.290536 232.713634 
L 206.774889 227.468754 
L 207.30695 227.0152 
L 209.979088 223.99689 
L 211.181496 222.035084 
L 212.651226 218.846114 
L 213.550987 216.601414 
L 215.36298 211.167744 
L 216.257451 208.450909 
L 217.010808 205.734074 
L 218.118222 200.300404 
L 219.053753 194.866734 
L 219.765502 189.433064 
L 220.66764 182.207226 
L 220.839897 181.282559 
L 221.586054 178.565724 
L 222.688644 175.848889 
L 223.339778 174.573259 
L 226.200804 170.415219 
L 227.689699 167.698384 
L 227.673932 164.981549 
L 225.613766 162.264714 
L 217.995502 156.727207 
L 215.206585 154.114209 
L 212.513606 151.397374 
L 209.979088 149.411051 
L 208.788704 148.680539 
L 207.30695 147.974404 
L 204.634812 147.092068 
L 201.962674 146.611508 
L 199.290536 146.491647 
L 196.618398 146.719442 
L 193.946259 147.305195 
L 190.497331 148.680539 
L 188.601983 149.766977 
L 185.929845 151.813345 
L 183.257707 154.493369 
L 178.646568 159.547879 
L 175.539191 162.264714 
L 175.241293 162.472896 
L 171.039144 164.981549 
L 169.897017 165.483276 
L 164.552741 167.379978 
L 159.208465 169.072053 
L 156.39495 170.415219 
L 153.864189 171.749713 
L 147.894799 175.848889 
L 143.175637 178.833266 
L 132.487084 184.813042 
L 129.618879 186.716229 
L 125.983776 189.433064 
L 122.974638 192.149899 
L 120.477578 194.866734 
L 118.36477 197.583569 
L 112.698272 205.734074 
L 110.516543 208.450909 
L 107.807389 211.167744 
L 103.093566 214.907595 
L 93.932286 222.035084 
L 90.941168 224.751919 
L 88.451434 227.468754 
L 86.511357 230.185589 
L 85.033194 232.902424 
L 83.190692 238.336094 
L 81.940372 243.769764 
L 81.716461 244.418983 
L 80.874252 246.486599 
L 79.044323 250.06412 
L 77.998039 251.920269 
L 76.372185 255.173436 
L 75.400215 257.353939 
L 74.516534 260.070774 
L 73.967375 262.787609 
L 73.74287 265.504444 
L 73.845036 268.221279 
L 74.324512 270.938114 
L 75.392413 273.654949 
L 76.372185 275.035104 
L 77.998829 276.371785 
L 79.044323 276.952867 
L 84.3886 279.168194 
L 87.060738 280.653743 
L 89.732876 282.56462 
L 95.665454 287.239125 
L 97.74929 288.638456 
L 100.61559 289.95596 
L 103.093566 290.802593 
L 103.093566 290.802593 
" style="fill:none;stroke:#34434f;stroke-width:1.5;"/>
   </g>
   <g id="LineCollection_3">
    <path clip-path="url(#p01352437d5)" d="M 108.437842 279.150766 
L 111.10998 278.823664 
L 113.782118 278.267207 
L 119.126394 276.836505 
L 121.798532 276.118524 
L 127.142808 274.795461 
L 135.159222 272.546995 
L 139.657838 270.938114 
L 140.503499 270.634741 
L 143.175637 269.532046 
L 148.519913 266.897474 
L 159.208465 261.155161 
L 161.880603 259.402837 
L 164.552741 257.259744 
L 167.280656 254.637104 
L 175.241293 246.129381 
L 183.257707 238.000876 
L 187.615532 232.902424 
L 189.850948 230.185589 
L 192.246122 227.468754 
L 195.007737 224.751919 
L 201.962674 218.363036 
L 203.414221 216.601414 
L 205.050142 213.884579 
L 206.175382 211.167744 
L 206.914121 208.450909 
L 207.39726 205.734074 
L 209.979088 185.867853 
L 210.054937 183.999394 
L 209.905547 181.282559 
L 209.43772 178.565724 
L 208.507181 175.848889 
L 206.881431 173.132054 
L 204.312837 170.415219 
L 201.962674 168.488166 
L 199.290536 166.77968 
L 196.618398 165.678766 
L 193.946259 165.361464 
L 191.274121 165.665729 
L 188.601983 166.414169 
L 180.585569 169.646068 
L 177.913431 170.777919 
L 171.549985 173.132054 
L 164.552741 175.240059 
L 159.208465 177.257913 
L 156.536327 178.660645 
L 153.864189 180.206352 
L 145.847775 185.376462 
L 143.175637 186.94849 
L 137.83136 189.924999 
L 134.322837 192.149899 
L 132.487084 193.422799 
L 129.814946 195.608461 
L 127.142808 198.190588 
L 124.47067 201.256212 
L 121.798532 204.84559 
L 116.454256 212.153779 
L 113.782118 214.862139 
L 111.10998 217.009942 
L 103.093566 222.600959 
L 100.421428 224.81502 
L 97.74929 227.509109 
L 95.735876 230.185589 
L 94.399929 232.902424 
L 93.658899 235.619259 
L 93.368075 238.336094 
L 93.2544 241.052929 
L 93.014472 243.769764 
L 92.397438 246.486599 
L 91.197195 249.203434 
L 88.21226 254.637104 
L 87.148231 257.353939 
L 86.714389 260.070774 
L 87.158593 262.787609 
L 88.486576 265.504444 
L 90.627934 268.221279 
L 95.077152 272.838316 
L 97.74929 275.28122 
L 100.421428 277.206833 
L 103.093566 278.480613 
L 106.073879 279.08862 
L 108.437842 279.150766 
L 108.437842 279.150766 
" style="fill:none;stroke:#35556c;stroke-width:1.5;"/>
   </g>
   <g id="LineCollection_4">
    <path clip-path="url(#p01352437d5)" d="M 111.10998 271.060471 
L 113.982627 270.938114 
L 119.126394 270.346207 
L 124.47067 269.454615 
L 130.184554 268.221279 
L 135.159222 266.880418 
L 139.030796 265.504444 
L 140.503499 264.920002 
L 144.9998 262.787609 
L 150.095745 260.070774 
L 156.536327 256.480387 
L 159.329902 254.637104 
L 162.744739 251.920269 
L 165.596995 249.203434 
L 180.585569 233.603655 
L 181.20259 232.902424 
L 185.466786 227.468754 
L 187.553005 224.751919 
L 189.794443 222.035084 
L 192.262348 219.318249 
L 194.78044 216.601414 
L 196.960369 213.884579 
L 198.581649 211.167744 
L 199.633174 208.450909 
L 200.293064 205.734074 
L 201.058861 200.300404 
L 202.461327 189.433064 
L 202.461481 186.716229 
L 201.962674 183.72087 
L 201.009332 181.282559 
L 199.007182 178.565724 
L 196.618398 176.741505 
L 193.946259 175.536894 
L 191.274121 174.948684 
L 188.601983 174.816848 
L 185.929845 175.031683 
L 181.836241 175.848889 
L 177.913431 176.825845 
L 164.552741 180.330965 
L 161.880603 181.338501 
L 159.208465 182.582945 
L 156.536327 184.159956 
L 148.519913 189.654088 
L 143.175637 192.679016 
L 137.83136 195.681996 
L 135.057601 197.583569 
L 131.735429 200.300404 
L 129.048121 203.017239 
L 126.809375 205.734074 
L 122.974073 211.167744 
L 121.068152 213.884579 
L 118.840946 216.601414 
L 115.846455 219.318249 
L 111.10998 222.573998 
L 107.941622 224.751919 
L 104.713815 227.468754 
L 102.396437 230.185589 
L 100.894675 232.902424 
L 100.070841 235.619259 
L 99.724511 238.336094 
L 99.581727 243.769764 
L 99.294973 246.486599 
L 98.634464 249.203434 
L 97.595205 251.920269 
L 96.42267 254.637104 
L 95.611126 257.353939 
L 95.543986 260.070774 
L 96.435297 262.787609 
L 98.343879 265.504444 
L 100.421428 267.462608 
L 101.470925 268.221279 
L 103.093566 269.245799 
L 105.765704 270.338257 
L 109.124085 270.938114 
L 111.10998 271.060471 
L 111.10998 271.060471 
" style="fill:none;stroke:#356587;stroke-width:1.5;"/>
   </g>
   <g id="LineCollection_5">
    <path clip-path="url(#p01352437d5)" d="M 108.437842 263.040386 
L 111.10998 263.8913 
L 113.782118 264.311722 
L 116.454256 264.452878 
L 119.126394 264.412622 
L 124.47067 263.966245 
L 127.142808 263.583443 
L 131.071033 262.787609 
L 132.487084 262.446181 
L 135.159222 261.639373 
L 139.183389 260.070774 
L 140.503499 259.475933 
L 145.847775 256.735524 
L 156.536327 251.030141 
L 159.208465 249.194479 
L 162.440672 246.486599 
L 165.223275 243.769764 
L 175.800966 232.902424 
L 178.168085 230.185589 
L 180.585569 226.97411 
L 185.929845 219.305745 
L 190.101577 213.884579 
L 191.856004 211.167744 
L 193.117498 208.450909 
L 193.946259 205.471126 
L 194.360376 203.017239 
L 194.842296 197.583569 
L 195.128555 192.149899 
L 194.974127 189.433064 
L 194.277002 186.716229 
L 193.946259 186.108674 
L 192.225746 183.999394 
L 191.274121 183.313925 
L 188.601983 182.240983 
L 185.929845 181.839304 
L 183.257707 181.84551 
L 177.913431 182.38045 
L 169.897017 183.493919 
L 167.224879 184.049094 
L 164.552741 184.843299 
L 161.880603 185.945919 
L 159.208465 187.441772 
L 156.318171 189.433064 
L 152.566304 192.149899 
L 151.192051 193.035323 
L 147.99689 194.866734 
L 142.548479 197.583569 
L 140.503499 198.647684 
L 137.83136 200.324788 
L 134.352711 203.017239 
L 131.606474 205.734074 
L 129.370863 208.450909 
L 125.644615 213.884579 
L 123.798883 216.601414 
L 121.640516 219.318249 
L 118.72235 222.035084 
L 114.865718 224.751919 
L 110.976836 227.468754 
L 108.059096 230.185589 
L 106.176219 232.902424 
L 105.101894 235.619259 
L 104.62628 238.336094 
L 104.537283 241.052929 
L 104.724051 249.203434 
L 104.162003 257.353939 
L 105.008321 260.070774 
L 105.765704 261.011081 
L 107.94246 262.787609 
L 108.437842 263.040386 
L 108.437842 263.040386 
" style="fill:none;stroke:#3676a4;stroke-width:1.5;"/>
   </g>
   <g id="LineCollection_6">
    <path clip-path="url(#p01352437d5)" d="M 119.126394 257.603712 
L 121.798532 258.044313 
L 124.47067 258.172042 
L 127.142808 258.040343 
L 129.814946 257.665814 
L 131.163373 257.353939 
L 132.487084 257.053676 
L 135.159222 256.193919 
L 137.83136 255.094257 
L 138.797378 254.637104 
L 140.503499 253.837417 
L 143.175637 252.51488 
L 144.389138 251.920269 
L 145.847775 251.245795 
L 148.519913 250.054071 
L 150.409962 249.203434 
L 151.192051 248.870664 
L 153.864189 247.594739 
L 155.792318 246.486599 
L 156.536327 246.060815 
L 159.208465 244.168344 
L 159.679023 243.769764 
L 161.880603 241.866614 
L 162.717559 241.052929 
L 164.552741 239.249204 
L 165.441983 238.336094 
L 167.224879 236.5004 
L 168.084566 235.619259 
L 169.897017 233.721564 
L 170.689692 232.902424 
L 172.569155 230.823947 
L 173.143006 230.185589 
L 175.241293 227.560056 
L 175.312917 227.468754 
L 177.171817 224.751919 
L 177.913431 223.527951 
L 178.836411 222.035084 
L 180.442971 219.318249 
L 180.585569 219.070788 
L 182.117018 216.601414 
L 183.257707 214.799026 
L 183.874337 213.884579 
L 185.546624 211.167744 
L 185.929845 210.390591 
L 186.867525 208.450909 
L 187.698664 205.734074 
L 188.060552 203.017239 
L 188.021638 200.300404 
L 187.625457 197.583569 
L 186.806572 194.866734 
L 185.929845 193.168888 
L 185.172971 192.149899 
L 183.257707 190.54903 
L 180.938488 189.433064 
L 180.585569 189.312072 
L 177.913431 188.678494 
L 175.241293 188.326015 
L 172.569155 188.203764 
L 169.897017 188.331029 
L 167.224879 188.76585 
L 165.029947 189.433064 
L 164.552741 189.594364 
L 161.880603 190.948082 
L 160.000164 192.149899 
L 159.208465 192.674081 
L 156.536327 194.53652 
L 156.047843 194.866734 
L 153.864189 196.156991 
L 151.192051 197.542851 
L 151.109065 197.583569 
L 148.519913 198.692144 
L 145.847775 199.856546 
L 144.926994 200.300404 
L 143.175637 201.114223 
L 140.503499 202.60872 
L 139.888353 203.017239 
L 137.83136 204.464918 
L 136.322739 205.734074 
L 135.159222 206.827449 
L 133.637318 208.450909 
L 132.487084 209.8548 
L 131.485948 211.167744 
L 129.814946 213.636511 
L 129.649696 213.884579 
L 127.931218 216.601414 
L 127.142808 217.838579 
L 126.123902 219.318249 
L 124.47067 221.466512 
L 123.9651 222.035084 
L 121.798532 224.130952 
L 121.041181 224.751919 
L 119.126394 226.175668 
L 117.237824 227.468754 
L 116.454256 228.019519 
L 113.782118 230.020738 
L 113.583222 230.185589 
L 111.10998 232.844332 
L 111.062946 232.902424 
L 109.615848 235.619259 
L 108.944585 238.336094 
L 108.822758 241.052929 
L 109.080443 243.769764 
L 109.61423 246.486599 
L 110.394011 249.203434 
L 111.10998 251.101839 
L 111.527081 251.920269 
L 113.446456 254.637104 
L 113.782118 254.981272 
L 116.454256 256.723814 
L 118.282346 257.353939 
L 119.126394 257.603712 
" style="fill:none;stroke:#3787c0;stroke-width:1.5;"/>
   </g>
   <g id="LineCollection_7">
    <path clip-path="url(#p01352437d5)" d="M 121.798532 252.142118 
L 124.47067 252.68047 
L 127.142808 252.770534 
L 129.814946 252.478591 
L 132.130419 251.920269 
L 132.487084 251.83601 
L 135.159222 250.906166 
L 137.83136 249.736079 
L 138.945417 249.203434 
L 140.503499 248.469249 
L 143.175637 247.25155 
L 144.99964 246.486599 
L 145.847775 246.144227 
L 148.519913 245.128596 
L 151.192051 244.073844 
L 151.845301 243.769764 
L 153.864189 242.822272 
L 156.536327 241.240674 
L 156.792019 241.052929 
L 159.208465 239.208127 
L 160.184768 238.336094 
L 161.880603 236.76335 
L 163.022836 235.619259 
L 164.552741 234.029265 
L 165.618501 232.902424 
L 167.224879 231.097719 
L 168.041897 230.185589 
L 169.897017 227.878323 
L 170.226443 227.468754 
L 172.093047 224.751919 
L 172.569155 223.920763 
L 173.654165 222.035084 
L 175.009954 219.318249 
L 175.241293 218.787385 
L 176.258534 216.601414 
L 177.505116 213.884579 
L 177.913431 212.938888 
L 178.747872 211.167744 
L 179.860902 208.450909 
L 180.585569 205.822375 
L 180.609198 205.734074 
L 180.708998 203.017239 
L 180.585569 202.452543 
L 179.994979 200.300404 
L 178.206115 197.583569 
L 177.913431 197.305584 
L 175.241293 195.509394 
L 173.588392 194.866734 
L 172.569155 194.571919 
L 169.897017 194.327064 
L 167.224879 194.647308 
L 166.56451 194.866734 
L 164.552741 195.580355 
L 161.880603 196.88478 
L 160.608986 197.583569 
L 159.208465 198.233699 
L 156.536327 199.416545 
L 154.319572 200.300404 
L 153.864189 200.451845 
L 151.192051 201.365957 
L 148.519913 202.321009 
L 146.820512 203.017239 
L 145.847775 203.412285 
L 143.175637 204.739556 
L 141.556047 205.734074 
L 140.503499 206.448395 
L 138.061909 208.450909 
L 137.83136 208.671216 
L 135.536917 211.167744 
L 135.159222 211.651843 
L 133.540914 213.884579 
L 132.487084 215.53255 
L 131.818418 216.601414 
L 130.193341 219.318249 
L 129.814946 219.935762 
L 128.437084 222.035084 
L 127.142808 223.74312 
L 126.264455 224.751919 
L 124.47067 226.504202 
L 123.304468 227.468754 
L 121.798532 228.617678 
L 119.56461 230.185589 
L 119.126394 230.517528 
L 116.454256 232.70066 
L 116.236585 232.902424 
L 114.181947 235.619259 
L 113.782118 236.640629 
L 113.203433 238.336094 
L 113.032872 241.052929 
L 113.499691 243.769764 
L 113.782118 244.546746 
L 114.656588 246.486599 
L 116.454256 248.970327 
L 116.699245 249.203434 
L 119.126394 251.032692 
L 121.228678 251.920269 
L 121.798532 252.142118 
" style="fill:none;stroke:#4e96c8;stroke-width:1.5;"/>
   </g>
   <g id="LineCollection_8">
    <path clip-path="url(#p01352437d5)" d="M 121.798532 246.594223 
L 124.47067 247.553035 
L 127.142808 247.835357 
L 129.814946 247.580976 
L 132.487084 246.886587 
L 133.529095 246.486599 
L 135.159222 245.803636 
L 137.83136 244.546557 
L 139.501576 243.769764 
L 140.503499 243.285528 
L 143.175637 242.157014 
L 145.847775 241.194152 
L 146.253284 241.052929 
L 148.519913 240.246757 
L 151.192051 239.202647 
L 152.976884 238.336094 
L 153.864189 237.876006 
L 156.536327 236.113231 
L 157.149455 235.619259 
L 159.208465 233.842959 
L 160.172578 232.902424 
L 161.880603 231.108994 
L 162.710358 230.185589 
L 164.552741 227.915998 
L 164.908571 227.468754 
L 166.761072 224.751919 
L 167.224879 223.914926 
L 168.263782 222.035084 
L 169.434376 219.318249 
L 169.897017 217.838435 
L 170.307263 216.601414 
L 170.911054 213.884579 
L 171.221005 211.167744 
L 171.112362 208.450909 
L 170.199447 205.734074 
L 169.897017 205.323541 
L 167.224879 203.454864 
L 164.807979 203.017239 
L 164.552741 202.986196 
L 163.378085 203.017239 
L 161.880603 203.048768 
L 159.208465 203.339729 
L 156.536327 203.755489 
L 153.864189 204.280498 
L 151.192051 204.941602 
L 148.702272 205.734074 
L 148.519913 205.794282 
L 145.847775 206.966569 
L 143.234206 208.450909 
L 143.175637 208.489852 
L 140.503499 210.663562 
L 139.977225 211.167744 
L 137.83136 213.646941 
L 137.645293 213.884579 
L 135.850928 216.601414 
L 135.159222 217.795335 
L 134.296249 219.318249 
L 132.789883 222.035084 
L 132.487084 222.562323 
L 131.139747 224.751919 
L 129.814946 226.542078 
L 129.023394 227.468754 
L 127.142808 229.327564 
L 126.107709 230.185589 
L 124.47067 231.480828 
L 122.515674 232.902424 
L 121.798532 233.519476 
L 119.587598 235.619259 
L 119.126394 236.362938 
L 118.119088 238.336094 
L 117.897661 241.052929 
L 118.821499 243.769764 
L 119.126394 244.193254 
L 121.629298 246.486599 
L 121.798532 246.594223 
" style="fill:none;stroke:#66a4cf;stroke-width:1.5;"/>
   </g>
   <g id="LineCollection_9">
    <path clip-path="url(#p01352437d5)" d="M 127.142808 240.163335 
L 129.814946 241.051853 
L 132.487084 240.101363 
L 135.159222 239.027532 
L 136.995875 238.336094 
L 137.83136 237.977477 
L 140.503499 237.025603 
L 143.175637 236.307114 
L 145.847775 235.633343 
L 145.893902 235.619259 
L 148.519913 234.759392 
L 151.192051 233.66861 
L 152.594727 232.902424 
L 153.864189 232.143893 
L 156.413334 230.185589 
L 156.536327 230.081383 
L 159.068778 227.468754 
L 159.208465 227.304006 
L 161.102091 224.751919 
L 161.880603 223.459206 
L 162.678704 222.035084 
L 163.770154 219.318249 
L 164.36411 216.601414 
L 164.318234 213.884579 
L 163.244378 211.167744 
L 161.880603 209.827386 
L 159.208465 208.491863 
L 158.998646 208.450909 
L 156.536327 208.124504 
L 153.864189 208.212705 
L 152.49891 208.450909 
L 151.192051 208.703561 
L 148.519913 209.64237 
L 145.847775 211.001046 
L 145.598912 211.167744 
L 143.175637 213.205457 
L 142.503229 213.884579 
L 140.503499 216.470486 
L 140.412118 216.601414 
L 138.922529 219.318249 
L 137.83136 221.599167 
L 137.626348 222.035084 
L 136.489601 224.751919 
L 135.192513 227.468754 
L 135.159222 227.541188 
L 133.713861 230.185589 
L 132.487084 231.92505 
L 131.576384 232.902424 
L 129.814946 234.718352 
L 128.697529 235.619259 
L 127.142808 237.514716 
L 126.507583 238.336094 
L 127.142808 240.163335 
" style="fill:none;stroke:#7db3d7;stroke-width:1.5;"/>
   </g>
   <g id="LineCollection_10">
    <path clip-path="url(#p01352437d5)" d="M 145.847775 226.16387 
L 148.519913 226.756672 
L 151.192051 225.96266 
L 153.116756 224.751919 
L 153.864189 224.181179 
L 155.691658 222.035084 
L 156.536327 220.509817 
L 157.037342 219.318249 
L 157.142179 216.601414 
L 156.536327 215.49516 
L 154.337293 213.884579 
L 153.864189 213.744064 
L 151.297989 213.884579 
L 151.192051 213.893322 
L 148.519913 215.343051 
L 147.065982 216.601414 
L 145.847775 218.301579 
L 145.27441 219.318249 
L 144.560365 222.035084 
L 144.790508 224.751919 
L 145.847775 226.16387 
" style="fill:none;stroke:#95c1de;stroke-width:1.5;"/>
   </g>
   <g id="LineCollection_11"/>
   <g id="patch_3">
    <path d="M 25.601562 355.16 
L 25.601562 86.193333 
" style="fill:none;stroke:#ffffff;stroke-linecap:square;stroke-linejoin:miter;stroke-width:0.8;"/>
   </g>
   <g id="patch_4">
    <path d="M 25.601563 355.16 
L 290.143229 355.16 
" style="fill:none;stroke:#ffffff;stroke-linecap:square;stroke-linejoin:miter;stroke-width:0.8;"/>
   </g>
  </g>
  <g id="axes_2">
   <g id="patch_5">
    <path d="M 25.601562 86.193333 
L 290.143229 86.193333 
L 290.143229 32.4 
L 25.601562 32.4 
z
" style="fill:#e6e6e6;"/>
   </g>
   <g id="matplotlib.axis_3">
    <g id="xtick_7">
     <g id="line2d_16">
      <path clip-path="url(#pdce4f6840f)" d="M 32.30912 86.193333 
L 32.30912 32.4 
" style="fill:none;stroke:#cccccc;stroke-linecap:round;stroke-width:0.8;"/>
     </g>
    </g>
    <g id="xtick_8">
     <g id="line2d_17">
      <path clip-path="url(#pdce4f6840f)" d="M 80.534388 86.193333 
L 80.534388 32.4 
" style="fill:none;stroke:#cccccc;stroke-linecap:round;stroke-width:0.8;"/>
     </g>
    </g>
    <g id="xtick_9">
     <g id="line2d_18">
      <path clip-path="url(#pdce4f6840f)" d="M 128.759656 86.193333 
L 128.759656 32.4 
" style="fill:none;stroke:#cccccc;stroke-linecap:round;stroke-width:0.8;"/>
     </g>
    </g>
    <g id="xtick_10">
     <g id="line2d_19">
      <path clip-path="url(#pdce4f6840f)" d="M 176.984924 86.193333 
L 176.984924 32.4 
" style="fill:none;stroke:#cccccc;stroke-linecap:round;stroke-width:0.8;"/>
     </g>
    </g>
    <g id="xtick_11">
     <g id="line2d_20">
      <path clip-path="url(#pdce4f6840f)" d="M 225.210192 86.193333 
L 225.210192 32.4 
" style="fill:none;stroke:#cccccc;stroke-linecap:round;stroke-width:0.8;"/>
     </g>
    </g>
    <g id="xtick_12">
     <g id="line2d_21">
      <path clip-path="url(#pdce4f6840f)" d="M 273.43546 86.193333 
L 273.43546 32.4 
" style="fill:none;stroke:#cccccc;stroke-linecap:round;stroke-width:0.8;"/>
     </g>
    </g>
   </g>
   <g id="matplotlib.axis_4">
    <g id="ytick_10"/>
    <g id="ytick_11"/>
   </g>
   <g id="PolyCollection_1">
    <defs>
     <path d="M 25.601563 -292.31723 
L 25.601563 -292.311979 
L 27.684568 -292.311979 
L 29.767573 -292.311979 
L 31.850578 -292.311979 
L 33.933583 -292.311979 
L 36.016589 -292.311979 
L 38.099594 -292.311979 
L 40.182599 -292.311979 
L 42.265604 -292.311979 
L 44.34861 -292.311979 
L 46.431615 -292.311979 
L 48.51462 -292.311979 
L 50.597625 -292.311979 
L 52.680631 -292.311979 
L 54.763636 -292.311979 
L 56.846641 -292.311979 
L 58.929646 -292.311979 
L 61.012652 -292.311979 
L 63.095657 -292.311979 
L 65.178662 -292.311979 
L 67.261667 -292.311979 
L 69.344673 -292.311979 
L 71.427678 -292.311979 
L 73.510683 -292.311979 
L 75.593688 -292.311979 
L 77.676694 -292.311979 
L 79.759699 -292.311979 
L 81.842704 -292.311979 
L 83.925709 -292.311979 
L 86.008715 -292.311979 
L 88.09172 -292.311979 
L 90.174725 -292.311979 
L 92.25773 -292.311979 
L 94.340736 -292.311979 
L 96.423741 -292.311979 
L 98.506746 -292.311979 
L 100.589751 -292.311979 
L 102.672757 -292.311979 
L 104.755762 -292.311979 
L 106.838767 -292.311979 
L 108.921772 -292.311979 
L 111.004778 -292.311979 
L 113.087783 -292.311979 
L 115.170788 -292.311979 
L 117.253793 -292.311979 
L 119.336799 -292.311979 
L 121.419804 -292.311979 
L 123.502809 -292.311979 
L 125.585814 -292.311979 
L 127.66882 -292.311979 
L 129.751825 -292.311979 
L 131.83483 -292.311979 
L 133.917835 -292.311979 
L 136.000841 -292.311979 
L 138.083846 -292.311979 
L 140.166851 -292.311979 
L 142.249856 -292.311979 
L 144.332862 -292.311979 
L 146.415867 -292.311979 
L 148.498872 -292.311979 
L 150.581877 -292.311979 
L 152.664883 -292.311979 
L 154.747888 -292.311979 
L 156.830893 -292.311979 
L 158.913898 -292.311979 
L 160.996904 -292.311979 
L 163.079909 -292.311979 
L 165.162914 -292.311979 
L 167.245919 -292.311979 
L 169.328925 -292.311979 
L 171.41193 -292.311979 
L 173.494935 -292.311979 
L 175.57794 -292.311979 
L 177.660946 -292.311979 
L 179.743951 -292.311979 
L 181.826956 -292.311979 
L 183.909961 -292.311979 
L 185.992967 -292.311979 
L 188.075972 -292.311979 
L 190.158977 -292.311979 
L 192.241982 -292.311979 
L 194.324988 -292.311979 
L 196.407993 -292.311979 
L 198.490998 -292.311979 
L 200.574003 -292.311979 
L 202.657009 -292.311979 
L 204.740014 -292.311979 
L 206.823019 -292.311979 
L 208.906024 -292.311979 
L 210.98903 -292.311979 
L 213.072035 -292.311979 
L 215.15504 -292.311979 
L 217.238045 -292.311979 
L 219.321051 -292.311979 
L 221.404056 -292.311979 
L 223.487061 -292.311979 
L 225.570066 -292.311979 
L 227.653072 -292.311979 
L 229.736077 -292.311979 
L 231.819082 -292.311979 
L 233.902087 -292.311979 
L 235.985093 -292.311979 
L 238.068098 -292.311979 
L 240.151103 -292.311979 
L 242.234108 -292.311979 
L 244.317114 -292.311979 
L 246.400119 -292.311979 
L 248.483124 -292.311979 
L 250.566129 -292.311979 
L 252.649135 -292.311979 
L 254.73214 -292.311979 
L 256.815145 -292.311979 
L 258.89815 -292.311979 
L 260.981156 -292.311979 
L 263.064161 -292.311979 
L 265.147166 -292.311979 
L 267.230171 -292.311979 
L 269.313177 -292.311979 
L 271.396182 -292.311979 
L 273.479187 -292.311979 
L 275.562192 -292.311979 
L 277.645198 -292.311979 
L 279.728203 -292.311979 
L 281.811208 -292.311979 
L 283.894213 -292.311979 
L 285.977219 -292.311979 
L 288.060224 -292.311979 
L 290.143229 -292.311979 
L 290.143229 -292.316934 
L 290.143229 -292.316934 
L 288.060224 -292.318743 
L 285.977219 -292.323007 
L 283.894213 -292.330554 
L 281.811208 -292.342644 
L 279.728203 -292.360894 
L 277.645198 -292.387161 
L 275.562192 -292.423355 
L 273.479187 -292.471232 
L 271.396182 -292.532197 
L 269.313177 -292.607189 
L 267.230171 -292.696703 
L 265.147166 -292.800976 
L 263.064161 -292.920279 
L 260.981156 -293.055225 
L 258.89815 -293.206931 
L 256.815145 -293.37692 
L 254.73214 -293.566695 
L 252.649135 -293.777063 
L 250.566129 -294.007412 
L 248.483124 -294.255256 
L 246.400119 -294.516328 
L 244.317114 -294.785418 
L 242.234108 -295.05791 
L 240.151103 -295.331712 
L 238.068098 -295.609088 
L 235.985093 -295.897821 
L 233.902087 -296.211277 
L 231.819082 -296.567249 
L 229.736077 -296.985777 
L 227.653072 -297.486506 
L 225.570066 -298.086201 
L 223.487061 -298.79702 
L 221.404056 -299.625815 
L 219.321051 -300.574408 
L 217.238045 -301.640456 
L 215.15504 -302.818369 
L 213.072035 -304.099843 
L 210.98903 -305.473828 
L 208.906024 -306.926139 
L 206.823019 -308.439212 
L 204.740014 -309.992562 
L 202.657009 -311.564264 
L 200.574003 -313.133354 
L 198.490998 -314.682553 
L 196.407993 -316.200508 
L 194.324988 -317.682811 
L 192.241982 -319.131528 
L 190.158977 -320.553516 
L 188.075972 -321.958255 
L 185.992967 -323.355985 
L 183.909961 -324.756666 
L 181.826956 -326.169698 
L 179.743951 -327.603897 
L 177.660946 -329.066961 
L 175.57794 -330.563917 
L 173.494935 -332.094548 
L 171.41193 -333.650427 
L 169.328925 -335.212559 
L 167.245919 -336.750685 
L 165.162914 -338.224873 
L 163.079909 -339.58941 
L 160.996904 -340.79833 
L 158.913898 -341.811461 
L 156.830893 -342.599717 
L 154.747888 -343.148493 
L 152.664883 -343.458475 
L 150.581877 -343.543725 
L 148.498872 -343.427475 
L 146.415867 -343.136622 
L 144.332862 -342.696179 
L 142.249856 -342.124956 
L 140.166851 -341.433472 
L 138.083846 -340.624475 
L 136.000841 -339.695751 
L 133.917835 -338.644235 
L 131.83483 -337.470023 
L 129.751825 -336.178963 
L 127.66882 -334.783004 
L 125.585814 -333.29831 
L 123.502809 -331.742 
L 121.419804 -330.128813 
L 119.336799 -328.468975 
L 117.253793 -326.767922 
L 115.170788 -325.027739 
L 113.087783 -323.249516 
L 111.004778 -321.435632 
L 108.921772 -319.591282 
L 106.838767 -317.725088 
L 104.755762 -315.849155 
L 102.672757 -313.97898 
L 100.589751 -312.133471 
L 98.506746 -310.334856 
L 96.423741 -308.608078 
L 94.340736 -306.979237 
L 92.25773 -305.473048 
L 90.174725 -304.109701 
L 88.09172 -302.901836 
L 86.008715 -301.85241 
L 83.925709 -300.954007 
L 81.842704 -300.189773 
L 79.759699 -299.535758 
L 77.676694 -298.964209 
L 75.593688 -298.447182 
L 73.510683 -297.959886 
L 71.427678 -297.483245 
L 69.344673 -297.00535 
L 67.261667 -296.521697 
L 65.178662 -296.034323 
L 63.095657 -295.550141 
L 61.012652 -295.07889 
L 58.929646 -294.631122 
L 56.846641 -294.216516 
L 54.763636 -293.842724 
L 52.680631 -293.514748 
L 50.597625 -293.234791 
L 48.51462 -293.002446 
L 46.431615 -292.815111 
L 44.34861 -292.668523 
L 42.265604 -292.557343 
L 40.182599 -292.475717 
L 38.099594 -292.417792 
L 36.016589 -292.378121 
L 33.933583 -292.351949 
L 31.850578 -292.335372 
L 29.767573 -292.325375 
L 27.684568 -292.319796 
L 25.601563 -292.31723 
z
" id="m0a93167757" style="stroke:#ffffff;stroke-opacity:0.25;"/>
    </defs>
    <g clip-path="url(#pdce4f6840f)">
     <use style="fill:#4c72b0;fill-opacity:0.25;stroke:#ffffff;stroke-opacity:0.25;" x="0" xlink:href="#m0a93167757" y="378.505313"/>
    </g>
   </g>
   <g id="line2d_22">
    <path clip-path="url(#pdce4f6840f)" d="M 25.601563 86.188083 
L 38.099594 86.08752 
L 44.34861 85.836789 
L 48.51462 85.502867 
L 52.680631 84.990565 
L 56.846641 84.288797 
L 63.095657 82.955172 
L 79.759699 78.969554 
L 83.925709 77.551305 
L 86.008715 76.652903 
L 88.09172 75.603476 
L 90.174725 74.395611 
L 92.25773 73.032264 
L 96.423741 69.897234 
L 100.589751 66.371842 
L 117.253793 51.737391 
L 123.502809 46.763312 
L 127.66882 43.722309 
L 131.83483 41.035289 
L 136.000841 38.809561 
L 140.166851 37.07184 
L 142.249856 36.380357 
L 144.332862 35.809134 
L 146.415867 35.36869 
L 148.498872 35.077838 
L 150.581877 34.961587 
L 152.664883 35.046837 
L 154.747888 35.35682 
L 156.830893 35.905595 
L 158.913898 36.693851 
L 160.996904 37.706983 
L 163.079909 38.915902 
L 167.245919 41.754627 
L 179.743951 50.901415 
L 200.574003 65.371959 
L 208.906024 71.579174 
L 213.072035 74.40547 
L 217.238045 76.864857 
L 221.404056 78.879498 
L 225.570066 80.419111 
L 229.736077 81.519535 
L 233.902087 82.294035 
L 242.234108 83.447403 
L 252.649135 84.72825 
L 258.89815 85.298382 
L 267.230171 85.80861 
L 275.562192 86.081958 
L 285.977219 86.182306 
L 290.143229 86.188378 
L 290.143229 86.188378 
" style="fill:none;stroke:#4c72b0;stroke-linecap:round;stroke-width:1.5;"/>
   </g>
   <g id="patch_6">
    <path d="M 25.601563 86.193333 
L 290.143229 86.193333 
" style="fill:none;stroke:#ffffff;stroke-linecap:square;stroke-linejoin:miter;stroke-width:0.8;"/>
   </g>
  </g>
  <g id="axes_3">
   <g id="patch_7">
    <path d="M 290.143229 355.16 
L 343.051563 355.16 
L 343.051563 86.193333 
L 290.143229 86.193333 
z
" style="fill:#e6e6e6;"/>
   </g>
   <g id="matplotlib.axis_5">
    <g id="xtick_13"/>
    <g id="xtick_14"/>
   </g>
   <g id="matplotlib.axis_6">
    <g id="ytick_12">
     <g id="line2d_23">
      <path clip-path="url(#p5143b255a5)" d="M 290.143229 345.360616 
L 343.051563 345.360616 
" style="fill:none;stroke:#cccccc;stroke-linecap:round;stroke-width:0.8;"/>
     </g>
    </g>
    <g id="ytick_13">
     <g id="line2d_24">
      <path clip-path="url(#p5143b255a5)" d="M 290.143229 314.514159 
L 343.051563 314.514159 
" style="fill:none;stroke:#cccccc;stroke-linecap:round;stroke-width:0.8;"/>
     </g>
    </g>
    <g id="ytick_14">
     <g id="line2d_25">
      <path clip-path="url(#p5143b255a5)" d="M 290.143229 283.667703 
L 343.051563 283.667703 
" style="fill:none;stroke:#cccccc;stroke-linecap:round;stroke-width:0.8;"/>
     </g>
    </g>
    <g id="ytick_15">
     <g id="line2d_26">
      <path clip-path="url(#p5143b255a5)" d="M 290.143229 252.821246 
L 343.051563 252.821246 
" style="fill:none;stroke:#cccccc;stroke-linecap:round;stroke-width:0.8;"/>
     </g>
    </g>
    <g id="ytick_16">
     <g id="line2d_27">
      <path clip-path="url(#p5143b255a5)" d="M 290.143229 221.97479 
L 343.051563 221.97479 
" style="fill:none;stroke:#cccccc;stroke-linecap:round;stroke-width:0.8;"/>
     </g>
    </g>
    <g id="ytick_17">
     <g id="line2d_28">
      <path clip-path="url(#p5143b255a5)" d="M 290.143229 191.128333 
L 343.051563 191.128333 
" style="fill:none;stroke:#cccccc;stroke-linecap:round;stroke-width:0.8;"/>
     </g>
    </g>
    <g id="ytick_18">
     <g id="line2d_29">
      <path clip-path="url(#p5143b255a5)" d="M 290.143229 160.281877 
L 343.051563 160.281877 
" style="fill:none;stroke:#cccccc;stroke-linecap:round;stroke-width:0.8;"/>
     </g>
    </g>
    <g id="ytick_19">
     <g id="line2d_30">
      <path clip-path="url(#p5143b255a5)" d="M 290.143229 129.435421 
L 343.051563 129.435421 
" style="fill:none;stroke:#cccccc;stroke-linecap:round;stroke-width:0.8;"/>
     </g>
    </g>
    <g id="ytick_20">
     <g id="line2d_31">
      <path clip-path="url(#p5143b255a5)" d="M 290.143229 98.588964 
L 343.051563 98.588964 
" style="fill:none;stroke:#cccccc;stroke-linecap:round;stroke-width:0.8;"/>
     </g>
    </g>
   </g>
   <g id="PolyCollection_2">
    <defs>
     <path d="M 290.147542 -23.345313 
L 290.143229 -23.345313 
L 290.143229 -25.46316 
L 290.143229 -27.581008 
L 290.143229 -29.698856 
L 290.143229 -31.816704 
L 290.143229 -33.934551 
L 290.143229 -36.052399 
L 290.143229 -38.170247 
L 290.143229 -40.288095 
L 290.143229 -42.405942 
L 290.143229 -44.52379 
L 290.143229 -46.641638 
L 290.143229 -48.759486 
L 290.143229 -50.877333 
L 290.143229 -52.995181 
L 290.143229 -55.113029 
L 290.143229 -57.230877 
L 290.143229 -59.348725 
L 290.143229 -61.466572 
L 290.143229 -63.58442 
L 290.143229 -65.702268 
L 290.143229 -67.820116 
L 290.143229 -69.937963 
L 290.143229 -72.055811 
L 290.143229 -74.173659 
L 290.143229 -76.291507 
L 290.143229 -78.409354 
L 290.143229 -80.527202 
L 290.143229 -82.64505 
L 290.143229 -84.762898 
L 290.143229 -86.880746 
L 290.143229 -88.998593 
L 290.143229 -91.116441 
L 290.143229 -93.234289 
L 290.143229 -95.352137 
L 290.143229 -97.469984 
L 290.143229 -99.587832 
L 290.143229 -101.70568 
L 290.143229 -103.823528 
L 290.143229 -105.941375 
L 290.143229 -108.059223 
L 290.143229 -110.177071 
L 290.143229 -112.294919 
L 290.143229 -114.412767 
L 290.143229 -116.530614 
L 290.143229 -118.648462 
L 290.143229 -120.76631 
L 290.143229 -122.884158 
L 290.143229 -125.002005 
L 290.143229 -127.119853 
L 290.143229 -129.237701 
L 290.143229 -131.355549 
L 290.143229 -133.473396 
L 290.143229 -135.591244 
L 290.143229 -137.709092 
L 290.143229 -139.82694 
L 290.143229 -141.944788 
L 290.143229 -144.062635 
L 290.143229 -146.180483 
L 290.143229 -148.298331 
L 290.143229 -150.416179 
L 290.143229 -152.534026 
L 290.143229 -154.651874 
L 290.143229 -156.769722 
L 290.143229 -158.88757 
L 290.143229 -161.005417 
L 290.143229 -163.123265 
L 290.143229 -165.241113 
L 290.143229 -167.358961 
L 290.143229 -169.476809 
L 290.143229 -171.594656 
L 290.143229 -173.712504 
L 290.143229 -175.830352 
L 290.143229 -177.9482 
L 290.143229 -180.066047 
L 290.143229 -182.183895 
L 290.143229 -184.301743 
L 290.143229 -186.419591 
L 290.143229 -188.537438 
L 290.143229 -190.655286 
L 290.143229 -192.773134 
L 290.143229 -194.890982 
L 290.143229 -197.00883 
L 290.143229 -199.126677 
L 290.143229 -201.244525 
L 290.143229 -203.362373 
L 290.143229 -205.480221 
L 290.143229 -207.598068 
L 290.143229 -209.715916 
L 290.143229 -211.833764 
L 290.143229 -213.951612 
L 290.143229 -216.069459 
L 290.143229 -218.187307 
L 290.143229 -220.305155 
L 290.143229 -222.423003 
L 290.143229 -224.540851 
L 290.143229 -226.658698 
L 290.143229 -228.776546 
L 290.143229 -230.894394 
L 290.143229 -233.012242 
L 290.143229 -235.130089 
L 290.143229 -237.247937 
L 290.143229 -239.365785 
L 290.143229 -241.483633 
L 290.143229 -243.60148 
L 290.143229 -245.719328 
L 290.143229 -247.837176 
L 290.143229 -249.955024 
L 290.143229 -252.072872 
L 290.143229 -254.190719 
L 290.143229 -256.308567 
L 290.143229 -258.426415 
L 290.143229 -260.544263 
L 290.143229 -262.66211 
L 290.143229 -264.779958 
L 290.143229 -266.897806 
L 290.143229 -269.015654 
L 290.143229 -271.133501 
L 290.143229 -273.251349 
L 290.143229 -275.369197 
L 290.143229 -277.487045 
L 290.143229 -279.604893 
L 290.143229 -281.72274 
L 290.143229 -283.840588 
L 290.143229 -285.958436 
L 290.143229 -288.076284 
L 290.143229 -290.194131 
L 290.143229 -292.311979 
L 290.14789 -292.311979 
L 290.14789 -292.311979 
L 290.150755 -290.194131 
L 290.157026 -288.076284 
L 290.168259 -285.958436 
L 290.186531 -283.840588 
L 290.214087 -281.72274 
L 290.252723 -279.604893 
L 290.302971 -277.487045 
L 290.363277 -275.369197 
L 290.429499 -273.251349 
L 290.495067 -271.133501 
L 290.552009 -269.015654 
L 290.592749 -266.897806 
L 290.612278 -264.779958 
L 290.610081 -262.66211 
L 290.591209 -260.544263 
L 290.566161 -258.426415 
L 290.549602 -256.308567 
L 290.558253 -254.190719 
L 290.608467 -252.072872 
L 290.714025 -249.955024 
L 290.884552 -247.837176 
L 291.124847 -245.719328 
L 291.435202 -243.60148 
L 291.812559 -241.483633 
L 292.252079 -239.365785 
L 292.748597 -237.247937 
L 293.297467 -235.130089 
L 293.894647 -233.012242 
L 294.536175 -230.894394 
L 295.217418 -228.776546 
L 295.932486 -226.658698 
L 296.674109 -224.540851 
L 297.43424 -222.423003 
L 298.205678 -220.305155 
L 298.984847 -218.187307 
L 299.775413 -216.069459 
L 300.591662 -213.951612 
L 301.459989 -211.833764 
L 302.41693 -209.715916 
L 303.503136 -207.598068 
L 304.754314 -205.480221 
L 306.191564 -203.362373 
L 307.81414 -201.244525 
L 309.597119 -199.126677 
L 311.495017 -197.00883 
L 313.450693 -194.890982 
L 315.407457 -192.773134 
L 317.321347 -190.655286 
L 319.170291 -188.537438 
L 320.957266 -186.419591 
L 322.70589 -184.301743 
L 324.449051 -182.183895 
L 326.213691 -180.066047 
L 328.006717 -177.9482 
L 329.807163 -175.830352 
L 331.5678 -173.712504 
L 333.225992 -171.594656 
L 334.720194 -169.476809 
L 336.006485 -167.358961 
L 337.069573 -165.241113 
L 337.924734 -163.123265 
L 338.610127 -161.005417 
L 339.17199 -158.88757 
L 339.647332 -156.769722 
L 340.049393 -154.651874 
L 340.360188 -152.534026 
L 340.532118 -150.416179 
L 340.497866 -148.298331 
L 340.185546 -146.180483 
L 339.535118 -144.062635 
L 338.51253 -141.944788 
L 337.119203 -139.82694 
L 335.395493 -137.709092 
L 333.417294 -135.591244 
L 331.285302 -133.473396 
L 329.1075 -131.355549 
L 326.977586 -129.237701 
L 324.954628 -127.119853 
L 323.050607 -125.002005 
L 321.231245 -122.884158 
L 319.431318 -120.76631 
L 317.580088 -118.648462 
L 315.62811 -116.530614 
L 313.565791 -114.412767 
L 311.427304 -112.294919 
L 309.279433 -110.177071 
L 307.200815 -108.059223 
L 305.260212 -105.941375 
L 303.501624 -103.823528 
L 301.940084 -101.70568 
L 300.56707 -99.587832 
L 299.361042 -97.469984 
L 298.297818 -95.352137 
L 297.357169 -93.234289 
L 296.52461 -91.116441 
L 295.78964 -88.998593 
L 295.1427 -86.880746 
L 294.572842 -84.762898 
L 294.06717 -82.64505 
L 293.61198 -80.527202 
L 293.19478 -78.409354 
L 292.806182 -76.291507 
L 292.440934 -74.173659 
L 292.097903 -72.055811 
L 291.779242 -69.937963 
L 291.489157 -67.820116 
L 291.232613 -65.702268 
L 291.014069 -63.58442 
L 290.836309 -61.466572 
L 290.69943 -59.348725 
L 290.600228 -57.230877 
L 290.532266 -55.113029 
L 290.486772 -52.995181 
L 290.454218 -50.877333 
L 290.426156 -48.759486 
L 290.396708 -46.641638 
L 290.363263 -44.52379 
L 290.326226 -42.405942 
L 290.288005 -40.288095 
L 290.251713 -38.170247 
L 290.220025 -36.052399 
L 290.194516 -33.934551 
L 290.175532 -31.816704 
L 290.162457 -29.698856 
L 290.154172 -27.581008 
L 290.1495 -25.46316 
L 290.147542 -23.345313 
z
" id="mc4cc93f46f" style="stroke:#ffffff;stroke-opacity:0.25;"/>
    </defs>
    <g clip-path="url(#p5143b255a5)">
     <use style="fill:#4c72b0;fill-opacity:0.25;stroke:#ffffff;stroke-opacity:0.25;" x="0" xlink:href="#mc4cc93f46f" y="378.505313"/>
    </g>
   </g>
   <g id="line2d_32">
    <path clip-path="url(#p5143b255a5)" d="M 290.147542 355.16 
L 290.251713 340.335066 
L 290.69943 319.156588 
L 291.014069 314.920892 
L 291.779242 308.567349 
L 292.806182 302.213806 
L 294.06717 295.860262 
L 295.1427 291.624567 
L 296.52461 287.388871 
L 298.297818 283.153176 
L 299.361042 281.035328 
L 300.56707 278.91748 
L 301.940084 276.799633 
L 303.501624 274.681785 
L 305.260212 272.563937 
L 309.279433 268.328241 
L 315.62811 261.974698 
L 319.431318 257.739003 
L 324.954628 251.385459 
L 329.1075 247.149764 
L 333.417294 242.914068 
L 335.395493 240.79622 
L 337.119203 238.678373 
L 338.51253 236.560525 
L 339.535118 234.442677 
L 340.185546 232.324829 
L 340.497866 230.206982 
L 340.532118 228.089134 
L 340.360188 225.971286 
L 339.647332 221.735591 
L 338.610127 217.499895 
L 337.924734 215.382047 
L 337.069573 213.264199 
L 336.006485 211.146352 
L 334.720194 209.028504 
L 333.225992 206.910656 
L 329.807163 202.674961 
L 322.70589 194.20357 
L 317.321347 187.850026 
L 307.81414 177.260787 
L 306.191564 175.14294 
L 304.754314 173.025092 
L 303.503136 170.907244 
L 302.41693 168.789396 
L 300.591662 164.553701 
L 297.43424 156.08231 
L 295.217418 149.728766 
L 293.894647 145.493071 
L 292.748597 141.257375 
L 291.812559 137.02168 
L 291.124847 132.785984 
L 290.714025 128.550289 
L 290.558253 124.314593 
L 290.363277 103.136115 
L 290.168259 92.546877 
L 290.14789 86.193333 
L 290.14789 86.193333 
" style="fill:none;stroke:#4c72b0;stroke-linecap:round;stroke-width:1.5;"/>
   </g>
   <g id="patch_8">
    <path d="M 290.143229 355.16 
L 290.143229 86.193333 
" style="fill:none;stroke:#ffffff;stroke-linecap:square;stroke-linejoin:miter;stroke-width:0.8;"/>
   </g>
  </g>
  <g id="text_16">
   <!-- Multinormal Samples (KDE Plot) -->
   <defs>
    <path d="M 7.421875 0 
L 7.421875 71.578125 
L 21.6875 71.578125 
L 38.625 20.90625 
Q 40.96875 13.8125 42.046875 10.296875 
Q 43.265625 14.203125 45.84375 21.78125 
L 62.984375 71.578125 
L 75.734375 71.578125 
L 75.734375 0 
L 66.609375 0 
L 66.609375 59.90625 
L 45.796875 0 
L 37.25 0 
L 16.546875 60.9375 
L 16.546875 0 
z
" id="ArialMT-77"/>
    <path d="M 40.578125 0 
L 40.578125 7.625 
Q 34.515625 -1.171875 24.125 -1.171875 
Q 19.53125 -1.171875 15.546875 0.578125 
Q 11.578125 2.34375 9.640625 5 
Q 7.71875 7.671875 6.9375 11.53125 
Q 6.390625 14.109375 6.390625 19.734375 
L 6.390625 51.859375 
L 15.1875 51.859375 
L 15.1875 23.09375 
Q 15.1875 16.21875 15.71875 13.8125 
Q 16.546875 10.359375 19.234375 8.375 
Q 21.921875 6.390625 25.875 6.390625 
Q 29.828125 6.390625 33.296875 8.421875 
Q 36.765625 10.453125 38.203125 13.9375 
Q 39.65625 17.4375 39.65625 24.078125 
L 39.65625 51.859375 
L 48.4375 51.859375 
L 48.4375 0 
z
" id="ArialMT-117"/>
    <path d="M 6.390625 0 
L 6.390625 71.578125 
L 15.1875 71.578125 
L 15.1875 0 
z
" id="ArialMT-108"/>
    <path d="M 25.78125 7.859375 
L 27.046875 0.09375 
Q 23.34375 -0.6875 20.40625 -0.6875 
Q 15.625 -0.6875 12.984375 0.828125 
Q 10.359375 2.34375 9.28125 4.8125 
Q 8.203125 7.28125 8.203125 15.1875 
L 8.203125 45.015625 
L 1.765625 45.015625 
L 1.765625 51.859375 
L 8.203125 51.859375 
L 8.203125 64.703125 
L 16.9375 69.96875 
L 16.9375 51.859375 
L 25.78125 51.859375 
L 25.78125 45.015625 
L 16.9375 45.015625 
L 16.9375 14.703125 
Q 16.9375 10.9375 17.40625 9.859375 
Q 17.875 8.796875 18.921875 8.15625 
Q 19.96875 7.515625 21.921875 7.515625 
Q 23.390625 7.515625 25.78125 7.859375 
z
" id="ArialMT-116"/>
    <path d="M 6.640625 61.46875 
L 6.640625 71.578125 
L 15.4375 71.578125 
L 15.4375 61.46875 
z
M 6.640625 0 
L 6.640625 51.859375 
L 15.4375 51.859375 
L 15.4375 0 
z
" id="ArialMT-105"/>
    <path d="M 6.59375 0 
L 6.59375 51.859375 
L 14.5 51.859375 
L 14.5 44.484375 
Q 20.21875 53.03125 31 53.03125 
Q 35.6875 53.03125 39.625 51.34375 
Q 43.5625 49.65625 45.515625 46.921875 
Q 47.46875 44.1875 48.25 40.4375 
Q 48.734375 37.984375 48.734375 31.890625 
L 48.734375 0 
L 39.9375 0 
L 39.9375 31.546875 
Q 39.9375 36.921875 38.90625 39.578125 
Q 37.890625 42.234375 35.28125 43.8125 
Q 32.671875 45.40625 29.15625 45.40625 
Q 23.53125 45.40625 19.453125 41.84375 
Q 15.375 38.28125 15.375 28.328125 
L 15.375 0 
z
" id="ArialMT-110"/>
    <path d="M 3.328125 25.921875 
Q 3.328125 40.328125 11.328125 47.265625 
Q 18.015625 53.03125 27.640625 53.03125 
Q 38.328125 53.03125 45.109375 46.015625 
Q 51.90625 39.015625 51.90625 26.65625 
Q 51.90625 16.65625 48.90625 10.90625 
Q 45.90625 5.171875 40.15625 2 
Q 34.421875 -1.171875 27.640625 -1.171875 
Q 16.75 -1.171875 10.03125 5.8125 
Q 3.328125 12.796875 3.328125 25.921875 
z
M 12.359375 25.921875 
Q 12.359375 15.96875 16.703125 11.015625 
Q 21.046875 6.0625 27.640625 6.0625 
Q 34.1875 6.0625 38.53125 11.03125 
Q 42.875 16.015625 42.875 26.21875 
Q 42.875 35.84375 38.5 40.796875 
Q 34.125 45.75 27.640625 45.75 
Q 21.046875 45.75 16.703125 40.8125 
Q 12.359375 35.890625 12.359375 25.921875 
z
" id="ArialMT-111"/>
    <path d="M 6.5 0 
L 6.5 51.859375 
L 14.40625 51.859375 
L 14.40625 44 
Q 17.4375 49.515625 20 51.265625 
Q 22.5625 53.03125 25.640625 53.03125 
Q 30.078125 53.03125 34.671875 50.203125 
L 31.640625 42.046875 
Q 28.421875 43.953125 25.203125 43.953125 
Q 22.3125 43.953125 20.015625 42.21875 
Q 17.71875 40.484375 16.75 37.40625 
Q 15.28125 32.71875 15.28125 27.15625 
L 15.28125 0 
z
" id="ArialMT-114"/>
    <path d="M 6.59375 0 
L 6.59375 51.859375 
L 14.453125 51.859375 
L 14.453125 44.578125 
Q 16.890625 48.390625 20.9375 50.703125 
Q 25 53.03125 30.171875 53.03125 
Q 35.9375 53.03125 39.625 50.640625 
Q 43.3125 48.25 44.828125 43.953125 
Q 50.984375 53.03125 60.84375 53.03125 
Q 68.5625 53.03125 72.703125 48.75 
Q 76.859375 44.484375 76.859375 35.59375 
L 76.859375 0 
L 68.109375 0 
L 68.109375 32.671875 
Q 68.109375 37.9375 67.25 40.25 
Q 66.40625 42.578125 64.15625 43.984375 
Q 61.921875 45.40625 58.890625 45.40625 
Q 53.421875 45.40625 49.796875 41.765625 
Q 46.1875 38.140625 46.1875 30.125 
L 46.1875 0 
L 37.40625 0 
L 37.40625 33.6875 
Q 37.40625 39.546875 35.25 42.46875 
Q 33.109375 45.40625 28.21875 45.40625 
Q 24.515625 45.40625 21.359375 43.453125 
Q 18.21875 41.5 16.796875 37.734375 
Q 15.375 33.984375 15.375 26.90625 
L 15.375 0 
z
" id="ArialMT-109"/>
    <path d="M 40.4375 6.390625 
Q 35.546875 2.25 31.03125 0.53125 
Q 26.515625 -1.171875 21.34375 -1.171875 
Q 12.796875 -1.171875 8.203125 3 
Q 3.609375 7.171875 3.609375 13.671875 
Q 3.609375 17.484375 5.34375 20.625 
Q 7.078125 23.78125 9.890625 25.6875 
Q 12.703125 27.59375 16.21875 28.5625 
Q 18.796875 29.25 24.03125 29.890625 
Q 34.671875 31.15625 39.703125 32.90625 
Q 39.75 34.71875 39.75 35.203125 
Q 39.75 40.578125 37.25 42.78125 
Q 33.890625 45.75 27.25 45.75 
Q 21.046875 45.75 18.09375 43.578125 
Q 15.140625 41.40625 13.71875 35.890625 
L 5.125 37.0625 
Q 6.296875 42.578125 8.984375 45.96875 
Q 11.671875 49.359375 16.75 51.1875 
Q 21.828125 53.03125 28.515625 53.03125 
Q 35.15625 53.03125 39.296875 51.46875 
Q 43.453125 49.90625 45.40625 47.53125 
Q 47.359375 45.171875 48.140625 41.546875 
Q 48.578125 39.3125 48.578125 33.453125 
L 48.578125 21.734375 
Q 48.578125 9.46875 49.140625 6.21875 
Q 49.703125 2.984375 51.375 0 
L 42.1875 0 
Q 40.828125 2.734375 40.4375 6.390625 
z
M 39.703125 26.03125 
Q 34.90625 24.078125 25.34375 22.703125 
Q 19.921875 21.921875 17.671875 20.9375 
Q 15.4375 19.96875 14.203125 18.09375 
Q 12.984375 16.21875 12.984375 13.921875 
Q 12.984375 10.40625 15.640625 8.0625 
Q 18.3125 5.71875 23.4375 5.71875 
Q 28.515625 5.71875 32.46875 7.9375 
Q 36.421875 10.15625 38.28125 14.015625 
Q 39.703125 17 39.703125 22.796875 
z
" id="ArialMT-97"/>
    <path id="ArialMT-32"/>
    <path d="M 4.5 23 
L 13.421875 23.78125 
Q 14.0625 18.40625 16.375 14.96875 
Q 18.703125 11.53125 23.578125 9.40625 
Q 28.46875 7.28125 34.578125 7.28125 
Q 39.984375 7.28125 44.140625 8.890625 
Q 48.296875 10.5 50.3125 13.296875 
Q 52.34375 16.109375 52.34375 19.4375 
Q 52.34375 22.796875 50.390625 25.3125 
Q 48.4375 27.828125 43.953125 29.546875 
Q 41.0625 30.671875 31.203125 33.03125 
Q 21.34375 35.40625 17.390625 37.5 
Q 12.25 40.1875 9.734375 44.15625 
Q 7.234375 48.140625 7.234375 53.078125 
Q 7.234375 58.5 10.296875 63.203125 
Q 13.375 67.921875 19.28125 70.359375 
Q 25.203125 72.796875 32.421875 72.796875 
Q 40.375 72.796875 46.453125 70.234375 
Q 52.546875 67.671875 55.8125 62.6875 
Q 59.078125 57.71875 59.328125 51.421875 
L 50.25 50.734375 
Q 49.515625 57.515625 45.28125 60.984375 
Q 41.0625 64.453125 32.8125 64.453125 
Q 24.21875 64.453125 20.28125 61.296875 
Q 16.359375 58.15625 16.359375 53.71875 
Q 16.359375 49.859375 19.140625 47.359375 
Q 21.875 44.875 33.421875 42.265625 
Q 44.96875 39.65625 49.265625 37.703125 
Q 55.515625 34.8125 58.484375 30.390625 
Q 61.46875 25.984375 61.46875 20.21875 
Q 61.46875 14.5 58.203125 9.4375 
Q 54.9375 4.390625 48.796875 1.578125 
Q 42.671875 -1.21875 35.015625 -1.21875 
Q 25.296875 -1.21875 18.71875 1.609375 
Q 12.15625 4.4375 8.421875 10.125 
Q 4.6875 15.828125 4.5 23 
z
" id="ArialMT-83"/>
    <path d="M 6.59375 -19.875 
L 6.59375 51.859375 
L 14.59375 51.859375 
L 14.59375 45.125 
Q 17.4375 49.078125 21 51.046875 
Q 24.5625 53.03125 29.640625 53.03125 
Q 36.28125 53.03125 41.359375 49.609375 
Q 46.4375 46.1875 49.015625 39.953125 
Q 51.609375 33.734375 51.609375 26.3125 
Q 51.609375 18.359375 48.75 11.984375 
Q 45.90625 5.609375 40.453125 2.21875 
Q 35.015625 -1.171875 29 -1.171875 
Q 24.609375 -1.171875 21.109375 0.6875 
Q 17.625 2.546875 15.375 5.375 
L 15.375 -19.875 
z
M 14.546875 25.640625 
Q 14.546875 15.625 18.59375 10.84375 
Q 22.65625 6.0625 28.421875 6.0625 
Q 34.28125 6.0625 38.453125 11.015625 
Q 42.625 15.96875 42.625 26.375 
Q 42.625 36.28125 38.546875 41.203125 
Q 34.46875 46.140625 28.8125 46.140625 
Q 23.1875 46.140625 18.859375 40.890625 
Q 14.546875 35.640625 14.546875 25.640625 
z
" id="ArialMT-112"/>
    <path d="M 42.09375 16.703125 
L 51.171875 15.578125 
Q 49.03125 7.625 43.21875 3.21875 
Q 37.40625 -1.171875 28.375 -1.171875 
Q 17 -1.171875 10.328125 5.828125 
Q 3.65625 12.84375 3.65625 25.484375 
Q 3.65625 38.578125 10.390625 45.796875 
Q 17.140625 53.03125 27.875 53.03125 
Q 38.28125 53.03125 44.875 45.953125 
Q 51.46875 38.875 51.46875 26.03125 
Q 51.46875 25.25 51.421875 23.6875 
L 12.75 23.6875 
Q 13.234375 15.140625 17.578125 10.59375 
Q 21.921875 6.0625 28.421875 6.0625 
Q 33.25 6.0625 36.671875 8.59375 
Q 40.09375 11.140625 42.09375 16.703125 
z
M 13.234375 30.90625 
L 42.1875 30.90625 
Q 41.609375 37.453125 38.875 40.71875 
Q 34.671875 45.796875 27.984375 45.796875 
Q 21.921875 45.796875 17.796875 41.75 
Q 13.671875 37.703125 13.234375 30.90625 
z
" id="ArialMT-101"/>
    <path d="M 3.078125 15.484375 
L 11.765625 16.84375 
Q 12.5 11.625 15.84375 8.84375 
Q 19.1875 6.0625 25.203125 6.0625 
Q 31.25 6.0625 34.171875 8.515625 
Q 37.109375 10.984375 37.109375 14.3125 
Q 37.109375 17.28125 34.515625 19 
Q 32.71875 20.171875 25.53125 21.96875 
Q 15.875 24.421875 12.140625 26.203125 
Q 8.40625 27.984375 6.46875 31.125 
Q 4.546875 34.28125 4.546875 38.09375 
Q 4.546875 41.546875 6.125 44.5 
Q 7.71875 47.46875 10.453125 49.421875 
Q 12.5 50.921875 16.03125 51.96875 
Q 19.578125 53.03125 23.640625 53.03125 
Q 29.734375 53.03125 34.34375 51.265625 
Q 38.96875 49.515625 41.15625 46.5 
Q 43.359375 43.5 44.1875 38.484375 
L 35.59375 37.3125 
Q 35.015625 41.3125 32.203125 43.546875 
Q 29.390625 45.796875 24.265625 45.796875 
Q 18.21875 45.796875 15.625 43.796875 
Q 13.03125 41.796875 13.03125 39.109375 
Q 13.03125 37.40625 14.109375 36.03125 
Q 15.1875 34.625 17.484375 33.6875 
Q 18.796875 33.203125 25.25 31.453125 
Q 34.578125 28.953125 38.25 27.359375 
Q 41.9375 25.78125 44.03125 22.75 
Q 46.140625 19.734375 46.140625 15.234375 
Q 46.140625 10.84375 43.578125 6.953125 
Q 41.015625 3.078125 36.171875 0.953125 
Q 31.34375 -1.171875 25.25 -1.171875 
Q 15.140625 -1.171875 9.84375 3.03125 
Q 4.546875 7.234375 3.078125 15.484375 
z
" id="ArialMT-115"/>
    <path d="M 23.390625 -21.046875 
Q 16.109375 -11.859375 11.078125 0.4375 
Q 6.0625 12.75 6.0625 25.921875 
Q 6.0625 37.546875 9.8125 48.1875 
Q 14.203125 60.546875 23.390625 72.796875 
L 29.6875 72.796875 
Q 23.78125 62.640625 21.875 58.296875 
Q 18.890625 51.5625 17.1875 44.234375 
Q 15.09375 35.109375 15.09375 25.875 
Q 15.09375 2.390625 29.6875 -21.046875 
z
" id="ArialMT-40"/>
    <path d="M 7.328125 0 
L 7.328125 71.578125 
L 16.796875 71.578125 
L 16.796875 36.078125 
L 52.34375 71.578125 
L 65.1875 71.578125 
L 35.15625 42.578125 
L 66.5 0 
L 54 0 
L 28.515625 36.234375 
L 16.796875 24.8125 
L 16.796875 0 
z
" id="ArialMT-75"/>
    <path d="M 7.71875 0 
L 7.71875 71.578125 
L 32.375 71.578125 
Q 40.71875 71.578125 45.125 70.5625 
Q 51.265625 69.140625 55.609375 65.4375 
Q 61.28125 60.640625 64.078125 53.1875 
Q 66.890625 45.75 66.890625 36.1875 
Q 66.890625 28.03125 64.984375 21.734375 
Q 63.09375 15.4375 60.109375 11.296875 
Q 57.125 7.171875 53.578125 4.796875 
Q 50.046875 2.4375 45.046875 1.21875 
Q 40.046875 0 33.546875 0 
z
M 17.1875 8.453125 
L 32.46875 8.453125 
Q 39.546875 8.453125 43.578125 9.765625 
Q 47.609375 11.078125 50 13.484375 
Q 53.375 16.84375 55.25 22.53125 
Q 57.125 28.21875 57.125 36.328125 
Q 57.125 47.5625 53.4375 53.59375 
Q 49.75 59.625 44.484375 61.671875 
Q 40.671875 63.140625 32.234375 63.140625 
L 17.1875 63.140625 
z
" id="ArialMT-68"/>
    <path d="M 7.90625 0 
L 7.90625 71.578125 
L 59.671875 71.578125 
L 59.671875 63.140625 
L 17.390625 63.140625 
L 17.390625 41.21875 
L 56.984375 41.21875 
L 56.984375 32.8125 
L 17.390625 32.8125 
L 17.390625 8.453125 
L 61.328125 8.453125 
L 61.328125 0 
z
" id="ArialMT-69"/>
    <path d="M 7.71875 0 
L 7.71875 71.578125 
L 34.71875 71.578125 
Q 41.84375 71.578125 45.609375 70.90625 
Q 50.875 70.015625 54.4375 67.546875 
Q 58.015625 65.09375 60.1875 60.640625 
Q 62.359375 56.203125 62.359375 50.875 
Q 62.359375 41.75 56.546875 35.421875 
Q 50.734375 29.109375 35.546875 29.109375 
L 17.1875 29.109375 
L 17.1875 0 
z
M 17.1875 37.546875 
L 35.6875 37.546875 
Q 44.875 37.546875 48.734375 40.96875 
Q 52.59375 44.390625 52.59375 50.59375 
Q 52.59375 55.078125 50.3125 58.265625 
Q 48.046875 61.46875 44.34375 62.5 
Q 41.9375 63.140625 35.5 63.140625 
L 17.1875 63.140625 
z
" id="ArialMT-80"/>
    <path d="M 12.359375 -21.046875 
L 6.0625 -21.046875 
Q 20.65625 2.390625 20.65625 25.875 
Q 20.65625 35.0625 18.5625 44.09375 
Q 16.890625 51.421875 13.921875 58.15625 
Q 12.015625 62.546875 6.0625 72.796875 
L 12.359375 72.796875 
Q 21.53125 60.546875 25.921875 48.1875 
Q 29.6875 37.546875 29.6875 25.921875 
Q 29.6875 12.75 24.625 0.4375 
Q 19.578125 -11.859375 12.359375 -21.046875 
z
" id="ArialMT-41"/>
   </defs>
   <g style="fill:#262626;" transform="translate(87.830313 15.935625)scale(0.12 -0.12)">
    <use xlink:href="#ArialMT-77"/>
    <use x="83.300781" xlink:href="#ArialMT-117"/>
    <use x="138.916016" xlink:href="#ArialMT-108"/>
    <use x="161.132812" xlink:href="#ArialMT-116"/>
    <use x="188.916016" xlink:href="#ArialMT-105"/>
    <use x="211.132812" xlink:href="#ArialMT-110"/>
    <use x="266.748047" xlink:href="#ArialMT-111"/>
    <use x="322.363281" xlink:href="#ArialMT-114"/>
    <use x="355.664062" xlink:href="#ArialMT-109"/>
    <use x="438.964844" xlink:href="#ArialMT-97"/>
    <use x="494.580078" xlink:href="#ArialMT-108"/>
    <use x="516.796875" xlink:href="#ArialMT-32"/>
    <use x="544.580078" xlink:href="#ArialMT-83"/>
    <use x="611.279297" xlink:href="#ArialMT-97"/>
    <use x="666.894531" xlink:href="#ArialMT-109"/>
    <use x="750.195312" xlink:href="#ArialMT-112"/>
    <use x="805.810547" xlink:href="#ArialMT-108"/>
    <use x="828.027344" xlink:href="#ArialMT-101"/>
    <use x="883.642578" xlink:href="#ArialMT-115"/>
    <use x="933.642578" xlink:href="#ArialMT-32"/>
    <use x="961.425781" xlink:href="#ArialMT-40"/>
    <use x="994.726562" xlink:href="#ArialMT-75"/>
    <use x="1061.425781" xlink:href="#ArialMT-68"/>
    <use x="1133.642578" xlink:href="#ArialMT-69"/>
    <use x="1200.341797" xlink:href="#ArialMT-32"/>
    <use x="1228.125" xlink:href="#ArialMT-80"/>
    <use x="1294.824219" xlink:href="#ArialMT-108"/>
    <use x="1317.041016" xlink:href="#ArialMT-111"/>
    <use x="1372.65625" xlink:href="#ArialMT-116"/>
    <use x="1400.439453" xlink:href="#ArialMT-41"/>
   </g>
  </g>
 </g>
 <defs>
  <clipPath id="p01352437d5">
   <rect height="268.966667" width="264.541667" x="25.601562" y="86.193333"/>
  </clipPath>
  <clipPath id="pdce4f6840f">
   <rect height="53.793333" width="264.541667" x="25.601562" y="32.4"/>
  </clipPath>
  <clipPath id="p5143b255a5">
   <rect height="268.966667" width="52.908333" x="290.143229" y="86.193333"/>
  </clipPath>
 </defs>
</svg>
