<?xml version="1.0" encoding="utf-8" standalone="no"?>
<!DOCTYPE svg PUBLIC "-//W3C//DTD SVG 1.1//EN"
  "http://www.w3.org/Graphics/SVG/1.1/DTD/svg11.dtd">
<!-- Created with matplotlib (https://matplotlib.org/) -->
<svg height="371.448438pt" version="1.1" viewBox="0 0 710.740625 371.448438" width="710.740625pt" xmlns="http://www.w3.org/2000/svg" xmlns:xlink="http://www.w3.org/1999/xlink">
 <defs>
  <style type="text/css">
*{stroke-linecap:butt;stroke-linejoin:round;}
  </style>
 </defs>
 <g id="figure_1">
  <g id="patch_1">
   <path d="M 0 371.448438 
L 710.740625 371.448438 
L 710.740625 0 
L 0 0 
z
" style="fill:none;"/>
  </g>
  <g id="axes_1">
   <g id="patch_2">
    <path d="M 33.940625 348.103125 
L 703.540625 348.103125 
L 703.540625 21.943125 
L 33.940625 21.943125 
z
" style="fill:#e6e6e6;"/>
   </g>
   <g id="matplotlib.axis_1">
    <g id="xtick_1">
     <g id="line2d_1">
      <path clip-path="url(#p78a3d9485b)" d="M 64.376989 348.103125 
L 64.376989 21.943125 
" style="fill:none;stroke:#cccccc;stroke-linecap:round;stroke-width:0.8;"/>
     </g>
     <g id="text_1">
      <!-- 0 -->
      <defs>
       <path d="M 4.15625 35.296875 
Q 4.15625 48 6.765625 55.734375 
Q 9.375 63.484375 14.515625 67.671875 
Q 19.671875 71.875 27.484375 71.875 
Q 33.25 71.875 37.59375 69.546875 
Q 41.9375 67.234375 44.765625 62.859375 
Q 47.609375 58.5 49.21875 52.21875 
Q 50.828125 45.953125 50.828125 35.296875 
Q 50.828125 22.703125 48.234375 14.96875 
Q 45.65625 7.234375 40.5 3 
Q 35.359375 -1.21875 27.484375 -1.21875 
Q 17.140625 -1.21875 11.234375 6.203125 
Q 4.15625 15.140625 4.15625 35.296875 
z
M 13.1875 35.296875 
Q 13.1875 17.671875 17.3125 11.828125 
Q 21.4375 6 27.484375 6 
Q 33.546875 6 37.671875 11.859375 
Q 41.796875 17.71875 41.796875 35.296875 
Q 41.796875 52.984375 37.671875 58.78125 
Q 33.546875 64.59375 27.390625 64.59375 
Q 21.34375 64.59375 17.71875 59.46875 
Q 13.1875 52.9375 13.1875 35.296875 
z
" id="ArialMT-48"/>
      </defs>
      <g style="fill:#262626;" transform="translate(61.59652 362.260938)scale(0.1 -0.1)">
       <use xlink:href="#ArialMT-48"/>
      </g>
     </g>
    </g>
    <g id="xtick_2">
     <g id="line2d_2">
      <path clip-path="url(#p78a3d9485b)" d="M 186.122443 348.103125 
L 186.122443 21.943125 
" style="fill:none;stroke:#cccccc;stroke-linecap:round;stroke-width:0.8;"/>
     </g>
     <g id="text_2">
      <!-- 2 -->
      <defs>
       <path d="M 50.34375 8.453125 
L 50.34375 0 
L 3.03125 0 
Q 2.9375 3.171875 4.046875 6.109375 
Q 5.859375 10.9375 9.828125 15.625 
Q 13.8125 20.3125 21.34375 26.46875 
Q 33.015625 36.03125 37.109375 41.625 
Q 41.21875 47.21875 41.21875 52.203125 
Q 41.21875 57.421875 37.46875 61 
Q 33.734375 64.59375 27.734375 64.59375 
Q 21.390625 64.59375 17.578125 60.78125 
Q 13.765625 56.984375 13.71875 50.25 
L 4.6875 51.171875 
Q 5.609375 61.28125 11.65625 66.578125 
Q 17.71875 71.875 27.9375 71.875 
Q 38.234375 71.875 44.234375 66.15625 
Q 50.25 60.453125 50.25 52 
Q 50.25 47.703125 48.484375 43.546875 
Q 46.734375 39.40625 42.65625 34.8125 
Q 38.578125 30.21875 29.109375 22.21875 
Q 21.1875 15.578125 18.9375 13.203125 
Q 16.703125 10.84375 15.234375 8.453125 
z
" id="ArialMT-50"/>
      </defs>
      <g style="fill:#262626;" transform="translate(183.341974 362.260938)scale(0.1 -0.1)">
       <use xlink:href="#ArialMT-50"/>
      </g>
     </g>
    </g>
    <g id="xtick_3">
     <g id="line2d_3">
      <path clip-path="url(#p78a3d9485b)" d="M 307.867898 348.103125 
L 307.867898 21.943125 
" style="fill:none;stroke:#cccccc;stroke-linecap:round;stroke-width:0.8;"/>
     </g>
     <g id="text_3">
      <!-- 4 -->
      <defs>
       <path d="M 32.328125 0 
L 32.328125 17.140625 
L 1.265625 17.140625 
L 1.265625 25.203125 
L 33.9375 71.578125 
L 41.109375 71.578125 
L 41.109375 25.203125 
L 50.78125 25.203125 
L 50.78125 17.140625 
L 41.109375 17.140625 
L 41.109375 0 
z
M 32.328125 25.203125 
L 32.328125 57.46875 
L 9.90625 25.203125 
z
" id="ArialMT-52"/>
      </defs>
      <g style="fill:#262626;" transform="translate(305.087429 362.260938)scale(0.1 -0.1)">
       <use xlink:href="#ArialMT-52"/>
      </g>
     </g>
    </g>
    <g id="xtick_4">
     <g id="line2d_4">
      <path clip-path="url(#p78a3d9485b)" d="M 429.613352 348.103125 
L 429.613352 21.943125 
" style="fill:none;stroke:#cccccc;stroke-linecap:round;stroke-width:0.8;"/>
     </g>
     <g id="text_4">
      <!-- 6 -->
      <defs>
       <path d="M 49.75 54.046875 
L 41.015625 53.375 
Q 39.84375 58.546875 37.703125 60.890625 
Q 34.125 64.65625 28.90625 64.65625 
Q 24.703125 64.65625 21.53125 62.3125 
Q 17.390625 59.28125 14.984375 53.46875 
Q 12.59375 47.65625 12.5 36.921875 
Q 15.671875 41.75 20.265625 44.09375 
Q 24.859375 46.4375 29.890625 46.4375 
Q 38.671875 46.4375 44.84375 39.96875 
Q 51.03125 33.5 51.03125 23.25 
Q 51.03125 16.5 48.125 10.71875 
Q 45.21875 4.9375 40.140625 1.859375 
Q 35.0625 -1.21875 28.609375 -1.21875 
Q 17.625 -1.21875 10.6875 6.859375 
Q 3.765625 14.9375 3.765625 33.5 
Q 3.765625 54.25 11.421875 63.671875 
Q 18.109375 71.875 29.4375 71.875 
Q 37.890625 71.875 43.28125 67.140625 
Q 48.6875 62.40625 49.75 54.046875 
z
M 13.875 23.1875 
Q 13.875 18.65625 15.796875 14.5 
Q 17.71875 10.359375 21.1875 8.171875 
Q 24.65625 6 28.46875 6 
Q 34.03125 6 38.03125 10.484375 
Q 42.046875 14.984375 42.046875 22.703125 
Q 42.046875 30.125 38.078125 34.390625 
Q 34.125 38.671875 28.125 38.671875 
Q 22.171875 38.671875 18.015625 34.390625 
Q 13.875 30.125 13.875 23.1875 
z
" id="ArialMT-54"/>
      </defs>
      <g style="fill:#262626;" transform="translate(426.832884 362.260938)scale(0.1 -0.1)">
       <use xlink:href="#ArialMT-54"/>
      </g>
     </g>
    </g>
    <g id="xtick_5">
     <g id="line2d_5">
      <path clip-path="url(#p78a3d9485b)" d="M 551.358807 348.103125 
L 551.358807 21.943125 
" style="fill:none;stroke:#cccccc;stroke-linecap:round;stroke-width:0.8;"/>
     </g>
     <g id="text_5">
      <!-- 8 -->
      <defs>
       <path d="M 17.671875 38.8125 
Q 12.203125 40.828125 9.5625 44.53125 
Q 6.9375 48.25 6.9375 53.421875 
Q 6.9375 61.234375 12.546875 66.546875 
Q 18.171875 71.875 27.484375 71.875 
Q 36.859375 71.875 42.578125 66.421875 
Q 48.296875 60.984375 48.296875 53.171875 
Q 48.296875 48.1875 45.671875 44.5 
Q 43.0625 40.828125 37.75 38.8125 
Q 44.34375 36.671875 47.78125 31.875 
Q 51.21875 27.09375 51.21875 20.453125 
Q 51.21875 11.28125 44.71875 5.03125 
Q 38.234375 -1.21875 27.640625 -1.21875 
Q 17.046875 -1.21875 10.546875 5.046875 
Q 4.046875 11.328125 4.046875 20.703125 
Q 4.046875 27.6875 7.59375 32.390625 
Q 11.140625 37.109375 17.671875 38.8125 
z
M 15.921875 53.71875 
Q 15.921875 48.640625 19.1875 45.40625 
Q 22.46875 42.1875 27.6875 42.1875 
Q 32.765625 42.1875 36.015625 45.375 
Q 39.265625 48.578125 39.265625 53.21875 
Q 39.265625 58.0625 35.90625 61.359375 
Q 32.5625 64.65625 27.59375 64.65625 
Q 22.5625 64.65625 19.234375 61.421875 
Q 15.921875 58.203125 15.921875 53.71875 
z
M 13.09375 20.65625 
Q 13.09375 16.890625 14.875 13.375 
Q 16.65625 9.859375 20.171875 7.921875 
Q 23.6875 6 27.734375 6 
Q 34.03125 6 38.125 10.046875 
Q 42.234375 14.109375 42.234375 20.359375 
Q 42.234375 26.703125 38.015625 30.859375 
Q 33.796875 35.015625 27.4375 35.015625 
Q 21.234375 35.015625 17.15625 30.90625 
Q 13.09375 26.8125 13.09375 20.65625 
z
" id="ArialMT-56"/>
      </defs>
      <g style="fill:#262626;" transform="translate(548.578338 362.260938)scale(0.1 -0.1)">
       <use xlink:href="#ArialMT-56"/>
      </g>
     </g>
    </g>
    <g id="xtick_6">
     <g id="line2d_6">
      <path clip-path="url(#p78a3d9485b)" d="M 673.104261 348.103125 
L 673.104261 21.943125 
" style="fill:none;stroke:#cccccc;stroke-linecap:round;stroke-width:0.8;"/>
     </g>
     <g id="text_6">
      <!-- 10 -->
      <defs>
       <path d="M 37.25 0 
L 28.46875 0 
L 28.46875 56 
Q 25.296875 52.984375 20.140625 49.953125 
Q 14.984375 46.921875 10.890625 45.40625 
L 10.890625 53.90625 
Q 18.265625 57.375 23.78125 62.296875 
Q 29.296875 67.234375 31.59375 71.875 
L 37.25 71.875 
z
" id="ArialMT-49"/>
      </defs>
      <g style="fill:#262626;" transform="translate(667.543324 362.260938)scale(0.1 -0.1)">
       <use xlink:href="#ArialMT-49"/>
       <use x="55.615234" xlink:href="#ArialMT-48"/>
      </g>
     </g>
    </g>
   </g>
   <g id="matplotlib.axis_2">
    <g id="ytick_1">
     <g id="line2d_7">
      <path clip-path="url(#p78a3d9485b)" d="M 33.940625 317.695971 
L 703.540625 317.695971 
" style="fill:none;stroke:#cccccc;stroke-linecap:round;stroke-width:0.8;"/>
     </g>
     <g id="text_7">
      <!-- −0.3 -->
      <defs>
       <path d="M 52.828125 31.203125 
L 5.5625 31.203125 
L 5.5625 39.40625 
L 52.828125 39.40625 
z
" id="ArialMT-8722"/>
       <path d="M 9.078125 0 
L 9.078125 10.015625 
L 19.09375 10.015625 
L 19.09375 0 
z
" id="ArialMT-46"/>
       <path d="M 4.203125 18.890625 
L 12.984375 20.0625 
Q 14.5 12.59375 18.140625 9.296875 
Q 21.78125 6 27 6 
Q 33.203125 6 37.46875 10.296875 
Q 41.75 14.59375 41.75 20.953125 
Q 41.75 27 37.796875 30.921875 
Q 33.84375 34.859375 27.734375 34.859375 
Q 25.25 34.859375 21.53125 33.890625 
L 22.515625 41.609375 
Q 23.390625 41.5 23.921875 41.5 
Q 29.546875 41.5 34.03125 44.421875 
Q 38.53125 47.359375 38.53125 53.46875 
Q 38.53125 58.296875 35.25 61.46875 
Q 31.984375 64.65625 26.8125 64.65625 
Q 21.6875 64.65625 18.265625 61.421875 
Q 14.84375 58.203125 13.875 51.765625 
L 5.078125 53.328125 
Q 6.6875 62.15625 12.390625 67.015625 
Q 18.109375 71.875 26.609375 71.875 
Q 32.46875 71.875 37.390625 69.359375 
Q 42.328125 66.84375 44.9375 62.5 
Q 47.5625 58.15625 47.5625 53.265625 
Q 47.5625 48.640625 45.0625 44.828125 
Q 42.578125 41.015625 37.703125 38.765625 
Q 44.046875 37.3125 47.5625 32.6875 
Q 51.078125 28.078125 51.078125 21.140625 
Q 51.078125 11.765625 44.234375 5.25 
Q 37.40625 -1.265625 26.953125 -1.265625 
Q 17.53125 -1.265625 11.296875 4.34375 
Q 5.078125 9.96875 4.203125 18.890625 
z
" id="ArialMT-51"/>
      </defs>
      <g style="fill:#262626;" transform="translate(7.2 321.274877)scale(0.1 -0.1)">
       <use xlink:href="#ArialMT-8722"/>
       <use x="58.398438" xlink:href="#ArialMT-48"/>
       <use x="114.013672" xlink:href="#ArialMT-46"/>
       <use x="141.796875" xlink:href="#ArialMT-51"/>
      </g>
     </g>
    </g>
    <g id="ytick_2">
     <g id="line2d_8">
      <path clip-path="url(#p78a3d9485b)" d="M 33.940625 265.192389 
L 703.540625 265.192389 
" style="fill:none;stroke:#cccccc;stroke-linecap:round;stroke-width:0.8;"/>
     </g>
     <g id="text_8">
      <!-- −0.2 -->
      <g style="fill:#262626;" transform="translate(7.2 268.771295)scale(0.1 -0.1)">
       <use xlink:href="#ArialMT-8722"/>
       <use x="58.398438" xlink:href="#ArialMT-48"/>
       <use x="114.013672" xlink:href="#ArialMT-46"/>
       <use x="141.796875" xlink:href="#ArialMT-50"/>
      </g>
     </g>
    </g>
    <g id="ytick_3">
     <g id="line2d_9">
      <path clip-path="url(#p78a3d9485b)" d="M 33.940625 212.688806 
L 703.540625 212.688806 
" style="fill:none;stroke:#cccccc;stroke-linecap:round;stroke-width:0.8;"/>
     </g>
     <g id="text_9">
      <!-- −0.1 -->
      <g style="fill:#262626;" transform="translate(7.2 216.267713)scale(0.1 -0.1)">
       <use xlink:href="#ArialMT-8722"/>
       <use x="58.398438" xlink:href="#ArialMT-48"/>
       <use x="114.013672" xlink:href="#ArialMT-46"/>
       <use x="141.796875" xlink:href="#ArialMT-49"/>
      </g>
     </g>
    </g>
    <g id="ytick_4">
     <g id="line2d_10">
      <path clip-path="url(#p78a3d9485b)" d="M 33.940625 160.185224 
L 703.540625 160.185224 
" style="fill:none;stroke:#cccccc;stroke-linecap:round;stroke-width:0.8;"/>
     </g>
     <g id="text_10">
      <!-- 0.0 -->
      <g style="fill:#262626;" transform="translate(13.040625 163.764131)scale(0.1 -0.1)">
       <use xlink:href="#ArialMT-48"/>
       <use x="55.615234" xlink:href="#ArialMT-46"/>
       <use x="83.398438" xlink:href="#ArialMT-48"/>
      </g>
     </g>
    </g>
    <g id="ytick_5">
     <g id="line2d_11">
      <path clip-path="url(#p78a3d9485b)" d="M 33.940625 107.681642 
L 703.540625 107.681642 
" style="fill:none;stroke:#cccccc;stroke-linecap:round;stroke-width:0.8;"/>
     </g>
     <g id="text_11">
      <!-- 0.1 -->
      <g style="fill:#262626;" transform="translate(13.040625 111.260548)scale(0.1 -0.1)">
       <use xlink:href="#ArialMT-48"/>
       <use x="55.615234" xlink:href="#ArialMT-46"/>
       <use x="83.398438" xlink:href="#ArialMT-49"/>
      </g>
     </g>
    </g>
    <g id="ytick_6">
     <g id="line2d_12">
      <path clip-path="url(#p78a3d9485b)" d="M 33.940625 55.17806 
L 703.540625 55.17806 
" style="fill:none;stroke:#cccccc;stroke-linecap:round;stroke-width:0.8;"/>
     </g>
     <g id="text_12">
      <!-- 0.2 -->
      <g style="fill:#262626;" transform="translate(13.040625 58.756966)scale(0.1 -0.1)">
       <use xlink:href="#ArialMT-48"/>
       <use x="55.615234" xlink:href="#ArialMT-46"/>
       <use x="83.398438" xlink:href="#ArialMT-50"/>
      </g>
     </g>
    </g>
   </g>
   <g id="PolyCollection_1">
    <defs>
     <path d="M 64.376989 -106.256055 
L 64.376989 -316.270371 
L 70.525749 -316.270371 
L 76.674509 -316.270371 
L 82.82327 -316.270371 
L 88.972029 -316.270371 
L 95.120789 -316.270371 
L 101.269552 -316.270371 
L 107.418311 -316.270371 
L 113.56707 -316.270371 
L 119.71583 -316.270371 
L 125.864589 -316.270371 
L 132.013348 -316.270371 
L 138.162115 -316.270371 
L 144.310874 -316.270371 
L 150.459633 -316.270371 
L 156.608393 -316.270371 
L 162.757152 -316.270371 
L 168.905911 -316.270371 
L 175.054671 -316.270371 
L 181.20343 -316.270371 
L 187.352189 -316.270371 
L 193.500949 -316.270371 
L 199.649708 -316.270371 
L 205.798467 -316.270371 
L 211.947241 -316.270371 
L 218.096 -316.270371 
L 224.24476 -316.270371 
L 230.393519 -316.270371 
L 236.542278 -316.270371 
L 242.691037 -316.270371 
L 248.839797 -316.270371 
L 254.988556 -316.270371 
L 261.137315 -316.270371 
L 267.286075 -316.270371 
L 273.434834 -316.270371 
L 279.583593 -316.270371 
L 285.732353 -316.270371 
L 291.881112 -316.270371 
L 298.029871 -316.270371 
L 304.178631 -316.270371 
L 310.32739 -316.270371 
L 316.476164 -316.270371 
L 322.624908 -316.270371 
L 328.773682 -316.270371 
L 334.922427 -316.270371 
L 341.071201 -316.270371 
L 347.219946 -316.270371 
L 353.368719 -316.270371 
L 359.517493 -316.270371 
L 365.666238 -316.270371 
L 371.815012 -316.270371 
L 377.963757 -316.270371 
L 384.112531 -316.270371 
L 390.261275 -316.270371 
L 396.410049 -316.270371 
L 402.558794 -316.270371 
L 408.707568 -316.270371 
L 414.856313 -316.270371 
L 421.005086 -316.270371 
L 427.153831 -316.270371 
L 433.302605 -316.270371 
L 439.45135 -316.270371 
L 445.600124 -316.270371 
L 451.748868 -316.270371 
L 457.897642 -316.270371 
L 464.046416 -316.270371 
L 470.195161 -316.270371 
L 476.343935 -316.270371 
L 482.492679 -316.270371 
L 488.641453 -316.270371 
L 494.790198 -316.270371 
L 500.938972 -316.270371 
L 507.087717 -316.270371 
L 513.23649 -316.270371 
L 519.385235 -316.270371 
L 525.534009 -316.270371 
L 531.682754 -316.270371 
L 537.831528 -316.270371 
L 543.980272 -316.270371 
L 550.129046 -316.270371 
L 556.277791 -316.270371 
L 562.426565 -316.270371 
L 568.575339 -316.270371 
L 574.724112 -316.270371 
L 580.872828 -316.270371 
L 587.021602 -316.270371 
L 593.170376 -316.270371 
L 599.31915 -316.270371 
L 605.467865 -316.270371 
L 611.616639 -316.270371 
L 617.765413 -316.270371 
L 623.914187 -316.270371 
L 630.062903 -316.270371 
L 636.211677 -316.270371 
L 642.36045 -316.270371 
L 648.509224 -316.270371 
L 654.657998 -316.270379 
L 660.806714 -316.270379 
L 666.955488 -316.270379 
L 673.104261 -316.270379 
L 673.104261 -106.256047 
L 673.104261 -106.256047 
L 666.955488 -106.256047 
L 660.806714 -106.256047 
L 654.657998 -106.256047 
L 648.509224 -106.256055 
L 642.36045 -106.256055 
L 636.211677 -106.256055 
L 630.062903 -106.256055 
L 623.914187 -106.256055 
L 617.765413 -106.256055 
L 611.616639 -106.256055 
L 605.467865 -106.256055 
L 599.31915 -106.256055 
L 593.170376 -106.256055 
L 587.021602 -106.256055 
L 580.872828 -106.256055 
L 574.724112 -106.256055 
L 568.575339 -106.256055 
L 562.426565 -106.256055 
L 556.277791 -106.256055 
L 550.129046 -106.256055 
L 543.980272 -106.256055 
L 537.831528 -106.256055 
L 531.682754 -106.256055 
L 525.534009 -106.256055 
L 519.385235 -106.256055 
L 513.23649 -106.256055 
L 507.087717 -106.256055 
L 500.938972 -106.256055 
L 494.790198 -106.256055 
L 488.641453 -106.256055 
L 482.492679 -106.256055 
L 476.343935 -106.256055 
L 470.195161 -106.256055 
L 464.046416 -106.256055 
L 457.897642 -106.256055 
L 451.748868 -106.256055 
L 445.600124 -106.256055 
L 439.45135 -106.256055 
L 433.302605 -106.256055 
L 427.153831 -106.256055 
L 421.005086 -106.256055 
L 414.856313 -106.256055 
L 408.707568 -106.256055 
L 402.558794 -106.256055 
L 396.410049 -106.256055 
L 390.261275 -106.256055 
L 384.112531 -106.256055 
L 377.963757 -106.256055 
L 371.815012 -106.256055 
L 365.666238 -106.256055 
L 359.517493 -106.256055 
L 353.368719 -106.256055 
L 347.219946 -106.256055 
L 341.071201 -106.256055 
L 334.922427 -106.256055 
L 328.773682 -106.256055 
L 322.624908 -106.256055 
L 316.476164 -106.256055 
L 310.32739 -106.256055 
L 304.178631 -106.256055 
L 298.029871 -106.256055 
L 291.881112 -106.256055 
L 285.732353 -106.256055 
L 279.583593 -106.256055 
L 273.434834 -106.256055 
L 267.286075 -106.256055 
L 261.137315 -106.256055 
L 254.988556 -106.256055 
L 248.839797 -106.256055 
L 242.691037 -106.256055 
L 236.542278 -106.256055 
L 230.393519 -106.256055 
L 224.24476 -106.256055 
L 218.096 -106.256055 
L 211.947241 -106.256055 
L 205.798467 -106.256055 
L 199.649708 -106.256055 
L 193.500949 -106.256055 
L 187.352189 -106.256055 
L 181.20343 -106.256055 
L 175.054671 -106.256055 
L 168.905911 -106.256055 
L 162.757152 -106.256055 
L 156.608393 -106.256055 
L 150.459633 -106.256055 
L 144.310874 -106.256055 
L 138.162115 -106.256055 
L 132.013348 -106.256055 
L 125.864589 -106.256055 
L 119.71583 -106.256055 
L 113.56707 -106.256055 
L 107.418311 -106.256055 
L 101.269552 -106.256055 
L 95.120789 -106.256055 
L 88.972029 -106.256055 
L 82.82327 -106.256055 
L 76.674509 -106.256055 
L 70.525749 -106.256055 
L 64.376989 -106.256055 
z
" id="m52abbf9934" style="stroke:#ccb974;stroke-opacity:0.2;"/>
    </defs>
    <g clip-path="url(#p78a3d9485b)">
     <use style="fill:#ccb974;fill-opacity:0.2;stroke:#ccb974;stroke-opacity:0.2;" x="0" xlink:href="#m52abbf9934" y="371.448438"/>
    </g>
   </g>
   <g id="line2d_13">
    <path clip-path="url(#p78a3d9485b)" d="M 64.376989 264.99676 
L 70.525749 250.961535 
L 76.674509 230.445055 
L 82.82327 208.104958 
L 88.972029 185.101866 
L 95.120789 166.007529 
L 101.269552 156.863966 
L 107.418311 157.695346 
L 113.56707 167.697178 
L 119.71583 186.112254 
L 125.864589 204.761841 
L 132.013348 224.550331 
L 138.162115 237.759035 
L 144.310874 244.278673 
L 150.459633 245.077693 
L 156.608393 241.390058 
L 162.757152 233.993249 
L 168.905911 226.400544 
L 175.054671 218.998212 
L 181.20343 211.127353 
L 187.352189 201.309111 
L 193.500949 187.304406 
L 199.649708 169.019342 
L 205.798467 147.563966 
L 211.947241 122.361519 
L 218.096 101.979735 
L 224.24476 82.082872 
L 230.393519 68.507168 
L 236.542278 62.015508 
L 242.691037 59.732749 
L 248.839797 61.001932 
L 254.988556 66.855417 
L 261.137315 74.838679 
L 267.286075 84.999119 
L 273.434834 96.182611 
L 279.583593 109.190321 
L 285.732353 119.825012 
L 291.881112 129.40439 
L 298.029871 137.245496 
L 304.178631 143.624891 
L 310.32739 150.31311 
L 316.476164 156.716014 
L 322.624908 163.419519 
L 328.773682 170.875724 
L 334.922427 176.459505 
L 341.071201 180.262166 
L 347.219946 181.099411 
L 353.368719 179.680973 
L 359.517493 175.266091 
L 365.666238 167.524715 
L 371.815012 162.214953 
L 377.963757 155.686554 
L 384.112531 151.244877 
L 390.261275 145.108324 
L 396.410049 142.138493 
L 402.558794 139.577622 
L 408.707568 137.772336 
L 414.856313 134.837602 
L 421.005086 131.594189 
L 427.153831 129.153079 
L 433.302605 127.453224 
L 439.45135 128.665715 
L 445.600124 134.358914 
L 451.748868 140.930107 
L 457.897642 152.418905 
L 464.046416 163.774555 
L 470.195161 175.51148 
L 476.343935 183.973368 
L 482.492679 187.44927 
L 488.641453 189.386574 
L 494.790198 192.048628 
L 500.938972 191.058372 
L 507.087717 190.768629 
L 513.23649 190.80921 
L 519.385235 188.299166 
L 525.534009 189.252532 
L 531.682754 189.514198 
L 537.831528 191.648796 
L 543.980272 197.924579 
L 550.129046 204.385923 
L 556.277791 212.943549 
L 562.426565 221.453819 
L 568.575339 228.958586 
L 574.724112 234.426499 
L 580.872828 237.161989 
L 587.021602 239.1353 
L 593.170376 240.070765 
L 599.31915 240.723695 
L 605.467865 242.502283 
L 611.616639 245.609725 
L 617.765413 246.713641 
L 623.914187 248.257042 
L 630.062903 248.102564 
L 636.211677 246.325846 
L 642.36045 242.567415 
L 648.509224 236.752281 
L 654.657998 228.346112 
L 660.806714 213.642975 
L 666.955488 194.720058 
L 673.104261 169.665218 
" style="fill:none;stroke:#4c72b0;stroke-linecap:round;stroke-width:1.5;"/>
   </g>
   <g id="line2d_14">
    <path clip-path="url(#p78a3d9485b)" d="M 64.376989 80.843129 
L 70.525749 75.749413 
L 76.674509 74.619523 
L 82.82327 77.269391 
L 88.972029 82.236951 
L 95.120789 87.734296 
L 101.269552 90.206388 
L 107.418311 91.141188 
L 113.56707 86.639518 
L 119.71583 76.573501 
L 125.864589 67.40071 
L 132.013348 56.543699 
L 138.162115 46.970986 
L 144.310874 39.386073 
L 150.459633 37.601125 
L 156.608393 38.209335 
L 162.757152 45.903567 
L 168.905911 57.910826 
L 175.054671 71.05119 
L 181.20343 88.097532 
L 187.352189 105.291374 
L 193.500949 118.900128 
L 199.649708 131.166549 
L 205.798467 138.871912 
L 211.947241 139.197296 
L 218.096 135.917331 
L 224.24476 128.079851 
L 230.393519 117.034471 
L 236.542278 105.199528 
L 242.691037 95.334285 
L 248.839797 89.212699 
L 254.988556 86.597349 
L 261.137315 87.664306 
L 267.286075 93.921453 
L 273.434834 104.882893 
L 279.583593 118.370675 
L 285.732353 132.086836 
L 291.881112 146.454315 
L 298.029871 158.08504 
L 304.178631 168.006331 
L 310.32739 171.587301 
L 316.476164 177.746765 
L 322.624908 181.306284 
L 328.773682 187.456071 
L 334.922427 193.833713 
L 341.071201 203.474057 
L 347.219946 214.477394 
L 353.368719 230.427037 
L 359.517493 244.311501 
L 365.666238 260.173327 
L 371.815012 272.682887 
L 377.963757 281.330595 
L 384.112531 280.109739 
L 390.261275 269.968998 
L 396.410049 251.841687 
L 402.558794 225.648121 
L 408.707568 196.848625 
L 414.856313 170.008994 
L 421.005086 149.309175 
L 427.153831 138.202625 
L 433.302605 134.755837 
L 439.45135 137.560724 
L 445.600124 144.223663 
L 451.748868 152.963247 
L 457.897642 161.416111 
L 464.046416 171.300443 
L 470.195161 181.359952 
L 476.343935 190.829857 
L 482.492679 200.957708 
L 488.641453 209.726083 
L 494.790198 215.729916 
L 500.938972 217.492998 
L 507.087717 215.378552 
L 513.23649 210.592059 
L 519.385235 201.933758 
L 525.534009 194.233188 
L 531.682754 188.501802 
L 537.831528 184.229784 
L 543.980272 181.118869 
L 550.129046 176.531941 
L 556.277791 171.970284 
L 562.426565 163.484834 
L 568.575339 154.134059 
L 574.724112 143.557967 
L 580.872828 134.155302 
L 587.021602 126.486727 
L 593.170376 123.350502 
L 599.31915 122.46855 
L 605.467865 123.120851 
L 611.616639 125.720092 
L 617.765413 127.720772 
L 623.914187 128.160986 
L 630.062903 127.21014 
L 636.211677 124.507634 
L 642.36045 121.885286 
L 648.509224 121.265931 
L 654.657998 124.704063 
L 660.806714 130.685181 
L 666.955488 141.000315 
L 673.104261 155.962167 
" style="fill:none;stroke:#dd8452;stroke-linecap:round;stroke-width:1.5;"/>
   </g>
   <g id="line2d_15">
    <path clip-path="url(#p78a3d9485b)" d="M 64.376989 116.950558 
L 70.525749 110.628127 
L 76.674509 106.708005 
L 82.82327 108.734782 
L 88.972029 113.04149 
L 95.120789 123.550083 
L 101.269552 136.341941 
L 107.418311 149.456832 
L 113.56707 163.977473 
L 119.71583 176.897583 
L 125.864589 187.37023 
L 132.013348 195.67191 
L 138.162115 200.072537 
L 144.310874 201.083148 
L 150.459633 199.83897 
L 156.608393 197.650861 
L 162.757152 196.119215 
L 168.905911 192.365546 
L 175.054671 188.706725 
L 181.20343 185.578557 
L 187.352189 181.036153 
L 193.500949 176.650802 
L 199.649708 174.43346 
L 205.798467 176.295523 
L 211.947241 181.600105 
L 218.096 191.278183 
L 224.24476 204.16557 
L 230.393519 217.086583 
L 236.542278 226.345677 
L 242.691037 227.16996 
L 248.839797 221.463767 
L 254.988556 206.07189 
L 261.137315 188.521987 
L 267.286075 169.497533 
L 273.434834 154.081638 
L 279.583593 143.335584 
L 285.732353 139.630301 
L 291.881112 139.001302 
L 298.029871 140.863117 
L 304.178631 142.398785 
L 310.32739 141.815317 
L 316.476164 141.413487 
L 322.624908 138.198273 
L 328.773682 136.733018 
L 334.922427 134.014922 
L 341.071201 136.558954 
L 347.219946 143.234562 
L 353.368719 153.459968 
L 359.517493 166.087131 
L 365.666238 180.283139 
L 371.815012 194.576654 
L 377.963757 205.636016 
L 384.112531 214.659978 
L 390.261275 217.72888 
L 396.410049 214.650539 
L 402.558794 208.069294 
L 408.707568 197.316627 
L 414.856313 187.12269 
L 421.005086 180.716579 
L 427.153831 181.660906 
L 433.302605 190.986588 
L 439.45135 206.451908 
L 445.600124 228.486445 
L 451.748868 249.708633 
L 457.897642 265.98976 
L 464.046416 275.868135 
L 470.195161 273.602549 
L 476.343935 261.837166 
L 482.492679 240.885879 
L 488.641453 217.415551 
L 494.790198 194.513564 
L 500.938972 172.757319 
L 507.087717 158.558188 
L 513.23649 147.111881 
L 519.385235 137.769553 
L 525.534009 132.386231 
L 531.682754 124.518861 
L 537.831528 117.215271 
L 543.980272 107.478786 
L 550.129046 96.984041 
L 556.277791 85.312002 
L 562.426565 74.897544 
L 568.575339 65.477799 
L 574.724112 58.252343 
L 580.872828 54.251199 
L 587.021602 54.172274 
L 593.170376 57.890132 
L 599.31915 66.848423 
L 605.467865 76.355417 
L 611.616639 86.363445 
L 617.765413 96.15308 
L 623.914187 104.815876 
L 630.062903 113.080378 
L 636.211677 121.230784 
L 642.36045 129.232499 
L 648.509224 137.602115 
L 654.657998 148.987187 
L 660.806714 156.056352 
L 666.955488 162.467747 
L 673.104261 164.955047 
" style="fill:none;stroke:#55a868;stroke-linecap:round;stroke-width:1.5;"/>
   </g>
   <g id="line2d_16">
    <path clip-path="url(#p78a3d9485b)" d="M 64.376989 112.626665 
L 70.525749 115.980505 
L 76.674509 121.717543 
L 82.82327 127.891663 
L 88.972029 136.471804 
L 95.120789 145.76938 
L 101.269552 157.722452 
L 107.418311 171.018947 
L 113.56707 182.565181 
L 119.71583 193.378393 
L 125.864589 203.060073 
L 132.013348 213.097855 
L 138.162115 219.276202 
L 144.310874 224.126199 
L 150.459633 225.44665 
L 156.608393 223.463893 
L 162.757152 218.022893 
L 168.905911 206.034857 
L 175.054671 194.176213 
L 181.20343 180.29356 
L 187.352189 170.669405 
L 193.500949 169.885891 
L 199.649708 176.259279 
L 205.798467 192.643618 
L 211.947241 215.901121 
L 218.096 243.800898 
L 224.24476 269.134795 
L 230.393519 292.77736 
L 236.542278 308.579524 
L 242.691037 317.900863 
L 248.839797 318.489811 
L 254.988556 312.556188 
L 261.137315 302.894129 
L 267.286075 290.318835 
L 273.434834 276.717071 
L 279.583593 262.244332 
L 285.732353 251.14108 
L 291.881112 238.364061 
L 298.029871 228.035866 
L 304.178631 218.261326 
L 310.32739 210.557799 
L 316.476164 204.452169 
L 322.624908 199.759943 
L 328.773682 196.834605 
L 334.922427 192.791704 
L 341.071201 189.101099 
L 347.219946 187.809074 
L 353.368719 182.03907 
L 359.517493 176.838847 
L 365.666238 173.440021 
L 371.815012 170.034245 
L 377.963757 166.53644 
L 384.112531 165.315841 
L 390.261275 164.874789 
L 396.410049 164.113237 
L 402.558794 165.396391 
L 408.707568 165.027301 
L 414.856313 164.969265 
L 421.005086 165.672832 
L 427.153831 165.684959 
L 433.302605 165.925838 
L 439.45135 164.861244 
L 445.600124 162.694101 
L 451.748868 156.967058 
L 457.897642 148.09448 
L 464.046416 135.297747 
L 470.195161 117.89391 
L 476.343935 100.909191 
L 482.492679 85.741755 
L 488.641453 76.93166 
L 494.790198 76.609365 
L 500.938972 82.960716 
L 507.087717 96.554066 
L 513.23649 111.218934 
L 519.385235 126.87787 
L 525.534009 139.036007 
L 531.682754 146.778226 
L 537.831528 150.03808 
L 543.980272 150.29131 
L 550.129046 150.705343 
L 556.277791 148.851654 
L 562.426565 144.215547 
L 568.575339 137.450131 
L 574.724112 127.685634 
L 580.872828 116.140205 
L 587.021602 103.659886 
L 593.170376 94.805798 
L 599.31915 92.731023 
L 605.467865 97.650252 
L 611.616639 111.195736 
L 617.765413 134.960458 
L 623.914187 162.239478 
L 630.062903 191.844143 
L 636.211677 216.770785 
L 642.36045 231.126862 
L 648.509224 231.238662 
L 654.657998 219.240643 
L 660.806714 192.922736 
L 666.955488 160.038373 
L 673.104261 124.829045 
" style="fill:none;stroke:#c44e52;stroke-linecap:round;stroke-width:1.5;"/>
   </g>
   <g id="line2d_17">
    <path clip-path="url(#p78a3d9485b)" d="M 64.376989 154.430598 
L 70.525749 147.821719 
L 76.674509 142.751358 
L 82.82327 137.765334 
L 88.972029 138.024359 
L 95.120789 143.191891 
L 101.269552 150.357967 
L 107.418311 159.565715 
L 113.56707 167.714098 
L 119.71583 172.868931 
L 125.864589 174.67156 
L 132.013348 173.225767 
L 138.162115 167.844219 
L 144.310874 161.380137 
L 150.459633 153.101342 
L 156.608393 144.324736 
L 162.757152 136.57786 
L 168.905911 129.373768 
L 175.054671 122.736643 
L 181.20343 117.586171 
L 187.352189 111.222462 
L 193.500949 106.635288 
L 199.649708 102.367498 
L 205.798467 96.519966 
L 211.947241 92.159959 
L 218.096 87.892608 
L 224.24476 88.307973 
L 230.393519 89.871653 
L 236.542278 95.319287 
L 242.691037 101.431646 
L 248.839797 108.530565 
L 254.988556 115.428398 
L 261.137315 121.943052 
L 267.286075 127.152542 
L 273.434834 130.518837 
L 279.583593 133.484092 
L 285.732353 131.274886 
L 291.881112 125.814535 
L 298.029871 119.224688 
L 304.178631 112.107519 
L 310.32739 107.470696 
L 316.476164 105.79319 
L 322.624908 107.981526 
L 328.773682 113.726102 
L 334.922427 121.951423 
L 341.071201 127.90235 
L 347.219946 133.054108 
L 353.368719 132.027484 
L 359.517493 129.513448 
L 365.666238 125.937507 
L 371.815012 124.238039 
L 377.963757 125.601998 
L 384.112531 129.692402 
L 390.261275 136.101159 
L 396.410049 145.353059 
L 402.558794 155.759874 
L 408.707568 164.15181 
L 414.856313 172.463065 
L 421.005086 177.715431 
L 427.153831 178.843389 
L 433.302605 177.746116 
L 439.45135 174.280379 
L 445.600124 168.925037 
L 451.748868 162.208845 
L 457.897642 156.328045 
L 464.046416 153.57652 
L 470.195161 150.019248 
L 476.343935 148.373861 
L 482.492679 148.535351 
L 488.641453 146.902244 
L 494.790198 145.535397 
L 500.938972 144.214819 
L 507.087717 142.716871 
L 513.23649 140.68873 
L 519.385235 139.489616 
L 525.534009 137.349998 
L 531.682754 134.980436 
L 537.831528 131.219505 
L 543.980272 127.00581 
L 550.129046 126.374845 
L 556.277791 130.560635 
L 562.426565 141.107391 
L 568.575339 162.979242 
L 574.724112 191.674487 
L 580.872828 225.687756 
L 587.021602 261.328144 
L 593.170376 294.63909 
L 599.31915 317.58859 
L 605.467865 331.967069 
L 611.616639 333.27767 
L 617.765413 326.783421 
L 623.914187 310.884729 
L 630.062903 289.929992 
L 636.211677 270.038895 
L 642.36045 248.871887 
L 648.509224 230.443342 
L 654.657998 215.939253 
L 660.806714 201.383259 
L 666.955488 188.633081 
L 673.104261 177.793173 
" style="fill:none;stroke:#8172b3;stroke-linecap:round;stroke-width:1.5;"/>
   </g>
   <g id="line2d_18">
    <path clip-path="url(#p78a3d9485b)" d="M 64.376989 138.010905 
L 70.525749 134.431572 
L 76.674509 134.712947 
L 82.82327 137.005639 
L 88.972029 140.86709 
L 95.120789 148.093993 
L 101.269552 156.58677 
L 107.418311 165.951792 
L 113.56707 177.036949 
L 119.71583 185.240284 
L 125.864589 193.039856 
L 132.013348 199.550105 
L 138.162115 201.960926 
L 144.310874 203.14302 
L 150.459633 206.148011 
L 156.608393 209.013365 
L 162.757152 213.638179 
L 168.905911 217.914379 
L 175.054671 220.867535 
L 181.20343 219.254076 
L 187.352189 213.248217 
L 193.500949 201.131827 
L 199.649708 184.172327 
L 205.798467 164.576367 
L 211.947241 144.089259 
L 218.096 125.499481 
L 224.24476 110.734638 
L 230.393519 98.360216 
L 236.542278 87.879965 
L 242.691037 80.642703 
L 248.839797 73.93443 
L 254.988556 68.300108 
L 261.137315 63.209881 
L 267.286075 62.364787 
L 273.434834 67.749206 
L 279.583593 78.98075 
L 285.732353 95.039138 
L 291.881112 114.852801 
L 298.029871 133.251939 
L 304.178631 148.393171 
L 310.32739 156.458559 
L 316.476164 159.614892 
L 322.624908 154.978854 
L 328.773682 147.338147 
L 334.922427 143.195514 
L 341.071201 140.880744 
L 347.219946 145.115009 
L 353.368719 156.754457 
L 359.517493 172.433216 
L 365.666238 193.725336 
L 371.815012 213.385628 
L 377.963757 230.757218 
L 384.112531 240.614164 
L 390.261275 243.766709 
L 396.410049 240.986703 
L 402.558794 234.156646 
L 408.707568 224.310712 
L 414.856313 215.148486 
L 421.005086 206.480214 
L 427.153831 197.578543 
L 433.302605 186.925307 
L 439.45135 172.715605 
L 445.600124 155.066398 
L 451.748868 135.237681 
L 457.897642 116.202285 
L 464.046416 100.85561 
L 470.195161 90.246765 
L 476.343935 86.403534 
L 482.492679 91.958696 
L 488.641453 104.431935 
L 494.790198 123.526862 
L 500.938972 143.82489 
L 507.087717 165.778555 
L 513.23649 183.952448 
L 519.385235 198.912228 
L 525.534009 208.286377 
L 531.682754 212.267113 
L 537.831528 210.919369 
L 543.980272 206.953443 
L 550.129046 198.300967 
L 556.277791 190.060065 
L 562.426565 182.108857 
L 568.575339 173.800699 
L 574.724112 167.531981 
L 580.872828 158.370272 
L 587.021602 150.845773 
L 593.170376 141.260011 
L 599.31915 130.096908 
L 605.467865 115.877412 
L 611.616639 100.51252 
L 617.765413 84.470444 
L 623.914187 70.434249 
L 630.062903 63.12282 
L 636.211677 61.115625 
L 642.36045 69.264591 
L 648.509224 84.025482 
L 654.657998 104.116485 
L 660.806714 127.545215 
L 666.955488 148.833728 
L 673.104261 167.429582 
" style="fill:none;stroke:#937860;stroke-linecap:round;stroke-width:1.5;"/>
   </g>
   <g id="line2d_19">
    <path clip-path="url(#p78a3d9485b)" d="M 64.376989 159.421134 
L 70.525749 180.84446 
L 76.674509 203.398309 
L 82.82327 227.051565 
L 88.972029 249.057495 
L 95.120789 269.824856 
L 101.269552 286.561037 
L 107.418311 294.649433 
L 113.56707 299.129188 
L 119.71583 294.485371 
L 125.864589 281.90478 
L 132.013348 266.992008 
L 138.162115 245.160632 
L 144.310874 223.195448 
L 150.459633 204.645511 
L 156.608393 187.984806 
L 162.757152 176.916751 
L 168.905911 168.499668 
L 175.054671 161.845183 
L 181.20343 156.415708 
L 187.352189 150.931028 
L 193.500949 145.329516 
L 199.649708 139.633694 
L 205.798467 134.409494 
L 211.947241 131.409461 
L 218.096 130.054232 
L 224.24476 132.359742 
L 230.393519 138.209394 
L 236.542278 146.137972 
L 242.691037 155.509798 
L 248.839797 165.77166 
L 254.988556 172.852234 
L 261.137315 177.131494 
L 267.286075 174.154423 
L 273.434834 166.82225 
L 279.583593 156.137627 
L 285.732353 143.524248 
L 291.881112 132.135882 
L 298.029871 122.502145 
L 304.178631 117.217395 
L 310.32739 114.650618 
L 316.476164 116.189783 
L 322.624908 121.743095 
L 328.773682 130.327408 
L 334.922427 141.286449 
L 341.071201 156.000972 
L 347.219946 171.464868 
L 353.368719 186.734895 
L 359.517493 201.464046 
L 365.666238 215.62468 
L 371.815012 226.470527 
L 377.963757 235.435319 
L 384.112531 241.421165 
L 390.261275 243.121251 
L 396.410049 241.012685 
L 402.558794 232.357294 
L 408.707568 221.957626 
L 414.856313 208.786245 
L 421.005086 195.70559 
L 427.153831 184.603255 
L 433.302605 173.240346 
L 439.45135 164.078309 
L 445.600124 157.090108 
L 451.748868 151.955115 
L 457.897642 144.183372 
L 464.046416 139.336613 
L 470.195161 133.39712 
L 476.343935 130.959973 
L 482.492679 127.294444 
L 488.641453 123.992088 
L 494.790198 119.774878 
L 500.938972 113.540228 
L 507.087717 106.468609 
L 513.23649 97.179296 
L 519.385235 86.022022 
L 525.534009 74.79424 
L 531.682754 63.042017 
L 537.831528 53.027229 
L 543.980272 44.813413 
L 550.129046 39.36955 
L 556.277791 36.76858 
L 562.426565 36.807995 
L 568.575339 38.387526 
L 574.724112 43.694632 
L 580.872828 51.511195 
L 587.021602 61.599877 
L 593.170376 75.442883 
L 599.31915 92.246684 
L 605.467865 111.151212 
L 611.616639 131.991818 
L 617.765413 152.070889 
L 623.914187 169.187008 
L 630.062903 180.85333 
L 636.211677 188.718957 
L 642.36045 191.009233 
L 648.509224 189.862866 
L 654.657998 185.176803 
L 660.806714 181.083752 
L 666.955488 178.466636 
L 673.104261 179.37449 
" style="fill:none;stroke:#da8bc3;stroke-linecap:round;stroke-width:1.5;"/>
   </g>
   <g id="line2d_20">
    <path clip-path="url(#p78a3d9485b)" d="M 64.376989 160.185224 
L 70.525749 160.185224 
L 76.674509 160.185224 
L 82.82327 160.185224 
L 88.972029 160.185224 
L 95.120789 160.185224 
L 101.269552 160.185224 
L 107.418311 160.185224 
L 113.56707 160.185224 
L 119.71583 160.185224 
L 125.864589 160.185224 
L 132.013348 160.185224 
L 138.162115 160.185224 
L 144.310874 160.185224 
L 150.459633 160.185224 
L 156.608393 160.185224 
L 162.757152 160.185224 
L 168.905911 160.185224 
L 175.054671 160.185224 
L 181.20343 160.185224 
L 187.352189 160.185224 
L 193.500949 160.185224 
L 199.649708 160.185224 
L 205.798467 160.185224 
L 211.947241 160.185224 
L 218.096 160.185224 
L 224.24476 160.185224 
L 230.393519 160.185224 
L 236.542278 160.185224 
L 242.691037 160.185224 
L 248.839797 160.185224 
L 254.988556 160.185224 
L 261.137315 160.185224 
L 267.286075 160.185224 
L 273.434834 160.185224 
L 279.583593 160.185224 
L 285.732353 160.185224 
L 291.881112 160.185224 
L 298.029871 160.185224 
L 304.178631 160.185224 
L 310.32739 160.185224 
L 316.476164 160.185224 
L 322.624908 160.185224 
L 328.773682 160.185224 
L 334.922427 160.185224 
L 341.071201 160.185224 
L 347.219946 160.185224 
L 353.368719 160.185224 
L 359.517493 160.185224 
L 365.666238 160.185224 
L 371.815012 160.185224 
L 377.963757 160.185224 
L 384.112531 160.185224 
L 390.261275 160.185224 
L 396.410049 160.185224 
L 402.558794 160.185224 
L 408.707568 160.185224 
L 414.856313 160.185224 
L 421.005086 160.185224 
L 427.153831 160.185224 
L 433.302605 160.185224 
L 439.45135 160.185224 
L 445.600124 160.185224 
L 451.748868 160.185224 
L 457.897642 160.185224 
L 464.046416 160.185224 
L 470.195161 160.185224 
L 476.343935 160.185224 
L 482.492679 160.185224 
L 488.641453 160.185224 
L 494.790198 160.185224 
L 500.938972 160.185224 
L 507.087717 160.185224 
L 513.23649 160.185224 
L 519.385235 160.185224 
L 525.534009 160.185224 
L 531.682754 160.185224 
L 537.831528 160.185224 
L 543.980272 160.185224 
L 550.129046 160.185224 
L 556.277791 160.185224 
L 562.426565 160.185224 
L 568.575339 160.185224 
L 574.724112 160.185224 
L 580.872828 160.185224 
L 587.021602 160.185224 
L 593.170376 160.185224 
L 599.31915 160.185224 
L 605.467865 160.185224 
L 611.616639 160.185224 
L 617.765413 160.185224 
L 623.914187 160.185224 
L 630.062903 160.185224 
L 636.211677 160.185224 
L 642.36045 160.185224 
L 648.509224 160.185224 
L 654.657998 160.185224 
L 660.806714 160.185224 
L 666.955488 160.185224 
L 673.104261 160.185224 
" style="fill:none;stroke:#000000;stroke-linecap:round;stroke-width:1.5;"/>
   </g>
   <g id="patch_3">
    <path d="M 33.940625 348.103125 
L 33.940625 21.943125 
" style="fill:none;stroke:#ffffff;stroke-linecap:square;stroke-linejoin:miter;stroke-width:0.8;"/>
   </g>
   <g id="patch_4">
    <path d="M 703.540625 348.103125 
L 703.540625 21.943125 
" style="fill:none;stroke:#ffffff;stroke-linecap:square;stroke-linejoin:miter;stroke-width:0.8;"/>
   </g>
   <g id="patch_5">
    <path d="M 33.940625 348.103125 
L 703.540625 348.103125 
" style="fill:none;stroke:#ffffff;stroke-linecap:square;stroke-linejoin:miter;stroke-width:0.8;"/>
   </g>
   <g id="patch_6">
    <path d="M 33.940625 21.943125 
L 703.540625 21.943125 
" style="fill:none;stroke:#ffffff;stroke-linecap:square;stroke-linejoin:miter;stroke-width:0.8;"/>
   </g>
   <g id="text_13">
    <!-- Gaussian Process Samples (ExponentiatedQuadratic Kernel) -->
    <defs>
     <path d="M 41.21875 28.078125 
L 41.21875 36.46875 
L 71.53125 36.53125 
L 71.53125 9.96875 
Q 64.546875 4.390625 57.125 1.578125 
Q 49.703125 -1.21875 41.890625 -1.21875 
Q 31.34375 -1.21875 22.71875 3.296875 
Q 14.109375 7.8125 9.71875 16.359375 
Q 5.328125 24.90625 5.328125 35.453125 
Q 5.328125 45.90625 9.6875 54.953125 
Q 14.0625 64.015625 22.265625 68.40625 
Q 30.46875 72.796875 41.15625 72.796875 
Q 48.921875 72.796875 55.1875 70.28125 
Q 61.46875 67.78125 65.03125 63.28125 
Q 68.609375 58.796875 70.453125 51.5625 
L 61.921875 49.21875 
Q 60.296875 54.6875 57.90625 57.8125 
Q 55.515625 60.9375 51.0625 62.8125 
Q 46.625 64.703125 41.21875 64.703125 
Q 34.71875 64.703125 29.984375 62.71875 
Q 25.25 60.75 22.34375 57.515625 
Q 19.4375 54.296875 17.828125 50.4375 
Q 15.09375 43.796875 15.09375 36.03125 
Q 15.09375 26.46875 18.390625 20.015625 
Q 21.6875 13.578125 27.984375 10.453125 
Q 34.28125 7.328125 41.359375 7.328125 
Q 47.515625 7.328125 53.375 9.6875 
Q 59.234375 12.0625 62.25 14.75 
L 62.25 28.078125 
z
" id="ArialMT-71"/>
     <path d="M 40.4375 6.390625 
Q 35.546875 2.25 31.03125 0.53125 
Q 26.515625 -1.171875 21.34375 -1.171875 
Q 12.796875 -1.171875 8.203125 3 
Q 3.609375 7.171875 3.609375 13.671875 
Q 3.609375 17.484375 5.34375 20.625 
Q 7.078125 23.78125 9.890625 25.6875 
Q 12.703125 27.59375 16.21875 28.5625 
Q 18.796875 29.25 24.03125 29.890625 
Q 34.671875 31.15625 39.703125 32.90625 
Q 39.75 34.71875 39.75 35.203125 
Q 39.75 40.578125 37.25 42.78125 
Q 33.890625 45.75 27.25 45.75 
Q 21.046875 45.75 18.09375 43.578125 
Q 15.140625 41.40625 13.71875 35.890625 
L 5.125 37.0625 
Q 6.296875 42.578125 8.984375 45.96875 
Q 11.671875 49.359375 16.75 51.1875 
Q 21.828125 53.03125 28.515625 53.03125 
Q 35.15625 53.03125 39.296875 51.46875 
Q 43.453125 49.90625 45.40625 47.53125 
Q 47.359375 45.171875 48.140625 41.546875 
Q 48.578125 39.3125 48.578125 33.453125 
L 48.578125 21.734375 
Q 48.578125 9.46875 49.140625 6.21875 
Q 49.703125 2.984375 51.375 0 
L 42.1875 0 
Q 40.828125 2.734375 40.4375 6.390625 
z
M 39.703125 26.03125 
Q 34.90625 24.078125 25.34375 22.703125 
Q 19.921875 21.921875 17.671875 20.9375 
Q 15.4375 19.96875 14.203125 18.09375 
Q 12.984375 16.21875 12.984375 13.921875 
Q 12.984375 10.40625 15.640625 8.0625 
Q 18.3125 5.71875 23.4375 5.71875 
Q 28.515625 5.71875 32.46875 7.9375 
Q 36.421875 10.15625 38.28125 14.015625 
Q 39.703125 17 39.703125 22.796875 
z
" id="ArialMT-97"/>
     <path d="M 40.578125 0 
L 40.578125 7.625 
Q 34.515625 -1.171875 24.125 -1.171875 
Q 19.53125 -1.171875 15.546875 0.578125 
Q 11.578125 2.34375 9.640625 5 
Q 7.71875 7.671875 6.9375 11.53125 
Q 6.390625 14.109375 6.390625 19.734375 
L 6.390625 51.859375 
L 15.1875 51.859375 
L 15.1875 23.09375 
Q 15.1875 16.21875 15.71875 13.8125 
Q 16.546875 10.359375 19.234375 8.375 
Q 21.921875 6.390625 25.875 6.390625 
Q 29.828125 6.390625 33.296875 8.421875 
Q 36.765625 10.453125 38.203125 13.9375 
Q 39.65625 17.4375 39.65625 24.078125 
L 39.65625 51.859375 
L 48.4375 51.859375 
L 48.4375 0 
z
" id="ArialMT-117"/>
     <path d="M 3.078125 15.484375 
L 11.765625 16.84375 
Q 12.5 11.625 15.84375 8.84375 
Q 19.1875 6.0625 25.203125 6.0625 
Q 31.25 6.0625 34.171875 8.515625 
Q 37.109375 10.984375 37.109375 14.3125 
Q 37.109375 17.28125 34.515625 19 
Q 32.71875 20.171875 25.53125 21.96875 
Q 15.875 24.421875 12.140625 26.203125 
Q 8.40625 27.984375 6.46875 31.125 
Q 4.546875 34.28125 4.546875 38.09375 
Q 4.546875 41.546875 6.125 44.5 
Q 7.71875 47.46875 10.453125 49.421875 
Q 12.5 50.921875 16.03125 51.96875 
Q 19.578125 53.03125 23.640625 53.03125 
Q 29.734375 53.03125 34.34375 51.265625 
Q 38.96875 49.515625 41.15625 46.5 
Q 43.359375 43.5 44.1875 38.484375 
L 35.59375 37.3125 
Q 35.015625 41.3125 32.203125 43.546875 
Q 29.390625 45.796875 24.265625 45.796875 
Q 18.21875 45.796875 15.625 43.796875 
Q 13.03125 41.796875 13.03125 39.109375 
Q 13.03125 37.40625 14.109375 36.03125 
Q 15.1875 34.625 17.484375 33.6875 
Q 18.796875 33.203125 25.25 31.453125 
Q 34.578125 28.953125 38.25 27.359375 
Q 41.9375 25.78125 44.03125 22.75 
Q 46.140625 19.734375 46.140625 15.234375 
Q 46.140625 10.84375 43.578125 6.953125 
Q 41.015625 3.078125 36.171875 0.953125 
Q 31.34375 -1.171875 25.25 -1.171875 
Q 15.140625 -1.171875 9.84375 3.03125 
Q 4.546875 7.234375 3.078125 15.484375 
z
" id="ArialMT-115"/>
     <path d="M 6.640625 61.46875 
L 6.640625 71.578125 
L 15.4375 71.578125 
L 15.4375 61.46875 
z
M 6.640625 0 
L 6.640625 51.859375 
L 15.4375 51.859375 
L 15.4375 0 
z
" id="ArialMT-105"/>
     <path d="M 6.59375 0 
L 6.59375 51.859375 
L 14.5 51.859375 
L 14.5 44.484375 
Q 20.21875 53.03125 31 53.03125 
Q 35.6875 53.03125 39.625 51.34375 
Q 43.5625 49.65625 45.515625 46.921875 
Q 47.46875 44.1875 48.25 40.4375 
Q 48.734375 37.984375 48.734375 31.890625 
L 48.734375 0 
L 39.9375 0 
L 39.9375 31.546875 
Q 39.9375 36.921875 38.90625 39.578125 
Q 37.890625 42.234375 35.28125 43.8125 
Q 32.671875 45.40625 29.15625 45.40625 
Q 23.53125 45.40625 19.453125 41.84375 
Q 15.375 38.28125 15.375 28.328125 
L 15.375 0 
z
" id="ArialMT-110"/>
     <path id="ArialMT-32"/>
     <path d="M 7.71875 0 
L 7.71875 71.578125 
L 34.71875 71.578125 
Q 41.84375 71.578125 45.609375 70.90625 
Q 50.875 70.015625 54.4375 67.546875 
Q 58.015625 65.09375 60.1875 60.640625 
Q 62.359375 56.203125 62.359375 50.875 
Q 62.359375 41.75 56.546875 35.421875 
Q 50.734375 29.109375 35.546875 29.109375 
L 17.1875 29.109375 
L 17.1875 0 
z
M 17.1875 37.546875 
L 35.6875 37.546875 
Q 44.875 37.546875 48.734375 40.96875 
Q 52.59375 44.390625 52.59375 50.59375 
Q 52.59375 55.078125 50.3125 58.265625 
Q 48.046875 61.46875 44.34375 62.5 
Q 41.9375 63.140625 35.5 63.140625 
L 17.1875 63.140625 
z
" id="ArialMT-80"/>
     <path d="M 6.5 0 
L 6.5 51.859375 
L 14.40625 51.859375 
L 14.40625 44 
Q 17.4375 49.515625 20 51.265625 
Q 22.5625 53.03125 25.640625 53.03125 
Q 30.078125 53.03125 34.671875 50.203125 
L 31.640625 42.046875 
Q 28.421875 43.953125 25.203125 43.953125 
Q 22.3125 43.953125 20.015625 42.21875 
Q 17.71875 40.484375 16.75 37.40625 
Q 15.28125 32.71875 15.28125 27.15625 
L 15.28125 0 
z
" id="ArialMT-114"/>
     <path d="M 3.328125 25.921875 
Q 3.328125 40.328125 11.328125 47.265625 
Q 18.015625 53.03125 27.640625 53.03125 
Q 38.328125 53.03125 45.109375 46.015625 
Q 51.90625 39.015625 51.90625 26.65625 
Q 51.90625 16.65625 48.90625 10.90625 
Q 45.90625 5.171875 40.15625 2 
Q 34.421875 -1.171875 27.640625 -1.171875 
Q 16.75 -1.171875 10.03125 5.8125 
Q 3.328125 12.796875 3.328125 25.921875 
z
M 12.359375 25.921875 
Q 12.359375 15.96875 16.703125 11.015625 
Q 21.046875 6.0625 27.640625 6.0625 
Q 34.1875 6.0625 38.53125 11.03125 
Q 42.875 16.015625 42.875 26.21875 
Q 42.875 35.84375 38.5 40.796875 
Q 34.125 45.75 27.640625 45.75 
Q 21.046875 45.75 16.703125 40.8125 
Q 12.359375 35.890625 12.359375 25.921875 
z
" id="ArialMT-111"/>
     <path d="M 40.4375 19 
L 49.078125 17.875 
Q 47.65625 8.9375 41.8125 3.875 
Q 35.984375 -1.171875 27.484375 -1.171875 
Q 16.84375 -1.171875 10.375 5.78125 
Q 3.90625 12.75 3.90625 25.734375 
Q 3.90625 34.125 6.6875 40.421875 
Q 9.46875 46.734375 15.15625 49.875 
Q 20.84375 53.03125 27.546875 53.03125 
Q 35.984375 53.03125 41.359375 48.75 
Q 46.734375 44.484375 48.25 36.625 
L 39.703125 35.296875 
Q 38.484375 40.53125 35.375 43.15625 
Q 32.28125 45.796875 27.875 45.796875 
Q 21.234375 45.796875 17.078125 41.03125 
Q 12.9375 36.28125 12.9375 25.984375 
Q 12.9375 15.53125 16.9375 10.796875 
Q 20.953125 6.0625 27.390625 6.0625 
Q 32.5625 6.0625 36.03125 9.234375 
Q 39.5 12.40625 40.4375 19 
z
" id="ArialMT-99"/>
     <path d="M 42.09375 16.703125 
L 51.171875 15.578125 
Q 49.03125 7.625 43.21875 3.21875 
Q 37.40625 -1.171875 28.375 -1.171875 
Q 17 -1.171875 10.328125 5.828125 
Q 3.65625 12.84375 3.65625 25.484375 
Q 3.65625 38.578125 10.390625 45.796875 
Q 17.140625 53.03125 27.875 53.03125 
Q 38.28125 53.03125 44.875 45.953125 
Q 51.46875 38.875 51.46875 26.03125 
Q 51.46875 25.25 51.421875 23.6875 
L 12.75 23.6875 
Q 13.234375 15.140625 17.578125 10.59375 
Q 21.921875 6.0625 28.421875 6.0625 
Q 33.25 6.0625 36.671875 8.59375 
Q 40.09375 11.140625 42.09375 16.703125 
z
M 13.234375 30.90625 
L 42.1875 30.90625 
Q 41.609375 37.453125 38.875 40.71875 
Q 34.671875 45.796875 27.984375 45.796875 
Q 21.921875 45.796875 17.796875 41.75 
Q 13.671875 37.703125 13.234375 30.90625 
z
" id="ArialMT-101"/>
     <path d="M 4.5 23 
L 13.421875 23.78125 
Q 14.0625 18.40625 16.375 14.96875 
Q 18.703125 11.53125 23.578125 9.40625 
Q 28.46875 7.28125 34.578125 7.28125 
Q 39.984375 7.28125 44.140625 8.890625 
Q 48.296875 10.5 50.3125 13.296875 
Q 52.34375 16.109375 52.34375 19.4375 
Q 52.34375 22.796875 50.390625 25.3125 
Q 48.4375 27.828125 43.953125 29.546875 
Q 41.0625 30.671875 31.203125 33.03125 
Q 21.34375 35.40625 17.390625 37.5 
Q 12.25 40.1875 9.734375 44.15625 
Q 7.234375 48.140625 7.234375 53.078125 
Q 7.234375 58.5 10.296875 63.203125 
Q 13.375 67.921875 19.28125 70.359375 
Q 25.203125 72.796875 32.421875 72.796875 
Q 40.375 72.796875 46.453125 70.234375 
Q 52.546875 67.671875 55.8125 62.6875 
Q 59.078125 57.71875 59.328125 51.421875 
L 50.25 50.734375 
Q 49.515625 57.515625 45.28125 60.984375 
Q 41.0625 64.453125 32.8125 64.453125 
Q 24.21875 64.453125 20.28125 61.296875 
Q 16.359375 58.15625 16.359375 53.71875 
Q 16.359375 49.859375 19.140625 47.359375 
Q 21.875 44.875 33.421875 42.265625 
Q 44.96875 39.65625 49.265625 37.703125 
Q 55.515625 34.8125 58.484375 30.390625 
Q 61.46875 25.984375 61.46875 20.21875 
Q 61.46875 14.5 58.203125 9.4375 
Q 54.9375 4.390625 48.796875 1.578125 
Q 42.671875 -1.21875 35.015625 -1.21875 
Q 25.296875 -1.21875 18.71875 1.609375 
Q 12.15625 4.4375 8.421875 10.125 
Q 4.6875 15.828125 4.5 23 
z
" id="ArialMT-83"/>
     <path d="M 6.59375 0 
L 6.59375 51.859375 
L 14.453125 51.859375 
L 14.453125 44.578125 
Q 16.890625 48.390625 20.9375 50.703125 
Q 25 53.03125 30.171875 53.03125 
Q 35.9375 53.03125 39.625 50.640625 
Q 43.3125 48.25 44.828125 43.953125 
Q 50.984375 53.03125 60.84375 53.03125 
Q 68.5625 53.03125 72.703125 48.75 
Q 76.859375 44.484375 76.859375 35.59375 
L 76.859375 0 
L 68.109375 0 
L 68.109375 32.671875 
Q 68.109375 37.9375 67.25 40.25 
Q 66.40625 42.578125 64.15625 43.984375 
Q 61.921875 45.40625 58.890625 45.40625 
Q 53.421875 45.40625 49.796875 41.765625 
Q 46.1875 38.140625 46.1875 30.125 
L 46.1875 0 
L 37.40625 0 
L 37.40625 33.6875 
Q 37.40625 39.546875 35.25 42.46875 
Q 33.109375 45.40625 28.21875 45.40625 
Q 24.515625 45.40625 21.359375 43.453125 
Q 18.21875 41.5 16.796875 37.734375 
Q 15.375 33.984375 15.375 26.90625 
L 15.375 0 
z
" id="ArialMT-109"/>
     <path d="M 6.59375 -19.875 
L 6.59375 51.859375 
L 14.59375 51.859375 
L 14.59375 45.125 
Q 17.4375 49.078125 21 51.046875 
Q 24.5625 53.03125 29.640625 53.03125 
Q 36.28125 53.03125 41.359375 49.609375 
Q 46.4375 46.1875 49.015625 39.953125 
Q 51.609375 33.734375 51.609375 26.3125 
Q 51.609375 18.359375 48.75 11.984375 
Q 45.90625 5.609375 40.453125 2.21875 
Q 35.015625 -1.171875 29 -1.171875 
Q 24.609375 -1.171875 21.109375 0.6875 
Q 17.625 2.546875 15.375 5.375 
L 15.375 -19.875 
z
M 14.546875 25.640625 
Q 14.546875 15.625 18.59375 10.84375 
Q 22.65625 6.0625 28.421875 6.0625 
Q 34.28125 6.0625 38.453125 11.015625 
Q 42.625 15.96875 42.625 26.375 
Q 42.625 36.28125 38.546875 41.203125 
Q 34.46875 46.140625 28.8125 46.140625 
Q 23.1875 46.140625 18.859375 40.890625 
Q 14.546875 35.640625 14.546875 25.640625 
z
" id="ArialMT-112"/>
     <path d="M 6.390625 0 
L 6.390625 71.578125 
L 15.1875 71.578125 
L 15.1875 0 
z
" id="ArialMT-108"/>
     <path d="M 23.390625 -21.046875 
Q 16.109375 -11.859375 11.078125 0.4375 
Q 6.0625 12.75 6.0625 25.921875 
Q 6.0625 37.546875 9.8125 48.1875 
Q 14.203125 60.546875 23.390625 72.796875 
L 29.6875 72.796875 
Q 23.78125 62.640625 21.875 58.296875 
Q 18.890625 51.5625 17.1875 44.234375 
Q 15.09375 35.109375 15.09375 25.875 
Q 15.09375 2.390625 29.6875 -21.046875 
z
" id="ArialMT-40"/>
     <path d="M 7.90625 0 
L 7.90625 71.578125 
L 59.671875 71.578125 
L 59.671875 63.140625 
L 17.390625 63.140625 
L 17.390625 41.21875 
L 56.984375 41.21875 
L 56.984375 32.8125 
L 17.390625 32.8125 
L 17.390625 8.453125 
L 61.328125 8.453125 
L 61.328125 0 
z
" id="ArialMT-69"/>
     <path d="M 0.734375 0 
L 19.671875 26.953125 
L 2.15625 51.859375 
L 13.140625 51.859375 
L 21.09375 39.703125 
Q 23.34375 36.234375 24.703125 33.890625 
Q 26.859375 37.109375 28.65625 39.59375 
L 37.40625 51.859375 
L 47.90625 51.859375 
L 29.984375 27.4375 
L 49.265625 0 
L 38.484375 0 
L 27.828125 16.109375 
L 25 20.453125 
L 11.375 0 
z
" id="ArialMT-120"/>
     <path d="M 25.78125 7.859375 
L 27.046875 0.09375 
Q 23.34375 -0.6875 20.40625 -0.6875 
Q 15.625 -0.6875 12.984375 0.828125 
Q 10.359375 2.34375 9.28125 4.8125 
Q 8.203125 7.28125 8.203125 15.1875 
L 8.203125 45.015625 
L 1.765625 45.015625 
L 1.765625 51.859375 
L 8.203125 51.859375 
L 8.203125 64.703125 
L 16.9375 69.96875 
L 16.9375 51.859375 
L 25.78125 51.859375 
L 25.78125 45.015625 
L 16.9375 45.015625 
L 16.9375 14.703125 
Q 16.9375 10.9375 17.40625 9.859375 
Q 17.875 8.796875 18.921875 8.15625 
Q 19.96875 7.515625 21.921875 7.515625 
Q 23.390625 7.515625 25.78125 7.859375 
z
" id="ArialMT-116"/>
     <path d="M 40.234375 0 
L 40.234375 6.546875 
Q 35.296875 -1.171875 25.734375 -1.171875 
Q 19.53125 -1.171875 14.328125 2.25 
Q 9.125 5.671875 6.265625 11.796875 
Q 3.421875 17.921875 3.421875 25.875 
Q 3.421875 33.640625 6 39.96875 
Q 8.59375 46.296875 13.765625 49.65625 
Q 18.953125 53.03125 25.34375 53.03125 
Q 30.03125 53.03125 33.6875 51.046875 
Q 37.359375 49.078125 39.65625 45.90625 
L 39.65625 71.578125 
L 48.390625 71.578125 
L 48.390625 0 
z
M 12.453125 25.875 
Q 12.453125 15.921875 16.640625 10.984375 
Q 20.84375 6.0625 26.5625 6.0625 
Q 32.328125 6.0625 36.34375 10.765625 
Q 40.375 15.484375 40.375 25.140625 
Q 40.375 35.796875 36.265625 40.765625 
Q 32.171875 45.75 26.171875 45.75 
Q 20.3125 45.75 16.375 40.96875 
Q 12.453125 36.1875 12.453125 25.875 
z
" id="ArialMT-100"/>
     <path d="M 61.96875 7.671875 
Q 68.5625 3.125 74.125 1.03125 
L 71.34375 -5.5625 
Q 63.625 -2.78125 55.953125 3.21875 
Q 48 -1.21875 38.375 -1.21875 
Q 28.65625 -1.21875 20.75 3.46875 
Q 12.84375 8.15625 8.5625 16.640625 
Q 4.296875 25.140625 4.296875 35.796875 
Q 4.296875 46.390625 8.59375 55.078125 
Q 12.890625 63.765625 20.828125 68.3125 
Q 28.765625 72.859375 38.578125 72.859375 
Q 48.484375 72.859375 56.4375 68.140625 
Q 64.40625 63.421875 68.578125 54.953125 
Q 72.75 46.484375 72.75 35.84375 
Q 72.75 27 70.0625 19.9375 
Q 67.390625 12.890625 61.96875 7.671875 
z
M 41.109375 19.78125 
Q 49.3125 17.484375 54.640625 12.9375 
Q 62.984375 20.5625 62.984375 35.84375 
Q 62.984375 44.53125 60.03125 51.015625 
Q 57.078125 57.515625 51.390625 61.109375 
Q 45.703125 64.703125 38.625 64.703125 
Q 28.03125 64.703125 21.046875 57.453125 
Q 14.0625 50.203125 14.0625 35.796875 
Q 14.0625 21.828125 20.96875 14.359375 
Q 27.875 6.890625 38.625 6.890625 
Q 43.703125 6.890625 48.1875 8.796875 
Q 43.75 11.671875 38.8125 12.890625 
z
" id="ArialMT-81"/>
     <path d="M 7.328125 0 
L 7.328125 71.578125 
L 16.796875 71.578125 
L 16.796875 36.078125 
L 52.34375 71.578125 
L 65.1875 71.578125 
L 35.15625 42.578125 
L 66.5 0 
L 54 0 
L 28.515625 36.234375 
L 16.796875 24.8125 
L 16.796875 0 
z
" id="ArialMT-75"/>
     <path d="M 12.359375 -21.046875 
L 6.0625 -21.046875 
Q 20.65625 2.390625 20.65625 25.875 
Q 20.65625 35.0625 18.5625 44.09375 
Q 16.890625 51.421875 13.921875 58.15625 
Q 12.015625 62.546875 6.0625 72.796875 
L 12.359375 72.796875 
Q 21.53125 60.546875 25.921875 48.1875 
Q 29.6875 37.546875 29.6875 25.921875 
Q 29.6875 12.75 24.625 0.4375 
Q 19.578125 -11.859375 12.359375 -21.046875 
z
" id="ArialMT-41"/>
    </defs>
    <g style="fill:#262626;" transform="translate(206 15.943125)scale(0.12 -0.12)">
     <use xlink:href="#ArialMT-71"/>
     <use x="77.783203" xlink:href="#ArialMT-97"/>
     <use x="133.398438" xlink:href="#ArialMT-117"/>
     <use x="189.013672" xlink:href="#ArialMT-115"/>
     <use x="239.013672" xlink:href="#ArialMT-115"/>
     <use x="289.013672" xlink:href="#ArialMT-105"/>
     <use x="311.230469" xlink:href="#ArialMT-97"/>
     <use x="366.845703" xlink:href="#ArialMT-110"/>
     <use x="422.460938" xlink:href="#ArialMT-32"/>
     <use x="450.244141" xlink:href="#ArialMT-80"/>
     <use x="516.943359" xlink:href="#ArialMT-114"/>
     <use x="550.244141" xlink:href="#ArialMT-111"/>
     <use x="605.859375" xlink:href="#ArialMT-99"/>
     <use x="655.859375" xlink:href="#ArialMT-101"/>
     <use x="711.474609" xlink:href="#ArialMT-115"/>
     <use x="761.474609" xlink:href="#ArialMT-115"/>
     <use x="811.474609" xlink:href="#ArialMT-32"/>
     <use x="839.257812" xlink:href="#ArialMT-83"/>
     <use x="905.957031" xlink:href="#ArialMT-97"/>
     <use x="961.572266" xlink:href="#ArialMT-109"/>
     <use x="1044.873047" xlink:href="#ArialMT-112"/>
     <use x="1100.488281" xlink:href="#ArialMT-108"/>
     <use x="1122.705078" xlink:href="#ArialMT-101"/>
     <use x="1178.320312" xlink:href="#ArialMT-115"/>
     <use x="1228.320312" xlink:href="#ArialMT-32"/>
     <use x="1256.103516" xlink:href="#ArialMT-40"/>
     <use x="1289.404297" xlink:href="#ArialMT-69"/>
     <use x="1356.103516" xlink:href="#ArialMT-120"/>
     <use x="1406.103516" xlink:href="#ArialMT-112"/>
     <use x="1461.71875" xlink:href="#ArialMT-111"/>
     <use x="1517.333984" xlink:href="#ArialMT-110"/>
     <use x="1572.949219" xlink:href="#ArialMT-101"/>
     <use x="1628.564453" xlink:href="#ArialMT-110"/>
     <use x="1684.179688" xlink:href="#ArialMT-116"/>
     <use x="1711.962891" xlink:href="#ArialMT-105"/>
     <use x="1734.179688" xlink:href="#ArialMT-97"/>
     <use x="1789.794922" xlink:href="#ArialMT-116"/>
     <use x="1817.578125" xlink:href="#ArialMT-101"/>
     <use x="1873.193359" xlink:href="#ArialMT-100"/>
     <use x="1928.808594" xlink:href="#ArialMT-81"/>
     <use x="2006.591797" xlink:href="#ArialMT-117"/>
     <use x="2062.207031" xlink:href="#ArialMT-97"/>
     <use x="2117.822266" xlink:href="#ArialMT-100"/>
     <use x="2173.4375" xlink:href="#ArialMT-114"/>
     <use x="2206.738281" xlink:href="#ArialMT-97"/>
     <use x="2262.353516" xlink:href="#ArialMT-116"/>
     <use x="2290.136719" xlink:href="#ArialMT-105"/>
     <use x="2312.353516" xlink:href="#ArialMT-99"/>
     <use x="2362.353516" xlink:href="#ArialMT-32"/>
     <use x="2390.136719" xlink:href="#ArialMT-75"/>
     <use x="2456.835938" xlink:href="#ArialMT-101"/>
     <use x="2512.451172" xlink:href="#ArialMT-114"/>
     <use x="2545.751953" xlink:href="#ArialMT-110"/>
     <use x="2601.367188" xlink:href="#ArialMT-101"/>
     <use x="2656.982422" xlink:href="#ArialMT-108"/>
     <use x="2679.199219" xlink:href="#ArialMT-41"/>
    </g>
   </g>
   <g id="legend_1">
    <g id="patch_7">
     <path d="M 589.940625 44.343125 
L 696.540625 44.343125 
Q 698.540625 44.343125 698.540625 42.343125 
L 698.540625 28.943125 
Q 698.540625 26.943125 696.540625 26.943125 
L 589.940625 26.943125 
Q 587.940625 26.943125 587.940625 28.943125 
L 587.940625 42.343125 
Q 587.940625 44.343125 589.940625 44.343125 
z
" style="fill:#e6e6e6;opacity:0.8;stroke:#cccccc;stroke-linejoin:miter;"/>
    </g>
    <g id="patch_8">
     <path d="M 591.940625 38.143125 
L 611.940625 38.143125 
L 611.940625 31.143125 
L 591.940625 31.143125 
z
" style="fill:#ccb974;opacity:0.2;stroke:#ccb974;stroke-linejoin:miter;"/>
    </g>
    <g id="text_14">
     <!-- gp_mean $\pm$ 2std -->
     <defs>
      <path d="M 4.984375 -4.296875 
L 13.53125 -5.5625 
Q 14.0625 -9.515625 16.5 -11.328125 
Q 19.78125 -13.765625 25.4375 -13.765625 
Q 31.546875 -13.765625 34.859375 -11.328125 
Q 38.1875 -8.890625 39.359375 -4.5 
Q 40.046875 -1.8125 39.984375 6.78125 
Q 34.234375 0 25.640625 0 
Q 14.9375 0 9.078125 7.71875 
Q 3.21875 15.4375 3.21875 26.21875 
Q 3.21875 33.640625 5.90625 39.90625 
Q 8.59375 46.1875 13.6875 49.609375 
Q 18.796875 53.03125 25.6875 53.03125 
Q 34.859375 53.03125 40.828125 45.609375 
L 40.828125 51.859375 
L 48.921875 51.859375 
L 48.921875 7.03125 
Q 48.921875 -5.078125 46.453125 -10.125 
Q 44 -15.1875 38.640625 -18.109375 
Q 33.296875 -21.046875 25.484375 -21.046875 
Q 16.21875 -21.046875 10.5 -16.875 
Q 4.78125 -12.703125 4.984375 -4.296875 
z
M 12.25 26.859375 
Q 12.25 16.65625 16.296875 11.96875 
Q 20.359375 7.28125 26.46875 7.28125 
Q 32.515625 7.28125 36.609375 11.9375 
Q 40.71875 16.609375 40.71875 26.5625 
Q 40.71875 36.078125 36.5 40.90625 
Q 32.28125 45.75 26.3125 45.75 
Q 20.453125 45.75 16.34375 40.984375 
Q 12.25 36.234375 12.25 26.859375 
z
" id="ArialMT-103"/>
      <path d="M -1.515625 -19.875 
L -1.515625 -13.53125 
L 56.734375 -13.53125 
L 56.734375 -19.875 
z
" id="ArialMT-95"/>
      <path d="M 46 62.703125 
L 46 43.796875 
L 73.1875 43.796875 
L 73.1875 35.5 
L 46 35.5 
L 46 16.609375 
L 37.796875 16.609375 
L 37.796875 35.5 
L 10.59375 35.5 
L 10.59375 43.796875 
L 37.796875 43.796875 
L 37.796875 62.703125 
z
M 10.59375 8.296875 
L 73.1875 8.296875 
L 73.1875 0 
L 10.59375 0 
z
" id="DejaVuSans-177"/>
     </defs>
     <g style="fill:#262626;" transform="translate(619.940625 38.143125)scale(0.1 -0.1)">
      <use transform="translate(0 0.125)" xlink:href="#ArialMT-103"/>
      <use transform="translate(55.615234 0.125)" xlink:href="#ArialMT-112"/>
      <use transform="translate(111.230469 0.125)" xlink:href="#ArialMT-95"/>
      <use transform="translate(166.845703 0.125)" xlink:href="#ArialMT-109"/>
      <use transform="translate(250.146484 0.125)" xlink:href="#ArialMT-101"/>
      <use transform="translate(305.761719 0.125)" xlink:href="#ArialMT-97"/>
      <use transform="translate(361.376953 0.125)" xlink:href="#ArialMT-110"/>
      <use transform="translate(416.992188 0.125)" xlink:href="#ArialMT-32"/>
      <use transform="translate(444.775391 0.125)" xlink:href="#DejaVuSans-177"/>
      <use transform="translate(528.564453 0.125)" xlink:href="#ArialMT-32"/>
      <use transform="translate(556.347656 0.125)" xlink:href="#ArialMT-50"/>
      <use transform="translate(611.962891 0.125)" xlink:href="#ArialMT-115"/>
      <use transform="translate(661.962891 0.125)" xlink:href="#ArialMT-116"/>
      <use transform="translate(689.746094 0.125)" xlink:href="#ArialMT-100"/>
     </g>
    </g>
   </g>
  </g>
 </g>
 <defs>
  <clipPath id="p78a3d9485b">
   <rect height="326.16" width="669.6" x="33.940625" y="21.943125"/>
  </clipPath>
 </defs>
</svg>
