<?xml version="1.0" encoding="utf-8" standalone="no"?>
<!DOCTYPE svg PUBLIC "-//W3C//DTD SVG 1.1//EN"
  "http://www.w3.org/Graphics/SVG/1.1/DTD/svg11.dtd">
<!-- Created with matplotlib (https://matplotlib.org/) -->
<svg height="371.440938pt" version="1.1" viewBox="0 0 710.740625 371.440938" width="710.740625pt" xmlns="http://www.w3.org/2000/svg" xmlns:xlink="http://www.w3.org/1999/xlink">
 <defs>
  <style type="text/css">
*{stroke-linecap:butt;stroke-linejoin:round;}
  </style>
 </defs>
 <g id="figure_1">
  <g id="patch_1">
   <path d="M 0 371.440938 
L 710.740625 371.440938 
L 710.740625 0 
L 0 0 
z
" style="fill:none;"/>
  </g>
  <g id="axes_1">
   <g id="patch_2">
    <path d="M 33.940625 348.095625 
L 703.540625 348.095625 
L 703.540625 21.935625 
L 33.940625 21.935625 
z
" style="fill:#e6e6e6;"/>
   </g>
   <g id="matplotlib.axis_1">
    <g id="xtick_1">
     <g id="line2d_1">
      <path clip-path="url(#p4839539700)" d="M 64.376989 348.095625 
L 64.376989 21.935625 
" style="fill:none;stroke:#cccccc;stroke-linecap:round;stroke-width:0.8;"/>
     </g>
     <g id="text_1">
      <!-- 0 -->
      <defs>
       <path d="M 4.15625 35.296875 
Q 4.15625 48 6.765625 55.734375 
Q 9.375 63.484375 14.515625 67.671875 
Q 19.671875 71.875 27.484375 71.875 
Q 33.25 71.875 37.59375 69.546875 
Q 41.9375 67.234375 44.765625 62.859375 
Q 47.609375 58.5 49.21875 52.21875 
Q 50.828125 45.953125 50.828125 35.296875 
Q 50.828125 22.703125 48.234375 14.96875 
Q 45.65625 7.234375 40.5 3 
Q 35.359375 -1.21875 27.484375 -1.21875 
Q 17.140625 -1.21875 11.234375 6.203125 
Q 4.15625 15.140625 4.15625 35.296875 
z
M 13.1875 35.296875 
Q 13.1875 17.671875 17.3125 11.828125 
Q 21.4375 6 27.484375 6 
Q 33.546875 6 37.671875 11.859375 
Q 41.796875 17.71875 41.796875 35.296875 
Q 41.796875 52.984375 37.671875 58.78125 
Q 33.546875 64.59375 27.390625 64.59375 
Q 21.34375 64.59375 17.71875 59.46875 
Q 13.1875 52.9375 13.1875 35.296875 
z
" id="ArialMT-48"/>
      </defs>
      <g style="fill:#262626;" transform="translate(61.59652 362.253438)scale(0.1 -0.1)">
       <use xlink:href="#ArialMT-48"/>
      </g>
     </g>
    </g>
    <g id="xtick_2">
     <g id="line2d_2">
      <path clip-path="url(#p4839539700)" d="M 186.122443 348.095625 
L 186.122443 21.935625 
" style="fill:none;stroke:#cccccc;stroke-linecap:round;stroke-width:0.8;"/>
     </g>
     <g id="text_2">
      <!-- 2 -->
      <defs>
       <path d="M 50.34375 8.453125 
L 50.34375 0 
L 3.03125 0 
Q 2.9375 3.171875 4.046875 6.109375 
Q 5.859375 10.9375 9.828125 15.625 
Q 13.8125 20.3125 21.34375 26.46875 
Q 33.015625 36.03125 37.109375 41.625 
Q 41.21875 47.21875 41.21875 52.203125 
Q 41.21875 57.421875 37.46875 61 
Q 33.734375 64.59375 27.734375 64.59375 
Q 21.390625 64.59375 17.578125 60.78125 
Q 13.765625 56.984375 13.71875 50.25 
L 4.6875 51.171875 
Q 5.609375 61.28125 11.65625 66.578125 
Q 17.71875 71.875 27.9375 71.875 
Q 38.234375 71.875 44.234375 66.15625 
Q 50.25 60.453125 50.25 52 
Q 50.25 47.703125 48.484375 43.546875 
Q 46.734375 39.40625 42.65625 34.8125 
Q 38.578125 30.21875 29.109375 22.21875 
Q 21.1875 15.578125 18.9375 13.203125 
Q 16.703125 10.84375 15.234375 8.453125 
z
" id="ArialMT-50"/>
      </defs>
      <g style="fill:#262626;" transform="translate(183.341974 362.253438)scale(0.1 -0.1)">
       <use xlink:href="#ArialMT-50"/>
      </g>
     </g>
    </g>
    <g id="xtick_3">
     <g id="line2d_3">
      <path clip-path="url(#p4839539700)" d="M 307.867898 348.095625 
L 307.867898 21.935625 
" style="fill:none;stroke:#cccccc;stroke-linecap:round;stroke-width:0.8;"/>
     </g>
     <g id="text_3">
      <!-- 4 -->
      <defs>
       <path d="M 32.328125 0 
L 32.328125 17.140625 
L 1.265625 17.140625 
L 1.265625 25.203125 
L 33.9375 71.578125 
L 41.109375 71.578125 
L 41.109375 25.203125 
L 50.78125 25.203125 
L 50.78125 17.140625 
L 41.109375 17.140625 
L 41.109375 0 
z
M 32.328125 25.203125 
L 32.328125 57.46875 
L 9.90625 25.203125 
z
" id="ArialMT-52"/>
      </defs>
      <g style="fill:#262626;" transform="translate(305.087429 362.253438)scale(0.1 -0.1)">
       <use xlink:href="#ArialMT-52"/>
      </g>
     </g>
    </g>
    <g id="xtick_4">
     <g id="line2d_4">
      <path clip-path="url(#p4839539700)" d="M 429.613352 348.095625 
L 429.613352 21.935625 
" style="fill:none;stroke:#cccccc;stroke-linecap:round;stroke-width:0.8;"/>
     </g>
     <g id="text_4">
      <!-- 6 -->
      <defs>
       <path d="M 49.75 54.046875 
L 41.015625 53.375 
Q 39.84375 58.546875 37.703125 60.890625 
Q 34.125 64.65625 28.90625 64.65625 
Q 24.703125 64.65625 21.53125 62.3125 
Q 17.390625 59.28125 14.984375 53.46875 
Q 12.59375 47.65625 12.5 36.921875 
Q 15.671875 41.75 20.265625 44.09375 
Q 24.859375 46.4375 29.890625 46.4375 
Q 38.671875 46.4375 44.84375 39.96875 
Q 51.03125 33.5 51.03125 23.25 
Q 51.03125 16.5 48.125 10.71875 
Q 45.21875 4.9375 40.140625 1.859375 
Q 35.0625 -1.21875 28.609375 -1.21875 
Q 17.625 -1.21875 10.6875 6.859375 
Q 3.765625 14.9375 3.765625 33.5 
Q 3.765625 54.25 11.421875 63.671875 
Q 18.109375 71.875 29.4375 71.875 
Q 37.890625 71.875 43.28125 67.140625 
Q 48.6875 62.40625 49.75 54.046875 
z
M 13.875 23.1875 
Q 13.875 18.65625 15.796875 14.5 
Q 17.71875 10.359375 21.1875 8.171875 
Q 24.65625 6 28.46875 6 
Q 34.03125 6 38.03125 10.484375 
Q 42.046875 14.984375 42.046875 22.703125 
Q 42.046875 30.125 38.078125 34.390625 
Q 34.125 38.671875 28.125 38.671875 
Q 22.171875 38.671875 18.015625 34.390625 
Q 13.875 30.125 13.875 23.1875 
z
" id="ArialMT-54"/>
      </defs>
      <g style="fill:#262626;" transform="translate(426.832884 362.253438)scale(0.1 -0.1)">
       <use xlink:href="#ArialMT-54"/>
      </g>
     </g>
    </g>
    <g id="xtick_5">
     <g id="line2d_5">
      <path clip-path="url(#p4839539700)" d="M 551.358807 348.095625 
L 551.358807 21.935625 
" style="fill:none;stroke:#cccccc;stroke-linecap:round;stroke-width:0.8;"/>
     </g>
     <g id="text_5">
      <!-- 8 -->
      <defs>
       <path d="M 17.671875 38.8125 
Q 12.203125 40.828125 9.5625 44.53125 
Q 6.9375 48.25 6.9375 53.421875 
Q 6.9375 61.234375 12.546875 66.546875 
Q 18.171875 71.875 27.484375 71.875 
Q 36.859375 71.875 42.578125 66.421875 
Q 48.296875 60.984375 48.296875 53.171875 
Q 48.296875 48.1875 45.671875 44.5 
Q 43.0625 40.828125 37.75 38.8125 
Q 44.34375 36.671875 47.78125 31.875 
Q 51.21875 27.09375 51.21875 20.453125 
Q 51.21875 11.28125 44.71875 5.03125 
Q 38.234375 -1.21875 27.640625 -1.21875 
Q 17.046875 -1.21875 10.546875 5.046875 
Q 4.046875 11.328125 4.046875 20.703125 
Q 4.046875 27.6875 7.59375 32.390625 
Q 11.140625 37.109375 17.671875 38.8125 
z
M 15.921875 53.71875 
Q 15.921875 48.640625 19.1875 45.40625 
Q 22.46875 42.1875 27.6875 42.1875 
Q 32.765625 42.1875 36.015625 45.375 
Q 39.265625 48.578125 39.265625 53.21875 
Q 39.265625 58.0625 35.90625 61.359375 
Q 32.5625 64.65625 27.59375 64.65625 
Q 22.5625 64.65625 19.234375 61.421875 
Q 15.921875 58.203125 15.921875 53.71875 
z
M 13.09375 20.65625 
Q 13.09375 16.890625 14.875 13.375 
Q 16.65625 9.859375 20.171875 7.921875 
Q 23.6875 6 27.734375 6 
Q 34.03125 6 38.125 10.046875 
Q 42.234375 14.109375 42.234375 20.359375 
Q 42.234375 26.703125 38.015625 30.859375 
Q 33.796875 35.015625 27.4375 35.015625 
Q 21.234375 35.015625 17.15625 30.90625 
Q 13.09375 26.8125 13.09375 20.65625 
z
" id="ArialMT-56"/>
      </defs>
      <g style="fill:#262626;" transform="translate(548.578338 362.253438)scale(0.1 -0.1)">
       <use xlink:href="#ArialMT-56"/>
      </g>
     </g>
    </g>
    <g id="xtick_6">
     <g id="line2d_6">
      <path clip-path="url(#p4839539700)" d="M 673.104261 348.095625 
L 673.104261 21.935625 
" style="fill:none;stroke:#cccccc;stroke-linecap:round;stroke-width:0.8;"/>
     </g>
     <g id="text_6">
      <!-- 10 -->
      <defs>
       <path d="M 37.25 0 
L 28.46875 0 
L 28.46875 56 
Q 25.296875 52.984375 20.140625 49.953125 
Q 14.984375 46.921875 10.890625 45.40625 
L 10.890625 53.90625 
Q 18.265625 57.375 23.78125 62.296875 
Q 29.296875 67.234375 31.59375 71.875 
L 37.25 71.875 
z
" id="ArialMT-49"/>
      </defs>
      <g style="fill:#262626;" transform="translate(667.543324 362.253438)scale(0.1 -0.1)">
       <use xlink:href="#ArialMT-49"/>
       <use x="55.615234" xlink:href="#ArialMT-48"/>
      </g>
     </g>
    </g>
   </g>
   <g id="matplotlib.axis_2">
    <g id="ytick_1">
     <g id="line2d_7">
      <path clip-path="url(#p4839539700)" d="M 33.940625 337.625727 
L 703.540625 337.625727 
" style="fill:none;stroke:#cccccc;stroke-linecap:round;stroke-width:0.8;"/>
     </g>
     <g id="text_7">
      <!-- −2.0 -->
      <defs>
       <path d="M 52.828125 31.203125 
L 5.5625 31.203125 
L 5.5625 39.40625 
L 52.828125 39.40625 
z
" id="ArialMT-8722"/>
       <path d="M 9.078125 0 
L 9.078125 10.015625 
L 19.09375 10.015625 
L 19.09375 0 
z
" id="ArialMT-46"/>
      </defs>
      <g style="fill:#262626;" transform="translate(7.2 341.204633)scale(0.1 -0.1)">
       <use xlink:href="#ArialMT-8722"/>
       <use x="58.398438" xlink:href="#ArialMT-50"/>
       <use x="114.013672" xlink:href="#ArialMT-46"/>
       <use x="141.796875" xlink:href="#ArialMT-48"/>
      </g>
     </g>
    </g>
    <g id="ytick_2">
     <g id="line2d_8">
      <path clip-path="url(#p4839539700)" d="M 33.940625 299.035271 
L 703.540625 299.035271 
" style="fill:none;stroke:#cccccc;stroke-linecap:round;stroke-width:0.8;"/>
     </g>
     <g id="text_8">
      <!-- −1.5 -->
      <defs>
       <path d="M 4.15625 18.75 
L 13.375 19.53125 
Q 14.40625 12.796875 18.140625 9.390625 
Q 21.875 6 27.15625 6 
Q 33.5 6 37.890625 10.78125 
Q 42.28125 15.578125 42.28125 23.484375 
Q 42.28125 31 38.0625 35.34375 
Q 33.84375 39.703125 27 39.703125 
Q 22.75 39.703125 19.328125 37.765625 
Q 15.921875 35.84375 13.96875 32.765625 
L 5.71875 33.84375 
L 12.640625 70.609375 
L 48.25 70.609375 
L 48.25 62.203125 
L 19.671875 62.203125 
L 15.828125 42.96875 
Q 22.265625 47.46875 29.34375 47.46875 
Q 38.71875 47.46875 45.15625 40.96875 
Q 51.609375 34.46875 51.609375 24.265625 
Q 51.609375 14.546875 45.953125 7.46875 
Q 39.0625 -1.21875 27.15625 -1.21875 
Q 17.390625 -1.21875 11.203125 4.25 
Q 5.03125 9.71875 4.15625 18.75 
z
" id="ArialMT-53"/>
      </defs>
      <g style="fill:#262626;" transform="translate(7.2 302.614177)scale(0.1 -0.1)">
       <use xlink:href="#ArialMT-8722"/>
       <use x="58.398438" xlink:href="#ArialMT-49"/>
       <use x="114.013672" xlink:href="#ArialMT-46"/>
       <use x="141.796875" xlink:href="#ArialMT-53"/>
      </g>
     </g>
    </g>
    <g id="ytick_3">
     <g id="line2d_9">
      <path clip-path="url(#p4839539700)" d="M 33.940625 260.444815 
L 703.540625 260.444815 
" style="fill:none;stroke:#cccccc;stroke-linecap:round;stroke-width:0.8;"/>
     </g>
     <g id="text_9">
      <!-- −1.0 -->
      <g style="fill:#262626;" transform="translate(7.2 264.023721)scale(0.1 -0.1)">
       <use xlink:href="#ArialMT-8722"/>
       <use x="58.398438" xlink:href="#ArialMT-49"/>
       <use x="114.013672" xlink:href="#ArialMT-46"/>
       <use x="141.796875" xlink:href="#ArialMT-48"/>
      </g>
     </g>
    </g>
    <g id="ytick_4">
     <g id="line2d_10">
      <path clip-path="url(#p4839539700)" d="M 33.940625 221.854359 
L 703.540625 221.854359 
" style="fill:none;stroke:#cccccc;stroke-linecap:round;stroke-width:0.8;"/>
     </g>
     <g id="text_10">
      <!-- −0.5 -->
      <g style="fill:#262626;" transform="translate(7.2 225.433265)scale(0.1 -0.1)">
       <use xlink:href="#ArialMT-8722"/>
       <use x="58.398438" xlink:href="#ArialMT-48"/>
       <use x="114.013672" xlink:href="#ArialMT-46"/>
       <use x="141.796875" xlink:href="#ArialMT-53"/>
      </g>
     </g>
    </g>
    <g id="ytick_5">
     <g id="line2d_11">
      <path clip-path="url(#p4839539700)" d="M 33.940625 183.263903 
L 703.540625 183.263903 
" style="fill:none;stroke:#cccccc;stroke-linecap:round;stroke-width:0.8;"/>
     </g>
     <g id="text_11">
      <!-- 0.0 -->
      <g style="fill:#262626;" transform="translate(13.040625 186.842809)scale(0.1 -0.1)">
       <use xlink:href="#ArialMT-48"/>
       <use x="55.615234" xlink:href="#ArialMT-46"/>
       <use x="83.398438" xlink:href="#ArialMT-48"/>
      </g>
     </g>
    </g>
    <g id="ytick_6">
     <g id="line2d_12">
      <path clip-path="url(#p4839539700)" d="M 33.940625 144.673446 
L 703.540625 144.673446 
" style="fill:none;stroke:#cccccc;stroke-linecap:round;stroke-width:0.8;"/>
     </g>
     <g id="text_12">
      <!-- 0.5 -->
      <g style="fill:#262626;" transform="translate(13.040625 148.252353)scale(0.1 -0.1)">
       <use xlink:href="#ArialMT-48"/>
       <use x="55.615234" xlink:href="#ArialMT-46"/>
       <use x="83.398438" xlink:href="#ArialMT-53"/>
      </g>
     </g>
    </g>
    <g id="ytick_7">
     <g id="line2d_13">
      <path clip-path="url(#p4839539700)" d="M 33.940625 106.08299 
L 703.540625 106.08299 
" style="fill:none;stroke:#cccccc;stroke-linecap:round;stroke-width:0.8;"/>
     </g>
     <g id="text_13">
      <!-- 1.0 -->
      <g style="fill:#262626;" transform="translate(13.040625 109.661897)scale(0.1 -0.1)">
       <use xlink:href="#ArialMT-49"/>
       <use x="55.615234" xlink:href="#ArialMT-46"/>
       <use x="83.398438" xlink:href="#ArialMT-48"/>
      </g>
     </g>
    </g>
    <g id="ytick_8">
     <g id="line2d_14">
      <path clip-path="url(#p4839539700)" d="M 33.940625 67.492534 
L 703.540625 67.492534 
" style="fill:none;stroke:#cccccc;stroke-linecap:round;stroke-width:0.8;"/>
     </g>
     <g id="text_14">
      <!-- 1.5 -->
      <g style="fill:#262626;" transform="translate(13.040625 71.07144)scale(0.1 -0.1)">
       <use xlink:href="#ArialMT-49"/>
       <use x="55.615234" xlink:href="#ArialMT-46"/>
       <use x="83.398438" xlink:href="#ArialMT-53"/>
      </g>
     </g>
    </g>
    <g id="ytick_9">
     <g id="line2d_15">
      <path clip-path="url(#p4839539700)" d="M 33.940625 28.902078 
L 703.540625 28.902078 
" style="fill:none;stroke:#cccccc;stroke-linecap:round;stroke-width:0.8;"/>
     </g>
     <g id="text_15">
      <!-- 2.0 -->
      <g style="fill:#262626;" transform="translate(13.040625 32.480984)scale(0.1 -0.1)">
       <use xlink:href="#ArialMT-50"/>
       <use x="55.615234" xlink:href="#ArialMT-46"/>
       <use x="83.398438" xlink:href="#ArialMT-48"/>
      </g>
     </g>
    </g>
   </g>
   <g id="PathCollection_1">
    <defs>
     <path d="M 0 3.162278 
C 0.838646 3.162278 1.643056 2.82908 2.236068 2.236068 
C 2.82908 1.643056 3.162278 0.838646 3.162278 0 
C 3.162278 -0.838646 2.82908 -1.643056 2.236068 -2.236068 
C 1.643056 -2.82908 0.838646 -3.162278 0 -3.162278 
C -0.838646 -3.162278 -1.643056 -2.82908 -2.236068 -2.236068 
C -2.82908 -1.643056 -3.162278 -0.838646 -3.162278 0 
C -3.162278 0.838646 -2.82908 1.643056 -2.236068 2.236068 
C -1.643056 2.82908 -0.838646 3.162278 0 3.162278 
z
" id="m85efc02195" style="stroke:#4c72b0;stroke-width:0.75;"/>
    </defs>
    <g clip-path="url(#p4839539700)">
     <use style="fill:#4c72b0;stroke:#4c72b0;stroke-width:0.75;" x="503.585278" xlink:href="#m85efc02195" y="305.95492"/>
     <use style="fill:#4c72b0;stroke:#4c72b0;stroke-width:0.75;" x="203.074342" xlink:href="#m85efc02195" y="153.90449"/>
     <use style="fill:#4c72b0;stroke:#4c72b0;stroke-width:0.75;" x="372.593325" xlink:href="#m85efc02195" y="123.370551"/>
     <use style="fill:#4c72b0;stroke:#4c72b0;stroke-width:0.75;" x="341.771694" xlink:href="#m85efc02195" y="45.68483"/>
     <use style="fill:#4c72b0;stroke:#4c72b0;stroke-width:0.75;" x="287.833833" xlink:href="#m85efc02195" y="293.550561"/>
     <use style="fill:#4c72b0;stroke:#4c72b0;stroke-width:0.75;" x="465.058247" xlink:href="#m85efc02195" y="164.858555"/>
     <use style="fill:#4c72b0;stroke:#4c72b0;stroke-width:0.75;" x="149.13648" xlink:href="#m85efc02195" y="194.242699"/>
     <use style="fill:#4c72b0;stroke:#4c72b0;stroke-width:0.75;" x="195.368941" xlink:href="#m85efc02195" y="173.25087"/>
     <use style="fill:#4c72b0;stroke:#4c72b0;stroke-width:0.75;" x="626.871801" xlink:href="#m85efc02195" y="161.308918"/>
     <use style="fill:#4c72b0;stroke:#4c72b0;stroke-width:0.75;" x="603.755599" xlink:href="#m85efc02195" y="74.18373"/>
     <use style="fill:#4c72b0;stroke:#4c72b0;stroke-width:0.75;" x="557.523139" xlink:href="#m85efc02195" y="144.741739"/>
     <use style="fill:#4c72b0;stroke:#4c72b0;stroke-width:0.75;" x="372.593325" xlink:href="#m85efc02195" y="118.892837"/>
     <use style="fill:#4c72b0;stroke:#4c72b0;stroke-width:0.75;" x="241.601387" xlink:href="#m85efc02195" y="239.920776"/>
     <use style="fill:#4c72b0;stroke:#4c72b0;stroke-width:0.75;" x="295.539248" xlink:href="#m85efc02195" y="255.901509"/>
     <use style="fill:#4c72b0;stroke:#4c72b0;stroke-width:0.75;" x="156.841895" xlink:href="#m85efc02195" y="210.906925"/>
     <use style="fill:#4c72b0;stroke:#4c72b0;stroke-width:0.75;" x="264.717618" xlink:href="#m85efc02195" y="315.667012"/>
     <use style="fill:#4c72b0;stroke:#4c72b0;stroke-width:0.75;" x="118.31485" xlink:href="#m85efc02195" y="76.271061"/>
     <use style="fill:#4c72b0;stroke:#4c72b0;stroke-width:0.75;" x="596.050199" xlink:href="#m85efc02195" y="53.987948"/>
     <use style="fill:#4c72b0;stroke:#4c72b0;stroke-width:0.75;" x="187.663526" xlink:href="#m85efc02195" y="182.248217"/>
     <use style="fill:#4c72b0;stroke:#4c72b0;stroke-width:0.75;" x="495.879877" xlink:href="#m85efc02195" y="279.465025"/>
    </g>
   </g>
   <g id="PolyCollection_1">
    <defs>
     <path d="M 64.376989 -177.915761 
L 64.376989 -197.538372 
L 72.082397 -244.325916 
L 79.787806 -285.201241 
L 87.493215 -315.355685 
L 95.198623 -331.847815 
L 102.904031 -333.999035 
L 110.609442 -323.008756 
L 118.31485 -301.371219 
L 126.020257 -272.653968 
L 133.725665 -241.140175 
L 141.431073 -211.212128 
L 149.13648 -186.978122 
L 156.841895 -171.71876 
L 164.547303 -166.733832 
L 172.252711 -170.968316 
L 179.958118 -181.960253 
L 187.663526 -196.74034 
L 195.368941 -211.988275 
L 203.074342 -223.589318 
L 210.779756 -227.209529 
L 218.485157 -220.155196 
L 226.190572 -202.25023 
L 233.895972 -175.518025 
L 241.601387 -143.59078 
L 249.306802 -111.200957 
L 257.012203 -83.549615 
L 264.717618 -65.272139 
L 272.423018 -59.454906 
L 280.128433 -67.612811 
L 287.833833 -89.946959 
L 295.539248 -124.984434 
L 303.244649 -169.031495 
L 310.950064 -216.603236 
L 318.655464 -261.686944 
L 326.360894 -298.764178 
L 334.066294 -323.679781 
L 341.771694 -334.396541 
L 349.477095 -331.065416 
L 357.182524 -315.454086 
L 364.887925 -290.503153 
L 372.593325 -260.135208 
L 380.298755 -228.739464 
L 388.004155 -200.622091 
L 395.709556 -179.667951 
L 403.414956 -168.50526 
L 411.120385 -167.44029 
L 418.825786 -174.714923 
L 426.531186 -187.592283 
L 434.236616 -202.991982 
L 441.942016 -217.323704 
L 449.647417 -226.200025 
L 457.352817 -225.734774 
L 465.058247 -214.224478 
L 472.763647 -192.443591 
L 480.469047 -163.124683 
L 488.174448 -130.400862 
L 495.879877 -99.285771 
L 503.585278 -74.901103 
L 511.290678 -61.334873 
L 518.996108 -60.999775 
L 526.701508 -74.882729 
L 534.406908 -102.592579 
L 542.112309 -141.801914 
L 549.817738 -187.975366 
L 557.523139 -235.264463 
L 565.228539 -277.751891 
L 572.93394 -310.356273 
L 580.63934 -329.706356 
L 588.344799 -334.679858 
L 596.050199 -326.154387 
L 603.755599 -306.393208 
L 611.461 -278.763166 
L 619.1664 -247.453816 
L 626.871801 -216.867452 
L 634.577201 -191.191401 
L 642.28266 -173.953358 
L 649.98806 -166.9316 
L 657.69346 -169.490502 
L 665.398861 -179.360399 
L 673.104261 -193.632326 
L 673.104261 -174.137038 
L 673.104261 -174.137038 
L 665.398861 -157.994695 
L 657.69346 -147.606454 
L 649.98806 -146.304999 
L 642.28266 -155.124793 
L 634.577201 -173.341357 
L 626.871801 -199.256427 
L 619.1664 -230.043578 
L 611.461 -261.578303 
L 603.755599 -289.187658 
L 596.050199 -308.485066 
L 588.344799 -315.931905 
L 580.63934 -309.518478 
L 572.93394 -289.183517 
L 565.228539 -256.59255 
L 557.523139 -214.871184 
L 549.817738 -168.53611 
L 542.112309 -123.057908 
L 534.406908 -83.879827 
L 526.701508 -55.649459 
L 518.996108 -41.595537 
L 511.290678 -42.633272 
L 503.585278 -57.076898 
L 495.879877 -81.479581 
L 488.174448 -111.810581 
L 480.469047 -143.753567 
L 472.763647 -172.701987 
L 465.058247 -194.438539 
L 457.352817 -206.216954 
L 449.647417 -207.410991 
L 441.942016 -199.285647 
L 434.236616 -184.509118 
L 426.531186 -167.28988 
L 418.825786 -152.911885 
L 411.120385 -145.887325 
L 403.414956 -148.630366 
L 395.709556 -161.360581 
L 388.004155 -182.91007 
L 380.298755 -211.193322 
L 372.593325 -242.827851 
L 364.887925 -273.351499 
L 357.182524 -298.12762 
L 349.477095 -313.040471 
L 341.771694 -315.076527 
L 334.066294 -302.996096 
L 326.360894 -277.474629 
L 318.655464 -240.776546 
L 310.950064 -196.596335 
L 303.244649 -149.925548 
L 295.539248 -106.347533 
L 287.833833 -71.051832 
L 280.128433 -48.215234 
L 272.423018 -40.23989 
L 264.717618 -46.970051 
L 257.012203 -65.864157 
L 249.306802 -93.133671 
L 241.601387 -124.649447 
L 233.895972 -155.948827 
L 226.190572 -182.459623 
L 218.485157 -200.42885 
L 210.779756 -207.92939 
L 203.074342 -205.159284 
L 195.368941 -193.975861 
L 187.663526 -177.625325 
L 179.958118 -160.907466 
L 172.252711 -149.030954 
L 164.547303 -145.757007 
L 156.841895 -152.568819 
L 149.13648 -169.015373 
L 141.431073 -193.572581 
L 133.725665 -223.679919 
L 126.020257 -255.43596 
L 118.31485 -284.199085 
L 110.609442 -305.477667 
L 102.904031 -315.514682 
L 95.198623 -311.940575 
L 87.493215 -294.305905 
L 79.787806 -263.961541 
L 72.082397 -223.747597 
L 64.376989 -177.915761 
z
" id="me5997ce105" style="stroke:#ccb974;stroke-opacity:0.3;"/>
    </defs>
    <g clip-path="url(#p4839539700)">
     <use style="fill:#ccb974;fill-opacity:0.3;stroke:#ccb974;stroke-opacity:0.3;" x="0" xlink:href="#me5997ce105" y="371.440938"/>
    </g>
   </g>
   <g id="line2d_16">
    <path clip-path="url(#p4839539700)" d="M 64.376989 192.997604 
L 72.082397 134.275181 
L 79.787806 99.767385 
L 87.493215 62.509325 
L 95.198623 51.904822 
L 102.904031 52.101919 
L 110.609442 52.285077 
L 118.31485 75.455927 
L 126.020257 104.181301 
L 133.725665 143.686305 
L 141.431073 167.803358 
L 149.13648 193.849485 
L 156.841895 208.217373 
L 164.547303 215.135612 
L 172.252711 210.86817 
L 179.958118 199.264662 
L 187.663526 178.072816 
L 195.368941 167.822042 
L 203.074342 154.457474 
L 210.779756 154.926921 
L 218.485157 159.845348 
L 226.190572 176.4285 
L 233.895972 204.530809 
L 241.601387 235.412736 
L 249.306802 272.938963 
L 257.012203 300.243587 
L 264.717618 312.564193 
L 272.423018 318.885153 
L 280.128433 304.574505 
L 287.833833 294.206247 
L 295.539248 253.683878 
L 303.244649 214.685077 
L 310.950064 170.21053 
L 318.655464 119.82834 
L 326.360894 89.186132 
L 334.066294 54.875271 
L 341.771694 44.63932 
L 349.477095 52.525546 
L 357.182524 60.153905 
L 364.887925 87.074676 
L 372.593325 116.837663 
L 380.298755 148.695794 
L 388.004155 172.587158 
L 395.709556 200.681726 
L 403.414956 208.015031 
L 411.120385 215.974633 
L 418.825786 212.753532 
L 426.531186 189.340669 
L 434.236616 180.254801 
L 441.942016 168.126372 
L 449.647417 157.678891 
L 457.352817 157.932386 
L 465.058247 171.446257 
L 472.763647 192.16307 
L 480.469047 212.315099 
L 488.174448 249.541731 
L 495.879877 281.167731 
L 503.585278 301.930505 
L 511.290678 315.715684 
L 518.996108 320.542242 
L 526.701508 305.151397 
L 534.406908 273.122839 
L 542.112309 236.44607 
L 549.817738 196.850296 
L 557.523139 144.828105 
L 565.228539 104.950497 
L 572.93394 74.6582 
L 580.63934 50.438804 
L 588.344799 46.092181 
L 596.050199 55.495471 
L 603.755599 70.49606 
L 611.461 103.074091 
L 619.1664 135.963902 
L 626.871801 156.780216 
L 634.577201 190.636984 
L 642.28266 211.359109 
L 649.98806 214.134324 
L 657.69346 207.979165 
L 665.398861 202.600653 
L 673.104261 181.156223 
" style="fill:none;stroke:#c44e52;stroke-linecap:round;stroke-opacity:0.1;stroke-width:1.5;"/>
   </g>
   <g id="line2d_17">
    <path clip-path="url(#p4839539700)" d="M 64.376989 180.70911 
L 72.082397 137.203358 
L 79.787806 96.202654 
L 87.493215 65.778024 
L 95.198623 52.196704 
L 102.904031 52.495506 
L 110.609442 59.14413 
L 118.31485 81.355109 
L 126.020257 104.932307 
L 133.725665 140.34356 
L 141.431073 167.756367 
L 149.13648 197.608745 
L 156.841895 206.091512 
L 164.547303 210.565923 
L 172.252711 212.760561 
L 179.958118 201.935704 
L 187.663526 189.262205 
L 195.368941 166.384249 
L 203.074342 155.27662 
L 210.779756 153.683982 
L 218.485157 164.565219 
L 226.190572 180.129207 
L 233.895972 206.978547 
L 241.601387 236.889906 
L 249.306802 273.075989 
L 257.012203 300.108209 
L 264.717618 317.582962 
L 272.423018 322.796887 
L 280.128433 310.94168 
L 287.833833 281.52481 
L 295.539248 253.46682 
L 303.244649 209.517008 
L 310.950064 161.819883 
L 318.655464 127.381023 
L 326.360894 84.391712 
L 334.066294 66.463245 
L 341.771694 44.267529 
L 349.477095 46.979614 
L 357.182524 59.560516 
L 364.887925 86.890276 
L 372.593325 116.783609 
L 380.298755 148.871156 
L 388.004155 182.53031 
L 395.709556 203.565777 
L 403.414956 212.377456 
L 411.120385 218.067579 
L 418.825786 219.049023 
L 426.531186 198.140884 
L 434.236616 179.609082 
L 441.942016 157.148655 
L 449.647417 147.590325 
L 457.352817 158.819124 
L 465.058247 167.936462 
L 472.763647 188.634561 
L 480.469047 218.937655 
L 488.174448 250.783731 
L 495.879877 276.204276 
L 503.585278 310.846333 
L 511.290678 311.735708 
L 518.996108 312.85418 
L 526.701508 305.387412 
L 534.406908 273.693235 
L 542.112309 234.85402 
L 549.817738 191.681523 
L 557.523139 153.188574 
L 565.228539 106.276398 
L 572.93394 72.045804 
L 580.63934 54.336544 
L 588.344799 46.730552 
L 596.050199 53.91346 
L 603.755599 72.112905 
L 611.461 93.452883 
L 619.1664 131.732591 
L 626.871801 158.856638 
L 634.577201 194.416152 
L 642.28266 202.941598 
L 649.98806 216.582554 
L 657.69346 210.577437 
L 665.398861 210.106105 
L 673.104261 189.062685 
" style="fill:none;stroke:#c44e52;stroke-linecap:round;stroke-opacity:0.1;stroke-width:1.5;"/>
   </g>
   <g id="line2d_18">
    <path clip-path="url(#p4839539700)" d="M 64.376989 186.070264 
L 72.082397 136.459625 
L 79.787806 98.918484 
L 87.493215 61.396319 
L 95.198623 48.104591 
L 102.904031 45.700545 
L 110.609442 58.031841 
L 118.31485 71.244719 
L 126.020257 104.331889 
L 133.725665 128.924883 
L 141.431073 162.589039 
L 149.13648 183.545986 
L 156.841895 196.66571 
L 164.547303 220.251577 
L 172.252711 200.939981 
L 179.958118 198.594911 
L 187.663526 187.998981 
L 195.368941 172.899873 
L 203.074342 157.34345 
L 210.779756 149.373175 
L 218.485157 156.604051 
L 226.190572 189.234378 
L 233.895972 206.183797 
L 241.601387 241.089226 
L 249.306802 270.851632 
L 257.012203 293.012054 
L 264.717618 316.379789 
L 272.423018 321.386524 
L 280.128433 308.042361 
L 287.833833 289.237769 
L 295.539248 259.348885 
L 303.244649 220.06254 
L 310.950064 168.873023 
L 318.655464 117.673282 
L 326.360894 82.071373 
L 334.066294 59.986618 
L 341.771694 50.880529 
L 349.477095 52.548244 
L 357.182524 66.826911 
L 364.887925 91.265844 
L 372.593325 108.874721 
L 380.298755 138.192863 
L 388.004155 170.031348 
L 395.709556 198.705115 
L 403.414956 208.981828 
L 411.120385 215.370687 
L 418.825786 208.619969 
L 426.531186 196.299607 
L 434.236616 183.190508 
L 441.942016 167.167305 
L 449.647417 155.438074 
L 457.352817 163.882255 
L 465.058247 168.019071 
L 472.763647 183.918035 
L 480.469047 221.2841 
L 488.174448 251.508303 
L 495.879877 283.417151 
L 503.585278 306.042621 
L 511.290678 322.554845 
L 518.996108 321.813482 
L 526.701508 298.5264 
L 534.406908 272.304383 
L 542.112309 240.118917 
L 549.817738 195.337809 
L 557.523139 153.415453 
L 565.228539 108.371899 
L 572.93394 77.501266 
L 580.63934 50.268205 
L 588.344799 37.743574 
L 596.050199 58.010192 
L 603.755599 74.175201 
L 611.461 101.53847 
L 619.1664 127.345205 
L 626.871801 157.544837 
L 634.577201 190.977985 
L 642.28266 202.112658 
L 649.98806 215.359611 
L 657.69346 212.035736 
L 665.398861 208.410355 
L 673.104261 194.456998 
" style="fill:none;stroke:#c44e52;stroke-linecap:round;stroke-opacity:0.1;stroke-width:1.5;"/>
   </g>
   <g id="line2d_19">
    <path clip-path="url(#p4839539700)" d="M 64.376989 178.282207 
L 72.082397 139.655344 
L 79.787806 91.480478 
L 87.493215 63.959104 
L 95.198623 49.475667 
L 102.904031 49.426959 
L 110.609442 59.950349 
L 118.31485 79.478566 
L 126.020257 110.390809 
L 133.725665 138.364346 
L 141.431073 169.330764 
L 149.13648 196.834607 
L 156.841895 215.100251 
L 164.547303 217.3036 
L 172.252711 212.193351 
L 179.958118 201.628337 
L 187.663526 189.785748 
L 195.368941 169.284512 
L 203.074342 158.237315 
L 210.779756 157.135197 
L 218.485157 157.310261 
L 226.190572 168.107935 
L 233.895972 203.17574 
L 241.601387 244.483067 
L 249.306802 260.344762 
L 257.012203 298.176167 
L 264.717618 317.401322 
L 272.423018 325.374329 
L 280.128433 314.733833 
L 287.833833 286.219126 
L 295.539248 254.223503 
L 303.244649 208.081725 
L 310.950064 172.35439 
L 318.655464 121.527218 
L 326.360894 71.53202 
L 334.066294 49.926234 
L 341.771694 42.698914 
L 349.477095 44.594466 
L 357.182524 58.348207 
L 364.887925 87.546561 
L 372.593325 126.241601 
L 380.298755 145.848256 
L 388.004155 179.55881 
L 395.709556 206.891067 
L 403.414956 210.05356 
L 411.120385 216.338088 
L 418.825786 215.467995 
L 426.531186 192.286392 
L 434.236616 179.041537 
L 441.942016 164.542523 
L 449.647417 149.697656 
L 457.352817 151.064992 
L 465.058247 171.150073 
L 472.763647 185.855749 
L 480.469047 218.554307 
L 488.174448 256.398153 
L 495.879877 285.782996 
L 503.585278 304.684747 
L 511.290678 317.081001 
L 518.996108 317.962582 
L 526.701508 311.05356 
L 534.406908 272.470612 
L 542.112309 232.584718 
L 549.817738 188.450703 
L 557.523139 148.394846 
L 565.228539 101.724094 
L 572.93394 74.170205 
L 580.63934 59.063403 
L 588.344799 48.646796 
L 596.050199 52.803213 
L 603.755599 76.9898 
L 611.461 103.035246 
L 619.1664 127.316342 
L 626.871801 164.17519 
L 634.577201 188.626146 
L 642.28266 212.389617 
L 649.98806 221.636436 
L 657.69346 213.82796 
L 665.398861 207.674569 
L 673.104261 183.207916 
" style="fill:none;stroke:#c44e52;stroke-linecap:round;stroke-opacity:0.1;stroke-width:1.5;"/>
   </g>
   <g id="line2d_20">
    <path clip-path="url(#p4839539700)" d="M 64.376989 180.845578 
L 72.082397 130.963069 
L 79.787806 88.645049 
L 87.493215 57.575662 
L 95.198623 48.564689 
L 102.904031 43.894874 
L 110.609442 56.277501 
L 118.31485 73.212451 
L 126.020257 105.392056 
L 133.725665 136.958794 
L 141.431073 173.239992 
L 149.13648 202.432555 
L 156.841895 204.547306 
L 164.547303 213.888549 
L 172.252711 209.574188 
L 179.958118 201.777433 
L 187.663526 186.528254 
L 195.368941 167.865009 
L 203.074342 158.882492 
L 210.779756 152.924422 
L 218.485157 160.781271 
L 226.190572 180.084131 
L 233.895972 211.512178 
L 241.601387 231.407335 
L 249.306802 270.328574 
L 257.012203 300.191926 
L 264.717618 321.689144 
L 272.423018 326.39843 
L 280.128433 316.884529 
L 287.833833 287.863095 
L 295.539248 255.159175 
L 303.244649 208.285978 
L 310.950064 158.913785 
L 318.655464 117.825163 
L 326.360894 80.783158 
L 334.066294 60.664119 
L 341.771694 45.7981 
L 349.477095 49.357678 
L 357.182524 62.148981 
L 364.887925 83.173044 
L 372.593325 120.868707 
L 380.298755 153.113432 
L 388.004155 183.343611 
L 395.709556 196.64148 
L 403.414956 211.634044 
L 411.120385 215.753154 
L 418.825786 202.609872 
L 426.531186 188.71208 
L 434.236616 182.061533 
L 441.942016 162.196209 
L 449.647417 161.521578 
L 457.352817 162.286334 
L 465.058247 164.417096 
L 472.763647 190.722901 
L 480.469047 220.345645 
L 488.174448 247.193758 
L 495.879877 272.500063 
L 503.585278 308.825781 
L 511.290678 316.525381 
L 518.996108 328.344153 
L 526.701508 309.003326 
L 534.406908 282.375403 
L 542.112309 235.419062 
L 549.817738 195.344711 
L 557.523139 140.813889 
L 565.228539 102.779127 
L 572.93394 61.859978 
L 580.63934 47.084686 
L 588.344799 45.720961 
L 596.050199 48.941071 
L 603.755599 68.702571 
L 611.461 103.71111 
L 619.1664 130.400677 
L 626.871801 177.768216 
L 634.577201 182.317181 
L 642.28266 202.996135 
L 649.98806 213.727173 
L 657.69346 205.931889 
L 665.398861 211.725048 
L 673.104261 190.33753 
" style="fill:none;stroke:#c44e52;stroke-linecap:round;stroke-opacity:0.1;stroke-width:1.5;"/>
   </g>
   <g id="line2d_21">
    <path clip-path="url(#p4839539700)" d="M 64.376989 185.654615 
L 72.082397 145.186564 
L 79.787806 104.352333 
L 87.493215 72.259343 
L 95.198623 40.695806 
L 102.904031 39.41751 
L 110.609442 54.961795 
L 118.31485 78.029385 
L 126.020257 99.750732 
L 133.725665 141.040824 
L 141.431073 168.991465 
L 149.13648 183.495818 
L 156.841895 215.180138 
L 164.547303 211.458584 
L 172.252711 210.995811 
L 179.958118 197.391016 
L 187.663526 185.150062 
L 195.368941 163.37458 
L 203.074342 144.00728 
L 210.779756 157.355712 
L 218.485157 151.41612 
L 226.190572 173.305537 
L 233.895972 203.507337 
L 241.601387 235.601787 
L 249.306802 265.347895 
L 257.012203 291.77746 
L 264.717618 317.455496 
L 272.423018 319.772458 
L 280.128433 312.73987 
L 287.833833 290.9708 
L 295.539248 257.59794 
L 303.244649 210.708243 
L 310.950064 161.990671 
L 318.655464 126.250765 
L 326.360894 87.084668 
L 334.066294 65.99194 
L 341.771694 46.392537 
L 349.477095 50.245921 
L 357.182524 57.684249 
L 364.887925 92.619973 
L 372.593325 118.638061 
L 380.298755 152.635829 
L 388.004155 175.987339 
L 395.709556 194.387472 
L 403.414956 208.894943 
L 411.120385 209.549125 
L 418.825786 205.643537 
L 426.531186 195.116498 
L 434.236616 177.942753 
L 441.942016 159.501339 
L 449.647417 149.701918 
L 457.352817 151.898233 
L 465.058247 166.929431 
L 472.763647 192.287183 
L 480.469047 219.24591 
L 488.174448 255.04194 
L 495.879877 276.031846 
L 503.585278 303.495237 
L 511.290678 314.955956 
L 518.996108 322.256458 
L 526.701508 307.278134 
L 534.406908 283.70112 
L 542.112309 239.061423 
L 549.817738 195.990236 
L 557.523139 150.175583 
L 565.228539 108.540704 
L 572.93394 73.408232 
L 580.63934 50.609062 
L 588.344799 50.016391 
L 596.050199 47.942254 
L 603.755599 73.962306 
L 611.461 101.741593 
L 619.1664 129.798125 
L 626.871801 162.078275 
L 634.577201 190.223424 
L 642.28266 205.603825 
L 649.98806 220.855882 
L 657.69346 218.024941 
L 665.398861 200.212575 
L 673.104261 192.41199 
" style="fill:none;stroke:#c44e52;stroke-linecap:round;stroke-opacity:0.1;stroke-width:1.5;"/>
   </g>
   <g id="line2d_22">
    <path clip-path="url(#p4839539700)" d="M 64.376989 185.599024 
L 72.082397 148.013542 
L 79.787806 107.918692 
L 87.493215 68.688752 
L 95.198623 52.351856 
L 102.904031 50.303361 
L 110.609442 63.418362 
L 118.31485 78.817561 
L 126.020257 109.929805 
L 133.725665 134.999541 
L 141.431073 171.75708 
L 149.13648 194.260887 
L 156.841895 216.47889 
L 164.547303 227.243253 
L 172.252711 219.034651 
L 179.958118 207.297137 
L 187.663526 185.06731 
L 195.368941 164.458469 
L 203.074342 155.540655 
L 210.779756 146.223566 
L 218.485157 157.383873 
L 226.190572 173.04678 
L 233.895972 205.235128 
L 241.601387 239.640146 
L 249.306802 279.74146 
L 257.012203 311.304914 
L 264.717618 325.77582 
L 272.423018 321.545788 
L 280.128433 314.192446 
L 287.833833 287.734681 
L 295.539248 248.9395 
L 303.244649 220.743988 
L 310.950064 177.174266 
L 318.655464 135.173982 
L 326.360894 99.126327 
L 334.066294 70.143462 
L 341.771694 56.104694 
L 349.477095 51.492116 
L 357.182524 66.175015 
L 364.887925 93.097866 
L 372.593325 123.371407 
L 380.298755 157.710306 
L 388.004155 182.503188 
L 395.709556 200.281118 
L 403.414956 225.01178 
L 411.120385 218.149122 
L 418.825786 213.678447 
L 426.531186 197.505388 
L 434.236616 181.852318 
L 441.942016 167.079664 
L 449.647417 153.024567 
L 457.352817 148.585843 
L 465.058247 159.276782 
L 472.763647 184.405113 
L 480.469047 225.609024 
L 488.174448 249.0435 
L 495.879877 281.260078 
L 503.585278 312.212892 
L 511.290678 321.779476 
L 518.996108 315.441991 
L 526.701508 304.96443 
L 534.406908 277.025952 
L 542.112309 238.806767 
L 549.817738 189.467842 
L 557.523139 154.232026 
L 565.228539 114.37389 
L 572.93394 81.002429 
L 580.63934 58.139287 
L 588.344799 54.929371 
L 596.050199 58.90701 
L 603.755599 77.137158 
L 611.461 103.701412 
L 619.1664 127.293211 
L 626.871801 159.970364 
L 634.577201 188.644899 
L 642.28266 208.675475 
L 649.98806 223.016198 
L 657.69346 226.820675 
L 665.398861 211.805057 
L 673.104261 198.998131 
" style="fill:none;stroke:#c44e52;stroke-linecap:round;stroke-opacity:0.1;stroke-width:1.5;"/>
   </g>
   <g id="line2d_23">
    <path clip-path="url(#p4839539700)" d="M 64.376989 180.686406 
L 72.082397 137.555399 
L 79.787806 99.109932 
L 87.493215 71.11925 
L 95.198623 55.765538 
L 102.904031 46.526527 
L 110.609442 60.981377 
L 118.31485 76.94491 
L 126.020257 104.292133 
L 133.725665 127.755422 
L 141.431073 168.781525 
L 149.13648 199.305558 
L 156.841895 204.794165 
L 164.547303 216.234412 
L 172.252711 209.9057 
L 179.958118 193.697463 
L 187.663526 179.208566 
L 195.368941 159.52809 
L 203.074342 153.626766 
L 210.779756 153.59003 
L 218.485157 159.020143 
L 226.190572 178.612248 
L 233.895972 207.734337 
L 241.601387 239.429575 
L 249.306802 271.576066 
L 257.012203 298.862317 
L 264.717618 312.193838 
L 272.423018 315.836139 
L 280.128433 312.486152 
L 287.833833 285.854816 
L 295.539248 252.191785 
L 303.244649 210.093569 
L 310.950064 166.359214 
L 318.655464 120.182143 
L 326.360894 81.86249 
L 334.066294 65.975866 
L 341.771694 49.947589 
L 349.477095 51.364024 
L 357.182524 64.728732 
L 364.887925 88.680186 
L 372.593325 119.12227 
L 380.298755 147.531772 
L 388.004155 180.098597 
L 395.709556 192.859767 
L 403.414956 207.53966 
L 411.120385 206.689887 
L 418.825786 200.943535 
L 426.531186 189.758208 
L 434.236616 169.38853 
L 441.942016 157.772915 
L 449.647417 153.71972 
L 457.352817 155.07263 
L 465.058247 165.759003 
L 472.763647 188.718547 
L 480.469047 215.894948 
L 488.174448 247.957502 
L 495.879877 284.243151 
L 503.585278 294.030339 
L 511.290678 315.082695 
L 518.996108 316.528058 
L 526.701508 298.866052 
L 534.406908 268.797304 
L 542.112309 238.878044 
L 549.817738 194.006644 
L 557.523139 148.751225 
L 565.228539 107.413929 
L 572.93394 70.93542 
L 580.63934 51.179091 
L 588.344799 42.920918 
L 596.050199 49.819819 
L 603.755599 67.862061 
L 611.461 100.244532 
L 619.1664 133.206945 
L 626.871801 156.964115 
L 634.577201 195.874014 
L 642.28266 206.200137 
L 649.98806 215.882063 
L 657.69346 212.110736 
L 665.398861 192.211425 
L 673.104261 179.700889 
" style="fill:none;stroke:#c44e52;stroke-linecap:round;stroke-opacity:0.1;stroke-width:1.5;"/>
   </g>
   <g id="line2d_24">
    <path clip-path="url(#p4839539700)" d="M 64.376989 178.786544 
L 72.082397 145.345404 
L 79.787806 95.15328 
L 87.493215 67.765831 
L 95.198623 41.813579 
L 102.904031 49.019433 
L 110.609442 54.155355 
L 118.31485 80.732453 
L 126.020257 111.178572 
L 133.725665 142.887741 
L 141.431073 167.849293 
L 149.13648 192.682848 
L 156.841895 212.684893 
L 164.547303 215.149431 
L 172.252711 215.604478 
L 179.958118 200.69667 
L 187.663526 191.697259 
L 195.368941 172.470639 
L 203.074342 153.449779 
L 210.779756 148.2611 
L 218.485157 159.644361 
L 226.190572 178.839293 
L 233.895972 205.202781 
L 241.601387 236.543045 
L 249.306802 270.312758 
L 257.012203 295.586377 
L 264.717618 313.451782 
L 272.423018 314.364582 
L 280.128433 313.516371 
L 287.833833 291.412929 
L 295.539248 248.655954 
L 303.244649 204.607067 
L 310.950064 168.09177 
L 318.655464 122.465614 
L 326.360894 81.280851 
L 334.066294 54.989581 
L 341.771694 42.648035 
L 349.477095 38.966768 
L 357.182524 64.270639 
L 364.887925 86.643864 
L 372.593325 123.228603 
L 380.298755 151.517933 
L 388.004155 181.155805 
L 395.709556 198.423887 
L 403.414956 216.231139 
L 411.120385 211.4938 
L 418.825786 211.653781 
L 426.531186 196.263488 
L 434.236616 183.656203 
L 441.942016 162.048607 
L 449.647417 152.782782 
L 457.352817 160.222134 
L 465.058247 167.715022 
L 472.763647 195.730977 
L 480.469047 217.517558 
L 488.174448 254.470637 
L 495.879877 280.108052 
L 503.585278 304.484034 
L 511.290678 319.069866 
L 518.996108 313.660445 
L 526.701508 298.218885 
L 534.406908 272.642002 
L 542.112309 231.961712 
L 549.817738 192.132789 
L 557.523139 142.767525 
L 565.228539 106.09232 
L 572.93394 67.2649 
L 580.63934 49.743821 
L 588.344799 50.01675 
L 596.050199 51.481857 
L 603.755599 75.096916 
L 611.461 102.206531 
L 619.1664 135.535569 
L 626.871801 169.227505 
L 634.577201 187.307444 
L 642.28266 206.139132 
L 649.98806 218.465283 
L 657.69346 209.521661 
L 665.398861 194.363988 
L 673.104261 185.773929 
" style="fill:none;stroke:#c44e52;stroke-linecap:round;stroke-opacity:0.1;stroke-width:1.5;"/>
   </g>
   <g id="line2d_25">
    <path clip-path="url(#p4839539700)" d="M 64.376989 183.897831 
L 72.082397 135.417294 
L 79.787806 92.46013 
L 87.493215 63.130003 
L 95.198623 41.596516 
L 102.904031 37.682215 
L 110.609442 54.660325 
L 118.31485 66.929186 
L 126.020257 106.12645 
L 133.725665 142.052996 
L 141.431073 167.021472 
L 149.13648 189.641705 
L 156.841895 198.802193 
L 164.547303 213.232839 
L 172.252711 212.254453 
L 179.958118 194.976206 
L 187.663526 188.960854 
L 195.368941 163.001664 
L 203.074342 159.793037 
L 210.779756 160.245858 
L 218.485157 163.490658 
L 226.190572 175.908403 
L 233.895972 208.977457 
L 241.601387 233.633352 
L 249.306802 266.500133 
L 257.012203 299.343742 
L 264.717618 325.78042 
L 272.423018 322.061422 
L 280.128433 323.967039 
L 287.833833 299.921702 
L 295.539248 258.552322 
L 303.244649 218.20425 
L 310.950064 164.570725 
L 318.655464 123.270917 
L 326.360894 72.009094 
L 334.066294 46.709942 
L 341.771694 44.905173 
L 349.477095 43.603663 
L 357.182524 63.248066 
L 364.887925 86.136924 
L 372.593325 123.02387 
L 380.298755 150.685565 
L 388.004155 176.461835 
L 395.709556 208.187675 
L 403.414956 211.277487 
L 411.120385 215.198183 
L 418.825786 201.46399 
L 426.531186 193.084469 
L 434.236616 179.173343 
L 441.942016 159.453941 
L 449.647417 150.431592 
L 457.352817 157.022298 
L 465.058247 165.619384 
L 472.763647 189.052451 
L 480.469047 219.682404 
L 488.174448 253.390482 
L 495.879877 277.885811 
L 503.585278 311.320546 
L 511.290678 316.654761 
L 518.996108 319.657532 
L 526.701508 306.785879 
L 534.406908 281.77148 
L 542.112309 247.549029 
L 549.817738 194.696182 
L 557.523139 152.490408 
L 565.228539 104.8997 
L 572.93394 66.325004 
L 580.63934 52.514156 
L 588.344799 41.215948 
L 596.050199 50.3242 
L 603.755599 68.572538 
L 611.461 97.832849 
L 619.1664 127.823152 
L 626.871801 160.651762 
L 634.577201 178.188604 
L 642.28266 204.842751 
L 649.98806 212.222989 
L 657.69346 201.776279 
L 665.398861 199.093091 
L 673.104261 181.792906 
" style="fill:none;stroke:#c44e52;stroke-linecap:round;stroke-opacity:0.1;stroke-width:1.5;"/>
   </g>
   <g id="line2d_26">
    <path clip-path="url(#p4839539700)" d="M 64.376989 183.091314 
L 72.082397 136.154255 
L 79.787806 104.51593 
L 87.493215 73.454696 
L 95.198623 51.653984 
L 102.904031 51.553678 
L 110.609442 54.774772 
L 118.31485 78.228506 
L 126.020257 106.486698 
L 133.725665 142.955532 
L 141.431073 166.132591 
L 149.13648 183.901045 
L 156.841895 209.395203 
L 164.547303 212.705845 
L 172.252711 206.484259 
L 179.958118 199.202632 
L 187.663526 177.7283 
L 195.368941 167.827099 
L 203.074342 156.090271 
L 210.779756 158.065701 
L 218.485157 155.141149 
L 226.190572 179.412686 
L 233.895972 205.799438 
L 241.601387 236.330532 
L 249.306802 268.984014 
L 257.012203 295.95377 
L 264.717618 319.260476 
L 272.423018 326.71543 
L 280.128433 322.814525 
L 287.833833 294.331091 
L 295.539248 255.946781 
L 303.244649 215.73628 
L 310.950064 163.934264 
L 318.655464 120.722687 
L 326.360894 89.231592 
L 334.066294 62.699053 
L 341.771694 50.399581 
L 349.477095 54.664438 
L 357.182524 61.488344 
L 364.887925 90.697942 
L 372.593325 119.766037 
L 380.298755 145.266612 
L 388.004155 181.471746 
L 395.709556 205.281198 
L 403.414956 212.697847 
L 411.120385 214.354763 
L 418.825786 193.920531 
L 426.531186 185.201425 
L 434.236616 184.901921 
L 441.942016 167.886635 
L 449.647417 160.863001 
L 457.352817 157.920236 
L 465.058247 168.97304 
L 472.763647 182.531955 
L 480.469047 217.616711 
L 488.174448 246.400476 
L 495.879877 283.592608 
L 503.585278 308.193243 
L 511.290678 318.017566 
L 518.996108 324.81398 
L 526.701508 308.681091 
L 534.406908 273.148849 
L 542.112309 231.809027 
L 549.817738 200.280757 
L 557.523139 150.763585 
L 565.228539 110.030823 
L 572.93394 76.289435 
L 580.63934 59.119564 
L 588.344799 46.519129 
L 596.050199 57.75997 
L 603.755599 70.358059 
L 611.461 99.643902 
L 619.1664 130.989581 
L 626.871801 157.848807 
L 634.577201 195.596614 
L 642.28266 201.503201 
L 649.98806 213.259326 
L 657.69346 206.790386 
L 665.398861 194.108586 
L 673.104261 178.684939 
" style="fill:none;stroke:#c44e52;stroke-linecap:round;stroke-opacity:0.1;stroke-width:1.5;"/>
   </g>
   <g id="line2d_27">
    <path clip-path="url(#p4839539700)" d="M 64.376989 182.354843 
L 72.082397 128.437335 
L 79.787806 90.085553 
L 87.493215 65.181645 
L 95.198623 48.571351 
L 102.904031 45.51827 
L 110.609442 60.035915 
L 118.31485 74.699971 
L 126.020257 106.346935 
L 133.725665 137.896418 
L 141.431073 163.135537 
L 149.13648 195.191845 
L 156.841895 208.253462 
L 164.547303 215.8328 
L 172.252711 211.778237 
L 179.958118 198.558131 
L 187.663526 186.121577 
L 195.368941 179.260743 
L 203.074342 152.463461 
L 210.779756 147.186916 
L 218.485157 165.3246 
L 226.190572 177.673246 
L 233.895972 209.942425 
L 241.601387 245.859388 
L 249.306802 266.938325 
L 257.012203 294.774132 
L 264.717618 317.453306 
L 272.423018 315.293023 
L 280.128433 309.790224 
L 287.833833 295.587656 
L 295.539248 256.322468 
L 303.244649 201.988695 
L 310.950064 161.048157 
L 318.655464 117.161191 
L 326.360894 73.438309 
L 334.066294 55.018029 
L 341.771694 39.369951 
L 349.477095 50.062404 
L 357.182524 65.325231 
L 364.887925 92.219099 
L 372.593325 118.840886 
L 380.298755 153.207125 
L 388.004155 180.958359 
L 395.709556 196.683171 
L 403.414956 215.496423 
L 411.120385 214.013167 
L 418.825786 205.637449 
L 426.531186 195.415527 
L 434.236616 180.003329 
L 441.942016 160.216075 
L 449.647417 151.121914 
L 457.352817 153.563037 
L 465.058247 166.674378 
L 472.763647 187.918025 
L 480.469047 214.82168 
L 488.174448 252.828642 
L 495.879877 281.94207 
L 503.585278 301.579572 
L 511.290678 315.504344 
L 518.996108 318.152365 
L 526.701508 302.834601 
L 534.406908 275.456104 
L 542.112309 230.320771 
L 549.817738 191.489318 
L 557.523139 138.371504 
L 565.228539 97.969093 
L 572.93394 62.087787 
L 580.63934 52.982378 
L 588.344799 40.569141 
L 596.050199 52.421965 
L 603.755599 73.944669 
L 611.461 100.593284 
L 619.1664 142.978801 
L 626.871801 166.012266 
L 634.577201 182.215787 
L 642.28266 204.199196 
L 649.98806 220.276164 
L 657.69346 215.816906 
L 665.398861 204.929325 
L 673.104261 186.351523 
" style="fill:none;stroke:#c44e52;stroke-linecap:round;stroke-opacity:0.1;stroke-width:1.5;"/>
   </g>
   <g id="line2d_28">
    <path clip-path="url(#p4839539700)" d="M 64.376989 195.25705 
L 72.082397 154.55925 
L 79.787806 109.705234 
L 87.493215 73.075618 
L 95.198623 61.766021 
L 102.904031 52.672306 
L 110.609442 59.668661 
L 118.31485 74.55679 
L 126.020257 110.143127 
L 133.725665 140.709002 
L 141.431073 169.251676 
L 149.13648 196.679702 
L 156.841895 200.399495 
L 164.547303 211.503284 
L 172.252711 206.920291 
L 179.958118 195.978375 
L 187.663526 176.313717 
L 195.368941 162.704036 
L 203.074342 157.14483 
L 210.779756 153.810131 
L 218.485157 167.667423 
L 226.190572 178.389463 
L 233.895972 205.107276 
L 241.601387 238.920648 
L 249.306802 271.132492 
L 257.012203 301.672398 
L 264.717618 315.284788 
L 272.423018 314.73295 
L 280.128433 309.785992 
L 287.833833 290.387615 
L 295.539248 247.76979 
L 303.244649 218.704232 
L 310.950064 178.753257 
L 318.655464 133.161945 
L 326.360894 92.471585 
L 334.066294 69.238262 
L 341.771694 50.859505 
L 349.477095 46.452544 
L 357.182524 57.280182 
L 364.887925 89.439813 
L 372.593325 121.127646 
L 380.298755 160.88404 
L 388.004155 183.044617 
L 395.709556 201.153442 
L 403.414956 214.466692 
L 411.120385 210.486539 
L 418.825786 201.344721 
L 426.531186 192.286177 
L 434.236616 178.483083 
L 441.942016 163.202002 
L 449.647417 162.345044 
L 457.352817 160.322385 
L 465.058247 170.801609 
L 472.763647 191.218428 
L 480.469047 213.388259 
L 488.174448 249.784252 
L 495.879877 278.057809 
L 503.585278 304.255342 
L 511.290678 323.090003 
L 518.996108 324.873858 
L 526.701508 304.632257 
L 534.406908 275.547826 
L 542.112309 243.409168 
L 549.817738 202.696161 
L 557.523139 162.558297 
L 565.228539 117.462941 
L 572.93394 80.063886 
L 580.63934 61.131413 
L 588.344799 53.587056 
L 596.050199 49.909581 
L 603.755599 67.751055 
L 611.461 97.378649 
L 619.1664 138.047115 
L 626.871801 170.193214 
L 634.577201 188.069555 
L 642.28266 210.535248 
L 649.98806 211.323261 
L 657.69346 204.929263 
L 665.398861 201.666616 
L 673.104261 184.798728 
" style="fill:none;stroke:#c44e52;stroke-linecap:round;stroke-opacity:0.1;stroke-width:1.5;"/>
   </g>
   <g id="line2d_29">
    <path clip-path="url(#p4839539700)" d="M 64.376989 187.031617 
L 72.082397 142.742513 
L 79.787806 98.360398 
L 87.493215 70.0758 
L 95.198623 59.083295 
L 102.904031 47.427375 
L 110.609442 59.643313 
L 118.31485 77.098027 
L 126.020257 112.176165 
L 133.725665 144.213311 
L 141.431073 175.574543 
L 149.13648 195.310898 
L 156.841895 217.073356 
L 164.547303 229.20096 
L 172.252711 224.839465 
L 179.958118 194.984619 
L 187.663526 178.255783 
L 195.368941 171.692553 
L 203.074342 156.314554 
L 210.779756 155.809494 
L 218.485157 165.691263 
L 226.190572 172.127445 
L 233.895972 203.438265 
L 241.601387 218.709032 
L 249.306802 259.975272 
L 257.012203 299.590026 
L 264.717618 310.814057 
L 272.423018 321.593558 
L 280.128433 317.617363 
L 287.833833 291.260962 
L 295.539248 251.243659 
L 303.244649 209.990041 
L 310.950064 169.607726 
L 318.655464 123.548695 
L 326.360894 86.919617 
L 334.066294 56.66116 
L 341.771694 57.068981 
L 349.477095 52.964004 
L 357.182524 64.069255 
L 364.887925 86.850594 
L 372.593325 114.467654 
L 380.298755 155.706644 
L 388.004155 184.355068 
L 395.709556 202.761631 
L 403.414956 211.918745 
L 411.120385 219.964737 
L 418.825786 210.722824 
L 426.531186 192.480289 
L 434.236616 176.767736 
L 441.942016 157.422702 
L 449.647417 150.899941 
L 457.352817 153.132199 
L 465.058247 163.864647 
L 472.763647 185.471419 
L 480.469047 216.968171 
L 488.174448 241.660179 
L 495.879877 274.355197 
L 503.585278 301.962726 
L 511.290678 331.17558 
L 518.996108 321.073241 
L 526.701508 303.743812 
L 534.406908 280.031235 
L 542.112309 241.240264 
L 549.817738 197.474742 
L 557.523139 142.447447 
L 565.228539 105.598427 
L 572.93394 74.185975 
L 580.63934 52.73568 
L 588.344799 46.915366 
L 596.050199 52.997155 
L 603.755599 72.882027 
L 611.461 110.472332 
L 619.1664 133.406273 
L 626.871801 163.96548 
L 634.577201 197.763112 
L 642.28266 215.482592 
L 649.98806 216.088577 
L 657.69346 215.659025 
L 665.398861 208.935797 
L 673.104261 188.408846 
" style="fill:none;stroke:#c44e52;stroke-linecap:round;stroke-opacity:0.1;stroke-width:1.5;"/>
   </g>
   <g id="line2d_30">
    <path clip-path="url(#p4839539700)" d="M 64.376989 187.404512 
L 72.082397 140.679316 
L 79.787806 95.933976 
L 87.493215 71.480616 
L 95.198623 39.181641 
L 102.904031 50.346024 
L 110.609442 55.832593 
L 118.31485 70.875901 
L 126.020257 105.182934 
L 133.725665 146.777205 
L 141.431073 173.219882 
L 149.13648 197.33362 
L 156.841895 214.892539 
L 164.547303 208.421338 
L 172.252711 220.841136 
L 179.958118 195.106415 
L 187.663526 180.729874 
L 195.368941 178.772753 
L 203.074342 157.971265 
L 210.779756 156.704435 
L 218.485157 163.049034 
L 226.190572 179.628346 
L 233.895972 207.249558 
L 241.601387 233.950688 
L 249.306802 267.573696 
L 257.012203 300.089761 
L 264.717618 322.263965 
L 272.423018 325.595707 
L 280.128433 324.992906 
L 287.833833 291.75019 
L 295.539248 255.833714 
L 303.244649 208.954025 
L 310.950064 160.973287 
L 318.655464 128.999901 
L 326.360894 84.699852 
L 334.066294 58.506744 
L 341.771694 48.581692 
L 349.477095 45.687921 
L 357.182524 63.576154 
L 364.887925 93.009429 
L 372.593325 111.03983 
L 380.298755 151.683011 
L 388.004155 180.543308 
L 395.709556 211.11262 
L 403.414956 221.009161 
L 411.120385 217.487191 
L 418.825786 206.223955 
L 426.531186 188.882803 
L 434.236616 178.625034 
L 441.942016 162.887084 
L 449.647417 153.821974 
L 457.352817 160.151197 
L 465.058247 164.824729 
L 472.763647 195.642514 
L 480.469047 215.05508 
L 488.174448 244.035772 
L 495.879877 280.464155 
L 503.585278 308.382133 
L 511.290678 325.592616 
L 518.996108 324.837957 
L 526.701508 312.895555 
L 534.406908 281.966884 
L 542.112309 240.064445 
L 549.817738 199.920261 
L 557.523139 153.409526 
L 565.228539 109.5561 
L 572.93394 63.459029 
L 580.63934 43.438345 
L 588.344799 44.204017 
L 596.050199 51.877882 
L 603.755599 67.30576 
L 611.461 105.236822 
L 619.1664 136.139428 
L 626.871801 167.850386 
L 634.577201 197.302532 
L 642.28266 212.878654 
L 649.98806 215.750783 
L 657.69346 214.78769 
L 665.398861 200.817698 
L 673.104261 189.583454 
" style="fill:none;stroke:#c44e52;stroke-linecap:round;stroke-opacity:0.1;stroke-width:1.5;"/>
   </g>
   <g id="line2d_31">
    <path clip-path="url(#p4839539700)" d="M 64.376989 178.975648 
L 72.082397 137.26233 
L 79.787806 98.598144 
L 87.493215 76.800569 
L 95.198623 57.960849 
L 102.904031 48.060832 
L 110.609442 55.54463 
L 118.31485 88.516543 
L 126.020257 118.158443 
L 133.725665 139.216807 
L 141.431073 173.951339 
L 149.13648 192.462978 
L 156.841895 214.264643 
L 164.547303 205.977161 
L 172.252711 212.462609 
L 179.958118 195.665749 
L 187.663526 180.404029 
L 195.368941 170.573224 
L 203.074342 149.628543 
L 210.779756 155.776583 
L 218.485157 167.820136 
L 226.190572 184.055786 
L 233.895972 202.312667 
L 241.601387 232.066876 
L 249.306802 268.188569 
L 257.012203 301.955908 
L 264.717618 314.891238 
L 272.423018 321.36101 
L 280.128433 320.409862 
L 287.833833 295.185007 
L 295.539248 248.43482 
L 303.244649 199.621728 
L 310.950064 163.067286 
L 318.655464 120.365002 
L 326.360894 90.184663 
L 334.066294 59.56531 
L 341.771694 50.637272 
L 349.477095 50.238303 
L 357.182524 68.423459 
L 364.887925 92.515794 
L 372.593325 124.572726 
L 380.298755 156.004374 
L 388.004155 183.624345 
L 395.709556 195.447747 
L 403.414956 209.545287 
L 411.120385 212.893792 
L 418.825786 205.735675 
L 426.531186 198.014637 
L 434.236616 180.996991 
L 441.942016 164.992345 
L 449.647417 146.718655 
L 457.352817 158.207079 
L 465.058247 161.265109 
L 472.763647 185.384624 
L 480.469047 214.32632 
L 488.174448 246.775601 
L 495.879877 276.103069 
L 503.585278 302.903293 
L 511.290678 320.801802 
L 518.996108 323.649928 
L 526.701508 302.803852 
L 534.406908 269.315441 
L 542.112309 233.9486 
L 549.817738 188.134688 
L 557.523139 135.437738 
L 565.228539 105.803244 
L 572.93394 79.06736 
L 580.63934 52.714114 
L 588.344799 54.865703 
L 596.050199 56.345163 
L 603.755599 71.237718 
L 611.461 105.165287 
L 619.1664 134.647997 
L 626.871801 169.535947 
L 634.577201 191.976835 
L 642.28266 200.157615 
L 649.98806 212.72913 
L 657.69346 200.459834 
L 665.398861 194.166452 
L 673.104261 185.005891 
" style="fill:none;stroke:#c44e52;stroke-linecap:round;stroke-opacity:0.1;stroke-width:1.5;"/>
   </g>
   <g id="line2d_32">
    <path clip-path="url(#p4839539700)" d="M 64.376989 185.729486 
L 72.082397 137.040575 
L 79.787806 104.444211 
L 87.493215 71.745761 
L 95.198623 51.159291 
L 102.904031 49.62608 
L 110.609442 55.62878 
L 118.31485 80.974017 
L 126.020257 104.064628 
L 133.725665 135.843147 
L 141.431073 161.459159 
L 149.13648 194.877136 
L 156.841895 207.176527 
L 164.547303 207.975662 
L 172.252711 210.967381 
L 179.958118 198.020656 
L 187.663526 189.392982 
L 195.368941 167.977535 
L 203.074342 160.33075 
L 210.779756 153.770126 
L 218.485157 166.058486 
L 226.190572 173.812447 
L 233.895972 202.581833 
L 241.601387 238.59677 
L 249.306802 274.778106 
L 257.012203 295.326219 
L 264.717618 319.2815 
L 272.423018 322.832724 
L 280.128433 311.765058 
L 287.833833 285.470586 
L 295.539248 250.201162 
L 303.244649 208.477704 
L 310.950064 166.132413 
L 318.655464 124.198351 
L 326.360894 90.210811 
L 334.066294 58.973025 
L 341.771694 44.449013 
L 349.477095 50.529256 
L 357.182524 62.431083 
L 364.887925 89.593731 
L 372.593325 119.472595 
L 380.298755 154.167151 
L 388.004155 172.832968 
L 395.709556 196.632219 
L 403.414956 198.95866 
L 411.120385 208.714842 
L 418.825786 206.071022 
L 426.531186 184.657998 
L 434.236616 184.016628 
L 441.942016 162.49997 
L 449.647417 157.552048 
L 457.352817 154.424281 
L 465.058247 172.853124 
L 472.763647 195.569336 
L 480.469047 215.039326 
L 488.174448 255.405652 
L 495.879877 280.548654 
L 503.585278 312.57285 
L 511.290678 324.560483 
L 518.996108 325.955951 
L 526.701508 298.749581 
L 534.406908 279.47786 
L 542.112309 238.816809 
L 549.817738 190.701773 
L 557.523139 153.226736 
L 565.228539 111.389764 
L 572.93394 75.691436 
L 580.63934 53.898131 
L 588.344799 43.411434 
L 596.050199 53.921575 
L 603.755599 71.645262 
L 611.461 98.503045 
L 619.1664 132.773009 
L 626.871801 162.554617 
L 634.577201 187.918134 
L 642.28266 197.485155 
L 649.98806 214.208362 
L 657.69346 210.604299 
L 665.398861 200.23194 
L 673.104261 194.654443 
" style="fill:none;stroke:#c44e52;stroke-linecap:round;stroke-opacity:0.1;stroke-width:1.5;"/>
   </g>
   <g id="line2d_33">
    <path clip-path="url(#p4839539700)" d="M 64.376989 186.847149 
L 72.082397 134.039032 
L 79.787806 99.824926 
L 87.493215 72.465365 
L 95.198623 55.186549 
L 102.904031 44.004289 
L 110.609442 59.686023 
L 118.31485 85.597084 
L 126.020257 101.042158 
L 133.725665 148.835195 
L 141.431073 175.093349 
L 149.13648 190.146429 
L 156.841895 205.806166 
L 164.547303 208.981906 
L 172.252711 206.073713 
L 179.958118 190.037616 
L 187.663526 181.724217 
L 195.368941 166.851807 
L 203.074342 147.450056 
L 210.779756 153.461024 
L 218.485157 158.712215 
L 226.190572 176.863758 
L 233.895972 199.67316 
L 241.601387 234.855239 
L 249.306802 272.199339 
L 257.012203 298.387828 
L 264.717618 323.339396 
L 272.423018 327.689111 
L 280.128433 318.99857 
L 287.833833 291.647574 
L 295.539248 252.645231 
L 303.244649 206.000114 
L 310.950064 165.01653 
L 318.655464 123.864775 
L 326.360894 88.017323 
L 334.066294 60.467059 
L 341.771694 51.383981 
L 349.477095 58.310567 
L 357.182524 73.414571 
L 364.887925 94.760181 
L 372.593325 125.251047 
L 380.298755 151.339156 
L 388.004155 180.229723 
L 395.709556 197.290823 
L 403.414956 205.107733 
L 411.120385 210.850463 
L 418.825786 199.174608 
L 426.531186 191.718342 
L 434.236616 172.495919 
L 441.942016 159.121229 
L 449.647417 150.322794 
L 457.352817 143.208703 
L 465.058247 159.916745 
L 472.763647 198.491447 
L 480.469047 215.009887 
L 488.174448 253.74377 
L 495.879877 280.308884 
L 503.585278 310.700346 
L 511.290678 324.515667 
L 518.996108 321.378262 
L 526.701508 310.944348 
L 534.406908 281.134857 
L 542.112309 233.28006 
L 549.817738 195.454784 
L 557.523139 143.959855 
L 565.228539 105.526377 
L 572.93394 72.249139 
L 580.63934 60.462578 
L 588.344799 45.155331 
L 596.050199 59.896718 
L 603.755599 78.287538 
L 611.461 104.440908 
L 619.1664 130.407228 
L 626.871801 165.494942 
L 634.577201 187.765171 
L 642.28266 205.138068 
L 649.98806 211.824468 
L 657.69346 205.209778 
L 665.398861 194.120033 
L 673.104261 187.413279 
" style="fill:none;stroke:#c44e52;stroke-linecap:round;stroke-opacity:0.1;stroke-width:1.5;"/>
   </g>
   <g id="line2d_34">
    <path clip-path="url(#p4839539700)" d="M 64.376989 186.949676 
L 72.082397 140.562002 
L 79.787806 104.591753 
L 87.493215 74.43202 
L 95.198623 47.236405 
L 102.904031 48.57849 
L 110.609442 50.656694 
L 118.31485 80.483326 
L 126.020257 103.964791 
L 133.725665 143.257489 
L 141.431073 170.630066 
L 149.13648 192.30863 
L 156.841895 208.197591 
L 164.547303 213.568775 
L 172.252711 212.434883 
L 179.958118 190.993578 
L 187.663526 186.207267 
L 195.368941 169.716393 
L 203.074342 159.47341 
L 210.779756 146.556145 
L 218.485157 157.466247 
L 226.190572 179.926019 
L 233.895972 208.639887 
L 241.601387 246.423707 
L 249.306802 272.020459 
L 257.012203 301.118793 
L 264.717618 306.880214 
L 272.423018 319.236821 
L 280.128433 313.030272 
L 287.833833 288.455968 
L 295.539248 253.262468 
L 303.244649 216.454469 
L 310.950064 166.564716 
L 318.655464 132.196108 
L 326.360894 82.352638 
L 334.066294 56.860962 
L 341.771694 45.722056 
L 349.477095 42.244014 
L 357.182524 60.756338 
L 364.887925 85.672143 
L 372.593325 121.068504 
L 380.298755 151.768913 
L 388.004155 176.317486 
L 395.709556 200.418208 
L 403.414956 215.849633 
L 411.120385 220.023234 
L 418.825786 201.749156 
L 426.531186 189.147431 
L 434.236616 170.800048 
L 441.942016 167.110294 
L 449.647417 156.428608 
L 457.352817 155.978 
L 465.058247 166.087856 
L 472.763647 191.177665 
L 480.469047 225.55335 
L 488.174448 258.507023 
L 495.879877 287.719445 
L 503.585278 314.454924 
L 511.290678 322.117813 
L 518.996108 320.718039 
L 526.701508 308.299916 
L 534.406908 279.840542 
L 542.112309 249.426649 
L 549.817738 197.463348 
L 557.523139 158.766545 
L 565.228539 112.608841 
L 572.93394 76.416809 
L 580.63934 47.911864 
L 588.344799 46.999874 
L 596.050199 45.399278 
L 603.755599 67.800352 
L 611.461 96.943539 
L 619.1664 134.068998 
L 626.871801 167.757674 
L 634.577201 192.732822 
L 642.28266 215.499616 
L 649.98806 204.622347 
L 657.69346 211.155567 
L 665.398861 197.340956 
L 673.104261 183.791281 
" style="fill:none;stroke:#c44e52;stroke-linecap:round;stroke-opacity:0.1;stroke-width:1.5;"/>
   </g>
   <g id="line2d_35">
    <path clip-path="url(#p4839539700)" d="M 64.376989 181.441996 
L 72.082397 135.614869 
L 79.787806 92.851361 
L 87.493215 59.225041 
L 95.198623 51.132563 
L 102.904031 48.189007 
L 110.609442 50.706645 
L 118.31485 84.896397 
L 126.020257 109.377014 
L 133.725665 132.279935 
L 141.431073 164.450416 
L 149.13648 190.203593 
L 156.841895 205.821973 
L 164.547303 209.901666 
L 172.252711 212.700923 
L 179.958118 197.979365 
L 187.663526 188.862281 
L 195.368941 172.287669 
L 203.074342 159.316663 
L 210.779756 151.016157 
L 218.485157 167.561074 
L 226.190572 178.851399 
L 233.895972 207.996476 
L 241.601387 241.59967 
L 249.306802 267.756845 
L 257.012203 298.106159 
L 264.717618 309.209422 
L 272.423018 318.425303 
L 280.128433 306.810592 
L 287.833833 287.307576 
L 295.539248 258.797221 
L 303.244649 202.367724 
L 310.950064 170.296928 
L 318.655464 116.074701 
L 326.360894 78.566465 
L 334.066294 54.705666 
L 341.771694 47.961014 
L 349.477095 51.309612 
L 357.182524 73.065479 
L 364.887925 87.344265 
L 372.593325 120.402738 
L 380.298755 149.782346 
L 388.004155 178.723289 
L 395.709556 203.839456 
L 403.414956 207.006478 
L 411.120385 209.50479 
L 418.825786 205.465129 
L 426.531186 192.503632 
L 434.236616 171.056719 
L 441.942016 159.638838 
L 449.647417 153.15593 
L 457.352817 147.928774 
L 465.058247 167.773507 
L 472.763647 187.956464 
L 480.469047 215.715277 
L 488.174448 247.894418 
L 495.879877 286.666555 
L 503.585278 300.836461 
L 511.290678 314.505914 
L 518.996108 314.433357 
L 526.701508 303.429728 
L 534.406908 277.865901 
L 542.112309 239.369333 
L 549.817738 188.188969 
L 557.523139 145.88827 
L 565.228539 109.13856 
L 572.93394 68.599983 
L 580.63934 50.463278 
L 588.344799 45.289734 
L 596.050199 58.535983 
L 603.755599 78.673276 
L 611.461 105.598648 
L 619.1664 127.367576 
L 626.871801 165.491647 
L 634.577201 183.094869 
L 642.28266 205.838767 
L 649.98806 214.723244 
L 657.69346 207.812412 
L 665.398861 209.674239 
L 673.104261 189.526564 
" style="fill:none;stroke:#c44e52;stroke-linecap:round;stroke-opacity:0.1;stroke-width:1.5;"/>
   </g>
   <g id="line2d_36">
    <path clip-path="url(#p4839539700)" d="M 64.376989 180.075795 
L 72.082397 137.628802 
L 79.787806 93.382139 
L 87.493215 60.559655 
L 95.198623 43.0947 
L 102.904031 45.916043 
L 110.609442 50.96108 
L 118.31485 76.67556 
L 126.020257 108.83974 
L 133.725665 136.051018 
L 141.431073 169.594362 
L 149.13648 192.455369 
L 156.841895 207.568518 
L 164.547303 210.242592 
L 172.252711 214.059486 
L 179.958118 192.528283 
L 187.663526 186.51019 
L 195.368941 161.871931 
L 203.074342 158.111447 
L 210.779756 153.944884 
L 218.485157 161.574165 
L 226.190572 180.515289 
L 233.895972 209.423858 
L 241.601387 241.276708 
L 249.306802 272.618872 
L 257.012203 288.414022 
L 264.717618 312.790585 
L 272.423018 318.309862 
L 280.128433 314.406059 
L 287.833833 289.724853 
L 295.539248 258.312999 
L 303.244649 213.618398 
L 310.950064 166.029564 
L 318.655464 113.36378 
L 326.360894 72.929971 
L 334.066294 50.997212 
L 341.771694 44.160792 
L 349.477095 46.828788 
L 357.182524 63.351151 
L 364.887925 87.291012 
L 372.593325 123.24786 
L 380.298755 146.351766 
L 388.004155 175.34168 
L 395.709556 203.582184 
L 403.414956 206.166962 
L 411.120385 220.173498 
L 418.825786 205.416805 
L 426.531186 194.805641 
L 434.236616 178.284007 
L 441.942016 164.408273 
L 449.647417 151.129431 
L 457.352817 153.636981 
L 465.058247 169.632428 
L 472.763647 193.888059 
L 480.469047 217.374616 
L 488.174448 248.429396 
L 495.879877 280.443858 
L 503.585278 307.32526 
L 511.290678 306.658956 
L 518.996108 321.28481 
L 526.701508 300.772222 
L 534.406908 276.700064 
L 542.112309 233.528216 
L 549.817738 183.203394 
L 557.523139 144.007073 
L 565.228539 95.615908 
L 572.93394 55.255296 
L 580.63934 53.986568 
L 588.344799 37.20182 
L 596.050199 54.335366 
L 603.755599 67.590135 
L 611.461 102.859329 
L 619.1664 133.916998 
L 626.871801 162.75121 
L 634.577201 183.852457 
L 642.28266 209.779787 
L 649.98806 207.849626 
L 657.69346 213.73003 
L 665.398861 197.7786 
L 673.104261 186.426291 
" style="fill:none;stroke:#c44e52;stroke-linecap:round;stroke-opacity:0.1;stroke-width:1.5;"/>
   </g>
   <g id="line2d_37">
    <path clip-path="url(#p4839539700)" d="M 64.376989 179.734909 
L 72.082397 136.933534 
L 79.787806 95.65756 
L 87.493215 75.252592 
L 95.198623 51.48114 
L 102.904031 51.563964 
L 110.609442 60.753688 
L 118.31485 80.817302 
L 126.020257 107.331946 
L 133.725665 143.909753 
L 141.431073 174.577525 
L 149.13648 192.43486 
L 156.841895 212.100849 
L 164.547303 214.360847 
L 172.252711 211.202345 
L 179.958118 198.624967 
L 187.663526 183.044196 
L 195.368941 170.112544 
L 203.074342 158.378892 
L 210.779756 152.111673 
L 218.485157 169.406421 
L 226.190572 184.757782 
L 233.895972 207.548872 
L 241.601387 230.011085 
L 249.306802 269.456239 
L 257.012203 296.07727 
L 264.717618 318.457294 
L 272.423018 319.407586 
L 280.128433 319.474447 
L 287.833833 287.35092 
L 295.539248 263.22896 
L 303.244649 215.128292 
L 310.950064 165.102013 
L 318.655464 123.189353 
L 326.360894 88.01609 
L 334.066294 59.68398 
L 341.771694 43.310116 
L 349.477095 47.079193 
L 357.182524 62.564667 
L 364.887925 86.493175 
L 372.593325 119.308133 
L 380.298755 152.125548 
L 388.004155 186.069899 
L 395.709556 202.70547 
L 403.414956 217.917461 
L 411.120385 213.72692 
L 418.825786 203.35162 
L 426.531186 190.330395 
L 434.236616 182.982708 
L 441.942016 167.518038 
L 449.647417 152.189709 
L 457.352817 158.318941 
L 465.058247 166.880007 
L 472.763647 191.324316 
L 480.469047 219.421324 
L 488.174448 253.100385 
L 495.879877 277.071523 
L 503.585278 309.509916 
L 511.290678 325.511098 
L 518.996108 320.857954 
L 526.701508 308.883699 
L 534.406908 281.281378 
L 542.112309 238.948089 
L 549.817738 186.887386 
L 557.523139 137.899081 
L 565.228539 102.649379 
L 572.93394 66.020554 
L 580.63934 57.041011 
L 588.344799 42.94357 
L 596.050199 49.2422 
L 603.755599 69.745063 
L 611.461 98.645573 
L 619.1664 135.285232 
L 626.871801 161.171055 
L 634.577201 195.956169 
L 642.28266 200.769888 
L 649.98806 216.731024 
L 657.69346 214.414103 
L 665.398861 196.279732 
L 673.104261 188.114216 
" style="fill:none;stroke:#c44e52;stroke-linecap:round;stroke-opacity:0.1;stroke-width:1.5;"/>
   </g>
   <g id="line2d_38">
    <path clip-path="url(#p4839539700)" d="M 64.376989 173.812374 
L 72.082397 132.978221 
L 79.787806 95.942753 
L 87.493215 57.935087 
L 95.198623 44.032673 
L 102.904031 39.676306 
L 110.609442 51.018042 
L 118.31485 79.432728 
L 126.020257 99.2833 
L 133.725665 140.97008 
L 141.431073 173.599264 
L 149.13648 189.275882 
L 156.841895 210.89479 
L 164.547303 216.342182 
L 172.252711 211.897744 
L 179.958118 203.559192 
L 187.663526 179.406072 
L 195.368941 168.703 
L 203.074342 154.932432 
L 210.779756 158.795531 
L 218.485157 159.425537 
L 226.190572 177.159702 
L 233.895972 213.559243 
L 241.601387 234.474722 
L 249.306802 263.636669 
L 257.012203 298.959605 
L 264.717618 314.44 
L 272.423018 324.109383 
L 280.128433 315.222316 
L 287.833833 286.987687 
L 295.539248 249.818074 
L 303.244649 208.356591 
L 310.950064 156.789456 
L 318.655464 113.279736 
L 326.360894 73.854208 
L 334.066294 54.82936 
L 341.771694 42.292336 
L 349.477095 44.71483 
L 357.182524 64.806138 
L 364.887925 86.120188 
L 372.593325 114.15703 
L 380.298755 143.232431 
L 388.004155 185.258248 
L 395.709556 203.424354 
L 403.414956 214.209174 
L 411.120385 215.830873 
L 418.825786 211.708461 
L 426.531186 194.17585 
L 434.236616 177.818675 
L 441.942016 157.487139 
L 449.647417 149.264695 
L 457.352817 157.766983 
L 465.058247 168.948491 
L 472.763647 185.387027 
L 480.469047 225.292755 
L 488.174448 248.302951 
L 495.879877 279.984882 
L 503.585278 304.25859 
L 511.290678 316.827172 
L 518.996108 319.122981 
L 526.701508 300.12154 
L 534.406908 269.76068 
L 542.112309 232.139856 
L 549.817738 194.707729 
L 557.523139 143.093441 
L 565.228539 104.170969 
L 572.93394 74.344236 
L 580.63934 56.595725 
L 588.344799 48.923663 
L 596.050199 44.94089 
L 603.755599 66.96793 
L 611.461 94.636339 
L 619.1664 128.466271 
L 626.871801 159.723365 
L 634.577201 189.399505 
L 642.28266 206.649512 
L 649.98806 214.566285 
L 657.69346 216.410711 
L 665.398861 202.649638 
L 673.104261 186.924065 
" style="fill:none;stroke:#c44e52;stroke-linecap:round;stroke-opacity:0.1;stroke-width:1.5;"/>
   </g>
   <g id="line2d_39">
    <path clip-path="url(#p4839539700)" d="M 64.376989 183.636822 
L 72.082397 141.561836 
L 79.787806 92.336923 
L 87.493215 64.853668 
L 95.198623 47.673815 
L 102.904031 50.14061 
L 110.609442 56.297789 
L 118.31485 81.973699 
L 126.020257 102.55337 
L 133.725665 138.000537 
L 141.431073 161.369227 
L 149.13648 189.224374 
L 156.841895 211.951072 
L 164.547303 216.019233 
L 172.252711 206.356862 
L 179.958118 202.783372 
L 187.663526 183.520497 
L 195.368941 172.916556 
L 203.074342 159.199467 
L 210.779756 152.291169 
L 218.485157 169.328265 
L 226.190572 184.325296 
L 233.895972 209.625006 
L 241.601387 233.074995 
L 249.306802 265.499007 
L 257.012203 291.473948 
L 264.717618 310.17772 
L 272.423018 319.926091 
L 280.128433 315.1517 
L 287.833833 287.310189 
L 295.539248 252.96985 
L 303.244649 210.730127 
L 310.950064 163.128353 
L 318.655464 121.664441 
L 326.360894 72.95163 
L 334.066294 51.052526 
L 341.771694 45.112566 
L 349.477095 52.40026 
L 357.182524 64.608516 
L 364.887925 86.851661 
L 372.593325 116.821207 
L 380.298755 153.793256 
L 388.004155 178.685286 
L 395.709556 192.76774 
L 403.414956 208.816317 
L 411.120385 213.408784 
L 418.825786 210.530749 
L 426.531186 199.842225 
L 434.236616 181.255043 
L 441.942016 173.966701 
L 449.647417 157.770086 
L 457.352817 158.320608 
L 465.058247 165.689133 
L 472.763647 192.805651 
L 480.469047 221.347263 
L 488.174448 245.160146 
L 495.879877 277.659714 
L 503.585278 309.884641 
L 511.290678 318.441395 
L 518.996108 319.829051 
L 526.701508 302.99173 
L 534.406908 275.64907 
L 542.112309 238.622702 
L 549.817738 190.882191 
L 557.523139 148.347854 
L 565.228539 95.756909 
L 572.93394 68.194252 
L 580.63934 46.55043 
L 588.344799 45.403381 
L 596.050199 53.709343 
L 603.755599 83.099347 
L 611.461 95.467005 
L 619.1664 131.356131 
L 626.871801 166.580909 
L 634.577201 185.292686 
L 642.28266 206.298978 
L 649.98806 210.531234 
L 657.69346 215.643609 
L 665.398861 202.235164 
L 673.104261 191.055515 
" style="fill:none;stroke:#c44e52;stroke-linecap:round;stroke-opacity:0.1;stroke-width:1.5;"/>
   </g>
   <g id="line2d_40">
    <path clip-path="url(#p4839539700)" d="M 64.376989 182.467982 
L 72.082397 135.318865 
L 79.787806 95.430551 
L 87.493215 72.981633 
L 95.198623 43.40653 
L 102.904031 45.195363 
L 110.609442 53.987672 
L 118.31485 79.76651 
L 126.020257 103.429505 
L 133.725665 136.996319 
L 141.431073 160.640185 
L 149.13648 196.629181 
L 156.841895 213.900392 
L 164.547303 219.108625 
L 172.252711 219.937461 
L 179.958118 203.85391 
L 187.663526 188.702952 
L 195.368941 169.389242 
L 203.074342 159.78103 
L 210.779756 157.536285 
L 218.485157 167.041548 
L 226.190572 183.072967 
L 233.895972 209.74804 
L 241.601387 237.876026 
L 249.306802 269.86473 
L 257.012203 298.746866 
L 264.717618 318.401952 
L 272.423018 323.850448 
L 280.128433 324.235211 
L 287.833833 291.790599 
L 295.539248 253.475262 
L 303.244649 211.773128 
L 310.950064 167.85001 
L 318.655464 124.416025 
L 326.360894 84.79483 
L 334.066294 56.589901 
L 341.771694 50.251745 
L 349.477095 42.846015 
L 357.182524 57.453873 
L 364.887925 88.177286 
L 372.593325 114.199413 
L 380.298755 146.317447 
L 388.004155 175.274868 
L 395.709556 203.990453 
L 403.414956 218.030429 
L 411.120385 215.712607 
L 418.825786 205.671737 
L 426.531186 198.392076 
L 434.236616 179.87179 
L 441.942016 161.720396 
L 449.647417 156.13797 
L 457.352817 157.837639 
L 465.058247 172.030802 
L 472.763647 189.916527 
L 480.469047 226.934078 
L 488.174448 257.355152 
L 495.879877 281.8661 
L 503.585278 307.4734 
L 511.290678 329.92955 
L 518.996108 333.27017 
L 526.701508 314.289716 
L 534.406908 284.57904 
L 542.112309 240.840761 
L 549.817738 186.642262 
L 557.523139 144.51513 
L 565.228539 110.329528 
L 572.93394 67.882514 
L 580.63934 53.111188 
L 588.344799 41.533114 
L 596.050199 52.892469 
L 603.755599 68.530169 
L 611.461 99.436289 
L 619.1664 125.728695 
L 626.871801 164.578342 
L 634.577201 191.268649 
L 642.28266 208.308825 
L 649.98806 213.003749 
L 657.69346 220.047384 
L 665.398861 202.198358 
L 673.104261 191.941622 
" style="fill:none;stroke:#c44e52;stroke-linecap:round;stroke-opacity:0.1;stroke-width:1.5;"/>
   </g>
   <g id="line2d_41">
    <path clip-path="url(#p4839539700)" d="M 64.376989 183.263903 
L 72.082397 138.128615 
L 79.787806 98.258942 
L 87.493215 68.168803 
L 95.198623 50.983236 
L 102.904031 48.012593 
L 110.609442 58.602136 
L 118.31485 80.278197 
L 126.020257 109.1667 
L 133.725665 140.61705 
L 141.431073 169.933559 
L 149.13648 193.099974 
L 156.841895 207.384152 
L 164.547303 211.729708 
L 172.252711 206.874692 
L 179.958118 195.180513 
L 187.663526 180.200302 
L 195.368941 166.056182 
L 203.074342 156.725741 
L 210.779756 155.351394 
L 218.485157 163.683578 
L 226.190572 181.747046 
L 233.895972 207.784695 
L 241.601387 238.490065 
L 249.306802 269.493538 
L 257.012203 296.027366 
L 264.717618 313.667428 
L 272.423018 319.034535 
L 280.128433 310.346534 
L 287.833833 287.733742 
L 295.539248 253.266728 
L 303.244649 210.691151 
L 310.950064 164.906509 
L 318.655464 121.271595 
L 326.360894 84.837402 
L 334.066294 59.62896 
L 341.771694 48.082022 
L 349.477095 50.722304 
L 357.182524 66.133768 
L 364.887925 91.218774 
L 372.593325 121.709451 
L 380.298755 152.847272 
L 388.004155 180.125325 
L 395.709556 199.978822 
L 403.414956 210.313364 
L 411.120385 210.79234 
L 418.825786 202.839434 
L 426.531186 189.357138 
L 434.236616 174.208495 
L 441.942016 161.544835 
L 449.647417 155.087266 
L 457.352817 157.477474 
L 465.058247 169.800918 
L 472.763647 191.359937 
L 480.469047 219.734179 
L 488.174448 251.121575 
L 495.879877 280.906827 
L 503.585278 304.370176 
L 511.290678 317.42725 
L 518.996108 317.283167 
L 526.701508 302.898288 
L 534.406908 275.192643 
L 542.112309 236.954232 
L 549.817738 192.464144 
L 557.523139 146.896568 
L 565.228539 105.578508 
L 572.93394 73.230245 
L 580.63934 53.296876 
L 588.344799 47.472982 
L 596.050199 55.494643 
L 603.755599 75.226526 
L 611.461 103.029855 
L 619.1664 134.352936 
L 626.871801 164.44895 
L 634.577201 189.112206 
L 642.28266 205.314606 
L 649.98806 211.645572 
L 657.69346 208.488938 
L 665.398861 197.908482 
L 673.104261 183.26385 
" style="fill:none;stroke:#4c72b0;stroke-linecap:round;stroke-opacity:0.3;stroke-width:1.5;"/>
   </g>
   <g id="patch_3">
    <path d="M 33.940625 348.095625 
L 33.940625 21.935625 
" style="fill:none;stroke:#ffffff;stroke-linecap:square;stroke-linejoin:miter;stroke-width:0.8;"/>
   </g>
   <g id="patch_4">
    <path d="M 703.540625 348.095625 
L 703.540625 21.935625 
" style="fill:none;stroke:#ffffff;stroke-linecap:square;stroke-linejoin:miter;stroke-width:0.8;"/>
   </g>
   <g id="patch_5">
    <path d="M 33.940625 348.095625 
L 703.540625 348.095625 
" style="fill:none;stroke:#ffffff;stroke-linecap:square;stroke-linejoin:miter;stroke-width:0.8;"/>
   </g>
   <g id="patch_6">
    <path d="M 33.940625 21.935625 
L 703.540625 21.935625 
" style="fill:none;stroke:#ffffff;stroke-linecap:square;stroke-linejoin:miter;stroke-width:0.8;"/>
   </g>
   <g id="text_16">
    <!-- Gaussian Process Regression Fit - ExpSinSquared Kernel -->
    <defs>
     <path d="M 41.21875 28.078125 
L 41.21875 36.46875 
L 71.53125 36.53125 
L 71.53125 9.96875 
Q 64.546875 4.390625 57.125 1.578125 
Q 49.703125 -1.21875 41.890625 -1.21875 
Q 31.34375 -1.21875 22.71875 3.296875 
Q 14.109375 7.8125 9.71875 16.359375 
Q 5.328125 24.90625 5.328125 35.453125 
Q 5.328125 45.90625 9.6875 54.953125 
Q 14.0625 64.015625 22.265625 68.40625 
Q 30.46875 72.796875 41.15625 72.796875 
Q 48.921875 72.796875 55.1875 70.28125 
Q 61.46875 67.78125 65.03125 63.28125 
Q 68.609375 58.796875 70.453125 51.5625 
L 61.921875 49.21875 
Q 60.296875 54.6875 57.90625 57.8125 
Q 55.515625 60.9375 51.0625 62.8125 
Q 46.625 64.703125 41.21875 64.703125 
Q 34.71875 64.703125 29.984375 62.71875 
Q 25.25 60.75 22.34375 57.515625 
Q 19.4375 54.296875 17.828125 50.4375 
Q 15.09375 43.796875 15.09375 36.03125 
Q 15.09375 26.46875 18.390625 20.015625 
Q 21.6875 13.578125 27.984375 10.453125 
Q 34.28125 7.328125 41.359375 7.328125 
Q 47.515625 7.328125 53.375 9.6875 
Q 59.234375 12.0625 62.25 14.75 
L 62.25 28.078125 
z
" id="ArialMT-71"/>
     <path d="M 40.4375 6.390625 
Q 35.546875 2.25 31.03125 0.53125 
Q 26.515625 -1.171875 21.34375 -1.171875 
Q 12.796875 -1.171875 8.203125 3 
Q 3.609375 7.171875 3.609375 13.671875 
Q 3.609375 17.484375 5.34375 20.625 
Q 7.078125 23.78125 9.890625 25.6875 
Q 12.703125 27.59375 16.21875 28.5625 
Q 18.796875 29.25 24.03125 29.890625 
Q 34.671875 31.15625 39.703125 32.90625 
Q 39.75 34.71875 39.75 35.203125 
Q 39.75 40.578125 37.25 42.78125 
Q 33.890625 45.75 27.25 45.75 
Q 21.046875 45.75 18.09375 43.578125 
Q 15.140625 41.40625 13.71875 35.890625 
L 5.125 37.0625 
Q 6.296875 42.578125 8.984375 45.96875 
Q 11.671875 49.359375 16.75 51.1875 
Q 21.828125 53.03125 28.515625 53.03125 
Q 35.15625 53.03125 39.296875 51.46875 
Q 43.453125 49.90625 45.40625 47.53125 
Q 47.359375 45.171875 48.140625 41.546875 
Q 48.578125 39.3125 48.578125 33.453125 
L 48.578125 21.734375 
Q 48.578125 9.46875 49.140625 6.21875 
Q 49.703125 2.984375 51.375 0 
L 42.1875 0 
Q 40.828125 2.734375 40.4375 6.390625 
z
M 39.703125 26.03125 
Q 34.90625 24.078125 25.34375 22.703125 
Q 19.921875 21.921875 17.671875 20.9375 
Q 15.4375 19.96875 14.203125 18.09375 
Q 12.984375 16.21875 12.984375 13.921875 
Q 12.984375 10.40625 15.640625 8.0625 
Q 18.3125 5.71875 23.4375 5.71875 
Q 28.515625 5.71875 32.46875 7.9375 
Q 36.421875 10.15625 38.28125 14.015625 
Q 39.703125 17 39.703125 22.796875 
z
" id="ArialMT-97"/>
     <path d="M 40.578125 0 
L 40.578125 7.625 
Q 34.515625 -1.171875 24.125 -1.171875 
Q 19.53125 -1.171875 15.546875 0.578125 
Q 11.578125 2.34375 9.640625 5 
Q 7.71875 7.671875 6.9375 11.53125 
Q 6.390625 14.109375 6.390625 19.734375 
L 6.390625 51.859375 
L 15.1875 51.859375 
L 15.1875 23.09375 
Q 15.1875 16.21875 15.71875 13.8125 
Q 16.546875 10.359375 19.234375 8.375 
Q 21.921875 6.390625 25.875 6.390625 
Q 29.828125 6.390625 33.296875 8.421875 
Q 36.765625 10.453125 38.203125 13.9375 
Q 39.65625 17.4375 39.65625 24.078125 
L 39.65625 51.859375 
L 48.4375 51.859375 
L 48.4375 0 
z
" id="ArialMT-117"/>
     <path d="M 3.078125 15.484375 
L 11.765625 16.84375 
Q 12.5 11.625 15.84375 8.84375 
Q 19.1875 6.0625 25.203125 6.0625 
Q 31.25 6.0625 34.171875 8.515625 
Q 37.109375 10.984375 37.109375 14.3125 
Q 37.109375 17.28125 34.515625 19 
Q 32.71875 20.171875 25.53125 21.96875 
Q 15.875 24.421875 12.140625 26.203125 
Q 8.40625 27.984375 6.46875 31.125 
Q 4.546875 34.28125 4.546875 38.09375 
Q 4.546875 41.546875 6.125 44.5 
Q 7.71875 47.46875 10.453125 49.421875 
Q 12.5 50.921875 16.03125 51.96875 
Q 19.578125 53.03125 23.640625 53.03125 
Q 29.734375 53.03125 34.34375 51.265625 
Q 38.96875 49.515625 41.15625 46.5 
Q 43.359375 43.5 44.1875 38.484375 
L 35.59375 37.3125 
Q 35.015625 41.3125 32.203125 43.546875 
Q 29.390625 45.796875 24.265625 45.796875 
Q 18.21875 45.796875 15.625 43.796875 
Q 13.03125 41.796875 13.03125 39.109375 
Q 13.03125 37.40625 14.109375 36.03125 
Q 15.1875 34.625 17.484375 33.6875 
Q 18.796875 33.203125 25.25 31.453125 
Q 34.578125 28.953125 38.25 27.359375 
Q 41.9375 25.78125 44.03125 22.75 
Q 46.140625 19.734375 46.140625 15.234375 
Q 46.140625 10.84375 43.578125 6.953125 
Q 41.015625 3.078125 36.171875 0.953125 
Q 31.34375 -1.171875 25.25 -1.171875 
Q 15.140625 -1.171875 9.84375 3.03125 
Q 4.546875 7.234375 3.078125 15.484375 
z
" id="ArialMT-115"/>
     <path d="M 6.640625 61.46875 
L 6.640625 71.578125 
L 15.4375 71.578125 
L 15.4375 61.46875 
z
M 6.640625 0 
L 6.640625 51.859375 
L 15.4375 51.859375 
L 15.4375 0 
z
" id="ArialMT-105"/>
     <path d="M 6.59375 0 
L 6.59375 51.859375 
L 14.5 51.859375 
L 14.5 44.484375 
Q 20.21875 53.03125 31 53.03125 
Q 35.6875 53.03125 39.625 51.34375 
Q 43.5625 49.65625 45.515625 46.921875 
Q 47.46875 44.1875 48.25 40.4375 
Q 48.734375 37.984375 48.734375 31.890625 
L 48.734375 0 
L 39.9375 0 
L 39.9375 31.546875 
Q 39.9375 36.921875 38.90625 39.578125 
Q 37.890625 42.234375 35.28125 43.8125 
Q 32.671875 45.40625 29.15625 45.40625 
Q 23.53125 45.40625 19.453125 41.84375 
Q 15.375 38.28125 15.375 28.328125 
L 15.375 0 
z
" id="ArialMT-110"/>
     <path id="ArialMT-32"/>
     <path d="M 7.71875 0 
L 7.71875 71.578125 
L 34.71875 71.578125 
Q 41.84375 71.578125 45.609375 70.90625 
Q 50.875 70.015625 54.4375 67.546875 
Q 58.015625 65.09375 60.1875 60.640625 
Q 62.359375 56.203125 62.359375 50.875 
Q 62.359375 41.75 56.546875 35.421875 
Q 50.734375 29.109375 35.546875 29.109375 
L 17.1875 29.109375 
L 17.1875 0 
z
M 17.1875 37.546875 
L 35.6875 37.546875 
Q 44.875 37.546875 48.734375 40.96875 
Q 52.59375 44.390625 52.59375 50.59375 
Q 52.59375 55.078125 50.3125 58.265625 
Q 48.046875 61.46875 44.34375 62.5 
Q 41.9375 63.140625 35.5 63.140625 
L 17.1875 63.140625 
z
" id="ArialMT-80"/>
     <path d="M 6.5 0 
L 6.5 51.859375 
L 14.40625 51.859375 
L 14.40625 44 
Q 17.4375 49.515625 20 51.265625 
Q 22.5625 53.03125 25.640625 53.03125 
Q 30.078125 53.03125 34.671875 50.203125 
L 31.640625 42.046875 
Q 28.421875 43.953125 25.203125 43.953125 
Q 22.3125 43.953125 20.015625 42.21875 
Q 17.71875 40.484375 16.75 37.40625 
Q 15.28125 32.71875 15.28125 27.15625 
L 15.28125 0 
z
" id="ArialMT-114"/>
     <path d="M 3.328125 25.921875 
Q 3.328125 40.328125 11.328125 47.265625 
Q 18.015625 53.03125 27.640625 53.03125 
Q 38.328125 53.03125 45.109375 46.015625 
Q 51.90625 39.015625 51.90625 26.65625 
Q 51.90625 16.65625 48.90625 10.90625 
Q 45.90625 5.171875 40.15625 2 
Q 34.421875 -1.171875 27.640625 -1.171875 
Q 16.75 -1.171875 10.03125 5.8125 
Q 3.328125 12.796875 3.328125 25.921875 
z
M 12.359375 25.921875 
Q 12.359375 15.96875 16.703125 11.015625 
Q 21.046875 6.0625 27.640625 6.0625 
Q 34.1875 6.0625 38.53125 11.03125 
Q 42.875 16.015625 42.875 26.21875 
Q 42.875 35.84375 38.5 40.796875 
Q 34.125 45.75 27.640625 45.75 
Q 21.046875 45.75 16.703125 40.8125 
Q 12.359375 35.890625 12.359375 25.921875 
z
" id="ArialMT-111"/>
     <path d="M 40.4375 19 
L 49.078125 17.875 
Q 47.65625 8.9375 41.8125 3.875 
Q 35.984375 -1.171875 27.484375 -1.171875 
Q 16.84375 -1.171875 10.375 5.78125 
Q 3.90625 12.75 3.90625 25.734375 
Q 3.90625 34.125 6.6875 40.421875 
Q 9.46875 46.734375 15.15625 49.875 
Q 20.84375 53.03125 27.546875 53.03125 
Q 35.984375 53.03125 41.359375 48.75 
Q 46.734375 44.484375 48.25 36.625 
L 39.703125 35.296875 
Q 38.484375 40.53125 35.375 43.15625 
Q 32.28125 45.796875 27.875 45.796875 
Q 21.234375 45.796875 17.078125 41.03125 
Q 12.9375 36.28125 12.9375 25.984375 
Q 12.9375 15.53125 16.9375 10.796875 
Q 20.953125 6.0625 27.390625 6.0625 
Q 32.5625 6.0625 36.03125 9.234375 
Q 39.5 12.40625 40.4375 19 
z
" id="ArialMT-99"/>
     <path d="M 42.09375 16.703125 
L 51.171875 15.578125 
Q 49.03125 7.625 43.21875 3.21875 
Q 37.40625 -1.171875 28.375 -1.171875 
Q 17 -1.171875 10.328125 5.828125 
Q 3.65625 12.84375 3.65625 25.484375 
Q 3.65625 38.578125 10.390625 45.796875 
Q 17.140625 53.03125 27.875 53.03125 
Q 38.28125 53.03125 44.875 45.953125 
Q 51.46875 38.875 51.46875 26.03125 
Q 51.46875 25.25 51.421875 23.6875 
L 12.75 23.6875 
Q 13.234375 15.140625 17.578125 10.59375 
Q 21.921875 6.0625 28.421875 6.0625 
Q 33.25 6.0625 36.671875 8.59375 
Q 40.09375 11.140625 42.09375 16.703125 
z
M 13.234375 30.90625 
L 42.1875 30.90625 
Q 41.609375 37.453125 38.875 40.71875 
Q 34.671875 45.796875 27.984375 45.796875 
Q 21.921875 45.796875 17.796875 41.75 
Q 13.671875 37.703125 13.234375 30.90625 
z
" id="ArialMT-101"/>
     <path d="M 7.859375 0 
L 7.859375 71.578125 
L 39.59375 71.578125 
Q 49.171875 71.578125 54.140625 69.640625 
Q 59.125 67.71875 62.109375 62.828125 
Q 65.09375 57.953125 65.09375 52.046875 
Q 65.09375 44.4375 60.15625 39.203125 
Q 55.21875 33.984375 44.921875 32.5625 
Q 48.6875 30.765625 50.640625 29 
Q 54.78125 25.203125 58.5 19.484375 
L 70.953125 0 
L 59.03125 0 
L 49.5625 14.890625 
Q 45.40625 21.34375 42.71875 24.75 
Q 40.046875 28.171875 37.921875 29.53125 
Q 35.796875 30.90625 33.59375 31.453125 
Q 31.984375 31.78125 28.328125 31.78125 
L 17.328125 31.78125 
L 17.328125 0 
z
M 17.328125 39.984375 
L 37.703125 39.984375 
Q 44.1875 39.984375 47.84375 41.328125 
Q 51.515625 42.671875 53.421875 45.625 
Q 55.328125 48.578125 55.328125 52.046875 
Q 55.328125 57.125 51.640625 60.390625 
Q 47.953125 63.671875 39.984375 63.671875 
L 17.328125 63.671875 
z
" id="ArialMT-82"/>
     <path d="M 4.984375 -4.296875 
L 13.53125 -5.5625 
Q 14.0625 -9.515625 16.5 -11.328125 
Q 19.78125 -13.765625 25.4375 -13.765625 
Q 31.546875 -13.765625 34.859375 -11.328125 
Q 38.1875 -8.890625 39.359375 -4.5 
Q 40.046875 -1.8125 39.984375 6.78125 
Q 34.234375 0 25.640625 0 
Q 14.9375 0 9.078125 7.71875 
Q 3.21875 15.4375 3.21875 26.21875 
Q 3.21875 33.640625 5.90625 39.90625 
Q 8.59375 46.1875 13.6875 49.609375 
Q 18.796875 53.03125 25.6875 53.03125 
Q 34.859375 53.03125 40.828125 45.609375 
L 40.828125 51.859375 
L 48.921875 51.859375 
L 48.921875 7.03125 
Q 48.921875 -5.078125 46.453125 -10.125 
Q 44 -15.1875 38.640625 -18.109375 
Q 33.296875 -21.046875 25.484375 -21.046875 
Q 16.21875 -21.046875 10.5 -16.875 
Q 4.78125 -12.703125 4.984375 -4.296875 
z
M 12.25 26.859375 
Q 12.25 16.65625 16.296875 11.96875 
Q 20.359375 7.28125 26.46875 7.28125 
Q 32.515625 7.28125 36.609375 11.9375 
Q 40.71875 16.609375 40.71875 26.5625 
Q 40.71875 36.078125 36.5 40.90625 
Q 32.28125 45.75 26.3125 45.75 
Q 20.453125 45.75 16.34375 40.984375 
Q 12.25 36.234375 12.25 26.859375 
z
" id="ArialMT-103"/>
     <path d="M 8.203125 0 
L 8.203125 71.578125 
L 56.5 71.578125 
L 56.5 63.140625 
L 17.671875 63.140625 
L 17.671875 40.96875 
L 51.265625 40.96875 
L 51.265625 32.515625 
L 17.671875 32.515625 
L 17.671875 0 
z
" id="ArialMT-70"/>
     <path d="M 25.78125 7.859375 
L 27.046875 0.09375 
Q 23.34375 -0.6875 20.40625 -0.6875 
Q 15.625 -0.6875 12.984375 0.828125 
Q 10.359375 2.34375 9.28125 4.8125 
Q 8.203125 7.28125 8.203125 15.1875 
L 8.203125 45.015625 
L 1.765625 45.015625 
L 1.765625 51.859375 
L 8.203125 51.859375 
L 8.203125 64.703125 
L 16.9375 69.96875 
L 16.9375 51.859375 
L 25.78125 51.859375 
L 25.78125 45.015625 
L 16.9375 45.015625 
L 16.9375 14.703125 
Q 16.9375 10.9375 17.40625 9.859375 
Q 17.875 8.796875 18.921875 8.15625 
Q 19.96875 7.515625 21.921875 7.515625 
Q 23.390625 7.515625 25.78125 7.859375 
z
" id="ArialMT-116"/>
     <path d="M 3.171875 21.484375 
L 3.171875 30.328125 
L 30.171875 30.328125 
L 30.171875 21.484375 
z
" id="ArialMT-45"/>
     <path d="M 7.90625 0 
L 7.90625 71.578125 
L 59.671875 71.578125 
L 59.671875 63.140625 
L 17.390625 63.140625 
L 17.390625 41.21875 
L 56.984375 41.21875 
L 56.984375 32.8125 
L 17.390625 32.8125 
L 17.390625 8.453125 
L 61.328125 8.453125 
L 61.328125 0 
z
" id="ArialMT-69"/>
     <path d="M 0.734375 0 
L 19.671875 26.953125 
L 2.15625 51.859375 
L 13.140625 51.859375 
L 21.09375 39.703125 
Q 23.34375 36.234375 24.703125 33.890625 
Q 26.859375 37.109375 28.65625 39.59375 
L 37.40625 51.859375 
L 47.90625 51.859375 
L 29.984375 27.4375 
L 49.265625 0 
L 38.484375 0 
L 27.828125 16.109375 
L 25 20.453125 
L 11.375 0 
z
" id="ArialMT-120"/>
     <path d="M 6.59375 -19.875 
L 6.59375 51.859375 
L 14.59375 51.859375 
L 14.59375 45.125 
Q 17.4375 49.078125 21 51.046875 
Q 24.5625 53.03125 29.640625 53.03125 
Q 36.28125 53.03125 41.359375 49.609375 
Q 46.4375 46.1875 49.015625 39.953125 
Q 51.609375 33.734375 51.609375 26.3125 
Q 51.609375 18.359375 48.75 11.984375 
Q 45.90625 5.609375 40.453125 2.21875 
Q 35.015625 -1.171875 29 -1.171875 
Q 24.609375 -1.171875 21.109375 0.6875 
Q 17.625 2.546875 15.375 5.375 
L 15.375 -19.875 
z
M 14.546875 25.640625 
Q 14.546875 15.625 18.59375 10.84375 
Q 22.65625 6.0625 28.421875 6.0625 
Q 34.28125 6.0625 38.453125 11.015625 
Q 42.625 15.96875 42.625 26.375 
Q 42.625 36.28125 38.546875 41.203125 
Q 34.46875 46.140625 28.8125 46.140625 
Q 23.1875 46.140625 18.859375 40.890625 
Q 14.546875 35.640625 14.546875 25.640625 
z
" id="ArialMT-112"/>
     <path d="M 4.5 23 
L 13.421875 23.78125 
Q 14.0625 18.40625 16.375 14.96875 
Q 18.703125 11.53125 23.578125 9.40625 
Q 28.46875 7.28125 34.578125 7.28125 
Q 39.984375 7.28125 44.140625 8.890625 
Q 48.296875 10.5 50.3125 13.296875 
Q 52.34375 16.109375 52.34375 19.4375 
Q 52.34375 22.796875 50.390625 25.3125 
Q 48.4375 27.828125 43.953125 29.546875 
Q 41.0625 30.671875 31.203125 33.03125 
Q 21.34375 35.40625 17.390625 37.5 
Q 12.25 40.1875 9.734375 44.15625 
Q 7.234375 48.140625 7.234375 53.078125 
Q 7.234375 58.5 10.296875 63.203125 
Q 13.375 67.921875 19.28125 70.359375 
Q 25.203125 72.796875 32.421875 72.796875 
Q 40.375 72.796875 46.453125 70.234375 
Q 52.546875 67.671875 55.8125 62.6875 
Q 59.078125 57.71875 59.328125 51.421875 
L 50.25 50.734375 
Q 49.515625 57.515625 45.28125 60.984375 
Q 41.0625 64.453125 32.8125 64.453125 
Q 24.21875 64.453125 20.28125 61.296875 
Q 16.359375 58.15625 16.359375 53.71875 
Q 16.359375 49.859375 19.140625 47.359375 
Q 21.875 44.875 33.421875 42.265625 
Q 44.96875 39.65625 49.265625 37.703125 
Q 55.515625 34.8125 58.484375 30.390625 
Q 61.46875 25.984375 61.46875 20.21875 
Q 61.46875 14.5 58.203125 9.4375 
Q 54.9375 4.390625 48.796875 1.578125 
Q 42.671875 -1.21875 35.015625 -1.21875 
Q 25.296875 -1.21875 18.71875 1.609375 
Q 12.15625 4.4375 8.421875 10.125 
Q 4.6875 15.828125 4.5 23 
z
" id="ArialMT-83"/>
     <path d="M 39.65625 -19.875 
L 39.65625 5.515625 
Q 37.59375 2.640625 33.90625 0.734375 
Q 30.21875 -1.171875 26.078125 -1.171875 
Q 16.84375 -1.171875 10.171875 6.203125 
Q 3.515625 13.578125 3.515625 26.421875 
Q 3.515625 34.234375 6.21875 40.421875 
Q 8.9375 46.625 14.078125 49.828125 
Q 19.234375 53.03125 25.390625 53.03125 
Q 35.015625 53.03125 40.53125 44.921875 
L 40.53125 51.859375 
L 48.4375 51.859375 
L 48.4375 -19.875 
z
M 12.546875 26.078125 
Q 12.546875 16.0625 16.75 11.0625 
Q 20.953125 6.0625 26.8125 6.0625 
Q 32.421875 6.0625 36.46875 10.8125 
Q 40.53125 15.578125 40.53125 25.296875 
Q 40.53125 35.640625 36.25 40.859375 
Q 31.984375 46.09375 26.21875 46.09375 
Q 20.515625 46.09375 16.53125 41.234375 
Q 12.546875 36.375 12.546875 26.078125 
z
" id="ArialMT-113"/>
     <path d="M 40.234375 0 
L 40.234375 6.546875 
Q 35.296875 -1.171875 25.734375 -1.171875 
Q 19.53125 -1.171875 14.328125 2.25 
Q 9.125 5.671875 6.265625 11.796875 
Q 3.421875 17.921875 3.421875 25.875 
Q 3.421875 33.640625 6 39.96875 
Q 8.59375 46.296875 13.765625 49.65625 
Q 18.953125 53.03125 25.34375 53.03125 
Q 30.03125 53.03125 33.6875 51.046875 
Q 37.359375 49.078125 39.65625 45.90625 
L 39.65625 71.578125 
L 48.390625 71.578125 
L 48.390625 0 
z
M 12.453125 25.875 
Q 12.453125 15.921875 16.640625 10.984375 
Q 20.84375 6.0625 26.5625 6.0625 
Q 32.328125 6.0625 36.34375 10.765625 
Q 40.375 15.484375 40.375 25.140625 
Q 40.375 35.796875 36.265625 40.765625 
Q 32.171875 45.75 26.171875 45.75 
Q 20.3125 45.75 16.375 40.96875 
Q 12.453125 36.1875 12.453125 25.875 
z
" id="ArialMT-100"/>
     <path d="M 7.328125 0 
L 7.328125 71.578125 
L 16.796875 71.578125 
L 16.796875 36.078125 
L 52.34375 71.578125 
L 65.1875 71.578125 
L 35.15625 42.578125 
L 66.5 0 
L 54 0 
L 28.515625 36.234375 
L 16.796875 24.8125 
L 16.796875 0 
z
" id="ArialMT-75"/>
     <path d="M 6.390625 0 
L 6.390625 71.578125 
L 15.1875 71.578125 
L 15.1875 0 
z
" id="ArialMT-108"/>
    </defs>
    <g style="fill:#262626;" transform="translate(213.674375 15.935625)scale(0.12 -0.12)">
     <use xlink:href="#ArialMT-71"/>
     <use x="77.783203" xlink:href="#ArialMT-97"/>
     <use x="133.398438" xlink:href="#ArialMT-117"/>
     <use x="189.013672" xlink:href="#ArialMT-115"/>
     <use x="239.013672" xlink:href="#ArialMT-115"/>
     <use x="289.013672" xlink:href="#ArialMT-105"/>
     <use x="311.230469" xlink:href="#ArialMT-97"/>
     <use x="366.845703" xlink:href="#ArialMT-110"/>
     <use x="422.460938" xlink:href="#ArialMT-32"/>
     <use x="450.244141" xlink:href="#ArialMT-80"/>
     <use x="516.943359" xlink:href="#ArialMT-114"/>
     <use x="550.244141" xlink:href="#ArialMT-111"/>
     <use x="605.859375" xlink:href="#ArialMT-99"/>
     <use x="655.859375" xlink:href="#ArialMT-101"/>
     <use x="711.474609" xlink:href="#ArialMT-115"/>
     <use x="761.474609" xlink:href="#ArialMT-115"/>
     <use x="811.474609" xlink:href="#ArialMT-32"/>
     <use x="839.257812" xlink:href="#ArialMT-82"/>
     <use x="911.474609" xlink:href="#ArialMT-101"/>
     <use x="967.089844" xlink:href="#ArialMT-103"/>
     <use x="1022.705078" xlink:href="#ArialMT-114"/>
     <use x="1056.005859" xlink:href="#ArialMT-101"/>
     <use x="1111.621094" xlink:href="#ArialMT-115"/>
     <use x="1161.621094" xlink:href="#ArialMT-115"/>
     <use x="1211.621094" xlink:href="#ArialMT-105"/>
     <use x="1233.837891" xlink:href="#ArialMT-111"/>
     <use x="1289.453125" xlink:href="#ArialMT-110"/>
     <use x="1345.068359" xlink:href="#ArialMT-32"/>
     <use x="1372.851562" xlink:href="#ArialMT-70"/>
     <use x="1433.935547" xlink:href="#ArialMT-105"/>
     <use x="1456.152344" xlink:href="#ArialMT-116"/>
     <use x="1483.935547" xlink:href="#ArialMT-32"/>
     <use x="1511.71875" xlink:href="#ArialMT-45"/>
     <use x="1545.019531" xlink:href="#ArialMT-32"/>
     <use x="1572.802734" xlink:href="#ArialMT-69"/>
     <use x="1639.501953" xlink:href="#ArialMT-120"/>
     <use x="1689.501953" xlink:href="#ArialMT-112"/>
     <use x="1745.117188" xlink:href="#ArialMT-83"/>
     <use x="1811.816406" xlink:href="#ArialMT-105"/>
     <use x="1834.033203" xlink:href="#ArialMT-110"/>
     <use x="1889.648438" xlink:href="#ArialMT-83"/>
     <use x="1956.347656" xlink:href="#ArialMT-113"/>
     <use x="2011.962891" xlink:href="#ArialMT-117"/>
     <use x="2067.578125" xlink:href="#ArialMT-97"/>
     <use x="2123.193359" xlink:href="#ArialMT-114"/>
     <use x="2156.494141" xlink:href="#ArialMT-101"/>
     <use x="2212.109375" xlink:href="#ArialMT-100"/>
     <use x="2267.724609" xlink:href="#ArialMT-32"/>
     <use x="2295.507812" xlink:href="#ArialMT-75"/>
     <use x="2362.207031" xlink:href="#ArialMT-101"/>
     <use x="2417.822266" xlink:href="#ArialMT-114"/>
     <use x="2451.123047" xlink:href="#ArialMT-110"/>
     <use x="2506.738281" xlink:href="#ArialMT-101"/>
     <use x="2562.353516" xlink:href="#ArialMT-108"/>
    </g>
   </g>
  </g>
 </g>
 <defs>
  <clipPath id="p4839539700">
   <rect height="326.16" width="669.6" x="33.940625" y="21.935625"/>
  </clipPath>
 </defs>
</svg>
