<?xml version="1.0" encoding="UTF-8" standalone="no"?>
<!DOCTYPE svg PUBLIC "-//W3C//DTD SVG 1.1//EN"
 "http://www.w3.org/Graphics/SVG/1.1/DTD/svg11.dtd">
<!-- Generated by graphviz version 14.0.4 (0)
 -->
<!-- Pages: 1 -->
<svg width="1228pt" height="584pt"
 viewBox="0.00 0.00 1228.00 584.00" xmlns="http://www.w3.org/2000/svg" xmlns:xlink="http://www.w3.org/1999/xlink">
<g id="graph0" class="graph" transform="scale(1 1) rotate(0) translate(4 580.45)">
<polygon fill="white" stroke="none" points="-4,4 -4,-580.45 1224,-580.45 1224,4 -4,4"/>
<g id="clust1" class="cluster">
<title>clusterobs_idx (192) x covariates (1)</title>
<path fill="none" stroke="black" d="M20,-328.73C20,-328.73 176,-328.73 176,-328.73 182,-328.73 188,-334.73 188,-340.73 188,-340.73 188,-414.73 188,-414.73 188,-420.73 182,-426.73 176,-426.73 176,-426.73 20,-426.73 20,-426.73 14,-426.73 8,-420.73 8,-414.73 8,-414.73 8,-340.73 8,-340.73 8,-334.73 14,-328.73 20,-328.73"/>
<text xml:space="preserve" text-anchor="middle" x="97.88" y="-335.93" font-family="Times,serif" font-size="14.00">obs_idx (192) x covariates (1)</text>
</g>
<g id="clust2" class="cluster">
<title>clusterobs_idx (192)</title>
<path fill="none" stroke="black" d="M208,-8C208,-8 523,-8 523,-8 529,-8 535,-14 535,-20 535,-20 535,-414.73 535,-414.73 535,-420.73 529,-426.73 523,-426.73 523,-426.73 208,-426.73 208,-426.73 202,-426.73 196,-420.73 196,-414.73 196,-414.73 196,-20 196,-20 196,-14 202,-8 208,-8"/>
<text xml:space="preserve" text-anchor="middle" x="489.12" y="-15.2" font-family="Times,serif" font-size="14.00">obs_idx (192)</text>
</g>
<g id="clust3" class="cluster">
<title>clustergrade (4)</title>
<path fill="none" stroke="black" d="M707,-446.63C707,-446.63 1200,-446.63 1200,-446.63 1206,-446.63 1212,-452.63 1212,-458.63 1212,-458.63 1212,-556.45 1212,-556.45 1212,-562.45 1206,-568.45 1200,-568.45 1200,-568.45 707,-568.45 707,-568.45 701,-568.45 695,-562.45 695,-556.45 695,-556.45 695,-458.63 695,-458.63 695,-452.63 701,-446.63 707,-446.63"/>
<text xml:space="preserve" text-anchor="middle" x="1179.25" y="-453.83" font-family="Times,serif" font-size="14.00">grade (4)</text>
</g>
<g id="clust4" class="cluster">
<title>clusterpair_id (96) x grade (4)</title>
<path fill="none" stroke="black" d="M555,-328.73C555,-328.73 675,-328.73 675,-328.73 681,-328.73 687,-334.73 687,-340.73 687,-340.73 687,-556.45 687,-556.45 687,-562.45 681,-568.45 675,-568.45 675,-568.45 555,-568.45 555,-568.45 549,-568.45 543,-562.45 543,-556.45 543,-556.45 543,-340.73 543,-340.73 543,-334.73 549,-328.73 555,-328.73"/>
<text xml:space="preserve" text-anchor="middle" x="614.88" y="-335.93" font-family="Times,serif" font-size="14.00">pair_id (96) x grade (4)</text>
</g>
<g id="clust5" class="cluster">
<title>clustergrade (4) x covariates (1)</title>
<path fill="none" stroke="black" d="M737,-316.82C737,-316.82 867,-316.82 867,-316.82 873,-316.82 879,-322.82 879,-328.82 879,-328.82 879,-426.63 879,-426.63 879,-432.63 873,-438.63 867,-438.63 867,-438.63 737,-438.63 737,-438.63 731,-438.63 725,-432.63 725,-426.63 725,-426.63 725,-328.82 725,-328.82 725,-322.82 731,-316.82 737,-316.82"/>
<text xml:space="preserve" text-anchor="middle" x="802" y="-324.02" font-family="Times,serif" font-size="14.00">grade (4) x covariates (1)</text>
</g>
<!-- x_data -->
<g id="node1" class="node">
<title>x_data</title>
<path fill="lightgrey" stroke="black" d="M168,-418.73C168,-418.73 138,-418.73 138,-418.73 132,-418.73 126,-412.73 126,-406.73 126,-406.73 126,-373.23 126,-373.23 126,-367.23 132,-361.23 138,-361.23 138,-361.23 168,-361.23 168,-361.23 174,-361.23 180,-367.23 180,-373.23 180,-373.23 180,-406.73 180,-406.73 180,-412.73 174,-418.73 168,-418.73"/>
<text xml:space="preserve" text-anchor="middle" x="153" y="-401.43" font-family="Times,serif" font-size="14.00">x_data</text>
<text xml:space="preserve" text-anchor="middle" x="153" y="-384.93" font-family="Times,serif" font-size="14.00">~</text>
<text xml:space="preserve" text-anchor="middle" x="153" y="-368.43" font-family="Times,serif" font-size="14.00">Data</text>
</g>
<!-- mu_outcome -->
<g id="node2" class="node">
<title>mu_outcome</title>
<polygon fill="none" stroke="black" points="518.12,-308.82 427.88,-308.82 427.88,-251.32 518.12,-251.32 518.12,-308.82"/>
<text xml:space="preserve" text-anchor="middle" x="473" y="-291.52" font-family="Times,serif" font-size="14.00">mu_outcome</text>
<text xml:space="preserve" text-anchor="middle" x="473" y="-275.02" font-family="Times,serif" font-size="14.00">~</text>
<text xml:space="preserve" text-anchor="middle" x="473" y="-258.52" font-family="Times,serif" font-size="14.00">Deterministic</text>
</g>
<!-- x_data&#45;&gt;mu_outcome -->
<g id="edge8" class="edge">
<title>x_data&#45;&gt;mu_outcome</title>
<path fill="none" stroke="black" d="M161.08,-360.99C167.06,-345.45 176.85,-327.2 192,-316.82 227.3,-292.62 344.5,-284.8 415.91,-282.27"/>
<polygon fill="black" stroke="black" points="416,-285.77 425.88,-281.95 415.77,-278.78 416,-285.77"/>
</g>
<!-- post_test_obs -->
<g id="node5" class="node">
<title>post_test_obs</title>
<ellipse fill="lightgrey" stroke="black" cx="464" cy="-174.66" rx="63.29" ry="40.66"/>
<text xml:space="preserve" text-anchor="middle" x="464" y="-186.11" font-family="Times,serif" font-size="14.00">post_test_obs</text>
<text xml:space="preserve" text-anchor="middle" x="464" y="-169.61" font-family="Times,serif" font-size="14.00">~</text>
<text xml:space="preserve" text-anchor="middle" x="464" y="-153.11" font-family="Times,serif" font-size="14.00">Normal</text>
</g>
<!-- mu_outcome&#45;&gt;post_test_obs -->
<g id="edge13" class="edge">
<title>mu_outcome&#45;&gt;post_test_obs</title>
<path fill="none" stroke="black" d="M470.56,-251.08C469.91,-243.6 469.19,-235.27 468.46,-226.95"/>
<polygon fill="black" stroke="black" points="471.97,-226.87 467.62,-217.21 465,-227.47 471.97,-226.87"/>
</g>
<!-- post_test_data -->
<g id="node3" class="node">
<title>post_test_data</title>
<path fill="lightgrey" stroke="black" d="M498.62,-98C498.62,-98 429.38,-98 429.38,-98 423.38,-98 417.38,-92 417.38,-86 417.38,-86 417.38,-52.5 417.38,-52.5 417.38,-46.5 423.38,-40.5 429.38,-40.5 429.38,-40.5 498.62,-40.5 498.62,-40.5 504.62,-40.5 510.62,-46.5 510.62,-52.5 510.62,-52.5 510.62,-86 510.62,-86 510.62,-92 504.62,-98 498.62,-98"/>
<text xml:space="preserve" text-anchor="middle" x="464" y="-80.7" font-family="Times,serif" font-size="14.00">post_test_data</text>
<text xml:space="preserve" text-anchor="middle" x="464" y="-64.2" font-family="Times,serif" font-size="14.00">~</text>
<text xml:space="preserve" text-anchor="middle" x="464" y="-47.7" font-family="Times,serif" font-size="14.00">Data</text>
</g>
<!-- pair_idx_data -->
<g id="node4" class="node">
<title>pair_idx_data</title>
<path fill="lightgrey" stroke="black" d="M515.12,-418.73C515.12,-418.73 448.88,-418.73 448.88,-418.73 442.88,-418.73 436.88,-412.73 436.88,-406.73 436.88,-406.73 436.88,-373.23 436.88,-373.23 436.88,-367.23 442.88,-361.23 448.88,-361.23 448.88,-361.23 515.12,-361.23 515.12,-361.23 521.12,-361.23 527.12,-367.23 527.12,-373.23 527.12,-373.23 527.12,-406.73 527.12,-406.73 527.12,-412.73 521.12,-418.73 515.12,-418.73"/>
<text xml:space="preserve" text-anchor="middle" x="482" y="-401.43" font-family="Times,serif" font-size="14.00">pair_idx_data</text>
<text xml:space="preserve" text-anchor="middle" x="482" y="-384.93" font-family="Times,serif" font-size="14.00">~</text>
<text xml:space="preserve" text-anchor="middle" x="482" y="-368.43" font-family="Times,serif" font-size="14.00">Data</text>
</g>
<!-- pair_idx_data&#45;&gt;mu_outcome -->
<g id="edge10" class="edge">
<title>pair_idx_data&#45;&gt;mu_outcome</title>
<path fill="none" stroke="black" d="M479.66,-360.91C478.63,-348.54 477.4,-333.8 476.28,-320.37"/>
<polygon fill="black" stroke="black" points="479.77,-320.18 475.46,-310.51 472.8,-320.76 479.77,-320.18"/>
</g>
<!-- post_test_obs&#45;&gt;post_test_data -->
<g id="edge1" class="edge">
<title>post_test_obs&#45;&gt;post_test_data</title>
<path fill="none" stroke="black" d="M464,-133.68C464,-125.83 464,-117.6 464,-109.76"/>
<polygon fill="black" stroke="black" points="467.5,-109.79 464,-99.79 460.5,-109.79 467.5,-109.79"/>
</g>
<!-- treatment_data -->
<g id="node6" class="node">
<title>treatment_data</title>
<path fill="lightgrey" stroke="black" d="M406.5,-418.73C406.5,-418.73 333.5,-418.73 333.5,-418.73 327.5,-418.73 321.5,-412.73 321.5,-406.73 321.5,-406.73 321.5,-373.23 321.5,-373.23 321.5,-367.23 327.5,-361.23 333.5,-361.23 333.5,-361.23 406.5,-361.23 406.5,-361.23 412.5,-361.23 418.5,-367.23 418.5,-373.23 418.5,-373.23 418.5,-406.73 418.5,-406.73 418.5,-412.73 412.5,-418.73 406.5,-418.73"/>
<text xml:space="preserve" text-anchor="middle" x="370" y="-401.43" font-family="Times,serif" font-size="14.00">treatment_data</text>
<text xml:space="preserve" text-anchor="middle" x="370" y="-384.93" font-family="Times,serif" font-size="14.00">~</text>
<text xml:space="preserve" text-anchor="middle" x="370" y="-368.43" font-family="Times,serif" font-size="14.00">Data</text>
</g>
<!-- treatment_data&#45;&gt;mu_outcome -->
<g id="edge7" class="edge">
<title>treatment_data&#45;&gt;mu_outcome</title>
<path fill="none" stroke="black" d="M390.14,-361.03C399.4,-348.86 410.97,-334.55 428.28,-317"/>
<polygon fill="black" stroke="black" points="430.36,-319.88 434.99,-310.35 425.42,-314.91 430.36,-319.88"/>
</g>
<!-- grade_idx_data -->
<g id="node7" class="node">
<title>grade_idx_data</title>
<path fill="lightgrey" stroke="black" d="M291.62,-418.73C291.62,-418.73 216.38,-418.73 216.38,-418.73 210.38,-418.73 204.38,-412.73 204.38,-406.73 204.38,-406.73 204.38,-373.23 204.38,-373.23 204.38,-367.23 210.38,-361.23 216.38,-361.23 216.38,-361.23 291.62,-361.23 291.62,-361.23 297.62,-361.23 303.62,-367.23 303.62,-373.23 303.62,-373.23 303.62,-406.73 303.62,-406.73 303.62,-412.73 297.62,-418.73 291.62,-418.73"/>
<text xml:space="preserve" text-anchor="middle" x="254" y="-401.43" font-family="Times,serif" font-size="14.00">grade_idx_data</text>
<text xml:space="preserve" text-anchor="middle" x="254" y="-384.93" font-family="Times,serif" font-size="14.00">~</text>
<text xml:space="preserve" text-anchor="middle" x="254" y="-368.43" font-family="Times,serif" font-size="14.00">Data</text>
</g>
<!-- grade_idx_data&#45;&gt;mu_outcome -->
<g id="edge11" class="edge">
<title>grade_idx_data&#45;&gt;mu_outcome</title>
<path fill="none" stroke="black" d="M270.28,-361.05C280.62,-345.73 295.37,-327.69 313,-316.82 321.98,-311.28 374.22,-300.17 416.6,-291.79"/>
<polygon fill="black" stroke="black" points="417.06,-295.27 426.2,-289.91 415.72,-288.4 417.06,-295.27"/>
</g>
<!-- grade_idx_data&#45;&gt;post_test_obs -->
<g id="edge14" class="edge">
<title>grade_idx_data&#45;&gt;post_test_obs</title>
<path fill="none" stroke="black" d="M275.58,-360.83C286.4,-347.18 299.95,-330.76 313,-316.82 346.62,-280.89 387.54,-242.96 418.3,-215.47"/>
<polygon fill="black" stroke="black" points="420.41,-218.27 425.56,-209.01 415.76,-213.04 420.41,-218.27"/>
</g>
<!-- sigma_alpha -->
<g id="node8" class="node">
<title>sigma_alpha</title>
<ellipse fill="none" stroke="black" cx="880" cy="-519.79" rx="60.1" ry="40.66"/>
<text xml:space="preserve" text-anchor="middle" x="880" y="-531.24" font-family="Times,serif" font-size="14.00">sigma_alpha</text>
<text xml:space="preserve" text-anchor="middle" x="880" y="-514.74" font-family="Times,serif" font-size="14.00">~</text>
<text xml:space="preserve" text-anchor="middle" x="880" y="-498.24" font-family="Times,serif" font-size="14.00">Halfnormal</text>
</g>
<!-- alpha -->
<g id="node12" class="node">
<title>alpha</title>
<polygon fill="none" stroke="black" points="678.12,-418.73 587.88,-418.73 587.88,-361.23 678.12,-361.23 678.12,-418.73"/>
<text xml:space="preserve" text-anchor="middle" x="633" y="-401.43" font-family="Times,serif" font-size="14.00">alpha</text>
<text xml:space="preserve" text-anchor="middle" x="633" y="-384.93" font-family="Times,serif" font-size="14.00">~</text>
<text xml:space="preserve" text-anchor="middle" x="633" y="-368.43" font-family="Times,serif" font-size="14.00">Deterministic</text>
</g>
<!-- sigma_alpha&#45;&gt;alpha -->
<g id="edge2" class="edge">
<title>sigma_alpha&#45;&gt;alpha</title>
<path fill="none" stroke="black" d="M854.34,-482.66C842.51,-468.91 827.26,-454.64 810,-446.63 762.31,-424.52 740.94,-457.82 692,-438.63 684.25,-435.6 676.72,-431.15 669.79,-426.18"/>
<polygon fill="black" stroke="black" points="671.97,-423.44 661.93,-420.08 667.68,-428.97 671.97,-423.44"/>
</g>
<!-- theta -->
<g id="node9" class="node">
<title>theta</title>
<ellipse fill="none" stroke="black" cx="999" cy="-519.79" rx="41.01" ry="40.66"/>
<text xml:space="preserve" text-anchor="middle" x="999" y="-531.24" font-family="Times,serif" font-size="14.00">theta</text>
<text xml:space="preserve" text-anchor="middle" x="999" y="-514.74" font-family="Times,serif" font-size="14.00">~</text>
<text xml:space="preserve" text-anchor="middle" x="999" y="-498.24" font-family="Times,serif" font-size="14.00">Normal</text>
</g>
<!-- theta&#45;&gt;mu_outcome -->
<g id="edge9" class="edge">
<title>theta&#45;&gt;mu_outcome</title>
<path fill="none" stroke="black" d="M982.67,-482.24C974.6,-468.6 963.45,-454.53 949,-446.63 926.75,-434.48 740.68,-454.62 721,-438.63 677.72,-403.48 731.95,-354.66 691,-316.82 668.07,-295.63 586.16,-286.93 529.54,-283.41"/>
<polygon fill="black" stroke="black" points="529.93,-279.93 519.74,-282.84 529.52,-286.91 529.93,-279.93"/>
</g>
<!-- mu_alpha -->
<g id="node10" class="node">
<title>mu_alpha</title>
<ellipse fill="none" stroke="black" cx="752" cy="-519.79" rx="49.5" ry="40.66"/>
<text xml:space="preserve" text-anchor="middle" x="752" y="-531.24" font-family="Times,serif" font-size="14.00">mu_alpha</text>
<text xml:space="preserve" text-anchor="middle" x="752" y="-514.74" font-family="Times,serif" font-size="14.00">~</text>
<text xml:space="preserve" text-anchor="middle" x="752" y="-498.24" font-family="Times,serif" font-size="14.00">Normal</text>
</g>
<!-- mu_alpha&#45;&gt;alpha -->
<g id="edge3" class="edge">
<title>mu_alpha&#45;&gt;alpha</title>
<path fill="none" stroke="black" d="M725.07,-485.48C714.7,-473.04 702.57,-458.95 691,-446.63 684.89,-440.12 678.21,-433.39 671.63,-426.95"/>
<polygon fill="black" stroke="black" points="674.1,-424.48 664.48,-420.05 669.24,-429.51 674.1,-424.48"/>
</g>
<!-- sigma_outcome -->
<g id="node11" class="node">
<title>sigma_outcome</title>
<ellipse fill="none" stroke="black" cx="1131" cy="-519.79" rx="72.83" ry="40.66"/>
<text xml:space="preserve" text-anchor="middle" x="1131" y="-531.24" font-family="Times,serif" font-size="14.00">sigma_outcome</text>
<text xml:space="preserve" text-anchor="middle" x="1131" y="-514.74" font-family="Times,serif" font-size="14.00">~</text>
<text xml:space="preserve" text-anchor="middle" x="1131" y="-498.24" font-family="Times,serif" font-size="14.00">Halfnormal</text>
</g>
<!-- sigma_outcome&#45;&gt;post_test_obs -->
<g id="edge12" class="edge">
<title>sigma_outcome&#45;&gt;post_test_obs</title>
<path fill="none" stroke="black" d="M1096.76,-483.63C1051.57,-439.05 967.81,-362.52 883,-316.82 767.89,-254.78 620.44,-212.8 534.66,-191.65"/>
<polygon fill="black" stroke="black" points="535.51,-188.26 524.96,-189.29 533.85,-195.06 535.51,-188.26"/>
</g>
<!-- alpha&#45;&gt;mu_outcome -->
<g id="edge6" class="edge">
<title>alpha&#45;&gt;mu_outcome</title>
<path fill="none" stroke="black" d="M599.13,-360.9C581.66,-346.95 559.71,-330.26 539,-316.82 535.52,-314.56 531.88,-312.3 528.17,-310.09"/>
<polygon fill="black" stroke="black" points="530,-307.11 519.6,-305.12 526.49,-313.17 530,-307.11"/>
</g>
<!-- z_alpha -->
<g id="node13" class="node">
<title>z_alpha</title>
<ellipse fill="none" stroke="black" cx="633" cy="-519.79" rx="41.01" ry="40.66"/>
<text xml:space="preserve" text-anchor="middle" x="633" y="-531.24" font-family="Times,serif" font-size="14.00">z_alpha</text>
<text xml:space="preserve" text-anchor="middle" x="633" y="-514.74" font-family="Times,serif" font-size="14.00">~</text>
<text xml:space="preserve" text-anchor="middle" x="633" y="-498.24" font-family="Times,serif" font-size="14.00">Normal</text>
</g>
<!-- z_alpha&#45;&gt;alpha -->
<g id="edge4" class="edge">
<title>z_alpha&#45;&gt;alpha</title>
<path fill="none" stroke="black" d="M633,-478.7C633,-463.3 633,-445.74 633,-430.4"/>
<polygon fill="black" stroke="black" points="636.5,-430.69 633,-420.69 629.5,-430.69 636.5,-430.69"/>
</g>
<!-- beta_x -->
<g id="node14" class="node">
<title>beta_x</title>
<ellipse fill="none" stroke="black" cx="775" cy="-389.98" rx="41.01" ry="40.66"/>
<text xml:space="preserve" text-anchor="middle" x="775" y="-401.43" font-family="Times,serif" font-size="14.00">beta_x</text>
<text xml:space="preserve" text-anchor="middle" x="775" y="-384.93" font-family="Times,serif" font-size="14.00">~</text>
<text xml:space="preserve" text-anchor="middle" x="775" y="-368.43" font-family="Times,serif" font-size="14.00">Normal</text>
</g>
<!-- beta_x&#45;&gt;mu_outcome -->
<g id="edge5" class="edge">
<title>beta_x&#45;&gt;mu_outcome</title>
<path fill="none" stroke="black" d="M756.06,-353.53C746.97,-339.89 734.8,-325.52 720,-316.82 688.71,-298.41 592.55,-288.79 529.85,-284.33"/>
<polygon fill="black" stroke="black" points="530.29,-280.85 520.07,-283.66 529.81,-287.83 530.29,-280.85"/>
</g>
</g>
</svg>
