<?xml version="1.0" encoding="UTF-8" standalone="no"?>
<!DOCTYPE svg PUBLIC "-//W3C//DTD SVG 1.1//EN"
 "http://www.w3.org/Graphics/SVG/1.1/DTD/svg11.dtd">
<!-- Generated by graphviz version 14.0.4 (0)
 -->
<!-- Pages: 1 -->
<svg width="1035pt" height="1254pt"
 viewBox="0.00 0.00 1035.00 1254.00" xmlns="http://www.w3.org/2000/svg" xmlns:xlink="http://www.w3.org/1999/xlink">
<g id="graph0" class="graph" transform="scale(1 1) rotate(0) translate(4 1250.4)">
<polygon fill="white" stroke="none" points="-4,4 -4,-1250.4 1031,-1250.4 1031,4 -4,4"/>
<g id="clust1" class="cluster">
<title>clusterobs_idx (192) x covariates (1)</title>
<path fill="none" stroke="black" d="M368,-328.73C368,-328.73 524,-328.73 524,-328.73 530,-328.73 536,-334.73 536,-340.73 536,-340.73 536,-414.73 536,-414.73 536,-420.73 530,-426.73 524,-426.73 524,-426.73 368,-426.73 368,-426.73 362,-426.73 356,-420.73 356,-414.73 356,-414.73 356,-340.73 356,-340.73 356,-334.73 362,-328.73 368,-328.73"/>
<text xml:space="preserve" text-anchor="middle" x="445.88" y="-335.93" font-family="Times,serif" font-size="14.00">obs_idx (192) x covariates (1)</text>
</g>
<g id="clust2" class="cluster">
<title>clusterobs_idx (192)</title>
<path fill="none" stroke="black" d="M20,-8C20,-8 336,-8 336,-8 342,-8 348,-14 348,-20 348,-20 348,-414.73 348,-414.73 348,-420.73 342,-426.73 336,-426.73 336,-426.73 20,-426.73 20,-426.73 14,-426.73 8,-420.73 8,-414.73 8,-414.73 8,-20 8,-20 8,-14 14,-8 20,-8"/>
<text xml:space="preserve" text-anchor="middle" x="302.12" y="-15.2" font-family="Times,serif" font-size="14.00">obs_idx (192)</text>
</g>
<g id="clust3" class="cluster">
<title>clustergrade (4) x covariates (1)</title>
<path fill="none" stroke="black" d="M778,-316.82C778,-316.82 908,-316.82 908,-316.82 914,-316.82 920,-322.82 920,-328.82 920,-328.82 920,-426.63 920,-426.63 920,-432.63 914,-438.63 908,-438.63 908,-438.63 778,-438.63 778,-438.63 772,-438.63 766,-432.63 766,-426.63 766,-426.63 766,-328.82 766,-328.82 766,-322.82 772,-316.82 778,-316.82"/>
<text xml:space="preserve" text-anchor="middle" x="843" y="-324.02" font-family="Times,serif" font-size="14.00">grade (4) x covariates (1)</text>
</g>
<g id="clust4" class="cluster">
<title>clustergrade (4)</title>
<path fill="none" stroke="black" d="M640,-446.63C640,-446.63 1007,-446.63 1007,-446.63 1013,-446.63 1019,-452.63 1019,-458.63 1019,-458.63 1019,-556.45 1019,-556.45 1019,-562.45 1013,-568.45 1007,-568.45 1007,-568.45 640,-568.45 640,-568.45 634,-568.45 628,-562.45 628,-556.45 628,-556.45 628,-458.63 628,-458.63 628,-452.63 634,-446.63 640,-446.63"/>
<text xml:space="preserve" text-anchor="middle" x="986.25" y="-453.83" font-family="Times,serif" font-size="14.00">grade (4)</text>
</g>
<g id="clust5" class="cluster">
<title>clustergrade (4) x effect (2)</title>
<path fill="none" stroke="black" d="M277,-999.27C277,-999.27 383,-999.27 383,-999.27 389,-999.27 395,-1005.27 395,-1011.27 395,-1011.27 395,-1109.09 395,-1109.09 395,-1115.09 389,-1121.09 383,-1121.09 383,-1121.09 277,-1121.09 277,-1121.09 271,-1121.09 265,-1115.09 265,-1109.09 265,-1109.09 265,-1011.27 265,-1011.27 265,-1005.27 271,-999.27 277,-999.27"/>
<text xml:space="preserve" text-anchor="middle" x="330" y="-1006.47" font-family="Times,serif" font-size="14.00">grade (4) x effect (2)</text>
</g>
<g id="clust6" class="cluster">
<title>clustergrade (4) x corr_dim (1)</title>
<path fill="none" stroke="black" d="M415,-1011.18C415,-1011.18 541,-1011.18 541,-1011.18 547,-1011.18 553,-1017.18 553,-1023.18 553,-1023.18 553,-1226.4 553,-1226.4 553,-1232.4 547,-1238.4 541,-1238.4 541,-1238.4 415,-1238.4 415,-1238.4 409,-1238.4 403,-1232.4 403,-1226.4 403,-1226.4 403,-1023.18 403,-1023.18 403,-1017.18 409,-1011.18 415,-1011.18"/>
<text xml:space="preserve" text-anchor="middle" x="478.25" y="-1018.38" font-family="Times,serif" font-size="14.00">grade (4) x corr_dim (1)</text>
</g>
<g id="clust7" class="cluster">
<title>clustergrade (4) x effect (2) x effect_copy (2)</title>
<path fill="none" stroke="black" d="M295,-694.36C295,-694.36 499,-694.36 499,-694.36 505,-694.36 511,-700.36 511,-706.36 511,-706.36 511,-979.27 511,-979.27 511,-985.27 505,-991.27 499,-991.27 499,-991.27 295,-991.27 295,-991.27 289,-991.27 283,-985.27 283,-979.27 283,-979.27 283,-706.36 283,-706.36 283,-700.36 289,-694.36 295,-694.36"/>
<text xml:space="preserve" text-anchor="middle" x="397.25" y="-701.56" font-family="Times,serif" font-size="14.00">grade (4) x effect (2) x effect_copy (2)</text>
</g>
<g id="clust8" class="cluster">
<title>clustergrade (4) x effect (2) x pair_id (96)</title>
<path fill="none" stroke="black" d="M531,-682.45C531,-682.45 716,-682.45 716,-682.45 722,-682.45 728,-688.45 728,-694.45 728,-694.45 728,-792.27 728,-792.27 728,-798.27 722,-804.27 716,-804.27 716,-804.27 531,-804.27 531,-804.27 525,-804.27 519,-798.27 519,-792.27 519,-792.27 519,-694.45 519,-694.45 519,-688.45 525,-682.45 531,-682.45"/>
<text xml:space="preserve" text-anchor="middle" x="623.62" y="-689.65" font-family="Times,serif" font-size="14.00">grade (4) x effect (2) x pair_id (96)</text>
</g>
<g id="clust9" class="cluster">
<title>clustergrade (4) x pair_id (96) x effect (2)</title>
<path fill="none" stroke="black" d="M421,-576.45C421,-576.45 606,-576.45 606,-576.45 612,-576.45 618,-582.45 618,-588.45 618,-588.45 618,-662.45 618,-662.45 618,-668.45 612,-674.45 606,-674.45 606,-674.45 421,-674.45 421,-674.45 415,-674.45 409,-668.45 409,-662.45 409,-662.45 409,-588.45 409,-588.45 409,-582.45 415,-576.45 421,-576.45"/>
<text xml:space="preserve" text-anchor="middle" x="513.62" y="-583.65" font-family="Times,serif" font-size="14.00">grade (4) x pair_id (96) x effect (2)</text>
</g>
<g id="clust10" class="cluster">
<title>clustergrade (4) x pair_id (96)</title>
<path fill="none" stroke="black" d="M418,-458.54C418,-458.54 608,-458.54 608,-458.54 614,-458.54 620,-464.54 620,-470.54 620,-470.54 620,-544.54 620,-544.54 620,-550.54 614,-556.54 608,-556.54 608,-556.54 418,-556.54 418,-556.54 412,-556.54 406,-550.54 406,-544.54 406,-544.54 406,-470.54 406,-470.54 406,-464.54 412,-458.54 418,-458.54"/>
<text xml:space="preserve" text-anchor="middle" x="547.88" y="-465.74" font-family="Times,serif" font-size="14.00">grade (4) x pair_id (96)</text>
</g>
<g id="clust11" class="cluster">
<title>clusterpair_id (96) x grade (4)</title>
<path fill="none" stroke="black" d="M556,-328.73C556,-328.73 746,-328.73 746,-328.73 752,-328.73 758,-334.73 758,-340.73 758,-340.73 758,-414.73 758,-414.73 758,-420.73 752,-426.73 746,-426.73 746,-426.73 556,-426.73 556,-426.73 550,-426.73 544,-420.73 544,-414.73 544,-414.73 544,-340.73 544,-340.73 544,-334.73 550,-328.73 556,-328.73"/>
<text xml:space="preserve" text-anchor="middle" x="685.88" y="-335.93" font-family="Times,serif" font-size="14.00">pair_id (96) x grade (4)</text>
</g>
<!-- x_data -->
<g id="node1" class="node">
<title>x_data</title>
<path fill="lightgrey" stroke="black" d="M406,-418.73C406,-418.73 376,-418.73 376,-418.73 370,-418.73 364,-412.73 364,-406.73 364,-406.73 364,-373.23 364,-373.23 364,-367.23 370,-361.23 376,-361.23 376,-361.23 406,-361.23 406,-361.23 412,-361.23 418,-367.23 418,-373.23 418,-373.23 418,-406.73 418,-406.73 418,-412.73 412,-418.73 406,-418.73"/>
<text xml:space="preserve" text-anchor="middle" x="391" y="-401.43" font-family="Times,serif" font-size="14.00">x_data</text>
<text xml:space="preserve" text-anchor="middle" x="391" y="-384.93" font-family="Times,serif" font-size="14.00">~</text>
<text xml:space="preserve" text-anchor="middle" x="391" y="-368.43" font-family="Times,serif" font-size="14.00">Data</text>
</g>
<!-- mu_outcome -->
<g id="node2" class="node">
<title>mu_outcome</title>
<polygon fill="none" stroke="black" points="338.12,-308.82 247.88,-308.82 247.88,-251.32 338.12,-251.32 338.12,-308.82"/>
<text xml:space="preserve" text-anchor="middle" x="293" y="-291.52" font-family="Times,serif" font-size="14.00">mu_outcome</text>
<text xml:space="preserve" text-anchor="middle" x="293" y="-275.02" font-family="Times,serif" font-size="14.00">~</text>
<text xml:space="preserve" text-anchor="middle" x="293" y="-258.52" font-family="Times,serif" font-size="14.00">Deterministic</text>
</g>
<!-- x_data&#45;&gt;mu_outcome -->
<g id="edge19" class="edge">
<title>x_data&#45;&gt;mu_outcome</title>
<path fill="none" stroke="black" d="M380.14,-361.06C373.55,-346.66 364.08,-329.5 352,-316.82 350.48,-315.22 348.88,-313.67 347.21,-312.17"/>
<polygon fill="black" stroke="black" points="349.56,-309.57 339.58,-306 345.16,-315.01 349.56,-309.57"/>
</g>
<!-- post_test_obs -->
<g id="node5" class="node">
<title>post_test_obs</title>
<ellipse fill="lightgrey" stroke="black" cx="277" cy="-174.66" rx="63.29" ry="40.66"/>
<text xml:space="preserve" text-anchor="middle" x="277" y="-186.11" font-family="Times,serif" font-size="14.00">post_test_obs</text>
<text xml:space="preserve" text-anchor="middle" x="277" y="-169.61" font-family="Times,serif" font-size="14.00">~</text>
<text xml:space="preserve" text-anchor="middle" x="277" y="-153.11" font-family="Times,serif" font-size="14.00">Normal</text>
</g>
<!-- mu_outcome&#45;&gt;post_test_obs -->
<g id="edge24" class="edge">
<title>mu_outcome&#45;&gt;post_test_obs</title>
<path fill="none" stroke="black" d="M288.67,-251.08C287.5,-243.52 286.19,-235.09 284.89,-226.68"/>
<polygon fill="black" stroke="black" points="288.35,-226.15 283.37,-216.81 281.44,-227.22 288.35,-226.15"/>
</g>
<!-- post_test_data -->
<g id="node3" class="node">
<title>post_test_data</title>
<path fill="lightgrey" stroke="black" d="M311.62,-98C311.62,-98 242.38,-98 242.38,-98 236.38,-98 230.38,-92 230.38,-86 230.38,-86 230.38,-52.5 230.38,-52.5 230.38,-46.5 236.38,-40.5 242.38,-40.5 242.38,-40.5 311.62,-40.5 311.62,-40.5 317.62,-40.5 323.62,-46.5 323.62,-52.5 323.62,-52.5 323.62,-86 323.62,-86 323.62,-92 317.62,-98 311.62,-98"/>
<text xml:space="preserve" text-anchor="middle" x="277" y="-80.7" font-family="Times,serif" font-size="14.00">post_test_data</text>
<text xml:space="preserve" text-anchor="middle" x="277" y="-64.2" font-family="Times,serif" font-size="14.00">~</text>
<text xml:space="preserve" text-anchor="middle" x="277" y="-47.7" font-family="Times,serif" font-size="14.00">Data</text>
</g>
<!-- pair_idx_data -->
<g id="node4" class="node">
<title>pair_idx_data</title>
<path fill="lightgrey" stroke="black" d="M212.12,-418.73C212.12,-418.73 145.88,-418.73 145.88,-418.73 139.88,-418.73 133.88,-412.73 133.88,-406.73 133.88,-406.73 133.88,-373.23 133.88,-373.23 133.88,-367.23 139.88,-361.23 145.88,-361.23 145.88,-361.23 212.12,-361.23 212.12,-361.23 218.12,-361.23 224.12,-367.23 224.12,-373.23 224.12,-373.23 224.12,-406.73 224.12,-406.73 224.12,-412.73 218.12,-418.73 212.12,-418.73"/>
<text xml:space="preserve" text-anchor="middle" x="179" y="-401.43" font-family="Times,serif" font-size="14.00">pair_idx_data</text>
<text xml:space="preserve" text-anchor="middle" x="179" y="-384.93" font-family="Times,serif" font-size="14.00">~</text>
<text xml:space="preserve" text-anchor="middle" x="179" y="-368.43" font-family="Times,serif" font-size="14.00">Data</text>
</g>
<!-- pair_idx_data&#45;&gt;mu_outcome -->
<g id="edge21" class="edge">
<title>pair_idx_data&#45;&gt;mu_outcome</title>
<path fill="none" stroke="black" d="M196.68,-360.92C206.55,-346.65 219.71,-329.66 234,-316.82 235.44,-315.52 236.93,-314.25 238.46,-313"/>
<polygon fill="black" stroke="black" points="240.51,-315.84 246.4,-307.03 236.3,-310.25 240.51,-315.84"/>
</g>
<!-- post_test_obs&#45;&gt;post_test_data -->
<g id="edge1" class="edge">
<title>post_test_obs&#45;&gt;post_test_data</title>
<path fill="none" stroke="black" d="M277,-133.68C277,-125.83 277,-117.6 277,-109.76"/>
<polygon fill="black" stroke="black" points="280.5,-109.79 277,-99.79 273.5,-109.79 280.5,-109.79"/>
</g>
<!-- treatment_data -->
<g id="node6" class="node">
<title>treatment_data</title>
<path fill="lightgrey" stroke="black" d="M327.5,-418.73C327.5,-418.73 254.5,-418.73 254.5,-418.73 248.5,-418.73 242.5,-412.73 242.5,-406.73 242.5,-406.73 242.5,-373.23 242.5,-373.23 242.5,-367.23 248.5,-361.23 254.5,-361.23 254.5,-361.23 327.5,-361.23 327.5,-361.23 333.5,-361.23 339.5,-367.23 339.5,-373.23 339.5,-373.23 339.5,-406.73 339.5,-406.73 339.5,-412.73 333.5,-418.73 327.5,-418.73"/>
<text xml:space="preserve" text-anchor="middle" x="291" y="-401.43" font-family="Times,serif" font-size="14.00">treatment_data</text>
<text xml:space="preserve" text-anchor="middle" x="291" y="-384.93" font-family="Times,serif" font-size="14.00">~</text>
<text xml:space="preserve" text-anchor="middle" x="291" y="-368.43" font-family="Times,serif" font-size="14.00">Data</text>
</g>
<!-- treatment_data&#45;&gt;mu_outcome -->
<g id="edge18" class="edge">
<title>treatment_data&#45;&gt;mu_outcome</title>
<path fill="none" stroke="black" d="M291.52,-360.91C291.75,-348.54 292.02,-333.8 292.27,-320.37"/>
<polygon fill="black" stroke="black" points="295.77,-320.57 292.45,-310.51 288.77,-320.44 295.77,-320.57"/>
</g>
<!-- grade_idx_data -->
<g id="node7" class="node">
<title>grade_idx_data</title>
<path fill="lightgrey" stroke="black" d="M103.62,-418.73C103.62,-418.73 28.38,-418.73 28.38,-418.73 22.38,-418.73 16.38,-412.73 16.38,-406.73 16.38,-406.73 16.38,-373.23 16.38,-373.23 16.38,-367.23 22.38,-361.23 28.38,-361.23 28.38,-361.23 103.62,-361.23 103.62,-361.23 109.62,-361.23 115.62,-367.23 115.62,-373.23 115.62,-373.23 115.62,-406.73 115.62,-406.73 115.62,-412.73 109.62,-418.73 103.62,-418.73"/>
<text xml:space="preserve" text-anchor="middle" x="66" y="-401.43" font-family="Times,serif" font-size="14.00">grade_idx_data</text>
<text xml:space="preserve" text-anchor="middle" x="66" y="-384.93" font-family="Times,serif" font-size="14.00">~</text>
<text xml:space="preserve" text-anchor="middle" x="66" y="-368.43" font-family="Times,serif" font-size="14.00">Data</text>
</g>
<!-- grade_idx_data&#45;&gt;mu_outcome -->
<g id="edge22" class="edge">
<title>grade_idx_data&#45;&gt;mu_outcome</title>
<path fill="none" stroke="black" d="M82.24,-360.98C92.56,-345.64 107.31,-327.6 125,-316.82 129.9,-313.83 189.56,-301.53 236.41,-292.18"/>
<polygon fill="black" stroke="black" points="237.09,-295.61 246.21,-290.23 235.72,-288.75 237.09,-295.61"/>
</g>
<!-- grade_idx_data&#45;&gt;post_test_obs -->
<g id="edge25" class="edge">
<title>grade_idx_data&#45;&gt;post_test_obs</title>
<path fill="none" stroke="black" d="M87.56,-360.81C98.37,-347.16 111.93,-330.74 125,-316.82 158.91,-280.7 200.27,-242.64 231.28,-215.15"/>
<polygon fill="black" stroke="black" points="233.42,-217.93 238.6,-208.69 228.79,-212.68 233.42,-217.93"/>
</g>
<!-- beta_x -->
<g id="node8" class="node">
<title>beta_x</title>
<ellipse fill="none" stroke="black" cx="815" cy="-389.98" rx="41.01" ry="40.66"/>
<text xml:space="preserve" text-anchor="middle" x="815" y="-401.43" font-family="Times,serif" font-size="14.00">beta_x</text>
<text xml:space="preserve" text-anchor="middle" x="815" y="-384.93" font-family="Times,serif" font-size="14.00">~</text>
<text xml:space="preserve" text-anchor="middle" x="815" y="-368.43" font-family="Times,serif" font-size="14.00">Normal</text>
</g>
<!-- beta_x&#45;&gt;mu_outcome -->
<g id="edge16" class="edge">
<title>beta_x&#45;&gt;mu_outcome</title>
<path fill="none" stroke="black" d="M797.3,-353.06C788.62,-339.34 776.81,-325.04 762,-316.82 726.72,-297.23 466.3,-286.58 349.46,-282.74"/>
<polygon fill="black" stroke="black" points="349.9,-279.25 339.79,-282.43 349.67,-286.25 349.9,-279.25"/>
</g>
<!-- sigma_outcome -->
<g id="node9" class="node">
<title>sigma_outcome</title>
<ellipse fill="none" stroke="black" cx="938" cy="-519.79" rx="72.83" ry="40.66"/>
<text xml:space="preserve" text-anchor="middle" x="938" y="-531.24" font-family="Times,serif" font-size="14.00">sigma_outcome</text>
<text xml:space="preserve" text-anchor="middle" x="938" y="-514.74" font-family="Times,serif" font-size="14.00">~</text>
<text xml:space="preserve" text-anchor="middle" x="938" y="-498.24" font-family="Times,serif" font-size="14.00">Halfnormal</text>
</g>
<!-- sigma_outcome&#45;&gt;post_test_obs -->
<g id="edge23" class="edge">
<title>sigma_outcome&#45;&gt;post_test_obs</title>
<path fill="none" stroke="black" d="M947.94,-479.04C956.61,-434.09 962.49,-361.37 924,-316.82 849.75,-230.89 504.79,-193.52 351.16,-180.93"/>
<polygon fill="black" stroke="black" points="351.75,-177.47 341.5,-180.16 351.19,-184.45 351.75,-177.47"/>
</g>
<!-- mu_alpha -->
<g id="node10" class="node">
<title>mu_alpha</title>
<ellipse fill="none" stroke="black" cx="685" cy="-519.79" rx="49.5" ry="40.66"/>
<text xml:space="preserve" text-anchor="middle" x="685" y="-531.24" font-family="Times,serif" font-size="14.00">mu_alpha</text>
<text xml:space="preserve" text-anchor="middle" x="685" y="-514.74" font-family="Times,serif" font-size="14.00">~</text>
<text xml:space="preserve" text-anchor="middle" x="685" y="-498.24" font-family="Times,serif" font-size="14.00">Normal</text>
</g>
<!-- alpha -->
<g id="node24" class="node">
<title>alpha</title>
<polygon fill="none" stroke="black" points="642.12,-418.73 551.88,-418.73 551.88,-361.23 642.12,-361.23 642.12,-418.73"/>
<text xml:space="preserve" text-anchor="middle" x="597" y="-401.43" font-family="Times,serif" font-size="14.00">alpha</text>
<text xml:space="preserve" text-anchor="middle" x="597" y="-384.93" font-family="Times,serif" font-size="14.00">~</text>
<text xml:space="preserve" text-anchor="middle" x="597" y="-368.43" font-family="Times,serif" font-size="14.00">Deterministic</text>
</g>
<!-- mu_alpha&#45;&gt;alpha -->
<g id="edge12" class="edge">
<title>mu_alpha&#45;&gt;alpha</title>
<path fill="none" stroke="black" d="M660.95,-483.87C649.1,-466.65 634.8,-445.88 622.73,-428.35"/>
<polygon fill="black" stroke="black" points="625.7,-426.48 617.14,-420.23 619.93,-430.45 625.7,-426.48"/>
</g>
<!-- mu_theta -->
<g id="node11" class="node">
<title>mu_theta</title>
<ellipse fill="none" stroke="black" cx="800" cy="-519.79" rx="47.38" ry="40.66"/>
<text xml:space="preserve" text-anchor="middle" x="800" y="-531.24" font-family="Times,serif" font-size="14.00">mu_theta</text>
<text xml:space="preserve" text-anchor="middle" x="800" y="-514.74" font-family="Times,serif" font-size="14.00">~</text>
<text xml:space="preserve" text-anchor="middle" x="800" y="-498.24" font-family="Times,serif" font-size="14.00">Normal</text>
</g>
<!-- theta -->
<g id="node23" class="node">
<title>theta</title>
<polygon fill="none" stroke="black" points="750.12,-418.73 659.88,-418.73 659.88,-361.23 750.12,-361.23 750.12,-418.73"/>
<text xml:space="preserve" text-anchor="middle" x="705" y="-401.43" font-family="Times,serif" font-size="14.00">theta</text>
<text xml:space="preserve" text-anchor="middle" x="705" y="-384.93" font-family="Times,serif" font-size="14.00">~</text>
<text xml:space="preserve" text-anchor="middle" x="705" y="-368.43" font-family="Times,serif" font-size="14.00">Deterministic</text>
</g>
<!-- mu_theta&#45;&gt;theta -->
<g id="edge14" class="edge">
<title>mu_theta&#45;&gt;theta</title>
<path fill="none" stroke="black" d="M774.79,-484.88C761.78,-467.37 745.88,-445.98 732.54,-428.03"/>
<polygon fill="black" stroke="black" points="735.51,-426.16 726.74,-420.22 729.89,-430.33 735.51,-426.16"/>
</g>
<!-- sigma_u -->
<g id="node12" class="node">
<title>sigma_u</title>
<ellipse fill="none" stroke="black" cx="331" cy="-1072.43" rx="55.86" ry="40.66"/>
<text xml:space="preserve" text-anchor="middle" x="331" y="-1083.88" font-family="Times,serif" font-size="14.00">sigma_u</text>
<text xml:space="preserve" text-anchor="middle" x="331" y="-1067.38" font-family="Times,serif" font-size="14.00">~</text>
<text xml:space="preserve" text-anchor="middle" x="331" y="-1050.88" font-family="Times,serif" font-size="14.00">Halfnormal</text>
</g>
<!-- sigma_diagonal -->
<g id="node17" class="node">
<title>sigma_diagonal</title>
<polygon fill="none" stroke="black" points="394.12,-983.27 291.88,-983.27 291.88,-925.77 394.12,-925.77 394.12,-983.27"/>
<text xml:space="preserve" text-anchor="middle" x="343" y="-965.97" font-family="Times,serif" font-size="14.00">sigma_diagonal</text>
<text xml:space="preserve" text-anchor="middle" x="343" y="-949.47" font-family="Times,serif" font-size="14.00">~</text>
<text xml:space="preserve" text-anchor="middle" x="343" y="-932.97" font-family="Times,serif" font-size="14.00">Deterministic</text>
</g>
<!-- sigma_u&#45;&gt;sigma_diagonal -->
<g id="edge4" class="edge">
<title>sigma_u&#45;&gt;sigma_diagonal</title>
<path fill="none" stroke="black" d="M335.13,-1031.54C336.36,-1019.65 337.71,-1006.64 338.93,-994.8"/>
<polygon fill="black" stroke="black" points="342.41,-995.24 339.96,-984.93 335.44,-994.51 342.41,-995.24"/>
</g>
<!-- omega_triu -->
<g id="node13" class="node">
<title>omega_triu</title>
<ellipse fill="none" stroke="black" cx="470" cy="-1189.75" rx="55.33" ry="40.66"/>
<text xml:space="preserve" text-anchor="middle" x="470" y="-1201.2" font-family="Times,serif" font-size="14.00">omega_triu</text>
<text xml:space="preserve" text-anchor="middle" x="470" y="-1184.7" font-family="Times,serif" font-size="14.00">~</text>
<text xml:space="preserve" text-anchor="middle" x="470" y="-1168.2" font-family="Times,serif" font-size="14.00">Beta</text>
</g>
<!-- omega_triu_scaled -->
<g id="node14" class="node">
<title>omega_triu_scaled</title>
<polygon fill="none" stroke="black" points="529.38,-1101.18 410.62,-1101.18 410.62,-1043.68 529.38,-1043.68 529.38,-1101.18"/>
<text xml:space="preserve" text-anchor="middle" x="470" y="-1083.88" font-family="Times,serif" font-size="14.00">omega_triu_scaled</text>
<text xml:space="preserve" text-anchor="middle" x="470" y="-1067.38" font-family="Times,serif" font-size="14.00">~</text>
<text xml:space="preserve" text-anchor="middle" x="470" y="-1050.88" font-family="Times,serif" font-size="14.00">Deterministic</text>
</g>
<!-- omega_triu&#45;&gt;omega_triu_scaled -->
<g id="edge2" class="edge">
<title>omega_triu&#45;&gt;omega_triu_scaled</title>
<path fill="none" stroke="black" d="M470,-1148.74C470,-1137.03 470,-1124.24 470,-1112.59"/>
<polygon fill="black" stroke="black" points="473.5,-1112.9 470,-1102.9 466.5,-1112.9 473.5,-1112.9"/>
</g>
<!-- omega -->
<g id="node15" class="node">
<title>omega</title>
<polygon fill="none" stroke="black" points="503.12,-983.27 412.88,-983.27 412.88,-925.77 503.12,-925.77 503.12,-983.27"/>
<text xml:space="preserve" text-anchor="middle" x="458" y="-965.97" font-family="Times,serif" font-size="14.00">omega</text>
<text xml:space="preserve" text-anchor="middle" x="458" y="-949.47" font-family="Times,serif" font-size="14.00">~</text>
<text xml:space="preserve" text-anchor="middle" x="458" y="-932.97" font-family="Times,serif" font-size="14.00">Deterministic</text>
</g>
<!-- omega_triu_scaled&#45;&gt;omega -->
<g id="edge3" class="edge">
<title>omega_triu_scaled&#45;&gt;omega</title>
<path fill="none" stroke="black" d="M467.1,-1043.37C465.59,-1028.81 463.72,-1010.79 462.07,-994.87"/>
<polygon fill="black" stroke="black" points="465.59,-994.81 461.08,-985.23 458.62,-995.53 465.59,-994.81"/>
</g>
<!-- cov -->
<g id="node18" class="node">
<title>cov</title>
<polygon fill="none" stroke="black" points="503.12,-889.77 412.88,-889.77 412.88,-832.27 503.12,-832.27 503.12,-889.77"/>
<text xml:space="preserve" text-anchor="middle" x="458" y="-872.47" font-family="Times,serif" font-size="14.00">cov</text>
<text xml:space="preserve" text-anchor="middle" x="458" y="-855.97" font-family="Times,serif" font-size="14.00">~</text>
<text xml:space="preserve" text-anchor="middle" x="458" y="-839.47" font-family="Times,serif" font-size="14.00">Deterministic</text>
</g>
<!-- omega&#45;&gt;cov -->
<g id="edge5" class="edge">
<title>omega&#45;&gt;cov</title>
<path fill="none" stroke="black" d="M458,-925.57C458,-918.01 458,-909.69 458,-901.62"/>
<polygon fill="black" stroke="black" points="461.5,-901.63 458,-891.63 454.5,-901.63 461.5,-901.63"/>
</g>
<!-- cholesky_cov -->
<g id="node16" class="node">
<title>cholesky_cov</title>
<polygon fill="none" stroke="black" points="503.12,-784.36 412.88,-784.36 412.88,-726.86 503.12,-726.86 503.12,-784.36"/>
<text xml:space="preserve" text-anchor="middle" x="458" y="-767.06" font-family="Times,serif" font-size="14.00">cholesky_cov</text>
<text xml:space="preserve" text-anchor="middle" x="458" y="-750.56" font-family="Times,serif" font-size="14.00">~</text>
<text xml:space="preserve" text-anchor="middle" x="458" y="-734.06" font-family="Times,serif" font-size="14.00">Deterministic</text>
</g>
<!-- u -->
<g id="node20" class="node">
<title>u</title>
<polygon fill="none" stroke="black" points="558.12,-666.45 467.88,-666.45 467.88,-608.95 558.12,-608.95 558.12,-666.45"/>
<text xml:space="preserve" text-anchor="middle" x="513" y="-649.15" font-family="Times,serif" font-size="14.00">u</text>
<text xml:space="preserve" text-anchor="middle" x="513" y="-632.65" font-family="Times,serif" font-size="14.00">~</text>
<text xml:space="preserve" text-anchor="middle" x="513" y="-616.15" font-family="Times,serif" font-size="14.00">Deterministic</text>
</g>
<!-- cholesky_cov&#45;&gt;u -->
<g id="edge8" class="edge">
<title>cholesky_cov&#45;&gt;u</title>
<path fill="none" stroke="black" d="M471.31,-726.55C478.36,-711.71 487.11,-693.27 494.77,-677.12"/>
<polygon fill="black" stroke="black" points="497.84,-678.81 498.97,-668.27 491.52,-675.8 497.84,-678.81"/>
</g>
<!-- sigma_diagonal&#45;&gt;cov -->
<g id="edge6" class="edge">
<title>sigma_diagonal&#45;&gt;cov</title>
<path fill="none" stroke="black" d="M378.44,-925.32C389.7,-916.36 402.28,-906.35 414.06,-896.98"/>
<polygon fill="black" stroke="black" points="416.04,-899.88 421.69,-890.91 411.68,-894.4 416.04,-899.88"/>
</g>
<!-- cov&#45;&gt;cholesky_cov -->
<g id="edge7" class="edge">
<title>cov&#45;&gt;cholesky_cov</title>
<path fill="none" stroke="black" d="M458,-832.04C458,-820.88 458,-807.85 458,-795.79"/>
<polygon fill="black" stroke="black" points="461.5,-796.13 458,-786.13 454.5,-796.13 461.5,-796.13"/>
</g>
<!-- u_raw -->
<g id="node19" class="node">
<title>u_raw</title>
<ellipse fill="none" stroke="black" cx="568" cy="-755.61" rx="41.01" ry="40.66"/>
<text xml:space="preserve" text-anchor="middle" x="568" y="-767.06" font-family="Times,serif" font-size="14.00">u_raw</text>
<text xml:space="preserve" text-anchor="middle" x="568" y="-750.56" font-family="Times,serif" font-size="14.00">~</text>
<text xml:space="preserve" text-anchor="middle" x="568" y="-734.06" font-family="Times,serif" font-size="14.00">Normal</text>
</g>
<!-- u_raw&#45;&gt;u -->
<g id="edge9" class="edge">
<title>u_raw&#45;&gt;u</title>
<path fill="none" stroke="black" d="M550.75,-718.25C544.53,-705.16 537.5,-690.34 531.21,-677.08"/>
<polygon fill="black" stroke="black" points="534.45,-675.74 527,-668.2 528.12,-678.74 534.45,-675.74"/>
</g>
<!-- u1 -->
<g id="node21" class="node">
<title>u1</title>
<polygon fill="none" stroke="black" points="612.12,-548.54 521.88,-548.54 521.88,-491.04 612.12,-491.04 612.12,-548.54"/>
<text xml:space="preserve" text-anchor="middle" x="567" y="-531.24" font-family="Times,serif" font-size="14.00">u1</text>
<text xml:space="preserve" text-anchor="middle" x="567" y="-514.74" font-family="Times,serif" font-size="14.00">~</text>
<text xml:space="preserve" text-anchor="middle" x="567" y="-498.24" font-family="Times,serif" font-size="14.00">Deterministic</text>
</g>
<!-- u&#45;&gt;u1 -->
<g id="edge11" class="edge">
<title>u&#45;&gt;u1</title>
<path fill="none" stroke="black" d="M526.07,-608.64C532.99,-593.8 541.58,-575.36 549.1,-559.22"/>
<polygon fill="black" stroke="black" points="552.17,-560.91 553.22,-550.37 545.83,-557.95 552.17,-560.91"/>
</g>
<!-- u0 -->
<g id="node22" class="node">
<title>u0</title>
<polygon fill="none" stroke="black" points="504.12,-548.54 413.88,-548.54 413.88,-491.04 504.12,-491.04 504.12,-548.54"/>
<text xml:space="preserve" text-anchor="middle" x="459" y="-531.24" font-family="Times,serif" font-size="14.00">u0</text>
<text xml:space="preserve" text-anchor="middle" x="459" y="-514.74" font-family="Times,serif" font-size="14.00">~</text>
<text xml:space="preserve" text-anchor="middle" x="459" y="-498.24" font-family="Times,serif" font-size="14.00">Deterministic</text>
</g>
<!-- u&#45;&gt;u0 -->
<g id="edge10" class="edge">
<title>u&#45;&gt;u0</title>
<path fill="none" stroke="black" d="M499.93,-608.64C493.01,-593.8 484.42,-575.36 476.9,-559.22"/>
<polygon fill="black" stroke="black" points="480.17,-557.95 472.78,-550.37 473.83,-560.91 480.17,-557.95"/>
</g>
<!-- u1&#45;&gt;theta -->
<g id="edge15" class="edge">
<title>u1&#45;&gt;theta</title>
<path fill="none" stroke="black" d="M583.28,-490.59C593.27,-475.57 607.34,-457.91 624,-446.63 634.36,-439.62 640.05,-444.7 651,-438.63 657.17,-435.22 663.25,-430.99 668.97,-426.48"/>
<polygon fill="black" stroke="black" points="671.05,-429.3 676.47,-420.19 666.56,-423.93 671.05,-429.3"/>
</g>
<!-- u0&#45;&gt;alpha -->
<g id="edge13" class="edge">
<title>u0&#45;&gt;alpha</title>
<path fill="none" stroke="black" d="M474.12,-490.58C483.49,-475.56 496.82,-457.9 513,-446.63 523.27,-439.48 528.97,-444.55 540,-438.63 546.57,-435.11 553.08,-430.75 559.21,-426.11"/>
<polygon fill="black" stroke="black" points="561.09,-429.09 566.73,-420.12 556.73,-423.62 561.09,-429.09"/>
</g>
<!-- theta&#45;&gt;mu_outcome -->
<g id="edge20" class="edge">
<title>theta&#45;&gt;mu_outcome</title>
<path fill="none" stroke="black" d="M691.51,-361.01C682.36,-345.27 668.71,-326.82 651,-316.82 600.9,-288.53 437.5,-282.44 349.82,-281.25"/>
<polygon fill="black" stroke="black" points="350.04,-277.75 340,-281.14 349.96,-284.75 350.04,-277.75"/>
</g>
<!-- alpha&#45;&gt;mu_outcome -->
<g id="edge17" class="edge">
<title>alpha&#45;&gt;mu_outcome</title>
<path fill="none" stroke="black" d="M582.01,-360.91C572.18,-345.35 557.84,-327.1 540,-316.82 508.55,-298.69 412.44,-288.97 349.8,-284.43"/>
<polygon fill="black" stroke="black" points="350.24,-280.95 340.02,-283.74 349.75,-287.93 350.24,-280.95"/>
</g>
</g>
</svg>
