<?xml version="1.0" encoding="UTF-8" standalone="no"?>
<!DOCTYPE svg PUBLIC "-//W3C//DTD SVG 1.1//EN"
 "http://www.w3.org/Graphics/SVG/1.1/DTD/svg11.dtd">
<!-- Generated by graphviz version 12.2.1 (20241206.2353)
 -->
<!-- Pages: 1 -->
<svg width="425pt" height="369pt"
 viewBox="0.00 0.00 425.00 369.13" xmlns="http://www.w3.org/2000/svg" xmlns:xlink="http://www.w3.org/1999/xlink">
<g id="graph0" class="graph" transform="scale(1 1) rotate(0) translate(4 365.13)">
<polygon fill="white" stroke="none" points="-4,4 -4,-365.13 421,-365.13 421,4 -4,4"/>
<g id="clust1" class="cluster">
<title>clustersample_size (23)</title>
<path fill="none" stroke="black" d="M20,-137.23C20,-137.23 105,-137.23 105,-137.23 111,-137.23 117,-143.23 117,-149.23 117,-149.23 117,-223.23 117,-223.23 117,-229.23 111,-235.23 105,-235.23 105,-235.23 20,-235.23 20,-235.23 14,-235.23 8,-229.23 8,-223.23 8,-223.23 8,-149.23 8,-149.23 8,-143.23 14,-137.23 20,-137.23"/>
<text text-anchor="middle" x="62.5" y="-144.43" font-family="Times,serif" font-size="14.00">sample_size (23)</text>
</g>
<g id="clust2" class="cluster">
<title>clusteromega (8)</title>
<path fill="none" stroke="black" d="M155,-255.13C155,-255.13 205,-255.13 205,-255.13 211,-255.13 217,-261.13 217,-267.13 217,-267.13 217,-341.13 217,-341.13 217,-347.13 211,-353.13 205,-353.13 205,-353.13 155,-353.13 155,-353.13 149,-353.13 143,-347.13 143,-341.13 143,-341.13 143,-267.13 143,-267.13 143,-261.13 149,-255.13 155,-255.13"/>
<text text-anchor="middle" x="180.88" y="-262.33" font-family="Times,serif" font-size="14.00">omega (8)</text>
</g>
<g id="clust3" class="cluster">
<title>clustersample_size (23) x omega (8) x simulation (500)</title>
<path fill="none" stroke="black" d="M137,-8C137,-8 397,-8 397,-8 403,-8 409,-14 409,-20 409,-20 409,-235.13 409,-235.13 409,-241.13 403,-247.13 397,-247.13 397,-247.13 137,-247.13 137,-247.13 131,-247.13 125,-241.13 125,-235.13 125,-235.13 125,-20 125,-20 125,-14 131,-8 137,-8"/>
<text text-anchor="middle" x="266.75" y="-15.2" font-family="Times,serif" font-size="14.00">sample_size (23) x omega (8) x simulation (500)</text>
</g>
<!-- sample_sizes -->
<g id="node1" class="node">
<title>sample_sizes</title>
<path fill="lightgrey" stroke="black" d="M97,-227.23C97,-227.23 33,-227.23 33,-227.23 27,-227.23 21,-221.23 21,-215.23 21,-215.23 21,-181.73 21,-181.73 21,-175.73 27,-169.73 33,-169.73 33,-169.73 97,-169.73 97,-169.73 103,-169.73 109,-175.73 109,-181.73 109,-181.73 109,-215.23 109,-215.23 109,-221.23 103,-227.23 97,-227.23"/>
<text text-anchor="middle" x="65" y="-209.93" font-family="Times,serif" font-size="14.00">sample_sizes</text>
<text text-anchor="middle" x="65" y="-193.43" font-family="Times,serif" font-size="14.00">~</text>
<text text-anchor="middle" x="65" y="-176.93" font-family="Times,serif" font-size="14.00">Data</text>
</g>
<!-- data -->
<g id="node4" class="node">
<title>data</title>
<ellipse fill="none" stroke="black" cx="180" cy="-81.16" rx="47.38" ry="40.66"/>
<text text-anchor="middle" x="180" y="-92.61" font-family="Times,serif" font-size="14.00">data</text>
<text text-anchor="middle" x="180" y="-76.11" font-family="Times,serif" font-size="14.00">~</text>
<text text-anchor="middle" x="180" y="-59.61" font-family="Times,serif" font-size="14.00">Binomial</text>
</g>
<!-- sample_sizes&#45;&gt;data -->
<g id="edge3" class="edge">
<title>sample_sizes&#45;&gt;data</title>
<path fill="none" stroke="black" d="M90.24,-169.49C99.73,-159.2 110.71,-147.54 121,-137.23 126.98,-131.23 133.43,-124.99 139.79,-118.96"/>
<polygon fill="black" stroke="black" points="141.77,-121.91 146.66,-112.51 136.98,-116.81 141.77,-121.91"/>
</g>
<!-- omegas -->
<g id="node2" class="node">
<title>omegas</title>
<path fill="lightgrey" stroke="black" d="M197,-345.13C197,-345.13 163,-345.13 163,-345.13 157,-345.13 151,-339.13 151,-333.13 151,-333.13 151,-299.63 151,-299.63 151,-293.63 157,-287.63 163,-287.63 163,-287.63 197,-287.63 197,-287.63 203,-287.63 209,-293.63 209,-299.63 209,-299.63 209,-333.13 209,-333.13 209,-339.13 203,-345.13 197,-345.13"/>
<text text-anchor="middle" x="180" y="-327.83" font-family="Times,serif" font-size="14.00">omegas</text>
<text text-anchor="middle" x="180" y="-311.33" font-family="Times,serif" font-size="14.00">~</text>
<text text-anchor="middle" x="180" y="-294.83" font-family="Times,serif" font-size="14.00">Data</text>
</g>
<!-- p -->
<g id="node3" class="node">
<title>p</title>
<ellipse fill="none" stroke="black" cx="180" cy="-198.48" rx="28.81" ry="40.66"/>
<text text-anchor="middle" x="180" y="-209.93" font-family="Times,serif" font-size="14.00">p</text>
<text text-anchor="middle" x="180" y="-193.43" font-family="Times,serif" font-size="14.00">~</text>
<text text-anchor="middle" x="180" y="-176.93" font-family="Times,serif" font-size="14.00">Beta</text>
</g>
<!-- omegas&#45;&gt;p -->
<g id="edge1" class="edge">
<title>omegas&#45;&gt;p</title>
<path fill="none" stroke="black" d="M180,-287.33C180,-276.35 180,-263.4 180,-250.87"/>
<polygon fill="black" stroke="black" points="183.5,-251.06 180,-241.06 176.5,-251.06 183.5,-251.06"/>
</g>
<!-- p&#45;&gt;data -->
<g id="edge2" class="edge">
<title>p&#45;&gt;data</title>
<path fill="none" stroke="black" d="M180,-157.47C180,-149.69 180,-141.43 180,-133.34"/>
<polygon fill="black" stroke="black" points="183.5,-133.61 180,-123.61 176.5,-133.61 183.5,-133.61"/>
</g>
</g>
</svg>
