<?xml version="1.0" encoding="UTF-8" standalone="no"?>
<!DOCTYPE svg PUBLIC "-//W3C//DTD SVG 1.1//EN"
 "http://www.w3.org/Graphics/SVG/1.1/DTD/svg11.dtd">
<!-- Generated by graphviz version 12.2.1 (20241206.2353)
 -->
<!-- Pages: 1 -->
<svg width="425pt" height="357pt"
 viewBox="0.00 0.00 425.00 356.63" xmlns="http://www.w3.org/2000/svg" xmlns:xlink="http://www.w3.org/1999/xlink">
<g id="graph0" class="graph" transform="scale(1 1) rotate(0) translate(4 352.63)">
<polygon fill="white" stroke="none" points="-4,4 -4,-352.63 421,-352.63 421,4 -4,4"/>
<g id="clust1" class="cluster">
<title>clustersample_size (23) x omega (8) x simulation (500)</title>
<path fill="none" stroke="black" d="M20,-8C20,-8 280,-8 280,-8 286,-8 292,-14 292,-20 292,-20 292,-328.63 292,-328.63 292,-334.63 286,-340.63 280,-340.63 280,-340.63 20,-340.63 20,-340.63 14,-340.63 8,-334.63 8,-328.63 8,-328.63 8,-20 8,-20 8,-14 14,-8 20,-8"/>
<text text-anchor="middle" x="149.75" y="-15.2" font-family="Times,serif" font-size="14.00">sample_size (23) x omega (8) x simulation (500)</text>
</g>
<g id="clust2" class="cluster">
<title>clustersample_size (23)</title>
<path fill="none" stroke="black" d="M312,-230.73C312,-230.73 397,-230.73 397,-230.73 403,-230.73 409,-236.73 409,-242.73 409,-242.73 409,-316.73 409,-316.73 409,-322.73 403,-328.73 397,-328.73 397,-328.73 312,-328.73 312,-328.73 306,-328.73 300,-322.73 300,-316.73 300,-316.73 300,-242.73 300,-242.73 300,-236.73 306,-230.73 312,-230.73"/>
<text text-anchor="middle" x="354.5" y="-237.93" font-family="Times,serif" font-size="14.00">sample_size (23)</text>
</g>
<!-- generated_data -->
<g id="node1" class="node">
<title>generated_data</title>
<path fill="lightgrey" stroke="black" d="M271.88,-98C271.88,-98 198.12,-98 198.12,-98 192.12,-98 186.12,-92 186.12,-86 186.12,-86 186.12,-52.5 186.12,-52.5 186.12,-46.5 192.12,-40.5 198.12,-40.5 198.12,-40.5 271.88,-40.5 271.88,-40.5 277.88,-40.5 283.88,-46.5 283.88,-52.5 283.88,-52.5 283.88,-86 283.88,-86 283.88,-92 277.88,-98 271.88,-98"/>
<text text-anchor="middle" x="235" y="-80.7" font-family="Times,serif" font-size="14.00">generated_data</text>
<text text-anchor="middle" x="235" y="-64.2" font-family="Times,serif" font-size="14.00">~</text>
<text text-anchor="middle" x="235" y="-47.7" font-family="Times,serif" font-size="14.00">Data</text>
</g>
<!-- p -->
<g id="node2" class="node">
<title>p</title>
<ellipse fill="none" stroke="black" cx="236" cy="-291.98" rx="28.81" ry="40.66"/>
<text text-anchor="middle" x="236" y="-303.43" font-family="Times,serif" font-size="14.00">p</text>
<text text-anchor="middle" x="236" y="-286.93" font-family="Times,serif" font-size="14.00">~</text>
<text text-anchor="middle" x="236" y="-270.43" font-family="Times,serif" font-size="14.00">Beta</text>
</g>
<!-- data -->
<g id="node3" class="node">
<title>data</title>
<ellipse fill="lightgrey" stroke="black" cx="236" cy="-174.66" rx="47.38" ry="40.66"/>
<text text-anchor="middle" x="236" y="-186.11" font-family="Times,serif" font-size="14.00">data</text>
<text text-anchor="middle" x="236" y="-169.61" font-family="Times,serif" font-size="14.00">~</text>
<text text-anchor="middle" x="236" y="-153.11" font-family="Times,serif" font-size="14.00">Binomial</text>
</g>
<!-- p&#45;&gt;data -->
<g id="edge2" class="edge">
<title>p&#45;&gt;data</title>
<path fill="none" stroke="black" d="M236,-250.97C236,-243.19 236,-234.93 236,-226.84"/>
<polygon fill="black" stroke="black" points="239.5,-227.11 236,-217.11 232.5,-227.11 239.5,-227.11"/>
</g>
<!-- data&#45;&gt;generated_data -->
<g id="edge1" class="edge">
<title>data&#45;&gt;generated_data</title>
<path fill="none" stroke="black" d="M235.61,-133.68C235.54,-125.83 235.46,-117.6 235.38,-109.76"/>
<polygon fill="black" stroke="black" points="238.88,-109.76 235.29,-99.79 231.88,-109.82 238.88,-109.76"/>
</g>
<!-- sample_sizes -->
<g id="node4" class="node">
<title>sample_sizes</title>
<path fill="lightgrey" stroke="black" d="M384,-320.73C384,-320.73 320,-320.73 320,-320.73 314,-320.73 308,-314.73 308,-308.73 308,-308.73 308,-275.23 308,-275.23 308,-269.23 314,-263.23 320,-263.23 320,-263.23 384,-263.23 384,-263.23 390,-263.23 396,-269.23 396,-275.23 396,-275.23 396,-308.73 396,-308.73 396,-314.73 390,-320.73 384,-320.73"/>
<text text-anchor="middle" x="352" y="-303.43" font-family="Times,serif" font-size="14.00">sample_sizes</text>
<text text-anchor="middle" x="352" y="-286.93" font-family="Times,serif" font-size="14.00">~</text>
<text text-anchor="middle" x="352" y="-270.43" font-family="Times,serif" font-size="14.00">Data</text>
</g>
<!-- sample_sizes&#45;&gt;data -->
<g id="edge3" class="edge">
<title>sample_sizes&#45;&gt;data</title>
<path fill="none" stroke="black" d="M326.8,-262.95C317.32,-252.64 306.33,-240.99 296,-230.73 289.87,-224.63 283.24,-218.3 276.7,-212.2"/>
<polygon fill="black" stroke="black" points="279.34,-209.88 269.62,-205.66 274.59,-215.02 279.34,-209.88"/>
</g>
</g>
</svg>
