<?xml version="1.0" encoding="UTF-8" standalone="no"?>
<!DOCTYPE svg PUBLIC "-//W3C//DTD SVG 1.1//EN"
 "http://www.w3.org/Graphics/SVG/1.1/DTD/svg11.dtd">
<!-- Generated by graphviz version 9.0.0 (20230911.1827)
 -->
<!-- Pages: 1 -->
<svg width="1048pt" height="893pt"
 viewBox="0.00 0.00 1047.83 893.27" xmlns="http://www.w3.org/2000/svg" xmlns:xlink="http://www.w3.org/1999/xlink">
<g id="graph0" class="graph" transform="scale(1 1) rotate(0) translate(4 889.27)">
<polygon fill="white" stroke="none" points="-4,4 -4,-889.27 1043.83,-889.27 1043.83,4 -4,4"/>
<g id="clust1" class="cluster">
<title>clusterobs (2042)</title>
<path fill="none" stroke="black" d="M20,-8C20,-8 324,-8 324,-8 330,-8 336,-14 336,-20 336,-20 336,-520.13 336,-520.13 336,-526.13 330,-532.13 324,-532.13 324,-532.13 20,-532.13 20,-532.13 14,-532.13 8,-526.13 8,-520.13 8,-520.13 8,-20 8,-20 8,-14 14,-8 20,-8"/>
<text text-anchor="middle" x="298.75" y="-15.2" font-family="Times,serif" font-size="14.00">obs (2042)</text>
</g>
<g id="clust2" class="cluster">
<title>clusterregion (8)</title>
<path fill="none" stroke="black" d="M356,-434.13C356,-434.13 699,-434.13 699,-434.13 705,-434.13 711,-440.13 711,-446.13 711,-446.13 711,-625.54 711,-625.54 711,-631.54 705,-637.54 699,-637.54 699,-637.54 356,-637.54 356,-637.54 350,-637.54 344,-631.54 344,-625.54 344,-625.54 344,-446.13 344,-446.13 344,-440.13 350,-434.13 356,-434.13"/>
<text text-anchor="middle" x="676" y="-441.33" font-family="Times,serif" font-size="14.00">region (8)</text>
</g>
<g id="clust3" class="cluster">
<title>cluster3</title>
<path fill="none" stroke="black" d="M285,-755.45C285,-755.45 445,-755.45 445,-755.45 451,-755.45 457,-761.45 457,-767.45 457,-767.45 457,-865.27 457,-865.27 457,-871.27 451,-877.27 445,-877.27 445,-877.27 285,-877.27 285,-877.27 279,-877.27 273,-871.27 273,-865.27 273,-865.27 273,-767.45 273,-767.45 273,-761.45 279,-755.45 285,-755.45"/>
<text text-anchor="middle" x="445.62" y="-762.65" font-family="Times,serif" font-size="14.00">3</text>
</g>
<g id="clust4" class="cluster">
<title>cluster2 x 2</title>
<path fill="none" stroke="black" d="M209,-649.45C209,-649.45 295,-649.45 295,-649.45 301,-649.45 307,-655.45 307,-661.45 307,-661.45 307,-735.45 307,-735.45 307,-741.45 301,-747.45 295,-747.45 295,-747.45 209,-747.45 209,-747.45 203,-747.45 197,-741.45 197,-735.45 197,-735.45 197,-661.45 197,-661.45 197,-655.45 203,-649.45 209,-649.45"/>
<text text-anchor="middle" x="285.12" y="-656.65" font-family="Times,serif" font-size="14.00">2 x 2</text>
</g>
<g id="clust5" class="cluster">
<title>cluster2</title>
<path fill="none" stroke="black" d="M327,-649.45C327,-649.45 413,-649.45 413,-649.45 419,-649.45 425,-655.45 425,-661.45 425,-661.45 425,-735.45 425,-735.45 425,-741.45 419,-747.45 413,-747.45 413,-747.45 327,-747.45 327,-747.45 321,-747.45 315,-741.45 315,-735.45 315,-735.45 315,-661.45 315,-661.45 315,-655.45 321,-649.45 327,-649.45"/>
<text text-anchor="middle" x="413.62" y="-656.65" font-family="Times,serif" font-size="14.00">2</text>
</g>
<g id="clust6" class="cluster">
<title>clustereffect (2) x region (8)</title>
<path fill="none" stroke="black" d="M477,-755.45C477,-755.45 587,-755.45 587,-755.45 593,-755.45 599,-761.45 599,-767.45 599,-767.45 599,-865.27 599,-865.27 599,-871.27 593,-877.27 587,-877.27 587,-877.27 477,-877.27 477,-877.27 471,-877.27 465,-871.27 465,-865.27 465,-865.27 465,-767.45 465,-767.45 465,-761.45 471,-755.45 477,-755.45"/>
<text text-anchor="middle" x="531.75" y="-762.65" font-family="Times,serif" font-size="14.00">effect (2) x region (8)</text>
</g>
<g id="clust7" class="cluster">
<title>clusterregion (8) x effect (2)</title>
<path fill="none" stroke="black" d="M463,-649.45C463,-649.45 573,-649.45 573,-649.45 579,-649.45 585,-655.45 585,-661.45 585,-661.45 585,-735.45 585,-735.45 585,-741.45 579,-747.45 573,-747.45 573,-747.45 463,-747.45 463,-747.45 457,-747.45 451,-741.45 451,-735.45 451,-735.45 451,-661.45 451,-661.45 451,-655.45 457,-649.45 463,-649.45"/>
<text text-anchor="middle" x="517.75" y="-656.65" font-family="Times,serif" font-size="14.00">region (8) x effect (2)</text>
</g>
<!-- region_idx_data -->
<g id="node1" class="node">
<title>region_idx_data</title>
<path fill="lightgrey" stroke="black" d="M264.88,-524.13C264.88,-524.13 185.12,-524.13 185.12,-524.13 179.12,-524.13 173.12,-518.13 173.12,-512.13 173.12,-512.13 173.12,-478.63 173.12,-478.63 173.12,-472.63 179.12,-466.63 185.12,-466.63 185.12,-466.63 264.88,-466.63 264.88,-466.63 270.88,-466.63 276.88,-472.63 276.88,-478.63 276.88,-478.63 276.88,-512.13 276.88,-512.13 276.88,-518.13 270.88,-524.13 264.88,-524.13"/>
<text text-anchor="middle" x="225" y="-506.83" font-family="Times,serif" font-size="14.00">region_idx_data</text>
<text text-anchor="middle" x="225" y="-490.33" font-family="Times,serif" font-size="14.00">~</text>
<text text-anchor="middle" x="225" y="-473.83" font-family="Times,serif" font-size="14.00">MutableData</text>
</g>
<!-- alpha -->
<g id="node4" class="node">
<title>alpha</title>
<polygon fill="none" stroke="black" points="220.12,-426.13 129.88,-426.13 129.88,-368.63 220.12,-368.63 220.12,-426.13"/>
<text text-anchor="middle" x="175" y="-408.83" font-family="Times,serif" font-size="14.00">alpha</text>
<text text-anchor="middle" x="175" y="-392.33" font-family="Times,serif" font-size="14.00">~</text>
<text text-anchor="middle" x="175" y="-375.83" font-family="Times,serif" font-size="14.00">Deterministic</text>
</g>
<!-- region_idx_data&#45;&gt;alpha -->
<g id="edge15" class="edge">
<title>region_idx_data&#45;&gt;alpha</title>
<path fill="none" stroke="black" d="M210.4,-466.36C205.57,-457.08 200.1,-446.58 194.94,-436.66"/>
<polygon fill="black" stroke="black" points="198.12,-435.21 190.4,-427.95 191.92,-438.44 198.12,-435.21"/>
</g>
<!-- beta -->
<g id="node6" class="node">
<title>beta</title>
<polygon fill="none" stroke="black" points="328.12,-426.13 237.88,-426.13 237.88,-368.63 328.12,-368.63 328.12,-426.13"/>
<text text-anchor="middle" x="283" y="-408.83" font-family="Times,serif" font-size="14.00">beta</text>
<text text-anchor="middle" x="283" y="-392.33" font-family="Times,serif" font-size="14.00">~</text>
<text text-anchor="middle" x="283" y="-375.83" font-family="Times,serif" font-size="14.00">Deterministic</text>
</g>
<!-- region_idx_data&#45;&gt;beta -->
<g id="edge17" class="edge">
<title>region_idx_data&#45;&gt;beta</title>
<path fill="none" stroke="black" d="M241.93,-466.36C247.6,-456.98 254.02,-446.36 260.06,-436.35"/>
<polygon fill="black" stroke="black" points="262.99,-438.28 265.16,-427.91 257,-434.66 262.99,-438.28"/>
</g>
<!-- likelihood -->
<g id="node2" class="node">
<title>likelihood</title>
<ellipse fill="lightgrey" stroke="black" cx="244" cy="-174.66" rx="50.03" ry="40.66"/>
<text text-anchor="middle" x="244" y="-186.11" font-family="Times,serif" font-size="14.00">likelihood</text>
<text text-anchor="middle" x="244" y="-169.61" font-family="Times,serif" font-size="14.00">~</text>
<text text-anchor="middle" x="244" y="-153.11" font-family="Times,serif" font-size="14.00">Normal</text>
</g>
<!-- log_quantities_data -->
<g id="node3" class="node">
<title>log_quantities_data</title>
<path fill="lightgrey" stroke="black" d="M292.88,-98C292.88,-98 195.12,-98 195.12,-98 189.12,-98 183.12,-92 183.12,-86 183.12,-86 183.12,-52.5 183.12,-52.5 183.12,-46.5 189.12,-40.5 195.12,-40.5 195.12,-40.5 292.88,-40.5 292.88,-40.5 298.88,-40.5 304.88,-46.5 304.88,-52.5 304.88,-52.5 304.88,-86 304.88,-86 304.88,-92 298.88,-98 292.88,-98"/>
<text text-anchor="middle" x="244" y="-80.7" font-family="Times,serif" font-size="14.00">log_quantities_data</text>
<text text-anchor="middle" x="244" y="-64.2" font-family="Times,serif" font-size="14.00">~</text>
<text text-anchor="middle" x="244" y="-47.7" font-family="Times,serif" font-size="14.00">MutableData</text>
</g>
<!-- likelihood&#45;&gt;log_quantities_data -->
<g id="edge1" class="edge">
<title>likelihood&#45;&gt;log_quantities_data</title>
<path fill="none" stroke="black" d="M244,-133.68C244,-125.83 244,-117.6 244,-109.76"/>
<polygon fill="black" stroke="black" points="247.5,-109.79 244,-99.79 240.5,-109.79 247.5,-109.79"/>
</g>
<!-- mu -->
<g id="node5" class="node">
<title>mu</title>
<polygon fill="none" stroke="black" points="266.12,-320.73 175.88,-320.73 175.88,-263.23 266.12,-263.23 266.12,-320.73"/>
<text text-anchor="middle" x="221" y="-303.43" font-family="Times,serif" font-size="14.00">mu</text>
<text text-anchor="middle" x="221" y="-286.93" font-family="Times,serif" font-size="14.00">~</text>
<text text-anchor="middle" x="221" y="-270.43" font-family="Times,serif" font-size="14.00">Deterministic</text>
</g>
<!-- alpha&#45;&gt;mu -->
<g id="edge19" class="edge">
<title>alpha&#45;&gt;mu</title>
<path fill="none" stroke="black" d="M187.45,-368.4C192.51,-357.02 198.44,-343.68 203.9,-331.41"/>
<polygon fill="black" stroke="black" points="207.06,-332.92 207.93,-322.37 200.66,-330.08 207.06,-332.92"/>
</g>
<!-- mu&#45;&gt;likelihood -->
<g id="edge22" class="edge">
<title>mu&#45;&gt;likelihood</title>
<path fill="none" stroke="black" d="M226.63,-262.77C228.85,-251.63 231.47,-238.48 233.99,-225.83"/>
<polygon fill="black" stroke="black" points="237.35,-226.87 235.88,-216.38 230.49,-225.5 237.35,-226.87"/>
</g>
<!-- beta&#45;&gt;mu -->
<g id="edge18" class="edge">
<title>beta&#45;&gt;mu</title>
<path fill="none" stroke="black" d="M266.22,-368.4C259.26,-356.79 251.08,-343.14 243.6,-330.67"/>
<polygon fill="black" stroke="black" points="246.71,-329.06 238.57,-322.28 240.71,-332.66 246.71,-329.06"/>
</g>
<!-- log_price_data -->
<g id="node7" class="node">
<title>log_price_data</title>
<path fill="lightgrey" stroke="black" d="M100.12,-426.13C100.12,-426.13 27.88,-426.13 27.88,-426.13 21.88,-426.13 15.88,-420.13 15.88,-414.13 15.88,-414.13 15.88,-380.63 15.88,-380.63 15.88,-374.63 21.88,-368.63 27.88,-368.63 27.88,-368.63 100.12,-368.63 100.12,-368.63 106.12,-368.63 112.12,-374.63 112.12,-380.63 112.12,-380.63 112.12,-414.13 112.12,-414.13 112.12,-420.13 106.12,-426.13 100.12,-426.13"/>
<text text-anchor="middle" x="64" y="-408.83" font-family="Times,serif" font-size="14.00">log_price_data</text>
<text text-anchor="middle" x="64" y="-392.33" font-family="Times,serif" font-size="14.00">~</text>
<text text-anchor="middle" x="64" y="-375.83" font-family="Times,serif" font-size="14.00">MutableData</text>
</g>
<!-- log_price_data&#45;&gt;mu -->
<g id="edge20" class="edge">
<title>log_price_data&#45;&gt;mu</title>
<path fill="none" stroke="black" d="M106.49,-368.4C125.69,-355.75 148.57,-340.68 168.81,-327.35"/>
<polygon fill="black" stroke="black" points="170.52,-330.42 176.94,-321.99 166.67,-324.57 170.52,-330.42"/>
</g>
<!-- median_income_data -->
<g id="node8" class="node">
<title>median_income_data</title>
<path fill="lightgrey" stroke="black" d="M582.5,-629.54C582.5,-629.54 473.5,-629.54 473.5,-629.54 467.5,-629.54 461.5,-623.54 461.5,-617.54 461.5,-617.54 461.5,-584.04 461.5,-584.04 461.5,-578.04 467.5,-572.04 473.5,-572.04 473.5,-572.04 582.5,-572.04 582.5,-572.04 588.5,-572.04 594.5,-578.04 594.5,-584.04 594.5,-584.04 594.5,-617.54 594.5,-617.54 594.5,-623.54 588.5,-629.54 582.5,-629.54"/>
<text text-anchor="middle" x="528" y="-612.24" font-family="Times,serif" font-size="14.00">median_income_data</text>
<text text-anchor="middle" x="528" y="-595.74" font-family="Times,serif" font-size="14.00">~</text>
<text text-anchor="middle" x="528" y="-579.24" font-family="Times,serif" font-size="14.00">MutableData</text>
</g>
<!-- alpha_j -->
<g id="node10" class="node">
<title>alpha_j</title>
<polygon fill="none" stroke="black" points="486.12,-524.13 395.88,-524.13 395.88,-466.63 486.12,-466.63 486.12,-524.13"/>
<text text-anchor="middle" x="441" y="-506.83" font-family="Times,serif" font-size="14.00">alpha_j</text>
<text text-anchor="middle" x="441" y="-490.33" font-family="Times,serif" font-size="14.00">~</text>
<text text-anchor="middle" x="441" y="-473.83" font-family="Times,serif" font-size="14.00">Deterministic</text>
</g>
<!-- median_income_data&#45;&gt;alpha_j -->
<g id="edge8" class="edge">
<title>median_income_data&#45;&gt;alpha_j</title>
<path fill="none" stroke="black" d="M504.46,-571.81C494.4,-559.85 482.52,-545.74 471.78,-532.97"/>
<polygon fill="black" stroke="black" points="474.65,-530.95 465.54,-525.55 469.3,-535.45 474.65,-530.95"/>
</g>
<!-- beta_j -->
<g id="node11" class="node">
<title>beta_j</title>
<polygon fill="none" stroke="black" points="638.12,-524.13 547.88,-524.13 547.88,-466.63 638.12,-466.63 638.12,-524.13"/>
<text text-anchor="middle" x="593" y="-506.83" font-family="Times,serif" font-size="14.00">beta_j</text>
<text text-anchor="middle" x="593" y="-490.33" font-family="Times,serif" font-size="14.00">~</text>
<text text-anchor="middle" x="593" y="-473.83" font-family="Times,serif" font-size="14.00">Deterministic</text>
</g>
<!-- median_income_data&#45;&gt;beta_j -->
<g id="edge11" class="edge">
<title>median_income_data&#45;&gt;beta_j</title>
<path fill="none" stroke="black" d="M545.59,-571.81C552.89,-560.2 561.47,-546.55 569.31,-534.08"/>
<polygon fill="black" stroke="black" points="572.23,-536 574.59,-525.67 566.31,-532.28 572.23,-536"/>
</g>
<!-- alpha_j_slope -->
<g id="node9" class="node">
<title>alpha_j_slope</title>
<polygon fill="none" stroke="black" points="443.5,-629.54 352.5,-629.54 352.5,-572.04 443.5,-572.04 443.5,-629.54"/>
<text text-anchor="middle" x="398" y="-612.24" font-family="Times,serif" font-size="14.00">alpha_j_slope</text>
<text text-anchor="middle" x="398" y="-595.74" font-family="Times,serif" font-size="14.00">~</text>
<text text-anchor="middle" x="398" y="-579.24" font-family="Times,serif" font-size="14.00">Deterministic</text>
</g>
<!-- alpha_j_slope&#45;&gt;alpha_j -->
<g id="edge9" class="edge">
<title>alpha_j_slope&#45;&gt;alpha_j</title>
<path fill="none" stroke="black" d="M409.64,-571.81C414.37,-560.43 419.92,-547.09 425.02,-534.82"/>
<polygon fill="black" stroke="black" points="428.17,-536.37 428.77,-525.79 421.7,-533.68 428.17,-536.37"/>
</g>
<!-- alpha_j&#45;&gt;alpha -->
<g id="edge14" class="edge">
<title>alpha_j&#45;&gt;alpha</title>
<path fill="none" stroke="black" d="M403.69,-466.42C385.45,-454.28 362.59,-441.24 340,-434.13 296.05,-420.3 278.98,-436.89 231.43,-426.14"/>
<polygon fill="black" stroke="black" points="232.46,-422.8 221.91,-423.69 230.72,-429.58 232.46,-422.8"/>
</g>
<!-- beta_j&#45;&gt;beta -->
<g id="edge16" class="edge">
<title>beta_j&#45;&gt;beta</title>
<path fill="none" stroke="black" d="M555.2,-466.41C537.7,-454.74 516.13,-442.07 495,-434.13 444.48,-415.17 383.4,-406.22 339.81,-402.03"/>
<polygon fill="black" stroke="black" points="340.34,-398.56 330.07,-401.15 339.71,-405.53 340.34,-398.56"/>
</g>
<!-- beta_j_slope -->
<g id="node12" class="node">
<title>beta_j_slope</title>
<polygon fill="none" stroke="black" points="703.12,-629.54 612.88,-629.54 612.88,-572.04 703.12,-572.04 703.12,-629.54"/>
<text text-anchor="middle" x="658" y="-612.24" font-family="Times,serif" font-size="14.00">beta_j_slope</text>
<text text-anchor="middle" x="658" y="-595.74" font-family="Times,serif" font-size="14.00">~</text>
<text text-anchor="middle" x="658" y="-579.24" font-family="Times,serif" font-size="14.00">Deterministic</text>
</g>
<!-- beta_j_slope&#45;&gt;beta_j -->
<g id="edge12" class="edge">
<title>beta_j_slope&#45;&gt;beta_j</title>
<path fill="none" stroke="black" d="M640.41,-571.81C633.11,-560.2 624.53,-546.55 616.69,-534.08"/>
<polygon fill="black" stroke="black" points="619.69,-532.28 611.41,-525.67 613.77,-536 619.69,-532.28"/>
</g>
<!-- sigma -->
<g id="node13" class="node">
<title>sigma</title>
<ellipse fill="none" stroke="black" cx="401" cy="-291.98" rx="57.45" ry="40.66"/>
<text text-anchor="middle" x="401" y="-303.43" font-family="Times,serif" font-size="14.00">sigma</text>
<text text-anchor="middle" x="401" y="-286.93" font-family="Times,serif" font-size="14.00">~</text>
<text text-anchor="middle" x="401" y="-270.43" font-family="Times,serif" font-size="14.00">Exponential</text>
</g>
<!-- sigma&#45;&gt;likelihood -->
<g id="edge21" class="edge">
<title>sigma&#45;&gt;likelihood</title>
<path fill="none" stroke="black" d="M361.79,-262.17C339.99,-246.17 312.76,-226.16 289.97,-209.42"/>
<polygon fill="black" stroke="black" points="292.18,-206.7 282.05,-203.6 288.03,-212.35 292.18,-206.7"/>
</g>
<!-- alpha_j_intercept -->
<g id="node14" class="node">
<title>alpha_j_intercept</title>
<ellipse fill="none" stroke="black" cx="799" cy="-600.79" rx="77.6" ry="40.66"/>
<text text-anchor="middle" x="799" y="-612.24" font-family="Times,serif" font-size="14.00">alpha_j_intercept</text>
<text text-anchor="middle" x="799" y="-595.74" font-family="Times,serif" font-size="14.00">~</text>
<text text-anchor="middle" x="799" y="-579.24" font-family="Times,serif" font-size="14.00">Normal</text>
</g>
<!-- alpha_j_intercept&#45;&gt;alpha_j -->
<g id="edge10" class="edge">
<title>alpha_j_intercept&#45;&gt;alpha_j</title>
<path fill="none" stroke="black" d="M744.77,-571.47C735.04,-567.18 724.86,-563.18 715,-560.13 639.32,-536.77 615.67,-552.02 539,-532.13 525.17,-528.55 510.55,-523.77 496.95,-518.89"/>
<polygon fill="black" stroke="black" points="498.31,-515.66 487.71,-515.49 495.89,-522.23 498.31,-515.66"/>
</g>
<!-- beta_j_intercept -->
<g id="node15" class="node">
<title>beta_j_intercept</title>
<ellipse fill="none" stroke="black" cx="967" cy="-600.79" rx="72.83" ry="40.66"/>
<text text-anchor="middle" x="967" y="-612.24" font-family="Times,serif" font-size="14.00">beta_j_intercept</text>
<text text-anchor="middle" x="967" y="-595.74" font-family="Times,serif" font-size="14.00">~</text>
<text text-anchor="middle" x="967" y="-579.24" font-family="Times,serif" font-size="14.00">Normal</text>
</g>
<!-- beta_j_intercept&#45;&gt;beta_j -->
<g id="edge13" class="edge">
<title>beta_j_intercept&#45;&gt;beta_j</title>
<path fill="none" stroke="black" d="M915.07,-572.09C905.57,-567.68 895.61,-563.48 886,-560.13 806.09,-532.34 709.55,-514.14 649.7,-504.56"/>
<polygon fill="black" stroke="black" points="650.52,-501.14 640.1,-503.05 649.43,-508.06 650.52,-501.14"/>
</g>
<!-- chol_cov -->
<g id="node16" class="node">
<title>chol_cov</title>
<ellipse fill="none" stroke="black" cx="365" cy="-828.61" rx="84.5" ry="40.66"/>
<text text-anchor="middle" x="365" y="-840.06" font-family="Times,serif" font-size="14.00">chol_cov</text>
<text text-anchor="middle" x="365" y="-823.56" font-family="Times,serif" font-size="14.00">~</text>
<text text-anchor="middle" x="365" y="-807.06" font-family="Times,serif" font-size="14.00">_LKJCholeskyCov</text>
</g>
<!-- chol_cov_corr -->
<g id="node17" class="node">
<title>chol_cov_corr</title>
<polygon fill="none" stroke="black" points="299,-739.45 205,-739.45 205,-681.95 299,-681.95 299,-739.45"/>
<text text-anchor="middle" x="252" y="-722.15" font-family="Times,serif" font-size="14.00">chol_cov_corr</text>
<text text-anchor="middle" x="252" y="-705.65" font-family="Times,serif" font-size="14.00">~</text>
<text text-anchor="middle" x="252" y="-689.15" font-family="Times,serif" font-size="14.00">Deterministic</text>
</g>
<!-- chol_cov&#45;&gt;chol_cov_corr -->
<g id="edge2" class="edge">
<title>chol_cov&#45;&gt;chol_cov_corr</title>
<path fill="none" stroke="black" d="M329.56,-791.25C316.03,-777.38 300.62,-761.58 287.13,-747.73"/>
<polygon fill="black" stroke="black" points="289.97,-745.64 280.49,-740.92 284.96,-750.52 289.97,-745.64"/>
</g>
<!-- chol_cov_stds -->
<g id="node18" class="node">
<title>chol_cov_stds</title>
<polygon fill="none" stroke="black" points="416.62,-739.45 323.38,-739.45 323.38,-681.95 416.62,-681.95 416.62,-739.45"/>
<text text-anchor="middle" x="370" y="-722.15" font-family="Times,serif" font-size="14.00">chol_cov_stds</text>
<text text-anchor="middle" x="370" y="-705.65" font-family="Times,serif" font-size="14.00">~</text>
<text text-anchor="middle" x="370" y="-689.15" font-family="Times,serif" font-size="14.00">Deterministic</text>
</g>
<!-- chol_cov&#45;&gt;chol_cov_stds -->
<g id="edge3" class="edge">
<title>chol_cov&#45;&gt;chol_cov_stds</title>
<path fill="none" stroke="black" d="M366.72,-787.72C367.23,-775.84 367.79,-762.82 368.31,-750.98"/>
<polygon fill="black" stroke="black" points="371.8,-751.26 368.73,-741.12 364.8,-750.96 371.8,-751.26"/>
</g>
<!-- slopes -->
<g id="node20" class="node">
<title>slopes</title>
<polygon fill="none" stroke="black" points="558.12,-739.45 467.88,-739.45 467.88,-681.95 558.12,-681.95 558.12,-739.45"/>
<text text-anchor="middle" x="513" y="-722.15" font-family="Times,serif" font-size="14.00">slopes</text>
<text text-anchor="middle" x="513" y="-705.65" font-family="Times,serif" font-size="14.00">~</text>
<text text-anchor="middle" x="513" y="-689.15" font-family="Times,serif" font-size="14.00">Deterministic</text>
</g>
<!-- chol_cov&#45;&gt;slopes -->
<g id="edge5" class="edge">
<title>chol_cov&#45;&gt;slopes</title>
<path fill="none" stroke="black" d="M408.6,-793.46C427.36,-778.77 449.28,-761.61 468.17,-746.81"/>
<polygon fill="black" stroke="black" points="470.27,-749.61 475.98,-740.69 465.95,-744.1 470.27,-749.61"/>
</g>
<!-- z_slopes -->
<g id="node19" class="node">
<title>z_slopes</title>
<ellipse fill="none" stroke="black" cx="517" cy="-828.61" rx="44.19" ry="40.66"/>
<text text-anchor="middle" x="517" y="-840.06" font-family="Times,serif" font-size="14.00">z_slopes</text>
<text text-anchor="middle" x="517" y="-823.56" font-family="Times,serif" font-size="14.00">~</text>
<text text-anchor="middle" x="517" y="-807.06" font-family="Times,serif" font-size="14.00">Normal</text>
</g>
<!-- z_slopes&#45;&gt;slopes -->
<g id="edge4" class="edge">
<title>z_slopes&#45;&gt;slopes</title>
<path fill="none" stroke="black" d="M515.62,-787.72C515.21,-775.84 514.76,-762.82 514.36,-750.98"/>
<polygon fill="black" stroke="black" points="517.86,-750.99 514.02,-741.12 510.86,-751.23 517.86,-750.99"/>
</g>
<!-- slopes&#45;&gt;alpha_j_slope -->
<g id="edge6" class="edge">
<title>slopes&#45;&gt;alpha_j_slope</title>
<path fill="none" stroke="black" d="M483.09,-681.63C468.71,-668.14 451.32,-651.83 436.02,-637.47"/>
<polygon fill="black" stroke="black" points="438.56,-635.05 428.87,-630.76 433.77,-640.15 438.56,-635.05"/>
</g>
<!-- slopes&#45;&gt;beta_j_slope -->
<g id="edge7" class="edge">
<title>slopes&#45;&gt;beta_j_slope</title>
<path fill="none" stroke="black" d="M550.72,-681.63C569.19,-667.88 591.61,-651.2 611.17,-636.64"/>
<polygon fill="black" stroke="black" points="613.07,-639.59 619,-630.81 608.89,-633.98 613.07,-639.59"/>
</g>
</g>
</svg>
