<?xml version="1.0" encoding="UTF-8" standalone="no"?>
<!DOCTYPE svg PUBLIC "-//W3C//DTD SVG 1.1//EN"
 "http://www.w3.org/Graphics/SVG/1.1/DTD/svg11.dtd">
<!-- Generated by graphviz version 9.0.0 (20230911.1827)
 -->
<!-- Pages: 1 -->
<svg width="1619pt" height="786pt"
 viewBox="0.00 0.00 1619.07 786.09" xmlns="http://www.w3.org/2000/svg" xmlns:xlink="http://www.w3.org/1999/xlink">
<g id="graph0" class="graph" transform="scale(1 1) rotate(0) translate(4 782.09)">
<polygon fill="white" stroke="none" points="-4,4 -4,-782.09 1615.07,-782.09 1615.07,4 -4,4"/>
<g id="clust1" class="cluster">
<title>clusterobs (753)</title>
<path fill="none" stroke="black" d="M20,-8C20,-8 440,-8 440,-8 446,-8 452,-14 452,-20 452,-20 452,-527.54 452,-527.54 452,-533.54 446,-539.54 440,-539.54 440,-539.54 20,-539.54 20,-539.54 14,-539.54 8,-533.54 8,-527.54 8,-527.54 8,-20 8,-20 8,-14 14,-8 20,-8"/>
<text text-anchor="middle" x="418.12" y="-15.2" font-family="Times,serif" font-size="14.00">obs (753)</text>
</g>
<g id="clust2" class="cluster">
<title>clusterobs (753) x feature (5)</title>
<path fill="none" stroke="black" d="M472,-441.54C472,-441.54 587,-441.54 587,-441.54 593,-441.54 599,-447.54 599,-453.54 599,-453.54 599,-527.54 599,-527.54 599,-533.54 593,-539.54 587,-539.54 587,-539.54 472,-539.54 472,-539.54 466,-539.54 460,-533.54 460,-527.54 460,-527.54 460,-453.54 460,-453.54 460,-447.54 466,-441.54 472,-441.54"/>
<text text-anchor="middle" x="529.5" y="-448.74" font-family="Times,serif" font-size="14.00">obs (753) x feature (5)</text>
</g>
<g id="clust3" class="cluster">
<title>clusteriphone_model (4)</title>
<path fill="none" stroke="black" d="M885,-441.54C885,-441.54 1537,-441.54 1537,-441.54 1543,-441.54 1549,-447.54 1549,-453.54 1549,-453.54 1549,-656.77 1549,-656.77 1549,-662.77 1543,-668.77 1537,-668.77 1537,-668.77 885,-668.77 885,-668.77 879,-668.77 873,-662.77 873,-656.77 873,-656.77 873,-453.54 873,-453.54 873,-447.54 879,-441.54 885,-441.54"/>
<text text-anchor="middle" x="1492.25" y="-448.74" font-family="Times,serif" font-size="14.00">iphone_model (4)</text>
</g>
<!-- likelihood -->
<g id="node1" class="node">
<title>likelihood</title>
<ellipse fill="lightgrey" stroke="black" cx="153" cy="-174.66" rx="63.29" ry="40.66"/>
<text text-anchor="middle" x="153" y="-186.11" font-family="Times,serif" font-size="14.00">likelihood</text>
<text text-anchor="middle" x="153" y="-169.61" font-family="Times,serif" font-size="14.00">~</text>
<text text-anchor="middle" x="153" y="-153.11" font-family="Times,serif" font-size="14.00">NegBinomial</text>
</g>
<!-- search_data -->
<g id="node8" class="node">
<title>search_data</title>
<path fill="lightgrey" stroke="black" d="M184.62,-98C184.62,-98 121.38,-98 121.38,-98 115.38,-98 109.38,-92 109.38,-86 109.38,-86 109.38,-52.5 109.38,-52.5 109.38,-46.5 115.38,-40.5 121.38,-40.5 121.38,-40.5 184.62,-40.5 184.62,-40.5 190.62,-40.5 196.62,-46.5 196.62,-52.5 196.62,-52.5 196.62,-86 196.62,-86 196.62,-92 190.62,-98 184.62,-98"/>
<text text-anchor="middle" x="153" y="-80.7" font-family="Times,serif" font-size="14.00">search_data</text>
<text text-anchor="middle" x="153" y="-64.2" font-family="Times,serif" font-size="14.00">~</text>
<text text-anchor="middle" x="153" y="-47.7" font-family="Times,serif" font-size="14.00">MutableData</text>
</g>
<!-- likelihood&#45;&gt;search_data -->
<g id="edge1" class="edge">
<title>likelihood&#45;&gt;search_data</title>
<path fill="none" stroke="black" d="M153,-133.68C153,-125.83 153,-117.6 153,-109.76"/>
<polygon fill="black" stroke="black" points="156.5,-109.79 153,-99.79 149.5,-109.79 156.5,-109.79"/>
</g>
<!-- mu -->
<g id="node2" class="node">
<title>mu</title>
<polygon fill="none" stroke="black" points="272.12,-308.82 181.88,-308.82 181.88,-251.32 272.12,-251.32 272.12,-308.82"/>
<text text-anchor="middle" x="227" y="-291.52" font-family="Times,serif" font-size="14.00">mu</text>
<text text-anchor="middle" x="227" y="-275.02" font-family="Times,serif" font-size="14.00">~</text>
<text text-anchor="middle" x="227" y="-258.52" font-family="Times,serif" font-size="14.00">Deterministic</text>
</g>
<!-- mu&#45;&gt;likelihood -->
<g id="edge20" class="edge">
<title>mu&#45;&gt;likelihood</title>
<path fill="none" stroke="black" d="M206.97,-251.08C200.35,-241.83 192.81,-231.29 185.5,-221.08"/>
<polygon fill="black" stroke="black" points="188.44,-219.16 179.77,-213.07 182.74,-223.24 188.44,-219.16"/>
</g>
<!-- alpha_weighted -->
<g id="node3" class="node">
<title>alpha_weighted</title>
<polygon fill="none" stroke="black" points="117.75,-414.23 16.25,-414.23 16.25,-356.73 117.75,-356.73 117.75,-414.23"/>
<text text-anchor="middle" x="67" y="-396.93" font-family="Times,serif" font-size="14.00">alpha_weighted</text>
<text text-anchor="middle" x="67" y="-380.43" font-family="Times,serif" font-size="14.00">~</text>
<text text-anchor="middle" x="67" y="-363.93" font-family="Times,serif" font-size="14.00">Deterministic</text>
</g>
<!-- alpha_weighted&#45;&gt;likelihood -->
<g id="edge21" class="edge">
<title>alpha_weighted&#45;&gt;likelihood</title>
<path fill="none" stroke="black" d="M78.6,-356.31C92.45,-322.69 115.84,-265.88 132.71,-224.93"/>
<polygon fill="black" stroke="black" points="135.91,-226.34 136.48,-215.76 129.44,-223.67 135.91,-226.34"/>
</g>
<!-- is_release_bump -->
<g id="node4" class="node">
<title>is_release_bump</title>
<polygon fill="none" stroke="black" points="443.75,-414.23 336.25,-414.23 336.25,-356.73 443.75,-356.73 443.75,-414.23"/>
<text text-anchor="middle" x="390" y="-396.93" font-family="Times,serif" font-size="14.00">is_release_bump</text>
<text text-anchor="middle" x="390" y="-380.43" font-family="Times,serif" font-size="14.00">~</text>
<text text-anchor="middle" x="390" y="-363.93" font-family="Times,serif" font-size="14.00">Deterministic</text>
</g>
<!-- is_release_bump&#45;&gt;mu -->
<g id="edge15" class="edge">
<title>is_release_bump&#45;&gt;mu</title>
<path fill="none" stroke="black" d="M345.89,-356.49C325.86,-343.78 301.98,-328.63 280.9,-315.26"/>
<polygon fill="black" stroke="black" points="283.03,-312.47 272.71,-310.06 279.28,-318.38 283.03,-312.47"/>
</g>
<!-- iphone_model_idx_data -->
<g id="node5" class="node">
<title>iphone_model_idx_data</title>
<path fill="lightgrey" stroke="black" d="M229.62,-531.54C229.62,-531.54 106.38,-531.54 106.38,-531.54 100.38,-531.54 94.38,-525.54 94.38,-519.54 94.38,-519.54 94.38,-486.04 94.38,-486.04 94.38,-480.04 100.38,-474.04 106.38,-474.04 106.38,-474.04 229.62,-474.04 229.62,-474.04 235.62,-474.04 241.62,-480.04 241.62,-486.04 241.62,-486.04 241.62,-519.54 241.62,-519.54 241.62,-525.54 235.62,-531.54 229.62,-531.54"/>
<text text-anchor="middle" x="168" y="-514.24" font-family="Times,serif" font-size="14.00">iphone_model_idx_data</text>
<text text-anchor="middle" x="168" y="-497.74" font-family="Times,serif" font-size="14.00">~</text>
<text text-anchor="middle" x="168" y="-481.24" font-family="Times,serif" font-size="14.00">MutableData</text>
</g>
<!-- iphone_model_idx_data&#45;&gt;alpha_weighted -->
<g id="edge17" class="edge">
<title>iphone_model_idx_data&#45;&gt;alpha_weighted</title>
<path fill="none" stroke="black" d="M143.29,-473.58C129.87,-458.25 113.11,-439.12 98.73,-422.7"/>
<polygon fill="black" stroke="black" points="101.67,-420.75 92.45,-415.53 96.41,-425.36 101.67,-420.75"/>
</g>
<!-- iphone_model_idx_data&#45;&gt;is_release_bump -->
<g id="edge9" class="edge">
<title>iphone_model_idx_data&#45;&gt;is_release_bump</title>
<path fill="none" stroke="black" d="M222.39,-473.6C243.07,-463.17 266.97,-451.48 289,-441.54 305.61,-434.05 310.78,-434.45 327,-426.13 330.5,-424.34 334.06,-422.41 337.61,-420.41"/>
<polygon fill="black" stroke="black" points="339.37,-423.43 346.25,-415.37 335.84,-417.39 339.37,-423.43"/>
</g>
<!-- model_age_data -->
<g id="node6" class="node">
<title>model_age_data</title>
<path fill="lightgrey" stroke="black" d="M391.62,-531.54C391.62,-531.54 310.38,-531.54 310.38,-531.54 304.38,-531.54 298.38,-525.54 298.38,-519.54 298.38,-519.54 298.38,-486.04 298.38,-486.04 298.38,-480.04 304.38,-474.04 310.38,-474.04 310.38,-474.04 391.62,-474.04 391.62,-474.04 397.62,-474.04 403.62,-480.04 403.62,-486.04 403.62,-486.04 403.62,-519.54 403.62,-519.54 403.62,-525.54 397.62,-531.54 391.62,-531.54"/>
<text text-anchor="middle" x="351" y="-514.24" font-family="Times,serif" font-size="14.00">model_age_data</text>
<text text-anchor="middle" x="351" y="-497.74" font-family="Times,serif" font-size="14.00">~</text>
<text text-anchor="middle" x="351" y="-481.24" font-family="Times,serif" font-size="14.00">MutableData</text>
</g>
<!-- model_age_data&#45;&gt;alpha_weighted -->
<g id="edge19" class="edge">
<title>model_age_data&#45;&gt;alpha_weighted</title>
<path fill="none" stroke="black" d="M312.99,-473.72C295.06,-461.87 272.84,-449.09 251,-441.54 198.51,-423.39 179.09,-445.38 127,-426.13 122.59,-424.5 118.17,-422.49 113.85,-420.25"/>
<polygon fill="black" stroke="black" points="115.73,-417.3 105.31,-415.41 112.28,-423.39 115.73,-417.3"/>
</g>
<!-- model_age_data&#45;&gt;is_release_bump -->
<g id="edge13" class="edge">
<title>model_age_data&#45;&gt;is_release_bump</title>
<path fill="none" stroke="black" d="M360.54,-473.58C365.49,-458.96 371.6,-440.87 376.98,-424.98"/>
<polygon fill="black" stroke="black" points="380.18,-426.42 380.07,-415.83 373.55,-424.18 380.18,-426.42"/>
</g>
<!-- bart_mu_log -->
<g id="node7" class="node">
<title>bart_mu_log</title>
<ellipse fill="none" stroke="black" cx="227" cy="-385.48" rx="90.86" ry="40.66"/>
<text text-anchor="middle" x="227" y="-396.93" font-family="Times,serif" font-size="14.00">bart_mu_log</text>
<text text-anchor="middle" x="227" y="-380.43" font-family="Times,serif" font-size="14.00">~</text>
<text text-anchor="middle" x="227" y="-363.93" font-family="Times,serif" font-size="14.00">BART_bart_mu_log</text>
</g>
<!-- bart_mu_log&#45;&gt;mu -->
<g id="edge14" class="edge">
<title>bart_mu_log&#45;&gt;mu</title>
<path fill="none" stroke="black" d="M227,-344.5C227,-336.65 227,-328.41 227,-320.58"/>
<polygon fill="black" stroke="black" points="230.5,-320.61 227,-310.61 223.5,-320.61 230.5,-320.61"/>
</g>
<!-- x_data -->
<g id="node9" class="node">
<title>x_data</title>
<path fill="lightgrey" stroke="black" d="M543.62,-531.54C543.62,-531.54 480.38,-531.54 480.38,-531.54 474.38,-531.54 468.38,-525.54 468.38,-519.54 468.38,-519.54 468.38,-486.04 468.38,-486.04 468.38,-480.04 474.38,-474.04 480.38,-474.04 480.38,-474.04 543.62,-474.04 543.62,-474.04 549.62,-474.04 555.62,-480.04 555.62,-486.04 555.62,-486.04 555.62,-519.54 555.62,-519.54 555.62,-525.54 549.62,-531.54 543.62,-531.54"/>
<text text-anchor="middle" x="512" y="-514.24" font-family="Times,serif" font-size="14.00">x_data</text>
<text text-anchor="middle" x="512" y="-497.74" font-family="Times,serif" font-size="14.00">~</text>
<text text-anchor="middle" x="512" y="-481.24" font-family="Times,serif" font-size="14.00">MutableData</text>
</g>
<!-- x_data&#45;&gt;bart_mu_log -->
<g id="edge6" class="edge">
<title>x_data&#45;&gt;bart_mu_log</title>
<path fill="none" stroke="black" d="M492.82,-473.56C483.2,-461.68 470.51,-448.92 456,-441.54 404.53,-415.37 382.97,-440.32 327,-426.13 318.66,-424.02 310.09,-421.38 301.63,-418.48"/>
<polygon fill="black" stroke="black" points="303.03,-415.27 292.44,-415.19 300.67,-421.86 303.03,-415.27"/>
</g>
<!-- sigma_ell_is_release_minus -->
<g id="node10" class="node">
<title>sigma_ell_is_release_minus</title>
<ellipse fill="none" stroke="black" cx="1077" cy="-737.43" rx="120.03" ry="40.66"/>
<text text-anchor="middle" x="1077" y="-748.88" font-family="Times,serif" font-size="14.00">sigma_ell_is_release_minus</text>
<text text-anchor="middle" x="1077" y="-732.38" font-family="Times,serif" font-size="14.00">~</text>
<text text-anchor="middle" x="1077" y="-715.88" font-family="Times,serif" font-size="14.00">Exponential</text>
</g>
<!-- ell_is_release_minus -->
<g id="node18" class="node">
<title>ell_is_release_minus</title>
<ellipse fill="none" stroke="black" cx="1105" cy="-620.11" rx="91.92" ry="40.66"/>
<text text-anchor="middle" x="1105" y="-631.56" font-family="Times,serif" font-size="14.00">ell_is_release_minus</text>
<text text-anchor="middle" x="1105" y="-615.06" font-family="Times,serif" font-size="14.00">~</text>
<text text-anchor="middle" x="1105" y="-598.56" font-family="Times,serif" font-size="14.00">HalfNormal</text>
</g>
<!-- sigma_ell_is_release_minus&#45;&gt;ell_is_release_minus -->
<g id="edge2" class="edge">
<title>sigma_ell_is_release_minus&#45;&gt;ell_is_release_minus</title>
<path fill="none" stroke="black" d="M1086.71,-696.42C1088.65,-688.46 1090.7,-680 1092.71,-671.74"/>
<polygon fill="black" stroke="black" points="1096.08,-672.67 1095.04,-662.13 1089.28,-671.02 1096.08,-672.67"/>
</g>
<!-- sigma_ell_is_release_plus -->
<g id="node11" class="node">
<title>sigma_ell_is_release_plus</title>
<ellipse fill="none" stroke="black" cx="1327" cy="-737.43" rx="112.08" ry="40.66"/>
<text text-anchor="middle" x="1327" y="-748.88" font-family="Times,serif" font-size="14.00">sigma_ell_is_release_plus</text>
<text text-anchor="middle" x="1327" y="-732.38" font-family="Times,serif" font-size="14.00">~</text>
<text text-anchor="middle" x="1327" y="-715.88" font-family="Times,serif" font-size="14.00">Exponential</text>
</g>
<!-- ell_is_release_plus -->
<g id="node16" class="node">
<title>ell_is_release_plus</title>
<ellipse fill="none" stroke="black" cx="1299" cy="-620.11" rx="83.97" ry="40.66"/>
<text text-anchor="middle" x="1299" y="-631.56" font-family="Times,serif" font-size="14.00">ell_is_release_plus</text>
<text text-anchor="middle" x="1299" y="-615.06" font-family="Times,serif" font-size="14.00">~</text>
<text text-anchor="middle" x="1299" y="-598.56" font-family="Times,serif" font-size="14.00">HalfNormal</text>
</g>
<!-- sigma_ell_is_release_plus&#45;&gt;ell_is_release_plus -->
<g id="edge3" class="edge">
<title>sigma_ell_is_release_plus&#45;&gt;ell_is_release_plus</title>
<path fill="none" stroke="black" d="M1317.36,-696.74C1315.43,-688.77 1313.37,-680.29 1311.36,-671.99"/>
<polygon fill="black" stroke="black" points="1314.77,-671.23 1309.01,-662.34 1307.97,-672.88 1314.77,-671.23"/>
</g>
<!-- power_minus -->
<g id="node12" class="node">
<title>power_minus</title>
<ellipse fill="none" stroke="black" cx="801" cy="-502.79" rx="63.82" ry="40.66"/>
<text text-anchor="middle" x="801" y="-514.24" font-family="Times,serif" font-size="14.00">power_minus</text>
<text text-anchor="middle" x="801" y="-497.74" font-family="Times,serif" font-size="14.00">~</text>
<text text-anchor="middle" x="801" y="-481.24" font-family="Times,serif" font-size="14.00">Beta</text>
</g>
<!-- power_minus&#45;&gt;is_release_bump -->
<g id="edge11" class="edge">
<title>power_minus&#45;&gt;is_release_bump</title>
<path fill="none" stroke="black" d="M767.57,-467.93C755.94,-457.95 742.22,-447.99 728,-441.54 639.27,-401.3 525.63,-390.02 455.34,-387.1"/>
<polygon fill="black" stroke="black" points="455.64,-383.61 445.52,-386.75 455.39,-390.61 455.64,-383.61"/>
</g>
<!-- power_plus -->
<g id="node13" class="node">
<title>power_plus</title>
<ellipse fill="none" stroke="black" cx="663" cy="-502.79" rx="55.86" ry="40.66"/>
<text text-anchor="middle" x="663" y="-514.24" font-family="Times,serif" font-size="14.00">power_plus</text>
<text text-anchor="middle" x="663" y="-497.74" font-family="Times,serif" font-size="14.00">~</text>
<text text-anchor="middle" x="663" y="-481.24" font-family="Times,serif" font-size="14.00">Beta</text>
</g>
<!-- power_plus&#45;&gt;is_release_bump -->
<g id="edge12" class="edge">
<title>power_plus&#45;&gt;is_release_bump</title>
<path fill="none" stroke="black" d="M634.88,-467.29C625.61,-457.76 614.66,-448.22 603,-441.54 557.42,-415.43 499.34,-401.48 455.35,-394.16"/>
<polygon fill="black" stroke="black" points="456.11,-390.74 445.69,-392.64 455.02,-397.66 456.11,-390.74"/>
</g>
<!-- inv_alpha_lam -->
<g id="node14" class="node">
<title>inv_alpha_lam</title>
<ellipse fill="none" stroke="black" cx="870" cy="-737.43" rx="68.59" ry="40.66"/>
<text text-anchor="middle" x="870" y="-748.88" font-family="Times,serif" font-size="14.00">inv_alpha_lam</text>
<text text-anchor="middle" x="870" y="-732.38" font-family="Times,serif" font-size="14.00">~</text>
<text text-anchor="middle" x="870" y="-715.88" font-family="Times,serif" font-size="14.00">HalfNormal</text>
</g>
<!-- inv_alpha -->
<g id="node20" class="node">
<title>inv_alpha</title>
<ellipse fill="none" stroke="black" cx="938" cy="-620.11" rx="57.45" ry="40.66"/>
<text text-anchor="middle" x="938" y="-631.56" font-family="Times,serif" font-size="14.00">inv_alpha</text>
<text text-anchor="middle" x="938" y="-615.06" font-family="Times,serif" font-size="14.00">~</text>
<text text-anchor="middle" x="938" y="-598.56" font-family="Times,serif" font-size="14.00">Exponential</text>
</g>
<!-- inv_alpha_lam&#45;&gt;inv_alpha -->
<g id="edge5" class="edge">
<title>inv_alpha_lam&#45;&gt;inv_alpha</title>
<path fill="none" stroke="black" d="M892.27,-698.67C898.08,-688.81 904.41,-678.07 910.46,-667.81"/>
<polygon fill="black" stroke="black" points="913.31,-669.86 915.38,-659.47 907.29,-666.31 913.31,-669.86"/>
</g>
<!-- sigma_is_release -->
<g id="node15" class="node">
<title>sigma_is_release</title>
<ellipse fill="none" stroke="black" cx="1534" cy="-737.43" rx="77.07" ry="40.66"/>
<text text-anchor="middle" x="1534" y="-748.88" font-family="Times,serif" font-size="14.00">sigma_is_release</text>
<text text-anchor="middle" x="1534" y="-732.38" font-family="Times,serif" font-size="14.00">~</text>
<text text-anchor="middle" x="1534" y="-715.88" font-family="Times,serif" font-size="14.00">Exponential</text>
</g>
<!-- beta_is_release -->
<g id="node19" class="node">
<title>beta_is_release</title>
<ellipse fill="none" stroke="black" cx="1471" cy="-620.11" rx="69.65" ry="40.66"/>
<text text-anchor="middle" x="1471" y="-631.56" font-family="Times,serif" font-size="14.00">beta_is_release</text>
<text text-anchor="middle" x="1471" y="-615.06" font-family="Times,serif" font-size="14.00">~</text>
<text text-anchor="middle" x="1471" y="-598.56" font-family="Times,serif" font-size="14.00">HalfNormal</text>
</g>
<!-- sigma_is_release&#45;&gt;beta_is_release -->
<g id="edge4" class="edge">
<title>sigma_is_release&#45;&gt;beta_is_release</title>
<path fill="none" stroke="black" d="M1513.02,-698.03C1507.97,-688.79 1502.52,-678.8 1497.26,-669.19"/>
<polygon fill="black" stroke="black" points="1500.48,-667.77 1492.61,-660.67 1494.34,-671.12 1500.48,-667.77"/>
</g>
<!-- ell_is_release_plus&#45;&gt;is_release_bump -->
<g id="edge7" class="edge">
<title>ell_is_release_plus&#45;&gt;is_release_bump</title>
<path fill="none" stroke="black" d="M1261.62,-583.36C1214.91,-541.15 1130.52,-472.75 1044,-441.54 936.9,-402.92 598.48,-391.04 455.15,-387.69"/>
<polygon fill="black" stroke="black" points="455.54,-384.19 445.46,-387.47 455.38,-391.19 455.54,-384.19"/>
</g>
<!-- alpha -->
<g id="node17" class="node">
<title>alpha</title>
<polygon fill="none" stroke="black" points="978.12,-531.54 887.88,-531.54 887.88,-474.04 978.12,-474.04 978.12,-531.54"/>
<text text-anchor="middle" x="933" y="-514.24" font-family="Times,serif" font-size="14.00">alpha</text>
<text text-anchor="middle" x="933" y="-497.74" font-family="Times,serif" font-size="14.00">~</text>
<text text-anchor="middle" x="933" y="-481.24" font-family="Times,serif" font-size="14.00">Deterministic</text>
</g>
<!-- alpha&#45;&gt;alpha_weighted -->
<g id="edge18" class="edge">
<title>alpha&#45;&gt;alpha_weighted</title>
<path fill="none" stroke="black" d="M913.61,-473.81C903.4,-461.51 889.72,-448.34 874,-441.54 797.81,-408.58 206.25,-450.85 127,-426.13 121.97,-424.57 116.98,-422.44 112.14,-419.98"/>
<polygon fill="black" stroke="black" points="114.21,-417.13 103.77,-415.28 110.78,-423.23 114.21,-417.13"/>
</g>
<!-- ell_is_release_minus&#45;&gt;is_release_bump -->
<g id="edge10" class="edge">
<title>ell_is_release_minus&#45;&gt;is_release_bump</title>
<path fill="none" stroke="black" d="M1090.75,-579.62C1073.3,-537.56 1039.44,-472.84 987,-441.54 942.19,-414.79 601.14,-396.16 455.55,-389.34"/>
<polygon fill="black" stroke="black" points="455.82,-385.85 445.67,-388.88 455.5,-392.84 455.82,-385.85"/>
</g>
<!-- beta_is_release&#45;&gt;is_release_bump -->
<g id="edge8" class="edge">
<title>beta_is_release&#45;&gt;is_release_bump</title>
<path fill="none" stroke="black" d="M1427.89,-587.83C1367.72,-546.08 1253.57,-473.67 1144,-441.54 1015.75,-403.94 614.38,-391.32 455.6,-387.73"/>
<polygon fill="black" stroke="black" points="455.73,-384.23 445.65,-387.51 455.57,-391.23 455.73,-384.23"/>
</g>
<!-- inv_alpha&#45;&gt;alpha -->
<g id="edge16" class="edge">
<title>inv_alpha&#45;&gt;alpha</title>
<path fill="none" stroke="black" d="M936.27,-579.1C935.76,-567.39 935.2,-554.61 934.7,-542.95"/>
<polygon fill="black" stroke="black" points="938.21,-543.11 934.28,-533.27 931.21,-543.41 938.21,-543.11"/>
</g>
</g>
</svg>
