<?xml version="1.0" encoding="UTF-8" standalone="no"?>
<!DOCTYPE svg PUBLIC "-//W3C//DTD SVG 1.1//EN"
 "http://www.w3.org/Graphics/SVG/1.1/DTD/svg11.dtd">
<!-- Generated by graphviz version 9.0.0 (20230911.1827)
 -->
<!-- Pages: 1 -->
<svg width="1559pt" height="504pt"
 viewBox="0.00 0.00 1558.82 503.50" xmlns="http://www.w3.org/2000/svg" xmlns:xlink="http://www.w3.org/1999/xlink">
<g id="graph0" class="graph" transform="scale(1 1) rotate(0) translate(4 499.5)">
<polygon fill="white" stroke="none" points="-4,4 -4,-499.5 1554.82,-499.5 1554.82,4 -4,4"/>
<g id="clust1" class="cluster">
<title>cluster_data</title>
<polygon fill="none" stroke="black" points="495.7,-8 495.7,-84.5 1089.7,-84.5 1089.7,-8 495.7,-8"/>
<text text-anchor="middle" x="1070.45" y="-15.2" font-family="Times,serif" font-size="14.00">data</text>
</g>
<!-- retention_nn/Dense_0.bias -->
<g id="node1" class="node">
<title>retention_nn/Dense_0.bias</title>
<ellipse fill="white" stroke="black" cx="109.7" cy="-202.5" rx="109.7" ry="18"/>
<text text-anchor="middle" x="109.7" y="-197.45" font-family="Times,serif" font-size="14.00">retention_nn/Dense_0.bias</text>
</g>
<!-- retention -->
<g id="node5" class="node">
<title>retention</title>
<ellipse fill="white" stroke="black" stroke-dasharray="5,2" cx="601.7" cy="-130.5" rx="43.67" ry="18"/>
<text text-anchor="middle" x="601.7" y="-125.45" font-family="Times,serif" font-size="14.00">retention</text>
</g>
<!-- retention_nn/Dense_0.bias&#45;&gt;retention -->
<g id="edge1" class="edge">
<title>retention_nn/Dense_0.bias&#45;&gt;retention</title>
<path fill="none" stroke="black" d="M190.35,-189.97C203.18,-188.14 216.3,-186.27 228.7,-184.5 343.33,-168.17 477.79,-149.08 549.84,-138.86"/>
<polygon fill="black" stroke="black" points="549.94,-142.38 559.35,-137.51 548.96,-135.45 549.94,-142.38"/>
</g>
<!-- retention_nn/Dense_0.kernel -->
<g id="node2" class="node">
<title>retention_nn/Dense_0.kernel</title>
<ellipse fill="white" stroke="black" cx="355.7" cy="-202.5" rx="117.89" ry="18"/>
<text text-anchor="middle" x="355.7" y="-197.45" font-family="Times,serif" font-size="14.00">retention_nn/Dense_0.kernel</text>
</g>
<!-- retention_nn/Dense_0.kernel&#45;&gt;retention -->
<g id="edge2" class="edge">
<title>retention_nn/Dense_0.kernel&#45;&gt;retention</title>
<path fill="none" stroke="black" d="M409.68,-186.14C453.34,-173.71 514.16,-156.41 555.57,-144.63"/>
<polygon fill="black" stroke="black" points="556.32,-148.05 564.98,-141.95 554.41,-141.32 556.32,-148.05"/>
</g>
<!-- retention_nn/Dense_1.bias -->
<g id="node3" class="node">
<title>retention_nn/Dense_1.bias</title>
<ellipse fill="white" stroke="black" cx="601.7" cy="-202.5" rx="109.7" ry="18"/>
<text text-anchor="middle" x="601.7" y="-197.45" font-family="Times,serif" font-size="14.00">retention_nn/Dense_1.bias</text>
</g>
<!-- retention_nn/Dense_1.bias&#45;&gt;retention -->
<g id="edge3" class="edge">
<title>retention_nn/Dense_1.bias&#45;&gt;retention</title>
<path fill="none" stroke="black" d="M601.7,-184.2C601.7,-176.91 601.7,-168.23 601.7,-160.04"/>
<polygon fill="black" stroke="black" points="605.2,-160.12 601.7,-150.12 598.2,-160.12 605.2,-160.12"/>
</g>
<!-- retention_nn/Dense_1.kernel -->
<g id="node4" class="node">
<title>retention_nn/Dense_1.kernel</title>
<ellipse fill="white" stroke="black" cx="847.7" cy="-202.5" rx="117.89" ry="18"/>
<text text-anchor="middle" x="847.7" y="-197.45" font-family="Times,serif" font-size="14.00">retention_nn/Dense_1.kernel</text>
</g>
<!-- retention_nn/Dense_1.kernel&#45;&gt;retention -->
<g id="edge4" class="edge">
<title>retention_nn/Dense_1.kernel&#45;&gt;retention</title>
<path fill="none" stroke="black" d="M793.71,-186.14C750.05,-173.71 689.24,-156.41 647.83,-144.63"/>
<polygon fill="black" stroke="black" points="648.99,-141.32 638.41,-141.95 647.07,-148.05 648.99,-141.32"/>
</g>
<!-- n_active_users_estimated -->
<g id="node12" class="node">
<title>n_active_users_estimated</title>
<ellipse fill="grey" stroke="black" cx="609.7" cy="-58.5" rx="106.11" ry="18"/>
<text text-anchor="middle" x="609.7" y="-53.45" font-family="Times,serif" font-size="14.00">n_active_users_estimated</text>
</g>
<!-- retention&#45;&gt;n_active_users_estimated -->
<g id="edge10" class="edge">
<title>retention&#45;&gt;n_active_users_estimated</title>
<path fill="none" stroke="black" d="M603.68,-112.2C604.51,-104.91 605.5,-96.23 606.44,-88.04"/>
<polygon fill="black" stroke="black" points="609.91,-88.44 607.57,-78.11 602.96,-87.65 609.91,-88.44"/>
</g>
<!-- intercept -->
<g id="node6" class="node">
<title>intercept</title>
<ellipse fill="white" stroke="black" cx="875.7" cy="-376" rx="43.16" ry="18"/>
<text text-anchor="middle" x="875.7" y="-370.95" font-family="Times,serif" font-size="14.00">intercept</text>
</g>
<!-- lam_log -->
<g id="node10" class="node">
<title>lam_log</title>
<ellipse fill="white" stroke="black" stroke-dasharray="5,2" cx="1025.7" cy="-202.5" rx="41.63" ry="18"/>
<text text-anchor="middle" x="1025.7" y="-197.45" font-family="Times,serif" font-size="14.00">lam_log</text>
</g>
<!-- intercept&#45;&gt;lam_log -->
<g id="edge5" class="edge">
<title>intercept&#45;&gt;lam_log</title>
<path fill="none" stroke="black" d="M879.48,-357.73C885.72,-332.75 900.3,-286.25 927.7,-256.5 942.88,-240.01 964.41,-227.59 983.41,-218.93"/>
<polygon fill="black" stroke="black" points="984.77,-222.16 992.56,-214.99 982,-215.73 984.77,-222.16"/>
</g>
<!-- b_age -->
<g id="node7" class="node">
<title>b_age</title>
<ellipse fill="white" stroke="black" cx="969.7" cy="-376" rx="32.93" ry="18"/>
<text text-anchor="middle" x="969.7" y="-370.95" font-family="Times,serif" font-size="14.00">b_age</text>
</g>
<!-- b_age&#45;&gt;lam_log -->
<g id="edge6" class="edge">
<title>b_age&#45;&gt;lam_log</title>
<path fill="none" stroke="black" d="M975.27,-357.93C984.93,-328.34 1004.87,-267.28 1016.58,-231.44"/>
<polygon fill="black" stroke="black" points="1019.82,-232.79 1019.59,-222.2 1013.16,-230.61 1019.82,-232.79"/>
</g>
<!-- b_cohort_age -->
<g id="node8" class="node">
<title>b_cohort_age</title>
<ellipse fill="white" stroke="black" cx="1081.7" cy="-376" rx="61.08" ry="18"/>
<text text-anchor="middle" x="1081.7" y="-370.95" font-family="Times,serif" font-size="14.00">b_cohort_age</text>
</g>
<!-- b_cohort_age&#45;&gt;lam_log -->
<g id="edge7" class="edge">
<title>b_cohort_age&#45;&gt;lam_log</title>
<path fill="none" stroke="black" d="M1076.02,-357.61C1066.31,-327.87 1046.44,-267.01 1034.78,-231.31"/>
<polygon fill="black" stroke="black" points="1038.21,-230.54 1031.78,-222.12 1031.55,-232.71 1038.21,-230.54"/>
</g>
<!-- b_interaction -->
<g id="node9" class="node">
<title>b_interaction</title>
<ellipse fill="white" stroke="black" cx="1220.7" cy="-376" rx="59.54" ry="18"/>
<text text-anchor="middle" x="1220.7" y="-370.95" font-family="Times,serif" font-size="14.00">b_interaction</text>
</g>
<!-- b_interaction&#45;&gt;lam_log -->
<g id="edge8" class="edge">
<title>b_interaction&#45;&gt;lam_log</title>
<path fill="none" stroke="black" d="M1214.74,-357.77C1205.16,-332.4 1184.07,-284.94 1151.7,-256.5 1129.18,-236.72 1098.21,-223.55 1072.61,-215.29"/>
<polygon fill="black" stroke="black" points="1073.67,-211.96 1063.09,-212.38 1071.63,-218.65 1073.67,-211.96"/>
</g>
<!-- lam -->
<g id="node11" class="node">
<title>lam</title>
<ellipse fill="white" stroke="black" stroke-dasharray="5,2" cx="1016.7" cy="-130.5" rx="27" ry="18"/>
<text text-anchor="middle" x="1016.7" y="-125.45" font-family="Times,serif" font-size="14.00">lam</text>
</g>
<!-- lam_log&#45;&gt;lam -->
<g id="edge9" class="edge">
<title>lam_log&#45;&gt;lam</title>
<path fill="none" stroke="black" d="M1023.47,-184.2C1022.52,-176.82 1021.39,-168.02 1020.33,-159.75"/>
<polygon fill="black" stroke="black" points="1023.84,-159.58 1019.09,-150.11 1016.89,-160.47 1023.84,-159.58"/>
</g>
<!-- revenue_estimated -->
<g id="node14" class="node">
<title>revenue_estimated</title>
<ellipse fill="grey" stroke="black" cx="1000.7" cy="-58.5" rx="80.52" ry="18"/>
<text text-anchor="middle" x="1000.7" y="-53.45" font-family="Times,serif" font-size="14.00">revenue_estimated</text>
</g>
<!-- lam&#45;&gt;revenue_estimated -->
<g id="edge11" class="edge">
<title>lam&#45;&gt;revenue_estimated</title>
<path fill="none" stroke="black" d="M1012.74,-112.2C1011.06,-104.82 1009.05,-96.02 1007.15,-87.75"/>
<polygon fill="black" stroke="black" points="1010.58,-87.05 1004.94,-78.08 1003.76,-88.61 1010.58,-87.05"/>
</g>
<!-- retention_estimated -->
<g id="node13" class="node">
<title>retention_estimated</title>
<ellipse fill="white" stroke="black" stroke-dasharray="5,2" cx="817.7" cy="-58.5" rx="84.11" ry="18"/>
<text text-anchor="middle" x="817.7" y="-53.45" font-family="Times,serif" font-size="14.00">retention_estimated</text>
</g>
<!-- distribution_description_node -->
<g id="node15" class="node">
<title>distribution_description_node</title>
<text text-anchor="start" x="1306.57" y="-478.2" font-family="Times,serif" font-size="14.00">retention_nn/Dense_0.bias ~ Laplace</text>
<text text-anchor="start" x="1306.57" y="-461.7" font-family="Times,serif" font-size="14.00">retention_nn/Dense_0.kernel ~ Laplace</text>
<text text-anchor="start" x="1306.57" y="-445.2" font-family="Times,serif" font-size="14.00">retention_nn/Dense_1.bias ~ Laplace</text>
<text text-anchor="start" x="1306.57" y="-428.7" font-family="Times,serif" font-size="14.00">retention_nn/Dense_1.kernel ~ Laplace</text>
<text text-anchor="start" x="1306.57" y="-412.2" font-family="Times,serif" font-size="14.00">retention ~ Deterministic</text>
<text text-anchor="start" x="1306.57" y="-395.7" font-family="Times,serif" font-size="14.00">intercept ~ Normal</text>
<text text-anchor="start" x="1306.57" y="-379.2" font-family="Times,serif" font-size="14.00">b_age ~ Normal</text>
<text text-anchor="start" x="1306.57" y="-362.7" font-family="Times,serif" font-size="14.00">b_cohort_age ~ Normal</text>
<text text-anchor="start" x="1306.57" y="-346.2" font-family="Times,serif" font-size="14.00">b_interaction ~ Normal</text>
<text text-anchor="start" x="1306.57" y="-329.7" font-family="Times,serif" font-size="14.00">lam_log ~ Deterministic</text>
<text text-anchor="start" x="1306.57" y="-313.2" font-family="Times,serif" font-size="14.00">lam ~ Deterministic</text>
<text text-anchor="start" x="1306.57" y="-296.7" font-family="Times,serif" font-size="14.00">n_active_users_estimated ~ BinomialProbs</text>
<text text-anchor="start" x="1306.57" y="-280.2" font-family="Times,serif" font-size="14.00">retention_estimated ~ Deterministic</text>
<text text-anchor="start" x="1306.57" y="-263.7" font-family="Times,serif" font-size="14.00">revenue_estimated ~ Gamma</text>
</g>
</g>
</svg>
