<?xml version="1.0" encoding="utf-8" standalone="no"?>
<!DOCTYPE svg PUBLIC "-//W3C//DTD SVG 1.1//EN"
  "http://www.w3.org/Graphics/SVG/1.1/DTD/svg11.dtd">
<!-- Created with matplotlib (https://matplotlib.org/) -->
<svg height="595.03125pt" version="1.1" viewBox="0 0 570.598125 595.03125" width="570.598125pt" xmlns="http://www.w3.org/2000/svg" xmlns:xlink="http://www.w3.org/1999/xlink">
 <metadata>
  <rdf:RDF xmlns:cc="http://creativecommons.org/ns#" xmlns:dc="http://purl.org/dc/elements/1.1/" xmlns:rdf="http://www.w3.org/1999/02/22-rdf-syntax-ns#">
   <cc:Work>
    <dc:type rdf:resource="http://purl.org/dc/dcmitype/StillImage"/>
    <dc:date>2020-09-19T10:47:38.912586</dc:date>
    <dc:format>image/svg+xml</dc:format>
    <dc:creator>
     <cc:Agent>
      <dc:title>Matplotlib v3.3.1, https://matplotlib.org/</dc:title>
     </cc:Agent>
    </dc:creator>
   </cc:Work>
  </rdf:RDF>
 </metadata>
 <defs>
  <style type="text/css">*{stroke-linecap:butt;stroke-linejoin:round;}</style>
 </defs>
 <g id="figure_1">
  <g id="patch_1">
   <path d="M 0 595.03125 
L 570.598125 595.03125 
L 570.598125 0 
L 0 0 
z
" style="fill:none;"/>
  </g>
  <g id="axes_1">
   <g id="patch_2">
    <path d="M 44.028125 558.41875 
L 427.910299 558.41875 
L 427.910299 171.750978 
L 44.028125 171.750978 
z
" style="fill:#e6e6e6;"/>
   </g>
   <g id="LineCollection_1">
    <path clip-path="url(#p998e6d8079)" d="M 125.048483 521.540478 
L 128.906596 521.859371 
L 132.764708 521.937768 
L 136.62282 521.82084 
L 142.409989 521.395861 
L 157.842438 520.149266 
L 163.629606 520.005009 
L 169.416775 520.139429 
L 175.203943 520.518575 
L 185.274391 521.500722 
L 194.494505 522.515503 
L 200.281673 522.938117 
L 206.068842 523.119512 
L 211.85601 523.028237 
L 217.643179 522.664528 
L 223.430347 522.070916 
L 238.862796 520.297958 
L 248.508077 519.448598 
L 260.082414 518.513111 
L 265.869582 517.794255 
L 271.656751 516.805182 
L 275.514863 515.874848 
L 279.372975 514.722668 
L 283.231088 513.239943 
L 287.0892 511.39223 
L 290.947312 509.131116 
L 294.805425 506.433593 
L 298.663537 503.41321 
L 302.873819 500.127126 
L 305.781914 498.184072 
L 306.379761 497.817159 
L 308.308818 496.85088 
L 310.237874 496.113428 
L 312.16693 495.617915 
L 314.095986 495.327028 
L 316.025042 495.213116 
L 317.954098 495.24449 
L 321.812211 495.617915 
L 327.599379 496.585813 
L 335.315604 497.955189 
L 341.102772 498.735178 
L 344.960884 499.06251 
L 348.818997 499.207912 
L 352.677109 499.149938 
L 356.535221 498.856021 
L 360.393334 498.274017 
L 362.32239 497.855208 
L 364.251446 497.330341 
L 367.262012 496.241018 
L 368.109558 495.874307 
L 370.986282 494.297964 
L 371.967671 493.628256 
L 373.896727 492.034233 
L 375.825783 489.881395 
L 376.801709 488.468801 
L 377.826479 486.525747 
L 378.554053 484.582693 
L 379.038136 482.639639 
L 379.30856 480.696585 
L 379.387814 478.753531 
L 379.292188 476.810477 
L 379.032593 474.867422 
L 378.615121 472.924368 
L 377.754839 470.215482 
L 377.317503 469.03826 
L 375.825783 465.936026 
L 375.406023 465.152152 
L 373.896727 462.755366 
L 371.967671 460.149071 
L 370.038614 457.900157 
L 368.109558 455.913134 
L 365.457606 453.493827 
L 362.32239 450.971642 
L 357.647815 447.664665 
L 352.677109 444.465332 
L 335.315604 433.871028 
L 331.457491 431.690008 
L 327.599379 429.742218 
L 323.741267 428.118567 
L 319.883154 426.870265 
L 316.025042 426.049319 
L 312.16693 425.63044 
L 308.308818 425.560867 
L 298.663537 425.780173 
L 296.734481 425.632058 
L 294.805425 425.346823 
L 292.876368 424.911025 
L 290.947312 424.325285 
L 287.0892 422.665816 
L 285.160144 421.640321 
L 281.302031 419.371844 
L 271.656751 413.660059 
L 263.940526 409.896296 
L 260.082414 408.060795 
L 256.224302 405.98364 
L 254.295245 404.804071 
L 251.778775 402.97442 
L 249.485972 401.031366 
L 247.506227 399.088311 
L 245.766364 397.145257 
L 244.196702 395.202203 
L 242.720908 393.228219 
L 238.862796 387.217543 
L 230.007144 371.885554 
L 216.677886 350.511958 
L 201.130553 327.195309 
L 196.423561 320.804875 
L 192.272643 315.536984 
L 186.77828 309.003455 
L 175.203943 295.777366 
L 172.371311 292.220334 
L 169.416775 287.968773 
L 167.312266 284.448118 
L 165.365454 280.56201 
L 163.629606 276.511744 
L 157.842438 262.321131 
L 155.403056 257.24536 
L 153.311368 253.359252 
L 150.965241 249.473143 
L 149.669136 247.530089 
L 148.197157 245.491328 
L 146.268101 243.103964 
L 144.339045 240.994438 
L 142.409989 239.14044 
L 140.480933 237.514669 
L 138.215523 235.871765 
L 134.9735 233.92871 
L 132.764708 232.840333 
L 128.906596 231.301914 
L 124.667941 230.042602 
L 121.190371 229.283432 
L 117.332259 228.714374 
L 113.474146 228.458564 
L 111.54509 228.472463 
L 109.616034 228.601652 
L 107.686978 228.867575 
L 105.757922 229.297443 
L 103.557805 230.042602 
L 101.89981 230.835291 
L 99.970753 232.080349 
L 97.981391 233.92871 
L 96.112641 236.585241 
L 95.486552 237.814819 
L 94.736804 239.757873 
L 94.183585 241.85659 
L 93.892031 243.643981 
L 93.732521 245.587035 
L 93.714008 247.530089 
L 93.822337 249.473143 
L 94.379221 253.359252 
L 95.333417 257.24536 
L 96.620231 261.131468 
L 98.177755 265.017576 
L 100.854591 270.846739 
L 103.828866 277.36736 
L 105.068649 280.56201 
L 105.757922 282.975129 
L 106.098562 284.448118 
L 106.37634 286.391172 
L 106.477199 288.334226 
L 106.404689 290.27728 
L 106.175058 292.220334 
L 105.370478 296.106443 
L 102.979751 305.821713 
L 101.970723 311.650876 
L 100.740823 319.423092 
L 99.923834 323.3092 
L 98.802624 327.195309 
L 97.357114 331.081417 
L 95.58326 334.967525 
L 92.50315 340.796688 
L 89.345508 346.62585 
L 87.436246 350.511958 
L 85.770751 354.398066 
L 84.385722 358.284175 
L 83.248993 362.170283 
L 82.3889 366.056391 
L 81.739239 369.942499 
L 81.30694 373.828608 
L 80.96418 379.65777 
L 80.823117 387.429987 
L 80.647136 395.202203 
L 80.384647 399.088311 
L 79.951166 402.97442 
L 79.334492 406.860528 
L 78.533015 410.746636 
L 76.482353 418.518853 
L 74.340934 426.291069 
L 73.404253 430.177177 
L 72.254766 436.00634 
L 71.696727 439.892448 
L 71.32315 443.778556 
L 71.123946 447.664665 
L 71.092944 451.550773 
L 71.229373 455.436881 
L 71.539122 459.322989 
L 72.036238 463.209098 
L 72.745022 467.095206 
L 74.112808 472.924368 
L 75.948676 478.753531 
L 78.287823 484.582693 
L 80.680192 489.450176 
L 82.299511 492.35491 
L 84.771325 496.241018 
L 87.614446 500.127126 
L 90.325473 503.33117 
L 92.83566 505.956289 
L 96.112641 508.971519 
L 99.724993 511.785451 
L 101.89981 513.292617 
L 105.953677 515.671559 
L 107.686978 516.584109 
L 111.54509 518.272827 
L 115.403203 519.582581 
L 119.261315 520.617355 
L 123.119427 521.3026 
L 125.048483 521.540478 
L 125.048483 521.540478 
" style="fill:none;stroke:#c44e52;stroke-opacity:0.7;stroke-width:1.5;"/>
   </g>
   <g id="LineCollection_2">
    <path clip-path="url(#p998e6d8079)" d="M 182.920168 502.252805 
L 188.707336 502.901678 
L 194.494505 503.32968 
L 200.281673 503.461038 
L 204.139785 503.354732 
L 207.997898 503.082422 
L 211.85601 502.64539 
L 217.643179 501.73222 
L 223.430347 500.613489 
L 250.437133 494.831094 
L 254.295245 493.776846 
L 258.511017 492.35491 
L 262.01147 490.810912 
L 263.940526 489.744705 
L 265.889981 488.468801 
L 268.182697 486.525747 
L 269.906027 484.582693 
L 271.183495 482.639639 
L 272.107402 480.696585 
L 272.729198 478.753531 
L 273.088167 476.810477 
L 273.208907 474.867422 
L 273.109812 472.924368 
L 272.803906 470.981314 
L 272.29946 469.03826 
L 271.601106 467.095206 
L 270.721435 465.152152 
L 269.654227 463.209098 
L 267.798638 460.418519 
L 265.869582 457.946036 
L 263.940526 455.766838 
L 261.709471 453.493827 
L 257.403005 449.607719 
L 252.366189 445.538007 
L 238.862796 434.965195 
L 235.004684 431.624782 
L 231.146572 427.968195 
L 227.288459 423.850299 
L 224.490011 420.461907 
L 221.674467 416.575799 
L 219.572235 413.191462 
L 218.23362 410.746636 
L 216.392364 406.860528 
L 214.856803 402.97442 
L 213.551278 399.088311 
L 211.34269 391.316095 
L 209.117989 383.543878 
L 207.15487 377.714716 
L 204.825298 371.885554 
L 202.089781 366.056391 
L 200.050006 362.170283 
L 197.834002 358.284175 
L 194.494505 352.965829 
L 192.565449 350.129311 
L 190.0144 346.62585 
L 186.77828 342.575323 
L 183.447679 338.853633 
L 180.991112 336.383118 
L 179.062056 334.620342 
L 175.203943 331.532665 
L 171.517285 329.138363 
L 171.345831 329.032532 
L 169.416775 327.989172 
L 167.487719 327.104453 
L 165.558662 326.348137 
L 163.629606 325.747116 
L 161.414848 325.252254 
L 159.771494 324.983989 
L 157.842438 324.824439 
L 155.913382 324.821565 
L 153.984326 324.979423 
L 152.055269 325.302554 
L 150.126213 325.785878 
L 148.197157 326.450356 
L 146.268101 327.306283 
L 144.339045 328.344782 
L 142.409989 329.594795 
L 140.457982 331.081417 
L 138.26598 333.024471 
L 136.350544 334.967525 
L 134.631624 336.910579 
L 131.583796 340.796688 
L 128.870931 344.682796 
L 126.351039 348.568904 
L 122.868096 354.398066 
L 120.73216 358.284175 
L 118.772052 362.170283 
L 116.997154 366.056391 
L 115.403203 369.942499 
L 113.474146 375.244503 
L 112.046519 379.65777 
L 110.391063 385.486932 
L 108.95255 391.316095 
L 107.282691 399.088311 
L 104.418684 412.68969 
L 102.932782 418.518853 
L 101.202654 424.348015 
L 96.289294 439.892448 
L 95.356547 443.778556 
L 94.667551 447.664665 
L 94.248865 451.550773 
L 94.112962 455.436881 
L 94.278301 459.322989 
L 94.754618 463.209098 
L 95.568214 467.095206 
L 96.74183 470.981314 
L 98.317001 474.867422 
L 99.970753 478.079152 
L 101.577181 480.696585 
L 102.96284 482.639639 
L 104.53692 484.582693 
L 106.33692 486.525747 
L 108.421241 488.468801 
L 110.87833 490.411855 
L 111.54509 490.892238 
L 113.866049 492.35491 
L 115.403203 493.210507 
L 117.719533 494.297964 
L 119.261315 494.93721 
L 123.119427 496.181618 
L 126.977539 497.057056 
L 130.835652 497.626416 
L 134.693764 497.977517 
L 142.409989 498.349218 
L 152.055269 498.793424 
L 159.771494 499.40361 
L 167.487719 500.243181 
L 182.920168 502.252805 
L 182.920168 502.252805 
" style="fill:none;stroke:#c44e52;stroke-opacity:0.7;stroke-width:1.5;"/>
   </g>
   <g id="LineCollection_3">
    <path clip-path="url(#p998e6d8079)" d="M 188.707336 492.362687 
L 192.565449 492.539797 
L 196.423561 492.542456 
L 200.281673 492.346894 
L 204.139785 491.939584 
L 207.997898 491.3079 
L 212.027992 490.411855 
L 215.714122 489.392158 
L 219.572235 488.139174 
L 223.894079 486.525747 
L 229.217515 484.179255 
L 233.075628 482.155765 
L 235.477896 480.696585 
L 238.078104 478.753531 
L 240.070632 476.810477 
L 241.501705 474.867422 
L 242.424991 472.924368 
L 242.90109 470.981314 
L 242.985221 469.03826 
L 242.720908 467.095206 
L 242.163863 465.152152 
L 241.34011 463.209098 
L 240.291105 461.266044 
L 238.862796 459.07614 
L 236.93374 456.493508 
L 234.466517 453.493827 
L 229.093394 447.664665 
L 217.643179 435.704602 
L 213.785066 431.338945 
L 211.231034 428.234123 
L 207.997898 423.945321 
L 205.634033 420.461907 
L 203.278461 416.575799 
L 201.212522 412.68969 
L 199.433803 408.803582 
L 197.931712 404.917474 
L 196.423561 400.078494 
L 195.662507 397.145257 
L 194.392973 391.316095 
L 192.565449 382.685631 
L 191.794552 379.65777 
L 190.620723 375.771662 
L 189.185397 371.885554 
L 187.454518 367.999445 
L 185.385841 364.113337 
L 184.204466 362.170283 
L 182.920168 360.218804 
L 180.991112 357.623273 
L 178.187031 354.398066 
L 176.204572 352.455012 
L 173.890902 350.511958 
L 173.274887 350.035071 
L 171.036199 348.568904 
L 169.416775 347.678797 
L 166.87564 346.62585 
L 165.558662 346.197641 
L 163.629606 345.786608 
L 161.70055 345.594937 
L 159.771494 345.628437 
L 157.842438 345.893271 
L 155.307616 346.62585 
L 153.984326 347.15325 
L 151.437459 348.568904 
L 150.126213 349.462437 
L 148.197157 351.04036 
L 146.268101 352.921575 
L 144.339045 355.125266 
L 141.987989 358.284175 
L 139.5726 362.170283 
L 137.561604 366.056391 
L 135.882866 369.942499 
L 134.469241 373.828608 
L 132.667716 379.65777 
L 130.345818 387.429987 
L 128.906596 391.630001 
L 126.752383 397.145257 
L 122.797228 406.860528 
L 120.741278 412.68969 
L 118.981929 418.518853 
L 116.910144 426.291069 
L 111.985926 445.72161 
L 111.260985 449.607719 
L 110.820027 453.493827 
L 110.757522 457.379935 
L 110.895916 459.322989 
L 111.161336 461.266044 
L 111.564533 463.209098 
L 112.135649 465.152152 
L 113.474146 468.374451 
L 113.807163 469.03826 
L 115.403203 471.588094 
L 117.332259 473.949377 
L 119.261315 475.808159 
L 121.190371 477.320356 
L 123.432 478.753531 
L 125.048483 479.610104 
L 127.450734 480.696585 
L 130.835652 481.911958 
L 134.693764 483.007752 
L 140.480933 484.323833 
L 151.64416 486.525747 
L 169.416775 489.849659 
L 179.062056 491.363485 
L 184.849224 492.047016 
L 188.707336 492.362687 
L 188.707336 492.362687 
" style="fill:none;stroke:#c44e52;stroke-opacity:0.7;stroke-width:1.5;"/>
   </g>
   <g id="LineCollection_4">
    <path clip-path="url(#p998e6d8079)" d="M 173.274887 482.669562 
L 179.062056 483.544161 
L 182.920168 483.954967 
L 186.77828 484.202985 
L 190.636392 484.257017 
L 194.494505 484.079802 
L 198.352617 483.632789 
L 202.210729 482.882376 
L 204.139785 482.371542 
L 207.997898 481.050981 
L 209.926954 480.216573 
L 212.772012 478.753531 
L 215.714122 476.810477 
L 217.967805 474.867422 
L 219.665028 472.924368 
L 220.884339 470.981314 
L 221.676451 469.03826 
L 222.093922 467.095206 
L 222.173783 465.152152 
L 221.954982 463.209098 
L 221.471911 461.266044 
L 220.764712 459.322989 
L 219.572235 456.884069 
L 218.773582 455.436881 
L 216.200376 451.550773 
L 211.85601 445.949676 
L 208.471396 441.835502 
L 203.721919 436.00634 
L 199.273846 430.177177 
L 196.423561 426.155993 
L 192.565449 420.261351 
L 189.213426 414.632744 
L 186.113526 408.803582 
L 184.282462 404.917474 
L 182.656584 401.031366 
L 180.991112 396.425206 
L 179.940526 393.259149 
L 176.957121 383.543878 
L 175.203943 379.00121 
L 173.543022 375.771662 
L 173.274887 375.311476 
L 171.345831 372.640798 
L 169.416775 370.712524 
L 167.487719 369.376559 
L 165.558662 368.553589 
L 163.629606 368.188753 
L 161.70055 368.283912 
L 159.771494 368.834653 
L 157.694329 369.942499 
L 155.419117 371.885554 
L 153.746751 373.828608 
L 152.055269 376.401323 
L 150.126213 380.27847 
L 148.102465 385.486932 
L 145.9401 391.316095 
L 144.24323 395.202203 
L 142.226667 399.088311 
L 139.907488 402.97442 
L 135.075934 410.746636 
L 133.990485 412.68969 
L 132.069567 416.575799 
L 130.496858 420.461907 
L 129.242562 424.348015 
L 128.25253 428.234123 
L 127.480973 432.120232 
L 126.891941 436.00634 
L 126.454964 439.892448 
L 126.182408 443.778556 
L 126.106861 447.664665 
L 126.302846 451.550773 
L 126.540627 453.493827 
L 126.977539 455.746633 
L 127.398943 457.379935 
L 128.077662 459.322989 
L 128.976981 461.266044 
L 130.130287 463.209098 
L 131.603423 465.152152 
L 133.459981 467.095206 
L 135.774668 469.03826 
L 138.635036 470.981314 
L 142.409989 473.076326 
L 146.268101 474.872524 
L 151.157242 476.810477 
L 155.913382 478.425088 
L 159.771494 479.580198 
L 165.558662 481.079681 
L 171.345831 482.314968 
L 173.274887 482.669562 
L 173.274887 482.669562 
" style="fill:none;stroke:#c44e52;stroke-opacity:0.7;stroke-width:1.5;"/>
   </g>
   <g id="LineCollection_5">
    <path clip-path="url(#p998e6d8079)" d="M 182.920168 474.88758 
L 186.77828 474.716199 
L 190.636392 474.142731 
L 192.565449 473.676362 
L 194.888807 472.924368 
L 196.423561 472.227163 
L 198.625853 470.981314 
L 200.897014 469.03826 
L 202.353083 467.095206 
L 203.216186 465.152152 
L 203.637649 463.209098 
L 203.692819 461.266044 
L 203.443802 459.322989 
L 202.942283 457.379935 
L 202.210729 455.39205 
L 201.344176 453.493827 
L 199.186355 449.607719 
L 196.423561 445.325235 
L 192.565449 439.740013 
L 185.677579 430.177177 
L 182.736891 426.291069 
L 179.062056 421.760703 
L 175.203943 417.58012 
L 171.871485 414.632744 
L 171.345831 414.189973 
L 169.091867 412.68969 
L 167.487719 411.795611 
L 165.558662 411.043673 
L 163.629606 410.594396 
L 161.70055 410.442954 
L 159.095601 410.746636 
L 157.842438 411.009861 
L 155.913382 411.671633 
L 153.803149 412.68969 
L 152.055269 413.693921 
L 150.126213 415.043182 
L 148.197157 416.641073 
L 146.268101 418.545821 
L 144.339045 420.880549 
L 142.409989 423.868982 
L 142.147638 424.348015 
L 141.210751 426.291069 
L 140.428453 428.234123 
L 139.814466 430.177177 
L 139.327119 432.120232 
L 138.7023 436.00634 
L 138.503729 439.892448 
L 138.706414 443.778556 
L 139.328734 447.664665 
L 139.817267 449.607719 
L 140.480933 451.646985 
L 141.220463 453.493827 
L 142.409989 455.84102 
L 143.334692 457.379935 
L 144.734298 459.322989 
L 146.415307 461.266044 
L 148.43296 463.209098 
L 150.860246 465.152152 
L 153.984326 467.209363 
L 157.842438 469.252632 
L 161.941145 470.981314 
L 165.558662 472.195456 
L 169.416775 473.235926 
L 173.274887 474.013882 
L 177.132999 474.558448 
L 180.991112 474.850126 
L 182.920168 474.88758 
L 182.920168 474.88758 
" style="fill:none;stroke:#c44e52;stroke-opacity:0.7;stroke-width:1.5;"/>
   </g>
   <g id="LineCollection_6"/>
   <g id="matplotlib.axis_1">
    <g id="xtick_1">
     <g id="line2d_1">
      <path clip-path="url(#p998e6d8079)" d="M 99.771509 558.41875 
L 99.771509 171.750978 
" style="fill:none;stroke:#cccccc;stroke-linecap:round;stroke-width:0.8;"/>
     </g>
     <g id="text_1">
      <!-- 0 -->
      <g style="fill:#262626;" transform="translate(96.99104 572.576562)scale(0.1 -0.1)">
       <defs>
        <path d="M 4.15625 35.296875 
Q 4.15625 48 6.765625 55.734375 
Q 9.375 63.484375 14.515625 67.671875 
Q 19.671875 71.875 27.484375 71.875 
Q 33.25 71.875 37.59375 69.546875 
Q 41.9375 67.234375 44.765625 62.859375 
Q 47.609375 58.5 49.21875 52.21875 
Q 50.828125 45.953125 50.828125 35.296875 
Q 50.828125 22.703125 48.234375 14.96875 
Q 45.65625 7.234375 40.5 3 
Q 35.359375 -1.21875 27.484375 -1.21875 
Q 17.140625 -1.21875 11.234375 6.203125 
Q 4.15625 15.140625 4.15625 35.296875 
z
M 13.1875 35.296875 
Q 13.1875 17.671875 17.3125 11.828125 
Q 21.4375 6 27.484375 6 
Q 33.546875 6 37.671875 11.859375 
Q 41.796875 17.71875 41.796875 35.296875 
Q 41.796875 52.984375 37.671875 58.78125 
Q 33.546875 64.59375 27.390625 64.59375 
Q 21.34375 64.59375 17.71875 59.46875 
Q 13.1875 52.9375 13.1875 35.296875 
z
" id="ArialMT-48"/>
       </defs>
       <use xlink:href="#ArialMT-48"/>
      </g>
     </g>
    </g>
    <g id="xtick_2">
     <g id="line2d_2">
      <path clip-path="url(#p998e6d8079)" d="M 157.727978 558.41875 
L 157.727978 171.750978 
" style="fill:none;stroke:#cccccc;stroke-linecap:round;stroke-width:0.8;"/>
     </g>
     <g id="text_2">
      <!-- 10 -->
      <g style="fill:#262626;" transform="translate(152.167041 572.576562)scale(0.1 -0.1)">
       <defs>
        <path d="M 37.25 0 
L 28.46875 0 
L 28.46875 56 
Q 25.296875 52.984375 20.140625 49.953125 
Q 14.984375 46.921875 10.890625 45.40625 
L 10.890625 53.90625 
Q 18.265625 57.375 23.78125 62.296875 
Q 29.296875 67.234375 31.59375 71.875 
L 37.25 71.875 
z
" id="ArialMT-49"/>
       </defs>
       <use xlink:href="#ArialMT-49"/>
       <use x="55.615234" xlink:href="#ArialMT-48"/>
      </g>
     </g>
    </g>
    <g id="xtick_3">
     <g id="line2d_3">
      <path clip-path="url(#p998e6d8079)" d="M 215.684448 558.41875 
L 215.684448 171.750978 
" style="fill:none;stroke:#cccccc;stroke-linecap:round;stroke-width:0.8;"/>
     </g>
     <g id="text_3">
      <!-- 20 -->
      <g style="fill:#262626;" transform="translate(210.12351 572.576562)scale(0.1 -0.1)">
       <defs>
        <path d="M 50.34375 8.453125 
L 50.34375 0 
L 3.03125 0 
Q 2.9375 3.171875 4.046875 6.109375 
Q 5.859375 10.9375 9.828125 15.625 
Q 13.8125 20.3125 21.34375 26.46875 
Q 33.015625 36.03125 37.109375 41.625 
Q 41.21875 47.21875 41.21875 52.203125 
Q 41.21875 57.421875 37.46875 61 
Q 33.734375 64.59375 27.734375 64.59375 
Q 21.390625 64.59375 17.578125 60.78125 
Q 13.765625 56.984375 13.71875 50.25 
L 4.6875 51.171875 
Q 5.609375 61.28125 11.65625 66.578125 
Q 17.71875 71.875 27.9375 71.875 
Q 38.234375 71.875 44.234375 66.15625 
Q 50.25 60.453125 50.25 52 
Q 50.25 47.703125 48.484375 43.546875 
Q 46.734375 39.40625 42.65625 34.8125 
Q 38.578125 30.21875 29.109375 22.21875 
Q 21.1875 15.578125 18.9375 13.203125 
Q 16.703125 10.84375 15.234375 8.453125 
z
" id="ArialMT-50"/>
       </defs>
       <use xlink:href="#ArialMT-50"/>
       <use x="55.615234" xlink:href="#ArialMT-48"/>
      </g>
     </g>
    </g>
    <g id="xtick_4">
     <g id="line2d_4">
      <path clip-path="url(#p998e6d8079)" d="M 273.640917 558.41875 
L 273.640917 171.750978 
" style="fill:none;stroke:#cccccc;stroke-linecap:round;stroke-width:0.8;"/>
     </g>
     <g id="text_4">
      <!-- 30 -->
      <g style="fill:#262626;" transform="translate(268.07998 572.576562)scale(0.1 -0.1)">
       <defs>
        <path d="M 4.203125 18.890625 
L 12.984375 20.0625 
Q 14.5 12.59375 18.140625 9.296875 
Q 21.78125 6 27 6 
Q 33.203125 6 37.46875 10.296875 
Q 41.75 14.59375 41.75 20.953125 
Q 41.75 27 37.796875 30.921875 
Q 33.84375 34.859375 27.734375 34.859375 
Q 25.25 34.859375 21.53125 33.890625 
L 22.515625 41.609375 
Q 23.390625 41.5 23.921875 41.5 
Q 29.546875 41.5 34.03125 44.421875 
Q 38.53125 47.359375 38.53125 53.46875 
Q 38.53125 58.296875 35.25 61.46875 
Q 31.984375 64.65625 26.8125 64.65625 
Q 21.6875 64.65625 18.265625 61.421875 
Q 14.84375 58.203125 13.875 51.765625 
L 5.078125 53.328125 
Q 6.6875 62.15625 12.390625 67.015625 
Q 18.109375 71.875 26.609375 71.875 
Q 32.46875 71.875 37.390625 69.359375 
Q 42.328125 66.84375 44.9375 62.5 
Q 47.5625 58.15625 47.5625 53.265625 
Q 47.5625 48.640625 45.0625 44.828125 
Q 42.578125 41.015625 37.703125 38.765625 
Q 44.046875 37.3125 47.5625 32.6875 
Q 51.078125 28.078125 51.078125 21.140625 
Q 51.078125 11.765625 44.234375 5.25 
Q 37.40625 -1.265625 26.953125 -1.265625 
Q 17.53125 -1.265625 11.296875 4.34375 
Q 5.078125 9.96875 4.203125 18.890625 
z
" id="ArialMT-51"/>
       </defs>
       <use xlink:href="#ArialMT-51"/>
       <use x="55.615234" xlink:href="#ArialMT-48"/>
      </g>
     </g>
    </g>
    <g id="xtick_5">
     <g id="line2d_5">
      <path clip-path="url(#p998e6d8079)" d="M 331.597387 558.41875 
L 331.597387 171.750978 
" style="fill:none;stroke:#cccccc;stroke-linecap:round;stroke-width:0.8;"/>
     </g>
     <g id="text_5">
      <!-- 40 -->
      <g style="fill:#262626;" transform="translate(326.036449 572.576562)scale(0.1 -0.1)">
       <defs>
        <path d="M 32.328125 0 
L 32.328125 17.140625 
L 1.265625 17.140625 
L 1.265625 25.203125 
L 33.9375 71.578125 
L 41.109375 71.578125 
L 41.109375 25.203125 
L 50.78125 25.203125 
L 50.78125 17.140625 
L 41.109375 17.140625 
L 41.109375 0 
z
M 32.328125 25.203125 
L 32.328125 57.46875 
L 9.90625 25.203125 
z
" id="ArialMT-52"/>
       </defs>
       <use xlink:href="#ArialMT-52"/>
       <use x="55.615234" xlink:href="#ArialMT-48"/>
      </g>
     </g>
    </g>
    <g id="xtick_6">
     <g id="line2d_6">
      <path clip-path="url(#p998e6d8079)" d="M 389.553856 558.41875 
L 389.553856 171.750978 
" style="fill:none;stroke:#cccccc;stroke-linecap:round;stroke-width:0.8;"/>
     </g>
     <g id="text_6">
      <!-- 50 -->
      <g style="fill:#262626;" transform="translate(383.992919 572.576562)scale(0.1 -0.1)">
       <defs>
        <path d="M 4.15625 18.75 
L 13.375 19.53125 
Q 14.40625 12.796875 18.140625 9.390625 
Q 21.875 6 27.15625 6 
Q 33.5 6 37.890625 10.78125 
Q 42.28125 15.578125 42.28125 23.484375 
Q 42.28125 31 38.0625 35.34375 
Q 33.84375 39.703125 27 39.703125 
Q 22.75 39.703125 19.328125 37.765625 
Q 15.921875 35.84375 13.96875 32.765625 
L 5.71875 33.84375 
L 12.640625 70.609375 
L 48.25 70.609375 
L 48.25 62.203125 
L 19.671875 62.203125 
L 15.828125 42.96875 
Q 22.265625 47.46875 29.34375 47.46875 
Q 38.71875 47.46875 45.15625 40.96875 
Q 51.609375 34.46875 51.609375 24.265625 
Q 51.609375 14.546875 45.953125 7.46875 
Q 39.0625 -1.21875 27.15625 -1.21875 
Q 17.390625 -1.21875 11.203125 4.25 
Q 5.03125 9.71875 4.15625 18.75 
z
" id="ArialMT-53"/>
       </defs>
       <use xlink:href="#ArialMT-53"/>
       <use x="55.615234" xlink:href="#ArialMT-48"/>
      </g>
     </g>
    </g>
    <g id="text_7">
     <!-- number of kitas per plz -->
     <g style="fill:#262626;" transform="translate(185.394212 585.84375)scale(0.1 -0.1)">
      <defs>
       <path d="M 6.59375 0 
L 6.59375 51.859375 
L 14.5 51.859375 
L 14.5 44.484375 
Q 20.21875 53.03125 31 53.03125 
Q 35.6875 53.03125 39.625 51.34375 
Q 43.5625 49.65625 45.515625 46.921875 
Q 47.46875 44.1875 48.25 40.4375 
Q 48.734375 37.984375 48.734375 31.890625 
L 48.734375 0 
L 39.9375 0 
L 39.9375 31.546875 
Q 39.9375 36.921875 38.90625 39.578125 
Q 37.890625 42.234375 35.28125 43.8125 
Q 32.671875 45.40625 29.15625 45.40625 
Q 23.53125 45.40625 19.453125 41.84375 
Q 15.375 38.28125 15.375 28.328125 
L 15.375 0 
z
" id="ArialMT-110"/>
       <path d="M 40.578125 0 
L 40.578125 7.625 
Q 34.515625 -1.171875 24.125 -1.171875 
Q 19.53125 -1.171875 15.546875 0.578125 
Q 11.578125 2.34375 9.640625 5 
Q 7.71875 7.671875 6.9375 11.53125 
Q 6.390625 14.109375 6.390625 19.734375 
L 6.390625 51.859375 
L 15.1875 51.859375 
L 15.1875 23.09375 
Q 15.1875 16.21875 15.71875 13.8125 
Q 16.546875 10.359375 19.234375 8.375 
Q 21.921875 6.390625 25.875 6.390625 
Q 29.828125 6.390625 33.296875 8.421875 
Q 36.765625 10.453125 38.203125 13.9375 
Q 39.65625 17.4375 39.65625 24.078125 
L 39.65625 51.859375 
L 48.4375 51.859375 
L 48.4375 0 
z
" id="ArialMT-117"/>
       <path d="M 6.59375 0 
L 6.59375 51.859375 
L 14.453125 51.859375 
L 14.453125 44.578125 
Q 16.890625 48.390625 20.9375 50.703125 
Q 25 53.03125 30.171875 53.03125 
Q 35.9375 53.03125 39.625 50.640625 
Q 43.3125 48.25 44.828125 43.953125 
Q 50.984375 53.03125 60.84375 53.03125 
Q 68.5625 53.03125 72.703125 48.75 
Q 76.859375 44.484375 76.859375 35.59375 
L 76.859375 0 
L 68.109375 0 
L 68.109375 32.671875 
Q 68.109375 37.9375 67.25 40.25 
Q 66.40625 42.578125 64.15625 43.984375 
Q 61.921875 45.40625 58.890625 45.40625 
Q 53.421875 45.40625 49.796875 41.765625 
Q 46.1875 38.140625 46.1875 30.125 
L 46.1875 0 
L 37.40625 0 
L 37.40625 33.6875 
Q 37.40625 39.546875 35.25 42.46875 
Q 33.109375 45.40625 28.21875 45.40625 
Q 24.515625 45.40625 21.359375 43.453125 
Q 18.21875 41.5 16.796875 37.734375 
Q 15.375 33.984375 15.375 26.90625 
L 15.375 0 
z
" id="ArialMT-109"/>
       <path d="M 14.703125 0 
L 6.546875 0 
L 6.546875 71.578125 
L 15.328125 71.578125 
L 15.328125 46.046875 
Q 20.90625 53.03125 29.546875 53.03125 
Q 34.328125 53.03125 38.59375 51.09375 
Q 42.875 49.171875 45.625 45.671875 
Q 48.390625 42.1875 49.953125 37.25 
Q 51.515625 32.328125 51.515625 26.703125 
Q 51.515625 13.375 44.921875 6.09375 
Q 38.328125 -1.171875 29.109375 -1.171875 
Q 19.921875 -1.171875 14.703125 6.5 
z
M 14.59375 26.3125 
Q 14.59375 17 17.140625 12.84375 
Q 21.296875 6.0625 28.375 6.0625 
Q 34.125 6.0625 38.328125 11.0625 
Q 42.53125 16.0625 42.53125 25.984375 
Q 42.53125 36.140625 38.5 40.96875 
Q 34.46875 45.796875 28.765625 45.796875 
Q 23 45.796875 18.796875 40.796875 
Q 14.59375 35.796875 14.59375 26.3125 
z
" id="ArialMT-98"/>
       <path d="M 42.09375 16.703125 
L 51.171875 15.578125 
Q 49.03125 7.625 43.21875 3.21875 
Q 37.40625 -1.171875 28.375 -1.171875 
Q 17 -1.171875 10.328125 5.828125 
Q 3.65625 12.84375 3.65625 25.484375 
Q 3.65625 38.578125 10.390625 45.796875 
Q 17.140625 53.03125 27.875 53.03125 
Q 38.28125 53.03125 44.875 45.953125 
Q 51.46875 38.875 51.46875 26.03125 
Q 51.46875 25.25 51.421875 23.6875 
L 12.75 23.6875 
Q 13.234375 15.140625 17.578125 10.59375 
Q 21.921875 6.0625 28.421875 6.0625 
Q 33.25 6.0625 36.671875 8.59375 
Q 40.09375 11.140625 42.09375 16.703125 
z
M 13.234375 30.90625 
L 42.1875 30.90625 
Q 41.609375 37.453125 38.875 40.71875 
Q 34.671875 45.796875 27.984375 45.796875 
Q 21.921875 45.796875 17.796875 41.75 
Q 13.671875 37.703125 13.234375 30.90625 
z
" id="ArialMT-101"/>
       <path d="M 6.5 0 
L 6.5 51.859375 
L 14.40625 51.859375 
L 14.40625 44 
Q 17.4375 49.515625 20 51.265625 
Q 22.5625 53.03125 25.640625 53.03125 
Q 30.078125 53.03125 34.671875 50.203125 
L 31.640625 42.046875 
Q 28.421875 43.953125 25.203125 43.953125 
Q 22.3125 43.953125 20.015625 42.21875 
Q 17.71875 40.484375 16.75 37.40625 
Q 15.28125 32.71875 15.28125 27.15625 
L 15.28125 0 
z
" id="ArialMT-114"/>
       <path id="ArialMT-32"/>
       <path d="M 3.328125 25.921875 
Q 3.328125 40.328125 11.328125 47.265625 
Q 18.015625 53.03125 27.640625 53.03125 
Q 38.328125 53.03125 45.109375 46.015625 
Q 51.90625 39.015625 51.90625 26.65625 
Q 51.90625 16.65625 48.90625 10.90625 
Q 45.90625 5.171875 40.15625 2 
Q 34.421875 -1.171875 27.640625 -1.171875 
Q 16.75 -1.171875 10.03125 5.8125 
Q 3.328125 12.796875 3.328125 25.921875 
z
M 12.359375 25.921875 
Q 12.359375 15.96875 16.703125 11.015625 
Q 21.046875 6.0625 27.640625 6.0625 
Q 34.1875 6.0625 38.53125 11.03125 
Q 42.875 16.015625 42.875 26.21875 
Q 42.875 35.84375 38.5 40.796875 
Q 34.125 45.75 27.640625 45.75 
Q 21.046875 45.75 16.703125 40.8125 
Q 12.359375 35.890625 12.359375 25.921875 
z
" id="ArialMT-111"/>
       <path d="M 8.6875 0 
L 8.6875 45.015625 
L 0.921875 45.015625 
L 0.921875 51.859375 
L 8.6875 51.859375 
L 8.6875 57.375 
Q 8.6875 62.59375 9.625 65.140625 
Q 10.890625 68.5625 14.078125 70.671875 
Q 17.28125 72.796875 23.046875 72.796875 
Q 26.765625 72.796875 31.25 71.921875 
L 29.9375 64.265625 
Q 27.203125 64.75 24.75 64.75 
Q 20.75 64.75 19.09375 63.03125 
Q 17.4375 61.328125 17.4375 56.640625 
L 17.4375 51.859375 
L 27.546875 51.859375 
L 27.546875 45.015625 
L 17.4375 45.015625 
L 17.4375 0 
z
" id="ArialMT-102"/>
       <path d="M 6.640625 0 
L 6.640625 71.578125 
L 15.4375 71.578125 
L 15.4375 30.765625 
L 36.234375 51.859375 
L 47.609375 51.859375 
L 27.78125 32.625 
L 49.609375 0 
L 38.765625 0 
L 21.625 26.515625 
L 15.4375 20.5625 
L 15.4375 0 
z
" id="ArialMT-107"/>
       <path d="M 6.640625 61.46875 
L 6.640625 71.578125 
L 15.4375 71.578125 
L 15.4375 61.46875 
z
M 6.640625 0 
L 6.640625 51.859375 
L 15.4375 51.859375 
L 15.4375 0 
z
" id="ArialMT-105"/>
       <path d="M 25.78125 7.859375 
L 27.046875 0.09375 
Q 23.34375 -0.6875 20.40625 -0.6875 
Q 15.625 -0.6875 12.984375 0.828125 
Q 10.359375 2.34375 9.28125 4.8125 
Q 8.203125 7.28125 8.203125 15.1875 
L 8.203125 45.015625 
L 1.765625 45.015625 
L 1.765625 51.859375 
L 8.203125 51.859375 
L 8.203125 64.703125 
L 16.9375 69.96875 
L 16.9375 51.859375 
L 25.78125 51.859375 
L 25.78125 45.015625 
L 16.9375 45.015625 
L 16.9375 14.703125 
Q 16.9375 10.9375 17.40625 9.859375 
Q 17.875 8.796875 18.921875 8.15625 
Q 19.96875 7.515625 21.921875 7.515625 
Q 23.390625 7.515625 25.78125 7.859375 
z
" id="ArialMT-116"/>
       <path d="M 40.4375 6.390625 
Q 35.546875 2.25 31.03125 0.53125 
Q 26.515625 -1.171875 21.34375 -1.171875 
Q 12.796875 -1.171875 8.203125 3 
Q 3.609375 7.171875 3.609375 13.671875 
Q 3.609375 17.484375 5.34375 20.625 
Q 7.078125 23.78125 9.890625 25.6875 
Q 12.703125 27.59375 16.21875 28.5625 
Q 18.796875 29.25 24.03125 29.890625 
Q 34.671875 31.15625 39.703125 32.90625 
Q 39.75 34.71875 39.75 35.203125 
Q 39.75 40.578125 37.25 42.78125 
Q 33.890625 45.75 27.25 45.75 
Q 21.046875 45.75 18.09375 43.578125 
Q 15.140625 41.40625 13.71875 35.890625 
L 5.125 37.0625 
Q 6.296875 42.578125 8.984375 45.96875 
Q 11.671875 49.359375 16.75 51.1875 
Q 21.828125 53.03125 28.515625 53.03125 
Q 35.15625 53.03125 39.296875 51.46875 
Q 43.453125 49.90625 45.40625 47.53125 
Q 47.359375 45.171875 48.140625 41.546875 
Q 48.578125 39.3125 48.578125 33.453125 
L 48.578125 21.734375 
Q 48.578125 9.46875 49.140625 6.21875 
Q 49.703125 2.984375 51.375 0 
L 42.1875 0 
Q 40.828125 2.734375 40.4375 6.390625 
z
M 39.703125 26.03125 
Q 34.90625 24.078125 25.34375 22.703125 
Q 19.921875 21.921875 17.671875 20.9375 
Q 15.4375 19.96875 14.203125 18.09375 
Q 12.984375 16.21875 12.984375 13.921875 
Q 12.984375 10.40625 15.640625 8.0625 
Q 18.3125 5.71875 23.4375 5.71875 
Q 28.515625 5.71875 32.46875 7.9375 
Q 36.421875 10.15625 38.28125 14.015625 
Q 39.703125 17 39.703125 22.796875 
z
" id="ArialMT-97"/>
       <path d="M 3.078125 15.484375 
L 11.765625 16.84375 
Q 12.5 11.625 15.84375 8.84375 
Q 19.1875 6.0625 25.203125 6.0625 
Q 31.25 6.0625 34.171875 8.515625 
Q 37.109375 10.984375 37.109375 14.3125 
Q 37.109375 17.28125 34.515625 19 
Q 32.71875 20.171875 25.53125 21.96875 
Q 15.875 24.421875 12.140625 26.203125 
Q 8.40625 27.984375 6.46875 31.125 
Q 4.546875 34.28125 4.546875 38.09375 
Q 4.546875 41.546875 6.125 44.5 
Q 7.71875 47.46875 10.453125 49.421875 
Q 12.5 50.921875 16.03125 51.96875 
Q 19.578125 53.03125 23.640625 53.03125 
Q 29.734375 53.03125 34.34375 51.265625 
Q 38.96875 49.515625 41.15625 46.5 
Q 43.359375 43.5 44.1875 38.484375 
L 35.59375 37.3125 
Q 35.015625 41.3125 32.203125 43.546875 
Q 29.390625 45.796875 24.265625 45.796875 
Q 18.21875 45.796875 15.625 43.796875 
Q 13.03125 41.796875 13.03125 39.109375 
Q 13.03125 37.40625 14.109375 36.03125 
Q 15.1875 34.625 17.484375 33.6875 
Q 18.796875 33.203125 25.25 31.453125 
Q 34.578125 28.953125 38.25 27.359375 
Q 41.9375 25.78125 44.03125 22.75 
Q 46.140625 19.734375 46.140625 15.234375 
Q 46.140625 10.84375 43.578125 6.953125 
Q 41.015625 3.078125 36.171875 0.953125 
Q 31.34375 -1.171875 25.25 -1.171875 
Q 15.140625 -1.171875 9.84375 3.03125 
Q 4.546875 7.234375 3.078125 15.484375 
z
" id="ArialMT-115"/>
       <path d="M 6.59375 -19.875 
L 6.59375 51.859375 
L 14.59375 51.859375 
L 14.59375 45.125 
Q 17.4375 49.078125 21 51.046875 
Q 24.5625 53.03125 29.640625 53.03125 
Q 36.28125 53.03125 41.359375 49.609375 
Q 46.4375 46.1875 49.015625 39.953125 
Q 51.609375 33.734375 51.609375 26.3125 
Q 51.609375 18.359375 48.75 11.984375 
Q 45.90625 5.609375 40.453125 2.21875 
Q 35.015625 -1.171875 29 -1.171875 
Q 24.609375 -1.171875 21.109375 0.6875 
Q 17.625 2.546875 15.375 5.375 
L 15.375 -19.875 
z
M 14.546875 25.640625 
Q 14.546875 15.625 18.59375 10.84375 
Q 22.65625 6.0625 28.421875 6.0625 
Q 34.28125 6.0625 38.453125 11.015625 
Q 42.625 15.96875 42.625 26.375 
Q 42.625 36.28125 38.546875 41.203125 
Q 34.46875 46.140625 28.8125 46.140625 
Q 23.1875 46.140625 18.859375 40.890625 
Q 14.546875 35.640625 14.546875 25.640625 
z
" id="ArialMT-112"/>
       <path d="M 6.390625 0 
L 6.390625 71.578125 
L 15.1875 71.578125 
L 15.1875 0 
z
" id="ArialMT-108"/>
       <path d="M 1.953125 0 
L 1.953125 7.125 
L 34.96875 45.015625 
Q 29.34375 44.734375 25.046875 44.734375 
L 3.90625 44.734375 
L 3.90625 51.859375 
L 46.296875 51.859375 
L 46.296875 46.046875 
L 18.21875 13.140625 
L 12.796875 7.125 
Q 18.703125 7.5625 23.875 7.5625 
L 47.859375 7.5625 
L 47.859375 0 
z
" id="ArialMT-122"/>
      </defs>
      <use xlink:href="#ArialMT-110"/>
      <use x="55.615234" xlink:href="#ArialMT-117"/>
      <use x="111.230469" xlink:href="#ArialMT-109"/>
      <use x="194.53125" xlink:href="#ArialMT-98"/>
      <use x="250.146484" xlink:href="#ArialMT-101"/>
      <use x="305.761719" xlink:href="#ArialMT-114"/>
      <use x="339.0625" xlink:href="#ArialMT-32"/>
      <use x="366.845703" xlink:href="#ArialMT-111"/>
      <use x="422.460938" xlink:href="#ArialMT-102"/>
      <use x="450.244141" xlink:href="#ArialMT-32"/>
      <use x="478.027344" xlink:href="#ArialMT-107"/>
      <use x="528.027344" xlink:href="#ArialMT-105"/>
      <use x="550.244141" xlink:href="#ArialMT-116"/>
      <use x="578.027344" xlink:href="#ArialMT-97"/>
      <use x="633.642578" xlink:href="#ArialMT-115"/>
      <use x="683.642578" xlink:href="#ArialMT-32"/>
      <use x="711.425781" xlink:href="#ArialMT-112"/>
      <use x="767.041016" xlink:href="#ArialMT-101"/>
      <use x="822.65625" xlink:href="#ArialMT-114"/>
      <use x="855.957031" xlink:href="#ArialMT-32"/>
      <use x="883.740234" xlink:href="#ArialMT-112"/>
      <use x="939.355469" xlink:href="#ArialMT-108"/>
      <use x="961.572266" xlink:href="#ArialMT-122"/>
     </g>
    </g>
   </g>
   <g id="matplotlib.axis_2">
    <g id="ytick_1">
     <g id="line2d_7">
      <path clip-path="url(#p998e6d8079)" d="M 44.028125 517.602407 
L 427.910299 517.602407 
" style="fill:none;stroke:#cccccc;stroke-linecap:round;stroke-width:0.8;"/>
     </g>
     <g id="text_8">
      <!-- 0 -->
      <g style="fill:#262626;" transform="translate(31.467188 521.181313)scale(0.1 -0.1)">
       <use xlink:href="#ArialMT-48"/>
      </g>
     </g>
    </g>
    <g id="ytick_2">
     <g id="line2d_8">
      <path clip-path="url(#p998e6d8079)" d="M 44.028125 439.388283 
L 427.910299 439.388283 
" style="fill:none;stroke:#cccccc;stroke-linecap:round;stroke-width:0.8;"/>
     </g>
     <g id="text_9">
      <!-- 50 -->
      <g style="fill:#262626;" transform="translate(25.90625 442.967189)scale(0.1 -0.1)">
       <use xlink:href="#ArialMT-53"/>
       <use x="55.615234" xlink:href="#ArialMT-48"/>
      </g>
     </g>
    </g>
    <g id="ytick_3">
     <g id="line2d_9">
      <path clip-path="url(#p998e6d8079)" d="M 44.028125 361.174158 
L 427.910299 361.174158 
" style="fill:none;stroke:#cccccc;stroke-linecap:round;stroke-width:0.8;"/>
     </g>
     <g id="text_10">
      <!-- 100 -->
      <g style="fill:#262626;" transform="translate(20.345313 364.753064)scale(0.1 -0.1)">
       <use xlink:href="#ArialMT-49"/>
       <use x="55.615234" xlink:href="#ArialMT-48"/>
       <use x="111.230469" xlink:href="#ArialMT-48"/>
      </g>
     </g>
    </g>
    <g id="ytick_4">
     <g id="line2d_10">
      <path clip-path="url(#p998e6d8079)" d="M 44.028125 282.960033 
L 427.910299 282.960033 
" style="fill:none;stroke:#cccccc;stroke-linecap:round;stroke-width:0.8;"/>
     </g>
     <g id="text_11">
      <!-- 150 -->
      <g style="fill:#262626;" transform="translate(20.345313 286.53894)scale(0.1 -0.1)">
       <use xlink:href="#ArialMT-49"/>
       <use x="55.615234" xlink:href="#ArialMT-53"/>
       <use x="111.230469" xlink:href="#ArialMT-48"/>
      </g>
     </g>
    </g>
    <g id="ytick_5">
     <g id="line2d_11">
      <path clip-path="url(#p998e6d8079)" d="M 44.028125 204.745909 
L 427.910299 204.745909 
" style="fill:none;stroke:#cccccc;stroke-linecap:round;stroke-width:0.8;"/>
     </g>
     <g id="text_12">
      <!-- 200 -->
      <g style="fill:#262626;" transform="translate(20.345313 208.324815)scale(0.1 -0.1)">
       <use xlink:href="#ArialMT-50"/>
       <use x="55.615234" xlink:href="#ArialMT-48"/>
       <use x="111.230469" xlink:href="#ArialMT-48"/>
      </g>
     </g>
    </g>
    <g id="text_13">
     <!-- median spots per plz -->
     <g style="fill:#262626;" transform="translate(14.357813 411.216895)rotate(-90)scale(0.1 -0.1)">
      <defs>
       <path d="M 40.234375 0 
L 40.234375 6.546875 
Q 35.296875 -1.171875 25.734375 -1.171875 
Q 19.53125 -1.171875 14.328125 2.25 
Q 9.125 5.671875 6.265625 11.796875 
Q 3.421875 17.921875 3.421875 25.875 
Q 3.421875 33.640625 6 39.96875 
Q 8.59375 46.296875 13.765625 49.65625 
Q 18.953125 53.03125 25.34375 53.03125 
Q 30.03125 53.03125 33.6875 51.046875 
Q 37.359375 49.078125 39.65625 45.90625 
L 39.65625 71.578125 
L 48.390625 71.578125 
L 48.390625 0 
z
M 12.453125 25.875 
Q 12.453125 15.921875 16.640625 10.984375 
Q 20.84375 6.0625 26.5625 6.0625 
Q 32.328125 6.0625 36.34375 10.765625 
Q 40.375 15.484375 40.375 25.140625 
Q 40.375 35.796875 36.265625 40.765625 
Q 32.171875 45.75 26.171875 45.75 
Q 20.3125 45.75 16.375 40.96875 
Q 12.453125 36.1875 12.453125 25.875 
z
" id="ArialMT-100"/>
      </defs>
      <use xlink:href="#ArialMT-109"/>
      <use x="83.300781" xlink:href="#ArialMT-101"/>
      <use x="138.916016" xlink:href="#ArialMT-100"/>
      <use x="194.53125" xlink:href="#ArialMT-105"/>
      <use x="216.748047" xlink:href="#ArialMT-97"/>
      <use x="272.363281" xlink:href="#ArialMT-110"/>
      <use x="327.978516" xlink:href="#ArialMT-32"/>
      <use x="355.761719" xlink:href="#ArialMT-115"/>
      <use x="405.761719" xlink:href="#ArialMT-112"/>
      <use x="461.376953" xlink:href="#ArialMT-111"/>
      <use x="516.992188" xlink:href="#ArialMT-116"/>
      <use x="544.775391" xlink:href="#ArialMT-115"/>
      <use x="594.775391" xlink:href="#ArialMT-32"/>
      <use x="622.558594" xlink:href="#ArialMT-112"/>
      <use x="678.173828" xlink:href="#ArialMT-101"/>
      <use x="733.789062" xlink:href="#ArialMT-114"/>
      <use x="767.089844" xlink:href="#ArialMT-32"/>
      <use x="794.873047" xlink:href="#ArialMT-112"/>
      <use x="850.488281" xlink:href="#ArialMT-108"/>
      <use x="872.705078" xlink:href="#ArialMT-122"/>
     </g>
    </g>
   </g>
   <g id="PathCollection_1">
    <defs>
     <path d="M 0 3 
C 0.795609 3 1.55874 2.683901 2.12132 2.12132 
C 2.683901 1.55874 3 0.795609 3 0 
C 3 -0.795609 2.683901 -1.55874 2.12132 -2.12132 
C 1.55874 -2.683901 0.795609 -3 0 -3 
C -0.795609 -3 -1.55874 -2.683901 -2.12132 -2.12132 
C -2.683901 -1.55874 -3 -0.795609 -3 0 
C -3 0.795609 -2.683901 1.55874 -2.12132 2.12132 
C -1.55874 2.683901 -0.795609 3 0 3 
z
" id="mb1f65025fc" style="stroke:#4c72b0;stroke-opacity:0.8;"/>
    </defs>
    <g clip-path="url(#p998e6d8079)">
     <use style="fill:#4c72b0;fill-opacity:0.8;stroke:#4c72b0;stroke-opacity:0.8;" x="169.319272" xlink:href="#mb1f65025fc" y="474.584639"/>
     <use style="fill:#4c72b0;fill-opacity:0.8;stroke:#4c72b0;stroke-opacity:0.8;" x="180.910566" xlink:href="#mb1f65025fc" y="474.584639"/>
     <use style="fill:#4c72b0;fill-opacity:0.8;stroke:#4c72b0;stroke-opacity:0.8;" x="192.50186" xlink:href="#mb1f65025fc" y="478.495345"/>
     <use style="fill:#4c72b0;fill-opacity:0.8;stroke:#4c72b0;stroke-opacity:0.8;" x="128.749743" xlink:href="#mb1f65025fc" y="431.56687"/>
     <use style="fill:#4c72b0;fill-opacity:0.8;stroke:#4c72b0;stroke-opacity:0.8;" x="140.341037" xlink:href="#mb1f65025fc" y="478.495345"/>
     <use style="fill:#4c72b0;fill-opacity:0.8;stroke:#4c72b0;stroke-opacity:0.8;" x="151.932331" xlink:href="#mb1f65025fc" y="475.36678"/>
     <use style="fill:#4c72b0;fill-opacity:0.8;stroke:#4c72b0;stroke-opacity:0.8;" x="140.341037" xlink:href="#mb1f65025fc" y="422.181175"/>
     <use style="fill:#4c72b0;fill-opacity:0.8;stroke:#4c72b0;stroke-opacity:0.8;" x="111.362802" xlink:href="#mb1f65025fc" y="395.588373"/>
     <use style="fill:#4c72b0;fill-opacity:0.8;stroke:#4c72b0;stroke-opacity:0.8;" x="204.093154" xlink:href="#mb1f65025fc" y="463.634661"/>
     <use style="fill:#4c72b0;fill-opacity:0.8;stroke:#4c72b0;stroke-opacity:0.8;" x="122.954096" xlink:href="#mb1f65025fc" y="483.970334"/>
     <use style="fill:#4c72b0;fill-opacity:0.8;stroke:#4c72b0;stroke-opacity:0.8;" x="157.727978" xlink:href="#mb1f65025fc" y="480.059627"/>
     <use style="fill:#4c72b0;fill-opacity:0.8;stroke:#4c72b0;stroke-opacity:0.8;" x="256.253976" xlink:href="#mb1f65025fc" y="478.495345"/>
     <use style="fill:#4c72b0;fill-opacity:0.8;stroke:#4c72b0;stroke-opacity:0.8;" x="204.093154" xlink:href="#mb1f65025fc" y="478.495345"/>
     <use style="fill:#4c72b0;fill-opacity:0.8;stroke:#4c72b0;stroke-opacity:0.8;" x="134.54539" xlink:href="#mb1f65025fc" y="474.584639"/>
     <use style="fill:#4c72b0;fill-opacity:0.8;stroke:#4c72b0;stroke-opacity:0.8;" x="122.954096" xlink:href="#mb1f65025fc" y="474.584639"/>
     <use style="fill:#4c72b0;fill-opacity:0.8;stroke:#4c72b0;stroke-opacity:0.8;" x="117.158449" xlink:href="#mb1f65025fc" y="437.824"/>
     <use style="fill:#4c72b0;fill-opacity:0.8;stroke:#4c72b0;stroke-opacity:0.8;" x="134.54539" xlink:href="#mb1f65025fc" y="368.99557"/>
     <use style="fill:#4c72b0;fill-opacity:0.8;stroke:#4c72b0;stroke-opacity:0.8;" x="163.523625" xlink:href="#mb1f65025fc" y="462.85252"/>
     <use style="fill:#4c72b0;fill-opacity:0.8;stroke:#4c72b0;stroke-opacity:0.8;" x="134.54539" xlink:href="#mb1f65025fc" y="397.934796"/>
     <use style="fill:#4c72b0;fill-opacity:0.8;stroke:#4c72b0;stroke-opacity:0.8;" x="117.158449" xlink:href="#mb1f65025fc" y="462.85252"/>
     <use style="fill:#4c72b0;fill-opacity:0.8;stroke:#4c72b0;stroke-opacity:0.8;" x="163.523625" xlink:href="#mb1f65025fc" y="434.695435"/>
     <use style="fill:#4c72b0;fill-opacity:0.8;stroke:#4c72b0;stroke-opacity:0.8;" x="198.297507" xlink:href="#mb1f65025fc" y="486.316757"/>
     <use style="fill:#4c72b0;fill-opacity:0.8;stroke:#4c72b0;stroke-opacity:0.8;" x="233.071388" xlink:href="#mb1f65025fc" y="478.495345"/>
     <use style="fill:#4c72b0;fill-opacity:0.8;stroke:#4c72b0;stroke-opacity:0.8;" x="163.523625" xlink:href="#mb1f65025fc" y="439.388283"/>
     <use style="fill:#4c72b0;fill-opacity:0.8;stroke:#4c72b0;stroke-opacity:0.8;" x="105.567155" xlink:href="#mb1f65025fc" y="236.031559"/>
     <use style="fill:#4c72b0;fill-opacity:0.8;stroke:#4c72b0;stroke-opacity:0.8;" x="157.727978" xlink:href="#mb1f65025fc" y="439.388283"/>
     <use style="fill:#4c72b0;fill-opacity:0.8;stroke:#4c72b0;stroke-opacity:0.8;" x="134.54539" xlink:href="#mb1f65025fc" y="447.209695"/>
     <use style="fill:#4c72b0;fill-opacity:0.8;stroke:#4c72b0;stroke-opacity:0.8;" x="233.071388" xlink:href="#mb1f65025fc" y="455.031107"/>
     <use style="fill:#4c72b0;fill-opacity:0.8;stroke:#4c72b0;stroke-opacity:0.8;" x="267.84527" xlink:href="#mb1f65025fc" y="478.495345"/>
     <use style="fill:#4c72b0;fill-opacity:0.8;stroke:#4c72b0;stroke-opacity:0.8;" x="331.597387" xlink:href="#mb1f65025fc" y="470.673932"/>
     <use style="fill:#4c72b0;fill-opacity:0.8;stroke:#4c72b0;stroke-opacity:0.8;" x="198.297507" xlink:href="#mb1f65025fc" y="470.673932"/>
     <use style="fill:#4c72b0;fill-opacity:0.8;stroke:#4c72b0;stroke-opacity:0.8;" x="105.567155" xlink:href="#mb1f65025fc" y="467.545367"/>
     <use style="fill:#4c72b0;fill-opacity:0.8;stroke:#4c72b0;stroke-opacity:0.8;" x="215.684448" xlink:href="#mb1f65025fc" y="472.238215"/>
     <use style="fill:#4c72b0;fill-opacity:0.8;stroke:#4c72b0;stroke-opacity:0.8;" x="192.50186" xlink:href="#mb1f65025fc" y="464.416802"/>
     <use style="fill:#4c72b0;fill-opacity:0.8;stroke:#4c72b0;stroke-opacity:0.8;" x="244.662682" xlink:href="#mb1f65025fc" y="481.62391"/>
     <use style="fill:#4c72b0;fill-opacity:0.8;stroke:#4c72b0;stroke-opacity:0.8;" x="262.049623" xlink:href="#mb1f65025fc" y="478.495345"/>
     <use style="fill:#4c72b0;fill-opacity:0.8;stroke:#4c72b0;stroke-opacity:0.8;" x="204.093154" xlink:href="#mb1f65025fc" y="388.549102"/>
     <use style="fill:#4c72b0;fill-opacity:0.8;stroke:#4c72b0;stroke-opacity:0.8;" x="343.188681" xlink:href="#mb1f65025fc" y="476.931062"/>
     <use style="fill:#4c72b0;fill-opacity:0.8;stroke:#4c72b0;stroke-opacity:0.8;" x="285.232211" xlink:href="#mb1f65025fc" y="467.545367"/>
     <use style="fill:#4c72b0;fill-opacity:0.8;stroke:#4c72b0;stroke-opacity:0.8;" x="180.910566" xlink:href="#mb1f65025fc" y="384.638395"/>
     <use style="fill:#4c72b0;fill-opacity:0.8;stroke:#4c72b0;stroke-opacity:0.8;" x="227.275742" xlink:href="#mb1f65025fc" y="455.813249"/>
     <use style="fill:#4c72b0;fill-opacity:0.8;stroke:#4c72b0;stroke-opacity:0.8;" x="250.458329" xlink:href="#mb1f65025fc" y="434.695435"/>
     <use style="fill:#4c72b0;fill-opacity:0.8;stroke:#4c72b0;stroke-opacity:0.8;" x="146.136684" xlink:href="#mb1f65025fc" y="368.99557"/>
     <use style="fill:#4c72b0;fill-opacity:0.8;stroke:#4c72b0;stroke-opacity:0.8;" x="192.50186" xlink:href="#mb1f65025fc" y="372.906277"/>
     <use style="fill:#4c72b0;fill-opacity:0.8;stroke:#4c72b0;stroke-opacity:0.8;" x="151.932331" xlink:href="#mb1f65025fc" y="358.045593"/>
     <use style="fill:#4c72b0;fill-opacity:0.8;stroke:#4c72b0;stroke-opacity:0.8;" x="175.114919" xlink:href="#mb1f65025fc" y="329.888508"/>
     <use style="fill:#4c72b0;fill-opacity:0.8;stroke:#4c72b0;stroke-opacity:0.8;" x="163.523625" xlink:href="#mb1f65025fc" y="337.709921"/>
     <use style="fill:#4c72b0;fill-opacity:0.8;stroke:#4c72b0;stroke-opacity:0.8;" x="175.114919" xlink:href="#mb1f65025fc" y="361.174158"/>
     <use style="fill:#4c72b0;fill-opacity:0.8;stroke:#4c72b0;stroke-opacity:0.8;" x="169.319272" xlink:href="#mb1f65025fc" y="337.709921"/>
     <use style="fill:#4c72b0;fill-opacity:0.8;stroke:#4c72b0;stroke-opacity:0.8;" x="151.932331" xlink:href="#mb1f65025fc" y="351.788463"/>
     <use style="fill:#4c72b0;fill-opacity:0.8;stroke:#4c72b0;stroke-opacity:0.8;" x="146.136684" xlink:href="#mb1f65025fc" y="376.816983"/>
     <use style="fill:#4c72b0;fill-opacity:0.8;stroke:#4c72b0;stroke-opacity:0.8;" x="157.727978" xlink:href="#mb1f65025fc" y="275.138621"/>
     <use style="fill:#4c72b0;fill-opacity:0.8;stroke:#4c72b0;stroke-opacity:0.8;" x="146.136684" xlink:href="#mb1f65025fc" y="438.606141"/>
     <use style="fill:#4c72b0;fill-opacity:0.8;stroke:#4c72b0;stroke-opacity:0.8;" x="209.888801" xlink:href="#mb1f65025fc" y="423.745458"/>
     <use style="fill:#4c72b0;fill-opacity:0.8;stroke:#4c72b0;stroke-opacity:0.8;" x="221.480095" xlink:href="#mb1f65025fc" y="259.495796"/>
     <use style="fill:#4c72b0;fill-opacity:0.8;stroke:#4c72b0;stroke-opacity:0.8;" x="140.341037" xlink:href="#mb1f65025fc" y="306.424271"/>
     <use style="fill:#4c72b0;fill-opacity:0.8;stroke:#4c72b0;stroke-opacity:0.8;" x="175.114919" xlink:href="#mb1f65025fc" y="351.788463"/>
     <use style="fill:#4c72b0;fill-opacity:0.8;stroke:#4c72b0;stroke-opacity:0.8;" x="157.727978" xlink:href="#mb1f65025fc" y="396.370514"/>
     <use style="fill:#4c72b0;fill-opacity:0.8;stroke:#4c72b0;stroke-opacity:0.8;" x="198.297507" xlink:href="#mb1f65025fc" y="431.56687"/>
     <use style="fill:#4c72b0;fill-opacity:0.8;stroke:#4c72b0;stroke-opacity:0.8;" x="151.932331" xlink:href="#mb1f65025fc" y="423.745458"/>
     <use style="fill:#4c72b0;fill-opacity:0.8;stroke:#4c72b0;stroke-opacity:0.8;" x="140.341037" xlink:href="#mb1f65025fc" y="237.595841"/>
     <use style="fill:#4c72b0;fill-opacity:0.8;stroke:#4c72b0;stroke-opacity:0.8;" x="169.319272" xlink:href="#mb1f65025fc" y="357.263452"/>
     <use style="fill:#4c72b0;fill-opacity:0.8;stroke:#4c72b0;stroke-opacity:0.8;" x="238.867035" xlink:href="#mb1f65025fc" y="447.991836"/>
     <use style="fill:#4c72b0;fill-opacity:0.8;stroke:#4c72b0;stroke-opacity:0.8;" x="221.480095" xlink:href="#mb1f65025fc" y="442.516848"/>
     <use style="fill:#4c72b0;fill-opacity:0.8;stroke:#4c72b0;stroke-opacity:0.8;" x="163.523625" xlink:href="#mb1f65025fc" y="375.2527"/>
     <use style="fill:#4c72b0;fill-opacity:0.8;stroke:#4c72b0;stroke-opacity:0.8;" x="134.54539" xlink:href="#mb1f65025fc" y="419.834751"/>
     <use style="fill:#4c72b0;fill-opacity:0.8;stroke:#4c72b0;stroke-opacity:0.8;" x="157.727978" xlink:href="#mb1f65025fc" y="379.945548"/>
     <use style="fill:#4c72b0;fill-opacity:0.8;stroke:#4c72b0;stroke-opacity:0.8;" x="122.954096" xlink:href="#mb1f65025fc" y="370.559853"/>
     <use style="fill:#4c72b0;fill-opacity:0.8;stroke:#4c72b0;stroke-opacity:0.8;" x="186.706213" xlink:href="#mb1f65025fc" y="470.673932"/>
     <use style="fill:#4c72b0;fill-opacity:0.8;stroke:#4c72b0;stroke-opacity:0.8;" x="146.136684" xlink:href="#mb1f65025fc" y="473.020356"/>
     <use style="fill:#4c72b0;fill-opacity:0.8;stroke:#4c72b0;stroke-opacity:0.8;" x="186.706213" xlink:href="#mb1f65025fc" y="478.495345"/>
     <use style="fill:#4c72b0;fill-opacity:0.8;stroke:#4c72b0;stroke-opacity:0.8;" x="204.093154" xlink:href="#mb1f65025fc" y="447.209695"/>
     <use style="fill:#4c72b0;fill-opacity:0.8;stroke:#4c72b0;stroke-opacity:0.8;" x="209.888801" xlink:href="#mb1f65025fc" y="470.673932"/>
     <use style="fill:#4c72b0;fill-opacity:0.8;stroke:#4c72b0;stroke-opacity:0.8;" x="146.136684" xlink:href="#mb1f65025fc" y="349.442039"/>
     <use style="fill:#4c72b0;fill-opacity:0.8;stroke:#4c72b0;stroke-opacity:0.8;" x="105.567155" xlink:href="#mb1f65025fc" y="456.59539"/>
     <use style="fill:#4c72b0;fill-opacity:0.8;stroke:#4c72b0;stroke-opacity:0.8;" x="320.006093" xlink:href="#mb1f65025fc" y="458.941814"/>
     <use style="fill:#4c72b0;fill-opacity:0.8;stroke:#4c72b0;stroke-opacity:0.8;" x="221.480095" xlink:href="#mb1f65025fc" y="478.495345"/>
     <use style="fill:#4c72b0;fill-opacity:0.8;stroke:#4c72b0;stroke-opacity:0.8;" x="175.114919" xlink:href="#mb1f65025fc" y="423.745458"/>
     <use style="fill:#4c72b0;fill-opacity:0.8;stroke:#4c72b0;stroke-opacity:0.8;" x="267.84527" xlink:href="#mb1f65025fc" y="478.495345"/>
     <use style="fill:#4c72b0;fill-opacity:0.8;stroke:#4c72b0;stroke-opacity:0.8;" x="221.480095" xlink:href="#mb1f65025fc" y="408.102633"/>
     <use style="fill:#4c72b0;fill-opacity:0.8;stroke:#4c72b0;stroke-opacity:0.8;" x="250.458329" xlink:href="#mb1f65025fc" y="465.981085"/>
     <use style="fill:#4c72b0;fill-opacity:0.8;stroke:#4c72b0;stroke-opacity:0.8;" x="215.684448" xlink:href="#mb1f65025fc" y="452.684684"/>
     <use style="fill:#4c72b0;fill-opacity:0.8;stroke:#4c72b0;stroke-opacity:0.8;" x="105.567155" xlink:href="#mb1f65025fc" y="439.388283"/>
     <use style="fill:#4c72b0;fill-opacity:0.8;stroke:#4c72b0;stroke-opacity:0.8;" x="180.910566" xlink:href="#mb1f65025fc" y="444.08113"/>
     <use style="fill:#4c72b0;fill-opacity:0.8;stroke:#4c72b0;stroke-opacity:0.8;" x="204.093154" xlink:href="#mb1f65025fc" y="464.416802"/>
     <use style="fill:#4c72b0;fill-opacity:0.8;stroke:#4c72b0;stroke-opacity:0.8;" x="192.50186" xlink:href="#mb1f65025fc" y="480.841769"/>
     <use style="fill:#4c72b0;fill-opacity:0.8;stroke:#4c72b0;stroke-opacity:0.8;" x="238.867035" xlink:href="#mb1f65025fc" y="478.495345"/>
     <use style="fill:#4c72b0;fill-opacity:0.8;stroke:#4c72b0;stroke-opacity:0.8;" x="314.210446" xlink:href="#mb1f65025fc" y="470.673932"/>
     <use style="fill:#4c72b0;fill-opacity:0.8;stroke:#4c72b0;stroke-opacity:0.8;" x="192.50186" xlink:href="#mb1f65025fc" y="465.981085"/>
     <use style="fill:#4c72b0;fill-opacity:0.8;stroke:#4c72b0;stroke-opacity:0.8;" x="175.114919" xlink:href="#mb1f65025fc" y="473.802497"/>
     <use style="fill:#4c72b0;fill-opacity:0.8;stroke:#4c72b0;stroke-opacity:0.8;" x="134.54539" xlink:href="#mb1f65025fc" y="333.799214"/>
     <use style="fill:#4c72b0;fill-opacity:0.8;stroke:#4c72b0;stroke-opacity:0.8;" x="134.54539" xlink:href="#mb1f65025fc" y="451.120401"/>
     <use style="fill:#4c72b0;fill-opacity:0.8;stroke:#4c72b0;stroke-opacity:0.8;" x="169.319272" xlink:href="#mb1f65025fc" y="431.56687"/>
     <use style="fill:#4c72b0;fill-opacity:0.8;stroke:#4c72b0;stroke-opacity:0.8;" x="169.319272" xlink:href="#mb1f65025fc" y="356.48131"/>
     <use style="fill:#4c72b0;fill-opacity:0.8;stroke:#4c72b0;stroke-opacity:0.8;" x="146.136684" xlink:href="#mb1f65025fc" y="372.124135"/>
     <use style="fill:#4c72b0;fill-opacity:0.8;stroke:#4c72b0;stroke-opacity:0.8;" x="169.319272" xlink:href="#mb1f65025fc" y="362.73844"/>
     <use style="fill:#4c72b0;fill-opacity:0.8;stroke:#4c72b0;stroke-opacity:0.8;" x="180.910566" xlink:href="#mb1f65025fc" y="357.263452"/>
     <use style="fill:#4c72b0;fill-opacity:0.8;stroke:#4c72b0;stroke-opacity:0.8;" x="134.54539" xlink:href="#mb1f65025fc" y="459.723955"/>
     <use style="fill:#4c72b0;fill-opacity:0.8;stroke:#4c72b0;stroke-opacity:0.8;" x="209.888801" xlink:href="#mb1f65025fc" y="439.388283"/>
     <use style="fill:#4c72b0;fill-opacity:0.8;stroke:#4c72b0;stroke-opacity:0.8;" x="117.158449" xlink:href="#mb1f65025fc" y="478.495345"/>
     <use style="fill:#4c72b0;fill-opacity:0.8;stroke:#4c72b0;stroke-opacity:0.8;" x="122.954096" xlink:href="#mb1f65025fc" y="408.102633"/>
     <use style="fill:#4c72b0;fill-opacity:0.8;stroke:#4c72b0;stroke-opacity:0.8;" x="128.749743" xlink:href="#mb1f65025fc" y="478.495345"/>
     <use style="fill:#4c72b0;fill-opacity:0.8;stroke:#4c72b0;stroke-opacity:0.8;" x="273.640917" xlink:href="#mb1f65025fc" y="470.673932"/>
     <use style="fill:#4c72b0;fill-opacity:0.8;stroke:#4c72b0;stroke-opacity:0.8;" x="227.275742" xlink:href="#mb1f65025fc" y="470.673932"/>
     <use style="fill:#4c72b0;fill-opacity:0.8;stroke:#4c72b0;stroke-opacity:0.8;" x="163.523625" xlink:href="#mb1f65025fc" y="317.374248"/>
     <use style="fill:#4c72b0;fill-opacity:0.8;stroke:#4c72b0;stroke-opacity:0.8;" x="163.523625" xlink:href="#mb1f65025fc" y="459.723955"/>
     <use style="fill:#4c72b0;fill-opacity:0.8;stroke:#4c72b0;stroke-opacity:0.8;" x="366.371268" xlink:href="#mb1f65025fc" y="477.713204"/>
     <use style="fill:#4c72b0;fill-opacity:0.8;stroke:#4c72b0;stroke-opacity:0.8;" x="262.049623" xlink:href="#mb1f65025fc" y="473.802497"/>
     <use style="fill:#4c72b0;fill-opacity:0.8;stroke:#4c72b0;stroke-opacity:0.8;" x="273.640917" xlink:href="#mb1f65025fc" y="430.002588"/>
     <use style="fill:#4c72b0;fill-opacity:0.8;stroke:#4c72b0;stroke-opacity:0.8;" x="175.114919" xlink:href="#mb1f65025fc" y="395.588373"/>
     <use style="fill:#4c72b0;fill-opacity:0.8;stroke:#4c72b0;stroke-opacity:0.8;" x="111.362802" xlink:href="#mb1f65025fc" y="388.549102"/>
     <use style="fill:#4c72b0;fill-opacity:0.8;stroke:#4c72b0;stroke-opacity:0.8;" x="273.640917" xlink:href="#mb1f65025fc" y="384.638395"/>
     <use style="fill:#4c72b0;fill-opacity:0.8;stroke:#4c72b0;stroke-opacity:0.8;" x="192.50186" xlink:href="#mb1f65025fc" y="383.856254"/>
     <use style="fill:#4c72b0;fill-opacity:0.8;stroke:#4c72b0;stroke-opacity:0.8;" x="111.362802" xlink:href="#mb1f65025fc" y="357.263452"/>
     <use style="fill:#4c72b0;fill-opacity:0.8;stroke:#4c72b0;stroke-opacity:0.8;" x="320.006093" xlink:href="#mb1f65025fc" y="431.56687"/>
     <use style="fill:#4c72b0;fill-opacity:0.8;stroke:#4c72b0;stroke-opacity:0.8;" x="198.297507" xlink:href="#mb1f65025fc" y="423.745458"/>
     <use style="fill:#4c72b0;fill-opacity:0.8;stroke:#4c72b0;stroke-opacity:0.8;" x="117.158449" xlink:href="#mb1f65025fc" y="445.645412"/>
     <use style="fill:#4c72b0;fill-opacity:0.8;stroke:#4c72b0;stroke-opacity:0.8;" x="360.575621" xlink:href="#mb1f65025fc" y="465.981085"/>
     <use style="fill:#4c72b0;fill-opacity:0.8;stroke:#4c72b0;stroke-opacity:0.8;" x="204.093154" xlink:href="#mb1f65025fc" y="462.070379"/>
     <use style="fill:#4c72b0;fill-opacity:0.8;stroke:#4c72b0;stroke-opacity:0.8;" x="209.888801" xlink:href="#mb1f65025fc" y="415.924045"/>
     <use style="fill:#4c72b0;fill-opacity:0.8;stroke:#4c72b0;stroke-opacity:0.8;" x="117.158449" xlink:href="#mb1f65025fc" y="423.745458"/>
     <use style="fill:#4c72b0;fill-opacity:0.8;stroke:#4c72b0;stroke-opacity:0.8;" x="186.706213" xlink:href="#mb1f65025fc" y="439.388283"/>
     <use style="fill:#4c72b0;fill-opacity:0.8;stroke:#4c72b0;stroke-opacity:0.8;" x="163.523625" xlink:href="#mb1f65025fc" y="342.402768"/>
     <use style="fill:#4c72b0;fill-opacity:0.8;stroke:#4c72b0;stroke-opacity:0.8;" x="175.114919" xlink:href="#mb1f65025fc" y="383.074113"/>
     <use style="fill:#4c72b0;fill-opacity:0.8;stroke:#4c72b0;stroke-opacity:0.8;" x="151.932331" xlink:href="#mb1f65025fc" y="423.745458"/>
     <use style="fill:#4c72b0;fill-opacity:0.8;stroke:#4c72b0;stroke-opacity:0.8;" x="151.932331" xlink:href="#mb1f65025fc" y="392.459808"/>
     <use style="fill:#4c72b0;fill-opacity:0.8;stroke:#4c72b0;stroke-opacity:0.8;" x="163.523625" xlink:href="#mb1f65025fc" y="462.85252"/>
     <use style="fill:#4c72b0;fill-opacity:0.8;stroke:#4c72b0;stroke-opacity:0.8;" x="180.910566" xlink:href="#mb1f65025fc" y="427.656164"/>
     <use style="fill:#4c72b0;fill-opacity:0.8;stroke:#4c72b0;stroke-opacity:0.8;" x="186.706213" xlink:href="#mb1f65025fc" y="431.56687"/>
     <use style="fill:#4c72b0;fill-opacity:0.8;stroke:#4c72b0;stroke-opacity:0.8;" x="163.523625" xlink:href="#mb1f65025fc" y="455.031107"/>
     <use style="fill:#4c72b0;fill-opacity:0.8;stroke:#4c72b0;stroke-opacity:0.8;" x="117.158449" xlink:href="#mb1f65025fc" y="456.59539"/>
     <use style="fill:#4c72b0;fill-opacity:0.8;stroke:#4c72b0;stroke-opacity:0.8;" x="175.114919" xlink:href="#mb1f65025fc" y="392.459808"/>
     <use style="fill:#4c72b0;fill-opacity:0.8;stroke:#4c72b0;stroke-opacity:0.8;" x="163.523625" xlink:href="#mb1f65025fc" y="461.288237"/>
     <use style="fill:#4c72b0;fill-opacity:0.8;stroke:#4c72b0;stroke-opacity:0.8;" x="105.567155" xlink:href="#mb1f65025fc" y="494.13817"/>
     <use style="fill:#4c72b0;fill-opacity:0.8;stroke:#4c72b0;stroke-opacity:0.8;" x="163.523625" xlink:href="#mb1f65025fc" y="430.002588"/>
     <use style="fill:#4c72b0;fill-opacity:0.8;stroke:#4c72b0;stroke-opacity:0.8;" x="151.932331" xlink:href="#mb1f65025fc" y="423.745458"/>
     <use style="fill:#4c72b0;fill-opacity:0.8;stroke:#4c72b0;stroke-opacity:0.8;" x="186.706213" xlink:href="#mb1f65025fc" y="381.50983"/>
     <use style="fill:#4c72b0;fill-opacity:0.8;stroke:#4c72b0;stroke-opacity:0.8;" x="180.910566" xlink:href="#mb1f65025fc" y="419.834751"/>
     <use style="fill:#4c72b0;fill-opacity:0.8;stroke:#4c72b0;stroke-opacity:0.8;" x="163.523625" xlink:href="#mb1f65025fc" y="415.924045"/>
     <use style="fill:#4c72b0;fill-opacity:0.8;stroke:#4c72b0;stroke-opacity:0.8;" x="192.50186" xlink:href="#mb1f65025fc" y="367.431288"/>
     <use style="fill:#4c72b0;fill-opacity:0.8;stroke:#4c72b0;stroke-opacity:0.8;" x="151.932331" xlink:href="#mb1f65025fc" y="345.531333"/>
     <use style="fill:#4c72b0;fill-opacity:0.8;stroke:#4c72b0;stroke-opacity:0.8;" x="198.297507" xlink:href="#mb1f65025fc" y="465.981085"/>
     <use style="fill:#4c72b0;fill-opacity:0.8;stroke:#4c72b0;stroke-opacity:0.8;" x="140.341037" xlink:href="#mb1f65025fc" y="400.28122"/>
     <use style="fill:#4c72b0;fill-opacity:0.8;stroke:#4c72b0;stroke-opacity:0.8;" x="151.932331" xlink:href="#mb1f65025fc" y="376.816983"/>
     <use style="fill:#4c72b0;fill-opacity:0.8;stroke:#4c72b0;stroke-opacity:0.8;" x="151.932331" xlink:href="#mb1f65025fc" y="384.638395"/>
     <use style="fill:#4c72b0;fill-opacity:0.8;stroke:#4c72b0;stroke-opacity:0.8;" x="186.706213" xlink:href="#mb1f65025fc" y="430.002588"/>
     <use style="fill:#4c72b0;fill-opacity:0.8;stroke:#4c72b0;stroke-opacity:0.8;" x="117.158449" xlink:href="#mb1f65025fc" y="492.573887"/>
     <use style="fill:#4c72b0;fill-opacity:0.8;stroke:#4c72b0;stroke-opacity:0.8;" x="111.362802" xlink:href="#mb1f65025fc" y="471.456074"/>
     <use style="fill:#4c72b0;fill-opacity:0.8;stroke:#4c72b0;stroke-opacity:0.8;" x="169.319272" xlink:href="#mb1f65025fc" y="471.456074"/>
     <use style="fill:#4c72b0;fill-opacity:0.8;stroke:#4c72b0;stroke-opacity:0.8;" x="151.932331" xlink:href="#mb1f65025fc" y="447.209695"/>
     <use style="fill:#4c72b0;fill-opacity:0.8;stroke:#4c72b0;stroke-opacity:0.8;" x="163.523625" xlink:href="#mb1f65025fc" y="473.802497"/>
     <use style="fill:#4c72b0;fill-opacity:0.8;stroke:#4c72b0;stroke-opacity:0.8;" x="163.523625" xlink:href="#mb1f65025fc" y="439.388283"/>
     <use style="fill:#4c72b0;fill-opacity:0.8;stroke:#4c72b0;stroke-opacity:0.8;" x="209.888801" xlink:href="#mb1f65025fc" y="455.031107"/>
     <use style="fill:#4c72b0;fill-opacity:0.8;stroke:#4c72b0;stroke-opacity:0.8;" x="169.319272" xlink:href="#mb1f65025fc" y="443.298989"/>
     <use style="fill:#4c72b0;fill-opacity:0.8;stroke:#4c72b0;stroke-opacity:0.8;" x="175.114919" xlink:href="#mb1f65025fc" y="373.688418"/>
     <use style="fill:#4c72b0;fill-opacity:0.8;stroke:#4c72b0;stroke-opacity:0.8;" x="157.727978" xlink:href="#mb1f65025fc" y="394.806231"/>
     <use style="fill:#4c72b0;fill-opacity:0.8;stroke:#4c72b0;stroke-opacity:0.8;" x="169.319272" xlink:href="#mb1f65025fc" y="449.556119"/>
     <use style="fill:#4c72b0;fill-opacity:0.8;stroke:#4c72b0;stroke-opacity:0.8;" x="180.910566" xlink:href="#mb1f65025fc" y="419.834751"/>
     <use style="fill:#4c72b0;fill-opacity:0.8;stroke:#4c72b0;stroke-opacity:0.8;" x="146.136684" xlink:href="#mb1f65025fc" y="470.673932"/>
     <use style="fill:#4c72b0;fill-opacity:0.8;stroke:#4c72b0;stroke-opacity:0.8;" x="157.727978" xlink:href="#mb1f65025fc" y="435.477576"/>
     <use style="fill:#4c72b0;fill-opacity:0.8;stroke:#4c72b0;stroke-opacity:0.8;" x="169.319272" xlink:href="#mb1f65025fc" y="365.084864"/>
     <use style="fill:#4c72b0;fill-opacity:0.8;stroke:#4c72b0;stroke-opacity:0.8;" x="134.54539" xlink:href="#mb1f65025fc" y="426.091881"/>
     <use style="fill:#4c72b0;fill-opacity:0.8;stroke:#4c72b0;stroke-opacity:0.8;" x="169.319272" xlink:href="#mb1f65025fc" y="392.459808"/>
     <use style="fill:#4c72b0;fill-opacity:0.8;stroke:#4c72b0;stroke-opacity:0.8;" x="151.932331" xlink:href="#mb1f65025fc" y="470.673932"/>
     <use style="fill:#4c72b0;fill-opacity:0.8;stroke:#4c72b0;stroke-opacity:0.8;" x="175.114919" xlink:href="#mb1f65025fc" y="420.616893"/>
     <use style="fill:#4c72b0;fill-opacity:0.8;stroke:#4c72b0;stroke-opacity:0.8;" x="105.567155" xlink:href="#mb1f65025fc" y="473.802497"/>
     <use style="fill:#4c72b0;fill-opacity:0.8;stroke:#4c72b0;stroke-opacity:0.8;" x="151.932331" xlink:href="#mb1f65025fc" y="461.288237"/>
     <use style="fill:#4c72b0;fill-opacity:0.8;stroke:#4c72b0;stroke-opacity:0.8;" x="111.362802" xlink:href="#mb1f65025fc" y="439.388283"/>
     <use style="fill:#4c72b0;fill-opacity:0.8;stroke:#4c72b0;stroke-opacity:0.8;" x="169.319272" xlink:href="#mb1f65025fc" y="444.863271"/>
     <use style="fill:#4c72b0;fill-opacity:0.8;stroke:#4c72b0;stroke-opacity:0.8;" x="134.54539" xlink:href="#mb1f65025fc" y="469.891791"/>
     <use style="fill:#4c72b0;fill-opacity:0.8;stroke:#4c72b0;stroke-opacity:0.8;" x="105.567155" xlink:href="#mb1f65025fc" y="376.816983"/>
     <use style="fill:#4c72b0;fill-opacity:0.8;stroke:#4c72b0;stroke-opacity:0.8;" x="105.567155" xlink:href="#mb1f65025fc" y="259.495796"/>
     <use style="fill:#4c72b0;fill-opacity:0.8;stroke:#4c72b0;stroke-opacity:0.8;" x="163.523625" xlink:href="#mb1f65025fc" y="461.288237"/>
     <use style="fill:#4c72b0;fill-opacity:0.8;stroke:#4c72b0;stroke-opacity:0.8;" x="122.954096" xlink:href="#mb1f65025fc" y="412.013339"/>
     <use style="fill:#4c72b0;fill-opacity:0.8;stroke:#4c72b0;stroke-opacity:0.8;" x="186.706213" xlink:href="#mb1f65025fc" y="461.288237"/>
     <use style="fill:#4c72b0;fill-opacity:0.8;stroke:#4c72b0;stroke-opacity:0.8;" x="215.684448" xlink:href="#mb1f65025fc" y="474.584639"/>
     <use style="fill:#4c72b0;fill-opacity:0.8;stroke:#4c72b0;stroke-opacity:0.8;" x="111.362802" xlink:href="#mb1f65025fc" y="458.941814"/>
     <use style="fill:#4c72b0;fill-opacity:0.8;stroke:#4c72b0;stroke-opacity:0.8;" x="151.932331" xlink:href="#mb1f65025fc" y="392.459808"/>
     <use style="fill:#4c72b0;fill-opacity:0.8;stroke:#4c72b0;stroke-opacity:0.8;" x="163.523625" xlink:href="#mb1f65025fc" y="447.209695"/>
     <use style="fill:#4c72b0;fill-opacity:0.8;stroke:#4c72b0;stroke-opacity:0.8;" x="238.867035" xlink:href="#mb1f65025fc" y="475.36678"/>
     <use style="fill:#4c72b0;fill-opacity:0.8;stroke:#4c72b0;stroke-opacity:0.8;" x="204.093154" xlink:href="#mb1f65025fc" y="462.85252"/>
     <use style="fill:#4c72b0;fill-opacity:0.8;stroke:#4c72b0;stroke-opacity:0.8;" x="163.523625" xlink:href="#mb1f65025fc" y="423.745458"/>
     <use style="fill:#4c72b0;fill-opacity:0.8;stroke:#4c72b0;stroke-opacity:0.8;" x="128.749743" xlink:href="#mb1f65025fc" y="267.317208"/>
     <use style="fill:#4c72b0;fill-opacity:0.8;stroke:#4c72b0;stroke-opacity:0.8;" x="146.136684" xlink:href="#mb1f65025fc" y="417.488328"/>
     <use style="fill:#4c72b0;fill-opacity:0.8;stroke:#4c72b0;stroke-opacity:0.8;" x="233.071388" xlink:href="#mb1f65025fc" y="473.802497"/>
     <use style="fill:#4c72b0;fill-opacity:0.8;stroke:#4c72b0;stroke-opacity:0.8;" x="198.297507" xlink:href="#mb1f65025fc" y="483.188192"/>
     <use style="fill:#4c72b0;fill-opacity:0.8;stroke:#4c72b0;stroke-opacity:0.8;" x="105.567155" xlink:href="#mb1f65025fc" y="306.424271"/>
     <use style="fill:#4c72b0;fill-opacity:0.8;stroke:#4c72b0;stroke-opacity:0.8;" x="140.341037" xlink:href="#mb1f65025fc" y="411.231198"/>
     <use style="fill:#4c72b0;fill-opacity:0.8;stroke:#4c72b0;stroke-opacity:0.8;" x="163.523625" xlink:href="#mb1f65025fc" y="450.33826"/>
     <use style="fill:#4c72b0;fill-opacity:0.8;stroke:#4c72b0;stroke-opacity:0.8;" x="157.727978" xlink:href="#mb1f65025fc" y="443.298989"/>
     <use style="fill:#4c72b0;fill-opacity:0.8;stroke:#4c72b0;stroke-opacity:0.8;" x="146.136684" xlink:href="#mb1f65025fc" y="434.695435"/>
     <use style="fill:#4c72b0;fill-opacity:0.8;stroke:#4c72b0;stroke-opacity:0.8;" x="186.706213" xlink:href="#mb1f65025fc" y="470.673932"/>
     <use style="fill:#4c72b0;fill-opacity:0.8;stroke:#4c72b0;stroke-opacity:0.8;" x="180.910566" xlink:href="#mb1f65025fc" y="465.198944"/>
     <use style="fill:#4c72b0;fill-opacity:0.8;stroke:#4c72b0;stroke-opacity:0.8;" x="186.706213" xlink:href="#mb1f65025fc" y="455.031107"/>
     <use style="fill:#4c72b0;fill-opacity:0.8;stroke:#4c72b0;stroke-opacity:0.8;" x="169.319272" xlink:href="#mb1f65025fc" y="443.298989"/>
     <use style="fill:#4c72b0;fill-opacity:0.8;stroke:#4c72b0;stroke-opacity:0.8;" x="215.684448" xlink:href="#mb1f65025fc" y="452.684684"/>
     <use style="fill:#4c72b0;fill-opacity:0.8;stroke:#4c72b0;stroke-opacity:0.8;" x="180.910566" xlink:href="#mb1f65025fc" y="409.666915"/>
     <use style="fill:#4c72b0;fill-opacity:0.8;stroke:#4c72b0;stroke-opacity:0.8;" x="175.114919" xlink:href="#mb1f65025fc" y="408.102633"/>
     <use style="fill:#4c72b0;fill-opacity:0.8;stroke:#4c72b0;stroke-opacity:0.8;" x="209.888801" xlink:href="#mb1f65025fc" y="384.638395"/>
     <use style="fill:#4c72b0;fill-opacity:0.8;stroke:#4c72b0;stroke-opacity:0.8;" x="140.341037" xlink:href="#mb1f65025fc" y="439.388283"/>
     <use style="fill:#4c72b0;fill-opacity:0.8;stroke:#4c72b0;stroke-opacity:0.8;" x="151.932331" xlink:href="#mb1f65025fc" y="439.388283"/>
     <use style="fill:#4c72b0;fill-opacity:0.8;stroke:#4c72b0;stroke-opacity:0.8;" x="256.253976" xlink:href="#mb1f65025fc" y="453.466825"/>
     <use style="fill:#4c72b0;fill-opacity:0.8;stroke:#4c72b0;stroke-opacity:0.8;" x="169.319272" xlink:href="#mb1f65025fc" y="400.28122"/>
     <use style="fill:#4c72b0;fill-opacity:0.8;stroke:#4c72b0;stroke-opacity:0.8;" x="140.341037" xlink:href="#mb1f65025fc" y="376.816983"/>
     <use style="fill:#4c72b0;fill-opacity:0.8;stroke:#4c72b0;stroke-opacity:0.8;" x="175.114919" xlink:href="#mb1f65025fc" y="404.974068"/>
     <use style="fill:#4c72b0;fill-opacity:0.8;stroke:#4c72b0;stroke-opacity:0.8;" x="151.932331" xlink:href="#mb1f65025fc" y="447.209695"/>
    </g>
   </g>
   <g id="PolyCollection_1">
    <defs>
     <path d="M 105.567155 -205.78242 
L 105.567155 -178.369133 
L 108.20154 -177.827173 
L 110.835925 -177.200529 
L 113.47031 -176.617992 
L 116.104695 -176.035058 
L 118.73908 -175.532036 
L 121.373465 -175.005361 
L 124.00785 -174.40351 
L 126.642235 -173.795955 
L 129.27662 -173.25248 
L 131.911005 -172.702936 
L 134.54539 -172.127083 
L 137.179775 -171.551231 
L 139.81416 -170.92557 
L 142.448545 -170.276495 
L 145.08293 -169.627419 
L 147.717315 -169.093757 
L 150.3517 -168.434233 
L 152.986085 -167.775653 
L 155.62047 -167.231984 
L 158.254855 -166.63177 
L 160.88924 -165.945929 
L 163.523625 -165.285055 
L 166.15801 -164.674765 
L 168.792395 -164.004746 
L 171.42678 -163.317469 
L 174.061165 -162.655725 
L 176.69555 -162.014291 
L 179.329935 -161.411335 
L 181.96432 -160.708632 
L 184.598705 -160.039131 
L 187.23309 -159.281826 
L 189.867475 -158.577318 
L 192.50186 -157.863947 
L 195.136245 -157.11752 
L 197.77063 -156.369257 
L 200.405015 -155.666316 
L 203.0394 -154.846337 
L 205.673785 -154.0444 
L 208.30817 -153.106489 
L 210.942555 -152.294519 
L 213.57694 -151.531529 
L 216.211325 -150.539767 
L 218.84571 -149.632013 
L 221.480095 -148.745309 
L 224.11448 -147.719828 
L 226.748865 -146.743231 
L 229.38325 -145.681862 
L 232.017634 -144.568275 
L 234.652019 -143.550531 
L 237.286404 -142.653419 
L 239.920789 -141.686522 
L 242.555174 -140.653076 
L 245.189559 -139.61041 
L 247.823944 -138.552131 
L 250.458329 -137.480877 
L 253.092714 -136.443547 
L 255.727099 -135.204713 
L 258.361484 -134.117167 
L 260.995869 -133.018185 
L 263.630254 -131.901466 
L 266.264639 -130.859317 
L 268.899024 -129.725755 
L 271.533409 -128.592422 
L 274.167794 -127.550134 
L 276.802179 -126.461678 
L 279.436564 -125.359568 
L 282.070949 -124.162318 
L 284.705334 -122.926698 
L 287.339719 -121.773301 
L 289.974104 -120.637894 
L 292.608489 -119.583717 
L 295.242874 -118.447406 
L 297.877259 -117.290481 
L 300.511644 -116.134609 
L 303.146029 -115.012755 
L 305.780414 -113.891047 
L 308.414799 -112.770418 
L 311.049184 -111.675634 
L 313.683569 -110.635068 
L 316.317954 -109.531225 
L 318.952339 -108.364222 
L 321.586724 -107.166971 
L 324.221109 -106.043869 
L 326.855494 -104.869553 
L 329.489879 -103.722084 
L 332.124264 -102.571838 
L 334.758649 -101.398703 
L 337.393034 -100.236072 
L 340.027419 -99.074009 
L 342.661804 -97.922383 
L 345.296189 -96.785936 
L 347.930574 -95.58579 
L 350.564959 -94.422916 
L 353.199344 -93.260285 
L 355.833729 -92.097654 
L 358.468114 -90.935023 
L 361.102498 -89.772391 
L 363.736883 -88.60976 
L 366.371268 -87.447129 
L 366.371268 -131.203395 
L 366.371268 -131.203395 
L 363.736883 -131.71242 
L 361.102498 -132.221445 
L 358.468114 -132.730471 
L 355.833729 -133.238173 
L 353.199344 -133.810358 
L 350.564959 -134.417626 
L 347.930574 -134.913773 
L 345.296189 -135.409597 
L 342.661804 -135.902582 
L 340.027419 -136.395566 
L 337.393034 -136.888551 
L 334.758649 -137.381536 
L 332.124264 -137.910651 
L 329.489879 -138.466912 
L 326.855494 -139.034412 
L 324.221109 -139.673039 
L 321.586724 -140.213479 
L 318.952339 -140.71551 
L 316.317954 -141.250934 
L 313.683569 -141.811079 
L 311.049184 -142.371223 
L 308.414799 -142.929277 
L 305.780414 -143.484581 
L 303.146029 -144.039885 
L 300.511644 -144.595189 
L 297.877259 -145.139403 
L 295.242874 -145.713333 
L 292.608489 -146.297878 
L 289.974104 -146.997887 
L 287.339719 -147.611175 
L 284.705334 -148.316524 
L 282.070949 -148.802634 
L 279.436564 -149.286302 
L 276.802179 -149.76997 
L 274.167794 -150.253638 
L 271.533409 -150.737307 
L 268.899024 -151.270387 
L 266.264639 -151.795797 
L 263.630254 -152.23348 
L 260.995869 -152.671979 
L 258.361484 -153.155647 
L 255.727099 -153.680396 
L 253.092714 -154.308805 
L 250.458329 -154.797909 
L 247.823944 -155.324907 
L 245.189559 -155.860979 
L 242.555174 -156.483977 
L 239.920789 -157.109976 
L 237.286404 -157.887709 
L 234.652019 -158.489717 
L 232.017634 -159.106493 
L 229.38325 -159.857471 
L 226.748865 -160.599859 
L 224.11448 -161.2485 
L 221.480095 -161.959013 
L 218.84571 -162.794531 
L 216.211325 -163.427214 
L 213.57694 -164.233488 
L 210.942555 -164.95829 
L 208.30817 -165.801572 
L 205.673785 -166.65019 
L 203.0394 -167.457383 
L 200.405015 -168.303715 
L 197.77063 -169.120708 
L 195.136245 -169.98632 
L 192.50186 -170.823724 
L 189.867475 -171.794962 
L 187.23309 -172.782047 
L 184.598705 -173.485498 
L 181.96432 -174.368307 
L 179.329935 -175.333024 
L 176.69555 -176.208914 
L 174.061165 -177.151998 
L 171.42678 -178.164582 
L 168.792395 -179.197409 
L 166.15801 -180.192999 
L 163.523625 -181.048868 
L 160.88924 -182.101942 
L 158.254855 -183.004989 
L 155.62047 -183.997759 
L 152.986085 -185.080848 
L 150.3517 -186.190775 
L 147.717315 -187.320515 
L 145.08293 -188.465832 
L 142.448545 -189.677129 
L 139.81416 -190.79397 
L 137.179775 -191.907245 
L 134.54539 -193.092026 
L 131.911005 -194.16054 
L 129.27662 -195.328391 
L 126.642235 -196.492452 
L 124.00785 -197.653871 
L 121.373465 -198.78302 
L 118.73908 -199.952005 
L 116.104695 -201.12099 
L 113.47031 -202.289975 
L 110.835925 -203.45896 
L 108.20154 -204.628747 
L 105.567155 -205.78242 
z
" id="m4450da7e18" style="stroke:#ffffff;stroke-opacity:0.15;"/>
    </defs>
    <g clip-path="url(#p998e6d8079)">
     <use style="fill:#4c72b0;fill-opacity:0.15;stroke:#ffffff;stroke-opacity:0.15;" x="0" xlink:href="#m4450da7e18" y="595.03125"/>
    </g>
   </g>
   <g id="line2d_12">
    <path clip-path="url(#p998e6d8079)" d="M 105.567155 403.809355 
L 108.20154 404.624361 
L 110.835925 405.439368 
L 113.47031 406.254375 
L 116.104695 407.069382 
L 118.73908 407.884389 
L 121.373465 408.699396 
L 124.00785 409.514403 
L 126.642235 410.32941 
L 129.27662 411.144417 
L 131.911005 411.959424 
L 134.54539 412.774431 
L 137.179775 413.589438 
L 139.81416 414.404445 
L 142.448545 415.219452 
L 145.08293 416.034459 
L 147.717315 416.849466 
L 150.3517 417.664473 
L 152.986085 418.47948 
L 155.62047 419.294487 
L 158.254855 420.109494 
L 160.88924 420.924501 
L 163.523625 421.739508 
L 166.15801 422.554515 
L 168.792395 423.369521 
L 171.42678 424.184528 
L 174.061165 424.999535 
L 176.69555 425.814542 
L 179.329935 426.629549 
L 181.96432 427.444556 
L 184.598705 428.259563 
L 187.23309 429.07457 
L 189.867475 429.889577 
L 192.50186 430.704584 
L 195.136245 431.519591 
L 197.77063 432.334598 
L 200.405015 433.149605 
L 203.0394 433.964612 
L 205.673785 434.779619 
L 208.30817 435.594626 
L 210.942555 436.409633 
L 213.57694 437.22464 
L 216.211325 438.039647 
L 218.84571 438.854654 
L 221.480095 439.669661 
L 224.11448 440.484668 
L 226.748865 441.299675 
L 229.38325 442.114681 
L 232.017634 442.929688 
L 234.652019 443.744695 
L 237.286404 444.559702 
L 239.920789 445.374709 
L 242.555174 446.189716 
L 245.189559 447.004723 
L 247.823944 447.81973 
L 250.458329 448.634737 
L 253.092714 449.449744 
L 255.727099 450.264751 
L 258.361484 451.079758 
L 260.995869 451.894765 
L 263.630254 452.709772 
L 266.264639 453.524779 
L 268.899024 454.339786 
L 271.533409 455.154793 
L 274.167794 455.9698 
L 276.802179 456.784807 
L 279.436564 457.599814 
L 282.070949 458.414821 
L 284.705334 459.229828 
L 287.339719 460.044834 
L 289.974104 460.859841 
L 292.608489 461.674848 
L 295.242874 462.489855 
L 297.877259 463.304862 
L 300.511644 464.119869 
L 303.146029 464.934876 
L 305.780414 465.749883 
L 308.414799 466.56489 
L 311.049184 467.379897 
L 313.683569 468.194904 
L 316.317954 469.009911 
L 318.952339 469.824918 
L 321.586724 470.639925 
L 324.221109 471.454932 
L 326.855494 472.269939 
L 329.489879 473.084946 
L 332.124264 473.899953 
L 334.758649 474.71496 
L 337.393034 475.529967 
L 340.027419 476.344974 
L 342.661804 477.159981 
L 345.296189 477.974988 
L 347.930574 478.789994 
L 350.564959 479.605001 
L 353.199344 480.420008 
L 355.833729 481.235015 
L 358.468114 482.050022 
L 361.102498 482.865029 
L 363.736883 483.680036 
L 366.371268 484.495043 
" style="fill:none;stroke:#4c72b0;stroke-linecap:round;stroke-width:2.25;"/>
   </g>
   <g id="patch_3">
    <path d="M 44.028125 558.41875 
L 44.028125 171.750978 
" style="fill:none;stroke:#ffffff;stroke-linecap:square;stroke-linejoin:miter;stroke-width:0.8;"/>
   </g>
   <g id="patch_4">
    <path d="M 44.028125 558.41875 
L 427.910299 558.41875 
" style="fill:none;stroke:#ffffff;stroke-linecap:square;stroke-linejoin:miter;stroke-width:0.8;"/>
   </g>
  </g>
  <g id="axes_2">
   <g id="patch_5">
    <path d="M 44.028125 149.005815 
L 427.910299 149.005815 
L 427.910299 35.28 
L 44.028125 35.28 
z
" style="fill:#e6e6e6;"/>
   </g>
   <g id="matplotlib.axis_3">
    <g id="xtick_7">
     <g id="line2d_13">
      <path clip-path="url(#pd019c1c644)" d="M 99.771509 149.005815 
L 99.771509 35.28 
" style="fill:none;stroke:#cccccc;stroke-linecap:round;stroke-width:0.8;"/>
     </g>
    </g>
    <g id="xtick_8">
     <g id="line2d_14">
      <path clip-path="url(#pd019c1c644)" d="M 157.727978 149.005815 
L 157.727978 35.28 
" style="fill:none;stroke:#cccccc;stroke-linecap:round;stroke-width:0.8;"/>
     </g>
    </g>
    <g id="xtick_9">
     <g id="line2d_15">
      <path clip-path="url(#pd019c1c644)" d="M 215.684448 149.005815 
L 215.684448 35.28 
" style="fill:none;stroke:#cccccc;stroke-linecap:round;stroke-width:0.8;"/>
     </g>
    </g>
    <g id="xtick_10">
     <g id="line2d_16">
      <path clip-path="url(#pd019c1c644)" d="M 273.640917 149.005815 
L 273.640917 35.28 
" style="fill:none;stroke:#cccccc;stroke-linecap:round;stroke-width:0.8;"/>
     </g>
    </g>
    <g id="xtick_11">
     <g id="line2d_17">
      <path clip-path="url(#pd019c1c644)" d="M 331.597387 149.005815 
L 331.597387 35.28 
" style="fill:none;stroke:#cccccc;stroke-linecap:round;stroke-width:0.8;"/>
     </g>
    </g>
    <g id="xtick_12">
     <g id="line2d_18">
      <path clip-path="url(#pd019c1c644)" d="M 389.553856 149.005815 
L 389.553856 35.28 
" style="fill:none;stroke:#cccccc;stroke-linecap:round;stroke-width:0.8;"/>
     </g>
    </g>
   </g>
   <g id="matplotlib.axis_4">
    <g id="ytick_6"/>
    <g id="ytick_7"/>
    <g id="ytick_8"/>
    <g id="ytick_9"/>
    <g id="ytick_10"/>
   </g>
   <g id="patch_6">
    <path clip-path="url(#pd019c1c644)" d="M 105.567155 149.005815 
L 122.954096 149.005815 
L 122.954096 90.888093 
L 105.567155 90.888093 
z
" style="fill:#dd8452;fill-opacity:0.5;stroke:#ffffff;stroke-linejoin:miter;"/>
   </g>
   <g id="patch_7">
    <path clip-path="url(#pd019c1c644)" d="M 122.954096 149.005815 
L 140.341037 149.005815 
L 140.341037 101.454952 
L 122.954096 101.454952 
z
" style="fill:#dd8452;fill-opacity:0.5;stroke:#ffffff;stroke-linejoin:miter;"/>
   </g>
   <g id="patch_8">
    <path clip-path="url(#pd019c1c644)" d="M 140.341037 149.005815 
L 157.727978 149.005815 
L 157.727978 61.829232 
L 140.341037 61.829232 
z
" style="fill:#dd8452;fill-opacity:0.5;stroke:#ffffff;stroke-linejoin:miter;"/>
   </g>
   <g id="patch_9">
    <path clip-path="url(#pd019c1c644)" d="M 157.727978 149.005815 
L 175.114919 149.005815 
L 175.114919 40.695515 
L 157.727978 40.695515 
z
" style="fill:#dd8452;fill-opacity:0.5;stroke:#ffffff;stroke-linejoin:miter;"/>
   </g>
   <g id="patch_10">
    <path clip-path="url(#pd019c1c644)" d="M 175.114919 149.005815 
L 192.50186 149.005815 
L 192.50186 69.754376 
L 175.114919 69.754376 
z
" style="fill:#dd8452;fill-opacity:0.5;stroke:#ffffff;stroke-linejoin:miter;"/>
   </g>
   <g id="patch_11">
    <path clip-path="url(#pd019c1c644)" d="M 192.50186 149.005815 
L 209.888801 149.005815 
L 209.888801 96.171522 
L 192.50186 96.171522 
z
" style="fill:#dd8452;fill-opacity:0.5;stroke:#ffffff;stroke-linejoin:miter;"/>
   </g>
   <g id="patch_12">
    <path clip-path="url(#pd019c1c644)" d="M 209.888801 149.005815 
L 227.275742 149.005815 
L 227.275742 112.02181 
L 209.888801 112.02181 
z
" style="fill:#dd8452;fill-opacity:0.5;stroke:#ffffff;stroke-linejoin:miter;"/>
   </g>
   <g id="patch_13">
    <path clip-path="url(#pd019c1c644)" d="M 227.275742 149.005815 
L 244.662682 149.005815 
L 244.662682 127.872098 
L 227.275742 127.872098 
z
" style="fill:#dd8452;fill-opacity:0.5;stroke:#ffffff;stroke-linejoin:miter;"/>
   </g>
   <g id="patch_14">
    <path clip-path="url(#pd019c1c644)" d="M 244.662682 149.005815 
L 262.049623 149.005815 
L 262.049623 135.797242 
L 244.662682 135.797242 
z
" style="fill:#dd8452;fill-opacity:0.5;stroke:#ffffff;stroke-linejoin:miter;"/>
   </g>
   <g id="patch_15">
    <path clip-path="url(#pd019c1c644)" d="M 262.049623 149.005815 
L 279.436564 149.005815 
L 279.436564 130.513813 
L 262.049623 130.513813 
z
" style="fill:#dd8452;fill-opacity:0.5;stroke:#ffffff;stroke-linejoin:miter;"/>
   </g>
   <g id="patch_16">
    <path clip-path="url(#pd019c1c644)" d="M 279.436564 149.005815 
L 296.823505 149.005815 
L 296.823505 146.364101 
L 279.436564 146.364101 
z
" style="fill:#dd8452;fill-opacity:0.5;stroke:#ffffff;stroke-linejoin:miter;"/>
   </g>
   <g id="patch_17">
    <path clip-path="url(#pd019c1c644)" d="M 296.823505 149.005815 
L 314.210446 149.005815 
L 314.210446 149.005815 
L 296.823505 149.005815 
z
" style="fill:#dd8452;fill-opacity:0.5;stroke:#ffffff;stroke-linejoin:miter;"/>
   </g>
   <g id="patch_18">
    <path clip-path="url(#pd019c1c644)" d="M 314.210446 149.005815 
L 331.597387 149.005815 
L 331.597387 141.080671 
L 314.210446 141.080671 
z
" style="fill:#dd8452;fill-opacity:0.5;stroke:#ffffff;stroke-linejoin:miter;"/>
   </g>
   <g id="patch_19">
    <path clip-path="url(#pd019c1c644)" d="M 331.597387 149.005815 
L 348.984328 149.005815 
L 348.984328 143.722386 
L 331.597387 143.722386 
z
" style="fill:#dd8452;fill-opacity:0.5;stroke:#ffffff;stroke-linejoin:miter;"/>
   </g>
   <g id="patch_20">
    <path clip-path="url(#pd019c1c644)" d="M 348.984328 149.005815 
L 366.371268 149.005815 
L 366.371268 143.722386 
L 348.984328 143.722386 
z
" style="fill:#dd8452;fill-opacity:0.5;stroke:#ffffff;stroke-linejoin:miter;"/>
   </g>
   <g id="line2d_19">
    <path clip-path="url(#pd019c1c644)" d="M 105.567155 118.048551 
L 112.120023 110.319907 
L 118.67289 102.990928 
L 126.53633 94.179946 
L 131.778624 87.874463 
L 137.020918 81.134295 
L 144.884358 70.846954 
L 147.505505 67.654474 
L 150.126652 64.729929 
L 152.747799 62.166584 
L 155.368946 60.051793 
L 156.679519 59.186869 
L 157.990093 58.46128 
L 159.300666 57.881838 
L 160.61124 57.454042 
L 161.921813 57.181981 
L 163.232386 57.06826 
L 164.54296 57.113955 
L 165.853533 57.31859 
L 167.164107 57.680151 
L 168.47468 58.19512 
L 169.785254 58.858547 
L 171.095827 59.664145 
L 173.716974 61.670764 
L 176.338121 64.143072 
L 178.959268 66.997545 
L 181.580415 70.145079 
L 185.512135 75.223462 
L 197.307296 90.833169 
L 202.549589 97.245295 
L 206.48131 101.74471 
L 210.41303 105.979118 
L 214.34475 109.95027 
L 218.276471 113.64994 
L 222.208191 117.058545 
L 226.139911 120.150239 
L 230.071632 122.901031 
L 234.003352 125.296778 
L 237.935072 127.339145 
L 241.866792 129.048939 
L 245.798513 130.46695 
L 249.730233 131.652378 
L 254.972527 132.999193 
L 266.767688 135.935184 
L 273.320555 137.889518 
L 287.736863 142.409032 
L 291.668583 143.345885 
L 295.600303 144.040642 
L 299.532023 144.477026 
L 303.463744 144.673893 
L 308.706037 144.65206 
L 327.054065 144.196482 
L 333.606933 144.396544 
L 348.02324 145.165903 
L 363.750122 146.096439 
L 366.371268 146.298226 
L 366.371268 146.298226 
" style="fill:none;stroke:#dd8452;stroke-linecap:round;stroke-width:1.5;"/>
   </g>
   <g id="patch_21">
    <path d="M 44.028125 149.005815 
L 427.910299 149.005815 
" style="fill:none;stroke:#ffffff;stroke-linecap:square;stroke-linejoin:miter;stroke-width:0.8;"/>
   </g>
  </g>
  <g id="axes_3">
   <g id="patch_22">
    <path d="M 450.491603 558.41875 
L 563.398125 558.41875 
L 563.398125 171.750978 
L 450.491603 171.750978 
z
" style="fill:#e6e6e6;"/>
   </g>
   <g id="matplotlib.axis_5">
    <g id="xtick_13"/>
    <g id="xtick_14"/>
    <g id="xtick_15"/>
   </g>
   <g id="matplotlib.axis_6">
    <g id="ytick_11">
     <g id="line2d_20">
      <path clip-path="url(#p69c2d50e10)" d="M 450.491603 517.602407 
L 563.398125 517.602407 
" style="fill:none;stroke:#cccccc;stroke-linecap:round;stroke-width:0.8;"/>
     </g>
    </g>
    <g id="ytick_12">
     <g id="line2d_21">
      <path clip-path="url(#p69c2d50e10)" d="M 450.491603 439.388283 
L 563.398125 439.388283 
" style="fill:none;stroke:#cccccc;stroke-linecap:round;stroke-width:0.8;"/>
     </g>
    </g>
    <g id="ytick_13">
     <g id="line2d_22">
      <path clip-path="url(#p69c2d50e10)" d="M 450.491603 361.174158 
L 563.398125 361.174158 
" style="fill:none;stroke:#cccccc;stroke-linecap:round;stroke-width:0.8;"/>
     </g>
    </g>
    <g id="ytick_14">
     <g id="line2d_23">
      <path clip-path="url(#p69c2d50e10)" d="M 450.491603 282.960033 
L 563.398125 282.960033 
" style="fill:none;stroke:#cccccc;stroke-linecap:round;stroke-width:0.8;"/>
     </g>
    </g>
    <g id="ytick_15">
     <g id="line2d_24">
      <path clip-path="url(#p69c2d50e10)" d="M 450.491603 204.745909 
L 563.398125 204.745909 
" style="fill:none;stroke:#cccccc;stroke-linecap:round;stroke-width:0.8;"/>
     </g>
    </g>
   </g>
   <g id="patch_23">
    <path clip-path="url(#p69c2d50e10)" d="M 450.491603 494.13817 
L 537.859745 494.13817 
L 537.859745 470.673932 
L 450.491603 470.673932 
z
" style="fill:#dd8452;fill-opacity:0.5;stroke:#ffffff;stroke-linejoin:miter;"/>
   </g>
   <g id="patch_24">
    <path clip-path="url(#p69c2d50e10)" d="M 450.491603 470.673932 
L 558.021624 470.673932 
L 558.021624 447.209695 
L 450.491603 447.209695 
z
" style="fill:#dd8452;fill-opacity:0.5;stroke:#ffffff;stroke-linejoin:miter;"/>
   </g>
   <g id="patch_25">
    <path clip-path="url(#p69c2d50e10)" d="M 450.491603 447.209695 
L 533.379328 447.209695 
L 533.379328 423.745458 
L 450.491603 423.745458 
z
" style="fill:#dd8452;fill-opacity:0.5;stroke:#ffffff;stroke-linejoin:miter;"/>
   </g>
   <g id="patch_26">
    <path clip-path="url(#p69c2d50e10)" d="M 450.491603 423.745458 
L 502.016405 423.745458 
L 502.016405 400.28122 
L 450.491603 400.28122 
z
" style="fill:#dd8452;fill-opacity:0.5;stroke:#ffffff;stroke-linejoin:miter;"/>
   </g>
   <g id="patch_27">
    <path clip-path="url(#p69c2d50e10)" d="M 450.491603 400.28122 
L 497.535987 400.28122 
L 497.535987 376.816983 
L 450.491603 376.816983 
z
" style="fill:#dd8452;fill-opacity:0.5;stroke:#ffffff;stroke-linejoin:miter;"/>
   </g>
   <g id="patch_28">
    <path clip-path="url(#p69c2d50e10)" d="M 450.491603 376.816983 
L 495.295779 376.816983 
L 495.295779 353.352745 
L 450.491603 353.352745 
z
" style="fill:#dd8452;fill-opacity:0.5;stroke:#ffffff;stroke-linejoin:miter;"/>
   </g>
   <g id="patch_29">
    <path clip-path="url(#p69c2d50e10)" d="M 450.491603 353.352745 
L 468.413273 353.352745 
L 468.413273 329.888508 
L 450.491603 329.888508 
z
" style="fill:#dd8452;fill-opacity:0.5;stroke:#ffffff;stroke-linejoin:miter;"/>
   </g>
   <g id="patch_30">
    <path clip-path="url(#p69c2d50e10)" d="M 450.491603 329.888508 
L 454.972021 329.888508 
L 454.972021 306.424271 
L 450.491603 306.424271 
z
" style="fill:#dd8452;fill-opacity:0.5;stroke:#ffffff;stroke-linejoin:miter;"/>
   </g>
   <g id="patch_31">
    <path clip-path="url(#p69c2d50e10)" d="M 450.491603 306.424271 
L 454.972021 306.424271 
L 454.972021 282.960033 
L 450.491603 282.960033 
z
" style="fill:#dd8452;fill-opacity:0.5;stroke:#ffffff;stroke-linejoin:miter;"/>
   </g>
   <g id="patch_32">
    <path clip-path="url(#p69c2d50e10)" d="M 450.491603 282.960033 
L 454.972021 282.960033 
L 454.972021 259.495796 
L 450.491603 259.495796 
z
" style="fill:#dd8452;fill-opacity:0.5;stroke:#ffffff;stroke-linejoin:miter;"/>
   </g>
   <g id="patch_33">
    <path clip-path="url(#p69c2d50e10)" d="M 450.491603 259.495796 
L 459.452438 259.495796 
L 459.452438 236.031559 
L 450.491603 236.031559 
z
" style="fill:#dd8452;fill-opacity:0.5;stroke:#ffffff;stroke-linejoin:miter;"/>
   </g>
   <g id="line2d_25">
    <path clip-path="url(#p69c2d50e10)" d="M 493.680518 494.13817 
L 504.274326 490.247115 
L 522.283831 483.762025 
L 529.025607 481.167988 
L 535.206472 478.573952 
L 540.657899 475.979916 
L 545.248551 473.385879 
L 547.192315 472.088861 
L 548.892467 470.791843 
L 550.345981 469.494825 
L 551.55288 468.197807 
L 552.516105 466.900789 
L 553.241305 465.603771 
L 553.736584 464.306752 
L 554.012189 463.009734 
L 554.080164 461.712716 
L 553.953985 460.415698 
L 553.648177 459.11868 
L 553.17793 457.821662 
L 552.558732 456.524643 
L 550.934868 453.930607 
L 548.894067 451.336571 
L 546.540219 448.742535 
L 542.603639 444.85148 
L 536.890141 439.663408 
L 529.33538 433.178317 
L 514.045477 420.208135 
L 509.888489 416.317081 
L 507.363134 413.723045 
L 505.079869 411.129008 
L 503.066614 408.534972 
L 501.33812 405.940936 
L 499.894117 403.346899 
L 498.718899 400.752863 
L 497.782338 398.158827 
L 497.042214 395.564791 
L 496.18733 391.673736 
L 494.416374 382.594609 
L 493.365917 378.703555 
L 491.991219 374.8125 
L 490.258182 370.921446 
L 488.179204 367.030391 
L 485.801757 363.139337 
L 482.289453 357.951264 
L 469.470922 339.79301 
L 467.059308 335.901956 
L 464.868588 332.010901 
L 462.919684 328.119847 
L 461.218733 324.228793 
L 459.758121 320.337738 
L 458.519659 316.446684 
L 457.47974 312.555629 
L 456.363142 307.367557 
L 455.522737 302.179484 
L 454.947823 296.991411 
L 454.642289 291.803339 
L 454.59939 286.615266 
L 454.777914 281.427194 
L 455.826114 260.674903 
L 455.758869 255.486831 
L 455.430303 249.00174 
L 454.883797 242.516649 
L 454.184116 236.031559 
L 454.184116 236.031559 
" style="fill:none;stroke:#dd8452;stroke-linecap:round;stroke-width:1.5;"/>
   </g>
   <g id="patch_34">
    <path d="M 450.491603 558.41875 
L 450.491603 171.750978 
" style="fill:none;stroke:#ffffff;stroke-linecap:square;stroke-linejoin:miter;stroke-width:0.8;"/>
   </g>
  </g>
  <g id="text_14">
   <!-- Number of Kitas vs Spots per PLZ -->
   <g style="fill:#262626;" transform="translate(195.499687 15.935625)scale(0.12 -0.12)">
    <defs>
     <path d="M 7.625 0 
L 7.625 71.578125 
L 17.328125 71.578125 
L 54.9375 15.375 
L 54.9375 71.578125 
L 64.015625 71.578125 
L 64.015625 0 
L 54.296875 0 
L 16.703125 56.25 
L 16.703125 0 
z
" id="ArialMT-78"/>
     <path d="M 7.328125 0 
L 7.328125 71.578125 
L 16.796875 71.578125 
L 16.796875 36.078125 
L 52.34375 71.578125 
L 65.1875 71.578125 
L 35.15625 42.578125 
L 66.5 0 
L 54 0 
L 28.515625 36.234375 
L 16.796875 24.8125 
L 16.796875 0 
z
" id="ArialMT-75"/>
     <path d="M 21 0 
L 1.265625 51.859375 
L 10.546875 51.859375 
L 21.6875 20.796875 
Q 23.484375 15.765625 25 10.359375 
Q 26.171875 14.453125 28.265625 20.21875 
L 39.796875 51.859375 
L 48.828125 51.859375 
L 29.203125 0 
z
" id="ArialMT-118"/>
     <path d="M 4.5 23 
L 13.421875 23.78125 
Q 14.0625 18.40625 16.375 14.96875 
Q 18.703125 11.53125 23.578125 9.40625 
Q 28.46875 7.28125 34.578125 7.28125 
Q 39.984375 7.28125 44.140625 8.890625 
Q 48.296875 10.5 50.3125 13.296875 
Q 52.34375 16.109375 52.34375 19.4375 
Q 52.34375 22.796875 50.390625 25.3125 
Q 48.4375 27.828125 43.953125 29.546875 
Q 41.0625 30.671875 31.203125 33.03125 
Q 21.34375 35.40625 17.390625 37.5 
Q 12.25 40.1875 9.734375 44.15625 
Q 7.234375 48.140625 7.234375 53.078125 
Q 7.234375 58.5 10.296875 63.203125 
Q 13.375 67.921875 19.28125 70.359375 
Q 25.203125 72.796875 32.421875 72.796875 
Q 40.375 72.796875 46.453125 70.234375 
Q 52.546875 67.671875 55.8125 62.6875 
Q 59.078125 57.71875 59.328125 51.421875 
L 50.25 50.734375 
Q 49.515625 57.515625 45.28125 60.984375 
Q 41.0625 64.453125 32.8125 64.453125 
Q 24.21875 64.453125 20.28125 61.296875 
Q 16.359375 58.15625 16.359375 53.71875 
Q 16.359375 49.859375 19.140625 47.359375 
Q 21.875 44.875 33.421875 42.265625 
Q 44.96875 39.65625 49.265625 37.703125 
Q 55.515625 34.8125 58.484375 30.390625 
Q 61.46875 25.984375 61.46875 20.21875 
Q 61.46875 14.5 58.203125 9.4375 
Q 54.9375 4.390625 48.796875 1.578125 
Q 42.671875 -1.21875 35.015625 -1.21875 
Q 25.296875 -1.21875 18.71875 1.609375 
Q 12.15625 4.4375 8.421875 10.125 
Q 4.6875 15.828125 4.5 23 
z
" id="ArialMT-83"/>
     <path d="M 7.71875 0 
L 7.71875 71.578125 
L 34.71875 71.578125 
Q 41.84375 71.578125 45.609375 70.90625 
Q 50.875 70.015625 54.4375 67.546875 
Q 58.015625 65.09375 60.1875 60.640625 
Q 62.359375 56.203125 62.359375 50.875 
Q 62.359375 41.75 56.546875 35.421875 
Q 50.734375 29.109375 35.546875 29.109375 
L 17.1875 29.109375 
L 17.1875 0 
z
M 17.1875 37.546875 
L 35.6875 37.546875 
Q 44.875 37.546875 48.734375 40.96875 
Q 52.59375 44.390625 52.59375 50.59375 
Q 52.59375 55.078125 50.3125 58.265625 
Q 48.046875 61.46875 44.34375 62.5 
Q 41.9375 63.140625 35.5 63.140625 
L 17.1875 63.140625 
z
" id="ArialMT-80"/>
     <path d="M 7.328125 0 
L 7.328125 71.578125 
L 16.796875 71.578125 
L 16.796875 8.453125 
L 52.046875 8.453125 
L 52.046875 0 
z
" id="ArialMT-76"/>
     <path d="M 2 0 
L 2 8.796875 
L 38.671875 54.640625 
Q 42.578125 59.515625 46.09375 63.140625 
L 6.15625 63.140625 
L 6.15625 71.578125 
L 57.421875 71.578125 
L 57.421875 63.140625 
L 17.234375 13.484375 
L 12.890625 8.453125 
L 58.59375 8.453125 
L 58.59375 0 
z
" id="ArialMT-90"/>
    </defs>
    <use xlink:href="#ArialMT-78"/>
    <use x="72.216797" xlink:href="#ArialMT-117"/>
    <use x="127.832031" xlink:href="#ArialMT-109"/>
    <use x="211.132812" xlink:href="#ArialMT-98"/>
    <use x="266.748047" xlink:href="#ArialMT-101"/>
    <use x="322.363281" xlink:href="#ArialMT-114"/>
    <use x="355.664062" xlink:href="#ArialMT-32"/>
    <use x="383.447266" xlink:href="#ArialMT-111"/>
    <use x="439.0625" xlink:href="#ArialMT-102"/>
    <use x="466.845703" xlink:href="#ArialMT-32"/>
    <use x="494.628906" xlink:href="#ArialMT-75"/>
    <use x="561.328125" xlink:href="#ArialMT-105"/>
    <use x="583.544922" xlink:href="#ArialMT-116"/>
    <use x="611.328125" xlink:href="#ArialMT-97"/>
    <use x="666.943359" xlink:href="#ArialMT-115"/>
    <use x="716.943359" xlink:href="#ArialMT-32"/>
    <use x="744.726562" xlink:href="#ArialMT-118"/>
    <use x="794.726562" xlink:href="#ArialMT-115"/>
    <use x="844.726562" xlink:href="#ArialMT-32"/>
    <use x="872.509766" xlink:href="#ArialMT-83"/>
    <use x="939.208984" xlink:href="#ArialMT-112"/>
    <use x="994.824219" xlink:href="#ArialMT-111"/>
    <use x="1050.439453" xlink:href="#ArialMT-116"/>
    <use x="1078.222656" xlink:href="#ArialMT-115"/>
    <use x="1128.222656" xlink:href="#ArialMT-32"/>
    <use x="1156.005859" xlink:href="#ArialMT-112"/>
    <use x="1211.621094" xlink:href="#ArialMT-101"/>
    <use x="1267.236328" xlink:href="#ArialMT-114"/>
    <use x="1300.537109" xlink:href="#ArialMT-32"/>
    <use x="1328.320312" xlink:href="#ArialMT-80"/>
    <use x="1395.019531" xlink:href="#ArialMT-76"/>
    <use x="1450.634766" xlink:href="#ArialMT-90"/>
   </g>
  </g>
 </g>
 <defs>
  <clipPath id="p998e6d8079">
   <rect height="386.667772" width="383.882174" x="44.028125" y="171.750978"/>
  </clipPath>
  <clipPath id="pd019c1c644">
   <rect height="113.725815" width="383.882174" x="44.028125" y="35.28"/>
  </clipPath>
  <clipPath id="p69c2d50e10">
   <rect height="386.667772" width="112.906522" x="450.491603" y="171.750978"/>
  </clipPath>
 </defs>
</svg>
