<?xml version="1.0" encoding="utf-8" standalone="no"?>
<!DOCTYPE svg PUBLIC "-//W3C//DTD SVG 1.1//EN"
  "http://www.w3.org/Graphics/SVG/1.1/DTD/svg11.dtd">
<!-- Created with matplotlib (https://matplotlib.org/) -->
<svg height="493.16pt" version="1.1" viewBox="0 0 548.264062 493.16" width="548.264062pt" xmlns="http://www.w3.org/2000/svg" xmlns:xlink="http://www.w3.org/1999/xlink">
 <metadata>
  <rdf:RDF xmlns:cc="http://creativecommons.org/ns#" xmlns:dc="http://purl.org/dc/elements/1.1/" xmlns:rdf="http://www.w3.org/1999/02/22-rdf-syntax-ns#">
   <cc:Work>
    <dc:type rdf:resource="http://purl.org/dc/dcmitype/StillImage"/>
    <dc:date>2020-10-06T10:37:17.371090</dc:date>
    <dc:format>image/svg+xml</dc:format>
    <dc:creator>
     <cc:Agent>
      <dc:title>Matplotlib v3.3.1, https://matplotlib.org/</dc:title>
     </cc:Agent>
    </dc:creator>
   </cc:Work>
  </rdf:RDF>
 </metadata>
 <defs>
  <style type="text/css">*{stroke-linecap:butt;stroke-linejoin:round;}</style>
 </defs>
 <g id="figure_1">
  <g id="patch_1">
   <path d="M 0 493.16 
L 548.264062 493.16 
L 548.264062 0 
L 0 0 
z
" style="fill:none;"/>
  </g>
  <g id="axes_1">
   <g id="patch_2">
    <path d="M 38.864063 456.669375 
L 541.064063 456.669375 
L 541.064063 21.789375 
L 38.864063 21.789375 
z
" style="fill:#e6e6e6;"/>
   </g>
   <g id="matplotlib.axis_1">
    <g id="xtick_1">
     <g id="line2d_1">
      <path clip-path="url(#pa9209cda80)" d="M 48.674521 456.669375 
L 48.674521 21.789375 
" style="fill:none;stroke:#cccccc;stroke-linecap:round;stroke-width:0.8;"/>
     </g>
     <g id="text_1">
      <!-- −3 -->
      <g style="fill:#262626;" transform="translate(42.97374 470.827187)scale(0.1 -0.1)">
       <defs>
        <path d="M 52.828125 31.203125 
L 5.5625 31.203125 
L 5.5625 39.40625 
L 52.828125 39.40625 
z
" id="ArialMT-8722"/>
        <path d="M 4.203125 18.890625 
L 12.984375 20.0625 
Q 14.5 12.59375 18.140625 9.296875 
Q 21.78125 6 27 6 
Q 33.203125 6 37.46875 10.296875 
Q 41.75 14.59375 41.75 20.953125 
Q 41.75 27 37.796875 30.921875 
Q 33.84375 34.859375 27.734375 34.859375 
Q 25.25 34.859375 21.53125 33.890625 
L 22.515625 41.609375 
Q 23.390625 41.5 23.921875 41.5 
Q 29.546875 41.5 34.03125 44.421875 
Q 38.53125 47.359375 38.53125 53.46875 
Q 38.53125 58.296875 35.25 61.46875 
Q 31.984375 64.65625 26.8125 64.65625 
Q 21.6875 64.65625 18.265625 61.421875 
Q 14.84375 58.203125 13.875 51.765625 
L 5.078125 53.328125 
Q 6.6875 62.15625 12.390625 67.015625 
Q 18.109375 71.875 26.609375 71.875 
Q 32.46875 71.875 37.390625 69.359375 
Q 42.328125 66.84375 44.9375 62.5 
Q 47.5625 58.15625 47.5625 53.265625 
Q 47.5625 48.640625 45.0625 44.828125 
Q 42.578125 41.015625 37.703125 38.765625 
Q 44.046875 37.3125 47.5625 32.6875 
Q 51.078125 28.078125 51.078125 21.140625 
Q 51.078125 11.765625 44.234375 5.25 
Q 37.40625 -1.265625 26.953125 -1.265625 
Q 17.53125 -1.265625 11.296875 4.34375 
Q 5.078125 9.96875 4.203125 18.890625 
z
" id="ArialMT-51"/>
       </defs>
       <use xlink:href="#ArialMT-8722"/>
       <use x="58.398438" xlink:href="#ArialMT-51"/>
      </g>
     </g>
    </g>
    <g id="xtick_2">
     <g id="line2d_2">
      <path clip-path="url(#pa9209cda80)" d="M 104.855237 456.669375 
L 104.855237 21.789375 
" style="fill:none;stroke:#cccccc;stroke-linecap:round;stroke-width:0.8;"/>
     </g>
     <g id="text_2">
      <!-- −2 -->
      <g style="fill:#262626;" transform="translate(99.154456 470.827187)scale(0.1 -0.1)">
       <defs>
        <path d="M 50.34375 8.453125 
L 50.34375 0 
L 3.03125 0 
Q 2.9375 3.171875 4.046875 6.109375 
Q 5.859375 10.9375 9.828125 15.625 
Q 13.8125 20.3125 21.34375 26.46875 
Q 33.015625 36.03125 37.109375 41.625 
Q 41.21875 47.21875 41.21875 52.203125 
Q 41.21875 57.421875 37.46875 61 
Q 33.734375 64.59375 27.734375 64.59375 
Q 21.390625 64.59375 17.578125 60.78125 
Q 13.765625 56.984375 13.71875 50.25 
L 4.6875 51.171875 
Q 5.609375 61.28125 11.65625 66.578125 
Q 17.71875 71.875 27.9375 71.875 
Q 38.234375 71.875 44.234375 66.15625 
Q 50.25 60.453125 50.25 52 
Q 50.25 47.703125 48.484375 43.546875 
Q 46.734375 39.40625 42.65625 34.8125 
Q 38.578125 30.21875 29.109375 22.21875 
Q 21.1875 15.578125 18.9375 13.203125 
Q 16.703125 10.84375 15.234375 8.453125 
z
" id="ArialMT-50"/>
       </defs>
       <use xlink:href="#ArialMT-8722"/>
       <use x="58.398438" xlink:href="#ArialMT-50"/>
      </g>
     </g>
    </g>
    <g id="xtick_3">
     <g id="line2d_3">
      <path clip-path="url(#pa9209cda80)" d="M 161.035953 456.669375 
L 161.035953 21.789375 
" style="fill:none;stroke:#cccccc;stroke-linecap:round;stroke-width:0.8;"/>
     </g>
     <g id="text_3">
      <!-- −1 -->
      <g style="fill:#262626;" transform="translate(155.335171 470.827187)scale(0.1 -0.1)">
       <defs>
        <path d="M 37.25 0 
L 28.46875 0 
L 28.46875 56 
Q 25.296875 52.984375 20.140625 49.953125 
Q 14.984375 46.921875 10.890625 45.40625 
L 10.890625 53.90625 
Q 18.265625 57.375 23.78125 62.296875 
Q 29.296875 67.234375 31.59375 71.875 
L 37.25 71.875 
z
" id="ArialMT-49"/>
       </defs>
       <use xlink:href="#ArialMT-8722"/>
       <use x="58.398438" xlink:href="#ArialMT-49"/>
      </g>
     </g>
    </g>
    <g id="xtick_4">
     <g id="line2d_4">
      <path clip-path="url(#pa9209cda80)" d="M 217.216668 456.669375 
L 217.216668 21.789375 
" style="fill:none;stroke:#cccccc;stroke-linecap:round;stroke-width:0.8;"/>
     </g>
     <g id="text_4">
      <!-- 0 -->
      <g style="fill:#262626;" transform="translate(214.4362 470.827187)scale(0.1 -0.1)">
       <defs>
        <path d="M 4.15625 35.296875 
Q 4.15625 48 6.765625 55.734375 
Q 9.375 63.484375 14.515625 67.671875 
Q 19.671875 71.875 27.484375 71.875 
Q 33.25 71.875 37.59375 69.546875 
Q 41.9375 67.234375 44.765625 62.859375 
Q 47.609375 58.5 49.21875 52.21875 
Q 50.828125 45.953125 50.828125 35.296875 
Q 50.828125 22.703125 48.234375 14.96875 
Q 45.65625 7.234375 40.5 3 
Q 35.359375 -1.21875 27.484375 -1.21875 
Q 17.140625 -1.21875 11.234375 6.203125 
Q 4.15625 15.140625 4.15625 35.296875 
z
M 13.1875 35.296875 
Q 13.1875 17.671875 17.3125 11.828125 
Q 21.4375 6 27.484375 6 
Q 33.546875 6 37.671875 11.859375 
Q 41.796875 17.71875 41.796875 35.296875 
Q 41.796875 52.984375 37.671875 58.78125 
Q 33.546875 64.59375 27.390625 64.59375 
Q 21.34375 64.59375 17.71875 59.46875 
Q 13.1875 52.9375 13.1875 35.296875 
z
" id="ArialMT-48"/>
       </defs>
       <use xlink:href="#ArialMT-48"/>
      </g>
     </g>
    </g>
    <g id="xtick_5">
     <g id="line2d_5">
      <path clip-path="url(#pa9209cda80)" d="M 273.397384 456.669375 
L 273.397384 21.789375 
" style="fill:none;stroke:#cccccc;stroke-linecap:round;stroke-width:0.8;"/>
     </g>
     <g id="text_5">
      <!-- 1 -->
      <g style="fill:#262626;" transform="translate(270.616915 470.827187)scale(0.1 -0.1)">
       <use xlink:href="#ArialMT-49"/>
      </g>
     </g>
    </g>
    <g id="xtick_6">
     <g id="line2d_6">
      <path clip-path="url(#pa9209cda80)" d="M 329.5781 456.669375 
L 329.5781 21.789375 
" style="fill:none;stroke:#cccccc;stroke-linecap:round;stroke-width:0.8;"/>
     </g>
     <g id="text_6">
      <!-- 2 -->
      <g style="fill:#262626;" transform="translate(326.797631 470.827187)scale(0.1 -0.1)">
       <use xlink:href="#ArialMT-50"/>
      </g>
     </g>
    </g>
    <g id="xtick_7">
     <g id="line2d_7">
      <path clip-path="url(#pa9209cda80)" d="M 385.758816 456.669375 
L 385.758816 21.789375 
" style="fill:none;stroke:#cccccc;stroke-linecap:round;stroke-width:0.8;"/>
     </g>
     <g id="text_7">
      <!-- 3 -->
      <g style="fill:#262626;" transform="translate(382.978347 470.827187)scale(0.1 -0.1)">
       <use xlink:href="#ArialMT-51"/>
      </g>
     </g>
    </g>
    <g id="xtick_8">
     <g id="line2d_8">
      <path clip-path="url(#pa9209cda80)" d="M 441.939531 456.669375 
L 441.939531 21.789375 
" style="fill:none;stroke:#cccccc;stroke-linecap:round;stroke-width:0.8;"/>
     </g>
     <g id="text_8">
      <!-- 4 -->
      <g style="fill:#262626;" transform="translate(439.159063 470.827187)scale(0.1 -0.1)">
       <defs>
        <path d="M 32.328125 0 
L 32.328125 17.140625 
L 1.265625 17.140625 
L 1.265625 25.203125 
L 33.9375 71.578125 
L 41.109375 71.578125 
L 41.109375 25.203125 
L 50.78125 25.203125 
L 50.78125 17.140625 
L 41.109375 17.140625 
L 41.109375 0 
z
M 32.328125 25.203125 
L 32.328125 57.46875 
L 9.90625 25.203125 
z
" id="ArialMT-52"/>
       </defs>
       <use xlink:href="#ArialMT-52"/>
      </g>
     </g>
    </g>
    <g id="xtick_9">
     <g id="line2d_9">
      <path clip-path="url(#pa9209cda80)" d="M 498.120247 456.669375 
L 498.120247 21.789375 
" style="fill:none;stroke:#cccccc;stroke-linecap:round;stroke-width:0.8;"/>
     </g>
     <g id="text_9">
      <!-- 5 -->
      <g style="fill:#262626;" transform="translate(495.339778 470.827187)scale(0.1 -0.1)">
       <defs>
        <path d="M 4.15625 18.75 
L 13.375 19.53125 
Q 14.40625 12.796875 18.140625 9.390625 
Q 21.875 6 27.15625 6 
Q 33.5 6 37.890625 10.78125 
Q 42.28125 15.578125 42.28125 23.484375 
Q 42.28125 31 38.0625 35.34375 
Q 33.84375 39.703125 27 39.703125 
Q 22.75 39.703125 19.328125 37.765625 
Q 15.921875 35.84375 13.96875 32.765625 
L 5.71875 33.84375 
L 12.640625 70.609375 
L 48.25 70.609375 
L 48.25 62.203125 
L 19.671875 62.203125 
L 15.828125 42.96875 
Q 22.265625 47.46875 29.34375 47.46875 
Q 38.71875 47.46875 45.15625 40.96875 
Q 51.609375 34.46875 51.609375 24.265625 
Q 51.609375 14.546875 45.953125 7.46875 
Q 39.0625 -1.21875 27.15625 -1.21875 
Q 17.390625 -1.21875 11.203125 4.25 
Q 5.03125 9.71875 4.15625 18.75 
z
" id="ArialMT-53"/>
       </defs>
       <use xlink:href="#ArialMT-53"/>
      </g>
     </g>
    </g>
    <g id="text_10">
     <!-- y -->
     <g style="fill:#262626;" transform="translate(287.464063 483.855312)scale(0.1 -0.1)">
      <defs>
       <path d="M 6.203125 -19.96875 
L 5.21875 -11.71875 
Q 8.109375 -12.5 10.25 -12.5 
Q 13.1875 -12.5 14.9375 -11.515625 
Q 16.703125 -10.546875 17.828125 -8.796875 
Q 18.65625 -7.46875 20.515625 -2.25 
Q 20.75 -1.515625 21.296875 -0.09375 
L 1.609375 51.859375 
L 11.078125 51.859375 
L 21.875 21.828125 
Q 23.96875 16.109375 25.640625 9.8125 
Q 27.15625 15.875 29.25 21.625 
L 40.328125 51.859375 
L 49.125 51.859375 
L 29.390625 -0.875 
Q 26.21875 -9.421875 24.46875 -12.640625 
Q 22.125 -17 19.09375 -19.015625 
Q 16.0625 -21.046875 11.859375 -21.046875 
Q 9.328125 -21.046875 6.203125 -19.96875 
z
" id="ArialMT-121"/>
      </defs>
      <use xlink:href="#ArialMT-121"/>
     </g>
    </g>
   </g>
   <g id="matplotlib.axis_2">
    <g id="ytick_1">
     <g id="line2d_10">
      <path clip-path="url(#pa9209cda80)" d="M 38.864063 456.56308 
L 541.064063 456.56308 
" style="fill:none;stroke:#cccccc;stroke-linecap:round;stroke-width:0.8;"/>
     </g>
     <g id="text_11">
      <!-- −3 -->
      <g style="fill:#262626;" transform="translate(20.4625 460.141987)scale(0.1 -0.1)">
       <use xlink:href="#ArialMT-8722"/>
       <use x="58.398438" xlink:href="#ArialMT-51"/>
      </g>
     </g>
    </g>
    <g id="ytick_2">
     <g id="line2d_11">
      <path clip-path="url(#pa9209cda80)" d="M 38.864063 402.145937 
L 541.064063 402.145937 
" style="fill:none;stroke:#cccccc;stroke-linecap:round;stroke-width:0.8;"/>
     </g>
     <g id="text_12">
      <!-- −2 -->
      <g style="fill:#262626;" transform="translate(20.4625 405.724844)scale(0.1 -0.1)">
       <use xlink:href="#ArialMT-8722"/>
       <use x="58.398438" xlink:href="#ArialMT-50"/>
      </g>
     </g>
    </g>
    <g id="ytick_3">
     <g id="line2d_12">
      <path clip-path="url(#pa9209cda80)" d="M 38.864063 347.728794 
L 541.064063 347.728794 
" style="fill:none;stroke:#cccccc;stroke-linecap:round;stroke-width:0.8;"/>
     </g>
     <g id="text_13">
      <!-- −1 -->
      <g style="fill:#262626;" transform="translate(20.4625 351.307701)scale(0.1 -0.1)">
       <use xlink:href="#ArialMT-8722"/>
       <use x="58.398438" xlink:href="#ArialMT-49"/>
      </g>
     </g>
    </g>
    <g id="ytick_4">
     <g id="line2d_13">
      <path clip-path="url(#pa9209cda80)" d="M 38.864063 293.311651 
L 541.064063 293.311651 
" style="fill:none;stroke:#cccccc;stroke-linecap:round;stroke-width:0.8;"/>
     </g>
     <g id="text_14">
      <!-- 0 -->
      <g style="fill:#262626;" transform="translate(26.303125 296.890557)scale(0.1 -0.1)">
       <use xlink:href="#ArialMT-48"/>
      </g>
     </g>
    </g>
    <g id="ytick_5">
     <g id="line2d_14">
      <path clip-path="url(#pa9209cda80)" d="M 38.864063 238.894508 
L 541.064063 238.894508 
" style="fill:none;stroke:#cccccc;stroke-linecap:round;stroke-width:0.8;"/>
     </g>
     <g id="text_15">
      <!-- 1 -->
      <g style="fill:#262626;" transform="translate(26.303125 242.473414)scale(0.1 -0.1)">
       <use xlink:href="#ArialMT-49"/>
      </g>
     </g>
    </g>
    <g id="ytick_6">
     <g id="line2d_15">
      <path clip-path="url(#pa9209cda80)" d="M 38.864063 184.477365 
L 541.064063 184.477365 
" style="fill:none;stroke:#cccccc;stroke-linecap:round;stroke-width:0.8;"/>
     </g>
     <g id="text_16">
      <!-- 2 -->
      <g style="fill:#262626;" transform="translate(26.303125 188.056271)scale(0.1 -0.1)">
       <use xlink:href="#ArialMT-50"/>
      </g>
     </g>
    </g>
    <g id="ytick_7">
     <g id="line2d_16">
      <path clip-path="url(#pa9209cda80)" d="M 38.864063 130.060222 
L 541.064063 130.060222 
" style="fill:none;stroke:#cccccc;stroke-linecap:round;stroke-width:0.8;"/>
     </g>
     <g id="text_17">
      <!-- 3 -->
      <g style="fill:#262626;" transform="translate(26.303125 133.639128)scale(0.1 -0.1)">
       <use xlink:href="#ArialMT-51"/>
      </g>
     </g>
    </g>
    <g id="ytick_8">
     <g id="line2d_17">
      <path clip-path="url(#pa9209cda80)" d="M 38.864063 75.643079 
L 541.064063 75.643079 
" style="fill:none;stroke:#cccccc;stroke-linecap:round;stroke-width:0.8;"/>
     </g>
     <g id="text_18">
      <!-- 4 -->
      <g style="fill:#262626;" transform="translate(26.303125 79.221985)scale(0.1 -0.1)">
       <use xlink:href="#ArialMT-52"/>
      </g>
     </g>
    </g>
    <g id="text_19">
     <!-- y_pred -->
     <g style="fill:#262626;" transform="translate(14.357812 254.516094)rotate(-90)scale(0.1 -0.1)">
      <defs>
       <path d="M -1.515625 -19.875 
L -1.515625 -13.53125 
L 56.734375 -13.53125 
L 56.734375 -19.875 
z
" id="ArialMT-95"/>
       <path d="M 6.59375 -19.875 
L 6.59375 51.859375 
L 14.59375 51.859375 
L 14.59375 45.125 
Q 17.4375 49.078125 21 51.046875 
Q 24.5625 53.03125 29.640625 53.03125 
Q 36.28125 53.03125 41.359375 49.609375 
Q 46.4375 46.1875 49.015625 39.953125 
Q 51.609375 33.734375 51.609375 26.3125 
Q 51.609375 18.359375 48.75 11.984375 
Q 45.90625 5.609375 40.453125 2.21875 
Q 35.015625 -1.171875 29 -1.171875 
Q 24.609375 -1.171875 21.109375 0.6875 
Q 17.625 2.546875 15.375 5.375 
L 15.375 -19.875 
z
M 14.546875 25.640625 
Q 14.546875 15.625 18.59375 10.84375 
Q 22.65625 6.0625 28.421875 6.0625 
Q 34.28125 6.0625 38.453125 11.015625 
Q 42.625 15.96875 42.625 26.375 
Q 42.625 36.28125 38.546875 41.203125 
Q 34.46875 46.140625 28.8125 46.140625 
Q 23.1875 46.140625 18.859375 40.890625 
Q 14.546875 35.640625 14.546875 25.640625 
z
" id="ArialMT-112"/>
       <path d="M 6.5 0 
L 6.5 51.859375 
L 14.40625 51.859375 
L 14.40625 44 
Q 17.4375 49.515625 20 51.265625 
Q 22.5625 53.03125 25.640625 53.03125 
Q 30.078125 53.03125 34.671875 50.203125 
L 31.640625 42.046875 
Q 28.421875 43.953125 25.203125 43.953125 
Q 22.3125 43.953125 20.015625 42.21875 
Q 17.71875 40.484375 16.75 37.40625 
Q 15.28125 32.71875 15.28125 27.15625 
L 15.28125 0 
z
" id="ArialMT-114"/>
       <path d="M 42.09375 16.703125 
L 51.171875 15.578125 
Q 49.03125 7.625 43.21875 3.21875 
Q 37.40625 -1.171875 28.375 -1.171875 
Q 17 -1.171875 10.328125 5.828125 
Q 3.65625 12.84375 3.65625 25.484375 
Q 3.65625 38.578125 10.390625 45.796875 
Q 17.140625 53.03125 27.875 53.03125 
Q 38.28125 53.03125 44.875 45.953125 
Q 51.46875 38.875 51.46875 26.03125 
Q 51.46875 25.25 51.421875 23.6875 
L 12.75 23.6875 
Q 13.234375 15.140625 17.578125 10.59375 
Q 21.921875 6.0625 28.421875 6.0625 
Q 33.25 6.0625 36.671875 8.59375 
Q 40.09375 11.140625 42.09375 16.703125 
z
M 13.234375 30.90625 
L 42.1875 30.90625 
Q 41.609375 37.453125 38.875 40.71875 
Q 34.671875 45.796875 27.984375 45.796875 
Q 21.921875 45.796875 17.796875 41.75 
Q 13.671875 37.703125 13.234375 30.90625 
z
" id="ArialMT-101"/>
       <path d="M 40.234375 0 
L 40.234375 6.546875 
Q 35.296875 -1.171875 25.734375 -1.171875 
Q 19.53125 -1.171875 14.328125 2.25 
Q 9.125 5.671875 6.265625 11.796875 
Q 3.421875 17.921875 3.421875 25.875 
Q 3.421875 33.640625 6 39.96875 
Q 8.59375 46.296875 13.765625 49.65625 
Q 18.953125 53.03125 25.34375 53.03125 
Q 30.03125 53.03125 33.6875 51.046875 
Q 37.359375 49.078125 39.65625 45.90625 
L 39.65625 71.578125 
L 48.390625 71.578125 
L 48.390625 0 
z
M 12.453125 25.875 
Q 12.453125 15.921875 16.640625 10.984375 
Q 20.84375 6.0625 26.5625 6.0625 
Q 32.328125 6.0625 36.34375 10.765625 
Q 40.375 15.484375 40.375 25.140625 
Q 40.375 35.796875 36.265625 40.765625 
Q 32.171875 45.75 26.171875 45.75 
Q 20.3125 45.75 16.375 40.96875 
Q 12.453125 36.1875 12.453125 25.875 
z
" id="ArialMT-100"/>
      </defs>
      <use xlink:href="#ArialMT-121"/>
      <use x="50" xlink:href="#ArialMT-95"/>
      <use x="105.615234" xlink:href="#ArialMT-112"/>
      <use x="161.230469" xlink:href="#ArialMT-114"/>
      <use x="194.53125" xlink:href="#ArialMT-101"/>
      <use x="250.146484" xlink:href="#ArialMT-100"/>
     </g>
    </g>
   </g>
   <g id="PolyCollection_1">
    <defs>
     <path d="M 38.864062 -155.365382 
L 38.864062 -103.124592 
L 43.93679 -106.291261 
L 49.009517 -109.536397 
L 54.082244 -112.696463 
L 59.154972 -115.977965 
L 64.227699 -119.094256 
L 69.300426 -122.211216 
L 74.373153 -125.328176 
L 79.445881 -128.564514 
L 84.518608 -131.72999 
L 89.591335 -134.994653 
L 94.664062 -138.227929 
L 99.73679 -141.375291 
L 104.809517 -144.535158 
L 109.882244 -147.759283 
L 114.954972 -151.033173 
L 120.027699 -154.253006 
L 125.100426 -157.493734 
L 130.173153 -160.764963 
L 135.245881 -164.03635 
L 140.318608 -167.172738 
L 145.391335 -170.408049 
L 150.464063 -173.567897 
L 155.53679 -176.548135 
L 160.609517 -179.748378 
L 165.682244 -182.986837 
L 170.754972 -186.306135 
L 175.827699 -189.34889 
L 180.900426 -192.459147 
L 185.973153 -195.423494 
L 191.045881 -198.268607 
L 196.118608 -201.116626 
L 201.191335 -204.179413 
L 206.264063 -207.270547 
L 211.33679 -210.234188 
L 216.409517 -213.195654 
L 221.482244 -216.301636 
L 226.554972 -219.187104 
L 231.627699 -221.934329 
L 236.700426 -224.996956 
L 241.773153 -227.677628 
L 246.845881 -230.531094 
L 251.918608 -233.297746 
L 256.991335 -236.182915 
L 262.064062 -238.814643 
L 267.13679 -241.580451 
L 272.209517 -244.323519 
L 277.282244 -247.058964 
L 282.354972 -249.559479 
L 287.427699 -252.295114 
L 292.500426 -254.76238 
L 297.573153 -257.036317 
L 302.645881 -259.459843 
L 307.718608 -261.760802 
L 312.791335 -264.360382 
L 317.864063 -266.447804 
L 322.93679 -268.654946 
L 328.009517 -270.874651 
L 333.082244 -273.394351 
L 338.154972 -275.920596 
L 343.227699 -278.409739 
L 348.300426 -280.530901 
L 353.373153 -282.590311 
L 358.445881 -284.64972 
L 363.518608 -286.732096 
L 368.591335 -288.874379 
L 373.664062 -290.992217 
L 378.73679 -293.159529 
L 383.809517 -295.328755 
L 388.882244 -297.654046 
L 393.954972 -299.781252 
L 399.027699 -301.843052 
L 404.100426 -304.010752 
L 409.173153 -306.181852 
L 414.245881 -308.353671 
L 419.318608 -310.526773 
L 424.391335 -312.745739 
L 429.464063 -314.964705 
L 434.53679 -317.183671 
L 439.609517 -319.206622 
L 444.682244 -321.370658 
L 449.754972 -323.534694 
L 454.827699 -325.698729 
L 459.900426 -327.870597 
L 464.973153 -330.017428 
L 470.045881 -332.11677 
L 475.118608 -334.216113 
L 480.191335 -336.456006 
L 485.264063 -338.729179 
L 490.33679 -340.786731 
L 495.409517 -342.808025 
L 500.482244 -344.829319 
L 505.554972 -346.850613 
L 510.627699 -348.871907 
L 515.700426 -350.963603 
L 520.773153 -353.114652 
L 525.845881 -355.297972 
L 530.918608 -357.481292 
L 535.991335 -359.591751 
L 541.064063 -361.675262 
L 541.064063 -424.173998 
L 541.064063 -424.173998 
L 535.991335 -420.996022 
L 530.918608 -417.818046 
L 525.845881 -414.64007 
L 520.773153 -411.462094 
L 515.700426 -408.279889 
L 510.627699 -405.097207 
L 505.554972 -401.914525 
L 500.482244 -398.731843 
L 495.409517 -395.452753 
L 490.33679 -392.313148 
L 485.264063 -389.201644 
L 480.191335 -386.121852 
L 475.118608 -383.055894 
L 470.045881 -379.989268 
L 464.973153 -376.74311 
L 459.900426 -373.470332 
L 454.827699 -370.284949 
L 449.754972 -367.189147 
L 444.682244 -364.12213 
L 439.609517 -361.055113 
L 434.53679 -357.977293 
L 429.464063 -354.882434 
L 424.391335 -351.787575 
L 419.318608 -348.619451 
L 414.245881 -345.473939 
L 409.173153 -342.360808 
L 404.100426 -339.140193 
L 399.027699 -335.98497 
L 393.954972 -332.786544 
L 388.882244 -329.644502 
L 383.809517 -326.416281 
L 378.73679 -323.349774 
L 373.664062 -320.41835 
L 368.591335 -317.486926 
L 363.518608 -314.51782 
L 358.445881 -311.204931 
L 353.373153 -308.055178 
L 348.300426 -304.999787 
L 343.227699 -301.716979 
L 338.154972 -298.644914 
L 333.082244 -295.495658 
L 328.009517 -292.51446 
L 322.93679 -289.504481 
L 317.864063 -286.546685 
L 312.791335 -283.606254 
L 307.718608 -280.728905 
L 302.645881 -277.941716 
L 297.573153 -275.200607 
L 292.500426 -272.266144 
L 287.427699 -269.521269 
L 282.354972 -266.558509 
L 277.282244 -263.77785 
L 272.209517 -261.058909 
L 267.13679 -258.579656 
L 262.064062 -255.943443 
L 256.991335 -253.137012 
L 251.918608 -250.625534 
L 246.845881 -248.203648 
L 241.773153 -245.740889 
L 236.700426 -243.278991 
L 231.627699 -240.89044 
L 226.554972 -238.394223 
L 221.482244 -235.924963 
L 216.409517 -233.515618 
L 211.33679 -231.214055 
L 206.264063 -228.685333 
L 201.191335 -226.262769 
L 196.118608 -223.960078 
L 191.045881 -221.70036 
L 185.973153 -219.567672 
L 180.900426 -217.463614 
L 175.827699 -215.220547 
L 170.754972 -212.916217 
L 165.682244 -210.615631 
L 160.609517 -208.308926 
L 155.53679 -205.950565 
L 150.464063 -203.700109 
L 145.391335 -201.452793 
L 140.318608 -199.376978 
L 135.245881 -196.995419 
L 130.173153 -194.704777 
L 125.100426 -192.452901 
L 120.027699 -190.201024 
L 114.954972 -187.950155 
L 109.882244 -185.702309 
L 104.809517 -183.645842 
L 99.73679 -181.497039 
L 94.664062 -179.370811 
L 89.591335 -177.231813 
L 84.518608 -175.003726 
L 79.445881 -172.767987 
L 74.373153 -170.590815 
L 69.300426 -168.404212 
L 64.227699 -166.18377 
L 59.154972 -164.125038 
L 54.082244 -161.921133 
L 49.009517 -159.613149 
L 43.93679 -157.480169 
L 38.864062 -155.365382 
z
" id="mad23f3e31c" style="stroke:#ffffff;stroke-opacity:0.15;"/>
    </defs>
    <g clip-path="url(#pa9209cda80)">
     <use style="fill:#4c72b0;fill-opacity:0.15;stroke:#ffffff;stroke-opacity:0.15;" x="0" xlink:href="#mad23f3e31c" y="493.16"/>
    </g>
   </g>
   <g id="LineCollection_1">
    <path clip-path="url(#pa9209cda80)" d="M 281.64562 261.272449 
L 281.64562 216.100477 
" style="fill:none;stroke:#64b5cd;stroke-width:1.5;"/>
    <path clip-path="url(#pa9209cda80)" d="M 285.318794 267.934329 
L 285.318794 241.134765 
" style="fill:none;stroke:#64b5cd;stroke-width:1.5;"/>
    <path clip-path="url(#pa9209cda80)" d="M 361.004606 216.305648 
L 361.004606 183.659156 
" style="fill:none;stroke:#64b5cd;stroke-width:1.5;"/>
    <path clip-path="url(#pa9209cda80)" d="M 395.629389 180.121053 
L 395.629389 127.496872 
" style="fill:none;stroke:#64b5cd;stroke-width:1.5;"/>
    <path clip-path="url(#pa9209cda80)" d="M 178.313455 266.486362 
L 178.313455 241.544255 
" style="fill:none;stroke:#64b5cd;stroke-width:1.5;"/>
    <path clip-path="url(#pa9209cda80)" d="M 218.905653 251.905737 
L 218.905653 225.951627 
" style="fill:none;stroke:#64b5cd;stroke-width:1.5;"/>
    <path clip-path="url(#pa9209cda80)" d="M 444.037382 115.078286 
L 444.037382 41.556648 
" style="fill:none;stroke:#64b5cd;stroke-width:1.5;"/>
    <path clip-path="url(#pa9209cda80)" d="M 350.281229 195.547895 
L 350.281229 160.823763 
" style="fill:none;stroke:#64b5cd;stroke-width:1.5;"/>
    <path clip-path="url(#pa9209cda80)" d="M 283.192406 271.65598 
L 283.192406 245.443076 
" style="fill:none;stroke:#64b5cd;stroke-width:1.5;"/>
    <path clip-path="url(#pa9209cda80)" d="M 518.23679 214.935834 
L 518.23679 184.753479 
" style="fill:none;stroke:#64b5cd;stroke-width:1.5;"/>
    <path clip-path="url(#pa9209cda80)" d="M 225.536313 344.418768 
L 225.536313 288.019682 
" style="fill:none;stroke:#64b5cd;stroke-width:1.5;"/>
    <path clip-path="url(#pa9209cda80)" d="M 310.284457 278.850471 
L 310.284457 252.908232 
" style="fill:none;stroke:#64b5cd;stroke-width:1.5;"/>
    <path clip-path="url(#pa9209cda80)" d="M 342.279393 229.454584 
L 342.279393 203.181377 
" style="fill:none;stroke:#64b5cd;stroke-width:1.5;"/>
    <path clip-path="url(#pa9209cda80)" d="M 271.696909 334.305299 
L 271.696909 257.858089 
" style="fill:none;stroke:#64b5cd;stroke-width:1.5;"/>
    <path clip-path="url(#pa9209cda80)" d="M 153.374725 379.432883 
L 153.374725 329.306676 
" style="fill:none;stroke:#64b5cd;stroke-width:1.5;"/>
    <path clip-path="url(#pa9209cda80)" d="M 292.917676 277.220855 
L 292.917676 249.922159 
" style="fill:none;stroke:#64b5cd;stroke-width:1.5;"/>
    <path clip-path="url(#pa9209cda80)" d="M 172.102869 319.653134 
L 172.102869 285.593725 
" style="fill:none;stroke:#64b5cd;stroke-width:1.5;"/>
    <path clip-path="url(#pa9209cda80)" d="M 244.918801 263.977329 
L 244.918801 224.594644 
" style="fill:none;stroke:#64b5cd;stroke-width:1.5;"/>
    <path clip-path="url(#pa9209cda80)" d="M 227.218172 284.488176 
L 227.218172 243.920691 
" style="fill:none;stroke:#64b5cd;stroke-width:1.5;"/>
    <path clip-path="url(#pa9209cda80)" d="M 219.774967 330.29576 
L 219.774967 286.307061 
" style="fill:none;stroke:#64b5cd;stroke-width:1.5;"/>
    <path clip-path="url(#pa9209cda80)" d="M 507.998121 142.504393 
L 507.998121 87.739623 
" style="fill:none;stroke:#64b5cd;stroke-width:1.5;"/>
    <path clip-path="url(#pa9209cda80)" d="M 130.263796 290.52231 
L 130.263796 256.316011 
" style="fill:none;stroke:#64b5cd;stroke-width:1.5;"/>
    <path clip-path="url(#pa9209cda80)" d="M 355.150756 213.588219 
L 355.150756 170.686538 
" style="fill:none;stroke:#64b5cd;stroke-width:1.5;"/>
    <path clip-path="url(#pa9209cda80)" d="M 63.371987 395.812002 
L 63.371987 337.398107 
" style="fill:none;stroke:#64b5cd;stroke-width:1.5;"/>
    <path clip-path="url(#pa9209cda80)" d="M 232.785128 269.441989 
L 232.785128 240.083947 
" style="fill:none;stroke:#64b5cd;stroke-width:1.5;"/>
    <path clip-path="url(#pa9209cda80)" d="M 402.337797 198.407773 
L 402.337797 138.036232 
" style="fill:none;stroke:#64b5cd;stroke-width:1.5;"/>
    <path clip-path="url(#pa9209cda80)" d="M 184.520519 360.687141 
L 184.520519 314.019037 
" style="fill:none;stroke:#64b5cd;stroke-width:1.5;"/>
    <path clip-path="url(#pa9209cda80)" d="M 218.048389 239.50906 
L 218.048389 208.708377 
" style="fill:none;stroke:#64b5cd;stroke-width:1.5;"/>
    <path clip-path="url(#pa9209cda80)" d="M 202.266041 285.144005 
L 202.266041 257.894568 
" style="fill:none;stroke:#64b5cd;stroke-width:1.5;"/>
    <path clip-path="url(#pa9209cda80)" d="M 281.047299 281.153524 
L 281.047299 252.823029 
" style="fill:none;stroke:#64b5cd;stroke-width:1.5;"/>
    <path clip-path="url(#pa9209cda80)" d="M 155.001866 340.413333 
L 155.001866 290.843776 
" style="fill:none;stroke:#64b5cd;stroke-width:1.5;"/>
    <path clip-path="url(#pa9209cda80)" d="M 391.546456 137.930934 
L 391.546456 79.245144 
" style="fill:none;stroke:#64b5cd;stroke-width:1.5;"/>
    <path clip-path="url(#pa9209cda80)" d="M 245.358866 281.582759 
L 245.358866 245.072553 
" style="fill:none;stroke:#64b5cd;stroke-width:1.5;"/>
    <path clip-path="url(#pa9209cda80)" d="M 190.670435 309.776459 
L 190.670435 274.335059 
" style="fill:none;stroke:#64b5cd;stroke-width:1.5;"/>
    <path clip-path="url(#pa9209cda80)" d="M 414.229899 224.086489 
L 414.229899 183.312035 
" style="fill:none;stroke:#64b5cd;stroke-width:1.5;"/>
    <path clip-path="url(#pa9209cda80)" d="M 283.961748 299.734465 
L 283.961748 248.715445 
" style="fill:none;stroke:#64b5cd;stroke-width:1.5;"/>
    <path clip-path="url(#pa9209cda80)" d="M 149.355664 257.197209 
L 149.355664 224.87443 
" style="fill:none;stroke:#64b5cd;stroke-width:1.5;"/>
    <path clip-path="url(#pa9209cda80)" d="M 164.730029 401.742743 
L 164.730029 345.262663 
" style="fill:none;stroke:#64b5cd;stroke-width:1.5;"/>
    <path clip-path="url(#pa9209cda80)" d="M 184.451293 322.491861 
L 184.451293 279.592772 
" style="fill:none;stroke:#64b5cd;stroke-width:1.5;"/>
    <path clip-path="url(#pa9209cda80)" d="M 297.772087 273.798066 
L 297.772087 233.764806 
" style="fill:none;stroke:#64b5cd;stroke-width:1.5;"/>
    <path clip-path="url(#pa9209cda80)" d="M 276.750014 195.935586 
L 276.750014 161.482845 
" style="fill:none;stroke:#64b5cd;stroke-width:1.5;"/>
    <path clip-path="url(#pa9209cda80)" d="M 313.297107 208.60825 
L 313.297107 166.9087 
" style="fill:none;stroke:#64b5cd;stroke-width:1.5;"/>
    <path clip-path="url(#pa9209cda80)" d="M 250.115949 308.575914 
L 250.115949 260.81427 
" style="fill:none;stroke:#64b5cd;stroke-width:1.5;"/>
    <path clip-path="url(#pa9209cda80)" d="M 310.306343 261.675851 
L 310.306343 236.832801 
" style="fill:none;stroke:#64b5cd;stroke-width:1.5;"/>
    <path clip-path="url(#pa9209cda80)" d="M 130.19965 347.501174 
L 130.19965 304.203447 
" style="fill:none;stroke:#64b5cd;stroke-width:1.5;"/>
    <path clip-path="url(#pa9209cda80)" d="M 236.125187 277.943531 
L 236.125187 244.604787 
" style="fill:none;stroke:#64b5cd;stroke-width:1.5;"/>
    <path clip-path="url(#pa9209cda80)" d="M 186.089212 318.78767 
L 186.089212 276.891521 
" style="fill:none;stroke:#64b5cd;stroke-width:1.5;"/>
    <path clip-path="url(#pa9209cda80)" d="M 258.990663 223.683366 
L 258.990663 173.798353 
" style="fill:none;stroke:#64b5cd;stroke-width:1.5;"/>
    <path clip-path="url(#pa9209cda80)" d="M 406.548112 212.538728 
L 406.548112 181.882501 
" style="fill:none;stroke:#64b5cd;stroke-width:1.5;"/>
    <path clip-path="url(#pa9209cda80)" d="M 205.443095 368.737414 
L 205.443095 318.976843 
" style="fill:none;stroke:#64b5cd;stroke-width:1.5;"/>
    <path clip-path="url(#pa9209cda80)" d="M 227.803725 219.755814 
L 227.803725 191.7613 
" style="fill:none;stroke:#64b5cd;stroke-width:1.5;"/>
    <path clip-path="url(#pa9209cda80)" d="M 313.061182 263.585266 
L 313.061182 237.499881 
" style="fill:none;stroke:#64b5cd;stroke-width:1.5;"/>
    <path clip-path="url(#pa9209cda80)" d="M 335.489533 314.665001 
L 335.489533 280.170244 
" style="fill:none;stroke:#64b5cd;stroke-width:1.5;"/>
    <path clip-path="url(#pa9209cda80)" d="M 372.290525 203.144005 
L 372.290525 170.946344 
" style="fill:none;stroke:#64b5cd;stroke-width:1.5;"/>
    <path clip-path="url(#pa9209cda80)" d="M 254.192895 177.787629 
L 254.192895 137.066395 
" style="fill:none;stroke:#64b5cd;stroke-width:1.5;"/>
    <path clip-path="url(#pa9209cda80)" d="M 278.446364 211.097537 
L 278.446364 170.838931 
" style="fill:none;stroke:#64b5cd;stroke-width:1.5;"/>
    <path clip-path="url(#pa9209cda80)" d="M 349.835794 266.939994 
L 349.835794 213.69842 
" style="fill:none;stroke:#64b5cd;stroke-width:1.5;"/>
    <path clip-path="url(#pa9209cda80)" d="M 229.57837 255.469354 
L 229.57837 228.687252 
" style="fill:none;stroke:#64b5cd;stroke-width:1.5;"/>
    <path clip-path="url(#pa9209cda80)" d="M 283.477951 263.699347 
L 283.477951 223.806107 
" style="fill:none;stroke:#64b5cd;stroke-width:1.5;"/>
    <path clip-path="url(#pa9209cda80)" d="M 390.166526 172.851584 
L 390.166526 130.0107 
" style="fill:none;stroke:#64b5cd;stroke-width:1.5;"/>
    <path clip-path="url(#pa9209cda80)" d="M 167.022258 310.625288 
L 167.022258 273.531756 
" style="fill:none;stroke:#64b5cd;stroke-width:1.5;"/>
    <path clip-path="url(#pa9209cda80)" d="M 281.732242 240.785042 
L 281.732242 210.157145 
" style="fill:none;stroke:#64b5cd;stroke-width:1.5;"/>
    <path clip-path="url(#pa9209cda80)" d="M 61.691335 298.690389 
L 61.691335 255.355565 
" style="fill:none;stroke:#64b5cd;stroke-width:1.5;"/>
    <path clip-path="url(#pa9209cda80)" d="M 125.589548 358.320199 
L 125.589548 313.358304 
" style="fill:none;stroke:#64b5cd;stroke-width:1.5;"/>
    <path clip-path="url(#pa9209cda80)" d="M 331.917789 176.066685 
L 331.917789 132.18702 
" style="fill:none;stroke:#64b5cd;stroke-width:1.5;"/>
    <path clip-path="url(#pa9209cda80)" d="M 291.085734 156.882919 
L 291.085734 108.157313 
" style="fill:none;stroke:#64b5cd;stroke-width:1.5;"/>
    <path clip-path="url(#pa9209cda80)" d="M 384.153803 232.663464 
L 384.153803 201.236546 
" style="fill:none;stroke:#64b5cd;stroke-width:1.5;"/>
    <path clip-path="url(#pa9209cda80)" d="M 302.711807 148.34534 
L 302.711807 84.587991 
" style="fill:none;stroke:#64b5cd;stroke-width:1.5;"/>
    <path clip-path="url(#pa9209cda80)" d="M 262.099302 230.528576 
L 262.099302 202.438456 
" style="fill:none;stroke:#64b5cd;stroke-width:1.5;"/>
    <path clip-path="url(#pa9209cda80)" d="M 223.326475 314.854101 
L 223.326475 279.668725 
" style="fill:none;stroke:#64b5cd;stroke-width:1.5;"/>
    <path clip-path="url(#pa9209cda80)" d="M 349.685829 251.173325 
L 349.685829 216.203555 
" style="fill:none;stroke:#64b5cd;stroke-width:1.5;"/>
    <path clip-path="url(#pa9209cda80)" d="M 256.221214 179.6889 
L 256.221214 126.644957 
" style="fill:none;stroke:#64b5cd;stroke-width:1.5;"/>
    <path clip-path="url(#pa9209cda80)" d="M 334.566208 250.773309 
L 334.566208 226.282893 
" style="fill:none;stroke:#64b5cd;stroke-width:1.5;"/>
    <path clip-path="url(#pa9209cda80)" d="M 371.458163 147.049777 
L 371.458163 93.988604 
" style="fill:none;stroke:#64b5cd;stroke-width:1.5;"/>
    <path clip-path="url(#pa9209cda80)" d="M 78.848719 436.902102 
L 78.848719 366.283501 
" style="fill:none;stroke:#64b5cd;stroke-width:1.5;"/>
    <path clip-path="url(#pa9209cda80)" d="M 368.769627 178.169144 
L 368.769627 136.098816 
" style="fill:none;stroke:#64b5cd;stroke-width:1.5;"/>
    <path clip-path="url(#pa9209cda80)" d="M 289.836292 240.383275 
L 289.836292 215.458034 
" style="fill:none;stroke:#64b5cd;stroke-width:1.5;"/>
    <path clip-path="url(#pa9209cda80)" d="M 263.708614 236.660609 
L 263.708614 193.848177 
" style="fill:none;stroke:#64b5cd;stroke-width:1.5;"/>
    <path clip-path="url(#pa9209cda80)" d="M 275.039794 247.941465 
L 275.039794 222.089535 
" style="fill:none;stroke:#64b5cd;stroke-width:1.5;"/>
    <path clip-path="url(#pa9209cda80)" d="M 216.497672 335.274286 
L 216.497672 253.096272 
" style="fill:none;stroke:#64b5cd;stroke-width:1.5;"/>
    <path clip-path="url(#pa9209cda80)" d="M 285.008764 246.218247 
L 285.008764 217.879077 
" style="fill:none;stroke:#64b5cd;stroke-width:1.5;"/>
    <path clip-path="url(#pa9209cda80)" d="M 306.581339 250.331565 
L 306.581339 215.889622 
" style="fill:none;stroke:#64b5cd;stroke-width:1.5;"/>
    <path clip-path="url(#pa9209cda80)" d="M 415.448333 191.024574 
L 415.448333 136.954364 
" style="fill:none;stroke:#64b5cd;stroke-width:1.5;"/>
    <path clip-path="url(#pa9209cda80)" d="M 188.292056 269.863899 
L 188.292056 241.746131 
" style="fill:none;stroke:#64b5cd;stroke-width:1.5;"/>
    <path clip-path="url(#pa9209cda80)" d="M 341.533826 309.742376 
L 341.533826 278.294278 
" style="fill:none;stroke:#64b5cd;stroke-width:1.5;"/>
    <path clip-path="url(#pa9209cda80)" d="M 155.595156 263.791498 
L 155.595156 233.257494 
" style="fill:none;stroke:#64b5cd;stroke-width:1.5;"/>
    <path clip-path="url(#pa9209cda80)" d="M 329.591347 180.211131 
L 329.591347 140.462744 
" style="fill:none;stroke:#64b5cd;stroke-width:1.5;"/>
    <path clip-path="url(#pa9209cda80)" d="M 322.873148 227.671137 
L 322.873148 200.478563 
" style="fill:none;stroke:#64b5cd;stroke-width:1.5;"/>
    <path clip-path="url(#pa9209cda80)" d="M 235.634663 309.72658 
L 235.634663 274.359538 
" style="fill:none;stroke:#64b5cd;stroke-width:1.5;"/>
    <path clip-path="url(#pa9209cda80)" d="M 224.696811 263.839496 
L 224.696811 216.632627 
" style="fill:none;stroke:#64b5cd;stroke-width:1.5;"/>
    <path clip-path="url(#pa9209cda80)" d="M 254.616048 253.225134 
L 254.616048 225.80092 
" style="fill:none;stroke:#64b5cd;stroke-width:1.5;"/>
    <path clip-path="url(#pa9209cda80)" d="M 324.175953 169.15835 
L 324.175953 123.958808 
" style="fill:none;stroke:#64b5cd;stroke-width:1.5;"/>
    <path clip-path="url(#pa9209cda80)" d="M 206.858575 289.586274 
L 206.858575 260.886097 
" style="fill:none;stroke:#64b5cd;stroke-width:1.5;"/>
    <path clip-path="url(#pa9209cda80)" d="M 267.727096 309.753493 
L 267.727096 268.639414 
" style="fill:none;stroke:#64b5cd;stroke-width:1.5;"/>
    <path clip-path="url(#pa9209cda80)" d="M 276.290568 268.298589 
L 276.290568 242.972929 
" style="fill:none;stroke:#64b5cd;stroke-width:1.5;"/>
    <path clip-path="url(#pa9209cda80)" d="M 163.071612 343.084283 
L 163.071612 299.922634 
" style="fill:none;stroke:#64b5cd;stroke-width:1.5;"/>
    <path clip-path="url(#pa9209cda80)" d="M 315.745927 255.096855 
L 315.745927 220.692781 
" style="fill:none;stroke:#64b5cd;stroke-width:1.5;"/>
    <path clip-path="url(#pa9209cda80)" d="M 309.646154 225.925497 
L 309.646154 199.171939 
" style="fill:none;stroke:#64b5cd;stroke-width:1.5;"/>
    <path clip-path="url(#pa9209cda80)" d="M 320.986944 244.447457 
L 320.986944 219.921337 
" style="fill:none;stroke:#64b5cd;stroke-width:1.5;"/>
    <path clip-path="url(#pa9209cda80)" d="M 263.484664 299.533944 
L 263.484664 260.946508 
" style="fill:none;stroke:#64b5cd;stroke-width:1.5;"/>
   </g>
   <g id="line2d_18">
    <defs>
     <path d="M 2 0 
L -2 -0 
" id="m22a22359dc" style="stroke:#64b5cd;"/>
    </defs>
    <g clip-path="url(#pa9209cda80)">
     <use style="fill:#64b5cd;stroke:#64b5cd;" x="281.64562" xlink:href="#m22a22359dc" y="261.272449"/>
     <use style="fill:#64b5cd;stroke:#64b5cd;" x="285.318794" xlink:href="#m22a22359dc" y="267.934329"/>
     <use style="fill:#64b5cd;stroke:#64b5cd;" x="361.004606" xlink:href="#m22a22359dc" y="216.305648"/>
     <use style="fill:#64b5cd;stroke:#64b5cd;" x="395.629389" xlink:href="#m22a22359dc" y="180.121053"/>
     <use style="fill:#64b5cd;stroke:#64b5cd;" x="178.313455" xlink:href="#m22a22359dc" y="266.486362"/>
     <use style="fill:#64b5cd;stroke:#64b5cd;" x="218.905653" xlink:href="#m22a22359dc" y="251.905737"/>
     <use style="fill:#64b5cd;stroke:#64b5cd;" x="444.037382" xlink:href="#m22a22359dc" y="115.078286"/>
     <use style="fill:#64b5cd;stroke:#64b5cd;" x="350.281229" xlink:href="#m22a22359dc" y="195.547895"/>
     <use style="fill:#64b5cd;stroke:#64b5cd;" x="283.192406" xlink:href="#m22a22359dc" y="271.65598"/>
     <use style="fill:#64b5cd;stroke:#64b5cd;" x="518.23679" xlink:href="#m22a22359dc" y="214.935834"/>
     <use style="fill:#64b5cd;stroke:#64b5cd;" x="225.536313" xlink:href="#m22a22359dc" y="344.418768"/>
     <use style="fill:#64b5cd;stroke:#64b5cd;" x="310.284457" xlink:href="#m22a22359dc" y="278.850471"/>
     <use style="fill:#64b5cd;stroke:#64b5cd;" x="342.279393" xlink:href="#m22a22359dc" y="229.454584"/>
     <use style="fill:#64b5cd;stroke:#64b5cd;" x="271.696909" xlink:href="#m22a22359dc" y="334.305299"/>
     <use style="fill:#64b5cd;stroke:#64b5cd;" x="153.374725" xlink:href="#m22a22359dc" y="379.432883"/>
     <use style="fill:#64b5cd;stroke:#64b5cd;" x="292.917676" xlink:href="#m22a22359dc" y="277.220855"/>
     <use style="fill:#64b5cd;stroke:#64b5cd;" x="172.102869" xlink:href="#m22a22359dc" y="319.653134"/>
     <use style="fill:#64b5cd;stroke:#64b5cd;" x="244.918801" xlink:href="#m22a22359dc" y="263.977329"/>
     <use style="fill:#64b5cd;stroke:#64b5cd;" x="227.218172" xlink:href="#m22a22359dc" y="284.488176"/>
     <use style="fill:#64b5cd;stroke:#64b5cd;" x="219.774967" xlink:href="#m22a22359dc" y="330.29576"/>
     <use style="fill:#64b5cd;stroke:#64b5cd;" x="507.998121" xlink:href="#m22a22359dc" y="142.504393"/>
     <use style="fill:#64b5cd;stroke:#64b5cd;" x="130.263796" xlink:href="#m22a22359dc" y="290.52231"/>
     <use style="fill:#64b5cd;stroke:#64b5cd;" x="355.150756" xlink:href="#m22a22359dc" y="213.588219"/>
     <use style="fill:#64b5cd;stroke:#64b5cd;" x="63.371987" xlink:href="#m22a22359dc" y="395.812002"/>
     <use style="fill:#64b5cd;stroke:#64b5cd;" x="232.785128" xlink:href="#m22a22359dc" y="269.441989"/>
     <use style="fill:#64b5cd;stroke:#64b5cd;" x="402.337797" xlink:href="#m22a22359dc" y="198.407773"/>
     <use style="fill:#64b5cd;stroke:#64b5cd;" x="184.520519" xlink:href="#m22a22359dc" y="360.687141"/>
     <use style="fill:#64b5cd;stroke:#64b5cd;" x="218.048389" xlink:href="#m22a22359dc" y="239.50906"/>
     <use style="fill:#64b5cd;stroke:#64b5cd;" x="202.266041" xlink:href="#m22a22359dc" y="285.144005"/>
     <use style="fill:#64b5cd;stroke:#64b5cd;" x="281.047299" xlink:href="#m22a22359dc" y="281.153524"/>
     <use style="fill:#64b5cd;stroke:#64b5cd;" x="155.001866" xlink:href="#m22a22359dc" y="340.413333"/>
     <use style="fill:#64b5cd;stroke:#64b5cd;" x="391.546456" xlink:href="#m22a22359dc" y="137.930934"/>
     <use style="fill:#64b5cd;stroke:#64b5cd;" x="245.358866" xlink:href="#m22a22359dc" y="281.582759"/>
     <use style="fill:#64b5cd;stroke:#64b5cd;" x="190.670435" xlink:href="#m22a22359dc" y="309.776459"/>
     <use style="fill:#64b5cd;stroke:#64b5cd;" x="414.229899" xlink:href="#m22a22359dc" y="224.086489"/>
     <use style="fill:#64b5cd;stroke:#64b5cd;" x="283.961748" xlink:href="#m22a22359dc" y="299.734465"/>
     <use style="fill:#64b5cd;stroke:#64b5cd;" x="149.355664" xlink:href="#m22a22359dc" y="257.197209"/>
     <use style="fill:#64b5cd;stroke:#64b5cd;" x="164.730029" xlink:href="#m22a22359dc" y="401.742743"/>
     <use style="fill:#64b5cd;stroke:#64b5cd;" x="184.451293" xlink:href="#m22a22359dc" y="322.491861"/>
     <use style="fill:#64b5cd;stroke:#64b5cd;" x="297.772087" xlink:href="#m22a22359dc" y="273.798066"/>
     <use style="fill:#64b5cd;stroke:#64b5cd;" x="276.750014" xlink:href="#m22a22359dc" y="195.935586"/>
     <use style="fill:#64b5cd;stroke:#64b5cd;" x="313.297107" xlink:href="#m22a22359dc" y="208.60825"/>
     <use style="fill:#64b5cd;stroke:#64b5cd;" x="250.115949" xlink:href="#m22a22359dc" y="308.575914"/>
     <use style="fill:#64b5cd;stroke:#64b5cd;" x="310.306343" xlink:href="#m22a22359dc" y="261.675851"/>
     <use style="fill:#64b5cd;stroke:#64b5cd;" x="130.19965" xlink:href="#m22a22359dc" y="347.501174"/>
     <use style="fill:#64b5cd;stroke:#64b5cd;" x="236.125187" xlink:href="#m22a22359dc" y="277.943531"/>
     <use style="fill:#64b5cd;stroke:#64b5cd;" x="186.089212" xlink:href="#m22a22359dc" y="318.78767"/>
     <use style="fill:#64b5cd;stroke:#64b5cd;" x="258.990663" xlink:href="#m22a22359dc" y="223.683366"/>
     <use style="fill:#64b5cd;stroke:#64b5cd;" x="406.548112" xlink:href="#m22a22359dc" y="212.538728"/>
     <use style="fill:#64b5cd;stroke:#64b5cd;" x="205.443095" xlink:href="#m22a22359dc" y="368.737414"/>
     <use style="fill:#64b5cd;stroke:#64b5cd;" x="227.803725" xlink:href="#m22a22359dc" y="219.755814"/>
     <use style="fill:#64b5cd;stroke:#64b5cd;" x="313.061182" xlink:href="#m22a22359dc" y="263.585266"/>
     <use style="fill:#64b5cd;stroke:#64b5cd;" x="335.489533" xlink:href="#m22a22359dc" y="314.665001"/>
     <use style="fill:#64b5cd;stroke:#64b5cd;" x="372.290525" xlink:href="#m22a22359dc" y="203.144005"/>
     <use style="fill:#64b5cd;stroke:#64b5cd;" x="254.192895" xlink:href="#m22a22359dc" y="177.787629"/>
     <use style="fill:#64b5cd;stroke:#64b5cd;" x="278.446364" xlink:href="#m22a22359dc" y="211.097537"/>
     <use style="fill:#64b5cd;stroke:#64b5cd;" x="349.835794" xlink:href="#m22a22359dc" y="266.939994"/>
     <use style="fill:#64b5cd;stroke:#64b5cd;" x="229.57837" xlink:href="#m22a22359dc" y="255.469354"/>
     <use style="fill:#64b5cd;stroke:#64b5cd;" x="283.477951" xlink:href="#m22a22359dc" y="263.699347"/>
     <use style="fill:#64b5cd;stroke:#64b5cd;" x="390.166526" xlink:href="#m22a22359dc" y="172.851584"/>
     <use style="fill:#64b5cd;stroke:#64b5cd;" x="167.022258" xlink:href="#m22a22359dc" y="310.625288"/>
     <use style="fill:#64b5cd;stroke:#64b5cd;" x="281.732242" xlink:href="#m22a22359dc" y="240.785042"/>
     <use style="fill:#64b5cd;stroke:#64b5cd;" x="61.691335" xlink:href="#m22a22359dc" y="298.690389"/>
     <use style="fill:#64b5cd;stroke:#64b5cd;" x="125.589548" xlink:href="#m22a22359dc" y="358.320199"/>
     <use style="fill:#64b5cd;stroke:#64b5cd;" x="331.917789" xlink:href="#m22a22359dc" y="176.066685"/>
     <use style="fill:#64b5cd;stroke:#64b5cd;" x="291.085734" xlink:href="#m22a22359dc" y="156.882919"/>
     <use style="fill:#64b5cd;stroke:#64b5cd;" x="384.153803" xlink:href="#m22a22359dc" y="232.663464"/>
     <use style="fill:#64b5cd;stroke:#64b5cd;" x="302.711807" xlink:href="#m22a22359dc" y="148.34534"/>
     <use style="fill:#64b5cd;stroke:#64b5cd;" x="262.099302" xlink:href="#m22a22359dc" y="230.528576"/>
     <use style="fill:#64b5cd;stroke:#64b5cd;" x="223.326475" xlink:href="#m22a22359dc" y="314.854101"/>
     <use style="fill:#64b5cd;stroke:#64b5cd;" x="349.685829" xlink:href="#m22a22359dc" y="251.173325"/>
     <use style="fill:#64b5cd;stroke:#64b5cd;" x="256.221214" xlink:href="#m22a22359dc" y="179.6889"/>
     <use style="fill:#64b5cd;stroke:#64b5cd;" x="334.566208" xlink:href="#m22a22359dc" y="250.773309"/>
     <use style="fill:#64b5cd;stroke:#64b5cd;" x="371.458163" xlink:href="#m22a22359dc" y="147.049777"/>
     <use style="fill:#64b5cd;stroke:#64b5cd;" x="78.848719" xlink:href="#m22a22359dc" y="436.902102"/>
     <use style="fill:#64b5cd;stroke:#64b5cd;" x="368.769627" xlink:href="#m22a22359dc" y="178.169144"/>
     <use style="fill:#64b5cd;stroke:#64b5cd;" x="289.836292" xlink:href="#m22a22359dc" y="240.383275"/>
     <use style="fill:#64b5cd;stroke:#64b5cd;" x="263.708614" xlink:href="#m22a22359dc" y="236.660609"/>
     <use style="fill:#64b5cd;stroke:#64b5cd;" x="275.039794" xlink:href="#m22a22359dc" y="247.941465"/>
     <use style="fill:#64b5cd;stroke:#64b5cd;" x="216.497672" xlink:href="#m22a22359dc" y="335.274286"/>
     <use style="fill:#64b5cd;stroke:#64b5cd;" x="285.008764" xlink:href="#m22a22359dc" y="246.218247"/>
     <use style="fill:#64b5cd;stroke:#64b5cd;" x="306.581339" xlink:href="#m22a22359dc" y="250.331565"/>
     <use style="fill:#64b5cd;stroke:#64b5cd;" x="415.448333" xlink:href="#m22a22359dc" y="191.024574"/>
     <use style="fill:#64b5cd;stroke:#64b5cd;" x="188.292056" xlink:href="#m22a22359dc" y="269.863899"/>
     <use style="fill:#64b5cd;stroke:#64b5cd;" x="341.533826" xlink:href="#m22a22359dc" y="309.742376"/>
     <use style="fill:#64b5cd;stroke:#64b5cd;" x="155.595156" xlink:href="#m22a22359dc" y="263.791498"/>
     <use style="fill:#64b5cd;stroke:#64b5cd;" x="329.591347" xlink:href="#m22a22359dc" y="180.211131"/>
     <use style="fill:#64b5cd;stroke:#64b5cd;" x="322.873148" xlink:href="#m22a22359dc" y="227.671137"/>
     <use style="fill:#64b5cd;stroke:#64b5cd;" x="235.634663" xlink:href="#m22a22359dc" y="309.72658"/>
     <use style="fill:#64b5cd;stroke:#64b5cd;" x="224.696811" xlink:href="#m22a22359dc" y="263.839496"/>
     <use style="fill:#64b5cd;stroke:#64b5cd;" x="254.616048" xlink:href="#m22a22359dc" y="253.225134"/>
     <use style="fill:#64b5cd;stroke:#64b5cd;" x="324.175953" xlink:href="#m22a22359dc" y="169.15835"/>
     <use style="fill:#64b5cd;stroke:#64b5cd;" x="206.858575" xlink:href="#m22a22359dc" y="289.586274"/>
     <use style="fill:#64b5cd;stroke:#64b5cd;" x="267.727096" xlink:href="#m22a22359dc" y="309.753493"/>
     <use style="fill:#64b5cd;stroke:#64b5cd;" x="276.290568" xlink:href="#m22a22359dc" y="268.298589"/>
     <use style="fill:#64b5cd;stroke:#64b5cd;" x="163.071612" xlink:href="#m22a22359dc" y="343.084283"/>
     <use style="fill:#64b5cd;stroke:#64b5cd;" x="315.745927" xlink:href="#m22a22359dc" y="255.096855"/>
     <use style="fill:#64b5cd;stroke:#64b5cd;" x="309.646154" xlink:href="#m22a22359dc" y="225.925497"/>
     <use style="fill:#64b5cd;stroke:#64b5cd;" x="320.986944" xlink:href="#m22a22359dc" y="244.447457"/>
     <use style="fill:#64b5cd;stroke:#64b5cd;" x="263.484664" xlink:href="#m22a22359dc" y="299.533944"/>
    </g>
   </g>
   <g id="line2d_19">
    <g clip-path="url(#pa9209cda80)">
     <use style="fill:#64b5cd;stroke:#64b5cd;" x="281.64562" xlink:href="#m22a22359dc" y="216.100477"/>
     <use style="fill:#64b5cd;stroke:#64b5cd;" x="285.318794" xlink:href="#m22a22359dc" y="241.134765"/>
     <use style="fill:#64b5cd;stroke:#64b5cd;" x="361.004606" xlink:href="#m22a22359dc" y="183.659156"/>
     <use style="fill:#64b5cd;stroke:#64b5cd;" x="395.629389" xlink:href="#m22a22359dc" y="127.496872"/>
     <use style="fill:#64b5cd;stroke:#64b5cd;" x="178.313455" xlink:href="#m22a22359dc" y="241.544255"/>
     <use style="fill:#64b5cd;stroke:#64b5cd;" x="218.905653" xlink:href="#m22a22359dc" y="225.951627"/>
     <use style="fill:#64b5cd;stroke:#64b5cd;" x="444.037382" xlink:href="#m22a22359dc" y="41.556648"/>
     <use style="fill:#64b5cd;stroke:#64b5cd;" x="350.281229" xlink:href="#m22a22359dc" y="160.823763"/>
     <use style="fill:#64b5cd;stroke:#64b5cd;" x="283.192406" xlink:href="#m22a22359dc" y="245.443076"/>
     <use style="fill:#64b5cd;stroke:#64b5cd;" x="518.23679" xlink:href="#m22a22359dc" y="184.753479"/>
     <use style="fill:#64b5cd;stroke:#64b5cd;" x="225.536313" xlink:href="#m22a22359dc" y="288.019682"/>
     <use style="fill:#64b5cd;stroke:#64b5cd;" x="310.284457" xlink:href="#m22a22359dc" y="252.908232"/>
     <use style="fill:#64b5cd;stroke:#64b5cd;" x="342.279393" xlink:href="#m22a22359dc" y="203.181377"/>
     <use style="fill:#64b5cd;stroke:#64b5cd;" x="271.696909" xlink:href="#m22a22359dc" y="257.858089"/>
     <use style="fill:#64b5cd;stroke:#64b5cd;" x="153.374725" xlink:href="#m22a22359dc" y="329.306676"/>
     <use style="fill:#64b5cd;stroke:#64b5cd;" x="292.917676" xlink:href="#m22a22359dc" y="249.922159"/>
     <use style="fill:#64b5cd;stroke:#64b5cd;" x="172.102869" xlink:href="#m22a22359dc" y="285.593725"/>
     <use style="fill:#64b5cd;stroke:#64b5cd;" x="244.918801" xlink:href="#m22a22359dc" y="224.594644"/>
     <use style="fill:#64b5cd;stroke:#64b5cd;" x="227.218172" xlink:href="#m22a22359dc" y="243.920691"/>
     <use style="fill:#64b5cd;stroke:#64b5cd;" x="219.774967" xlink:href="#m22a22359dc" y="286.307061"/>
     <use style="fill:#64b5cd;stroke:#64b5cd;" x="507.998121" xlink:href="#m22a22359dc" y="87.739623"/>
     <use style="fill:#64b5cd;stroke:#64b5cd;" x="130.263796" xlink:href="#m22a22359dc" y="256.316011"/>
     <use style="fill:#64b5cd;stroke:#64b5cd;" x="355.150756" xlink:href="#m22a22359dc" y="170.686538"/>
     <use style="fill:#64b5cd;stroke:#64b5cd;" x="63.371987" xlink:href="#m22a22359dc" y="337.398107"/>
     <use style="fill:#64b5cd;stroke:#64b5cd;" x="232.785128" xlink:href="#m22a22359dc" y="240.083947"/>
     <use style="fill:#64b5cd;stroke:#64b5cd;" x="402.337797" xlink:href="#m22a22359dc" y="138.036232"/>
     <use style="fill:#64b5cd;stroke:#64b5cd;" x="184.520519" xlink:href="#m22a22359dc" y="314.019037"/>
     <use style="fill:#64b5cd;stroke:#64b5cd;" x="218.048389" xlink:href="#m22a22359dc" y="208.708377"/>
     <use style="fill:#64b5cd;stroke:#64b5cd;" x="202.266041" xlink:href="#m22a22359dc" y="257.894568"/>
     <use style="fill:#64b5cd;stroke:#64b5cd;" x="281.047299" xlink:href="#m22a22359dc" y="252.823029"/>
     <use style="fill:#64b5cd;stroke:#64b5cd;" x="155.001866" xlink:href="#m22a22359dc" y="290.843776"/>
     <use style="fill:#64b5cd;stroke:#64b5cd;" x="391.546456" xlink:href="#m22a22359dc" y="79.245144"/>
     <use style="fill:#64b5cd;stroke:#64b5cd;" x="245.358866" xlink:href="#m22a22359dc" y="245.072553"/>
     <use style="fill:#64b5cd;stroke:#64b5cd;" x="190.670435" xlink:href="#m22a22359dc" y="274.335059"/>
     <use style="fill:#64b5cd;stroke:#64b5cd;" x="414.229899" xlink:href="#m22a22359dc" y="183.312035"/>
     <use style="fill:#64b5cd;stroke:#64b5cd;" x="283.961748" xlink:href="#m22a22359dc" y="248.715445"/>
     <use style="fill:#64b5cd;stroke:#64b5cd;" x="149.355664" xlink:href="#m22a22359dc" y="224.87443"/>
     <use style="fill:#64b5cd;stroke:#64b5cd;" x="164.730029" xlink:href="#m22a22359dc" y="345.262663"/>
     <use style="fill:#64b5cd;stroke:#64b5cd;" x="184.451293" xlink:href="#m22a22359dc" y="279.592772"/>
     <use style="fill:#64b5cd;stroke:#64b5cd;" x="297.772087" xlink:href="#m22a22359dc" y="233.764806"/>
     <use style="fill:#64b5cd;stroke:#64b5cd;" x="276.750014" xlink:href="#m22a22359dc" y="161.482845"/>
     <use style="fill:#64b5cd;stroke:#64b5cd;" x="313.297107" xlink:href="#m22a22359dc" y="166.9087"/>
     <use style="fill:#64b5cd;stroke:#64b5cd;" x="250.115949" xlink:href="#m22a22359dc" y="260.81427"/>
     <use style="fill:#64b5cd;stroke:#64b5cd;" x="310.306343" xlink:href="#m22a22359dc" y="236.832801"/>
     <use style="fill:#64b5cd;stroke:#64b5cd;" x="130.19965" xlink:href="#m22a22359dc" y="304.203447"/>
     <use style="fill:#64b5cd;stroke:#64b5cd;" x="236.125187" xlink:href="#m22a22359dc" y="244.604787"/>
     <use style="fill:#64b5cd;stroke:#64b5cd;" x="186.089212" xlink:href="#m22a22359dc" y="276.891521"/>
     <use style="fill:#64b5cd;stroke:#64b5cd;" x="258.990663" xlink:href="#m22a22359dc" y="173.798353"/>
     <use style="fill:#64b5cd;stroke:#64b5cd;" x="406.548112" xlink:href="#m22a22359dc" y="181.882501"/>
     <use style="fill:#64b5cd;stroke:#64b5cd;" x="205.443095" xlink:href="#m22a22359dc" y="318.976843"/>
     <use style="fill:#64b5cd;stroke:#64b5cd;" x="227.803725" xlink:href="#m22a22359dc" y="191.7613"/>
     <use style="fill:#64b5cd;stroke:#64b5cd;" x="313.061182" xlink:href="#m22a22359dc" y="237.499881"/>
     <use style="fill:#64b5cd;stroke:#64b5cd;" x="335.489533" xlink:href="#m22a22359dc" y="280.170244"/>
     <use style="fill:#64b5cd;stroke:#64b5cd;" x="372.290525" xlink:href="#m22a22359dc" y="170.946344"/>
     <use style="fill:#64b5cd;stroke:#64b5cd;" x="254.192895" xlink:href="#m22a22359dc" y="137.066395"/>
     <use style="fill:#64b5cd;stroke:#64b5cd;" x="278.446364" xlink:href="#m22a22359dc" y="170.838931"/>
     <use style="fill:#64b5cd;stroke:#64b5cd;" x="349.835794" xlink:href="#m22a22359dc" y="213.69842"/>
     <use style="fill:#64b5cd;stroke:#64b5cd;" x="229.57837" xlink:href="#m22a22359dc" y="228.687252"/>
     <use style="fill:#64b5cd;stroke:#64b5cd;" x="283.477951" xlink:href="#m22a22359dc" y="223.806107"/>
     <use style="fill:#64b5cd;stroke:#64b5cd;" x="390.166526" xlink:href="#m22a22359dc" y="130.0107"/>
     <use style="fill:#64b5cd;stroke:#64b5cd;" x="167.022258" xlink:href="#m22a22359dc" y="273.531756"/>
     <use style="fill:#64b5cd;stroke:#64b5cd;" x="281.732242" xlink:href="#m22a22359dc" y="210.157145"/>
     <use style="fill:#64b5cd;stroke:#64b5cd;" x="61.691335" xlink:href="#m22a22359dc" y="255.355565"/>
     <use style="fill:#64b5cd;stroke:#64b5cd;" x="125.589548" xlink:href="#m22a22359dc" y="313.358304"/>
     <use style="fill:#64b5cd;stroke:#64b5cd;" x="331.917789" xlink:href="#m22a22359dc" y="132.18702"/>
     <use style="fill:#64b5cd;stroke:#64b5cd;" x="291.085734" xlink:href="#m22a22359dc" y="108.157313"/>
     <use style="fill:#64b5cd;stroke:#64b5cd;" x="384.153803" xlink:href="#m22a22359dc" y="201.236546"/>
     <use style="fill:#64b5cd;stroke:#64b5cd;" x="302.711807" xlink:href="#m22a22359dc" y="84.587991"/>
     <use style="fill:#64b5cd;stroke:#64b5cd;" x="262.099302" xlink:href="#m22a22359dc" y="202.438456"/>
     <use style="fill:#64b5cd;stroke:#64b5cd;" x="223.326475" xlink:href="#m22a22359dc" y="279.668725"/>
     <use style="fill:#64b5cd;stroke:#64b5cd;" x="349.685829" xlink:href="#m22a22359dc" y="216.203555"/>
     <use style="fill:#64b5cd;stroke:#64b5cd;" x="256.221214" xlink:href="#m22a22359dc" y="126.644957"/>
     <use style="fill:#64b5cd;stroke:#64b5cd;" x="334.566208" xlink:href="#m22a22359dc" y="226.282893"/>
     <use style="fill:#64b5cd;stroke:#64b5cd;" x="371.458163" xlink:href="#m22a22359dc" y="93.988604"/>
     <use style="fill:#64b5cd;stroke:#64b5cd;" x="78.848719" xlink:href="#m22a22359dc" y="366.283501"/>
     <use style="fill:#64b5cd;stroke:#64b5cd;" x="368.769627" xlink:href="#m22a22359dc" y="136.098816"/>
     <use style="fill:#64b5cd;stroke:#64b5cd;" x="289.836292" xlink:href="#m22a22359dc" y="215.458034"/>
     <use style="fill:#64b5cd;stroke:#64b5cd;" x="263.708614" xlink:href="#m22a22359dc" y="193.848177"/>
     <use style="fill:#64b5cd;stroke:#64b5cd;" x="275.039794" xlink:href="#m22a22359dc" y="222.089535"/>
     <use style="fill:#64b5cd;stroke:#64b5cd;" x="216.497672" xlink:href="#m22a22359dc" y="253.096272"/>
     <use style="fill:#64b5cd;stroke:#64b5cd;" x="285.008764" xlink:href="#m22a22359dc" y="217.879077"/>
     <use style="fill:#64b5cd;stroke:#64b5cd;" x="306.581339" xlink:href="#m22a22359dc" y="215.889622"/>
     <use style="fill:#64b5cd;stroke:#64b5cd;" x="415.448333" xlink:href="#m22a22359dc" y="136.954364"/>
     <use style="fill:#64b5cd;stroke:#64b5cd;" x="188.292056" xlink:href="#m22a22359dc" y="241.746131"/>
     <use style="fill:#64b5cd;stroke:#64b5cd;" x="341.533826" xlink:href="#m22a22359dc" y="278.294278"/>
     <use style="fill:#64b5cd;stroke:#64b5cd;" x="155.595156" xlink:href="#m22a22359dc" y="233.257494"/>
     <use style="fill:#64b5cd;stroke:#64b5cd;" x="329.591347" xlink:href="#m22a22359dc" y="140.462744"/>
     <use style="fill:#64b5cd;stroke:#64b5cd;" x="322.873148" xlink:href="#m22a22359dc" y="200.478563"/>
     <use style="fill:#64b5cd;stroke:#64b5cd;" x="235.634663" xlink:href="#m22a22359dc" y="274.359538"/>
     <use style="fill:#64b5cd;stroke:#64b5cd;" x="224.696811" xlink:href="#m22a22359dc" y="216.632627"/>
     <use style="fill:#64b5cd;stroke:#64b5cd;" x="254.616048" xlink:href="#m22a22359dc" y="225.80092"/>
     <use style="fill:#64b5cd;stroke:#64b5cd;" x="324.175953" xlink:href="#m22a22359dc" y="123.958808"/>
     <use style="fill:#64b5cd;stroke:#64b5cd;" x="206.858575" xlink:href="#m22a22359dc" y="260.886097"/>
     <use style="fill:#64b5cd;stroke:#64b5cd;" x="267.727096" xlink:href="#m22a22359dc" y="268.639414"/>
     <use style="fill:#64b5cd;stroke:#64b5cd;" x="276.290568" xlink:href="#m22a22359dc" y="242.972929"/>
     <use style="fill:#64b5cd;stroke:#64b5cd;" x="163.071612" xlink:href="#m22a22359dc" y="299.922634"/>
     <use style="fill:#64b5cd;stroke:#64b5cd;" x="315.745927" xlink:href="#m22a22359dc" y="220.692781"/>
     <use style="fill:#64b5cd;stroke:#64b5cd;" x="309.646154" xlink:href="#m22a22359dc" y="199.171939"/>
     <use style="fill:#64b5cd;stroke:#64b5cd;" x="320.986944" xlink:href="#m22a22359dc" y="219.921337"/>
     <use style="fill:#64b5cd;stroke:#64b5cd;" x="263.484664" xlink:href="#m22a22359dc" y="260.946508"/>
    </g>
   </g>
   <g id="line2d_20">
    <path clip-path="url(#pa9209cda80)" d="M 38.864062 361.783651 
L 43.93679 359.14101 
L 49.009517 356.498368 
L 54.082244 353.855727 
L 59.154972 351.213086 
L 64.227699 348.570444 
L 69.300426 345.927803 
L 74.373153 343.285161 
L 79.445881 340.64252 
L 84.518608 337.999879 
L 89.591335 335.357237 
L 94.664062 332.714596 
L 99.73679 330.071955 
L 104.809517 327.429313 
L 109.882244 324.786672 
L 114.954972 322.14403 
L 120.027699 319.501389 
L 125.100426 316.858748 
L 130.173153 314.216106 
L 135.245881 311.573465 
L 140.318608 308.930824 
L 145.391335 306.288182 
L 150.464063 303.645541 
L 155.53679 301.0029 
L 160.609517 298.360258 
L 165.682244 295.717617 
L 170.754972 293.074975 
L 175.827699 290.432334 
L 180.900426 287.789693 
L 185.973153 285.147051 
L 191.045881 282.50441 
L 196.118608 279.861769 
L 201.191335 277.219127 
L 206.264063 274.576486 
L 211.33679 271.933844 
L 216.409517 269.291203 
L 221.482244 266.648562 
L 226.554972 264.00592 
L 231.627699 261.363279 
L 236.700426 258.720638 
L 241.773153 256.077996 
L 246.845881 253.435355 
L 251.918608 250.792714 
L 256.991335 248.150072 
L 262.064062 245.507431 
L 267.13679 242.864789 
L 272.209517 240.222148 
L 277.282244 237.579507 
L 282.354972 234.936865 
L 287.427699 232.294224 
L 292.500426 229.651583 
L 297.573153 227.008941 
L 302.645881 224.3663 
L 307.718608 221.723658 
L 312.791335 219.081017 
L 317.864063 216.438376 
L 322.93679 213.795734 
L 328.009517 211.153093 
L 333.082244 208.510452 
L 338.154972 205.86781 
L 343.227699 203.225169 
L 348.300426 200.582528 
L 353.373153 197.939886 
L 358.445881 195.297245 
L 363.518608 192.654603 
L 368.591335 190.011962 
L 373.664062 187.369321 
L 378.73679 184.726679 
L 383.809517 182.084038 
L 388.882244 179.441397 
L 393.954972 176.798755 
L 399.027699 174.156114 
L 404.100426 171.513472 
L 409.173153 168.870831 
L 414.245881 166.22819 
L 419.318608 163.585548 
L 424.391335 160.942907 
L 429.464063 158.300266 
L 434.53679 155.657624 
L 439.609517 153.014983 
L 444.682244 150.372342 
L 449.754972 147.7297 
L 454.827699 145.087059 
L 459.900426 142.444417 
L 464.973153 139.801776 
L 470.045881 137.159135 
L 475.118608 134.516493 
L 480.191335 131.873852 
L 485.264063 129.231211 
L 490.33679 126.588569 
L 495.409517 123.945928 
L 500.482244 121.303286 
L 505.554972 118.660645 
L 510.627699 116.018004 
L 515.700426 113.375362 
L 520.773153 110.732721 
L 525.845881 108.09008 
L 530.918608 105.447438 
L 535.991335 102.804797 
L 541.064063 100.162156 
" style="fill:none;stroke:#4c72b0;stroke-linecap:round;stroke-opacity:0.5;stroke-width:2.25;"/>
   </g>
   <g id="line2d_21">
    <path clip-path="url(#pa9209cda80)" d="M 48.564782 456.669375 
L 497.538548 21.789375 
" style="fill:none;stroke:#c44e52;stroke-dasharray:5.55,2.4;stroke-dashoffset:0;stroke-width:1.5;"/>
   </g>
   <g id="line2d_22">
    <defs>
     <path d="M 0 3 
C 0.795609 3 1.55874 2.683901 2.12132 2.12132 
C 2.683901 1.55874 3 0.795609 3 0 
C 3 -0.795609 2.683901 -1.55874 2.12132 -2.12132 
C 1.55874 -2.683901 0.795609 -3 0 -3 
C -0.795609 -3 -1.55874 -2.683901 -2.12132 -2.12132 
C -2.683901 -1.55874 -3 -0.795609 -3 0 
C -3 0.795609 -2.683901 1.55874 -2.12132 2.12132 
C -1.55874 2.683901 -0.795609 3 0 3 
z
" id="m90e40d4c40" style="stroke:#4c72b0;"/>
    </defs>
    <g clip-path="url(#pa9209cda80)">
     <use style="fill:#4c72b0;stroke:#4c72b0;" x="281.64562" xlink:href="#m90e40d4c40" y="238.686463"/>
     <use style="fill:#4c72b0;stroke:#4c72b0;" x="285.318794" xlink:href="#m90e40d4c40" y="254.534547"/>
     <use style="fill:#4c72b0;stroke:#4c72b0;" x="361.004606" xlink:href="#m90e40d4c40" y="199.982402"/>
     <use style="fill:#4c72b0;stroke:#4c72b0;" x="395.629389" xlink:href="#m90e40d4c40" y="153.808962"/>
     <use style="fill:#4c72b0;stroke:#4c72b0;" x="178.313455" xlink:href="#m90e40d4c40" y="254.015309"/>
     <use style="fill:#4c72b0;stroke:#4c72b0;" x="218.905653" xlink:href="#m90e40d4c40" y="238.928682"/>
     <use style="fill:#4c72b0;stroke:#4c72b0;" x="444.037382" xlink:href="#m90e40d4c40" y="78.317473"/>
     <use style="fill:#4c72b0;stroke:#4c72b0;" x="350.281229" xlink:href="#m90e40d4c40" y="178.185829"/>
     <use style="fill:#4c72b0;stroke:#4c72b0;" x="283.192406" xlink:href="#m90e40d4c40" y="258.549528"/>
     <use style="fill:#4c72b0;stroke:#4c72b0;" x="518.23679" xlink:href="#m90e40d4c40" y="199.844657"/>
     <use style="fill:#4c72b0;stroke:#4c72b0;" x="225.536313" xlink:href="#m90e40d4c40" y="316.219225"/>
     <use style="fill:#4c72b0;stroke:#4c72b0;" x="310.284457" xlink:href="#m90e40d4c40" y="265.879352"/>
     <use style="fill:#4c72b0;stroke:#4c72b0;" x="342.279393" xlink:href="#m90e40d4c40" y="216.31798"/>
     <use style="fill:#4c72b0;stroke:#4c72b0;" x="271.696909" xlink:href="#m90e40d4c40" y="296.081693"/>
     <use style="fill:#4c72b0;stroke:#4c72b0;" x="153.374725" xlink:href="#m90e40d4c40" y="354.36978"/>
     <use style="fill:#4c72b0;stroke:#4c72b0;" x="292.917676" xlink:href="#m90e40d4c40" y="263.571507"/>
     <use style="fill:#4c72b0;stroke:#4c72b0;" x="172.102869" xlink:href="#m90e40d4c40" y="302.62343"/>
     <use style="fill:#4c72b0;stroke:#4c72b0;" x="244.918801" xlink:href="#m90e40d4c40" y="244.285988"/>
     <use style="fill:#4c72b0;stroke:#4c72b0;" x="227.218172" xlink:href="#m90e40d4c40" y="264.204433"/>
     <use style="fill:#4c72b0;stroke:#4c72b0;" x="219.774967" xlink:href="#m90e40d4c40" y="308.301411"/>
     <use style="fill:#4c72b0;stroke:#4c72b0;" x="507.998121" xlink:href="#m90e40d4c40" y="115.122008"/>
     <use style="fill:#4c72b0;stroke:#4c72b0;" x="130.263796" xlink:href="#m90e40d4c40" y="273.419161"/>
     <use style="fill:#4c72b0;stroke:#4c72b0;" x="355.150756" xlink:href="#m90e40d4c40" y="192.137379"/>
     <use style="fill:#4c72b0;stroke:#4c72b0;" x="63.371987" xlink:href="#m90e40d4c40" y="366.605056"/>
     <use style="fill:#4c72b0;stroke:#4c72b0;" x="232.785128" xlink:href="#m90e40d4c40" y="254.762968"/>
     <use style="fill:#4c72b0;stroke:#4c72b0;" x="402.337797" xlink:href="#m90e40d4c40" y="168.221999"/>
     <use style="fill:#4c72b0;stroke:#4c72b0;" x="184.520519" xlink:href="#m90e40d4c40" y="337.35309"/>
     <use style="fill:#4c72b0;stroke:#4c72b0;" x="218.048389" xlink:href="#m90e40d4c40" y="224.10872"/>
     <use style="fill:#4c72b0;stroke:#4c72b0;" x="202.266041" xlink:href="#m90e40d4c40" y="271.519287"/>
     <use style="fill:#4c72b0;stroke:#4c72b0;" x="281.047299" xlink:href="#m90e40d4c40" y="266.988277"/>
     <use style="fill:#4c72b0;stroke:#4c72b0;" x="155.001866" xlink:href="#m90e40d4c40" y="315.628555"/>
     <use style="fill:#4c72b0;stroke:#4c72b0;" x="391.546456" xlink:href="#m90e40d4c40" y="108.588039"/>
     <use style="fill:#4c72b0;stroke:#4c72b0;" x="245.358866" xlink:href="#m90e40d4c40" y="263.327656"/>
     <use style="fill:#4c72b0;stroke:#4c72b0;" x="190.670435" xlink:href="#m90e40d4c40" y="292.055759"/>
     <use style="fill:#4c72b0;stroke:#4c72b0;" x="414.229899" xlink:href="#m90e40d4c40" y="203.699262"/>
     <use style="fill:#4c72b0;stroke:#4c72b0;" x="283.961748" xlink:href="#m90e40d4c40" y="274.224955"/>
     <use style="fill:#4c72b0;stroke:#4c72b0;" x="149.355664" xlink:href="#m90e40d4c40" y="241.035818"/>
     <use style="fill:#4c72b0;stroke:#4c72b0;" x="164.730029" xlink:href="#m90e40d4c40" y="373.502701"/>
     <use style="fill:#4c72b0;stroke:#4c72b0;" x="184.451293" xlink:href="#m90e40d4c40" y="301.042317"/>
     <use style="fill:#4c72b0;stroke:#4c72b0;" x="297.772087" xlink:href="#m90e40d4c40" y="253.781435"/>
     <use style="fill:#4c72b0;stroke:#4c72b0;" x="276.750014" xlink:href="#m90e40d4c40" y="178.709216"/>
     <use style="fill:#4c72b0;stroke:#4c72b0;" x="313.297107" xlink:href="#m90e40d4c40" y="187.758478"/>
     <use style="fill:#4c72b0;stroke:#4c72b0;" x="250.115949" xlink:href="#m90e40d4c40" y="284.695093"/>
     <use style="fill:#4c72b0;stroke:#4c72b0;" x="310.306343" xlink:href="#m90e40d4c40" y="249.254326"/>
     <use style="fill:#4c72b0;stroke:#4c72b0;" x="130.19965" xlink:href="#m90e40d4c40" y="325.852311"/>
     <use style="fill:#4c72b0;stroke:#4c72b0;" x="236.125187" xlink:href="#m90e40d4c40" y="261.274158"/>
     <use style="fill:#4c72b0;stroke:#4c72b0;" x="186.089212" xlink:href="#m90e40d4c40" y="297.839595"/>
     <use style="fill:#4c72b0;stroke:#4c72b0;" x="258.990663" xlink:href="#m90e40d4c40" y="198.740863"/>
     <use style="fill:#4c72b0;stroke:#4c72b0;" x="406.548112" xlink:href="#m90e40d4c40" y="197.210611"/>
     <use style="fill:#4c72b0;stroke:#4c72b0;" x="205.443095" xlink:href="#m90e40d4c40" y="343.857128"/>
     <use style="fill:#4c72b0;stroke:#4c72b0;" x="227.803725" xlink:href="#m90e40d4c40" y="205.758557"/>
     <use style="fill:#4c72b0;stroke:#4c72b0;" x="313.061182" xlink:href="#m90e40d4c40" y="250.542575"/>
     <use style="fill:#4c72b0;stroke:#4c72b0;" x="335.489533" xlink:href="#m90e40d4c40" y="297.417622"/>
     <use style="fill:#4c72b0;stroke:#4c72b0;" x="372.290525" xlink:href="#m90e40d4c40" y="187.045171"/>
     <use style="fill:#4c72b0;stroke:#4c72b0;" x="254.192895" xlink:href="#m90e40d4c40" y="157.427012"/>
     <use style="fill:#4c72b0;stroke:#4c72b0;" x="278.446364" xlink:href="#m90e40d4c40" y="190.968234"/>
     <use style="fill:#4c72b0;stroke:#4c72b0;" x="349.835794" xlink:href="#m90e40d4c40" y="240.319206"/>
     <use style="fill:#4c72b0;stroke:#4c72b0;" x="229.57837" xlink:href="#m90e40d4c40" y="242.078303"/>
     <use style="fill:#4c72b0;stroke:#4c72b0;" x="283.477951" xlink:href="#m90e40d4c40" y="243.752725"/>
     <use style="fill:#4c72b0;stroke:#4c72b0;" x="390.166526" xlink:href="#m90e40d4c40" y="151.431142"/>
     <use style="fill:#4c72b0;stroke:#4c72b0;" x="167.022258" xlink:href="#m90e40d4c40" y="292.078522"/>
     <use style="fill:#4c72b0;stroke:#4c72b0;" x="281.732242" xlink:href="#m90e40d4c40" y="225.471094"/>
     <use style="fill:#4c72b0;stroke:#4c72b0;" x="61.691335" xlink:href="#m90e40d4c40" y="277.022978"/>
     <use style="fill:#4c72b0;stroke:#4c72b0;" x="125.589548" xlink:href="#m90e40d4c40" y="335.839251"/>
     <use style="fill:#4c72b0;stroke:#4c72b0;" x="331.917789" xlink:href="#m90e40d4c40" y="154.126853"/>
     <use style="fill:#4c72b0;stroke:#4c72b0;" x="291.085734" xlink:href="#m90e40d4c40" y="132.520116"/>
     <use style="fill:#4c72b0;stroke:#4c72b0;" x="384.153803" xlink:href="#m90e40d4c40" y="216.950005"/>
     <use style="fill:#4c72b0;stroke:#4c72b0;" x="302.711807" xlink:href="#m90e40d4c40" y="116.466666"/>
     <use style="fill:#4c72b0;stroke:#4c72b0;" x="262.099302" xlink:href="#m90e40d4c40" y="216.483516"/>
     <use style="fill:#4c72b0;stroke:#4c72b0;" x="223.326475" xlink:href="#m90e40d4c40" y="297.261413"/>
     <use style="fill:#4c72b0;stroke:#4c72b0;" x="349.685829" xlink:href="#m90e40d4c40" y="233.68844"/>
     <use style="fill:#4c72b0;stroke:#4c72b0;" x="256.221214" xlink:href="#m90e40d4c40" y="153.166928"/>
     <use style="fill:#4c72b0;stroke:#4c72b0;" x="334.566208" xlink:href="#m90e40d4c40" y="238.528101"/>
     <use style="fill:#4c72b0;stroke:#4c72b0;" x="371.458163" xlink:href="#m90e40d4c40" y="120.51919"/>
     <use style="fill:#4c72b0;stroke:#4c72b0;" x="78.848719" xlink:href="#m90e40d4c40" y="401.592801"/>
     <use style="fill:#4c72b0;stroke:#4c72b0;" x="368.769627" xlink:href="#m90e40d4c40" y="157.13398"/>
     <use style="fill:#4c72b0;stroke:#4c72b0;" x="289.836292" xlink:href="#m90e40d4c40" y="227.920654"/>
     <use style="fill:#4c72b0;stroke:#4c72b0;" x="263.708614" xlink:href="#m90e40d4c40" y="215.254393"/>
     <use style="fill:#4c72b0;stroke:#4c72b0;" x="275.039794" xlink:href="#m90e40d4c40" y="235.015498"/>
     <use style="fill:#4c72b0;stroke:#4c72b0;" x="216.497672" xlink:href="#m90e40d4c40" y="294.18528"/>
     <use style="fill:#4c72b0;stroke:#4c72b0;" x="285.008764" xlink:href="#m90e40d4c40" y="232.048662"/>
     <use style="fill:#4c72b0;stroke:#4c72b0;" x="306.581339" xlink:href="#m90e40d4c40" y="233.110595"/>
     <use style="fill:#4c72b0;stroke:#4c72b0;" x="415.448333" xlink:href="#m90e40d4c40" y="163.989472"/>
     <use style="fill:#4c72b0;stroke:#4c72b0;" x="188.292056" xlink:href="#m90e40d4c40" y="255.805015"/>
     <use style="fill:#4c72b0;stroke:#4c72b0;" x="341.533826" xlink:href="#m90e40d4c40" y="294.018328"/>
     <use style="fill:#4c72b0;stroke:#4c72b0;" x="155.595156" xlink:href="#m90e40d4c40" y="248.524496"/>
     <use style="fill:#4c72b0;stroke:#4c72b0;" x="329.591347" xlink:href="#m90e40d4c40" y="160.336938"/>
     <use style="fill:#4c72b0;stroke:#4c72b0;" x="322.873148" xlink:href="#m90e40d4c40" y="214.07485"/>
     <use style="fill:#4c72b0;stroke:#4c72b0;" x="235.634663" xlink:href="#m90e40d4c40" y="292.043058"/>
     <use style="fill:#4c72b0;stroke:#4c72b0;" x="224.696811" xlink:href="#m90e40d4c40" y="240.236061"/>
     <use style="fill:#4c72b0;stroke:#4c72b0;" x="254.616048" xlink:href="#m90e40d4c40" y="239.513027"/>
     <use style="fill:#4c72b0;stroke:#4c72b0;" x="324.175953" xlink:href="#m90e40d4c40" y="146.558579"/>
     <use style="fill:#4c72b0;stroke:#4c72b0;" x="206.858575" xlink:href="#m90e40d4c40" y="275.236186"/>
     <use style="fill:#4c72b0;stroke:#4c72b0;" x="267.727096" xlink:href="#m90e40d4c40" y="289.196454"/>
     <use style="fill:#4c72b0;stroke:#4c72b0;" x="276.290568" xlink:href="#m90e40d4c40" y="255.635759"/>
     <use style="fill:#4c72b0;stroke:#4c72b0;" x="163.071612" xlink:href="#m90e40d4c40" y="321.503458"/>
     <use style="fill:#4c72b0;stroke:#4c72b0;" x="315.745927" xlink:href="#m90e40d4c40" y="237.894818"/>
     <use style="fill:#4c72b0;stroke:#4c72b0;" x="309.646154" xlink:href="#m90e40d4c40" y="212.548718"/>
     <use style="fill:#4c72b0;stroke:#4c72b0;" x="320.986944" xlink:href="#m90e40d4c40" y="232.184397"/>
     <use style="fill:#4c72b0;stroke:#4c72b0;" x="263.484664" xlink:href="#m90e40d4c40" y="280.240226"/>
    </g>
   </g>
   <g id="patch_3">
    <path d="M 38.864063 456.669375 
L 38.864063 21.789375 
" style="fill:none;stroke:#ffffff;stroke-linecap:square;stroke-linejoin:miter;stroke-width:0.8;"/>
   </g>
   <g id="patch_4">
    <path d="M 541.064063 456.669375 
L 541.064063 21.789375 
" style="fill:none;stroke:#ffffff;stroke-linecap:square;stroke-linejoin:miter;stroke-width:0.8;"/>
   </g>
   <g id="patch_5">
    <path d="M 38.864062 456.669375 
L 541.064063 456.669375 
" style="fill:none;stroke:#ffffff;stroke-linecap:square;stroke-linejoin:miter;stroke-width:0.8;"/>
   </g>
   <g id="patch_6">
    <path d="M 38.864062 21.789375 
L 541.064063 21.789375 
" style="fill:none;stroke:#ffffff;stroke-linecap:square;stroke-linejoin:miter;stroke-width:0.8;"/>
   </g>
   <g id="text_20">
    <!-- Model Predictions -->
    <g style="fill:#262626;" transform="translate(242.277188 15.789375)scale(0.12 -0.12)">
     <defs>
      <path d="M 7.421875 0 
L 7.421875 71.578125 
L 21.6875 71.578125 
L 38.625 20.90625 
Q 40.96875 13.8125 42.046875 10.296875 
Q 43.265625 14.203125 45.84375 21.78125 
L 62.984375 71.578125 
L 75.734375 71.578125 
L 75.734375 0 
L 66.609375 0 
L 66.609375 59.90625 
L 45.796875 0 
L 37.25 0 
L 16.546875 60.9375 
L 16.546875 0 
z
" id="ArialMT-77"/>
      <path d="M 3.328125 25.921875 
Q 3.328125 40.328125 11.328125 47.265625 
Q 18.015625 53.03125 27.640625 53.03125 
Q 38.328125 53.03125 45.109375 46.015625 
Q 51.90625 39.015625 51.90625 26.65625 
Q 51.90625 16.65625 48.90625 10.90625 
Q 45.90625 5.171875 40.15625 2 
Q 34.421875 -1.171875 27.640625 -1.171875 
Q 16.75 -1.171875 10.03125 5.8125 
Q 3.328125 12.796875 3.328125 25.921875 
z
M 12.359375 25.921875 
Q 12.359375 15.96875 16.703125 11.015625 
Q 21.046875 6.0625 27.640625 6.0625 
Q 34.1875 6.0625 38.53125 11.03125 
Q 42.875 16.015625 42.875 26.21875 
Q 42.875 35.84375 38.5 40.796875 
Q 34.125 45.75 27.640625 45.75 
Q 21.046875 45.75 16.703125 40.8125 
Q 12.359375 35.890625 12.359375 25.921875 
z
" id="ArialMT-111"/>
      <path d="M 6.390625 0 
L 6.390625 71.578125 
L 15.1875 71.578125 
L 15.1875 0 
z
" id="ArialMT-108"/>
      <path id="ArialMT-32"/>
      <path d="M 7.71875 0 
L 7.71875 71.578125 
L 34.71875 71.578125 
Q 41.84375 71.578125 45.609375 70.90625 
Q 50.875 70.015625 54.4375 67.546875 
Q 58.015625 65.09375 60.1875 60.640625 
Q 62.359375 56.203125 62.359375 50.875 
Q 62.359375 41.75 56.546875 35.421875 
Q 50.734375 29.109375 35.546875 29.109375 
L 17.1875 29.109375 
L 17.1875 0 
z
M 17.1875 37.546875 
L 35.6875 37.546875 
Q 44.875 37.546875 48.734375 40.96875 
Q 52.59375 44.390625 52.59375 50.59375 
Q 52.59375 55.078125 50.3125 58.265625 
Q 48.046875 61.46875 44.34375 62.5 
Q 41.9375 63.140625 35.5 63.140625 
L 17.1875 63.140625 
z
" id="ArialMT-80"/>
      <path d="M 6.640625 61.46875 
L 6.640625 71.578125 
L 15.4375 71.578125 
L 15.4375 61.46875 
z
M 6.640625 0 
L 6.640625 51.859375 
L 15.4375 51.859375 
L 15.4375 0 
z
" id="ArialMT-105"/>
      <path d="M 40.4375 19 
L 49.078125 17.875 
Q 47.65625 8.9375 41.8125 3.875 
Q 35.984375 -1.171875 27.484375 -1.171875 
Q 16.84375 -1.171875 10.375 5.78125 
Q 3.90625 12.75 3.90625 25.734375 
Q 3.90625 34.125 6.6875 40.421875 
Q 9.46875 46.734375 15.15625 49.875 
Q 20.84375 53.03125 27.546875 53.03125 
Q 35.984375 53.03125 41.359375 48.75 
Q 46.734375 44.484375 48.25 36.625 
L 39.703125 35.296875 
Q 38.484375 40.53125 35.375 43.15625 
Q 32.28125 45.796875 27.875 45.796875 
Q 21.234375 45.796875 17.078125 41.03125 
Q 12.9375 36.28125 12.9375 25.984375 
Q 12.9375 15.53125 16.9375 10.796875 
Q 20.953125 6.0625 27.390625 6.0625 
Q 32.5625 6.0625 36.03125 9.234375 
Q 39.5 12.40625 40.4375 19 
z
" id="ArialMT-99"/>
      <path d="M 25.78125 7.859375 
L 27.046875 0.09375 
Q 23.34375 -0.6875 20.40625 -0.6875 
Q 15.625 -0.6875 12.984375 0.828125 
Q 10.359375 2.34375 9.28125 4.8125 
Q 8.203125 7.28125 8.203125 15.1875 
L 8.203125 45.015625 
L 1.765625 45.015625 
L 1.765625 51.859375 
L 8.203125 51.859375 
L 8.203125 64.703125 
L 16.9375 69.96875 
L 16.9375 51.859375 
L 25.78125 51.859375 
L 25.78125 45.015625 
L 16.9375 45.015625 
L 16.9375 14.703125 
Q 16.9375 10.9375 17.40625 9.859375 
Q 17.875 8.796875 18.921875 8.15625 
Q 19.96875 7.515625 21.921875 7.515625 
Q 23.390625 7.515625 25.78125 7.859375 
z
" id="ArialMT-116"/>
      <path d="M 6.59375 0 
L 6.59375 51.859375 
L 14.5 51.859375 
L 14.5 44.484375 
Q 20.21875 53.03125 31 53.03125 
Q 35.6875 53.03125 39.625 51.34375 
Q 43.5625 49.65625 45.515625 46.921875 
Q 47.46875 44.1875 48.25 40.4375 
Q 48.734375 37.984375 48.734375 31.890625 
L 48.734375 0 
L 39.9375 0 
L 39.9375 31.546875 
Q 39.9375 36.921875 38.90625 39.578125 
Q 37.890625 42.234375 35.28125 43.8125 
Q 32.671875 45.40625 29.15625 45.40625 
Q 23.53125 45.40625 19.453125 41.84375 
Q 15.375 38.28125 15.375 28.328125 
L 15.375 0 
z
" id="ArialMT-110"/>
      <path d="M 3.078125 15.484375 
L 11.765625 16.84375 
Q 12.5 11.625 15.84375 8.84375 
Q 19.1875 6.0625 25.203125 6.0625 
Q 31.25 6.0625 34.171875 8.515625 
Q 37.109375 10.984375 37.109375 14.3125 
Q 37.109375 17.28125 34.515625 19 
Q 32.71875 20.171875 25.53125 21.96875 
Q 15.875 24.421875 12.140625 26.203125 
Q 8.40625 27.984375 6.46875 31.125 
Q 4.546875 34.28125 4.546875 38.09375 
Q 4.546875 41.546875 6.125 44.5 
Q 7.71875 47.46875 10.453125 49.421875 
Q 12.5 50.921875 16.03125 51.96875 
Q 19.578125 53.03125 23.640625 53.03125 
Q 29.734375 53.03125 34.34375 51.265625 
Q 38.96875 49.515625 41.15625 46.5 
Q 43.359375 43.5 44.1875 38.484375 
L 35.59375 37.3125 
Q 35.015625 41.3125 32.203125 43.546875 
Q 29.390625 45.796875 24.265625 45.796875 
Q 18.21875 45.796875 15.625 43.796875 
Q 13.03125 41.796875 13.03125 39.109375 
Q 13.03125 37.40625 14.109375 36.03125 
Q 15.1875 34.625 17.484375 33.6875 
Q 18.796875 33.203125 25.25 31.453125 
Q 34.578125 28.953125 38.25 27.359375 
Q 41.9375 25.78125 44.03125 22.75 
Q 46.140625 19.734375 46.140625 15.234375 
Q 46.140625 10.84375 43.578125 6.953125 
Q 41.015625 3.078125 36.171875 0.953125 
Q 31.34375 -1.171875 25.25 -1.171875 
Q 15.140625 -1.171875 9.84375 3.03125 
Q 4.546875 7.234375 3.078125 15.484375 
z
" id="ArialMT-115"/>
     </defs>
     <use xlink:href="#ArialMT-77"/>
     <use x="83.300781" xlink:href="#ArialMT-111"/>
     <use x="138.916016" xlink:href="#ArialMT-100"/>
     <use x="194.53125" xlink:href="#ArialMT-101"/>
     <use x="250.146484" xlink:href="#ArialMT-108"/>
     <use x="272.363281" xlink:href="#ArialMT-32"/>
     <use x="300.146484" xlink:href="#ArialMT-80"/>
     <use x="366.845703" xlink:href="#ArialMT-114"/>
     <use x="400.146484" xlink:href="#ArialMT-101"/>
     <use x="455.761719" xlink:href="#ArialMT-100"/>
     <use x="511.376953" xlink:href="#ArialMT-105"/>
     <use x="533.59375" xlink:href="#ArialMT-99"/>
     <use x="583.59375" xlink:href="#ArialMT-116"/>
     <use x="611.376953" xlink:href="#ArialMT-105"/>
     <use x="633.59375" xlink:href="#ArialMT-111"/>
     <use x="689.208984" xlink:href="#ArialMT-110"/>
     <use x="744.824219" xlink:href="#ArialMT-115"/>
    </g>
   </g>
   <g id="legend_1">
    <g id="patch_7">
     <path d="M 305.035938 451.669375 
L 534.064063 451.669375 
Q 536.064063 451.669375 536.064063 449.669375 
L 536.064063 407.638125 
Q 536.064063 405.638125 534.064063 405.638125 
L 305.035938 405.638125 
Q 303.035938 405.638125 303.035938 407.638125 
L 303.035938 449.669375 
Q 303.035938 451.669375 305.035938 451.669375 
z
" style="fill:#e6e6e6;opacity:0.8;stroke:#cccccc;stroke-linejoin:miter;"/>
    </g>
    <g id="line2d_23">
     <path d="M 307.035938 413.295937 
L 327.035938 413.295937 
" style="fill:none;stroke:#4c72b0;stroke-linecap:round;stroke-opacity:0.5;stroke-width:2.25;"/>
    </g>
    <g id="line2d_24"/>
    <g id="text_21">
     <!-- y ~ y_pred -->
     <g style="fill:#262626;" transform="translate(335.035938 416.795937)scale(0.1 -0.1)">
      <defs>
       <path d="M 4.25 27.203125 
L 4.25 37.203125 
Q 9.421875 43.0625 17.828125 43.0625 
Q 20.75 43.0625 23.96875 42.203125 
Q 27.203125 41.359375 33.15625 38.8125 
Q 36.53125 37.40625 38.203125 36.96875 
Q 39.890625 36.53125 41.609375 36.53125 
Q 44.78125 36.53125 48.171875 38.421875 
Q 51.5625 40.328125 54.203125 43.21875 
L 54.203125 32.859375 
Q 51.078125 29.9375 47.875 28.609375 
Q 44.671875 27.296875 40.671875 27.296875 
Q 37.75 27.296875 35.078125 27.96875 
Q 32.421875 28.65625 26.625 31.25 
Q 20.84375 33.84375 17 33.84375 
Q 13.875 33.84375 11.109375 32.5 
Q 8.34375 31.15625 4.25 27.203125 
z
" id="ArialMT-126"/>
      </defs>
      <use xlink:href="#ArialMT-121"/>
      <use x="50" xlink:href="#ArialMT-32"/>
      <use x="77.783203" xlink:href="#ArialMT-126"/>
      <use x="136.181641" xlink:href="#ArialMT-32"/>
      <use x="163.964844" xlink:href="#ArialMT-121"/>
      <use x="213.964844" xlink:href="#ArialMT-95"/>
      <use x="269.580078" xlink:href="#ArialMT-112"/>
      <use x="325.195312" xlink:href="#ArialMT-114"/>
      <use x="358.496094" xlink:href="#ArialMT-101"/>
      <use x="414.111328" xlink:href="#ArialMT-100"/>
     </g>
    </g>
    <g id="line2d_25">
     <path d="M 307.035938 427.680312 
L 327.035938 427.680312 
" style="fill:none;stroke:#c44e52;stroke-dasharray:5.55,2.4;stroke-dashoffset:0;stroke-width:1.5;"/>
    </g>
    <g id="line2d_26"/>
    <g id="text_22">
     <!-- diagonal (y = y_pred) -->
     <g style="fill:#262626;" transform="translate(335.035938 431.180312)scale(0.1 -0.1)">
      <defs>
       <path d="M 40.4375 6.390625 
Q 35.546875 2.25 31.03125 0.53125 
Q 26.515625 -1.171875 21.34375 -1.171875 
Q 12.796875 -1.171875 8.203125 3 
Q 3.609375 7.171875 3.609375 13.671875 
Q 3.609375 17.484375 5.34375 20.625 
Q 7.078125 23.78125 9.890625 25.6875 
Q 12.703125 27.59375 16.21875 28.5625 
Q 18.796875 29.25 24.03125 29.890625 
Q 34.671875 31.15625 39.703125 32.90625 
Q 39.75 34.71875 39.75 35.203125 
Q 39.75 40.578125 37.25 42.78125 
Q 33.890625 45.75 27.25 45.75 
Q 21.046875 45.75 18.09375 43.578125 
Q 15.140625 41.40625 13.71875 35.890625 
L 5.125 37.0625 
Q 6.296875 42.578125 8.984375 45.96875 
Q 11.671875 49.359375 16.75 51.1875 
Q 21.828125 53.03125 28.515625 53.03125 
Q 35.15625 53.03125 39.296875 51.46875 
Q 43.453125 49.90625 45.40625 47.53125 
Q 47.359375 45.171875 48.140625 41.546875 
Q 48.578125 39.3125 48.578125 33.453125 
L 48.578125 21.734375 
Q 48.578125 9.46875 49.140625 6.21875 
Q 49.703125 2.984375 51.375 0 
L 42.1875 0 
Q 40.828125 2.734375 40.4375 6.390625 
z
M 39.703125 26.03125 
Q 34.90625 24.078125 25.34375 22.703125 
Q 19.921875 21.921875 17.671875 20.9375 
Q 15.4375 19.96875 14.203125 18.09375 
Q 12.984375 16.21875 12.984375 13.921875 
Q 12.984375 10.40625 15.640625 8.0625 
Q 18.3125 5.71875 23.4375 5.71875 
Q 28.515625 5.71875 32.46875 7.9375 
Q 36.421875 10.15625 38.28125 14.015625 
Q 39.703125 17 39.703125 22.796875 
z
" id="ArialMT-97"/>
       <path d="M 4.984375 -4.296875 
L 13.53125 -5.5625 
Q 14.0625 -9.515625 16.5 -11.328125 
Q 19.78125 -13.765625 25.4375 -13.765625 
Q 31.546875 -13.765625 34.859375 -11.328125 
Q 38.1875 -8.890625 39.359375 -4.5 
Q 40.046875 -1.8125 39.984375 6.78125 
Q 34.234375 0 25.640625 0 
Q 14.9375 0 9.078125 7.71875 
Q 3.21875 15.4375 3.21875 26.21875 
Q 3.21875 33.640625 5.90625 39.90625 
Q 8.59375 46.1875 13.6875 49.609375 
Q 18.796875 53.03125 25.6875 53.03125 
Q 34.859375 53.03125 40.828125 45.609375 
L 40.828125 51.859375 
L 48.921875 51.859375 
L 48.921875 7.03125 
Q 48.921875 -5.078125 46.453125 -10.125 
Q 44 -15.1875 38.640625 -18.109375 
Q 33.296875 -21.046875 25.484375 -21.046875 
Q 16.21875 -21.046875 10.5 -16.875 
Q 4.78125 -12.703125 4.984375 -4.296875 
z
M 12.25 26.859375 
Q 12.25 16.65625 16.296875 11.96875 
Q 20.359375 7.28125 26.46875 7.28125 
Q 32.515625 7.28125 36.609375 11.9375 
Q 40.71875 16.609375 40.71875 26.5625 
Q 40.71875 36.078125 36.5 40.90625 
Q 32.28125 45.75 26.3125 45.75 
Q 20.453125 45.75 16.34375 40.984375 
Q 12.25 36.234375 12.25 26.859375 
z
" id="ArialMT-103"/>
       <path d="M 23.390625 -21.046875 
Q 16.109375 -11.859375 11.078125 0.4375 
Q 6.0625 12.75 6.0625 25.921875 
Q 6.0625 37.546875 9.8125 48.1875 
Q 14.203125 60.546875 23.390625 72.796875 
L 29.6875 72.796875 
Q 23.78125 62.640625 21.875 58.296875 
Q 18.890625 51.5625 17.1875 44.234375 
Q 15.09375 35.109375 15.09375 25.875 
Q 15.09375 2.390625 29.6875 -21.046875 
z
" id="ArialMT-40"/>
       <path d="M 52.828125 42.09375 
L 5.5625 42.09375 
L 5.5625 50.296875 
L 52.828125 50.296875 
z
M 52.828125 20.359375 
L 5.5625 20.359375 
L 5.5625 28.5625 
L 52.828125 28.5625 
z
" id="ArialMT-61"/>
       <path d="M 12.359375 -21.046875 
L 6.0625 -21.046875 
Q 20.65625 2.390625 20.65625 25.875 
Q 20.65625 35.0625 18.5625 44.09375 
Q 16.890625 51.421875 13.921875 58.15625 
Q 12.015625 62.546875 6.0625 72.796875 
L 12.359375 72.796875 
Q 21.53125 60.546875 25.921875 48.1875 
Q 29.6875 37.546875 29.6875 25.921875 
Q 29.6875 12.75 24.625 0.4375 
Q 19.578125 -11.859375 12.359375 -21.046875 
z
" id="ArialMT-41"/>
      </defs>
      <use xlink:href="#ArialMT-100"/>
      <use x="55.615234" xlink:href="#ArialMT-105"/>
      <use x="77.832031" xlink:href="#ArialMT-97"/>
      <use x="133.447266" xlink:href="#ArialMT-103"/>
      <use x="189.0625" xlink:href="#ArialMT-111"/>
      <use x="244.677734" xlink:href="#ArialMT-110"/>
      <use x="300.292969" xlink:href="#ArialMT-97"/>
      <use x="355.908203" xlink:href="#ArialMT-108"/>
      <use x="378.125" xlink:href="#ArialMT-32"/>
      <use x="405.908203" xlink:href="#ArialMT-40"/>
      <use x="439.208984" xlink:href="#ArialMT-121"/>
      <use x="489.208984" xlink:href="#ArialMT-32"/>
      <use x="516.992188" xlink:href="#ArialMT-61"/>
      <use x="575.390625" xlink:href="#ArialMT-32"/>
      <use x="603.173828" xlink:href="#ArialMT-121"/>
      <use x="653.173828" xlink:href="#ArialMT-95"/>
      <use x="708.789062" xlink:href="#ArialMT-112"/>
      <use x="764.404297" xlink:href="#ArialMT-114"/>
      <use x="797.705078" xlink:href="#ArialMT-101"/>
      <use x="853.320312" xlink:href="#ArialMT-100"/>
      <use x="908.935547" xlink:href="#ArialMT-41"/>
     </g>
    </g>
    <g id="LineCollection_2">
     <path d="M 317.035938 447.064687 
L 317.035938 437.064687 
" style="fill:none;stroke:#64b5cd;stroke-width:1.5;"/>
    </g>
    <g id="line2d_27">
     <g>
      <use style="fill:#64b5cd;stroke:#64b5cd;" x="317.035938" xlink:href="#m22a22359dc" y="447.064687"/>
     </g>
    </g>
    <g id="line2d_28">
     <g>
      <use style="fill:#64b5cd;stroke:#64b5cd;" x="317.035938" xlink:href="#m22a22359dc" y="437.064687"/>
     </g>
    </g>
    <g id="line2d_29"/>
    <g id="line2d_30">
     <g>
      <use style="fill:#4c72b0;stroke:#4c72b0;" x="317.035938" xlink:href="#m90e40d4c40" y="442.064687"/>
     </g>
    </g>
    <g id="text_23">
     <!-- predictions + credible intervals (of the mean) -->
     <g style="fill:#262626;" transform="translate(335.035938 445.564687)scale(0.1 -0.1)">
      <defs>
       <path d="M 25.046875 11.578125 
L 25.046875 31.203125 
L 5.5625 31.203125 
L 5.5625 39.40625 
L 25.046875 39.40625 
L 25.046875 58.890625 
L 33.34375 58.890625 
L 33.34375 39.40625 
L 52.828125 39.40625 
L 52.828125 31.203125 
L 33.34375 31.203125 
L 33.34375 11.578125 
z
" id="ArialMT-43"/>
       <path d="M 14.703125 0 
L 6.546875 0 
L 6.546875 71.578125 
L 15.328125 71.578125 
L 15.328125 46.046875 
Q 20.90625 53.03125 29.546875 53.03125 
Q 34.328125 53.03125 38.59375 51.09375 
Q 42.875 49.171875 45.625 45.671875 
Q 48.390625 42.1875 49.953125 37.25 
Q 51.515625 32.328125 51.515625 26.703125 
Q 51.515625 13.375 44.921875 6.09375 
Q 38.328125 -1.171875 29.109375 -1.171875 
Q 19.921875 -1.171875 14.703125 6.5 
z
M 14.59375 26.3125 
Q 14.59375 17 17.140625 12.84375 
Q 21.296875 6.0625 28.375 6.0625 
Q 34.125 6.0625 38.328125 11.0625 
Q 42.53125 16.0625 42.53125 25.984375 
Q 42.53125 36.140625 38.5 40.96875 
Q 34.46875 45.796875 28.765625 45.796875 
Q 23 45.796875 18.796875 40.796875 
Q 14.59375 35.796875 14.59375 26.3125 
z
" id="ArialMT-98"/>
       <path d="M 21 0 
L 1.265625 51.859375 
L 10.546875 51.859375 
L 21.6875 20.796875 
Q 23.484375 15.765625 25 10.359375 
Q 26.171875 14.453125 28.265625 20.21875 
L 39.796875 51.859375 
L 48.828125 51.859375 
L 29.203125 0 
z
" id="ArialMT-118"/>
       <path d="M 8.6875 0 
L 8.6875 45.015625 
L 0.921875 45.015625 
L 0.921875 51.859375 
L 8.6875 51.859375 
L 8.6875 57.375 
Q 8.6875 62.59375 9.625 65.140625 
Q 10.890625 68.5625 14.078125 70.671875 
Q 17.28125 72.796875 23.046875 72.796875 
Q 26.765625 72.796875 31.25 71.921875 
L 29.9375 64.265625 
Q 27.203125 64.75 24.75 64.75 
Q 20.75 64.75 19.09375 63.03125 
Q 17.4375 61.328125 17.4375 56.640625 
L 17.4375 51.859375 
L 27.546875 51.859375 
L 27.546875 45.015625 
L 17.4375 45.015625 
L 17.4375 0 
z
" id="ArialMT-102"/>
       <path d="M 6.59375 0 
L 6.59375 71.578125 
L 15.375 71.578125 
L 15.375 45.90625 
Q 21.53125 53.03125 30.90625 53.03125 
Q 36.671875 53.03125 40.921875 50.75 
Q 45.171875 48.484375 47 44.484375 
Q 48.828125 40.484375 48.828125 32.859375 
L 48.828125 0 
L 40.046875 0 
L 40.046875 32.859375 
Q 40.046875 39.453125 37.1875 42.453125 
Q 34.328125 45.453125 29.109375 45.453125 
Q 25.203125 45.453125 21.75 43.421875 
Q 18.3125 41.40625 16.84375 37.9375 
Q 15.375 34.46875 15.375 28.375 
L 15.375 0 
z
" id="ArialMT-104"/>
       <path d="M 6.59375 0 
L 6.59375 51.859375 
L 14.453125 51.859375 
L 14.453125 44.578125 
Q 16.890625 48.390625 20.9375 50.703125 
Q 25 53.03125 30.171875 53.03125 
Q 35.9375 53.03125 39.625 50.640625 
Q 43.3125 48.25 44.828125 43.953125 
Q 50.984375 53.03125 60.84375 53.03125 
Q 68.5625 53.03125 72.703125 48.75 
Q 76.859375 44.484375 76.859375 35.59375 
L 76.859375 0 
L 68.109375 0 
L 68.109375 32.671875 
Q 68.109375 37.9375 67.25 40.25 
Q 66.40625 42.578125 64.15625 43.984375 
Q 61.921875 45.40625 58.890625 45.40625 
Q 53.421875 45.40625 49.796875 41.765625 
Q 46.1875 38.140625 46.1875 30.125 
L 46.1875 0 
L 37.40625 0 
L 37.40625 33.6875 
Q 37.40625 39.546875 35.25 42.46875 
Q 33.109375 45.40625 28.21875 45.40625 
Q 24.515625 45.40625 21.359375 43.453125 
Q 18.21875 41.5 16.796875 37.734375 
Q 15.375 33.984375 15.375 26.90625 
L 15.375 0 
z
" id="ArialMT-109"/>
      </defs>
      <use xlink:href="#ArialMT-112"/>
      <use x="55.615234" xlink:href="#ArialMT-114"/>
      <use x="88.916016" xlink:href="#ArialMT-101"/>
      <use x="144.53125" xlink:href="#ArialMT-100"/>
      <use x="200.146484" xlink:href="#ArialMT-105"/>
      <use x="222.363281" xlink:href="#ArialMT-99"/>
      <use x="272.363281" xlink:href="#ArialMT-116"/>
      <use x="300.146484" xlink:href="#ArialMT-105"/>
      <use x="322.363281" xlink:href="#ArialMT-111"/>
      <use x="377.978516" xlink:href="#ArialMT-110"/>
      <use x="433.59375" xlink:href="#ArialMT-115"/>
      <use x="483.59375" xlink:href="#ArialMT-32"/>
      <use x="511.376953" xlink:href="#ArialMT-43"/>
      <use x="569.775391" xlink:href="#ArialMT-32"/>
      <use x="597.558594" xlink:href="#ArialMT-99"/>
      <use x="647.558594" xlink:href="#ArialMT-114"/>
      <use x="680.859375" xlink:href="#ArialMT-101"/>
      <use x="736.474609" xlink:href="#ArialMT-100"/>
      <use x="792.089844" xlink:href="#ArialMT-105"/>
      <use x="814.306641" xlink:href="#ArialMT-98"/>
      <use x="869.921875" xlink:href="#ArialMT-108"/>
      <use x="892.138672" xlink:href="#ArialMT-101"/>
      <use x="947.753906" xlink:href="#ArialMT-32"/>
      <use x="975.537109" xlink:href="#ArialMT-105"/>
      <use x="997.753906" xlink:href="#ArialMT-110"/>
      <use x="1053.369141" xlink:href="#ArialMT-116"/>
      <use x="1081.152344" xlink:href="#ArialMT-101"/>
      <use x="1136.767578" xlink:href="#ArialMT-114"/>
      <use x="1170.068359" xlink:href="#ArialMT-118"/>
      <use x="1220.068359" xlink:href="#ArialMT-97"/>
      <use x="1275.683594" xlink:href="#ArialMT-108"/>
      <use x="1297.900391" xlink:href="#ArialMT-115"/>
      <use x="1347.900391" xlink:href="#ArialMT-32"/>
      <use x="1375.683594" xlink:href="#ArialMT-40"/>
      <use x="1408.984375" xlink:href="#ArialMT-111"/>
      <use x="1464.599609" xlink:href="#ArialMT-102"/>
      <use x="1492.382812" xlink:href="#ArialMT-32"/>
      <use x="1520.166016" xlink:href="#ArialMT-116"/>
      <use x="1547.949219" xlink:href="#ArialMT-104"/>
      <use x="1603.564453" xlink:href="#ArialMT-101"/>
      <use x="1659.179688" xlink:href="#ArialMT-32"/>
      <use x="1686.962891" xlink:href="#ArialMT-109"/>
      <use x="1770.263672" xlink:href="#ArialMT-101"/>
      <use x="1825.878906" xlink:href="#ArialMT-97"/>
      <use x="1881.494141" xlink:href="#ArialMT-110"/>
      <use x="1937.109375" xlink:href="#ArialMT-41"/>
     </g>
    </g>
   </g>
  </g>
 </g>
 <defs>
  <clipPath id="pa9209cda80">
   <rect height="434.88" width="502.2" x="38.864063" y="21.789375"/>
  </clipPath>
 </defs>
</svg>
