<?xml version="1.0" encoding="utf-8" standalone="no"?>
<!DOCTYPE svg PUBLIC "-//W3C//DTD SVG 1.1//EN"
  "http://www.w3.org/Graphics/SVG/1.1/DTD/svg11.dtd">
<!-- Created with matplotlib (https://matplotlib.org/) -->
<svg height="493.16pt" version="1.1" viewBox="0 0 548.264062 493.16" width="548.264062pt" xmlns="http://www.w3.org/2000/svg" xmlns:xlink="http://www.w3.org/1999/xlink">
 <metadata>
  <rdf:RDF xmlns:cc="http://creativecommons.org/ns#" xmlns:dc="http://purl.org/dc/elements/1.1/" xmlns:rdf="http://www.w3.org/1999/02/22-rdf-syntax-ns#">
   <cc:Work>
    <dc:type rdf:resource="http://purl.org/dc/dcmitype/StillImage"/>
    <dc:date>2020-10-06T10:37:18.222326</dc:date>
    <dc:format>image/svg+xml</dc:format>
    <dc:creator>
     <cc:Agent>
      <dc:title>Matplotlib v3.3.1, https://matplotlib.org/</dc:title>
     </cc:Agent>
    </dc:creator>
   </cc:Work>
  </rdf:RDF>
 </metadata>
 <defs>
  <style type="text/css">*{stroke-linecap:butt;stroke-linejoin:round;}</style>
 </defs>
 <g id="figure_1">
  <g id="patch_1">
   <path d="M 0 493.16 
L 548.264062 493.16 
L 548.264062 0 
L 0 0 
z
" style="fill:none;"/>
  </g>
  <g id="axes_1">
   <g id="patch_2">
    <path d="M 38.864063 456.669375 
L 541.064063 456.669375 
L 541.064063 21.789375 
L 38.864063 21.789375 
z
" style="fill:#e6e6e6;"/>
   </g>
   <g id="matplotlib.axis_1">
    <g id="xtick_1">
     <g id="line2d_1">
      <path clip-path="url(#p08d5b7a9aa)" d="M 48.674521 456.669375 
L 48.674521 21.789375 
" style="fill:none;stroke:#cccccc;stroke-linecap:round;stroke-width:0.8;"/>
     </g>
     <g id="text_1">
      <!-- −3 -->
      <g style="fill:#262626;" transform="translate(42.97374 470.827187)scale(0.1 -0.1)">
       <defs>
        <path d="M 52.828125 31.203125 
L 5.5625 31.203125 
L 5.5625 39.40625 
L 52.828125 39.40625 
z
" id="ArialMT-8722"/>
        <path d="M 4.203125 18.890625 
L 12.984375 20.0625 
Q 14.5 12.59375 18.140625 9.296875 
Q 21.78125 6 27 6 
Q 33.203125 6 37.46875 10.296875 
Q 41.75 14.59375 41.75 20.953125 
Q 41.75 27 37.796875 30.921875 
Q 33.84375 34.859375 27.734375 34.859375 
Q 25.25 34.859375 21.53125 33.890625 
L 22.515625 41.609375 
Q 23.390625 41.5 23.921875 41.5 
Q 29.546875 41.5 34.03125 44.421875 
Q 38.53125 47.359375 38.53125 53.46875 
Q 38.53125 58.296875 35.25 61.46875 
Q 31.984375 64.65625 26.8125 64.65625 
Q 21.6875 64.65625 18.265625 61.421875 
Q 14.84375 58.203125 13.875 51.765625 
L 5.078125 53.328125 
Q 6.6875 62.15625 12.390625 67.015625 
Q 18.109375 71.875 26.609375 71.875 
Q 32.46875 71.875 37.390625 69.359375 
Q 42.328125 66.84375 44.9375 62.5 
Q 47.5625 58.15625 47.5625 53.265625 
Q 47.5625 48.640625 45.0625 44.828125 
Q 42.578125 41.015625 37.703125 38.765625 
Q 44.046875 37.3125 47.5625 32.6875 
Q 51.078125 28.078125 51.078125 21.140625 
Q 51.078125 11.765625 44.234375 5.25 
Q 37.40625 -1.265625 26.953125 -1.265625 
Q 17.53125 -1.265625 11.296875 4.34375 
Q 5.078125 9.96875 4.203125 18.890625 
z
" id="ArialMT-51"/>
       </defs>
       <use xlink:href="#ArialMT-8722"/>
       <use x="58.398438" xlink:href="#ArialMT-51"/>
      </g>
     </g>
    </g>
    <g id="xtick_2">
     <g id="line2d_2">
      <path clip-path="url(#p08d5b7a9aa)" d="M 104.855237 456.669375 
L 104.855237 21.789375 
" style="fill:none;stroke:#cccccc;stroke-linecap:round;stroke-width:0.8;"/>
     </g>
     <g id="text_2">
      <!-- −2 -->
      <g style="fill:#262626;" transform="translate(99.154456 470.827187)scale(0.1 -0.1)">
       <defs>
        <path d="M 50.34375 8.453125 
L 50.34375 0 
L 3.03125 0 
Q 2.9375 3.171875 4.046875 6.109375 
Q 5.859375 10.9375 9.828125 15.625 
Q 13.8125 20.3125 21.34375 26.46875 
Q 33.015625 36.03125 37.109375 41.625 
Q 41.21875 47.21875 41.21875 52.203125 
Q 41.21875 57.421875 37.46875 61 
Q 33.734375 64.59375 27.734375 64.59375 
Q 21.390625 64.59375 17.578125 60.78125 
Q 13.765625 56.984375 13.71875 50.25 
L 4.6875 51.171875 
Q 5.609375 61.28125 11.65625 66.578125 
Q 17.71875 71.875 27.9375 71.875 
Q 38.234375 71.875 44.234375 66.15625 
Q 50.25 60.453125 50.25 52 
Q 50.25 47.703125 48.484375 43.546875 
Q 46.734375 39.40625 42.65625 34.8125 
Q 38.578125 30.21875 29.109375 22.21875 
Q 21.1875 15.578125 18.9375 13.203125 
Q 16.703125 10.84375 15.234375 8.453125 
z
" id="ArialMT-50"/>
       </defs>
       <use xlink:href="#ArialMT-8722"/>
       <use x="58.398438" xlink:href="#ArialMT-50"/>
      </g>
     </g>
    </g>
    <g id="xtick_3">
     <g id="line2d_3">
      <path clip-path="url(#p08d5b7a9aa)" d="M 161.035953 456.669375 
L 161.035953 21.789375 
" style="fill:none;stroke:#cccccc;stroke-linecap:round;stroke-width:0.8;"/>
     </g>
     <g id="text_3">
      <!-- −1 -->
      <g style="fill:#262626;" transform="translate(155.335171 470.827187)scale(0.1 -0.1)">
       <defs>
        <path d="M 37.25 0 
L 28.46875 0 
L 28.46875 56 
Q 25.296875 52.984375 20.140625 49.953125 
Q 14.984375 46.921875 10.890625 45.40625 
L 10.890625 53.90625 
Q 18.265625 57.375 23.78125 62.296875 
Q 29.296875 67.234375 31.59375 71.875 
L 37.25 71.875 
z
" id="ArialMT-49"/>
       </defs>
       <use xlink:href="#ArialMT-8722"/>
       <use x="58.398438" xlink:href="#ArialMT-49"/>
      </g>
     </g>
    </g>
    <g id="xtick_4">
     <g id="line2d_4">
      <path clip-path="url(#p08d5b7a9aa)" d="M 217.216668 456.669375 
L 217.216668 21.789375 
" style="fill:none;stroke:#cccccc;stroke-linecap:round;stroke-width:0.8;"/>
     </g>
     <g id="text_4">
      <!-- 0 -->
      <g style="fill:#262626;" transform="translate(214.4362 470.827187)scale(0.1 -0.1)">
       <defs>
        <path d="M 4.15625 35.296875 
Q 4.15625 48 6.765625 55.734375 
Q 9.375 63.484375 14.515625 67.671875 
Q 19.671875 71.875 27.484375 71.875 
Q 33.25 71.875 37.59375 69.546875 
Q 41.9375 67.234375 44.765625 62.859375 
Q 47.609375 58.5 49.21875 52.21875 
Q 50.828125 45.953125 50.828125 35.296875 
Q 50.828125 22.703125 48.234375 14.96875 
Q 45.65625 7.234375 40.5 3 
Q 35.359375 -1.21875 27.484375 -1.21875 
Q 17.140625 -1.21875 11.234375 6.203125 
Q 4.15625 15.140625 4.15625 35.296875 
z
M 13.1875 35.296875 
Q 13.1875 17.671875 17.3125 11.828125 
Q 21.4375 6 27.484375 6 
Q 33.546875 6 37.671875 11.859375 
Q 41.796875 17.71875 41.796875 35.296875 
Q 41.796875 52.984375 37.671875 58.78125 
Q 33.546875 64.59375 27.390625 64.59375 
Q 21.34375 64.59375 17.71875 59.46875 
Q 13.1875 52.9375 13.1875 35.296875 
z
" id="ArialMT-48"/>
       </defs>
       <use xlink:href="#ArialMT-48"/>
      </g>
     </g>
    </g>
    <g id="xtick_5">
     <g id="line2d_5">
      <path clip-path="url(#p08d5b7a9aa)" d="M 273.397384 456.669375 
L 273.397384 21.789375 
" style="fill:none;stroke:#cccccc;stroke-linecap:round;stroke-width:0.8;"/>
     </g>
     <g id="text_5">
      <!-- 1 -->
      <g style="fill:#262626;" transform="translate(270.616915 470.827187)scale(0.1 -0.1)">
       <use xlink:href="#ArialMT-49"/>
      </g>
     </g>
    </g>
    <g id="xtick_6">
     <g id="line2d_6">
      <path clip-path="url(#p08d5b7a9aa)" d="M 329.5781 456.669375 
L 329.5781 21.789375 
" style="fill:none;stroke:#cccccc;stroke-linecap:round;stroke-width:0.8;"/>
     </g>
     <g id="text_6">
      <!-- 2 -->
      <g style="fill:#262626;" transform="translate(326.797631 470.827187)scale(0.1 -0.1)">
       <use xlink:href="#ArialMT-50"/>
      </g>
     </g>
    </g>
    <g id="xtick_7">
     <g id="line2d_7">
      <path clip-path="url(#p08d5b7a9aa)" d="M 385.758816 456.669375 
L 385.758816 21.789375 
" style="fill:none;stroke:#cccccc;stroke-linecap:round;stroke-width:0.8;"/>
     </g>
     <g id="text_7">
      <!-- 3 -->
      <g style="fill:#262626;" transform="translate(382.978347 470.827187)scale(0.1 -0.1)">
       <use xlink:href="#ArialMT-51"/>
      </g>
     </g>
    </g>
    <g id="xtick_8">
     <g id="line2d_8">
      <path clip-path="url(#p08d5b7a9aa)" d="M 441.939531 456.669375 
L 441.939531 21.789375 
" style="fill:none;stroke:#cccccc;stroke-linecap:round;stroke-width:0.8;"/>
     </g>
     <g id="text_8">
      <!-- 4 -->
      <g style="fill:#262626;" transform="translate(439.159063 470.827187)scale(0.1 -0.1)">
       <defs>
        <path d="M 32.328125 0 
L 32.328125 17.140625 
L 1.265625 17.140625 
L 1.265625 25.203125 
L 33.9375 71.578125 
L 41.109375 71.578125 
L 41.109375 25.203125 
L 50.78125 25.203125 
L 50.78125 17.140625 
L 41.109375 17.140625 
L 41.109375 0 
z
M 32.328125 25.203125 
L 32.328125 57.46875 
L 9.90625 25.203125 
z
" id="ArialMT-52"/>
       </defs>
       <use xlink:href="#ArialMT-52"/>
      </g>
     </g>
    </g>
    <g id="xtick_9">
     <g id="line2d_9">
      <path clip-path="url(#p08d5b7a9aa)" d="M 498.120247 456.669375 
L 498.120247 21.789375 
" style="fill:none;stroke:#cccccc;stroke-linecap:round;stroke-width:0.8;"/>
     </g>
     <g id="text_9">
      <!-- 5 -->
      <g style="fill:#262626;" transform="translate(495.339778 470.827187)scale(0.1 -0.1)">
       <defs>
        <path d="M 4.15625 18.75 
L 13.375 19.53125 
Q 14.40625 12.796875 18.140625 9.390625 
Q 21.875 6 27.15625 6 
Q 33.5 6 37.890625 10.78125 
Q 42.28125 15.578125 42.28125 23.484375 
Q 42.28125 31 38.0625 35.34375 
Q 33.84375 39.703125 27 39.703125 
Q 22.75 39.703125 19.328125 37.765625 
Q 15.921875 35.84375 13.96875 32.765625 
L 5.71875 33.84375 
L 12.640625 70.609375 
L 48.25 70.609375 
L 48.25 62.203125 
L 19.671875 62.203125 
L 15.828125 42.96875 
Q 22.265625 47.46875 29.34375 47.46875 
Q 38.71875 47.46875 45.15625 40.96875 
Q 51.609375 34.46875 51.609375 24.265625 
Q 51.609375 14.546875 45.953125 7.46875 
Q 39.0625 -1.21875 27.15625 -1.21875 
Q 17.390625 -1.21875 11.203125 4.25 
Q 5.03125 9.71875 4.15625 18.75 
z
" id="ArialMT-53"/>
       </defs>
       <use xlink:href="#ArialMT-53"/>
      </g>
     </g>
    </g>
    <g id="text_10">
     <!-- y -->
     <g style="fill:#262626;" transform="translate(287.464063 483.855312)scale(0.1 -0.1)">
      <defs>
       <path d="M 6.203125 -19.96875 
L 5.21875 -11.71875 
Q 8.109375 -12.5 10.25 -12.5 
Q 13.1875 -12.5 14.9375 -11.515625 
Q 16.703125 -10.546875 17.828125 -8.796875 
Q 18.65625 -7.46875 20.515625 -2.25 
Q 20.75 -1.515625 21.296875 -0.09375 
L 1.609375 51.859375 
L 11.078125 51.859375 
L 21.875 21.828125 
Q 23.96875 16.109375 25.640625 9.8125 
Q 27.15625 15.875 29.25 21.625 
L 40.328125 51.859375 
L 49.125 51.859375 
L 29.390625 -0.875 
Q 26.21875 -9.421875 24.46875 -12.640625 
Q 22.125 -17 19.09375 -19.015625 
Q 16.0625 -21.046875 11.859375 -21.046875 
Q 9.328125 -21.046875 6.203125 -19.96875 
z
" id="ArialMT-121"/>
      </defs>
      <use xlink:href="#ArialMT-121"/>
     </g>
    </g>
   </g>
   <g id="matplotlib.axis_2">
    <g id="ytick_1">
     <g id="line2d_10">
      <path clip-path="url(#p08d5b7a9aa)" d="M 38.864063 427.361036 
L 541.064063 427.361036 
" style="fill:none;stroke:#cccccc;stroke-linecap:round;stroke-width:0.8;"/>
     </g>
     <g id="text_11">
      <!-- −4 -->
      <g style="fill:#262626;" transform="translate(20.4625 430.939942)scale(0.1 -0.1)">
       <use xlink:href="#ArialMT-8722"/>
       <use x="58.398438" xlink:href="#ArialMT-52"/>
      </g>
     </g>
    </g>
    <g id="ytick_2">
     <g id="line2d_11">
      <path clip-path="url(#p08d5b7a9aa)" d="M 38.864063 351.761555 
L 541.064063 351.761555 
" style="fill:none;stroke:#cccccc;stroke-linecap:round;stroke-width:0.8;"/>
     </g>
     <g id="text_12">
      <!-- −2 -->
      <g style="fill:#262626;" transform="translate(20.4625 355.340461)scale(0.1 -0.1)">
       <use xlink:href="#ArialMT-8722"/>
       <use x="58.398438" xlink:href="#ArialMT-50"/>
      </g>
     </g>
    </g>
    <g id="ytick_3">
     <g id="line2d_12">
      <path clip-path="url(#p08d5b7a9aa)" d="M 38.864063 276.162074 
L 541.064063 276.162074 
" style="fill:none;stroke:#cccccc;stroke-linecap:round;stroke-width:0.8;"/>
     </g>
     <g id="text_13">
      <!-- 0 -->
      <g style="fill:#262626;" transform="translate(26.303125 279.74098)scale(0.1 -0.1)">
       <use xlink:href="#ArialMT-48"/>
      </g>
     </g>
    </g>
    <g id="ytick_4">
     <g id="line2d_13">
      <path clip-path="url(#p08d5b7a9aa)" d="M 38.864063 200.562592 
L 541.064063 200.562592 
" style="fill:none;stroke:#cccccc;stroke-linecap:round;stroke-width:0.8;"/>
     </g>
     <g id="text_14">
      <!-- 2 -->
      <g style="fill:#262626;" transform="translate(26.303125 204.141499)scale(0.1 -0.1)">
       <use xlink:href="#ArialMT-50"/>
      </g>
     </g>
    </g>
    <g id="ytick_5">
     <g id="line2d_14">
      <path clip-path="url(#p08d5b7a9aa)" d="M 38.864063 124.963111 
L 541.064063 124.963111 
" style="fill:none;stroke:#cccccc;stroke-linecap:round;stroke-width:0.8;"/>
     </g>
     <g id="text_15">
      <!-- 4 -->
      <g style="fill:#262626;" transform="translate(26.303125 128.542017)scale(0.1 -0.1)">
       <use xlink:href="#ArialMT-52"/>
      </g>
     </g>
    </g>
    <g id="ytick_6">
     <g id="line2d_15">
      <path clip-path="url(#p08d5b7a9aa)" d="M 38.864063 49.36363 
L 541.064063 49.36363 
" style="fill:none;stroke:#cccccc;stroke-linecap:round;stroke-width:0.8;"/>
     </g>
     <g id="text_16">
      <!-- 6 -->
      <g style="fill:#262626;" transform="translate(26.303125 52.942536)scale(0.1 -0.1)">
       <defs>
        <path d="M 49.75 54.046875 
L 41.015625 53.375 
Q 39.84375 58.546875 37.703125 60.890625 
Q 34.125 64.65625 28.90625 64.65625 
Q 24.703125 64.65625 21.53125 62.3125 
Q 17.390625 59.28125 14.984375 53.46875 
Q 12.59375 47.65625 12.5 36.921875 
Q 15.671875 41.75 20.265625 44.09375 
Q 24.859375 46.4375 29.890625 46.4375 
Q 38.671875 46.4375 44.84375 39.96875 
Q 51.03125 33.5 51.03125 23.25 
Q 51.03125 16.5 48.125 10.71875 
Q 45.21875 4.9375 40.140625 1.859375 
Q 35.0625 -1.21875 28.609375 -1.21875 
Q 17.625 -1.21875 10.6875 6.859375 
Q 3.765625 14.9375 3.765625 33.5 
Q 3.765625 54.25 11.421875 63.671875 
Q 18.109375 71.875 29.4375 71.875 
Q 37.890625 71.875 43.28125 67.140625 
Q 48.6875 62.40625 49.75 54.046875 
z
M 13.875 23.1875 
Q 13.875 18.65625 15.796875 14.5 
Q 17.71875 10.359375 21.1875 8.171875 
Q 24.65625 6 28.46875 6 
Q 34.03125 6 38.03125 10.484375 
Q 42.046875 14.984375 42.046875 22.703125 
Q 42.046875 30.125 38.078125 34.390625 
Q 34.125 38.671875 28.125 38.671875 
Q 22.171875 38.671875 18.015625 34.390625 
Q 13.875 30.125 13.875 23.1875 
z
" id="ArialMT-54"/>
       </defs>
       <use xlink:href="#ArialMT-54"/>
      </g>
     </g>
    </g>
    <g id="text_17">
     <!-- y_pred -->
     <g style="fill:#262626;" transform="translate(14.357812 254.516094)rotate(-90)scale(0.1 -0.1)">
      <defs>
       <path d="M -1.515625 -19.875 
L -1.515625 -13.53125 
L 56.734375 -13.53125 
L 56.734375 -19.875 
z
" id="ArialMT-95"/>
       <path d="M 6.59375 -19.875 
L 6.59375 51.859375 
L 14.59375 51.859375 
L 14.59375 45.125 
Q 17.4375 49.078125 21 51.046875 
Q 24.5625 53.03125 29.640625 53.03125 
Q 36.28125 53.03125 41.359375 49.609375 
Q 46.4375 46.1875 49.015625 39.953125 
Q 51.609375 33.734375 51.609375 26.3125 
Q 51.609375 18.359375 48.75 11.984375 
Q 45.90625 5.609375 40.453125 2.21875 
Q 35.015625 -1.171875 29 -1.171875 
Q 24.609375 -1.171875 21.109375 0.6875 
Q 17.625 2.546875 15.375 5.375 
L 15.375 -19.875 
z
M 14.546875 25.640625 
Q 14.546875 15.625 18.59375 10.84375 
Q 22.65625 6.0625 28.421875 6.0625 
Q 34.28125 6.0625 38.453125 11.015625 
Q 42.625 15.96875 42.625 26.375 
Q 42.625 36.28125 38.546875 41.203125 
Q 34.46875 46.140625 28.8125 46.140625 
Q 23.1875 46.140625 18.859375 40.890625 
Q 14.546875 35.640625 14.546875 25.640625 
z
" id="ArialMT-112"/>
       <path d="M 6.5 0 
L 6.5 51.859375 
L 14.40625 51.859375 
L 14.40625 44 
Q 17.4375 49.515625 20 51.265625 
Q 22.5625 53.03125 25.640625 53.03125 
Q 30.078125 53.03125 34.671875 50.203125 
L 31.640625 42.046875 
Q 28.421875 43.953125 25.203125 43.953125 
Q 22.3125 43.953125 20.015625 42.21875 
Q 17.71875 40.484375 16.75 37.40625 
Q 15.28125 32.71875 15.28125 27.15625 
L 15.28125 0 
z
" id="ArialMT-114"/>
       <path d="M 42.09375 16.703125 
L 51.171875 15.578125 
Q 49.03125 7.625 43.21875 3.21875 
Q 37.40625 -1.171875 28.375 -1.171875 
Q 17 -1.171875 10.328125 5.828125 
Q 3.65625 12.84375 3.65625 25.484375 
Q 3.65625 38.578125 10.390625 45.796875 
Q 17.140625 53.03125 27.875 53.03125 
Q 38.28125 53.03125 44.875 45.953125 
Q 51.46875 38.875 51.46875 26.03125 
Q 51.46875 25.25 51.421875 23.6875 
L 12.75 23.6875 
Q 13.234375 15.140625 17.578125 10.59375 
Q 21.921875 6.0625 28.421875 6.0625 
Q 33.25 6.0625 36.671875 8.59375 
Q 40.09375 11.140625 42.09375 16.703125 
z
M 13.234375 30.90625 
L 42.1875 30.90625 
Q 41.609375 37.453125 38.875 40.71875 
Q 34.671875 45.796875 27.984375 45.796875 
Q 21.921875 45.796875 17.796875 41.75 
Q 13.671875 37.703125 13.234375 30.90625 
z
" id="ArialMT-101"/>
       <path d="M 40.234375 0 
L 40.234375 6.546875 
Q 35.296875 -1.171875 25.734375 -1.171875 
Q 19.53125 -1.171875 14.328125 2.25 
Q 9.125 5.671875 6.265625 11.796875 
Q 3.421875 17.921875 3.421875 25.875 
Q 3.421875 33.640625 6 39.96875 
Q 8.59375 46.296875 13.765625 49.65625 
Q 18.953125 53.03125 25.34375 53.03125 
Q 30.03125 53.03125 33.6875 51.046875 
Q 37.359375 49.078125 39.65625 45.90625 
L 39.65625 71.578125 
L 48.390625 71.578125 
L 48.390625 0 
z
M 12.453125 25.875 
Q 12.453125 15.921875 16.640625 10.984375 
Q 20.84375 6.0625 26.5625 6.0625 
Q 32.328125 6.0625 36.34375 10.765625 
Q 40.375 15.484375 40.375 25.140625 
Q 40.375 35.796875 36.265625 40.765625 
Q 32.171875 45.75 26.171875 45.75 
Q 20.3125 45.75 16.375 40.96875 
Q 12.453125 36.1875 12.453125 25.875 
z
" id="ArialMT-100"/>
      </defs>
      <use xlink:href="#ArialMT-121"/>
      <use x="50" xlink:href="#ArialMT-95"/>
      <use x="105.615234" xlink:href="#ArialMT-112"/>
      <use x="161.230469" xlink:href="#ArialMT-114"/>
      <use x="194.53125" xlink:href="#ArialMT-101"/>
      <use x="250.146484" xlink:href="#ArialMT-100"/>
     </g>
    </g>
   </g>
   <g id="PolyCollection_1">
    <defs>
     <path d="M 38.864062 -186.452167 
L 38.864062 -150.614642 
L 43.93679 -152.886135 
L 49.009517 -155.096576 
L 54.082244 -157.307781 
L 59.154972 -159.518985 
L 64.227699 -161.736309 
L 69.300426 -163.937445 
L 74.373153 -166.147366 
L 79.445881 -168.355706 
L 84.518608 -170.617061 
L 89.591335 -173.003897 
L 94.664062 -175.390733 
L 99.73679 -177.670161 
L 104.809517 -179.829943 
L 109.882244 -181.989725 
L 114.954972 -184.149548 
L 120.027699 -186.311427 
L 125.100426 -188.44356 
L 130.173153 -190.628852 
L 135.245881 -192.788634 
L 140.318608 -194.948864 
L 145.391335 -197.106787 
L 150.464063 -199.265036 
L 155.53679 -201.409656 
L 160.609517 -203.661505 
L 165.682244 -205.795467 
L 170.754972 -208.014148 
L 175.827699 -210.058963 
L 180.900426 -212.238487 
L 185.973153 -214.374291 
L 191.045881 -216.53493 
L 196.118608 -218.692353 
L 201.191335 -220.760831 
L 206.264063 -222.854799 
L 211.33679 -224.96379 
L 216.409517 -226.944908 
L 221.482244 -229.020069 
L 226.554972 -230.972418 
L 231.627699 -233.023975 
L 236.700426 -235.056226 
L 241.773153 -237.022264 
L 246.845881 -238.908554 
L 251.918608 -240.807811 
L 256.991335 -242.663923 
L 262.064062 -244.437145 
L 267.13679 -246.288333 
L 272.209517 -248.147919 
L 277.282244 -249.854649 
L 282.354972 -251.568146 
L 287.427699 -253.308044 
L 292.500426 -255.100344 
L 297.573153 -256.761679 
L 302.645881 -258.4093 
L 307.718608 -260.105005 
L 312.791335 -261.885302 
L 317.864063 -263.452022 
L 322.93679 -265.11752 
L 328.009517 -266.867239 
L 333.082244 -268.463056 
L 338.154972 -270.005367 
L 343.227699 -271.65235 
L 348.300426 -273.327415 
L 353.373153 -275.013987 
L 358.445881 -276.601536 
L 363.518608 -278.223021 
L 368.591335 -279.900046 
L 373.664062 -281.463389 
L 378.73679 -283.00333 
L 383.809517 -284.548608 
L 388.882244 -286.197846 
L 393.954972 -287.848702 
L 399.027699 -289.331576 
L 404.100426 -290.794432 
L 409.173153 -292.268082 
L 414.245881 -293.756097 
L 419.318608 -295.204443 
L 424.391335 -296.832419 
L 429.464063 -298.372566 
L 434.53679 -299.866697 
L 439.609517 -301.42713 
L 444.682244 -302.900126 
L 449.754972 -304.339551 
L 454.827699 -305.8278 
L 459.900426 -307.321142 
L 464.973153 -308.935392 
L 470.045881 -310.436292 
L 475.118608 -311.936894 
L 480.191335 -313.434752 
L 485.264063 -314.932358 
L 490.33679 -316.361763 
L 495.409517 -317.842764 
L 500.482244 -319.429509 
L 505.554972 -320.928669 
L 510.627699 -322.427828 
L 515.700426 -323.926988 
L 520.773153 -325.426147 
L 525.845881 -326.926401 
L 530.918608 -328.427561 
L 535.991335 -329.92872 
L 541.064063 -331.449908 
L 541.064063 -373.01935 
L 541.064063 -373.01935 
L 535.991335 -370.791974 
L 530.918608 -368.592117 
L 525.845881 -366.408738 
L 520.773153 -364.225359 
L 515.700426 -362.04198 
L 510.627699 -359.858601 
L 505.554972 -357.661908 
L 500.482244 -355.471229 
L 495.409517 -353.312378 
L 490.33679 -351.132041 
L 485.264063 -348.951703 
L 480.191335 -346.771366 
L 475.118608 -344.591029 
L 470.045881 -342.410692 
L 464.973153 -340.272519 
L 459.900426 -338.288694 
L 454.827699 -336.302277 
L 449.754972 -334.215352 
L 444.682244 -331.998387 
L 439.609517 -329.780783 
L 434.53679 -327.563179 
L 429.464063 -325.345576 
L 424.391335 -323.131286 
L 419.318608 -320.908775 
L 414.245881 -318.647092 
L 409.173153 -316.326562 
L 404.100426 -314.102929 
L 399.027699 -312.00676 
L 393.954972 -309.748094 
L 388.882244 -307.510556 
L 383.809517 -305.335942 
L 378.73679 -303.162203 
L 373.664062 -300.949998 
L 368.591335 -298.807268 
L 363.518608 -296.629885 
L 358.445881 -294.412235 
L 353.373153 -292.207118 
L 348.300426 -290.120313 
L 343.227699 -287.827457 
L 338.154972 -285.718842 
L 333.082244 -283.60677 
L 328.009517 -281.556485 
L 322.93679 -279.542614 
L 317.864063 -277.540261 
L 312.791335 -275.604351 
L 307.718608 -273.579083 
L 302.645881 -271.594227 
L 297.573153 -269.533316 
L 292.500426 -267.469139 
L 287.427699 -265.595615 
L 282.354972 -263.614878 
L 277.282244 -261.709672 
L 272.209517 -259.82225 
L 267.13679 -257.973571 
L 262.064062 -255.993872 
L 256.991335 -254.138044 
L 251.918608 -252.329745 
L 246.845881 -250.512714 
L 241.773153 -248.718222 
L 236.700426 -246.906133 
L 231.627699 -245.178098 
L 226.554972 -243.525442 
L 221.482244 -241.974128 
L 216.409517 -240.363171 
L 211.33679 -238.686599 
L 206.264063 -237.161276 
L 201.191335 -235.633262 
L 196.118608 -233.906082 
L 191.045881 -232.476771 
L 185.973153 -230.775718 
L 180.900426 -229.298988 
L 175.827699 -227.654051 
L 170.754972 -226.164924 
L 165.682244 -224.530257 
L 160.609517 -222.865029 
L 155.53679 -221.169055 
L 150.464063 -219.668217 
L 145.391335 -218.191727 
L 140.318608 -216.710304 
L 135.245881 -215.191862 
L 130.173153 -213.660082 
L 125.100426 -212.247601 
L 120.027699 -210.795613 
L 114.954972 -209.318877 
L 109.882244 -207.84214 
L 104.809517 -206.362493 
L 99.73679 -204.881636 
L 94.664062 -203.337739 
L 89.591335 -201.764531 
L 84.518608 -200.191324 
L 79.445881 -198.618116 
L 74.373153 -197.043505 
L 69.300426 -195.576379 
L 64.227699 -194.1293 
L 59.154972 -192.68222 
L 54.082244 -191.155759 
L 49.009517 -189.589179 
L 43.93679 -188.022286 
L 38.864062 -186.452167 
z
" id="m395f5fee52" style="stroke:#ffffff;stroke-opacity:0.15;"/>
    </defs>
    <g clip-path="url(#p08d5b7a9aa)">
     <use style="fill:#4c72b0;fill-opacity:0.15;stroke:#ffffff;stroke-opacity:0.15;" x="0" xlink:href="#m395f5fee52" y="493.16"/>
    </g>
   </g>
   <g id="LineCollection_1">
    <path clip-path="url(#p08d5b7a9aa)" d="M 281.64562 321.69879 
L 281.64562 154.372909 
" style="fill:none;stroke:#64b5cd;stroke-width:1.5;"/>
    <path clip-path="url(#p08d5b7a9aa)" d="M 285.318794 331.529764 
L 285.318794 167.143789 
" style="fill:none;stroke:#64b5cd;stroke-width:1.5;"/>
    <path clip-path="url(#p08d5b7a9aa)" d="M 361.004606 294.180559 
L 361.004606 128.839836 
" style="fill:none;stroke:#64b5cd;stroke-width:1.5;"/>
    <path clip-path="url(#p08d5b7a9aa)" d="M 395.629389 263.535334 
L 395.629389 95.166944 
" style="fill:none;stroke:#64b5cd;stroke-width:1.5;"/>
    <path clip-path="url(#p08d5b7a9aa)" d="M 178.313455 331.705965 
L 178.313455 166.272259 
" style="fill:none;stroke:#64b5cd;stroke-width:1.5;"/>
    <path clip-path="url(#p08d5b7a9aa)" d="M 218.905653 320.792379 
L 218.905653 155.600726 
" style="fill:none;stroke:#64b5cd;stroke-width:1.5;"/>
    <path clip-path="url(#p08d5b7a9aa)" d="M 444.037382 213.216432 
L 444.037382 41.556648 
" style="fill:none;stroke:#64b5cd;stroke-width:1.5;"/>
    <path clip-path="url(#p08d5b7a9aa)" d="M 350.281229 278.850536 
L 350.281229 113.086418 
" style="fill:none;stroke:#64b5cd;stroke-width:1.5;"/>
    <path clip-path="url(#p08d5b7a9aa)" d="M 283.192406 334.653338 
L 283.192406 169.391025 
" style="fill:none;stroke:#64b5cd;stroke-width:1.5;"/>
    <path clip-path="url(#p08d5b7a9aa)" d="M 518.23679 293.919283 
L 518.23679 128.749886 
" style="fill:none;stroke:#64b5cd;stroke-width:1.5;"/>
    <path clip-path="url(#p08d5b7a9aa)" d="M 225.536313 376.383976 
L 225.536313 207.896342 
" style="fill:none;stroke:#64b5cd;stroke-width:1.5;"/>
    <path clip-path="url(#p08d5b7a9aa)" d="M 310.284457 339.479368 
L 310.284457 174.5418 
" style="fill:none;stroke:#64b5cd;stroke-width:1.5;"/>
    <path clip-path="url(#p08d5b7a9aa)" d="M 342.279393 305.528122 
L 342.279393 140.184272 
" style="fill:none;stroke:#64b5cd;stroke-width:1.5;"/>
    <path clip-path="url(#p08d5b7a9aa)" d="M 271.696909 364.46223 
L 271.696909 191.409806 
" style="fill:none;stroke:#64b5cd;stroke-width:1.5;"/>
    <path clip-path="url(#p08d5b7a9aa)" d="M 153.374725 402.293225 
L 153.374725 234.595182 
" style="fill:none;stroke:#64b5cd;stroke-width:1.5;"/>
    <path clip-path="url(#p08d5b7a9aa)" d="M 292.917676 338.15719 
L 292.917676 172.994358 
" style="fill:none;stroke:#64b5cd;stroke-width:1.5;"/>
    <path clip-path="url(#p08d5b7a9aa)" d="M 172.102869 365.437662 
L 172.102869 200.194238 
" style="fill:none;stroke:#64b5cd;stroke-width:1.5;"/>
    <path clip-path="url(#p08d5b7a9aa)" d="M 244.918801 325.06923 
L 244.918801 158.912749 
" style="fill:none;stroke:#64b5cd;stroke-width:1.5;"/>
    <path clip-path="url(#p08d5b7a9aa)" d="M 227.218172 339.18495 
L 227.218172 172.569371 
" style="fill:none;stroke:#64b5cd;stroke-width:1.5;"/>
    <path clip-path="url(#p08d5b7a9aa)" d="M 219.774967 370.059782 
L 219.774967 202.611102 
" style="fill:none;stroke:#64b5cd;stroke-width:1.5;"/>
    <path clip-path="url(#p08d5b7a9aa)" d="M 507.998121 237.008049 
L 507.998121 67.953374 
" style="fill:none;stroke:#64b5cd;stroke-width:1.5;"/>
    <path clip-path="url(#p08d5b7a9aa)" d="M 130.263796 345.254595 
L 130.263796 180.050266 
" style="fill:none;stroke:#64b5cd;stroke-width:1.5;"/>
    <path clip-path="url(#p08d5b7a9aa)" d="M 355.150756 289.400289 
L 355.150756 121.949553 
" style="fill:none;stroke:#64b5cd;stroke-width:1.5;"/>
    <path clip-path="url(#p08d5b7a9aa)" d="M 63.371987 411.341957 
L 63.371987 242.846924 
" style="fill:none;stroke:#64b5cd;stroke-width:1.5;"/>
    <path clip-path="url(#p08d5b7a9aa)" d="M 232.785128 332.08508 
L 232.785128 167.278692 
" style="fill:none;stroke:#64b5cd;stroke-width:1.5;"/>
    <path clip-path="url(#p08d5b7a9aa)" d="M 402.337797 273.709441 
L 402.337797 104.867507 
" style="fill:none;stroke:#64b5cd;stroke-width:1.5;"/>
    <path clip-path="url(#p08d5b7a9aa)" d="M 184.520519 390.073231 
L 184.520519 223.22458 
" style="fill:none;stroke:#64b5cd;stroke-width:1.5;"/>
    <path clip-path="url(#p08d5b7a9aa)" d="M 218.048389 311.329087 
L 218.048389 145.243735 
" style="fill:none;stroke:#64b5cd;stroke-width:1.5;"/>
    <path clip-path="url(#p08d5b7a9aa)" d="M 202.266041 343.300425 
L 202.266041 178.460476 
" style="fill:none;stroke:#64b5cd;stroke-width:1.5;"/>
    <path clip-path="url(#p08d5b7a9aa)" d="M 281.047299 340.935359 
L 281.047299 174.744979 
" style="fill:none;stroke:#64b5cd;stroke-width:1.5;"/>
    <path clip-path="url(#p08d5b7a9aa)" d="M 155.001866 376.113476 
L 155.001866 207.231573 
" style="fill:none;stroke:#64b5cd;stroke-width:1.5;"/>
    <path clip-path="url(#p08d5b7a9aa)" d="M 391.546456 232.812428 
L 391.546456 63.046865 
" style="fill:none;stroke:#64b5cd;stroke-width:1.5;"/>
    <path clip-path="url(#p08d5b7a9aa)" d="M 245.358866 339.323557 
L 245.358866 171.734593 
" style="fill:none;stroke:#64b5cd;stroke-width:1.5;"/>
    <path clip-path="url(#p08d5b7a9aa)" d="M 190.670435 358.59124 
L 190.670435 192.448512 
" style="fill:none;stroke:#64b5cd;stroke-width:1.5;"/>
    <path clip-path="url(#p08d5b7a9aa)" d="M 414.229899 297.338082 
L 414.229899 130.12379 
" style="fill:none;stroke:#64b5cd;stroke-width:1.5;"/>
    <path clip-path="url(#p08d5b7a9aa)" d="M 283.961748 346.523367 
L 283.961748 178.930064 
" style="fill:none;stroke:#64b5cd;stroke-width:1.5;"/>
    <path clip-path="url(#p08d5b7a9aa)" d="M 149.355664 322.913269 
L 149.355664 156.71872 
" style="fill:none;stroke:#64b5cd;stroke-width:1.5;"/>
    <path clip-path="url(#p08d5b7a9aa)" d="M 164.730029 416.944853 
L 164.730029 247.342933 
" style="fill:none;stroke:#64b5cd;stroke-width:1.5;"/>
    <path clip-path="url(#p08d5b7a9aa)" d="M 184.451293 364.585391 
L 184.451293 197.879835 
" style="fill:none;stroke:#64b5cd;stroke-width:1.5;"/>
    <path clip-path="url(#p08d5b7a9aa)" d="M 297.772087 332.06072 
L 297.772087 165.386526 
" style="fill:none;stroke:#64b5cd;stroke-width:1.5;"/>
    <path clip-path="url(#p08d5b7a9aa)" d="M 276.750014 279.744029 
L 276.750014 113.746901 
" style="fill:none;stroke:#64b5cd;stroke-width:1.5;"/>
    <path clip-path="url(#p08d5b7a9aa)" d="M 313.297107 286.230193 
L 313.297107 119.243093 
" style="fill:none;stroke:#64b5cd;stroke-width:1.5;"/>
    <path clip-path="url(#p08d5b7a9aa)" d="M 250.115949 354.224948 
L 250.115949 186.303399 
" style="fill:none;stroke:#64b5cd;stroke-width:1.5;"/>
    <path clip-path="url(#p08d5b7a9aa)" d="M 310.306343 327.897268 
L 310.306343 163.419928 
" style="fill:none;stroke:#64b5cd;stroke-width:1.5;"/>
    <path clip-path="url(#p08d5b7a9aa)" d="M 130.19965 382.190655 
L 130.19965 214.617228 
" style="fill:none;stroke:#64b5cd;stroke-width:1.5;"/>
    <path clip-path="url(#p08d5b7a9aa)" d="M 236.125187 336.729726 
L 236.125187 171.161392 
" style="fill:none;stroke:#64b5cd;stroke-width:1.5;"/>
    <path clip-path="url(#p08d5b7a9aa)" d="M 186.089212 362.45041 
L 186.089212 195.600785 
" style="fill:none;stroke:#64b5cd;stroke-width:1.5;"/>
    <path clip-path="url(#p08d5b7a9aa)" d="M 258.990663 295.079387 
L 258.990663 126.174544 
" style="fill:none;stroke:#64b5cd;stroke-width:1.5;"/>
    <path clip-path="url(#p08d5b7a9aa)" d="M 406.548112 292.144059 
L 406.548112 126.635498 
" style="fill:none;stroke:#64b5cd;stroke-width:1.5;"/>
    <path clip-path="url(#p08d5b7a9aa)" d="M 205.443095 395.497209 
L 205.443095 226.89818 
" style="fill:none;stroke:#64b5cd;stroke-width:1.5;"/>
    <path clip-path="url(#p08d5b7a9aa)" d="M 227.803725 297.900401 
L 227.803725 132.845327 
" style="fill:none;stroke:#64b5cd;stroke-width:1.5;"/>
    <path clip-path="url(#p08d5b7a9aa)" d="M 313.061182 329.156362 
L 313.061182 163.957873 
" style="fill:none;stroke:#64b5cd;stroke-width:1.5;"/>
    <path clip-path="url(#p08d5b7a9aa)" d="M 335.489533 362.529392 
L 335.489533 195.54619 
" style="fill:none;stroke:#64b5cd;stroke-width:1.5;"/>
    <path clip-path="url(#p08d5b7a9aa)" d="M 372.290525 285.393978 
L 372.290525 119.79954 
" style="fill:none;stroke:#64b5cd;stroke-width:1.5;"/>
    <path clip-path="url(#p08d5b7a9aa)" d="M 254.192895 265.360477 
L 254.192895 98.643475 
" style="fill:none;stroke:#64b5cd;stroke-width:1.5;"/>
    <path clip-path="url(#p08d5b7a9aa)" d="M 278.446364 288.15917 
L 278.446364 121.490185 
" style="fill:none;stroke:#64b5cd;stroke-width:1.5;"/>
    <path clip-path="url(#p08d5b7a9aa)" d="M 349.835794 323.742415 
L 349.835794 155.128498 
" style="fill:none;stroke:#64b5cd;stroke-width:1.5;"/>
    <path clip-path="url(#p08d5b7a9aa)" d="M 229.57837 323.136716 
L 229.57837 158.251418 
" style="fill:none;stroke:#64b5cd;stroke-width:1.5;"/>
    <path clip-path="url(#p08d5b7a9aa)" d="M 283.477951 324.861387 
L 283.477951 158.361601 
" style="fill:none;stroke:#64b5cd;stroke-width:1.5;"/>
    <path clip-path="url(#p08d5b7a9aa)" d="M 390.166526 261.362187 
L 390.166526 93.914849 
" style="fill:none;stroke:#64b5cd;stroke-width:1.5;"/>
    <path clip-path="url(#p08d5b7a9aa)" d="M 167.022258 358.423912 
L 167.022258 191.725223 
" style="fill:none;stroke:#64b5cd;stroke-width:1.5;"/>
    <path clip-path="url(#p08d5b7a9aa)" d="M 281.732242 312.021609 
L 281.732242 146.715997 
" style="fill:none;stroke:#64b5cd;stroke-width:1.5;"/>
    <path clip-path="url(#p08d5b7a9aa)" d="M 61.691335 348.819963 
L 61.691335 180.966605 
" style="fill:none;stroke:#64b5cd;stroke-width:1.5;"/>
    <path clip-path="url(#p08d5b7a9aa)" d="M 125.589548 389.410279 
L 125.589548 222.016806 
" style="fill:none;stroke:#64b5cd;stroke-width:1.5;"/>
    <path clip-path="url(#p08d5b7a9aa)" d="M 331.917789 263.470735 
L 331.917789 95.974722 
" style="fill:none;stroke:#64b5cd;stroke-width:1.5;"/>
    <path clip-path="url(#p08d5b7a9aa)" d="M 291.085734 248.529483 
L 291.085734 80.429304 
" style="fill:none;stroke:#64b5cd;stroke-width:1.5;"/>
    <path clip-path="url(#p08d5b7a9aa)" d="M 384.153803 306.162745 
L 384.153803 139.795866 
" style="fill:none;stroke:#64b5cd;stroke-width:1.5;"/>
    <path clip-path="url(#p08d5b7a9aa)" d="M 302.711807 238.119329 
L 302.711807 68.857996 
" style="fill:none;stroke:#64b5cd;stroke-width:1.5;"/>
    <path clip-path="url(#p08d5b7a9aa)" d="M 262.099302 305.282838 
L 262.099302 140.120484 
" style="fill:none;stroke:#64b5cd;stroke-width:1.5;"/>
    <path clip-path="url(#p08d5b7a9aa)" d="M 223.326475 361.736566 
L 223.326475 195.842753 
" style="fill:none;stroke:#64b5cd;stroke-width:1.5;"/>
    <path clip-path="url(#p08d5b7a9aa)" d="M 349.685829 317.588425 
L 349.685829 151.28674 
" style="fill:none;stroke:#64b5cd;stroke-width:1.5;"/>
    <path clip-path="url(#p08d5b7a9aa)" d="M 256.221214 262.637137 
L 256.221214 94.640147 
" style="fill:none;stroke:#64b5cd;stroke-width:1.5;"/>
    <path clip-path="url(#p08d5b7a9aa)" d="M 334.566208 320.344663 
L 334.566208 155.253794 
" style="fill:none;stroke:#64b5cd;stroke-width:1.5;"/>
    <path clip-path="url(#p08d5b7a9aa)" d="M 371.458163 239.937334 
L 371.458163 72.04585 
" style="fill:none;stroke:#64b5cd;stroke-width:1.5;"/>
    <path clip-path="url(#p08d5b7a9aa)" d="M 78.848719 436.902102 
L 78.848719 265.48908 
" style="fill:none;stroke:#64b5cd;stroke-width:1.5;"/>
    <path clip-path="url(#p08d5b7a9aa)" d="M 368.769627 265.041473 
L 368.769627 98.012462 
" style="fill:none;stroke:#64b5cd;stroke-width:1.5;"/>
    <path clip-path="url(#p08d5b7a9aa)" d="M 289.836292 313.289331 
L 289.836292 148.015983 
" style="fill:none;stroke:#64b5cd;stroke-width:1.5;"/>
    <path clip-path="url(#p08d5b7a9aa)" d="M 263.708614 305.147191 
L 263.708614 138.586731 
" style="fill:none;stroke:#64b5cd;stroke-width:1.5;"/>
    <path clip-path="url(#p08d5b7a9aa)" d="M 275.039794 318.21869 
L 275.039794 153.759415 
" style="fill:none;stroke:#64b5cd;stroke-width:1.5;"/>
    <path clip-path="url(#p08d5b7a9aa)" d="M 216.497672 363.682192 
L 216.497672 190.303816 
" style="fill:none;stroke:#64b5cd;stroke-width:1.5;"/>
    <path clip-path="url(#p08d5b7a9aa)" d="M 285.008764 316.071399 
L 285.008764 151.320202 
" style="fill:none;stroke:#64b5cd;stroke-width:1.5;"/>
    <path clip-path="url(#p08d5b7a9aa)" d="M 306.581339 317.489075 
L 306.581339 151.548777 
" style="fill:none;stroke:#64b5cd;stroke-width:1.5;"/>
    <path clip-path="url(#p08d5b7a9aa)" d="M 415.448333 270.662907 
L 415.448333 102.151891 
" style="fill:none;stroke:#64b5cd;stroke-width:1.5;"/>
    <path clip-path="url(#p08d5b7a9aa)" d="M 188.292056 333.093549 
L 188.292056 166.931553 
" style="fill:none;stroke:#64b5cd;stroke-width:1.5;"/>
    <path clip-path="url(#p08d5b7a9aa)" d="M 341.533826 359.736578 
L 341.533826 193.414381 
" style="fill:none;stroke:#64b5cd;stroke-width:1.5;"/>
    <path clip-path="url(#p08d5b7a9aa)" d="M 155.595156 327.936278 
L 155.595156 161.88313 
" style="fill:none;stroke:#64b5cd;stroke-width:1.5;"/>
    <path clip-path="url(#p08d5b7a9aa)" d="M 329.591347 267.157465 
L 329.591347 100.072011 
" style="fill:none;stroke:#64b5cd;stroke-width:1.5;"/>
    <path clip-path="url(#p08d5b7a9aa)" d="M 322.873148 303.830393 
L 322.873148 138.370628 
" style="fill:none;stroke:#64b5cd;stroke-width:1.5;"/>
    <path clip-path="url(#p08d5b7a9aa)" d="M 235.634663 358.065687 
L 235.634663 192.527927 
" style="fill:none;stroke:#64b5cd;stroke-width:1.5;"/>
    <path clip-path="url(#p08d5b7a9aa)" d="M 224.696811 322.923975 
L 224.696811 156.147007 
" style="fill:none;stroke:#64b5cd;stroke-width:1.5;"/>
    <path clip-path="url(#p08d5b7a9aa)" d="M 254.616048 321.601927 
L 254.616048 155.551754 
" style="fill:none;stroke:#64b5cd;stroke-width:1.5;"/>
    <path clip-path="url(#p08d5b7a9aa)" d="M 324.175953 257.883952 
L 324.175953 90.703996 
" style="fill:none;stroke:#64b5cd;stroke-width:1.5;"/>
    <path clip-path="url(#p08d5b7a9aa)" d="M 206.858575 346.862004 
L 206.858575 180.242532 
" style="fill:none;stroke:#64b5cd;stroke-width:1.5;"/>
    <path clip-path="url(#p08d5b7a9aa)" d="M 267.727096 356.778111 
L 267.727096 189.914752 
" style="fill:none;stroke:#64b5cd;stroke-width:1.5;"/>
    <path clip-path="url(#p08d5b7a9aa)" d="M 276.290568 333.185014 
L 276.290568 167.000973 
" style="fill:none;stroke:#64b5cd;stroke-width:1.5;"/>
    <path clip-path="url(#p08d5b7a9aa)" d="M 163.071612 380.013263 
L 163.071612 212.118931 
" style="fill:none;stroke:#64b5cd;stroke-width:1.5;"/>
    <path clip-path="url(#p08d5b7a9aa)" d="M 315.745927 320.70378 
L 315.745927 154.239691 
" style="fill:none;stroke:#64b5cd;stroke-width:1.5;"/>
    <path clip-path="url(#p08d5b7a9aa)" d="M 309.646154 302.93513 
L 309.646154 137.640571 
" style="fill:none;stroke:#64b5cd;stroke-width:1.5;"/>
    <path clip-path="url(#p08d5b7a9aa)" d="M 320.986944 315.940659 
L 320.986944 151.434773 
" style="fill:none;stroke:#64b5cd;stroke-width:1.5;"/>
    <path clip-path="url(#p08d5b7a9aa)" d="M 263.484664 351.004389 
L 263.484664 183.461892 
" style="fill:none;stroke:#64b5cd;stroke-width:1.5;"/>
   </g>
   <g id="line2d_16">
    <defs>
     <path d="M 2 0 
L -2 -0 
" id="m8f45189211" style="stroke:#64b5cd;"/>
    </defs>
    <g clip-path="url(#p08d5b7a9aa)">
     <use style="fill:#64b5cd;stroke:#64b5cd;" x="281.64562" xlink:href="#m8f45189211" y="321.69879"/>
     <use style="fill:#64b5cd;stroke:#64b5cd;" x="285.318794" xlink:href="#m8f45189211" y="331.529764"/>
     <use style="fill:#64b5cd;stroke:#64b5cd;" x="361.004606" xlink:href="#m8f45189211" y="294.180559"/>
     <use style="fill:#64b5cd;stroke:#64b5cd;" x="395.629389" xlink:href="#m8f45189211" y="263.535334"/>
     <use style="fill:#64b5cd;stroke:#64b5cd;" x="178.313455" xlink:href="#m8f45189211" y="331.705965"/>
     <use style="fill:#64b5cd;stroke:#64b5cd;" x="218.905653" xlink:href="#m8f45189211" y="320.792379"/>
     <use style="fill:#64b5cd;stroke:#64b5cd;" x="444.037382" xlink:href="#m8f45189211" y="213.216432"/>
     <use style="fill:#64b5cd;stroke:#64b5cd;" x="350.281229" xlink:href="#m8f45189211" y="278.850536"/>
     <use style="fill:#64b5cd;stroke:#64b5cd;" x="283.192406" xlink:href="#m8f45189211" y="334.653338"/>
     <use style="fill:#64b5cd;stroke:#64b5cd;" x="518.23679" xlink:href="#m8f45189211" y="293.919283"/>
     <use style="fill:#64b5cd;stroke:#64b5cd;" x="225.536313" xlink:href="#m8f45189211" y="376.383976"/>
     <use style="fill:#64b5cd;stroke:#64b5cd;" x="310.284457" xlink:href="#m8f45189211" y="339.479368"/>
     <use style="fill:#64b5cd;stroke:#64b5cd;" x="342.279393" xlink:href="#m8f45189211" y="305.528122"/>
     <use style="fill:#64b5cd;stroke:#64b5cd;" x="271.696909" xlink:href="#m8f45189211" y="364.46223"/>
     <use style="fill:#64b5cd;stroke:#64b5cd;" x="153.374725" xlink:href="#m8f45189211" y="402.293225"/>
     <use style="fill:#64b5cd;stroke:#64b5cd;" x="292.917676" xlink:href="#m8f45189211" y="338.15719"/>
     <use style="fill:#64b5cd;stroke:#64b5cd;" x="172.102869" xlink:href="#m8f45189211" y="365.437662"/>
     <use style="fill:#64b5cd;stroke:#64b5cd;" x="244.918801" xlink:href="#m8f45189211" y="325.06923"/>
     <use style="fill:#64b5cd;stroke:#64b5cd;" x="227.218172" xlink:href="#m8f45189211" y="339.18495"/>
     <use style="fill:#64b5cd;stroke:#64b5cd;" x="219.774967" xlink:href="#m8f45189211" y="370.059782"/>
     <use style="fill:#64b5cd;stroke:#64b5cd;" x="507.998121" xlink:href="#m8f45189211" y="237.008049"/>
     <use style="fill:#64b5cd;stroke:#64b5cd;" x="130.263796" xlink:href="#m8f45189211" y="345.254595"/>
     <use style="fill:#64b5cd;stroke:#64b5cd;" x="355.150756" xlink:href="#m8f45189211" y="289.400289"/>
     <use style="fill:#64b5cd;stroke:#64b5cd;" x="63.371987" xlink:href="#m8f45189211" y="411.341957"/>
     <use style="fill:#64b5cd;stroke:#64b5cd;" x="232.785128" xlink:href="#m8f45189211" y="332.08508"/>
     <use style="fill:#64b5cd;stroke:#64b5cd;" x="402.337797" xlink:href="#m8f45189211" y="273.709441"/>
     <use style="fill:#64b5cd;stroke:#64b5cd;" x="184.520519" xlink:href="#m8f45189211" y="390.073231"/>
     <use style="fill:#64b5cd;stroke:#64b5cd;" x="218.048389" xlink:href="#m8f45189211" y="311.329087"/>
     <use style="fill:#64b5cd;stroke:#64b5cd;" x="202.266041" xlink:href="#m8f45189211" y="343.300425"/>
     <use style="fill:#64b5cd;stroke:#64b5cd;" x="281.047299" xlink:href="#m8f45189211" y="340.935359"/>
     <use style="fill:#64b5cd;stroke:#64b5cd;" x="155.001866" xlink:href="#m8f45189211" y="376.113476"/>
     <use style="fill:#64b5cd;stroke:#64b5cd;" x="391.546456" xlink:href="#m8f45189211" y="232.812428"/>
     <use style="fill:#64b5cd;stroke:#64b5cd;" x="245.358866" xlink:href="#m8f45189211" y="339.323557"/>
     <use style="fill:#64b5cd;stroke:#64b5cd;" x="190.670435" xlink:href="#m8f45189211" y="358.59124"/>
     <use style="fill:#64b5cd;stroke:#64b5cd;" x="414.229899" xlink:href="#m8f45189211" y="297.338082"/>
     <use style="fill:#64b5cd;stroke:#64b5cd;" x="283.961748" xlink:href="#m8f45189211" y="346.523367"/>
     <use style="fill:#64b5cd;stroke:#64b5cd;" x="149.355664" xlink:href="#m8f45189211" y="322.913269"/>
     <use style="fill:#64b5cd;stroke:#64b5cd;" x="164.730029" xlink:href="#m8f45189211" y="416.944853"/>
     <use style="fill:#64b5cd;stroke:#64b5cd;" x="184.451293" xlink:href="#m8f45189211" y="364.585391"/>
     <use style="fill:#64b5cd;stroke:#64b5cd;" x="297.772087" xlink:href="#m8f45189211" y="332.06072"/>
     <use style="fill:#64b5cd;stroke:#64b5cd;" x="276.750014" xlink:href="#m8f45189211" y="279.744029"/>
     <use style="fill:#64b5cd;stroke:#64b5cd;" x="313.297107" xlink:href="#m8f45189211" y="286.230193"/>
     <use style="fill:#64b5cd;stroke:#64b5cd;" x="250.115949" xlink:href="#m8f45189211" y="354.224948"/>
     <use style="fill:#64b5cd;stroke:#64b5cd;" x="310.306343" xlink:href="#m8f45189211" y="327.897268"/>
     <use style="fill:#64b5cd;stroke:#64b5cd;" x="130.19965" xlink:href="#m8f45189211" y="382.190655"/>
     <use style="fill:#64b5cd;stroke:#64b5cd;" x="236.125187" xlink:href="#m8f45189211" y="336.729726"/>
     <use style="fill:#64b5cd;stroke:#64b5cd;" x="186.089212" xlink:href="#m8f45189211" y="362.45041"/>
     <use style="fill:#64b5cd;stroke:#64b5cd;" x="258.990663" xlink:href="#m8f45189211" y="295.079387"/>
     <use style="fill:#64b5cd;stroke:#64b5cd;" x="406.548112" xlink:href="#m8f45189211" y="292.144059"/>
     <use style="fill:#64b5cd;stroke:#64b5cd;" x="205.443095" xlink:href="#m8f45189211" y="395.497209"/>
     <use style="fill:#64b5cd;stroke:#64b5cd;" x="227.803725" xlink:href="#m8f45189211" y="297.900401"/>
     <use style="fill:#64b5cd;stroke:#64b5cd;" x="313.061182" xlink:href="#m8f45189211" y="329.156362"/>
     <use style="fill:#64b5cd;stroke:#64b5cd;" x="335.489533" xlink:href="#m8f45189211" y="362.529392"/>
     <use style="fill:#64b5cd;stroke:#64b5cd;" x="372.290525" xlink:href="#m8f45189211" y="285.393978"/>
     <use style="fill:#64b5cd;stroke:#64b5cd;" x="254.192895" xlink:href="#m8f45189211" y="265.360477"/>
     <use style="fill:#64b5cd;stroke:#64b5cd;" x="278.446364" xlink:href="#m8f45189211" y="288.15917"/>
     <use style="fill:#64b5cd;stroke:#64b5cd;" x="349.835794" xlink:href="#m8f45189211" y="323.742415"/>
     <use style="fill:#64b5cd;stroke:#64b5cd;" x="229.57837" xlink:href="#m8f45189211" y="323.136716"/>
     <use style="fill:#64b5cd;stroke:#64b5cd;" x="283.477951" xlink:href="#m8f45189211" y="324.861387"/>
     <use style="fill:#64b5cd;stroke:#64b5cd;" x="390.166526" xlink:href="#m8f45189211" y="261.362187"/>
     <use style="fill:#64b5cd;stroke:#64b5cd;" x="167.022258" xlink:href="#m8f45189211" y="358.423912"/>
     <use style="fill:#64b5cd;stroke:#64b5cd;" x="281.732242" xlink:href="#m8f45189211" y="312.021609"/>
     <use style="fill:#64b5cd;stroke:#64b5cd;" x="61.691335" xlink:href="#m8f45189211" y="348.819963"/>
     <use style="fill:#64b5cd;stroke:#64b5cd;" x="125.589548" xlink:href="#m8f45189211" y="389.410279"/>
     <use style="fill:#64b5cd;stroke:#64b5cd;" x="331.917789" xlink:href="#m8f45189211" y="263.470735"/>
     <use style="fill:#64b5cd;stroke:#64b5cd;" x="291.085734" xlink:href="#m8f45189211" y="248.529483"/>
     <use style="fill:#64b5cd;stroke:#64b5cd;" x="384.153803" xlink:href="#m8f45189211" y="306.162745"/>
     <use style="fill:#64b5cd;stroke:#64b5cd;" x="302.711807" xlink:href="#m8f45189211" y="238.119329"/>
     <use style="fill:#64b5cd;stroke:#64b5cd;" x="262.099302" xlink:href="#m8f45189211" y="305.282838"/>
     <use style="fill:#64b5cd;stroke:#64b5cd;" x="223.326475" xlink:href="#m8f45189211" y="361.736566"/>
     <use style="fill:#64b5cd;stroke:#64b5cd;" x="349.685829" xlink:href="#m8f45189211" y="317.588425"/>
     <use style="fill:#64b5cd;stroke:#64b5cd;" x="256.221214" xlink:href="#m8f45189211" y="262.637137"/>
     <use style="fill:#64b5cd;stroke:#64b5cd;" x="334.566208" xlink:href="#m8f45189211" y="320.344663"/>
     <use style="fill:#64b5cd;stroke:#64b5cd;" x="371.458163" xlink:href="#m8f45189211" y="239.937334"/>
     <use style="fill:#64b5cd;stroke:#64b5cd;" x="78.848719" xlink:href="#m8f45189211" y="436.902102"/>
     <use style="fill:#64b5cd;stroke:#64b5cd;" x="368.769627" xlink:href="#m8f45189211" y="265.041473"/>
     <use style="fill:#64b5cd;stroke:#64b5cd;" x="289.836292" xlink:href="#m8f45189211" y="313.289331"/>
     <use style="fill:#64b5cd;stroke:#64b5cd;" x="263.708614" xlink:href="#m8f45189211" y="305.147191"/>
     <use style="fill:#64b5cd;stroke:#64b5cd;" x="275.039794" xlink:href="#m8f45189211" y="318.21869"/>
     <use style="fill:#64b5cd;stroke:#64b5cd;" x="216.497672" xlink:href="#m8f45189211" y="363.682192"/>
     <use style="fill:#64b5cd;stroke:#64b5cd;" x="285.008764" xlink:href="#m8f45189211" y="316.071399"/>
     <use style="fill:#64b5cd;stroke:#64b5cd;" x="306.581339" xlink:href="#m8f45189211" y="317.489075"/>
     <use style="fill:#64b5cd;stroke:#64b5cd;" x="415.448333" xlink:href="#m8f45189211" y="270.662907"/>
     <use style="fill:#64b5cd;stroke:#64b5cd;" x="188.292056" xlink:href="#m8f45189211" y="333.093549"/>
     <use style="fill:#64b5cd;stroke:#64b5cd;" x="341.533826" xlink:href="#m8f45189211" y="359.736578"/>
     <use style="fill:#64b5cd;stroke:#64b5cd;" x="155.595156" xlink:href="#m8f45189211" y="327.936278"/>
     <use style="fill:#64b5cd;stroke:#64b5cd;" x="329.591347" xlink:href="#m8f45189211" y="267.157465"/>
     <use style="fill:#64b5cd;stroke:#64b5cd;" x="322.873148" xlink:href="#m8f45189211" y="303.830393"/>
     <use style="fill:#64b5cd;stroke:#64b5cd;" x="235.634663" xlink:href="#m8f45189211" y="358.065687"/>
     <use style="fill:#64b5cd;stroke:#64b5cd;" x="224.696811" xlink:href="#m8f45189211" y="322.923975"/>
     <use style="fill:#64b5cd;stroke:#64b5cd;" x="254.616048" xlink:href="#m8f45189211" y="321.601927"/>
     <use style="fill:#64b5cd;stroke:#64b5cd;" x="324.175953" xlink:href="#m8f45189211" y="257.883952"/>
     <use style="fill:#64b5cd;stroke:#64b5cd;" x="206.858575" xlink:href="#m8f45189211" y="346.862004"/>
     <use style="fill:#64b5cd;stroke:#64b5cd;" x="267.727096" xlink:href="#m8f45189211" y="356.778111"/>
     <use style="fill:#64b5cd;stroke:#64b5cd;" x="276.290568" xlink:href="#m8f45189211" y="333.185014"/>
     <use style="fill:#64b5cd;stroke:#64b5cd;" x="163.071612" xlink:href="#m8f45189211" y="380.013263"/>
     <use style="fill:#64b5cd;stroke:#64b5cd;" x="315.745927" xlink:href="#m8f45189211" y="320.70378"/>
     <use style="fill:#64b5cd;stroke:#64b5cd;" x="309.646154" xlink:href="#m8f45189211" y="302.93513"/>
     <use style="fill:#64b5cd;stroke:#64b5cd;" x="320.986944" xlink:href="#m8f45189211" y="315.940659"/>
     <use style="fill:#64b5cd;stroke:#64b5cd;" x="263.484664" xlink:href="#m8f45189211" y="351.004389"/>
    </g>
   </g>
   <g id="line2d_17">
    <g clip-path="url(#p08d5b7a9aa)">
     <use style="fill:#64b5cd;stroke:#64b5cd;" x="281.64562" xlink:href="#m8f45189211" y="154.372909"/>
     <use style="fill:#64b5cd;stroke:#64b5cd;" x="285.318794" xlink:href="#m8f45189211" y="167.143789"/>
     <use style="fill:#64b5cd;stroke:#64b5cd;" x="361.004606" xlink:href="#m8f45189211" y="128.839836"/>
     <use style="fill:#64b5cd;stroke:#64b5cd;" x="395.629389" xlink:href="#m8f45189211" y="95.166944"/>
     <use style="fill:#64b5cd;stroke:#64b5cd;" x="178.313455" xlink:href="#m8f45189211" y="166.272259"/>
     <use style="fill:#64b5cd;stroke:#64b5cd;" x="218.905653" xlink:href="#m8f45189211" y="155.600726"/>
     <use style="fill:#64b5cd;stroke:#64b5cd;" x="444.037382" xlink:href="#m8f45189211" y="41.556648"/>
     <use style="fill:#64b5cd;stroke:#64b5cd;" x="350.281229" xlink:href="#m8f45189211" y="113.086418"/>
     <use style="fill:#64b5cd;stroke:#64b5cd;" x="283.192406" xlink:href="#m8f45189211" y="169.391025"/>
     <use style="fill:#64b5cd;stroke:#64b5cd;" x="518.23679" xlink:href="#m8f45189211" y="128.749886"/>
     <use style="fill:#64b5cd;stroke:#64b5cd;" x="225.536313" xlink:href="#m8f45189211" y="207.896342"/>
     <use style="fill:#64b5cd;stroke:#64b5cd;" x="310.284457" xlink:href="#m8f45189211" y="174.5418"/>
     <use style="fill:#64b5cd;stroke:#64b5cd;" x="342.279393" xlink:href="#m8f45189211" y="140.184272"/>
     <use style="fill:#64b5cd;stroke:#64b5cd;" x="271.696909" xlink:href="#m8f45189211" y="191.409806"/>
     <use style="fill:#64b5cd;stroke:#64b5cd;" x="153.374725" xlink:href="#m8f45189211" y="234.595182"/>
     <use style="fill:#64b5cd;stroke:#64b5cd;" x="292.917676" xlink:href="#m8f45189211" y="172.994358"/>
     <use style="fill:#64b5cd;stroke:#64b5cd;" x="172.102869" xlink:href="#m8f45189211" y="200.194238"/>
     <use style="fill:#64b5cd;stroke:#64b5cd;" x="244.918801" xlink:href="#m8f45189211" y="158.912749"/>
     <use style="fill:#64b5cd;stroke:#64b5cd;" x="227.218172" xlink:href="#m8f45189211" y="172.569371"/>
     <use style="fill:#64b5cd;stroke:#64b5cd;" x="219.774967" xlink:href="#m8f45189211" y="202.611102"/>
     <use style="fill:#64b5cd;stroke:#64b5cd;" x="507.998121" xlink:href="#m8f45189211" y="67.953374"/>
     <use style="fill:#64b5cd;stroke:#64b5cd;" x="130.263796" xlink:href="#m8f45189211" y="180.050266"/>
     <use style="fill:#64b5cd;stroke:#64b5cd;" x="355.150756" xlink:href="#m8f45189211" y="121.949553"/>
     <use style="fill:#64b5cd;stroke:#64b5cd;" x="63.371987" xlink:href="#m8f45189211" y="242.846924"/>
     <use style="fill:#64b5cd;stroke:#64b5cd;" x="232.785128" xlink:href="#m8f45189211" y="167.278692"/>
     <use style="fill:#64b5cd;stroke:#64b5cd;" x="402.337797" xlink:href="#m8f45189211" y="104.867507"/>
     <use style="fill:#64b5cd;stroke:#64b5cd;" x="184.520519" xlink:href="#m8f45189211" y="223.22458"/>
     <use style="fill:#64b5cd;stroke:#64b5cd;" x="218.048389" xlink:href="#m8f45189211" y="145.243735"/>
     <use style="fill:#64b5cd;stroke:#64b5cd;" x="202.266041" xlink:href="#m8f45189211" y="178.460476"/>
     <use style="fill:#64b5cd;stroke:#64b5cd;" x="281.047299" xlink:href="#m8f45189211" y="174.744979"/>
     <use style="fill:#64b5cd;stroke:#64b5cd;" x="155.001866" xlink:href="#m8f45189211" y="207.231573"/>
     <use style="fill:#64b5cd;stroke:#64b5cd;" x="391.546456" xlink:href="#m8f45189211" y="63.046865"/>
     <use style="fill:#64b5cd;stroke:#64b5cd;" x="245.358866" xlink:href="#m8f45189211" y="171.734593"/>
     <use style="fill:#64b5cd;stroke:#64b5cd;" x="190.670435" xlink:href="#m8f45189211" y="192.448512"/>
     <use style="fill:#64b5cd;stroke:#64b5cd;" x="414.229899" xlink:href="#m8f45189211" y="130.12379"/>
     <use style="fill:#64b5cd;stroke:#64b5cd;" x="283.961748" xlink:href="#m8f45189211" y="178.930064"/>
     <use style="fill:#64b5cd;stroke:#64b5cd;" x="149.355664" xlink:href="#m8f45189211" y="156.71872"/>
     <use style="fill:#64b5cd;stroke:#64b5cd;" x="164.730029" xlink:href="#m8f45189211" y="247.342933"/>
     <use style="fill:#64b5cd;stroke:#64b5cd;" x="184.451293" xlink:href="#m8f45189211" y="197.879835"/>
     <use style="fill:#64b5cd;stroke:#64b5cd;" x="297.772087" xlink:href="#m8f45189211" y="165.386526"/>
     <use style="fill:#64b5cd;stroke:#64b5cd;" x="276.750014" xlink:href="#m8f45189211" y="113.746901"/>
     <use style="fill:#64b5cd;stroke:#64b5cd;" x="313.297107" xlink:href="#m8f45189211" y="119.243093"/>
     <use style="fill:#64b5cd;stroke:#64b5cd;" x="250.115949" xlink:href="#m8f45189211" y="186.303399"/>
     <use style="fill:#64b5cd;stroke:#64b5cd;" x="310.306343" xlink:href="#m8f45189211" y="163.419928"/>
     <use style="fill:#64b5cd;stroke:#64b5cd;" x="130.19965" xlink:href="#m8f45189211" y="214.617228"/>
     <use style="fill:#64b5cd;stroke:#64b5cd;" x="236.125187" xlink:href="#m8f45189211" y="171.161392"/>
     <use style="fill:#64b5cd;stroke:#64b5cd;" x="186.089212" xlink:href="#m8f45189211" y="195.600785"/>
     <use style="fill:#64b5cd;stroke:#64b5cd;" x="258.990663" xlink:href="#m8f45189211" y="126.174544"/>
     <use style="fill:#64b5cd;stroke:#64b5cd;" x="406.548112" xlink:href="#m8f45189211" y="126.635498"/>
     <use style="fill:#64b5cd;stroke:#64b5cd;" x="205.443095" xlink:href="#m8f45189211" y="226.89818"/>
     <use style="fill:#64b5cd;stroke:#64b5cd;" x="227.803725" xlink:href="#m8f45189211" y="132.845327"/>
     <use style="fill:#64b5cd;stroke:#64b5cd;" x="313.061182" xlink:href="#m8f45189211" y="163.957873"/>
     <use style="fill:#64b5cd;stroke:#64b5cd;" x="335.489533" xlink:href="#m8f45189211" y="195.54619"/>
     <use style="fill:#64b5cd;stroke:#64b5cd;" x="372.290525" xlink:href="#m8f45189211" y="119.79954"/>
     <use style="fill:#64b5cd;stroke:#64b5cd;" x="254.192895" xlink:href="#m8f45189211" y="98.643475"/>
     <use style="fill:#64b5cd;stroke:#64b5cd;" x="278.446364" xlink:href="#m8f45189211" y="121.490185"/>
     <use style="fill:#64b5cd;stroke:#64b5cd;" x="349.835794" xlink:href="#m8f45189211" y="155.128498"/>
     <use style="fill:#64b5cd;stroke:#64b5cd;" x="229.57837" xlink:href="#m8f45189211" y="158.251418"/>
     <use style="fill:#64b5cd;stroke:#64b5cd;" x="283.477951" xlink:href="#m8f45189211" y="158.361601"/>
     <use style="fill:#64b5cd;stroke:#64b5cd;" x="390.166526" xlink:href="#m8f45189211" y="93.914849"/>
     <use style="fill:#64b5cd;stroke:#64b5cd;" x="167.022258" xlink:href="#m8f45189211" y="191.725223"/>
     <use style="fill:#64b5cd;stroke:#64b5cd;" x="281.732242" xlink:href="#m8f45189211" y="146.715997"/>
     <use style="fill:#64b5cd;stroke:#64b5cd;" x="61.691335" xlink:href="#m8f45189211" y="180.966605"/>
     <use style="fill:#64b5cd;stroke:#64b5cd;" x="125.589548" xlink:href="#m8f45189211" y="222.016806"/>
     <use style="fill:#64b5cd;stroke:#64b5cd;" x="331.917789" xlink:href="#m8f45189211" y="95.974722"/>
     <use style="fill:#64b5cd;stroke:#64b5cd;" x="291.085734" xlink:href="#m8f45189211" y="80.429304"/>
     <use style="fill:#64b5cd;stroke:#64b5cd;" x="384.153803" xlink:href="#m8f45189211" y="139.795866"/>
     <use style="fill:#64b5cd;stroke:#64b5cd;" x="302.711807" xlink:href="#m8f45189211" y="68.857996"/>
     <use style="fill:#64b5cd;stroke:#64b5cd;" x="262.099302" xlink:href="#m8f45189211" y="140.120484"/>
     <use style="fill:#64b5cd;stroke:#64b5cd;" x="223.326475" xlink:href="#m8f45189211" y="195.842753"/>
     <use style="fill:#64b5cd;stroke:#64b5cd;" x="349.685829" xlink:href="#m8f45189211" y="151.28674"/>
     <use style="fill:#64b5cd;stroke:#64b5cd;" x="256.221214" xlink:href="#m8f45189211" y="94.640147"/>
     <use style="fill:#64b5cd;stroke:#64b5cd;" x="334.566208" xlink:href="#m8f45189211" y="155.253794"/>
     <use style="fill:#64b5cd;stroke:#64b5cd;" x="371.458163" xlink:href="#m8f45189211" y="72.04585"/>
     <use style="fill:#64b5cd;stroke:#64b5cd;" x="78.848719" xlink:href="#m8f45189211" y="265.48908"/>
     <use style="fill:#64b5cd;stroke:#64b5cd;" x="368.769627" xlink:href="#m8f45189211" y="98.012462"/>
     <use style="fill:#64b5cd;stroke:#64b5cd;" x="289.836292" xlink:href="#m8f45189211" y="148.015983"/>
     <use style="fill:#64b5cd;stroke:#64b5cd;" x="263.708614" xlink:href="#m8f45189211" y="138.586731"/>
     <use style="fill:#64b5cd;stroke:#64b5cd;" x="275.039794" xlink:href="#m8f45189211" y="153.759415"/>
     <use style="fill:#64b5cd;stroke:#64b5cd;" x="216.497672" xlink:href="#m8f45189211" y="190.303816"/>
     <use style="fill:#64b5cd;stroke:#64b5cd;" x="285.008764" xlink:href="#m8f45189211" y="151.320202"/>
     <use style="fill:#64b5cd;stroke:#64b5cd;" x="306.581339" xlink:href="#m8f45189211" y="151.548777"/>
     <use style="fill:#64b5cd;stroke:#64b5cd;" x="415.448333" xlink:href="#m8f45189211" y="102.151891"/>
     <use style="fill:#64b5cd;stroke:#64b5cd;" x="188.292056" xlink:href="#m8f45189211" y="166.931553"/>
     <use style="fill:#64b5cd;stroke:#64b5cd;" x="341.533826" xlink:href="#m8f45189211" y="193.414381"/>
     <use style="fill:#64b5cd;stroke:#64b5cd;" x="155.595156" xlink:href="#m8f45189211" y="161.88313"/>
     <use style="fill:#64b5cd;stroke:#64b5cd;" x="329.591347" xlink:href="#m8f45189211" y="100.072011"/>
     <use style="fill:#64b5cd;stroke:#64b5cd;" x="322.873148" xlink:href="#m8f45189211" y="138.370628"/>
     <use style="fill:#64b5cd;stroke:#64b5cd;" x="235.634663" xlink:href="#m8f45189211" y="192.527927"/>
     <use style="fill:#64b5cd;stroke:#64b5cd;" x="224.696811" xlink:href="#m8f45189211" y="156.147007"/>
     <use style="fill:#64b5cd;stroke:#64b5cd;" x="254.616048" xlink:href="#m8f45189211" y="155.551754"/>
     <use style="fill:#64b5cd;stroke:#64b5cd;" x="324.175953" xlink:href="#m8f45189211" y="90.703996"/>
     <use style="fill:#64b5cd;stroke:#64b5cd;" x="206.858575" xlink:href="#m8f45189211" y="180.242532"/>
     <use style="fill:#64b5cd;stroke:#64b5cd;" x="267.727096" xlink:href="#m8f45189211" y="189.914752"/>
     <use style="fill:#64b5cd;stroke:#64b5cd;" x="276.290568" xlink:href="#m8f45189211" y="167.000973"/>
     <use style="fill:#64b5cd;stroke:#64b5cd;" x="163.071612" xlink:href="#m8f45189211" y="212.118931"/>
     <use style="fill:#64b5cd;stroke:#64b5cd;" x="315.745927" xlink:href="#m8f45189211" y="154.239691"/>
     <use style="fill:#64b5cd;stroke:#64b5cd;" x="309.646154" xlink:href="#m8f45189211" y="137.640571"/>
     <use style="fill:#64b5cd;stroke:#64b5cd;" x="320.986944" xlink:href="#m8f45189211" y="151.434773"/>
     <use style="fill:#64b5cd;stroke:#64b5cd;" x="263.484664" xlink:href="#m8f45189211" y="183.461892"/>
    </g>
   </g>
   <g id="line2d_18">
    <path clip-path="url(#p08d5b7a9aa)" d="M 38.864062 323.724729 
L 43.93679 321.889073 
L 49.009517 320.053417 
L 54.082244 318.217761 
L 59.154972 316.382105 
L 64.227699 314.546449 
L 69.300426 312.710793 
L 74.373153 310.875137 
L 79.445881 309.039481 
L 84.518608 307.203825 
L 89.591335 305.368169 
L 94.664062 303.532513 
L 99.73679 301.696857 
L 104.809517 299.861201 
L 109.882244 298.025544 
L 114.954972 296.189888 
L 120.027699 294.354232 
L 125.100426 292.518576 
L 130.173153 290.68292 
L 135.245881 288.847264 
L 140.318608 287.011608 
L 145.391335 285.175952 
L 150.464063 283.340296 
L 155.53679 281.50464 
L 160.609517 279.668984 
L 165.682244 277.833328 
L 170.754972 275.997672 
L 175.827699 274.162016 
L 180.900426 272.32636 
L 185.973153 270.490704 
L 191.045881 268.655048 
L 196.118608 266.819391 
L 201.191335 264.983735 
L 206.264063 263.148079 
L 211.33679 261.312423 
L 216.409517 259.476767 
L 221.482244 257.641111 
L 226.554972 255.805455 
L 231.627699 253.969799 
L 236.700426 252.134143 
L 241.773153 250.298487 
L 246.845881 248.462831 
L 251.918608 246.627175 
L 256.991335 244.791519 
L 262.064062 242.955863 
L 267.13679 241.120207 
L 272.209517 239.284551 
L 277.282244 237.448895 
L 282.354972 235.613239 
L 287.427699 233.777582 
L 292.500426 231.941926 
L 297.573153 230.10627 
L 302.645881 228.270614 
L 307.718608 226.434958 
L 312.791335 224.599302 
L 317.864063 222.763646 
L 322.93679 220.92799 
L 328.009517 219.092334 
L 333.082244 217.256678 
L 338.154972 215.421022 
L 343.227699 213.585366 
L 348.300426 211.74971 
L 353.373153 209.914054 
L 358.445881 208.078398 
L 363.518608 206.242742 
L 368.591335 204.407086 
L 373.664062 202.57143 
L 378.73679 200.735773 
L 383.809517 198.900117 
L 388.882244 197.064461 
L 393.954972 195.228805 
L 399.027699 193.393149 
L 404.100426 191.557493 
L 409.173153 189.721837 
L 414.245881 187.886181 
L 419.318608 186.050525 
L 424.391335 184.214869 
L 429.464063 182.379213 
L 434.53679 180.543557 
L 439.609517 178.707901 
L 444.682244 176.872245 
L 449.754972 175.036589 
L 454.827699 173.200933 
L 459.900426 171.365277 
L 464.973153 169.529621 
L 470.045881 167.693964 
L 475.118608 165.858308 
L 480.191335 164.022652 
L 485.264063 162.186996 
L 490.33679 160.35134 
L 495.409517 158.515684 
L 500.482244 156.680028 
L 505.554972 154.844372 
L 510.627699 153.008716 
L 515.700426 151.17306 
L 520.773153 149.337404 
L 525.845881 147.501748 
L 530.918608 145.666092 
L 535.991335 143.830436 
L 541.064063 141.99478 
" style="fill:none;stroke:#4c72b0;stroke-linecap:round;stroke-opacity:0.5;stroke-width:2.25;"/>
   </g>
   <g id="line2d_19">
    <path clip-path="url(#p08d5b7a9aa)" d="M 38.864063 396.162009 
L 541.064063 58.269736 
" style="fill:none;stroke:#c44e52;stroke-dasharray:5.55,2.4;stroke-dashoffset:0;stroke-width:1.5;"/>
   </g>
   <g id="line2d_20">
    <defs>
     <path d="M 0 3 
C 0.795609 3 1.55874 2.683901 2.12132 2.12132 
C 2.683901 1.55874 3 0.795609 3 0 
C 3 -0.795609 2.683901 -1.55874 2.12132 -2.12132 
C 1.55874 -2.683901 0.795609 -3 0 -3 
C -0.795609 -3 -1.55874 -2.683901 -2.12132 -2.12132 
C -2.683901 -1.55874 -3 -0.795609 -3 0 
C -3 0.795609 -2.683901 1.55874 -2.12132 2.12132 
C -1.55874 2.683901 -0.795609 3 0 3 
z
" id="m8094942cbf" style="stroke:#4c72b0;"/>
    </defs>
    <g clip-path="url(#p08d5b7a9aa)">
     <use style="fill:#4c72b0;stroke:#4c72b0;" x="281.64562" xlink:href="#m8094942cbf" y="238.03585"/>
     <use style="fill:#4c72b0;stroke:#4c72b0;" x="285.318794" xlink:href="#m8094942cbf" y="249.336779"/>
     <use style="fill:#4c72b0;stroke:#4c72b0;" x="361.004606" xlink:href="#m8094942cbf" y="211.5102"/>
     <use style="fill:#4c72b0;stroke:#4c72b0;" x="395.629389" xlink:href="#m8094942cbf" y="179.351139"/>
     <use style="fill:#4c72b0;stroke:#4c72b0;" x="178.313455" xlink:href="#m8094942cbf" y="248.989112"/>
     <use style="fill:#4c72b0;stroke:#4c72b0;" x="218.905653" xlink:href="#m8094942cbf" y="238.19655"/>
     <use style="fill:#4c72b0;stroke:#4c72b0;" x="444.037382" xlink:href="#m8094942cbf" y="127.386544"/>
     <use style="fill:#4c72b0;stroke:#4c72b0;" x="350.281229" xlink:href="#m8094942cbf" y="195.968472"/>
     <use style="fill:#4c72b0;stroke:#4c72b0;" x="283.192406" xlink:href="#m8094942cbf" y="252.02218"/>
     <use style="fill:#4c72b0;stroke:#4c72b0;" x="518.23679" xlink:href="#m8094942cbf" y="211.334585"/>
     <use style="fill:#4c72b0;stroke:#4c72b0;" x="225.536313" xlink:href="#m8094942cbf" y="292.14016"/>
     <use style="fill:#4c72b0;stroke:#4c72b0;" x="310.284457" xlink:href="#m8094942cbf" y="257.010586"/>
     <use style="fill:#4c72b0;stroke:#4c72b0;" x="342.279393" xlink:href="#m8094942cbf" y="222.856195"/>
     <use style="fill:#4c72b0;stroke:#4c72b0;" x="271.696909" xlink:href="#m8094942cbf" y="277.936015"/>
     <use style="fill:#4c72b0;stroke:#4c72b0;" x="153.374725" xlink:href="#m8094942cbf" y="318.444206"/>
     <use style="fill:#4c72b0;stroke:#4c72b0;" x="292.917676" xlink:href="#m8094942cbf" y="255.575771"/>
     <use style="fill:#4c72b0;stroke:#4c72b0;" x="172.102869" xlink:href="#m8094942cbf" y="282.815951"/>
     <use style="fill:#4c72b0;stroke:#4c72b0;" x="244.918801" xlink:href="#m8094942cbf" y="241.990989"/>
     <use style="fill:#4c72b0;stroke:#4c72b0;" x="227.218172" xlink:href="#m8094942cbf" y="255.877163"/>
     <use style="fill:#4c72b0;stroke:#4c72b0;" x="219.774967" xlink:href="#m8094942cbf" y="286.33544"/>
     <use style="fill:#4c72b0;stroke:#4c72b0;" x="507.998121" xlink:href="#m8094942cbf" y="152.480716"/>
     <use style="fill:#4c72b0;stroke:#4c72b0;" x="130.263796" xlink:href="#m8094942cbf" y="262.652432"/>
     <use style="fill:#4c72b0;stroke:#4c72b0;" x="355.150756" xlink:href="#m8094942cbf" y="205.674921"/>
     <use style="fill:#4c72b0;stroke:#4c72b0;" x="63.371987" xlink:href="#m8094942cbf" y="327.094438"/>
     <use style="fill:#4c72b0;stroke:#4c72b0;" x="232.785128" xlink:href="#m8094942cbf" y="249.681884"/>
     <use style="fill:#4c72b0;stroke:#4c72b0;" x="402.337797" xlink:href="#m8094942cbf" y="189.288479"/>
     <use style="fill:#4c72b0;stroke:#4c72b0;" x="184.520519" xlink:href="#m8094942cbf" y="306.648906"/>
     <use style="fill:#4c72b0;stroke:#4c72b0;" x="218.048389" xlink:href="#m8094942cbf" y="228.286409"/>
     <use style="fill:#4c72b0;stroke:#4c72b0;" x="202.266041" xlink:href="#m8094942cbf" y="260.880451"/>
     <use style="fill:#4c72b0;stroke:#4c72b0;" x="281.047299" xlink:href="#m8094942cbf" y="257.840168"/>
     <use style="fill:#4c72b0;stroke:#4c72b0;" x="155.001866" xlink:href="#m8094942cbf" y="291.672522"/>
     <use style="fill:#4c72b0;stroke:#4c72b0;" x="391.546456" xlink:href="#m8094942cbf" y="147.929647"/>
     <use style="fill:#4c72b0;stroke:#4c72b0;" x="245.358866" xlink:href="#m8094942cbf" y="255.529077"/>
     <use style="fill:#4c72b0;stroke:#4c72b0;" x="190.670435" xlink:href="#m8094942cbf" y="275.519876"/>
     <use style="fill:#4c72b0;stroke:#4c72b0;" x="414.229899" xlink:href="#m8094942cbf" y="213.730936"/>
     <use style="fill:#4c72b0;stroke:#4c72b0;" x="283.961748" xlink:href="#m8094942cbf" y="262.726714"/>
     <use style="fill:#4c72b0;stroke:#4c72b0;" x="149.355664" xlink:href="#m8094942cbf" y="239.815992"/>
     <use style="fill:#4c72b0;stroke:#4c72b0;" x="164.730029" xlink:href="#m8094942cbf" y="332.143893"/>
     <use style="fill:#4c72b0;stroke:#4c72b0;" x="184.451293" xlink:href="#m8094942cbf" y="281.232611"/>
     <use style="fill:#4c72b0;stroke:#4c72b0;" x="297.772087" xlink:href="#m8094942cbf" y="248.723621"/>
     <use style="fill:#4c72b0;stroke:#4c72b0;" x="276.750014" xlink:href="#m8094942cbf" y="196.745465"/>
     <use style="fill:#4c72b0;stroke:#4c72b0;" x="313.297107" xlink:href="#m8094942cbf" y="202.736645"/>
     <use style="fill:#4c72b0;stroke:#4c72b0;" x="250.115949" xlink:href="#m8094942cbf" y="270.264173"/>
     <use style="fill:#4c72b0;stroke:#4c72b0;" x="310.306343" xlink:href="#m8094942cbf" y="245.658601"/>
     <use style="fill:#4c72b0;stroke:#4c72b0;" x="130.19965" xlink:href="#m8094942cbf" y="298.403939"/>
     <use style="fill:#4c72b0;stroke:#4c72b0;" x="236.125187" xlink:href="#m8094942cbf" y="253.945562"/>
     <use style="fill:#4c72b0;stroke:#4c72b0;" x="186.089212" xlink:href="#m8094942cbf" y="279.025601"/>
     <use style="fill:#4c72b0;stroke:#4c72b0;" x="258.990663" xlink:href="#m8094942cbf" y="210.626963"/>
     <use style="fill:#4c72b0;stroke:#4c72b0;" x="406.548112" xlink:href="#m8094942cbf" y="209.389778"/>
     <use style="fill:#4c72b0;stroke:#4c72b0;" x="205.443095" xlink:href="#m8094942cbf" y="311.197697"/>
     <use style="fill:#4c72b0;stroke:#4c72b0;" x="227.803725" xlink:href="#m8094942cbf" y="215.372866"/>
     <use style="fill:#4c72b0;stroke:#4c72b0;" x="313.061182" xlink:href="#m8094942cbf" y="246.557115"/>
     <use style="fill:#4c72b0;stroke:#4c72b0;" x="335.489533" xlink:href="#m8094942cbf" y="279.037789"/>
     <use style="fill:#4c72b0;stroke:#4c72b0;" x="372.290525" xlink:href="#m8094942cbf" y="202.596754"/>
     <use style="fill:#4c72b0;stroke:#4c72b0;" x="254.192895" xlink:href="#m8094942cbf" y="182.001976"/>
     <use style="fill:#4c72b0;stroke:#4c72b0;" x="278.446364" xlink:href="#m8094942cbf" y="204.824677"/>
     <use style="fill:#4c72b0;stroke:#4c72b0;" x="349.835794" xlink:href="#m8094942cbf" y="239.435458"/>
     <use style="fill:#4c72b0;stroke:#4c72b0;" x="229.57837" xlink:href="#m8094942cbf" y="240.694065"/>
     <use style="fill:#4c72b0;stroke:#4c72b0;" x="283.477951" xlink:href="#m8094942cbf" y="241.611492"/>
     <use style="fill:#4c72b0;stroke:#4c72b0;" x="390.166526" xlink:href="#m8094942cbf" y="177.638522"/>
     <use style="fill:#4c72b0;stroke:#4c72b0;" x="167.022258" xlink:href="#m8094942cbf" y="275.074571"/>
     <use style="fill:#4c72b0;stroke:#4c72b0;" x="281.732242" xlink:href="#m8094942cbf" y="229.368805"/>
     <use style="fill:#4c72b0;stroke:#4c72b0;" x="61.691335" xlink:href="#m8094942cbf" y="264.893282"/>
     <use style="fill:#4c72b0;stroke:#4c72b0;" x="125.589548" xlink:href="#m8094942cbf" y="305.713543"/>
     <use style="fill:#4c72b0;stroke:#4c72b0;" x="331.917789" xlink:href="#m8094942cbf" y="179.722728"/>
     <use style="fill:#4c72b0;stroke:#4c72b0;" x="291.085734" xlink:href="#m8094942cbf" y="164.479398"/>
     <use style="fill:#4c72b0;stroke:#4c72b0;" x="384.153803" xlink:href="#m8094942cbf" y="222.979305"/>
     <use style="fill:#4c72b0;stroke:#4c72b0;" x="302.711807" xlink:href="#m8094942cbf" y="153.488663"/>
     <use style="fill:#4c72b0;stroke:#4c72b0;" x="262.099302" xlink:href="#m8094942cbf" y="222.701663"/>
     <use style="fill:#4c72b0;stroke:#4c72b0;" x="223.326475" xlink:href="#m8094942cbf" y="278.789656"/>
     <use style="fill:#4c72b0;stroke:#4c72b0;" x="349.685829" xlink:href="#m8094942cbf" y="234.437582"/>
     <use style="fill:#4c72b0;stroke:#4c72b0;" x="256.221214" xlink:href="#m8094942cbf" y="178.638647"/>
     <use style="fill:#4c72b0;stroke:#4c72b0;" x="334.566208" xlink:href="#m8094942cbf" y="237.799231"/>
     <use style="fill:#4c72b0;stroke:#4c72b0;" x="371.458163" xlink:href="#m8094942cbf" y="155.991592"/>
     <use style="fill:#4c72b0;stroke:#4c72b0;" x="78.848719" xlink:href="#m8094942cbf" y="351.195591"/>
     <use style="fill:#4c72b0;stroke:#4c72b0;" x="368.769627" xlink:href="#m8094942cbf" y="181.526972"/>
     <use style="fill:#4c72b0;stroke:#4c72b0;" x="289.836292" xlink:href="#m8094942cbf" y="230.65266"/>
     <use style="fill:#4c72b0;stroke:#4c72b0;" x="263.708614" xlink:href="#m8094942cbf" y="221.866961"/>
     <use style="fill:#4c72b0;stroke:#4c72b0;" x="275.039794" xlink:href="#m8094942cbf" y="235.989053"/>
     <use style="fill:#4c72b0;stroke:#4c72b0;" x="216.497672" xlink:href="#m8094942cbf" y="276.993001"/>
     <use style="fill:#4c72b0;stroke:#4c72b0;" x="285.008764" xlink:href="#m8094942cbf" y="233.6958"/>
     <use style="fill:#4c72b0;stroke:#4c72b0;" x="306.581339" xlink:href="#m8094942cbf" y="234.518926"/>
     <use style="fill:#4c72b0;stroke:#4c72b0;" x="415.448333" xlink:href="#m8094942cbf" y="186.407399"/>
     <use style="fill:#4c72b0;stroke:#4c72b0;" x="188.292056" xlink:href="#m8094942cbf" y="250.012549"/>
     <use style="fill:#4c72b0;stroke:#4c72b0;" x="341.533826" xlink:href="#m8094942cbf" y="276.575483"/>
     <use style="fill:#4c72b0;stroke:#4c72b0;" x="155.595156" xlink:href="#m8094942cbf" y="244.909706"/>
     <use style="fill:#4c72b0;stroke:#4c72b0;" x="329.591347" xlink:href="#m8094942cbf" y="183.614738"/>
     <use style="fill:#4c72b0;stroke:#4c72b0;" x="322.873148" xlink:href="#m8094942cbf" y="221.100509"/>
     <use style="fill:#4c72b0;stroke:#4c72b0;" x="235.634663" xlink:href="#m8094942cbf" y="275.296806"/>
     <use style="fill:#4c72b0;stroke:#4c72b0;" x="224.696811" xlink:href="#m8094942cbf" y="239.535489"/>
     <use style="fill:#4c72b0;stroke:#4c72b0;" x="254.616048" xlink:href="#m8094942cbf" y="238.576841"/>
     <use style="fill:#4c72b0;stroke:#4c72b0;" x="324.175953" xlink:href="#m8094942cbf" y="174.293974"/>
     <use style="fill:#4c72b0;stroke:#4c72b0;" x="206.858575" xlink:href="#m8094942cbf" y="263.552269"/>
     <use style="fill:#4c72b0;stroke:#4c72b0;" x="267.727096" xlink:href="#m8094942cbf" y="273.346428"/>
     <use style="fill:#4c72b0;stroke:#4c72b0;" x="276.290568" xlink:href="#m8094942cbf" y="250.092996"/>
     <use style="fill:#4c72b0;stroke:#4c72b0;" x="163.071612" xlink:href="#m8094942cbf" y="296.066097"/>
     <use style="fill:#4c72b0;stroke:#4c72b0;" x="315.745927" xlink:href="#m8094942cbf" y="237.471738"/>
     <use style="fill:#4c72b0;stroke:#4c72b0;" x="309.646154" xlink:href="#m8094942cbf" y="220.28785"/>
     <use style="fill:#4c72b0;stroke:#4c72b0;" x="320.986944" xlink:href="#m8094942cbf" y="233.687716"/>
     <use style="fill:#4c72b0;stroke:#4c72b0;" x="263.484664" xlink:href="#m8094942cbf" y="267.233143"/>
    </g>
   </g>
   <g id="patch_3">
    <path d="M 38.864063 456.669375 
L 38.864063 21.789375 
" style="fill:none;stroke:#ffffff;stroke-linecap:square;stroke-linejoin:miter;stroke-width:0.8;"/>
   </g>
   <g id="patch_4">
    <path d="M 541.064063 456.669375 
L 541.064063 21.789375 
" style="fill:none;stroke:#ffffff;stroke-linecap:square;stroke-linejoin:miter;stroke-width:0.8;"/>
   </g>
   <g id="patch_5">
    <path d="M 38.864062 456.669375 
L 541.064063 456.669375 
" style="fill:none;stroke:#ffffff;stroke-linecap:square;stroke-linejoin:miter;stroke-width:0.8;"/>
   </g>
   <g id="patch_6">
    <path d="M 38.864062 21.789375 
L 541.064063 21.789375 
" style="fill:none;stroke:#ffffff;stroke-linecap:square;stroke-linejoin:miter;stroke-width:0.8;"/>
   </g>
   <g id="text_18">
    <!-- Model Predictions -->
    <g style="fill:#262626;" transform="translate(242.277188 15.789375)scale(0.12 -0.12)">
     <defs>
      <path d="M 7.421875 0 
L 7.421875 71.578125 
L 21.6875 71.578125 
L 38.625 20.90625 
Q 40.96875 13.8125 42.046875 10.296875 
Q 43.265625 14.203125 45.84375 21.78125 
L 62.984375 71.578125 
L 75.734375 71.578125 
L 75.734375 0 
L 66.609375 0 
L 66.609375 59.90625 
L 45.796875 0 
L 37.25 0 
L 16.546875 60.9375 
L 16.546875 0 
z
" id="ArialMT-77"/>
      <path d="M 3.328125 25.921875 
Q 3.328125 40.328125 11.328125 47.265625 
Q 18.015625 53.03125 27.640625 53.03125 
Q 38.328125 53.03125 45.109375 46.015625 
Q 51.90625 39.015625 51.90625 26.65625 
Q 51.90625 16.65625 48.90625 10.90625 
Q 45.90625 5.171875 40.15625 2 
Q 34.421875 -1.171875 27.640625 -1.171875 
Q 16.75 -1.171875 10.03125 5.8125 
Q 3.328125 12.796875 3.328125 25.921875 
z
M 12.359375 25.921875 
Q 12.359375 15.96875 16.703125 11.015625 
Q 21.046875 6.0625 27.640625 6.0625 
Q 34.1875 6.0625 38.53125 11.03125 
Q 42.875 16.015625 42.875 26.21875 
Q 42.875 35.84375 38.5 40.796875 
Q 34.125 45.75 27.640625 45.75 
Q 21.046875 45.75 16.703125 40.8125 
Q 12.359375 35.890625 12.359375 25.921875 
z
" id="ArialMT-111"/>
      <path d="M 6.390625 0 
L 6.390625 71.578125 
L 15.1875 71.578125 
L 15.1875 0 
z
" id="ArialMT-108"/>
      <path id="ArialMT-32"/>
      <path d="M 7.71875 0 
L 7.71875 71.578125 
L 34.71875 71.578125 
Q 41.84375 71.578125 45.609375 70.90625 
Q 50.875 70.015625 54.4375 67.546875 
Q 58.015625 65.09375 60.1875 60.640625 
Q 62.359375 56.203125 62.359375 50.875 
Q 62.359375 41.75 56.546875 35.421875 
Q 50.734375 29.109375 35.546875 29.109375 
L 17.1875 29.109375 
L 17.1875 0 
z
M 17.1875 37.546875 
L 35.6875 37.546875 
Q 44.875 37.546875 48.734375 40.96875 
Q 52.59375 44.390625 52.59375 50.59375 
Q 52.59375 55.078125 50.3125 58.265625 
Q 48.046875 61.46875 44.34375 62.5 
Q 41.9375 63.140625 35.5 63.140625 
L 17.1875 63.140625 
z
" id="ArialMT-80"/>
      <path d="M 6.640625 61.46875 
L 6.640625 71.578125 
L 15.4375 71.578125 
L 15.4375 61.46875 
z
M 6.640625 0 
L 6.640625 51.859375 
L 15.4375 51.859375 
L 15.4375 0 
z
" id="ArialMT-105"/>
      <path d="M 40.4375 19 
L 49.078125 17.875 
Q 47.65625 8.9375 41.8125 3.875 
Q 35.984375 -1.171875 27.484375 -1.171875 
Q 16.84375 -1.171875 10.375 5.78125 
Q 3.90625 12.75 3.90625 25.734375 
Q 3.90625 34.125 6.6875 40.421875 
Q 9.46875 46.734375 15.15625 49.875 
Q 20.84375 53.03125 27.546875 53.03125 
Q 35.984375 53.03125 41.359375 48.75 
Q 46.734375 44.484375 48.25 36.625 
L 39.703125 35.296875 
Q 38.484375 40.53125 35.375 43.15625 
Q 32.28125 45.796875 27.875 45.796875 
Q 21.234375 45.796875 17.078125 41.03125 
Q 12.9375 36.28125 12.9375 25.984375 
Q 12.9375 15.53125 16.9375 10.796875 
Q 20.953125 6.0625 27.390625 6.0625 
Q 32.5625 6.0625 36.03125 9.234375 
Q 39.5 12.40625 40.4375 19 
z
" id="ArialMT-99"/>
      <path d="M 25.78125 7.859375 
L 27.046875 0.09375 
Q 23.34375 -0.6875 20.40625 -0.6875 
Q 15.625 -0.6875 12.984375 0.828125 
Q 10.359375 2.34375 9.28125 4.8125 
Q 8.203125 7.28125 8.203125 15.1875 
L 8.203125 45.015625 
L 1.765625 45.015625 
L 1.765625 51.859375 
L 8.203125 51.859375 
L 8.203125 64.703125 
L 16.9375 69.96875 
L 16.9375 51.859375 
L 25.78125 51.859375 
L 25.78125 45.015625 
L 16.9375 45.015625 
L 16.9375 14.703125 
Q 16.9375 10.9375 17.40625 9.859375 
Q 17.875 8.796875 18.921875 8.15625 
Q 19.96875 7.515625 21.921875 7.515625 
Q 23.390625 7.515625 25.78125 7.859375 
z
" id="ArialMT-116"/>
      <path d="M 6.59375 0 
L 6.59375 51.859375 
L 14.5 51.859375 
L 14.5 44.484375 
Q 20.21875 53.03125 31 53.03125 
Q 35.6875 53.03125 39.625 51.34375 
Q 43.5625 49.65625 45.515625 46.921875 
Q 47.46875 44.1875 48.25 40.4375 
Q 48.734375 37.984375 48.734375 31.890625 
L 48.734375 0 
L 39.9375 0 
L 39.9375 31.546875 
Q 39.9375 36.921875 38.90625 39.578125 
Q 37.890625 42.234375 35.28125 43.8125 
Q 32.671875 45.40625 29.15625 45.40625 
Q 23.53125 45.40625 19.453125 41.84375 
Q 15.375 38.28125 15.375 28.328125 
L 15.375 0 
z
" id="ArialMT-110"/>
      <path d="M 3.078125 15.484375 
L 11.765625 16.84375 
Q 12.5 11.625 15.84375 8.84375 
Q 19.1875 6.0625 25.203125 6.0625 
Q 31.25 6.0625 34.171875 8.515625 
Q 37.109375 10.984375 37.109375 14.3125 
Q 37.109375 17.28125 34.515625 19 
Q 32.71875 20.171875 25.53125 21.96875 
Q 15.875 24.421875 12.140625 26.203125 
Q 8.40625 27.984375 6.46875 31.125 
Q 4.546875 34.28125 4.546875 38.09375 
Q 4.546875 41.546875 6.125 44.5 
Q 7.71875 47.46875 10.453125 49.421875 
Q 12.5 50.921875 16.03125 51.96875 
Q 19.578125 53.03125 23.640625 53.03125 
Q 29.734375 53.03125 34.34375 51.265625 
Q 38.96875 49.515625 41.15625 46.5 
Q 43.359375 43.5 44.1875 38.484375 
L 35.59375 37.3125 
Q 35.015625 41.3125 32.203125 43.546875 
Q 29.390625 45.796875 24.265625 45.796875 
Q 18.21875 45.796875 15.625 43.796875 
Q 13.03125 41.796875 13.03125 39.109375 
Q 13.03125 37.40625 14.109375 36.03125 
Q 15.1875 34.625 17.484375 33.6875 
Q 18.796875 33.203125 25.25 31.453125 
Q 34.578125 28.953125 38.25 27.359375 
Q 41.9375 25.78125 44.03125 22.75 
Q 46.140625 19.734375 46.140625 15.234375 
Q 46.140625 10.84375 43.578125 6.953125 
Q 41.015625 3.078125 36.171875 0.953125 
Q 31.34375 -1.171875 25.25 -1.171875 
Q 15.140625 -1.171875 9.84375 3.03125 
Q 4.546875 7.234375 3.078125 15.484375 
z
" id="ArialMT-115"/>
     </defs>
     <use xlink:href="#ArialMT-77"/>
     <use x="83.300781" xlink:href="#ArialMT-111"/>
     <use x="138.916016" xlink:href="#ArialMT-100"/>
     <use x="194.53125" xlink:href="#ArialMT-101"/>
     <use x="250.146484" xlink:href="#ArialMT-108"/>
     <use x="272.363281" xlink:href="#ArialMT-32"/>
     <use x="300.146484" xlink:href="#ArialMT-80"/>
     <use x="366.845703" xlink:href="#ArialMT-114"/>
     <use x="400.146484" xlink:href="#ArialMT-101"/>
     <use x="455.761719" xlink:href="#ArialMT-100"/>
     <use x="511.376953" xlink:href="#ArialMT-105"/>
     <use x="533.59375" xlink:href="#ArialMT-99"/>
     <use x="583.59375" xlink:href="#ArialMT-116"/>
     <use x="611.376953" xlink:href="#ArialMT-105"/>
     <use x="633.59375" xlink:href="#ArialMT-111"/>
     <use x="689.208984" xlink:href="#ArialMT-110"/>
     <use x="744.824219" xlink:href="#ArialMT-115"/>
    </g>
   </g>
   <g id="legend_1">
    <g id="patch_7">
     <path d="M 367.28125 451.669375 
L 534.064063 451.669375 
Q 536.064063 451.669375 536.064063 449.669375 
L 536.064063 407.877187 
Q 536.064063 405.877187 534.064063 405.877187 
L 367.28125 405.877187 
Q 365.28125 405.877187 365.28125 407.877187 
L 365.28125 449.669375 
Q 365.28125 451.669375 367.28125 451.669375 
z
" style="fill:#e6e6e6;opacity:0.8;stroke:#cccccc;stroke-linejoin:miter;"/>
    </g>
    <g id="line2d_21">
     <path d="M 369.28125 413.535 
L 389.28125 413.535 
" style="fill:none;stroke:#4c72b0;stroke-linecap:round;stroke-opacity:0.5;stroke-width:2.25;"/>
    </g>
    <g id="line2d_22"/>
    <g id="text_19">
     <!-- y ~ y_pred -->
     <g style="fill:#262626;" transform="translate(397.28125 417.035)scale(0.1 -0.1)">
      <defs>
       <path d="M 4.25 27.203125 
L 4.25 37.203125 
Q 9.421875 43.0625 17.828125 43.0625 
Q 20.75 43.0625 23.96875 42.203125 
Q 27.203125 41.359375 33.15625 38.8125 
Q 36.53125 37.40625 38.203125 36.96875 
Q 39.890625 36.53125 41.609375 36.53125 
Q 44.78125 36.53125 48.171875 38.421875 
Q 51.5625 40.328125 54.203125 43.21875 
L 54.203125 32.859375 
Q 51.078125 29.9375 47.875 28.609375 
Q 44.671875 27.296875 40.671875 27.296875 
Q 37.75 27.296875 35.078125 27.96875 
Q 32.421875 28.65625 26.625 31.25 
Q 20.84375 33.84375 17 33.84375 
Q 13.875 33.84375 11.109375 32.5 
Q 8.34375 31.15625 4.25 27.203125 
z
" id="ArialMT-126"/>
      </defs>
      <use xlink:href="#ArialMT-121"/>
      <use x="50" xlink:href="#ArialMT-32"/>
      <use x="77.783203" xlink:href="#ArialMT-126"/>
      <use x="136.181641" xlink:href="#ArialMT-32"/>
      <use x="163.964844" xlink:href="#ArialMT-121"/>
      <use x="213.964844" xlink:href="#ArialMT-95"/>
      <use x="269.580078" xlink:href="#ArialMT-112"/>
      <use x="325.195312" xlink:href="#ArialMT-114"/>
      <use x="358.496094" xlink:href="#ArialMT-101"/>
      <use x="414.111328" xlink:href="#ArialMT-100"/>
     </g>
    </g>
    <g id="line2d_23">
     <path d="M 369.28125 427.919375 
L 389.28125 427.919375 
" style="fill:none;stroke:#c44e52;stroke-dasharray:5.55,2.4;stroke-dashoffset:0;stroke-width:1.5;"/>
    </g>
    <g id="line2d_24"/>
    <g id="text_20">
     <!-- diagonal (y = y_pred) -->
     <g style="fill:#262626;" transform="translate(397.28125 431.419375)scale(0.1 -0.1)">
      <defs>
       <path d="M 40.4375 6.390625 
Q 35.546875 2.25 31.03125 0.53125 
Q 26.515625 -1.171875 21.34375 -1.171875 
Q 12.796875 -1.171875 8.203125 3 
Q 3.609375 7.171875 3.609375 13.671875 
Q 3.609375 17.484375 5.34375 20.625 
Q 7.078125 23.78125 9.890625 25.6875 
Q 12.703125 27.59375 16.21875 28.5625 
Q 18.796875 29.25 24.03125 29.890625 
Q 34.671875 31.15625 39.703125 32.90625 
Q 39.75 34.71875 39.75 35.203125 
Q 39.75 40.578125 37.25 42.78125 
Q 33.890625 45.75 27.25 45.75 
Q 21.046875 45.75 18.09375 43.578125 
Q 15.140625 41.40625 13.71875 35.890625 
L 5.125 37.0625 
Q 6.296875 42.578125 8.984375 45.96875 
Q 11.671875 49.359375 16.75 51.1875 
Q 21.828125 53.03125 28.515625 53.03125 
Q 35.15625 53.03125 39.296875 51.46875 
Q 43.453125 49.90625 45.40625 47.53125 
Q 47.359375 45.171875 48.140625 41.546875 
Q 48.578125 39.3125 48.578125 33.453125 
L 48.578125 21.734375 
Q 48.578125 9.46875 49.140625 6.21875 
Q 49.703125 2.984375 51.375 0 
L 42.1875 0 
Q 40.828125 2.734375 40.4375 6.390625 
z
M 39.703125 26.03125 
Q 34.90625 24.078125 25.34375 22.703125 
Q 19.921875 21.921875 17.671875 20.9375 
Q 15.4375 19.96875 14.203125 18.09375 
Q 12.984375 16.21875 12.984375 13.921875 
Q 12.984375 10.40625 15.640625 8.0625 
Q 18.3125 5.71875 23.4375 5.71875 
Q 28.515625 5.71875 32.46875 7.9375 
Q 36.421875 10.15625 38.28125 14.015625 
Q 39.703125 17 39.703125 22.796875 
z
" id="ArialMT-97"/>
       <path d="M 4.984375 -4.296875 
L 13.53125 -5.5625 
Q 14.0625 -9.515625 16.5 -11.328125 
Q 19.78125 -13.765625 25.4375 -13.765625 
Q 31.546875 -13.765625 34.859375 -11.328125 
Q 38.1875 -8.890625 39.359375 -4.5 
Q 40.046875 -1.8125 39.984375 6.78125 
Q 34.234375 0 25.640625 0 
Q 14.9375 0 9.078125 7.71875 
Q 3.21875 15.4375 3.21875 26.21875 
Q 3.21875 33.640625 5.90625 39.90625 
Q 8.59375 46.1875 13.6875 49.609375 
Q 18.796875 53.03125 25.6875 53.03125 
Q 34.859375 53.03125 40.828125 45.609375 
L 40.828125 51.859375 
L 48.921875 51.859375 
L 48.921875 7.03125 
Q 48.921875 -5.078125 46.453125 -10.125 
Q 44 -15.1875 38.640625 -18.109375 
Q 33.296875 -21.046875 25.484375 -21.046875 
Q 16.21875 -21.046875 10.5 -16.875 
Q 4.78125 -12.703125 4.984375 -4.296875 
z
M 12.25 26.859375 
Q 12.25 16.65625 16.296875 11.96875 
Q 20.359375 7.28125 26.46875 7.28125 
Q 32.515625 7.28125 36.609375 11.9375 
Q 40.71875 16.609375 40.71875 26.5625 
Q 40.71875 36.078125 36.5 40.90625 
Q 32.28125 45.75 26.3125 45.75 
Q 20.453125 45.75 16.34375 40.984375 
Q 12.25 36.234375 12.25 26.859375 
z
" id="ArialMT-103"/>
       <path d="M 23.390625 -21.046875 
Q 16.109375 -11.859375 11.078125 0.4375 
Q 6.0625 12.75 6.0625 25.921875 
Q 6.0625 37.546875 9.8125 48.1875 
Q 14.203125 60.546875 23.390625 72.796875 
L 29.6875 72.796875 
Q 23.78125 62.640625 21.875 58.296875 
Q 18.890625 51.5625 17.1875 44.234375 
Q 15.09375 35.109375 15.09375 25.875 
Q 15.09375 2.390625 29.6875 -21.046875 
z
" id="ArialMT-40"/>
       <path d="M 52.828125 42.09375 
L 5.5625 42.09375 
L 5.5625 50.296875 
L 52.828125 50.296875 
z
M 52.828125 20.359375 
L 5.5625 20.359375 
L 5.5625 28.5625 
L 52.828125 28.5625 
z
" id="ArialMT-61"/>
       <path d="M 12.359375 -21.046875 
L 6.0625 -21.046875 
Q 20.65625 2.390625 20.65625 25.875 
Q 20.65625 35.0625 18.5625 44.09375 
Q 16.890625 51.421875 13.921875 58.15625 
Q 12.015625 62.546875 6.0625 72.796875 
L 12.359375 72.796875 
Q 21.53125 60.546875 25.921875 48.1875 
Q 29.6875 37.546875 29.6875 25.921875 
Q 29.6875 12.75 24.625 0.4375 
Q 19.578125 -11.859375 12.359375 -21.046875 
z
" id="ArialMT-41"/>
      </defs>
      <use xlink:href="#ArialMT-100"/>
      <use x="55.615234" xlink:href="#ArialMT-105"/>
      <use x="77.832031" xlink:href="#ArialMT-97"/>
      <use x="133.447266" xlink:href="#ArialMT-103"/>
      <use x="189.0625" xlink:href="#ArialMT-111"/>
      <use x="244.677734" xlink:href="#ArialMT-110"/>
      <use x="300.292969" xlink:href="#ArialMT-97"/>
      <use x="355.908203" xlink:href="#ArialMT-108"/>
      <use x="378.125" xlink:href="#ArialMT-32"/>
      <use x="405.908203" xlink:href="#ArialMT-40"/>
      <use x="439.208984" xlink:href="#ArialMT-121"/>
      <use x="489.208984" xlink:href="#ArialMT-32"/>
      <use x="516.992188" xlink:href="#ArialMT-61"/>
      <use x="575.390625" xlink:href="#ArialMT-32"/>
      <use x="603.173828" xlink:href="#ArialMT-121"/>
      <use x="653.173828" xlink:href="#ArialMT-95"/>
      <use x="708.789062" xlink:href="#ArialMT-112"/>
      <use x="764.404297" xlink:href="#ArialMT-114"/>
      <use x="797.705078" xlink:href="#ArialMT-101"/>
      <use x="853.320312" xlink:href="#ArialMT-100"/>
      <use x="908.935547" xlink:href="#ArialMT-41"/>
     </g>
    </g>
    <g id="LineCollection_2">
     <path d="M 379.28125 447.181875 
L 379.28125 437.181875 
" style="fill:none;stroke:#64b5cd;stroke-width:1.5;"/>
    </g>
    <g id="line2d_25">
     <g>
      <use style="fill:#64b5cd;stroke:#64b5cd;" x="379.28125" xlink:href="#m8f45189211" y="447.181875"/>
     </g>
    </g>
    <g id="line2d_26">
     <g>
      <use style="fill:#64b5cd;stroke:#64b5cd;" x="379.28125" xlink:href="#m8f45189211" y="437.181875"/>
     </g>
    </g>
    <g id="line2d_27"/>
    <g id="line2d_28">
     <g>
      <use style="fill:#4c72b0;stroke:#4c72b0;" x="379.28125" xlink:href="#m8094942cbf" y="442.181875"/>
     </g>
    </g>
    <g id="text_21">
     <!-- predictions + credible intervals -->
     <g style="fill:#262626;" transform="translate(397.28125 445.681875)scale(0.1 -0.1)">
      <defs>
       <path d="M 25.046875 11.578125 
L 25.046875 31.203125 
L 5.5625 31.203125 
L 5.5625 39.40625 
L 25.046875 39.40625 
L 25.046875 58.890625 
L 33.34375 58.890625 
L 33.34375 39.40625 
L 52.828125 39.40625 
L 52.828125 31.203125 
L 33.34375 31.203125 
L 33.34375 11.578125 
z
" id="ArialMT-43"/>
       <path d="M 14.703125 0 
L 6.546875 0 
L 6.546875 71.578125 
L 15.328125 71.578125 
L 15.328125 46.046875 
Q 20.90625 53.03125 29.546875 53.03125 
Q 34.328125 53.03125 38.59375 51.09375 
Q 42.875 49.171875 45.625 45.671875 
Q 48.390625 42.1875 49.953125 37.25 
Q 51.515625 32.328125 51.515625 26.703125 
Q 51.515625 13.375 44.921875 6.09375 
Q 38.328125 -1.171875 29.109375 -1.171875 
Q 19.921875 -1.171875 14.703125 6.5 
z
M 14.59375 26.3125 
Q 14.59375 17 17.140625 12.84375 
Q 21.296875 6.0625 28.375 6.0625 
Q 34.125 6.0625 38.328125 11.0625 
Q 42.53125 16.0625 42.53125 25.984375 
Q 42.53125 36.140625 38.5 40.96875 
Q 34.46875 45.796875 28.765625 45.796875 
Q 23 45.796875 18.796875 40.796875 
Q 14.59375 35.796875 14.59375 26.3125 
z
" id="ArialMT-98"/>
       <path d="M 21 0 
L 1.265625 51.859375 
L 10.546875 51.859375 
L 21.6875 20.796875 
Q 23.484375 15.765625 25 10.359375 
Q 26.171875 14.453125 28.265625 20.21875 
L 39.796875 51.859375 
L 48.828125 51.859375 
L 29.203125 0 
z
" id="ArialMT-118"/>
      </defs>
      <use xlink:href="#ArialMT-112"/>
      <use x="55.615234" xlink:href="#ArialMT-114"/>
      <use x="88.916016" xlink:href="#ArialMT-101"/>
      <use x="144.53125" xlink:href="#ArialMT-100"/>
      <use x="200.146484" xlink:href="#ArialMT-105"/>
      <use x="222.363281" xlink:href="#ArialMT-99"/>
      <use x="272.363281" xlink:href="#ArialMT-116"/>
      <use x="300.146484" xlink:href="#ArialMT-105"/>
      <use x="322.363281" xlink:href="#ArialMT-111"/>
      <use x="377.978516" xlink:href="#ArialMT-110"/>
      <use x="433.59375" xlink:href="#ArialMT-115"/>
      <use x="483.59375" xlink:href="#ArialMT-32"/>
      <use x="511.376953" xlink:href="#ArialMT-43"/>
      <use x="569.775391" xlink:href="#ArialMT-32"/>
      <use x="597.558594" xlink:href="#ArialMT-99"/>
      <use x="647.558594" xlink:href="#ArialMT-114"/>
      <use x="680.859375" xlink:href="#ArialMT-101"/>
      <use x="736.474609" xlink:href="#ArialMT-100"/>
      <use x="792.089844" xlink:href="#ArialMT-105"/>
      <use x="814.306641" xlink:href="#ArialMT-98"/>
      <use x="869.921875" xlink:href="#ArialMT-108"/>
      <use x="892.138672" xlink:href="#ArialMT-101"/>
      <use x="947.753906" xlink:href="#ArialMT-32"/>
      <use x="975.537109" xlink:href="#ArialMT-105"/>
      <use x="997.753906" xlink:href="#ArialMT-110"/>
      <use x="1053.369141" xlink:href="#ArialMT-116"/>
      <use x="1081.152344" xlink:href="#ArialMT-101"/>
      <use x="1136.767578" xlink:href="#ArialMT-114"/>
      <use x="1170.068359" xlink:href="#ArialMT-118"/>
      <use x="1220.068359" xlink:href="#ArialMT-97"/>
      <use x="1275.683594" xlink:href="#ArialMT-108"/>
      <use x="1297.900391" xlink:href="#ArialMT-115"/>
     </g>
    </g>
   </g>
  </g>
 </g>
 <defs>
  <clipPath id="p08d5b7a9aa">
   <rect height="434.88" width="502.2" x="38.864063" y="21.789375"/>
  </clipPath>
 </defs>
</svg>
