<?xml version="1.0" encoding="utf-8" standalone="no"?>
<!DOCTYPE svg PUBLIC "-//W3C//DTD SVG 1.1//EN"
  "http://www.w3.org/Graphics/SVG/1.1/DTD/svg11.dtd">
<!-- Created with matplotlib (https://matplotlib.org/) -->
<svg height="493.16pt" version="1.1" viewBox="0 0 553.825 493.16" width="553.825pt" xmlns="http://www.w3.org/2000/svg" xmlns:xlink="http://www.w3.org/1999/xlink">
 <metadata>
  <rdf:RDF xmlns:cc="http://creativecommons.org/ns#" xmlns:dc="http://purl.org/dc/elements/1.1/" xmlns:rdf="http://www.w3.org/1999/02/22-rdf-syntax-ns#">
   <cc:Work>
    <dc:type rdf:resource="http://purl.org/dc/dcmitype/StillImage"/>
    <dc:date>2020-10-06T10:35:55.187392</dc:date>
    <dc:format>image/svg+xml</dc:format>
    <dc:creator>
     <cc:Agent>
      <dc:title>Matplotlib v3.3.1, https://matplotlib.org/</dc:title>
     </cc:Agent>
    </dc:creator>
   </cc:Work>
  </rdf:RDF>
 </metadata>
 <defs>
  <style type="text/css">*{stroke-linecap:butt;stroke-linejoin:round;}</style>
 </defs>
 <g id="figure_1">
  <g id="patch_1">
   <path d="M 0 493.16 
L 553.825 493.16 
L 553.825 0 
L 0 0 
z
" style="fill:none;"/>
  </g>
  <g id="axes_1">
   <g id="patch_2">
    <path d="M 44.425 456.669375 
L 546.625 456.669375 
L 546.625 21.789375 
L 44.425 21.789375 
z
" style="fill:#e6e6e6;"/>
   </g>
   <g id="matplotlib.axis_1">
    <g id="xtick_1">
     <g id="line2d_1">
      <path clip-path="url(#pc9fceaad4b)" d="M 54.235459 456.669375 
L 54.235459 21.789375 
" style="fill:none;stroke:#cccccc;stroke-linecap:round;stroke-width:0.8;"/>
     </g>
     <g id="text_1">
      <!-- −3 -->
      <g style="fill:#262626;" transform="translate(48.534677 470.827187)scale(0.1 -0.1)">
       <defs>
        <path d="M 52.828125 31.203125 
L 5.5625 31.203125 
L 5.5625 39.40625 
L 52.828125 39.40625 
z
" id="ArialMT-8722"/>
        <path d="M 4.203125 18.890625 
L 12.984375 20.0625 
Q 14.5 12.59375 18.140625 9.296875 
Q 21.78125 6 27 6 
Q 33.203125 6 37.46875 10.296875 
Q 41.75 14.59375 41.75 20.953125 
Q 41.75 27 37.796875 30.921875 
Q 33.84375 34.859375 27.734375 34.859375 
Q 25.25 34.859375 21.53125 33.890625 
L 22.515625 41.609375 
Q 23.390625 41.5 23.921875 41.5 
Q 29.546875 41.5 34.03125 44.421875 
Q 38.53125 47.359375 38.53125 53.46875 
Q 38.53125 58.296875 35.25 61.46875 
Q 31.984375 64.65625 26.8125 64.65625 
Q 21.6875 64.65625 18.265625 61.421875 
Q 14.84375 58.203125 13.875 51.765625 
L 5.078125 53.328125 
Q 6.6875 62.15625 12.390625 67.015625 
Q 18.109375 71.875 26.609375 71.875 
Q 32.46875 71.875 37.390625 69.359375 
Q 42.328125 66.84375 44.9375 62.5 
Q 47.5625 58.15625 47.5625 53.265625 
Q 47.5625 48.640625 45.0625 44.828125 
Q 42.578125 41.015625 37.703125 38.765625 
Q 44.046875 37.3125 47.5625 32.6875 
Q 51.078125 28.078125 51.078125 21.140625 
Q 51.078125 11.765625 44.234375 5.25 
Q 37.40625 -1.265625 26.953125 -1.265625 
Q 17.53125 -1.265625 11.296875 4.34375 
Q 5.078125 9.96875 4.203125 18.890625 
z
" id="ArialMT-51"/>
       </defs>
       <use xlink:href="#ArialMT-8722"/>
       <use x="58.398438" xlink:href="#ArialMT-51"/>
      </g>
     </g>
    </g>
    <g id="xtick_2">
     <g id="line2d_2">
      <path clip-path="url(#pc9fceaad4b)" d="M 110.416174 456.669375 
L 110.416174 21.789375 
" style="fill:none;stroke:#cccccc;stroke-linecap:round;stroke-width:0.8;"/>
     </g>
     <g id="text_2">
      <!-- −2 -->
      <g style="fill:#262626;" transform="translate(104.715393 470.827187)scale(0.1 -0.1)">
       <defs>
        <path d="M 50.34375 8.453125 
L 50.34375 0 
L 3.03125 0 
Q 2.9375 3.171875 4.046875 6.109375 
Q 5.859375 10.9375 9.828125 15.625 
Q 13.8125 20.3125 21.34375 26.46875 
Q 33.015625 36.03125 37.109375 41.625 
Q 41.21875 47.21875 41.21875 52.203125 
Q 41.21875 57.421875 37.46875 61 
Q 33.734375 64.59375 27.734375 64.59375 
Q 21.390625 64.59375 17.578125 60.78125 
Q 13.765625 56.984375 13.71875 50.25 
L 4.6875 51.171875 
Q 5.609375 61.28125 11.65625 66.578125 
Q 17.71875 71.875 27.9375 71.875 
Q 38.234375 71.875 44.234375 66.15625 
Q 50.25 60.453125 50.25 52 
Q 50.25 47.703125 48.484375 43.546875 
Q 46.734375 39.40625 42.65625 34.8125 
Q 38.578125 30.21875 29.109375 22.21875 
Q 21.1875 15.578125 18.9375 13.203125 
Q 16.703125 10.84375 15.234375 8.453125 
z
" id="ArialMT-50"/>
       </defs>
       <use xlink:href="#ArialMT-8722"/>
       <use x="58.398438" xlink:href="#ArialMT-50"/>
      </g>
     </g>
    </g>
    <g id="xtick_3">
     <g id="line2d_3">
      <path clip-path="url(#pc9fceaad4b)" d="M 166.59689 456.669375 
L 166.59689 21.789375 
" style="fill:none;stroke:#cccccc;stroke-linecap:round;stroke-width:0.8;"/>
     </g>
     <g id="text_3">
      <!-- −1 -->
      <g style="fill:#262626;" transform="translate(160.896109 470.827187)scale(0.1 -0.1)">
       <defs>
        <path d="M 37.25 0 
L 28.46875 0 
L 28.46875 56 
Q 25.296875 52.984375 20.140625 49.953125 
Q 14.984375 46.921875 10.890625 45.40625 
L 10.890625 53.90625 
Q 18.265625 57.375 23.78125 62.296875 
Q 29.296875 67.234375 31.59375 71.875 
L 37.25 71.875 
z
" id="ArialMT-49"/>
       </defs>
       <use xlink:href="#ArialMT-8722"/>
       <use x="58.398438" xlink:href="#ArialMT-49"/>
      </g>
     </g>
    </g>
    <g id="xtick_4">
     <g id="line2d_4">
      <path clip-path="url(#pc9fceaad4b)" d="M 222.777606 456.669375 
L 222.777606 21.789375 
" style="fill:none;stroke:#cccccc;stroke-linecap:round;stroke-width:0.8;"/>
     </g>
     <g id="text_4">
      <!-- 0 -->
      <g style="fill:#262626;" transform="translate(219.997137 470.827187)scale(0.1 -0.1)">
       <defs>
        <path d="M 4.15625 35.296875 
Q 4.15625 48 6.765625 55.734375 
Q 9.375 63.484375 14.515625 67.671875 
Q 19.671875 71.875 27.484375 71.875 
Q 33.25 71.875 37.59375 69.546875 
Q 41.9375 67.234375 44.765625 62.859375 
Q 47.609375 58.5 49.21875 52.21875 
Q 50.828125 45.953125 50.828125 35.296875 
Q 50.828125 22.703125 48.234375 14.96875 
Q 45.65625 7.234375 40.5 3 
Q 35.359375 -1.21875 27.484375 -1.21875 
Q 17.140625 -1.21875 11.234375 6.203125 
Q 4.15625 15.140625 4.15625 35.296875 
z
M 13.1875 35.296875 
Q 13.1875 17.671875 17.3125 11.828125 
Q 21.4375 6 27.484375 6 
Q 33.546875 6 37.671875 11.859375 
Q 41.796875 17.71875 41.796875 35.296875 
Q 41.796875 52.984375 37.671875 58.78125 
Q 33.546875 64.59375 27.390625 64.59375 
Q 21.34375 64.59375 17.71875 59.46875 
Q 13.1875 52.9375 13.1875 35.296875 
z
" id="ArialMT-48"/>
       </defs>
       <use xlink:href="#ArialMT-48"/>
      </g>
     </g>
    </g>
    <g id="xtick_5">
     <g id="line2d_5">
      <path clip-path="url(#pc9fceaad4b)" d="M 278.958322 456.669375 
L 278.958322 21.789375 
" style="fill:none;stroke:#cccccc;stroke-linecap:round;stroke-width:0.8;"/>
     </g>
     <g id="text_5">
      <!-- 1 -->
      <g style="fill:#262626;" transform="translate(276.177853 470.827187)scale(0.1 -0.1)">
       <use xlink:href="#ArialMT-49"/>
      </g>
     </g>
    </g>
    <g id="xtick_6">
     <g id="line2d_6">
      <path clip-path="url(#pc9fceaad4b)" d="M 335.139037 456.669375 
L 335.139037 21.789375 
" style="fill:none;stroke:#cccccc;stroke-linecap:round;stroke-width:0.8;"/>
     </g>
     <g id="text_6">
      <!-- 2 -->
      <g style="fill:#262626;" transform="translate(332.358569 470.827187)scale(0.1 -0.1)">
       <use xlink:href="#ArialMT-50"/>
      </g>
     </g>
    </g>
    <g id="xtick_7">
     <g id="line2d_7">
      <path clip-path="url(#pc9fceaad4b)" d="M 391.319753 456.669375 
L 391.319753 21.789375 
" style="fill:none;stroke:#cccccc;stroke-linecap:round;stroke-width:0.8;"/>
     </g>
     <g id="text_7">
      <!-- 3 -->
      <g style="fill:#262626;" transform="translate(388.539284 470.827187)scale(0.1 -0.1)">
       <use xlink:href="#ArialMT-51"/>
      </g>
     </g>
    </g>
    <g id="xtick_8">
     <g id="line2d_8">
      <path clip-path="url(#pc9fceaad4b)" d="M 447.500469 456.669375 
L 447.500469 21.789375 
" style="fill:none;stroke:#cccccc;stroke-linecap:round;stroke-width:0.8;"/>
     </g>
     <g id="text_8">
      <!-- 4 -->
      <g style="fill:#262626;" transform="translate(444.72 470.827187)scale(0.1 -0.1)">
       <defs>
        <path d="M 32.328125 0 
L 32.328125 17.140625 
L 1.265625 17.140625 
L 1.265625 25.203125 
L 33.9375 71.578125 
L 41.109375 71.578125 
L 41.109375 25.203125 
L 50.78125 25.203125 
L 50.78125 17.140625 
L 41.109375 17.140625 
L 41.109375 0 
z
M 32.328125 25.203125 
L 32.328125 57.46875 
L 9.90625 25.203125 
z
" id="ArialMT-52"/>
       </defs>
       <use xlink:href="#ArialMT-52"/>
      </g>
     </g>
    </g>
    <g id="xtick_9">
     <g id="line2d_9">
      <path clip-path="url(#pc9fceaad4b)" d="M 503.681185 456.669375 
L 503.681185 21.789375 
" style="fill:none;stroke:#cccccc;stroke-linecap:round;stroke-width:0.8;"/>
     </g>
     <g id="text_9">
      <!-- 5 -->
      <g style="fill:#262626;" transform="translate(500.900716 470.827187)scale(0.1 -0.1)">
       <defs>
        <path d="M 4.15625 18.75 
L 13.375 19.53125 
Q 14.40625 12.796875 18.140625 9.390625 
Q 21.875 6 27.15625 6 
Q 33.5 6 37.890625 10.78125 
Q 42.28125 15.578125 42.28125 23.484375 
Q 42.28125 31 38.0625 35.34375 
Q 33.84375 39.703125 27 39.703125 
Q 22.75 39.703125 19.328125 37.765625 
Q 15.921875 35.84375 13.96875 32.765625 
L 5.71875 33.84375 
L 12.640625 70.609375 
L 48.25 70.609375 
L 48.25 62.203125 
L 19.671875 62.203125 
L 15.828125 42.96875 
Q 22.265625 47.46875 29.34375 47.46875 
Q 38.71875 47.46875 45.15625 40.96875 
Q 51.609375 34.46875 51.609375 24.265625 
Q 51.609375 14.546875 45.953125 7.46875 
Q 39.0625 -1.21875 27.15625 -1.21875 
Q 17.390625 -1.21875 11.203125 4.25 
Q 5.03125 9.71875 4.15625 18.75 
z
" id="ArialMT-53"/>
       </defs>
       <use xlink:href="#ArialMT-53"/>
      </g>
     </g>
    </g>
    <g id="text_10">
     <!-- y -->
     <g style="fill:#262626;" transform="translate(293.025 483.855312)scale(0.1 -0.1)">
      <defs>
       <path d="M 6.203125 -19.96875 
L 5.21875 -11.71875 
Q 8.109375 -12.5 10.25 -12.5 
Q 13.1875 -12.5 14.9375 -11.515625 
Q 16.703125 -10.546875 17.828125 -8.796875 
Q 18.65625 -7.46875 20.515625 -2.25 
Q 20.75 -1.515625 21.296875 -0.09375 
L 1.609375 51.859375 
L 11.078125 51.859375 
L 21.875 21.828125 
Q 23.96875 16.109375 25.640625 9.8125 
Q 27.15625 15.875 29.25 21.625 
L 40.328125 51.859375 
L 49.125 51.859375 
L 29.390625 -0.875 
Q 26.21875 -9.421875 24.46875 -12.640625 
Q 22.125 -17 19.09375 -19.015625 
Q 16.0625 -21.046875 11.859375 -21.046875 
Q 9.328125 -21.046875 6.203125 -19.96875 
z
" id="ArialMT-121"/>
      </defs>
      <use xlink:href="#ArialMT-121"/>
     </g>
    </g>
   </g>
   <g id="matplotlib.axis_2">
    <g id="ytick_1">
     <g id="line2d_10">
      <path clip-path="url(#pc9fceaad4b)" d="M 44.425 386.464727 
L 546.625 386.464727 
" style="fill:none;stroke:#cccccc;stroke-linecap:round;stroke-width:0.8;"/>
     </g>
     <g id="text_11">
      <!-- −40 -->
      <g style="fill:#262626;" transform="translate(20.4625 390.043634)scale(0.1 -0.1)">
       <use xlink:href="#ArialMT-8722"/>
       <use x="58.398438" xlink:href="#ArialMT-52"/>
       <use x="114.013672" xlink:href="#ArialMT-48"/>
      </g>
     </g>
    </g>
    <g id="ytick_2">
     <g id="line2d_11">
      <path clip-path="url(#pc9fceaad4b)" d="M 44.425 311.159775 
L 546.625 311.159775 
" style="fill:none;stroke:#cccccc;stroke-linecap:round;stroke-width:0.8;"/>
     </g>
     <g id="text_12">
      <!-- −20 -->
      <g style="fill:#262626;" transform="translate(20.4625 314.738681)scale(0.1 -0.1)">
       <use xlink:href="#ArialMT-8722"/>
       <use x="58.398438" xlink:href="#ArialMT-50"/>
       <use x="114.013672" xlink:href="#ArialMT-48"/>
      </g>
     </g>
    </g>
    <g id="ytick_3">
     <g id="line2d_12">
      <path clip-path="url(#pc9fceaad4b)" d="M 44.425 235.854823 
L 546.625 235.854823 
" style="fill:none;stroke:#cccccc;stroke-linecap:round;stroke-width:0.8;"/>
     </g>
     <g id="text_13">
      <!-- 0 -->
      <g style="fill:#262626;" transform="translate(31.864063 239.433729)scale(0.1 -0.1)">
       <use xlink:href="#ArialMT-48"/>
      </g>
     </g>
    </g>
    <g id="ytick_4">
     <g id="line2d_13">
      <path clip-path="url(#pc9fceaad4b)" d="M 44.425 160.549871 
L 546.625 160.549871 
" style="fill:none;stroke:#cccccc;stroke-linecap:round;stroke-width:0.8;"/>
     </g>
     <g id="text_14">
      <!-- 20 -->
      <g style="fill:#262626;" transform="translate(26.303125 164.128777)scale(0.1 -0.1)">
       <use xlink:href="#ArialMT-50"/>
       <use x="55.615234" xlink:href="#ArialMT-48"/>
      </g>
     </g>
    </g>
    <g id="ytick_5">
     <g id="line2d_14">
      <path clip-path="url(#pc9fceaad4b)" d="M 44.425 85.244919 
L 546.625 85.244919 
" style="fill:none;stroke:#cccccc;stroke-linecap:round;stroke-width:0.8;"/>
     </g>
     <g id="text_15">
      <!-- 40 -->
      <g style="fill:#262626;" transform="translate(26.303125 88.823825)scale(0.1 -0.1)">
       <use xlink:href="#ArialMT-52"/>
       <use x="55.615234" xlink:href="#ArialMT-48"/>
      </g>
     </g>
    </g>
    <g id="text_16">
     <!-- y_pred -->
     <g style="fill:#262626;" transform="translate(14.357812 254.516094)rotate(-90)scale(0.1 -0.1)">
      <defs>
       <path d="M -1.515625 -19.875 
L -1.515625 -13.53125 
L 56.734375 -13.53125 
L 56.734375 -19.875 
z
" id="ArialMT-95"/>
       <path d="M 6.59375 -19.875 
L 6.59375 51.859375 
L 14.59375 51.859375 
L 14.59375 45.125 
Q 17.4375 49.078125 21 51.046875 
Q 24.5625 53.03125 29.640625 53.03125 
Q 36.28125 53.03125 41.359375 49.609375 
Q 46.4375 46.1875 49.015625 39.953125 
Q 51.609375 33.734375 51.609375 26.3125 
Q 51.609375 18.359375 48.75 11.984375 
Q 45.90625 5.609375 40.453125 2.21875 
Q 35.015625 -1.171875 29 -1.171875 
Q 24.609375 -1.171875 21.109375 0.6875 
Q 17.625 2.546875 15.375 5.375 
L 15.375 -19.875 
z
M 14.546875 25.640625 
Q 14.546875 15.625 18.59375 10.84375 
Q 22.65625 6.0625 28.421875 6.0625 
Q 34.28125 6.0625 38.453125 11.015625 
Q 42.625 15.96875 42.625 26.375 
Q 42.625 36.28125 38.546875 41.203125 
Q 34.46875 46.140625 28.8125 46.140625 
Q 23.1875 46.140625 18.859375 40.890625 
Q 14.546875 35.640625 14.546875 25.640625 
z
" id="ArialMT-112"/>
       <path d="M 6.5 0 
L 6.5 51.859375 
L 14.40625 51.859375 
L 14.40625 44 
Q 17.4375 49.515625 20 51.265625 
Q 22.5625 53.03125 25.640625 53.03125 
Q 30.078125 53.03125 34.671875 50.203125 
L 31.640625 42.046875 
Q 28.421875 43.953125 25.203125 43.953125 
Q 22.3125 43.953125 20.015625 42.21875 
Q 17.71875 40.484375 16.75 37.40625 
Q 15.28125 32.71875 15.28125 27.15625 
L 15.28125 0 
z
" id="ArialMT-114"/>
       <path d="M 42.09375 16.703125 
L 51.171875 15.578125 
Q 49.03125 7.625 43.21875 3.21875 
Q 37.40625 -1.171875 28.375 -1.171875 
Q 17 -1.171875 10.328125 5.828125 
Q 3.65625 12.84375 3.65625 25.484375 
Q 3.65625 38.578125 10.390625 45.796875 
Q 17.140625 53.03125 27.875 53.03125 
Q 38.28125 53.03125 44.875 45.953125 
Q 51.46875 38.875 51.46875 26.03125 
Q 51.46875 25.25 51.421875 23.6875 
L 12.75 23.6875 
Q 13.234375 15.140625 17.578125 10.59375 
Q 21.921875 6.0625 28.421875 6.0625 
Q 33.25 6.0625 36.671875 8.59375 
Q 40.09375 11.140625 42.09375 16.703125 
z
M 13.234375 30.90625 
L 42.1875 30.90625 
Q 41.609375 37.453125 38.875 40.71875 
Q 34.671875 45.796875 27.984375 45.796875 
Q 21.921875 45.796875 17.796875 41.75 
Q 13.671875 37.703125 13.234375 30.90625 
z
" id="ArialMT-101"/>
       <path d="M 40.234375 0 
L 40.234375 6.546875 
Q 35.296875 -1.171875 25.734375 -1.171875 
Q 19.53125 -1.171875 14.328125 2.25 
Q 9.125 5.671875 6.265625 11.796875 
Q 3.421875 17.921875 3.421875 25.875 
Q 3.421875 33.640625 6 39.96875 
Q 8.59375 46.296875 13.765625 49.65625 
Q 18.953125 53.03125 25.34375 53.03125 
Q 30.03125 53.03125 33.6875 51.046875 
Q 37.359375 49.078125 39.65625 45.90625 
L 39.65625 71.578125 
L 48.390625 71.578125 
L 48.390625 0 
z
M 12.453125 25.875 
Q 12.453125 15.921875 16.640625 10.984375 
Q 20.84375 6.0625 26.5625 6.0625 
Q 32.328125 6.0625 36.34375 10.765625 
Q 40.375 15.484375 40.375 25.140625 
Q 40.375 35.796875 36.265625 40.765625 
Q 32.171875 45.75 26.171875 45.75 
Q 20.3125 45.75 16.375 40.96875 
Q 12.453125 36.1875 12.453125 25.875 
z
" id="ArialMT-100"/>
      </defs>
      <use xlink:href="#ArialMT-121"/>
      <use x="50" xlink:href="#ArialMT-95"/>
      <use x="105.615234" xlink:href="#ArialMT-112"/>
      <use x="161.230469" xlink:href="#ArialMT-114"/>
      <use x="194.53125" xlink:href="#ArialMT-101"/>
      <use x="250.146484" xlink:href="#ArialMT-100"/>
     </g>
    </g>
   </g>
   <g id="PolyCollection_1">
    <defs>
     <path d="M 44.425 -254.876115 
L 44.425 -253.838843 
L 49.497727 -253.894814 
L 54.570455 -253.950785 
L 59.643182 -254.006756 
L 64.715909 -254.062727 
L 69.788636 -254.118698 
L 74.861364 -254.174669 
L 79.934091 -254.23064 
L 85.006818 -254.286611 
L 90.079545 -254.342582 
L 95.152273 -254.398552 
L 100.225 -254.454523 
L 105.297727 -254.510494 
L 110.370455 -254.566465 
L 115.443182 -254.622436 
L 120.515909 -254.678407 
L 125.588636 -254.734378 
L 130.661364 -254.79039 
L 135.734091 -254.846454 
L 140.806818 -254.902173 
L 145.879545 -254.958374 
L 150.952273 -255.014487 
L 156.025 -255.07736 
L 161.097727 -255.137051 
L 166.170455 -255.192893 
L 171.243182 -255.247806 
L 176.315909 -255.306845 
L 181.388636 -255.359047 
L 186.461364 -255.412579 
L 191.534091 -255.462217 
L 196.606818 -255.518847 
L 201.679545 -255.574303 
L 206.752273 -255.634452 
L 211.825 -255.689148 
L 216.897727 -255.742046 
L 221.970455 -255.796196 
L 227.043182 -255.847515 
L 232.115909 -255.900236 
L 237.188636 -255.952203 
L 242.261364 -256.001141 
L 247.334091 -256.052617 
L 252.406818 -256.101421 
L 257.479545 -256.145512 
L 262.552273 -256.196863 
L 267.625 -256.24175 
L 272.697727 -256.290868 
L 277.770455 -256.336925 
L 282.843182 -256.379482 
L 287.915909 -256.423992 
L 292.988636 -256.465961 
L 298.061364 -256.50909 
L 303.134091 -256.551883 
L 308.206818 -256.591587 
L 313.279545 -256.63352 
L 318.352273 -256.676321 
L 323.425 -256.714157 
L 328.497727 -256.752048 
L 333.570455 -256.787151 
L 338.643182 -256.82646 
L 343.715909 -256.86639 
L 348.788636 -256.907236 
L 353.861364 -256.947347 
L 358.934091 -256.986037 
L 364.006818 -257.023157 
L 369.079545 -257.062451 
L 374.152273 -257.102132 
L 379.225 -257.136874 
L 384.297727 -257.17415 
L 389.370455 -257.214655 
L 394.443182 -257.250862 
L 399.515909 -257.287081 
L 404.588636 -257.320768 
L 409.661364 -257.359372 
L 414.734091 -257.395633 
L 419.806818 -257.431894 
L 424.879545 -257.471719 
L 429.952273 -257.510659 
L 435.025 -257.548043 
L 440.097727 -257.586675 
L 445.170455 -257.62249 
L 450.243182 -257.657294 
L 455.315909 -257.692099 
L 460.388636 -257.726903 
L 465.461364 -257.761537 
L 470.534091 -257.795678 
L 475.606818 -257.829955 
L 480.679545 -257.86514 
L 485.752273 -257.899607 
L 490.825 -257.934084 
L 495.897727 -257.96874 
L 500.970455 -258.003395 
L 506.043182 -258.03805 
L 511.115909 -258.072705 
L 516.188636 -258.107361 
L 521.261364 -258.142016 
L 526.334091 -258.178976 
L 531.406818 -258.213741 
L 536.479545 -258.248505 
L 541.552273 -258.283269 
L 546.625 -258.318033 
L 546.625 -259.649835 
L 546.625 -259.649835 
L 541.552273 -259.592393 
L 536.479545 -259.534596 
L 531.406818 -259.474628 
L 526.334091 -259.41503 
L 521.261364 -259.358057 
L 516.188636 -259.301006 
L 511.115909 -259.244041 
L 506.043182 -259.187107 
L 500.970455 -259.130167 
L 495.897727 -259.073194 
L 490.825 -259.016212 
L 485.752273 -258.957337 
L 480.679545 -258.897115 
L 475.606818 -258.836832 
L 470.534091 -258.78075 
L 465.461364 -258.722928 
L 460.388636 -258.663236 
L 455.315909 -258.603518 
L 450.243182 -258.5438 
L 445.170455 -258.484082 
L 440.097727 -258.424364 
L 435.025 -258.364687 
L 429.952273 -258.305026 
L 424.879545 -258.245361 
L 419.806818 -258.188867 
L 414.734091 -258.133975 
L 409.661364 -258.077482 
L 404.588636 -258.019253 
L 399.515909 -257.959775 
L 394.443182 -257.899342 
L 389.370455 -257.84492 
L 384.297727 -257.790857 
L 379.225 -257.733883 
L 374.152273 -257.676459 
L 369.079545 -257.619036 
L 364.006818 -257.562883 
L 358.934091 -257.511493 
L 353.861364 -257.460474 
L 348.788636 -257.407645 
L 343.715909 -257.352309 
L 338.643182 -257.297454 
L 333.570455 -257.243719 
L 328.497727 -257.193466 
L 323.425 -257.136596 
L 318.352273 -257.079564 
L 313.279545 -257.025344 
L 308.206818 -256.972595 
L 303.134091 -256.920091 
L 298.061364 -256.870603 
L 292.988636 -256.817961 
L 287.915909 -256.766338 
L 282.843182 -256.716778 
L 277.770455 -256.668113 
L 272.697727 -256.621568 
L 267.625 -256.577169 
L 262.552273 -256.534718 
L 257.479545 -256.49145 
L 252.406818 -256.451625 
L 247.334091 -256.404603 
L 242.261364 -256.358069 
L 237.188636 -256.314653 
L 232.115909 -256.274749 
L 227.043182 -256.233116 
L 221.970455 -256.191439 
L 216.897727 -256.146422 
L 211.825 -256.109028 
L 206.752273 -256.068842 
L 201.679545 -256.033001 
L 196.606818 -255.996085 
L 191.534091 -255.958609 
L 186.461364 -255.9196 
L 181.388636 -255.884544 
L 176.315909 -255.849516 
L 171.243182 -255.812018 
L 166.170455 -255.779461 
L 161.097727 -255.742424 
L 156.025 -255.702628 
L 150.952273 -255.661758 
L 145.879545 -255.621061 
L 140.806818 -255.583504 
L 135.734091 -255.545947 
L 130.661364 -255.50839 
L 125.588636 -255.469742 
L 120.515909 -255.431126 
L 115.443182 -255.395608 
L 110.370455 -255.358363 
L 105.297727 -255.320899 
L 100.225 -255.283435 
L 95.152273 -255.24802 
L 90.079545 -255.215395 
L 85.006818 -255.178897 
L 79.934091 -255.139046 
L 74.861364 -255.099195 
L 69.788636 -255.064226 
L 64.715909 -255.025327 
L 59.643182 -254.986429 
L 54.570455 -254.947523 
L 49.497727 -254.91101 
L 44.425 -254.876115 
z
" id="m2807adc0b6" style="stroke:#ffffff;stroke-opacity:0.15;"/>
    </defs>
    <g clip-path="url(#pc9fceaad4b)">
     <use style="fill:#4c72b0;fill-opacity:0.15;stroke:#ffffff;stroke-opacity:0.15;" x="0" xlink:href="#m2807adc0b6" y="493.16"/>
    </g>
   </g>
   <g id="LineCollection_1">
    <path clip-path="url(#pc9fceaad4b)" d="M 287.206557 317.585411 
L 287.206557 157.217726 
" style="fill:none;stroke:#64b5cd;stroke-width:1.5;"/>
    <path clip-path="url(#pc9fceaad4b)" d="M 290.879731 308.132096 
L 290.879731 165.060113 
" style="fill:none;stroke:#64b5cd;stroke-width:1.5;"/>
    <path clip-path="url(#pc9fceaad4b)" d="M 366.565543 319.80741 
L 366.565543 152.516108 
" style="fill:none;stroke:#64b5cd;stroke-width:1.5;"/>
    <path clip-path="url(#pc9fceaad4b)" d="M 401.190327 364.05261 
L 401.190327 107.099855 
" style="fill:none;stroke:#64b5cd;stroke-width:1.5;"/>
    <path clip-path="url(#pc9fceaad4b)" d="M 183.874393 309.079031 
L 183.874393 164.798263 
" style="fill:none;stroke:#64b5cd;stroke-width:1.5;"/>
    <path clip-path="url(#pc9fceaad4b)" d="M 224.466591 308.788434 
L 224.466591 164.433953 
" style="fill:none;stroke:#64b5cd;stroke-width:1.5;"/>
    <path clip-path="url(#pc9fceaad4b)" d="M 449.59832 369.110151 
L 449.59832 97.212662 
" style="fill:none;stroke:#64b5cd;stroke-width:1.5;"/>
    <path clip-path="url(#pc9fceaad4b)" d="M 355.842167 325.056514 
L 355.842167 146.576217 
" style="fill:none;stroke:#64b5cd;stroke-width:1.5;"/>
    <path clip-path="url(#pc9fceaad4b)" d="M 288.753344 314.124708 
L 288.753344 160.082755 
" style="fill:none;stroke:#64b5cd;stroke-width:1.5;"/>
    <path clip-path="url(#pc9fceaad4b)" d="M 523.797727 316.273857 
L 523.797727 155.988 
" style="fill:none;stroke:#64b5cd;stroke-width:1.5;"/>
    <path clip-path="url(#pc9fceaad4b)" d="M 231.097251 322.165559 
L 231.097251 155.247616 
" style="fill:none;stroke:#64b5cd;stroke-width:1.5;"/>
    <path clip-path="url(#pc9fceaad4b)" d="M 315.845394 314.618123 
L 315.845394 159.634413 
" style="fill:none;stroke:#64b5cd;stroke-width:1.5;"/>
    <path clip-path="url(#pc9fceaad4b)" d="M 347.84033 309.150194 
L 347.84033 163.357174 
" style="fill:none;stroke:#64b5cd;stroke-width:1.5;"/>
    <path clip-path="url(#pc9fceaad4b)" d="M 277.257846 389.831423 
L 277.257846 83.02246 
" style="fill:none;stroke:#64b5cd;stroke-width:1.5;"/>
    <path clip-path="url(#pc9fceaad4b)" d="M 158.935663 379.788847 
L 158.935663 97.589439 
" style="fill:none;stroke:#64b5cd;stroke-width:1.5;"/>
    <path clip-path="url(#pc9fceaad4b)" d="M 298.478614 317.556347 
L 298.478614 156.291374 
" style="fill:none;stroke:#64b5cd;stroke-width:1.5;"/>
    <path clip-path="url(#pc9fceaad4b)" d="M 177.663806 338.490849 
L 177.663806 137.227431 
" style="fill:none;stroke:#64b5cd;stroke-width:1.5;"/>
    <path clip-path="url(#pc9fceaad4b)" d="M 250.479738 312.723146 
L 250.479738 162.410174 
" style="fill:none;stroke:#64b5cd;stroke-width:1.5;"/>
    <path clip-path="url(#pc9fceaad4b)" d="M 232.779109 331.410384 
L 232.779109 141.272317 
" style="fill:none;stroke:#64b5cd;stroke-width:1.5;"/>
    <path clip-path="url(#pc9fceaad4b)" d="M 225.335904 358.833698 
L 225.335904 116.109474 
" style="fill:none;stroke:#64b5cd;stroke-width:1.5;"/>
    <path clip-path="url(#pc9fceaad4b)" d="M 513.559058 361.250191 
L 513.559058 107.751058 
" style="fill:none;stroke:#64b5cd;stroke-width:1.5;"/>
    <path clip-path="url(#pc9fceaad4b)" d="M 135.824734 311.450244 
L 135.824734 163.864327 
" style="fill:none;stroke:#64b5cd;stroke-width:1.5;"/>
    <path clip-path="url(#pc9fceaad4b)" d="M 360.711693 308.395627 
L 360.711693 162.416415 
" style="fill:none;stroke:#64b5cd;stroke-width:1.5;"/>
    <path clip-path="url(#pc9fceaad4b)" d="M 68.932924 365.322094 
L 68.932924 113.630149 
" style="fill:none;stroke:#64b5cd;stroke-width:1.5;"/>
    <path clip-path="url(#pc9fceaad4b)" d="M 238.346066 316.491173 
L 238.346066 156.379629 
" style="fill:none;stroke:#64b5cd;stroke-width:1.5;"/>
    <path clip-path="url(#pc9fceaad4b)" d="M 407.898734 312.022886 
L 407.898734 157.092708 
" style="fill:none;stroke:#64b5cd;stroke-width:1.5;"/>
    <path clip-path="url(#pc9fceaad4b)" d="M 190.081456 347.865402 
L 190.081456 129.072937 
" style="fill:none;stroke:#64b5cd;stroke-width:1.5;"/>
    <path clip-path="url(#pc9fceaad4b)" d="M 223.609326 312.201163 
L 223.609326 161.035931 
" style="fill:none;stroke:#64b5cd;stroke-width:1.5;"/>
    <path clip-path="url(#pc9fceaad4b)" d="M 207.826979 319.036957 
L 207.826979 155.086769 
" style="fill:none;stroke:#64b5cd;stroke-width:1.5;"/>
    <path clip-path="url(#pc9fceaad4b)" d="M 286.608237 311.14934 
L 286.608237 163.730842 
" style="fill:none;stroke:#64b5cd;stroke-width:1.5;"/>
    <path clip-path="url(#pc9fceaad4b)" d="M 160.562803 324.446584 
L 160.562803 152.856108 
" style="fill:none;stroke:#64b5cd;stroke-width:1.5;"/>
    <path clip-path="url(#pc9fceaad4b)" d="M 397.107394 382.851817 
L 397.107394 85.556832 
" style="fill:none;stroke:#64b5cd;stroke-width:1.5;"/>
    <path clip-path="url(#pc9fceaad4b)" d="M 250.919804 309.526519 
L 250.919804 165.239302 
" style="fill:none;stroke:#64b5cd;stroke-width:1.5;"/>
    <path clip-path="url(#pc9fceaad4b)" d="M 196.231372 339.882995 
L 196.231372 134.881763 
" style="fill:none;stroke:#64b5cd;stroke-width:1.5;"/>
    <path clip-path="url(#pc9fceaad4b)" d="M 419.790837 328.306034 
L 419.790837 145.170971 
" style="fill:none;stroke:#64b5cd;stroke-width:1.5;"/>
    <path clip-path="url(#pc9fceaad4b)" d="M 289.522685 347.99786 
L 289.522685 125.208583 
" style="fill:none;stroke:#64b5cd;stroke-width:1.5;"/>
    <path clip-path="url(#pc9fceaad4b)" d="M 154.916602 309.844451 
L 154.916602 164.082771 
" style="fill:none;stroke:#64b5cd;stroke-width:1.5;"/>
    <path clip-path="url(#pc9fceaad4b)" d="M 170.290966 394.574982 
L 170.290966 83.41475 
" style="fill:none;stroke:#64b5cd;stroke-width:1.5;"/>
    <path clip-path="url(#pc9fceaad4b)" d="M 190.01223 353.507069 
L 190.01223 120.391986 
" style="fill:none;stroke:#64b5cd;stroke-width:1.5;"/>
    <path clip-path="url(#pc9fceaad4b)" d="M 303.333024 311.224431 
L 303.333024 163.803592 
" style="fill:none;stroke:#64b5cd;stroke-width:1.5;"/>
    <path clip-path="url(#pc9fceaad4b)" d="M 282.310951 323.152489 
L 282.310951 148.10197 
" style="fill:none;stroke:#64b5cd;stroke-width:1.5;"/>
    <path clip-path="url(#pc9fceaad4b)" d="M 318.858044 309.381335 
L 318.858044 161.411072 
" style="fill:none;stroke:#64b5cd;stroke-width:1.5;"/>
    <path clip-path="url(#pc9fceaad4b)" d="M 255.676887 312.56678 
L 255.676887 163.165345 
" style="fill:none;stroke:#64b5cd;stroke-width:1.5;"/>
    <path clip-path="url(#pc9fceaad4b)" d="M 315.867281 310.575419 
L 315.867281 163.063933 
" style="fill:none;stroke:#64b5cd;stroke-width:1.5;"/>
    <path clip-path="url(#pc9fceaad4b)" d="M 135.760587 363.308679 
L 135.760587 112.455606 
" style="fill:none;stroke:#64b5cd;stroke-width:1.5;"/>
    <path clip-path="url(#pc9fceaad4b)" d="M 241.686125 323.461235 
L 241.686125 149.726752 
" style="fill:none;stroke:#64b5cd;stroke-width:1.5;"/>
    <path clip-path="url(#pc9fceaad4b)" d="M 191.65015 318.544756 
L 191.65015 158.031227 
" style="fill:none;stroke:#64b5cd;stroke-width:1.5;"/>
    <path clip-path="url(#pc9fceaad4b)" d="M 264.551601 340.458632 
L 264.551601 132.866667 
" style="fill:none;stroke:#64b5cd;stroke-width:1.5;"/>
    <path clip-path="url(#pc9fceaad4b)" d="M 412.109049 310.954876 
L 412.109049 160.779432 
" style="fill:none;stroke:#64b5cd;stroke-width:1.5;"/>
    <path clip-path="url(#pc9fceaad4b)" d="M 211.004032 380.790614 
L 211.004032 95.331259 
" style="fill:none;stroke:#64b5cd;stroke-width:1.5;"/>
    <path clip-path="url(#pc9fceaad4b)" d="M 233.364662 310.374262 
L 233.364662 161.898928 
" style="fill:none;stroke:#64b5cd;stroke-width:1.5;"/>
    <path clip-path="url(#pc9fceaad4b)" d="M 318.62212 312.401926 
L 318.62212 161.47738 
" style="fill:none;stroke:#64b5cd;stroke-width:1.5;"/>
    <path clip-path="url(#pc9fceaad4b)" d="M 341.05047 324.112229 
L 341.05047 151.795919 
" style="fill:none;stroke:#64b5cd;stroke-width:1.5;"/>
    <path clip-path="url(#pc9fceaad4b)" d="M 377.851463 318.839218 
L 377.851463 152.682815 
" style="fill:none;stroke:#64b5cd;stroke-width:1.5;"/>
    <path clip-path="url(#pc9fceaad4b)" d="M 259.753832 336.815695 
L 259.753832 132.899308 
" style="fill:none;stroke:#64b5cd;stroke-width:1.5;"/>
    <path clip-path="url(#pc9fceaad4b)" d="M 284.007301 333.126566 
L 284.007301 139.403051 
" style="fill:none;stroke:#64b5cd;stroke-width:1.5;"/>
    <path clip-path="url(#pc9fceaad4b)" d="M 355.396732 330.026187 
L 355.396732 141.91419 
" style="fill:none;stroke:#64b5cd;stroke-width:1.5;"/>
    <path clip-path="url(#pc9fceaad4b)" d="M 235.139308 309.939291 
L 235.139308 163.33713 
" style="fill:none;stroke:#64b5cd;stroke-width:1.5;"/>
    <path clip-path="url(#pc9fceaad4b)" d="M 289.038888 313.12004 
L 289.038888 161.286743 
" style="fill:none;stroke:#64b5cd;stroke-width:1.5;"/>
    <path clip-path="url(#pc9fceaad4b)" d="M 395.727463 334.149849 
L 395.727463 135.113529 
" style="fill:none;stroke:#64b5cd;stroke-width:1.5;"/>
    <path clip-path="url(#pc9fceaad4b)" d="M 172.583195 317.981385 
L 172.583195 157.673466 
" style="fill:none;stroke:#64b5cd;stroke-width:1.5;"/>
    <path clip-path="url(#pc9fceaad4b)" d="M 287.293179 307.363359 
L 287.293179 164.473186 
" style="fill:none;stroke:#64b5cd;stroke-width:1.5;"/>
    <path clip-path="url(#pc9fceaad4b)" d="M 67.252273 342.445196 
L 67.252273 131.786412 
" style="fill:none;stroke:#64b5cd;stroke-width:1.5;"/>
    <path clip-path="url(#pc9fceaad4b)" d="M 131.150486 349.388154 
L 131.150486 127.380454 
" style="fill:none;stroke:#64b5cd;stroke-width:1.5;"/>
    <path clip-path="url(#pc9fceaad4b)" d="M 337.478726 327.029203 
L 337.478726 142.962322 
" style="fill:none;stroke:#64b5cd;stroke-width:1.5;"/>
    <path clip-path="url(#pc9fceaad4b)" d="M 296.646671 354.190983 
L 296.646671 115.397924 
" style="fill:none;stroke:#64b5cd;stroke-width:1.5;"/>
    <path clip-path="url(#pc9fceaad4b)" d="M 389.714741 307.005606 
L 389.714741 164.836082 
" style="fill:none;stroke:#64b5cd;stroke-width:1.5;"/>
    <path clip-path="url(#pc9fceaad4b)" d="M 308.272745 338.724338 
L 308.272745 129.127202 
" style="fill:none;stroke:#64b5cd;stroke-width:1.5;"/>
    <path clip-path="url(#pc9fceaad4b)" d="M 267.660239 311.623673 
L 267.660239 161.252429 
" style="fill:none;stroke:#64b5cd;stroke-width:1.5;"/>
    <path clip-path="url(#pc9fceaad4b)" d="M 228.887413 322.617442 
L 228.887413 152.616062 
" style="fill:none;stroke:#64b5cd;stroke-width:1.5;"/>
    <path clip-path="url(#pc9fceaad4b)" d="M 355.246766 312.305649 
L 355.246766 160.77355 
" style="fill:none;stroke:#64b5cd;stroke-width:1.5;"/>
    <path clip-path="url(#pc9fceaad4b)" d="M 261.782152 365.380151 
L 261.782152 106.036456 
" style="fill:none;stroke:#64b5cd;stroke-width:1.5;"/>
    <path clip-path="url(#pc9fceaad4b)" d="M 340.127146 306.518576 
L 340.127146 166.899137 
" style="fill:none;stroke:#64b5cd;stroke-width:1.5;"/>
    <path clip-path="url(#pc9fceaad4b)" d="M 377.0191 366.104821 
L 377.0191 102.996798 
" style="fill:none;stroke:#64b5cd;stroke-width:1.5;"/>
    <path clip-path="url(#pc9fceaad4b)" d="M 84.409656 436.902102 
L 84.409656 41.556648 
" style="fill:none;stroke:#64b5cd;stroke-width:1.5;"/>
    <path clip-path="url(#pc9fceaad4b)" d="M 374.330564 327.874862 
L 374.330564 142.23773 
" style="fill:none;stroke:#64b5cd;stroke-width:1.5;"/>
    <path clip-path="url(#pc9fceaad4b)" d="M 295.39723 306.662769 
L 295.39723 166.293021 
" style="fill:none;stroke:#64b5cd;stroke-width:1.5;"/>
    <path clip-path="url(#pc9fceaad4b)" d="M 269.269552 311.356128 
L 269.269552 159.91719 
" style="fill:none;stroke:#64b5cd;stroke-width:1.5;"/>
    <path clip-path="url(#pc9fceaad4b)" d="M 280.600732 307.493131 
L 280.600732 165.333317 
" style="fill:none;stroke:#64b5cd;stroke-width:1.5;"/>
    <path clip-path="url(#pc9fceaad4b)" d="M 222.058609 395.122611 
L 222.058609 77.647419 
" style="fill:none;stroke:#64b5cd;stroke-width:1.5;"/>
    <path clip-path="url(#pc9fceaad4b)" d="M 290.569702 307.776763 
L 290.569702 164.394217 
" style="fill:none;stroke:#64b5cd;stroke-width:1.5;"/>
    <path clip-path="url(#pc9fceaad4b)" d="M 312.142276 312.391857 
L 312.142276 161.938642 
" style="fill:none;stroke:#64b5cd;stroke-width:1.5;"/>
    <path clip-path="url(#pc9fceaad4b)" d="M 421.00927 361.491853 
L 421.00927 109.962242 
" style="fill:none;stroke:#64b5cd;stroke-width:1.5;"/>
    <path clip-path="url(#pc9fceaad4b)" d="M 193.852993 315.532654 
L 193.852993 157.637666 
" style="fill:none;stroke:#64b5cd;stroke-width:1.5;"/>
    <path clip-path="url(#pc9fceaad4b)" d="M 347.094764 328.277515 
L 347.094764 146.954165 
" style="fill:none;stroke:#64b5cd;stroke-width:1.5;"/>
    <path clip-path="url(#pc9fceaad4b)" d="M 161.156094 314.889021 
L 161.156094 157.937801 
" style="fill:none;stroke:#64b5cd;stroke-width:1.5;"/>
    <path clip-path="url(#pc9fceaad4b)" d="M 335.152284 331.796131 
L 335.152284 138.954752 
" style="fill:none;stroke:#64b5cd;stroke-width:1.5;"/>
    <path clip-path="url(#pc9fceaad4b)" d="M 328.434086 310.520272 
L 328.434086 162.496347 
" style="fill:none;stroke:#64b5cd;stroke-width:1.5;"/>
    <path clip-path="url(#pc9fceaad4b)" d="M 241.1956 319.219967 
L 241.1956 156.552836 
" style="fill:none;stroke:#64b5cd;stroke-width:1.5;"/>
    <path clip-path="url(#pc9fceaad4b)" d="M 230.257748 318.659023 
L 230.257748 155.84701 
" style="fill:none;stroke:#64b5cd;stroke-width:1.5;"/>
    <path clip-path="url(#pc9fceaad4b)" d="M 260.176985 307.687625 
L 260.176985 165.729801 
" style="fill:none;stroke:#64b5cd;stroke-width:1.5;"/>
    <path clip-path="url(#pc9fceaad4b)" d="M 329.736891 334.719324 
L 329.736891 135.505345 
" style="fill:none;stroke:#64b5cd;stroke-width:1.5;"/>
    <path clip-path="url(#pc9fceaad4b)" d="M 212.419512 322.650844 
L 212.419512 151.751026 
" style="fill:none;stroke:#64b5cd;stroke-width:1.5;"/>
    <path clip-path="url(#pc9fceaad4b)" d="M 273.288033 314.442582 
L 273.288033 160.814464 
" style="fill:none;stroke:#64b5cd;stroke-width:1.5;"/>
    <path clip-path="url(#pc9fceaad4b)" d="M 281.851506 312.619185 
L 281.851506 161.273364 
" style="fill:none;stroke:#64b5cd;stroke-width:1.5;"/>
    <path clip-path="url(#pc9fceaad4b)" d="M 168.63255 362.194533 
L 168.63255 112.938773 
" style="fill:none;stroke:#64b5cd;stroke-width:1.5;"/>
    <path clip-path="url(#pc9fceaad4b)" d="M 321.306865 310.787623 
L 321.306865 163.170437 
" style="fill:none;stroke:#64b5cd;stroke-width:1.5;"/>
    <path clip-path="url(#pc9fceaad4b)" d="M 315.207091 308.836041 
L 315.207091 163.709376 
" style="fill:none;stroke:#64b5cd;stroke-width:1.5;"/>
    <path clip-path="url(#pc9fceaad4b)" d="M 326.547882 306.974797 
L 326.547882 165.828168 
" style="fill:none;stroke:#64b5cd;stroke-width:1.5;"/>
    <path clip-path="url(#pc9fceaad4b)" d="M 269.045602 312.159754 
L 269.045602 163.563323 
" style="fill:none;stroke:#64b5cd;stroke-width:1.5;"/>
   </g>
   <g id="line2d_15">
    <defs>
     <path d="M 2 0 
L -2 -0 
" id="m66311abffb" style="stroke:#64b5cd;"/>
    </defs>
    <g clip-path="url(#pc9fceaad4b)">
     <use style="fill:#64b5cd;stroke:#64b5cd;" x="287.206557" xlink:href="#m66311abffb" y="317.585411"/>
     <use style="fill:#64b5cd;stroke:#64b5cd;" x="290.879731" xlink:href="#m66311abffb" y="308.132096"/>
     <use style="fill:#64b5cd;stroke:#64b5cd;" x="366.565543" xlink:href="#m66311abffb" y="319.80741"/>
     <use style="fill:#64b5cd;stroke:#64b5cd;" x="401.190327" xlink:href="#m66311abffb" y="364.05261"/>
     <use style="fill:#64b5cd;stroke:#64b5cd;" x="183.874393" xlink:href="#m66311abffb" y="309.079031"/>
     <use style="fill:#64b5cd;stroke:#64b5cd;" x="224.466591" xlink:href="#m66311abffb" y="308.788434"/>
     <use style="fill:#64b5cd;stroke:#64b5cd;" x="449.59832" xlink:href="#m66311abffb" y="369.110151"/>
     <use style="fill:#64b5cd;stroke:#64b5cd;" x="355.842167" xlink:href="#m66311abffb" y="325.056514"/>
     <use style="fill:#64b5cd;stroke:#64b5cd;" x="288.753344" xlink:href="#m66311abffb" y="314.124708"/>
     <use style="fill:#64b5cd;stroke:#64b5cd;" x="523.797727" xlink:href="#m66311abffb" y="316.273857"/>
     <use style="fill:#64b5cd;stroke:#64b5cd;" x="231.097251" xlink:href="#m66311abffb" y="322.165559"/>
     <use style="fill:#64b5cd;stroke:#64b5cd;" x="315.845394" xlink:href="#m66311abffb" y="314.618123"/>
     <use style="fill:#64b5cd;stroke:#64b5cd;" x="347.84033" xlink:href="#m66311abffb" y="309.150194"/>
     <use style="fill:#64b5cd;stroke:#64b5cd;" x="277.257846" xlink:href="#m66311abffb" y="389.831423"/>
     <use style="fill:#64b5cd;stroke:#64b5cd;" x="158.935663" xlink:href="#m66311abffb" y="379.788847"/>
     <use style="fill:#64b5cd;stroke:#64b5cd;" x="298.478614" xlink:href="#m66311abffb" y="317.556347"/>
     <use style="fill:#64b5cd;stroke:#64b5cd;" x="177.663806" xlink:href="#m66311abffb" y="338.490849"/>
     <use style="fill:#64b5cd;stroke:#64b5cd;" x="250.479738" xlink:href="#m66311abffb" y="312.723146"/>
     <use style="fill:#64b5cd;stroke:#64b5cd;" x="232.779109" xlink:href="#m66311abffb" y="331.410384"/>
     <use style="fill:#64b5cd;stroke:#64b5cd;" x="225.335904" xlink:href="#m66311abffb" y="358.833698"/>
     <use style="fill:#64b5cd;stroke:#64b5cd;" x="513.559058" xlink:href="#m66311abffb" y="361.250191"/>
     <use style="fill:#64b5cd;stroke:#64b5cd;" x="135.824734" xlink:href="#m66311abffb" y="311.450244"/>
     <use style="fill:#64b5cd;stroke:#64b5cd;" x="360.711693" xlink:href="#m66311abffb" y="308.395627"/>
     <use style="fill:#64b5cd;stroke:#64b5cd;" x="68.932924" xlink:href="#m66311abffb" y="365.322094"/>
     <use style="fill:#64b5cd;stroke:#64b5cd;" x="238.346066" xlink:href="#m66311abffb" y="316.491173"/>
     <use style="fill:#64b5cd;stroke:#64b5cd;" x="407.898734" xlink:href="#m66311abffb" y="312.022886"/>
     <use style="fill:#64b5cd;stroke:#64b5cd;" x="190.081456" xlink:href="#m66311abffb" y="347.865402"/>
     <use style="fill:#64b5cd;stroke:#64b5cd;" x="223.609326" xlink:href="#m66311abffb" y="312.201163"/>
     <use style="fill:#64b5cd;stroke:#64b5cd;" x="207.826979" xlink:href="#m66311abffb" y="319.036957"/>
     <use style="fill:#64b5cd;stroke:#64b5cd;" x="286.608237" xlink:href="#m66311abffb" y="311.14934"/>
     <use style="fill:#64b5cd;stroke:#64b5cd;" x="160.562803" xlink:href="#m66311abffb" y="324.446584"/>
     <use style="fill:#64b5cd;stroke:#64b5cd;" x="397.107394" xlink:href="#m66311abffb" y="382.851817"/>
     <use style="fill:#64b5cd;stroke:#64b5cd;" x="250.919804" xlink:href="#m66311abffb" y="309.526519"/>
     <use style="fill:#64b5cd;stroke:#64b5cd;" x="196.231372" xlink:href="#m66311abffb" y="339.882995"/>
     <use style="fill:#64b5cd;stroke:#64b5cd;" x="419.790837" xlink:href="#m66311abffb" y="328.306034"/>
     <use style="fill:#64b5cd;stroke:#64b5cd;" x="289.522685" xlink:href="#m66311abffb" y="347.99786"/>
     <use style="fill:#64b5cd;stroke:#64b5cd;" x="154.916602" xlink:href="#m66311abffb" y="309.844451"/>
     <use style="fill:#64b5cd;stroke:#64b5cd;" x="170.290966" xlink:href="#m66311abffb" y="394.574982"/>
     <use style="fill:#64b5cd;stroke:#64b5cd;" x="190.01223" xlink:href="#m66311abffb" y="353.507069"/>
     <use style="fill:#64b5cd;stroke:#64b5cd;" x="303.333024" xlink:href="#m66311abffb" y="311.224431"/>
     <use style="fill:#64b5cd;stroke:#64b5cd;" x="282.310951" xlink:href="#m66311abffb" y="323.152489"/>
     <use style="fill:#64b5cd;stroke:#64b5cd;" x="318.858044" xlink:href="#m66311abffb" y="309.381335"/>
     <use style="fill:#64b5cd;stroke:#64b5cd;" x="255.676887" xlink:href="#m66311abffb" y="312.56678"/>
     <use style="fill:#64b5cd;stroke:#64b5cd;" x="315.867281" xlink:href="#m66311abffb" y="310.575419"/>
     <use style="fill:#64b5cd;stroke:#64b5cd;" x="135.760587" xlink:href="#m66311abffb" y="363.308679"/>
     <use style="fill:#64b5cd;stroke:#64b5cd;" x="241.686125" xlink:href="#m66311abffb" y="323.461235"/>
     <use style="fill:#64b5cd;stroke:#64b5cd;" x="191.65015" xlink:href="#m66311abffb" y="318.544756"/>
     <use style="fill:#64b5cd;stroke:#64b5cd;" x="264.551601" xlink:href="#m66311abffb" y="340.458632"/>
     <use style="fill:#64b5cd;stroke:#64b5cd;" x="412.109049" xlink:href="#m66311abffb" y="310.954876"/>
     <use style="fill:#64b5cd;stroke:#64b5cd;" x="211.004032" xlink:href="#m66311abffb" y="380.790614"/>
     <use style="fill:#64b5cd;stroke:#64b5cd;" x="233.364662" xlink:href="#m66311abffb" y="310.374262"/>
     <use style="fill:#64b5cd;stroke:#64b5cd;" x="318.62212" xlink:href="#m66311abffb" y="312.401926"/>
     <use style="fill:#64b5cd;stroke:#64b5cd;" x="341.05047" xlink:href="#m66311abffb" y="324.112229"/>
     <use style="fill:#64b5cd;stroke:#64b5cd;" x="377.851463" xlink:href="#m66311abffb" y="318.839218"/>
     <use style="fill:#64b5cd;stroke:#64b5cd;" x="259.753832" xlink:href="#m66311abffb" y="336.815695"/>
     <use style="fill:#64b5cd;stroke:#64b5cd;" x="284.007301" xlink:href="#m66311abffb" y="333.126566"/>
     <use style="fill:#64b5cd;stroke:#64b5cd;" x="355.396732" xlink:href="#m66311abffb" y="330.026187"/>
     <use style="fill:#64b5cd;stroke:#64b5cd;" x="235.139308" xlink:href="#m66311abffb" y="309.939291"/>
     <use style="fill:#64b5cd;stroke:#64b5cd;" x="289.038888" xlink:href="#m66311abffb" y="313.12004"/>
     <use style="fill:#64b5cd;stroke:#64b5cd;" x="395.727463" xlink:href="#m66311abffb" y="334.149849"/>
     <use style="fill:#64b5cd;stroke:#64b5cd;" x="172.583195" xlink:href="#m66311abffb" y="317.981385"/>
     <use style="fill:#64b5cd;stroke:#64b5cd;" x="287.293179" xlink:href="#m66311abffb" y="307.363359"/>
     <use style="fill:#64b5cd;stroke:#64b5cd;" x="67.252273" xlink:href="#m66311abffb" y="342.445196"/>
     <use style="fill:#64b5cd;stroke:#64b5cd;" x="131.150486" xlink:href="#m66311abffb" y="349.388154"/>
     <use style="fill:#64b5cd;stroke:#64b5cd;" x="337.478726" xlink:href="#m66311abffb" y="327.029203"/>
     <use style="fill:#64b5cd;stroke:#64b5cd;" x="296.646671" xlink:href="#m66311abffb" y="354.190983"/>
     <use style="fill:#64b5cd;stroke:#64b5cd;" x="389.714741" xlink:href="#m66311abffb" y="307.005606"/>
     <use style="fill:#64b5cd;stroke:#64b5cd;" x="308.272745" xlink:href="#m66311abffb" y="338.724338"/>
     <use style="fill:#64b5cd;stroke:#64b5cd;" x="267.660239" xlink:href="#m66311abffb" y="311.623673"/>
     <use style="fill:#64b5cd;stroke:#64b5cd;" x="228.887413" xlink:href="#m66311abffb" y="322.617442"/>
     <use style="fill:#64b5cd;stroke:#64b5cd;" x="355.246766" xlink:href="#m66311abffb" y="312.305649"/>
     <use style="fill:#64b5cd;stroke:#64b5cd;" x="261.782152" xlink:href="#m66311abffb" y="365.380151"/>
     <use style="fill:#64b5cd;stroke:#64b5cd;" x="340.127146" xlink:href="#m66311abffb" y="306.518576"/>
     <use style="fill:#64b5cd;stroke:#64b5cd;" x="377.0191" xlink:href="#m66311abffb" y="366.104821"/>
     <use style="fill:#64b5cd;stroke:#64b5cd;" x="84.409656" xlink:href="#m66311abffb" y="436.902102"/>
     <use style="fill:#64b5cd;stroke:#64b5cd;" x="374.330564" xlink:href="#m66311abffb" y="327.874862"/>
     <use style="fill:#64b5cd;stroke:#64b5cd;" x="295.39723" xlink:href="#m66311abffb" y="306.662769"/>
     <use style="fill:#64b5cd;stroke:#64b5cd;" x="269.269552" xlink:href="#m66311abffb" y="311.356128"/>
     <use style="fill:#64b5cd;stroke:#64b5cd;" x="280.600732" xlink:href="#m66311abffb" y="307.493131"/>
     <use style="fill:#64b5cd;stroke:#64b5cd;" x="222.058609" xlink:href="#m66311abffb" y="395.122611"/>
     <use style="fill:#64b5cd;stroke:#64b5cd;" x="290.569702" xlink:href="#m66311abffb" y="307.776763"/>
     <use style="fill:#64b5cd;stroke:#64b5cd;" x="312.142276" xlink:href="#m66311abffb" y="312.391857"/>
     <use style="fill:#64b5cd;stroke:#64b5cd;" x="421.00927" xlink:href="#m66311abffb" y="361.491853"/>
     <use style="fill:#64b5cd;stroke:#64b5cd;" x="193.852993" xlink:href="#m66311abffb" y="315.532654"/>
     <use style="fill:#64b5cd;stroke:#64b5cd;" x="347.094764" xlink:href="#m66311abffb" y="328.277515"/>
     <use style="fill:#64b5cd;stroke:#64b5cd;" x="161.156094" xlink:href="#m66311abffb" y="314.889021"/>
     <use style="fill:#64b5cd;stroke:#64b5cd;" x="335.152284" xlink:href="#m66311abffb" y="331.796131"/>
     <use style="fill:#64b5cd;stroke:#64b5cd;" x="328.434086" xlink:href="#m66311abffb" y="310.520272"/>
     <use style="fill:#64b5cd;stroke:#64b5cd;" x="241.1956" xlink:href="#m66311abffb" y="319.219967"/>
     <use style="fill:#64b5cd;stroke:#64b5cd;" x="230.257748" xlink:href="#m66311abffb" y="318.659023"/>
     <use style="fill:#64b5cd;stroke:#64b5cd;" x="260.176985" xlink:href="#m66311abffb" y="307.687625"/>
     <use style="fill:#64b5cd;stroke:#64b5cd;" x="329.736891" xlink:href="#m66311abffb" y="334.719324"/>
     <use style="fill:#64b5cd;stroke:#64b5cd;" x="212.419512" xlink:href="#m66311abffb" y="322.650844"/>
     <use style="fill:#64b5cd;stroke:#64b5cd;" x="273.288033" xlink:href="#m66311abffb" y="314.442582"/>
     <use style="fill:#64b5cd;stroke:#64b5cd;" x="281.851506" xlink:href="#m66311abffb" y="312.619185"/>
     <use style="fill:#64b5cd;stroke:#64b5cd;" x="168.63255" xlink:href="#m66311abffb" y="362.194533"/>
     <use style="fill:#64b5cd;stroke:#64b5cd;" x="321.306865" xlink:href="#m66311abffb" y="310.787623"/>
     <use style="fill:#64b5cd;stroke:#64b5cd;" x="315.207091" xlink:href="#m66311abffb" y="308.836041"/>
     <use style="fill:#64b5cd;stroke:#64b5cd;" x="326.547882" xlink:href="#m66311abffb" y="306.974797"/>
     <use style="fill:#64b5cd;stroke:#64b5cd;" x="269.045602" xlink:href="#m66311abffb" y="312.159754"/>
    </g>
   </g>
   <g id="line2d_16">
    <g clip-path="url(#pc9fceaad4b)">
     <use style="fill:#64b5cd;stroke:#64b5cd;" x="287.206557" xlink:href="#m66311abffb" y="157.217726"/>
     <use style="fill:#64b5cd;stroke:#64b5cd;" x="290.879731" xlink:href="#m66311abffb" y="165.060113"/>
     <use style="fill:#64b5cd;stroke:#64b5cd;" x="366.565543" xlink:href="#m66311abffb" y="152.516108"/>
     <use style="fill:#64b5cd;stroke:#64b5cd;" x="401.190327" xlink:href="#m66311abffb" y="107.099855"/>
     <use style="fill:#64b5cd;stroke:#64b5cd;" x="183.874393" xlink:href="#m66311abffb" y="164.798263"/>
     <use style="fill:#64b5cd;stroke:#64b5cd;" x="224.466591" xlink:href="#m66311abffb" y="164.433953"/>
     <use style="fill:#64b5cd;stroke:#64b5cd;" x="449.59832" xlink:href="#m66311abffb" y="97.212662"/>
     <use style="fill:#64b5cd;stroke:#64b5cd;" x="355.842167" xlink:href="#m66311abffb" y="146.576217"/>
     <use style="fill:#64b5cd;stroke:#64b5cd;" x="288.753344" xlink:href="#m66311abffb" y="160.082755"/>
     <use style="fill:#64b5cd;stroke:#64b5cd;" x="523.797727" xlink:href="#m66311abffb" y="155.988"/>
     <use style="fill:#64b5cd;stroke:#64b5cd;" x="231.097251" xlink:href="#m66311abffb" y="155.247616"/>
     <use style="fill:#64b5cd;stroke:#64b5cd;" x="315.845394" xlink:href="#m66311abffb" y="159.634413"/>
     <use style="fill:#64b5cd;stroke:#64b5cd;" x="347.84033" xlink:href="#m66311abffb" y="163.357174"/>
     <use style="fill:#64b5cd;stroke:#64b5cd;" x="277.257846" xlink:href="#m66311abffb" y="83.02246"/>
     <use style="fill:#64b5cd;stroke:#64b5cd;" x="158.935663" xlink:href="#m66311abffb" y="97.589439"/>
     <use style="fill:#64b5cd;stroke:#64b5cd;" x="298.478614" xlink:href="#m66311abffb" y="156.291374"/>
     <use style="fill:#64b5cd;stroke:#64b5cd;" x="177.663806" xlink:href="#m66311abffb" y="137.227431"/>
     <use style="fill:#64b5cd;stroke:#64b5cd;" x="250.479738" xlink:href="#m66311abffb" y="162.410174"/>
     <use style="fill:#64b5cd;stroke:#64b5cd;" x="232.779109" xlink:href="#m66311abffb" y="141.272317"/>
     <use style="fill:#64b5cd;stroke:#64b5cd;" x="225.335904" xlink:href="#m66311abffb" y="116.109474"/>
     <use style="fill:#64b5cd;stroke:#64b5cd;" x="513.559058" xlink:href="#m66311abffb" y="107.751058"/>
     <use style="fill:#64b5cd;stroke:#64b5cd;" x="135.824734" xlink:href="#m66311abffb" y="163.864327"/>
     <use style="fill:#64b5cd;stroke:#64b5cd;" x="360.711693" xlink:href="#m66311abffb" y="162.416415"/>
     <use style="fill:#64b5cd;stroke:#64b5cd;" x="68.932924" xlink:href="#m66311abffb" y="113.630149"/>
     <use style="fill:#64b5cd;stroke:#64b5cd;" x="238.346066" xlink:href="#m66311abffb" y="156.379629"/>
     <use style="fill:#64b5cd;stroke:#64b5cd;" x="407.898734" xlink:href="#m66311abffb" y="157.092708"/>
     <use style="fill:#64b5cd;stroke:#64b5cd;" x="190.081456" xlink:href="#m66311abffb" y="129.072937"/>
     <use style="fill:#64b5cd;stroke:#64b5cd;" x="223.609326" xlink:href="#m66311abffb" y="161.035931"/>
     <use style="fill:#64b5cd;stroke:#64b5cd;" x="207.826979" xlink:href="#m66311abffb" y="155.086769"/>
     <use style="fill:#64b5cd;stroke:#64b5cd;" x="286.608237" xlink:href="#m66311abffb" y="163.730842"/>
     <use style="fill:#64b5cd;stroke:#64b5cd;" x="160.562803" xlink:href="#m66311abffb" y="152.856108"/>
     <use style="fill:#64b5cd;stroke:#64b5cd;" x="397.107394" xlink:href="#m66311abffb" y="85.556832"/>
     <use style="fill:#64b5cd;stroke:#64b5cd;" x="250.919804" xlink:href="#m66311abffb" y="165.239302"/>
     <use style="fill:#64b5cd;stroke:#64b5cd;" x="196.231372" xlink:href="#m66311abffb" y="134.881763"/>
     <use style="fill:#64b5cd;stroke:#64b5cd;" x="419.790837" xlink:href="#m66311abffb" y="145.170971"/>
     <use style="fill:#64b5cd;stroke:#64b5cd;" x="289.522685" xlink:href="#m66311abffb" y="125.208583"/>
     <use style="fill:#64b5cd;stroke:#64b5cd;" x="154.916602" xlink:href="#m66311abffb" y="164.082771"/>
     <use style="fill:#64b5cd;stroke:#64b5cd;" x="170.290966" xlink:href="#m66311abffb" y="83.41475"/>
     <use style="fill:#64b5cd;stroke:#64b5cd;" x="190.01223" xlink:href="#m66311abffb" y="120.391986"/>
     <use style="fill:#64b5cd;stroke:#64b5cd;" x="303.333024" xlink:href="#m66311abffb" y="163.803592"/>
     <use style="fill:#64b5cd;stroke:#64b5cd;" x="282.310951" xlink:href="#m66311abffb" y="148.10197"/>
     <use style="fill:#64b5cd;stroke:#64b5cd;" x="318.858044" xlink:href="#m66311abffb" y="161.411072"/>
     <use style="fill:#64b5cd;stroke:#64b5cd;" x="255.676887" xlink:href="#m66311abffb" y="163.165345"/>
     <use style="fill:#64b5cd;stroke:#64b5cd;" x="315.867281" xlink:href="#m66311abffb" y="163.063933"/>
     <use style="fill:#64b5cd;stroke:#64b5cd;" x="135.760587" xlink:href="#m66311abffb" y="112.455606"/>
     <use style="fill:#64b5cd;stroke:#64b5cd;" x="241.686125" xlink:href="#m66311abffb" y="149.726752"/>
     <use style="fill:#64b5cd;stroke:#64b5cd;" x="191.65015" xlink:href="#m66311abffb" y="158.031227"/>
     <use style="fill:#64b5cd;stroke:#64b5cd;" x="264.551601" xlink:href="#m66311abffb" y="132.866667"/>
     <use style="fill:#64b5cd;stroke:#64b5cd;" x="412.109049" xlink:href="#m66311abffb" y="160.779432"/>
     <use style="fill:#64b5cd;stroke:#64b5cd;" x="211.004032" xlink:href="#m66311abffb" y="95.331259"/>
     <use style="fill:#64b5cd;stroke:#64b5cd;" x="233.364662" xlink:href="#m66311abffb" y="161.898928"/>
     <use style="fill:#64b5cd;stroke:#64b5cd;" x="318.62212" xlink:href="#m66311abffb" y="161.47738"/>
     <use style="fill:#64b5cd;stroke:#64b5cd;" x="341.05047" xlink:href="#m66311abffb" y="151.795919"/>
     <use style="fill:#64b5cd;stroke:#64b5cd;" x="377.851463" xlink:href="#m66311abffb" y="152.682815"/>
     <use style="fill:#64b5cd;stroke:#64b5cd;" x="259.753832" xlink:href="#m66311abffb" y="132.899308"/>
     <use style="fill:#64b5cd;stroke:#64b5cd;" x="284.007301" xlink:href="#m66311abffb" y="139.403051"/>
     <use style="fill:#64b5cd;stroke:#64b5cd;" x="355.396732" xlink:href="#m66311abffb" y="141.91419"/>
     <use style="fill:#64b5cd;stroke:#64b5cd;" x="235.139308" xlink:href="#m66311abffb" y="163.33713"/>
     <use style="fill:#64b5cd;stroke:#64b5cd;" x="289.038888" xlink:href="#m66311abffb" y="161.286743"/>
     <use style="fill:#64b5cd;stroke:#64b5cd;" x="395.727463" xlink:href="#m66311abffb" y="135.113529"/>
     <use style="fill:#64b5cd;stroke:#64b5cd;" x="172.583195" xlink:href="#m66311abffb" y="157.673466"/>
     <use style="fill:#64b5cd;stroke:#64b5cd;" x="287.293179" xlink:href="#m66311abffb" y="164.473186"/>
     <use style="fill:#64b5cd;stroke:#64b5cd;" x="67.252273" xlink:href="#m66311abffb" y="131.786412"/>
     <use style="fill:#64b5cd;stroke:#64b5cd;" x="131.150486" xlink:href="#m66311abffb" y="127.380454"/>
     <use style="fill:#64b5cd;stroke:#64b5cd;" x="337.478726" xlink:href="#m66311abffb" y="142.962322"/>
     <use style="fill:#64b5cd;stroke:#64b5cd;" x="296.646671" xlink:href="#m66311abffb" y="115.397924"/>
     <use style="fill:#64b5cd;stroke:#64b5cd;" x="389.714741" xlink:href="#m66311abffb" y="164.836082"/>
     <use style="fill:#64b5cd;stroke:#64b5cd;" x="308.272745" xlink:href="#m66311abffb" y="129.127202"/>
     <use style="fill:#64b5cd;stroke:#64b5cd;" x="267.660239" xlink:href="#m66311abffb" y="161.252429"/>
     <use style="fill:#64b5cd;stroke:#64b5cd;" x="228.887413" xlink:href="#m66311abffb" y="152.616062"/>
     <use style="fill:#64b5cd;stroke:#64b5cd;" x="355.246766" xlink:href="#m66311abffb" y="160.77355"/>
     <use style="fill:#64b5cd;stroke:#64b5cd;" x="261.782152" xlink:href="#m66311abffb" y="106.036456"/>
     <use style="fill:#64b5cd;stroke:#64b5cd;" x="340.127146" xlink:href="#m66311abffb" y="166.899137"/>
     <use style="fill:#64b5cd;stroke:#64b5cd;" x="377.0191" xlink:href="#m66311abffb" y="102.996798"/>
     <use style="fill:#64b5cd;stroke:#64b5cd;" x="84.409656" xlink:href="#m66311abffb" y="41.556648"/>
     <use style="fill:#64b5cd;stroke:#64b5cd;" x="374.330564" xlink:href="#m66311abffb" y="142.23773"/>
     <use style="fill:#64b5cd;stroke:#64b5cd;" x="295.39723" xlink:href="#m66311abffb" y="166.293021"/>
     <use style="fill:#64b5cd;stroke:#64b5cd;" x="269.269552" xlink:href="#m66311abffb" y="159.91719"/>
     <use style="fill:#64b5cd;stroke:#64b5cd;" x="280.600732" xlink:href="#m66311abffb" y="165.333317"/>
     <use style="fill:#64b5cd;stroke:#64b5cd;" x="222.058609" xlink:href="#m66311abffb" y="77.647419"/>
     <use style="fill:#64b5cd;stroke:#64b5cd;" x="290.569702" xlink:href="#m66311abffb" y="164.394217"/>
     <use style="fill:#64b5cd;stroke:#64b5cd;" x="312.142276" xlink:href="#m66311abffb" y="161.938642"/>
     <use style="fill:#64b5cd;stroke:#64b5cd;" x="421.00927" xlink:href="#m66311abffb" y="109.962242"/>
     <use style="fill:#64b5cd;stroke:#64b5cd;" x="193.852993" xlink:href="#m66311abffb" y="157.637666"/>
     <use style="fill:#64b5cd;stroke:#64b5cd;" x="347.094764" xlink:href="#m66311abffb" y="146.954165"/>
     <use style="fill:#64b5cd;stroke:#64b5cd;" x="161.156094" xlink:href="#m66311abffb" y="157.937801"/>
     <use style="fill:#64b5cd;stroke:#64b5cd;" x="335.152284" xlink:href="#m66311abffb" y="138.954752"/>
     <use style="fill:#64b5cd;stroke:#64b5cd;" x="328.434086" xlink:href="#m66311abffb" y="162.496347"/>
     <use style="fill:#64b5cd;stroke:#64b5cd;" x="241.1956" xlink:href="#m66311abffb" y="156.552836"/>
     <use style="fill:#64b5cd;stroke:#64b5cd;" x="230.257748" xlink:href="#m66311abffb" y="155.84701"/>
     <use style="fill:#64b5cd;stroke:#64b5cd;" x="260.176985" xlink:href="#m66311abffb" y="165.729801"/>
     <use style="fill:#64b5cd;stroke:#64b5cd;" x="329.736891" xlink:href="#m66311abffb" y="135.505345"/>
     <use style="fill:#64b5cd;stroke:#64b5cd;" x="212.419512" xlink:href="#m66311abffb" y="151.751026"/>
     <use style="fill:#64b5cd;stroke:#64b5cd;" x="273.288033" xlink:href="#m66311abffb" y="160.814464"/>
     <use style="fill:#64b5cd;stroke:#64b5cd;" x="281.851506" xlink:href="#m66311abffb" y="161.273364"/>
     <use style="fill:#64b5cd;stroke:#64b5cd;" x="168.63255" xlink:href="#m66311abffb" y="112.938773"/>
     <use style="fill:#64b5cd;stroke:#64b5cd;" x="321.306865" xlink:href="#m66311abffb" y="163.170437"/>
     <use style="fill:#64b5cd;stroke:#64b5cd;" x="315.207091" xlink:href="#m66311abffb" y="163.709376"/>
     <use style="fill:#64b5cd;stroke:#64b5cd;" x="326.547882" xlink:href="#m66311abffb" y="165.828168"/>
     <use style="fill:#64b5cd;stroke:#64b5cd;" x="269.045602" xlink:href="#m66311abffb" y="163.563323"/>
    </g>
   </g>
   <g id="line2d_17">
    <path clip-path="url(#pc9fceaad4b)" d="M 44.425 238.814849 
L 49.497727 238.767979 
L 54.570455 238.721109 
L 59.643182 238.674239 
L 64.715909 238.62737 
L 69.788636 238.5805 
L 74.861364 238.53363 
L 79.934091 238.48676 
L 85.006818 238.43989 
L 90.079545 238.39302 
L 95.152273 238.34615 
L 100.225 238.299281 
L 105.297727 238.252411 
L 110.370455 238.205541 
L 115.443182 238.158671 
L 120.515909 238.111801 
L 125.588636 238.064931 
L 130.661364 238.018061 
L 135.734091 237.971192 
L 140.806818 237.924322 
L 145.879545 237.877452 
L 150.952273 237.830582 
L 156.025 237.783712 
L 161.097727 237.736842 
L 166.170455 237.689973 
L 171.243182 237.643103 
L 176.315909 237.596233 
L 181.388636 237.549363 
L 186.461364 237.502493 
L 191.534091 237.455623 
L 196.606818 237.408753 
L 201.679545 237.361884 
L 206.752273 237.315014 
L 211.825 237.268144 
L 216.897727 237.221274 
L 221.970455 237.174404 
L 227.043182 237.127534 
L 232.115909 237.080664 
L 237.188636 237.033795 
L 242.261364 236.986925 
L 247.334091 236.940055 
L 252.406818 236.893185 
L 257.479545 236.846315 
L 262.552273 236.799445 
L 267.625 236.752575 
L 272.697727 236.705706 
L 277.770455 236.658836 
L 282.843182 236.611966 
L 287.915909 236.565096 
L 292.988636 236.518226 
L 298.061364 236.471356 
L 303.134091 236.424487 
L 308.206818 236.377617 
L 313.279545 236.330747 
L 318.352273 236.283877 
L 323.425 236.237007 
L 328.497727 236.190137 
L 333.570455 236.143267 
L 338.643182 236.096398 
L 343.715909 236.049528 
L 348.788636 236.002658 
L 353.861364 235.955788 
L 358.934091 235.908918 
L 364.006818 235.862048 
L 369.079545 235.815178 
L 374.152273 235.768309 
L 379.225 235.721439 
L 384.297727 235.674569 
L 389.370455 235.627699 
L 394.443182 235.580829 
L 399.515909 235.533959 
L 404.588636 235.487089 
L 409.661364 235.44022 
L 414.734091 235.39335 
L 419.806818 235.34648 
L 424.879545 235.29961 
L 429.952273 235.25274 
L 435.025 235.20587 
L 440.097727 235.159001 
L 445.170455 235.112131 
L 450.243182 235.065261 
L 455.315909 235.018391 
L 460.388636 234.971521 
L 465.461364 234.924651 
L 470.534091 234.877781 
L 475.606818 234.830912 
L 480.679545 234.784042 
L 485.752273 234.737172 
L 490.825 234.690302 
L 495.897727 234.643432 
L 500.970455 234.596562 
L 506.043182 234.549692 
L 511.115909 234.502823 
L 516.188636 234.455953 
L 521.261364 234.409083 
L 526.334091 234.362213 
L 531.406818 234.315343 
L 536.479545 234.268473 
L 541.552273 234.221603 
L 546.625 234.174734 
" style="fill:none;stroke:#4c72b0;stroke-linecap:round;stroke-opacity:0.5;stroke-width:2.25;"/>
   </g>
   <g id="line2d_18">
    <path clip-path="url(#pc9fceaad4b)" d="M 44.425 247.808066 
L 546.625 214.150478 
" style="fill:none;stroke:#c44e52;stroke-dasharray:5.55,2.4;stroke-dashoffset:0;stroke-width:1.5;"/>
   </g>
   <g id="line2d_19">
    <defs>
     <path d="M 0 3 
C 0.795609 3 1.55874 2.683901 2.12132 2.12132 
C 2.683901 1.55874 3 0.795609 3 0 
C 3 -0.795609 2.683901 -1.55874 2.12132 -2.12132 
C 1.55874 -2.683901 0.795609 -3 0 -3 
C -0.795609 -3 -1.55874 -2.683901 -2.12132 -2.12132 
C -2.683901 -1.55874 -3 -0.795609 -3 0 
C -3 0.795609 -2.683901 1.55874 -2.12132 2.12132 
C -1.55874 2.683901 -0.795609 3 0 3 
z
" id="m7c6575d257" style="stroke:#4c72b0;"/>
    </defs>
    <g clip-path="url(#pc9fceaad4b)">
     <use style="fill:#4c72b0;stroke:#4c72b0;" x="287.206557" xlink:href="#m7c6575d257" y="237.401566"/>
     <use style="fill:#4c72b0;stroke:#4c72b0;" x="290.879731" xlink:href="#m7c6575d257" y="236.596104"/>
     <use style="fill:#4c72b0;stroke:#4c72b0;" x="366.565543" xlink:href="#m7c6575d257" y="236.161761"/>
     <use style="fill:#4c72b0;stroke:#4c72b0;" x="401.190327" xlink:href="#m7c6575d257" y="235.576228"/>
     <use style="fill:#4c72b0;stroke:#4c72b0;" x="183.874393" xlink:href="#m7c6575d257" y="236.938649"/>
     <use style="fill:#4c72b0;stroke:#4c72b0;" x="224.466591" xlink:href="#m7c6575d257" y="236.611196"/>
     <use style="fill:#4c72b0;stroke:#4c72b0;" x="449.59832" xlink:href="#m7c6575d257" y="233.161402"/>
     <use style="fill:#4c72b0;stroke:#4c72b0;" x="355.842167" xlink:href="#m7c6575d257" y="235.816362"/>
     <use style="fill:#4c72b0;stroke:#4c72b0;" x="288.753344" xlink:href="#m7c6575d257" y="237.10373"/>
     <use style="fill:#4c72b0;stroke:#4c72b0;" x="523.797727" xlink:href="#m7c6575d257" y="236.130932"/>
     <use style="fill:#4c72b0;stroke:#4c72b0;" x="231.097251" xlink:href="#m7c6575d257" y="238.70659"/>
     <use style="fill:#4c72b0;stroke:#4c72b0;" x="315.845394" xlink:href="#m7c6575d257" y="237.126268"/>
     <use style="fill:#4c72b0;stroke:#4c72b0;" x="347.84033" xlink:href="#m7c6575d257" y="236.253684"/>
     <use style="fill:#4c72b0;stroke:#4c72b0;" x="277.257846" xlink:href="#m7c6575d257" y="236.426945"/>
     <use style="fill:#4c72b0;stroke:#4c72b0;" x="158.935663" xlink:href="#m7c6575d257" y="238.689141"/>
     <use style="fill:#4c72b0;stroke:#4c72b0;" x="298.478614" xlink:href="#m7c6575d257" y="236.923857"/>
     <use style="fill:#4c72b0;stroke:#4c72b0;" x="177.663806" xlink:href="#m7c6575d257" y="237.859139"/>
     <use style="fill:#4c72b0;stroke:#4c72b0;" x="250.479738" xlink:href="#m7c6575d257" y="237.566659"/>
     <use style="fill:#4c72b0;stroke:#4c72b0;" x="232.779109" xlink:href="#m7c6575d257" y="236.34135"/>
     <use style="fill:#4c72b0;stroke:#4c72b0;" x="225.335904" xlink:href="#m7c6575d257" y="237.471588"/>
     <use style="fill:#4c72b0;stroke:#4c72b0;" x="513.559058" xlink:href="#m7c6575d257" y="234.500629"/>
     <use style="fill:#4c72b0;stroke:#4c72b0;" x="135.824734" xlink:href="#m7c6575d257" y="237.657287"/>
     <use style="fill:#4c72b0;stroke:#4c72b0;" x="360.711693" xlink:href="#m7c6575d257" y="235.406024"/>
     <use style="fill:#4c72b0;stroke:#4c72b0;" x="68.932924" xlink:href="#m7c6575d257" y="239.476126"/>
     <use style="fill:#4c72b0;stroke:#4c72b0;" x="238.346066" xlink:href="#m7c6575d257" y="236.435402"/>
     <use style="fill:#4c72b0;stroke:#4c72b0;" x="407.898734" xlink:href="#m7c6575d257" y="234.557796"/>
     <use style="fill:#4c72b0;stroke:#4c72b0;" x="190.081456" xlink:href="#m7c6575d257" y="238.469172"/>
     <use style="fill:#4c72b0;stroke:#4c72b0;" x="223.609326" xlink:href="#m7c6575d257" y="236.618546"/>
     <use style="fill:#4c72b0;stroke:#4c72b0;" x="207.826979" xlink:href="#m7c6575d257" y="237.061865"/>
     <use style="fill:#4c72b0;stroke:#4c72b0;" x="286.608237" xlink:href="#m7c6575d257" y="237.440089"/>
     <use style="fill:#4c72b0;stroke:#4c72b0;" x="160.562803" xlink:href="#m7c6575d257" y="238.651346"/>
     <use style="fill:#4c72b0;stroke:#4c72b0;" x="397.107394" xlink:href="#m7c6575d257" y="234.204331"/>
     <use style="fill:#4c72b0;stroke:#4c72b0;" x="250.919804" xlink:href="#m7c6575d257" y="237.382912"/>
     <use style="fill:#4c72b0;stroke:#4c72b0;" x="196.231372" xlink:href="#m7c6575d257" y="237.382376"/>
     <use style="fill:#4c72b0;stroke:#4c72b0;" x="419.790837" xlink:href="#m7c6575d257" y="236.738502"/>
     <use style="fill:#4c72b0;stroke:#4c72b0;" x="289.522685" xlink:href="#m7c6575d257" y="236.60322"/>
     <use style="fill:#4c72b0;stroke:#4c72b0;" x="154.916602" xlink:href="#m7c6575d257" y="236.963614"/>
     <use style="fill:#4c72b0;stroke:#4c72b0;" x="170.290966" xlink:href="#m7c6575d257" y="238.994869"/>
     <use style="fill:#4c72b0;stroke:#4c72b0;" x="190.01223" xlink:href="#m7c6575d257" y="236.949529"/>
     <use style="fill:#4c72b0;stroke:#4c72b0;" x="303.333024" xlink:href="#m7c6575d257" y="237.514011"/>
     <use style="fill:#4c72b0;stroke:#4c72b0;" x="282.310951" xlink:href="#m7c6575d257" y="235.627231"/>
     <use style="fill:#4c72b0;stroke:#4c72b0;" x="318.858044" xlink:href="#m7c6575d257" y="235.3962"/>
     <use style="fill:#4c72b0;stroke:#4c72b0;" x="255.676887" xlink:href="#m7c6575d257" y="237.866064"/>
     <use style="fill:#4c72b0;stroke:#4c72b0;" x="315.867281" xlink:href="#m7c6575d257" y="236.819675"/>
     <use style="fill:#4c72b0;stroke:#4c72b0;" x="135.760587" xlink:href="#m7c6575d257" y="237.882144"/>
     <use style="fill:#4c72b0;stroke:#4c72b0;" x="241.686125" xlink:href="#m7c6575d257" y="236.593992"/>
     <use style="fill:#4c72b0;stroke:#4c72b0;" x="191.65015" xlink:href="#m7c6575d257" y="238.287991"/>
     <use style="fill:#4c72b0;stroke:#4c72b0;" x="264.551601" xlink:href="#m7c6575d257" y="236.662652"/>
     <use style="fill:#4c72b0;stroke:#4c72b0;" x="412.109049" xlink:href="#m7c6575d257" y="235.867155"/>
     <use style="fill:#4c72b0;stroke:#4c72b0;" x="211.004032" xlink:href="#m7c6575d257" y="238.060932"/>
     <use style="fill:#4c72b0;stroke:#4c72b0;" x="233.364662" xlink:href="#m7c6575d257" y="236.136592"/>
     <use style="fill:#4c72b0;stroke:#4c72b0;" x="318.62212" xlink:href="#m7c6575d257" y="236.93965"/>
     <use style="fill:#4c72b0;stroke:#4c72b0;" x="341.05047" xlink:href="#m7c6575d257" y="237.954071"/>
     <use style="fill:#4c72b0;stroke:#4c72b0;" x="377.851463" xlink:href="#m7c6575d257" y="235.761017"/>
     <use style="fill:#4c72b0;stroke:#4c72b0;" x="259.753832" xlink:href="#m7c6575d257" y="234.857499"/>
     <use style="fill:#4c72b0;stroke:#4c72b0;" x="284.007301" xlink:href="#m7c6575d257" y="236.264808"/>
     <use style="fill:#4c72b0;stroke:#4c72b0;" x="355.396732" xlink:href="#m7c6575d257" y="235.970187"/>
     <use style="fill:#4c72b0;stroke:#4c72b0;" x="235.139308" xlink:href="#m7c6575d257" y="236.638211"/>
     <use style="fill:#4c72b0;stroke:#4c72b0;" x="289.038888" xlink:href="#m7c6575d257" y="237.203389"/>
     <use style="fill:#4c72b0;stroke:#4c72b0;" x="395.727463" xlink:href="#m7c6575d257" y="234.631691"/>
     <use style="fill:#4c72b0;stroke:#4c72b0;" x="172.583195" xlink:href="#m7c6575d257" y="237.827424"/>
     <use style="fill:#4c72b0;stroke:#4c72b0;" x="287.293179" xlink:href="#m7c6575d257" y="235.918273"/>
     <use style="fill:#4c72b0;stroke:#4c72b0;" x="67.252273" xlink:href="#m7c6575d257" y="237.115806"/>
     <use style="fill:#4c72b0;stroke:#4c72b0;" x="131.150486" xlink:href="#m7c6575d257" y="238.384307"/>
     <use style="fill:#4c72b0;stroke:#4c72b0;" x="337.478726" xlink:href="#m7c6575d257" y="234.995766"/>
     <use style="fill:#4c72b0;stroke:#4c72b0;" x="296.646671" xlink:href="#m7c6575d257" y="234.794457"/>
     <use style="fill:#4c72b0;stroke:#4c72b0;" x="389.714741" xlink:href="#m7c6575d257" y="235.920841"/>
     <use style="fill:#4c72b0;stroke:#4c72b0;" x="308.272745" xlink:href="#m7c6575d257" y="233.925769"/>
     <use style="fill:#4c72b0;stroke:#4c72b0;" x="267.660239" xlink:href="#m7c6575d257" y="236.438055"/>
     <use style="fill:#4c72b0;stroke:#4c72b0;" x="228.887413" xlink:href="#m7c6575d257" y="237.616752"/>
     <use style="fill:#4c72b0;stroke:#4c72b0;" x="355.246766" xlink:href="#m7c6575d257" y="236.539601"/>
     <use style="fill:#4c72b0;stroke:#4c72b0;" x="261.782152" xlink:href="#m7c6575d257" y="235.708309"/>
     <use style="fill:#4c72b0;stroke:#4c72b0;" x="340.127146" xlink:href="#m7c6575d257" y="236.708856"/>
     <use style="fill:#4c72b0;stroke:#4c72b0;" x="377.0191" xlink:href="#m7c6575d257" y="234.550803"/>
     <use style="fill:#4c72b0;stroke:#4c72b0;" x="84.409656" xlink:href="#m7c6575d257" y="239.229369"/>
     <use style="fill:#4c72b0;stroke:#4c72b0;" x="374.330564" xlink:href="#m7c6575d257" y="235.056294"/>
     <use style="fill:#4c72b0;stroke:#4c72b0;" x="295.39723" xlink:href="#m7c6575d257" y="236.477897"/>
     <use style="fill:#4c72b0;stroke:#4c72b0;" x="269.269552" xlink:href="#m7c6575d257" y="235.636662"/>
     <use style="fill:#4c72b0;stroke:#4c72b0;" x="280.600732" xlink:href="#m7c6575d257" y="236.413226"/>
     <use style="fill:#4c72b0;stroke:#4c72b0;" x="222.058609" xlink:href="#m7c6575d257" y="236.385017"/>
     <use style="fill:#4c72b0;stroke:#4c72b0;" x="290.569702" xlink:href="#m7c6575d257" y="236.085493"/>
     <use style="fill:#4c72b0;stroke:#4c72b0;" x="312.142276" xlink:href="#m7c6575d257" y="237.165247"/>
     <use style="fill:#4c72b0;stroke:#4c72b0;" x="421.00927" xlink:href="#m7c6575d257" y="235.727054"/>
     <use style="fill:#4c72b0;stroke:#4c72b0;" x="193.852993" xlink:href="#m7c6575d257" y="236.585161"/>
     <use style="fill:#4c72b0;stroke:#4c72b0;" x="347.094764" xlink:href="#m7c6575d257" y="237.615837"/>
     <use style="fill:#4c72b0;stroke:#4c72b0;" x="161.156094" xlink:href="#m7c6575d257" y="236.413408"/>
     <use style="fill:#4c72b0;stroke:#4c72b0;" x="335.152284" xlink:href="#m7c6575d257" y="235.375443"/>
     <use style="fill:#4c72b0;stroke:#4c72b0;" x="328.434086" xlink:href="#m7c6575d257" y="236.50831"/>
     <use style="fill:#4c72b0;stroke:#4c72b0;" x="241.1956" xlink:href="#m7c6575d257" y="237.8864"/>
     <use style="fill:#4c72b0;stroke:#4c72b0;" x="230.257748" xlink:href="#m7c6575d257" y="237.253015"/>
     <use style="fill:#4c72b0;stroke:#4c72b0;" x="260.176985" xlink:href="#m7c6575d257" y="236.708712"/>
     <use style="fill:#4c72b0;stroke:#4c72b0;" x="329.736891" xlink:href="#m7c6575d257" y="235.112337"/>
     <use style="fill:#4c72b0;stroke:#4c72b0;" x="212.419512" xlink:href="#m7c6575d257" y="237.200932"/>
     <use style="fill:#4c72b0;stroke:#4c72b0;" x="273.288033" xlink:href="#m7c6575d257" y="237.628525"/>
     <use style="fill:#4c72b0;stroke:#4c72b0;" x="281.851506" xlink:href="#m7c6575d257" y="236.946272"/>
     <use style="fill:#4c72b0;stroke:#4c72b0;" x="168.63255" xlink:href="#m7c6575d257" y="237.56665"/>
     <use style="fill:#4c72b0;stroke:#4c72b0;" x="321.306865" xlink:href="#m7c6575d257" y="236.979031"/>
     <use style="fill:#4c72b0;stroke:#4c72b0;" x="315.207091" xlink:href="#m7c6575d257" y="236.27271"/>
     <use style="fill:#4c72b0;stroke:#4c72b0;" x="326.547882" xlink:href="#m7c6575d257" y="236.401485"/>
     <use style="fill:#4c72b0;stroke:#4c72b0;" x="269.045602" xlink:href="#m7c6575d257" y="237.861537"/>
    </g>
   </g>
   <g id="patch_3">
    <path d="M 44.425 456.669375 
L 44.425 21.789375 
" style="fill:none;stroke:#ffffff;stroke-linecap:square;stroke-linejoin:miter;stroke-width:0.8;"/>
   </g>
   <g id="patch_4">
    <path d="M 546.625 456.669375 
L 546.625 21.789375 
" style="fill:none;stroke:#ffffff;stroke-linecap:square;stroke-linejoin:miter;stroke-width:0.8;"/>
   </g>
   <g id="patch_5">
    <path d="M 44.425 456.669375 
L 546.625 456.669375 
" style="fill:none;stroke:#ffffff;stroke-linecap:square;stroke-linejoin:miter;stroke-width:0.8;"/>
   </g>
   <g id="patch_6">
    <path d="M 44.425 21.789375 
L 546.625 21.789375 
" style="fill:none;stroke:#ffffff;stroke-linecap:square;stroke-linejoin:miter;stroke-width:0.8;"/>
   </g>
   <g id="text_17">
    <!-- Model Prior Predictions -->
    <g style="fill:#262626;" transform="translate(233.50375 15.789375)scale(0.12 -0.12)">
     <defs>
      <path d="M 7.421875 0 
L 7.421875 71.578125 
L 21.6875 71.578125 
L 38.625 20.90625 
Q 40.96875 13.8125 42.046875 10.296875 
Q 43.265625 14.203125 45.84375 21.78125 
L 62.984375 71.578125 
L 75.734375 71.578125 
L 75.734375 0 
L 66.609375 0 
L 66.609375 59.90625 
L 45.796875 0 
L 37.25 0 
L 16.546875 60.9375 
L 16.546875 0 
z
" id="ArialMT-77"/>
      <path d="M 3.328125 25.921875 
Q 3.328125 40.328125 11.328125 47.265625 
Q 18.015625 53.03125 27.640625 53.03125 
Q 38.328125 53.03125 45.109375 46.015625 
Q 51.90625 39.015625 51.90625 26.65625 
Q 51.90625 16.65625 48.90625 10.90625 
Q 45.90625 5.171875 40.15625 2 
Q 34.421875 -1.171875 27.640625 -1.171875 
Q 16.75 -1.171875 10.03125 5.8125 
Q 3.328125 12.796875 3.328125 25.921875 
z
M 12.359375 25.921875 
Q 12.359375 15.96875 16.703125 11.015625 
Q 21.046875 6.0625 27.640625 6.0625 
Q 34.1875 6.0625 38.53125 11.03125 
Q 42.875 16.015625 42.875 26.21875 
Q 42.875 35.84375 38.5 40.796875 
Q 34.125 45.75 27.640625 45.75 
Q 21.046875 45.75 16.703125 40.8125 
Q 12.359375 35.890625 12.359375 25.921875 
z
" id="ArialMT-111"/>
      <path d="M 6.390625 0 
L 6.390625 71.578125 
L 15.1875 71.578125 
L 15.1875 0 
z
" id="ArialMT-108"/>
      <path id="ArialMT-32"/>
      <path d="M 7.71875 0 
L 7.71875 71.578125 
L 34.71875 71.578125 
Q 41.84375 71.578125 45.609375 70.90625 
Q 50.875 70.015625 54.4375 67.546875 
Q 58.015625 65.09375 60.1875 60.640625 
Q 62.359375 56.203125 62.359375 50.875 
Q 62.359375 41.75 56.546875 35.421875 
Q 50.734375 29.109375 35.546875 29.109375 
L 17.1875 29.109375 
L 17.1875 0 
z
M 17.1875 37.546875 
L 35.6875 37.546875 
Q 44.875 37.546875 48.734375 40.96875 
Q 52.59375 44.390625 52.59375 50.59375 
Q 52.59375 55.078125 50.3125 58.265625 
Q 48.046875 61.46875 44.34375 62.5 
Q 41.9375 63.140625 35.5 63.140625 
L 17.1875 63.140625 
z
" id="ArialMT-80"/>
      <path d="M 6.640625 61.46875 
L 6.640625 71.578125 
L 15.4375 71.578125 
L 15.4375 61.46875 
z
M 6.640625 0 
L 6.640625 51.859375 
L 15.4375 51.859375 
L 15.4375 0 
z
" id="ArialMT-105"/>
      <path d="M 40.4375 19 
L 49.078125 17.875 
Q 47.65625 8.9375 41.8125 3.875 
Q 35.984375 -1.171875 27.484375 -1.171875 
Q 16.84375 -1.171875 10.375 5.78125 
Q 3.90625 12.75 3.90625 25.734375 
Q 3.90625 34.125 6.6875 40.421875 
Q 9.46875 46.734375 15.15625 49.875 
Q 20.84375 53.03125 27.546875 53.03125 
Q 35.984375 53.03125 41.359375 48.75 
Q 46.734375 44.484375 48.25 36.625 
L 39.703125 35.296875 
Q 38.484375 40.53125 35.375 43.15625 
Q 32.28125 45.796875 27.875 45.796875 
Q 21.234375 45.796875 17.078125 41.03125 
Q 12.9375 36.28125 12.9375 25.984375 
Q 12.9375 15.53125 16.9375 10.796875 
Q 20.953125 6.0625 27.390625 6.0625 
Q 32.5625 6.0625 36.03125 9.234375 
Q 39.5 12.40625 40.4375 19 
z
" id="ArialMT-99"/>
      <path d="M 25.78125 7.859375 
L 27.046875 0.09375 
Q 23.34375 -0.6875 20.40625 -0.6875 
Q 15.625 -0.6875 12.984375 0.828125 
Q 10.359375 2.34375 9.28125 4.8125 
Q 8.203125 7.28125 8.203125 15.1875 
L 8.203125 45.015625 
L 1.765625 45.015625 
L 1.765625 51.859375 
L 8.203125 51.859375 
L 8.203125 64.703125 
L 16.9375 69.96875 
L 16.9375 51.859375 
L 25.78125 51.859375 
L 25.78125 45.015625 
L 16.9375 45.015625 
L 16.9375 14.703125 
Q 16.9375 10.9375 17.40625 9.859375 
Q 17.875 8.796875 18.921875 8.15625 
Q 19.96875 7.515625 21.921875 7.515625 
Q 23.390625 7.515625 25.78125 7.859375 
z
" id="ArialMT-116"/>
      <path d="M 6.59375 0 
L 6.59375 51.859375 
L 14.5 51.859375 
L 14.5 44.484375 
Q 20.21875 53.03125 31 53.03125 
Q 35.6875 53.03125 39.625 51.34375 
Q 43.5625 49.65625 45.515625 46.921875 
Q 47.46875 44.1875 48.25 40.4375 
Q 48.734375 37.984375 48.734375 31.890625 
L 48.734375 0 
L 39.9375 0 
L 39.9375 31.546875 
Q 39.9375 36.921875 38.90625 39.578125 
Q 37.890625 42.234375 35.28125 43.8125 
Q 32.671875 45.40625 29.15625 45.40625 
Q 23.53125 45.40625 19.453125 41.84375 
Q 15.375 38.28125 15.375 28.328125 
L 15.375 0 
z
" id="ArialMT-110"/>
      <path d="M 3.078125 15.484375 
L 11.765625 16.84375 
Q 12.5 11.625 15.84375 8.84375 
Q 19.1875 6.0625 25.203125 6.0625 
Q 31.25 6.0625 34.171875 8.515625 
Q 37.109375 10.984375 37.109375 14.3125 
Q 37.109375 17.28125 34.515625 19 
Q 32.71875 20.171875 25.53125 21.96875 
Q 15.875 24.421875 12.140625 26.203125 
Q 8.40625 27.984375 6.46875 31.125 
Q 4.546875 34.28125 4.546875 38.09375 
Q 4.546875 41.546875 6.125 44.5 
Q 7.71875 47.46875 10.453125 49.421875 
Q 12.5 50.921875 16.03125 51.96875 
Q 19.578125 53.03125 23.640625 53.03125 
Q 29.734375 53.03125 34.34375 51.265625 
Q 38.96875 49.515625 41.15625 46.5 
Q 43.359375 43.5 44.1875 38.484375 
L 35.59375 37.3125 
Q 35.015625 41.3125 32.203125 43.546875 
Q 29.390625 45.796875 24.265625 45.796875 
Q 18.21875 45.796875 15.625 43.796875 
Q 13.03125 41.796875 13.03125 39.109375 
Q 13.03125 37.40625 14.109375 36.03125 
Q 15.1875 34.625 17.484375 33.6875 
Q 18.796875 33.203125 25.25 31.453125 
Q 34.578125 28.953125 38.25 27.359375 
Q 41.9375 25.78125 44.03125 22.75 
Q 46.140625 19.734375 46.140625 15.234375 
Q 46.140625 10.84375 43.578125 6.953125 
Q 41.015625 3.078125 36.171875 0.953125 
Q 31.34375 -1.171875 25.25 -1.171875 
Q 15.140625 -1.171875 9.84375 3.03125 
Q 4.546875 7.234375 3.078125 15.484375 
z
" id="ArialMT-115"/>
     </defs>
     <use xlink:href="#ArialMT-77"/>
     <use x="83.300781" xlink:href="#ArialMT-111"/>
     <use x="138.916016" xlink:href="#ArialMT-100"/>
     <use x="194.53125" xlink:href="#ArialMT-101"/>
     <use x="250.146484" xlink:href="#ArialMT-108"/>
     <use x="272.363281" xlink:href="#ArialMT-32"/>
     <use x="300.146484" xlink:href="#ArialMT-80"/>
     <use x="366.845703" xlink:href="#ArialMT-114"/>
     <use x="400.146484" xlink:href="#ArialMT-105"/>
     <use x="422.363281" xlink:href="#ArialMT-111"/>
     <use x="477.978516" xlink:href="#ArialMT-114"/>
     <use x="511.279297" xlink:href="#ArialMT-32"/>
     <use x="539.0625" xlink:href="#ArialMT-80"/>
     <use x="605.761719" xlink:href="#ArialMT-114"/>
     <use x="639.0625" xlink:href="#ArialMT-101"/>
     <use x="694.677734" xlink:href="#ArialMT-100"/>
     <use x="750.292969" xlink:href="#ArialMT-105"/>
     <use x="772.509766" xlink:href="#ArialMT-99"/>
     <use x="822.509766" xlink:href="#ArialMT-116"/>
     <use x="850.292969" xlink:href="#ArialMT-105"/>
     <use x="872.509766" xlink:href="#ArialMT-111"/>
     <use x="928.125" xlink:href="#ArialMT-110"/>
     <use x="983.740234" xlink:href="#ArialMT-115"/>
    </g>
   </g>
   <g id="legend_1">
    <g id="patch_7">
     <path d="M 372.842187 451.669375 
L 539.625 451.669375 
Q 541.625 451.669375 541.625 449.669375 
L 541.625 407.877187 
Q 541.625 405.877187 539.625 405.877187 
L 372.842187 405.877187 
Q 370.842187 405.877187 370.842187 407.877187 
L 370.842187 449.669375 
Q 370.842187 451.669375 372.842187 451.669375 
z
" style="fill:#e6e6e6;opacity:0.8;stroke:#cccccc;stroke-linejoin:miter;"/>
    </g>
    <g id="line2d_20">
     <path d="M 374.842187 413.535 
L 394.842187 413.535 
" style="fill:none;stroke:#4c72b0;stroke-linecap:round;stroke-opacity:0.5;stroke-width:2.25;"/>
    </g>
    <g id="line2d_21"/>
    <g id="text_18">
     <!-- y ~ y_pred -->
     <g style="fill:#262626;" transform="translate(402.842187 417.035)scale(0.1 -0.1)">
      <defs>
       <path d="M 4.25 27.203125 
L 4.25 37.203125 
Q 9.421875 43.0625 17.828125 43.0625 
Q 20.75 43.0625 23.96875 42.203125 
Q 27.203125 41.359375 33.15625 38.8125 
Q 36.53125 37.40625 38.203125 36.96875 
Q 39.890625 36.53125 41.609375 36.53125 
Q 44.78125 36.53125 48.171875 38.421875 
Q 51.5625 40.328125 54.203125 43.21875 
L 54.203125 32.859375 
Q 51.078125 29.9375 47.875 28.609375 
Q 44.671875 27.296875 40.671875 27.296875 
Q 37.75 27.296875 35.078125 27.96875 
Q 32.421875 28.65625 26.625 31.25 
Q 20.84375 33.84375 17 33.84375 
Q 13.875 33.84375 11.109375 32.5 
Q 8.34375 31.15625 4.25 27.203125 
z
" id="ArialMT-126"/>
      </defs>
      <use xlink:href="#ArialMT-121"/>
      <use x="50" xlink:href="#ArialMT-32"/>
      <use x="77.783203" xlink:href="#ArialMT-126"/>
      <use x="136.181641" xlink:href="#ArialMT-32"/>
      <use x="163.964844" xlink:href="#ArialMT-121"/>
      <use x="213.964844" xlink:href="#ArialMT-95"/>
      <use x="269.580078" xlink:href="#ArialMT-112"/>
      <use x="325.195312" xlink:href="#ArialMT-114"/>
      <use x="358.496094" xlink:href="#ArialMT-101"/>
      <use x="414.111328" xlink:href="#ArialMT-100"/>
     </g>
    </g>
    <g id="line2d_22">
     <path d="M 374.842187 427.919375 
L 394.842187 427.919375 
" style="fill:none;stroke:#c44e52;stroke-dasharray:5.55,2.4;stroke-dashoffset:0;stroke-width:1.5;"/>
    </g>
    <g id="line2d_23"/>
    <g id="text_19">
     <!-- diagonal (y = y_pred) -->
     <g style="fill:#262626;" transform="translate(402.842187 431.419375)scale(0.1 -0.1)">
      <defs>
       <path d="M 40.4375 6.390625 
Q 35.546875 2.25 31.03125 0.53125 
Q 26.515625 -1.171875 21.34375 -1.171875 
Q 12.796875 -1.171875 8.203125 3 
Q 3.609375 7.171875 3.609375 13.671875 
Q 3.609375 17.484375 5.34375 20.625 
Q 7.078125 23.78125 9.890625 25.6875 
Q 12.703125 27.59375 16.21875 28.5625 
Q 18.796875 29.25 24.03125 29.890625 
Q 34.671875 31.15625 39.703125 32.90625 
Q 39.75 34.71875 39.75 35.203125 
Q 39.75 40.578125 37.25 42.78125 
Q 33.890625 45.75 27.25 45.75 
Q 21.046875 45.75 18.09375 43.578125 
Q 15.140625 41.40625 13.71875 35.890625 
L 5.125 37.0625 
Q 6.296875 42.578125 8.984375 45.96875 
Q 11.671875 49.359375 16.75 51.1875 
Q 21.828125 53.03125 28.515625 53.03125 
Q 35.15625 53.03125 39.296875 51.46875 
Q 43.453125 49.90625 45.40625 47.53125 
Q 47.359375 45.171875 48.140625 41.546875 
Q 48.578125 39.3125 48.578125 33.453125 
L 48.578125 21.734375 
Q 48.578125 9.46875 49.140625 6.21875 
Q 49.703125 2.984375 51.375 0 
L 42.1875 0 
Q 40.828125 2.734375 40.4375 6.390625 
z
M 39.703125 26.03125 
Q 34.90625 24.078125 25.34375 22.703125 
Q 19.921875 21.921875 17.671875 20.9375 
Q 15.4375 19.96875 14.203125 18.09375 
Q 12.984375 16.21875 12.984375 13.921875 
Q 12.984375 10.40625 15.640625 8.0625 
Q 18.3125 5.71875 23.4375 5.71875 
Q 28.515625 5.71875 32.46875 7.9375 
Q 36.421875 10.15625 38.28125 14.015625 
Q 39.703125 17 39.703125 22.796875 
z
" id="ArialMT-97"/>
       <path d="M 4.984375 -4.296875 
L 13.53125 -5.5625 
Q 14.0625 -9.515625 16.5 -11.328125 
Q 19.78125 -13.765625 25.4375 -13.765625 
Q 31.546875 -13.765625 34.859375 -11.328125 
Q 38.1875 -8.890625 39.359375 -4.5 
Q 40.046875 -1.8125 39.984375 6.78125 
Q 34.234375 0 25.640625 0 
Q 14.9375 0 9.078125 7.71875 
Q 3.21875 15.4375 3.21875 26.21875 
Q 3.21875 33.640625 5.90625 39.90625 
Q 8.59375 46.1875 13.6875 49.609375 
Q 18.796875 53.03125 25.6875 53.03125 
Q 34.859375 53.03125 40.828125 45.609375 
L 40.828125 51.859375 
L 48.921875 51.859375 
L 48.921875 7.03125 
Q 48.921875 -5.078125 46.453125 -10.125 
Q 44 -15.1875 38.640625 -18.109375 
Q 33.296875 -21.046875 25.484375 -21.046875 
Q 16.21875 -21.046875 10.5 -16.875 
Q 4.78125 -12.703125 4.984375 -4.296875 
z
M 12.25 26.859375 
Q 12.25 16.65625 16.296875 11.96875 
Q 20.359375 7.28125 26.46875 7.28125 
Q 32.515625 7.28125 36.609375 11.9375 
Q 40.71875 16.609375 40.71875 26.5625 
Q 40.71875 36.078125 36.5 40.90625 
Q 32.28125 45.75 26.3125 45.75 
Q 20.453125 45.75 16.34375 40.984375 
Q 12.25 36.234375 12.25 26.859375 
z
" id="ArialMT-103"/>
       <path d="M 23.390625 -21.046875 
Q 16.109375 -11.859375 11.078125 0.4375 
Q 6.0625 12.75 6.0625 25.921875 
Q 6.0625 37.546875 9.8125 48.1875 
Q 14.203125 60.546875 23.390625 72.796875 
L 29.6875 72.796875 
Q 23.78125 62.640625 21.875 58.296875 
Q 18.890625 51.5625 17.1875 44.234375 
Q 15.09375 35.109375 15.09375 25.875 
Q 15.09375 2.390625 29.6875 -21.046875 
z
" id="ArialMT-40"/>
       <path d="M 52.828125 42.09375 
L 5.5625 42.09375 
L 5.5625 50.296875 
L 52.828125 50.296875 
z
M 52.828125 20.359375 
L 5.5625 20.359375 
L 5.5625 28.5625 
L 52.828125 28.5625 
z
" id="ArialMT-61"/>
       <path d="M 12.359375 -21.046875 
L 6.0625 -21.046875 
Q 20.65625 2.390625 20.65625 25.875 
Q 20.65625 35.0625 18.5625 44.09375 
Q 16.890625 51.421875 13.921875 58.15625 
Q 12.015625 62.546875 6.0625 72.796875 
L 12.359375 72.796875 
Q 21.53125 60.546875 25.921875 48.1875 
Q 29.6875 37.546875 29.6875 25.921875 
Q 29.6875 12.75 24.625 0.4375 
Q 19.578125 -11.859375 12.359375 -21.046875 
z
" id="ArialMT-41"/>
      </defs>
      <use xlink:href="#ArialMT-100"/>
      <use x="55.615234" xlink:href="#ArialMT-105"/>
      <use x="77.832031" xlink:href="#ArialMT-97"/>
      <use x="133.447266" xlink:href="#ArialMT-103"/>
      <use x="189.0625" xlink:href="#ArialMT-111"/>
      <use x="244.677734" xlink:href="#ArialMT-110"/>
      <use x="300.292969" xlink:href="#ArialMT-97"/>
      <use x="355.908203" xlink:href="#ArialMT-108"/>
      <use x="378.125" xlink:href="#ArialMT-32"/>
      <use x="405.908203" xlink:href="#ArialMT-40"/>
      <use x="439.208984" xlink:href="#ArialMT-121"/>
      <use x="489.208984" xlink:href="#ArialMT-32"/>
      <use x="516.992188" xlink:href="#ArialMT-61"/>
      <use x="575.390625" xlink:href="#ArialMT-32"/>
      <use x="603.173828" xlink:href="#ArialMT-121"/>
      <use x="653.173828" xlink:href="#ArialMT-95"/>
      <use x="708.789062" xlink:href="#ArialMT-112"/>
      <use x="764.404297" xlink:href="#ArialMT-114"/>
      <use x="797.705078" xlink:href="#ArialMT-101"/>
      <use x="853.320312" xlink:href="#ArialMT-100"/>
      <use x="908.935547" xlink:href="#ArialMT-41"/>
     </g>
    </g>
    <g id="LineCollection_2">
     <path d="M 384.842187 447.181875 
L 384.842187 437.181875 
" style="fill:none;stroke:#64b5cd;stroke-width:1.5;"/>
    </g>
    <g id="line2d_24">
     <g>
      <use style="fill:#64b5cd;stroke:#64b5cd;" x="384.842187" xlink:href="#m66311abffb" y="447.181875"/>
     </g>
    </g>
    <g id="line2d_25">
     <g>
      <use style="fill:#64b5cd;stroke:#64b5cd;" x="384.842187" xlink:href="#m66311abffb" y="437.181875"/>
     </g>
    </g>
    <g id="line2d_26"/>
    <g id="line2d_27">
     <g>
      <use style="fill:#4c72b0;stroke:#4c72b0;" x="384.842187" xlink:href="#m7c6575d257" y="442.181875"/>
     </g>
    </g>
    <g id="text_20">
     <!-- predictions + credible intervals -->
     <g style="fill:#262626;" transform="translate(402.842187 445.681875)scale(0.1 -0.1)">
      <defs>
       <path d="M 25.046875 11.578125 
L 25.046875 31.203125 
L 5.5625 31.203125 
L 5.5625 39.40625 
L 25.046875 39.40625 
L 25.046875 58.890625 
L 33.34375 58.890625 
L 33.34375 39.40625 
L 52.828125 39.40625 
L 52.828125 31.203125 
L 33.34375 31.203125 
L 33.34375 11.578125 
z
" id="ArialMT-43"/>
       <path d="M 14.703125 0 
L 6.546875 0 
L 6.546875 71.578125 
L 15.328125 71.578125 
L 15.328125 46.046875 
Q 20.90625 53.03125 29.546875 53.03125 
Q 34.328125 53.03125 38.59375 51.09375 
Q 42.875 49.171875 45.625 45.671875 
Q 48.390625 42.1875 49.953125 37.25 
Q 51.515625 32.328125 51.515625 26.703125 
Q 51.515625 13.375 44.921875 6.09375 
Q 38.328125 -1.171875 29.109375 -1.171875 
Q 19.921875 -1.171875 14.703125 6.5 
z
M 14.59375 26.3125 
Q 14.59375 17 17.140625 12.84375 
Q 21.296875 6.0625 28.375 6.0625 
Q 34.125 6.0625 38.328125 11.0625 
Q 42.53125 16.0625 42.53125 25.984375 
Q 42.53125 36.140625 38.5 40.96875 
Q 34.46875 45.796875 28.765625 45.796875 
Q 23 45.796875 18.796875 40.796875 
Q 14.59375 35.796875 14.59375 26.3125 
z
" id="ArialMT-98"/>
       <path d="M 21 0 
L 1.265625 51.859375 
L 10.546875 51.859375 
L 21.6875 20.796875 
Q 23.484375 15.765625 25 10.359375 
Q 26.171875 14.453125 28.265625 20.21875 
L 39.796875 51.859375 
L 48.828125 51.859375 
L 29.203125 0 
z
" id="ArialMT-118"/>
      </defs>
      <use xlink:href="#ArialMT-112"/>
      <use x="55.615234" xlink:href="#ArialMT-114"/>
      <use x="88.916016" xlink:href="#ArialMT-101"/>
      <use x="144.53125" xlink:href="#ArialMT-100"/>
      <use x="200.146484" xlink:href="#ArialMT-105"/>
      <use x="222.363281" xlink:href="#ArialMT-99"/>
      <use x="272.363281" xlink:href="#ArialMT-116"/>
      <use x="300.146484" xlink:href="#ArialMT-105"/>
      <use x="322.363281" xlink:href="#ArialMT-111"/>
      <use x="377.978516" xlink:href="#ArialMT-110"/>
      <use x="433.59375" xlink:href="#ArialMT-115"/>
      <use x="483.59375" xlink:href="#ArialMT-32"/>
      <use x="511.376953" xlink:href="#ArialMT-43"/>
      <use x="569.775391" xlink:href="#ArialMT-32"/>
      <use x="597.558594" xlink:href="#ArialMT-99"/>
      <use x="647.558594" xlink:href="#ArialMT-114"/>
      <use x="680.859375" xlink:href="#ArialMT-101"/>
      <use x="736.474609" xlink:href="#ArialMT-100"/>
      <use x="792.089844" xlink:href="#ArialMT-105"/>
      <use x="814.306641" xlink:href="#ArialMT-98"/>
      <use x="869.921875" xlink:href="#ArialMT-108"/>
      <use x="892.138672" xlink:href="#ArialMT-101"/>
      <use x="947.753906" xlink:href="#ArialMT-32"/>
      <use x="975.537109" xlink:href="#ArialMT-105"/>
      <use x="997.753906" xlink:href="#ArialMT-110"/>
      <use x="1053.369141" xlink:href="#ArialMT-116"/>
      <use x="1081.152344" xlink:href="#ArialMT-101"/>
      <use x="1136.767578" xlink:href="#ArialMT-114"/>
      <use x="1170.068359" xlink:href="#ArialMT-118"/>
      <use x="1220.068359" xlink:href="#ArialMT-97"/>
      <use x="1275.683594" xlink:href="#ArialMT-108"/>
      <use x="1297.900391" xlink:href="#ArialMT-115"/>
     </g>
    </g>
   </g>
  </g>
 </g>
 <defs>
  <clipPath id="pc9fceaad4b">
   <rect height="434.88" width="502.2" x="44.425" y="21.789375"/>
  </clipPath>
 </defs>
</svg>
