<?xml version="1.0" encoding="utf-8" standalone="no"?>
<!DOCTYPE svg PUBLIC "-//W3C//DTD SVG 1.1//EN"
  "http://www.w3.org/Graphics/SVG/1.1/DTD/svg11.dtd">
<!-- Created with matplotlib (https://matplotlib.org/) -->
<svg height="371.810625pt" version="1.1" viewBox="0 0 408.297575 371.810625" width="408.297575pt" xmlns="http://www.w3.org/2000/svg" xmlns:xlink="http://www.w3.org/1999/xlink">
 <defs>
  <style type="text/css">
*{stroke-linecap:butt;stroke-linejoin:round;}
  </style>
 </defs>
 <g id="figure_1">
  <g id="patch_1">
   <path d="M 0 371.810625 
L 408.297575 371.810625 
L 408.297575 0 
L 0 0 
z
" style="fill:none;"/>
  </g>
  <g id="axes_1">
   <g id="patch_2">
    <path d="M 38.584375 335.32 
L 346.412275 335.32 
L 346.412275 25.2 
L 38.584375 25.2 
z
" style="fill:#e6e6e6;"/>
   </g>
   <g id="matplotlib.axis_1">
    <g id="xtick_1">
     <g id="line2d_1">
      <path clip-path="url(#p689235d49c)" d="M 48.084545 335.32 
L 48.084545 25.2 
" style="fill:none;stroke:#cccccc;stroke-linecap:round;stroke-width:0.8;"/>
     </g>
     <g id="text_1">
      <!-- 10 -->
      <defs>
       <path d="M 37.25 0 
L 28.46875 0 
L 28.46875 56 
Q 25.296875 52.984375 20.140625 49.953125 
Q 14.984375 46.921875 10.890625 45.40625 
L 10.890625 53.90625 
Q 18.265625 57.375 23.78125 62.296875 
Q 29.296875 67.234375 31.59375 71.875 
L 37.25 71.875 
z
" id="ArialMT-49"/>
       <path d="M 4.15625 35.296875 
Q 4.15625 48 6.765625 55.734375 
Q 9.375 63.484375 14.515625 67.671875 
Q 19.671875 71.875 27.484375 71.875 
Q 33.25 71.875 37.59375 69.546875 
Q 41.9375 67.234375 44.765625 62.859375 
Q 47.609375 58.5 49.21875 52.21875 
Q 50.828125 45.953125 50.828125 35.296875 
Q 50.828125 22.703125 48.234375 14.96875 
Q 45.65625 7.234375 40.5 3 
Q 35.359375 -1.21875 27.484375 -1.21875 
Q 17.140625 -1.21875 11.234375 6.203125 
Q 4.15625 15.140625 4.15625 35.296875 
z
M 13.1875 35.296875 
Q 13.1875 17.671875 17.3125 11.828125 
Q 21.4375 6 27.484375 6 
Q 33.546875 6 37.671875 11.859375 
Q 41.796875 17.71875 41.796875 35.296875 
Q 41.796875 52.984375 37.671875 58.78125 
Q 33.546875 64.59375 27.390625 64.59375 
Q 21.34375 64.59375 17.71875 59.46875 
Q 13.1875 52.9375 13.1875 35.296875 
z
" id="ArialMT-48"/>
      </defs>
      <g style="fill:#262626;" transform="translate(42.523608 349.477813)scale(0.1 -0.1)">
       <use xlink:href="#ArialMT-49"/>
       <use x="55.615234" xlink:href="#ArialMT-48"/>
      </g>
     </g>
    </g>
    <g id="xtick_2">
     <g id="line2d_2">
      <path clip-path="url(#p689235d49c)" d="M 85.440132 335.32 
L 85.440132 25.2 
" style="fill:none;stroke:#cccccc;stroke-linecap:round;stroke-width:0.8;"/>
     </g>
     <g id="text_2">
      <!-- 20 -->
      <defs>
       <path d="M 50.34375 8.453125 
L 50.34375 0 
L 3.03125 0 
Q 2.9375 3.171875 4.046875 6.109375 
Q 5.859375 10.9375 9.828125 15.625 
Q 13.8125 20.3125 21.34375 26.46875 
Q 33.015625 36.03125 37.109375 41.625 
Q 41.21875 47.21875 41.21875 52.203125 
Q 41.21875 57.421875 37.46875 61 
Q 33.734375 64.59375 27.734375 64.59375 
Q 21.390625 64.59375 17.578125 60.78125 
Q 13.765625 56.984375 13.71875 50.25 
L 4.6875 51.171875 
Q 5.609375 61.28125 11.65625 66.578125 
Q 17.71875 71.875 27.9375 71.875 
Q 38.234375 71.875 44.234375 66.15625 
Q 50.25 60.453125 50.25 52 
Q 50.25 47.703125 48.484375 43.546875 
Q 46.734375 39.40625 42.65625 34.8125 
Q 38.578125 30.21875 29.109375 22.21875 
Q 21.1875 15.578125 18.9375 13.203125 
Q 16.703125 10.84375 15.234375 8.453125 
z
" id="ArialMT-50"/>
      </defs>
      <g style="fill:#262626;" transform="translate(79.879195 349.477813)scale(0.1 -0.1)">
       <use xlink:href="#ArialMT-50"/>
       <use x="55.615234" xlink:href="#ArialMT-48"/>
      </g>
     </g>
    </g>
    <g id="xtick_3">
     <g id="line2d_3">
      <path clip-path="url(#p689235d49c)" d="M 122.795719 335.32 
L 122.795719 25.2 
" style="fill:none;stroke:#cccccc;stroke-linecap:round;stroke-width:0.8;"/>
     </g>
     <g id="text_3">
      <!-- 30 -->
      <defs>
       <path d="M 4.203125 18.890625 
L 12.984375 20.0625 
Q 14.5 12.59375 18.140625 9.296875 
Q 21.78125 6 27 6 
Q 33.203125 6 37.46875 10.296875 
Q 41.75 14.59375 41.75 20.953125 
Q 41.75 27 37.796875 30.921875 
Q 33.84375 34.859375 27.734375 34.859375 
Q 25.25 34.859375 21.53125 33.890625 
L 22.515625 41.609375 
Q 23.390625 41.5 23.921875 41.5 
Q 29.546875 41.5 34.03125 44.421875 
Q 38.53125 47.359375 38.53125 53.46875 
Q 38.53125 58.296875 35.25 61.46875 
Q 31.984375 64.65625 26.8125 64.65625 
Q 21.6875 64.65625 18.265625 61.421875 
Q 14.84375 58.203125 13.875 51.765625 
L 5.078125 53.328125 
Q 6.6875 62.15625 12.390625 67.015625 
Q 18.109375 71.875 26.609375 71.875 
Q 32.46875 71.875 37.390625 69.359375 
Q 42.328125 66.84375 44.9375 62.5 
Q 47.5625 58.15625 47.5625 53.265625 
Q 47.5625 48.640625 45.0625 44.828125 
Q 42.578125 41.015625 37.703125 38.765625 
Q 44.046875 37.3125 47.5625 32.6875 
Q 51.078125 28.078125 51.078125 21.140625 
Q 51.078125 11.765625 44.234375 5.25 
Q 37.40625 -1.265625 26.953125 -1.265625 
Q 17.53125 -1.265625 11.296875 4.34375 
Q 5.078125 9.96875 4.203125 18.890625 
z
" id="ArialMT-51"/>
      </defs>
      <g style="fill:#262626;" transform="translate(117.234782 349.477813)scale(0.1 -0.1)">
       <use xlink:href="#ArialMT-51"/>
       <use x="55.615234" xlink:href="#ArialMT-48"/>
      </g>
     </g>
    </g>
    <g id="xtick_4">
     <g id="line2d_4">
      <path clip-path="url(#p689235d49c)" d="M 160.151306 335.32 
L 160.151306 25.2 
" style="fill:none;stroke:#cccccc;stroke-linecap:round;stroke-width:0.8;"/>
     </g>
     <g id="text_4">
      <!-- 40 -->
      <defs>
       <path d="M 32.328125 0 
L 32.328125 17.140625 
L 1.265625 17.140625 
L 1.265625 25.203125 
L 33.9375 71.578125 
L 41.109375 71.578125 
L 41.109375 25.203125 
L 50.78125 25.203125 
L 50.78125 17.140625 
L 41.109375 17.140625 
L 41.109375 0 
z
M 32.328125 25.203125 
L 32.328125 57.46875 
L 9.90625 25.203125 
z
" id="ArialMT-52"/>
      </defs>
      <g style="fill:#262626;" transform="translate(154.590369 349.477813)scale(0.1 -0.1)">
       <use xlink:href="#ArialMT-52"/>
       <use x="55.615234" xlink:href="#ArialMT-48"/>
      </g>
     </g>
    </g>
    <g id="xtick_5">
     <g id="line2d_5">
      <path clip-path="url(#p689235d49c)" d="M 197.506893 335.32 
L 197.506893 25.2 
" style="fill:none;stroke:#cccccc;stroke-linecap:round;stroke-width:0.8;"/>
     </g>
     <g id="text_5">
      <!-- 50 -->
      <defs>
       <path d="M 4.15625 18.75 
L 13.375 19.53125 
Q 14.40625 12.796875 18.140625 9.390625 
Q 21.875 6 27.15625 6 
Q 33.5 6 37.890625 10.78125 
Q 42.28125 15.578125 42.28125 23.484375 
Q 42.28125 31 38.0625 35.34375 
Q 33.84375 39.703125 27 39.703125 
Q 22.75 39.703125 19.328125 37.765625 
Q 15.921875 35.84375 13.96875 32.765625 
L 5.71875 33.84375 
L 12.640625 70.609375 
L 48.25 70.609375 
L 48.25 62.203125 
L 19.671875 62.203125 
L 15.828125 42.96875 
Q 22.265625 47.46875 29.34375 47.46875 
Q 38.71875 47.46875 45.15625 40.96875 
Q 51.609375 34.46875 51.609375 24.265625 
Q 51.609375 14.546875 45.953125 7.46875 
Q 39.0625 -1.21875 27.15625 -1.21875 
Q 17.390625 -1.21875 11.203125 4.25 
Q 5.03125 9.71875 4.15625 18.75 
z
" id="ArialMT-53"/>
      </defs>
      <g style="fill:#262626;" transform="translate(191.945956 349.477813)scale(0.1 -0.1)">
       <use xlink:href="#ArialMT-53"/>
       <use x="55.615234" xlink:href="#ArialMT-48"/>
      </g>
     </g>
    </g>
    <g id="xtick_6">
     <g id="line2d_6">
      <path clip-path="url(#p689235d49c)" d="M 234.86248 335.32 
L 234.86248 25.2 
" style="fill:none;stroke:#cccccc;stroke-linecap:round;stroke-width:0.8;"/>
     </g>
     <g id="text_6">
      <!-- 60 -->
      <defs>
       <path d="M 49.75 54.046875 
L 41.015625 53.375 
Q 39.84375 58.546875 37.703125 60.890625 
Q 34.125 64.65625 28.90625 64.65625 
Q 24.703125 64.65625 21.53125 62.3125 
Q 17.390625 59.28125 14.984375 53.46875 
Q 12.59375 47.65625 12.5 36.921875 
Q 15.671875 41.75 20.265625 44.09375 
Q 24.859375 46.4375 29.890625 46.4375 
Q 38.671875 46.4375 44.84375 39.96875 
Q 51.03125 33.5 51.03125 23.25 
Q 51.03125 16.5 48.125 10.71875 
Q 45.21875 4.9375 40.140625 1.859375 
Q 35.0625 -1.21875 28.609375 -1.21875 
Q 17.625 -1.21875 10.6875 6.859375 
Q 3.765625 14.9375 3.765625 33.5 
Q 3.765625 54.25 11.421875 63.671875 
Q 18.109375 71.875 29.4375 71.875 
Q 37.890625 71.875 43.28125 67.140625 
Q 48.6875 62.40625 49.75 54.046875 
z
M 13.875 23.1875 
Q 13.875 18.65625 15.796875 14.5 
Q 17.71875 10.359375 21.1875 8.171875 
Q 24.65625 6 28.46875 6 
Q 34.03125 6 38.03125 10.484375 
Q 42.046875 14.984375 42.046875 22.703125 
Q 42.046875 30.125 38.078125 34.390625 
Q 34.125 38.671875 28.125 38.671875 
Q 22.171875 38.671875 18.015625 34.390625 
Q 13.875 30.125 13.875 23.1875 
z
" id="ArialMT-54"/>
      </defs>
      <g style="fill:#262626;" transform="translate(229.301543 349.477813)scale(0.1 -0.1)">
       <use xlink:href="#ArialMT-54"/>
       <use x="55.615234" xlink:href="#ArialMT-48"/>
      </g>
     </g>
    </g>
    <g id="xtick_7">
     <g id="line2d_7">
      <path clip-path="url(#p689235d49c)" d="M 272.218067 335.32 
L 272.218067 25.2 
" style="fill:none;stroke:#cccccc;stroke-linecap:round;stroke-width:0.8;"/>
     </g>
     <g id="text_7">
      <!-- 70 -->
      <defs>
       <path d="M 4.734375 62.203125 
L 4.734375 70.65625 
L 51.078125 70.65625 
L 51.078125 63.8125 
Q 44.234375 56.546875 37.515625 44.484375 
Q 30.8125 32.421875 27.15625 19.671875 
Q 24.515625 10.6875 23.78125 0 
L 14.75 0 
Q 14.890625 8.453125 18.0625 20.40625 
Q 21.234375 32.375 27.171875 43.484375 
Q 33.109375 54.59375 39.796875 62.203125 
z
" id="ArialMT-55"/>
      </defs>
      <g style="fill:#262626;" transform="translate(266.65713 349.477813)scale(0.1 -0.1)">
       <use xlink:href="#ArialMT-55"/>
       <use x="55.615234" xlink:href="#ArialMT-48"/>
      </g>
     </g>
    </g>
    <g id="xtick_8">
     <g id="line2d_8">
      <path clip-path="url(#p689235d49c)" d="M 309.573654 335.32 
L 309.573654 25.2 
" style="fill:none;stroke:#cccccc;stroke-linecap:round;stroke-width:0.8;"/>
     </g>
     <g id="text_8">
      <!-- 80 -->
      <defs>
       <path d="M 17.671875 38.8125 
Q 12.203125 40.828125 9.5625 44.53125 
Q 6.9375 48.25 6.9375 53.421875 
Q 6.9375 61.234375 12.546875 66.546875 
Q 18.171875 71.875 27.484375 71.875 
Q 36.859375 71.875 42.578125 66.421875 
Q 48.296875 60.984375 48.296875 53.171875 
Q 48.296875 48.1875 45.671875 44.5 
Q 43.0625 40.828125 37.75 38.8125 
Q 44.34375 36.671875 47.78125 31.875 
Q 51.21875 27.09375 51.21875 20.453125 
Q 51.21875 11.28125 44.71875 5.03125 
Q 38.234375 -1.21875 27.640625 -1.21875 
Q 17.046875 -1.21875 10.546875 5.046875 
Q 4.046875 11.328125 4.046875 20.703125 
Q 4.046875 27.6875 7.59375 32.390625 
Q 11.140625 37.109375 17.671875 38.8125 
z
M 15.921875 53.71875 
Q 15.921875 48.640625 19.1875 45.40625 
Q 22.46875 42.1875 27.6875 42.1875 
Q 32.765625 42.1875 36.015625 45.375 
Q 39.265625 48.578125 39.265625 53.21875 
Q 39.265625 58.0625 35.90625 61.359375 
Q 32.5625 64.65625 27.59375 64.65625 
Q 22.5625 64.65625 19.234375 61.421875 
Q 15.921875 58.203125 15.921875 53.71875 
z
M 13.09375 20.65625 
Q 13.09375 16.890625 14.875 13.375 
Q 16.65625 9.859375 20.171875 7.921875 
Q 23.6875 6 27.734375 6 
Q 34.03125 6 38.125 10.046875 
Q 42.234375 14.109375 42.234375 20.359375 
Q 42.234375 26.703125 38.015625 30.859375 
Q 33.796875 35.015625 27.4375 35.015625 
Q 21.234375 35.015625 17.15625 30.90625 
Q 13.09375 26.8125 13.09375 20.65625 
z
" id="ArialMT-56"/>
      </defs>
      <g style="fill:#262626;" transform="translate(304.012717 349.477813)scale(0.1 -0.1)">
       <use xlink:href="#ArialMT-56"/>
       <use x="55.615234" xlink:href="#ArialMT-48"/>
      </g>
     </g>
    </g>
    <g id="text_9">
     <!-- y_true -->
     <defs>
      <path d="M 6.203125 -19.96875 
L 5.21875 -11.71875 
Q 8.109375 -12.5 10.25 -12.5 
Q 13.1875 -12.5 14.9375 -11.515625 
Q 16.703125 -10.546875 17.828125 -8.796875 
Q 18.65625 -7.46875 20.515625 -2.25 
Q 20.75 -1.515625 21.296875 -0.09375 
L 1.609375 51.859375 
L 11.078125 51.859375 
L 21.875 21.828125 
Q 23.96875 16.109375 25.640625 9.8125 
Q 27.15625 15.875 29.25 21.625 
L 40.328125 51.859375 
L 49.125 51.859375 
L 29.390625 -0.875 
Q 26.21875 -9.421875 24.46875 -12.640625 
Q 22.125 -17 19.09375 -19.015625 
Q 16.0625 -21.046875 11.859375 -21.046875 
Q 9.328125 -21.046875 6.203125 -19.96875 
z
" id="ArialMT-121"/>
      <path d="M -1.515625 -19.875 
L -1.515625 -13.53125 
L 56.734375 -13.53125 
L 56.734375 -19.875 
z
" id="ArialMT-95"/>
      <path d="M 25.78125 7.859375 
L 27.046875 0.09375 
Q 23.34375 -0.6875 20.40625 -0.6875 
Q 15.625 -0.6875 12.984375 0.828125 
Q 10.359375 2.34375 9.28125 4.8125 
Q 8.203125 7.28125 8.203125 15.1875 
L 8.203125 45.015625 
L 1.765625 45.015625 
L 1.765625 51.859375 
L 8.203125 51.859375 
L 8.203125 64.703125 
L 16.9375 69.96875 
L 16.9375 51.859375 
L 25.78125 51.859375 
L 25.78125 45.015625 
L 16.9375 45.015625 
L 16.9375 14.703125 
Q 16.9375 10.9375 17.40625 9.859375 
Q 17.875 8.796875 18.921875 8.15625 
Q 19.96875 7.515625 21.921875 7.515625 
Q 23.390625 7.515625 25.78125 7.859375 
z
" id="ArialMT-116"/>
      <path d="M 6.5 0 
L 6.5 51.859375 
L 14.40625 51.859375 
L 14.40625 44 
Q 17.4375 49.515625 20 51.265625 
Q 22.5625 53.03125 25.640625 53.03125 
Q 30.078125 53.03125 34.671875 50.203125 
L 31.640625 42.046875 
Q 28.421875 43.953125 25.203125 43.953125 
Q 22.3125 43.953125 20.015625 42.21875 
Q 17.71875 40.484375 16.75 37.40625 
Q 15.28125 32.71875 15.28125 27.15625 
L 15.28125 0 
z
" id="ArialMT-114"/>
      <path d="M 40.578125 0 
L 40.578125 7.625 
Q 34.515625 -1.171875 24.125 -1.171875 
Q 19.53125 -1.171875 15.546875 0.578125 
Q 11.578125 2.34375 9.640625 5 
Q 7.71875 7.671875 6.9375 11.53125 
Q 6.390625 14.109375 6.390625 19.734375 
L 6.390625 51.859375 
L 15.1875 51.859375 
L 15.1875 23.09375 
Q 15.1875 16.21875 15.71875 13.8125 
Q 16.546875 10.359375 19.234375 8.375 
Q 21.921875 6.390625 25.875 6.390625 
Q 29.828125 6.390625 33.296875 8.421875 
Q 36.765625 10.453125 38.203125 13.9375 
Q 39.65625 17.4375 39.65625 24.078125 
L 39.65625 51.859375 
L 48.4375 51.859375 
L 48.4375 0 
z
" id="ArialMT-117"/>
      <path d="M 42.09375 16.703125 
L 51.171875 15.578125 
Q 49.03125 7.625 43.21875 3.21875 
Q 37.40625 -1.171875 28.375 -1.171875 
Q 17 -1.171875 10.328125 5.828125 
Q 3.65625 12.84375 3.65625 25.484375 
Q 3.65625 38.578125 10.390625 45.796875 
Q 17.140625 53.03125 27.875 53.03125 
Q 38.28125 53.03125 44.875 45.953125 
Q 51.46875 38.875 51.46875 26.03125 
Q 51.46875 25.25 51.421875 23.6875 
L 12.75 23.6875 
Q 13.234375 15.140625 17.578125 10.59375 
Q 21.921875 6.0625 28.421875 6.0625 
Q 33.25 6.0625 36.671875 8.59375 
Q 40.09375 11.140625 42.09375 16.703125 
z
M 13.234375 30.90625 
L 42.1875 30.90625 
Q 41.609375 37.453125 38.875 40.71875 
Q 34.671875 45.796875 27.984375 45.796875 
Q 21.921875 45.796875 17.796875 41.75 
Q 13.671875 37.703125 13.234375 30.90625 
z
" id="ArialMT-101"/>
     </defs>
     <g style="fill:#262626;" transform="translate(178.603012 362.505938)scale(0.1 -0.1)">
      <use xlink:href="#ArialMT-121"/>
      <use x="50" xlink:href="#ArialMT-95"/>
      <use x="105.615234" xlink:href="#ArialMT-116"/>
      <use x="133.398438" xlink:href="#ArialMT-114"/>
      <use x="166.699219" xlink:href="#ArialMT-117"/>
      <use x="222.314453" xlink:href="#ArialMT-101"/>
     </g>
    </g>
   </g>
   <g id="matplotlib.axis_2">
    <g id="ytick_1">
     <g id="line2d_9">
      <path clip-path="url(#p689235d49c)" d="M 38.584375 317.407718 
L 346.412275 317.407718 
" style="fill:none;stroke:#cccccc;stroke-linecap:round;stroke-width:0.8;"/>
     </g>
     <g id="text_10">
      <!-- 10 -->
      <g style="fill:#262626;" transform="translate(20.4625 320.986625)scale(0.1 -0.1)">
       <use xlink:href="#ArialMT-49"/>
       <use x="55.615234" xlink:href="#ArialMT-48"/>
      </g>
     </g>
    </g>
    <g id="ytick_2">
     <g id="line2d_10">
      <path clip-path="url(#p689235d49c)" d="M 38.584375 282.892824 
L 346.412275 282.892824 
" style="fill:none;stroke:#cccccc;stroke-linecap:round;stroke-width:0.8;"/>
     </g>
     <g id="text_11">
      <!-- 20 -->
      <g style="fill:#262626;" transform="translate(20.4625 286.47173)scale(0.1 -0.1)">
       <use xlink:href="#ArialMT-50"/>
       <use x="55.615234" xlink:href="#ArialMT-48"/>
      </g>
     </g>
    </g>
    <g id="ytick_3">
     <g id="line2d_11">
      <path clip-path="url(#p689235d49c)" d="M 38.584375 248.377929 
L 346.412275 248.377929 
" style="fill:none;stroke:#cccccc;stroke-linecap:round;stroke-width:0.8;"/>
     </g>
     <g id="text_12">
      <!-- 30 -->
      <g style="fill:#262626;" transform="translate(20.4625 251.956835)scale(0.1 -0.1)">
       <use xlink:href="#ArialMT-51"/>
       <use x="55.615234" xlink:href="#ArialMT-48"/>
      </g>
     </g>
    </g>
    <g id="ytick_4">
     <g id="line2d_12">
      <path clip-path="url(#p689235d49c)" d="M 38.584375 213.863034 
L 346.412275 213.863034 
" style="fill:none;stroke:#cccccc;stroke-linecap:round;stroke-width:0.8;"/>
     </g>
     <g id="text_13">
      <!-- 40 -->
      <g style="fill:#262626;" transform="translate(20.4625 217.44194)scale(0.1 -0.1)">
       <use xlink:href="#ArialMT-52"/>
       <use x="55.615234" xlink:href="#ArialMT-48"/>
      </g>
     </g>
    </g>
    <g id="ytick_5">
     <g id="line2d_13">
      <path clip-path="url(#p689235d49c)" d="M 38.584375 179.348139 
L 346.412275 179.348139 
" style="fill:none;stroke:#cccccc;stroke-linecap:round;stroke-width:0.8;"/>
     </g>
     <g id="text_14">
      <!-- 50 -->
      <g style="fill:#262626;" transform="translate(20.4625 182.927046)scale(0.1 -0.1)">
       <use xlink:href="#ArialMT-53"/>
       <use x="55.615234" xlink:href="#ArialMT-48"/>
      </g>
     </g>
    </g>
    <g id="ytick_6">
     <g id="line2d_14">
      <path clip-path="url(#p689235d49c)" d="M 38.584375 144.833245 
L 346.412275 144.833245 
" style="fill:none;stroke:#cccccc;stroke-linecap:round;stroke-width:0.8;"/>
     </g>
     <g id="text_15">
      <!-- 60 -->
      <g style="fill:#262626;" transform="translate(20.4625 148.412151)scale(0.1 -0.1)">
       <use xlink:href="#ArialMT-54"/>
       <use x="55.615234" xlink:href="#ArialMT-48"/>
      </g>
     </g>
    </g>
    <g id="ytick_7">
     <g id="line2d_15">
      <path clip-path="url(#p689235d49c)" d="M 38.584375 110.31835 
L 346.412275 110.31835 
" style="fill:none;stroke:#cccccc;stroke-linecap:round;stroke-width:0.8;"/>
     </g>
     <g id="text_16">
      <!-- 70 -->
      <g style="fill:#262626;" transform="translate(20.4625 113.897256)scale(0.1 -0.1)">
       <use xlink:href="#ArialMT-55"/>
       <use x="55.615234" xlink:href="#ArialMT-48"/>
      </g>
     </g>
    </g>
    <g id="ytick_8">
     <g id="line2d_16">
      <path clip-path="url(#p689235d49c)" d="M 38.584375 75.803455 
L 346.412275 75.803455 
" style="fill:none;stroke:#cccccc;stroke-linecap:round;stroke-width:0.8;"/>
     </g>
     <g id="text_17">
      <!-- 80 -->
      <g style="fill:#262626;" transform="translate(20.4625 79.382361)scale(0.1 -0.1)">
       <use xlink:href="#ArialMT-56"/>
       <use x="55.615234" xlink:href="#ArialMT-48"/>
      </g>
     </g>
    </g>
    <g id="ytick_9">
     <g id="line2d_17">
      <path clip-path="url(#p689235d49c)" d="M 38.584375 41.28856 
L 346.412275 41.28856 
" style="fill:none;stroke:#cccccc;stroke-linecap:round;stroke-width:0.8;"/>
     </g>
     <g id="text_18">
      <!-- 90 -->
      <defs>
       <path d="M 5.46875 16.546875 
L 13.921875 17.328125 
Q 14.984375 11.375 18.015625 8.6875 
Q 21.046875 6 25.78125 6 
Q 29.828125 6 32.875 7.859375 
Q 35.9375 9.71875 37.890625 12.8125 
Q 39.84375 15.921875 41.15625 21.1875 
Q 42.484375 26.46875 42.484375 31.9375 
Q 42.484375 32.515625 42.4375 33.6875 
Q 39.796875 29.5 35.234375 26.875 
Q 30.671875 24.265625 25.34375 24.265625 
Q 16.453125 24.265625 10.296875 30.703125 
Q 4.15625 37.15625 4.15625 47.703125 
Q 4.15625 58.59375 10.578125 65.234375 
Q 17 71.875 26.65625 71.875 
Q 33.640625 71.875 39.421875 68.109375 
Q 45.21875 64.359375 48.21875 57.390625 
Q 51.21875 50.4375 51.21875 37.25 
Q 51.21875 23.53125 48.234375 15.40625 
Q 45.265625 7.28125 39.375 3.03125 
Q 33.5 -1.21875 25.59375 -1.21875 
Q 17.1875 -1.21875 11.859375 3.4375 
Q 6.546875 8.109375 5.46875 16.546875 
z
M 41.453125 48.140625 
Q 41.453125 55.71875 37.421875 60.15625 
Q 33.40625 64.59375 27.734375 64.59375 
Q 21.875 64.59375 17.53125 59.8125 
Q 13.1875 55.03125 13.1875 47.40625 
Q 13.1875 40.578125 17.3125 36.296875 
Q 21.4375 32.03125 27.484375 32.03125 
Q 33.59375 32.03125 37.515625 36.296875 
Q 41.453125 40.578125 41.453125 48.140625 
z
" id="ArialMT-57"/>
      </defs>
      <g style="fill:#262626;" transform="translate(20.4625 44.867467)scale(0.1 -0.1)">
       <use xlink:href="#ArialMT-57"/>
       <use x="55.615234" xlink:href="#ArialMT-48"/>
      </g>
     </g>
    </g>
    <g id="text_19">
     <!-- y_pred -->
     <defs>
      <path d="M 6.59375 -19.875 
L 6.59375 51.859375 
L 14.59375 51.859375 
L 14.59375 45.125 
Q 17.4375 49.078125 21 51.046875 
Q 24.5625 53.03125 29.640625 53.03125 
Q 36.28125 53.03125 41.359375 49.609375 
Q 46.4375 46.1875 49.015625 39.953125 
Q 51.609375 33.734375 51.609375 26.3125 
Q 51.609375 18.359375 48.75 11.984375 
Q 45.90625 5.609375 40.453125 2.21875 
Q 35.015625 -1.171875 29 -1.171875 
Q 24.609375 -1.171875 21.109375 0.6875 
Q 17.625 2.546875 15.375 5.375 
L 15.375 -19.875 
z
M 14.546875 25.640625 
Q 14.546875 15.625 18.59375 10.84375 
Q 22.65625 6.0625 28.421875 6.0625 
Q 34.28125 6.0625 38.453125 11.015625 
Q 42.625 15.96875 42.625 26.375 
Q 42.625 36.28125 38.546875 41.203125 
Q 34.46875 46.140625 28.8125 46.140625 
Q 23.1875 46.140625 18.859375 40.890625 
Q 14.546875 35.640625 14.546875 25.640625 
z
" id="ArialMT-112"/>
      <path d="M 40.234375 0 
L 40.234375 6.546875 
Q 35.296875 -1.171875 25.734375 -1.171875 
Q 19.53125 -1.171875 14.328125 2.25 
Q 9.125 5.671875 6.265625 11.796875 
Q 3.421875 17.921875 3.421875 25.875 
Q 3.421875 33.640625 6 39.96875 
Q 8.59375 46.296875 13.765625 49.65625 
Q 18.953125 53.03125 25.34375 53.03125 
Q 30.03125 53.03125 33.6875 51.046875 
Q 37.359375 49.078125 39.65625 45.90625 
L 39.65625 71.578125 
L 48.390625 71.578125 
L 48.390625 0 
z
M 12.453125 25.875 
Q 12.453125 15.921875 16.640625 10.984375 
Q 20.84375 6.0625 26.5625 6.0625 
Q 32.328125 6.0625 36.34375 10.765625 
Q 40.375 15.484375 40.375 25.140625 
Q 40.375 35.796875 36.265625 40.765625 
Q 32.171875 45.75 26.171875 45.75 
Q 20.3125 45.75 16.375 40.96875 
Q 12.453125 36.1875 12.453125 25.875 
z
" id="ArialMT-100"/>
     </defs>
     <g style="fill:#262626;" transform="translate(14.357813 195.546719)rotate(-90)scale(0.1 -0.1)">
      <use xlink:href="#ArialMT-121"/>
      <use x="50" xlink:href="#ArialMT-95"/>
      <use x="105.615234" xlink:href="#ArialMT-112"/>
      <use x="161.230469" xlink:href="#ArialMT-114"/>
      <use x="194.53125" xlink:href="#ArialMT-101"/>
      <use x="250.146484" xlink:href="#ArialMT-100"/>
     </g>
    </g>
   </g>
   <g id="PathCollection_1">
    <defs>
     <path d="M 0 3 
C 0.795609 3 1.55874 2.683901 2.12132 2.12132 
C 2.683901 1.55874 3 0.795609 3 0 
C 3 -0.795609 2.683901 -1.55874 2.12132 -2.12132 
C 1.55874 -2.683901 0.795609 -3 0 -3 
C -0.795609 -3 -1.55874 -2.683901 -2.12132 -2.12132 
C -2.683901 -1.55874 -3 -0.795609 -3 0 
C -3 0.795609 -2.683901 1.55874 -2.12132 2.12132 
C -1.55874 2.683901 -0.795609 3 0 3 
z
" id="ma310543708" style="stroke:#4c72b0;stroke-opacity:0.8;"/>
    </defs>
    <g clip-path="url(#p689235d49c)">
     <use style="fill:#4c72b0;fill-opacity:0.8;stroke:#4c72b0;stroke-opacity:0.8;" x="82.785812" xlink:href="#ma310543708" y="296.198142"/>
     <use style="fill:#4c72b0;fill-opacity:0.8;stroke:#4c72b0;stroke-opacity:0.8;" x="188.989828" xlink:href="#ma310543708" y="207.961137"/>
     <use style="fill:#4c72b0;fill-opacity:0.8;stroke:#4c72b0;stroke-opacity:0.8;" x="103.970585" xlink:href="#ma310543708" y="246.227571"/>
     <use style="fill:#4c72b0;fill-opacity:0.8;stroke:#4c72b0;stroke-opacity:0.8;" x="136.119735" xlink:href="#ma310543708" y="231.108882"/>
     <use style="fill:#4c72b0;fill-opacity:0.8;stroke:#4c72b0;stroke-opacity:0.8;" x="146.449048" xlink:href="#ma310543708" y="218.829525"/>
     <use style="fill:#4c72b0;fill-opacity:0.8;stroke:#4c72b0;stroke-opacity:0.8;" x="153.863393" xlink:href="#ma310543708" y="208.625805"/>
     <use style="fill:#4c72b0;fill-opacity:0.8;stroke:#4c72b0;stroke-opacity:0.8;" x="141.964245" xlink:href="#ma310543708" y="256.990094"/>
     <use style="fill:#4c72b0;fill-opacity:0.8;stroke:#4c72b0;stroke-opacity:0.8;" x="244.701392" xlink:href="#ma310543708" y="145.936781"/>
     <use style="fill:#4c72b0;fill-opacity:0.8;stroke:#4c72b0;stroke-opacity:0.8;" x="164.864741" xlink:href="#ma310543708" y="187.357939"/>
     <use style="fill:#4c72b0;fill-opacity:0.8;stroke:#4c72b0;stroke-opacity:0.8;" x="210.245302" xlink:href="#ma310543708" y="182.890384"/>
     <use style="fill:#4c72b0;fill-opacity:0.8;stroke:#4c72b0;stroke-opacity:0.8;" x="164.561076" xlink:href="#ma310543708" y="241.298393"/>
     <use style="fill:#4c72b0;fill-opacity:0.8;stroke:#4c72b0;stroke-opacity:0.8;" x="288.354209" xlink:href="#ma310543708" y="116.922244"/>
     <use style="fill:#4c72b0;fill-opacity:0.8;stroke:#4c72b0;stroke-opacity:0.8;" x="171.673877" xlink:href="#ma310543708" y="176.265057"/>
     <use style="fill:#4c72b0;fill-opacity:0.8;stroke:#4c72b0;stroke-opacity:0.8;" x="191.171456" xlink:href="#ma310543708" y="176.115614"/>
     <use style="fill:#4c72b0;fill-opacity:0.8;stroke:#4c72b0;stroke-opacity:0.8;" x="223.076973" xlink:href="#ma310543708" y="176.891913"/>
     <use style="fill:#4c72b0;fill-opacity:0.8;stroke:#4c72b0;stroke-opacity:0.8;" x="148.385881" xlink:href="#ma310543708" y="178.524784"/>
     <use style="fill:#4c72b0;fill-opacity:0.8;stroke:#4c72b0;stroke-opacity:0.8;" x="203.50303" xlink:href="#ma310543708" y="180.93912"/>
     <use style="fill:#4c72b0;fill-opacity:0.8;stroke:#4c72b0;stroke-opacity:0.8;" x="206.448808" xlink:href="#ma310543708" y="184.053731"/>
     <use style="fill:#4c72b0;fill-opacity:0.8;stroke:#4c72b0;stroke-opacity:0.8;" x="170.799184" xlink:href="#ma310543708" y="187.781589"/>
     <use style="fill:#4c72b0;fill-opacity:0.8;stroke:#4c72b0;stroke-opacity:0.8;" x="182.594208" xlink:href="#ma310543708" y="192.030376"/>
     <use style="fill:#4c72b0;fill-opacity:0.8;stroke:#4c72b0;stroke-opacity:0.8;" x="118.323616" xlink:href="#ma310543708" y="196.703264"/>
     <use style="fill:#4c72b0;fill-opacity:0.8;stroke:#4c72b0;stroke-opacity:0.8;" x="100.688311" xlink:href="#ma310543708" y="248.100485"/>
     <use style="fill:#4c72b0;fill-opacity:0.8;stroke:#4c72b0;stroke-opacity:0.8;" x="163.573946" xlink:href="#ma310543708" y="206.917397"/>
     <use style="fill:#4c72b0;fill-opacity:0.8;stroke:#4c72b0;stroke-opacity:0.8;" x="139.472393" xlink:href="#ma310543708" y="212.251744"/>
     <use style="fill:#4c72b0;fill-opacity:0.8;stroke:#4c72b0;stroke-opacity:0.8;" x="187.748234" xlink:href="#ma310543708" y="217.598867"/>
     <use style="fill:#4c72b0;fill-opacity:0.8;stroke:#4c72b0;stroke-opacity:0.8;" x="125.126945" xlink:href="#ma310543708" y="222.856043"/>
     <use style="fill:#4c72b0;fill-opacity:0.8;stroke:#4c72b0;stroke-opacity:0.8;" x="138.404574" xlink:href="#ma310543708" y="227.923196"/>
     <use style="fill:#4c72b0;fill-opacity:0.8;stroke:#4c72b0;stroke-opacity:0.8;" x="144.154587" xlink:href="#ma310543708" y="232.704209"/>
     <use style="fill:#4c72b0;fill-opacity:0.8;stroke:#4c72b0;stroke-opacity:0.8;" x="164.119935" xlink:href="#ma310543708" y="237.108194"/>
     <use style="fill:#4c72b0;fill-opacity:0.8;stroke:#4c72b0;stroke-opacity:0.8;" x="38.584375" xlink:href="#ma310543708" y="299.426891"/>
     <use style="fill:#4c72b0;fill-opacity:0.8;stroke:#4c72b0;stroke-opacity:0.8;" x="151.437718" xlink:href="#ma310543708" y="244.454851"/>
     <use style="fill:#4c72b0;fill-opacity:0.8;stroke:#4c72b0;stroke-opacity:0.8;" x="127.078163" xlink:href="#ma310543708" y="247.25238"/>
     <use style="fill:#4c72b0;fill-opacity:0.8;stroke:#4c72b0;stroke-opacity:0.8;" x="41.434475" xlink:href="#ma310543708" y="305.366587"/>
     <use style="fill:#4c72b0;fill-opacity:0.8;stroke:#4c72b0;stroke-opacity:0.8;" x="199.079203" xlink:href="#ma310543708" y="193.027041"/>
     <use style="fill:#4c72b0;fill-opacity:0.8;stroke:#4c72b0;stroke-opacity:0.8;" x="196.06907" xlink:href="#ma310543708" y="191.538739"/>
     <use style="fill:#4c72b0;fill-opacity:0.8;stroke:#4c72b0;stroke-opacity:0.8;" x="111.775261" xlink:href="#ma310543708" y="251.359946"/>
     <use style="fill:#4c72b0;fill-opacity:0.8;stroke:#4c72b0;stroke-opacity:0.8;" x="125.324426" xlink:href="#ma310543708" y="250.458385"/>
     <use style="fill:#4c72b0;fill-opacity:0.8;stroke:#4c72b0;stroke-opacity:0.8;" x="58.567102" xlink:href="#ma310543708" y="300.546598"/>
     <use style="fill:#4c72b0;fill-opacity:0.8;stroke:#4c72b0;stroke-opacity:0.8;" x="130.675196" xlink:href="#ma310543708" y="246.283904"/>
     <use style="fill:#4c72b0;fill-opacity:0.8;stroke:#4c72b0;stroke-opacity:0.8;" x="144.387251" xlink:href="#ma310543708" y="243.042207"/>
     <use style="fill:#4c72b0;fill-opacity:0.8;stroke:#4c72b0;stroke-opacity:0.8;" x="109.388327" xlink:href="#ma310543708" y="287.718312"/>
     <use style="fill:#4c72b0;fill-opacity:0.8;stroke:#4c72b0;stroke-opacity:0.8;" x="118.051269" xlink:href="#ma310543708" y="234.414188"/>
     <use style="fill:#4c72b0;fill-opacity:0.8;stroke:#4c72b0;stroke-opacity:0.8;" x="117.020364" xlink:href="#ma310543708" y="289.054641"/>
     <use style="fill:#4c72b0;fill-opacity:0.8;stroke:#4c72b0;stroke-opacity:0.8;" x="177.620355" xlink:href="#ma310543708" y="170.586554"/>
     <use style="fill:#4c72b0;fill-opacity:0.8;stroke:#4c72b0;stroke-opacity:0.8;" x="156.760056" xlink:href="#ma310543708" y="216.918585"/>
     <use style="fill:#4c72b0;fill-opacity:0.8;stroke:#4c72b0;stroke-opacity:0.8;" x="177.68458" xlink:href="#ma310543708" y="210.151362"/>
     <use style="fill:#4c72b0;fill-opacity:0.8;stroke:#4c72b0;stroke-opacity:0.8;" x="179.380842" xlink:href="#ma310543708" y="203.054383"/>
     <use style="fill:#4c72b0;fill-opacity:0.8;stroke:#4c72b0;stroke-opacity:0.8;" x="170.178489" xlink:href="#ma310543708" y="195.718729"/>
     <use style="fill:#4c72b0;fill-opacity:0.8;stroke:#4c72b0;stroke-opacity:0.8;" x="185.739719" xlink:href="#ma310543708" y="188.239204"/>
     <use style="fill:#4c72b0;fill-opacity:0.8;stroke:#4c72b0;stroke-opacity:0.8;" x="151.608149" xlink:href="#ma310543708" y="180.712955"/>
     <use style="fill:#4c72b0;fill-opacity:0.8;stroke:#4c72b0;stroke-opacity:0.8;" x="264.43883" xlink:href="#ma310543708" y="112.797992"/>
     <use style="fill:#4c72b0;fill-opacity:0.8;stroke:#4c72b0;stroke-opacity:0.8;" x="228.781135" xlink:href="#ma310543708" y="165.912044"/>
     <use style="fill:#4c72b0;fill-opacity:0.8;stroke:#4c72b0;stroke-opacity:0.8;" x="256.106715" xlink:href="#ma310543708" y="101.81589"/>
     <use style="fill:#4c72b0;fill-opacity:0.8;stroke:#4c72b0;stroke-opacity:0.8;" x="273.781001" xlink:href="#ma310543708" y="100.847539"/>
     <use style="fill:#4c72b0;fill-opacity:0.8;stroke:#4c72b0;stroke-opacity:0.8;" x="251.055772" xlink:href="#ma310543708" y="145.378173"/>
     <use style="fill:#4c72b0;fill-opacity:0.8;stroke:#4c72b0;stroke-opacity:0.8;" x="309.016735" xlink:href="#ma310543708" y="85.303266"/>
     <use style="fill:#4c72b0;fill-opacity:0.8;stroke:#4c72b0;stroke-opacity:0.8;" x="199.303804" xlink:href="#ma310543708" y="187.377694"/>
     <use style="fill:#4c72b0;fill-opacity:0.8;stroke:#4c72b0;stroke-opacity:0.8;" x="262.056007" xlink:href="#ma310543708" y="129.874463"/>
     <use style="fill:#4c72b0;fill-opacity:0.8;stroke:#4c72b0;stroke-opacity:0.8;" x="170.803171" xlink:href="#ma310543708" y="184.577858"/>
     <use style="fill:#4c72b0;fill-opacity:0.8;stroke:#4c72b0;stroke-opacity:0.8;" x="246.932102" xlink:href="#ma310543708" y="122.968459"/>
     <use style="fill:#4c72b0;fill-opacity:0.8;stroke:#4c72b0;stroke-opacity:0.8;" x="273.68215" xlink:href="#ma310543708" y="120.682785"/>
     <use style="fill:#4c72b0;fill-opacity:0.8;stroke:#4c72b0;stroke-opacity:0.8;" x="272.604044" xlink:href="#ma310543708" y="119.211607"/>
     <use style="fill:#4c72b0;fill-opacity:0.8;stroke:#4c72b0;stroke-opacity:0.8;" x="261.430324" xlink:href="#ma310543708" y="118.567687"/>
     <use style="fill:#4c72b0;fill-opacity:0.8;stroke:#4c72b0;stroke-opacity:0.8;" x="263.766932" xlink:href="#ma310543708" y="118.751966"/>
     <use style="fill:#4c72b0;fill-opacity:0.8;stroke:#4c72b0;stroke-opacity:0.8;" x="284.34437" xlink:href="#ma310543708" y="119.753549"/>
     <use style="fill:#4c72b0;fill-opacity:0.8;stroke:#4c72b0;stroke-opacity:0.8;" x="247.510645" xlink:href="#ma310543708" y="121.549856"/>
     <use style="fill:#4c72b0;fill-opacity:0.8;stroke:#4c72b0;stroke-opacity:0.8;" x="212.414886" xlink:href="#ma310543708" y="170.323449"/>
     <use style="fill:#4c72b0;fill-opacity:0.8;stroke:#4c72b0;stroke-opacity:0.8;" x="248.622563" xlink:href="#ma310543708" y="127.379996"/>
     <use style="fill:#4c72b0;fill-opacity:0.8;stroke:#4c72b0;stroke-opacity:0.8;" x="180.627057" xlink:href="#ma310543708" y="186.07338"/>
     <use style="fill:#4c72b0;fill-opacity:0.8;stroke:#4c72b0;stroke-opacity:0.8;" x="336.788977" xlink:href="#ma310543708" y="73.177313"/>
     <use style="fill:#4c72b0;fill-opacity:0.8;stroke:#4c72b0;stroke-opacity:0.8;" x="253.642599" xlink:href="#ma310543708" y="140.898145"/>
     <use style="fill:#4c72b0;fill-opacity:0.8;stroke:#4c72b0;stroke-opacity:0.8;" x="247.676985" xlink:href="#ma310543708" y="146.39491"/>
     <use style="fill:#4c72b0;fill-opacity:0.8;stroke:#4c72b0;stroke-opacity:0.8;" x="176.873033" xlink:href="#ma310543708" y="215.891934"/>
     <use style="fill:#4c72b0;fill-opacity:0.8;stroke:#4c72b0;stroke-opacity:0.8;" x="220.393506" xlink:href="#ma310543708" y="158.365244"/>
     <use style="fill:#4c72b0;fill-opacity:0.8;stroke:#4c72b0;stroke-opacity:0.8;" x="226.196285" xlink:href="#ma310543708" y="164.651485"/>
     <use style="fill:#4c72b0;fill-opacity:0.8;stroke:#4c72b0;stroke-opacity:0.8;" x="201.055691" xlink:href="#ma310543708" y="171.00873"/>
     <use style="fill:#4c72b0;fill-opacity:0.8;stroke:#4c72b0;stroke-opacity:0.8;" x="206.334462" xlink:href="#ma310543708" y="177.338181"/>
     <use style="fill:#4c72b0;fill-opacity:0.8;stroke:#4c72b0;stroke-opacity:0.8;" x="127.77002" xlink:href="#ma310543708" y="238.366081"/>
     <use style="fill:#4c72b0;fill-opacity:0.8;stroke:#4c72b0;stroke-opacity:0.8;" x="189.467524" xlink:href="#ma310543708" y="189.522399"/>
     <use style="fill:#4c72b0;fill-opacity:0.8;stroke:#4c72b0;stroke-opacity:0.8;" x="135.518218" xlink:href="#ma310543708" y="244.629041"/>
     <use style="fill:#4c72b0;fill-opacity:0.8;stroke:#4c72b0;stroke-opacity:0.8;" x="215.344579" xlink:href="#ma310543708" y="153.714092"/>
     <use style="fill:#4c72b0;fill-opacity:0.8;stroke:#4c72b0;stroke-opacity:0.8;" x="174.998357" xlink:href="#ma310543708" y="205.223786"/>
     <use style="fill:#4c72b0;fill-opacity:0.8;stroke:#4c72b0;stroke-opacity:0.8;" x="148.341585" xlink:href="#ma310543708" y="209.436686"/>
     <use style="fill:#4c72b0;fill-opacity:0.8;stroke:#4c72b0;stroke-opacity:0.8;" x="75.575125" xlink:href="#ma310543708" y="269.194752"/>
     <use style="fill:#4c72b0;fill-opacity:0.8;stroke:#4c72b0;stroke-opacity:0.8;" x="182.154209" xlink:href="#ma310543708" y="215.91727"/>
     <use style="fill:#4c72b0;fill-opacity:0.8;stroke:#4c72b0;stroke-opacity:0.8;" x="173.134268" xlink:href="#ma310543708" y="218.078958"/>
     <use style="fill:#4c72b0;fill-opacity:0.8;stroke:#4c72b0;stroke-opacity:0.8;" x="168.636215" xlink:href="#ma310543708" y="219.468294"/>
     <use style="fill:#4c72b0;fill-opacity:0.8;stroke:#4c72b0;stroke-opacity:0.8;" x="168.179355" xlink:href="#ma310543708" y="220.059235"/>
     <use style="fill:#4c72b0;fill-opacity:0.8;stroke:#4c72b0;stroke-opacity:0.8;" x="178.183118" xlink:href="#ma310543708" y="169.999352"/>
     <use style="fill:#4c72b0;fill-opacity:0.8;stroke:#4c72b0;stroke-opacity:0.8;" x="141.15556" xlink:href="#ma310543708" y="218.800053"/>
     <use style="fill:#4c72b0;fill-opacity:0.8;stroke:#4c72b0;stroke-opacity:0.8;" x="104.486942" xlink:href="#ma310543708" y="265.918465"/>
     <use style="fill:#4c72b0;fill-opacity:0.8;stroke:#4c72b0;stroke-opacity:0.8;" x="150.077447" xlink:href="#ma310543708" y="214.327946"/>
     <use style="fill:#4c72b0;fill-opacity:0.8;stroke:#4c72b0;stroke-opacity:0.8;" x="184.532088" xlink:href="#ma310543708" y="210.94653"/>
     <use style="fill:#4c72b0;fill-opacity:0.8;stroke:#4c72b0;stroke-opacity:0.8;" x="167.900464" xlink:href="#ma310543708" y="206.855695"/>
     <use style="fill:#4c72b0;fill-opacity:0.8;stroke:#4c72b0;stroke-opacity:0.8;" x="160.234644" xlink:href="#ma310543708" y="202.109118"/>
     <use style="fill:#4c72b0;fill-opacity:0.8;stroke:#4c72b0;stroke-opacity:0.8;" x="175.267445" xlink:href="#ma310543708" y="196.770018"/>
     <use style="fill:#4c72b0;fill-opacity:0.8;stroke:#4c72b0;stroke-opacity:0.8;" x="195.135663" xlink:href="#ma310543708" y="190.910243"/>
     <use style="fill:#4c72b0;fill-opacity:0.8;stroke:#4c72b0;stroke-opacity:0.8;" x="183.499048" xlink:href="#ma310543708" y="184.60923"/>
     <use style="fill:#4c72b0;fill-opacity:0.8;stroke:#4c72b0;stroke-opacity:0.8;" x="114.725555" xlink:href="#ma310543708" y="239.035971"/>
     <use style="fill:#4c72b0;fill-opacity:0.8;stroke:#4c72b0;stroke-opacity:0.8;" x="154.192445" xlink:href="#ma310543708" y="221.500318"/>
     <use style="fill:#4c72b0;fill-opacity:0.8;stroke:#4c72b0;stroke-opacity:0.8;" x="150.19418" xlink:href="#ma310543708" y="224.251715"/>
     <use style="fill:#4c72b0;fill-opacity:0.8;stroke:#4c72b0;stroke-opacity:0.8;" x="213.634625" xlink:href="#ma310543708" y="156.780211"/>
     <use style="fill:#4c72b0;fill-opacity:0.8;stroke:#4c72b0;stroke-opacity:0.8;" x="221.738625" xlink:href="#ma310543708" y="149.644908"/>
     <use style="fill:#4c72b0;fill-opacity:0.8;stroke:#4c72b0;stroke-opacity:0.8;" x="242.165836" xlink:href="#ma310543708" y="142.634439"/>
    </g>
   </g>
   <g id="PolyCollection_1">
    <defs>
     <path d="M 38.584375 -67.533774 
L 38.584375 -50.586989 
L 41.596543 -53.226819 
L 44.60871 -55.878448 
L 47.620878 -58.580272 
L 50.633046 -61.218198 
L 53.645213 -63.856776 
L 56.657381 -66.495969 
L 59.669549 -69.149856 
L 62.681717 -71.781108 
L 65.693884 -74.41236 
L 68.706052 -77.047576 
L 71.71822 -79.67453 
L 74.730387 -82.305292 
L 77.742555 -84.908666 
L 80.754723 -87.522259 
L 83.76689 -90.144063 
L 86.779058 -92.762002 
L 89.791226 -95.38124 
L 92.803394 -98.000579 
L 95.815561 -100.655589 
L 98.827729 -103.316766 
L 101.839897 -105.984791 
L 104.852064 -108.648863 
L 107.864232 -111.265402 
L 110.8764 -113.90292 
L 113.888567 -116.5408 
L 116.900735 -119.152743 
L 119.912903 -121.770336 
L 122.925071 -124.39947 
L 125.937238 -126.993376 
L 128.949406 -129.590766 
L 131.961574 -132.17931 
L 134.973741 -134.730673 
L 137.985909 -137.299256 
L 140.998077 -139.892984 
L 144.010244 -142.516113 
L 147.022412 -145.129705 
L 150.03458 -147.737878 
L 153.046747 -150.331259 
L 156.058915 -152.924641 
L 159.071083 -155.525521 
L 162.083251 -158.08648 
L 165.095418 -160.559249 
L 168.107586 -163.049519 
L 171.119754 -165.559309 
L 174.131921 -168.070195 
L 177.144089 -170.586298 
L 180.156257 -173.229059 
L 183.168424 -175.871633 
L 186.180592 -178.419716 
L 189.19276 -181.032236 
L 192.204928 -183.501022 
L 195.217095 -185.989836 
L 198.229263 -188.549862 
L 201.241431 -191.054075 
L 204.253598 -193.602039 
L 207.265766 -196.084382 
L 210.277934 -198.569224 
L 213.290101 -201.051099 
L 216.302269 -203.524273 
L 219.314437 -205.976076 
L 222.326605 -208.453348 
L 225.338772 -210.898292 
L 228.35094 -213.341977 
L 231.363108 -215.783108 
L 234.375275 -218.210061 
L 237.387443 -220.561306 
L 240.399611 -222.912128 
L 243.411778 -225.302364 
L 246.423946 -227.792383 
L 249.436114 -230.292455 
L 252.448281 -232.730968 
L 255.460449 -235.166491 
L 258.472617 -237.568297 
L 261.484785 -239.899282 
L 264.496952 -242.241589 
L 267.50912 -244.607307 
L 270.521288 -246.986777 
L 273.533455 -249.405231 
L 276.545623 -251.842877 
L 279.557791 -254.263787 
L 282.569958 -256.684948 
L 285.582126 -259.070707 
L 288.594294 -261.466809 
L 291.606462 -263.816319 
L 294.618629 -266.189588 
L 297.630797 -268.560884 
L 300.642965 -270.933624 
L 303.655132 -273.306365 
L 306.6673 -275.679105 
L 309.679468 -278.051845 
L 312.691635 -280.424757 
L 315.703803 -282.802707 
L 318.715971 -285.156232 
L 321.728139 -287.492907 
L 324.740306 -289.81928 
L 327.752474 -292.135426 
L 330.764642 -294.502931 
L 333.776809 -296.839606 
L 336.788977 -299.17628 
L 336.788977 -313.149696 
L 336.788977 -313.149696 
L 333.776809 -310.532898 
L 330.764642 -307.92518 
L 327.752474 -305.335806 
L 324.740306 -302.745713 
L 321.728139 -300.155588 
L 318.715971 -297.565463 
L 315.703803 -294.965885 
L 312.691635 -292.350047 
L 309.679468 -289.734209 
L 306.6673 -287.151446 
L 303.655132 -284.56904 
L 300.642965 -281.955811 
L 297.630797 -279.290151 
L 294.618629 -276.650857 
L 291.606462 -274.069906 
L 288.594294 -271.492594 
L 285.582126 -268.915283 
L 282.569958 -266.337971 
L 279.557791 -263.758745 
L 276.545623 -261.178491 
L 273.533455 -258.533729 
L 270.521288 -255.878873 
L 267.50912 -253.300885 
L 264.496952 -250.706158 
L 261.484785 -248.121478 
L 258.472617 -245.546196 
L 255.460449 -242.970848 
L 252.448281 -240.395076 
L 249.436114 -237.775146 
L 246.423946 -235.208773 
L 243.411778 -232.599344 
L 240.399611 -229.971886 
L 237.387443 -227.416103 
L 234.375275 -224.889307 
L 231.363108 -222.301257 
L 228.35094 -219.731054 
L 225.338772 -217.09638 
L 222.326605 -214.505246 
L 219.314437 -211.908266 
L 216.302269 -209.354853 
L 213.290101 -206.783838 
L 210.277934 -204.291515 
L 207.265766 -201.755682 
L 204.253598 -199.206158 
L 201.241431 -196.64353 
L 198.229263 -194.130704 
L 195.217095 -191.626102 
L 192.204928 -189.112683 
L 189.19276 -186.621823 
L 186.180592 -184.089193 
L 183.168424 -181.646837 
L 180.156257 -179.169094 
L 177.144089 -176.70902 
L 174.131921 -174.330986 
L 171.119754 -171.953221 
L 168.107586 -169.565315 
L 165.095418 -167.13337 
L 162.083251 -164.764908 
L 159.071083 -162.358342 
L 156.058915 -159.915519 
L 153.046747 -157.507642 
L 150.03458 -155.102199 
L 147.022412 -152.715619 
L 144.010244 -150.32952 
L 140.998077 -147.921141 
L 137.985909 -145.496422 
L 134.973741 -143.10459 
L 131.961574 -140.720661 
L 128.949406 -138.32547 
L 125.937238 -135.991039 
L 122.925071 -133.636892 
L 119.912903 -131.238088 
L 116.900735 -128.916765 
L 113.888567 -126.580823 
L 110.8764 -124.206534 
L 107.864232 -121.815733 
L 104.852064 -119.4803 
L 101.839897 -117.087331 
L 98.827729 -114.700277 
L 95.815561 -112.294668 
L 92.803394 -109.956007 
L 89.791226 -107.565731 
L 86.779058 -105.227369 
L 83.76689 -102.883987 
L 80.754723 -100.484901 
L 77.742555 -98.141063 
L 74.730387 -95.821903 
L 71.71822 -93.502743 
L 68.706052 -91.183582 
L 65.693884 -88.864422 
L 62.681717 -86.51899 
L 59.669549 -84.146269 
L 56.657381 -81.773548 
L 53.645213 -79.400827 
L 50.633046 -77.027725 
L 47.620878 -74.654237 
L 44.60871 -72.280749 
L 41.596543 -69.907262 
L 38.584375 -67.533774 
z
" id="m0f579b816b" style="stroke:#ffffff;stroke-opacity:0.15;"/>
    </defs>
    <g clip-path="url(#p689235d49c)">
     <use style="fill:#4c72b0;fill-opacity:0.15;stroke:#ffffff;stroke-opacity:0.15;" x="0" xlink:href="#m0f579b816b" y="371.810625"/>
    </g>
   </g>
   <g id="PathCollection_2">
    <defs>
     <path d="M 0 3 
C 0.795609 3 1.55874 2.683901 2.12132 2.12132 
C 2.683901 1.55874 3 0.795609 3 0 
C 3 -0.795609 2.683901 -1.55874 2.12132 -2.12132 
C 1.55874 -2.683901 0.795609 -3 0 -3 
C -0.795609 -3 -1.55874 -2.683901 -2.12132 -2.12132 
C -2.683901 -1.55874 -3 -0.795609 -3 0 
C -3 0.795609 -2.683901 1.55874 -2.12132 2.12132 
C -1.55874 2.683901 -0.795609 3 0 3 
z
" id="m955e837bd5" style="stroke:#dd8452;stroke-opacity:0.8;"/>
    </defs>
    <g clip-path="url(#p689235d49c)">
     <use style="fill:#dd8452;fill-opacity:0.8;stroke:#dd8452;stroke-opacity:0.8;" x="279.207651" xlink:href="#m955e837bd5" y="82.937301"/>
     <use style="fill:#dd8452;fill-opacity:0.8;stroke:#dd8452;stroke-opacity:0.8;" x="262.373218" xlink:href="#m955e837bd5" y="128.946118"/>
     <use style="fill:#dd8452;fill-opacity:0.8;stroke:#dd8452;stroke-opacity:0.8;" x="244.890263" xlink:href="#m955e837bd5" y="122.906723"/>
     <use style="fill:#dd8452;fill-opacity:0.8;stroke:#dd8452;stroke-opacity:0.8;" x="260.063539" xlink:href="#m955e837bd5" y="117.359383"/>
     <use style="fill:#dd8452;fill-opacity:0.8;stroke:#dd8452;stroke-opacity:0.8;" x="275.001293" xlink:href="#m955e837bd5" y="112.379573"/>
     <use style="fill:#dd8452;fill-opacity:0.8;stroke:#dd8452;stroke-opacity:0.8;" x="238.019496" xlink:href="#m955e837bd5" y="162.481356"/>
     <use style="fill:#dd8452;fill-opacity:0.8;stroke:#dd8452;stroke-opacity:0.8;" x="293.442261" xlink:href="#m955e837bd5" y="104.382649"/>
     <use style="fill:#dd8452;fill-opacity:0.8;stroke:#dd8452;stroke-opacity:0.8;" x="277.411577" xlink:href="#m955e837bd5" y="101.471903"/>
     <use style="fill:#dd8452;fill-opacity:0.8;stroke:#dd8452;stroke-opacity:0.8;" x="346.412275" xlink:href="#m955e837bd5" y="44.033663"/>
     <use style="fill:#dd8452;fill-opacity:0.8;stroke:#dd8452;stroke-opacity:0.8;" x="265.158063" xlink:href="#m955e837bd5" y="98.012878"/>
     <use style="fill:#dd8452;fill-opacity:0.8;stroke:#dd8452;stroke-opacity:0.8;" x="284.005009" xlink:href="#m955e837bd5" y="97.505587"/>
     <use style="fill:#dd8452;fill-opacity:0.8;stroke:#dd8452;stroke-opacity:0.8;" x="334.075116" xlink:href="#m955e837bd5" y="50.010337"/>
     <use style="fill:#dd8452;fill-opacity:0.8;stroke:#dd8452;stroke-opacity:0.8;" x="288.755066" xlink:href="#m955e837bd5" y="98.949794"/>
     <use style="fill:#dd8452;fill-opacity:0.8;stroke:#dd8452;stroke-opacity:0.8;" x="265.218345" xlink:href="#m955e837bd5" y="100.871603"/>
     <use style="fill:#dd8452;fill-opacity:0.8;stroke:#dd8452;stroke-opacity:0.8;" x="346.17925" xlink:href="#m955e837bd5" y="53.028058"/>
     <use style="fill:#dd8452;fill-opacity:0.8;stroke:#dd8452;stroke-opacity:0.8;" x="302.859527" xlink:href="#m955e837bd5" y="106.954405"/>
     <use style="fill:#dd8452;fill-opacity:0.8;stroke:#dd8452;stroke-opacity:0.8;" x="267.922581" xlink:href="#m955e837bd5" y="111.018847"/>
     <use style="fill:#dd8452;fill-opacity:0.8;stroke:#dd8452;stroke-opacity:0.8;" x="331.744189" xlink:href="#m955e837bd5" y="64.703727"/>
     <use style="fill:#dd8452;fill-opacity:0.8;stroke:#dd8452;stroke-opacity:0.8;" x="272.50372" xlink:href="#m955e837bd5" y="120.879641"/>
     <use style="fill:#dd8452;fill-opacity:0.8;stroke:#dd8452;stroke-opacity:0.8;" x="187.947717" xlink:href="#m955e837bd5" y="176.715082"/>
     <use style="fill:#dd8452;fill-opacity:0.8;stroke:#dd8452;stroke-opacity:0.8;" x="251.617277" xlink:href="#m955e837bd5" y="132.534834"/>
     <use style="fill:#dd8452;fill-opacity:0.8;stroke:#dd8452;stroke-opacity:0.8;" x="241.113122" xlink:href="#m955e837bd5" y="138.818079"/>
     <use style="fill:#dd8452;fill-opacity:0.8;stroke:#dd8452;stroke-opacity:0.8;" x="235.970692" xlink:href="#m955e837bd5" y="145.279815"/>
     <use style="fill:#dd8452;fill-opacity:0.8;stroke:#dd8452;stroke-opacity:0.8;" x="266.801666" xlink:href="#m955e837bd5" y="105.393065"/>
     <use style="fill:#dd8452;fill-opacity:0.8;stroke:#dd8452;stroke-opacity:0.8;" x="147.342847" xlink:href="#m955e837bd5" y="221.807686"/>
     <use style="fill:#dd8452;fill-opacity:0.8;stroke:#dd8452;stroke-opacity:0.8;" x="223.206688" xlink:href="#m955e837bd5" y="164.756858"/>
     <use style="fill:#dd8452;fill-opacity:0.8;stroke:#dd8452;stroke-opacity:0.8;" x="234.586423" xlink:href="#m955e837bd5" y="170.953447"/>
     <use style="fill:#dd8452;fill-opacity:0.8;stroke:#dd8452;stroke-opacity:0.8;" x="219.302803" xlink:href="#m955e837bd5" y="176.843928"/>
     <use style="fill:#dd8452;fill-opacity:0.8;stroke:#dd8452;stroke-opacity:0.8;" x="179.124017" xlink:href="#m955e837bd5" y="231.266216"/>
     <use style="fill:#dd8452;fill-opacity:0.8;stroke:#dd8452;stroke-opacity:0.8;" x="176.202695" xlink:href="#m955e837bd5" y="187.356044"/>
     <use style="fill:#dd8452;fill-opacity:0.8;stroke:#dd8452;stroke-opacity:0.8;" x="268.419643" xlink:href="#m955e837bd5" y="134.811249"/>
     <use style="fill:#dd8452;fill-opacity:0.8;stroke:#dd8452;stroke-opacity:0.8;" x="185.43564" xlink:href="#m955e837bd5" y="195.65674"/>
     <use style="fill:#dd8452;fill-opacity:0.8;stroke:#dd8452;stroke-opacity:0.8;" x="219.692283" xlink:href="#m955e837bd5" y="198.813031"/>
     <use style="fill:#dd8452;fill-opacity:0.8;stroke:#dd8452;stroke-opacity:0.8;" x="161.240477" xlink:href="#m955e837bd5" y="201.23748"/>
     <use style="fill:#dd8452;fill-opacity:0.8;stroke:#dd8452;stroke-opacity:0.8;" x="159.00484" xlink:href="#m955e837bd5" y="202.891321"/>
     <use style="fill:#dd8452;fill-opacity:0.8;stroke:#dd8452;stroke-opacity:0.8;" x="233.172682" xlink:href="#m955e837bd5" y="143.02407"/>
     <use style="fill:#dd8452;fill-opacity:0.8;stroke:#dd8452;stroke-opacity:0.8;" x="203.336388" xlink:href="#m955e837bd5" y="144.266961"/>
     <use style="fill:#dd8452;fill-opacity:0.8;stroke:#dd8452;stroke-opacity:0.8;" x="164.971102" xlink:href="#m955e837bd5" y="203.011342"/>
     <use style="fill:#dd8452;fill-opacity:0.8;stroke:#dd8452;stroke-opacity:0.8;" x="162.340147" xlink:href="#m955e837bd5" y="201.423509"/>
     <use style="fill:#dd8452;fill-opacity:0.8;stroke:#dd8452;stroke-opacity:0.8;" x="181.878036" xlink:href="#m955e837bd5" y="199.044268"/>
     <use style="fill:#dd8452;fill-opacity:0.8;stroke:#dd8452;stroke-opacity:0.8;" x="188.791029" xlink:href="#m955e837bd5" y="195.904485"/>
     <use style="fill:#dd8452;fill-opacity:0.8;stroke:#dd8452;stroke-opacity:0.8;" x="152.334145" xlink:href="#m955e837bd5" y="251.653153"/>
     <use style="fill:#dd8452;fill-opacity:0.8;stroke:#dd8452;stroke-opacity:0.8;" x="209.014733" xlink:href="#m955e837bd5" y="187.521276"/>
     <use style="fill:#dd8452;fill-opacity:0.8;stroke:#dd8452;stroke-opacity:0.8;" x="185.883365" xlink:href="#m955e837bd5" y="182.392129"/>
     <use style="fill:#dd8452;fill-opacity:0.8;stroke:#dd8452;stroke-opacity:0.8;" x="118.80422" xlink:href="#m955e837bd5" y="234.458343"/>
     <use style="fill:#dd8452;fill-opacity:0.8;stroke:#dd8452;stroke-opacity:0.8;" x="253.755228" xlink:href="#m955e837bd5" y="170.611404"/>
     <use style="fill:#dd8452;fill-opacity:0.8;stroke:#dd8452;stroke-opacity:0.8;" x="252.15078" xlink:href="#m955e837bd5" y="111.575642"/>
     <use style="fill:#dd8452;fill-opacity:0.8;stroke:#dd8452;stroke-opacity:0.8;" x="257.086678" xlink:href="#m955e837bd5" y="157.355749"/>
     <use style="fill:#dd8452;fill-opacity:0.8;stroke:#dd8452;stroke-opacity:0.8;" x="199.105661" xlink:href="#m955e837bd5" y="196.108462"/>
     <use style="fill:#dd8452;fill-opacity:0.8;stroke:#dd8452;stroke-opacity:0.8;" x="228.714885" xlink:href="#m955e837bd5" y="143.362419"/>
     <use style="fill:#dd8452;fill-opacity:0.8;stroke:#dd8452;stroke-opacity:0.8;" x="285.369158" xlink:href="#m955e837bd5" y="73.824584"/>
     <use style="fill:#dd8452;fill-opacity:0.8;stroke:#dd8452;stroke-opacity:0.8;" x="277.286882" xlink:href="#m955e837bd5" y="129.411546"/>
    </g>
   </g>
   <g id="PolyCollection_2">
    <defs>
     <path d="M 118.80422 -129.358904 
L 118.80422 -107.364919 
L 121.103291 -109.634064 
L 123.402362 -111.90321 
L 125.701433 -114.172356 
L 128.000505 -116.441502 
L 130.299576 -118.710647 
L 132.598647 -120.981339 
L 134.897718 -123.25283 
L 137.19679 -125.524321 
L 139.495861 -127.770469 
L 141.794932 -130.013025 
L 144.094004 -132.255582 
L 146.393075 -134.498138 
L 148.692146 -136.736646 
L 150.991217 -138.95979 
L 153.290289 -141.182934 
L 155.58936 -143.466063 
L 157.888431 -145.705867 
L 160.187502 -147.945671 
L 162.486574 -150.186615 
L 164.785645 -152.51472 
L 167.084716 -154.741088 
L 169.383787 -156.948305 
L 171.682859 -159.155522 
L 173.98193 -161.389375 
L 176.281001 -163.628829 
L 178.580073 -165.868282 
L 180.879144 -168.058728 
L 183.178215 -170.265602 
L 185.477286 -172.564142 
L 187.776358 -174.747285 
L 190.075429 -176.930428 
L 192.3745 -179.11357 
L 194.673571 -181.296854 
L 196.972643 -183.48045 
L 199.271714 -185.688447 
L 201.570785 -187.847684 
L 203.869856 -190.044513 
L 206.168928 -192.234039 
L 208.467999 -194.395569 
L 210.76707 -196.568196 
L 213.066142 -198.730374 
L 215.365213 -200.755733 
L 217.664284 -202.954714 
L 219.963355 -205.189761 
L 222.262427 -207.33837 
L 224.561498 -209.484213 
L 226.860569 -211.569128 
L 229.15964 -213.663123 
L 231.458712 -215.782902 
L 233.757783 -217.861578 
L 236.056854 -220.043311 
L 238.355925 -222.235998 
L 240.654997 -224.366584 
L 242.954068 -226.483937 
L 245.253139 -228.512348 
L 247.552211 -230.58036 
L 249.851282 -232.627788 
L 252.150353 -234.644114 
L 254.449424 -236.594332 
L 256.748496 -238.549589 
L 259.047567 -240.517944 
L 261.346638 -242.489828 
L 263.645709 -244.522144 
L 265.944781 -246.448279 
L 268.243852 -248.395209 
L 270.542923 -250.296877 
L 272.841994 -252.289786 
L 275.141066 -254.160608 
L 277.440137 -256.106901 
L 279.739208 -258.012352 
L 282.03828 -260.002044 
L 284.337351 -261.984515 
L 286.636422 -263.97962 
L 288.935493 -265.983352 
L 291.234565 -267.89892 
L 293.533636 -269.770789 
L 295.832707 -271.683971 
L 298.131778 -273.630607 
L 300.43085 -275.579003 
L 302.729921 -277.530413 
L 305.028992 -279.472558 
L 307.328063 -281.418921 
L 309.627135 -283.337613 
L 311.926206 -285.258342 
L 314.225277 -287.203267 
L 316.524349 -289.15349 
L 318.82342 -291.101508 
L 321.122491 -293.049526 
L 323.421562 -294.997544 
L 325.720634 -296.945562 
L 328.019705 -298.89358 
L 330.318776 -300.841598 
L 332.617847 -302.789615 
L 334.916919 -304.737633 
L 337.21599 -306.685651 
L 339.515061 -308.633669 
L 341.814132 -310.57731 
L 344.113204 -312.478705 
L 346.412275 -314.398169 
L 346.412275 -332.514261 
L 346.412275 -332.514261 
L 344.113204 -330.361604 
L 341.814132 -328.198032 
L 339.515061 -325.983445 
L 337.21599 -323.768858 
L 334.916919 -321.597806 
L 332.617847 -319.45168 
L 330.318776 -317.189361 
L 328.019705 -314.927042 
L 325.720634 -312.694619 
L 323.421562 -310.47743 
L 321.122491 -308.280047 
L 318.82342 -306.122688 
L 316.524349 -303.965329 
L 314.225277 -301.807971 
L 311.926206 -299.570119 
L 309.627135 -297.314015 
L 307.328063 -295.081753 
L 305.028992 -292.857703 
L 302.729921 -290.666962 
L 300.43085 -288.477749 
L 298.131778 -286.288536 
L 295.832707 -284.077026 
L 293.533636 -281.907313 
L 291.234565 -279.732705 
L 288.935493 -277.587425 
L 286.636422 -275.411236 
L 284.337351 -273.262765 
L 282.03828 -271.181475 
L 279.739208 -269.014069 
L 277.440137 -266.792809 
L 275.141066 -264.635938 
L 272.841994 -262.49841 
L 270.542923 -260.349214 
L 268.243852 -258.223924 
L 265.944781 -256.135039 
L 263.645709 -253.958715 
L 261.346638 -251.918436 
L 259.047567 -249.889688 
L 256.748496 -247.810688 
L 254.449424 -245.782048 
L 252.150353 -243.627646 
L 249.851282 -241.504815 
L 247.552211 -239.317404 
L 245.253139 -237.16424 
L 242.954068 -235.057686 
L 240.654997 -232.970704 
L 238.355925 -230.933837 
L 236.056854 -228.896971 
L 233.757783 -226.858576 
L 231.458712 -224.820925 
L 229.15964 -222.809165 
L 226.860569 -220.764891 
L 224.561498 -218.789349 
L 222.262427 -216.771747 
L 219.963355 -214.792803 
L 217.664284 -212.80795 
L 215.365213 -210.826619 
L 213.066142 -208.786656 
L 210.76707 -206.839334 
L 208.467999 -204.792616 
L 206.168928 -202.824514 
L 203.869856 -200.917766 
L 201.570785 -198.921261 
L 199.271714 -196.886485 
L 196.972643 -194.969003 
L 194.673571 -192.950732 
L 192.3745 -191.003533 
L 190.075429 -189.048499 
L 187.776358 -187.068942 
L 185.477286 -185.148715 
L 183.178215 -183.230268 
L 180.879144 -181.280825 
L 178.580073 -179.334053 
L 176.281001 -177.330639 
L 173.98193 -175.380282 
L 171.682859 -173.447349 
L 169.383787 -171.521576 
L 167.084716 -169.591319 
L 164.785645 -167.669124 
L 162.486574 -165.732518 
L 160.187502 -163.801931 
L 157.888431 -161.90656 
L 155.58936 -160.005026 
L 153.290289 -158.101174 
L 150.991217 -156.118632 
L 148.692146 -154.19493 
L 146.393075 -152.232552 
L 144.094004 -150.295739 
L 141.794932 -148.376483 
L 139.495861 -146.474725 
L 137.19679 -144.57279 
L 134.897718 -142.669308 
L 132.598647 -140.733785 
L 130.299576 -138.753206 
L 128.000505 -136.84482 
L 125.701433 -135.010559 
L 123.402362 -133.161252 
L 121.103291 -131.260662 
L 118.80422 -129.358904 
z
" id="m7eb51dd514" style="stroke:#ffffff;stroke-opacity:0.15;"/>
    </defs>
    <g clip-path="url(#p689235d49c)">
     <use style="fill:#dd8452;fill-opacity:0.15;stroke:#ffffff;stroke-opacity:0.15;" x="0" xlink:href="#m7eb51dd514" y="371.810625"/>
    </g>
   </g>
   <g id="line2d_18">
    <path clip-path="url(#p689235d49c)" d="M 38.584375 312.480634 
L 41.596543 309.988916 
L 44.60871 307.497197 
L 47.620878 305.005478 
L 50.633046 302.513759 
L 53.645213 300.022041 
L 56.657381 297.530322 
L 59.669549 295.038603 
L 62.681717 292.546885 
L 65.693884 290.055166 
L 68.706052 287.563447 
L 71.71822 285.071728 
L 74.730387 282.58001 
L 77.742555 280.088291 
L 80.754723 277.596572 
L 83.76689 275.104853 
L 86.779058 272.613135 
L 89.791226 270.121416 
L 92.803394 267.629697 
L 95.815561 265.137979 
L 98.827729 262.64626 
L 101.839897 260.154541 
L 104.852064 257.662822 
L 107.864232 255.171104 
L 110.8764 252.679385 
L 113.888567 250.187666 
L 116.900735 247.695947 
L 119.912903 245.204229 
L 122.925071 242.71251 
L 125.937238 240.220791 
L 128.949406 237.729072 
L 131.961574 235.237354 
L 134.973741 232.745635 
L 137.985909 230.253916 
L 140.998077 227.762198 
L 144.010244 225.270479 
L 147.022412 222.77876 
L 150.03458 220.287041 
L 153.046747 217.795323 
L 156.058915 215.303604 
L 159.071083 212.811885 
L 162.083251 210.320166 
L 165.095418 207.828448 
L 168.107586 205.336729 
L 171.119754 202.84501 
L 174.131921 200.353292 
L 177.144089 197.861573 
L 180.156257 195.369854 
L 183.168424 192.878135 
L 186.180592 190.386417 
L 189.19276 187.894698 
L 192.204928 185.402979 
L 195.217095 182.91126 
L 198.229263 180.419542 
L 201.241431 177.927823 
L 204.253598 175.436104 
L 207.265766 172.944385 
L 210.277934 170.452667 
L 213.290101 167.960948 
L 216.302269 165.469229 
L 219.314437 162.977511 
L 222.326605 160.485792 
L 225.338772 157.994073 
L 228.35094 155.502354 
L 231.363108 153.010636 
L 234.375275 150.518917 
L 237.387443 148.027198 
L 240.399611 145.535479 
L 243.411778 143.043761 
L 246.423946 140.552042 
L 249.436114 138.060323 
L 252.448281 135.568605 
L 255.460449 133.076886 
L 258.472617 130.585167 
L 261.484785 128.093448 
L 264.496952 125.60173 
L 267.50912 123.110011 
L 270.521288 120.618292 
L 273.533455 118.126573 
L 276.545623 115.634855 
L 279.557791 113.143136 
L 282.569958 110.651417 
L 285.582126 108.159698 
L 288.594294 105.66798 
L 291.606462 103.176261 
L 294.618629 100.684542 
L 297.630797 98.192824 
L 300.642965 95.701105 
L 303.655132 93.209386 
L 306.6673 90.717667 
L 309.679468 88.225949 
L 312.691635 85.73423 
L 315.703803 83.242511 
L 318.715971 80.750792 
L 321.728139 78.259074 
L 324.740306 75.767355 
L 327.752474 73.275636 
L 330.764642 70.783918 
L 333.776809 68.292199 
L 336.788977 65.80048 
" style="fill:none;stroke:#4c72b0;stroke-linecap:round;stroke-width:2.25;"/>
   </g>
   <g id="line2d_19">
    <path clip-path="url(#p689235d49c)" d="M 118.80422 251.896651 
L 121.103291 249.843095 
L 123.402362 247.789539 
L 125.701433 245.735982 
L 128.000505 243.682426 
L 130.299576 241.62887 
L 132.598647 239.575314 
L 134.897718 237.521757 
L 137.19679 235.468201 
L 139.495861 233.414645 
L 141.794932 231.361089 
L 144.094004 229.307533 
L 146.393075 227.253976 
L 148.692146 225.20042 
L 150.991217 223.146864 
L 153.290289 221.093308 
L 155.58936 219.039751 
L 157.888431 216.986195 
L 160.187502 214.932639 
L 162.486574 212.879083 
L 164.785645 210.825527 
L 167.084716 208.77197 
L 169.383787 206.718414 
L 171.682859 204.664858 
L 173.98193 202.611302 
L 176.281001 200.557746 
L 178.580073 198.504189 
L 180.879144 196.450633 
L 183.178215 194.397077 
L 185.477286 192.343521 
L 187.776358 190.289964 
L 190.075429 188.236408 
L 192.3745 186.182852 
L 194.673571 184.129296 
L 196.972643 182.07574 
L 199.271714 180.022183 
L 201.570785 177.968627 
L 203.869856 175.915071 
L 206.168928 173.861515 
L 208.467999 171.807958 
L 210.76707 169.754402 
L 213.066142 167.700846 
L 215.365213 165.64729 
L 217.664284 163.593734 
L 219.963355 161.540177 
L 222.262427 159.486621 
L 224.561498 157.433065 
L 226.860569 155.379509 
L 229.15964 153.325953 
L 231.458712 151.272396 
L 233.757783 149.21884 
L 236.056854 147.165284 
L 238.355925 145.111728 
L 240.654997 143.058171 
L 242.954068 141.004615 
L 245.253139 138.951059 
L 247.552211 136.897503 
L 249.851282 134.843947 
L 252.150353 132.79039 
L 254.449424 130.736834 
L 256.748496 128.683278 
L 259.047567 126.629722 
L 261.346638 124.576165 
L 263.645709 122.522609 
L 265.944781 120.469053 
L 268.243852 118.415497 
L 270.542923 116.361941 
L 272.841994 114.308384 
L 275.141066 112.254828 
L 277.440137 110.201272 
L 279.739208 108.147716 
L 282.03828 106.09416 
L 284.337351 104.040603 
L 286.636422 101.987047 
L 288.935493 99.933491 
L 291.234565 97.879935 
L 293.533636 95.826378 
L 295.832707 93.772822 
L 298.131778 91.719266 
L 300.43085 89.66571 
L 302.729921 87.612154 
L 305.028992 85.558597 
L 307.328063 83.505041 
L 309.627135 81.451485 
L 311.926206 79.397929 
L 314.225277 77.344372 
L 316.524349 75.290816 
L 318.82342 73.23726 
L 321.122491 71.183704 
L 323.421562 69.130148 
L 325.720634 67.076591 
L 328.019705 65.023035 
L 330.318776 62.969479 
L 332.617847 60.915923 
L 334.916919 58.862367 
L 337.21599 56.80881 
L 339.515061 54.755254 
L 341.814132 52.701698 
L 344.113204 50.648142 
L 346.412275 48.594585 
" style="fill:none;stroke:#dd8452;stroke-linecap:round;stroke-width:2.25;"/>
   </g>
   <g id="patch_3">
    <path d="M 38.584375 335.32 
L 38.584375 25.2 
" style="fill:none;stroke:#ffffff;stroke-linecap:square;stroke-linejoin:miter;stroke-width:0.8;"/>
   </g>
   <g id="patch_4">
    <path d="M 38.584375 335.32 
L 346.412275 335.32 
" style="fill:none;stroke:#ffffff;stroke-linecap:square;stroke-linejoin:miter;stroke-width:0.8;"/>
   </g>
  </g>
  <g id="text_20">
   <!-- True Vs Pred -->
   <defs>
    <path d="M 25.921875 0 
L 25.921875 63.140625 
L 2.34375 63.140625 
L 2.34375 71.578125 
L 59.078125 71.578125 
L 59.078125 63.140625 
L 35.40625 63.140625 
L 35.40625 0 
z
" id="ArialMT-84"/>
    <path id="ArialMT-32"/>
    <path d="M 28.171875 0 
L 0.4375 71.578125 
L 10.6875 71.578125 
L 29.296875 19.578125 
Q 31.546875 13.328125 33.0625 7.859375 
Q 34.71875 13.71875 36.921875 19.578125 
L 56.25 71.578125 
L 65.921875 71.578125 
L 37.890625 0 
z
" id="ArialMT-86"/>
    <path d="M 3.078125 15.484375 
L 11.765625 16.84375 
Q 12.5 11.625 15.84375 8.84375 
Q 19.1875 6.0625 25.203125 6.0625 
Q 31.25 6.0625 34.171875 8.515625 
Q 37.109375 10.984375 37.109375 14.3125 
Q 37.109375 17.28125 34.515625 19 
Q 32.71875 20.171875 25.53125 21.96875 
Q 15.875 24.421875 12.140625 26.203125 
Q 8.40625 27.984375 6.46875 31.125 
Q 4.546875 34.28125 4.546875 38.09375 
Q 4.546875 41.546875 6.125 44.5 
Q 7.71875 47.46875 10.453125 49.421875 
Q 12.5 50.921875 16.03125 51.96875 
Q 19.578125 53.03125 23.640625 53.03125 
Q 29.734375 53.03125 34.34375 51.265625 
Q 38.96875 49.515625 41.15625 46.5 
Q 43.359375 43.5 44.1875 38.484375 
L 35.59375 37.3125 
Q 35.015625 41.3125 32.203125 43.546875 
Q 29.390625 45.796875 24.265625 45.796875 
Q 18.21875 45.796875 15.625 43.796875 
Q 13.03125 41.796875 13.03125 39.109375 
Q 13.03125 37.40625 14.109375 36.03125 
Q 15.1875 34.625 17.484375 33.6875 
Q 18.796875 33.203125 25.25 31.453125 
Q 34.578125 28.953125 38.25 27.359375 
Q 41.9375 25.78125 44.03125 22.75 
Q 46.140625 19.734375 46.140625 15.234375 
Q 46.140625 10.84375 43.578125 6.953125 
Q 41.015625 3.078125 36.171875 0.953125 
Q 31.34375 -1.171875 25.25 -1.171875 
Q 15.140625 -1.171875 9.84375 3.03125 
Q 4.546875 7.234375 3.078125 15.484375 
z
" id="ArialMT-115"/>
    <path d="M 7.71875 0 
L 7.71875 71.578125 
L 34.71875 71.578125 
Q 41.84375 71.578125 45.609375 70.90625 
Q 50.875 70.015625 54.4375 67.546875 
Q 58.015625 65.09375 60.1875 60.640625 
Q 62.359375 56.203125 62.359375 50.875 
Q 62.359375 41.75 56.546875 35.421875 
Q 50.734375 29.109375 35.546875 29.109375 
L 17.1875 29.109375 
L 17.1875 0 
z
M 17.1875 37.546875 
L 35.6875 37.546875 
Q 44.875 37.546875 48.734375 40.96875 
Q 52.59375 44.390625 52.59375 50.59375 
Q 52.59375 55.078125 50.3125 58.265625 
Q 48.046875 61.46875 44.34375 62.5 
Q 41.9375 63.140625 35.5 63.140625 
L 17.1875 63.140625 
z
" id="ArialMT-80"/>
   </defs>
   <g style="fill:#262626;" transform="translate(163.212888 15.789375)scale(0.12 -0.12)">
    <use xlink:href="#ArialMT-84"/>
    <use x="57.333984" xlink:href="#ArialMT-114"/>
    <use x="90.634766" xlink:href="#ArialMT-117"/>
    <use x="146.25" xlink:href="#ArialMT-101"/>
    <use x="201.865234" xlink:href="#ArialMT-32"/>
    <use x="229.648438" xlink:href="#ArialMT-86"/>
    <use x="296.347656" xlink:href="#ArialMT-115"/>
    <use x="346.347656" xlink:href="#ArialMT-32"/>
    <use x="374.130859" xlink:href="#ArialMT-80"/>
    <use x="440.830078" xlink:href="#ArialMT-114"/>
    <use x="474.130859" xlink:href="#ArialMT-101"/>
    <use x="529.746094" xlink:href="#ArialMT-100"/>
   </g>
  </g>
  <g id="legend_1">
   <g id="text_21">
    <!-- tag -->
    <defs>
     <path d="M 40.4375 6.390625 
Q 35.546875 2.25 31.03125 0.53125 
Q 26.515625 -1.171875 21.34375 -1.171875 
Q 12.796875 -1.171875 8.203125 3 
Q 3.609375 7.171875 3.609375 13.671875 
Q 3.609375 17.484375 5.34375 20.625 
Q 7.078125 23.78125 9.890625 25.6875 
Q 12.703125 27.59375 16.21875 28.5625 
Q 18.796875 29.25 24.03125 29.890625 
Q 34.671875 31.15625 39.703125 32.90625 
Q 39.75 34.71875 39.75 35.203125 
Q 39.75 40.578125 37.25 42.78125 
Q 33.890625 45.75 27.25 45.75 
Q 21.046875 45.75 18.09375 43.578125 
Q 15.140625 41.40625 13.71875 35.890625 
L 5.125 37.0625 
Q 6.296875 42.578125 8.984375 45.96875 
Q 11.671875 49.359375 16.75 51.1875 
Q 21.828125 53.03125 28.515625 53.03125 
Q 35.15625 53.03125 39.296875 51.46875 
Q 43.453125 49.90625 45.40625 47.53125 
Q 47.359375 45.171875 48.140625 41.546875 
Q 48.578125 39.3125 48.578125 33.453125 
L 48.578125 21.734375 
Q 48.578125 9.46875 49.140625 6.21875 
Q 49.703125 2.984375 51.375 0 
L 42.1875 0 
Q 40.828125 2.734375 40.4375 6.390625 
z
M 39.703125 26.03125 
Q 34.90625 24.078125 25.34375 22.703125 
Q 19.921875 21.921875 17.671875 20.9375 
Q 15.4375 19.96875 14.203125 18.09375 
Q 12.984375 16.21875 12.984375 13.921875 
Q 12.984375 10.40625 15.640625 8.0625 
Q 18.3125 5.71875 23.4375 5.71875 
Q 28.515625 5.71875 32.46875 7.9375 
Q 36.421875 10.15625 38.28125 14.015625 
Q 39.703125 17 39.703125 22.796875 
z
" id="ArialMT-97"/>
     <path d="M 4.984375 -4.296875 
L 13.53125 -5.5625 
Q 14.0625 -9.515625 16.5 -11.328125 
Q 19.78125 -13.765625 25.4375 -13.765625 
Q 31.546875 -13.765625 34.859375 -11.328125 
Q 38.1875 -8.890625 39.359375 -4.5 
Q 40.046875 -1.8125 39.984375 6.78125 
Q 34.234375 0 25.640625 0 
Q 14.9375 0 9.078125 7.71875 
Q 3.21875 15.4375 3.21875 26.21875 
Q 3.21875 33.640625 5.90625 39.90625 
Q 8.59375 46.1875 13.6875 49.609375 
Q 18.796875 53.03125 25.6875 53.03125 
Q 34.859375 53.03125 40.828125 45.609375 
L 40.828125 51.859375 
L 48.921875 51.859375 
L 48.921875 7.03125 
Q 48.921875 -5.078125 46.453125 -10.125 
Q 44 -15.1875 38.640625 -18.109375 
Q 33.296875 -21.046875 25.484375 -21.046875 
Q 16.21875 -21.046875 10.5 -16.875 
Q 4.78125 -12.703125 4.984375 -4.296875 
z
M 12.25 26.859375 
Q 12.25 16.65625 16.296875 11.96875 
Q 20.359375 7.28125 26.46875 7.28125 
Q 32.515625 7.28125 36.609375 11.9375 
Q 40.71875 16.609375 40.71875 26.5625 
Q 40.71875 36.078125 36.5 40.90625 
Q 32.28125 45.75 26.3125 45.75 
Q 20.453125 45.75 16.34375 40.984375 
Q 12.25 36.234375 12.25 26.859375 
z
" id="ArialMT-103"/>
    </defs>
    <g style="fill:#262626;" transform="translate(368.621794 174.286563)scale(0.1 -0.1)">
     <use xlink:href="#ArialMT-116"/>
     <use x="27.783203" xlink:href="#ArialMT-97"/>
     <use x="83.398438" xlink:href="#ArialMT-103"/>
    </g>
   </g>
   <g id="PathCollection_3">
    <g>
     <use style="fill:#4c72b0;fill-opacity:0.8;stroke:#4c72b0;stroke-opacity:0.8;" x="361.846013" xlink:href="#ma310543708" y="185.924062"/>
    </g>
   </g>
   <g id="text_22">
    <!-- train -->
    <defs>
     <path d="M 6.640625 61.46875 
L 6.640625 71.578125 
L 15.4375 71.578125 
L 15.4375 61.46875 
z
M 6.640625 0 
L 6.640625 51.859375 
L 15.4375 51.859375 
L 15.4375 0 
z
" id="ArialMT-105"/>
     <path d="M 6.59375 0 
L 6.59375 51.859375 
L 14.5 51.859375 
L 14.5 44.484375 
Q 20.21875 53.03125 31 53.03125 
Q 35.6875 53.03125 39.625 51.34375 
Q 43.5625 49.65625 45.515625 46.921875 
Q 47.46875 44.1875 48.25 40.4375 
Q 48.734375 37.984375 48.734375 31.890625 
L 48.734375 0 
L 39.9375 0 
L 39.9375 31.546875 
Q 39.9375 36.921875 38.90625 39.578125 
Q 37.890625 42.234375 35.28125 43.8125 
Q 32.671875 45.40625 29.15625 45.40625 
Q 23.53125 45.40625 19.453125 41.84375 
Q 15.375 38.28125 15.375 28.328125 
L 15.375 0 
z
" id="ArialMT-110"/>
    </defs>
    <g style="fill:#262626;" transform="translate(379.846013 188.549062)scale(0.1 -0.1)">
     <use xlink:href="#ArialMT-116"/>
     <use x="27.783203" xlink:href="#ArialMT-114"/>
     <use x="61.083984" xlink:href="#ArialMT-97"/>
     <use x="116.699219" xlink:href="#ArialMT-105"/>
     <use x="138.916016" xlink:href="#ArialMT-110"/>
    </g>
   </g>
   <g id="PathCollection_4">
    <g>
     <use style="fill:#dd8452;fill-opacity:0.8;stroke:#dd8452;stroke-opacity:0.8;" x="361.846013" xlink:href="#m955e837bd5" y="200.069375"/>
    </g>
   </g>
   <g id="text_23">
    <!-- test -->
    <g style="fill:#262626;" transform="translate(379.846013 202.694375)scale(0.1 -0.1)">
     <use xlink:href="#ArialMT-116"/>
     <use x="27.783203" xlink:href="#ArialMT-101"/>
     <use x="83.398438" xlink:href="#ArialMT-115"/>
     <use x="133.398438" xlink:href="#ArialMT-116"/>
    </g>
   </g>
  </g>
 </g>
 <defs>
  <clipPath id="p689235d49c">
   <rect height="310.12" width="307.8279" x="38.584375" y="25.2"/>
  </clipPath>
 </defs>
</svg>
