<?xml version="1.0" encoding="utf-8" standalone="no"?>
<!DOCTYPE svg PUBLIC "-//W3C//DTD SVG 1.1//EN"
  "http://www.w3.org/Graphics/SVG/1.1/DTD/svg11.dtd">
<!-- Created with matplotlib (https://matplotlib.org/) -->
<svg height="384.58625pt" version="1.1" viewBox="0 0 916.708125 384.58625" width="916.708125pt" xmlns="http://www.w3.org/2000/svg" xmlns:xlink="http://www.w3.org/1999/xlink">
 <defs>
  <style type="text/css">
*{stroke-linecap:butt;stroke-linejoin:round;}
  </style>
 </defs>
 <g id="figure_1">
  <g id="patch_1">
   <path d="M 0 384.58625 
L 916.708125 384.58625 
L 916.708125 0 
L 0 0 
z
" style="fill:none;"/>
  </g>
  <g id="axes_1">
   <g id="patch_2">
    <path d="M 44.028125 348.095625 
L 713.628125 348.095625 
L 713.628125 21.935625 
L 44.028125 21.935625 
z
" style="fill:#e6e6e6;"/>
   </g>
   <g id="matplotlib.axis_1">
    <g id="xtick_1">
     <g id="line2d_1">
      <path clip-path="url(#p194f3a9f75)" d="M 71.098255 348.095625 
L 71.098255 21.935625 
" style="fill:none;stroke:#cccccc;stroke-linecap:round;stroke-width:0.8;"/>
     </g>
     <g id="text_1">
      <!-- 2018-01 -->
      <defs>
       <path d="M 50.34375 8.453125 
L 50.34375 0 
L 3.03125 0 
Q 2.9375 3.171875 4.046875 6.109375 
Q 5.859375 10.9375 9.828125 15.625 
Q 13.8125 20.3125 21.34375 26.46875 
Q 33.015625 36.03125 37.109375 41.625 
Q 41.21875 47.21875 41.21875 52.203125 
Q 41.21875 57.421875 37.46875 61 
Q 33.734375 64.59375 27.734375 64.59375 
Q 21.390625 64.59375 17.578125 60.78125 
Q 13.765625 56.984375 13.71875 50.25 
L 4.6875 51.171875 
Q 5.609375 61.28125 11.65625 66.578125 
Q 17.71875 71.875 27.9375 71.875 
Q 38.234375 71.875 44.234375 66.15625 
Q 50.25 60.453125 50.25 52 
Q 50.25 47.703125 48.484375 43.546875 
Q 46.734375 39.40625 42.65625 34.8125 
Q 38.578125 30.21875 29.109375 22.21875 
Q 21.1875 15.578125 18.9375 13.203125 
Q 16.703125 10.84375 15.234375 8.453125 
z
" id="ArialMT-50"/>
       <path d="M 4.15625 35.296875 
Q 4.15625 48 6.765625 55.734375 
Q 9.375 63.484375 14.515625 67.671875 
Q 19.671875 71.875 27.484375 71.875 
Q 33.25 71.875 37.59375 69.546875 
Q 41.9375 67.234375 44.765625 62.859375 
Q 47.609375 58.5 49.21875 52.21875 
Q 50.828125 45.953125 50.828125 35.296875 
Q 50.828125 22.703125 48.234375 14.96875 
Q 45.65625 7.234375 40.5 3 
Q 35.359375 -1.21875 27.484375 -1.21875 
Q 17.140625 -1.21875 11.234375 6.203125 
Q 4.15625 15.140625 4.15625 35.296875 
z
M 13.1875 35.296875 
Q 13.1875 17.671875 17.3125 11.828125 
Q 21.4375 6 27.484375 6 
Q 33.546875 6 37.671875 11.859375 
Q 41.796875 17.71875 41.796875 35.296875 
Q 41.796875 52.984375 37.671875 58.78125 
Q 33.546875 64.59375 27.390625 64.59375 
Q 21.34375 64.59375 17.71875 59.46875 
Q 13.1875 52.9375 13.1875 35.296875 
z
" id="ArialMT-48"/>
       <path d="M 37.25 0 
L 28.46875 0 
L 28.46875 56 
Q 25.296875 52.984375 20.140625 49.953125 
Q 14.984375 46.921875 10.890625 45.40625 
L 10.890625 53.90625 
Q 18.265625 57.375 23.78125 62.296875 
Q 29.296875 67.234375 31.59375 71.875 
L 37.25 71.875 
z
" id="ArialMT-49"/>
       <path d="M 17.671875 38.8125 
Q 12.203125 40.828125 9.5625 44.53125 
Q 6.9375 48.25 6.9375 53.421875 
Q 6.9375 61.234375 12.546875 66.546875 
Q 18.171875 71.875 27.484375 71.875 
Q 36.859375 71.875 42.578125 66.421875 
Q 48.296875 60.984375 48.296875 53.171875 
Q 48.296875 48.1875 45.671875 44.5 
Q 43.0625 40.828125 37.75 38.8125 
Q 44.34375 36.671875 47.78125 31.875 
Q 51.21875 27.09375 51.21875 20.453125 
Q 51.21875 11.28125 44.71875 5.03125 
Q 38.234375 -1.21875 27.640625 -1.21875 
Q 17.046875 -1.21875 10.546875 5.046875 
Q 4.046875 11.328125 4.046875 20.703125 
Q 4.046875 27.6875 7.59375 32.390625 
Q 11.140625 37.109375 17.671875 38.8125 
z
M 15.921875 53.71875 
Q 15.921875 48.640625 19.1875 45.40625 
Q 22.46875 42.1875 27.6875 42.1875 
Q 32.765625 42.1875 36.015625 45.375 
Q 39.265625 48.578125 39.265625 53.21875 
Q 39.265625 58.0625 35.90625 61.359375 
Q 32.5625 64.65625 27.59375 64.65625 
Q 22.5625 64.65625 19.234375 61.421875 
Q 15.921875 58.203125 15.921875 53.71875 
z
M 13.09375 20.65625 
Q 13.09375 16.890625 14.875 13.375 
Q 16.65625 9.859375 20.171875 7.921875 
Q 23.6875 6 27.734375 6 
Q 34.03125 6 38.125 10.046875 
Q 42.234375 14.109375 42.234375 20.359375 
Q 42.234375 26.703125 38.015625 30.859375 
Q 33.796875 35.015625 27.4375 35.015625 
Q 21.234375 35.015625 17.15625 30.90625 
Q 13.09375 26.8125 13.09375 20.65625 
z
" id="ArialMT-56"/>
       <path d="M 3.171875 21.484375 
L 3.171875 30.328125 
L 30.171875 30.328125 
L 30.171875 21.484375 
z
" id="ArialMT-45"/>
      </defs>
      <g style="fill:#262626;" transform="translate(52.750599 362.253438)scale(0.1 -0.1)">
       <use xlink:href="#ArialMT-50"/>
       <use x="55.615234" xlink:href="#ArialMT-48"/>
       <use x="111.230469" xlink:href="#ArialMT-49"/>
       <use x="166.845703" xlink:href="#ArialMT-56"/>
       <use x="222.460938" xlink:href="#ArialMT-45"/>
       <use x="255.761719" xlink:href="#ArialMT-48"/>
       <use x="311.376953" xlink:href="#ArialMT-49"/>
      </g>
     </g>
    </g>
    <g id="xtick_2">
     <g id="line2d_2">
      <path clip-path="url(#p194f3a9f75)" d="M 138.42293 348.095625 
L 138.42293 21.935625 
" style="fill:none;stroke:#cccccc;stroke-linecap:round;stroke-width:0.8;"/>
     </g>
     <g id="text_2">
      <!-- 2018-05 -->
      <defs>
       <path d="M 4.15625 18.75 
L 13.375 19.53125 
Q 14.40625 12.796875 18.140625 9.390625 
Q 21.875 6 27.15625 6 
Q 33.5 6 37.890625 10.78125 
Q 42.28125 15.578125 42.28125 23.484375 
Q 42.28125 31 38.0625 35.34375 
Q 33.84375 39.703125 27 39.703125 
Q 22.75 39.703125 19.328125 37.765625 
Q 15.921875 35.84375 13.96875 32.765625 
L 5.71875 33.84375 
L 12.640625 70.609375 
L 48.25 70.609375 
L 48.25 62.203125 
L 19.671875 62.203125 
L 15.828125 42.96875 
Q 22.265625 47.46875 29.34375 47.46875 
Q 38.71875 47.46875 45.15625 40.96875 
Q 51.609375 34.46875 51.609375 24.265625 
Q 51.609375 14.546875 45.953125 7.46875 
Q 39.0625 -1.21875 27.15625 -1.21875 
Q 17.390625 -1.21875 11.203125 4.25 
Q 5.03125 9.71875 4.15625 18.75 
z
" id="ArialMT-53"/>
      </defs>
      <g style="fill:#262626;" transform="translate(120.075274 362.253438)scale(0.1 -0.1)">
       <use xlink:href="#ArialMT-50"/>
       <use x="55.615234" xlink:href="#ArialMT-48"/>
       <use x="111.230469" xlink:href="#ArialMT-49"/>
       <use x="166.845703" xlink:href="#ArialMT-56"/>
       <use x="222.460938" xlink:href="#ArialMT-45"/>
       <use x="255.761719" xlink:href="#ArialMT-48"/>
       <use x="311.376953" xlink:href="#ArialMT-53"/>
      </g>
     </g>
    </g>
    <g id="xtick_3">
     <g id="line2d_3">
      <path clip-path="url(#p194f3a9f75)" d="M 207.430722 348.095625 
L 207.430722 21.935625 
" style="fill:none;stroke:#cccccc;stroke-linecap:round;stroke-width:0.8;"/>
     </g>
     <g id="text_3">
      <!-- 2018-09 -->
      <defs>
       <path d="M 5.46875 16.546875 
L 13.921875 17.328125 
Q 14.984375 11.375 18.015625 8.6875 
Q 21.046875 6 25.78125 6 
Q 29.828125 6 32.875 7.859375 
Q 35.9375 9.71875 37.890625 12.8125 
Q 39.84375 15.921875 41.15625 21.1875 
Q 42.484375 26.46875 42.484375 31.9375 
Q 42.484375 32.515625 42.4375 33.6875 
Q 39.796875 29.5 35.234375 26.875 
Q 30.671875 24.265625 25.34375 24.265625 
Q 16.453125 24.265625 10.296875 30.703125 
Q 4.15625 37.15625 4.15625 47.703125 
Q 4.15625 58.59375 10.578125 65.234375 
Q 17 71.875 26.65625 71.875 
Q 33.640625 71.875 39.421875 68.109375 
Q 45.21875 64.359375 48.21875 57.390625 
Q 51.21875 50.4375 51.21875 37.25 
Q 51.21875 23.53125 48.234375 15.40625 
Q 45.265625 7.28125 39.375 3.03125 
Q 33.5 -1.21875 25.59375 -1.21875 
Q 17.1875 -1.21875 11.859375 3.4375 
Q 6.546875 8.109375 5.46875 16.546875 
z
M 41.453125 48.140625 
Q 41.453125 55.71875 37.421875 60.15625 
Q 33.40625 64.59375 27.734375 64.59375 
Q 21.875 64.59375 17.53125 59.8125 
Q 13.1875 55.03125 13.1875 47.40625 
Q 13.1875 40.578125 17.3125 36.296875 
Q 21.4375 32.03125 27.484375 32.03125 
Q 33.59375 32.03125 37.515625 36.296875 
Q 41.453125 40.578125 41.453125 48.140625 
z
" id="ArialMT-57"/>
      </defs>
      <g style="fill:#262626;" transform="translate(189.083066 362.253438)scale(0.1 -0.1)">
       <use xlink:href="#ArialMT-50"/>
       <use x="55.615234" xlink:href="#ArialMT-48"/>
       <use x="111.230469" xlink:href="#ArialMT-49"/>
       <use x="166.845703" xlink:href="#ArialMT-56"/>
       <use x="222.460938" xlink:href="#ArialMT-45"/>
       <use x="255.761719" xlink:href="#ArialMT-48"/>
       <use x="311.376953" xlink:href="#ArialMT-57"/>
      </g>
     </g>
    </g>
    <g id="xtick_4">
     <g id="line2d_4">
      <path clip-path="url(#p194f3a9f75)" d="M 275.877476 348.095625 
L 275.877476 21.935625 
" style="fill:none;stroke:#cccccc;stroke-linecap:round;stroke-width:0.8;"/>
     </g>
     <g id="text_4">
      <!-- 2019-01 -->
      <g style="fill:#262626;" transform="translate(257.529819 362.253438)scale(0.1 -0.1)">
       <use xlink:href="#ArialMT-50"/>
       <use x="55.615234" xlink:href="#ArialMT-48"/>
       <use x="111.230469" xlink:href="#ArialMT-49"/>
       <use x="166.845703" xlink:href="#ArialMT-57"/>
       <use x="222.460938" xlink:href="#ArialMT-45"/>
       <use x="255.761719" xlink:href="#ArialMT-48"/>
       <use x="311.376953" xlink:href="#ArialMT-49"/>
      </g>
     </g>
    </g>
    <g id="xtick_5">
     <g id="line2d_5">
      <path clip-path="url(#p194f3a9f75)" d="M 343.202151 348.095625 
L 343.202151 21.935625 
" style="fill:none;stroke:#cccccc;stroke-linecap:round;stroke-width:0.8;"/>
     </g>
     <g id="text_5">
      <!-- 2019-05 -->
      <g style="fill:#262626;" transform="translate(324.854495 362.253438)scale(0.1 -0.1)">
       <use xlink:href="#ArialMT-50"/>
       <use x="55.615234" xlink:href="#ArialMT-48"/>
       <use x="111.230469" xlink:href="#ArialMT-49"/>
       <use x="166.845703" xlink:href="#ArialMT-57"/>
       <use x="222.460938" xlink:href="#ArialMT-45"/>
       <use x="255.761719" xlink:href="#ArialMT-48"/>
       <use x="311.376953" xlink:href="#ArialMT-53"/>
      </g>
     </g>
    </g>
    <g id="xtick_6">
     <g id="line2d_6">
      <path clip-path="url(#p194f3a9f75)" d="M 412.209943 348.095625 
L 412.209943 21.935625 
" style="fill:none;stroke:#cccccc;stroke-linecap:round;stroke-width:0.8;"/>
     </g>
     <g id="text_6">
      <!-- 2019-09 -->
      <g style="fill:#262626;" transform="translate(393.862287 362.253438)scale(0.1 -0.1)">
       <use xlink:href="#ArialMT-50"/>
       <use x="55.615234" xlink:href="#ArialMT-48"/>
       <use x="111.230469" xlink:href="#ArialMT-49"/>
       <use x="166.845703" xlink:href="#ArialMT-57"/>
       <use x="222.460938" xlink:href="#ArialMT-45"/>
       <use x="255.761719" xlink:href="#ArialMT-48"/>
       <use x="311.376953" xlink:href="#ArialMT-57"/>
      </g>
     </g>
    </g>
    <g id="xtick_7">
     <g id="line2d_7">
      <path clip-path="url(#p194f3a9f75)" d="M 480.656696 348.095625 
L 480.656696 21.935625 
" style="fill:none;stroke:#cccccc;stroke-linecap:round;stroke-width:0.8;"/>
     </g>
     <g id="text_7">
      <!-- 2020-01 -->
      <g style="fill:#262626;" transform="translate(462.30904 362.253438)scale(0.1 -0.1)">
       <use xlink:href="#ArialMT-50"/>
       <use x="55.615234" xlink:href="#ArialMT-48"/>
       <use x="111.230469" xlink:href="#ArialMT-50"/>
       <use x="166.845703" xlink:href="#ArialMT-48"/>
       <use x="222.460938" xlink:href="#ArialMT-45"/>
       <use x="255.761719" xlink:href="#ArialMT-48"/>
       <use x="311.376953" xlink:href="#ArialMT-49"/>
      </g>
     </g>
    </g>
    <g id="xtick_8">
     <g id="line2d_8">
      <path clip-path="url(#p194f3a9f75)" d="M 548.542411 348.095625 
L 548.542411 21.935625 
" style="fill:none;stroke:#cccccc;stroke-linecap:round;stroke-width:0.8;"/>
     </g>
     <g id="text_8">
      <!-- 2020-05 -->
      <g style="fill:#262626;" transform="translate(530.194754 362.253438)scale(0.1 -0.1)">
       <use xlink:href="#ArialMT-50"/>
       <use x="55.615234" xlink:href="#ArialMT-48"/>
       <use x="111.230469" xlink:href="#ArialMT-50"/>
       <use x="166.845703" xlink:href="#ArialMT-48"/>
       <use x="222.460938" xlink:href="#ArialMT-45"/>
       <use x="255.761719" xlink:href="#ArialMT-48"/>
       <use x="311.376953" xlink:href="#ArialMT-53"/>
      </g>
     </g>
    </g>
    <g id="xtick_9">
     <g id="line2d_9">
      <path clip-path="url(#p194f3a9f75)" d="M 617.550203 348.095625 
L 617.550203 21.935625 
" style="fill:none;stroke:#cccccc;stroke-linecap:round;stroke-width:0.8;"/>
     </g>
     <g id="text_9">
      <!-- 2020-09 -->
      <g style="fill:#262626;" transform="translate(599.202547 362.253438)scale(0.1 -0.1)">
       <use xlink:href="#ArialMT-50"/>
       <use x="55.615234" xlink:href="#ArialMT-48"/>
       <use x="111.230469" xlink:href="#ArialMT-50"/>
       <use x="166.845703" xlink:href="#ArialMT-48"/>
       <use x="222.460938" xlink:href="#ArialMT-45"/>
       <use x="255.761719" xlink:href="#ArialMT-48"/>
       <use x="311.376953" xlink:href="#ArialMT-57"/>
      </g>
     </g>
    </g>
    <g id="xtick_10">
     <g id="line2d_10">
      <path clip-path="url(#p194f3a9f75)" d="M 685.996956 348.095625 
L 685.996956 21.935625 
" style="fill:none;stroke:#cccccc;stroke-linecap:round;stroke-width:0.8;"/>
     </g>
     <g id="text_10">
      <!-- 2021-01 -->
      <g style="fill:#262626;" transform="translate(667.6493 362.253438)scale(0.1 -0.1)">
       <use xlink:href="#ArialMT-50"/>
       <use x="55.615234" xlink:href="#ArialMT-48"/>
       <use x="111.230469" xlink:href="#ArialMT-50"/>
       <use x="166.845703" xlink:href="#ArialMT-49"/>
       <use x="222.460938" xlink:href="#ArialMT-45"/>
       <use x="255.761719" xlink:href="#ArialMT-48"/>
       <use x="311.376953" xlink:href="#ArialMT-49"/>
      </g>
     </g>
    </g>
    <g id="text_11">
     <!-- date -->
     <defs>
      <path d="M 40.234375 0 
L 40.234375 6.546875 
Q 35.296875 -1.171875 25.734375 -1.171875 
Q 19.53125 -1.171875 14.328125 2.25 
Q 9.125 5.671875 6.265625 11.796875 
Q 3.421875 17.921875 3.421875 25.875 
Q 3.421875 33.640625 6 39.96875 
Q 8.59375 46.296875 13.765625 49.65625 
Q 18.953125 53.03125 25.34375 53.03125 
Q 30.03125 53.03125 33.6875 51.046875 
Q 37.359375 49.078125 39.65625 45.90625 
L 39.65625 71.578125 
L 48.390625 71.578125 
L 48.390625 0 
z
M 12.453125 25.875 
Q 12.453125 15.921875 16.640625 10.984375 
Q 20.84375 6.0625 26.5625 6.0625 
Q 32.328125 6.0625 36.34375 10.765625 
Q 40.375 15.484375 40.375 25.140625 
Q 40.375 35.796875 36.265625 40.765625 
Q 32.171875 45.75 26.171875 45.75 
Q 20.3125 45.75 16.375 40.96875 
Q 12.453125 36.1875 12.453125 25.875 
z
" id="ArialMT-100"/>
      <path d="M 40.4375 6.390625 
Q 35.546875 2.25 31.03125 0.53125 
Q 26.515625 -1.171875 21.34375 -1.171875 
Q 12.796875 -1.171875 8.203125 3 
Q 3.609375 7.171875 3.609375 13.671875 
Q 3.609375 17.484375 5.34375 20.625 
Q 7.078125 23.78125 9.890625 25.6875 
Q 12.703125 27.59375 16.21875 28.5625 
Q 18.796875 29.25 24.03125 29.890625 
Q 34.671875 31.15625 39.703125 32.90625 
Q 39.75 34.71875 39.75 35.203125 
Q 39.75 40.578125 37.25 42.78125 
Q 33.890625 45.75 27.25 45.75 
Q 21.046875 45.75 18.09375 43.578125 
Q 15.140625 41.40625 13.71875 35.890625 
L 5.125 37.0625 
Q 6.296875 42.578125 8.984375 45.96875 
Q 11.671875 49.359375 16.75 51.1875 
Q 21.828125 53.03125 28.515625 53.03125 
Q 35.15625 53.03125 39.296875 51.46875 
Q 43.453125 49.90625 45.40625 47.53125 
Q 47.359375 45.171875 48.140625 41.546875 
Q 48.578125 39.3125 48.578125 33.453125 
L 48.578125 21.734375 
Q 48.578125 9.46875 49.140625 6.21875 
Q 49.703125 2.984375 51.375 0 
L 42.1875 0 
Q 40.828125 2.734375 40.4375 6.390625 
z
M 39.703125 26.03125 
Q 34.90625 24.078125 25.34375 22.703125 
Q 19.921875 21.921875 17.671875 20.9375 
Q 15.4375 19.96875 14.203125 18.09375 
Q 12.984375 16.21875 12.984375 13.921875 
Q 12.984375 10.40625 15.640625 8.0625 
Q 18.3125 5.71875 23.4375 5.71875 
Q 28.515625 5.71875 32.46875 7.9375 
Q 36.421875 10.15625 38.28125 14.015625 
Q 39.703125 17 39.703125 22.796875 
z
" id="ArialMT-97"/>
      <path d="M 25.78125 7.859375 
L 27.046875 0.09375 
Q 23.34375 -0.6875 20.40625 -0.6875 
Q 15.625 -0.6875 12.984375 0.828125 
Q 10.359375 2.34375 9.28125 4.8125 
Q 8.203125 7.28125 8.203125 15.1875 
L 8.203125 45.015625 
L 1.765625 45.015625 
L 1.765625 51.859375 
L 8.203125 51.859375 
L 8.203125 64.703125 
L 16.9375 69.96875 
L 16.9375 51.859375 
L 25.78125 51.859375 
L 25.78125 45.015625 
L 16.9375 45.015625 
L 16.9375 14.703125 
Q 16.9375 10.9375 17.40625 9.859375 
Q 17.875 8.796875 18.921875 8.15625 
Q 19.96875 7.515625 21.921875 7.515625 
Q 23.390625 7.515625 25.78125 7.859375 
z
" id="ArialMT-116"/>
      <path d="M 42.09375 16.703125 
L 51.171875 15.578125 
Q 49.03125 7.625 43.21875 3.21875 
Q 37.40625 -1.171875 28.375 -1.171875 
Q 17 -1.171875 10.328125 5.828125 
Q 3.65625 12.84375 3.65625 25.484375 
Q 3.65625 38.578125 10.390625 45.796875 
Q 17.140625 53.03125 27.875 53.03125 
Q 38.28125 53.03125 44.875 45.953125 
Q 51.46875 38.875 51.46875 26.03125 
Q 51.46875 25.25 51.421875 23.6875 
L 12.75 23.6875 
Q 13.234375 15.140625 17.578125 10.59375 
Q 21.921875 6.0625 28.421875 6.0625 
Q 33.25 6.0625 36.671875 8.59375 
Q 40.09375 11.140625 42.09375 16.703125 
z
M 13.234375 30.90625 
L 42.1875 30.90625 
Q 41.609375 37.453125 38.875 40.71875 
Q 34.671875 45.796875 27.984375 45.796875 
Q 21.921875 45.796875 17.796875 41.75 
Q 13.671875 37.703125 13.234375 30.90625 
z
" id="ArialMT-101"/>
     </defs>
     <g style="fill:#262626;" transform="translate(369.097656 375.39875)scale(0.1 -0.1)">
      <use xlink:href="#ArialMT-100"/>
      <use x="55.615234" xlink:href="#ArialMT-97"/>
      <use x="111.230469" xlink:href="#ArialMT-116"/>
      <use x="139.013672" xlink:href="#ArialMT-101"/>
     </g>
    </g>
   </g>
   <g id="matplotlib.axis_2">
    <g id="ytick_1">
     <g id="line2d_11">
      <path clip-path="url(#p194f3a9f75)" d="M 44.028125 343.145441 
L 713.628125 343.145441 
" style="fill:none;stroke:#cccccc;stroke-linecap:round;stroke-width:0.8;"/>
     </g>
     <g id="text_12">
      <!-- 0 -->
      <g style="fill:#262626;" transform="translate(31.467188 346.724347)scale(0.1 -0.1)">
       <use xlink:href="#ArialMT-48"/>
      </g>
     </g>
    </g>
    <g id="ytick_2">
     <g id="line2d_12">
      <path clip-path="url(#p194f3a9f75)" d="M 44.028125 281.667892 
L 713.628125 281.667892 
" style="fill:none;stroke:#cccccc;stroke-linecap:round;stroke-width:0.8;"/>
     </g>
     <g id="text_13">
      <!-- 20 -->
      <g style="fill:#262626;" transform="translate(25.90625 285.246798)scale(0.1 -0.1)">
       <use xlink:href="#ArialMT-50"/>
       <use x="55.615234" xlink:href="#ArialMT-48"/>
      </g>
     </g>
    </g>
    <g id="ytick_3">
     <g id="line2d_13">
      <path clip-path="url(#p194f3a9f75)" d="M 44.028125 220.190343 
L 713.628125 220.190343 
" style="fill:none;stroke:#cccccc;stroke-linecap:round;stroke-width:0.8;"/>
     </g>
     <g id="text_14">
      <!-- 40 -->
      <defs>
       <path d="M 32.328125 0 
L 32.328125 17.140625 
L 1.265625 17.140625 
L 1.265625 25.203125 
L 33.9375 71.578125 
L 41.109375 71.578125 
L 41.109375 25.203125 
L 50.78125 25.203125 
L 50.78125 17.140625 
L 41.109375 17.140625 
L 41.109375 0 
z
M 32.328125 25.203125 
L 32.328125 57.46875 
L 9.90625 25.203125 
z
" id="ArialMT-52"/>
      </defs>
      <g style="fill:#262626;" transform="translate(25.90625 223.769249)scale(0.1 -0.1)">
       <use xlink:href="#ArialMT-52"/>
       <use x="55.615234" xlink:href="#ArialMT-48"/>
      </g>
     </g>
    </g>
    <g id="ytick_4">
     <g id="line2d_14">
      <path clip-path="url(#p194f3a9f75)" d="M 44.028125 158.712794 
L 713.628125 158.712794 
" style="fill:none;stroke:#cccccc;stroke-linecap:round;stroke-width:0.8;"/>
     </g>
     <g id="text_15">
      <!-- 60 -->
      <defs>
       <path d="M 49.75 54.046875 
L 41.015625 53.375 
Q 39.84375 58.546875 37.703125 60.890625 
Q 34.125 64.65625 28.90625 64.65625 
Q 24.703125 64.65625 21.53125 62.3125 
Q 17.390625 59.28125 14.984375 53.46875 
Q 12.59375 47.65625 12.5 36.921875 
Q 15.671875 41.75 20.265625 44.09375 
Q 24.859375 46.4375 29.890625 46.4375 
Q 38.671875 46.4375 44.84375 39.96875 
Q 51.03125 33.5 51.03125 23.25 
Q 51.03125 16.5 48.125 10.71875 
Q 45.21875 4.9375 40.140625 1.859375 
Q 35.0625 -1.21875 28.609375 -1.21875 
Q 17.625 -1.21875 10.6875 6.859375 
Q 3.765625 14.9375 3.765625 33.5 
Q 3.765625 54.25 11.421875 63.671875 
Q 18.109375 71.875 29.4375 71.875 
Q 37.890625 71.875 43.28125 67.140625 
Q 48.6875 62.40625 49.75 54.046875 
z
M 13.875 23.1875 
Q 13.875 18.65625 15.796875 14.5 
Q 17.71875 10.359375 21.1875 8.171875 
Q 24.65625 6 28.46875 6 
Q 34.03125 6 38.03125 10.484375 
Q 42.046875 14.984375 42.046875 22.703125 
Q 42.046875 30.125 38.078125 34.390625 
Q 34.125 38.671875 28.125 38.671875 
Q 22.171875 38.671875 18.015625 34.390625 
Q 13.875 30.125 13.875 23.1875 
z
" id="ArialMT-54"/>
      </defs>
      <g style="fill:#262626;" transform="translate(25.90625 162.2917)scale(0.1 -0.1)">
       <use xlink:href="#ArialMT-54"/>
       <use x="55.615234" xlink:href="#ArialMT-48"/>
      </g>
     </g>
    </g>
    <g id="ytick_5">
     <g id="line2d_15">
      <path clip-path="url(#p194f3a9f75)" d="M 44.028125 97.235245 
L 713.628125 97.235245 
" style="fill:none;stroke:#cccccc;stroke-linecap:round;stroke-width:0.8;"/>
     </g>
     <g id="text_16">
      <!-- 80 -->
      <g style="fill:#262626;" transform="translate(25.90625 100.814151)scale(0.1 -0.1)">
       <use xlink:href="#ArialMT-56"/>
       <use x="55.615234" xlink:href="#ArialMT-48"/>
      </g>
     </g>
    </g>
    <g id="ytick_6">
     <g id="line2d_16">
      <path clip-path="url(#p194f3a9f75)" d="M 44.028125 35.757696 
L 713.628125 35.757696 
" style="fill:none;stroke:#cccccc;stroke-linecap:round;stroke-width:0.8;"/>
     </g>
     <g id="text_17">
      <!-- 100 -->
      <g style="fill:#262626;" transform="translate(20.345313 39.336602)scale(0.1 -0.1)">
       <use xlink:href="#ArialMT-49"/>
       <use x="55.615234" xlink:href="#ArialMT-48"/>
       <use x="111.230469" xlink:href="#ArialMT-48"/>
      </g>
     </g>
    </g>
    <g id="text_18">
     <!-- y -->
     <defs>
      <path d="M 6.203125 -19.96875 
L 5.21875 -11.71875 
Q 8.109375 -12.5 10.25 -12.5 
Q 13.1875 -12.5 14.9375 -11.515625 
Q 16.703125 -10.546875 17.828125 -8.796875 
Q 18.65625 -7.46875 20.515625 -2.25 
Q 20.75 -1.515625 21.296875 -0.09375 
L 1.609375 51.859375 
L 11.078125 51.859375 
L 21.875 21.828125 
Q 23.96875 16.109375 25.640625 9.8125 
Q 27.15625 15.875 29.25 21.625 
L 40.328125 51.859375 
L 49.125 51.859375 
L 29.390625 -0.875 
Q 26.21875 -9.421875 24.46875 -12.640625 
Q 22.125 -17 19.09375 -19.015625 
Q 16.0625 -21.046875 11.859375 -21.046875 
Q 9.328125 -21.046875 6.203125 -19.96875 
z
" id="ArialMT-121"/>
     </defs>
     <g style="fill:#262626;" transform="translate(14.240625 187.515625)rotate(-90)scale(0.1 -0.1)">
      <use xlink:href="#ArialMT-121"/>
     </g>
    </g>
   </g>
   <g id="PolyCollection_1">
    <defs>
     <path d="M 74.464489 -104.414085 
L 74.464489 -77.723344 
L 78.391761 -157.873673 
L 82.319034 -126.035254 
L 86.246307 -140.472382 
L 90.17358 -152.134364 
L 94.100852 -161.78217 
L 98.028125 -116.823446 
L 101.955398 -217.160435 
L 105.88267 -181.777383 
L 109.809943 -185.966417 
L 113.737216 -131.406854 
L 117.664489 -242.530112 
L 121.591761 -192.242307 
L 125.519034 -192.441339 
L 129.446307 -191.795761 
L 133.37358 -190.371152 
L 137.300852 -188.237498 
L 141.228125 -185.469494 
L 145.155398 -182.146498 
L 149.08267 -178.352205 
L 153.009943 -174.174097 
L 156.937216 -127.043816 
L 160.864489 -165.030721 
L 164.791761 -160.252007 
L 168.719034 -155.460485 
L 172.646307 -150.748985 
L 176.57358 -146.208052 
L 180.500852 -141.924741 
L 184.428125 -137.981437 
L 188.355398 -80.460667 
L 192.28267 -131.414243 
L 196.209943 -128.921841 
L 200.137216 -75.280628 
L 204.064489 -174.587193 
L 207.991761 -175.793992 
L 211.919034 -125.347403 
L 215.846307 -126.192123 
L 219.77358 -79.860157 
L 223.700852 -130.011018 
L 227.628125 -132.953498 
L 231.555398 -91.544373 
L 235.48267 -140.745804 
L 239.409943 -89.616728 
L 243.337216 -195.454874 
L 247.264489 -156.440521 
L 251.191761 -162.481314 
L 255.119034 -168.800524 
L 259.046307 -175.315986 
L 262.97358 -181.943023 
L 266.900852 -188.595709 
L 270.828125 -246.304678 
L 274.755398 -201.635378 
L 278.68267 -256.223909 
L 282.609943 -257.395897 
L 286.537216 -219.639103 
L 290.464489 -270.821385 
L 294.391761 -180.248621 
L 298.319034 -233.165175 
L 302.246307 -182.314439 
L 306.17358 -239.165181 
L 310.100852 -241.143218 
L 314.028125 -242.409511 
L 317.955398 -242.953515 
L 321.88267 -242.774744 
L 325.809943 -241.882798 
L 329.737216 -240.297252 
L 333.664489 -195.855345 
L 337.591761 -235.171889 
L 341.519034 -181.488862 
L 345.446307 -280.398461 
L 349.37358 -223.305871 
L 353.300852 -218.479947 
L 357.228125 -154.678341 
L 361.155398 -207.96343 
L 365.08267 -202.435831 
L 369.009943 -196.841968 
L 372.937216 -191.268512 
L 376.864489 -135.521283 
L 380.791761 -180.527677 
L 384.719034 -130.330052 
L 388.646307 -210.228447 
L 392.57358 -166.662855 
L 396.500852 -162.938401 
L 400.428125 -108.06757 
L 404.355398 -157.205927 
L 408.28267 -155.292877 
L 412.209943 -154.062832 
L 416.137216 -153.538756 
L 420.064489 -195.744209 
L 423.991761 -154.647058 
L 427.919034 -111.250794 
L 431.846307 -158.587008 
L 435.77358 -161.562849 
L 439.700852 -165.159345 
L 443.628125 -169.327585 
L 447.555398 -174.010431 
L 451.48267 -179.143448 
L 455.409943 -184.655913 
L 459.337216 -133.834799 
L 463.264489 -150.028991 
L 467.191761 -146.851107 
L 471.119034 -208.927024 
L 475.046307 -215.133127 
L 478.97358 -221.224825 
L 478.97358 -234.438575 
L 478.97358 -234.438575 
L 475.046307 -228.043304 
L 471.119034 -221.540082 
L 467.191761 -163.436504 
L 463.264489 -165.159378 
L 459.337216 -150.119256 
L 455.409943 -196.242453 
L 451.48267 -190.531623 
L 447.555398 -185.227274 
L 443.628125 -180.400174 
L 439.700852 -176.113863 
L 435.77358 -172.42381 
L 431.846307 -169.37671 
L 427.919034 -124.820461 
L 423.991761 -165.350992 
L 420.064489 -211.177109 
L 416.137216 -164.216453 
L 412.209943 -164.744955 
L 408.28267 -165.98958 
L 404.355398 -167.926904 
L 400.428125 -122.168 
L 396.500852 -173.737575 
L 392.57358 -177.517093 
L 388.646307 -225.699997 
L 384.719034 -143.66169 
L 380.791761 -191.619406 
L 376.864489 -149.625974 
L 372.937216 -202.580967 
L 369.009943 -208.281458 
L 365.08267 -214.011051 
L 361.155398 -219.680434 
L 357.228125 -170.499618 
L 353.300852 -230.485344 
L 349.37358 -235.450195 
L 345.446307 -298.981204 
L 341.519034 -196.801576 
L 337.591761 -247.662557 
L 333.664489 -210.488697 
L 329.737216 -252.921774 
L 325.809943 -254.53579 
L 321.88267 -255.427853 
L 317.955398 -255.577317 
L 314.028125 -254.974378 
L 310.100852 -253.620225 
L 306.17358 -251.527045 
L 302.246307 -198.639806 
L 298.319034 -245.226152 
L 294.391761 -195.718588 
L 290.464489 -286.959666 
L 286.537216 -231.137187 
L 282.609943 -272.697867 
L 278.68267 -272.145038 
L 274.755398 -212.566209 
L 270.828125 -262.503072 
L 266.900852 -199.242659 
L 262.97358 -192.489673 
L 259.046307 -185.794263 
L 255.119034 -179.243539 
L 251.191761 -172.921688 
L 247.264489 -166.908779 
L 243.337216 -210.420528 
L 239.409943 -105.244626 
L 235.48267 -151.440522 
L 231.555398 -105.697236 
L 227.628125 -143.864696 
L 223.700852 -141.033101 
L 219.77358 -94.53185 
L 215.846307 -137.416456 
L 211.919034 -136.655326 
L 207.991761 -192.76161 
L 204.064489 -191.317461 
L 200.137216 -90.526069 
L 196.209943 -140.397239 
L 192.28267 -142.887764 
L 188.355398 -95.92575 
L 184.428125 -149.406355 
L 180.500852 -153.307379 
L 176.57358 -157.539957 
L 172.646307 -162.024581 
L 168.719034 -166.677104 
L 164.791761 -171.409819 
L 160.864489 -176.132585 
L 156.937216 -140.764629 
L 153.009943 -185.182509 
L 149.08267 -189.327698 
L 145.155398 -193.101297 
L 141.228125 -196.41832 
L 137.300852 -199.198026 
L 133.37358 -201.364761 
L 129.446307 -202.848604 
L 125.519034 -203.585762 
L 121.591761 -203.518609 
L 117.664489 -258.931565 
L 113.737216 -148.517401 
L 109.809943 -197.993539 
L 105.88267 -194.225012 
L 101.955398 -232.62087 
L 98.028125 -135.150925 
L 94.100852 -176.338138 
L 90.17358 -167.81119 
L 86.246307 -157.601317 
L 82.319034 -145.109203 
L 78.391761 -181.430535 
L 74.464489 -104.414085 
z
" id="m655de70046" style="stroke:#c44e52;stroke-opacity:0.5;"/>
    </defs>
    <g clip-path="url(#p194f3a9f75)">
     <use style="fill:#c44e52;fill-opacity:0.5;stroke:#c44e52;stroke-opacity:0.5;" x="0" xlink:href="#m655de70046" y="384.58625"/>
    </g>
   </g>
   <g id="PolyCollection_2">
    <defs>
     <path d="M 74.464489 -124.501462 
L 74.464489 -57.635967 
L 78.391761 -136.81339 
L 82.319034 -103.469214 
L 86.246307 -117.209192 
L 90.17358 -128.332764 
L 94.100852 -137.554301 
L 98.028125 -93.993064 
L 101.955398 -193.27727 
L 105.88267 -156.722042 
L 109.809943 -160.741979 
L 113.737216 -108.136942 
L 117.664489 -218.999126 
L 121.591761 -166.712551 
L 125.519034 -166.857504 
L 129.446307 -166.174293 
L 133.37358 -164.725308 
L 137.300852 -162.578029 
L 141.228125 -159.805203 
L 145.155398 -156.484668 
L 149.08267 -152.6989 
L 153.009943 -148.534347 
L 156.937216 -102.492204 
L 160.864489 -139.429405 
L 164.791761 -134.673669 
L 168.719034 -129.906272 
L 172.646307 -125.21894 
L 176.57358 -120.701056 
L 180.500852 -116.438491 
L 184.428125 -112.512461 
L 188.355398 -56.579258 
L 192.28267 -105.965108 
L 196.209943 -103.473471 
L 200.137216 -51.31608 
L 204.064489 -151.177728 
L 207.991761 -152.471753 
L 211.919034 -99.830593 
L 215.846307 -100.641072 
L 219.77358 -55.676734 
L 223.700852 -104.376895 
L 227.628125 -107.273695 
L 231.555398 -67.1609 
L 235.48267 -114.976545 
L 239.409943 -65.796716 
L 243.337216 -171.3839 
L 247.264489 -130.57729 
L 251.191761 -136.606485 
L 255.119034 -142.926793 
L 259.046307 -149.456921 
L 262.97358 -156.112367 
L 266.900852 -162.806661 
L 270.828125 -222.698249 
L 274.755398 -175.96367 
L 278.68267 -232.513978 
L 282.609943 -233.45278 
L 286.537216 -194.199988 
L 290.464489 -247.192565 
L 294.391761 -156.369057 
L 298.319034 -207.954401 
L 302.246307 -158.75522 
L 306.17358 -214.075462 
L 310.100852 -216.09964 
L 314.028125 -217.401072 
L 317.955398 -217.968615 
L 321.88267 -217.801538 
L 325.809943 -216.909546 
L 329.737216 -215.312639 
L 333.664489 -171.657208 
L 337.591761 -210.133779 
L 341.519034 -157.549816 
L 345.446307 -257.658922 
L 349.37358 -198.1287 
L 353.300852 -193.246735 
L 357.228125 -130.930997 
L 361.155398 -182.613412 
L 365.08267 -177.028151 
L 369.009943 -171.378943 
L 372.937216 -165.753557 
L 376.864489 -111.119133 
L 380.791761 -154.922196 
L 384.719034 -105.625776 
L 388.646307 -186.34948 
L 392.57358 -140.95955 
L 396.500852 -137.212351 
L 400.428125 -83.663768 
L 404.355398 -131.447538 
L 408.28267 -129.524439 
L 412.209943 -128.288356 
L 416.137216 -127.762448 
L 420.064489 -171.85064 
L 423.991761 -128.881615 
L 427.919034 -86.640028 
L 431.846307 -132.857044 
L 435.77358 -135.862319 
L 439.700852 -139.4974 
L 443.628125 -143.714237 
L 447.555398 -148.45631 
L 451.48267 -153.659461 
L 455.409943 -159.252843 
L 459.337216 -110.260383 
L 463.264489 -126.020749 
L 467.191761 -123.388199 
L 471.119034 -183.937835 
L 475.046307 -190.262222 
L 478.97358 -196.474078 
L 478.97358 -259.189323 
L 478.97358 -259.189323 
L 475.046307 -252.914208 
L 471.119034 -246.529272 
L 467.191761 -186.899412 
L 463.264489 -189.16762 
L 459.337216 -173.693673 
L 455.409943 -221.645524 
L 451.48267 -216.01561 
L 447.555398 -210.781395 
L 443.628125 -206.013522 
L 439.700852 -201.775808 
L 435.77358 -198.12434 
L 431.846307 -195.106674 
L 427.919034 -149.431227 
L 423.991761 -191.116436 
L 420.064489 -235.070678 
L 416.137216 -189.992762 
L 412.209943 -190.51943 
L 408.28267 -191.758017 
L 404.355398 -193.685293 
L 400.428125 -146.571802 
L 396.500852 -199.463624 
L 392.57358 -203.220398 
L 388.646307 -249.578964 
L 384.719034 -168.365965 
L 380.791761 -217.224887 
L 376.864489 -174.028124 
L 372.937216 -228.095922 
L 369.009943 -233.744484 
L 365.08267 -239.418731 
L 361.155398 -245.030452 
L 357.228125 -194.246962 
L 353.300852 -255.718555 
L 349.37358 -260.627367 
L 345.446307 -321.720744 
L 341.519034 -220.740622 
L 337.591761 -272.700667 
L 333.664489 -234.686834 
L 329.737216 -277.906387 
L 325.809943 -279.509042 
L 321.88267 -280.401058 
L 317.955398 -280.562218 
L 314.028125 -279.982816 
L 310.100852 -278.663803 
L 306.17358 -276.616764 
L 302.246307 -222.199025 
L 298.319034 -270.436926 
L 294.391761 -219.598153 
L 290.464489 -310.588486 
L 286.537216 -256.576303 
L 282.609943 -296.640983 
L 278.68267 -295.854969 
L 274.755398 -238.237917 
L 270.828125 -286.1095 
L 266.900852 -225.031707 
L 262.97358 -218.320329 
L 259.046307 -211.653328 
L 255.119034 -205.117269 
L 251.191761 -198.796517 
L 247.264489 -192.77201 
L 243.337216 -234.491502 
L 239.409943 -129.064638 
L 235.48267 -177.209781 
L 231.555398 -130.080709 
L 227.628125 -169.544498 
L 223.700852 -166.667224 
L 219.77358 -118.715273 
L 215.846307 -162.967506 
L 211.919034 -162.172135 
L 207.991761 -216.083849 
L 204.064489 -214.726926 
L 200.137216 -114.490617 
L 196.209943 -165.845608 
L 192.28267 -168.3369 
L 188.355398 -119.807159 
L 184.428125 -174.875331 
L 180.500852 -178.793629 
L 176.57358 -183.046952 
L 172.646307 -187.554626 
L 168.719034 -192.231317 
L 164.791761 -196.988157 
L 160.864489 -201.7339 
L 156.937216 -165.31624 
L 153.009943 -210.822258 
L 149.08267 -214.981002 
L 145.155398 -218.763126 
L 141.228125 -222.082611 
L 137.300852 -224.857495 
L 133.37358 -227.010605 
L 129.446307 -228.470072 
L 125.519034 -229.169597 
L 121.591761 -229.048365 
L 117.664489 -282.462552 
L 113.737216 -171.787312 
L 109.809943 -223.217977 
L 105.88267 -219.280353 
L 101.955398 -256.504035 
L 98.028125 -157.981307 
L 94.100852 -200.566006 
L 90.17358 -191.61279 
L 86.246307 -180.864507 
L 82.319034 -167.675244 
L 78.391761 -202.490818 
L 74.464489 -124.501462 
z
" id="m5d1e6dee72" style="stroke:#c44e52;stroke-opacity:0.1;"/>
    </defs>
    <g clip-path="url(#p194f3a9f75)">
     <use style="fill:#c44e52;fill-opacity:0.1;stroke:#c44e52;stroke-opacity:0.1;" x="0" xlink:href="#m5d1e6dee72" y="384.58625"/>
    </g>
   </g>
   <g id="PolyCollection_3">
    <defs>
     <path d="M 482.900852 -289.755444 
L 482.900852 -272.239839 
L 486.828125 -233.104765 
L 490.755398 -238.339628 
L 494.68267 -243.144581 
L 498.609943 -247.454958 
L 502.537216 -201.320616 
L 506.464489 -254.369211 
L 510.391761 -256.881998 
L 514.319034 -305.851474 
L 518.246307 -259.858672 
L 522.17358 -260.287415 
L 526.100852 -300.845231 
L 530.028125 -259.013306 
L 533.955398 -257.335853 
L 537.88267 -298.008569 
L 541.809943 -252.03748 
L 545.737216 -248.499423 
L 549.664489 -287.711421 
L 553.591761 -239.915595 
L 557.519034 -189.436485 
L 561.446307 -229.764864 
L 565.37358 -224.289426 
L 569.300852 -218.655682 
L 573.228125 -252.23461 
L 577.155398 -149.115293 
L 581.08267 -201.655138 
L 585.009943 -196.23976 
L 588.937216 -191.088644 
L 592.864489 -141.804696 
L 596.791761 -181.887567 
L 600.719034 -225.817336 
L 604.646307 -174.613469 
L 608.57358 -171.8449 
L 612.500852 -169.716577 
L 616.428125 -168.262782 
L 620.355398 -218.442051 
L 624.28267 -217.448632 
L 628.209943 -168.139165 
L 632.137216 -169.521488 
L 636.064489 -171.594646 
L 639.991761 -174.330668 
L 643.919034 -122.749877 
L 647.846307 -181.63162 
L 651.77358 -186.094801 
L 655.700852 -137.87147 
L 659.628125 -196.335102 
L 663.555398 -246.666652 
L 667.48267 -207.841087 
L 671.409943 -172.150433 
L 675.337216 -219.971092 
L 679.264489 -279.155348 
L 683.191761 -232.050002 
L 683.191761 -247.165869 
L 683.191761 -247.165869 
L 679.264489 -299.071404 
L 675.337216 -234.395639 
L 671.409943 -188.265628 
L 667.48267 -221.600878 
L 663.555398 -264.318334 
L 659.628125 -209.496036 
L 655.700852 -154.236207 
L 651.77358 -198.75264 
L 647.846307 -194.079842 
L 643.919034 -138.730595 
L 639.991761 -186.448715 
L 636.064489 -183.59219 
L 632.137216 -181.42747 
L 628.209943 -179.981561 
L 624.28267 -235.306937 
L 620.355398 -236.527342 
L 616.428125 -180.071726 
L 612.500852 -181.563735 
L 608.57358 -183.753813 
L 604.646307 -186.607194 
L 600.719034 -243.780643 
L 596.791761 -194.118204 
L 592.864489 -155.988762 
L 588.937216 -203.641191 
L 585.009943 -208.982135 
L 581.08267 -214.604053 
L 577.155398 -165.525594 
L 573.228125 -269.762713 
L 569.300852 -232.295804 
L 565.37358 -238.171633 
L 561.446307 -243.887841 
L 557.519034 -205.522849 
L 553.591761 -254.497211 
L 549.664489 -306.761302 
L 545.737216 -263.477319 
L 541.809943 -267.178802 
L 537.88267 -317.260726 
L 533.955398 -272.715049 
L 530.028125 -274.4607 
L 526.100852 -319.799195 
L 522.17358 -275.758996 
L 518.246307 -275.284159 
L 514.319034 -325.438539 
L 510.391761 -272.099655 
L 506.464489 -269.427853 
L 502.537216 -218.991675 
L 498.609943 -262.098075 
L 494.68267 -257.538469 
L 490.755398 -252.462561 
L 486.828125 -246.940121 
L 482.900852 -289.755444 
z
" id="m28978453f6" style="stroke:#55a868;stroke-opacity:0.5;"/>
    </defs>
    <g clip-path="url(#p194f3a9f75)">
     <use style="fill:#55a868;fill-opacity:0.5;stroke:#55a868;stroke-opacity:0.5;" x="0" xlink:href="#m28978453f6" y="384.58625"/>
    </g>
   </g>
   <g id="PolyCollection_4">
    <defs>
     <path d="M 482.900852 -312.877867 
L 482.900852 -249.117416 
L 486.828125 -208.597867 
L 490.755398 -213.944553 
L 494.68267 -218.854295 
L 498.609943 -223.26057 
L 502.537216 -178.25448 
L 506.464489 -230.333673 
L 510.391761 -232.906907 
L 514.319034 -283.464842 
L 518.246307 -235.962301 
L 522.17358 -236.40846 
L 526.100852 -278.236969 
L 530.028125 -235.125214 
L 533.955398 -233.421976 
L 537.88267 -275.50505 
L 541.809943 -228.033395 
L 545.737216 -224.433118 
L 549.664489 -265.136919 
L 553.591761 -215.697585 
L 557.519034 -165.788305 
L 561.446307 -205.369806 
L 565.37358 -199.800789 
L 569.300852 -194.072512 
L 573.228125 -229.116719 
L 577.155398 -125.587587 
L 581.08267 -176.799605 
L 585.009943 -171.302135 
L 588.937216 -166.075282 
L 592.864489 -117.433312 
L 596.791761 -156.745137 
L 600.719034 -202.856545 
L 604.646307 -149.375543 
L 608.57358 -146.572681 
L 612.500852 -144.419354 
L 616.428125 -142.950072 
L 620.355398 -195.525048 
L 624.28267 -194.450062 
L 628.209943 -142.840013 
L 632.137216 -144.248083 
L 636.064489 -146.358263 
L 639.991761 -149.142908 
L 643.919034 -99.062238 
L 647.846307 -156.576517 
L 651.77358 -161.123482 
L 655.700852 -114.326865 
L 659.628125 -171.5635 
L 663.555398 -223.593509 
L 667.48267 -183.304703 
L 671.409943 -148.513006 
L 675.337216 -195.692627 
L 679.264489 -256.88277 
L 683.191761 -208.036239 
L 683.191761 -271.179633 
L 683.191761 -271.179633 
L 679.264489 -321.343983 
L 675.337216 -258.674103 
L 671.409943 -211.903055 
L 667.48267 -246.137262 
L 663.555398 -287.391477 
L 659.628125 -234.267638 
L 655.700852 -177.780812 
L 651.77358 -223.723959 
L 647.846307 -219.134945 
L 643.919034 -162.418233 
L 639.991761 -211.636474 
L 636.064489 -208.828574 
L 632.137216 -206.700875 
L 628.209943 -205.280714 
L 624.28267 -258.305507 
L 620.355398 -259.444345 
L 616.428125 -205.384436 
L 612.500852 -206.860958 
L 608.57358 -209.026032 
L 604.646307 -211.845121 
L 600.719034 -266.741434 
L 596.791761 -219.260633 
L 592.864489 -180.360146 
L 588.937216 -228.654553 
L 585.009943 -233.91976 
L 581.08267 -239.459585 
L 577.155398 -189.0533 
L 573.228125 -292.880605 
L 569.300852 -256.878974 
L 565.37358 -262.66027 
L 561.446307 -268.282899 
L 557.519034 -229.17103 
L 553.591761 -278.71522 
L 549.664489 -329.335804 
L 545.737216 -287.543625 
L 541.809943 -291.182887 
L 537.88267 -339.764246 
L 533.955398 -296.628925 
L 530.028125 -298.348792 
L 526.100852 -342.407457 
L 522.17358 -299.637951 
L 518.246307 -299.180529 
L 514.319034 -347.82517 
L 510.391761 -296.074746 
L 506.464489 -293.463392 
L 502.537216 -242.057811 
L 498.609943 -286.292463 
L 494.68267 -281.828756 
L 490.755398 -276.857636 
L 486.828125 -271.447018 
L 482.900852 -312.877867 
z
" id="m89cb30a984" style="stroke:#55a868;stroke-opacity:0.1;"/>
    </defs>
    <g clip-path="url(#p194f3a9f75)">
     <use style="fill:#55a868;fill-opacity:0.1;stroke:#55a868;stroke-opacity:0.1;" x="0" xlink:href="#m89cb30a984" y="384.58625"/>
    </g>
   </g>
   <g id="line2d_17">
    <path clip-path="url(#p194f3a9f75)" d="M 74.464489 283.852051 
L 78.391761 196.460002 
L 82.319034 266.419747 
L 86.246307 239.965191 
L 90.17358 231.465514 
L 94.100852 225.364476 
L 98.028125 235.155922 
L 101.955398 150.616653 
L 105.88267 216.311801 
L 109.809943 178.96952 
L 113.737216 216.561678 
L 117.664489 114.69608 
L 121.591761 210.708771 
L 125.519034 194.664807 
L 129.446307 168.410729 
L 133.37358 229.871753 
L 137.300852 184.517531 
L 141.228125 182.093539 
L 145.155398 211.428529 
L 149.08267 201.722763 
L 153.009943 254.609076 
L 156.937216 269.12063 
L 160.864489 217.373957 
L 164.791761 237.206391 
L 168.719034 197.481672 
L 172.646307 249.010823 
L 176.57358 238.085067 
L 180.500852 233.353556 
L 184.428125 216.924679 
L 188.355398 320.224067 
L 192.28267 227.360489 
L 196.209943 247.405226 
L 200.137216 317.878807 
L 204.064489 188.157763 
L 207.991761 190.634709 
L 211.919034 259.997517 
L 215.846307 248.848322 
L 219.77358 303.78089 
L 223.700852 244.445336 
L 227.628125 233.162104 
L 231.555398 261.961653 
L 235.48267 254.833182 
L 239.409943 255.681482 
L 243.337216 205.815595 
L 247.264489 222.980899 
L 251.191761 205.762747 
L 255.119034 204.366944 
L 259.046307 211.93928 
L 262.97358 199.134418 
L 266.900852 227.220247 
L 270.828125 134.375317 
L 274.755398 163.716948 
L 278.68267 141.231561 
L 282.609943 126.687929 
L 286.537216 145.387828 
L 290.464489 97.693517 
L 294.391761 187.972946 
L 298.319034 136.336069 
L 302.246307 211.425248 
L 306.17358 148.78107 
L 310.100852 126.769271 
L 314.028125 127.656411 
L 317.955398 136.850925 
L 321.88267 134.928201 
L 325.809943 117.995655 
L 329.737216 148.305005 
L 333.664489 177.184236 
L 337.591761 147.390041 
L 341.519034 203.341472 
L 345.446307 74.840585 
L 349.37358 143.259206 
L 353.300852 148.168129 
L 357.228125 206.430544 
L 361.155398 170.618872 
L 365.08267 165.843943 
L 369.009943 186.531371 
L 372.937216 182.187632 
L 376.864489 246.835917 
L 380.791761 196.066921 
L 384.719034 240.460161 
L 388.646307 174.77348 
L 392.57358 207.973157 
L 396.500852 229.908203 
L 400.428125 289.785506 
L 404.355398 202.084825 
L 408.28267 209.50706 
L 412.209943 213.20837 
L 416.137216 213.584307 
L 420.064489 205.352515 
L 423.991761 235.821364 
L 427.919034 265.994852 
L 431.846307 228.479815 
L 435.77358 200.12814 
L 439.700852 213.813797 
L 443.628125 220.121767 
L 447.555398 207.751733 
L 451.48267 191.402782 
L 455.409943 200.978198 
L 459.337216 257.56981 
L 463.264489 225.093708 
L 467.191761 228.383759 
L 471.119034 176.180549 
L 475.046307 169.512015 
L 478.97358 152.703085 
" style="fill:none;stroke:#4c72b0;stroke-linecap:round;stroke-width:1.5;"/>
   </g>
   <g id="line2d_18">
    <path clip-path="url(#p194f3a9f75)" d="M 74.464489 293.517536 
L 78.391761 214.934146 
L 82.319034 249.014021 
L 86.246307 235.5494 
L 90.17358 224.613473 
L 94.100852 215.526096 
L 98.028125 258.599064 
L 101.955398 159.695598 
L 105.88267 196.585052 
L 109.809943 192.606272 
L 113.737216 244.624123 
L 117.664489 133.855411 
L 121.591761 186.705792 
L 125.519034 186.572699 
L 129.446307 187.264068 
L 133.37358 188.718293 
L 137.300852 190.868488 
L 141.228125 193.642343 
L 145.155398 196.962353 
L 149.08267 200.746299 
L 153.009943 204.907947 
L 156.937216 250.682028 
L 160.864489 214.004597 
L 164.791761 218.755337 
L 168.719034 223.517456 
L 172.646307 228.199467 
L 176.57358 232.712246 
L 180.500852 236.97019 
L 184.428125 240.892354 
L 188.355398 296.393041 
L 192.28267 247.435246 
L 196.209943 249.92671 
L 200.137216 301.682902 
L 204.064489 201.633923 
L 207.991761 200.308449 
L 211.919034 253.584886 
L 215.846307 252.781961 
L 219.77358 297.390247 
L 223.700852 249.06419 
L 227.628125 246.177153 
L 231.555398 285.965446 
L 235.48267 238.493087 
L 239.409943 287.155573 
L 243.337216 181.648549 
L 247.264489 222.9116 
L 251.191761 216.884749 
L 255.119034 210.564219 
L 259.046307 204.031125 
L 262.97358 197.369902 
L 266.900852 190.667066 
L 270.828125 130.182375 
L 274.755398 177.485456 
L 278.68267 120.401776 
L 282.609943 119.539368 
L 286.537216 159.198105 
L 290.464489 105.695725 
L 294.391761 196.602645 
L 298.319034 145.390586 
L 302.246307 194.109127 
L 306.17358 139.240137 
L 310.100852 137.204529 
L 314.028125 135.894306 
L 317.955398 135.320834 
L 321.88267 135.484952 
L 325.809943 136.376956 
L 329.737216 137.976737 
L 333.664489 181.414229 
L 337.591761 143.169027 
L 341.519034 195.441031 
L 345.446307 94.896417 
L 349.37358 155.208217 
L 353.300852 160.103605 
L 357.228125 221.99727 
L 361.155398 170.764318 
L 365.08267 176.362809 
L 369.009943 182.024537 
L 372.937216 187.661511 
L 376.864489 242.012622 
L 380.791761 198.512708 
L 384.719034 247.590379 
L 388.646307 166.622028 
L 392.57358 212.496276 
L 396.500852 216.248262 
L 400.428125 269.468465 
L 404.355398 222.019834 
L 408.28267 223.945022 
L 412.209943 225.182357 
L 416.137216 225.708645 
L 420.064489 181.125591 
L 423.991761 224.587225 
L 427.919034 266.550623 
L 431.846307 220.604391 
L 435.77358 217.592921 
L 439.700852 213.949646 
L 443.628125 209.722371 
L 447.555398 204.967398 
L 451.48267 199.748715 
L 455.409943 194.137067 
L 459.337216 242.609222 
L 463.264489 226.992066 
L 467.191761 229.442445 
L 471.119034 169.352697 
L 475.046307 162.998035 
L 478.97358 156.75455 
" style="fill:none;stroke:#c44e52;stroke-linecap:round;stroke-width:1.5;"/>
   </g>
   <g id="line2d_19">
    <path clip-path="url(#p194f3a9f75)" d="M 482.900852 122.222504 
L 486.828125 136.075046 
L 490.755398 150.461237 
L 494.68267 137.975611 
L 498.609943 125.683788 
L 502.537216 156.114983 
L 506.464489 110.509277 
L 510.391761 123.700439 
L 514.319034 66.921866 
L 518.246307 133.783482 
L 522.17358 118.274905 
L 526.100852 77.073738 
L 530.028125 114.366227 
L 533.955398 133.733878 
L 537.88267 67.113616 
L 541.809943 102.760096 
L 545.737216 131.508644 
L 549.664489 78.991788 
L 553.591761 127.738965 
L 557.519034 197.317524 
L 561.446307 144.925783 
L 565.37358 153.569331 
L 569.300852 157.80088 
L 573.228125 132.431011 
L 577.155398 230.730034 
L 581.08267 168.303991 
L 585.009943 158.939953 
L 588.937216 171.516378 
L 592.864489 204.578278 
L 596.791761 206.982145 
L 600.719034 131.099627 
L 604.646307 199.384636 
L 608.57358 171.195887 
L 612.500852 219.294098 
L 616.428125 221.133736 
L 620.355398 160.103278 
L 624.28267 184.654655 
L 628.209943 216.22428 
L 632.137216 218.389213 
L 636.064489 202.312079 
L 639.991761 196.623588 
L 643.919034 226.622847 
L 647.846307 179.982118 
L 651.77358 199.016216 
L 655.700852 254.213601 
L 659.628125 143.166527 
L 663.555398 144.486779 
L 667.48267 140.425179 
L 671.409943 188.135992 
L 675.337216 163.771463 
L 679.264489 117.152388 
L 683.191761 123.803047 
" style="fill:none;stroke:#dd8452;stroke-linecap:round;stroke-width:1.5;"/>
   </g>
   <g id="line2d_20">
    <path clip-path="url(#p194f3a9f75)" d="M 482.900852 103.588608 
L 486.828125 144.563807 
L 490.755398 139.185155 
L 494.68267 134.244725 
L 498.609943 129.809734 
L 502.537216 174.430105 
L 506.464489 122.687718 
L 510.391761 120.095423 
L 514.319034 68.941244 
L 518.246307 117.014835 
L 522.17358 116.563044 
L 526.100852 74.264037 
L 530.028125 117.849247 
L 533.955398 119.560799 
L 537.88267 76.951602 
L 541.809943 124.978109 
L 545.737216 128.597879 
L 549.664489 87.349888 
L 553.591761 137.379847 
L 557.519034 187.106583 
L 561.446307 147.759898 
L 565.37358 153.355721 
L 569.300852 159.110507 
L 573.228125 123.587588 
L 577.155398 227.265806 
L 581.08267 176.456655 
L 585.009943 181.975303 
L 588.937216 187.221332 
L 592.864489 235.689521 
L 596.791761 196.583365 
L 600.719034 149.78726 
L 604.646307 203.975918 
L 608.57358 206.786893 
L 612.500852 208.946094 
L 616.428125 210.418996 
L 620.355398 157.101554 
L 624.28267 158.208465 
L 628.209943 210.525887 
L 632.137216 209.111771 
L 636.064489 206.992832 
L 639.991761 204.196559 
L 643.919034 253.846014 
L 647.846307 196.730519 
L 651.77358 192.162529 
L 655.700852 238.532411 
L 659.628125 181.670681 
L 663.555398 129.093757 
L 667.48267 169.865268 
L 671.409943 204.37822 
L 675.337216 157.402885 
L 679.264489 95.472874 
L 683.191761 144.978314 
" style="fill:none;stroke:#55a868;stroke-linecap:round;stroke-width:1.5;"/>
   </g>
   <g id="patch_3">
    <path d="M 44.028125 348.095625 
L 44.028125 21.935625 
" style="fill:none;stroke:#ffffff;stroke-linecap:square;stroke-linejoin:miter;stroke-width:0.8;"/>
   </g>
   <g id="patch_4">
    <path d="M 713.628125 348.095625 
L 713.628125 21.935625 
" style="fill:none;stroke:#ffffff;stroke-linecap:square;stroke-linejoin:miter;stroke-width:0.8;"/>
   </g>
   <g id="patch_5">
    <path d="M 44.028125 348.095625 
L 713.628125 348.095625 
" style="fill:none;stroke:#ffffff;stroke-linecap:square;stroke-linejoin:miter;stroke-width:0.8;"/>
   </g>
   <g id="patch_6">
    <path d="M 44.028125 21.935625 
L 713.628125 21.935625 
" style="fill:none;stroke:#ffffff;stroke-linecap:square;stroke-linejoin:miter;stroke-width:0.8;"/>
   </g>
   <g id="text_19">
    <!-- Linear Model Prediction (train-Test Split) -->
    <defs>
     <path d="M 7.328125 0 
L 7.328125 71.578125 
L 16.796875 71.578125 
L 16.796875 8.453125 
L 52.046875 8.453125 
L 52.046875 0 
z
" id="ArialMT-76"/>
     <path d="M 6.640625 61.46875 
L 6.640625 71.578125 
L 15.4375 71.578125 
L 15.4375 61.46875 
z
M 6.640625 0 
L 6.640625 51.859375 
L 15.4375 51.859375 
L 15.4375 0 
z
" id="ArialMT-105"/>
     <path d="M 6.59375 0 
L 6.59375 51.859375 
L 14.5 51.859375 
L 14.5 44.484375 
Q 20.21875 53.03125 31 53.03125 
Q 35.6875 53.03125 39.625 51.34375 
Q 43.5625 49.65625 45.515625 46.921875 
Q 47.46875 44.1875 48.25 40.4375 
Q 48.734375 37.984375 48.734375 31.890625 
L 48.734375 0 
L 39.9375 0 
L 39.9375 31.546875 
Q 39.9375 36.921875 38.90625 39.578125 
Q 37.890625 42.234375 35.28125 43.8125 
Q 32.671875 45.40625 29.15625 45.40625 
Q 23.53125 45.40625 19.453125 41.84375 
Q 15.375 38.28125 15.375 28.328125 
L 15.375 0 
z
" id="ArialMT-110"/>
     <path d="M 6.5 0 
L 6.5 51.859375 
L 14.40625 51.859375 
L 14.40625 44 
Q 17.4375 49.515625 20 51.265625 
Q 22.5625 53.03125 25.640625 53.03125 
Q 30.078125 53.03125 34.671875 50.203125 
L 31.640625 42.046875 
Q 28.421875 43.953125 25.203125 43.953125 
Q 22.3125 43.953125 20.015625 42.21875 
Q 17.71875 40.484375 16.75 37.40625 
Q 15.28125 32.71875 15.28125 27.15625 
L 15.28125 0 
z
" id="ArialMT-114"/>
     <path id="ArialMT-32"/>
     <path d="M 7.421875 0 
L 7.421875 71.578125 
L 21.6875 71.578125 
L 38.625 20.90625 
Q 40.96875 13.8125 42.046875 10.296875 
Q 43.265625 14.203125 45.84375 21.78125 
L 62.984375 71.578125 
L 75.734375 71.578125 
L 75.734375 0 
L 66.609375 0 
L 66.609375 59.90625 
L 45.796875 0 
L 37.25 0 
L 16.546875 60.9375 
L 16.546875 0 
z
" id="ArialMT-77"/>
     <path d="M 3.328125 25.921875 
Q 3.328125 40.328125 11.328125 47.265625 
Q 18.015625 53.03125 27.640625 53.03125 
Q 38.328125 53.03125 45.109375 46.015625 
Q 51.90625 39.015625 51.90625 26.65625 
Q 51.90625 16.65625 48.90625 10.90625 
Q 45.90625 5.171875 40.15625 2 
Q 34.421875 -1.171875 27.640625 -1.171875 
Q 16.75 -1.171875 10.03125 5.8125 
Q 3.328125 12.796875 3.328125 25.921875 
z
M 12.359375 25.921875 
Q 12.359375 15.96875 16.703125 11.015625 
Q 21.046875 6.0625 27.640625 6.0625 
Q 34.1875 6.0625 38.53125 11.03125 
Q 42.875 16.015625 42.875 26.21875 
Q 42.875 35.84375 38.5 40.796875 
Q 34.125 45.75 27.640625 45.75 
Q 21.046875 45.75 16.703125 40.8125 
Q 12.359375 35.890625 12.359375 25.921875 
z
" id="ArialMT-111"/>
     <path d="M 6.390625 0 
L 6.390625 71.578125 
L 15.1875 71.578125 
L 15.1875 0 
z
" id="ArialMT-108"/>
     <path d="M 7.71875 0 
L 7.71875 71.578125 
L 34.71875 71.578125 
Q 41.84375 71.578125 45.609375 70.90625 
Q 50.875 70.015625 54.4375 67.546875 
Q 58.015625 65.09375 60.1875 60.640625 
Q 62.359375 56.203125 62.359375 50.875 
Q 62.359375 41.75 56.546875 35.421875 
Q 50.734375 29.109375 35.546875 29.109375 
L 17.1875 29.109375 
L 17.1875 0 
z
M 17.1875 37.546875 
L 35.6875 37.546875 
Q 44.875 37.546875 48.734375 40.96875 
Q 52.59375 44.390625 52.59375 50.59375 
Q 52.59375 55.078125 50.3125 58.265625 
Q 48.046875 61.46875 44.34375 62.5 
Q 41.9375 63.140625 35.5 63.140625 
L 17.1875 63.140625 
z
" id="ArialMT-80"/>
     <path d="M 40.4375 19 
L 49.078125 17.875 
Q 47.65625 8.9375 41.8125 3.875 
Q 35.984375 -1.171875 27.484375 -1.171875 
Q 16.84375 -1.171875 10.375 5.78125 
Q 3.90625 12.75 3.90625 25.734375 
Q 3.90625 34.125 6.6875 40.421875 
Q 9.46875 46.734375 15.15625 49.875 
Q 20.84375 53.03125 27.546875 53.03125 
Q 35.984375 53.03125 41.359375 48.75 
Q 46.734375 44.484375 48.25 36.625 
L 39.703125 35.296875 
Q 38.484375 40.53125 35.375 43.15625 
Q 32.28125 45.796875 27.875 45.796875 
Q 21.234375 45.796875 17.078125 41.03125 
Q 12.9375 36.28125 12.9375 25.984375 
Q 12.9375 15.53125 16.9375 10.796875 
Q 20.953125 6.0625 27.390625 6.0625 
Q 32.5625 6.0625 36.03125 9.234375 
Q 39.5 12.40625 40.4375 19 
z
" id="ArialMT-99"/>
     <path d="M 23.390625 -21.046875 
Q 16.109375 -11.859375 11.078125 0.4375 
Q 6.0625 12.75 6.0625 25.921875 
Q 6.0625 37.546875 9.8125 48.1875 
Q 14.203125 60.546875 23.390625 72.796875 
L 29.6875 72.796875 
Q 23.78125 62.640625 21.875 58.296875 
Q 18.890625 51.5625 17.1875 44.234375 
Q 15.09375 35.109375 15.09375 25.875 
Q 15.09375 2.390625 29.6875 -21.046875 
z
" id="ArialMT-40"/>
     <path d="M 25.921875 0 
L 25.921875 63.140625 
L 2.34375 63.140625 
L 2.34375 71.578125 
L 59.078125 71.578125 
L 59.078125 63.140625 
L 35.40625 63.140625 
L 35.40625 0 
z
" id="ArialMT-84"/>
     <path d="M 3.078125 15.484375 
L 11.765625 16.84375 
Q 12.5 11.625 15.84375 8.84375 
Q 19.1875 6.0625 25.203125 6.0625 
Q 31.25 6.0625 34.171875 8.515625 
Q 37.109375 10.984375 37.109375 14.3125 
Q 37.109375 17.28125 34.515625 19 
Q 32.71875 20.171875 25.53125 21.96875 
Q 15.875 24.421875 12.140625 26.203125 
Q 8.40625 27.984375 6.46875 31.125 
Q 4.546875 34.28125 4.546875 38.09375 
Q 4.546875 41.546875 6.125 44.5 
Q 7.71875 47.46875 10.453125 49.421875 
Q 12.5 50.921875 16.03125 51.96875 
Q 19.578125 53.03125 23.640625 53.03125 
Q 29.734375 53.03125 34.34375 51.265625 
Q 38.96875 49.515625 41.15625 46.5 
Q 43.359375 43.5 44.1875 38.484375 
L 35.59375 37.3125 
Q 35.015625 41.3125 32.203125 43.546875 
Q 29.390625 45.796875 24.265625 45.796875 
Q 18.21875 45.796875 15.625 43.796875 
Q 13.03125 41.796875 13.03125 39.109375 
Q 13.03125 37.40625 14.109375 36.03125 
Q 15.1875 34.625 17.484375 33.6875 
Q 18.796875 33.203125 25.25 31.453125 
Q 34.578125 28.953125 38.25 27.359375 
Q 41.9375 25.78125 44.03125 22.75 
Q 46.140625 19.734375 46.140625 15.234375 
Q 46.140625 10.84375 43.578125 6.953125 
Q 41.015625 3.078125 36.171875 0.953125 
Q 31.34375 -1.171875 25.25 -1.171875 
Q 15.140625 -1.171875 9.84375 3.03125 
Q 4.546875 7.234375 3.078125 15.484375 
z
" id="ArialMT-115"/>
     <path d="M 4.5 23 
L 13.421875 23.78125 
Q 14.0625 18.40625 16.375 14.96875 
Q 18.703125 11.53125 23.578125 9.40625 
Q 28.46875 7.28125 34.578125 7.28125 
Q 39.984375 7.28125 44.140625 8.890625 
Q 48.296875 10.5 50.3125 13.296875 
Q 52.34375 16.109375 52.34375 19.4375 
Q 52.34375 22.796875 50.390625 25.3125 
Q 48.4375 27.828125 43.953125 29.546875 
Q 41.0625 30.671875 31.203125 33.03125 
Q 21.34375 35.40625 17.390625 37.5 
Q 12.25 40.1875 9.734375 44.15625 
Q 7.234375 48.140625 7.234375 53.078125 
Q 7.234375 58.5 10.296875 63.203125 
Q 13.375 67.921875 19.28125 70.359375 
Q 25.203125 72.796875 32.421875 72.796875 
Q 40.375 72.796875 46.453125 70.234375 
Q 52.546875 67.671875 55.8125 62.6875 
Q 59.078125 57.71875 59.328125 51.421875 
L 50.25 50.734375 
Q 49.515625 57.515625 45.28125 60.984375 
Q 41.0625 64.453125 32.8125 64.453125 
Q 24.21875 64.453125 20.28125 61.296875 
Q 16.359375 58.15625 16.359375 53.71875 
Q 16.359375 49.859375 19.140625 47.359375 
Q 21.875 44.875 33.421875 42.265625 
Q 44.96875 39.65625 49.265625 37.703125 
Q 55.515625 34.8125 58.484375 30.390625 
Q 61.46875 25.984375 61.46875 20.21875 
Q 61.46875 14.5 58.203125 9.4375 
Q 54.9375 4.390625 48.796875 1.578125 
Q 42.671875 -1.21875 35.015625 -1.21875 
Q 25.296875 -1.21875 18.71875 1.609375 
Q 12.15625 4.4375 8.421875 10.125 
Q 4.6875 15.828125 4.5 23 
z
" id="ArialMT-83"/>
     <path d="M 6.59375 -19.875 
L 6.59375 51.859375 
L 14.59375 51.859375 
L 14.59375 45.125 
Q 17.4375 49.078125 21 51.046875 
Q 24.5625 53.03125 29.640625 53.03125 
Q 36.28125 53.03125 41.359375 49.609375 
Q 46.4375 46.1875 49.015625 39.953125 
Q 51.609375 33.734375 51.609375 26.3125 
Q 51.609375 18.359375 48.75 11.984375 
Q 45.90625 5.609375 40.453125 2.21875 
Q 35.015625 -1.171875 29 -1.171875 
Q 24.609375 -1.171875 21.109375 0.6875 
Q 17.625 2.546875 15.375 5.375 
L 15.375 -19.875 
z
M 14.546875 25.640625 
Q 14.546875 15.625 18.59375 10.84375 
Q 22.65625 6.0625 28.421875 6.0625 
Q 34.28125 6.0625 38.453125 11.015625 
Q 42.625 15.96875 42.625 26.375 
Q 42.625 36.28125 38.546875 41.203125 
Q 34.46875 46.140625 28.8125 46.140625 
Q 23.1875 46.140625 18.859375 40.890625 
Q 14.546875 35.640625 14.546875 25.640625 
z
" id="ArialMT-112"/>
     <path d="M 12.359375 -21.046875 
L 6.0625 -21.046875 
Q 20.65625 2.390625 20.65625 25.875 
Q 20.65625 35.0625 18.5625 44.09375 
Q 16.890625 51.421875 13.921875 58.15625 
Q 12.015625 62.546875 6.0625 72.796875 
L 12.359375 72.796875 
Q 21.53125 60.546875 25.921875 48.1875 
Q 29.6875 37.546875 29.6875 25.921875 
Q 29.6875 12.75 24.625 0.4375 
Q 19.578125 -11.859375 12.359375 -21.046875 
z
" id="ArialMT-41"/>
    </defs>
    <g style="fill:#262626;" transform="translate(272.126562 15.935625)scale(0.12 -0.12)">
     <use xlink:href="#ArialMT-76"/>
     <use x="55.615234" xlink:href="#ArialMT-105"/>
     <use x="77.832031" xlink:href="#ArialMT-110"/>
     <use x="133.447266" xlink:href="#ArialMT-101"/>
     <use x="189.0625" xlink:href="#ArialMT-97"/>
     <use x="244.677734" xlink:href="#ArialMT-114"/>
     <use x="277.978516" xlink:href="#ArialMT-32"/>
     <use x="305.761719" xlink:href="#ArialMT-77"/>
     <use x="389.0625" xlink:href="#ArialMT-111"/>
     <use x="444.677734" xlink:href="#ArialMT-100"/>
     <use x="500.292969" xlink:href="#ArialMT-101"/>
     <use x="555.908203" xlink:href="#ArialMT-108"/>
     <use x="578.125" xlink:href="#ArialMT-32"/>
     <use x="605.908203" xlink:href="#ArialMT-80"/>
     <use x="672.607422" xlink:href="#ArialMT-114"/>
     <use x="705.908203" xlink:href="#ArialMT-101"/>
     <use x="761.523438" xlink:href="#ArialMT-100"/>
     <use x="817.138672" xlink:href="#ArialMT-105"/>
     <use x="839.355469" xlink:href="#ArialMT-99"/>
     <use x="889.355469" xlink:href="#ArialMT-116"/>
     <use x="917.138672" xlink:href="#ArialMT-105"/>
     <use x="939.355469" xlink:href="#ArialMT-111"/>
     <use x="994.970703" xlink:href="#ArialMT-110"/>
     <use x="1050.585938" xlink:href="#ArialMT-32"/>
     <use x="1078.369141" xlink:href="#ArialMT-40"/>
     <use x="1111.669922" xlink:href="#ArialMT-116"/>
     <use x="1139.453125" xlink:href="#ArialMT-114"/>
     <use x="1172.753906" xlink:href="#ArialMT-97"/>
     <use x="1228.369141" xlink:href="#ArialMT-105"/>
     <use x="1250.585938" xlink:href="#ArialMT-110"/>
     <use x="1306.201172" xlink:href="#ArialMT-45"/>
     <use x="1339.501953" xlink:href="#ArialMT-84"/>
     <use x="1389.460938" xlink:href="#ArialMT-101"/>
     <use x="1445.076172" xlink:href="#ArialMT-115"/>
     <use x="1495.076172" xlink:href="#ArialMT-116"/>
     <use x="1522.859375" xlink:href="#ArialMT-32"/>
     <use x="1550.642578" xlink:href="#ArialMT-83"/>
     <use x="1617.341797" xlink:href="#ArialMT-112"/>
     <use x="1672.957031" xlink:href="#ArialMT-108"/>
     <use x="1695.173828" xlink:href="#ArialMT-105"/>
     <use x="1717.390625" xlink:href="#ArialMT-116"/>
     <use x="1745.173828" xlink:href="#ArialMT-41"/>
    </g>
   </g>
   <g id="legend_1">
    <g id="patch_7">
     <path d="M 729.328438 258.679125 
L 907.508125 258.679125 
Q 909.508125 258.679125 909.508125 256.679125 
L 909.508125 143.091625 
Q 909.508125 141.091625 907.508125 141.091625 
L 729.328438 141.091625 
Q 727.328438 141.091625 727.328438 143.091625 
L 727.328438 256.679125 
Q 727.328438 258.679125 729.328438 258.679125 
z
" style="fill:#e6e6e6;opacity:0.8;stroke:#cccccc;stroke-linejoin:miter;"/>
    </g>
    <g id="line2d_21">
     <path d="M 731.328438 148.749438 
L 751.328438 148.749438 
" style="fill:none;stroke:#4c72b0;stroke-linecap:round;stroke-width:1.5;"/>
    </g>
    <g id="line2d_22"/>
    <g id="text_20">
     <!-- y_train -->
     <defs>
      <path d="M -1.515625 -19.875 
L -1.515625 -13.53125 
L 56.734375 -13.53125 
L 56.734375 -19.875 
z
" id="ArialMT-95"/>
     </defs>
     <g style="fill:#262626;" transform="translate(759.328438 152.249438)scale(0.1 -0.1)">
      <use xlink:href="#ArialMT-121"/>
      <use x="50" xlink:href="#ArialMT-95"/>
      <use x="105.615234" xlink:href="#ArialMT-116"/>
      <use x="133.398438" xlink:href="#ArialMT-114"/>
      <use x="166.699219" xlink:href="#ArialMT-97"/>
      <use x="222.314453" xlink:href="#ArialMT-105"/>
      <use x="244.53125" xlink:href="#ArialMT-110"/>
     </g>
    </g>
    <g id="line2d_23">
     <path d="M 731.328438 163.011938 
L 751.328438 163.011938 
" style="fill:none;stroke:#c44e52;stroke-linecap:round;stroke-width:1.5;"/>
    </g>
    <g id="line2d_24"/>
    <g id="text_21">
     <!-- y_train_pred -->
     <g style="fill:#262626;" transform="translate(759.328438 166.511938)scale(0.1 -0.1)">
      <use xlink:href="#ArialMT-121"/>
      <use x="50" xlink:href="#ArialMT-95"/>
      <use x="105.615234" xlink:href="#ArialMT-116"/>
      <use x="133.398438" xlink:href="#ArialMT-114"/>
      <use x="166.699219" xlink:href="#ArialMT-97"/>
      <use x="222.314453" xlink:href="#ArialMT-105"/>
      <use x="244.53125" xlink:href="#ArialMT-110"/>
      <use x="300.146484" xlink:href="#ArialMT-95"/>
      <use x="355.761719" xlink:href="#ArialMT-112"/>
      <use x="411.376953" xlink:href="#ArialMT-114"/>
      <use x="444.677734" xlink:href="#ArialMT-101"/>
      <use x="500.292969" xlink:href="#ArialMT-100"/>
     </g>
    </g>
    <g id="line2d_25">
     <path d="M 731.328438 177.274438 
L 751.328438 177.274438 
" style="fill:none;stroke:#dd8452;stroke-linecap:round;stroke-width:1.5;"/>
    </g>
    <g id="line2d_26"/>
    <g id="text_22">
     <!-- y_test -->
     <g style="fill:#262626;" transform="translate(759.328438 180.774438)scale(0.1 -0.1)">
      <use xlink:href="#ArialMT-121"/>
      <use x="50" xlink:href="#ArialMT-95"/>
      <use x="105.615234" xlink:href="#ArialMT-116"/>
      <use x="133.398438" xlink:href="#ArialMT-101"/>
      <use x="189.013672" xlink:href="#ArialMT-115"/>
      <use x="239.013672" xlink:href="#ArialMT-116"/>
     </g>
    </g>
    <g id="line2d_27">
     <path d="M 731.328438 191.536938 
L 751.328438 191.536938 
" style="fill:none;stroke:#55a868;stroke-linecap:round;stroke-width:1.5;"/>
    </g>
    <g id="line2d_28"/>
    <g id="text_23">
     <!-- y_test_pred -->
     <g style="fill:#262626;" transform="translate(759.328438 195.036938)scale(0.1 -0.1)">
      <use xlink:href="#ArialMT-121"/>
      <use x="50" xlink:href="#ArialMT-95"/>
      <use x="105.615234" xlink:href="#ArialMT-116"/>
      <use x="133.398438" xlink:href="#ArialMT-101"/>
      <use x="189.013672" xlink:href="#ArialMT-115"/>
      <use x="239.013672" xlink:href="#ArialMT-116"/>
      <use x="266.796875" xlink:href="#ArialMT-95"/>
      <use x="322.412109" xlink:href="#ArialMT-112"/>
      <use x="378.027344" xlink:href="#ArialMT-114"/>
      <use x="411.328125" xlink:href="#ArialMT-101"/>
      <use x="466.943359" xlink:href="#ArialMT-100"/>
     </g>
    </g>
    <g id="patch_8">
     <path d="M 731.328438 209.421313 
L 751.328438 209.421313 
L 751.328438 202.421313 
L 731.328438 202.421313 
z
" style="fill:#c44e52;opacity:0.5;stroke:#c44e52;stroke-linejoin:miter;"/>
    </g>
    <g id="text_24">
     <!-- Confidence Interval (mean_pred) -->
     <defs>
      <path d="M 58.796875 25.09375 
L 68.265625 22.703125 
Q 65.28125 11.03125 57.546875 4.90625 
Q 49.8125 -1.21875 38.625 -1.21875 
Q 27.046875 -1.21875 19.796875 3.484375 
Q 12.546875 8.203125 8.765625 17.140625 
Q 4.984375 26.078125 4.984375 36.328125 
Q 4.984375 47.515625 9.25 55.828125 
Q 13.53125 64.15625 21.40625 68.46875 
Q 29.296875 72.796875 38.765625 72.796875 
Q 49.515625 72.796875 56.828125 67.328125 
Q 64.15625 61.859375 67.046875 51.953125 
L 57.71875 49.75 
Q 55.21875 57.5625 50.484375 61.125 
Q 45.75 64.703125 38.578125 64.703125 
Q 30.328125 64.703125 24.78125 60.734375 
Q 19.234375 56.78125 16.984375 50.109375 
Q 14.75 43.453125 14.75 36.375 
Q 14.75 27.25 17.40625 20.4375 
Q 20.0625 13.625 25.671875 10.25 
Q 31.296875 6.890625 37.84375 6.890625 
Q 45.796875 6.890625 51.3125 11.46875 
Q 56.84375 16.0625 58.796875 25.09375 
z
" id="ArialMT-67"/>
      <path d="M 8.6875 0 
L 8.6875 45.015625 
L 0.921875 45.015625 
L 0.921875 51.859375 
L 8.6875 51.859375 
L 8.6875 57.375 
Q 8.6875 62.59375 9.625 65.140625 
Q 10.890625 68.5625 14.078125 70.671875 
Q 17.28125 72.796875 23.046875 72.796875 
Q 26.765625 72.796875 31.25 71.921875 
L 29.9375 64.265625 
Q 27.203125 64.75 24.75 64.75 
Q 20.75 64.75 19.09375 63.03125 
Q 17.4375 61.328125 17.4375 56.640625 
L 17.4375 51.859375 
L 27.546875 51.859375 
L 27.546875 45.015625 
L 17.4375 45.015625 
L 17.4375 0 
z
" id="ArialMT-102"/>
      <path d="M 9.328125 0 
L 9.328125 71.578125 
L 18.796875 71.578125 
L 18.796875 0 
z
" id="ArialMT-73"/>
      <path d="M 21 0 
L 1.265625 51.859375 
L 10.546875 51.859375 
L 21.6875 20.796875 
Q 23.484375 15.765625 25 10.359375 
Q 26.171875 14.453125 28.265625 20.21875 
L 39.796875 51.859375 
L 48.828125 51.859375 
L 29.203125 0 
z
" id="ArialMT-118"/>
      <path d="M 6.59375 0 
L 6.59375 51.859375 
L 14.453125 51.859375 
L 14.453125 44.578125 
Q 16.890625 48.390625 20.9375 50.703125 
Q 25 53.03125 30.171875 53.03125 
Q 35.9375 53.03125 39.625 50.640625 
Q 43.3125 48.25 44.828125 43.953125 
Q 50.984375 53.03125 60.84375 53.03125 
Q 68.5625 53.03125 72.703125 48.75 
Q 76.859375 44.484375 76.859375 35.59375 
L 76.859375 0 
L 68.109375 0 
L 68.109375 32.671875 
Q 68.109375 37.9375 67.25 40.25 
Q 66.40625 42.578125 64.15625 43.984375 
Q 61.921875 45.40625 58.890625 45.40625 
Q 53.421875 45.40625 49.796875 41.765625 
Q 46.1875 38.140625 46.1875 30.125 
L 46.1875 0 
L 37.40625 0 
L 37.40625 33.6875 
Q 37.40625 39.546875 35.25 42.46875 
Q 33.109375 45.40625 28.21875 45.40625 
Q 24.515625 45.40625 21.359375 43.453125 
Q 18.21875 41.5 16.796875 37.734375 
Q 15.375 33.984375 15.375 26.90625 
L 15.375 0 
z
" id="ArialMT-109"/>
     </defs>
     <g style="fill:#262626;" transform="translate(759.328438 209.421313)scale(0.1 -0.1)">
      <use xlink:href="#ArialMT-67"/>
      <use x="72.216797" xlink:href="#ArialMT-111"/>
      <use x="127.832031" xlink:href="#ArialMT-110"/>
      <use x="183.447266" xlink:href="#ArialMT-102"/>
      <use x="211.230469" xlink:href="#ArialMT-105"/>
      <use x="233.447266" xlink:href="#ArialMT-100"/>
      <use x="289.0625" xlink:href="#ArialMT-101"/>
      <use x="344.677734" xlink:href="#ArialMT-110"/>
      <use x="400.292969" xlink:href="#ArialMT-99"/>
      <use x="450.292969" xlink:href="#ArialMT-101"/>
      <use x="505.908203" xlink:href="#ArialMT-32"/>
      <use x="533.691406" xlink:href="#ArialMT-73"/>
      <use x="561.474609" xlink:href="#ArialMT-110"/>
      <use x="617.089844" xlink:href="#ArialMT-116"/>
      <use x="644.873047" xlink:href="#ArialMT-101"/>
      <use x="700.488281" xlink:href="#ArialMT-114"/>
      <use x="733.789062" xlink:href="#ArialMT-118"/>
      <use x="783.789062" xlink:href="#ArialMT-97"/>
      <use x="839.404297" xlink:href="#ArialMT-108"/>
      <use x="861.621094" xlink:href="#ArialMT-32"/>
      <use x="889.404297" xlink:href="#ArialMT-40"/>
      <use x="922.705078" xlink:href="#ArialMT-109"/>
      <use x="1006.005859" xlink:href="#ArialMT-101"/>
      <use x="1061.621094" xlink:href="#ArialMT-97"/>
      <use x="1117.236328" xlink:href="#ArialMT-110"/>
      <use x="1172.851562" xlink:href="#ArialMT-95"/>
      <use x="1228.466797" xlink:href="#ArialMT-112"/>
      <use x="1284.082031" xlink:href="#ArialMT-114"/>
      <use x="1317.382812" xlink:href="#ArialMT-101"/>
      <use x="1372.998047" xlink:href="#ArialMT-100"/>
      <use x="1428.613281" xlink:href="#ArialMT-41"/>
     </g>
    </g>
    <g id="patch_9">
     <path d="M 731.328438 223.805688 
L 751.328438 223.805688 
L 751.328438 216.805688 
L 731.328438 216.805688 
z
" style="fill:#c44e52;opacity:0.1;stroke:#c44e52;stroke-linejoin:miter;"/>
    </g>
    <g id="text_25">
     <!-- Confidence Interval (mean_pred) -->
     <g style="fill:#262626;" transform="translate(759.328438 223.805688)scale(0.1 -0.1)">
      <use xlink:href="#ArialMT-67"/>
      <use x="72.216797" xlink:href="#ArialMT-111"/>
      <use x="127.832031" xlink:href="#ArialMT-110"/>
      <use x="183.447266" xlink:href="#ArialMT-102"/>
      <use x="211.230469" xlink:href="#ArialMT-105"/>
      <use x="233.447266" xlink:href="#ArialMT-100"/>
      <use x="289.0625" xlink:href="#ArialMT-101"/>
      <use x="344.677734" xlink:href="#ArialMT-110"/>
      <use x="400.292969" xlink:href="#ArialMT-99"/>
      <use x="450.292969" xlink:href="#ArialMT-101"/>
      <use x="505.908203" xlink:href="#ArialMT-32"/>
      <use x="533.691406" xlink:href="#ArialMT-73"/>
      <use x="561.474609" xlink:href="#ArialMT-110"/>
      <use x="617.089844" xlink:href="#ArialMT-116"/>
      <use x="644.873047" xlink:href="#ArialMT-101"/>
      <use x="700.488281" xlink:href="#ArialMT-114"/>
      <use x="733.789062" xlink:href="#ArialMT-118"/>
      <use x="783.789062" xlink:href="#ArialMT-97"/>
      <use x="839.404297" xlink:href="#ArialMT-108"/>
      <use x="861.621094" xlink:href="#ArialMT-32"/>
      <use x="889.404297" xlink:href="#ArialMT-40"/>
      <use x="922.705078" xlink:href="#ArialMT-109"/>
      <use x="1006.005859" xlink:href="#ArialMT-101"/>
      <use x="1061.621094" xlink:href="#ArialMT-97"/>
      <use x="1117.236328" xlink:href="#ArialMT-110"/>
      <use x="1172.851562" xlink:href="#ArialMT-95"/>
      <use x="1228.466797" xlink:href="#ArialMT-112"/>
      <use x="1284.082031" xlink:href="#ArialMT-114"/>
      <use x="1317.382812" xlink:href="#ArialMT-101"/>
      <use x="1372.998047" xlink:href="#ArialMT-100"/>
      <use x="1428.613281" xlink:href="#ArialMT-41"/>
     </g>
    </g>
    <g id="patch_10">
     <path d="M 731.328438 238.190063 
L 751.328438 238.190063 
L 751.328438 231.190063 
L 731.328438 231.190063 
z
" style="fill:#55a868;opacity:0.5;stroke:#55a868;stroke-linejoin:miter;"/>
    </g>
    <g id="text_26">
     <!-- Confidence Interval (obs_pred) -->
     <defs>
      <path d="M 14.703125 0 
L 6.546875 0 
L 6.546875 71.578125 
L 15.328125 71.578125 
L 15.328125 46.046875 
Q 20.90625 53.03125 29.546875 53.03125 
Q 34.328125 53.03125 38.59375 51.09375 
Q 42.875 49.171875 45.625 45.671875 
Q 48.390625 42.1875 49.953125 37.25 
Q 51.515625 32.328125 51.515625 26.703125 
Q 51.515625 13.375 44.921875 6.09375 
Q 38.328125 -1.171875 29.109375 -1.171875 
Q 19.921875 -1.171875 14.703125 6.5 
z
M 14.59375 26.3125 
Q 14.59375 17 17.140625 12.84375 
Q 21.296875 6.0625 28.375 6.0625 
Q 34.125 6.0625 38.328125 11.0625 
Q 42.53125 16.0625 42.53125 25.984375 
Q 42.53125 36.140625 38.5 40.96875 
Q 34.46875 45.796875 28.765625 45.796875 
Q 23 45.796875 18.796875 40.796875 
Q 14.59375 35.796875 14.59375 26.3125 
z
" id="ArialMT-98"/>
     </defs>
     <g style="fill:#262626;" transform="translate(759.328438 238.190063)scale(0.1 -0.1)">
      <use xlink:href="#ArialMT-67"/>
      <use x="72.216797" xlink:href="#ArialMT-111"/>
      <use x="127.832031" xlink:href="#ArialMT-110"/>
      <use x="183.447266" xlink:href="#ArialMT-102"/>
      <use x="211.230469" xlink:href="#ArialMT-105"/>
      <use x="233.447266" xlink:href="#ArialMT-100"/>
      <use x="289.0625" xlink:href="#ArialMT-101"/>
      <use x="344.677734" xlink:href="#ArialMT-110"/>
      <use x="400.292969" xlink:href="#ArialMT-99"/>
      <use x="450.292969" xlink:href="#ArialMT-101"/>
      <use x="505.908203" xlink:href="#ArialMT-32"/>
      <use x="533.691406" xlink:href="#ArialMT-73"/>
      <use x="561.474609" xlink:href="#ArialMT-110"/>
      <use x="617.089844" xlink:href="#ArialMT-116"/>
      <use x="644.873047" xlink:href="#ArialMT-101"/>
      <use x="700.488281" xlink:href="#ArialMT-114"/>
      <use x="733.789062" xlink:href="#ArialMT-118"/>
      <use x="783.789062" xlink:href="#ArialMT-97"/>
      <use x="839.404297" xlink:href="#ArialMT-108"/>
      <use x="861.621094" xlink:href="#ArialMT-32"/>
      <use x="889.404297" xlink:href="#ArialMT-40"/>
      <use x="922.705078" xlink:href="#ArialMT-111"/>
      <use x="978.320312" xlink:href="#ArialMT-98"/>
      <use x="1033.935547" xlink:href="#ArialMT-115"/>
      <use x="1083.935547" xlink:href="#ArialMT-95"/>
      <use x="1139.550781" xlink:href="#ArialMT-112"/>
      <use x="1195.166016" xlink:href="#ArialMT-114"/>
      <use x="1228.466797" xlink:href="#ArialMT-101"/>
      <use x="1284.082031" xlink:href="#ArialMT-100"/>
      <use x="1339.697266" xlink:href="#ArialMT-41"/>
     </g>
    </g>
    <g id="patch_11">
     <path d="M 731.328438 252.574438 
L 751.328438 252.574438 
L 751.328438 245.574438 
L 731.328438 245.574438 
z
" style="fill:#55a868;opacity:0.1;stroke:#55a868;stroke-linejoin:miter;"/>
    </g>
    <g id="text_27">
     <!-- Confidence Interval (obs_pred) -->
     <g style="fill:#262626;" transform="translate(759.328438 252.574438)scale(0.1 -0.1)">
      <use xlink:href="#ArialMT-67"/>
      <use x="72.216797" xlink:href="#ArialMT-111"/>
      <use x="127.832031" xlink:href="#ArialMT-110"/>
      <use x="183.447266" xlink:href="#ArialMT-102"/>
      <use x="211.230469" xlink:href="#ArialMT-105"/>
      <use x="233.447266" xlink:href="#ArialMT-100"/>
      <use x="289.0625" xlink:href="#ArialMT-101"/>
      <use x="344.677734" xlink:href="#ArialMT-110"/>
      <use x="400.292969" xlink:href="#ArialMT-99"/>
      <use x="450.292969" xlink:href="#ArialMT-101"/>
      <use x="505.908203" xlink:href="#ArialMT-32"/>
      <use x="533.691406" xlink:href="#ArialMT-73"/>
      <use x="561.474609" xlink:href="#ArialMT-110"/>
      <use x="617.089844" xlink:href="#ArialMT-116"/>
      <use x="644.873047" xlink:href="#ArialMT-101"/>
      <use x="700.488281" xlink:href="#ArialMT-114"/>
      <use x="733.789062" xlink:href="#ArialMT-118"/>
      <use x="783.789062" xlink:href="#ArialMT-97"/>
      <use x="839.404297" xlink:href="#ArialMT-108"/>
      <use x="861.621094" xlink:href="#ArialMT-32"/>
      <use x="889.404297" xlink:href="#ArialMT-40"/>
      <use x="922.705078" xlink:href="#ArialMT-111"/>
      <use x="978.320312" xlink:href="#ArialMT-98"/>
      <use x="1033.935547" xlink:href="#ArialMT-115"/>
      <use x="1083.935547" xlink:href="#ArialMT-95"/>
      <use x="1139.550781" xlink:href="#ArialMT-112"/>
      <use x="1195.166016" xlink:href="#ArialMT-114"/>
      <use x="1228.466797" xlink:href="#ArialMT-101"/>
      <use x="1284.082031" xlink:href="#ArialMT-100"/>
      <use x="1339.697266" xlink:href="#ArialMT-41"/>
     </g>
    </g>
   </g>
  </g>
 </g>
 <defs>
  <clipPath id="p194f3a9f75">
   <rect height="326.16" width="669.6" x="44.028125" y="21.935625"/>
  </clipPath>
 </defs>
</svg>
