<?xml version="1.0" encoding="utf-8" standalone="no"?>
<!DOCTYPE svg PUBLIC "-//W3C//DTD SVG 1.1//EN"
  "http://www.w3.org/Graphics/SVG/1.1/DTD/svg11.dtd">
<!-- Created with matplotlib (https://matplotlib.org/) -->
<svg height="371.810625pt" version="1.1" viewBox="0 0 408.297575 371.810625" width="408.297575pt" xmlns="http://www.w3.org/2000/svg" xmlns:xlink="http://www.w3.org/1999/xlink">
 <defs>
  <style type="text/css">
*{stroke-linecap:butt;stroke-linejoin:round;}
  </style>
 </defs>
 <g id="figure_1">
  <g id="patch_1">
   <path d="M 0 371.810625 
L 408.297575 371.810625 
L 408.297575 0 
L 0 0 
z
" style="fill:none;"/>
  </g>
  <g id="axes_1">
   <g id="patch_2">
    <path d="M 38.584375 335.32 
L 346.412275 335.32 
L 346.412275 25.2 
L 38.584375 25.2 
z
" style="fill:#e6e6e6;"/>
   </g>
   <g id="matplotlib.axis_1">
    <g id="xtick_1">
     <g id="line2d_1">
      <path clip-path="url(#pea19388d57)" d="M 48.084545 335.32 
L 48.084545 25.2 
" style="fill:none;stroke:#cccccc;stroke-linecap:round;stroke-width:0.8;"/>
     </g>
     <g id="text_1">
      <!-- 10 -->
      <defs>
       <path d="M 37.25 0 
L 28.46875 0 
L 28.46875 56 
Q 25.296875 52.984375 20.140625 49.953125 
Q 14.984375 46.921875 10.890625 45.40625 
L 10.890625 53.90625 
Q 18.265625 57.375 23.78125 62.296875 
Q 29.296875 67.234375 31.59375 71.875 
L 37.25 71.875 
z
" id="ArialMT-49"/>
       <path d="M 4.15625 35.296875 
Q 4.15625 48 6.765625 55.734375 
Q 9.375 63.484375 14.515625 67.671875 
Q 19.671875 71.875 27.484375 71.875 
Q 33.25 71.875 37.59375 69.546875 
Q 41.9375 67.234375 44.765625 62.859375 
Q 47.609375 58.5 49.21875 52.21875 
Q 50.828125 45.953125 50.828125 35.296875 
Q 50.828125 22.703125 48.234375 14.96875 
Q 45.65625 7.234375 40.5 3 
Q 35.359375 -1.21875 27.484375 -1.21875 
Q 17.140625 -1.21875 11.234375 6.203125 
Q 4.15625 15.140625 4.15625 35.296875 
z
M 13.1875 35.296875 
Q 13.1875 17.671875 17.3125 11.828125 
Q 21.4375 6 27.484375 6 
Q 33.546875 6 37.671875 11.859375 
Q 41.796875 17.71875 41.796875 35.296875 
Q 41.796875 52.984375 37.671875 58.78125 
Q 33.546875 64.59375 27.390625 64.59375 
Q 21.34375 64.59375 17.71875 59.46875 
Q 13.1875 52.9375 13.1875 35.296875 
z
" id="ArialMT-48"/>
      </defs>
      <g style="fill:#262626;" transform="translate(42.523608 349.477813)scale(0.1 -0.1)">
       <use xlink:href="#ArialMT-49"/>
       <use x="55.615234" xlink:href="#ArialMT-48"/>
      </g>
     </g>
    </g>
    <g id="xtick_2">
     <g id="line2d_2">
      <path clip-path="url(#pea19388d57)" d="M 85.440132 335.32 
L 85.440132 25.2 
" style="fill:none;stroke:#cccccc;stroke-linecap:round;stroke-width:0.8;"/>
     </g>
     <g id="text_2">
      <!-- 20 -->
      <defs>
       <path d="M 50.34375 8.453125 
L 50.34375 0 
L 3.03125 0 
Q 2.9375 3.171875 4.046875 6.109375 
Q 5.859375 10.9375 9.828125 15.625 
Q 13.8125 20.3125 21.34375 26.46875 
Q 33.015625 36.03125 37.109375 41.625 
Q 41.21875 47.21875 41.21875 52.203125 
Q 41.21875 57.421875 37.46875 61 
Q 33.734375 64.59375 27.734375 64.59375 
Q 21.390625 64.59375 17.578125 60.78125 
Q 13.765625 56.984375 13.71875 50.25 
L 4.6875 51.171875 
Q 5.609375 61.28125 11.65625 66.578125 
Q 17.71875 71.875 27.9375 71.875 
Q 38.234375 71.875 44.234375 66.15625 
Q 50.25 60.453125 50.25 52 
Q 50.25 47.703125 48.484375 43.546875 
Q 46.734375 39.40625 42.65625 34.8125 
Q 38.578125 30.21875 29.109375 22.21875 
Q 21.1875 15.578125 18.9375 13.203125 
Q 16.703125 10.84375 15.234375 8.453125 
z
" id="ArialMT-50"/>
      </defs>
      <g style="fill:#262626;" transform="translate(79.879195 349.477813)scale(0.1 -0.1)">
       <use xlink:href="#ArialMT-50"/>
       <use x="55.615234" xlink:href="#ArialMT-48"/>
      </g>
     </g>
    </g>
    <g id="xtick_3">
     <g id="line2d_3">
      <path clip-path="url(#pea19388d57)" d="M 122.795719 335.32 
L 122.795719 25.2 
" style="fill:none;stroke:#cccccc;stroke-linecap:round;stroke-width:0.8;"/>
     </g>
     <g id="text_3">
      <!-- 30 -->
      <defs>
       <path d="M 4.203125 18.890625 
L 12.984375 20.0625 
Q 14.5 12.59375 18.140625 9.296875 
Q 21.78125 6 27 6 
Q 33.203125 6 37.46875 10.296875 
Q 41.75 14.59375 41.75 20.953125 
Q 41.75 27 37.796875 30.921875 
Q 33.84375 34.859375 27.734375 34.859375 
Q 25.25 34.859375 21.53125 33.890625 
L 22.515625 41.609375 
Q 23.390625 41.5 23.921875 41.5 
Q 29.546875 41.5 34.03125 44.421875 
Q 38.53125 47.359375 38.53125 53.46875 
Q 38.53125 58.296875 35.25 61.46875 
Q 31.984375 64.65625 26.8125 64.65625 
Q 21.6875 64.65625 18.265625 61.421875 
Q 14.84375 58.203125 13.875 51.765625 
L 5.078125 53.328125 
Q 6.6875 62.15625 12.390625 67.015625 
Q 18.109375 71.875 26.609375 71.875 
Q 32.46875 71.875 37.390625 69.359375 
Q 42.328125 66.84375 44.9375 62.5 
Q 47.5625 58.15625 47.5625 53.265625 
Q 47.5625 48.640625 45.0625 44.828125 
Q 42.578125 41.015625 37.703125 38.765625 
Q 44.046875 37.3125 47.5625 32.6875 
Q 51.078125 28.078125 51.078125 21.140625 
Q 51.078125 11.765625 44.234375 5.25 
Q 37.40625 -1.265625 26.953125 -1.265625 
Q 17.53125 -1.265625 11.296875 4.34375 
Q 5.078125 9.96875 4.203125 18.890625 
z
" id="ArialMT-51"/>
      </defs>
      <g style="fill:#262626;" transform="translate(117.234782 349.477813)scale(0.1 -0.1)">
       <use xlink:href="#ArialMT-51"/>
       <use x="55.615234" xlink:href="#ArialMT-48"/>
      </g>
     </g>
    </g>
    <g id="xtick_4">
     <g id="line2d_4">
      <path clip-path="url(#pea19388d57)" d="M 160.151306 335.32 
L 160.151306 25.2 
" style="fill:none;stroke:#cccccc;stroke-linecap:round;stroke-width:0.8;"/>
     </g>
     <g id="text_4">
      <!-- 40 -->
      <defs>
       <path d="M 32.328125 0 
L 32.328125 17.140625 
L 1.265625 17.140625 
L 1.265625 25.203125 
L 33.9375 71.578125 
L 41.109375 71.578125 
L 41.109375 25.203125 
L 50.78125 25.203125 
L 50.78125 17.140625 
L 41.109375 17.140625 
L 41.109375 0 
z
M 32.328125 25.203125 
L 32.328125 57.46875 
L 9.90625 25.203125 
z
" id="ArialMT-52"/>
      </defs>
      <g style="fill:#262626;" transform="translate(154.590369 349.477813)scale(0.1 -0.1)">
       <use xlink:href="#ArialMT-52"/>
       <use x="55.615234" xlink:href="#ArialMT-48"/>
      </g>
     </g>
    </g>
    <g id="xtick_5">
     <g id="line2d_5">
      <path clip-path="url(#pea19388d57)" d="M 197.506893 335.32 
L 197.506893 25.2 
" style="fill:none;stroke:#cccccc;stroke-linecap:round;stroke-width:0.8;"/>
     </g>
     <g id="text_5">
      <!-- 50 -->
      <defs>
       <path d="M 4.15625 18.75 
L 13.375 19.53125 
Q 14.40625 12.796875 18.140625 9.390625 
Q 21.875 6 27.15625 6 
Q 33.5 6 37.890625 10.78125 
Q 42.28125 15.578125 42.28125 23.484375 
Q 42.28125 31 38.0625 35.34375 
Q 33.84375 39.703125 27 39.703125 
Q 22.75 39.703125 19.328125 37.765625 
Q 15.921875 35.84375 13.96875 32.765625 
L 5.71875 33.84375 
L 12.640625 70.609375 
L 48.25 70.609375 
L 48.25 62.203125 
L 19.671875 62.203125 
L 15.828125 42.96875 
Q 22.265625 47.46875 29.34375 47.46875 
Q 38.71875 47.46875 45.15625 40.96875 
Q 51.609375 34.46875 51.609375 24.265625 
Q 51.609375 14.546875 45.953125 7.46875 
Q 39.0625 -1.21875 27.15625 -1.21875 
Q 17.390625 -1.21875 11.203125 4.25 
Q 5.03125 9.71875 4.15625 18.75 
z
" id="ArialMT-53"/>
      </defs>
      <g style="fill:#262626;" transform="translate(191.945956 349.477813)scale(0.1 -0.1)">
       <use xlink:href="#ArialMT-53"/>
       <use x="55.615234" xlink:href="#ArialMT-48"/>
      </g>
     </g>
    </g>
    <g id="xtick_6">
     <g id="line2d_6">
      <path clip-path="url(#pea19388d57)" d="M 234.86248 335.32 
L 234.86248 25.2 
" style="fill:none;stroke:#cccccc;stroke-linecap:round;stroke-width:0.8;"/>
     </g>
     <g id="text_6">
      <!-- 60 -->
      <defs>
       <path d="M 49.75 54.046875 
L 41.015625 53.375 
Q 39.84375 58.546875 37.703125 60.890625 
Q 34.125 64.65625 28.90625 64.65625 
Q 24.703125 64.65625 21.53125 62.3125 
Q 17.390625 59.28125 14.984375 53.46875 
Q 12.59375 47.65625 12.5 36.921875 
Q 15.671875 41.75 20.265625 44.09375 
Q 24.859375 46.4375 29.890625 46.4375 
Q 38.671875 46.4375 44.84375 39.96875 
Q 51.03125 33.5 51.03125 23.25 
Q 51.03125 16.5 48.125 10.71875 
Q 45.21875 4.9375 40.140625 1.859375 
Q 35.0625 -1.21875 28.609375 -1.21875 
Q 17.625 -1.21875 10.6875 6.859375 
Q 3.765625 14.9375 3.765625 33.5 
Q 3.765625 54.25 11.421875 63.671875 
Q 18.109375 71.875 29.4375 71.875 
Q 37.890625 71.875 43.28125 67.140625 
Q 48.6875 62.40625 49.75 54.046875 
z
M 13.875 23.1875 
Q 13.875 18.65625 15.796875 14.5 
Q 17.71875 10.359375 21.1875 8.171875 
Q 24.65625 6 28.46875 6 
Q 34.03125 6 38.03125 10.484375 
Q 42.046875 14.984375 42.046875 22.703125 
Q 42.046875 30.125 38.078125 34.390625 
Q 34.125 38.671875 28.125 38.671875 
Q 22.171875 38.671875 18.015625 34.390625 
Q 13.875 30.125 13.875 23.1875 
z
" id="ArialMT-54"/>
      </defs>
      <g style="fill:#262626;" transform="translate(229.301543 349.477813)scale(0.1 -0.1)">
       <use xlink:href="#ArialMT-54"/>
       <use x="55.615234" xlink:href="#ArialMT-48"/>
      </g>
     </g>
    </g>
    <g id="xtick_7">
     <g id="line2d_7">
      <path clip-path="url(#pea19388d57)" d="M 272.218067 335.32 
L 272.218067 25.2 
" style="fill:none;stroke:#cccccc;stroke-linecap:round;stroke-width:0.8;"/>
     </g>
     <g id="text_7">
      <!-- 70 -->
      <defs>
       <path d="M 4.734375 62.203125 
L 4.734375 70.65625 
L 51.078125 70.65625 
L 51.078125 63.8125 
Q 44.234375 56.546875 37.515625 44.484375 
Q 30.8125 32.421875 27.15625 19.671875 
Q 24.515625 10.6875 23.78125 0 
L 14.75 0 
Q 14.890625 8.453125 18.0625 20.40625 
Q 21.234375 32.375 27.171875 43.484375 
Q 33.109375 54.59375 39.796875 62.203125 
z
" id="ArialMT-55"/>
      </defs>
      <g style="fill:#262626;" transform="translate(266.65713 349.477813)scale(0.1 -0.1)">
       <use xlink:href="#ArialMT-55"/>
       <use x="55.615234" xlink:href="#ArialMT-48"/>
      </g>
     </g>
    </g>
    <g id="xtick_8">
     <g id="line2d_8">
      <path clip-path="url(#pea19388d57)" d="M 309.573654 335.32 
L 309.573654 25.2 
" style="fill:none;stroke:#cccccc;stroke-linecap:round;stroke-width:0.8;"/>
     </g>
     <g id="text_8">
      <!-- 80 -->
      <defs>
       <path d="M 17.671875 38.8125 
Q 12.203125 40.828125 9.5625 44.53125 
Q 6.9375 48.25 6.9375 53.421875 
Q 6.9375 61.234375 12.546875 66.546875 
Q 18.171875 71.875 27.484375 71.875 
Q 36.859375 71.875 42.578125 66.421875 
Q 48.296875 60.984375 48.296875 53.171875 
Q 48.296875 48.1875 45.671875 44.5 
Q 43.0625 40.828125 37.75 38.8125 
Q 44.34375 36.671875 47.78125 31.875 
Q 51.21875 27.09375 51.21875 20.453125 
Q 51.21875 11.28125 44.71875 5.03125 
Q 38.234375 -1.21875 27.640625 -1.21875 
Q 17.046875 -1.21875 10.546875 5.046875 
Q 4.046875 11.328125 4.046875 20.703125 
Q 4.046875 27.6875 7.59375 32.390625 
Q 11.140625 37.109375 17.671875 38.8125 
z
M 15.921875 53.71875 
Q 15.921875 48.640625 19.1875 45.40625 
Q 22.46875 42.1875 27.6875 42.1875 
Q 32.765625 42.1875 36.015625 45.375 
Q 39.265625 48.578125 39.265625 53.21875 
Q 39.265625 58.0625 35.90625 61.359375 
Q 32.5625 64.65625 27.59375 64.65625 
Q 22.5625 64.65625 19.234375 61.421875 
Q 15.921875 58.203125 15.921875 53.71875 
z
M 13.09375 20.65625 
Q 13.09375 16.890625 14.875 13.375 
Q 16.65625 9.859375 20.171875 7.921875 
Q 23.6875 6 27.734375 6 
Q 34.03125 6 38.125 10.046875 
Q 42.234375 14.109375 42.234375 20.359375 
Q 42.234375 26.703125 38.015625 30.859375 
Q 33.796875 35.015625 27.4375 35.015625 
Q 21.234375 35.015625 17.15625 30.90625 
Q 13.09375 26.8125 13.09375 20.65625 
z
" id="ArialMT-56"/>
      </defs>
      <g style="fill:#262626;" transform="translate(304.012717 349.477813)scale(0.1 -0.1)">
       <use xlink:href="#ArialMT-56"/>
       <use x="55.615234" xlink:href="#ArialMT-48"/>
      </g>
     </g>
    </g>
    <g id="text_9">
     <!-- y_true -->
     <defs>
      <path d="M 6.203125 -19.96875 
L 5.21875 -11.71875 
Q 8.109375 -12.5 10.25 -12.5 
Q 13.1875 -12.5 14.9375 -11.515625 
Q 16.703125 -10.546875 17.828125 -8.796875 
Q 18.65625 -7.46875 20.515625 -2.25 
Q 20.75 -1.515625 21.296875 -0.09375 
L 1.609375 51.859375 
L 11.078125 51.859375 
L 21.875 21.828125 
Q 23.96875 16.109375 25.640625 9.8125 
Q 27.15625 15.875 29.25 21.625 
L 40.328125 51.859375 
L 49.125 51.859375 
L 29.390625 -0.875 
Q 26.21875 -9.421875 24.46875 -12.640625 
Q 22.125 -17 19.09375 -19.015625 
Q 16.0625 -21.046875 11.859375 -21.046875 
Q 9.328125 -21.046875 6.203125 -19.96875 
z
" id="ArialMT-121"/>
      <path d="M -1.515625 -19.875 
L -1.515625 -13.53125 
L 56.734375 -13.53125 
L 56.734375 -19.875 
z
" id="ArialMT-95"/>
      <path d="M 25.78125 7.859375 
L 27.046875 0.09375 
Q 23.34375 -0.6875 20.40625 -0.6875 
Q 15.625 -0.6875 12.984375 0.828125 
Q 10.359375 2.34375 9.28125 4.8125 
Q 8.203125 7.28125 8.203125 15.1875 
L 8.203125 45.015625 
L 1.765625 45.015625 
L 1.765625 51.859375 
L 8.203125 51.859375 
L 8.203125 64.703125 
L 16.9375 69.96875 
L 16.9375 51.859375 
L 25.78125 51.859375 
L 25.78125 45.015625 
L 16.9375 45.015625 
L 16.9375 14.703125 
Q 16.9375 10.9375 17.40625 9.859375 
Q 17.875 8.796875 18.921875 8.15625 
Q 19.96875 7.515625 21.921875 7.515625 
Q 23.390625 7.515625 25.78125 7.859375 
z
" id="ArialMT-116"/>
      <path d="M 6.5 0 
L 6.5 51.859375 
L 14.40625 51.859375 
L 14.40625 44 
Q 17.4375 49.515625 20 51.265625 
Q 22.5625 53.03125 25.640625 53.03125 
Q 30.078125 53.03125 34.671875 50.203125 
L 31.640625 42.046875 
Q 28.421875 43.953125 25.203125 43.953125 
Q 22.3125 43.953125 20.015625 42.21875 
Q 17.71875 40.484375 16.75 37.40625 
Q 15.28125 32.71875 15.28125 27.15625 
L 15.28125 0 
z
" id="ArialMT-114"/>
      <path d="M 40.578125 0 
L 40.578125 7.625 
Q 34.515625 -1.171875 24.125 -1.171875 
Q 19.53125 -1.171875 15.546875 0.578125 
Q 11.578125 2.34375 9.640625 5 
Q 7.71875 7.671875 6.9375 11.53125 
Q 6.390625 14.109375 6.390625 19.734375 
L 6.390625 51.859375 
L 15.1875 51.859375 
L 15.1875 23.09375 
Q 15.1875 16.21875 15.71875 13.8125 
Q 16.546875 10.359375 19.234375 8.375 
Q 21.921875 6.390625 25.875 6.390625 
Q 29.828125 6.390625 33.296875 8.421875 
Q 36.765625 10.453125 38.203125 13.9375 
Q 39.65625 17.4375 39.65625 24.078125 
L 39.65625 51.859375 
L 48.4375 51.859375 
L 48.4375 0 
z
" id="ArialMT-117"/>
      <path d="M 42.09375 16.703125 
L 51.171875 15.578125 
Q 49.03125 7.625 43.21875 3.21875 
Q 37.40625 -1.171875 28.375 -1.171875 
Q 17 -1.171875 10.328125 5.828125 
Q 3.65625 12.84375 3.65625 25.484375 
Q 3.65625 38.578125 10.390625 45.796875 
Q 17.140625 53.03125 27.875 53.03125 
Q 38.28125 53.03125 44.875 45.953125 
Q 51.46875 38.875 51.46875 26.03125 
Q 51.46875 25.25 51.421875 23.6875 
L 12.75 23.6875 
Q 13.234375 15.140625 17.578125 10.59375 
Q 21.921875 6.0625 28.421875 6.0625 
Q 33.25 6.0625 36.671875 8.59375 
Q 40.09375 11.140625 42.09375 16.703125 
z
M 13.234375 30.90625 
L 42.1875 30.90625 
Q 41.609375 37.453125 38.875 40.71875 
Q 34.671875 45.796875 27.984375 45.796875 
Q 21.921875 45.796875 17.796875 41.75 
Q 13.671875 37.703125 13.234375 30.90625 
z
" id="ArialMT-101"/>
     </defs>
     <g style="fill:#262626;" transform="translate(178.603012 362.505938)scale(0.1 -0.1)">
      <use xlink:href="#ArialMT-121"/>
      <use x="50" xlink:href="#ArialMT-95"/>
      <use x="105.615234" xlink:href="#ArialMT-116"/>
      <use x="133.398438" xlink:href="#ArialMT-114"/>
      <use x="166.699219" xlink:href="#ArialMT-117"/>
      <use x="222.314453" xlink:href="#ArialMT-101"/>
     </g>
    </g>
   </g>
   <g id="matplotlib.axis_2">
    <g id="ytick_1">
     <g id="line2d_9">
      <path clip-path="url(#pea19388d57)" d="M 38.584375 317.051531 
L 346.412275 317.051531 
" style="fill:none;stroke:#cccccc;stroke-linecap:round;stroke-width:0.8;"/>
     </g>
     <g id="text_10">
      <!-- 10 -->
      <g style="fill:#262626;" transform="translate(20.4625 320.630437)scale(0.1 -0.1)">
       <use xlink:href="#ArialMT-49"/>
       <use x="55.615234" xlink:href="#ArialMT-48"/>
      </g>
     </g>
    </g>
    <g id="ytick_2">
     <g id="line2d_10">
      <path clip-path="url(#pea19388d57)" d="M 38.584375 282.535179 
L 346.412275 282.535179 
" style="fill:none;stroke:#cccccc;stroke-linecap:round;stroke-width:0.8;"/>
     </g>
     <g id="text_11">
      <!-- 20 -->
      <g style="fill:#262626;" transform="translate(20.4625 286.114086)scale(0.1 -0.1)">
       <use xlink:href="#ArialMT-50"/>
       <use x="55.615234" xlink:href="#ArialMT-48"/>
      </g>
     </g>
    </g>
    <g id="ytick_3">
     <g id="line2d_11">
      <path clip-path="url(#pea19388d57)" d="M 38.584375 248.018827 
L 346.412275 248.018827 
" style="fill:none;stroke:#cccccc;stroke-linecap:round;stroke-width:0.8;"/>
     </g>
     <g id="text_12">
      <!-- 30 -->
      <g style="fill:#262626;" transform="translate(20.4625 251.597734)scale(0.1 -0.1)">
       <use xlink:href="#ArialMT-51"/>
       <use x="55.615234" xlink:href="#ArialMT-48"/>
      </g>
     </g>
    </g>
    <g id="ytick_4">
     <g id="line2d_12">
      <path clip-path="url(#pea19388d57)" d="M 38.584375 213.502475 
L 346.412275 213.502475 
" style="fill:none;stroke:#cccccc;stroke-linecap:round;stroke-width:0.8;"/>
     </g>
     <g id="text_13">
      <!-- 40 -->
      <g style="fill:#262626;" transform="translate(20.4625 217.081382)scale(0.1 -0.1)">
       <use xlink:href="#ArialMT-52"/>
       <use x="55.615234" xlink:href="#ArialMT-48"/>
      </g>
     </g>
    </g>
    <g id="ytick_5">
     <g id="line2d_13">
      <path clip-path="url(#pea19388d57)" d="M 38.584375 178.986123 
L 346.412275 178.986123 
" style="fill:none;stroke:#cccccc;stroke-linecap:round;stroke-width:0.8;"/>
     </g>
     <g id="text_14">
      <!-- 50 -->
      <g style="fill:#262626;" transform="translate(20.4625 182.56503)scale(0.1 -0.1)">
       <use xlink:href="#ArialMT-53"/>
       <use x="55.615234" xlink:href="#ArialMT-48"/>
      </g>
     </g>
    </g>
    <g id="ytick_6">
     <g id="line2d_14">
      <path clip-path="url(#pea19388d57)" d="M 38.584375 144.469772 
L 346.412275 144.469772 
" style="fill:none;stroke:#cccccc;stroke-linecap:round;stroke-width:0.8;"/>
     </g>
     <g id="text_15">
      <!-- 60 -->
      <g style="fill:#262626;" transform="translate(20.4625 148.048678)scale(0.1 -0.1)">
       <use xlink:href="#ArialMT-54"/>
       <use x="55.615234" xlink:href="#ArialMT-48"/>
      </g>
     </g>
    </g>
    <g id="ytick_7">
     <g id="line2d_15">
      <path clip-path="url(#pea19388d57)" d="M 38.584375 109.95342 
L 346.412275 109.95342 
" style="fill:none;stroke:#cccccc;stroke-linecap:round;stroke-width:0.8;"/>
     </g>
     <g id="text_16">
      <!-- 70 -->
      <g style="fill:#262626;" transform="translate(20.4625 113.532326)scale(0.1 -0.1)">
       <use xlink:href="#ArialMT-55"/>
       <use x="55.615234" xlink:href="#ArialMT-48"/>
      </g>
     </g>
    </g>
    <g id="ytick_8">
     <g id="line2d_16">
      <path clip-path="url(#pea19388d57)" d="M 38.584375 75.437068 
L 346.412275 75.437068 
" style="fill:none;stroke:#cccccc;stroke-linecap:round;stroke-width:0.8;"/>
     </g>
     <g id="text_17">
      <!-- 80 -->
      <g style="fill:#262626;" transform="translate(20.4625 79.015974)scale(0.1 -0.1)">
       <use xlink:href="#ArialMT-56"/>
       <use x="55.615234" xlink:href="#ArialMT-48"/>
      </g>
     </g>
    </g>
    <g id="ytick_9">
     <g id="line2d_17">
      <path clip-path="url(#pea19388d57)" d="M 38.584375 40.920716 
L 346.412275 40.920716 
" style="fill:none;stroke:#cccccc;stroke-linecap:round;stroke-width:0.8;"/>
     </g>
     <g id="text_18">
      <!-- 90 -->
      <defs>
       <path d="M 5.46875 16.546875 
L 13.921875 17.328125 
Q 14.984375 11.375 18.015625 8.6875 
Q 21.046875 6 25.78125 6 
Q 29.828125 6 32.875 7.859375 
Q 35.9375 9.71875 37.890625 12.8125 
Q 39.84375 15.921875 41.15625 21.1875 
Q 42.484375 26.46875 42.484375 31.9375 
Q 42.484375 32.515625 42.4375 33.6875 
Q 39.796875 29.5 35.234375 26.875 
Q 30.671875 24.265625 25.34375 24.265625 
Q 16.453125 24.265625 10.296875 30.703125 
Q 4.15625 37.15625 4.15625 47.703125 
Q 4.15625 58.59375 10.578125 65.234375 
Q 17 71.875 26.65625 71.875 
Q 33.640625 71.875 39.421875 68.109375 
Q 45.21875 64.359375 48.21875 57.390625 
Q 51.21875 50.4375 51.21875 37.25 
Q 51.21875 23.53125 48.234375 15.40625 
Q 45.265625 7.28125 39.375 3.03125 
Q 33.5 -1.21875 25.59375 -1.21875 
Q 17.1875 -1.21875 11.859375 3.4375 
Q 6.546875 8.109375 5.46875 16.546875 
z
M 41.453125 48.140625 
Q 41.453125 55.71875 37.421875 60.15625 
Q 33.40625 64.59375 27.734375 64.59375 
Q 21.875 64.59375 17.53125 59.8125 
Q 13.1875 55.03125 13.1875 47.40625 
Q 13.1875 40.578125 17.3125 36.296875 
Q 21.4375 32.03125 27.484375 32.03125 
Q 33.59375 32.03125 37.515625 36.296875 
Q 41.453125 40.578125 41.453125 48.140625 
z
" id="ArialMT-57"/>
      </defs>
      <g style="fill:#262626;" transform="translate(20.4625 44.499622)scale(0.1 -0.1)">
       <use xlink:href="#ArialMT-57"/>
       <use x="55.615234" xlink:href="#ArialMT-48"/>
      </g>
     </g>
    </g>
    <g id="text_19">
     <!-- y_pred -->
     <defs>
      <path d="M 6.59375 -19.875 
L 6.59375 51.859375 
L 14.59375 51.859375 
L 14.59375 45.125 
Q 17.4375 49.078125 21 51.046875 
Q 24.5625 53.03125 29.640625 53.03125 
Q 36.28125 53.03125 41.359375 49.609375 
Q 46.4375 46.1875 49.015625 39.953125 
Q 51.609375 33.734375 51.609375 26.3125 
Q 51.609375 18.359375 48.75 11.984375 
Q 45.90625 5.609375 40.453125 2.21875 
Q 35.015625 -1.171875 29 -1.171875 
Q 24.609375 -1.171875 21.109375 0.6875 
Q 17.625 2.546875 15.375 5.375 
L 15.375 -19.875 
z
M 14.546875 25.640625 
Q 14.546875 15.625 18.59375 10.84375 
Q 22.65625 6.0625 28.421875 6.0625 
Q 34.28125 6.0625 38.453125 11.015625 
Q 42.625 15.96875 42.625 26.375 
Q 42.625 36.28125 38.546875 41.203125 
Q 34.46875 46.140625 28.8125 46.140625 
Q 23.1875 46.140625 18.859375 40.890625 
Q 14.546875 35.640625 14.546875 25.640625 
z
" id="ArialMT-112"/>
      <path d="M 40.234375 0 
L 40.234375 6.546875 
Q 35.296875 -1.171875 25.734375 -1.171875 
Q 19.53125 -1.171875 14.328125 2.25 
Q 9.125 5.671875 6.265625 11.796875 
Q 3.421875 17.921875 3.421875 25.875 
Q 3.421875 33.640625 6 39.96875 
Q 8.59375 46.296875 13.765625 49.65625 
Q 18.953125 53.03125 25.34375 53.03125 
Q 30.03125 53.03125 33.6875 51.046875 
Q 37.359375 49.078125 39.65625 45.90625 
L 39.65625 71.578125 
L 48.390625 71.578125 
L 48.390625 0 
z
M 12.453125 25.875 
Q 12.453125 15.921875 16.640625 10.984375 
Q 20.84375 6.0625 26.5625 6.0625 
Q 32.328125 6.0625 36.34375 10.765625 
Q 40.375 15.484375 40.375 25.140625 
Q 40.375 35.796875 36.265625 40.765625 
Q 32.171875 45.75 26.171875 45.75 
Q 20.3125 45.75 16.375 40.96875 
Q 12.453125 36.1875 12.453125 25.875 
z
" id="ArialMT-100"/>
     </defs>
     <g style="fill:#262626;" transform="translate(14.357813 195.546719)rotate(-90)scale(0.1 -0.1)">
      <use xlink:href="#ArialMT-121"/>
      <use x="50" xlink:href="#ArialMT-95"/>
      <use x="105.615234" xlink:href="#ArialMT-112"/>
      <use x="161.230469" xlink:href="#ArialMT-114"/>
      <use x="194.53125" xlink:href="#ArialMT-101"/>
      <use x="250.146484" xlink:href="#ArialMT-100"/>
     </g>
    </g>
   </g>
   <g id="PathCollection_1">
    <defs>
     <path d="M 0 3 
C 0.795609 3 1.55874 2.683901 2.12132 2.12132 
C 2.683901 1.55874 3 0.795609 3 0 
C 3 -0.795609 2.683901 -1.55874 2.12132 -2.12132 
C 1.55874 -2.683901 0.795609 -3 0 -3 
C -0.795609 -3 -1.55874 -2.683901 -2.12132 -2.12132 
C -2.683901 -1.55874 -3 -0.795609 -3 0 
C -3 0.795609 -2.683901 1.55874 -2.12132 2.12132 
C -1.55874 2.683901 -0.795609 3 0 3 
z
" id="mdee71ce039" style="stroke:#4c72b0;stroke-opacity:0.8;"/>
    </defs>
    <g clip-path="url(#pea19388d57)">
     <use style="fill:#4c72b0;fill-opacity:0.8;stroke:#4c72b0;stroke-opacity:0.8;" x="82.785812" xlink:href="#mdee71ce039" y="295.84106"/>
     <use style="fill:#4c72b0;fill-opacity:0.8;stroke:#4c72b0;stroke-opacity:0.8;" x="188.989828" xlink:href="#mdee71ce039" y="207.600329"/>
     <use style="fill:#4c72b0;fill-opacity:0.8;stroke:#4c72b0;stroke-opacity:0.8;" x="103.970585" xlink:href="#mdee71ce039" y="245.868379"/>
     <use style="fill:#4c72b0;fill-opacity:0.8;stroke:#4c72b0;stroke-opacity:0.8;" x="136.119735" xlink:href="#mdee71ce039" y="230.749052"/>
     <use style="fill:#4c72b0;fill-opacity:0.8;stroke:#4c72b0;stroke-opacity:0.8;" x="146.449048" xlink:href="#mdee71ce039" y="218.469176"/>
     <use style="fill:#4c72b0;fill-opacity:0.8;stroke:#4c72b0;stroke-opacity:0.8;" x="153.863393" xlink:href="#mdee71ce039" y="208.265026"/>
     <use style="fill:#4c72b0;fill-opacity:0.8;stroke:#4c72b0;stroke-opacity:0.8;" x="141.964245" xlink:href="#mdee71ce039" y="256.631356"/>
     <use style="fill:#4c72b0;fill-opacity:0.8;stroke:#4c72b0;stroke-opacity:0.8;" x="244.701392" xlink:href="#mdee71ce039" y="145.573354"/>
     <use style="fill:#4c72b0;fill-opacity:0.8;stroke:#4c72b0;stroke-opacity:0.8;" x="164.864741" xlink:href="#mdee71ce039" y="186.996262"/>
     <use style="fill:#4c72b0;fill-opacity:0.8;stroke:#4c72b0;stroke-opacity:0.8;" x="210.245302" xlink:href="#mdee71ce039" y="182.528517"/>
     <use style="fill:#4c72b0;fill-opacity:0.8;stroke:#4c72b0;stroke-opacity:0.8;" x="164.561076" xlink:href="#mdee71ce039" y="240.938993"/>
     <use style="fill:#4c72b0;fill-opacity:0.8;stroke:#4c72b0;stroke-opacity:0.8;" x="288.354209" xlink:href="#mdee71ce039" y="116.557592"/>
     <use style="fill:#4c72b0;fill-opacity:0.8;stroke:#4c72b0;stroke-opacity:0.8;" x="171.673877" xlink:href="#mdee71ce039" y="175.902911"/>
     <use style="fill:#4c72b0;fill-opacity:0.8;stroke:#4c72b0;stroke-opacity:0.8;" x="191.171456" xlink:href="#mdee71ce039" y="175.753462"/>
     <use style="fill:#4c72b0;fill-opacity:0.8;stroke:#4c72b0;stroke-opacity:0.8;" x="223.076973" xlink:href="#mdee71ce039" y="176.529794"/>
     <use style="fill:#4c72b0;fill-opacity:0.8;stroke:#4c72b0;stroke-opacity:0.8;" x="148.385881" xlink:href="#mdee71ce039" y="178.162734"/>
     <use style="fill:#4c72b0;fill-opacity:0.8;stroke:#4c72b0;stroke-opacity:0.8;" x="203.50303" xlink:href="#mdee71ce039" y="180.577172"/>
     <use style="fill:#4c72b0;fill-opacity:0.8;stroke:#4c72b0;stroke-opacity:0.8;" x="206.448808" xlink:href="#mdee71ce039" y="183.691914"/>
     <use style="fill:#4c72b0;fill-opacity:0.8;stroke:#4c72b0;stroke-opacity:0.8;" x="170.799184" xlink:href="#mdee71ce039" y="187.41993"/>
     <use style="fill:#4c72b0;fill-opacity:0.8;stroke:#4c72b0;stroke-opacity:0.8;" x="182.594208" xlink:href="#mdee71ce039" y="191.668896"/>
     <use style="fill:#4c72b0;fill-opacity:0.8;stroke:#4c72b0;stroke-opacity:0.8;" x="118.323616" xlink:href="#mdee71ce039" y="196.341981"/>
     <use style="fill:#4c72b0;fill-opacity:0.8;stroke:#4c72b0;stroke-opacity:0.8;" x="100.688311" xlink:href="#mdee71ce039" y="247.741372"/>
     <use style="fill:#4c72b0;fill-opacity:0.8;stroke:#4c72b0;stroke-opacity:0.8;" x="163.573946" xlink:href="#mdee71ce039" y="206.556545"/>
     <use style="fill:#4c72b0;fill-opacity:0.8;stroke:#4c72b0;stroke-opacity:0.8;" x="139.472393" xlink:href="#mdee71ce039" y="211.891117"/>
     <use style="fill:#4c72b0;fill-opacity:0.8;stroke:#4c72b0;stroke-opacity:0.8;" x="187.748234" xlink:href="#mdee71ce039" y="217.238466"/>
     <use style="fill:#4c72b0;fill-opacity:0.8;stroke:#4c72b0;stroke-opacity:0.8;" x="125.126945" xlink:href="#mdee71ce039" y="222.495864"/>
     <use style="fill:#4c72b0;fill-opacity:0.8;stroke:#4c72b0;stroke-opacity:0.8;" x="138.404574" xlink:href="#mdee71ce039" y="227.563231"/>
     <use style="fill:#4c72b0;fill-opacity:0.8;stroke:#4c72b0;stroke-opacity:0.8;" x="144.154587" xlink:href="#mdee71ce039" y="232.344446"/>
     <use style="fill:#4c72b0;fill-opacity:0.8;stroke:#4c72b0;stroke-opacity:0.8;" x="164.119935" xlink:href="#mdee71ce039" y="236.748616"/>
     <use style="fill:#4c72b0;fill-opacity:0.8;stroke:#4c72b0;stroke-opacity:0.8;" x="38.584375" xlink:href="#mdee71ce039" y="299.069945"/>
     <use style="fill:#4c72b0;fill-opacity:0.8;stroke:#4c72b0;stroke-opacity:0.8;" x="151.437718" xlink:href="#mdee71ce039" y="244.095584"/>
     <use style="fill:#4c72b0;fill-opacity:0.8;stroke:#4c72b0;stroke-opacity:0.8;" x="127.078163" xlink:href="#mdee71ce039" y="246.893231"/>
     <use style="fill:#4c72b0;fill-opacity:0.8;stroke:#4c72b0;stroke-opacity:0.8;" x="41.434475" xlink:href="#mdee71ce039" y="305.009891"/>
     <use style="fill:#4c72b0;fill-opacity:0.8;stroke:#4c72b0;stroke-opacity:0.8;" x="199.079203" xlink:href="#mdee71ce039" y="192.665602"/>
     <use style="fill:#4c72b0;fill-opacity:0.8;stroke:#4c72b0;stroke-opacity:0.8;" x="196.06907" xlink:href="#mdee71ce039" y="191.177238"/>
     <use style="fill:#4c72b0;fill-opacity:0.8;stroke:#4c72b0;stroke-opacity:0.8;" x="111.775261" xlink:href="#mdee71ce039" y="251.00097"/>
     <use style="fill:#4c72b0;fill-opacity:0.8;stroke:#4c72b0;stroke-opacity:0.8;" x="125.324426" xlink:href="#mdee71ce039" y="250.099372"/>
     <use style="fill:#4c72b0;fill-opacity:0.8;stroke:#4c72b0;stroke-opacity:0.8;" x="58.567102" xlink:href="#mdee71ce039" y="300.189699"/>
     <use style="fill:#4c72b0;fill-opacity:0.8;stroke:#4c72b0;stroke-opacity:0.8;" x="130.675196" xlink:href="#mdee71ce039" y="245.924714"/>
     <use style="fill:#4c72b0;fill-opacity:0.8;stroke:#4c72b0;stroke-opacity:0.8;" x="144.387251" xlink:href="#mdee71ce039" y="242.68288"/>
     <use style="fill:#4c72b0;fill-opacity:0.8;stroke:#4c72b0;stroke-opacity:0.8;" x="109.388327" xlink:href="#mdee71ce039" y="287.360871"/>
     <use style="fill:#4c72b0;fill-opacity:0.8;stroke:#4c72b0;stroke-opacity:0.8;" x="118.051269" xlink:href="#mdee71ce039" y="234.054497"/>
     <use style="fill:#4c72b0;fill-opacity:0.8;stroke:#4c72b0;stroke-opacity:0.8;" x="117.020364" xlink:href="#mdee71ce039" y="288.697257"/>
     <use style="fill:#4c72b0;fill-opacity:0.8;stroke:#4c72b0;stroke-opacity:0.8;" x="177.620355" xlink:href="#mdee71ce039" y="170.224168"/>
     <use style="fill:#4c72b0;fill-opacity:0.8;stroke:#4c72b0;stroke-opacity:0.8;" x="156.760056" xlink:href="#mdee71ce039" y="216.558155"/>
     <use style="fill:#4c72b0;fill-opacity:0.8;stroke:#4c72b0;stroke-opacity:0.8;" x="177.68458" xlink:href="#mdee71ce039" y="209.790647"/>
     <use style="fill:#4c72b0;fill-opacity:0.8;stroke:#4c72b0;stroke-opacity:0.8;" x="179.380842" xlink:href="#mdee71ce039" y="202.693368"/>
     <use style="fill:#4c72b0;fill-opacity:0.8;stroke:#4c72b0;stroke-opacity:0.8;" x="170.178489" xlink:href="#mdee71ce039" y="195.357404"/>
     <use style="fill:#4c72b0;fill-opacity:0.8;stroke:#4c72b0;stroke-opacity:0.8;" x="185.739719" xlink:href="#mdee71ce039" y="187.877564"/>
     <use style="fill:#4c72b0;fill-opacity:0.8;stroke:#4c72b0;stroke-opacity:0.8;" x="151.608149" xlink:href="#mdee71ce039" y="180.350996"/>
     <use style="fill:#4c72b0;fill-opacity:0.8;stroke:#4c72b0;stroke-opacity:0.8;" x="264.43883" xlink:href="#mdee71ce039" y="112.433166"/>
     <use style="fill:#4c72b0;fill-opacity:0.8;stroke:#4c72b0;stroke-opacity:0.8;" x="228.781135" xlink:href="#mdee71ce039" y="165.549461"/>
     <use style="fill:#4c72b0;fill-opacity:0.8;stroke:#4c72b0;stroke-opacity:0.8;" x="256.106715" xlink:href="#mdee71ce039" y="101.450601"/>
     <use style="fill:#4c72b0;fill-opacity:0.8;stroke:#4c72b0;stroke-opacity:0.8;" x="273.781001" xlink:href="#mdee71ce039" y="100.482209"/>
     <use style="fill:#4c72b0;fill-opacity:0.8;stroke:#4c72b0;stroke-opacity:0.8;" x="251.055772" xlink:href="#mdee71ce039" y="145.014723"/>
     <use style="fill:#4c72b0;fill-opacity:0.8;stroke:#4c72b0;stroke-opacity:0.8;" x="309.016735" xlink:href="#mdee71ce039" y="84.93728"/>
     <use style="fill:#4c72b0;fill-opacity:0.8;stroke:#4c72b0;stroke-opacity:0.8;" x="199.303804" xlink:href="#mdee71ce039" y="187.016017"/>
     <use style="fill:#4c72b0;fill-opacity:0.8;stroke:#4c72b0;stroke-opacity:0.8;" x="262.056007" xlink:href="#mdee71ce039" y="129.510359"/>
     <use style="fill:#4c72b0;fill-opacity:0.8;stroke:#4c72b0;stroke-opacity:0.8;" x="170.803171" xlink:href="#mdee71ce039" y="184.216063"/>
     <use style="fill:#4c72b0;fill-opacity:0.8;stroke:#4c72b0;stroke-opacity:0.8;" x="246.932102" xlink:href="#mdee71ce039" y="122.604063"/>
     <use style="fill:#4c72b0;fill-opacity:0.8;stroke:#4c72b0;stroke-opacity:0.8;" x="273.68215" xlink:href="#mdee71ce039" y="120.318292"/>
     <use style="fill:#4c72b0;fill-opacity:0.8;stroke:#4c72b0;stroke-opacity:0.8;" x="272.604044" xlink:href="#mdee71ce039" y="118.847053"/>
     <use style="fill:#4c72b0;fill-opacity:0.8;stroke:#4c72b0;stroke-opacity:0.8;" x="261.430324" xlink:href="#mdee71ce039" y="118.203105"/>
     <use style="fill:#4c72b0;fill-opacity:0.8;stroke:#4c72b0;stroke-opacity:0.8;" x="263.766932" xlink:href="#mdee71ce039" y="118.387392"/>
     <use style="fill:#4c72b0;fill-opacity:0.8;stroke:#4c72b0;stroke-opacity:0.8;" x="284.34437" xlink:href="#mdee71ce039" y="119.389017"/>
     <use style="fill:#4c72b0;fill-opacity:0.8;stroke:#4c72b0;stroke-opacity:0.8;" x="247.510645" xlink:href="#mdee71ce039" y="121.1854"/>
     <use style="fill:#4c72b0;fill-opacity:0.8;stroke:#4c72b0;stroke-opacity:0.8;" x="212.414886" xlink:href="#mdee71ce039" y="169.961052"/>
     <use style="fill:#4c72b0;fill-opacity:0.8;stroke:#4c72b0;stroke-opacity:0.8;" x="248.622563" xlink:href="#mdee71ce039" y="127.015786"/>
     <use style="fill:#4c72b0;fill-opacity:0.8;stroke:#4c72b0;stroke-opacity:0.8;" x="180.627057" xlink:href="#mdee71ce039" y="185.711648"/>
     <use style="fill:#4c72b0;fill-opacity:0.8;stroke:#4c72b0;stroke-opacity:0.8;" x="336.788977" xlink:href="#mdee71ce039" y="72.810814"/>
     <use style="fill:#4c72b0;fill-opacity:0.8;stroke:#4c72b0;stroke-opacity:0.8;" x="253.642599" xlink:href="#mdee71ce039" y="140.534506"/>
     <use style="fill:#4c72b0;fill-opacity:0.8;stroke:#4c72b0;stroke-opacity:0.8;" x="247.676985" xlink:href="#mdee71ce039" y="146.031503"/>
     <use style="fill:#4c72b0;fill-opacity:0.8;stroke:#4c72b0;stroke-opacity:0.8;" x="176.873033" xlink:href="#mdee71ce039" y="215.531461"/>
     <use style="fill:#4c72b0;fill-opacity:0.8;stroke:#4c72b0;stroke-opacity:0.8;" x="220.393506" xlink:href="#mdee71ce039" y="158.002342"/>
     <use style="fill:#4c72b0;fill-opacity:0.8;stroke:#4c72b0;stroke-opacity:0.8;" x="226.196285" xlink:href="#mdee71ce039" y="164.288848"/>
     <use style="fill:#4c72b0;fill-opacity:0.8;stroke:#4c72b0;stroke-opacity:0.8;" x="201.055691" xlink:href="#mdee71ce039" y="170.646362"/>
     <use style="fill:#4c72b0;fill-opacity:0.8;stroke:#4c72b0;stroke-opacity:0.8;" x="206.334462" xlink:href="#mdee71ce039" y="176.97608"/>
     <use style="fill:#4c72b0;fill-opacity:0.8;stroke:#4c72b0;stroke-opacity:0.8;" x="127.77002" xlink:href="#mdee71ce039" y="238.006557"/>
     <use style="fill:#4c72b0;fill-opacity:0.8;stroke:#4c72b0;stroke-opacity:0.8;" x="189.467524" xlink:href="#mdee71ce039" y="189.160813"/>
     <use style="fill:#4c72b0;fill-opacity:0.8;stroke:#4c72b0;stroke-opacity:0.8;" x="135.518218" xlink:href="#mdee71ce039" y="244.269781"/>
     <use style="fill:#4c72b0;fill-opacity:0.8;stroke:#4c72b0;stroke-opacity:0.8;" x="215.344579" xlink:href="#mdee71ce039" y="153.350994"/>
     <use style="fill:#4c72b0;fill-opacity:0.8;stroke:#4c72b0;stroke-opacity:0.8;" x="174.998357" xlink:href="#mdee71ce039" y="204.862862"/>
     <use style="fill:#4c72b0;fill-opacity:0.8;stroke:#4c72b0;stroke-opacity:0.8;" x="148.341585" xlink:href="#mdee71ce039" y="209.075941"/>
     <use style="fill:#4c72b0;fill-opacity:0.8;stroke:#4c72b0;stroke-opacity:0.8;" x="75.575125" xlink:href="#mdee71ce039" y="268.836529"/>
     <use style="fill:#4c72b0;fill-opacity:0.8;stroke:#4c72b0;stroke-opacity:0.8;" x="182.154209" xlink:href="#mdee71ce039" y="215.556798"/>
     <use style="fill:#4c72b0;fill-opacity:0.8;stroke:#4c72b0;stroke-opacity:0.8;" x="173.134268" xlink:href="#mdee71ce039" y="217.718577"/>
     <use style="fill:#4c72b0;fill-opacity:0.8;stroke:#4c72b0;stroke-opacity:0.8;" x="168.636215" xlink:href="#mdee71ce039" y="219.107972"/>
     <use style="fill:#4c72b0;fill-opacity:0.8;stroke:#4c72b0;stroke-opacity:0.8;" x="168.179355" xlink:href="#mdee71ce039" y="219.698938"/>
     <use style="fill:#4c72b0;fill-opacity:0.8;stroke:#4c72b0;stroke-opacity:0.8;" x="178.183118" xlink:href="#mdee71ce039" y="169.636942"/>
     <use style="fill:#4c72b0;fill-opacity:0.8;stroke:#4c72b0;stroke-opacity:0.8;" x="141.15556" xlink:href="#mdee71ce039" y="218.439702"/>
     <use style="fill:#4c72b0;fill-opacity:0.8;stroke:#4c72b0;stroke-opacity:0.8;" x="104.486942" xlink:href="#mdee71ce039" y="265.560104"/>
     <use style="fill:#4c72b0;fill-opacity:0.8;stroke:#4c72b0;stroke-opacity:0.8;" x="150.077447" xlink:href="#mdee71ce039" y="213.967407"/>
     <use style="fill:#4c72b0;fill-opacity:0.8;stroke:#4c72b0;stroke-opacity:0.8;" x="184.532088" xlink:href="#mdee71ce039" y="210.585848"/>
     <use style="fill:#4c72b0;fill-opacity:0.8;stroke:#4c72b0;stroke-opacity:0.8;" x="167.900464" xlink:href="#mdee71ce039" y="206.494841"/>
     <use style="fill:#4c72b0;fill-opacity:0.8;stroke:#4c72b0;stroke-opacity:0.8;" x="160.234644" xlink:href="#mdee71ce039" y="201.748063"/>
     <use style="fill:#4c72b0;fill-opacity:0.8;stroke:#4c72b0;stroke-opacity:0.8;" x="175.267445" xlink:href="#mdee71ce039" y="196.408738"/>
     <use style="fill:#4c72b0;fill-opacity:0.8;stroke:#4c72b0;stroke-opacity:0.8;" x="195.135663" xlink:href="#mdee71ce039" y="190.548716"/>
     <use style="fill:#4c72b0;fill-opacity:0.8;stroke:#4c72b0;stroke-opacity:0.8;" x="183.499048" xlink:href="#mdee71ce039" y="184.247436"/>
     <use style="fill:#4c72b0;fill-opacity:0.8;stroke:#4c72b0;stroke-opacity:0.8;" x="114.725555" xlink:href="#mdee71ce039" y="238.676476"/>
     <use style="fill:#4c72b0;fill-opacity:0.8;stroke:#4c72b0;stroke-opacity:0.8;" x="154.192445" xlink:href="#mdee71ce039" y="221.140081"/>
     <use style="fill:#4c72b0;fill-opacity:0.8;stroke:#4c72b0;stroke-opacity:0.8;" x="150.19418" xlink:href="#mdee71ce039" y="223.891594"/>
     <use style="fill:#4c72b0;fill-opacity:0.8;stroke:#4c72b0;stroke-opacity:0.8;" x="213.634625" xlink:href="#mdee71ce039" y="156.417243"/>
     <use style="fill:#4c72b0;fill-opacity:0.8;stroke:#4c72b0;stroke-opacity:0.8;" x="221.738625" xlink:href="#mdee71ce039" y="149.281638"/>
     <use style="fill:#4c72b0;fill-opacity:0.8;stroke:#4c72b0;stroke-opacity:0.8;" x="242.165836" xlink:href="#mdee71ce039" y="142.270873"/>
    </g>
   </g>
   <g id="PolyCollection_1">
    <defs>
     <path d="M 38.584375 -67.822633 
L 38.584375 -50.586989 
L 41.596543 -53.205722 
L 44.60871 -55.824455 
L 47.620878 -58.443188 
L 50.633046 -61.070758 
L 53.645213 -63.703109 
L 56.657381 -66.33546 
L 59.669549 -68.967812 
L 62.681717 -71.600163 
L 65.693884 -74.212338 
L 68.706052 -76.798936 
L 71.71822 -79.467895 
L 74.730387 -82.117509 
L 77.742555 -84.732103 
L 80.754723 -87.346698 
L 83.76689 -89.947396 
L 86.779058 -92.531513 
L 89.791226 -95.151501 
L 92.803394 -97.787823 
L 95.815561 -100.373482 
L 98.827729 -102.982193 
L 101.839897 -105.636228 
L 104.852064 -108.26511 
L 107.864232 -110.945769 
L 110.8764 -113.576751 
L 113.888567 -116.196476 
L 116.900735 -118.868225 
L 119.912903 -121.563203 
L 122.925071 -124.173627 
L 125.937238 -126.764135 
L 128.949406 -129.515777 
L 131.961574 -132.147367 
L 134.973741 -134.74814 
L 137.985909 -137.29784 
L 140.998077 -139.806738 
L 144.010244 -142.391993 
L 147.022412 -145.02633 
L 150.03458 -147.661771 
L 153.046747 -150.30099 
L 156.058915 -152.930073 
L 159.071083 -155.503288 
L 162.083251 -158.08946 
L 165.095418 -160.685363 
L 168.107586 -163.207318 
L 171.119754 -165.796366 
L 174.131921 -168.398409 
L 177.144089 -170.963792 
L 180.156257 -173.549174 
L 183.168424 -176.155415 
L 186.180592 -178.76204 
L 189.19276 -181.271993 
L 192.204928 -183.827209 
L 195.217095 -186.357979 
L 198.229263 -188.87815 
L 201.241431 -191.415614 
L 204.253598 -193.895678 
L 207.265766 -196.385783 
L 210.277934 -198.839046 
L 213.290101 -201.329121 
L 216.302269 -203.781544 
L 219.314437 -206.237743 
L 222.326605 -208.717102 
L 225.338772 -211.17585 
L 228.35094 -213.631886 
L 231.363108 -216.029808 
L 234.375275 -218.518794 
L 237.387443 -221.010353 
L 240.399611 -223.413011 
L 243.411778 -225.774812 
L 246.423946 -228.157143 
L 249.436114 -230.530114 
L 252.448281 -232.900355 
L 255.460449 -235.322653 
L 258.472617 -237.71674 
L 261.484785 -240.055717 
L 264.496952 -242.469369 
L 267.50912 -244.881232 
L 270.521288 -247.276009 
L 273.533455 -249.652879 
L 276.545623 -252.031621 
L 279.557791 -254.411373 
L 282.569958 -256.819132 
L 285.582126 -259.16741 
L 288.594294 -261.545366 
L 291.606462 -263.923074 
L 294.618629 -266.288936 
L 297.630797 -268.641167 
L 300.642965 -271.006252 
L 303.655132 -273.400108 
L 306.6673 -275.7591 
L 309.679468 -278.158292 
L 312.691635 -280.560151 
L 315.703803 -282.933968 
L 318.715971 -285.304988 
L 321.728139 -287.676008 
L 324.740306 -290.063092 
L 327.752474 -292.413992 
L 330.764642 -294.758637 
L 333.776809 -297.159907 
L 336.788977 -299.532423 
L 336.788977 -314.031832 
L 336.788977 -314.031832 
L 333.776809 -311.371075 
L 330.764642 -308.671033 
L 327.752474 -306.04843 
L 324.740306 -303.43291 
L 321.728139 -300.829372 
L 318.715971 -298.254376 
L 315.703803 -295.648239 
L 312.691635 -292.972062 
L 309.679468 -290.349312 
L 306.6673 -287.732593 
L 303.655132 -285.114285 
L 300.642965 -282.44492 
L 297.630797 -279.774798 
L 294.618629 -277.104677 
L 291.606462 -274.505047 
L 288.594294 -271.881742 
L 285.582126 -269.278567 
L 282.569958 -266.680139 
L 279.557791 -264.081711 
L 276.545623 -261.48439 
L 273.533455 -258.888574 
L 270.521288 -256.326928 
L 267.50912 -253.666262 
L 264.496952 -251.06877 
L 261.484785 -248.418601 
L 258.472617 -245.799432 
L 255.460449 -243.260374 
L 252.448281 -240.529986 
L 249.436114 -237.939164 
L 246.423946 -235.352173 
L 243.411778 -232.765123 
L 240.399611 -230.181379 
L 237.387443 -227.577696 
L 234.375275 -225.004209 
L 231.363108 -222.484021 
L 228.35094 -219.931251 
L 225.338772 -217.383144 
L 222.326605 -214.853189 
L 219.314437 -212.270781 
L 216.302269 -209.735152 
L 213.290101 -207.274359 
L 210.277934 -204.775526 
L 207.265766 -202.153359 
L 204.253598 -199.718207 
L 201.241431 -197.27046 
L 198.229263 -194.877336 
L 195.217095 -192.483495 
L 192.204928 -190.081815 
L 189.19276 -187.61432 
L 186.180592 -185.174196 
L 183.168424 -182.71927 
L 180.156257 -180.263938 
L 177.144089 -177.702243 
L 174.131921 -175.273766 
L 171.119754 -172.800687 
L 168.107586 -170.358227 
L 165.095418 -167.865133 
L 162.083251 -165.426671 
L 159.071083 -163.018168 
L 156.058915 -160.628516 
L 153.046747 -158.238872 
L 150.03458 -155.746879 
L 147.022412 -153.332752 
L 144.010244 -150.968544 
L 140.998077 -148.589868 
L 137.985909 -146.211191 
L 134.973741 -143.830451 
L 131.961574 -141.448393 
L 128.949406 -139.066334 
L 125.937238 -136.687722 
L 122.925071 -134.284178 
L 119.912903 -131.927007 
L 116.900735 -129.54865 
L 113.888567 -127.1673 
L 110.8764 -124.78595 
L 107.864232 -122.404599 
L 104.852064 -120.022044 
L 101.839897 -117.583174 
L 98.827729 -115.144305 
L 95.815561 -112.733729 
L 92.803394 -110.359687 
L 89.791226 -107.985646 
L 86.779058 -105.611604 
L 83.76689 -103.237002 
L 80.754723 -100.865651 
L 77.742555 -98.543609 
L 74.730387 -96.177398 
L 71.71822 -93.778864 
L 68.706052 -91.418816 
L 65.693884 -89.058769 
L 62.681717 -86.698721 
L 59.669549 -84.321342 
L 56.657381 -81.940765 
L 53.645213 -79.560492 
L 50.633046 -77.181105 
L 47.620878 -74.834731 
L 44.60871 -72.513626 
L 41.596543 -70.177468 
L 38.584375 -67.822633 
z
" id="mac404f9039" style="stroke:#ffffff;stroke-opacity:0.15;"/>
    </defs>
    <g clip-path="url(#pea19388d57)">
     <use style="fill:#4c72b0;fill-opacity:0.15;stroke:#ffffff;stroke-opacity:0.15;" x="0" xlink:href="#mac404f9039" y="371.810625"/>
    </g>
   </g>
   <g id="PathCollection_2">
    <defs>
     <path d="M 0 3 
C 0.795609 3 1.55874 2.683901 2.12132 2.12132 
C 2.683901 1.55874 3 0.795609 3 0 
C 3 -0.795609 2.683901 -1.55874 2.12132 -2.12132 
C 1.55874 -2.683901 0.795609 -3 0 -3 
C -0.795609 -3 -1.55874 -2.683901 -2.12132 -2.12132 
C -2.683901 -1.55874 -3 -0.795609 -3 0 
C -3 0.795609 -2.683901 1.55874 -2.12132 2.12132 
C -1.55874 2.683901 -0.795609 3 0 3 
z
" id="mee37d24ba9" style="stroke:#dd8452;stroke-opacity:0.8;"/>
    </defs>
    <g clip-path="url(#pea19388d57)">
     <use style="fill:#dd8452;fill-opacity:0.8;stroke:#dd8452;stroke-opacity:0.8;" x="279.207651" xlink:href="#mee37d24ba9" y="82.571214"/>
     <use style="fill:#dd8452;fill-opacity:0.8;stroke:#dd8452;stroke-opacity:0.8;" x="262.373218" xlink:href="#mee37d24ba9" y="128.581974"/>
     <use style="fill:#dd8452;fill-opacity:0.8;stroke:#dd8452;stroke-opacity:0.8;" x="244.890263" xlink:href="#mee37d24ba9" y="122.542324"/>
     <use style="fill:#dd8452;fill-opacity:0.8;stroke:#dd8452;stroke-opacity:0.8;" x="260.063539" xlink:href="#mee37d24ba9" y="116.99475"/>
     <use style="fill:#dd8452;fill-opacity:0.8;stroke:#dd8452;stroke-opacity:0.8;" x="275.001293" xlink:href="#mee37d24ba9" y="112.01473"/>
     <use style="fill:#dd8452;fill-opacity:0.8;stroke:#dd8452;stroke-opacity:0.8;" x="238.019496" xlink:href="#mee37d24ba9" y="162.118628"/>
     <use style="fill:#dd8452;fill-opacity:0.8;stroke:#dd8452;stroke-opacity:0.8;" x="293.442261" xlink:href="#mee37d24ba9" y="104.017469"/>
     <use style="fill:#dd8452;fill-opacity:0.8;stroke:#dd8452;stroke-opacity:0.8;" x="277.411577" xlink:href="#mee37d24ba9" y="101.106599"/>
     <use style="fill:#dd8452;fill-opacity:0.8;stroke:#dd8452;stroke-opacity:0.8;" x="346.412275" xlink:href="#mee37d24ba9" y="43.665934"/>
     <use style="fill:#dd8452;fill-opacity:0.8;stroke:#dd8452;stroke-opacity:0.8;" x="265.158063" xlink:href="#mee37d24ba9" y="97.647428"/>
     <use style="fill:#dd8452;fill-opacity:0.8;stroke:#dd8452;stroke-opacity:0.8;" x="284.005009" xlink:href="#mee37d24ba9" y="97.140116"/>
     <use style="fill:#dd8452;fill-opacity:0.8;stroke:#dd8452;stroke-opacity:0.8;" x="334.075116" xlink:href="#mee37d24ba9" y="49.642861"/>
     <use style="fill:#dd8452;fill-opacity:0.8;stroke:#dd8452;stroke-opacity:0.8;" x="288.755066" xlink:href="#mee37d24ba9" y="98.584384"/>
     <use style="fill:#dd8452;fill-opacity:0.8;stroke:#dd8452;stroke-opacity:0.8;" x="265.218345" xlink:href="#mee37d24ba9" y="100.506274"/>
     <use style="fill:#dd8452;fill-opacity:0.8;stroke:#dd8452;stroke-opacity:0.8;" x="346.17925" xlink:href="#mee37d24ba9" y="52.660709"/>
     <use style="fill:#dd8452;fill-opacity:0.8;stroke:#dd8452;stroke-opacity:0.8;" x="302.859527" xlink:href="#mee37d24ba9" y="106.589332"/>
     <use style="fill:#dd8452;fill-opacity:0.8;stroke:#dd8452;stroke-opacity:0.8;" x="267.922581" xlink:href="#mee37d24ba9" y="110.653946"/>
     <use style="fill:#dd8452;fill-opacity:0.8;stroke:#dd8452;stroke-opacity:0.8;" x="331.744189" xlink:href="#mee37d24ba9" y="64.336871"/>
     <use style="fill:#dd8452;fill-opacity:0.8;stroke:#dd8452;stroke-opacity:0.8;" x="272.50372" xlink:href="#mee37d24ba9" y="120.515157"/>
     <use style="fill:#dd8452;fill-opacity:0.8;stroke:#dd8452;stroke-opacity:0.8;" x="187.947717" xlink:href="#mee37d24ba9" y="176.352955"/>
     <use style="fill:#dd8452;fill-opacity:0.8;stroke:#dd8452;stroke-opacity:0.8;" x="251.617277" xlink:href="#mee37d24ba9" y="132.170842"/>
     <use style="fill:#dd8452;fill-opacity:0.8;stroke:#dd8452;stroke-opacity:0.8;" x="241.113122" xlink:href="#mee37d24ba9" y="138.454351"/>
     <use style="fill:#dd8452;fill-opacity:0.8;stroke:#dd8452;stroke-opacity:0.8;" x="235.970692" xlink:href="#mee37d24ba9" y="144.916361"/>
     <use style="fill:#dd8452;fill-opacity:0.8;stroke:#dd8452;stroke-opacity:0.8;" x="266.801666" xlink:href="#mee37d24ba9" y="105.027927"/>
     <use style="fill:#dd8452;fill-opacity:0.8;stroke:#dd8452;stroke-opacity:0.8;" x="147.342847" xlink:href="#mee37d24ba9" y="221.447463"/>
     <use style="fill:#dd8452;fill-opacity:0.8;stroke:#dd8452;stroke-opacity:0.8;" x="223.206688" xlink:href="#mee37d24ba9" y="164.394227"/>
     <use style="fill:#dd8452;fill-opacity:0.8;stroke:#dd8452;stroke-opacity:0.8;" x="234.586423" xlink:href="#mee37d24ba9" y="170.591077"/>
     <use style="fill:#dd8452;fill-opacity:0.8;stroke:#dd8452;stroke-opacity:0.8;" x="219.302803" xlink:href="#mee37d24ba9" y="176.481807"/>
     <use style="fill:#dd8452;fill-opacity:0.8;stroke:#dd8452;stroke-opacity:0.8;" x="179.124017" xlink:href="#mee37d24ba9" y="230.906392"/>
     <use style="fill:#dd8452;fill-opacity:0.8;stroke:#dd8452;stroke-opacity:0.8;" x="176.202695" xlink:href="#mee37d24ba9" y="186.994367"/>
     <use style="fill:#dd8452;fill-opacity:0.8;stroke:#dd8452;stroke-opacity:0.8;" x="268.419643" xlink:href="#mee37d24ba9" y="134.447353"/>
     <use style="fill:#dd8452;fill-opacity:0.8;stroke:#dd8452;stroke-opacity:0.8;" x="185.43564" xlink:href="#mee37d24ba9" y="195.295413"/>
     <use style="fill:#dd8452;fill-opacity:0.8;stroke:#dd8452;stroke-opacity:0.8;" x="219.692283" xlink:href="#mee37d24ba9" y="198.451837"/>
     <use style="fill:#dd8452;fill-opacity:0.8;stroke:#dd8452;stroke-opacity:0.8;" x="161.240477" xlink:href="#mee37d24ba9" y="200.876388"/>
     <use style="fill:#dd8452;fill-opacity:0.8;stroke:#dd8452;stroke-opacity:0.8;" x="159.00484" xlink:href="#mee37d24ba9" y="202.530299"/>
     <use style="fill:#dd8452;fill-opacity:0.8;stroke:#dd8452;stroke-opacity:0.8;" x="233.172682" xlink:href="#mee37d24ba9" y="142.660521"/>
     <use style="fill:#dd8452;fill-opacity:0.8;stroke:#dd8452;stroke-opacity:0.8;" x="203.336388" xlink:href="#mee37d24ba9" y="143.903464"/>
     <use style="fill:#dd8452;fill-opacity:0.8;stroke:#dd8452;stroke-opacity:0.8;" x="164.971102" xlink:href="#mee37d24ba9" y="202.650326"/>
     <use style="fill:#dd8452;fill-opacity:0.8;stroke:#dd8452;stroke-opacity:0.8;" x="162.340147" xlink:href="#mee37d24ba9" y="201.062425"/>
     <use style="fill:#dd8452;fill-opacity:0.8;stroke:#dd8452;stroke-opacity:0.8;" x="181.878036" xlink:href="#mee37d24ba9" y="198.683083"/>
     <use style="fill:#dd8452;fill-opacity:0.8;stroke:#dd8452;stroke-opacity:0.8;" x="188.791029" xlink:href="#mee37d24ba9" y="195.543168"/>
     <use style="fill:#dd8452;fill-opacity:0.8;stroke:#dd8452;stroke-opacity:0.8;" x="152.334145" xlink:href="#mee37d24ba9" y="251.29419"/>
     <use style="fill:#dd8452;fill-opacity:0.8;stroke:#dd8452;stroke-opacity:0.8;" x="209.014733" xlink:href="#mee37d24ba9" y="187.159605"/>
     <use style="fill:#dd8452;fill-opacity:0.8;stroke:#dd8452;stroke-opacity:0.8;" x="185.883365" xlink:href="#mee37d24ba9" y="182.030242"/>
     <use style="fill:#dd8452;fill-opacity:0.8;stroke:#dd8452;stroke-opacity:0.8;" x="118.80422" xlink:href="#mee37d24ba9" y="234.098654"/>
     <use style="fill:#dd8452;fill-opacity:0.8;stroke:#dd8452;stroke-opacity:0.8;" x="253.755228" xlink:href="#mee37d24ba9" y="170.24902"/>
     <use style="fill:#dd8452;fill-opacity:0.8;stroke:#dd8452;stroke-opacity:0.8;" x="252.15078" xlink:href="#mee37d24ba9" y="111.210765"/>
     <use style="fill:#dd8452;fill-opacity:0.8;stroke:#dd8452;stroke-opacity:0.8;" x="257.086678" xlink:href="#mee37d24ba9" y="156.992805"/>
     <use style="fill:#dd8452;fill-opacity:0.8;stroke:#dd8452;stroke-opacity:0.8;" x="199.105661" xlink:href="#mee37d24ba9" y="195.747154"/>
     <use style="fill:#dd8452;fill-opacity:0.8;stroke:#dd8452;stroke-opacity:0.8;" x="228.714885" xlink:href="#mee37d24ba9" y="142.998883"/>
     <use style="fill:#dd8452;fill-opacity:0.8;stroke:#dd8452;stroke-opacity:0.8;" x="285.369158" xlink:href="#mee37d24ba9" y="73.458113"/>
     <use style="fill:#dd8452;fill-opacity:0.8;stroke:#dd8452;stroke-opacity:0.8;" x="277.286882" xlink:href="#mee37d24ba9" y="129.047421"/>
    </g>
   </g>
   <g id="PolyCollection_2">
    <defs>
     <path d="M 118.80422 -130.194571 
L 118.80422 -108.097362 
L 121.103291 -110.304514 
L 123.402362 -112.499019 
L 125.701433 -114.725115 
L 128.000505 -116.932542 
L 130.299576 -119.123104 
L 132.598647 -121.328495 
L 134.897718 -123.555746 
L 137.19679 -125.742729 
L 139.495861 -127.906919 
L 141.794932 -130.069883 
L 144.094004 -132.279917 
L 146.393075 -134.495656 
L 148.692146 -136.711776 
L 150.991217 -138.928322 
L 153.290289 -141.145327 
L 155.58936 -143.362332 
L 157.888431 -145.579338 
L 160.187502 -147.796343 
L 162.486574 -150.019995 
L 164.785645 -152.258244 
L 167.084716 -154.413041 
L 169.383787 -156.637521 
L 171.682859 -158.802458 
L 173.98193 -160.969127 
L 176.281001 -163.138156 
L 178.580073 -165.399791 
L 180.879144 -167.591459 
L 183.178215 -169.702984 
L 185.477286 -171.814509 
L 187.776358 -174.024142 
L 190.075429 -176.201958 
L 192.3745 -178.452438 
L 194.673571 -180.714221 
L 196.972643 -182.945377 
L 199.271714 -185.201809 
L 201.570785 -187.497719 
L 203.869856 -189.732844 
L 206.168928 -191.864594 
L 208.467999 -194.094677 
L 210.76707 -196.301126 
L 213.066142 -198.474426 
L 215.365213 -200.590423 
L 217.664284 -202.735363 
L 219.963355 -204.888382 
L 222.262427 -207.026651 
L 224.561498 -209.21496 
L 226.860569 -211.416075 
L 229.15964 -213.528503 
L 231.458712 -215.607853 
L 233.757783 -217.752513 
L 236.056854 -219.830289 
L 238.355925 -221.949371 
L 240.654997 -223.870505 
L 242.954068 -226.065965 
L 245.253139 -228.167905 
L 247.552211 -230.086818 
L 249.851282 -232.088365 
L 252.150353 -234.151429 
L 254.449424 -236.248341 
L 256.748496 -238.361276 
L 259.047567 -240.468365 
L 261.346638 -242.485744 
L 263.645709 -244.461803 
L 265.944781 -246.535196 
L 268.243852 -248.557774 
L 270.542923 -250.622136 
L 272.841994 -252.564236 
L 275.141066 -254.426196 
L 277.440137 -256.292353 
L 279.739208 -258.328212 
L 282.03828 -260.320608 
L 284.337351 -262.29181 
L 286.636422 -264.204567 
L 288.935493 -266.121185 
L 291.234565 -268.046634 
L 293.533636 -269.97729 
L 295.832707 -271.894835 
L 298.131778 -273.800121 
L 300.43085 -275.705444 
L 302.729921 -277.632093 
L 305.028992 -279.515053 
L 307.328063 -281.434625 
L 309.627135 -283.345341 
L 311.926206 -285.23996 
L 314.225277 -287.15206 
L 316.524349 -289.06416 
L 318.82342 -290.97626 
L 321.122491 -292.888361 
L 323.421562 -294.800461 
L 325.720634 -296.712986 
L 328.019705 -298.625847 
L 330.318776 -300.538295 
L 332.617847 -302.449298 
L 334.916919 -304.347284 
L 337.21599 -306.20911 
L 339.515061 -308.08794 
L 341.814132 -309.991705 
L 344.113204 -311.895471 
L 346.412275 -313.799236 
L 346.412275 -332.514261 
L 346.412275 -332.514261 
L 344.113204 -330.300034 
L 341.814132 -328.083977 
L 339.515061 -325.870148 
L 337.21599 -323.65809 
L 334.916919 -321.496564 
L 332.617847 -319.411995 
L 330.318776 -317.251535 
L 328.019705 -315.032005 
L 325.720634 -312.930047 
L 323.421562 -310.698501 
L 321.122491 -308.449663 
L 318.82342 -306.201935 
L 316.524349 -303.956242 
L 314.225277 -301.709132 
L 311.926206 -299.570562 
L 309.627135 -297.408779 
L 307.328063 -295.184043 
L 305.028992 -292.911271 
L 302.729921 -290.747187 
L 300.43085 -288.566782 
L 298.131778 -286.364884 
L 295.832707 -284.218832 
L 293.533636 -282.011584 
L 291.234565 -279.847662 
L 288.935493 -277.698934 
L 286.636422 -275.525263 
L 284.337351 -273.342936 
L 282.03828 -271.090592 
L 279.739208 -269.003102 
L 277.440137 -266.829819 
L 275.141066 -264.834873 
L 272.841994 -262.671859 
L 270.542923 -260.555316 
L 268.243852 -258.502234 
L 265.944781 -256.443613 
L 263.645709 -254.33316 
L 261.346638 -252.180311 
L 259.047567 -250.111722 
L 256.748496 -248.002285 
L 254.449424 -245.867245 
L 252.150353 -243.732735 
L 249.851282 -241.609009 
L 247.552211 -239.557056 
L 245.253139 -237.482413 
L 242.954068 -235.414867 
L 240.654997 -233.417396 
L 238.355925 -231.384104 
L 236.056854 -229.314878 
L 233.757783 -227.244909 
L 231.458712 -225.207943 
L 229.15964 -223.209779 
L 226.860569 -221.202843 
L 224.561498 -219.229553 
L 222.262427 -217.235254 
L 219.963355 -215.268259 
L 217.664284 -213.332448 
L 215.365213 -211.315978 
L 213.066142 -209.386986 
L 210.76707 -207.423211 
L 208.467999 -205.449542 
L 206.168928 -203.463759 
L 203.869856 -201.467488 
L 201.570785 -199.528679 
L 199.271714 -197.537931 
L 196.972643 -195.580382 
L 194.673571 -193.60954 
L 192.3745 -191.666039 
L 190.075429 -189.753963 
L 187.776358 -187.776576 
L 185.477286 -185.852478 
L 183.178215 -183.979982 
L 180.879144 -182.014602 
L 178.580073 -180.109916 
L 176.281001 -178.118744 
L 173.98193 -176.176172 
L 171.682859 -174.255699 
L 169.383787 -172.336915 
L 167.084716 -170.428175 
L 164.785645 -168.497947 
L 162.486574 -166.554898 
L 160.187502 -164.636914 
L 157.888431 -162.723031 
L 155.58936 -160.809149 
L 153.290289 -158.895266 
L 150.991217 -156.981384 
L 148.692146 -155.063563 
L 146.393075 -153.144503 
L 144.094004 -151.235754 
L 141.794932 -149.323693 
L 139.495861 -147.400148 
L 137.19679 -145.49922 
L 134.897718 -143.586139 
L 132.598647 -141.672164 
L 130.299576 -139.753574 
L 128.000505 -137.805292 
L 125.701433 -135.93129 
L 123.402362 -134.020056 
L 121.103291 -132.107652 
L 118.80422 -130.194571 
z
" id="m34c6158601" style="stroke:#ffffff;stroke-opacity:0.15;"/>
    </defs>
    <g clip-path="url(#pea19388d57)">
     <use style="fill:#dd8452;fill-opacity:0.15;stroke:#ffffff;stroke-opacity:0.15;" x="0" xlink:href="#m34c6158601" y="371.810625"/>
    </g>
   </g>
   <g id="line2d_18">
    <path clip-path="url(#pea19388d57)" d="M 38.584375 312.124239 
L 41.596543 309.632415 
L 44.60871 307.140591 
L 47.620878 304.648768 
L 50.633046 302.156944 
L 53.645213 299.66512 
L 56.657381 297.173296 
L 59.669549 294.681472 
L 62.681717 292.189648 
L 65.693884 289.697824 
L 68.706052 287.206 
L 71.71822 284.714176 
L 74.730387 282.222352 
L 77.742555 279.730528 
L 80.754723 277.238704 
L 83.76689 274.74688 
L 86.779058 272.255056 
L 89.791226 269.763232 
L 92.803394 267.271409 
L 95.815561 264.779585 
L 98.827729 262.287761 
L 101.839897 259.795937 
L 104.852064 257.304113 
L 107.864232 254.812289 
L 110.8764 252.320465 
L 113.888567 249.828641 
L 116.900735 247.336817 
L 119.912903 244.844993 
L 122.925071 242.353169 
L 125.937238 239.861345 
L 128.949406 237.369521 
L 131.961574 234.877697 
L 134.973741 232.385874 
L 137.985909 229.89405 
L 140.998077 227.402226 
L 144.010244 224.910402 
L 147.022412 222.418578 
L 150.03458 219.926754 
L 153.046747 217.43493 
L 156.058915 214.943106 
L 159.071083 212.451282 
L 162.083251 209.959458 
L 165.095418 207.467634 
L 168.107586 204.97581 
L 171.119754 202.483986 
L 174.131921 199.992162 
L 177.144089 197.500339 
L 180.156257 195.008515 
L 183.168424 192.516691 
L 186.180592 190.024867 
L 189.19276 187.533043 
L 192.204928 185.041219 
L 195.217095 182.549395 
L 198.229263 180.057571 
L 201.241431 177.565747 
L 204.253598 175.073923 
L 207.265766 172.582099 
L 210.277934 170.090275 
L 213.290101 167.598451 
L 216.302269 165.106627 
L 219.314437 162.614804 
L 222.326605 160.12298 
L 225.338772 157.631156 
L 228.35094 155.139332 
L 231.363108 152.647508 
L 234.375275 150.155684 
L 237.387443 147.66386 
L 240.399611 145.172036 
L 243.411778 142.680212 
L 246.423946 140.188388 
L 249.436114 137.696564 
L 252.448281 135.20474 
L 255.460449 132.712916 
L 258.472617 130.221092 
L 261.484785 127.729268 
L 264.496952 125.237445 
L 267.50912 122.745621 
L 270.521288 120.253797 
L 273.533455 117.761973 
L 276.545623 115.270149 
L 279.557791 112.778325 
L 282.569958 110.286501 
L 285.582126 107.794677 
L 288.594294 105.302853 
L 291.606462 102.811029 
L 294.618629 100.319205 
L 297.630797 97.827381 
L 300.642965 95.335557 
L 303.655132 92.843733 
L 306.6673 90.35191 
L 309.679468 87.860086 
L 312.691635 85.368262 
L 315.703803 82.876438 
L 318.715971 80.384614 
L 321.728139 77.89279 
L 324.740306 75.400966 
L 327.752474 72.909142 
L 330.764642 70.417318 
L 333.776809 67.925494 
L 336.788977 65.43367 
" style="fill:none;stroke:#4c72b0;stroke-linecap:round;stroke-width:2.25;"/>
   </g>
   <g id="line2d_19">
    <path clip-path="url(#pea19388d57)" d="M 118.80422 251.537698 
L 121.103291 249.484055 
L 123.402362 247.430412 
L 125.701433 245.376769 
L 128.000505 243.323126 
L 130.299576 241.269483 
L 132.598647 239.215841 
L 134.897718 237.162198 
L 137.19679 235.108555 
L 139.495861 233.054912 
L 141.794932 231.001269 
L 144.094004 228.947626 
L 146.393075 226.893983 
L 148.692146 224.84034 
L 150.991217 222.786697 
L 153.290289 220.733054 
L 155.58936 218.679411 
L 157.888431 216.625768 
L 160.187502 214.572126 
L 162.486574 212.518483 
L 164.785645 210.46484 
L 167.084716 208.411197 
L 169.383787 206.357554 
L 171.682859 204.303911 
L 173.98193 202.250268 
L 176.281001 200.196625 
L 178.580073 198.142982 
L 180.879144 196.089339 
L 183.178215 194.035696 
L 185.477286 191.982053 
L 187.776358 189.92841 
L 190.075429 187.874768 
L 192.3745 185.821125 
L 194.673571 183.767482 
L 196.972643 181.713839 
L 199.271714 179.660196 
L 201.570785 177.606553 
L 203.869856 175.55291 
L 206.168928 173.499267 
L 208.467999 171.445624 
L 210.76707 169.391981 
L 213.066142 167.338338 
L 215.365213 165.284695 
L 217.664284 163.231053 
L 219.963355 161.17741 
L 222.262427 159.123767 
L 224.561498 157.070124 
L 226.860569 155.016481 
L 229.15964 152.962838 
L 231.458712 150.909195 
L 233.757783 148.855552 
L 236.056854 146.801909 
L 238.355925 144.748266 
L 240.654997 142.694623 
L 242.954068 140.64098 
L 245.253139 138.587338 
L 247.552211 136.533695 
L 249.851282 134.480052 
L 252.150353 132.426409 
L 254.449424 130.372766 
L 256.748496 128.319123 
L 259.047567 126.26548 
L 261.346638 124.211837 
L 263.645709 122.158194 
L 265.944781 120.104551 
L 268.243852 118.050908 
L 270.542923 115.997265 
L 272.841994 113.943623 
L 275.141066 111.88998 
L 277.440137 109.836337 
L 279.739208 107.782694 
L 282.03828 105.729051 
L 284.337351 103.675408 
L 286.636422 101.621765 
L 288.935493 99.568122 
L 291.234565 97.514479 
L 293.533636 95.460836 
L 295.832707 93.407193 
L 298.131778 91.35355 
L 300.43085 89.299908 
L 302.729921 87.246265 
L 305.028992 85.192622 
L 307.328063 83.138979 
L 309.627135 81.085336 
L 311.926206 79.031693 
L 314.225277 76.97805 
L 316.524349 74.924407 
L 318.82342 72.870764 
L 321.122491 70.817121 
L 323.421562 68.763478 
L 325.720634 66.709835 
L 328.019705 64.656193 
L 330.318776 62.60255 
L 332.617847 60.548907 
L 334.916919 58.495264 
L 337.21599 56.441621 
L 339.515061 54.387978 
L 341.814132 52.334335 
L 344.113204 50.280692 
L 346.412275 48.227049 
" style="fill:none;stroke:#dd8452;stroke-linecap:round;stroke-width:2.25;"/>
   </g>
   <g id="patch_3">
    <path d="M 38.584375 335.32 
L 38.584375 25.2 
" style="fill:none;stroke:#ffffff;stroke-linecap:square;stroke-linejoin:miter;stroke-width:0.8;"/>
   </g>
   <g id="patch_4">
    <path d="M 38.584375 335.32 
L 346.412275 335.32 
" style="fill:none;stroke:#ffffff;stroke-linecap:square;stroke-linejoin:miter;stroke-width:0.8;"/>
   </g>
  </g>
  <g id="text_20">
   <!-- True Vs Pred -->
   <defs>
    <path d="M 25.921875 0 
L 25.921875 63.140625 
L 2.34375 63.140625 
L 2.34375 71.578125 
L 59.078125 71.578125 
L 59.078125 63.140625 
L 35.40625 63.140625 
L 35.40625 0 
z
" id="ArialMT-84"/>
    <path id="ArialMT-32"/>
    <path d="M 28.171875 0 
L 0.4375 71.578125 
L 10.6875 71.578125 
L 29.296875 19.578125 
Q 31.546875 13.328125 33.0625 7.859375 
Q 34.71875 13.71875 36.921875 19.578125 
L 56.25 71.578125 
L 65.921875 71.578125 
L 37.890625 0 
z
" id="ArialMT-86"/>
    <path d="M 3.078125 15.484375 
L 11.765625 16.84375 
Q 12.5 11.625 15.84375 8.84375 
Q 19.1875 6.0625 25.203125 6.0625 
Q 31.25 6.0625 34.171875 8.515625 
Q 37.109375 10.984375 37.109375 14.3125 
Q 37.109375 17.28125 34.515625 19 
Q 32.71875 20.171875 25.53125 21.96875 
Q 15.875 24.421875 12.140625 26.203125 
Q 8.40625 27.984375 6.46875 31.125 
Q 4.546875 34.28125 4.546875 38.09375 
Q 4.546875 41.546875 6.125 44.5 
Q 7.71875 47.46875 10.453125 49.421875 
Q 12.5 50.921875 16.03125 51.96875 
Q 19.578125 53.03125 23.640625 53.03125 
Q 29.734375 53.03125 34.34375 51.265625 
Q 38.96875 49.515625 41.15625 46.5 
Q 43.359375 43.5 44.1875 38.484375 
L 35.59375 37.3125 
Q 35.015625 41.3125 32.203125 43.546875 
Q 29.390625 45.796875 24.265625 45.796875 
Q 18.21875 45.796875 15.625 43.796875 
Q 13.03125 41.796875 13.03125 39.109375 
Q 13.03125 37.40625 14.109375 36.03125 
Q 15.1875 34.625 17.484375 33.6875 
Q 18.796875 33.203125 25.25 31.453125 
Q 34.578125 28.953125 38.25 27.359375 
Q 41.9375 25.78125 44.03125 22.75 
Q 46.140625 19.734375 46.140625 15.234375 
Q 46.140625 10.84375 43.578125 6.953125 
Q 41.015625 3.078125 36.171875 0.953125 
Q 31.34375 -1.171875 25.25 -1.171875 
Q 15.140625 -1.171875 9.84375 3.03125 
Q 4.546875 7.234375 3.078125 15.484375 
z
" id="ArialMT-115"/>
    <path d="M 7.71875 0 
L 7.71875 71.578125 
L 34.71875 71.578125 
Q 41.84375 71.578125 45.609375 70.90625 
Q 50.875 70.015625 54.4375 67.546875 
Q 58.015625 65.09375 60.1875 60.640625 
Q 62.359375 56.203125 62.359375 50.875 
Q 62.359375 41.75 56.546875 35.421875 
Q 50.734375 29.109375 35.546875 29.109375 
L 17.1875 29.109375 
L 17.1875 0 
z
M 17.1875 37.546875 
L 35.6875 37.546875 
Q 44.875 37.546875 48.734375 40.96875 
Q 52.59375 44.390625 52.59375 50.59375 
Q 52.59375 55.078125 50.3125 58.265625 
Q 48.046875 61.46875 44.34375 62.5 
Q 41.9375 63.140625 35.5 63.140625 
L 17.1875 63.140625 
z
" id="ArialMT-80"/>
   </defs>
   <g style="fill:#262626;" transform="translate(163.212888 15.789375)scale(0.12 -0.12)">
    <use xlink:href="#ArialMT-84"/>
    <use x="57.333984" xlink:href="#ArialMT-114"/>
    <use x="90.634766" xlink:href="#ArialMT-117"/>
    <use x="146.25" xlink:href="#ArialMT-101"/>
    <use x="201.865234" xlink:href="#ArialMT-32"/>
    <use x="229.648438" xlink:href="#ArialMT-86"/>
    <use x="296.347656" xlink:href="#ArialMT-115"/>
    <use x="346.347656" xlink:href="#ArialMT-32"/>
    <use x="374.130859" xlink:href="#ArialMT-80"/>
    <use x="440.830078" xlink:href="#ArialMT-114"/>
    <use x="474.130859" xlink:href="#ArialMT-101"/>
    <use x="529.746094" xlink:href="#ArialMT-100"/>
   </g>
  </g>
  <g id="legend_1">
   <g id="text_21">
    <!-- tag -->
    <defs>
     <path d="M 40.4375 6.390625 
Q 35.546875 2.25 31.03125 0.53125 
Q 26.515625 -1.171875 21.34375 -1.171875 
Q 12.796875 -1.171875 8.203125 3 
Q 3.609375 7.171875 3.609375 13.671875 
Q 3.609375 17.484375 5.34375 20.625 
Q 7.078125 23.78125 9.890625 25.6875 
Q 12.703125 27.59375 16.21875 28.5625 
Q 18.796875 29.25 24.03125 29.890625 
Q 34.671875 31.15625 39.703125 32.90625 
Q 39.75 34.71875 39.75 35.203125 
Q 39.75 40.578125 37.25 42.78125 
Q 33.890625 45.75 27.25 45.75 
Q 21.046875 45.75 18.09375 43.578125 
Q 15.140625 41.40625 13.71875 35.890625 
L 5.125 37.0625 
Q 6.296875 42.578125 8.984375 45.96875 
Q 11.671875 49.359375 16.75 51.1875 
Q 21.828125 53.03125 28.515625 53.03125 
Q 35.15625 53.03125 39.296875 51.46875 
Q 43.453125 49.90625 45.40625 47.53125 
Q 47.359375 45.171875 48.140625 41.546875 
Q 48.578125 39.3125 48.578125 33.453125 
L 48.578125 21.734375 
Q 48.578125 9.46875 49.140625 6.21875 
Q 49.703125 2.984375 51.375 0 
L 42.1875 0 
Q 40.828125 2.734375 40.4375 6.390625 
z
M 39.703125 26.03125 
Q 34.90625 24.078125 25.34375 22.703125 
Q 19.921875 21.921875 17.671875 20.9375 
Q 15.4375 19.96875 14.203125 18.09375 
Q 12.984375 16.21875 12.984375 13.921875 
Q 12.984375 10.40625 15.640625 8.0625 
Q 18.3125 5.71875 23.4375 5.71875 
Q 28.515625 5.71875 32.46875 7.9375 
Q 36.421875 10.15625 38.28125 14.015625 
Q 39.703125 17 39.703125 22.796875 
z
" id="ArialMT-97"/>
     <path d="M 4.984375 -4.296875 
L 13.53125 -5.5625 
Q 14.0625 -9.515625 16.5 -11.328125 
Q 19.78125 -13.765625 25.4375 -13.765625 
Q 31.546875 -13.765625 34.859375 -11.328125 
Q 38.1875 -8.890625 39.359375 -4.5 
Q 40.046875 -1.8125 39.984375 6.78125 
Q 34.234375 0 25.640625 0 
Q 14.9375 0 9.078125 7.71875 
Q 3.21875 15.4375 3.21875 26.21875 
Q 3.21875 33.640625 5.90625 39.90625 
Q 8.59375 46.1875 13.6875 49.609375 
Q 18.796875 53.03125 25.6875 53.03125 
Q 34.859375 53.03125 40.828125 45.609375 
L 40.828125 51.859375 
L 48.921875 51.859375 
L 48.921875 7.03125 
Q 48.921875 -5.078125 46.453125 -10.125 
Q 44 -15.1875 38.640625 -18.109375 
Q 33.296875 -21.046875 25.484375 -21.046875 
Q 16.21875 -21.046875 10.5 -16.875 
Q 4.78125 -12.703125 4.984375 -4.296875 
z
M 12.25 26.859375 
Q 12.25 16.65625 16.296875 11.96875 
Q 20.359375 7.28125 26.46875 7.28125 
Q 32.515625 7.28125 36.609375 11.9375 
Q 40.71875 16.609375 40.71875 26.5625 
Q 40.71875 36.078125 36.5 40.90625 
Q 32.28125 45.75 26.3125 45.75 
Q 20.453125 45.75 16.34375 40.984375 
Q 12.25 36.234375 12.25 26.859375 
z
" id="ArialMT-103"/>
    </defs>
    <g style="fill:#262626;" transform="translate(368.621794 174.286563)scale(0.1 -0.1)">
     <use xlink:href="#ArialMT-116"/>
     <use x="27.783203" xlink:href="#ArialMT-97"/>
     <use x="83.398438" xlink:href="#ArialMT-103"/>
    </g>
   </g>
   <g id="PathCollection_3">
    <g>
     <use style="fill:#4c72b0;fill-opacity:0.8;stroke:#4c72b0;stroke-opacity:0.8;" x="361.846013" xlink:href="#mdee71ce039" y="185.924062"/>
    </g>
   </g>
   <g id="text_22">
    <!-- train -->
    <defs>
     <path d="M 6.640625 61.46875 
L 6.640625 71.578125 
L 15.4375 71.578125 
L 15.4375 61.46875 
z
M 6.640625 0 
L 6.640625 51.859375 
L 15.4375 51.859375 
L 15.4375 0 
z
" id="ArialMT-105"/>
     <path d="M 6.59375 0 
L 6.59375 51.859375 
L 14.5 51.859375 
L 14.5 44.484375 
Q 20.21875 53.03125 31 53.03125 
Q 35.6875 53.03125 39.625 51.34375 
Q 43.5625 49.65625 45.515625 46.921875 
Q 47.46875 44.1875 48.25 40.4375 
Q 48.734375 37.984375 48.734375 31.890625 
L 48.734375 0 
L 39.9375 0 
L 39.9375 31.546875 
Q 39.9375 36.921875 38.90625 39.578125 
Q 37.890625 42.234375 35.28125 43.8125 
Q 32.671875 45.40625 29.15625 45.40625 
Q 23.53125 45.40625 19.453125 41.84375 
Q 15.375 38.28125 15.375 28.328125 
L 15.375 0 
z
" id="ArialMT-110"/>
    </defs>
    <g style="fill:#262626;" transform="translate(379.846013 188.549062)scale(0.1 -0.1)">
     <use xlink:href="#ArialMT-116"/>
     <use x="27.783203" xlink:href="#ArialMT-114"/>
     <use x="61.083984" xlink:href="#ArialMT-97"/>
     <use x="116.699219" xlink:href="#ArialMT-105"/>
     <use x="138.916016" xlink:href="#ArialMT-110"/>
    </g>
   </g>
   <g id="PathCollection_4">
    <g>
     <use style="fill:#dd8452;fill-opacity:0.8;stroke:#dd8452;stroke-opacity:0.8;" x="361.846013" xlink:href="#mee37d24ba9" y="200.069375"/>
    </g>
   </g>
   <g id="text_23">
    <!-- test -->
    <g style="fill:#262626;" transform="translate(379.846013 202.694375)scale(0.1 -0.1)">
     <use xlink:href="#ArialMT-116"/>
     <use x="27.783203" xlink:href="#ArialMT-101"/>
     <use x="83.398438" xlink:href="#ArialMT-115"/>
     <use x="133.398438" xlink:href="#ArialMT-116"/>
    </g>
   </g>
  </g>
 </g>
 <defs>
  <clipPath id="pea19388d57">
   <rect height="310.12" width="307.8279" x="38.584375" y="25.2"/>
  </clipPath>
 </defs>
</svg>
