<?xml version="1.0" encoding="utf-8" standalone="no"?>
<!DOCTYPE svg PUBLIC "-//W3C//DTD SVG 1.1//EN"
  "http://www.w3.org/Graphics/SVG/1.1/DTD/svg11.dtd">
<!-- Created with matplotlib (https://matplotlib.org/) -->
<svg height="384.59375pt" version="1.1" viewBox="0 0 721.107812 384.59375" width="721.107812pt" xmlns="http://www.w3.org/2000/svg" xmlns:xlink="http://www.w3.org/1999/xlink">
 <defs>
  <style type="text/css">
*{stroke-linecap:butt;stroke-linejoin:round;}
  </style>
 </defs>
 <g id="figure_1">
  <g id="patch_1">
   <path d="M 0 384.59375 
L 721.107812 384.59375 
L 721.107812 0 
L 0 0 
z
" style="fill:none;"/>
  </g>
  <g id="axes_1">
   <g id="patch_2">
    <path d="M 44.307813 348.103125 
L 348.671449 348.103125 
L 348.671449 21.943125 
L 44.307813 21.943125 
z
" style="fill:#e6e6e6;"/>
   </g>
   <g id="matplotlib.axis_1">
    <g id="xtick_1">
     <g id="line2d_1">
      <path clip-path="url(#p3d9bc2d8e0)" d="M 58.142523 348.103125 
L 58.142523 21.943125 
" style="fill:none;stroke:#cccccc;stroke-linecap:round;stroke-width:0.8;"/>
     </g>
     <g id="text_1">
      <!-- 0.0 -->
      <defs>
       <path d="M 4.15625 35.296875 
Q 4.15625 48 6.765625 55.734375 
Q 9.375 63.484375 14.515625 67.671875 
Q 19.671875 71.875 27.484375 71.875 
Q 33.25 71.875 37.59375 69.546875 
Q 41.9375 67.234375 44.765625 62.859375 
Q 47.609375 58.5 49.21875 52.21875 
Q 50.828125 45.953125 50.828125 35.296875 
Q 50.828125 22.703125 48.234375 14.96875 
Q 45.65625 7.234375 40.5 3 
Q 35.359375 -1.21875 27.484375 -1.21875 
Q 17.140625 -1.21875 11.234375 6.203125 
Q 4.15625 15.140625 4.15625 35.296875 
z
M 13.1875 35.296875 
Q 13.1875 17.671875 17.3125 11.828125 
Q 21.4375 6 27.484375 6 
Q 33.546875 6 37.671875 11.859375 
Q 41.796875 17.71875 41.796875 35.296875 
Q 41.796875 52.984375 37.671875 58.78125 
Q 33.546875 64.59375 27.390625 64.59375 
Q 21.34375 64.59375 17.71875 59.46875 
Q 13.1875 52.9375 13.1875 35.296875 
z
" id="ArialMT-48"/>
       <path d="M 9.078125 0 
L 9.078125 10.015625 
L 19.09375 10.015625 
L 19.09375 0 
z
" id="ArialMT-46"/>
      </defs>
      <g style="fill:#262626;" transform="translate(51.192523 362.260938)scale(0.1 -0.1)">
       <use xlink:href="#ArialMT-48"/>
       <use x="55.615234" xlink:href="#ArialMT-46"/>
       <use x="83.398438" xlink:href="#ArialMT-48"/>
      </g>
     </g>
    </g>
    <g id="xtick_2">
     <g id="line2d_2">
      <path clip-path="url(#p3d9bc2d8e0)" d="M 113.481366 348.103125 
L 113.481366 21.943125 
" style="fill:none;stroke:#cccccc;stroke-linecap:round;stroke-width:0.8;"/>
     </g>
     <g id="text_2">
      <!-- 0.2 -->
      <defs>
       <path d="M 50.34375 8.453125 
L 50.34375 0 
L 3.03125 0 
Q 2.9375 3.171875 4.046875 6.109375 
Q 5.859375 10.9375 9.828125 15.625 
Q 13.8125 20.3125 21.34375 26.46875 
Q 33.015625 36.03125 37.109375 41.625 
Q 41.21875 47.21875 41.21875 52.203125 
Q 41.21875 57.421875 37.46875 61 
Q 33.734375 64.59375 27.734375 64.59375 
Q 21.390625 64.59375 17.578125 60.78125 
Q 13.765625 56.984375 13.71875 50.25 
L 4.6875 51.171875 
Q 5.609375 61.28125 11.65625 66.578125 
Q 17.71875 71.875 27.9375 71.875 
Q 38.234375 71.875 44.234375 66.15625 
Q 50.25 60.453125 50.25 52 
Q 50.25 47.703125 48.484375 43.546875 
Q 46.734375 39.40625 42.65625 34.8125 
Q 38.578125 30.21875 29.109375 22.21875 
Q 21.1875 15.578125 18.9375 13.203125 
Q 16.703125 10.84375 15.234375 8.453125 
z
" id="ArialMT-50"/>
      </defs>
      <g style="fill:#262626;" transform="translate(106.531366 362.260938)scale(0.1 -0.1)">
       <use xlink:href="#ArialMT-48"/>
       <use x="55.615234" xlink:href="#ArialMT-46"/>
       <use x="83.398438" xlink:href="#ArialMT-50"/>
      </g>
     </g>
    </g>
    <g id="xtick_3">
     <g id="line2d_3">
      <path clip-path="url(#p3d9bc2d8e0)" d="M 168.820209 348.103125 
L 168.820209 21.943125 
" style="fill:none;stroke:#cccccc;stroke-linecap:round;stroke-width:0.8;"/>
     </g>
     <g id="text_3">
      <!-- 0.4 -->
      <defs>
       <path d="M 32.328125 0 
L 32.328125 17.140625 
L 1.265625 17.140625 
L 1.265625 25.203125 
L 33.9375 71.578125 
L 41.109375 71.578125 
L 41.109375 25.203125 
L 50.78125 25.203125 
L 50.78125 17.140625 
L 41.109375 17.140625 
L 41.109375 0 
z
M 32.328125 25.203125 
L 32.328125 57.46875 
L 9.90625 25.203125 
z
" id="ArialMT-52"/>
      </defs>
      <g style="fill:#262626;" transform="translate(161.870209 362.260938)scale(0.1 -0.1)">
       <use xlink:href="#ArialMT-48"/>
       <use x="55.615234" xlink:href="#ArialMT-46"/>
       <use x="83.398438" xlink:href="#ArialMT-52"/>
      </g>
     </g>
    </g>
    <g id="xtick_4">
     <g id="line2d_4">
      <path clip-path="url(#p3d9bc2d8e0)" d="M 224.159052 348.103125 
L 224.159052 21.943125 
" style="fill:none;stroke:#cccccc;stroke-linecap:round;stroke-width:0.8;"/>
     </g>
     <g id="text_4">
      <!-- 0.6 -->
      <defs>
       <path d="M 49.75 54.046875 
L 41.015625 53.375 
Q 39.84375 58.546875 37.703125 60.890625 
Q 34.125 64.65625 28.90625 64.65625 
Q 24.703125 64.65625 21.53125 62.3125 
Q 17.390625 59.28125 14.984375 53.46875 
Q 12.59375 47.65625 12.5 36.921875 
Q 15.671875 41.75 20.265625 44.09375 
Q 24.859375 46.4375 29.890625 46.4375 
Q 38.671875 46.4375 44.84375 39.96875 
Q 51.03125 33.5 51.03125 23.25 
Q 51.03125 16.5 48.125 10.71875 
Q 45.21875 4.9375 40.140625 1.859375 
Q 35.0625 -1.21875 28.609375 -1.21875 
Q 17.625 -1.21875 10.6875 6.859375 
Q 3.765625 14.9375 3.765625 33.5 
Q 3.765625 54.25 11.421875 63.671875 
Q 18.109375 71.875 29.4375 71.875 
Q 37.890625 71.875 43.28125 67.140625 
Q 48.6875 62.40625 49.75 54.046875 
z
M 13.875 23.1875 
Q 13.875 18.65625 15.796875 14.5 
Q 17.71875 10.359375 21.1875 8.171875 
Q 24.65625 6 28.46875 6 
Q 34.03125 6 38.03125 10.484375 
Q 42.046875 14.984375 42.046875 22.703125 
Q 42.046875 30.125 38.078125 34.390625 
Q 34.125 38.671875 28.125 38.671875 
Q 22.171875 38.671875 18.015625 34.390625 
Q 13.875 30.125 13.875 23.1875 
z
" id="ArialMT-54"/>
      </defs>
      <g style="fill:#262626;" transform="translate(217.209052 362.260938)scale(0.1 -0.1)">
       <use xlink:href="#ArialMT-48"/>
       <use x="55.615234" xlink:href="#ArialMT-46"/>
       <use x="83.398438" xlink:href="#ArialMT-54"/>
      </g>
     </g>
    </g>
    <g id="xtick_5">
     <g id="line2d_5">
      <path clip-path="url(#p3d9bc2d8e0)" d="M 279.497895 348.103125 
L 279.497895 21.943125 
" style="fill:none;stroke:#cccccc;stroke-linecap:round;stroke-width:0.8;"/>
     </g>
     <g id="text_5">
      <!-- 0.8 -->
      <defs>
       <path d="M 17.671875 38.8125 
Q 12.203125 40.828125 9.5625 44.53125 
Q 6.9375 48.25 6.9375 53.421875 
Q 6.9375 61.234375 12.546875 66.546875 
Q 18.171875 71.875 27.484375 71.875 
Q 36.859375 71.875 42.578125 66.421875 
Q 48.296875 60.984375 48.296875 53.171875 
Q 48.296875 48.1875 45.671875 44.5 
Q 43.0625 40.828125 37.75 38.8125 
Q 44.34375 36.671875 47.78125 31.875 
Q 51.21875 27.09375 51.21875 20.453125 
Q 51.21875 11.28125 44.71875 5.03125 
Q 38.234375 -1.21875 27.640625 -1.21875 
Q 17.046875 -1.21875 10.546875 5.046875 
Q 4.046875 11.328125 4.046875 20.703125 
Q 4.046875 27.6875 7.59375 32.390625 
Q 11.140625 37.109375 17.671875 38.8125 
z
M 15.921875 53.71875 
Q 15.921875 48.640625 19.1875 45.40625 
Q 22.46875 42.1875 27.6875 42.1875 
Q 32.765625 42.1875 36.015625 45.375 
Q 39.265625 48.578125 39.265625 53.21875 
Q 39.265625 58.0625 35.90625 61.359375 
Q 32.5625 64.65625 27.59375 64.65625 
Q 22.5625 64.65625 19.234375 61.421875 
Q 15.921875 58.203125 15.921875 53.71875 
z
M 13.09375 20.65625 
Q 13.09375 16.890625 14.875 13.375 
Q 16.65625 9.859375 20.171875 7.921875 
Q 23.6875 6 27.734375 6 
Q 34.03125 6 38.125 10.046875 
Q 42.234375 14.109375 42.234375 20.359375 
Q 42.234375 26.703125 38.015625 30.859375 
Q 33.796875 35.015625 27.4375 35.015625 
Q 21.234375 35.015625 17.15625 30.90625 
Q 13.09375 26.8125 13.09375 20.65625 
z
" id="ArialMT-56"/>
      </defs>
      <g style="fill:#262626;" transform="translate(272.547895 362.260938)scale(0.1 -0.1)">
       <use xlink:href="#ArialMT-48"/>
       <use x="55.615234" xlink:href="#ArialMT-46"/>
       <use x="83.398438" xlink:href="#ArialMT-56"/>
      </g>
     </g>
    </g>
    <g id="xtick_6">
     <g id="line2d_6">
      <path clip-path="url(#p3d9bc2d8e0)" d="M 334.836738 348.103125 
L 334.836738 21.943125 
" style="fill:none;stroke:#cccccc;stroke-linecap:round;stroke-width:0.8;"/>
     </g>
     <g id="text_6">
      <!-- 1.0 -->
      <defs>
       <path d="M 37.25 0 
L 28.46875 0 
L 28.46875 56 
Q 25.296875 52.984375 20.140625 49.953125 
Q 14.984375 46.921875 10.890625 45.40625 
L 10.890625 53.90625 
Q 18.265625 57.375 23.78125 62.296875 
Q 29.296875 67.234375 31.59375 71.875 
L 37.25 71.875 
z
" id="ArialMT-49"/>
      </defs>
      <g style="fill:#262626;" transform="translate(327.886738 362.260938)scale(0.1 -0.1)">
       <use xlink:href="#ArialMT-49"/>
       <use x="55.615234" xlink:href="#ArialMT-46"/>
       <use x="83.398438" xlink:href="#ArialMT-48"/>
      </g>
     </g>
    </g>
    <g id="text_7">
     <!-- q -->
     <defs>
      <path d="M 39.65625 -19.875 
L 39.65625 5.515625 
Q 37.59375 2.640625 33.90625 0.734375 
Q 30.21875 -1.171875 26.078125 -1.171875 
Q 16.84375 -1.171875 10.171875 6.203125 
Q 3.515625 13.578125 3.515625 26.421875 
Q 3.515625 34.234375 6.21875 40.421875 
Q 8.9375 46.625 14.078125 49.828125 
Q 19.234375 53.03125 25.390625 53.03125 
Q 35.015625 53.03125 40.53125 44.921875 
L 40.53125 51.859375 
L 48.4375 51.859375 
L 48.4375 -19.875 
z
M 12.546875 26.078125 
Q 12.546875 16.0625 16.75 11.0625 
Q 20.953125 6.0625 26.8125 6.0625 
Q 32.421875 6.0625 36.46875 10.8125 
Q 40.53125 15.578125 40.53125 25.296875 
Q 40.53125 35.640625 36.25 40.859375 
Q 31.984375 46.09375 26.21875 46.09375 
Q 20.515625 46.09375 16.53125 41.234375 
Q 12.546875 36.375 12.546875 26.078125 
z
" id="ArialMT-113"/>
     </defs>
     <g style="fill:#262626;" transform="translate(193.709162 375.40625)scale(0.1 -0.1)">
      <use xlink:href="#ArialMT-113"/>
     </g>
    </g>
   </g>
   <g id="matplotlib.axis_2">
    <g id="ytick_1">
     <g id="line2d_7">
      <path clip-path="url(#p3d9bc2d8e0)" d="M 44.307813 307.173729 
L 348.671449 307.173729 
" style="fill:none;stroke:#cccccc;stroke-linecap:round;stroke-width:0.8;"/>
     </g>
     <g id="text_8">
      <!-- −10 -->
      <defs>
       <path d="M 52.828125 31.203125 
L 5.5625 31.203125 
L 5.5625 39.40625 
L 52.828125 39.40625 
z
" id="ArialMT-8722"/>
      </defs>
      <g style="fill:#262626;" transform="translate(20.345313 310.752635)scale(0.1 -0.1)">
       <use xlink:href="#ArialMT-8722"/>
       <use x="58.398438" xlink:href="#ArialMT-49"/>
       <use x="114.013672" xlink:href="#ArialMT-48"/>
      </g>
     </g>
    </g>
    <g id="ytick_2">
     <g id="line2d_8">
      <path clip-path="url(#p3d9bc2d8e0)" d="M 44.307813 255.508308 
L 348.671449 255.508308 
" style="fill:none;stroke:#cccccc;stroke-linecap:round;stroke-width:0.8;"/>
     </g>
     <g id="text_9">
      <!-- −5 -->
      <defs>
       <path d="M 4.15625 18.75 
L 13.375 19.53125 
Q 14.40625 12.796875 18.140625 9.390625 
Q 21.875 6 27.15625 6 
Q 33.5 6 37.890625 10.78125 
Q 42.28125 15.578125 42.28125 23.484375 
Q 42.28125 31 38.0625 35.34375 
Q 33.84375 39.703125 27 39.703125 
Q 22.75 39.703125 19.328125 37.765625 
Q 15.921875 35.84375 13.96875 32.765625 
L 5.71875 33.84375 
L 12.640625 70.609375 
L 48.25 70.609375 
L 48.25 62.203125 
L 19.671875 62.203125 
L 15.828125 42.96875 
Q 22.265625 47.46875 29.34375 47.46875 
Q 38.71875 47.46875 45.15625 40.96875 
Q 51.609375 34.46875 51.609375 24.265625 
Q 51.609375 14.546875 45.953125 7.46875 
Q 39.0625 -1.21875 27.15625 -1.21875 
Q 17.390625 -1.21875 11.203125 4.25 
Q 5.03125 9.71875 4.15625 18.75 
z
" id="ArialMT-53"/>
      </defs>
      <g style="fill:#262626;" transform="translate(25.90625 259.087214)scale(0.1 -0.1)">
       <use xlink:href="#ArialMT-8722"/>
       <use x="58.398438" xlink:href="#ArialMT-53"/>
      </g>
     </g>
    </g>
    <g id="ytick_3">
     <g id="line2d_9">
      <path clip-path="url(#p3d9bc2d8e0)" d="M 44.307813 203.842887 
L 348.671449 203.842887 
" style="fill:none;stroke:#cccccc;stroke-linecap:round;stroke-width:0.8;"/>
     </g>
     <g id="text_10">
      <!-- 0 -->
      <g style="fill:#262626;" transform="translate(31.746875 207.421793)scale(0.1 -0.1)">
       <use xlink:href="#ArialMT-48"/>
      </g>
     </g>
    </g>
    <g id="ytick_4">
     <g id="line2d_10">
      <path clip-path="url(#p3d9bc2d8e0)" d="M 44.307813 152.177465 
L 348.671449 152.177465 
" style="fill:none;stroke:#cccccc;stroke-linecap:round;stroke-width:0.8;"/>
     </g>
     <g id="text_11">
      <!-- 5 -->
      <g style="fill:#262626;" transform="translate(31.746875 155.756372)scale(0.1 -0.1)">
       <use xlink:href="#ArialMT-53"/>
      </g>
     </g>
    </g>
    <g id="ytick_5">
     <g id="line2d_11">
      <path clip-path="url(#p3d9bc2d8e0)" d="M 44.307813 100.512044 
L 348.671449 100.512044 
" style="fill:none;stroke:#cccccc;stroke-linecap:round;stroke-width:0.8;"/>
     </g>
     <g id="text_12">
      <!-- 10 -->
      <g style="fill:#262626;" transform="translate(26.185938 104.09095)scale(0.1 -0.1)">
       <use xlink:href="#ArialMT-49"/>
       <use x="55.615234" xlink:href="#ArialMT-48"/>
      </g>
     </g>
    </g>
    <g id="ytick_6">
     <g id="line2d_12">
      <path clip-path="url(#p3d9bc2d8e0)" d="M 44.307813 48.846623 
L 348.671449 48.846623 
" style="fill:none;stroke:#cccccc;stroke-linecap:round;stroke-width:0.8;"/>
     </g>
     <g id="text_13">
      <!-- 15 -->
      <g style="fill:#262626;" transform="translate(26.185938 52.425529)scale(0.1 -0.1)">
       <use xlink:href="#ArialMT-49"/>
       <use x="55.615234" xlink:href="#ArialMT-53"/>
      </g>
     </g>
    </g>
    <g id="text_14">
     <!-- quantile -->
     <defs>
      <path d="M 40.578125 0 
L 40.578125 7.625 
Q 34.515625 -1.171875 24.125 -1.171875 
Q 19.53125 -1.171875 15.546875 0.578125 
Q 11.578125 2.34375 9.640625 5 
Q 7.71875 7.671875 6.9375 11.53125 
Q 6.390625 14.109375 6.390625 19.734375 
L 6.390625 51.859375 
L 15.1875 51.859375 
L 15.1875 23.09375 
Q 15.1875 16.21875 15.71875 13.8125 
Q 16.546875 10.359375 19.234375 8.375 
Q 21.921875 6.390625 25.875 6.390625 
Q 29.828125 6.390625 33.296875 8.421875 
Q 36.765625 10.453125 38.203125 13.9375 
Q 39.65625 17.4375 39.65625 24.078125 
L 39.65625 51.859375 
L 48.4375 51.859375 
L 48.4375 0 
z
" id="ArialMT-117"/>
      <path d="M 40.4375 6.390625 
Q 35.546875 2.25 31.03125 0.53125 
Q 26.515625 -1.171875 21.34375 -1.171875 
Q 12.796875 -1.171875 8.203125 3 
Q 3.609375 7.171875 3.609375 13.671875 
Q 3.609375 17.484375 5.34375 20.625 
Q 7.078125 23.78125 9.890625 25.6875 
Q 12.703125 27.59375 16.21875 28.5625 
Q 18.796875 29.25 24.03125 29.890625 
Q 34.671875 31.15625 39.703125 32.90625 
Q 39.75 34.71875 39.75 35.203125 
Q 39.75 40.578125 37.25 42.78125 
Q 33.890625 45.75 27.25 45.75 
Q 21.046875 45.75 18.09375 43.578125 
Q 15.140625 41.40625 13.71875 35.890625 
L 5.125 37.0625 
Q 6.296875 42.578125 8.984375 45.96875 
Q 11.671875 49.359375 16.75 51.1875 
Q 21.828125 53.03125 28.515625 53.03125 
Q 35.15625 53.03125 39.296875 51.46875 
Q 43.453125 49.90625 45.40625 47.53125 
Q 47.359375 45.171875 48.140625 41.546875 
Q 48.578125 39.3125 48.578125 33.453125 
L 48.578125 21.734375 
Q 48.578125 9.46875 49.140625 6.21875 
Q 49.703125 2.984375 51.375 0 
L 42.1875 0 
Q 40.828125 2.734375 40.4375 6.390625 
z
M 39.703125 26.03125 
Q 34.90625 24.078125 25.34375 22.703125 
Q 19.921875 21.921875 17.671875 20.9375 
Q 15.4375 19.96875 14.203125 18.09375 
Q 12.984375 16.21875 12.984375 13.921875 
Q 12.984375 10.40625 15.640625 8.0625 
Q 18.3125 5.71875 23.4375 5.71875 
Q 28.515625 5.71875 32.46875 7.9375 
Q 36.421875 10.15625 38.28125 14.015625 
Q 39.703125 17 39.703125 22.796875 
z
" id="ArialMT-97"/>
      <path d="M 6.59375 0 
L 6.59375 51.859375 
L 14.5 51.859375 
L 14.5 44.484375 
Q 20.21875 53.03125 31 53.03125 
Q 35.6875 53.03125 39.625 51.34375 
Q 43.5625 49.65625 45.515625 46.921875 
Q 47.46875 44.1875 48.25 40.4375 
Q 48.734375 37.984375 48.734375 31.890625 
L 48.734375 0 
L 39.9375 0 
L 39.9375 31.546875 
Q 39.9375 36.921875 38.90625 39.578125 
Q 37.890625 42.234375 35.28125 43.8125 
Q 32.671875 45.40625 29.15625 45.40625 
Q 23.53125 45.40625 19.453125 41.84375 
Q 15.375 38.28125 15.375 28.328125 
L 15.375 0 
z
" id="ArialMT-110"/>
      <path d="M 25.78125 7.859375 
L 27.046875 0.09375 
Q 23.34375 -0.6875 20.40625 -0.6875 
Q 15.625 -0.6875 12.984375 0.828125 
Q 10.359375 2.34375 9.28125 4.8125 
Q 8.203125 7.28125 8.203125 15.1875 
L 8.203125 45.015625 
L 1.765625 45.015625 
L 1.765625 51.859375 
L 8.203125 51.859375 
L 8.203125 64.703125 
L 16.9375 69.96875 
L 16.9375 51.859375 
L 25.78125 51.859375 
L 25.78125 45.015625 
L 16.9375 45.015625 
L 16.9375 14.703125 
Q 16.9375 10.9375 17.40625 9.859375 
Q 17.875 8.796875 18.921875 8.15625 
Q 19.96875 7.515625 21.921875 7.515625 
Q 23.390625 7.515625 25.78125 7.859375 
z
" id="ArialMT-116"/>
      <path d="M 6.640625 61.46875 
L 6.640625 71.578125 
L 15.4375 71.578125 
L 15.4375 61.46875 
z
M 6.640625 0 
L 6.640625 51.859375 
L 15.4375 51.859375 
L 15.4375 0 
z
" id="ArialMT-105"/>
      <path d="M 6.390625 0 
L 6.390625 71.578125 
L 15.1875 71.578125 
L 15.1875 0 
z
" id="ArialMT-108"/>
      <path d="M 42.09375 16.703125 
L 51.171875 15.578125 
Q 49.03125 7.625 43.21875 3.21875 
Q 37.40625 -1.171875 28.375 -1.171875 
Q 17 -1.171875 10.328125 5.828125 
Q 3.65625 12.84375 3.65625 25.484375 
Q 3.65625 38.578125 10.390625 45.796875 
Q 17.140625 53.03125 27.875 53.03125 
Q 38.28125 53.03125 44.875 45.953125 
Q 51.46875 38.875 51.46875 26.03125 
Q 51.46875 25.25 51.421875 23.6875 
L 12.75 23.6875 
Q 13.234375 15.140625 17.578125 10.59375 
Q 21.921875 6.0625 28.421875 6.0625 
Q 33.25 6.0625 36.671875 8.59375 
Q 40.09375 11.140625 42.09375 16.703125 
z
M 13.234375 30.90625 
L 42.1875 30.90625 
Q 41.609375 37.453125 38.875 40.71875 
Q 34.671875 45.796875 27.984375 45.796875 
Q 21.921875 45.796875 17.796875 41.75 
Q 13.671875 37.703125 13.234375 30.90625 
z
" id="ArialMT-101"/>
     </defs>
     <g style="fill:#262626;" transform="translate(14.357813 202.536406)rotate(-90)scale(0.1 -0.1)">
      <use xlink:href="#ArialMT-113"/>
      <use x="55.615234" xlink:href="#ArialMT-117"/>
      <use x="111.230469" xlink:href="#ArialMT-97"/>
      <use x="166.845703" xlink:href="#ArialMT-110"/>
      <use x="222.460938" xlink:href="#ArialMT-116"/>
      <use x="250.244141" xlink:href="#ArialMT-105"/>
      <use x="272.460938" xlink:href="#ArialMT-108"/>
      <use x="294.677734" xlink:href="#ArialMT-101"/>
     </g>
    </g>
   </g>
   <g id="line2d_13">
    <path clip-path="url(#p3d9bc2d8e0)" d="M 58.142523 309.645554 
L 60.937414 297.901769 
L 63.732305 290.812273 
L 66.527196 284.518835 
L 69.322087 284.127166 
L 72.116979 280.361386 
L 74.91187 271.310361 
L 77.706761 271.147294 
L 80.501652 270.013182 
L 83.296543 267.874463 
L 86.091434 266.704861 
L 88.886325 265.806485 
L 91.681216 264.139299 
L 94.476107 259.200787 
L 97.270998 254.025335 
L 100.065889 251.098452 
L 102.86078 250.176464 
L 105.655671 249.822604 
L 108.450562 249.291302 
L 111.245453 247.954127 
L 114.040344 245.174461 
L 116.835235 244.170977 
L 119.630127 244.019767 
L 122.425018 243.968158 
L 125.219909 242.7045 
L 128.0148 241.209904 
L 130.809691 239.188701 
L 133.604582 238.68912 
L 136.399473 236.358291 
L 139.194364 235.995608 
L 141.989255 234.345065 
L 144.784146 233.919747 
L 147.579037 232.572883 
L 150.373928 231.777346 
L 153.168819 231.239123 
L 155.96371 229.52899 
L 158.758601 226.62098 
L 161.553492 224.936436 
L 164.348383 223.373672 
L 167.143275 220.588905 
L 169.938166 219.171239 
L 172.733057 218.400756 
L 175.527948 217.644069 
L 178.322839 217.170148 
L 181.11773 216.237299 
L 183.912621 212.98841 
L 186.707512 212.100582 
L 189.502403 210.410249 
L 192.297294 207.57281 
L 195.092185 205.748534 
L 197.887076 205.683287 
L 200.681967 204.329861 
L 203.476858 204.229895 
L 206.271749 203.178687 
L 209.06664 200.222048 
L 211.861532 198.524243 
L 214.656423 197.010988 
L 217.451314 193.887178 
L 220.246205 191.565703 
L 223.041096 189.711756 
L 225.835987 189.375836 
L 228.630878 188.856649 
L 231.425769 188.155526 
L 234.22066 186.62139 
L 237.015551 183.777209 
L 239.810442 182.313939 
L 242.605333 182.059187 
L 245.400224 181.199588 
L 248.195115 180.85715 
L 250.990006 180.816984 
L 253.784897 179.983593 
L 256.579788 177.689871 
L 259.37468 177.292571 
L 262.169571 177.260304 
L 264.964462 176.646869 
L 267.759353 176.299589 
L 270.554244 171.699579 
L 273.349135 170.587412 
L 276.144026 169.087363 
L 278.938917 168.345949 
L 281.733808 164.183944 
L 284.528699 157.184753 
L 287.32359 154.693256 
L 290.118481 152.08358 
L 292.913372 149.208115 
L 295.708263 147.489279 
L 298.503154 145.490364 
L 301.298045 143.543495 
L 304.092936 141.8368 
L 306.887828 139.262513 
L 309.682719 136.267102 
L 312.47761 134.420963 
L 315.272501 133.839427 
L 318.067392 126.178789 
L 320.862283 123.271735 
L 323.657174 122.692569 
L 326.452065 122.426548 
L 329.246956 84.31479 
L 332.041847 66.127066 
L 334.836738 36.76858 
" style="fill:none;stroke:#4c72b0;stroke-linecap:round;stroke-width:1.5;"/>
   </g>
   <g id="line2d_14">
    <path clip-path="url(#p3d9bc2d8e0)" d="M 58.142523 333.27767 
L 60.937414 328.232907 
L 63.732305 323.028558 
L 66.527196 315.270849 
L 69.322087 308.085345 
L 72.116979 305.191368 
L 74.91187 302.130606 
L 77.706761 298.291513 
L 80.501652 293.649349 
L 83.296543 286.397209 
L 86.091434 280.861756 
L 88.886325 279.446357 
L 91.681216 277.893187 
L 94.476107 276.087441 
L 97.270998 273.251399 
L 100.065889 268.943505 
L 102.86078 266.359286 
L 105.655671 265.7142 
L 108.450562 263.974269 
L 111.245453 261.261143 
L 114.040344 259.628354 
L 116.835235 258.751802 
L 119.630127 257.840401 
L 122.425018 256.909992 
L 125.219909 252.325558 
L 128.0148 246.218615 
L 130.809691 241.68232 
L 133.604582 237.629302 
L 136.399473 236.632968 
L 139.194364 236.291639 
L 141.989255 234.491051 
L 144.784146 232.495896 
L 147.579037 232.165576 
L 150.373928 231.939308 
L 153.168819 231.583549 
L 155.96371 231.189665 
L 158.758601 230.185797 
L 161.553492 228.710793 
L 164.348383 223.702273 
L 167.143275 219.550267 
L 169.938166 219.395331 
L 172.733057 219.087242 
L 175.527948 218.281406 
L 178.322839 217.38512 
L 181.11773 216.27175 
L 183.912621 215.154727 
L 186.707512 214.031004 
L 189.502403 212.789031 
L 192.297294 211.378132 
L 195.092185 210.052789 
L 197.887076 208.823698 
L 200.681967 206.848807 
L 203.476858 204.210981 
L 206.271749 201.59861 
L 209.06664 199.004057 
L 211.861532 196.858172 
L 214.656423 194.957015 
L 217.451314 194.274311 
L 220.246205 194.099295 
L 223.041096 193.937662 
L 225.835987 193.780147 
L 228.630878 193.092763 
L 231.425769 192.291835 
L 234.22066 191.982486 
L 237.015551 191.738681 
L 239.810442 191.519188 
L 242.605333 191.301215 
L 245.400224 187.894038 
L 248.195115 184.619013 
L 250.990006 183.458439 
L 253.784897 182.335572 
L 256.579788 181.495499 
L 259.37468 180.195614 
L 262.169571 176.749941 
L 264.964462 173.938168 
L 267.759353 173.186567 
L 270.554244 172.180566 
L 273.349135 170.564004 
L 276.144026 169.434221 
L 278.938917 169.196867 
L 281.733808 169.021041 
L 284.528699 168.93311 
L 287.32359 168.629074 
L 290.118481 168.081919 
L 292.913372 167.309798 
L 295.708263 166.337709 
L 298.503154 162.98638 
L 301.298045 157.969585 
L 304.092936 154.831973 
L 306.887828 152.719369 
L 309.682719 151.745761 
L 312.47761 151.246734 
L 315.272501 149.689241 
L 318.067392 147.806066 
L 320.862283 144.813664 
L 323.657174 141.58357 
L 326.452065 136.549883 
L 329.246956 131.275716 
L 332.041847 123.196472 
L 334.836738 114.941911 
" style="fill:none;stroke:#dd8452;stroke-linecap:round;stroke-width:1.5;"/>
   </g>
   <g id="patch_3">
    <path d="M 44.307813 348.103125 
L 44.307813 21.943125 
" style="fill:none;stroke:#ffffff;stroke-linecap:square;stroke-linejoin:miter;stroke-width:0.8;"/>
   </g>
   <g id="patch_4">
    <path d="M 348.671449 348.103125 
L 348.671449 21.943125 
" style="fill:none;stroke:#ffffff;stroke-linecap:square;stroke-linejoin:miter;stroke-width:0.8;"/>
   </g>
   <g id="patch_5">
    <path d="M 44.307813 348.103125 
L 348.671449 348.103125 
" style="fill:none;stroke:#ffffff;stroke-linecap:square;stroke-linejoin:miter;stroke-width:0.8;"/>
   </g>
   <g id="patch_6">
    <path d="M 44.307813 21.943125 
L 348.671449 21.943125 
" style="fill:none;stroke:#ffffff;stroke-linecap:square;stroke-linejoin:miter;stroke-width:0.8;"/>
   </g>
   <g id="text_15">
    <!-- Quantile Plot (Errors) -->
    <defs>
     <path d="M 61.96875 7.671875 
Q 68.5625 3.125 74.125 1.03125 
L 71.34375 -5.5625 
Q 63.625 -2.78125 55.953125 3.21875 
Q 48 -1.21875 38.375 -1.21875 
Q 28.65625 -1.21875 20.75 3.46875 
Q 12.84375 8.15625 8.5625 16.640625 
Q 4.296875 25.140625 4.296875 35.796875 
Q 4.296875 46.390625 8.59375 55.078125 
Q 12.890625 63.765625 20.828125 68.3125 
Q 28.765625 72.859375 38.578125 72.859375 
Q 48.484375 72.859375 56.4375 68.140625 
Q 64.40625 63.421875 68.578125 54.953125 
Q 72.75 46.484375 72.75 35.84375 
Q 72.75 27 70.0625 19.9375 
Q 67.390625 12.890625 61.96875 7.671875 
z
M 41.109375 19.78125 
Q 49.3125 17.484375 54.640625 12.9375 
Q 62.984375 20.5625 62.984375 35.84375 
Q 62.984375 44.53125 60.03125 51.015625 
Q 57.078125 57.515625 51.390625 61.109375 
Q 45.703125 64.703125 38.625 64.703125 
Q 28.03125 64.703125 21.046875 57.453125 
Q 14.0625 50.203125 14.0625 35.796875 
Q 14.0625 21.828125 20.96875 14.359375 
Q 27.875 6.890625 38.625 6.890625 
Q 43.703125 6.890625 48.1875 8.796875 
Q 43.75 11.671875 38.8125 12.890625 
z
" id="ArialMT-81"/>
     <path id="ArialMT-32"/>
     <path d="M 7.71875 0 
L 7.71875 71.578125 
L 34.71875 71.578125 
Q 41.84375 71.578125 45.609375 70.90625 
Q 50.875 70.015625 54.4375 67.546875 
Q 58.015625 65.09375 60.1875 60.640625 
Q 62.359375 56.203125 62.359375 50.875 
Q 62.359375 41.75 56.546875 35.421875 
Q 50.734375 29.109375 35.546875 29.109375 
L 17.1875 29.109375 
L 17.1875 0 
z
M 17.1875 37.546875 
L 35.6875 37.546875 
Q 44.875 37.546875 48.734375 40.96875 
Q 52.59375 44.390625 52.59375 50.59375 
Q 52.59375 55.078125 50.3125 58.265625 
Q 48.046875 61.46875 44.34375 62.5 
Q 41.9375 63.140625 35.5 63.140625 
L 17.1875 63.140625 
z
" id="ArialMT-80"/>
     <path d="M 3.328125 25.921875 
Q 3.328125 40.328125 11.328125 47.265625 
Q 18.015625 53.03125 27.640625 53.03125 
Q 38.328125 53.03125 45.109375 46.015625 
Q 51.90625 39.015625 51.90625 26.65625 
Q 51.90625 16.65625 48.90625 10.90625 
Q 45.90625 5.171875 40.15625 2 
Q 34.421875 -1.171875 27.640625 -1.171875 
Q 16.75 -1.171875 10.03125 5.8125 
Q 3.328125 12.796875 3.328125 25.921875 
z
M 12.359375 25.921875 
Q 12.359375 15.96875 16.703125 11.015625 
Q 21.046875 6.0625 27.640625 6.0625 
Q 34.1875 6.0625 38.53125 11.03125 
Q 42.875 16.015625 42.875 26.21875 
Q 42.875 35.84375 38.5 40.796875 
Q 34.125 45.75 27.640625 45.75 
Q 21.046875 45.75 16.703125 40.8125 
Q 12.359375 35.890625 12.359375 25.921875 
z
" id="ArialMT-111"/>
     <path d="M 23.390625 -21.046875 
Q 16.109375 -11.859375 11.078125 0.4375 
Q 6.0625 12.75 6.0625 25.921875 
Q 6.0625 37.546875 9.8125 48.1875 
Q 14.203125 60.546875 23.390625 72.796875 
L 29.6875 72.796875 
Q 23.78125 62.640625 21.875 58.296875 
Q 18.890625 51.5625 17.1875 44.234375 
Q 15.09375 35.109375 15.09375 25.875 
Q 15.09375 2.390625 29.6875 -21.046875 
z
" id="ArialMT-40"/>
     <path d="M 7.90625 0 
L 7.90625 71.578125 
L 59.671875 71.578125 
L 59.671875 63.140625 
L 17.390625 63.140625 
L 17.390625 41.21875 
L 56.984375 41.21875 
L 56.984375 32.8125 
L 17.390625 32.8125 
L 17.390625 8.453125 
L 61.328125 8.453125 
L 61.328125 0 
z
" id="ArialMT-69"/>
     <path d="M 6.5 0 
L 6.5 51.859375 
L 14.40625 51.859375 
L 14.40625 44 
Q 17.4375 49.515625 20 51.265625 
Q 22.5625 53.03125 25.640625 53.03125 
Q 30.078125 53.03125 34.671875 50.203125 
L 31.640625 42.046875 
Q 28.421875 43.953125 25.203125 43.953125 
Q 22.3125 43.953125 20.015625 42.21875 
Q 17.71875 40.484375 16.75 37.40625 
Q 15.28125 32.71875 15.28125 27.15625 
L 15.28125 0 
z
" id="ArialMT-114"/>
     <path d="M 3.078125 15.484375 
L 11.765625 16.84375 
Q 12.5 11.625 15.84375 8.84375 
Q 19.1875 6.0625 25.203125 6.0625 
Q 31.25 6.0625 34.171875 8.515625 
Q 37.109375 10.984375 37.109375 14.3125 
Q 37.109375 17.28125 34.515625 19 
Q 32.71875 20.171875 25.53125 21.96875 
Q 15.875 24.421875 12.140625 26.203125 
Q 8.40625 27.984375 6.46875 31.125 
Q 4.546875 34.28125 4.546875 38.09375 
Q 4.546875 41.546875 6.125 44.5 
Q 7.71875 47.46875 10.453125 49.421875 
Q 12.5 50.921875 16.03125 51.96875 
Q 19.578125 53.03125 23.640625 53.03125 
Q 29.734375 53.03125 34.34375 51.265625 
Q 38.96875 49.515625 41.15625 46.5 
Q 43.359375 43.5 44.1875 38.484375 
L 35.59375 37.3125 
Q 35.015625 41.3125 32.203125 43.546875 
Q 29.390625 45.796875 24.265625 45.796875 
Q 18.21875 45.796875 15.625 43.796875 
Q 13.03125 41.796875 13.03125 39.109375 
Q 13.03125 37.40625 14.109375 36.03125 
Q 15.1875 34.625 17.484375 33.6875 
Q 18.796875 33.203125 25.25 31.453125 
Q 34.578125 28.953125 38.25 27.359375 
Q 41.9375 25.78125 44.03125 22.75 
Q 46.140625 19.734375 46.140625 15.234375 
Q 46.140625 10.84375 43.578125 6.953125 
Q 41.015625 3.078125 36.171875 0.953125 
Q 31.34375 -1.171875 25.25 -1.171875 
Q 15.140625 -1.171875 9.84375 3.03125 
Q 4.546875 7.234375 3.078125 15.484375 
z
" id="ArialMT-115"/>
     <path d="M 12.359375 -21.046875 
L 6.0625 -21.046875 
Q 20.65625 2.390625 20.65625 25.875 
Q 20.65625 35.0625 18.5625 44.09375 
Q 16.890625 51.421875 13.921875 58.15625 
Q 12.015625 62.546875 6.0625 72.796875 
L 12.359375 72.796875 
Q 21.53125 60.546875 25.921875 48.1875 
Q 29.6875 37.546875 29.6875 25.921875 
Q 29.6875 12.75 24.625 0.4375 
Q 19.578125 -11.859375 12.359375 -21.046875 
z
" id="ArialMT-41"/>
    </defs>
    <g style="fill:#262626;" transform="translate(140.143068 15.943125)scale(0.12 -0.12)">
     <use xlink:href="#ArialMT-81"/>
     <use x="77.783203" xlink:href="#ArialMT-117"/>
     <use x="133.398438" xlink:href="#ArialMT-97"/>
     <use x="189.013672" xlink:href="#ArialMT-110"/>
     <use x="244.628906" xlink:href="#ArialMT-116"/>
     <use x="272.412109" xlink:href="#ArialMT-105"/>
     <use x="294.628906" xlink:href="#ArialMT-108"/>
     <use x="316.845703" xlink:href="#ArialMT-101"/>
     <use x="372.460938" xlink:href="#ArialMT-32"/>
     <use x="400.244141" xlink:href="#ArialMT-80"/>
     <use x="466.943359" xlink:href="#ArialMT-108"/>
     <use x="489.160156" xlink:href="#ArialMT-111"/>
     <use x="544.775391" xlink:href="#ArialMT-116"/>
     <use x="572.558594" xlink:href="#ArialMT-32"/>
     <use x="600.341797" xlink:href="#ArialMT-40"/>
     <use x="633.642578" xlink:href="#ArialMT-69"/>
     <use x="700.341797" xlink:href="#ArialMT-114"/>
     <use x="733.642578" xlink:href="#ArialMT-114"/>
     <use x="766.943359" xlink:href="#ArialMT-111"/>
     <use x="822.558594" xlink:href="#ArialMT-114"/>
     <use x="855.859375" xlink:href="#ArialMT-115"/>
     <use x="905.859375" xlink:href="#ArialMT-41"/>
    </g>
   </g>
   <g id="legend_1">
    <g id="patch_7">
     <path d="M 51.307813 58.23375 
L 102.759375 58.23375 
Q 104.759375 58.23375 104.759375 56.23375 
L 104.759375 28.943125 
Q 104.759375 26.943125 102.759375 26.943125 
L 51.307813 26.943125 
Q 49.307813 26.943125 49.307813 28.943125 
L 49.307813 56.23375 
Q 49.307813 58.23375 51.307813 58.23375 
z
" style="fill:#e6e6e6;opacity:0.8;stroke:#cccccc;stroke-linejoin:miter;"/>
    </g>
    <g id="line2d_15">
     <path d="M 53.307813 34.600937 
L 73.307813 34.600937 
" style="fill:none;stroke:#4c72b0;stroke-linecap:round;stroke-width:1.5;"/>
    </g>
    <g id="line2d_16"/>
    <g id="text_16">
     <!-- train -->
     <g style="fill:#262626;" transform="translate(81.307813 38.100937)scale(0.1 -0.1)">
      <use xlink:href="#ArialMT-116"/>
      <use x="27.783203" xlink:href="#ArialMT-114"/>
      <use x="61.083984" xlink:href="#ArialMT-97"/>
      <use x="116.699219" xlink:href="#ArialMT-105"/>
      <use x="138.916016" xlink:href="#ArialMT-110"/>
     </g>
    </g>
    <g id="line2d_17">
     <path d="M 53.307813 48.74625 
L 73.307813 48.74625 
" style="fill:none;stroke:#dd8452;stroke-linecap:round;stroke-width:1.5;"/>
    </g>
    <g id="line2d_18"/>
    <g id="text_17">
     <!-- tetst -->
     <g style="fill:#262626;" transform="translate(81.307813 52.24625)scale(0.1 -0.1)">
      <use xlink:href="#ArialMT-116"/>
      <use x="27.783203" xlink:href="#ArialMT-101"/>
      <use x="83.398438" xlink:href="#ArialMT-116"/>
      <use x="111.181641" xlink:href="#ArialMT-115"/>
      <use x="161.181641" xlink:href="#ArialMT-116"/>
     </g>
    </g>
   </g>
  </g>
  <g id="axes_2">
   <g id="patch_8">
    <path d="M 409.544176 348.103125 
L 713.907812 348.103125 
L 713.907812 21.943125 
L 409.544176 21.943125 
z
" style="fill:#e6e6e6;"/>
   </g>
   <g id="matplotlib.axis_3">
    <g id="xtick_7">
     <g id="line2d_19">
      <path clip-path="url(#p07b095a5e7)" d="M 423.378887 348.103125 
L 423.378887 21.943125 
" style="fill:none;stroke:#cccccc;stroke-linecap:round;stroke-width:0.8;"/>
     </g>
     <g id="text_18">
      <!-- 0.0 -->
      <g style="fill:#262626;" transform="translate(416.428887 362.260938)scale(0.1 -0.1)">
       <use xlink:href="#ArialMT-48"/>
       <use x="55.615234" xlink:href="#ArialMT-46"/>
       <use x="83.398438" xlink:href="#ArialMT-48"/>
      </g>
     </g>
    </g>
    <g id="xtick_8">
     <g id="line2d_20">
      <path clip-path="url(#p07b095a5e7)" d="M 478.71773 348.103125 
L 478.71773 21.943125 
" style="fill:none;stroke:#cccccc;stroke-linecap:round;stroke-width:0.8;"/>
     </g>
     <g id="text_19">
      <!-- 0.2 -->
      <g style="fill:#262626;" transform="translate(471.76773 362.260938)scale(0.1 -0.1)">
       <use xlink:href="#ArialMT-48"/>
       <use x="55.615234" xlink:href="#ArialMT-46"/>
       <use x="83.398438" xlink:href="#ArialMT-50"/>
      </g>
     </g>
    </g>
    <g id="xtick_9">
     <g id="line2d_21">
      <path clip-path="url(#p07b095a5e7)" d="M 534.056573 348.103125 
L 534.056573 21.943125 
" style="fill:none;stroke:#cccccc;stroke-linecap:round;stroke-width:0.8;"/>
     </g>
     <g id="text_20">
      <!-- 0.4 -->
      <g style="fill:#262626;" transform="translate(527.106573 362.260938)scale(0.1 -0.1)">
       <use xlink:href="#ArialMT-48"/>
       <use x="55.615234" xlink:href="#ArialMT-46"/>
       <use x="83.398438" xlink:href="#ArialMT-52"/>
      </g>
     </g>
    </g>
    <g id="xtick_10">
     <g id="line2d_22">
      <path clip-path="url(#p07b095a5e7)" d="M 589.395416 348.103125 
L 589.395416 21.943125 
" style="fill:none;stroke:#cccccc;stroke-linecap:round;stroke-width:0.8;"/>
     </g>
     <g id="text_21">
      <!-- 0.6 -->
      <g style="fill:#262626;" transform="translate(582.445416 362.260938)scale(0.1 -0.1)">
       <use xlink:href="#ArialMT-48"/>
       <use x="55.615234" xlink:href="#ArialMT-46"/>
       <use x="83.398438" xlink:href="#ArialMT-54"/>
      </g>
     </g>
    </g>
    <g id="xtick_11">
     <g id="line2d_23">
      <path clip-path="url(#p07b095a5e7)" d="M 644.734259 348.103125 
L 644.734259 21.943125 
" style="fill:none;stroke:#cccccc;stroke-linecap:round;stroke-width:0.8;"/>
     </g>
     <g id="text_22">
      <!-- 0.8 -->
      <g style="fill:#262626;" transform="translate(637.784259 362.260938)scale(0.1 -0.1)">
       <use xlink:href="#ArialMT-48"/>
       <use x="55.615234" xlink:href="#ArialMT-46"/>
       <use x="83.398438" xlink:href="#ArialMT-56"/>
      </g>
     </g>
    </g>
    <g id="xtick_12">
     <g id="line2d_24">
      <path clip-path="url(#p07b095a5e7)" d="M 700.073102 348.103125 
L 700.073102 21.943125 
" style="fill:none;stroke:#cccccc;stroke-linecap:round;stroke-width:0.8;"/>
     </g>
     <g id="text_23">
      <!-- 1.0 -->
      <g style="fill:#262626;" transform="translate(693.123102 362.260938)scale(0.1 -0.1)">
       <use xlink:href="#ArialMT-49"/>
       <use x="55.615234" xlink:href="#ArialMT-46"/>
       <use x="83.398438" xlink:href="#ArialMT-48"/>
      </g>
     </g>
    </g>
    <g id="text_24">
     <!-- q -->
     <g style="fill:#262626;" transform="translate(558.945526 375.40625)scale(0.1 -0.1)">
      <use xlink:href="#ArialMT-113"/>
     </g>
    </g>
   </g>
   <g id="matplotlib.axis_4">
    <g id="ytick_7">
     <g id="line2d_25">
      <path clip-path="url(#p07b095a5e7)" d="M 409.544176 341.783487 
L 713.907812 341.783487 
" style="fill:none;stroke:#cccccc;stroke-linecap:round;stroke-width:0.8;"/>
     </g>
     <g id="text_25">
      <!-- −0.4 -->
      <g style="fill:#262626;" transform="translate(382.803551 345.362393)scale(0.1 -0.1)">
       <use xlink:href="#ArialMT-8722"/>
       <use x="58.398438" xlink:href="#ArialMT-48"/>
       <use x="114.013672" xlink:href="#ArialMT-46"/>
       <use x="141.796875" xlink:href="#ArialMT-52"/>
      </g>
     </g>
    </g>
    <g id="ytick_8">
     <g id="line2d_26">
      <path clip-path="url(#p07b095a5e7)" d="M 409.544176 299.411059 
L 713.907812 299.411059 
" style="fill:none;stroke:#cccccc;stroke-linecap:round;stroke-width:0.8;"/>
     </g>
     <g id="text_26">
      <!-- −0.2 -->
      <g style="fill:#262626;" transform="translate(382.803551 302.989965)scale(0.1 -0.1)">
       <use xlink:href="#ArialMT-8722"/>
       <use x="58.398438" xlink:href="#ArialMT-48"/>
       <use x="114.013672" xlink:href="#ArialMT-46"/>
       <use x="141.796875" xlink:href="#ArialMT-50"/>
      </g>
     </g>
    </g>
    <g id="ytick_9">
     <g id="line2d_27">
      <path clip-path="url(#p07b095a5e7)" d="M 409.544176 257.038631 
L 713.907812 257.038631 
" style="fill:none;stroke:#cccccc;stroke-linecap:round;stroke-width:0.8;"/>
     </g>
     <g id="text_27">
      <!-- 0.0 -->
      <g style="fill:#262626;" transform="translate(388.644176 260.617537)scale(0.1 -0.1)">
       <use xlink:href="#ArialMT-48"/>
       <use x="55.615234" xlink:href="#ArialMT-46"/>
       <use x="83.398438" xlink:href="#ArialMT-48"/>
      </g>
     </g>
    </g>
    <g id="ytick_10">
     <g id="line2d_28">
      <path clip-path="url(#p07b095a5e7)" d="M 409.544176 214.666203 
L 713.907812 214.666203 
" style="fill:none;stroke:#cccccc;stroke-linecap:round;stroke-width:0.8;"/>
     </g>
     <g id="text_28">
      <!-- 0.2 -->
      <g style="fill:#262626;" transform="translate(388.644176 218.245109)scale(0.1 -0.1)">
       <use xlink:href="#ArialMT-48"/>
       <use x="55.615234" xlink:href="#ArialMT-46"/>
       <use x="83.398438" xlink:href="#ArialMT-50"/>
      </g>
     </g>
    </g>
    <g id="ytick_11">
     <g id="line2d_29">
      <path clip-path="url(#p07b095a5e7)" d="M 409.544176 172.293775 
L 713.907812 172.293775 
" style="fill:none;stroke:#cccccc;stroke-linecap:round;stroke-width:0.8;"/>
     </g>
     <g id="text_29">
      <!-- 0.4 -->
      <g style="fill:#262626;" transform="translate(388.644176 175.872681)scale(0.1 -0.1)">
       <use xlink:href="#ArialMT-48"/>
       <use x="55.615234" xlink:href="#ArialMT-46"/>
       <use x="83.398438" xlink:href="#ArialMT-52"/>
      </g>
     </g>
    </g>
    <g id="ytick_12">
     <g id="line2d_30">
      <path clip-path="url(#p07b095a5e7)" d="M 409.544176 129.921347 
L 713.907812 129.921347 
" style="fill:none;stroke:#cccccc;stroke-linecap:round;stroke-width:0.8;"/>
     </g>
     <g id="text_30">
      <!-- 0.6 -->
      <g style="fill:#262626;" transform="translate(388.644176 133.500253)scale(0.1 -0.1)">
       <use xlink:href="#ArialMT-48"/>
       <use x="55.615234" xlink:href="#ArialMT-46"/>
       <use x="83.398438" xlink:href="#ArialMT-54"/>
      </g>
     </g>
    </g>
    <g id="ytick_13">
     <g id="line2d_31">
      <path clip-path="url(#p07b095a5e7)" d="M 409.544176 87.548919 
L 713.907812 87.548919 
" style="fill:none;stroke:#cccccc;stroke-linecap:round;stroke-width:0.8;"/>
     </g>
     <g id="text_31">
      <!-- 0.8 -->
      <g style="fill:#262626;" transform="translate(388.644176 91.127825)scale(0.1 -0.1)">
       <use xlink:href="#ArialMT-48"/>
       <use x="55.615234" xlink:href="#ArialMT-46"/>
       <use x="83.398438" xlink:href="#ArialMT-56"/>
      </g>
     </g>
    </g>
    <g id="ytick_14">
     <g id="line2d_32">
      <path clip-path="url(#p07b095a5e7)" d="M 409.544176 45.176491 
L 713.907812 45.176491 
" style="fill:none;stroke:#cccccc;stroke-linecap:round;stroke-width:0.8;"/>
     </g>
     <g id="text_32">
      <!-- 1.0 -->
      <g style="fill:#262626;" transform="translate(388.644176 48.755397)scale(0.1 -0.1)">
       <use xlink:href="#ArialMT-49"/>
       <use x="55.615234" xlink:href="#ArialMT-46"/>
       <use x="83.398438" xlink:href="#ArialMT-48"/>
      </g>
     </g>
    </g>
    <g id="text_33">
     <!-- quantile -->
     <g style="fill:#262626;" transform="translate(376.816051 202.536406)rotate(-90)scale(0.1 -0.1)">
      <use xlink:href="#ArialMT-113"/>
      <use x="55.615234" xlink:href="#ArialMT-117"/>
      <use x="111.230469" xlink:href="#ArialMT-97"/>
      <use x="166.845703" xlink:href="#ArialMT-110"/>
      <use x="222.460938" xlink:href="#ArialMT-116"/>
      <use x="250.244141" xlink:href="#ArialMT-105"/>
      <use x="272.460938" xlink:href="#ArialMT-108"/>
      <use x="294.677734" xlink:href="#ArialMT-101"/>
     </g>
    </g>
   </g>
   <g id="line2d_33">
    <path clip-path="url(#p07b095a5e7)" d="M 423.378887 333.27767 
L 426.173778 319.047097 
L 428.968669 303.927686 
L 431.76356 302.33268 
L 434.558451 296.886772 
L 437.353342 294.677261 
L 440.148233 293.238687 
L 442.943124 290.274914 
L 445.738015 285.926355 
L 448.532906 283.426521 
L 451.327797 282.586934 
L 454.122689 281.688403 
L 456.91758 280.563459 
L 459.712471 279.912048 
L 462.507362 278.182154 
L 465.302253 276.681363 
L 468.097144 275.849676 
L 470.892035 275.011373 
L 473.686926 274.682802 
L 476.481817 274.405091 
L 479.276708 274.218028 
L 482.071599 273.431442 
L 484.86649 272.922092 
L 487.661381 272.276528 
L 490.456272 271.845921 
L 493.251163 271.73697 
L 496.046054 270.453321 
L 498.840945 269.980056 
L 501.635837 269.690989 
L 504.430728 269.47278 
L 507.225619 268.793495 
L 510.02051 268.3288 
L 512.815401 267.189716 
L 515.610292 267.00388 
L 518.405183 266.783587 
L 521.200074 266.42284 
L 523.994965 266.115354 
L 526.789856 265.700523 
L 529.584747 265.315854 
L 532.379638 264.623031 
L 535.174529 264.172361 
L 537.96942 264.055455 
L 540.764311 263.967503 
L 543.559202 262.966987 
L 546.354093 262.478506 
L 549.148985 261.708099 
L 551.943876 260.700874 
L 554.738767 260.457264 
L 557.533658 259.081103 
L 560.328549 258.573475 
L 563.12344 257.598178 
L 565.918331 257.258507 
L 568.713222 257.186856 
L 571.508113 256.726864 
L 574.303004 255.556071 
L 577.097895 255.239581 
L 579.892786 254.007017 
L 582.687677 252.752726 
L 585.482568 252.60913 
L 588.277459 252.045261 
L 591.07235 251.184335 
L 593.867242 250.523709 
L 596.662133 249.561349 
L 599.457024 248.700081 
L 602.251915 248.13856 
L 605.046806 247.265274 
L 607.841697 246.802368 
L 610.636588 246.68063 
L 613.431479 246.481465 
L 616.22637 246.251531 
L 619.021261 245.87604 
L 621.816152 245.533737 
L 624.611043 245.104863 
L 627.405934 244.309372 
L 630.200825 244.042297 
L 632.995716 242.433394 
L 635.790607 240.603159 
L 638.585498 239.31799 
L 641.38039 238.531539 
L 644.175281 235.12104 
L 646.970172 234.608351 
L 649.765063 233.146056 
L 652.559954 230.762968 
L 655.354845 227.383996 
L 658.149736 223.518597 
L 660.944627 221.556011 
L 663.739518 220.073292 
L 666.534409 219.891308 
L 669.3293 219.770303 
L 672.124191 219.091011 
L 674.919082 218.130166 
L 677.713973 212.669015 
L 680.508864 209.322405 
L 683.303755 205.408328 
L 686.098646 193.069582 
L 688.893538 181.710301 
L 691.688429 176.819129 
L 694.48332 141.198917 
L 697.278211 121.916748 
L 700.073102 36.76858 
" style="fill:none;stroke:#55a868;stroke-linecap:round;stroke-width:1.5;"/>
   </g>
   <g id="line2d_34">
    <path clip-path="url(#p07b095a5e7)" d="M 423.378887 306.535971 
L 426.173778 305.541815 
L 428.968669 304.493557 
L 431.76356 302.579672 
L 434.558451 300.705486 
L 437.353342 299.129042 
L 440.148233 296.91948 
L 442.943124 291.755373 
L 445.738015 287.288309 
L 448.532906 285.086635 
L 451.327797 282.88183 
L 454.122689 280.669509 
L 456.91758 279.155801 
L 459.712471 278.922882 
L 462.507362 278.573654 
L 465.302253 278.058268 
L 468.097144 277.714227 
L 470.892035 277.562947 
L 473.686926 277.254097 
L 476.481817 276.805185 
L 479.276708 276.561182 
L 482.071599 276.460615 
L 484.86649 276.186773 
L 487.661381 275.818416 
L 490.456272 272.953524 
L 493.251163 269.048408 
L 496.046054 268.074071 
L 498.840945 268.001513 
L 501.635837 267.534269 
L 504.430728 266.982448 
L 507.225619 266.737234 
L 510.02051 266.5329 
L 512.815401 266.134431 
L 515.610292 265.723827 
L 518.405183 265.139508 
L 521.200074 264.574122 
L 523.994965 264.311675 
L 526.789856 264.063422 
L 529.584747 263.921631 
L 532.379638 263.799164 
L 535.174529 263.766869 
L 537.96942 263.416859 
L 540.764311 262.034276 
L 543.559202 260.937997 
L 546.354093 260.528844 
L 549.148985 260.228409 
L 551.943876 260.127287 
L 554.738767 259.753797 
L 557.533658 258.991207 
L 560.328549 258.574912 
L 563.12344 258.548199 
L 565.918331 258.06225 
L 568.713222 257.168092 
L 571.508113 256.383512 
L 574.303004 255.675637 
L 577.097895 255.217659 
L 579.892786 254.895988 
L 582.687677 254.555338 
L 585.482568 254.206779 
L 588.277459 253.90397 
L 591.07235 253.615238 
L 593.867242 253.561697 
L 596.662133 253.558555 
L 599.457024 253.389033 
L 602.251915 253.197326 
L 605.046806 251.888484 
L 607.841697 250.509821 
L 610.636588 249.998151 
L 613.431479 249.475077 
L 616.22637 248.769557 
L 619.021261 248.10944 
L 621.816152 247.789836 
L 624.611043 247.475492 
L 627.405934 247.185694 
L 630.200825 246.682405 
L 632.995716 245.485271 
L 635.790607 244.346214 
L 638.585498 243.346542 
L 641.38039 242.609559 
L 644.175281 242.35417 
L 646.970172 242.008717 
L 649.765063 241.534599 
L 652.559954 241.1806 
L 655.354845 240.961733 
L 658.149736 240.794319 
L 660.944627 240.672643 
L 663.739518 240.455023 
L 666.534409 240.170244 
L 669.3293 239.825545 
L 672.124191 239.448161 
L 674.919082 239.276005 
L 677.713973 239.189361 
L 680.508864 238.879229 
L 683.303755 238.500332 
L 686.098646 237.704291 
L 688.893538 236.818863 
L 691.688429 229.883814 
L 694.48332 222.142149 
L 697.278211 220.714445 
L 700.073102 219.681364 
" style="fill:none;stroke:#c44e52;stroke-linecap:round;stroke-width:1.5;"/>
   </g>
   <g id="patch_9">
    <path d="M 409.544176 348.103125 
L 409.544176 21.943125 
" style="fill:none;stroke:#ffffff;stroke-linecap:square;stroke-linejoin:miter;stroke-width:0.8;"/>
   </g>
   <g id="patch_10">
    <path d="M 713.907812 348.103125 
L 713.907812 21.943125 
" style="fill:none;stroke:#ffffff;stroke-linecap:square;stroke-linejoin:miter;stroke-width:0.8;"/>
   </g>
   <g id="patch_11">
    <path d="M 409.544176 348.103125 
L 713.907812 348.103125 
" style="fill:none;stroke:#ffffff;stroke-linecap:square;stroke-linejoin:miter;stroke-width:0.8;"/>
   </g>
   <g id="patch_12">
    <path d="M 409.544176 21.943125 
L 713.907812 21.943125 
" style="fill:none;stroke:#ffffff;stroke-linecap:square;stroke-linejoin:miter;stroke-width:0.8;"/>
   </g>
   <g id="text_34">
    <!-- Quantile Plot (Percentaje Errors) -->
    <defs>
     <path d="M 40.4375 19 
L 49.078125 17.875 
Q 47.65625 8.9375 41.8125 3.875 
Q 35.984375 -1.171875 27.484375 -1.171875 
Q 16.84375 -1.171875 10.375 5.78125 
Q 3.90625 12.75 3.90625 25.734375 
Q 3.90625 34.125 6.6875 40.421875 
Q 9.46875 46.734375 15.15625 49.875 
Q 20.84375 53.03125 27.546875 53.03125 
Q 35.984375 53.03125 41.359375 48.75 
Q 46.734375 44.484375 48.25 36.625 
L 39.703125 35.296875 
Q 38.484375 40.53125 35.375 43.15625 
Q 32.28125 45.796875 27.875 45.796875 
Q 21.234375 45.796875 17.078125 41.03125 
Q 12.9375 36.28125 12.9375 25.984375 
Q 12.9375 15.53125 16.9375 10.796875 
Q 20.953125 6.0625 27.390625 6.0625 
Q 32.5625 6.0625 36.03125 9.234375 
Q 39.5 12.40625 40.4375 19 
z
" id="ArialMT-99"/>
     <path d="M 6.546875 61.375 
L 6.546875 71.578125 
L 15.328125 71.578125 
L 15.328125 61.375 
z
M -4.59375 -20.125 
L -2.9375 -12.640625 
Q -0.296875 -13.328125 1.21875 -13.328125 
Q 3.90625 -13.328125 5.21875 -11.546875 
Q 6.546875 -9.765625 6.546875 -2.640625 
L 6.546875 51.859375 
L 15.328125 51.859375 
L 15.328125 -2.828125 
Q 15.328125 -12.40625 12.84375 -16.15625 
Q 9.671875 -21.046875 2.296875 -21.046875 
Q -1.265625 -21.046875 -4.59375 -20.125 
z
" id="ArialMT-106"/>
    </defs>
    <g style="fill:#262626;" transform="translate(475.029744 15.943125)scale(0.12 -0.12)">
     <use xlink:href="#ArialMT-81"/>
     <use x="77.783203" xlink:href="#ArialMT-117"/>
     <use x="133.398438" xlink:href="#ArialMT-97"/>
     <use x="189.013672" xlink:href="#ArialMT-110"/>
     <use x="244.628906" xlink:href="#ArialMT-116"/>
     <use x="272.412109" xlink:href="#ArialMT-105"/>
     <use x="294.628906" xlink:href="#ArialMT-108"/>
     <use x="316.845703" xlink:href="#ArialMT-101"/>
     <use x="372.460938" xlink:href="#ArialMT-32"/>
     <use x="400.244141" xlink:href="#ArialMT-80"/>
     <use x="466.943359" xlink:href="#ArialMT-108"/>
     <use x="489.160156" xlink:href="#ArialMT-111"/>
     <use x="544.775391" xlink:href="#ArialMT-116"/>
     <use x="572.558594" xlink:href="#ArialMT-32"/>
     <use x="600.341797" xlink:href="#ArialMT-40"/>
     <use x="633.642578" xlink:href="#ArialMT-80"/>
     <use x="700.341797" xlink:href="#ArialMT-101"/>
     <use x="755.957031" xlink:href="#ArialMT-114"/>
     <use x="789.257812" xlink:href="#ArialMT-99"/>
     <use x="839.257812" xlink:href="#ArialMT-101"/>
     <use x="894.873047" xlink:href="#ArialMT-110"/>
     <use x="950.488281" xlink:href="#ArialMT-116"/>
     <use x="978.271484" xlink:href="#ArialMT-97"/>
     <use x="1033.886719" xlink:href="#ArialMT-106"/>
     <use x="1056.103516" xlink:href="#ArialMT-101"/>
     <use x="1111.71875" xlink:href="#ArialMT-32"/>
     <use x="1139.501953" xlink:href="#ArialMT-69"/>
     <use x="1206.201172" xlink:href="#ArialMT-114"/>
     <use x="1239.501953" xlink:href="#ArialMT-114"/>
     <use x="1272.802734" xlink:href="#ArialMT-111"/>
     <use x="1328.417969" xlink:href="#ArialMT-114"/>
     <use x="1361.71875" xlink:href="#ArialMT-115"/>
     <use x="1411.71875" xlink:href="#ArialMT-41"/>
    </g>
   </g>
   <g id="legend_2">
    <g id="patch_13">
     <path d="M 416.544176 58.23375 
L 467.995739 58.23375 
Q 469.995739 58.23375 469.995739 56.23375 
L 469.995739 28.943125 
Q 469.995739 26.943125 467.995739 26.943125 
L 416.544176 26.943125 
Q 414.544176 26.943125 414.544176 28.943125 
L 414.544176 56.23375 
Q 414.544176 58.23375 416.544176 58.23375 
z
" style="fill:#e6e6e6;opacity:0.8;stroke:#cccccc;stroke-linejoin:miter;"/>
    </g>
    <g id="line2d_35">
     <path d="M 418.544176 34.600937 
L 438.544176 34.600937 
" style="fill:none;stroke:#55a868;stroke-linecap:round;stroke-width:1.5;"/>
    </g>
    <g id="line2d_36"/>
    <g id="text_35">
     <!-- train -->
     <g style="fill:#262626;" transform="translate(446.544176 38.100937)scale(0.1 -0.1)">
      <use xlink:href="#ArialMT-116"/>
      <use x="27.783203" xlink:href="#ArialMT-114"/>
      <use x="61.083984" xlink:href="#ArialMT-97"/>
      <use x="116.699219" xlink:href="#ArialMT-105"/>
      <use x="138.916016" xlink:href="#ArialMT-110"/>
     </g>
    </g>
    <g id="line2d_37">
     <path d="M 418.544176 48.74625 
L 438.544176 48.74625 
" style="fill:none;stroke:#c44e52;stroke-linecap:round;stroke-width:1.5;"/>
    </g>
    <g id="line2d_38"/>
    <g id="text_36">
     <!-- tetst -->
     <g style="fill:#262626;" transform="translate(446.544176 52.24625)scale(0.1 -0.1)">
      <use xlink:href="#ArialMT-116"/>
      <use x="27.783203" xlink:href="#ArialMT-101"/>
      <use x="83.398438" xlink:href="#ArialMT-116"/>
      <use x="111.181641" xlink:href="#ArialMT-115"/>
      <use x="161.181641" xlink:href="#ArialMT-116"/>
     </g>
    </g>
   </g>
  </g>
 </g>
 <defs>
  <clipPath id="p3d9bc2d8e0">
   <rect height="326.16" width="304.363636" x="44.307813" y="21.943125"/>
  </clipPath>
  <clipPath id="p07b095a5e7">
   <rect height="326.16" width="304.363636" x="409.544176" y="21.943125"/>
  </clipPath>
 </defs>
</svg>
