<?xml version="1.0" encoding="utf-8" standalone="no"?>
<!DOCTYPE svg PUBLIC "-//W3C//DTD SVG 1.1//EN"
  "http://www.w3.org/Graphics/SVG/1.1/DTD/svg11.dtd">
<!-- Created with matplotlib (https://matplotlib.org/) -->
<svg height="395.770625pt" version="1.1" viewBox="0 0 721.107812 395.770625" width="721.107812pt" xmlns="http://www.w3.org/2000/svg" xmlns:xlink="http://www.w3.org/1999/xlink">
 <defs>
  <style type="text/css">
*{stroke-linecap:butt;stroke-linejoin:round;}
  </style>
 </defs>
 <g id="figure_1">
  <g id="patch_1">
   <path d="M 0 395.770625 
L 721.107812 395.770625 
L 721.107812 0 
L 0 0 
z
" style="fill:none;"/>
  </g>
  <g id="axes_1">
   <g id="patch_2">
    <path d="M 44.307813 359.28 
L 348.671449 359.28 
L 348.671449 33.12 
L 44.307813 33.12 
z
" style="fill:#e6e6e6;"/>
   </g>
   <g id="matplotlib.axis_1">
    <g id="xtick_1">
     <g id="text_1">
      <!-- train -->
      <defs>
       <path d="M 25.78125 7.859375 
L 27.046875 0.09375 
Q 23.34375 -0.6875 20.40625 -0.6875 
Q 15.625 -0.6875 12.984375 0.828125 
Q 10.359375 2.34375 9.28125 4.8125 
Q 8.203125 7.28125 8.203125 15.1875 
L 8.203125 45.015625 
L 1.765625 45.015625 
L 1.765625 51.859375 
L 8.203125 51.859375 
L 8.203125 64.703125 
L 16.9375 69.96875 
L 16.9375 51.859375 
L 25.78125 51.859375 
L 25.78125 45.015625 
L 16.9375 45.015625 
L 16.9375 14.703125 
Q 16.9375 10.9375 17.40625 9.859375 
Q 17.875 8.796875 18.921875 8.15625 
Q 19.96875 7.515625 21.921875 7.515625 
Q 23.390625 7.515625 25.78125 7.859375 
z
" id="ArialMT-116"/>
       <path d="M 6.5 0 
L 6.5 51.859375 
L 14.40625 51.859375 
L 14.40625 44 
Q 17.4375 49.515625 20 51.265625 
Q 22.5625 53.03125 25.640625 53.03125 
Q 30.078125 53.03125 34.671875 50.203125 
L 31.640625 42.046875 
Q 28.421875 43.953125 25.203125 43.953125 
Q 22.3125 43.953125 20.015625 42.21875 
Q 17.71875 40.484375 16.75 37.40625 
Q 15.28125 32.71875 15.28125 27.15625 
L 15.28125 0 
z
" id="ArialMT-114"/>
       <path d="M 40.4375 6.390625 
Q 35.546875 2.25 31.03125 0.53125 
Q 26.515625 -1.171875 21.34375 -1.171875 
Q 12.796875 -1.171875 8.203125 3 
Q 3.609375 7.171875 3.609375 13.671875 
Q 3.609375 17.484375 5.34375 20.625 
Q 7.078125 23.78125 9.890625 25.6875 
Q 12.703125 27.59375 16.21875 28.5625 
Q 18.796875 29.25 24.03125 29.890625 
Q 34.671875 31.15625 39.703125 32.90625 
Q 39.75 34.71875 39.75 35.203125 
Q 39.75 40.578125 37.25 42.78125 
Q 33.890625 45.75 27.25 45.75 
Q 21.046875 45.75 18.09375 43.578125 
Q 15.140625 41.40625 13.71875 35.890625 
L 5.125 37.0625 
Q 6.296875 42.578125 8.984375 45.96875 
Q 11.671875 49.359375 16.75 51.1875 
Q 21.828125 53.03125 28.515625 53.03125 
Q 35.15625 53.03125 39.296875 51.46875 
Q 43.453125 49.90625 45.40625 47.53125 
Q 47.359375 45.171875 48.140625 41.546875 
Q 48.578125 39.3125 48.578125 33.453125 
L 48.578125 21.734375 
Q 48.578125 9.46875 49.140625 6.21875 
Q 49.703125 2.984375 51.375 0 
L 42.1875 0 
Q 40.828125 2.734375 40.4375 6.390625 
z
M 39.703125 26.03125 
Q 34.90625 24.078125 25.34375 22.703125 
Q 19.921875 21.921875 17.671875 20.9375 
Q 15.4375 19.96875 14.203125 18.09375 
Q 12.984375 16.21875 12.984375 13.921875 
Q 12.984375 10.40625 15.640625 8.0625 
Q 18.3125 5.71875 23.4375 5.71875 
Q 28.515625 5.71875 32.46875 7.9375 
Q 36.421875 10.15625 38.28125 14.015625 
Q 39.703125 17 39.703125 22.796875 
z
" id="ArialMT-97"/>
       <path d="M 6.640625 61.46875 
L 6.640625 71.578125 
L 15.4375 71.578125 
L 15.4375 61.46875 
z
M 6.640625 0 
L 6.640625 51.859375 
L 15.4375 51.859375 
L 15.4375 0 
z
" id="ArialMT-105"/>
       <path d="M 6.59375 0 
L 6.59375 51.859375 
L 14.5 51.859375 
L 14.5 44.484375 
Q 20.21875 53.03125 31 53.03125 
Q 35.6875 53.03125 39.625 51.34375 
Q 43.5625 49.65625 45.515625 46.921875 
Q 47.46875 44.1875 48.25 40.4375 
Q 48.734375 37.984375 48.734375 31.890625 
L 48.734375 0 
L 39.9375 0 
L 39.9375 31.546875 
Q 39.9375 36.921875 38.90625 39.578125 
Q 37.890625 42.234375 35.28125 43.8125 
Q 32.671875 45.40625 29.15625 45.40625 
Q 23.53125 45.40625 19.453125 41.84375 
Q 15.375 38.28125 15.375 28.328125 
L 15.375 0 
z
" id="ArialMT-110"/>
      </defs>
      <g style="fill:#262626;" transform="translate(110.67294 373.437813)scale(0.1 -0.1)">
       <use xlink:href="#ArialMT-116"/>
       <use x="27.783203" xlink:href="#ArialMT-114"/>
       <use x="61.083984" xlink:href="#ArialMT-97"/>
       <use x="116.699219" xlink:href="#ArialMT-105"/>
       <use x="138.916016" xlink:href="#ArialMT-110"/>
      </g>
     </g>
    </g>
    <g id="xtick_2">
     <g id="text_2">
      <!-- test -->
      <defs>
       <path d="M 42.09375 16.703125 
L 51.171875 15.578125 
Q 49.03125 7.625 43.21875 3.21875 
Q 37.40625 -1.171875 28.375 -1.171875 
Q 17 -1.171875 10.328125 5.828125 
Q 3.65625 12.84375 3.65625 25.484375 
Q 3.65625 38.578125 10.390625 45.796875 
Q 17.140625 53.03125 27.875 53.03125 
Q 38.28125 53.03125 44.875 45.953125 
Q 51.46875 38.875 51.46875 26.03125 
Q 51.46875 25.25 51.421875 23.6875 
L 12.75 23.6875 
Q 13.234375 15.140625 17.578125 10.59375 
Q 21.921875 6.0625 28.421875 6.0625 
Q 33.25 6.0625 36.671875 8.59375 
Q 40.09375 11.140625 42.09375 16.703125 
z
M 13.234375 30.90625 
L 42.1875 30.90625 
Q 41.609375 37.453125 38.875 40.71875 
Q 34.671875 45.796875 27.984375 45.796875 
Q 21.921875 45.796875 17.796875 41.75 
Q 13.671875 37.703125 13.234375 30.90625 
z
" id="ArialMT-101"/>
       <path d="M 3.078125 15.484375 
L 11.765625 16.84375 
Q 12.5 11.625 15.84375 8.84375 
Q 19.1875 6.0625 25.203125 6.0625 
Q 31.25 6.0625 34.171875 8.515625 
Q 37.109375 10.984375 37.109375 14.3125 
Q 37.109375 17.28125 34.515625 19 
Q 32.71875 20.171875 25.53125 21.96875 
Q 15.875 24.421875 12.140625 26.203125 
Q 8.40625 27.984375 6.46875 31.125 
Q 4.546875 34.28125 4.546875 38.09375 
Q 4.546875 41.546875 6.125 44.5 
Q 7.71875 47.46875 10.453125 49.421875 
Q 12.5 50.921875 16.03125 51.96875 
Q 19.578125 53.03125 23.640625 53.03125 
Q 29.734375 53.03125 34.34375 51.265625 
Q 38.96875 49.515625 41.15625 46.5 
Q 43.359375 43.5 44.1875 38.484375 
L 35.59375 37.3125 
Q 35.015625 41.3125 32.203125 43.546875 
Q 29.390625 45.796875 24.265625 45.796875 
Q 18.21875 45.796875 15.625 43.796875 
Q 13.03125 41.796875 13.03125 39.109375 
Q 13.03125 37.40625 14.109375 36.03125 
Q 15.1875 34.625 17.484375 33.6875 
Q 18.796875 33.203125 25.25 31.453125 
Q 34.578125 28.953125 38.25 27.359375 
Q 41.9375 25.78125 44.03125 22.75 
Q 46.140625 19.734375 46.140625 15.234375 
Q 46.140625 10.84375 43.578125 6.953125 
Q 41.015625 3.078125 36.171875 0.953125 
Q 31.34375 -1.171875 25.25 -1.171875 
Q 15.140625 -1.171875 9.84375 3.03125 
Q 4.546875 7.234375 3.078125 15.484375 
z
" id="ArialMT-115"/>
      </defs>
      <g style="fill:#262626;" transform="translate(264.521946 373.437813)scale(0.1 -0.1)">
       <use xlink:href="#ArialMT-116"/>
       <use x="27.783203" xlink:href="#ArialMT-101"/>
       <use x="83.398438" xlink:href="#ArialMT-115"/>
       <use x="133.398438" xlink:href="#ArialMT-116"/>
      </g>
     </g>
    </g>
    <g id="text_3">
     <!-- tag -->
     <defs>
      <path d="M 4.984375 -4.296875 
L 13.53125 -5.5625 
Q 14.0625 -9.515625 16.5 -11.328125 
Q 19.78125 -13.765625 25.4375 -13.765625 
Q 31.546875 -13.765625 34.859375 -11.328125 
Q 38.1875 -8.890625 39.359375 -4.5 
Q 40.046875 -1.8125 39.984375 6.78125 
Q 34.234375 0 25.640625 0 
Q 14.9375 0 9.078125 7.71875 
Q 3.21875 15.4375 3.21875 26.21875 
Q 3.21875 33.640625 5.90625 39.90625 
Q 8.59375 46.1875 13.6875 49.609375 
Q 18.796875 53.03125 25.6875 53.03125 
Q 34.859375 53.03125 40.828125 45.609375 
L 40.828125 51.859375 
L 48.921875 51.859375 
L 48.921875 7.03125 
Q 48.921875 -5.078125 46.453125 -10.125 
Q 44 -15.1875 38.640625 -18.109375 
Q 33.296875 -21.046875 25.484375 -21.046875 
Q 16.21875 -21.046875 10.5 -16.875 
Q 4.78125 -12.703125 4.984375 -4.296875 
z
M 12.25 26.859375 
Q 12.25 16.65625 16.296875 11.96875 
Q 20.359375 7.28125 26.46875 7.28125 
Q 32.515625 7.28125 36.609375 11.9375 
Q 40.71875 16.609375 40.71875 26.5625 
Q 40.71875 36.078125 36.5 40.90625 
Q 32.28125 45.75 26.3125 45.75 
Q 20.453125 45.75 16.34375 40.984375 
Q 12.25 36.234375 12.25 26.859375 
z
" id="ArialMT-103"/>
     </defs>
     <g style="fill:#262626;" transform="translate(189.539631 386.465937)scale(0.1 -0.1)">
      <use xlink:href="#ArialMT-116"/>
      <use x="27.783203" xlink:href="#ArialMT-97"/>
      <use x="83.398438" xlink:href="#ArialMT-103"/>
     </g>
    </g>
   </g>
   <g id="matplotlib.axis_2">
    <g id="ytick_1">
     <g id="line2d_1">
      <path clip-path="url(#pc0a5ddd307)" d="M 44.307813 328.242152 
L 348.671449 328.242152 
" style="fill:none;stroke:#cccccc;stroke-linecap:round;stroke-width:0.8;"/>
     </g>
     <g id="text_4">
      <!-- −15 -->
      <defs>
       <path d="M 52.828125 31.203125 
L 5.5625 31.203125 
L 5.5625 39.40625 
L 52.828125 39.40625 
z
" id="ArialMT-8722"/>
       <path d="M 37.25 0 
L 28.46875 0 
L 28.46875 56 
Q 25.296875 52.984375 20.140625 49.953125 
Q 14.984375 46.921875 10.890625 45.40625 
L 10.890625 53.90625 
Q 18.265625 57.375 23.78125 62.296875 
Q 29.296875 67.234375 31.59375 71.875 
L 37.25 71.875 
z
" id="ArialMT-49"/>
       <path d="M 4.15625 18.75 
L 13.375 19.53125 
Q 14.40625 12.796875 18.140625 9.390625 
Q 21.875 6 27.15625 6 
Q 33.5 6 37.890625 10.78125 
Q 42.28125 15.578125 42.28125 23.484375 
Q 42.28125 31 38.0625 35.34375 
Q 33.84375 39.703125 27 39.703125 
Q 22.75 39.703125 19.328125 37.765625 
Q 15.921875 35.84375 13.96875 32.765625 
L 5.71875 33.84375 
L 12.640625 70.609375 
L 48.25 70.609375 
L 48.25 62.203125 
L 19.671875 62.203125 
L 15.828125 42.96875 
Q 22.265625 47.46875 29.34375 47.46875 
Q 38.71875 47.46875 45.15625 40.96875 
Q 51.609375 34.46875 51.609375 24.265625 
Q 51.609375 14.546875 45.953125 7.46875 
Q 39.0625 -1.21875 27.15625 -1.21875 
Q 17.390625 -1.21875 11.203125 4.25 
Q 5.03125 9.71875 4.15625 18.75 
z
" id="ArialMT-53"/>
      </defs>
      <g style="fill:#262626;" transform="translate(20.345313 331.821058)scale(0.1 -0.1)">
       <use xlink:href="#ArialMT-8722"/>
       <use x="58.398438" xlink:href="#ArialMT-49"/>
       <use x="114.013672" xlink:href="#ArialMT-53"/>
      </g>
     </g>
    </g>
    <g id="ytick_2">
     <g id="line2d_2">
      <path clip-path="url(#pc0a5ddd307)" d="M 44.307813 288.269866 
L 348.671449 288.269866 
" style="fill:none;stroke:#cccccc;stroke-linecap:round;stroke-width:0.8;"/>
     </g>
     <g id="text_5">
      <!-- −10 -->
      <defs>
       <path d="M 4.15625 35.296875 
Q 4.15625 48 6.765625 55.734375 
Q 9.375 63.484375 14.515625 67.671875 
Q 19.671875 71.875 27.484375 71.875 
Q 33.25 71.875 37.59375 69.546875 
Q 41.9375 67.234375 44.765625 62.859375 
Q 47.609375 58.5 49.21875 52.21875 
Q 50.828125 45.953125 50.828125 35.296875 
Q 50.828125 22.703125 48.234375 14.96875 
Q 45.65625 7.234375 40.5 3 
Q 35.359375 -1.21875 27.484375 -1.21875 
Q 17.140625 -1.21875 11.234375 6.203125 
Q 4.15625 15.140625 4.15625 35.296875 
z
M 13.1875 35.296875 
Q 13.1875 17.671875 17.3125 11.828125 
Q 21.4375 6 27.484375 6 
Q 33.546875 6 37.671875 11.859375 
Q 41.796875 17.71875 41.796875 35.296875 
Q 41.796875 52.984375 37.671875 58.78125 
Q 33.546875 64.59375 27.390625 64.59375 
Q 21.34375 64.59375 17.71875 59.46875 
Q 13.1875 52.9375 13.1875 35.296875 
z
" id="ArialMT-48"/>
      </defs>
      <g style="fill:#262626;" transform="translate(20.345313 291.848773)scale(0.1 -0.1)">
       <use xlink:href="#ArialMT-8722"/>
       <use x="58.398438" xlink:href="#ArialMT-49"/>
       <use x="114.013672" xlink:href="#ArialMT-48"/>
      </g>
     </g>
    </g>
    <g id="ytick_3">
     <g id="line2d_3">
      <path clip-path="url(#pc0a5ddd307)" d="M 44.307813 248.297581 
L 348.671449 248.297581 
" style="fill:none;stroke:#cccccc;stroke-linecap:round;stroke-width:0.8;"/>
     </g>
     <g id="text_6">
      <!-- −5 -->
      <g style="fill:#262626;" transform="translate(25.90625 251.876487)scale(0.1 -0.1)">
       <use xlink:href="#ArialMT-8722"/>
       <use x="58.398438" xlink:href="#ArialMT-53"/>
      </g>
     </g>
    </g>
    <g id="ytick_4">
     <g id="line2d_4">
      <path clip-path="url(#pc0a5ddd307)" d="M 44.307813 208.325295 
L 348.671449 208.325295 
" style="fill:none;stroke:#cccccc;stroke-linecap:round;stroke-width:0.8;"/>
     </g>
     <g id="text_7">
      <!-- 0 -->
      <g style="fill:#262626;" transform="translate(31.746875 211.904201)scale(0.1 -0.1)">
       <use xlink:href="#ArialMT-48"/>
      </g>
     </g>
    </g>
    <g id="ytick_5">
     <g id="line2d_5">
      <path clip-path="url(#pc0a5ddd307)" d="M 44.307813 168.35301 
L 348.671449 168.35301 
" style="fill:none;stroke:#cccccc;stroke-linecap:round;stroke-width:0.8;"/>
     </g>
     <g id="text_8">
      <!-- 5 -->
      <g style="fill:#262626;" transform="translate(31.746875 171.931916)scale(0.1 -0.1)">
       <use xlink:href="#ArialMT-53"/>
      </g>
     </g>
    </g>
    <g id="ytick_6">
     <g id="line2d_6">
      <path clip-path="url(#pc0a5ddd307)" d="M 44.307813 128.380724 
L 348.671449 128.380724 
" style="fill:none;stroke:#cccccc;stroke-linecap:round;stroke-width:0.8;"/>
     </g>
     <g id="text_9">
      <!-- 10 -->
      <g style="fill:#262626;" transform="translate(26.185938 131.95963)scale(0.1 -0.1)">
       <use xlink:href="#ArialMT-49"/>
       <use x="55.615234" xlink:href="#ArialMT-48"/>
      </g>
     </g>
    </g>
    <g id="ytick_7">
     <g id="line2d_7">
      <path clip-path="url(#pc0a5ddd307)" d="M 44.307813 88.408438 
L 348.671449 88.408438 
" style="fill:none;stroke:#cccccc;stroke-linecap:round;stroke-width:0.8;"/>
     </g>
     <g id="text_10">
      <!-- 15 -->
      <g style="fill:#262626;" transform="translate(26.185938 91.987345)scale(0.1 -0.1)">
       <use xlink:href="#ArialMT-49"/>
       <use x="55.615234" xlink:href="#ArialMT-53"/>
      </g>
     </g>
    </g>
    <g id="ytick_8">
     <g id="line2d_8">
      <path clip-path="url(#pc0a5ddd307)" d="M 44.307813 48.436153 
L 348.671449 48.436153 
" style="fill:none;stroke:#cccccc;stroke-linecap:round;stroke-width:0.8;"/>
     </g>
     <g id="text_11">
      <!-- 20 -->
      <defs>
       <path d="M 50.34375 8.453125 
L 50.34375 0 
L 3.03125 0 
Q 2.9375 3.171875 4.046875 6.109375 
Q 5.859375 10.9375 9.828125 15.625 
Q 13.8125 20.3125 21.34375 26.46875 
Q 33.015625 36.03125 37.109375 41.625 
Q 41.21875 47.21875 41.21875 52.203125 
Q 41.21875 57.421875 37.46875 61 
Q 33.734375 64.59375 27.734375 64.59375 
Q 21.390625 64.59375 17.578125 60.78125 
Q 13.765625 56.984375 13.71875 50.25 
L 4.6875 51.171875 
Q 5.609375 61.28125 11.65625 66.578125 
Q 17.71875 71.875 27.9375 71.875 
Q 38.234375 71.875 44.234375 66.15625 
Q 50.25 60.453125 50.25 52 
Q 50.25 47.703125 48.484375 43.546875 
Q 46.734375 39.40625 42.65625 34.8125 
Q 38.578125 30.21875 29.109375 22.21875 
Q 21.1875 15.578125 18.9375 13.203125 
Q 16.703125 10.84375 15.234375 8.453125 
z
" id="ArialMT-50"/>
      </defs>
      <g style="fill:#262626;" transform="translate(26.185938 52.015059)scale(0.1 -0.1)">
       <use xlink:href="#ArialMT-50"/>
       <use x="55.615234" xlink:href="#ArialMT-48"/>
      </g>
     </g>
    </g>
    <g id="text_12">
     <!-- error -->
     <defs>
      <path d="M 3.328125 25.921875 
Q 3.328125 40.328125 11.328125 47.265625 
Q 18.015625 53.03125 27.640625 53.03125 
Q 38.328125 53.03125 45.109375 46.015625 
Q 51.90625 39.015625 51.90625 26.65625 
Q 51.90625 16.65625 48.90625 10.90625 
Q 45.90625 5.171875 40.15625 2 
Q 34.421875 -1.171875 27.640625 -1.171875 
Q 16.75 -1.171875 10.03125 5.8125 
Q 3.328125 12.796875 3.328125 25.921875 
z
M 12.359375 25.921875 
Q 12.359375 15.96875 16.703125 11.015625 
Q 21.046875 6.0625 27.640625 6.0625 
Q 34.1875 6.0625 38.53125 11.03125 
Q 42.875 16.015625 42.875 26.21875 
Q 42.875 35.84375 38.5 40.796875 
Q 34.125 45.75 27.640625 45.75 
Q 21.046875 45.75 16.703125 40.8125 
Q 12.359375 35.890625 12.359375 25.921875 
z
" id="ArialMT-111"/>
     </defs>
     <g style="fill:#262626;" transform="translate(14.357813 206.755469)rotate(-90)scale(0.1 -0.1)">
      <use xlink:href="#ArialMT-101"/>
      <use x="55.615234" xlink:href="#ArialMT-114"/>
      <use x="88.916016" xlink:href="#ArialMT-114"/>
      <use x="122.216797" xlink:href="#ArialMT-111"/>
      <use x="177.832031" xlink:href="#ArialMT-114"/>
     </g>
    </g>
   </g>
   <g id="PolyCollection_1">
    <defs>
     <path d="M 90.130498 -74.469873 
L 89.794218 -74.469873 
L 89.713526 -77.231038 
L 89.60298 -79.992203 
L 89.455373 -82.753367 
L 89.263059 -85.514532 
L 89.018274 -88.275696 
L 88.713471 -91.036861 
L 88.34165 -93.798026 
L 87.896623 -96.55919 
L 87.373218 -99.320355 
L 86.767397 -102.08152 
L 86.07631 -104.842684 
L 85.29829 -107.603849 
L 84.432813 -110.365013 
L 83.480426 -113.126178 
L 82.442635 -115.887343 
L 81.321789 -118.648507 
L 80.120961 -121.409672 
L 78.843912 -124.170836 
L 77.495219 -126.932001 
L 76.080667 -129.693166 
L 74.60797 -132.45433 
L 73.087797 -135.215495 
L 71.534929 -137.97666 
L 69.969274 -140.737824 
L 68.416344 -143.498989 
L 66.906815 -146.260153 
L 65.474937 -149.021318 
L 64.155776 -151.782483 
L 62.981611 -154.543647 
L 61.978023 -157.304812 
L 61.160446 -160.065977 
L 60.531846 -162.827141 
L 60.082095 -165.588306 
L 59.789214 -168.34947 
L 59.622383 -171.110635 
L 59.546258 -173.8718 
L 59.525994 -176.632964 
L 59.532241 -179.394129 
L 59.54546 -182.155293 
L 59.558945 -184.916458 
L 59.580088 -187.677623 
L 59.62958 -190.438787 
L 59.738483 -193.199952 
L 59.943402 -195.961117 
L 60.280349 -198.722281 
L 60.778235 -201.483446 
L 61.453158 -204.24461 
L 62.30463 -207.005775 
L 63.314646 -209.76694 
L 64.44994 -212.528104 
L 65.667098 -215.289269 
L 66.919557 -218.050433 
L 68.165068 -220.811598 
L 69.37209 -223.572763 
L 70.52386 -226.333927 
L 71.61942 -229.095092 
L 72.67156 -231.856257 
L 73.702304 -234.617421 
L 74.737003 -237.378586 
L 75.798255 -240.13975 
L 76.900808 -242.900915 
L 78.048243 -245.66208 
L 79.231847 -248.423244 
L 80.43166 -251.184409 
L 81.619285 -253.945573 
L 82.76188 -256.706738 
L 83.826584 -259.467903 
L 84.784699 -262.229067 
L 85.615016 -264.990232 
L 86.305905 -267.751397 
L 86.855978 -270.512561 
L 87.27339 -273.273726 
L 87.573999 -276.03489 
L 87.778799 -278.796055 
L 87.911049 -281.55722 
L 87.993564 -284.318384 
L 88.046517 -287.079549 
L 88.086001 -289.840714 
L 88.123439 -292.601878 
L 88.165778 -295.363043 
L 88.216294 -298.124207 
L 88.275734 -300.885372 
L 88.343522 -303.646537 
L 88.418759 -306.407701 
L 88.500859 -309.168866 
L 88.589754 -311.93003 
L 88.685717 -314.691195 
L 88.788948 -317.45236 
L 88.899108 -320.213524 
L 89.014964 -322.974689 
L 89.134267 -325.735854 
L 89.253908 -328.497018 
L 89.370281 -331.258183 
L 89.479779 -334.019347 
L 89.579278 -336.780512 
L 89.666515 -339.541677 
L 89.74028 -342.302841 
L 89.800432 -345.064006 
L 89.847738 -347.82517 
L 90.076978 -347.82517 
L 90.076978 -347.82517 
L 90.124284 -345.064006 
L 90.184435 -342.302841 
L 90.258201 -339.541677 
L 90.345438 -336.780512 
L 90.444937 -334.019347 
L 90.554435 -331.258183 
L 90.670808 -328.497018 
L 90.790449 -325.735854 
L 90.909752 -322.974689 
L 91.025608 -320.213524 
L 91.135768 -317.45236 
L 91.238999 -314.691195 
L 91.334962 -311.93003 
L 91.423856 -309.168866 
L 91.505957 -306.407701 
L 91.581193 -303.646537 
L 91.648981 -300.885372 
L 91.708422 -298.124207 
L 91.758937 -295.363043 
L 91.801277 -292.601878 
L 91.838714 -289.840714 
L 91.878199 -287.079549 
L 91.931152 -284.318384 
L 92.013666 -281.55722 
L 92.145917 -278.796055 
L 92.350717 -276.03489 
L 92.651326 -273.273726 
L 93.068738 -270.512561 
L 93.618811 -267.751397 
L 94.3097 -264.990232 
L 95.140017 -262.229067 
L 96.098132 -259.467903 
L 97.162836 -256.706738 
L 98.30543 -253.945573 
L 99.493056 -251.184409 
L 100.692869 -248.423244 
L 101.876473 -245.66208 
L 103.023907 -242.900915 
L 104.12646 -240.13975 
L 105.187713 -237.378586 
L 106.222412 -234.617421 
L 107.253156 -231.856257 
L 108.305296 -229.095092 
L 109.400856 -226.333927 
L 110.552626 -223.572763 
L 111.759648 -220.811598 
L 113.005159 -218.050433 
L 114.257618 -215.289269 
L 115.474776 -212.528104 
L 116.61007 -209.76694 
L 117.620086 -207.005775 
L 118.471558 -204.24461 
L 119.146481 -201.483446 
L 119.644367 -198.722281 
L 119.981313 -195.961117 
L 120.186232 -193.199952 
L 120.295136 -190.438787 
L 120.344628 -187.677623 
L 120.365771 -184.916458 
L 120.379256 -182.155293 
L 120.392475 -179.394129 
L 120.398722 -176.632964 
L 120.378457 -173.8718 
L 120.302333 -171.110635 
L 120.135502 -168.34947 
L 119.842621 -165.588306 
L 119.39287 -162.827141 
L 118.76427 -160.065977 
L 117.946693 -157.304812 
L 116.943105 -154.543647 
L 115.768939 -151.782483 
L 114.449779 -149.021318 
L 113.017901 -146.260153 
L 111.508372 -143.498989 
L 109.955442 -140.737824 
L 108.389787 -137.97666 
L 106.836919 -135.215495 
L 105.316745 -132.45433 
L 103.844049 -129.693166 
L 102.429497 -126.932001 
L 101.080804 -124.170836 
L 99.803755 -121.409672 
L 98.602927 -118.648507 
L 97.482081 -115.887343 
L 96.44429 -113.126178 
L 95.491903 -110.365013 
L 94.626426 -107.603849 
L 93.848406 -104.842684 
L 93.157319 -102.08152 
L 92.551498 -99.320355 
L 92.028093 -96.55919 
L 91.583066 -93.798026 
L 91.211245 -91.036861 
L 90.906442 -88.275696 
L 90.661657 -85.514532 
L 90.469343 -82.753367 
L 90.321736 -79.992203 
L 90.21119 -77.231038 
L 90.130498 -74.469873 
z
" id="m9b6be0b1fd" style="stroke:#4c4c4c;stroke-width:1.5;"/>
    </defs>
    <g clip-path="url(#pc0a5ddd307)">
     <use style="fill:#5875a4;stroke:#4c4c4c;stroke-width:1.5;" x="0" xlink:href="#m9b6be0b1fd" y="395.770625"/>
    </g>
   </g>
   <g id="PolyCollection_2">
    <defs>
     <path d="M 303.300736 -51.31608 
L 302.733071 -51.31608 
L 302.637851 -53.749397 
L 302.518671 -56.182715 
L 302.37218 -58.616033 
L 302.195326 -61.049351 
L 301.985574 -63.482669 
L 301.741121 -65.915987 
L 301.461084 -68.349305 
L 301.145628 -70.782623 
L 300.796022 -73.215941 
L 300.414611 -75.649259 
L 300.004688 -78.082577 
L 299.570271 -80.515895 
L 299.115821 -82.949213 
L 298.645896 -85.382531 
L 298.164803 -87.815848 
L 297.67626 -90.249166 
L 297.18312 -92.682484 
L 296.687173 -95.115802 
L 296.189065 -97.54912 
L 295.688321 -99.982438 
L 295.183497 -102.415756 
L 294.67243 -104.849074 
L 294.152577 -107.282392 
L 293.621382 -109.71571 
L 293.076665 -112.149028 
L 292.516948 -114.582346 
L 291.941693 -117.015664 
L 291.351415 -119.448981 
L 290.747626 -121.882299 
L 290.132626 -124.315617 
L 289.509153 -126.748935 
L 288.879929 -129.182253 
L 288.247187 -131.615571 
L 287.612231 -134.048889 
L 286.975135 -136.482207 
L 286.334613 -138.915525 
L 285.688131 -141.348843 
L 285.032227 -143.782161 
L 284.363037 -146.215479 
L 283.676933 -148.648797 
L 282.971187 -151.082115 
L 282.244566 -153.515432 
L 281.497765 -155.94875 
L 280.733623 -158.382068 
L 279.957092 -160.815386 
L 279.174986 -163.248704 
L 278.395564 -165.682022 
L 277.628021 -168.11534 
L 276.881989 -170.548658 
L 276.167107 -172.981976 
L 275.492739 -175.415294 
L 274.867839 -177.848612 
L 274.300969 -180.28193 
L 273.800421 -182.715248 
L 273.374376 -185.148565 
L 273.031051 -187.581883 
L 272.778759 -190.015201 
L 272.625855 -192.448519 
L 272.58054 -194.881837 
L 272.650534 -197.315155 
L 272.842659 -199.748473 
L 273.162355 -202.181791 
L 273.613197 -204.615109 
L 274.196456 -207.048427 
L 274.910756 -209.481745 
L 275.751846 -211.915063 
L 276.712529 -214.348381 
L 277.782742 -216.781699 
L 278.949792 -219.215016 
L 280.198731 -221.648334 
L 281.512848 -224.081652 
L 282.874253 -226.51497 
L 284.26451 -228.948288 
L 285.66529 -231.381606 
L 287.058994 -233.814924 
L 288.429322 -236.248242 
L 289.761734 -238.68156 
L 291.043807 -241.114878 
L 292.26544 -243.548196 
L 293.41893 -245.981514 
L 294.498902 -248.414832 
L 295.502137 -250.84815 
L 296.427307 -253.281467 
L 297.274658 -255.714785 
L 298.045674 -258.148103 
L 298.742763 -260.581421 
L 299.368974 -263.014739 
L 299.927778 -265.448057 
L 300.422911 -267.881375 
L 300.858269 -270.314693 
L 301.237859 -272.748011 
L 301.565776 -275.181329 
L 301.846193 -277.614647 
L 302.08335 -280.047965 
L 302.281536 -282.481283 
L 302.445044 -284.9146 
L 302.578114 -287.347918 
L 302.68487 -289.781236 
L 302.769239 -292.214554 
L 303.264567 -292.214554 
L 303.264567 -292.214554 
L 303.348936 -289.781236 
L 303.455692 -287.347918 
L 303.588763 -284.9146 
L 303.75227 -282.481283 
L 303.950456 -280.047965 
L 304.187614 -277.614647 
L 304.468031 -275.181329 
L 304.795948 -272.748011 
L 305.175538 -270.314693 
L 305.610896 -267.881375 
L 306.106029 -265.448057 
L 306.664833 -263.014739 
L 307.291044 -260.581421 
L 307.988133 -258.148103 
L 308.759149 -255.714785 
L 309.6065 -253.281467 
L 310.53167 -250.84815 
L 311.534905 -248.414832 
L 312.614877 -245.981514 
L 313.768366 -243.548196 
L 314.99 -241.114878 
L 316.272073 -238.68156 
L 317.604485 -236.248242 
L 318.974812 -233.814924 
L 320.368517 -231.381606 
L 321.769297 -228.948288 
L 323.159554 -226.51497 
L 324.520959 -224.081652 
L 325.835076 -221.648334 
L 327.084015 -219.215016 
L 328.251065 -216.781699 
L 329.321278 -214.348381 
L 330.281961 -211.915063 
L 331.123051 -209.481745 
L 331.83735 -207.048427 
L 332.42061 -204.615109 
L 332.871452 -202.181791 
L 333.191148 -199.748473 
L 333.383273 -197.315155 
L 333.453267 -194.881837 
L 333.407951 -192.448519 
L 333.255048 -190.015201 
L 333.002756 -187.581883 
L 332.659431 -185.148565 
L 332.233386 -182.715248 
L 331.732837 -180.28193 
L 331.165968 -177.848612 
L 330.541068 -175.415294 
L 329.8667 -172.981976 
L 329.151818 -170.548658 
L 328.405785 -168.11534 
L 327.638243 -165.682022 
L 326.858821 -163.248704 
L 326.076715 -160.815386 
L 325.300184 -158.382068 
L 324.536042 -155.94875 
L 323.789241 -153.515432 
L 323.06262 -151.082115 
L 322.356874 -148.648797 
L 321.67077 -146.215479 
L 321.00158 -143.782161 
L 320.345676 -141.348843 
L 319.699193 -138.915525 
L 319.058672 -136.482207 
L 318.421576 -134.048889 
L 317.78662 -131.615571 
L 317.153878 -129.182253 
L 316.524654 -126.748935 
L 315.90118 -124.315617 
L 315.286181 -121.882299 
L 314.682392 -119.448981 
L 314.092114 -117.015664 
L 313.516859 -114.582346 
L 312.957141 -112.149028 
L 312.412424 -109.71571 
L 311.88123 -107.282392 
L 311.361376 -104.849074 
L 310.85031 -102.415756 
L 310.345486 -99.982438 
L 309.844742 -97.54912 
L 309.346633 -95.115802 
L 308.850687 -92.682484 
L 308.357547 -90.249166 
L 307.869004 -87.815848 
L 307.38791 -85.382531 
L 306.917986 -82.949213 
L 306.463536 -80.515895 
L 306.029119 -78.082577 
L 305.619195 -75.649259 
L 305.237785 -73.215941 
L 304.888179 -70.782623 
L 304.572722 -68.349305 
L 304.292685 -65.915987 
L 304.048233 -63.482669 
L 303.838481 -61.049351 
L 303.661627 -58.616033 
L 303.515136 -56.182715 
L 303.395956 -53.749397 
L 303.300736 -51.31608 
z
" id="mad2be8a51d" style="stroke:#4c4c4c;stroke-width:1.5;"/>
    </defs>
    <g clip-path="url(#pc0a5ddd307)">
     <use style="fill:#cc8963;stroke:#4c4c4c;stroke-width:1.5;" x="0" xlink:href="#mad2be8a51d" y="395.770625"/>
    </g>
   </g>
   <g id="patch_3">
    <path clip-path="url(#pc0a5ddd307)" d="M 120.398722 208.325295 
L 120.398722 208.325295 
L 120.398722 208.325295 
L 120.398722 208.325295 
z
" style="fill:#5875a4;stroke:#4c4c4c;stroke-linejoin:miter;stroke-width:0.75;"/>
   </g>
   <g id="patch_4">
    <path clip-path="url(#pc0a5ddd307)" d="M 120.398722 208.325295 
L 120.398722 208.325295 
L 120.398722 208.325295 
L 120.398722 208.325295 
z
" style="fill:#cc8963;stroke:#4c4c4c;stroke-linejoin:miter;stroke-width:0.75;"/>
   </g>
   <g id="line2d_9">
    <path clip-path="url(#pc0a5ddd307)" d="M 89.962358 290.182258 
L 89.962358 113.258771 
" style="fill:none;stroke:#4c4c4c;stroke-linecap:round;stroke-width:1.5;"/>
   </g>
   <g id="line2d_10">
    <path clip-path="url(#pc0a5ddd307)" d="M 89.962358 237.5286 
L 89.962358 187.240976 
" style="fill:none;stroke:#4c4c4c;stroke-linecap:round;stroke-width:4.5;"/>
   </g>
   <g id="line2d_11">
    <path clip-path="url(#pc0a5ddd307)" d="M 303.016903 308.465854 
L 303.016903 139.544762 
" style="fill:none;stroke:#4c4c4c;stroke-linecap:round;stroke-width:1.5;"/>
   </g>
   <g id="line2d_12">
    <path clip-path="url(#pc0a5ddd307)" d="M 303.016903 242.291569 
L 303.016903 185.043365 
" style="fill:none;stroke:#4c4c4c;stroke-linecap:round;stroke-width:4.5;"/>
   </g>
   <g id="patch_5">
    <path d="M 44.307813 359.28 
L 44.307813 33.12 
" style="fill:none;stroke:#ffffff;stroke-linecap:square;stroke-linejoin:miter;stroke-width:0.8;"/>
   </g>
   <g id="patch_6">
    <path d="M 348.671449 359.28 
L 348.671449 33.12 
" style="fill:none;stroke:#ffffff;stroke-linecap:square;stroke-linejoin:miter;stroke-width:0.8;"/>
   </g>
   <g id="patch_7">
    <path d="M 44.307813 359.28 
L 348.671449 359.28 
" style="fill:none;stroke:#ffffff;stroke-linecap:square;stroke-linejoin:miter;stroke-width:0.8;"/>
   </g>
   <g id="patch_8">
    <path d="M 44.307813 33.12 
L 348.671449 33.12 
" style="fill:none;stroke:#ffffff;stroke-linecap:square;stroke-linejoin:miter;stroke-width:0.8;"/>
   </g>
   <g id="PathCollection_1">
    <defs>
     <path d="M 0 1.5 
C 0.397805 1.5 0.77937 1.341951 1.06066 1.06066 
C 1.341951 0.77937 1.5 0.397805 1.5 0 
C 1.5 -0.397805 1.341951 -0.77937 1.06066 -1.06066 
C 0.77937 -1.341951 0.397805 -1.5 0 -1.5 
C -0.397805 -1.5 -0.77937 -1.341951 -1.06066 -1.06066 
C -1.341951 -0.77937 -1.5 -0.397805 -1.5 0 
C -1.5 0.397805 -1.341951 0.77937 -1.06066 1.06066 
C -0.77937 1.341951 -0.397805 1.5 0 1.5 
z
" id="m31ed11b85c" style="stroke:#4c4c4c;"/>
    </defs>
    <g clip-path="url(#pc0a5ddd307)">
     <use style="fill:#ffffff;stroke:#4c4c4c;" x="89.962358" xlink:href="#m31ed11b85c" y="209.772002"/>
    </g>
   </g>
   <g id="PathCollection_2">
    <g clip-path="url(#pc0a5ddd307)">
     <use style="fill:#ffffff;stroke:#4c4c4c;" x="303.016903" xlink:href="#m31ed11b85c" y="212.654287"/>
    </g>
   </g>
   <g id="text_13">
    <!-- Absolute -->
    <defs>
     <path d="M -0.140625 0 
L 27.34375 71.578125 
L 37.546875 71.578125 
L 66.84375 0 
L 56.0625 0 
L 47.703125 21.6875 
L 17.78125 21.6875 
L 9.90625 0 
z
M 20.515625 29.390625 
L 44.78125 29.390625 
L 37.3125 49.21875 
Q 33.890625 58.25 32.234375 64.0625 
Q 30.859375 57.171875 28.375 50.390625 
z
" id="ArialMT-65"/>
     <path d="M 14.703125 0 
L 6.546875 0 
L 6.546875 71.578125 
L 15.328125 71.578125 
L 15.328125 46.046875 
Q 20.90625 53.03125 29.546875 53.03125 
Q 34.328125 53.03125 38.59375 51.09375 
Q 42.875 49.171875 45.625 45.671875 
Q 48.390625 42.1875 49.953125 37.25 
Q 51.515625 32.328125 51.515625 26.703125 
Q 51.515625 13.375 44.921875 6.09375 
Q 38.328125 -1.171875 29.109375 -1.171875 
Q 19.921875 -1.171875 14.703125 6.5 
z
M 14.59375 26.3125 
Q 14.59375 17 17.140625 12.84375 
Q 21.296875 6.0625 28.375 6.0625 
Q 34.125 6.0625 38.328125 11.0625 
Q 42.53125 16.0625 42.53125 25.984375 
Q 42.53125 36.140625 38.5 40.96875 
Q 34.46875 45.796875 28.765625 45.796875 
Q 23 45.796875 18.796875 40.796875 
Q 14.59375 35.796875 14.59375 26.3125 
z
" id="ArialMT-98"/>
     <path d="M 6.390625 0 
L 6.390625 71.578125 
L 15.1875 71.578125 
L 15.1875 0 
z
" id="ArialMT-108"/>
     <path d="M 40.578125 0 
L 40.578125 7.625 
Q 34.515625 -1.171875 24.125 -1.171875 
Q 19.53125 -1.171875 15.546875 0.578125 
Q 11.578125 2.34375 9.640625 5 
Q 7.71875 7.671875 6.9375 11.53125 
Q 6.390625 14.109375 6.390625 19.734375 
L 6.390625 51.859375 
L 15.1875 51.859375 
L 15.1875 23.09375 
Q 15.1875 16.21875 15.71875 13.8125 
Q 16.546875 10.359375 19.234375 8.375 
Q 21.921875 6.390625 25.875 6.390625 
Q 29.828125 6.390625 33.296875 8.421875 
Q 36.765625 10.453125 38.203125 13.9375 
Q 39.65625 17.4375 39.65625 24.078125 
L 39.65625 51.859375 
L 48.4375 51.859375 
L 48.4375 0 
z
" id="ArialMT-117"/>
    </defs>
    <g style="fill:#262626;" transform="translate(173.141193 27.12)scale(0.12 -0.12)">
     <use xlink:href="#ArialMT-65"/>
     <use x="66.699219" xlink:href="#ArialMT-98"/>
     <use x="122.314453" xlink:href="#ArialMT-115"/>
     <use x="172.314453" xlink:href="#ArialMT-111"/>
     <use x="227.929688" xlink:href="#ArialMT-108"/>
     <use x="250.146484" xlink:href="#ArialMT-117"/>
     <use x="305.761719" xlink:href="#ArialMT-116"/>
     <use x="333.544922" xlink:href="#ArialMT-101"/>
    </g>
   </g>
   <g id="legend_1">
    <g id="patch_9">
     <path d="M 290.219886 83.673125 
L 341.671449 83.673125 
Q 343.671449 83.673125 343.671449 81.673125 
L 343.671449 40.12 
Q 343.671449 38.12 341.671449 38.12 
L 290.219886 38.12 
Q 288.219886 38.12 288.219886 40.12 
L 288.219886 81.673125 
Q 288.219886 83.673125 290.219886 83.673125 
z
" style="fill:#e6e6e6;opacity:0.8;stroke:#cccccc;stroke-linejoin:miter;"/>
    </g>
    <g id="text_14">
     <!-- tag -->
     <g style="fill:#262626;" transform="translate(308.995668 49.277812)scale(0.1 -0.1)">
      <use xlink:href="#ArialMT-116"/>
      <use x="27.783203" xlink:href="#ArialMT-97"/>
      <use x="83.398438" xlink:href="#ArialMT-103"/>
     </g>
    </g>
    <g id="patch_10">
     <path d="M 292.219886 63.540312 
L 312.219886 63.540312 
L 312.219886 56.540312 
L 292.219886 56.540312 
z
" style="fill:#5875a4;stroke:#4c4c4c;stroke-linejoin:miter;stroke-width:0.75;"/>
    </g>
    <g id="text_15">
     <!-- train -->
     <g style="fill:#262626;" transform="translate(320.219886 63.540312)scale(0.1 -0.1)">
      <use xlink:href="#ArialMT-116"/>
      <use x="27.783203" xlink:href="#ArialMT-114"/>
      <use x="61.083984" xlink:href="#ArialMT-97"/>
      <use x="116.699219" xlink:href="#ArialMT-105"/>
      <use x="138.916016" xlink:href="#ArialMT-110"/>
     </g>
    </g>
    <g id="patch_11">
     <path d="M 292.219886 77.685625 
L 312.219886 77.685625 
L 312.219886 70.685625 
L 292.219886 70.685625 
z
" style="fill:#cc8963;stroke:#4c4c4c;stroke-linejoin:miter;stroke-width:0.75;"/>
    </g>
    <g id="text_16">
     <!-- test -->
     <g style="fill:#262626;" transform="translate(320.219886 77.685625)scale(0.1 -0.1)">
      <use xlink:href="#ArialMT-116"/>
      <use x="27.783203" xlink:href="#ArialMT-101"/>
      <use x="83.398438" xlink:href="#ArialMT-115"/>
      <use x="133.398438" xlink:href="#ArialMT-116"/>
     </g>
    </g>
   </g>
  </g>
  <g id="axes_2">
   <g id="patch_12">
    <path d="M 409.544176 359.28 
L 713.907812 359.28 
L 713.907812 33.12 
L 409.544176 33.12 
z
" style="fill:#e6e6e6;"/>
   </g>
   <g id="matplotlib.axis_3">
    <g id="xtick_3">
     <g id="text_17">
      <!-- train -->
      <g style="fill:#262626;" transform="translate(475.909304 373.437813)scale(0.1 -0.1)">
       <use xlink:href="#ArialMT-116"/>
       <use x="27.783203" xlink:href="#ArialMT-114"/>
       <use x="61.083984" xlink:href="#ArialMT-97"/>
       <use x="116.699219" xlink:href="#ArialMT-105"/>
       <use x="138.916016" xlink:href="#ArialMT-110"/>
      </g>
     </g>
    </g>
    <g id="xtick_4">
     <g id="text_18">
      <!-- test -->
      <g style="fill:#262626;" transform="translate(629.75831 373.437813)scale(0.1 -0.1)">
       <use xlink:href="#ArialMT-116"/>
       <use x="27.783203" xlink:href="#ArialMT-101"/>
       <use x="83.398438" xlink:href="#ArialMT-115"/>
       <use x="133.398438" xlink:href="#ArialMT-116"/>
      </g>
     </g>
    </g>
    <g id="text_19">
     <!-- tag -->
     <g style="fill:#262626;" transform="translate(554.775994 386.465937)scale(0.1 -0.1)">
      <use xlink:href="#ArialMT-116"/>
      <use x="27.783203" xlink:href="#ArialMT-97"/>
      <use x="83.398438" xlink:href="#ArialMT-103"/>
     </g>
    </g>
   </g>
   <g id="matplotlib.axis_4">
    <g id="ytick_9">
     <g id="line2d_13">
      <path clip-path="url(#peca2291db1)" d="M 409.544176 344.18462 
L 713.907812 344.18462 
" style="fill:none;stroke:#cccccc;stroke-linecap:round;stroke-width:0.8;"/>
     </g>
     <g id="text_20">
      <!-- −0.50 -->
      <defs>
       <path d="M 9.078125 0 
L 9.078125 10.015625 
L 19.09375 10.015625 
L 19.09375 0 
z
" id="ArialMT-46"/>
      </defs>
      <g style="fill:#262626;" transform="translate(377.242614 347.763526)scale(0.1 -0.1)">
       <use xlink:href="#ArialMT-8722"/>
       <use x="58.398438" xlink:href="#ArialMT-48"/>
       <use x="114.013672" xlink:href="#ArialMT-46"/>
       <use x="141.796875" xlink:href="#ArialMT-53"/>
       <use x="197.412109" xlink:href="#ArialMT-48"/>
      </g>
     </g>
    </g>
    <g id="ytick_10">
     <g id="line2d_14">
      <path clip-path="url(#peca2291db1)" d="M 409.544176 300.137217 
L 713.907812 300.137217 
" style="fill:none;stroke:#cccccc;stroke-linecap:round;stroke-width:0.8;"/>
     </g>
     <g id="text_21">
      <!-- −0.25 -->
      <g style="fill:#262626;" transform="translate(377.242614 303.716123)scale(0.1 -0.1)">
       <use xlink:href="#ArialMT-8722"/>
       <use x="58.398438" xlink:href="#ArialMT-48"/>
       <use x="114.013672" xlink:href="#ArialMT-46"/>
       <use x="141.796875" xlink:href="#ArialMT-50"/>
       <use x="197.412109" xlink:href="#ArialMT-53"/>
      </g>
     </g>
    </g>
    <g id="ytick_11">
     <g id="line2d_15">
      <path clip-path="url(#peca2291db1)" d="M 409.544176 256.089814 
L 713.907812 256.089814 
" style="fill:none;stroke:#cccccc;stroke-linecap:round;stroke-width:0.8;"/>
     </g>
     <g id="text_22">
      <!-- 0.00 -->
      <g style="fill:#262626;" transform="translate(383.083239 259.66872)scale(0.1 -0.1)">
       <use xlink:href="#ArialMT-48"/>
       <use x="55.615234" xlink:href="#ArialMT-46"/>
       <use x="83.398438" xlink:href="#ArialMT-48"/>
       <use x="139.013672" xlink:href="#ArialMT-48"/>
      </g>
     </g>
    </g>
    <g id="ytick_12">
     <g id="line2d_16">
      <path clip-path="url(#peca2291db1)" d="M 409.544176 212.042411 
L 713.907812 212.042411 
" style="fill:none;stroke:#cccccc;stroke-linecap:round;stroke-width:0.8;"/>
     </g>
     <g id="text_23">
      <!-- 0.25 -->
      <g style="fill:#262626;" transform="translate(383.083239 215.621317)scale(0.1 -0.1)">
       <use xlink:href="#ArialMT-48"/>
       <use x="55.615234" xlink:href="#ArialMT-46"/>
       <use x="83.398438" xlink:href="#ArialMT-50"/>
       <use x="139.013672" xlink:href="#ArialMT-53"/>
      </g>
     </g>
    </g>
    <g id="ytick_13">
     <g id="line2d_17">
      <path clip-path="url(#peca2291db1)" d="M 409.544176 167.995007 
L 713.907812 167.995007 
" style="fill:none;stroke:#cccccc;stroke-linecap:round;stroke-width:0.8;"/>
     </g>
     <g id="text_24">
      <!-- 0.50 -->
      <g style="fill:#262626;" transform="translate(383.083239 171.573914)scale(0.1 -0.1)">
       <use xlink:href="#ArialMT-48"/>
       <use x="55.615234" xlink:href="#ArialMT-46"/>
       <use x="83.398438" xlink:href="#ArialMT-53"/>
       <use x="139.013672" xlink:href="#ArialMT-48"/>
      </g>
     </g>
    </g>
    <g id="ytick_14">
     <g id="line2d_18">
      <path clip-path="url(#peca2291db1)" d="M 409.544176 123.947604 
L 713.907812 123.947604 
" style="fill:none;stroke:#cccccc;stroke-linecap:round;stroke-width:0.8;"/>
     </g>
     <g id="text_25">
      <!-- 0.75 -->
      <defs>
       <path d="M 4.734375 62.203125 
L 4.734375 70.65625 
L 51.078125 70.65625 
L 51.078125 63.8125 
Q 44.234375 56.546875 37.515625 44.484375 
Q 30.8125 32.421875 27.15625 19.671875 
Q 24.515625 10.6875 23.78125 0 
L 14.75 0 
Q 14.890625 8.453125 18.0625 20.40625 
Q 21.234375 32.375 27.171875 43.484375 
Q 33.109375 54.59375 39.796875 62.203125 
z
" id="ArialMT-55"/>
      </defs>
      <g style="fill:#262626;" transform="translate(383.083239 127.52651)scale(0.1 -0.1)">
       <use xlink:href="#ArialMT-48"/>
       <use x="55.615234" xlink:href="#ArialMT-46"/>
       <use x="83.398438" xlink:href="#ArialMT-55"/>
       <use x="139.013672" xlink:href="#ArialMT-53"/>
      </g>
     </g>
    </g>
    <g id="ytick_15">
     <g id="line2d_19">
      <path clip-path="url(#peca2291db1)" d="M 409.544176 79.900201 
L 713.907812 79.900201 
" style="fill:none;stroke:#cccccc;stroke-linecap:round;stroke-width:0.8;"/>
     </g>
     <g id="text_26">
      <!-- 1.00 -->
      <g style="fill:#262626;" transform="translate(383.083239 83.479107)scale(0.1 -0.1)">
       <use xlink:href="#ArialMT-49"/>
       <use x="55.615234" xlink:href="#ArialMT-46"/>
       <use x="83.398438" xlink:href="#ArialMT-48"/>
       <use x="139.013672" xlink:href="#ArialMT-48"/>
      </g>
     </g>
    </g>
    <g id="ytick_16">
     <g id="line2d_20">
      <path clip-path="url(#peca2291db1)" d="M 409.544176 35.852798 
L 713.907812 35.852798 
" style="fill:none;stroke:#cccccc;stroke-linecap:round;stroke-width:0.8;"/>
     </g>
     <g id="text_27">
      <!-- 1.25 -->
      <g style="fill:#262626;" transform="translate(383.083239 39.431704)scale(0.1 -0.1)">
       <use xlink:href="#ArialMT-49"/>
       <use x="55.615234" xlink:href="#ArialMT-46"/>
       <use x="83.398438" xlink:href="#ArialMT-50"/>
       <use x="139.013672" xlink:href="#ArialMT-53"/>
      </g>
     </g>
    </g>
    <g id="text_28">
     <!-- p_error -->
     <defs>
      <path d="M 6.59375 -19.875 
L 6.59375 51.859375 
L 14.59375 51.859375 
L 14.59375 45.125 
Q 17.4375 49.078125 21 51.046875 
Q 24.5625 53.03125 29.640625 53.03125 
Q 36.28125 53.03125 41.359375 49.609375 
Q 46.4375 46.1875 49.015625 39.953125 
Q 51.609375 33.734375 51.609375 26.3125 
Q 51.609375 18.359375 48.75 11.984375 
Q 45.90625 5.609375 40.453125 2.21875 
Q 35.015625 -1.171875 29 -1.171875 
Q 24.609375 -1.171875 21.109375 0.6875 
Q 17.625 2.546875 15.375 5.375 
L 15.375 -19.875 
z
M 14.546875 25.640625 
Q 14.546875 15.625 18.59375 10.84375 
Q 22.65625 6.0625 28.421875 6.0625 
Q 34.28125 6.0625 38.453125 11.015625 
Q 42.625 15.96875 42.625 26.375 
Q 42.625 36.28125 38.546875 41.203125 
Q 34.46875 46.140625 28.8125 46.140625 
Q 23.1875 46.140625 18.859375 40.890625 
Q 14.546875 35.640625 14.546875 25.640625 
z
" id="ArialMT-112"/>
      <path d="M -1.515625 -19.875 
L -1.515625 -13.53125 
L 56.734375 -13.53125 
L 56.734375 -19.875 
z
" id="ArialMT-95"/>
     </defs>
     <g style="fill:#262626;" transform="translate(371.255114 212.316406)rotate(-90)scale(0.1 -0.1)">
      <use xlink:href="#ArialMT-112"/>
      <use x="55.615234" xlink:href="#ArialMT-95"/>
      <use x="111.230469" xlink:href="#ArialMT-101"/>
      <use x="166.845703" xlink:href="#ArialMT-114"/>
      <use x="200.146484" xlink:href="#ArialMT-114"/>
      <use x="233.447266" xlink:href="#ArialMT-111"/>
      <use x="289.0625" xlink:href="#ArialMT-114"/>
     </g>
    </g>
   </g>
   <g id="PolyCollection_3">
    <defs>
     <path d="M 455.279344 -51.31608 
L 455.118099 -51.31608 
L 455.068686 -54.311121 
L 454.999336 -57.306162 
L 454.907502 -60.301204 
L 454.792449 -63.296245 
L 454.655415 -66.291286 
L 454.4989 -69.286327 
L 454.325032 -72.281369 
L 454.133223 -75.27641 
L 453.917723 -78.271451 
L 453.66575 -81.266493 
L 453.356763 -84.261534 
L 452.96296 -87.256575 
L 452.450622 -90.251617 
L 451.781646 -93.246658 
L 450.914814 -96.241699 
L 449.807092 -99.236741 
L 448.416117 -102.231782 
L 446.705535 -105.226823 
L 444.654263 -108.221865 
L 442.269062 -111.216906 
L 439.597398 -114.211947 
L 436.735798 -117.206989 
L 433.82884 -120.20203 
L 431.056322 -123.197071 
L 428.610077 -126.192113 
L 426.665917 -129.187154 
L 425.358066 -132.182195 
L 424.762358 -135.177237 
L 424.890957 -138.172278 
L 425.69727 -141.167319 
L 427.087263 -144.162361 
L 428.933371 -147.157402 
L 431.089042 -150.152443 
L 433.403721 -153.147485 
L 435.738388 -156.142526 
L 437.980384 -159.137567 
L 440.054446 -162.132608 
L 441.926445 -165.12765 
L 443.597998 -168.122691 
L 445.093393 -171.117732 
L 446.443289 -174.112774 
L 447.670815 -177.107815 
L 448.784422 -180.102856 
L 449.778795 -183.097898 
L 450.641951 -186.092939 
L 451.36462 -189.08798 
L 451.947865 -192.083022 
L 452.406188 -195.078063 
L 452.765483 -198.073104 
L 453.057082 -201.068146 
L 453.310281 -204.063187 
L 453.545946 -207.058228 
L 453.773089 -210.05327 
L 453.989136 -213.048311 
L 454.183377 -216.043352 
L 454.342167 -219.038394 
L 454.454169 -222.033435 
L 454.514178 -225.028476 
L 454.524737 -228.023518 
L 454.495548 -231.018559 
L 454.441249 -234.0136 
L 454.378462 -237.008642 
L 454.322959 -240.003683 
L 454.287516 -242.998724 
L 454.28066 -245.993765 
L 454.306223 -248.988807 
L 454.363478 -251.983848 
L 454.447711 -254.978889 
L 454.551167 -257.973931 
L 454.664339 -260.968972 
L 454.777486 -263.964013 
L 454.882138 -266.959055 
L 454.972234 -269.954096 
L 455.044644 -272.949137 
L 455.098991 -275.944179 
L 455.13692 -278.93922 
L 455.161087 -281.934261 
L 455.174171 -284.929303 
L 455.178099 -287.924344 
L 455.173609 -290.919385 
L 455.160159 -293.914427 
L 455.136209 -296.909468 
L 455.099864 -299.904509 
L 455.049835 -302.899551 
L 454.986549 -305.894592 
L 454.913112 -308.889633 
L 454.835714 -311.884675 
L 454.763141 -314.879716 
L 454.7053 -317.874757 
L 454.671053 -320.869799 
L 454.666004 -323.86484 
L 454.691001 -326.859881 
L 454.741901 -329.854923 
L 454.810698 -332.849964 
L 454.887576 -335.845005 
L 454.963183 -338.840046 
L 455.030396 -341.835088 
L 455.085159 -344.830129 
L 455.126393 -347.82517 
L 455.27105 -347.82517 
L 455.27105 -347.82517 
L 455.312284 -344.830129 
L 455.367048 -341.835088 
L 455.43426 -338.840046 
L 455.509867 -335.845005 
L 455.586746 -332.849964 
L 455.655542 -329.854923 
L 455.706443 -326.859881 
L 455.731439 -323.86484 
L 455.72639 -320.869799 
L 455.692143 -317.874757 
L 455.634302 -314.879716 
L 455.561729 -311.884675 
L 455.484331 -308.889633 
L 455.410894 -305.894592 
L 455.347608 -302.899551 
L 455.297579 -299.904509 
L 455.261234 -296.909468 
L 455.237284 -293.914427 
L 455.223834 -290.919385 
L 455.219344 -287.924344 
L 455.223273 -284.929303 
L 455.236356 -281.934261 
L 455.260524 -278.93922 
L 455.298452 -275.944179 
L 455.352799 -272.949137 
L 455.425209 -269.954096 
L 455.515305 -266.959055 
L 455.619957 -263.964013 
L 455.733104 -260.968972 
L 455.846276 -257.973931 
L 455.949732 -254.978889 
L 456.033966 -251.983848 
L 456.09122 -248.988807 
L 456.116783 -245.993765 
L 456.109927 -242.998724 
L 456.074484 -240.003683 
L 456.018981 -237.008642 
L 455.956195 -234.0136 
L 455.901895 -231.018559 
L 455.872706 -228.023518 
L 455.883265 -225.028476 
L 455.943274 -222.033435 
L 456.055277 -219.038394 
L 456.214066 -216.043352 
L 456.408307 -213.048311 
L 456.624354 -210.05327 
L 456.851497 -207.058228 
L 457.087163 -204.063187 
L 457.340361 -201.068146 
L 457.63196 -198.073104 
L 457.991255 -195.078063 
L 458.449578 -192.083022 
L 459.032823 -189.08798 
L 459.755492 -186.092939 
L 460.618648 -183.097898 
L 461.613022 -180.102856 
L 462.726628 -177.107815 
L 463.954154 -174.112774 
L 465.30405 -171.117732 
L 466.799446 -168.122691 
L 468.470998 -165.12765 
L 470.342997 -162.132608 
L 472.417059 -159.137567 
L 474.659055 -156.142526 
L 476.993723 -153.147485 
L 479.308401 -150.152443 
L 481.464072 -147.157402 
L 483.31018 -144.162361 
L 484.700173 -141.167319 
L 485.506487 -138.172278 
L 485.635085 -135.177237 
L 485.039377 -132.182195 
L 483.731526 -129.187154 
L 481.787367 -126.192113 
L 479.341122 -123.197071 
L 476.568603 -120.20203 
L 473.661646 -117.206989 
L 470.800045 -114.211947 
L 468.128382 -111.216906 
L 465.74318 -108.221865 
L 463.691908 -105.226823 
L 461.981326 -102.231782 
L 460.590351 -99.236741 
L 459.482629 -96.241699 
L 458.615797 -93.246658 
L 457.946821 -90.251617 
L 457.434484 -87.256575 
L 457.040681 -84.261534 
L 456.731694 -81.266493 
L 456.479721 -78.271451 
L 456.26422 -75.27641 
L 456.072411 -72.281369 
L 455.898543 -69.286327 
L 455.742028 -66.291286 
L 455.604994 -63.296245 
L 455.489942 -60.301204 
L 455.398107 -57.306162 
L 455.328757 -54.311121 
L 455.279344 -51.31608 
z
" id="mc2d62cd76e" style="stroke:#4c4c4c;stroke-width:1.5;"/>
    </defs>
    <g clip-path="url(#peca2291db1)">
     <use style="fill:#5f9e6e;stroke:#4c4c4c;stroke-width:1.5;" x="0" xlink:href="#mc2d62cd76e" y="395.770625"/>
    </g>
   </g>
   <g id="PolyCollection_4">
    <defs>
     <path d="M 668.606385 -83.860127 
L 667.900149 -83.860127 
L 667.777765 -84.885839 
L 667.624408 -85.91155 
L 667.436359 -86.937261 
L 667.210784 -87.962972 
L 666.946189 -88.988683 
L 666.642837 -90.014394 
L 666.303107 -91.040105 
L 665.931704 -92.065816 
L 665.535684 -93.091527 
L 665.124236 -94.117238 
L 664.708213 -95.142949 
L 664.299411 -96.16866 
L 663.909642 -97.194371 
L 663.549674 -98.220082 
L 663.228134 -99.245793 
L 662.950484 -100.271504 
L 662.718194 -101.297215 
L 662.528214 -102.322926 
L 662.372816 -103.348637 
L 662.239859 -104.374348 
L 662.113476 -105.400059 
L 661.975133 -106.42577 
L 661.804985 -107.451481 
L 661.583408 -108.477192 
L 661.292559 -109.502903 
L 660.917821 -110.528614 
L 660.448987 -111.554325 
L 659.881048 -112.580036 
L 659.214495 -113.605748 
L 658.455097 -114.631459 
L 657.613162 -115.65717 
L 656.702358 -116.682881 
L 655.738228 -117.708592 
L 654.73658 -118.734303 
L 653.711973 -119.760014 
L 652.676483 -120.785725 
L 651.638942 -121.811436 
L 650.60475 -122.837147 
L 649.576276 -123.862858 
L 648.553786 -124.888569 
L 647.53673 -125.91428 
L 646.525162 -126.939991 
L 645.521057 -127.965702 
L 644.529294 -128.991413 
L 643.558123 -130.017124 
L 642.619063 -131.042835 
L 641.726214 -132.068546 
L 640.895132 -133.094257 
L 640.141427 -134.119968 
L 639.479312 -135.145679 
L 638.920334 -136.17139 
L 638.472468 -137.197101 
L 638.139706 -138.222812 
L 637.922196 -139.248523 
L 637.816903 -140.274234 
L 637.818701 -141.299945 
L 637.921728 -142.325656 
L 638.120814 -143.351368 
L 638.412768 -144.377079 
L 638.79731 -145.40279 
L 639.277474 -146.428501 
L 639.859395 -147.454212 
L 640.551418 -148.479923 
L 641.362627 -149.505634 
L 642.300947 -150.531345 
L 643.371063 -151.557056 
L 644.572457 -152.582767 
L 645.897873 -153.608478 
L 647.332457 -154.634189 
L 648.853779 -155.6599 
L 650.43277 -156.685611 
L 652.035527 -157.711322 
L 653.625766 -158.737033 
L 655.167637 -159.762744 
L 656.628545 -160.788455 
L 657.981632 -161.814166 
L 659.207617 -162.839877 
L 660.295805 -163.865588 
L 661.244169 -164.891299 
L 662.058581 -165.91701 
L 662.751314 -166.942721 
L 663.339088 -167.968432 
L 663.840907 -168.994143 
L 664.275974 -170.019854 
L 664.66192 -171.045565 
L 665.01349 -172.071277 
L 665.341783 -173.096988 
L 665.654042 -174.122699 
L 665.953914 -175.14841 
L 666.242073 -176.174121 
L 666.517042 -177.199832 
L 666.776093 -178.225543 
L 667.016083 -179.251254 
L 667.234139 -180.276965 
L 667.428142 -181.302676 
L 667.596995 -182.328387 
L 667.740701 -183.354098 
L 667.860268 -184.379809 
L 667.957525 -185.40552 
L 668.549009 -185.40552 
L 668.549009 -185.40552 
L 668.646266 -184.379809 
L 668.765833 -183.354098 
L 668.909539 -182.328387 
L 669.078392 -181.302676 
L 669.272395 -180.276965 
L 669.490451 -179.251254 
L 669.730441 -178.225543 
L 669.989493 -177.199832 
L 670.264461 -176.174121 
L 670.55262 -175.14841 
L 670.852492 -174.122699 
L 671.164751 -173.096988 
L 671.493044 -172.071277 
L 671.844614 -171.045565 
L 672.23056 -170.019854 
L 672.665627 -168.994143 
L 673.167446 -167.968432 
L 673.75522 -166.942721 
L 674.447953 -165.91701 
L 675.262365 -164.891299 
L 676.210729 -163.865588 
L 677.298917 -162.839877 
L 678.524902 -161.814166 
L 679.877989 -160.788455 
L 681.338897 -159.762744 
L 682.880768 -158.737033 
L 684.471007 -157.711322 
L 686.073764 -156.685611 
L 687.652755 -155.6599 
L 689.174077 -154.634189 
L 690.608661 -153.608478 
L 691.934077 -152.582767 
L 693.135471 -151.557056 
L 694.205587 -150.531345 
L 695.143907 -149.505634 
L 695.955116 -148.479923 
L 696.647139 -147.454212 
L 697.22906 -146.428501 
L 697.709225 -145.40279 
L 698.093766 -144.377079 
L 698.38572 -143.351368 
L 698.584806 -142.325656 
L 698.687833 -141.299945 
L 698.689631 -140.274234 
L 698.584338 -139.248523 
L 698.366828 -138.222812 
L 698.034066 -137.197101 
L 697.5862 -136.17139 
L 697.027222 -135.145679 
L 696.365107 -134.119968 
L 695.611402 -133.094257 
L 694.780321 -132.068546 
L 693.887471 -131.042835 
L 692.948411 -130.017124 
L 691.97724 -128.991413 
L 690.985477 -127.965702 
L 689.981372 -126.939991 
L 688.969804 -125.91428 
L 687.952748 -124.888569 
L 686.930258 -123.862858 
L 685.901784 -122.837147 
L 684.867592 -121.811436 
L 683.830051 -120.785725 
L 682.794561 -119.760014 
L 681.769954 -118.734303 
L 680.768306 -117.708592 
L 679.804176 -116.682881 
L 678.893372 -115.65717 
L 678.051437 -114.631459 
L 677.292039 -113.605748 
L 676.625486 -112.580036 
L 676.057547 -111.554325 
L 675.588713 -110.528614 
L 675.213976 -109.502903 
L 674.923126 -108.477192 
L 674.701549 -107.451481 
L 674.531401 -106.42577 
L 674.393058 -105.400059 
L 674.266675 -104.374348 
L 674.133718 -103.348637 
L 673.97832 -102.322926 
L 673.78834 -101.297215 
L 673.55605 -100.271504 
L 673.2784 -99.245793 
L 672.95686 -98.220082 
L 672.596892 -97.194371 
L 672.207124 -96.16866 
L 671.798321 -95.142949 
L 671.382298 -94.117238 
L 670.97085 -93.091527 
L 670.57483 -92.065816 
L 670.203427 -91.040105 
L 669.863697 -90.014394 
L 669.560345 -88.988683 
L 669.29575 -87.962972 
L 669.070176 -86.937261 
L 668.882126 -85.91155 
L 668.728769 -84.885839 
L 668.606385 -83.860127 
z
" id="m9b7e51b26e" style="stroke:#4c4c4c;stroke-width:1.5;"/>
    </defs>
    <g clip-path="url(#peca2291db1)">
     <use style="fill:#b55d60;stroke:#4c4c4c;stroke-width:1.5;" x="0" xlink:href="#m9b7e51b26e" y="395.770625"/>
    </g>
   </g>
   <g id="patch_13">
    <path clip-path="url(#peca2291db1)" d="M 485.635085 256.089814 
L 485.635085 256.089814 
L 485.635085 256.089814 
L 485.635085 256.089814 
z
" style="fill:#5f9e6e;stroke:#4c4c4c;stroke-linejoin:miter;stroke-width:0.75;"/>
   </g>
   <g id="patch_14">
    <path clip-path="url(#peca2291db1)" d="M 485.635085 256.089814 
L 485.635085 256.089814 
L 485.635085 256.089814 
L 485.635085 256.089814 
z
" style="fill:#b55d60;stroke:#4c4c4c;stroke-linejoin:miter;stroke-width:0.75;"/>
   </g>
   <g id="line2d_21">
    <path clip-path="url(#peca2291db1)" d="M 455.198722 295.149414 
L 455.198722 212.203309 
" style="fill:none;stroke:#4c4c4c;stroke-linecap:round;stroke-width:1.5;"/>
   </g>
   <g id="line2d_22">
    <path clip-path="url(#peca2291db1)" d="M 455.198722 268.341472 
L 455.198722 244.957076 
" style="fill:none;stroke:#4c4c4c;stroke-linecap:round;stroke-width:4.5;"/>
   </g>
   <g id="line2d_23">
    <path clip-path="url(#peca2291db1)" d="M 668.253267 295.648088 
L 668.253267 225.022619 
" style="fill:none;stroke:#4c4c4c;stroke-linecap:round;stroke-width:1.5;"/>
   </g>
   <g id="line2d_24">
    <path clip-path="url(#peca2291db1)" d="M 668.253267 266.889328 
L 668.253267 247.228438 
" style="fill:none;stroke:#4c4c4c;stroke-linecap:round;stroke-width:4.5;"/>
   </g>
   <g id="patch_15">
    <path d="M 409.544176 359.28 
L 409.544176 33.12 
" style="fill:none;stroke:#ffffff;stroke-linecap:square;stroke-linejoin:miter;stroke-width:0.8;"/>
   </g>
   <g id="patch_16">
    <path d="M 713.907812 359.28 
L 713.907812 33.12 
" style="fill:none;stroke:#ffffff;stroke-linecap:square;stroke-linejoin:miter;stroke-width:0.8;"/>
   </g>
   <g id="patch_17">
    <path d="M 409.544176 359.28 
L 713.907812 359.28 
" style="fill:none;stroke:#ffffff;stroke-linecap:square;stroke-linejoin:miter;stroke-width:0.8;"/>
   </g>
   <g id="patch_18">
    <path d="M 409.544176 33.12 
L 713.907812 33.12 
" style="fill:none;stroke:#ffffff;stroke-linecap:square;stroke-linejoin:miter;stroke-width:0.8;"/>
   </g>
   <g id="PathCollection_3">
    <g clip-path="url(#peca2291db1)">
     <use style="fill:#ffffff;stroke:#4c4c4c;" x="455.198722" xlink:href="#m31ed11b85c" y="256.959979"/>
    </g>
   </g>
   <g id="PathCollection_4">
    <g clip-path="url(#peca2291db1)">
     <use style="fill:#ffffff;stroke:#4c4c4c;" x="668.253267" xlink:href="#m31ed11b85c" y="257.356315"/>
    </g>
   </g>
   <g id="text_29">
    <!-- Percentaje -->
    <defs>
     <path d="M 7.71875 0 
L 7.71875 71.578125 
L 34.71875 71.578125 
Q 41.84375 71.578125 45.609375 70.90625 
Q 50.875 70.015625 54.4375 67.546875 
Q 58.015625 65.09375 60.1875 60.640625 
Q 62.359375 56.203125 62.359375 50.875 
Q 62.359375 41.75 56.546875 35.421875 
Q 50.734375 29.109375 35.546875 29.109375 
L 17.1875 29.109375 
L 17.1875 0 
z
M 17.1875 37.546875 
L 35.6875 37.546875 
Q 44.875 37.546875 48.734375 40.96875 
Q 52.59375 44.390625 52.59375 50.59375 
Q 52.59375 55.078125 50.3125 58.265625 
Q 48.046875 61.46875 44.34375 62.5 
Q 41.9375 63.140625 35.5 63.140625 
L 17.1875 63.140625 
z
" id="ArialMT-80"/>
     <path d="M 40.4375 19 
L 49.078125 17.875 
Q 47.65625 8.9375 41.8125 3.875 
Q 35.984375 -1.171875 27.484375 -1.171875 
Q 16.84375 -1.171875 10.375 5.78125 
Q 3.90625 12.75 3.90625 25.734375 
Q 3.90625 34.125 6.6875 40.421875 
Q 9.46875 46.734375 15.15625 49.875 
Q 20.84375 53.03125 27.546875 53.03125 
Q 35.984375 53.03125 41.359375 48.75 
Q 46.734375 44.484375 48.25 36.625 
L 39.703125 35.296875 
Q 38.484375 40.53125 35.375 43.15625 
Q 32.28125 45.796875 27.875 45.796875 
Q 21.234375 45.796875 17.078125 41.03125 
Q 12.9375 36.28125 12.9375 25.984375 
Q 12.9375 15.53125 16.9375 10.796875 
Q 20.953125 6.0625 27.390625 6.0625 
Q 32.5625 6.0625 36.03125 9.234375 
Q 39.5 12.40625 40.4375 19 
z
" id="ArialMT-99"/>
     <path d="M 6.546875 61.375 
L 6.546875 71.578125 
L 15.328125 71.578125 
L 15.328125 61.375 
z
M -4.59375 -20.125 
L -2.9375 -12.640625 
Q -0.296875 -13.328125 1.21875 -13.328125 
Q 3.90625 -13.328125 5.21875 -11.546875 
Q 6.546875 -9.765625 6.546875 -2.640625 
L 6.546875 51.859375 
L 15.328125 51.859375 
L 15.328125 -2.828125 
Q 15.328125 -12.40625 12.84375 -16.15625 
Q 9.671875 -21.046875 2.296875 -21.046875 
Q -1.265625 -21.046875 -4.59375 -20.125 
z
" id="ArialMT-106"/>
    </defs>
    <g style="fill:#262626;" transform="translate(533.043182 27.12)scale(0.12 -0.12)">
     <use xlink:href="#ArialMT-80"/>
     <use x="66.699219" xlink:href="#ArialMT-101"/>
     <use x="122.314453" xlink:href="#ArialMT-114"/>
     <use x="155.615234" xlink:href="#ArialMT-99"/>
     <use x="205.615234" xlink:href="#ArialMT-101"/>
     <use x="261.230469" xlink:href="#ArialMT-110"/>
     <use x="316.845703" xlink:href="#ArialMT-116"/>
     <use x="344.628906" xlink:href="#ArialMT-97"/>
     <use x="400.244141" xlink:href="#ArialMT-106"/>
     <use x="422.460938" xlink:href="#ArialMT-101"/>
    </g>
   </g>
   <g id="legend_2">
    <g id="patch_19">
     <path d="M 655.45625 83.673125 
L 706.907812 83.673125 
Q 708.907812 83.673125 708.907812 81.673125 
L 708.907812 40.12 
Q 708.907812 38.12 706.907812 38.12 
L 655.45625 38.12 
Q 653.45625 38.12 653.45625 40.12 
L 653.45625 81.673125 
Q 653.45625 83.673125 655.45625 83.673125 
z
" style="fill:#e6e6e6;opacity:0.8;stroke:#cccccc;stroke-linejoin:miter;"/>
    </g>
    <g id="text_30">
     <!-- tag -->
     <g style="fill:#262626;" transform="translate(674.232031 49.277812)scale(0.1 -0.1)">
      <use xlink:href="#ArialMT-116"/>
      <use x="27.783203" xlink:href="#ArialMT-97"/>
      <use x="83.398438" xlink:href="#ArialMT-103"/>
     </g>
    </g>
    <g id="patch_20">
     <path d="M 657.45625 63.540312 
L 677.45625 63.540312 
L 677.45625 56.540312 
L 657.45625 56.540312 
z
" style="fill:#5f9e6e;stroke:#4c4c4c;stroke-linejoin:miter;stroke-width:0.75;"/>
    </g>
    <g id="text_31">
     <!-- train -->
     <g style="fill:#262626;" transform="translate(685.45625 63.540312)scale(0.1 -0.1)">
      <use xlink:href="#ArialMT-116"/>
      <use x="27.783203" xlink:href="#ArialMT-114"/>
      <use x="61.083984" xlink:href="#ArialMT-97"/>
      <use x="116.699219" xlink:href="#ArialMT-105"/>
      <use x="138.916016" xlink:href="#ArialMT-110"/>
     </g>
    </g>
    <g id="patch_21">
     <path d="M 657.45625 77.685625 
L 677.45625 77.685625 
L 677.45625 70.685625 
L 657.45625 70.685625 
z
" style="fill:#b55d60;stroke:#4c4c4c;stroke-linejoin:miter;stroke-width:0.75;"/>
    </g>
    <g id="text_32">
     <!-- test -->
     <g style="fill:#262626;" transform="translate(685.45625 77.685625)scale(0.1 -0.1)">
      <use xlink:href="#ArialMT-116"/>
      <use x="27.783203" xlink:href="#ArialMT-101"/>
      <use x="83.398438" xlink:href="#ArialMT-115"/>
      <use x="133.398438" xlink:href="#ArialMT-116"/>
     </g>
    </g>
   </g>
  </g>
  <g id="text_33">
   <!-- Linear Model Errors Distribution -->
   <defs>
    <path d="M 7.328125 0 
L 7.328125 71.578125 
L 16.796875 71.578125 
L 16.796875 8.453125 
L 52.046875 8.453125 
L 52.046875 0 
z
" id="ArialMT-76"/>
    <path id="ArialMT-32"/>
    <path d="M 7.421875 0 
L 7.421875 71.578125 
L 21.6875 71.578125 
L 38.625 20.90625 
Q 40.96875 13.8125 42.046875 10.296875 
Q 43.265625 14.203125 45.84375 21.78125 
L 62.984375 71.578125 
L 75.734375 71.578125 
L 75.734375 0 
L 66.609375 0 
L 66.609375 59.90625 
L 45.796875 0 
L 37.25 0 
L 16.546875 60.9375 
L 16.546875 0 
z
" id="ArialMT-77"/>
    <path d="M 40.234375 0 
L 40.234375 6.546875 
Q 35.296875 -1.171875 25.734375 -1.171875 
Q 19.53125 -1.171875 14.328125 2.25 
Q 9.125 5.671875 6.265625 11.796875 
Q 3.421875 17.921875 3.421875 25.875 
Q 3.421875 33.640625 6 39.96875 
Q 8.59375 46.296875 13.765625 49.65625 
Q 18.953125 53.03125 25.34375 53.03125 
Q 30.03125 53.03125 33.6875 51.046875 
Q 37.359375 49.078125 39.65625 45.90625 
L 39.65625 71.578125 
L 48.390625 71.578125 
L 48.390625 0 
z
M 12.453125 25.875 
Q 12.453125 15.921875 16.640625 10.984375 
Q 20.84375 6.0625 26.5625 6.0625 
Q 32.328125 6.0625 36.34375 10.765625 
Q 40.375 15.484375 40.375 25.140625 
Q 40.375 35.796875 36.265625 40.765625 
Q 32.171875 45.75 26.171875 45.75 
Q 20.3125 45.75 16.375 40.96875 
Q 12.453125 36.1875 12.453125 25.875 
z
" id="ArialMT-100"/>
    <path d="M 7.90625 0 
L 7.90625 71.578125 
L 59.671875 71.578125 
L 59.671875 63.140625 
L 17.390625 63.140625 
L 17.390625 41.21875 
L 56.984375 41.21875 
L 56.984375 32.8125 
L 17.390625 32.8125 
L 17.390625 8.453125 
L 61.328125 8.453125 
L 61.328125 0 
z
" id="ArialMT-69"/>
    <path d="M 7.71875 0 
L 7.71875 71.578125 
L 32.375 71.578125 
Q 40.71875 71.578125 45.125 70.5625 
Q 51.265625 69.140625 55.609375 65.4375 
Q 61.28125 60.640625 64.078125 53.1875 
Q 66.890625 45.75 66.890625 36.1875 
Q 66.890625 28.03125 64.984375 21.734375 
Q 63.09375 15.4375 60.109375 11.296875 
Q 57.125 7.171875 53.578125 4.796875 
Q 50.046875 2.4375 45.046875 1.21875 
Q 40.046875 0 33.546875 0 
z
M 17.1875 8.453125 
L 32.46875 8.453125 
Q 39.546875 8.453125 43.578125 9.765625 
Q 47.609375 11.078125 50 13.484375 
Q 53.375 16.84375 55.25 22.53125 
Q 57.125 28.21875 57.125 36.328125 
Q 57.125 47.5625 53.4375 53.59375 
Q 49.75 59.625 44.484375 61.671875 
Q 40.671875 63.140625 32.234375 63.140625 
L 17.1875 63.140625 
z
" id="ArialMT-68"/>
   </defs>
   <g style="fill:#262626;" transform="translate(283.946875 15.789375)scale(0.12 -0.12)">
    <use xlink:href="#ArialMT-76"/>
    <use x="55.615234" xlink:href="#ArialMT-105"/>
    <use x="77.832031" xlink:href="#ArialMT-110"/>
    <use x="133.447266" xlink:href="#ArialMT-101"/>
    <use x="189.0625" xlink:href="#ArialMT-97"/>
    <use x="244.677734" xlink:href="#ArialMT-114"/>
    <use x="277.978516" xlink:href="#ArialMT-32"/>
    <use x="305.761719" xlink:href="#ArialMT-77"/>
    <use x="389.0625" xlink:href="#ArialMT-111"/>
    <use x="444.677734" xlink:href="#ArialMT-100"/>
    <use x="500.292969" xlink:href="#ArialMT-101"/>
    <use x="555.908203" xlink:href="#ArialMT-108"/>
    <use x="578.125" xlink:href="#ArialMT-32"/>
    <use x="605.908203" xlink:href="#ArialMT-69"/>
    <use x="672.607422" xlink:href="#ArialMT-114"/>
    <use x="705.908203" xlink:href="#ArialMT-114"/>
    <use x="739.208984" xlink:href="#ArialMT-111"/>
    <use x="794.824219" xlink:href="#ArialMT-114"/>
    <use x="828.125" xlink:href="#ArialMT-115"/>
    <use x="878.125" xlink:href="#ArialMT-32"/>
    <use x="905.908203" xlink:href="#ArialMT-68"/>
    <use x="978.125" xlink:href="#ArialMT-105"/>
    <use x="1000.341797" xlink:href="#ArialMT-115"/>
    <use x="1050.341797" xlink:href="#ArialMT-116"/>
    <use x="1078.125" xlink:href="#ArialMT-114"/>
    <use x="1111.425781" xlink:href="#ArialMT-105"/>
    <use x="1133.642578" xlink:href="#ArialMT-98"/>
    <use x="1189.257812" xlink:href="#ArialMT-117"/>
    <use x="1244.873047" xlink:href="#ArialMT-116"/>
    <use x="1272.65625" xlink:href="#ArialMT-105"/>
    <use x="1294.873047" xlink:href="#ArialMT-111"/>
    <use x="1350.488281" xlink:href="#ArialMT-110"/>
   </g>
  </g>
 </g>
 <defs>
  <clipPath id="pc0a5ddd307">
   <rect height="326.16" width="304.363636" x="44.307813" y="33.12"/>
  </clipPath>
  <clipPath id="peca2291db1">
   <rect height="326.16" width="304.363636" x="409.544176" y="33.12"/>
  </clipPath>
 </defs>
</svg>
