<?xml version="1.0" encoding="UTF-8" standalone="no"?>
<!DOCTYPE svg PUBLIC "-//W3C//DTD SVG 1.1//EN"
 "http://www.w3.org/Graphics/SVG/1.1/DTD/svg11.dtd">
<!-- Generated by graphviz version 14.1.2 (0)
 -->
<!-- Pages: 1 -->
<svg width="241pt" height="304pt"
 viewBox="0.00 0.00 241.00 304.00" xmlns="http://www.w3.org/2000/svg" xmlns:xlink="http://www.w3.org/1999/xlink">
<g id="graph0" class="graph" transform="scale(1 1) rotate(0) translate(4 299.97)">
<polygon fill="white" stroke="none" points="-4,4 -4,-299.97 236.71,-299.97 236.71,4 -4,4"/>
<!-- seasonality -->
<g id="node1" class="node">
<title>seasonality</title>
<ellipse fill="none" stroke="black" cx="94.76" cy="-277.97" rx="51.86" ry="18"/>
<text xml:space="preserve" text-anchor="middle" x="94.76" y="-272.92" font-family="Times,serif" font-size="14.00">seasonality</text>
</g>
<!-- spend -->
<g id="node2" class="node">
<title>spend</title>
<ellipse fill="#2a2eec" fill-opacity="0.501961" stroke="#2a2eec" stroke-opacity="0.501961" cx="198.76" cy="-194.97" rx="33.95" ry="18"/>
<text xml:space="preserve" text-anchor="middle" x="198.76" y="-189.92" font-family="Times,serif" font-size="14.00">Spend</text>
</g>
<!-- seasonality&#45;&gt;spend -->
<g id="edge1" class="edge">
<title>seasonality&#45;&gt;spend</title>
<path fill="none" stroke="black" d="M115.31,-260.96C131.44,-248.4 154.04,-230.8 171.65,-217.09"/>
<polygon fill="black" stroke="black" points="173.41,-220.15 179.15,-211.24 169.11,-214.63 173.41,-220.15"/>
</g>
<!-- sales -->
<g id="node3" class="node">
<title>sales</title>
<ellipse fill="#328c06" fill-opacity="0.501961" stroke="#328c06" stroke-opacity="0.501961" cx="111.76" cy="-111.98" rx="30.37" ry="18"/>
<text xml:space="preserve" text-anchor="middle" x="111.76" y="-106.93" font-family="Times,serif" font-size="14.00">Sales</text>
</g>
<!-- seasonality&#45;&gt;sales -->
<g id="edge2" class="edge">
<title>seasonality&#45;&gt;sales</title>
<path fill="none" stroke="black" d="M59.05,-264.47C40.82,-256.05 20.31,-242.97 9.76,-223.97 -2.74,-201.43 -3.62,-188.01 9.76,-165.98 23.47,-143.41 50.26,-130.01 72.95,-122.33"/>
<polygon fill="black" stroke="black" points="73.72,-125.76 82.24,-119.46 71.65,-119.07 73.72,-125.76"/>
</g>
<!-- spend&#45;&gt;sales -->
<g id="edge3" class="edge">
<title>spend&#45;&gt;sales</title>
<path fill="none" stroke="black" d="M182.4,-178.74C169.23,-166.48 150.54,-149.08 135.69,-135.26"/>
<polygon fill="black" stroke="black" points="138.28,-132.89 128.57,-128.63 133.51,-138.01 138.28,-132.89"/>
</g>
<!-- inquiries -->
<g id="node5" class="node">
<title>inquiries</title>
<ellipse fill="#fa7c17" fill-opacity="0.501961" stroke="#fa7c17" stroke-opacity="0.501961" cx="140.76" cy="-28.99" rx="48.97" ry="28.99"/>
<text xml:space="preserve" text-anchor="middle" x="140.76" y="-32.19" font-family="Times,serif" font-size="14.00">Inquiries</text>
<text xml:space="preserve" text-anchor="middle" x="140.76" y="-15.69" font-family="Times,serif" font-size="14.00">(Collider)</text>
</g>
<!-- spend&#45;&gt;inquiries -->
<g id="edge5" class="edge">
<title>spend&#45;&gt;inquiries</title>
<path fill="none" stroke="black" d="M192.77,-177.04C183.76,-151.57 166.48,-102.71 154.32,-68.32"/>
<polygon fill="black" stroke="black" points="157.7,-67.4 151.07,-59.14 151.1,-69.73 157.7,-67.4"/>
</g>
<!-- sales&#45;&gt;inquiries -->
<g id="edge6" class="edge">
<title>sales&#45;&gt;inquiries</title>
<path fill="none" stroke="black" d="M117.77,-94.2C120.49,-86.61 123.82,-77.3 127.1,-68.15"/>
<polygon fill="black" stroke="black" points="130.29,-69.61 130.37,-59.02 123.7,-67.25 130.29,-69.61"/>
</g>
<!-- economy -->
<g id="node4" class="node">
<title>economy</title>
<ellipse fill="lightgrey" stroke="lightgrey" cx="82.76" cy="-194.97" rx="63.82" ry="28.99"/>
<text xml:space="preserve" text-anchor="middle" x="82.76" y="-198.17" font-family="Times,serif" font-size="14.00">Economy</text>
<text xml:space="preserve" text-anchor="middle" x="82.76" y="-181.67" font-family="Times,serif" font-size="14.00">(Unobserved)</text>
</g>
<!-- economy&#45;&gt;sales -->
<g id="edge4" class="edge">
<title>economy&#45;&gt;sales</title>
<path fill="none" stroke="black" stroke-dasharray="5,2" d="M92.74,-166.1C95.71,-157.8 98.97,-148.7 101.93,-140.43"/>
<polygon fill="black" stroke="black" points="105.15,-141.81 105.23,-131.22 98.56,-139.45 105.15,-141.81"/>
</g>
</g>
</svg>
