<?xml version="1.0" encoding="UTF-8" standalone="no"?>
<!DOCTYPE svg PUBLIC "-//W3C//DTD SVG 1.1//EN"
 "http://www.w3.org/Graphics/SVG/1.1/DTD/svg11.dtd">
<!-- Generated by graphviz version 6.0.1 (20220911.1526)
 -->
<!-- Pages: 1 -->
<svg width="358pt" height="430pt"
 viewBox="0.00 0.00 358.20 429.91" xmlns="http://www.w3.org/2000/svg" xmlns:xlink="http://www.w3.org/1999/xlink">
<g id="graph0" class="graph" transform="scale(1 1) rotate(0) translate(4 425.91)">
<polygon fill="white" stroke="none" points="-4,4 -4,-425.91 354.2,-425.91 354.2,4 -4,4"/>
<g id="clust1" class="cluster">
<title>clusterdomain_dim (2)</title>
<path fill="none" stroke="black" d="M20,-299.95C20,-299.95 102,-299.95 102,-299.95 108,-299.95 114,-305.95 114,-311.95 114,-311.95 114,-401.91 114,-401.91 114,-407.91 108,-413.91 102,-413.91 102,-413.91 20,-413.91 20,-413.91 14,-413.91 8,-407.91 8,-401.91 8,-401.91 8,-311.95 8,-311.95 8,-305.95 14,-299.95 20,-299.95"/>
<text text-anchor="middle" x="61" y="-307.75" font-family="Times,serif" font-size="14.00">domain_dim (2)</text>
</g>
<g id="clust2" class="cluster">
<title>clusteridx (97)</title>
<path fill="none" stroke="black" d="M134,-8C134,-8 228,-8 228,-8 234,-8 240,-14 240,-20 240,-20 240,-401.91 240,-401.91 240,-407.91 234,-413.91 228,-413.91 228,-413.91 134,-413.91 134,-413.91 128,-413.91 122,-407.91 122,-401.91 122,-401.91 122,-20 122,-20 122,-14 128,-8 134,-8"/>
<text text-anchor="middle" x="210" y="-15.8" font-family="Times,serif" font-size="14.00">idx (97)</text>
</g>
<!-- ls -->
<g id="node1" class="node">
<title>ls</title>
<ellipse fill="none" stroke="black" cx="63" cy="-368.43" rx="43.27" ry="37.45"/>
<text text-anchor="middle" x="63" y="-379.73" font-family="Times,serif" font-size="14.00">ls</text>
<text text-anchor="middle" x="63" y="-364.73" font-family="Times,serif" font-size="14.00">~</text>
<text text-anchor="middle" x="63" y="-349.73" font-family="Times,serif" font-size="14.00">Gamma</text>
</g>
<!-- f -->
<g id="node6" class="node">
<title>f</title>
<polygon fill="none" stroke="black" points="226.5,-291.95 135.5,-291.95 135.5,-238.95 226.5,-238.95 226.5,-291.95"/>
<text text-anchor="middle" x="181" y="-276.75" font-family="Times,serif" font-size="14.00">f</text>
<text text-anchor="middle" x="181" y="-261.75" font-family="Times,serif" font-size="14.00">~</text>
<text text-anchor="middle" x="181" y="-246.75" font-family="Times,serif" font-size="14.00">Deterministic</text>
</g>
<!-- ls&#45;&gt;f -->
<g id="edge3" class="edge">
<title>ls&#45;&gt;f</title>
<path fill="none" stroke="black" d="M84.51,-335.9C93.85,-323.69 105.51,-310.22 118,-299.95 120.71,-297.72 123.6,-295.58 126.59,-293.52"/>
<polygon fill="black" stroke="black" points="128.69,-296.33 135.21,-287.98 124.9,-290.44 128.69,-296.33"/>
</g>
<!-- amplitude -->
<g id="node2" class="node">
<title>amplitude</title>
<ellipse fill="none" stroke="black" cx="300" cy="-368.43" rx="50.41" ry="37.45"/>
<text text-anchor="middle" x="300" y="-379.73" font-family="Times,serif" font-size="14.00">amplitude</text>
<text text-anchor="middle" x="300" y="-364.73" font-family="Times,serif" font-size="14.00">~</text>
<text text-anchor="middle" x="300" y="-349.73" font-family="Times,serif" font-size="14.00">Gamma</text>
</g>
<!-- amplitude&#45;&gt;f -->
<g id="edge2" class="edge">
<title>amplitude&#45;&gt;f</title>
<path fill="none" stroke="black" d="M277.2,-334.89C267.82,-322.96 256.28,-309.95 244,-299.95 241.28,-297.74 238.38,-295.6 235.39,-293.55"/>
<polygon fill="black" stroke="black" points="237.06,-290.47 226.75,-288.02 233.29,-296.36 237.06,-290.47"/>
</g>
<!-- p -->
<g id="node3" class="node">
<title>p</title>
<polygon fill="none" stroke="black" points="226.5,-202.95 135.5,-202.95 135.5,-149.95 226.5,-149.95 226.5,-202.95"/>
<text text-anchor="middle" x="181" y="-187.75" font-family="Times,serif" font-size="14.00">p</text>
<text text-anchor="middle" x="181" y="-172.75" font-family="Times,serif" font-size="14.00">~</text>
<text text-anchor="middle" x="181" y="-157.75" font-family="Times,serif" font-size="14.00">Deterministic</text>
</g>
<!-- likelihood -->
<g id="node5" class="node">
<title>likelihood</title>
<ellipse fill="lightgrey" stroke="black" cx="181" cy="-76.48" rx="50.41" ry="37.45"/>
<text text-anchor="middle" x="181" y="-87.78" font-family="Times,serif" font-size="14.00">likelihood</text>
<text text-anchor="middle" x="181" y="-72.78" font-family="Times,serif" font-size="14.00">~</text>
<text text-anchor="middle" x="181" y="-57.78" font-family="Times,serif" font-size="14.00">Bernoulli</text>
</g>
<!-- p&#45;&gt;likelihood -->
<g id="edge5" class="edge">
<title>p&#45;&gt;likelihood</title>
<path fill="none" stroke="black" d="M181,-149.71C181,-141.89 181,-133.03 181,-124.27"/>
<polygon fill="black" stroke="black" points="184.5,-124.1 181,-114.1 177.5,-124.1 184.5,-124.1"/>
</g>
<!-- f_rotated_ -->
<g id="node4" class="node">
<title>f_rotated_</title>
<ellipse fill="none" stroke="black" cx="181" cy="-368.43" rx="50.82" ry="37.45"/>
<text text-anchor="middle" x="181" y="-379.73" font-family="Times,serif" font-size="14.00">f_rotated_</text>
<text text-anchor="middle" x="181" y="-364.73" font-family="Times,serif" font-size="14.00">~</text>
<text text-anchor="middle" x="181" y="-349.73" font-family="Times,serif" font-size="14.00">Normal</text>
</g>
<!-- f_rotated_&#45;&gt;f -->
<g id="edge1" class="edge">
<title>f_rotated_&#45;&gt;f</title>
<path fill="none" stroke="black" d="M181,-330.69C181,-321.43 181,-311.5 181,-302.29"/>
<polygon fill="black" stroke="black" points="184.5,-302.26 181,-292.26 177.5,-302.26 184.5,-302.26"/>
</g>
<!-- f&#45;&gt;p -->
<g id="edge4" class="edge">
<title>f&#45;&gt;p</title>
<path fill="none" stroke="black" d="M181,-238.82C181,-230.84 181,-221.89 181,-213.34"/>
<polygon fill="black" stroke="black" points="184.5,-213.2 181,-203.2 177.5,-213.2 184.5,-213.2"/>
</g>
</g>
</svg>
