<?xml version="1.0" encoding="UTF-8" standalone="no"?>
<!DOCTYPE svg PUBLIC "-//W3C//DTD SVG 1.1//EN"
 "http://www.w3.org/Graphics/SVG/1.1/DTD/svg11.dtd">
<!-- Generated by graphviz version 6.0.1 (20220911.1526)
 -->
<!-- Pages: 1 -->
<svg width="395pt" height="527pt"
 viewBox="0.00 0.00 395.00 526.91" xmlns="http://www.w3.org/2000/svg" xmlns:xlink="http://www.w3.org/1999/xlink">
<g id="graph0" class="graph" transform="scale(1 1) rotate(0) translate(4 522.91)">
<polygon fill="white" stroke="none" points="-4,4 -4,-522.91 391,-522.91 391,4 -4,4"/>
<g id="clust1" class="cluster">
<title>clusteridx (97) x domain_dim (2)</title>
<path fill="none" stroke="black" d="M20,-407.93C20,-407.93 160,-407.93 160,-407.93 166,-407.93 172,-413.93 172,-419.93 172,-419.93 172,-487.93 172,-487.93 172,-493.93 166,-499.93 160,-499.93 160,-499.93 20,-499.93 20,-499.93 14,-499.93 8,-493.93 8,-487.93 8,-487.93 8,-419.93 8,-419.93 8,-413.93 14,-407.93 20,-407.93"/>
<text text-anchor="middle" x="90" y="-415.73" font-family="Times,serif" font-size="14.00">idx (97) x domain_dim (2)</text>
</g>
<g id="clust2" class="cluster">
<title>clusteridx (97)</title>
<path fill="none" stroke="black" d="M177,-8C177,-8 269,-8 269,-8 275,-8 281,-14 281,-20 281,-20 281,-376.95 281,-376.95 281,-382.95 275,-388.95 269,-388.95 269,-388.95 177,-388.95 177,-388.95 171,-388.95 165,-382.95 165,-376.95 165,-376.95 165,-20 165,-20 165,-14 171,-8 177,-8"/>
<text text-anchor="middle" x="251" y="-15.8" font-family="Times,serif" font-size="14.00">idx (97)</text>
</g>
<g id="clust3" class="cluster">
<title>clusterdomain_dim (2)</title>
<path fill="none" stroke="black" d="M285,-396.95C285,-396.95 367,-396.95 367,-396.95 373,-396.95 379,-402.95 379,-408.95 379,-408.95 379,-498.91 379,-498.91 379,-504.91 373,-510.91 367,-510.91 367,-510.91 285,-510.91 285,-510.91 279,-510.91 273,-504.91 273,-498.91 273,-498.91 273,-408.95 273,-408.95 273,-402.95 279,-396.95 285,-396.95"/>
<text text-anchor="middle" x="326" y="-404.75" font-family="Times,serif" font-size="14.00">domain_dim (2)</text>
</g>
<!-- x -->
<g id="node1" class="node">
<title>x</title>
<path fill="lightgrey" stroke="black" d="M151,-491.93C151,-491.93 87,-491.93 87,-491.93 81,-491.93 75,-485.93 75,-479.93 75,-479.93 75,-450.93 75,-450.93 75,-444.93 81,-438.93 87,-438.93 87,-438.93 151,-438.93 151,-438.93 157,-438.93 163,-444.93 163,-450.93 163,-450.93 163,-479.93 163,-479.93 163,-485.93 157,-491.93 151,-491.93"/>
<text text-anchor="middle" x="119" y="-476.73" font-family="Times,serif" font-size="14.00">x</text>
<text text-anchor="middle" x="119" y="-461.73" font-family="Times,serif" font-size="14.00">~</text>
<text text-anchor="middle" x="119" y="-446.73" font-family="Times,serif" font-size="14.00">MutableData</text>
</g>
<!-- mu -->
<g id="node2" class="node">
<title>mu</title>
<polygon fill="none" stroke="black" points="268.5,-380.95 177.5,-380.95 177.5,-327.95 268.5,-327.95 268.5,-380.95"/>
<text text-anchor="middle" x="223" y="-365.75" font-family="Times,serif" font-size="14.00">mu</text>
<text text-anchor="middle" x="223" y="-350.75" font-family="Times,serif" font-size="14.00">~</text>
<text text-anchor="middle" x="223" y="-335.75" font-family="Times,serif" font-size="14.00">Deterministic</text>
</g>
<!-- x&#45;&gt;mu -->
<g id="edge4" class="edge">
<title>x&#45;&gt;mu</title>
<path fill="none" stroke="black" d="M137.13,-438.65C146.83,-425.59 159.37,-409.81 172,-396.95 175.1,-393.8 178.43,-390.65 181.85,-387.58"/>
<polygon fill="black" stroke="black" points="184.17,-390.2 189.42,-380.99 179.57,-384.91 184.17,-390.2"/>
</g>
<!-- p -->
<g id="node5" class="node">
<title>p</title>
<polygon fill="none" stroke="black" points="268.5,-291.95 177.5,-291.95 177.5,-238.95 268.5,-238.95 268.5,-291.95"/>
<text text-anchor="middle" x="223" y="-276.75" font-family="Times,serif" font-size="14.00">p</text>
<text text-anchor="middle" x="223" y="-261.75" font-family="Times,serif" font-size="14.00">~</text>
<text text-anchor="middle" x="223" y="-246.75" font-family="Times,serif" font-size="14.00">Deterministic</text>
</g>
<!-- mu&#45;&gt;p -->
<g id="edge5" class="edge">
<title>mu&#45;&gt;p</title>
<path fill="none" stroke="black" d="M223,-327.82C223,-319.84 223,-310.89 223,-302.34"/>
<polygon fill="black" stroke="black" points="226.5,-302.2 223,-292.2 219.5,-302.2 226.5,-302.2"/>
</g>
<!-- likelihood -->
<g id="node3" class="node">
<title>likelihood</title>
<ellipse fill="lightgrey" stroke="black" cx="223" cy="-165.48" rx="50.41" ry="37.45"/>
<text text-anchor="middle" x="223" y="-176.78" font-family="Times,serif" font-size="14.00">likelihood</text>
<text text-anchor="middle" x="223" y="-161.78" font-family="Times,serif" font-size="14.00">~</text>
<text text-anchor="middle" x="223" y="-146.78" font-family="Times,serif" font-size="14.00">Bernoulli</text>
</g>
<!-- y -->
<g id="node4" class="node">
<title>y</title>
<path fill="lightgrey" stroke="black" d="M255,-92C255,-92 191,-92 191,-92 185,-92 179,-86 179,-80 179,-80 179,-51 179,-51 179,-45 185,-39 191,-39 191,-39 255,-39 255,-39 261,-39 267,-45 267,-51 267,-51 267,-80 267,-80 267,-86 261,-92 255,-92"/>
<text text-anchor="middle" x="223" y="-76.8" font-family="Times,serif" font-size="14.00">y</text>
<text text-anchor="middle" x="223" y="-61.8" font-family="Times,serif" font-size="14.00">~</text>
<text text-anchor="middle" x="223" y="-46.8" font-family="Times,serif" font-size="14.00">MutableData</text>
</g>
<!-- likelihood&#45;&gt;y -->
<g id="edge1" class="edge">
<title>likelihood&#45;&gt;y</title>
<path fill="none" stroke="black" d="M223,-127.99C223,-119.58 223,-110.63 223,-102.25"/>
<polygon fill="black" stroke="black" points="226.5,-102.01 223,-92.01 219.5,-102.01 226.5,-102.01"/>
</g>
<!-- p&#45;&gt;likelihood -->
<g id="edge6" class="edge">
<title>p&#45;&gt;likelihood</title>
<path fill="none" stroke="black" d="M223,-238.71C223,-230.89 223,-222.03 223,-213.27"/>
<polygon fill="black" stroke="black" points="226.5,-213.1 223,-203.1 219.5,-213.1 226.5,-213.1"/>
</g>
<!-- a -->
<g id="node6" class="node">
<title>a</title>
<ellipse fill="none" stroke="black" cx="223" cy="-465.43" rx="41.94" ry="37.45"/>
<text text-anchor="middle" x="223" y="-476.73" font-family="Times,serif" font-size="14.00">a</text>
<text text-anchor="middle" x="223" y="-461.73" font-family="Times,serif" font-size="14.00">~</text>
<text text-anchor="middle" x="223" y="-446.73" font-family="Times,serif" font-size="14.00">Normal</text>
</g>
<!-- a&#45;&gt;mu -->
<g id="edge3" class="edge">
<title>a&#45;&gt;mu</title>
<path fill="none" stroke="black" d="M223,-427.84C223,-416.1 223,-403.11 223,-391.42"/>
<polygon fill="black" stroke="black" points="226.5,-391.11 223,-381.11 219.5,-391.11 226.5,-391.11"/>
</g>
<!-- b -->
<g id="node7" class="node">
<title>b</title>
<ellipse fill="none" stroke="black" cx="324" cy="-465.43" rx="41.94" ry="37.45"/>
<text text-anchor="middle" x="324" y="-476.73" font-family="Times,serif" font-size="14.00">b</text>
<text text-anchor="middle" x="324" y="-461.73" font-family="Times,serif" font-size="14.00">~</text>
<text text-anchor="middle" x="324" y="-446.73" font-family="Times,serif" font-size="14.00">Normal</text>
</g>
<!-- b&#45;&gt;mu -->
<g id="edge2" class="edge">
<title>b&#45;&gt;mu</title>
<path fill="none" stroke="black" d="M303.13,-432.91C294.69,-421.11 284.48,-407.92 274,-396.95 271.07,-393.89 267.92,-390.84 264.67,-387.87"/>
<polygon fill="black" stroke="black" points="266.8,-385.08 256.98,-381.1 262.17,-390.33 266.8,-385.08"/>
</g>
</g>
</svg>
