<?xml version="1.0" encoding="UTF-8" standalone="no"?>
<!DOCTYPE svg PUBLIC "-//W3C//DTD SVG 1.1//EN"
 "http://www.w3.org/Graphics/SVG/1.1/DTD/svg11.dtd">
<!-- Generated by graphviz version 2.50.0 (0)
 -->
<!-- Pages: 1 -->
<svg width="1301pt" height="519pt"
 viewBox="0.00 0.00 1301.00 518.91" xmlns="http://www.w3.org/2000/svg" xmlns:xlink="http://www.w3.org/1999/xlink">
<g id="graph0" class="graph" transform="scale(1 1) rotate(0) translate(4 514.91)">
<polygon fill="white" stroke="transparent" points="-4,4 -4,-514.91 1297,-514.91 1297,4 -4,4"/>
<g id="clust1" class="cluster">
<title>clusterobs (595)</title>
<path fill="none" stroke="black" d="M20,-8C20,-8 371,-8 371,-8 377,-8 383,-14 383,-20 383,-20 383,-479.93 383,-479.93 383,-485.93 377,-491.93 371,-491.93 371,-491.93 20,-491.93 20,-491.93 14,-491.93 8,-485.93 8,-479.93 8,-479.93 8,-20 8,-20 8,-14 14,-8 20,-8"/>
<text text-anchor="middle" x="349" y="-15.8" font-family="Times,serif" font-size="14.00">obs (595)</text>
</g>
<g id="clust2" class="cluster">
<title>clusterperiod_month (12)</title>
<path fill="none" stroke="black" d="M1125,-388.95C1125,-388.95 1273,-388.95 1273,-388.95 1279,-388.95 1285,-394.95 1285,-400.95 1285,-400.95 1285,-490.91 1285,-490.91 1285,-496.91 1279,-502.91 1273,-502.91 1273,-502.91 1125,-502.91 1125,-502.91 1119,-502.91 1113,-496.91 1113,-490.91 1113,-490.91 1113,-400.95 1113,-400.95 1113,-394.95 1119,-388.95 1125,-388.95"/>
<text text-anchor="middle" x="1225.5" y="-396.75" font-family="Times,serif" font-size="14.00">period_month (12)</text>
</g>
<!-- likelihood -->
<g id="node1" class="node">
<title>likelihood</title>
<ellipse fill="lightgrey" stroke="black" cx="273" cy="-165.48" rx="50.41" ry="37.45"/>
<text text-anchor="middle" x="273" y="-176.78" font-family="Times,serif" font-size="14.00">likelihood</text>
<text text-anchor="middle" x="273" y="-161.78" font-family="Times,serif" font-size="14.00">~</text>
<text text-anchor="middle" x="273" y="-146.78" font-family="Times,serif" font-size="14.00">Binomial</text>
</g>
<!-- n_active_users -->
<g id="node8" class="node">
<title>n_active_users</title>
<path fill="lightgrey" stroke="black" d="M309.5,-92C309.5,-92 236.5,-92 236.5,-92 230.5,-92 224.5,-86 224.5,-80 224.5,-80 224.5,-51 224.5,-51 224.5,-45 230.5,-39 236.5,-39 236.5,-39 309.5,-39 309.5,-39 315.5,-39 321.5,-45 321.5,-51 321.5,-51 321.5,-80 321.5,-80 321.5,-86 315.5,-92 309.5,-92"/>
<text text-anchor="middle" x="273" y="-76.8" font-family="Times,serif" font-size="14.00">n_active_users</text>
<text text-anchor="middle" x="273" y="-61.8" font-family="Times,serif" font-size="14.00">~</text>
<text text-anchor="middle" x="273" y="-46.8" font-family="Times,serif" font-size="14.00">MutableData</text>
</g>
<!-- likelihood&#45;&gt;n_active_users -->
<g id="edge1" class="edge">
<title>likelihood&#45;&gt;n_active_users</title>
<path fill="none" stroke="black" d="M273,-127.99C273,-119.58 273,-110.63 273,-102.25"/>
<polygon fill="black" stroke="black" points="276.5,-102.01 273,-92.01 269.5,-102.01 276.5,-102.01"/>
</g>
<!-- cohort_age_scaled -->
<g id="node2" class="node">
<title>cohort_age_scaled</title>
<path fill="lightgrey" stroke="black" d="M362.5,-483.93C362.5,-483.93 269.5,-483.93 269.5,-483.93 263.5,-483.93 257.5,-477.93 257.5,-471.93 257.5,-471.93 257.5,-442.93 257.5,-442.93 257.5,-436.93 263.5,-430.93 269.5,-430.93 269.5,-430.93 362.5,-430.93 362.5,-430.93 368.5,-430.93 374.5,-436.93 374.5,-442.93 374.5,-442.93 374.5,-471.93 374.5,-471.93 374.5,-477.93 368.5,-483.93 362.5,-483.93"/>
<text text-anchor="middle" x="316" y="-468.73" font-family="Times,serif" font-size="14.00">cohort_age_scaled</text>
<text text-anchor="middle" x="316" y="-453.73" font-family="Times,serif" font-size="14.00">~</text>
<text text-anchor="middle" x="316" y="-438.73" font-family="Times,serif" font-size="14.00">MutableData</text>
</g>
<!-- mu -->
<g id="node4" class="node">
<title>mu</title>
<polygon fill="none" stroke="black" points="374.5,-380.95 283.5,-380.95 283.5,-327.95 374.5,-327.95 374.5,-380.95"/>
<text text-anchor="middle" x="329" y="-365.75" font-family="Times,serif" font-size="14.00">mu</text>
<text text-anchor="middle" x="329" y="-350.75" font-family="Times,serif" font-size="14.00">~</text>
<text text-anchor="middle" x="329" y="-335.75" font-family="Times,serif" font-size="14.00">Deterministic</text>
</g>
<!-- cohort_age_scaled&#45;&gt;mu -->
<g id="edge2" class="edge">
<title>cohort_age_scaled&#45;&gt;mu</title>
<path fill="none" stroke="black" d="M319.31,-430.69C320.86,-418.7 322.72,-404.24 324.4,-391.21"/>
<polygon fill="black" stroke="black" points="327.89,-391.51 325.69,-381.15 320.94,-390.62 327.89,-391.51"/>
</g>
<!-- p -->
<g id="node3" class="node">
<title>p</title>
<polygon fill="none" stroke="black" points="374.5,-291.95 283.5,-291.95 283.5,-238.95 374.5,-238.95 374.5,-291.95"/>
<text text-anchor="middle" x="329" y="-276.75" font-family="Times,serif" font-size="14.00">p</text>
<text text-anchor="middle" x="329" y="-261.75" font-family="Times,serif" font-size="14.00">~</text>
<text text-anchor="middle" x="329" y="-246.75" font-family="Times,serif" font-size="14.00">Deterministic</text>
</g>
<!-- p&#45;&gt;likelihood -->
<g id="edge12" class="edge">
<title>p&#45;&gt;likelihood</title>
<path fill="none" stroke="black" d="M314.29,-238.71C309.07,-229.59 303.06,-219.07 297.26,-208.93"/>
<polygon fill="black" stroke="black" points="300.25,-207.11 292.25,-200.16 294.18,-210.58 300.25,-207.11"/>
</g>
<!-- mu&#45;&gt;p -->
<g id="edge10" class="edge">
<title>mu&#45;&gt;p</title>
<path fill="none" stroke="black" d="M329,-327.82C329,-319.84 329,-310.89 329,-302.34"/>
<polygon fill="black" stroke="black" points="332.5,-302.2 329,-292.2 325.5,-302.2 332.5,-302.2"/>
</g>
<!-- period_month_idx -->
<g id="node5" class="node">
<title>period_month_idx</title>
<path fill="lightgrey" stroke="black" d="M227.5,-483.93C227.5,-483.93 134.5,-483.93 134.5,-483.93 128.5,-483.93 122.5,-477.93 122.5,-471.93 122.5,-471.93 122.5,-442.93 122.5,-442.93 122.5,-436.93 128.5,-430.93 134.5,-430.93 134.5,-430.93 227.5,-430.93 227.5,-430.93 233.5,-430.93 239.5,-436.93 239.5,-442.93 239.5,-442.93 239.5,-471.93 239.5,-471.93 239.5,-477.93 233.5,-483.93 227.5,-483.93"/>
<text text-anchor="middle" x="181" y="-468.73" font-family="Times,serif" font-size="14.00">period_month_idx</text>
<text text-anchor="middle" x="181" y="-453.73" font-family="Times,serif" font-size="14.00">~</text>
<text text-anchor="middle" x="181" y="-438.73" font-family="Times,serif" font-size="14.00">MutableData</text>
</g>
<!-- period_month_idx&#45;&gt;mu -->
<g id="edge6" class="edge">
<title>period_month_idx&#45;&gt;mu</title>
<path fill="none" stroke="black" d="M202.32,-430.91C214.83,-417.12 231.58,-400.6 249,-388.95 256.72,-383.79 265.37,-379.17 274.05,-375.14"/>
<polygon fill="black" stroke="black" points="275.7,-378.23 283.43,-370.98 272.87,-371.83 275.7,-378.23"/>
</g>
<!-- age_scaled -->
<g id="node6" class="node">
<title>age_scaled</title>
<path fill="lightgrey" stroke="black" d="M92,-483.93C92,-483.93 28,-483.93 28,-483.93 22,-483.93 16,-477.93 16,-471.93 16,-471.93 16,-442.93 16,-442.93 16,-436.93 22,-430.93 28,-430.93 28,-430.93 92,-430.93 92,-430.93 98,-430.93 104,-436.93 104,-442.93 104,-442.93 104,-471.93 104,-471.93 104,-477.93 98,-483.93 92,-483.93"/>
<text text-anchor="middle" x="60" y="-468.73" font-family="Times,serif" font-size="14.00">age_scaled</text>
<text text-anchor="middle" x="60" y="-453.73" font-family="Times,serif" font-size="14.00">~</text>
<text text-anchor="middle" x="60" y="-438.73" font-family="Times,serif" font-size="14.00">MutableData</text>
</g>
<!-- age_scaled&#45;&gt;mu -->
<g id="edge8" class="edge">
<title>age_scaled&#45;&gt;mu</title>
<path fill="none" stroke="black" d="M73.89,-430.93C83.25,-416.25 96.99,-398.81 114,-388.95 140.33,-373.69 218.68,-364.37 273.14,-359.56"/>
<polygon fill="black" stroke="black" points="273.69,-363.03 283.35,-358.68 273.09,-356.05 273.69,-363.03"/>
</g>
<!-- n_users -->
<g id="node7" class="node">
<title>n_users</title>
<path fill="lightgrey" stroke="black" d="M253,-291.95C253,-291.95 189,-291.95 189,-291.95 183,-291.95 177,-285.95 177,-279.95 177,-279.95 177,-250.95 177,-250.95 177,-244.95 183,-238.95 189,-238.95 189,-238.95 253,-238.95 253,-238.95 259,-238.95 265,-244.95 265,-250.95 265,-250.95 265,-279.95 265,-279.95 265,-285.95 259,-291.95 253,-291.95"/>
<text text-anchor="middle" x="221" y="-276.75" font-family="Times,serif" font-size="14.00">n_users</text>
<text text-anchor="middle" x="221" y="-261.75" font-family="Times,serif" font-size="14.00">~</text>
<text text-anchor="middle" x="221" y="-246.75" font-family="Times,serif" font-size="14.00">MutableData</text>
</g>
<!-- n_users&#45;&gt;likelihood -->
<g id="edge11" class="edge">
<title>n_users&#45;&gt;likelihood</title>
<path fill="none" stroke="black" d="M234.66,-238.71C239.41,-229.77 244.87,-219.48 250.15,-209.53"/>
<polygon fill="black" stroke="black" points="253.33,-211 254.93,-200.52 247.15,-207.72 253.33,-211"/>
</g>
<!-- b_age_cohort_age_interaction -->
<g id="node9" class="node">
<title>b_age_cohort_age_interaction</title>
<ellipse fill="none" stroke="black" cx="520" cy="-457.43" rx="127.06" ry="37.45"/>
<text text-anchor="middle" x="520" y="-468.73" font-family="Times,serif" font-size="14.00">b_age_cohort_age_interaction</text>
<text text-anchor="middle" x="520" y="-453.73" font-family="Times,serif" font-size="14.00">~</text>
<text text-anchor="middle" x="520" y="-438.73" font-family="Times,serif" font-size="14.00">Normal</text>
</g>
<!-- b_age_cohort_age_interaction&#45;&gt;mu -->
<g id="edge9" class="edge">
<title>b_age_cohort_age_interaction&#45;&gt;mu</title>
<path fill="none" stroke="black" d="M459.3,-424.34C434.99,-411.49 407.19,-396.79 383.54,-384.28"/>
<polygon fill="black" stroke="black" points="385.16,-381.19 374.69,-379.61 381.89,-387.37 385.16,-381.19"/>
</g>
<!-- b_age_scaled -->
<g id="node10" class="node">
<title>b_age_scaled</title>
<ellipse fill="none" stroke="black" cx="728" cy="-457.43" rx="62.87" ry="37.45"/>
<text text-anchor="middle" x="728" y="-468.73" font-family="Times,serif" font-size="14.00">b_age_scaled</text>
<text text-anchor="middle" x="728" y="-453.73" font-family="Times,serif" font-size="14.00">~</text>
<text text-anchor="middle" x="728" y="-438.73" font-family="Times,serif" font-size="14.00">Normal</text>
</g>
<!-- b_age_scaled&#45;&gt;mu -->
<g id="edge5" class="edge">
<title>b_age_scaled&#45;&gt;mu</title>
<path fill="none" stroke="black" d="M701.19,-423.25C688.85,-410.32 673.15,-396.77 656,-388.95 609.1,-367.58 465.57,-359.69 385.13,-356.9"/>
<polygon fill="black" stroke="black" points="384.81,-353.38 374.7,-356.55 384.57,-360.38 384.81,-353.38"/>
</g>
<!-- b_cohort_age_scaled -->
<g id="node11" class="node">
<title>b_cohort_age_scaled</title>
<ellipse fill="none" stroke="black" cx="902" cy="-457.43" rx="92.76" ry="37.45"/>
<text text-anchor="middle" x="902" y="-468.73" font-family="Times,serif" font-size="14.00">b_cohort_age_scaled</text>
<text text-anchor="middle" x="902" y="-453.73" font-family="Times,serif" font-size="14.00">~</text>
<text text-anchor="middle" x="902" y="-438.73" font-family="Times,serif" font-size="14.00">Normal</text>
</g>
<!-- b_cohort_age_scaled&#45;&gt;mu -->
<g id="edge3" class="edge">
<title>b_cohort_age_scaled&#45;&gt;mu</title>
<path fill="none" stroke="black" d="M862.38,-423.31C844.45,-410.23 822.31,-396.54 800,-388.95 724.62,-363.33 492.49,-357.3 384.86,-355.89"/>
<polygon fill="black" stroke="black" points="384.88,-352.39 374.84,-355.76 384.8,-359.39 384.88,-352.39"/>
</g>
<!-- intercept -->
<g id="node12" class="node">
<title>intercept</title>
<ellipse fill="none" stroke="black" cx="1058" cy="-457.43" rx="45.01" ry="37.45"/>
<text text-anchor="middle" x="1058" y="-468.73" font-family="Times,serif" font-size="14.00">intercept</text>
<text text-anchor="middle" x="1058" y="-453.73" font-family="Times,serif" font-size="14.00">~</text>
<text text-anchor="middle" x="1058" y="-438.73" font-family="Times,serif" font-size="14.00">Normal</text>
</g>
<!-- intercept&#45;&gt;mu -->
<g id="edge7" class="edge">
<title>intercept&#45;&gt;mu</title>
<path fill="none" stroke="black" d="M1039.68,-422.95C1030.73,-409.98 1018.69,-396.47 1004,-388.95 949.56,-361.11 536.2,-356.4 384.56,-355.61"/>
<polygon fill="black" stroke="black" points="384.54,-352.11 374.52,-355.56 384.51,-359.11 384.54,-352.11"/>
</g>
<!-- b_period_month -->
<g id="node13" class="node">
<title>b_period_month</title>
<ellipse fill="none" stroke="black" cx="1199" cy="-457.43" rx="77.56" ry="37.45"/>
<text text-anchor="middle" x="1199" y="-468.73" font-family="Times,serif" font-size="14.00">b_period_month</text>
<text text-anchor="middle" x="1199" y="-453.73" font-family="Times,serif" font-size="14.00">~</text>
<text text-anchor="middle" x="1199" y="-438.73" font-family="Times,serif" font-size="14.00">ZeroSumNormal</text>
</g>
<!-- b_period_month&#45;&gt;mu -->
<g id="edge4" class="edge">
<title>b_period_month&#45;&gt;mu</title>
<path fill="none" stroke="black" d="M1166.06,-423.04C1150.92,-409.91 1131.92,-396.25 1112,-388.95 1044.31,-364.15 552.04,-357.45 384.59,-355.88"/>
<polygon fill="black" stroke="black" points="384.54,-352.38 374.5,-355.79 384.47,-359.38 384.54,-352.38"/>
</g>
</g>
</svg>
