<?xml version="1.0" encoding="utf-8" standalone="no"?>
<!DOCTYPE svg PUBLIC "-//W3C//DTD SVG 1.1//EN"
  "http://www.w3.org/Graphics/SVG/1.1/DTD/svg11.dtd">
<!-- Created with matplotlib (https://matplotlib.org/) -->
<svg height="384.58625pt" version="1.1" viewBox="0 0 606.684375 384.58625" width="606.684375pt" xmlns="http://www.w3.org/2000/svg" xmlns:xlink="http://www.w3.org/1999/xlink">
 <metadata>
  <rdf:RDF xmlns:cc="http://creativecommons.org/ns#" xmlns:dc="http://purl.org/dc/elements/1.1/" xmlns:rdf="http://www.w3.org/1999/02/22-rdf-syntax-ns#">
   <cc:Work>
    <dc:type rdf:resource="http://purl.org/dc/dcmitype/StillImage"/>
    <dc:date>2021-08-31T11:52:08.631872</dc:date>
    <dc:format>image/svg+xml</dc:format>
    <dc:creator>
     <cc:Agent>
      <dc:title>Matplotlib v3.3.4, https://matplotlib.org/</dc:title>
     </cc:Agent>
    </dc:creator>
   </cc:Work>
  </rdf:RDF>
 </metadata>
 <defs>
  <style type="text/css">*{stroke-linecap:butt;stroke-linejoin:round;}</style>
 </defs>
 <g id="figure_1">
  <g id="patch_1">
   <path d="M 0 384.58625 
L 606.684375 384.58625 
L 606.684375 0 
L 0 0 
z
" style="fill:#ffffff;"/>
  </g>
  <g id="axes_1">
   <g id="patch_2">
    <path d="M 41.484375 348.095625 
L 599.484375 348.095625 
L 599.484375 21.935625 
L 41.484375 21.935625 
z
" style="fill:#e6e6e6;"/>
   </g>
   <g id="matplotlib.axis_1">
    <g id="xtick_1">
     <g id="line2d_1">
      <path clip-path="url(#p519085f6d9)" d="M 66.848011 348.095625 
L 66.848011 21.935625 
" style="fill:none;stroke:#cccccc;stroke-linecap:round;stroke-width:0.8;"/>
     </g>
     <g id="text_1">
      <!-- 0 -->
      <g style="fill:#262626;" transform="translate(64.067543 362.253438)scale(0.1 -0.1)">
       <defs>
        <path d="M 4.15625 35.296875 
Q 4.15625 48 6.765625 55.734375 
Q 9.375 63.484375 14.515625 67.671875 
Q 19.671875 71.875 27.484375 71.875 
Q 33.25 71.875 37.59375 69.546875 
Q 41.9375 67.234375 44.765625 62.859375 
Q 47.609375 58.5 49.21875 52.21875 
Q 50.828125 45.953125 50.828125 35.296875 
Q 50.828125 22.703125 48.234375 14.96875 
Q 45.65625 7.234375 40.5 3 
Q 35.359375 -1.21875 27.484375 -1.21875 
Q 17.140625 -1.21875 11.234375 6.203125 
Q 4.15625 15.140625 4.15625 35.296875 
z
M 13.1875 35.296875 
Q 13.1875 17.671875 17.3125 11.828125 
Q 21.4375 6 27.484375 6 
Q 33.546875 6 37.671875 11.859375 
Q 41.796875 17.71875 41.796875 35.296875 
Q 41.796875 52.984375 37.671875 58.78125 
Q 33.546875 64.59375 27.390625 64.59375 
Q 21.34375 64.59375 17.71875 59.46875 
Q 13.1875 52.9375 13.1875 35.296875 
z
" id="ArialMT-48"/>
       </defs>
       <use xlink:href="#ArialMT-48"/>
      </g>
     </g>
    </g>
    <g id="xtick_2">
     <g id="line2d_2">
      <path clip-path="url(#p519085f6d9)" d="M 189.733846 348.095625 
L 189.733846 21.935625 
" style="fill:none;stroke:#cccccc;stroke-linecap:round;stroke-width:0.8;"/>
     </g>
     <g id="text_2">
      <!-- 20 -->
      <g style="fill:#262626;" transform="translate(184.172909 362.253438)scale(0.1 -0.1)">
       <defs>
        <path d="M 50.34375 8.453125 
L 50.34375 0 
L 3.03125 0 
Q 2.9375 3.171875 4.046875 6.109375 
Q 5.859375 10.9375 9.828125 15.625 
Q 13.8125 20.3125 21.34375 26.46875 
Q 33.015625 36.03125 37.109375 41.625 
Q 41.21875 47.21875 41.21875 52.203125 
Q 41.21875 57.421875 37.46875 61 
Q 33.734375 64.59375 27.734375 64.59375 
Q 21.390625 64.59375 17.578125 60.78125 
Q 13.765625 56.984375 13.71875 50.25 
L 4.6875 51.171875 
Q 5.609375 61.28125 11.65625 66.578125 
Q 17.71875 71.875 27.9375 71.875 
Q 38.234375 71.875 44.234375 66.15625 
Q 50.25 60.453125 50.25 52 
Q 50.25 47.703125 48.484375 43.546875 
Q 46.734375 39.40625 42.65625 34.8125 
Q 38.578125 30.21875 29.109375 22.21875 
Q 21.1875 15.578125 18.9375 13.203125 
Q 16.703125 10.84375 15.234375 8.453125 
z
" id="ArialMT-50"/>
       </defs>
       <use xlink:href="#ArialMT-50"/>
       <use x="55.615234" xlink:href="#ArialMT-48"/>
      </g>
     </g>
    </g>
    <g id="xtick_3">
     <g id="line2d_3">
      <path clip-path="url(#p519085f6d9)" d="M 312.619682 348.095625 
L 312.619682 21.935625 
" style="fill:none;stroke:#cccccc;stroke-linecap:round;stroke-width:0.8;"/>
     </g>
     <g id="text_3">
      <!-- 40 -->
      <g style="fill:#262626;" transform="translate(307.058744 362.253438)scale(0.1 -0.1)">
       <defs>
        <path d="M 32.328125 0 
L 32.328125 17.140625 
L 1.265625 17.140625 
L 1.265625 25.203125 
L 33.9375 71.578125 
L 41.109375 71.578125 
L 41.109375 25.203125 
L 50.78125 25.203125 
L 50.78125 17.140625 
L 41.109375 17.140625 
L 41.109375 0 
z
M 32.328125 25.203125 
L 32.328125 57.46875 
L 9.90625 25.203125 
z
" id="ArialMT-52"/>
       </defs>
       <use xlink:href="#ArialMT-52"/>
       <use x="55.615234" xlink:href="#ArialMT-48"/>
      </g>
     </g>
    </g>
    <g id="xtick_4">
     <g id="line2d_4">
      <path clip-path="url(#p519085f6d9)" d="M 435.505517 348.095625 
L 435.505517 21.935625 
" style="fill:none;stroke:#cccccc;stroke-linecap:round;stroke-width:0.8;"/>
     </g>
     <g id="text_4">
      <!-- 60 -->
      <g style="fill:#262626;" transform="translate(429.944579 362.253438)scale(0.1 -0.1)">
       <defs>
        <path d="M 49.75 54.046875 
L 41.015625 53.375 
Q 39.84375 58.546875 37.703125 60.890625 
Q 34.125 64.65625 28.90625 64.65625 
Q 24.703125 64.65625 21.53125 62.3125 
Q 17.390625 59.28125 14.984375 53.46875 
Q 12.59375 47.65625 12.5 36.921875 
Q 15.671875 41.75 20.265625 44.09375 
Q 24.859375 46.4375 29.890625 46.4375 
Q 38.671875 46.4375 44.84375 39.96875 
Q 51.03125 33.5 51.03125 23.25 
Q 51.03125 16.5 48.125 10.71875 
Q 45.21875 4.9375 40.140625 1.859375 
Q 35.0625 -1.21875 28.609375 -1.21875 
Q 17.625 -1.21875 10.6875 6.859375 
Q 3.765625 14.9375 3.765625 33.5 
Q 3.765625 54.25 11.421875 63.671875 
Q 18.109375 71.875 29.4375 71.875 
Q 37.890625 71.875 43.28125 67.140625 
Q 48.6875 62.40625 49.75 54.046875 
z
M 13.875 23.1875 
Q 13.875 18.65625 15.796875 14.5 
Q 17.71875 10.359375 21.1875 8.171875 
Q 24.65625 6 28.46875 6 
Q 34.03125 6 38.03125 10.484375 
Q 42.046875 14.984375 42.046875 22.703125 
Q 42.046875 30.125 38.078125 34.390625 
Q 34.125 38.671875 28.125 38.671875 
Q 22.171875 38.671875 18.015625 34.390625 
Q 13.875 30.125 13.875 23.1875 
z
" id="ArialMT-54"/>
       </defs>
       <use xlink:href="#ArialMT-54"/>
       <use x="55.615234" xlink:href="#ArialMT-48"/>
      </g>
     </g>
    </g>
    <g id="xtick_5">
     <g id="line2d_5">
      <path clip-path="url(#p519085f6d9)" d="M 558.391352 348.095625 
L 558.391352 21.935625 
" style="fill:none;stroke:#cccccc;stroke-linecap:round;stroke-width:0.8;"/>
     </g>
     <g id="text_5">
      <!-- 80 -->
      <g style="fill:#262626;" transform="translate(552.830414 362.253438)scale(0.1 -0.1)">
       <defs>
        <path d="M 17.671875 38.8125 
Q 12.203125 40.828125 9.5625 44.53125 
Q 6.9375 48.25 6.9375 53.421875 
Q 6.9375 61.234375 12.546875 66.546875 
Q 18.171875 71.875 27.484375 71.875 
Q 36.859375 71.875 42.578125 66.421875 
Q 48.296875 60.984375 48.296875 53.171875 
Q 48.296875 48.1875 45.671875 44.5 
Q 43.0625 40.828125 37.75 38.8125 
Q 44.34375 36.671875 47.78125 31.875 
Q 51.21875 27.09375 51.21875 20.453125 
Q 51.21875 11.28125 44.71875 5.03125 
Q 38.234375 -1.21875 27.640625 -1.21875 
Q 17.046875 -1.21875 10.546875 5.046875 
Q 4.046875 11.328125 4.046875 20.703125 
Q 4.046875 27.6875 7.59375 32.390625 
Q 11.140625 37.109375 17.671875 38.8125 
z
M 15.921875 53.71875 
Q 15.921875 48.640625 19.1875 45.40625 
Q 22.46875 42.1875 27.6875 42.1875 
Q 32.765625 42.1875 36.015625 45.375 
Q 39.265625 48.578125 39.265625 53.21875 
Q 39.265625 58.0625 35.90625 61.359375 
Q 32.5625 64.65625 27.59375 64.65625 
Q 22.5625 64.65625 19.234375 61.421875 
Q 15.921875 58.203125 15.921875 53.71875 
z
M 13.09375 20.65625 
Q 13.09375 16.890625 14.875 13.375 
Q 16.65625 9.859375 20.171875 7.921875 
Q 23.6875 6 27.734375 6 
Q 34.03125 6 38.125 10.046875 
Q 42.234375 14.109375 42.234375 20.359375 
Q 42.234375 26.703125 38.015625 30.859375 
Q 33.796875 35.015625 27.4375 35.015625 
Q 21.234375 35.015625 17.15625 30.90625 
Q 13.09375 26.8125 13.09375 20.65625 
z
" id="ArialMT-56"/>
       </defs>
       <use xlink:href="#ArialMT-56"/>
       <use x="55.615234" xlink:href="#ArialMT-48"/>
      </g>
     </g>
    </g>
    <g id="text_6">
     <!-- Months -->
     <g style="fill:#262626;" transform="translate(304.089063 375.39875)scale(0.1 -0.1)">
      <defs>
       <path d="M 7.421875 0 
L 7.421875 71.578125 
L 21.6875 71.578125 
L 38.625 20.90625 
Q 40.96875 13.8125 42.046875 10.296875 
Q 43.265625 14.203125 45.84375 21.78125 
L 62.984375 71.578125 
L 75.734375 71.578125 
L 75.734375 0 
L 66.609375 0 
L 66.609375 59.90625 
L 45.796875 0 
L 37.25 0 
L 16.546875 60.9375 
L 16.546875 0 
z
" id="ArialMT-77"/>
       <path d="M 3.328125 25.921875 
Q 3.328125 40.328125 11.328125 47.265625 
Q 18.015625 53.03125 27.640625 53.03125 
Q 38.328125 53.03125 45.109375 46.015625 
Q 51.90625 39.015625 51.90625 26.65625 
Q 51.90625 16.65625 48.90625 10.90625 
Q 45.90625 5.171875 40.15625 2 
Q 34.421875 -1.171875 27.640625 -1.171875 
Q 16.75 -1.171875 10.03125 5.8125 
Q 3.328125 12.796875 3.328125 25.921875 
z
M 12.359375 25.921875 
Q 12.359375 15.96875 16.703125 11.015625 
Q 21.046875 6.0625 27.640625 6.0625 
Q 34.1875 6.0625 38.53125 11.03125 
Q 42.875 16.015625 42.875 26.21875 
Q 42.875 35.84375 38.5 40.796875 
Q 34.125 45.75 27.640625 45.75 
Q 21.046875 45.75 16.703125 40.8125 
Q 12.359375 35.890625 12.359375 25.921875 
z
" id="ArialMT-111"/>
       <path d="M 6.59375 0 
L 6.59375 51.859375 
L 14.5 51.859375 
L 14.5 44.484375 
Q 20.21875 53.03125 31 53.03125 
Q 35.6875 53.03125 39.625 51.34375 
Q 43.5625 49.65625 45.515625 46.921875 
Q 47.46875 44.1875 48.25 40.4375 
Q 48.734375 37.984375 48.734375 31.890625 
L 48.734375 0 
L 39.9375 0 
L 39.9375 31.546875 
Q 39.9375 36.921875 38.90625 39.578125 
Q 37.890625 42.234375 35.28125 43.8125 
Q 32.671875 45.40625 29.15625 45.40625 
Q 23.53125 45.40625 19.453125 41.84375 
Q 15.375 38.28125 15.375 28.328125 
L 15.375 0 
z
" id="ArialMT-110"/>
       <path d="M 25.78125 7.859375 
L 27.046875 0.09375 
Q 23.34375 -0.6875 20.40625 -0.6875 
Q 15.625 -0.6875 12.984375 0.828125 
Q 10.359375 2.34375 9.28125 4.8125 
Q 8.203125 7.28125 8.203125 15.1875 
L 8.203125 45.015625 
L 1.765625 45.015625 
L 1.765625 51.859375 
L 8.203125 51.859375 
L 8.203125 64.703125 
L 16.9375 69.96875 
L 16.9375 51.859375 
L 25.78125 51.859375 
L 25.78125 45.015625 
L 16.9375 45.015625 
L 16.9375 14.703125 
Q 16.9375 10.9375 17.40625 9.859375 
Q 17.875 8.796875 18.921875 8.15625 
Q 19.96875 7.515625 21.921875 7.515625 
Q 23.390625 7.515625 25.78125 7.859375 
z
" id="ArialMT-116"/>
       <path d="M 6.59375 0 
L 6.59375 71.578125 
L 15.375 71.578125 
L 15.375 45.90625 
Q 21.53125 53.03125 30.90625 53.03125 
Q 36.671875 53.03125 40.921875 50.75 
Q 45.171875 48.484375 47 44.484375 
Q 48.828125 40.484375 48.828125 32.859375 
L 48.828125 0 
L 40.046875 0 
L 40.046875 32.859375 
Q 40.046875 39.453125 37.1875 42.453125 
Q 34.328125 45.453125 29.109375 45.453125 
Q 25.203125 45.453125 21.75 43.421875 
Q 18.3125 41.40625 16.84375 37.9375 
Q 15.375 34.46875 15.375 28.375 
L 15.375 0 
z
" id="ArialMT-104"/>
       <path d="M 3.078125 15.484375 
L 11.765625 16.84375 
Q 12.5 11.625 15.84375 8.84375 
Q 19.1875 6.0625 25.203125 6.0625 
Q 31.25 6.0625 34.171875 8.515625 
Q 37.109375 10.984375 37.109375 14.3125 
Q 37.109375 17.28125 34.515625 19 
Q 32.71875 20.171875 25.53125 21.96875 
Q 15.875 24.421875 12.140625 26.203125 
Q 8.40625 27.984375 6.46875 31.125 
Q 4.546875 34.28125 4.546875 38.09375 
Q 4.546875 41.546875 6.125 44.5 
Q 7.71875 47.46875 10.453125 49.421875 
Q 12.5 50.921875 16.03125 51.96875 
Q 19.578125 53.03125 23.640625 53.03125 
Q 29.734375 53.03125 34.34375 51.265625 
Q 38.96875 49.515625 41.15625 46.5 
Q 43.359375 43.5 44.1875 38.484375 
L 35.59375 37.3125 
Q 35.015625 41.3125 32.203125 43.546875 
Q 29.390625 45.796875 24.265625 45.796875 
Q 18.21875 45.796875 15.625 43.796875 
Q 13.03125 41.796875 13.03125 39.109375 
Q 13.03125 37.40625 14.109375 36.03125 
Q 15.1875 34.625 17.484375 33.6875 
Q 18.796875 33.203125 25.25 31.453125 
Q 34.578125 28.953125 38.25 27.359375 
Q 41.9375 25.78125 44.03125 22.75 
Q 46.140625 19.734375 46.140625 15.234375 
Q 46.140625 10.84375 43.578125 6.953125 
Q 41.015625 3.078125 36.171875 0.953125 
Q 31.34375 -1.171875 25.25 -1.171875 
Q 15.140625 -1.171875 9.84375 3.03125 
Q 4.546875 7.234375 3.078125 15.484375 
z
" id="ArialMT-115"/>
      </defs>
      <use xlink:href="#ArialMT-77"/>
      <use x="83.300781" xlink:href="#ArialMT-111"/>
      <use x="138.916016" xlink:href="#ArialMT-110"/>
      <use x="194.53125" xlink:href="#ArialMT-116"/>
      <use x="222.314453" xlink:href="#ArialMT-104"/>
      <use x="277.929688" xlink:href="#ArialMT-115"/>
     </g>
    </g>
   </g>
   <g id="matplotlib.axis_2">
    <g id="ytick_1">
     <g id="line2d_6">
      <path clip-path="url(#p519085f6d9)" d="M 41.484375 343.661215 
L 599.484375 343.661215 
" style="fill:none;stroke:#cccccc;stroke-linecap:round;stroke-width:0.8;"/>
     </g>
     <g id="text_7">
      <!-- 0.2 -->
      <g style="fill:#262626;" transform="translate(20.584375 347.240122)scale(0.1 -0.1)">
       <defs>
        <path d="M 9.078125 0 
L 9.078125 10.015625 
L 19.09375 10.015625 
L 19.09375 0 
z
" id="ArialMT-46"/>
       </defs>
       <use xlink:href="#ArialMT-48"/>
       <use x="55.615234" xlink:href="#ArialMT-46"/>
       <use x="83.398438" xlink:href="#ArialMT-50"/>
      </g>
     </g>
    </g>
    <g id="ytick_2">
     <g id="line2d_7">
      <path clip-path="url(#p519085f6d9)" d="M 41.484375 305.298698 
L 599.484375 305.298698 
" style="fill:none;stroke:#cccccc;stroke-linecap:round;stroke-width:0.8;"/>
     </g>
     <g id="text_8">
      <!-- 0.3 -->
      <g style="fill:#262626;" transform="translate(20.584375 308.877605)scale(0.1 -0.1)">
       <defs>
        <path d="M 4.203125 18.890625 
L 12.984375 20.0625 
Q 14.5 12.59375 18.140625 9.296875 
Q 21.78125 6 27 6 
Q 33.203125 6 37.46875 10.296875 
Q 41.75 14.59375 41.75 20.953125 
Q 41.75 27 37.796875 30.921875 
Q 33.84375 34.859375 27.734375 34.859375 
Q 25.25 34.859375 21.53125 33.890625 
L 22.515625 41.609375 
Q 23.390625 41.5 23.921875 41.5 
Q 29.546875 41.5 34.03125 44.421875 
Q 38.53125 47.359375 38.53125 53.46875 
Q 38.53125 58.296875 35.25 61.46875 
Q 31.984375 64.65625 26.8125 64.65625 
Q 21.6875 64.65625 18.265625 61.421875 
Q 14.84375 58.203125 13.875 51.765625 
L 5.078125 53.328125 
Q 6.6875 62.15625 12.390625 67.015625 
Q 18.109375 71.875 26.609375 71.875 
Q 32.46875 71.875 37.390625 69.359375 
Q 42.328125 66.84375 44.9375 62.5 
Q 47.5625 58.15625 47.5625 53.265625 
Q 47.5625 48.640625 45.0625 44.828125 
Q 42.578125 41.015625 37.703125 38.765625 
Q 44.046875 37.3125 47.5625 32.6875 
Q 51.078125 28.078125 51.078125 21.140625 
Q 51.078125 11.765625 44.234375 5.25 
Q 37.40625 -1.265625 26.953125 -1.265625 
Q 17.53125 -1.265625 11.296875 4.34375 
Q 5.078125 9.96875 4.203125 18.890625 
z
" id="ArialMT-51"/>
       </defs>
       <use xlink:href="#ArialMT-48"/>
       <use x="55.615234" xlink:href="#ArialMT-46"/>
       <use x="83.398438" xlink:href="#ArialMT-51"/>
      </g>
     </g>
    </g>
    <g id="ytick_3">
     <g id="line2d_8">
      <path clip-path="url(#p519085f6d9)" d="M 41.484375 266.936182 
L 599.484375 266.936182 
" style="fill:none;stroke:#cccccc;stroke-linecap:round;stroke-width:0.8;"/>
     </g>
     <g id="text_9">
      <!-- 0.4 -->
      <g style="fill:#262626;" transform="translate(20.584375 270.515088)scale(0.1 -0.1)">
       <use xlink:href="#ArialMT-48"/>
       <use x="55.615234" xlink:href="#ArialMT-46"/>
       <use x="83.398438" xlink:href="#ArialMT-52"/>
      </g>
     </g>
    </g>
    <g id="ytick_4">
     <g id="line2d_9">
      <path clip-path="url(#p519085f6d9)" d="M 41.484375 228.573665 
L 599.484375 228.573665 
" style="fill:none;stroke:#cccccc;stroke-linecap:round;stroke-width:0.8;"/>
     </g>
     <g id="text_10">
      <!-- 0.5 -->
      <g style="fill:#262626;" transform="translate(20.584375 232.152571)scale(0.1 -0.1)">
       <defs>
        <path d="M 4.15625 18.75 
L 13.375 19.53125 
Q 14.40625 12.796875 18.140625 9.390625 
Q 21.875 6 27.15625 6 
Q 33.5 6 37.890625 10.78125 
Q 42.28125 15.578125 42.28125 23.484375 
Q 42.28125 31 38.0625 35.34375 
Q 33.84375 39.703125 27 39.703125 
Q 22.75 39.703125 19.328125 37.765625 
Q 15.921875 35.84375 13.96875 32.765625 
L 5.71875 33.84375 
L 12.640625 70.609375 
L 48.25 70.609375 
L 48.25 62.203125 
L 19.671875 62.203125 
L 15.828125 42.96875 
Q 22.265625 47.46875 29.34375 47.46875 
Q 38.71875 47.46875 45.15625 40.96875 
Q 51.609375 34.46875 51.609375 24.265625 
Q 51.609375 14.546875 45.953125 7.46875 
Q 39.0625 -1.21875 27.15625 -1.21875 
Q 17.390625 -1.21875 11.203125 4.25 
Q 5.03125 9.71875 4.15625 18.75 
z
" id="ArialMT-53"/>
       </defs>
       <use xlink:href="#ArialMT-48"/>
       <use x="55.615234" xlink:href="#ArialMT-46"/>
       <use x="83.398438" xlink:href="#ArialMT-53"/>
      </g>
     </g>
    </g>
    <g id="ytick_5">
     <g id="line2d_10">
      <path clip-path="url(#p519085f6d9)" d="M 41.484375 190.211148 
L 599.484375 190.211148 
" style="fill:none;stroke:#cccccc;stroke-linecap:round;stroke-width:0.8;"/>
     </g>
     <g id="text_11">
      <!-- 0.6 -->
      <g style="fill:#262626;" transform="translate(20.584375 193.790054)scale(0.1 -0.1)">
       <use xlink:href="#ArialMT-48"/>
       <use x="55.615234" xlink:href="#ArialMT-46"/>
       <use x="83.398438" xlink:href="#ArialMT-54"/>
      </g>
     </g>
    </g>
    <g id="ytick_6">
     <g id="line2d_11">
      <path clip-path="url(#p519085f6d9)" d="M 41.484375 151.848631 
L 599.484375 151.848631 
" style="fill:none;stroke:#cccccc;stroke-linecap:round;stroke-width:0.8;"/>
     </g>
     <g id="text_12">
      <!-- 0.7 -->
      <g style="fill:#262626;" transform="translate(20.584375 155.427537)scale(0.1 -0.1)">
       <defs>
        <path d="M 4.734375 62.203125 
L 4.734375 70.65625 
L 51.078125 70.65625 
L 51.078125 63.8125 
Q 44.234375 56.546875 37.515625 44.484375 
Q 30.8125 32.421875 27.15625 19.671875 
Q 24.515625 10.6875 23.78125 0 
L 14.75 0 
Q 14.890625 8.453125 18.0625 20.40625 
Q 21.234375 32.375 27.171875 43.484375 
Q 33.109375 54.59375 39.796875 62.203125 
z
" id="ArialMT-55"/>
       </defs>
       <use xlink:href="#ArialMT-48"/>
       <use x="55.615234" xlink:href="#ArialMT-46"/>
       <use x="83.398438" xlink:href="#ArialMT-55"/>
      </g>
     </g>
    </g>
    <g id="ytick_7">
     <g id="line2d_12">
      <path clip-path="url(#p519085f6d9)" d="M 41.484375 113.486114 
L 599.484375 113.486114 
" style="fill:none;stroke:#cccccc;stroke-linecap:round;stroke-width:0.8;"/>
     </g>
     <g id="text_13">
      <!-- 0.8 -->
      <g style="fill:#262626;" transform="translate(20.584375 117.06502)scale(0.1 -0.1)">
       <use xlink:href="#ArialMT-48"/>
       <use x="55.615234" xlink:href="#ArialMT-46"/>
       <use x="83.398438" xlink:href="#ArialMT-56"/>
      </g>
     </g>
    </g>
    <g id="ytick_8">
     <g id="line2d_13">
      <path clip-path="url(#p519085f6d9)" d="M 41.484375 75.123597 
L 599.484375 75.123597 
" style="fill:none;stroke:#cccccc;stroke-linecap:round;stroke-width:0.8;"/>
     </g>
     <g id="text_14">
      <!-- 0.9 -->
      <g style="fill:#262626;" transform="translate(20.584375 78.702503)scale(0.1 -0.1)">
       <defs>
        <path d="M 5.46875 16.546875 
L 13.921875 17.328125 
Q 14.984375 11.375 18.015625 8.6875 
Q 21.046875 6 25.78125 6 
Q 29.828125 6 32.875 7.859375 
Q 35.9375 9.71875 37.890625 12.8125 
Q 39.84375 15.921875 41.15625 21.1875 
Q 42.484375 26.46875 42.484375 31.9375 
Q 42.484375 32.515625 42.4375 33.6875 
Q 39.796875 29.5 35.234375 26.875 
Q 30.671875 24.265625 25.34375 24.265625 
Q 16.453125 24.265625 10.296875 30.703125 
Q 4.15625 37.15625 4.15625 47.703125 
Q 4.15625 58.59375 10.578125 65.234375 
Q 17 71.875 26.65625 71.875 
Q 33.640625 71.875 39.421875 68.109375 
Q 45.21875 64.359375 48.21875 57.390625 
Q 51.21875 50.4375 51.21875 37.25 
Q 51.21875 23.53125 48.234375 15.40625 
Q 45.265625 7.28125 39.375 3.03125 
Q 33.5 -1.21875 25.59375 -1.21875 
Q 17.1875 -1.21875 11.859375 3.4375 
Q 6.546875 8.109375 5.46875 16.546875 
z
M 41.453125 48.140625 
Q 41.453125 55.71875 37.421875 60.15625 
Q 33.40625 64.59375 27.734375 64.59375 
Q 21.875 64.59375 17.53125 59.8125 
Q 13.1875 55.03125 13.1875 47.40625 
Q 13.1875 40.578125 17.3125 36.296875 
Q 21.4375 32.03125 27.484375 32.03125 
Q 33.59375 32.03125 37.515625 36.296875 
Q 41.453125 40.578125 41.453125 48.140625 
z
" id="ArialMT-57"/>
       </defs>
       <use xlink:href="#ArialMT-48"/>
       <use x="55.615234" xlink:href="#ArialMT-46"/>
       <use x="83.398438" xlink:href="#ArialMT-57"/>
      </g>
     </g>
    </g>
    <g id="ytick_9">
     <g id="line2d_14">
      <path clip-path="url(#p519085f6d9)" d="M 41.484375 36.76108 
L 599.484375 36.76108 
" style="fill:none;stroke:#cccccc;stroke-linecap:round;stroke-width:0.8;"/>
     </g>
     <g id="text_15">
      <!-- 1.0 -->
      <g style="fill:#262626;" transform="translate(20.584375 40.339986)scale(0.1 -0.1)">
       <defs>
        <path d="M 37.25 0 
L 28.46875 0 
L 28.46875 56 
Q 25.296875 52.984375 20.140625 49.953125 
Q 14.984375 46.921875 10.890625 45.40625 
L 10.890625 53.90625 
Q 18.265625 57.375 23.78125 62.296875 
Q 29.296875 67.234375 31.59375 71.875 
L 37.25 71.875 
z
" id="ArialMT-49"/>
       </defs>
       <use xlink:href="#ArialMT-49"/>
       <use x="55.615234" xlink:href="#ArialMT-46"/>
       <use x="83.398438" xlink:href="#ArialMT-48"/>
      </g>
     </g>
    </g>
    <g id="text_16">
     <!-- Estimated Probability of Survival -->
     <g style="fill:#262626;" transform="translate(14.479688 256.709375)rotate(-90)scale(0.1 -0.1)">
      <defs>
       <path d="M 7.90625 0 
L 7.90625 71.578125 
L 59.671875 71.578125 
L 59.671875 63.140625 
L 17.390625 63.140625 
L 17.390625 41.21875 
L 56.984375 41.21875 
L 56.984375 32.8125 
L 17.390625 32.8125 
L 17.390625 8.453125 
L 61.328125 8.453125 
L 61.328125 0 
z
" id="ArialMT-69"/>
       <path d="M 6.640625 61.46875 
L 6.640625 71.578125 
L 15.4375 71.578125 
L 15.4375 61.46875 
z
M 6.640625 0 
L 6.640625 51.859375 
L 15.4375 51.859375 
L 15.4375 0 
z
" id="ArialMT-105"/>
       <path d="M 6.59375 0 
L 6.59375 51.859375 
L 14.453125 51.859375 
L 14.453125 44.578125 
Q 16.890625 48.390625 20.9375 50.703125 
Q 25 53.03125 30.171875 53.03125 
Q 35.9375 53.03125 39.625 50.640625 
Q 43.3125 48.25 44.828125 43.953125 
Q 50.984375 53.03125 60.84375 53.03125 
Q 68.5625 53.03125 72.703125 48.75 
Q 76.859375 44.484375 76.859375 35.59375 
L 76.859375 0 
L 68.109375 0 
L 68.109375 32.671875 
Q 68.109375 37.9375 67.25 40.25 
Q 66.40625 42.578125 64.15625 43.984375 
Q 61.921875 45.40625 58.890625 45.40625 
Q 53.421875 45.40625 49.796875 41.765625 
Q 46.1875 38.140625 46.1875 30.125 
L 46.1875 0 
L 37.40625 0 
L 37.40625 33.6875 
Q 37.40625 39.546875 35.25 42.46875 
Q 33.109375 45.40625 28.21875 45.40625 
Q 24.515625 45.40625 21.359375 43.453125 
Q 18.21875 41.5 16.796875 37.734375 
Q 15.375 33.984375 15.375 26.90625 
L 15.375 0 
z
" id="ArialMT-109"/>
       <path d="M 40.4375 6.390625 
Q 35.546875 2.25 31.03125 0.53125 
Q 26.515625 -1.171875 21.34375 -1.171875 
Q 12.796875 -1.171875 8.203125 3 
Q 3.609375 7.171875 3.609375 13.671875 
Q 3.609375 17.484375 5.34375 20.625 
Q 7.078125 23.78125 9.890625 25.6875 
Q 12.703125 27.59375 16.21875 28.5625 
Q 18.796875 29.25 24.03125 29.890625 
Q 34.671875 31.15625 39.703125 32.90625 
Q 39.75 34.71875 39.75 35.203125 
Q 39.75 40.578125 37.25 42.78125 
Q 33.890625 45.75 27.25 45.75 
Q 21.046875 45.75 18.09375 43.578125 
Q 15.140625 41.40625 13.71875 35.890625 
L 5.125 37.0625 
Q 6.296875 42.578125 8.984375 45.96875 
Q 11.671875 49.359375 16.75 51.1875 
Q 21.828125 53.03125 28.515625 53.03125 
Q 35.15625 53.03125 39.296875 51.46875 
Q 43.453125 49.90625 45.40625 47.53125 
Q 47.359375 45.171875 48.140625 41.546875 
Q 48.578125 39.3125 48.578125 33.453125 
L 48.578125 21.734375 
Q 48.578125 9.46875 49.140625 6.21875 
Q 49.703125 2.984375 51.375 0 
L 42.1875 0 
Q 40.828125 2.734375 40.4375 6.390625 
z
M 39.703125 26.03125 
Q 34.90625 24.078125 25.34375 22.703125 
Q 19.921875 21.921875 17.671875 20.9375 
Q 15.4375 19.96875 14.203125 18.09375 
Q 12.984375 16.21875 12.984375 13.921875 
Q 12.984375 10.40625 15.640625 8.0625 
Q 18.3125 5.71875 23.4375 5.71875 
Q 28.515625 5.71875 32.46875 7.9375 
Q 36.421875 10.15625 38.28125 14.015625 
Q 39.703125 17 39.703125 22.796875 
z
" id="ArialMT-97"/>
       <path d="M 42.09375 16.703125 
L 51.171875 15.578125 
Q 49.03125 7.625 43.21875 3.21875 
Q 37.40625 -1.171875 28.375 -1.171875 
Q 17 -1.171875 10.328125 5.828125 
Q 3.65625 12.84375 3.65625 25.484375 
Q 3.65625 38.578125 10.390625 45.796875 
Q 17.140625 53.03125 27.875 53.03125 
Q 38.28125 53.03125 44.875 45.953125 
Q 51.46875 38.875 51.46875 26.03125 
Q 51.46875 25.25 51.421875 23.6875 
L 12.75 23.6875 
Q 13.234375 15.140625 17.578125 10.59375 
Q 21.921875 6.0625 28.421875 6.0625 
Q 33.25 6.0625 36.671875 8.59375 
Q 40.09375 11.140625 42.09375 16.703125 
z
M 13.234375 30.90625 
L 42.1875 30.90625 
Q 41.609375 37.453125 38.875 40.71875 
Q 34.671875 45.796875 27.984375 45.796875 
Q 21.921875 45.796875 17.796875 41.75 
Q 13.671875 37.703125 13.234375 30.90625 
z
" id="ArialMT-101"/>
       <path d="M 40.234375 0 
L 40.234375 6.546875 
Q 35.296875 -1.171875 25.734375 -1.171875 
Q 19.53125 -1.171875 14.328125 2.25 
Q 9.125 5.671875 6.265625 11.796875 
Q 3.421875 17.921875 3.421875 25.875 
Q 3.421875 33.640625 6 39.96875 
Q 8.59375 46.296875 13.765625 49.65625 
Q 18.953125 53.03125 25.34375 53.03125 
Q 30.03125 53.03125 33.6875 51.046875 
Q 37.359375 49.078125 39.65625 45.90625 
L 39.65625 71.578125 
L 48.390625 71.578125 
L 48.390625 0 
z
M 12.453125 25.875 
Q 12.453125 15.921875 16.640625 10.984375 
Q 20.84375 6.0625 26.5625 6.0625 
Q 32.328125 6.0625 36.34375 10.765625 
Q 40.375 15.484375 40.375 25.140625 
Q 40.375 35.796875 36.265625 40.765625 
Q 32.171875 45.75 26.171875 45.75 
Q 20.3125 45.75 16.375 40.96875 
Q 12.453125 36.1875 12.453125 25.875 
z
" id="ArialMT-100"/>
       <path id="ArialMT-32"/>
       <path d="M 7.71875 0 
L 7.71875 71.578125 
L 34.71875 71.578125 
Q 41.84375 71.578125 45.609375 70.90625 
Q 50.875 70.015625 54.4375 67.546875 
Q 58.015625 65.09375 60.1875 60.640625 
Q 62.359375 56.203125 62.359375 50.875 
Q 62.359375 41.75 56.546875 35.421875 
Q 50.734375 29.109375 35.546875 29.109375 
L 17.1875 29.109375 
L 17.1875 0 
z
M 17.1875 37.546875 
L 35.6875 37.546875 
Q 44.875 37.546875 48.734375 40.96875 
Q 52.59375 44.390625 52.59375 50.59375 
Q 52.59375 55.078125 50.3125 58.265625 
Q 48.046875 61.46875 44.34375 62.5 
Q 41.9375 63.140625 35.5 63.140625 
L 17.1875 63.140625 
z
" id="ArialMT-80"/>
       <path d="M 6.5 0 
L 6.5 51.859375 
L 14.40625 51.859375 
L 14.40625 44 
Q 17.4375 49.515625 20 51.265625 
Q 22.5625 53.03125 25.640625 53.03125 
Q 30.078125 53.03125 34.671875 50.203125 
L 31.640625 42.046875 
Q 28.421875 43.953125 25.203125 43.953125 
Q 22.3125 43.953125 20.015625 42.21875 
Q 17.71875 40.484375 16.75 37.40625 
Q 15.28125 32.71875 15.28125 27.15625 
L 15.28125 0 
z
" id="ArialMT-114"/>
       <path d="M 14.703125 0 
L 6.546875 0 
L 6.546875 71.578125 
L 15.328125 71.578125 
L 15.328125 46.046875 
Q 20.90625 53.03125 29.546875 53.03125 
Q 34.328125 53.03125 38.59375 51.09375 
Q 42.875 49.171875 45.625 45.671875 
Q 48.390625 42.1875 49.953125 37.25 
Q 51.515625 32.328125 51.515625 26.703125 
Q 51.515625 13.375 44.921875 6.09375 
Q 38.328125 -1.171875 29.109375 -1.171875 
Q 19.921875 -1.171875 14.703125 6.5 
z
M 14.59375 26.3125 
Q 14.59375 17 17.140625 12.84375 
Q 21.296875 6.0625 28.375 6.0625 
Q 34.125 6.0625 38.328125 11.0625 
Q 42.53125 16.0625 42.53125 25.984375 
Q 42.53125 36.140625 38.5 40.96875 
Q 34.46875 45.796875 28.765625 45.796875 
Q 23 45.796875 18.796875 40.796875 
Q 14.59375 35.796875 14.59375 26.3125 
z
" id="ArialMT-98"/>
       <path d="M 6.390625 0 
L 6.390625 71.578125 
L 15.1875 71.578125 
L 15.1875 0 
z
" id="ArialMT-108"/>
       <path d="M 6.203125 -19.96875 
L 5.21875 -11.71875 
Q 8.109375 -12.5 10.25 -12.5 
Q 13.1875 -12.5 14.9375 -11.515625 
Q 16.703125 -10.546875 17.828125 -8.796875 
Q 18.65625 -7.46875 20.515625 -2.25 
Q 20.75 -1.515625 21.296875 -0.09375 
L 1.609375 51.859375 
L 11.078125 51.859375 
L 21.875 21.828125 
Q 23.96875 16.109375 25.640625 9.8125 
Q 27.15625 15.875 29.25 21.625 
L 40.328125 51.859375 
L 49.125 51.859375 
L 29.390625 -0.875 
Q 26.21875 -9.421875 24.46875 -12.640625 
Q 22.125 -17 19.09375 -19.015625 
Q 16.0625 -21.046875 11.859375 -21.046875 
Q 9.328125 -21.046875 6.203125 -19.96875 
z
" id="ArialMT-121"/>
       <path d="M 8.6875 0 
L 8.6875 45.015625 
L 0.921875 45.015625 
L 0.921875 51.859375 
L 8.6875 51.859375 
L 8.6875 57.375 
Q 8.6875 62.59375 9.625 65.140625 
Q 10.890625 68.5625 14.078125 70.671875 
Q 17.28125 72.796875 23.046875 72.796875 
Q 26.765625 72.796875 31.25 71.921875 
L 29.9375 64.265625 
Q 27.203125 64.75 24.75 64.75 
Q 20.75 64.75 19.09375 63.03125 
Q 17.4375 61.328125 17.4375 56.640625 
L 17.4375 51.859375 
L 27.546875 51.859375 
L 27.546875 45.015625 
L 17.4375 45.015625 
L 17.4375 0 
z
" id="ArialMT-102"/>
       <path d="M 4.5 23 
L 13.421875 23.78125 
Q 14.0625 18.40625 16.375 14.96875 
Q 18.703125 11.53125 23.578125 9.40625 
Q 28.46875 7.28125 34.578125 7.28125 
Q 39.984375 7.28125 44.140625 8.890625 
Q 48.296875 10.5 50.3125 13.296875 
Q 52.34375 16.109375 52.34375 19.4375 
Q 52.34375 22.796875 50.390625 25.3125 
Q 48.4375 27.828125 43.953125 29.546875 
Q 41.0625 30.671875 31.203125 33.03125 
Q 21.34375 35.40625 17.390625 37.5 
Q 12.25 40.1875 9.734375 44.15625 
Q 7.234375 48.140625 7.234375 53.078125 
Q 7.234375 58.5 10.296875 63.203125 
Q 13.375 67.921875 19.28125 70.359375 
Q 25.203125 72.796875 32.421875 72.796875 
Q 40.375 72.796875 46.453125 70.234375 
Q 52.546875 67.671875 55.8125 62.6875 
Q 59.078125 57.71875 59.328125 51.421875 
L 50.25 50.734375 
Q 49.515625 57.515625 45.28125 60.984375 
Q 41.0625 64.453125 32.8125 64.453125 
Q 24.21875 64.453125 20.28125 61.296875 
Q 16.359375 58.15625 16.359375 53.71875 
Q 16.359375 49.859375 19.140625 47.359375 
Q 21.875 44.875 33.421875 42.265625 
Q 44.96875 39.65625 49.265625 37.703125 
Q 55.515625 34.8125 58.484375 30.390625 
Q 61.46875 25.984375 61.46875 20.21875 
Q 61.46875 14.5 58.203125 9.4375 
Q 54.9375 4.390625 48.796875 1.578125 
Q 42.671875 -1.21875 35.015625 -1.21875 
Q 25.296875 -1.21875 18.71875 1.609375 
Q 12.15625 4.4375 8.421875 10.125 
Q 4.6875 15.828125 4.5 23 
z
" id="ArialMT-83"/>
       <path d="M 40.578125 0 
L 40.578125 7.625 
Q 34.515625 -1.171875 24.125 -1.171875 
Q 19.53125 -1.171875 15.546875 0.578125 
Q 11.578125 2.34375 9.640625 5 
Q 7.71875 7.671875 6.9375 11.53125 
Q 6.390625 14.109375 6.390625 19.734375 
L 6.390625 51.859375 
L 15.1875 51.859375 
L 15.1875 23.09375 
Q 15.1875 16.21875 15.71875 13.8125 
Q 16.546875 10.359375 19.234375 8.375 
Q 21.921875 6.390625 25.875 6.390625 
Q 29.828125 6.390625 33.296875 8.421875 
Q 36.765625 10.453125 38.203125 13.9375 
Q 39.65625 17.4375 39.65625 24.078125 
L 39.65625 51.859375 
L 48.4375 51.859375 
L 48.4375 0 
z
" id="ArialMT-117"/>
       <path d="M 21 0 
L 1.265625 51.859375 
L 10.546875 51.859375 
L 21.6875 20.796875 
Q 23.484375 15.765625 25 10.359375 
Q 26.171875 14.453125 28.265625 20.21875 
L 39.796875 51.859375 
L 48.828125 51.859375 
L 29.203125 0 
z
" id="ArialMT-118"/>
      </defs>
      <use xlink:href="#ArialMT-69"/>
      <use x="66.699219" xlink:href="#ArialMT-115"/>
      <use x="116.699219" xlink:href="#ArialMT-116"/>
      <use x="144.482422" xlink:href="#ArialMT-105"/>
      <use x="166.699219" xlink:href="#ArialMT-109"/>
      <use x="250" xlink:href="#ArialMT-97"/>
      <use x="305.615234" xlink:href="#ArialMT-116"/>
      <use x="333.398438" xlink:href="#ArialMT-101"/>
      <use x="389.013672" xlink:href="#ArialMT-100"/>
      <use x="444.628906" xlink:href="#ArialMT-32"/>
      <use x="472.412109" xlink:href="#ArialMT-80"/>
      <use x="539.111328" xlink:href="#ArialMT-114"/>
      <use x="572.412109" xlink:href="#ArialMT-111"/>
      <use x="628.027344" xlink:href="#ArialMT-98"/>
      <use x="683.642578" xlink:href="#ArialMT-97"/>
      <use x="739.257812" xlink:href="#ArialMT-98"/>
      <use x="794.873047" xlink:href="#ArialMT-105"/>
      <use x="817.089844" xlink:href="#ArialMT-108"/>
      <use x="839.306641" xlink:href="#ArialMT-105"/>
      <use x="861.523438" xlink:href="#ArialMT-116"/>
      <use x="889.306641" xlink:href="#ArialMT-121"/>
      <use x="939.306641" xlink:href="#ArialMT-32"/>
      <use x="967.089844" xlink:href="#ArialMT-111"/>
      <use x="1022.705078" xlink:href="#ArialMT-102"/>
      <use x="1050.488281" xlink:href="#ArialMT-32"/>
      <use x="1078.271484" xlink:href="#ArialMT-83"/>
      <use x="1144.970703" xlink:href="#ArialMT-117"/>
      <use x="1200.585938" xlink:href="#ArialMT-114"/>
      <use x="1233.886719" xlink:href="#ArialMT-118"/>
      <use x="1283.886719" xlink:href="#ArialMT-105"/>
      <use x="1306.103516" xlink:href="#ArialMT-118"/>
      <use x="1356.103516" xlink:href="#ArialMT-97"/>
      <use x="1411.71875" xlink:href="#ArialMT-108"/>
     </g>
    </g>
   </g>
   <g id="PolyCollection_1">
    <defs>
     <path d="M 66.848011 -347.82517 
L 66.848011 -347.82517 
L 76.310221 -347.82517 
L 76.310221 -347.82517 
L 79.320924 -347.82517 
L 79.320924 -347.82517 
L 87.615717 -347.82517 
L 87.615717 -288.806514 
L 94.865982 -288.806514 
L 94.865982 -281.295567 
L 100.703059 -281.295567 
L 100.703059 -281.295567 
L 104.328191 -281.295567 
L 104.328191 -270.132828 
L 108.752081 -270.132828 
L 108.752081 -258.881546 
L 110.165268 -258.881546 
L 110.165268 -247.822345 
L 110.964026 -247.822345 
L 110.964026 -247.822345 
L 111.394127 -247.822345 
L 111.394127 -236.499364 
L 128.905358 -236.499364 
L 128.905358 -236.499364 
L 131.301632 -236.499364 
L 131.301632 -236.499364 
L 133.329248 -236.499364 
L 133.329248 -224.409176 
L 134.558107 -224.409176 
L 134.558107 -212.733202 
L 137.568809 -212.733202 
L 137.568809 -212.733202 
L 156.308899 -212.733202 
L 156.308899 -212.733202 
L 157.476315 -212.733202 
L 157.476315 -212.733202 
L 170.809428 -212.733202 
L 170.809428 -199.523191 
L 174.803217 -199.523191 
L 174.803217 -199.523191 
L 202.206759 -199.523191 
L 202.206759 -186.103497 
L 216.707287 -186.103497 
L 216.707287 -186.103497 
L 229.425971 -186.103497 
L 229.425971 -186.103497 
L 231.822245 -186.103497 
L 231.822245 -186.103497 
L 252.159851 -186.103497 
L 252.159851 -186.103497 
L 261.437731 -186.103497 
L 261.437731 -186.103497 
L 268.503667 -186.103497 
L 268.503667 -186.103497 
L 269.486753 -186.103497 
L 269.486753 -186.103497 
L 272.128799 -186.103497 
L 272.128799 -165.206884 
L 277.351447 -165.206884 
L 277.351447 -165.206884 
L 279.809164 -165.206884 
L 279.809164 -165.206884 
L 308.011463 -165.206884 
L 308.011463 -165.206884 
L 309.793307 -165.206884 
L 309.793307 -139.816438 
L 321.467462 -139.816438 
L 321.467462 -139.816438 
L 347.887916 -139.816438 
L 347.887916 -139.816438 
L 350.468519 -139.816438 
L 350.468519 -110.979705 
L 356.305596 -110.979705 
L 356.305596 -110.979705 
L 360.545157 -110.979705 
L 360.545157 -81.752928 
L 368.225522 -81.752928 
L 368.225522 -81.752928 
L 380.329777 -81.752928 
L 380.329777 -51.31608 
L 387.76437 -51.31608 
L 387.76437 -51.31608 
L 390.959401 -51.31608 
L 390.959401 -51.31608 
L 418.608714 -51.31608 
L 418.608714 -51.31608 
L 421.004988 -51.31608 
L 421.004988 -51.31608 
L 466.349861 -51.31608 
L 466.349861 -51.31608 
L 519.928085 -51.31608 
L 519.928085 -51.31608 
L 519.928085 -215.90604 
L 519.928085 -215.90604 
L 519.928085 -215.90604 
L 466.349861 -215.90604 
L 466.349861 -215.90604 
L 421.004988 -215.90604 
L 421.004988 -215.90604 
L 418.608714 -215.90604 
L 418.608714 -215.90604 
L 390.959401 -215.90604 
L 390.959401 -215.90604 
L 387.76437 -215.90604 
L 387.76437 -215.90604 
L 380.329777 -215.90604 
L 380.329777 -236.643585 
L 368.225522 -236.643585 
L 368.225522 -236.643585 
L 360.545157 -236.643585 
L 360.545157 -254.203849 
L 356.305596 -254.203849 
L 356.305596 -254.203849 
L 350.468519 -254.203849 
L 350.468519 -269.264537 
L 347.887916 -269.264537 
L 347.887916 -269.264537 
L 321.467462 -269.264537 
L 321.467462 -269.264537 
L 309.793307 -269.264537 
L 309.793307 -281.924625 
L 308.011463 -281.924625 
L 308.011463 -281.924625 
L 279.809164 -281.924625 
L 279.809164 -281.924625 
L 277.351447 -281.924625 
L 277.351447 -281.924625 
L 272.128799 -281.924625 
L 272.128799 -292.540228 
L 269.486753 -292.540228 
L 269.486753 -292.540228 
L 268.503667 -292.540228 
L 268.503667 -292.540228 
L 261.437731 -292.540228 
L 261.437731 -292.540228 
L 252.159851 -292.540228 
L 252.159851 -292.540228 
L 231.822245 -292.540228 
L 231.822245 -292.540228 
L 229.425971 -292.540228 
L 229.425971 -292.540228 
L 216.707287 -292.540228 
L 216.707287 -292.540228 
L 202.206759 -292.540228 
L 202.206759 -300.853162 
L 174.803217 -300.853162 
L 174.803217 -300.853162 
L 170.809428 -300.853162 
L 170.809428 -308.635266 
L 157.476315 -308.635266 
L 157.476315 -308.635266 
L 156.308899 -308.635266 
L 156.308899 -308.635266 
L 137.568809 -308.635266 
L 137.568809 -308.635266 
L 134.558107 -308.635266 
L 134.558107 -315.606447 
L 133.329248 -315.606447 
L 133.329248 -322.25641 
L 131.301632 -322.25641 
L 131.301632 -322.25641 
L 128.905358 -322.25641 
L 128.905358 -322.25641 
L 111.394127 -322.25641 
L 111.394127 -328.304966 
L 110.964026 -328.304966 
L 110.964026 -328.304966 
L 110.165268 -328.304966 
L 110.165268 -333.8541 
L 108.752081 -333.8541 
L 108.752081 -338.910051 
L 104.328191 -338.910051 
L 104.328191 -343.283256 
L 100.703059 -343.283256 
L 100.703059 -343.283256 
L 94.865982 -343.283256 
L 94.865982 -346.555773 
L 87.615717 -346.555773 
L 87.615717 -347.82517 
L 79.320924 -347.82517 
L 79.320924 -347.82517 
L 76.310221 -347.82517 
L 76.310221 -347.82517 
L 66.848011 -347.82517 
z
" id="mb99ee77f41" style="stroke:#dd8452;stroke-opacity:0.25;"/>
    </defs>
    <g clip-path="url(#p519085f6d9)">
     <use style="fill:#dd8452;fill-opacity:0.25;stroke:#dd8452;stroke-opacity:0.25;" x="0" xlink:href="#mb99ee77f41" y="384.58625"/>
    </g>
   </g>
   <g id="PolyCollection_2">
    <defs>
     <path d="M 66.848011 -347.82517 
L 66.848011 -347.82517 
L 67.278112 -347.82517 
L 67.278112 -288.806514 
L 74.098276 -288.806514 
L 74.098276 -288.806514 
L 75.511463 -288.806514 
L 75.511463 -280.523283 
L 92.408265 -280.523283 
L 92.408265 -269.569648 
L 98.491114 -269.569648 
L 98.491114 -269.569648 
L 105.126949 -269.569648 
L 105.126949 -257.85151 
L 105.557049 -257.85151 
L 105.557049 -246.418854 
L 106.110036 -246.418854 
L 106.110036 -235.272215 
L 109.36651 -235.272215 
L 109.36651 -224.388565 
L 122.023751 -224.388565 
L 122.023751 -213.743199 
L 126.877742 -213.743199 
L 126.877742 -203.314396 
L 137.384481 -203.314396 
L 137.384481 -203.314396 
L 137.937467 -203.314396 
L 137.937467 -192.59844 
L 152.253667 -192.59844 
L 152.253667 -192.59844 
L 152.868096 -192.59844 
L 152.868096 -181.585838 
L 156.677557 -181.585838 
L 156.677557 -170.827522 
L 167.798725 -170.827522 
L 167.798725 -160.298212 
L 183.28234 -160.298212 
L 183.28234 -160.298212 
L 186.108714 -160.298212 
L 186.108714 -160.298212 
L 188.136331 -160.298212 
L 188.136331 -160.298212 
L 189.119417 -160.298212 
L 189.119417 -148.049439 
L 190.532604 -148.049439 
L 190.532604 -148.049439 
L 193.973408 -148.049439 
L 193.973408 -135.371886 
L 212.283397 -135.371886 
L 212.283397 -135.371886 
L 220.578191 -135.371886 
L 220.578191 -122.198122 
L 249.333476 -122.198122 
L 249.333476 -109.492374 
L 258.2427 -109.492374 
L 258.2427 -97.210467 
L 258.857129 -97.210467 
L 258.857129 -85.321833 
L 268.503667 -85.321833 
L 268.503667 -85.321833 
L 273.726315 -85.321833 
L 273.726315 -85.321833 
L 287.612414 -85.321833 
L 287.612414 -71.311046 
L 288.656944 -71.311046 
L 288.656944 -71.311046 
L 309.793307 -71.311046 
L 309.793307 -71.311046 
L 325.338365 -71.311046 
L 325.338365 -71.311046 
L 325.522694 -71.311046 
L 325.522694 -71.311046 
L 339.593122 -71.311046 
L 339.593122 -71.311046 
L 379.285247 -71.311046 
L 379.285247 -71.311046 
L 401.281812 -71.311046 
L 401.281812 -71.311046 
L 409.699491 -71.311046 
L 409.699491 -71.311046 
L 417.748513 -71.311046 
L 417.748513 -71.311046 
L 480.85039 -71.311046 
L 480.85039 -71.311046 
L 550.710987 -71.311046 
L 550.710987 -71.311046 
L 574.120739 -71.311046 
L 574.120739 -71.311046 
L 574.120739 -197.356072 
L 574.120739 -197.356072 
L 574.120739 -197.356072 
L 550.710987 -197.356072 
L 550.710987 -197.356072 
L 480.85039 -197.356072 
L 480.85039 -197.356072 
L 417.748513 -197.356072 
L 417.748513 -197.356072 
L 409.699491 -197.356072 
L 409.699491 -197.356072 
L 401.281812 -197.356072 
L 401.281812 -197.356072 
L 379.285247 -197.356072 
L 379.285247 -197.356072 
L 339.593122 -197.356072 
L 339.593122 -197.356072 
L 325.522694 -197.356072 
L 325.522694 -197.356072 
L 325.338365 -197.356072 
L 325.338365 -197.356072 
L 309.793307 -197.356072 
L 309.793307 -197.356072 
L 288.656944 -197.356072 
L 288.656944 -197.356072 
L 287.612414 -197.356072 
L 287.612414 -209.806549 
L 273.726315 -209.806549 
L 273.726315 -209.806549 
L 268.503667 -209.806549 
L 268.503667 -209.806549 
L 258.857129 -209.806549 
L 258.857129 -220.860484 
L 258.2427 -220.860484 
L 258.2427 -231.638584 
L 249.333476 -231.638584 
L 249.333476 -242.133461 
L 220.578191 -242.133461 
L 220.578191 -252.33313 
L 212.283397 -252.33313 
L 212.283397 -252.33313 
L 193.973408 -252.33313 
L 193.973408 -261.916722 
L 190.532604 -261.916722 
L 190.532604 -261.916722 
L 189.119417 -261.916722 
L 189.119417 -270.952481 
L 188.136331 -270.952481 
L 188.136331 -270.952481 
L 186.108714 -270.952481 
L 186.108714 -270.952481 
L 183.28234 -270.952481 
L 183.28234 -270.952481 
L 167.798725 -270.952481 
L 167.798725 -279.048852 
L 156.677557 -279.048852 
L 156.677557 -286.951499 
L 152.868096 -286.951499 
L 152.868096 -294.644975 
L 152.253667 -294.644975 
L 152.253667 -294.644975 
L 137.937467 -294.644975 
L 137.937467 -301.942337 
L 137.384481 -301.942337 
L 137.384481 -301.942337 
L 126.877742 -301.942337 
L 126.877742 -308.858666 
L 122.023751 -308.858666 
L 122.023751 -315.534388 
L 109.36651 -315.534388 
L 109.36651 -321.933563 
L 106.110036 -321.933563 
L 106.110036 -328.006169 
L 105.557049 -328.006169 
L 105.557049 -333.679124 
L 105.126949 -333.679124 
L 105.126949 -338.838047 
L 98.491114 -338.838047 
L 98.491114 -338.838047 
L 92.408265 -338.838047 
L 92.408265 -343.228245 
L 75.511463 -343.228245 
L 75.511463 -346.555773 
L 74.098276 -346.555773 
L 74.098276 -346.555773 
L 67.278112 -346.555773 
L 67.278112 -347.82517 
L 66.848011 -347.82517 
z
" id="m5c7775b547" style="stroke:#55a868;stroke-opacity:0.25;"/>
    </defs>
    <g clip-path="url(#p519085f6d9)">
     <use style="fill:#55a868;fill-opacity:0.25;stroke:#55a868;stroke-opacity:0.25;" x="0" xlink:href="#m5c7775b547" y="384.58625"/>
    </g>
   </g>
   <g id="line2d_15">
    <path clip-path="url(#p519085f6d9)" d="M 66.848011 36.76108 
L 76.310221 36.76108 
L 76.310221 36.76108 
L 79.320924 36.76108 
L 79.320924 36.76108 
L 87.615717 36.76108 
L 87.615717 45.682595 
L 94.865982 45.682595 
L 94.865982 54.604111 
L 100.703059 54.604111 
L 100.703059 54.604111 
L 104.328191 54.604111 
L 104.328191 63.748664 
L 108.752081 63.748664 
L 108.752081 72.893218 
L 110.165268 72.893218 
L 110.165268 82.037771 
L 110.964026 82.037771 
L 110.964026 82.037771 
L 111.394127 82.037771 
L 111.394127 91.43634 
L 128.905358 91.43634 
L 128.905358 91.43634 
L 131.301632 91.43634 
L 131.301632 91.43634 
L 133.329248 91.43634 
L 133.329248 101.404519 
L 134.558107 101.404519 
L 134.558107 111.372698 
L 137.568809 111.372698 
L 137.568809 111.372698 
L 156.308899 111.372698 
L 156.308899 111.372698 
L 157.476315 111.372698 
L 157.476315 111.372698 
L 170.809428 111.372698 
L 170.809428 122.408896 
L 174.803217 122.408896 
L 174.803217 122.408896 
L 202.206759 122.408896 
L 202.206759 133.869564 
L 216.707287 133.869564 
L 216.707287 133.869564 
L 229.425971 133.869564 
L 229.425971 133.869564 
L 231.822245 133.869564 
L 231.822245 133.869564 
L 252.159851 133.869564 
L 252.159851 133.869564 
L 261.437731 133.869564 
L 261.437731 133.869564 
L 268.503667 133.869564 
L 268.503667 133.869564 
L 269.486753 133.869564 
L 269.486753 133.869564 
L 272.128799 133.869564 
L 272.128799 149.787157 
L 277.351447 149.787157 
L 277.351447 149.787157 
L 279.809164 149.787157 
L 279.809164 149.787157 
L 308.011463 149.787157 
L 308.011463 149.787157 
L 309.793307 149.787157 
L 309.793307 169.115664 
L 321.467462 169.115664 
L 321.467462 169.115664 
L 347.887916 169.115664 
L 347.887916 169.115664 
L 350.468519 169.115664 
L 350.468519 191.958445 
L 356.305596 191.958445 
L 356.305596 191.958445 
L 360.545157 191.958445 
L 360.545157 217.339312 
L 368.225522 217.339312 
L 368.225522 217.339312 
L 380.329777 217.339312 
L 380.329777 246.346017 
L 387.76437 246.346017 
L 387.76437 246.346017 
L 390.959401 246.346017 
L 390.959401 246.346017 
L 418.608714 246.346017 
L 418.608714 246.346017 
L 421.004988 246.346017 
L 421.004988 246.346017 
L 466.349861 246.346017 
L 466.349861 246.346017 
L 519.928085 246.346017 
L 519.928085 246.346017 
" style="fill:none;stroke:#dd8452;stroke-linecap:round;stroke-width:1.5;"/>
   </g>
   <g id="line2d_16">
    <path clip-path="url(#p519085f6d9)" d="M 66.848011 36.76108 
L 67.278112 36.76108 
L 67.278112 45.682595 
L 74.098276 45.682595 
L 74.098276 45.682595 
L 75.511463 45.682595 
L 75.511463 54.821709 
L 92.408265 54.821709 
L 92.408265 63.960822 
L 98.491114 63.960822 
L 98.491114 63.960822 
L 105.126949 63.960822 
L 105.126949 73.340439 
L 105.557049 73.340439 
L 105.557049 82.720055 
L 106.110036 82.720055 
L 106.110036 92.099672 
L 109.36651 92.099672 
L 109.36651 101.479288 
L 122.023751 101.479288 
L 122.023751 110.858905 
L 126.877742 110.858905 
L 126.877742 120.238521 
L 137.384481 120.238521 
L 137.384481 120.238521 
L 137.937467 120.238521 
L 137.937467 129.920706 
L 152.253667 129.920706 
L 152.253667 129.920706 
L 152.868096 129.920706 
L 152.868096 139.936759 
L 156.677557 139.936759 
L 156.677557 149.952812 
L 167.798725 149.952812 
L 167.798725 159.968866 
L 183.28234 159.968866 
L 183.28234 159.968866 
L 186.108714 159.968866 
L 186.108714 159.968866 
L 188.136331 159.968866 
L 188.136331 159.968866 
L 189.119417 159.968866 
L 189.119417 171.291361 
L 190.532604 171.291361 
L 190.532604 171.291361 
L 193.973408 171.291361 
L 193.973408 183.153022 
L 212.283397 183.153022 
L 212.283397 183.153022 
L 220.578191 183.153022 
L 220.578191 195.638981 
L 249.333476 195.638981 
L 249.333476 208.124941 
L 258.2427 208.124941 
L 258.2427 220.6109 
L 258.857129 220.6109 
L 258.857129 233.096859 
L 268.503667 233.096859 
L 268.503667 233.096859 
L 273.726315 233.096859 
L 273.726315 233.096859 
L 287.612414 233.096859 
L 287.612414 247.503736 
L 288.656944 247.503736 
L 288.656944 247.503736 
L 309.793307 247.503736 
L 309.793307 247.503736 
L 325.338365 247.503736 
L 325.338365 247.503736 
L 325.522694 247.503736 
L 325.522694 247.503736 
L 339.593122 247.503736 
L 339.593122 247.503736 
L 379.285247 247.503736 
L 379.285247 247.503736 
L 401.281812 247.503736 
L 401.281812 247.503736 
L 409.699491 247.503736 
L 409.699491 247.503736 
L 417.748513 247.503736 
L 417.748513 247.503736 
L 480.85039 247.503736 
L 480.85039 247.503736 
L 550.710987 247.503736 
L 550.710987 247.503736 
L 574.120739 247.503736 
L 574.120739 247.503736 
" style="fill:none;stroke:#55a868;stroke-linecap:round;stroke-width:1.5;"/>
   </g>
   <g id="patch_3">
    <path d="M 41.484375 348.095625 
L 41.484375 21.935625 
" style="fill:none;stroke:#ffffff;stroke-linecap:square;stroke-linejoin:miter;stroke-width:0.8;"/>
   </g>
   <g id="patch_4">
    <path d="M 599.484375 348.095625 
L 599.484375 21.935625 
" style="fill:none;stroke:#ffffff;stroke-linecap:square;stroke-linejoin:miter;stroke-width:0.8;"/>
   </g>
   <g id="patch_5">
    <path d="M 41.484375 348.095625 
L 599.484375 348.095625 
" style="fill:none;stroke:#ffffff;stroke-linecap:square;stroke-linejoin:miter;stroke-width:0.8;"/>
   </g>
   <g id="patch_6">
    <path d="M 41.484375 21.935625 
L 599.484375 21.935625 
" style="fill:none;stroke:#ffffff;stroke-linecap:square;stroke-linejoin:miter;stroke-width:0.8;"/>
   </g>
   <g id="text_17">
    <!-- Kaplan-Meier survival curves formales and females -->
    <g style="fill:#262626;" transform="translate(184.438125 15.935625)scale(0.12 -0.12)">
     <defs>
      <path d="M 7.328125 0 
L 7.328125 71.578125 
L 16.796875 71.578125 
L 16.796875 36.078125 
L 52.34375 71.578125 
L 65.1875 71.578125 
L 35.15625 42.578125 
L 66.5 0 
L 54 0 
L 28.515625 36.234375 
L 16.796875 24.8125 
L 16.796875 0 
z
" id="ArialMT-75"/>
      <path d="M 6.59375 -19.875 
L 6.59375 51.859375 
L 14.59375 51.859375 
L 14.59375 45.125 
Q 17.4375 49.078125 21 51.046875 
Q 24.5625 53.03125 29.640625 53.03125 
Q 36.28125 53.03125 41.359375 49.609375 
Q 46.4375 46.1875 49.015625 39.953125 
Q 51.609375 33.734375 51.609375 26.3125 
Q 51.609375 18.359375 48.75 11.984375 
Q 45.90625 5.609375 40.453125 2.21875 
Q 35.015625 -1.171875 29 -1.171875 
Q 24.609375 -1.171875 21.109375 0.6875 
Q 17.625 2.546875 15.375 5.375 
L 15.375 -19.875 
z
M 14.546875 25.640625 
Q 14.546875 15.625 18.59375 10.84375 
Q 22.65625 6.0625 28.421875 6.0625 
Q 34.28125 6.0625 38.453125 11.015625 
Q 42.625 15.96875 42.625 26.375 
Q 42.625 36.28125 38.546875 41.203125 
Q 34.46875 46.140625 28.8125 46.140625 
Q 23.1875 46.140625 18.859375 40.890625 
Q 14.546875 35.640625 14.546875 25.640625 
z
" id="ArialMT-112"/>
      <path d="M 3.171875 21.484375 
L 3.171875 30.328125 
L 30.171875 30.328125 
L 30.171875 21.484375 
z
" id="ArialMT-45"/>
      <path d="M 40.4375 19 
L 49.078125 17.875 
Q 47.65625 8.9375 41.8125 3.875 
Q 35.984375 -1.171875 27.484375 -1.171875 
Q 16.84375 -1.171875 10.375 5.78125 
Q 3.90625 12.75 3.90625 25.734375 
Q 3.90625 34.125 6.6875 40.421875 
Q 9.46875 46.734375 15.15625 49.875 
Q 20.84375 53.03125 27.546875 53.03125 
Q 35.984375 53.03125 41.359375 48.75 
Q 46.734375 44.484375 48.25 36.625 
L 39.703125 35.296875 
Q 38.484375 40.53125 35.375 43.15625 
Q 32.28125 45.796875 27.875 45.796875 
Q 21.234375 45.796875 17.078125 41.03125 
Q 12.9375 36.28125 12.9375 25.984375 
Q 12.9375 15.53125 16.9375 10.796875 
Q 20.953125 6.0625 27.390625 6.0625 
Q 32.5625 6.0625 36.03125 9.234375 
Q 39.5 12.40625 40.4375 19 
z
" id="ArialMT-99"/>
     </defs>
     <use xlink:href="#ArialMT-75"/>
     <use x="66.699219" xlink:href="#ArialMT-97"/>
     <use x="122.314453" xlink:href="#ArialMT-112"/>
     <use x="177.929688" xlink:href="#ArialMT-108"/>
     <use x="200.146484" xlink:href="#ArialMT-97"/>
     <use x="255.761719" xlink:href="#ArialMT-110"/>
     <use x="311.376953" xlink:href="#ArialMT-45"/>
     <use x="344.677734" xlink:href="#ArialMT-77"/>
     <use x="427.978516" xlink:href="#ArialMT-101"/>
     <use x="483.59375" xlink:href="#ArialMT-105"/>
     <use x="505.810547" xlink:href="#ArialMT-101"/>
     <use x="561.425781" xlink:href="#ArialMT-114"/>
     <use x="594.726562" xlink:href="#ArialMT-32"/>
     <use x="622.509766" xlink:href="#ArialMT-115"/>
     <use x="672.509766" xlink:href="#ArialMT-117"/>
     <use x="728.125" xlink:href="#ArialMT-114"/>
     <use x="761.425781" xlink:href="#ArialMT-118"/>
     <use x="811.425781" xlink:href="#ArialMT-105"/>
     <use x="833.642578" xlink:href="#ArialMT-118"/>
     <use x="883.642578" xlink:href="#ArialMT-97"/>
     <use x="939.257812" xlink:href="#ArialMT-108"/>
     <use x="961.474609" xlink:href="#ArialMT-32"/>
     <use x="989.257812" xlink:href="#ArialMT-99"/>
     <use x="1039.257812" xlink:href="#ArialMT-117"/>
     <use x="1094.873047" xlink:href="#ArialMT-114"/>
     <use x="1128.173828" xlink:href="#ArialMT-118"/>
     <use x="1178.173828" xlink:href="#ArialMT-101"/>
     <use x="1233.789062" xlink:href="#ArialMT-115"/>
     <use x="1283.789062" xlink:href="#ArialMT-32"/>
     <use x="1311.572266" xlink:href="#ArialMT-102"/>
     <use x="1339.355469" xlink:href="#ArialMT-111"/>
     <use x="1394.970703" xlink:href="#ArialMT-114"/>
     <use x="1428.271484" xlink:href="#ArialMT-109"/>
     <use x="1511.572266" xlink:href="#ArialMT-97"/>
     <use x="1567.1875" xlink:href="#ArialMT-108"/>
     <use x="1589.404297" xlink:href="#ArialMT-101"/>
     <use x="1645.019531" xlink:href="#ArialMT-115"/>
     <use x="1695.019531" xlink:href="#ArialMT-32"/>
     <use x="1722.802734" xlink:href="#ArialMT-97"/>
     <use x="1778.417969" xlink:href="#ArialMT-110"/>
     <use x="1834.033203" xlink:href="#ArialMT-100"/>
     <use x="1889.648438" xlink:href="#ArialMT-32"/>
     <use x="1917.431641" xlink:href="#ArialMT-102"/>
     <use x="1945.214844" xlink:href="#ArialMT-101"/>
     <use x="2000.830078" xlink:href="#ArialMT-109"/>
     <use x="2084.130859" xlink:href="#ArialMT-97"/>
     <use x="2139.746094" xlink:href="#ArialMT-108"/>
     <use x="2161.962891" xlink:href="#ArialMT-101"/>
     <use x="2217.578125" xlink:href="#ArialMT-115"/>
    </g>
   </g>
   <g id="legend_1">
    <g id="patch_7">
     <path d="M 527.142187 58.22625 
L 592.484375 58.22625 
Q 594.484375 58.22625 594.484375 56.22625 
L 594.484375 28.935625 
Q 594.484375 26.935625 592.484375 26.935625 
L 527.142187 26.935625 
Q 525.142187 26.935625 525.142187 28.935625 
L 525.142187 56.22625 
Q 525.142187 58.22625 527.142187 58.22625 
z
" style="fill:#e6e6e6;opacity:0.8;stroke:#cccccc;stroke-linejoin:miter;"/>
    </g>
    <g id="line2d_17">
     <path d="M 529.142187 34.593437 
L 549.142187 34.593437 
" style="fill:none;stroke:#dd8452;stroke-linecap:round;stroke-width:1.5;"/>
    </g>
    <g id="line2d_18"/>
    <g id="text_18">
     <!-- Female -->
     <g style="fill:#262626;" transform="translate(557.142187 38.093437)scale(0.1 -0.1)">
      <defs>
       <path d="M 8.203125 0 
L 8.203125 71.578125 
L 56.5 71.578125 
L 56.5 63.140625 
L 17.671875 63.140625 
L 17.671875 40.96875 
L 51.265625 40.96875 
L 51.265625 32.515625 
L 17.671875 32.515625 
L 17.671875 0 
z
" id="ArialMT-70"/>
      </defs>
      <use xlink:href="#ArialMT-70"/>
      <use x="61.083984" xlink:href="#ArialMT-101"/>
      <use x="116.699219" xlink:href="#ArialMT-109"/>
      <use x="200" xlink:href="#ArialMT-97"/>
      <use x="255.615234" xlink:href="#ArialMT-108"/>
      <use x="277.832031" xlink:href="#ArialMT-101"/>
     </g>
    </g>
    <g id="line2d_19">
     <path d="M 529.142187 48.73875 
L 549.142187 48.73875 
" style="fill:none;stroke:#55a868;stroke-linecap:round;stroke-width:1.5;"/>
    </g>
    <g id="line2d_20"/>
    <g id="text_19">
     <!-- Male -->
     <g style="fill:#262626;" transform="translate(557.142187 52.23875)scale(0.1 -0.1)">
      <use xlink:href="#ArialMT-77"/>
      <use x="83.300781" xlink:href="#ArialMT-97"/>
      <use x="138.916016" xlink:href="#ArialMT-108"/>
      <use x="161.132812" xlink:href="#ArialMT-101"/>
     </g>
    </g>
   </g>
  </g>
 </g>
 <defs>
  <clipPath id="p519085f6d9">
   <rect height="326.16" width="558" x="41.484375" y="21.935625"/>
  </clipPath>
 </defs>
</svg>
