<?xml version="1.0" encoding="UTF-8" standalone="no"?>
<!DOCTYPE svg PUBLIC "-//W3C//DTD SVG 1.1//EN"
 "http://www.w3.org/Graphics/SVG/1.1/DTD/svg11.dtd">
<!-- Generated by graphviz version 12.0.0 (0)
 -->
<!-- Pages: 1 -->
<svg width="896pt" height="369pt"
 viewBox="0.00 0.00 896.38 369.00" xmlns="http://www.w3.org/2000/svg" xmlns:xlink="http://www.w3.org/1999/xlink">
<g id="graph0" class="graph" transform="scale(1 1) rotate(0) translate(4 365)">
<polygon fill="white" stroke="none" points="-4,4 -4,-365 892.38,-365 892.38,4 -4,4"/>
<g id="clust1" class="cluster">
<title>cluster_groups</title>
<polygon fill="none" stroke="black" points="675.52,-188 675.52,-305 873.52,-305 873.52,-188 675.52,-188"/>
<text text-anchor="middle" x="847.14" y="-195.2" font-family="Times,serif" font-size="14.00">groups</text>
</g>
<g id="clust2" class="cluster">
<title>cluster_group_basis</title>
<polygon fill="none" stroke="black" points="683.52,-220.5 683.52,-297 797.52,-297 797.52,-220.5 683.52,-220.5"/>
<text text-anchor="middle" x="756.89" y="-227.7" font-family="Times,serif" font-size="14.00">group_basis</text>
</g>
<g id="clust3" class="cluster">
<title>cluster_global_basis</title>
<polygon fill="none" stroke="black" points="267.52,-220.5 267.52,-297 391.52,-297 391.52,-220.5 267.52,-220.5"/>
<text text-anchor="middle" x="349.77" y="-227.7" font-family="Times,serif" font-size="14.00">global_basis</text>
</g>
<!-- log_alpha_global -->
<g id="node1" class="node">
<title>log_alpha_global</title>
<ellipse fill="white" stroke="black" cx="112.52" cy="-343" rx="74.89" ry="18"/>
<text text-anchor="middle" x="112.52" y="-337.95" font-family="Times,serif" font-size="14.00">log_alpha_global</text>
</g>
<!-- alpha_global -->
<g id="node3" class="node">
<title>alpha_global</title>
<ellipse fill="white" stroke="black" stroke-dasharray="5,2" cx="58.52" cy="-271" rx="58.52" ry="18"/>
<text text-anchor="middle" x="58.52" y="-265.95" font-family="Times,serif" font-size="14.00">alpha_global</text>
</g>
<!-- log_alpha_global&#45;&gt;alpha_global -->
<g id="edge1" class="edge">
<title>log_alpha_global&#45;&gt;alpha_global</title>
<path fill="none" stroke="black" d="M99.44,-325.05C93.14,-316.89 85.45,-306.91 78.44,-297.82"/>
<polygon fill="black" stroke="black" points="81.27,-295.77 72.39,-289.99 75.73,-300.04 81.27,-295.77"/>
</g>
<!-- alpha_groups -->
<g id="node7" class="node">
<title>alpha_groups</title>
<ellipse fill="white" stroke="black" stroke-dasharray="5,2" cx="461.52" cy="-271" rx="60.56" ry="18"/>
<text text-anchor="middle" x="461.52" y="-265.95" font-family="Times,serif" font-size="14.00">alpha_groups</text>
</g>
<!-- log_alpha_global&#45;&gt;alpha_groups -->
<g id="edge3" class="edge">
<title>log_alpha_global&#45;&gt;alpha_groups</title>
<path fill="none" stroke="black" d="M170.38,-331.21C183.24,-328.99 196.82,-326.79 209.52,-325 291.84,-313.37 315.74,-328.41 395.52,-305 405.72,-302.01 416.24,-297.49 425.8,-292.74"/>
<polygon fill="black" stroke="black" points="427.15,-295.99 434.4,-288.27 423.92,-289.78 427.15,-295.99"/>
</g>
<!-- log_length_global -->
<g id="node2" class="node">
<title>log_length_global</title>
<ellipse fill="white" stroke="black" cx="468.52" cy="-343" rx="77.97" ry="18"/>
<text text-anchor="middle" x="468.52" y="-337.95" font-family="Times,serif" font-size="14.00">log_length_global</text>
</g>
<!-- length_global -->
<g id="node4" class="node">
<title>length_global</title>
<ellipse fill="white" stroke="black" stroke-dasharray="5,2" cx="196.52" cy="-271" rx="61.59" ry="18"/>
<text text-anchor="middle" x="196.52" y="-265.95" font-family="Times,serif" font-size="14.00">length_global</text>
</g>
<!-- log_length_global&#45;&gt;length_global -->
<g id="edge2" class="edge">
<title>log_length_global&#45;&gt;length_global</title>
<path fill="none" stroke="black" d="M410.99,-330.55C401.17,-328.65 391.05,-326.74 381.52,-325 329.19,-315.45 314.13,-321.37 263.52,-305 253.46,-301.75 243.01,-297.22 233.45,-292.56"/>
<polygon fill="black" stroke="black" points="235.32,-289.59 224.82,-288.19 232.16,-295.83 235.32,-289.59"/>
</g>
<!-- length_groups -->
<g id="node8" class="node">
<title>length_groups</title>
<ellipse fill="white" stroke="black" stroke-dasharray="5,2" cx="603.52" cy="-271" rx="63.63" ry="18"/>
<text text-anchor="middle" x="603.52" y="-265.95" font-family="Times,serif" font-size="14.00">length_groups</text>
</g>
<!-- log_length_global&#45;&gt;length_groups -->
<g id="edge5" class="edge">
<title>log_length_global&#45;&gt;length_groups</title>
<path fill="none" stroke="black" d="M499.15,-326.12C518.32,-316.18 543.2,-303.27 563.87,-292.56"/>
<polygon fill="black" stroke="black" points="565.32,-295.75 572.59,-288.04 562.1,-289.53 565.32,-295.75"/>
</g>
<!-- global_f_global -->
<g id="node11" class="node">
<title>global_f_global</title>
<ellipse fill="white" stroke="black" stroke-dasharray="5,2" cx="263.52" cy="-162" rx="69.26" ry="18"/>
<text text-anchor="middle" x="263.52" y="-156.95" font-family="Times,serif" font-size="14.00">global_f_global</text>
</g>
<!-- alpha_global&#45;&gt;global_f_global -->
<g id="edge8" class="edge">
<title>alpha_global&#45;&gt;global_f_global</title>
<path fill="none" stroke="black" d="M67.59,-252.81C78.61,-233.73 99.07,-203.59 125.52,-188 143.13,-177.62 164.03,-171.36 184.17,-167.64"/>
<polygon fill="black" stroke="black" points="184.46,-171.14 193.76,-166.06 183.33,-164.23 184.46,-171.14"/>
</g>
<!-- length_global&#45;&gt;global_f_global -->
<g id="edge9" class="edge">
<title>length_global&#45;&gt;global_f_global</title>
<path fill="none" stroke="black" d="M207.28,-252.81C217.93,-235.81 234.38,-209.54 246.74,-189.79"/>
<polygon fill="black" stroke="black" points="249.63,-191.76 251.98,-181.43 243.7,-188.05 249.63,-191.76"/>
</g>
<!-- log_alpha_groups -->
<g id="node5" class="node">
<title>log_alpha_groups</title>
<ellipse fill="white" stroke="black" cx="295.52" cy="-343" rx="76.94" ry="18"/>
<text text-anchor="middle" x="295.52" y="-337.95" font-family="Times,serif" font-size="14.00">log_alpha_groups</text>
</g>
<!-- log_alpha_groups&#45;&gt;alpha_groups -->
<g id="edge4" class="edge">
<title>log_alpha_groups&#45;&gt;alpha_groups</title>
<path fill="none" stroke="black" d="M337.76,-327.53C355.74,-321.07 376.83,-313.1 395.52,-305 404.47,-301.12 413.94,-296.62 422.83,-292.23"/>
<polygon fill="black" stroke="black" points="424.21,-295.45 431.57,-287.83 421.07,-289.19 424.21,-295.45"/>
</g>
<!-- log_length_groups -->
<g id="node6" class="node">
<title>log_length_groups</title>
<ellipse fill="white" stroke="black" cx="644.52" cy="-343" rx="80.01" ry="18"/>
<text text-anchor="middle" x="644.52" y="-337.95" font-family="Times,serif" font-size="14.00">log_length_groups</text>
</g>
<!-- log_length_groups&#45;&gt;length_groups -->
<g id="edge6" class="edge">
<title>log_length_groups&#45;&gt;length_groups</title>
<path fill="none" stroke="black" d="M634.38,-324.7C629.81,-316.9 624.31,-307.51 619.23,-298.83"/>
<polygon fill="black" stroke="black" points="622.37,-297.27 614.3,-290.41 616.33,-300.81 622.37,-297.27"/>
</g>
<!-- f_delta -->
<g id="node12" class="node">
<title>f_delta</title>
<ellipse fill="white" stroke="black" stroke-dasharray="5,2" cx="603.52" cy="-162" rx="36.51" ry="18"/>
<text text-anchor="middle" x="603.52" y="-156.95" font-family="Times,serif" font-size="14.00">f_delta</text>
</g>
<!-- alpha_groups&#45;&gt;f_delta -->
<g id="edge11" class="edge">
<title>alpha_groups&#45;&gt;f_delta</title>
<path fill="none" stroke="black" d="M471.87,-252.86C483.85,-234.4 505.19,-205.35 530.52,-188 539.28,-182 549.62,-177.31 559.72,-173.71"/>
<polygon fill="black" stroke="black" points="560.63,-177.09 569.06,-170.67 558.47,-170.43 560.63,-177.09"/>
</g>
<!-- length_groups&#45;&gt;f_delta -->
<g id="edge12" class="edge">
<title>length_groups&#45;&gt;f_delta</title>
<path fill="none" stroke="black" d="M603.52,-252.81C603.52,-236.27 603.52,-210.98 603.52,-191.44"/>
<polygon fill="black" stroke="black" points="607.02,-191.66 603.52,-181.66 600.02,-191.66 607.02,-191.66"/>
</g>
<!-- nu -->
<g id="node9" class="node">
<title>nu</title>
<ellipse fill="white" stroke="black" cx="518.52" cy="-90" rx="27" ry="18"/>
<text text-anchor="middle" x="518.52" y="-84.95" font-family="Times,serif" font-size="14.00">nu</text>
</g>
<!-- obs -->
<g id="node14" class="node">
<title>obs</title>
<ellipse fill="white" stroke="black" cx="603.52" cy="-18" rx="27" ry="18"/>
<text text-anchor="middle" x="603.52" y="-12.95" font-family="Times,serif" font-size="14.00">obs</text>
</g>
<!-- nu&#45;&gt;obs -->
<g id="edge16" class="edge">
<title>nu&#45;&gt;obs</title>
<path fill="none" stroke="black" d="M534.91,-75.5C547.17,-65.4 564.18,-51.39 578.19,-39.86"/>
<polygon fill="black" stroke="black" points="580.23,-42.72 585.72,-33.66 575.78,-37.31 580.23,-42.72"/>
</g>
<!-- scale_prior -->
<g id="node10" class="node">
<title>scale_prior</title>
<ellipse fill="white" stroke="black" cx="836.52" cy="-343" rx="51.86" ry="18"/>
<text text-anchor="middle" x="836.52" y="-337.95" font-family="Times,serif" font-size="14.00">scale_prior</text>
</g>
<!-- scale -->
<g id="node15" class="node">
<title>scale</title>
<ellipse fill="white" stroke="black" cx="836.52" cy="-271" rx="29.34" ry="18"/>
<text text-anchor="middle" x="836.52" y="-265.95" font-family="Times,serif" font-size="14.00">scale</text>
</g>
<!-- scale_prior&#45;&gt;scale -->
<g id="edge7" class="edge">
<title>scale_prior&#45;&gt;scale</title>
<path fill="none" stroke="black" d="M836.52,-324.7C836.52,-317.41 836.52,-308.73 836.52,-300.54"/>
<polygon fill="black" stroke="black" points="840.02,-300.62 836.52,-290.62 833.02,-300.62 840.02,-300.62"/>
</g>
<!-- f_group -->
<g id="node13" class="node">
<title>f_group</title>
<ellipse fill="white" stroke="black" stroke-dasharray="5,2" cx="603.52" cy="-90" rx="40.09" ry="18"/>
<text text-anchor="middle" x="603.52" y="-84.95" font-family="Times,serif" font-size="14.00">f_group</text>
</g>
<!-- global_f_global&#45;&gt;f_group -->
<g id="edge14" class="edge">
<title>global_f_global&#45;&gt;f_group</title>
<path fill="none" stroke="black" d="M323.74,-152.8C383,-144.08 475.8,-128.69 554.52,-108 557.13,-107.31 559.79,-106.56 562.47,-105.75"/>
<polygon fill="black" stroke="black" points="563.52,-109.09 571.98,-102.72 561.39,-102.43 563.52,-109.09"/>
</g>
<!-- f_delta&#45;&gt;f_group -->
<g id="edge15" class="edge">
<title>f_delta&#45;&gt;f_group</title>
<path fill="none" stroke="black" d="M603.52,-143.7C603.52,-136.41 603.52,-127.73 603.52,-119.54"/>
<polygon fill="black" stroke="black" points="607.02,-119.62 603.52,-109.62 600.02,-119.62 607.02,-119.62"/>
</g>
<!-- f_group&#45;&gt;obs -->
<g id="edge18" class="edge">
<title>f_group&#45;&gt;obs</title>
<path fill="none" stroke="black" d="M603.52,-71.7C603.52,-64.41 603.52,-55.73 603.52,-47.54"/>
<polygon fill="black" stroke="black" points="607.02,-47.62 603.52,-37.62 600.02,-47.62 607.02,-47.62"/>
</g>
<!-- scale&#45;&gt;obs -->
<g id="edge17" class="edge">
<title>scale&#45;&gt;obs</title>
<path fill="none" stroke="black" d="M831.73,-252.8C826.31,-235.34 816.28,-208.08 801.52,-188 753.07,-122.09 674.16,-64.9 632.07,-37.05"/>
<polygon fill="black" stroke="black" points="634.25,-34.29 623.97,-31.75 630.42,-40.15 634.25,-34.29"/>
</g>
<!-- beta_delta -->
<g id="node16" class="node">
<title>beta_delta</title>
<ellipse fill="white" stroke="black" cx="740.52" cy="-271" rx="48.79" ry="18"/>
<text text-anchor="middle" x="740.52" y="-265.95" font-family="Times,serif" font-size="14.00">beta_delta</text>
</g>
<!-- beta_delta&#45;&gt;f_delta -->
<g id="edge13" class="edge">
<title>beta_delta&#45;&gt;f_delta</title>
<path fill="none" stroke="black" d="M731.2,-252.84C720.36,-234.36 700.79,-205.29 676.52,-188 667.86,-181.84 657.56,-177.09 647.47,-173.48"/>
<polygon fill="black" stroke="black" points="648.72,-170.2 638.13,-170.45 646.56,-176.86 648.72,-170.2"/>
</g>
<!-- global_beta -->
<g id="node17" class="node">
<title>global_beta</title>
<ellipse fill="white" stroke="black" cx="329.52" cy="-271" rx="53.91" ry="18"/>
<text text-anchor="middle" x="329.52" y="-265.95" font-family="Times,serif" font-size="14.00">global_beta</text>
</g>
<!-- global_beta&#45;&gt;global_f_global -->
<g id="edge10" class="edge">
<title>global_beta&#45;&gt;global_f_global</title>
<path fill="none" stroke="black" d="M319.2,-253.28C308.71,-236.26 292.27,-209.62 279.98,-189.68"/>
<polygon fill="black" stroke="black" points="283,-187.92 274.77,-181.24 277.04,-191.59 283,-187.92"/>
</g>
</g>
</svg>
