<?xml version="1.0" encoding="utf-8" standalone="no"?>
<!DOCTYPE svg PUBLIC "-//W3C//DTD SVG 1.1//EN"
  "http://www.w3.org/Graphics/SVG/1.1/DTD/svg11.dtd">
<!-- Created with matplotlib (https://matplotlib.org/) -->
<svg height="384.44pt" version="1.1" viewBox="0 0 439.045312 384.44" width="439.045312pt" xmlns="http://www.w3.org/2000/svg" xmlns:xlink="http://www.w3.org/1999/xlink">
 <metadata>
  <rdf:RDF xmlns:cc="http://creativecommons.org/ns#" xmlns:dc="http://purl.org/dc/elements/1.1/" xmlns:rdf="http://www.w3.org/1999/02/22-rdf-syntax-ns#">
   <cc:Work>
    <dc:type rdf:resource="http://purl.org/dc/dcmitype/StillImage"/>
    <dc:date>2021-05-01T11:40:06.870514</dc:date>
    <dc:format>image/svg+xml</dc:format>
    <dc:creator>
     <cc:Agent>
      <dc:title>Matplotlib v3.3.4, https://matplotlib.org/</dc:title>
     </cc:Agent>
    </dc:creator>
   </cc:Work>
  </rdf:RDF>
 </metadata>
 <defs>
  <style type="text/css">*{stroke-linecap:butt;stroke-linejoin:round;}</style>
 </defs>
 <g id="figure_1">
  <g id="patch_1">
   <path d="M 0 384.44 
L 439.045312 384.44 
L 439.045312 0 
L 0 0 
z
" style="fill:#ffffff;"/>
  </g>
  <g id="axes_1">
   <g id="patch_2">
    <path d="M 41.245312 347.949375 
L 431.845313 347.949375 
L 431.845313 21.789375 
L 41.245312 21.789375 
z
" style="fill:#e6e6e6;"/>
   </g>
   <g id="matplotlib.axis_1">
    <g id="xtick_1">
     <g id="line2d_1">
      <path clip-path="url(#pca1f8c953a)" d="M 58.999858 347.949375 
L 58.999858 21.789375 
" style="fill:none;stroke:#cccccc;stroke-linecap:round;stroke-width:0.8;"/>
     </g>
     <g id="text_1">
      <!-- 0.0 -->
      <g style="fill:#262626;" transform="translate(52.049858 362.107188)scale(0.1 -0.1)">
       <defs>
        <path d="M 4.15625 35.296875 
Q 4.15625 48 6.765625 55.734375 
Q 9.375 63.484375 14.515625 67.671875 
Q 19.671875 71.875 27.484375 71.875 
Q 33.25 71.875 37.59375 69.546875 
Q 41.9375 67.234375 44.765625 62.859375 
Q 47.609375 58.5 49.21875 52.21875 
Q 50.828125 45.953125 50.828125 35.296875 
Q 50.828125 22.703125 48.234375 14.96875 
Q 45.65625 7.234375 40.5 3 
Q 35.359375 -1.21875 27.484375 -1.21875 
Q 17.140625 -1.21875 11.234375 6.203125 
Q 4.15625 15.140625 4.15625 35.296875 
z
M 13.1875 35.296875 
Q 13.1875 17.671875 17.3125 11.828125 
Q 21.4375 6 27.484375 6 
Q 33.546875 6 37.671875 11.859375 
Q 41.796875 17.71875 41.796875 35.296875 
Q 41.796875 52.984375 37.671875 58.78125 
Q 33.546875 64.59375 27.390625 64.59375 
Q 21.34375 64.59375 17.71875 59.46875 
Q 13.1875 52.9375 13.1875 35.296875 
z
" id="ArialMT-48"/>
        <path d="M 9.078125 0 
L 9.078125 10.015625 
L 19.09375 10.015625 
L 19.09375 0 
z
" id="ArialMT-46"/>
       </defs>
       <use xlink:href="#ArialMT-48"/>
       <use x="55.615234" xlink:href="#ArialMT-46"/>
       <use x="83.398438" xlink:href="#ArialMT-48"/>
      </g>
     </g>
    </g>
    <g id="xtick_2">
     <g id="line2d_2">
      <path clip-path="url(#pca1f8c953a)" d="M 130.01804 347.949375 
L 130.01804 21.789375 
" style="fill:none;stroke:#cccccc;stroke-linecap:round;stroke-width:0.8;"/>
     </g>
     <g id="text_2">
      <!-- 0.2 -->
      <g style="fill:#262626;" transform="translate(123.06804 362.107188)scale(0.1 -0.1)">
       <defs>
        <path d="M 50.34375 8.453125 
L 50.34375 0 
L 3.03125 0 
Q 2.9375 3.171875 4.046875 6.109375 
Q 5.859375 10.9375 9.828125 15.625 
Q 13.8125 20.3125 21.34375 26.46875 
Q 33.015625 36.03125 37.109375 41.625 
Q 41.21875 47.21875 41.21875 52.203125 
Q 41.21875 57.421875 37.46875 61 
Q 33.734375 64.59375 27.734375 64.59375 
Q 21.390625 64.59375 17.578125 60.78125 
Q 13.765625 56.984375 13.71875 50.25 
L 4.6875 51.171875 
Q 5.609375 61.28125 11.65625 66.578125 
Q 17.71875 71.875 27.9375 71.875 
Q 38.234375 71.875 44.234375 66.15625 
Q 50.25 60.453125 50.25 52 
Q 50.25 47.703125 48.484375 43.546875 
Q 46.734375 39.40625 42.65625 34.8125 
Q 38.578125 30.21875 29.109375 22.21875 
Q 21.1875 15.578125 18.9375 13.203125 
Q 16.703125 10.84375 15.234375 8.453125 
z
" id="ArialMT-50"/>
       </defs>
       <use xlink:href="#ArialMT-48"/>
       <use x="55.615234" xlink:href="#ArialMT-46"/>
       <use x="83.398438" xlink:href="#ArialMT-50"/>
      </g>
     </g>
    </g>
    <g id="xtick_3">
     <g id="line2d_3">
      <path clip-path="url(#pca1f8c953a)" d="M 201.036222 347.949375 
L 201.036222 21.789375 
" style="fill:none;stroke:#cccccc;stroke-linecap:round;stroke-width:0.8;"/>
     </g>
     <g id="text_3">
      <!-- 0.4 -->
      <g style="fill:#262626;" transform="translate(194.086222 362.107188)scale(0.1 -0.1)">
       <defs>
        <path d="M 32.328125 0 
L 32.328125 17.140625 
L 1.265625 17.140625 
L 1.265625 25.203125 
L 33.9375 71.578125 
L 41.109375 71.578125 
L 41.109375 25.203125 
L 50.78125 25.203125 
L 50.78125 17.140625 
L 41.109375 17.140625 
L 41.109375 0 
z
M 32.328125 25.203125 
L 32.328125 57.46875 
L 9.90625 25.203125 
z
" id="ArialMT-52"/>
       </defs>
       <use xlink:href="#ArialMT-48"/>
       <use x="55.615234" xlink:href="#ArialMT-46"/>
       <use x="83.398438" xlink:href="#ArialMT-52"/>
      </g>
     </g>
    </g>
    <g id="xtick_4">
     <g id="line2d_4">
      <path clip-path="url(#pca1f8c953a)" d="M 272.054403 347.949375 
L 272.054403 21.789375 
" style="fill:none;stroke:#cccccc;stroke-linecap:round;stroke-width:0.8;"/>
     </g>
     <g id="text_4">
      <!-- 0.6 -->
      <g style="fill:#262626;" transform="translate(265.104403 362.107188)scale(0.1 -0.1)">
       <defs>
        <path d="M 49.75 54.046875 
L 41.015625 53.375 
Q 39.84375 58.546875 37.703125 60.890625 
Q 34.125 64.65625 28.90625 64.65625 
Q 24.703125 64.65625 21.53125 62.3125 
Q 17.390625 59.28125 14.984375 53.46875 
Q 12.59375 47.65625 12.5 36.921875 
Q 15.671875 41.75 20.265625 44.09375 
Q 24.859375 46.4375 29.890625 46.4375 
Q 38.671875 46.4375 44.84375 39.96875 
Q 51.03125 33.5 51.03125 23.25 
Q 51.03125 16.5 48.125 10.71875 
Q 45.21875 4.9375 40.140625 1.859375 
Q 35.0625 -1.21875 28.609375 -1.21875 
Q 17.625 -1.21875 10.6875 6.859375 
Q 3.765625 14.9375 3.765625 33.5 
Q 3.765625 54.25 11.421875 63.671875 
Q 18.109375 71.875 29.4375 71.875 
Q 37.890625 71.875 43.28125 67.140625 
Q 48.6875 62.40625 49.75 54.046875 
z
M 13.875 23.1875 
Q 13.875 18.65625 15.796875 14.5 
Q 17.71875 10.359375 21.1875 8.171875 
Q 24.65625 6 28.46875 6 
Q 34.03125 6 38.03125 10.484375 
Q 42.046875 14.984375 42.046875 22.703125 
Q 42.046875 30.125 38.078125 34.390625 
Q 34.125 38.671875 28.125 38.671875 
Q 22.171875 38.671875 18.015625 34.390625 
Q 13.875 30.125 13.875 23.1875 
z
" id="ArialMT-54"/>
       </defs>
       <use xlink:href="#ArialMT-48"/>
       <use x="55.615234" xlink:href="#ArialMT-46"/>
       <use x="83.398438" xlink:href="#ArialMT-54"/>
      </g>
     </g>
    </g>
    <g id="xtick_5">
     <g id="line2d_5">
      <path clip-path="url(#pca1f8c953a)" d="M 343.072585 347.949375 
L 343.072585 21.789375 
" style="fill:none;stroke:#cccccc;stroke-linecap:round;stroke-width:0.8;"/>
     </g>
     <g id="text_5">
      <!-- 0.8 -->
      <g style="fill:#262626;" transform="translate(336.122585 362.107188)scale(0.1 -0.1)">
       <defs>
        <path d="M 17.671875 38.8125 
Q 12.203125 40.828125 9.5625 44.53125 
Q 6.9375 48.25 6.9375 53.421875 
Q 6.9375 61.234375 12.546875 66.546875 
Q 18.171875 71.875 27.484375 71.875 
Q 36.859375 71.875 42.578125 66.421875 
Q 48.296875 60.984375 48.296875 53.171875 
Q 48.296875 48.1875 45.671875 44.5 
Q 43.0625 40.828125 37.75 38.8125 
Q 44.34375 36.671875 47.78125 31.875 
Q 51.21875 27.09375 51.21875 20.453125 
Q 51.21875 11.28125 44.71875 5.03125 
Q 38.234375 -1.21875 27.640625 -1.21875 
Q 17.046875 -1.21875 10.546875 5.046875 
Q 4.046875 11.328125 4.046875 20.703125 
Q 4.046875 27.6875 7.59375 32.390625 
Q 11.140625 37.109375 17.671875 38.8125 
z
M 15.921875 53.71875 
Q 15.921875 48.640625 19.1875 45.40625 
Q 22.46875 42.1875 27.6875 42.1875 
Q 32.765625 42.1875 36.015625 45.375 
Q 39.265625 48.578125 39.265625 53.21875 
Q 39.265625 58.0625 35.90625 61.359375 
Q 32.5625 64.65625 27.59375 64.65625 
Q 22.5625 64.65625 19.234375 61.421875 
Q 15.921875 58.203125 15.921875 53.71875 
z
M 13.09375 20.65625 
Q 13.09375 16.890625 14.875 13.375 
Q 16.65625 9.859375 20.171875 7.921875 
Q 23.6875 6 27.734375 6 
Q 34.03125 6 38.125 10.046875 
Q 42.234375 14.109375 42.234375 20.359375 
Q 42.234375 26.703125 38.015625 30.859375 
Q 33.796875 35.015625 27.4375 35.015625 
Q 21.234375 35.015625 17.15625 30.90625 
Q 13.09375 26.8125 13.09375 20.65625 
z
" id="ArialMT-56"/>
       </defs>
       <use xlink:href="#ArialMT-48"/>
       <use x="55.615234" xlink:href="#ArialMT-46"/>
       <use x="83.398438" xlink:href="#ArialMT-56"/>
      </g>
     </g>
    </g>
    <g id="xtick_6">
     <g id="line2d_6">
      <path clip-path="url(#pca1f8c953a)" d="M 414.090767 347.949375 
L 414.090767 21.789375 
" style="fill:none;stroke:#cccccc;stroke-linecap:round;stroke-width:0.8;"/>
     </g>
     <g id="text_6">
      <!-- 1.0 -->
      <g style="fill:#262626;" transform="translate(407.140767 362.107188)scale(0.1 -0.1)">
       <defs>
        <path d="M 37.25 0 
L 28.46875 0 
L 28.46875 56 
Q 25.296875 52.984375 20.140625 49.953125 
Q 14.984375 46.921875 10.890625 45.40625 
L 10.890625 53.90625 
Q 18.265625 57.375 23.78125 62.296875 
Q 29.296875 67.234375 31.59375 71.875 
L 37.25 71.875 
z
" id="ArialMT-49"/>
       </defs>
       <use xlink:href="#ArialMT-49"/>
       <use x="55.615234" xlink:href="#ArialMT-46"/>
       <use x="83.398438" xlink:href="#ArialMT-48"/>
      </g>
     </g>
    </g>
    <g id="text_7">
     <!-- False Positive Rate -->
     <g style="fill:#262626;" transform="translate(193.473438 375.2525)scale(0.1 -0.1)">
      <defs>
       <path d="M 8.203125 0 
L 8.203125 71.578125 
L 56.5 71.578125 
L 56.5 63.140625 
L 17.671875 63.140625 
L 17.671875 40.96875 
L 51.265625 40.96875 
L 51.265625 32.515625 
L 17.671875 32.515625 
L 17.671875 0 
z
" id="ArialMT-70"/>
       <path d="M 40.4375 6.390625 
Q 35.546875 2.25 31.03125 0.53125 
Q 26.515625 -1.171875 21.34375 -1.171875 
Q 12.796875 -1.171875 8.203125 3 
Q 3.609375 7.171875 3.609375 13.671875 
Q 3.609375 17.484375 5.34375 20.625 
Q 7.078125 23.78125 9.890625 25.6875 
Q 12.703125 27.59375 16.21875 28.5625 
Q 18.796875 29.25 24.03125 29.890625 
Q 34.671875 31.15625 39.703125 32.90625 
Q 39.75 34.71875 39.75 35.203125 
Q 39.75 40.578125 37.25 42.78125 
Q 33.890625 45.75 27.25 45.75 
Q 21.046875 45.75 18.09375 43.578125 
Q 15.140625 41.40625 13.71875 35.890625 
L 5.125 37.0625 
Q 6.296875 42.578125 8.984375 45.96875 
Q 11.671875 49.359375 16.75 51.1875 
Q 21.828125 53.03125 28.515625 53.03125 
Q 35.15625 53.03125 39.296875 51.46875 
Q 43.453125 49.90625 45.40625 47.53125 
Q 47.359375 45.171875 48.140625 41.546875 
Q 48.578125 39.3125 48.578125 33.453125 
L 48.578125 21.734375 
Q 48.578125 9.46875 49.140625 6.21875 
Q 49.703125 2.984375 51.375 0 
L 42.1875 0 
Q 40.828125 2.734375 40.4375 6.390625 
z
M 39.703125 26.03125 
Q 34.90625 24.078125 25.34375 22.703125 
Q 19.921875 21.921875 17.671875 20.9375 
Q 15.4375 19.96875 14.203125 18.09375 
Q 12.984375 16.21875 12.984375 13.921875 
Q 12.984375 10.40625 15.640625 8.0625 
Q 18.3125 5.71875 23.4375 5.71875 
Q 28.515625 5.71875 32.46875 7.9375 
Q 36.421875 10.15625 38.28125 14.015625 
Q 39.703125 17 39.703125 22.796875 
z
" id="ArialMT-97"/>
       <path d="M 6.390625 0 
L 6.390625 71.578125 
L 15.1875 71.578125 
L 15.1875 0 
z
" id="ArialMT-108"/>
       <path d="M 3.078125 15.484375 
L 11.765625 16.84375 
Q 12.5 11.625 15.84375 8.84375 
Q 19.1875 6.0625 25.203125 6.0625 
Q 31.25 6.0625 34.171875 8.515625 
Q 37.109375 10.984375 37.109375 14.3125 
Q 37.109375 17.28125 34.515625 19 
Q 32.71875 20.171875 25.53125 21.96875 
Q 15.875 24.421875 12.140625 26.203125 
Q 8.40625 27.984375 6.46875 31.125 
Q 4.546875 34.28125 4.546875 38.09375 
Q 4.546875 41.546875 6.125 44.5 
Q 7.71875 47.46875 10.453125 49.421875 
Q 12.5 50.921875 16.03125 51.96875 
Q 19.578125 53.03125 23.640625 53.03125 
Q 29.734375 53.03125 34.34375 51.265625 
Q 38.96875 49.515625 41.15625 46.5 
Q 43.359375 43.5 44.1875 38.484375 
L 35.59375 37.3125 
Q 35.015625 41.3125 32.203125 43.546875 
Q 29.390625 45.796875 24.265625 45.796875 
Q 18.21875 45.796875 15.625 43.796875 
Q 13.03125 41.796875 13.03125 39.109375 
Q 13.03125 37.40625 14.109375 36.03125 
Q 15.1875 34.625 17.484375 33.6875 
Q 18.796875 33.203125 25.25 31.453125 
Q 34.578125 28.953125 38.25 27.359375 
Q 41.9375 25.78125 44.03125 22.75 
Q 46.140625 19.734375 46.140625 15.234375 
Q 46.140625 10.84375 43.578125 6.953125 
Q 41.015625 3.078125 36.171875 0.953125 
Q 31.34375 -1.171875 25.25 -1.171875 
Q 15.140625 -1.171875 9.84375 3.03125 
Q 4.546875 7.234375 3.078125 15.484375 
z
" id="ArialMT-115"/>
       <path d="M 42.09375 16.703125 
L 51.171875 15.578125 
Q 49.03125 7.625 43.21875 3.21875 
Q 37.40625 -1.171875 28.375 -1.171875 
Q 17 -1.171875 10.328125 5.828125 
Q 3.65625 12.84375 3.65625 25.484375 
Q 3.65625 38.578125 10.390625 45.796875 
Q 17.140625 53.03125 27.875 53.03125 
Q 38.28125 53.03125 44.875 45.953125 
Q 51.46875 38.875 51.46875 26.03125 
Q 51.46875 25.25 51.421875 23.6875 
L 12.75 23.6875 
Q 13.234375 15.140625 17.578125 10.59375 
Q 21.921875 6.0625 28.421875 6.0625 
Q 33.25 6.0625 36.671875 8.59375 
Q 40.09375 11.140625 42.09375 16.703125 
z
M 13.234375 30.90625 
L 42.1875 30.90625 
Q 41.609375 37.453125 38.875 40.71875 
Q 34.671875 45.796875 27.984375 45.796875 
Q 21.921875 45.796875 17.796875 41.75 
Q 13.671875 37.703125 13.234375 30.90625 
z
" id="ArialMT-101"/>
       <path id="ArialMT-32"/>
       <path d="M 7.71875 0 
L 7.71875 71.578125 
L 34.71875 71.578125 
Q 41.84375 71.578125 45.609375 70.90625 
Q 50.875 70.015625 54.4375 67.546875 
Q 58.015625 65.09375 60.1875 60.640625 
Q 62.359375 56.203125 62.359375 50.875 
Q 62.359375 41.75 56.546875 35.421875 
Q 50.734375 29.109375 35.546875 29.109375 
L 17.1875 29.109375 
L 17.1875 0 
z
M 17.1875 37.546875 
L 35.6875 37.546875 
Q 44.875 37.546875 48.734375 40.96875 
Q 52.59375 44.390625 52.59375 50.59375 
Q 52.59375 55.078125 50.3125 58.265625 
Q 48.046875 61.46875 44.34375 62.5 
Q 41.9375 63.140625 35.5 63.140625 
L 17.1875 63.140625 
z
" id="ArialMT-80"/>
       <path d="M 3.328125 25.921875 
Q 3.328125 40.328125 11.328125 47.265625 
Q 18.015625 53.03125 27.640625 53.03125 
Q 38.328125 53.03125 45.109375 46.015625 
Q 51.90625 39.015625 51.90625 26.65625 
Q 51.90625 16.65625 48.90625 10.90625 
Q 45.90625 5.171875 40.15625 2 
Q 34.421875 -1.171875 27.640625 -1.171875 
Q 16.75 -1.171875 10.03125 5.8125 
Q 3.328125 12.796875 3.328125 25.921875 
z
M 12.359375 25.921875 
Q 12.359375 15.96875 16.703125 11.015625 
Q 21.046875 6.0625 27.640625 6.0625 
Q 34.1875 6.0625 38.53125 11.03125 
Q 42.875 16.015625 42.875 26.21875 
Q 42.875 35.84375 38.5 40.796875 
Q 34.125 45.75 27.640625 45.75 
Q 21.046875 45.75 16.703125 40.8125 
Q 12.359375 35.890625 12.359375 25.921875 
z
" id="ArialMT-111"/>
       <path d="M 6.640625 61.46875 
L 6.640625 71.578125 
L 15.4375 71.578125 
L 15.4375 61.46875 
z
M 6.640625 0 
L 6.640625 51.859375 
L 15.4375 51.859375 
L 15.4375 0 
z
" id="ArialMT-105"/>
       <path d="M 25.78125 7.859375 
L 27.046875 0.09375 
Q 23.34375 -0.6875 20.40625 -0.6875 
Q 15.625 -0.6875 12.984375 0.828125 
Q 10.359375 2.34375 9.28125 4.8125 
Q 8.203125 7.28125 8.203125 15.1875 
L 8.203125 45.015625 
L 1.765625 45.015625 
L 1.765625 51.859375 
L 8.203125 51.859375 
L 8.203125 64.703125 
L 16.9375 69.96875 
L 16.9375 51.859375 
L 25.78125 51.859375 
L 25.78125 45.015625 
L 16.9375 45.015625 
L 16.9375 14.703125 
Q 16.9375 10.9375 17.40625 9.859375 
Q 17.875 8.796875 18.921875 8.15625 
Q 19.96875 7.515625 21.921875 7.515625 
Q 23.390625 7.515625 25.78125 7.859375 
z
" id="ArialMT-116"/>
       <path d="M 21 0 
L 1.265625 51.859375 
L 10.546875 51.859375 
L 21.6875 20.796875 
Q 23.484375 15.765625 25 10.359375 
Q 26.171875 14.453125 28.265625 20.21875 
L 39.796875 51.859375 
L 48.828125 51.859375 
L 29.203125 0 
z
" id="ArialMT-118"/>
       <path d="M 7.859375 0 
L 7.859375 71.578125 
L 39.59375 71.578125 
Q 49.171875 71.578125 54.140625 69.640625 
Q 59.125 67.71875 62.109375 62.828125 
Q 65.09375 57.953125 65.09375 52.046875 
Q 65.09375 44.4375 60.15625 39.203125 
Q 55.21875 33.984375 44.921875 32.5625 
Q 48.6875 30.765625 50.640625 29 
Q 54.78125 25.203125 58.5 19.484375 
L 70.953125 0 
L 59.03125 0 
L 49.5625 14.890625 
Q 45.40625 21.34375 42.71875 24.75 
Q 40.046875 28.171875 37.921875 29.53125 
Q 35.796875 30.90625 33.59375 31.453125 
Q 31.984375 31.78125 28.328125 31.78125 
L 17.328125 31.78125 
L 17.328125 0 
z
M 17.328125 39.984375 
L 37.703125 39.984375 
Q 44.1875 39.984375 47.84375 41.328125 
Q 51.515625 42.671875 53.421875 45.625 
Q 55.328125 48.578125 55.328125 52.046875 
Q 55.328125 57.125 51.640625 60.390625 
Q 47.953125 63.671875 39.984375 63.671875 
L 17.328125 63.671875 
z
" id="ArialMT-82"/>
      </defs>
      <use xlink:href="#ArialMT-70"/>
      <use x="61.083984" xlink:href="#ArialMT-97"/>
      <use x="116.699219" xlink:href="#ArialMT-108"/>
      <use x="138.916016" xlink:href="#ArialMT-115"/>
      <use x="188.916016" xlink:href="#ArialMT-101"/>
      <use x="244.53125" xlink:href="#ArialMT-32"/>
      <use x="272.314453" xlink:href="#ArialMT-80"/>
      <use x="339.013672" xlink:href="#ArialMT-111"/>
      <use x="394.628906" xlink:href="#ArialMT-115"/>
      <use x="444.628906" xlink:href="#ArialMT-105"/>
      <use x="466.845703" xlink:href="#ArialMT-116"/>
      <use x="494.628906" xlink:href="#ArialMT-105"/>
      <use x="516.845703" xlink:href="#ArialMT-118"/>
      <use x="566.845703" xlink:href="#ArialMT-101"/>
      <use x="622.460938" xlink:href="#ArialMT-32"/>
      <use x="650.244141" xlink:href="#ArialMT-82"/>
      <use x="722.460938" xlink:href="#ArialMT-97"/>
      <use x="778.076172" xlink:href="#ArialMT-116"/>
      <use x="805.859375" xlink:href="#ArialMT-101"/>
     </g>
    </g>
   </g>
   <g id="matplotlib.axis_2">
    <g id="ytick_1">
     <g id="line2d_7">
      <path clip-path="url(#pca1f8c953a)" d="M 41.245312 333.12392 
L 431.845313 333.12392 
" style="fill:none;stroke:#cccccc;stroke-linecap:round;stroke-width:0.8;"/>
     </g>
     <g id="text_8">
      <!-- 0.0 -->
      <g style="fill:#262626;" transform="translate(20.345312 336.702827)scale(0.1 -0.1)">
       <use xlink:href="#ArialMT-48"/>
       <use x="55.615234" xlink:href="#ArialMT-46"/>
       <use x="83.398438" xlink:href="#ArialMT-48"/>
      </g>
     </g>
    </g>
    <g id="ytick_2">
     <g id="line2d_8">
      <path clip-path="url(#pca1f8c953a)" d="M 41.245312 273.822102 
L 431.845313 273.822102 
" style="fill:none;stroke:#cccccc;stroke-linecap:round;stroke-width:0.8;"/>
     </g>
     <g id="text_9">
      <!-- 0.2 -->
      <g style="fill:#262626;" transform="translate(20.345312 277.401009)scale(0.1 -0.1)">
       <use xlink:href="#ArialMT-48"/>
       <use x="55.615234" xlink:href="#ArialMT-46"/>
       <use x="83.398438" xlink:href="#ArialMT-50"/>
      </g>
     </g>
    </g>
    <g id="ytick_3">
     <g id="line2d_9">
      <path clip-path="url(#pca1f8c953a)" d="M 41.245312 214.520284 
L 431.845313 214.520284 
" style="fill:none;stroke:#cccccc;stroke-linecap:round;stroke-width:0.8;"/>
     </g>
     <g id="text_10">
      <!-- 0.4 -->
      <g style="fill:#262626;" transform="translate(20.345312 218.09919)scale(0.1 -0.1)">
       <use xlink:href="#ArialMT-48"/>
       <use x="55.615234" xlink:href="#ArialMT-46"/>
       <use x="83.398438" xlink:href="#ArialMT-52"/>
      </g>
     </g>
    </g>
    <g id="ytick_4">
     <g id="line2d_10">
      <path clip-path="url(#pca1f8c953a)" d="M 41.245312 155.218466 
L 431.845313 155.218466 
" style="fill:none;stroke:#cccccc;stroke-linecap:round;stroke-width:0.8;"/>
     </g>
     <g id="text_11">
      <!-- 0.6 -->
      <g style="fill:#262626;" transform="translate(20.345312 158.797372)scale(0.1 -0.1)">
       <use xlink:href="#ArialMT-48"/>
       <use x="55.615234" xlink:href="#ArialMT-46"/>
       <use x="83.398438" xlink:href="#ArialMT-54"/>
      </g>
     </g>
    </g>
    <g id="ytick_5">
     <g id="line2d_11">
      <path clip-path="url(#pca1f8c953a)" d="M 41.245312 95.916648 
L 431.845313 95.916648 
" style="fill:none;stroke:#cccccc;stroke-linecap:round;stroke-width:0.8;"/>
     </g>
     <g id="text_12">
      <!-- 0.8 -->
      <g style="fill:#262626;" transform="translate(20.345312 99.495554)scale(0.1 -0.1)">
       <use xlink:href="#ArialMT-48"/>
       <use x="55.615234" xlink:href="#ArialMT-46"/>
       <use x="83.398438" xlink:href="#ArialMT-56"/>
      </g>
     </g>
    </g>
    <g id="ytick_6">
     <g id="line2d_12">
      <path clip-path="url(#pca1f8c953a)" d="M 41.245312 36.61483 
L 431.845313 36.61483 
" style="fill:none;stroke:#cccccc;stroke-linecap:round;stroke-width:0.8;"/>
     </g>
     <g id="text_13">
      <!-- 1.0 -->
      <g style="fill:#262626;" transform="translate(20.345312 40.193736)scale(0.1 -0.1)">
       <use xlink:href="#ArialMT-49"/>
       <use x="55.615234" xlink:href="#ArialMT-46"/>
       <use x="83.398438" xlink:href="#ArialMT-48"/>
      </g>
     </g>
    </g>
    <g id="text_14">
     <!-- True Positive Rate -->
     <g style="fill:#262626;" transform="translate(14.357812 225.807656)rotate(-90)scale(0.1 -0.1)">
      <defs>
       <path d="M 25.921875 0 
L 25.921875 63.140625 
L 2.34375 63.140625 
L 2.34375 71.578125 
L 59.078125 71.578125 
L 59.078125 63.140625 
L 35.40625 63.140625 
L 35.40625 0 
z
" id="ArialMT-84"/>
       <path d="M 6.5 0 
L 6.5 51.859375 
L 14.40625 51.859375 
L 14.40625 44 
Q 17.4375 49.515625 20 51.265625 
Q 22.5625 53.03125 25.640625 53.03125 
Q 30.078125 53.03125 34.671875 50.203125 
L 31.640625 42.046875 
Q 28.421875 43.953125 25.203125 43.953125 
Q 22.3125 43.953125 20.015625 42.21875 
Q 17.71875 40.484375 16.75 37.40625 
Q 15.28125 32.71875 15.28125 27.15625 
L 15.28125 0 
z
" id="ArialMT-114"/>
       <path d="M 40.578125 0 
L 40.578125 7.625 
Q 34.515625 -1.171875 24.125 -1.171875 
Q 19.53125 -1.171875 15.546875 0.578125 
Q 11.578125 2.34375 9.640625 5 
Q 7.71875 7.671875 6.9375 11.53125 
Q 6.390625 14.109375 6.390625 19.734375 
L 6.390625 51.859375 
L 15.1875 51.859375 
L 15.1875 23.09375 
Q 15.1875 16.21875 15.71875 13.8125 
Q 16.546875 10.359375 19.234375 8.375 
Q 21.921875 6.390625 25.875 6.390625 
Q 29.828125 6.390625 33.296875 8.421875 
Q 36.765625 10.453125 38.203125 13.9375 
Q 39.65625 17.4375 39.65625 24.078125 
L 39.65625 51.859375 
L 48.4375 51.859375 
L 48.4375 0 
z
" id="ArialMT-117"/>
      </defs>
      <use xlink:href="#ArialMT-84"/>
      <use x="57.333984" xlink:href="#ArialMT-114"/>
      <use x="90.634766" xlink:href="#ArialMT-117"/>
      <use x="146.25" xlink:href="#ArialMT-101"/>
      <use x="201.865234" xlink:href="#ArialMT-32"/>
      <use x="229.648438" xlink:href="#ArialMT-80"/>
      <use x="296.347656" xlink:href="#ArialMT-111"/>
      <use x="351.962891" xlink:href="#ArialMT-115"/>
      <use x="401.962891" xlink:href="#ArialMT-105"/>
      <use x="424.179688" xlink:href="#ArialMT-116"/>
      <use x="451.962891" xlink:href="#ArialMT-105"/>
      <use x="474.179688" xlink:href="#ArialMT-118"/>
      <use x="524.179688" xlink:href="#ArialMT-101"/>
      <use x="579.794922" xlink:href="#ArialMT-32"/>
      <use x="607.578125" xlink:href="#ArialMT-82"/>
      <use x="679.794922" xlink:href="#ArialMT-97"/>
      <use x="735.410156" xlink:href="#ArialMT-116"/>
      <use x="763.193359" xlink:href="#ArialMT-101"/>
     </g>
    </g>
   </g>
   <g id="line2d_13">
    <path clip-path="url(#pca1f8c953a)" d="M 58.999858 333.12392 
L 58.999858 325.32105 
L 58.999858 317.518179 
L 58.999858 309.715308 
L 58.999858 301.912437 
L 58.999858 294.109566 
L 58.999858 286.306696 
L 58.999858 278.503825 
L 58.999858 270.700954 
L 58.999858 262.898083 
L 58.999858 255.095212 
L 58.999858 247.292342 
L 58.999858 239.489471 
L 58.999858 231.6866 
L 58.999858 223.883729 
L 58.999858 216.080858 
L 58.999858 208.277987 
L 58.999858 200.475117 
L 58.999858 192.672246 
L 58.999858 184.869375 
L 58.999858 177.066504 
L 58.999858 169.263633 
L 58.999858 161.460763 
L 58.999858 153.657892 
L 68.59691 153.657892 
L 78.193961 153.657892 
L 78.193961 145.855021 
L 87.791013 145.855021 
L 97.388064 145.855021 
L 97.388064 138.05215 
L 106.985116 138.05215 
L 106.985116 130.249279 
L 106.985116 122.446408 
L 106.985116 114.643538 
L 106.985116 106.840667 
L 106.985116 99.037796 
L 116.582168 99.037796 
L 116.582168 91.234925 
L 126.179219 91.234925 
L 126.179219 83.432054 
L 135.776271 83.432054 
L 135.776271 75.629184 
L 145.373322 75.629184 
L 154.970374 75.629184 
L 164.567426 75.629184 
L 164.567426 67.826313 
L 164.567426 60.023442 
L 164.567426 52.220571 
L 174.164477 52.220571 
L 183.761529 52.220571 
L 193.35858 52.220571 
L 202.955632 52.220571 
L 212.552684 52.220571 
L 212.552684 44.4177 
L 222.149735 44.4177 
L 231.746787 44.4177 
L 231.746787 36.61483 
L 241.343838 36.61483 
L 250.94089 36.61483 
L 260.537941 36.61483 
L 270.134993 36.61483 
L 279.732045 36.61483 
L 289.329096 36.61483 
L 298.926148 36.61483 
L 308.523199 36.61483 
L 318.120251 36.61483 
L 327.717303 36.61483 
L 337.314354 36.61483 
L 346.911406 36.61483 
L 356.508457 36.61483 
L 366.105509 36.61483 
L 375.702561 36.61483 
L 385.299612 36.61483 
L 394.896664 36.61483 
L 404.493715 36.61483 
L 414.090767 36.61483 
" style="fill:none;stroke:#8172b3;stroke-linecap:round;stroke-width:1.5;"/>
    <defs>
     <path d="M 0 2 
C 0.530406 2 1.03916 1.789267 1.414214 1.414214 
C 1.789267 1.03916 2 0.530406 2 0 
C 2 -0.530406 1.789267 -1.03916 1.414214 -1.414214 
C 1.03916 -1.789267 0.530406 -2 0 -2 
C -0.530406 -2 -1.03916 -1.789267 -1.414214 -1.414214 
C -1.789267 -1.03916 -2 -0.530406 -2 0 
C -2 0.530406 -1.789267 1.03916 -1.414214 1.414214 
C -1.03916 1.789267 -0.530406 2 0 2 
z
" id="m3c0916bbb6" style="stroke:#8172b3;"/>
    </defs>
    <g clip-path="url(#pca1f8c953a)">
     <use style="fill:#8172b3;stroke:#8172b3;" x="58.999858" xlink:href="#m3c0916bbb6" y="333.12392"/>
     <use style="fill:#8172b3;stroke:#8172b3;" x="58.999858" xlink:href="#m3c0916bbb6" y="325.32105"/>
     <use style="fill:#8172b3;stroke:#8172b3;" x="58.999858" xlink:href="#m3c0916bbb6" y="317.518179"/>
     <use style="fill:#8172b3;stroke:#8172b3;" x="58.999858" xlink:href="#m3c0916bbb6" y="309.715308"/>
     <use style="fill:#8172b3;stroke:#8172b3;" x="58.999858" xlink:href="#m3c0916bbb6" y="301.912437"/>
     <use style="fill:#8172b3;stroke:#8172b3;" x="58.999858" xlink:href="#m3c0916bbb6" y="294.109566"/>
     <use style="fill:#8172b3;stroke:#8172b3;" x="58.999858" xlink:href="#m3c0916bbb6" y="286.306696"/>
     <use style="fill:#8172b3;stroke:#8172b3;" x="58.999858" xlink:href="#m3c0916bbb6" y="278.503825"/>
     <use style="fill:#8172b3;stroke:#8172b3;" x="58.999858" xlink:href="#m3c0916bbb6" y="270.700954"/>
     <use style="fill:#8172b3;stroke:#8172b3;" x="58.999858" xlink:href="#m3c0916bbb6" y="262.898083"/>
     <use style="fill:#8172b3;stroke:#8172b3;" x="58.999858" xlink:href="#m3c0916bbb6" y="255.095212"/>
     <use style="fill:#8172b3;stroke:#8172b3;" x="58.999858" xlink:href="#m3c0916bbb6" y="247.292342"/>
     <use style="fill:#8172b3;stroke:#8172b3;" x="58.999858" xlink:href="#m3c0916bbb6" y="239.489471"/>
     <use style="fill:#8172b3;stroke:#8172b3;" x="58.999858" xlink:href="#m3c0916bbb6" y="231.6866"/>
     <use style="fill:#8172b3;stroke:#8172b3;" x="58.999858" xlink:href="#m3c0916bbb6" y="223.883729"/>
     <use style="fill:#8172b3;stroke:#8172b3;" x="58.999858" xlink:href="#m3c0916bbb6" y="216.080858"/>
     <use style="fill:#8172b3;stroke:#8172b3;" x="58.999858" xlink:href="#m3c0916bbb6" y="208.277987"/>
     <use style="fill:#8172b3;stroke:#8172b3;" x="58.999858" xlink:href="#m3c0916bbb6" y="200.475117"/>
     <use style="fill:#8172b3;stroke:#8172b3;" x="58.999858" xlink:href="#m3c0916bbb6" y="192.672246"/>
     <use style="fill:#8172b3;stroke:#8172b3;" x="58.999858" xlink:href="#m3c0916bbb6" y="184.869375"/>
     <use style="fill:#8172b3;stroke:#8172b3;" x="58.999858" xlink:href="#m3c0916bbb6" y="177.066504"/>
     <use style="fill:#8172b3;stroke:#8172b3;" x="58.999858" xlink:href="#m3c0916bbb6" y="169.263633"/>
     <use style="fill:#8172b3;stroke:#8172b3;" x="58.999858" xlink:href="#m3c0916bbb6" y="161.460763"/>
     <use style="fill:#8172b3;stroke:#8172b3;" x="58.999858" xlink:href="#m3c0916bbb6" y="153.657892"/>
     <use style="fill:#8172b3;stroke:#8172b3;" x="68.59691" xlink:href="#m3c0916bbb6" y="153.657892"/>
     <use style="fill:#8172b3;stroke:#8172b3;" x="78.193961" xlink:href="#m3c0916bbb6" y="153.657892"/>
     <use style="fill:#8172b3;stroke:#8172b3;" x="78.193961" xlink:href="#m3c0916bbb6" y="145.855021"/>
     <use style="fill:#8172b3;stroke:#8172b3;" x="87.791013" xlink:href="#m3c0916bbb6" y="145.855021"/>
     <use style="fill:#8172b3;stroke:#8172b3;" x="97.388064" xlink:href="#m3c0916bbb6" y="145.855021"/>
     <use style="fill:#8172b3;stroke:#8172b3;" x="97.388064" xlink:href="#m3c0916bbb6" y="138.05215"/>
     <use style="fill:#8172b3;stroke:#8172b3;" x="106.985116" xlink:href="#m3c0916bbb6" y="138.05215"/>
     <use style="fill:#8172b3;stroke:#8172b3;" x="106.985116" xlink:href="#m3c0916bbb6" y="130.249279"/>
     <use style="fill:#8172b3;stroke:#8172b3;" x="106.985116" xlink:href="#m3c0916bbb6" y="122.446408"/>
     <use style="fill:#8172b3;stroke:#8172b3;" x="106.985116" xlink:href="#m3c0916bbb6" y="114.643538"/>
     <use style="fill:#8172b3;stroke:#8172b3;" x="106.985116" xlink:href="#m3c0916bbb6" y="106.840667"/>
     <use style="fill:#8172b3;stroke:#8172b3;" x="106.985116" xlink:href="#m3c0916bbb6" y="99.037796"/>
     <use style="fill:#8172b3;stroke:#8172b3;" x="116.582168" xlink:href="#m3c0916bbb6" y="99.037796"/>
     <use style="fill:#8172b3;stroke:#8172b3;" x="116.582168" xlink:href="#m3c0916bbb6" y="91.234925"/>
     <use style="fill:#8172b3;stroke:#8172b3;" x="126.179219" xlink:href="#m3c0916bbb6" y="91.234925"/>
     <use style="fill:#8172b3;stroke:#8172b3;" x="126.179219" xlink:href="#m3c0916bbb6" y="83.432054"/>
     <use style="fill:#8172b3;stroke:#8172b3;" x="135.776271" xlink:href="#m3c0916bbb6" y="83.432054"/>
     <use style="fill:#8172b3;stroke:#8172b3;" x="135.776271" xlink:href="#m3c0916bbb6" y="75.629184"/>
     <use style="fill:#8172b3;stroke:#8172b3;" x="145.373322" xlink:href="#m3c0916bbb6" y="75.629184"/>
     <use style="fill:#8172b3;stroke:#8172b3;" x="154.970374" xlink:href="#m3c0916bbb6" y="75.629184"/>
     <use style="fill:#8172b3;stroke:#8172b3;" x="164.567426" xlink:href="#m3c0916bbb6" y="75.629184"/>
     <use style="fill:#8172b3;stroke:#8172b3;" x="164.567426" xlink:href="#m3c0916bbb6" y="67.826313"/>
     <use style="fill:#8172b3;stroke:#8172b3;" x="164.567426" xlink:href="#m3c0916bbb6" y="60.023442"/>
     <use style="fill:#8172b3;stroke:#8172b3;" x="164.567426" xlink:href="#m3c0916bbb6" y="52.220571"/>
     <use style="fill:#8172b3;stroke:#8172b3;" x="174.164477" xlink:href="#m3c0916bbb6" y="52.220571"/>
     <use style="fill:#8172b3;stroke:#8172b3;" x="183.761529" xlink:href="#m3c0916bbb6" y="52.220571"/>
     <use style="fill:#8172b3;stroke:#8172b3;" x="193.35858" xlink:href="#m3c0916bbb6" y="52.220571"/>
     <use style="fill:#8172b3;stroke:#8172b3;" x="202.955632" xlink:href="#m3c0916bbb6" y="52.220571"/>
     <use style="fill:#8172b3;stroke:#8172b3;" x="212.552684" xlink:href="#m3c0916bbb6" y="52.220571"/>
     <use style="fill:#8172b3;stroke:#8172b3;" x="212.552684" xlink:href="#m3c0916bbb6" y="44.4177"/>
     <use style="fill:#8172b3;stroke:#8172b3;" x="222.149735" xlink:href="#m3c0916bbb6" y="44.4177"/>
     <use style="fill:#8172b3;stroke:#8172b3;" x="231.746787" xlink:href="#m3c0916bbb6" y="44.4177"/>
     <use style="fill:#8172b3;stroke:#8172b3;" x="231.746787" xlink:href="#m3c0916bbb6" y="36.61483"/>
     <use style="fill:#8172b3;stroke:#8172b3;" x="241.343838" xlink:href="#m3c0916bbb6" y="36.61483"/>
     <use style="fill:#8172b3;stroke:#8172b3;" x="250.94089" xlink:href="#m3c0916bbb6" y="36.61483"/>
     <use style="fill:#8172b3;stroke:#8172b3;" x="260.537941" xlink:href="#m3c0916bbb6" y="36.61483"/>
     <use style="fill:#8172b3;stroke:#8172b3;" x="270.134993" xlink:href="#m3c0916bbb6" y="36.61483"/>
     <use style="fill:#8172b3;stroke:#8172b3;" x="279.732045" xlink:href="#m3c0916bbb6" y="36.61483"/>
     <use style="fill:#8172b3;stroke:#8172b3;" x="289.329096" xlink:href="#m3c0916bbb6" y="36.61483"/>
     <use style="fill:#8172b3;stroke:#8172b3;" x="298.926148" xlink:href="#m3c0916bbb6" y="36.61483"/>
     <use style="fill:#8172b3;stroke:#8172b3;" x="308.523199" xlink:href="#m3c0916bbb6" y="36.61483"/>
     <use style="fill:#8172b3;stroke:#8172b3;" x="318.120251" xlink:href="#m3c0916bbb6" y="36.61483"/>
     <use style="fill:#8172b3;stroke:#8172b3;" x="327.717303" xlink:href="#m3c0916bbb6" y="36.61483"/>
     <use style="fill:#8172b3;stroke:#8172b3;" x="337.314354" xlink:href="#m3c0916bbb6" y="36.61483"/>
     <use style="fill:#8172b3;stroke:#8172b3;" x="346.911406" xlink:href="#m3c0916bbb6" y="36.61483"/>
     <use style="fill:#8172b3;stroke:#8172b3;" x="356.508457" xlink:href="#m3c0916bbb6" y="36.61483"/>
     <use style="fill:#8172b3;stroke:#8172b3;" x="366.105509" xlink:href="#m3c0916bbb6" y="36.61483"/>
     <use style="fill:#8172b3;stroke:#8172b3;" x="375.702561" xlink:href="#m3c0916bbb6" y="36.61483"/>
     <use style="fill:#8172b3;stroke:#8172b3;" x="385.299612" xlink:href="#m3c0916bbb6" y="36.61483"/>
     <use style="fill:#8172b3;stroke:#8172b3;" x="394.896664" xlink:href="#m3c0916bbb6" y="36.61483"/>
     <use style="fill:#8172b3;stroke:#8172b3;" x="404.493715" xlink:href="#m3c0916bbb6" y="36.61483"/>
     <use style="fill:#8172b3;stroke:#8172b3;" x="414.090767" xlink:href="#m3c0916bbb6" y="36.61483"/>
    </g>
   </g>
   <g id="patch_3">
    <path d="M 41.245312 347.949375 
L 41.245312 21.789375 
" style="fill:none;stroke:#ffffff;stroke-linecap:square;stroke-linejoin:miter;stroke-width:0.8;"/>
   </g>
   <g id="patch_4">
    <path d="M 431.845313 347.949375 
L 431.845313 21.789375 
" style="fill:none;stroke:#ffffff;stroke-linecap:square;stroke-linejoin:miter;stroke-width:0.8;"/>
   </g>
   <g id="patch_5">
    <path d="M 41.245312 347.949375 
L 431.845313 347.949375 
" style="fill:none;stroke:#ffffff;stroke-linecap:square;stroke-linejoin:miter;stroke-width:0.8;"/>
   </g>
   <g id="patch_6">
    <path d="M 41.245312 21.789375 
L 431.845313 21.789375 
" style="fill:none;stroke:#ffffff;stroke-linecap:square;stroke-linejoin:miter;stroke-width:0.8;"/>
   </g>
   <g id="text_15">
    <!-- ROC - Test Set -->
    <g style="fill:#262626;" transform="translate(196.3125 15.789375)scale(0.12 -0.12)">
     <defs>
      <path d="M 4.828125 34.859375 
Q 4.828125 52.6875 14.390625 62.765625 
Q 23.96875 72.859375 39.109375 72.859375 
Q 49.03125 72.859375 56.984375 68.109375 
Q 64.9375 63.375 69.109375 54.90625 
Q 73.296875 46.4375 73.296875 35.6875 
Q 73.296875 24.8125 68.890625 16.21875 
Q 64.5 7.625 56.4375 3.203125 
Q 48.390625 -1.21875 39.0625 -1.21875 
Q 28.953125 -1.21875 20.984375 3.65625 
Q 13.03125 8.546875 8.921875 16.984375 
Q 4.828125 25.4375 4.828125 34.859375 
z
M 14.59375 34.71875 
Q 14.59375 21.78125 21.546875 14.328125 
Q 28.515625 6.890625 39.015625 6.890625 
Q 49.703125 6.890625 56.609375 14.40625 
Q 63.53125 21.921875 63.53125 35.75 
Q 63.53125 44.484375 60.578125 51 
Q 57.625 57.515625 51.921875 61.109375 
Q 46.234375 64.703125 39.15625 64.703125 
Q 29.109375 64.703125 21.84375 57.78125 
Q 14.59375 50.875 14.59375 34.71875 
z
" id="ArialMT-79"/>
      <path d="M 58.796875 25.09375 
L 68.265625 22.703125 
Q 65.28125 11.03125 57.546875 4.90625 
Q 49.8125 -1.21875 38.625 -1.21875 
Q 27.046875 -1.21875 19.796875 3.484375 
Q 12.546875 8.203125 8.765625 17.140625 
Q 4.984375 26.078125 4.984375 36.328125 
Q 4.984375 47.515625 9.25 55.828125 
Q 13.53125 64.15625 21.40625 68.46875 
Q 29.296875 72.796875 38.765625 72.796875 
Q 49.515625 72.796875 56.828125 67.328125 
Q 64.15625 61.859375 67.046875 51.953125 
L 57.71875 49.75 
Q 55.21875 57.5625 50.484375 61.125 
Q 45.75 64.703125 38.578125 64.703125 
Q 30.328125 64.703125 24.78125 60.734375 
Q 19.234375 56.78125 16.984375 50.109375 
Q 14.75 43.453125 14.75 36.375 
Q 14.75 27.25 17.40625 20.4375 
Q 20.0625 13.625 25.671875 10.25 
Q 31.296875 6.890625 37.84375 6.890625 
Q 45.796875 6.890625 51.3125 11.46875 
Q 56.84375 16.0625 58.796875 25.09375 
z
" id="ArialMT-67"/>
      <path d="M 3.171875 21.484375 
L 3.171875 30.328125 
L 30.171875 30.328125 
L 30.171875 21.484375 
z
" id="ArialMT-45"/>
      <path d="M 4.5 23 
L 13.421875 23.78125 
Q 14.0625 18.40625 16.375 14.96875 
Q 18.703125 11.53125 23.578125 9.40625 
Q 28.46875 7.28125 34.578125 7.28125 
Q 39.984375 7.28125 44.140625 8.890625 
Q 48.296875 10.5 50.3125 13.296875 
Q 52.34375 16.109375 52.34375 19.4375 
Q 52.34375 22.796875 50.390625 25.3125 
Q 48.4375 27.828125 43.953125 29.546875 
Q 41.0625 30.671875 31.203125 33.03125 
Q 21.34375 35.40625 17.390625 37.5 
Q 12.25 40.1875 9.734375 44.15625 
Q 7.234375 48.140625 7.234375 53.078125 
Q 7.234375 58.5 10.296875 63.203125 
Q 13.375 67.921875 19.28125 70.359375 
Q 25.203125 72.796875 32.421875 72.796875 
Q 40.375 72.796875 46.453125 70.234375 
Q 52.546875 67.671875 55.8125 62.6875 
Q 59.078125 57.71875 59.328125 51.421875 
L 50.25 50.734375 
Q 49.515625 57.515625 45.28125 60.984375 
Q 41.0625 64.453125 32.8125 64.453125 
Q 24.21875 64.453125 20.28125 61.296875 
Q 16.359375 58.15625 16.359375 53.71875 
Q 16.359375 49.859375 19.140625 47.359375 
Q 21.875 44.875 33.421875 42.265625 
Q 44.96875 39.65625 49.265625 37.703125 
Q 55.515625 34.8125 58.484375 30.390625 
Q 61.46875 25.984375 61.46875 20.21875 
Q 61.46875 14.5 58.203125 9.4375 
Q 54.9375 4.390625 48.796875 1.578125 
Q 42.671875 -1.21875 35.015625 -1.21875 
Q 25.296875 -1.21875 18.71875 1.609375 
Q 12.15625 4.4375 8.421875 10.125 
Q 4.6875 15.828125 4.5 23 
z
" id="ArialMT-83"/>
     </defs>
     <use xlink:href="#ArialMT-82"/>
     <use x="72.216797" xlink:href="#ArialMT-79"/>
     <use x="150" xlink:href="#ArialMT-67"/>
     <use x="222.216797" xlink:href="#ArialMT-32"/>
     <use x="250" xlink:href="#ArialMT-45"/>
     <use x="283.300781" xlink:href="#ArialMT-32"/>
     <use x="309.333984" xlink:href="#ArialMT-84"/>
     <use x="359.292969" xlink:href="#ArialMT-101"/>
     <use x="414.908203" xlink:href="#ArialMT-115"/>
     <use x="464.908203" xlink:href="#ArialMT-116"/>
     <use x="492.691406" xlink:href="#ArialMT-32"/>
     <use x="520.474609" xlink:href="#ArialMT-83"/>
     <use x="587.173828" xlink:href="#ArialMT-101"/>
     <use x="642.789062" xlink:href="#ArialMT-116"/>
    </g>
   </g>
   <g id="legend_1">
    <g id="patch_7">
     <path d="M 340.873438 342.949375 
L 424.845313 342.949375 
Q 426.845313 342.949375 426.845313 340.949375 
L 426.845313 327.804063 
Q 426.845313 325.804063 424.845313 325.804063 
L 340.873438 325.804063 
Q 338.873438 325.804063 338.873438 327.804063 
L 338.873438 340.949375 
Q 338.873438 342.949375 340.873438 342.949375 
z
" style="fill:#e6e6e6;opacity:0.8;stroke:#cccccc;stroke-linejoin:miter;"/>
    </g>
    <g id="line2d_14">
     <path d="M 342.873438 333.461875 
L 362.873438 333.461875 
" style="fill:none;stroke:#8172b3;stroke-linecap:round;stroke-width:1.5;"/>
    </g>
    <g id="line2d_15">
     <g>
      <use style="fill:#8172b3;stroke:#8172b3;" x="352.873438" xlink:href="#m3c0916bbb6" y="333.461875"/>
     </g>
    </g>
    <g id="text_16">
     <!-- AUC = 0.92 -->
     <g style="fill:#262626;" transform="translate(370.873438 336.961875)scale(0.1 -0.1)">
      <defs>
       <path d="M -0.140625 0 
L 27.34375 71.578125 
L 37.546875 71.578125 
L 66.84375 0 
L 56.0625 0 
L 47.703125 21.6875 
L 17.78125 21.6875 
L 9.90625 0 
z
M 20.515625 29.390625 
L 44.78125 29.390625 
L 37.3125 49.21875 
Q 33.890625 58.25 32.234375 64.0625 
Q 30.859375 57.171875 28.375 50.390625 
z
" id="ArialMT-65"/>
       <path d="M 54.6875 71.578125 
L 64.15625 71.578125 
L 64.15625 30.21875 
Q 64.15625 19.4375 61.71875 13.078125 
Q 59.28125 6.734375 52.90625 2.75 
Q 46.53125 -1.21875 36.1875 -1.21875 
Q 26.125 -1.21875 19.71875 2.25 
Q 13.328125 5.71875 10.59375 12.28125 
Q 7.859375 18.84375 7.859375 30.21875 
L 7.859375 71.578125 
L 17.328125 71.578125 
L 17.328125 30.28125 
Q 17.328125 20.953125 19.0625 16.53125 
Q 20.796875 12.109375 25.015625 9.71875 
Q 29.25 7.328125 35.359375 7.328125 
Q 45.796875 7.328125 50.234375 12.0625 
Q 54.6875 16.796875 54.6875 30.28125 
z
" id="ArialMT-85"/>
       <path d="M 52.828125 42.09375 
L 5.5625 42.09375 
L 5.5625 50.296875 
L 52.828125 50.296875 
z
M 52.828125 20.359375 
L 5.5625 20.359375 
L 5.5625 28.5625 
L 52.828125 28.5625 
z
" id="ArialMT-61"/>
       <path d="M 5.46875 16.546875 
L 13.921875 17.328125 
Q 14.984375 11.375 18.015625 8.6875 
Q 21.046875 6 25.78125 6 
Q 29.828125 6 32.875 7.859375 
Q 35.9375 9.71875 37.890625 12.8125 
Q 39.84375 15.921875 41.15625 21.1875 
Q 42.484375 26.46875 42.484375 31.9375 
Q 42.484375 32.515625 42.4375 33.6875 
Q 39.796875 29.5 35.234375 26.875 
Q 30.671875 24.265625 25.34375 24.265625 
Q 16.453125 24.265625 10.296875 30.703125 
Q 4.15625 37.15625 4.15625 47.703125 
Q 4.15625 58.59375 10.578125 65.234375 
Q 17 71.875 26.65625 71.875 
Q 33.640625 71.875 39.421875 68.109375 
Q 45.21875 64.359375 48.21875 57.390625 
Q 51.21875 50.4375 51.21875 37.25 
Q 51.21875 23.53125 48.234375 15.40625 
Q 45.265625 7.28125 39.375 3.03125 
Q 33.5 -1.21875 25.59375 -1.21875 
Q 17.1875 -1.21875 11.859375 3.4375 
Q 6.546875 8.109375 5.46875 16.546875 
z
M 41.453125 48.140625 
Q 41.453125 55.71875 37.421875 60.15625 
Q 33.40625 64.59375 27.734375 64.59375 
Q 21.875 64.59375 17.53125 59.8125 
Q 13.1875 55.03125 13.1875 47.40625 
Q 13.1875 40.578125 17.3125 36.296875 
Q 21.4375 32.03125 27.484375 32.03125 
Q 33.59375 32.03125 37.515625 36.296875 
Q 41.453125 40.578125 41.453125 48.140625 
z
" id="ArialMT-57"/>
      </defs>
      <use xlink:href="#ArialMT-65"/>
      <use x="66.699219" xlink:href="#ArialMT-85"/>
      <use x="138.916016" xlink:href="#ArialMT-67"/>
      <use x="211.132812" xlink:href="#ArialMT-32"/>
      <use x="238.916016" xlink:href="#ArialMT-61"/>
      <use x="297.314453" xlink:href="#ArialMT-32"/>
      <use x="325.097656" xlink:href="#ArialMT-48"/>
      <use x="380.712891" xlink:href="#ArialMT-46"/>
      <use x="408.496094" xlink:href="#ArialMT-57"/>
      <use x="464.111328" xlink:href="#ArialMT-50"/>
     </g>
    </g>
   </g>
  </g>
 </g>
 <defs>
  <clipPath id="pca1f8c953a">
   <rect height="326.16" width="390.6" x="41.245312" y="21.789375"/>
  </clipPath>
 </defs>
</svg>
