<?xml version="1.0" encoding="utf-8" standalone="no"?>
<!DOCTYPE svg PUBLIC "-//W3C//DTD SVG 1.1//EN"
  "http://www.w3.org/Graphics/SVG/1.1/DTD/svg11.dtd">
<svg xmlns:xlink="http://www.w3.org/1999/xlink" width="656.39952pt" height="296.39952pt" viewBox="0 0 656.39952 296.39952" xmlns="http://www.w3.org/2000/svg" version="1.1">
 <metadata>
  <rdf:RDF xmlns:dc="http://purl.org/dc/elements/1.1/" xmlns:cc="http://creativecommons.org/ns#" xmlns:rdf="http://www.w3.org/1999/02/22-rdf-syntax-ns#">
   <cc:Work>
    <dc:type rdf:resource="http://purl.org/dc/dcmitype/StillImage"/>
    <dc:date>2022-03-28T22:21:09.562018</dc:date>
    <dc:format>image/svg+xml</dc:format>
    <dc:creator>
     <cc:Agent>
      <dc:title>Matplotlib v3.5.1, https://matplotlib.org/</dc:title>
     </cc:Agent>
    </dc:creator>
   </cc:Work>
  </rdf:RDF>
 </metadata>
 <defs>
  <style type="text/css">*{stroke-linejoin: round; stroke-linecap: butt}</style>
 </defs>
 <g id="figure_1">
  <g id="patch_1">
   <path d="M 0 296.39952 
L 656.39952 296.39952 
L 656.39952 0 
L 0 0 
L 0 296.39952 
z
" style="fill: none"/>
  </g>
  <g id="axes_1">
   <g id="patch_2">
    <path d="M 42.216875 260.407645 
L 321.77851 260.407645 
L 321.77851 45.62723 
L 42.216875 45.62723 
z
" style="fill: #eeeeee"/>
   </g>
   <g id="PolyCollection_1">
    <path d="M -110408.649747 55.854869 
L -110408.649747 260.407645 
L 54.924222 260.407645 
L 88.204232 260.407645 
L 107.671789 260.407645 
L 121.484241 260.407645 
L 132.198011 260.407645 
L 140.951799 260.407645 
L 148.353021 260.407645 
L 154.764251 260.407645 
L 160.419357 260.407645 
L 165.478021 260.407645 
L 170.05414 260.407645 
L 174.231809 260.407645 
L 178.074891 260.407645 
L 181.633031 260.407645 
L 184.945579 260.407645 
L 188.044261 260.407645 
L 190.955025 260.407645 
L 193.699366 260.407645 
L 196.295291 260.407645 
L 198.758031 260.407645 
L 201.100588 260.407645 
L 203.334149 260.407645 
L 205.468408 260.407645 
L 207.511818 260.407645 
L 209.471801 260.407645 
L 211.354901 260.407645 
L 213.166924 260.407645 
L 214.91304 260.407645 
L 216.597876 260.407645 
L 218.225588 260.407645 
L 219.799923 260.407645 
L 221.32427 260.407645 
L 222.801707 260.407645 
L 224.235034 260.407645 
L 225.62681 260.407645 
L 226.979376 260.407645 
L 228.29488 260.407645 
L 229.5753 260.407645 
L 230.822459 260.407645 
L 232.03804 260.407645 
L 233.223604 260.407645 
L 234.380598 260.407645 
L 235.510365 260.407645 
L 236.614159 260.407645 
L 237.693146 260.407645 
L 238.748417 260.407645 
L 239.780993 260.407645 
L 240.791828 260.407645 
L 241.78182 260.407645 
L 242.75181 260.407645 
L 243.702592 260.407645 
L 244.634911 260.407645 
L 245.54947 260.407645 
L 246.446934 260.407645 
L 247.327929 260.407645 
L 248.19305 260.407645 
L 249.042858 260.407645 
L 249.877886 260.407645 
L 250.698639 260.407645 
L 251.505598 260.407645 
L 252.299218 260.407645 
L 253.079933 260.407645 
L 253.848155 260.407645 
L 254.60428 260.407645 
L 255.348681 260.407645 
L 256.081717 260.407645 
L 256.803729 260.407645 
L 257.515044 260.407645 
L 258.215975 260.407645 
L 258.90682 260.407645 
L 259.587865 260.407645 
L 260.259386 260.407645 
L 260.921643 260.407645 
L 261.57489 260.407645 
L 262.219368 260.407645 
L 262.85531 260.407645 
L 263.482938 260.407645 
L 264.102468 260.407645 
L 264.714106 260.407645 
L 265.31805 260.407645 
L 265.914491 260.407645 
L 266.503614 260.407645 
L 267.085596 260.407645 
L 267.660607 260.407645 
L 268.228814 260.407645 
L 268.790375 260.407645 
L 269.345444 260.407645 
L 269.894169 260.407645 
L 270.436693 260.407645 
L 270.973156 260.407645 
L 271.50369 260.407645 
L 272.028427 260.407645 
L 272.54749 260.407645 
L 273.061002 260.407645 
L 273.56908 260.407645 
L 274.071837 260.407645 
L 274.569385 260.407645 
L 275.061829 260.407645 
L 275.549274 260.407645 
L 276.03182 260.407645 
L 276.509564 260.407645 
L 276.982602 260.407645 
L 277.451024 260.407645 
L 277.91492 260.407645 
L 278.374378 260.407645 
L 278.82948 260.407645 
L 279.280308 260.407645 
L 279.726943 260.407645 
L 280.169462 260.407645 
L 280.607939 260.407645 
L 281.042448 260.407645 
L 281.473059 260.407645 
L 281.899844 260.407645 
L 282.322868 260.407645 
L 282.742197 260.407645 
L 283.157896 260.407645 
L 283.570026 260.407645 
L 283.978649 260.407645 
L 284.383824 260.407645 
L 284.785608 260.407645 
L 285.184057 260.407645 
L 285.579227 260.407645 
L 285.971172 260.407645 
L 286.359942 260.407645 
L 286.74559 260.407645 
L 287.128165 260.407645 
L 287.507716 260.407645 
L 287.884289 260.407645 
L 288.257933 260.407645 
L 288.62869 260.407645 
L 288.996607 260.407645 
L 289.361726 260.407645 
L 289.724089 260.407645 
L 290.083738 260.407645 
L 290.440713 260.407645 
L 290.795054 260.407645 
L 291.146798 260.407645 
L 291.495984 260.407645 
L 291.842649 260.407645 
L 292.18683 260.407645 
L 292.52856 260.407645 
L 292.867875 260.407645 
L 293.204809 260.407645 
L 293.539395 260.407645 
L 293.871666 260.407645 
L 294.201653 260.407645 
L 294.529387 260.407645 
L 294.854899 260.407645 
L 295.17822 260.407645 
L 295.499378 260.407645 
L 295.818401 260.407645 
L 296.135319 260.407645 
L 296.450159 260.407645 
L 296.762948 260.407645 
L 297.073712 260.407645 
L 297.382478 260.407645 
L 297.689271 260.407645 
L 297.994116 260.407645 
L 298.297037 260.407645 
L 298.59806 260.407645 
L 298.897206 260.407645 
L 299.194501 260.407645 
L 299.489966 260.407645 
L 299.783624 260.407645 
L 300.075496 260.407645 
L 300.365605 260.407645 
L 300.653972 260.407645 
L 300.940617 260.407645 
L 301.225561 260.407645 
L 301.508824 260.407645 
L 301.790425 260.407645 
L 302.070385 260.407645 
L 302.348721 260.407645 
L 302.625453 260.407645 
L 302.9006 260.407645 
L 303.174178 260.407645 
L 303.446207 260.407645 
L 303.716703 260.407645 
L 303.985683 260.407645 
L 304.253165 260.407645 
L 304.519165 260.407645 
L 304.7837 260.407645 
L 305.046785 260.407645 
L 305.308436 260.407645 
L 305.56867 260.407645 
L 305.8275 260.407645 
L 306.084942 260.407645 
L 306.341012 260.407645 
L 306.595723 260.407645 
L 306.84909 260.407645 
L 307.101126 260.407645 
L 307.351847 260.407645 
L 307.601265 260.407645 
L 307.849395 260.407645 
L 308.096248 260.407645 
L 308.341839 260.407645 
L 308.58618 260.407645 
L 308.829284 260.407645 
L 309.071163 260.407645 
L 309.071163 260.406082 
L 309.071163 260.406082 
L 308.829284 260.403666 
L 308.58618 260.39856 
L 308.341839 260.389033 
L 308.096248 260.373441 
L 307.849395 260.351256 
L 307.601265 260.324248 
L 307.351847 260.296997 
L 307.101126 260.275948 
L 306.84909 260.267026 
L 306.595723 260.27295 
L 306.341012 260.291902 
L 306.084942 260.318422 
L 305.8275 260.345943 
L 305.56867 260.369366 
L 305.308436 260.386337 
L 305.046785 260.396988 
L 304.7837 260.402803 
L 304.519165 260.405465 
L 304.253165 260.406147 
L 303.985683 260.405215 
L 303.716703 260.402175 
L 303.446207 260.395748 
L 303.174178 260.384206 
L 302.9006 260.366137 
L 302.625453 260.341582 
L 302.348721 260.312984 
L 302.070385 260.285104 
L 301.790425 260.26334 
L 301.508824 260.251079 
L 301.225561 260.247743 
L 300.940617 260.249163 
L 300.653972 260.25041 
L 300.365605 260.249252 
L 300.075496 260.247744 
L 299.783624 260.250763 
L 299.489966 260.262583 
L 299.194501 260.283973 
L 298.897206 260.311692 
L 298.59806 260.340372 
L 298.297037 260.365179 
L 297.994116 260.383554 
L 297.689271 260.395373 
L 297.382478 260.402035 
L 297.073712 260.405344 
L 296.762948 260.406798 
L 296.450159 260.407365 
L 296.135319 260.407561 
L 295.818401 260.407616 
L 295.499378 260.40761 
L 295.17822 260.407535 
L 294.854899 260.407287 
L 294.529387 260.406585 
L 294.201653 260.404833 
L 293.871666 260.400949 
L 293.539395 260.393343 
L 293.204809 260.380238 
L 292.867875 260.360532 
L 292.52856 260.33499 
L 292.18683 260.30713 
L 291.842649 260.282898 
L 291.495984 260.268751 
L 291.146798 260.2689 
L 290.795054 260.283255 
L 290.440713 260.307417 
L 290.083738 260.334645 
L 289.724089 260.35847 
L 289.361726 260.37441 
L 288.996607 260.380197 
L 288.62869 260.375158 
L 288.257933 260.359792 
L 287.884289 260.33606 
L 287.507716 260.307895 
L 287.128165 260.280905 
L 286.74559 260.260622 
L 286.359942 260.249974 
L 285.971172 260.247704 
L 285.579227 260.249198 
L 285.184057 260.249516 
L 284.785608 260.246571 
L 284.383824 260.242074 
L 283.978649 260.239554 
L 283.570026 260.241073 
L 283.157896 260.245384 
L 282.742197 260.249041 
L 282.322868 260.249554 
L 281.899844 260.247962 
L 281.473059 260.248699 
L 281.042448 260.256815 
L 280.607939 260.274655 
L 280.169462 260.300336 
L 279.726943 260.328774 
L 279.280308 260.354158 
L 278.82948 260.372017 
L 278.374378 260.379894 
L 277.91492 260.376922 
L 277.451024 260.363354 
L 276.982602 260.340695 
L 276.509564 260.312163 
L 276.03182 260.282466 
L 275.549274 260.256165 
L 275.061829 260.235186 
L 274.569385 260.217254 
L 274.071837 260.197022 
L 273.56908 260.169703 
L 273.061002 260.134643 
L 272.54749 260.095573 
L 272.028427 260.056562 
L 271.50369 260.01664 
L 270.973156 259.968242 
L 270.436693 259.90243 
L 269.894169 259.818169 
L 269.345444 259.728237 
L 268.790375 259.655405 
L 268.228814 259.619655 
L 267.660607 259.625102 
L 267.085596 259.656849 
L 266.503614 259.690883 
L 265.914491 259.709744 
L 265.31805 259.711937 
L 264.714106 259.708191 
L 264.102468 259.708589 
L 263.482938 259.712013 
L 262.85531 259.707022 
L 262.219368 259.683227 
L 261.57489 259.64294 
L 260.921643 259.602347 
L 260.259386 259.580306 
L 259.587865 259.583691 
L 258.90682 259.601696 
L 258.215975 259.614325 
L 257.515044 259.6084 
L 256.803729 259.587856 
L 256.081717 259.56974 
L 255.348681 259.569296 
L 254.60428 259.586748 
L 253.848155 259.606891 
L 253.079933 259.611678 
L 252.299218 259.594866 
L 251.505598 259.566048 
L 250.698639 259.540556 
L 249.877886 259.524078 
L 249.042858 259.505591 
L 248.19305 259.465046 
L 247.327929 259.388778 
L 246.446934 259.277693 
L 245.54947 259.138846 
L 244.634911 258.966753 
L 243.702592 258.733622 
L 242.75181 258.404331 
L 241.78182 257.971504 
L 240.791828 257.483438 
L 239.780993 257.034665 
L 238.748417 256.714387 
L 237.693146 256.545499 
L 236.614159 256.463516 
L 235.510365 256.359747 
L 234.380598 256.161418 
L 233.223604 255.886025 
L 232.03804 255.622662 
L 230.822459 255.451724 
L 229.5753 255.368705 
L 228.29488 255.278982 
L 226.979376 255.072596 
L 225.62681 254.717497 
L 224.235034 254.288208 
L 222.801707 253.898131 
L 221.32427 253.58872 
L 219.799923 253.274326 
L 218.225588 252.80192 
L 216.597876 252.08587 
L 214.91304 251.202185 
L 213.166924 250.346914 
L 211.354901 249.674779 
L 209.471801 249.147694 
L 207.511818 248.533838 
L 205.468408 247.579984 
L 203.334149 246.221742 
L 201.100588 244.63906 
L 198.758031 243.078614 
L 196.295291 241.574211 
L 193.699366 239.821373 
L 190.955025 237.366994 
L 188.044261 234.003153 
L 184.945579 230.026762 
L 181.633031 226.072555 
L 178.074891 222.567421 
L 174.231809 219.23176 
L 170.05414 215.110197 
L 165.478021 209.212688 
L 160.419357 201.263159 
L 154.764251 191.814939 
L 148.353021 181.437486 
L 140.951799 169.570943 
L 132.198011 154.235054 
L 121.484241 133.377954 
L 107.671789 107.322906 
L 88.204232 80.50885 
L 54.924222 60.748388 
L -110408.649747 55.854869 
z
" clip-path="url(#pb6bc8847d9)" style="fill: #7a68a6; fill-opacity: 0.25; stroke: #7a68a6; stroke-width: 0.5"/>
   </g>
   <g id="matplotlib.axis_1">
    <g id="xtick_1">
     <g id="line2d_1">
      <path d="M 145.149239 260.407645 
L 145.149239 45.62723 
" clip-path="url(#pb6bc8847d9)" style="fill: none; stroke-dasharray: 1.85,0.8; stroke-dashoffset: 0; stroke: #b2b2b2; stroke-width: 0.5"/>
     </g>
     <g id="line2d_2">
      <defs>
       <path id="m660b0fd423" d="M 0 0 
L 0 -3.5 
" style="stroke: #000000; stroke-width: 0.8"/>
      </defs>
      <g>
       <use xlink:href="#m660b0fd423" x="145.149239" y="260.407645" style="stroke: #000000; stroke-width: 0.8"/>
      </g>
     </g>
     <g id="text_1">
      <!-- $\mathdefault{10^{0}}$ -->
      <g transform="translate(136.349239 271.506082)scale(0.1 -0.1)">
       <defs>
        <path id="DejaVuSans-31" d="M 794 531 
L 1825 531 
L 1825 4091 
L 703 3866 
L 703 4441 
L 1819 4666 
L 2450 4666 
L 2450 531 
L 3481 531 
L 3481 0 
L 794 0 
L 794 531 
z
" transform="scale(0.015625)"/>
        <path id="DejaVuSans-30" d="M 2034 4250 
Q 1547 4250 1301 3770 
Q 1056 3291 1056 2328 
Q 1056 1369 1301 889 
Q 1547 409 2034 409 
Q 2525 409 2770 889 
Q 3016 1369 3016 2328 
Q 3016 3291 2770 3770 
Q 2525 4250 2034 4250 
z
M 2034 4750 
Q 2819 4750 3233 4129 
Q 3647 3509 3647 2328 
Q 3647 1150 3233 529 
Q 2819 -91 2034 -91 
Q 1250 -91 836 529 
Q 422 1150 422 2328 
Q 422 3509 836 4129 
Q 1250 4750 2034 4750 
z
" transform="scale(0.015625)"/>
       </defs>
       <use xlink:href="#DejaVuSans-31" transform="translate(0 0.765625)"/>
       <use xlink:href="#DejaVuSans-30" transform="translate(63.623047 0.765625)"/>
       <use xlink:href="#DejaVuSans-30" transform="translate(128.203125 39.046875)scale(0.7)"/>
      </g>
     </g>
    </g>
    <g id="xtick_2">
     <g id="line2d_3">
      <path d="M 255.703038 260.407645 
L 255.703038 45.62723 
" clip-path="url(#pb6bc8847d9)" style="fill: none; stroke-dasharray: 1.85,0.8; stroke-dashoffset: 0; stroke: #b2b2b2; stroke-width: 0.5"/>
     </g>
     <g id="line2d_4">
      <g>
       <use xlink:href="#m660b0fd423" x="255.703038" y="260.407645" style="stroke: #000000; stroke-width: 0.8"/>
      </g>
     </g>
     <g id="text_2">
      <!-- $\mathdefault{10^{1}}$ -->
      <g transform="translate(246.903038 271.506082)scale(0.1 -0.1)">
       <use xlink:href="#DejaVuSans-31" transform="translate(0 0.684375)"/>
       <use xlink:href="#DejaVuSans-30" transform="translate(63.623047 0.684375)"/>
       <use xlink:href="#DejaVuSans-31" transform="translate(128.203125 38.965625)scale(0.7)"/>
      </g>
     </g>
    </g>
    <g id="xtick_3">
     <g id="line2d_5">
      <defs>
       <path id="m7a8d129bec" d="M 0 0 
L 0 -2 
" style="stroke: #000000; stroke-width: 0.6"/>
      </defs>
      <g>
       <use xlink:href="#m7a8d129bec" x="67.87545" y="260.407645" style="stroke: #000000; stroke-width: 0.6"/>
      </g>
     </g>
    </g>
    <g id="xtick_4">
     <g id="line2d_6">
      <g>
       <use xlink:href="#m7a8d129bec" x="87.343008" y="260.407645" style="stroke: #000000; stroke-width: 0.6"/>
      </g>
     </g>
    </g>
    <g id="xtick_5">
     <g id="line2d_7">
      <g>
       <use xlink:href="#m7a8d129bec" x="101.15546" y="260.407645" style="stroke: #000000; stroke-width: 0.6"/>
      </g>
     </g>
    </g>
    <g id="xtick_6">
     <g id="line2d_8">
      <g>
       <use xlink:href="#m7a8d129bec" x="111.86923" y="260.407645" style="stroke: #000000; stroke-width: 0.6"/>
      </g>
     </g>
    </g>
    <g id="xtick_7">
     <g id="line2d_9">
      <g>
       <use xlink:href="#m7a8d129bec" x="120.623017" y="260.407645" style="stroke: #000000; stroke-width: 0.6"/>
      </g>
     </g>
    </g>
    <g id="xtick_8">
     <g id="line2d_10">
      <g>
       <use xlink:href="#m7a8d129bec" x="128.024239" y="260.407645" style="stroke: #000000; stroke-width: 0.6"/>
      </g>
     </g>
    </g>
    <g id="xtick_9">
     <g id="line2d_11">
      <g>
       <use xlink:href="#m7a8d129bec" x="134.435469" y="260.407645" style="stroke: #000000; stroke-width: 0.6"/>
      </g>
     </g>
    </g>
    <g id="xtick_10">
     <g id="line2d_12">
      <g>
       <use xlink:href="#m7a8d129bec" x="140.090575" y="260.407645" style="stroke: #000000; stroke-width: 0.6"/>
      </g>
     </g>
    </g>
    <g id="xtick_11">
     <g id="line2d_13">
      <g>
       <use xlink:href="#m7a8d129bec" x="178.429249" y="260.407645" style="stroke: #000000; stroke-width: 0.6"/>
      </g>
     </g>
    </g>
    <g id="xtick_12">
     <g id="line2d_14">
      <g>
       <use xlink:href="#m7a8d129bec" x="197.896807" y="260.407645" style="stroke: #000000; stroke-width: 0.6"/>
      </g>
     </g>
    </g>
    <g id="xtick_13">
     <g id="line2d_15">
      <g>
       <use xlink:href="#m7a8d129bec" x="211.709259" y="260.407645" style="stroke: #000000; stroke-width: 0.6"/>
      </g>
     </g>
    </g>
    <g id="xtick_14">
     <g id="line2d_16">
      <g>
       <use xlink:href="#m7a8d129bec" x="222.423029" y="260.407645" style="stroke: #000000; stroke-width: 0.6"/>
      </g>
     </g>
    </g>
    <g id="xtick_15">
     <g id="line2d_17">
      <g>
       <use xlink:href="#m7a8d129bec" x="231.176816" y="260.407645" style="stroke: #000000; stroke-width: 0.6"/>
      </g>
     </g>
    </g>
    <g id="xtick_16">
     <g id="line2d_18">
      <g>
       <use xlink:href="#m7a8d129bec" x="238.578038" y="260.407645" style="stroke: #000000; stroke-width: 0.6"/>
      </g>
     </g>
    </g>
    <g id="xtick_17">
     <g id="line2d_19">
      <g>
       <use xlink:href="#m7a8d129bec" x="244.989268" y="260.407645" style="stroke: #000000; stroke-width: 0.6"/>
      </g>
     </g>
    </g>
    <g id="xtick_18">
     <g id="line2d_20">
      <g>
       <use xlink:href="#m7a8d129bec" x="250.644374" y="260.407645" style="stroke: #000000; stroke-width: 0.6"/>
      </g>
     </g>
    </g>
    <g id="xtick_19">
     <g id="line2d_21">
      <g>
       <use xlink:href="#m7a8d129bec" x="288.983048" y="260.407645" style="stroke: #000000; stroke-width: 0.6"/>
      </g>
     </g>
    </g>
    <g id="xtick_20">
     <g id="line2d_22">
      <g>
       <use xlink:href="#m7a8d129bec" x="308.450606" y="260.407645" style="stroke: #000000; stroke-width: 0.6"/>
      </g>
     </g>
    </g>
    <g id="text_3">
     <!-- frequency (log) -->
     <g transform="translate(136.16988 286.703895)scale(0.12 -0.12)">
      <defs>
       <path id="DejaVuSans-66" d="M 2375 4863 
L 2375 4384 
L 1825 4384 
Q 1516 4384 1395 4259 
Q 1275 4134 1275 3809 
L 1275 3500 
L 2222 3500 
L 2222 3053 
L 1275 3053 
L 1275 0 
L 697 0 
L 697 3053 
L 147 3053 
L 147 3500 
L 697 3500 
L 697 3744 
Q 697 4328 969 4595 
Q 1241 4863 1831 4863 
L 2375 4863 
z
" transform="scale(0.015625)"/>
       <path id="DejaVuSans-72" d="M 2631 2963 
Q 2534 3019 2420 3045 
Q 2306 3072 2169 3072 
Q 1681 3072 1420 2755 
Q 1159 2438 1159 1844 
L 1159 0 
L 581 0 
L 581 3500 
L 1159 3500 
L 1159 2956 
Q 1341 3275 1631 3429 
Q 1922 3584 2338 3584 
Q 2397 3584 2469 3576 
Q 2541 3569 2628 3553 
L 2631 2963 
z
" transform="scale(0.015625)"/>
       <path id="DejaVuSans-65" d="M 3597 1894 
L 3597 1613 
L 953 1613 
Q 991 1019 1311 708 
Q 1631 397 2203 397 
Q 2534 397 2845 478 
Q 3156 559 3463 722 
L 3463 178 
Q 3153 47 2828 -22 
Q 2503 -91 2169 -91 
Q 1331 -91 842 396 
Q 353 884 353 1716 
Q 353 2575 817 3079 
Q 1281 3584 2069 3584 
Q 2775 3584 3186 3129 
Q 3597 2675 3597 1894 
z
M 3022 2063 
Q 3016 2534 2758 2815 
Q 2500 3097 2075 3097 
Q 1594 3097 1305 2825 
Q 1016 2553 972 2059 
L 3022 2063 
z
" transform="scale(0.015625)"/>
       <path id="DejaVuSans-71" d="M 947 1747 
Q 947 1113 1208 752 
Q 1469 391 1925 391 
Q 2381 391 2643 752 
Q 2906 1113 2906 1747 
Q 2906 2381 2643 2742 
Q 2381 3103 1925 3103 
Q 1469 3103 1208 2742 
Q 947 2381 947 1747 
z
M 2906 525 
Q 2725 213 2448 61 
Q 2172 -91 1784 -91 
Q 1150 -91 751 415 
Q 353 922 353 1747 
Q 353 2572 751 3078 
Q 1150 3584 1784 3584 
Q 2172 3584 2448 3432 
Q 2725 3281 2906 2969 
L 2906 3500 
L 3481 3500 
L 3481 -1331 
L 2906 -1331 
L 2906 525 
z
" transform="scale(0.015625)"/>
       <path id="DejaVuSans-75" d="M 544 1381 
L 544 3500 
L 1119 3500 
L 1119 1403 
Q 1119 906 1312 657 
Q 1506 409 1894 409 
Q 2359 409 2629 706 
Q 2900 1003 2900 1516 
L 2900 3500 
L 3475 3500 
L 3475 0 
L 2900 0 
L 2900 538 
Q 2691 219 2414 64 
Q 2138 -91 1772 -91 
Q 1169 -91 856 284 
Q 544 659 544 1381 
z
M 1991 3584 
L 1991 3584 
z
" transform="scale(0.015625)"/>
       <path id="DejaVuSans-6e" d="M 3513 2113 
L 3513 0 
L 2938 0 
L 2938 2094 
Q 2938 2591 2744 2837 
Q 2550 3084 2163 3084 
Q 1697 3084 1428 2787 
Q 1159 2491 1159 1978 
L 1159 0 
L 581 0 
L 581 3500 
L 1159 3500 
L 1159 2956 
Q 1366 3272 1645 3428 
Q 1925 3584 2291 3584 
Q 2894 3584 3203 3211 
Q 3513 2838 3513 2113 
z
" transform="scale(0.015625)"/>
       <path id="DejaVuSans-63" d="M 3122 3366 
L 3122 2828 
Q 2878 2963 2633 3030 
Q 2388 3097 2138 3097 
Q 1578 3097 1268 2742 
Q 959 2388 959 1747 
Q 959 1106 1268 751 
Q 1578 397 2138 397 
Q 2388 397 2633 464 
Q 2878 531 3122 666 
L 3122 134 
Q 2881 22 2623 -34 
Q 2366 -91 2075 -91 
Q 1284 -91 818 406 
Q 353 903 353 1747 
Q 353 2603 823 3093 
Q 1294 3584 2113 3584 
Q 2378 3584 2631 3529 
Q 2884 3475 3122 3366 
z
" transform="scale(0.015625)"/>
       <path id="DejaVuSans-79" d="M 2059 -325 
Q 1816 -950 1584 -1140 
Q 1353 -1331 966 -1331 
L 506 -1331 
L 506 -850 
L 844 -850 
Q 1081 -850 1212 -737 
Q 1344 -625 1503 -206 
L 1606 56 
L 191 3500 
L 800 3500 
L 1894 763 
L 2988 3500 
L 3597 3500 
L 2059 -325 
z
" transform="scale(0.015625)"/>
       <path id="DejaVuSans-20" transform="scale(0.015625)"/>
       <path id="DejaVuSans-28" d="M 1984 4856 
Q 1566 4138 1362 3434 
Q 1159 2731 1159 2009 
Q 1159 1288 1364 580 
Q 1569 -128 1984 -844 
L 1484 -844 
Q 1016 -109 783 600 
Q 550 1309 550 2009 
Q 550 2706 781 3412 
Q 1013 4119 1484 4856 
L 1984 4856 
z
" transform="scale(0.015625)"/>
       <path id="DejaVuSans-6c" d="M 603 4863 
L 1178 4863 
L 1178 0 
L 603 0 
L 603 4863 
z
" transform="scale(0.015625)"/>
       <path id="DejaVuSans-6f" d="M 1959 3097 
Q 1497 3097 1228 2736 
Q 959 2375 959 1747 
Q 959 1119 1226 758 
Q 1494 397 1959 397 
Q 2419 397 2687 759 
Q 2956 1122 2956 1747 
Q 2956 2369 2687 2733 
Q 2419 3097 1959 3097 
z
M 1959 3584 
Q 2709 3584 3137 3096 
Q 3566 2609 3566 1747 
Q 3566 888 3137 398 
Q 2709 -91 1959 -91 
Q 1206 -91 779 398 
Q 353 888 353 1747 
Q 353 2609 779 3096 
Q 1206 3584 1959 3584 
z
" transform="scale(0.015625)"/>
       <path id="DejaVuSans-67" d="M 2906 1791 
Q 2906 2416 2648 2759 
Q 2391 3103 1925 3103 
Q 1463 3103 1205 2759 
Q 947 2416 947 1791 
Q 947 1169 1205 825 
Q 1463 481 1925 481 
Q 2391 481 2648 825 
Q 2906 1169 2906 1791 
z
M 3481 434 
Q 3481 -459 3084 -895 
Q 2688 -1331 1869 -1331 
Q 1566 -1331 1297 -1286 
Q 1028 -1241 775 -1147 
L 775 -588 
Q 1028 -725 1275 -790 
Q 1522 -856 1778 -856 
Q 2344 -856 2625 -561 
Q 2906 -266 2906 331 
L 2906 616 
Q 2728 306 2450 153 
Q 2172 0 1784 0 
Q 1141 0 747 490 
Q 353 981 353 1791 
Q 353 2603 747 3093 
Q 1141 3584 1784 3584 
Q 2172 3584 2450 3431 
Q 2728 3278 2906 2969 
L 2906 3500 
L 3481 3500 
L 3481 434 
z
" transform="scale(0.015625)"/>
       <path id="DejaVuSans-29" d="M 513 4856 
L 1013 4856 
Q 1481 4119 1714 3412 
Q 1947 2706 1947 2009 
Q 1947 1309 1714 600 
Q 1481 -109 1013 -844 
L 513 -844 
Q 928 -128 1133 580 
Q 1338 1288 1338 2009 
Q 1338 2731 1133 3434 
Q 928 4138 513 4856 
z
" transform="scale(0.015625)"/>
      </defs>
      <use xlink:href="#DejaVuSans-66"/>
      <use xlink:href="#DejaVuSans-72" x="35.205078"/>
      <use xlink:href="#DejaVuSans-65" x="74.068359"/>
      <use xlink:href="#DejaVuSans-71" x="135.591797"/>
      <use xlink:href="#DejaVuSans-75" x="199.068359"/>
      <use xlink:href="#DejaVuSans-65" x="262.447266"/>
      <use xlink:href="#DejaVuSans-6e" x="323.970703"/>
      <use xlink:href="#DejaVuSans-63" x="387.349609"/>
      <use xlink:href="#DejaVuSans-79" x="442.330078"/>
      <use xlink:href="#DejaVuSans-20" x="501.509766"/>
      <use xlink:href="#DejaVuSans-28" x="533.296875"/>
      <use xlink:href="#DejaVuSans-6c" x="572.310547"/>
      <use xlink:href="#DejaVuSans-6f" x="600.09375"/>
      <use xlink:href="#DejaVuSans-67" x="661.275391"/>
      <use xlink:href="#DejaVuSans-29" x="724.751953"/>
     </g>
    </g>
   </g>
   <g id="matplotlib.axis_2">
    <g id="ytick_1">
     <g id="line2d_23">
      <path d="M 42.216875 260.407645 
L 321.77851 260.407645 
" clip-path="url(#pb6bc8847d9)" style="fill: none; stroke-dasharray: 1.85,0.8; stroke-dashoffset: 0; stroke: #b2b2b2; stroke-width: 0.5"/>
     </g>
     <g id="line2d_24">
      <defs>
       <path id="m4637b744b7" d="M 0 0 
L 3.5 0 
" style="stroke: #000000; stroke-width: 0.8"/>
      </defs>
      <g>
       <use xlink:href="#m4637b744b7" x="42.216875" y="260.407645" style="stroke: #000000; stroke-width: 0.8"/>
      </g>
     </g>
     <g id="text_4">
      <!-- 0.0 -->
      <g transform="translate(22.81375 264.206864)scale(0.1 -0.1)">
       <defs>
        <path id="DejaVuSans-2e" d="M 684 794 
L 1344 794 
L 1344 0 
L 684 0 
L 684 794 
z
" transform="scale(0.015625)"/>
       </defs>
       <use xlink:href="#DejaVuSans-30"/>
       <use xlink:href="#DejaVuSans-2e" x="63.623047"/>
       <use xlink:href="#DejaVuSans-30" x="95.410156"/>
      </g>
     </g>
    </g>
    <g id="ytick_2">
     <g id="line2d_25">
      <path d="M 42.216875 221.884433 
L 321.77851 221.884433 
" clip-path="url(#pb6bc8847d9)" style="fill: none; stroke-dasharray: 1.85,0.8; stroke-dashoffset: 0; stroke: #b2b2b2; stroke-width: 0.5"/>
     </g>
     <g id="line2d_26">
      <g>
       <use xlink:href="#m4637b744b7" x="42.216875" y="221.884433" style="stroke: #000000; stroke-width: 0.8"/>
      </g>
     </g>
     <g id="text_5">
      <!-- 0.1 -->
      <g transform="translate(22.81375 225.683652)scale(0.1 -0.1)">
       <use xlink:href="#DejaVuSans-30"/>
       <use xlink:href="#DejaVuSans-2e" x="63.623047"/>
       <use xlink:href="#DejaVuSans-31" x="95.410156"/>
      </g>
     </g>
    </g>
    <g id="ytick_3">
     <g id="line2d_27">
      <path d="M 42.216875 183.361221 
L 321.77851 183.361221 
" clip-path="url(#pb6bc8847d9)" style="fill: none; stroke-dasharray: 1.85,0.8; stroke-dashoffset: 0; stroke: #b2b2b2; stroke-width: 0.5"/>
     </g>
     <g id="line2d_28">
      <g>
       <use xlink:href="#m4637b744b7" x="42.216875" y="183.361221" style="stroke: #000000; stroke-width: 0.8"/>
      </g>
     </g>
     <g id="text_6">
      <!-- 0.2 -->
      <g transform="translate(22.81375 187.16044)scale(0.1 -0.1)">
       <defs>
        <path id="DejaVuSans-32" d="M 1228 531 
L 3431 531 
L 3431 0 
L 469 0 
L 469 531 
Q 828 903 1448 1529 
Q 2069 2156 2228 2338 
Q 2531 2678 2651 2914 
Q 2772 3150 2772 3378 
Q 2772 3750 2511 3984 
Q 2250 4219 1831 4219 
Q 1534 4219 1204 4116 
Q 875 4013 500 3803 
L 500 4441 
Q 881 4594 1212 4672 
Q 1544 4750 1819 4750 
Q 2544 4750 2975 4387 
Q 3406 4025 3406 3419 
Q 3406 3131 3298 2873 
Q 3191 2616 2906 2266 
Q 2828 2175 2409 1742 
Q 1991 1309 1228 531 
z
" transform="scale(0.015625)"/>
       </defs>
       <use xlink:href="#DejaVuSans-30"/>
       <use xlink:href="#DejaVuSans-2e" x="63.623047"/>
       <use xlink:href="#DejaVuSans-32" x="95.410156"/>
      </g>
     </g>
    </g>
    <g id="ytick_4">
     <g id="line2d_29">
      <path d="M 42.216875 144.838009 
L 321.77851 144.838009 
" clip-path="url(#pb6bc8847d9)" style="fill: none; stroke-dasharray: 1.85,0.8; stroke-dashoffset: 0; stroke: #b2b2b2; stroke-width: 0.5"/>
     </g>
     <g id="line2d_30">
      <g>
       <use xlink:href="#m4637b744b7" x="42.216875" y="144.838009" style="stroke: #000000; stroke-width: 0.8"/>
      </g>
     </g>
     <g id="text_7">
      <!-- 0.3 -->
      <g transform="translate(22.81375 148.637228)scale(0.1 -0.1)">
       <defs>
        <path id="DejaVuSans-33" d="M 2597 2516 
Q 3050 2419 3304 2112 
Q 3559 1806 3559 1356 
Q 3559 666 3084 287 
Q 2609 -91 1734 -91 
Q 1441 -91 1130 -33 
Q 819 25 488 141 
L 488 750 
Q 750 597 1062 519 
Q 1375 441 1716 441 
Q 2309 441 2620 675 
Q 2931 909 2931 1356 
Q 2931 1769 2642 2001 
Q 2353 2234 1838 2234 
L 1294 2234 
L 1294 2753 
L 1863 2753 
Q 2328 2753 2575 2939 
Q 2822 3125 2822 3475 
Q 2822 3834 2567 4026 
Q 2313 4219 1838 4219 
Q 1578 4219 1281 4162 
Q 984 4106 628 3988 
L 628 4550 
Q 988 4650 1302 4700 
Q 1616 4750 1894 4750 
Q 2613 4750 3031 4423 
Q 3450 4097 3450 3541 
Q 3450 3153 3228 2886 
Q 3006 2619 2597 2516 
z
" transform="scale(0.015625)"/>
       </defs>
       <use xlink:href="#DejaVuSans-30"/>
       <use xlink:href="#DejaVuSans-2e" x="63.623047"/>
       <use xlink:href="#DejaVuSans-33" x="95.410156"/>
      </g>
     </g>
    </g>
    <g id="ytick_5">
     <g id="line2d_31">
      <path d="M 42.216875 106.314797 
L 321.77851 106.314797 
" clip-path="url(#pb6bc8847d9)" style="fill: none; stroke-dasharray: 1.85,0.8; stroke-dashoffset: 0; stroke: #b2b2b2; stroke-width: 0.5"/>
     </g>
     <g id="line2d_32">
      <g>
       <use xlink:href="#m4637b744b7" x="42.216875" y="106.314797" style="stroke: #000000; stroke-width: 0.8"/>
      </g>
     </g>
     <g id="text_8">
      <!-- 0.4 -->
      <g transform="translate(22.81375 110.114016)scale(0.1 -0.1)">
       <defs>
        <path id="DejaVuSans-34" d="M 2419 4116 
L 825 1625 
L 2419 1625 
L 2419 4116 
z
M 2253 4666 
L 3047 4666 
L 3047 1625 
L 3713 1625 
L 3713 1100 
L 3047 1100 
L 3047 0 
L 2419 0 
L 2419 1100 
L 313 1100 
L 313 1709 
L 2253 4666 
z
" transform="scale(0.015625)"/>
       </defs>
       <use xlink:href="#DejaVuSans-30"/>
       <use xlink:href="#DejaVuSans-2e" x="63.623047"/>
       <use xlink:href="#DejaVuSans-34" x="95.410156"/>
      </g>
     </g>
    </g>
    <g id="ytick_6">
     <g id="line2d_33">
      <path d="M 42.216875 67.791585 
L 321.77851 67.791585 
" clip-path="url(#pb6bc8847d9)" style="fill: none; stroke-dasharray: 1.85,0.8; stroke-dashoffset: 0; stroke: #b2b2b2; stroke-width: 0.5"/>
     </g>
     <g id="line2d_34">
      <g>
       <use xlink:href="#m4637b744b7" x="42.216875" y="67.791585" style="stroke: #000000; stroke-width: 0.8"/>
      </g>
     </g>
     <g id="text_9">
      <!-- 0.5 -->
      <g transform="translate(22.81375 71.590804)scale(0.1 -0.1)">
       <defs>
        <path id="DejaVuSans-35" d="M 691 4666 
L 3169 4666 
L 3169 4134 
L 1269 4134 
L 1269 2991 
Q 1406 3038 1543 3061 
Q 1681 3084 1819 3084 
Q 2600 3084 3056 2656 
Q 3513 2228 3513 1497 
Q 3513 744 3044 326 
Q 2575 -91 1722 -91 
Q 1428 -91 1123 -41 
Q 819 9 494 109 
L 494 744 
Q 775 591 1075 516 
Q 1375 441 1709 441 
Q 2250 441 2565 725 
Q 2881 1009 2881 1497 
Q 2881 1984 2565 2268 
Q 2250 2553 1709 2553 
Q 1456 2553 1204 2497 
Q 953 2441 691 2322 
L 691 4666 
z
" transform="scale(0.015625)"/>
       </defs>
       <use xlink:href="#DejaVuSans-30"/>
       <use xlink:href="#DejaVuSans-2e" x="63.623047"/>
       <use xlink:href="#DejaVuSans-35" x="95.410156"/>
      </g>
     </g>
    </g>
    <g id="text_10">
     <!-- Density -->
     <g transform="translate(16.318125 175.82775)rotate(-90)scale(0.12 -0.12)">
      <defs>
       <path id="DejaVuSans-44" d="M 1259 4147 
L 1259 519 
L 2022 519 
Q 2988 519 3436 956 
Q 3884 1394 3884 2338 
Q 3884 3275 3436 3711 
Q 2988 4147 2022 4147 
L 1259 4147 
z
M 628 4666 
L 1925 4666 
Q 3281 4666 3915 4102 
Q 4550 3538 4550 2338 
Q 4550 1131 3912 565 
Q 3275 0 1925 0 
L 628 0 
L 628 4666 
z
" transform="scale(0.015625)"/>
       <path id="DejaVuSans-73" d="M 2834 3397 
L 2834 2853 
Q 2591 2978 2328 3040 
Q 2066 3103 1784 3103 
Q 1356 3103 1142 2972 
Q 928 2841 928 2578 
Q 928 2378 1081 2264 
Q 1234 2150 1697 2047 
L 1894 2003 
Q 2506 1872 2764 1633 
Q 3022 1394 3022 966 
Q 3022 478 2636 193 
Q 2250 -91 1575 -91 
Q 1294 -91 989 -36 
Q 684 19 347 128 
L 347 722 
Q 666 556 975 473 
Q 1284 391 1588 391 
Q 1994 391 2212 530 
Q 2431 669 2431 922 
Q 2431 1156 2273 1281 
Q 2116 1406 1581 1522 
L 1381 1569 
Q 847 1681 609 1914 
Q 372 2147 372 2553 
Q 372 3047 722 3315 
Q 1072 3584 1716 3584 
Q 2034 3584 2315 3537 
Q 2597 3491 2834 3397 
z
" transform="scale(0.015625)"/>
       <path id="DejaVuSans-69" d="M 603 3500 
L 1178 3500 
L 1178 0 
L 603 0 
L 603 3500 
z
M 603 4863 
L 1178 4863 
L 1178 4134 
L 603 4134 
L 603 4863 
z
" transform="scale(0.015625)"/>
       <path id="DejaVuSans-74" d="M 1172 4494 
L 1172 3500 
L 2356 3500 
L 2356 3053 
L 1172 3053 
L 1172 1153 
Q 1172 725 1289 603 
Q 1406 481 1766 481 
L 2356 481 
L 2356 0 
L 1766 0 
Q 1100 0 847 248 
Q 594 497 594 1153 
L 594 3053 
L 172 3053 
L 172 3500 
L 594 3500 
L 594 4494 
L 1172 4494 
z
" transform="scale(0.015625)"/>
      </defs>
      <use xlink:href="#DejaVuSans-44"/>
      <use xlink:href="#DejaVuSans-65" x="77.001953"/>
      <use xlink:href="#DejaVuSans-6e" x="138.525391"/>
      <use xlink:href="#DejaVuSans-73" x="201.904297"/>
      <use xlink:href="#DejaVuSans-69" x="254.003906"/>
      <use xlink:href="#DejaVuSans-74" x="281.787109"/>
      <use xlink:href="#DejaVuSans-79" x="320.996094"/>
     </g>
    </g>
   </g>
   <g id="patch_3">
    <path d="M 42.216875 260.407645 
L 42.216875 45.62723 
" style="fill: none; stroke: #bcbcbc; stroke-width: 0.8; stroke-linejoin: miter; stroke-linecap: square"/>
   </g>
   <g id="patch_4">
    <path d="M 321.77851 260.407645 
L 321.77851 45.62723 
" style="fill: none; stroke: #bcbcbc; stroke-width: 0.8; stroke-linejoin: miter; stroke-linecap: square"/>
   </g>
   <g id="patch_5">
    <path d="M 42.216875 260.407645 
L 321.77851 260.407645 
" style="fill: none; stroke: #bcbcbc; stroke-width: 0.8; stroke-linejoin: miter; stroke-linecap: square"/>
   </g>
   <g id="patch_6">
    <path d="M 42.216875 45.62723 
L 321.77851 45.62723 
" style="fill: none; stroke: #bcbcbc; stroke-width: 0.8; stroke-linejoin: miter; stroke-linecap: square"/>
   </g>
   <g id="text_11">
    <!-- Frequency -->
    <g transform="translate(144.802942 39.62723)scale(0.144 -0.144)">
     <defs>
      <path id="DejaVuSans-46" d="M 628 4666 
L 3309 4666 
L 3309 4134 
L 1259 4134 
L 1259 2759 
L 3109 2759 
L 3109 2228 
L 1259 2228 
L 1259 0 
L 628 0 
L 628 4666 
z
" transform="scale(0.015625)"/>
     </defs>
     <use xlink:href="#DejaVuSans-46"/>
     <use xlink:href="#DejaVuSans-72" x="50.269531"/>
     <use xlink:href="#DejaVuSans-65" x="89.132812"/>
     <use xlink:href="#DejaVuSans-71" x="150.65625"/>
     <use xlink:href="#DejaVuSans-75" x="214.132812"/>
     <use xlink:href="#DejaVuSans-65" x="277.511719"/>
     <use xlink:href="#DejaVuSans-6e" x="339.035156"/>
     <use xlink:href="#DejaVuSans-63" x="402.414062"/>
     <use xlink:href="#DejaVuSans-79" x="457.394531"/>
    </g>
   </g>
  </g>
  <g id="axes_2">
   <g id="patch_7">
    <path d="M 369.637885 260.407645 
L 649.19952 260.407645 
L 649.19952 45.62723 
L 369.637885 45.62723 
z
" style="fill: #eeeeee"/>
   </g>
   <g id="PolyCollection_2">
    <path d="M -110193.654214 55.854869 
L -110193.654214 260.407645 
L 382.345232 260.407645 
L 415.625242 260.407645 
L 435.092799 260.407645 
L 448.905251 260.407645 
L 459.619021 260.407645 
L 468.372809 260.407645 
L 475.774031 260.407645 
L 482.185261 260.407645 
L 487.840367 260.407645 
L 492.899031 260.407645 
L 497.47515 260.407645 
L 501.652819 260.407645 
L 505.495901 260.407645 
L 509.054041 260.407645 
L 512.366589 260.407645 
L 515.465271 260.407645 
L 518.376035 260.407645 
L 521.120376 260.407645 
L 523.716301 260.407645 
L 526.179041 260.407645 
L 528.521598 260.407645 
L 530.755159 260.407645 
L 532.889418 260.407645 
L 534.932828 260.407645 
L 536.892811 260.407645 
L 538.775911 260.407645 
L 540.587934 260.407645 
L 542.33405 260.407645 
L 544.018886 260.407645 
L 545.646598 260.407645 
L 547.220933 260.407645 
L 548.74528 260.407645 
L 550.222717 260.407645 
L 551.656044 260.407645 
L 553.04782 260.407645 
L 554.400386 260.407645 
L 555.71589 260.407645 
L 556.99631 260.407645 
L 558.243469 260.407645 
L 559.45905 260.407645 
L 560.644614 260.407645 
L 561.801608 260.407645 
L 562.931375 260.407645 
L 564.035169 260.407645 
L 565.114156 260.407645 
L 566.169427 260.407645 
L 567.202003 260.407645 
L 568.212838 260.407645 
L 569.20283 260.407645 
L 570.17282 260.407645 
L 571.123602 260.407645 
L 572.055921 260.407645 
L 572.97048 260.407645 
L 573.867944 260.407645 
L 574.748939 260.407645 
L 575.61406 260.407645 
L 576.463868 260.407645 
L 577.298896 260.407645 
L 578.119649 260.407645 
L 578.926608 260.407645 
L 579.720228 260.407645 
L 580.500943 260.407645 
L 581.269165 260.407645 
L 582.02529 260.407645 
L 582.769691 260.407645 
L 583.502727 260.407645 
L 584.224739 260.407645 
L 584.936054 260.407645 
L 585.636985 260.407645 
L 586.32783 260.407645 
L 587.008875 260.407645 
L 587.680396 260.407645 
L 588.342653 260.407645 
L 588.9959 260.407645 
L 589.640378 260.407645 
L 590.27632 260.407645 
L 590.903948 260.407645 
L 591.523478 260.407645 
L 592.135116 260.407645 
L 592.73906 260.407645 
L 593.335501 260.407645 
L 593.924624 260.407645 
L 594.506606 260.407645 
L 595.081617 260.407645 
L 595.649824 260.407645 
L 596.211385 260.407645 
L 596.766454 260.407645 
L 597.315179 260.407645 
L 597.857703 260.407645 
L 598.394166 260.407645 
L 598.9247 260.407645 
L 599.449437 260.407645 
L 599.9685 260.407645 
L 600.482012 260.407645 
L 600.99009 260.407645 
L 601.492847 260.407645 
L 601.990395 260.407645 
L 602.482839 260.407645 
L 602.970284 260.407645 
L 603.45283 260.407645 
L 603.930574 260.407645 
L 604.403612 260.407645 
L 604.872034 260.407645 
L 605.33593 260.407645 
L 605.795388 260.407645 
L 606.25049 260.407645 
L 606.701318 260.407645 
L 607.147953 260.407645 
L 607.590472 260.407645 
L 608.028949 260.407645 
L 608.463458 260.407645 
L 608.894069 260.407645 
L 609.320854 260.407645 
L 609.743878 260.407645 
L 610.163207 260.407645 
L 610.578906 260.407645 
L 610.991036 260.407645 
L 611.399659 260.407645 
L 611.804834 260.407645 
L 612.206618 260.407645 
L 612.605067 260.407645 
L 613.000237 260.407645 
L 613.392182 260.407645 
L 613.780952 260.407645 
L 614.1666 260.407645 
L 614.549175 260.407645 
L 614.928726 260.407645 
L 615.305299 260.407645 
L 615.678943 260.407645 
L 616.0497 260.407645 
L 616.417617 260.407645 
L 616.782736 260.407645 
L 617.145099 260.407645 
L 617.504748 260.407645 
L 617.861723 260.407645 
L 618.216064 260.407645 
L 618.567808 260.407645 
L 618.916994 260.407645 
L 619.263659 260.407645 
L 619.60784 260.407645 
L 619.94957 260.407645 
L 620.288885 260.407645 
L 620.625819 260.407645 
L 620.960405 260.407645 
L 621.292676 260.407645 
L 621.622663 260.407645 
L 621.950397 260.407645 
L 622.275909 260.407645 
L 622.59923 260.407645 
L 622.920388 260.407645 
L 623.239411 260.407645 
L 623.556329 260.407645 
L 623.871169 260.407645 
L 624.183958 260.407645 
L 624.494722 260.407645 
L 624.803488 260.407645 
L 625.110281 260.407645 
L 625.415126 260.407645 
L 625.718047 260.407645 
L 626.01907 260.407645 
L 626.318216 260.407645 
L 626.615511 260.407645 
L 626.910976 260.407645 
L 627.204634 260.407645 
L 627.496506 260.407645 
L 627.786615 260.407645 
L 628.074982 260.407645 
L 628.361627 260.407645 
L 628.646571 260.407645 
L 628.929834 260.407645 
L 629.211435 260.407645 
L 629.491395 260.407645 
L 629.769731 260.407645 
L 630.046463 260.407645 
L 630.32161 260.407645 
L 630.595188 260.407645 
L 630.867217 260.407645 
L 631.137713 260.407645 
L 631.406693 260.407645 
L 631.674175 260.407645 
L 631.940175 260.407645 
L 632.20471 260.407645 
L 632.467795 260.407645 
L 632.729446 260.407645 
L 632.98968 260.407645 
L 633.24851 260.407645 
L 633.505952 260.407645 
L 633.762022 260.407645 
L 634.016733 260.407645 
L 634.2701 260.407645 
L 634.522136 260.407645 
L 634.772857 260.407645 
L 635.022275 260.407645 
L 635.270405 260.407645 
L 635.517258 260.407645 
L 635.762849 260.407645 
L 636.00719 260.407645 
L 636.250294 260.407645 
L 636.492173 260.407645 
L 636.492173 260.406059 
L 636.492173 260.406059 
L 636.250294 260.404004 
L 636.00719 260.399963 
L 635.762849 260.392755 
L 635.517258 260.381134 
L 635.270405 260.364282 
L 635.022275 260.342488 
L 634.772857 260.317704 
L 634.522136 260.293593 
L 634.2701 260.274784 
L 634.016733 260.265463 
L 633.762022 260.267866 
L 633.505952 260.281407 
L 633.24851 260.30291 
L 632.98968 260.32782 
L 632.729446 260.351754 
L 632.467795 260.371695 
L 632.20471 260.386403 
L 631.940175 260.396114 
L 631.674175 260.401895 
L 631.406693 260.405011 
L 631.137713 260.406537 
L 630.867217 260.407216 
L 630.595188 260.407493 
L 630.32161 260.407595 
L 630.046463 260.40763 
L 629.769731 260.407641 
L 629.491395 260.407644 
L 629.211435 260.407643 
L 628.929834 260.407639 
L 628.646571 260.407625 
L 628.361627 260.407577 
L 628.074982 260.407434 
L 627.786615 260.407045 
L 627.496506 260.406074 
L 627.204634 260.403857 
L 626.910976 260.399231 
L 626.615511 260.39043 
L 626.318216 260.375199 
L 626.01907 260.351298 
L 625.718047 260.317471 
L 625.415126 260.274644 
L 625.110281 260.226823 
L 624.803488 260.18099 
L 624.494722 260.145622 
L 624.183958 260.128079 
L 623.871169 260.131898 
L 623.556329 260.15523 
L 623.239411 260.19124 
L 622.920388 260.230325 
L 622.59923 260.263182 
L 622.275909 260.283527 
L 621.950397 260.289587 
L 621.622663 260.284049 
L 621.292676 260.272673 
L 620.960405 260.262052 
L 620.625819 260.257223 
L 620.288885 260.259949 
L 619.94957 260.268323 
L 619.60784 260.277882 
L 619.263659 260.28379 
L 618.916994 260.283127 
L 618.567808 260.276276 
L 618.216064 260.266794 
L 617.861723 260.259851 
L 617.504748 260.259966 
L 617.145099 260.269059 
L 616.782736 260.285636 
L 616.417617 260.305322 
L 616.0497 260.322332 
L 615.678943 260.331141 
L 615.305299 260.327779 
L 614.928726 260.310524 
L 614.549175 260.280043 
L 614.1666 260.239147 
L 613.780952 260.192252 
L 613.392182 260.144646 
L 613.000237 260.101646 
L 612.605067 260.06774 
L 612.206618 260.045725 
L 611.804834 260.035892 
L 611.399659 260.035496 
L 610.991036 260.039015 
L 610.578906 260.039642 
L 610.163207 260.031879 
L 609.743878 260.014252 
L 609.320854 259.99067 
L 608.894069 259.969372 
L 608.463458 259.959618 
L 608.028949 259.967662 
L 607.590472 259.994051 
L 607.147953 260.033621 
L 606.701318 260.078065 
L 606.25049 260.119535 
L 605.795388 260.15334 
L 605.33593 260.17852 
L 604.872034 260.196406 
L 604.403612 260.208464 
L 603.930574 260.214885 
L 603.45283 260.214719 
L 602.970284 260.207204 
L 602.482839 260.193209 
L 601.990395 260.175793 
L 601.492847 260.159501 
L 600.99009 260.148785 
L 600.482012 260.146273 
L 599.9685 260.151558 
L 599.449437 260.160887 
L 598.9247 260.167881 
L 598.394166 260.165105 
L 597.857703 260.145973 
L 597.315179 260.106235 
L 596.766454 260.044368 
L 596.211385 259.960883 
L 595.649824 259.857347 
L 595.081617 259.736275 
L 594.506606 259.602464 
L 593.924624 259.465029 
L 593.335501 259.338323 
L 592.73906 259.240107 
L 592.135116 259.18686 
L 591.523478 259.1881 
L 590.903948 259.242496 
L 590.27632 259.337681 
L 589.640378 259.453618 
L 588.9959 259.567614 
L 588.342653 259.658805 
L 587.680396 259.710953 
L 587.008875 259.713702 
L 586.32783 259.662969 
L 585.636985 259.560841 
L 584.936054 259.414877 
L 584.224739 259.236603 
L 583.502727 259.039324 
L 582.769691 258.835824 
L 582.02529 258.636684 
L 581.269165 258.449743 
L 580.500943 258.280738 
L 579.720228 258.134586 
L 578.926608 258.016265 
L 578.119649 257.930248 
L 577.298896 257.878016 
L 576.463868 257.854496 
L 575.61406 257.845524 
L 574.748939 257.828821 
L 573.867944 257.779567 
L 572.97048 257.678863 
L 572.055921 257.520829 
L 571.123602 257.313996 
L 570.17282 257.075714 
L 569.20283 256.822761 
L 568.212838 256.563857 
L 567.202003 256.298266 
L 566.169427 256.020181 
L 565.114156 255.724673 
L 564.035169 255.410632 
L 562.931375 255.079176 
L 561.801608 254.729501 
L 560.644614 254.355321 
L 559.45905 253.943611 
L 558.243469 253.475407 
L 556.99631 252.927747 
L 555.71589 252.276359 
L 554.400386 251.498946 
L 553.04782 250.578322 
L 551.656044 249.504072 
L 550.222717 248.272379 
L 548.74528 246.885411 
L 547.220933 245.352488 
L 545.646598 243.693476 
L 544.018886 241.941782 
L 542.33405 240.14242 
L 540.587934 238.342362 
L 538.775911 236.575153 
L 536.892811 234.847175 
L 534.932828 233.135159 
L 532.889418 231.400783 
L 530.755159 229.618603 
L 528.521598 227.802538 
L 526.179041 226.011648 
L 523.716301 224.324077 
L 521.120376 222.787331 
L 518.376035 221.372431 
L 515.465271 219.965144 
L 512.366589 218.412428 
L 509.054041 216.611529 
L 505.495901 214.596707 
L 501.652819 212.559465 
L 497.47515 210.745005 
L 492.899031 209.208541 
L 487.840367 207.490075 
L 482.185261 204.357464 
L 475.774031 197.830826 
L 468.372809 185.672632 
L 459.619021 166.355655 
L 448.905251 140.225515 
L 435.092799 110.294006 
L 415.625242 82.058315 
L 382.345232 62.09759 
L -110193.654214 55.854869 
z
" clip-path="url(#p76ad8a2b37)" style="fill: #467821; fill-opacity: 0.25; stroke: #467821; stroke-width: 0.5"/>
   </g>
   <g id="matplotlib.axis_3">
    <g id="xtick_21">
     <g id="line2d_35">
      <path d="M 470.698572 260.407645 
L 470.698572 45.62723 
" clip-path="url(#p76ad8a2b37)" style="fill: none; stroke-dasharray: 1.85,0.8; stroke-dashoffset: 0; stroke: #b2b2b2; stroke-width: 0.5"/>
     </g>
     <g id="line2d_36">
      <g>
       <use xlink:href="#m660b0fd423" x="470.698572" y="260.407645" style="stroke: #000000; stroke-width: 0.8"/>
      </g>
     </g>
     <g id="text_12">
      <!-- $\mathdefault{10^{1}}$ -->
      <g transform="translate(461.898572 271.506082)scale(0.1 -0.1)">
       <use xlink:href="#DejaVuSans-31" transform="translate(0 0.684375)"/>
       <use xlink:href="#DejaVuSans-30" transform="translate(63.623047 0.684375)"/>
       <use xlink:href="#DejaVuSans-31" transform="translate(128.203125 38.965625)scale(0.7)"/>
      </g>
     </g>
    </g>
    <g id="xtick_22">
     <g id="line2d_37">
      <path d="M 581.252371 260.407645 
L 581.252371 45.62723 
" clip-path="url(#p76ad8a2b37)" style="fill: none; stroke-dasharray: 1.85,0.8; stroke-dashoffset: 0; stroke: #b2b2b2; stroke-width: 0.5"/>
     </g>
     <g id="line2d_38">
      <g>
       <use xlink:href="#m660b0fd423" x="581.252371" y="260.407645" style="stroke: #000000; stroke-width: 0.8"/>
      </g>
     </g>
     <g id="text_13">
      <!-- $\mathdefault{10^{2}}$ -->
      <g transform="translate(572.452371 271.506082)scale(0.1 -0.1)">
       <use xlink:href="#DejaVuSans-31" transform="translate(0 0.765625)"/>
       <use xlink:href="#DejaVuSans-30" transform="translate(63.623047 0.765625)"/>
       <use xlink:href="#DejaVuSans-32" transform="translate(128.203125 39.046875)scale(0.7)"/>
      </g>
     </g>
    </g>
    <g id="xtick_23">
     <g id="line2d_39">
      <g>
       <use xlink:href="#m7a8d129bec" x="393.424783" y="260.407645" style="stroke: #000000; stroke-width: 0.6"/>
      </g>
     </g>
    </g>
    <g id="xtick_24">
     <g id="line2d_40">
      <g>
       <use xlink:href="#m7a8d129bec" x="412.89234" y="260.407645" style="stroke: #000000; stroke-width: 0.6"/>
      </g>
     </g>
    </g>
    <g id="xtick_25">
     <g id="line2d_41">
      <g>
       <use xlink:href="#m7a8d129bec" x="426.704792" y="260.407645" style="stroke: #000000; stroke-width: 0.6"/>
      </g>
     </g>
    </g>
    <g id="xtick_26">
     <g id="line2d_42">
      <g>
       <use xlink:href="#m7a8d129bec" x="437.418562" y="260.407645" style="stroke: #000000; stroke-width: 0.6"/>
      </g>
     </g>
    </g>
    <g id="xtick_27">
     <g id="line2d_43">
      <g>
       <use xlink:href="#m7a8d129bec" x="446.17235" y="260.407645" style="stroke: #000000; stroke-width: 0.6"/>
      </g>
     </g>
    </g>
    <g id="xtick_28">
     <g id="line2d_44">
      <g>
       <use xlink:href="#m7a8d129bec" x="453.573572" y="260.407645" style="stroke: #000000; stroke-width: 0.6"/>
      </g>
     </g>
    </g>
    <g id="xtick_29">
     <g id="line2d_45">
      <g>
       <use xlink:href="#m7a8d129bec" x="459.984802" y="260.407645" style="stroke: #000000; stroke-width: 0.6"/>
      </g>
     </g>
    </g>
    <g id="xtick_30">
     <g id="line2d_46">
      <g>
       <use xlink:href="#m7a8d129bec" x="465.639908" y="260.407645" style="stroke: #000000; stroke-width: 0.6"/>
      </g>
     </g>
    </g>
    <g id="xtick_31">
     <g id="line2d_47">
      <g>
       <use xlink:href="#m7a8d129bec" x="503.978582" y="260.407645" style="stroke: #000000; stroke-width: 0.6"/>
      </g>
     </g>
    </g>
    <g id="xtick_32">
     <g id="line2d_48">
      <g>
       <use xlink:href="#m7a8d129bec" x="523.446139" y="260.407645" style="stroke: #000000; stroke-width: 0.6"/>
      </g>
     </g>
    </g>
    <g id="xtick_33">
     <g id="line2d_49">
      <g>
       <use xlink:href="#m7a8d129bec" x="537.258591" y="260.407645" style="stroke: #000000; stroke-width: 0.6"/>
      </g>
     </g>
    </g>
    <g id="xtick_34">
     <g id="line2d_50">
      <g>
       <use xlink:href="#m7a8d129bec" x="547.972361" y="260.407645" style="stroke: #000000; stroke-width: 0.6"/>
      </g>
     </g>
    </g>
    <g id="xtick_35">
     <g id="line2d_51">
      <g>
       <use xlink:href="#m7a8d129bec" x="556.726149" y="260.407645" style="stroke: #000000; stroke-width: 0.6"/>
      </g>
     </g>
    </g>
    <g id="xtick_36">
     <g id="line2d_52">
      <g>
       <use xlink:href="#m7a8d129bec" x="564.127371" y="260.407645" style="stroke: #000000; stroke-width: 0.6"/>
      </g>
     </g>
    </g>
    <g id="xtick_37">
     <g id="line2d_53">
      <g>
       <use xlink:href="#m7a8d129bec" x="570.538601" y="260.407645" style="stroke: #000000; stroke-width: 0.6"/>
      </g>
     </g>
    </g>
    <g id="xtick_38">
     <g id="line2d_54">
      <g>
       <use xlink:href="#m7a8d129bec" x="576.193707" y="260.407645" style="stroke: #000000; stroke-width: 0.6"/>
      </g>
     </g>
    </g>
    <g id="xtick_39">
     <g id="line2d_55">
      <g>
       <use xlink:href="#m7a8d129bec" x="614.532381" y="260.407645" style="stroke: #000000; stroke-width: 0.6"/>
      </g>
     </g>
    </g>
    <g id="xtick_40">
     <g id="line2d_56">
      <g>
       <use xlink:href="#m7a8d129bec" x="633.999938" y="260.407645" style="stroke: #000000; stroke-width: 0.6"/>
      </g>
     </g>
    </g>
    <g id="xtick_41">
     <g id="line2d_57">
      <g>
       <use xlink:href="#m7a8d129bec" x="647.81239" y="260.407645" style="stroke: #000000; stroke-width: 0.6"/>
      </g>
     </g>
    </g>
    <g id="text_14">
     <!-- monetary value (log) -->
     <g transform="translate(446.32964 286.703895)scale(0.12 -0.12)">
      <defs>
       <path id="DejaVuSans-6d" d="M 3328 2828 
Q 3544 3216 3844 3400 
Q 4144 3584 4550 3584 
Q 5097 3584 5394 3201 
Q 5691 2819 5691 2113 
L 5691 0 
L 5113 0 
L 5113 2094 
Q 5113 2597 4934 2840 
Q 4756 3084 4391 3084 
Q 3944 3084 3684 2787 
Q 3425 2491 3425 1978 
L 3425 0 
L 2847 0 
L 2847 2094 
Q 2847 2600 2669 2842 
Q 2491 3084 2119 3084 
Q 1678 3084 1418 2786 
Q 1159 2488 1159 1978 
L 1159 0 
L 581 0 
L 581 3500 
L 1159 3500 
L 1159 2956 
Q 1356 3278 1631 3431 
Q 1906 3584 2284 3584 
Q 2666 3584 2933 3390 
Q 3200 3197 3328 2828 
z
" transform="scale(0.015625)"/>
       <path id="DejaVuSans-61" d="M 2194 1759 
Q 1497 1759 1228 1600 
Q 959 1441 959 1056 
Q 959 750 1161 570 
Q 1363 391 1709 391 
Q 2188 391 2477 730 
Q 2766 1069 2766 1631 
L 2766 1759 
L 2194 1759 
z
M 3341 1997 
L 3341 0 
L 2766 0 
L 2766 531 
Q 2569 213 2275 61 
Q 1981 -91 1556 -91 
Q 1019 -91 701 211 
Q 384 513 384 1019 
Q 384 1609 779 1909 
Q 1175 2209 1959 2209 
L 2766 2209 
L 2766 2266 
Q 2766 2663 2505 2880 
Q 2244 3097 1772 3097 
Q 1472 3097 1187 3025 
Q 903 2953 641 2809 
L 641 3341 
Q 956 3463 1253 3523 
Q 1550 3584 1831 3584 
Q 2591 3584 2966 3190 
Q 3341 2797 3341 1997 
z
" transform="scale(0.015625)"/>
       <path id="DejaVuSans-76" d="M 191 3500 
L 800 3500 
L 1894 563 
L 2988 3500 
L 3597 3500 
L 2284 0 
L 1503 0 
L 191 3500 
z
" transform="scale(0.015625)"/>
      </defs>
      <use xlink:href="#DejaVuSans-6d"/>
      <use xlink:href="#DejaVuSans-6f" x="97.412109"/>
      <use xlink:href="#DejaVuSans-6e" x="158.59375"/>
      <use xlink:href="#DejaVuSans-65" x="221.972656"/>
      <use xlink:href="#DejaVuSans-74" x="283.496094"/>
      <use xlink:href="#DejaVuSans-61" x="322.705078"/>
      <use xlink:href="#DejaVuSans-72" x="383.984375"/>
      <use xlink:href="#DejaVuSans-79" x="425.097656"/>
      <use xlink:href="#DejaVuSans-20" x="484.277344"/>
      <use xlink:href="#DejaVuSans-76" x="516.064453"/>
      <use xlink:href="#DejaVuSans-61" x="575.244141"/>
      <use xlink:href="#DejaVuSans-6c" x="636.523438"/>
      <use xlink:href="#DejaVuSans-75" x="664.306641"/>
      <use xlink:href="#DejaVuSans-65" x="727.685547"/>
      <use xlink:href="#DejaVuSans-20" x="789.208984"/>
      <use xlink:href="#DejaVuSans-28" x="820.996094"/>
      <use xlink:href="#DejaVuSans-6c" x="860.009766"/>
      <use xlink:href="#DejaVuSans-6f" x="887.792969"/>
      <use xlink:href="#DejaVuSans-67" x="948.974609"/>
      <use xlink:href="#DejaVuSans-29" x="1012.451172"/>
     </g>
    </g>
   </g>
   <g id="matplotlib.axis_4">
    <g id="ytick_7">
     <g id="line2d_58">
      <path d="M 369.637885 260.407645 
L 649.19952 260.407645 
" clip-path="url(#p76ad8a2b37)" style="fill: none; stroke-dasharray: 1.85,0.8; stroke-dashoffset: 0; stroke: #b2b2b2; stroke-width: 0.5"/>
     </g>
     <g id="line2d_59">
      <g>
       <use xlink:href="#m4637b744b7" x="369.637885" y="260.407645" style="stroke: #000000; stroke-width: 0.8"/>
      </g>
     </g>
     <g id="text_15">
      <!-- 0.00 -->
      <g transform="translate(343.87226 264.206864)scale(0.1 -0.1)">
       <use xlink:href="#DejaVuSans-30"/>
       <use xlink:href="#DejaVuSans-2e" x="63.623047"/>
       <use xlink:href="#DejaVuSans-30" x="95.410156"/>
       <use xlink:href="#DejaVuSans-30" x="159.033203"/>
      </g>
     </g>
    </g>
    <g id="ytick_8">
     <g id="line2d_60">
      <path d="M 369.637885 214.441992 
L 649.19952 214.441992 
" clip-path="url(#p76ad8a2b37)" style="fill: none; stroke-dasharray: 1.85,0.8; stroke-dashoffset: 0; stroke: #b2b2b2; stroke-width: 0.5"/>
     </g>
     <g id="line2d_61">
      <g>
       <use xlink:href="#m4637b744b7" x="369.637885" y="214.441992" style="stroke: #000000; stroke-width: 0.8"/>
      </g>
     </g>
     <g id="text_16">
      <!-- 0.01 -->
      <g transform="translate(343.87226 218.241211)scale(0.1 -0.1)">
       <use xlink:href="#DejaVuSans-30"/>
       <use xlink:href="#DejaVuSans-2e" x="63.623047"/>
       <use xlink:href="#DejaVuSans-30" x="95.410156"/>
       <use xlink:href="#DejaVuSans-31" x="159.033203"/>
      </g>
     </g>
    </g>
    <g id="ytick_9">
     <g id="line2d_62">
      <path d="M 369.637885 168.47634 
L 649.19952 168.47634 
" clip-path="url(#p76ad8a2b37)" style="fill: none; stroke-dasharray: 1.85,0.8; stroke-dashoffset: 0; stroke: #b2b2b2; stroke-width: 0.5"/>
     </g>
     <g id="line2d_63">
      <g>
       <use xlink:href="#m4637b744b7" x="369.637885" y="168.47634" style="stroke: #000000; stroke-width: 0.8"/>
      </g>
     </g>
     <g id="text_17">
      <!-- 0.02 -->
      <g transform="translate(343.87226 172.275558)scale(0.1 -0.1)">
       <use xlink:href="#DejaVuSans-30"/>
       <use xlink:href="#DejaVuSans-2e" x="63.623047"/>
       <use xlink:href="#DejaVuSans-30" x="95.410156"/>
       <use xlink:href="#DejaVuSans-32" x="159.033203"/>
      </g>
     </g>
    </g>
    <g id="ytick_10">
     <g id="line2d_64">
      <path d="M 369.637885 122.510687 
L 649.19952 122.510687 
" clip-path="url(#p76ad8a2b37)" style="fill: none; stroke-dasharray: 1.85,0.8; stroke-dashoffset: 0; stroke: #b2b2b2; stroke-width: 0.5"/>
     </g>
     <g id="line2d_65">
      <g>
       <use xlink:href="#m4637b744b7" x="369.637885" y="122.510687" style="stroke: #000000; stroke-width: 0.8"/>
      </g>
     </g>
     <g id="text_18">
      <!-- 0.03 -->
      <g transform="translate(343.87226 126.309906)scale(0.1 -0.1)">
       <use xlink:href="#DejaVuSans-30"/>
       <use xlink:href="#DejaVuSans-2e" x="63.623047"/>
       <use xlink:href="#DejaVuSans-30" x="95.410156"/>
       <use xlink:href="#DejaVuSans-33" x="159.033203"/>
      </g>
     </g>
    </g>
    <g id="ytick_11">
     <g id="line2d_66">
      <path d="M 369.637885 76.545034 
L 649.19952 76.545034 
" clip-path="url(#p76ad8a2b37)" style="fill: none; stroke-dasharray: 1.85,0.8; stroke-dashoffset: 0; stroke: #b2b2b2; stroke-width: 0.5"/>
     </g>
     <g id="line2d_67">
      <g>
       <use xlink:href="#m4637b744b7" x="369.637885" y="76.545034" style="stroke: #000000; stroke-width: 0.8"/>
      </g>
     </g>
     <g id="text_19">
      <!-- 0.04 -->
      <g transform="translate(343.87226 80.344253)scale(0.1 -0.1)">
       <use xlink:href="#DejaVuSans-30"/>
       <use xlink:href="#DejaVuSans-2e" x="63.623047"/>
       <use xlink:href="#DejaVuSans-30" x="95.410156"/>
       <use xlink:href="#DejaVuSans-34" x="159.033203"/>
      </g>
     </g>
    </g>
    <g id="text_20">
     <!-- Density -->
     <g transform="translate(337.376635 175.82775)rotate(-90)scale(0.12 -0.12)">
      <use xlink:href="#DejaVuSans-44"/>
      <use xlink:href="#DejaVuSans-65" x="77.001953"/>
      <use xlink:href="#DejaVuSans-6e" x="138.525391"/>
      <use xlink:href="#DejaVuSans-73" x="201.904297"/>
      <use xlink:href="#DejaVuSans-69" x="254.003906"/>
      <use xlink:href="#DejaVuSans-74" x="281.787109"/>
      <use xlink:href="#DejaVuSans-79" x="320.996094"/>
     </g>
    </g>
   </g>
   <g id="patch_8">
    <path d="M 369.637885 260.407645 
L 369.637885 45.62723 
" style="fill: none; stroke: #bcbcbc; stroke-width: 0.8; stroke-linejoin: miter; stroke-linecap: square"/>
   </g>
   <g id="patch_9">
    <path d="M 649.19952 260.407645 
L 649.19952 45.62723 
" style="fill: none; stroke: #bcbcbc; stroke-width: 0.8; stroke-linejoin: miter; stroke-linecap: square"/>
   </g>
   <g id="patch_10">
    <path d="M 369.637885 260.407645 
L 649.19952 260.407645 
" style="fill: none; stroke: #bcbcbc; stroke-width: 0.8; stroke-linejoin: miter; stroke-linecap: square"/>
   </g>
   <g id="patch_11">
    <path d="M 369.637885 45.62723 
L 649.19952 45.62723 
" style="fill: none; stroke: #bcbcbc; stroke-width: 0.8; stroke-linejoin: miter; stroke-linecap: square"/>
   </g>
   <g id="text_21">
    <!-- Monetary Value -->
    <g transform="translate(453.290203 39.62723)scale(0.144 -0.144)">
     <defs>
      <path id="DejaVuSans-4d" d="M 628 4666 
L 1569 4666 
L 2759 1491 
L 3956 4666 
L 4897 4666 
L 4897 0 
L 4281 0 
L 4281 4097 
L 3078 897 
L 2444 897 
L 1241 4097 
L 1241 0 
L 628 0 
L 628 4666 
z
" transform="scale(0.015625)"/>
      <path id="DejaVuSans-56" d="M 1831 0 
L 50 4666 
L 709 4666 
L 2188 738 
L 3669 4666 
L 4325 4666 
L 2547 0 
L 1831 0 
z
" transform="scale(0.015625)"/>
     </defs>
     <use xlink:href="#DejaVuSans-4d"/>
     <use xlink:href="#DejaVuSans-6f" x="86.279297"/>
     <use xlink:href="#DejaVuSans-6e" x="147.460938"/>
     <use xlink:href="#DejaVuSans-65" x="210.839844"/>
     <use xlink:href="#DejaVuSans-74" x="272.363281"/>
     <use xlink:href="#DejaVuSans-61" x="311.572266"/>
     <use xlink:href="#DejaVuSans-72" x="372.851562"/>
     <use xlink:href="#DejaVuSans-79" x="413.964844"/>
     <use xlink:href="#DejaVuSans-20" x="473.144531"/>
     <use xlink:href="#DejaVuSans-56" x="504.931641"/>
     <use xlink:href="#DejaVuSans-61" x="565.589844"/>
     <use xlink:href="#DejaVuSans-6c" x="626.869141"/>
     <use xlink:href="#DejaVuSans-75" x="654.652344"/>
     <use xlink:href="#DejaVuSans-65" x="718.03125"/>
    </g>
   </g>
  </g>
  <g id="text_22">
   <!-- Data Distribution (log scale) -->
   <g transform="translate(215.74851 19.3575)scale(0.16 -0.16)">
    <defs>
     <path id="DejaVuSans-62" d="M 3116 1747 
Q 3116 2381 2855 2742 
Q 2594 3103 2138 3103 
Q 1681 3103 1420 2742 
Q 1159 2381 1159 1747 
Q 1159 1113 1420 752 
Q 1681 391 2138 391 
Q 2594 391 2855 752 
Q 3116 1113 3116 1747 
z
M 1159 2969 
Q 1341 3281 1617 3432 
Q 1894 3584 2278 3584 
Q 2916 3584 3314 3078 
Q 3713 2572 3713 1747 
Q 3713 922 3314 415 
Q 2916 -91 2278 -91 
Q 1894 -91 1617 61 
Q 1341 213 1159 525 
L 1159 0 
L 581 0 
L 581 4863 
L 1159 4863 
L 1159 2969 
z
" transform="scale(0.015625)"/>
    </defs>
    <use xlink:href="#DejaVuSans-44"/>
    <use xlink:href="#DejaVuSans-61" x="77.001953"/>
    <use xlink:href="#DejaVuSans-74" x="138.28125"/>
    <use xlink:href="#DejaVuSans-61" x="177.490234"/>
    <use xlink:href="#DejaVuSans-20" x="238.769531"/>
    <use xlink:href="#DejaVuSans-44" x="270.556641"/>
    <use xlink:href="#DejaVuSans-69" x="347.558594"/>
    <use xlink:href="#DejaVuSans-73" x="375.341797"/>
    <use xlink:href="#DejaVuSans-74" x="427.441406"/>
    <use xlink:href="#DejaVuSans-72" x="466.650391"/>
    <use xlink:href="#DejaVuSans-69" x="507.763672"/>
    <use xlink:href="#DejaVuSans-62" x="535.546875"/>
    <use xlink:href="#DejaVuSans-75" x="599.023438"/>
    <use xlink:href="#DejaVuSans-74" x="662.402344"/>
    <use xlink:href="#DejaVuSans-69" x="701.611328"/>
    <use xlink:href="#DejaVuSans-6f" x="729.394531"/>
    <use xlink:href="#DejaVuSans-6e" x="790.576172"/>
    <use xlink:href="#DejaVuSans-20" x="853.955078"/>
    <use xlink:href="#DejaVuSans-28" x="885.742188"/>
    <use xlink:href="#DejaVuSans-6c" x="924.755859"/>
    <use xlink:href="#DejaVuSans-6f" x="952.539062"/>
    <use xlink:href="#DejaVuSans-67" x="1013.720703"/>
    <use xlink:href="#DejaVuSans-20" x="1077.197266"/>
    <use xlink:href="#DejaVuSans-73" x="1108.984375"/>
    <use xlink:href="#DejaVuSans-63" x="1161.083984"/>
    <use xlink:href="#DejaVuSans-61" x="1216.064453"/>
    <use xlink:href="#DejaVuSans-6c" x="1277.34375"/>
    <use xlink:href="#DejaVuSans-65" x="1305.126953"/>
    <use xlink:href="#DejaVuSans-29" x="1366.650391"/>
   </g>
  </g>
 </g>
 <defs>
  <clipPath id="pb6bc8847d9">
   <rect x="42.216875" y="45.62723" width="279.561635" height="214.780415"/>
  </clipPath>
  <clipPath id="p76ad8a2b37">
   <rect x="369.637885" y="45.62723" width="279.561635" height="214.780415"/>
  </clipPath>
 </defs>
</svg>
