<?xml version="1.0" encoding="UTF-8" standalone="no"?>
<!DOCTYPE svg PUBLIC "-//W3C//DTD SVG 1.1//EN"
 "http://www.w3.org/Graphics/SVG/1.1/DTD/svg11.dtd">
<!-- Generated by graphviz version 8.0.5 (20230430.1635)
 -->
<!-- Pages: 1 -->
<svg width="1449pt" height="515pt"
 viewBox="0.00 0.00 1449.33 514.77" xmlns="http://www.w3.org/2000/svg" xmlns:xlink="http://www.w3.org/1999/xlink">
<g id="graph0" class="graph" transform="scale(1 1) rotate(0) translate(4 510.77)">
<polygon fill="white" stroke="none" points="-4,4 -4,-510.77 1445.33,-510.77 1445.33,4 -4,4"/>
<g id="clust1" class="cluster">
<title>cluster10</title>
<path fill="none" stroke="black" d="M563.33,-376.95C563.33,-376.95 747.33,-376.95 747.33,-376.95 753.33,-376.95 759.33,-382.95 759.33,-388.95 759.33,-388.95 759.33,-486.77 759.33,-486.77 759.33,-492.77 753.33,-498.77 747.33,-498.77 747.33,-498.77 563.33,-498.77 563.33,-498.77 557.33,-498.77 551.33,-492.77 551.33,-486.77 551.33,-486.77 551.33,-388.95 551.33,-388.95 551.33,-382.95 557.33,-376.95 563.33,-376.95"/>
<text text-anchor="middle" x="744.58" y="-384.15" font-family="Times,serif" font-size="14.00">10</text>
</g>
<g id="clust2" class="cluster">
<title>clusterdate (731)</title>
<path fill="none" stroke="black" d="M217.33,-8C217.33,-8 623.33,-8 623.33,-8 629.33,-8 635.33,-14 635.33,-20 635.33,-20 635.33,-345.04 635.33,-345.04 635.33,-351.04 629.33,-357.04 623.33,-357.04 623.33,-357.04 217.33,-357.04 217.33,-357.04 211.33,-357.04 205.33,-351.04 205.33,-345.04 205.33,-345.04 205.33,-20 205.33,-20 205.33,-14 211.33,-8 217.33,-8"/>
<text text-anchor="middle" x="599.58" y="-15.2" font-family="Times,serif" font-size="14.00">date (731)</text>
</g>
<g id="clust3" class="cluster">
<title>cluster20</title>
<path fill="none" stroke="black" d="M779.33,-376.95C779.33,-376.95 1421.33,-376.95 1421.33,-376.95 1427.33,-376.95 1433.33,-382.95 1433.33,-388.95 1433.33,-388.95 1433.33,-486.77 1433.33,-486.77 1433.33,-492.77 1427.33,-498.77 1421.33,-498.77 1421.33,-498.77 779.33,-498.77 779.33,-498.77 773.33,-498.77 767.33,-492.77 767.33,-486.77 767.33,-486.77 767.33,-388.95 767.33,-388.95 767.33,-382.95 773.33,-376.95 779.33,-376.95"/>
<text text-anchor="middle" x="1418.58" y="-384.15" font-family="Times,serif" font-size="14.00">20</text>
</g>
<g id="clust4" class="cluster">
<title>clusterholiday (2)</title>
<path fill="none" stroke="black" d="M749.33,-247.13C749.33,-247.13 895.33,-247.13 895.33,-247.13 901.33,-247.13 907.33,-253.13 907.33,-259.13 907.33,-259.13 907.33,-356.95 907.33,-356.95 907.33,-362.95 901.33,-368.95 895.33,-368.95 895.33,-368.95 749.33,-368.95 749.33,-368.95 743.33,-368.95 737.33,-362.95 737.33,-356.95 737.33,-356.95 737.33,-259.13 737.33,-259.13 737.33,-253.13 743.33,-247.13 749.33,-247.13"/>
<text text-anchor="middle" x="869.33" y="-254.33" font-family="Times,serif" font-size="14.00">holiday (2)</text>
</g>
<g id="clust5" class="cluster">
<title>clusterworkingday (2)</title>
<path fill="none" stroke="black" d="M927.33,-247.13C927.33,-247.13 1073.33,-247.13 1073.33,-247.13 1079.33,-247.13 1085.33,-253.13 1085.33,-259.13 1085.33,-259.13 1085.33,-356.95 1085.33,-356.95 1085.33,-362.95 1079.33,-368.95 1073.33,-368.95 1073.33,-368.95 927.33,-368.95 927.33,-368.95 921.33,-368.95 915.33,-362.95 915.33,-356.95 915.33,-356.95 915.33,-259.13 915.33,-259.13 915.33,-253.13 921.33,-247.13 927.33,-247.13"/>
<text text-anchor="middle" x="1035.33" y="-254.33" font-family="Times,serif" font-size="14.00">workingday (2)</text>
</g>
<g id="clust6" class="cluster">
<title>clusterweathersit (3)</title>
<path fill="none" stroke="black" d="M1105.33,-247.13C1105.33,-247.13 1251.33,-247.13 1251.33,-247.13 1257.33,-247.13 1263.33,-253.13 1263.33,-259.13 1263.33,-259.13 1263.33,-356.95 1263.33,-356.95 1263.33,-362.95 1257.33,-368.95 1251.33,-368.95 1251.33,-368.95 1105.33,-368.95 1105.33,-368.95 1099.33,-368.95 1093.33,-362.95 1093.33,-356.95 1093.33,-356.95 1093.33,-259.13 1093.33,-259.13 1093.33,-253.13 1099.33,-247.13 1105.33,-247.13"/>
<text text-anchor="middle" x="1217.83" y="-254.33" font-family="Times,serif" font-size="14.00">weathersit (3)</text>
</g>
<!-- nu -->
<g id="node1" class="node">
<title>nu</title>
<ellipse fill="none" stroke="black" cx="154.33" cy="-198.48" rx="42.6" ry="40.66"/>
<text text-anchor="middle" x="154.33" y="-209.93" font-family="Times,serif" font-size="14.00">nu</text>
<text text-anchor="middle" x="154.33" y="-193.43" font-family="Times,serif" font-size="14.00">~</text>
<text text-anchor="middle" x="154.33" y="-176.93" font-family="Times,serif" font-size="14.00">Gamma</text>
</g>
<!-- likelihood -->
<g id="node9" class="node">
<title>likelihood</title>
<ellipse fill="lightgrey" stroke="black" cx="577.33" cy="-81.16" rx="50.03" ry="40.66"/>
<text text-anchor="middle" x="577.33" y="-92.61" font-family="Times,serif" font-size="14.00">likelihood</text>
<text text-anchor="middle" x="577.33" y="-76.11" font-family="Times,serif" font-size="14.00">~</text>
<text text-anchor="middle" x="577.33" y="-59.61" font-family="Times,serif" font-size="14.00">StudentT</text>
</g>
<!-- nu&#45;&gt;likelihood -->
<g id="edge22" class="edge">
<title>nu&#45;&gt;likelihood</title>
<path fill="none" stroke="black" d="M183.86,-168.83C189.35,-164.63 195.27,-160.74 201.33,-157.82 304.64,-107.95 439.18,-90.94 516.14,-85.14"/>
<polygon fill="black" stroke="black" points="516.34,-88.56 526.06,-84.37 515.84,-81.58 516.34,-88.56"/>
</g>
<!-- ls_latent -->
<g id="node2" class="node">
<title>ls_latent</title>
<ellipse fill="none" stroke="black" cx="55.33" cy="-450.11" rx="55.33" ry="40.66"/>
<text text-anchor="middle" x="55.33" y="-461.56" font-family="Times,serif" font-size="14.00">ls_latent</text>
<text text-anchor="middle" x="55.33" y="-445.06" font-family="Times,serif" font-size="14.00">~</text>
<text text-anchor="middle" x="55.33" y="-428.56" font-family="Times,serif" font-size="14.00">InvGamma</text>
</g>
<!-- f_latent -->
<g id="node11" class="node">
<title>f_latent</title>
<polygon fill="none" stroke="black" points="303.46,-349.04 213.21,-349.04 213.21,-291.54 303.46,-291.54 303.46,-349.04"/>
<text text-anchor="middle" x="258.33" y="-331.74" font-family="Times,serif" font-size="14.00">f_latent</text>
<text text-anchor="middle" x="258.33" y="-315.24" font-family="Times,serif" font-size="14.00">~</text>
<text text-anchor="middle" x="258.33" y="-298.74" font-family="Times,serif" font-size="14.00">Deterministic</text>
</g>
<!-- ls_latent&#45;&gt;f_latent -->
<g id="edge1" class="edge">
<title>ls_latent&#45;&gt;f_latent</title>
<path fill="none" stroke="black" d="M80.85,-413.97C91.6,-401.03 104.95,-387.07 119.33,-376.95 144.39,-359.32 175.83,-346.13 202.48,-337.03"/>
<polygon fill="black" stroke="black" points="203.41,-340.07 211.81,-333.61 201.21,-333.43 203.41,-340.07"/>
</g>
<!-- amplitude -->
<g id="node3" class="node">
<title>amplitude</title>
<ellipse fill="none" stroke="black" cx="355.33" cy="-450.11" rx="57.45" ry="40.66"/>
<text text-anchor="middle" x="355.33" y="-461.56" font-family="Times,serif" font-size="14.00">amplitude</text>
<text text-anchor="middle" x="355.33" y="-445.06" font-family="Times,serif" font-size="14.00">~</text>
<text text-anchor="middle" x="355.33" y="-428.56" font-family="Times,serif" font-size="14.00">Exponential</text>
</g>
<!-- b_temp -->
<g id="node10" class="node">
<title>b_temp</title>
<polygon fill="none" stroke="black" points="627.46,-349.04 537.21,-349.04 537.21,-291.54 627.46,-291.54 627.46,-349.04"/>
<text text-anchor="middle" x="582.33" y="-331.74" font-family="Times,serif" font-size="14.00">b_temp</text>
<text text-anchor="middle" x="582.33" y="-315.24" font-family="Times,serif" font-size="14.00">~</text>
<text text-anchor="middle" x="582.33" y="-298.74" font-family="Times,serif" font-size="14.00">Deterministic</text>
</g>
<!-- amplitude&#45;&gt;b_temp -->
<g id="edge4" class="edge">
<title>amplitude&#45;&gt;b_temp</title>
<path fill="none" stroke="black" d="M379.63,-413.06C390.91,-399.32 405.54,-385.04 422.33,-376.95 464.9,-356.45 484.8,-387.32 528.33,-368.95 535.62,-365.88 542.6,-361.41 548.98,-356.43"/>
<polygon fill="black" stroke="black" points="550.92,-358.54 556.29,-349.41 546.4,-353.19 550.92,-358.54"/>
</g>
<!-- b_windspeed -->
<g id="node12" class="node">
<title>b_windspeed</title>
<polygon fill="none" stroke="black" points="411.46,-349.04 321.21,-349.04 321.21,-291.54 411.46,-291.54 411.46,-349.04"/>
<text text-anchor="middle" x="366.33" y="-331.74" font-family="Times,serif" font-size="14.00">b_windspeed</text>
<text text-anchor="middle" x="366.33" y="-315.24" font-family="Times,serif" font-size="14.00">~</text>
<text text-anchor="middle" x="366.33" y="-298.74" font-family="Times,serif" font-size="14.00">Deterministic</text>
</g>
<!-- amplitude&#45;&gt;b_windspeed -->
<g id="edge12" class="edge">
<title>amplitude&#45;&gt;b_windspeed</title>
<path fill="none" stroke="black" d="M358.75,-409.37C360.1,-393.68 361.65,-375.72 362.99,-360.12"/>
<polygon fill="black" stroke="black" points="366.55,-360.52 363.92,-350.25 359.58,-359.91 366.55,-360.52"/>
</g>
<!-- b_hum -->
<g id="node13" class="node">
<title>b_hum</title>
<polygon fill="none" stroke="black" points="519.46,-349.04 429.21,-349.04 429.21,-291.54 519.46,-291.54 519.46,-349.04"/>
<text text-anchor="middle" x="474.33" y="-331.74" font-family="Times,serif" font-size="14.00">b_hum</text>
<text text-anchor="middle" x="474.33" y="-315.24" font-family="Times,serif" font-size="14.00">~</text>
<text text-anchor="middle" x="474.33" y="-298.74" font-family="Times,serif" font-size="14.00">Deterministic</text>
</g>
<!-- amplitude&#45;&gt;b_hum -->
<g id="edge9" class="edge">
<title>amplitude&#45;&gt;b_hum</title>
<path fill="none" stroke="black" d="M386.33,-415.68C397.65,-403.48 410.56,-389.59 422.33,-376.95 428.36,-370.48 434.78,-363.6 440.98,-356.96"/>
<polygon fill="black" stroke="black" points="442.86,-360 447.13,-350.31 437.74,-355.23 442.86,-360"/>
</g>
<!-- sigma -->
<g id="node4" class="node">
<title>sigma</title>
<ellipse fill="none" stroke="black" cx="701.33" cy="-198.48" rx="57.45" ry="40.66"/>
<text text-anchor="middle" x="701.33" y="-209.93" font-family="Times,serif" font-size="14.00">sigma</text>
<text text-anchor="middle" x="701.33" y="-193.43" font-family="Times,serif" font-size="14.00">~</text>
<text text-anchor="middle" x="701.33" y="-176.93" font-family="Times,serif" font-size="14.00">Exponential</text>
</g>
<!-- sigma&#45;&gt;likelihood -->
<g id="edge23" class="edge">
<title>sigma&#45;&gt;likelihood</title>
<path fill="none" stroke="black" d="M667.12,-165.66C651.72,-151.34 633.43,-134.33 617.39,-119.42"/>
<polygon fill="black" stroke="black" points="620.43,-117.53 610.72,-113.28 615.66,-122.66 620.43,-117.53"/>
</g>
<!-- amplitude_latent -->
<g id="node5" class="node">
<title>amplitude_latent</title>
<ellipse fill="none" stroke="black" cx="204.33" cy="-450.11" rx="76.01" ry="40.66"/>
<text text-anchor="middle" x="204.33" y="-461.56" font-family="Times,serif" font-size="14.00">amplitude_latent</text>
<text text-anchor="middle" x="204.33" y="-445.06" font-family="Times,serif" font-size="14.00">~</text>
<text text-anchor="middle" x="204.33" y="-428.56" font-family="Times,serif" font-size="14.00">Exponential</text>
</g>
<!-- amplitude_latent&#45;&gt;f_latent -->
<g id="edge3" class="edge">
<title>amplitude_latent&#45;&gt;f_latent</title>
<path fill="none" stroke="black" d="M220.83,-410.07C227.65,-393.93 235.52,-375.28 242.29,-359.26"/>
<polygon fill="black" stroke="black" points="245.89,-360.73 246.56,-350.16 239.44,-358.01 245.89,-360.73"/>
</g>
<!-- ls -->
<g id="node6" class="node">
<title>ls</title>
<ellipse fill="none" stroke="black" cx="486.33" cy="-450.11" rx="55.33" ry="40.66"/>
<text text-anchor="middle" x="486.33" y="-461.56" font-family="Times,serif" font-size="14.00">ls</text>
<text text-anchor="middle" x="486.33" y="-445.06" font-family="Times,serif" font-size="14.00">~</text>
<text text-anchor="middle" x="486.33" y="-428.56" font-family="Times,serif" font-size="14.00">InvGamma</text>
</g>
<!-- ls&#45;&gt;b_temp -->
<g id="edge5" class="edge">
<title>ls&#45;&gt;b_temp</title>
<path fill="none" stroke="black" d="M512.56,-414.18C525.73,-396.65 541.67,-375.43 554.99,-357.7"/>
<polygon fill="black" stroke="black" points="558.09,-360.4 561.29,-350.3 552.49,-356.2 558.09,-360.4"/>
</g>
<!-- ls&#45;&gt;b_windspeed -->
<g id="edge11" class="edge">
<title>ls&#45;&gt;b_windspeed</title>
<path fill="none" stroke="black" d="M456.55,-415.41C445.6,-403.18 433.02,-389.34 421.33,-376.95 415.17,-370.42 408.52,-363.55 402.04,-356.95"/>
<polygon fill="black" stroke="black" points="405.08,-355.03 395.57,-350.36 400.09,-359.94 405.08,-355.03"/>
</g>
<!-- ls&#45;&gt;b_hum -->
<g id="edge8" class="edge">
<title>ls&#45;&gt;b_hum</title>
<path fill="none" stroke="black" d="M482.6,-409.37C481.13,-393.68 479.44,-375.72 477.98,-360.12"/>
<polygon fill="black" stroke="black" points="481.38,-359.88 476.96,-350.25 474.41,-360.54 481.38,-359.88"/>
</g>
<!-- b_eoy -->
<g id="node7" class="node">
<title>b_eoy</title>
<ellipse fill="none" stroke="black" cx="686.33" cy="-320.29" rx="41.01" ry="40.66"/>
<text text-anchor="middle" x="686.33" y="-331.74" font-family="Times,serif" font-size="14.00">b_eoy</text>
<text text-anchor="middle" x="686.33" y="-315.24" font-family="Times,serif" font-size="14.00">~</text>
<text text-anchor="middle" x="686.33" y="-298.74" font-family="Times,serif" font-size="14.00">Normal</text>
</g>
<!-- mu -->
<g id="node14" class="node">
<title>mu</title>
<polygon fill="none" stroke="black" points="625.46,-227.23 535.21,-227.23 535.21,-169.73 625.46,-169.73 625.46,-227.23"/>
<text text-anchor="middle" x="580.33" y="-209.93" font-family="Times,serif" font-size="14.00">mu</text>
<text text-anchor="middle" x="580.33" y="-193.43" font-family="Times,serif" font-size="14.00">~</text>
<text text-anchor="middle" x="580.33" y="-176.93" font-family="Times,serif" font-size="14.00">Deterministic</text>
</g>
<!-- b_eoy&#45;&gt;mu -->
<g id="edge19" class="edge">
<title>b_eoy&#45;&gt;mu</title>
<path fill="none" stroke="black" d="M666.63,-284.29C658.9,-271.94 649.45,-258.34 639.33,-247.13 635.47,-242.86 631.21,-238.65 626.79,-234.62"/>
<polygon fill="black" stroke="black" points="629.56,-231.51 619.73,-227.56 624.95,-236.78 629.56,-231.51"/>
</g>
<!-- f_latent_hsgp_coeffs_ -->
<g id="node8" class="node">
<title>f_latent_hsgp_coeffs_</title>
<ellipse fill="none" stroke="black" cx="655.33" cy="-450.11" rx="96.17" ry="40.66"/>
<text text-anchor="middle" x="655.33" y="-461.56" font-family="Times,serif" font-size="14.00">f_latent_hsgp_coeffs_</text>
<text text-anchor="middle" x="655.33" y="-445.06" font-family="Times,serif" font-size="14.00">~</text>
<text text-anchor="middle" x="655.33" y="-428.56" font-family="Times,serif" font-size="14.00">Normal</text>
</g>
<!-- f_latent_hsgp_coeffs_&#45;&gt;f_latent -->
<g id="edge2" class="edge">
<title>f_latent_hsgp_coeffs_&#45;&gt;f_latent</title>
<path fill="none" stroke="black" d="M614.38,-412.89C596.08,-398.95 573.44,-384.56 550.33,-376.95 500.06,-360.41 361.51,-388.5 312.33,-368.95 304.9,-366 297.82,-361.55 291.36,-356.53"/>
<polygon fill="black" stroke="black" points="293.88,-353.23 283.99,-349.43 289.35,-358.57 293.88,-353.23"/>
</g>
<!-- b_temp&#45;&gt;mu -->
<g id="edge14" class="edge">
<title>b_temp&#45;&gt;mu</title>
<path fill="none" stroke="black" d="M581.86,-291.2C581.6,-275.43 581.27,-255.51 580.98,-238.27"/>
<polygon fill="black" stroke="black" points="584.46,-238.33 580.8,-228.39 577.46,-238.45 584.46,-238.33"/>
</g>
<!-- f_latent&#45;&gt;mu -->
<g id="edge15" class="edge">
<title>f_latent&#45;&gt;mu</title>
<path fill="none" stroke="black" d="M272.54,-291.09C281.78,-275.68 295.28,-257.64 312.33,-247.13 346.92,-225.83 455.93,-211.64 523.8,-204.63"/>
<polygon fill="black" stroke="black" points="524.13,-208.01 533.73,-203.52 523.43,-201.04 524.13,-208.01"/>
</g>
<!-- b_windspeed&#45;&gt;mu -->
<g id="edge16" class="edge">
<title>b_windspeed&#45;&gt;mu</title>
<path fill="none" stroke="black" d="M381.45,-291.09C390.83,-276.07 404.16,-258.41 420.33,-247.13 451.09,-225.69 491.62,-213.74 524.2,-207.18"/>
<polygon fill="black" stroke="black" points="524.74,-210.45 533.91,-205.15 523.44,-203.57 524.74,-210.45"/>
</g>
<!-- b_hum&#45;&gt;mu -->
<g id="edge17" class="edge">
<title>b_hum&#45;&gt;mu</title>
<path fill="none" stroke="black" d="M493.44,-291.28C503.29,-277.5 515.84,-260.94 528.33,-247.13 531.99,-243.1 535.94,-239.02 539.98,-235.05"/>
<polygon fill="black" stroke="black" points="542,-238 546.8,-228.56 537.16,-232.95 542,-238"/>
</g>
<!-- mu&#45;&gt;likelihood -->
<g id="edge21" class="edge">
<title>mu&#45;&gt;likelihood</title>
<path fill="none" stroke="black" d="M579.6,-169.27C579.31,-158.33 578.98,-145.47 578.65,-133.03"/>
<polygon fill="black" stroke="black" points="582.13,-133.18 578.37,-123.27 575.14,-133.36 582.13,-133.18"/>
</g>
<!-- b_hum_hsgp_coeffs_ -->
<g id="node15" class="node">
<title>b_hum_hsgp_coeffs_</title>
<ellipse fill="none" stroke="black" cx="1121.33" cy="-450.11" rx="94.05" ry="40.66"/>
<text text-anchor="middle" x="1121.33" y="-461.56" font-family="Times,serif" font-size="14.00">b_hum_hsgp_coeffs_</text>
<text text-anchor="middle" x="1121.33" y="-445.06" font-family="Times,serif" font-size="14.00">~</text>
<text text-anchor="middle" x="1121.33" y="-428.56" font-family="Times,serif" font-size="14.00">Normal</text>
</g>
<!-- b_hum_hsgp_coeffs_&#45;&gt;b_hum -->
<g id="edge7" class="edge">
<title>b_hum_hsgp_coeffs_&#45;&gt;b_hum</title>
<path fill="none" stroke="black" d="M1081.82,-413.08C1063.81,-398.99 1041.38,-384.43 1018.33,-376.95 966.54,-360.15 579.1,-388.63 528.33,-368.95 520.88,-366.06 513.78,-361.64 507.32,-356.64"/>
<polygon fill="black" stroke="black" points="509.83,-353.34 499.94,-349.54 505.31,-358.68 509.83,-353.34"/>
</g>
<!-- b_windspeed_hsgp_coeffs_ -->
<g id="node16" class="node">
<title>b_windspeed_hsgp_coeffs_</title>
<ellipse fill="none" stroke="black" cx="892.33" cy="-450.11" rx="117.38" ry="40.66"/>
<text text-anchor="middle" x="892.33" y="-461.56" font-family="Times,serif" font-size="14.00">b_windspeed_hsgp_coeffs_</text>
<text text-anchor="middle" x="892.33" y="-445.06" font-family="Times,serif" font-size="14.00">~</text>
<text text-anchor="middle" x="892.33" y="-428.56" font-family="Times,serif" font-size="14.00">Normal</text>
</g>
<!-- b_windspeed_hsgp_coeffs_&#45;&gt;b_windspeed -->
<g id="edge10" class="edge">
<title>b_windspeed_hsgp_coeffs_&#45;&gt;b_windspeed</title>
<path fill="none" stroke="black" d="M841.5,-413.11C818.71,-399.02 790.81,-384.46 763.33,-376.95 726.56,-366.91 455.83,-382.85 420.33,-368.95 412.89,-366.04 405.79,-361.61 399.34,-356.6"/>
<polygon fill="black" stroke="black" points="401.85,-353.29 391.96,-349.5 397.33,-358.63 401.85,-353.29"/>
</g>
<!-- b_temp_hsgp_coeffs_ -->
<g id="node17" class="node">
<title>b_temp_hsgp_coeffs_</title>
<ellipse fill="none" stroke="black" cx="1329.33" cy="-450.11" rx="96.17" ry="40.66"/>
<text text-anchor="middle" x="1329.33" y="-461.56" font-family="Times,serif" font-size="14.00">b_temp_hsgp_coeffs_</text>
<text text-anchor="middle" x="1329.33" y="-445.06" font-family="Times,serif" font-size="14.00">~</text>
<text text-anchor="middle" x="1329.33" y="-428.56" font-family="Times,serif" font-size="14.00">Normal</text>
</g>
<!-- b_temp_hsgp_coeffs_&#45;&gt;b_temp -->
<g id="edge6" class="edge">
<title>b_temp_hsgp_coeffs_&#45;&gt;b_temp</title>
<path fill="none" stroke="black" d="M1288.95,-413.05C1270.58,-398.95 1247.73,-384.39 1224.33,-376.95 1193.2,-367.05 666.81,-380.72 636.33,-368.95 628.62,-365.98 621.29,-361.36 614.66,-356.15"/>
<polygon fill="black" stroke="black" points="617.54,-353.15 607.66,-349.31 612.99,-358.47 617.54,-353.15"/>
</g>
<!-- b_holiday -->
<g id="node18" class="node">
<title>b_holiday</title>
<ellipse fill="none" stroke="black" cx="822.33" cy="-320.29" rx="77.07" ry="40.66"/>
<text text-anchor="middle" x="822.33" y="-331.74" font-family="Times,serif" font-size="14.00">b_holiday</text>
<text text-anchor="middle" x="822.33" y="-315.24" font-family="Times,serif" font-size="14.00">~</text>
<text text-anchor="middle" x="822.33" y="-298.74" font-family="Times,serif" font-size="14.00">ZeroSumNormal</text>
</g>
<!-- b_holiday&#45;&gt;mu -->
<g id="edge13" class="edge">
<title>b_holiday&#45;&gt;mu</title>
<path fill="none" stroke="black" d="M789.27,-283.2C774.5,-269.46 755.99,-255.18 736.33,-247.13 694.66,-230.07 677.6,-254.65 635.33,-239.13 631.04,-237.56 626.79,-235.55 622.66,-233.28"/>
<polygon fill="black" stroke="black" points="624.65,-229.78 614.29,-227.56 621.01,-235.76 624.65,-229.78"/>
</g>
<!-- b_workingday -->
<g id="node19" class="node">
<title>b_workingday</title>
<ellipse fill="none" stroke="black" cx="1000.33" cy="-320.29" rx="77.07" ry="40.66"/>
<text text-anchor="middle" x="1000.33" y="-331.74" font-family="Times,serif" font-size="14.00">b_workingday</text>
<text text-anchor="middle" x="1000.33" y="-315.24" font-family="Times,serif" font-size="14.00">~</text>
<text text-anchor="middle" x="1000.33" y="-298.74" font-family="Times,serif" font-size="14.00">ZeroSumNormal</text>
</g>
<!-- b_workingday&#45;&gt;mu -->
<g id="edge18" class="edge">
<title>b_workingday&#45;&gt;mu</title>
<path fill="none" stroke="black" d="M966.94,-283.46C951.52,-269.4 932.03,-254.81 911.33,-247.13 853.8,-225.8 693.44,-258.83 635.33,-239.13 630.82,-237.61 626.36,-235.57 622.05,-233.22"/>
<polygon fill="black" stroke="black" points="624.25,-229.86 613.88,-227.67 620.62,-235.85 624.25,-229.86"/>
</g>
<!-- b_weathersit -->
<g id="node20" class="node">
<title>b_weathersit</title>
<ellipse fill="none" stroke="black" cx="1178.33" cy="-320.29" rx="77.07" ry="40.66"/>
<text text-anchor="middle" x="1178.33" y="-331.74" font-family="Times,serif" font-size="14.00">b_weathersit</text>
<text text-anchor="middle" x="1178.33" y="-315.24" font-family="Times,serif" font-size="14.00">~</text>
<text text-anchor="middle" x="1178.33" y="-298.74" font-family="Times,serif" font-size="14.00">ZeroSumNormal</text>
</g>
<!-- b_weathersit&#45;&gt;mu -->
<g id="edge20" class="edge">
<title>b_weathersit&#45;&gt;mu</title>
<path fill="none" stroke="black" d="M1144.98,-283.34C1129.56,-269.26 1110.08,-254.69 1089.33,-247.13 1041.93,-229.86 683.2,-255.06 635.33,-239.13 630.75,-237.61 626.22,-235.55 621.84,-233.18"/>
<polygon fill="black" stroke="black" points="623.93,-229.74 613.56,-227.54 620.29,-235.72 623.93,-229.74"/>
</g>
</g>
</svg>
