<?xml version="1.0" encoding="UTF-8" standalone="no"?>
<!DOCTYPE svg PUBLIC "-//W3C//DTD SVG 1.1//EN"
 "http://www.w3.org/Graphics/SVG/1.1/DTD/svg11.dtd">
<!-- Generated by graphviz version 8.0.5 (20230430.1635)
 -->
<!-- Pages: 1 -->
<svg width="332pt" height="247pt"
 viewBox="0.00 0.00 332.24 247.13" xmlns="http://www.w3.org/2000/svg" xmlns:xlink="http://www.w3.org/1999/xlink">
<g id="graph0" class="graph" transform="scale(1 1) rotate(0) translate(4 243.13)">
<polygon fill="white" stroke="none" points="-4,4 -4,-243.13 328.24,-243.13 328.24,4 -4,4"/>
<g id="clust1" class="cluster">
<title>clustercount_obs (59)</title>
<path fill="none" stroke="black" d="M115.98,-8C115.98,-8 233.98,-8 233.98,-8 239.98,-8 245.98,-14 245.98,-20 245.98,-20 245.98,-117.82 245.98,-117.82 245.98,-123.82 239.98,-129.82 233.98,-129.82 233.98,-129.82 115.98,-129.82 115.98,-129.82 109.98,-129.82 103.98,-123.82 103.98,-117.82 103.98,-117.82 103.98,-20 103.98,-20 103.98,-14 109.98,-8 115.98,-8"/>
<text text-anchor="middle" x="197.11" y="-15.2" font-family="Times,serif" font-size="14.00">count_obs (59)</text>
</g>
<!-- count_alpha -->
<g id="node1" class="node">
<title>count_alpha</title>
<ellipse fill="none" stroke="black" cx="57.98" cy="-198.48" rx="57.98" ry="40.66"/>
<text text-anchor="middle" x="57.98" y="-209.93" font-family="Times,serif" font-size="14.00">count_alpha</text>
<text text-anchor="middle" x="57.98" y="-193.43" font-family="Times,serif" font-size="14.00">~</text>
<text text-anchor="middle" x="57.98" y="-176.93" font-family="Times,serif" font-size="14.00">Gamma</text>
</g>
<!-- count -->
<g id="node4" class="node">
<title>count</title>
<ellipse fill="lightgrey" stroke="black" cx="174.98" cy="-81.16" rx="63.29" ry="40.66"/>
<text text-anchor="middle" x="174.98" y="-92.61" font-family="Times,serif" font-size="14.00">count</text>
<text text-anchor="middle" x="174.98" y="-76.11" font-family="Times,serif" font-size="14.00">~</text>
<text text-anchor="middle" x="174.98" y="-59.61" font-family="Times,serif" font-size="14.00">NegBinomial</text>
</g>
<!-- count_alpha&#45;&gt;count -->
<g id="edge1" class="edge">
<title>count_alpha&#45;&gt;count</title>
<path fill="none" stroke="black" d="M91.2,-164.74C104.31,-151.82 119.52,-136.83 133.35,-123.19"/>
<polygon fill="black" stroke="black" points="135.21,-126.29 139.87,-116.78 130.29,-121.31 135.21,-126.29"/>
</g>
<!-- trt -->
<g id="node2" class="node">
<title>trt</title>
<ellipse fill="none" stroke="black" cx="174.98" cy="-198.48" rx="41.01" ry="40.66"/>
<text text-anchor="middle" x="174.98" y="-209.93" font-family="Times,serif" font-size="14.00">trt</text>
<text text-anchor="middle" x="174.98" y="-193.43" font-family="Times,serif" font-size="14.00">~</text>
<text text-anchor="middle" x="174.98" y="-176.93" font-family="Times,serif" font-size="14.00">Normal</text>
</g>
<!-- trt&#45;&gt;count -->
<g id="edge2" class="edge">
<title>trt&#45;&gt;count</title>
<path fill="none" stroke="black" d="M174.98,-157.47C174.98,-149.6 174.98,-141.24 174.98,-133.07"/>
<polygon fill="black" stroke="black" points="178.48,-133.1 174.98,-123.1 171.48,-133.1 178.48,-133.1"/>
</g>
<!-- Intercept -->
<g id="node3" class="node">
<title>Intercept</title>
<ellipse fill="none" stroke="black" cx="278.98" cy="-198.48" rx="45.25" ry="40.66"/>
<text text-anchor="middle" x="278.98" y="-209.93" font-family="Times,serif" font-size="14.00">Intercept</text>
<text text-anchor="middle" x="278.98" y="-193.43" font-family="Times,serif" font-size="14.00">~</text>
<text text-anchor="middle" x="278.98" y="-176.93" font-family="Times,serif" font-size="14.00">Normal</text>
</g>
<!-- Intercept&#45;&gt;count -->
<g id="edge3" class="edge">
<title>Intercept&#45;&gt;count</title>
<path fill="none" stroke="black" d="M250.84,-166.27C239.27,-153.44 225.7,-138.39 213.25,-124.59"/>
<polygon fill="black" stroke="black" points="216.37,-122.72 207.08,-117.64 211.18,-127.41 216.37,-122.72"/>
</g>
</g>
</svg>
