<?xml version="1.0" encoding="UTF-8" standalone="no"?>
<!DOCTYPE svg PUBLIC "-//W3C//DTD SVG 1.1//EN"
 "http://www.w3.org/Graphics/SVG/1.1/DTD/svg11.dtd">
<!-- Generated by graphviz version 8.0.5 (20230430.1635)
 -->
<!-- Pages: 1 -->
<svg width="338pt" height="247pt"
 viewBox="0.00 0.00 337.89 247.13" xmlns="http://www.w3.org/2000/svg" xmlns:xlink="http://www.w3.org/1999/xlink">
<g id="graph0" class="graph" transform="scale(1 1) rotate(0) translate(4 243.13)">
<polygon fill="white" stroke="none" points="-4,4 -4,-243.13 333.89,-243.13 333.89,4 -4,4"/>
<g id="clust1" class="cluster">
<title>clustercount_obs (59)</title>
<path fill="none" stroke="black" d="M143.63,-8C143.63,-8 217.63,-8 217.63,-8 223.63,-8 229.63,-14 229.63,-20 229.63,-20 229.63,-117.82 229.63,-117.82 229.63,-123.82 223.63,-129.82 217.63,-129.82 217.63,-129.82 143.63,-129.82 143.63,-129.82 137.63,-129.82 131.63,-123.82 131.63,-117.82 131.63,-117.82 131.63,-20 131.63,-20 131.63,-14 137.63,-8 143.63,-8"/>
<text text-anchor="middle" x="180.76" y="-15.2" font-family="Times,serif" font-size="14.00">count_obs (59)</text>
</g>
<!-- count_sigma -->
<g id="node1" class="node">
<title>count_sigma</title>
<ellipse fill="none" stroke="black" cx="60.63" cy="-198.48" rx="60.63" ry="40.66"/>
<text text-anchor="middle" x="60.63" y="-209.93" font-family="Times,serif" font-size="14.00">count_sigma</text>
<text text-anchor="middle" x="60.63" y="-193.43" font-family="Times,serif" font-size="14.00">~</text>
<text text-anchor="middle" x="60.63" y="-176.93" font-family="Times,serif" font-size="14.00">Exponential</text>
</g>
<!-- count -->
<g id="node4" class="node">
<title>count</title>
<ellipse fill="lightgrey" stroke="black" cx="180.63" cy="-81.16" rx="41.01" ry="40.66"/>
<text text-anchor="middle" x="180.63" y="-92.61" font-family="Times,serif" font-size="14.00">count</text>
<text text-anchor="middle" x="180.63" y="-76.11" font-family="Times,serif" font-size="14.00">~</text>
<text text-anchor="middle" x="180.63" y="-59.61" font-family="Times,serif" font-size="14.00">Normal</text>
</g>
<!-- count_sigma&#45;&gt;count -->
<g id="edge1" class="edge">
<title>count_sigma&#45;&gt;count</title>
<path fill="none" stroke="black" d="M94.7,-164.74C109.92,-150.11 127.91,-132.83 143.48,-117.87"/>
<polygon fill="black" stroke="black" points="145.59,-120.73 150.37,-111.28 140.73,-115.69 145.59,-120.73"/>
</g>
<!-- trt -->
<g id="node2" class="node">
<title>trt</title>
<ellipse fill="none" stroke="black" cx="180.63" cy="-198.48" rx="41.01" ry="40.66"/>
<text text-anchor="middle" x="180.63" y="-209.93" font-family="Times,serif" font-size="14.00">trt</text>
<text text-anchor="middle" x="180.63" y="-193.43" font-family="Times,serif" font-size="14.00">~</text>
<text text-anchor="middle" x="180.63" y="-176.93" font-family="Times,serif" font-size="14.00">Normal</text>
</g>
<!-- trt&#45;&gt;count -->
<g id="edge2" class="edge">
<title>trt&#45;&gt;count</title>
<path fill="none" stroke="black" d="M180.63,-157.47C180.63,-149.6 180.63,-141.24 180.63,-133.07"/>
<polygon fill="black" stroke="black" points="184.13,-133.1 180.63,-123.1 177.13,-133.1 184.13,-133.1"/>
</g>
<!-- Intercept -->
<g id="node3" class="node">
<title>Intercept</title>
<ellipse fill="none" stroke="black" cx="284.63" cy="-198.48" rx="45.25" ry="40.66"/>
<text text-anchor="middle" x="284.63" y="-209.93" font-family="Times,serif" font-size="14.00">Intercept</text>
<text text-anchor="middle" x="284.63" y="-193.43" font-family="Times,serif" font-size="14.00">~</text>
<text text-anchor="middle" x="284.63" y="-176.93" font-family="Times,serif" font-size="14.00">Normal</text>
</g>
<!-- Intercept&#45;&gt;count -->
<g id="edge3" class="edge">
<title>Intercept&#45;&gt;count</title>
<path fill="none" stroke="black" d="M256.49,-166.27C243.7,-152.09 228.45,-135.18 214.99,-120.25"/>
<polygon fill="black" stroke="black" points="218.02,-118.28 208.72,-113.2 212.82,-122.97 218.02,-118.28"/>
</g>
</g>
</svg>
