<?xml version="1.0" encoding="UTF-8" standalone="no"?>
<!DOCTYPE svg PUBLIC "-//W3C//DTD SVG 1.1//EN"
 "http://www.w3.org/Graphics/SVG/1.1/DTD/svg11.dtd">
<!-- Generated by graphviz version 14.0.5 (0)
 -->
<!-- Pages: 1 -->
<svg width="172pt" height="188pt"
 viewBox="0.00 0.00 172.00 188.00" xmlns="http://www.w3.org/2000/svg" xmlns:xlink="http://www.w3.org/1999/xlink">
<g id="graph0" class="graph" transform="scale(1 1) rotate(0) translate(4 184)">
<polygon fill="white" stroke="none" points="-4,4 -4,-184 168,-184 168,4 -4,4"/>
<!-- z -->
<g id="node1" class="node">
<title>z</title>
<ellipse fill="gray" stroke="black" cx="82" cy="-162" rx="27" ry="18"/>
<text xml:space="preserve" text-anchor="middle" x="82" y="-156.95" font-family="Times,serif" font-size="14.00">z</text>
</g>
<!-- t -->
<g id="node2" class="node">
<title>t</title>
<ellipse fill="none" stroke="black" cx="27" cy="-90" rx="27" ry="18"/>
<text xml:space="preserve" text-anchor="middle" x="27" y="-84.95" font-family="Times,serif" font-size="14.00">t</text>
</g>
<!-- z&#45;&gt;t -->
<g id="edge3" class="edge">
<title>z&#45;&gt;t</title>
<path fill="none" stroke="black" d="M69.79,-145.46C62.89,-136.67 54.09,-125.48 46.27,-115.53"/>
<polygon fill="black" stroke="black" points="49.04,-113.38 40.11,-107.68 43.53,-117.71 49.04,-113.38"/>
</g>
<!-- y -->
<g id="node3" class="node">
<title>y</title>
<ellipse fill="none" stroke="black" cx="54" cy="-18" rx="27" ry="18"/>
<text xml:space="preserve" text-anchor="middle" x="54" y="-12.95" font-family="Times,serif" font-size="14.00">y</text>
</g>
<!-- z&#45;&gt;y -->
<g id="edge2" class="edge">
<title>z&#45;&gt;y</title>
<path fill="none" stroke="black" d="M78.62,-143.87C73.89,-119.88 65.24,-75.99 59.55,-47.16"/>
<polygon fill="black" stroke="black" points="63.05,-46.81 57.68,-37.67 56.18,-48.16 63.05,-46.81"/>
</g>
<!-- x -->
<g id="node4" class="node">
<title>x</title>
<ellipse fill="none" stroke="black" cx="137" cy="-90" rx="27" ry="18"/>
<text xml:space="preserve" text-anchor="middle" x="137" y="-84.95" font-family="Times,serif" font-size="14.00">x</text>
</g>
<!-- z&#45;&gt;x -->
<g id="edge4" class="edge">
<title>z&#45;&gt;x</title>
<path fill="none" stroke="black" d="M94.21,-145.46C101.11,-136.67 109.91,-125.48 117.73,-115.53"/>
<polygon fill="black" stroke="black" points="120.47,-117.71 123.89,-107.68 114.96,-113.38 120.47,-117.71"/>
</g>
<!-- t&#45;&gt;y -->
<g id="edge1" class="edge">
<title>t&#45;&gt;y</title>
<path fill="none" stroke="black" d="M33.54,-72.05C36.52,-64.32 40.13,-54.96 43.48,-46.27"/>
<polygon fill="black" stroke="black" points="46.65,-47.79 46.98,-37.2 40.12,-45.27 46.65,-47.79"/>
</g>
</g>
</svg>
