<?xml version="1.0" encoding="UTF-8" standalone="no"?>
<!DOCTYPE svg PUBLIC "-//W3C//DTD SVG 1.1//EN"
 "http://www.w3.org/Graphics/SVG/1.1/DTD/svg11.dtd">
<!-- Generated by graphviz version 14.0.5 (0)
 -->
<!-- Pages: 1 -->
<svg width="206pt" height="245pt"
 viewBox="0.00 0.00 206.00 245.00" xmlns="http://www.w3.org/2000/svg" xmlns:xlink="http://www.w3.org/1999/xlink">
<g id="graph0" class="graph" transform="scale(1 1) rotate(0) translate(4 240.5)">
<polygon fill="white" stroke="none" points="-4,4 -4,-240.5 202,-240.5 202,4 -4,4"/>
<g id="clust1" class="cluster">
<title>cluster_obs</title>
<polygon fill="none" stroke="black" points="8,-8 8,-228.5 190,-228.5 190,-8 8,-8"/>
<text xml:space="preserve" text-anchor="middle" x="172.62" y="-15.2" font-family="Times,serif" font-size="14.00">obs</text>
</g>
<!-- z -->
<g id="node1" class="node">
<title>z</title>
<ellipse fill="white" stroke="black" cx="131" cy="-202.5" rx="27" ry="18"/>
<text xml:space="preserve" text-anchor="middle" x="131" y="-197.45" font-family="Times,serif" font-size="14.00">z</text>
</g>
<!-- x_obs -->
<g id="node2" class="node">
<title>x_obs</title>
<ellipse fill="white" stroke="black" cx="49" cy="-130.5" rx="32.93" ry="18"/>
<text xml:space="preserve" text-anchor="middle" x="49" y="-125.45" font-family="Times,serif" font-size="14.00">x_obs</text>
</g>
<!-- z&#45;&gt;x_obs -->
<g id="edge1" class="edge">
<title>z&#45;&gt;x_obs</title>
<path fill="none" stroke="black" d="M114.8,-187.67C103.42,-177.96 87.96,-164.76 74.89,-153.6"/>
<polygon fill="black" stroke="black" points="77.33,-151.08 67.45,-147.25 72.78,-156.41 77.33,-151.08"/>
</g>
<!-- t_obs -->
<g id="node3" class="node">
<title>t_obs</title>
<ellipse fill="white" stroke="black" cx="131" cy="-130.5" rx="30.88" ry="18"/>
<text xml:space="preserve" text-anchor="middle" x="131" y="-125.45" font-family="Times,serif" font-size="14.00">t_obs</text>
</g>
<!-- z&#45;&gt;t_obs -->
<g id="edge2" class="edge">
<title>z&#45;&gt;t_obs</title>
<path fill="none" stroke="black" d="M131,-184.2C131,-176.91 131,-168.23 131,-160.04"/>
<polygon fill="black" stroke="black" points="134.5,-160.12 131,-150.12 127.5,-160.12 134.5,-160.12"/>
</g>
<!-- y_obs -->
<g id="node4" class="node">
<title>y_obs</title>
<ellipse fill="white" stroke="black" cx="140" cy="-58.5" rx="32.93" ry="18"/>
<text xml:space="preserve" text-anchor="middle" x="140" y="-53.45" font-family="Times,serif" font-size="14.00">y_obs</text>
</g>
<!-- z&#45;&gt;y_obs -->
<g id="edge3" class="edge">
<title>z&#45;&gt;y_obs</title>
<path fill="none" stroke="black" d="M145.84,-187.28C155.04,-177.39 166.02,-163.37 171,-148.5 176.08,-133.33 175.18,-127.94 171,-112.5 168.38,-102.84 163.52,-93.15 158.41,-84.73"/>
<polygon fill="black" stroke="black" points="161.41,-82.93 153.01,-76.47 155.55,-86.75 161.41,-82.93"/>
</g>
<!-- t_obs&#45;&gt;y_obs -->
<g id="edge4" class="edge">
<title>t_obs&#45;&gt;y_obs</title>
<path fill="none" stroke="black" d="M133.22,-112.2C134.17,-104.82 135.3,-96.02 136.37,-87.75"/>
<polygon fill="black" stroke="black" points="139.8,-88.47 137.61,-78.11 132.86,-87.58 139.8,-88.47"/>
</g>
</g>
</svg>
