<?xml version="1.0" encoding="UTF-8" standalone="no"?>
<!DOCTYPE svg PUBLIC "-//W3C//DTD SVG 1.1//EN"
 "http://www.w3.org/Graphics/SVG/1.1/DTD/svg11.dtd">
<!-- Generated by graphviz version 8.0.1 (20230327.1645)
 -->
<!-- Pages: 1 -->
<svg width="192pt" height="157pt"
 viewBox="0.00 0.00 192.00 157.00" xmlns="http://www.w3.org/2000/svg" xmlns:xlink="http://www.w3.org/1999/xlink">
<g id="graph0" class="graph" transform="scale(1 1) rotate(0) translate(4 153)">
<polygon fill="white" stroke="none" points="-4,4 -4,-153 188,-153 188,4 -4,4"/>
<g id="clust1" class="cluster">
<title>cluster_data</title>
<polygon fill="none" stroke="black" points="8,-8 8,-83 78,-83 78,-8 8,-8"/>
<text text-anchor="middle" x="58.5" y="-15.8" font-family="Times,serif" font-size="14.00">data</text>
</g>
<!-- rate -->
<g id="node1" class="node">
<title>rate</title>
<ellipse fill="white" stroke="black" cx="43" cy="-130" rx="27" ry="18"/>
<text text-anchor="middle" x="43" y="-126.3" font-family="Times,serif" font-size="14.00">rate</text>
</g>
<!-- obs -->
<g id="node2" class="node">
<title>obs</title>
<ellipse fill="white" stroke="black" cx="43" cy="-57" rx="27" ry="18"/>
<text text-anchor="middle" x="43" y="-53.3" font-family="Times,serif" font-size="14.00">obs</text>
</g>
<!-- rate&#45;&gt;obs -->
<g id="edge1" class="edge">
<title>rate&#45;&gt;obs</title>
<path fill="none" stroke="black" d="M43,-111.81C43,-104.05 43,-94.68 43,-85.95"/>
<polygon fill="black" stroke="black" points="46.5,-86.03 43,-76.03 39.5,-86.03 46.5,-86.03"/>
</g>
<!-- distribution_description_node -->
<g id="node3" class="node">
<title>distribution_description_node</title>
<text text-anchor="start" x="96" y="-133.8" font-family="Times,serif" font-size="14.00">rate ~ Gamma</text>
<text text-anchor="start" x="96" y="-118.8" font-family="Times,serif" font-size="14.00">obs ~ Poisson</text>
</g>
</g>
</svg>
