<?xml version="1.0" encoding="UTF-8" standalone="no"?>
<!DOCTYPE svg PUBLIC "-//W3C//DTD SVG 1.1//EN"
 "http://www.w3.org/Graphics/SVG/1.1/DTD/svg11.dtd">
<!-- Generated by graphviz version 8.0.1 (20230327.1645)
 -->
<!-- Pages: 1 -->
<svg width="222pt" height="252pt"
 viewBox="0.00 0.00 222.00 251.50" xmlns="http://www.w3.org/2000/svg" xmlns:xlink="http://www.w3.org/1999/xlink">
<g id="graph0" class="graph" transform="scale(1 1) rotate(0) translate(4 247.5)">
<polygon fill="white" stroke="none" points="-4,4 -4,-247.5 218,-247.5 218,4 -4,4"/>
<g id="clust1" class="cluster">
<title>cluster_location</title>
<polygon fill="none" stroke="black" points="8,-160.5 8,-235.5 78,-235.5 78,-160.5 8,-160.5"/>
<text text-anchor="middle" x="48" y="-168.3" font-family="Times,serif" font-size="14.00">location</text>
</g>
<g id="clust2" class="cluster">
<title>cluster_data</title>
<polygon fill="none" stroke="black" points="8,-8 8,-83 78,-83 78,-8 8,-8"/>
<text text-anchor="middle" x="58.5" y="-15.8" font-family="Times,serif" font-size="14.00">data</text>
</g>
<!-- rate -->
<g id="node1" class="node">
<title>rate</title>
<ellipse fill="white" stroke="black" stroke-dasharray="5,2" cx="43" cy="-129" rx="27" ry="18"/>
<text text-anchor="middle" x="43" y="-125.3" font-family="Times,serif" font-size="14.00">rate</text>
</g>
<!-- obs -->
<g id="node3" class="node">
<title>obs</title>
<ellipse fill="grey" stroke="black" cx="43" cy="-57" rx="27" ry="18"/>
<text text-anchor="middle" x="43" y="-53.3" font-family="Times,serif" font-size="14.00">obs</text>
</g>
<!-- rate&#45;&gt;obs -->
<g id="edge2" class="edge">
<title>rate&#45;&gt;obs</title>
<path fill="none" stroke="black" d="M43,-110.7C43,-103.24 43,-94.32 43,-85.97"/>
<polygon fill="black" stroke="black" points="46.5,-86.1 43,-76.1 39.5,-86.1 46.5,-86.1"/>
</g>
<!-- lam -->
<g id="node2" class="node">
<title>lam</title>
<ellipse fill="white" stroke="black" cx="43" cy="-209.5" rx="27" ry="18"/>
<text text-anchor="middle" x="43" y="-205.8" font-family="Times,serif" font-size="14.00">lam</text>
</g>
<!-- lam&#45;&gt;rate -->
<g id="edge1" class="edge">
<title>lam&#45;&gt;rate</title>
<path fill="none" stroke="black" d="M43,-191.08C43,-181.42 43,-169.18 43,-158.2"/>
<polygon fill="black" stroke="black" points="46.5,-158.37 43,-148.37 39.5,-158.37 46.5,-158.37"/>
</g>
<!-- distribution_description_node -->
<g id="node4" class="node">
<title>distribution_description_node</title>
<text text-anchor="start" x="96" y="-220.8" font-family="Times,serif" font-size="14.00">lam ~ Gamma</text>
<text text-anchor="start" x="96" y="-205.8" font-family="Times,serif" font-size="14.00">rate ~ Deterministic</text>
<text text-anchor="start" x="96" y="-190.8" font-family="Times,serif" font-size="14.00">obs ~ Poisson</text>
</g>
</g>
</svg>
