<?xml version="1.0" encoding="UTF-8" standalone="no"?>
<!DOCTYPE svg PUBLIC "-//W3C//DTD SVG 1.1//EN"
 "http://www.w3.org/Graphics/SVG/1.1/DTD/svg11.dtd">
<!-- Generated by graphviz version 8.0.1 (20230327.1645)
 -->
<!-- Pages: 1 -->
<svg width="299pt" height="451pt"
 viewBox="0.00 0.00 299.40 451.00" xmlns="http://www.w3.org/2000/svg" xmlns:xlink="http://www.w3.org/1999/xlink">
<g id="graph0" class="graph" transform="scale(1 1) rotate(0) translate(4 447)">
<polygon fill="white" stroke="none" points="-4,4 -4,-447 295.4,-447 295.4,4 -4,4"/>
<g id="clust1" class="cluster">
<title>cluster_location</title>
<polygon fill="none" stroke="black" points="31.9,-155 31.9,-230 101.9,-230 101.9,-155 31.9,-155"/>
<text text-anchor="middle" x="71.9" y="-162.8" font-family="Times,serif" font-size="14.00">location</text>
</g>
<g id="clust2" class="cluster">
<title>cluster_data</title>
<polygon fill="none" stroke="black" points="31.9,-8 31.9,-83 101.9,-83 101.9,-8 31.9,-8"/>
<text text-anchor="middle" x="82.4" y="-15.8" font-family="Times,serif" font-size="14.00">data</text>
</g>
<!-- mu -->
<g id="node1" class="node">
<title>mu</title>
<ellipse fill="white" stroke="black" cx="28.9" cy="-386.5" rx="27" ry="18"/>
<text text-anchor="middle" x="28.9" y="-382.8" font-family="Times,serif" font-size="14.00">mu</text>
</g>
<!-- alpha -->
<g id="node3" class="node">
<title>alpha</title>
<ellipse fill="white" stroke="black" stroke-dasharray="5,2" cx="29.9" cy="-276" rx="29.8" ry="18"/>
<text text-anchor="middle" x="29.9" y="-272.3" font-family="Times,serif" font-size="14.00">alpha</text>
</g>
<!-- mu&#45;&gt;alpha -->
<g id="edge1" class="edge">
<title>mu&#45;&gt;alpha</title>
<path fill="none" stroke="black" d="M29.06,-368.07C29.21,-351.14 29.45,-325.16 29.64,-305.28"/>
<polygon fill="black" stroke="black" points="33.14,-305.42 29.74,-295.39 26.14,-305.36 33.14,-305.42"/>
</g>
<!-- beta -->
<g id="node4" class="node">
<title>beta</title>
<ellipse fill="white" stroke="black" stroke-dasharray="5,2" cx="104.9" cy="-276" rx="27" ry="18"/>
<text text-anchor="middle" x="104.9" y="-272.3" font-family="Times,serif" font-size="14.00">beta</text>
</g>
<!-- mu&#45;&gt;beta -->
<g id="edge3" class="edge">
<title>mu&#45;&gt;beta</title>
<path fill="none" stroke="black" d="M38.69,-369.75C45.77,-358.53 55.67,-343.17 64.9,-330 71.64,-320.37 79.36,-310 86.21,-301.01"/>
<polygon fill="black" stroke="black" points="89.39,-303.62 92.7,-293.55 83.83,-299.36 89.39,-303.62"/>
</g>
<!-- sigma -->
<g id="node2" class="node">
<title>sigma</title>
<ellipse fill="white" stroke="black" cx="105.9" cy="-386.5" rx="32.49" ry="18"/>
<text text-anchor="middle" x="105.9" y="-382.8" font-family="Times,serif" font-size="14.00">sigma</text>
</g>
<!-- sigma&#45;&gt;alpha -->
<g id="edge2" class="edge">
<title>sigma&#45;&gt;alpha</title>
<path fill="none" stroke="black" d="M94.68,-369.49C82.22,-351.7 61.94,-322.75 47.39,-301.98"/>
<polygon fill="black" stroke="black" points="49.76,-300.26 41.16,-294.08 44.03,-304.27 49.76,-300.26"/>
</g>
<!-- sigma&#45;&gt;beta -->
<g id="edge4" class="edge">
<title>sigma&#45;&gt;beta</title>
<path fill="none" stroke="black" d="M105.74,-368.07C105.58,-351.14 105.34,-325.16 105.16,-305.28"/>
<polygon fill="black" stroke="black" points="108.65,-305.36 105.06,-295.39 101.65,-305.42 108.65,-305.36"/>
</g>
<!-- lam -->
<g id="node6" class="node">
<title>lam</title>
<ellipse fill="white" stroke="black" cx="66.9" cy="-204" rx="27" ry="18"/>
<text text-anchor="middle" x="66.9" y="-200.3" font-family="Times,serif" font-size="14.00">lam</text>
</g>
<!-- alpha&#45;&gt;lam -->
<g id="edge5" class="edge">
<title>alpha&#45;&gt;lam</title>
<path fill="none" stroke="black" d="M38.67,-258.41C43,-250.22 48.32,-240.14 53.18,-230.95"/>
<polygon fill="black" stroke="black" points="56.61,-232.95 58.19,-222.47 50.42,-229.68 56.61,-232.95"/>
</g>
<!-- beta&#45;&gt;lam -->
<g id="edge6" class="edge">
<title>beta&#45;&gt;lam</title>
<path fill="none" stroke="black" d="M96.08,-258.76C91.58,-250.46 85.98,-240.15 80.9,-230.79"/>
<polygon fill="black" stroke="black" points="83.51,-229.27 75.66,-222.15 77.36,-232.61 83.51,-229.27"/>
</g>
<!-- rate -->
<g id="node5" class="node">
<title>rate</title>
<ellipse fill="white" stroke="black" stroke-dasharray="5,2" cx="66.9" cy="-129" rx="27" ry="18"/>
<text text-anchor="middle" x="66.9" y="-125.3" font-family="Times,serif" font-size="14.00">rate</text>
</g>
<!-- obs -->
<g id="node7" class="node">
<title>obs</title>
<ellipse fill="grey" stroke="black" cx="66.9" cy="-57" rx="27" ry="18"/>
<text text-anchor="middle" x="66.9" y="-53.3" font-family="Times,serif" font-size="14.00">obs</text>
</g>
<!-- rate&#45;&gt;obs -->
<g id="edge8" class="edge">
<title>rate&#45;&gt;obs</title>
<path fill="none" stroke="black" d="M66.9,-110.7C66.9,-103.24 66.9,-94.32 66.9,-85.97"/>
<polygon fill="black" stroke="black" points="70.4,-86.1 66.9,-76.1 63.4,-86.1 70.4,-86.1"/>
</g>
<!-- lam&#45;&gt;rate -->
<g id="edge7" class="edge">
<title>lam&#45;&gt;rate</title>
<path fill="none" stroke="black" d="M66.9,-185.7C66.9,-177.49 66.9,-167.46 66.9,-158.19"/>
<polygon fill="black" stroke="black" points="70.4,-158.43 66.9,-148.43 63.4,-158.43 70.4,-158.43"/>
</g>
<!-- distribution_description_node -->
<g id="node8" class="node">
<title>distribution_description_node</title>
<text text-anchor="start" x="164.4" y="-427.8" font-family="Times,serif" font-size="14.00">mu ~ Gamma</text>
<text text-anchor="start" x="164.4" y="-412.8" font-family="Times,serif" font-size="14.00">sigma ~ Exponential</text>
<text text-anchor="start" x="164.4" y="-397.8" font-family="Times,serif" font-size="14.00">alpha ~ Deterministic</text>
<text text-anchor="start" x="164.4" y="-382.8" font-family="Times,serif" font-size="14.00">beta ~ Deterministic</text>
<text text-anchor="start" x="164.4" y="-367.8" font-family="Times,serif" font-size="14.00">lam ~ Gamma</text>
<text text-anchor="start" x="164.4" y="-352.8" font-family="Times,serif" font-size="14.00">rate ~ Deterministic</text>
<text text-anchor="start" x="164.4" y="-337.8" font-family="Times,serif" font-size="14.00">obs ~ Poisson</text>
</g>
</g>
</svg>
