<?xml version="1.0" encoding="UTF-8" standalone="no"?>
<!DOCTYPE svg PUBLIC "-//W3C//DTD SVG 1.1//EN"
 "http://www.w3.org/Graphics/SVG/1.1/DTD/svg11.dtd">
<!-- Generated by graphviz version 8.0.5 (20230430.1635)
 -->
<!-- Pages: 1 -->
<svg width="761pt" height="447pt"
 viewBox="0.00 0.00 761.01 446.63" xmlns="http://www.w3.org/2000/svg" xmlns:xlink="http://www.w3.org/1999/xlink">
<g id="graph0" class="graph" transform="scale(1 1) rotate(0) translate(4 442.63)">
<polygon fill="white" stroke="none" points="-4,4 -4,-442.63 757.01,-442.63 757.01,4 -4,4"/>
<g id="clust1" class="cluster">
<title>clusterobs (73)</title>
<path fill="none" stroke="black" d="M20,-114C20,-114 323,-114 323,-114 329,-114 335,-120 335,-126 335,-126 335,-317.32 335,-317.32 335,-323.32 329,-329.32 323,-329.32 323,-329.32 20,-329.32 20,-329.32 14,-329.32 8,-323.32 8,-317.32 8,-317.32 8,-126 8,-126 8,-120 14,-114 20,-114"/>
<text text-anchor="middle" x="304.5" y="-121.2" font-family="Times,serif" font-size="14.00">obs (73)</text>
</g>
<g id="clust2" class="cluster">
<title>cluster73</title>
<path fill="none" stroke="black" d="M133,-8C133,-8 215,-8 215,-8 221,-8 227,-14 227,-20 227,-20 227,-94 227,-94 227,-100 221,-106 215,-106 215,-106 133,-106 133,-106 127,-106 121,-100 121,-94 121,-94 121,-20 121,-20 121,-14 127,-8 133,-8"/>
<text text-anchor="middle" x="212.25" y="-15.2" font-family="Times,serif" font-size="14.00">73</text>
</g>
<!-- log_mu -->
<g id="node1" class="node">
<title>log_mu</title>
<polygon fill="none" stroke="black" points="327.12,-204 236.88,-204 236.88,-146.5 327.12,-146.5 327.12,-204"/>
<text text-anchor="middle" x="282" y="-186.7" font-family="Times,serif" font-size="14.00">log_mu</text>
<text text-anchor="middle" x="282" y="-170.2" font-family="Times,serif" font-size="14.00">~</text>
<text text-anchor="middle" x="282" y="-153.7" font-family="Times,serif" font-size="14.00">Deterministic</text>
</g>
<!-- mu -->
<g id="node12" class="node">
<title>mu</title>
<polygon fill="none" stroke="black" points="219.12,-98 128.88,-98 128.88,-40.5 219.12,-40.5 219.12,-98"/>
<text text-anchor="middle" x="174" y="-80.7" font-family="Times,serif" font-size="14.00">mu</text>
<text text-anchor="middle" x="174" y="-64.2" font-family="Times,serif" font-size="14.00">~</text>
<text text-anchor="middle" x="174" y="-47.7" font-family="Times,serif" font-size="14.00">Deterministic</text>
</g>
<!-- log_mu&#45;&gt;mu -->
<g id="edge8" class="edge">
<title>log_mu&#45;&gt;mu</title>
<path fill="none" stroke="black" d="M252.77,-146.11C239.93,-133.74 224.69,-119.07 211.06,-105.94"/>
<polygon fill="black" stroke="black" points="213.88,-103.83 204.25,-99.42 209.03,-108.87 213.88,-103.83"/>
</g>
<!-- d -->
<g id="node2" class="node">
<title>d</title>
<path fill="lightgrey" stroke="black" d="M314.62,-309.41C314.62,-309.41 251.38,-309.41 251.38,-309.41 245.38,-309.41 239.38,-303.41 239.38,-297.41 239.38,-297.41 239.38,-263.91 239.38,-263.91 239.38,-257.91 245.38,-251.91 251.38,-251.91 251.38,-251.91 314.62,-251.91 314.62,-251.91 320.62,-251.91 326.62,-257.91 326.62,-263.91 326.62,-263.91 326.62,-297.41 326.62,-297.41 326.62,-303.41 320.62,-309.41 314.62,-309.41"/>
<text text-anchor="middle" x="283" y="-292.11" font-family="Times,serif" font-size="14.00">d</text>
<text text-anchor="middle" x="283" y="-275.61" font-family="Times,serif" font-size="14.00">~</text>
<text text-anchor="middle" x="283" y="-259.11" font-family="Times,serif" font-size="14.00">MutableData</text>
</g>
<!-- d&#45;&gt;log_mu -->
<g id="edge7" class="edge">
<title>d&#45;&gt;log_mu</title>
<path fill="none" stroke="black" d="M282.73,-251.67C282.62,-240.41 282.49,-227.23 282.38,-215.06"/>
<polygon fill="black" stroke="black" points="285.87,-215.22 282.27,-205.26 278.87,-215.29 285.87,-215.22"/>
</g>
<!-- y -->
<g id="node3" class="node">
<title>y</title>
<path fill="lightgrey" stroke="black" d="M169.62,-204C169.62,-204 106.38,-204 106.38,-204 100.38,-204 94.38,-198 94.38,-192 94.38,-192 94.38,-158.5 94.38,-158.5 94.38,-152.5 100.38,-146.5 106.38,-146.5 106.38,-146.5 169.62,-146.5 169.62,-146.5 175.62,-146.5 181.62,-152.5 181.62,-158.5 181.62,-158.5 181.62,-192 181.62,-192 181.62,-198 175.62,-204 169.62,-204"/>
<text text-anchor="middle" x="138" y="-186.7" font-family="Times,serif" font-size="14.00">y</text>
<text text-anchor="middle" x="138" y="-170.2" font-family="Times,serif" font-size="14.00">~</text>
<text text-anchor="middle" x="138" y="-153.7" font-family="Times,serif" font-size="14.00">MutableData</text>
</g>
<!-- likelihood -->
<g id="node4" class="node">
<title>likelihood</title>
<ellipse fill="lightgrey" stroke="black" cx="66" cy="-280.66" rx="50.03" ry="40.66"/>
<text text-anchor="middle" x="66" y="-292.11" font-family="Times,serif" font-size="14.00">likelihood</text>
<text text-anchor="middle" x="66" y="-275.61" font-family="Times,serif" font-size="14.00">~</text>
<text text-anchor="middle" x="66" y="-259.11" font-family="Times,serif" font-size="14.00">Gamma</text>
</g>
<!-- likelihood&#45;&gt;y -->
<g id="edge1" class="edge">
<title>likelihood&#45;&gt;y</title>
<path fill="none" stroke="black" d="M90.38,-244.65C97.44,-234.5 105.18,-223.38 112.33,-213.12"/>
<polygon fill="black" stroke="black" points="115.58,-215.58 118.42,-205.37 109.83,-211.58 115.58,-215.58"/>
</g>
<!-- x -->
<g id="node5" class="node">
<title>x</title>
<path fill="lightgrey" stroke="black" d="M209.62,-309.41C209.62,-309.41 146.38,-309.41 146.38,-309.41 140.38,-309.41 134.38,-303.41 134.38,-297.41 134.38,-297.41 134.38,-263.91 134.38,-263.91 134.38,-257.91 140.38,-251.91 146.38,-251.91 146.38,-251.91 209.62,-251.91 209.62,-251.91 215.62,-251.91 221.62,-257.91 221.62,-263.91 221.62,-263.91 221.62,-297.41 221.62,-297.41 221.62,-303.41 215.62,-309.41 209.62,-309.41"/>
<text text-anchor="middle" x="178" y="-292.11" font-family="Times,serif" font-size="14.00">x</text>
<text text-anchor="middle" x="178" y="-275.61" font-family="Times,serif" font-size="14.00">~</text>
<text text-anchor="middle" x="178" y="-259.11" font-family="Times,serif" font-size="14.00">MutableData</text>
</g>
<!-- x&#45;&gt;log_mu -->
<g id="edge4" class="edge">
<title>x&#45;&gt;log_mu</title>
<path fill="none" stroke="black" d="M206.14,-251.67C218.51,-239.37 233.18,-224.79 246.31,-211.74"/>
<polygon fill="black" stroke="black" points="248.21,-214.79 252.83,-205.26 243.27,-209.83 248.21,-214.79"/>
</g>
<!-- sigma -->
<g id="node6" class="node">
<title>sigma</title>
<ellipse fill="none" stroke="black" cx="66" cy="-397.98" rx="57.45" ry="40.66"/>
<text text-anchor="middle" x="66" y="-409.43" font-family="Times,serif" font-size="14.00">sigma</text>
<text text-anchor="middle" x="66" y="-392.93" font-family="Times,serif" font-size="14.00">~</text>
<text text-anchor="middle" x="66" y="-376.43" font-family="Times,serif" font-size="14.00">Exponential</text>
</g>
<!-- sigma&#45;&gt;likelihood -->
<g id="edge11" class="edge">
<title>sigma&#45;&gt;likelihood</title>
<path fill="none" stroke="black" d="M66,-356.97C66,-349.1 66,-340.74 66,-332.57"/>
<polygon fill="black" stroke="black" points="69.5,-332.6 66,-322.6 62.5,-332.6 69.5,-332.6"/>
</g>
<!-- b_x -->
<g id="node7" class="node">
<title>b_x</title>
<ellipse fill="none" stroke="black" cx="386" cy="-280.66" rx="41.01" ry="40.66"/>
<text text-anchor="middle" x="386" y="-292.11" font-family="Times,serif" font-size="14.00">b_x</text>
<text text-anchor="middle" x="386" y="-275.61" font-family="Times,serif" font-size="14.00">~</text>
<text text-anchor="middle" x="386" y="-259.11" font-family="Times,serif" font-size="14.00">Normal</text>
</g>
<!-- b_x&#45;&gt;log_mu -->
<g id="edge6" class="edge">
<title>b_x&#45;&gt;log_mu</title>
<path fill="none" stroke="black" d="M357.31,-251.13C345.16,-239.05 330.87,-224.84 318.02,-212.07"/>
<polygon fill="black" stroke="black" points="320.8,-209.9 311.24,-205.33 315.86,-214.86 320.8,-209.9"/>
</g>
<!-- b_gap -->
<g id="node8" class="node">
<title>b_gap</title>
<polygon fill="none" stroke="black" points="700.12,-204 609.88,-204 609.88,-146.5 700.12,-146.5 700.12,-204"/>
<text text-anchor="middle" x="655" y="-186.7" font-family="Times,serif" font-size="14.00">b_gap</text>
<text text-anchor="middle" x="655" y="-170.2" font-family="Times,serif" font-size="14.00">~</text>
<text text-anchor="middle" x="655" y="-153.7" font-family="Times,serif" font-size="14.00">Deterministic</text>
</g>
<!-- b_d -->
<g id="node9" class="node">
<title>b_d</title>
<ellipse fill="none" stroke="black" cx="712" cy="-280.66" rx="41.01" ry="40.66"/>
<text text-anchor="middle" x="712" y="-292.11" font-family="Times,serif" font-size="14.00">b_d</text>
<text text-anchor="middle" x="712" y="-275.61" font-family="Times,serif" font-size="14.00">~</text>
<text text-anchor="middle" x="712" y="-259.11" font-family="Times,serif" font-size="14.00">Normal</text>
</g>
<!-- b_d&#45;&gt;log_mu -->
<g id="edge3" class="edge">
<title>b_d&#45;&gt;log_mu</title>
<path fill="none" stroke="black" d="M682.39,-252.26C676.04,-247.54 669.09,-243.15 662,-240 554.22,-192.08 414.63,-179.93 338.19,-177.01"/>
<polygon fill="black" stroke="black" points="338.49,-173.48 328.38,-176.64 338.26,-180.48 338.49,-173.48"/>
</g>
<!-- b_d&#45;&gt;b_gap -->
<g id="edge9" class="edge">
<title>b_d&#45;&gt;b_gap</title>
<path fill="none" stroke="black" d="M692.54,-244.36C687.07,-234.43 681.1,-223.6 675.56,-213.55"/>
<polygon fill="black" stroke="black" points="678.31,-212.28 670.42,-205.22 672.18,-215.66 678.31,-212.28"/>
</g>
<!-- b_intercept -->
<g id="node10" class="node">
<title>b_intercept</title>
<ellipse fill="none" stroke="black" cx="599" cy="-280.66" rx="54.27" ry="40.66"/>
<text text-anchor="middle" x="599" y="-292.11" font-family="Times,serif" font-size="14.00">b_intercept</text>
<text text-anchor="middle" x="599" y="-275.61" font-family="Times,serif" font-size="14.00">~</text>
<text text-anchor="middle" x="599" y="-259.11" font-family="Times,serif" font-size="14.00">Normal</text>
</g>
<!-- b_intercept&#45;&gt;log_mu -->
<g id="edge2" class="edge">
<title>b_intercept&#45;&gt;log_mu</title>
<path fill="none" stroke="black" d="M559.71,-252.29C552.07,-247.74 543.96,-243.4 536,-240 470.82,-212.14 390.82,-194.57 338.23,-185.09"/>
<polygon fill="black" stroke="black" points="338.89,-181.48 328.44,-183.19 337.68,-188.37 338.89,-181.48"/>
</g>
<!-- b_intercept&#45;&gt;b_gap -->
<g id="edge10" class="edge">
<title>b_intercept&#45;&gt;b_gap</title>
<path fill="none" stroke="black" d="M619.06,-242.62C624.14,-233.24 629.59,-223.16 634.68,-213.76"/>
<polygon fill="black" stroke="black" points="638.14,-215.73 639.83,-205.27 631.99,-212.4 638.14,-215.73"/>
</g>
<!-- b_dx -->
<g id="node11" class="node">
<title>b_dx</title>
<ellipse fill="none" stroke="black" cx="486" cy="-280.66" rx="41.01" ry="40.66"/>
<text text-anchor="middle" x="486" y="-292.11" font-family="Times,serif" font-size="14.00">b_dx</text>
<text text-anchor="middle" x="486" y="-275.61" font-family="Times,serif" font-size="14.00">~</text>
<text text-anchor="middle" x="486" y="-259.11" font-family="Times,serif" font-size="14.00">Normal</text>
</g>
<!-- b_dx&#45;&gt;log_mu -->
<g id="edge5" class="edge">
<title>b_dx&#45;&gt;log_mu</title>
<path fill="none" stroke="black" d="M455.22,-253.09C449.07,-248.41 442.49,-243.82 436,-240 404.98,-221.76 367.77,-206.2 337.69,-195.02"/>
<polygon fill="black" stroke="black" points="338.97,-191.4 328.37,-191.25 336.56,-197.97 338.97,-191.4"/>
</g>
<!-- mu&#45;&gt;likelihood -->
<g id="edge12" class="edge">
<title>mu&#45;&gt;likelihood</title>
<path fill="none" stroke="black" d="M128.51,-82.54C112.26,-89.21 95.42,-99.22 85,-114 61.57,-147.24 58.13,-193.87 59.8,-229.2"/>
<polygon fill="black" stroke="black" points="56.34,-229.01 60.47,-238.77 63.33,-228.57 56.34,-229.01"/>
</g>
</g>
</svg>
