<?xml version="1.0" encoding="UTF-8" standalone="no"?>
<!DOCTYPE svg PUBLIC "-//W3C//DTD SVG 1.1//EN"
 "http://www.w3.org/Graphics/SVG/1.1/DTD/svg11.dtd">
<!-- Generated by graphviz version 8.0.5 (20230430.1635)
 -->
<!-- Pages: 1 -->
<svg width="864pt" height="438pt"
 viewBox="0.00 0.00 864.28 438.23" xmlns="http://www.w3.org/2000/svg" xmlns:xlink="http://www.w3.org/1999/xlink">
<g id="graph0" class="graph" transform="scale(1 1) rotate(0) translate(4 434.23)">
<polygon fill="white" stroke="none" points="-4,4 -4,-434.23 860.28,-434.23 860.28,4 -4,4"/>
<g id="clust1" class="cluster">
<title>clusterobs (73)</title>
<path fill="none" stroke="black" d="M204.01,-8C204.01,-8 494.01,-8 494.01,-8 500.01,-8 506.01,-14 506.01,-20 506.01,-20 506.01,-410.23 506.01,-410.23 506.01,-416.23 500.01,-422.23 494.01,-422.23 494.01,-422.23 204.01,-422.23 204.01,-422.23 198.01,-422.23 192.01,-416.23 192.01,-410.23 192.01,-410.23 192.01,-20 192.01,-20 192.01,-14 198.01,-8 204.01,-8"/>
<text text-anchor="middle" x="475.51" y="-15.2" font-family="Times,serif" font-size="14.00">obs (73)</text>
</g>
<g id="clust2" class="cluster">
<title>cluster73</title>
<path fill="none" stroke="black" d="M526.01,-113.41C526.01,-113.41 608.01,-113.41 608.01,-113.41 614.01,-113.41 620.01,-119.41 620.01,-125.41 620.01,-125.41 620.01,-199.41 620.01,-199.41 620.01,-205.41 614.01,-211.41 608.01,-211.41 608.01,-211.41 526.01,-211.41 526.01,-211.41 520.01,-211.41 514.01,-205.41 514.01,-199.41 514.01,-199.41 514.01,-125.41 514.01,-125.41 514.01,-119.41 520.01,-113.41 526.01,-113.41"/>
<text text-anchor="middle" x="605.26" y="-120.61" font-family="Times,serif" font-size="14.00">73</text>
</g>
<!-- log_mu -->
<g id="node1" class="node">
<title>log_mu</title>
<polygon fill="none" stroke="black" points="374.14,-308.82 283.89,-308.82 283.89,-251.32 374.14,-251.32 374.14,-308.82"/>
<text text-anchor="middle" x="329.01" y="-291.52" font-family="Times,serif" font-size="14.00">log_mu</text>
<text text-anchor="middle" x="329.01" y="-275.02" font-family="Times,serif" font-size="14.00">~</text>
<text text-anchor="middle" x="329.01" y="-258.52" font-family="Times,serif" font-size="14.00">Deterministic</text>
</g>
<!-- mu -->
<g id="node14" class="node">
<title>mu</title>
<polygon fill="none" stroke="black" points="612.14,-203.41 521.89,-203.41 521.89,-145.91 612.14,-145.91 612.14,-203.41"/>
<text text-anchor="middle" x="567.01" y="-186.11" font-family="Times,serif" font-size="14.00">mu</text>
<text text-anchor="middle" x="567.01" y="-169.61" font-family="Times,serif" font-size="14.00">~</text>
<text text-anchor="middle" x="567.01" y="-153.11" font-family="Times,serif" font-size="14.00">Deterministic</text>
</g>
<!-- log_mu&#45;&gt;mu -->
<g id="edge8" class="edge">
<title>log_mu&#45;&gt;mu</title>
<path fill="none" stroke="black" d="M374.38,-254.95C377.28,-253.66 380.17,-252.44 383.01,-251.32 437.59,-229.8 456.98,-240.42 510.01,-215.32 513.77,-213.54 517.54,-211.52 521.27,-209.36"/>
<polygon fill="black" stroke="black" points="522.7,-211.98 529.37,-203.75 519.02,-206.02 522.7,-211.98"/>
</g>
<!-- kernel -->
<g id="node2" class="node">
<title>kernel</title>
<path fill="lightgrey" stroke="black" d="M485.64,-414.23C485.64,-414.23 422.39,-414.23 422.39,-414.23 416.39,-414.23 410.39,-408.23 410.39,-402.23 410.39,-402.23 410.39,-368.73 410.39,-368.73 410.39,-362.73 416.39,-356.73 422.39,-356.73 422.39,-356.73 485.64,-356.73 485.64,-356.73 491.64,-356.73 497.64,-362.73 497.64,-368.73 497.64,-368.73 497.64,-402.23 497.64,-402.23 497.64,-408.23 491.64,-414.23 485.64,-414.23"/>
<text text-anchor="middle" x="454.01" y="-396.93" font-family="Times,serif" font-size="14.00">kernel</text>
<text text-anchor="middle" x="454.01" y="-380.43" font-family="Times,serif" font-size="14.00">~</text>
<text text-anchor="middle" x="454.01" y="-363.93" font-family="Times,serif" font-size="14.00">MutableData</text>
</g>
<!-- sigma_weighted -->
<g id="node4" class="node">
<title>sigma_weighted</title>
<polygon fill="none" stroke="black" points="497.64,-308.82 392.39,-308.82 392.39,-251.32 497.64,-251.32 497.64,-308.82"/>
<text text-anchor="middle" x="445.01" y="-291.52" font-family="Times,serif" font-size="14.00">sigma_weighted</text>
<text text-anchor="middle" x="445.01" y="-275.02" font-family="Times,serif" font-size="14.00">~</text>
<text text-anchor="middle" x="445.01" y="-258.52" font-family="Times,serif" font-size="14.00">Deterministic</text>
</g>
<!-- kernel&#45;&gt;sigma_weighted -->
<g id="edge12" class="edge">
<title>kernel&#45;&gt;sigma_weighted</title>
<path fill="none" stroke="black" d="M451.58,-356.49C450.6,-345.23 449.45,-332.04 448.39,-319.88"/>
<polygon fill="black" stroke="black" points="451.8,-319.73 447.45,-310.07 444.83,-320.34 451.8,-319.73"/>
</g>
<!-- d -->
<g id="node3" class="node">
<title>d</title>
<path fill="lightgrey" stroke="black" d="M380.64,-414.23C380.64,-414.23 317.39,-414.23 317.39,-414.23 311.39,-414.23 305.39,-408.23 305.39,-402.23 305.39,-402.23 305.39,-368.73 305.39,-368.73 305.39,-362.73 311.39,-356.73 317.39,-356.73 317.39,-356.73 380.64,-356.73 380.64,-356.73 386.64,-356.73 392.64,-362.73 392.64,-368.73 392.64,-368.73 392.64,-402.23 392.64,-402.23 392.64,-408.23 386.64,-414.23 380.64,-414.23"/>
<text text-anchor="middle" x="349.01" y="-396.93" font-family="Times,serif" font-size="14.00">d</text>
<text text-anchor="middle" x="349.01" y="-380.43" font-family="Times,serif" font-size="14.00">~</text>
<text text-anchor="middle" x="349.01" y="-363.93" font-family="Times,serif" font-size="14.00">MutableData</text>
</g>
<!-- d&#45;&gt;log_mu -->
<g id="edge7" class="edge">
<title>d&#45;&gt;log_mu</title>
<path fill="none" stroke="black" d="M343.6,-356.49C341.4,-345.11 338.82,-331.77 336.45,-319.5"/>
<polygon fill="black" stroke="black" points="339.76,-319.23 334.43,-310.07 332.89,-320.56 339.76,-319.23"/>
</g>
<!-- likelihood -->
<g id="node6" class="node">
<title>likelihood</title>
<ellipse fill="lightgrey" stroke="black" cx="446.01" cy="-174.66" rx="50.03" ry="40.66"/>
<text text-anchor="middle" x="446.01" y="-186.11" font-family="Times,serif" font-size="14.00">likelihood</text>
<text text-anchor="middle" x="446.01" y="-169.61" font-family="Times,serif" font-size="14.00">~</text>
<text text-anchor="middle" x="446.01" y="-153.11" font-family="Times,serif" font-size="14.00">Gamma</text>
</g>
<!-- sigma_weighted&#45;&gt;likelihood -->
<g id="edge13" class="edge">
<title>sigma_weighted&#45;&gt;likelihood</title>
<path fill="none" stroke="black" d="M445.28,-251.08C445.36,-243.51 445.44,-235.08 445.52,-226.67"/>
<polygon fill="black" stroke="black" points="449.03,-226.73 445.62,-216.7 442.03,-226.67 449.03,-226.73"/>
</g>
<!-- y -->
<g id="node5" class="node">
<title>y</title>
<path fill="lightgrey" stroke="black" d="M477.64,-98C477.64,-98 414.39,-98 414.39,-98 408.39,-98 402.39,-92 402.39,-86 402.39,-86 402.39,-52.5 402.39,-52.5 402.39,-46.5 408.39,-40.5 414.39,-40.5 414.39,-40.5 477.64,-40.5 477.64,-40.5 483.64,-40.5 489.64,-46.5 489.64,-52.5 489.64,-52.5 489.64,-86 489.64,-86 489.64,-92 483.64,-98 477.64,-98"/>
<text text-anchor="middle" x="446.01" y="-80.7" font-family="Times,serif" font-size="14.00">y</text>
<text text-anchor="middle" x="446.01" y="-64.2" font-family="Times,serif" font-size="14.00">~</text>
<text text-anchor="middle" x="446.01" y="-47.7" font-family="Times,serif" font-size="14.00">MutableData</text>
</g>
<!-- likelihood&#45;&gt;y -->
<g id="edge1" class="edge">
<title>likelihood&#45;&gt;y</title>
<path fill="none" stroke="black" d="M446.01,-133.68C446.01,-125.64 446.01,-117.21 446.01,-109.21"/>
<polygon fill="black" stroke="black" points="449.51,-109.28 446.01,-99.28 442.51,-109.28 449.51,-109.28"/>
</g>
<!-- x -->
<g id="node7" class="node">
<title>x</title>
<path fill="lightgrey" stroke="black" d="M275.64,-414.23C275.64,-414.23 212.39,-414.23 212.39,-414.23 206.39,-414.23 200.39,-408.23 200.39,-402.23 200.39,-402.23 200.39,-368.73 200.39,-368.73 200.39,-362.73 206.39,-356.73 212.39,-356.73 212.39,-356.73 275.64,-356.73 275.64,-356.73 281.64,-356.73 287.64,-362.73 287.64,-368.73 287.64,-368.73 287.64,-402.23 287.64,-402.23 287.64,-408.23 281.64,-414.23 275.64,-414.23"/>
<text text-anchor="middle" x="244.01" y="-396.93" font-family="Times,serif" font-size="14.00">x</text>
<text text-anchor="middle" x="244.01" y="-380.43" font-family="Times,serif" font-size="14.00">~</text>
<text text-anchor="middle" x="244.01" y="-363.93" font-family="Times,serif" font-size="14.00">MutableData</text>
</g>
<!-- x&#45;&gt;log_mu -->
<g id="edge4" class="edge">
<title>x&#45;&gt;log_mu</title>
<path fill="none" stroke="black" d="M267.01,-356.49C276.94,-344.42 288.67,-330.15 299.24,-317.29"/>
<polygon fill="black" stroke="black" points="302.35,-320.02 305.99,-310.07 296.94,-315.58 302.35,-320.02"/>
</g>
<!-- sigma -->
<g id="node8" class="node">
<title>sigma</title>
<ellipse fill="none" stroke="black" cx="573.01" cy="-385.48" rx="57.45" ry="40.66"/>
<text text-anchor="middle" x="573.01" y="-396.93" font-family="Times,serif" font-size="14.00">sigma</text>
<text text-anchor="middle" x="573.01" y="-380.43" font-family="Times,serif" font-size="14.00">~</text>
<text text-anchor="middle" x="573.01" y="-363.93" font-family="Times,serif" font-size="14.00">Exponential</text>
</g>
<!-- sigma&#45;&gt;sigma_weighted -->
<g id="edge11" class="edge">
<title>sigma&#45;&gt;sigma_weighted</title>
<path fill="none" stroke="black" d="M535.65,-354.29C520.7,-342.22 503.4,-328.24 487.95,-315.75"/>
<polygon fill="black" stroke="black" points="490.56,-312.55 480.58,-308.99 486.16,-318 490.56,-312.55"/>
</g>
<!-- b_x -->
<g id="node9" class="node">
<title>b_x</title>
<ellipse fill="none" stroke="black" cx="41.01" cy="-385.48" rx="41.01" ry="40.66"/>
<text text-anchor="middle" x="41.01" y="-396.93" font-family="Times,serif" font-size="14.00">b_x</text>
<text text-anchor="middle" x="41.01" y="-380.43" font-family="Times,serif" font-size="14.00">~</text>
<text text-anchor="middle" x="41.01" y="-363.93" font-family="Times,serif" font-size="14.00">Normal</text>
</g>
<!-- b_x&#45;&gt;log_mu -->
<g id="edge6" class="edge">
<title>b_x&#45;&gt;log_mu</title>
<path fill="none" stroke="black" d="M71.14,-357.41C77.4,-352.72 84.18,-348.25 91.01,-344.82 149.57,-315.35 223.32,-298.32 273.07,-289.39"/>
<polygon fill="black" stroke="black" points="273.37,-292.72 282.62,-287.56 272.17,-285.82 273.37,-292.72"/>
</g>
<!-- b_gap -->
<g id="node10" class="node">
<title>b_gap</title>
<polygon fill="none" stroke="black" points="790.14,-308.82 699.89,-308.82 699.89,-251.32 790.14,-251.32 790.14,-308.82"/>
<text text-anchor="middle" x="745.01" y="-291.52" font-family="Times,serif" font-size="14.00">b_gap</text>
<text text-anchor="middle" x="745.01" y="-275.02" font-family="Times,serif" font-size="14.00">~</text>
<text text-anchor="middle" x="745.01" y="-258.52" font-family="Times,serif" font-size="14.00">Deterministic</text>
</g>
<!-- b_d -->
<g id="node11" class="node">
<title>b_d</title>
<ellipse fill="none" stroke="black" cx="689.01" cy="-385.48" rx="41.01" ry="40.66"/>
<text text-anchor="middle" x="689.01" y="-396.93" font-family="Times,serif" font-size="14.00">b_d</text>
<text text-anchor="middle" x="689.01" y="-380.43" font-family="Times,serif" font-size="14.00">~</text>
<text text-anchor="middle" x="689.01" y="-363.93" font-family="Times,serif" font-size="14.00">Normal</text>
</g>
<!-- b_d&#45;&gt;log_mu -->
<g id="edge3" class="edge">
<title>b_d&#45;&gt;log_mu</title>
<path fill="none" stroke="black" d="M659.47,-356.93C653.11,-352.22 646.14,-347.87 639.01,-344.82 536.61,-300.9 495.07,-340.98 385.03,-308.98"/>
<polygon fill="black" stroke="black" points="386.11,-305.35 375.52,-305.77 384.06,-312.04 386.11,-305.35"/>
</g>
<!-- b_d&#45;&gt;b_gap -->
<g id="edge9" class="edge">
<title>b_d&#45;&gt;b_gap</title>
<path fill="none" stroke="black" d="M708.13,-349.18C713.45,-339.35 719.25,-328.64 724.64,-318.68"/>
<polygon fill="black" stroke="black" points="728.18,-320.49 729.87,-310.03 722.03,-317.16 728.18,-320.49"/>
</g>
<!-- b_intercept -->
<g id="node12" class="node">
<title>b_intercept</title>
<ellipse fill="none" stroke="black" cx="802.01" cy="-385.48" rx="54.27" ry="40.66"/>
<text text-anchor="middle" x="802.01" y="-396.93" font-family="Times,serif" font-size="14.00">b_intercept</text>
<text text-anchor="middle" x="802.01" y="-380.43" font-family="Times,serif" font-size="14.00">~</text>
<text text-anchor="middle" x="802.01" y="-363.93" font-family="Times,serif" font-size="14.00">Normal</text>
</g>
<!-- b_intercept&#45;&gt;log_mu -->
<g id="edge2" class="edge">
<title>b_intercept&#45;&gt;log_mu</title>
<path fill="none" stroke="black" d="M763.43,-356.35C755.66,-351.81 747.32,-347.68 739.01,-344.82 591.86,-294.2 537.83,-351.38 384.71,-308.85"/>
<polygon fill="black" stroke="black" points="386.06,-305.31 375.48,-305.9 384.12,-312.03 386.06,-305.31"/>
</g>
<!-- b_intercept&#45;&gt;b_gap -->
<g id="edge10" class="edge">
<title>b_intercept&#45;&gt;b_gap</title>
<path fill="none" stroke="black" d="M781.59,-347.44C776.43,-338.06 770.87,-327.98 765.69,-318.58"/>
<polygon fill="black" stroke="black" points="768.35,-317.16 760.46,-310.09 762.22,-320.54 768.35,-317.16"/>
</g>
<!-- b_dx -->
<g id="node13" class="node">
<title>b_dx</title>
<ellipse fill="none" stroke="black" cx="141.01" cy="-385.48" rx="41.01" ry="40.66"/>
<text text-anchor="middle" x="141.01" y="-396.93" font-family="Times,serif" font-size="14.00">b_dx</text>
<text text-anchor="middle" x="141.01" y="-380.43" font-family="Times,serif" font-size="14.00">~</text>
<text text-anchor="middle" x="141.01" y="-363.93" font-family="Times,serif" font-size="14.00">Normal</text>
</g>
<!-- b_dx&#45;&gt;log_mu -->
<g id="edge5" class="edge">
<title>b_dx&#45;&gt;log_mu</title>
<path fill="none" stroke="black" d="M170.92,-357.17C176.41,-352.76 182.23,-348.46 188.01,-344.82 214.81,-327.91 246.84,-313.06 273.6,-301.94"/>
<polygon fill="black" stroke="black" points="274.63,-304.89 282.57,-297.87 271.99,-298.41 274.63,-304.89"/>
</g>
<!-- mu&#45;&gt;likelihood -->
<g id="edge14" class="edge">
<title>mu&#45;&gt;likelihood</title>
<path fill="none" stroke="black" d="M521.59,-174.66C516.68,-174.66 511.77,-174.66 506.86,-174.66"/>
<polygon fill="black" stroke="black" points="507.11,-171.16 497.11,-174.66 507.11,-178.16 507.11,-171.16"/>
</g>
</g>
</svg>
