<?xml version="1.0" encoding="UTF-8" standalone="no"?>
<!DOCTYPE svg PUBLIC "-//W3C//DTD SVG 1.1//EN"
 "http://www.w3.org/Graphics/SVG/1.1/DTD/svg11.dtd">
<!-- Generated by graphviz version 8.0.5 (20230430.1635)
 -->
<!-- Pages: 1 -->
<svg width="757pt" height="462pt"
 viewBox="0.00 0.00 757.46 462.04" xmlns="http://www.w3.org/2000/svg" xmlns:xlink="http://www.w3.org/1999/xlink">
<g id="graph0" class="graph" transform="scale(1 1) rotate(0) translate(4 458.04)">
<polygon fill="white" stroke="none" points="-4,4 -4,-458.04 753.46,-458.04 753.46,4 -4,4"/>
<g id="clust1" class="cluster">
<title>clusterobs (73)</title>
<path fill="none" stroke="black" d="M134.45,-8C134.45,-8 319.45,-8 319.45,-8 325.45,-8 331.45,-14 331.45,-20 331.45,-20 331.45,-434.04 331.45,-434.04 331.45,-440.04 325.45,-446.04 319.45,-446.04 319.45,-446.04 134.45,-446.04 134.45,-446.04 128.45,-446.04 122.45,-440.04 122.45,-434.04 122.45,-434.04 122.45,-20 122.45,-20 122.45,-14 128.45,-8 134.45,-8"/>
<text text-anchor="middle" x="300.95" y="-15.2" font-family="Times,serif" font-size="14.00">obs (73)</text>
</g>
<!-- mu -->
<g id="node1" class="node">
<title>mu</title>
<polygon fill="none" stroke="black" points="323.58,-320.73 233.33,-320.73 233.33,-263.23 323.58,-263.23 323.58,-320.73"/>
<text text-anchor="middle" x="278.45" y="-303.43" font-family="Times,serif" font-size="14.00">mu</text>
<text text-anchor="middle" x="278.45" y="-286.93" font-family="Times,serif" font-size="14.00">~</text>
<text text-anchor="middle" x="278.45" y="-270.43" font-family="Times,serif" font-size="14.00">Deterministic</text>
</g>
<!-- likelihood -->
<g id="node4" class="node">
<title>likelihood</title>
<ellipse fill="lightgrey" stroke="black" cx="226.45" cy="-174.66" rx="50.03" ry="40.66"/>
<text text-anchor="middle" x="226.45" y="-186.11" font-family="Times,serif" font-size="14.00">likelihood</text>
<text text-anchor="middle" x="226.45" y="-169.61" font-family="Times,serif" font-size="14.00">~</text>
<text text-anchor="middle" x="226.45" y="-153.11" font-family="Times,serif" font-size="14.00">Normal</text>
</g>
<!-- mu&#45;&gt;likelihood -->
<g id="edge9" class="edge">
<title>mu&#45;&gt;likelihood</title>
<path fill="none" stroke="black" d="M265.73,-262.77C260.31,-250.75 253.84,-236.39 247.73,-222.84"/>
<polygon fill="black" stroke="black" points="250.66,-221.84 243.36,-214.16 244.28,-224.71 250.66,-221.84"/>
</g>
<!-- d -->
<g id="node2" class="node">
<title>d</title>
<path fill="lightgrey" stroke="black" d="M311.08,-438.04C311.08,-438.04 247.83,-438.04 247.83,-438.04 241.83,-438.04 235.83,-432.04 235.83,-426.04 235.83,-426.04 235.83,-392.54 235.83,-392.54 235.83,-386.54 241.83,-380.54 247.83,-380.54 247.83,-380.54 311.08,-380.54 311.08,-380.54 317.08,-380.54 323.08,-386.54 323.08,-392.54 323.08,-392.54 323.08,-426.04 323.08,-426.04 323.08,-432.04 317.08,-438.04 311.08,-438.04"/>
<text text-anchor="middle" x="279.45" y="-420.74" font-family="Times,serif" font-size="14.00">d</text>
<text text-anchor="middle" x="279.45" y="-404.24" font-family="Times,serif" font-size="14.00">~</text>
<text text-anchor="middle" x="279.45" y="-387.74" font-family="Times,serif" font-size="14.00">MutableData</text>
</g>
<!-- d&#45;&gt;mu -->
<g id="edge7" class="edge">
<title>d&#45;&gt;mu</title>
<path fill="none" stroke="black" d="M279.21,-380.08C279.08,-365.46 278.92,-347.37 278.79,-331.48"/>
<polygon fill="black" stroke="black" points="282.28,-331.86 278.69,-321.89 275.28,-331.92 282.28,-331.86"/>
</g>
<!-- y -->
<g id="node3" class="node">
<title>y</title>
<path fill="lightgrey" stroke="black" d="M258.08,-98C258.08,-98 194.83,-98 194.83,-98 188.83,-98 182.83,-92 182.83,-86 182.83,-86 182.83,-52.5 182.83,-52.5 182.83,-46.5 188.83,-40.5 194.83,-40.5 194.83,-40.5 258.08,-40.5 258.08,-40.5 264.08,-40.5 270.08,-46.5 270.08,-52.5 270.08,-52.5 270.08,-86 270.08,-86 270.08,-92 264.08,-98 258.08,-98"/>
<text text-anchor="middle" x="226.45" y="-80.7" font-family="Times,serif" font-size="14.00">y</text>
<text text-anchor="middle" x="226.45" y="-64.2" font-family="Times,serif" font-size="14.00">~</text>
<text text-anchor="middle" x="226.45" y="-47.7" font-family="Times,serif" font-size="14.00">MutableData</text>
</g>
<!-- likelihood&#45;&gt;y -->
<g id="edge1" class="edge">
<title>likelihood&#45;&gt;y</title>
<path fill="none" stroke="black" d="M226.45,-133.68C226.45,-125.64 226.45,-117.21 226.45,-109.21"/>
<polygon fill="black" stroke="black" points="229.95,-109.28 226.45,-99.28 222.95,-109.28 229.95,-109.28"/>
</g>
<!-- x -->
<g id="node5" class="node">
<title>x</title>
<path fill="lightgrey" stroke="black" d="M206.08,-438.04C206.08,-438.04 142.83,-438.04 142.83,-438.04 136.83,-438.04 130.83,-432.04 130.83,-426.04 130.83,-426.04 130.83,-392.54 130.83,-392.54 130.83,-386.54 136.83,-380.54 142.83,-380.54 142.83,-380.54 206.08,-380.54 206.08,-380.54 212.08,-380.54 218.08,-386.54 218.08,-392.54 218.08,-392.54 218.08,-426.04 218.08,-426.04 218.08,-432.04 212.08,-438.04 206.08,-438.04"/>
<text text-anchor="middle" x="174.45" y="-420.74" font-family="Times,serif" font-size="14.00">x</text>
<text text-anchor="middle" x="174.45" y="-404.24" font-family="Times,serif" font-size="14.00">~</text>
<text text-anchor="middle" x="174.45" y="-387.74" font-family="Times,serif" font-size="14.00">MutableData</text>
</g>
<!-- x&#45;&gt;mu -->
<g id="edge4" class="edge">
<title>x&#45;&gt;mu</title>
<path fill="none" stroke="black" d="M199.89,-380.08C213.85,-364.61 231.29,-345.27 246.19,-328.75"/>
<polygon fill="black" stroke="black" points="248.18,-331.66 252.27,-321.89 242.98,-326.98 248.18,-331.66"/>
</g>
<!-- sigma -->
<g id="node6" class="node">
<title>sigma</title>
<ellipse fill="none" stroke="black" cx="57.45" cy="-291.98" rx="57.45" ry="40.66"/>
<text text-anchor="middle" x="57.45" y="-303.43" font-family="Times,serif" font-size="14.00">sigma</text>
<text text-anchor="middle" x="57.45" y="-286.93" font-family="Times,serif" font-size="14.00">~</text>
<text text-anchor="middle" x="57.45" y="-270.43" font-family="Times,serif" font-size="14.00">Exponential</text>
</g>
<!-- sigma&#45;&gt;likelihood -->
<g id="edge8" class="edge">
<title>sigma&#45;&gt;likelihood</title>
<path fill="none" stroke="black" d="M98.36,-263.06C122.92,-246.31 154.24,-224.94 179.76,-207.52"/>
<polygon fill="black" stroke="black" points="181.23,-210.07 187.52,-201.54 177.29,-204.29 181.23,-210.07"/>
</g>
<!-- b_x -->
<g id="node7" class="node">
<title>b_x</title>
<ellipse fill="none" stroke="black" cx="382.45" cy="-409.29" rx="41.01" ry="40.66"/>
<text text-anchor="middle" x="382.45" y="-420.74" font-family="Times,serif" font-size="14.00">b_x</text>
<text text-anchor="middle" x="382.45" y="-404.24" font-family="Times,serif" font-size="14.00">~</text>
<text text-anchor="middle" x="382.45" y="-387.74" font-family="Times,serif" font-size="14.00">Normal</text>
</g>
<!-- b_x&#45;&gt;mu -->
<g id="edge6" class="edge">
<title>b_x&#45;&gt;mu</title>
<path fill="none" stroke="black" d="M355.4,-378.3C341.77,-363.18 325.14,-344.74 310.83,-328.87"/>
<polygon fill="black" stroke="black" points="313.88,-326.93 304.59,-321.84 308.68,-331.61 313.88,-326.93"/>
</g>
<!-- b_d -->
<g id="node8" class="node">
<title>b_d</title>
<ellipse fill="none" stroke="black" cx="482.45" cy="-409.29" rx="41.01" ry="40.66"/>
<text text-anchor="middle" x="482.45" y="-420.74" font-family="Times,serif" font-size="14.00">b_d</text>
<text text-anchor="middle" x="482.45" y="-404.24" font-family="Times,serif" font-size="14.00">~</text>
<text text-anchor="middle" x="482.45" y="-387.74" font-family="Times,serif" font-size="14.00">Normal</text>
</g>
<!-- b_d&#45;&gt;mu -->
<g id="edge3" class="edge">
<title>b_d&#45;&gt;mu</title>
<path fill="none" stroke="black" d="M451.47,-382.05C445.33,-377.34 438.82,-372.66 432.45,-368.63 401.12,-348.83 363.86,-330.4 333.84,-316.69"/>
<polygon fill="black" stroke="black" points="335.51,-313.16 324.96,-312.23 332.63,-319.54 335.51,-313.16"/>
</g>
<!-- b_intercept -->
<g id="node9" class="node">
<title>b_intercept</title>
<ellipse fill="none" stroke="black" cx="595.45" cy="-409.29" rx="54.27" ry="40.66"/>
<text text-anchor="middle" x="595.45" y="-420.74" font-family="Times,serif" font-size="14.00">b_intercept</text>
<text text-anchor="middle" x="595.45" y="-404.24" font-family="Times,serif" font-size="14.00">~</text>
<text text-anchor="middle" x="595.45" y="-387.74" font-family="Times,serif" font-size="14.00">Normal</text>
</g>
<!-- b_intercept&#45;&gt;mu -->
<g id="edge2" class="edge">
<title>b_intercept&#45;&gt;mu</title>
<path fill="none" stroke="black" d="M555.69,-381C548.17,-376.5 540.22,-372.16 532.45,-368.63 466.98,-338.95 386.82,-317.32 334.28,-304.97"/>
<polygon fill="black" stroke="black" points="335.36,-301.39 324.83,-302.55 333.78,-308.21 335.36,-301.39"/>
</g>
<!-- b_dx -->
<g id="node10" class="node">
<title>b_dx</title>
<ellipse fill="none" stroke="black" cx="708.45" cy="-409.29" rx="41.01" ry="40.66"/>
<text text-anchor="middle" x="708.45" y="-420.74" font-family="Times,serif" font-size="14.00">b_dx</text>
<text text-anchor="middle" x="708.45" y="-404.24" font-family="Times,serif" font-size="14.00">~</text>
<text text-anchor="middle" x="708.45" y="-387.74" font-family="Times,serif" font-size="14.00">Normal</text>
</g>
<!-- b_dx&#45;&gt;mu -->
<g id="edge5" class="edge">
<title>b_dx&#45;&gt;mu</title>
<path fill="none" stroke="black" d="M678.5,-380.87C672.22,-376.21 665.39,-371.85 658.45,-368.63 550.82,-318.81 411.18,-301.73 334.68,-295.92"/>
<polygon fill="black" stroke="black" points="335.09,-292.37 324.87,-295.14 334.59,-299.35 335.09,-292.37"/>
</g>
</g>
</svg>
