<?xml version="1.0" encoding="UTF-8" standalone="no"?>
<!DOCTYPE svg PUBLIC "-//W3C//DTD SVG 1.1//EN"
 "http://www.w3.org/Graphics/SVG/1.1/DTD/svg11.dtd">
<!-- Generated by graphviz version 14.1.2 (0)
 -->
<!-- Pages: 1 -->
<svg width="1573pt" height="766pt"
 viewBox="0.00 0.00 1573.00 766.00" xmlns="http://www.w3.org/2000/svg" xmlns:xlink="http://www.w3.org/1999/xlink">
<g id="graph0" class="graph" transform="scale(1 1) rotate(0) translate(4 762.36)">
<polygon fill="white" stroke="none" points="-4,4 -4,-762.36 1569.13,-762.36 1569.13,4 -4,4"/>
<g id="clust1" class="cluster">
<title>clusterobs_idx (410)</title>
<path fill="none" stroke="black" d="M137.98,-8C137.98,-8 396.98,-8 396.98,-8 402.98,-8 408.98,-14 408.98,-20 408.98,-20 408.98,-738.36 408.98,-738.36 408.98,-744.36 402.98,-750.36 396.98,-750.36 396.98,-750.36 137.98,-750.36 137.98,-750.36 131.98,-750.36 125.98,-744.36 125.98,-738.36 125.98,-738.36 125.98,-20 125.98,-20 125.98,-14 131.98,-8 137.98,-8"/>
<text xml:space="preserve" text-anchor="middle" x="363.11" y="-15.2" font-family="Times,serif" font-size="14.00">obs_idx (410)</text>
</g>
<!-- mu_dev_peer -->
<g id="node1" class="node">
<title>mu_dev_peer</title>
<polygon fill="none" stroke="black" points="401.11,-426.13 310.86,-426.13 310.86,-368.63 401.11,-368.63 401.11,-426.13"/>
<text xml:space="preserve" text-anchor="middle" x="355.98" y="-408.83" font-family="Times,serif" font-size="14.00">mu_dev_peer</text>
<text xml:space="preserve" text-anchor="middle" x="355.98" y="-392.33" font-family="Times,serif" font-size="14.00">~</text>
<text xml:space="preserve" text-anchor="middle" x="355.98" y="-375.83" font-family="Times,serif" font-size="14.00">Deterministic</text>
</g>
<!-- dev_peer -->
<g id="node6" class="node">
<title>dev_peer</title>
<ellipse fill="lightgrey" stroke="black" cx="353.98" cy="-291.98" rx="47.38" ry="40.66"/>
<text xml:space="preserve" text-anchor="middle" x="353.98" y="-303.43" font-family="Times,serif" font-size="14.00">dev_peer</text>
<text xml:space="preserve" text-anchor="middle" x="353.98" y="-286.93" font-family="Times,serif" font-size="14.00">~</text>
<text xml:space="preserve" text-anchor="middle" x="353.98" y="-270.43" font-family="Times,serif" font-size="14.00">Bernoulli</text>
</g>
<!-- mu_dev_peer&#45;&gt;dev_peer -->
<g id="edge3" class="edge">
<title>mu_dev_peer&#45;&gt;dev_peer</title>
<path fill="none" stroke="black" d="M355.44,-368.4C355.3,-360.92 355.14,-352.59 354.97,-344.27"/>
<polygon fill="black" stroke="black" points="358.48,-344.46 354.79,-334.53 351.48,-344.6 358.48,-344.46"/>
</g>
<!-- mu_sub_disorder -->
<g id="node2" class="node">
<title>mu_sub_disorder</title>
<polygon fill="none" stroke="black" points="398.23,-215.32 287.73,-215.32 287.73,-157.82 398.23,-157.82 398.23,-215.32"/>
<text xml:space="preserve" text-anchor="middle" x="342.98" y="-198.02" font-family="Times,serif" font-size="14.00">mu_sub_disorder</text>
<text xml:space="preserve" text-anchor="middle" x="342.98" y="-181.52" font-family="Times,serif" font-size="14.00">~</text>
<text xml:space="preserve" text-anchor="middle" x="342.98" y="-165.02" font-family="Times,serif" font-size="14.00">Deterministic</text>
</g>
<!-- sub_disorder -->
<g id="node3" class="node">
<title>sub_disorder</title>
<ellipse fill="lightgrey" stroke="black" cx="339.98" cy="-81.16" rx="60.63" ry="40.66"/>
<text xml:space="preserve" text-anchor="middle" x="339.98" y="-92.61" font-family="Times,serif" font-size="14.00">sub_disorder</text>
<text xml:space="preserve" text-anchor="middle" x="339.98" y="-76.11" font-family="Times,serif" font-size="14.00">~</text>
<text xml:space="preserve" text-anchor="middle" x="339.98" y="-59.61" font-family="Times,serif" font-size="14.00">Bernoulli</text>
</g>
<!-- mu_sub_disorder&#45;&gt;sub_disorder -->
<g id="edge34" class="edge">
<title>mu_sub_disorder&#45;&gt;sub_disorder</title>
<path fill="none" stroke="black" d="M342.17,-157.58C341.95,-150.1 341.71,-141.77 341.47,-133.45"/>
<polygon fill="black" stroke="black" points="344.98,-133.61 341.19,-123.71 337.98,-133.81 344.98,-133.61"/>
</g>
<!-- gender_data -->
<g id="node4" class="node">
<title>gender_data</title>
<path fill="lightgrey" stroke="black" d="M317.98,-742.36C317.98,-742.36 259.98,-742.36 259.98,-742.36 253.98,-742.36 247.98,-736.36 247.98,-730.36 247.98,-730.36 247.98,-696.86 247.98,-696.86 247.98,-690.86 253.98,-684.86 259.98,-684.86 259.98,-684.86 317.98,-684.86 317.98,-684.86 323.98,-684.86 329.98,-690.86 329.98,-696.86 329.98,-696.86 329.98,-730.36 329.98,-730.36 329.98,-736.36 323.98,-742.36 317.98,-742.36"/>
<text xml:space="preserve" text-anchor="middle" x="288.98" y="-725.06" font-family="Times,serif" font-size="14.00">gender_data</text>
<text xml:space="preserve" text-anchor="middle" x="288.98" y="-708.56" font-family="Times,serif" font-size="14.00">~</text>
<text xml:space="preserve" text-anchor="middle" x="288.98" y="-692.06" font-family="Times,serif" font-size="14.00">Data</text>
</g>
<!-- gender_data&#45;&gt;mu_dev_peer -->
<g id="edge28" class="edge">
<title>gender_data&#45;&gt;mu_dev_peer</title>
<path fill="none" stroke="black" d="M287.03,-684.42C286.17,-656.64 287.74,-613.53 301.98,-579.45 310.02,-560.24 323.31,-562.39 331.98,-543.45 347.37,-509.85 353.03,-467.85 355.04,-437.71"/>
<polygon fill="black" stroke="black" points="358.53,-438.06 355.58,-427.89 351.54,-437.68 358.53,-438.06"/>
</g>
<!-- gender_data&#45;&gt;mu_sub_disorder -->
<g id="edge6" class="edge">
<title>gender_data&#45;&gt;mu_sub_disorder</title>
<path fill="none" stroke="black" d="M253.05,-684.71C238.57,-671.68 222.95,-655.05 212.98,-636.95 171.25,-561.18 109.88,-321.83 159.98,-251.32 186.17,-214.47 235.28,-198.74 276.04,-192.11"/>
<polygon fill="black" stroke="black" points="276.4,-195.59 285.79,-190.69 275.39,-188.67 276.4,-195.59"/>
</g>
<!-- mu_sub_exp -->
<g id="node5" class="node">
<title>mu_sub_exp</title>
<polygon fill="none" stroke="black" points="293.11,-426.13 202.86,-426.13 202.86,-368.63 293.11,-368.63 293.11,-426.13"/>
<text xml:space="preserve" text-anchor="middle" x="247.98" y="-408.83" font-family="Times,serif" font-size="14.00">mu_sub_exp</text>
<text xml:space="preserve" text-anchor="middle" x="247.98" y="-392.33" font-family="Times,serif" font-size="14.00">~</text>
<text xml:space="preserve" text-anchor="middle" x="247.98" y="-375.83" font-family="Times,serif" font-size="14.00">Deterministic</text>
</g>
<!-- gender_data&#45;&gt;mu_sub_exp -->
<g id="edge21" class="edge">
<title>gender_data&#45;&gt;mu_sub_exp</title>
<path fill="none" stroke="black" d="M269.93,-684.53C249.23,-652.17 217.45,-596.6 204.98,-543.45 196.73,-508.27 194.42,-496.7 204.98,-462.13 207.79,-452.96 212.41,-443.91 217.6,-435.64"/>
<polygon fill="black" stroke="black" points="220.35,-437.83 223.04,-427.58 214.55,-433.91 220.35,-437.83"/>
</g>
<!-- mu_fam_int -->
<g id="node7" class="node">
<title>mu_fam_int</title>
<polygon fill="none" stroke="black" points="401.11,-636.95 310.86,-636.95 310.86,-579.45 401.11,-579.45 401.11,-636.95"/>
<text xml:space="preserve" text-anchor="middle" x="355.98" y="-619.65" font-family="Times,serif" font-size="14.00">mu_fam_int</text>
<text xml:space="preserve" text-anchor="middle" x="355.98" y="-603.15" font-family="Times,serif" font-size="14.00">~</text>
<text xml:space="preserve" text-anchor="middle" x="355.98" y="-586.65" font-family="Times,serif" font-size="14.00">Deterministic</text>
</g>
<!-- gender_data&#45;&gt;mu_fam_int -->
<g id="edge33" class="edge">
<title>gender_data&#45;&gt;mu_fam_int</title>
<path fill="none" stroke="black" d="M307.11,-684.63C314.71,-672.9 323.65,-659.1 331.8,-646.53"/>
<polygon fill="black" stroke="black" points="334.51,-648.77 337.01,-638.48 328.64,-644.97 334.51,-648.77"/>
</g>
<!-- sub_exp -->
<g id="node8" class="node">
<title>sub_exp</title>
<ellipse fill="lightgrey" stroke="black" cx="240.98" cy="-291.98" rx="47.38" ry="40.66"/>
<text xml:space="preserve" text-anchor="middle" x="240.98" y="-303.43" font-family="Times,serif" font-size="14.00">sub_exp</text>
<text xml:space="preserve" text-anchor="middle" x="240.98" y="-286.93" font-family="Times,serif" font-size="14.00">~</text>
<text xml:space="preserve" text-anchor="middle" x="240.98" y="-270.43" font-family="Times,serif" font-size="14.00">Bernoulli</text>
</g>
<!-- mu_sub_exp&#45;&gt;sub_exp -->
<g id="edge2" class="edge">
<title>mu_sub_exp&#45;&gt;sub_exp</title>
<path fill="none" stroke="black" d="M246.09,-368.4C245.58,-360.92 245.02,-352.59 244.45,-344.27"/>
<polygon fill="black" stroke="black" points="247.96,-344.27 243.8,-334.53 240.98,-344.74 247.96,-344.27"/>
</g>
<!-- dev_peer&#45;&gt;mu_sub_disorder -->
<g id="edge8" class="edge">
<title>dev_peer&#45;&gt;mu_sub_disorder</title>
<path fill="none" stroke="black" d="M349.73,-251C348.88,-243.05 348,-234.72 347.16,-226.8"/>
<polygon fill="black" stroke="black" points="350.66,-226.67 346.12,-217.1 343.7,-227.41 350.66,-226.67"/>
</g>
<!-- fam_int -->
<g id="node10" class="node">
<title>fam_int</title>
<ellipse fill="lightgrey" stroke="black" cx="260.98" cy="-502.79" rx="47.38" ry="40.66"/>
<text xml:space="preserve" text-anchor="middle" x="260.98" y="-514.24" font-family="Times,serif" font-size="14.00">fam_int</text>
<text xml:space="preserve" text-anchor="middle" x="260.98" y="-497.74" font-family="Times,serif" font-size="14.00">~</text>
<text xml:space="preserve" text-anchor="middle" x="260.98" y="-481.24" font-family="Times,serif" font-size="14.00">Bernoulli</text>
</g>
<!-- mu_fam_int&#45;&gt;fam_int -->
<g id="edge1" class="edge">
<title>mu_fam_int&#45;&gt;fam_int</title>
<path fill="none" stroke="black" d="M330.27,-579.22C320.28,-568.34 308.64,-555.67 297.79,-543.86"/>
<polygon fill="black" stroke="black" points="300.43,-541.56 291.09,-536.56 295.28,-546.3 300.43,-541.56"/>
</g>
<!-- sub_exp&#45;&gt;mu_sub_disorder -->
<g id="edge11" class="edge">
<title>sub_exp&#45;&gt;mu_sub_disorder</title>
<path fill="none" stroke="black" d="M271.31,-260.23C282.67,-248.72 295.67,-235.54 307.45,-223.59"/>
<polygon fill="black" stroke="black" points="309.79,-226.2 314.32,-216.63 304.8,-221.29 309.79,-226.2"/>
</g>
<!-- conflict_data -->
<g id="node9" class="node">
<title>conflict_data</title>
<path fill="lightgrey" stroke="black" d="M212.23,-742.36C212.23,-742.36 149.73,-742.36 149.73,-742.36 143.73,-742.36 137.73,-736.36 137.73,-730.36 137.73,-730.36 137.73,-696.86 137.73,-696.86 137.73,-690.86 143.73,-684.86 149.73,-684.86 149.73,-684.86 212.23,-684.86 212.23,-684.86 218.23,-684.86 224.23,-690.86 224.23,-696.86 224.23,-696.86 224.23,-730.36 224.23,-730.36 224.23,-736.36 218.23,-742.36 212.23,-742.36"/>
<text xml:space="preserve" text-anchor="middle" x="180.98" y="-725.06" font-family="Times,serif" font-size="14.00">conflict_data</text>
<text xml:space="preserve" text-anchor="middle" x="180.98" y="-708.56" font-family="Times,serif" font-size="14.00">~</text>
<text xml:space="preserve" text-anchor="middle" x="180.98" y="-692.06" font-family="Times,serif" font-size="14.00">Data</text>
</g>
<!-- conflict_data&#45;&gt;mu_dev_peer -->
<g id="edge24" class="edge">
<title>conflict_data&#45;&gt;mu_dev_peer</title>
<path fill="none" stroke="black" d="M202.19,-684.4C222.85,-657.16 255.4,-614.94 284.98,-579.45 298.69,-563.01 307.58,-562.69 316.98,-543.45 333.12,-510.43 322.14,-497.54 331.98,-462.13 334.25,-453.99 337.12,-445.42 340.08,-437.3"/>
<polygon fill="black" stroke="black" points="343.34,-438.59 343.6,-428 336.79,-436.12 343.34,-438.59"/>
</g>
<!-- conflict_data&#45;&gt;mu_sub_disorder -->
<g id="edge12" class="edge">
<title>conflict_data&#45;&gt;mu_sub_disorder</title>
<path fill="none" stroke="black" d="M170.77,-684.67C157.22,-645.01 134.98,-569.87 134.98,-503.79 134.98,-503.79 134.98,-503.79 134.98,-396.38 134.98,-364.13 120.45,-276.99 139.98,-251.32 171.53,-209.85 229.94,-194.73 276.03,-189.5"/>
<polygon fill="black" stroke="black" points="276.35,-192.99 285.96,-188.53 275.66,-186.02 276.35,-192.99"/>
</g>
<!-- conflict_data&#45;&gt;mu_sub_exp -->
<g id="edge19" class="edge">
<title>conflict_data&#45;&gt;mu_sub_exp</title>
<path fill="none" stroke="black" d="M176.82,-684.71C170.91,-637.12 163.9,-538.04 193.98,-462.13 197.79,-452.53 203.66,-443.33 210.15,-435.06"/>
<polygon fill="black" stroke="black" points="212.64,-437.54 216.39,-427.63 207.28,-433.04 212.64,-437.54"/>
</g>
<!-- conflict_data&#45;&gt;mu_fam_int -->
<g id="edge32" class="edge">
<title>conflict_data&#45;&gt;mu_fam_int</title>
<path fill="none" stroke="black" d="M220.89,-684.56C226.89,-680.56 233.05,-676.58 238.98,-672.95 258.64,-660.92 280.72,-648.6 300.35,-638.03"/>
<polygon fill="black" stroke="black" points="301.87,-641.19 309.04,-633.39 298.57,-635.02 301.87,-641.19"/>
</g>
<!-- fam_int&#45;&gt;mu_dev_peer -->
<g id="edge25" class="edge">
<title>fam_int&#45;&gt;mu_dev_peer</title>
<path fill="none" stroke="black" d="M290,-470.21C300.28,-459.02 311.92,-446.35 322.53,-434.8"/>
<polygon fill="black" stroke="black" points="324.83,-437.47 329.02,-427.73 319.68,-432.73 324.83,-437.47"/>
</g>
<!-- fam_int&#45;&gt;mu_sub_disorder -->
<g id="edge14" class="edge">
<title>fam_int&#45;&gt;mu_sub_disorder</title>
<path fill="none" stroke="black" d="M227.98,-473.31C215.14,-460.29 201.68,-443.83 193.98,-426.13 162.94,-354.79 141.46,-315.81 184.98,-251.32 205.42,-221.03 242.93,-205.13 276.27,-196.78"/>
<polygon fill="black" stroke="black" points="276.95,-200.22 285.91,-194.57 275.38,-193.39 276.95,-200.22"/>
</g>
<!-- fam_int&#45;&gt;mu_sub_exp -->
<g id="edge15" class="edge">
<title>fam_int&#45;&gt;mu_sub_exp</title>
<path fill="none" stroke="black" d="M255.99,-462.11C254.99,-454.15 253.94,-445.79 252.94,-437.84"/>
<polygon fill="black" stroke="black" points="256.44,-437.56 251.72,-428.07 249.49,-438.43 256.44,-437.56"/>
</g>
<!-- intercept_sd -->
<g id="node11" class="node">
<title>intercept_sd</title>
<ellipse fill="none" stroke="black" cx="57.98" cy="-291.98" rx="57.98" ry="40.66"/>
<text xml:space="preserve" text-anchor="middle" x="57.98" y="-303.43" font-family="Times,serif" font-size="14.00">intercept_sd</text>
<text xml:space="preserve" text-anchor="middle" x="57.98" y="-286.93" font-family="Times,serif" font-size="14.00">~</text>
<text xml:space="preserve" text-anchor="middle" x="57.98" y="-270.43" font-family="Times,serif" font-size="14.00">Normal</text>
</g>
<!-- intercept_sd&#45;&gt;mu_sub_disorder -->
<g id="edge4" class="edge">
<title>intercept_sd&#45;&gt;mu_sub_disorder</title>
<path fill="none" stroke="black" d="M99.43,-263.04C106.76,-258.76 114.46,-254.66 121.98,-251.32 171.95,-229.14 231.67,-212.45 276.43,-201.72"/>
<polygon fill="black" stroke="black" points="277.07,-205.17 286,-199.47 275.46,-198.35 277.07,-205.17"/>
</g>
<!-- beta_gender_fi -->
<g id="node12" class="node">
<title>beta_gender_fi</title>
<ellipse fill="none" stroke="black" cx="485.98" cy="-713.61" rx="68.59" ry="40.66"/>
<text xml:space="preserve" text-anchor="middle" x="485.98" y="-725.06" font-family="Times,serif" font-size="14.00">beta_gender_fi</text>
<text xml:space="preserve" text-anchor="middle" x="485.98" y="-708.56" font-family="Times,serif" font-size="14.00">~</text>
<text xml:space="preserve" text-anchor="middle" x="485.98" y="-692.06" font-family="Times,serif" font-size="14.00">Normal</text>
</g>
<!-- beta_gender_fi&#45;&gt;mu_fam_int -->
<g id="edge31" class="edge">
<title>beta_gender_fi&#45;&gt;mu_fam_int</title>
<path fill="none" stroke="black" d="M445.56,-680.46C431.12,-668.97 414.78,-655.97 400.04,-644.25"/>
<polygon fill="black" stroke="black" points="402.3,-641.57 392.29,-638.08 397.94,-647.05 402.3,-641.57"/>
</g>
<!-- beta_conflict_se -->
<g id="node13" class="node">
<title>beta_conflict_se</title>
<ellipse fill="none" stroke="black" cx="901.98" cy="-502.79" rx="73.89" ry="40.66"/>
<text xml:space="preserve" text-anchor="middle" x="901.98" y="-514.24" font-family="Times,serif" font-size="14.00">beta_conflict_se</text>
<text xml:space="preserve" text-anchor="middle" x="901.98" y="-497.74" font-family="Times,serif" font-size="14.00">~</text>
<text xml:space="preserve" text-anchor="middle" x="901.98" y="-481.24" font-family="Times,serif" font-size="14.00">Normal</text>
</g>
<!-- beta_conflict_se&#45;&gt;mu_sub_exp -->
<g id="edge18" class="edge">
<title>beta_conflict_se&#45;&gt;mu_sub_exp</title>
<path fill="none" stroke="black" d="M850.43,-473.52C840.26,-469 829.48,-464.9 818.98,-462.13 599.84,-404.39 526.21,-485.35 304.44,-426.34"/>
<polygon fill="black" stroke="black" points="305.45,-422.99 294.88,-423.72 303.6,-429.74 305.45,-422.99"/>
</g>
<!-- beta_conflict_sd -->
<g id="node14" class="node">
<title>beta_conflict_sd</title>
<ellipse fill="none" stroke="black" cx="778.98" cy="-291.98" rx="74.42" ry="40.66"/>
<text xml:space="preserve" text-anchor="middle" x="778.98" y="-303.43" font-family="Times,serif" font-size="14.00">beta_conflict_sd</text>
<text xml:space="preserve" text-anchor="middle" x="778.98" y="-286.93" font-family="Times,serif" font-size="14.00">~</text>
<text xml:space="preserve" text-anchor="middle" x="778.98" y="-270.43" font-family="Times,serif" font-size="14.00">Normal</text>
</g>
<!-- beta_conflict_sd&#45;&gt;mu_sub_disorder -->
<g id="edge5" class="edge">
<title>beta_conflict_sd&#45;&gt;mu_sub_disorder</title>
<path fill="none" stroke="black" d="M725.6,-263.23C715.61,-258.78 705.12,-254.57 694.98,-251.32 598.28,-220.33 481.52,-202.92 409.76,-194.38"/>
<polygon fill="black" stroke="black" points="410.48,-190.94 400.15,-193.26 409.68,-197.9 410.48,-190.94"/>
</g>
<!-- intercept_se -->
<g id="node15" class="node">
<title>intercept_se</title>
<ellipse fill="none" stroke="black" cx="473.98" cy="-502.79" rx="57.45" ry="40.66"/>
<text xml:space="preserve" text-anchor="middle" x="473.98" y="-514.24" font-family="Times,serif" font-size="14.00">intercept_se</text>
<text xml:space="preserve" text-anchor="middle" x="473.98" y="-497.74" font-family="Times,serif" font-size="14.00">~</text>
<text xml:space="preserve" text-anchor="middle" x="473.98" y="-481.24" font-family="Times,serif" font-size="14.00">Normal</text>
</g>
<!-- intercept_se&#45;&gt;mu_sub_exp -->
<g id="edge20" class="edge">
<title>intercept_se&#45;&gt;mu_sub_exp</title>
<path fill="none" stroke="black" d="M433.49,-473.39C426.81,-469.31 419.82,-465.4 412.98,-462.13 369.19,-441.25 352.1,-445.37 303.84,-426.6"/>
<polygon fill="black" stroke="black" points="305.39,-423.45 294.81,-422.95 302.77,-429.94 305.39,-423.45"/>
</g>
<!-- beta_fi_dp -->
<g id="node16" class="node">
<title>beta_fi_dp</title>
<ellipse fill="none" stroke="black" cx="1512.98" cy="-502.79" rx="52.15" ry="40.66"/>
<text xml:space="preserve" text-anchor="middle" x="1512.98" y="-514.24" font-family="Times,serif" font-size="14.00">beta_fi_dp</text>
<text xml:space="preserve" text-anchor="middle" x="1512.98" y="-497.74" font-family="Times,serif" font-size="14.00">~</text>
<text xml:space="preserve" text-anchor="middle" x="1512.98" y="-481.24" font-family="Times,serif" font-size="14.00">Normal</text>
</g>
<!-- beta_fi_dp&#45;&gt;mu_dev_peer -->
<g id="edge26" class="edge">
<title>beta_fi_dp&#45;&gt;mu_dev_peer</title>
<path fill="none" stroke="black" d="M1476.14,-473.58C1468.51,-468.99 1460.26,-464.85 1451.98,-462.13 1256.22,-397.85 609.36,-396.68 413,-397.87"/>
<polygon fill="black" stroke="black" points="413.03,-394.37 403.05,-397.93 413.08,-401.37 413.03,-394.37"/>
</g>
<!-- beta_conflict_dp -->
<g id="node17" class="node">
<title>beta_conflict_dp</title>
<ellipse fill="none" stroke="black" cx="1068.98" cy="-502.79" rx="75.48" ry="40.66"/>
<text xml:space="preserve" text-anchor="middle" x="1068.98" y="-514.24" font-family="Times,serif" font-size="14.00">beta_conflict_dp</text>
<text xml:space="preserve" text-anchor="middle" x="1068.98" y="-497.74" font-family="Times,serif" font-size="14.00">~</text>
<text xml:space="preserve" text-anchor="middle" x="1068.98" y="-481.24" font-family="Times,serif" font-size="14.00">Normal</text>
</g>
<!-- beta_conflict_dp&#45;&gt;mu_dev_peer -->
<g id="edge22" class="edge">
<title>beta_conflict_dp&#45;&gt;mu_dev_peer</title>
<path fill="none" stroke="black" d="M1016.26,-473.59C1006.11,-469.12 995.39,-465.03 984.98,-462.13 779.94,-405.15 524.68,-397.92 412.89,-397.76"/>
<polygon fill="black" stroke="black" points="413.08,-394.26 403.08,-397.77 413.08,-401.26 413.08,-394.26"/>
</g>
<!-- beta_conflict_fi -->
<g id="node18" class="node">
<title>beta_conflict_fi</title>
<ellipse fill="none" stroke="black" cx="643.98" cy="-713.61" rx="71.77" ry="40.66"/>
<text xml:space="preserve" text-anchor="middle" x="643.98" y="-725.06" font-family="Times,serif" font-size="14.00">beta_conflict_fi</text>
<text xml:space="preserve" text-anchor="middle" x="643.98" y="-708.56" font-family="Times,serif" font-size="14.00">~</text>
<text xml:space="preserve" text-anchor="middle" x="643.98" y="-692.06" font-family="Times,serif" font-size="14.00">Normal</text>
</g>
<!-- beta_conflict_fi&#45;&gt;mu_fam_int -->
<g id="edge29" class="edge">
<title>beta_conflict_fi&#45;&gt;mu_fam_int</title>
<path fill="none" stroke="black" d="M592.04,-685.34C582.81,-680.93 573.2,-676.62 563.98,-672.95 513.73,-652.95 454.61,-635.38 412.27,-623.77"/>
<polygon fill="black" stroke="black" points="413.37,-620.45 402.8,-621.21 411.54,-627.2 413.37,-620.45"/>
</g>
<!-- intercept_fi -->
<g id="node19" class="node">
<title>intercept_fi</title>
<ellipse fill="none" stroke="black" cx="788.98" cy="-713.61" rx="55.33" ry="40.66"/>
<text xml:space="preserve" text-anchor="middle" x="788.98" y="-725.06" font-family="Times,serif" font-size="14.00">intercept_fi</text>
<text xml:space="preserve" text-anchor="middle" x="788.98" y="-708.56" font-family="Times,serif" font-size="14.00">~</text>
<text xml:space="preserve" text-anchor="middle" x="788.98" y="-692.06" font-family="Times,serif" font-size="14.00">Normal</text>
</g>
<!-- intercept_fi&#45;&gt;mu_fam_int -->
<g id="edge30" class="edge">
<title>intercept_fi&#45;&gt;mu_fam_int</title>
<path fill="none" stroke="black" d="M749.23,-684.76C741.46,-680.26 733.17,-676.06 724.98,-672.95 619.26,-632.81 486.85,-617.78 412.83,-612.28"/>
<polygon fill="black" stroke="black" points="413.19,-608.8 402.97,-611.58 412.7,-615.78 413.19,-608.8"/>
</g>
<!-- beta_fi_se -->
<g id="node20" class="node">
<title>beta_fi_se</title>
<ellipse fill="none" stroke="black" cx="599.98" cy="-502.79" rx="50.56" ry="40.66"/>
<text xml:space="preserve" text-anchor="middle" x="599.98" y="-514.24" font-family="Times,serif" font-size="14.00">beta_fi_se</text>
<text xml:space="preserve" text-anchor="middle" x="599.98" y="-497.74" font-family="Times,serif" font-size="14.00">~</text>
<text xml:space="preserve" text-anchor="middle" x="599.98" y="-481.24" font-family="Times,serif" font-size="14.00">Normal</text>
</g>
<!-- beta_fi_se&#45;&gt;mu_sub_exp -->
<g id="edge17" class="edge">
<title>beta_fi_se&#45;&gt;mu_sub_exp</title>
<path fill="none" stroke="black" d="M563.58,-474.17C556.09,-469.53 548.02,-465.23 539.98,-462.13 443.44,-425.01 406.27,-456.75 304.25,-426.4"/>
<polygon fill="black" stroke="black" points="305.54,-423.14 294.95,-423.5 303.45,-429.82 305.54,-423.14"/>
</g>
<!-- beta_gender_dp -->
<g id="node21" class="node">
<title>beta_gender_dp</title>
<ellipse fill="none" stroke="black" cx="1234.98" cy="-502.79" rx="72.3" ry="40.66"/>
<text xml:space="preserve" text-anchor="middle" x="1234.98" y="-514.24" font-family="Times,serif" font-size="14.00">beta_gender_dp</text>
<text xml:space="preserve" text-anchor="middle" x="1234.98" y="-497.74" font-family="Times,serif" font-size="14.00">~</text>
<text xml:space="preserve" text-anchor="middle" x="1234.98" y="-481.24" font-family="Times,serif" font-size="14.00">Normal</text>
</g>
<!-- beta_gender_dp&#45;&gt;mu_dev_peer -->
<g id="edge23" class="edge">
<title>beta_gender_dp&#45;&gt;mu_dev_peer</title>
<path fill="none" stroke="black" d="M1184.06,-473.6C1174.01,-469.07 1163.36,-464.95 1152.98,-462.13 1013.06,-424.14 570.8,-405.7 412.79,-400.21"/>
<polygon fill="black" stroke="black" points="413.1,-396.71 402.98,-399.87 412.86,-403.71 413.1,-396.71"/>
</g>
<!-- beta_dp_sd -->
<g id="node22" class="node">
<title>beta_dp_sd</title>
<ellipse fill="none" stroke="black" cx="925.98" cy="-291.98" rx="54.8" ry="40.66"/>
<text xml:space="preserve" text-anchor="middle" x="925.98" y="-303.43" font-family="Times,serif" font-size="14.00">beta_dp_sd</text>
<text xml:space="preserve" text-anchor="middle" x="925.98" y="-286.93" font-family="Times,serif" font-size="14.00">~</text>
<text xml:space="preserve" text-anchor="middle" x="925.98" y="-270.43" font-family="Times,serif" font-size="14.00">Normal</text>
</g>
<!-- beta_dp_sd&#45;&gt;mu_sub_disorder -->
<g id="edge7" class="edge">
<title>beta_dp_sd&#45;&gt;mu_sub_disorder</title>
<path fill="none" stroke="black" d="M887.04,-263.2C879.06,-258.57 870.49,-254.31 861.98,-251.32 706.56,-196.6 510.63,-187.43 409.77,-186.72"/>
<polygon fill="black" stroke="black" points="410.06,-183.22 400.05,-186.68 410.04,-190.22 410.06,-183.22"/>
</g>
<!-- beta_fi_sd -->
<g id="node23" class="node">
<title>beta_fi_sd</title>
<ellipse fill="none" stroke="black" cx="1049.98" cy="-291.98" rx="51.09" ry="40.66"/>
<text xml:space="preserve" text-anchor="middle" x="1049.98" y="-303.43" font-family="Times,serif" font-size="14.00">beta_fi_sd</text>
<text xml:space="preserve" text-anchor="middle" x="1049.98" y="-286.93" font-family="Times,serif" font-size="14.00">~</text>
<text xml:space="preserve" text-anchor="middle" x="1049.98" y="-270.43" font-family="Times,serif" font-size="14.00">Normal</text>
</g>
<!-- beta_fi_sd&#45;&gt;mu_sub_disorder -->
<g id="edge10" class="edge">
<title>beta_fi_sd&#45;&gt;mu_sub_disorder</title>
<path fill="none" stroke="black" d="M1013.71,-263.02C1006.2,-258.41 998.1,-254.2 989.98,-251.32 884.22,-213.77 552.35,-196.09 409.48,-190.07"/>
<polygon fill="black" stroke="black" points="409.94,-186.58 399.81,-189.66 409.65,-193.58 409.94,-186.58"/>
</g>
<!-- beta_se_sd -->
<g id="node24" class="node">
<title>beta_se_sd</title>
<ellipse fill="none" stroke="black" cx="472.98" cy="-291.98" rx="53.21" ry="40.66"/>
<text xml:space="preserve" text-anchor="middle" x="472.98" y="-303.43" font-family="Times,serif" font-size="14.00">beta_se_sd</text>
<text xml:space="preserve" text-anchor="middle" x="472.98" y="-286.93" font-family="Times,serif" font-size="14.00">~</text>
<text xml:space="preserve" text-anchor="middle" x="472.98" y="-270.43" font-family="Times,serif" font-size="14.00">Normal</text>
</g>
<!-- beta_se_sd&#45;&gt;mu_sub_disorder -->
<g id="edge13" class="edge">
<title>beta_se_sd&#45;&gt;mu_sub_disorder</title>
<path fill="none" stroke="black" d="M436.42,-261.9C421.09,-249.7 403.13,-235.41 387.07,-222.63"/>
<polygon fill="black" stroke="black" points="389.56,-220.14 379.55,-216.66 385.2,-225.62 389.56,-220.14"/>
</g>
<!-- beta_gender_sd -->
<g id="node25" class="node">
<title>beta_gender_sd</title>
<ellipse fill="none" stroke="black" cx="614.98" cy="-291.98" rx="71.24" ry="40.66"/>
<text xml:space="preserve" text-anchor="middle" x="614.98" y="-303.43" font-family="Times,serif" font-size="14.00">beta_gender_sd</text>
<text xml:space="preserve" text-anchor="middle" x="614.98" y="-286.93" font-family="Times,serif" font-size="14.00">~</text>
<text xml:space="preserve" text-anchor="middle" x="614.98" y="-270.43" font-family="Times,serif" font-size="14.00">Normal</text>
</g>
<!-- beta_gender_sd&#45;&gt;mu_sub_disorder -->
<g id="edge9" class="edge">
<title>beta_gender_sd&#45;&gt;mu_sub_disorder</title>
<path fill="none" stroke="black" d="M562.97,-263.89C553.74,-259.46 544.16,-255.09 534.98,-251.32 493.89,-234.41 446.52,-218.64 409.12,-207.02"/>
<polygon fill="black" stroke="black" points="410.38,-203.75 399.79,-204.15 408.32,-210.44 410.38,-203.75"/>
</g>
<!-- intercept_dp -->
<g id="node26" class="node">
<title>intercept_dp</title>
<ellipse fill="none" stroke="black" cx="1383.98" cy="-502.79" rx="59.04" ry="40.66"/>
<text xml:space="preserve" text-anchor="middle" x="1383.98" y="-514.24" font-family="Times,serif" font-size="14.00">intercept_dp</text>
<text xml:space="preserve" text-anchor="middle" x="1383.98" y="-497.74" font-family="Times,serif" font-size="14.00">~</text>
<text xml:space="preserve" text-anchor="middle" x="1383.98" y="-481.24" font-family="Times,serif" font-size="14.00">Normal</text>
</g>
<!-- intercept_dp&#45;&gt;mu_dev_peer -->
<g id="edge27" class="edge">
<title>intercept_dp&#45;&gt;mu_dev_peer</title>
<path fill="none" stroke="black" d="M1342.57,-473.64C1334.1,-469.05 1325,-464.9 1315.98,-462.13 1145.54,-409.94 591.98,-400.47 412.63,-398.76"/>
<polygon fill="black" stroke="black" points="412.91,-395.26 402.88,-398.67 412.85,-402.26 412.91,-395.26"/>
</g>
<!-- beta_gender_se -->
<g id="node27" class="node">
<title>beta_gender_se</title>
<ellipse fill="none" stroke="black" cx="738.98" cy="-502.79" rx="70.71" ry="40.66"/>
<text xml:space="preserve" text-anchor="middle" x="738.98" y="-514.24" font-family="Times,serif" font-size="14.00">beta_gender_se</text>
<text xml:space="preserve" text-anchor="middle" x="738.98" y="-497.74" font-family="Times,serif" font-size="14.00">~</text>
<text xml:space="preserve" text-anchor="middle" x="738.98" y="-481.24" font-family="Times,serif" font-size="14.00">Normal</text>
</g>
<!-- beta_gender_se&#45;&gt;mu_sub_exp -->
<g id="edge16" class="edge">
<title>beta_gender_se&#45;&gt;mu_sub_exp</title>
<path fill="none" stroke="black" d="M689.53,-473.55C679.97,-469.09 669.86,-465 659.98,-462.13 509.87,-418.52 457.68,-469.1 304.19,-426.32"/>
<polygon fill="black" stroke="black" points="305.48,-423.05 294.91,-423.64 303.54,-429.77 305.48,-423.05"/>
</g>
</g>
</svg>
