<?xml version="1.0" encoding="UTF-8" standalone="no"?>
<!DOCTYPE svg PUBLIC "-//W3C//DTD SVG 1.1//EN"
 "http://www.w3.org/Graphics/SVG/1.1/DTD/svg11.dtd">
<!-- Generated by graphviz version 8.0.5 (20230430.1635)
 -->
<!-- Pages: 1 -->
<svg width="198pt" height="247pt"
 viewBox="0.00 0.00 198.27 247.13" xmlns="http://www.w3.org/2000/svg" xmlns:xlink="http://www.w3.org/1999/xlink">
<g id="graph0" class="graph" transform="scale(1 1) rotate(0) translate(4 243.13)">
<polygon fill="white" stroke="none" points="-4,4 -4,-243.13 194.27,-243.13 194.27,4 -4,4"/>
<g id="clust1" class="cluster">
<title>clusteranytest_obs (1739)</title>
<path fill="none" stroke="black" d="M50.25,-8C50.25,-8 145.25,-8 145.25,-8 151.25,-8 157.25,-14 157.25,-20 157.25,-20 157.25,-117.82 157.25,-117.82 157.25,-123.82 151.25,-129.82 145.25,-129.82 145.25,-129.82 50.25,-129.82 50.25,-129.82 44.25,-129.82 38.25,-123.82 38.25,-117.82 38.25,-117.82 38.25,-20 38.25,-20 38.25,-14 44.25,-8 50.25,-8"/>
<text text-anchor="middle" x="97.5" y="-15.2" font-family="Times,serif" font-size="14.00">anytest_obs (1739)</text>
</g>
<!-- Intercept -->
<g id="node1" class="node">
<title>Intercept</title>
<ellipse fill="none" stroke="black" cx="45.25" cy="-198.48" rx="45.25" ry="40.66"/>
<text text-anchor="middle" x="45.25" y="-209.93" font-family="Times,serif" font-size="14.00">Intercept</text>
<text text-anchor="middle" x="45.25" y="-193.43" font-family="Times,serif" font-size="14.00">~</text>
<text text-anchor="middle" x="45.25" y="-176.93" font-family="Times,serif" font-size="14.00">Normal</text>
</g>
<!-- anytest -->
<g id="node3" class="node">
<title>anytest</title>
<ellipse fill="lightgrey" stroke="black" cx="97.25" cy="-81.16" rx="47.38" ry="40.66"/>
<text text-anchor="middle" x="97.25" y="-92.61" font-family="Times,serif" font-size="14.00">anytest</text>
<text text-anchor="middle" x="97.25" y="-76.11" font-family="Times,serif" font-size="14.00">~</text>
<text text-anchor="middle" x="97.25" y="-59.61" font-family="Times,serif" font-size="14.00">Bernoulli</text>
</g>
<!-- Intercept&#45;&gt;anytest -->
<g id="edge1" class="edge">
<title>Intercept&#45;&gt;anytest</title>
<path fill="none" stroke="black" d="M61.99,-160.35C66.45,-150.47 71.32,-139.67 75.98,-129.33"/>
<polygon fill="black" stroke="black" points="79.45,-131.16 80.37,-120.61 73.07,-128.28 79.45,-131.16"/>
</g>
<!-- tx -->
<g id="node2" class="node">
<title>tx</title>
<ellipse fill="none" stroke="black" cx="149.25" cy="-198.48" rx="41.01" ry="40.66"/>
<text text-anchor="middle" x="149.25" y="-209.93" font-family="Times,serif" font-size="14.00">tx</text>
<text text-anchor="middle" x="149.25" y="-193.43" font-family="Times,serif" font-size="14.00">~</text>
<text text-anchor="middle" x="149.25" y="-176.93" font-family="Times,serif" font-size="14.00">Normal</text>
</g>
<!-- tx&#45;&gt;anytest -->
<g id="edge2" class="edge">
<title>tx&#45;&gt;anytest</title>
<path fill="none" stroke="black" d="M132.8,-160.99C128.29,-150.99 123.34,-140 118.6,-129.49"/>
<polygon fill="black" stroke="black" points="121.44,-128.28 114.14,-120.6 115.06,-131.15 121.44,-128.28"/>
</g>
</g>
</svg>
