<?xml version="1.0" encoding="UTF-8" standalone="no"?>
<!DOCTYPE svg PUBLIC "-//W3C//DTD SVG 1.1//EN"
 "http://www.w3.org/Graphics/SVG/1.1/DTD/svg11.dtd">
<!-- Generated by graphviz version 8.0.5 (20230430.1635)
 -->
<!-- Pages: 1 -->
<svg width="349pt" height="247pt"
 viewBox="0.00 0.00 348.72 247.13" xmlns="http://www.w3.org/2000/svg" xmlns:xlink="http://www.w3.org/1999/xlink">
<g id="graph0" class="graph" transform="scale(1 1) rotate(0) translate(4 243.13)">
<polygon fill="white" stroke="none" points="-4,4 -4,-243.13 344.72,-243.13 344.72,4 -4,4"/>
<g id="clust1" class="cluster">
<title>clusteranytest_obs (1739)</title>
<path fill="none" stroke="black" d="M102.25,-8C102.25,-8 197.25,-8 197.25,-8 203.25,-8 209.25,-14 209.25,-20 209.25,-20 209.25,-117.82 209.25,-117.82 209.25,-123.82 203.25,-129.82 197.25,-129.82 197.25,-129.82 102.25,-129.82 102.25,-129.82 96.25,-129.82 90.25,-123.82 90.25,-117.82 90.25,-117.82 90.25,-20 90.25,-20 90.25,-14 96.25,-8 102.25,-8"/>
<text text-anchor="middle" x="149.5" y="-15.2" font-family="Times,serif" font-size="14.00">anytest_obs (1739)</text>
</g>
<!-- Intercept -->
<g id="node1" class="node">
<title>Intercept</title>
<ellipse fill="none" stroke="black" cx="45.25" cy="-198.48" rx="45.25" ry="40.66"/>
<text text-anchor="middle" x="45.25" y="-209.93" font-family="Times,serif" font-size="14.00">Intercept</text>
<text text-anchor="middle" x="45.25" y="-193.43" font-family="Times,serif" font-size="14.00">~</text>
<text text-anchor="middle" x="45.25" y="-176.93" font-family="Times,serif" font-size="14.00">Normal</text>
</g>
<!-- anytest -->
<g id="node4" class="node">
<title>anytest</title>
<ellipse fill="lightgrey" stroke="black" cx="149.25" cy="-81.16" rx="41.01" ry="40.66"/>
<text text-anchor="middle" x="149.25" y="-92.61" font-family="Times,serif" font-size="14.00">anytest</text>
<text text-anchor="middle" x="149.25" y="-76.11" font-family="Times,serif" font-size="14.00">~</text>
<text text-anchor="middle" x="149.25" y="-59.61" font-family="Times,serif" font-size="14.00">Normal</text>
</g>
<!-- Intercept&#45;&gt;anytest -->
<g id="edge1" class="edge">
<title>Intercept&#45;&gt;anytest</title>
<path fill="none" stroke="black" d="M73.4,-166.27C86.19,-152.09 101.44,-135.18 114.9,-120.25"/>
<polygon fill="black" stroke="black" points="117.07,-122.97 121.17,-113.2 111.87,-118.28 117.07,-122.97"/>
</g>
<!-- tx -->
<g id="node2" class="node">
<title>tx</title>
<ellipse fill="none" stroke="black" cx="149.25" cy="-198.48" rx="41.01" ry="40.66"/>
<text text-anchor="middle" x="149.25" y="-209.93" font-family="Times,serif" font-size="14.00">tx</text>
<text text-anchor="middle" x="149.25" y="-193.43" font-family="Times,serif" font-size="14.00">~</text>
<text text-anchor="middle" x="149.25" y="-176.93" font-family="Times,serif" font-size="14.00">Normal</text>
</g>
<!-- tx&#45;&gt;anytest -->
<g id="edge2" class="edge">
<title>tx&#45;&gt;anytest</title>
<path fill="none" stroke="black" d="M149.25,-157.47C149.25,-149.6 149.25,-141.24 149.25,-133.07"/>
<polygon fill="black" stroke="black" points="152.75,-133.1 149.25,-123.1 145.75,-133.1 152.75,-133.1"/>
</g>
<!-- anytest_sigma -->
<g id="node3" class="node">
<title>anytest_sigma</title>
<ellipse fill="none" stroke="black" cx="274.25" cy="-198.48" rx="66.47" ry="40.66"/>
<text text-anchor="middle" x="274.25" y="-209.93" font-family="Times,serif" font-size="14.00">anytest_sigma</text>
<text text-anchor="middle" x="274.25" y="-193.43" font-family="Times,serif" font-size="14.00">~</text>
<text text-anchor="middle" x="274.25" y="-176.93" font-family="Times,serif" font-size="14.00">Exponential</text>
</g>
<!-- anytest_sigma&#45;&gt;anytest -->
<g id="edge3" class="edge">
<title>anytest_sigma&#45;&gt;anytest</title>
<path fill="none" stroke="black" d="M238.1,-164.12C221.99,-149.26 203.02,-131.76 186.75,-116.75"/>
<polygon fill="black" stroke="black" points="189.74,-114.82 180.01,-110.61 184.99,-119.96 189.74,-114.82"/>
</g>
</g>
</svg>
