<?xml version="1.0" encoding="UTF-8" standalone="no"?>
<!DOCTYPE svg PUBLIC "-//W3C//DTD SVG 1.1//EN"
 "http://www.w3.org/Graphics/SVG/1.1/DTD/svg11.dtd">
<!-- Generated by graphviz version 9.0.0 (20230911.1827)
 -->
<!-- Pages: 1 -->
<svg width="1833pt" height="792pt"
 viewBox="0.00 0.00 1833.00 791.77" xmlns="http://www.w3.org/2000/svg" xmlns:xlink="http://www.w3.org/1999/xlink">
<g id="graph0" class="graph" transform="scale(1 1) rotate(0) translate(4 787.77)">
<polygon fill="white" stroke="none" points="-4,4 -4,-787.77 1829,-787.77 1829,4 -4,4"/>
<g id="clust1" class="cluster">
<title>clusterdate (131)</title>
<path fill="none" stroke="black" d="M20,-8C20,-8 358,-8 358,-8 364,-8 370,-14 370,-20 370,-20 370,-536.54 370,-536.54 370,-542.54 364,-548.54 358,-548.54 358,-548.54 20,-548.54 20,-548.54 14,-548.54 8,-542.54 8,-536.54 8,-536.54 8,-20 8,-20 8,-14 14,-8 20,-8"/>
<text text-anchor="middle" x="334.25" y="-15.2" font-family="Times,serif" font-size="14.00">date (131)</text>
</g>
<g id="clust2" class="cluster">
<title>clusterdate (131) x channel (2)</title>
<path fill="none" stroke="black" d="M1318,-340.63C1318,-340.63 1472,-340.63 1472,-340.63 1478,-340.63 1484,-346.63 1484,-352.63 1484,-352.63 1484,-751.86 1484,-751.86 1484,-757.86 1478,-763.86 1472,-763.86 1472,-763.86 1318,-763.86 1318,-763.86 1312,-763.86 1306,-757.86 1306,-751.86 1306,-751.86 1306,-352.63 1306,-352.63 1306,-346.63 1312,-340.63 1318,-340.63"/>
<text text-anchor="middle" x="1410.38" y="-347.83" font-family="Times,serif" font-size="14.00">date (131) x channel (2)</text>
</g>
<g id="clust3" class="cluster">
<title>clusterdate (131) x fourier_mode (6)</title>
<path fill="none" stroke="black" d="M390,-450.54C390,-450.54 545,-450.54 545,-450.54 551,-450.54 557,-456.54 557,-462.54 557,-462.54 557,-536.54 557,-536.54 557,-542.54 551,-548.54 545,-548.54 545,-548.54 390,-548.54 390,-548.54 384,-548.54 378,-542.54 378,-536.54 378,-536.54 378,-462.54 378,-462.54 378,-456.54 384,-450.54 390,-450.54"/>
<text text-anchor="middle" x="467.25" y="-457.74" font-family="Times,serif" font-size="14.00">date (131) x fourier_mode (6)</text>
</g>
<g id="clust4" class="cluster">
<title>clusterchannel (2)</title>
<path fill="none" stroke="black" d="M1504,-653.95C1504,-653.95 1805,-653.95 1805,-653.95 1811,-653.95 1817,-659.95 1817,-665.95 1817,-665.95 1817,-763.77 1817,-763.77 1817,-769.77 1811,-775.77 1805,-775.77 1805,-775.77 1504,-775.77 1504,-775.77 1498,-775.77 1492,-769.77 1492,-763.77 1492,-763.77 1492,-665.95 1492,-665.95 1492,-659.95 1498,-653.95 1504,-653.95"/>
<text text-anchor="middle" x="1778.25" y="-661.15" font-family="Times,serif" font-size="14.00">channel (2)</text>
</g>
<g id="clust5" class="cluster">
<title>clusterfourier_mode (6)</title>
<path fill="none" stroke="black" d="M964,-438.63C964,-438.63 1072,-438.63 1072,-438.63 1078,-438.63 1084,-444.63 1084,-450.63 1084,-450.63 1084,-548.45 1084,-548.45 1084,-554.45 1078,-560.45 1072,-560.45 1072,-560.45 964,-560.45 964,-560.45 958,-560.45 952,-554.45 952,-548.45 952,-548.45 952,-450.63 952,-450.63 952,-444.63 958,-438.63 964,-438.63"/>
<text text-anchor="middle" x="1029.12" y="-445.83" font-family="Times,serif" font-size="14.00">fourier_mode (6)</text>
</g>
<g id="clust6" class="cluster">
<title>cluster20</title>
<path fill="none" stroke="black" d="M1104,-438.63C1104,-438.63 1286,-438.63 1286,-438.63 1292,-438.63 1298,-444.63 1298,-450.63 1298,-450.63 1298,-548.45 1298,-548.45 1298,-554.45 1292,-560.45 1286,-560.45 1286,-560.45 1104,-560.45 1104,-560.45 1098,-560.45 1092,-554.45 1092,-548.45 1092,-548.45 1092,-450.63 1092,-450.63 1092,-444.63 1098,-438.63 1104,-438.63"/>
<text text-anchor="middle" x="1283.25" y="-445.83" font-family="Times,serif" font-size="14.00">20</text>
</g>
<!-- z_scaled -->
<g id="node1" class="node">
<title>z_scaled</title>
<path fill="lightgrey" stroke="black" d="M94.62,-540.54C94.62,-540.54 31.38,-540.54 31.38,-540.54 25.38,-540.54 19.38,-534.54 19.38,-528.54 19.38,-528.54 19.38,-495.04 19.38,-495.04 19.38,-489.04 25.38,-483.04 31.38,-483.04 31.38,-483.04 94.62,-483.04 94.62,-483.04 100.62,-483.04 106.62,-489.04 106.62,-495.04 106.62,-495.04 106.62,-528.54 106.62,-528.54 106.62,-534.54 100.62,-540.54 94.62,-540.54"/>
<text text-anchor="middle" x="63" y="-523.24" font-family="Times,serif" font-size="14.00">z_scaled</text>
<text text-anchor="middle" x="63" y="-506.74" font-family="Times,serif" font-size="14.00">~</text>
<text text-anchor="middle" x="63" y="-490.24" font-family="Times,serif" font-size="14.00">MutableData</text>
</g>
<!-- z_contribution -->
<g id="node3" class="node">
<title>z_contribution</title>
<polygon fill="none" stroke="black" points="110.38,-430.63 15.62,-430.63 15.62,-373.13 110.38,-373.13 110.38,-430.63"/>
<text text-anchor="middle" x="63" y="-413.33" font-family="Times,serif" font-size="14.00">z_contribution</text>
<text text-anchor="middle" x="63" y="-396.83" font-family="Times,serif" font-size="14.00">~</text>
<text text-anchor="middle" x="63" y="-380.33" font-family="Times,serif" font-size="14.00">Deterministic</text>
</g>
<!-- z_scaled&#45;&gt;z_contribution -->
<g id="edge14" class="edge">
<title>z_scaled&#45;&gt;z_contribution</title>
<path fill="none" stroke="black" d="M63,-482.72C63,-470.36 63,-455.62 63,-442.19"/>
<polygon fill="black" stroke="black" points="66.5,-442.33 63,-432.33 59.5,-442.33 66.5,-442.33"/>
</g>
<!-- index_scaled -->
<g id="node2" class="node">
<title>index_scaled</title>
<path fill="lightgrey" stroke="black" d="M348.62,-540.54C348.62,-540.54 285.38,-540.54 285.38,-540.54 279.38,-540.54 273.38,-534.54 273.38,-528.54 273.38,-528.54 273.38,-495.04 273.38,-495.04 273.38,-489.04 279.38,-483.04 285.38,-483.04 285.38,-483.04 348.62,-483.04 348.62,-483.04 354.62,-483.04 360.62,-489.04 360.62,-495.04 360.62,-495.04 360.62,-528.54 360.62,-528.54 360.62,-534.54 354.62,-540.54 348.62,-540.54"/>
<text text-anchor="middle" x="317" y="-523.24" font-family="Times,serif" font-size="14.00">index_scaled</text>
<text text-anchor="middle" x="317" y="-506.74" font-family="Times,serif" font-size="14.00">~</text>
<text text-anchor="middle" x="317" y="-490.24" font-family="Times,serif" font-size="14.00">MutableData</text>
</g>
<!-- f_trend -->
<g id="node8" class="node">
<title>f_trend</title>
<polygon fill="none" stroke="black" points="362.12,-430.63 271.88,-430.63 271.88,-373.13 362.12,-373.13 362.12,-430.63"/>
<text text-anchor="middle" x="317" y="-413.33" font-family="Times,serif" font-size="14.00">f_trend</text>
<text text-anchor="middle" x="317" y="-396.83" font-family="Times,serif" font-size="14.00">~</text>
<text text-anchor="middle" x="317" y="-380.33" font-family="Times,serif" font-size="14.00">Deterministic</text>
</g>
<!-- index_scaled&#45;&gt;f_trend -->
<g id="edge3" class="edge">
<title>index_scaled&#45;&gt;f_trend</title>
<path fill="none" stroke="black" d="M317,-482.72C317,-470.36 317,-455.62 317,-442.19"/>
<polygon fill="black" stroke="black" points="320.5,-442.33 317,-432.33 313.5,-442.33 320.5,-442.33"/>
</g>
<!-- mu -->
<g id="node6" class="node">
<title>mu</title>
<polygon fill="none" stroke="black" points="360.12,-320.73 269.88,-320.73 269.88,-263.23 360.12,-263.23 360.12,-320.73"/>
<text text-anchor="middle" x="315" y="-303.43" font-family="Times,serif" font-size="14.00">mu</text>
<text text-anchor="middle" x="315" y="-286.93" font-family="Times,serif" font-size="14.00">~</text>
<text text-anchor="middle" x="315" y="-270.43" font-family="Times,serif" font-size="14.00">Deterministic</text>
</g>
<!-- z_contribution&#45;&gt;mu -->
<g id="edge16" class="edge">
<title>z_contribution&#45;&gt;mu</title>
<path fill="none" stroke="black" d="M83.13,-372.82C92.76,-361.27 105.2,-348.72 119,-340.63 161.8,-315.54 217.26,-303.63 258.26,-297.99"/>
<polygon fill="black" stroke="black" points="258.44,-301.49 267.91,-296.75 257.55,-294.55 258.44,-301.49"/>
</g>
<!-- fourier_contribution -->
<g id="node4" class="node">
<title>fourier_contribution</title>
<polygon fill="none" stroke="black" points="253.75,-430.63 128.25,-430.63 128.25,-373.13 253.75,-373.13 253.75,-430.63"/>
<text text-anchor="middle" x="191" y="-413.33" font-family="Times,serif" font-size="14.00">fourier_contribution</text>
<text text-anchor="middle" x="191" y="-396.83" font-family="Times,serif" font-size="14.00">~</text>
<text text-anchor="middle" x="191" y="-380.33" font-family="Times,serif" font-size="14.00">Deterministic</text>
</g>
<!-- fourier_contribution&#45;&gt;mu -->
<g id="edge18" class="edge">
<title>fourier_contribution&#45;&gt;mu</title>
<path fill="none" stroke="black" d="M223.26,-372.81C238.9,-359.2 257.85,-342.71 274.46,-328.25"/>
<polygon fill="black" stroke="black" points="276.52,-331.1 281.76,-321.9 271.92,-325.82 276.52,-331.1"/>
</g>
<!-- y -->
<g id="node5" class="node">
<title>y</title>
<ellipse fill="lightgrey" stroke="black" cx="316" cy="-174.66" rx="46.32" ry="40.66"/>
<text text-anchor="middle" x="316" y="-186.11" font-family="Times,serif" font-size="14.00">y</text>
<text text-anchor="middle" x="316" y="-169.61" font-family="Times,serif" font-size="14.00">~</text>
<text text-anchor="middle" x="316" y="-153.11" font-family="Times,serif" font-size="14.00">StudentT</text>
</g>
<!-- y_scaled -->
<g id="node7" class="node">
<title>y_scaled</title>
<path fill="lightgrey" stroke="black" d="M347.62,-98C347.62,-98 284.38,-98 284.38,-98 278.38,-98 272.38,-92 272.38,-86 272.38,-86 272.38,-52.5 272.38,-52.5 272.38,-46.5 278.38,-40.5 284.38,-40.5 284.38,-40.5 347.62,-40.5 347.62,-40.5 353.62,-40.5 359.62,-46.5 359.62,-52.5 359.62,-52.5 359.62,-86 359.62,-86 359.62,-92 353.62,-98 347.62,-98"/>
<text text-anchor="middle" x="316" y="-80.7" font-family="Times,serif" font-size="14.00">y_scaled</text>
<text text-anchor="middle" x="316" y="-64.2" font-family="Times,serif" font-size="14.00">~</text>
<text text-anchor="middle" x="316" y="-47.7" font-family="Times,serif" font-size="14.00">MutableData</text>
</g>
<!-- y&#45;&gt;y_scaled -->
<g id="edge1" class="edge">
<title>y&#45;&gt;y_scaled</title>
<path fill="none" stroke="black" d="M316,-133.68C316,-125.83 316,-117.6 316,-109.76"/>
<polygon fill="black" stroke="black" points="319.5,-109.79 316,-99.79 312.5,-109.79 319.5,-109.79"/>
</g>
<!-- mu&#45;&gt;y -->
<g id="edge20" class="edge">
<title>mu&#45;&gt;y</title>
<path fill="none" stroke="black" d="M315.24,-262.77C315.34,-251.94 315.45,-239.23 315.56,-226.91"/>
<polygon fill="black" stroke="black" points="319.05,-227.31 315.64,-217.28 312.05,-227.25 319.05,-227.31"/>
</g>
<!-- f_trend&#45;&gt;mu -->
<g id="edge19" class="edge">
<title>f_trend&#45;&gt;mu</title>
<path fill="none" stroke="black" d="M316.48,-372.81C316.25,-360.45 315.98,-345.71 315.73,-332.28"/>
<polygon fill="black" stroke="black" points="319.23,-332.35 315.55,-322.42 312.23,-332.48 319.23,-332.35"/>
</g>
<!-- channel_adstock -->
<g id="node9" class="node">
<title>channel_adstock</title>
<polygon fill="none" stroke="black" points="1462,-645.95 1356,-645.95 1356,-588.45 1462,-588.45 1462,-645.95"/>
<text text-anchor="middle" x="1409" y="-628.65" font-family="Times,serif" font-size="14.00">channel_adstock</text>
<text text-anchor="middle" x="1409" y="-612.15" font-family="Times,serif" font-size="14.00">~</text>
<text text-anchor="middle" x="1409" y="-595.65" font-family="Times,serif" font-size="14.00">Deterministic</text>
</g>
<!-- channel_adstock_saturated -->
<g id="node10" class="node">
<title>channel_adstock_saturated</title>
<polygon fill="none" stroke="black" points="1475.75,-540.54 1314.25,-540.54 1314.25,-483.04 1475.75,-483.04 1475.75,-540.54"/>
<text text-anchor="middle" x="1395" y="-523.24" font-family="Times,serif" font-size="14.00">channel_adstock_saturated</text>
<text text-anchor="middle" x="1395" y="-506.74" font-family="Times,serif" font-size="14.00">~</text>
<text text-anchor="middle" x="1395" y="-490.24" font-family="Times,serif" font-size="14.00">Deterministic</text>
</g>
<!-- channel_adstock&#45;&gt;channel_adstock_saturated -->
<g id="edge8" class="edge">
<title>channel_adstock&#45;&gt;channel_adstock_saturated</title>
<path fill="none" stroke="black" d="M1405.21,-588.22C1403.7,-577.07 1401.94,-564.04 1400.3,-551.98"/>
<polygon fill="black" stroke="black" points="1403.8,-551.74 1398.99,-542.3 1396.87,-552.68 1403.8,-551.74"/>
</g>
<!-- channel_contributions -->
<g id="node12" class="node">
<title>channel_contributions</title>
<polygon fill="none" stroke="black" points="1463,-430.63 1327,-430.63 1327,-373.13 1463,-373.13 1463,-430.63"/>
<text text-anchor="middle" x="1395" y="-413.33" font-family="Times,serif" font-size="14.00">channel_contributions</text>
<text text-anchor="middle" x="1395" y="-396.83" font-family="Times,serif" font-size="14.00">~</text>
<text text-anchor="middle" x="1395" y="-380.33" font-family="Times,serif" font-size="14.00">Deterministic</text>
</g>
<!-- channel_adstock_saturated&#45;&gt;channel_contributions -->
<g id="edge11" class="edge">
<title>channel_adstock_saturated&#45;&gt;channel_contributions</title>
<path fill="none" stroke="black" d="M1395,-482.72C1395,-470.36 1395,-455.62 1395,-442.19"/>
<polygon fill="black" stroke="black" points="1398.5,-442.33 1395,-432.33 1391.5,-442.33 1398.5,-442.33"/>
</g>
<!-- channels_scaled -->
<g id="node11" class="node">
<title>channels_scaled</title>
<path fill="lightgrey" stroke="black" d="M1448.88,-755.86C1448.88,-755.86 1369.12,-755.86 1369.12,-755.86 1363.12,-755.86 1357.12,-749.86 1357.12,-743.86 1357.12,-743.86 1357.12,-710.36 1357.12,-710.36 1357.12,-704.36 1363.12,-698.36 1369.12,-698.36 1369.12,-698.36 1448.88,-698.36 1448.88,-698.36 1454.88,-698.36 1460.88,-704.36 1460.88,-710.36 1460.88,-710.36 1460.88,-743.86 1460.88,-743.86 1460.88,-749.86 1454.88,-755.86 1448.88,-755.86"/>
<text text-anchor="middle" x="1409" y="-738.56" font-family="Times,serif" font-size="14.00">channels_scaled</text>
<text text-anchor="middle" x="1409" y="-722.06" font-family="Times,serif" font-size="14.00">~</text>
<text text-anchor="middle" x="1409" y="-705.56" font-family="Times,serif" font-size="14.00">MutableData</text>
</g>
<!-- channels_scaled&#45;&gt;channel_adstock -->
<g id="edge7" class="edge">
<title>channels_scaled&#45;&gt;channel_adstock</title>
<path fill="none" stroke="black" d="M1409,-698.04C1409,-685.68 1409,-670.93 1409,-657.5"/>
<polygon fill="black" stroke="black" points="1412.5,-657.64 1409,-647.64 1405.5,-657.64 1412.5,-657.64"/>
</g>
<!-- channel_contributions&#45;&gt;mu -->
<g id="edge17" class="edge">
<title>channel_contributions&#45;&gt;mu</title>
<path fill="none" stroke="black" d="M1326.73,-401.29C1126.82,-401.69 545.71,-397.13 369,-332.63 364.88,-331.13 360.8,-329.21 356.83,-327.02"/>
<polygon fill="black" stroke="black" points="358.92,-324.19 348.57,-321.93 355.25,-330.16 358.92,-324.19"/>
</g>
<!-- fourier_features -->
<g id="node13" class="node">
<title>fourier_features</title>
<path fill="lightgrey" stroke="black" d="M476.12,-540.54C476.12,-540.54 397.88,-540.54 397.88,-540.54 391.88,-540.54 385.88,-534.54 385.88,-528.54 385.88,-528.54 385.88,-495.04 385.88,-495.04 385.88,-489.04 391.88,-483.04 397.88,-483.04 397.88,-483.04 476.12,-483.04 476.12,-483.04 482.12,-483.04 488.12,-489.04 488.12,-495.04 488.12,-495.04 488.12,-528.54 488.12,-528.54 488.12,-534.54 482.12,-540.54 476.12,-540.54"/>
<text text-anchor="middle" x="437" y="-523.24" font-family="Times,serif" font-size="14.00">fourier_features</text>
<text text-anchor="middle" x="437" y="-506.74" font-family="Times,serif" font-size="14.00">~</text>
<text text-anchor="middle" x="437" y="-490.24" font-family="Times,serif" font-size="14.00">MutableData</text>
</g>
<!-- fourier_features&#45;&gt;fourier_contribution -->
<g id="edge12" class="edge">
<title>fourier_features&#45;&gt;fourier_contribution</title>
<path fill="none" stroke="black" d="M420.3,-482.57C409.29,-466.74 393.35,-448.28 374,-438.63 354.12,-428.72 299.84,-434.52 264.91,-430.22"/>
<polygon fill="black" stroke="black" points="265.83,-426.82 255.38,-428.59 264.65,-433.72 265.83,-426.82"/>
</g>
<!-- amplitude_trend -->
<g id="node14" class="node">
<title>amplitude_trend</title>
<ellipse fill="none" stroke="black" cx="739" cy="-511.79" rx="74.42" ry="40.66"/>
<text text-anchor="middle" x="739" y="-523.24" font-family="Times,serif" font-size="14.00">amplitude_trend</text>
<text text-anchor="middle" x="739" y="-506.74" font-family="Times,serif" font-size="14.00">~</text>
<text text-anchor="middle" x="739" y="-490.24" font-family="Times,serif" font-size="14.00">HalfNormal</text>
</g>
<!-- amplitude_trend&#45;&gt;f_trend -->
<g id="edge2" class="edge">
<title>amplitude_trend&#45;&gt;f_trend</title>
<path fill="none" stroke="black" d="M707.21,-474.95C692.96,-461.25 675.08,-446.94 656,-438.63 606.75,-417.21 456.91,-408.19 373.88,-404.76"/>
<polygon fill="black" stroke="black" points="374.03,-401.26 363.9,-404.36 373.75,-408.26 374.03,-401.26"/>
</g>
<!-- ls_trend -->
<g id="node15" class="node">
<title>ls_trend</title>
<ellipse fill="none" stroke="black" cx="887" cy="-511.79" rx="55.33" ry="40.66"/>
<text text-anchor="middle" x="887" y="-523.24" font-family="Times,serif" font-size="14.00">ls_trend</text>
<text text-anchor="middle" x="887" y="-506.74" font-family="Times,serif" font-size="14.00">~</text>
<text text-anchor="middle" x="887" y="-490.24" font-family="Times,serif" font-size="14.00">InvGamma</text>
</g>
<!-- ls_trend&#45;&gt;f_trend -->
<g id="edge4" class="edge">
<title>ls_trend&#45;&gt;f_trend</title>
<path fill="none" stroke="black" d="M863.65,-474.71C852.75,-460.97 838.52,-446.7 822,-438.63 782.59,-419.4 497.74,-408.43 374.06,-404.53"/>
<polygon fill="black" stroke="black" points="374.23,-401.03 364.13,-404.22 374.01,-408.03 374.23,-401.03"/>
</g>
<!-- nu -->
<g id="node16" class="node">
<title>nu</title>
<ellipse fill="none" stroke="black" cx="421" cy="-291.98" rx="42.6" ry="40.66"/>
<text text-anchor="middle" x="421" y="-303.43" font-family="Times,serif" font-size="14.00">nu</text>
<text text-anchor="middle" x="421" y="-286.93" font-family="Times,serif" font-size="14.00">~</text>
<text text-anchor="middle" x="421" y="-270.43" font-family="Times,serif" font-size="14.00">Gamma</text>
</g>
<!-- nu&#45;&gt;y -->
<g id="edge21" class="edge">
<title>nu&#45;&gt;y</title>
<path fill="none" stroke="black" d="M393.41,-260.68C380.82,-246.84 365.73,-230.27 352.23,-215.45"/>
<polygon fill="black" stroke="black" points="354.84,-213.12 345.52,-208.08 349.66,-217.83 354.84,-213.12"/>
</g>
<!-- sigma -->
<g id="node17" class="node">
<title>sigma</title>
<ellipse fill="none" stroke="black" cx="540" cy="-291.98" rx="57.98" ry="40.66"/>
<text text-anchor="middle" x="540" y="-303.43" font-family="Times,serif" font-size="14.00">sigma</text>
<text text-anchor="middle" x="540" y="-286.93" font-family="Times,serif" font-size="14.00">~</text>
<text text-anchor="middle" x="540" y="-270.43" font-family="Times,serif" font-size="14.00">HalfNormal</text>
</g>
<!-- sigma&#45;&gt;y -->
<g id="edge22" class="edge">
<title>sigma&#45;&gt;y</title>
<path fill="none" stroke="black" d="M496.7,-264.62C488.88,-260.06 480.74,-255.47 473,-251.32 438.13,-232.64 397.94,-213.31 366.95,-198.86"/>
<polygon fill="black" stroke="black" points="368.73,-195.83 358.18,-194.8 365.78,-202.18 368.73,-195.83"/>
</g>
<!-- beta_z -->
<g id="node18" class="node">
<title>beta_z</title>
<ellipse fill="none" stroke="black" cx="606" cy="-511.79" rx="41.01" ry="40.66"/>
<text text-anchor="middle" x="606" y="-523.24" font-family="Times,serif" font-size="14.00">beta_z</text>
<text text-anchor="middle" x="606" y="-506.74" font-family="Times,serif" font-size="14.00">~</text>
<text text-anchor="middle" x="606" y="-490.24" font-family="Times,serif" font-size="14.00">Normal</text>
</g>
<!-- beta_z&#45;&gt;z_contribution -->
<g id="edge15" class="edge">
<title>beta_z&#45;&gt;z_contribution</title>
<path fill="none" stroke="black" d="M591.78,-473.45C584.67,-460.05 574.61,-446.35 561,-438.63 541.05,-427.33 193.9,-435.23 121.75,-429.63"/>
<polygon fill="black" stroke="black" points="122.61,-426.21 112.25,-428.41 121.72,-433.15 122.61,-426.21"/>
</g>
<!-- beta_channel -->
<g id="node19" class="node">
<title>beta_channel</title>
<ellipse fill="none" stroke="black" cx="1747" cy="-727.11" rx="61.7" ry="40.66"/>
<text text-anchor="middle" x="1747" y="-738.56" font-family="Times,serif" font-size="14.00">beta_channel</text>
<text text-anchor="middle" x="1747" y="-722.06" font-family="Times,serif" font-size="14.00">~</text>
<text text-anchor="middle" x="1747" y="-705.56" font-family="Times,serif" font-size="14.00">HalfNormal</text>
</g>
<!-- beta_channel&#45;&gt;channel_contributions -->
<g id="edge10" class="edge">
<title>beta_channel&#45;&gt;channel_contributions</title>
<path fill="none" stroke="black" d="M1722.12,-689.4C1679.81,-629.45 1588.31,-510.06 1485,-438.63 1481.19,-436 1477.15,-433.52 1472.99,-431.19"/>
<polygon fill="black" stroke="black" points="1474.91,-428.24 1464.42,-426.72 1471.67,-434.44 1474.91,-428.24"/>
</g>
<!-- lam -->
<g id="node20" class="node">
<title>lam</title>
<ellipse fill="none" stroke="black" cx="1625" cy="-727.11" rx="42.6" ry="40.66"/>
<text text-anchor="middle" x="1625" y="-738.56" font-family="Times,serif" font-size="14.00">lam</text>
<text text-anchor="middle" x="1625" y="-722.06" font-family="Times,serif" font-size="14.00">~</text>
<text text-anchor="middle" x="1625" y="-705.56" font-family="Times,serif" font-size="14.00">Gamma</text>
</g>
<!-- lam&#45;&gt;channel_adstock_saturated -->
<g id="edge9" class="edge">
<title>lam&#45;&gt;channel_adstock_saturated</title>
<path fill="none" stroke="black" d="M1603.25,-691.92C1594.55,-679.38 1583.98,-665.45 1573,-653.95 1534.2,-613.33 1483.48,-574.21 1446.11,-547.5"/>
<polygon fill="black" stroke="black" points="1448.33,-544.79 1438.14,-541.86 1444.28,-550.5 1448.33,-544.79"/>
</g>
<!-- alpha -->
<g id="node21" class="node">
<title>alpha</title>
<ellipse fill="none" stroke="black" cx="1532" cy="-727.11" rx="32" ry="40.66"/>
<text text-anchor="middle" x="1532" y="-738.56" font-family="Times,serif" font-size="14.00">alpha</text>
<text text-anchor="middle" x="1532" y="-722.06" font-family="Times,serif" font-size="14.00">~</text>
<text text-anchor="middle" x="1532" y="-705.56" font-family="Times,serif" font-size="14.00">Beta</text>
</g>
<!-- alpha&#45;&gt;channel_adstock -->
<g id="edge6" class="edge">
<title>alpha&#45;&gt;channel_adstock</title>
<path fill="none" stroke="black" d="M1516.38,-691.43C1509.2,-678.4 1499.65,-664.26 1488,-653.95 1483.16,-649.67 1477.72,-645.82 1472.02,-642.38"/>
<polygon fill="black" stroke="black" points="1474.01,-639.48 1463.57,-637.69 1470.62,-645.6 1474.01,-639.48"/>
</g>
<!-- beta_fourier -->
<g id="node22" class="node">
<title>beta_fourier</title>
<ellipse fill="none" stroke="black" cx="1018" cy="-511.79" rx="57.98" ry="40.66"/>
<text text-anchor="middle" x="1018" y="-523.24" font-family="Times,serif" font-size="14.00">beta_fourier</text>
<text text-anchor="middle" x="1018" y="-506.74" font-family="Times,serif" font-size="14.00">~</text>
<text text-anchor="middle" x="1018" y="-490.24" font-family="Times,serif" font-size="14.00">Normal</text>
</g>
<!-- beta_fourier&#45;&gt;fourier_contribution -->
<g id="edge13" class="edge">
<title>beta_fourier&#45;&gt;fourier_contribution</title>
<path fill="none" stroke="black" d="M994.26,-474.59C982.98,-460.65 968.19,-446.25 951,-438.63 917.83,-423.94 361.55,-436.43 265.55,-429.88"/>
<polygon fill="black" stroke="black" points="266.06,-426.42 255.75,-428.82 265.31,-433.38 266.06,-426.42"/>
</g>
<!-- f_trend_hsgp_coeffs_ -->
<g id="node23" class="node">
<title>f_trend_hsgp_coeffs_</title>
<ellipse fill="none" stroke="black" cx="1195" cy="-511.79" rx="94.58" ry="40.66"/>
<text text-anchor="middle" x="1195" y="-523.24" font-family="Times,serif" font-size="14.00">f_trend_hsgp_coeffs_</text>
<text text-anchor="middle" x="1195" y="-506.74" font-family="Times,serif" font-size="14.00">~</text>
<text text-anchor="middle" x="1195" y="-490.24" font-family="Times,serif" font-size="14.00">Normal</text>
</g>
<!-- f_trend_hsgp_coeffs_&#45;&gt;f_trend -->
<g id="edge5" class="edge">
<title>f_trend_hsgp_coeffs_&#45;&gt;f_trend</title>
<path fill="none" stroke="black" d="M1153.37,-474.9C1134.65,-460.93 1111.5,-446.42 1088,-438.63 1020.92,-416.42 540.93,-406.54 374.02,-403.75"/>
<polygon fill="black" stroke="black" points="374.13,-400.25 364.07,-403.59 374.01,-407.25 374.13,-400.25"/>
</g>
</g>
</svg>
