<?xml version="1.0" encoding="UTF-8" standalone="no"?>
<!DOCTYPE svg PUBLIC "-//W3C//DTD SVG 1.1//EN"
 "http://www.w3.org/Graphics/SVG/1.1/DTD/svg11.dtd">
<!-- Generated by graphviz version 9.0.0 (20230911.1827)
 -->
<!-- Pages: 1 -->
<svg width="1707pt" height="792pt"
 viewBox="0.00 0.00 1706.60 791.77" xmlns="http://www.w3.org/2000/svg" xmlns:xlink="http://www.w3.org/1999/xlink">
<g id="graph0" class="graph" transform="scale(1 1) rotate(0) translate(4 787.77)">
<polygon fill="white" stroke="none" points="-4,4 -4,-787.77 1702.6,-787.77 1702.6,4 -4,4"/>
<g id="clust1" class="cluster">
<title>clusterdate (131)</title>
<path fill="none" stroke="black" d="M105.6,-8C105.6,-8 331.6,-8 331.6,-8 337.6,-8 343.6,-14 343.6,-20 343.6,-20 343.6,-536.54 343.6,-536.54 343.6,-542.54 337.6,-548.54 331.6,-548.54 331.6,-548.54 105.6,-548.54 105.6,-548.54 99.6,-548.54 93.6,-542.54 93.6,-536.54 93.6,-536.54 93.6,-20 93.6,-20 93.6,-14 99.6,-8 105.6,-8"/>
<text text-anchor="middle" x="307.85" y="-15.2" font-family="Times,serif" font-size="14.00">date (131)</text>
</g>
<g id="clust2" class="cluster">
<title>clusterdate (131) x channel (2)</title>
<path fill="none" stroke="black" d="M1191.6,-340.63C1191.6,-340.63 1345.6,-340.63 1345.6,-340.63 1351.6,-340.63 1357.6,-346.63 1357.6,-352.63 1357.6,-352.63 1357.6,-751.86 1357.6,-751.86 1357.6,-757.86 1351.6,-763.86 1345.6,-763.86 1345.6,-763.86 1191.6,-763.86 1191.6,-763.86 1185.6,-763.86 1179.6,-757.86 1179.6,-751.86 1179.6,-751.86 1179.6,-352.63 1179.6,-352.63 1179.6,-346.63 1185.6,-340.63 1191.6,-340.63"/>
<text text-anchor="middle" x="1283.98" y="-347.83" font-family="Times,serif" font-size="14.00">date (131) x channel (2)</text>
</g>
<g id="clust3" class="cluster">
<title>clusterdate (131) x fourier_mode (6)</title>
<path fill="none" stroke="black" d="M363.6,-450.54C363.6,-450.54 518.6,-450.54 518.6,-450.54 524.6,-450.54 530.6,-456.54 530.6,-462.54 530.6,-462.54 530.6,-536.54 530.6,-536.54 530.6,-542.54 524.6,-548.54 518.6,-548.54 518.6,-548.54 363.6,-548.54 363.6,-548.54 357.6,-548.54 351.6,-542.54 351.6,-536.54 351.6,-536.54 351.6,-462.54 351.6,-462.54 351.6,-456.54 357.6,-450.54 363.6,-450.54"/>
<text text-anchor="middle" x="440.85" y="-457.74" font-family="Times,serif" font-size="14.00">date (131) x fourier_mode (6)</text>
</g>
<g id="clust4" class="cluster">
<title>clusterchannel (2)</title>
<path fill="none" stroke="black" d="M1377.6,-653.95C1377.6,-653.95 1678.6,-653.95 1678.6,-653.95 1684.6,-653.95 1690.6,-659.95 1690.6,-665.95 1690.6,-665.95 1690.6,-763.77 1690.6,-763.77 1690.6,-769.77 1684.6,-775.77 1678.6,-775.77 1678.6,-775.77 1377.6,-775.77 1377.6,-775.77 1371.6,-775.77 1365.6,-769.77 1365.6,-763.77 1365.6,-763.77 1365.6,-665.95 1365.6,-665.95 1365.6,-659.95 1371.6,-653.95 1377.6,-653.95"/>
<text text-anchor="middle" x="1651.85" y="-661.15" font-family="Times,serif" font-size="14.00">channel (2)</text>
</g>
<g id="clust5" class="cluster">
<title>clusterfourier_mode (6)</title>
<path fill="none" stroke="black" d="M837.6,-438.63C837.6,-438.63 945.6,-438.63 945.6,-438.63 951.6,-438.63 957.6,-444.63 957.6,-450.63 957.6,-450.63 957.6,-548.45 957.6,-548.45 957.6,-554.45 951.6,-560.45 945.6,-560.45 945.6,-560.45 837.6,-560.45 837.6,-560.45 831.6,-560.45 825.6,-554.45 825.6,-548.45 825.6,-548.45 825.6,-450.63 825.6,-450.63 825.6,-444.63 831.6,-438.63 837.6,-438.63"/>
<text text-anchor="middle" x="902.73" y="-445.83" font-family="Times,serif" font-size="14.00">fourier_mode (6)</text>
</g>
<g id="clust6" class="cluster">
<title>cluster20</title>
<path fill="none" stroke="black" d="M977.6,-438.63C977.6,-438.63 1159.6,-438.63 1159.6,-438.63 1165.6,-438.63 1171.6,-444.63 1171.6,-450.63 1171.6,-450.63 1171.6,-548.45 1171.6,-548.45 1171.6,-554.45 1165.6,-560.45 1159.6,-560.45 1159.6,-560.45 977.6,-560.45 977.6,-560.45 971.6,-560.45 965.6,-554.45 965.6,-548.45 965.6,-548.45 965.6,-450.63 965.6,-450.63 965.6,-444.63 971.6,-438.63 977.6,-438.63"/>
<text text-anchor="middle" x="1156.85" y="-445.83" font-family="Times,serif" font-size="14.00">20</text>
</g>
<!-- fourier_contribution -->
<g id="node1" class="node">
<title>fourier_contribution</title>
<polygon fill="none" stroke="black" points="335.35,-430.63 209.85,-430.63 209.85,-373.13 335.35,-373.13 335.35,-430.63"/>
<text text-anchor="middle" x="272.6" y="-413.33" font-family="Times,serif" font-size="14.00">fourier_contribution</text>
<text text-anchor="middle" x="272.6" y="-396.83" font-family="Times,serif" font-size="14.00">~</text>
<text text-anchor="middle" x="272.6" y="-380.33" font-family="Times,serif" font-size="14.00">Deterministic</text>
</g>
<!-- mu -->
<g id="node5" class="node">
<title>mu</title>
<polygon fill="none" stroke="black" points="317.73,-320.73 227.48,-320.73 227.48,-263.23 317.73,-263.23 317.73,-320.73"/>
<text text-anchor="middle" x="272.6" y="-303.43" font-family="Times,serif" font-size="14.00">mu</text>
<text text-anchor="middle" x="272.6" y="-286.93" font-family="Times,serif" font-size="14.00">~</text>
<text text-anchor="middle" x="272.6" y="-270.43" font-family="Times,serif" font-size="14.00">Deterministic</text>
</g>
<!-- fourier_contribution&#45;&gt;mu -->
<g id="edge15" class="edge">
<title>fourier_contribution&#45;&gt;mu</title>
<path fill="none" stroke="black" d="M272.6,-372.81C272.6,-360.45 272.6,-345.71 272.6,-332.28"/>
<polygon fill="black" stroke="black" points="276.1,-332.42 272.6,-322.42 269.1,-332.42 276.1,-332.42"/>
</g>
<!-- y_scaled -->
<g id="node2" class="node">
<title>y_scaled</title>
<path fill="lightgrey" stroke="black" d="M304.23,-98C304.23,-98 240.98,-98 240.98,-98 234.98,-98 228.98,-92 228.98,-86 228.98,-86 228.98,-52.5 228.98,-52.5 228.98,-46.5 234.98,-40.5 240.98,-40.5 240.98,-40.5 304.23,-40.5 304.23,-40.5 310.23,-40.5 316.23,-46.5 316.23,-52.5 316.23,-52.5 316.23,-86 316.23,-86 316.23,-92 310.23,-98 304.23,-98"/>
<text text-anchor="middle" x="272.6" y="-80.7" font-family="Times,serif" font-size="14.00">y_scaled</text>
<text text-anchor="middle" x="272.6" y="-64.2" font-family="Times,serif" font-size="14.00">~</text>
<text text-anchor="middle" x="272.6" y="-47.7" font-family="Times,serif" font-size="14.00">MutableData</text>
</g>
<!-- f_trend -->
<g id="node3" class="node">
<title>f_trend</title>
<polygon fill="none" stroke="black" points="191.73,-430.63 101.48,-430.63 101.48,-373.13 191.73,-373.13 191.73,-430.63"/>
<text text-anchor="middle" x="146.6" y="-413.33" font-family="Times,serif" font-size="14.00">f_trend</text>
<text text-anchor="middle" x="146.6" y="-396.83" font-family="Times,serif" font-size="14.00">~</text>
<text text-anchor="middle" x="146.6" y="-380.33" font-family="Times,serif" font-size="14.00">Deterministic</text>
</g>
<!-- f_trend&#45;&gt;mu -->
<g id="edge14" class="edge">
<title>f_trend&#45;&gt;mu</title>
<path fill="none" stroke="black" d="M169.15,-372.79C178.35,-362.14 189.44,-350.27 200.6,-340.63 205.96,-336 211.8,-331.46 217.75,-327.13"/>
<polygon fill="black" stroke="black" points="219.75,-330 225.91,-321.38 215.72,-324.28 219.75,-330"/>
</g>
<!-- index_scaled -->
<g id="node4" class="node">
<title>index_scaled</title>
<path fill="lightgrey" stroke="black" d="M178.23,-540.54C178.23,-540.54 114.98,-540.54 114.98,-540.54 108.98,-540.54 102.98,-534.54 102.98,-528.54 102.98,-528.54 102.98,-495.04 102.98,-495.04 102.98,-489.04 108.98,-483.04 114.98,-483.04 114.98,-483.04 178.23,-483.04 178.23,-483.04 184.23,-483.04 190.23,-489.04 190.23,-495.04 190.23,-495.04 190.23,-528.54 190.23,-528.54 190.23,-534.54 184.23,-540.54 178.23,-540.54"/>
<text text-anchor="middle" x="146.6" y="-523.24" font-family="Times,serif" font-size="14.00">index_scaled</text>
<text text-anchor="middle" x="146.6" y="-506.74" font-family="Times,serif" font-size="14.00">~</text>
<text text-anchor="middle" x="146.6" y="-490.24" font-family="Times,serif" font-size="14.00">MutableData</text>
</g>
<!-- index_scaled&#45;&gt;f_trend -->
<g id="edge2" class="edge">
<title>index_scaled&#45;&gt;f_trend</title>
<path fill="none" stroke="black" d="M146.6,-482.72C146.6,-470.36 146.6,-455.62 146.6,-442.19"/>
<polygon fill="black" stroke="black" points="150.1,-442.33 146.6,-432.33 143.1,-442.33 150.1,-442.33"/>
</g>
<!-- y -->
<g id="node6" class="node">
<title>y</title>
<ellipse fill="lightgrey" stroke="black" cx="272.6" cy="-174.66" rx="46.32" ry="40.66"/>
<text text-anchor="middle" x="272.6" y="-186.11" font-family="Times,serif" font-size="14.00">y</text>
<text text-anchor="middle" x="272.6" y="-169.61" font-family="Times,serif" font-size="14.00">~</text>
<text text-anchor="middle" x="272.6" y="-153.11" font-family="Times,serif" font-size="14.00">StudentT</text>
</g>
<!-- mu&#45;&gt;y -->
<g id="edge17" class="edge">
<title>mu&#45;&gt;y</title>
<path fill="none" stroke="black" d="M272.6,-262.77C272.6,-251.94 272.6,-239.23 272.6,-226.91"/>
<polygon fill="black" stroke="black" points="276.1,-227.28 272.6,-217.28 269.1,-227.28 276.1,-227.28"/>
</g>
<!-- y&#45;&gt;y_scaled -->
<g id="edge1" class="edge">
<title>y&#45;&gt;y_scaled</title>
<path fill="none" stroke="black" d="M272.6,-133.68C272.6,-125.83 272.6,-117.6 272.6,-109.76"/>
<polygon fill="black" stroke="black" points="276.1,-109.79 272.6,-99.79 269.1,-109.79 276.1,-109.79"/>
</g>
<!-- channel_adstock -->
<g id="node7" class="node">
<title>channel_adstock</title>
<polygon fill="none" stroke="black" points="1335.6,-645.95 1229.6,-645.95 1229.6,-588.45 1335.6,-588.45 1335.6,-645.95"/>
<text text-anchor="middle" x="1282.6" y="-628.65" font-family="Times,serif" font-size="14.00">channel_adstock</text>
<text text-anchor="middle" x="1282.6" y="-612.15" font-family="Times,serif" font-size="14.00">~</text>
<text text-anchor="middle" x="1282.6" y="-595.65" font-family="Times,serif" font-size="14.00">Deterministic</text>
</g>
<!-- channel_adstock_saturated -->
<g id="node10" class="node">
<title>channel_adstock_saturated</title>
<polygon fill="none" stroke="black" points="1349.35,-540.54 1187.85,-540.54 1187.85,-483.04 1349.35,-483.04 1349.35,-540.54"/>
<text text-anchor="middle" x="1268.6" y="-523.24" font-family="Times,serif" font-size="14.00">channel_adstock_saturated</text>
<text text-anchor="middle" x="1268.6" y="-506.74" font-family="Times,serif" font-size="14.00">~</text>
<text text-anchor="middle" x="1268.6" y="-490.24" font-family="Times,serif" font-size="14.00">Deterministic</text>
</g>
<!-- channel_adstock&#45;&gt;channel_adstock_saturated -->
<g id="edge8" class="edge">
<title>channel_adstock&#45;&gt;channel_adstock_saturated</title>
<path fill="none" stroke="black" d="M1278.81,-588.22C1277.3,-577.07 1275.54,-564.04 1273.91,-551.98"/>
<polygon fill="black" stroke="black" points="1277.41,-551.74 1272.6,-542.3 1270.47,-552.68 1277.41,-551.74"/>
</g>
<!-- channel_contributions -->
<g id="node8" class="node">
<title>channel_contributions</title>
<polygon fill="none" stroke="black" points="1336.6,-430.63 1200.6,-430.63 1200.6,-373.13 1336.6,-373.13 1336.6,-430.63"/>
<text text-anchor="middle" x="1268.6" y="-413.33" font-family="Times,serif" font-size="14.00">channel_contributions</text>
<text text-anchor="middle" x="1268.6" y="-396.83" font-family="Times,serif" font-size="14.00">~</text>
<text text-anchor="middle" x="1268.6" y="-380.33" font-family="Times,serif" font-size="14.00">Deterministic</text>
</g>
<!-- channel_contributions&#45;&gt;mu -->
<g id="edge16" class="edge">
<title>channel_contributions&#45;&gt;mu</title>
<path fill="none" stroke="black" d="M1200.4,-399.73C1014.68,-395.96 503.13,-381.33 342.6,-332.63 336.84,-330.89 331.03,-328.6 325.36,-326.01"/>
<polygon fill="black" stroke="black" points="327.2,-323.02 316.68,-321.74 324.1,-329.3 327.2,-323.02"/>
</g>
<!-- channels_scaled -->
<g id="node9" class="node">
<title>channels_scaled</title>
<path fill="lightgrey" stroke="black" d="M1322.48,-755.86C1322.48,-755.86 1242.73,-755.86 1242.73,-755.86 1236.73,-755.86 1230.73,-749.86 1230.73,-743.86 1230.73,-743.86 1230.73,-710.36 1230.73,-710.36 1230.73,-704.36 1236.73,-698.36 1242.73,-698.36 1242.73,-698.36 1322.48,-698.36 1322.48,-698.36 1328.48,-698.36 1334.48,-704.36 1334.48,-710.36 1334.48,-710.36 1334.48,-743.86 1334.48,-743.86 1334.48,-749.86 1328.48,-755.86 1322.48,-755.86"/>
<text text-anchor="middle" x="1282.6" y="-738.56" font-family="Times,serif" font-size="14.00">channels_scaled</text>
<text text-anchor="middle" x="1282.6" y="-722.06" font-family="Times,serif" font-size="14.00">~</text>
<text text-anchor="middle" x="1282.6" y="-705.56" font-family="Times,serif" font-size="14.00">MutableData</text>
</g>
<!-- channels_scaled&#45;&gt;channel_adstock -->
<g id="edge7" class="edge">
<title>channels_scaled&#45;&gt;channel_adstock</title>
<path fill="none" stroke="black" d="M1282.6,-698.04C1282.6,-685.68 1282.6,-670.93 1282.6,-657.5"/>
<polygon fill="black" stroke="black" points="1286.1,-657.64 1282.6,-647.64 1279.1,-657.64 1286.1,-657.64"/>
</g>
<!-- channel_adstock_saturated&#45;&gt;channel_contributions -->
<g id="edge11" class="edge">
<title>channel_adstock_saturated&#45;&gt;channel_contributions</title>
<path fill="none" stroke="black" d="M1268.6,-482.72C1268.6,-470.36 1268.6,-455.62 1268.6,-442.19"/>
<polygon fill="black" stroke="black" points="1272.1,-442.33 1268.6,-432.33 1265.1,-442.33 1272.1,-442.33"/>
</g>
<!-- fourier_features -->
<g id="node11" class="node">
<title>fourier_features</title>
<path fill="lightgrey" stroke="black" d="M449.73,-540.54C449.73,-540.54 371.48,-540.54 371.48,-540.54 365.48,-540.54 359.48,-534.54 359.48,-528.54 359.48,-528.54 359.48,-495.04 359.48,-495.04 359.48,-489.04 365.48,-483.04 371.48,-483.04 371.48,-483.04 449.73,-483.04 449.73,-483.04 455.73,-483.04 461.73,-489.04 461.73,-495.04 461.73,-495.04 461.73,-528.54 461.73,-528.54 461.73,-534.54 455.73,-540.54 449.73,-540.54"/>
<text text-anchor="middle" x="410.6" y="-523.24" font-family="Times,serif" font-size="14.00">fourier_features</text>
<text text-anchor="middle" x="410.6" y="-506.74" font-family="Times,serif" font-size="14.00">~</text>
<text text-anchor="middle" x="410.6" y="-490.24" font-family="Times,serif" font-size="14.00">MutableData</text>
</g>
<!-- fourier_features&#45;&gt;fourier_contribution -->
<g id="edge12" class="edge">
<title>fourier_features&#45;&gt;fourier_contribution</title>
<path fill="none" stroke="black" d="M390.46,-482.61C379.08,-468.14 363.9,-451 347.6,-438.63 346.77,-438.01 345.93,-437.38 345.08,-436.77"/>
<polygon fill="black" stroke="black" points="347.08,-433.9 336.81,-431.29 343.22,-439.73 347.08,-433.9"/>
</g>
<!-- nu -->
<g id="node12" class="node">
<title>nu</title>
<ellipse fill="none" stroke="black" cx="42.6" cy="-291.98" rx="42.6" ry="40.66"/>
<text text-anchor="middle" x="42.6" y="-303.43" font-family="Times,serif" font-size="14.00">nu</text>
<text text-anchor="middle" x="42.6" y="-286.93" font-family="Times,serif" font-size="14.00">~</text>
<text text-anchor="middle" x="42.6" y="-270.43" font-family="Times,serif" font-size="14.00">Gamma</text>
</g>
<!-- nu&#45;&gt;y -->
<g id="edge19" class="edge">
<title>nu&#45;&gt;y</title>
<path fill="none" stroke="black" d="M72.92,-263.1C78.27,-258.86 83.95,-254.76 89.6,-251.32 130.37,-226.52 180.73,-206.37 218.29,-193.12"/>
<polygon fill="black" stroke="black" points="219.29,-196.48 227.59,-189.9 216.99,-189.87 219.29,-196.48"/>
</g>
<!-- sigma -->
<g id="node13" class="node">
<title>sigma</title>
<ellipse fill="none" stroke="black" cx="409.6" cy="-291.98" rx="57.98" ry="40.66"/>
<text text-anchor="middle" x="409.6" y="-303.43" font-family="Times,serif" font-size="14.00">sigma</text>
<text text-anchor="middle" x="409.6" y="-286.93" font-family="Times,serif" font-size="14.00">~</text>
<text text-anchor="middle" x="409.6" y="-270.43" font-family="Times,serif" font-size="14.00">HalfNormal</text>
</g>
<!-- sigma&#45;&gt;y -->
<g id="edge18" class="edge">
<title>sigma&#45;&gt;y</title>
<path fill="none" stroke="black" d="M372.89,-260.07C354.83,-244.87 332.97,-226.47 314.28,-210.74"/>
<polygon fill="black" stroke="black" points="316.73,-208.23 306.83,-204.47 312.22,-213.58 316.73,-208.23"/>
</g>
<!-- amplitude_trend -->
<g id="node14" class="node">
<title>amplitude_trend</title>
<ellipse fill="none" stroke="black" cx="612.6" cy="-511.79" rx="74.42" ry="40.66"/>
<text text-anchor="middle" x="612.6" y="-523.24" font-family="Times,serif" font-size="14.00">amplitude_trend</text>
<text text-anchor="middle" x="612.6" y="-506.74" font-family="Times,serif" font-size="14.00">~</text>
<text text-anchor="middle" x="612.6" y="-490.24" font-family="Times,serif" font-size="14.00">HalfNormal</text>
</g>
<!-- amplitude_trend&#45;&gt;f_trend -->
<g id="edge4" class="edge">
<title>amplitude_trend&#45;&gt;f_trend</title>
<path fill="none" stroke="black" d="M583.42,-474.21C570.14,-460.39 553.24,-446.19 534.6,-438.63 502.42,-425.58 269.61,-437.97 203.23,-429.94"/>
<polygon fill="black" stroke="black" points="203.95,-426.51 193.49,-428.24 202.74,-433.41 203.95,-426.51"/>
</g>
<!-- ls_trend -->
<g id="node15" class="node">
<title>ls_trend</title>
<ellipse fill="none" stroke="black" cx="760.6" cy="-511.79" rx="55.33" ry="40.66"/>
<text text-anchor="middle" x="760.6" y="-523.24" font-family="Times,serif" font-size="14.00">ls_trend</text>
<text text-anchor="middle" x="760.6" y="-506.74" font-family="Times,serif" font-size="14.00">~</text>
<text text-anchor="middle" x="760.6" y="-490.24" font-family="Times,serif" font-size="14.00">InvGamma</text>
</g>
<!-- ls_trend&#45;&gt;f_trend -->
<g id="edge5" class="edge">
<title>ls_trend&#45;&gt;f_trend</title>
<path fill="none" stroke="black" d="M737.77,-474.65C726.86,-460.72 712.49,-446.31 695.6,-438.63 672.13,-427.96 281.06,-436.14 203.19,-429.53"/>
<polygon fill="black" stroke="black" points="203.88,-426.09 193.49,-428.21 202.93,-433.03 203.88,-426.09"/>
</g>
<!-- beta_channel -->
<g id="node16" class="node">
<title>beta_channel</title>
<ellipse fill="none" stroke="black" cx="1620.6" cy="-727.11" rx="61.7" ry="40.66"/>
<text text-anchor="middle" x="1620.6" y="-738.56" font-family="Times,serif" font-size="14.00">beta_channel</text>
<text text-anchor="middle" x="1620.6" y="-722.06" font-family="Times,serif" font-size="14.00">~</text>
<text text-anchor="middle" x="1620.6" y="-705.56" font-family="Times,serif" font-size="14.00">HalfNormal</text>
</g>
<!-- beta_channel&#45;&gt;channel_contributions -->
<g id="edge10" class="edge">
<title>beta_channel&#45;&gt;channel_contributions</title>
<path fill="none" stroke="black" d="M1595.72,-689.4C1553.41,-629.45 1461.92,-510.06 1358.6,-438.63 1354.79,-436 1350.76,-433.52 1346.59,-431.19"/>
<polygon fill="black" stroke="black" points="1348.51,-428.24 1338.02,-426.72 1345.27,-434.44 1348.51,-428.24"/>
</g>
<!-- alpha -->
<g id="node17" class="node">
<title>alpha</title>
<ellipse fill="none" stroke="black" cx="1405.6" cy="-727.11" rx="32" ry="40.66"/>
<text text-anchor="middle" x="1405.6" y="-738.56" font-family="Times,serif" font-size="14.00">alpha</text>
<text text-anchor="middle" x="1405.6" y="-722.06" font-family="Times,serif" font-size="14.00">~</text>
<text text-anchor="middle" x="1405.6" y="-705.56" font-family="Times,serif" font-size="14.00">Beta</text>
</g>
<!-- alpha&#45;&gt;channel_adstock -->
<g id="edge6" class="edge">
<title>alpha&#45;&gt;channel_adstock</title>
<path fill="none" stroke="black" d="M1389.99,-691.43C1382.8,-678.4 1373.25,-664.26 1361.6,-653.95 1356.76,-649.67 1351.32,-645.82 1345.63,-642.38"/>
<polygon fill="black" stroke="black" points="1347.61,-639.48 1337.17,-637.69 1344.22,-645.6 1347.61,-639.48"/>
</g>
<!-- lam -->
<g id="node18" class="node">
<title>lam</title>
<ellipse fill="none" stroke="black" cx="1498.6" cy="-727.11" rx="42.6" ry="40.66"/>
<text text-anchor="middle" x="1498.6" y="-738.56" font-family="Times,serif" font-size="14.00">lam</text>
<text text-anchor="middle" x="1498.6" y="-722.06" font-family="Times,serif" font-size="14.00">~</text>
<text text-anchor="middle" x="1498.6" y="-705.56" font-family="Times,serif" font-size="14.00">Gamma</text>
</g>
<!-- lam&#45;&gt;channel_adstock_saturated -->
<g id="edge9" class="edge">
<title>lam&#45;&gt;channel_adstock_saturated</title>
<path fill="none" stroke="black" d="M1476.85,-691.92C1468.15,-679.38 1457.59,-665.45 1446.6,-653.95 1407.81,-613.33 1357.08,-574.21 1319.71,-547.5"/>
<polygon fill="black" stroke="black" points="1321.93,-544.79 1311.75,-541.86 1317.88,-550.5 1321.93,-544.79"/>
</g>
<!-- beta_fourier -->
<g id="node19" class="node">
<title>beta_fourier</title>
<ellipse fill="none" stroke="black" cx="891.6" cy="-511.79" rx="57.98" ry="40.66"/>
<text text-anchor="middle" x="891.6" y="-523.24" font-family="Times,serif" font-size="14.00">beta_fourier</text>
<text text-anchor="middle" x="891.6" y="-506.74" font-family="Times,serif" font-size="14.00">~</text>
<text text-anchor="middle" x="891.6" y="-490.24" font-family="Times,serif" font-size="14.00">Normal</text>
</g>
<!-- beta_fourier&#45;&gt;fourier_contribution -->
<g id="edge13" class="edge">
<title>beta_fourier&#45;&gt;fourier_contribution</title>
<path fill="none" stroke="black" d="M867.35,-474.65C856.08,-460.9 841.43,-446.63 824.6,-438.63 782.6,-418.68 488.2,-408.46 347.35,-404.66"/>
<polygon fill="black" stroke="black" points="347.44,-401.16 337.35,-404.4 347.26,-408.16 347.44,-401.16"/>
</g>
<!-- f_trend_hsgp_coeffs_ -->
<g id="node20" class="node">
<title>f_trend_hsgp_coeffs_</title>
<ellipse fill="none" stroke="black" cx="1068.6" cy="-511.79" rx="94.58" ry="40.66"/>
<text text-anchor="middle" x="1068.6" y="-523.24" font-family="Times,serif" font-size="14.00">f_trend_hsgp_coeffs_</text>
<text text-anchor="middle" x="1068.6" y="-506.74" font-family="Times,serif" font-size="14.00">~</text>
<text text-anchor="middle" x="1068.6" y="-490.24" font-family="Times,serif" font-size="14.00">Normal</text>
</g>
<!-- f_trend_hsgp_coeffs_&#45;&gt;f_trend -->
<g id="edge3" class="edge">
<title>f_trend_hsgp_coeffs_&#45;&gt;f_trend</title>
<path fill="none" stroke="black" d="M1027.61,-474.88C1008.83,-460.71 985.46,-446.06 961.6,-438.63 923.17,-426.66 305.22,-439.44 203.31,-429.67"/>
<polygon fill="black" stroke="black" points="203.89,-426.22 193.49,-428.24 202.88,-433.15 203.89,-426.22"/>
</g>
</g>
</svg>
