<?xml version="1.0" encoding="UTF-8" standalone="no"?>
<!DOCTYPE svg PUBLIC "-//W3C//DTD SVG 1.1//EN"
 "http://www.w3.org/Graphics/SVG/1.1/DTD/svg11.dtd">
<!-- Generated by graphviz version 9.0.0 (20230911.1827)
 -->
<!-- Pages: 1 -->
<svg width="1621pt" height="792pt"
 viewBox="0.00 0.00 1621.00 791.77" xmlns="http://www.w3.org/2000/svg" xmlns:xlink="http://www.w3.org/1999/xlink">
<g id="graph0" class="graph" transform="scale(1 1) rotate(0) translate(4 787.77)">
<polygon fill="white" stroke="none" points="-4,4 -4,-787.77 1617,-787.77 1617,4 -4,4"/>
<g id="clust2" class="cluster">
<title>clusterdate (131) x channel (2)</title>
<path fill="none" stroke="black" d="M1106,-340.63C1106,-340.63 1260,-340.63 1260,-340.63 1266,-340.63 1272,-346.63 1272,-352.63 1272,-352.63 1272,-751.86 1272,-751.86 1272,-757.86 1266,-763.86 1260,-763.86 1260,-763.86 1106,-763.86 1106,-763.86 1100,-763.86 1094,-757.86 1094,-751.86 1094,-751.86 1094,-352.63 1094,-352.63 1094,-346.63 1100,-340.63 1106,-340.63"/>
<text text-anchor="middle" x="1198.38" y="-347.83" font-family="Times,serif" font-size="14.00">date (131) x channel (2)</text>
</g>
<g id="clust3" class="cluster">
<title>clusterdate (131) x fourier_mode (6)</title>
<path fill="none" stroke="black" d="M278,-450.54C278,-450.54 433,-450.54 433,-450.54 439,-450.54 445,-456.54 445,-462.54 445,-462.54 445,-536.54 445,-536.54 445,-542.54 439,-548.54 433,-548.54 433,-548.54 278,-548.54 278,-548.54 272,-548.54 266,-542.54 266,-536.54 266,-536.54 266,-462.54 266,-462.54 266,-456.54 272,-450.54 278,-450.54"/>
<text text-anchor="middle" x="355.25" y="-457.74" font-family="Times,serif" font-size="14.00">date (131) x fourier_mode (6)</text>
</g>
<g id="clust4" class="cluster">
<title>clusterchannel (2)</title>
<path fill="none" stroke="black" d="M1292,-653.95C1292,-653.95 1593,-653.95 1593,-653.95 1599,-653.95 1605,-659.95 1605,-665.95 1605,-665.95 1605,-763.77 1605,-763.77 1605,-769.77 1599,-775.77 1593,-775.77 1593,-775.77 1292,-775.77 1292,-775.77 1286,-775.77 1280,-769.77 1280,-763.77 1280,-763.77 1280,-665.95 1280,-665.95 1280,-659.95 1286,-653.95 1292,-653.95"/>
<text text-anchor="middle" x="1566.25" y="-661.15" font-family="Times,serif" font-size="14.00">channel (2)</text>
</g>
<g id="clust5" class="cluster">
<title>clusterfourier_mode (6)</title>
<path fill="none" stroke="black" d="M752,-438.63C752,-438.63 860,-438.63 860,-438.63 866,-438.63 872,-444.63 872,-450.63 872,-450.63 872,-548.45 872,-548.45 872,-554.45 866,-560.45 860,-560.45 860,-560.45 752,-560.45 752,-560.45 746,-560.45 740,-554.45 740,-548.45 740,-548.45 740,-450.63 740,-450.63 740,-444.63 746,-438.63 752,-438.63"/>
<text text-anchor="middle" x="817.12" y="-445.83" font-family="Times,serif" font-size="14.00">fourier_mode (6)</text>
</g>
<g id="clust6" class="cluster">
<title>cluster20</title>
<path fill="none" stroke="black" d="M892,-438.63C892,-438.63 1074,-438.63 1074,-438.63 1080,-438.63 1086,-444.63 1086,-450.63 1086,-450.63 1086,-548.45 1086,-548.45 1086,-554.45 1080,-560.45 1074,-560.45 1074,-560.45 892,-560.45 892,-560.45 886,-560.45 880,-554.45 880,-548.45 880,-548.45 880,-450.63 880,-450.63 880,-444.63 886,-438.63 892,-438.63"/>
<text text-anchor="middle" x="1071.25" y="-445.83" font-family="Times,serif" font-size="14.00">20</text>
</g>
<g id="clust1" class="cluster">
<title>clusterdate (131)</title>
<path fill="none" stroke="black" d="M20,-8C20,-8 246,-8 246,-8 252,-8 258,-14 258,-20 258,-20 258,-536.54 258,-536.54 258,-542.54 252,-548.54 246,-548.54 246,-548.54 20,-548.54 20,-548.54 14,-548.54 8,-542.54 8,-536.54 8,-536.54 8,-20 8,-20 8,-14 14,-8 20,-8"/>
<text text-anchor="middle" x="222.25" y="-15.2" font-family="Times,serif" font-size="14.00">date (131)</text>
</g>
<!-- index_scaled -->
<g id="node1" class="node">
<title>index_scaled</title>
<path fill="lightgrey" stroke="black" d="M236.62,-540.54C236.62,-540.54 173.38,-540.54 173.38,-540.54 167.38,-540.54 161.38,-534.54 161.38,-528.54 161.38,-528.54 161.38,-495.04 161.38,-495.04 161.38,-489.04 167.38,-483.04 173.38,-483.04 173.38,-483.04 236.62,-483.04 236.62,-483.04 242.62,-483.04 248.62,-489.04 248.62,-495.04 248.62,-495.04 248.62,-528.54 248.62,-528.54 248.62,-534.54 242.62,-540.54 236.62,-540.54"/>
<text text-anchor="middle" x="205" y="-523.24" font-family="Times,serif" font-size="14.00">index_scaled</text>
<text text-anchor="middle" x="205" y="-506.74" font-family="Times,serif" font-size="14.00">~</text>
<text text-anchor="middle" x="205" y="-490.24" font-family="Times,serif" font-size="14.00">MutableData</text>
</g>
<!-- f_trend -->
<g id="node6" class="node">
<title>f_trend</title>
<polygon fill="none" stroke="black" points="250.12,-430.63 159.88,-430.63 159.88,-373.13 250.12,-373.13 250.12,-430.63"/>
<text text-anchor="middle" x="205" y="-413.33" font-family="Times,serif" font-size="14.00">f_trend</text>
<text text-anchor="middle" x="205" y="-396.83" font-family="Times,serif" font-size="14.00">~</text>
<text text-anchor="middle" x="205" y="-380.33" font-family="Times,serif" font-size="14.00">Deterministic</text>
</g>
<!-- index_scaled&#45;&gt;f_trend -->
<g id="edge3" class="edge">
<title>index_scaled&#45;&gt;f_trend</title>
<path fill="none" stroke="black" d="M205,-482.72C205,-470.36 205,-455.62 205,-442.19"/>
<polygon fill="black" stroke="black" points="208.5,-442.33 205,-432.33 201.5,-442.33 208.5,-442.33"/>
</g>
<!-- fourier_contribution -->
<g id="node2" class="node">
<title>fourier_contribution</title>
<polygon fill="none" stroke="black" points="141.75,-430.63 16.25,-430.63 16.25,-373.13 141.75,-373.13 141.75,-430.63"/>
<text text-anchor="middle" x="79" y="-413.33" font-family="Times,serif" font-size="14.00">fourier_contribution</text>
<text text-anchor="middle" x="79" y="-396.83" font-family="Times,serif" font-size="14.00">~</text>
<text text-anchor="middle" x="79" y="-380.33" font-family="Times,serif" font-size="14.00">Deterministic</text>
</g>
<!-- mu -->
<g id="node4" class="node">
<title>mu</title>
<polygon fill="none" stroke="black" points="248.12,-320.73 157.88,-320.73 157.88,-263.23 248.12,-263.23 248.12,-320.73"/>
<text text-anchor="middle" x="203" y="-303.43" font-family="Times,serif" font-size="14.00">mu</text>
<text text-anchor="middle" x="203" y="-286.93" font-family="Times,serif" font-size="14.00">~</text>
<text text-anchor="middle" x="203" y="-270.43" font-family="Times,serif" font-size="14.00">Deterministic</text>
</g>
<!-- fourier_contribution&#45;&gt;mu -->
<g id="edge15" class="edge">
<title>fourier_contribution&#45;&gt;mu</title>
<path fill="none" stroke="black" d="M111.26,-372.81C126.9,-359.2 145.85,-342.71 162.46,-328.25"/>
<polygon fill="black" stroke="black" points="164.52,-331.1 169.76,-321.9 159.92,-325.82 164.52,-331.1"/>
</g>
<!-- y -->
<g id="node3" class="node">
<title>y</title>
<ellipse fill="lightgrey" stroke="black" cx="204" cy="-174.66" rx="46.32" ry="40.66"/>
<text text-anchor="middle" x="204" y="-186.11" font-family="Times,serif" font-size="14.00">y</text>
<text text-anchor="middle" x="204" y="-169.61" font-family="Times,serif" font-size="14.00">~</text>
<text text-anchor="middle" x="204" y="-153.11" font-family="Times,serif" font-size="14.00">StudentT</text>
</g>
<!-- y_scaled -->
<g id="node5" class="node">
<title>y_scaled</title>
<path fill="lightgrey" stroke="black" d="M235.62,-98C235.62,-98 172.38,-98 172.38,-98 166.38,-98 160.38,-92 160.38,-86 160.38,-86 160.38,-52.5 160.38,-52.5 160.38,-46.5 166.38,-40.5 172.38,-40.5 172.38,-40.5 235.62,-40.5 235.62,-40.5 241.62,-40.5 247.62,-46.5 247.62,-52.5 247.62,-52.5 247.62,-86 247.62,-86 247.62,-92 241.62,-98 235.62,-98"/>
<text text-anchor="middle" x="204" y="-80.7" font-family="Times,serif" font-size="14.00">y_scaled</text>
<text text-anchor="middle" x="204" y="-64.2" font-family="Times,serif" font-size="14.00">~</text>
<text text-anchor="middle" x="204" y="-47.7" font-family="Times,serif" font-size="14.00">MutableData</text>
</g>
<!-- y&#45;&gt;y_scaled -->
<g id="edge1" class="edge">
<title>y&#45;&gt;y_scaled</title>
<path fill="none" stroke="black" d="M204,-133.68C204,-125.83 204,-117.6 204,-109.76"/>
<polygon fill="black" stroke="black" points="207.5,-109.79 204,-99.79 200.5,-109.79 207.5,-109.79"/>
</g>
<!-- mu&#45;&gt;y -->
<g id="edge17" class="edge">
<title>mu&#45;&gt;y</title>
<path fill="none" stroke="black" d="M203.24,-262.77C203.34,-251.94 203.45,-239.23 203.56,-226.91"/>
<polygon fill="black" stroke="black" points="207.05,-227.31 203.64,-217.28 200.05,-227.25 207.05,-227.31"/>
</g>
<!-- f_trend&#45;&gt;mu -->
<g id="edge16" class="edge">
<title>f_trend&#45;&gt;mu</title>
<path fill="none" stroke="black" d="M204.48,-372.81C204.25,-360.45 203.98,-345.71 203.73,-332.28"/>
<polygon fill="black" stroke="black" points="207.23,-332.35 203.55,-322.42 200.23,-332.48 207.23,-332.35"/>
</g>
<!-- channel_adstock -->
<g id="node7" class="node">
<title>channel_adstock</title>
<polygon fill="none" stroke="black" points="1250,-645.95 1144,-645.95 1144,-588.45 1250,-588.45 1250,-645.95"/>
<text text-anchor="middle" x="1197" y="-628.65" font-family="Times,serif" font-size="14.00">channel_adstock</text>
<text text-anchor="middle" x="1197" y="-612.15" font-family="Times,serif" font-size="14.00">~</text>
<text text-anchor="middle" x="1197" y="-595.65" font-family="Times,serif" font-size="14.00">Deterministic</text>
</g>
<!-- channel_adstock_saturated -->
<g id="node8" class="node">
<title>channel_adstock_saturated</title>
<polygon fill="none" stroke="black" points="1263.75,-540.54 1102.25,-540.54 1102.25,-483.04 1263.75,-483.04 1263.75,-540.54"/>
<text text-anchor="middle" x="1183" y="-523.24" font-family="Times,serif" font-size="14.00">channel_adstock_saturated</text>
<text text-anchor="middle" x="1183" y="-506.74" font-family="Times,serif" font-size="14.00">~</text>
<text text-anchor="middle" x="1183" y="-490.24" font-family="Times,serif" font-size="14.00">Deterministic</text>
</g>
<!-- channel_adstock&#45;&gt;channel_adstock_saturated -->
<g id="edge8" class="edge">
<title>channel_adstock&#45;&gt;channel_adstock_saturated</title>
<path fill="none" stroke="black" d="M1193.21,-588.22C1191.7,-577.07 1189.94,-564.04 1188.3,-551.98"/>
<polygon fill="black" stroke="black" points="1191.8,-551.74 1186.99,-542.3 1184.87,-552.68 1191.8,-551.74"/>
</g>
<!-- channel_contributions -->
<g id="node10" class="node">
<title>channel_contributions</title>
<polygon fill="none" stroke="black" points="1251,-430.63 1115,-430.63 1115,-373.13 1251,-373.13 1251,-430.63"/>
<text text-anchor="middle" x="1183" y="-413.33" font-family="Times,serif" font-size="14.00">channel_contributions</text>
<text text-anchor="middle" x="1183" y="-396.83" font-family="Times,serif" font-size="14.00">~</text>
<text text-anchor="middle" x="1183" y="-380.33" font-family="Times,serif" font-size="14.00">Deterministic</text>
</g>
<!-- channel_adstock_saturated&#45;&gt;channel_contributions -->
<g id="edge11" class="edge">
<title>channel_adstock_saturated&#45;&gt;channel_contributions</title>
<path fill="none" stroke="black" d="M1183,-482.72C1183,-470.36 1183,-455.62 1183,-442.19"/>
<polygon fill="black" stroke="black" points="1186.5,-442.33 1183,-432.33 1179.5,-442.33 1186.5,-442.33"/>
</g>
<!-- channels_scaled -->
<g id="node9" class="node">
<title>channels_scaled</title>
<path fill="lightgrey" stroke="black" d="M1236.88,-755.86C1236.88,-755.86 1157.12,-755.86 1157.12,-755.86 1151.12,-755.86 1145.12,-749.86 1145.12,-743.86 1145.12,-743.86 1145.12,-710.36 1145.12,-710.36 1145.12,-704.36 1151.12,-698.36 1157.12,-698.36 1157.12,-698.36 1236.88,-698.36 1236.88,-698.36 1242.88,-698.36 1248.88,-704.36 1248.88,-710.36 1248.88,-710.36 1248.88,-743.86 1248.88,-743.86 1248.88,-749.86 1242.88,-755.86 1236.88,-755.86"/>
<text text-anchor="middle" x="1197" y="-738.56" font-family="Times,serif" font-size="14.00">channels_scaled</text>
<text text-anchor="middle" x="1197" y="-722.06" font-family="Times,serif" font-size="14.00">~</text>
<text text-anchor="middle" x="1197" y="-705.56" font-family="Times,serif" font-size="14.00">MutableData</text>
</g>
<!-- channels_scaled&#45;&gt;channel_adstock -->
<g id="edge7" class="edge">
<title>channels_scaled&#45;&gt;channel_adstock</title>
<path fill="none" stroke="black" d="M1197,-698.04C1197,-685.68 1197,-670.93 1197,-657.5"/>
<polygon fill="black" stroke="black" points="1200.5,-657.64 1197,-647.64 1193.5,-657.64 1200.5,-657.64"/>
</g>
<!-- channel_contributions&#45;&gt;mu -->
<g id="edge14" class="edge">
<title>channel_contributions&#45;&gt;mu</title>
<path fill="none" stroke="black" d="M1114.8,-400.71C928.52,-399.48 414.47,-390.74 257,-332.63 252.88,-331.12 248.81,-329.18 244.85,-326.99"/>
<polygon fill="black" stroke="black" points="246.93,-324.16 236.58,-321.89 243.25,-330.12 246.93,-324.16"/>
</g>
<!-- fourier_features -->
<g id="node11" class="node">
<title>fourier_features</title>
<path fill="lightgrey" stroke="black" d="M364.12,-540.54C364.12,-540.54 285.88,-540.54 285.88,-540.54 279.88,-540.54 273.88,-534.54 273.88,-528.54 273.88,-528.54 273.88,-495.04 273.88,-495.04 273.88,-489.04 279.88,-483.04 285.88,-483.04 285.88,-483.04 364.12,-483.04 364.12,-483.04 370.12,-483.04 376.12,-489.04 376.12,-495.04 376.12,-495.04 376.12,-528.54 376.12,-528.54 376.12,-534.54 370.12,-540.54 364.12,-540.54"/>
<text text-anchor="middle" x="325" y="-523.24" font-family="Times,serif" font-size="14.00">fourier_features</text>
<text text-anchor="middle" x="325" y="-506.74" font-family="Times,serif" font-size="14.00">~</text>
<text text-anchor="middle" x="325" y="-490.24" font-family="Times,serif" font-size="14.00">MutableData</text>
</g>
<!-- fourier_features&#45;&gt;fourier_contribution -->
<g id="edge12" class="edge">
<title>fourier_features&#45;&gt;fourier_contribution</title>
<path fill="none" stroke="black" d="M308.3,-482.57C297.29,-466.74 281.35,-448.28 262,-438.63 242.12,-428.72 187.84,-434.52 152.91,-430.22"/>
<polygon fill="black" stroke="black" points="153.83,-426.82 143.38,-428.59 152.65,-433.72 153.83,-426.82"/>
</g>
<!-- amplitude_trend -->
<g id="node12" class="node">
<title>amplitude_trend</title>
<ellipse fill="none" stroke="black" cx="527" cy="-511.79" rx="74.42" ry="40.66"/>
<text text-anchor="middle" x="527" y="-523.24" font-family="Times,serif" font-size="14.00">amplitude_trend</text>
<text text-anchor="middle" x="527" y="-506.74" font-family="Times,serif" font-size="14.00">~</text>
<text text-anchor="middle" x="527" y="-490.24" font-family="Times,serif" font-size="14.00">HalfNormal</text>
</g>
<!-- amplitude_trend&#45;&gt;f_trend -->
<g id="edge2" class="edge">
<title>amplitude_trend&#45;&gt;f_trend</title>
<path fill="none" stroke="black" d="M496.59,-474.57C483.36,-461.15 466.81,-447.15 449,-438.63 416.89,-423.28 323.55,-412.79 262.07,-407.32"/>
<polygon fill="black" stroke="black" points="262.37,-403.84 252.11,-406.46 261.77,-410.81 262.37,-403.84"/>
</g>
<!-- nu -->
<g id="node13" class="node">
<title>nu</title>
<ellipse fill="none" stroke="black" cx="309" cy="-291.98" rx="42.6" ry="40.66"/>
<text text-anchor="middle" x="309" y="-303.43" font-family="Times,serif" font-size="14.00">nu</text>
<text text-anchor="middle" x="309" y="-286.93" font-family="Times,serif" font-size="14.00">~</text>
<text text-anchor="middle" x="309" y="-270.43" font-family="Times,serif" font-size="14.00">Gamma</text>
</g>
<!-- nu&#45;&gt;y -->
<g id="edge18" class="edge">
<title>nu&#45;&gt;y</title>
<path fill="none" stroke="black" d="M281.41,-260.68C268.82,-246.84 253.73,-230.27 240.23,-215.45"/>
<polygon fill="black" stroke="black" points="242.84,-213.12 233.52,-208.08 237.66,-217.83 242.84,-213.12"/>
</g>
<!-- ls_trend -->
<g id="node14" class="node">
<title>ls_trend</title>
<ellipse fill="none" stroke="black" cx="675" cy="-511.79" rx="55.33" ry="40.66"/>
<text text-anchor="middle" x="675" y="-523.24" font-family="Times,serif" font-size="14.00">ls_trend</text>
<text text-anchor="middle" x="675" y="-506.74" font-family="Times,serif" font-size="14.00">~</text>
<text text-anchor="middle" x="675" y="-490.24" font-family="Times,serif" font-size="14.00">InvGamma</text>
</g>
<!-- ls_trend&#45;&gt;f_trend -->
<g id="edge4" class="edge">
<title>ls_trend&#45;&gt;f_trend</title>
<path fill="none" stroke="black" d="M651.58,-474.86C640.67,-461.14 626.44,-446.84 610,-438.63 550.37,-408.88 358.37,-403.57 261.71,-402.83"/>
<polygon fill="black" stroke="black" points="261.94,-399.33 251.92,-402.77 261.9,-406.33 261.94,-399.33"/>
</g>
<!-- sigma -->
<g id="node15" class="node">
<title>sigma</title>
<ellipse fill="none" stroke="black" cx="428" cy="-291.98" rx="57.98" ry="40.66"/>
<text text-anchor="middle" x="428" y="-303.43" font-family="Times,serif" font-size="14.00">sigma</text>
<text text-anchor="middle" x="428" y="-286.93" font-family="Times,serif" font-size="14.00">~</text>
<text text-anchor="middle" x="428" y="-270.43" font-family="Times,serif" font-size="14.00">HalfNormal</text>
</g>
<!-- sigma&#45;&gt;y -->
<g id="edge19" class="edge">
<title>sigma&#45;&gt;y</title>
<path fill="none" stroke="black" d="M384.7,-264.62C376.88,-260.06 368.74,-255.47 361,-251.32 326.13,-232.64 285.94,-213.31 254.95,-198.86"/>
<polygon fill="black" stroke="black" points="256.73,-195.83 246.18,-194.8 253.78,-202.18 256.73,-195.83"/>
</g>
<!-- beta_channel -->
<g id="node16" class="node">
<title>beta_channel</title>
<ellipse fill="none" stroke="black" cx="1535" cy="-727.11" rx="61.7" ry="40.66"/>
<text text-anchor="middle" x="1535" y="-738.56" font-family="Times,serif" font-size="14.00">beta_channel</text>
<text text-anchor="middle" x="1535" y="-722.06" font-family="Times,serif" font-size="14.00">~</text>
<text text-anchor="middle" x="1535" y="-705.56" font-family="Times,serif" font-size="14.00">HalfNormal</text>
</g>
<!-- beta_channel&#45;&gt;channel_contributions -->
<g id="edge10" class="edge">
<title>beta_channel&#45;&gt;channel_contributions</title>
<path fill="none" stroke="black" d="M1510.12,-689.4C1467.81,-629.45 1376.31,-510.06 1273,-438.63 1269.19,-436 1265.15,-433.52 1260.99,-431.19"/>
<polygon fill="black" stroke="black" points="1262.91,-428.24 1252.42,-426.72 1259.67,-434.44 1262.91,-428.24"/>
</g>
<!-- lam -->
<g id="node17" class="node">
<title>lam</title>
<ellipse fill="none" stroke="black" cx="1413" cy="-727.11" rx="42.6" ry="40.66"/>
<text text-anchor="middle" x="1413" y="-738.56" font-family="Times,serif" font-size="14.00">lam</text>
<text text-anchor="middle" x="1413" y="-722.06" font-family="Times,serif" font-size="14.00">~</text>
<text text-anchor="middle" x="1413" y="-705.56" font-family="Times,serif" font-size="14.00">Gamma</text>
</g>
<!-- lam&#45;&gt;channel_adstock_saturated -->
<g id="edge9" class="edge">
<title>lam&#45;&gt;channel_adstock_saturated</title>
<path fill="none" stroke="black" d="M1391.25,-691.92C1382.55,-679.38 1371.98,-665.45 1361,-653.95 1322.2,-613.33 1271.48,-574.21 1234.11,-547.5"/>
<polygon fill="black" stroke="black" points="1236.33,-544.79 1226.14,-541.86 1232.28,-550.5 1236.33,-544.79"/>
</g>
<!-- alpha -->
<g id="node18" class="node">
<title>alpha</title>
<ellipse fill="none" stroke="black" cx="1320" cy="-727.11" rx="32" ry="40.66"/>
<text text-anchor="middle" x="1320" y="-738.56" font-family="Times,serif" font-size="14.00">alpha</text>
<text text-anchor="middle" x="1320" y="-722.06" font-family="Times,serif" font-size="14.00">~</text>
<text text-anchor="middle" x="1320" y="-705.56" font-family="Times,serif" font-size="14.00">Beta</text>
</g>
<!-- alpha&#45;&gt;channel_adstock -->
<g id="edge6" class="edge">
<title>alpha&#45;&gt;channel_adstock</title>
<path fill="none" stroke="black" d="M1304.38,-691.43C1297.2,-678.4 1287.65,-664.26 1276,-653.95 1271.16,-649.67 1265.72,-645.82 1260.02,-642.38"/>
<polygon fill="black" stroke="black" points="1262.01,-639.48 1251.57,-637.69 1258.62,-645.6 1262.01,-639.48"/>
</g>
<!-- beta_fourier -->
<g id="node19" class="node">
<title>beta_fourier</title>
<ellipse fill="none" stroke="black" cx="806" cy="-511.79" rx="57.98" ry="40.66"/>
<text text-anchor="middle" x="806" y="-523.24" font-family="Times,serif" font-size="14.00">beta_fourier</text>
<text text-anchor="middle" x="806" y="-506.74" font-family="Times,serif" font-size="14.00">~</text>
<text text-anchor="middle" x="806" y="-490.24" font-family="Times,serif" font-size="14.00">Normal</text>
</g>
<!-- beta_fourier&#45;&gt;fourier_contribution -->
<g id="edge13" class="edge">
<title>beta_fourier&#45;&gt;fourier_contribution</title>
<path fill="none" stroke="black" d="M782.25,-474.6C770.97,-460.66 756.19,-446.27 739,-438.63 710.83,-426.12 241.08,-435.61 153.67,-429.86"/>
<polygon fill="black" stroke="black" points="154.06,-426.38 143.75,-428.81 153.32,-433.35 154.06,-426.38"/>
</g>
<!-- f_trend_hsgp_coeffs_ -->
<g id="node20" class="node">
<title>f_trend_hsgp_coeffs_</title>
<ellipse fill="none" stroke="black" cx="983" cy="-511.79" rx="94.58" ry="40.66"/>
<text text-anchor="middle" x="983" y="-523.24" font-family="Times,serif" font-size="14.00">f_trend_hsgp_coeffs_</text>
<text text-anchor="middle" x="983" y="-506.74" font-family="Times,serif" font-size="14.00">~</text>
<text text-anchor="middle" x="983" y="-490.24" font-family="Times,serif" font-size="14.00">Normal</text>
</g>
<!-- f_trend_hsgp_coeffs_&#45;&gt;f_trend -->
<g id="edge5" class="edge">
<title>f_trend_hsgp_coeffs_&#45;&gt;f_trend</title>
<path fill="none" stroke="black" d="M941.35,-474.98C922.62,-461.02 899.48,-446.5 876,-438.63 818.59,-419.4 413.06,-407.85 261.75,-404.17"/>
<polygon fill="black" stroke="black" points="262.04,-400.68 251.96,-403.94 261.87,-407.68 262.04,-400.68"/>
</g>
</g>
</svg>
