<?xml version="1.0" encoding="UTF-8" standalone="no"?>
<!DOCTYPE svg PUBLIC "-//W3C//DTD SVG 1.1//EN"
 "http://www.w3.org/Graphics/SVG/1.1/DTD/svg11.dtd">
<!-- Generated by graphviz version 9.0.0 (20230911.1827)
 -->
<!-- Pages: 1 -->
<svg width="1673pt" height="787pt"
 viewBox="0.00 0.00 1673.03 787.27" xmlns="http://www.w3.org/2000/svg" xmlns:xlink="http://www.w3.org/1999/xlink">
<g id="graph0" class="graph" transform="scale(1 1) rotate(0) translate(4 783.27)">
<polygon fill="white" stroke="none" points="-4,4 -4,-783.27 1669.03,-783.27 1669.03,4 -4,4"/>
<g id="clust1" class="cluster">
<title>clusterdate (131)</title>
<path fill="none" stroke="black" d="M20,-8C20,-8 246,-8 246,-8 252,-8 258,-14 258,-20 258,-20 258,-536.54 258,-536.54 258,-542.54 252,-548.54 246,-548.54 246,-548.54 20,-548.54 20,-548.54 14,-548.54 8,-542.54 8,-536.54 8,-536.54 8,-20 8,-20 8,-14 14,-8 20,-8"/>
<text text-anchor="middle" x="222.25" y="-15.2" font-family="Times,serif" font-size="14.00">date (131)</text>
</g>
<g id="clust2" class="cluster">
<title>clusterdate (131) x channel (2)</title>
<path fill="none" stroke="black" d="M1106,-340.63C1106,-340.63 1312,-340.63 1312,-340.63 1318,-340.63 1324,-346.63 1324,-352.63 1324,-352.63 1324,-759.27 1324,-759.27 1324,-765.27 1318,-771.27 1312,-771.27 1312,-771.27 1106,-771.27 1106,-771.27 1100,-771.27 1094,-765.27 1094,-759.27 1094,-759.27 1094,-352.63 1094,-352.63 1094,-346.63 1100,-340.63 1106,-340.63"/>
<text text-anchor="middle" x="1250.38" y="-347.83" font-family="Times,serif" font-size="14.00">date (131) x channel (2)</text>
</g>
<g id="clust3" class="cluster">
<title>clusterdate (131) x fourier_mode (6)</title>
<path fill="none" stroke="black" d="M278,-450.54C278,-450.54 433,-450.54 433,-450.54 439,-450.54 445,-456.54 445,-462.54 445,-462.54 445,-536.54 445,-536.54 445,-542.54 439,-548.54 433,-548.54 433,-548.54 278,-548.54 278,-548.54 272,-548.54 266,-542.54 266,-536.54 266,-536.54 266,-462.54 266,-462.54 266,-456.54 272,-450.54 278,-450.54"/>
<text text-anchor="middle" x="355.25" y="-457.74" font-family="Times,serif" font-size="14.00">date (131) x fourier_mode (6)</text>
</g>
<g id="clust4" class="cluster">
<title>clusterchannel (2)</title>
<path fill="none" stroke="black" d="M1344,-450.54C1344,-450.54 1634,-450.54 1634,-450.54 1640,-450.54 1646,-456.54 1646,-462.54 1646,-462.54 1646,-665.77 1646,-665.77 1646,-671.77 1640,-677.77 1634,-677.77 1634,-677.77 1344,-677.77 1344,-677.77 1338,-677.77 1332,-671.77 1332,-665.77 1332,-665.77 1332,-462.54 1332,-462.54 1332,-456.54 1338,-450.54 1344,-450.54"/>
<text text-anchor="middle" x="1607.25" y="-457.74" font-family="Times,serif" font-size="14.00">channel (2)</text>
</g>
<g id="clust5" class="cluster">
<title>clusterfourier_mode (6)</title>
<path fill="none" stroke="black" d="M752,-438.63C752,-438.63 860,-438.63 860,-438.63 866,-438.63 872,-444.63 872,-450.63 872,-450.63 872,-548.45 872,-548.45 872,-554.45 866,-560.45 860,-560.45 860,-560.45 752,-560.45 752,-560.45 746,-560.45 740,-554.45 740,-548.45 740,-548.45 740,-450.63 740,-450.63 740,-444.63 746,-438.63 752,-438.63"/>
<text text-anchor="middle" x="817.12" y="-445.83" font-family="Times,serif" font-size="14.00">fourier_mode (6)</text>
</g>
<g id="clust6" class="cluster">
<title>cluster20</title>
<path fill="none" stroke="black" d="M892,-438.63C892,-438.63 1074,-438.63 1074,-438.63 1080,-438.63 1086,-444.63 1086,-450.63 1086,-450.63 1086,-548.45 1086,-548.45 1086,-554.45 1080,-560.45 1074,-560.45 1074,-560.45 892,-560.45 892,-560.45 886,-560.45 880,-554.45 880,-548.45 880,-548.45 880,-450.63 880,-450.63 880,-444.63 886,-438.63 892,-438.63"/>
<text text-anchor="middle" x="1071.25" y="-445.83" font-family="Times,serif" font-size="14.00">20</text>
</g>
<!-- index_scaled -->
<g id="node1" class="node">
<title>index_scaled</title>
<path fill="lightgrey" stroke="black" d="M236.62,-540.54C236.62,-540.54 173.38,-540.54 173.38,-540.54 167.38,-540.54 161.38,-534.54 161.38,-528.54 161.38,-528.54 161.38,-495.04 161.38,-495.04 161.38,-489.04 167.38,-483.04 173.38,-483.04 173.38,-483.04 236.62,-483.04 236.62,-483.04 242.62,-483.04 248.62,-489.04 248.62,-495.04 248.62,-495.04 248.62,-528.54 248.62,-528.54 248.62,-534.54 242.62,-540.54 236.62,-540.54"/>
<text text-anchor="middle" x="205" y="-523.24" font-family="Times,serif" font-size="14.00">index_scaled</text>
<text text-anchor="middle" x="205" y="-506.74" font-family="Times,serif" font-size="14.00">~</text>
<text text-anchor="middle" x="205" y="-490.24" font-family="Times,serif" font-size="14.00">MutableData</text>
</g>
<!-- f_trend -->
<g id="node6" class="node">
<title>f_trend</title>
<polygon fill="none" stroke="black" points="250.12,-430.63 159.88,-430.63 159.88,-373.13 250.12,-373.13 250.12,-430.63"/>
<text text-anchor="middle" x="205" y="-413.33" font-family="Times,serif" font-size="14.00">f_trend</text>
<text text-anchor="middle" x="205" y="-396.83" font-family="Times,serif" font-size="14.00">~</text>
<text text-anchor="middle" x="205" y="-380.33" font-family="Times,serif" font-size="14.00">Deterministic</text>
</g>
<!-- index_scaled&#45;&gt;f_trend -->
<g id="edge3" class="edge">
<title>index_scaled&#45;&gt;f_trend</title>
<path fill="none" stroke="black" d="M205,-482.72C205,-470.36 205,-455.62 205,-442.19"/>
<polygon fill="black" stroke="black" points="208.5,-442.33 205,-432.33 201.5,-442.33 208.5,-442.33"/>
</g>
<!-- fourier_contribution -->
<g id="node2" class="node">
<title>fourier_contribution</title>
<polygon fill="none" stroke="black" points="141.75,-430.63 16.25,-430.63 16.25,-373.13 141.75,-373.13 141.75,-430.63"/>
<text text-anchor="middle" x="79" y="-413.33" font-family="Times,serif" font-size="14.00">fourier_contribution</text>
<text text-anchor="middle" x="79" y="-396.83" font-family="Times,serif" font-size="14.00">~</text>
<text text-anchor="middle" x="79" y="-380.33" font-family="Times,serif" font-size="14.00">Deterministic</text>
</g>
<!-- mu -->
<g id="node4" class="node">
<title>mu</title>
<polygon fill="none" stroke="black" points="248.12,-320.73 157.88,-320.73 157.88,-263.23 248.12,-263.23 248.12,-320.73"/>
<text text-anchor="middle" x="203" y="-303.43" font-family="Times,serif" font-size="14.00">mu</text>
<text text-anchor="middle" x="203" y="-286.93" font-family="Times,serif" font-size="14.00">~</text>
<text text-anchor="middle" x="203" y="-270.43" font-family="Times,serif" font-size="14.00">Deterministic</text>
</g>
<!-- fourier_contribution&#45;&gt;mu -->
<g id="edge18" class="edge">
<title>fourier_contribution&#45;&gt;mu</title>
<path fill="none" stroke="black" d="M111.26,-372.81C126.9,-359.2 145.85,-342.71 162.46,-328.25"/>
<polygon fill="black" stroke="black" points="164.52,-331.1 169.76,-321.9 159.92,-325.82 164.52,-331.1"/>
</g>
<!-- y -->
<g id="node3" class="node">
<title>y</title>
<ellipse fill="lightgrey" stroke="black" cx="204" cy="-174.66" rx="46.32" ry="40.66"/>
<text text-anchor="middle" x="204" y="-186.11" font-family="Times,serif" font-size="14.00">y</text>
<text text-anchor="middle" x="204" y="-169.61" font-family="Times,serif" font-size="14.00">~</text>
<text text-anchor="middle" x="204" y="-153.11" font-family="Times,serif" font-size="14.00">StudentT</text>
</g>
<!-- y_scaled -->
<g id="node5" class="node">
<title>y_scaled</title>
<path fill="lightgrey" stroke="black" d="M235.62,-98C235.62,-98 172.38,-98 172.38,-98 166.38,-98 160.38,-92 160.38,-86 160.38,-86 160.38,-52.5 160.38,-52.5 160.38,-46.5 166.38,-40.5 172.38,-40.5 172.38,-40.5 235.62,-40.5 235.62,-40.5 241.62,-40.5 247.62,-46.5 247.62,-52.5 247.62,-52.5 247.62,-86 247.62,-86 247.62,-92 241.62,-98 235.62,-98"/>
<text text-anchor="middle" x="204" y="-80.7" font-family="Times,serif" font-size="14.00">y_scaled</text>
<text text-anchor="middle" x="204" y="-64.2" font-family="Times,serif" font-size="14.00">~</text>
<text text-anchor="middle" x="204" y="-47.7" font-family="Times,serif" font-size="14.00">MutableData</text>
</g>
<!-- y&#45;&gt;y_scaled -->
<g id="edge1" class="edge">
<title>y&#45;&gt;y_scaled</title>
<path fill="none" stroke="black" d="M204,-133.68C204,-125.83 204,-117.6 204,-109.76"/>
<polygon fill="black" stroke="black" points="207.5,-109.79 204,-99.79 200.5,-109.79 207.5,-109.79"/>
</g>
<!-- mu&#45;&gt;y -->
<g id="edge20" class="edge">
<title>mu&#45;&gt;y</title>
<path fill="none" stroke="black" d="M203.24,-262.77C203.34,-251.94 203.45,-239.23 203.56,-226.91"/>
<polygon fill="black" stroke="black" points="207.05,-227.31 203.64,-217.28 200.05,-227.25 207.05,-227.31"/>
</g>
<!-- f_trend&#45;&gt;mu -->
<g id="edge19" class="edge">
<title>f_trend&#45;&gt;mu</title>
<path fill="none" stroke="black" d="M204.48,-372.81C204.25,-360.45 203.98,-345.71 203.73,-332.28"/>
<polygon fill="black" stroke="black" points="207.23,-332.35 203.55,-322.42 200.23,-332.48 207.23,-332.35"/>
</g>
<!-- channel_adstock_saturated -->
<g id="node7" class="node">
<title>channel_adstock_saturated</title>
<polygon fill="none" stroke="black" points="1315.75,-540.54 1154.25,-540.54 1154.25,-483.04 1315.75,-483.04 1315.75,-540.54"/>
<text text-anchor="middle" x="1235" y="-523.24" font-family="Times,serif" font-size="14.00">channel_adstock_saturated</text>
<text text-anchor="middle" x="1235" y="-506.74" font-family="Times,serif" font-size="14.00">~</text>
<text text-anchor="middle" x="1235" y="-490.24" font-family="Times,serif" font-size="14.00">Deterministic</text>
</g>
<!-- channel_contributions -->
<g id="node9" class="node">
<title>channel_contributions</title>
<polygon fill="none" stroke="black" points="1303,-430.63 1167,-430.63 1167,-373.13 1303,-373.13 1303,-430.63"/>
<text text-anchor="middle" x="1235" y="-413.33" font-family="Times,serif" font-size="14.00">channel_contributions</text>
<text text-anchor="middle" x="1235" y="-396.83" font-family="Times,serif" font-size="14.00">~</text>
<text text-anchor="middle" x="1235" y="-380.33" font-family="Times,serif" font-size="14.00">Deterministic</text>
</g>
<!-- channel_adstock_saturated&#45;&gt;channel_contributions -->
<g id="edge14" class="edge">
<title>channel_adstock_saturated&#45;&gt;channel_contributions</title>
<path fill="none" stroke="black" d="M1235,-482.72C1235,-470.36 1235,-455.62 1235,-442.19"/>
<polygon fill="black" stroke="black" points="1238.5,-442.33 1235,-432.33 1231.5,-442.33 1238.5,-442.33"/>
</g>
<!-- beta_channel -->
<g id="node17" class="node">
<title>beta_channel</title>
<polygon fill="none" stroke="black" points="1528.12,-540.54 1437.88,-540.54 1437.88,-483.04 1528.12,-483.04 1528.12,-540.54"/>
<text text-anchor="middle" x="1483" y="-523.24" font-family="Times,serif" font-size="14.00">beta_channel</text>
<text text-anchor="middle" x="1483" y="-506.74" font-family="Times,serif" font-size="14.00">~</text>
<text text-anchor="middle" x="1483" y="-490.24" font-family="Times,serif" font-size="14.00">Deterministic</text>
</g>
<!-- channel_adstock_saturated&#45;&gt;beta_channel -->
<g id="edge11" class="edge">
<title>channel_adstock_saturated&#45;&gt;beta_channel</title>
<path fill="none" stroke="black" d="M1315.89,-511.79C1352.67,-511.79 1389.44,-511.79 1426.22,-511.79"/>
<polygon fill="black" stroke="black" points="1426.12,-515.29 1436.12,-511.79 1426.12,-508.29 1426.12,-515.29"/>
</g>
<!-- channels_scaled -->
<g id="node8" class="node">
<title>channels_scaled</title>
<path fill="lightgrey" stroke="black" d="M1193.88,-763.27C1193.88,-763.27 1114.12,-763.27 1114.12,-763.27 1108.12,-763.27 1102.12,-757.27 1102.12,-751.27 1102.12,-751.27 1102.12,-717.77 1102.12,-717.77 1102.12,-711.77 1108.12,-705.77 1114.12,-705.77 1114.12,-705.77 1193.88,-705.77 1193.88,-705.77 1199.88,-705.77 1205.88,-711.77 1205.88,-717.77 1205.88,-717.77 1205.88,-751.27 1205.88,-751.27 1205.88,-757.27 1199.88,-763.27 1193.88,-763.27"/>
<text text-anchor="middle" x="1154" y="-745.97" font-family="Times,serif" font-size="14.00">channels_scaled</text>
<text text-anchor="middle" x="1154" y="-729.47" font-family="Times,serif" font-size="14.00">~</text>
<text text-anchor="middle" x="1154" y="-712.97" font-family="Times,serif" font-size="14.00">MutableData</text>
</g>
<!-- channel_adstock -->
<g id="node11" class="node">
<title>channel_adstock</title>
<polygon fill="none" stroke="black" points="1288,-657.86 1182,-657.86 1182,-600.36 1288,-600.36 1288,-657.86"/>
<text text-anchor="middle" x="1235" y="-640.56" font-family="Times,serif" font-size="14.00">channel_adstock</text>
<text text-anchor="middle" x="1235" y="-624.06" font-family="Times,serif" font-size="14.00">~</text>
<text text-anchor="middle" x="1235" y="-607.56" font-family="Times,serif" font-size="14.00">Deterministic</text>
</g>
<!-- channels_scaled&#45;&gt;channel_adstock -->
<g id="edge7" class="edge">
<title>channels_scaled&#45;&gt;channel_adstock</title>
<path fill="none" stroke="black" d="M1175.92,-705.54C1185.19,-693.69 1196.13,-679.74 1206.05,-667.07"/>
<polygon fill="black" stroke="black" points="1208.72,-669.34 1212.13,-659.31 1203.21,-665.02 1208.72,-669.34"/>
</g>
<!-- channel_contributions&#45;&gt;mu -->
<g id="edge17" class="edge">
<title>channel_contributions&#45;&gt;mu</title>
<path fill="none" stroke="black" d="M1166.83,-401.02C973.44,-400.65 424.48,-394.07 257,-332.63 252.88,-331.12 248.8,-329.2 244.84,-327.01"/>
<polygon fill="black" stroke="black" points="246.92,-324.18 236.57,-321.91 243.25,-330.14 246.92,-324.18"/>
</g>
<!-- channels_cost -->
<g id="node10" class="node">
<title>channels_cost</title>
<path fill="lightgrey" stroke="black" d="M1303.88,-763.27C1303.88,-763.27 1236.12,-763.27 1236.12,-763.27 1230.12,-763.27 1224.12,-757.27 1224.12,-751.27 1224.12,-751.27 1224.12,-717.77 1224.12,-717.77 1224.12,-711.77 1230.12,-705.77 1236.12,-705.77 1236.12,-705.77 1303.88,-705.77 1303.88,-705.77 1309.88,-705.77 1315.88,-711.77 1315.88,-717.77 1315.88,-717.77 1315.88,-751.27 1315.88,-751.27 1315.88,-757.27 1309.88,-763.27 1303.88,-763.27"/>
<text text-anchor="middle" x="1270" y="-745.97" font-family="Times,serif" font-size="14.00">channels_cost</text>
<text text-anchor="middle" x="1270" y="-729.47" font-family="Times,serif" font-size="14.00">~</text>
<text text-anchor="middle" x="1270" y="-712.97" font-family="Times,serif" font-size="14.00">MutableData</text>
</g>
<!-- channels_cost&#45;&gt;beta_channel -->
<g id="edge10" class="edge">
<title>channels_cost&#45;&gt;beta_channel</title>
<path fill="none" stroke="black" d="M1316.14,-733.85C1407.16,-733.42 1604.75,-726.73 1647,-677.77 1672.94,-647.72 1668.4,-621.89 1647,-588.45 1623.39,-551.55 1576.7,-532.4 1539.16,-522.6"/>
<polygon fill="black" stroke="black" points="1540.36,-519.29 1529.81,-520.33 1538.7,-526.09 1540.36,-519.29"/>
</g>
<!-- channel_adstock&#45;&gt;channel_adstock_saturated -->
<g id="edge8" class="edge">
<title>channel_adstock&#45;&gt;channel_adstock_saturated</title>
<path fill="none" stroke="black" d="M1235,-599.9C1235,-585.55 1235,-567.88 1235,-552.21"/>
<polygon fill="black" stroke="black" points="1238.5,-552.23 1235,-542.23 1231.5,-552.23 1238.5,-552.23"/>
</g>
<!-- fourier_features -->
<g id="node12" class="node">
<title>fourier_features</title>
<path fill="lightgrey" stroke="black" d="M364.12,-540.54C364.12,-540.54 285.88,-540.54 285.88,-540.54 279.88,-540.54 273.88,-534.54 273.88,-528.54 273.88,-528.54 273.88,-495.04 273.88,-495.04 273.88,-489.04 279.88,-483.04 285.88,-483.04 285.88,-483.04 364.12,-483.04 364.12,-483.04 370.12,-483.04 376.12,-489.04 376.12,-495.04 376.12,-495.04 376.12,-528.54 376.12,-528.54 376.12,-534.54 370.12,-540.54 364.12,-540.54"/>
<text text-anchor="middle" x="325" y="-523.24" font-family="Times,serif" font-size="14.00">fourier_features</text>
<text text-anchor="middle" x="325" y="-506.74" font-family="Times,serif" font-size="14.00">~</text>
<text text-anchor="middle" x="325" y="-490.24" font-family="Times,serif" font-size="14.00">MutableData</text>
</g>
<!-- fourier_features&#45;&gt;fourier_contribution -->
<g id="edge15" class="edge">
<title>fourier_features&#45;&gt;fourier_contribution</title>
<path fill="none" stroke="black" d="M308.3,-482.57C297.29,-466.74 281.35,-448.28 262,-438.63 242.12,-428.72 187.84,-434.52 152.91,-430.22"/>
<polygon fill="black" stroke="black" points="153.83,-426.82 143.38,-428.59 152.65,-433.72 153.83,-426.82"/>
</g>
<!-- amplitude_trend -->
<g id="node13" class="node">
<title>amplitude_trend</title>
<ellipse fill="none" stroke="black" cx="527" cy="-511.79" rx="74.42" ry="40.66"/>
<text text-anchor="middle" x="527" y="-523.24" font-family="Times,serif" font-size="14.00">amplitude_trend</text>
<text text-anchor="middle" x="527" y="-506.74" font-family="Times,serif" font-size="14.00">~</text>
<text text-anchor="middle" x="527" y="-490.24" font-family="Times,serif" font-size="14.00">HalfNormal</text>
</g>
<!-- amplitude_trend&#45;&gt;f_trend -->
<g id="edge2" class="edge">
<title>amplitude_trend&#45;&gt;f_trend</title>
<path fill="none" stroke="black" d="M496.59,-474.57C483.36,-461.15 466.81,-447.15 449,-438.63 416.89,-423.28 323.55,-412.79 262.07,-407.32"/>
<polygon fill="black" stroke="black" points="262.37,-403.84 252.11,-406.46 261.77,-410.81 262.37,-403.84"/>
</g>
<!-- nu -->
<g id="node14" class="node">
<title>nu</title>
<ellipse fill="none" stroke="black" cx="309" cy="-291.98" rx="42.6" ry="40.66"/>
<text text-anchor="middle" x="309" y="-303.43" font-family="Times,serif" font-size="14.00">nu</text>
<text text-anchor="middle" x="309" y="-286.93" font-family="Times,serif" font-size="14.00">~</text>
<text text-anchor="middle" x="309" y="-270.43" font-family="Times,serif" font-size="14.00">Gamma</text>
</g>
<!-- nu&#45;&gt;y -->
<g id="edge21" class="edge">
<title>nu&#45;&gt;y</title>
<path fill="none" stroke="black" d="M281.41,-260.68C268.82,-246.84 253.73,-230.27 240.23,-215.45"/>
<polygon fill="black" stroke="black" points="242.84,-213.12 233.52,-208.08 237.66,-217.83 242.84,-213.12"/>
</g>
<!-- ls_trend -->
<g id="node15" class="node">
<title>ls_trend</title>
<ellipse fill="none" stroke="black" cx="675" cy="-511.79" rx="55.33" ry="40.66"/>
<text text-anchor="middle" x="675" y="-523.24" font-family="Times,serif" font-size="14.00">ls_trend</text>
<text text-anchor="middle" x="675" y="-506.74" font-family="Times,serif" font-size="14.00">~</text>
<text text-anchor="middle" x="675" y="-490.24" font-family="Times,serif" font-size="14.00">InvGamma</text>
</g>
<!-- ls_trend&#45;&gt;f_trend -->
<g id="edge4" class="edge">
<title>ls_trend&#45;&gt;f_trend</title>
<path fill="none" stroke="black" d="M651.58,-474.86C640.67,-461.14 626.44,-446.84 610,-438.63 550.37,-408.88 358.37,-403.57 261.71,-402.83"/>
<polygon fill="black" stroke="black" points="261.94,-399.33 251.92,-402.77 261.9,-406.33 261.94,-399.33"/>
</g>
<!-- sigma -->
<g id="node16" class="node">
<title>sigma</title>
<ellipse fill="none" stroke="black" cx="428" cy="-291.98" rx="57.98" ry="40.66"/>
<text text-anchor="middle" x="428" y="-303.43" font-family="Times,serif" font-size="14.00">sigma</text>
<text text-anchor="middle" x="428" y="-286.93" font-family="Times,serif" font-size="14.00">~</text>
<text text-anchor="middle" x="428" y="-270.43" font-family="Times,serif" font-size="14.00">HalfNormal</text>
</g>
<!-- sigma&#45;&gt;y -->
<g id="edge22" class="edge">
<title>sigma&#45;&gt;y</title>
<path fill="none" stroke="black" d="M384.7,-264.62C376.88,-260.06 368.74,-255.47 361,-251.32 326.13,-232.64 285.94,-213.31 254.95,-198.86"/>
<polygon fill="black" stroke="black" points="256.73,-195.83 246.18,-194.8 253.78,-202.18 256.73,-195.83"/>
</g>
<!-- beta_channel&#45;&gt;channel_contributions -->
<g id="edge13" class="edge">
<title>beta_channel&#45;&gt;channel_contributions</title>
<path fill="none" stroke="black" d="M1437.59,-488.65C1406.89,-473.93 1365.3,-454.46 1328,-438.63 1323.4,-436.68 1318.65,-434.71 1313.84,-432.76"/>
<polygon fill="black" stroke="black" points="1315.27,-429.56 1304.68,-429.08 1312.66,-436.05 1315.27,-429.56"/>
</g>
<!-- lam -->
<g id="node18" class="node">
<title>lam</title>
<ellipse fill="none" stroke="black" cx="1465" cy="-629.11" rx="42.6" ry="40.66"/>
<text text-anchor="middle" x="1465" y="-640.56" font-family="Times,serif" font-size="14.00">lam</text>
<text text-anchor="middle" x="1465" y="-624.06" font-family="Times,serif" font-size="14.00">~</text>
<text text-anchor="middle" x="1465" y="-607.56" font-family="Times,serif" font-size="14.00">Gamma</text>
</g>
<!-- lam&#45;&gt;channel_adstock_saturated -->
<g id="edge9" class="edge">
<title>lam&#45;&gt;channel_adstock_saturated</title>
<path fill="none" stroke="black" d="M1433.39,-601.39C1426.9,-596.67 1419.93,-592.1 1413,-588.45 1377.81,-569.91 1364.7,-575.79 1328,-560.45 1317.71,-556.15 1306.99,-551.16 1296.65,-546.07"/>
<polygon fill="black" stroke="black" points="1298.32,-543 1287.82,-541.64 1295.19,-549.25 1298.32,-543"/>
</g>
<!-- alpha -->
<g id="node19" class="node">
<title>alpha</title>
<ellipse fill="none" stroke="black" cx="1372" cy="-629.11" rx="32" ry="40.66"/>
<text text-anchor="middle" x="1372" y="-640.56" font-family="Times,serif" font-size="14.00">alpha</text>
<text text-anchor="middle" x="1372" y="-624.06" font-family="Times,serif" font-size="14.00">~</text>
<text text-anchor="middle" x="1372" y="-607.56" font-family="Times,serif" font-size="14.00">Beta</text>
</g>
<!-- alpha&#45;&gt;channel_adstock -->
<g id="edge6" class="edge">
<title>alpha&#45;&gt;channel_adstock</title>
<path fill="none" stroke="black" d="M1339.61,-629.11C1326.24,-629.11 1312.86,-629.11 1299.48,-629.11"/>
<polygon fill="black" stroke="black" points="1299.76,-625.61 1289.76,-629.11 1299.76,-632.61 1299.76,-625.61"/>
</g>
<!-- roas -->
<g id="node20" class="node">
<title>roas</title>
<ellipse fill="none" stroke="black" cx="1582" cy="-629.11" rx="56.39" ry="40.66"/>
<text text-anchor="middle" x="1582" y="-640.56" font-family="Times,serif" font-size="14.00">roas</text>
<text text-anchor="middle" x="1582" y="-624.06" font-family="Times,serif" font-size="14.00">~</text>
<text text-anchor="middle" x="1582" y="-607.56" font-family="Times,serif" font-size="14.00">LogNormal</text>
</g>
<!-- roas&#45;&gt;beta_channel -->
<g id="edge12" class="edge">
<title>roas&#45;&gt;beta_channel</title>
<path fill="none" stroke="black" d="M1552.83,-594.14C1540.74,-580.05 1526.69,-563.68 1514.38,-549.34"/>
<polygon fill="black" stroke="black" points="1517.12,-547.16 1507.95,-541.86 1511.81,-551.72 1517.12,-547.16"/>
</g>
<!-- beta_fourier -->
<g id="node21" class="node">
<title>beta_fourier</title>
<ellipse fill="none" stroke="black" cx="806" cy="-511.79" rx="57.98" ry="40.66"/>
<text text-anchor="middle" x="806" y="-523.24" font-family="Times,serif" font-size="14.00">beta_fourier</text>
<text text-anchor="middle" x="806" y="-506.74" font-family="Times,serif" font-size="14.00">~</text>
<text text-anchor="middle" x="806" y="-490.24" font-family="Times,serif" font-size="14.00">Normal</text>
</g>
<!-- beta_fourier&#45;&gt;fourier_contribution -->
<g id="edge16" class="edge">
<title>beta_fourier&#45;&gt;fourier_contribution</title>
<path fill="none" stroke="black" d="M782.25,-474.6C770.97,-460.66 756.19,-446.27 739,-438.63 710.83,-426.12 241.08,-435.61 153.67,-429.86"/>
<polygon fill="black" stroke="black" points="154.06,-426.38 143.75,-428.81 153.32,-433.35 154.06,-426.38"/>
</g>
<!-- f_trend_hsgp_coeffs_ -->
<g id="node22" class="node">
<title>f_trend_hsgp_coeffs_</title>
<ellipse fill="none" stroke="black" cx="983" cy="-511.79" rx="94.58" ry="40.66"/>
<text text-anchor="middle" x="983" y="-523.24" font-family="Times,serif" font-size="14.00">f_trend_hsgp_coeffs_</text>
<text text-anchor="middle" x="983" y="-506.74" font-family="Times,serif" font-size="14.00">~</text>
<text text-anchor="middle" x="983" y="-490.24" font-family="Times,serif" font-size="14.00">Normal</text>
</g>
<!-- f_trend_hsgp_coeffs_&#45;&gt;f_trend -->
<g id="edge5" class="edge">
<title>f_trend_hsgp_coeffs_&#45;&gt;f_trend</title>
<path fill="none" stroke="black" d="M941.35,-474.98C922.62,-461.02 899.48,-446.5 876,-438.63 818.59,-419.4 413.06,-407.85 261.75,-404.17"/>
<polygon fill="black" stroke="black" points="262.04,-400.68 251.96,-403.94 261.87,-407.68 262.04,-400.68"/>
</g>
</g>
</svg>
