<?xml version="1.0" encoding="UTF-8" standalone="no"?>
<!DOCTYPE svg PUBLIC "-//W3C//DTD SVG 1.1//EN"
 "http://www.w3.org/Graphics/SVG/1.1/DTD/svg11.dtd">
<!-- Generated by graphviz version 9.0.0 (20230911.1827)
 -->
<!-- Pages: 1 -->
<svg width="1949pt" height="792pt"
 viewBox="0.00 0.00 1948.98 791.77" xmlns="http://www.w3.org/2000/svg" xmlns:xlink="http://www.w3.org/1999/xlink">
<g id="graph0" class="graph" transform="scale(1 1) rotate(0) translate(4 787.77)">
<polygon fill="white" stroke="none" points="-4,4 -4,-787.77 1944.98,-787.77 1944.98,4 -4,4"/>
<g id="clust1" class="cluster">
<title>clusterdate (131)</title>
<path fill="none" stroke="black" d="M135.98,-8C135.98,-8 473.98,-8 473.98,-8 479.98,-8 485.98,-14 485.98,-20 485.98,-20 485.98,-536.54 485.98,-536.54 485.98,-542.54 479.98,-548.54 473.98,-548.54 473.98,-548.54 135.98,-548.54 135.98,-548.54 129.98,-548.54 123.98,-542.54 123.98,-536.54 123.98,-536.54 123.98,-20 123.98,-20 123.98,-14 129.98,-8 135.98,-8"/>
<text text-anchor="middle" x="450.23" y="-15.2" font-family="Times,serif" font-size="14.00">date (131)</text>
</g>
<g id="clust2" class="cluster">
<title>clusterdate (131) x channel (2)</title>
<path fill="none" stroke="black" d="M1433.98,-340.63C1433.98,-340.63 1587.98,-340.63 1587.98,-340.63 1593.98,-340.63 1599.98,-346.63 1599.98,-352.63 1599.98,-352.63 1599.98,-751.86 1599.98,-751.86 1599.98,-757.86 1593.98,-763.86 1587.98,-763.86 1587.98,-763.86 1433.98,-763.86 1433.98,-763.86 1427.98,-763.86 1421.98,-757.86 1421.98,-751.86 1421.98,-751.86 1421.98,-352.63 1421.98,-352.63 1421.98,-346.63 1427.98,-340.63 1433.98,-340.63"/>
<text text-anchor="middle" x="1526.36" y="-347.83" font-family="Times,serif" font-size="14.00">date (131) x channel (2)</text>
</g>
<g id="clust3" class="cluster">
<title>clusterdate (131) x fourier_mode (6)</title>
<path fill="none" stroke="black" d="M505.98,-450.54C505.98,-450.54 660.98,-450.54 660.98,-450.54 666.98,-450.54 672.98,-456.54 672.98,-462.54 672.98,-462.54 672.98,-536.54 672.98,-536.54 672.98,-542.54 666.98,-548.54 660.98,-548.54 660.98,-548.54 505.98,-548.54 505.98,-548.54 499.98,-548.54 493.98,-542.54 493.98,-536.54 493.98,-536.54 493.98,-462.54 493.98,-462.54 493.98,-456.54 499.98,-450.54 505.98,-450.54"/>
<text text-anchor="middle" x="583.23" y="-457.74" font-family="Times,serif" font-size="14.00">date (131) x fourier_mode (6)</text>
</g>
<g id="clust4" class="cluster">
<title>clusterchannel (2)</title>
<path fill="none" stroke="black" d="M1619.98,-653.95C1619.98,-653.95 1920.98,-653.95 1920.98,-653.95 1926.98,-653.95 1932.98,-659.95 1932.98,-665.95 1932.98,-665.95 1932.98,-763.77 1932.98,-763.77 1932.98,-769.77 1926.98,-775.77 1920.98,-775.77 1920.98,-775.77 1619.98,-775.77 1619.98,-775.77 1613.98,-775.77 1607.98,-769.77 1607.98,-763.77 1607.98,-763.77 1607.98,-665.95 1607.98,-665.95 1607.98,-659.95 1613.98,-653.95 1619.98,-653.95"/>
<text text-anchor="middle" x="1894.23" y="-661.15" font-family="Times,serif" font-size="14.00">channel (2)</text>
</g>
<g id="clust5" class="cluster">
<title>clusterfourier_mode (6)</title>
<path fill="none" stroke="black" d="M1079.98,-438.63C1079.98,-438.63 1187.98,-438.63 1187.98,-438.63 1193.98,-438.63 1199.98,-444.63 1199.98,-450.63 1199.98,-450.63 1199.98,-548.45 1199.98,-548.45 1199.98,-554.45 1193.98,-560.45 1187.98,-560.45 1187.98,-560.45 1079.98,-560.45 1079.98,-560.45 1073.98,-560.45 1067.98,-554.45 1067.98,-548.45 1067.98,-548.45 1067.98,-450.63 1067.98,-450.63 1067.98,-444.63 1073.98,-438.63 1079.98,-438.63"/>
<text text-anchor="middle" x="1145.11" y="-445.83" font-family="Times,serif" font-size="14.00">fourier_mode (6)</text>
</g>
<g id="clust6" class="cluster">
<title>cluster20</title>
<path fill="none" stroke="black" d="M1219.98,-438.63C1219.98,-438.63 1401.98,-438.63 1401.98,-438.63 1407.98,-438.63 1413.98,-444.63 1413.98,-450.63 1413.98,-450.63 1413.98,-548.45 1413.98,-548.45 1413.98,-554.45 1407.98,-560.45 1401.98,-560.45 1401.98,-560.45 1219.98,-560.45 1219.98,-560.45 1213.98,-560.45 1207.98,-554.45 1207.98,-548.45 1207.98,-548.45 1207.98,-450.63 1207.98,-450.63 1207.98,-444.63 1213.98,-438.63 1219.98,-438.63"/>
<text text-anchor="middle" x="1399.23" y="-445.83" font-family="Times,serif" font-size="14.00">20</text>
</g>
<!-- fourier_contribution -->
<g id="node1" class="node">
<title>fourier_contribution</title>
<polygon fill="none" stroke="black" points="369.73,-430.63 244.23,-430.63 244.23,-373.13 369.73,-373.13 369.73,-430.63"/>
<text text-anchor="middle" x="306.98" y="-413.33" font-family="Times,serif" font-size="14.00">fourier_contribution</text>
<text text-anchor="middle" x="306.98" y="-396.83" font-family="Times,serif" font-size="14.00">~</text>
<text text-anchor="middle" x="306.98" y="-380.33" font-family="Times,serif" font-size="14.00">Deterministic</text>
</g>
<!-- mu -->
<g id="node6" class="node">
<title>mu</title>
<polygon fill="none" stroke="black" points="414.11,-320.73 323.86,-320.73 323.86,-263.23 414.11,-263.23 414.11,-320.73"/>
<text text-anchor="middle" x="368.98" y="-303.43" font-family="Times,serif" font-size="14.00">mu</text>
<text text-anchor="middle" x="368.98" y="-286.93" font-family="Times,serif" font-size="14.00">~</text>
<text text-anchor="middle" x="368.98" y="-270.43" font-family="Times,serif" font-size="14.00">Deterministic</text>
</g>
<!-- fourier_contribution&#45;&gt;mu -->
<g id="edge17" class="edge">
<title>fourier_contribution&#45;&gt;mu</title>
<path fill="none" stroke="black" d="M323.11,-372.81C330.5,-359.95 339.37,-344.51 347.33,-330.66"/>
<polygon fill="black" stroke="black" points="350.23,-332.63 352.18,-322.22 344.16,-329.14 350.23,-332.63"/>
</g>
<!-- z_contribution -->
<g id="node2" class="node">
<title>z_contribution</title>
<polygon fill="none" stroke="black" points="226.36,-430.63 131.61,-430.63 131.61,-373.13 226.36,-373.13 226.36,-430.63"/>
<text text-anchor="middle" x="178.98" y="-413.33" font-family="Times,serif" font-size="14.00">z_contribution</text>
<text text-anchor="middle" x="178.98" y="-396.83" font-family="Times,serif" font-size="14.00">~</text>
<text text-anchor="middle" x="178.98" y="-380.33" font-family="Times,serif" font-size="14.00">Deterministic</text>
</g>
<!-- z_contribution&#45;&gt;mu -->
<g id="edge18" class="edge">
<title>z_contribution&#45;&gt;mu</title>
<path fill="none" stroke="black" d="M200.04,-372.87C209.67,-361.61 221.86,-349.27 234.98,-340.63 258.52,-325.15 287.7,-314 312.82,-306.4"/>
<polygon fill="black" stroke="black" points="313.58,-309.82 322.21,-303.67 311.63,-303.1 313.58,-309.82"/>
</g>
<!-- y_scaled -->
<g id="node3" class="node">
<title>y_scaled</title>
<path fill="lightgrey" stroke="black" d="M400.61,-98C400.61,-98 337.36,-98 337.36,-98 331.36,-98 325.36,-92 325.36,-86 325.36,-86 325.36,-52.5 325.36,-52.5 325.36,-46.5 331.36,-40.5 337.36,-40.5 337.36,-40.5 400.61,-40.5 400.61,-40.5 406.61,-40.5 412.61,-46.5 412.61,-52.5 412.61,-52.5 412.61,-86 412.61,-86 412.61,-92 406.61,-98 400.61,-98"/>
<text text-anchor="middle" x="368.98" y="-80.7" font-family="Times,serif" font-size="14.00">y_scaled</text>
<text text-anchor="middle" x="368.98" y="-64.2" font-family="Times,serif" font-size="14.00">~</text>
<text text-anchor="middle" x="368.98" y="-47.7" font-family="Times,serif" font-size="14.00">MutableData</text>
</g>
<!-- f_trend -->
<g id="node4" class="node">
<title>f_trend</title>
<polygon fill="none" stroke="black" points="478.11,-430.63 387.86,-430.63 387.86,-373.13 478.11,-373.13 478.11,-430.63"/>
<text text-anchor="middle" x="432.98" y="-413.33" font-family="Times,serif" font-size="14.00">f_trend</text>
<text text-anchor="middle" x="432.98" y="-396.83" font-family="Times,serif" font-size="14.00">~</text>
<text text-anchor="middle" x="432.98" y="-380.33" font-family="Times,serif" font-size="14.00">Deterministic</text>
</g>
<!-- f_trend&#45;&gt;mu -->
<g id="edge16" class="edge">
<title>f_trend&#45;&gt;mu</title>
<path fill="none" stroke="black" d="M416.33,-372.81C408.7,-359.95 399.55,-344.51 391.33,-330.66"/>
<polygon fill="black" stroke="black" points="394.43,-329.02 386.32,-322.21 388.41,-332.59 394.43,-329.02"/>
</g>
<!-- index_scaled -->
<g id="node5" class="node">
<title>index_scaled</title>
<path fill="lightgrey" stroke="black" d="M464.61,-540.54C464.61,-540.54 401.36,-540.54 401.36,-540.54 395.36,-540.54 389.36,-534.54 389.36,-528.54 389.36,-528.54 389.36,-495.04 389.36,-495.04 389.36,-489.04 395.36,-483.04 401.36,-483.04 401.36,-483.04 464.61,-483.04 464.61,-483.04 470.61,-483.04 476.61,-489.04 476.61,-495.04 476.61,-495.04 476.61,-528.54 476.61,-528.54 476.61,-534.54 470.61,-540.54 464.61,-540.54"/>
<text text-anchor="middle" x="432.98" y="-523.24" font-family="Times,serif" font-size="14.00">index_scaled</text>
<text text-anchor="middle" x="432.98" y="-506.74" font-family="Times,serif" font-size="14.00">~</text>
<text text-anchor="middle" x="432.98" y="-490.24" font-family="Times,serif" font-size="14.00">MutableData</text>
</g>
<!-- index_scaled&#45;&gt;f_trend -->
<g id="edge2" class="edge">
<title>index_scaled&#45;&gt;f_trend</title>
<path fill="none" stroke="black" d="M432.98,-482.72C432.98,-470.36 432.98,-455.62 432.98,-442.19"/>
<polygon fill="black" stroke="black" points="436.48,-442.33 432.98,-432.33 429.48,-442.33 436.48,-442.33"/>
</g>
<!-- y -->
<g id="node8" class="node">
<title>y</title>
<ellipse fill="lightgrey" stroke="black" cx="368.98" cy="-174.66" rx="46.32" ry="40.66"/>
<text text-anchor="middle" x="368.98" y="-186.11" font-family="Times,serif" font-size="14.00">y</text>
<text text-anchor="middle" x="368.98" y="-169.61" font-family="Times,serif" font-size="14.00">~</text>
<text text-anchor="middle" x="368.98" y="-153.11" font-family="Times,serif" font-size="14.00">StudentT</text>
</g>
<!-- mu&#45;&gt;y -->
<g id="edge20" class="edge">
<title>mu&#45;&gt;y</title>
<path fill="none" stroke="black" d="M368.98,-262.77C368.98,-251.94 368.98,-239.23 368.98,-226.91"/>
<polygon fill="black" stroke="black" points="372.48,-227.28 368.98,-217.28 365.48,-227.28 372.48,-227.28"/>
</g>
<!-- z_scaled -->
<g id="node7" class="node">
<title>z_scaled</title>
<path fill="lightgrey" stroke="black" d="M210.61,-540.54C210.61,-540.54 147.36,-540.54 147.36,-540.54 141.36,-540.54 135.36,-534.54 135.36,-528.54 135.36,-528.54 135.36,-495.04 135.36,-495.04 135.36,-489.04 141.36,-483.04 147.36,-483.04 147.36,-483.04 210.61,-483.04 210.61,-483.04 216.61,-483.04 222.61,-489.04 222.61,-495.04 222.61,-495.04 222.61,-528.54 222.61,-528.54 222.61,-534.54 216.61,-540.54 210.61,-540.54"/>
<text text-anchor="middle" x="178.98" y="-523.24" font-family="Times,serif" font-size="14.00">z_scaled</text>
<text text-anchor="middle" x="178.98" y="-506.74" font-family="Times,serif" font-size="14.00">~</text>
<text text-anchor="middle" x="178.98" y="-490.24" font-family="Times,serif" font-size="14.00">MutableData</text>
</g>
<!-- z_scaled&#45;&gt;z_contribution -->
<g id="edge14" class="edge">
<title>z_scaled&#45;&gt;z_contribution</title>
<path fill="none" stroke="black" d="M178.98,-482.72C178.98,-470.36 178.98,-455.62 178.98,-442.19"/>
<polygon fill="black" stroke="black" points="182.48,-442.33 178.98,-432.33 175.48,-442.33 182.48,-442.33"/>
</g>
<!-- y&#45;&gt;y_scaled -->
<g id="edge1" class="edge">
<title>y&#45;&gt;y_scaled</title>
<path fill="none" stroke="black" d="M368.98,-133.68C368.98,-125.83 368.98,-117.6 368.98,-109.76"/>
<polygon fill="black" stroke="black" points="372.48,-109.79 368.98,-99.79 365.48,-109.79 372.48,-109.79"/>
</g>
<!-- channel_adstock -->
<g id="node9" class="node">
<title>channel_adstock</title>
<polygon fill="none" stroke="black" points="1577.98,-645.95 1471.98,-645.95 1471.98,-588.45 1577.98,-588.45 1577.98,-645.95"/>
<text text-anchor="middle" x="1524.98" y="-628.65" font-family="Times,serif" font-size="14.00">channel_adstock</text>
<text text-anchor="middle" x="1524.98" y="-612.15" font-family="Times,serif" font-size="14.00">~</text>
<text text-anchor="middle" x="1524.98" y="-595.65" font-family="Times,serif" font-size="14.00">Deterministic</text>
</g>
<!-- channel_adstock_saturated -->
<g id="node12" class="node">
<title>channel_adstock_saturated</title>
<polygon fill="none" stroke="black" points="1591.73,-540.54 1430.23,-540.54 1430.23,-483.04 1591.73,-483.04 1591.73,-540.54"/>
<text text-anchor="middle" x="1510.98" y="-523.24" font-family="Times,serif" font-size="14.00">channel_adstock_saturated</text>
<text text-anchor="middle" x="1510.98" y="-506.74" font-family="Times,serif" font-size="14.00">~</text>
<text text-anchor="middle" x="1510.98" y="-490.24" font-family="Times,serif" font-size="14.00">Deterministic</text>
</g>
<!-- channel_adstock&#45;&gt;channel_adstock_saturated -->
<g id="edge8" class="edge">
<title>channel_adstock&#45;&gt;channel_adstock_saturated</title>
<path fill="none" stroke="black" d="M1521.19,-588.22C1519.68,-577.07 1517.92,-564.04 1516.29,-551.98"/>
<polygon fill="black" stroke="black" points="1519.79,-551.74 1514.98,-542.3 1512.85,-552.68 1519.79,-551.74"/>
</g>
<!-- channel_contributions -->
<g id="node10" class="node">
<title>channel_contributions</title>
<polygon fill="none" stroke="black" points="1578.98,-430.63 1442.98,-430.63 1442.98,-373.13 1578.98,-373.13 1578.98,-430.63"/>
<text text-anchor="middle" x="1510.98" y="-413.33" font-family="Times,serif" font-size="14.00">channel_contributions</text>
<text text-anchor="middle" x="1510.98" y="-396.83" font-family="Times,serif" font-size="14.00">~</text>
<text text-anchor="middle" x="1510.98" y="-380.33" font-family="Times,serif" font-size="14.00">Deterministic</text>
</g>
<!-- channel_contributions&#45;&gt;mu -->
<g id="edge19" class="edge">
<title>channel_contributions&#45;&gt;mu</title>
<path fill="none" stroke="black" d="M1442.73,-398.68C1244.17,-391.91 669.21,-369.58 484.98,-332.63 465.1,-328.65 443.94,-322.13 425.22,-315.52"/>
<polygon fill="black" stroke="black" points="426.52,-312.27 415.93,-312.16 424.13,-318.85 426.52,-312.27"/>
</g>
<!-- channels_scaled -->
<g id="node11" class="node">
<title>channels_scaled</title>
<path fill="lightgrey" stroke="black" d="M1564.86,-755.86C1564.86,-755.86 1485.11,-755.86 1485.11,-755.86 1479.11,-755.86 1473.11,-749.86 1473.11,-743.86 1473.11,-743.86 1473.11,-710.36 1473.11,-710.36 1473.11,-704.36 1479.11,-698.36 1485.11,-698.36 1485.11,-698.36 1564.86,-698.36 1564.86,-698.36 1570.86,-698.36 1576.86,-704.36 1576.86,-710.36 1576.86,-710.36 1576.86,-743.86 1576.86,-743.86 1576.86,-749.86 1570.86,-755.86 1564.86,-755.86"/>
<text text-anchor="middle" x="1524.98" y="-738.56" font-family="Times,serif" font-size="14.00">channels_scaled</text>
<text text-anchor="middle" x="1524.98" y="-722.06" font-family="Times,serif" font-size="14.00">~</text>
<text text-anchor="middle" x="1524.98" y="-705.56" font-family="Times,serif" font-size="14.00">MutableData</text>
</g>
<!-- channels_scaled&#45;&gt;channel_adstock -->
<g id="edge7" class="edge">
<title>channels_scaled&#45;&gt;channel_adstock</title>
<path fill="none" stroke="black" d="M1524.98,-698.04C1524.98,-685.68 1524.98,-670.93 1524.98,-657.5"/>
<polygon fill="black" stroke="black" points="1528.48,-657.64 1524.98,-647.64 1521.48,-657.64 1528.48,-657.64"/>
</g>
<!-- channel_adstock_saturated&#45;&gt;channel_contributions -->
<g id="edge11" class="edge">
<title>channel_adstock_saturated&#45;&gt;channel_contributions</title>
<path fill="none" stroke="black" d="M1510.98,-482.72C1510.98,-470.36 1510.98,-455.62 1510.98,-442.19"/>
<polygon fill="black" stroke="black" points="1514.48,-442.33 1510.98,-432.33 1507.48,-442.33 1514.48,-442.33"/>
</g>
<!-- fourier_features -->
<g id="node13" class="node">
<title>fourier_features</title>
<path fill="lightgrey" stroke="black" d="M592.11,-540.54C592.11,-540.54 513.86,-540.54 513.86,-540.54 507.86,-540.54 501.86,-534.54 501.86,-528.54 501.86,-528.54 501.86,-495.04 501.86,-495.04 501.86,-489.04 507.86,-483.04 513.86,-483.04 513.86,-483.04 592.11,-483.04 592.11,-483.04 598.11,-483.04 604.11,-489.04 604.11,-495.04 604.11,-495.04 604.11,-528.54 604.11,-528.54 604.11,-534.54 598.11,-540.54 592.11,-540.54"/>
<text text-anchor="middle" x="552.98" y="-523.24" font-family="Times,serif" font-size="14.00">fourier_features</text>
<text text-anchor="middle" x="552.98" y="-506.74" font-family="Times,serif" font-size="14.00">~</text>
<text text-anchor="middle" x="552.98" y="-490.24" font-family="Times,serif" font-size="14.00">MutableData</text>
</g>
<!-- fourier_features&#45;&gt;fourier_contribution -->
<g id="edge12" class="edge">
<title>fourier_features&#45;&gt;fourier_contribution</title>
<path fill="none" stroke="black" d="M536.28,-482.57C525.27,-466.74 509.33,-448.28 489.98,-438.63 470.1,-428.72 415.83,-434.52 380.9,-430.22"/>
<polygon fill="black" stroke="black" points="381.81,-426.82 371.36,-428.59 380.63,-433.72 381.81,-426.82"/>
</g>
<!-- amplitude_trend -->
<g id="node14" class="node">
<title>amplitude_trend</title>
<ellipse fill="none" stroke="black" cx="854.98" cy="-511.79" rx="74.42" ry="40.66"/>
<text text-anchor="middle" x="854.98" y="-523.24" font-family="Times,serif" font-size="14.00">amplitude_trend</text>
<text text-anchor="middle" x="854.98" y="-506.74" font-family="Times,serif" font-size="14.00">~</text>
<text text-anchor="middle" x="854.98" y="-490.24" font-family="Times,serif" font-size="14.00">HalfNormal</text>
</g>
<!-- amplitude_trend&#45;&gt;f_trend -->
<g id="edge4" class="edge">
<title>amplitude_trend&#45;&gt;f_trend</title>
<path fill="none" stroke="black" d="M823.19,-474.95C808.95,-461.25 791.07,-446.94 771.98,-438.63 722.73,-417.21 572.89,-408.19 489.87,-404.76"/>
<polygon fill="black" stroke="black" points="490.01,-401.26 479.88,-404.36 489.73,-408.26 490.01,-401.26"/>
</g>
<!-- sigma -->
<g id="node15" class="node">
<title>sigma</title>
<ellipse fill="none" stroke="black" cx="57.98" cy="-291.98" rx="57.98" ry="40.66"/>
<text text-anchor="middle" x="57.98" y="-303.43" font-family="Times,serif" font-size="14.00">sigma</text>
<text text-anchor="middle" x="57.98" y="-286.93" font-family="Times,serif" font-size="14.00">~</text>
<text text-anchor="middle" x="57.98" y="-270.43" font-family="Times,serif" font-size="14.00">HalfNormal</text>
</g>
<!-- sigma&#45;&gt;y -->
<g id="edge21" class="edge">
<title>sigma&#45;&gt;y</title>
<path fill="none" stroke="black" d="M98.78,-262.68C105.68,-258.54 112.9,-254.58 119.98,-251.32 183.63,-221.97 261.56,-200.41 313.11,-187.98"/>
<polygon fill="black" stroke="black" points="313.62,-191.45 322.54,-185.74 312,-184.64 313.62,-191.45"/>
</g>
<!-- ls_trend -->
<g id="node16" class="node">
<title>ls_trend</title>
<ellipse fill="none" stroke="black" cx="1002.98" cy="-511.79" rx="55.33" ry="40.66"/>
<text text-anchor="middle" x="1002.98" y="-523.24" font-family="Times,serif" font-size="14.00">ls_trend</text>
<text text-anchor="middle" x="1002.98" y="-506.74" font-family="Times,serif" font-size="14.00">~</text>
<text text-anchor="middle" x="1002.98" y="-490.24" font-family="Times,serif" font-size="14.00">InvGamma</text>
</g>
<!-- ls_trend&#45;&gt;f_trend -->
<g id="edge5" class="edge">
<title>ls_trend&#45;&gt;f_trend</title>
<path fill="none" stroke="black" d="M979.64,-474.71C968.73,-460.97 954.5,-446.7 937.98,-438.63 898.58,-419.4 613.73,-408.43 490.05,-404.53"/>
<polygon fill="black" stroke="black" points="490.21,-401.03 480.11,-404.22 489.99,-408.03 490.21,-401.03"/>
</g>
<!-- beta_z -->
<g id="node17" class="node">
<title>beta_z</title>
<ellipse fill="none" stroke="black" cx="721.98" cy="-511.79" rx="41.01" ry="40.66"/>
<text text-anchor="middle" x="721.98" y="-523.24" font-family="Times,serif" font-size="14.00">beta_z</text>
<text text-anchor="middle" x="721.98" y="-506.74" font-family="Times,serif" font-size="14.00">~</text>
<text text-anchor="middle" x="721.98" y="-490.24" font-family="Times,serif" font-size="14.00">Normal</text>
</g>
<!-- beta_z&#45;&gt;z_contribution -->
<g id="edge15" class="edge">
<title>beta_z&#45;&gt;z_contribution</title>
<path fill="none" stroke="black" d="M707.76,-473.45C700.65,-460.05 690.6,-446.35 676.98,-438.63 657.04,-427.33 309.88,-435.23 237.74,-429.63"/>
<polygon fill="black" stroke="black" points="238.6,-426.21 228.23,-428.41 237.7,-433.15 238.6,-426.21"/>
</g>
<!-- nu -->
<g id="node18" class="node">
<title>nu</title>
<ellipse fill="none" stroke="black" cx="536.98" cy="-291.98" rx="42.6" ry="40.66"/>
<text text-anchor="middle" x="536.98" y="-303.43" font-family="Times,serif" font-size="14.00">nu</text>
<text text-anchor="middle" x="536.98" y="-286.93" font-family="Times,serif" font-size="14.00">~</text>
<text text-anchor="middle" x="536.98" y="-270.43" font-family="Times,serif" font-size="14.00">Gamma</text>
</g>
<!-- nu&#45;&gt;y -->
<g id="edge22" class="edge">
<title>nu&#45;&gt;y</title>
<path fill="none" stroke="black" d="M505.88,-263.68C500.67,-259.41 495.25,-255.15 489.98,-251.32 466.79,-234.41 439.8,-217.31 417.21,-203.66"/>
<polygon fill="black" stroke="black" points="419.17,-200.75 408.8,-198.61 415.57,-206.75 419.17,-200.75"/>
</g>
<!-- beta_channel -->
<g id="node19" class="node">
<title>beta_channel</title>
<ellipse fill="none" stroke="black" cx="1862.98" cy="-727.11" rx="61.7" ry="40.66"/>
<text text-anchor="middle" x="1862.98" y="-738.56" font-family="Times,serif" font-size="14.00">beta_channel</text>
<text text-anchor="middle" x="1862.98" y="-722.06" font-family="Times,serif" font-size="14.00">~</text>
<text text-anchor="middle" x="1862.98" y="-705.56" font-family="Times,serif" font-size="14.00">HalfNormal</text>
</g>
<!-- beta_channel&#45;&gt;channel_contributions -->
<g id="edge10" class="edge">
<title>beta_channel&#45;&gt;channel_contributions</title>
<path fill="none" stroke="black" d="M1838.1,-689.4C1795.79,-629.45 1704.29,-510.06 1600.98,-438.63 1597.17,-436 1593.14,-433.52 1588.97,-431.19"/>
<polygon fill="black" stroke="black" points="1590.89,-428.24 1580.4,-426.72 1587.65,-434.44 1590.89,-428.24"/>
</g>
<!-- alpha -->
<g id="node20" class="node">
<title>alpha</title>
<ellipse fill="none" stroke="black" cx="1647.98" cy="-727.11" rx="32" ry="40.66"/>
<text text-anchor="middle" x="1647.98" y="-738.56" font-family="Times,serif" font-size="14.00">alpha</text>
<text text-anchor="middle" x="1647.98" y="-722.06" font-family="Times,serif" font-size="14.00">~</text>
<text text-anchor="middle" x="1647.98" y="-705.56" font-family="Times,serif" font-size="14.00">Beta</text>
</g>
<!-- alpha&#45;&gt;channel_adstock -->
<g id="edge6" class="edge">
<title>alpha&#45;&gt;channel_adstock</title>
<path fill="none" stroke="black" d="M1632.37,-691.43C1625.18,-678.4 1615.63,-664.26 1603.98,-653.95 1599.14,-649.67 1593.7,-645.82 1588.01,-642.38"/>
<polygon fill="black" stroke="black" points="1589.99,-639.48 1579.55,-637.69 1586.6,-645.6 1589.99,-639.48"/>
</g>
<!-- lam -->
<g id="node21" class="node">
<title>lam</title>
<ellipse fill="none" stroke="black" cx="1740.98" cy="-727.11" rx="42.6" ry="40.66"/>
<text text-anchor="middle" x="1740.98" y="-738.56" font-family="Times,serif" font-size="14.00">lam</text>
<text text-anchor="middle" x="1740.98" y="-722.06" font-family="Times,serif" font-size="14.00">~</text>
<text text-anchor="middle" x="1740.98" y="-705.56" font-family="Times,serif" font-size="14.00">Gamma</text>
</g>
<!-- lam&#45;&gt;channel_adstock_saturated -->
<g id="edge9" class="edge">
<title>lam&#45;&gt;channel_adstock_saturated</title>
<path fill="none" stroke="black" d="M1719.23,-691.92C1710.53,-679.38 1699.97,-665.45 1688.98,-653.95 1650.19,-613.33 1599.46,-574.21 1562.09,-547.5"/>
<polygon fill="black" stroke="black" points="1564.31,-544.79 1554.13,-541.86 1560.26,-550.5 1564.31,-544.79"/>
</g>
<!-- beta_fourier -->
<g id="node22" class="node">
<title>beta_fourier</title>
<ellipse fill="none" stroke="black" cx="1133.98" cy="-511.79" rx="57.98" ry="40.66"/>
<text text-anchor="middle" x="1133.98" y="-523.24" font-family="Times,serif" font-size="14.00">beta_fourier</text>
<text text-anchor="middle" x="1133.98" y="-506.74" font-family="Times,serif" font-size="14.00">~</text>
<text text-anchor="middle" x="1133.98" y="-490.24" font-family="Times,serif" font-size="14.00">Normal</text>
</g>
<!-- beta_fourier&#45;&gt;fourier_contribution -->
<g id="edge13" class="edge">
<title>beta_fourier&#45;&gt;fourier_contribution</title>
<path fill="none" stroke="black" d="M1110.24,-474.59C1098.96,-460.65 1084.18,-446.25 1066.98,-438.63 1033.81,-423.94 477.54,-436.43 381.53,-429.88"/>
<polygon fill="black" stroke="black" points="382.05,-426.42 371.73,-428.82 381.3,-433.38 382.05,-426.42"/>
</g>
<!-- f_trend_hsgp_coeffs_ -->
<g id="node23" class="node">
<title>f_trend_hsgp_coeffs_</title>
<ellipse fill="none" stroke="black" cx="1310.98" cy="-511.79" rx="94.58" ry="40.66"/>
<text text-anchor="middle" x="1310.98" y="-523.24" font-family="Times,serif" font-size="14.00">f_trend_hsgp_coeffs_</text>
<text text-anchor="middle" x="1310.98" y="-506.74" font-family="Times,serif" font-size="14.00">~</text>
<text text-anchor="middle" x="1310.98" y="-490.24" font-family="Times,serif" font-size="14.00">Normal</text>
</g>
<!-- f_trend_hsgp_coeffs_&#45;&gt;f_trend -->
<g id="edge3" class="edge">
<title>f_trend_hsgp_coeffs_&#45;&gt;f_trend</title>
<path fill="none" stroke="black" d="M1269.36,-474.9C1250.63,-460.93 1227.49,-446.42 1203.98,-438.63 1136.9,-416.42 656.91,-406.54 490.01,-403.75"/>
<polygon fill="black" stroke="black" points="490.11,-400.25 480.05,-403.59 489.99,-407.25 490.11,-400.25"/>
</g>
</g>
</svg>
