<?xml version="1.0" encoding="UTF-8" standalone="no"?>
<!DOCTYPE svg PUBLIC "-//W3C//DTD SVG 1.1//EN"
 "http://www.w3.org/Graphics/SVG/1.1/DTD/svg11.dtd">
<!-- Generated by graphviz version 11.0.0 (20240428.1522)
 -->
<!-- Pages: 1 -->
<svg width="642pt" height="333pt"
 viewBox="0.00 0.00 641.88 332.50" xmlns="http://www.w3.org/2000/svg" xmlns:xlink="http://www.w3.org/1999/xlink">
<g id="graph0" class="graph" transform="scale(1 1) rotate(0) translate(4 328.5)">
<polygon fill="white" stroke="none" points="-4,4 -4,-328.5 637.88,-328.5 637.88,4 -4,4"/>
<g id="clust1" class="cluster">
<title>cluster_effect</title>
<polygon fill="none" stroke="black" points="124,-171.5 124,-288.5 448,-288.5 448,-171.5 124,-171.5"/>
<text text-anchor="middle" x="424.62" y="-178.7" font-family="Times,serif" font-size="14.00">effect</text>
</g>
<g id="clust2" class="cluster">
<title>cluster_regions</title>
<polygon fill="none" stroke="black" points="132,-204 132,-280.5 202,-280.5 202,-204 132,-204"/>
<text text-anchor="middle" x="174.12" y="-211.2" font-family="Times,serif" font-size="14.00">regions</text>
</g>
<g id="clust3" class="cluster">
<title>cluster_data</title>
<polygon fill="none" stroke="black" points="79,-8 79,-84.5 221,-84.5 221,-8 79,-8"/>
<text text-anchor="middle" x="201.75" y="-15.2" font-family="Times,serif" font-size="14.00">data</text>
</g>
<!-- nu -->
<g id="node1" class="node">
<title>nu</title>
<ellipse fill="white" stroke="black" cx="27" cy="-130.5" rx="27" ry="18"/>
<text text-anchor="middle" x="27" y="-125.45" font-family="Times,serif" font-size="14.00">nu</text>
</g>
<!-- log_quantities -->
<g id="node8" class="node">
<title>log_quantities</title>
<ellipse fill="grey" stroke="black" cx="150" cy="-58.5" rx="63.12" ry="18"/>
<text text-anchor="middle" x="150" y="-53.45" font-family="Times,serif" font-size="14.00">log_quantities</text>
</g>
<!-- nu&#45;&gt;log_quantities -->
<g id="edge7" class="edge">
<title>nu&#45;&gt;log_quantities</title>
<path fill="none" stroke="black" d="M47.04,-118.1C64.78,-108 91.15,-92.99 112.76,-80.69"/>
<polygon fill="black" stroke="black" points="114.34,-83.82 121.3,-75.83 110.88,-77.74 114.34,-83.82"/>
</g>
<!-- sigma -->
<g id="node2" class="node">
<title>sigma</title>
<ellipse fill="white" stroke="black" cx="105" cy="-130.5" rx="33.44" ry="18"/>
<text text-anchor="middle" x="105" y="-125.45" font-family="Times,serif" font-size="14.00">sigma</text>
</g>
<!-- sigma&#45;&gt;log_quantities -->
<g id="edge8" class="edge">
<title>sigma&#45;&gt;log_quantities</title>
<path fill="none" stroke="black" d="M115.44,-113.26C120.62,-105.2 127.02,-95.24 132.9,-86.1"/>
<polygon fill="black" stroke="black" points="135.71,-88.2 138.17,-77.9 129.82,-84.42 135.71,-88.2"/>
</g>
<!-- alpha_region -->
<g id="node3" class="node">
<title>alpha_region</title>
<ellipse fill="white" stroke="black" stroke-dasharray="5,2" cx="215" cy="-130.5" rx="59.03" ry="18"/>
<text text-anchor="middle" x="215" y="-125.45" font-family="Times,serif" font-size="14.00">alpha_region</text>
</g>
<!-- alpha_region&#45;&gt;log_quantities -->
<g id="edge9" class="edge">
<title>alpha_region&#45;&gt;log_quantities</title>
<path fill="none" stroke="black" d="M199.6,-112.91C191.66,-104.37 181.83,-93.78 173.02,-84.29"/>
<polygon fill="black" stroke="black" points="175.69,-82.03 166.32,-77.08 170.56,-86.79 175.69,-82.03"/>
</g>
<!-- beta_region -->
<g id="node4" class="node">
<title>beta_region</title>
<ellipse fill="white" stroke="black" stroke-dasharray="5,2" cx="346" cy="-130.5" rx="54.42" ry="18"/>
<text text-anchor="middle" x="346" y="-125.45" font-family="Times,serif" font-size="14.00">beta_region</text>
</g>
<!-- beta_region&#45;&gt;log_quantities -->
<g id="edge10" class="edge">
<title>beta_region&#45;&gt;log_quantities</title>
<path fill="none" stroke="black" d="M310.05,-116.66C278.94,-105.55 233.65,-89.37 199.18,-77.06"/>
<polygon fill="black" stroke="black" points="200.42,-73.79 189.83,-73.72 198.07,-80.38 200.42,-73.79"/>
</g>
<!-- sigma_effect -->
<g id="node5" class="node">
<title>sigma_effect</title>
<ellipse fill="white" stroke="black" cx="271" cy="-254.5" rx="59.03" ry="18"/>
<text text-anchor="middle" x="271" y="-249.45" font-family="Times,serif" font-size="14.00">sigma_effect</text>
</g>
<!-- sigma_effect&#45;&gt;alpha_region -->
<g id="edge1" class="edge">
<title>sigma_effect&#45;&gt;alpha_region</title>
<path fill="none" stroke="black" d="M263.1,-236.28C253.88,-216.21 238.53,-182.77 227.65,-159.07"/>
<polygon fill="black" stroke="black" points="230.85,-157.64 223.5,-150.01 224.49,-160.56 230.85,-157.64"/>
</g>
<!-- sigma_effect&#45;&gt;beta_region -->
<g id="edge4" class="edge">
<title>sigma_effect&#45;&gt;beta_region</title>
<path fill="none" stroke="black" d="M281.43,-236.54C293.97,-216.14 315.15,-181.68 329.82,-157.82"/>
<polygon fill="black" stroke="black" points="332.61,-159.96 334.87,-149.61 326.65,-156.29 332.61,-159.96"/>
</g>
<!-- chol_corr -->
<g id="node6" class="node">
<title>chol_corr</title>
<ellipse fill="white" stroke="black" cx="394" cy="-254.5" rx="46.23" ry="18"/>
<text text-anchor="middle" x="394" y="-249.45" font-family="Times,serif" font-size="14.00">chol_corr</text>
</g>
<!-- chol_corr&#45;&gt;alpha_region -->
<g id="edge2" class="edge">
<title>chol_corr&#45;&gt;alpha_region</title>
<path fill="none" stroke="black" d="M386.65,-236.24C377.9,-217.67 361.58,-188.53 339,-171.5 327.76,-163.02 298.13,-153.33 270.66,-145.61"/>
<polygon fill="black" stroke="black" points="271.91,-142.33 261.34,-143.05 270.05,-149.08 271.91,-142.33"/>
</g>
<!-- chol_corr&#45;&gt;beta_region -->
<g id="edge5" class="edge">
<title>chol_corr&#45;&gt;beta_region</title>
<path fill="none" stroke="black" d="M387.22,-236.28C379.33,-216.21 366.17,-182.77 356.85,-159.07"/>
<polygon fill="black" stroke="black" points="360.21,-158.07 353.3,-150.04 353.7,-160.63 360.21,-158.07"/>
</g>
<!-- z -->
<g id="node7" class="node">
<title>z</title>
<ellipse fill="white" stroke="black" cx="167" cy="-254.5" rx="27" ry="18"/>
<text text-anchor="middle" x="167" y="-249.45" font-family="Times,serif" font-size="14.00">z</text>
</g>
<!-- z&#45;&gt;alpha_region -->
<g id="edge3" class="edge">
<title>z&#45;&gt;alpha_region</title>
<path fill="none" stroke="black" d="M173.1,-236.78C179.21,-220.15 188.99,-193.96 198,-171.5 199.61,-167.48 201.36,-163.26 203.09,-159.12"/>
<polygon fill="black" stroke="black" points="206.29,-160.53 206.98,-149.96 199.85,-157.8 206.29,-160.53"/>
</g>
<!-- z&#45;&gt;beta_region -->
<g id="edge6" class="edge">
<title>z&#45;&gt;beta_region</title>
<path fill="none" stroke="black" d="M168.92,-236.18C171.9,-217.56 179.4,-188.37 198,-171.5 198.06,-171.45 251.12,-157.11 293.68,-145.62"/>
<polygon fill="black" stroke="black" points="294.59,-149 303.34,-143.02 292.77,-142.24 294.59,-149"/>
</g>
<!-- distribution_description_node -->
<g id="node9" class="node">
<title>distribution_description_node</title>
<text text-anchor="start" x="466.12" y="-307.2" font-family="Times,serif" font-size="14.00">nu ~ Gamma</text>
<text text-anchor="start" x="466.12" y="-290.7" font-family="Times,serif" font-size="14.00">sigma ~ Exponential</text>
<text text-anchor="start" x="466.12" y="-274.2" font-family="Times,serif" font-size="14.00">sigma_effect ~ HalfNormal</text>
<text text-anchor="start" x="466.12" y="-257.7" font-family="Times,serif" font-size="14.00">chol_corr ~ LKJCholesky</text>
<text text-anchor="start" x="466.12" y="-241.2" font-family="Times,serif" font-size="14.00">z ~ Normal</text>
<text text-anchor="start" x="466.12" y="-224.7" font-family="Times,serif" font-size="14.00">alpha_region ~ Deterministic</text>
<text text-anchor="start" x="466.12" y="-208.2" font-family="Times,serif" font-size="14.00">beta_region ~ Deterministic</text>
<text text-anchor="start" x="466.12" y="-191.7" font-family="Times,serif" font-size="14.00">log_quantities ~ StudentT</text>
</g>
</g>
</svg>
