<?xml version="1.0" encoding="UTF-8" standalone="no"?>
<!DOCTYPE svg PUBLIC "-//W3C//DTD SVG 1.1//EN"
 "http://www.w3.org/Graphics/SVG/1.1/DTD/svg11.dtd">
<!-- Generated by graphviz version 9.0.0 (20230911.1827)
 -->
<!-- Pages: 1 -->
<svg width="282pt" height="283pt"
 viewBox="0.00 0.00 281.62 283.00" xmlns="http://www.w3.org/2000/svg" xmlns:xlink="http://www.w3.org/1999/xlink">
<g id="graph0" class="graph" transform="scale(1 1) rotate(0) translate(4 279)">
<polygon fill="white" stroke="none" points="-4,4 -4,-279 277.62,-279 277.62,4 -4,4"/>
<g id="clust1" class="cluster">
<title>cluster_data</title>
<polygon fill="none" stroke="black" points="46,-8 46,-84.5 158,-84.5 158,-8 46,-8"/>
<text text-anchor="middle" x="138.75" y="-15.2" font-family="Times,serif" font-size="14.00">data</text>
</g>
<!-- a -->
<g id="node1" class="node">
<title>a</title>
<ellipse fill="white" stroke="black" cx="27" cy="-229.75" rx="27" ry="18"/>
<text text-anchor="middle" x="27" y="-224.7" font-family="Times,serif" font-size="14.00">a</text>
</g>
<!-- mu -->
<g id="node4" class="node">
<title>mu</title>
<ellipse fill="white" stroke="black" stroke-dasharray="5,2" cx="63" cy="-130.5" rx="27" ry="18"/>
<text text-anchor="middle" x="63" y="-125.45" font-family="Times,serif" font-size="14.00">mu</text>
</g>
<!-- a&#45;&gt;mu -->
<g id="edge1" class="edge">
<title>a&#45;&gt;mu</title>
<path fill="none" stroke="black" d="M33.27,-211.81C38.69,-197.17 46.62,-175.74 52.93,-158.69"/>
<polygon fill="black" stroke="black" points="56.09,-160.26 56.28,-149.66 49.52,-157.83 56.09,-160.26"/>
</g>
<!-- b -->
<g id="node2" class="node">
<title>b</title>
<ellipse fill="white" stroke="black" cx="99" cy="-229.75" rx="27" ry="18"/>
<text text-anchor="middle" x="99" y="-224.7" font-family="Times,serif" font-size="14.00">b</text>
</g>
<!-- b&#45;&gt;mu -->
<g id="edge2" class="edge">
<title>b&#45;&gt;mu</title>
<path fill="none" stroke="black" d="M92.73,-211.81C87.31,-197.17 79.38,-175.74 73.07,-158.69"/>
<polygon fill="black" stroke="black" points="76.48,-157.83 69.72,-149.66 69.91,-160.26 76.48,-157.83"/>
</g>
<!-- sigma -->
<g id="node3" class="node">
<title>sigma</title>
<ellipse fill="white" stroke="black" cx="141" cy="-130.5" rx="33.44" ry="18"/>
<text text-anchor="middle" x="141" y="-125.45" font-family="Times,serif" font-size="14.00">sigma</text>
</g>
<!-- likelihood -->
<g id="node5" class="node">
<title>likelihood</title>
<ellipse fill="grey" stroke="black" cx="102" cy="-58.5" rx="48.28" ry="18"/>
<text text-anchor="middle" x="102" y="-53.45" font-family="Times,serif" font-size="14.00">likelihood</text>
</g>
<!-- sigma&#45;&gt;likelihood -->
<g id="edge3" class="edge">
<title>sigma&#45;&gt;likelihood</title>
<path fill="none" stroke="black" d="M131.76,-112.91C127.35,-105.01 121.97,-95.35 117.01,-86.44"/>
<polygon fill="black" stroke="black" points="120.11,-84.81 112.18,-77.78 113.99,-88.22 120.11,-84.81"/>
</g>
<!-- mu&#45;&gt;likelihood -->
<g id="edge4" class="edge">
<title>mu&#45;&gt;likelihood</title>
<path fill="none" stroke="black" d="M72.05,-113.26C76.49,-105.28 81.97,-95.45 87.02,-86.39"/>
<polygon fill="black" stroke="black" points="89.91,-88.39 91.72,-77.95 83.8,-84.98 89.91,-88.39"/>
</g>
<!-- distribution_description_node -->
<g id="node6" class="node">
<title>distribution_description_node</title>
<text text-anchor="start" x="152.38" y="-257.7" font-family="Times,serif" font-size="14.00">a ~ Normal</text>
<text text-anchor="start" x="152.38" y="-241.2" font-family="Times,serif" font-size="14.00">b ~ HalfNormal</text>
<text text-anchor="start" x="152.38" y="-224.7" font-family="Times,serif" font-size="14.00">sigma ~ Exponential</text>
<text text-anchor="start" x="152.38" y="-208.2" font-family="Times,serif" font-size="14.00">mu ~ Deterministic</text>
<text text-anchor="start" x="152.38" y="-191.7" font-family="Times,serif" font-size="14.00">likelihood ~ Normal</text>
</g>
</g>
</svg>
