<?xml version="1.0" encoding="UTF-8" standalone="no"?>
<!DOCTYPE svg PUBLIC "-//W3C//DTD SVG 1.1//EN"
 "http://www.w3.org/Graphics/SVG/1.1/DTD/svg11.dtd">
<!-- Generated by graphviz version 13.1.2 (0)
 -->
<!-- Pages: 1 -->
<svg width="557pt" height="187pt"
 viewBox="0.00 0.00 557.00 187.00" xmlns="http://www.w3.org/2000/svg" xmlns:xlink="http://www.w3.org/1999/xlink">
<g id="graph0" class="graph" transform="scale(1 1) rotate(0) translate(4 183)">
<polygon fill="white" stroke="none" points="-4,4 -4,-183 553.29,-183 553.29,4 -4,4"/>
<!-- constant -->
<g id="node1" class="node">
<title>constant</title>
<ellipse fill="white" stroke="black" cx="218.16" cy="-125.5" rx="41.63" ry="18"/>
<text xml:space="preserve" text-anchor="middle" x="218.16" y="-120.45" font-family="Times,serif" font-size="14.00">constant</text>
</g>
<!-- y_pred -->
<g id="node5" class="node">
<title>y_pred</title>
<ellipse fill="grey" stroke="black" cx="126.16" cy="-18" rx="36.51" ry="18"/>
<text xml:space="preserve" text-anchor="middle" x="126.16" y="-12.95" font-family="Times,serif" font-size="14.00">y_pred</text>
</g>
<!-- constant&#45;&gt;y_pred -->
<g id="edge1" class="edge">
<title>constant&#45;&gt;y_pred</title>
<path fill="none" stroke="black" d="M204.19,-108.48C189.11,-91.18 164.91,-63.43 147.45,-43.41"/>
<polygon fill="black" stroke="black" points="150.17,-41.21 140.96,-35.97 144.89,-45.81 150.17,-41.21"/>
</g>
<!-- y_future -->
<g id="node6" class="node">
<title>y_future</title>
<ellipse fill="white" stroke="black" cx="223.16" cy="-18" rx="42.14" ry="18"/>
<text xml:space="preserve" text-anchor="middle" x="223.16" y="-12.95" font-family="Times,serif" font-size="14.00">y_future</text>
</g>
<!-- constant&#45;&gt;y_future -->
<g id="edge5" class="edge">
<title>constant&#45;&gt;y_future</title>
<path fill="none" stroke="black" d="M218.99,-107.08C219.75,-90.97 220.9,-66.72 221.8,-47.74"/>
<polygon fill="black" stroke="black" points="225.29,-48.11 222.26,-37.96 218.29,-47.78 225.29,-48.11"/>
</g>
<!-- sigma -->
<g id="node2" class="node">
<title>sigma</title>
<ellipse fill="white" stroke="black" cx="311.16" cy="-125.5" rx="33.44" ry="18"/>
<text xml:space="preserve" text-anchor="middle" x="311.16" y="-120.45" font-family="Times,serif" font-size="14.00">sigma</text>
</g>
<!-- sigma&#45;&gt;y_pred -->
<g id="edge2" class="edge">
<title>sigma&#45;&gt;y_pred</title>
<path fill="none" stroke="black" d="M301.27,-107.82C293.73,-96.37 282.41,-81.57 269.16,-72 268.88,-71.8 207.47,-49.07 165.22,-33.44"/>
<polygon fill="black" stroke="black" points="166.69,-30.25 156.1,-30.07 164.27,-36.82 166.69,-30.25"/>
</g>
<!-- sigma&#45;&gt;y_future -->
<g id="edge6" class="edge">
<title>sigma&#45;&gt;y_future</title>
<path fill="none" stroke="black" d="M298.83,-108.75C290.54,-98.25 279.33,-84.19 269.16,-72 261.32,-62.59 252.55,-52.4 244.78,-43.5"/>
<polygon fill="black" stroke="black" points="247.64,-41.45 238.42,-36.23 242.38,-46.06 247.64,-41.45"/>
</g>
<!-- l_omega -->
<g id="node3" class="node">
<title>l_omega</title>
<ellipse fill="white" stroke="black" cx="43.16" cy="-125.5" rx="43.16" ry="18"/>
<text xml:space="preserve" text-anchor="middle" x="43.16" y="-120.45" font-family="Times,serif" font-size="14.00">l_omega</text>
</g>
<!-- l_omega&#45;&gt;y_pred -->
<g id="edge3" class="edge">
<title>l_omega&#45;&gt;y_pred</title>
<path fill="none" stroke="black" d="M56.13,-108.02C69.67,-90.81 91.06,-63.61 106.65,-43.81"/>
<polygon fill="black" stroke="black" points="109.19,-46.24 112.62,-36.21 103.69,-41.91 109.19,-46.24"/>
</g>
<!-- l_omega&#45;&gt;y_future -->
<g id="edge7" class="edge">
<title>l_omega&#45;&gt;y_future</title>
<path fill="none" stroke="black" d="M56.33,-108.1C66.1,-96.78 80.25,-82.01 95.16,-72 109.81,-62.16 149.7,-46.2 181.1,-34.35"/>
<polygon fill="black" stroke="black" points="182.24,-37.67 190.38,-30.89 179.78,-31.11 182.24,-37.67"/>
</g>
<!-- phi -->
<g id="node4" class="node">
<title>phi</title>
<ellipse fill="white" stroke="black" cx="131.16" cy="-125.5" rx="27" ry="18"/>
<text xml:space="preserve" text-anchor="middle" x="131.16" y="-120.45" font-family="Times,serif" font-size="14.00">phi</text>
</g>
<!-- phi&#45;&gt;y_pred -->
<g id="edge4" class="edge">
<title>phi&#45;&gt;y_pred</title>
<path fill="none" stroke="black" d="M130.34,-107.08C129.57,-90.97 128.42,-66.72 127.52,-47.74"/>
<polygon fill="black" stroke="black" points="131.03,-47.78 127.06,-37.96 124.04,-48.11 131.03,-47.78"/>
</g>
<!-- phi&#45;&gt;y_future -->
<g id="edge8" class="edge">
<title>phi&#45;&gt;y_future</title>
<path fill="none" stroke="black" d="M141.04,-108.24C147.85,-97.53 157.4,-83.43 167.16,-72 176.02,-61.64 186.69,-51.13 196.33,-42.24"/>
<polygon fill="black" stroke="black" points="198.61,-44.89 203.69,-35.59 193.92,-39.7 198.61,-44.89"/>
</g>
<!-- distribution_description_node -->
<g id="node7" class="node">
<title>distribution_description_node</title>
<text xml:space="preserve" text-anchor="start" x="371.04" y="-161.7" font-family="Times,serif" font-size="14.00">constant ~ Normal</text>
<text xml:space="preserve" text-anchor="start" x="371.04" y="-145.2" font-family="Times,serif" font-size="14.00">sigma ~ HalfNormal</text>
<text xml:space="preserve" text-anchor="start" x="371.04" y="-128.7" font-family="Times,serif" font-size="14.00">l_omega ~ LKJCholesky</text>
<text xml:space="preserve" text-anchor="start" x="371.04" y="-112.2" font-family="Times,serif" font-size="14.00">phi ~ Normal</text>
<text xml:space="preserve" text-anchor="start" x="371.04" y="-95.7" font-family="Times,serif" font-size="14.00">y_pred ~ MultivariateNormal</text>
<text xml:space="preserve" text-anchor="start" x="371.04" y="-79.2" font-family="Times,serif" font-size="14.00">y_future ~ MultivariateNormal</text>
</g>
</g>
</svg>
