<?xml version="1.0" encoding="UTF-8" standalone="no"?>
<!DOCTYPE svg PUBLIC "-//W3C//DTD SVG 1.1//EN"
 "http://www.w3.org/Graphics/SVG/1.1/DTD/svg11.dtd">
<!-- Generated by graphviz version 14.1.2 (0)
 -->
<!-- Pages: 1 -->
<svg width="490pt" height="474pt"
 viewBox="0.00 0.00 490.00 474.00" xmlns="http://www.w3.org/2000/svg" xmlns:xlink="http://www.w3.org/1999/xlink">
<g id="graph0" class="graph" transform="scale(1 1) rotate(0) translate(4 469.95)">
<polygon fill="white" stroke="none" points="-4,4 -4,-469.95 486,-469.95 486,4 -4,4"/>
<g id="clust1" class="cluster">
<title>clustersample_size (9)</title>
<path fill="none" stroke="black" d="M382,-348.04C382,-348.04 462,-348.04 462,-348.04 468,-348.04 474,-354.04 474,-360.04 474,-360.04 474,-434.04 474,-434.04 474,-440.04 468,-446.04 462,-446.04 462,-446.04 382,-446.04 382,-446.04 376,-446.04 370,-440.04 370,-434.04 370,-434.04 370,-360.04 370,-360.04 370,-354.04 376,-348.04 382,-348.04"/>
<text xml:space="preserve" text-anchor="middle" x="422.88" y="-355.24" font-family="Times,serif" font-size="14.00">sample_size (9)</text>
</g>
<g id="clust2" class="cluster">
<title>clustersample_size (9) x omega (5) x simulation (700)</title>
<path fill="none" stroke="black" d="M20,-8C20,-8 350,-8 350,-8 356,-8 362,-14 362,-20 362,-20 362,-445.95 362,-445.95 362,-451.95 356,-457.95 350,-457.95 350,-457.95 20,-457.95 20,-457.95 14,-457.95 8,-451.95 8,-445.95 8,-445.95 8,-20 8,-20 8,-14 14,-8 20,-8"/>
<text xml:space="preserve" text-anchor="middle" x="223.12" y="-15.2" font-family="Times,serif" font-size="14.00">sample_size (9) x omega (5) x simulation (700)</text>
</g>
<!-- sample_sizes -->
<g id="node1" class="node">
<title>sample_sizes</title>
<path fill="lightgrey" stroke="black" d="M454,-438.04C454,-438.04 390,-438.04 390,-438.04 384,-438.04 378,-432.04 378,-426.04 378,-426.04 378,-392.54 378,-392.54 378,-386.54 384,-380.54 390,-380.54 390,-380.54 454,-380.54 454,-380.54 460,-380.54 466,-386.54 466,-392.54 466,-392.54 466,-426.04 466,-426.04 466,-432.04 460,-438.04 454,-438.04"/>
<text xml:space="preserve" text-anchor="middle" x="422" y="-420.74" font-family="Times,serif" font-size="14.00">sample_sizes</text>
<text xml:space="preserve" text-anchor="middle" x="422" y="-404.24" font-family="Times,serif" font-size="14.00">~</text>
<text xml:space="preserve" text-anchor="middle" x="422" y="-387.74" font-family="Times,serif" font-size="14.00">Data</text>
</g>
<!-- n_control -->
<g id="node5" class="node">
<title>n_control</title>
<ellipse fill="lightgrey" stroke="black" cx="274" cy="-291.98" rx="47.91" ry="40.66"/>
<text xml:space="preserve" text-anchor="middle" x="274" y="-303.43" font-family="Times,serif" font-size="14.00">n_control</text>
<text xml:space="preserve" text-anchor="middle" x="274" y="-286.93" font-family="Times,serif" font-size="14.00">~</text>
<text xml:space="preserve" text-anchor="middle" x="274" y="-270.43" font-family="Times,serif" font-size="14.00">Binomial</text>
</g>
<!-- sample_sizes&#45;&gt;n_control -->
<g id="edge5" class="edge">
<title>sample_sizes&#45;&gt;n_control</title>
<path fill="none" stroke="black" d="M398.97,-380.29C389.39,-369.54 377.76,-357.57 366,-348.04 353.19,-337.67 338.23,-327.88 324.14,-319.52"/>
<polygon fill="black" stroke="black" points="326.28,-316.71 315.88,-314.72 322.77,-322.77 326.28,-316.71"/>
</g>
<!-- n_treatment -->
<g id="node7" class="node">
<title>n_treatment</title>
<ellipse fill="lightgrey" stroke="black" cx="297" cy="-174.66" rx="57.45" ry="40.66"/>
<text xml:space="preserve" text-anchor="middle" x="297" y="-186.11" font-family="Times,serif" font-size="14.00">n_treatment</text>
<text xml:space="preserve" text-anchor="middle" x="297" y="-169.61" font-family="Times,serif" font-size="14.00">~</text>
<text xml:space="preserve" text-anchor="middle" x="297" y="-153.11" font-family="Times,serif" font-size="14.00">Binomial</text>
</g>
<!-- sample_sizes&#45;&gt;n_treatment -->
<g id="edge7" class="edge">
<title>sample_sizes&#45;&gt;n_treatment</title>
<path fill="none" stroke="black" d="M406.92,-380.23C385.99,-341.28 347.84,-270.28 322.46,-223.04"/>
<polygon fill="black" stroke="black" points="325.62,-221.53 317.8,-214.37 319.45,-224.84 325.62,-221.53"/>
</g>
<!-- conversion_rate_treatment -->
<g id="node2" class="node">
<title>conversion_rate_treatment</title>
<polygon fill="none" stroke="black" points="208.38,-320.73 47.62,-320.73 47.62,-263.23 208.38,-263.23 208.38,-320.73"/>
<text xml:space="preserve" text-anchor="middle" x="128" y="-303.43" font-family="Times,serif" font-size="14.00">conversion_rate_treatment</text>
<text xml:space="preserve" text-anchor="middle" x="128" y="-286.93" font-family="Times,serif" font-size="14.00">~</text>
<text xml:space="preserve" text-anchor="middle" x="128" y="-270.43" font-family="Times,serif" font-size="14.00">Deterministic</text>
</g>
<!-- conversion_rate_treatment&#45;&gt;n_treatment -->
<g id="edge8" class="edge">
<title>conversion_rate_treatment&#45;&gt;n_treatment</title>
<path fill="none" stroke="black" d="M169.34,-262.77C192.74,-246.8 222.17,-226.72 246.87,-209.86"/>
<polygon fill="black" stroke="black" points="248.55,-212.96 254.83,-204.43 244.6,-207.18 248.55,-212.96"/>
</g>
<!-- relative_lift -->
<g id="node3" class="node">
<title>relative_lift</title>
<ellipse fill="none" stroke="black" cx="72" cy="-409.29" rx="55.86" ry="40.66"/>
<text xml:space="preserve" text-anchor="middle" x="72" y="-420.74" font-family="Times,serif" font-size="14.00">relative_lift</text>
<text xml:space="preserve" text-anchor="middle" x="72" y="-404.24" font-family="Times,serif" font-size="14.00">~</text>
<text xml:space="preserve" text-anchor="middle" x="72" y="-387.74" font-family="Times,serif" font-size="14.00">Normal</text>
</g>
<!-- relative_lift&#45;&gt;conversion_rate_treatment -->
<g id="edge3" class="edge">
<title>relative_lift&#45;&gt;conversion_rate_treatment</title>
<path fill="none" stroke="black" d="M90.34,-370.53C96.47,-357.91 103.3,-343.84 109.45,-331.18"/>
<polygon fill="black" stroke="black" points="112.54,-332.83 113.76,-322.3 106.24,-329.77 112.54,-332.83"/>
</g>
<!-- data_control -->
<g id="node4" class="node">
<title>data_control</title>
<path fill="lightgrey" stroke="black" d="M209.75,-203.41C209.75,-203.41 150.25,-203.41 150.25,-203.41 144.25,-203.41 138.25,-197.41 138.25,-191.41 138.25,-191.41 138.25,-157.91 138.25,-157.91 138.25,-151.91 144.25,-145.91 150.25,-145.91 150.25,-145.91 209.75,-145.91 209.75,-145.91 215.75,-145.91 221.75,-151.91 221.75,-157.91 221.75,-157.91 221.75,-191.41 221.75,-191.41 221.75,-197.41 215.75,-203.41 209.75,-203.41"/>
<text xml:space="preserve" text-anchor="middle" x="180" y="-186.11" font-family="Times,serif" font-size="14.00">data_control</text>
<text xml:space="preserve" text-anchor="middle" x="180" y="-169.61" font-family="Times,serif" font-size="14.00">~</text>
<text xml:space="preserve" text-anchor="middle" x="180" y="-153.11" font-family="Times,serif" font-size="14.00">Data</text>
</g>
<!-- n_control&#45;&gt;data_control -->
<g id="edge1" class="edge">
<title>n_control&#45;&gt;data_control</title>
<path fill="none" stroke="black" d="M247.06,-257.93C235.47,-243.71 221.88,-227.03 209.97,-212.42"/>
<polygon fill="black" stroke="black" points="212.79,-210.35 203.76,-204.81 207.37,-214.77 212.79,-210.35"/>
</g>
<!-- data_treatment -->
<g id="node6" class="node">
<title>data_treatment</title>
<path fill="lightgrey" stroke="black" d="M333.5,-98C333.5,-98 260.5,-98 260.5,-98 254.5,-98 248.5,-92 248.5,-86 248.5,-86 248.5,-52.5 248.5,-52.5 248.5,-46.5 254.5,-40.5 260.5,-40.5 260.5,-40.5 333.5,-40.5 333.5,-40.5 339.5,-40.5 345.5,-46.5 345.5,-52.5 345.5,-52.5 345.5,-86 345.5,-86 345.5,-92 339.5,-98 333.5,-98"/>
<text xml:space="preserve" text-anchor="middle" x="297" y="-80.7" font-family="Times,serif" font-size="14.00">data_treatment</text>
<text xml:space="preserve" text-anchor="middle" x="297" y="-64.2" font-family="Times,serif" font-size="14.00">~</text>
<text xml:space="preserve" text-anchor="middle" x="297" y="-47.7" font-family="Times,serif" font-size="14.00">Data</text>
</g>
<!-- n_treatment&#45;&gt;data_treatment -->
<g id="edge2" class="edge">
<title>n_treatment&#45;&gt;data_treatment</title>
<path fill="none" stroke="black" d="M297,-133.68C297,-125.83 297,-117.6 297,-109.76"/>
<polygon fill="black" stroke="black" points="300.5,-109.79 297,-99.79 293.5,-109.79 300.5,-109.79"/>
</g>
<!-- conversion_rate_control -->
<g id="node8" class="node">
<title>conversion_rate_control</title>
<ellipse fill="none" stroke="black" cx="250" cy="-409.29" rx="104.12" ry="40.66"/>
<text xml:space="preserve" text-anchor="middle" x="250" y="-420.74" font-family="Times,serif" font-size="14.00">conversion_rate_control</text>
<text xml:space="preserve" text-anchor="middle" x="250" y="-404.24" font-family="Times,serif" font-size="14.00">~</text>
<text xml:space="preserve" text-anchor="middle" x="250" y="-387.74" font-family="Times,serif" font-size="14.00">Beta</text>
</g>
<!-- conversion_rate_control&#45;&gt;conversion_rate_treatment -->
<g id="edge4" class="edge">
<title>conversion_rate_control&#45;&gt;conversion_rate_treatment</title>
<path fill="none" stroke="black" d="M210.73,-371.17C196.29,-357.52 179.98,-342.11 165.68,-328.59"/>
<polygon fill="black" stroke="black" points="168.29,-326.25 158.62,-321.92 163.49,-331.33 168.29,-326.25"/>
</g>
<!-- conversion_rate_control&#45;&gt;n_control -->
<g id="edge6" class="edge">
<title>conversion_rate_control&#45;&gt;n_control</title>
<path fill="none" stroke="black" d="M258.33,-368.28C259.98,-360.32 261.74,-351.87 263.46,-343.6"/>
<polygon fill="black" stroke="black" points="266.85,-344.51 265.46,-334.01 260,-343.08 266.85,-344.51"/>
</g>
</g>
</svg>
