<?xml version="1.0" encoding="UTF-8" standalone="no"?>
<!DOCTYPE svg PUBLIC "-//W3C//DTD SVG 1.1//EN"
 "http://www.w3.org/Graphics/SVG/1.1/DTD/svg11.dtd">
<!-- Generated by graphviz version 14.1.0 (0)
 -->
<!-- Pages: 1 -->
<svg width="1113pt" height="471pt"
 viewBox="0.00 0.00 1113.00 471.00" xmlns="http://www.w3.org/2000/svg" xmlns:xlink="http://www.w3.org/1999/xlink">
<g id="graph0" class="graph" transform="scale(1 1) rotate(0) translate(4 467)">
<polygon fill="white" stroke="none" points="-4,4 -4,-467 1108.94,-467 1108.94,4 -4,4"/>
<g id="clust1" class="cluster">
<title>cluster_origin</title>
<polygon fill="none" stroke="black" points="230.94,-44 230.94,-161 630.94,-161 630.94,-44 230.94,-44"/>
<text xml:space="preserve" text-anchor="middle" x="606.82" y="-51.2" font-family="Times,serif" font-size="14.00">origin</text>
</g>
<g id="clust2" class="cluster">
<title>cluster_destin</title>
<polygon fill="none" stroke="black" points="238.94,-76.5 238.94,-153 338.94,-153 338.94,-76.5 238.94,-76.5"/>
<text xml:space="preserve" text-anchor="middle" x="314.82" y="-83.7" font-family="Times,serif" font-size="14.00">destin</text>
</g>
<g id="clust3" class="cluster">
<title>cluster_hour_of_week</title>
<polygon fill="none" stroke="black" points="346.94,-76.5 346.94,-153 500.94,-153 500.94,-76.5 346.94,-76.5"/>
<text xml:space="preserve" text-anchor="middle" x="453.94" y="-83.7" font-family="Times,serif" font-size="14.00">hour_of_week</text>
</g>
<g id="clust4" class="cluster">
<title>cluster_destin__CLONE</title>
<polygon fill="none" stroke="black" points="638.94,-44 638.94,-253.5 1096.94,-253.5 1096.94,-44 638.94,-44"/>
<text xml:space="preserve" text-anchor="middle" x="1072.82" y="-51.2" font-family="Times,serif" font-size="14.00">destin</text>
</g>
<g id="clust5" class="cluster">
<title>cluster_time</title>
<polygon fill="none" stroke="black" points="646.94,-76.5 646.94,-245.5 804.94,-245.5 804.94,-76.5 646.94,-76.5"/>
<text xml:space="preserve" text-anchor="middle" x="784.57" y="-83.7" font-family="Times,serif" font-size="14.00">time</text>
</g>
<g id="clust6" class="cluster">
<title>cluster_hour_of_week__CLONE</title>
<polygon fill="none" stroke="black" points="812.94,-169 812.94,-245.5 966.94,-245.5 966.94,-169 812.94,-169"/>
<text xml:space="preserve" text-anchor="middle" x="919.94" y="-176.2" font-family="Times,serif" font-size="14.00">hour_of_week</text>
</g>
<!-- drift_scale -->
<g id="node1" class="node">
<title>drift_scale</title>
<ellipse fill="white" stroke="black" cx="725.94" cy="-368.25" rx="49.82" ry="18"/>
<text xml:space="preserve" text-anchor="middle" x="725.94" y="-363.2" font-family="Times,serif" font-size="14.00">drift_scale</text>
</g>
<!-- drift_decentered -->
<g id="node9" class="node">
<title>drift_decentered</title>
<ellipse fill="white" stroke="black" cx="725.94" cy="-219.5" rx="71.31" ry="18"/>
<text xml:space="preserve" text-anchor="middle" x="725.94" y="-214.45" font-family="Times,serif" font-size="14.00">drift_decentered</text>
</g>
<!-- drift_scale&#45;&gt;drift_decentered -->
<g id="edge1" class="edge">
<title>drift_scale&#45;&gt;drift_decentered</title>
<path fill="none" stroke="black" d="M725.94,-349.84C725.94,-325.02 725.94,-279.15 725.94,-249.24"/>
<polygon fill="black" stroke="black" points="729.44,-249.4 725.94,-239.4 722.44,-249.4 729.44,-249.4"/>
</g>
<!-- drift -->
<g id="node10" class="node">
<title>drift</title>
<ellipse fill="white" stroke="black" stroke-dasharray="5,2" cx="681.94" cy="-127" rx="27" ry="18"/>
<text xml:space="preserve" text-anchor="middle" x="681.94" y="-121.95" font-family="Times,serif" font-size="14.00">drift</text>
</g>
<!-- drift_scale&#45;&gt;drift -->
<g id="edge3" class="edge">
<title>drift_scale&#45;&gt;drift</title>
<path fill="none" stroke="black" d="M716.88,-350.15C706.19,-330.68 687.28,-298.36 666.94,-273.5 658.78,-263.52 651.02,-265.35 645.94,-253.5 631.15,-218.98 632.7,-204.14 645.94,-169 648.57,-162.02 652.99,-155.45 657.85,-149.71"/>
<polygon fill="black" stroke="black" points="660.31,-152.2 664.61,-142.52 655.21,-147.4 660.31,-152.2"/>
</g>
<!-- destin_centered -->
<g id="node2" class="node">
<title>destin_centered</title>
<ellipse fill="white" stroke="black" cx="588.94" cy="-368.25" rx="68.75" ry="18"/>
<text xml:space="preserve" text-anchor="middle" x="588.94" y="-363.2" font-family="Times,serif" font-size="14.00">destin_centered</text>
</g>
<!-- destin_centered&#45;&gt;drift_decentered -->
<g id="edge2" class="edge">
<title>destin_centered&#45;&gt;drift_decentered</title>
<path fill="none" stroke="black" d="M601.78,-350.37C616.7,-331.11 642.42,-298.97 666.94,-273.5 676.47,-263.6 687.53,-253.37 697.49,-244.57"/>
<polygon fill="black" stroke="black" points="699.51,-247.45 704.74,-238.24 694.91,-242.17 699.51,-247.45"/>
</g>
<!-- destin_centered&#45;&gt;drift -->
<g id="edge4" class="edge">
<title>destin_centered&#45;&gt;drift</title>
<path fill="none" stroke="black" d="M588.82,-349.92C589.34,-313.61 594.64,-228.04 630.94,-169 636.43,-160.07 644.59,-152.25 652.78,-145.9"/>
<polygon fill="black" stroke="black" points="654.57,-148.92 660.67,-140.26 650.5,-143.23 654.57,-148.92"/>
</g>
<!-- nn_residual_scale -->
<g id="node3" class="node">
<title>nn_residual_scale</title>
<ellipse fill="white" stroke="black" cx="76.94" cy="-127" rx="76.94" ry="18"/>
<text xml:space="preserve" text-anchor="middle" x="76.94" y="-121.95" font-family="Times,serif" font-size="14.00">nn_residual_scale</text>
</g>
<!-- obs -->
<g id="node4" class="node">
<title>obs</title>
<ellipse fill="grey" stroke="black" cx="494.94" cy="-18" rx="27" ry="18"/>
<text xml:space="preserve" text-anchor="middle" x="494.94" y="-12.95" font-family="Times,serif" font-size="14.00">obs</text>
</g>
<!-- nn_residual_scale&#45;&gt;obs -->
<g id="edge7" class="edge">
<title>nn_residual_scale&#45;&gt;obs</title>
<path fill="none" stroke="black" d="M88.95,-108.93C103.81,-89.36 131.08,-58.16 162.94,-44 214.46,-21.1 380.22,-18.58 456.22,-18.68"/>
<polygon fill="black" stroke="black" points="456.09,-22.18 466.1,-18.71 456.11,-15.18 456.09,-22.18"/>
</g>
<!-- transition$params -->
<g id="node5" class="node">
<title>transition$params</title>
<polygon fill="white" stroke="none" points="222.44,-135.25 171.44,-135.25 171.44,-118.75 222.44,-118.75 222.44,-135.25"/>
<text xml:space="preserve" text-anchor="middle" x="196.94" y="-121.95" font-family="Times,serif" font-size="14.00">transition</text>
</g>
<!-- transition$params&#45;&gt;obs -->
<g id="edge13" class="edge">
<title>transition$params&#45;&gt;obs</title>
<path fill="none" stroke="black" d="M197.85,-119.04C200.37,-102.78 209.08,-62.32 234.94,-44 269.6,-19.45 392.77,-17.44 456.35,-18.13"/>
<polygon fill="black" stroke="black" points="455.93,-21.63 465.98,-18.27 456.02,-14.63 455.93,-21.63"/>
</g>
<!-- origin_seasonal -->
<g id="node6" class="node">
<title>origin_seasonal</title>
<ellipse fill="white" stroke="black" cx="423.94" cy="-127" rx="68.75" ry="18"/>
<text xml:space="preserve" text-anchor="middle" x="423.94" y="-121.95" font-family="Times,serif" font-size="14.00">origin_seasonal</text>
</g>
<!-- origin_seasonal&#45;&gt;obs -->
<g id="edge8" class="edge">
<title>origin_seasonal&#45;&gt;obs</title>
<path fill="none" stroke="black" d="M435.35,-108.81C446.95,-91.32 465.06,-64.04 478.27,-44.13"/>
<polygon fill="black" stroke="black" points="481.04,-46.28 483.65,-36.02 475.21,-42.41 481.04,-46.28"/>
</g>
<!-- pairwise -->
<g id="node7" class="node">
<title>pairwise</title>
<ellipse fill="white" stroke="black" cx="288.94" cy="-127" rx="42.14" ry="18"/>
<text xml:space="preserve" text-anchor="middle" x="288.94" y="-121.95" font-family="Times,serif" font-size="14.00">pairwise</text>
</g>
<!-- pairwise&#45;&gt;obs -->
<g id="edge10" class="edge">
<title>pairwise&#45;&gt;obs</title>
<path fill="none" stroke="black" d="M295.33,-108.78C303.36,-89.67 319.06,-59.5 342.94,-44 361.24,-32.12 417.93,-25.23 456.66,-21.79"/>
<polygon fill="black" stroke="black" points="456.87,-25.29 466.54,-20.96 456.28,-18.31 456.87,-25.29"/>
</g>
<!-- origin_scale -->
<g id="node8" class="node">
<title>origin_scale</title>
<ellipse fill="white" stroke="black" cx="566.94" cy="-127" rx="55.96" ry="18"/>
<text xml:space="preserve" text-anchor="middle" x="566.94" y="-121.95" font-family="Times,serif" font-size="14.00">origin_scale</text>
</g>
<!-- origin_scale&#45;&gt;obs -->
<g id="edge11" class="edge">
<title>origin_scale&#45;&gt;obs</title>
<path fill="none" stroke="black" d="M555.69,-109.28C543.99,-91.88 525.51,-64.43 512.01,-44.36"/>
<polygon fill="black" stroke="black" points="514.97,-42.5 506.49,-36.16 509.17,-46.41 514.97,-42.5"/>
</g>
<!-- drift_decentered&#45;&gt;drift -->
<g id="edge5" class="edge">
<title>drift_decentered&#45;&gt;drift</title>
<path fill="none" stroke="black" d="M717.67,-201.48C711.3,-188.38 702.37,-170.02 695.03,-154.93"/>
<polygon fill="black" stroke="black" points="698.21,-153.46 690.69,-146 691.92,-156.53 698.21,-153.46"/>
</g>
<!-- drift&#45;&gt;obs -->
<g id="edge6" class="edge">
<title>drift&#45;&gt;obs</title>
<path fill="none" stroke="black" d="M676.97,-108.88C670.52,-89.87 657.35,-59.78 634.94,-44 618.87,-32.68 568.61,-25.77 532.92,-22.16"/>
<polygon fill="black" stroke="black" points="533.7,-18.72 523.41,-21.25 533.03,-25.69 533.7,-18.72"/>
</g>
<!-- destin_seasonal -->
<g id="node11" class="node">
<title>destin_seasonal</title>
<ellipse fill="white" stroke="black" cx="889.94" cy="-219.5" rx="68.75" ry="18"/>
<text xml:space="preserve" text-anchor="middle" x="889.94" y="-214.45" font-family="Times,serif" font-size="14.00">destin_seasonal</text>
</g>
<!-- destin_seasonal&#45;&gt;obs -->
<g id="edge9" class="edge">
<title>destin_seasonal&#45;&gt;obs</title>
<path fill="none" stroke="black" d="M883.13,-201.34C866.27,-159.28 822.96,-53.75 808.94,-44 786.82,-28.61 612.58,-22.1 533.61,-19.92"/>
<polygon fill="black" stroke="black" points="533.84,-16.42 523.75,-19.65 533.65,-23.42 533.84,-16.42"/>
</g>
<!-- destin_scale -->
<g id="node12" class="node">
<title>destin_scale</title>
<ellipse fill="white" stroke="black" cx="1032.94" cy="-219.5" rx="55.96" ry="18"/>
<text xml:space="preserve" text-anchor="middle" x="1032.94" y="-214.45" font-family="Times,serif" font-size="14.00">destin_scale</text>
</g>
<!-- destin_scale&#45;&gt;obs -->
<g id="edge12" class="edge">
<title>destin_scale&#45;&gt;obs</title>
<path fill="none" stroke="black" d="M1021.82,-201.65C996.66,-165.16 931.31,-79.3 851.94,-44 795.81,-19.03 613.33,-17.72 533.23,-18.42"/>
<polygon fill="black" stroke="black" points="533.66,-14.91 523.7,-18.52 533.73,-21.91 533.66,-14.91"/>
</g>
<!-- distribution_description_node -->
<g id="node13" class="node">
<title>distribution_description_node</title>
<text xml:space="preserve" text-anchor="start" x="802.19" y="-445.7" font-family="Times,serif" font-size="14.00">drift_scale ~ LogNormal</text>
<text xml:space="preserve" text-anchor="start" x="802.19" y="-429.2" font-family="Times,serif" font-size="14.00">destin_centered ~ Uniform</text>
<text xml:space="preserve" text-anchor="start" x="802.19" y="-412.7" font-family="Times,serif" font-size="14.00">drift_decentered ~ Normal</text>
<text xml:space="preserve" text-anchor="start" x="802.19" y="-396.2" font-family="Times,serif" font-size="14.00">drift ~ Deterministic</text>
<text xml:space="preserve" text-anchor="start" x="802.19" y="-379.7" font-family="Times,serif" font-size="14.00">nn_residual_scale ~ LogNormal</text>
<text xml:space="preserve" text-anchor="start" x="802.19" y="-363.2" font-family="Times,serif" font-size="14.00">origin_seasonal ~ Normal</text>
<text xml:space="preserve" text-anchor="start" x="802.19" y="-346.7" font-family="Times,serif" font-size="14.00">destin_seasonal ~ Normal</text>
<text xml:space="preserve" text-anchor="start" x="802.19" y="-330.2" font-family="Times,serif" font-size="14.00">pairwise ~ Normal</text>
<text xml:space="preserve" text-anchor="start" x="802.19" y="-313.7" font-family="Times,serif" font-size="14.00">origin_scale ~ LogNormal</text>
<text xml:space="preserve" text-anchor="start" x="802.19" y="-297.2" font-family="Times,serif" font-size="14.00">destin_scale ~ LogNormal</text>
<text xml:space="preserve" text-anchor="start" x="802.19" y="-280.7" font-family="Times,serif" font-size="14.00">obs ~ Normal</text>
</g>
</g>
</svg>
