<?xml version="1.0" encoding="UTF-8" standalone="no"?>
<!DOCTYPE svg PUBLIC "-//W3C//DTD SVG 1.1//EN"
 "http://www.w3.org/Graphics/SVG/1.1/DTD/svg11.dtd">
<!-- Generated by graphviz version 12.0.0 (0)
 -->
<!-- Pages: 1 -->
<svg width="1182pt" height="455pt"
 viewBox="0.00 0.00 1181.50 454.50" xmlns="http://www.w3.org/2000/svg" xmlns:xlink="http://www.w3.org/1999/xlink">
<g id="graph0" class="graph" transform="scale(1 1) rotate(0) translate(4 450.5)">
<polygon fill="white" stroke="none" points="-4,4 -4,-450.5 1177.5,-450.5 1177.5,4 -4,4"/>
<g id="clust1" class="cluster">
<title>cluster_origin</title>
<polygon fill="none" stroke="black" points="8,-44 8,-161 408,-161 408,-44 8,-44"/>
<text text-anchor="middle" x="383.88" y="-51.2" font-family="Times,serif" font-size="14.00">origin</text>
</g>
<g id="clust2" class="cluster">
<title>cluster_destin</title>
<polygon fill="none" stroke="black" points="16,-76.5 16,-153 116,-153 116,-76.5 16,-76.5"/>
<text text-anchor="middle" x="91.88" y="-83.7" font-family="Times,serif" font-size="14.00">destin</text>
</g>
<g id="clust3" class="cluster">
<title>cluster_hour_of_week</title>
<polygon fill="none" stroke="black" points="124,-76.5 124,-153 278,-153 278,-76.5 124,-76.5"/>
<text text-anchor="middle" x="231" y="-83.7" font-family="Times,serif" font-size="14.00">hour_of_week</text>
</g>
<g id="clust4" class="cluster">
<title>cluster_destin__CLONE</title>
<polygon fill="none" stroke="black" points="416,-44 416,-253.5 874,-253.5 874,-44 416,-44"/>
<text text-anchor="middle" x="849.88" y="-51.2" font-family="Times,serif" font-size="14.00">destin</text>
</g>
<g id="clust5" class="cluster">
<title>cluster_time</title>
<polygon fill="none" stroke="black" points="708,-76.5 708,-245.5 866,-245.5 866,-76.5 708,-76.5"/>
<text text-anchor="middle" x="845.62" y="-83.7" font-family="Times,serif" font-size="14.00">time</text>
</g>
<g id="clust6" class="cluster">
<title>cluster_hour_of_week__CLONE</title>
<polygon fill="none" stroke="black" points="546,-169 546,-245.5 700,-245.5 700,-169 546,-169"/>
<text text-anchor="middle" x="653" y="-176.2" font-family="Times,serif" font-size="14.00">hour_of_week</text>
</g>
<!-- drift_scale -->
<g id="node1" class="node">
<title>drift_scale</title>
<ellipse fill="white" stroke="black" cx="787" cy="-360" rx="49.82" ry="18"/>
<text text-anchor="middle" x="787" y="-354.95" font-family="Times,serif" font-size="14.00">drift_scale</text>
</g>
<!-- drift_decentered -->
<g id="node7" class="node">
<title>drift_decentered</title>
<ellipse fill="white" stroke="black" cx="787" cy="-219.5" rx="71.31" ry="18"/>
<text text-anchor="middle" x="787" y="-214.45" font-family="Times,serif" font-size="14.00">drift_decentered</text>
</g>
<!-- drift_scale&#45;&gt;drift_decentered -->
<g id="edge1" class="edge">
<title>drift_scale&#45;&gt;drift_decentered</title>
<path fill="none" stroke="black" d="M787,-341.74C787,-318.62 787,-277.28 787,-249.38"/>
<polygon fill="black" stroke="black" points="790.5,-249.49 787,-239.49 783.5,-249.49 790.5,-249.49"/>
</g>
<!-- drift -->
<g id="node8" class="node">
<title>drift</title>
<ellipse fill="white" stroke="black" stroke-dasharray="5,2" cx="809" cy="-127" rx="27" ry="18"/>
<text text-anchor="middle" x="809" y="-121.95" font-family="Times,serif" font-size="14.00">drift</text>
</g>
<!-- drift_scale&#45;&gt;drift -->
<g id="edge3" class="edge">
<title>drift_scale&#45;&gt;drift</title>
<path fill="none" stroke="black" d="M797.14,-342.2C808.21,-324.4 826.91,-295.85 846,-273.5 854.37,-263.7 861.92,-265.35 867,-253.5 881.79,-218.98 884.27,-202.35 867,-169 861.33,-158.05 851.23,-149.39 841.04,-142.91"/>
<polygon fill="black" stroke="black" points="843.1,-140.06 832.69,-138.12 839.62,-146.13 843.1,-140.06"/>
</g>
<!-- destin_centered -->
<g id="node2" class="node">
<title>destin_centered</title>
<ellipse fill="white" stroke="black" cx="924" cy="-360" rx="68.75" ry="18"/>
<text text-anchor="middle" x="924" y="-354.95" font-family="Times,serif" font-size="14.00">destin_centered</text>
</g>
<!-- destin_centered&#45;&gt;drift_decentered -->
<g id="edge2" class="edge">
<title>destin_centered&#45;&gt;drift_decentered</title>
<path fill="none" stroke="black" d="M909.52,-342.16C894.2,-324.58 869.1,-296.43 846,-273.5 836.17,-263.75 824.96,-253.48 814.97,-244.61"/>
<polygon fill="black" stroke="black" points="817.53,-242.19 807.71,-238.22 812.91,-247.45 817.53,-242.19"/>
</g>
<!-- destin_centered&#45;&gt;drift -->
<g id="edge4" class="edge">
<title>destin_centered&#45;&gt;drift</title>
<path fill="none" stroke="black" d="M925.32,-341.57C927.12,-305.57 926.41,-221.98 887,-169 876.57,-154.97 859.91,-145.3 844.66,-138.89"/>
<polygon fill="black" stroke="black" points="845.92,-135.62 835.33,-135.32 843.42,-142.16 845.92,-135.62"/>
</g>
<!-- obs -->
<g id="node3" class="node">
<title>obs</title>
<ellipse fill="grey" stroke="black" cx="399" cy="-18" rx="27" ry="18"/>
<text text-anchor="middle" x="399" y="-12.95" font-family="Times,serif" font-size="14.00">obs</text>
</g>
<!-- origin_seasonal -->
<g id="node4" class="node">
<title>origin_seasonal</title>
<ellipse fill="white" stroke="black" cx="201" cy="-127" rx="68.75" ry="18"/>
<text text-anchor="middle" x="201" y="-121.95" font-family="Times,serif" font-size="14.00">origin_seasonal</text>
</g>
<!-- origin_seasonal&#45;&gt;obs -->
<g id="edge6" class="edge">
<title>origin_seasonal&#45;&gt;obs</title>
<path fill="none" stroke="black" d="M211.32,-108.9C223.73,-89.9 246.38,-59.83 274,-44 300.39,-28.87 334.48,-22.78 360.39,-20.39"/>
<polygon fill="black" stroke="black" points="360.45,-23.89 370.15,-19.64 359.91,-16.91 360.45,-23.89"/>
</g>
<!-- pairwise -->
<g id="node5" class="node">
<title>pairwise</title>
<ellipse fill="white" stroke="black" cx="66" cy="-127" rx="42.14" ry="18"/>
<text text-anchor="middle" x="66" y="-121.95" font-family="Times,serif" font-size="14.00">pairwise</text>
</g>
<!-- pairwise&#45;&gt;obs -->
<g id="edge9" class="edge">
<title>pairwise&#45;&gt;obs</title>
<path fill="none" stroke="black" d="M72.04,-108.8C79.85,-89.42 95.42,-58.7 120,-44 159.57,-20.34 293.59,-18.01 360.43,-18.4"/>
<polygon fill="black" stroke="black" points="360.17,-21.9 370.19,-18.48 360.22,-14.9 360.17,-21.9"/>
</g>
<!-- origin_scale -->
<g id="node6" class="node">
<title>origin_scale</title>
<ellipse fill="white" stroke="black" cx="344" cy="-127" rx="55.96" ry="18"/>
<text text-anchor="middle" x="344" y="-121.95" font-family="Times,serif" font-size="14.00">origin_scale</text>
</g>
<!-- origin_scale&#45;&gt;obs -->
<g id="edge10" class="edge">
<title>origin_scale&#45;&gt;obs</title>
<path fill="none" stroke="black" d="M352.84,-108.81C361.6,-91.76 375.15,-65.4 385.3,-45.64"/>
<polygon fill="black" stroke="black" points="388.4,-47.29 389.85,-36.79 382.17,-44.09 388.4,-47.29"/>
</g>
<!-- drift_decentered&#45;&gt;drift -->
<g id="edge5" class="edge">
<title>drift_decentered&#45;&gt;drift</title>
<path fill="none" stroke="black" d="M791.24,-201.05C794.34,-188.32 798.59,-170.81 802.16,-156.12"/>
<polygon fill="black" stroke="black" points="805.53,-157.1 804.49,-146.56 798.73,-155.45 805.53,-157.1"/>
</g>
<!-- drift&#45;&gt;obs -->
<g id="edge7" class="edge">
<title>drift&#45;&gt;obs</title>
<path fill="none" stroke="black" d="M786.45,-116.63C744.68,-99.64 652.12,-63.69 571,-44 525.55,-32.97 472.1,-26.13 436.98,-22.45"/>
<polygon fill="black" stroke="black" points="437.62,-19 427.32,-21.48 436.92,-25.97 437.62,-19"/>
</g>
<!-- destin_seasonal -->
<g id="node9" class="node">
<title>destin_seasonal</title>
<ellipse fill="white" stroke="black" cx="623" cy="-219.5" rx="68.75" ry="18"/>
<text text-anchor="middle" x="623" y="-214.45" font-family="Times,serif" font-size="14.00">destin_seasonal</text>
</g>
<!-- destin_seasonal&#45;&gt;obs -->
<g id="edge8" class="edge">
<title>destin_seasonal&#45;&gt;obs</title>
<path fill="none" stroke="black" d="M620.45,-201.08C614.25,-165.39 594.88,-83.97 543,-44 526.86,-31.56 474.29,-24.89 437.35,-21.65"/>
<polygon fill="black" stroke="black" points="437.74,-18.17 427.48,-20.83 437.16,-25.14 437.74,-18.17"/>
</g>
<!-- destin_scale -->
<g id="node10" class="node">
<title>destin_scale</title>
<ellipse fill="white" stroke="black" cx="480" cy="-219.5" rx="55.96" ry="18"/>
<text text-anchor="middle" x="480" y="-214.45" font-family="Times,serif" font-size="14.00">destin_scale</text>
</g>
<!-- destin_scale&#45;&gt;obs -->
<g id="edge11" class="edge">
<title>destin_scale&#45;&gt;obs</title>
<path fill="none" stroke="black" d="M474.03,-201.4C463.46,-171.52 440.26,-107.77 412.47,-45.64"/>
<polygon fill="black" stroke="black" points="415.72,-44.33 408.41,-36.66 409.34,-47.21 415.72,-44.33"/>
</g>
<!-- distribution_description_node -->
<g id="node11" class="node">
<title>distribution_description_node</title>
<text text-anchor="start" x="1018.5" y="-429.2" font-family="Times,serif" font-size="14.00">drift_scale ~ LogNormal</text>
<text text-anchor="start" x="1018.5" y="-412.7" font-family="Times,serif" font-size="14.00">destin_centered ~ Uniform</text>
<text text-anchor="start" x="1018.5" y="-396.2" font-family="Times,serif" font-size="14.00">origin_seasonal ~ Normal</text>
<text text-anchor="start" x="1018.5" y="-379.7" font-family="Times,serif" font-size="14.00">drift_decentered ~ Normal</text>
<text text-anchor="start" x="1018.5" y="-363.2" font-family="Times,serif" font-size="14.00">drift ~ Deterministic</text>
<text text-anchor="start" x="1018.5" y="-346.7" font-family="Times,serif" font-size="14.00">destin_seasonal ~ Normal</text>
<text text-anchor="start" x="1018.5" y="-330.2" font-family="Times,serif" font-size="14.00">pairwise ~ Normal</text>
<text text-anchor="start" x="1018.5" y="-313.7" font-family="Times,serif" font-size="14.00">origin_scale ~ LogNormal</text>
<text text-anchor="start" x="1018.5" y="-297.2" font-family="Times,serif" font-size="14.00">destin_scale ~ LogNormal</text>
<text text-anchor="start" x="1018.5" y="-280.7" font-family="Times,serif" font-size="14.00">obs ~ Normal</text>
</g>
</g>
</svg>
