<?xml version="1.0" encoding="utf-8" standalone="no"?>
<!DOCTYPE svg PUBLIC "-//W3C//DTD SVG 1.1//EN"
  "http://www.w3.org/Graphics/SVG/1.1/DTD/svg11.dtd">
<svg xmlns:xlink="http://www.w3.org/1999/xlink" width="732.982601pt" height="386.293625pt" viewBox="0 0 732.982601 386.293625" xmlns="http://www.w3.org/2000/svg" version="1.1">
 <metadata>
  <rdf:RDF xmlns:dc="http://purl.org/dc/elements/1.1/" xmlns:cc="http://creativecommons.org/ns#" xmlns:rdf="http://www.w3.org/1999/02/22-rdf-syntax-ns#">
   <cc:Work>
    <dc:type rdf:resource="http://purl.org/dc/dcmitype/StillImage"/>
    <dc:date>2022-07-18T19:33:02.814246</dc:date>
    <dc:format>image/svg+xml</dc:format>
    <dc:creator>
     <cc:Agent>
      <dc:title>Matplotlib v3.5.1, https://matplotlib.org/</dc:title>
     </cc:Agent>
    </dc:creator>
   </cc:Work>
  </rdf:RDF>
 </metadata>
 <defs>
  <style type="text/css">*{stroke-linejoin: round; stroke-linecap: butt}</style>
 </defs>
 <g id="figure_1">
  <g id="patch_1">
   <path d="M -0 386.293625 
L 732.982601 386.293625 
L 732.982601 0 
L -0 0 
z
" style="fill: #ffffff"/>
  </g>
  <g id="axes_1">
   <g id="patch_2">
    <path d="M 51.76375 350.30175 
L 721.36375 350.30175 
L 721.36375 24.14175 
L 51.76375 24.14175 
z
" style="fill: #eeeeee"/>
   </g>
   <g id="PolyCollection_1">
    <defs>
     <path id="mc9912ad9e5" d="M 82.200114 -61.045205 
L 82.200114 -51.115229 
L 87.997516 -50.81733 
L 93.794919 -50.81733 
L 99.592321 -50.81733 
L 105.389724 -50.81733 
L 111.187127 -50.81733 
L 116.984529 -50.81733 
L 122.781932 -50.81733 
L 128.579334 -50.81733 
L 134.376737 -50.81733 
L 140.17414 -50.81733 
L 145.971542 -50.81733 
L 151.768945 -50.81733 
L 157.566347 -50.81733 
L 163.36375 -50.81733 
L 169.161153 -50.81733 
L 174.958555 -50.81733 
L 180.755958 -50.81733 
L 186.55336 -50.81733 
L 192.350763 -50.81733 
L 198.148166 -50.81733 
L 203.945568 -50.81733 
L 209.742971 -50.81733 
L 215.540373 -50.81733 
L 221.337776 -50.81733 
L 227.135179 -50.81733 
L 232.932581 -50.81733 
L 238.729984 -50.81733 
L 244.527386 -50.81733 
L 250.324789 -50.81733 
L 256.122192 -50.81733 
L 261.919594 -50.81733 
L 267.716997 -50.81733 
L 273.514399 -50.81733 
L 279.311802 -50.81733 
L 285.109205 -50.81733 
L 290.906607 -50.81733 
L 296.70401 -50.81733 
L 302.501412 -50.81733 
L 308.298815 -50.81733 
L 314.096218 -50.81733 
L 319.89362 -50.81733 
L 325.691023 -50.81733 
L 331.488425 -50.81733 
L 337.285828 -50.81733 
L 343.083231 -50.81733 
L 348.880633 -50.81733 
L 354.678036 -50.81733 
L 360.475438 -50.81733 
L 366.272841 -50.81733 
L 372.070244 -50.81733 
L 377.867646 -50.81733 
L 383.665049 -50.81733 
L 389.462451 -50.81733 
L 395.259854 -50.81733 
L 401.057256 -50.81733 
L 406.854659 -50.81733 
L 412.652062 -50.81733 
L 418.449464 -50.81733 
L 424.246867 -50.81733 
L 430.044269 -50.81733 
L 435.841672 -50.81733 
L 441.639075 -50.81733 
L 447.436477 -50.81733 
L 453.23388 -50.81733 
L 459.031282 -50.81733 
L 464.828685 -50.81733 
L 470.626088 -50.81733 
L 476.42349 -50.81733 
L 482.220893 -50.81733 
L 488.018295 -50.81733 
L 493.815698 -50.81733 
L 499.613101 -50.81733 
L 505.410503 -50.81733 
L 511.207906 -50.81733 
L 517.005308 -50.81733 
L 522.802711 -50.81733 
L 528.600114 -50.81733 
L 534.397516 -50.81733 
L 540.194919 -50.81733 
L 545.992321 -50.81733 
L 551.789724 -50.81733 
L 557.587127 -50.81733 
L 563.384529 -50.81733 
L 569.181932 -50.81733 
L 574.979334 -50.81733 
L 580.776737 -50.81733 
L 586.57414 -50.81733 
L 592.371542 -50.81733 
L 598.168945 -50.81733 
L 603.966347 -50.81733 
L 609.76375 -50.81733 
L 615.561153 -50.81733 
L 621.358555 -50.81733 
L 627.155958 -50.81733 
L 632.95336 -50.81733 
L 638.750763 -50.81733 
L 644.548166 -50.81733 
L 650.345568 -50.81733 
L 656.142971 -50.81733 
L 661.940373 -50.81733 
L 667.737776 -50.81733 
L 673.535179 -50.81733 
L 679.332581 -50.81733 
L 685.129984 -50.81733 
L 690.927386 -50.81733 
L 690.927386 -226.28001 
L 690.927386 -226.28001 
L 685.129984 -229.159703 
L 679.332581 -183.382513 
L 673.535179 -171.96304 
L 667.737776 -222.308019 
L 661.940373 -231.542897 
L 656.142971 -260.240529 
L 650.345568 -234.919089 
L 644.548166 -232.734494 
L 638.750763 -207.909554 
L 632.95336 -191.227194 
L 627.155958 -221.811521 
L 621.358555 -241.472874 
L 615.561153 -245.544164 
L 609.76375 -252.395847 
L 603.966347 -241.274274 
L 598.168945 -214.264739 
L 592.371542 -213.76824 
L 586.57414 -239.884077 
L 580.776737 -245.941363 
L 574.979334 -281.490678 
L 569.181932 -269.475407 
L 563.384529 -272.0572 
L 557.587127 -214.364038 
L 551.789724 -198.178177 
L 545.992321 -232.933094 
L 540.194919 -243.657468 
L 534.397516 -287.647263 
L 528.600114 -247.828058 
L 522.802711 -280.398381 
L 517.005308 -232.535895 
L 511.207906 -211.186446 
L 505.410503 -245.643464 
L 499.613101 -288.044462 
L 493.815698 -315.649796 
L 488.018295 -276.32709 
L 482.220893 -270.269805 
L 476.42349 -210.392048 
L 470.626088 -209.895549 
L 464.828685 -250.807051 
L 459.031282 -258.453133 
L 453.23388 -305.421921 
L 447.436477 -313.068002 
L 441.639075 -280.199781 
L 435.841672 -222.705218 
L 430.044269 -205.52636 
L 424.246867 -274.936894 
L 418.449464 -286.356366 
L 412.652062 -296.683542 
L 406.854659 -297.27934 
L 401.057256 -277.915886 
L 395.259854 -243.06167 
L 389.462451 -214.562638 
L 383.665049 -248.920356 
L 377.867646 -277.022189 
L 372.070244 -295.988443 
L 366.272841 -287.647263 
L 360.475438 -293.605249 
L 354.678036 -233.131694 
L 348.880633 -224.194715 
L 343.083231 -255.176241 
L 337.285828 -278.809584 
L 331.488425 -303.733825 
L 325.691023 -324.884674 
L 319.89362 -288.342362 
L 314.096218 -253.686744 
L 308.298815 -220.917823 
L 302.501412 -264.212519 
L 296.70401 -302.145029 
L 290.906607 -319.721086 
L 285.109205 -286.753565 
L 279.311802 -329.253864 
L 273.514399 -236.110686 
L 267.716997 -226.478609 
L 261.919594 -265.702016 
L 256.122192 -269.971905 
L 250.324789 -316.841393 
L 244.527386 -280.59698 
L 238.729984 -281.987177 
L 232.932581 -252.296548 
L 227.135179 -211.782245 
L 221.337776 -259.148231 
L 215.540373 -289.732558 
L 209.742971 -347.32642 
L 203.945568 -300.357633 
L 198.148166 -283.575973 
L 192.350763 -249.714754 
L 186.55336 -224.889813 
L 180.755958 -276.724289 
L 174.958555 -287.250064 
L 169.161153 -288.143762 
L 163.36375 -321.210583 
L 157.566347 -290.824856 
L 151.768945 -228.961104 
L 145.971542 -219.924825 
L 140.17414 -283.575973 
L 134.376737 -283.675273 
L 128.579334 -330.048262 
L 122.781932 -296.087743 
L 116.984529 -307.308616 
L 111.187127 -247.33156 
L 105.389724 -219.726226 
L 99.592321 -273.348097 
L 93.794919 -286.455666 
L 87.997516 -276.823589 
L 82.200114 -61.045205 
z
" style="stroke: #348abd; stroke-opacity: 0.3; stroke-width: 0.5"/>
    </defs>
    <g clip-path="url(#pbe0b504352)">
     <use xlink:href="#mc9912ad9e5" x="0" y="386.293625" style="fill: #348abd; fill-opacity: 0.3; stroke: #348abd; stroke-opacity: 0.3; stroke-width: 0.5"/>
    </g>
   </g>
   <g id="PolyCollection_2">
    <defs>
     <path id="m909ac1c048" d="M 82.200114 -57.073215 
L 82.200114 -54.78932 
L 87.997516 -50.81733 
L 93.794919 -50.81733 
L 99.592321 -50.81733 
L 105.389724 -50.81733 
L 111.187127 -50.81733 
L 116.984529 -50.81733 
L 122.781932 -50.81733 
L 128.579334 -50.81733 
L 134.376737 -50.81733 
L 140.17414 -50.916629 
L 145.971542 -50.81733 
L 151.768945 -50.916629 
L 157.566347 -50.81733 
L 163.36375 -50.81733 
L 169.161153 -50.916629 
L 174.958555 -50.81733 
L 180.755958 -50.916629 
L 186.55336 -50.81733 
L 192.350763 -50.81733 
L 198.148166 -50.81733 
L 203.945568 -50.81733 
L 209.742971 -50.81733 
L 215.540373 -50.81733 
L 221.337776 -50.81733 
L 227.135179 -50.916629 
L 232.932581 -50.81733 
L 238.729984 -50.81733 
L 244.527386 -50.81733 
L 250.324789 -50.81733 
L 256.122192 -50.81733 
L 261.919594 -50.81733 
L 267.716997 -50.81733 
L 273.514399 -50.916629 
L 279.311802 -50.81733 
L 285.109205 -50.81733 
L 290.906607 -50.81733 
L 296.70401 -50.81733 
L 302.501412 -50.81733 
L 308.298815 -50.81733 
L 314.096218 -50.81733 
L 319.89362 -50.81733 
L 325.691023 -50.81733 
L 331.488425 -50.81733 
L 337.285828 -50.81733 
L 343.083231 -50.916629 
L 348.880633 -50.81733 
L 354.678036 -50.916629 
L 360.475438 -50.81733 
L 366.272841 -50.81733 
L 372.070244 -50.81733 
L 377.867646 -50.81733 
L 383.665049 -50.81733 
L 389.462451 -50.81733 
L 395.259854 -50.916629 
L 401.057256 -50.81733 
L 406.854659 -50.916629 
L 412.652062 -50.81733 
L 418.449464 -50.81733 
L 424.246867 -50.81733 
L 430.044269 -50.81733 
L 435.841672 -50.916629 
L 441.639075 -50.916629 
L 447.436477 -50.81733 
L 453.23388 -50.916629 
L 459.031282 -50.81733 
L 464.828685 -50.81733 
L 470.626088 -50.81733 
L 476.42349 -50.81733 
L 482.220893 -50.81733 
L 488.018295 -50.81733 
L 493.815698 -50.81733 
L 499.613101 -50.81733 
L 505.410503 -50.916629 
L 511.207906 -50.916629 
L 517.005308 -50.81733 
L 522.802711 -50.81733 
L 528.600114 -50.81733 
L 534.397516 -50.81733 
L 540.194919 -50.81733 
L 545.992321 -51.015929 
L 551.789724 -50.81733 
L 557.587127 -50.81733 
L 563.384529 -50.81733 
L 569.181932 -50.81733 
L 574.979334 -50.81733 
L 580.776737 -50.81733 
L 586.57414 -50.81733 
L 592.371542 -50.81733 
L 598.168945 -50.81733 
L 603.966347 -50.916629 
L 609.76375 -50.81733 
L 615.561153 -50.81733 
L 621.358555 -50.916629 
L 627.155958 -50.81733 
L 632.95336 -50.916629 
L 638.750763 -50.81733 
L 644.548166 -50.81733 
L 650.345568 -50.81733 
L 656.142971 -50.916629 
L 661.940373 -50.81733 
L 667.737776 -50.81733 
L 673.535179 -50.81733 
L 679.332581 -50.81733 
L 685.129984 -50.81733 
L 690.927386 -50.81733 
L 690.927386 -58.761311 
L 690.927386 -58.761311 
L 685.129984 -58.761311 
L 679.332581 -58.662011 
L 673.535179 -59.555709 
L 667.737776 -59.952908 
L 661.940373 -59.952908 
L 656.142971 -59.655008 
L 650.345568 -58.95991 
L 644.548166 -59.15851 
L 638.750763 -58.95991 
L 632.95336 -59.655008 
L 627.155958 -60.648006 
L 621.358555 -61.045205 
L 615.561153 -60.350107 
L 609.76375 -59.754308 
L 603.966347 -60.250807 
L 598.168945 -60.151507 
L 592.371542 -61.045205 
L 586.57414 -61.243805 
L 580.776737 -61.045205 
L 574.979334 -60.350107 
L 569.181932 -59.952908 
L 563.384529 -59.952908 
L 557.587127 -60.250807 
L 551.789724 -61.740303 
L 545.992321 -61.144505 
L 540.194919 -62.038203 
L 534.397516 -61.144505 
L 528.600114 -60.449407 
L 522.802711 -60.350107 
L 517.005308 -60.449407 
L 511.207906 -62.038203 
L 505.410503 -61.641004 
L 499.613101 -62.137502 
L 493.815698 -60.945905 
L 488.018295 -60.945905 
L 482.220893 -60.548706 
L 476.42349 -60.945905 
L 470.626088 -61.938903 
L 464.828685 -61.442404 
L 459.031282 -61.541704 
L 453.23388 -61.243805 
L 447.436477 -60.945905 
L 441.639075 -60.648006 
L 435.841672 -60.648006 
L 430.044269 -62.634001 
L 424.246867 -62.336102 
L 418.449464 -62.534702 
L 412.652062 -61.641004 
L 406.854659 -61.144505 
L 401.057256 -60.747306 
L 395.259854 -60.747306 
L 389.462451 -62.137502 
L 383.665049 -62.634001 
L 377.867646 -62.336102 
L 372.070244 -61.541704 
L 366.272841 -61.045205 
L 360.475438 -60.747306 
L 354.678036 -61.641004 
L 348.880633 -61.938903 
L 343.083231 -62.137502 
L 337.285828 -62.534702 
L 331.488425 -61.938903 
L 325.691023 -61.740303 
L 319.89362 -61.045205 
L 314.096218 -60.945905 
L 308.298815 -62.038203 
L 302.501412 -62.832601 
L 296.70401 -62.634001 
L 290.906607 -62.435402 
L 285.109205 -61.243805 
L 279.311802 -60.846606 
L 273.514399 -60.747306 
L 267.716997 -62.534702 
L 261.919594 -62.534702 
L 256.122192 -62.733301 
L 250.324789 -62.038203 
L 244.527386 -61.144505 
L 238.729984 -61.839603 
L 232.932581 -61.045205 
L 227.135179 -62.336102 
L 221.337776 -62.931901 
L 215.540373 -62.634001 
L 209.742971 -61.641004 
L 203.945568 -61.243805 
L 198.148166 -62.137502 
L 192.350763 -60.945905 
L 186.55336 -62.435402 
L 180.755958 -62.137502 
L 174.958555 -62.534702 
L 169.161153 -61.839603 
L 163.36375 -62.137502 
L 157.566347 -61.541704 
L 151.768945 -61.045205 
L 145.971542 -62.634001 
L 140.17414 -62.038203 
L 134.376737 -63.2298 
L 128.579334 -62.236802 
L 122.781932 -61.343104 
L 116.984529 -60.648006 
L 111.187127 -60.846606 
L 105.389724 -61.938903 
L 99.592321 -61.938903 
L 93.794919 -61.740303 
L 87.997516 -58.463411 
L 82.200114 -57.073215 
z
" style="stroke: #348abd; stroke-opacity: 0.5; stroke-width: 0.5"/>
    </defs>
    <g clip-path="url(#pbe0b504352)">
     <use xlink:href="#m909ac1c048" x="0" y="386.293625" style="fill: #348abd; fill-opacity: 0.5; stroke: #348abd; stroke-opacity: 0.5; stroke-width: 0.5"/>
    </g>
   </g>
   <g id="matplotlib.axis_1">
    <g id="xtick_1">
     <g id="line2d_1">
      <path d="M 82.200114 350.30175 
L 82.200114 24.14175 
" clip-path="url(#pbe0b504352)" style="fill: none; stroke-dasharray: 1.85,0.8; stroke-dashoffset: 0; stroke: #b2b2b2; stroke-width: 0.5"/>
     </g>
     <g id="line2d_2">
      <defs>
       <path id="maac0bae3f8" d="M 0 0 
L 0 -3.5 
" style="stroke: #000000; stroke-width: 0.8"/>
      </defs>
      <g>
       <use xlink:href="#maac0bae3f8" x="82.200114" y="350.30175" style="stroke: #000000; stroke-width: 0.8"/>
      </g>
     </g>
     <g id="text_1">
      <!-- 2013-07-01 -->
      <g transform="translate(53.142301 361.400188)scale(0.1 -0.1)">
       <defs>
        <path id="DejaVuSans-32" d="M 1228 531 
L 3431 531 
L 3431 0 
L 469 0 
L 469 531 
Q 828 903 1448 1529 
Q 2069 2156 2228 2338 
Q 2531 2678 2651 2914 
Q 2772 3150 2772 3378 
Q 2772 3750 2511 3984 
Q 2250 4219 1831 4219 
Q 1534 4219 1204 4116 
Q 875 4013 500 3803 
L 500 4441 
Q 881 4594 1212 4672 
Q 1544 4750 1819 4750 
Q 2544 4750 2975 4387 
Q 3406 4025 3406 3419 
Q 3406 3131 3298 2873 
Q 3191 2616 2906 2266 
Q 2828 2175 2409 1742 
Q 1991 1309 1228 531 
z
" transform="scale(0.015625)"/>
        <path id="DejaVuSans-30" d="M 2034 4250 
Q 1547 4250 1301 3770 
Q 1056 3291 1056 2328 
Q 1056 1369 1301 889 
Q 1547 409 2034 409 
Q 2525 409 2770 889 
Q 3016 1369 3016 2328 
Q 3016 3291 2770 3770 
Q 2525 4250 2034 4250 
z
M 2034 4750 
Q 2819 4750 3233 4129 
Q 3647 3509 3647 2328 
Q 3647 1150 3233 529 
Q 2819 -91 2034 -91 
Q 1250 -91 836 529 
Q 422 1150 422 2328 
Q 422 3509 836 4129 
Q 1250 4750 2034 4750 
z
" transform="scale(0.015625)"/>
        <path id="DejaVuSans-31" d="M 794 531 
L 1825 531 
L 1825 4091 
L 703 3866 
L 703 4441 
L 1819 4666 
L 2450 4666 
L 2450 531 
L 3481 531 
L 3481 0 
L 794 0 
L 794 531 
z
" transform="scale(0.015625)"/>
        <path id="DejaVuSans-33" d="M 2597 2516 
Q 3050 2419 3304 2112 
Q 3559 1806 3559 1356 
Q 3559 666 3084 287 
Q 2609 -91 1734 -91 
Q 1441 -91 1130 -33 
Q 819 25 488 141 
L 488 750 
Q 750 597 1062 519 
Q 1375 441 1716 441 
Q 2309 441 2620 675 
Q 2931 909 2931 1356 
Q 2931 1769 2642 2001 
Q 2353 2234 1838 2234 
L 1294 2234 
L 1294 2753 
L 1863 2753 
Q 2328 2753 2575 2939 
Q 2822 3125 2822 3475 
Q 2822 3834 2567 4026 
Q 2313 4219 1838 4219 
Q 1578 4219 1281 4162 
Q 984 4106 628 3988 
L 628 4550 
Q 988 4650 1302 4700 
Q 1616 4750 1894 4750 
Q 2613 4750 3031 4423 
Q 3450 4097 3450 3541 
Q 3450 3153 3228 2886 
Q 3006 2619 2597 2516 
z
" transform="scale(0.015625)"/>
        <path id="DejaVuSans-2d" d="M 313 2009 
L 1997 2009 
L 1997 1497 
L 313 1497 
L 313 2009 
z
" transform="scale(0.015625)"/>
        <path id="DejaVuSans-37" d="M 525 4666 
L 3525 4666 
L 3525 4397 
L 1831 0 
L 1172 0 
L 2766 4134 
L 525 4134 
L 525 4666 
z
" transform="scale(0.015625)"/>
       </defs>
       <use xlink:href="#DejaVuSans-32"/>
       <use xlink:href="#DejaVuSans-30" x="63.623047"/>
       <use xlink:href="#DejaVuSans-31" x="127.246094"/>
       <use xlink:href="#DejaVuSans-33" x="190.869141"/>
       <use xlink:href="#DejaVuSans-2d" x="254.492188"/>
       <use xlink:href="#DejaVuSans-30" x="290.576172"/>
       <use xlink:href="#DejaVuSans-37" x="354.199219"/>
       <use xlink:href="#DejaVuSans-2d" x="417.822266"/>
       <use xlink:href="#DejaVuSans-30" x="453.90625"/>
       <use xlink:href="#DejaVuSans-31" x="517.529297"/>
      </g>
     </g>
    </g>
    <g id="xtick_2">
     <g id="line2d_3">
      <path d="M 163.36375 350.30175 
L 163.36375 24.14175 
" clip-path="url(#pbe0b504352)" style="fill: none; stroke-dasharray: 1.85,0.8; stroke-dashoffset: 0; stroke: #b2b2b2; stroke-width: 0.5"/>
     </g>
     <g id="line2d_4">
      <g>
       <use xlink:href="#maac0bae3f8" x="163.36375" y="350.30175" style="stroke: #000000; stroke-width: 0.8"/>
      </g>
     </g>
     <g id="text_2">
      <!-- 2013-07-15 -->
      <g transform="translate(134.305937 361.400188)scale(0.1 -0.1)">
       <defs>
        <path id="DejaVuSans-35" d="M 691 4666 
L 3169 4666 
L 3169 4134 
L 1269 4134 
L 1269 2991 
Q 1406 3038 1543 3061 
Q 1681 3084 1819 3084 
Q 2600 3084 3056 2656 
Q 3513 2228 3513 1497 
Q 3513 744 3044 326 
Q 2575 -91 1722 -91 
Q 1428 -91 1123 -41 
Q 819 9 494 109 
L 494 744 
Q 775 591 1075 516 
Q 1375 441 1709 441 
Q 2250 441 2565 725 
Q 2881 1009 2881 1497 
Q 2881 1984 2565 2268 
Q 2250 2553 1709 2553 
Q 1456 2553 1204 2497 
Q 953 2441 691 2322 
L 691 4666 
z
" transform="scale(0.015625)"/>
       </defs>
       <use xlink:href="#DejaVuSans-32"/>
       <use xlink:href="#DejaVuSans-30" x="63.623047"/>
       <use xlink:href="#DejaVuSans-31" x="127.246094"/>
       <use xlink:href="#DejaVuSans-33" x="190.869141"/>
       <use xlink:href="#DejaVuSans-2d" x="254.492188"/>
       <use xlink:href="#DejaVuSans-30" x="290.576172"/>
       <use xlink:href="#DejaVuSans-37" x="354.199219"/>
       <use xlink:href="#DejaVuSans-2d" x="417.822266"/>
       <use xlink:href="#DejaVuSans-31" x="453.90625"/>
       <use xlink:href="#DejaVuSans-35" x="517.529297"/>
      </g>
     </g>
    </g>
    <g id="xtick_3">
     <g id="line2d_5">
      <path d="M 261.919594 350.30175 
L 261.919594 24.14175 
" clip-path="url(#pbe0b504352)" style="fill: none; stroke-dasharray: 1.85,0.8; stroke-dashoffset: 0; stroke: #b2b2b2; stroke-width: 0.5"/>
     </g>
     <g id="line2d_6">
      <g>
       <use xlink:href="#maac0bae3f8" x="261.919594" y="350.30175" style="stroke: #000000; stroke-width: 0.8"/>
      </g>
     </g>
     <g id="text_3">
      <!-- 2013-08-01 -->
      <g transform="translate(232.861782 361.400188)scale(0.1 -0.1)">
       <defs>
        <path id="DejaVuSans-38" d="M 2034 2216 
Q 1584 2216 1326 1975 
Q 1069 1734 1069 1313 
Q 1069 891 1326 650 
Q 1584 409 2034 409 
Q 2484 409 2743 651 
Q 3003 894 3003 1313 
Q 3003 1734 2745 1975 
Q 2488 2216 2034 2216 
z
M 1403 2484 
Q 997 2584 770 2862 
Q 544 3141 544 3541 
Q 544 4100 942 4425 
Q 1341 4750 2034 4750 
Q 2731 4750 3128 4425 
Q 3525 4100 3525 3541 
Q 3525 3141 3298 2862 
Q 3072 2584 2669 2484 
Q 3125 2378 3379 2068 
Q 3634 1759 3634 1313 
Q 3634 634 3220 271 
Q 2806 -91 2034 -91 
Q 1263 -91 848 271 
Q 434 634 434 1313 
Q 434 1759 690 2068 
Q 947 2378 1403 2484 
z
M 1172 3481 
Q 1172 3119 1398 2916 
Q 1625 2713 2034 2713 
Q 2441 2713 2670 2916 
Q 2900 3119 2900 3481 
Q 2900 3844 2670 4047 
Q 2441 4250 2034 4250 
Q 1625 4250 1398 4047 
Q 1172 3844 1172 3481 
z
" transform="scale(0.015625)"/>
       </defs>
       <use xlink:href="#DejaVuSans-32"/>
       <use xlink:href="#DejaVuSans-30" x="63.623047"/>
       <use xlink:href="#DejaVuSans-31" x="127.246094"/>
       <use xlink:href="#DejaVuSans-33" x="190.869141"/>
       <use xlink:href="#DejaVuSans-2d" x="254.492188"/>
       <use xlink:href="#DejaVuSans-30" x="290.576172"/>
       <use xlink:href="#DejaVuSans-38" x="354.199219"/>
       <use xlink:href="#DejaVuSans-2d" x="417.822266"/>
       <use xlink:href="#DejaVuSans-30" x="453.90625"/>
       <use xlink:href="#DejaVuSans-31" x="517.529297"/>
      </g>
     </g>
    </g>
    <g id="xtick_4">
     <g id="line2d_7">
      <path d="M 343.083231 350.30175 
L 343.083231 24.14175 
" clip-path="url(#pbe0b504352)" style="fill: none; stroke-dasharray: 1.85,0.8; stroke-dashoffset: 0; stroke: #b2b2b2; stroke-width: 0.5"/>
     </g>
     <g id="line2d_8">
      <g>
       <use xlink:href="#maac0bae3f8" x="343.083231" y="350.30175" style="stroke: #000000; stroke-width: 0.8"/>
      </g>
     </g>
     <g id="text_4">
      <!-- 2013-08-15 -->
      <g transform="translate(314.025418 361.400188)scale(0.1 -0.1)">
       <use xlink:href="#DejaVuSans-32"/>
       <use xlink:href="#DejaVuSans-30" x="63.623047"/>
       <use xlink:href="#DejaVuSans-31" x="127.246094"/>
       <use xlink:href="#DejaVuSans-33" x="190.869141"/>
       <use xlink:href="#DejaVuSans-2d" x="254.492188"/>
       <use xlink:href="#DejaVuSans-30" x="290.576172"/>
       <use xlink:href="#DejaVuSans-38" x="354.199219"/>
       <use xlink:href="#DejaVuSans-2d" x="417.822266"/>
       <use xlink:href="#DejaVuSans-31" x="453.90625"/>
       <use xlink:href="#DejaVuSans-35" x="517.529297"/>
      </g>
     </g>
    </g>
    <g id="xtick_5">
     <g id="line2d_9">
      <path d="M 441.639075 350.30175 
L 441.639075 24.14175 
" clip-path="url(#pbe0b504352)" style="fill: none; stroke-dasharray: 1.85,0.8; stroke-dashoffset: 0; stroke: #b2b2b2; stroke-width: 0.5"/>
     </g>
     <g id="line2d_10">
      <g>
       <use xlink:href="#maac0bae3f8" x="441.639075" y="350.30175" style="stroke: #000000; stroke-width: 0.8"/>
      </g>
     </g>
     <g id="text_5">
      <!-- 2013-09-01 -->
      <g transform="translate(412.581262 361.400188)scale(0.1 -0.1)">
       <defs>
        <path id="DejaVuSans-39" d="M 703 97 
L 703 672 
Q 941 559 1184 500 
Q 1428 441 1663 441 
Q 2288 441 2617 861 
Q 2947 1281 2994 2138 
Q 2813 1869 2534 1725 
Q 2256 1581 1919 1581 
Q 1219 1581 811 2004 
Q 403 2428 403 3163 
Q 403 3881 828 4315 
Q 1253 4750 1959 4750 
Q 2769 4750 3195 4129 
Q 3622 3509 3622 2328 
Q 3622 1225 3098 567 
Q 2575 -91 1691 -91 
Q 1453 -91 1209 -44 
Q 966 3 703 97 
z
M 1959 2075 
Q 2384 2075 2632 2365 
Q 2881 2656 2881 3163 
Q 2881 3666 2632 3958 
Q 2384 4250 1959 4250 
Q 1534 4250 1286 3958 
Q 1038 3666 1038 3163 
Q 1038 2656 1286 2365 
Q 1534 2075 1959 2075 
z
" transform="scale(0.015625)"/>
       </defs>
       <use xlink:href="#DejaVuSans-32"/>
       <use xlink:href="#DejaVuSans-30" x="63.623047"/>
       <use xlink:href="#DejaVuSans-31" x="127.246094"/>
       <use xlink:href="#DejaVuSans-33" x="190.869141"/>
       <use xlink:href="#DejaVuSans-2d" x="254.492188"/>
       <use xlink:href="#DejaVuSans-30" x="290.576172"/>
       <use xlink:href="#DejaVuSans-39" x="354.199219"/>
       <use xlink:href="#DejaVuSans-2d" x="417.822266"/>
       <use xlink:href="#DejaVuSans-30" x="453.90625"/>
       <use xlink:href="#DejaVuSans-31" x="517.529297"/>
      </g>
     </g>
    </g>
    <g id="xtick_6">
     <g id="line2d_11">
      <path d="M 522.802711 350.30175 
L 522.802711 24.14175 
" clip-path="url(#pbe0b504352)" style="fill: none; stroke-dasharray: 1.85,0.8; stroke-dashoffset: 0; stroke: #b2b2b2; stroke-width: 0.5"/>
     </g>
     <g id="line2d_12">
      <g>
       <use xlink:href="#maac0bae3f8" x="522.802711" y="350.30175" style="stroke: #000000; stroke-width: 0.8"/>
      </g>
     </g>
     <g id="text_6">
      <!-- 2013-09-15 -->
      <g transform="translate(493.744899 361.400188)scale(0.1 -0.1)">
       <use xlink:href="#DejaVuSans-32"/>
       <use xlink:href="#DejaVuSans-30" x="63.623047"/>
       <use xlink:href="#DejaVuSans-31" x="127.246094"/>
       <use xlink:href="#DejaVuSans-33" x="190.869141"/>
       <use xlink:href="#DejaVuSans-2d" x="254.492188"/>
       <use xlink:href="#DejaVuSans-30" x="290.576172"/>
       <use xlink:href="#DejaVuSans-39" x="354.199219"/>
       <use xlink:href="#DejaVuSans-2d" x="417.822266"/>
       <use xlink:href="#DejaVuSans-31" x="453.90625"/>
       <use xlink:href="#DejaVuSans-35" x="517.529297"/>
      </g>
     </g>
    </g>
    <g id="xtick_7">
     <g id="line2d_13">
      <path d="M 615.561153 350.30175 
L 615.561153 24.14175 
" clip-path="url(#pbe0b504352)" style="fill: none; stroke-dasharray: 1.85,0.8; stroke-dashoffset: 0; stroke: #b2b2b2; stroke-width: 0.5"/>
     </g>
     <g id="line2d_14">
      <g>
       <use xlink:href="#maac0bae3f8" x="615.561153" y="350.30175" style="stroke: #000000; stroke-width: 0.8"/>
      </g>
     </g>
     <g id="text_7">
      <!-- 2013-10-01 -->
      <g transform="translate(586.50334 361.400188)scale(0.1 -0.1)">
       <use xlink:href="#DejaVuSans-32"/>
       <use xlink:href="#DejaVuSans-30" x="63.623047"/>
       <use xlink:href="#DejaVuSans-31" x="127.246094"/>
       <use xlink:href="#DejaVuSans-33" x="190.869141"/>
       <use xlink:href="#DejaVuSans-2d" x="254.492188"/>
       <use xlink:href="#DejaVuSans-31" x="290.576172"/>
       <use xlink:href="#DejaVuSans-30" x="354.199219"/>
       <use xlink:href="#DejaVuSans-2d" x="417.822266"/>
       <use xlink:href="#DejaVuSans-30" x="453.90625"/>
       <use xlink:href="#DejaVuSans-31" x="517.529297"/>
      </g>
     </g>
    </g>
    <g id="xtick_8">
     <g id="line2d_15">
      <path d="M 696.724789 350.30175 
L 696.724789 24.14175 
" clip-path="url(#pbe0b504352)" style="fill: none; stroke-dasharray: 1.85,0.8; stroke-dashoffset: 0; stroke: #b2b2b2; stroke-width: 0.5"/>
     </g>
     <g id="line2d_16">
      <g>
       <use xlink:href="#maac0bae3f8" x="696.724789" y="350.30175" style="stroke: #000000; stroke-width: 0.8"/>
      </g>
     </g>
     <g id="text_8">
      <!-- 2013-10-15 -->
      <g transform="translate(667.666976 361.400188)scale(0.1 -0.1)">
       <use xlink:href="#DejaVuSans-32"/>
       <use xlink:href="#DejaVuSans-30" x="63.623047"/>
       <use xlink:href="#DejaVuSans-31" x="127.246094"/>
       <use xlink:href="#DejaVuSans-33" x="190.869141"/>
       <use xlink:href="#DejaVuSans-2d" x="254.492188"/>
       <use xlink:href="#DejaVuSans-31" x="290.576172"/>
       <use xlink:href="#DejaVuSans-30" x="354.199219"/>
       <use xlink:href="#DejaVuSans-2d" x="417.822266"/>
       <use xlink:href="#DejaVuSans-31" x="453.90625"/>
       <use xlink:href="#DejaVuSans-35" x="517.529297"/>
      </g>
     </g>
    </g>
    <g id="text_9">
     <!-- date -->
     <g transform="translate(373.03375 376.598)scale(0.12 -0.12)">
      <defs>
       <path id="DejaVuSans-64" d="M 2906 2969 
L 2906 4863 
L 3481 4863 
L 3481 0 
L 2906 0 
L 2906 525 
Q 2725 213 2448 61 
Q 2172 -91 1784 -91 
Q 1150 -91 751 415 
Q 353 922 353 1747 
Q 353 2572 751 3078 
Q 1150 3584 1784 3584 
Q 2172 3584 2448 3432 
Q 2725 3281 2906 2969 
z
M 947 1747 
Q 947 1113 1208 752 
Q 1469 391 1925 391 
Q 2381 391 2643 752 
Q 2906 1113 2906 1747 
Q 2906 2381 2643 2742 
Q 2381 3103 1925 3103 
Q 1469 3103 1208 2742 
Q 947 2381 947 1747 
z
" transform="scale(0.015625)"/>
       <path id="DejaVuSans-61" d="M 2194 1759 
Q 1497 1759 1228 1600 
Q 959 1441 959 1056 
Q 959 750 1161 570 
Q 1363 391 1709 391 
Q 2188 391 2477 730 
Q 2766 1069 2766 1631 
L 2766 1759 
L 2194 1759 
z
M 3341 1997 
L 3341 0 
L 2766 0 
L 2766 531 
Q 2569 213 2275 61 
Q 1981 -91 1556 -91 
Q 1019 -91 701 211 
Q 384 513 384 1019 
Q 384 1609 779 1909 
Q 1175 2209 1959 2209 
L 2766 2209 
L 2766 2266 
Q 2766 2663 2505 2880 
Q 2244 3097 1772 3097 
Q 1472 3097 1187 3025 
Q 903 2953 641 2809 
L 641 3341 
Q 956 3463 1253 3523 
Q 1550 3584 1831 3584 
Q 2591 3584 2966 3190 
Q 3341 2797 3341 1997 
z
" transform="scale(0.015625)"/>
       <path id="DejaVuSans-74" d="M 1172 4494 
L 1172 3500 
L 2356 3500 
L 2356 3053 
L 1172 3053 
L 1172 1153 
Q 1172 725 1289 603 
Q 1406 481 1766 481 
L 2356 481 
L 2356 0 
L 1766 0 
Q 1100 0 847 248 
Q 594 497 594 1153 
L 594 3053 
L 172 3053 
L 172 3500 
L 594 3500 
L 594 4494 
L 1172 4494 
z
" transform="scale(0.015625)"/>
       <path id="DejaVuSans-65" d="M 3597 1894 
L 3597 1613 
L 953 1613 
Q 991 1019 1311 708 
Q 1631 397 2203 397 
Q 2534 397 2845 478 
Q 3156 559 3463 722 
L 3463 178 
Q 3153 47 2828 -22 
Q 2503 -91 2169 -91 
Q 1331 -91 842 396 
Q 353 884 353 1716 
Q 353 2575 817 3079 
Q 1281 3584 2069 3584 
Q 2775 3584 3186 3129 
Q 3597 2675 3597 1894 
z
M 3022 2063 
Q 3016 2534 2758 2815 
Q 2500 3097 2075 3097 
Q 1594 3097 1305 2825 
Q 1016 2553 972 2059 
L 3022 2063 
z
" transform="scale(0.015625)"/>
      </defs>
      <use xlink:href="#DejaVuSans-64"/>
      <use xlink:href="#DejaVuSans-61" x="63.476562"/>
      <use xlink:href="#DejaVuSans-74" x="124.755859"/>
      <use xlink:href="#DejaVuSans-65" x="163.964844"/>
     </g>
    </g>
   </g>
   <g id="matplotlib.axis_2">
    <g id="ytick_1">
     <g id="line2d_17">
      <path d="M 51.76375 335.476295 
L 721.36375 335.476295 
" clip-path="url(#pbe0b504352)" style="fill: none; stroke-dasharray: 1.85,0.8; stroke-dashoffset: 0; stroke: #b2b2b2; stroke-width: 0.5"/>
     </g>
     <g id="line2d_18">
      <defs>
       <path id="m757fb1d71c" d="M 0 0 
L 3.5 0 
" style="stroke: #000000; stroke-width: 0.8"/>
      </defs>
      <g>
       <use xlink:href="#m757fb1d71c" x="51.76375" y="335.476295" style="stroke: #000000; stroke-width: 0.8"/>
      </g>
     </g>
     <g id="text_10">
      <!-- 0 -->
      <g transform="translate(41.90125 339.275514)scale(0.1 -0.1)">
       <use xlink:href="#DejaVuSans-30"/>
      </g>
     </g>
    </g>
    <g id="ytick_2">
     <g id="line2d_19">
      <path d="M 51.76375 285.826414 
L 721.36375 285.826414 
" clip-path="url(#pbe0b504352)" style="fill: none; stroke-dasharray: 1.85,0.8; stroke-dashoffset: 0; stroke: #b2b2b2; stroke-width: 0.5"/>
     </g>
     <g id="line2d_20">
      <g>
       <use xlink:href="#m757fb1d71c" x="51.76375" y="285.826414" style="stroke: #000000; stroke-width: 0.8"/>
      </g>
     </g>
     <g id="text_11">
      <!-- 500 -->
      <g transform="translate(29.17625 289.625633)scale(0.1 -0.1)">
       <use xlink:href="#DejaVuSans-35"/>
       <use xlink:href="#DejaVuSans-30" x="63.623047"/>
       <use xlink:href="#DejaVuSans-30" x="127.246094"/>
      </g>
     </g>
    </g>
    <g id="ytick_3">
     <g id="line2d_21">
      <path d="M 51.76375 236.176533 
L 721.36375 236.176533 
" clip-path="url(#pbe0b504352)" style="fill: none; stroke-dasharray: 1.85,0.8; stroke-dashoffset: 0; stroke: #b2b2b2; stroke-width: 0.5"/>
     </g>
     <g id="line2d_22">
      <g>
       <use xlink:href="#m757fb1d71c" x="51.76375" y="236.176533" style="stroke: #000000; stroke-width: 0.8"/>
      </g>
     </g>
     <g id="text_12">
      <!-- 1000 -->
      <g transform="translate(22.81375 239.975752)scale(0.1 -0.1)">
       <use xlink:href="#DejaVuSans-31"/>
       <use xlink:href="#DejaVuSans-30" x="63.623047"/>
       <use xlink:href="#DejaVuSans-30" x="127.246094"/>
       <use xlink:href="#DejaVuSans-30" x="190.869141"/>
      </g>
     </g>
    </g>
    <g id="ytick_4">
     <g id="line2d_23">
      <path d="M 51.76375 186.526652 
L 721.36375 186.526652 
" clip-path="url(#pbe0b504352)" style="fill: none; stroke-dasharray: 1.85,0.8; stroke-dashoffset: 0; stroke: #b2b2b2; stroke-width: 0.5"/>
     </g>
     <g id="line2d_24">
      <g>
       <use xlink:href="#m757fb1d71c" x="51.76375" y="186.526652" style="stroke: #000000; stroke-width: 0.8"/>
      </g>
     </g>
     <g id="text_13">
      <!-- 1500 -->
      <g transform="translate(22.81375 190.32587)scale(0.1 -0.1)">
       <use xlink:href="#DejaVuSans-31"/>
       <use xlink:href="#DejaVuSans-35" x="63.623047"/>
       <use xlink:href="#DejaVuSans-30" x="127.246094"/>
       <use xlink:href="#DejaVuSans-30" x="190.869141"/>
      </g>
     </g>
    </g>
    <g id="ytick_5">
     <g id="line2d_25">
      <path d="M 51.76375 136.87677 
L 721.36375 136.87677 
" clip-path="url(#pbe0b504352)" style="fill: none; stroke-dasharray: 1.85,0.8; stroke-dashoffset: 0; stroke: #b2b2b2; stroke-width: 0.5"/>
     </g>
     <g id="line2d_26">
      <g>
       <use xlink:href="#m757fb1d71c" x="51.76375" y="136.87677" style="stroke: #000000; stroke-width: 0.8"/>
      </g>
     </g>
     <g id="text_14">
      <!-- 2000 -->
      <g transform="translate(22.81375 140.675989)scale(0.1 -0.1)">
       <use xlink:href="#DejaVuSans-32"/>
       <use xlink:href="#DejaVuSans-30" x="63.623047"/>
       <use xlink:href="#DejaVuSans-30" x="127.246094"/>
       <use xlink:href="#DejaVuSans-30" x="190.869141"/>
      </g>
     </g>
    </g>
    <g id="ytick_6">
     <g id="line2d_27">
      <path d="M 51.76375 87.226889 
L 721.36375 87.226889 
" clip-path="url(#pbe0b504352)" style="fill: none; stroke-dasharray: 1.85,0.8; stroke-dashoffset: 0; stroke: #b2b2b2; stroke-width: 0.5"/>
     </g>
     <g id="line2d_28">
      <g>
       <use xlink:href="#m757fb1d71c" x="51.76375" y="87.226889" style="stroke: #000000; stroke-width: 0.8"/>
      </g>
     </g>
     <g id="text_15">
      <!-- 2500 -->
      <g transform="translate(22.81375 91.026108)scale(0.1 -0.1)">
       <use xlink:href="#DejaVuSans-32"/>
       <use xlink:href="#DejaVuSans-35" x="63.623047"/>
       <use xlink:href="#DejaVuSans-30" x="127.246094"/>
       <use xlink:href="#DejaVuSans-30" x="190.869141"/>
      </g>
     </g>
    </g>
    <g id="ytick_7">
     <g id="line2d_29">
      <path d="M 51.76375 37.577008 
L 721.36375 37.577008 
" clip-path="url(#pbe0b504352)" style="fill: none; stroke-dasharray: 1.85,0.8; stroke-dashoffset: 0; stroke: #b2b2b2; stroke-width: 0.5"/>
     </g>
     <g id="line2d_30">
      <g>
       <use xlink:href="#m757fb1d71c" x="51.76375" y="37.577008" style="stroke: #000000; stroke-width: 0.8"/>
      </g>
     </g>
     <g id="text_16">
      <!-- 3000 -->
      <g transform="translate(22.81375 41.376227)scale(0.1 -0.1)">
       <use xlink:href="#DejaVuSans-33"/>
       <use xlink:href="#DejaVuSans-30" x="63.623047"/>
       <use xlink:href="#DejaVuSans-30" x="127.246094"/>
       <use xlink:href="#DejaVuSans-30" x="190.869141"/>
      </g>
     </g>
    </g>
    <g id="text_17">
     <!-- sales -->
     <g transform="translate(16.318125 202.508625)rotate(-90)scale(0.12 -0.12)">
      <defs>
       <path id="DejaVuSans-73" d="M 2834 3397 
L 2834 2853 
Q 2591 2978 2328 3040 
Q 2066 3103 1784 3103 
Q 1356 3103 1142 2972 
Q 928 2841 928 2578 
Q 928 2378 1081 2264 
Q 1234 2150 1697 2047 
L 1894 2003 
Q 2506 1872 2764 1633 
Q 3022 1394 3022 966 
Q 3022 478 2636 193 
Q 2250 -91 1575 -91 
Q 1294 -91 989 -36 
Q 684 19 347 128 
L 347 722 
Q 666 556 975 473 
Q 1284 391 1588 391 
Q 1994 391 2212 530 
Q 2431 669 2431 922 
Q 2431 1156 2273 1281 
Q 2116 1406 1581 1522 
L 1381 1569 
Q 847 1681 609 1914 
Q 372 2147 372 2553 
Q 372 3047 722 3315 
Q 1072 3584 1716 3584 
Q 2034 3584 2315 3537 
Q 2597 3491 2834 3397 
z
" transform="scale(0.015625)"/>
       <path id="DejaVuSans-6c" d="M 603 4863 
L 1178 4863 
L 1178 0 
L 603 0 
L 603 4863 
z
" transform="scale(0.015625)"/>
      </defs>
      <use xlink:href="#DejaVuSans-73"/>
      <use xlink:href="#DejaVuSans-61" x="52.099609"/>
      <use xlink:href="#DejaVuSans-6c" x="113.378906"/>
      <use xlink:href="#DejaVuSans-65" x="141.162109"/>
      <use xlink:href="#DejaVuSans-73" x="202.685547"/>
     </g>
    </g>
   </g>
   <g id="line2d_31">
    <path d="M 82.200114 329.816209 
L 87.997516 329.716909 
L 93.794919 330.213408 
L 99.592321 331.901504 
L 105.389724 332.596602 
L 111.187127 330.114108 
L 116.984529 331.405005 
L 122.781932 327.135115 
L 128.579334 327.631614 
L 134.376737 328.922511 
L 140.17414 330.213408 
L 145.971542 330.709907 
L 151.768945 332.497303 
L 157.566347 329.51831 
L 163.36375 329.716909 
L 169.161153 328.326713 
L 174.958555 328.624612 
L 180.755958 325.645619 
L 186.55336 328.128113 
L 192.350763 330.908506 
L 198.148166 330.213408 
L 203.945568 329.51831 
L 209.742971 327.433015 
L 215.540373 326.042818 
L 221.337776 327.234415 
L 227.135179 327.631614 
L 232.932581 329.51831 
L 238.729984 329.121111 
L 244.527386 324.354722 
L 250.324789 323.361724 
L 256.122192 326.142118 
L 261.919594 329.021811 
L 267.716997 324.950521 
L 273.514399 330.511307 
L 279.311802 327.730914 
L 285.109205 324.751921 
L 290.906607 326.638617 
L 296.70401 325.744919 
L 302.501412 327.730914 
L 308.298815 328.128113 
L 314.096218 328.426012 
L 319.89362 329.22041 
L 325.691023 326.241418 
L 331.488425 330.014809 
L 337.285828 326.936516 
L 343.083231 324.553322 
L 348.880633 325.546319 
L 354.678036 330.014809 
L 360.475438 328.823211 
L 366.272841 326.241418 
L 372.070244 324.156123 
L 377.867646 325.447019 
L 383.665049 328.723912 
L 389.462451 328.624612 
L 395.259854 329.816209 
L 401.057256 330.908506 
L 406.854659 326.539317 
L 412.652062 325.24842 
L 418.449464 327.433015 
L 424.246867 327.135115 
L 430.044269 328.227413 
L 435.841672 331.901504 
L 441.639075 329.31971 
L 447.436477 332.000804 
L 453.23388 328.426012 
L 459.031282 325.34772 
L 464.828685 324.354722 
L 470.626088 325.14912 
L 476.42349 330.709907 
L 482.220893 328.624612 
L 488.018295 325.546319 
L 493.815698 324.056823 
L 499.613101 325.24842 
L 505.410503 327.730914 
L 511.207906 324.751921 
L 517.005308 330.213408 
L 522.802711 329.617609 
L 528.600114 328.922511 
L 534.397516 325.744919 
L 540.194919 324.354722 
L 545.992321 324.454022 
L 551.789724 325.844218 
L 557.587127 329.22041 
L 563.384529 329.51831 
L 569.181932 327.035816 
L 574.979334 325.844218 
L 580.776737 325.04982 
L 586.57414 324.950521 
L 592.371542 325.943518 
L 598.168945 330.511307 
L 603.966347 328.227413 
L 609.76375 325.744919 
L 615.561153 324.255422 
L 621.358555 325.24842 
L 627.155958 324.652621 
L 632.95336 326.440017 
L 638.750763 331.702904 
L 644.548166 331.901504 
L 650.345568 327.631614 
L 656.142971 324.156123 
L 661.940373 326.440017 
L 667.737776 328.922511 
L 673.535179 329.31971 
L 679.332581 330.312708 
L 685.129984 331.007806 
L 690.927386 326.936516 
" clip-path="url(#pbe0b504352)" style="fill: none; stroke: #000000; stroke-opacity: 0.8; stroke-width: 2; stroke-linecap: square"/>
    <defs>
     <path id="m7d00f79e94" d="M 0 2 
C 0.530406 2 1.03916 1.789267 1.414214 1.414214 
C 1.789267 1.03916 2 0.530406 2 0 
C 2 -0.530406 1.789267 -1.03916 1.414214 -1.414214 
C 1.03916 -1.789267 0.530406 -2 0 -2 
C -0.530406 -2 -1.03916 -1.789267 -1.414214 -1.414214 
C -1.789267 -1.03916 -2 -0.530406 -2 0 
C -2 0.530406 -1.789267 1.03916 -1.414214 1.414214 
C -1.03916 1.789267 -0.530406 2 0 2 
z
" style="stroke: #000000; stroke-opacity: 0.8; stroke-width: 0.75"/>
    </defs>
    <g clip-path="url(#pbe0b504352)">
     <use xlink:href="#m7d00f79e94" x="82.200114" y="329.816209" style="fill-opacity: 0.8; stroke: #000000; stroke-opacity: 0.8; stroke-width: 0.75"/>
     <use xlink:href="#m7d00f79e94" x="87.997516" y="329.716909" style="fill-opacity: 0.8; stroke: #000000; stroke-opacity: 0.8; stroke-width: 0.75"/>
     <use xlink:href="#m7d00f79e94" x="93.794919" y="330.213408" style="fill-opacity: 0.8; stroke: #000000; stroke-opacity: 0.8; stroke-width: 0.75"/>
     <use xlink:href="#m7d00f79e94" x="99.592321" y="331.901504" style="fill-opacity: 0.8; stroke: #000000; stroke-opacity: 0.8; stroke-width: 0.75"/>
     <use xlink:href="#m7d00f79e94" x="105.389724" y="332.596602" style="fill-opacity: 0.8; stroke: #000000; stroke-opacity: 0.8; stroke-width: 0.75"/>
     <use xlink:href="#m7d00f79e94" x="111.187127" y="330.114108" style="fill-opacity: 0.8; stroke: #000000; stroke-opacity: 0.8; stroke-width: 0.75"/>
     <use xlink:href="#m7d00f79e94" x="116.984529" y="331.405005" style="fill-opacity: 0.8; stroke: #000000; stroke-opacity: 0.8; stroke-width: 0.75"/>
     <use xlink:href="#m7d00f79e94" x="122.781932" y="327.135115" style="fill-opacity: 0.8; stroke: #000000; stroke-opacity: 0.8; stroke-width: 0.75"/>
     <use xlink:href="#m7d00f79e94" x="128.579334" y="327.631614" style="fill-opacity: 0.8; stroke: #000000; stroke-opacity: 0.8; stroke-width: 0.75"/>
     <use xlink:href="#m7d00f79e94" x="134.376737" y="328.922511" style="fill-opacity: 0.8; stroke: #000000; stroke-opacity: 0.8; stroke-width: 0.75"/>
     <use xlink:href="#m7d00f79e94" x="140.17414" y="330.213408" style="fill-opacity: 0.8; stroke: #000000; stroke-opacity: 0.8; stroke-width: 0.75"/>
     <use xlink:href="#m7d00f79e94" x="145.971542" y="330.709907" style="fill-opacity: 0.8; stroke: #000000; stroke-opacity: 0.8; stroke-width: 0.75"/>
     <use xlink:href="#m7d00f79e94" x="151.768945" y="332.497303" style="fill-opacity: 0.8; stroke: #000000; stroke-opacity: 0.8; stroke-width: 0.75"/>
     <use xlink:href="#m7d00f79e94" x="157.566347" y="329.51831" style="fill-opacity: 0.8; stroke: #000000; stroke-opacity: 0.8; stroke-width: 0.75"/>
     <use xlink:href="#m7d00f79e94" x="163.36375" y="329.716909" style="fill-opacity: 0.8; stroke: #000000; stroke-opacity: 0.8; stroke-width: 0.75"/>
     <use xlink:href="#m7d00f79e94" x="169.161153" y="328.326713" style="fill-opacity: 0.8; stroke: #000000; stroke-opacity: 0.8; stroke-width: 0.75"/>
     <use xlink:href="#m7d00f79e94" x="174.958555" y="328.624612" style="fill-opacity: 0.8; stroke: #000000; stroke-opacity: 0.8; stroke-width: 0.75"/>
     <use xlink:href="#m7d00f79e94" x="180.755958" y="325.645619" style="fill-opacity: 0.8; stroke: #000000; stroke-opacity: 0.8; stroke-width: 0.75"/>
     <use xlink:href="#m7d00f79e94" x="186.55336" y="328.128113" style="fill-opacity: 0.8; stroke: #000000; stroke-opacity: 0.8; stroke-width: 0.75"/>
     <use xlink:href="#m7d00f79e94" x="192.350763" y="330.908506" style="fill-opacity: 0.8; stroke: #000000; stroke-opacity: 0.8; stroke-width: 0.75"/>
     <use xlink:href="#m7d00f79e94" x="198.148166" y="330.213408" style="fill-opacity: 0.8; stroke: #000000; stroke-opacity: 0.8; stroke-width: 0.75"/>
     <use xlink:href="#m7d00f79e94" x="203.945568" y="329.51831" style="fill-opacity: 0.8; stroke: #000000; stroke-opacity: 0.8; stroke-width: 0.75"/>
     <use xlink:href="#m7d00f79e94" x="209.742971" y="327.433015" style="fill-opacity: 0.8; stroke: #000000; stroke-opacity: 0.8; stroke-width: 0.75"/>
     <use xlink:href="#m7d00f79e94" x="215.540373" y="326.042818" style="fill-opacity: 0.8; stroke: #000000; stroke-opacity: 0.8; stroke-width: 0.75"/>
     <use xlink:href="#m7d00f79e94" x="221.337776" y="327.234415" style="fill-opacity: 0.8; stroke: #000000; stroke-opacity: 0.8; stroke-width: 0.75"/>
     <use xlink:href="#m7d00f79e94" x="227.135179" y="327.631614" style="fill-opacity: 0.8; stroke: #000000; stroke-opacity: 0.8; stroke-width: 0.75"/>
     <use xlink:href="#m7d00f79e94" x="232.932581" y="329.51831" style="fill-opacity: 0.8; stroke: #000000; stroke-opacity: 0.8; stroke-width: 0.75"/>
     <use xlink:href="#m7d00f79e94" x="238.729984" y="329.121111" style="fill-opacity: 0.8; stroke: #000000; stroke-opacity: 0.8; stroke-width: 0.75"/>
     <use xlink:href="#m7d00f79e94" x="244.527386" y="324.354722" style="fill-opacity: 0.8; stroke: #000000; stroke-opacity: 0.8; stroke-width: 0.75"/>
     <use xlink:href="#m7d00f79e94" x="250.324789" y="323.361724" style="fill-opacity: 0.8; stroke: #000000; stroke-opacity: 0.8; stroke-width: 0.75"/>
     <use xlink:href="#m7d00f79e94" x="256.122192" y="326.142118" style="fill-opacity: 0.8; stroke: #000000; stroke-opacity: 0.8; stroke-width: 0.75"/>
     <use xlink:href="#m7d00f79e94" x="261.919594" y="329.021811" style="fill-opacity: 0.8; stroke: #000000; stroke-opacity: 0.8; stroke-width: 0.75"/>
     <use xlink:href="#m7d00f79e94" x="267.716997" y="324.950521" style="fill-opacity: 0.8; stroke: #000000; stroke-opacity: 0.8; stroke-width: 0.75"/>
     <use xlink:href="#m7d00f79e94" x="273.514399" y="330.511307" style="fill-opacity: 0.8; stroke: #000000; stroke-opacity: 0.8; stroke-width: 0.75"/>
     <use xlink:href="#m7d00f79e94" x="279.311802" y="327.730914" style="fill-opacity: 0.8; stroke: #000000; stroke-opacity: 0.8; stroke-width: 0.75"/>
     <use xlink:href="#m7d00f79e94" x="285.109205" y="324.751921" style="fill-opacity: 0.8; stroke: #000000; stroke-opacity: 0.8; stroke-width: 0.75"/>
     <use xlink:href="#m7d00f79e94" x="290.906607" y="326.638617" style="fill-opacity: 0.8; stroke: #000000; stroke-opacity: 0.8; stroke-width: 0.75"/>
     <use xlink:href="#m7d00f79e94" x="296.70401" y="325.744919" style="fill-opacity: 0.8; stroke: #000000; stroke-opacity: 0.8; stroke-width: 0.75"/>
     <use xlink:href="#m7d00f79e94" x="302.501412" y="327.730914" style="fill-opacity: 0.8; stroke: #000000; stroke-opacity: 0.8; stroke-width: 0.75"/>
     <use xlink:href="#m7d00f79e94" x="308.298815" y="328.128113" style="fill-opacity: 0.8; stroke: #000000; stroke-opacity: 0.8; stroke-width: 0.75"/>
     <use xlink:href="#m7d00f79e94" x="314.096218" y="328.426012" style="fill-opacity: 0.8; stroke: #000000; stroke-opacity: 0.8; stroke-width: 0.75"/>
     <use xlink:href="#m7d00f79e94" x="319.89362" y="329.22041" style="fill-opacity: 0.8; stroke: #000000; stroke-opacity: 0.8; stroke-width: 0.75"/>
     <use xlink:href="#m7d00f79e94" x="325.691023" y="326.241418" style="fill-opacity: 0.8; stroke: #000000; stroke-opacity: 0.8; stroke-width: 0.75"/>
     <use xlink:href="#m7d00f79e94" x="331.488425" y="330.014809" style="fill-opacity: 0.8; stroke: #000000; stroke-opacity: 0.8; stroke-width: 0.75"/>
     <use xlink:href="#m7d00f79e94" x="337.285828" y="326.936516" style="fill-opacity: 0.8; stroke: #000000; stroke-opacity: 0.8; stroke-width: 0.75"/>
     <use xlink:href="#m7d00f79e94" x="343.083231" y="324.553322" style="fill-opacity: 0.8; stroke: #000000; stroke-opacity: 0.8; stroke-width: 0.75"/>
     <use xlink:href="#m7d00f79e94" x="348.880633" y="325.546319" style="fill-opacity: 0.8; stroke: #000000; stroke-opacity: 0.8; stroke-width: 0.75"/>
     <use xlink:href="#m7d00f79e94" x="354.678036" y="330.014809" style="fill-opacity: 0.8; stroke: #000000; stroke-opacity: 0.8; stroke-width: 0.75"/>
     <use xlink:href="#m7d00f79e94" x="360.475438" y="328.823211" style="fill-opacity: 0.8; stroke: #000000; stroke-opacity: 0.8; stroke-width: 0.75"/>
     <use xlink:href="#m7d00f79e94" x="366.272841" y="326.241418" style="fill-opacity: 0.8; stroke: #000000; stroke-opacity: 0.8; stroke-width: 0.75"/>
     <use xlink:href="#m7d00f79e94" x="372.070244" y="324.156123" style="fill-opacity: 0.8; stroke: #000000; stroke-opacity: 0.8; stroke-width: 0.75"/>
     <use xlink:href="#m7d00f79e94" x="377.867646" y="325.447019" style="fill-opacity: 0.8; stroke: #000000; stroke-opacity: 0.8; stroke-width: 0.75"/>
     <use xlink:href="#m7d00f79e94" x="383.665049" y="328.723912" style="fill-opacity: 0.8; stroke: #000000; stroke-opacity: 0.8; stroke-width: 0.75"/>
     <use xlink:href="#m7d00f79e94" x="389.462451" y="328.624612" style="fill-opacity: 0.8; stroke: #000000; stroke-opacity: 0.8; stroke-width: 0.75"/>
     <use xlink:href="#m7d00f79e94" x="395.259854" y="329.816209" style="fill-opacity: 0.8; stroke: #000000; stroke-opacity: 0.8; stroke-width: 0.75"/>
     <use xlink:href="#m7d00f79e94" x="401.057256" y="330.908506" style="fill-opacity: 0.8; stroke: #000000; stroke-opacity: 0.8; stroke-width: 0.75"/>
     <use xlink:href="#m7d00f79e94" x="406.854659" y="326.539317" style="fill-opacity: 0.8; stroke: #000000; stroke-opacity: 0.8; stroke-width: 0.75"/>
     <use xlink:href="#m7d00f79e94" x="412.652062" y="325.24842" style="fill-opacity: 0.8; stroke: #000000; stroke-opacity: 0.8; stroke-width: 0.75"/>
     <use xlink:href="#m7d00f79e94" x="418.449464" y="327.433015" style="fill-opacity: 0.8; stroke: #000000; stroke-opacity: 0.8; stroke-width: 0.75"/>
     <use xlink:href="#m7d00f79e94" x="424.246867" y="327.135115" style="fill-opacity: 0.8; stroke: #000000; stroke-opacity: 0.8; stroke-width: 0.75"/>
     <use xlink:href="#m7d00f79e94" x="430.044269" y="328.227413" style="fill-opacity: 0.8; stroke: #000000; stroke-opacity: 0.8; stroke-width: 0.75"/>
     <use xlink:href="#m7d00f79e94" x="435.841672" y="331.901504" style="fill-opacity: 0.8; stroke: #000000; stroke-opacity: 0.8; stroke-width: 0.75"/>
     <use xlink:href="#m7d00f79e94" x="441.639075" y="329.31971" style="fill-opacity: 0.8; stroke: #000000; stroke-opacity: 0.8; stroke-width: 0.75"/>
     <use xlink:href="#m7d00f79e94" x="447.436477" y="332.000804" style="fill-opacity: 0.8; stroke: #000000; stroke-opacity: 0.8; stroke-width: 0.75"/>
     <use xlink:href="#m7d00f79e94" x="453.23388" y="328.426012" style="fill-opacity: 0.8; stroke: #000000; stroke-opacity: 0.8; stroke-width: 0.75"/>
     <use xlink:href="#m7d00f79e94" x="459.031282" y="325.34772" style="fill-opacity: 0.8; stroke: #000000; stroke-opacity: 0.8; stroke-width: 0.75"/>
     <use xlink:href="#m7d00f79e94" x="464.828685" y="324.354722" style="fill-opacity: 0.8; stroke: #000000; stroke-opacity: 0.8; stroke-width: 0.75"/>
     <use xlink:href="#m7d00f79e94" x="470.626088" y="325.14912" style="fill-opacity: 0.8; stroke: #000000; stroke-opacity: 0.8; stroke-width: 0.75"/>
     <use xlink:href="#m7d00f79e94" x="476.42349" y="330.709907" style="fill-opacity: 0.8; stroke: #000000; stroke-opacity: 0.8; stroke-width: 0.75"/>
     <use xlink:href="#m7d00f79e94" x="482.220893" y="328.624612" style="fill-opacity: 0.8; stroke: #000000; stroke-opacity: 0.8; stroke-width: 0.75"/>
     <use xlink:href="#m7d00f79e94" x="488.018295" y="325.546319" style="fill-opacity: 0.8; stroke: #000000; stroke-opacity: 0.8; stroke-width: 0.75"/>
     <use xlink:href="#m7d00f79e94" x="493.815698" y="324.056823" style="fill-opacity: 0.8; stroke: #000000; stroke-opacity: 0.8; stroke-width: 0.75"/>
     <use xlink:href="#m7d00f79e94" x="499.613101" y="325.24842" style="fill-opacity: 0.8; stroke: #000000; stroke-opacity: 0.8; stroke-width: 0.75"/>
     <use xlink:href="#m7d00f79e94" x="505.410503" y="327.730914" style="fill-opacity: 0.8; stroke: #000000; stroke-opacity: 0.8; stroke-width: 0.75"/>
     <use xlink:href="#m7d00f79e94" x="511.207906" y="324.751921" style="fill-opacity: 0.8; stroke: #000000; stroke-opacity: 0.8; stroke-width: 0.75"/>
     <use xlink:href="#m7d00f79e94" x="517.005308" y="330.213408" style="fill-opacity: 0.8; stroke: #000000; stroke-opacity: 0.8; stroke-width: 0.75"/>
     <use xlink:href="#m7d00f79e94" x="522.802711" y="329.617609" style="fill-opacity: 0.8; stroke: #000000; stroke-opacity: 0.8; stroke-width: 0.75"/>
     <use xlink:href="#m7d00f79e94" x="528.600114" y="328.922511" style="fill-opacity: 0.8; stroke: #000000; stroke-opacity: 0.8; stroke-width: 0.75"/>
     <use xlink:href="#m7d00f79e94" x="534.397516" y="325.744919" style="fill-opacity: 0.8; stroke: #000000; stroke-opacity: 0.8; stroke-width: 0.75"/>
     <use xlink:href="#m7d00f79e94" x="540.194919" y="324.354722" style="fill-opacity: 0.8; stroke: #000000; stroke-opacity: 0.8; stroke-width: 0.75"/>
     <use xlink:href="#m7d00f79e94" x="545.992321" y="324.454022" style="fill-opacity: 0.8; stroke: #000000; stroke-opacity: 0.8; stroke-width: 0.75"/>
     <use xlink:href="#m7d00f79e94" x="551.789724" y="325.844218" style="fill-opacity: 0.8; stroke: #000000; stroke-opacity: 0.8; stroke-width: 0.75"/>
     <use xlink:href="#m7d00f79e94" x="557.587127" y="329.22041" style="fill-opacity: 0.8; stroke: #000000; stroke-opacity: 0.8; stroke-width: 0.75"/>
     <use xlink:href="#m7d00f79e94" x="563.384529" y="329.51831" style="fill-opacity: 0.8; stroke: #000000; stroke-opacity: 0.8; stroke-width: 0.75"/>
     <use xlink:href="#m7d00f79e94" x="569.181932" y="327.035816" style="fill-opacity: 0.8; stroke: #000000; stroke-opacity: 0.8; stroke-width: 0.75"/>
     <use xlink:href="#m7d00f79e94" x="574.979334" y="325.844218" style="fill-opacity: 0.8; stroke: #000000; stroke-opacity: 0.8; stroke-width: 0.75"/>
     <use xlink:href="#m7d00f79e94" x="580.776737" y="325.04982" style="fill-opacity: 0.8; stroke: #000000; stroke-opacity: 0.8; stroke-width: 0.75"/>
     <use xlink:href="#m7d00f79e94" x="586.57414" y="324.950521" style="fill-opacity: 0.8; stroke: #000000; stroke-opacity: 0.8; stroke-width: 0.75"/>
     <use xlink:href="#m7d00f79e94" x="592.371542" y="325.943518" style="fill-opacity: 0.8; stroke: #000000; stroke-opacity: 0.8; stroke-width: 0.75"/>
     <use xlink:href="#m7d00f79e94" x="598.168945" y="330.511307" style="fill-opacity: 0.8; stroke: #000000; stroke-opacity: 0.8; stroke-width: 0.75"/>
     <use xlink:href="#m7d00f79e94" x="603.966347" y="328.227413" style="fill-opacity: 0.8; stroke: #000000; stroke-opacity: 0.8; stroke-width: 0.75"/>
     <use xlink:href="#m7d00f79e94" x="609.76375" y="325.744919" style="fill-opacity: 0.8; stroke: #000000; stroke-opacity: 0.8; stroke-width: 0.75"/>
     <use xlink:href="#m7d00f79e94" x="615.561153" y="324.255422" style="fill-opacity: 0.8; stroke: #000000; stroke-opacity: 0.8; stroke-width: 0.75"/>
     <use xlink:href="#m7d00f79e94" x="621.358555" y="325.24842" style="fill-opacity: 0.8; stroke: #000000; stroke-opacity: 0.8; stroke-width: 0.75"/>
     <use xlink:href="#m7d00f79e94" x="627.155958" y="324.652621" style="fill-opacity: 0.8; stroke: #000000; stroke-opacity: 0.8; stroke-width: 0.75"/>
     <use xlink:href="#m7d00f79e94" x="632.95336" y="326.440017" style="fill-opacity: 0.8; stroke: #000000; stroke-opacity: 0.8; stroke-width: 0.75"/>
     <use xlink:href="#m7d00f79e94" x="638.750763" y="331.702904" style="fill-opacity: 0.8; stroke: #000000; stroke-opacity: 0.8; stroke-width: 0.75"/>
     <use xlink:href="#m7d00f79e94" x="644.548166" y="331.901504" style="fill-opacity: 0.8; stroke: #000000; stroke-opacity: 0.8; stroke-width: 0.75"/>
     <use xlink:href="#m7d00f79e94" x="650.345568" y="327.631614" style="fill-opacity: 0.8; stroke: #000000; stroke-opacity: 0.8; stroke-width: 0.75"/>
     <use xlink:href="#m7d00f79e94" x="656.142971" y="324.156123" style="fill-opacity: 0.8; stroke: #000000; stroke-opacity: 0.8; stroke-width: 0.75"/>
     <use xlink:href="#m7d00f79e94" x="661.940373" y="326.440017" style="fill-opacity: 0.8; stroke: #000000; stroke-opacity: 0.8; stroke-width: 0.75"/>
     <use xlink:href="#m7d00f79e94" x="667.737776" y="328.922511" style="fill-opacity: 0.8; stroke: #000000; stroke-opacity: 0.8; stroke-width: 0.75"/>
     <use xlink:href="#m7d00f79e94" x="673.535179" y="329.31971" style="fill-opacity: 0.8; stroke: #000000; stroke-opacity: 0.8; stroke-width: 0.75"/>
     <use xlink:href="#m7d00f79e94" x="679.332581" y="330.312708" style="fill-opacity: 0.8; stroke: #000000; stroke-opacity: 0.8; stroke-width: 0.75"/>
     <use xlink:href="#m7d00f79e94" x="685.129984" y="331.007806" style="fill-opacity: 0.8; stroke: #000000; stroke-opacity: 0.8; stroke-width: 0.75"/>
     <use xlink:href="#m7d00f79e94" x="690.927386" y="326.936516" style="fill-opacity: 0.8; stroke: #000000; stroke-opacity: 0.8; stroke-width: 0.75"/>
    </g>
   </g>
   <g id="line2d_32">
    <path d="M 82.200114 335.178396 
L 87.997516 335.476295 
L 93.794919 335.476295 
L 99.592321 335.476295 
L 105.389724 335.476295 
L 111.187127 335.476295 
L 116.984529 335.476295 
L 122.781932 335.476295 
L 128.579334 335.476295 
L 134.376737 335.476295 
L 140.17414 335.476295 
L 145.971542 335.476295 
L 151.768945 335.476295 
L 157.566347 335.476295 
L 163.36375 335.476295 
L 169.161153 335.476295 
L 174.958555 335.476295 
L 180.755958 335.476295 
L 186.55336 335.476295 
L 192.350763 335.476295 
L 198.148166 335.476295 
L 203.945568 335.476295 
L 209.742971 335.476295 
L 215.540373 335.476295 
L 221.337776 335.476295 
L 227.135179 335.476295 
L 232.932581 335.476295 
L 238.729984 335.476295 
L 244.527386 335.476295 
L 250.324789 335.476295 
L 256.122192 335.476295 
L 261.919594 335.476295 
L 267.716997 335.476295 
L 273.514399 335.476295 
L 279.311802 335.476295 
L 285.109205 335.476295 
L 290.906607 335.476295 
L 296.70401 335.476295 
L 302.501412 335.476295 
L 308.298815 335.476295 
L 314.096218 335.476295 
L 319.89362 335.476295 
L 325.691023 335.476295 
L 331.488425 335.476295 
L 337.285828 335.476295 
L 343.083231 335.476295 
L 348.880633 335.476295 
L 354.678036 335.476295 
L 360.475438 335.476295 
L 366.272841 335.476295 
L 372.070244 335.476295 
L 377.867646 335.476295 
L 383.665049 335.476295 
L 389.462451 335.476295 
L 395.259854 335.476295 
L 401.057256 335.476295 
L 406.854659 335.476295 
L 412.652062 335.476295 
L 418.449464 335.476295 
L 424.246867 335.476295 
L 430.044269 335.476295 
L 435.841672 335.476295 
L 441.639075 335.476295 
L 447.436477 335.476295 
L 453.23388 335.476295 
L 459.031282 335.476295 
L 464.828685 335.476295 
L 470.626088 335.476295 
L 476.42349 335.476295 
L 482.220893 335.476295 
L 488.018295 335.476295 
L 493.815698 335.476295 
L 499.613101 335.476295 
L 505.410503 335.476295 
L 511.207906 335.476295 
L 517.005308 335.476295 
L 522.802711 335.476295 
L 528.600114 335.476295 
L 534.397516 335.476295 
L 540.194919 335.476295 
L 545.992321 335.476295 
L 551.789724 335.476295 
L 557.587127 335.476295 
L 563.384529 335.476295 
L 569.181932 335.476295 
L 574.979334 335.476295 
L 580.776737 335.476295 
L 586.57414 335.476295 
L 592.371542 335.476295 
L 598.168945 335.476295 
L 603.966347 335.476295 
L 609.76375 335.476295 
L 615.561153 335.476295 
L 621.358555 335.476295 
L 627.155958 335.476295 
L 632.95336 335.476295 
L 638.750763 335.476295 
L 644.548166 335.476295 
L 650.345568 335.476295 
L 656.142971 335.476295 
L 661.940373 335.476295 
L 667.737776 335.476295 
L 673.535179 335.476295 
L 679.332581 335.476295 
L 685.129984 335.476295 
L 690.927386 335.476295 
" clip-path="url(#pbe0b504352)" style="fill: none; stroke: #348abd; stroke-opacity: 0; stroke-width: 2; stroke-linecap: square"/>
   </g>
   <g id="line2d_33">
    <path d="M 82.200114 325.24842 
L 87.997516 109.470036 
L 93.794919 99.837959 
L 99.592321 112.945528 
L 105.389724 166.567399 
L 111.187127 138.962065 
L 116.984529 78.985009 
L 122.781932 90.205882 
L 128.579334 56.245363 
L 134.376737 102.618352 
L 140.17414 102.717652 
L 145.971542 166.3688 
L 151.768945 157.332521 
L 157.566347 95.468769 
L 163.36375 65.083042 
L 169.161153 98.149863 
L 174.958555 99.043561 
L 180.755958 109.569336 
L 186.55336 161.403812 
L 192.350763 136.578871 
L 198.148166 102.717652 
L 203.945568 85.935992 
L 209.742971 38.967205 
L 215.540373 96.561067 
L 221.337776 127.145394 
L 227.135179 174.51138 
L 232.932581 133.997077 
L 238.729984 104.306448 
L 244.527386 105.696645 
L 250.324789 69.452232 
L 256.122192 116.32172 
L 261.919594 120.591609 
L 267.716997 159.815016 
L 273.514399 150.182939 
L 279.311802 57.039761 
L 285.109205 99.54006 
L 290.906607 66.572539 
L 296.70401 84.148596 
L 302.501412 122.081106 
L 308.298815 165.375802 
L 314.096218 132.606881 
L 319.89362 97.951263 
L 325.691023 61.408951 
L 331.488425 82.5598 
L 337.285828 107.484041 
L 343.083231 131.117384 
L 348.880633 162.09891 
L 354.678036 153.161931 
L 360.475438 92.688376 
L 366.272841 98.646362 
L 372.070244 90.305182 
L 377.867646 109.271436 
L 383.665049 137.373269 
L 389.462451 171.730987 
L 395.259854 143.231955 
L 401.057256 108.377739 
L 406.854659 89.014285 
L 412.652062 89.610083 
L 418.449464 99.937259 
L 424.246867 111.356731 
L 430.044269 180.767265 
L 435.841672 163.588407 
L 441.639075 106.093844 
L 447.436477 73.225623 
L 453.23388 80.871704 
L 459.031282 127.840492 
L 464.828685 135.486574 
L 470.626088 176.398076 
L 476.42349 175.901577 
L 482.220893 116.02382 
L 488.018295 109.966535 
L 493.815698 70.643829 
L 499.613101 98.249163 
L 505.410503 140.650161 
L 511.207906 175.107179 
L 517.005308 153.75773 
L 522.802711 105.895244 
L 528.600114 138.465567 
L 534.397516 98.646362 
L 540.194919 142.636157 
L 545.992321 153.360531 
L 551.789724 188.115448 
L 557.587127 171.929587 
L 563.384529 114.236425 
L 569.181932 116.818218 
L 574.979334 104.802947 
L 580.776737 140.352262 
L 586.57414 146.409548 
L 592.371542 172.525385 
L 598.168945 172.028886 
L 603.966347 145.019351 
L 609.76375 133.897778 
L 615.561153 140.749461 
L 621.358555 144.820751 
L 627.155958 164.482104 
L 632.95336 195.066431 
L 638.750763 178.384071 
L 644.548166 153.559131 
L 650.345568 151.374536 
L 656.142971 126.053096 
L 661.940373 154.750728 
L 667.737776 163.985606 
L 673.535179 214.330585 
L 679.332581 202.911112 
L 685.129984 157.133922 
L 690.927386 160.013615 
" clip-path="url(#pbe0b504352)" style="fill: none; stroke: #348abd; stroke-opacity: 0; stroke-width: 2; stroke-linecap: square"/>
   </g>
   <g id="line2d_34">
    <path d="M 82.200114 331.504305 
L 87.997516 335.476295 
L 93.794919 335.476295 
L 99.592321 335.476295 
L 105.389724 335.476295 
L 111.187127 335.476295 
L 116.984529 335.476295 
L 122.781932 335.476295 
L 128.579334 335.476295 
L 134.376737 335.476295 
L 140.17414 335.376996 
L 145.971542 335.476295 
L 151.768945 335.376996 
L 157.566347 335.476295 
L 163.36375 335.476295 
L 169.161153 335.376996 
L 174.958555 335.476295 
L 180.755958 335.376996 
L 186.55336 335.476295 
L 192.350763 335.476295 
L 198.148166 335.476295 
L 203.945568 335.476295 
L 209.742971 335.476295 
L 215.540373 335.476295 
L 221.337776 335.476295 
L 227.135179 335.376996 
L 232.932581 335.476295 
L 238.729984 335.476295 
L 244.527386 335.476295 
L 250.324789 335.476295 
L 256.122192 335.476295 
L 261.919594 335.476295 
L 267.716997 335.476295 
L 273.514399 335.376996 
L 279.311802 335.476295 
L 285.109205 335.476295 
L 290.906607 335.476295 
L 296.70401 335.476295 
L 302.501412 335.476295 
L 308.298815 335.476295 
L 314.096218 335.476295 
L 319.89362 335.476295 
L 325.691023 335.476295 
L 331.488425 335.476295 
L 337.285828 335.476295 
L 343.083231 335.376996 
L 348.880633 335.476295 
L 354.678036 335.376996 
L 360.475438 335.476295 
L 366.272841 335.476295 
L 372.070244 335.476295 
L 377.867646 335.476295 
L 383.665049 335.476295 
L 389.462451 335.476295 
L 395.259854 335.376996 
L 401.057256 335.476295 
L 406.854659 335.376996 
L 412.652062 335.476295 
L 418.449464 335.476295 
L 424.246867 335.476295 
L 430.044269 335.476295 
L 435.841672 335.376996 
L 441.639075 335.376996 
L 447.436477 335.476295 
L 453.23388 335.376996 
L 459.031282 335.476295 
L 464.828685 335.476295 
L 470.626088 335.476295 
L 476.42349 335.476295 
L 482.220893 335.476295 
L 488.018295 335.476295 
L 493.815698 335.476295 
L 499.613101 335.476295 
L 505.410503 335.376996 
L 511.207906 335.376996 
L 517.005308 335.476295 
L 522.802711 335.476295 
L 528.600114 335.476295 
L 534.397516 335.476295 
L 540.194919 335.476295 
L 545.992321 335.277696 
L 551.789724 335.476295 
L 557.587127 335.476295 
L 563.384529 335.476295 
L 569.181932 335.476295 
L 574.979334 335.476295 
L 580.776737 335.476295 
L 586.57414 335.476295 
L 592.371542 335.476295 
L 598.168945 335.476295 
L 603.966347 335.376996 
L 609.76375 335.476295 
L 615.561153 335.476295 
L 621.358555 335.376996 
L 627.155958 335.476295 
L 632.95336 335.376996 
L 638.750763 335.476295 
L 644.548166 335.476295 
L 650.345568 335.476295 
L 656.142971 335.376996 
L 661.940373 335.476295 
L 667.737776 335.476295 
L 673.535179 335.476295 
L 679.332581 335.476295 
L 685.129984 335.476295 
L 690.927386 335.476295 
" clip-path="url(#pbe0b504352)" style="fill: none; stroke: #348abd; stroke-opacity: 0; stroke-width: 2; stroke-linecap: square"/>
   </g>
   <g id="line2d_35">
    <path d="M 82.200114 329.22041 
L 87.997516 327.830214 
L 93.794919 324.553322 
L 99.592321 324.354722 
L 105.389724 324.354722 
L 111.187127 325.447019 
L 116.984529 325.645619 
L 122.781932 324.950521 
L 128.579334 324.056823 
L 134.376737 323.063825 
L 140.17414 324.255422 
L 145.971542 323.659624 
L 151.768945 325.24842 
L 157.566347 324.751921 
L 163.36375 324.156123 
L 169.161153 324.454022 
L 174.958555 323.758923 
L 180.755958 324.156123 
L 186.55336 323.858223 
L 192.350763 325.34772 
L 198.148166 324.156123 
L 203.945568 325.04982 
L 209.742971 324.652621 
L 215.540373 323.659624 
L 221.337776 323.361724 
L 227.135179 323.957523 
L 232.932581 325.24842 
L 238.729984 324.454022 
L 244.527386 325.14912 
L 250.324789 324.255422 
L 256.122192 323.560324 
L 261.919594 323.758923 
L 267.716997 323.758923 
L 273.514399 325.546319 
L 279.311802 325.447019 
L 285.109205 325.04982 
L 290.906607 323.858223 
L 296.70401 323.659624 
L 302.501412 323.461024 
L 308.298815 324.255422 
L 314.096218 325.34772 
L 319.89362 325.24842 
L 325.691023 324.553322 
L 331.488425 324.354722 
L 337.285828 323.758923 
L 343.083231 324.156123 
L 348.880633 324.354722 
L 354.678036 324.652621 
L 360.475438 325.546319 
L 366.272841 325.24842 
L 372.070244 324.751921 
L 377.867646 323.957523 
L 383.665049 323.659624 
L 389.462451 324.156123 
L 395.259854 325.546319 
L 401.057256 325.546319 
L 406.854659 325.14912 
L 412.652062 324.652621 
L 418.449464 323.758923 
L 424.246867 323.957523 
L 430.044269 323.659624 
L 435.841672 325.645619 
L 441.639075 325.645619 
L 447.436477 325.34772 
L 453.23388 325.04982 
L 459.031282 324.751921 
L 464.828685 324.851221 
L 470.626088 324.354722 
L 476.42349 325.34772 
L 482.220893 325.744919 
L 488.018295 325.34772 
L 493.815698 325.34772 
L 499.613101 324.156123 
L 505.410503 324.652621 
L 511.207906 324.255422 
L 517.005308 325.844218 
L 522.802711 325.943518 
L 528.600114 325.844218 
L 534.397516 325.14912 
L 540.194919 324.255422 
L 545.992321 325.14912 
L 551.789724 324.553322 
L 557.587127 326.042818 
L 563.384529 326.340717 
L 569.181932 326.340717 
L 574.979334 325.943518 
L 580.776737 325.24842 
L 586.57414 325.04982 
L 592.371542 325.24842 
L 598.168945 326.142118 
L 603.966347 326.042818 
L 609.76375 326.539317 
L 615.561153 325.943518 
L 621.358555 325.24842 
L 627.155958 325.645619 
L 632.95336 326.638617 
L 638.750763 327.333715 
L 644.548166 327.135115 
L 650.345568 327.333715 
L 656.142971 326.638617 
L 661.940373 326.340717 
L 667.737776 326.340717 
L 673.535179 326.737916 
L 679.332581 327.631614 
L 685.129984 327.532314 
L 690.927386 327.532314 
" clip-path="url(#pbe0b504352)" style="fill: none; stroke: #348abd; stroke-opacity: 0; stroke-width: 2; stroke-linecap: square"/>
   </g>
   <g id="patch_3">
    <path d="M 51.76375 350.30175 
L 51.76375 24.14175 
" style="fill: none; stroke: #bcbcbc; stroke-width: 0.8; stroke-linejoin: miter; stroke-linecap: square"/>
   </g>
   <g id="patch_4">
    <path d="M 721.36375 350.30175 
L 721.36375 24.14175 
" style="fill: none; stroke: #bcbcbc; stroke-width: 0.8; stroke-linejoin: miter; stroke-linecap: square"/>
   </g>
   <g id="patch_5">
    <path d="M 51.76375 350.30175 
L 721.36375 350.30175 
" style="fill: none; stroke: #bcbcbc; stroke-width: 0.8; stroke-linejoin: miter; stroke-linecap: square"/>
   </g>
   <g id="patch_6">
    <path d="M 51.76375 24.14175 
L 721.36375 24.14175 
" style="fill: none; stroke: #bcbcbc; stroke-width: 0.8; stroke-linejoin: miter; stroke-linecap: square"/>
   </g>
   <g id="text_18">
    <!-- Prior HDI Sales Model -->
    <g transform="translate(309.292 18.14175)scale(0.144 -0.144)">
     <defs>
      <path id="DejaVuSans-50" d="M 1259 4147 
L 1259 2394 
L 2053 2394 
Q 2494 2394 2734 2622 
Q 2975 2850 2975 3272 
Q 2975 3691 2734 3919 
Q 2494 4147 2053 4147 
L 1259 4147 
z
M 628 4666 
L 2053 4666 
Q 2838 4666 3239 4311 
Q 3641 3956 3641 3272 
Q 3641 2581 3239 2228 
Q 2838 1875 2053 1875 
L 1259 1875 
L 1259 0 
L 628 0 
L 628 4666 
z
" transform="scale(0.015625)"/>
      <path id="DejaVuSans-72" d="M 2631 2963 
Q 2534 3019 2420 3045 
Q 2306 3072 2169 3072 
Q 1681 3072 1420 2755 
Q 1159 2438 1159 1844 
L 1159 0 
L 581 0 
L 581 3500 
L 1159 3500 
L 1159 2956 
Q 1341 3275 1631 3429 
Q 1922 3584 2338 3584 
Q 2397 3584 2469 3576 
Q 2541 3569 2628 3553 
L 2631 2963 
z
" transform="scale(0.015625)"/>
      <path id="DejaVuSans-69" d="M 603 3500 
L 1178 3500 
L 1178 0 
L 603 0 
L 603 3500 
z
M 603 4863 
L 1178 4863 
L 1178 4134 
L 603 4134 
L 603 4863 
z
" transform="scale(0.015625)"/>
      <path id="DejaVuSans-6f" d="M 1959 3097 
Q 1497 3097 1228 2736 
Q 959 2375 959 1747 
Q 959 1119 1226 758 
Q 1494 397 1959 397 
Q 2419 397 2687 759 
Q 2956 1122 2956 1747 
Q 2956 2369 2687 2733 
Q 2419 3097 1959 3097 
z
M 1959 3584 
Q 2709 3584 3137 3096 
Q 3566 2609 3566 1747 
Q 3566 888 3137 398 
Q 2709 -91 1959 -91 
Q 1206 -91 779 398 
Q 353 888 353 1747 
Q 353 2609 779 3096 
Q 1206 3584 1959 3584 
z
" transform="scale(0.015625)"/>
      <path id="DejaVuSans-20" transform="scale(0.015625)"/>
      <path id="DejaVuSans-48" d="M 628 4666 
L 1259 4666 
L 1259 2753 
L 3553 2753 
L 3553 4666 
L 4184 4666 
L 4184 0 
L 3553 0 
L 3553 2222 
L 1259 2222 
L 1259 0 
L 628 0 
L 628 4666 
z
" transform="scale(0.015625)"/>
      <path id="DejaVuSans-44" d="M 1259 4147 
L 1259 519 
L 2022 519 
Q 2988 519 3436 956 
Q 3884 1394 3884 2338 
Q 3884 3275 3436 3711 
Q 2988 4147 2022 4147 
L 1259 4147 
z
M 628 4666 
L 1925 4666 
Q 3281 4666 3915 4102 
Q 4550 3538 4550 2338 
Q 4550 1131 3912 565 
Q 3275 0 1925 0 
L 628 0 
L 628 4666 
z
" transform="scale(0.015625)"/>
      <path id="DejaVuSans-49" d="M 628 4666 
L 1259 4666 
L 1259 0 
L 628 0 
L 628 4666 
z
" transform="scale(0.015625)"/>
      <path id="DejaVuSans-53" d="M 3425 4513 
L 3425 3897 
Q 3066 4069 2747 4153 
Q 2428 4238 2131 4238 
Q 1616 4238 1336 4038 
Q 1056 3838 1056 3469 
Q 1056 3159 1242 3001 
Q 1428 2844 1947 2747 
L 2328 2669 
Q 3034 2534 3370 2195 
Q 3706 1856 3706 1288 
Q 3706 609 3251 259 
Q 2797 -91 1919 -91 
Q 1588 -91 1214 -16 
Q 841 59 441 206 
L 441 856 
Q 825 641 1194 531 
Q 1563 422 1919 422 
Q 2459 422 2753 634 
Q 3047 847 3047 1241 
Q 3047 1584 2836 1778 
Q 2625 1972 2144 2069 
L 1759 2144 
Q 1053 2284 737 2584 
Q 422 2884 422 3419 
Q 422 4038 858 4394 
Q 1294 4750 2059 4750 
Q 2388 4750 2728 4690 
Q 3069 4631 3425 4513 
z
" transform="scale(0.015625)"/>
      <path id="DejaVuSans-4d" d="M 628 4666 
L 1569 4666 
L 2759 1491 
L 3956 4666 
L 4897 4666 
L 4897 0 
L 4281 0 
L 4281 4097 
L 3078 897 
L 2444 897 
L 1241 4097 
L 1241 0 
L 628 0 
L 628 4666 
z
" transform="scale(0.015625)"/>
     </defs>
     <use xlink:href="#DejaVuSans-50"/>
     <use xlink:href="#DejaVuSans-72" x="58.552734"/>
     <use xlink:href="#DejaVuSans-69" x="99.666016"/>
     <use xlink:href="#DejaVuSans-6f" x="127.449219"/>
     <use xlink:href="#DejaVuSans-72" x="188.630859"/>
     <use xlink:href="#DejaVuSans-20" x="229.744141"/>
     <use xlink:href="#DejaVuSans-48" x="261.53125"/>
     <use xlink:href="#DejaVuSans-44" x="336.726562"/>
     <use xlink:href="#DejaVuSans-49" x="413.728516"/>
     <use xlink:href="#DejaVuSans-20" x="443.220703"/>
     <use xlink:href="#DejaVuSans-53" x="475.007812"/>
     <use xlink:href="#DejaVuSans-61" x="538.484375"/>
     <use xlink:href="#DejaVuSans-6c" x="599.763672"/>
     <use xlink:href="#DejaVuSans-65" x="627.546875"/>
     <use xlink:href="#DejaVuSans-73" x="689.070312"/>
     <use xlink:href="#DejaVuSans-20" x="741.169922"/>
     <use xlink:href="#DejaVuSans-4d" x="772.957031"/>
     <use xlink:href="#DejaVuSans-6f" x="859.236328"/>
     <use xlink:href="#DejaVuSans-64" x="920.417969"/>
     <use xlink:href="#DejaVuSans-65" x="983.894531"/>
     <use xlink:href="#DejaVuSans-6c" x="1045.417969"/>
    </g>
   </g>
   <g id="legend_1">
    <g id="patch_7">
     <path d="M 58.76375 76.176125 
L 150.498125 76.176125 
Q 152.498125 76.176125 152.498125 74.176125 
L 152.498125 31.14175 
Q 152.498125 29.14175 150.498125 29.14175 
L 58.76375 29.14175 
Q 56.76375 29.14175 56.76375 31.14175 
L 56.76375 74.176125 
Q 56.76375 76.176125 58.76375 76.176125 
z
" style="fill: #eeeeee; opacity: 0.8; stroke: #cccccc; stroke-width: 0.5; stroke-linejoin: miter"/>
    </g>
    <g id="line2d_36">
     <path d="M 60.76375 37.240187 
L 70.76375 37.240187 
L 80.76375 37.240187 
" style="fill: none; stroke: #000000; stroke-opacity: 0.8; stroke-width: 2; stroke-linecap: square"/>
     <g>
      <use xlink:href="#m7d00f79e94" x="70.76375" y="37.240187" style="fill-opacity: 0.8; stroke: #000000; stroke-opacity: 0.8; stroke-width: 0.75"/>
     </g>
    </g>
    <g id="text_19">
     <!-- sales (train) -->
     <g transform="translate(88.76375 40.740187)scale(0.1 -0.1)">
      <defs>
       <path id="DejaVuSans-28" d="M 1984 4856 
Q 1566 4138 1362 3434 
Q 1159 2731 1159 2009 
Q 1159 1288 1364 580 
Q 1569 -128 1984 -844 
L 1484 -844 
Q 1016 -109 783 600 
Q 550 1309 550 2009 
Q 550 2706 781 3412 
Q 1013 4119 1484 4856 
L 1984 4856 
z
" transform="scale(0.015625)"/>
       <path id="DejaVuSans-6e" d="M 3513 2113 
L 3513 0 
L 2938 0 
L 2938 2094 
Q 2938 2591 2744 2837 
Q 2550 3084 2163 3084 
Q 1697 3084 1428 2787 
Q 1159 2491 1159 1978 
L 1159 0 
L 581 0 
L 581 3500 
L 1159 3500 
L 1159 2956 
Q 1366 3272 1645 3428 
Q 1925 3584 2291 3584 
Q 2894 3584 3203 3211 
Q 3513 2838 3513 2113 
z
" transform="scale(0.015625)"/>
       <path id="DejaVuSans-29" d="M 513 4856 
L 1013 4856 
Q 1481 4119 1714 3412 
Q 1947 2706 1947 2009 
Q 1947 1309 1714 600 
Q 1481 -109 1013 -844 
L 513 -844 
Q 928 -128 1133 580 
Q 1338 1288 1338 2009 
Q 1338 2731 1133 3434 
Q 928 4138 513 4856 
z
" transform="scale(0.015625)"/>
      </defs>
      <use xlink:href="#DejaVuSans-73"/>
      <use xlink:href="#DejaVuSans-61" x="52.099609"/>
      <use xlink:href="#DejaVuSans-6c" x="113.378906"/>
      <use xlink:href="#DejaVuSans-65" x="141.162109"/>
      <use xlink:href="#DejaVuSans-73" x="202.685547"/>
      <use xlink:href="#DejaVuSans-20" x="254.785156"/>
      <use xlink:href="#DejaVuSans-28" x="286.572266"/>
      <use xlink:href="#DejaVuSans-74" x="325.585938"/>
      <use xlink:href="#DejaVuSans-72" x="364.794922"/>
      <use xlink:href="#DejaVuSans-61" x="405.908203"/>
      <use xlink:href="#DejaVuSans-69" x="467.1875"/>
      <use xlink:href="#DejaVuSans-6e" x="494.970703"/>
      <use xlink:href="#DejaVuSans-29" x="558.349609"/>
     </g>
    </g>
    <g id="patch_8">
     <path d="M 60.76375 55.418313 
L 80.76375 55.418313 
L 80.76375 48.418313 
L 60.76375 48.418313 
z
" style="fill: #348abd; fill-opacity: 0.3; stroke: #348abd; stroke-opacity: 0.3; stroke-width: 0.5; stroke-linejoin: miter"/>
    </g>
    <g id="text_20">
     <!-- HDI 50% -->
     <g transform="translate(88.76375 55.418313)scale(0.1 -0.1)">
      <defs>
       <path id="DejaVuSans-25" d="M 4653 2053 
Q 4381 2053 4226 1822 
Q 4072 1591 4072 1178 
Q 4072 772 4226 539 
Q 4381 306 4653 306 
Q 4919 306 5073 539 
Q 5228 772 5228 1178 
Q 5228 1588 5073 1820 
Q 4919 2053 4653 2053 
z
M 4653 2450 
Q 5147 2450 5437 2106 
Q 5728 1763 5728 1178 
Q 5728 594 5436 251 
Q 5144 -91 4653 -91 
Q 4153 -91 3862 251 
Q 3572 594 3572 1178 
Q 3572 1766 3864 2108 
Q 4156 2450 4653 2450 
z
M 1428 4353 
Q 1159 4353 1004 4120 
Q 850 3888 850 3481 
Q 850 3069 1003 2837 
Q 1156 2606 1428 2606 
Q 1700 2606 1854 2837 
Q 2009 3069 2009 3481 
Q 2009 3884 1853 4118 
Q 1697 4353 1428 4353 
z
M 4250 4750 
L 4750 4750 
L 1831 -91 
L 1331 -91 
L 4250 4750 
z
M 1428 4750 
Q 1922 4750 2215 4408 
Q 2509 4066 2509 3481 
Q 2509 2891 2217 2550 
Q 1925 2209 1428 2209 
Q 931 2209 642 2551 
Q 353 2894 353 3481 
Q 353 4063 643 4406 
Q 934 4750 1428 4750 
z
" transform="scale(0.015625)"/>
      </defs>
      <use xlink:href="#DejaVuSans-48"/>
      <use xlink:href="#DejaVuSans-44" x="75.195312"/>
      <use xlink:href="#DejaVuSans-49" x="152.197266"/>
      <use xlink:href="#DejaVuSans-20" x="181.689453"/>
      <use xlink:href="#DejaVuSans-35" x="213.476562"/>
      <use xlink:href="#DejaVuSans-30" x="277.099609"/>
      <use xlink:href="#DejaVuSans-25" x="340.722656"/>
     </g>
    </g>
    <g id="patch_9">
     <path d="M 60.76375 70.096437 
L 80.76375 70.096437 
L 80.76375 63.096437 
L 60.76375 63.096437 
z
" style="fill: #348abd; fill-opacity: 0.5; stroke: #348abd; stroke-opacity: 0.5; stroke-width: 0.5; stroke-linejoin: miter"/>
    </g>
    <g id="text_21">
     <!-- HDI 95% -->
     <g transform="translate(88.76375 70.096437)scale(0.1 -0.1)">
      <use xlink:href="#DejaVuSans-48"/>
      <use xlink:href="#DejaVuSans-44" x="75.195312"/>
      <use xlink:href="#DejaVuSans-49" x="152.197266"/>
      <use xlink:href="#DejaVuSans-20" x="181.689453"/>
      <use xlink:href="#DejaVuSans-39" x="213.476562"/>
      <use xlink:href="#DejaVuSans-35" x="277.099609"/>
      <use xlink:href="#DejaVuSans-25" x="340.722656"/>
     </g>
    </g>
   </g>
  </g>
 </g>
 <defs>
  <clipPath id="pbe0b504352">
   <rect x="51.76375" y="24.14175" width="669.6" height="326.16"/>
  </clipPath>
 </defs>
</svg>
