<?xml version="1.0" encoding="utf-8" standalone="no"?>
<!DOCTYPE svg PUBLIC "-//W3C//DTD SVG 1.1//EN"
  "http://www.w3.org/Graphics/SVG/1.1/DTD/svg11.dtd">
<svg xmlns:xlink="http://www.w3.org/1999/xlink" width="726.620101pt" height="386.293625pt" viewBox="0 0 726.620101 386.293625" xmlns="http://www.w3.org/2000/svg" version="1.1">
 <metadata>
  <rdf:RDF xmlns:dc="http://purl.org/dc/elements/1.1/" xmlns:cc="http://creativecommons.org/ns#" xmlns:rdf="http://www.w3.org/1999/02/22-rdf-syntax-ns#">
   <cc:Work>
    <dc:type rdf:resource="http://purl.org/dc/dcmitype/StillImage"/>
    <dc:date>2022-07-18T19:32:12.670835</dc:date>
    <dc:format>image/svg+xml</dc:format>
    <dc:creator>
     <cc:Agent>
      <dc:title>Matplotlib v3.5.1, https://matplotlib.org/</dc:title>
     </cc:Agent>
    </dc:creator>
   </cc:Work>
  </rdf:RDF>
 </metadata>
 <defs>
  <style type="text/css">*{stroke-linejoin: round; stroke-linecap: butt}</style>
 </defs>
 <g id="figure_1">
  <g id="patch_1">
   <path d="M 0 386.293625 
L 726.620101 386.293625 
L 726.620101 0 
L 0 0 
z
" style="fill: #ffffff"/>
  </g>
  <g id="axes_1">
   <g id="patch_2">
    <path d="M 45.40125 350.30175 
L 715.00125 350.30175 
L 715.00125 24.14175 
L 45.40125 24.14175 
z
" style="fill: #eeeeee"/>
   </g>
   <g id="matplotlib.axis_1">
    <g id="xtick_1">
     <g id="line2d_1">
      <path d="M 75.837614 350.30175 
L 75.837614 24.14175 
" clip-path="url(#p8ed89161c3)" style="fill: none; stroke-dasharray: 1.85,0.8; stroke-dashoffset: 0; stroke: #b2b2b2; stroke-width: 0.5"/>
     </g>
     <g id="line2d_2">
      <defs>
       <path id="ma64f122c58" d="M 0 0 
L 0 -3.5 
" style="stroke: #000000; stroke-width: 0.8"/>
      </defs>
      <g>
       <use xlink:href="#ma64f122c58" x="75.837614" y="350.30175" style="stroke: #000000; stroke-width: 0.8"/>
      </g>
     </g>
     <g id="text_1">
      <!-- 2013-07-01 -->
      <g transform="translate(46.779801 361.400188)scale(0.1 -0.1)">
       <defs>
        <path id="DejaVuSans-32" d="M 1228 531 
L 3431 531 
L 3431 0 
L 469 0 
L 469 531 
Q 828 903 1448 1529 
Q 2069 2156 2228 2338 
Q 2531 2678 2651 2914 
Q 2772 3150 2772 3378 
Q 2772 3750 2511 3984 
Q 2250 4219 1831 4219 
Q 1534 4219 1204 4116 
Q 875 4013 500 3803 
L 500 4441 
Q 881 4594 1212 4672 
Q 1544 4750 1819 4750 
Q 2544 4750 2975 4387 
Q 3406 4025 3406 3419 
Q 3406 3131 3298 2873 
Q 3191 2616 2906 2266 
Q 2828 2175 2409 1742 
Q 1991 1309 1228 531 
z
" transform="scale(0.015625)"/>
        <path id="DejaVuSans-30" d="M 2034 4250 
Q 1547 4250 1301 3770 
Q 1056 3291 1056 2328 
Q 1056 1369 1301 889 
Q 1547 409 2034 409 
Q 2525 409 2770 889 
Q 3016 1369 3016 2328 
Q 3016 3291 2770 3770 
Q 2525 4250 2034 4250 
z
M 2034 4750 
Q 2819 4750 3233 4129 
Q 3647 3509 3647 2328 
Q 3647 1150 3233 529 
Q 2819 -91 2034 -91 
Q 1250 -91 836 529 
Q 422 1150 422 2328 
Q 422 3509 836 4129 
Q 1250 4750 2034 4750 
z
" transform="scale(0.015625)"/>
        <path id="DejaVuSans-31" d="M 794 531 
L 1825 531 
L 1825 4091 
L 703 3866 
L 703 4441 
L 1819 4666 
L 2450 4666 
L 2450 531 
L 3481 531 
L 3481 0 
L 794 0 
L 794 531 
z
" transform="scale(0.015625)"/>
        <path id="DejaVuSans-33" d="M 2597 2516 
Q 3050 2419 3304 2112 
Q 3559 1806 3559 1356 
Q 3559 666 3084 287 
Q 2609 -91 1734 -91 
Q 1441 -91 1130 -33 
Q 819 25 488 141 
L 488 750 
Q 750 597 1062 519 
Q 1375 441 1716 441 
Q 2309 441 2620 675 
Q 2931 909 2931 1356 
Q 2931 1769 2642 2001 
Q 2353 2234 1838 2234 
L 1294 2234 
L 1294 2753 
L 1863 2753 
Q 2328 2753 2575 2939 
Q 2822 3125 2822 3475 
Q 2822 3834 2567 4026 
Q 2313 4219 1838 4219 
Q 1578 4219 1281 4162 
Q 984 4106 628 3988 
L 628 4550 
Q 988 4650 1302 4700 
Q 1616 4750 1894 4750 
Q 2613 4750 3031 4423 
Q 3450 4097 3450 3541 
Q 3450 3153 3228 2886 
Q 3006 2619 2597 2516 
z
" transform="scale(0.015625)"/>
        <path id="DejaVuSans-2d" d="M 313 2009 
L 1997 2009 
L 1997 1497 
L 313 1497 
L 313 2009 
z
" transform="scale(0.015625)"/>
        <path id="DejaVuSans-37" d="M 525 4666 
L 3525 4666 
L 3525 4397 
L 1831 0 
L 1172 0 
L 2766 4134 
L 525 4134 
L 525 4666 
z
" transform="scale(0.015625)"/>
       </defs>
       <use xlink:href="#DejaVuSans-32"/>
       <use xlink:href="#DejaVuSans-30" x="63.623047"/>
       <use xlink:href="#DejaVuSans-31" x="127.246094"/>
       <use xlink:href="#DejaVuSans-33" x="190.869141"/>
       <use xlink:href="#DejaVuSans-2d" x="254.492188"/>
       <use xlink:href="#DejaVuSans-30" x="290.576172"/>
       <use xlink:href="#DejaVuSans-37" x="354.199219"/>
       <use xlink:href="#DejaVuSans-2d" x="417.822266"/>
       <use xlink:href="#DejaVuSans-30" x="453.90625"/>
       <use xlink:href="#DejaVuSans-31" x="517.529297"/>
      </g>
     </g>
    </g>
    <g id="xtick_2">
     <g id="line2d_3">
      <path d="M 157.00125 350.30175 
L 157.00125 24.14175 
" clip-path="url(#p8ed89161c3)" style="fill: none; stroke-dasharray: 1.85,0.8; stroke-dashoffset: 0; stroke: #b2b2b2; stroke-width: 0.5"/>
     </g>
     <g id="line2d_4">
      <g>
       <use xlink:href="#ma64f122c58" x="157.00125" y="350.30175" style="stroke: #000000; stroke-width: 0.8"/>
      </g>
     </g>
     <g id="text_2">
      <!-- 2013-07-15 -->
      <g transform="translate(127.943437 361.400188)scale(0.1 -0.1)">
       <defs>
        <path id="DejaVuSans-35" d="M 691 4666 
L 3169 4666 
L 3169 4134 
L 1269 4134 
L 1269 2991 
Q 1406 3038 1543 3061 
Q 1681 3084 1819 3084 
Q 2600 3084 3056 2656 
Q 3513 2228 3513 1497 
Q 3513 744 3044 326 
Q 2575 -91 1722 -91 
Q 1428 -91 1123 -41 
Q 819 9 494 109 
L 494 744 
Q 775 591 1075 516 
Q 1375 441 1709 441 
Q 2250 441 2565 725 
Q 2881 1009 2881 1497 
Q 2881 1984 2565 2268 
Q 2250 2553 1709 2553 
Q 1456 2553 1204 2497 
Q 953 2441 691 2322 
L 691 4666 
z
" transform="scale(0.015625)"/>
       </defs>
       <use xlink:href="#DejaVuSans-32"/>
       <use xlink:href="#DejaVuSans-30" x="63.623047"/>
       <use xlink:href="#DejaVuSans-31" x="127.246094"/>
       <use xlink:href="#DejaVuSans-33" x="190.869141"/>
       <use xlink:href="#DejaVuSans-2d" x="254.492188"/>
       <use xlink:href="#DejaVuSans-30" x="290.576172"/>
       <use xlink:href="#DejaVuSans-37" x="354.199219"/>
       <use xlink:href="#DejaVuSans-2d" x="417.822266"/>
       <use xlink:href="#DejaVuSans-31" x="453.90625"/>
       <use xlink:href="#DejaVuSans-35" x="517.529297"/>
      </g>
     </g>
    </g>
    <g id="xtick_3">
     <g id="line2d_5">
      <path d="M 255.557094 350.30175 
L 255.557094 24.14175 
" clip-path="url(#p8ed89161c3)" style="fill: none; stroke-dasharray: 1.85,0.8; stroke-dashoffset: 0; stroke: #b2b2b2; stroke-width: 0.5"/>
     </g>
     <g id="line2d_6">
      <g>
       <use xlink:href="#ma64f122c58" x="255.557094" y="350.30175" style="stroke: #000000; stroke-width: 0.8"/>
      </g>
     </g>
     <g id="text_3">
      <!-- 2013-08-01 -->
      <g transform="translate(226.499282 361.400188)scale(0.1 -0.1)">
       <defs>
        <path id="DejaVuSans-38" d="M 2034 2216 
Q 1584 2216 1326 1975 
Q 1069 1734 1069 1313 
Q 1069 891 1326 650 
Q 1584 409 2034 409 
Q 2484 409 2743 651 
Q 3003 894 3003 1313 
Q 3003 1734 2745 1975 
Q 2488 2216 2034 2216 
z
M 1403 2484 
Q 997 2584 770 2862 
Q 544 3141 544 3541 
Q 544 4100 942 4425 
Q 1341 4750 2034 4750 
Q 2731 4750 3128 4425 
Q 3525 4100 3525 3541 
Q 3525 3141 3298 2862 
Q 3072 2584 2669 2484 
Q 3125 2378 3379 2068 
Q 3634 1759 3634 1313 
Q 3634 634 3220 271 
Q 2806 -91 2034 -91 
Q 1263 -91 848 271 
Q 434 634 434 1313 
Q 434 1759 690 2068 
Q 947 2378 1403 2484 
z
M 1172 3481 
Q 1172 3119 1398 2916 
Q 1625 2713 2034 2713 
Q 2441 2713 2670 2916 
Q 2900 3119 2900 3481 
Q 2900 3844 2670 4047 
Q 2441 4250 2034 4250 
Q 1625 4250 1398 4047 
Q 1172 3844 1172 3481 
z
" transform="scale(0.015625)"/>
       </defs>
       <use xlink:href="#DejaVuSans-32"/>
       <use xlink:href="#DejaVuSans-30" x="63.623047"/>
       <use xlink:href="#DejaVuSans-31" x="127.246094"/>
       <use xlink:href="#DejaVuSans-33" x="190.869141"/>
       <use xlink:href="#DejaVuSans-2d" x="254.492188"/>
       <use xlink:href="#DejaVuSans-30" x="290.576172"/>
       <use xlink:href="#DejaVuSans-38" x="354.199219"/>
       <use xlink:href="#DejaVuSans-2d" x="417.822266"/>
       <use xlink:href="#DejaVuSans-30" x="453.90625"/>
       <use xlink:href="#DejaVuSans-31" x="517.529297"/>
      </g>
     </g>
    </g>
    <g id="xtick_4">
     <g id="line2d_7">
      <path d="M 336.720731 350.30175 
L 336.720731 24.14175 
" clip-path="url(#p8ed89161c3)" style="fill: none; stroke-dasharray: 1.85,0.8; stroke-dashoffset: 0; stroke: #b2b2b2; stroke-width: 0.5"/>
     </g>
     <g id="line2d_8">
      <g>
       <use xlink:href="#ma64f122c58" x="336.720731" y="350.30175" style="stroke: #000000; stroke-width: 0.8"/>
      </g>
     </g>
     <g id="text_4">
      <!-- 2013-08-15 -->
      <g transform="translate(307.662918 361.400188)scale(0.1 -0.1)">
       <use xlink:href="#DejaVuSans-32"/>
       <use xlink:href="#DejaVuSans-30" x="63.623047"/>
       <use xlink:href="#DejaVuSans-31" x="127.246094"/>
       <use xlink:href="#DejaVuSans-33" x="190.869141"/>
       <use xlink:href="#DejaVuSans-2d" x="254.492188"/>
       <use xlink:href="#DejaVuSans-30" x="290.576172"/>
       <use xlink:href="#DejaVuSans-38" x="354.199219"/>
       <use xlink:href="#DejaVuSans-2d" x="417.822266"/>
       <use xlink:href="#DejaVuSans-31" x="453.90625"/>
       <use xlink:href="#DejaVuSans-35" x="517.529297"/>
      </g>
     </g>
    </g>
    <g id="xtick_5">
     <g id="line2d_9">
      <path d="M 435.276575 350.30175 
L 435.276575 24.14175 
" clip-path="url(#p8ed89161c3)" style="fill: none; stroke-dasharray: 1.85,0.8; stroke-dashoffset: 0; stroke: #b2b2b2; stroke-width: 0.5"/>
     </g>
     <g id="line2d_10">
      <g>
       <use xlink:href="#ma64f122c58" x="435.276575" y="350.30175" style="stroke: #000000; stroke-width: 0.8"/>
      </g>
     </g>
     <g id="text_5">
      <!-- 2013-09-01 -->
      <g transform="translate(406.218762 361.400188)scale(0.1 -0.1)">
       <defs>
        <path id="DejaVuSans-39" d="M 703 97 
L 703 672 
Q 941 559 1184 500 
Q 1428 441 1663 441 
Q 2288 441 2617 861 
Q 2947 1281 2994 2138 
Q 2813 1869 2534 1725 
Q 2256 1581 1919 1581 
Q 1219 1581 811 2004 
Q 403 2428 403 3163 
Q 403 3881 828 4315 
Q 1253 4750 1959 4750 
Q 2769 4750 3195 4129 
Q 3622 3509 3622 2328 
Q 3622 1225 3098 567 
Q 2575 -91 1691 -91 
Q 1453 -91 1209 -44 
Q 966 3 703 97 
z
M 1959 2075 
Q 2384 2075 2632 2365 
Q 2881 2656 2881 3163 
Q 2881 3666 2632 3958 
Q 2384 4250 1959 4250 
Q 1534 4250 1286 3958 
Q 1038 3666 1038 3163 
Q 1038 2656 1286 2365 
Q 1534 2075 1959 2075 
z
" transform="scale(0.015625)"/>
       </defs>
       <use xlink:href="#DejaVuSans-32"/>
       <use xlink:href="#DejaVuSans-30" x="63.623047"/>
       <use xlink:href="#DejaVuSans-31" x="127.246094"/>
       <use xlink:href="#DejaVuSans-33" x="190.869141"/>
       <use xlink:href="#DejaVuSans-2d" x="254.492188"/>
       <use xlink:href="#DejaVuSans-30" x="290.576172"/>
       <use xlink:href="#DejaVuSans-39" x="354.199219"/>
       <use xlink:href="#DejaVuSans-2d" x="417.822266"/>
       <use xlink:href="#DejaVuSans-30" x="453.90625"/>
       <use xlink:href="#DejaVuSans-31" x="517.529297"/>
      </g>
     </g>
    </g>
    <g id="xtick_6">
     <g id="line2d_11">
      <path d="M 516.440211 350.30175 
L 516.440211 24.14175 
" clip-path="url(#p8ed89161c3)" style="fill: none; stroke-dasharray: 1.85,0.8; stroke-dashoffset: 0; stroke: #b2b2b2; stroke-width: 0.5"/>
     </g>
     <g id="line2d_12">
      <g>
       <use xlink:href="#ma64f122c58" x="516.440211" y="350.30175" style="stroke: #000000; stroke-width: 0.8"/>
      </g>
     </g>
     <g id="text_6">
      <!-- 2013-09-15 -->
      <g transform="translate(487.382399 361.400188)scale(0.1 -0.1)">
       <use xlink:href="#DejaVuSans-32"/>
       <use xlink:href="#DejaVuSans-30" x="63.623047"/>
       <use xlink:href="#DejaVuSans-31" x="127.246094"/>
       <use xlink:href="#DejaVuSans-33" x="190.869141"/>
       <use xlink:href="#DejaVuSans-2d" x="254.492188"/>
       <use xlink:href="#DejaVuSans-30" x="290.576172"/>
       <use xlink:href="#DejaVuSans-39" x="354.199219"/>
       <use xlink:href="#DejaVuSans-2d" x="417.822266"/>
       <use xlink:href="#DejaVuSans-31" x="453.90625"/>
       <use xlink:href="#DejaVuSans-35" x="517.529297"/>
      </g>
     </g>
    </g>
    <g id="xtick_7">
     <g id="line2d_13">
      <path d="M 609.198653 350.30175 
L 609.198653 24.14175 
" clip-path="url(#p8ed89161c3)" style="fill: none; stroke-dasharray: 1.85,0.8; stroke-dashoffset: 0; stroke: #b2b2b2; stroke-width: 0.5"/>
     </g>
     <g id="line2d_14">
      <g>
       <use xlink:href="#ma64f122c58" x="609.198653" y="350.30175" style="stroke: #000000; stroke-width: 0.8"/>
      </g>
     </g>
     <g id="text_7">
      <!-- 2013-10-01 -->
      <g transform="translate(580.14084 361.400188)scale(0.1 -0.1)">
       <use xlink:href="#DejaVuSans-32"/>
       <use xlink:href="#DejaVuSans-30" x="63.623047"/>
       <use xlink:href="#DejaVuSans-31" x="127.246094"/>
       <use xlink:href="#DejaVuSans-33" x="190.869141"/>
       <use xlink:href="#DejaVuSans-2d" x="254.492188"/>
       <use xlink:href="#DejaVuSans-31" x="290.576172"/>
       <use xlink:href="#DejaVuSans-30" x="354.199219"/>
       <use xlink:href="#DejaVuSans-2d" x="417.822266"/>
       <use xlink:href="#DejaVuSans-30" x="453.90625"/>
       <use xlink:href="#DejaVuSans-31" x="517.529297"/>
      </g>
     </g>
    </g>
    <g id="xtick_8">
     <g id="line2d_15">
      <path d="M 690.362289 350.30175 
L 690.362289 24.14175 
" clip-path="url(#p8ed89161c3)" style="fill: none; stroke-dasharray: 1.85,0.8; stroke-dashoffset: 0; stroke: #b2b2b2; stroke-width: 0.5"/>
     </g>
     <g id="line2d_16">
      <g>
       <use xlink:href="#ma64f122c58" x="690.362289" y="350.30175" style="stroke: #000000; stroke-width: 0.8"/>
      </g>
     </g>
     <g id="text_8">
      <!-- 2013-10-15 -->
      <g transform="translate(661.304476 361.400188)scale(0.1 -0.1)">
       <use xlink:href="#DejaVuSans-32"/>
       <use xlink:href="#DejaVuSans-30" x="63.623047"/>
       <use xlink:href="#DejaVuSans-31" x="127.246094"/>
       <use xlink:href="#DejaVuSans-33" x="190.869141"/>
       <use xlink:href="#DejaVuSans-2d" x="254.492188"/>
       <use xlink:href="#DejaVuSans-31" x="290.576172"/>
       <use xlink:href="#DejaVuSans-30" x="354.199219"/>
       <use xlink:href="#DejaVuSans-2d" x="417.822266"/>
       <use xlink:href="#DejaVuSans-31" x="453.90625"/>
       <use xlink:href="#DejaVuSans-35" x="517.529297"/>
      </g>
     </g>
    </g>
    <g id="text_9">
     <!-- date -->
     <g transform="translate(366.67125 376.598)scale(0.12 -0.12)">
      <defs>
       <path id="DejaVuSans-64" d="M 2906 2969 
L 2906 4863 
L 3481 4863 
L 3481 0 
L 2906 0 
L 2906 525 
Q 2725 213 2448 61 
Q 2172 -91 1784 -91 
Q 1150 -91 751 415 
Q 353 922 353 1747 
Q 353 2572 751 3078 
Q 1150 3584 1784 3584 
Q 2172 3584 2448 3432 
Q 2725 3281 2906 2969 
z
M 947 1747 
Q 947 1113 1208 752 
Q 1469 391 1925 391 
Q 2381 391 2643 752 
Q 2906 1113 2906 1747 
Q 2906 2381 2643 2742 
Q 2381 3103 1925 3103 
Q 1469 3103 1208 2742 
Q 947 2381 947 1747 
z
" transform="scale(0.015625)"/>
       <path id="DejaVuSans-61" d="M 2194 1759 
Q 1497 1759 1228 1600 
Q 959 1441 959 1056 
Q 959 750 1161 570 
Q 1363 391 1709 391 
Q 2188 391 2477 730 
Q 2766 1069 2766 1631 
L 2766 1759 
L 2194 1759 
z
M 3341 1997 
L 3341 0 
L 2766 0 
L 2766 531 
Q 2569 213 2275 61 
Q 1981 -91 1556 -91 
Q 1019 -91 701 211 
Q 384 513 384 1019 
Q 384 1609 779 1909 
Q 1175 2209 1959 2209 
L 2766 2209 
L 2766 2266 
Q 2766 2663 2505 2880 
Q 2244 3097 1772 3097 
Q 1472 3097 1187 3025 
Q 903 2953 641 2809 
L 641 3341 
Q 956 3463 1253 3523 
Q 1550 3584 1831 3584 
Q 2591 3584 2966 3190 
Q 3341 2797 3341 1997 
z
" transform="scale(0.015625)"/>
       <path id="DejaVuSans-74" d="M 1172 4494 
L 1172 3500 
L 2356 3500 
L 2356 3053 
L 1172 3053 
L 1172 1153 
Q 1172 725 1289 603 
Q 1406 481 1766 481 
L 2356 481 
L 2356 0 
L 1766 0 
Q 1100 0 847 248 
Q 594 497 594 1153 
L 594 3053 
L 172 3053 
L 172 3500 
L 594 3500 
L 594 4494 
L 1172 4494 
z
" transform="scale(0.015625)"/>
       <path id="DejaVuSans-65" d="M 3597 1894 
L 3597 1613 
L 953 1613 
Q 991 1019 1311 708 
Q 1631 397 2203 397 
Q 2534 397 2845 478 
Q 3156 559 3463 722 
L 3463 178 
Q 3153 47 2828 -22 
Q 2503 -91 2169 -91 
Q 1331 -91 842 396 
Q 353 884 353 1716 
Q 353 2575 817 3079 
Q 1281 3584 2069 3584 
Q 2775 3584 3186 3129 
Q 3597 2675 3597 1894 
z
M 3022 2063 
Q 3016 2534 2758 2815 
Q 2500 3097 2075 3097 
Q 1594 3097 1305 2825 
Q 1016 2553 972 2059 
L 3022 2063 
z
" transform="scale(0.015625)"/>
      </defs>
      <use xlink:href="#DejaVuSans-64"/>
      <use xlink:href="#DejaVuSans-61" x="63.476562"/>
      <use xlink:href="#DejaVuSans-74" x="124.755859"/>
      <use xlink:href="#DejaVuSans-65" x="163.964844"/>
     </g>
    </g>
   </g>
   <g id="matplotlib.axis_2">
    <g id="ytick_1">
     <g id="line2d_17">
      <path d="M 45.40125 300.405328 
L 715.00125 300.405328 
" clip-path="url(#p8ed89161c3)" style="fill: none; stroke-dasharray: 1.85,0.8; stroke-dashoffset: 0; stroke: #b2b2b2; stroke-width: 0.5"/>
     </g>
     <g id="line2d_18">
      <defs>
       <path id="m491450ef69" d="M 0 0 
L 3.5 0 
" style="stroke: #000000; stroke-width: 0.8"/>
      </defs>
      <g>
       <use xlink:href="#m491450ef69" x="45.40125" y="300.405328" style="stroke: #000000; stroke-width: 0.8"/>
      </g>
     </g>
     <g id="text_10">
      <!-- 40 -->
      <g transform="translate(29.17625 304.204546)scale(0.1 -0.1)">
       <defs>
        <path id="DejaVuSans-34" d="M 2419 4116 
L 825 1625 
L 2419 1625 
L 2419 4116 
z
M 2253 4666 
L 3047 4666 
L 3047 1625 
L 3713 1625 
L 3713 1100 
L 3047 1100 
L 3047 0 
L 2419 0 
L 2419 1100 
L 313 1100 
L 313 1709 
L 2253 4666 
z
" transform="scale(0.015625)"/>
       </defs>
       <use xlink:href="#DejaVuSans-34"/>
       <use xlink:href="#DejaVuSans-30" x="63.623047"/>
      </g>
     </g>
    </g>
    <g id="ytick_2">
     <g id="line2d_19">
      <path d="M 45.40125 236.639932 
L 715.00125 236.639932 
" clip-path="url(#p8ed89161c3)" style="fill: none; stroke-dasharray: 1.85,0.8; stroke-dashoffset: 0; stroke: #b2b2b2; stroke-width: 0.5"/>
     </g>
     <g id="line2d_20">
      <g>
       <use xlink:href="#m491450ef69" x="45.40125" y="236.639932" style="stroke: #000000; stroke-width: 0.8"/>
      </g>
     </g>
     <g id="text_11">
      <!-- 60 -->
      <g transform="translate(29.17625 240.439151)scale(0.1 -0.1)">
       <defs>
        <path id="DejaVuSans-36" d="M 2113 2584 
Q 1688 2584 1439 2293 
Q 1191 2003 1191 1497 
Q 1191 994 1439 701 
Q 1688 409 2113 409 
Q 2538 409 2786 701 
Q 3034 994 3034 1497 
Q 3034 2003 2786 2293 
Q 2538 2584 2113 2584 
z
M 3366 4563 
L 3366 3988 
Q 3128 4100 2886 4159 
Q 2644 4219 2406 4219 
Q 1781 4219 1451 3797 
Q 1122 3375 1075 2522 
Q 1259 2794 1537 2939 
Q 1816 3084 2150 3084 
Q 2853 3084 3261 2657 
Q 3669 2231 3669 1497 
Q 3669 778 3244 343 
Q 2819 -91 2113 -91 
Q 1303 -91 875 529 
Q 447 1150 447 2328 
Q 447 3434 972 4092 
Q 1497 4750 2381 4750 
Q 2619 4750 2861 4703 
Q 3103 4656 3366 4563 
z
" transform="scale(0.015625)"/>
       </defs>
       <use xlink:href="#DejaVuSans-36"/>
       <use xlink:href="#DejaVuSans-30" x="63.623047"/>
      </g>
     </g>
    </g>
    <g id="ytick_3">
     <g id="line2d_21">
      <path d="M 45.40125 172.874536 
L 715.00125 172.874536 
" clip-path="url(#p8ed89161c3)" style="fill: none; stroke-dasharray: 1.85,0.8; stroke-dashoffset: 0; stroke: #b2b2b2; stroke-width: 0.5"/>
     </g>
     <g id="line2d_22">
      <g>
       <use xlink:href="#m491450ef69" x="45.40125" y="172.874536" style="stroke: #000000; stroke-width: 0.8"/>
      </g>
     </g>
     <g id="text_12">
      <!-- 80 -->
      <g transform="translate(29.17625 176.673755)scale(0.1 -0.1)">
       <use xlink:href="#DejaVuSans-38"/>
       <use xlink:href="#DejaVuSans-30" x="63.623047"/>
      </g>
     </g>
    </g>
    <g id="ytick_4">
     <g id="line2d_23">
      <path d="M 45.40125 109.10914 
L 715.00125 109.10914 
" clip-path="url(#p8ed89161c3)" style="fill: none; stroke-dasharray: 1.85,0.8; stroke-dashoffset: 0; stroke: #b2b2b2; stroke-width: 0.5"/>
     </g>
     <g id="line2d_24">
      <g>
       <use xlink:href="#m491450ef69" x="45.40125" y="109.10914" style="stroke: #000000; stroke-width: 0.8"/>
      </g>
     </g>
     <g id="text_13">
      <!-- 100 -->
      <g transform="translate(22.81375 112.908359)scale(0.1 -0.1)">
       <use xlink:href="#DejaVuSans-31"/>
       <use xlink:href="#DejaVuSans-30" x="63.623047"/>
       <use xlink:href="#DejaVuSans-30" x="127.246094"/>
      </g>
     </g>
    </g>
    <g id="ytick_5">
     <g id="line2d_25">
      <path d="M 45.40125 45.343744 
L 715.00125 45.343744 
" clip-path="url(#p8ed89161c3)" style="fill: none; stroke-dasharray: 1.85,0.8; stroke-dashoffset: 0; stroke: #b2b2b2; stroke-width: 0.5"/>
     </g>
     <g id="line2d_26">
      <g>
       <use xlink:href="#m491450ef69" x="45.40125" y="45.343744" style="stroke: #000000; stroke-width: 0.8"/>
      </g>
     </g>
     <g id="text_14">
      <!-- 120 -->
      <g transform="translate(22.81375 49.142963)scale(0.1 -0.1)">
       <use xlink:href="#DejaVuSans-31"/>
       <use xlink:href="#DejaVuSans-32" x="63.623047"/>
       <use xlink:href="#DejaVuSans-30" x="127.246094"/>
      </g>
     </g>
    </g>
    <g id="text_15">
     <!-- sales -->
     <g transform="translate(16.318125 202.508625)rotate(-90)scale(0.12 -0.12)">
      <defs>
       <path id="DejaVuSans-73" d="M 2834 3397 
L 2834 2853 
Q 2591 2978 2328 3040 
Q 2066 3103 1784 3103 
Q 1356 3103 1142 2972 
Q 928 2841 928 2578 
Q 928 2378 1081 2264 
Q 1234 2150 1697 2047 
L 1894 2003 
Q 2506 1872 2764 1633 
Q 3022 1394 3022 966 
Q 3022 478 2636 193 
Q 2250 -91 1575 -91 
Q 1294 -91 989 -36 
Q 684 19 347 128 
L 347 722 
Q 666 556 975 473 
Q 1284 391 1588 391 
Q 1994 391 2212 530 
Q 2431 669 2431 922 
Q 2431 1156 2273 1281 
Q 2116 1406 1581 1522 
L 1381 1569 
Q 847 1681 609 1914 
Q 372 2147 372 2553 
Q 372 3047 722 3315 
Q 1072 3584 1716 3584 
Q 2034 3584 2315 3537 
Q 2597 3491 2834 3397 
z
" transform="scale(0.015625)"/>
       <path id="DejaVuSans-6c" d="M 603 4863 
L 1178 4863 
L 1178 0 
L 603 0 
L 603 4863 
z
" transform="scale(0.015625)"/>
      </defs>
      <use xlink:href="#DejaVuSans-73"/>
      <use xlink:href="#DejaVuSans-61" x="52.099609"/>
      <use xlink:href="#DejaVuSans-6c" x="113.378906"/>
      <use xlink:href="#DejaVuSans-65" x="141.162109"/>
      <use xlink:href="#DejaVuSans-73" x="202.685547"/>
     </g>
    </g>
   </g>
   <g id="line2d_27">
    <path d="M 75.837614 246.204741 
L 81.635016 243.016471 
L 87.432419 258.95782 
L 93.229821 313.158407 
L 99.027224 335.476295 
L 104.824627 255.769551 
L 110.622029 297.217058 
L 116.419432 160.121457 
L 122.216834 176.062806 
L 128.014237 217.510313 
L 133.81164 258.95782 
L 139.609042 274.899169 
L 145.406445 332.288026 
L 151.203847 236.639932 
L 157.00125 243.016471 
L 162.798653 198.380694 
L 168.596055 207.945504 
L 174.393458 112.29741 
L 180.19086 192.004155 
L 185.988263 281.275709 
L 191.785666 258.95782 
L 197.583068 236.639932 
L 203.380471 169.686266 
L 209.177873 125.050489 
L 214.975276 163.309727 
L 220.772679 176.062806 
L 226.570081 236.639932 
L 232.367484 223.886853 
L 238.164886 70.849902 
L 243.962289 38.967205 
L 249.759692 128.238759 
L 255.557094 220.698583 
L 261.354497 89.979521 
L 267.151899 268.52263 
L 272.949302 179.251076 
L 278.746705 83.602982 
L 284.544107 144.180108 
L 290.34151 115.48568 
L 296.138912 179.251076 
L 301.936315 192.004155 
L 307.733718 201.568964 
L 313.53112 227.075122 
L 319.328523 131.427029 
L 325.125925 252.581281 
L 330.923328 153.744917 
L 336.720731 77.226442 
L 342.518133 109.10914 
L 348.315536 252.581281 
L 354.112938 214.322043 
L 359.910341 131.427029 
L 365.707744 64.473363 
L 371.505146 105.92087 
L 377.302549 211.133773 
L 383.099951 207.945504 
L 388.897354 246.204741 
L 394.694756 281.275709 
L 400.492159 140.991838 
L 406.289562 99.544331 
L 412.086964 169.686266 
L 417.884367 160.121457 
L 423.681769 195.192424 
L 429.479172 313.158407 
L 435.276575 230.263392 
L 441.073977 316.346677 
L 446.87138 201.568964 
L 452.668782 102.7326 
L 458.466185 70.849902 
L 464.263588 96.356061 
L 470.06099 274.899169 
L 475.858393 207.945504 
L 481.655795 109.10914 
L 487.453198 61.285093 
L 493.250601 99.544331 
L 499.048003 179.251076 
L 504.845406 83.602982 
L 510.642808 258.95782 
L 516.440211 239.828202 
L 522.237614 217.510313 
L 528.035016 115.48568 
L 533.832419 70.849902 
L 539.629821 74.038172 
L 545.427224 118.673949 
L 551.224627 227.075122 
L 557.022029 236.639932 
L 562.819432 156.933187 
L 568.616834 118.673949 
L 574.414237 93.167791 
L 580.21164 89.979521 
L 586.009042 121.862219 
L 591.806445 268.52263 
L 597.603847 195.192424 
L 603.40125 115.48568 
L 609.198653 67.661633 
L 614.996055 99.544331 
L 620.793458 80.414712 
L 626.59086 137.803568 
L 632.388263 306.781867 
L 638.185666 313.158407 
L 643.983068 176.062806 
L 649.780471 64.473363 
L 655.577873 137.803568 
L 661.375276 217.510313 
L 667.172679 230.263392 
L 672.970081 262.14609 
L 678.767484 284.463979 
L 684.564886 153.744917 
" clip-path="url(#p8ed89161c3)" style="fill: none; stroke: #000000; stroke-width: 2; stroke-linecap: square"/>
    <defs>
     <path id="m1585e37891" d="M 0 2 
C 0.530406 2 1.03916 1.789267 1.414214 1.414214 
C 1.789267 1.03916 2 0.530406 2 0 
C 2 -0.530406 1.789267 -1.03916 1.414214 -1.414214 
C 1.03916 -1.789267 0.530406 -2 0 -2 
C -0.530406 -2 -1.03916 -1.789267 -1.414214 -1.414214 
C -1.789267 -1.03916 -2 -0.530406 -2 0 
C -2 0.530406 -1.789267 1.03916 -1.414214 1.414214 
C -1.03916 1.789267 -0.530406 2 0 2 
z
" style="stroke: #000000; stroke-width: 0.75"/>
    </defs>
    <g clip-path="url(#p8ed89161c3)">
     <use xlink:href="#m1585e37891" x="75.837614" y="246.204741" style="stroke: #000000; stroke-width: 0.75"/>
     <use xlink:href="#m1585e37891" x="81.635016" y="243.016471" style="stroke: #000000; stroke-width: 0.75"/>
     <use xlink:href="#m1585e37891" x="87.432419" y="258.95782" style="stroke: #000000; stroke-width: 0.75"/>
     <use xlink:href="#m1585e37891" x="93.229821" y="313.158407" style="stroke: #000000; stroke-width: 0.75"/>
     <use xlink:href="#m1585e37891" x="99.027224" y="335.476295" style="stroke: #000000; stroke-width: 0.75"/>
     <use xlink:href="#m1585e37891" x="104.824627" y="255.769551" style="stroke: #000000; stroke-width: 0.75"/>
     <use xlink:href="#m1585e37891" x="110.622029" y="297.217058" style="stroke: #000000; stroke-width: 0.75"/>
     <use xlink:href="#m1585e37891" x="116.419432" y="160.121457" style="stroke: #000000; stroke-width: 0.75"/>
     <use xlink:href="#m1585e37891" x="122.216834" y="176.062806" style="stroke: #000000; stroke-width: 0.75"/>
     <use xlink:href="#m1585e37891" x="128.014237" y="217.510313" style="stroke: #000000; stroke-width: 0.75"/>
     <use xlink:href="#m1585e37891" x="133.81164" y="258.95782" style="stroke: #000000; stroke-width: 0.75"/>
     <use xlink:href="#m1585e37891" x="139.609042" y="274.899169" style="stroke: #000000; stroke-width: 0.75"/>
     <use xlink:href="#m1585e37891" x="145.406445" y="332.288026" style="stroke: #000000; stroke-width: 0.75"/>
     <use xlink:href="#m1585e37891" x="151.203847" y="236.639932" style="stroke: #000000; stroke-width: 0.75"/>
     <use xlink:href="#m1585e37891" x="157.00125" y="243.016471" style="stroke: #000000; stroke-width: 0.75"/>
     <use xlink:href="#m1585e37891" x="162.798653" y="198.380694" style="stroke: #000000; stroke-width: 0.75"/>
     <use xlink:href="#m1585e37891" x="168.596055" y="207.945504" style="stroke: #000000; stroke-width: 0.75"/>
     <use xlink:href="#m1585e37891" x="174.393458" y="112.29741" style="stroke: #000000; stroke-width: 0.75"/>
     <use xlink:href="#m1585e37891" x="180.19086" y="192.004155" style="stroke: #000000; stroke-width: 0.75"/>
     <use xlink:href="#m1585e37891" x="185.988263" y="281.275709" style="stroke: #000000; stroke-width: 0.75"/>
     <use xlink:href="#m1585e37891" x="191.785666" y="258.95782" style="stroke: #000000; stroke-width: 0.75"/>
     <use xlink:href="#m1585e37891" x="197.583068" y="236.639932" style="stroke: #000000; stroke-width: 0.75"/>
     <use xlink:href="#m1585e37891" x="203.380471" y="169.686266" style="stroke: #000000; stroke-width: 0.75"/>
     <use xlink:href="#m1585e37891" x="209.177873" y="125.050489" style="stroke: #000000; stroke-width: 0.75"/>
     <use xlink:href="#m1585e37891" x="214.975276" y="163.309727" style="stroke: #000000; stroke-width: 0.75"/>
     <use xlink:href="#m1585e37891" x="220.772679" y="176.062806" style="stroke: #000000; stroke-width: 0.75"/>
     <use xlink:href="#m1585e37891" x="226.570081" y="236.639932" style="stroke: #000000; stroke-width: 0.75"/>
     <use xlink:href="#m1585e37891" x="232.367484" y="223.886853" style="stroke: #000000; stroke-width: 0.75"/>
     <use xlink:href="#m1585e37891" x="238.164886" y="70.849902" style="stroke: #000000; stroke-width: 0.75"/>
     <use xlink:href="#m1585e37891" x="243.962289" y="38.967205" style="stroke: #000000; stroke-width: 0.75"/>
     <use xlink:href="#m1585e37891" x="249.759692" y="128.238759" style="stroke: #000000; stroke-width: 0.75"/>
     <use xlink:href="#m1585e37891" x="255.557094" y="220.698583" style="stroke: #000000; stroke-width: 0.75"/>
     <use xlink:href="#m1585e37891" x="261.354497" y="89.979521" style="stroke: #000000; stroke-width: 0.75"/>
     <use xlink:href="#m1585e37891" x="267.151899" y="268.52263" style="stroke: #000000; stroke-width: 0.75"/>
     <use xlink:href="#m1585e37891" x="272.949302" y="179.251076" style="stroke: #000000; stroke-width: 0.75"/>
     <use xlink:href="#m1585e37891" x="278.746705" y="83.602982" style="stroke: #000000; stroke-width: 0.75"/>
     <use xlink:href="#m1585e37891" x="284.544107" y="144.180108" style="stroke: #000000; stroke-width: 0.75"/>
     <use xlink:href="#m1585e37891" x="290.34151" y="115.48568" style="stroke: #000000; stroke-width: 0.75"/>
     <use xlink:href="#m1585e37891" x="296.138912" y="179.251076" style="stroke: #000000; stroke-width: 0.75"/>
     <use xlink:href="#m1585e37891" x="301.936315" y="192.004155" style="stroke: #000000; stroke-width: 0.75"/>
     <use xlink:href="#m1585e37891" x="307.733718" y="201.568964" style="stroke: #000000; stroke-width: 0.75"/>
     <use xlink:href="#m1585e37891" x="313.53112" y="227.075122" style="stroke: #000000; stroke-width: 0.75"/>
     <use xlink:href="#m1585e37891" x="319.328523" y="131.427029" style="stroke: #000000; stroke-width: 0.75"/>
     <use xlink:href="#m1585e37891" x="325.125925" y="252.581281" style="stroke: #000000; stroke-width: 0.75"/>
     <use xlink:href="#m1585e37891" x="330.923328" y="153.744917" style="stroke: #000000; stroke-width: 0.75"/>
     <use xlink:href="#m1585e37891" x="336.720731" y="77.226442" style="stroke: #000000; stroke-width: 0.75"/>
     <use xlink:href="#m1585e37891" x="342.518133" y="109.10914" style="stroke: #000000; stroke-width: 0.75"/>
     <use xlink:href="#m1585e37891" x="348.315536" y="252.581281" style="stroke: #000000; stroke-width: 0.75"/>
     <use xlink:href="#m1585e37891" x="354.112938" y="214.322043" style="stroke: #000000; stroke-width: 0.75"/>
     <use xlink:href="#m1585e37891" x="359.910341" y="131.427029" style="stroke: #000000; stroke-width: 0.75"/>
     <use xlink:href="#m1585e37891" x="365.707744" y="64.473363" style="stroke: #000000; stroke-width: 0.75"/>
     <use xlink:href="#m1585e37891" x="371.505146" y="105.92087" style="stroke: #000000; stroke-width: 0.75"/>
     <use xlink:href="#m1585e37891" x="377.302549" y="211.133773" style="stroke: #000000; stroke-width: 0.75"/>
     <use xlink:href="#m1585e37891" x="383.099951" y="207.945504" style="stroke: #000000; stroke-width: 0.75"/>
     <use xlink:href="#m1585e37891" x="388.897354" y="246.204741" style="stroke: #000000; stroke-width: 0.75"/>
     <use xlink:href="#m1585e37891" x="394.694756" y="281.275709" style="stroke: #000000; stroke-width: 0.75"/>
     <use xlink:href="#m1585e37891" x="400.492159" y="140.991838" style="stroke: #000000; stroke-width: 0.75"/>
     <use xlink:href="#m1585e37891" x="406.289562" y="99.544331" style="stroke: #000000; stroke-width: 0.75"/>
     <use xlink:href="#m1585e37891" x="412.086964" y="169.686266" style="stroke: #000000; stroke-width: 0.75"/>
     <use xlink:href="#m1585e37891" x="417.884367" y="160.121457" style="stroke: #000000; stroke-width: 0.75"/>
     <use xlink:href="#m1585e37891" x="423.681769" y="195.192424" style="stroke: #000000; stroke-width: 0.75"/>
     <use xlink:href="#m1585e37891" x="429.479172" y="313.158407" style="stroke: #000000; stroke-width: 0.75"/>
     <use xlink:href="#m1585e37891" x="435.276575" y="230.263392" style="stroke: #000000; stroke-width: 0.75"/>
     <use xlink:href="#m1585e37891" x="441.073977" y="316.346677" style="stroke: #000000; stroke-width: 0.75"/>
     <use xlink:href="#m1585e37891" x="446.87138" y="201.568964" style="stroke: #000000; stroke-width: 0.75"/>
     <use xlink:href="#m1585e37891" x="452.668782" y="102.7326" style="stroke: #000000; stroke-width: 0.75"/>
     <use xlink:href="#m1585e37891" x="458.466185" y="70.849902" style="stroke: #000000; stroke-width: 0.75"/>
     <use xlink:href="#m1585e37891" x="464.263588" y="96.356061" style="stroke: #000000; stroke-width: 0.75"/>
     <use xlink:href="#m1585e37891" x="470.06099" y="274.899169" style="stroke: #000000; stroke-width: 0.75"/>
     <use xlink:href="#m1585e37891" x="475.858393" y="207.945504" style="stroke: #000000; stroke-width: 0.75"/>
     <use xlink:href="#m1585e37891" x="481.655795" y="109.10914" style="stroke: #000000; stroke-width: 0.75"/>
     <use xlink:href="#m1585e37891" x="487.453198" y="61.285093" style="stroke: #000000; stroke-width: 0.75"/>
     <use xlink:href="#m1585e37891" x="493.250601" y="99.544331" style="stroke: #000000; stroke-width: 0.75"/>
     <use xlink:href="#m1585e37891" x="499.048003" y="179.251076" style="stroke: #000000; stroke-width: 0.75"/>
     <use xlink:href="#m1585e37891" x="504.845406" y="83.602982" style="stroke: #000000; stroke-width: 0.75"/>
     <use xlink:href="#m1585e37891" x="510.642808" y="258.95782" style="stroke: #000000; stroke-width: 0.75"/>
     <use xlink:href="#m1585e37891" x="516.440211" y="239.828202" style="stroke: #000000; stroke-width: 0.75"/>
     <use xlink:href="#m1585e37891" x="522.237614" y="217.510313" style="stroke: #000000; stroke-width: 0.75"/>
     <use xlink:href="#m1585e37891" x="528.035016" y="115.48568" style="stroke: #000000; stroke-width: 0.75"/>
     <use xlink:href="#m1585e37891" x="533.832419" y="70.849902" style="stroke: #000000; stroke-width: 0.75"/>
     <use xlink:href="#m1585e37891" x="539.629821" y="74.038172" style="stroke: #000000; stroke-width: 0.75"/>
     <use xlink:href="#m1585e37891" x="545.427224" y="118.673949" style="stroke: #000000; stroke-width: 0.75"/>
     <use xlink:href="#m1585e37891" x="551.224627" y="227.075122" style="stroke: #000000; stroke-width: 0.75"/>
     <use xlink:href="#m1585e37891" x="557.022029" y="236.639932" style="stroke: #000000; stroke-width: 0.75"/>
     <use xlink:href="#m1585e37891" x="562.819432" y="156.933187" style="stroke: #000000; stroke-width: 0.75"/>
     <use xlink:href="#m1585e37891" x="568.616834" y="118.673949" style="stroke: #000000; stroke-width: 0.75"/>
     <use xlink:href="#m1585e37891" x="574.414237" y="93.167791" style="stroke: #000000; stroke-width: 0.75"/>
     <use xlink:href="#m1585e37891" x="580.21164" y="89.979521" style="stroke: #000000; stroke-width: 0.75"/>
     <use xlink:href="#m1585e37891" x="586.009042" y="121.862219" style="stroke: #000000; stroke-width: 0.75"/>
     <use xlink:href="#m1585e37891" x="591.806445" y="268.52263" style="stroke: #000000; stroke-width: 0.75"/>
     <use xlink:href="#m1585e37891" x="597.603847" y="195.192424" style="stroke: #000000; stroke-width: 0.75"/>
     <use xlink:href="#m1585e37891" x="603.40125" y="115.48568" style="stroke: #000000; stroke-width: 0.75"/>
     <use xlink:href="#m1585e37891" x="609.198653" y="67.661633" style="stroke: #000000; stroke-width: 0.75"/>
     <use xlink:href="#m1585e37891" x="614.996055" y="99.544331" style="stroke: #000000; stroke-width: 0.75"/>
     <use xlink:href="#m1585e37891" x="620.793458" y="80.414712" style="stroke: #000000; stroke-width: 0.75"/>
     <use xlink:href="#m1585e37891" x="626.59086" y="137.803568" style="stroke: #000000; stroke-width: 0.75"/>
     <use xlink:href="#m1585e37891" x="632.388263" y="306.781867" style="stroke: #000000; stroke-width: 0.75"/>
     <use xlink:href="#m1585e37891" x="638.185666" y="313.158407" style="stroke: #000000; stroke-width: 0.75"/>
     <use xlink:href="#m1585e37891" x="643.983068" y="176.062806" style="stroke: #000000; stroke-width: 0.75"/>
     <use xlink:href="#m1585e37891" x="649.780471" y="64.473363" style="stroke: #000000; stroke-width: 0.75"/>
     <use xlink:href="#m1585e37891" x="655.577873" y="137.803568" style="stroke: #000000; stroke-width: 0.75"/>
     <use xlink:href="#m1585e37891" x="661.375276" y="217.510313" style="stroke: #000000; stroke-width: 0.75"/>
     <use xlink:href="#m1585e37891" x="667.172679" y="230.263392" style="stroke: #000000; stroke-width: 0.75"/>
     <use xlink:href="#m1585e37891" x="672.970081" y="262.14609" style="stroke: #000000; stroke-width: 0.75"/>
     <use xlink:href="#m1585e37891" x="678.767484" y="284.463979" style="stroke: #000000; stroke-width: 0.75"/>
     <use xlink:href="#m1585e37891" x="684.564886" y="153.744917" style="stroke: #000000; stroke-width: 0.75"/>
    </g>
   </g>
   <g id="patch_3">
    <path d="M 45.40125 350.30175 
L 45.40125 24.14175 
" style="fill: none; stroke: #bcbcbc; stroke-width: 0.8; stroke-linejoin: miter; stroke-linecap: square"/>
   </g>
   <g id="patch_4">
    <path d="M 715.00125 350.30175 
L 715.00125 24.14175 
" style="fill: none; stroke: #bcbcbc; stroke-width: 0.8; stroke-linejoin: miter; stroke-linecap: square"/>
   </g>
   <g id="patch_5">
    <path d="M 45.40125 350.30175 
L 715.00125 350.30175 
" style="fill: none; stroke: #bcbcbc; stroke-width: 0.8; stroke-linejoin: miter; stroke-linecap: square"/>
   </g>
   <g id="patch_6">
    <path d="M 45.40125 24.14175 
L 715.00125 24.14175 
" style="fill: none; stroke: #bcbcbc; stroke-width: 0.8; stroke-linejoin: miter; stroke-linecap: square"/>
   </g>
   <g id="text_16">
    <!-- Sales (Training Set) -->
    <g transform="translate(310.61325 18.14175)scale(0.144 -0.144)">
     <defs>
      <path id="DejaVuSans-53" d="M 3425 4513 
L 3425 3897 
Q 3066 4069 2747 4153 
Q 2428 4238 2131 4238 
Q 1616 4238 1336 4038 
Q 1056 3838 1056 3469 
Q 1056 3159 1242 3001 
Q 1428 2844 1947 2747 
L 2328 2669 
Q 3034 2534 3370 2195 
Q 3706 1856 3706 1288 
Q 3706 609 3251 259 
Q 2797 -91 1919 -91 
Q 1588 -91 1214 -16 
Q 841 59 441 206 
L 441 856 
Q 825 641 1194 531 
Q 1563 422 1919 422 
Q 2459 422 2753 634 
Q 3047 847 3047 1241 
Q 3047 1584 2836 1778 
Q 2625 1972 2144 2069 
L 1759 2144 
Q 1053 2284 737 2584 
Q 422 2884 422 3419 
Q 422 4038 858 4394 
Q 1294 4750 2059 4750 
Q 2388 4750 2728 4690 
Q 3069 4631 3425 4513 
z
" transform="scale(0.015625)"/>
      <path id="DejaVuSans-20" transform="scale(0.015625)"/>
      <path id="DejaVuSans-28" d="M 1984 4856 
Q 1566 4138 1362 3434 
Q 1159 2731 1159 2009 
Q 1159 1288 1364 580 
Q 1569 -128 1984 -844 
L 1484 -844 
Q 1016 -109 783 600 
Q 550 1309 550 2009 
Q 550 2706 781 3412 
Q 1013 4119 1484 4856 
L 1984 4856 
z
" transform="scale(0.015625)"/>
      <path id="DejaVuSans-54" d="M -19 4666 
L 3928 4666 
L 3928 4134 
L 2272 4134 
L 2272 0 
L 1638 0 
L 1638 4134 
L -19 4134 
L -19 4666 
z
" transform="scale(0.015625)"/>
      <path id="DejaVuSans-72" d="M 2631 2963 
Q 2534 3019 2420 3045 
Q 2306 3072 2169 3072 
Q 1681 3072 1420 2755 
Q 1159 2438 1159 1844 
L 1159 0 
L 581 0 
L 581 3500 
L 1159 3500 
L 1159 2956 
Q 1341 3275 1631 3429 
Q 1922 3584 2338 3584 
Q 2397 3584 2469 3576 
Q 2541 3569 2628 3553 
L 2631 2963 
z
" transform="scale(0.015625)"/>
      <path id="DejaVuSans-69" d="M 603 3500 
L 1178 3500 
L 1178 0 
L 603 0 
L 603 3500 
z
M 603 4863 
L 1178 4863 
L 1178 4134 
L 603 4134 
L 603 4863 
z
" transform="scale(0.015625)"/>
      <path id="DejaVuSans-6e" d="M 3513 2113 
L 3513 0 
L 2938 0 
L 2938 2094 
Q 2938 2591 2744 2837 
Q 2550 3084 2163 3084 
Q 1697 3084 1428 2787 
Q 1159 2491 1159 1978 
L 1159 0 
L 581 0 
L 581 3500 
L 1159 3500 
L 1159 2956 
Q 1366 3272 1645 3428 
Q 1925 3584 2291 3584 
Q 2894 3584 3203 3211 
Q 3513 2838 3513 2113 
z
" transform="scale(0.015625)"/>
      <path id="DejaVuSans-67" d="M 2906 1791 
Q 2906 2416 2648 2759 
Q 2391 3103 1925 3103 
Q 1463 3103 1205 2759 
Q 947 2416 947 1791 
Q 947 1169 1205 825 
Q 1463 481 1925 481 
Q 2391 481 2648 825 
Q 2906 1169 2906 1791 
z
M 3481 434 
Q 3481 -459 3084 -895 
Q 2688 -1331 1869 -1331 
Q 1566 -1331 1297 -1286 
Q 1028 -1241 775 -1147 
L 775 -588 
Q 1028 -725 1275 -790 
Q 1522 -856 1778 -856 
Q 2344 -856 2625 -561 
Q 2906 -266 2906 331 
L 2906 616 
Q 2728 306 2450 153 
Q 2172 0 1784 0 
Q 1141 0 747 490 
Q 353 981 353 1791 
Q 353 2603 747 3093 
Q 1141 3584 1784 3584 
Q 2172 3584 2450 3431 
Q 2728 3278 2906 2969 
L 2906 3500 
L 3481 3500 
L 3481 434 
z
" transform="scale(0.015625)"/>
      <path id="DejaVuSans-29" d="M 513 4856 
L 1013 4856 
Q 1481 4119 1714 3412 
Q 1947 2706 1947 2009 
Q 1947 1309 1714 600 
Q 1481 -109 1013 -844 
L 513 -844 
Q 928 -128 1133 580 
Q 1338 1288 1338 2009 
Q 1338 2731 1133 3434 
Q 928 4138 513 4856 
z
" transform="scale(0.015625)"/>
     </defs>
     <use xlink:href="#DejaVuSans-53"/>
     <use xlink:href="#DejaVuSans-61" x="63.476562"/>
     <use xlink:href="#DejaVuSans-6c" x="124.755859"/>
     <use xlink:href="#DejaVuSans-65" x="152.539062"/>
     <use xlink:href="#DejaVuSans-73" x="214.0625"/>
     <use xlink:href="#DejaVuSans-20" x="266.162109"/>
     <use xlink:href="#DejaVuSans-28" x="297.949219"/>
     <use xlink:href="#DejaVuSans-54" x="336.962891"/>
     <use xlink:href="#DejaVuSans-72" x="383.296875"/>
     <use xlink:href="#DejaVuSans-61" x="424.410156"/>
     <use xlink:href="#DejaVuSans-69" x="485.689453"/>
     <use xlink:href="#DejaVuSans-6e" x="513.472656"/>
     <use xlink:href="#DejaVuSans-69" x="576.851562"/>
     <use xlink:href="#DejaVuSans-6e" x="604.634766"/>
     <use xlink:href="#DejaVuSans-67" x="668.013672"/>
     <use xlink:href="#DejaVuSans-20" x="731.490234"/>
     <use xlink:href="#DejaVuSans-53" x="763.277344"/>
     <use xlink:href="#DejaVuSans-65" x="826.753906"/>
     <use xlink:href="#DejaVuSans-74" x="888.277344"/>
     <use xlink:href="#DejaVuSans-29" x="927.486328"/>
    </g>
   </g>
  </g>
 </g>
 <defs>
  <clipPath id="p8ed89161c3">
   <rect x="45.40125" y="24.14175" width="669.6" height="326.16"/>
  </clipPath>
 </defs>
</svg>
