<?xml version="1.0" encoding="UTF-8" standalone="no"?>
<!DOCTYPE svg PUBLIC "-//W3C//DTD SVG 1.1//EN"
 "http://www.w3.org/Graphics/SVG/1.1/DTD/svg11.dtd">
<!-- Generated by graphviz version 8.0.5 (20230430.1635)
 -->
<!-- Pages: 1 -->
<svg width="1345pt" height="696pt"
 viewBox="0.00 0.00 1344.98 695.97" xmlns="http://www.w3.org/2000/svg" xmlns:xlink="http://www.w3.org/1999/xlink">
<g id="graph0" class="graph" transform="scale(1 1) rotate(0) translate(4 691.97)">
<polygon fill="white" stroke="none" points="-4,4 -4,-691.97 1340.98,-691.97 1340.98,4 -4,4"/>
<g id="clust1" class="cluster">
<title>clusterdate (106)</title>
<path fill="none" stroke="black" d="M316.98,-8C316.98,-8 734.98,-8 734.98,-8 740.98,-8 746.98,-14 746.98,-20 746.98,-20 746.98,-656.06 746.98,-656.06 746.98,-662.06 740.98,-668.06 734.98,-668.06 734.98,-668.06 316.98,-668.06 316.98,-668.06 310.98,-668.06 304.98,-662.06 304.98,-656.06 304.98,-656.06 304.98,-20 304.98,-20 304.98,-14 310.98,-8 316.98,-8"/>
<text text-anchor="middle" x="711.23" y="-15.2" font-family="Times,serif" font-size="14.00">date (106)</text>
</g>
<g id="clust2" class="cluster">
<title>clusterfourier_features (12) x date (106)</title>
<path fill="none" stroke="black" d="M766.98,-570.06C766.98,-570.06 940.98,-570.06 940.98,-570.06 946.98,-570.06 952.98,-576.06 952.98,-582.06 952.98,-582.06 952.98,-656.06 952.98,-656.06 952.98,-662.06 946.98,-668.06 940.98,-668.06 940.98,-668.06 766.98,-668.06 766.98,-668.06 760.98,-668.06 754.98,-662.06 754.98,-656.06 754.98,-656.06 754.98,-582.06 754.98,-582.06 754.98,-576.06 760.98,-570.06 766.98,-570.06"/>
<text text-anchor="middle" x="853.86" y="-577.26" font-family="Times,serif" font-size="14.00">fourier_features (12) x date (106)</text>
</g>
<g id="clust3" class="cluster">
<title>clusterfourier_features (12)</title>
<path fill="none" stroke="black" d="M1062.98,-558.15C1062.98,-558.15 1166.98,-558.15 1166.98,-558.15 1172.98,-558.15 1178.98,-564.15 1178.98,-570.15 1178.98,-570.15 1178.98,-667.97 1178.98,-667.97 1178.98,-673.97 1172.98,-679.97 1166.98,-679.97 1166.98,-679.97 1062.98,-679.97 1062.98,-679.97 1056.98,-679.97 1050.98,-673.97 1050.98,-667.97 1050.98,-667.97 1050.98,-570.15 1050.98,-570.15 1050.98,-564.15 1056.98,-558.15 1062.98,-558.15"/>
<text text-anchor="middle" x="1114.73" y="-565.35" font-family="Times,serif" font-size="14.00">fourier_features (12)</text>
</g>
<g id="clust4" class="cluster">
<title>clusterdayofweek (7)</title>
<path fill="none" stroke="black" d="M1198.98,-558.15C1198.98,-558.15 1316.98,-558.15 1316.98,-558.15 1322.98,-558.15 1328.98,-564.15 1328.98,-570.15 1328.98,-570.15 1328.98,-667.97 1328.98,-667.97 1328.98,-673.97 1322.98,-679.97 1316.98,-679.97 1316.98,-679.97 1198.98,-679.97 1198.98,-679.97 1192.98,-679.97 1186.98,-673.97 1186.98,-667.97 1186.98,-667.97 1186.98,-570.15 1186.98,-570.15 1186.98,-564.15 1192.98,-558.15 1198.98,-558.15"/>
<text text-anchor="middle" x="1281.61" y="-565.35" font-family="Times,serif" font-size="14.00">dayofweek (7)</text>
</g>
<!-- mu0 -->
<g id="node1" class="node">
<title>mu0</title>
<path fill="lightgrey" stroke="black" d="M514.61,-444.74C514.61,-444.74 451.36,-444.74 451.36,-444.74 445.36,-444.74 439.36,-438.74 439.36,-432.74 439.36,-432.74 439.36,-399.24 439.36,-399.24 439.36,-393.24 445.36,-387.24 451.36,-387.24 451.36,-387.24 514.61,-387.24 514.61,-387.24 520.61,-387.24 526.61,-393.24 526.61,-399.24 526.61,-399.24 526.61,-432.74 526.61,-432.74 526.61,-438.74 520.61,-444.74 514.61,-444.74"/>
<text text-anchor="middle" x="482.98" y="-427.44" font-family="Times,serif" font-size="14.00">mu0</text>
<text text-anchor="middle" x="482.98" y="-410.94" font-family="Times,serif" font-size="14.00">~</text>
<text text-anchor="middle" x="482.98" y="-394.44" font-family="Times,serif" font-size="14.00">MutableData</text>
</g>
<!-- mu -->
<g id="node10" class="node">
<title>mu</title>
<polygon fill="none" stroke="black" points="421.11,-324.08 330.86,-324.08 330.86,-266.58 421.11,-266.58 421.11,-324.08"/>
<text text-anchor="middle" x="375.98" y="-306.78" font-family="Times,serif" font-size="14.00">mu</text>
<text text-anchor="middle" x="375.98" y="-290.28" font-family="Times,serif" font-size="14.00">~</text>
<text text-anchor="middle" x="375.98" y="-273.78" font-family="Times,serif" font-size="14.00">Deterministic</text>
</g>
<!-- mu0&#45;&gt;mu -->
<g id="edge13" class="edge">
<title>mu0&#45;&gt;mu</title>
<path fill="none" stroke="black" d="M457.63,-386.87C442.83,-370.47 424.03,-349.61 408.2,-332.05"/>
<polygon fill="black" stroke="black" points="411.45,-330.33 402.16,-325.25 406.26,-335.02 411.45,-330.33"/>
</g>
<!-- fourier_contribution -->
<g id="node2" class="node">
<title>fourier_contribution</title>
<polygon fill="none" stroke="black" points="738.73,-550.15 613.23,-550.15 613.23,-492.65 738.73,-492.65 738.73,-550.15"/>
<text text-anchor="middle" x="675.98" y="-532.85" font-family="Times,serif" font-size="14.00">fourier_contribution</text>
<text text-anchor="middle" x="675.98" y="-516.35" font-family="Times,serif" font-size="14.00">~</text>
<text text-anchor="middle" x="675.98" y="-499.85" font-family="Times,serif" font-size="14.00">Deterministic</text>
</g>
<!-- seasonality -->
<g id="node9" class="node">
<title>seasonality</title>
<polygon fill="none" stroke="black" points="421.11,-444.74 330.86,-444.74 330.86,-387.24 421.11,-387.24 421.11,-444.74"/>
<text text-anchor="middle" x="375.98" y="-427.44" font-family="Times,serif" font-size="14.00">seasonality</text>
<text text-anchor="middle" x="375.98" y="-410.94" font-family="Times,serif" font-size="14.00">~</text>
<text text-anchor="middle" x="375.98" y="-394.44" font-family="Times,serif" font-size="14.00">Deterministic</text>
</g>
<!-- fourier_contribution&#45;&gt;seasonality -->
<g id="edge11" class="edge">
<title>fourier_contribution&#45;&gt;seasonality</title>
<path fill="none" stroke="black" d="M612.97,-495.44C609.94,-494.46 606.94,-493.52 603.98,-492.65 528.22,-470.38 502.13,-488.76 429.98,-456.65 426.31,-455.02 422.65,-453.1 419.06,-451.01"/>
<polygon fill="black" stroke="black" points="421.1,-447.53 410.77,-445.15 417.36,-453.45 421.1,-447.53"/>
</g>
<!-- trend -->
<g id="node3" class="node">
<title>trend</title>
<path fill="lightgrey" stroke="black" d="M402.61,-660.06C402.61,-660.06 339.36,-660.06 339.36,-660.06 333.36,-660.06 327.36,-654.06 327.36,-648.06 327.36,-648.06 327.36,-614.56 327.36,-614.56 327.36,-608.56 333.36,-602.56 339.36,-602.56 339.36,-602.56 402.61,-602.56 402.61,-602.56 408.61,-602.56 414.61,-608.56 414.61,-614.56 414.61,-614.56 414.61,-648.06 414.61,-648.06 414.61,-654.06 408.61,-660.06 402.61,-660.06"/>
<text text-anchor="middle" x="370.98" y="-642.76" font-family="Times,serif" font-size="14.00">trend</text>
<text text-anchor="middle" x="370.98" y="-626.26" font-family="Times,serif" font-size="14.00">~</text>
<text text-anchor="middle" x="370.98" y="-609.76" font-family="Times,serif" font-size="14.00">MutableData</text>
</g>
<!-- trend_contribution -->
<g id="node8" class="node">
<title>trend_contribution</title>
<polygon fill="none" stroke="black" points="429.23,-550.15 312.73,-550.15 312.73,-492.65 429.23,-492.65 429.23,-550.15"/>
<text text-anchor="middle" x="370.98" y="-532.85" font-family="Times,serif" font-size="14.00">trend_contribution</text>
<text text-anchor="middle" x="370.98" y="-516.35" font-family="Times,serif" font-size="14.00">~</text>
<text text-anchor="middle" x="370.98" y="-499.85" font-family="Times,serif" font-size="14.00">Deterministic</text>
</g>
<!-- trend&#45;&gt;trend_contribution -->
<g id="edge9" class="edge">
<title>trend&#45;&gt;trend_contribution</title>
<path fill="none" stroke="black" d="M370.98,-602.24C370.98,-589.75 370.98,-574.84 370.98,-561.3"/>
<polygon fill="black" stroke="black" points="374.48,-561.33 370.98,-551.33 367.48,-561.33 374.48,-561.33"/>
</g>
<!-- sales -->
<g id="node4" class="node">
<title>sales</title>
<path fill="lightgrey" stroke="black" d="M448.61,-98C448.61,-98 385.36,-98 385.36,-98 379.36,-98 373.36,-92 373.36,-86 373.36,-86 373.36,-52.5 373.36,-52.5 373.36,-46.5 379.36,-40.5 385.36,-40.5 385.36,-40.5 448.61,-40.5 448.61,-40.5 454.61,-40.5 460.61,-46.5 460.61,-52.5 460.61,-52.5 460.61,-86 460.61,-86 460.61,-92 454.61,-98 448.61,-98"/>
<text text-anchor="middle" x="416.98" y="-80.7" font-family="Times,serif" font-size="14.00">sales</text>
<text text-anchor="middle" x="416.98" y="-64.2" font-family="Times,serif" font-size="14.00">~</text>
<text text-anchor="middle" x="416.98" y="-47.7" font-family="Times,serif" font-size="14.00">MutableData</text>
</g>
<!-- sales&#45;&gt;mu -->
<g id="edge17" class="edge">
<title>sales&#45;&gt;mu</title>
<path fill="none" stroke="black" d="M434.08,-98.42C439.67,-109.16 445.17,-121.77 447.98,-134 456.09,-169.22 461.04,-181.62 447.98,-215.32 441.77,-231.36 430.62,-246.14 418.91,-258.48"/>
<polygon fill="black" stroke="black" points="416.78,-255.66 412.19,-265.21 421.73,-260.61 416.78,-255.66"/>
</g>
<!-- dayofweek_data -->
<g id="node5" class="node">
<title>dayofweek_data</title>
<path fill="lightgrey" stroke="black" d="M561.23,-660.06C561.23,-660.06 480.73,-660.06 480.73,-660.06 474.73,-660.06 468.73,-654.06 468.73,-648.06 468.73,-648.06 468.73,-614.56 468.73,-614.56 468.73,-608.56 474.73,-602.56 480.73,-602.56 480.73,-602.56 561.23,-602.56 561.23,-602.56 567.23,-602.56 573.23,-608.56 573.23,-614.56 573.23,-614.56 573.23,-648.06 573.23,-648.06 573.23,-654.06 567.23,-660.06 561.23,-660.06"/>
<text text-anchor="middle" x="520.98" y="-642.76" font-family="Times,serif" font-size="14.00">dayofweek_data</text>
<text text-anchor="middle" x="520.98" y="-626.26" font-family="Times,serif" font-size="14.00">~</text>
<text text-anchor="middle" x="520.98" y="-609.76" font-family="Times,serif" font-size="14.00">MutableData</text>
</g>
<!-- dayofweek_contribution -->
<g id="node7" class="node">
<title>dayofweek_contribution</title>
<polygon fill="none" stroke="black" points="594.98,-550.15 446.98,-550.15 446.98,-492.65 594.98,-492.65 594.98,-550.15"/>
<text text-anchor="middle" x="520.98" y="-532.85" font-family="Times,serif" font-size="14.00">dayofweek_contribution</text>
<text text-anchor="middle" x="520.98" y="-516.35" font-family="Times,serif" font-size="14.00">~</text>
<text text-anchor="middle" x="520.98" y="-499.85" font-family="Times,serif" font-size="14.00">Deterministic</text>
</g>
<!-- dayofweek_data&#45;&gt;dayofweek_contribution -->
<g id="edge6" class="edge">
<title>dayofweek_data&#45;&gt;dayofweek_contribution</title>
<path fill="none" stroke="black" d="M520.98,-602.24C520.98,-589.75 520.98,-574.84 520.98,-561.3"/>
<polygon fill="black" stroke="black" points="524.48,-561.33 520.98,-551.33 517.48,-561.33 524.48,-561.33"/>
</g>
<!-- likelihood -->
<g id="node6" class="node">
<title>likelihood</title>
<ellipse fill="lightgrey" stroke="black" cx="375.98" cy="-174.66" rx="63.29" ry="40.66"/>
<text text-anchor="middle" x="375.98" y="-186.11" font-family="Times,serif" font-size="14.00">likelihood</text>
<text text-anchor="middle" x="375.98" y="-169.61" font-family="Times,serif" font-size="14.00">~</text>
<text text-anchor="middle" x="375.98" y="-153.11" font-family="Times,serif" font-size="14.00">NegBinomial</text>
</g>
<!-- likelihood&#45;&gt;sales -->
<g id="edge1" class="edge">
<title>likelihood&#45;&gt;sales</title>
<path fill="none" stroke="black" d="M391.37,-134.86C394.79,-126.22 398.42,-117.07 401.83,-108.46"/>
<polygon fill="black" stroke="black" points="405.43,-109.87 405.87,-99.29 398.93,-107.29 405.43,-109.87"/>
</g>
<!-- dayofweek_contribution&#45;&gt;seasonality -->
<g id="edge10" class="edge">
<title>dayofweek_contribution&#45;&gt;seasonality</title>
<path fill="none" stroke="black" d="M480.53,-492.35C464.71,-481.3 446.44,-468.46 429.98,-456.65 427.63,-454.96 425.22,-453.23 422.79,-451.47"/>
<polygon fill="black" stroke="black" points="425.11,-448.1 414.96,-445.05 420.99,-453.76 425.11,-448.1"/>
</g>
<!-- trend_contribution&#45;&gt;seasonality -->
<g id="edge12" class="edge">
<title>trend_contribution&#45;&gt;seasonality</title>
<path fill="none" stroke="black" d="M372.34,-492.42C372.88,-481.15 373.52,-467.97 374.11,-455.8"/>
<polygon fill="black" stroke="black" points="377.64,-456.16 374.63,-446 370.65,-455.82 377.64,-456.16"/>
</g>
<!-- seasonality&#45;&gt;mu -->
<g id="edge14" class="edge">
<title>seasonality&#45;&gt;mu</title>
<path fill="none" stroke="black" d="M375.98,-386.87C375.98,-371.35 375.98,-351.85 375.98,-334.93"/>
<polygon fill="black" stroke="black" points="379.48,-335.25 375.98,-325.25 372.48,-335.25 379.48,-335.25"/>
</g>
<!-- mu&#45;&gt;likelihood -->
<g id="edge20" class="edge">
<title>mu&#45;&gt;likelihood</title>
<path fill="none" stroke="black" d="M375.98,-266.2C375.98,-254.31 375.98,-240.07 375.98,-226.44"/>
<polygon fill="black" stroke="black" points="379.48,-226.7 375.98,-216.7 372.48,-226.7 379.48,-226.7"/>
</g>
<!-- fourier_features_data -->
<g id="node11" class="node">
<title>fourier_features_data</title>
<path fill="lightgrey" stroke="black" d="M882.73,-660.06C882.73,-660.06 775.23,-660.06 775.23,-660.06 769.23,-660.06 763.23,-654.06 763.23,-648.06 763.23,-648.06 763.23,-614.56 763.23,-614.56 763.23,-608.56 769.23,-602.56 775.23,-602.56 775.23,-602.56 882.73,-602.56 882.73,-602.56 888.73,-602.56 894.73,-608.56 894.73,-614.56 894.73,-614.56 894.73,-648.06 894.73,-648.06 894.73,-654.06 888.73,-660.06 882.73,-660.06"/>
<text text-anchor="middle" x="828.98" y="-642.76" font-family="Times,serif" font-size="14.00">fourier_features_data</text>
<text text-anchor="middle" x="828.98" y="-626.26" font-family="Times,serif" font-size="14.00">~</text>
<text text-anchor="middle" x="828.98" y="-609.76" font-family="Times,serif" font-size="14.00">MutableData</text>
</g>
<!-- fourier_features_data&#45;&gt;fourier_contribution -->
<g id="edge4" class="edge">
<title>fourier_features_data&#45;&gt;fourier_contribution</title>
<path fill="none" stroke="black" d="M802.56,-602.08C788.2,-587.76 769.61,-570.78 750.98,-558.15 750,-557.48 749,-556.82 747.99,-556.17"/>
<polygon fill="black" stroke="black" points="749.96,-552.66 739.6,-550.44 746.31,-558.64 749.96,-552.66"/>
</g>
<!-- alpha -->
<g id="node12" class="node">
<title>alpha</title>
<polygon fill="none" stroke="black" points="141.11,-324.08 50.86,-324.08 50.86,-266.58 141.11,-266.58 141.11,-324.08"/>
<text text-anchor="middle" x="95.98" y="-306.78" font-family="Times,serif" font-size="14.00">alpha</text>
<text text-anchor="middle" x="95.98" y="-290.28" font-family="Times,serif" font-size="14.00">~</text>
<text text-anchor="middle" x="95.98" y="-273.78" font-family="Times,serif" font-size="14.00">Deterministic</text>
</g>
<!-- alpha&#45;&gt;likelihood -->
<g id="edge19" class="edge">
<title>alpha&#45;&gt;likelihood</title>
<path fill="none" stroke="black" d="M129.77,-266.08C137.13,-260.72 145.09,-255.49 152.98,-251.32 201.82,-225.47 261.26,-205.83 306.48,-193.04"/>
<polygon fill="black" stroke="black" points="307.37,-196.15 316.07,-190.1 305.5,-189.4 307.37,-196.15"/>
</g>
<!-- constrain -->
<g id="node13" class="node">
<title>constrain</title>
<polygon fill="lightgrey" stroke="black" points="262.11,-277.1 262.11,-313.55 232.75,-339.33 191.22,-339.33 161.85,-313.55 161.85,-277.1 191.22,-251.32 232.75,-251.32 262.11,-277.1"/>
<text text-anchor="middle" x="211.98" y="-306.78" font-family="Times,serif" font-size="14.00">constrain</text>
<text text-anchor="middle" x="211.98" y="-290.28" font-family="Times,serif" font-size="14.00">~</text>
<text text-anchor="middle" x="211.98" y="-273.78" font-family="Times,serif" font-size="14.00">Potential</text>
</g>
<!-- alpha_inv -->
<g id="node14" class="node">
<title>alpha_inv</title>
<ellipse fill="none" stroke="black" cx="57.98" cy="-415.99" rx="57.98" ry="40.66"/>
<text text-anchor="middle" x="57.98" y="-427.44" font-family="Times,serif" font-size="14.00">alpha_inv</text>
<text text-anchor="middle" x="57.98" y="-410.94" font-family="Times,serif" font-size="14.00">~</text>
<text text-anchor="middle" x="57.98" y="-394.44" font-family="Times,serif" font-size="14.00">HalfNormal</text>
</g>
<!-- alpha_inv&#45;&gt;alpha -->
<g id="edge18" class="edge">
<title>alpha_inv&#45;&gt;alpha</title>
<path fill="none" stroke="black" d="M70.53,-375.81C74.76,-362.6 79.48,-347.87 83.69,-334.72"/>
<polygon fill="black" stroke="black" points="87.22,-336.17 86.94,-325.58 80.55,-334.03 87.22,-336.17"/>
</g>
<!-- delta -->
<g id="node15" class="node">
<title>delta</title>
<ellipse fill="none" stroke="black" cx="266.98" cy="-415.99" rx="29.88" ry="40.66"/>
<text text-anchor="middle" x="266.98" y="-427.44" font-family="Times,serif" font-size="14.00">delta</text>
<text text-anchor="middle" x="266.98" y="-410.94" font-family="Times,serif" font-size="14.00">~</text>
<text text-anchor="middle" x="266.98" y="-394.44" font-family="Times,serif" font-size="14.00">Beta</text>
</g>
<!-- delta&#45;&gt;mu -->
<g id="edge15" class="edge">
<title>delta&#45;&gt;mu</title>
<path fill="none" stroke="black" d="M289.48,-388.38C293.28,-383.99 297.22,-379.51 300.98,-375.33 313.9,-361.01 328.43,-345.56 341.24,-332.16"/>
<polygon fill="black" stroke="black" points="343.16,-335.17 347.55,-325.52 338.11,-330.32 343.16,-335.17"/>
</g>
<!-- delta&#45;&gt;constrain -->
<g id="edge3" class="edge">
<title>delta&#45;&gt;constrain</title>
<path fill="none" stroke="black" d="M251.22,-380.99C246.65,-371.13 241.55,-360.12 236.58,-349.39"/>
<polygon fill="black" stroke="black" points="239.45,-348.26 232.07,-340.66 233.1,-351.2 239.45,-348.26"/>
</g>
<!-- b_trend -->
<g id="node16" class="node">
<title>b_trend</title>
<ellipse fill="none" stroke="black" cx="1001.98" cy="-631.31" rx="41.01" ry="40.66"/>
<text text-anchor="middle" x="1001.98" y="-642.76" font-family="Times,serif" font-size="14.00">b_trend</text>
<text text-anchor="middle" x="1001.98" y="-626.26" font-family="Times,serif" font-size="14.00">~</text>
<text text-anchor="middle" x="1001.98" y="-609.76" font-family="Times,serif" font-size="14.00">Normal</text>
</g>
<!-- b_trend&#45;&gt;trend_contribution -->
<g id="edge8" class="edge">
<title>b_trend&#45;&gt;trend_contribution</title>
<path fill="none" stroke="black" d="M987.77,-592.95C980.67,-579.54 970.61,-565.85 956.98,-558.15 933.35,-544.8 519.28,-554.68 440.12,-549.26"/>
<polygon fill="black" stroke="black" points="440.74,-545.7 430.41,-548.06 439.96,-552.65 440.74,-545.7"/>
</g>
<!-- eta -->
<g id="node17" class="node">
<title>eta</title>
<ellipse fill="none" stroke="black" cx="176.98" cy="-415.99" rx="42.6" ry="40.66"/>
<text text-anchor="middle" x="176.98" y="-427.44" font-family="Times,serif" font-size="14.00">eta</text>
<text text-anchor="middle" x="176.98" y="-410.94" font-family="Times,serif" font-size="14.00">~</text>
<text text-anchor="middle" x="176.98" y="-394.44" font-family="Times,serif" font-size="14.00">Gamma</text>
</g>
<!-- eta&#45;&gt;mu -->
<g id="edge16" class="edge">
<title>eta&#45;&gt;mu</title>
<path fill="none" stroke="black" d="M209.02,-388.75C215.18,-384.09 221.68,-379.43 227.98,-375.33 257.6,-356.12 292.35,-337.38 320.73,-322.99"/>
<polygon fill="black" stroke="black" points="322.12,-325.7 329.48,-318.08 318.98,-319.45 322.12,-325.7"/>
</g>
<!-- eta&#45;&gt;constrain -->
<g id="edge2" class="edge">
<title>eta&#45;&gt;constrain</title>
<path fill="none" stroke="black" d="M188.35,-376.47C190.84,-368 193.53,-358.89 196.17,-349.95"/>
<polygon fill="black" stroke="black" points="199.75,-351.18 199.22,-340.59 193.04,-349.2 199.75,-351.18"/>
</g>
<!-- b_fourier -->
<g id="node18" class="node">
<title>b_fourier</title>
<ellipse fill="none" stroke="black" cx="1107.98" cy="-631.31" rx="46.85" ry="40.66"/>
<text text-anchor="middle" x="1107.98" y="-642.76" font-family="Times,serif" font-size="14.00">b_fourier</text>
<text text-anchor="middle" x="1107.98" y="-626.26" font-family="Times,serif" font-size="14.00">~</text>
<text text-anchor="middle" x="1107.98" y="-609.76" font-family="Times,serif" font-size="14.00">Normal</text>
</g>
<!-- b_fourier&#45;&gt;fourier_contribution -->
<g id="edge5" class="edge">
<title>b_fourier&#45;&gt;fourier_contribution</title>
<path fill="none" stroke="black" d="M1088.52,-594.12C1079.3,-580.54 1066.99,-566.4 1051.98,-558.15 1001.69,-530.49 844.34,-523.94 749.88,-522.57"/>
<polygon fill="black" stroke="black" points="750.01,-519.06 739.97,-522.43 749.92,-526.06 750.01,-519.06"/>
</g>
<!-- b_dayofweek -->
<g id="node19" class="node">
<title>b_dayofweek</title>
<ellipse fill="none" stroke="black" cx="1257.98" cy="-631.31" rx="62.76" ry="40.66"/>
<text text-anchor="middle" x="1257.98" y="-642.76" font-family="Times,serif" font-size="14.00">b_dayofweek</text>
<text text-anchor="middle" x="1257.98" y="-626.26" font-family="Times,serif" font-size="14.00">~</text>
<text text-anchor="middle" x="1257.98" y="-609.76" font-family="Times,serif" font-size="14.00">Normal</text>
</g>
<!-- b_dayofweek&#45;&gt;dayofweek_contribution -->
<g id="edge7" class="edge">
<title>b_dayofweek&#45;&gt;dayofweek_contribution</title>
<path fill="none" stroke="black" d="M1230.91,-594.42C1218.1,-580.35 1201.53,-565.78 1182.98,-558.15 1154.86,-546.59 690.84,-554.55 606.1,-549.49"/>
<polygon fill="black" stroke="black" points="606.65,-545.93 596.36,-548.47 605.99,-552.9 606.65,-545.93"/>
</g>
</g>
</svg>
