<?xml version="1.0" encoding="utf-8" standalone="no"?>
<!DOCTYPE svg PUBLIC "-//W3C//DTD SVG 1.1//EN"
  "http://www.w3.org/Graphics/SVG/1.1/DTD/svg11.dtd">
<svg xmlns:xlink="http://www.w3.org/1999/xlink" width="728.39952pt" height="440.39952pt" viewBox="0 0 728.39952 440.39952" xmlns="http://www.w3.org/2000/svg" version="1.1">
 <metadata>
  <rdf:RDF xmlns:dc="http://purl.org/dc/elements/1.1/" xmlns:cc="http://creativecommons.org/ns#" xmlns:rdf="http://www.w3.org/1999/02/22-rdf-syntax-ns#">
   <cc:Work>
    <dc:type rdf:resource="http://purl.org/dc/dcmitype/StillImage"/>
    <dc:date>2022-07-18T19:32:11.614148</dc:date>
    <dc:format>image/svg+xml</dc:format>
    <dc:creator>
     <cc:Agent>
      <dc:title>Matplotlib v3.5.1, https://matplotlib.org/</dc:title>
     </cc:Agent>
    </dc:creator>
   </cc:Work>
  </rdf:RDF>
 </metadata>
 <defs>
  <style type="text/css">*{stroke-linejoin: round; stroke-linecap: butt}</style>
 </defs>
 <g id="figure_1">
  <g id="patch_1">
   <path d="M 0 440.39952 
L 728.39952 440.39952 
L 728.39952 0 
L 0 0 
z
" style="fill: #ffffff"/>
  </g>
  <g id="axes_1">
   <g id="patch_2">
    <path d="M 45.40125 213.546322 
L 721.19952 213.546322 
L 721.19952 28.68548 
L 45.40125 28.68548 
z
" style="fill: #eeeeee"/>
   </g>
   <g id="matplotlib.axis_1">
    <g id="xtick_1">
     <g id="line2d_1">
      <path d="M 105.603605 213.546322 
L 105.603605 28.68548 
" clip-path="url(#p8a1f0f65a7)" style="fill: none; stroke-dasharray: 1.85,0.8; stroke-dashoffset: 0; stroke: #b2b2b2; stroke-width: 0.5"/>
     </g>
     <g id="line2d_2">
      <defs>
       <path id="m895ccedbf0" d="M 0 0 
L 0 -3.5 
" style="stroke: #000000; stroke-width: 0.8"/>
      </defs>
      <g>
       <use xlink:href="#m895ccedbf0" x="105.603605" y="213.546322" style="stroke: #000000; stroke-width: 0.8"/>
      </g>
     </g>
    </g>
    <g id="xtick_2">
     <g id="line2d_3">
      <path d="M 222.579167 213.546322 
L 222.579167 28.68548 
" clip-path="url(#p8a1f0f65a7)" style="fill: none; stroke-dasharray: 1.85,0.8; stroke-dashoffset: 0; stroke: #b2b2b2; stroke-width: 0.5"/>
     </g>
     <g id="line2d_4">
      <g>
       <use xlink:href="#m895ccedbf0" x="222.579167" y="213.546322" style="stroke: #000000; stroke-width: 0.8"/>
      </g>
     </g>
    </g>
    <g id="xtick_3">
     <g id="line2d_5">
      <path d="M 339.554729 213.546322 
L 339.554729 28.68548 
" clip-path="url(#p8a1f0f65a7)" style="fill: none; stroke-dasharray: 1.85,0.8; stroke-dashoffset: 0; stroke: #b2b2b2; stroke-width: 0.5"/>
     </g>
     <g id="line2d_6">
      <g>
       <use xlink:href="#m895ccedbf0" x="339.554729" y="213.546322" style="stroke: #000000; stroke-width: 0.8"/>
      </g>
     </g>
    </g>
    <g id="xtick_4">
     <g id="line2d_7">
      <path d="M 456.530292 213.546322 
L 456.530292 28.68548 
" clip-path="url(#p8a1f0f65a7)" style="fill: none; stroke-dasharray: 1.85,0.8; stroke-dashoffset: 0; stroke: #b2b2b2; stroke-width: 0.5"/>
     </g>
     <g id="line2d_8">
      <g>
       <use xlink:href="#m895ccedbf0" x="456.530292" y="213.546322" style="stroke: #000000; stroke-width: 0.8"/>
      </g>
     </g>
    </g>
    <g id="xtick_5">
     <g id="line2d_9">
      <path d="M 573.826335 213.546322 
L 573.826335 28.68548 
" clip-path="url(#p8a1f0f65a7)" style="fill: none; stroke-dasharray: 1.85,0.8; stroke-dashoffset: 0; stroke: #b2b2b2; stroke-width: 0.5"/>
     </g>
     <g id="line2d_10">
      <g>
       <use xlink:href="#m895ccedbf0" x="573.826335" y="213.546322" style="stroke: #000000; stroke-width: 0.8"/>
      </g>
     </g>
    </g>
    <g id="xtick_6">
     <g id="line2d_11">
      <path d="M 690.801898 213.546322 
L 690.801898 28.68548 
" clip-path="url(#p8a1f0f65a7)" style="fill: none; stroke-dasharray: 1.85,0.8; stroke-dashoffset: 0; stroke: #b2b2b2; stroke-width: 0.5"/>
     </g>
     <g id="line2d_12">
      <g>
       <use xlink:href="#m895ccedbf0" x="690.801898" y="213.546322" style="stroke: #000000; stroke-width: 0.8"/>
      </g>
     </g>
    </g>
   </g>
   <g id="matplotlib.axis_2">
    <g id="ytick_1">
     <g id="line2d_13">
      <path d="M 45.40125 205.143557 
L 721.19952 205.143557 
" clip-path="url(#p8a1f0f65a7)" style="fill: none; stroke-dasharray: 1.85,0.8; stroke-dashoffset: 0; stroke: #b2b2b2; stroke-width: 0.5"/>
     </g>
     <g id="line2d_14">
      <defs>
       <path id="mfc7199bafd" d="M 0 0 
L 3.5 0 
" style="stroke: #000000; stroke-width: 0.8"/>
      </defs>
      <g>
       <use xlink:href="#mfc7199bafd" x="45.40125" y="205.143557" style="stroke: #000000; stroke-width: 0.8"/>
      </g>
     </g>
     <g id="text_1">
      <!-- 0 -->
      <g transform="translate(35.53875 208.942776)scale(0.1 -0.1)">
       <defs>
        <path id="DejaVuSans-30" d="M 2034 4250 
Q 1547 4250 1301 3770 
Q 1056 3291 1056 2328 
Q 1056 1369 1301 889 
Q 1547 409 2034 409 
Q 2525 409 2770 889 
Q 3016 1369 3016 2328 
Q 3016 3291 2770 3770 
Q 2525 4250 2034 4250 
z
M 2034 4750 
Q 2819 4750 3233 4129 
Q 3647 3509 3647 2328 
Q 3647 1150 3233 529 
Q 2819 -91 2034 -91 
Q 1250 -91 836 529 
Q 422 1150 422 2328 
Q 422 3509 836 4129 
Q 1250 4750 2034 4750 
z
" transform="scale(0.015625)"/>
       </defs>
       <use xlink:href="#DejaVuSans-30"/>
      </g>
     </g>
    </g>
    <g id="ytick_2">
     <g id="line2d_15">
      <path d="M 45.40125 180.787715 
L 721.19952 180.787715 
" clip-path="url(#p8a1f0f65a7)" style="fill: none; stroke-dasharray: 1.85,0.8; stroke-dashoffset: 0; stroke: #b2b2b2; stroke-width: 0.5"/>
     </g>
     <g id="line2d_16">
      <g>
       <use xlink:href="#mfc7199bafd" x="45.40125" y="180.787715" style="stroke: #000000; stroke-width: 0.8"/>
      </g>
     </g>
     <g id="text_2">
      <!-- 20 -->
      <g transform="translate(29.17625 184.586933)scale(0.1 -0.1)">
       <defs>
        <path id="DejaVuSans-32" d="M 1228 531 
L 3431 531 
L 3431 0 
L 469 0 
L 469 531 
Q 828 903 1448 1529 
Q 2069 2156 2228 2338 
Q 2531 2678 2651 2914 
Q 2772 3150 2772 3378 
Q 2772 3750 2511 3984 
Q 2250 4219 1831 4219 
Q 1534 4219 1204 4116 
Q 875 4013 500 3803 
L 500 4441 
Q 881 4594 1212 4672 
Q 1544 4750 1819 4750 
Q 2544 4750 2975 4387 
Q 3406 4025 3406 3419 
Q 3406 3131 3298 2873 
Q 3191 2616 2906 2266 
Q 2828 2175 2409 1742 
Q 1991 1309 1228 531 
z
" transform="scale(0.015625)"/>
       </defs>
       <use xlink:href="#DejaVuSans-32"/>
       <use xlink:href="#DejaVuSans-30" x="63.623047"/>
      </g>
     </g>
    </g>
    <g id="ytick_3">
     <g id="line2d_17">
      <path d="M 45.40125 156.431872 
L 721.19952 156.431872 
" clip-path="url(#p8a1f0f65a7)" style="fill: none; stroke-dasharray: 1.85,0.8; stroke-dashoffset: 0; stroke: #b2b2b2; stroke-width: 0.5"/>
     </g>
     <g id="line2d_18">
      <g>
       <use xlink:href="#mfc7199bafd" x="45.40125" y="156.431872" style="stroke: #000000; stroke-width: 0.8"/>
      </g>
     </g>
     <g id="text_3">
      <!-- 40 -->
      <g transform="translate(29.17625 160.231091)scale(0.1 -0.1)">
       <defs>
        <path id="DejaVuSans-34" d="M 2419 4116 
L 825 1625 
L 2419 1625 
L 2419 4116 
z
M 2253 4666 
L 3047 4666 
L 3047 1625 
L 3713 1625 
L 3713 1100 
L 3047 1100 
L 3047 0 
L 2419 0 
L 2419 1100 
L 313 1100 
L 313 1709 
L 2253 4666 
z
" transform="scale(0.015625)"/>
       </defs>
       <use xlink:href="#DejaVuSans-34"/>
       <use xlink:href="#DejaVuSans-30" x="63.623047"/>
      </g>
     </g>
    </g>
    <g id="ytick_4">
     <g id="line2d_19">
      <path d="M 45.40125 132.07603 
L 721.19952 132.07603 
" clip-path="url(#p8a1f0f65a7)" style="fill: none; stroke-dasharray: 1.85,0.8; stroke-dashoffset: 0; stroke: #b2b2b2; stroke-width: 0.5"/>
     </g>
     <g id="line2d_20">
      <g>
       <use xlink:href="#mfc7199bafd" x="45.40125" y="132.07603" style="stroke: #000000; stroke-width: 0.8"/>
      </g>
     </g>
     <g id="text_4">
      <!-- 60 -->
      <g transform="translate(29.17625 135.875249)scale(0.1 -0.1)">
       <defs>
        <path id="DejaVuSans-36" d="M 2113 2584 
Q 1688 2584 1439 2293 
Q 1191 2003 1191 1497 
Q 1191 994 1439 701 
Q 1688 409 2113 409 
Q 2538 409 2786 701 
Q 3034 994 3034 1497 
Q 3034 2003 2786 2293 
Q 2538 2584 2113 2584 
z
M 3366 4563 
L 3366 3988 
Q 3128 4100 2886 4159 
Q 2644 4219 2406 4219 
Q 1781 4219 1451 3797 
Q 1122 3375 1075 2522 
Q 1259 2794 1537 2939 
Q 1816 3084 2150 3084 
Q 2853 3084 3261 2657 
Q 3669 2231 3669 1497 
Q 3669 778 3244 343 
Q 2819 -91 2113 -91 
Q 1303 -91 875 529 
Q 447 1150 447 2328 
Q 447 3434 972 4092 
Q 1497 4750 2381 4750 
Q 2619 4750 2861 4703 
Q 3103 4656 3366 4563 
z
" transform="scale(0.015625)"/>
       </defs>
       <use xlink:href="#DejaVuSans-36"/>
       <use xlink:href="#DejaVuSans-30" x="63.623047"/>
      </g>
     </g>
    </g>
    <g id="ytick_5">
     <g id="line2d_21">
      <path d="M 45.40125 107.720188 
L 721.19952 107.720188 
" clip-path="url(#p8a1f0f65a7)" style="fill: none; stroke-dasharray: 1.85,0.8; stroke-dashoffset: 0; stroke: #b2b2b2; stroke-width: 0.5"/>
     </g>
     <g id="line2d_22">
      <g>
       <use xlink:href="#mfc7199bafd" x="45.40125" y="107.720188" style="stroke: #000000; stroke-width: 0.8"/>
      </g>
     </g>
     <g id="text_5">
      <!-- 80 -->
      <g transform="translate(29.17625 111.519407)scale(0.1 -0.1)">
       <defs>
        <path id="DejaVuSans-38" d="M 2034 2216 
Q 1584 2216 1326 1975 
Q 1069 1734 1069 1313 
Q 1069 891 1326 650 
Q 1584 409 2034 409 
Q 2484 409 2743 651 
Q 3003 894 3003 1313 
Q 3003 1734 2745 1975 
Q 2488 2216 2034 2216 
z
M 1403 2484 
Q 997 2584 770 2862 
Q 544 3141 544 3541 
Q 544 4100 942 4425 
Q 1341 4750 2034 4750 
Q 2731 4750 3128 4425 
Q 3525 4100 3525 3541 
Q 3525 3141 3298 2862 
Q 3072 2584 2669 2484 
Q 3125 2378 3379 2068 
Q 3634 1759 3634 1313 
Q 3634 634 3220 271 
Q 2806 -91 2034 -91 
Q 1263 -91 848 271 
Q 434 634 434 1313 
Q 434 1759 690 2068 
Q 947 2378 1403 2484 
z
M 1172 3481 
Q 1172 3119 1398 2916 
Q 1625 2713 2034 2713 
Q 2441 2713 2670 2916 
Q 2900 3119 2900 3481 
Q 2900 3844 2670 4047 
Q 2441 4250 2034 4250 
Q 1625 4250 1398 4047 
Q 1172 3844 1172 3481 
z
" transform="scale(0.015625)"/>
       </defs>
       <use xlink:href="#DejaVuSans-38"/>
       <use xlink:href="#DejaVuSans-30" x="63.623047"/>
      </g>
     </g>
    </g>
    <g id="ytick_6">
     <g id="line2d_23">
      <path d="M 45.40125 83.364346 
L 721.19952 83.364346 
" clip-path="url(#p8a1f0f65a7)" style="fill: none; stroke-dasharray: 1.85,0.8; stroke-dashoffset: 0; stroke: #b2b2b2; stroke-width: 0.5"/>
     </g>
     <g id="line2d_24">
      <g>
       <use xlink:href="#mfc7199bafd" x="45.40125" y="83.364346" style="stroke: #000000; stroke-width: 0.8"/>
      </g>
     </g>
     <g id="text_6">
      <!-- 100 -->
      <g transform="translate(22.81375 87.163565)scale(0.1 -0.1)">
       <defs>
        <path id="DejaVuSans-31" d="M 794 531 
L 1825 531 
L 1825 4091 
L 703 3866 
L 703 4441 
L 1819 4666 
L 2450 4666 
L 2450 531 
L 3481 531 
L 3481 0 
L 794 0 
L 794 531 
z
" transform="scale(0.015625)"/>
       </defs>
       <use xlink:href="#DejaVuSans-31"/>
       <use xlink:href="#DejaVuSans-30" x="63.623047"/>
       <use xlink:href="#DejaVuSans-30" x="127.246094"/>
      </g>
     </g>
    </g>
    <g id="ytick_7">
     <g id="line2d_25">
      <path d="M 45.40125 59.008504 
L 721.19952 59.008504 
" clip-path="url(#p8a1f0f65a7)" style="fill: none; stroke-dasharray: 1.85,0.8; stroke-dashoffset: 0; stroke: #b2b2b2; stroke-width: 0.5"/>
     </g>
     <g id="line2d_26">
      <g>
       <use xlink:href="#mfc7199bafd" x="45.40125" y="59.008504" style="stroke: #000000; stroke-width: 0.8"/>
      </g>
     </g>
     <g id="text_7">
      <!-- 120 -->
      <g transform="translate(22.81375 62.807722)scale(0.1 -0.1)">
       <use xlink:href="#DejaVuSans-31"/>
       <use xlink:href="#DejaVuSans-32" x="63.623047"/>
       <use xlink:href="#DejaVuSans-30" x="127.246094"/>
      </g>
     </g>
    </g>
    <g id="ytick_8">
     <g id="line2d_27">
      <path d="M 45.40125 34.652661 
L 721.19952 34.652661 
" clip-path="url(#p8a1f0f65a7)" style="fill: none; stroke-dasharray: 1.85,0.8; stroke-dashoffset: 0; stroke: #b2b2b2; stroke-width: 0.5"/>
     </g>
     <g id="line2d_28">
      <g>
       <use xlink:href="#mfc7199bafd" x="45.40125" y="34.652661" style="stroke: #000000; stroke-width: 0.8"/>
      </g>
     </g>
     <g id="text_8">
      <!-- 140 -->
      <g transform="translate(22.81375 38.45188)scale(0.1 -0.1)">
       <use xlink:href="#DejaVuSans-31"/>
       <use xlink:href="#DejaVuSans-34" x="63.623047"/>
       <use xlink:href="#DejaVuSans-30" x="127.246094"/>
      </g>
     </g>
    </g>
    <g id="text_9">
     <!-- sales -->
     <g transform="translate(16.318125 136.402776)rotate(-90)scale(0.12 -0.12)">
      <defs>
       <path id="DejaVuSans-73" d="M 2834 3397 
L 2834 2853 
Q 2591 2978 2328 3040 
Q 2066 3103 1784 3103 
Q 1356 3103 1142 2972 
Q 928 2841 928 2578 
Q 928 2378 1081 2264 
Q 1234 2150 1697 2047 
L 1894 2003 
Q 2506 1872 2764 1633 
Q 3022 1394 3022 966 
Q 3022 478 2636 193 
Q 2250 -91 1575 -91 
Q 1294 -91 989 -36 
Q 684 19 347 128 
L 347 722 
Q 666 556 975 473 
Q 1284 391 1588 391 
Q 1994 391 2212 530 
Q 2431 669 2431 922 
Q 2431 1156 2273 1281 
Q 2116 1406 1581 1522 
L 1381 1569 
Q 847 1681 609 1914 
Q 372 2147 372 2553 
Q 372 3047 722 3315 
Q 1072 3584 1716 3584 
Q 2034 3584 2315 3537 
Q 2597 3491 2834 3397 
z
" transform="scale(0.015625)"/>
       <path id="DejaVuSans-61" d="M 2194 1759 
Q 1497 1759 1228 1600 
Q 959 1441 959 1056 
Q 959 750 1161 570 
Q 1363 391 1709 391 
Q 2188 391 2477 730 
Q 2766 1069 2766 1631 
L 2766 1759 
L 2194 1759 
z
M 3341 1997 
L 3341 0 
L 2766 0 
L 2766 531 
Q 2569 213 2275 61 
Q 1981 -91 1556 -91 
Q 1019 -91 701 211 
Q 384 513 384 1019 
Q 384 1609 779 1909 
Q 1175 2209 1959 2209 
L 2766 2209 
L 2766 2266 
Q 2766 2663 2505 2880 
Q 2244 3097 1772 3097 
Q 1472 3097 1187 3025 
Q 903 2953 641 2809 
L 641 3341 
Q 956 3463 1253 3523 
Q 1550 3584 1831 3584 
Q 2591 3584 2966 3190 
Q 3341 2797 3341 1997 
z
" transform="scale(0.015625)"/>
       <path id="DejaVuSans-6c" d="M 603 4863 
L 1178 4863 
L 1178 0 
L 603 0 
L 603 4863 
z
" transform="scale(0.015625)"/>
       <path id="DejaVuSans-65" d="M 3597 1894 
L 3597 1613 
L 953 1613 
Q 991 1019 1311 708 
Q 1631 397 2203 397 
Q 2534 397 2845 478 
Q 3156 559 3463 722 
L 3463 178 
Q 3153 47 2828 -22 
Q 2503 -91 2169 -91 
Q 1331 -91 842 396 
Q 353 884 353 1716 
Q 353 2575 817 3079 
Q 1281 3584 2069 3584 
Q 2775 3584 3186 3129 
Q 3597 2675 3597 1894 
z
M 3022 2063 
Q 3016 2534 2758 2815 
Q 2500 3097 2075 3097 
Q 1594 3097 1305 2825 
Q 1016 2553 972 2059 
L 3022 2063 
z
" transform="scale(0.015625)"/>
      </defs>
      <use xlink:href="#DejaVuSans-73"/>
      <use xlink:href="#DejaVuSans-61" x="52.099609"/>
      <use xlink:href="#DejaVuSans-6c" x="113.378906"/>
      <use xlink:href="#DejaVuSans-65" x="141.162109"/>
      <use xlink:href="#DejaVuSans-73" x="202.685547"/>
     </g>
    </g>
   </g>
   <g id="line2d_29">
    <path d="M 163.610664 135.729407 
L 163.931145 134.511614 
L 164.251626 140.600575 
L 164.572107 161.303041 
L 164.892588 169.827586 
L 165.213069 139.382783 
L 165.53355 155.21408 
L 165.854031 102.84902 
L 166.174512 108.93798 
L 166.815474 140.600575 
L 167.135955 146.689536 
L 167.456436 168.609794 
L 167.776917 132.07603 
L 168.097398 134.511614 
L 168.417879 117.462525 
L 168.73836 121.115901 
L 169.058841 84.582138 
L 169.699803 149.12512 
L 170.340765 132.07603 
L 170.981727 89.453306 
L 171.302208 104.066812 
L 171.622689 108.93798 
L 171.94317 132.07603 
L 172.263651 127.204862 
L 172.584132 68.75084 
L 172.904613 56.572919 
L 173.545575 125.98707 
L 173.866056 76.057593 
L 174.186537 144.253951 
L 174.827499 73.622009 
L 175.14798 96.760059 
L 175.468461 85.79993 
L 175.788942 110.155772 
L 176.429904 118.680317 
L 176.750385 128.422654 
L 177.070866 91.888891 
L 177.391347 138.164991 
L 178.032309 71.186425 
L 178.35279 83.364346 
L 178.673271 138.164991 
L 178.993752 123.551485 
L 179.634714 66.315256 
L 179.955195 82.146554 
L 180.275676 122.333693 
L 180.596157 121.115901 
L 181.237119 149.12512 
L 181.5576 95.542267 
L 181.878081 79.710969 
L 182.198562 106.502396 
L 182.519043 102.84902 
L 182.839524 116.244733 
L 183.160005 161.303041 
L 183.480486 129.640446 
L 183.800967 162.520833 
L 184.441929 80.928762 
L 184.76241 68.75084 
L 185.082891 78.493177 
L 185.403372 146.689536 
L 185.723853 121.115901 
L 186.044334 83.364346 
L 186.364815 65.097464 
L 186.685296 79.710969 
L 187.005777 110.155772 
L 187.326258 73.622009 
L 187.646739 140.600575 
L 188.287701 124.769278 
L 188.608182 85.79993 
L 188.928663 68.75084 
L 189.249144 69.968633 
L 189.569625 87.017722 
L 189.890106 128.422654 
L 190.210587 132.07603 
L 190.531068 101.631227 
L 191.17203 77.275385 
L 191.492511 76.057593 
L 191.812992 88.235514 
L 192.133473 144.253951 
L 193.094916 67.533048 
L 193.415397 79.710969 
L 193.735878 72.404217 
L 194.056359 94.324475 
L 194.37684 158.867457 
L 194.697321 161.303041 
L 195.338283 66.315256 
L 195.979245 124.769278 
L 196.299726 129.640446 
L 196.940688 150.342912 
L 197.261169 100.413435 
L 197.58165 85.79993 
L 197.902131 82.146554 
L 198.222612 76.057593 
L 198.543093 83.364346 
L 198.863574 151.560704 
L 199.184055 143.036159 
L 199.504535 77.275385 
L 199.825016 59.008504 
L 200.145497 104.066812 
L 200.465978 118.680317 
L 200.786459 111.373564 
L 201.10694 163.738625 
L 201.427421 161.303041 
L 202.068383 78.493177 
L 202.388864 96.760059 
L 202.709345 76.057593 
L 203.029826 134.511614 
L 203.350307 147.907328 
L 203.670788 172.26317 
L 203.991269 113.809149 
L 204.31175 125.98707 
L 204.632231 99.195643 
L 204.952712 118.680317 
L 205.273193 116.244733 
L 205.593674 163.738625 
L 205.914155 167.392001 
L 206.234636 125.98707 
L 206.555117 160.085249 
L 206.875598 134.511614 
L 207.196079 119.898109 
L 207.51656 128.422654 
L 207.837041 175.916546 
L 208.157522 178.35213 
L 208.478003 95.542267 
L 208.798484 139.382783 
L 209.118965 138.164991 
L 209.759927 119.898109 
L 210.080408 172.26317 
L 210.400889 178.35213 
L 210.72137 140.600575 
L 211.041851 153.996288 
L 211.362332 175.916546 
L 211.682813 185.658883 
L 212.003294 177.134338 
L 212.323775 190.530052 
L 212.644256 179.569923 
L 212.964737 122.333693 
L 213.285218 118.680317 
L 213.605699 119.898109 
L 213.92618 135.729407 
L 214.246661 175.916546 
L 214.887623 185.658883 
L 215.208104 150.342912 
L 215.528585 164.956417 
L 215.849066 150.342912 
L 216.169547 163.738625 
L 216.490028 150.342912 
L 216.810509 191.747844 
L 217.13099 194.183428 
L 217.451471 149.12512 
L 217.771952 171.045378 
L 218.092433 150.342912 
L 218.412914 146.689536 
L 218.733395 129.640446 
L 219.053876 169.827586 
L 219.694838 186.876675 
L 220.015319 167.392001 
L 220.3358 203.925765 
L 220.656281 173.480962 
L 220.976762 162.520833 
L 221.297243 195.40122 
L 221.617724 199.054596 
L 221.938205 161.303041 
L 222.258686 173.480962 
L 222.579167 197.836804 
L 222.899648 178.35213 
L 223.220129 202.707973 
L 223.54061 202.707973 
L 223.861091 203.925765 
L 224.181572 155.21408 
L 224.502053 175.916546 
L 224.822534 171.045378 
L 225.143015 177.134338 
L 225.463496 179.569923 
L 225.783977 192.965636 
L 226.104458 175.916546 
L 226.424939 150.342912 
L 226.74542 177.134338 
L 227.065901 138.164991 
L 227.386382 158.867457 
L 227.706863 158.867457 
L 228.027344 189.312259 
L 228.347825 185.658883 
L 228.668306 173.480962 
L 228.988787 192.965636 
L 229.309268 196.619012 
L 229.629749 184.441091 
L 229.95023 182.005507 
L 230.270711 202.707973 
L 230.591192 195.40122 
L 230.911673 163.738625 
L 231.232154 174.698754 
L 231.552635 178.35213 
L 231.873116 161.303041 
L 232.193597 155.21408 
L 232.514078 190.530052 
L 232.834559 180.787715 
L 233.15504 192.965636 
L 233.475521 179.569923 
L 233.796002 196.619012 
L 234.436964 164.956417 
L 234.757445 197.836804 
L 235.077926 196.619012 
L 235.398407 179.569923 
L 235.718888 179.569923 
L 236.039369 182.005507 
L 236.35985 197.836804 
L 236.680331 194.183428 
L 237.000812 202.707973 
L 237.321293 201.490181 
L 237.641774 190.530052 
L 237.962255 191.747844 
L 238.282736 179.569923 
L 238.603217 161.303041 
L 238.923698 178.35213 
L 239.244179 188.094467 
L 239.56466 186.876675 
L 239.885141 160.085249 
L 240.205622 156.431872 
L 240.526103 168.609794 
L 240.846584 172.26317 
L 241.167065 167.392001 
L 241.487546 177.134338 
L 241.808027 179.569923 
L 242.128508 164.956417 
L 242.448989 200.272388 
L 242.76947 149.12512 
L 243.089951 191.747844 
L 243.410432 203.925765 
L 243.730913 149.12512 
L 244.051394 182.005507 
L 244.371875 188.094467 
L 244.692356 119.898109 
L 245.012837 166.174209 
L 245.333318 179.569923 
L 245.653798 167.392001 
L 245.974279 195.40122 
L 246.29476 191.747844 
L 246.615241 179.569923 
L 246.935722 190.530052 
L 247.256203 168.609794 
L 247.576684 155.21408 
L 247.897165 162.520833 
L 248.217646 179.569923 
L 248.538127 185.658883 
L 248.858608 161.303041 
L 249.179089 153.996288 
L 249.49957 175.916546 
L 249.820051 173.480962 
L 250.140532 162.520833 
L 250.461013 201.490181 
L 251.422456 146.689536 
L 251.742937 144.253951 
L 252.063418 130.858238 
L 252.383899 164.956417 
L 252.70438 173.480962 
L 253.024861 153.996288 
L 253.345342 161.303041 
L 253.986304 106.502396 
L 254.306785 136.947199 
L 254.627266 134.511614 
L 254.947747 161.303041 
L 255.268228 147.907328 
L 255.588709 88.235514 
L 255.90919 169.827586 
L 256.229671 145.471743 
L 256.550152 150.342912 
L 256.870633 150.342912 
L 257.191114 174.698754 
L 257.511595 175.916546 
L 257.832076 127.204862 
L 258.152557 128.422654 
L 258.473038 113.809149 
L 258.793519 143.036159 
L 259.114 115.026941 
L 259.434481 189.312259 
L 259.754962 169.827586 
L 260.075443 106.502396 
L 260.395924 145.471743 
L 260.716405 200.272388 
L 261.036886 108.93798 
L 261.357367 96.760059 
L 261.677848 128.422654 
L 261.998329 147.907328 
L 262.31881 101.631227 
L 262.639291 123.551485 
L 262.959772 116.244733 
L 263.280253 146.689536 
L 263.600734 136.947199 
L 263.921215 178.35213 
L 264.241696 157.649665 
L 264.562177 116.244733 
L 264.882658 113.809149 
L 265.203139 106.502396 
L 265.52362 139.382783 
L 265.844101 158.867457 
L 266.164582 147.907328 
L 266.485063 151.560704 
L 266.805544 101.631227 
L 267.126025 104.066812 
L 267.446506 113.809149 
L 267.766987 158.867457 
L 268.087468 129.640446 
L 268.407949 186.876675 
L 268.72843 163.738625 
L 269.048911 163.738625 
L 269.369392 90.671098 
L 270.010354 111.373564 
L 270.330835 107.720188 
L 270.651316 157.649665 
L 270.971797 135.729407 
L 271.292278 101.631227 
L 271.612759 113.809149 
L 271.93324 95.542267 
L 272.253721 163.738625 
L 272.574202 90.671098 
L 272.894683 167.392001 
L 273.215164 134.511614 
L 273.535645 173.480962 
L 273.856126 124.769278 
L 274.817569 149.12512 
L 275.13805 160.085249 
L 275.458531 162.520833 
L 275.779012 90.671098 
L 276.099493 107.720188 
L 276.419974 95.542267 
L 276.740455 110.155772 
L 277.060936 135.729407 
L 277.381417 136.947199 
L 277.701898 130.858238 
L 278.022379 101.631227 
L 278.34286 116.244733 
L 278.663341 102.84902 
L 278.983822 123.551485 
L 279.304303 125.98707 
L 279.624784 173.480962 
L 279.945265 149.12512 
L 280.265746 101.631227 
L 280.586227 102.84902 
L 280.906708 112.591356 
L 281.227189 125.98707 
L 281.54767 163.738625 
L 281.868151 151.560704 
L 282.188632 158.867457 
L 282.509113 105.284604 
L 282.829594 90.671098 
L 283.150075 94.324475 
L 283.470556 118.680317 
L 283.791037 133.293822 
L 284.111518 132.07603 
L 284.431999 147.907328 
L 284.75248 96.760059 
L 285.072961 140.600575 
L 285.393442 122.333693 
L 285.713923 67.533048 
L 286.034404 96.760059 
L 286.354885 164.956417 
L 286.675366 146.689536 
L 286.995847 97.977851 
L 287.316328 96.760059 
L 287.636809 82.146554 
L 288.277771 99.195643 
L 288.598252 140.600575 
L 288.918733 138.164991 
L 289.239214 94.324475 
L 289.559695 111.373564 
L 290.200657 99.195643 
L 290.521138 97.977851 
L 290.841619 163.738625 
L 291.1621 140.600575 
L 291.48258 94.324475 
L 291.803061 104.066812 
L 292.123542 104.066812 
L 292.444023 106.502396 
L 292.764504 101.631227 
L 293.084985 166.174209 
L 293.405466 169.827586 
L 293.725947 123.551485 
L 294.046428 118.680317 
L 294.366909 136.947199 
L 294.68739 110.155772 
L 295.007871 113.809149 
L 295.328352 156.431872 
L 295.648833 166.174209 
L 295.969314 100.413435 
L 296.289795 105.284604 
L 296.610276 101.631227 
L 296.930757 127.204862 
L 297.251238 132.07603 
L 297.571719 161.303041 
L 297.8922 138.164991 
L 298.212681 104.066812 
L 298.533162 119.898109 
L 298.853643 118.680317 
L 299.174124 97.977851 
L 299.815086 164.956417 
L 300.135567 175.916546 
L 300.456048 161.303041 
L 300.776529 107.720188 
L 301.09701 99.195643 
L 301.417491 119.898109 
L 301.737972 106.502396 
L 302.058453 163.738625 
L 302.378934 152.778496 
L 302.699415 106.502396 
L 303.019896 106.502396 
L 303.340377 105.284604 
L 303.660858 102.84902 
L 303.981339 104.066812 
L 304.30182 186.876675 
L 304.942782 100.413435 
L 305.263263 151.560704 
L 305.583744 95.542267 
L 305.904225 118.680317 
L 306.224706 117.462525 
L 306.545187 164.956417 
L 306.865668 166.174209 
L 307.186149 106.502396 
L 307.50663 122.333693 
L 307.827111 113.809149 
L 308.147592 177.134338 
L 308.468073 95.542267 
L 308.788554 143.036159 
L 309.109035 151.560704 
L 309.429516 108.93798 
L 309.749997 102.84902 
L 310.070478 133.293822 
L 310.390959 112.591356 
L 310.71144 127.204862 
L 311.031921 188.094467 
L 311.352402 174.698754 
L 311.672883 105.284604 
L 311.993364 118.680317 
L 312.313845 117.462525 
L 312.634326 125.98707 
L 312.954807 112.591356 
L 313.275288 192.965636 
L 313.595769 188.094467 
L 314.236731 90.671098 
L 314.557212 130.858238 
L 314.877693 129.640446 
L 315.198174 136.947199 
L 315.518655 167.392001 
L 315.839136 180.787715 
L 316.159617 112.591356 
L 316.480098 135.729407 
L 316.800579 182.005507 
L 317.12106 184.441091 
L 317.441541 111.373564 
L 317.762022 177.134338 
L 318.082503 166.174209 
L 318.402984 129.640446 
L 318.723465 113.809149 
L 319.043946 104.066812 
L 319.364427 106.502396 
L 319.684908 128.422654 
L 320.005389 195.40122 
L 320.32587 186.876675 
L 320.646351 122.333693 
L 320.966832 113.809149 
L 321.287313 115.026941 
L 321.607794 173.480962 
L 321.928275 153.996288 
L 322.248756 171.045378 
L 322.569237 168.609794 
L 322.889718 115.026941 
L 323.210199 118.680317 
L 323.53068 133.293822 
L 323.851161 161.303041 
L 324.171642 152.778496 
L 324.492123 192.965636 
L 324.812604 182.005507 
L 325.133085 185.658883 
L 325.453566 157.649665 
L 325.774047 161.303041 
L 326.094528 152.778496 
L 326.415009 160.085249 
L 326.73549 180.787715 
L 327.055971 177.134338 
L 327.376452 143.036159 
L 327.696933 125.98707 
L 328.017414 190.530052 
L 328.337895 199.054596 
L 328.658376 179.569923 
L 328.978857 178.35213 
L 329.299338 183.223299 
L 329.619819 151.560704 
L 329.9403 166.174209 
L 330.260781 160.085249 
L 330.581262 149.12512 
L 330.901743 153.996288 
L 331.222224 196.619012 
L 331.542705 185.658883 
L 331.863186 147.907328 
L 332.183667 186.876675 
L 332.504148 182.005507 
L 332.824629 149.12512 
L 333.14511 150.342912 
L 333.465591 184.441091 
L 333.786072 184.441091 
L 334.106553 145.471743 
L 334.427034 152.778496 
L 334.747515 130.858238 
L 335.708958 194.183428 
L 336.029439 194.183428 
L 336.34992 162.520833 
L 336.990882 190.530052 
L 337.311363 197.836804 
L 337.631843 179.569923 
L 337.952324 182.005507 
L 338.272805 192.965636 
L 338.593286 156.431872 
L 338.913767 163.738625 
L 339.234248 174.698754 
L 339.554729 197.836804 
L 339.87521 182.005507 
L 340.195691 197.836804 
L 340.516172 196.619012 
L 340.836653 153.996288 
L 341.157134 185.658883 
L 341.477615 175.916546 
L 341.798096 182.005507 
L 342.118577 182.005507 
L 342.439058 199.054596 
L 342.759539 196.619012 
L 343.08002 178.35213 
L 343.400501 172.26317 
L 343.720982 169.827586 
L 344.041463 150.342912 
L 344.361944 158.867457 
L 344.682425 197.836804 
L 345.002906 203.925765 
L 345.323387 189.312259 
L 345.643868 145.471743 
L 345.964349 151.560704 
L 346.605311 172.26317 
L 346.925792 196.619012 
L 347.246273 185.658883 
L 347.566754 192.965636 
L 347.887235 195.40122 
L 348.528197 183.223299 
L 348.848678 188.094467 
L 349.169159 203.925765 
L 349.48964 190.530052 
L 349.810121 196.619012 
L 350.130602 183.223299 
L 350.451083 188.094467 
L 350.771564 171.045378 
L 351.092045 191.747844 
L 351.412526 199.054596 
L 351.733007 192.965636 
L 352.053488 189.312259 
L 352.373969 189.312259 
L 352.69445 180.787715 
L 353.014931 191.747844 
L 353.335412 192.965636 
L 353.976374 200.272388 
L 354.296855 195.40122 
L 354.617336 185.658883 
L 354.937817 179.569923 
L 355.258298 186.876675 
L 355.578779 182.005507 
L 355.89926 197.836804 
L 356.219741 197.836804 
L 356.540222 175.916546 
L 356.860703 197.836804 
L 357.181184 190.530052 
L 357.501665 177.134338 
L 357.822146 180.787715 
L 358.463108 202.707973 
L 358.783589 182.005507 
L 359.10407 191.747844 
L 359.424551 188.094467 
L 359.745032 201.490181 
L 360.065513 190.530052 
L 360.385994 199.054596 
L 360.706475 196.619012 
L 361.026956 160.085249 
L 361.347437 172.26317 
L 361.667918 140.600575 
L 361.988399 167.392001 
L 362.30888 157.649665 
L 362.629361 196.619012 
L 362.949842 183.223299 
L 363.270323 151.560704 
L 363.590804 167.392001 
L 363.911285 175.916546 
L 364.231766 168.609794 
L 364.552247 186.876675 
L 364.872728 190.530052 
L 365.193209 186.876675 
L 365.834171 150.342912 
L 366.154652 157.649665 
L 366.475133 140.600575 
L 366.795614 152.778496 
L 367.116095 200.272388 
L 367.436576 180.787715 
L 367.757057 153.996288 
L 368.077538 157.649665 
L 368.398019 139.382783 
L 368.7185 141.818367 
L 369.038981 175.916546 
L 369.359462 188.094467 
L 369.679943 183.223299 
L 370.000424 139.382783 
L 370.320905 152.778496 
L 370.641386 149.12512 
L 370.961867 155.21408 
L 371.282348 164.956417 
L 371.602829 183.223299 
L 371.92331 169.827586 
L 372.243791 127.204862 
L 372.564272 151.560704 
L 372.884753 127.204862 
L 373.205234 123.551485 
L 373.525715 153.996288 
L 373.846196 157.649665 
L 374.166677 171.045378 
L 374.487158 169.827586 
L 375.448601 133.293822 
L 375.769082 141.818367 
L 376.089563 175.916546 
L 376.410044 167.392001 
L 376.730525 136.947199 
L 377.051006 129.640446 
L 377.371487 128.422654 
L 377.691968 118.680317 
L 378.012449 125.98707 
L 378.33293 186.876675 
L 378.653411 167.392001 
L 378.973892 129.640446 
L 379.294373 108.93798 
L 379.614854 125.98707 
L 379.935335 102.84902 
L 380.255816 111.373564 
L 380.576297 174.698754 
L 380.896778 162.520833 
L 381.217259 119.898109 
L 381.53774 113.809149 
L 381.858221 113.809149 
L 382.178702 104.066812 
L 382.499183 111.373564 
L 382.819664 147.907328 
L 383.140145 145.471743 
L 383.460625 100.413435 
L 383.781106 138.164991 
L 384.101587 121.115901 
L 384.422068 125.98707 
L 384.742549 128.422654 
L 385.06303 168.609794 
L 385.383511 141.818367 
L 385.703992 156.431872 
L 386.024473 110.155772 
L 386.344954 129.640446 
L 386.665435 128.422654 
L 386.985916 96.760059 
L 387.306397 166.174209 
L 387.626878 158.867457 
L 387.947359 179.569923 
L 388.26784 185.658883 
L 388.588321 119.898109 
L 388.908802 122.333693 
L 389.229283 133.293822 
L 389.549764 169.827586 
L 389.870245 149.12512 
L 390.190726 117.462525 
L 390.511207 101.631227 
L 390.831688 115.026941 
L 391.152169 121.115901 
L 391.47265 118.680317 
L 391.793131 162.520833 
L 392.113612 168.609794 
L 392.434093 128.422654 
L 392.754574 124.769278 
L 393.075055 105.284604 
L 393.395536 116.244733 
L 393.716017 117.462525 
L 394.036498 163.738625 
L 394.356979 158.867457 
L 394.67746 102.84902 
L 394.997941 110.155772 
L 395.318422 97.977851 
L 395.959384 119.898109 
L 396.279865 177.134338 
L 396.600346 166.174209 
L 396.920827 87.017722 
L 397.241308 113.809149 
L 397.561789 101.631227 
L 397.88227 111.373564 
L 398.202751 157.649665 
L 398.523232 164.956417 
L 398.843713 157.649665 
L 399.164194 96.760059 
L 399.484675 130.858238 
L 399.805156 125.98707 
L 400.125637 140.600575 
L 400.446118 88.235514 
L 400.766599 134.511614 
L 401.08708 143.036159 
L 401.407561 107.720188 
L 401.728042 107.720188 
L 402.048523 106.502396 
L 402.369004 95.542267 
L 402.689485 106.502396 
L 403.009966 163.738625 
L 403.330447 156.431872 
L 403.650928 117.462525 
L 403.971409 115.026941 
L 404.29189 97.977851 
L 404.612371 104.066812 
L 404.932852 102.84902 
L 405.253333 157.649665 
L 405.573814 164.956417 
L 405.894295 99.195643 
L 406.214776 113.809149 
L 406.535257 101.631227 
L 406.855738 136.947199 
L 407.176219 116.244733 
L 407.817181 160.085249 
L 408.137662 107.720188 
L 408.458143 119.898109 
L 409.099105 99.195643 
L 409.740067 146.689536 
L 410.060548 132.07603 
L 410.381029 89.453306 
L 410.70151 163.738625 
L 411.021991 116.244733 
L 411.342472 87.017722 
L 411.662953 106.502396 
L 411.983434 150.342912 
L 412.303915 151.560704 
L 412.944877 76.057593 
L 413.265358 95.542267 
L 413.585839 100.413435 
L 413.90632 115.026941 
L 414.226801 157.649665 
L 414.547282 144.253951 
L 414.867763 72.404217 
L 415.188244 97.977851 
L 415.508725 97.977851 
L 415.829206 93.106683 
L 416.149687 110.155772 
L 416.470168 147.907328 
L 416.790649 143.036159 
L 417.11113 106.502396 
L 417.431611 110.155772 
L 418.393054 128.422654 
L 418.713535 147.907328 
L 419.034016 138.164991 
L 419.354497 152.778496 
L 419.674978 83.364346 
L 419.995459 94.324475 
L 420.31594 168.609794 
L 420.636421 112.591356 
L 420.956902 155.21408 
L 421.277383 140.600575 
L 421.597864 88.235514 
L 421.918345 79.710969 
L 422.238826 74.839801 
L 422.559307 97.977851 
L 422.879788 60.226296 
L 423.200269 110.155772 
L 423.52075 122.333693 
L 423.841231 67.533048 
L 424.161712 74.839801 
L 424.482193 62.66188 
L 424.802674 37.088246 
L 425.123155 50.483959 
L 425.443636 107.720188 
L 425.764117 140.600575 
L 426.084598 39.52383 
L 426.72556 117.462525 
L 427.046041 101.631227 
L 427.366522 184.441091 
L 427.687003 184.441091 
L 428.007484 149.12512 
L 428.327965 99.195643 
L 428.648446 79.710969 
L 428.968927 104.066812 
L 429.289407 108.93798 
L 429.609888 116.244733 
L 429.930369 152.778496 
L 430.25085 163.738625 
L 430.571331 101.631227 
L 430.891812 77.275385 
L 431.212293 96.760059 
L 431.532774 90.671098 
L 431.853255 100.413435 
L 432.173736 173.480962 
L 432.494217 180.787715 
L 432.814698 117.462525 
L 433.45566 84.582138 
L 433.776141 106.502396 
L 434.096622 111.373564 
L 434.417103 156.431872 
L 434.737584 169.827586 
L 435.058065 112.591356 
L 435.378546 116.244733 
L 435.699027 143.036159 
L 436.339989 85.79993 
L 436.66047 175.916546 
L 436.980951 161.303041 
L 437.301432 94.324475 
L 437.621913 101.631227 
L 437.942394 104.066812 
L 438.262875 116.244733 
L 438.583356 102.84902 
L 438.903837 164.956417 
L 439.224318 166.174209 
L 439.544799 105.284604 
L 439.86528 169.827586 
L 440.185761 106.502396 
L 440.506242 115.026941 
L 440.826723 91.888891 
L 441.147204 182.005507 
L 441.467685 162.520833 
L 441.788166 93.106683 
L 442.108647 122.333693 
L 442.429128 112.591356 
L 442.749609 157.649665 
L 443.07009 96.760059 
L 443.390571 164.956417 
L 443.711052 164.956417 
L 444.031533 112.591356 
L 444.352014 122.333693 
L 444.672495 123.551485 
L 444.992976 195.40122 
L 445.313457 158.867457 
L 445.633938 180.787715 
L 445.954419 180.787715 
L 446.2749 119.898109 
L 446.595381 163.738625 
L 447.556824 110.155772 
L 447.877305 177.134338 
L 448.197786 169.827586 
L 448.518267 119.898109 
L 448.838748 115.026941 
L 449.159229 121.115901 
L 449.47971 88.235514 
L 449.800191 116.244733 
L 450.120672 173.480962 
L 450.441153 166.174209 
L 450.761634 125.98707 
L 451.082115 104.066812 
L 451.402596 133.293822 
L 451.723077 149.12512 
L 452.043558 129.640446 
L 452.364039 174.698754 
L 452.68452 182.005507 
L 453.005001 116.244733 
L 453.645963 172.26317 
L 453.966444 164.956417 
L 454.286925 197.836804 
L 454.607406 163.738625 
L 454.927887 191.747844 
L 455.248368 144.253951 
L 455.568849 152.778496 
L 455.88933 122.333693 
L 456.209811 140.600575 
L 456.530292 190.530052 
L 456.850773 190.530052 
L 457.171254 186.876675 
L 457.491735 146.689536 
L 457.812216 149.12512 
L 458.132697 130.858238 
L 458.453178 144.253951 
L 458.773659 123.551485 
L 459.09414 180.787715 
L 459.414621 188.094467 
L 459.735102 146.689536 
L 460.055583 145.471743 
L 460.376064 152.778496 
L 461.017026 119.898109 
L 461.337507 175.916546 
L 461.657988 185.658883 
L 461.978469 188.094467 
L 462.619431 139.382783 
L 462.939912 151.560704 
L 463.260393 153.996288 
L 463.580874 205.143557 
L 464.862798 205.143557 
L 465.183279 178.35213 
L 465.50376 175.916546 
L 465.824241 186.876675 
L 466.144722 180.787715 
L 466.465203 145.471743 
L 466.785684 147.907328 
L 467.106165 175.916546 
L 467.426646 136.947199 
L 467.747127 163.738625 
L 468.067608 179.569923 
L 468.388089 178.35213 
L 468.70857 161.303041 
L 469.029051 150.342912 
L 469.349532 144.253951 
L 469.990494 164.956417 
L 470.310975 192.965636 
L 470.631456 192.965636 
L 470.951937 190.530052 
L 471.592899 147.907328 
L 471.91338 144.253951 
L 472.233861 157.649665 
L 472.554342 152.778496 
L 472.874823 163.738625 
L 473.195304 136.947199 
L 473.515785 183.223299 
L 473.836266 186.876675 
L 474.156747 157.649665 
L 474.477228 143.036159 
L 474.797709 182.005507 
L 475.43867 122.333693 
L 475.759151 125.98707 
L 476.079632 134.511614 
L 476.400113 138.164991 
L 477.041075 185.658883 
L 477.361556 184.441091 
L 477.682037 145.471743 
L 478.002518 130.858238 
L 478.322999 133.293822 
L 478.64348 110.155772 
L 479.284442 166.174209 
L 479.604923 162.520833 
L 479.925404 178.35213 
L 480.245885 135.729407 
L 480.566366 124.769278 
L 480.886847 118.680317 
L 481.527809 169.827586 
L 481.84829 174.698754 
L 482.168771 152.778496 
L 482.809733 127.204862 
L 483.130214 124.769278 
L 483.450695 136.947199 
L 483.771176 182.005507 
L 484.091657 174.698754 
L 484.412138 174.698754 
L 485.373581 123.551485 
L 486.014543 178.35213 
L 486.335024 191.747844 
L 486.655505 174.698754 
L 486.975986 166.174209 
L 487.296467 162.520833 
L 487.616948 146.689536 
L 487.937429 149.12512 
L 488.25791 188.094467 
L 488.578391 173.480962 
L 488.898872 132.07603 
L 489.219353 168.609794 
L 489.539834 123.551485 
L 489.860315 117.462525 
L 490.180796 129.640446 
L 490.501277 150.342912 
L 490.821758 158.867457 
L 491.142239 100.413435 
L 491.46272 106.502396 
L 491.783201 94.324475 
L 492.103682 95.542267 
L 492.424163 113.809149 
L 492.744644 166.174209 
L 493.065125 163.738625 
L 493.385606 117.462525 
L 493.706087 110.155772 
L 494.026568 110.155772 
L 494.347049 113.809149 
L 494.66753 122.333693 
L 494.988011 145.471743 
L 495.308492 191.747844 
L 495.628973 113.809149 
L 495.949454 171.045378 
L 496.269935 145.471743 
L 496.590416 110.155772 
L 496.910897 175.916546 
L 497.231378 161.303041 
L 497.551859 167.392001 
L 497.87234 97.977851 
L 498.192821 108.93798 
L 498.513302 79.710969 
L 498.833783 99.195643 
L 499.154264 130.858238 
L 499.474745 129.640446 
L 499.795226 149.12512 
L 500.115707 90.671098 
L 500.436188 105.284604 
L 500.756669 110.155772 
L 501.07715 83.364346 
L 501.397631 85.79993 
L 501.718112 158.867457 
L 502.038593 135.729407 
L 502.359074 89.453306 
L 502.679555 135.729407 
L 503.000036 73.622009 
L 503.320517 91.888891 
L 503.640998 130.858238 
L 503.961479 151.560704 
L 504.28196 160.085249 
L 504.602441 157.649665 
L 504.922922 80.928762 
L 505.243403 87.017722 
L 505.563884 104.066812 
L 505.884365 145.471743 
L 506.204846 172.26317 
L 506.525327 178.35213 
L 506.845808 78.493177 
L 507.166289 63.879672 
L 507.48677 115.026941 
L 508.127732 80.928762 
L 508.448213 150.342912 
L 508.768694 153.996288 
L 509.089175 74.839801 
L 509.409656 77.275385 
L 509.730137 84.582138 
L 510.050618 117.462525 
L 510.371099 101.631227 
L 511.012061 152.778496 
L 511.332542 90.671098 
L 511.653023 106.502396 
L 511.973504 83.364346 
L 512.293985 90.671098 
L 512.614466 68.75084 
L 512.934947 135.729407 
L 513.255428 129.640446 
L 513.575909 77.275385 
L 513.89639 105.284604 
L 514.216871 76.057593 
L 514.537352 71.186425 
L 515.178314 157.649665 
L 515.498795 149.12512 
L 515.819276 167.392001 
L 516.139757 93.106683 
L 516.460238 87.017722 
L 516.780719 87.017722 
L 517.1012 106.502396 
L 517.421681 151.560704 
L 517.742162 167.392001 
L 518.062643 87.017722 
L 518.383124 74.839801 
L 518.703605 84.582138 
L 519.024086 83.364346 
L 519.344567 67.533048 
L 519.665048 128.422654 
L 519.985529 132.07603 
L 520.30601 72.404217 
L 521.267452 102.84902 
L 521.587933 91.888891 
L 521.908414 161.303041 
L 522.228895 140.600575 
L 522.549376 130.858238 
L 522.869857 62.66188 
L 523.190338 94.324475 
L 523.510819 95.542267 
L 523.8313 145.471743 
L 524.151781 173.480962 
L 524.472262 161.303041 
L 524.792743 108.93798 
L 525.113224 88.235514 
L 525.433705 76.057593 
L 525.754186 89.453306 
L 526.074667 108.93798 
L 526.395148 156.431872 
L 526.715629 132.07603 
L 527.03611 63.879672 
L 527.356591 97.977851 
L 527.677072 112.591356 
L 527.997553 88.235514 
L 528.638515 160.085249 
L 528.958996 162.520833 
L 529.279477 66.315256 
L 529.599958 96.760059 
L 530.24092 122.333693 
L 530.561401 115.026941 
L 530.881882 155.21408 
L 531.202363 156.431872 
L 531.522844 77.275385 
L 532.163806 116.244733 
L 532.484287 85.79993 
L 532.804768 99.195643 
L 533.125249 153.996288 
L 533.44573 135.729407 
L 533.766211 107.720188 
L 534.086692 108.93798 
L 534.407173 97.977851 
L 534.727654 152.778496 
L 535.048135 117.462525 
L 535.368616 147.907328 
L 536.009578 156.431872 
L 536.330059 88.235514 
L 536.65054 82.146554 
L 536.971021 99.195643 
L 537.291502 97.977851 
L 537.611983 158.867457 
L 537.932464 136.947199 
L 538.252945 78.493177 
L 538.573426 89.453306 
L 538.893907 67.533048 
L 539.214388 83.364346 
L 539.534869 69.968633 
L 539.85535 136.947199 
L 540.175831 134.511614 
L 540.496312 129.640446 
L 540.816793 48.048375 
L 541.137274 88.235514 
L 541.778236 63.879672 
L 542.098717 147.907328 
L 542.419198 158.867457 
L 542.739679 77.275385 
L 543.06016 102.84902 
L 543.380641 74.839801 
L 543.701122 106.502396 
L 544.021603 168.609794 
L 544.342084 157.649665 
L 544.662565 152.778496 
L 544.983046 72.404217 
L 545.303527 73.622009 
L 545.624008 84.582138 
L 545.944489 80.928762 
L 546.26497 90.671098 
L 546.585451 166.174209 
L 546.905932 177.134338 
L 547.226413 102.84902 
L 547.546894 88.235514 
L 547.867375 94.324475 
L 548.187856 79.710969 
L 548.508337 99.195643 
L 548.828818 130.858238 
L 549.149299 130.858238 
L 549.46978 62.66188 
L 549.790261 69.968633 
L 550.110742 61.444088 
L 550.431223 88.235514 
L 550.751704 145.471743 
L 551.072185 178.35213 
L 551.392666 164.956417 
L 551.713147 89.453306 
L 552.033628 106.502396 
L 552.354109 116.244733 
L 552.67459 178.35213 
L 552.995071 125.98707 
L 553.315552 161.303041 
L 553.636033 153.996288 
L 553.956514 110.155772 
L 554.276995 90.671098 
L 554.597476 89.453306 
L 554.917957 96.760059 
L 555.238438 93.106683 
L 555.558919 155.21408 
L 555.8794 140.600575 
L 556.199881 99.195643 
L 556.520362 107.720188 
L 556.840843 119.898109 
L 557.161324 99.195643 
L 557.802286 153.996288 
L 558.122767 163.738625 
L 558.443248 104.066812 
L 558.763729 175.916546 
L 559.08421 125.98707 
L 559.404691 106.502396 
L 559.725172 110.155772 
L 560.045653 163.738625 
L 560.366134 175.916546 
L 560.686615 151.560704 
L 561.007096 150.342912 
L 561.327577 161.303041 
L 561.648058 190.530052 
L 561.968539 179.569923 
L 562.28902 174.698754 
L 562.609501 194.183428 
L 562.929982 121.115901 
L 563.250463 172.26317 
L 563.570944 166.174209 
L 563.891425 115.026941 
L 564.211906 108.93798 
L 564.532387 162.520833 
L 564.852868 167.392001 
L 565.173349 128.422654 
L 565.49383 149.12512 
L 565.814311 134.511614 
L 566.455273 134.511614 
L 566.775754 183.223299 
L 567.096235 179.569923 
L 567.416715 167.392001 
L 567.737196 140.600575 
L 568.057677 149.12512 
L 568.378158 153.996288 
L 568.698639 169.827586 
L 569.01912 192.965636 
L 569.339601 184.441091 
L 569.660082 168.609794 
L 569.980563 161.303041 
L 570.301044 161.303041 
L 570.621525 164.956417 
L 570.942006 174.698754 
L 571.262487 199.054596 
L 571.582968 191.747844 
L 571.903449 197.836804 
L 572.22393 153.996288 
L 572.864892 177.134338 
L 573.185373 177.134338 
L 573.505854 178.35213 
L 573.826335 196.619012 
L 574.146816 194.183428 
L 574.467297 183.223299 
L 574.787778 153.996288 
L 575.108259 164.956417 
L 575.42874 162.520833 
L 575.749221 199.054596 
L 576.069702 199.054596 
L 576.390183 171.045378 
L 576.710664 169.827586 
L 577.031145 146.689536 
L 577.351626 138.164991 
L 577.672107 147.907328 
L 577.992588 197.836804 
L 578.313069 190.530052 
L 578.63355 171.045378 
L 578.954031 173.480962 
L 579.274512 129.640446 
L 579.594993 141.818367 
L 579.915474 166.174209 
L 580.235955 161.303041 
L 580.556436 179.569923 
L 580.876917 180.787715 
L 581.197398 178.35213 
L 581.517879 118.680317 
L 581.83836 158.867457 
L 582.158841 146.689536 
L 582.479322 182.005507 
L 582.799803 184.441091 
L 583.120284 147.907328 
L 583.440765 163.738625 
L 583.761246 152.778496 
L 584.081727 149.12512 
L 584.402208 171.045378 
L 584.722689 182.005507 
L 585.04317 180.787715 
L 585.363651 155.21408 
L 585.684132 175.916546 
L 586.004613 153.996288 
L 586.325094 205.143557 
L 586.645575 201.490181 
L 586.966056 191.747844 
L 587.286537 201.490181 
L 587.607018 160.085249 
L 587.927499 167.392001 
L 588.24798 168.609794 
L 588.568461 163.738625 
L 589.209423 180.787715 
L 589.529904 163.738625 
L 589.850385 160.085249 
L 590.170866 149.12512 
L 590.491347 146.689536 
L 590.811828 146.689536 
L 591.132309 133.293822 
L 591.45279 163.738625 
L 591.773271 175.916546 
L 592.414233 133.293822 
L 592.734714 147.907328 
L 593.055195 152.778496 
L 593.375676 150.342912 
L 593.696157 184.441091 
L 594.016638 179.569923 
L 594.337119 146.689536 
L 594.6576 164.956417 
L 594.978081 144.253951 
L 595.298562 134.511614 
L 595.619043 185.658883 
L 595.939524 190.530052 
L 596.260005 200.272388 
L 596.580486 169.827586 
L 596.900967 205.143557 
L 597.86241 205.143557 
L 598.182891 191.747844 
L 598.503372 190.530052 
L 599.144334 150.342912 
L 599.785296 175.916546 
L 600.105777 156.431872 
L 600.746739 192.965636 
L 601.06722 183.223299 
L 601.387701 180.787715 
L 601.708182 152.778496 
L 602.028663 161.303041 
L 602.349144 195.40122 
L 602.669625 190.530052 
L 602.990106 164.956417 
L 603.310587 108.93798 
L 603.631068 158.867457 
L 603.951549 145.471743 
L 604.27203 183.223299 
L 604.592511 161.303041 
L 604.912992 177.134338 
L 605.233473 150.342912 
L 605.553954 102.84902 
L 605.874435 85.79993 
L 606.194916 105.284604 
L 606.515397 136.947199 
L 606.835878 124.769278 
L 607.156359 152.778496 
L 607.47684 151.560704 
L 607.797321 97.977851 
L 608.438283 124.769278 
L 608.758764 168.609794 
L 609.079245 160.085249 
L 609.399726 166.174209 
L 609.720207 143.036159 
L 610.040688 102.84902 
L 610.361169 185.658883 
L 611.002131 129.640446 
L 611.322612 101.631227 
L 611.643093 146.689536 
L 611.963574 155.21408 
L 612.284055 83.364346 
L 612.604536 85.79993 
L 612.925017 72.404217 
L 613.245497 107.720188 
L 613.565978 182.005507 
L 613.886459 145.471743 
L 614.20694 172.26317 
L 614.527421 117.462525 
L 614.847902 95.542267 
L 615.168383 107.720188 
L 615.488864 101.631227 
L 615.809345 93.106683 
L 616.129826 200.272388 
L 616.450307 169.827586 
L 616.770788 93.106683 
L 617.091269 82.146554 
L 617.41175 79.710969 
L 618.052712 104.066812 
L 618.373193 163.738625 
L 618.693674 164.956417 
L 619.014155 160.085249 
L 619.334636 89.453306 
L 619.655117 116.244733 
L 619.975598 185.658883 
L 620.296079 143.036159 
L 620.61656 156.431872 
L 620.937041 162.520833 
L 621.257522 171.045378 
L 621.578003 106.502396 
L 621.898484 119.898109 
L 622.218965 88.235514 
L 622.539446 91.888891 
L 622.859927 136.947199 
L 623.180408 140.600575 
L 623.500889 80.928762 
L 623.82137 146.689536 
L 624.141851 79.710969 
L 624.462332 83.364346 
L 624.782813 78.493177 
L 625.103294 130.858238 
L 625.423775 153.996288 
L 625.744256 77.275385 
L 626.385218 116.244733 
L 626.705699 78.493177 
L 627.346661 163.738625 
L 627.667142 163.738625 
L 627.987623 145.471743 
L 628.308104 93.106683 
L 628.628585 105.284604 
L 628.949066 79.710969 
L 629.590028 163.738625 
L 630.23099 87.017722 
L 630.551471 110.155772 
L 630.871952 89.453306 
L 631.192433 89.453306 
L 631.833395 171.045378 
L 632.153876 140.600575 
L 632.474357 94.324475 
L 632.794838 143.036159 
L 633.115319 77.275385 
L 633.4358 90.671098 
L 633.756281 158.867457 
L 634.076762 138.164991 
L 634.397243 125.98707 
L 634.717724 60.226296 
L 635.038205 102.84902 
L 635.358686 88.235514 
L 635.679167 91.888891 
L 635.999648 146.689536 
L 636.64061 129.640446 
L 636.961091 72.404217 
L 637.281572 73.622009 
L 637.602053 85.79993 
L 637.922534 88.235514 
L 638.243015 89.453306 
L 638.563496 156.431872 
L 639.204458 136.947199 
L 639.84542 68.75084 
L 640.165901 79.710969 
L 640.486382 101.631227 
L 640.806863 144.253951 
L 641.127344 144.253951 
L 641.447825 52.919543 
L 642.088787 95.542267 
L 642.409268 79.710969 
L 643.05023 141.818367 
L 643.370711 149.12512 
L 643.691192 152.778496 
L 644.011673 56.572919 
L 644.332154 69.968633 
L 644.652635 76.057593 
L 645.293597 140.600575 
L 645.614078 144.253951 
L 645.934559 68.75084 
L 646.25504 90.671098 
L 646.575521 57.790711 
L 646.896002 99.195643 
L 647.216483 155.21408 
L 647.536964 129.640446 
L 647.857445 117.462525 
L 648.177926 77.275385 
L 648.498407 84.582138 
L 648.818888 95.542267 
L 649.139369 93.106683 
L 649.45985 101.631227 
L 649.780331 144.253951 
L 650.100812 147.907328 
L 650.421293 73.622009 
L 650.741774 150.342912 
L 651.062255 73.622009 
L 651.382736 83.364346 
L 651.703217 108.93798 
L 652.023698 153.996288 
L 652.344179 164.956417 
L 652.985141 77.275385 
L 653.305622 139.382783 
L 653.626103 93.106683 
L 653.946584 74.839801 
L 654.267065 140.600575 
L 654.587546 144.253951 
L 654.908027 65.097464 
L 655.228508 83.364346 
L 655.548989 83.364346 
L 655.86947 61.444088 
L 656.189951 80.928762 
L 656.510432 160.085249 
L 656.830913 147.907328 
L 657.151394 88.235514 
L 657.471875 104.066812 
L 657.792356 76.057593 
L 658.112837 110.155772 
L 658.433318 99.195643 
L 658.753799 146.689536 
L 659.07428 134.511614 
L 659.39476 69.968633 
L 659.715241 71.186425 
L 660.356203 95.542267 
L 660.676684 91.888891 
L 660.997165 158.867457 
L 661.317646 141.818367 
L 661.638127 104.066812 
L 661.958608 100.413435 
L 662.279089 87.017722 
L 662.59957 102.84902 
L 662.920051 96.760059 
L 663.240532 140.600575 
L 663.561013 164.956417 
L 663.881494 146.689536 
L 664.201975 78.493177 
L 664.842937 115.026941 
L 665.163418 101.631227 
L 665.483899 155.21408 
L 665.80438 162.520833 
L 666.124861 88.235514 
L 666.445342 101.631227 
L 666.765823 77.275385 
L 667.086304 89.453306 
L 667.406785 94.324475 
L 667.727266 147.907328 
L 668.047747 134.511614 
L 668.368228 57.790711 
L 668.688709 140.600575 
L 669.00919 83.364346 
L 669.329671 100.413435 
L 669.650152 108.93798 
L 669.970633 135.729407 
L 670.291114 192.965636 
L 670.932076 108.93798 
L 671.252557 90.671098 
L 671.573038 87.017722 
L 671.893519 85.79993 
L 672.214 152.778496 
L 672.534481 157.649665 
L 672.854962 90.671098 
L 673.175443 155.21408 
L 673.495924 107.720188 
L 673.816405 115.026941 
L 674.457367 173.480962 
L 674.777848 164.956417 
L 675.098329 134.511614 
L 675.41881 130.858238 
L 675.739291 115.026941 
L 676.059772 135.729407 
L 676.380253 133.293822 
L 676.700734 182.005507 
L 677.021215 171.045378 
L 677.341696 132.07603 
L 677.662177 132.07603 
L 678.303139 199.054596 
L 678.62362 179.569923 
L 678.944101 175.916546 
L 679.264582 175.916546 
L 679.585063 125.98707 
L 679.905544 113.809149 
L 680.226025 111.373564 
L 680.546506 118.680317 
L 680.866987 121.115901 
L 681.187468 169.827586 
L 681.507949 180.787715 
L 681.82843 115.026941 
L 682.148911 124.769278 
L 682.469392 107.720188 
L 682.789873 112.591356 
L 683.110354 132.07603 
L 683.430835 195.40122 
L 683.751316 180.787715 
L 684.071797 127.204862 
L 684.392278 132.07603 
L 684.712759 145.471743 
L 685.03324 172.26317 
L 685.353721 172.26317 
L 685.674202 186.876675 
L 685.994683 191.747844 
L 686.315164 147.907328 
L 686.635645 141.818367 
L 686.956126 129.640446 
L 687.276607 150.342912 
L 687.597088 151.560704 
L 687.917569 194.183428 
L 688.23805 195.40122 
L 688.558531 192.965636 
L 688.879012 189.312259 
L 689.519974 191.747844 
L 689.840455 191.747844 
L 690.160936 203.925765 
L 690.481417 196.619012 
L 690.481417 196.619012 
" clip-path="url(#p8a1f0f65a7)" style="fill: none; stroke: #000000; stroke-width: 2; stroke-linecap: square"/>
   </g>
   <g id="patch_3">
    <path d="M 45.40125 213.546322 
L 45.40125 28.68548 
" style="fill: none; stroke: #bcbcbc; stroke-width: 0.8; stroke-linejoin: miter; stroke-linecap: square"/>
   </g>
   <g id="patch_4">
    <path d="M 721.19952 213.546322 
L 721.19952 28.68548 
" style="fill: none; stroke: #bcbcbc; stroke-width: 0.8; stroke-linejoin: miter; stroke-linecap: square"/>
   </g>
   <g id="patch_5">
    <path d="M 45.40125 213.546322 
L 721.19952 213.546322 
" style="fill: none; stroke: #bcbcbc; stroke-width: 0.8; stroke-linejoin: miter; stroke-linecap: square"/>
   </g>
   <g id="patch_6">
    <path d="M 45.40125 28.68548 
L 721.19952 28.68548 
" style="fill: none; stroke: #bcbcbc; stroke-width: 0.8; stroke-linejoin: miter; stroke-linecap: square"/>
   </g>
  </g>
  <g id="axes_2">
   <g id="patch_7">
    <path d="M 45.40125 404.407645 
L 721.19952 404.407645 
L 721.19952 219.546802 
L 45.40125 219.546802 
z
" style="fill: #eeeeee"/>
   </g>
   <g id="matplotlib.axis_3">
    <g id="xtick_7">
     <g id="line2d_30">
      <path d="M 105.603605 404.407645 
L 105.603605 219.546802 
" clip-path="url(#p58a800e852)" style="fill: none; stroke-dasharray: 1.85,0.8; stroke-dashoffset: 0; stroke: #b2b2b2; stroke-width: 0.5"/>
     </g>
     <g id="line2d_31">
      <g>
       <use xlink:href="#m895ccedbf0" x="105.603605" y="404.407645" style="stroke: #000000; stroke-width: 0.8"/>
      </g>
     </g>
     <g id="text_10">
      <!-- 2013 -->
      <g transform="translate(92.878605 415.506082)scale(0.1 -0.1)">
       <defs>
        <path id="DejaVuSans-33" d="M 2597 2516 
Q 3050 2419 3304 2112 
Q 3559 1806 3559 1356 
Q 3559 666 3084 287 
Q 2609 -91 1734 -91 
Q 1441 -91 1130 -33 
Q 819 25 488 141 
L 488 750 
Q 750 597 1062 519 
Q 1375 441 1716 441 
Q 2309 441 2620 675 
Q 2931 909 2931 1356 
Q 2931 1769 2642 2001 
Q 2353 2234 1838 2234 
L 1294 2234 
L 1294 2753 
L 1863 2753 
Q 2328 2753 2575 2939 
Q 2822 3125 2822 3475 
Q 2822 3834 2567 4026 
Q 2313 4219 1838 4219 
Q 1578 4219 1281 4162 
Q 984 4106 628 3988 
L 628 4550 
Q 988 4650 1302 4700 
Q 1616 4750 1894 4750 
Q 2613 4750 3031 4423 
Q 3450 4097 3450 3541 
Q 3450 3153 3228 2886 
Q 3006 2619 2597 2516 
z
" transform="scale(0.015625)"/>
       </defs>
       <use xlink:href="#DejaVuSans-32"/>
       <use xlink:href="#DejaVuSans-30" x="63.623047"/>
       <use xlink:href="#DejaVuSans-31" x="127.246094"/>
       <use xlink:href="#DejaVuSans-33" x="190.869141"/>
      </g>
     </g>
    </g>
    <g id="xtick_8">
     <g id="line2d_32">
      <path d="M 222.579167 404.407645 
L 222.579167 219.546802 
" clip-path="url(#p58a800e852)" style="fill: none; stroke-dasharray: 1.85,0.8; stroke-dashoffset: 0; stroke: #b2b2b2; stroke-width: 0.5"/>
     </g>
     <g id="line2d_33">
      <g>
       <use xlink:href="#m895ccedbf0" x="222.579167" y="404.407645" style="stroke: #000000; stroke-width: 0.8"/>
      </g>
     </g>
     <g id="text_11">
      <!-- 2014 -->
      <g transform="translate(209.854167 415.506082)scale(0.1 -0.1)">
       <use xlink:href="#DejaVuSans-32"/>
       <use xlink:href="#DejaVuSans-30" x="63.623047"/>
       <use xlink:href="#DejaVuSans-31" x="127.246094"/>
       <use xlink:href="#DejaVuSans-34" x="190.869141"/>
      </g>
     </g>
    </g>
    <g id="xtick_9">
     <g id="line2d_34">
      <path d="M 339.554729 404.407645 
L 339.554729 219.546802 
" clip-path="url(#p58a800e852)" style="fill: none; stroke-dasharray: 1.85,0.8; stroke-dashoffset: 0; stroke: #b2b2b2; stroke-width: 0.5"/>
     </g>
     <g id="line2d_35">
      <g>
       <use xlink:href="#m895ccedbf0" x="339.554729" y="404.407645" style="stroke: #000000; stroke-width: 0.8"/>
      </g>
     </g>
     <g id="text_12">
      <!-- 2015 -->
      <g transform="translate(326.829729 415.506082)scale(0.1 -0.1)">
       <defs>
        <path id="DejaVuSans-35" d="M 691 4666 
L 3169 4666 
L 3169 4134 
L 1269 4134 
L 1269 2991 
Q 1406 3038 1543 3061 
Q 1681 3084 1819 3084 
Q 2600 3084 3056 2656 
Q 3513 2228 3513 1497 
Q 3513 744 3044 326 
Q 2575 -91 1722 -91 
Q 1428 -91 1123 -41 
Q 819 9 494 109 
L 494 744 
Q 775 591 1075 516 
Q 1375 441 1709 441 
Q 2250 441 2565 725 
Q 2881 1009 2881 1497 
Q 2881 1984 2565 2268 
Q 2250 2553 1709 2553 
Q 1456 2553 1204 2497 
Q 953 2441 691 2322 
L 691 4666 
z
" transform="scale(0.015625)"/>
       </defs>
       <use xlink:href="#DejaVuSans-32"/>
       <use xlink:href="#DejaVuSans-30" x="63.623047"/>
       <use xlink:href="#DejaVuSans-31" x="127.246094"/>
       <use xlink:href="#DejaVuSans-35" x="190.869141"/>
      </g>
     </g>
    </g>
    <g id="xtick_10">
     <g id="line2d_36">
      <path d="M 456.530292 404.407645 
L 456.530292 219.546802 
" clip-path="url(#p58a800e852)" style="fill: none; stroke-dasharray: 1.85,0.8; stroke-dashoffset: 0; stroke: #b2b2b2; stroke-width: 0.5"/>
     </g>
     <g id="line2d_37">
      <g>
       <use xlink:href="#m895ccedbf0" x="456.530292" y="404.407645" style="stroke: #000000; stroke-width: 0.8"/>
      </g>
     </g>
     <g id="text_13">
      <!-- 2016 -->
      <g transform="translate(443.805292 415.506082)scale(0.1 -0.1)">
       <use xlink:href="#DejaVuSans-32"/>
       <use xlink:href="#DejaVuSans-30" x="63.623047"/>
       <use xlink:href="#DejaVuSans-31" x="127.246094"/>
       <use xlink:href="#DejaVuSans-36" x="190.869141"/>
      </g>
     </g>
    </g>
    <g id="xtick_11">
     <g id="line2d_38">
      <path d="M 573.826335 404.407645 
L 573.826335 219.546802 
" clip-path="url(#p58a800e852)" style="fill: none; stroke-dasharray: 1.85,0.8; stroke-dashoffset: 0; stroke: #b2b2b2; stroke-width: 0.5"/>
     </g>
     <g id="line2d_39">
      <g>
       <use xlink:href="#m895ccedbf0" x="573.826335" y="404.407645" style="stroke: #000000; stroke-width: 0.8"/>
      </g>
     </g>
     <g id="text_14">
      <!-- 2017 -->
      <g transform="translate(561.101335 415.506082)scale(0.1 -0.1)">
       <defs>
        <path id="DejaVuSans-37" d="M 525 4666 
L 3525 4666 
L 3525 4397 
L 1831 0 
L 1172 0 
L 2766 4134 
L 525 4134 
L 525 4666 
z
" transform="scale(0.015625)"/>
       </defs>
       <use xlink:href="#DejaVuSans-32"/>
       <use xlink:href="#DejaVuSans-30" x="63.623047"/>
       <use xlink:href="#DejaVuSans-31" x="127.246094"/>
       <use xlink:href="#DejaVuSans-37" x="190.869141"/>
      </g>
     </g>
    </g>
    <g id="xtick_12">
     <g id="line2d_40">
      <path d="M 690.801898 404.407645 
L 690.801898 219.546802 
" clip-path="url(#p58a800e852)" style="fill: none; stroke-dasharray: 1.85,0.8; stroke-dashoffset: 0; stroke: #b2b2b2; stroke-width: 0.5"/>
     </g>
     <g id="line2d_41">
      <g>
       <use xlink:href="#m895ccedbf0" x="690.801898" y="404.407645" style="stroke: #000000; stroke-width: 0.8"/>
      </g>
     </g>
     <g id="text_15">
      <!-- 2018 -->
      <g transform="translate(678.076898 415.506082)scale(0.1 -0.1)">
       <use xlink:href="#DejaVuSans-32"/>
       <use xlink:href="#DejaVuSans-30" x="63.623047"/>
       <use xlink:href="#DejaVuSans-31" x="127.246094"/>
       <use xlink:href="#DejaVuSans-38" x="190.869141"/>
      </g>
     </g>
    </g>
    <g id="text_16">
     <!-- date -->
     <g transform="translate(369.770385 430.703895)scale(0.12 -0.12)">
      <defs>
       <path id="DejaVuSans-64" d="M 2906 2969 
L 2906 4863 
L 3481 4863 
L 3481 0 
L 2906 0 
L 2906 525 
Q 2725 213 2448 61 
Q 2172 -91 1784 -91 
Q 1150 -91 751 415 
Q 353 922 353 1747 
Q 353 2572 751 3078 
Q 1150 3584 1784 3584 
Q 2172 3584 2448 3432 
Q 2725 3281 2906 2969 
z
M 947 1747 
Q 947 1113 1208 752 
Q 1469 391 1925 391 
Q 2381 391 2643 752 
Q 2906 1113 2906 1747 
Q 2906 2381 2643 2742 
Q 2381 3103 1925 3103 
Q 1469 3103 1208 2742 
Q 947 2381 947 1747 
z
" transform="scale(0.015625)"/>
       <path id="DejaVuSans-74" d="M 1172 4494 
L 1172 3500 
L 2356 3500 
L 2356 3053 
L 1172 3053 
L 1172 1153 
Q 1172 725 1289 603 
Q 1406 481 1766 481 
L 2356 481 
L 2356 0 
L 1766 0 
Q 1100 0 847 248 
Q 594 497 594 1153 
L 594 3053 
L 172 3053 
L 172 3500 
L 594 3500 
L 594 4494 
L 1172 4494 
z
" transform="scale(0.015625)"/>
      </defs>
      <use xlink:href="#DejaVuSans-64"/>
      <use xlink:href="#DejaVuSans-61" x="63.476562"/>
      <use xlink:href="#DejaVuSans-74" x="124.755859"/>
      <use xlink:href="#DejaVuSans-65" x="163.964844"/>
     </g>
    </g>
   </g>
   <g id="matplotlib.axis_4">
    <g id="ytick_9">
     <g id="line2d_42">
      <path d="M 45.40125 374.084621 
L 721.19952 374.084621 
" clip-path="url(#p58a800e852)" style="fill: none; stroke-dasharray: 1.85,0.8; stroke-dashoffset: 0; stroke: #b2b2b2; stroke-width: 0.5"/>
     </g>
     <g id="line2d_43">
      <g>
       <use xlink:href="#mfc7199bafd" x="45.40125" y="374.084621" style="stroke: #000000; stroke-width: 0.8"/>
      </g>
     </g>
     <g id="text_17">
      <!-- 270 -->
      <g transform="translate(22.81375 377.88384)scale(0.1 -0.1)">
       <use xlink:href="#DejaVuSans-32"/>
       <use xlink:href="#DejaVuSans-37" x="63.623047"/>
       <use xlink:href="#DejaVuSans-30" x="127.246094"/>
      </g>
     </g>
    </g>
    <g id="ytick_10">
     <g id="line2d_44">
      <path d="M 45.40125 337.550858 
L 721.19952 337.550858 
" clip-path="url(#p58a800e852)" style="fill: none; stroke-dasharray: 1.85,0.8; stroke-dashoffset: 0; stroke: #b2b2b2; stroke-width: 0.5"/>
     </g>
     <g id="line2d_45">
      <g>
       <use xlink:href="#mfc7199bafd" x="45.40125" y="337.550858" style="stroke: #000000; stroke-width: 0.8"/>
      </g>
     </g>
     <g id="text_18">
      <!-- 280 -->
      <g transform="translate(22.81375 341.350077)scale(0.1 -0.1)">
       <use xlink:href="#DejaVuSans-32"/>
       <use xlink:href="#DejaVuSans-38" x="63.623047"/>
       <use xlink:href="#DejaVuSans-30" x="127.246094"/>
      </g>
     </g>
    </g>
    <g id="ytick_11">
     <g id="line2d_46">
      <path d="M 45.40125 301.017095 
L 721.19952 301.017095 
" clip-path="url(#p58a800e852)" style="fill: none; stroke-dasharray: 1.85,0.8; stroke-dashoffset: 0; stroke: #b2b2b2; stroke-width: 0.5"/>
     </g>
     <g id="line2d_47">
      <g>
       <use xlink:href="#mfc7199bafd" x="45.40125" y="301.017095" style="stroke: #000000; stroke-width: 0.8"/>
      </g>
     </g>
     <g id="text_19">
      <!-- 290 -->
      <g transform="translate(22.81375 304.816313)scale(0.1 -0.1)">
       <defs>
        <path id="DejaVuSans-39" d="M 703 97 
L 703 672 
Q 941 559 1184 500 
Q 1428 441 1663 441 
Q 2288 441 2617 861 
Q 2947 1281 2994 2138 
Q 2813 1869 2534 1725 
Q 2256 1581 1919 1581 
Q 1219 1581 811 2004 
Q 403 2428 403 3163 
Q 403 3881 828 4315 
Q 1253 4750 1959 4750 
Q 2769 4750 3195 4129 
Q 3622 3509 3622 2328 
Q 3622 1225 3098 567 
Q 2575 -91 1691 -91 
Q 1453 -91 1209 -44 
Q 966 3 703 97 
z
M 1959 2075 
Q 2384 2075 2632 2365 
Q 2881 2656 2881 3163 
Q 2881 3666 2632 3958 
Q 2384 4250 1959 4250 
Q 1534 4250 1286 3958 
Q 1038 3666 1038 3163 
Q 1038 2656 1286 2365 
Q 1534 2075 1959 2075 
z
" transform="scale(0.015625)"/>
       </defs>
       <use xlink:href="#DejaVuSans-32"/>
       <use xlink:href="#DejaVuSans-39" x="63.623047"/>
       <use xlink:href="#DejaVuSans-30" x="127.246094"/>
      </g>
     </g>
    </g>
    <g id="ytick_12">
     <g id="line2d_48">
      <path d="M 45.40125 264.483331 
L 721.19952 264.483331 
" clip-path="url(#p58a800e852)" style="fill: none; stroke-dasharray: 1.85,0.8; stroke-dashoffset: 0; stroke: #b2b2b2; stroke-width: 0.5"/>
     </g>
     <g id="line2d_49">
      <g>
       <use xlink:href="#mfc7199bafd" x="45.40125" y="264.483331" style="stroke: #000000; stroke-width: 0.8"/>
      </g>
     </g>
     <g id="text_20">
      <!-- 300 -->
      <g transform="translate(22.81375 268.28255)scale(0.1 -0.1)">
       <use xlink:href="#DejaVuSans-33"/>
       <use xlink:href="#DejaVuSans-30" x="63.623047"/>
       <use xlink:href="#DejaVuSans-30" x="127.246094"/>
      </g>
     </g>
    </g>
    <g id="ytick_13">
     <g id="line2d_50">
      <path d="M 45.40125 227.949568 
L 721.19952 227.949568 
" clip-path="url(#p58a800e852)" style="fill: none; stroke-dasharray: 1.85,0.8; stroke-dashoffset: 0; stroke: #b2b2b2; stroke-width: 0.5"/>
     </g>
     <g id="line2d_51">
      <g>
       <use xlink:href="#mfc7199bafd" x="45.40125" y="227.949568" style="stroke: #000000; stroke-width: 0.8"/>
      </g>
     </g>
     <g id="text_21">
      <!-- 310 -->
      <g transform="translate(22.81375 231.748787)scale(0.1 -0.1)">
       <use xlink:href="#DejaVuSans-33"/>
       <use xlink:href="#DejaVuSans-31" x="63.623047"/>
       <use xlink:href="#DejaVuSans-30" x="127.246094"/>
      </g>
     </g>
    </g>
    <g id="text_22">
     <!-- temp -->
     <g transform="translate(16.318125 327.674724)rotate(-90)scale(0.12 -0.12)">
      <defs>
       <path id="DejaVuSans-6d" d="M 3328 2828 
Q 3544 3216 3844 3400 
Q 4144 3584 4550 3584 
Q 5097 3584 5394 3201 
Q 5691 2819 5691 2113 
L 5691 0 
L 5113 0 
L 5113 2094 
Q 5113 2597 4934 2840 
Q 4756 3084 4391 3084 
Q 3944 3084 3684 2787 
Q 3425 2491 3425 1978 
L 3425 0 
L 2847 0 
L 2847 2094 
Q 2847 2600 2669 2842 
Q 2491 3084 2119 3084 
Q 1678 3084 1418 2786 
Q 1159 2488 1159 1978 
L 1159 0 
L 581 0 
L 581 3500 
L 1159 3500 
L 1159 2956 
Q 1356 3278 1631 3431 
Q 1906 3584 2284 3584 
Q 2666 3584 2933 3390 
Q 3200 3197 3328 2828 
z
" transform="scale(0.015625)"/>
       <path id="DejaVuSans-70" d="M 1159 525 
L 1159 -1331 
L 581 -1331 
L 581 3500 
L 1159 3500 
L 1159 2969 
Q 1341 3281 1617 3432 
Q 1894 3584 2278 3584 
Q 2916 3584 3314 3078 
Q 3713 2572 3713 1747 
Q 3713 922 3314 415 
Q 2916 -91 2278 -91 
Q 1894 -91 1617 61 
Q 1341 213 1159 525 
z
M 3116 1747 
Q 3116 2381 2855 2742 
Q 2594 3103 2138 3103 
Q 1681 3103 1420 2742 
Q 1159 2381 1159 1747 
Q 1159 1113 1420 752 
Q 1681 391 2138 391 
Q 2594 391 2855 752 
Q 3116 1113 3116 1747 
z
" transform="scale(0.015625)"/>
      </defs>
      <use xlink:href="#DejaVuSans-74"/>
      <use xlink:href="#DejaVuSans-65" x="39.208984"/>
      <use xlink:href="#DejaVuSans-6d" x="100.732422"/>
      <use xlink:href="#DejaVuSans-70" x="198.144531"/>
     </g>
    </g>
   </g>
   <g id="line2d_52">
    <path d="M 76.119353 304.670471 
L 76.439834 282.750213 
L 76.760315 290.056966 
L 77.080796 282.750213 
L 77.401277 279.096837 
L 77.721758 264.483331 
L 78.042239 271.790084 
L 78.36272 311.977224 
L 78.683201 315.6306 
L 79.324163 297.363718 
L 80.285606 319.283976 
L 80.606087 282.750213 
L 80.926568 282.750213 
L 81.247049 304.670471 
L 81.56753 301.017095 
L 81.888011 293.710342 
L 82.208492 290.056966 
L 82.528973 297.363718 
L 82.849454 297.363718 
L 83.169935 290.056966 
L 83.810897 304.670471 
L 84.131378 301.017095 
L 84.451859 293.710342 
L 84.77234 297.363718 
L 85.092821 304.670471 
L 85.413302 301.017095 
L 85.733783 304.670471 
L 86.054264 322.937353 
L 86.374745 322.937353 
L 86.695226 319.283976 
L 87.015707 322.937353 
L 87.336188 322.937353 
L 88.297631 344.857611 
L 88.938593 319.283976 
L 89.259074 315.6306 
L 89.579555 297.363718 
L 89.900036 293.710342 
L 90.220517 304.670471 
L 90.540998 326.590729 
L 90.861479 337.550858 
L 91.18196 330.244105 
L 91.502441 319.283976 
L 91.822922 326.590729 
L 92.143403 330.244105 
L 92.463884 326.590729 
L 92.784365 315.6306 
L 93.425327 308.323847 
L 94.066289 344.857611 
L 94.38677 326.590729 
L 94.707251 352.164363 
L 95.348213 337.550858 
L 96.309656 326.590729 
L 96.630137 301.017095 
L 96.950618 304.670471 
L 97.271099 315.6306 
L 97.59158 341.204234 
L 97.912061 341.204234 
L 98.232542 319.283976 
L 98.553023 330.244105 
L 98.873504 311.977224 
L 99.193985 311.977224 
L 99.514466 337.550858 
L 99.834947 333.897482 
L 100.155428 322.937353 
L 100.475909 330.244105 
L 100.79639 333.897482 
L 101.116871 341.204234 
L 101.437352 315.6306 
L 102.078314 341.204234 
L 102.398795 315.6306 
L 102.719276 348.510987 
L 103.039757 341.204234 
L 103.360238 348.510987 
L 103.680719 344.857611 
L 104.0012 352.164363 
L 104.321681 348.510987 
L 104.642162 348.510987 
L 104.962643 359.471116 
L 105.283124 355.81774 
L 105.603605 348.510987 
L 105.924086 348.510987 
L 106.244567 359.471116 
L 106.565048 359.471116 
L 107.52649 330.244105 
L 107.846971 333.897482 
L 108.167452 330.244105 
L 108.808414 330.244105 
L 109.128895 341.204234 
L 109.449376 333.897482 
L 109.769857 330.244105 
L 110.090338 315.6306 
L 110.7313 344.857611 
L 111.051781 341.204234 
L 111.372262 348.510987 
L 112.013224 319.283976 
L 112.974667 388.698127 
L 113.295148 381.391374 
L 113.615629 377.737998 
L 113.93611 370.431245 
L 114.256591 359.471116 
L 114.577072 337.550858 
L 114.897553 333.897482 
L 115.218034 315.6306 
L 115.538515 319.283976 
L 115.858996 359.471116 
L 116.179477 370.431245 
L 116.499958 363.124492 
L 116.820439 366.777869 
L 117.14092 366.777869 
L 117.461401 348.510987 
L 117.781882 359.471116 
L 118.422844 359.471116 
L 119.063806 344.857611 
L 119.384287 341.204234 
L 119.704768 341.204234 
L 120.025249 333.897482 
L 120.34573 315.6306 
L 120.986692 359.471116 
L 121.307173 352.164363 
L 121.627654 333.897482 
L 121.948135 337.550858 
L 122.268616 355.81774 
L 122.589097 344.857611 
L 122.909578 344.857611 
L 123.230059 333.897482 
L 123.55054 337.550858 
L 123.871021 337.550858 
L 124.191502 333.897482 
L 124.511983 326.590729 
L 125.152945 348.510987 
L 125.473426 348.510987 
L 125.793907 344.857611 
L 126.114388 330.244105 
L 126.434869 341.204234 
L 127.075831 348.510987 
L 127.396312 315.6306 
L 127.716793 330.244105 
L 128.037274 322.937353 
L 128.357755 319.283976 
L 128.678236 322.937353 
L 128.998717 341.204234 
L 129.319198 333.897482 
L 129.639679 333.897482 
L 129.96016 352.164363 
L 130.280641 352.164363 
L 130.601122 337.550858 
L 130.921603 337.550858 
L 131.242084 344.857611 
L 131.562565 344.857611 
L 131.883046 337.550858 
L 132.203527 333.897482 
L 132.524008 341.204234 
L 132.844489 326.590729 
L 133.16497 322.937353 
L 133.485451 330.244105 
L 134.126413 311.977224 
L 134.446894 319.283976 
L 134.767375 304.670471 
L 135.087856 333.897482 
L 135.408337 333.897482 
L 135.728818 322.937353 
L 136.049299 301.017095 
L 136.36978 319.283976 
L 136.690261 315.6306 
L 137.010742 279.096837 
L 137.331223 260.829955 
L 137.651704 279.096837 
L 138.292666 330.244105 
L 138.613147 311.977224 
L 139.254109 311.977224 
L 139.895071 286.403589 
L 140.215552 301.017095 
L 140.536033 282.750213 
L 140.856514 293.710342 
L 141.176995 319.283976 
L 141.497476 319.283976 
L 141.817957 322.937353 
L 142.138438 290.056966 
L 142.458919 297.363718 
L 143.099881 290.056966 
L 143.420362 290.056966 
L 143.740843 308.323847 
L 144.061324 293.710342 
L 144.381805 293.710342 
L 144.702286 286.403589 
L 145.022767 301.017095 
L 145.343248 290.056966 
L 145.663729 304.670471 
L 146.304691 282.750213 
L 146.625172 293.710342 
L 146.945653 293.710342 
L 147.266134 268.136708 
L 147.586615 286.403589 
L 147.907096 290.056966 
L 148.227577 308.323847 
L 148.548058 304.670471 
L 148.868539 290.056966 
L 149.18902 264.483331 
L 149.829982 286.403589 
L 150.150463 304.670471 
L 150.470944 268.136708 
L 150.791425 253.523202 
L 151.752868 290.056966 
L 152.073349 319.283976 
L 152.39383 293.710342 
L 152.714311 279.096837 
L 153.034792 286.403589 
L 153.355273 257.176579 
L 153.675753 242.563073 
L 153.996234 242.563073 
L 154.316715 246.21645 
L 154.637196 253.523202 
L 155.278158 275.44346 
L 155.598639 279.096837 
L 155.91912 286.403589 
L 156.239601 297.363718 
L 156.560082 271.790084 
L 156.880563 264.483331 
L 157.201044 275.44346 
L 157.521525 264.483331 
L 158.162487 279.096837 
L 158.482968 279.096837 
L 158.803449 264.483331 
L 159.12393 260.829955 
L 159.444411 253.523202 
L 159.764892 260.829955 
L 160.085373 271.790084 
L 160.726335 264.483331 
L 161.046816 253.523202 
L 161.367297 249.869826 
L 161.687778 238.909697 
L 162.008259 238.909697 
L 162.32874 249.869826 
L 162.649221 246.21645 
L 163.290183 253.523202 
L 163.610664 253.523202 
L 163.931145 271.790084 
L 164.251626 260.829955 
L 164.572107 257.176579 
L 165.213069 238.909697 
L 165.53355 235.256321 
L 165.854031 235.256321 
L 166.174512 246.21645 
L 166.494993 249.869826 
L 166.815474 249.869826 
L 167.135955 253.523202 
L 167.456436 264.483331 
L 167.776917 257.176579 
L 168.417879 235.256321 
L 168.73836 235.256321 
L 169.379322 227.949568 
L 169.699803 227.949568 
L 170.340765 249.869826 
L 170.661246 253.523202 
L 170.981727 249.869826 
L 171.302208 257.176579 
L 171.622689 271.790084 
L 172.263651 253.523202 
L 172.584132 264.483331 
L 172.904613 253.523202 
L 173.225094 260.829955 
L 173.545575 257.176579 
L 173.866056 268.136708 
L 174.186537 253.523202 
L 174.507018 268.136708 
L 174.827499 260.829955 
L 175.14798 268.136708 
L 175.468461 260.829955 
L 175.788942 264.483331 
L 176.109423 264.483331 
L 176.429904 253.523202 
L 176.750385 260.829955 
L 177.070866 264.483331 
L 177.391347 264.483331 
L 177.711828 271.790084 
L 178.032309 282.750213 
L 178.993752 260.829955 
L 179.314233 268.136708 
L 179.634714 264.483331 
L 179.955195 249.869826 
L 180.275676 246.21645 
L 180.596157 271.790084 
L 180.916638 264.483331 
L 181.237119 271.790084 
L 181.5576 264.483331 
L 181.878081 260.829955 
L 182.198562 253.523202 
L 182.839524 268.136708 
L 183.160005 257.176579 
L 183.480486 260.829955 
L 183.800967 257.176579 
L 184.121448 275.44346 
L 184.441929 264.483331 
L 184.76241 271.790084 
L 185.082891 286.403589 
L 185.403372 279.096837 
L 185.723853 268.136708 
L 186.044334 282.750213 
L 186.364815 253.523202 
L 186.685296 238.909697 
L 187.326258 268.136708 
L 187.646739 297.363718 
L 187.96722 282.750213 
L 188.608182 297.363718 
L 188.928663 279.096837 
L 189.569625 271.790084 
L 189.890106 275.44346 
L 190.210587 282.750213 
L 190.531068 297.363718 
L 190.851549 282.750213 
L 191.17203 282.750213 
L 191.492511 290.056966 
L 191.812992 293.710342 
L 192.133473 279.096837 
L 192.453954 286.403589 
L 192.774435 282.750213 
L 193.094916 268.136708 
L 193.415397 260.829955 
L 193.735878 271.790084 
L 194.056359 257.176579 
L 194.697321 290.056966 
L 195.017802 279.096837 
L 195.338283 297.363718 
L 195.658764 301.017095 
L 195.979245 301.017095 
L 196.299726 293.710342 
L 196.620207 282.750213 
L 196.940688 297.363718 
L 197.261169 297.363718 
L 197.58165 286.403589 
L 197.902131 293.710342 
L 198.222612 279.096837 
L 199.184055 308.323847 
L 199.504535 293.710342 
L 199.825016 297.363718 
L 200.465978 322.937353 
L 200.786459 319.283976 
L 201.10694 319.283976 
L 201.427421 315.6306 
L 201.747902 308.323847 
L 202.068383 319.283976 
L 202.709345 290.056966 
L 203.029826 286.403589 
L 203.350307 301.017095 
L 203.670788 308.323847 
L 203.991269 337.550858 
L 204.31175 315.6306 
L 204.632231 304.670471 
L 204.952712 301.017095 
L 205.273193 330.244105 
L 205.593674 326.590729 
L 205.914155 308.323847 
L 206.234636 319.283976 
L 206.555117 322.937353 
L 206.875598 348.510987 
L 207.196079 322.937353 
L 207.51656 315.6306 
L 207.837041 311.977224 
L 208.478003 297.363718 
L 208.798484 308.323847 
L 209.118965 333.897482 
L 209.759927 315.6306 
L 210.080408 319.283976 
L 210.400889 348.510987 
L 211.041851 333.897482 
L 211.362332 304.670471 
L 211.682813 333.897482 
L 212.003294 330.244105 
L 212.323775 337.550858 
L 212.644256 330.244105 
L 212.964737 330.244105 
L 213.285218 322.937353 
L 213.605699 326.590729 
L 213.92618 311.977224 
L 214.246661 311.977224 
L 214.567142 333.897482 
L 215.208104 326.590729 
L 215.528585 330.244105 
L 215.849066 359.471116 
L 216.169547 370.431245 
L 216.490028 319.283976 
L 216.810509 366.777869 
L 217.13099 348.510987 
L 217.451471 355.81774 
L 217.771952 370.431245 
L 218.092433 352.164363 
L 218.412914 319.283976 
L 218.733395 326.590729 
L 219.374357 290.056966 
L 219.694838 301.017095 
L 220.015319 326.590729 
L 220.3358 363.124492 
L 220.976762 348.510987 
L 221.297243 319.283976 
L 221.617724 333.897482 
L 221.938205 341.204234 
L 222.258686 366.777869 
L 222.579167 363.124492 
L 222.899648 319.283976 
L 223.220129 381.391374 
L 223.54061 377.737998 
L 223.861091 359.471116 
L 224.181572 319.283976 
L 224.822534 385.04475 
L 225.143015 363.124492 
L 225.463496 359.471116 
L 225.783977 311.977224 
L 226.104458 315.6306 
L 226.74542 333.897482 
L 227.065901 319.283976 
L 227.386382 348.510987 
L 227.706863 319.283976 
L 228.347825 319.283976 
L 228.668306 337.550858 
L 228.988787 344.857611 
L 229.309268 396.004879 
L 229.629749 388.698127 
L 229.95023 388.698127 
L 230.270711 374.084621 
L 230.591192 377.737998 
L 230.911673 344.857611 
L 231.232154 374.084621 
L 231.552635 381.391374 
L 231.873116 370.431245 
L 232.193597 348.510987 
L 232.834559 322.937353 
L 233.15504 337.550858 
L 233.475521 359.471116 
L 233.796002 359.471116 
L 234.116483 363.124492 
L 234.436964 363.124492 
L 234.757445 370.431245 
L 235.077926 366.777869 
L 235.398407 370.431245 
L 235.718888 377.737998 
L 236.039369 377.737998 
L 236.35985 359.471116 
L 236.680331 348.510987 
L 237.321293 363.124492 
L 237.641774 363.124492 
L 237.962255 348.510987 
L 238.282736 344.857611 
L 238.603217 330.244105 
L 238.923698 337.550858 
L 239.244179 319.283976 
L 239.56466 322.937353 
L 239.885141 333.897482 
L 240.205622 363.124492 
L 240.526103 366.777869 
L 240.846584 366.777869 
L 241.167065 377.737998 
L 241.487546 355.81774 
L 241.808027 348.510987 
L 242.128508 355.81774 
L 242.448989 370.431245 
L 242.76947 352.164363 
L 243.089951 366.777869 
L 243.410432 352.164363 
L 243.730913 315.6306 
L 244.051394 330.244105 
L 244.371875 326.590729 
L 244.692356 297.363718 
L 245.012837 319.283976 
L 245.333318 326.590729 
L 245.653798 337.550858 
L 245.974279 311.977224 
L 246.29476 322.937353 
L 246.615241 363.124492 
L 246.935722 344.857611 
L 247.256203 344.857611 
L 247.576684 322.937353 
L 247.897165 326.590729 
L 248.217646 301.017095 
L 248.538127 315.6306 
L 248.858608 359.471116 
L 249.179089 352.164363 
L 249.49957 359.471116 
L 249.820051 341.204234 
L 250.140532 315.6306 
L 250.461013 319.283976 
L 250.781494 333.897482 
L 251.422456 308.323847 
L 251.742937 319.283976 
L 252.063418 297.363718 
L 252.383899 315.6306 
L 252.70438 319.283976 
L 253.024861 308.323847 
L 253.345342 326.590729 
L 253.665823 297.363718 
L 253.986304 304.670471 
L 254.306785 304.670471 
L 254.627266 279.096837 
L 254.947747 282.750213 
L 255.268228 271.790084 
L 255.588709 275.44346 
L 255.90919 293.710342 
L 256.229671 333.897482 
L 256.550152 333.897482 
L 256.870633 330.244105 
L 257.191114 293.710342 
L 257.511595 308.323847 
L 258.152557 282.750213 
L 258.473038 301.017095 
L 258.793519 304.670471 
L 259.114 304.670471 
L 259.434481 297.363718 
L 259.754962 311.977224 
L 260.075443 297.363718 
L 260.716405 322.937353 
L 261.036886 297.363718 
L 261.357367 301.017095 
L 261.677848 297.363718 
L 261.998329 301.017095 
L 262.31881 290.056966 
L 262.959772 290.056966 
L 263.280253 308.323847 
L 263.600734 304.670471 
L 263.921215 264.483331 
L 264.241696 264.483331 
L 264.562177 253.523202 
L 265.203139 290.056966 
L 265.52362 286.403589 
L 265.844101 290.056966 
L 266.164582 290.056966 
L 266.485063 297.363718 
L 267.126025 268.136708 
L 267.446506 279.096837 
L 267.766987 282.750213 
L 268.087468 290.056966 
L 268.407949 290.056966 
L 268.72843 264.483331 
L 269.048911 253.523202 
L 269.369392 253.523202 
L 269.689873 268.136708 
L 270.010354 297.363718 
L 270.330835 275.44346 
L 270.651316 282.750213 
L 271.612759 253.523202 
L 272.253721 275.44346 
L 272.574202 275.44346 
L 272.894683 260.829955 
L 273.215164 257.176579 
L 273.535645 271.790084 
L 273.856126 271.790084 
L 274.176607 275.44346 
L 274.497088 286.403589 
L 274.817569 268.136708 
L 275.13805 279.096837 
L 275.458531 264.483331 
L 275.779012 264.483331 
L 276.099493 246.21645 
L 276.419974 246.21645 
L 276.740455 253.523202 
L 277.381417 271.790084 
L 277.701898 268.136708 
L 278.022379 260.829955 
L 278.34286 260.829955 
L 278.663341 257.176579 
L 278.983822 257.176579 
L 279.304303 260.829955 
L 279.624784 249.869826 
L 279.945265 260.829955 
L 280.265746 257.176579 
L 280.586227 246.21645 
L 280.906708 242.563073 
L 281.227189 246.21645 
L 281.54767 264.483331 
L 281.868151 260.829955 
L 282.188632 253.523202 
L 282.509113 242.563073 
L 282.829594 238.909697 
L 283.470556 260.829955 
L 284.111518 253.523202 
L 284.431999 257.176579 
L 285.072961 257.176579 
L 285.713923 264.483331 
L 286.034404 264.483331 
L 286.354885 271.790084 
L 286.675366 271.790084 
L 286.995847 257.176579 
L 287.316328 253.523202 
L 287.636809 246.21645 
L 287.95729 257.176579 
L 288.598252 264.483331 
L 288.918733 253.523202 
L 289.239214 260.829955 
L 289.559695 275.44346 
L 290.200657 260.829955 
L 290.521138 260.829955 
L 290.841619 275.44346 
L 291.1621 275.44346 
L 291.48258 257.176579 
L 291.803061 249.869826 
L 292.123542 260.829955 
L 292.444023 260.829955 
L 292.764504 264.483331 
L 293.084985 257.176579 
L 293.405466 253.523202 
L 293.725947 257.176579 
L 294.046428 268.136708 
L 294.366909 264.483331 
L 294.68739 271.790084 
L 295.007871 275.44346 
L 295.328352 271.790084 
L 295.648833 260.829955 
L 295.969314 264.483331 
L 296.289795 264.483331 
L 296.610276 260.829955 
L 296.930757 264.483331 
L 297.251238 279.096837 
L 297.571719 282.750213 
L 298.212681 257.176579 
L 298.853643 249.869826 
L 299.174124 268.136708 
L 299.494605 271.790084 
L 299.815086 271.790084 
L 300.135567 249.869826 
L 300.456048 253.523202 
L 300.776529 246.21645 
L 301.09701 257.176579 
L 301.737972 257.176579 
L 302.058453 249.869826 
L 302.378934 268.136708 
L 303.019896 282.750213 
L 303.340377 275.44346 
L 303.660858 264.483331 
L 303.981339 275.44346 
L 304.30182 293.710342 
L 304.942782 286.403589 
L 305.263263 290.056966 
L 305.583744 282.750213 
L 305.904225 279.096837 
L 306.224706 293.710342 
L 306.545187 279.096837 
L 306.865668 275.44346 
L 307.186149 282.750213 
L 307.827111 282.750213 
L 308.147592 293.710342 
L 308.468073 271.790084 
L 308.788554 260.829955 
L 309.109035 257.176579 
L 310.070478 297.363718 
L 310.390959 290.056966 
L 310.71144 286.403589 
L 311.031921 290.056966 
L 311.352402 304.670471 
L 311.672883 286.403589 
L 311.993364 282.750213 
L 312.313845 282.750213 
L 312.634326 293.710342 
L 312.954807 297.363718 
L 313.275288 311.977224 
L 313.595769 301.017095 
L 313.91625 297.363718 
L 314.236731 271.790084 
L 314.557212 275.44346 
L 314.877693 282.750213 
L 315.198174 282.750213 
L 315.518655 290.056966 
L 315.839136 304.670471 
L 316.159617 308.323847 
L 316.480098 297.363718 
L 316.800579 311.977224 
L 317.12106 319.283976 
L 317.441541 293.710342 
L 317.762022 290.056966 
L 318.082503 301.017095 
L 318.402984 297.363718 
L 318.723465 282.750213 
L 319.043946 286.403589 
L 319.364427 311.977224 
L 319.684908 319.283976 
L 320.005389 322.937353 
L 320.32587 330.244105 
L 320.966832 286.403589 
L 321.287313 297.363718 
L 321.607794 315.6306 
L 321.928275 322.937353 
L 322.248756 337.550858 
L 322.569237 311.977224 
L 323.210199 297.363718 
L 323.53068 297.363718 
L 324.171642 344.857611 
L 324.492123 344.857611 
L 324.812604 341.204234 
L 325.133085 322.937353 
L 325.453566 330.244105 
L 325.774047 363.124492 
L 326.094528 337.550858 
L 326.415009 348.510987 
L 326.73549 341.204234 
L 327.376452 286.403589 
L 327.696933 297.363718 
L 328.017414 333.897482 
L 328.337895 352.164363 
L 328.978857 359.471116 
L 329.619819 301.017095 
L 329.9403 341.204234 
L 330.260781 333.897482 
L 330.581262 337.550858 
L 331.542705 337.550858 
L 331.863186 359.471116 
L 332.183667 341.204234 
L 332.504148 341.204234 
L 332.824629 355.81774 
L 333.14511 352.164363 
L 333.465591 341.204234 
L 333.786072 337.550858 
L 334.106553 330.244105 
L 334.427034 333.897482 
L 334.747515 322.937353 
L 335.067996 333.897482 
L 335.388477 352.164363 
L 335.708958 363.124492 
L 336.029439 355.81774 
L 336.34992 341.204234 
L 336.670401 333.897482 
L 336.990882 322.937353 
L 337.311363 304.670471 
L 337.631843 333.897482 
L 338.272805 326.590729 
L 338.593286 333.897482 
L 338.913767 359.471116 
L 339.234248 370.431245 
L 339.554729 363.124492 
L 339.87521 348.510987 
L 340.195691 352.164363 
L 340.516172 322.937353 
L 340.836653 326.590729 
L 341.157134 374.084621 
L 341.477615 381.391374 
L 341.798096 385.04475 
L 342.118577 366.777869 
L 342.439058 381.391374 
L 343.08002 352.164363 
L 343.400501 359.471116 
L 343.720982 377.737998 
L 344.361944 359.471116 
L 344.682425 377.737998 
L 345.002906 352.164363 
L 345.323387 352.164363 
L 345.643868 355.81774 
L 345.964349 370.431245 
L 346.28483 355.81774 
L 346.605311 359.471116 
L 347.246273 352.164363 
L 347.566754 374.084621 
L 347.887235 370.431245 
L 348.207716 374.084621 
L 348.528197 374.084621 
L 348.848678 363.124492 
L 349.169159 377.737998 
L 349.48964 366.777869 
L 349.810121 344.857611 
L 350.130602 370.431245 
L 350.451083 355.81774 
L 351.092045 381.391374 
L 351.733007 348.510987 
L 352.053488 355.81774 
L 352.373969 359.471116 
L 352.69445 366.777869 
L 353.014931 355.81774 
L 353.335412 374.084621 
L 353.655893 374.084621 
L 353.976374 388.698127 
L 354.296855 388.698127 
L 354.617336 385.04475 
L 354.937817 374.084621 
L 355.258298 392.351503 
L 355.578779 396.004879 
L 355.89926 374.084621 
L 356.219741 341.204234 
L 356.540222 355.81774 
L 356.860703 392.351503 
L 357.181184 366.777869 
L 357.501665 381.391374 
L 357.822146 377.737998 
L 358.142627 381.391374 
L 358.463108 377.737998 
L 358.783589 359.471116 
L 359.10407 370.431245 
L 359.424551 337.550858 
L 359.745032 344.857611 
L 360.065513 374.084621 
L 360.706475 333.897482 
L 361.026956 322.937353 
L 361.347437 337.550858 
L 361.667918 326.590729 
L 362.30888 352.164363 
L 362.629361 337.550858 
L 362.949842 337.550858 
L 363.270323 333.897482 
L 363.590804 326.590729 
L 363.911285 344.857611 
L 364.231766 348.510987 
L 364.552247 355.81774 
L 364.872728 352.164363 
L 365.193209 352.164363 
L 365.51369 355.81774 
L 365.834171 352.164363 
L 366.154652 344.857611 
L 366.475133 315.6306 
L 366.795614 319.283976 
L 367.116095 344.857611 
L 367.436576 337.550858 
L 367.757057 326.590729 
L 368.398019 333.897482 
L 369.038981 297.363718 
L 369.359462 315.6306 
L 369.679943 319.283976 
L 370.000424 308.323847 
L 370.320905 308.323847 
L 370.961867 333.897482 
L 371.282348 308.323847 
L 371.92331 315.6306 
L 372.243791 304.670471 
L 372.884753 304.670471 
L 373.205234 311.977224 
L 373.525715 293.710342 
L 373.846196 282.750213 
L 374.166677 290.056966 
L 374.487158 311.977224 
L 374.807639 308.323847 
L 375.12812 297.363718 
L 375.448601 330.244105 
L 375.769082 330.244105 
L 376.089563 311.977224 
L 376.410044 308.323847 
L 376.730525 308.323847 
L 377.371487 279.096837 
L 378.012449 297.363718 
L 378.973892 260.829955 
L 379.294373 260.829955 
L 379.614854 271.790084 
L 380.255816 257.176579 
L 380.576297 271.790084 
L 380.896778 260.829955 
L 381.53774 260.829955 
L 382.178702 286.403589 
L 382.499183 282.750213 
L 382.819664 257.176579 
L 383.460625 271.790084 
L 383.781106 275.44346 
L 384.422068 304.670471 
L 384.742549 286.403589 
L 385.06303 293.710342 
L 385.383511 271.790084 
L 386.344954 260.829955 
L 386.665435 260.829955 
L 386.985916 271.790084 
L 387.306397 264.483331 
L 387.626878 264.483331 
L 388.26784 315.6306 
L 388.588321 293.710342 
L 388.908802 297.363718 
L 389.549764 279.096837 
L 389.870245 282.750213 
L 390.190726 268.136708 
L 390.511207 264.483331 
L 390.831688 264.483331 
L 391.152169 253.523202 
L 391.47265 253.523202 
L 391.793131 260.829955 
L 392.113612 260.829955 
L 392.434093 268.136708 
L 392.754574 271.790084 
L 393.075055 268.136708 
L 393.395536 282.750213 
L 393.716017 268.136708 
L 394.036498 279.096837 
L 394.67746 260.829955 
L 394.997941 238.909697 
L 395.318422 264.483331 
L 395.638903 264.483331 
L 395.959384 268.136708 
L 396.600346 282.750213 
L 397.241308 264.483331 
L 397.561789 260.829955 
L 397.88227 268.136708 
L 398.202751 264.483331 
L 398.523232 275.44346 
L 398.843713 260.829955 
L 399.164194 260.829955 
L 399.484675 253.523202 
L 399.805156 257.176579 
L 400.125637 268.136708 
L 400.446118 260.829955 
L 401.08708 253.523202 
L 401.407561 257.176579 
L 401.728042 268.136708 
L 402.369004 268.136708 
L 402.689485 264.483331 
L 403.009966 257.176579 
L 403.330447 242.563073 
L 403.650928 242.563073 
L 403.971409 249.869826 
L 404.29189 260.829955 
L 404.612371 260.829955 
L 404.932852 257.176579 
L 405.253333 257.176579 
L 405.573814 249.869826 
L 405.894295 257.176579 
L 406.214776 242.563073 
L 406.535257 238.909697 
L 406.855738 253.523202 
L 407.176219 249.869826 
L 407.4967 249.869826 
L 407.817181 253.523202 
L 408.137662 246.21645 
L 408.458143 246.21645 
L 408.778624 253.523202 
L 409.099105 264.483331 
L 409.419586 260.829955 
L 409.740067 264.483331 
L 410.060548 260.829955 
L 410.70151 268.136708 
L 411.021991 257.176579 
L 411.342472 260.829955 
L 411.662953 253.523202 
L 411.983434 242.563073 
L 412.303915 246.21645 
L 412.624396 242.563073 
L 412.944877 246.21645 
L 413.265358 253.523202 
L 413.585839 257.176579 
L 413.90632 257.176579 
L 414.547282 264.483331 
L 414.867763 257.176579 
L 415.188244 253.523202 
L 415.508725 264.483331 
L 415.829206 268.136708 
L 416.149687 268.136708 
L 417.11113 246.21645 
L 417.431611 253.523202 
L 417.752092 246.21645 
L 418.072573 246.21645 
L 418.393054 260.829955 
L 418.713535 264.483331 
L 419.034016 257.176579 
L 419.674978 238.909697 
L 419.995459 246.21645 
L 420.31594 264.483331 
L 420.956902 271.790084 
L 421.277383 271.790084 
L 421.597864 275.44346 
L 421.918345 260.829955 
L 422.559307 253.523202 
L 422.879788 257.176579 
L 423.52075 271.790084 
L 423.841231 286.403589 
L 424.161712 286.403589 
L 424.482193 271.790084 
L 424.802674 268.136708 
L 425.443636 286.403589 
L 425.764117 286.403589 
L 426.084598 271.790084 
L 426.405079 264.483331 
L 426.72556 275.44346 
L 426.72556 275.44346 
" clip-path="url(#p58a800e852)" style="fill: none; stroke: #348abd; stroke-width: 2; stroke-linecap: square"/>
   </g>
   <g id="patch_8">
    <path d="M 45.40125 404.407645 
L 45.40125 219.546802 
" style="fill: none; stroke: #bcbcbc; stroke-width: 0.8; stroke-linejoin: miter; stroke-linecap: square"/>
   </g>
   <g id="patch_9">
    <path d="M 721.19952 404.407645 
L 721.19952 219.546802 
" style="fill: none; stroke: #bcbcbc; stroke-width: 0.8; stroke-linejoin: miter; stroke-linecap: square"/>
   </g>
   <g id="patch_10">
    <path d="M 45.40125 404.407645 
L 721.19952 404.407645 
" style="fill: none; stroke: #bcbcbc; stroke-width: 0.8; stroke-linejoin: miter; stroke-linecap: square"/>
   </g>
   <g id="patch_11">
    <path d="M 45.40125 219.546802 
L 721.19952 219.546802 
" style="fill: none; stroke: #bcbcbc; stroke-width: 0.8; stroke-linejoin: miter; stroke-linecap: square"/>
   </g>
  </g>
  <g id="text_23">
   <!-- Raw Data -->
   <g transform="translate(325.73226 19.3575)scale(0.16 -0.16)">
    <defs>
     <path id="DejaVuSans-52" d="M 2841 2188 
Q 3044 2119 3236 1894 
Q 3428 1669 3622 1275 
L 4263 0 
L 3584 0 
L 2988 1197 
Q 2756 1666 2539 1819 
Q 2322 1972 1947 1972 
L 1259 1972 
L 1259 0 
L 628 0 
L 628 4666 
L 2053 4666 
Q 2853 4666 3247 4331 
Q 3641 3997 3641 3322 
Q 3641 2881 3436 2590 
Q 3231 2300 2841 2188 
z
M 1259 4147 
L 1259 2491 
L 2053 2491 
Q 2509 2491 2742 2702 
Q 2975 2913 2975 3322 
Q 2975 3731 2742 3939 
Q 2509 4147 2053 4147 
L 1259 4147 
z
" transform="scale(0.015625)"/>
     <path id="DejaVuSans-77" d="M 269 3500 
L 844 3500 
L 1563 769 
L 2278 3500 
L 2956 3500 
L 3675 769 
L 4391 3500 
L 4966 3500 
L 4050 0 
L 3372 0 
L 2619 2869 
L 1863 0 
L 1184 0 
L 269 3500 
z
" transform="scale(0.015625)"/>
     <path id="DejaVuSans-20" transform="scale(0.015625)"/>
     <path id="DejaVuSans-44" d="M 1259 4147 
L 1259 519 
L 2022 519 
Q 2988 519 3436 956 
Q 3884 1394 3884 2338 
Q 3884 3275 3436 3711 
Q 2988 4147 2022 4147 
L 1259 4147 
z
M 628 4666 
L 1925 4666 
Q 3281 4666 3915 4102 
Q 4550 3538 4550 2338 
Q 4550 1131 3912 565 
Q 3275 0 1925 0 
L 628 0 
L 628 4666 
z
" transform="scale(0.015625)"/>
    </defs>
    <use xlink:href="#DejaVuSans-52"/>
    <use xlink:href="#DejaVuSans-61" x="67.232422"/>
    <use xlink:href="#DejaVuSans-77" x="128.511719"/>
    <use xlink:href="#DejaVuSans-20" x="210.298828"/>
    <use xlink:href="#DejaVuSans-44" x="242.085938"/>
    <use xlink:href="#DejaVuSans-61" x="319.087891"/>
    <use xlink:href="#DejaVuSans-74" x="380.367188"/>
    <use xlink:href="#DejaVuSans-61" x="419.576172"/>
   </g>
  </g>
 </g>
 <defs>
  <clipPath id="p8a1f0f65a7">
   <rect x="45.40125" y="28.68548" width="675.79827" height="184.860843"/>
  </clipPath>
  <clipPath id="p58a800e852">
   <rect x="45.40125" y="219.546802" width="675.79827" height="184.860842"/>
  </clipPath>
 </defs>
</svg>
