<?xml version="1.0" encoding="UTF-8" standalone="no"?>
<!DOCTYPE svg PUBLIC "-//W3C//DTD SVG 1.1//EN"
 "http://www.w3.org/Graphics/SVG/1.1/DTD/svg11.dtd">
<!-- Generated by graphviz version 8.0.5 (20230430.1635)
 -->
<!-- Pages: 1 -->
<svg width="228pt" height="478pt"
 viewBox="0.00 0.00 228.01 478.45" xmlns="http://www.w3.org/2000/svg" xmlns:xlink="http://www.w3.org/1999/xlink">
<g id="graph0" class="graph" transform="scale(1 1) rotate(0) translate(4 474.45)">
<polygon fill="white" stroke="none" points="-4,4 -4,-474.45 224.01,-474.45 224.01,4 -4,4"/>
<g id="clust1" class="cluster">
<title>clusterfourier_features (12)</title>
<path fill="none" stroke="black" d="M96.01,-340.63C96.01,-340.63 200.01,-340.63 200.01,-340.63 206.01,-340.63 212.01,-346.63 212.01,-352.63 212.01,-352.63 212.01,-450.45 212.01,-450.45 212.01,-456.45 206.01,-462.45 200.01,-462.45 200.01,-462.45 96.01,-462.45 96.01,-462.45 90.01,-462.45 84.01,-456.45 84.01,-450.45 84.01,-450.45 84.01,-352.63 84.01,-352.63 84.01,-346.63 90.01,-340.63 96.01,-340.63"/>
<text text-anchor="middle" x="147.76" y="-347.83" font-family="Times,serif" font-size="14.00">fourier_features (12)</text>
</g>
<g id="clust2" class="cluster">
<title>clusterdate (1095)</title>
<path fill="none" stroke="black" d="M102.01,-8C102.01,-8 194.01,-8 194.01,-8 200.01,-8 206.01,-14 206.01,-20 206.01,-20 206.01,-316.73 206.01,-316.73 206.01,-322.73 200.01,-328.73 194.01,-328.73 194.01,-328.73 102.01,-328.73 102.01,-328.73 96.01,-328.73 90.01,-322.73 90.01,-316.73 90.01,-316.73 90.01,-20 90.01,-20 90.01,-14 96.01,-8 102.01,-8"/>
<text text-anchor="middle" x="166.89" y="-15.2" font-family="Times,serif" font-size="14.00">date (1095)</text>
</g>
<!-- a -->
<g id="node1" class="node">
<title>a</title>
<ellipse fill="none" stroke="black" cx="41.01" cy="-291.98" rx="41.01" ry="40.66"/>
<text text-anchor="middle" x="41.01" y="-303.43" font-family="Times,serif" font-size="14.00">a</text>
<text text-anchor="middle" x="41.01" y="-286.93" font-family="Times,serif" font-size="14.00">~</text>
<text text-anchor="middle" x="41.01" y="-270.43" font-family="Times,serif" font-size="14.00">Normal</text>
</g>
<!-- mu -->
<g id="node5" class="node">
<title>mu</title>
<polygon fill="none" stroke="black" points="190.14,-215.32 99.89,-215.32 99.89,-157.82 190.14,-157.82 190.14,-215.32"/>
<text text-anchor="middle" x="145.01" y="-198.02" font-family="Times,serif" font-size="14.00">mu</text>
<text text-anchor="middle" x="145.01" y="-181.52" font-family="Times,serif" font-size="14.00">~</text>
<text text-anchor="middle" x="145.01" y="-165.02" font-family="Times,serif" font-size="14.00">Deterministic</text>
</g>
<!-- a&#45;&gt;mu -->
<g id="edge2" class="edge">
<title>a&#45;&gt;mu</title>
<path fill="none" stroke="black" d="M69.71,-262.45C81.85,-250.37 96.14,-236.16 108.99,-223.38"/>
<polygon fill="black" stroke="black" points="111.15,-226.18 115.77,-216.65 106.21,-221.22 111.15,-226.18"/>
</g>
<!-- b_fourier -->
<g id="node2" class="node">
<title>b_fourier</title>
<ellipse fill="none" stroke="black" cx="145.01" cy="-413.79" rx="46.85" ry="40.66"/>
<text text-anchor="middle" x="145.01" y="-425.24" font-family="Times,serif" font-size="14.00">b_fourier</text>
<text text-anchor="middle" x="145.01" y="-408.74" font-family="Times,serif" font-size="14.00">~</text>
<text text-anchor="middle" x="145.01" y="-392.24" font-family="Times,serif" font-size="14.00">Normal</text>
</g>
<!-- seasonality -->
<g id="node4" class="node">
<title>seasonality</title>
<polygon fill="none" stroke="black" points="190.14,-320.73 99.89,-320.73 99.89,-263.23 190.14,-263.23 190.14,-320.73"/>
<text text-anchor="middle" x="145.01" y="-303.43" font-family="Times,serif" font-size="14.00">seasonality</text>
<text text-anchor="middle" x="145.01" y="-286.93" font-family="Times,serif" font-size="14.00">~</text>
<text text-anchor="middle" x="145.01" y="-270.43" font-family="Times,serif" font-size="14.00">Deterministic</text>
</g>
<!-- b_fourier&#45;&gt;seasonality -->
<g id="edge1" class="edge">
<title>b_fourier&#45;&gt;seasonality</title>
<path fill="none" stroke="black" d="M145.01,-372.9C145.01,-359.6 145.01,-344.82 145.01,-331.62"/>
<polygon fill="black" stroke="black" points="148.51,-331.97 145.01,-321.97 141.51,-331.97 148.51,-331.97"/>
</g>
<!-- likelihood -->
<g id="node3" class="node">
<title>likelihood</title>
<ellipse fill="lightgrey" stroke="black" cx="148.01" cy="-81.16" rx="50.03" ry="40.66"/>
<text text-anchor="middle" x="148.01" y="-92.61" font-family="Times,serif" font-size="14.00">likelihood</text>
<text text-anchor="middle" x="148.01" y="-76.11" font-family="Times,serif" font-size="14.00">~</text>
<text text-anchor="middle" x="148.01" y="-59.61" font-family="Times,serif" font-size="14.00">Poisson</text>
</g>
<!-- seasonality&#45;&gt;mu -->
<g id="edge3" class="edge">
<title>seasonality&#45;&gt;mu</title>
<path fill="none" stroke="black" d="M145.01,-262.99C145.01,-251.73 145.01,-238.54 145.01,-226.38"/>
<polygon fill="black" stroke="black" points="148.51,-226.57 145.01,-216.57 141.51,-226.57 148.51,-226.57"/>
</g>
<!-- mu&#45;&gt;likelihood -->
<g id="edge4" class="edge">
<title>mu&#45;&gt;likelihood</title>
<path fill="none" stroke="black" d="M145.82,-157.58C146.04,-150.01 146.29,-141.58 146.53,-133.17"/>
<polygon fill="black" stroke="black" points="150.06,-133.3 146.85,-123.2 143.06,-133.09 150.06,-133.3"/>
</g>
</g>
</svg>
