<?xml version="1.0" encoding="utf-8" standalone="no"?>
<!DOCTYPE svg PUBLIC "-//W3C//DTD SVG 1.1//EN"
  "http://www.w3.org/Graphics/SVG/1.1/DTD/svg11.dtd">
<svg xmlns:xlink="http://www.w3.org/1999/xlink" width="728.39952pt" height="440.39952pt" viewBox="0 0 728.39952 440.39952" xmlns="http://www.w3.org/2000/svg" version="1.1">
 <metadata>
  <rdf:RDF xmlns:dc="http://purl.org/dc/elements/1.1/" xmlns:cc="http://creativecommons.org/ns#" xmlns:rdf="http://www.w3.org/1999/02/22-rdf-syntax-ns#">
   <cc:Work>
    <dc:type rdf:resource="http://purl.org/dc/dcmitype/StillImage"/>
    <dc:date>2022-07-18T19:32:12.088932</dc:date>
    <dc:format>image/svg+xml</dc:format>
    <dc:creator>
     <cc:Agent>
      <dc:title>Matplotlib v3.5.1, https://matplotlib.org/</dc:title>
     </cc:Agent>
    </dc:creator>
   </cc:Work>
  </rdf:RDF>
 </metadata>
 <defs>
  <style type="text/css">*{stroke-linejoin: round; stroke-linecap: butt}</style>
 </defs>
 <g id="figure_1">
  <g id="patch_1">
   <path d="M 0 440.39952 
L 728.39952 440.39952 
L 728.39952 0 
L 0 0 
z
" style="fill: #ffffff"/>
  </g>
  <g id="axes_1">
   <g id="patch_2">
    <path d="M 45.40125 202.803583 
L 721.19952 202.803583 
L 721.19952 24.14175 
L 45.40125 24.14175 
z
" style="fill: #eeeeee"/>
   </g>
   <g id="matplotlib.axis_1">
    <g id="xtick_1">
     <g id="line2d_1">
      <path d="M 76.119353 202.803583 
L 76.119353 24.14175 
" clip-path="url(#p4f95e384f0)" style="fill: none; stroke-dasharray: 1.85,0.8; stroke-dashoffset: 0; stroke: #b2b2b2; stroke-width: 0.5"/>
     </g>
     <g id="line2d_2">
      <defs>
       <path id="m080619c928" d="M 0 0 
L 0 -3.5 
" style="stroke: #000000; stroke-width: 0.8"/>
      </defs>
      <g>
       <use xlink:href="#m080619c928" x="76.119353" y="202.803583" style="stroke: #000000; stroke-width: 0.8"/>
      </g>
     </g>
    </g>
    <g id="xtick_2">
     <g id="line2d_3">
      <path d="M 144.963823 202.803583 
L 144.963823 24.14175 
" clip-path="url(#p4f95e384f0)" style="fill: none; stroke-dasharray: 1.85,0.8; stroke-dashoffset: 0; stroke: #b2b2b2; stroke-width: 0.5"/>
     </g>
     <g id="line2d_4">
      <g>
       <use xlink:href="#m080619c928" x="144.963823" y="202.803583" style="stroke: #000000; stroke-width: 0.8"/>
      </g>
     </g>
    </g>
    <g id="xtick_3">
     <g id="line2d_5">
      <path d="M 213.808293 202.803583 
L 213.808293 24.14175 
" clip-path="url(#p4f95e384f0)" style="fill: none; stroke-dasharray: 1.85,0.8; stroke-dashoffset: 0; stroke: #b2b2b2; stroke-width: 0.5"/>
     </g>
     <g id="line2d_6">
      <g>
       <use xlink:href="#m080619c928" x="213.808293" y="202.803583" style="stroke: #000000; stroke-width: 0.8"/>
      </g>
     </g>
    </g>
    <g id="xtick_4">
     <g id="line2d_7">
      <path d="M 281.156144 202.803583 
L 281.156144 24.14175 
" clip-path="url(#p4f95e384f0)" style="fill: none; stroke-dasharray: 1.85,0.8; stroke-dashoffset: 0; stroke: #b2b2b2; stroke-width: 0.5"/>
     </g>
     <g id="line2d_8">
      <g>
       <use xlink:href="#m080619c928" x="281.156144" y="202.803583" style="stroke: #000000; stroke-width: 0.8"/>
      </g>
     </g>
    </g>
    <g id="xtick_5">
     <g id="line2d_9">
      <path d="M 349.252305 202.803583 
L 349.252305 24.14175 
" clip-path="url(#p4f95e384f0)" style="fill: none; stroke-dasharray: 1.85,0.8; stroke-dashoffset: 0; stroke: #b2b2b2; stroke-width: 0.5"/>
     </g>
     <g id="line2d_10">
      <g>
       <use xlink:href="#m080619c928" x="349.252305" y="202.803583" style="stroke: #000000; stroke-width: 0.8"/>
      </g>
     </g>
    </g>
    <g id="xtick_6">
     <g id="line2d_11">
      <path d="M 418.096775 202.803583 
L 418.096775 24.14175 
" clip-path="url(#p4f95e384f0)" style="fill: none; stroke-dasharray: 1.85,0.8; stroke-dashoffset: 0; stroke: #b2b2b2; stroke-width: 0.5"/>
     </g>
     <g id="line2d_12">
      <g>
       <use xlink:href="#m080619c928" x="418.096775" y="202.803583" style="stroke: #000000; stroke-width: 0.8"/>
      </g>
     </g>
    </g>
    <g id="xtick_7">
     <g id="line2d_13">
      <path d="M 486.941245 202.803583 
L 486.941245 24.14175 
" clip-path="url(#p4f95e384f0)" style="fill: none; stroke-dasharray: 1.85,0.8; stroke-dashoffset: 0; stroke: #b2b2b2; stroke-width: 0.5"/>
     </g>
     <g id="line2d_14">
      <g>
       <use xlink:href="#m080619c928" x="486.941245" y="202.803583" style="stroke: #000000; stroke-width: 0.8"/>
      </g>
     </g>
    </g>
    <g id="xtick_8">
     <g id="line2d_15">
      <path d="M 554.289096 202.803583 
L 554.289096 24.14175 
" clip-path="url(#p4f95e384f0)" style="fill: none; stroke-dasharray: 1.85,0.8; stroke-dashoffset: 0; stroke: #b2b2b2; stroke-width: 0.5"/>
     </g>
     <g id="line2d_16">
      <g>
       <use xlink:href="#m080619c928" x="554.289096" y="202.803583" style="stroke: #000000; stroke-width: 0.8"/>
      </g>
     </g>
    </g>
    <g id="xtick_9">
     <g id="line2d_17">
      <path d="M 622.385256 202.803583 
L 622.385256 24.14175 
" clip-path="url(#p4f95e384f0)" style="fill: none; stroke-dasharray: 1.85,0.8; stroke-dashoffset: 0; stroke: #b2b2b2; stroke-width: 0.5"/>
     </g>
     <g id="line2d_18">
      <g>
       <use xlink:href="#m080619c928" x="622.385256" y="202.803583" style="stroke: #000000; stroke-width: 0.8"/>
      </g>
     </g>
    </g>
    <g id="xtick_10">
     <g id="line2d_19">
      <path d="M 691.229726 202.803583 
L 691.229726 24.14175 
" clip-path="url(#p4f95e384f0)" style="fill: none; stroke-dasharray: 1.85,0.8; stroke-dashoffset: 0; stroke: #b2b2b2; stroke-width: 0.5"/>
     </g>
     <g id="line2d_20">
      <g>
       <use xlink:href="#m080619c928" x="691.229726" y="202.803583" style="stroke: #000000; stroke-width: 0.8"/>
      </g>
     </g>
    </g>
   </g>
   <g id="matplotlib.axis_2">
    <g id="ytick_1">
     <g id="line2d_21">
      <path d="M 45.40125 195.868136 
L 721.19952 195.868136 
" clip-path="url(#p4f95e384f0)" style="fill: none; stroke-dasharray: 1.85,0.8; stroke-dashoffset: 0; stroke: #b2b2b2; stroke-width: 0.5"/>
     </g>
     <g id="line2d_22">
      <defs>
       <path id="mfa4ed9ab4e" d="M 0 0 
L 3.5 0 
" style="stroke: #000000; stroke-width: 0.8"/>
      </defs>
      <g>
       <use xlink:href="#mfa4ed9ab4e" x="45.40125" y="195.868136" style="stroke: #000000; stroke-width: 0.8"/>
      </g>
     </g>
     <g id="text_1">
      <!-- 0 -->
      <g transform="translate(35.53875 199.667355)scale(0.1 -0.1)">
       <defs>
        <path id="DejaVuSans-30" d="M 2034 4250 
Q 1547 4250 1301 3770 
Q 1056 3291 1056 2328 
Q 1056 1369 1301 889 
Q 1547 409 2034 409 
Q 2525 409 2770 889 
Q 3016 1369 3016 2328 
Q 3016 3291 2770 3770 
Q 2525 4250 2034 4250 
z
M 2034 4750 
Q 2819 4750 3233 4129 
Q 3647 3509 3647 2328 
Q 3647 1150 3233 529 
Q 2819 -91 2034 -91 
Q 1250 -91 836 529 
Q 422 1150 422 2328 
Q 422 3509 836 4129 
Q 1250 4750 2034 4750 
z
" transform="scale(0.015625)"/>
       </defs>
       <use xlink:href="#DejaVuSans-30"/>
      </g>
     </g>
    </g>
    <g id="ytick_2">
     <g id="line2d_23">
      <path d="M 45.40125 172.15721 
L 721.19952 172.15721 
" clip-path="url(#p4f95e384f0)" style="fill: none; stroke-dasharray: 1.85,0.8; stroke-dashoffset: 0; stroke: #b2b2b2; stroke-width: 0.5"/>
     </g>
     <g id="line2d_24">
      <g>
       <use xlink:href="#mfa4ed9ab4e" x="45.40125" y="172.15721" style="stroke: #000000; stroke-width: 0.8"/>
      </g>
     </g>
     <g id="text_2">
      <!-- 20 -->
      <g transform="translate(29.17625 175.956429)scale(0.1 -0.1)">
       <defs>
        <path id="DejaVuSans-32" d="M 1228 531 
L 3431 531 
L 3431 0 
L 469 0 
L 469 531 
Q 828 903 1448 1529 
Q 2069 2156 2228 2338 
Q 2531 2678 2651 2914 
Q 2772 3150 2772 3378 
Q 2772 3750 2511 3984 
Q 2250 4219 1831 4219 
Q 1534 4219 1204 4116 
Q 875 4013 500 3803 
L 500 4441 
Q 881 4594 1212 4672 
Q 1544 4750 1819 4750 
Q 2544 4750 2975 4387 
Q 3406 4025 3406 3419 
Q 3406 3131 3298 2873 
Q 3191 2616 2906 2266 
Q 2828 2175 2409 1742 
Q 1991 1309 1228 531 
z
" transform="scale(0.015625)"/>
       </defs>
       <use xlink:href="#DejaVuSans-32"/>
       <use xlink:href="#DejaVuSans-30" x="63.623047"/>
      </g>
     </g>
    </g>
    <g id="ytick_3">
     <g id="line2d_25">
      <path d="M 45.40125 148.446283 
L 721.19952 148.446283 
" clip-path="url(#p4f95e384f0)" style="fill: none; stroke-dasharray: 1.85,0.8; stroke-dashoffset: 0; stroke: #b2b2b2; stroke-width: 0.5"/>
     </g>
     <g id="line2d_26">
      <g>
       <use xlink:href="#mfa4ed9ab4e" x="45.40125" y="148.446283" style="stroke: #000000; stroke-width: 0.8"/>
      </g>
     </g>
     <g id="text_3">
      <!-- 40 -->
      <g transform="translate(29.17625 152.245502)scale(0.1 -0.1)">
       <defs>
        <path id="DejaVuSans-34" d="M 2419 4116 
L 825 1625 
L 2419 1625 
L 2419 4116 
z
M 2253 4666 
L 3047 4666 
L 3047 1625 
L 3713 1625 
L 3713 1100 
L 3047 1100 
L 3047 0 
L 2419 0 
L 2419 1100 
L 313 1100 
L 313 1709 
L 2253 4666 
z
" transform="scale(0.015625)"/>
       </defs>
       <use xlink:href="#DejaVuSans-34"/>
       <use xlink:href="#DejaVuSans-30" x="63.623047"/>
      </g>
     </g>
    </g>
    <g id="ytick_4">
     <g id="line2d_27">
      <path d="M 45.40125 124.735356 
L 721.19952 124.735356 
" clip-path="url(#p4f95e384f0)" style="fill: none; stroke-dasharray: 1.85,0.8; stroke-dashoffset: 0; stroke: #b2b2b2; stroke-width: 0.5"/>
     </g>
     <g id="line2d_28">
      <g>
       <use xlink:href="#mfa4ed9ab4e" x="45.40125" y="124.735356" style="stroke: #000000; stroke-width: 0.8"/>
      </g>
     </g>
     <g id="text_4">
      <!-- 60 -->
      <g transform="translate(29.17625 128.534575)scale(0.1 -0.1)">
       <defs>
        <path id="DejaVuSans-36" d="M 2113 2584 
Q 1688 2584 1439 2293 
Q 1191 2003 1191 1497 
Q 1191 994 1439 701 
Q 1688 409 2113 409 
Q 2538 409 2786 701 
Q 3034 994 3034 1497 
Q 3034 2003 2786 2293 
Q 2538 2584 2113 2584 
z
M 3366 4563 
L 3366 3988 
Q 3128 4100 2886 4159 
Q 2644 4219 2406 4219 
Q 1781 4219 1451 3797 
Q 1122 3375 1075 2522 
Q 1259 2794 1537 2939 
Q 1816 3084 2150 3084 
Q 2853 3084 3261 2657 
Q 3669 2231 3669 1497 
Q 3669 778 3244 343 
Q 2819 -91 2113 -91 
Q 1303 -91 875 529 
Q 447 1150 447 2328 
Q 447 3434 972 4092 
Q 1497 4750 2381 4750 
Q 2619 4750 2861 4703 
Q 3103 4656 3366 4563 
z
" transform="scale(0.015625)"/>
       </defs>
       <use xlink:href="#DejaVuSans-36"/>
       <use xlink:href="#DejaVuSans-30" x="63.623047"/>
      </g>
     </g>
    </g>
    <g id="ytick_5">
     <g id="line2d_29">
      <path d="M 45.40125 101.02443 
L 721.19952 101.02443 
" clip-path="url(#p4f95e384f0)" style="fill: none; stroke-dasharray: 1.85,0.8; stroke-dashoffset: 0; stroke: #b2b2b2; stroke-width: 0.5"/>
     </g>
     <g id="line2d_30">
      <g>
       <use xlink:href="#mfa4ed9ab4e" x="45.40125" y="101.02443" style="stroke: #000000; stroke-width: 0.8"/>
      </g>
     </g>
     <g id="text_5">
      <!-- 80 -->
      <g transform="translate(29.17625 104.823648)scale(0.1 -0.1)">
       <defs>
        <path id="DejaVuSans-38" d="M 2034 2216 
Q 1584 2216 1326 1975 
Q 1069 1734 1069 1313 
Q 1069 891 1326 650 
Q 1584 409 2034 409 
Q 2484 409 2743 651 
Q 3003 894 3003 1313 
Q 3003 1734 2745 1975 
Q 2488 2216 2034 2216 
z
M 1403 2484 
Q 997 2584 770 2862 
Q 544 3141 544 3541 
Q 544 4100 942 4425 
Q 1341 4750 2034 4750 
Q 2731 4750 3128 4425 
Q 3525 4100 3525 3541 
Q 3525 3141 3298 2862 
Q 3072 2584 2669 2484 
Q 3125 2378 3379 2068 
Q 3634 1759 3634 1313 
Q 3634 634 3220 271 
Q 2806 -91 2034 -91 
Q 1263 -91 848 271 
Q 434 634 434 1313 
Q 434 1759 690 2068 
Q 947 2378 1403 2484 
z
M 1172 3481 
Q 1172 3119 1398 2916 
Q 1625 2713 2034 2713 
Q 2441 2713 2670 2916 
Q 2900 3119 2900 3481 
Q 2900 3844 2670 4047 
Q 2441 4250 2034 4250 
Q 1625 4250 1398 4047 
Q 1172 3844 1172 3481 
z
" transform="scale(0.015625)"/>
       </defs>
       <use xlink:href="#DejaVuSans-38"/>
       <use xlink:href="#DejaVuSans-30" x="63.623047"/>
      </g>
     </g>
    </g>
    <g id="ytick_6">
     <g id="line2d_31">
      <path d="M 45.40125 77.313503 
L 721.19952 77.313503 
" clip-path="url(#p4f95e384f0)" style="fill: none; stroke-dasharray: 1.85,0.8; stroke-dashoffset: 0; stroke: #b2b2b2; stroke-width: 0.5"/>
     </g>
     <g id="line2d_32">
      <g>
       <use xlink:href="#mfa4ed9ab4e" x="45.40125" y="77.313503" style="stroke: #000000; stroke-width: 0.8"/>
      </g>
     </g>
     <g id="text_6">
      <!-- 100 -->
      <g transform="translate(22.81375 81.112722)scale(0.1 -0.1)">
       <defs>
        <path id="DejaVuSans-31" d="M 794 531 
L 1825 531 
L 1825 4091 
L 703 3866 
L 703 4441 
L 1819 4666 
L 2450 4666 
L 2450 531 
L 3481 531 
L 3481 0 
L 794 0 
L 794 531 
z
" transform="scale(0.015625)"/>
       </defs>
       <use xlink:href="#DejaVuSans-31"/>
       <use xlink:href="#DejaVuSans-30" x="63.623047"/>
       <use xlink:href="#DejaVuSans-30" x="127.246094"/>
      </g>
     </g>
    </g>
    <g id="ytick_7">
     <g id="line2d_33">
      <path d="M 45.40125 53.602576 
L 721.19952 53.602576 
" clip-path="url(#p4f95e384f0)" style="fill: none; stroke-dasharray: 1.85,0.8; stroke-dashoffset: 0; stroke: #b2b2b2; stroke-width: 0.5"/>
     </g>
     <g id="line2d_34">
      <g>
       <use xlink:href="#mfa4ed9ab4e" x="45.40125" y="53.602576" style="stroke: #000000; stroke-width: 0.8"/>
      </g>
     </g>
     <g id="text_7">
      <!-- 120 -->
      <g transform="translate(22.81375 57.401795)scale(0.1 -0.1)">
       <use xlink:href="#DejaVuSans-31"/>
       <use xlink:href="#DejaVuSans-32" x="63.623047"/>
       <use xlink:href="#DejaVuSans-30" x="127.246094"/>
      </g>
     </g>
    </g>
    <g id="ytick_8">
     <g id="line2d_35">
      <path d="M 45.40125 29.89165 
L 721.19952 29.89165 
" clip-path="url(#p4f95e384f0)" style="fill: none; stroke-dasharray: 1.85,0.8; stroke-dashoffset: 0; stroke: #b2b2b2; stroke-width: 0.5"/>
     </g>
     <g id="line2d_36">
      <g>
       <use xlink:href="#mfa4ed9ab4e" x="45.40125" y="29.89165" style="stroke: #000000; stroke-width: 0.8"/>
      </g>
     </g>
     <g id="text_8">
      <!-- 140 -->
      <g transform="translate(22.81375 33.690868)scale(0.1 -0.1)">
       <use xlink:href="#DejaVuSans-31"/>
       <use xlink:href="#DejaVuSans-34" x="63.623047"/>
       <use xlink:href="#DejaVuSans-30" x="127.246094"/>
      </g>
     </g>
    </g>
    <g id="text_9">
     <!-- sales -->
     <g transform="translate(16.318125 128.759541)rotate(-90)scale(0.12 -0.12)">
      <defs>
       <path id="DejaVuSans-73" d="M 2834 3397 
L 2834 2853 
Q 2591 2978 2328 3040 
Q 2066 3103 1784 3103 
Q 1356 3103 1142 2972 
Q 928 2841 928 2578 
Q 928 2378 1081 2264 
Q 1234 2150 1697 2047 
L 1894 2003 
Q 2506 1872 2764 1633 
Q 3022 1394 3022 966 
Q 3022 478 2636 193 
Q 2250 -91 1575 -91 
Q 1294 -91 989 -36 
Q 684 19 347 128 
L 347 722 
Q 666 556 975 473 
Q 1284 391 1588 391 
Q 1994 391 2212 530 
Q 2431 669 2431 922 
Q 2431 1156 2273 1281 
Q 2116 1406 1581 1522 
L 1381 1569 
Q 847 1681 609 1914 
Q 372 2147 372 2553 
Q 372 3047 722 3315 
Q 1072 3584 1716 3584 
Q 2034 3584 2315 3537 
Q 2597 3491 2834 3397 
z
" transform="scale(0.015625)"/>
       <path id="DejaVuSans-61" d="M 2194 1759 
Q 1497 1759 1228 1600 
Q 959 1441 959 1056 
Q 959 750 1161 570 
Q 1363 391 1709 391 
Q 2188 391 2477 730 
Q 2766 1069 2766 1631 
L 2766 1759 
L 2194 1759 
z
M 3341 1997 
L 3341 0 
L 2766 0 
L 2766 531 
Q 2569 213 2275 61 
Q 1981 -91 1556 -91 
Q 1019 -91 701 211 
Q 384 513 384 1019 
Q 384 1609 779 1909 
Q 1175 2209 1959 2209 
L 2766 2209 
L 2766 2266 
Q 2766 2663 2505 2880 
Q 2244 3097 1772 3097 
Q 1472 3097 1187 3025 
Q 903 2953 641 2809 
L 641 3341 
Q 956 3463 1253 3523 
Q 1550 3584 1831 3584 
Q 2591 3584 2966 3190 
Q 3341 2797 3341 1997 
z
" transform="scale(0.015625)"/>
       <path id="DejaVuSans-6c" d="M 603 4863 
L 1178 4863 
L 1178 0 
L 603 0 
L 603 4863 
z
" transform="scale(0.015625)"/>
       <path id="DejaVuSans-65" d="M 3597 1894 
L 3597 1613 
L 953 1613 
Q 991 1019 1311 708 
Q 1631 397 2203 397 
Q 2534 397 2845 478 
Q 3156 559 3463 722 
L 3463 178 
Q 3153 47 2828 -22 
Q 2503 -91 2169 -91 
Q 1331 -91 842 396 
Q 353 884 353 1716 
Q 353 2575 817 3079 
Q 1281 3584 2069 3584 
Q 2775 3584 3186 3129 
Q 3597 2675 3597 1894 
z
M 3022 2063 
Q 3016 2534 2758 2815 
Q 2500 3097 2075 3097 
Q 1594 3097 1305 2825 
Q 1016 2553 972 2059 
L 3022 2063 
z
" transform="scale(0.015625)"/>
      </defs>
      <use xlink:href="#DejaVuSans-73"/>
      <use xlink:href="#DejaVuSans-61" x="52.099609"/>
      <use xlink:href="#DejaVuSans-6c" x="113.378906"/>
      <use xlink:href="#DejaVuSans-65" x="141.162109"/>
      <use xlink:href="#DejaVuSans-73" x="202.685547"/>
     </g>
    </g>
   </g>
   <g id="line2d_37">
    <path d="M 76.119353 128.291995 
L 76.867663 127.106449 
L 77.615972 133.034181 
L 78.364282 153.188468 
L 79.112591 161.487293 
L 79.8609 131.848634 
L 80.60921 147.260737 
L 81.357519 96.282244 
L 82.105829 102.209976 
L 83.602448 133.034181 
L 84.350757 138.961912 
L 85.099067 160.301746 
L 85.847376 124.735356 
L 86.595686 127.106449 
L 87.343995 110.5088 
L 88.092304 114.065439 
L 88.840614 78.499049 
L 90.337233 141.333005 
L 91.833852 124.735356 
L 92.582161 99.838883 
L 93.330471 83.241235 
L 94.07878 97.467791 
L 94.82709 102.209976 
L 95.575399 124.735356 
L 96.323709 119.993171 
L 97.072018 63.086947 
L 97.820327 51.231484 
L 99.316946 118.807625 
L 100.065256 70.200225 
L 100.813565 136.59082 
L 102.310184 67.829132 
L 103.058494 90.354513 
L 103.806803 79.684596 
L 104.555113 103.395522 
L 105.303422 108.137708 
L 106.051731 111.694347 
L 106.800041 121.178717 
L 107.54835 85.612327 
L 108.29666 130.663088 
L 109.044969 93.911152 
L 109.793279 65.45804 
L 110.541588 77.313503 
L 111.289898 130.663088 
L 112.038207 116.436532 
L 112.786517 85.612327 
L 113.534826 60.715854 
L 114.283135 76.127957 
L 115.031445 115.250986 
L 115.779754 114.065439 
L 117.276373 141.333005 
L 118.024683 89.168966 
L 118.772992 73.756864 
L 119.521302 99.838883 
L 120.269611 96.282244 
L 121.017921 109.323254 
L 121.76623 153.188468 
L 122.514539 122.364264 
L 123.262849 154.374015 
L 124.759468 74.94241 
L 125.507777 63.086947 
L 126.256087 72.571318 
L 127.004396 138.961912 
L 127.752706 114.065439 
L 128.501015 77.313503 
L 129.249325 59.530308 
L 129.997634 73.756864 
L 130.745943 103.395522 
L 131.494253 67.829132 
L 132.242562 133.034181 
L 132.990872 125.920903 
L 133.739181 117.622078 
L 134.487491 79.684596 
L 135.2358 63.086947 
L 135.98411 64.272493 
L 136.732419 80.870142 
L 137.480729 121.178717 
L 138.229038 124.735356 
L 138.977348 95.096698 
L 139.725657 80.870142 
L 140.473966 71.385771 
L 141.222276 70.200225 
L 141.970585 82.055688 
L 142.718895 136.59082 
L 144.215514 79.684596 
L 144.963823 61.901401 
L 145.712133 73.756864 
L 146.460442 66.643586 
L 147.208752 87.98342 
L 147.957061 150.817376 
L 148.70537 153.188468 
L 149.45368 102.209976 
L 150.201989 60.715854 
L 151.698608 117.622078 
L 152.446918 122.364264 
L 153.195227 134.219727 
L 153.943537 142.518551 
L 154.691846 93.911152 
L 155.440156 79.684596 
L 156.188465 76.127957 
L 156.936774 70.200225 
L 157.685084 77.313503 
L 158.433393 143.704098 
L 159.181703 135.405273 
L 159.930012 71.385771 
L 160.678322 53.602576 
L 161.426631 97.467791 
L 162.174941 111.694347 
L 162.92325 104.581069 
L 163.67156 155.559561 
L 164.419869 153.188468 
L 165.168178 105.766615 
L 165.916488 72.571318 
L 166.664797 90.354513 
L 167.413107 70.200225 
L 168.161416 127.106449 
L 168.909726 140.147459 
L 169.658035 163.858385 
L 170.406345 106.952161 
L 171.154654 118.807625 
L 171.902964 92.725605 
L 172.651273 111.694347 
L 173.399583 109.323254 
L 174.147892 155.559561 
L 174.896201 159.1162 
L 175.644511 118.807625 
L 176.39282 152.002922 
L 177.14113 127.106449 
L 177.889439 112.879893 
L 178.637749 121.178717 
L 179.386058 167.415024 
L 180.134368 169.786117 
L 180.882677 89.168966 
L 181.630987 131.848634 
L 182.379296 130.663088 
L 183.875915 112.879893 
L 184.624224 163.858385 
L 185.372534 169.786117 
L 186.120843 133.034181 
L 186.869153 146.07519 
L 187.617462 167.415024 
L 188.365772 176.899395 
L 189.114081 168.600571 
L 189.862391 181.64158 
L 190.6107 170.971663 
L 191.359009 115.250986 
L 192.107319 111.694347 
L 192.855628 112.879893 
L 193.603938 128.291995 
L 194.352247 167.415024 
L 195.848866 176.899395 
L 196.597176 142.518551 
L 197.345485 156.745107 
L 198.093795 142.518551 
L 198.842104 155.559561 
L 199.590413 142.518551 
L 200.338723 182.827127 
L 201.087032 185.198219 
L 201.835342 141.333005 
L 202.583651 162.672839 
L 203.331961 142.518551 
L 204.08027 138.961912 
L 204.82858 122.364264 
L 205.576889 161.487293 
L 206.325199 168.600571 
L 207.073508 178.084941 
L 207.821817 159.1162 
L 208.570127 194.68259 
L 209.318436 165.043932 
L 210.066746 154.374015 
L 210.815055 186.383766 
L 211.563365 189.940405 
L 212.311674 153.188468 
L 213.059984 165.043932 
L 213.808293 188.754858 
L 214.556603 169.786117 
L 215.304912 193.497044 
L 216.053222 193.497044 
L 216.801531 194.68259 
L 217.54984 147.260737 
L 218.29815 167.415024 
L 219.046459 162.672839 
L 219.794769 168.600571 
L 220.543078 170.971663 
L 221.291388 184.012673 
L 222.039697 167.415024 
L 222.788007 142.518551 
L 223.536316 168.600571 
L 224.284626 130.663088 
L 225.032935 150.817376 
L 225.781244 150.817376 
L 226.529554 180.456034 
L 227.277863 176.899395 
L 228.026173 165.043932 
L 228.774482 184.012673 
L 229.522792 187.569312 
L 230.271101 175.713849 
L 231.019411 173.342756 
L 231.76772 193.497044 
L 232.51603 186.383766 
L 233.264339 155.559561 
L 234.012648 166.229478 
L 234.760958 169.786117 
L 235.509267 153.188468 
L 236.257577 147.260737 
L 237.005886 181.64158 
L 237.754196 172.15721 
L 238.502505 184.012673 
L 239.250815 170.971663 
L 239.999124 187.569312 
L 240.747434 173.342756 
L 241.495743 156.745107 
L 242.244052 188.754858 
L 242.992362 187.569312 
L 243.740671 170.971663 
L 244.488981 170.971663 
L 245.23729 173.342756 
L 245.9856 188.754858 
L 246.733909 185.198219 
L 247.482219 193.497044 
L 248.230528 192.311497 
L 248.978838 181.64158 
L 249.727147 182.827127 
L 250.475457 170.971663 
L 251.223766 153.188468 
L 251.972075 169.786117 
L 252.720385 179.270488 
L 253.468694 178.084941 
L 254.217004 152.002922 
L 254.965313 148.446283 
L 255.713623 160.301746 
L 256.461932 163.858385 
L 257.210242 159.1162 
L 257.958551 168.600571 
L 258.706861 170.971663 
L 259.45517 156.745107 
L 260.203479 191.125951 
L 260.951789 141.333005 
L 261.700098 182.827127 
L 262.448408 194.68259 
L 263.196717 141.333005 
L 263.945027 173.342756 
L 264.693336 179.270488 
L 265.441646 112.879893 
L 266.189955 157.930654 
L 266.938265 170.971663 
L 267.686574 159.1162 
L 268.434883 186.383766 
L 269.183193 182.827127 
L 269.931502 170.971663 
L 270.679812 181.64158 
L 271.428121 160.301746 
L 272.176431 147.260737 
L 272.92474 154.374015 
L 273.67305 170.971663 
L 274.421359 176.899395 
L 275.169669 153.188468 
L 275.917978 146.07519 
L 276.666287 167.415024 
L 277.414597 165.043932 
L 278.162906 154.374015 
L 278.911216 192.311497 
L 279.659525 173.342756 
L 280.407835 148.446283 
L 281.156144 138.961912 
L 281.904454 136.59082 
L 282.652763 123.54981 
L 283.401073 156.745107 
L 284.149382 165.043932 
L 284.897691 146.07519 
L 285.646001 153.188468 
L 286.39431 122.364264 
L 287.14262 99.838883 
L 287.890929 129.477542 
L 288.639239 127.106449 
L 289.387548 153.188468 
L 290.135858 140.147459 
L 290.884167 82.055688 
L 291.632477 161.487293 
L 292.380786 137.776366 
L 293.129096 142.518551 
L 293.877405 142.518551 
L 294.625714 166.229478 
L 295.374024 167.415024 
L 296.122333 119.993171 
L 296.870643 121.178717 
L 297.618952 106.952161 
L 298.367262 135.405273 
L 299.115571 108.137708 
L 299.863881 180.456034 
L 300.61219 161.487293 
L 301.3605 99.838883 
L 302.108809 137.776366 
L 302.857118 191.125951 
L 303.605428 102.209976 
L 304.353737 90.354513 
L 305.102047 121.178717 
L 305.850356 140.147459 
L 306.598666 95.096698 
L 307.346975 116.436532 
L 308.095285 109.323254 
L 308.843594 138.961912 
L 309.591904 129.477542 
L 310.340213 169.786117 
L 311.088522 149.631829 
L 311.836832 109.323254 
L 312.585141 106.952161 
L 313.333451 99.838883 
L 314.08176 131.848634 
L 314.83007 150.817376 
L 315.578379 140.147459 
L 316.326689 143.704098 
L 317.074998 95.096698 
L 317.823308 97.467791 
L 318.571617 106.952161 
L 319.319926 150.817376 
L 320.068236 122.364264 
L 320.816545 178.084941 
L 321.564855 155.559561 
L 322.313164 155.559561 
L 323.061474 84.426781 
L 323.809783 96.282244 
L 324.558093 104.581069 
L 325.306402 101.02443 
L 326.054712 149.631829 
L 326.803021 128.291995 
L 327.551331 95.096698 
L 328.29964 106.952161 
L 329.047949 89.168966 
L 329.796259 155.559561 
L 330.544568 84.426781 
L 331.292878 159.1162 
L 332.041187 127.106449 
L 332.789497 165.043932 
L 333.537806 117.622078 
L 334.286116 124.735356 
L 335.034425 134.219727 
L 335.782735 141.333005 
L 336.531044 152.002922 
L 337.279353 154.374015 
L 338.027663 84.426781 
L 338.775972 101.02443 
L 339.524282 89.168966 
L 340.272591 103.395522 
L 341.020901 128.291995 
L 341.76921 129.477542 
L 342.51752 123.54981 
L 343.265829 95.096698 
L 344.014139 109.323254 
L 344.762448 96.282244 
L 345.510757 116.436532 
L 346.259067 118.807625 
L 347.007376 165.043932 
L 347.755686 141.333005 
L 348.503995 95.096698 
L 349.252305 96.282244 
L 350.000614 105.766615 
L 350.748924 118.807625 
L 351.497233 155.559561 
L 352.245543 143.704098 
L 352.993852 150.817376 
L 353.742161 98.653337 
L 354.490471 84.426781 
L 355.23878 87.98342 
L 355.98709 111.694347 
L 356.735399 125.920903 
L 357.483709 124.735356 
L 358.232018 140.147459 
L 358.980328 90.354513 
L 359.728637 133.034181 
L 360.476947 115.250986 
L 361.225256 61.901401 
L 361.973565 90.354513 
L 362.721875 156.745107 
L 363.470184 138.961912 
L 364.218494 91.540059 
L 364.966803 90.354513 
L 365.715113 76.127957 
L 367.211732 92.725605 
L 367.960041 133.034181 
L 368.708351 130.663088 
L 369.45666 87.98342 
L 370.20497 104.581069 
L 370.953279 97.467791 
L 371.701588 92.725605 
L 372.449898 91.540059 
L 373.198207 155.559561 
L 373.946517 133.034181 
L 374.694826 87.98342 
L 375.443136 97.467791 
L 376.191445 97.467791 
L 376.939755 99.838883 
L 377.688064 95.096698 
L 378.436374 157.930654 
L 379.184683 161.487293 
L 379.932992 116.436532 
L 380.681302 111.694347 
L 381.429611 129.477542 
L 382.177921 103.395522 
L 382.92623 106.952161 
L 383.67454 148.446283 
L 384.422849 157.930654 
L 385.171159 93.911152 
L 385.919468 98.653337 
L 386.667778 95.096698 
L 387.416087 119.993171 
L 388.164396 124.735356 
L 388.912706 153.188468 
L 389.661015 130.663088 
L 390.409325 97.467791 
L 391.157634 112.879893 
L 391.905944 111.694347 
L 392.654253 91.540059 
L 393.402563 121.178717 
L 394.150872 156.745107 
L 394.899182 167.415024 
L 395.647491 153.188468 
L 396.3958 101.02443 
L 397.14411 92.725605 
L 397.892419 112.879893 
L 398.640729 99.838883 
L 399.389038 155.559561 
L 400.137348 144.889644 
L 400.885657 99.838883 
L 401.633967 99.838883 
L 402.382276 98.653337 
L 403.130586 96.282244 
L 403.878895 97.467791 
L 404.627205 178.084941 
L 405.375514 128.291995 
L 406.123823 93.911152 
L 406.872133 143.704098 
L 407.620442 89.168966 
L 408.368752 111.694347 
L 409.117061 110.5088 
L 409.865371 156.745107 
L 410.61368 157.930654 
L 411.36199 99.838883 
L 412.110299 115.250986 
L 412.858609 106.952161 
L 413.606918 168.600571 
L 414.355227 89.168966 
L 415.103537 135.405273 
L 415.851846 143.704098 
L 416.600156 102.209976 
L 417.348465 96.282244 
L 418.096775 125.920903 
L 418.845084 105.766615 
L 419.593394 119.993171 
L 420.341703 179.270488 
L 421.090013 166.229478 
L 421.838322 98.653337 
L 422.586631 111.694347 
L 423.334941 110.5088 
L 424.08325 118.807625 
L 424.83156 105.766615 
L 425.579869 184.012673 
L 426.328179 179.270488 
L 427.824798 84.426781 
L 428.573107 123.54981 
L 429.321417 122.364264 
L 430.069726 129.477542 
L 430.818035 159.1162 
L 431.566345 172.15721 
L 432.314654 105.766615 
L 433.062964 128.291995 
L 433.811273 173.342756 
L 434.559583 175.713849 
L 435.307892 104.581069 
L 436.056202 168.600571 
L 436.804511 157.930654 
L 437.552821 122.364264 
L 438.30113 106.952161 
L 439.049439 97.467791 
L 439.797749 99.838883 
L 440.546058 121.178717 
L 441.294368 186.383766 
L 442.042677 178.084941 
L 442.790987 115.250986 
L 443.539296 106.952161 
L 444.287606 108.137708 
L 445.035915 165.043932 
L 445.784225 146.07519 
L 446.532534 162.672839 
L 447.280844 160.301746 
L 448.029153 108.137708 
L 448.777462 111.694347 
L 449.525772 125.920903 
L 450.274081 153.188468 
L 451.022391 144.889644 
L 451.7707 184.012673 
L 452.51901 173.342756 
L 453.267319 176.899395 
L 454.015629 149.631829 
L 454.763938 153.188468 
L 455.512248 144.889644 
L 456.260557 152.002922 
L 457.008866 172.15721 
L 457.757176 168.600571 
L 458.505485 135.405273 
L 459.253795 118.807625 
L 460.002104 181.64158 
L 460.750414 189.940405 
L 461.498723 170.971663 
L 462.247033 169.786117 
L 462.995342 174.528302 
L 463.743652 143.704098 
L 464.491961 157.930654 
L 465.24027 152.002922 
L 465.98858 141.333005 
L 466.736889 146.07519 
L 467.485199 187.569312 
L 468.233508 176.899395 
L 468.981818 140.147459 
L 469.730127 178.084941 
L 470.478437 173.342756 
L 471.226746 141.333005 
L 471.975056 142.518551 
L 472.723365 175.713849 
L 473.471674 175.713849 
L 474.219984 137.776366 
L 474.968293 144.889644 
L 475.716603 123.54981 
L 476.464912 142.518551 
L 477.213222 155.559561 
L 477.961531 185.198219 
L 478.709841 185.198219 
L 479.45815 154.374015 
L 480.954769 181.64158 
L 481.703079 188.754858 
L 482.451388 170.971663 
L 483.199697 173.342756 
L 483.948007 184.012673 
L 484.696316 148.446283 
L 485.444626 155.559561 
L 486.192935 166.229478 
L 486.941245 188.754858 
L 487.689554 173.342756 
L 488.437864 188.754858 
L 489.186173 187.569312 
L 489.934483 146.07519 
L 490.682792 176.899395 
L 491.431101 167.415024 
L 492.179411 173.342756 
L 492.92772 173.342756 
L 493.67603 189.940405 
L 494.424339 187.569312 
L 495.172649 169.786117 
L 495.920958 163.858385 
L 496.669268 161.487293 
L 497.417577 142.518551 
L 498.165887 150.817376 
L 498.914196 188.754858 
L 499.662505 194.68259 
L 500.410815 180.456034 
L 501.159124 137.776366 
L 501.907434 143.704098 
L 503.404053 163.858385 
L 504.152362 187.569312 
L 504.900672 176.899395 
L 505.648981 184.012673 
L 506.397291 186.383766 
L 507.893909 174.528302 
L 508.642219 179.270488 
L 509.390528 194.68259 
L 510.138838 181.64158 
L 510.887147 187.569312 
L 511.635457 174.528302 
L 512.383766 179.270488 
L 513.132076 162.672839 
L 513.880385 182.827127 
L 514.628695 189.940405 
L 515.377004 184.012673 
L 516.125313 180.456034 
L 516.873623 180.456034 
L 517.621932 172.15721 
L 518.370242 182.827127 
L 519.118551 184.012673 
L 520.61517 191.125951 
L 521.36348 186.383766 
L 522.111789 176.899395 
L 522.860099 170.971663 
L 523.608408 178.084941 
L 524.356718 173.342756 
L 525.105027 188.754858 
L 525.853336 188.754858 
L 526.601646 167.415024 
L 527.349955 188.754858 
L 528.098265 181.64158 
L 528.846574 168.600571 
L 529.594884 172.15721 
L 531.091503 193.497044 
L 531.839812 173.342756 
L 532.588122 182.827127 
L 533.336431 179.270488 
L 534.08474 192.311497 
L 534.83305 181.64158 
L 535.581359 189.940405 
L 536.329669 187.569312 
L 537.077978 152.002922 
L 537.826288 163.858385 
L 538.574597 133.034181 
L 539.322907 159.1162 
L 540.071216 149.631829 
L 540.819526 187.569312 
L 541.567835 174.528302 
L 542.316144 143.704098 
L 543.064454 159.1162 
L 543.812763 167.415024 
L 544.561073 160.301746 
L 545.309382 178.084941 
L 546.057692 181.64158 
L 546.806001 178.084941 
L 548.30262 142.518551 
L 549.05093 149.631829 
L 549.799239 133.034181 
L 550.547548 144.889644 
L 551.295858 191.125951 
L 552.044167 172.15721 
L 552.792477 146.07519 
L 553.540786 149.631829 
L 554.289096 131.848634 
L 555.037405 134.219727 
L 555.785715 167.415024 
L 556.534024 179.270488 
L 557.282334 174.528302 
L 558.030643 131.848634 
L 558.778953 144.889644 
L 559.527262 141.333005 
L 560.275571 147.260737 
L 561.023881 156.745107 
L 561.77219 174.528302 
L 562.5205 161.487293 
L 563.268809 119.993171 
L 564.017119 143.704098 
L 564.765428 119.993171 
L 565.513738 116.436532 
L 566.262047 146.07519 
L 567.010357 149.631829 
L 567.758666 162.672839 
L 568.506975 161.487293 
L 569.255285 149.631829 
L 570.003594 140.147459 
L 570.751904 125.920903 
L 571.500213 134.219727 
L 572.248523 167.415024 
L 572.996832 159.1162 
L 573.745142 129.477542 
L 574.493451 122.364264 
L 575.241761 121.178717 
L 575.99007 111.694347 
L 576.738379 118.807625 
L 577.486689 178.084941 
L 578.234998 159.1162 
L 578.983308 122.364264 
L 579.731617 102.209976 
L 580.479927 118.807625 
L 581.228236 96.282244 
L 581.976546 104.581069 
L 582.724855 166.229478 
L 583.473165 154.374015 
L 584.221474 112.879893 
L 584.969783 106.952161 
L 585.718093 106.952161 
L 586.466402 97.467791 
L 587.214712 104.581069 
L 587.963021 140.147459 
L 588.711331 137.776366 
L 589.45964 93.911152 
L 590.20795 130.663088 
L 590.956259 114.065439 
L 591.704569 118.807625 
L 592.452878 121.178717 
L 593.201187 160.301746 
L 593.949497 134.219727 
L 594.697806 148.446283 
L 595.446116 103.395522 
L 596.194425 122.364264 
L 596.942735 121.178717 
L 597.691044 90.354513 
L 598.439354 157.930654 
L 599.187663 150.817376 
L 599.935973 170.971663 
L 600.684282 176.899395 
L 601.432592 112.879893 
L 602.180901 115.250986 
L 602.92921 125.920903 
L 603.67752 161.487293 
L 604.425829 141.333005 
L 605.174139 110.5088 
L 605.922448 95.096698 
L 606.670758 108.137708 
L 607.419067 114.065439 
L 608.167377 111.694347 
L 608.915686 154.374015 
L 609.663996 160.301746 
L 610.412305 121.178717 
L 611.160614 117.622078 
L 611.908924 98.653337 
L 612.657233 109.323254 
L 613.405543 110.5088 
L 614.153852 155.559561 
L 614.902162 150.817376 
L 615.650471 96.282244 
L 616.398781 103.395522 
L 617.14709 91.540059 
L 617.8954 101.02443 
L 618.643709 112.879893 
L 619.392018 168.600571 
L 620.140328 157.930654 
L 620.888637 80.870142 
L 621.636947 106.952161 
L 622.385256 95.096698 
L 623.133566 104.581069 
L 623.881875 149.631829 
L 624.630185 156.745107 
L 625.378494 149.631829 
L 626.126804 90.354513 
L 626.875113 123.54981 
L 627.623422 118.807625 
L 628.371732 133.034181 
L 629.120041 82.055688 
L 629.868351 127.106449 
L 630.61666 135.405273 
L 631.36497 101.02443 
L 632.113279 101.02443 
L 632.861589 99.838883 
L 633.609898 89.168966 
L 634.358208 99.838883 
L 635.106517 155.559561 
L 635.854827 148.446283 
L 636.603136 110.5088 
L 637.351445 108.137708 
L 638.099755 91.540059 
L 638.848064 97.467791 
L 639.596374 96.282244 
L 640.344683 149.631829 
L 641.092993 156.745107 
L 641.841302 92.725605 
L 642.589612 106.952161 
L 643.337921 95.096698 
L 644.086231 129.477542 
L 644.83454 109.323254 
L 646.331159 152.002922 
L 647.079468 101.02443 
L 647.827778 112.879893 
L 648.576087 101.02443 
L 649.324397 92.725605 
L 650.072706 112.879893 
L 650.821016 138.961912 
L 651.569325 124.735356 
L 652.317635 83.241235 
L 653.065944 155.559561 
L 653.814253 109.323254 
L 654.562563 80.870142 
L 655.310872 99.838883 
L 656.059182 142.518551 
L 656.807491 143.704098 
L 657.555801 102.209976 
L 658.30411 70.200225 
L 659.05242 89.168966 
L 659.800729 93.911152 
L 660.549039 108.137708 
L 661.297348 149.631829 
L 662.045657 136.59082 
L 662.793967 66.643586 
L 663.542276 91.540059 
L 664.290586 91.540059 
L 665.038895 86.797874 
L 665.787205 103.395522 
L 666.535514 140.147459 
L 667.283824 135.405273 
L 668.032133 99.838883 
L 668.780443 103.395522 
L 671.025371 121.178717 
L 671.77368 140.147459 
L 672.52199 130.663088 
L 673.270299 144.889644 
L 674.018609 77.313503 
L 674.766918 87.98342 
L 675.515228 160.301746 
L 676.263537 105.766615 
L 677.011847 147.260737 
L 677.760156 133.034181 
L 678.508466 82.055688 
L 679.256775 73.756864 
L 680.005084 69.014679 
L 680.753394 91.540059 
L 681.501703 54.788123 
L 682.250013 103.395522 
L 682.998322 115.250986 
L 683.746632 61.901401 
L 684.494941 69.014679 
L 685.243251 57.159215 
L 685.99156 32.262742 
L 686.73987 45.303752 
L 687.488179 101.02443 
L 688.236488 133.034181 
L 688.984798 34.633835 
L 689.733107 69.014679 
L 690.481417 110.5088 
L 690.481417 110.5088 
" clip-path="url(#p4f95e384f0)" style="fill: none; stroke: #000000; stroke-width: 2; stroke-linecap: square"/>
   </g>
   <g id="patch_3">
    <path d="M 45.40125 202.803583 
L 45.40125 24.14175 
" style="fill: none; stroke: #bcbcbc; stroke-width: 0.8; stroke-linejoin: miter; stroke-linecap: square"/>
   </g>
   <g id="patch_4">
    <path d="M 721.19952 202.803583 
L 721.19952 24.14175 
" style="fill: none; stroke: #bcbcbc; stroke-width: 0.8; stroke-linejoin: miter; stroke-linecap: square"/>
   </g>
   <g id="patch_5">
    <path d="M 45.40125 202.803583 
L 721.19952 202.803583 
" style="fill: none; stroke: #bcbcbc; stroke-width: 0.8; stroke-linejoin: miter; stroke-linecap: square"/>
   </g>
   <g id="patch_6">
    <path d="M 45.40125 24.14175 
L 721.19952 24.14175 
" style="fill: none; stroke: #bcbcbc; stroke-width: 0.8; stroke-linejoin: miter; stroke-linecap: square"/>
   </g>
   <g id="text_10">
    <!-- Sales -->
    <g transform="translate(364.13601 18.14175)scale(0.144 -0.144)">
     <defs>
      <path id="DejaVuSans-53" d="M 3425 4513 
L 3425 3897 
Q 3066 4069 2747 4153 
Q 2428 4238 2131 4238 
Q 1616 4238 1336 4038 
Q 1056 3838 1056 3469 
Q 1056 3159 1242 3001 
Q 1428 2844 1947 2747 
L 2328 2669 
Q 3034 2534 3370 2195 
Q 3706 1856 3706 1288 
Q 3706 609 3251 259 
Q 2797 -91 1919 -91 
Q 1588 -91 1214 -16 
Q 841 59 441 206 
L 441 856 
Q 825 641 1194 531 
Q 1563 422 1919 422 
Q 2459 422 2753 634 
Q 3047 847 3047 1241 
Q 3047 1584 2836 1778 
Q 2625 1972 2144 2069 
L 1759 2144 
Q 1053 2284 737 2584 
Q 422 2884 422 3419 
Q 422 4038 858 4394 
Q 1294 4750 2059 4750 
Q 2388 4750 2728 4690 
Q 3069 4631 3425 4513 
z
" transform="scale(0.015625)"/>
     </defs>
     <use xlink:href="#DejaVuSans-53"/>
     <use xlink:href="#DejaVuSans-61" x="63.476562"/>
     <use xlink:href="#DejaVuSans-6c" x="124.755859"/>
     <use xlink:href="#DejaVuSans-65" x="152.539062"/>
     <use xlink:href="#DejaVuSans-73" x="214.0625"/>
    </g>
   </g>
  </g>
  <g id="axes_2">
   <g id="patch_7">
    <path d="M 45.40125 404.407645 
L 721.19952 404.407645 
L 721.19952 225.745812 
L 45.40125 225.745812 
z
" style="fill: #eeeeee"/>
   </g>
   <g id="matplotlib.axis_3">
    <g id="xtick_11">
     <g id="line2d_38">
      <path d="M 76.119353 404.407645 
L 76.119353 225.745812 
" clip-path="url(#p335b0a5093)" style="fill: none; stroke-dasharray: 1.85,0.8; stroke-dashoffset: 0; stroke: #b2b2b2; stroke-width: 0.5"/>
     </g>
     <g id="line2d_39">
      <g>
       <use xlink:href="#m080619c928" x="76.119353" y="404.407645" style="stroke: #000000; stroke-width: 0.8"/>
      </g>
     </g>
     <g id="text_11">
      <!-- 2013-07 -->
      <g transform="translate(55.227947 415.506082)scale(0.1 -0.1)">
       <defs>
        <path id="DejaVuSans-33" d="M 2597 2516 
Q 3050 2419 3304 2112 
Q 3559 1806 3559 1356 
Q 3559 666 3084 287 
Q 2609 -91 1734 -91 
Q 1441 -91 1130 -33 
Q 819 25 488 141 
L 488 750 
Q 750 597 1062 519 
Q 1375 441 1716 441 
Q 2309 441 2620 675 
Q 2931 909 2931 1356 
Q 2931 1769 2642 2001 
Q 2353 2234 1838 2234 
L 1294 2234 
L 1294 2753 
L 1863 2753 
Q 2328 2753 2575 2939 
Q 2822 3125 2822 3475 
Q 2822 3834 2567 4026 
Q 2313 4219 1838 4219 
Q 1578 4219 1281 4162 
Q 984 4106 628 3988 
L 628 4550 
Q 988 4650 1302 4700 
Q 1616 4750 1894 4750 
Q 2613 4750 3031 4423 
Q 3450 4097 3450 3541 
Q 3450 3153 3228 2886 
Q 3006 2619 2597 2516 
z
" transform="scale(0.015625)"/>
        <path id="DejaVuSans-2d" d="M 313 2009 
L 1997 2009 
L 1997 1497 
L 313 1497 
L 313 2009 
z
" transform="scale(0.015625)"/>
        <path id="DejaVuSans-37" d="M 525 4666 
L 3525 4666 
L 3525 4397 
L 1831 0 
L 1172 0 
L 2766 4134 
L 525 4134 
L 525 4666 
z
" transform="scale(0.015625)"/>
       </defs>
       <use xlink:href="#DejaVuSans-32"/>
       <use xlink:href="#DejaVuSans-30" x="63.623047"/>
       <use xlink:href="#DejaVuSans-31" x="127.246094"/>
       <use xlink:href="#DejaVuSans-33" x="190.869141"/>
       <use xlink:href="#DejaVuSans-2d" x="254.492188"/>
       <use xlink:href="#DejaVuSans-30" x="290.576172"/>
       <use xlink:href="#DejaVuSans-37" x="354.199219"/>
      </g>
     </g>
    </g>
    <g id="xtick_12">
     <g id="line2d_40">
      <path d="M 144.963823 404.407645 
L 144.963823 225.745812 
" clip-path="url(#p335b0a5093)" style="fill: none; stroke-dasharray: 1.85,0.8; stroke-dashoffset: 0; stroke: #b2b2b2; stroke-width: 0.5"/>
     </g>
     <g id="line2d_41">
      <g>
       <use xlink:href="#m080619c928" x="144.963823" y="404.407645" style="stroke: #000000; stroke-width: 0.8"/>
      </g>
     </g>
     <g id="text_12">
      <!-- 2013-10 -->
      <g transform="translate(124.072417 415.506082)scale(0.1 -0.1)">
       <use xlink:href="#DejaVuSans-32"/>
       <use xlink:href="#DejaVuSans-30" x="63.623047"/>
       <use xlink:href="#DejaVuSans-31" x="127.246094"/>
       <use xlink:href="#DejaVuSans-33" x="190.869141"/>
       <use xlink:href="#DejaVuSans-2d" x="254.492188"/>
       <use xlink:href="#DejaVuSans-31" x="290.576172"/>
       <use xlink:href="#DejaVuSans-30" x="354.199219"/>
      </g>
     </g>
    </g>
    <g id="xtick_13">
     <g id="line2d_42">
      <path d="M 213.808293 404.407645 
L 213.808293 225.745812 
" clip-path="url(#p335b0a5093)" style="fill: none; stroke-dasharray: 1.85,0.8; stroke-dashoffset: 0; stroke: #b2b2b2; stroke-width: 0.5"/>
     </g>
     <g id="line2d_43">
      <g>
       <use xlink:href="#m080619c928" x="213.808293" y="404.407645" style="stroke: #000000; stroke-width: 0.8"/>
      </g>
     </g>
     <g id="text_13">
      <!-- 2014-01 -->
      <g transform="translate(192.916887 415.506082)scale(0.1 -0.1)">
       <use xlink:href="#DejaVuSans-32"/>
       <use xlink:href="#DejaVuSans-30" x="63.623047"/>
       <use xlink:href="#DejaVuSans-31" x="127.246094"/>
       <use xlink:href="#DejaVuSans-34" x="190.869141"/>
       <use xlink:href="#DejaVuSans-2d" x="254.492188"/>
       <use xlink:href="#DejaVuSans-30" x="290.576172"/>
       <use xlink:href="#DejaVuSans-31" x="354.199219"/>
      </g>
     </g>
    </g>
    <g id="xtick_14">
     <g id="line2d_44">
      <path d="M 281.156144 404.407645 
L 281.156144 225.745812 
" clip-path="url(#p335b0a5093)" style="fill: none; stroke-dasharray: 1.85,0.8; stroke-dashoffset: 0; stroke: #b2b2b2; stroke-width: 0.5"/>
     </g>
     <g id="line2d_45">
      <g>
       <use xlink:href="#m080619c928" x="281.156144" y="404.407645" style="stroke: #000000; stroke-width: 0.8"/>
      </g>
     </g>
     <g id="text_14">
      <!-- 2014-04 -->
      <g transform="translate(260.264738 415.506082)scale(0.1 -0.1)">
       <use xlink:href="#DejaVuSans-32"/>
       <use xlink:href="#DejaVuSans-30" x="63.623047"/>
       <use xlink:href="#DejaVuSans-31" x="127.246094"/>
       <use xlink:href="#DejaVuSans-34" x="190.869141"/>
       <use xlink:href="#DejaVuSans-2d" x="254.492188"/>
       <use xlink:href="#DejaVuSans-30" x="290.576172"/>
       <use xlink:href="#DejaVuSans-34" x="354.199219"/>
      </g>
     </g>
    </g>
    <g id="xtick_15">
     <g id="line2d_46">
      <path d="M 349.252305 404.407645 
L 349.252305 225.745812 
" clip-path="url(#p335b0a5093)" style="fill: none; stroke-dasharray: 1.85,0.8; stroke-dashoffset: 0; stroke: #b2b2b2; stroke-width: 0.5"/>
     </g>
     <g id="line2d_47">
      <g>
       <use xlink:href="#m080619c928" x="349.252305" y="404.407645" style="stroke: #000000; stroke-width: 0.8"/>
      </g>
     </g>
     <g id="text_15">
      <!-- 2014-07 -->
      <g transform="translate(328.360898 415.506082)scale(0.1 -0.1)">
       <use xlink:href="#DejaVuSans-32"/>
       <use xlink:href="#DejaVuSans-30" x="63.623047"/>
       <use xlink:href="#DejaVuSans-31" x="127.246094"/>
       <use xlink:href="#DejaVuSans-34" x="190.869141"/>
       <use xlink:href="#DejaVuSans-2d" x="254.492188"/>
       <use xlink:href="#DejaVuSans-30" x="290.576172"/>
       <use xlink:href="#DejaVuSans-37" x="354.199219"/>
      </g>
     </g>
    </g>
    <g id="xtick_16">
     <g id="line2d_48">
      <path d="M 418.096775 404.407645 
L 418.096775 225.745812 
" clip-path="url(#p335b0a5093)" style="fill: none; stroke-dasharray: 1.85,0.8; stroke-dashoffset: 0; stroke: #b2b2b2; stroke-width: 0.5"/>
     </g>
     <g id="line2d_49">
      <g>
       <use xlink:href="#m080619c928" x="418.096775" y="404.407645" style="stroke: #000000; stroke-width: 0.8"/>
      </g>
     </g>
     <g id="text_16">
      <!-- 2014-10 -->
      <g transform="translate(397.205368 415.506082)scale(0.1 -0.1)">
       <use xlink:href="#DejaVuSans-32"/>
       <use xlink:href="#DejaVuSans-30" x="63.623047"/>
       <use xlink:href="#DejaVuSans-31" x="127.246094"/>
       <use xlink:href="#DejaVuSans-34" x="190.869141"/>
       <use xlink:href="#DejaVuSans-2d" x="254.492188"/>
       <use xlink:href="#DejaVuSans-31" x="290.576172"/>
       <use xlink:href="#DejaVuSans-30" x="354.199219"/>
      </g>
     </g>
    </g>
    <g id="xtick_17">
     <g id="line2d_50">
      <path d="M 486.941245 404.407645 
L 486.941245 225.745812 
" clip-path="url(#p335b0a5093)" style="fill: none; stroke-dasharray: 1.85,0.8; stroke-dashoffset: 0; stroke: #b2b2b2; stroke-width: 0.5"/>
     </g>
     <g id="line2d_51">
      <g>
       <use xlink:href="#m080619c928" x="486.941245" y="404.407645" style="stroke: #000000; stroke-width: 0.8"/>
      </g>
     </g>
     <g id="text_17">
      <!-- 2015-01 -->
      <g transform="translate(466.049838 415.506082)scale(0.1 -0.1)">
       <defs>
        <path id="DejaVuSans-35" d="M 691 4666 
L 3169 4666 
L 3169 4134 
L 1269 4134 
L 1269 2991 
Q 1406 3038 1543 3061 
Q 1681 3084 1819 3084 
Q 2600 3084 3056 2656 
Q 3513 2228 3513 1497 
Q 3513 744 3044 326 
Q 2575 -91 1722 -91 
Q 1428 -91 1123 -41 
Q 819 9 494 109 
L 494 744 
Q 775 591 1075 516 
Q 1375 441 1709 441 
Q 2250 441 2565 725 
Q 2881 1009 2881 1497 
Q 2881 1984 2565 2268 
Q 2250 2553 1709 2553 
Q 1456 2553 1204 2497 
Q 953 2441 691 2322 
L 691 4666 
z
" transform="scale(0.015625)"/>
       </defs>
       <use xlink:href="#DejaVuSans-32"/>
       <use xlink:href="#DejaVuSans-30" x="63.623047"/>
       <use xlink:href="#DejaVuSans-31" x="127.246094"/>
       <use xlink:href="#DejaVuSans-35" x="190.869141"/>
       <use xlink:href="#DejaVuSans-2d" x="254.492188"/>
       <use xlink:href="#DejaVuSans-30" x="290.576172"/>
       <use xlink:href="#DejaVuSans-31" x="354.199219"/>
      </g>
     </g>
    </g>
    <g id="xtick_18">
     <g id="line2d_52">
      <path d="M 554.289096 404.407645 
L 554.289096 225.745812 
" clip-path="url(#p335b0a5093)" style="fill: none; stroke-dasharray: 1.85,0.8; stroke-dashoffset: 0; stroke: #b2b2b2; stroke-width: 0.5"/>
     </g>
     <g id="line2d_53">
      <g>
       <use xlink:href="#m080619c928" x="554.289096" y="404.407645" style="stroke: #000000; stroke-width: 0.8"/>
      </g>
     </g>
     <g id="text_18">
      <!-- 2015-04 -->
      <g transform="translate(533.39769 415.506082)scale(0.1 -0.1)">
       <use xlink:href="#DejaVuSans-32"/>
       <use xlink:href="#DejaVuSans-30" x="63.623047"/>
       <use xlink:href="#DejaVuSans-31" x="127.246094"/>
       <use xlink:href="#DejaVuSans-35" x="190.869141"/>
       <use xlink:href="#DejaVuSans-2d" x="254.492188"/>
       <use xlink:href="#DejaVuSans-30" x="290.576172"/>
       <use xlink:href="#DejaVuSans-34" x="354.199219"/>
      </g>
     </g>
    </g>
    <g id="xtick_19">
     <g id="line2d_54">
      <path d="M 622.385256 404.407645 
L 622.385256 225.745812 
" clip-path="url(#p335b0a5093)" style="fill: none; stroke-dasharray: 1.85,0.8; stroke-dashoffset: 0; stroke: #b2b2b2; stroke-width: 0.5"/>
     </g>
     <g id="line2d_55">
      <g>
       <use xlink:href="#m080619c928" x="622.385256" y="404.407645" style="stroke: #000000; stroke-width: 0.8"/>
      </g>
     </g>
     <g id="text_19">
      <!-- 2015-07 -->
      <g transform="translate(601.49385 415.506082)scale(0.1 -0.1)">
       <use xlink:href="#DejaVuSans-32"/>
       <use xlink:href="#DejaVuSans-30" x="63.623047"/>
       <use xlink:href="#DejaVuSans-31" x="127.246094"/>
       <use xlink:href="#DejaVuSans-35" x="190.869141"/>
       <use xlink:href="#DejaVuSans-2d" x="254.492188"/>
       <use xlink:href="#DejaVuSans-30" x="290.576172"/>
       <use xlink:href="#DejaVuSans-37" x="354.199219"/>
      </g>
     </g>
    </g>
    <g id="xtick_20">
     <g id="line2d_56">
      <path d="M 691.229726 404.407645 
L 691.229726 225.745812 
" clip-path="url(#p335b0a5093)" style="fill: none; stroke-dasharray: 1.85,0.8; stroke-dashoffset: 0; stroke: #b2b2b2; stroke-width: 0.5"/>
     </g>
     <g id="line2d_57">
      <g>
       <use xlink:href="#m080619c928" x="691.229726" y="404.407645" style="stroke: #000000; stroke-width: 0.8"/>
      </g>
     </g>
     <g id="text_20">
      <!-- 2015-10 -->
      <g transform="translate(670.33832 415.506082)scale(0.1 -0.1)">
       <use xlink:href="#DejaVuSans-32"/>
       <use xlink:href="#DejaVuSans-30" x="63.623047"/>
       <use xlink:href="#DejaVuSans-31" x="127.246094"/>
       <use xlink:href="#DejaVuSans-35" x="190.869141"/>
       <use xlink:href="#DejaVuSans-2d" x="254.492188"/>
       <use xlink:href="#DejaVuSans-31" x="290.576172"/>
       <use xlink:href="#DejaVuSans-30" x="354.199219"/>
      </g>
     </g>
    </g>
    <g id="text_21">
     <!-- date -->
     <g transform="translate(369.770385 430.703895)scale(0.12 -0.12)">
      <defs>
       <path id="DejaVuSans-64" d="M 2906 2969 
L 2906 4863 
L 3481 4863 
L 3481 0 
L 2906 0 
L 2906 525 
Q 2725 213 2448 61 
Q 2172 -91 1784 -91 
Q 1150 -91 751 415 
Q 353 922 353 1747 
Q 353 2572 751 3078 
Q 1150 3584 1784 3584 
Q 2172 3584 2448 3432 
Q 2725 3281 2906 2969 
z
M 947 1747 
Q 947 1113 1208 752 
Q 1469 391 1925 391 
Q 2381 391 2643 752 
Q 2906 1113 2906 1747 
Q 2906 2381 2643 2742 
Q 2381 3103 1925 3103 
Q 1469 3103 1208 2742 
Q 947 2381 947 1747 
z
" transform="scale(0.015625)"/>
       <path id="DejaVuSans-74" d="M 1172 4494 
L 1172 3500 
L 2356 3500 
L 2356 3053 
L 1172 3053 
L 1172 1153 
Q 1172 725 1289 603 
Q 1406 481 1766 481 
L 2356 481 
L 2356 0 
L 1766 0 
Q 1100 0 847 248 
Q 594 497 594 1153 
L 594 3053 
L 172 3053 
L 172 3500 
L 594 3500 
L 594 4494 
L 1172 4494 
z
" transform="scale(0.015625)"/>
      </defs>
      <use xlink:href="#DejaVuSans-64"/>
      <use xlink:href="#DejaVuSans-61" x="63.476562"/>
      <use xlink:href="#DejaVuSans-74" x="124.755859"/>
      <use xlink:href="#DejaVuSans-65" x="163.964844"/>
     </g>
    </g>
   </g>
   <g id="matplotlib.axis_4">
    <g id="ytick_9">
     <g id="line2d_58">
      <path d="M 45.40125 375.101455 
L 721.19952 375.101455 
" clip-path="url(#p335b0a5093)" style="fill: none; stroke-dasharray: 1.85,0.8; stroke-dashoffset: 0; stroke: #b2b2b2; stroke-width: 0.5"/>
     </g>
     <g id="line2d_59">
      <g>
       <use xlink:href="#mfa4ed9ab4e" x="45.40125" y="375.101455" style="stroke: #000000; stroke-width: 0.8"/>
      </g>
     </g>
     <g id="text_22">
      <!-- 270 -->
      <g transform="translate(22.81375 378.900674)scale(0.1 -0.1)">
       <use xlink:href="#DejaVuSans-32"/>
       <use xlink:href="#DejaVuSans-37" x="63.623047"/>
       <use xlink:href="#DejaVuSans-30" x="127.246094"/>
      </g>
     </g>
    </g>
    <g id="ytick_10">
     <g id="line2d_60">
      <path d="M 45.40125 339.792793 
L 721.19952 339.792793 
" clip-path="url(#p335b0a5093)" style="fill: none; stroke-dasharray: 1.85,0.8; stroke-dashoffset: 0; stroke: #b2b2b2; stroke-width: 0.5"/>
     </g>
     <g id="line2d_61">
      <g>
       <use xlink:href="#mfa4ed9ab4e" x="45.40125" y="339.792793" style="stroke: #000000; stroke-width: 0.8"/>
      </g>
     </g>
     <g id="text_23">
      <!-- 280 -->
      <g transform="translate(22.81375 343.592011)scale(0.1 -0.1)">
       <use xlink:href="#DejaVuSans-32"/>
       <use xlink:href="#DejaVuSans-38" x="63.623047"/>
       <use xlink:href="#DejaVuSans-30" x="127.246094"/>
      </g>
     </g>
    </g>
    <g id="ytick_11">
     <g id="line2d_62">
      <path d="M 45.40125 304.48413 
L 721.19952 304.48413 
" clip-path="url(#p335b0a5093)" style="fill: none; stroke-dasharray: 1.85,0.8; stroke-dashoffset: 0; stroke: #b2b2b2; stroke-width: 0.5"/>
     </g>
     <g id="line2d_63">
      <g>
       <use xlink:href="#mfa4ed9ab4e" x="45.40125" y="304.48413" style="stroke: #000000; stroke-width: 0.8"/>
      </g>
     </g>
     <g id="text_24">
      <!-- 290 -->
      <g transform="translate(22.81375 308.283349)scale(0.1 -0.1)">
       <defs>
        <path id="DejaVuSans-39" d="M 703 97 
L 703 672 
Q 941 559 1184 500 
Q 1428 441 1663 441 
Q 2288 441 2617 861 
Q 2947 1281 2994 2138 
Q 2813 1869 2534 1725 
Q 2256 1581 1919 1581 
Q 1219 1581 811 2004 
Q 403 2428 403 3163 
Q 403 3881 828 4315 
Q 1253 4750 1959 4750 
Q 2769 4750 3195 4129 
Q 3622 3509 3622 2328 
Q 3622 1225 3098 567 
Q 2575 -91 1691 -91 
Q 1453 -91 1209 -44 
Q 966 3 703 97 
z
M 1959 2075 
Q 2384 2075 2632 2365 
Q 2881 2656 2881 3163 
Q 2881 3666 2632 3958 
Q 2384 4250 1959 4250 
Q 1534 4250 1286 3958 
Q 1038 3666 1038 3163 
Q 1038 2656 1286 2365 
Q 1534 2075 1959 2075 
z
" transform="scale(0.015625)"/>
       </defs>
       <use xlink:href="#DejaVuSans-32"/>
       <use xlink:href="#DejaVuSans-39" x="63.623047"/>
       <use xlink:href="#DejaVuSans-30" x="127.246094"/>
      </g>
     </g>
    </g>
    <g id="ytick_12">
     <g id="line2d_64">
      <path d="M 45.40125 269.175467 
L 721.19952 269.175467 
" clip-path="url(#p335b0a5093)" style="fill: none; stroke-dasharray: 1.85,0.8; stroke-dashoffset: 0; stroke: #b2b2b2; stroke-width: 0.5"/>
     </g>
     <g id="line2d_65">
      <g>
       <use xlink:href="#mfa4ed9ab4e" x="45.40125" y="269.175467" style="stroke: #000000; stroke-width: 0.8"/>
      </g>
     </g>
     <g id="text_25">
      <!-- 300 -->
      <g transform="translate(22.81375 272.974686)scale(0.1 -0.1)">
       <use xlink:href="#DejaVuSans-33"/>
       <use xlink:href="#DejaVuSans-30" x="63.623047"/>
       <use xlink:href="#DejaVuSans-30" x="127.246094"/>
      </g>
     </g>
    </g>
    <g id="ytick_13">
     <g id="line2d_66">
      <path d="M 45.40125 233.866805 
L 721.19952 233.866805 
" clip-path="url(#p335b0a5093)" style="fill: none; stroke-dasharray: 1.85,0.8; stroke-dashoffset: 0; stroke: #b2b2b2; stroke-width: 0.5"/>
     </g>
     <g id="line2d_67">
      <g>
       <use xlink:href="#mfa4ed9ab4e" x="45.40125" y="233.866805" style="stroke: #000000; stroke-width: 0.8"/>
      </g>
     </g>
     <g id="text_26">
      <!-- 310 -->
      <g transform="translate(22.81375 237.666024)scale(0.1 -0.1)">
       <use xlink:href="#DejaVuSans-33"/>
       <use xlink:href="#DejaVuSans-31" x="63.623047"/>
       <use xlink:href="#DejaVuSans-30" x="127.246094"/>
      </g>
     </g>
    </g>
    <g id="text_27">
     <!-- temp -->
     <g transform="translate(16.318125 330.774229)rotate(-90)scale(0.12 -0.12)">
      <defs>
       <path id="DejaVuSans-6d" d="M 3328 2828 
Q 3544 3216 3844 3400 
Q 4144 3584 4550 3584 
Q 5097 3584 5394 3201 
Q 5691 2819 5691 2113 
L 5691 0 
L 5113 0 
L 5113 2094 
Q 5113 2597 4934 2840 
Q 4756 3084 4391 3084 
Q 3944 3084 3684 2787 
Q 3425 2491 3425 1978 
L 3425 0 
L 2847 0 
L 2847 2094 
Q 2847 2600 2669 2842 
Q 2491 3084 2119 3084 
Q 1678 3084 1418 2786 
Q 1159 2488 1159 1978 
L 1159 0 
L 581 0 
L 581 3500 
L 1159 3500 
L 1159 2956 
Q 1356 3278 1631 3431 
Q 1906 3584 2284 3584 
Q 2666 3584 2933 3390 
Q 3200 3197 3328 2828 
z
" transform="scale(0.015625)"/>
       <path id="DejaVuSans-70" d="M 1159 525 
L 1159 -1331 
L 581 -1331 
L 581 3500 
L 1159 3500 
L 1159 2969 
Q 1341 3281 1617 3432 
Q 1894 3584 2278 3584 
Q 2916 3584 3314 3078 
Q 3713 2572 3713 1747 
Q 3713 922 3314 415 
Q 2916 -91 2278 -91 
Q 1894 -91 1617 61 
Q 1341 213 1159 525 
z
M 3116 1747 
Q 3116 2381 2855 2742 
Q 2594 3103 2138 3103 
Q 1681 3103 1420 2742 
Q 1159 2381 1159 1747 
Q 1159 1113 1420 752 
Q 1681 391 2138 391 
Q 2594 391 2855 752 
Q 3116 1113 3116 1747 
z
" transform="scale(0.015625)"/>
      </defs>
      <use xlink:href="#DejaVuSans-74"/>
      <use xlink:href="#DejaVuSans-65" x="39.208984"/>
      <use xlink:href="#DejaVuSans-6d" x="100.732422"/>
      <use xlink:href="#DejaVuSans-70" x="198.144531"/>
     </g>
    </g>
   </g>
   <g id="line2d_68">
    <path d="M 76.119353 258.582869 
L 76.867663 276.2372 
L 77.615972 265.644601 
L 78.364282 262.113735 
L 79.112591 251.521136 
L 79.8609 244.459404 
L 80.60921 240.928537 
L 81.357519 240.928537 
L 82.105829 251.521136 
L 82.854138 255.052002 
L 83.602448 255.052002 
L 84.350757 258.582869 
L 85.099067 269.175467 
L 85.847376 262.113735 
L 87.343995 240.928537 
L 88.092304 240.928537 
L 89.588923 233.866805 
L 90.337233 233.866805 
L 91.833852 255.052002 
L 92.582161 258.582869 
L 93.330471 255.052002 
L 94.07878 262.113735 
L 94.82709 276.2372 
L 95.575399 265.644601 
L 96.323709 258.582869 
L 97.072018 269.175467 
L 97.820327 258.582869 
L 98.568637 265.644601 
L 99.316946 262.113735 
L 100.065256 272.706334 
L 100.813565 258.582869 
L 101.561875 272.706334 
L 102.310184 265.644601 
L 103.058494 272.706334 
L 103.806803 265.644601 
L 104.555113 269.175467 
L 105.303422 269.175467 
L 106.051731 258.582869 
L 106.800041 265.644601 
L 107.54835 269.175467 
L 108.29666 269.175467 
L 109.044969 276.2372 
L 109.793279 286.829799 
L 112.038207 265.644601 
L 112.786517 272.706334 
L 113.534826 269.175467 
L 114.283135 255.052002 
L 115.031445 251.521136 
L 115.779754 276.2372 
L 116.528064 269.175467 
L 117.276373 276.2372 
L 118.024683 269.175467 
L 118.772992 265.644601 
L 119.521302 258.582869 
L 121.017921 272.706334 
L 121.76623 262.113735 
L 122.514539 265.644601 
L 123.262849 262.113735 
L 124.011158 279.768066 
L 124.759468 269.175467 
L 125.507777 276.2372 
L 126.256087 290.360665 
L 127.004396 283.298932 
L 127.752706 272.706334 
L 128.501015 286.829799 
L 129.249325 258.582869 
L 129.997634 244.459404 
L 131.494253 272.706334 
L 132.242562 300.953264 
L 132.990872 286.829799 
L 134.487491 300.953264 
L 135.2358 283.298932 
L 136.732419 276.2372 
L 137.480729 279.768066 
L 138.229038 286.829799 
L 138.977348 300.953264 
L 139.725657 286.829799 
L 140.473966 286.829799 
L 141.222276 293.891531 
L 141.970585 297.422397 
L 142.718895 283.298932 
L 143.467204 290.360665 
L 144.215514 286.829799 
L 144.963823 272.706334 
L 145.712133 265.644601 
L 146.460442 276.2372 
L 147.208752 262.113735 
L 147.957061 279.768066 
L 148.70537 293.891531 
L 149.45368 283.298932 
L 150.201989 300.953264 
L 150.950299 304.48413 
L 151.698608 304.48413 
L 152.446918 297.422397 
L 153.195227 286.829799 
L 153.943537 300.953264 
L 154.691846 300.953264 
L 155.440156 290.360665 
L 156.188465 297.422397 
L 156.936774 283.298932 
L 158.433393 304.48413 
L 159.181703 311.545862 
L 159.930012 297.422397 
L 160.678322 300.953264 
L 161.426631 311.545862 
L 162.174941 325.669328 
L 162.92325 322.138461 
L 163.67156 322.138461 
L 164.419869 318.607595 
L 165.168178 311.545862 
L 165.916488 322.138461 
L 167.413107 293.891531 
L 168.161416 290.360665 
L 168.909726 304.48413 
L 169.658035 311.545862 
L 170.406345 339.792793 
L 171.154654 318.607595 
L 171.902964 308.014996 
L 172.651273 304.48413 
L 173.399583 332.73106 
L 174.147892 329.200194 
L 174.896201 311.545862 
L 175.644511 322.138461 
L 176.39282 325.669328 
L 177.14113 350.385391 
L 177.889439 325.669328 
L 178.637749 318.607595 
L 179.386058 315.076729 
L 180.882677 300.953264 
L 181.630987 311.545862 
L 182.379296 336.261926 
L 183.127605 325.669328 
L 183.875915 318.607595 
L 184.624224 322.138461 
L 185.372534 350.385391 
L 186.869153 336.261926 
L 187.617462 308.014996 
L 188.365772 336.261926 
L 189.114081 332.73106 
L 189.862391 339.792793 
L 190.6107 332.73106 
L 191.359009 332.73106 
L 192.107319 325.669328 
L 192.855628 329.200194 
L 193.603938 315.076729 
L 194.352247 315.076729 
L 195.100557 336.261926 
L 196.597176 329.200194 
L 197.345485 332.73106 
L 198.093795 360.97799 
L 198.842104 371.570589 
L 199.590413 322.138461 
L 200.338723 368.039723 
L 201.087032 350.385391 
L 201.835342 357.447124 
L 202.583651 371.570589 
L 203.331961 353.916258 
L 204.08027 322.138461 
L 204.82858 329.200194 
L 206.325199 293.891531 
L 207.073508 304.48413 
L 207.821817 329.200194 
L 208.570127 364.508856 
L 210.066746 350.385391 
L 210.815055 322.138461 
L 211.563365 336.261926 
L 212.311674 343.323659 
L 213.059984 368.039723 
L 213.808293 364.508856 
L 214.556603 322.138461 
L 215.304912 382.163188 
L 216.053222 378.632321 
L 216.801531 360.97799 
L 217.54984 322.138461 
L 218.29815 357.447124 
L 219.046459 385.694054 
L 219.794769 364.508856 
L 220.543078 360.97799 
L 221.291388 315.076729 
L 222.039697 318.607595 
L 222.788007 329.200194 
L 223.536316 336.261926 
L 224.284626 322.138461 
L 225.032935 350.385391 
L 225.781244 322.138461 
L 227.277863 322.138461 
L 228.026173 339.792793 
L 228.774482 346.854525 
L 229.522792 396.286653 
L 230.271101 389.22492 
L 231.019411 389.22492 
L 231.76772 375.101455 
L 232.51603 378.632321 
L 233.264339 346.854525 
L 234.012648 375.101455 
L 234.760958 382.163188 
L 235.509267 371.570589 
L 236.257577 350.385391 
L 237.005886 339.792793 
L 237.754196 325.669328 
L 238.502505 339.792793 
L 239.250815 360.97799 
L 239.999124 360.97799 
L 240.747434 364.508856 
L 241.495743 364.508856 
L 242.244052 371.570589 
L 242.992362 368.039723 
L 243.740671 371.570589 
L 244.488981 378.632321 
L 245.23729 378.632321 
L 245.9856 360.97799 
L 246.733909 350.385391 
L 248.230528 364.508856 
L 248.978838 364.508856 
L 249.727147 350.385391 
L 250.475457 346.854525 
L 251.223766 332.73106 
L 251.972075 339.792793 
L 252.720385 322.138461 
L 253.468694 325.669328 
L 254.217004 336.261926 
L 254.965313 364.508856 
L 255.713623 368.039723 
L 256.461932 368.039723 
L 257.210242 378.632321 
L 257.958551 357.447124 
L 258.706861 350.385391 
L 259.45517 357.447124 
L 260.203479 371.570589 
L 260.951789 353.916258 
L 261.700098 368.039723 
L 262.448408 353.916258 
L 263.196717 318.607595 
L 263.945027 332.73106 
L 264.693336 329.200194 
L 265.441646 300.953264 
L 266.189955 322.138461 
L 266.938265 329.200194 
L 267.686574 339.792793 
L 268.434883 315.076729 
L 269.183193 325.669328 
L 269.931502 364.508856 
L 270.679812 346.854525 
L 271.428121 346.854525 
L 272.176431 325.669328 
L 272.92474 329.200194 
L 273.67305 304.48413 
L 274.421359 318.607595 
L 275.169669 360.97799 
L 275.917978 353.916258 
L 276.666287 360.97799 
L 277.414597 343.323659 
L 278.162906 318.607595 
L 278.911216 322.138461 
L 279.659525 336.261926 
L 280.407835 322.138461 
L 281.156144 311.545862 
L 281.904454 322.138461 
L 282.652763 300.953264 
L 283.401073 318.607595 
L 284.149382 322.138461 
L 284.897691 311.545862 
L 285.646001 329.200194 
L 286.39431 300.953264 
L 287.14262 308.014996 
L 287.890929 308.014996 
L 288.639239 283.298932 
L 289.387548 286.829799 
L 290.135858 276.2372 
L 290.884167 279.768066 
L 291.632477 297.422397 
L 292.380786 336.261926 
L 293.129096 336.261926 
L 293.877405 332.73106 
L 294.625714 297.422397 
L 295.374024 311.545862 
L 296.122333 297.422397 
L 296.870643 286.829799 
L 297.618952 304.48413 
L 298.367262 308.014996 
L 299.115571 308.014996 
L 299.863881 300.953264 
L 300.61219 315.076729 
L 301.3605 300.953264 
L 302.108809 311.545862 
L 302.857118 325.669328 
L 303.605428 300.953264 
L 304.353737 304.48413 
L 305.102047 300.953264 
L 305.850356 304.48413 
L 306.598666 293.891531 
L 308.095285 293.891531 
L 308.843594 311.545862 
L 309.591904 308.014996 
L 310.340213 269.175467 
L 311.088522 269.175467 
L 311.836832 258.582869 
L 313.333451 293.891531 
L 314.08176 290.360665 
L 314.83007 293.891531 
L 315.578379 293.891531 
L 316.326689 300.953264 
L 317.823308 272.706334 
L 318.571617 283.298932 
L 319.319926 286.829799 
L 320.068236 293.891531 
L 320.816545 293.891531 
L 321.564855 269.175467 
L 322.313164 258.582869 
L 323.061474 258.582869 
L 323.809783 272.706334 
L 324.558093 300.953264 
L 325.306402 279.768066 
L 326.054712 286.829799 
L 326.803021 276.2372 
L 327.551331 269.175467 
L 328.29964 258.582869 
L 329.796259 279.768066 
L 330.544568 279.768066 
L 331.292878 265.644601 
L 332.041187 262.113735 
L 332.789497 276.2372 
L 333.537806 276.2372 
L 334.286116 279.768066 
L 335.034425 290.360665 
L 335.782735 272.706334 
L 336.531044 283.298932 
L 337.279353 269.175467 
L 338.027663 269.175467 
L 338.775972 251.521136 
L 339.524282 251.521136 
L 340.272591 258.582869 
L 341.020901 269.175467 
L 341.76921 276.2372 
L 342.51752 272.706334 
L 343.265829 265.644601 
L 344.014139 265.644601 
L 344.762448 262.113735 
L 345.510757 262.113735 
L 346.259067 265.644601 
L 347.007376 255.052002 
L 347.755686 265.644601 
L 348.503995 262.113735 
L 349.252305 251.521136 
L 350.000614 247.99027 
L 350.748924 251.521136 
L 351.497233 269.175467 
L 352.245543 265.644601 
L 352.993852 258.582869 
L 353.742161 247.99027 
L 354.490471 244.459404 
L 355.98709 265.644601 
L 357.483709 258.582869 
L 358.232018 262.113735 
L 359.728637 262.113735 
L 361.225256 269.175467 
L 361.973565 269.175467 
L 362.721875 276.2372 
L 363.470184 276.2372 
L 364.218494 262.113735 
L 364.966803 258.582869 
L 365.715113 251.521136 
L 366.463422 262.113735 
L 367.960041 269.175467 
L 368.708351 258.582869 
L 369.45666 265.644601 
L 370.20497 279.768066 
L 371.701588 265.644601 
L 372.449898 265.644601 
L 373.198207 279.768066 
L 373.946517 279.768066 
L 374.694826 262.113735 
L 375.443136 255.052002 
L 376.191445 265.644601 
L 376.939755 265.644601 
L 377.688064 269.175467 
L 378.436374 262.113735 
L 379.184683 258.582869 
L 379.932992 262.113735 
L 380.681302 272.706334 
L 381.429611 269.175467 
L 382.177921 276.2372 
L 382.92623 279.768066 
L 383.67454 276.2372 
L 384.422849 265.644601 
L 385.171159 269.175467 
L 385.919468 269.175467 
L 386.667778 265.644601 
L 387.416087 269.175467 
L 388.164396 283.298932 
L 388.912706 286.829799 
L 389.661015 272.706334 
L 390.409325 262.113735 
L 391.905944 255.052002 
L 392.654253 272.706334 
L 393.402563 276.2372 
L 394.150872 276.2372 
L 394.899182 255.052002 
L 395.647491 258.582869 
L 396.3958 251.521136 
L 397.14411 262.113735 
L 398.640729 262.113735 
L 399.389038 255.052002 
L 400.137348 272.706334 
L 401.633967 286.829799 
L 402.382276 279.768066 
L 403.130586 269.175467 
L 403.878895 279.768066 
L 404.627205 297.422397 
L 406.123823 290.360665 
L 406.872133 293.891531 
L 407.620442 286.829799 
L 408.368752 283.298932 
L 409.117061 297.422397 
L 409.865371 283.298932 
L 410.61368 279.768066 
L 411.36199 286.829799 
L 412.858609 286.829799 
L 413.606918 297.422397 
L 414.355227 276.2372 
L 415.103537 265.644601 
L 415.851846 262.113735 
L 416.600156 276.2372 
L 417.348465 286.829799 
L 418.096775 300.953264 
L 418.845084 293.891531 
L 419.593394 290.360665 
L 420.341703 293.891531 
L 421.090013 308.014996 
L 421.838322 290.360665 
L 422.586631 286.829799 
L 423.334941 286.829799 
L 424.08325 297.422397 
L 424.83156 300.953264 
L 425.579869 315.076729 
L 426.328179 304.48413 
L 427.076488 300.953264 
L 427.824798 276.2372 
L 428.573107 279.768066 
L 429.321417 286.829799 
L 430.069726 286.829799 
L 430.818035 293.891531 
L 431.566345 308.014996 
L 432.314654 311.545862 
L 433.062964 300.953264 
L 433.811273 315.076729 
L 434.559583 322.138461 
L 435.307892 297.422397 
L 436.056202 293.891531 
L 436.804511 304.48413 
L 437.552821 300.953264 
L 438.30113 286.829799 
L 439.049439 290.360665 
L 439.797749 315.076729 
L 440.546058 322.138461 
L 441.294368 325.669328 
L 442.042677 332.73106 
L 442.790987 308.014996 
L 443.539296 290.360665 
L 444.287606 300.953264 
L 445.035915 318.607595 
L 445.784225 325.669328 
L 446.532534 339.792793 
L 447.280844 315.076729 
L 448.777462 300.953264 
L 449.525772 300.953264 
L 450.274081 322.138461 
L 451.022391 346.854525 
L 451.7707 346.854525 
L 452.51901 343.323659 
L 453.267319 325.669328 
L 454.015629 332.73106 
L 454.763938 364.508856 
L 455.512248 339.792793 
L 456.260557 350.385391 
L 457.008866 343.323659 
L 458.505485 290.360665 
L 459.253795 300.953264 
L 460.002104 336.261926 
L 460.750414 353.916258 
L 462.247033 360.97799 
L 463.743652 304.48413 
L 464.491961 343.323659 
L 465.24027 336.261926 
L 465.98858 339.792793 
L 468.233508 339.792793 
L 468.981818 360.97799 
L 469.730127 343.323659 
L 470.478437 343.323659 
L 471.226746 357.447124 
L 471.975056 353.916258 
L 472.723365 343.323659 
L 473.471674 339.792793 
L 474.219984 332.73106 
L 474.968293 336.261926 
L 475.716603 325.669328 
L 476.464912 336.261926 
L 477.213222 353.916258 
L 477.961531 364.508856 
L 478.709841 357.447124 
L 479.45815 343.323659 
L 480.20646 336.261926 
L 480.954769 325.669328 
L 481.703079 308.014996 
L 482.451388 336.261926 
L 483.948007 329.200194 
L 484.696316 336.261926 
L 485.444626 360.97799 
L 486.192935 371.570589 
L 486.941245 364.508856 
L 487.689554 350.385391 
L 488.437864 353.916258 
L 489.186173 325.669328 
L 489.934483 329.200194 
L 490.682792 375.101455 
L 491.431101 382.163188 
L 492.179411 385.694054 
L 492.92772 368.039723 
L 493.67603 382.163188 
L 495.172649 353.916258 
L 495.920958 360.97799 
L 496.669268 378.632321 
L 497.417577 368.039723 
L 498.165887 360.97799 
L 498.914196 378.632321 
L 499.662505 353.916258 
L 500.410815 353.916258 
L 501.159124 357.447124 
L 501.907434 371.570589 
L 502.655743 357.447124 
L 503.404053 360.97799 
L 504.900672 353.916258 
L 505.648981 375.101455 
L 506.397291 371.570589 
L 507.1456 375.101455 
L 507.893909 375.101455 
L 508.642219 364.508856 
L 509.390528 378.632321 
L 510.138838 368.039723 
L 510.887147 346.854525 
L 511.635457 371.570589 
L 512.383766 357.447124 
L 513.132076 368.039723 
L 513.880385 382.163188 
L 514.628695 368.039723 
L 515.377004 350.385391 
L 516.125313 357.447124 
L 516.873623 360.97799 
L 517.621932 368.039723 
L 518.370242 357.447124 
L 519.118551 375.101455 
L 519.866861 375.101455 
L 520.61517 389.22492 
L 521.36348 389.22492 
L 522.111789 385.694054 
L 522.860099 375.101455 
L 523.608408 392.755786 
L 524.356718 396.286653 
L 525.105027 375.101455 
L 525.853336 343.323659 
L 526.601646 357.447124 
L 527.349955 392.755786 
L 528.098265 368.039723 
L 528.846574 382.163188 
L 529.594884 378.632321 
L 530.343193 382.163188 
L 531.091503 378.632321 
L 531.839812 360.97799 
L 532.588122 371.570589 
L 533.336431 339.792793 
L 534.08474 346.854525 
L 534.83305 375.101455 
L 535.581359 353.916258 
L 536.329669 336.261926 
L 537.077978 325.669328 
L 537.826288 339.792793 
L 538.574597 329.200194 
L 539.322907 339.792793 
L 540.071216 353.916258 
L 540.819526 339.792793 
L 541.567835 339.792793 
L 542.316144 336.261926 
L 543.064454 329.200194 
L 543.812763 346.854525 
L 544.561073 350.385391 
L 545.309382 357.447124 
L 546.057692 353.916258 
L 546.806001 353.916258 
L 547.554311 357.447124 
L 548.30262 353.916258 
L 549.05093 346.854525 
L 549.799239 318.607595 
L 550.547548 322.138461 
L 551.295858 346.854525 
L 552.044167 339.792793 
L 552.792477 329.200194 
L 554.289096 336.261926 
L 555.785715 300.953264 
L 556.534024 318.607595 
L 557.282334 322.138461 
L 558.030643 311.545862 
L 558.778953 311.545862 
L 559.527262 325.669328 
L 560.275571 336.261926 
L 561.023881 311.545862 
L 562.5205 318.607595 
L 563.268809 308.014996 
L 564.765428 308.014996 
L 565.513738 315.076729 
L 566.262047 297.422397 
L 567.010357 286.829799 
L 567.758666 293.891531 
L 568.506975 315.076729 
L 569.255285 311.545862 
L 570.003594 300.953264 
L 570.751904 332.73106 
L 571.500213 332.73106 
L 572.248523 315.076729 
L 572.996832 311.545862 
L 573.745142 311.545862 
L 575.241761 283.298932 
L 575.99007 293.891531 
L 576.738379 300.953264 
L 577.486689 290.360665 
L 578.234998 276.2372 
L 578.983308 265.644601 
L 579.731617 265.644601 
L 580.479927 276.2372 
L 581.976546 262.113735 
L 582.724855 276.2372 
L 583.473165 265.644601 
L 584.969783 265.644601 
L 585.718093 279.768066 
L 586.466402 290.360665 
L 587.214712 286.829799 
L 587.963021 262.113735 
L 589.45964 276.2372 
L 590.20795 279.768066 
L 591.704569 308.014996 
L 592.452878 290.360665 
L 593.201187 297.422397 
L 593.949497 276.2372 
L 596.194425 265.644601 
L 596.942735 265.644601 
L 597.691044 276.2372 
L 598.439354 269.175467 
L 599.187663 269.175467 
L 599.935973 297.422397 
L 600.684282 318.607595 
L 601.432592 297.422397 
L 602.180901 300.953264 
L 602.92921 290.360665 
L 603.67752 283.298932 
L 604.425829 286.829799 
L 605.174139 272.706334 
L 605.922448 269.175467 
L 606.670758 269.175467 
L 607.419067 258.582869 
L 608.167377 258.582869 
L 608.915686 265.644601 
L 609.663996 265.644601 
L 610.412305 272.706334 
L 611.160614 276.2372 
L 611.908924 272.706334 
L 612.657233 286.829799 
L 613.405543 272.706334 
L 614.153852 283.298932 
L 614.902162 272.706334 
L 615.650471 265.644601 
L 616.398781 244.459404 
L 617.14709 269.175467 
L 617.8954 269.175467 
L 618.643709 272.706334 
L 620.140328 286.829799 
L 620.888637 276.2372 
L 621.636947 269.175467 
L 622.385256 265.644601 
L 623.133566 272.706334 
L 623.881875 269.175467 
L 624.630185 279.768066 
L 625.378494 265.644601 
L 626.126804 265.644601 
L 626.875113 258.582869 
L 627.623422 262.113735 
L 628.371732 272.706334 
L 629.120041 265.644601 
L 630.61666 258.582869 
L 631.36497 262.113735 
L 632.113279 272.706334 
L 633.609898 272.706334 
L 634.358208 269.175467 
L 635.106517 262.113735 
L 635.854827 247.99027 
L 636.603136 247.99027 
L 637.351445 255.052002 
L 638.099755 265.644601 
L 638.848064 265.644601 
L 639.596374 262.113735 
L 640.344683 262.113735 
L 641.092993 255.052002 
L 641.841302 262.113735 
L 642.589612 247.99027 
L 643.337921 244.459404 
L 644.086231 258.582869 
L 644.83454 255.052002 
L 645.582849 255.052002 
L 646.331159 258.582869 
L 647.079468 251.521136 
L 647.827778 251.521136 
L 648.576087 258.582869 
L 649.324397 269.175467 
L 650.072706 265.644601 
L 650.821016 269.175467 
L 651.569325 265.644601 
L 653.065944 272.706334 
L 653.814253 262.113735 
L 654.562563 265.644601 
L 655.310872 258.582869 
L 656.059182 247.99027 
L 656.807491 251.521136 
L 657.555801 247.99027 
L 658.30411 251.521136 
L 659.05242 258.582869 
L 659.800729 262.113735 
L 660.549039 262.113735 
L 662.045657 269.175467 
L 662.793967 262.113735 
L 663.542276 258.582869 
L 664.290586 269.175467 
L 665.038895 272.706334 
L 665.787205 272.706334 
L 668.032133 251.521136 
L 668.780443 258.582869 
L 669.528752 251.521136 
L 670.277061 251.521136 
L 671.025371 265.644601 
L 671.77368 269.175467 
L 672.52199 262.113735 
L 673.270299 251.521136 
L 674.018609 244.459404 
L 674.766918 251.521136 
L 675.515228 269.175467 
L 677.011847 276.2372 
L 677.760156 276.2372 
L 678.508466 279.768066 
L 679.256775 265.644601 
L 680.753394 258.582869 
L 681.501703 262.113735 
L 682.998322 276.2372 
L 683.746632 290.360665 
L 684.494941 290.360665 
L 685.243251 276.2372 
L 685.99156 272.706334 
L 686.73987 283.298932 
L 687.488179 290.360665 
L 688.236488 290.360665 
L 688.984798 276.2372 
L 689.733107 269.175467 
L 690.481417 279.768066 
L 690.481417 279.768066 
" clip-path="url(#p335b0a5093)" style="fill: none; stroke: #348abd; stroke-width: 2; stroke-linecap: square"/>
   </g>
   <g id="patch_8">
    <path d="M 45.40125 404.407645 
L 45.40125 225.745812 
" style="fill: none; stroke: #bcbcbc; stroke-width: 0.8; stroke-linejoin: miter; stroke-linecap: square"/>
   </g>
   <g id="patch_9">
    <path d="M 721.19952 404.407645 
L 721.19952 225.745812 
" style="fill: none; stroke: #bcbcbc; stroke-width: 0.8; stroke-linejoin: miter; stroke-linecap: square"/>
   </g>
   <g id="patch_10">
    <path d="M 45.40125 404.407645 
L 721.19952 404.407645 
" style="fill: none; stroke: #bcbcbc; stroke-width: 0.8; stroke-linejoin: miter; stroke-linecap: square"/>
   </g>
   <g id="patch_11">
    <path d="M 45.40125 225.745812 
L 721.19952 225.745812 
" style="fill: none; stroke: #bcbcbc; stroke-width: 0.8; stroke-linejoin: miter; stroke-linecap: square"/>
   </g>
   <g id="text_28">
    <!-- Temperature -->
    <g transform="translate(337.69626 219.745812)scale(0.144 -0.144)">
     <defs>
      <path id="DejaVuSans-54" d="M -19 4666 
L 3928 4666 
L 3928 4134 
L 2272 4134 
L 2272 0 
L 1638 0 
L 1638 4134 
L -19 4134 
L -19 4666 
z
" transform="scale(0.015625)"/>
      <path id="DejaVuSans-72" d="M 2631 2963 
Q 2534 3019 2420 3045 
Q 2306 3072 2169 3072 
Q 1681 3072 1420 2755 
Q 1159 2438 1159 1844 
L 1159 0 
L 581 0 
L 581 3500 
L 1159 3500 
L 1159 2956 
Q 1341 3275 1631 3429 
Q 1922 3584 2338 3584 
Q 2397 3584 2469 3576 
Q 2541 3569 2628 3553 
L 2631 2963 
z
" transform="scale(0.015625)"/>
      <path id="DejaVuSans-75" d="M 544 1381 
L 544 3500 
L 1119 3500 
L 1119 1403 
Q 1119 906 1312 657 
Q 1506 409 1894 409 
Q 2359 409 2629 706 
Q 2900 1003 2900 1516 
L 2900 3500 
L 3475 3500 
L 3475 0 
L 2900 0 
L 2900 538 
Q 2691 219 2414 64 
Q 2138 -91 1772 -91 
Q 1169 -91 856 284 
Q 544 659 544 1381 
z
M 1991 3584 
L 1991 3584 
z
" transform="scale(0.015625)"/>
     </defs>
     <use xlink:href="#DejaVuSans-54"/>
     <use xlink:href="#DejaVuSans-65" x="44.083984"/>
     <use xlink:href="#DejaVuSans-6d" x="105.607422"/>
     <use xlink:href="#DejaVuSans-70" x="203.019531"/>
     <use xlink:href="#DejaVuSans-65" x="266.496094"/>
     <use xlink:href="#DejaVuSans-72" x="328.019531"/>
     <use xlink:href="#DejaVuSans-61" x="369.132812"/>
     <use xlink:href="#DejaVuSans-74" x="430.412109"/>
     <use xlink:href="#DejaVuSans-75" x="469.621094"/>
     <use xlink:href="#DejaVuSans-72" x="533"/>
     <use xlink:href="#DejaVuSans-65" x="571.863281"/>
    </g>
   </g>
  </g>
 </g>
 <defs>
  <clipPath id="p4f95e384f0">
   <rect x="45.40125" y="24.14175" width="675.79827" height="178.661833"/>
  </clipPath>
  <clipPath id="p335b0a5093">
   <rect x="45.40125" y="225.745812" width="675.79827" height="178.661832"/>
  </clipPath>
 </defs>
</svg>
