<?xml version="1.0" encoding="utf-8" standalone="no"?>
<!DOCTYPE svg PUBLIC "-//W3C//DTD SVG 1.1//EN"
  "http://www.w3.org/Graphics/SVG/1.1/DTD/svg11.dtd">
<svg xmlns:xlink="http://www.w3.org/1999/xlink" width="726.620101pt" height="386.293625pt" viewBox="0 0 726.620101 386.293625" xmlns="http://www.w3.org/2000/svg" version="1.1">
 <metadata>
  <rdf:RDF xmlns:dc="http://purl.org/dc/elements/1.1/" xmlns:cc="http://creativecommons.org/ns#" xmlns:rdf="http://www.w3.org/1999/02/22-rdf-syntax-ns#">
   <cc:Work>
    <dc:type rdf:resource="http://purl.org/dc/dcmitype/StillImage"/>
    <dc:date>2022-07-18T19:53:26.578604</dc:date>
    <dc:format>image/svg+xml</dc:format>
    <dc:creator>
     <cc:Agent>
      <dc:title>Matplotlib v3.5.1, https://matplotlib.org/</dc:title>
     </cc:Agent>
    </dc:creator>
   </cc:Work>
  </rdf:RDF>
 </metadata>
 <defs>
  <style type="text/css">*{stroke-linejoin: round; stroke-linecap: butt}</style>
 </defs>
 <g id="figure_1">
  <g id="patch_1">
   <path d="M 0 386.293625 
L 726.620101 386.293625 
L 726.620101 0 
L 0 0 
z
" style="fill: #ffffff"/>
  </g>
  <g id="axes_1">
   <g id="patch_2">
    <path d="M 45.40125 350.30175 
L 715.00125 350.30175 
L 715.00125 24.14175 
L 45.40125 24.14175 
z
" style="fill: #eeeeee"/>
   </g>
   <g id="PolyCollection_1">
    <defs>
     <path id="m4c0e3af88d" d="M 75.837614 -196.983783 
L 75.837614 -82.138712 
L 81.635016 -96.755358 
L 87.432419 -94.667266 
L 93.229821 -84.226805 
L 99.027224 -69.610159 
L 104.824627 -50.81733 
L 110.622029 -69.610159 
L 116.419432 -100.931542 
L 122.216834 -121.812464 
L 128.014237 -115.548187 
L 133.81164 -98.84345 
L 139.609042 -84.226805 
L 145.406445 -63.345883 
L 151.203847 -65.433975 
L 157.00125 -111.372003 
L 162.798653 -113.460095 
L 168.596055 -105.107726 
L 174.393458 -100.931542 
L 180.19086 -100.931542 
L 185.988263 -80.05062 
L 191.785666 -80.05062 
L 197.583068 -115.548187 
L 203.380471 -117.63628 
L 209.177873 -113.460095 
L 214.975276 -107.195819 
L 220.772679 -103.019634 
L 226.570081 -82.138712 
L 232.367484 -84.226805 
L 238.164886 -117.63628 
L 243.962289 -136.429109 
L 249.759692 -138.517202 
L 255.557094 -119.724372 
L 261.354497 -94.667266 
L 267.151899 -92.579173 
L 272.949302 -82.138712 
L 278.746705 -121.812464 
L 284.544107 -140.605294 
L 290.34151 -125.988648 
L 296.138912 -113.460095 
L 301.936315 -100.931542 
L 307.733718 -82.138712 
L 313.53112 -90.491081 
L 319.328523 -115.548187 
L 325.125925 -128.076741 
L 330.923328 -105.107726 
L 336.720731 -105.107726 
L 342.518133 -107.195819 
L 348.315536 -94.667266 
L 354.112938 -90.491081 
L 359.910341 -123.900556 
L 365.707744 -132.252925 
L 371.505146 -130.164833 
L 377.302549 -121.812464 
L 383.099951 -96.755358 
L 388.897354 -73.786344 
L 394.694756 -82.138712 
L 400.492159 -109.283911 
L 406.289562 -128.076741 
L 412.086964 -121.812464 
L 417.884367 -113.460095 
L 423.681769 -105.107726 
L 429.479172 -80.05062 
L 435.276575 -71.698251 
L 441.073977 -113.460095 
L 446.87138 -100.931542 
L 452.668782 -100.931542 
L 458.466185 -109.283911 
L 464.263588 -115.548187 
L 470.06099 -92.579173 
L 475.858393 -86.314897 
L 481.655795 -117.63628 
L 487.453198 -132.252925 
L 493.250601 -132.252925 
L 499.048003 -117.63628 
L 504.845406 -98.84345 
L 510.642808 -90.491081 
L 516.440211 -88.402989 
L 522.237614 -111.372003 
L 528.035016 -115.548187 
L 533.832419 -115.548187 
L 539.629821 -117.63628 
L 545.427224 -119.724372 
L 551.224627 -92.579173 
L 557.022029 -86.314897 
L 562.819432 -113.460095 
L 568.616834 -119.724372 
L 574.414237 -117.63628 
L 580.21164 -111.372003 
L 586.009042 -107.195819 
L 591.806445 -90.491081 
L 597.603847 -82.138712 
L 603.40125 -117.63628 
L 609.198653 -121.812464 
L 614.996055 -121.812464 
L 620.793458 -115.548187 
L 626.59086 -111.372003 
L 632.388263 -90.491081 
L 638.185666 -80.05062 
L 643.983068 -92.579173 
L 649.780471 -107.195819 
L 655.577873 -117.63628 
L 661.375276 -105.107726 
L 667.172679 -86.314897 
L 672.970081 -69.610159 
L 678.767484 -71.698251 
L 684.564886 -90.491081 
L 684.564886 -230.393258 
L 684.564886 -230.393258 
L 678.767484 -180.279045 
L 672.970081 -174.014769 
L 667.172679 -217.864705 
L 661.375276 -259.626548 
L 655.577873 -288.859839 
L 649.780471 -265.890825 
L 643.983068 -234.569442 
L 638.185666 -192.807598 
L 632.388263 -226.217073 
L 626.59086 -274.243194 
L 620.793458 -284.683655 
L 614.996055 -309.740761 
L 609.198653 -305.564577 
L 603.40125 -284.683655 
L 597.603847 -203.248059 
L 591.806445 -226.217073 
L 586.009042 -270.067009 
L 580.21164 -280.50747 
L 574.414237 -290.947931 
L 568.616834 -297.212208 
L 562.819432 -280.50747 
L 557.022029 -219.952797 
L 551.224627 -232.48135 
L 545.427224 -288.859839 
L 539.629821 -288.859839 
L 533.832419 -290.947931 
L 528.035016 -286.771747 
L 522.237614 -278.419378 
L 516.440211 -213.68852 
L 510.642808 -232.48135 
L 504.845406 -253.362272 
L 499.048003 -295.124116 
L 493.250601 -326.445499 
L 487.453198 -326.445499 
L 481.655795 -295.124116 
L 475.858393 -211.600428 
L 470.06099 -234.569442 
L 464.263588 -284.683655 
L 458.466185 -272.155102 
L 452.668782 -261.714641 
L 446.87138 -259.626548 
L 441.073977 -280.50747 
L 435.276575 -184.45523 
L 429.479172 -196.983783 
L 423.681769 -255.450364 
L 417.884367 -276.331286 
L 412.086964 -311.828853 
L 406.289562 -311.828853 
L 400.492159 -274.243194 
L 394.694756 -205.336152 
L 388.897354 -190.719506 
L 383.099951 -247.097995 
L 377.302549 -299.3003 
L 371.505146 -326.445499 
L 365.707744 -324.357406 
L 359.910341 -303.476484 
L 354.112938 -219.952797 
L 348.315536 -232.48135 
L 342.518133 -274.243194 
L 336.720731 -261.714641 
L 330.923328 -272.155102 
L 325.125925 -320.181222 
L 319.328523 -297.212208 
L 313.53112 -224.128981 
L 307.733718 -201.159967 
L 301.936315 -253.362272 
L 296.138912 -288.859839 
L 290.34151 -313.916945 
L 284.544107 -345.238328 
L 278.746705 -309.740761 
L 272.949302 -211.600428 
L 267.151899 -228.305166 
L 261.354497 -242.921811 
L 255.557094 -299.3003 
L 249.759692 -347.32642 
L 243.962289 -343.150236 
L 238.164886 -297.212208 
L 232.367484 -213.68852 
L 226.570081 -203.248059 
L 220.772679 -255.450364 
L 214.975276 -276.331286 
L 209.177873 -286.771747 
L 203.380471 -290.947931 
L 197.583068 -284.683655 
L 191.785666 -199.071875 
L 185.988263 -199.071875 
L 180.19086 -261.714641 
L 174.393458 -251.27418 
L 168.596055 -274.243194 
L 162.798653 -284.683655 
L 157.00125 -278.419378 
L 151.203847 -169.838584 
L 145.406445 -159.398123 
L 139.609042 -217.864705 
L 133.81164 -251.27418 
L 128.014237 -288.859839 
L 122.216834 -307.652669 
L 116.419432 -261.714641 
L 110.622029 -184.45523 
L 104.824627 -130.164833 
L 99.027224 -190.719506 
L 93.229821 -222.040889 
L 87.432419 -249.186088 
L 81.635016 -251.27418 
L 75.837614 -196.983783 
z
" style="stroke: #348abd; stroke-opacity: 0.2; stroke-width: 0.5"/>
    </defs>
    <g clip-path="url(#p2b3eb95b22)">
     <use xlink:href="#m4c0e3af88d" x="0" y="386.293625" style="fill: #348abd; fill-opacity: 0.2; stroke: #348abd; stroke-opacity: 0.2; stroke-width: 0.5"/>
    </g>
   </g>
   <g id="PolyCollection_2">
    <defs>
     <path id="m2e3d67bde3" d="M 75.837614 -151.045755 
L 75.837614 -113.460095 
L 81.635016 -134.341017 
L 87.432419 -136.429109 
L 93.229821 -117.63628 
L 99.027224 -98.84345 
L 104.824627 -65.433975 
L 110.622029 -98.84345 
L 116.419432 -151.045755 
L 122.216834 -171.926677 
L 128.014237 -157.310031 
L 133.81164 -138.517202 
L 139.609042 -119.724372 
L 145.406445 -86.314897 
L 151.203847 -94.667266 
L 157.00125 -148.957662 
L 162.798653 -151.045755 
L 168.596055 -148.957662 
L 174.393458 -136.429109 
L 180.19086 -136.429109 
L 185.988263 -107.195819 
L 191.785666 -111.372003 
L 197.583068 -159.398123 
L 203.380471 -153.133847 
L 209.177873 -153.133847 
L 214.975276 -146.86957 
L 220.772679 -138.517202 
L 226.570081 -115.548187 
L 232.367484 -115.548187 
L 238.164886 -165.6624 
L 243.962289 -188.631414 
L 249.759692 -184.45523 
L 255.557094 -161.486216 
L 261.354497 -136.429109 
L 267.151899 -121.812464 
L 272.949302 -117.63628 
L 278.746705 -167.750492 
L 284.544107 -188.631414 
L 290.34151 -176.102861 
L 296.138912 -163.574308 
L 301.936315 -136.429109 
L 307.733718 -111.372003 
L 313.53112 -119.724372 
L 319.328523 -163.574308 
L 325.125925 -176.102861 
L 330.923328 -146.86957 
L 336.720731 -142.693386 
L 342.518133 -146.86957 
L 348.315536 -123.900556 
L 354.112938 -119.724372 
L 359.910341 -169.838584 
L 365.707744 -176.102861 
L 371.505146 -178.190953 
L 377.302549 -161.486216 
L 383.099951 -140.605294 
L 388.897354 -107.195819 
L 394.694756 -109.283911 
L 400.492159 -151.045755 
L 406.289562 -165.6624 
L 412.086964 -169.838584 
L 417.884367 -148.957662 
L 423.681769 -138.517202 
L 429.479172 -105.107726 
L 435.276575 -100.931542 
L 441.073977 -157.310031 
L 446.87138 -142.693386 
L 452.668782 -136.429109 
L 458.466185 -151.045755 
L 464.263588 -151.045755 
L 470.06099 -128.076741 
L 475.858393 -115.548187 
L 481.655795 -157.310031 
L 487.453198 -178.190953 
L 493.250601 -182.367137 
L 499.048003 -171.926677 
L 504.845406 -136.429109 
L 510.642808 -125.988648 
L 516.440211 -113.460095 
L 522.237614 -153.133847 
L 528.035016 -148.957662 
L 533.832419 -159.398123 
L 539.629821 -159.398123 
L 545.427224 -159.398123 
L 551.224627 -125.988648 
L 557.022029 -119.724372 
L 562.819432 -153.133847 
L 568.616834 -169.838584 
L 574.414237 -159.398123 
L 580.21164 -153.133847 
L 586.009042 -148.957662 
L 591.806445 -119.724372 
L 597.603847 -115.548187 
L 603.40125 -157.310031 
L 609.198653 -176.102861 
L 614.996055 -167.750492 
L 620.793458 -157.310031 
L 626.59086 -155.221939 
L 632.388263 -113.460095 
L 638.185666 -103.019634 
L 643.983068 -123.900556 
L 649.780471 -142.693386 
L 655.577873 -163.574308 
L 661.375276 -142.693386 
L 667.172679 -123.900556 
L 672.970081 -90.491081 
L 678.767484 -100.931542 
L 684.564886 -130.164833 
L 684.564886 -176.102861 
L 684.564886 -176.102861 
L 678.767484 -136.429109 
L 672.970081 -125.988648 
L 667.172679 -167.750492 
L 661.375276 -194.895691 
L 655.577873 -222.040889 
L 649.780471 -196.983783 
L 643.983068 -171.926677 
L 638.185666 -140.605294 
L 632.388263 -159.398123 
L 626.59086 -209.512336 
L 620.793458 -213.68852 
L 614.996055 -230.393258 
L 609.198653 -236.657534 
L 603.40125 -213.68852 
L 597.603847 -155.221939 
L 591.806445 -165.6624 
L 586.009042 -203.248059 
L 580.21164 -209.512336 
L 574.414237 -217.864705 
L 568.616834 -228.305166 
L 562.819432 -209.512336 
L 557.022029 -163.574308 
L 551.224627 -171.926677 
L 545.427224 -215.776613 
L 539.629821 -217.864705 
L 533.832419 -217.864705 
L 528.035016 -207.424244 
L 522.237614 -209.512336 
L 516.440211 -157.310031 
L 510.642808 -171.926677 
L 504.845406 -188.631414 
L 499.048003 -230.393258 
L 493.250601 -247.097995 
L 487.453198 -242.921811 
L 481.655795 -217.864705 
L 475.858393 -157.310031 
L 470.06099 -176.102861 
L 464.263588 -207.424244 
L 458.466185 -205.336152 
L 452.668782 -190.719506 
L 446.87138 -194.895691 
L 441.073977 -213.68852 
L 435.276575 -138.517202 
L 429.479172 -144.781478 
L 423.681769 -188.631414 
L 417.884367 -203.248059 
L 412.086964 -232.48135 
L 406.289562 -228.305166 
L 400.492159 -205.336152 
L 394.694756 -151.045755 
L 388.897354 -144.781478 
L 383.099951 -188.631414 
L 377.302549 -222.040889 
L 371.505146 -245.009903 
L 365.707744 -240.833719 
L 359.910341 -230.393258 
L 354.112938 -163.574308 
L 348.315536 -169.838584 
L 342.518133 -203.248059 
L 336.720731 -194.895691 
L 330.923328 -203.248059 
L 325.125925 -240.833719 
L 319.328523 -224.128981 
L 313.53112 -165.6624 
L 307.733718 -151.045755 
L 301.936315 -188.631414 
L 296.138912 -222.040889 
L 290.34151 -238.745627 
L 284.544107 -257.538456 
L 278.746705 -230.393258 
L 272.949302 -159.398123 
L 267.151899 -167.750492 
L 261.354497 -184.45523 
L 255.557094 -222.040889 
L 249.759692 -255.450364 
L 243.962289 -257.538456 
L 238.164886 -224.128981 
L 232.367484 -159.398123 
L 226.570081 -155.221939 
L 220.772679 -190.719506 
L 214.975276 -203.248059 
L 209.177873 -211.600428 
L 203.380471 -211.600428 
L 197.583068 -215.776613 
L 191.785666 -151.045755 
L 185.988263 -146.86957 
L 180.19086 -190.719506 
L 174.393458 -186.543322 
L 168.596055 -205.336152 
L 162.798653 -209.512336 
L 157.00125 -205.336152 
L 151.203847 -128.076741 
L 145.406445 -117.63628 
L 139.609042 -163.574308 
L 133.81164 -188.631414 
L 128.014237 -215.776613 
L 122.216834 -232.48135 
L 116.419432 -203.248059 
L 110.622029 -136.429109 
L 104.824627 -92.579173 
L 99.027224 -138.517202 
L 93.229821 -163.574308 
L 87.432419 -186.543322 
L 81.635016 -186.543322 
L 75.837614 -151.045755 
z
" style="stroke: #348abd; stroke-opacity: 0.3; stroke-width: 0.5"/>
    </defs>
    <g clip-path="url(#p2b3eb95b22)">
     <use xlink:href="#m2e3d67bde3" x="0" y="386.293625" style="fill: #348abd; fill-opacity: 0.3; stroke: #348abd; stroke-opacity: 0.3; stroke-width: 0.5"/>
    </g>
   </g>
   <g id="matplotlib.axis_1">
    <g id="xtick_1">
     <g id="line2d_1">
      <path d="M 75.837614 350.30175 
L 75.837614 24.14175 
" clip-path="url(#p2b3eb95b22)" style="fill: none; stroke-dasharray: 1.85,0.8; stroke-dashoffset: 0; stroke: #b2b2b2; stroke-width: 0.5"/>
     </g>
     <g id="line2d_2">
      <defs>
       <path id="m2691bce227" d="M 0 0 
L 0 -3.5 
" style="stroke: #000000; stroke-width: 0.8"/>
      </defs>
      <g>
       <use xlink:href="#m2691bce227" x="75.837614" y="350.30175" style="stroke: #000000; stroke-width: 0.8"/>
      </g>
     </g>
     <g id="text_1">
      <!-- 2013-07-01 -->
      <g transform="translate(46.779801 361.400188)scale(0.1 -0.1)">
       <defs>
        <path id="DejaVuSans-32" d="M 1228 531 
L 3431 531 
L 3431 0 
L 469 0 
L 469 531 
Q 828 903 1448 1529 
Q 2069 2156 2228 2338 
Q 2531 2678 2651 2914 
Q 2772 3150 2772 3378 
Q 2772 3750 2511 3984 
Q 2250 4219 1831 4219 
Q 1534 4219 1204 4116 
Q 875 4013 500 3803 
L 500 4441 
Q 881 4594 1212 4672 
Q 1544 4750 1819 4750 
Q 2544 4750 2975 4387 
Q 3406 4025 3406 3419 
Q 3406 3131 3298 2873 
Q 3191 2616 2906 2266 
Q 2828 2175 2409 1742 
Q 1991 1309 1228 531 
z
" transform="scale(0.015625)"/>
        <path id="DejaVuSans-30" d="M 2034 4250 
Q 1547 4250 1301 3770 
Q 1056 3291 1056 2328 
Q 1056 1369 1301 889 
Q 1547 409 2034 409 
Q 2525 409 2770 889 
Q 3016 1369 3016 2328 
Q 3016 3291 2770 3770 
Q 2525 4250 2034 4250 
z
M 2034 4750 
Q 2819 4750 3233 4129 
Q 3647 3509 3647 2328 
Q 3647 1150 3233 529 
Q 2819 -91 2034 -91 
Q 1250 -91 836 529 
Q 422 1150 422 2328 
Q 422 3509 836 4129 
Q 1250 4750 2034 4750 
z
" transform="scale(0.015625)"/>
        <path id="DejaVuSans-31" d="M 794 531 
L 1825 531 
L 1825 4091 
L 703 3866 
L 703 4441 
L 1819 4666 
L 2450 4666 
L 2450 531 
L 3481 531 
L 3481 0 
L 794 0 
L 794 531 
z
" transform="scale(0.015625)"/>
        <path id="DejaVuSans-33" d="M 2597 2516 
Q 3050 2419 3304 2112 
Q 3559 1806 3559 1356 
Q 3559 666 3084 287 
Q 2609 -91 1734 -91 
Q 1441 -91 1130 -33 
Q 819 25 488 141 
L 488 750 
Q 750 597 1062 519 
Q 1375 441 1716 441 
Q 2309 441 2620 675 
Q 2931 909 2931 1356 
Q 2931 1769 2642 2001 
Q 2353 2234 1838 2234 
L 1294 2234 
L 1294 2753 
L 1863 2753 
Q 2328 2753 2575 2939 
Q 2822 3125 2822 3475 
Q 2822 3834 2567 4026 
Q 2313 4219 1838 4219 
Q 1578 4219 1281 4162 
Q 984 4106 628 3988 
L 628 4550 
Q 988 4650 1302 4700 
Q 1616 4750 1894 4750 
Q 2613 4750 3031 4423 
Q 3450 4097 3450 3541 
Q 3450 3153 3228 2886 
Q 3006 2619 2597 2516 
z
" transform="scale(0.015625)"/>
        <path id="DejaVuSans-2d" d="M 313 2009 
L 1997 2009 
L 1997 1497 
L 313 1497 
L 313 2009 
z
" transform="scale(0.015625)"/>
        <path id="DejaVuSans-37" d="M 525 4666 
L 3525 4666 
L 3525 4397 
L 1831 0 
L 1172 0 
L 2766 4134 
L 525 4134 
L 525 4666 
z
" transform="scale(0.015625)"/>
       </defs>
       <use xlink:href="#DejaVuSans-32"/>
       <use xlink:href="#DejaVuSans-30" x="63.623047"/>
       <use xlink:href="#DejaVuSans-31" x="127.246094"/>
       <use xlink:href="#DejaVuSans-33" x="190.869141"/>
       <use xlink:href="#DejaVuSans-2d" x="254.492188"/>
       <use xlink:href="#DejaVuSans-30" x="290.576172"/>
       <use xlink:href="#DejaVuSans-37" x="354.199219"/>
       <use xlink:href="#DejaVuSans-2d" x="417.822266"/>
       <use xlink:href="#DejaVuSans-30" x="453.90625"/>
       <use xlink:href="#DejaVuSans-31" x="517.529297"/>
      </g>
     </g>
    </g>
    <g id="xtick_2">
     <g id="line2d_3">
      <path d="M 157.00125 350.30175 
L 157.00125 24.14175 
" clip-path="url(#p2b3eb95b22)" style="fill: none; stroke-dasharray: 1.85,0.8; stroke-dashoffset: 0; stroke: #b2b2b2; stroke-width: 0.5"/>
     </g>
     <g id="line2d_4">
      <g>
       <use xlink:href="#m2691bce227" x="157.00125" y="350.30175" style="stroke: #000000; stroke-width: 0.8"/>
      </g>
     </g>
     <g id="text_2">
      <!-- 2013-07-15 -->
      <g transform="translate(127.943437 361.400188)scale(0.1 -0.1)">
       <defs>
        <path id="DejaVuSans-35" d="M 691 4666 
L 3169 4666 
L 3169 4134 
L 1269 4134 
L 1269 2991 
Q 1406 3038 1543 3061 
Q 1681 3084 1819 3084 
Q 2600 3084 3056 2656 
Q 3513 2228 3513 1497 
Q 3513 744 3044 326 
Q 2575 -91 1722 -91 
Q 1428 -91 1123 -41 
Q 819 9 494 109 
L 494 744 
Q 775 591 1075 516 
Q 1375 441 1709 441 
Q 2250 441 2565 725 
Q 2881 1009 2881 1497 
Q 2881 1984 2565 2268 
Q 2250 2553 1709 2553 
Q 1456 2553 1204 2497 
Q 953 2441 691 2322 
L 691 4666 
z
" transform="scale(0.015625)"/>
       </defs>
       <use xlink:href="#DejaVuSans-32"/>
       <use xlink:href="#DejaVuSans-30" x="63.623047"/>
       <use xlink:href="#DejaVuSans-31" x="127.246094"/>
       <use xlink:href="#DejaVuSans-33" x="190.869141"/>
       <use xlink:href="#DejaVuSans-2d" x="254.492188"/>
       <use xlink:href="#DejaVuSans-30" x="290.576172"/>
       <use xlink:href="#DejaVuSans-37" x="354.199219"/>
       <use xlink:href="#DejaVuSans-2d" x="417.822266"/>
       <use xlink:href="#DejaVuSans-31" x="453.90625"/>
       <use xlink:href="#DejaVuSans-35" x="517.529297"/>
      </g>
     </g>
    </g>
    <g id="xtick_3">
     <g id="line2d_5">
      <path d="M 255.557094 350.30175 
L 255.557094 24.14175 
" clip-path="url(#p2b3eb95b22)" style="fill: none; stroke-dasharray: 1.85,0.8; stroke-dashoffset: 0; stroke: #b2b2b2; stroke-width: 0.5"/>
     </g>
     <g id="line2d_6">
      <g>
       <use xlink:href="#m2691bce227" x="255.557094" y="350.30175" style="stroke: #000000; stroke-width: 0.8"/>
      </g>
     </g>
     <g id="text_3">
      <!-- 2013-08-01 -->
      <g transform="translate(226.499282 361.400188)scale(0.1 -0.1)">
       <defs>
        <path id="DejaVuSans-38" d="M 2034 2216 
Q 1584 2216 1326 1975 
Q 1069 1734 1069 1313 
Q 1069 891 1326 650 
Q 1584 409 2034 409 
Q 2484 409 2743 651 
Q 3003 894 3003 1313 
Q 3003 1734 2745 1975 
Q 2488 2216 2034 2216 
z
M 1403 2484 
Q 997 2584 770 2862 
Q 544 3141 544 3541 
Q 544 4100 942 4425 
Q 1341 4750 2034 4750 
Q 2731 4750 3128 4425 
Q 3525 4100 3525 3541 
Q 3525 3141 3298 2862 
Q 3072 2584 2669 2484 
Q 3125 2378 3379 2068 
Q 3634 1759 3634 1313 
Q 3634 634 3220 271 
Q 2806 -91 2034 -91 
Q 1263 -91 848 271 
Q 434 634 434 1313 
Q 434 1759 690 2068 
Q 947 2378 1403 2484 
z
M 1172 3481 
Q 1172 3119 1398 2916 
Q 1625 2713 2034 2713 
Q 2441 2713 2670 2916 
Q 2900 3119 2900 3481 
Q 2900 3844 2670 4047 
Q 2441 4250 2034 4250 
Q 1625 4250 1398 4047 
Q 1172 3844 1172 3481 
z
" transform="scale(0.015625)"/>
       </defs>
       <use xlink:href="#DejaVuSans-32"/>
       <use xlink:href="#DejaVuSans-30" x="63.623047"/>
       <use xlink:href="#DejaVuSans-31" x="127.246094"/>
       <use xlink:href="#DejaVuSans-33" x="190.869141"/>
       <use xlink:href="#DejaVuSans-2d" x="254.492188"/>
       <use xlink:href="#DejaVuSans-30" x="290.576172"/>
       <use xlink:href="#DejaVuSans-38" x="354.199219"/>
       <use xlink:href="#DejaVuSans-2d" x="417.822266"/>
       <use xlink:href="#DejaVuSans-30" x="453.90625"/>
       <use xlink:href="#DejaVuSans-31" x="517.529297"/>
      </g>
     </g>
    </g>
    <g id="xtick_4">
     <g id="line2d_7">
      <path d="M 336.720731 350.30175 
L 336.720731 24.14175 
" clip-path="url(#p2b3eb95b22)" style="fill: none; stroke-dasharray: 1.85,0.8; stroke-dashoffset: 0; stroke: #b2b2b2; stroke-width: 0.5"/>
     </g>
     <g id="line2d_8">
      <g>
       <use xlink:href="#m2691bce227" x="336.720731" y="350.30175" style="stroke: #000000; stroke-width: 0.8"/>
      </g>
     </g>
     <g id="text_4">
      <!-- 2013-08-15 -->
      <g transform="translate(307.662918 361.400188)scale(0.1 -0.1)">
       <use xlink:href="#DejaVuSans-32"/>
       <use xlink:href="#DejaVuSans-30" x="63.623047"/>
       <use xlink:href="#DejaVuSans-31" x="127.246094"/>
       <use xlink:href="#DejaVuSans-33" x="190.869141"/>
       <use xlink:href="#DejaVuSans-2d" x="254.492188"/>
       <use xlink:href="#DejaVuSans-30" x="290.576172"/>
       <use xlink:href="#DejaVuSans-38" x="354.199219"/>
       <use xlink:href="#DejaVuSans-2d" x="417.822266"/>
       <use xlink:href="#DejaVuSans-31" x="453.90625"/>
       <use xlink:href="#DejaVuSans-35" x="517.529297"/>
      </g>
     </g>
    </g>
    <g id="xtick_5">
     <g id="line2d_9">
      <path d="M 435.276575 350.30175 
L 435.276575 24.14175 
" clip-path="url(#p2b3eb95b22)" style="fill: none; stroke-dasharray: 1.85,0.8; stroke-dashoffset: 0; stroke: #b2b2b2; stroke-width: 0.5"/>
     </g>
     <g id="line2d_10">
      <g>
       <use xlink:href="#m2691bce227" x="435.276575" y="350.30175" style="stroke: #000000; stroke-width: 0.8"/>
      </g>
     </g>
     <g id="text_5">
      <!-- 2013-09-01 -->
      <g transform="translate(406.218762 361.400188)scale(0.1 -0.1)">
       <defs>
        <path id="DejaVuSans-39" d="M 703 97 
L 703 672 
Q 941 559 1184 500 
Q 1428 441 1663 441 
Q 2288 441 2617 861 
Q 2947 1281 2994 2138 
Q 2813 1869 2534 1725 
Q 2256 1581 1919 1581 
Q 1219 1581 811 2004 
Q 403 2428 403 3163 
Q 403 3881 828 4315 
Q 1253 4750 1959 4750 
Q 2769 4750 3195 4129 
Q 3622 3509 3622 2328 
Q 3622 1225 3098 567 
Q 2575 -91 1691 -91 
Q 1453 -91 1209 -44 
Q 966 3 703 97 
z
M 1959 2075 
Q 2384 2075 2632 2365 
Q 2881 2656 2881 3163 
Q 2881 3666 2632 3958 
Q 2384 4250 1959 4250 
Q 1534 4250 1286 3958 
Q 1038 3666 1038 3163 
Q 1038 2656 1286 2365 
Q 1534 2075 1959 2075 
z
" transform="scale(0.015625)"/>
       </defs>
       <use xlink:href="#DejaVuSans-32"/>
       <use xlink:href="#DejaVuSans-30" x="63.623047"/>
       <use xlink:href="#DejaVuSans-31" x="127.246094"/>
       <use xlink:href="#DejaVuSans-33" x="190.869141"/>
       <use xlink:href="#DejaVuSans-2d" x="254.492188"/>
       <use xlink:href="#DejaVuSans-30" x="290.576172"/>
       <use xlink:href="#DejaVuSans-39" x="354.199219"/>
       <use xlink:href="#DejaVuSans-2d" x="417.822266"/>
       <use xlink:href="#DejaVuSans-30" x="453.90625"/>
       <use xlink:href="#DejaVuSans-31" x="517.529297"/>
      </g>
     </g>
    </g>
    <g id="xtick_6">
     <g id="line2d_11">
      <path d="M 516.440211 350.30175 
L 516.440211 24.14175 
" clip-path="url(#p2b3eb95b22)" style="fill: none; stroke-dasharray: 1.85,0.8; stroke-dashoffset: 0; stroke: #b2b2b2; stroke-width: 0.5"/>
     </g>
     <g id="line2d_12">
      <g>
       <use xlink:href="#m2691bce227" x="516.440211" y="350.30175" style="stroke: #000000; stroke-width: 0.8"/>
      </g>
     </g>
     <g id="text_6">
      <!-- 2013-09-15 -->
      <g transform="translate(487.382399 361.400188)scale(0.1 -0.1)">
       <use xlink:href="#DejaVuSans-32"/>
       <use xlink:href="#DejaVuSans-30" x="63.623047"/>
       <use xlink:href="#DejaVuSans-31" x="127.246094"/>
       <use xlink:href="#DejaVuSans-33" x="190.869141"/>
       <use xlink:href="#DejaVuSans-2d" x="254.492188"/>
       <use xlink:href="#DejaVuSans-30" x="290.576172"/>
       <use xlink:href="#DejaVuSans-39" x="354.199219"/>
       <use xlink:href="#DejaVuSans-2d" x="417.822266"/>
       <use xlink:href="#DejaVuSans-31" x="453.90625"/>
       <use xlink:href="#DejaVuSans-35" x="517.529297"/>
      </g>
     </g>
    </g>
    <g id="xtick_7">
     <g id="line2d_13">
      <path d="M 609.198653 350.30175 
L 609.198653 24.14175 
" clip-path="url(#p2b3eb95b22)" style="fill: none; stroke-dasharray: 1.85,0.8; stroke-dashoffset: 0; stroke: #b2b2b2; stroke-width: 0.5"/>
     </g>
     <g id="line2d_14">
      <g>
       <use xlink:href="#m2691bce227" x="609.198653" y="350.30175" style="stroke: #000000; stroke-width: 0.8"/>
      </g>
     </g>
     <g id="text_7">
      <!-- 2013-10-01 -->
      <g transform="translate(580.14084 361.400188)scale(0.1 -0.1)">
       <use xlink:href="#DejaVuSans-32"/>
       <use xlink:href="#DejaVuSans-30" x="63.623047"/>
       <use xlink:href="#DejaVuSans-31" x="127.246094"/>
       <use xlink:href="#DejaVuSans-33" x="190.869141"/>
       <use xlink:href="#DejaVuSans-2d" x="254.492188"/>
       <use xlink:href="#DejaVuSans-31" x="290.576172"/>
       <use xlink:href="#DejaVuSans-30" x="354.199219"/>
       <use xlink:href="#DejaVuSans-2d" x="417.822266"/>
       <use xlink:href="#DejaVuSans-30" x="453.90625"/>
       <use xlink:href="#DejaVuSans-31" x="517.529297"/>
      </g>
     </g>
    </g>
    <g id="xtick_8">
     <g id="line2d_15">
      <path d="M 690.362289 350.30175 
L 690.362289 24.14175 
" clip-path="url(#p2b3eb95b22)" style="fill: none; stroke-dasharray: 1.85,0.8; stroke-dashoffset: 0; stroke: #b2b2b2; stroke-width: 0.5"/>
     </g>
     <g id="line2d_16">
      <g>
       <use xlink:href="#m2691bce227" x="690.362289" y="350.30175" style="stroke: #000000; stroke-width: 0.8"/>
      </g>
     </g>
     <g id="text_8">
      <!-- 2013-10-15 -->
      <g transform="translate(661.304476 361.400188)scale(0.1 -0.1)">
       <use xlink:href="#DejaVuSans-32"/>
       <use xlink:href="#DejaVuSans-30" x="63.623047"/>
       <use xlink:href="#DejaVuSans-31" x="127.246094"/>
       <use xlink:href="#DejaVuSans-33" x="190.869141"/>
       <use xlink:href="#DejaVuSans-2d" x="254.492188"/>
       <use xlink:href="#DejaVuSans-31" x="290.576172"/>
       <use xlink:href="#DejaVuSans-30" x="354.199219"/>
       <use xlink:href="#DejaVuSans-2d" x="417.822266"/>
       <use xlink:href="#DejaVuSans-31" x="453.90625"/>
       <use xlink:href="#DejaVuSans-35" x="517.529297"/>
      </g>
     </g>
    </g>
    <g id="text_9">
     <!-- date -->
     <g transform="translate(366.67125 376.598)scale(0.12 -0.12)">
      <defs>
       <path id="DejaVuSans-64" d="M 2906 2969 
L 2906 4863 
L 3481 4863 
L 3481 0 
L 2906 0 
L 2906 525 
Q 2725 213 2448 61 
Q 2172 -91 1784 -91 
Q 1150 -91 751 415 
Q 353 922 353 1747 
Q 353 2572 751 3078 
Q 1150 3584 1784 3584 
Q 2172 3584 2448 3432 
Q 2725 3281 2906 2969 
z
M 947 1747 
Q 947 1113 1208 752 
Q 1469 391 1925 391 
Q 2381 391 2643 752 
Q 2906 1113 2906 1747 
Q 2906 2381 2643 2742 
Q 2381 3103 1925 3103 
Q 1469 3103 1208 2742 
Q 947 2381 947 1747 
z
" transform="scale(0.015625)"/>
       <path id="DejaVuSans-61" d="M 2194 1759 
Q 1497 1759 1228 1600 
Q 959 1441 959 1056 
Q 959 750 1161 570 
Q 1363 391 1709 391 
Q 2188 391 2477 730 
Q 2766 1069 2766 1631 
L 2766 1759 
L 2194 1759 
z
M 3341 1997 
L 3341 0 
L 2766 0 
L 2766 531 
Q 2569 213 2275 61 
Q 1981 -91 1556 -91 
Q 1019 -91 701 211 
Q 384 513 384 1019 
Q 384 1609 779 1909 
Q 1175 2209 1959 2209 
L 2766 2209 
L 2766 2266 
Q 2766 2663 2505 2880 
Q 2244 3097 1772 3097 
Q 1472 3097 1187 3025 
Q 903 2953 641 2809 
L 641 3341 
Q 956 3463 1253 3523 
Q 1550 3584 1831 3584 
Q 2591 3584 2966 3190 
Q 3341 2797 3341 1997 
z
" transform="scale(0.015625)"/>
       <path id="DejaVuSans-74" d="M 1172 4494 
L 1172 3500 
L 2356 3500 
L 2356 3053 
L 1172 3053 
L 1172 1153 
Q 1172 725 1289 603 
Q 1406 481 1766 481 
L 2356 481 
L 2356 0 
L 1766 0 
Q 1100 0 847 248 
Q 594 497 594 1153 
L 594 3053 
L 172 3053 
L 172 3500 
L 594 3500 
L 594 4494 
L 1172 4494 
z
" transform="scale(0.015625)"/>
       <path id="DejaVuSans-65" d="M 3597 1894 
L 3597 1613 
L 953 1613 
Q 991 1019 1311 708 
Q 1631 397 2203 397 
Q 2534 397 2845 478 
Q 3156 559 3463 722 
L 3463 178 
Q 3153 47 2828 -22 
Q 2503 -91 2169 -91 
Q 1331 -91 842 396 
Q 353 884 353 1716 
Q 353 2575 817 3079 
Q 1281 3584 2069 3584 
Q 2775 3584 3186 3129 
Q 3597 2675 3597 1894 
z
M 3022 2063 
Q 3016 2534 2758 2815 
Q 2500 3097 2075 3097 
Q 1594 3097 1305 2825 
Q 1016 2553 972 2059 
L 3022 2063 
z
" transform="scale(0.015625)"/>
      </defs>
      <use xlink:href="#DejaVuSans-64"/>
      <use xlink:href="#DejaVuSans-61" x="63.476562"/>
      <use xlink:href="#DejaVuSans-74" x="124.755859"/>
      <use xlink:href="#DejaVuSans-65" x="163.964844"/>
     </g>
    </g>
   </g>
   <g id="matplotlib.axis_2">
    <g id="ytick_1">
     <g id="line2d_17">
      <path d="M 45.40125 325.035835 
L 715.00125 325.035835 
" clip-path="url(#p2b3eb95b22)" style="fill: none; stroke-dasharray: 1.85,0.8; stroke-dashoffset: 0; stroke: #b2b2b2; stroke-width: 0.5"/>
     </g>
     <g id="line2d_18">
      <defs>
       <path id="mc3ab913263" d="M 0 0 
L 3.5 0 
" style="stroke: #000000; stroke-width: 0.8"/>
      </defs>
      <g>
       <use xlink:href="#mc3ab913263" x="45.40125" y="325.035835" style="stroke: #000000; stroke-width: 0.8"/>
      </g>
     </g>
     <g id="text_10">
      <!-- 20 -->
      <g transform="translate(29.17625 328.835053)scale(0.1 -0.1)">
       <use xlink:href="#DejaVuSans-32"/>
       <use xlink:href="#DejaVuSans-30" x="63.623047"/>
      </g>
     </g>
    </g>
    <g id="ytick_2">
     <g id="line2d_19">
      <path d="M 45.40125 283.273991 
L 715.00125 283.273991 
" clip-path="url(#p2b3eb95b22)" style="fill: none; stroke-dasharray: 1.85,0.8; stroke-dashoffset: 0; stroke: #b2b2b2; stroke-width: 0.5"/>
     </g>
     <g id="line2d_20">
      <g>
       <use xlink:href="#mc3ab913263" x="45.40125" y="283.273991" style="stroke: #000000; stroke-width: 0.8"/>
      </g>
     </g>
     <g id="text_11">
      <!-- 40 -->
      <g transform="translate(29.17625 287.073209)scale(0.1 -0.1)">
       <defs>
        <path id="DejaVuSans-34" d="M 2419 4116 
L 825 1625 
L 2419 1625 
L 2419 4116 
z
M 2253 4666 
L 3047 4666 
L 3047 1625 
L 3713 1625 
L 3713 1100 
L 3047 1100 
L 3047 0 
L 2419 0 
L 2419 1100 
L 313 1100 
L 313 1709 
L 2253 4666 
z
" transform="scale(0.015625)"/>
       </defs>
       <use xlink:href="#DejaVuSans-34"/>
       <use xlink:href="#DejaVuSans-30" x="63.623047"/>
      </g>
     </g>
    </g>
    <g id="ytick_3">
     <g id="line2d_21">
      <path d="M 45.40125 241.512147 
L 715.00125 241.512147 
" clip-path="url(#p2b3eb95b22)" style="fill: none; stroke-dasharray: 1.85,0.8; stroke-dashoffset: 0; stroke: #b2b2b2; stroke-width: 0.5"/>
     </g>
     <g id="line2d_22">
      <g>
       <use xlink:href="#mc3ab913263" x="45.40125" y="241.512147" style="stroke: #000000; stroke-width: 0.8"/>
      </g>
     </g>
     <g id="text_12">
      <!-- 60 -->
      <g transform="translate(29.17625 245.311366)scale(0.1 -0.1)">
       <defs>
        <path id="DejaVuSans-36" d="M 2113 2584 
Q 1688 2584 1439 2293 
Q 1191 2003 1191 1497 
Q 1191 994 1439 701 
Q 1688 409 2113 409 
Q 2538 409 2786 701 
Q 3034 994 3034 1497 
Q 3034 2003 2786 2293 
Q 2538 2584 2113 2584 
z
M 3366 4563 
L 3366 3988 
Q 3128 4100 2886 4159 
Q 2644 4219 2406 4219 
Q 1781 4219 1451 3797 
Q 1122 3375 1075 2522 
Q 1259 2794 1537 2939 
Q 1816 3084 2150 3084 
Q 2853 3084 3261 2657 
Q 3669 2231 3669 1497 
Q 3669 778 3244 343 
Q 2819 -91 2113 -91 
Q 1303 -91 875 529 
Q 447 1150 447 2328 
Q 447 3434 972 4092 
Q 1497 4750 2381 4750 
Q 2619 4750 2861 4703 
Q 3103 4656 3366 4563 
z
" transform="scale(0.015625)"/>
       </defs>
       <use xlink:href="#DejaVuSans-36"/>
       <use xlink:href="#DejaVuSans-30" x="63.623047"/>
      </g>
     </g>
    </g>
    <g id="ytick_4">
     <g id="line2d_23">
      <path d="M 45.40125 199.750303 
L 715.00125 199.750303 
" clip-path="url(#p2b3eb95b22)" style="fill: none; stroke-dasharray: 1.85,0.8; stroke-dashoffset: 0; stroke: #b2b2b2; stroke-width: 0.5"/>
     </g>
     <g id="line2d_24">
      <g>
       <use xlink:href="#mc3ab913263" x="45.40125" y="199.750303" style="stroke: #000000; stroke-width: 0.8"/>
      </g>
     </g>
     <g id="text_13">
      <!-- 80 -->
      <g transform="translate(29.17625 203.549522)scale(0.1 -0.1)">
       <use xlink:href="#DejaVuSans-38"/>
       <use xlink:href="#DejaVuSans-30" x="63.623047"/>
      </g>
     </g>
    </g>
    <g id="ytick_5">
     <g id="line2d_25">
      <path d="M 45.40125 157.988459 
L 715.00125 157.988459 
" clip-path="url(#p2b3eb95b22)" style="fill: none; stroke-dasharray: 1.85,0.8; stroke-dashoffset: 0; stroke: #b2b2b2; stroke-width: 0.5"/>
     </g>
     <g id="line2d_26">
      <g>
       <use xlink:href="#mc3ab913263" x="45.40125" y="157.988459" style="stroke: #000000; stroke-width: 0.8"/>
      </g>
     </g>
     <g id="text_14">
      <!-- 100 -->
      <g transform="translate(22.81375 161.787678)scale(0.1 -0.1)">
       <use xlink:href="#DejaVuSans-31"/>
       <use xlink:href="#DejaVuSans-30" x="63.623047"/>
       <use xlink:href="#DejaVuSans-30" x="127.246094"/>
      </g>
     </g>
    </g>
    <g id="ytick_6">
     <g id="line2d_27">
      <path d="M 45.40125 116.226616 
L 715.00125 116.226616 
" clip-path="url(#p2b3eb95b22)" style="fill: none; stroke-dasharray: 1.85,0.8; stroke-dashoffset: 0; stroke: #b2b2b2; stroke-width: 0.5"/>
     </g>
     <g id="line2d_28">
      <g>
       <use xlink:href="#mc3ab913263" x="45.40125" y="116.226616" style="stroke: #000000; stroke-width: 0.8"/>
      </g>
     </g>
     <g id="text_15">
      <!-- 120 -->
      <g transform="translate(22.81375 120.025834)scale(0.1 -0.1)">
       <use xlink:href="#DejaVuSans-31"/>
       <use xlink:href="#DejaVuSans-32" x="63.623047"/>
       <use xlink:href="#DejaVuSans-30" x="127.246094"/>
      </g>
     </g>
    </g>
    <g id="ytick_7">
     <g id="line2d_29">
      <path d="M 45.40125 74.464772 
L 715.00125 74.464772 
" clip-path="url(#p2b3eb95b22)" style="fill: none; stroke-dasharray: 1.85,0.8; stroke-dashoffset: 0; stroke: #b2b2b2; stroke-width: 0.5"/>
     </g>
     <g id="line2d_30">
      <g>
       <use xlink:href="#mc3ab913263" x="45.40125" y="74.464772" style="stroke: #000000; stroke-width: 0.8"/>
      </g>
     </g>
     <g id="text_16">
      <!-- 140 -->
      <g transform="translate(22.81375 78.263991)scale(0.1 -0.1)">
       <use xlink:href="#DejaVuSans-31"/>
       <use xlink:href="#DejaVuSans-34" x="63.623047"/>
       <use xlink:href="#DejaVuSans-30" x="127.246094"/>
      </g>
     </g>
    </g>
    <g id="ytick_8">
     <g id="line2d_31">
      <path d="M 45.40125 32.702928 
L 715.00125 32.702928 
" clip-path="url(#p2b3eb95b22)" style="fill: none; stroke-dasharray: 1.85,0.8; stroke-dashoffset: 0; stroke: #b2b2b2; stroke-width: 0.5"/>
     </g>
     <g id="line2d_32">
      <g>
       <use xlink:href="#mc3ab913263" x="45.40125" y="32.702928" style="stroke: #000000; stroke-width: 0.8"/>
      </g>
     </g>
     <g id="text_17">
      <!-- 160 -->
      <g transform="translate(22.81375 36.502147)scale(0.1 -0.1)">
       <use xlink:href="#DejaVuSans-31"/>
       <use xlink:href="#DejaVuSans-36" x="63.623047"/>
       <use xlink:href="#DejaVuSans-30" x="127.246094"/>
      </g>
     </g>
    </g>
    <g id="text_18">
     <!-- sales -->
     <g transform="translate(16.318125 202.508625)rotate(-90)scale(0.12 -0.12)">
      <defs>
       <path id="DejaVuSans-73" d="M 2834 3397 
L 2834 2853 
Q 2591 2978 2328 3040 
Q 2066 3103 1784 3103 
Q 1356 3103 1142 2972 
Q 928 2841 928 2578 
Q 928 2378 1081 2264 
Q 1234 2150 1697 2047 
L 1894 2003 
Q 2506 1872 2764 1633 
Q 3022 1394 3022 966 
Q 3022 478 2636 193 
Q 2250 -91 1575 -91 
Q 1294 -91 989 -36 
Q 684 19 347 128 
L 347 722 
Q 666 556 975 473 
Q 1284 391 1588 391 
Q 1994 391 2212 530 
Q 2431 669 2431 922 
Q 2431 1156 2273 1281 
Q 2116 1406 1581 1522 
L 1381 1569 
Q 847 1681 609 1914 
Q 372 2147 372 2553 
Q 372 3047 722 3315 
Q 1072 3584 1716 3584 
Q 2034 3584 2315 3537 
Q 2597 3491 2834 3397 
z
" transform="scale(0.015625)"/>
       <path id="DejaVuSans-6c" d="M 603 4863 
L 1178 4863 
L 1178 0 
L 603 0 
L 603 4863 
z
" transform="scale(0.015625)"/>
      </defs>
      <use xlink:href="#DejaVuSans-73"/>
      <use xlink:href="#DejaVuSans-61" x="52.099609"/>
      <use xlink:href="#DejaVuSans-6c" x="113.378906"/>
      <use xlink:href="#DejaVuSans-65" x="141.162109"/>
      <use xlink:href="#DejaVuSans-73" x="202.685547"/>
     </g>
    </g>
   </g>
   <g id="line2d_33">
    <path d="M 75.837614 247.776423 
L 81.635016 245.688331 
L 87.432419 256.128792 
L 93.229821 291.626359 
L 99.027224 306.243005 
L 104.824627 254.0407 
L 110.622029 281.185899 
L 116.419432 191.397934 
L 122.216834 201.838395 
L 128.014237 228.983594 
L 133.81164 256.128792 
L 139.609042 266.569253 
L 145.406445 304.154913 
L 151.203847 241.512147 
L 157.00125 245.688331 
L 162.798653 216.455041 
L 168.596055 222.719317 
L 174.393458 160.076552 
L 180.19086 212.278856 
L 185.988263 270.745438 
L 191.785666 256.128792 
L 197.583068 241.512147 
L 203.380471 197.662211 
L 209.177873 168.42892 
L 214.975276 193.486027 
L 220.772679 201.838395 
L 226.570081 241.512147 
L 232.367484 233.159778 
L 238.164886 132.931353 
L 243.962289 112.050431 
L 249.759692 170.517012 
L 255.557094 231.071686 
L 261.354497 145.459906 
L 267.151899 262.393069 
L 272.949302 203.926488 
L 278.746705 141.283722 
L 284.544107 180.957473 
L 290.34151 162.164644 
L 296.138912 203.926488 
L 301.936315 212.278856 
L 307.733718 218.543133 
L 313.53112 235.24787 
L 319.328523 172.605105 
L 325.125925 251.952608 
L 330.923328 187.22175 
L 336.720731 137.107537 
L 342.518133 157.988459 
L 348.315536 251.952608 
L 354.112938 226.895502 
L 359.910341 172.605105 
L 365.707744 128.755169 
L 371.505146 155.900367 
L 377.302549 224.807409 
L 383.099951 222.719317 
L 388.897354 247.776423 
L 394.694756 270.745438 
L 400.492159 178.869381 
L 406.289562 151.724183 
L 412.086964 197.662211 
L 417.884367 191.397934 
L 423.681769 214.366948 
L 429.479172 291.626359 
L 435.276575 237.335963 
L 441.073977 293.714452 
L 446.87138 218.543133 
L 452.668782 153.812275 
L 458.466185 132.931353 
L 464.263588 149.636091 
L 470.06099 266.569253 
L 475.858393 222.719317 
L 481.655795 157.988459 
L 487.453198 126.667077 
L 493.250601 151.724183 
L 499.048003 203.926488 
L 504.845406 141.283722 
L 510.642808 256.128792 
L 516.440211 243.600239 
L 522.237614 228.983594 
L 528.035016 162.164644 
L 533.832419 132.931353 
L 539.629821 135.019445 
L 545.427224 164.252736 
L 551.224627 235.24787 
L 557.022029 241.512147 
L 562.819432 189.309842 
L 568.616834 164.252736 
L 574.414237 147.547998 
L 580.21164 145.459906 
L 586.009042 166.340828 
L 591.806445 262.393069 
L 597.603847 214.366948 
L 603.40125 162.164644 
L 609.198653 130.843261 
L 614.996055 151.724183 
L 620.793458 139.19563 
L 626.59086 176.781289 
L 632.388263 287.450175 
L 638.185666 291.626359 
L 643.983068 201.838395 
L 649.780471 128.755169 
L 655.577873 176.781289 
L 661.375276 228.983594 
L 667.172679 237.335963 
L 672.970081 258.216884 
L 678.767484 272.83353 
L 684.564886 187.22175 
" clip-path="url(#p2b3eb95b22)" style="fill: none; stroke: #000000; stroke-opacity: 0.8; stroke-width: 2; stroke-linecap: square"/>
    <defs>
     <path id="mf6a897b815" d="M 0 2 
C 0.530406 2 1.03916 1.789267 1.414214 1.414214 
C 1.789267 1.03916 2 0.530406 2 0 
C 2 -0.530406 1.789267 -1.03916 1.414214 -1.414214 
C 1.03916 -1.789267 0.530406 -2 0 -2 
C -0.530406 -2 -1.03916 -1.789267 -1.414214 -1.414214 
C -1.789267 -1.03916 -2 -0.530406 -2 0 
C -2 0.530406 -1.789267 1.03916 -1.414214 1.414214 
C -1.03916 1.789267 -0.530406 2 0 2 
z
" style="stroke: #000000; stroke-opacity: 0.8; stroke-width: 0.75"/>
    </defs>
    <g clip-path="url(#p2b3eb95b22)">
     <use xlink:href="#mf6a897b815" x="75.837614" y="247.776423" style="fill-opacity: 0.8; stroke: #000000; stroke-opacity: 0.8; stroke-width: 0.75"/>
     <use xlink:href="#mf6a897b815" x="81.635016" y="245.688331" style="fill-opacity: 0.8; stroke: #000000; stroke-opacity: 0.8; stroke-width: 0.75"/>
     <use xlink:href="#mf6a897b815" x="87.432419" y="256.128792" style="fill-opacity: 0.8; stroke: #000000; stroke-opacity: 0.8; stroke-width: 0.75"/>
     <use xlink:href="#mf6a897b815" x="93.229821" y="291.626359" style="fill-opacity: 0.8; stroke: #000000; stroke-opacity: 0.8; stroke-width: 0.75"/>
     <use xlink:href="#mf6a897b815" x="99.027224" y="306.243005" style="fill-opacity: 0.8; stroke: #000000; stroke-opacity: 0.8; stroke-width: 0.75"/>
     <use xlink:href="#mf6a897b815" x="104.824627" y="254.0407" style="fill-opacity: 0.8; stroke: #000000; stroke-opacity: 0.8; stroke-width: 0.75"/>
     <use xlink:href="#mf6a897b815" x="110.622029" y="281.185899" style="fill-opacity: 0.8; stroke: #000000; stroke-opacity: 0.8; stroke-width: 0.75"/>
     <use xlink:href="#mf6a897b815" x="116.419432" y="191.397934" style="fill-opacity: 0.8; stroke: #000000; stroke-opacity: 0.8; stroke-width: 0.75"/>
     <use xlink:href="#mf6a897b815" x="122.216834" y="201.838395" style="fill-opacity: 0.8; stroke: #000000; stroke-opacity: 0.8; stroke-width: 0.75"/>
     <use xlink:href="#mf6a897b815" x="128.014237" y="228.983594" style="fill-opacity: 0.8; stroke: #000000; stroke-opacity: 0.8; stroke-width: 0.75"/>
     <use xlink:href="#mf6a897b815" x="133.81164" y="256.128792" style="fill-opacity: 0.8; stroke: #000000; stroke-opacity: 0.8; stroke-width: 0.75"/>
     <use xlink:href="#mf6a897b815" x="139.609042" y="266.569253" style="fill-opacity: 0.8; stroke: #000000; stroke-opacity: 0.8; stroke-width: 0.75"/>
     <use xlink:href="#mf6a897b815" x="145.406445" y="304.154913" style="fill-opacity: 0.8; stroke: #000000; stroke-opacity: 0.8; stroke-width: 0.75"/>
     <use xlink:href="#mf6a897b815" x="151.203847" y="241.512147" style="fill-opacity: 0.8; stroke: #000000; stroke-opacity: 0.8; stroke-width: 0.75"/>
     <use xlink:href="#mf6a897b815" x="157.00125" y="245.688331" style="fill-opacity: 0.8; stroke: #000000; stroke-opacity: 0.8; stroke-width: 0.75"/>
     <use xlink:href="#mf6a897b815" x="162.798653" y="216.455041" style="fill-opacity: 0.8; stroke: #000000; stroke-opacity: 0.8; stroke-width: 0.75"/>
     <use xlink:href="#mf6a897b815" x="168.596055" y="222.719317" style="fill-opacity: 0.8; stroke: #000000; stroke-opacity: 0.8; stroke-width: 0.75"/>
     <use xlink:href="#mf6a897b815" x="174.393458" y="160.076552" style="fill-opacity: 0.8; stroke: #000000; stroke-opacity: 0.8; stroke-width: 0.75"/>
     <use xlink:href="#mf6a897b815" x="180.19086" y="212.278856" style="fill-opacity: 0.8; stroke: #000000; stroke-opacity: 0.8; stroke-width: 0.75"/>
     <use xlink:href="#mf6a897b815" x="185.988263" y="270.745438" style="fill-opacity: 0.8; stroke: #000000; stroke-opacity: 0.8; stroke-width: 0.75"/>
     <use xlink:href="#mf6a897b815" x="191.785666" y="256.128792" style="fill-opacity: 0.8; stroke: #000000; stroke-opacity: 0.8; stroke-width: 0.75"/>
     <use xlink:href="#mf6a897b815" x="197.583068" y="241.512147" style="fill-opacity: 0.8; stroke: #000000; stroke-opacity: 0.8; stroke-width: 0.75"/>
     <use xlink:href="#mf6a897b815" x="203.380471" y="197.662211" style="fill-opacity: 0.8; stroke: #000000; stroke-opacity: 0.8; stroke-width: 0.75"/>
     <use xlink:href="#mf6a897b815" x="209.177873" y="168.42892" style="fill-opacity: 0.8; stroke: #000000; stroke-opacity: 0.8; stroke-width: 0.75"/>
     <use xlink:href="#mf6a897b815" x="214.975276" y="193.486027" style="fill-opacity: 0.8; stroke: #000000; stroke-opacity: 0.8; stroke-width: 0.75"/>
     <use xlink:href="#mf6a897b815" x="220.772679" y="201.838395" style="fill-opacity: 0.8; stroke: #000000; stroke-opacity: 0.8; stroke-width: 0.75"/>
     <use xlink:href="#mf6a897b815" x="226.570081" y="241.512147" style="fill-opacity: 0.8; stroke: #000000; stroke-opacity: 0.8; stroke-width: 0.75"/>
     <use xlink:href="#mf6a897b815" x="232.367484" y="233.159778" style="fill-opacity: 0.8; stroke: #000000; stroke-opacity: 0.8; stroke-width: 0.75"/>
     <use xlink:href="#mf6a897b815" x="238.164886" y="132.931353" style="fill-opacity: 0.8; stroke: #000000; stroke-opacity: 0.8; stroke-width: 0.75"/>
     <use xlink:href="#mf6a897b815" x="243.962289" y="112.050431" style="fill-opacity: 0.8; stroke: #000000; stroke-opacity: 0.8; stroke-width: 0.75"/>
     <use xlink:href="#mf6a897b815" x="249.759692" y="170.517012" style="fill-opacity: 0.8; stroke: #000000; stroke-opacity: 0.8; stroke-width: 0.75"/>
     <use xlink:href="#mf6a897b815" x="255.557094" y="231.071686" style="fill-opacity: 0.8; stroke: #000000; stroke-opacity: 0.8; stroke-width: 0.75"/>
     <use xlink:href="#mf6a897b815" x="261.354497" y="145.459906" style="fill-opacity: 0.8; stroke: #000000; stroke-opacity: 0.8; stroke-width: 0.75"/>
     <use xlink:href="#mf6a897b815" x="267.151899" y="262.393069" style="fill-opacity: 0.8; stroke: #000000; stroke-opacity: 0.8; stroke-width: 0.75"/>
     <use xlink:href="#mf6a897b815" x="272.949302" y="203.926488" style="fill-opacity: 0.8; stroke: #000000; stroke-opacity: 0.8; stroke-width: 0.75"/>
     <use xlink:href="#mf6a897b815" x="278.746705" y="141.283722" style="fill-opacity: 0.8; stroke: #000000; stroke-opacity: 0.8; stroke-width: 0.75"/>
     <use xlink:href="#mf6a897b815" x="284.544107" y="180.957473" style="fill-opacity: 0.8; stroke: #000000; stroke-opacity: 0.8; stroke-width: 0.75"/>
     <use xlink:href="#mf6a897b815" x="290.34151" y="162.164644" style="fill-opacity: 0.8; stroke: #000000; stroke-opacity: 0.8; stroke-width: 0.75"/>
     <use xlink:href="#mf6a897b815" x="296.138912" y="203.926488" style="fill-opacity: 0.8; stroke: #000000; stroke-opacity: 0.8; stroke-width: 0.75"/>
     <use xlink:href="#mf6a897b815" x="301.936315" y="212.278856" style="fill-opacity: 0.8; stroke: #000000; stroke-opacity: 0.8; stroke-width: 0.75"/>
     <use xlink:href="#mf6a897b815" x="307.733718" y="218.543133" style="fill-opacity: 0.8; stroke: #000000; stroke-opacity: 0.8; stroke-width: 0.75"/>
     <use xlink:href="#mf6a897b815" x="313.53112" y="235.24787" style="fill-opacity: 0.8; stroke: #000000; stroke-opacity: 0.8; stroke-width: 0.75"/>
     <use xlink:href="#mf6a897b815" x="319.328523" y="172.605105" style="fill-opacity: 0.8; stroke: #000000; stroke-opacity: 0.8; stroke-width: 0.75"/>
     <use xlink:href="#mf6a897b815" x="325.125925" y="251.952608" style="fill-opacity: 0.8; stroke: #000000; stroke-opacity: 0.8; stroke-width: 0.75"/>
     <use xlink:href="#mf6a897b815" x="330.923328" y="187.22175" style="fill-opacity: 0.8; stroke: #000000; stroke-opacity: 0.8; stroke-width: 0.75"/>
     <use xlink:href="#mf6a897b815" x="336.720731" y="137.107537" style="fill-opacity: 0.8; stroke: #000000; stroke-opacity: 0.8; stroke-width: 0.75"/>
     <use xlink:href="#mf6a897b815" x="342.518133" y="157.988459" style="fill-opacity: 0.8; stroke: #000000; stroke-opacity: 0.8; stroke-width: 0.75"/>
     <use xlink:href="#mf6a897b815" x="348.315536" y="251.952608" style="fill-opacity: 0.8; stroke: #000000; stroke-opacity: 0.8; stroke-width: 0.75"/>
     <use xlink:href="#mf6a897b815" x="354.112938" y="226.895502" style="fill-opacity: 0.8; stroke: #000000; stroke-opacity: 0.8; stroke-width: 0.75"/>
     <use xlink:href="#mf6a897b815" x="359.910341" y="172.605105" style="fill-opacity: 0.8; stroke: #000000; stroke-opacity: 0.8; stroke-width: 0.75"/>
     <use xlink:href="#mf6a897b815" x="365.707744" y="128.755169" style="fill-opacity: 0.8; stroke: #000000; stroke-opacity: 0.8; stroke-width: 0.75"/>
     <use xlink:href="#mf6a897b815" x="371.505146" y="155.900367" style="fill-opacity: 0.8; stroke: #000000; stroke-opacity: 0.8; stroke-width: 0.75"/>
     <use xlink:href="#mf6a897b815" x="377.302549" y="224.807409" style="fill-opacity: 0.8; stroke: #000000; stroke-opacity: 0.8; stroke-width: 0.75"/>
     <use xlink:href="#mf6a897b815" x="383.099951" y="222.719317" style="fill-opacity: 0.8; stroke: #000000; stroke-opacity: 0.8; stroke-width: 0.75"/>
     <use xlink:href="#mf6a897b815" x="388.897354" y="247.776423" style="fill-opacity: 0.8; stroke: #000000; stroke-opacity: 0.8; stroke-width: 0.75"/>
     <use xlink:href="#mf6a897b815" x="394.694756" y="270.745438" style="fill-opacity: 0.8; stroke: #000000; stroke-opacity: 0.8; stroke-width: 0.75"/>
     <use xlink:href="#mf6a897b815" x="400.492159" y="178.869381" style="fill-opacity: 0.8; stroke: #000000; stroke-opacity: 0.8; stroke-width: 0.75"/>
     <use xlink:href="#mf6a897b815" x="406.289562" y="151.724183" style="fill-opacity: 0.8; stroke: #000000; stroke-opacity: 0.8; stroke-width: 0.75"/>
     <use xlink:href="#mf6a897b815" x="412.086964" y="197.662211" style="fill-opacity: 0.8; stroke: #000000; stroke-opacity: 0.8; stroke-width: 0.75"/>
     <use xlink:href="#mf6a897b815" x="417.884367" y="191.397934" style="fill-opacity: 0.8; stroke: #000000; stroke-opacity: 0.8; stroke-width: 0.75"/>
     <use xlink:href="#mf6a897b815" x="423.681769" y="214.366948" style="fill-opacity: 0.8; stroke: #000000; stroke-opacity: 0.8; stroke-width: 0.75"/>
     <use xlink:href="#mf6a897b815" x="429.479172" y="291.626359" style="fill-opacity: 0.8; stroke: #000000; stroke-opacity: 0.8; stroke-width: 0.75"/>
     <use xlink:href="#mf6a897b815" x="435.276575" y="237.335963" style="fill-opacity: 0.8; stroke: #000000; stroke-opacity: 0.8; stroke-width: 0.75"/>
     <use xlink:href="#mf6a897b815" x="441.073977" y="293.714452" style="fill-opacity: 0.8; stroke: #000000; stroke-opacity: 0.8; stroke-width: 0.75"/>
     <use xlink:href="#mf6a897b815" x="446.87138" y="218.543133" style="fill-opacity: 0.8; stroke: #000000; stroke-opacity: 0.8; stroke-width: 0.75"/>
     <use xlink:href="#mf6a897b815" x="452.668782" y="153.812275" style="fill-opacity: 0.8; stroke: #000000; stroke-opacity: 0.8; stroke-width: 0.75"/>
     <use xlink:href="#mf6a897b815" x="458.466185" y="132.931353" style="fill-opacity: 0.8; stroke: #000000; stroke-opacity: 0.8; stroke-width: 0.75"/>
     <use xlink:href="#mf6a897b815" x="464.263588" y="149.636091" style="fill-opacity: 0.8; stroke: #000000; stroke-opacity: 0.8; stroke-width: 0.75"/>
     <use xlink:href="#mf6a897b815" x="470.06099" y="266.569253" style="fill-opacity: 0.8; stroke: #000000; stroke-opacity: 0.8; stroke-width: 0.75"/>
     <use xlink:href="#mf6a897b815" x="475.858393" y="222.719317" style="fill-opacity: 0.8; stroke: #000000; stroke-opacity: 0.8; stroke-width: 0.75"/>
     <use xlink:href="#mf6a897b815" x="481.655795" y="157.988459" style="fill-opacity: 0.8; stroke: #000000; stroke-opacity: 0.8; stroke-width: 0.75"/>
     <use xlink:href="#mf6a897b815" x="487.453198" y="126.667077" style="fill-opacity: 0.8; stroke: #000000; stroke-opacity: 0.8; stroke-width: 0.75"/>
     <use xlink:href="#mf6a897b815" x="493.250601" y="151.724183" style="fill-opacity: 0.8; stroke: #000000; stroke-opacity: 0.8; stroke-width: 0.75"/>
     <use xlink:href="#mf6a897b815" x="499.048003" y="203.926488" style="fill-opacity: 0.8; stroke: #000000; stroke-opacity: 0.8; stroke-width: 0.75"/>
     <use xlink:href="#mf6a897b815" x="504.845406" y="141.283722" style="fill-opacity: 0.8; stroke: #000000; stroke-opacity: 0.8; stroke-width: 0.75"/>
     <use xlink:href="#mf6a897b815" x="510.642808" y="256.128792" style="fill-opacity: 0.8; stroke: #000000; stroke-opacity: 0.8; stroke-width: 0.75"/>
     <use xlink:href="#mf6a897b815" x="516.440211" y="243.600239" style="fill-opacity: 0.8; stroke: #000000; stroke-opacity: 0.8; stroke-width: 0.75"/>
     <use xlink:href="#mf6a897b815" x="522.237614" y="228.983594" style="fill-opacity: 0.8; stroke: #000000; stroke-opacity: 0.8; stroke-width: 0.75"/>
     <use xlink:href="#mf6a897b815" x="528.035016" y="162.164644" style="fill-opacity: 0.8; stroke: #000000; stroke-opacity: 0.8; stroke-width: 0.75"/>
     <use xlink:href="#mf6a897b815" x="533.832419" y="132.931353" style="fill-opacity: 0.8; stroke: #000000; stroke-opacity: 0.8; stroke-width: 0.75"/>
     <use xlink:href="#mf6a897b815" x="539.629821" y="135.019445" style="fill-opacity: 0.8; stroke: #000000; stroke-opacity: 0.8; stroke-width: 0.75"/>
     <use xlink:href="#mf6a897b815" x="545.427224" y="164.252736" style="fill-opacity: 0.8; stroke: #000000; stroke-opacity: 0.8; stroke-width: 0.75"/>
     <use xlink:href="#mf6a897b815" x="551.224627" y="235.24787" style="fill-opacity: 0.8; stroke: #000000; stroke-opacity: 0.8; stroke-width: 0.75"/>
     <use xlink:href="#mf6a897b815" x="557.022029" y="241.512147" style="fill-opacity: 0.8; stroke: #000000; stroke-opacity: 0.8; stroke-width: 0.75"/>
     <use xlink:href="#mf6a897b815" x="562.819432" y="189.309842" style="fill-opacity: 0.8; stroke: #000000; stroke-opacity: 0.8; stroke-width: 0.75"/>
     <use xlink:href="#mf6a897b815" x="568.616834" y="164.252736" style="fill-opacity: 0.8; stroke: #000000; stroke-opacity: 0.8; stroke-width: 0.75"/>
     <use xlink:href="#mf6a897b815" x="574.414237" y="147.547998" style="fill-opacity: 0.8; stroke: #000000; stroke-opacity: 0.8; stroke-width: 0.75"/>
     <use xlink:href="#mf6a897b815" x="580.21164" y="145.459906" style="fill-opacity: 0.8; stroke: #000000; stroke-opacity: 0.8; stroke-width: 0.75"/>
     <use xlink:href="#mf6a897b815" x="586.009042" y="166.340828" style="fill-opacity: 0.8; stroke: #000000; stroke-opacity: 0.8; stroke-width: 0.75"/>
     <use xlink:href="#mf6a897b815" x="591.806445" y="262.393069" style="fill-opacity: 0.8; stroke: #000000; stroke-opacity: 0.8; stroke-width: 0.75"/>
     <use xlink:href="#mf6a897b815" x="597.603847" y="214.366948" style="fill-opacity: 0.8; stroke: #000000; stroke-opacity: 0.8; stroke-width: 0.75"/>
     <use xlink:href="#mf6a897b815" x="603.40125" y="162.164644" style="fill-opacity: 0.8; stroke: #000000; stroke-opacity: 0.8; stroke-width: 0.75"/>
     <use xlink:href="#mf6a897b815" x="609.198653" y="130.843261" style="fill-opacity: 0.8; stroke: #000000; stroke-opacity: 0.8; stroke-width: 0.75"/>
     <use xlink:href="#mf6a897b815" x="614.996055" y="151.724183" style="fill-opacity: 0.8; stroke: #000000; stroke-opacity: 0.8; stroke-width: 0.75"/>
     <use xlink:href="#mf6a897b815" x="620.793458" y="139.19563" style="fill-opacity: 0.8; stroke: #000000; stroke-opacity: 0.8; stroke-width: 0.75"/>
     <use xlink:href="#mf6a897b815" x="626.59086" y="176.781289" style="fill-opacity: 0.8; stroke: #000000; stroke-opacity: 0.8; stroke-width: 0.75"/>
     <use xlink:href="#mf6a897b815" x="632.388263" y="287.450175" style="fill-opacity: 0.8; stroke: #000000; stroke-opacity: 0.8; stroke-width: 0.75"/>
     <use xlink:href="#mf6a897b815" x="638.185666" y="291.626359" style="fill-opacity: 0.8; stroke: #000000; stroke-opacity: 0.8; stroke-width: 0.75"/>
     <use xlink:href="#mf6a897b815" x="643.983068" y="201.838395" style="fill-opacity: 0.8; stroke: #000000; stroke-opacity: 0.8; stroke-width: 0.75"/>
     <use xlink:href="#mf6a897b815" x="649.780471" y="128.755169" style="fill-opacity: 0.8; stroke: #000000; stroke-opacity: 0.8; stroke-width: 0.75"/>
     <use xlink:href="#mf6a897b815" x="655.577873" y="176.781289" style="fill-opacity: 0.8; stroke: #000000; stroke-opacity: 0.8; stroke-width: 0.75"/>
     <use xlink:href="#mf6a897b815" x="661.375276" y="228.983594" style="fill-opacity: 0.8; stroke: #000000; stroke-opacity: 0.8; stroke-width: 0.75"/>
     <use xlink:href="#mf6a897b815" x="667.172679" y="237.335963" style="fill-opacity: 0.8; stroke: #000000; stroke-opacity: 0.8; stroke-width: 0.75"/>
     <use xlink:href="#mf6a897b815" x="672.970081" y="258.216884" style="fill-opacity: 0.8; stroke: #000000; stroke-opacity: 0.8; stroke-width: 0.75"/>
     <use xlink:href="#mf6a897b815" x="678.767484" y="272.83353" style="fill-opacity: 0.8; stroke: #000000; stroke-opacity: 0.8; stroke-width: 0.75"/>
     <use xlink:href="#mf6a897b815" x="684.564886" y="187.22175" style="fill-opacity: 0.8; stroke: #000000; stroke-opacity: 0.8; stroke-width: 0.75"/>
    </g>
   </g>
   <g id="line2d_34">
    <path d="M 75.837614 304.154913 
L 81.635016 289.538267 
L 87.432419 291.626359 
L 93.229821 302.06682 
L 99.027224 316.683466 
L 104.824627 335.476295 
L 110.622029 316.683466 
L 116.419432 285.362083 
L 122.216834 264.481161 
L 128.014237 270.745438 
L 133.81164 287.450175 
L 139.609042 302.06682 
L 145.406445 322.947742 
L 151.203847 320.85965 
L 157.00125 274.921622 
L 162.798653 272.83353 
L 168.596055 281.185899 
L 174.393458 285.362083 
L 180.19086 285.362083 
L 185.988263 306.243005 
L 191.785666 306.243005 
L 197.583068 270.745438 
L 203.380471 268.657345 
L 209.177873 272.83353 
L 214.975276 279.097806 
L 220.772679 283.273991 
L 226.570081 304.154913 
L 232.367484 302.06682 
L 238.164886 268.657345 
L 243.962289 249.864516 
L 249.759692 247.776423 
L 255.557094 266.569253 
L 261.354497 291.626359 
L 267.151899 293.714452 
L 272.949302 304.154913 
L 278.746705 264.481161 
L 284.544107 245.688331 
L 290.34151 260.304977 
L 296.138912 272.83353 
L 301.936315 285.362083 
L 307.733718 304.154913 
L 313.53112 295.802544 
L 319.328523 270.745438 
L 325.125925 258.216884 
L 330.923328 281.185899 
L 336.720731 281.185899 
L 342.518133 279.097806 
L 348.315536 291.626359 
L 354.112938 295.802544 
L 359.910341 262.393069 
L 365.707744 254.0407 
L 371.505146 256.128792 
L 377.302549 264.481161 
L 383.099951 289.538267 
L 388.897354 312.507281 
L 394.694756 304.154913 
L 400.492159 277.009714 
L 406.289562 258.216884 
L 412.086964 264.481161 
L 417.884367 272.83353 
L 423.681769 281.185899 
L 429.479172 306.243005 
L 435.276575 314.595374 
L 441.073977 272.83353 
L 446.87138 285.362083 
L 452.668782 285.362083 
L 458.466185 277.009714 
L 464.263588 270.745438 
L 470.06099 293.714452 
L 475.858393 299.978728 
L 481.655795 268.657345 
L 487.453198 254.0407 
L 493.250601 254.0407 
L 499.048003 268.657345 
L 504.845406 287.450175 
L 510.642808 295.802544 
L 516.440211 297.890636 
L 522.237614 274.921622 
L 528.035016 270.745438 
L 533.832419 270.745438 
L 539.629821 268.657345 
L 545.427224 266.569253 
L 551.224627 293.714452 
L 557.022029 299.978728 
L 562.819432 272.83353 
L 568.616834 266.569253 
L 574.414237 268.657345 
L 580.21164 274.921622 
L 586.009042 279.097806 
L 591.806445 295.802544 
L 597.603847 304.154913 
L 603.40125 268.657345 
L 609.198653 264.481161 
L 614.996055 264.481161 
L 620.793458 270.745438 
L 626.59086 274.921622 
L 632.388263 295.802544 
L 638.185666 306.243005 
L 643.983068 293.714452 
L 649.780471 279.097806 
L 655.577873 268.657345 
L 661.375276 281.185899 
L 667.172679 299.978728 
L 672.970081 316.683466 
L 678.767484 314.595374 
L 684.564886 295.802544 
" clip-path="url(#p2b3eb95b22)" style="fill: none; stroke: #348abd; stroke-opacity: 0; stroke-width: 2; stroke-linecap: square"/>
   </g>
   <g id="line2d_35">
    <path d="M 75.837614 189.309842 
L 81.635016 135.019445 
L 87.432419 137.107537 
L 93.229821 164.252736 
L 99.027224 195.574119 
L 104.824627 256.128792 
L 110.622029 201.838395 
L 116.419432 124.578984 
L 122.216834 78.640956 
L 128.014237 97.433786 
L 133.81164 135.019445 
L 139.609042 168.42892 
L 145.406445 226.895502 
L 151.203847 216.455041 
L 157.00125 107.874247 
L 162.798653 101.60997 
L 168.596055 112.050431 
L 174.393458 135.019445 
L 180.19086 124.578984 
L 185.988263 187.22175 
L 191.785666 187.22175 
L 197.583068 101.60997 
L 203.380471 95.345694 
L 209.177873 99.521878 
L 214.975276 109.962339 
L 220.772679 130.843261 
L 226.570081 183.045566 
L 232.367484 172.605105 
L 238.164886 89.081417 
L 243.962289 43.143389 
L 249.759692 38.967205 
L 255.557094 86.993325 
L 261.354497 143.371814 
L 267.151899 157.988459 
L 272.949302 174.693197 
L 278.746705 76.552864 
L 284.544107 41.055297 
L 290.34151 72.37668 
L 296.138912 97.433786 
L 301.936315 132.931353 
L 307.733718 185.133658 
L 313.53112 162.164644 
L 319.328523 89.081417 
L 325.125925 66.112403 
L 330.923328 114.138523 
L 336.720731 124.578984 
L 342.518133 112.050431 
L 348.315536 153.812275 
L 354.112938 166.340828 
L 359.910341 82.817141 
L 365.707744 61.936219 
L 371.505146 59.848126 
L 377.302549 86.993325 
L 383.099951 139.19563 
L 388.897354 195.574119 
L 394.694756 180.957473 
L 400.492159 112.050431 
L 406.289562 74.464772 
L 412.086964 74.464772 
L 417.884367 109.962339 
L 423.681769 130.843261 
L 429.479172 189.309842 
L 435.276575 201.838395 
L 441.073977 105.786155 
L 446.87138 126.667077 
L 452.668782 124.578984 
L 458.466185 114.138523 
L 464.263588 101.60997 
L 470.06099 151.724183 
L 475.858393 174.693197 
L 481.655795 91.169509 
L 487.453198 59.848126 
L 493.250601 59.848126 
L 499.048003 91.169509 
L 504.845406 132.931353 
L 510.642808 153.812275 
L 516.440211 172.605105 
L 522.237614 107.874247 
L 528.035016 99.521878 
L 533.832419 95.345694 
L 539.629821 97.433786 
L 545.427224 97.433786 
L 551.224627 153.812275 
L 557.022029 166.340828 
L 562.819432 105.786155 
L 568.616834 89.081417 
L 574.414237 95.345694 
L 580.21164 105.786155 
L 586.009042 116.226616 
L 591.806445 160.076552 
L 597.603847 183.045566 
L 603.40125 101.60997 
L 609.198653 80.729048 
L 614.996055 76.552864 
L 620.793458 101.60997 
L 626.59086 112.050431 
L 632.388263 160.076552 
L 638.185666 193.486027 
L 643.983068 151.724183 
L 649.780471 120.4028 
L 655.577873 97.433786 
L 661.375276 126.667077 
L 667.172679 168.42892 
L 672.970081 212.278856 
L 678.767484 206.01458 
L 684.564886 155.900367 
" clip-path="url(#p2b3eb95b22)" style="fill: none; stroke: #348abd; stroke-opacity: 0; stroke-width: 2; stroke-linecap: square"/>
   </g>
   <g id="line2d_36">
    <path d="M 75.837614 272.83353 
L 81.635016 251.952608 
L 87.432419 249.864516 
L 93.229821 268.657345 
L 99.027224 287.450175 
L 104.824627 320.85965 
L 110.622029 287.450175 
L 116.419432 235.24787 
L 122.216834 214.366948 
L 128.014237 228.983594 
L 133.81164 247.776423 
L 139.609042 266.569253 
L 145.406445 299.978728 
L 151.203847 291.626359 
L 157.00125 237.335963 
L 162.798653 235.24787 
L 168.596055 237.335963 
L 174.393458 249.864516 
L 180.19086 249.864516 
L 185.988263 279.097806 
L 191.785666 274.921622 
L 197.583068 226.895502 
L 203.380471 233.159778 
L 209.177873 233.159778 
L 214.975276 239.424055 
L 220.772679 247.776423 
L 226.570081 270.745438 
L 232.367484 270.745438 
L 238.164886 220.631225 
L 243.962289 197.662211 
L 249.759692 201.838395 
L 255.557094 224.807409 
L 261.354497 249.864516 
L 267.151899 264.481161 
L 272.949302 268.657345 
L 278.746705 218.543133 
L 284.544107 197.662211 
L 290.34151 210.190764 
L 296.138912 222.719317 
L 301.936315 249.864516 
L 307.733718 274.921622 
L 313.53112 266.569253 
L 319.328523 222.719317 
L 325.125925 210.190764 
L 330.923328 239.424055 
L 336.720731 243.600239 
L 342.518133 239.424055 
L 348.315536 262.393069 
L 354.112938 266.569253 
L 359.910341 216.455041 
L 365.707744 210.190764 
L 371.505146 208.102672 
L 377.302549 224.807409 
L 383.099951 245.688331 
L 388.897354 279.097806 
L 394.694756 277.009714 
L 400.492159 235.24787 
L 406.289562 220.631225 
L 412.086964 216.455041 
L 417.884367 237.335963 
L 423.681769 247.776423 
L 429.479172 281.185899 
L 435.276575 285.362083 
L 441.073977 228.983594 
L 446.87138 243.600239 
L 452.668782 249.864516 
L 458.466185 235.24787 
L 464.263588 235.24787 
L 470.06099 258.216884 
L 475.858393 270.745438 
L 481.655795 228.983594 
L 487.453198 208.102672 
L 493.250601 203.926488 
L 499.048003 214.366948 
L 504.845406 249.864516 
L 510.642808 260.304977 
L 516.440211 272.83353 
L 522.237614 233.159778 
L 528.035016 237.335963 
L 533.832419 226.895502 
L 539.629821 226.895502 
L 545.427224 226.895502 
L 551.224627 260.304977 
L 557.022029 266.569253 
L 562.819432 233.159778 
L 568.616834 216.455041 
L 574.414237 226.895502 
L 580.21164 233.159778 
L 586.009042 237.335963 
L 591.806445 266.569253 
L 597.603847 270.745438 
L 603.40125 228.983594 
L 609.198653 210.190764 
L 614.996055 218.543133 
L 620.793458 228.983594 
L 626.59086 231.071686 
L 632.388263 272.83353 
L 638.185666 283.273991 
L 643.983068 262.393069 
L 649.780471 243.600239 
L 655.577873 222.719317 
L 661.375276 243.600239 
L 667.172679 262.393069 
L 672.970081 295.802544 
L 678.767484 285.362083 
L 684.564886 256.128792 
" clip-path="url(#p2b3eb95b22)" style="fill: none; stroke: #348abd; stroke-opacity: 0; stroke-width: 2; stroke-linecap: square"/>
   </g>
   <g id="line2d_37">
    <path d="M 75.837614 235.24787 
L 81.635016 199.750303 
L 87.432419 199.750303 
L 93.229821 222.719317 
L 99.027224 247.776423 
L 104.824627 293.714452 
L 110.622029 249.864516 
L 116.419432 183.045566 
L 122.216834 153.812275 
L 128.014237 170.517012 
L 133.81164 197.662211 
L 139.609042 222.719317 
L 145.406445 268.657345 
L 151.203847 258.216884 
L 157.00125 180.957473 
L 162.798653 176.781289 
L 168.596055 180.957473 
L 174.393458 199.750303 
L 180.19086 195.574119 
L 185.988263 239.424055 
L 191.785666 235.24787 
L 197.583068 170.517012 
L 203.380471 174.693197 
L 209.177873 174.693197 
L 214.975276 183.045566 
L 220.772679 195.574119 
L 226.570081 231.071686 
L 232.367484 226.895502 
L 238.164886 162.164644 
L 243.962289 128.755169 
L 249.759692 130.843261 
L 255.557094 164.252736 
L 261.354497 201.838395 
L 267.151899 218.543133 
L 272.949302 226.895502 
L 278.746705 155.900367 
L 284.544107 128.755169 
L 290.34151 147.547998 
L 296.138912 164.252736 
L 301.936315 197.662211 
L 307.733718 235.24787 
L 313.53112 220.631225 
L 319.328523 162.164644 
L 325.125925 145.459906 
L 330.923328 183.045566 
L 336.720731 191.397934 
L 342.518133 183.045566 
L 348.315536 216.455041 
L 354.112938 222.719317 
L 359.910341 155.900367 
L 365.707744 145.459906 
L 371.505146 141.283722 
L 377.302549 164.252736 
L 383.099951 197.662211 
L 388.897354 241.512147 
L 394.694756 235.24787 
L 400.492159 180.957473 
L 406.289562 157.988459 
L 412.086964 153.812275 
L 417.884367 183.045566 
L 423.681769 197.662211 
L 429.479172 241.512147 
L 435.276575 247.776423 
L 441.073977 172.605105 
L 446.87138 191.397934 
L 452.668782 195.574119 
L 458.466185 180.957473 
L 464.263588 178.869381 
L 470.06099 210.190764 
L 475.858393 228.983594 
L 481.655795 168.42892 
L 487.453198 143.371814 
L 493.250601 139.19563 
L 499.048003 155.900367 
L 504.845406 197.662211 
L 510.642808 214.366948 
L 516.440211 228.983594 
L 522.237614 176.781289 
L 528.035016 178.869381 
L 533.832419 168.42892 
L 539.629821 168.42892 
L 545.427224 170.517012 
L 551.224627 214.366948 
L 557.022029 222.719317 
L 562.819432 176.781289 
L 568.616834 157.988459 
L 574.414237 168.42892 
L 580.21164 176.781289 
L 586.009042 183.045566 
L 591.806445 220.631225 
L 597.603847 231.071686 
L 603.40125 172.605105 
L 609.198653 149.636091 
L 614.996055 155.900367 
L 620.793458 172.605105 
L 626.59086 176.781289 
L 632.388263 226.895502 
L 638.185666 245.688331 
L 643.983068 214.366948 
L 649.780471 189.309842 
L 655.577873 164.252736 
L 661.375276 191.397934 
L 667.172679 218.543133 
L 672.970081 260.304977 
L 678.767484 249.864516 
L 684.564886 210.190764 
" clip-path="url(#p2b3eb95b22)" style="fill: none; stroke: #348abd; stroke-opacity: 0; stroke-width: 2; stroke-linecap: square"/>
   </g>
   <g id="line2d_38">
    <path d="M 75.837614 247.448854 
L 81.635016 211.263782 
L 87.432419 213.847014 
L 93.229821 231.821964 
L 99.027224 255.043767 
L 104.824627 297.209265 
L 110.622029 259.551306 
L 116.419432 202.184105 
L 122.216834 173.437079 
L 128.014237 184.122499 
L 133.81164 210.653146 
L 139.609042 234.302617 
L 145.406445 275.569061 
L 151.203847 267.659107 
L 157.00125 190.988146 
L 162.798653 187.950233 
L 168.596055 194.019926 
L 174.393458 211.504435 
L 180.19086 203.646031 
L 185.988263 246.716586 
L 191.785666 246.283568 
L 197.583068 187.486938 
L 203.380471 185.12648 
L 209.177873 186.263055 
L 214.975276 191.865667 
L 220.772679 207.528969 
L 226.570081 244.456096 
L 232.367484 235.739355 
L 238.164886 177.7931 
L 243.962289 145.897753 
L 249.759692 144.508389 
L 255.557094 176.610457 
L 261.354497 214.429852 
L 267.151899 227.752402 
L 272.949302 236.620269 
L 278.746705 168.877469 
L 284.544107 146.190477 
L 290.34151 167.162753 
L 296.138912 182.613461 
L 301.936315 207.565771 
L 307.733718 247.696684 
L 313.53112 229.616286 
L 319.328523 176.912708 
L 325.125925 160.298803 
L 330.923328 196.053205 
L 336.720731 201.817906 
L 342.518133 193.107168 
L 348.315536 225.107703 
L 354.112938 232.850349 
L 359.910341 175.668466 
L 365.707744 159.509896 
L 371.505146 155.195114 
L 377.302549 176.944552 
L 383.099951 212.597682 
L 388.897354 252.630455 
L 394.694756 241.795214 
L 400.492159 194.448115 
L 406.289562 168.441318 
L 412.086964 167.470747 
L 417.884367 196.149649 
L 423.681769 209.016343 
L 429.479172 249.753586 
L 435.276575 255.412838 
L 441.073977 189.211832 
L 446.87138 206.377125 
L 452.668782 203.560027 
L 458.466185 195.673825 
L 464.263588 191.155846 
L 470.06099 221.590181 
L 475.858393 238.111558 
L 481.655795 179.343117 
L 487.453198 159.519031 
L 493.250601 157.900498 
L 499.048003 178.417701 
L 504.845406 207.849099 
L 510.642808 224.285256 
L 516.440211 237.069992 
L 522.237614 189.92596 
L 528.035016 188.714475 
L 533.832419 181.09085 
L 539.629821 182.622074 
L 545.427224 188.761587 
L 551.224627 225.676186 
L 557.022029 231.649957 
L 562.819432 190.433888 
L 568.616834 178.031404 
L 574.414237 181.04178 
L 580.21164 188.38025 
L 586.009042 195.028474 
L 591.806445 229.366628 
L 597.603847 243.757238 
L 603.40125 188.8964 
L 609.198653 172.024876 
L 614.996055 168.59401 
L 620.793458 186.895877 
L 626.59086 194.358066 
L 632.388263 231.987967 
L 638.185666 254.680048 
L 643.983068 222.286038 
L 649.780471 200.532555 
L 655.577873 182.319432 
L 661.375276 202.922768 
L 667.172679 231.628424 
L 672.970081 266.313592 
L 678.767484 258.992872 
L 684.564886 223.551161 
" clip-path="url(#p2b3eb95b22)" style="fill: none; stroke: #348abd; stroke-width: 2; stroke-linecap: square"/>
    <defs>
     <path id="m4ff92e67fa" d="M 0 2 
C 0.530406 2 1.03916 1.789267 1.414214 1.414214 
C 1.789267 1.03916 2 0.530406 2 0 
C 2 -0.530406 1.789267 -1.03916 1.414214 -1.414214 
C 1.03916 -1.789267 0.530406 -2 0 -2 
C -0.530406 -2 -1.03916 -1.789267 -1.414214 -1.414214 
C -1.789267 -1.03916 -2 -0.530406 -2 0 
C -2 0.530406 -1.789267 1.03916 -1.414214 1.414214 
C -1.03916 1.789267 -0.530406 2 0 2 
z
" style="stroke: #348abd; stroke-width: 0.75"/>
    </defs>
    <g clip-path="url(#p2b3eb95b22)">
     <use xlink:href="#m4ff92e67fa" x="75.837614" y="247.448854" style="fill: #348abd; stroke: #348abd; stroke-width: 0.75"/>
     <use xlink:href="#m4ff92e67fa" x="81.635016" y="211.263782" style="fill: #348abd; stroke: #348abd; stroke-width: 0.75"/>
     <use xlink:href="#m4ff92e67fa" x="87.432419" y="213.847014" style="fill: #348abd; stroke: #348abd; stroke-width: 0.75"/>
     <use xlink:href="#m4ff92e67fa" x="93.229821" y="231.821964" style="fill: #348abd; stroke: #348abd; stroke-width: 0.75"/>
     <use xlink:href="#m4ff92e67fa" x="99.027224" y="255.043767" style="fill: #348abd; stroke: #348abd; stroke-width: 0.75"/>
     <use xlink:href="#m4ff92e67fa" x="104.824627" y="297.209265" style="fill: #348abd; stroke: #348abd; stroke-width: 0.75"/>
     <use xlink:href="#m4ff92e67fa" x="110.622029" y="259.551306" style="fill: #348abd; stroke: #348abd; stroke-width: 0.75"/>
     <use xlink:href="#m4ff92e67fa" x="116.419432" y="202.184105" style="fill: #348abd; stroke: #348abd; stroke-width: 0.75"/>
     <use xlink:href="#m4ff92e67fa" x="122.216834" y="173.437079" style="fill: #348abd; stroke: #348abd; stroke-width: 0.75"/>
     <use xlink:href="#m4ff92e67fa" x="128.014237" y="184.122499" style="fill: #348abd; stroke: #348abd; stroke-width: 0.75"/>
     <use xlink:href="#m4ff92e67fa" x="133.81164" y="210.653146" style="fill: #348abd; stroke: #348abd; stroke-width: 0.75"/>
     <use xlink:href="#m4ff92e67fa" x="139.609042" y="234.302617" style="fill: #348abd; stroke: #348abd; stroke-width: 0.75"/>
     <use xlink:href="#m4ff92e67fa" x="145.406445" y="275.569061" style="fill: #348abd; stroke: #348abd; stroke-width: 0.75"/>
     <use xlink:href="#m4ff92e67fa" x="151.203847" y="267.659107" style="fill: #348abd; stroke: #348abd; stroke-width: 0.75"/>
     <use xlink:href="#m4ff92e67fa" x="157.00125" y="190.988146" style="fill: #348abd; stroke: #348abd; stroke-width: 0.75"/>
     <use xlink:href="#m4ff92e67fa" x="162.798653" y="187.950233" style="fill: #348abd; stroke: #348abd; stroke-width: 0.75"/>
     <use xlink:href="#m4ff92e67fa" x="168.596055" y="194.019926" style="fill: #348abd; stroke: #348abd; stroke-width: 0.75"/>
     <use xlink:href="#m4ff92e67fa" x="174.393458" y="211.504435" style="fill: #348abd; stroke: #348abd; stroke-width: 0.75"/>
     <use xlink:href="#m4ff92e67fa" x="180.19086" y="203.646031" style="fill: #348abd; stroke: #348abd; stroke-width: 0.75"/>
     <use xlink:href="#m4ff92e67fa" x="185.988263" y="246.716586" style="fill: #348abd; stroke: #348abd; stroke-width: 0.75"/>
     <use xlink:href="#m4ff92e67fa" x="191.785666" y="246.283568" style="fill: #348abd; stroke: #348abd; stroke-width: 0.75"/>
     <use xlink:href="#m4ff92e67fa" x="197.583068" y="187.486938" style="fill: #348abd; stroke: #348abd; stroke-width: 0.75"/>
     <use xlink:href="#m4ff92e67fa" x="203.380471" y="185.12648" style="fill: #348abd; stroke: #348abd; stroke-width: 0.75"/>
     <use xlink:href="#m4ff92e67fa" x="209.177873" y="186.263055" style="fill: #348abd; stroke: #348abd; stroke-width: 0.75"/>
     <use xlink:href="#m4ff92e67fa" x="214.975276" y="191.865667" style="fill: #348abd; stroke: #348abd; stroke-width: 0.75"/>
     <use xlink:href="#m4ff92e67fa" x="220.772679" y="207.528969" style="fill: #348abd; stroke: #348abd; stroke-width: 0.75"/>
     <use xlink:href="#m4ff92e67fa" x="226.570081" y="244.456096" style="fill: #348abd; stroke: #348abd; stroke-width: 0.75"/>
     <use xlink:href="#m4ff92e67fa" x="232.367484" y="235.739355" style="fill: #348abd; stroke: #348abd; stroke-width: 0.75"/>
     <use xlink:href="#m4ff92e67fa" x="238.164886" y="177.7931" style="fill: #348abd; stroke: #348abd; stroke-width: 0.75"/>
     <use xlink:href="#m4ff92e67fa" x="243.962289" y="145.897753" style="fill: #348abd; stroke: #348abd; stroke-width: 0.75"/>
     <use xlink:href="#m4ff92e67fa" x="249.759692" y="144.508389" style="fill: #348abd; stroke: #348abd; stroke-width: 0.75"/>
     <use xlink:href="#m4ff92e67fa" x="255.557094" y="176.610457" style="fill: #348abd; stroke: #348abd; stroke-width: 0.75"/>
     <use xlink:href="#m4ff92e67fa" x="261.354497" y="214.429852" style="fill: #348abd; stroke: #348abd; stroke-width: 0.75"/>
     <use xlink:href="#m4ff92e67fa" x="267.151899" y="227.752402" style="fill: #348abd; stroke: #348abd; stroke-width: 0.75"/>
     <use xlink:href="#m4ff92e67fa" x="272.949302" y="236.620269" style="fill: #348abd; stroke: #348abd; stroke-width: 0.75"/>
     <use xlink:href="#m4ff92e67fa" x="278.746705" y="168.877469" style="fill: #348abd; stroke: #348abd; stroke-width: 0.75"/>
     <use xlink:href="#m4ff92e67fa" x="284.544107" y="146.190477" style="fill: #348abd; stroke: #348abd; stroke-width: 0.75"/>
     <use xlink:href="#m4ff92e67fa" x="290.34151" y="167.162753" style="fill: #348abd; stroke: #348abd; stroke-width: 0.75"/>
     <use xlink:href="#m4ff92e67fa" x="296.138912" y="182.613461" style="fill: #348abd; stroke: #348abd; stroke-width: 0.75"/>
     <use xlink:href="#m4ff92e67fa" x="301.936315" y="207.565771" style="fill: #348abd; stroke: #348abd; stroke-width: 0.75"/>
     <use xlink:href="#m4ff92e67fa" x="307.733718" y="247.696684" style="fill: #348abd; stroke: #348abd; stroke-width: 0.75"/>
     <use xlink:href="#m4ff92e67fa" x="313.53112" y="229.616286" style="fill: #348abd; stroke: #348abd; stroke-width: 0.75"/>
     <use xlink:href="#m4ff92e67fa" x="319.328523" y="176.912708" style="fill: #348abd; stroke: #348abd; stroke-width: 0.75"/>
     <use xlink:href="#m4ff92e67fa" x="325.125925" y="160.298803" style="fill: #348abd; stroke: #348abd; stroke-width: 0.75"/>
     <use xlink:href="#m4ff92e67fa" x="330.923328" y="196.053205" style="fill: #348abd; stroke: #348abd; stroke-width: 0.75"/>
     <use xlink:href="#m4ff92e67fa" x="336.720731" y="201.817906" style="fill: #348abd; stroke: #348abd; stroke-width: 0.75"/>
     <use xlink:href="#m4ff92e67fa" x="342.518133" y="193.107168" style="fill: #348abd; stroke: #348abd; stroke-width: 0.75"/>
     <use xlink:href="#m4ff92e67fa" x="348.315536" y="225.107703" style="fill: #348abd; stroke: #348abd; stroke-width: 0.75"/>
     <use xlink:href="#m4ff92e67fa" x="354.112938" y="232.850349" style="fill: #348abd; stroke: #348abd; stroke-width: 0.75"/>
     <use xlink:href="#m4ff92e67fa" x="359.910341" y="175.668466" style="fill: #348abd; stroke: #348abd; stroke-width: 0.75"/>
     <use xlink:href="#m4ff92e67fa" x="365.707744" y="159.509896" style="fill: #348abd; stroke: #348abd; stroke-width: 0.75"/>
     <use xlink:href="#m4ff92e67fa" x="371.505146" y="155.195114" style="fill: #348abd; stroke: #348abd; stroke-width: 0.75"/>
     <use xlink:href="#m4ff92e67fa" x="377.302549" y="176.944552" style="fill: #348abd; stroke: #348abd; stroke-width: 0.75"/>
     <use xlink:href="#m4ff92e67fa" x="383.099951" y="212.597682" style="fill: #348abd; stroke: #348abd; stroke-width: 0.75"/>
     <use xlink:href="#m4ff92e67fa" x="388.897354" y="252.630455" style="fill: #348abd; stroke: #348abd; stroke-width: 0.75"/>
     <use xlink:href="#m4ff92e67fa" x="394.694756" y="241.795214" style="fill: #348abd; stroke: #348abd; stroke-width: 0.75"/>
     <use xlink:href="#m4ff92e67fa" x="400.492159" y="194.448115" style="fill: #348abd; stroke: #348abd; stroke-width: 0.75"/>
     <use xlink:href="#m4ff92e67fa" x="406.289562" y="168.441318" style="fill: #348abd; stroke: #348abd; stroke-width: 0.75"/>
     <use xlink:href="#m4ff92e67fa" x="412.086964" y="167.470747" style="fill: #348abd; stroke: #348abd; stroke-width: 0.75"/>
     <use xlink:href="#m4ff92e67fa" x="417.884367" y="196.149649" style="fill: #348abd; stroke: #348abd; stroke-width: 0.75"/>
     <use xlink:href="#m4ff92e67fa" x="423.681769" y="209.016343" style="fill: #348abd; stroke: #348abd; stroke-width: 0.75"/>
     <use xlink:href="#m4ff92e67fa" x="429.479172" y="249.753586" style="fill: #348abd; stroke: #348abd; stroke-width: 0.75"/>
     <use xlink:href="#m4ff92e67fa" x="435.276575" y="255.412838" style="fill: #348abd; stroke: #348abd; stroke-width: 0.75"/>
     <use xlink:href="#m4ff92e67fa" x="441.073977" y="189.211832" style="fill: #348abd; stroke: #348abd; stroke-width: 0.75"/>
     <use xlink:href="#m4ff92e67fa" x="446.87138" y="206.377125" style="fill: #348abd; stroke: #348abd; stroke-width: 0.75"/>
     <use xlink:href="#m4ff92e67fa" x="452.668782" y="203.560027" style="fill: #348abd; stroke: #348abd; stroke-width: 0.75"/>
     <use xlink:href="#m4ff92e67fa" x="458.466185" y="195.673825" style="fill: #348abd; stroke: #348abd; stroke-width: 0.75"/>
     <use xlink:href="#m4ff92e67fa" x="464.263588" y="191.155846" style="fill: #348abd; stroke: #348abd; stroke-width: 0.75"/>
     <use xlink:href="#m4ff92e67fa" x="470.06099" y="221.590181" style="fill: #348abd; stroke: #348abd; stroke-width: 0.75"/>
     <use xlink:href="#m4ff92e67fa" x="475.858393" y="238.111558" style="fill: #348abd; stroke: #348abd; stroke-width: 0.75"/>
     <use xlink:href="#m4ff92e67fa" x="481.655795" y="179.343117" style="fill: #348abd; stroke: #348abd; stroke-width: 0.75"/>
     <use xlink:href="#m4ff92e67fa" x="487.453198" y="159.519031" style="fill: #348abd; stroke: #348abd; stroke-width: 0.75"/>
     <use xlink:href="#m4ff92e67fa" x="493.250601" y="157.900498" style="fill: #348abd; stroke: #348abd; stroke-width: 0.75"/>
     <use xlink:href="#m4ff92e67fa" x="499.048003" y="178.417701" style="fill: #348abd; stroke: #348abd; stroke-width: 0.75"/>
     <use xlink:href="#m4ff92e67fa" x="504.845406" y="207.849099" style="fill: #348abd; stroke: #348abd; stroke-width: 0.75"/>
     <use xlink:href="#m4ff92e67fa" x="510.642808" y="224.285256" style="fill: #348abd; stroke: #348abd; stroke-width: 0.75"/>
     <use xlink:href="#m4ff92e67fa" x="516.440211" y="237.069992" style="fill: #348abd; stroke: #348abd; stroke-width: 0.75"/>
     <use xlink:href="#m4ff92e67fa" x="522.237614" y="189.92596" style="fill: #348abd; stroke: #348abd; stroke-width: 0.75"/>
     <use xlink:href="#m4ff92e67fa" x="528.035016" y="188.714475" style="fill: #348abd; stroke: #348abd; stroke-width: 0.75"/>
     <use xlink:href="#m4ff92e67fa" x="533.832419" y="181.09085" style="fill: #348abd; stroke: #348abd; stroke-width: 0.75"/>
     <use xlink:href="#m4ff92e67fa" x="539.629821" y="182.622074" style="fill: #348abd; stroke: #348abd; stroke-width: 0.75"/>
     <use xlink:href="#m4ff92e67fa" x="545.427224" y="188.761587" style="fill: #348abd; stroke: #348abd; stroke-width: 0.75"/>
     <use xlink:href="#m4ff92e67fa" x="551.224627" y="225.676186" style="fill: #348abd; stroke: #348abd; stroke-width: 0.75"/>
     <use xlink:href="#m4ff92e67fa" x="557.022029" y="231.649957" style="fill: #348abd; stroke: #348abd; stroke-width: 0.75"/>
     <use xlink:href="#m4ff92e67fa" x="562.819432" y="190.433888" style="fill: #348abd; stroke: #348abd; stroke-width: 0.75"/>
     <use xlink:href="#m4ff92e67fa" x="568.616834" y="178.031404" style="fill: #348abd; stroke: #348abd; stroke-width: 0.75"/>
     <use xlink:href="#m4ff92e67fa" x="574.414237" y="181.04178" style="fill: #348abd; stroke: #348abd; stroke-width: 0.75"/>
     <use xlink:href="#m4ff92e67fa" x="580.21164" y="188.38025" style="fill: #348abd; stroke: #348abd; stroke-width: 0.75"/>
     <use xlink:href="#m4ff92e67fa" x="586.009042" y="195.028474" style="fill: #348abd; stroke: #348abd; stroke-width: 0.75"/>
     <use xlink:href="#m4ff92e67fa" x="591.806445" y="229.366628" style="fill: #348abd; stroke: #348abd; stroke-width: 0.75"/>
     <use xlink:href="#m4ff92e67fa" x="597.603847" y="243.757238" style="fill: #348abd; stroke: #348abd; stroke-width: 0.75"/>
     <use xlink:href="#m4ff92e67fa" x="603.40125" y="188.8964" style="fill: #348abd; stroke: #348abd; stroke-width: 0.75"/>
     <use xlink:href="#m4ff92e67fa" x="609.198653" y="172.024876" style="fill: #348abd; stroke: #348abd; stroke-width: 0.75"/>
     <use xlink:href="#m4ff92e67fa" x="614.996055" y="168.59401" style="fill: #348abd; stroke: #348abd; stroke-width: 0.75"/>
     <use xlink:href="#m4ff92e67fa" x="620.793458" y="186.895877" style="fill: #348abd; stroke: #348abd; stroke-width: 0.75"/>
     <use xlink:href="#m4ff92e67fa" x="626.59086" y="194.358066" style="fill: #348abd; stroke: #348abd; stroke-width: 0.75"/>
     <use xlink:href="#m4ff92e67fa" x="632.388263" y="231.987967" style="fill: #348abd; stroke: #348abd; stroke-width: 0.75"/>
     <use xlink:href="#m4ff92e67fa" x="638.185666" y="254.680048" style="fill: #348abd; stroke: #348abd; stroke-width: 0.75"/>
     <use xlink:href="#m4ff92e67fa" x="643.983068" y="222.286038" style="fill: #348abd; stroke: #348abd; stroke-width: 0.75"/>
     <use xlink:href="#m4ff92e67fa" x="649.780471" y="200.532555" style="fill: #348abd; stroke: #348abd; stroke-width: 0.75"/>
     <use xlink:href="#m4ff92e67fa" x="655.577873" y="182.319432" style="fill: #348abd; stroke: #348abd; stroke-width: 0.75"/>
     <use xlink:href="#m4ff92e67fa" x="661.375276" y="202.922768" style="fill: #348abd; stroke: #348abd; stroke-width: 0.75"/>
     <use xlink:href="#m4ff92e67fa" x="667.172679" y="231.628424" style="fill: #348abd; stroke: #348abd; stroke-width: 0.75"/>
     <use xlink:href="#m4ff92e67fa" x="672.970081" y="266.313592" style="fill: #348abd; stroke: #348abd; stroke-width: 0.75"/>
     <use xlink:href="#m4ff92e67fa" x="678.767484" y="258.992872" style="fill: #348abd; stroke: #348abd; stroke-width: 0.75"/>
     <use xlink:href="#m4ff92e67fa" x="684.564886" y="223.551161" style="fill: #348abd; stroke: #348abd; stroke-width: 0.75"/>
    </g>
   </g>
   <g id="patch_3">
    <path d="M 45.40125 350.30175 
L 45.40125 24.14175 
" style="fill: none; stroke: #bcbcbc; stroke-width: 0.8; stroke-linejoin: miter; stroke-linecap: square"/>
   </g>
   <g id="patch_4">
    <path d="M 715.00125 350.30175 
L 715.00125 24.14175 
" style="fill: none; stroke: #bcbcbc; stroke-width: 0.8; stroke-linejoin: miter; stroke-linecap: square"/>
   </g>
   <g id="patch_5">
    <path d="M 45.40125 350.30175 
L 715.00125 350.30175 
" style="fill: none; stroke: #bcbcbc; stroke-width: 0.8; stroke-linejoin: miter; stroke-linecap: square"/>
   </g>
   <g id="patch_6">
    <path d="M 45.40125 24.14175 
L 715.00125 24.14175 
" style="fill: none; stroke: #bcbcbc; stroke-width: 0.8; stroke-linejoin: miter; stroke-linecap: square"/>
   </g>
   <g id="text_19">
    <!-- Posterior HDI Sales Model -->
    <g transform="translate(287.655375 18.14175)scale(0.144 -0.144)">
     <defs>
      <path id="DejaVuSans-50" d="M 1259 4147 
L 1259 2394 
L 2053 2394 
Q 2494 2394 2734 2622 
Q 2975 2850 2975 3272 
Q 2975 3691 2734 3919 
Q 2494 4147 2053 4147 
L 1259 4147 
z
M 628 4666 
L 2053 4666 
Q 2838 4666 3239 4311 
Q 3641 3956 3641 3272 
Q 3641 2581 3239 2228 
Q 2838 1875 2053 1875 
L 1259 1875 
L 1259 0 
L 628 0 
L 628 4666 
z
" transform="scale(0.015625)"/>
      <path id="DejaVuSans-6f" d="M 1959 3097 
Q 1497 3097 1228 2736 
Q 959 2375 959 1747 
Q 959 1119 1226 758 
Q 1494 397 1959 397 
Q 2419 397 2687 759 
Q 2956 1122 2956 1747 
Q 2956 2369 2687 2733 
Q 2419 3097 1959 3097 
z
M 1959 3584 
Q 2709 3584 3137 3096 
Q 3566 2609 3566 1747 
Q 3566 888 3137 398 
Q 2709 -91 1959 -91 
Q 1206 -91 779 398 
Q 353 888 353 1747 
Q 353 2609 779 3096 
Q 1206 3584 1959 3584 
z
" transform="scale(0.015625)"/>
      <path id="DejaVuSans-72" d="M 2631 2963 
Q 2534 3019 2420 3045 
Q 2306 3072 2169 3072 
Q 1681 3072 1420 2755 
Q 1159 2438 1159 1844 
L 1159 0 
L 581 0 
L 581 3500 
L 1159 3500 
L 1159 2956 
Q 1341 3275 1631 3429 
Q 1922 3584 2338 3584 
Q 2397 3584 2469 3576 
Q 2541 3569 2628 3553 
L 2631 2963 
z
" transform="scale(0.015625)"/>
      <path id="DejaVuSans-69" d="M 603 3500 
L 1178 3500 
L 1178 0 
L 603 0 
L 603 3500 
z
M 603 4863 
L 1178 4863 
L 1178 4134 
L 603 4134 
L 603 4863 
z
" transform="scale(0.015625)"/>
      <path id="DejaVuSans-20" transform="scale(0.015625)"/>
      <path id="DejaVuSans-48" d="M 628 4666 
L 1259 4666 
L 1259 2753 
L 3553 2753 
L 3553 4666 
L 4184 4666 
L 4184 0 
L 3553 0 
L 3553 2222 
L 1259 2222 
L 1259 0 
L 628 0 
L 628 4666 
z
" transform="scale(0.015625)"/>
      <path id="DejaVuSans-44" d="M 1259 4147 
L 1259 519 
L 2022 519 
Q 2988 519 3436 956 
Q 3884 1394 3884 2338 
Q 3884 3275 3436 3711 
Q 2988 4147 2022 4147 
L 1259 4147 
z
M 628 4666 
L 1925 4666 
Q 3281 4666 3915 4102 
Q 4550 3538 4550 2338 
Q 4550 1131 3912 565 
Q 3275 0 1925 0 
L 628 0 
L 628 4666 
z
" transform="scale(0.015625)"/>
      <path id="DejaVuSans-49" d="M 628 4666 
L 1259 4666 
L 1259 0 
L 628 0 
L 628 4666 
z
" transform="scale(0.015625)"/>
      <path id="DejaVuSans-53" d="M 3425 4513 
L 3425 3897 
Q 3066 4069 2747 4153 
Q 2428 4238 2131 4238 
Q 1616 4238 1336 4038 
Q 1056 3838 1056 3469 
Q 1056 3159 1242 3001 
Q 1428 2844 1947 2747 
L 2328 2669 
Q 3034 2534 3370 2195 
Q 3706 1856 3706 1288 
Q 3706 609 3251 259 
Q 2797 -91 1919 -91 
Q 1588 -91 1214 -16 
Q 841 59 441 206 
L 441 856 
Q 825 641 1194 531 
Q 1563 422 1919 422 
Q 2459 422 2753 634 
Q 3047 847 3047 1241 
Q 3047 1584 2836 1778 
Q 2625 1972 2144 2069 
L 1759 2144 
Q 1053 2284 737 2584 
Q 422 2884 422 3419 
Q 422 4038 858 4394 
Q 1294 4750 2059 4750 
Q 2388 4750 2728 4690 
Q 3069 4631 3425 4513 
z
" transform="scale(0.015625)"/>
      <path id="DejaVuSans-4d" d="M 628 4666 
L 1569 4666 
L 2759 1491 
L 3956 4666 
L 4897 4666 
L 4897 0 
L 4281 0 
L 4281 4097 
L 3078 897 
L 2444 897 
L 1241 4097 
L 1241 0 
L 628 0 
L 628 4666 
z
" transform="scale(0.015625)"/>
     </defs>
     <use xlink:href="#DejaVuSans-50"/>
     <use xlink:href="#DejaVuSans-6f" x="56.677734"/>
     <use xlink:href="#DejaVuSans-73" x="117.859375"/>
     <use xlink:href="#DejaVuSans-74" x="169.958984"/>
     <use xlink:href="#DejaVuSans-65" x="209.167969"/>
     <use xlink:href="#DejaVuSans-72" x="270.691406"/>
     <use xlink:href="#DejaVuSans-69" x="311.804688"/>
     <use xlink:href="#DejaVuSans-6f" x="339.587891"/>
     <use xlink:href="#DejaVuSans-72" x="400.769531"/>
     <use xlink:href="#DejaVuSans-20" x="441.882812"/>
     <use xlink:href="#DejaVuSans-48" x="473.669922"/>
     <use xlink:href="#DejaVuSans-44" x="548.865234"/>
     <use xlink:href="#DejaVuSans-49" x="625.867188"/>
     <use xlink:href="#DejaVuSans-20" x="655.359375"/>
     <use xlink:href="#DejaVuSans-53" x="687.146484"/>
     <use xlink:href="#DejaVuSans-61" x="750.623047"/>
     <use xlink:href="#DejaVuSans-6c" x="811.902344"/>
     <use xlink:href="#DejaVuSans-65" x="839.685547"/>
     <use xlink:href="#DejaVuSans-73" x="901.208984"/>
     <use xlink:href="#DejaVuSans-20" x="953.308594"/>
     <use xlink:href="#DejaVuSans-4d" x="985.095703"/>
     <use xlink:href="#DejaVuSans-6f" x="1071.375"/>
     <use xlink:href="#DejaVuSans-64" x="1132.556641"/>
     <use xlink:href="#DejaVuSans-65" x="1196.033203"/>
     <use xlink:href="#DejaVuSans-6c" x="1257.556641"/>
    </g>
   </g>
   <g id="legend_1">
    <g id="patch_7">
     <path d="M 52.40125 90.85425 
L 213.768438 90.85425 
Q 215.768438 90.85425 215.768438 88.85425 
L 215.768438 31.14175 
Q 215.768438 29.14175 213.768438 29.14175 
L 52.40125 29.14175 
Q 50.40125 29.14175 50.40125 31.14175 
L 50.40125 88.85425 
Q 50.40125 90.85425 52.40125 90.85425 
z
" style="fill: #eeeeee; opacity: 0.8; stroke: #cccccc; stroke-width: 0.5; stroke-linejoin: miter"/>
    </g>
    <g id="line2d_39">
     <path d="M 54.40125 37.240187 
L 64.40125 37.240187 
L 74.40125 37.240187 
" style="fill: none; stroke: #000000; stroke-opacity: 0.8; stroke-width: 2; stroke-linecap: square"/>
     <g>
      <use xlink:href="#mf6a897b815" x="64.40125" y="37.240187" style="fill-opacity: 0.8; stroke: #000000; stroke-opacity: 0.8; stroke-width: 0.75"/>
     </g>
    </g>
    <g id="text_20">
     <!-- sales (train) -->
     <g transform="translate(82.40125 40.740187)scale(0.1 -0.1)">
      <defs>
       <path id="DejaVuSans-28" d="M 1984 4856 
Q 1566 4138 1362 3434 
Q 1159 2731 1159 2009 
Q 1159 1288 1364 580 
Q 1569 -128 1984 -844 
L 1484 -844 
Q 1016 -109 783 600 
Q 550 1309 550 2009 
Q 550 2706 781 3412 
Q 1013 4119 1484 4856 
L 1984 4856 
z
" transform="scale(0.015625)"/>
       <path id="DejaVuSans-6e" d="M 3513 2113 
L 3513 0 
L 2938 0 
L 2938 2094 
Q 2938 2591 2744 2837 
Q 2550 3084 2163 3084 
Q 1697 3084 1428 2787 
Q 1159 2491 1159 1978 
L 1159 0 
L 581 0 
L 581 3500 
L 1159 3500 
L 1159 2956 
Q 1366 3272 1645 3428 
Q 1925 3584 2291 3584 
Q 2894 3584 3203 3211 
Q 3513 2838 3513 2113 
z
" transform="scale(0.015625)"/>
       <path id="DejaVuSans-29" d="M 513 4856 
L 1013 4856 
Q 1481 4119 1714 3412 
Q 1947 2706 1947 2009 
Q 1947 1309 1714 600 
Q 1481 -109 1013 -844 
L 513 -844 
Q 928 -128 1133 580 
Q 1338 1288 1338 2009 
Q 1338 2731 1133 3434 
Q 928 4138 513 4856 
z
" transform="scale(0.015625)"/>
      </defs>
      <use xlink:href="#DejaVuSans-73"/>
      <use xlink:href="#DejaVuSans-61" x="52.099609"/>
      <use xlink:href="#DejaVuSans-6c" x="113.378906"/>
      <use xlink:href="#DejaVuSans-65" x="141.162109"/>
      <use xlink:href="#DejaVuSans-73" x="202.685547"/>
      <use xlink:href="#DejaVuSans-20" x="254.785156"/>
      <use xlink:href="#DejaVuSans-28" x="286.572266"/>
      <use xlink:href="#DejaVuSans-74" x="325.585938"/>
      <use xlink:href="#DejaVuSans-72" x="364.794922"/>
      <use xlink:href="#DejaVuSans-61" x="405.908203"/>
      <use xlink:href="#DejaVuSans-69" x="467.1875"/>
      <use xlink:href="#DejaVuSans-6e" x="494.970703"/>
      <use xlink:href="#DejaVuSans-29" x="558.349609"/>
     </g>
    </g>
    <g id="patch_8">
     <path d="M 54.40125 55.418313 
L 74.40125 55.418313 
L 74.40125 48.418313 
L 54.40125 48.418313 
z
" style="fill: #348abd; fill-opacity: 0.2; stroke: #348abd; stroke-opacity: 0.2; stroke-width: 0.5; stroke-linejoin: miter"/>
    </g>
    <g id="text_21">
     <!-- HDI 50% -->
     <g transform="translate(82.40125 55.418313)scale(0.1 -0.1)">
      <defs>
       <path id="DejaVuSans-25" d="M 4653 2053 
Q 4381 2053 4226 1822 
Q 4072 1591 4072 1178 
Q 4072 772 4226 539 
Q 4381 306 4653 306 
Q 4919 306 5073 539 
Q 5228 772 5228 1178 
Q 5228 1588 5073 1820 
Q 4919 2053 4653 2053 
z
M 4653 2450 
Q 5147 2450 5437 2106 
Q 5728 1763 5728 1178 
Q 5728 594 5436 251 
Q 5144 -91 4653 -91 
Q 4153 -91 3862 251 
Q 3572 594 3572 1178 
Q 3572 1766 3864 2108 
Q 4156 2450 4653 2450 
z
M 1428 4353 
Q 1159 4353 1004 4120 
Q 850 3888 850 3481 
Q 850 3069 1003 2837 
Q 1156 2606 1428 2606 
Q 1700 2606 1854 2837 
Q 2009 3069 2009 3481 
Q 2009 3884 1853 4118 
Q 1697 4353 1428 4353 
z
M 4250 4750 
L 4750 4750 
L 1831 -91 
L 1331 -91 
L 4250 4750 
z
M 1428 4750 
Q 1922 4750 2215 4408 
Q 2509 4066 2509 3481 
Q 2509 2891 2217 2550 
Q 1925 2209 1428 2209 
Q 931 2209 642 2551 
Q 353 2894 353 3481 
Q 353 4063 643 4406 
Q 934 4750 1428 4750 
z
" transform="scale(0.015625)"/>
      </defs>
      <use xlink:href="#DejaVuSans-48"/>
      <use xlink:href="#DejaVuSans-44" x="75.195312"/>
      <use xlink:href="#DejaVuSans-49" x="152.197266"/>
      <use xlink:href="#DejaVuSans-20" x="181.689453"/>
      <use xlink:href="#DejaVuSans-35" x="213.476562"/>
      <use xlink:href="#DejaVuSans-30" x="277.099609"/>
      <use xlink:href="#DejaVuSans-25" x="340.722656"/>
     </g>
    </g>
    <g id="patch_9">
     <path d="M 54.40125 70.096437 
L 74.40125 70.096437 
L 74.40125 63.096437 
L 54.40125 63.096437 
z
" style="fill: #348abd; fill-opacity: 0.3; stroke: #348abd; stroke-opacity: 0.3; stroke-width: 0.5; stroke-linejoin: miter"/>
    </g>
    <g id="text_22">
     <!-- HDI 95% -->
     <g transform="translate(82.40125 70.096437)scale(0.1 -0.1)">
      <use xlink:href="#DejaVuSans-48"/>
      <use xlink:href="#DejaVuSans-44" x="75.195312"/>
      <use xlink:href="#DejaVuSans-49" x="152.197266"/>
      <use xlink:href="#DejaVuSans-20" x="181.689453"/>
      <use xlink:href="#DejaVuSans-39" x="213.476562"/>
      <use xlink:href="#DejaVuSans-35" x="277.099609"/>
      <use xlink:href="#DejaVuSans-25" x="340.722656"/>
     </g>
    </g>
    <g id="line2d_40">
     <path d="M 54.40125 81.274563 
L 64.40125 81.274563 
L 74.40125 81.274563 
" style="fill: none; stroke: #348abd; stroke-width: 2; stroke-linecap: square"/>
     <g>
      <use xlink:href="#m4ff92e67fa" x="64.40125" y="81.274563" style="fill: #348abd; stroke: #348abd; stroke-width: 0.75"/>
     </g>
    </g>
    <g id="text_23">
     <!-- mean posterior predictive -->
     <g transform="translate(82.40125 84.774563)scale(0.1 -0.1)">
      <defs>
       <path id="DejaVuSans-6d" d="M 3328 2828 
Q 3544 3216 3844 3400 
Q 4144 3584 4550 3584 
Q 5097 3584 5394 3201 
Q 5691 2819 5691 2113 
L 5691 0 
L 5113 0 
L 5113 2094 
Q 5113 2597 4934 2840 
Q 4756 3084 4391 3084 
Q 3944 3084 3684 2787 
Q 3425 2491 3425 1978 
L 3425 0 
L 2847 0 
L 2847 2094 
Q 2847 2600 2669 2842 
Q 2491 3084 2119 3084 
Q 1678 3084 1418 2786 
Q 1159 2488 1159 1978 
L 1159 0 
L 581 0 
L 581 3500 
L 1159 3500 
L 1159 2956 
Q 1356 3278 1631 3431 
Q 1906 3584 2284 3584 
Q 2666 3584 2933 3390 
Q 3200 3197 3328 2828 
z
" transform="scale(0.015625)"/>
       <path id="DejaVuSans-70" d="M 1159 525 
L 1159 -1331 
L 581 -1331 
L 581 3500 
L 1159 3500 
L 1159 2969 
Q 1341 3281 1617 3432 
Q 1894 3584 2278 3584 
Q 2916 3584 3314 3078 
Q 3713 2572 3713 1747 
Q 3713 922 3314 415 
Q 2916 -91 2278 -91 
Q 1894 -91 1617 61 
Q 1341 213 1159 525 
z
M 3116 1747 
Q 3116 2381 2855 2742 
Q 2594 3103 2138 3103 
Q 1681 3103 1420 2742 
Q 1159 2381 1159 1747 
Q 1159 1113 1420 752 
Q 1681 391 2138 391 
Q 2594 391 2855 752 
Q 3116 1113 3116 1747 
z
" transform="scale(0.015625)"/>
       <path id="DejaVuSans-63" d="M 3122 3366 
L 3122 2828 
Q 2878 2963 2633 3030 
Q 2388 3097 2138 3097 
Q 1578 3097 1268 2742 
Q 959 2388 959 1747 
Q 959 1106 1268 751 
Q 1578 397 2138 397 
Q 2388 397 2633 464 
Q 2878 531 3122 666 
L 3122 134 
Q 2881 22 2623 -34 
Q 2366 -91 2075 -91 
Q 1284 -91 818 406 
Q 353 903 353 1747 
Q 353 2603 823 3093 
Q 1294 3584 2113 3584 
Q 2378 3584 2631 3529 
Q 2884 3475 3122 3366 
z
" transform="scale(0.015625)"/>
       <path id="DejaVuSans-76" d="M 191 3500 
L 800 3500 
L 1894 563 
L 2988 3500 
L 3597 3500 
L 2284 0 
L 1503 0 
L 191 3500 
z
" transform="scale(0.015625)"/>
      </defs>
      <use xlink:href="#DejaVuSans-6d"/>
      <use xlink:href="#DejaVuSans-65" x="97.412109"/>
      <use xlink:href="#DejaVuSans-61" x="158.935547"/>
      <use xlink:href="#DejaVuSans-6e" x="220.214844"/>
      <use xlink:href="#DejaVuSans-20" x="283.59375"/>
      <use xlink:href="#DejaVuSans-70" x="315.380859"/>
      <use xlink:href="#DejaVuSans-6f" x="378.857422"/>
      <use xlink:href="#DejaVuSans-73" x="440.039062"/>
      <use xlink:href="#DejaVuSans-74" x="492.138672"/>
      <use xlink:href="#DejaVuSans-65" x="531.347656"/>
      <use xlink:href="#DejaVuSans-72" x="592.871094"/>
      <use xlink:href="#DejaVuSans-69" x="633.984375"/>
      <use xlink:href="#DejaVuSans-6f" x="661.767578"/>
      <use xlink:href="#DejaVuSans-72" x="722.949219"/>
      <use xlink:href="#DejaVuSans-20" x="764.0625"/>
      <use xlink:href="#DejaVuSans-70" x="795.849609"/>
      <use xlink:href="#DejaVuSans-72" x="859.326172"/>
      <use xlink:href="#DejaVuSans-65" x="898.189453"/>
      <use xlink:href="#DejaVuSans-64" x="959.712891"/>
      <use xlink:href="#DejaVuSans-69" x="1023.189453"/>
      <use xlink:href="#DejaVuSans-63" x="1050.972656"/>
      <use xlink:href="#DejaVuSans-74" x="1105.953125"/>
      <use xlink:href="#DejaVuSans-69" x="1145.162109"/>
      <use xlink:href="#DejaVuSans-76" x="1172.945312"/>
      <use xlink:href="#DejaVuSans-65" x="1232.125"/>
     </g>
    </g>
   </g>
  </g>
 </g>
 <defs>
  <clipPath id="p2b3eb95b22">
   <rect x="45.40125" y="24.14175" width="669.6" height="326.16"/>
  </clipPath>
 </defs>
</svg>
