<?xml version="1.0" encoding="UTF-8" standalone="no"?>
<!DOCTYPE svg PUBLIC "-//W3C//DTD SVG 1.1//EN"
 "http://www.w3.org/Graphics/SVG/1.1/DTD/svg11.dtd">
<!-- Generated by graphviz version 3.0.0 (20220226.1711)
 -->
<!-- Pages: 1 -->
<svg width="231pt" height="452pt"
 viewBox="0.00 0.00 230.72 451.86" xmlns="http://www.w3.org/2000/svg" xmlns:xlink="http://www.w3.org/1999/xlink">
<g id="graph0" class="graph" transform="scale(1 1) rotate(0) translate(4 447.86)">
<polygon fill="white" stroke="transparent" points="-4,4 -4,-447.86 226.72,-447.86 226.72,4 -4,4"/>
<g id="clust1" class="cluster">
<title>clusterfourier_features (12)</title>
<path fill="none" stroke="black" d="M97.72,-321.91C97.72,-321.91 202.72,-321.91 202.72,-321.91 208.72,-321.91 214.72,-327.91 214.72,-333.91 214.72,-333.91 214.72,-423.86 214.72,-423.86 214.72,-429.86 208.72,-435.86 202.72,-435.86 202.72,-435.86 97.72,-435.86 97.72,-435.86 91.72,-435.86 85.72,-429.86 85.72,-423.86 85.72,-423.86 85.72,-333.91 85.72,-333.91 85.72,-327.91 91.72,-321.91 97.72,-321.91"/>
<text text-anchor="middle" x="150.22" y="-329.71" font-family="Times,serif" font-size="14.00">fourier_features (12)</text>
</g>
<g id="clust2" class="cluster">
<title>clusterdate (1095)</title>
<path fill="none" stroke="black" d="M103.72,-8C103.72,-8 195.72,-8 195.72,-8 201.72,-8 207.72,-14 207.72,-20 207.72,-20 207.72,-298.93 207.72,-298.93 207.72,-304.93 201.72,-310.93 195.72,-310.93 195.72,-310.93 103.72,-310.93 103.72,-310.93 97.72,-310.93 91.72,-304.93 91.72,-298.93 91.72,-298.93 91.72,-20 91.72,-20 91.72,-14 97.72,-8 103.72,-8"/>
<text text-anchor="middle" x="168.22" y="-15.8" font-family="Times,serif" font-size="14.00">date (1095)</text>
</g>
<!-- a -->
<g id="node1" class="node">
<title>a</title>
<ellipse fill="none" stroke="black" cx="41.72" cy="-276.43" rx="41.94" ry="37.45"/>
<text text-anchor="middle" x="41.72" y="-287.73" font-family="Times,serif" font-size="14.00">a</text>
<text text-anchor="middle" x="41.72" y="-272.73" font-family="Times,serif" font-size="14.00">~</text>
<text text-anchor="middle" x="41.72" y="-257.73" font-family="Times,serif" font-size="14.00">Normal</text>
</g>
<!-- mu -->
<g id="node4" class="node">
<title>mu</title>
<polygon fill="none" stroke="black" points="192.22,-202.95 101.22,-202.95 101.22,-149.95 192.22,-149.95 192.22,-202.95"/>
<text text-anchor="middle" x="146.72" y="-187.75" font-family="Times,serif" font-size="14.00">mu</text>
<text text-anchor="middle" x="146.72" y="-172.75" font-family="Times,serif" font-size="14.00">~</text>
<text text-anchor="middle" x="146.72" y="-157.75" font-family="Times,serif" font-size="14.00">Deterministic</text>
</g>
<!-- a&#45;&gt;mu -->
<g id="edge3" class="edge">
<title>a&#45;&gt;mu</title>
<path fill="none" stroke="black" d="M70.13,-248.92C83.05,-236.87 98.44,-222.5 112.03,-209.82"/>
<polygon fill="black" stroke="black" points="114.45,-212.36 119.37,-202.97 109.67,-207.24 114.45,-212.36"/>
</g>
<!-- b_fourier -->
<g id="node2" class="node">
<title>b_fourier</title>
<ellipse fill="none" stroke="black" cx="146.72" cy="-390.38" rx="47.25" ry="37.45"/>
<text text-anchor="middle" x="146.72" y="-401.68" font-family="Times,serif" font-size="14.00">b_fourier</text>
<text text-anchor="middle" x="146.72" y="-386.68" font-family="Times,serif" font-size="14.00">~</text>
<text text-anchor="middle" x="146.72" y="-371.68" font-family="Times,serif" font-size="14.00">Normal</text>
</g>
<!-- seasonality -->
<g id="node3" class="node">
<title>seasonality</title>
<polygon fill="none" stroke="black" points="192.22,-302.93 101.22,-302.93 101.22,-249.93 192.22,-249.93 192.22,-302.93"/>
<text text-anchor="middle" x="146.72" y="-287.73" font-family="Times,serif" font-size="14.00">seasonality</text>
<text text-anchor="middle" x="146.72" y="-272.73" font-family="Times,serif" font-size="14.00">~</text>
<text text-anchor="middle" x="146.72" y="-257.73" font-family="Times,serif" font-size="14.00">Deterministic</text>
</g>
<!-- b_fourier&#45;&gt;seasonality -->
<g id="edge1" class="edge">
<title>b_fourier&#45;&gt;seasonality</title>
<path fill="none" stroke="black" d="M146.72,-352.73C146.72,-340.07 146.72,-325.92 146.72,-313.32"/>
<polygon fill="black" stroke="black" points="150.22,-313.18 146.72,-303.18 143.22,-313.18 150.22,-313.18"/>
</g>
<!-- seasonality&#45;&gt;mu -->
<g id="edge2" class="edge">
<title>seasonality&#45;&gt;mu</title>
<path fill="none" stroke="black" d="M146.72,-249.69C146.72,-238.55 146.72,-225.32 146.72,-213.25"/>
<polygon fill="black" stroke="black" points="150.22,-213.02 146.72,-203.02 143.22,-213.02 150.22,-213.02"/>
</g>
<!-- likelihood -->
<g id="node5" class="node">
<title>likelihood</title>
<ellipse fill="lightgrey" stroke="black" cx="149.72" cy="-76.48" rx="50.41" ry="37.45"/>
<text text-anchor="middle" x="149.72" y="-87.78" font-family="Times,serif" font-size="14.00">likelihood</text>
<text text-anchor="middle" x="149.72" y="-72.78" font-family="Times,serif" font-size="14.00">~</text>
<text text-anchor="middle" x="149.72" y="-57.78" font-family="Times,serif" font-size="14.00">Poisson</text>
</g>
<!-- mu&#45;&gt;likelihood -->
<g id="edge4" class="edge">
<title>mu&#45;&gt;likelihood</title>
<path fill="none" stroke="black" d="M147.51,-149.71C147.75,-141.89 148.02,-133.03 148.29,-124.27"/>
<polygon fill="black" stroke="black" points="151.79,-124.2 148.6,-114.1 144.79,-123.99 151.79,-124.2"/>
</g>
</g>
</svg>
