<?xml version="1.0" encoding="UTF-8" standalone="no"?>
<!DOCTYPE svg PUBLIC "-//W3C//DTD SVG 1.1//EN"
 "http://www.w3.org/Graphics/SVG/1.1/DTD/svg11.dtd">
<!-- Generated by graphviz version 3.0.0 (20220226.1711)
 -->
<!-- Pages: 1 -->
<svg width="1131pt" height="569pt"
 viewBox="0.00 0.00 1131.50 568.99" xmlns="http://www.w3.org/2000/svg" xmlns:xlink="http://www.w3.org/1999/xlink">
<g id="graph0" class="graph" transform="scale(1 1) rotate(0) translate(4 564.99)">
<polygon fill="white" stroke="transparent" points="-4,4 -4,-564.99 1127.5,-564.99 1127.5,4 -4,4"/>
<g id="clust1" class="cluster">
<title>clusterdate (106)</title>
<path fill="none" stroke="black" d="M302.5,-8C302.5,-8 724.5,-8 724.5,-8 730.5,-8 736.5,-14 736.5,-20 736.5,-20 736.5,-530.01 736.5,-530.01 736.5,-536.01 730.5,-542.01 724.5,-542.01 724.5,-542.01 302.5,-542.01 302.5,-542.01 296.5,-542.01 290.5,-536.01 290.5,-530.01 290.5,-530.01 290.5,-20 290.5,-20 290.5,-14 296.5,-8 302.5,-8"/>
<text text-anchor="middle" x="700.5" y="-15.8" font-family="Times,serif" font-size="14.00">date (106)</text>
</g>
<g id="clust2" class="cluster">
<title>clusterfourier_features (12)</title>
<path fill="none" stroke="black" d="M848.5,-439.04C848.5,-439.04 953.5,-439.04 953.5,-439.04 959.5,-439.04 965.5,-445.04 965.5,-451.04 965.5,-451.04 965.5,-540.99 965.5,-540.99 965.5,-546.99 959.5,-552.99 953.5,-552.99 953.5,-552.99 848.5,-552.99 848.5,-552.99 842.5,-552.99 836.5,-546.99 836.5,-540.99 836.5,-540.99 836.5,-451.04 836.5,-451.04 836.5,-445.04 842.5,-439.04 848.5,-439.04"/>
<text text-anchor="middle" x="901" y="-446.84" font-family="Times,serif" font-size="14.00">fourier_features (12)</text>
</g>
<g id="clust3" class="cluster">
<title>clusterdayofweek (7)</title>
<path fill="none" stroke="black" d="M985.5,-439.04C985.5,-439.04 1103.5,-439.04 1103.5,-439.04 1109.5,-439.04 1115.5,-445.04 1115.5,-451.04 1115.5,-451.04 1115.5,-540.99 1115.5,-540.99 1115.5,-546.99 1109.5,-552.99 1103.5,-552.99 1103.5,-552.99 985.5,-552.99 985.5,-552.99 979.5,-552.99 973.5,-546.99 973.5,-540.99 973.5,-540.99 973.5,-451.04 973.5,-451.04 973.5,-445.04 979.5,-439.04 985.5,-439.04"/>
<text text-anchor="middle" x="1068" y="-446.84" font-family="Times,serif" font-size="14.00">dayofweek (7)</text>
</g>
<!-- seasonality -->
<g id="node1" class="node">
<title>seasonality</title>
<polygon fill="none" stroke="black" points="498,-331.06 407,-331.06 407,-278.06 498,-278.06 498,-331.06"/>
<text text-anchor="middle" x="452.5" y="-315.86" font-family="Times,serif" font-size="14.00">seasonality</text>
<text text-anchor="middle" x="452.5" y="-300.86" font-family="Times,serif" font-size="14.00">~</text>
<text text-anchor="middle" x="452.5" y="-285.86" font-family="Times,serif" font-size="14.00">Deterministic</text>
</g>
<!-- mu -->
<g id="node4" class="node">
<title>mu</title>
<polygon fill="none" stroke="black" points="399,-217.02 308,-217.02 308,-164.02 399,-164.02 399,-217.02"/>
<text text-anchor="middle" x="353.5" y="-201.82" font-family="Times,serif" font-size="14.00">mu</text>
<text text-anchor="middle" x="353.5" y="-186.82" font-family="Times,serif" font-size="14.00">~</text>
<text text-anchor="middle" x="353.5" y="-171.82" font-family="Times,serif" font-size="14.00">Deterministic</text>
</g>
<!-- seasonality&#45;&gt;mu -->
<g id="edge10" class="edge">
<title>seasonality&#45;&gt;mu</title>
<path fill="none" stroke="black" d="M429.78,-277.85C415.82,-262.06 397.8,-241.65 382.77,-224.65"/>
<polygon fill="black" stroke="black" points="385.35,-222.28 376.1,-217.1 380.1,-226.91 385.35,-222.28"/>
</g>
<!-- fourier_contribution -->
<g id="node2" class="node">
<title>fourier_contribution</title>
<polygon fill="none" stroke="black" points="560.5,-431.04 434.5,-431.04 434.5,-378.04 560.5,-378.04 560.5,-431.04"/>
<text text-anchor="middle" x="497.5" y="-415.84" font-family="Times,serif" font-size="14.00">fourier_contribution</text>
<text text-anchor="middle" x="497.5" y="-400.84" font-family="Times,serif" font-size="14.00">~</text>
<text text-anchor="middle" x="497.5" y="-385.84" font-family="Times,serif" font-size="14.00">Deterministic</text>
</g>
<!-- fourier_contribution&#45;&gt;seasonality -->
<g id="edge8" class="edge">
<title>fourier_contribution&#45;&gt;seasonality</title>
<path fill="none" stroke="black" d="M485.67,-377.79C480.4,-366.32 474.12,-352.63 468.44,-340.26"/>
<polygon fill="black" stroke="black" points="471.6,-338.76 464.24,-331.13 465.23,-341.68 471.6,-338.76"/>
</g>
<!-- trend -->
<g id="node3" class="node">
<title>trend</title>
<path fill="lightgrey" stroke="black" d="M389.5,-534.01C389.5,-534.01 325.5,-534.01 325.5,-534.01 319.5,-534.01 313.5,-528.01 313.5,-522.01 313.5,-522.01 313.5,-493.01 313.5,-493.01 313.5,-487.01 319.5,-481.01 325.5,-481.01 325.5,-481.01 389.5,-481.01 389.5,-481.01 395.5,-481.01 401.5,-487.01 401.5,-493.01 401.5,-493.01 401.5,-522.01 401.5,-522.01 401.5,-528.01 395.5,-534.01 389.5,-534.01"/>
<text text-anchor="middle" x="357.5" y="-518.81" font-family="Times,serif" font-size="14.00">trend</text>
<text text-anchor="middle" x="357.5" y="-503.81" font-family="Times,serif" font-size="14.00">~</text>
<text text-anchor="middle" x="357.5" y="-488.81" font-family="Times,serif" font-size="14.00">MutableData</text>
</g>
<!-- trend_contribution -->
<g id="node7" class="node">
<title>trend_contribution</title>
<polygon fill="none" stroke="black" points="416,-431.04 299,-431.04 299,-378.04 416,-378.04 416,-431.04"/>
<text text-anchor="middle" x="357.5" y="-415.84" font-family="Times,serif" font-size="14.00">trend_contribution</text>
<text text-anchor="middle" x="357.5" y="-400.84" font-family="Times,serif" font-size="14.00">~</text>
<text text-anchor="middle" x="357.5" y="-385.84" font-family="Times,serif" font-size="14.00">Deterministic</text>
</g>
<!-- trend&#45;&gt;trend_contribution -->
<g id="edge6" class="edge">
<title>trend&#45;&gt;trend_contribution</title>
<path fill="none" stroke="black" d="M357.5,-480.77C357.5,-468.78 357.5,-454.32 357.5,-441.3"/>
<polygon fill="black" stroke="black" points="361,-441.23 357.5,-431.23 354,-441.23 361,-441.23"/>
</g>
<!-- likelihood -->
<g id="node5" class="node">
<title>likelihood</title>
<ellipse fill="lightgrey" stroke="black" cx="362.5" cy="-76.48" rx="63.78" ry="37.45"/>
<text text-anchor="middle" x="362.5" y="-87.78" font-family="Times,serif" font-size="14.00">likelihood</text>
<text text-anchor="middle" x="362.5" y="-72.78" font-family="Times,serif" font-size="14.00">~</text>
<text text-anchor="middle" x="362.5" y="-57.78" font-family="Times,serif" font-size="14.00">NegBinomial</text>
</g>
<!-- mu&#45;&gt;likelihood -->
<g id="edge17" class="edge">
<title>mu&#45;&gt;likelihood</title>
<path fill="none" stroke="black" d="M355.56,-163.81C356.51,-152.08 357.65,-137.8 358.74,-124.26"/>
<polygon fill="black" stroke="black" points="362.24,-124.35 359.56,-114.1 355.27,-123.79 362.24,-124.35"/>
</g>
<!-- mu0 -->
<g id="node6" class="node">
<title>mu0</title>
<path fill="lightgrey" stroke="black" d="M592.5,-331.06C592.5,-331.06 528.5,-331.06 528.5,-331.06 522.5,-331.06 516.5,-325.06 516.5,-319.06 516.5,-319.06 516.5,-290.06 516.5,-290.06 516.5,-284.06 522.5,-278.06 528.5,-278.06 528.5,-278.06 592.5,-278.06 592.5,-278.06 598.5,-278.06 604.5,-284.06 604.5,-290.06 604.5,-290.06 604.5,-319.06 604.5,-319.06 604.5,-325.06 598.5,-331.06 592.5,-331.06"/>
<text text-anchor="middle" x="560.5" y="-315.86" font-family="Times,serif" font-size="14.00">mu0</text>
<text text-anchor="middle" x="560.5" y="-300.86" font-family="Times,serif" font-size="14.00">~</text>
<text text-anchor="middle" x="560.5" y="-285.86" font-family="Times,serif" font-size="14.00">MutableData</text>
</g>
<!-- mu0&#45;&gt;mu -->
<g id="edge11" class="edge">
<title>mu0&#45;&gt;mu</title>
<path fill="none" stroke="black" d="M524.75,-277.92C519.07,-274.14 513.19,-270.41 507.5,-267.08 475.61,-248.42 438.45,-230.1 408.63,-216.17"/>
<polygon fill="black" stroke="black" points="409.77,-212.84 399.22,-211.81 406.82,-219.19 409.77,-212.84"/>
</g>
<!-- trend_contribution&#45;&gt;seasonality -->
<g id="edge9" class="edge">
<title>trend_contribution&#45;&gt;seasonality</title>
<path fill="none" stroke="black" d="M382.46,-377.79C394.13,-365.75 408.17,-351.28 420.6,-338.46"/>
<polygon fill="black" stroke="black" points="423.26,-340.74 427.7,-331.13 418.23,-335.87 423.26,-340.74"/>
</g>
<!-- dayofweek_contribution -->
<g id="node8" class="node">
<title>dayofweek_contribution</title>
<polygon fill="none" stroke="black" points="728,-431.04 579,-431.04 579,-378.04 728,-378.04 728,-431.04"/>
<text text-anchor="middle" x="653.5" y="-415.84" font-family="Times,serif" font-size="14.00">dayofweek_contribution</text>
<text text-anchor="middle" x="653.5" y="-400.84" font-family="Times,serif" font-size="14.00">~</text>
<text text-anchor="middle" x="653.5" y="-385.84" font-family="Times,serif" font-size="14.00">Deterministic</text>
</g>
<!-- dayofweek_contribution&#45;&gt;seasonality -->
<g id="edge7" class="edge">
<title>dayofweek_contribution&#45;&gt;seasonality</title>
<path fill="none" stroke="black" d="M585.4,-377.94C560.42,-367.75 532.22,-355.29 507.5,-342.04 504.23,-340.28 500.9,-338.39 497.59,-336.41"/>
<polygon fill="black" stroke="black" points="499.25,-333.33 488.9,-331.06 495.57,-339.29 499.25,-333.33"/>
</g>
<!-- sales -->
<g id="node9" class="node">
<title>sales</title>
<path fill="lightgrey" stroke="black" d="M376.5,-331.06C376.5,-331.06 312.5,-331.06 312.5,-331.06 306.5,-331.06 300.5,-325.06 300.5,-319.06 300.5,-319.06 300.5,-290.06 300.5,-290.06 300.5,-284.06 306.5,-278.06 312.5,-278.06 312.5,-278.06 376.5,-278.06 376.5,-278.06 382.5,-278.06 388.5,-284.06 388.5,-290.06 388.5,-290.06 388.5,-319.06 388.5,-319.06 388.5,-325.06 382.5,-331.06 376.5,-331.06"/>
<text text-anchor="middle" x="344.5" y="-315.86" font-family="Times,serif" font-size="14.00">sales</text>
<text text-anchor="middle" x="344.5" y="-300.86" font-family="Times,serif" font-size="14.00">~</text>
<text text-anchor="middle" x="344.5" y="-285.86" font-family="Times,serif" font-size="14.00">MutableData</text>
</g>
<!-- sales&#45;&gt;mu -->
<g id="edge14" class="edge">
<title>sales&#45;&gt;mu</title>
<path fill="none" stroke="black" d="M346.56,-277.85C347.76,-262.91 349.29,-243.84 350.61,-227.43"/>
<polygon fill="black" stroke="black" points="354.13,-227.35 351.44,-217.1 347.15,-226.79 354.13,-227.35"/>
</g>
<!-- alpha -->
<g id="node10" class="node">
<title>alpha</title>
<polygon fill="none" stroke="black" points="128,-217.02 37,-217.02 37,-164.02 128,-164.02 128,-217.02"/>
<text text-anchor="middle" x="82.5" y="-201.82" font-family="Times,serif" font-size="14.00">alpha</text>
<text text-anchor="middle" x="82.5" y="-186.82" font-family="Times,serif" font-size="14.00">~</text>
<text text-anchor="middle" x="82.5" y="-171.82" font-family="Times,serif" font-size="14.00">Deterministic</text>
</g>
<!-- alpha&#45;&gt;likelihood -->
<g id="edge16" class="edge">
<title>alpha&#45;&gt;likelihood</title>
<path fill="none" stroke="black" d="M125.82,-163.81C134.82,-158.92 144.35,-154.05 153.5,-149.95 200.06,-129.1 254.58,-110.37 296.26,-97.18"/>
<polygon fill="black" stroke="black" points="297.53,-100.45 306.03,-94.11 295.44,-93.77 297.53,-100.45"/>
</g>
<!-- delta -->
<g id="node11" class="node">
<title>delta</title>
<ellipse fill="none" stroke="black" cx="252.5" cy="-304.56" rx="30.31" ry="37.45"/>
<text text-anchor="middle" x="252.5" y="-315.86" font-family="Times,serif" font-size="14.00">delta</text>
<text text-anchor="middle" x="252.5" y="-300.86" font-family="Times,serif" font-size="14.00">~</text>
<text text-anchor="middle" x="252.5" y="-285.86" font-family="Times,serif" font-size="14.00">Beta</text>
</g>
<!-- delta&#45;&gt;mu -->
<g id="edge12" class="edge">
<title>delta&#45;&gt;mu</title>
<path fill="none" stroke="black" d="M274.91,-278.69C289.23,-262.82 307.95,-242.04 323.53,-224.76"/>
<polygon fill="black" stroke="black" points="326.35,-226.86 330.44,-217.09 321.15,-222.17 326.35,-226.86"/>
</g>
<!-- constrain -->
<g id="node15" class="node">
<title>constrain</title>
<polygon fill="lightgrey" stroke="black" points="264.03,-173.69 264.03,-207.35 234.43,-231.15 192.57,-231.15 162.97,-207.35 162.97,-173.69 192.57,-149.89 234.43,-149.89 264.03,-173.69"/>
<text text-anchor="middle" x="213.5" y="-201.82" font-family="Times,serif" font-size="14.00">constrain</text>
<text text-anchor="middle" x="213.5" y="-186.82" font-family="Times,serif" font-size="14.00">~</text>
<text text-anchor="middle" x="213.5" y="-171.82" font-family="Times,serif" font-size="14.00">Potential</text>
</g>
<!-- delta&#45;&gt;constrain -->
<g id="edge2" class="edge">
<title>delta&#45;&gt;constrain</title>
<path fill="none" stroke="black" d="M240.8,-269.94C237.63,-260.85 234.14,-250.82 230.74,-241.06"/>
<polygon fill="black" stroke="black" points="233.98,-239.72 227.39,-231.43 227.37,-242.02 233.98,-239.72"/>
</g>
<!-- eta -->
<g id="node12" class="node">
<title>eta</title>
<ellipse fill="none" stroke="black" cx="160.5" cy="-304.56" rx="43.27" ry="37.45"/>
<text text-anchor="middle" x="160.5" y="-315.86" font-family="Times,serif" font-size="14.00">eta</text>
<text text-anchor="middle" x="160.5" y="-300.86" font-family="Times,serif" font-size="14.00">~</text>
<text text-anchor="middle" x="160.5" y="-285.86" font-family="Times,serif" font-size="14.00">Gamma</text>
</g>
<!-- eta&#45;&gt;mu -->
<g id="edge13" class="edge">
<title>eta&#45;&gt;mu</title>
<path fill="none" stroke="black" d="M193.5,-280.04C200.04,-275.61 206.92,-271.1 213.5,-267.08 241,-250.26 272.54,-233.07 298.7,-219.34"/>
<polygon fill="black" stroke="black" points="300.47,-222.36 307.72,-214.64 297.23,-216.16 300.47,-222.36"/>
</g>
<!-- eta&#45;&gt;constrain -->
<g id="edge1" class="edge">
<title>eta&#45;&gt;constrain</title>
<path fill="none" stroke="black" d="M176.54,-269.64C180.88,-260.46 185.67,-250.34 190.32,-240.52"/>
<polygon fill="black" stroke="black" points="193.6,-241.76 194.71,-231.23 187.27,-238.77 193.6,-241.76"/>
</g>
<!-- b_trend -->
<g id="node13" class="node">
<title>b_trend</title>
<ellipse fill="none" stroke="black" cx="786.5" cy="-507.51" rx="41.94" ry="37.45"/>
<text text-anchor="middle" x="786.5" y="-518.81" font-family="Times,serif" font-size="14.00">b_trend</text>
<text text-anchor="middle" x="786.5" y="-503.81" font-family="Times,serif" font-size="14.00">~</text>
<text text-anchor="middle" x="786.5" y="-488.81" font-family="Times,serif" font-size="14.00">Normal</text>
</g>
<!-- b_trend&#45;&gt;trend_contribution -->
<g id="edge5" class="edge">
<title>b_trend&#45;&gt;trend_contribution</title>
<path fill="none" stroke="black" d="M771.63,-472.28C764.23,-459.52 753.94,-446.36 740.5,-439.04 726.3,-431.3 484.16,-433.88 426.41,-429.99"/>
<polygon fill="black" stroke="black" points="426.44,-426.47 416.12,-428.88 425.69,-433.43 426.44,-426.47"/>
</g>
<!-- alpha_inv -->
<g id="node14" class="node">
<title>alpha_inv</title>
<ellipse fill="none" stroke="black" cx="49.5" cy="-304.56" rx="49.49" ry="37.45"/>
<text text-anchor="middle" x="49.5" y="-315.86" font-family="Times,serif" font-size="14.00">alpha_inv</text>
<text text-anchor="middle" x="49.5" y="-300.86" font-family="Times,serif" font-size="14.00">~</text>
<text text-anchor="middle" x="49.5" y="-285.86" font-family="Times,serif" font-size="14.00">Normal</text>
</g>
<!-- alpha_inv&#45;&gt;alpha -->
<g id="edge15" class="edge">
<title>alpha_inv&#45;&gt;alpha</title>
<path fill="none" stroke="black" d="M60.03,-267.8C63.84,-254.86 68.14,-240.26 71.95,-227.32"/>
<polygon fill="black" stroke="black" points="75.42,-227.94 74.89,-217.36 68.7,-225.97 75.42,-227.94"/>
</g>
<!-- b_fourier -->
<g id="node16" class="node">
<title>b_fourier</title>
<ellipse fill="none" stroke="black" cx="893.5" cy="-507.51" rx="47.25" ry="37.45"/>
<text text-anchor="middle" x="893.5" y="-518.81" font-family="Times,serif" font-size="14.00">b_fourier</text>
<text text-anchor="middle" x="893.5" y="-503.81" font-family="Times,serif" font-size="14.00">~</text>
<text text-anchor="middle" x="893.5" y="-488.81" font-family="Times,serif" font-size="14.00">Normal</text>
</g>
<!-- b_fourier&#45;&gt;fourier_contribution -->
<g id="edge3" class="edge">
<title>b_fourier&#45;&gt;fourier_contribution</title>
<path fill="none" stroke="black" d="M874.31,-472.87C865,-459.87 852.55,-446.38 837.5,-439.04 812.65,-426.91 627.69,-435.12 571.15,-430.26"/>
<polygon fill="black" stroke="black" points="571.25,-426.74 560.89,-428.96 570.37,-433.69 571.25,-426.74"/>
</g>
<!-- b_dayofweek -->
<g id="node17" class="node">
<title>b_dayofweek</title>
<ellipse fill="none" stroke="black" cx="1044.5" cy="-507.51" rx="62.87" ry="37.45"/>
<text text-anchor="middle" x="1044.5" y="-518.81" font-family="Times,serif" font-size="14.00">b_dayofweek</text>
<text text-anchor="middle" x="1044.5" y="-503.81" font-family="Times,serif" font-size="14.00">~</text>
<text text-anchor="middle" x="1044.5" y="-488.81" font-family="Times,serif" font-size="14.00">Normal</text>
</g>
<!-- b_dayofweek&#45;&gt;dayofweek_contribution -->
<g id="edge4" class="edge">
<title>b_dayofweek&#45;&gt;dayofweek_contribution</title>
<path fill="none" stroke="black" d="M1016.66,-473.71C1003.72,-460.68 987.26,-446.95 969.5,-439.04 929.53,-421.23 817.76,-412.63 738.52,-408.66"/>
<polygon fill="black" stroke="black" points="738.21,-405.14 728.06,-408.15 737.87,-412.13 738.21,-405.14"/>
</g>
</g>
</svg>
