<?xml version="1.0" encoding="utf-8" standalone="no"?>
<!DOCTYPE svg PUBLIC "-//W3C//DTD SVG 1.1//EN"
  "http://www.w3.org/Graphics/SVG/1.1/DTD/svg11.dtd">
<svg xmlns:xlink="http://www.w3.org/1999/xlink" width="728.39952pt" height="460.67976pt" viewBox="0 0 728.39952 460.67976" xmlns="http://www.w3.org/2000/svg" version="1.1">
 <metadata>
  <rdf:RDF xmlns:dc="http://purl.org/dc/elements/1.1/" xmlns:cc="http://creativecommons.org/ns#" xmlns:rdf="http://www.w3.org/1999/02/22-rdf-syntax-ns#">
   <cc:Work>
    <dc:type rdf:resource="http://purl.org/dc/dcmitype/StillImage"/>
    <dc:date>2022-02-03T13:28:35.577337</dc:date>
    <dc:format>image/svg+xml</dc:format>
    <dc:creator>
     <cc:Agent>
      <dc:title>Matplotlib v3.5.1, https://matplotlib.org/</dc:title>
     </cc:Agent>
    </dc:creator>
   </cc:Work>
  </rdf:RDF>
 </metadata>
 <defs>
  <style type="text/css">*{stroke-linejoin: round; stroke-linecap: butt}</style>
 </defs>
 <g id="figure_1">
  <g id="patch_1">
   <path d="M 0 460.67976 
L 728.39952 460.67976 
L 728.39952 0 
L 0 0 
L 0 460.67976 
z
" style="fill: none"/>
  </g>
  <g id="axes_1">
   <g id="patch_2">
    <path d="M 34.982813 223.083823 
L 721.19952 223.083823 
L 721.19952 44.42199 
L 34.982813 44.42199 
z
" style="fill: #eeeeee"/>
   </g>
   <g id="PolyCollection_1">
    <defs>
     <path id="mb60ddd2259" d="M 66.174481 -322.682473 
L 66.174481 -322.682473 
L 69.679163 -327.08643 
L 73.183845 -331.005791 
L 76.688527 -333.965783 
L 80.193208 -335.555988 
L 83.69789 -335.457434 
L 87.202572 -333.464238 
L 90.707254 -329.498516 
L 94.211936 -323.61765 
L 97.716618 -316.013448 
L 101.2213 -307.003227 
L 104.725981 -297.013283 
L 108.230663 -286.555685 
L 111.735345 -276.199714 
L 115.240027 -266.539555 
L 118.744709 -258.160133 
L 122.249391 -251.603014 
L 125.754073 -247.334385 
L 129.258754 -245.71693 
L 132.763436 -246.987266 
L 136.268118 -251.240249 
L 139.7728 -258.421087 
L 143.277482 -268.325751 
L 146.782164 -280.609695 
L 150.286846 -294.80443 
L 153.791527 -310.341049 
L 157.296209 -326.579387 
L 160.800891 -342.841204 
L 164.305573 -358.445518 
L 167.810255 -372.744127 
L 171.314937 -385.155303 
L 174.819619 -395.1938 
L 178.3243 -402.495472 
L 181.828982 -406.835148 
L 185.333664 -408.136778 
L 188.838346 -406.475299 
L 192.343028 -402.070159 
L 195.84771 -395.270894 
L 199.352392 -386.535621 
L 202.857073 -376.403705 
L 206.361755 -365.464185 
L 209.866437 -354.321778 
L 213.371119 -343.562432 
L 216.875801 -333.720401 
L 220.380483 -325.248712 
L 223.885165 -318.494737 
L 227.389846 -313.682212 
L 230.894528 -310.900753 
L 234.39921 -310.103393 
L 237.903892 -311.112285 
L 241.408574 -313.632168 
L 244.913256 -317.270789 
L 248.417938 -321.565051 
L 251.922619 -326.011341 
L 255.427301 -330.098217 
L 258.931983 -333.33954 
L 262.436665 -335.306084 
L 265.941347 -335.653749 
L 269.446029 -334.1467 
L 272.950711 -330.674063 
L 276.455392 -325.33843 
L 279.960074 -318.228968 
L 283.464756 -309.629236 
L 286.969438 -299.936365 
L 290.47412 -289.639502 
L 293.978802 -279.292538 
L 297.483484 -269.482669 
L 300.988165 -260.796606 
L 304.492847 -253.78637 
L 307.997529 -248.936653 
L 311.502211 -246.635641 
L 315.006893 -247.150995 
L 318.511575 -250.612398 
L 322.016257 -257.001702 
L 325.520938 -266.151289 
L 329.02562 -277.75076 
L 332.530302 -291.361634 
L 336.034984 -306.439233 
L 339.539666 -322.360565 
L 343.044348 -338.456637 
L 346.54903 -354.047389 
L 350.053711 -368.477301 
L 353.558393 -381.149656 
L 357.063075 -391.557555 
L 360.567757 -399.309937 
L 364.072439 -404.15115 
L 367.577121 -405.972989 
L 371.081803 -404.818549 
L 374.586484 -400.877701 
L 378.091166 -394.474484 
L 381.595848 -386.047148 
L 385.10053 -376.122039 
L 388.605212 -365.282809 
L 392.109894 -354.136762 
L 395.614576 -343.280242 
L 399.119257 -333.265073 
L 402.623939 -324.567951 
L 406.128621 -317.564552 
L 409.633303 -312.509798 
L 413.137985 -309.52541 
L 416.642667 -308.595425 
L 420.147349 -309.569883 
L 423.65203 -312.176458 
L 427.156712 -316.039294 
L 430.661394 -320.70393 
L 434.166076 -325.666827 
L 437.670758 -330.407746 
L 441.17544 -334.423073 
L 444.680122 -337.258112 
L 448.184803 -338.536447 
L 451.689485 -337.984642 
L 455.194167 -335.450796 
L 458.698849 -330.915871 
L 462.203531 -324.497082 
L 465.708213 -316.443135 
L 469.212895 -307.121555 
L 472.717576 -296.99881 
L 476.222258 -286.614364 
L 479.72694 -276.550133 
L 483.231622 -267.397107 
L 486.736304 -259.63746 
L 490.240986 -253.872069 
L 493.745668 -250.522908 
L 497.250349 -249.897364 
L 500.755031 -252.16889 
L 504.259713 -257.365032 
L 507.764395 -265.363562 
L 511.269077 -275.896954 
L 514.773759 -288.565001 
L 518.278441 -302.854875 
L 521.783122 -318.167519 
L 525.287804 -333.848908 
L 528.792486 -349.224409 
L 532.297168 -363.634321 
L 535.80185 -376.468598 
L 539.306532 -387.198795 
L 542.811214 -395.405449 
L 546.315895 -400.799363 
L 549.820577 -403.235605 
L 553.325259 -402.719465 
L 556.829941 -399.404042 
L 560.334623 -393.579653 
L 563.839305 -385.655682 
L 567.343987 -376.135947 
L 570.848668 -365.589006 
L 574.35335 -354.615134 
L 577.858032 -343.811867 
L 581.362714 -333.740096 
L 584.867396 -324.892664 
L 588.372078 -317.667252 
L 591.876759 -312.345095 
L 595.381441 -309.076742 
L 598.886123 -307.875637 
L 602.390805 -308.619872 
L 605.895487 -311.061961 
L 609.400169 -314.846043 
L 612.904851 -319.531476 
L 616.409532 -324.621421 
L 619.914214 -329.594723 
L 623.418896 -333.939203 
L 626.923578 -337.18441 
L 630.42826 -338.931879 
L 633.932942 -338.881126 
L 637.437624 -336.849837 
L 640.942305 -332.787033 
L 644.446987 -326.778432 
L 647.951669 -319.043655 
L 651.456351 -309.925404 
L 654.961033 -299.871222 
L 658.465715 -289.408841 
L 661.970397 -279.116543 
L 665.475078 -269.590219 
L 668.97976 -261.409018 
L 672.484442 -255.101562 
L 675.989124 -251.114682 
L 679.493806 -249.786493 
L 682.998488 -251.325356 
L 686.50317 -255.795981 
L 690.007851 -263.113487 
L 690.007851 -263.113487 
L 690.007851 -263.113487 
L 686.50317 -255.795981 
L 682.998488 -251.325356 
L 679.493806 -249.786493 
L 675.989124 -251.114682 
L 672.484442 -255.101562 
L 668.97976 -261.409018 
L 665.475078 -269.590219 
L 661.970397 -279.116543 
L 658.465715 -289.408841 
L 654.961033 -299.871222 
L 651.456351 -309.925404 
L 647.951669 -319.043655 
L 644.446987 -326.778432 
L 640.942305 -332.787033 
L 637.437624 -336.849837 
L 633.932942 -338.881126 
L 630.42826 -338.931879 
L 626.923578 -337.18441 
L 623.418896 -333.939203 
L 619.914214 -329.594723 
L 616.409532 -324.621421 
L 612.904851 -319.531476 
L 609.400169 -314.846043 
L 605.895487 -311.061961 
L 602.390805 -308.619872 
L 598.886123 -307.875637 
L 595.381441 -309.076742 
L 591.876759 -312.345095 
L 588.372078 -317.667252 
L 584.867396 -324.892664 
L 581.362714 -333.740096 
L 577.858032 -343.811867 
L 574.35335 -354.615134 
L 570.848668 -365.589006 
L 567.343987 -376.135947 
L 563.839305 -385.655682 
L 560.334623 -393.579653 
L 556.829941 -399.404042 
L 553.325259 -402.719465 
L 549.820577 -403.235605 
L 546.315895 -400.799363 
L 542.811214 -395.405449 
L 539.306532 -387.198795 
L 535.80185 -376.468598 
L 532.297168 -363.634321 
L 528.792486 -349.224409 
L 525.287804 -333.848908 
L 521.783122 -318.167519 
L 518.278441 -302.854875 
L 514.773759 -288.565001 
L 511.269077 -275.896954 
L 507.764395 -265.363562 
L 504.259713 -257.365032 
L 500.755031 -252.16889 
L 497.250349 -249.897364 
L 493.745668 -250.522908 
L 490.240986 -253.872069 
L 486.736304 -259.63746 
L 483.231622 -267.397107 
L 479.72694 -276.550133 
L 476.222258 -286.614364 
L 472.717576 -296.99881 
L 469.212895 -307.121555 
L 465.708213 -316.443135 
L 462.203531 -324.497082 
L 458.698849 -330.915871 
L 455.194167 -335.450796 
L 451.689485 -337.984642 
L 448.184803 -338.536447 
L 444.680122 -337.258112 
L 441.17544 -334.423073 
L 437.670758 -330.407746 
L 434.166076 -325.666827 
L 430.661394 -320.70393 
L 427.156712 -316.039294 
L 423.65203 -312.176458 
L 420.147349 -309.569883 
L 416.642667 -308.595425 
L 413.137985 -309.52541 
L 409.633303 -312.509798 
L 406.128621 -317.564552 
L 402.623939 -324.567951 
L 399.119257 -333.265073 
L 395.614576 -343.280242 
L 392.109894 -354.136762 
L 388.605212 -365.282809 
L 385.10053 -376.122039 
L 381.595848 -386.047148 
L 378.091166 -394.474484 
L 374.586484 -400.877701 
L 371.081803 -404.818549 
L 367.577121 -405.972989 
L 364.072439 -404.15115 
L 360.567757 -399.309937 
L 357.063075 -391.557555 
L 353.558393 -381.149656 
L 350.053711 -368.477301 
L 346.54903 -354.047389 
L 343.044348 -338.456637 
L 339.539666 -322.360565 
L 336.034984 -306.439233 
L 332.530302 -291.361634 
L 329.02562 -277.75076 
L 325.520938 -266.151289 
L 322.016257 -257.001702 
L 318.511575 -250.612398 
L 315.006893 -247.150995 
L 311.502211 -246.635641 
L 307.997529 -248.936653 
L 304.492847 -253.78637 
L 300.988165 -260.796606 
L 297.483484 -269.482669 
L 293.978802 -279.292538 
L 290.47412 -289.639502 
L 286.969438 -299.936365 
L 283.464756 -309.629236 
L 279.960074 -318.228968 
L 276.455392 -325.33843 
L 272.950711 -330.674063 
L 269.446029 -334.1467 
L 265.941347 -335.653749 
L 262.436665 -335.306084 
L 258.931983 -333.33954 
L 255.427301 -330.098217 
L 251.922619 -326.011341 
L 248.417938 -321.565051 
L 244.913256 -317.270789 
L 241.408574 -313.632168 
L 237.903892 -311.112285 
L 234.39921 -310.103393 
L 230.894528 -310.900753 
L 227.389846 -313.682212 
L 223.885165 -318.494737 
L 220.380483 -325.248712 
L 216.875801 -333.720401 
L 213.371119 -343.562432 
L 209.866437 -354.321778 
L 206.361755 -365.464185 
L 202.857073 -376.403705 
L 199.352392 -386.535621 
L 195.84771 -395.270894 
L 192.343028 -402.070159 
L 188.838346 -406.475299 
L 185.333664 -408.136778 
L 181.828982 -406.835148 
L 178.3243 -402.495472 
L 174.819619 -395.1938 
L 171.314937 -385.155303 
L 167.810255 -372.744127 
L 164.305573 -358.445518 
L 160.800891 -342.841204 
L 157.296209 -326.579387 
L 153.791527 -310.341049 
L 150.286846 -294.80443 
L 146.782164 -280.609695 
L 143.277482 -268.325751 
L 139.7728 -258.421087 
L 136.268118 -251.240249 
L 132.763436 -246.987266 
L 129.258754 -245.71693 
L 125.754073 -247.334385 
L 122.249391 -251.603014 
L 118.744709 -258.160133 
L 115.240027 -266.539555 
L 111.735345 -276.199714 
L 108.230663 -286.555685 
L 104.725981 -297.013283 
L 101.2213 -307.003227 
L 97.716618 -316.013448 
L 94.211936 -323.61765 
L 90.707254 -329.498516 
L 87.202572 -333.464238 
L 83.69789 -335.457434 
L 80.193208 -335.555988 
L 76.688527 -333.965783 
L 73.183845 -331.005791 
L 69.679163 -327.08643 
L 66.174481 -322.682473 
z
" style="stroke: #348abd; stroke-opacity: 0.15; stroke-width: 0.5"/>
    </defs>
    <g clip-path="url(#p424591b5b9)">
     <use xlink:href="#mb60ddd2259" x="0" y="460.67976" style="fill: #348abd; fill-opacity: 0.15; stroke: #348abd; stroke-opacity: 0.15; stroke-width: 0.5"/>
    </g>
   </g>
   <g id="matplotlib.axis_1">
    <g id="xtick_1">
     <g id="line2d_1">
      <path d="M 111.234676 223.083823 
L 111.234676 44.42199 
" clip-path="url(#p424591b5b9)" style="fill: none; stroke-dasharray: 1.85,0.8; stroke-dashoffset: 0; stroke: #b2b2b2; stroke-width: 0.5"/>
     </g>
     <g id="line2d_2">
      <defs>
       <path id="m57d35c4b4a" d="M 0 0 
L 0 -3.5 
" style="stroke: #000000; stroke-width: 0.8"/>
      </defs>
      <g>
       <use xlink:href="#m57d35c4b4a" x="111.234676" y="223.083823" style="stroke: #000000; stroke-width: 0.8"/>
      </g>
     </g>
    </g>
    <g id="xtick_2">
     <g id="line2d_3">
      <path d="M 203.357742 223.083823 
L 203.357742 44.42199 
" clip-path="url(#p424591b5b9)" style="fill: none; stroke-dasharray: 1.85,0.8; stroke-dashoffset: 0; stroke: #b2b2b2; stroke-width: 0.5"/>
     </g>
     <g id="line2d_4">
      <g>
       <use xlink:href="#m57d35c4b4a" x="203.357742" y="223.083823" style="stroke: #000000; stroke-width: 0.8"/>
      </g>
     </g>
    </g>
    <g id="xtick_3">
     <g id="line2d_5">
      <path d="M 293.978802 223.083823 
L 293.978802 44.42199 
" clip-path="url(#p424591b5b9)" style="fill: none; stroke-dasharray: 1.85,0.8; stroke-dashoffset: 0; stroke: #b2b2b2; stroke-width: 0.5"/>
     </g>
     <g id="line2d_6">
      <g>
       <use xlink:href="#m57d35c4b4a" x="293.978802" y="223.083823" style="stroke: #000000; stroke-width: 0.8"/>
      </g>
     </g>
    </g>
    <g id="xtick_4">
     <g id="line2d_7">
      <path d="M 386.101868 223.083823 
L 386.101868 44.42199 
" clip-path="url(#p424591b5b9)" style="fill: none; stroke-dasharray: 1.85,0.8; stroke-dashoffset: 0; stroke: #b2b2b2; stroke-width: 0.5"/>
     </g>
     <g id="line2d_8">
      <g>
       <use xlink:href="#m57d35c4b4a" x="386.101868" y="223.083823" style="stroke: #000000; stroke-width: 0.8"/>
      </g>
     </g>
    </g>
    <g id="xtick_5">
     <g id="line2d_9">
      <path d="M 477.223596 223.083823 
L 477.223596 44.42199 
" clip-path="url(#p424591b5b9)" style="fill: none; stroke-dasharray: 1.85,0.8; stroke-dashoffset: 0; stroke: #b2b2b2; stroke-width: 0.5"/>
     </g>
     <g id="line2d_10">
      <g>
       <use xlink:href="#m57d35c4b4a" x="477.223596" y="223.083823" style="stroke: #000000; stroke-width: 0.8"/>
      </g>
     </g>
    </g>
    <g id="xtick_6">
     <g id="line2d_11">
      <path d="M 569.346662 223.083823 
L 569.346662 44.42199 
" clip-path="url(#p424591b5b9)" style="fill: none; stroke-dasharray: 1.85,0.8; stroke-dashoffset: 0; stroke: #b2b2b2; stroke-width: 0.5"/>
     </g>
     <g id="line2d_12">
      <g>
       <use xlink:href="#m57d35c4b4a" x="569.346662" y="223.083823" style="stroke: #000000; stroke-width: 0.8"/>
      </g>
     </g>
    </g>
    <g id="xtick_7">
     <g id="line2d_13">
      <path d="M 659.967721 223.083823 
L 659.967721 44.42199 
" clip-path="url(#p424591b5b9)" style="fill: none; stroke-dasharray: 1.85,0.8; stroke-dashoffset: 0; stroke: #b2b2b2; stroke-width: 0.5"/>
     </g>
     <g id="line2d_14">
      <g>
       <use xlink:href="#m57d35c4b4a" x="659.967721" y="223.083823" style="stroke: #000000; stroke-width: 0.8"/>
      </g>
     </g>
    </g>
   </g>
   <g id="matplotlib.axis_2">
    <g id="ytick_1">
     <g id="line2d_15">
      <path d="M 34.982813 205.099156 
L 721.19952 205.099156 
" clip-path="url(#p424591b5b9)" style="fill: none; stroke-dasharray: 1.85,0.8; stroke-dashoffset: 0; stroke: #b2b2b2; stroke-width: 0.5"/>
     </g>
     <g id="line2d_16">
      <defs>
       <path id="m29c252d58a" d="M 0 0 
L 3.5 0 
" style="stroke: #000000; stroke-width: 0.8"/>
      </defs>
      <g>
       <use xlink:href="#m29c252d58a" x="34.982813" y="205.099156" style="stroke: #000000; stroke-width: 0.8"/>
      </g>
     </g>
     <g id="text_1">
      <!-- −0.4 -->
      <g transform="translate(7.2 208.898375)scale(0.1 -0.1)">
       <defs>
        <path id="DejaVuSans-2212" d="M 678 2272 
L 4684 2272 
L 4684 1741 
L 678 1741 
L 678 2272 
z
" transform="scale(0.015625)"/>
        <path id="DejaVuSans-30" d="M 2034 4250 
Q 1547 4250 1301 3770 
Q 1056 3291 1056 2328 
Q 1056 1369 1301 889 
Q 1547 409 2034 409 
Q 2525 409 2770 889 
Q 3016 1369 3016 2328 
Q 3016 3291 2770 3770 
Q 2525 4250 2034 4250 
z
M 2034 4750 
Q 2819 4750 3233 4129 
Q 3647 3509 3647 2328 
Q 3647 1150 3233 529 
Q 2819 -91 2034 -91 
Q 1250 -91 836 529 
Q 422 1150 422 2328 
Q 422 3509 836 4129 
Q 1250 4750 2034 4750 
z
" transform="scale(0.015625)"/>
        <path id="DejaVuSans-2e" d="M 684 794 
L 1344 794 
L 1344 0 
L 684 0 
L 684 794 
z
" transform="scale(0.015625)"/>
        <path id="DejaVuSans-34" d="M 2419 4116 
L 825 1625 
L 2419 1625 
L 2419 4116 
z
M 2253 4666 
L 3047 4666 
L 3047 1625 
L 3713 1625 
L 3713 1100 
L 3047 1100 
L 3047 0 
L 2419 0 
L 2419 1100 
L 313 1100 
L 313 1709 
L 2253 4666 
z
" transform="scale(0.015625)"/>
       </defs>
       <use xlink:href="#DejaVuSans-2212"/>
       <use xlink:href="#DejaVuSans-30" x="83.789062"/>
       <use xlink:href="#DejaVuSans-2e" x="147.412109"/>
       <use xlink:href="#DejaVuSans-34" x="179.199219"/>
      </g>
     </g>
    </g>
    <g id="ytick_2">
     <g id="line2d_17">
      <path d="M 34.982813 170.230382 
L 721.19952 170.230382 
" clip-path="url(#p424591b5b9)" style="fill: none; stroke-dasharray: 1.85,0.8; stroke-dashoffset: 0; stroke: #b2b2b2; stroke-width: 0.5"/>
     </g>
     <g id="line2d_18">
      <g>
       <use xlink:href="#m29c252d58a" x="34.982813" y="170.230382" style="stroke: #000000; stroke-width: 0.8"/>
      </g>
     </g>
     <g id="text_2">
      <!-- −0.2 -->
      <g transform="translate(7.2 174.029601)scale(0.1 -0.1)">
       <defs>
        <path id="DejaVuSans-32" d="M 1228 531 
L 3431 531 
L 3431 0 
L 469 0 
L 469 531 
Q 828 903 1448 1529 
Q 2069 2156 2228 2338 
Q 2531 2678 2651 2914 
Q 2772 3150 2772 3378 
Q 2772 3750 2511 3984 
Q 2250 4219 1831 4219 
Q 1534 4219 1204 4116 
Q 875 4013 500 3803 
L 500 4441 
Q 881 4594 1212 4672 
Q 1544 4750 1819 4750 
Q 2544 4750 2975 4387 
Q 3406 4025 3406 3419 
Q 3406 3131 3298 2873 
Q 3191 2616 2906 2266 
Q 2828 2175 2409 1742 
Q 1991 1309 1228 531 
z
" transform="scale(0.015625)"/>
       </defs>
       <use xlink:href="#DejaVuSans-2212"/>
       <use xlink:href="#DejaVuSans-30" x="83.789062"/>
       <use xlink:href="#DejaVuSans-2e" x="147.412109"/>
       <use xlink:href="#DejaVuSans-32" x="179.199219"/>
      </g>
     </g>
    </g>
    <g id="ytick_3">
     <g id="line2d_19">
      <path d="M 34.982813 135.361609 
L 721.19952 135.361609 
" clip-path="url(#p424591b5b9)" style="fill: none; stroke-dasharray: 1.85,0.8; stroke-dashoffset: 0; stroke: #b2b2b2; stroke-width: 0.5"/>
     </g>
     <g id="line2d_20">
      <g>
       <use xlink:href="#m29c252d58a" x="34.982813" y="135.361609" style="stroke: #000000; stroke-width: 0.8"/>
      </g>
     </g>
     <g id="text_3">
      <!-- 0.0 -->
      <g transform="translate(15.579688 139.160827)scale(0.1 -0.1)">
       <use xlink:href="#DejaVuSans-30"/>
       <use xlink:href="#DejaVuSans-2e" x="63.623047"/>
       <use xlink:href="#DejaVuSans-30" x="95.410156"/>
      </g>
     </g>
    </g>
    <g id="ytick_4">
     <g id="line2d_21">
      <path d="M 34.982813 100.492835 
L 721.19952 100.492835 
" clip-path="url(#p424591b5b9)" style="fill: none; stroke-dasharray: 1.85,0.8; stroke-dashoffset: 0; stroke: #b2b2b2; stroke-width: 0.5"/>
     </g>
     <g id="line2d_22">
      <g>
       <use xlink:href="#m29c252d58a" x="34.982813" y="100.492835" style="stroke: #000000; stroke-width: 0.8"/>
      </g>
     </g>
     <g id="text_4">
      <!-- 0.2 -->
      <g transform="translate(15.579688 104.292053)scale(0.1 -0.1)">
       <use xlink:href="#DejaVuSans-30"/>
       <use xlink:href="#DejaVuSans-2e" x="63.623047"/>
       <use xlink:href="#DejaVuSans-32" x="95.410156"/>
      </g>
     </g>
    </g>
    <g id="ytick_5">
     <g id="line2d_23">
      <path d="M 34.982813 65.624061 
L 721.19952 65.624061 
" clip-path="url(#p424591b5b9)" style="fill: none; stroke-dasharray: 1.85,0.8; stroke-dashoffset: 0; stroke: #b2b2b2; stroke-width: 0.5"/>
     </g>
     <g id="line2d_24">
      <g>
       <use xlink:href="#m29c252d58a" x="34.982813" y="65.624061" style="stroke: #000000; stroke-width: 0.8"/>
      </g>
     </g>
     <g id="text_5">
      <!-- 0.4 -->
      <g transform="translate(15.579688 69.42328)scale(0.1 -0.1)">
       <use xlink:href="#DejaVuSans-30"/>
       <use xlink:href="#DejaVuSans-2e" x="63.623047"/>
       <use xlink:href="#DejaVuSans-34" x="95.410156"/>
      </g>
     </g>
    </g>
   </g>
   <g id="line2d_25">
    <path d="M 66.174481 134.893377 
L 69.679163 129.762501 
L 73.183845 125.200361 
L 76.688527 121.69214 
L 80.193208 119.655499 
L 83.69789 119.413387 
L 87.202572 121.172451 
L 90.707254 125.008337 
L 94.211936 130.85877 
L 97.716618 138.524847 
L 101.2213 147.680501 
L 104.725981 157.889619 
L 111.735345 179.321804 
L 115.240027 189.361777 
L 118.744709 198.156469 
L 122.249391 205.15734 
L 125.754073 209.892846 
L 129.258754 211.996601 
L 132.763436 211.229845 
L 136.268118 207.496911 
L 139.7728 200.85276 
L 143.277482 191.502128 
L 146.782164 179.790306 
L 150.286846 166.186037 
L 153.791527 151.25748 
L 160.800891 120.015537 
L 164.305573 105.051166 
L 167.810255 91.389311 
L 171.314937 79.601161 
L 174.819619 70.159463 
L 178.3243 63.414254 
L 181.828982 59.575499 
L 185.333664 58.703572 
L 188.838346 60.708105 
L 192.343028 65.355228 
L 195.84771 72.282764 
L 199.352392 81.022469 
L 202.857073 91.028017 
L 206.361755 102.479661 
L 209.866437 113.210664 
L 213.371119 123.39072 
L 216.875801 132.500092 
L 220.380483 140.106225 
L 223.885165 145.887341 
L 227.389846 149.649301 
L 230.894528 151.334783 
L 234.39921 151.024279 
L 237.903892 148.928888 
L 241.408574 145.375348 
L 244.913256 140.78423 
L 251.922619 130.472585 
L 255.427301 125.798292 
L 258.931983 122.112048 
L 262.436665 119.842937 
L 265.941347 119.328906 
L 269.446029 120.794289 
L 272.950711 124.334057 
L 276.455392 129.905754 
L 279.960074 137.329603 
L 283.464756 146.296823 
L 286.969438 156.38571 
L 293.978802 177.820171 
L 297.483484 187.990227 
L 300.988165 196.997807 
L 304.492847 204.285932 
L 307.997529 209.37022 
L 311.502211 211.867736 
L 315.006893 211.520367 
L 318.511575 208.211352 
L 322.016257 201.973985 
L 325.520938 192.991981 
L 329.02562 181.591422 
L 332.530302 168.224738 
L 336.034984 153.447586 
L 346.54903 107.123517 
L 350.053711 93.238671 
L 353.558393 81.151318 
L 357.063075 71.349897 
L 360.567757 64.203212 
L 364.072439 59.942012 
L 367.577121 58.64831 
L 371.081803 60.253021 
L 374.586484 64.542023 
L 378.091166 71.17026 
L 381.595848 79.683043 
L 385.10053 89.543313 
L 388.605212 100.934907 
L 392.109894 111.6984 
L 395.614576 121.990676 
L 399.119257 131.281803 
L 402.623939 139.125186 
L 406.128621 145.182018 
L 409.633303 149.239179 
L 413.137985 151.219546 
L 416.642667 151.184177 
L 420.147349 149.326256 
L 423.65203 145.957188 
L 427.156712 141.485703 
L 434.166076 131.192838 
L 437.670758 126.416494 
L 441.17544 122.561031 
L 444.680122 120.066385 
L 448.184803 119.285039 
L 451.689485 120.458692 
L 455.194167 123.701476 
L 458.698849 128.990754 
L 462.203531 136.166045 
L 465.708213 144.936188 
L 469.212895 154.894352 
L 479.72694 186.594886 
L 483.231622 195.803934 
L 486.736304 203.369378 
L 490.240986 208.794592 
L 493.745668 211.680575 
L 497.250349 211.750196 
L 500.755031 208.865777 
L 504.259713 203.038959 
L 507.764395 194.432264 
L 511.269077 183.35224 
L 514.773759 170.23453 
L 518.278441 155.621694 
L 528.792486 109.220762 
L 532.297168 95.124874 
L 535.80185 82.748328 
L 539.306532 72.594741 
L 542.811214 65.051308 
L 546.315895 60.36934 
L 549.820577 58.652442 
L 553.325259 59.852937 
L 556.829941 63.776741 
L 560.334623 70.096354 
L 563.839305 78.371202 
L 570.848668 97.853939 
L 577.858032 119.130334 
L 581.362714 128.757228 
L 584.867396 137.053934 
L 588.372078 143.648714 
L 591.876759 148.291138 
L 595.381441 150.864644 
L 598.886123 151.39107 
L 602.390805 150.026935 
L 605.895487 147.051717 
L 609.400169 142.848832 
L 612.904851 137.880476 
L 616.409532 132.657794 
L 619.914214 127.708173 
L 623.418896 123.54156 
L 626.923578 120.617829 
L 630.42826 119.317086 
L 633.932942 119.914702 
L 637.437624 122.562544 
L 640.942305 127.277521 
L 644.446987 133.938163 
L 647.951669 142.289446 
L 651.456351 151.955626 
L 661.970397 183.739704 
L 665.475078 193.316798 
L 668.97976 201.406089 
L 672.484442 207.488287 
L 675.989124 211.133764 
L 679.493806 212.028461 
L 682.998488 209.993498 
L 686.50317 204.997323 
L 690.007851 197.159683 
L 690.007851 197.159683 
" clip-path="url(#p424591b5b9)" style="fill: none; stroke: #d55e00; stroke-width: 2; stroke-linecap: square"/>
   </g>
   <g id="line2d_26">
    <path d="M 66.174481 137.997287 
L 69.679163 133.59333 
L 73.183845 129.673969 
L 76.688527 126.713977 
L 80.193208 125.123772 
L 83.69789 125.222326 
L 87.202572 127.215522 
L 90.707254 131.181244 
L 94.211936 137.06211 
L 97.716618 144.666312 
L 101.2213 153.676533 
L 104.725981 163.666477 
L 111.735345 184.480046 
L 115.240027 194.140205 
L 118.744709 202.519627 
L 122.249391 209.076746 
L 125.754073 213.345375 
L 129.258754 214.96283 
L 132.763436 213.692494 
L 136.268118 209.439511 
L 139.7728 202.258673 
L 143.277482 192.354009 
L 146.782164 180.070065 
L 150.286846 165.87533 
L 153.791527 150.338711 
L 160.800891 117.838556 
L 164.305573 102.234242 
L 167.810255 87.935633 
L 171.314937 75.524457 
L 174.819619 65.48596 
L 178.3243 58.184288 
L 181.828982 53.844612 
L 185.333664 52.542982 
L 188.838346 54.204461 
L 192.343028 58.609601 
L 195.84771 65.408866 
L 199.352392 74.144139 
L 202.857073 84.276055 
L 213.371119 117.117328 
L 216.875801 126.959359 
L 220.380483 135.431048 
L 223.885165 142.185023 
L 227.389846 146.997548 
L 230.894528 149.779007 
L 234.39921 150.576367 
L 237.903892 149.567475 
L 241.408574 147.047592 
L 244.913256 143.408971 
L 255.427301 130.581543 
L 258.931983 127.34022 
L 262.436665 125.373676 
L 265.941347 125.026011 
L 269.446029 126.53306 
L 272.950711 130.005697 
L 276.455392 135.34133 
L 279.960074 142.450792 
L 283.464756 151.050524 
L 286.969438 160.743395 
L 293.978802 181.387222 
L 297.483484 191.197091 
L 300.988165 199.883154 
L 304.492847 206.89339 
L 307.997529 211.743107 
L 311.502211 214.044119 
L 315.006893 213.528765 
L 318.511575 210.067362 
L 322.016257 203.678058 
L 325.520938 194.528471 
L 329.02562 182.929 
L 332.530302 169.318126 
L 336.034984 154.240527 
L 346.54903 106.632371 
L 350.053711 92.202459 
L 353.558393 79.530104 
L 357.063075 69.122205 
L 360.567757 61.369823 
L 364.072439 56.52861 
L 367.577121 54.706771 
L 371.081803 55.861211 
L 374.586484 59.802059 
L 378.091166 66.205276 
L 381.595848 74.632612 
L 385.10053 84.557721 
L 395.614576 117.399518 
L 399.119257 127.414687 
L 402.623939 136.111809 
L 406.128621 143.115208 
L 409.633303 148.169962 
L 413.137985 151.15435 
L 416.642667 152.084335 
L 420.147349 151.109877 
L 423.65203 148.503302 
L 427.156712 144.640466 
L 430.661394 139.97583 
L 434.166076 135.012933 
L 437.670758 130.272014 
L 441.17544 126.256687 
L 444.680122 123.421648 
L 448.184803 122.143313 
L 451.689485 122.695118 
L 455.194167 125.228964 
L 458.698849 129.763889 
L 462.203531 136.182678 
L 465.708213 144.236625 
L 469.212895 153.558205 
L 479.72694 184.129627 
L 483.231622 193.282653 
L 486.736304 201.0423 
L 490.240986 206.807691 
L 493.745668 210.156852 
L 497.250349 210.782396 
L 500.755031 208.51087 
L 504.259713 203.314728 
L 507.764395 195.316198 
L 511.269077 184.782806 
L 514.773759 172.114759 
L 518.278441 157.824885 
L 532.297168 97.045439 
L 535.80185 84.211162 
L 539.306532 73.480965 
L 542.811214 65.274311 
L 546.315895 59.880397 
L 549.820577 57.444155 
L 553.325259 57.960295 
L 556.829941 61.275718 
L 560.334623 67.100107 
L 563.839305 75.024078 
L 567.343987 84.543813 
L 570.848668 95.090754 
L 577.858032 116.867893 
L 581.362714 126.939664 
L 584.867396 135.787096 
L 588.372078 143.012508 
L 591.876759 148.334665 
L 595.381441 151.603018 
L 598.886123 152.804123 
L 602.390805 152.059888 
L 605.895487 149.617799 
L 609.400169 145.833717 
L 612.904851 141.148284 
L 619.914214 131.085037 
L 623.418896 126.740557 
L 626.923578 123.49535 
L 630.42826 121.747881 
L 633.932942 121.798634 
L 637.437624 123.829923 
L 640.942305 127.892727 
L 644.446987 133.901328 
L 647.951669 141.636105 
L 651.456351 150.754356 
L 654.961033 160.808538 
L 661.970397 181.563217 
L 665.475078 191.089541 
L 668.97976 199.270742 
L 672.484442 205.578198 
L 675.989124 209.565078 
L 679.493806 210.893267 
L 682.998488 209.354404 
L 686.50317 204.883779 
L 690.007851 197.566273 
L 690.007851 197.566273 
" clip-path="url(#p424591b5b9)" style="fill: none; stroke: #348abd; stroke-opacity: 0.8; stroke-width: 2; stroke-linecap: square"/>
   </g>
   <g id="patch_3">
    <path d="M 34.982813 223.083822 
L 34.982813 44.42199 
" style="fill: none; stroke: #bcbcbc; stroke-width: 0.8; stroke-linejoin: miter; stroke-linecap: square"/>
   </g>
   <g id="patch_4">
    <path d="M 721.19952 223.083822 
L 721.19952 44.42199 
" style="fill: none; stroke: #bcbcbc; stroke-width: 0.8; stroke-linejoin: miter; stroke-linecap: square"/>
   </g>
   <g id="patch_5">
    <path d="M 34.982812 223.083823 
L 721.19952 223.083823 
" style="fill: none; stroke: #bcbcbc; stroke-width: 0.8; stroke-linejoin: miter; stroke-linecap: square"/>
   </g>
   <g id="patch_6">
    <path d="M 34.982812 44.42199 
L 721.19952 44.42199 
" style="fill: none; stroke: #bcbcbc; stroke-width: 0.8; stroke-linejoin: miter; stroke-linecap: square"/>
   </g>
   <g id="text_6">
    <!-- Seasonality Fit -->
    <g transform="translate(325.731416 38.42199)scale(0.144 -0.144)">
     <defs>
      <path id="DejaVuSans-53" d="M 3425 4513 
L 3425 3897 
Q 3066 4069 2747 4153 
Q 2428 4238 2131 4238 
Q 1616 4238 1336 4038 
Q 1056 3838 1056 3469 
Q 1056 3159 1242 3001 
Q 1428 2844 1947 2747 
L 2328 2669 
Q 3034 2534 3370 2195 
Q 3706 1856 3706 1288 
Q 3706 609 3251 259 
Q 2797 -91 1919 -91 
Q 1588 -91 1214 -16 
Q 841 59 441 206 
L 441 856 
Q 825 641 1194 531 
Q 1563 422 1919 422 
Q 2459 422 2753 634 
Q 3047 847 3047 1241 
Q 3047 1584 2836 1778 
Q 2625 1972 2144 2069 
L 1759 2144 
Q 1053 2284 737 2584 
Q 422 2884 422 3419 
Q 422 4038 858 4394 
Q 1294 4750 2059 4750 
Q 2388 4750 2728 4690 
Q 3069 4631 3425 4513 
z
" transform="scale(0.015625)"/>
      <path id="DejaVuSans-65" d="M 3597 1894 
L 3597 1613 
L 953 1613 
Q 991 1019 1311 708 
Q 1631 397 2203 397 
Q 2534 397 2845 478 
Q 3156 559 3463 722 
L 3463 178 
Q 3153 47 2828 -22 
Q 2503 -91 2169 -91 
Q 1331 -91 842 396 
Q 353 884 353 1716 
Q 353 2575 817 3079 
Q 1281 3584 2069 3584 
Q 2775 3584 3186 3129 
Q 3597 2675 3597 1894 
z
M 3022 2063 
Q 3016 2534 2758 2815 
Q 2500 3097 2075 3097 
Q 1594 3097 1305 2825 
Q 1016 2553 972 2059 
L 3022 2063 
z
" transform="scale(0.015625)"/>
      <path id="DejaVuSans-61" d="M 2194 1759 
Q 1497 1759 1228 1600 
Q 959 1441 959 1056 
Q 959 750 1161 570 
Q 1363 391 1709 391 
Q 2188 391 2477 730 
Q 2766 1069 2766 1631 
L 2766 1759 
L 2194 1759 
z
M 3341 1997 
L 3341 0 
L 2766 0 
L 2766 531 
Q 2569 213 2275 61 
Q 1981 -91 1556 -91 
Q 1019 -91 701 211 
Q 384 513 384 1019 
Q 384 1609 779 1909 
Q 1175 2209 1959 2209 
L 2766 2209 
L 2766 2266 
Q 2766 2663 2505 2880 
Q 2244 3097 1772 3097 
Q 1472 3097 1187 3025 
Q 903 2953 641 2809 
L 641 3341 
Q 956 3463 1253 3523 
Q 1550 3584 1831 3584 
Q 2591 3584 2966 3190 
Q 3341 2797 3341 1997 
z
" transform="scale(0.015625)"/>
      <path id="DejaVuSans-73" d="M 2834 3397 
L 2834 2853 
Q 2591 2978 2328 3040 
Q 2066 3103 1784 3103 
Q 1356 3103 1142 2972 
Q 928 2841 928 2578 
Q 928 2378 1081 2264 
Q 1234 2150 1697 2047 
L 1894 2003 
Q 2506 1872 2764 1633 
Q 3022 1394 3022 966 
Q 3022 478 2636 193 
Q 2250 -91 1575 -91 
Q 1294 -91 989 -36 
Q 684 19 347 128 
L 347 722 
Q 666 556 975 473 
Q 1284 391 1588 391 
Q 1994 391 2212 530 
Q 2431 669 2431 922 
Q 2431 1156 2273 1281 
Q 2116 1406 1581 1522 
L 1381 1569 
Q 847 1681 609 1914 
Q 372 2147 372 2553 
Q 372 3047 722 3315 
Q 1072 3584 1716 3584 
Q 2034 3584 2315 3537 
Q 2597 3491 2834 3397 
z
" transform="scale(0.015625)"/>
      <path id="DejaVuSans-6f" d="M 1959 3097 
Q 1497 3097 1228 2736 
Q 959 2375 959 1747 
Q 959 1119 1226 758 
Q 1494 397 1959 397 
Q 2419 397 2687 759 
Q 2956 1122 2956 1747 
Q 2956 2369 2687 2733 
Q 2419 3097 1959 3097 
z
M 1959 3584 
Q 2709 3584 3137 3096 
Q 3566 2609 3566 1747 
Q 3566 888 3137 398 
Q 2709 -91 1959 -91 
Q 1206 -91 779 398 
Q 353 888 353 1747 
Q 353 2609 779 3096 
Q 1206 3584 1959 3584 
z
" transform="scale(0.015625)"/>
      <path id="DejaVuSans-6e" d="M 3513 2113 
L 3513 0 
L 2938 0 
L 2938 2094 
Q 2938 2591 2744 2837 
Q 2550 3084 2163 3084 
Q 1697 3084 1428 2787 
Q 1159 2491 1159 1978 
L 1159 0 
L 581 0 
L 581 3500 
L 1159 3500 
L 1159 2956 
Q 1366 3272 1645 3428 
Q 1925 3584 2291 3584 
Q 2894 3584 3203 3211 
Q 3513 2838 3513 2113 
z
" transform="scale(0.015625)"/>
      <path id="DejaVuSans-6c" d="M 603 4863 
L 1178 4863 
L 1178 0 
L 603 0 
L 603 4863 
z
" transform="scale(0.015625)"/>
      <path id="DejaVuSans-69" d="M 603 3500 
L 1178 3500 
L 1178 0 
L 603 0 
L 603 3500 
z
M 603 4863 
L 1178 4863 
L 1178 4134 
L 603 4134 
L 603 4863 
z
" transform="scale(0.015625)"/>
      <path id="DejaVuSans-74" d="M 1172 4494 
L 1172 3500 
L 2356 3500 
L 2356 3053 
L 1172 3053 
L 1172 1153 
Q 1172 725 1289 603 
Q 1406 481 1766 481 
L 2356 481 
L 2356 0 
L 1766 0 
Q 1100 0 847 248 
Q 594 497 594 1153 
L 594 3053 
L 172 3053 
L 172 3500 
L 594 3500 
L 594 4494 
L 1172 4494 
z
" transform="scale(0.015625)"/>
      <path id="DejaVuSans-79" d="M 2059 -325 
Q 1816 -950 1584 -1140 
Q 1353 -1331 966 -1331 
L 506 -1331 
L 506 -850 
L 844 -850 
Q 1081 -850 1212 -737 
Q 1344 -625 1503 -206 
L 1606 56 
L 191 3500 
L 800 3500 
L 1894 763 
L 2988 3500 
L 3597 3500 
L 2059 -325 
z
" transform="scale(0.015625)"/>
      <path id="DejaVuSans-20" transform="scale(0.015625)"/>
      <path id="DejaVuSans-46" d="M 628 4666 
L 3309 4666 
L 3309 4134 
L 1259 4134 
L 1259 2759 
L 3109 2759 
L 3109 2228 
L 1259 2228 
L 1259 0 
L 628 0 
L 628 4666 
z
" transform="scale(0.015625)"/>
     </defs>
     <use xlink:href="#DejaVuSans-53"/>
     <use xlink:href="#DejaVuSans-65" x="63.476562"/>
     <use xlink:href="#DejaVuSans-61" x="125"/>
     <use xlink:href="#DejaVuSans-73" x="186.279297"/>
     <use xlink:href="#DejaVuSans-6f" x="238.378906"/>
     <use xlink:href="#DejaVuSans-6e" x="299.560547"/>
     <use xlink:href="#DejaVuSans-61" x="362.939453"/>
     <use xlink:href="#DejaVuSans-6c" x="424.21875"/>
     <use xlink:href="#DejaVuSans-69" x="452.001953"/>
     <use xlink:href="#DejaVuSans-74" x="479.785156"/>
     <use xlink:href="#DejaVuSans-79" x="518.994141"/>
     <use xlink:href="#DejaVuSans-20" x="578.173828"/>
     <use xlink:href="#DejaVuSans-46" x="609.960938"/>
     <use xlink:href="#DejaVuSans-69" x="660.230469"/>
     <use xlink:href="#DejaVuSans-74" x="688.013672"/>
    </g>
   </g>
   <g id="legend_1">
    <g id="patch_7">
     <path d="M 41.982813 96.456365 
L 198.660938 96.456365 
Q 200.660938 96.456365 200.660938 94.456365 
L 200.660938 51.42199 
Q 200.660938 49.42199 198.660938 49.42199 
L 41.982813 49.42199 
Q 39.982813 49.42199 39.982813 51.42199 
L 39.982813 94.456365 
Q 39.982813 96.456365 41.982813 96.456365 
z
" style="fill: #eeeeee; opacity: 0.8; stroke: #cccccc; stroke-width: 0.5; stroke-linejoin: miter"/>
    </g>
    <g id="line2d_27">
     <path d="M 43.982813 57.520427 
L 53.982813 57.520427 
L 63.982813 57.520427 
" style="fill: none; stroke: #d55e00; stroke-width: 2; stroke-linecap: square"/>
    </g>
    <g id="text_7">
     <!-- s -->
     <g transform="translate(71.982812 61.020427)scale(0.1 -0.1)">
      <use xlink:href="#DejaVuSans-73"/>
     </g>
    </g>
    <g id="patch_8">
     <path d="M 43.982813 75.698552 
L 63.982813 75.698552 
L 63.982813 68.698552 
L 43.982813 68.698552 
z
" style="fill: #348abd; fill-opacity: 0.15; stroke: #348abd; stroke-opacity: 0.15; stroke-width: 0.5; stroke-linejoin: miter"/>
    </g>
    <g id="text_8">
     <!-- prediction interval (95%) -->
     <g transform="translate(71.982812 75.698552)scale(0.1 -0.1)">
      <defs>
       <path id="DejaVuSans-70" d="M 1159 525 
L 1159 -1331 
L 581 -1331 
L 581 3500 
L 1159 3500 
L 1159 2969 
Q 1341 3281 1617 3432 
Q 1894 3584 2278 3584 
Q 2916 3584 3314 3078 
Q 3713 2572 3713 1747 
Q 3713 922 3314 415 
Q 2916 -91 2278 -91 
Q 1894 -91 1617 61 
Q 1341 213 1159 525 
z
M 3116 1747 
Q 3116 2381 2855 2742 
Q 2594 3103 2138 3103 
Q 1681 3103 1420 2742 
Q 1159 2381 1159 1747 
Q 1159 1113 1420 752 
Q 1681 391 2138 391 
Q 2594 391 2855 752 
Q 3116 1113 3116 1747 
z
" transform="scale(0.015625)"/>
       <path id="DejaVuSans-72" d="M 2631 2963 
Q 2534 3019 2420 3045 
Q 2306 3072 2169 3072 
Q 1681 3072 1420 2755 
Q 1159 2438 1159 1844 
L 1159 0 
L 581 0 
L 581 3500 
L 1159 3500 
L 1159 2956 
Q 1341 3275 1631 3429 
Q 1922 3584 2338 3584 
Q 2397 3584 2469 3576 
Q 2541 3569 2628 3553 
L 2631 2963 
z
" transform="scale(0.015625)"/>
       <path id="DejaVuSans-64" d="M 2906 2969 
L 2906 4863 
L 3481 4863 
L 3481 0 
L 2906 0 
L 2906 525 
Q 2725 213 2448 61 
Q 2172 -91 1784 -91 
Q 1150 -91 751 415 
Q 353 922 353 1747 
Q 353 2572 751 3078 
Q 1150 3584 1784 3584 
Q 2172 3584 2448 3432 
Q 2725 3281 2906 2969 
z
M 947 1747 
Q 947 1113 1208 752 
Q 1469 391 1925 391 
Q 2381 391 2643 752 
Q 2906 1113 2906 1747 
Q 2906 2381 2643 2742 
Q 2381 3103 1925 3103 
Q 1469 3103 1208 2742 
Q 947 2381 947 1747 
z
" transform="scale(0.015625)"/>
       <path id="DejaVuSans-63" d="M 3122 3366 
L 3122 2828 
Q 2878 2963 2633 3030 
Q 2388 3097 2138 3097 
Q 1578 3097 1268 2742 
Q 959 2388 959 1747 
Q 959 1106 1268 751 
Q 1578 397 2138 397 
Q 2388 397 2633 464 
Q 2878 531 3122 666 
L 3122 134 
Q 2881 22 2623 -34 
Q 2366 -91 2075 -91 
Q 1284 -91 818 406 
Q 353 903 353 1747 
Q 353 2603 823 3093 
Q 1294 3584 2113 3584 
Q 2378 3584 2631 3529 
Q 2884 3475 3122 3366 
z
" transform="scale(0.015625)"/>
       <path id="DejaVuSans-76" d="M 191 3500 
L 800 3500 
L 1894 563 
L 2988 3500 
L 3597 3500 
L 2284 0 
L 1503 0 
L 191 3500 
z
" transform="scale(0.015625)"/>
       <path id="DejaVuSans-28" d="M 1984 4856 
Q 1566 4138 1362 3434 
Q 1159 2731 1159 2009 
Q 1159 1288 1364 580 
Q 1569 -128 1984 -844 
L 1484 -844 
Q 1016 -109 783 600 
Q 550 1309 550 2009 
Q 550 2706 781 3412 
Q 1013 4119 1484 4856 
L 1984 4856 
z
" transform="scale(0.015625)"/>
       <path id="DejaVuSans-39" d="M 703 97 
L 703 672 
Q 941 559 1184 500 
Q 1428 441 1663 441 
Q 2288 441 2617 861 
Q 2947 1281 2994 2138 
Q 2813 1869 2534 1725 
Q 2256 1581 1919 1581 
Q 1219 1581 811 2004 
Q 403 2428 403 3163 
Q 403 3881 828 4315 
Q 1253 4750 1959 4750 
Q 2769 4750 3195 4129 
Q 3622 3509 3622 2328 
Q 3622 1225 3098 567 
Q 2575 -91 1691 -91 
Q 1453 -91 1209 -44 
Q 966 3 703 97 
z
M 1959 2075 
Q 2384 2075 2632 2365 
Q 2881 2656 2881 3163 
Q 2881 3666 2632 3958 
Q 2384 4250 1959 4250 
Q 1534 4250 1286 3958 
Q 1038 3666 1038 3163 
Q 1038 2656 1286 2365 
Q 1534 2075 1959 2075 
z
" transform="scale(0.015625)"/>
       <path id="DejaVuSans-35" d="M 691 4666 
L 3169 4666 
L 3169 4134 
L 1269 4134 
L 1269 2991 
Q 1406 3038 1543 3061 
Q 1681 3084 1819 3084 
Q 2600 3084 3056 2656 
Q 3513 2228 3513 1497 
Q 3513 744 3044 326 
Q 2575 -91 1722 -91 
Q 1428 -91 1123 -41 
Q 819 9 494 109 
L 494 744 
Q 775 591 1075 516 
Q 1375 441 1709 441 
Q 2250 441 2565 725 
Q 2881 1009 2881 1497 
Q 2881 1984 2565 2268 
Q 2250 2553 1709 2553 
Q 1456 2553 1204 2497 
Q 953 2441 691 2322 
L 691 4666 
z
" transform="scale(0.015625)"/>
       <path id="DejaVuSans-25" d="M 4653 2053 
Q 4381 2053 4226 1822 
Q 4072 1591 4072 1178 
Q 4072 772 4226 539 
Q 4381 306 4653 306 
Q 4919 306 5073 539 
Q 5228 772 5228 1178 
Q 5228 1588 5073 1820 
Q 4919 2053 4653 2053 
z
M 4653 2450 
Q 5147 2450 5437 2106 
Q 5728 1763 5728 1178 
Q 5728 594 5436 251 
Q 5144 -91 4653 -91 
Q 4153 -91 3862 251 
Q 3572 594 3572 1178 
Q 3572 1766 3864 2108 
Q 4156 2450 4653 2450 
z
M 1428 4353 
Q 1159 4353 1004 4120 
Q 850 3888 850 3481 
Q 850 3069 1003 2837 
Q 1156 2606 1428 2606 
Q 1700 2606 1854 2837 
Q 2009 3069 2009 3481 
Q 2009 3884 1853 4118 
Q 1697 4353 1428 4353 
z
M 4250 4750 
L 4750 4750 
L 1831 -91 
L 1331 -91 
L 4250 4750 
z
M 1428 4750 
Q 1922 4750 2215 4408 
Q 2509 4066 2509 3481 
Q 2509 2891 2217 2550 
Q 1925 2209 1428 2209 
Q 931 2209 642 2551 
Q 353 2894 353 3481 
Q 353 4063 643 4406 
Q 934 4750 1428 4750 
z
" transform="scale(0.015625)"/>
       <path id="DejaVuSans-29" d="M 513 4856 
L 1013 4856 
Q 1481 4119 1714 3412 
Q 1947 2706 1947 2009 
Q 1947 1309 1714 600 
Q 1481 -109 1013 -844 
L 513 -844 
Q 928 -128 1133 580 
Q 1338 1288 1338 2009 
Q 1338 2731 1133 3434 
Q 928 4138 513 4856 
z
" transform="scale(0.015625)"/>
      </defs>
      <use xlink:href="#DejaVuSans-70"/>
      <use xlink:href="#DejaVuSans-72" x="63.476562"/>
      <use xlink:href="#DejaVuSans-65" x="102.339844"/>
      <use xlink:href="#DejaVuSans-64" x="163.863281"/>
      <use xlink:href="#DejaVuSans-69" x="227.339844"/>
      <use xlink:href="#DejaVuSans-63" x="255.123047"/>
      <use xlink:href="#DejaVuSans-74" x="310.103516"/>
      <use xlink:href="#DejaVuSans-69" x="349.3125"/>
      <use xlink:href="#DejaVuSans-6f" x="377.095703"/>
      <use xlink:href="#DejaVuSans-6e" x="438.277344"/>
      <use xlink:href="#DejaVuSans-20" x="501.65625"/>
      <use xlink:href="#DejaVuSans-69" x="533.443359"/>
      <use xlink:href="#DejaVuSans-6e" x="561.226562"/>
      <use xlink:href="#DejaVuSans-74" x="624.605469"/>
      <use xlink:href="#DejaVuSans-65" x="663.814453"/>
      <use xlink:href="#DejaVuSans-72" x="725.337891"/>
      <use xlink:href="#DejaVuSans-76" x="766.451172"/>
      <use xlink:href="#DejaVuSans-61" x="825.630859"/>
      <use xlink:href="#DejaVuSans-6c" x="886.910156"/>
      <use xlink:href="#DejaVuSans-20" x="914.693359"/>
      <use xlink:href="#DejaVuSans-28" x="946.480469"/>
      <use xlink:href="#DejaVuSans-39" x="985.494141"/>
      <use xlink:href="#DejaVuSans-35" x="1049.117188"/>
      <use xlink:href="#DejaVuSans-25" x="1112.740234"/>
      <use xlink:href="#DejaVuSans-29" x="1207.759766"/>
     </g>
    </g>
    <g id="line2d_28">
     <path d="M 43.982813 86.876677 
L 53.982813 86.876677 
L 63.982813 86.876677 
" style="fill: none; stroke: #348abd; stroke-opacity: 0.8; stroke-width: 2; stroke-linecap: square"/>
    </g>
    <g id="text_9">
     <!-- fitted seasonality -->
     <g transform="translate(71.982812 90.376677)scale(0.1 -0.1)">
      <defs>
       <path id="DejaVuSans-66" d="M 2375 4863 
L 2375 4384 
L 1825 4384 
Q 1516 4384 1395 4259 
Q 1275 4134 1275 3809 
L 1275 3500 
L 2222 3500 
L 2222 3053 
L 1275 3053 
L 1275 0 
L 697 0 
L 697 3053 
L 147 3053 
L 147 3500 
L 697 3500 
L 697 3744 
Q 697 4328 969 4595 
Q 1241 4863 1831 4863 
L 2375 4863 
z
" transform="scale(0.015625)"/>
      </defs>
      <use xlink:href="#DejaVuSans-66"/>
      <use xlink:href="#DejaVuSans-69" x="35.205078"/>
      <use xlink:href="#DejaVuSans-74" x="62.988281"/>
      <use xlink:href="#DejaVuSans-74" x="102.197266"/>
      <use xlink:href="#DejaVuSans-65" x="141.40625"/>
      <use xlink:href="#DejaVuSans-64" x="202.929688"/>
      <use xlink:href="#DejaVuSans-20" x="266.40625"/>
      <use xlink:href="#DejaVuSans-73" x="298.193359"/>
      <use xlink:href="#DejaVuSans-65" x="350.292969"/>
      <use xlink:href="#DejaVuSans-61" x="411.816406"/>
      <use xlink:href="#DejaVuSans-73" x="473.095703"/>
      <use xlink:href="#DejaVuSans-6f" x="525.195312"/>
      <use xlink:href="#DejaVuSans-6e" x="586.376953"/>
      <use xlink:href="#DejaVuSans-61" x="649.755859"/>
      <use xlink:href="#DejaVuSans-6c" x="711.035156"/>
      <use xlink:href="#DejaVuSans-69" x="738.818359"/>
      <use xlink:href="#DejaVuSans-74" x="766.601562"/>
      <use xlink:href="#DejaVuSans-79" x="805.810547"/>
     </g>
    </g>
   </g>
  </g>
  <g id="axes_2">
   <g id="patch_9">
    <path d="M 34.982813 424.687885 
L 721.19952 424.687885 
L 721.19952 246.026052 
L 34.982813 246.026052 
z
" style="fill: #eeeeee"/>
   </g>
   <g id="PolyCollection_2">
    <defs>
     <path id="m4fdb1d212f" d="M 66.174481 -87.977754 
L 66.174481 -48.921121 
L 69.679163 -53.349291 
L 73.183845 -50.30634 
L 76.688527 -54.685394 
L 80.193208 -53.638798 
L 83.69789 -57.726702 
L 87.202572 -58.581305 
L 90.707254 -58.078361 
L 94.211936 -55.224911 
L 97.716618 -61.53709 
L 101.2213 -60.908658 
L 104.725981 -60.737274 
L 108.230663 -66.088629 
L 111.735345 -63.590272 
L 115.240027 -63.037504 
L 118.744709 -66.53898 
L 122.249391 -63.131041 
L 125.754073 -62.385986 
L 129.258754 -68.972225 
L 132.763436 -65.785711 
L 136.268118 -68.52792 
L 139.7728 -68.638241 
L 143.277482 -70.233023 
L 146.782164 -65.118558 
L 150.286846 -71.809256 
L 153.791527 -75.835123 
L 157.296209 -69.038247 
L 160.800891 -72.307918 
L 164.305573 -73.867051 
L 167.810255 -73.798928 
L 171.314937 -69.699468 
L 174.819619 -79.031625 
L 178.3243 -78.001877 
L 181.828982 -78.830269 
L 185.333664 -76.307856 
L 188.838346 -79.827273 
L 192.343028 -78.694823 
L 195.84771 -79.976975 
L 199.352392 -82.803899 
L 202.857073 -85.590554 
L 206.361755 -82.114489 
L 209.866437 -87.868235 
L 213.371119 -86.278648 
L 216.875801 -89.949171 
L 220.380483 -94.138321 
L 223.885165 -89.966547 
L 227.389846 -92.065649 
L 230.894528 -95.383835 
L 234.39921 -95.573007 
L 237.903892 -101.323672 
L 241.408574 -101.526795 
L 244.913256 -99.681467 
L 248.417938 -101.588884 
L 251.922619 -102.806695 
L 255.427301 -104.028937 
L 258.931983 -102.420377 
L 262.436665 -106.589954 
L 265.941347 -107.086992 
L 269.446029 -106.409599 
L 272.950711 -106.499047 
L 276.455392 -110.063854 
L 279.960074 -108.442695 
L 283.464756 -105.924925 
L 286.969438 -112.889133 
L 290.47412 -112.04828 
L 293.978802 -112.956162 
L 297.483484 -112.745182 
L 300.988165 -115.19019 
L 304.492847 -115.179392 
L 307.997529 -109.226868 
L 311.502211 -118.724911 
L 315.006893 -118.67244 
L 318.511575 -120.374877 
L 322.016257 -116.947864 
L 325.520938 -116.120704 
L 329.02562 -121.897061 
L 332.530302 -117.651612 
L 336.034984 -119.136317 
L 339.539666 -118.857574 
L 343.044348 -119.826745 
L 346.54903 -115.139212 
L 350.053711 -120.397307 
L 353.558393 -115.491835 
L 357.063075 -113.90905 
L 360.567757 -117.661464 
L 364.072439 -122.429867 
L 367.577121 -119.970903 
L 371.081803 -123.785366 
L 374.586484 -120.736345 
L 378.091166 -119.939519 
L 381.595848 -122.234719 
L 385.10053 -124.81119 
L 388.605212 -126.582561 
L 392.109894 -117.386943 
L 395.614576 -126.783188 
L 399.119257 -129.138935 
L 402.623939 -127.867309 
L 406.128621 -130.701016 
L 409.633303 -131.004925 
L 413.137985 -132.62066 
L 416.642667 -131.892777 
L 420.147349 -133.235 
L 423.65203 -134.58272 
L 427.156712 -138.007492 
L 430.661394 -137.810777 
L 434.166076 -142.066257 
L 437.670758 -140.357611 
L 441.17544 -144.001685 
L 444.680122 -140.577101 
L 448.184803 -140.366705 
L 451.689485 -142.795403 
L 455.194167 -145.382774 
L 458.698849 -143.243627 
L 462.203531 -145.022999 
L 465.708213 -145.155698 
L 469.212895 -148.038843 
L 472.717576 -146.767804 
L 476.222258 -147.445266 
L 479.72694 -146.449978 
L 483.231622 -144.825055 
L 486.736304 -146.947936 
L 490.240986 -147.836736 
L 493.745668 -149.378482 
L 497.250349 -149.685308 
L 500.755031 -151.17472 
L 504.259713 -146.172945 
L 507.764395 -151.76568 
L 511.269077 -150.035653 
L 514.773759 -150.543535 
L 518.278441 -155.908617 
L 521.783122 -149.571442 
L 525.287804 -152.839122 
L 528.792486 -152.574959 
L 532.297168 -152.060198 
L 535.80185 -153.589645 
L 539.306532 -152.367336 
L 542.811214 -156.888773 
L 546.315895 -155.776854 
L 549.820577 -157.778965 
L 553.325259 -156.174768 
L 556.829941 -157.649006 
L 560.334623 -155.70781 
L 563.839305 -159.060553 
L 567.343987 -161.584221 
L 570.848668 -158.373199 
L 574.35335 -161.653846 
L 577.858032 -163.606397 
L 581.362714 -159.129675 
L 584.867396 -162.936154 
L 588.372078 -161.797553 
L 591.876759 -165.611416 
L 595.381441 -162.754825 
L 598.886123 -162.383674 
L 602.390805 -161.972483 
L 605.895487 -166.577653 
L 609.400169 -162.271337 
L 612.904851 -165.663106 
L 616.409532 -165.891133 
L 619.914214 -166.676835 
L 623.418896 -161.947356 
L 626.923578 -169.379833 
L 630.42826 -166.825027 
L 633.932942 -167.367478 
L 637.437624 -170.16593 
L 640.942305 -169.668836 
L 644.446987 -167.017859 
L 647.951669 -162.702317 
L 651.456351 -165.088189 
L 654.961033 -170.394604 
L 658.465715 -167.154391 
L 661.970397 -170.161982 
L 665.475078 -170.415202 
L 668.97976 -168.352012 
L 672.484442 -169.597498 
L 675.989124 -168.118087 
L 679.493806 -170.524986 
L 682.998488 -169.991696 
L 686.50317 -169.141762 
L 690.007851 -173.201983 
L 690.007851 -203.115713 
L 690.007851 -203.115713 
L 686.50317 -205.998894 
L 682.998488 -205.450609 
L 679.493806 -201.386699 
L 675.989124 -205.176819 
L 672.484442 -203.885355 
L 668.97976 -206.532715 
L 665.475078 -198.134659 
L 661.970397 -202.343483 
L 658.465715 -201.744298 
L 654.961033 -201.107089 
L 651.456351 -198.845823 
L 647.951669 -204.284513 
L 644.446987 -203.568545 
L 640.942305 -197.273794 
L 637.437624 -202.975134 
L 633.932942 -199.217151 
L 630.42826 -200.804601 
L 626.923578 -199.409292 
L 623.418896 -198.743115 
L 619.914214 -203.893649 
L 616.409532 -198.171666 
L 612.904851 -202.468146 
L 609.400169 -199.686014 
L 605.895487 -194.869075 
L 602.390805 -197.388448 
L 598.886123 -197.257474 
L 595.381441 -196.440691 
L 591.876759 -193.411367 
L 588.372078 -197.198635 
L 584.867396 -192.404593 
L 581.362714 -190.662032 
L 577.858032 -193.882258 
L 574.35335 -193.153668 
L 570.848668 -197.616125 
L 567.343987 -192.865655 
L 563.839305 -191.730812 
L 560.334623 -191.511997 
L 556.829941 -189.642976 
L 553.325259 -190.369041 
L 549.820577 -185.825218 
L 546.315895 -191.053358 
L 542.811214 -193.630105 
L 539.306532 -186.5378 
L 535.80185 -188.385997 
L 532.297168 -182.816332 
L 528.792486 -183.554811 
L 525.287804 -185.464636 
L 521.783122 -184.183285 
L 518.278441 -184.384417 
L 514.773759 -184.526454 
L 511.269077 -183.859426 
L 507.764395 -182.567107 
L 504.259713 -181.758337 
L 500.755031 -181.899744 
L 497.250349 -182.300038 
L 493.745668 -181.198484 
L 490.240986 -180.655232 
L 486.736304 -179.626589 
L 483.231622 -177.48336 
L 479.72694 -180.187784 
L 476.222258 -180.816887 
L 472.717576 -176.722212 
L 469.212895 -181.506005 
L 465.708213 -173.996618 
L 462.203531 -174.863219 
L 458.698849 -174.884078 
L 455.194167 -175.381034 
L 451.689485 -177.77402 
L 448.184803 -174.018685 
L 444.680122 -173.897743 
L 441.17544 -173.248923 
L 437.670758 -173.995728 
L 434.166076 -168.914274 
L 430.661394 -169.794201 
L 427.156712 -169.042525 
L 423.65203 -171.002473 
L 420.147349 -162.787248 
L 416.642667 -166.366439 
L 413.137985 -166.292298 
L 409.633303 -162.163623 
L 406.128621 -160.704042 
L 402.623939 -161.277665 
L 399.119257 -157.753579 
L 395.614576 -157.260166 
L 392.109894 -160.163462 
L 388.605212 -154.371553 
L 385.10053 -157.467343 
L 381.595848 -155.665492 
L 378.091166 -155.663005 
L 374.586484 -149.076235 
L 371.081803 -154.711721 
L 367.577121 -152.20679 
L 364.072439 -155.711286 
L 360.567757 -150.049662 
L 357.063075 -151.385036 
L 353.558393 -147.275408 
L 350.053711 -151.280688 
L 346.54903 -152.183897 
L 343.044348 -151.042748 
L 339.539666 -147.208906 
L 336.034984 -152.474783 
L 332.530302 -148.183554 
L 329.02562 -151.796787 
L 325.520938 -147.407045 
L 322.016257 -152.893645 
L 318.511575 -147.276368 
L 315.006893 -148.688531 
L 311.502211 -144.722352 
L 307.997529 -149.507144 
L 304.492847 -150.782535 
L 300.988165 -142.7752 
L 297.483484 -143.980029 
L 293.978802 -144.118253 
L 290.47412 -144.95658 
L 286.969438 -143.092099 
L 283.464756 -142.631861 
L 279.960074 -140.728232 
L 276.455392 -139.320456 
L 272.950711 -140.490255 
L 269.446029 -137.269117 
L 265.941347 -138.788841 
L 262.436665 -137.218936 
L 258.931983 -140.190842 
L 255.427301 -134.172269 
L 251.922619 -137.520351 
L 248.417938 -132.071298 
L 244.913256 -130.80267 
L 241.408574 -132.88462 
L 237.903892 -128.640095 
L 234.39921 -127.860541 
L 230.894528 -131.044181 
L 227.389846 -128.594301 
L 223.885165 -120.687104 
L 220.380483 -122.328631 
L 216.875801 -119.857808 
L 213.371119 -125.335675 
L 209.866437 -117.615633 
L 206.361755 -117.48057 
L 202.857073 -118.316766 
L 199.352392 -117.410985 
L 195.84771 -111.681395 
L 192.343028 -108.212067 
L 188.838346 -109.72343 
L 185.333664 -110.061548 
L 181.828982 -108.675383 
L 178.3243 -105.956943 
L 174.819619 -107.38987 
L 171.314937 -107.814573 
L 167.810255 -105.566283 
L 164.305573 -107.158277 
L 160.800891 -107.198596 
L 157.296209 -102.414086 
L 153.791527 -101.338795 
L 150.286846 -102.423967 
L 146.782164 -102.162044 
L 143.277482 -100.343803 
L 139.7728 -99.873989 
L 136.268118 -96.778624 
L 132.763436 -105.067854 
L 129.258754 -96.996727 
L 125.754073 -92.904959 
L 122.249391 -94.56719 
L 118.744709 -94.696538 
L 115.240027 -94.31082 
L 111.735345 -92.810986 
L 108.230663 -93.532192 
L 104.725981 -90.482481 
L 101.2213 -92.700038 
L 97.716618 -87.584056 
L 94.211936 -88.031404 
L 90.707254 -84.771397 
L 87.202572 -92.897996 
L 83.69789 -84.448286 
L 80.193208 -86.384903 
L 76.688527 -85.064152 
L 73.183845 -84.556313 
L 69.679163 -82.649267 
L 66.174481 -87.977754 
z
" style="stroke: #348abd; stroke-opacity: 0.15; stroke-width: 0.5"/>
    </defs>
    <g clip-path="url(#p3753f8ce6e)">
     <use xlink:href="#m4fdb1d212f" x="0" y="460.67976" style="fill: #348abd; fill-opacity: 0.15; stroke: #348abd; stroke-opacity: 0.15; stroke-width: 0.5"/>
    </g>
   </g>
   <g id="PathCollection_1">
    <defs>
     <path id="m1415988c55" d="M 0 3.535534 
C 0.937635 3.535534 1.836992 3.163008 2.5 2.5 
C 3.163008 1.836992 3.535534 0.937635 3.535534 0 
C 3.535534 -0.937635 3.163008 -1.836992 2.5 -2.5 
C 1.836992 -3.163008 0.937635 -3.535534 0 -3.535534 
C -0.937635 -3.535534 -1.836992 -3.163008 -2.5 -2.5 
C -3.163008 -1.836992 -3.535534 -0.937635 -3.535534 0 
C -3.535534 0.937635 -3.163008 1.836992 -2.5 2.5 
C -1.836992 3.163008 -0.937635 3.535534 0 3.535534 
z
" style="stroke: #ffffff; stroke-width: 0.565685"/>
    </defs>
    <g clip-path="url(#p3753f8ce6e)">
     <use xlink:href="#m1415988c55" x="66.174481" y="392.325601" style="fill: #348abd; stroke: #ffffff; stroke-width: 0.565685"/>
     <use xlink:href="#m1415988c55" x="129.258754" y="379.568882" style="fill: #348abd; stroke: #ffffff; stroke-width: 0.565685"/>
     <use xlink:href="#m1415988c55" x="192.343028" y="365.750249" style="fill: #348abd; stroke: #ffffff; stroke-width: 0.565685"/>
     <use xlink:href="#m1415988c55" x="251.922619" y="341.006225" style="fill: #348abd; stroke: #ffffff; stroke-width: 0.565685"/>
     <use xlink:href="#m1415988c55" x="315.006893" y="328.011931" style="fill: #348abd; stroke: #ffffff; stroke-width: 0.565685"/>
     <use xlink:href="#m1415988c55" x="378.091166" y="323.863928" style="fill: #348abd; stroke: #ffffff; stroke-width: 0.565685"/>
     <use xlink:href="#m1415988c55" x="441.17544" y="303.342302" style="fill: #348abd; stroke: #ffffff; stroke-width: 0.565685"/>
     <use xlink:href="#m1415988c55" x="504.259713" y="294.290209" style="fill: #348abd; stroke: #ffffff; stroke-width: 0.565685"/>
     <use xlink:href="#m1415988c55" x="563.839305" y="285.275494" style="fill: #348abd; stroke: #ffffff; stroke-width: 0.565685"/>
     <use xlink:href="#m1415988c55" x="626.923578" y="277.255707" style="fill: #348abd; stroke: #ffffff; stroke-width: 0.565685"/>
     <use xlink:href="#m1415988c55" x="690.007851" y="273.662014" style="fill: #348abd; stroke: #ffffff; stroke-width: 0.565685"/>
    </g>
   </g>
   <g id="matplotlib.axis_3">
    <g id="xtick_8">
     <g id="line2d_29">
      <path d="M 111.234676 424.687885 
L 111.234676 246.026052 
" clip-path="url(#p3753f8ce6e)" style="fill: none; stroke-dasharray: 1.85,0.8; stroke-dashoffset: 0; stroke: #b2b2b2; stroke-width: 0.5"/>
     </g>
     <g id="line2d_30">
      <g>
       <use xlink:href="#m57d35c4b4a" x="111.234676" y="424.687885" style="stroke: #000000; stroke-width: 0.8"/>
      </g>
     </g>
     <g id="text_10">
      <!-- 2018-07 -->
      <g transform="translate(90.34327 435.786322)scale(0.1 -0.1)">
       <defs>
        <path id="DejaVuSans-31" d="M 794 531 
L 1825 531 
L 1825 4091 
L 703 3866 
L 703 4441 
L 1819 4666 
L 2450 4666 
L 2450 531 
L 3481 531 
L 3481 0 
L 794 0 
L 794 531 
z
" transform="scale(0.015625)"/>
        <path id="DejaVuSans-38" d="M 2034 2216 
Q 1584 2216 1326 1975 
Q 1069 1734 1069 1313 
Q 1069 891 1326 650 
Q 1584 409 2034 409 
Q 2484 409 2743 651 
Q 3003 894 3003 1313 
Q 3003 1734 2745 1975 
Q 2488 2216 2034 2216 
z
M 1403 2484 
Q 997 2584 770 2862 
Q 544 3141 544 3541 
Q 544 4100 942 4425 
Q 1341 4750 2034 4750 
Q 2731 4750 3128 4425 
Q 3525 4100 3525 3541 
Q 3525 3141 3298 2862 
Q 3072 2584 2669 2484 
Q 3125 2378 3379 2068 
Q 3634 1759 3634 1313 
Q 3634 634 3220 271 
Q 2806 -91 2034 -91 
Q 1263 -91 848 271 
Q 434 634 434 1313 
Q 434 1759 690 2068 
Q 947 2378 1403 2484 
z
M 1172 3481 
Q 1172 3119 1398 2916 
Q 1625 2713 2034 2713 
Q 2441 2713 2670 2916 
Q 2900 3119 2900 3481 
Q 2900 3844 2670 4047 
Q 2441 4250 2034 4250 
Q 1625 4250 1398 4047 
Q 1172 3844 1172 3481 
z
" transform="scale(0.015625)"/>
        <path id="DejaVuSans-2d" d="M 313 2009 
L 1997 2009 
L 1997 1497 
L 313 1497 
L 313 2009 
z
" transform="scale(0.015625)"/>
        <path id="DejaVuSans-37" d="M 525 4666 
L 3525 4666 
L 3525 4397 
L 1831 0 
L 1172 0 
L 2766 4134 
L 525 4134 
L 525 4666 
z
" transform="scale(0.015625)"/>
       </defs>
       <use xlink:href="#DejaVuSans-32"/>
       <use xlink:href="#DejaVuSans-30" x="63.623047"/>
       <use xlink:href="#DejaVuSans-31" x="127.246094"/>
       <use xlink:href="#DejaVuSans-38" x="190.869141"/>
       <use xlink:href="#DejaVuSans-2d" x="254.492188"/>
       <use xlink:href="#DejaVuSans-30" x="290.576172"/>
       <use xlink:href="#DejaVuSans-37" x="354.199219"/>
      </g>
     </g>
    </g>
    <g id="xtick_9">
     <g id="line2d_31">
      <path d="M 203.357742 424.687885 
L 203.357742 246.026052 
" clip-path="url(#p3753f8ce6e)" style="fill: none; stroke-dasharray: 1.85,0.8; stroke-dashoffset: 0; stroke: #b2b2b2; stroke-width: 0.5"/>
     </g>
     <g id="line2d_32">
      <g>
       <use xlink:href="#m57d35c4b4a" x="203.357742" y="424.687885" style="stroke: #000000; stroke-width: 0.8"/>
      </g>
     </g>
     <g id="text_11">
      <!-- 2019-01 -->
      <g transform="translate(182.466336 435.786322)scale(0.1 -0.1)">
       <use xlink:href="#DejaVuSans-32"/>
       <use xlink:href="#DejaVuSans-30" x="63.623047"/>
       <use xlink:href="#DejaVuSans-31" x="127.246094"/>
       <use xlink:href="#DejaVuSans-39" x="190.869141"/>
       <use xlink:href="#DejaVuSans-2d" x="254.492188"/>
       <use xlink:href="#DejaVuSans-30" x="290.576172"/>
       <use xlink:href="#DejaVuSans-31" x="354.199219"/>
      </g>
     </g>
    </g>
    <g id="xtick_10">
     <g id="line2d_33">
      <path d="M 293.978802 424.687885 
L 293.978802 246.026052 
" clip-path="url(#p3753f8ce6e)" style="fill: none; stroke-dasharray: 1.85,0.8; stroke-dashoffset: 0; stroke: #b2b2b2; stroke-width: 0.5"/>
     </g>
     <g id="line2d_34">
      <g>
       <use xlink:href="#m57d35c4b4a" x="293.978802" y="424.687885" style="stroke: #000000; stroke-width: 0.8"/>
      </g>
     </g>
     <g id="text_12">
      <!-- 2019-07 -->
      <g transform="translate(273.087395 435.786322)scale(0.1 -0.1)">
       <use xlink:href="#DejaVuSans-32"/>
       <use xlink:href="#DejaVuSans-30" x="63.623047"/>
       <use xlink:href="#DejaVuSans-31" x="127.246094"/>
       <use xlink:href="#DejaVuSans-39" x="190.869141"/>
       <use xlink:href="#DejaVuSans-2d" x="254.492188"/>
       <use xlink:href="#DejaVuSans-30" x="290.576172"/>
       <use xlink:href="#DejaVuSans-37" x="354.199219"/>
      </g>
     </g>
    </g>
    <g id="xtick_11">
     <g id="line2d_35">
      <path d="M 386.101868 424.687885 
L 386.101868 246.026052 
" clip-path="url(#p3753f8ce6e)" style="fill: none; stroke-dasharray: 1.85,0.8; stroke-dashoffset: 0; stroke: #b2b2b2; stroke-width: 0.5"/>
     </g>
     <g id="line2d_36">
      <g>
       <use xlink:href="#m57d35c4b4a" x="386.101868" y="424.687885" style="stroke: #000000; stroke-width: 0.8"/>
      </g>
     </g>
     <g id="text_13">
      <!-- 2020-01 -->
      <g transform="translate(365.210461 435.786322)scale(0.1 -0.1)">
       <use xlink:href="#DejaVuSans-32"/>
       <use xlink:href="#DejaVuSans-30" x="63.623047"/>
       <use xlink:href="#DejaVuSans-32" x="127.246094"/>
       <use xlink:href="#DejaVuSans-30" x="190.869141"/>
       <use xlink:href="#DejaVuSans-2d" x="254.492188"/>
       <use xlink:href="#DejaVuSans-30" x="290.576172"/>
       <use xlink:href="#DejaVuSans-31" x="354.199219"/>
      </g>
     </g>
    </g>
    <g id="xtick_12">
     <g id="line2d_37">
      <path d="M 477.223596 424.687885 
L 477.223596 246.026052 
" clip-path="url(#p3753f8ce6e)" style="fill: none; stroke-dasharray: 1.85,0.8; stroke-dashoffset: 0; stroke: #b2b2b2; stroke-width: 0.5"/>
     </g>
     <g id="line2d_38">
      <g>
       <use xlink:href="#m57d35c4b4a" x="477.223596" y="424.687885" style="stroke: #000000; stroke-width: 0.8"/>
      </g>
     </g>
     <g id="text_14">
      <!-- 2020-07 -->
      <g transform="translate(456.33219 435.786322)scale(0.1 -0.1)">
       <use xlink:href="#DejaVuSans-32"/>
       <use xlink:href="#DejaVuSans-30" x="63.623047"/>
       <use xlink:href="#DejaVuSans-32" x="127.246094"/>
       <use xlink:href="#DejaVuSans-30" x="190.869141"/>
       <use xlink:href="#DejaVuSans-2d" x="254.492188"/>
       <use xlink:href="#DejaVuSans-30" x="290.576172"/>
       <use xlink:href="#DejaVuSans-37" x="354.199219"/>
      </g>
     </g>
    </g>
    <g id="xtick_13">
     <g id="line2d_39">
      <path d="M 569.346662 424.687885 
L 569.346662 246.026052 
" clip-path="url(#p3753f8ce6e)" style="fill: none; stroke-dasharray: 1.85,0.8; stroke-dashoffset: 0; stroke: #b2b2b2; stroke-width: 0.5"/>
     </g>
     <g id="line2d_40">
      <g>
       <use xlink:href="#m57d35c4b4a" x="569.346662" y="424.687885" style="stroke: #000000; stroke-width: 0.8"/>
      </g>
     </g>
     <g id="text_15">
      <!-- 2021-01 -->
      <g transform="translate(548.455256 435.786322)scale(0.1 -0.1)">
       <use xlink:href="#DejaVuSans-32"/>
       <use xlink:href="#DejaVuSans-30" x="63.623047"/>
       <use xlink:href="#DejaVuSans-32" x="127.246094"/>
       <use xlink:href="#DejaVuSans-31" x="190.869141"/>
       <use xlink:href="#DejaVuSans-2d" x="254.492188"/>
       <use xlink:href="#DejaVuSans-30" x="290.576172"/>
       <use xlink:href="#DejaVuSans-31" x="354.199219"/>
      </g>
     </g>
    </g>
    <g id="xtick_14">
     <g id="line2d_41">
      <path d="M 659.967721 424.687885 
L 659.967721 246.026052 
" clip-path="url(#p3753f8ce6e)" style="fill: none; stroke-dasharray: 1.85,0.8; stroke-dashoffset: 0; stroke: #b2b2b2; stroke-width: 0.5"/>
     </g>
     <g id="line2d_42">
      <g>
       <use xlink:href="#m57d35c4b4a" x="659.967721" y="424.687885" style="stroke: #000000; stroke-width: 0.8"/>
      </g>
     </g>
     <g id="text_16">
      <!-- 2021-07 -->
      <g transform="translate(639.076315 435.786322)scale(0.1 -0.1)">
       <use xlink:href="#DejaVuSans-32"/>
       <use xlink:href="#DejaVuSans-30" x="63.623047"/>
       <use xlink:href="#DejaVuSans-32" x="127.246094"/>
       <use xlink:href="#DejaVuSans-31" x="190.869141"/>
       <use xlink:href="#DejaVuSans-2d" x="254.492188"/>
       <use xlink:href="#DejaVuSans-30" x="290.576172"/>
       <use xlink:href="#DejaVuSans-37" x="354.199219"/>
      </g>
     </g>
    </g>
    <g id="text_17">
     <!-- date -->
     <g transform="translate(364.561166 450.984135)scale(0.12 -0.12)">
      <use xlink:href="#DejaVuSans-64"/>
      <use xlink:href="#DejaVuSans-61" x="63.476562"/>
      <use xlink:href="#DejaVuSans-74" x="124.755859"/>
      <use xlink:href="#DejaVuSans-65" x="163.964844"/>
     </g>
    </g>
   </g>
   <g id="matplotlib.axis_4">
    <g id="ytick_6">
     <g id="line2d_43">
      <path d="M 34.982813 413.533844 
L 721.19952 413.533844 
" clip-path="url(#p3753f8ce6e)" style="fill: none; stroke-dasharray: 1.85,0.8; stroke-dashoffset: 0; stroke: #b2b2b2; stroke-width: 0.5"/>
     </g>
     <g id="line2d_44">
      <g>
       <use xlink:href="#m29c252d58a" x="34.982813" y="413.533844" style="stroke: #000000; stroke-width: 0.8"/>
      </g>
     </g>
     <g id="text_18">
      <!-- 3.8 -->
      <g transform="translate(15.579688 417.333062)scale(0.1 -0.1)">
       <defs>
        <path id="DejaVuSans-33" d="M 2597 2516 
Q 3050 2419 3304 2112 
Q 3559 1806 3559 1356 
Q 3559 666 3084 287 
Q 2609 -91 1734 -91 
Q 1441 -91 1130 -33 
Q 819 25 488 141 
L 488 750 
Q 750 597 1062 519 
Q 1375 441 1716 441 
Q 2309 441 2620 675 
Q 2931 909 2931 1356 
Q 2931 1769 2642 2001 
Q 2353 2234 1838 2234 
L 1294 2234 
L 1294 2753 
L 1863 2753 
Q 2328 2753 2575 2939 
Q 2822 3125 2822 3475 
Q 2822 3834 2567 4026 
Q 2313 4219 1838 4219 
Q 1578 4219 1281 4162 
Q 984 4106 628 3988 
L 628 4550 
Q 988 4650 1302 4700 
Q 1616 4750 1894 4750 
Q 2613 4750 3031 4423 
Q 3450 4097 3450 3541 
Q 3450 3153 3228 2886 
Q 3006 2619 2597 2516 
z
" transform="scale(0.015625)"/>
       </defs>
       <use xlink:href="#DejaVuSans-33"/>
       <use xlink:href="#DejaVuSans-2e" x="63.623047"/>
       <use xlink:href="#DejaVuSans-38" x="95.410156"/>
      </g>
     </g>
    </g>
    <g id="ytick_7">
     <g id="line2d_45">
      <path d="M 34.982813 385.605974 
L 721.19952 385.605974 
" clip-path="url(#p3753f8ce6e)" style="fill: none; stroke-dasharray: 1.85,0.8; stroke-dashoffset: 0; stroke: #b2b2b2; stroke-width: 0.5"/>
     </g>
     <g id="line2d_46">
      <g>
       <use xlink:href="#m29c252d58a" x="34.982813" y="385.605974" style="stroke: #000000; stroke-width: 0.8"/>
      </g>
     </g>
     <g id="text_19">
      <!-- 4.0 -->
      <g transform="translate(15.579688 389.405192)scale(0.1 -0.1)">
       <use xlink:href="#DejaVuSans-34"/>
       <use xlink:href="#DejaVuSans-2e" x="63.623047"/>
       <use xlink:href="#DejaVuSans-30" x="95.410156"/>
      </g>
     </g>
    </g>
    <g id="ytick_8">
     <g id="line2d_47">
      <path d="M 34.982813 357.678104 
L 721.19952 357.678104 
" clip-path="url(#p3753f8ce6e)" style="fill: none; stroke-dasharray: 1.85,0.8; stroke-dashoffset: 0; stroke: #b2b2b2; stroke-width: 0.5"/>
     </g>
     <g id="line2d_48">
      <g>
       <use xlink:href="#m29c252d58a" x="34.982813" y="357.678104" style="stroke: #000000; stroke-width: 0.8"/>
      </g>
     </g>
     <g id="text_20">
      <!-- 4.2 -->
      <g transform="translate(15.579688 361.477322)scale(0.1 -0.1)">
       <use xlink:href="#DejaVuSans-34"/>
       <use xlink:href="#DejaVuSans-2e" x="63.623047"/>
       <use xlink:href="#DejaVuSans-32" x="95.410156"/>
      </g>
     </g>
    </g>
    <g id="ytick_9">
     <g id="line2d_49">
      <path d="M 34.982813 329.750234 
L 721.19952 329.750234 
" clip-path="url(#p3753f8ce6e)" style="fill: none; stroke-dasharray: 1.85,0.8; stroke-dashoffset: 0; stroke: #b2b2b2; stroke-width: 0.5"/>
     </g>
     <g id="line2d_50">
      <g>
       <use xlink:href="#m29c252d58a" x="34.982813" y="329.750234" style="stroke: #000000; stroke-width: 0.8"/>
      </g>
     </g>
     <g id="text_21">
      <!-- 4.4 -->
      <g transform="translate(15.579688 333.549453)scale(0.1 -0.1)">
       <use xlink:href="#DejaVuSans-34"/>
       <use xlink:href="#DejaVuSans-2e" x="63.623047"/>
       <use xlink:href="#DejaVuSans-34" x="95.410156"/>
      </g>
     </g>
    </g>
    <g id="ytick_10">
     <g id="line2d_51">
      <path d="M 34.982813 301.822364 
L 721.19952 301.822364 
" clip-path="url(#p3753f8ce6e)" style="fill: none; stroke-dasharray: 1.85,0.8; stroke-dashoffset: 0; stroke: #b2b2b2; stroke-width: 0.5"/>
     </g>
     <g id="line2d_52">
      <g>
       <use xlink:href="#m29c252d58a" x="34.982813" y="301.822364" style="stroke: #000000; stroke-width: 0.8"/>
      </g>
     </g>
     <g id="text_22">
      <!-- 4.6 -->
      <g transform="translate(15.579688 305.621583)scale(0.1 -0.1)">
       <defs>
        <path id="DejaVuSans-36" d="M 2113 2584 
Q 1688 2584 1439 2293 
Q 1191 2003 1191 1497 
Q 1191 994 1439 701 
Q 1688 409 2113 409 
Q 2538 409 2786 701 
Q 3034 994 3034 1497 
Q 3034 2003 2786 2293 
Q 2538 2584 2113 2584 
z
M 3366 4563 
L 3366 3988 
Q 3128 4100 2886 4159 
Q 2644 4219 2406 4219 
Q 1781 4219 1451 3797 
Q 1122 3375 1075 2522 
Q 1259 2794 1537 2939 
Q 1816 3084 2150 3084 
Q 2853 3084 3261 2657 
Q 3669 2231 3669 1497 
Q 3669 778 3244 343 
Q 2819 -91 2113 -91 
Q 1303 -91 875 529 
Q 447 1150 447 2328 
Q 447 3434 972 4092 
Q 1497 4750 2381 4750 
Q 2619 4750 2861 4703 
Q 3103 4656 3366 4563 
z
" transform="scale(0.015625)"/>
       </defs>
       <use xlink:href="#DejaVuSans-34"/>
       <use xlink:href="#DejaVuSans-2e" x="63.623047"/>
       <use xlink:href="#DejaVuSans-36" x="95.410156"/>
      </g>
     </g>
    </g>
    <g id="ytick_11">
     <g id="line2d_53">
      <path d="M 34.982813 273.894494 
L 721.19952 273.894494 
" clip-path="url(#p3753f8ce6e)" style="fill: none; stroke-dasharray: 1.85,0.8; stroke-dashoffset: 0; stroke: #b2b2b2; stroke-width: 0.5"/>
     </g>
     <g id="line2d_54">
      <g>
       <use xlink:href="#m29c252d58a" x="34.982813" y="273.894494" style="stroke: #000000; stroke-width: 0.8"/>
      </g>
     </g>
     <g id="text_23">
      <!-- 4.8 -->
      <g transform="translate(15.579688 277.693713)scale(0.1 -0.1)">
       <use xlink:href="#DejaVuSans-34"/>
       <use xlink:href="#DejaVuSans-2e" x="63.623047"/>
       <use xlink:href="#DejaVuSans-38" x="95.410156"/>
      </g>
     </g>
    </g>
   </g>
   <g id="line2d_55">
    <path d="M 66.174481 416.566893 
L 76.688527 411.493114 
L 87.202572 406.707019 
L 97.716618 402.173204 
L 108.230663 397.862666 
L 118.744709 393.751318 
L 132.763436 388.544848 
L 146.782164 383.617064 
L 160.800891 378.935463 
L 174.819619 374.473129 
L 188.838346 370.207501 
L 206.361755 365.123233 
L 223.885165 360.285248 
L 241.408574 355.66739 
L 262.436665 350.385733 
L 283.464756 345.357518 
L 304.492847 340.556066 
L 325.520938 335.95886 
L 350.053711 330.828151 
L 374.586484 325.923514 
L 402.623939 320.567019 
L 430.661394 315.449456 
L 458.698849 310.547344 
L 490.240986 305.265153 
L 521.783122 300.20597 
L 556.829941 294.821008 
L 591.876759 289.661362 
L 630.42826 284.221208 
L 668.97976 279.004775 
L 690.007851 276.246344 
L 690.007851 276.246344 
" clip-path="url(#p3753f8ce6e)" style="fill: none; stroke: #d55e00; stroke-width: 2; stroke-linecap: square"/>
   </g>
   <g id="line2d_56">
    <path d="M 66.174481 389.771645 
L 69.679163 390.336337 
L 73.183845 391.373092 
L 76.688527 390.306495 
L 80.193208 389.710235 
L 83.69789 387.921432 
L 87.202572 388.933858 
L 90.707254 388.726529 
L 94.211936 385.739695 
L 97.716618 386.7595 
L 101.2213 385.426849 
L 104.725981 385.472328 
L 108.230663 383.253077 
L 111.735345 382.816328 
L 115.240027 382.158064 
L 118.744709 380.383397 
L 125.754073 381.209512 
L 129.258754 380.949536 
L 132.763436 378.601647 
L 139.7728 376.13046 
L 146.782164 374.349933 
L 150.286846 374.110045 
L 153.791527 373.983289 
L 157.296209 373.222703 
L 160.800891 372.616376 
L 164.305573 370.838361 
L 167.810255 371.967188 
L 171.314937 370.617093 
L 174.819619 368.586416 
L 178.3243 369.255163 
L 181.828982 367.779745 
L 185.333664 368.357365 
L 188.838346 366.556128 
L 192.343028 365.388719 
L 195.84771 363.014066 
L 199.352392 363.50461 
L 202.857073 361.089059 
L 206.361755 359.819847 
L 209.866437 357.739047 
L 213.371119 358.212958 
L 216.875801 355.267137 
L 220.380483 355.187694 
L 223.885165 351.821394 
L 227.389846 350.415098 
L 230.894528 347.917354 
L 234.39921 346.819397 
L 237.903892 346.51495 
L 241.408574 344.296206 
L 244.913256 343.816021 
L 248.417938 342.759405 
L 251.922619 339.083797 
L 255.427301 340.70071 
L 258.931983 339.697901 
L 262.436665 339.726087 
L 265.941347 337.052154 
L 269.446029 338.018317 
L 272.950711 336.740222 
L 276.455392 337.215084 
L 283.464756 333.542579 
L 286.969438 332.699667 
L 290.47412 332.432211 
L 293.978802 332.931824 
L 297.483484 330.603067 
L 300.988165 331.288185 
L 304.492847 329.54586 
L 307.997529 328.362313 
L 311.502211 327.576721 
L 315.006893 327.478551 
L 318.511575 327.845531 
L 322.016257 328.406024 
L 325.520938 328.742065 
L 329.02562 328.211164 
L 332.530302 325.550789 
L 336.034984 323.94547 
L 339.539666 325.780173 
L 343.044348 324.926101 
L 346.54903 326.107838 
L 350.053711 326.361007 
L 353.558393 326.133895 
L 357.063075 326.414375 
L 360.567757 325.047775 
L 364.072439 326.279204 
L 367.577121 325.461712 
L 371.081803 323.194636 
L 374.586484 325.704661 
L 381.595848 323.099145 
L 385.10053 321.255762 
L 388.605212 320.299626 
L 392.109894 318.822397 
L 395.614576 319.832661 
L 399.119257 317.502769 
L 402.623939 317.440011 
L 406.128621 315.065716 
L 409.633303 314.587333 
L 413.137985 313.194259 
L 416.642667 311.923163 
L 420.147349 310.461876 
L 423.65203 309.415399 
L 427.156712 307.610193 
L 430.661394 307.225407 
L 434.166076 306.267529 
L 437.670758 304.812983 
L 441.17544 301.885335 
L 444.680122 302.180054 
L 448.184803 303.066667 
L 451.689485 303.358376 
L 458.698849 298.57382 
L 462.203531 300.500783 
L 465.708213 298.326556 
L 472.717576 300.249052 
L 476.222258 297.269426 
L 479.72694 298.699376 
L 483.231622 297.139584 
L 486.736304 296.751042 
L 490.240986 296.800097 
L 493.745668 295.98683 
L 497.250349 297.180867 
L 500.755031 295.523833 
L 504.259713 294.986338 
L 507.764395 294.110462 
L 511.269077 295.70079 
L 518.278441 292.651945 
L 521.783122 291.284899 
L 525.287804 290.570529 
L 528.792486 291.237432 
L 532.297168 289.719449 
L 535.80185 289.578686 
L 539.306532 288.166472 
L 542.811214 288.996804 
L 546.315895 287.369796 
L 549.820577 288.197215 
L 553.325259 289.448208 
L 556.829941 286.27235 
L 560.334623 287.307654 
L 563.839305 287.567777 
L 567.343987 283.916468 
L 570.848668 285.996116 
L 574.35335 282.92033 
L 577.858032 283.307446 
L 581.362714 284.59756 
L 584.867396 281.610171 
L 588.372078 282.330976 
L 591.876759 281.696629 
L 595.381441 281.53018 
L 598.886123 282.031137 
L 602.390805 281.091607 
L 605.895487 278.888247 
L 609.400169 280.942153 
L 612.904851 280.389662 
L 616.409532 279.09046 
L 619.914214 277.971425 
L 623.418896 278.114866 
L 626.923578 276.440204 
L 630.42826 277.350424 
L 633.932942 275.840155 
L 637.437624 274.727106 
L 640.942305 276.557432 
L 647.951669 274.990159 
L 651.456351 276.23806 
L 654.961033 276.469109 
L 658.465715 276.236575 
L 661.970397 273.614038 
L 665.475078 275.769653 
L 668.97976 271.943478 
L 672.484442 273.312137 
L 675.989124 273.017631 
L 679.493806 275.338142 
L 682.998488 274.271628 
L 686.50317 272.358008 
L 690.007851 272.978226 
L 690.007851 272.978226 
" clip-path="url(#p3753f8ce6e)" style="fill: none; stroke: #348abd; stroke-opacity: 0.8; stroke-width: 2; stroke-linecap: square"/>
   </g>
   <g id="patch_10">
    <path d="M 34.982813 424.687885 
L 34.982813 246.026052 
" style="fill: none; stroke: #bcbcbc; stroke-width: 0.8; stroke-linejoin: miter; stroke-linecap: square"/>
   </g>
   <g id="patch_11">
    <path d="M 721.19952 424.687885 
L 721.19952 246.026052 
" style="fill: none; stroke: #bcbcbc; stroke-width: 0.8; stroke-linejoin: miter; stroke-linecap: square"/>
   </g>
   <g id="patch_12">
    <path d="M 34.982812 424.687885 
L 721.19952 424.687885 
" style="fill: none; stroke: #bcbcbc; stroke-width: 0.8; stroke-linejoin: miter; stroke-linecap: square"/>
   </g>
   <g id="patch_13">
    <path d="M 34.982812 246.026052 
L 721.19952 246.026052 
" style="fill: none; stroke: #bcbcbc; stroke-width: 0.8; stroke-linejoin: miter; stroke-linecap: square"/>
   </g>
   <g id="text_24">
    <!-- Trend Fit -->
    <g transform="translate(347.663291 240.026052)scale(0.144 -0.144)">
     <defs>
      <path id="DejaVuSans-54" d="M -19 4666 
L 3928 4666 
L 3928 4134 
L 2272 4134 
L 2272 0 
L 1638 0 
L 1638 4134 
L -19 4134 
L -19 4666 
z
" transform="scale(0.015625)"/>
     </defs>
     <use xlink:href="#DejaVuSans-54"/>
     <use xlink:href="#DejaVuSans-72" x="46.333984"/>
     <use xlink:href="#DejaVuSans-65" x="85.197266"/>
     <use xlink:href="#DejaVuSans-6e" x="146.720703"/>
     <use xlink:href="#DejaVuSans-64" x="210.099609"/>
     <use xlink:href="#DejaVuSans-20" x="273.576172"/>
     <use xlink:href="#DejaVuSans-46" x="305.363281"/>
     <use xlink:href="#DejaVuSans-69" x="355.632812"/>
     <use xlink:href="#DejaVuSans-74" x="383.416016"/>
    </g>
   </g>
   <g id="legend_2">
    <g id="patch_14">
     <path d="M 41.982813 312.738552 
L 198.660938 312.738552 
Q 200.660938 312.738552 200.660938 310.738552 
L 200.660938 253.026052 
Q 200.660938 251.026052 198.660938 251.026052 
L 41.982813 251.026052 
Q 39.982813 251.026052 39.982813 253.026052 
L 39.982813 310.738552 
Q 39.982813 312.738552 41.982813 312.738552 
z
" style="fill: #eeeeee; opacity: 0.8; stroke: #cccccc; stroke-width: 0.5; stroke-linejoin: miter"/>
    </g>
    <g id="line2d_57">
     <path d="M 43.982813 259.12449 
L 53.982813 259.12449 
L 63.982813 259.12449 
" style="fill: none; stroke: #d55e00; stroke-width: 2; stroke-linecap: square"/>
    </g>
    <g id="text_25">
     <!-- trend + intercept -->
     <g transform="translate(71.982812 262.62449)scale(0.1 -0.1)">
      <defs>
       <path id="DejaVuSans-2b" d="M 2944 4013 
L 2944 2272 
L 4684 2272 
L 4684 1741 
L 2944 1741 
L 2944 0 
L 2419 0 
L 2419 1741 
L 678 1741 
L 678 2272 
L 2419 2272 
L 2419 4013 
L 2944 4013 
z
" transform="scale(0.015625)"/>
      </defs>
      <use xlink:href="#DejaVuSans-74"/>
      <use xlink:href="#DejaVuSans-72" x="39.208984"/>
      <use xlink:href="#DejaVuSans-65" x="78.072266"/>
      <use xlink:href="#DejaVuSans-6e" x="139.595703"/>
      <use xlink:href="#DejaVuSans-64" x="202.974609"/>
      <use xlink:href="#DejaVuSans-20" x="266.451172"/>
      <use xlink:href="#DejaVuSans-2b" x="298.238281"/>
      <use xlink:href="#DejaVuSans-20" x="382.027344"/>
      <use xlink:href="#DejaVuSans-69" x="413.814453"/>
      <use xlink:href="#DejaVuSans-6e" x="441.597656"/>
      <use xlink:href="#DejaVuSans-74" x="504.976562"/>
      <use xlink:href="#DejaVuSans-65" x="544.185547"/>
      <use xlink:href="#DejaVuSans-72" x="605.708984"/>
      <use xlink:href="#DejaVuSans-63" x="644.572266"/>
      <use xlink:href="#DejaVuSans-65" x="699.552734"/>
      <use xlink:href="#DejaVuSans-70" x="761.076172"/>
      <use xlink:href="#DejaVuSans-74" x="824.552734"/>
     </g>
    </g>
    <g id="patch_15">
     <path d="M 43.982813 277.302615 
L 63.982813 277.302615 
L 63.982813 270.302615 
L 43.982813 270.302615 
z
" style="fill: #348abd; fill-opacity: 0.15; stroke: #348abd; stroke-opacity: 0.15; stroke-width: 0.5; stroke-linejoin: miter"/>
    </g>
    <g id="text_26">
     <!-- prediction interval (95%) -->
     <g transform="translate(71.982812 277.302615)scale(0.1 -0.1)">
      <use xlink:href="#DejaVuSans-70"/>
      <use xlink:href="#DejaVuSans-72" x="63.476562"/>
      <use xlink:href="#DejaVuSans-65" x="102.339844"/>
      <use xlink:href="#DejaVuSans-64" x="163.863281"/>
      <use xlink:href="#DejaVuSans-69" x="227.339844"/>
      <use xlink:href="#DejaVuSans-63" x="255.123047"/>
      <use xlink:href="#DejaVuSans-74" x="310.103516"/>
      <use xlink:href="#DejaVuSans-69" x="349.3125"/>
      <use xlink:href="#DejaVuSans-6f" x="377.095703"/>
      <use xlink:href="#DejaVuSans-6e" x="438.277344"/>
      <use xlink:href="#DejaVuSans-20" x="501.65625"/>
      <use xlink:href="#DejaVuSans-69" x="533.443359"/>
      <use xlink:href="#DejaVuSans-6e" x="561.226562"/>
      <use xlink:href="#DejaVuSans-74" x="624.605469"/>
      <use xlink:href="#DejaVuSans-65" x="663.814453"/>
      <use xlink:href="#DejaVuSans-72" x="725.337891"/>
      <use xlink:href="#DejaVuSans-76" x="766.451172"/>
      <use xlink:href="#DejaVuSans-61" x="825.630859"/>
      <use xlink:href="#DejaVuSans-6c" x="886.910156"/>
      <use xlink:href="#DejaVuSans-20" x="914.693359"/>
      <use xlink:href="#DejaVuSans-28" x="946.480469"/>
      <use xlink:href="#DejaVuSans-39" x="985.494141"/>
      <use xlink:href="#DejaVuSans-35" x="1049.117188"/>
      <use xlink:href="#DejaVuSans-25" x="1112.740234"/>
      <use xlink:href="#DejaVuSans-29" x="1207.759766"/>
     </g>
    </g>
    <g id="line2d_58">
     <path d="M 43.982813 288.48074 
L 53.982813 288.48074 
L 63.982813 288.48074 
" style="fill: none; stroke: #348abd; stroke-opacity: 0.8; stroke-width: 2; stroke-linecap: square"/>
    </g>
    <g id="text_27">
     <!-- fitted trend -->
     <g transform="translate(71.982812 291.98074)scale(0.1 -0.1)">
      <use xlink:href="#DejaVuSans-66"/>
      <use xlink:href="#DejaVuSans-69" x="35.205078"/>
      <use xlink:href="#DejaVuSans-74" x="62.988281"/>
      <use xlink:href="#DejaVuSans-74" x="102.197266"/>
      <use xlink:href="#DejaVuSans-65" x="141.40625"/>
      <use xlink:href="#DejaVuSans-64" x="202.929688"/>
      <use xlink:href="#DejaVuSans-20" x="266.40625"/>
      <use xlink:href="#DejaVuSans-74" x="298.193359"/>
      <use xlink:href="#DejaVuSans-72" x="337.402344"/>
      <use xlink:href="#DejaVuSans-65" x="376.265625"/>
      <use xlink:href="#DejaVuSans-6e" x="437.789062"/>
      <use xlink:href="#DejaVuSans-64" x="501.167969"/>
     </g>
    </g>
    <g id="PathCollection_2">
     <g>
      <use xlink:href="#m1415988c55" x="53.982813" y="304.033865" style="fill: #348abd; stroke: #ffffff; stroke-width: 0.565685"/>
     </g>
    </g>
    <g id="text_28">
     <!-- level knots -->
     <g transform="translate(71.982812 306.658865)scale(0.1 -0.1)">
      <defs>
       <path id="DejaVuSans-6b" d="M 581 4863 
L 1159 4863 
L 1159 1991 
L 2875 3500 
L 3609 3500 
L 1753 1863 
L 3688 0 
L 2938 0 
L 1159 1709 
L 1159 0 
L 581 0 
L 581 4863 
z
" transform="scale(0.015625)"/>
      </defs>
      <use xlink:href="#DejaVuSans-6c"/>
      <use xlink:href="#DejaVuSans-65" x="27.783203"/>
      <use xlink:href="#DejaVuSans-76" x="89.306641"/>
      <use xlink:href="#DejaVuSans-65" x="148.486328"/>
      <use xlink:href="#DejaVuSans-6c" x="210.009766"/>
      <use xlink:href="#DejaVuSans-20" x="237.792969"/>
      <use xlink:href="#DejaVuSans-6b" x="269.580078"/>
      <use xlink:href="#DejaVuSans-6e" x="327.490234"/>
      <use xlink:href="#DejaVuSans-6f" x="390.869141"/>
      <use xlink:href="#DejaVuSans-74" x="452.050781"/>
      <use xlink:href="#DejaVuSans-73" x="491.259766"/>
     </g>
    </g>
   </g>
  </g>
  <g id="text_29">
   <!-- KTR Model Components -->
   <g transform="translate(293.106323 16.318125)scale(0.12 -0.12)">
    <defs>
     <path id="DejaVuSans-4b" d="M 628 4666 
L 1259 4666 
L 1259 2694 
L 3353 4666 
L 4166 4666 
L 1850 2491 
L 4331 0 
L 3500 0 
L 1259 2247 
L 1259 0 
L 628 0 
L 628 4666 
z
" transform="scale(0.015625)"/>
     <path id="DejaVuSans-52" d="M 2841 2188 
Q 3044 2119 3236 1894 
Q 3428 1669 3622 1275 
L 4263 0 
L 3584 0 
L 2988 1197 
Q 2756 1666 2539 1819 
Q 2322 1972 1947 1972 
L 1259 1972 
L 1259 0 
L 628 0 
L 628 4666 
L 2053 4666 
Q 2853 4666 3247 4331 
Q 3641 3997 3641 3322 
Q 3641 2881 3436 2590 
Q 3231 2300 2841 2188 
z
M 1259 4147 
L 1259 2491 
L 2053 2491 
Q 2509 2491 2742 2702 
Q 2975 2913 2975 3322 
Q 2975 3731 2742 3939 
Q 2509 4147 2053 4147 
L 1259 4147 
z
" transform="scale(0.015625)"/>
     <path id="DejaVuSans-4d" d="M 628 4666 
L 1569 4666 
L 2759 1491 
L 3956 4666 
L 4897 4666 
L 4897 0 
L 4281 0 
L 4281 4097 
L 3078 897 
L 2444 897 
L 1241 4097 
L 1241 0 
L 628 0 
L 628 4666 
z
" transform="scale(0.015625)"/>
     <path id="DejaVuSans-43" d="M 4122 4306 
L 4122 3641 
Q 3803 3938 3442 4084 
Q 3081 4231 2675 4231 
Q 1875 4231 1450 3742 
Q 1025 3253 1025 2328 
Q 1025 1406 1450 917 
Q 1875 428 2675 428 
Q 3081 428 3442 575 
Q 3803 722 4122 1019 
L 4122 359 
Q 3791 134 3420 21 
Q 3050 -91 2638 -91 
Q 1578 -91 968 557 
Q 359 1206 359 2328 
Q 359 3453 968 4101 
Q 1578 4750 2638 4750 
Q 3056 4750 3426 4639 
Q 3797 4528 4122 4306 
z
" transform="scale(0.015625)"/>
     <path id="DejaVuSans-6d" d="M 3328 2828 
Q 3544 3216 3844 3400 
Q 4144 3584 4550 3584 
Q 5097 3584 5394 3201 
Q 5691 2819 5691 2113 
L 5691 0 
L 5113 0 
L 5113 2094 
Q 5113 2597 4934 2840 
Q 4756 3084 4391 3084 
Q 3944 3084 3684 2787 
Q 3425 2491 3425 1978 
L 3425 0 
L 2847 0 
L 2847 2094 
Q 2847 2600 2669 2842 
Q 2491 3084 2119 3084 
Q 1678 3084 1418 2786 
Q 1159 2488 1159 1978 
L 1159 0 
L 581 0 
L 581 3500 
L 1159 3500 
L 1159 2956 
Q 1356 3278 1631 3431 
Q 1906 3584 2284 3584 
Q 2666 3584 2933 3390 
Q 3200 3197 3328 2828 
z
" transform="scale(0.015625)"/>
    </defs>
    <use xlink:href="#DejaVuSans-4b"/>
    <use xlink:href="#DejaVuSans-54" x="57.826172"/>
    <use xlink:href="#DejaVuSans-52" x="118.910156"/>
    <use xlink:href="#DejaVuSans-20" x="188.392578"/>
    <use xlink:href="#DejaVuSans-4d" x="220.179688"/>
    <use xlink:href="#DejaVuSans-6f" x="306.458984"/>
    <use xlink:href="#DejaVuSans-64" x="367.640625"/>
    <use xlink:href="#DejaVuSans-65" x="431.117188"/>
    <use xlink:href="#DejaVuSans-6c" x="492.640625"/>
    <use xlink:href="#DejaVuSans-20" x="520.423828"/>
    <use xlink:href="#DejaVuSans-43" x="552.210938"/>
    <use xlink:href="#DejaVuSans-6f" x="622.035156"/>
    <use xlink:href="#DejaVuSans-6d" x="683.216797"/>
    <use xlink:href="#DejaVuSans-70" x="780.628906"/>
    <use xlink:href="#DejaVuSans-6f" x="844.105469"/>
    <use xlink:href="#DejaVuSans-6e" x="905.287109"/>
    <use xlink:href="#DejaVuSans-65" x="968.666016"/>
    <use xlink:href="#DejaVuSans-6e" x="1030.189453"/>
    <use xlink:href="#DejaVuSans-74" x="1093.568359"/>
    <use xlink:href="#DejaVuSans-73" x="1132.777344"/>
   </g>
  </g>
 </g>
 <defs>
  <clipPath id="p424591b5b9">
   <rect x="34.982813" y="44.42199" width="686.216707" height="178.661833"/>
  </clipPath>
  <clipPath id="p3753f8ce6e">
   <rect x="34.982813" y="246.026052" width="686.216707" height="178.661833"/>
  </clipPath>
 </defs>
</svg>
