<?xml version="1.0" encoding="utf-8" standalone="no"?>
<!DOCTYPE svg PUBLIC "-//W3C//DTD SVG 1.1//EN"
  "http://www.w3.org/Graphics/SVG/1.1/DTD/svg11.dtd">
<svg xmlns:xlink="http://www.w3.org/1999/xlink" width="728.39952pt" height="440.39952pt" viewBox="0 0 728.39952 440.39952" xmlns="http://www.w3.org/2000/svg" version="1.1">
 <metadata>
  <rdf:RDF xmlns:dc="http://purl.org/dc/elements/1.1/" xmlns:cc="http://creativecommons.org/ns#" xmlns:rdf="http://www.w3.org/1999/02/22-rdf-syntax-ns#">
   <cc:Work>
    <dc:type rdf:resource="http://purl.org/dc/dcmitype/StillImage"/>
    <dc:date>2022-02-03T13:28:24.871205</dc:date>
    <dc:format>image/svg+xml</dc:format>
    <dc:creator>
     <cc:Agent>
      <dc:title>Matplotlib v3.5.1, https://matplotlib.org/</dc:title>
     </cc:Agent>
    </dc:creator>
   </cc:Work>
  </rdf:RDF>
 </metadata>
 <defs>
  <style type="text/css">*{stroke-linejoin: round; stroke-linecap: butt}</style>
 </defs>
 <g id="figure_1">
  <g id="patch_1">
   <path d="M 0 440.39952 
L 728.39952 440.39952 
L 728.39952 0 
L 0 0 
L 0 440.39952 
z
" style="fill: none"/>
  </g>
  <g id="axes_1">
   <g id="patch_2">
    <path d="M 39.3725 211.610697 
L 630.93702 211.610697 
L 630.93702 24.81423 
L 39.3725 24.81423 
z
" style="fill: #eeeeee"/>
   </g>
   <g id="matplotlib.axis_1">
    <g id="xtick_1">
     <g id="line2d_1">
      <path d="M 105.106687 211.610697 
L 105.106687 24.81423 
" clip-path="url(#p7dba0fce19)" style="fill: none; stroke-dasharray: 1.85,0.8; stroke-dashoffset: 0; stroke: #b2b2b2; stroke-width: 0.5"/>
     </g>
     <g id="line2d_2">
      <defs>
       <path id="m7399b18675" d="M 0 0 
L 0 -3.5 
" style="stroke: #000000; stroke-width: 0.8"/>
      </defs>
      <g>
       <use xlink:href="#m7399b18675" x="105.106687" y="211.610697" style="stroke: #000000; stroke-width: 0.8"/>
      </g>
     </g>
    </g>
    <g id="xtick_2">
     <g id="line2d_3">
      <path d="M 184.522907 211.610697 
L 184.522907 24.81423 
" clip-path="url(#p7dba0fce19)" style="fill: none; stroke-dasharray: 1.85,0.8; stroke-dashoffset: 0; stroke: #b2b2b2; stroke-width: 0.5"/>
     </g>
     <g id="line2d_4">
      <g>
       <use xlink:href="#m7399b18675" x="184.522907" y="211.610697" style="stroke: #000000; stroke-width: 0.8"/>
      </g>
     </g>
    </g>
    <g id="xtick_3">
     <g id="line2d_5">
      <path d="M 262.644298 211.610697 
L 262.644298 24.81423 
" clip-path="url(#p7dba0fce19)" style="fill: none; stroke-dasharray: 1.85,0.8; stroke-dashoffset: 0; stroke: #b2b2b2; stroke-width: 0.5"/>
     </g>
     <g id="line2d_6">
      <g>
       <use xlink:href="#m7399b18675" x="262.644298" y="211.610697" style="stroke: #000000; stroke-width: 0.8"/>
      </g>
     </g>
    </g>
    <g id="xtick_4">
     <g id="line2d_7">
      <path d="M 342.060518 211.610697 
L 342.060518 24.81423 
" clip-path="url(#p7dba0fce19)" style="fill: none; stroke-dasharray: 1.85,0.8; stroke-dashoffset: 0; stroke: #b2b2b2; stroke-width: 0.5"/>
     </g>
     <g id="line2d_8">
      <g>
       <use xlink:href="#m7399b18675" x="342.060518" y="211.610697" style="stroke: #000000; stroke-width: 0.8"/>
      </g>
     </g>
    </g>
    <g id="xtick_5">
     <g id="line2d_9">
      <path d="M 420.613519 211.610697 
L 420.613519 24.81423 
" clip-path="url(#p7dba0fce19)" style="fill: none; stroke-dasharray: 1.85,0.8; stroke-dashoffset: 0; stroke: #b2b2b2; stroke-width: 0.5"/>
     </g>
     <g id="line2d_10">
      <g>
       <use xlink:href="#m7399b18675" x="420.613519" y="211.610697" style="stroke: #000000; stroke-width: 0.8"/>
      </g>
     </g>
    </g>
    <g id="xtick_6">
     <g id="line2d_11">
      <path d="M 500.029739 211.610697 
L 500.029739 24.81423 
" clip-path="url(#p7dba0fce19)" style="fill: none; stroke-dasharray: 1.85,0.8; stroke-dashoffset: 0; stroke: #b2b2b2; stroke-width: 0.5"/>
     </g>
     <g id="line2d_12">
      <g>
       <use xlink:href="#m7399b18675" x="500.029739" y="211.610697" style="stroke: #000000; stroke-width: 0.8"/>
      </g>
     </g>
    </g>
    <g id="xtick_7">
     <g id="line2d_13">
      <path d="M 578.15113 211.610697 
L 578.15113 24.81423 
" clip-path="url(#p7dba0fce19)" style="fill: none; stroke-dasharray: 1.85,0.8; stroke-dashoffset: 0; stroke: #b2b2b2; stroke-width: 0.5"/>
     </g>
     <g id="line2d_14">
      <g>
       <use xlink:href="#m7399b18675" x="578.15113" y="211.610697" style="stroke: #000000; stroke-width: 0.8"/>
      </g>
     </g>
    </g>
   </g>
   <g id="matplotlib.axis_2">
    <g id="ytick_1">
     <g id="line2d_15">
      <path d="M 39.3725 203.357831 
L 630.93702 203.357831 
" clip-path="url(#p7dba0fce19)" style="fill: none; stroke-dasharray: 1.85,0.8; stroke-dashoffset: 0; stroke: #b2b2b2; stroke-width: 0.5"/>
     </g>
     <g id="line2d_16">
      <defs>
       <path id="mbd48627d80" d="M 0 0 
L 3.5 0 
" style="stroke: #000000; stroke-width: 0.8"/>
      </defs>
      <g>
       <use xlink:href="#mbd48627d80" x="39.3725" y="203.357831" style="stroke: #000000; stroke-width: 0.8"/>
      </g>
     </g>
     <g id="text_1">
      <!-- 0 -->
      <g transform="translate(29.51 207.15705)scale(0.1 -0.1)">
       <defs>
        <path id="DejaVuSans-30" d="M 2034 4250 
Q 1547 4250 1301 3770 
Q 1056 3291 1056 2328 
Q 1056 1369 1301 889 
Q 1547 409 2034 409 
Q 2525 409 2770 889 
Q 3016 1369 3016 2328 
Q 3016 3291 2770 3770 
Q 2525 4250 2034 4250 
z
M 2034 4750 
Q 2819 4750 3233 4129 
Q 3647 3509 3647 2328 
Q 3647 1150 3233 529 
Q 2819 -91 2034 -91 
Q 1250 -91 836 529 
Q 422 1150 422 2328 
Q 422 3509 836 4129 
Q 1250 4750 2034 4750 
z
" transform="scale(0.015625)"/>
       </defs>
       <use xlink:href="#DejaVuSans-30"/>
      </g>
     </g>
    </g>
    <g id="ytick_2">
     <g id="line2d_17">
      <path d="M 39.3725 168.895352 
L 630.93702 168.895352 
" clip-path="url(#p7dba0fce19)" style="fill: none; stroke-dasharray: 1.85,0.8; stroke-dashoffset: 0; stroke: #b2b2b2; stroke-width: 0.5"/>
     </g>
     <g id="line2d_18">
      <g>
       <use xlink:href="#mbd48627d80" x="39.3725" y="168.895352" style="stroke: #000000; stroke-width: 0.8"/>
      </g>
     </g>
     <g id="text_2">
      <!-- 2 -->
      <g transform="translate(29.51 172.694571)scale(0.1 -0.1)">
       <defs>
        <path id="DejaVuSans-32" d="M 1228 531 
L 3431 531 
L 3431 0 
L 469 0 
L 469 531 
Q 828 903 1448 1529 
Q 2069 2156 2228 2338 
Q 2531 2678 2651 2914 
Q 2772 3150 2772 3378 
Q 2772 3750 2511 3984 
Q 2250 4219 1831 4219 
Q 1534 4219 1204 4116 
Q 875 4013 500 3803 
L 500 4441 
Q 881 4594 1212 4672 
Q 1544 4750 1819 4750 
Q 2544 4750 2975 4387 
Q 3406 4025 3406 3419 
Q 3406 3131 3298 2873 
Q 3191 2616 2906 2266 
Q 2828 2175 2409 1742 
Q 1991 1309 1228 531 
z
" transform="scale(0.015625)"/>
       </defs>
       <use xlink:href="#DejaVuSans-32"/>
      </g>
     </g>
    </g>
    <g id="ytick_3">
     <g id="line2d_19">
      <path d="M 39.3725 134.432873 
L 630.93702 134.432873 
" clip-path="url(#p7dba0fce19)" style="fill: none; stroke-dasharray: 1.85,0.8; stroke-dashoffset: 0; stroke: #b2b2b2; stroke-width: 0.5"/>
     </g>
     <g id="line2d_20">
      <g>
       <use xlink:href="#mbd48627d80" x="39.3725" y="134.432873" style="stroke: #000000; stroke-width: 0.8"/>
      </g>
     </g>
     <g id="text_3">
      <!-- 4 -->
      <g transform="translate(29.51 138.232092)scale(0.1 -0.1)">
       <defs>
        <path id="DejaVuSans-34" d="M 2419 4116 
L 825 1625 
L 2419 1625 
L 2419 4116 
z
M 2253 4666 
L 3047 4666 
L 3047 1625 
L 3713 1625 
L 3713 1100 
L 3047 1100 
L 3047 0 
L 2419 0 
L 2419 1100 
L 313 1100 
L 313 1709 
L 2253 4666 
z
" transform="scale(0.015625)"/>
       </defs>
       <use xlink:href="#DejaVuSans-34"/>
      </g>
     </g>
    </g>
    <g id="ytick_4">
     <g id="line2d_21">
      <path d="M 39.3725 99.970394 
L 630.93702 99.970394 
" clip-path="url(#p7dba0fce19)" style="fill: none; stroke-dasharray: 1.85,0.8; stroke-dashoffset: 0; stroke: #b2b2b2; stroke-width: 0.5"/>
     </g>
     <g id="line2d_22">
      <g>
       <use xlink:href="#mbd48627d80" x="39.3725" y="99.970394" style="stroke: #000000; stroke-width: 0.8"/>
      </g>
     </g>
     <g id="text_4">
      <!-- 6 -->
      <g transform="translate(29.51 103.769612)scale(0.1 -0.1)">
       <defs>
        <path id="DejaVuSans-36" d="M 2113 2584 
Q 1688 2584 1439 2293 
Q 1191 2003 1191 1497 
Q 1191 994 1439 701 
Q 1688 409 2113 409 
Q 2538 409 2786 701 
Q 3034 994 3034 1497 
Q 3034 2003 2786 2293 
Q 2538 2584 2113 2584 
z
M 3366 4563 
L 3366 3988 
Q 3128 4100 2886 4159 
Q 2644 4219 2406 4219 
Q 1781 4219 1451 3797 
Q 1122 3375 1075 2522 
Q 1259 2794 1537 2939 
Q 1816 3084 2150 3084 
Q 2853 3084 3261 2657 
Q 3669 2231 3669 1497 
Q 3669 778 3244 343 
Q 2819 -91 2113 -91 
Q 1303 -91 875 529 
Q 447 1150 447 2328 
Q 447 3434 972 4092 
Q 1497 4750 2381 4750 
Q 2619 4750 2861 4703 
Q 3103 4656 3366 4563 
z
" transform="scale(0.015625)"/>
       </defs>
       <use xlink:href="#DejaVuSans-36"/>
      </g>
     </g>
    </g>
    <g id="ytick_5">
     <g id="line2d_23">
      <path d="M 39.3725 65.507914 
L 630.93702 65.507914 
" clip-path="url(#p7dba0fce19)" style="fill: none; stroke-dasharray: 1.85,0.8; stroke-dashoffset: 0; stroke: #b2b2b2; stroke-width: 0.5"/>
     </g>
     <g id="line2d_24">
      <g>
       <use xlink:href="#mbd48627d80" x="39.3725" y="65.507914" style="stroke: #000000; stroke-width: 0.8"/>
      </g>
     </g>
     <g id="text_5">
      <!-- 8 -->
      <g transform="translate(29.51 69.307133)scale(0.1 -0.1)">
       <defs>
        <path id="DejaVuSans-38" d="M 2034 2216 
Q 1584 2216 1326 1975 
Q 1069 1734 1069 1313 
Q 1069 891 1326 650 
Q 1584 409 2034 409 
Q 2484 409 2743 651 
Q 3003 894 3003 1313 
Q 3003 1734 2745 1975 
Q 2488 2216 2034 2216 
z
M 1403 2484 
Q 997 2584 770 2862 
Q 544 3141 544 3541 
Q 544 4100 942 4425 
Q 1341 4750 2034 4750 
Q 2731 4750 3128 4425 
Q 3525 4100 3525 3541 
Q 3525 3141 3298 2862 
Q 3072 2584 2669 2484 
Q 3125 2378 3379 2068 
Q 3634 1759 3634 1313 
Q 3634 634 3220 271 
Q 2806 -91 2034 -91 
Q 1263 -91 848 271 
Q 434 634 434 1313 
Q 434 1759 690 2068 
Q 947 2378 1403 2484 
z
M 1172 3481 
Q 1172 3119 1398 2916 
Q 1625 2713 2034 2713 
Q 2441 2713 2670 2916 
Q 2900 3119 2900 3481 
Q 2900 3844 2670 4047 
Q 2441 4250 2034 4250 
Q 1625 4250 1398 4047 
Q 1172 3844 1172 3481 
z
" transform="scale(0.015625)"/>
       </defs>
       <use xlink:href="#DejaVuSans-38"/>
      </g>
     </g>
    </g>
    <g id="ytick_6">
     <g id="line2d_25">
      <path d="M 39.3725 31.045435 
L 630.93702 31.045435 
" clip-path="url(#p7dba0fce19)" style="fill: none; stroke-dasharray: 1.85,0.8; stroke-dashoffset: 0; stroke: #b2b2b2; stroke-width: 0.5"/>
     </g>
     <g id="line2d_26">
      <g>
       <use xlink:href="#mbd48627d80" x="39.3725" y="31.045435" style="stroke: #000000; stroke-width: 0.8"/>
      </g>
     </g>
     <g id="text_6">
      <!-- 10 -->
      <g transform="translate(23.1475 34.844654)scale(0.1 -0.1)">
       <defs>
        <path id="DejaVuSans-31" d="M 794 531 
L 1825 531 
L 1825 4091 
L 703 3866 
L 703 4441 
L 1819 4666 
L 2450 4666 
L 2450 531 
L 3481 531 
L 3481 0 
L 794 0 
L 794 531 
z
" transform="scale(0.015625)"/>
       </defs>
       <use xlink:href="#DejaVuSans-31"/>
       <use xlink:href="#DejaVuSans-30" x="63.623047"/>
      </g>
     </g>
    </g>
    <g id="text_7">
     <!-- z -->
     <g transform="translate(16.651875 121.361526)rotate(-90)scale(0.12 -0.12)">
      <defs>
       <path id="DejaVuSans-7a" d="M 353 3500 
L 3084 3500 
L 3084 2975 
L 922 459 
L 3084 459 
L 3084 0 
L 275 0 
L 275 525 
L 2438 3041 
L 353 3041 
L 353 3500 
z
" transform="scale(0.015625)"/>
      </defs>
      <use xlink:href="#DejaVuSans-7a"/>
     </g>
    </g>
   </g>
   <g id="line2d_27">
    <path d="M 66.261796 187.223355 
L 69.283066 39.537971 
L 72.304335 77.226201 
L 75.325604 100.201553 
L 78.346873 196.636845 
L 81.368143 196.637884 
L 84.389412 200.8557 
L 87.410681 54.104944 
L 90.43195 99.778263 
L 93.45322 81.348149 
L 96.474489 202.47109 
L 99.495758 36.230341 
L 102.517027 59.917645 
L 105.538297 194.210666 
L 108.559566 195.525157 
L 111.580835 195.457114 
L 114.602104 190.251654 
L 117.623374 112.935793 
L 120.644643 128.92835 
L 123.665912 190.812234 
L 126.687181 97.927993 
L 129.708451 197.348701 
L 132.72972 190.772795 
L 135.750989 187.57566 
L 138.772258 124.771319 
L 141.793528 68.06228 
L 144.814797 194.756264 
L 147.836066 114.748863 
L 150.857335 101.277457 
L 153.878605 201.356836 
L 156.899874 98.670322 
L 159.921143 196.011976 
L 162.942413 200.555532 
L 165.963682 39.853091 
L 168.984951 36.967462 
L 172.00622 64.060947 
L 175.02749 190.235649 
L 178.048759 199.150302 
L 181.070028 85.455999 
L 184.091297 127.5141 
L 187.112567 198.100656 
L 190.133836 118.032711 
L 193.155105 201.876439 
L 196.176374 46.670654 
L 199.197644 192.210082 
L 202.218913 89.197029 
L 205.240182 189.929911 
L 208.261451 113.743664 
L 211.282721 109.152873 
L 214.30399 195.394653 
L 217.325259 36.286381 
L 220.346528 69.792837 
L 223.367798 41.470517 
L 226.389067 49.167986 
L 229.410336 100.332253 
L 232.431605 44.507473 
L 235.452875 199.545743 
L 238.474144 194.915262 
L 241.495413 201.409526 
L 244.516682 189.343219 
L 247.537952 186.614353 
L 250.559221 191.668631 
L 253.58049 60.556085 
L 256.601759 187.989576 
L 259.623029 191.255707 
L 262.644298 109.844569 
L 265.665567 197.287084 
L 268.686836 65.129347 
L 271.708106 200.146331 
L 274.729375 33.304979 
L 277.750644 70.290485 
L 280.771913 194.797537 
L 283.793183 203.119949 
L 286.814452 62.843719 
L 289.835721 81.557549 
L 292.85699 77.740859 
L 295.87826 70.45839 
L 298.899529 200.168128 
L 301.920798 187.915809 
L 304.942067 198.366412 
L 307.963337 54.634412 
L 310.984606 95.955838 
L 314.005875 189.103373 
L 317.027144 200.619858 
L 320.048414 189.961304 
L 323.069683 189.349552 
L 326.090952 77.637642 
L 329.112221 93.498776 
L 332.133491 50.480078 
L 335.15476 121.989346 
L 338.176029 198.205939 
L 341.197299 80.456913 
L 344.218568 72.265137 
L 347.239837 106.642812 
L 350.261106 70.510629 
L 353.282376 118.270729 
L 356.303645 113.284485 
L 359.324914 129.687214 
L 362.346183 202.262824 
L 365.367453 198.710074 
L 368.388722 202.003922 
L 371.409991 93.696428 
L 374.43126 189.815973 
L 377.45253 115.724797 
L 380.473799 46.972878 
L 383.495068 192.618796 
L 389.537607 73.167004 
L 392.558876 193.501641 
L 395.580145 200.041683 
L 398.601414 190.87589 
L 401.622684 196.412725 
L 404.643953 43.159401 
L 407.665222 64.108672 
L 410.686491 94.214512 
L 413.707761 53.194369 
L 416.72903 64.87517 
L 419.750299 195.320748 
L 422.771568 49.558852 
L 425.792838 110.422477 
L 428.814107 64.225883 
L 431.835376 48.950192 
L 434.856645 189.658846 
L 437.877915 198.617004 
L 440.899184 193.538818 
L 443.920453 129.761865 
L 446.941722 62.403747 
L 449.962992 55.043282 
L 452.984261 203.058347 
L 456.00553 115.34974 
L 459.026799 131.432741 
L 462.048069 193.789849 
L 465.069338 198.194259 
L 468.090607 188.814011 
L 471.111876 40.882801 
L 474.133146 189.434863 
L 477.154415 113.963776 
L 480.175684 82.21895 
L 483.196953 187.693359 
L 486.218223 35.907732 
L 489.239492 37.516232 
L 492.260761 192.511529 
L 495.28203 117.67575 
L 498.3033 190.396566 
L 501.324569 191.087444 
L 504.345838 201.768812 
L 507.367107 98.32234 
L 510.388377 116.740004 
L 513.409646 201.140225 
L 516.430915 191.354271 
L 519.452185 46.85236 
L 522.473454 193.03796 
L 525.494723 197.116036 
L 528.515992 119.019053 
L 531.537262 33.51804 
L 534.558531 192.93055 
L 537.5798 87.540545 
L 540.601069 72.12133 
L 543.622339 193.120858 
L 546.643608 77.877127 
L 549.664877 187.514433 
L 552.686146 94.403699 
L 555.707416 94.192809 
L 558.728685 111.037212 
L 561.749954 199.46832 
L 564.771223 59.424857 
L 567.792493 189.539236 
L 570.813762 195.322968 
L 573.835031 201.601316 
L 576.8563 101.539652 
L 579.87757 86.605093 
L 582.898839 202.643259 
L 585.920108 115.117849 
L 588.941377 193.600824 
L 591.962647 92.186562 
L 594.983916 195.846457 
L 598.005185 84.300694 
L 601.026454 186.698008 
L 604.047724 41.947642 
L 604.047724 41.947642 
" clip-path="url(#p7dba0fce19)" style="fill: none; stroke: #348abd; stroke-width: 2; stroke-linecap: square"/>
   </g>
   <g id="patch_3">
    <path d="M 39.3725 211.610697 
L 39.3725 24.81423 
" style="fill: none; stroke: #bcbcbc; stroke-width: 0.8; stroke-linejoin: miter; stroke-linecap: square"/>
   </g>
   <g id="patch_4">
    <path d="M 630.93702 211.610697 
L 630.93702 24.81423 
" style="fill: none; stroke: #bcbcbc; stroke-width: 0.8; stroke-linejoin: miter; stroke-linecap: square"/>
   </g>
   <g id="patch_5">
    <path d="M 39.3725 211.610697 
L 630.93702 211.610697 
" style="fill: none; stroke: #bcbcbc; stroke-width: 0.8; stroke-linejoin: miter; stroke-linecap: square"/>
   </g>
   <g id="patch_6">
    <path d="M 39.3725 24.81423 
L 630.93702 24.81423 
" style="fill: none; stroke: #bcbcbc; stroke-width: 0.8; stroke-linejoin: miter; stroke-linecap: square"/>
   </g>
   <g id="legend_1">
    <g id="patch_7">
     <path d="M 637.93702 127.051526 
L 675.185457 127.051526 
Q 677.185457 127.051526 677.185457 125.051526 
L 677.185457 111.373401 
Q 677.185457 109.373401 675.185457 109.373401 
L 637.93702 109.373401 
Q 635.93702 109.373401 635.93702 111.373401 
L 635.93702 125.051526 
Q 635.93702 127.051526 637.93702 127.051526 
z
" style="fill: #eeeeee; opacity: 0.8; stroke: #cccccc; stroke-width: 0.5; stroke-linejoin: miter"/>
    </g>
    <g id="line2d_28">
     <path d="M 639.93702 117.471839 
L 649.93702 117.471839 
L 659.93702 117.471839 
" style="fill: none; stroke: #348abd; stroke-width: 2; stroke-linecap: square"/>
    </g>
    <g id="text_8">
     <!-- z -->
     <g transform="translate(667.93702 120.971839)scale(0.1 -0.1)">
      <use xlink:href="#DejaVuSans-7a"/>
     </g>
    </g>
   </g>
  </g>
  <g id="axes_2">
   <g id="patch_8">
    <path d="M 39.3725 404.407645 
L 630.93702 404.407645 
L 630.93702 217.611177 
L 39.3725 217.611177 
z
" style="fill: #eeeeee"/>
   </g>
   <g id="matplotlib.axis_3">
    <g id="xtick_8">
     <g id="line2d_29">
      <path d="M 105.106687 404.407645 
L 105.106687 217.611177 
" clip-path="url(#p0bd6d0e550)" style="fill: none; stroke-dasharray: 1.85,0.8; stroke-dashoffset: 0; stroke: #b2b2b2; stroke-width: 0.5"/>
     </g>
     <g id="line2d_30">
      <g>
       <use xlink:href="#m7399b18675" x="105.106687" y="404.407645" style="stroke: #000000; stroke-width: 0.8"/>
      </g>
     </g>
     <g id="text_9">
      <!-- 2018-07 -->
      <g transform="translate(84.215281 415.506082)scale(0.1 -0.1)">
       <defs>
        <path id="DejaVuSans-2d" d="M 313 2009 
L 1997 2009 
L 1997 1497 
L 313 1497 
L 313 2009 
z
" transform="scale(0.015625)"/>
        <path id="DejaVuSans-37" d="M 525 4666 
L 3525 4666 
L 3525 4397 
L 1831 0 
L 1172 0 
L 2766 4134 
L 525 4134 
L 525 4666 
z
" transform="scale(0.015625)"/>
       </defs>
       <use xlink:href="#DejaVuSans-32"/>
       <use xlink:href="#DejaVuSans-30" x="63.623047"/>
       <use xlink:href="#DejaVuSans-31" x="127.246094"/>
       <use xlink:href="#DejaVuSans-38" x="190.869141"/>
       <use xlink:href="#DejaVuSans-2d" x="254.492188"/>
       <use xlink:href="#DejaVuSans-30" x="290.576172"/>
       <use xlink:href="#DejaVuSans-37" x="354.199219"/>
      </g>
     </g>
    </g>
    <g id="xtick_9">
     <g id="line2d_31">
      <path d="M 184.522907 404.407645 
L 184.522907 217.611177 
" clip-path="url(#p0bd6d0e550)" style="fill: none; stroke-dasharray: 1.85,0.8; stroke-dashoffset: 0; stroke: #b2b2b2; stroke-width: 0.5"/>
     </g>
     <g id="line2d_32">
      <g>
       <use xlink:href="#m7399b18675" x="184.522907" y="404.407645" style="stroke: #000000; stroke-width: 0.8"/>
      </g>
     </g>
     <g id="text_10">
      <!-- 2019-01 -->
      <g transform="translate(163.631501 415.506082)scale(0.1 -0.1)">
       <defs>
        <path id="DejaVuSans-39" d="M 703 97 
L 703 672 
Q 941 559 1184 500 
Q 1428 441 1663 441 
Q 2288 441 2617 861 
Q 2947 1281 2994 2138 
Q 2813 1869 2534 1725 
Q 2256 1581 1919 1581 
Q 1219 1581 811 2004 
Q 403 2428 403 3163 
Q 403 3881 828 4315 
Q 1253 4750 1959 4750 
Q 2769 4750 3195 4129 
Q 3622 3509 3622 2328 
Q 3622 1225 3098 567 
Q 2575 -91 1691 -91 
Q 1453 -91 1209 -44 
Q 966 3 703 97 
z
M 1959 2075 
Q 2384 2075 2632 2365 
Q 2881 2656 2881 3163 
Q 2881 3666 2632 3958 
Q 2384 4250 1959 4250 
Q 1534 4250 1286 3958 
Q 1038 3666 1038 3163 
Q 1038 2656 1286 2365 
Q 1534 2075 1959 2075 
z
" transform="scale(0.015625)"/>
       </defs>
       <use xlink:href="#DejaVuSans-32"/>
       <use xlink:href="#DejaVuSans-30" x="63.623047"/>
       <use xlink:href="#DejaVuSans-31" x="127.246094"/>
       <use xlink:href="#DejaVuSans-39" x="190.869141"/>
       <use xlink:href="#DejaVuSans-2d" x="254.492188"/>
       <use xlink:href="#DejaVuSans-30" x="290.576172"/>
       <use xlink:href="#DejaVuSans-31" x="354.199219"/>
      </g>
     </g>
    </g>
    <g id="xtick_10">
     <g id="line2d_33">
      <path d="M 262.644298 404.407645 
L 262.644298 217.611177 
" clip-path="url(#p0bd6d0e550)" style="fill: none; stroke-dasharray: 1.85,0.8; stroke-dashoffset: 0; stroke: #b2b2b2; stroke-width: 0.5"/>
     </g>
     <g id="line2d_34">
      <g>
       <use xlink:href="#m7399b18675" x="262.644298" y="404.407645" style="stroke: #000000; stroke-width: 0.8"/>
      </g>
     </g>
     <g id="text_11">
      <!-- 2019-07 -->
      <g transform="translate(241.752892 415.506082)scale(0.1 -0.1)">
       <use xlink:href="#DejaVuSans-32"/>
       <use xlink:href="#DejaVuSans-30" x="63.623047"/>
       <use xlink:href="#DejaVuSans-31" x="127.246094"/>
       <use xlink:href="#DejaVuSans-39" x="190.869141"/>
       <use xlink:href="#DejaVuSans-2d" x="254.492188"/>
       <use xlink:href="#DejaVuSans-30" x="290.576172"/>
       <use xlink:href="#DejaVuSans-37" x="354.199219"/>
      </g>
     </g>
    </g>
    <g id="xtick_11">
     <g id="line2d_35">
      <path d="M 342.060518 404.407645 
L 342.060518 217.611177 
" clip-path="url(#p0bd6d0e550)" style="fill: none; stroke-dasharray: 1.85,0.8; stroke-dashoffset: 0; stroke: #b2b2b2; stroke-width: 0.5"/>
     </g>
     <g id="line2d_36">
      <g>
       <use xlink:href="#m7399b18675" x="342.060518" y="404.407645" style="stroke: #000000; stroke-width: 0.8"/>
      </g>
     </g>
     <g id="text_12">
      <!-- 2020-01 -->
      <g transform="translate(321.169112 415.506082)scale(0.1 -0.1)">
       <use xlink:href="#DejaVuSans-32"/>
       <use xlink:href="#DejaVuSans-30" x="63.623047"/>
       <use xlink:href="#DejaVuSans-32" x="127.246094"/>
       <use xlink:href="#DejaVuSans-30" x="190.869141"/>
       <use xlink:href="#DejaVuSans-2d" x="254.492188"/>
       <use xlink:href="#DejaVuSans-30" x="290.576172"/>
       <use xlink:href="#DejaVuSans-31" x="354.199219"/>
      </g>
     </g>
    </g>
    <g id="xtick_12">
     <g id="line2d_37">
      <path d="M 420.613519 404.407645 
L 420.613519 217.611177 
" clip-path="url(#p0bd6d0e550)" style="fill: none; stroke-dasharray: 1.85,0.8; stroke-dashoffset: 0; stroke: #b2b2b2; stroke-width: 0.5"/>
     </g>
     <g id="line2d_38">
      <g>
       <use xlink:href="#m7399b18675" x="420.613519" y="404.407645" style="stroke: #000000; stroke-width: 0.8"/>
      </g>
     </g>
     <g id="text_13">
      <!-- 2020-07 -->
      <g transform="translate(399.722113 415.506082)scale(0.1 -0.1)">
       <use xlink:href="#DejaVuSans-32"/>
       <use xlink:href="#DejaVuSans-30" x="63.623047"/>
       <use xlink:href="#DejaVuSans-32" x="127.246094"/>
       <use xlink:href="#DejaVuSans-30" x="190.869141"/>
       <use xlink:href="#DejaVuSans-2d" x="254.492188"/>
       <use xlink:href="#DejaVuSans-30" x="290.576172"/>
       <use xlink:href="#DejaVuSans-37" x="354.199219"/>
      </g>
     </g>
    </g>
    <g id="xtick_13">
     <g id="line2d_39">
      <path d="M 500.029739 404.407645 
L 500.029739 217.611177 
" clip-path="url(#p0bd6d0e550)" style="fill: none; stroke-dasharray: 1.85,0.8; stroke-dashoffset: 0; stroke: #b2b2b2; stroke-width: 0.5"/>
     </g>
     <g id="line2d_40">
      <g>
       <use xlink:href="#m7399b18675" x="500.029739" y="404.407645" style="stroke: #000000; stroke-width: 0.8"/>
      </g>
     </g>
     <g id="text_14">
      <!-- 2021-01 -->
      <g transform="translate(479.138333 415.506082)scale(0.1 -0.1)">
       <use xlink:href="#DejaVuSans-32"/>
       <use xlink:href="#DejaVuSans-30" x="63.623047"/>
       <use xlink:href="#DejaVuSans-32" x="127.246094"/>
       <use xlink:href="#DejaVuSans-31" x="190.869141"/>
       <use xlink:href="#DejaVuSans-2d" x="254.492188"/>
       <use xlink:href="#DejaVuSans-30" x="290.576172"/>
       <use xlink:href="#DejaVuSans-31" x="354.199219"/>
      </g>
     </g>
    </g>
    <g id="xtick_14">
     <g id="line2d_41">
      <path d="M 578.15113 404.407645 
L 578.15113 217.611177 
" clip-path="url(#p0bd6d0e550)" style="fill: none; stroke-dasharray: 1.85,0.8; stroke-dashoffset: 0; stroke: #b2b2b2; stroke-width: 0.5"/>
     </g>
     <g id="line2d_42">
      <g>
       <use xlink:href="#m7399b18675" x="578.15113" y="404.407645" style="stroke: #000000; stroke-width: 0.8"/>
      </g>
     </g>
     <g id="text_15">
      <!-- 2021-07 -->
      <g transform="translate(557.259724 415.506082)scale(0.1 -0.1)">
       <use xlink:href="#DejaVuSans-32"/>
       <use xlink:href="#DejaVuSans-30" x="63.623047"/>
       <use xlink:href="#DejaVuSans-32" x="127.246094"/>
       <use xlink:href="#DejaVuSans-31" x="190.869141"/>
       <use xlink:href="#DejaVuSans-2d" x="254.492188"/>
       <use xlink:href="#DejaVuSans-30" x="290.576172"/>
       <use xlink:href="#DejaVuSans-37" x="354.199219"/>
      </g>
     </g>
    </g>
    <g id="text_16">
     <!-- date -->
     <g transform="translate(321.62476 430.703895)scale(0.12 -0.12)">
      <defs>
       <path id="DejaVuSans-64" d="M 2906 2969 
L 2906 4863 
L 3481 4863 
L 3481 0 
L 2906 0 
L 2906 525 
Q 2725 213 2448 61 
Q 2172 -91 1784 -91 
Q 1150 -91 751 415 
Q 353 922 353 1747 
Q 353 2572 751 3078 
Q 1150 3584 1784 3584 
Q 2172 3584 2448 3432 
Q 2725 3281 2906 2969 
z
M 947 1747 
Q 947 1113 1208 752 
Q 1469 391 1925 391 
Q 2381 391 2643 752 
Q 2906 1113 2906 1747 
Q 2906 2381 2643 2742 
Q 2381 3103 1925 3103 
Q 1469 3103 1208 2742 
Q 947 2381 947 1747 
z
" transform="scale(0.015625)"/>
       <path id="DejaVuSans-61" d="M 2194 1759 
Q 1497 1759 1228 1600 
Q 959 1441 959 1056 
Q 959 750 1161 570 
Q 1363 391 1709 391 
Q 2188 391 2477 730 
Q 2766 1069 2766 1631 
L 2766 1759 
L 2194 1759 
z
M 3341 1997 
L 3341 0 
L 2766 0 
L 2766 531 
Q 2569 213 2275 61 
Q 1981 -91 1556 -91 
Q 1019 -91 701 211 
Q 384 513 384 1019 
Q 384 1609 779 1909 
Q 1175 2209 1959 2209 
L 2766 2209 
L 2766 2266 
Q 2766 2663 2505 2880 
Q 2244 3097 1772 3097 
Q 1472 3097 1187 3025 
Q 903 2953 641 2809 
L 641 3341 
Q 956 3463 1253 3523 
Q 1550 3584 1831 3584 
Q 2591 3584 2966 3190 
Q 3341 2797 3341 1997 
z
" transform="scale(0.015625)"/>
       <path id="DejaVuSans-74" d="M 1172 4494 
L 1172 3500 
L 2356 3500 
L 2356 3053 
L 1172 3053 
L 1172 1153 
Q 1172 725 1289 603 
Q 1406 481 1766 481 
L 2356 481 
L 2356 0 
L 1766 0 
Q 1100 0 847 248 
Q 594 497 594 1153 
L 594 3053 
L 172 3053 
L 172 3500 
L 594 3500 
L 594 4494 
L 1172 4494 
z
" transform="scale(0.015625)"/>
       <path id="DejaVuSans-65" d="M 3597 1894 
L 3597 1613 
L 953 1613 
Q 991 1019 1311 708 
Q 1631 397 2203 397 
Q 2534 397 2845 478 
Q 3156 559 3463 722 
L 3463 178 
Q 3153 47 2828 -22 
Q 2503 -91 2169 -91 
Q 1331 -91 842 396 
Q 353 884 353 1716 
Q 353 2575 817 3079 
Q 1281 3584 2069 3584 
Q 2775 3584 3186 3129 
Q 3597 2675 3597 1894 
z
M 3022 2063 
Q 3016 2534 2758 2815 
Q 2500 3097 2075 3097 
Q 1594 3097 1305 2825 
Q 1016 2553 972 2059 
L 3022 2063 
z
" transform="scale(0.015625)"/>
      </defs>
      <use xlink:href="#DejaVuSans-64"/>
      <use xlink:href="#DejaVuSans-61" x="63.476562"/>
      <use xlink:href="#DejaVuSans-74" x="124.755859"/>
      <use xlink:href="#DejaVuSans-65" x="163.964844"/>
     </g>
    </g>
   </g>
   <g id="matplotlib.axis_4">
    <g id="ytick_7">
     <g id="line2d_43">
      <path d="M 39.3725 384.755146 
L 630.93702 384.755146 
" clip-path="url(#p0bd6d0e550)" style="fill: none; stroke-dasharray: 1.85,0.8; stroke-dashoffset: 0; stroke: #b2b2b2; stroke-width: 0.5"/>
     </g>
     <g id="line2d_44">
      <g>
       <use xlink:href="#mbd48627d80" x="39.3725" y="384.755146" style="stroke: #000000; stroke-width: 0.8"/>
      </g>
     </g>
     <g id="text_17">
      <!-- 2 -->
      <g transform="translate(29.51 388.554364)scale(0.1 -0.1)">
       <use xlink:href="#DejaVuSans-32"/>
      </g>
     </g>
    </g>
    <g id="ytick_8">
     <g id="line2d_45">
      <path d="M 39.3725 363.767501 
L 630.93702 363.767501 
" clip-path="url(#p0bd6d0e550)" style="fill: none; stroke-dasharray: 1.85,0.8; stroke-dashoffset: 0; stroke: #b2b2b2; stroke-width: 0.5"/>
     </g>
     <g id="line2d_46">
      <g>
       <use xlink:href="#mbd48627d80" x="39.3725" y="363.767501" style="stroke: #000000; stroke-width: 0.8"/>
      </g>
     </g>
     <g id="text_18">
      <!-- 4 -->
      <g transform="translate(29.51 367.56672)scale(0.1 -0.1)">
       <use xlink:href="#DejaVuSans-34"/>
      </g>
     </g>
    </g>
    <g id="ytick_9">
     <g id="line2d_47">
      <path d="M 39.3725 342.779857 
L 630.93702 342.779857 
" clip-path="url(#p0bd6d0e550)" style="fill: none; stroke-dasharray: 1.85,0.8; stroke-dashoffset: 0; stroke: #b2b2b2; stroke-width: 0.5"/>
     </g>
     <g id="line2d_48">
      <g>
       <use xlink:href="#mbd48627d80" x="39.3725" y="342.779857" style="stroke: #000000; stroke-width: 0.8"/>
      </g>
     </g>
     <g id="text_19">
      <!-- 6 -->
      <g transform="translate(29.51 346.579075)scale(0.1 -0.1)">
       <use xlink:href="#DejaVuSans-36"/>
      </g>
     </g>
    </g>
    <g id="ytick_10">
     <g id="line2d_49">
      <path d="M 39.3725 321.792212 
L 630.93702 321.792212 
" clip-path="url(#p0bd6d0e550)" style="fill: none; stroke-dasharray: 1.85,0.8; stroke-dashoffset: 0; stroke: #b2b2b2; stroke-width: 0.5"/>
     </g>
     <g id="line2d_50">
      <g>
       <use xlink:href="#mbd48627d80" x="39.3725" y="321.792212" style="stroke: #000000; stroke-width: 0.8"/>
      </g>
     </g>
     <g id="text_20">
      <!-- 8 -->
      <g transform="translate(29.51 325.591431)scale(0.1 -0.1)">
       <use xlink:href="#DejaVuSans-38"/>
      </g>
     </g>
    </g>
    <g id="ytick_11">
     <g id="line2d_51">
      <path d="M 39.3725 300.804568 
L 630.93702 300.804568 
" clip-path="url(#p0bd6d0e550)" style="fill: none; stroke-dasharray: 1.85,0.8; stroke-dashoffset: 0; stroke: #b2b2b2; stroke-width: 0.5"/>
     </g>
     <g id="line2d_52">
      <g>
       <use xlink:href="#mbd48627d80" x="39.3725" y="300.804568" style="stroke: #000000; stroke-width: 0.8"/>
      </g>
     </g>
     <g id="text_21">
      <!-- 10 -->
      <g transform="translate(23.1475 304.603786)scale(0.1 -0.1)">
       <use xlink:href="#DejaVuSans-31"/>
       <use xlink:href="#DejaVuSans-30" x="63.623047"/>
      </g>
     </g>
    </g>
    <g id="ytick_12">
     <g id="line2d_53">
      <path d="M 39.3725 279.816923 
L 630.93702 279.816923 
" clip-path="url(#p0bd6d0e550)" style="fill: none; stroke-dasharray: 1.85,0.8; stroke-dashoffset: 0; stroke: #b2b2b2; stroke-width: 0.5"/>
     </g>
     <g id="line2d_54">
      <g>
       <use xlink:href="#mbd48627d80" x="39.3725" y="279.816923" style="stroke: #000000; stroke-width: 0.8"/>
      </g>
     </g>
     <g id="text_22">
      <!-- 12 -->
      <g transform="translate(23.1475 283.616142)scale(0.1 -0.1)">
       <use xlink:href="#DejaVuSans-31"/>
       <use xlink:href="#DejaVuSans-32" x="63.623047"/>
      </g>
     </g>
    </g>
    <g id="ytick_13">
     <g id="line2d_55">
      <path d="M 39.3725 258.829279 
L 630.93702 258.829279 
" clip-path="url(#p0bd6d0e550)" style="fill: none; stroke-dasharray: 1.85,0.8; stroke-dashoffset: 0; stroke: #b2b2b2; stroke-width: 0.5"/>
     </g>
     <g id="line2d_56">
      <g>
       <use xlink:href="#mbd48627d80" x="39.3725" y="258.829279" style="stroke: #000000; stroke-width: 0.8"/>
      </g>
     </g>
     <g id="text_23">
      <!-- 14 -->
      <g transform="translate(23.1475 262.628498)scale(0.1 -0.1)">
       <use xlink:href="#DejaVuSans-31"/>
       <use xlink:href="#DejaVuSans-34" x="63.623047"/>
      </g>
     </g>
    </g>
    <g id="ytick_14">
     <g id="line2d_57">
      <path d="M 39.3725 237.841634 
L 630.93702 237.841634 
" clip-path="url(#p0bd6d0e550)" style="fill: none; stroke-dasharray: 1.85,0.8; stroke-dashoffset: 0; stroke: #b2b2b2; stroke-width: 0.5"/>
     </g>
     <g id="line2d_58">
      <g>
       <use xlink:href="#mbd48627d80" x="39.3725" y="237.841634" style="stroke: #000000; stroke-width: 0.8"/>
      </g>
     </g>
     <g id="text_24">
      <!-- 16 -->
      <g transform="translate(23.1475 241.640853)scale(0.1 -0.1)">
       <use xlink:href="#DejaVuSans-31"/>
       <use xlink:href="#DejaVuSans-36" x="63.623047"/>
      </g>
     </g>
    </g>
    <g id="text_25">
     <!-- z_adstock -->
     <g transform="translate(16.318125 340.566911)rotate(-90)scale(0.12 -0.12)">
      <defs>
       <path id="DejaVuSans-5f" d="M 3263 -1063 
L 3263 -1509 
L -63 -1509 
L -63 -1063 
L 3263 -1063 
z
" transform="scale(0.015625)"/>
       <path id="DejaVuSans-73" d="M 2834 3397 
L 2834 2853 
Q 2591 2978 2328 3040 
Q 2066 3103 1784 3103 
Q 1356 3103 1142 2972 
Q 928 2841 928 2578 
Q 928 2378 1081 2264 
Q 1234 2150 1697 2047 
L 1894 2003 
Q 2506 1872 2764 1633 
Q 3022 1394 3022 966 
Q 3022 478 2636 193 
Q 2250 -91 1575 -91 
Q 1294 -91 989 -36 
Q 684 19 347 128 
L 347 722 
Q 666 556 975 473 
Q 1284 391 1588 391 
Q 1994 391 2212 530 
Q 2431 669 2431 922 
Q 2431 1156 2273 1281 
Q 2116 1406 1581 1522 
L 1381 1569 
Q 847 1681 609 1914 
Q 372 2147 372 2553 
Q 372 3047 722 3315 
Q 1072 3584 1716 3584 
Q 2034 3584 2315 3537 
Q 2597 3491 2834 3397 
z
" transform="scale(0.015625)"/>
       <path id="DejaVuSans-6f" d="M 1959 3097 
Q 1497 3097 1228 2736 
Q 959 2375 959 1747 
Q 959 1119 1226 758 
Q 1494 397 1959 397 
Q 2419 397 2687 759 
Q 2956 1122 2956 1747 
Q 2956 2369 2687 2733 
Q 2419 3097 1959 3097 
z
M 1959 3584 
Q 2709 3584 3137 3096 
Q 3566 2609 3566 1747 
Q 3566 888 3137 398 
Q 2709 -91 1959 -91 
Q 1206 -91 779 398 
Q 353 888 353 1747 
Q 353 2609 779 3096 
Q 1206 3584 1959 3584 
z
" transform="scale(0.015625)"/>
       <path id="DejaVuSans-63" d="M 3122 3366 
L 3122 2828 
Q 2878 2963 2633 3030 
Q 2388 3097 2138 3097 
Q 1578 3097 1268 2742 
Q 959 2388 959 1747 
Q 959 1106 1268 751 
Q 1578 397 2138 397 
Q 2388 397 2633 464 
Q 2878 531 3122 666 
L 3122 134 
Q 2881 22 2623 -34 
Q 2366 -91 2075 -91 
Q 1284 -91 818 406 
Q 353 903 353 1747 
Q 353 2603 823 3093 
Q 1294 3584 2113 3584 
Q 2378 3584 2631 3529 
Q 2884 3475 3122 3366 
z
" transform="scale(0.015625)"/>
       <path id="DejaVuSans-6b" d="M 581 4863 
L 1159 4863 
L 1159 1991 
L 2875 3500 
L 3609 3500 
L 1753 1863 
L 3688 0 
L 2938 0 
L 1159 1709 
L 1159 0 
L 581 0 
L 581 4863 
z
" transform="scale(0.015625)"/>
      </defs>
      <use xlink:href="#DejaVuSans-7a"/>
      <use xlink:href="#DejaVuSans-5f" x="52.490234"/>
      <use xlink:href="#DejaVuSans-61" x="102.490234"/>
      <use xlink:href="#DejaVuSans-64" x="163.769531"/>
      <use xlink:href="#DejaVuSans-73" x="227.246094"/>
      <use xlink:href="#DejaVuSans-74" x="279.345703"/>
      <use xlink:href="#DejaVuSans-6f" x="318.554688"/>
      <use xlink:href="#DejaVuSans-63" x="379.736328"/>
      <use xlink:href="#DejaVuSans-6b" x="434.716797"/>
     </g>
    </g>
   </g>
   <g id="line2d_59">
    <path d="M 66.261796 395.916896 
L 69.283066 301.063574 
L 72.304335 276.589039 
L 75.325604 278.343757 
L 78.346873 337.950194 
L 81.368143 367.754045 
L 84.389412 385.22462 
L 87.410681 304.58872 
L 90.43195 292.085814 
L 93.45322 274.610425 
L 96.474489 339.636582 
L 99.495758 270.90907 
L 102.517027 250.973278 
L 105.538297 322.811769 
L 108.559566 359.525936 
L 111.580835 377.838165 
L 114.602104 383.809817 
L 117.623374 339.710295 
L 120.644643 327.399372 
L 123.665912 358.953005 
L 126.687181 318.156543 
L 129.708451 358.308248 
L 132.72972 374.361366 
L 135.750989 380.465586 
L 138.772258 345.266342 
L 141.793528 293.110956 
L 144.814797 344.189685 
L 147.836066 321.004564 
L 150.857335 301.208694 
L 153.878605 352.27058 
L 156.899874 315.263075 
L 159.921143 356.031173 
L 162.942413 379.196057 
L 165.963682 292.895956 
L 168.984951 247.989535 
L 172.00622 242.036728 
L 175.02749 315.910037 
L 178.048759 358.284145 
L 181.070028 310.212549 
L 184.091297 311.802024 
L 187.112567 355.585966 
L 190.133836 328.701691 
L 193.155105 366.335638 
L 196.176374 290.61784 
L 199.197644 341.391754 
L 202.218913 304.067671 
L 205.240182 346.752368 
L 208.261451 321.693276 
L 211.282721 306.349179 
L 214.30399 351.197036 
L 217.325259 276.740956 
L 220.346528 259.912089 
L 223.367798 234.238872 
L 226.389067 226.101926 
L 229.410336 253.180017 
L 232.431605 232.744857 
L 235.452875 316.923919 
L 238.474144 356.208805 
L 241.495413 379.791276 
L 244.516682 384.24546 
L 247.537952 384.811356 
L 250.559221 388.159536 
L 253.58049 310.009762 
L 256.601759 348.53687 
L 259.623029 369.793708 
L 262.644298 330.841612 
L 265.665567 364.610435 
L 268.686836 301.019105 
L 271.708106 351.425711 
L 274.729375 275.023345 
L 277.750644 259.345364 
L 280.771913 327.332943 
L 283.793183 366.395486 
L 286.814452 300.497803 
L 289.835721 278.965176 
L 292.85699 265.855552 
L 295.87826 254.865231 
L 298.899529 328.375386 
L 301.920798 357.655801 
L 304.942067 378.680074 
L 307.963337 301.639371 
L 310.984606 288.308567 
L 314.005875 338.3645 
L 317.027144 370.387493 
L 320.048414 379.906694 
L 323.069683 384.314594 
L 326.090952 318.483226 
L 329.112221 295.227537 
L 332.133491 257.402395 
L 335.15476 282.019672 
L 338.176029 340.746025 
L 341.197299 298.39851 
L 344.218568 272.257332 
L 347.239837 280.116598 
L 350.261106 262.027888 
L 353.282376 282.067714 
L 356.303645 289.05259 
L 359.324914 302.534378 
L 362.346183 353.490417 
L 365.367453 376.802454 
L 368.388722 390.470821 
L 371.409991 331.335126 
L 374.43126 360.292735 
L 377.45253 329.667531 
L 380.473799 272.486239 
L 383.495068 332.588824 
L 386.516337 326.120704 
L 389.537607 286.658205 
L 392.558876 340.211471 
L 395.580145 370.96855 
L 398.601414 380.754332 
L 401.622684 389.019683 
L 404.643953 299.820619 
L 407.665222 267.995293 
L 410.686491 270.402791 
L 413.707761 246.636295 
L 416.72903 241.876875 
L 419.750299 318.916847 
L 422.771568 268.676778 
L 425.792838 280.631525 
L 428.814107 258.457288 
L 431.835376 238.066304 
L 434.856645 313.563723 
L 437.877915 356.767126 
L 440.899184 375.298999 
L 443.920453 345.721666 
L 446.941722 289.90744 
L 449.962992 257.523904 
L 452.984261 331.471551 
L 456.00553 315.011452 
L 459.026799 316.597619 
L 462.048069 355.357123 
L 465.069338 377.426028 
L 468.090607 382.750183 
L 471.111876 295.301255 
L 474.133146 342.043642 
L 477.154415 319.45371 
L 480.175684 288.835633 
L 483.196953 337.770508 
L 486.218223 269.801616 
L 489.239492 236.774739 
L 492.260761 314.666453 
L 495.28203 308.034941 
L 498.3033 348.99688 
L 501.324569 369.897939 
L 504.345838 386.854814 
L 507.367107 332.356362 
L 510.388377 316.301403 
L 513.409646 359.684866 
L 516.430915 375.421673 
L 519.452185 295.272753 
L 522.473454 344.247869 
L 525.494723 371.218734 
L 528.515992 337.120072 
L 531.537262 268.011764 
L 534.558531 330.528992 
L 537.5798 297.605006 
L 540.601069 271.751126 
L 543.622339 332.528259 
L 546.643608 292.730674 
L 549.664877 339.588435 
L 552.686146 306.314347 
L 555.707416 289.570357 
L 558.728685 291.434865 
L 561.749954 346.221043 
L 564.771223 288.339297 
L 567.792493 338.650773 
L 570.813762 367.305102 
L 573.835031 385.471448 
L 576.8563 333.619376 
L 579.87757 298.580206 
L 582.898839 351.74498 
L 585.920108 325.008106 
L 588.941377 359.449631 
L 591.962647 314.909156 
L 594.983916 355.765274 
L 598.005185 308.248832 
L 601.026454 346.871381 
L 604.047724 278.01036 
L 604.047724 278.01036 
" clip-path="url(#p0bd6d0e550)" style="fill: none; stroke: #a60628; stroke-width: 2; stroke-linecap: square"/>
   </g>
   <g id="patch_9">
    <path d="M 39.3725 404.407645 
L 39.3725 217.611177 
" style="fill: none; stroke: #bcbcbc; stroke-width: 0.8; stroke-linejoin: miter; stroke-linecap: square"/>
   </g>
   <g id="patch_10">
    <path d="M 630.93702 404.407645 
L 630.93702 217.611177 
" style="fill: none; stroke: #bcbcbc; stroke-width: 0.8; stroke-linejoin: miter; stroke-linecap: square"/>
   </g>
   <g id="patch_11">
    <path d="M 39.3725 404.407645 
L 630.93702 404.407645 
" style="fill: none; stroke: #bcbcbc; stroke-width: 0.8; stroke-linejoin: miter; stroke-linecap: square"/>
   </g>
   <g id="patch_12">
    <path d="M 39.3725 217.611177 
L 630.93702 217.611177 
" style="fill: none; stroke: #bcbcbc; stroke-width: 0.8; stroke-linejoin: miter; stroke-linecap: square"/>
   </g>
   <g id="legend_2">
    <g id="patch_13">
     <path d="M 637.93702 319.987536 
L 719.19952 319.987536 
Q 721.19952 319.987536 721.19952 317.987536 
L 721.19952 304.031286 
Q 721.19952 302.031286 719.19952 302.031286 
L 637.93702 302.031286 
Q 635.93702 302.031286 635.93702 304.031286 
L 635.93702 317.987536 
Q 635.93702 319.987536 637.93702 319.987536 
z
" style="fill: #eeeeee; opacity: 0.8; stroke: #cccccc; stroke-width: 0.5; stroke-linejoin: miter"/>
    </g>
    <g id="line2d_60">
     <path d="M 639.93702 310.129724 
L 649.93702 310.129724 
L 659.93702 310.129724 
" style="fill: none; stroke: #a60628; stroke-width: 2; stroke-linecap: square"/>
    </g>
    <g id="text_26">
     <!-- z_adstock -->
     <g transform="translate(667.93702 313.629724)scale(0.1 -0.1)">
      <use xlink:href="#DejaVuSans-7a"/>
      <use xlink:href="#DejaVuSans-5f" x="52.490234"/>
      <use xlink:href="#DejaVuSans-61" x="102.490234"/>
      <use xlink:href="#DejaVuSans-64" x="163.769531"/>
      <use xlink:href="#DejaVuSans-73" x="227.246094"/>
      <use xlink:href="#DejaVuSans-74" x="279.345703"/>
      <use xlink:href="#DejaVuSans-6f" x="318.554688"/>
      <use xlink:href="#DejaVuSans-63" x="379.736328"/>
      <use xlink:href="#DejaVuSans-6b" x="434.716797"/>
     </g>
    </g>
   </g>
  </g>
  <g id="text_27">
   <!-- Media Cost Feature Transformations -->
   <g transform="translate(256.315073 16.318125)scale(0.12 -0.12)">
    <defs>
     <path id="DejaVuSans-4d" d="M 628 4666 
L 1569 4666 
L 2759 1491 
L 3956 4666 
L 4897 4666 
L 4897 0 
L 4281 0 
L 4281 4097 
L 3078 897 
L 2444 897 
L 1241 4097 
L 1241 0 
L 628 0 
L 628 4666 
z
" transform="scale(0.015625)"/>
     <path id="DejaVuSans-69" d="M 603 3500 
L 1178 3500 
L 1178 0 
L 603 0 
L 603 3500 
z
M 603 4863 
L 1178 4863 
L 1178 4134 
L 603 4134 
L 603 4863 
z
" transform="scale(0.015625)"/>
     <path id="DejaVuSans-20" transform="scale(0.015625)"/>
     <path id="DejaVuSans-43" d="M 4122 4306 
L 4122 3641 
Q 3803 3938 3442 4084 
Q 3081 4231 2675 4231 
Q 1875 4231 1450 3742 
Q 1025 3253 1025 2328 
Q 1025 1406 1450 917 
Q 1875 428 2675 428 
Q 3081 428 3442 575 
Q 3803 722 4122 1019 
L 4122 359 
Q 3791 134 3420 21 
Q 3050 -91 2638 -91 
Q 1578 -91 968 557 
Q 359 1206 359 2328 
Q 359 3453 968 4101 
Q 1578 4750 2638 4750 
Q 3056 4750 3426 4639 
Q 3797 4528 4122 4306 
z
" transform="scale(0.015625)"/>
     <path id="DejaVuSans-46" d="M 628 4666 
L 3309 4666 
L 3309 4134 
L 1259 4134 
L 1259 2759 
L 3109 2759 
L 3109 2228 
L 1259 2228 
L 1259 0 
L 628 0 
L 628 4666 
z
" transform="scale(0.015625)"/>
     <path id="DejaVuSans-75" d="M 544 1381 
L 544 3500 
L 1119 3500 
L 1119 1403 
Q 1119 906 1312 657 
Q 1506 409 1894 409 
Q 2359 409 2629 706 
Q 2900 1003 2900 1516 
L 2900 3500 
L 3475 3500 
L 3475 0 
L 2900 0 
L 2900 538 
Q 2691 219 2414 64 
Q 2138 -91 1772 -91 
Q 1169 -91 856 284 
Q 544 659 544 1381 
z
M 1991 3584 
L 1991 3584 
z
" transform="scale(0.015625)"/>
     <path id="DejaVuSans-72" d="M 2631 2963 
Q 2534 3019 2420 3045 
Q 2306 3072 2169 3072 
Q 1681 3072 1420 2755 
Q 1159 2438 1159 1844 
L 1159 0 
L 581 0 
L 581 3500 
L 1159 3500 
L 1159 2956 
Q 1341 3275 1631 3429 
Q 1922 3584 2338 3584 
Q 2397 3584 2469 3576 
Q 2541 3569 2628 3553 
L 2631 2963 
z
" transform="scale(0.015625)"/>
     <path id="DejaVuSans-54" d="M -19 4666 
L 3928 4666 
L 3928 4134 
L 2272 4134 
L 2272 0 
L 1638 0 
L 1638 4134 
L -19 4134 
L -19 4666 
z
" transform="scale(0.015625)"/>
     <path id="DejaVuSans-6e" d="M 3513 2113 
L 3513 0 
L 2938 0 
L 2938 2094 
Q 2938 2591 2744 2837 
Q 2550 3084 2163 3084 
Q 1697 3084 1428 2787 
Q 1159 2491 1159 1978 
L 1159 0 
L 581 0 
L 581 3500 
L 1159 3500 
L 1159 2956 
Q 1366 3272 1645 3428 
Q 1925 3584 2291 3584 
Q 2894 3584 3203 3211 
Q 3513 2838 3513 2113 
z
" transform="scale(0.015625)"/>
     <path id="DejaVuSans-66" d="M 2375 4863 
L 2375 4384 
L 1825 4384 
Q 1516 4384 1395 4259 
Q 1275 4134 1275 3809 
L 1275 3500 
L 2222 3500 
L 2222 3053 
L 1275 3053 
L 1275 0 
L 697 0 
L 697 3053 
L 147 3053 
L 147 3500 
L 697 3500 
L 697 3744 
Q 697 4328 969 4595 
Q 1241 4863 1831 4863 
L 2375 4863 
z
" transform="scale(0.015625)"/>
     <path id="DejaVuSans-6d" d="M 3328 2828 
Q 3544 3216 3844 3400 
Q 4144 3584 4550 3584 
Q 5097 3584 5394 3201 
Q 5691 2819 5691 2113 
L 5691 0 
L 5113 0 
L 5113 2094 
Q 5113 2597 4934 2840 
Q 4756 3084 4391 3084 
Q 3944 3084 3684 2787 
Q 3425 2491 3425 1978 
L 3425 0 
L 2847 0 
L 2847 2094 
Q 2847 2600 2669 2842 
Q 2491 3084 2119 3084 
Q 1678 3084 1418 2786 
Q 1159 2488 1159 1978 
L 1159 0 
L 581 0 
L 581 3500 
L 1159 3500 
L 1159 2956 
Q 1356 3278 1631 3431 
Q 1906 3584 2284 3584 
Q 2666 3584 2933 3390 
Q 3200 3197 3328 2828 
z
" transform="scale(0.015625)"/>
    </defs>
    <use xlink:href="#DejaVuSans-4d"/>
    <use xlink:href="#DejaVuSans-65" x="86.279297"/>
    <use xlink:href="#DejaVuSans-64" x="147.802734"/>
    <use xlink:href="#DejaVuSans-69" x="211.279297"/>
    <use xlink:href="#DejaVuSans-61" x="239.0625"/>
    <use xlink:href="#DejaVuSans-20" x="300.341797"/>
    <use xlink:href="#DejaVuSans-43" x="332.128906"/>
    <use xlink:href="#DejaVuSans-6f" x="401.953125"/>
    <use xlink:href="#DejaVuSans-73" x="463.134766"/>
    <use xlink:href="#DejaVuSans-74" x="515.234375"/>
    <use xlink:href="#DejaVuSans-20" x="554.443359"/>
    <use xlink:href="#DejaVuSans-46" x="586.230469"/>
    <use xlink:href="#DejaVuSans-65" x="638.25"/>
    <use xlink:href="#DejaVuSans-61" x="699.773438"/>
    <use xlink:href="#DejaVuSans-74" x="761.052734"/>
    <use xlink:href="#DejaVuSans-75" x="800.261719"/>
    <use xlink:href="#DejaVuSans-72" x="863.640625"/>
    <use xlink:href="#DejaVuSans-65" x="902.503906"/>
    <use xlink:href="#DejaVuSans-20" x="964.027344"/>
    <use xlink:href="#DejaVuSans-54" x="995.814453"/>
    <use xlink:href="#DejaVuSans-72" x="1042.148438"/>
    <use xlink:href="#DejaVuSans-61" x="1083.261719"/>
    <use xlink:href="#DejaVuSans-6e" x="1144.541016"/>
    <use xlink:href="#DejaVuSans-73" x="1207.919922"/>
    <use xlink:href="#DejaVuSans-66" x="1260.019531"/>
    <use xlink:href="#DejaVuSans-6f" x="1295.224609"/>
    <use xlink:href="#DejaVuSans-72" x="1356.40625"/>
    <use xlink:href="#DejaVuSans-6d" x="1395.769531"/>
    <use xlink:href="#DejaVuSans-61" x="1493.181641"/>
    <use xlink:href="#DejaVuSans-74" x="1554.460938"/>
    <use xlink:href="#DejaVuSans-69" x="1593.669922"/>
    <use xlink:href="#DejaVuSans-6f" x="1621.453125"/>
    <use xlink:href="#DejaVuSans-6e" x="1682.634766"/>
    <use xlink:href="#DejaVuSans-73" x="1746.013672"/>
   </g>
  </g>
 </g>
 <defs>
  <clipPath id="p7dba0fce19">
   <rect x="39.3725" y="24.81423" width="591.56452" height="186.796468"/>
  </clipPath>
  <clipPath id="p0bd6d0e550">
   <rect x="39.3725" y="217.611177" width="591.56452" height="186.796468"/>
  </clipPath>
 </defs>
</svg>
