<?xml version="1.0" encoding="utf-8" standalone="no"?>
<!DOCTYPE svg PUBLIC "-//W3C//DTD SVG 1.1//EN"
  "http://www.w3.org/Graphics/SVG/1.1/DTD/svg11.dtd">
<svg xmlns:xlink="http://www.w3.org/1999/xlink" width="728.39952pt" height="440.39952pt" viewBox="0 0 728.39952 440.39952" xmlns="http://www.w3.org/2000/svg" version="1.1">
 <metadata>
  <rdf:RDF xmlns:dc="http://purl.org/dc/elements/1.1/" xmlns:cc="http://creativecommons.org/ns#" xmlns:rdf="http://www.w3.org/1999/02/22-rdf-syntax-ns#">
   <cc:Work>
    <dc:type rdf:resource="http://purl.org/dc/dcmitype/StillImage"/>
    <dc:date>2022-02-03T13:28:28.697879</dc:date>
    <dc:format>image/svg+xml</dc:format>
    <dc:creator>
     <cc:Agent>
      <dc:title>Matplotlib v3.5.1, https://matplotlib.org/</dc:title>
     </cc:Agent>
    </dc:creator>
   </cc:Work>
  </rdf:RDF>
 </metadata>
 <defs>
  <style type="text/css">*{stroke-linejoin: round; stroke-linecap: butt}</style>
 </defs>
 <g id="figure_1">
  <g id="patch_1">
   <path d="M 0 440.39952 
L 728.39952 440.39952 
L 728.39952 0 
L 0 0 
L 0 440.39952 
z
" style="fill: none"/>
  </g>
  <g id="axes_1">
   <g id="patch_2">
    <path d="M 42.550625 135.602228 
L 721.19952 135.602228 
L 721.19952 24.14175 
L 42.550625 24.14175 
z
" style="fill: #eeeeee"/>
   </g>
   <g id="matplotlib.axis_1">
    <g id="xtick_1">
     <g id="line2d_1">
      <path d="M 117.961559 135.602228 
L 117.961559 24.14175 
" clip-path="url(#p56833210d5)" style="fill: none; stroke-dasharray: 1.85,0.8; stroke-dashoffset: 0; stroke: #b2b2b2; stroke-width: 0.5"/>
     </g>
     <g id="line2d_2">
      <defs>
       <path id="m42806957e7" d="M 0 0 
L 0 -3.5 
" style="stroke: #000000; stroke-width: 0.8"/>
      </defs>
      <g>
       <use xlink:href="#m42806957e7" x="117.961559" y="135.602228" style="stroke: #000000; stroke-width: 0.8"/>
      </g>
     </g>
    </g>
    <g id="xtick_2">
     <g id="line2d_3">
      <path d="M 209.068663 135.602228 
L 209.068663 24.14175 
" clip-path="url(#p56833210d5)" style="fill: none; stroke-dasharray: 1.85,0.8; stroke-dashoffset: 0; stroke: #b2b2b2; stroke-width: 0.5"/>
     </g>
     <g id="line2d_4">
      <g>
       <use xlink:href="#m42806957e7" x="209.068663" y="135.602228" style="stroke: #000000; stroke-width: 0.8"/>
      </g>
     </g>
    </g>
    <g id="xtick_3">
     <g id="line2d_5">
      <path d="M 298.690325 135.602228 
L 298.690325 24.14175 
" clip-path="url(#p56833210d5)" style="fill: none; stroke-dasharray: 1.85,0.8; stroke-dashoffset: 0; stroke: #b2b2b2; stroke-width: 0.5"/>
     </g>
     <g id="line2d_6">
      <g>
       <use xlink:href="#m42806957e7" x="298.690325" y="135.602228" style="stroke: #000000; stroke-width: 0.8"/>
      </g>
     </g>
    </g>
    <g id="xtick_4">
     <g id="line2d_7">
      <path d="M 389.797429 135.602228 
L 389.797429 24.14175 
" clip-path="url(#p56833210d5)" style="fill: none; stroke-dasharray: 1.85,0.8; stroke-dashoffset: 0; stroke: #b2b2b2; stroke-width: 0.5"/>
     </g>
     <g id="line2d_8">
      <g>
       <use xlink:href="#m42806957e7" x="389.797429" y="135.602228" style="stroke: #000000; stroke-width: 0.8"/>
      </g>
     </g>
    </g>
    <g id="xtick_5">
     <g id="line2d_9">
      <path d="M 479.914239 135.602228 
L 479.914239 24.14175 
" clip-path="url(#p56833210d5)" style="fill: none; stroke-dasharray: 1.85,0.8; stroke-dashoffset: 0; stroke: #b2b2b2; stroke-width: 0.5"/>
     </g>
     <g id="line2d_10">
      <g>
       <use xlink:href="#m42806957e7" x="479.914239" y="135.602228" style="stroke: #000000; stroke-width: 0.8"/>
      </g>
     </g>
    </g>
    <g id="xtick_6">
     <g id="line2d_11">
      <path d="M 571.021343 135.602228 
L 571.021343 24.14175 
" clip-path="url(#p56833210d5)" style="fill: none; stroke-dasharray: 1.85,0.8; stroke-dashoffset: 0; stroke: #b2b2b2; stroke-width: 0.5"/>
     </g>
     <g id="line2d_12">
      <g>
       <use xlink:href="#m42806957e7" x="571.021343" y="135.602228" style="stroke: #000000; stroke-width: 0.8"/>
      </g>
     </g>
    </g>
    <g id="xtick_7">
     <g id="line2d_13">
      <path d="M 660.643005 135.602228 
L 660.643005 24.14175 
" clip-path="url(#p56833210d5)" style="fill: none; stroke-dasharray: 1.85,0.8; stroke-dashoffset: 0; stroke: #b2b2b2; stroke-width: 0.5"/>
     </g>
     <g id="line2d_14">
      <g>
       <use xlink:href="#m42806957e7" x="660.643005" y="135.602228" style="stroke: #000000; stroke-width: 0.8"/>
      </g>
     </g>
    </g>
   </g>
   <g id="matplotlib.axis_2">
    <g id="ytick_1">
     <g id="line2d_15">
      <path d="M 42.550625 109.924111 
L 721.19952 109.924111 
" clip-path="url(#p56833210d5)" style="fill: none; stroke-dasharray: 1.85,0.8; stroke-dashoffset: 0; stroke: #b2b2b2; stroke-width: 0.5"/>
     </g>
     <g id="line2d_16">
      <defs>
       <path id="m32a685fc0c" d="M 0 0 
L 3.5 0 
" style="stroke: #000000; stroke-width: 0.8"/>
      </defs>
      <g>
       <use xlink:href="#m32a685fc0c" x="42.550625" y="109.924111" style="stroke: #000000; stroke-width: 0.8"/>
      </g>
     </g>
     <g id="text_1">
      <!-- 4.0 -->
      <g transform="translate(23.1475 113.72333)scale(0.1 -0.1)">
       <defs>
        <path id="DejaVuSans-34" d="M 2419 4116 
L 825 1625 
L 2419 1625 
L 2419 4116 
z
M 2253 4666 
L 3047 4666 
L 3047 1625 
L 3713 1625 
L 3713 1100 
L 3047 1100 
L 3047 0 
L 2419 0 
L 2419 1100 
L 313 1100 
L 313 1709 
L 2253 4666 
z
" transform="scale(0.015625)"/>
        <path id="DejaVuSans-2e" d="M 684 794 
L 1344 794 
L 1344 0 
L 684 0 
L 684 794 
z
" transform="scale(0.015625)"/>
        <path id="DejaVuSans-30" d="M 2034 4250 
Q 1547 4250 1301 3770 
Q 1056 3291 1056 2328 
Q 1056 1369 1301 889 
Q 1547 409 2034 409 
Q 2525 409 2770 889 
Q 3016 1369 3016 2328 
Q 3016 3291 2770 3770 
Q 2525 4250 2034 4250 
z
M 2034 4750 
Q 2819 4750 3233 4129 
Q 3647 3509 3647 2328 
Q 3647 1150 3233 529 
Q 2819 -91 2034 -91 
Q 1250 -91 836 529 
Q 422 1150 422 2328 
Q 422 3509 836 4129 
Q 1250 4750 2034 4750 
z
" transform="scale(0.015625)"/>
       </defs>
       <use xlink:href="#DejaVuSans-34"/>
       <use xlink:href="#DejaVuSans-2e" x="63.623047"/>
       <use xlink:href="#DejaVuSans-30" x="95.410156"/>
      </g>
     </g>
    </g>
    <g id="ytick_2">
     <g id="line2d_17">
      <path d="M 42.550625 80.469507 
L 721.19952 80.469507 
" clip-path="url(#p56833210d5)" style="fill: none; stroke-dasharray: 1.85,0.8; stroke-dashoffset: 0; stroke: #b2b2b2; stroke-width: 0.5"/>
     </g>
     <g id="line2d_18">
      <g>
       <use xlink:href="#m32a685fc0c" x="42.550625" y="80.469507" style="stroke: #000000; stroke-width: 0.8"/>
      </g>
     </g>
     <g id="text_2">
      <!-- 4.5 -->
      <g transform="translate(23.1475 84.268726)scale(0.1 -0.1)">
       <defs>
        <path id="DejaVuSans-35" d="M 691 4666 
L 3169 4666 
L 3169 4134 
L 1269 4134 
L 1269 2991 
Q 1406 3038 1543 3061 
Q 1681 3084 1819 3084 
Q 2600 3084 3056 2656 
Q 3513 2228 3513 1497 
Q 3513 744 3044 326 
Q 2575 -91 1722 -91 
Q 1428 -91 1123 -41 
Q 819 9 494 109 
L 494 744 
Q 775 591 1075 516 
Q 1375 441 1709 441 
Q 2250 441 2565 725 
Q 2881 1009 2881 1497 
Q 2881 1984 2565 2268 
Q 2250 2553 1709 2553 
Q 1456 2553 1204 2497 
Q 953 2441 691 2322 
L 691 4666 
z
" transform="scale(0.015625)"/>
       </defs>
       <use xlink:href="#DejaVuSans-34"/>
       <use xlink:href="#DejaVuSans-2e" x="63.623047"/>
       <use xlink:href="#DejaVuSans-35" x="95.410156"/>
      </g>
     </g>
    </g>
    <g id="ytick_3">
     <g id="line2d_19">
      <path d="M 42.550625 51.014903 
L 721.19952 51.014903 
" clip-path="url(#p56833210d5)" style="fill: none; stroke-dasharray: 1.85,0.8; stroke-dashoffset: 0; stroke: #b2b2b2; stroke-width: 0.5"/>
     </g>
     <g id="line2d_20">
      <g>
       <use xlink:href="#m32a685fc0c" x="42.550625" y="51.014903" style="stroke: #000000; stroke-width: 0.8"/>
      </g>
     </g>
     <g id="text_3">
      <!-- 5.0 -->
      <g transform="translate(23.1475 54.814122)scale(0.1 -0.1)">
       <use xlink:href="#DejaVuSans-35"/>
       <use xlink:href="#DejaVuSans-2e" x="63.623047"/>
       <use xlink:href="#DejaVuSans-30" x="95.410156"/>
      </g>
     </g>
    </g>
    <g id="text_4">
     <!-- y -->
     <g transform="translate(16.651875 83.423239)rotate(-90)scale(0.12 -0.12)">
      <defs>
       <path id="DejaVuSans-79" d="M 2059 -325 
Q 1816 -950 1584 -1140 
Q 1353 -1331 966 -1331 
L 506 -1331 
L 506 -850 
L 844 -850 
Q 1081 -850 1212 -737 
Q 1344 -625 1503 -206 
L 1606 56 
L 191 3500 
L 800 3500 
L 1894 763 
L 2988 3500 
L 3597 3500 
L 2059 -325 
z
" transform="scale(0.015625)"/>
      </defs>
      <use xlink:href="#DejaVuSans-79"/>
     </g>
    </g>
   </g>
   <g id="line2d_21">
    <path d="M 73.398302 117.819267 
L 76.864333 83.633452 
L 80.330364 74.950062 
L 83.796395 72.230427 
L 87.262427 89.811524 
L 90.728458 99.669784 
L 94.194489 103.032112 
L 97.66052 79.234183 
L 101.126551 80.368685 
L 104.592582 77.376945 
L 108.058613 97.825966 
L 111.524644 84.725895 
L 114.990676 83.796175 
L 118.456707 105.456078 
L 121.922738 119.144181 
L 125.388769 125.651854 
L 128.8548 130.535843 
L 132.320831 114.801048 
L 135.786862 114.235578 
L 139.252893 123.807887 
L 142.718925 104.996277 
L 146.184956 116.944084 
L 149.650987 117.87696 
L 153.117018 118.579412 
L 156.583049 101.006786 
L 160.04908 82.178778 
L 163.515111 91.0336 
L 166.981143 76.37568 
L 170.447174 68.948282 
L 173.913205 75.536364 
L 177.379236 62.771642 
L 180.845267 64.091243 
L 184.311298 72.274927 
L 187.777329 52.036713 
L 191.24336 41.246509 
L 194.709392 45.717997 
L 198.175423 54.880484 
L 201.641454 71.940835 
L 205.107485 62.06689 
L 208.573516 62.068065 
L 212.039547 74.386457 
L 215.505578 72.626388 
L 218.971609 85.616596 
L 222.437641 72.730723 
L 225.903672 87.664643 
L 229.369703 80.066259 
L 232.835734 89.222929 
L 236.301765 80.510073 
L 239.767796 79.062848 
L 243.233827 92.373093 
L 246.699858 72.408178 
L 250.16589 70.471327 
L 253.631921 66.978177 
L 257.097952 61.330948 
L 260.563983 60.794776 
L 264.030014 57.917557 
L 267.496045 71.66814 
L 270.962076 77.892486 
L 274.428108 82.067449 
L 277.894139 82.402854 
L 281.36017 87.825672 
L 284.826201 90.090265 
L 288.292232 79.007348 
L 291.758263 89.55072 
L 295.224294 92.310443 
L 298.690325 86.194187 
L 302.156357 99.988144 
L 305.622388 88.332461 
L 309.088419 101.040842 
L 312.55445 93.32927 
L 316.020481 89.762463 
L 319.486512 95.098118 
L 322.952543 105.5455 
L 326.418574 87.271228 
L 329.884606 92.919536 
L 333.350637 78.122239 
L 336.816668 74.519757 
L 340.282699 79.430785 
L 343.74873 78.166559 
L 347.214761 82.746978 
L 350.680792 59.063818 
L 354.146823 50.945818 
L 357.612855 50.610151 
L 361.078886 58.72849 
L 364.544917 58.82049 
L 368.010948 57.14148 
L 371.476979 40.651257 
L 374.94301 39.688363 
L 378.409041 39.834133 
L 381.875072 41.070525 
L 385.341104 52.795389 
L 388.807135 47.386415 
L 392.273166 53.35789 
L 395.739197 56.46763 
L 399.205228 58.409761 
L 402.671259 66.419155 
L 406.13729 64.293367 
L 409.603322 67.772078 
L 413.069353 77.027345 
L 416.535384 82.306542 
L 420.001415 88.235314 
L 423.467446 74.334486 
L 426.933477 77.295776 
L 430.399508 72.285551 
L 433.865539 62.046789 
L 437.331571 65.063435 
L 440.797602 57.67372 
L 444.263633 57.132249 
L 447.729664 62.288773 
L 451.195695 67.736538 
L 454.661726 75.522582 
L 458.127757 71.718907 
L 461.593788 60.206133 
L 465.05982 51.808401 
L 468.525851 63.483649 
L 471.991882 63.496841 
L 475.457913 67.803027 
L 478.923944 81.58118 
L 482.389975 72.441553 
L 485.856006 77.635554 
L 489.322037 78.284432 
L 492.788069 84.532598 
L 496.2541 83.481459 
L 499.720131 98.390181 
L 503.186162 93.252542 
L 506.652193 81.259223 
L 510.118224 82.862118 
L 513.584255 75.142289 
L 517.050287 74.959487 
L 520.516318 70.069067 
L 523.982349 68.506251 
L 527.44838 62.16555 
L 530.914411 63.983594 
L 534.380442 54.409013 
L 537.846473 44.277229 
L 541.312504 36.900816 
L 544.778536 39.869196 
L 548.244567 33.6363 
L 551.710598 33.733691 
L 555.176629 35.082746 
L 558.64266 29.208135 
L 562.108691 32.752043 
L 565.574722 45.36771 
L 569.040753 46.432626 
L 572.506785 52.010731 
L 579.438847 59.712759 
L 582.904878 61.462879 
L 586.370909 62.175292 
L 589.83694 67.125756 
L 593.302971 59.91445 
L 596.769002 65.074466 
L 600.235034 72.298068 
L 603.701065 64.078909 
L 607.167096 56.887578 
L 610.633127 64.236788 
L 614.099158 49.519389 
L 617.565189 51.146783 
L 621.03122 60.722651 
L 624.497252 48.48833 
L 627.963283 57.94304 
L 631.429314 47.319975 
L 634.895345 44.629607 
L 638.361376 53.273361 
L 641.827407 52.682681 
L 645.293438 51.773542 
L 648.759469 57.161506 
L 652.225501 59.182331 
L 655.691532 73.303709 
L 659.157563 72.923659 
L 662.623594 73.851322 
L 666.089625 81.538801 
L 669.555656 78.456343 
L 673.021687 82.175241 
L 676.487718 79.12872 
L 679.95375 80.977873 
L 683.419781 78.992948 
L 686.885812 74.741879 
L 690.351843 73.476422 
L 690.351843 73.476422 
" clip-path="url(#p56833210d5)" style="fill: none; stroke: #000000; stroke-width: 2; stroke-linecap: square"/>
   </g>
   <g id="patch_3">
    <path d="M 42.550625 135.602228 
L 42.550625 24.14175 
" style="fill: none; stroke: #bcbcbc; stroke-width: 0.8; stroke-linejoin: miter; stroke-linecap: square"/>
   </g>
   <g id="patch_4">
    <path d="M 721.19952 135.602228 
L 721.19952 24.14175 
" style="fill: none; stroke: #bcbcbc; stroke-width: 0.8; stroke-linejoin: miter; stroke-linecap: square"/>
   </g>
   <g id="patch_5">
    <path d="M 42.550625 135.602228 
L 721.19952 135.602228 
" style="fill: none; stroke: #bcbcbc; stroke-width: 0.8; stroke-linejoin: miter; stroke-linecap: square"/>
   </g>
   <g id="patch_6">
    <path d="M 42.550625 24.14175 
L 721.19952 24.14175 
" style="fill: none; stroke: #bcbcbc; stroke-width: 0.8; stroke-linejoin: miter; stroke-linecap: square"/>
   </g>
   <g id="text_5">
    <!-- Sales (Target Variable) -->
    <g transform="translate(301.083197 18.14175)scale(0.144 -0.144)">
     <defs>
      <path id="DejaVuSans-53" d="M 3425 4513 
L 3425 3897 
Q 3066 4069 2747 4153 
Q 2428 4238 2131 4238 
Q 1616 4238 1336 4038 
Q 1056 3838 1056 3469 
Q 1056 3159 1242 3001 
Q 1428 2844 1947 2747 
L 2328 2669 
Q 3034 2534 3370 2195 
Q 3706 1856 3706 1288 
Q 3706 609 3251 259 
Q 2797 -91 1919 -91 
Q 1588 -91 1214 -16 
Q 841 59 441 206 
L 441 856 
Q 825 641 1194 531 
Q 1563 422 1919 422 
Q 2459 422 2753 634 
Q 3047 847 3047 1241 
Q 3047 1584 2836 1778 
Q 2625 1972 2144 2069 
L 1759 2144 
Q 1053 2284 737 2584 
Q 422 2884 422 3419 
Q 422 4038 858 4394 
Q 1294 4750 2059 4750 
Q 2388 4750 2728 4690 
Q 3069 4631 3425 4513 
z
" transform="scale(0.015625)"/>
      <path id="DejaVuSans-61" d="M 2194 1759 
Q 1497 1759 1228 1600 
Q 959 1441 959 1056 
Q 959 750 1161 570 
Q 1363 391 1709 391 
Q 2188 391 2477 730 
Q 2766 1069 2766 1631 
L 2766 1759 
L 2194 1759 
z
M 3341 1997 
L 3341 0 
L 2766 0 
L 2766 531 
Q 2569 213 2275 61 
Q 1981 -91 1556 -91 
Q 1019 -91 701 211 
Q 384 513 384 1019 
Q 384 1609 779 1909 
Q 1175 2209 1959 2209 
L 2766 2209 
L 2766 2266 
Q 2766 2663 2505 2880 
Q 2244 3097 1772 3097 
Q 1472 3097 1187 3025 
Q 903 2953 641 2809 
L 641 3341 
Q 956 3463 1253 3523 
Q 1550 3584 1831 3584 
Q 2591 3584 2966 3190 
Q 3341 2797 3341 1997 
z
" transform="scale(0.015625)"/>
      <path id="DejaVuSans-6c" d="M 603 4863 
L 1178 4863 
L 1178 0 
L 603 0 
L 603 4863 
z
" transform="scale(0.015625)"/>
      <path id="DejaVuSans-65" d="M 3597 1894 
L 3597 1613 
L 953 1613 
Q 991 1019 1311 708 
Q 1631 397 2203 397 
Q 2534 397 2845 478 
Q 3156 559 3463 722 
L 3463 178 
Q 3153 47 2828 -22 
Q 2503 -91 2169 -91 
Q 1331 -91 842 396 
Q 353 884 353 1716 
Q 353 2575 817 3079 
Q 1281 3584 2069 3584 
Q 2775 3584 3186 3129 
Q 3597 2675 3597 1894 
z
M 3022 2063 
Q 3016 2534 2758 2815 
Q 2500 3097 2075 3097 
Q 1594 3097 1305 2825 
Q 1016 2553 972 2059 
L 3022 2063 
z
" transform="scale(0.015625)"/>
      <path id="DejaVuSans-73" d="M 2834 3397 
L 2834 2853 
Q 2591 2978 2328 3040 
Q 2066 3103 1784 3103 
Q 1356 3103 1142 2972 
Q 928 2841 928 2578 
Q 928 2378 1081 2264 
Q 1234 2150 1697 2047 
L 1894 2003 
Q 2506 1872 2764 1633 
Q 3022 1394 3022 966 
Q 3022 478 2636 193 
Q 2250 -91 1575 -91 
Q 1294 -91 989 -36 
Q 684 19 347 128 
L 347 722 
Q 666 556 975 473 
Q 1284 391 1588 391 
Q 1994 391 2212 530 
Q 2431 669 2431 922 
Q 2431 1156 2273 1281 
Q 2116 1406 1581 1522 
L 1381 1569 
Q 847 1681 609 1914 
Q 372 2147 372 2553 
Q 372 3047 722 3315 
Q 1072 3584 1716 3584 
Q 2034 3584 2315 3537 
Q 2597 3491 2834 3397 
z
" transform="scale(0.015625)"/>
      <path id="DejaVuSans-20" transform="scale(0.015625)"/>
      <path id="DejaVuSans-28" d="M 1984 4856 
Q 1566 4138 1362 3434 
Q 1159 2731 1159 2009 
Q 1159 1288 1364 580 
Q 1569 -128 1984 -844 
L 1484 -844 
Q 1016 -109 783 600 
Q 550 1309 550 2009 
Q 550 2706 781 3412 
Q 1013 4119 1484 4856 
L 1984 4856 
z
" transform="scale(0.015625)"/>
      <path id="DejaVuSans-54" d="M -19 4666 
L 3928 4666 
L 3928 4134 
L 2272 4134 
L 2272 0 
L 1638 0 
L 1638 4134 
L -19 4134 
L -19 4666 
z
" transform="scale(0.015625)"/>
      <path id="DejaVuSans-72" d="M 2631 2963 
Q 2534 3019 2420 3045 
Q 2306 3072 2169 3072 
Q 1681 3072 1420 2755 
Q 1159 2438 1159 1844 
L 1159 0 
L 581 0 
L 581 3500 
L 1159 3500 
L 1159 2956 
Q 1341 3275 1631 3429 
Q 1922 3584 2338 3584 
Q 2397 3584 2469 3576 
Q 2541 3569 2628 3553 
L 2631 2963 
z
" transform="scale(0.015625)"/>
      <path id="DejaVuSans-67" d="M 2906 1791 
Q 2906 2416 2648 2759 
Q 2391 3103 1925 3103 
Q 1463 3103 1205 2759 
Q 947 2416 947 1791 
Q 947 1169 1205 825 
Q 1463 481 1925 481 
Q 2391 481 2648 825 
Q 2906 1169 2906 1791 
z
M 3481 434 
Q 3481 -459 3084 -895 
Q 2688 -1331 1869 -1331 
Q 1566 -1331 1297 -1286 
Q 1028 -1241 775 -1147 
L 775 -588 
Q 1028 -725 1275 -790 
Q 1522 -856 1778 -856 
Q 2344 -856 2625 -561 
Q 2906 -266 2906 331 
L 2906 616 
Q 2728 306 2450 153 
Q 2172 0 1784 0 
Q 1141 0 747 490 
Q 353 981 353 1791 
Q 353 2603 747 3093 
Q 1141 3584 1784 3584 
Q 2172 3584 2450 3431 
Q 2728 3278 2906 2969 
L 2906 3500 
L 3481 3500 
L 3481 434 
z
" transform="scale(0.015625)"/>
      <path id="DejaVuSans-74" d="M 1172 4494 
L 1172 3500 
L 2356 3500 
L 2356 3053 
L 1172 3053 
L 1172 1153 
Q 1172 725 1289 603 
Q 1406 481 1766 481 
L 2356 481 
L 2356 0 
L 1766 0 
Q 1100 0 847 248 
Q 594 497 594 1153 
L 594 3053 
L 172 3053 
L 172 3500 
L 594 3500 
L 594 4494 
L 1172 4494 
z
" transform="scale(0.015625)"/>
      <path id="DejaVuSans-56" d="M 1831 0 
L 50 4666 
L 709 4666 
L 2188 738 
L 3669 4666 
L 4325 4666 
L 2547 0 
L 1831 0 
z
" transform="scale(0.015625)"/>
      <path id="DejaVuSans-69" d="M 603 3500 
L 1178 3500 
L 1178 0 
L 603 0 
L 603 3500 
z
M 603 4863 
L 1178 4863 
L 1178 4134 
L 603 4134 
L 603 4863 
z
" transform="scale(0.015625)"/>
      <path id="DejaVuSans-62" d="M 3116 1747 
Q 3116 2381 2855 2742 
Q 2594 3103 2138 3103 
Q 1681 3103 1420 2742 
Q 1159 2381 1159 1747 
Q 1159 1113 1420 752 
Q 1681 391 2138 391 
Q 2594 391 2855 752 
Q 3116 1113 3116 1747 
z
M 1159 2969 
Q 1341 3281 1617 3432 
Q 1894 3584 2278 3584 
Q 2916 3584 3314 3078 
Q 3713 2572 3713 1747 
Q 3713 922 3314 415 
Q 2916 -91 2278 -91 
Q 1894 -91 1617 61 
Q 1341 213 1159 525 
L 1159 0 
L 581 0 
L 581 4863 
L 1159 4863 
L 1159 2969 
z
" transform="scale(0.015625)"/>
      <path id="DejaVuSans-29" d="M 513 4856 
L 1013 4856 
Q 1481 4119 1714 3412 
Q 1947 2706 1947 2009 
Q 1947 1309 1714 600 
Q 1481 -109 1013 -844 
L 513 -844 
Q 928 -128 1133 580 
Q 1338 1288 1338 2009 
Q 1338 2731 1133 3434 
Q 928 4138 513 4856 
z
" transform="scale(0.015625)"/>
     </defs>
     <use xlink:href="#DejaVuSans-53"/>
     <use xlink:href="#DejaVuSans-61" x="63.476562"/>
     <use xlink:href="#DejaVuSans-6c" x="124.755859"/>
     <use xlink:href="#DejaVuSans-65" x="152.539062"/>
     <use xlink:href="#DejaVuSans-73" x="214.0625"/>
     <use xlink:href="#DejaVuSans-20" x="266.162109"/>
     <use xlink:href="#DejaVuSans-28" x="297.949219"/>
     <use xlink:href="#DejaVuSans-54" x="336.962891"/>
     <use xlink:href="#DejaVuSans-61" x="381.546875"/>
     <use xlink:href="#DejaVuSans-72" x="442.826172"/>
     <use xlink:href="#DejaVuSans-67" x="482.189453"/>
     <use xlink:href="#DejaVuSans-65" x="545.666016"/>
     <use xlink:href="#DejaVuSans-74" x="607.189453"/>
     <use xlink:href="#DejaVuSans-20" x="646.398438"/>
     <use xlink:href="#DejaVuSans-56" x="678.185547"/>
     <use xlink:href="#DejaVuSans-61" x="738.84375"/>
     <use xlink:href="#DejaVuSans-72" x="800.123047"/>
     <use xlink:href="#DejaVuSans-69" x="841.236328"/>
     <use xlink:href="#DejaVuSans-61" x="869.019531"/>
     <use xlink:href="#DejaVuSans-62" x="930.298828"/>
     <use xlink:href="#DejaVuSans-6c" x="993.775391"/>
     <use xlink:href="#DejaVuSans-65" x="1021.558594"/>
     <use xlink:href="#DejaVuSans-29" x="1083.082031"/>
    </g>
   </g>
  </g>
  <g id="axes_2">
   <g id="patch_7">
    <path d="M 42.550625 270.004937 
L 721.19952 270.004937 
L 721.19952 158.544458 
L 42.550625 158.544458 
z
" style="fill: #eeeeee"/>
   </g>
   <g id="matplotlib.axis_3">
    <g id="xtick_8">
     <g id="line2d_22">
      <path d="M 117.961559 270.004937 
L 117.961559 158.544458 
" clip-path="url(#p362abee15f)" style="fill: none; stroke-dasharray: 1.85,0.8; stroke-dashoffset: 0; stroke: #b2b2b2; stroke-width: 0.5"/>
     </g>
     <g id="line2d_23">
      <g>
       <use xlink:href="#m42806957e7" x="117.961559" y="270.004937" style="stroke: #000000; stroke-width: 0.8"/>
      </g>
     </g>
    </g>
    <g id="xtick_9">
     <g id="line2d_24">
      <path d="M 209.068663 270.004937 
L 209.068663 158.544458 
" clip-path="url(#p362abee15f)" style="fill: none; stroke-dasharray: 1.85,0.8; stroke-dashoffset: 0; stroke: #b2b2b2; stroke-width: 0.5"/>
     </g>
     <g id="line2d_25">
      <g>
       <use xlink:href="#m42806957e7" x="209.068663" y="270.004937" style="stroke: #000000; stroke-width: 0.8"/>
      </g>
     </g>
    </g>
    <g id="xtick_10">
     <g id="line2d_26">
      <path d="M 298.690325 270.004937 
L 298.690325 158.544458 
" clip-path="url(#p362abee15f)" style="fill: none; stroke-dasharray: 1.85,0.8; stroke-dashoffset: 0; stroke: #b2b2b2; stroke-width: 0.5"/>
     </g>
     <g id="line2d_27">
      <g>
       <use xlink:href="#m42806957e7" x="298.690325" y="270.004937" style="stroke: #000000; stroke-width: 0.8"/>
      </g>
     </g>
    </g>
    <g id="xtick_11">
     <g id="line2d_28">
      <path d="M 389.797429 270.004937 
L 389.797429 158.544458 
" clip-path="url(#p362abee15f)" style="fill: none; stroke-dasharray: 1.85,0.8; stroke-dashoffset: 0; stroke: #b2b2b2; stroke-width: 0.5"/>
     </g>
     <g id="line2d_29">
      <g>
       <use xlink:href="#m42806957e7" x="389.797429" y="270.004937" style="stroke: #000000; stroke-width: 0.8"/>
      </g>
     </g>
    </g>
    <g id="xtick_12">
     <g id="line2d_30">
      <path d="M 479.914239 270.004937 
L 479.914239 158.544458 
" clip-path="url(#p362abee15f)" style="fill: none; stroke-dasharray: 1.85,0.8; stroke-dashoffset: 0; stroke: #b2b2b2; stroke-width: 0.5"/>
     </g>
     <g id="line2d_31">
      <g>
       <use xlink:href="#m42806957e7" x="479.914239" y="270.004937" style="stroke: #000000; stroke-width: 0.8"/>
      </g>
     </g>
    </g>
    <g id="xtick_13">
     <g id="line2d_32">
      <path d="M 571.021343 270.004937 
L 571.021343 158.544458 
" clip-path="url(#p362abee15f)" style="fill: none; stroke-dasharray: 1.85,0.8; stroke-dashoffset: 0; stroke: #b2b2b2; stroke-width: 0.5"/>
     </g>
     <g id="line2d_33">
      <g>
       <use xlink:href="#m42806957e7" x="571.021343" y="270.004937" style="stroke: #000000; stroke-width: 0.8"/>
      </g>
     </g>
    </g>
    <g id="xtick_14">
     <g id="line2d_34">
      <path d="M 660.643005 270.004937 
L 660.643005 158.544458 
" clip-path="url(#p362abee15f)" style="fill: none; stroke-dasharray: 1.85,0.8; stroke-dashoffset: 0; stroke: #b2b2b2; stroke-width: 0.5"/>
     </g>
     <g id="line2d_35">
      <g>
       <use xlink:href="#m42806957e7" x="660.643005" y="270.004937" style="stroke: #000000; stroke-width: 0.8"/>
      </g>
     </g>
    </g>
   </g>
   <g id="matplotlib.axis_4">
    <g id="ytick_4">
     <g id="line2d_36">
      <path d="M 42.550625 241.319033 
L 721.19952 241.319033 
" clip-path="url(#p362abee15f)" style="fill: none; stroke-dasharray: 1.85,0.8; stroke-dashoffset: 0; stroke: #b2b2b2; stroke-width: 0.5"/>
     </g>
     <g id="line2d_37">
      <g>
       <use xlink:href="#m32a685fc0c" x="42.550625" y="241.319033" style="stroke: #000000; stroke-width: 0.8"/>
      </g>
     </g>
     <g id="text_6">
      <!-- 0.2 -->
      <g transform="translate(23.1475 245.118251)scale(0.1 -0.1)">
       <defs>
        <path id="DejaVuSans-32" d="M 1228 531 
L 3431 531 
L 3431 0 
L 469 0 
L 469 531 
Q 828 903 1448 1529 
Q 2069 2156 2228 2338 
Q 2531 2678 2651 2914 
Q 2772 3150 2772 3378 
Q 2772 3750 2511 3984 
Q 2250 4219 1831 4219 
Q 1534 4219 1204 4116 
Q 875 4013 500 3803 
L 500 4441 
Q 881 4594 1212 4672 
Q 1544 4750 1819 4750 
Q 2544 4750 2975 4387 
Q 3406 4025 3406 3419 
Q 3406 3131 3298 2873 
Q 3191 2616 2906 2266 
Q 2828 2175 2409 1742 
Q 1991 1309 1228 531 
z
" transform="scale(0.015625)"/>
       </defs>
       <use xlink:href="#DejaVuSans-30"/>
       <use xlink:href="#DejaVuSans-2e" x="63.623047"/>
       <use xlink:href="#DejaVuSans-32" x="95.410156"/>
      </g>
     </g>
    </g>
    <g id="ytick_5">
     <g id="line2d_38">
      <path d="M 42.550625 211.094803 
L 721.19952 211.094803 
" clip-path="url(#p362abee15f)" style="fill: none; stroke-dasharray: 1.85,0.8; stroke-dashoffset: 0; stroke: #b2b2b2; stroke-width: 0.5"/>
     </g>
     <g id="line2d_39">
      <g>
       <use xlink:href="#m32a685fc0c" x="42.550625" y="211.094803" style="stroke: #000000; stroke-width: 0.8"/>
      </g>
     </g>
     <g id="text_7">
      <!-- 0.4 -->
      <g transform="translate(23.1475 214.894021)scale(0.1 -0.1)">
       <use xlink:href="#DejaVuSans-30"/>
       <use xlink:href="#DejaVuSans-2e" x="63.623047"/>
       <use xlink:href="#DejaVuSans-34" x="95.410156"/>
      </g>
     </g>
    </g>
    <g id="ytick_6">
     <g id="line2d_40">
      <path d="M 42.550625 180.870573 
L 721.19952 180.870573 
" clip-path="url(#p362abee15f)" style="fill: none; stroke-dasharray: 1.85,0.8; stroke-dashoffset: 0; stroke: #b2b2b2; stroke-width: 0.5"/>
     </g>
     <g id="line2d_41">
      <g>
       <use xlink:href="#m32a685fc0c" x="42.550625" y="180.870573" style="stroke: #000000; stroke-width: 0.8"/>
      </g>
     </g>
     <g id="text_8">
      <!-- 0.6 -->
      <g transform="translate(23.1475 184.669791)scale(0.1 -0.1)">
       <defs>
        <path id="DejaVuSans-36" d="M 2113 2584 
Q 1688 2584 1439 2293 
Q 1191 2003 1191 1497 
Q 1191 994 1439 701 
Q 1688 409 2113 409 
Q 2538 409 2786 701 
Q 3034 994 3034 1497 
Q 3034 2003 2786 2293 
Q 2538 2584 2113 2584 
z
M 3366 4563 
L 3366 3988 
Q 3128 4100 2886 4159 
Q 2644 4219 2406 4219 
Q 1781 4219 1451 3797 
Q 1122 3375 1075 2522 
Q 1259 2794 1537 2939 
Q 1816 3084 2150 3084 
Q 2853 3084 3261 2657 
Q 3669 2231 3669 1497 
Q 3669 778 3244 343 
Q 2819 -91 2113 -91 
Q 1303 -91 875 529 
Q 447 1150 447 2328 
Q 447 3434 972 4092 
Q 1497 4750 2381 4750 
Q 2619 4750 2861 4703 
Q 3103 4656 3366 4563 
z
" transform="scale(0.015625)"/>
       </defs>
       <use xlink:href="#DejaVuSans-30"/>
       <use xlink:href="#DejaVuSans-2e" x="63.623047"/>
       <use xlink:href="#DejaVuSans-36" x="95.410156"/>
      </g>
     </g>
    </g>
    <g id="text_9">
     <!-- z_effect -->
     <g transform="translate(16.318125 237.683135)rotate(-90)scale(0.12 -0.12)">
      <defs>
       <path id="DejaVuSans-7a" d="M 353 3500 
L 3084 3500 
L 3084 2975 
L 922 459 
L 3084 459 
L 3084 0 
L 275 0 
L 275 525 
L 2438 3041 
L 353 3041 
L 353 3500 
z
" transform="scale(0.015625)"/>
       <path id="DejaVuSans-5f" d="M 3263 -1063 
L 3263 -1509 
L -63 -1509 
L -63 -1063 
L 3263 -1063 
z
" transform="scale(0.015625)"/>
       <path id="DejaVuSans-66" d="M 2375 4863 
L 2375 4384 
L 1825 4384 
Q 1516 4384 1395 4259 
Q 1275 4134 1275 3809 
L 1275 3500 
L 2222 3500 
L 2222 3053 
L 1275 3053 
L 1275 0 
L 697 0 
L 697 3053 
L 147 3053 
L 147 3500 
L 697 3500 
L 697 3744 
Q 697 4328 969 4595 
Q 1241 4863 1831 4863 
L 2375 4863 
z
" transform="scale(0.015625)"/>
       <path id="DejaVuSans-63" d="M 3122 3366 
L 3122 2828 
Q 2878 2963 2633 3030 
Q 2388 3097 2138 3097 
Q 1578 3097 1268 2742 
Q 959 2388 959 1747 
Q 959 1106 1268 751 
Q 1578 397 2138 397 
Q 2388 397 2633 464 
Q 2878 531 3122 666 
L 3122 134 
Q 2881 22 2623 -34 
Q 2366 -91 2075 -91 
Q 1284 -91 818 406 
Q 353 903 353 1747 
Q 353 2603 823 3093 
Q 1294 3584 2113 3584 
Q 2378 3584 2631 3529 
Q 2884 3475 3122 3366 
z
" transform="scale(0.015625)"/>
      </defs>
      <use xlink:href="#DejaVuSans-7a"/>
      <use xlink:href="#DejaVuSans-5f" x="52.490234"/>
      <use xlink:href="#DejaVuSans-65" x="102.490234"/>
      <use xlink:href="#DejaVuSans-66" x="164.013672"/>
      <use xlink:href="#DejaVuSans-66" x="199.21875"/>
      <use xlink:href="#DejaVuSans-65" x="234.423828"/>
      <use xlink:href="#DejaVuSans-63" x="295.947266"/>
      <use xlink:href="#DejaVuSans-74" x="350.927734"/>
     </g>
    </g>
   </g>
   <g id="line2d_42">
    <path d="M 73.398302 260.947999 
L 76.864333 176.681954 
L 80.330364 163.802362 
L 83.796395 165.739796 
L 87.262427 206.21203 
L 90.728458 233.429713 
L 94.194489 250.807491 
L 97.66052 184.277719 
L 101.126551 177.834408 
L 104.592582 170.003503 
L 108.058613 211.22225 
L 111.524644 170.294666 
L 114.990676 163.610844 
L 118.456707 200.699296 
L 121.922738 229.47247 
L 125.388769 245.808734 
L 128.8548 251.402009 
L 132.320831 215.099029 
L 135.786862 206.945346 
L 139.252893 230.902434 
L 142.718925 202.194625 
L 146.184956 231.120777 
L 149.650987 244.484366 
L 153.117018 249.816463 
L 156.583049 222.479956 
L 160.04908 191.903121 
L 163.515111 222.580638 
L 166.981143 208.049416 
L 170.447174 197.853411 
L 173.913205 229.494692 
L 177.379236 206.435898 
L 180.845267 232.88011 
L 184.311298 250.470425 
L 187.777329 197.135773 
L 191.24336 182.018302 
L 194.709392 181.222106 
L 198.175423 210.010249 
L 201.641454 236.33336 
L 205.107485 208.139406 
L 208.573516 209.447382 
L 212.039547 235.397741 
L 215.505578 219.312932 
L 218.971609 243.165262 
L 222.437641 202.144239 
L 225.903672 227.791021 
L 229.369703 208.86367 
L 232.835734 231.665988 
L 236.301765 218.150004 
L 239.767796 211.343944 
L 243.233827 235.251009 
L 246.699858 201.042715 
L 250.16589 196.5944 
L 253.631921 191.203293 
L 257.097952 190.292498 
L 260.563983 196.607928 
L 264.030014 192.75934 
L 267.496045 219.571438 
L 270.962076 240.309891 
L 274.428108 254.822219 
L 277.894139 257.74782 
L 281.36017 258.206573 
L 284.826201 260.399561 
L 288.292232 218.965897 
L 291.758263 237.513094 
L 295.224294 249.626676 
L 298.690325 229.192788 
L 302.156357 246.995699 
L 305.622388 217.464523 
L 309.088419 240.24001 
L 312.55445 209.983193 
L 316.020481 206.440195 
L 319.486512 229.44475 
L 322.952543 249.008721 
L 326.418574 219.578671 
L 329.884606 213.235943 
L 333.350637 210.24734 
L 336.816668 208.195512 
L 340.282699 231.644306 
L 343.74873 245.476129 
L 347.214761 256.592093 
L 350.680792 222.458494 
L 354.146823 218.640276 
L 357.612855 237.243533 
L 361.078886 252.707101 
L 364.544917 257.739492 
L 368.010948 260.132626 
L 371.476979 230.25141 
L 374.94301 222.777279 
L 378.409041 213.731116 
L 381.875072 219.760431 
L 385.341104 240.053455 
L 388.807135 225.009839 
L 392.273166 218.419769 
L 395.739197 220.645745 
L 399.205228 216.915713 
L 402.671259 221.795612 
L 406.13729 223.918053 
L 409.603322 228.033462 
L 413.069353 246.958088 
L 416.535384 257.589898 
L 420.001415 264.152728 
L 423.467446 238.666821 
L 426.933477 250.479237 
L 430.399508 238.482404 
L 433.865539 222.454299 
L 437.331571 239.947734 
L 440.797602 237.87117 
L 444.263633 226.577094 
L 447.729664 243.318787 
L 451.195695 255.907318 
L 454.661726 260.267959 
L 458.127757 264.000548 
L 461.593788 231.255288 
L 465.05982 224.258605 
L 468.525851 225.01521 
L 471.991882 221.22027 
L 475.457913 220.838659 
L 478.923944 237.838605 
L 482.389975 225.809492 
L 485.856006 228.46723 
L 489.322037 224.562034 
L 492.788069 221.841358 
L 496.2541 237.294404 
L 499.720131 251.713871 
L 503.186162 258.991306 
L 506.652193 247.983645 
L 510.118224 232.205787 
L 513.584255 226.330923 
L 517.050287 243.72977 
L 520.516318 239.07739 
L 523.982349 239.701492 
L 527.44838 252.124596 
L 530.914411 260.380033 
L 534.380442 262.489827 
L 537.846473 235.174621 
L 541.312504 248.121713 
L 544.778536 241.555507 
L 548.244567 234.413261 
L 551.710598 247.186848 
L 555.176629 231.289702 
L 558.64266 226.892803 
L 562.108691 241.14769 
L 565.574722 239.680232 
L 569.040753 251.338936 
L 572.506785 258.44866 
L 575.972816 264.574338 
L 579.438847 246.691142 
L 582.904878 242.553562 
L 586.370909 255.310028 
L 589.83694 260.703104 
L 593.302971 238.290289 
L 596.769002 250.778147 
L 600.235034 259.45597 
L 603.701065 248.948025 
L 607.167096 234.219911 
L 610.633127 247.393119 
L 614.099158 239.821829 
L 617.565189 235.388083 
L 621.03122 248.307006 
L 624.497252 239.377308 
L 627.963283 250.456301 
L 631.429314 242.443666 
L 634.895345 239.30174 
L 638.361376 239.811329 
L 641.827407 252.724574 
L 645.293438 239.587203 
L 648.759469 250.862011 
L 652.225501 259.176055 
L 655.691532 264.938551 
L 659.157563 249.88735 
L 662.623594 242.259745 
L 666.089625 254.916789 
L 669.555656 248.137497 
L 673.021687 257.258473 
L 676.487718 246.1219 
L 679.95375 256.365145 
L 683.419781 245.004298 
L 686.885812 254.114656 
L 690.351843 240.028657 
L 690.351843 240.028657 
" clip-path="url(#p362abee15f)" style="fill: none; stroke: #467821; stroke-width: 2; stroke-linecap: square"/>
   </g>
   <g id="patch_8">
    <path d="M 42.550625 270.004937 
L 42.550625 158.544458 
" style="fill: none; stroke: #bcbcbc; stroke-width: 0.8; stroke-linejoin: miter; stroke-linecap: square"/>
   </g>
   <g id="patch_9">
    <path d="M 721.19952 270.004937 
L 721.19952 158.544458 
" style="fill: none; stroke: #bcbcbc; stroke-width: 0.8; stroke-linejoin: miter; stroke-linecap: square"/>
   </g>
   <g id="patch_10">
    <path d="M 42.550625 270.004937 
L 721.19952 270.004937 
" style="fill: none; stroke: #bcbcbc; stroke-width: 0.8; stroke-linejoin: miter; stroke-linecap: square"/>
   </g>
   <g id="patch_11">
    <path d="M 42.550625 158.544458 
L 721.19952 158.544458 
" style="fill: none; stroke: #bcbcbc; stroke-width: 0.8; stroke-linejoin: miter; stroke-linecap: square"/>
   </g>
   <g id="text_10">
    <!-- Media Cost Effect on Sales -->
    <g transform="translate(286.126323 152.544458)scale(0.144 -0.144)">
     <defs>
      <path id="DejaVuSans-4d" d="M 628 4666 
L 1569 4666 
L 2759 1491 
L 3956 4666 
L 4897 4666 
L 4897 0 
L 4281 0 
L 4281 4097 
L 3078 897 
L 2444 897 
L 1241 4097 
L 1241 0 
L 628 0 
L 628 4666 
z
" transform="scale(0.015625)"/>
      <path id="DejaVuSans-64" d="M 2906 2969 
L 2906 4863 
L 3481 4863 
L 3481 0 
L 2906 0 
L 2906 525 
Q 2725 213 2448 61 
Q 2172 -91 1784 -91 
Q 1150 -91 751 415 
Q 353 922 353 1747 
Q 353 2572 751 3078 
Q 1150 3584 1784 3584 
Q 2172 3584 2448 3432 
Q 2725 3281 2906 2969 
z
M 947 1747 
Q 947 1113 1208 752 
Q 1469 391 1925 391 
Q 2381 391 2643 752 
Q 2906 1113 2906 1747 
Q 2906 2381 2643 2742 
Q 2381 3103 1925 3103 
Q 1469 3103 1208 2742 
Q 947 2381 947 1747 
z
" transform="scale(0.015625)"/>
      <path id="DejaVuSans-43" d="M 4122 4306 
L 4122 3641 
Q 3803 3938 3442 4084 
Q 3081 4231 2675 4231 
Q 1875 4231 1450 3742 
Q 1025 3253 1025 2328 
Q 1025 1406 1450 917 
Q 1875 428 2675 428 
Q 3081 428 3442 575 
Q 3803 722 4122 1019 
L 4122 359 
Q 3791 134 3420 21 
Q 3050 -91 2638 -91 
Q 1578 -91 968 557 
Q 359 1206 359 2328 
Q 359 3453 968 4101 
Q 1578 4750 2638 4750 
Q 3056 4750 3426 4639 
Q 3797 4528 4122 4306 
z
" transform="scale(0.015625)"/>
      <path id="DejaVuSans-6f" d="M 1959 3097 
Q 1497 3097 1228 2736 
Q 959 2375 959 1747 
Q 959 1119 1226 758 
Q 1494 397 1959 397 
Q 2419 397 2687 759 
Q 2956 1122 2956 1747 
Q 2956 2369 2687 2733 
Q 2419 3097 1959 3097 
z
M 1959 3584 
Q 2709 3584 3137 3096 
Q 3566 2609 3566 1747 
Q 3566 888 3137 398 
Q 2709 -91 1959 -91 
Q 1206 -91 779 398 
Q 353 888 353 1747 
Q 353 2609 779 3096 
Q 1206 3584 1959 3584 
z
" transform="scale(0.015625)"/>
      <path id="DejaVuSans-45" d="M 628 4666 
L 3578 4666 
L 3578 4134 
L 1259 4134 
L 1259 2753 
L 3481 2753 
L 3481 2222 
L 1259 2222 
L 1259 531 
L 3634 531 
L 3634 0 
L 628 0 
L 628 4666 
z
" transform="scale(0.015625)"/>
      <path id="DejaVuSans-6e" d="M 3513 2113 
L 3513 0 
L 2938 0 
L 2938 2094 
Q 2938 2591 2744 2837 
Q 2550 3084 2163 3084 
Q 1697 3084 1428 2787 
Q 1159 2491 1159 1978 
L 1159 0 
L 581 0 
L 581 3500 
L 1159 3500 
L 1159 2956 
Q 1366 3272 1645 3428 
Q 1925 3584 2291 3584 
Q 2894 3584 3203 3211 
Q 3513 2838 3513 2113 
z
" transform="scale(0.015625)"/>
     </defs>
     <use xlink:href="#DejaVuSans-4d"/>
     <use xlink:href="#DejaVuSans-65" x="86.279297"/>
     <use xlink:href="#DejaVuSans-64" x="147.802734"/>
     <use xlink:href="#DejaVuSans-69" x="211.279297"/>
     <use xlink:href="#DejaVuSans-61" x="239.0625"/>
     <use xlink:href="#DejaVuSans-20" x="300.341797"/>
     <use xlink:href="#DejaVuSans-43" x="332.128906"/>
     <use xlink:href="#DejaVuSans-6f" x="401.953125"/>
     <use xlink:href="#DejaVuSans-73" x="463.134766"/>
     <use xlink:href="#DejaVuSans-74" x="515.234375"/>
     <use xlink:href="#DejaVuSans-20" x="554.443359"/>
     <use xlink:href="#DejaVuSans-45" x="586.230469"/>
     <use xlink:href="#DejaVuSans-66" x="649.414062"/>
     <use xlink:href="#DejaVuSans-66" x="684.619141"/>
     <use xlink:href="#DejaVuSans-65" x="719.824219"/>
     <use xlink:href="#DejaVuSans-63" x="781.347656"/>
     <use xlink:href="#DejaVuSans-74" x="836.328125"/>
     <use xlink:href="#DejaVuSans-20" x="875.537109"/>
     <use xlink:href="#DejaVuSans-6f" x="907.324219"/>
     <use xlink:href="#DejaVuSans-6e" x="968.505859"/>
     <use xlink:href="#DejaVuSans-20" x="1031.884766"/>
     <use xlink:href="#DejaVuSans-53" x="1063.671875"/>
     <use xlink:href="#DejaVuSans-61" x="1127.148438"/>
     <use xlink:href="#DejaVuSans-6c" x="1188.427734"/>
     <use xlink:href="#DejaVuSans-65" x="1216.210938"/>
     <use xlink:href="#DejaVuSans-73" x="1277.734375"/>
    </g>
   </g>
  </g>
  <g id="axes_3">
   <g id="patch_12">
    <path d="M 42.550625 404.407645 
L 721.19952 404.407645 
L 721.19952 292.947167 
L 42.550625 292.947167 
z
" style="fill: #eeeeee"/>
   </g>
   <g id="matplotlib.axis_5">
    <g id="xtick_15">
     <g id="line2d_43">
      <path d="M 117.961559 404.407645 
L 117.961559 292.947167 
" clip-path="url(#p4942ff8f7b)" style="fill: none; stroke-dasharray: 1.85,0.8; stroke-dashoffset: 0; stroke: #b2b2b2; stroke-width: 0.5"/>
     </g>
     <g id="line2d_44">
      <g>
       <use xlink:href="#m42806957e7" x="117.961559" y="404.407645" style="stroke: #000000; stroke-width: 0.8"/>
      </g>
     </g>
     <g id="text_11">
      <!-- 2018-07 -->
      <g transform="translate(97.070153 415.506082)scale(0.1 -0.1)">
       <defs>
        <path id="DejaVuSans-31" d="M 794 531 
L 1825 531 
L 1825 4091 
L 703 3866 
L 703 4441 
L 1819 4666 
L 2450 4666 
L 2450 531 
L 3481 531 
L 3481 0 
L 794 0 
L 794 531 
z
" transform="scale(0.015625)"/>
        <path id="DejaVuSans-38" d="M 2034 2216 
Q 1584 2216 1326 1975 
Q 1069 1734 1069 1313 
Q 1069 891 1326 650 
Q 1584 409 2034 409 
Q 2484 409 2743 651 
Q 3003 894 3003 1313 
Q 3003 1734 2745 1975 
Q 2488 2216 2034 2216 
z
M 1403 2484 
Q 997 2584 770 2862 
Q 544 3141 544 3541 
Q 544 4100 942 4425 
Q 1341 4750 2034 4750 
Q 2731 4750 3128 4425 
Q 3525 4100 3525 3541 
Q 3525 3141 3298 2862 
Q 3072 2584 2669 2484 
Q 3125 2378 3379 2068 
Q 3634 1759 3634 1313 
Q 3634 634 3220 271 
Q 2806 -91 2034 -91 
Q 1263 -91 848 271 
Q 434 634 434 1313 
Q 434 1759 690 2068 
Q 947 2378 1403 2484 
z
M 1172 3481 
Q 1172 3119 1398 2916 
Q 1625 2713 2034 2713 
Q 2441 2713 2670 2916 
Q 2900 3119 2900 3481 
Q 2900 3844 2670 4047 
Q 2441 4250 2034 4250 
Q 1625 4250 1398 4047 
Q 1172 3844 1172 3481 
z
" transform="scale(0.015625)"/>
        <path id="DejaVuSans-2d" d="M 313 2009 
L 1997 2009 
L 1997 1497 
L 313 1497 
L 313 2009 
z
" transform="scale(0.015625)"/>
        <path id="DejaVuSans-37" d="M 525 4666 
L 3525 4666 
L 3525 4397 
L 1831 0 
L 1172 0 
L 2766 4134 
L 525 4134 
L 525 4666 
z
" transform="scale(0.015625)"/>
       </defs>
       <use xlink:href="#DejaVuSans-32"/>
       <use xlink:href="#DejaVuSans-30" x="63.623047"/>
       <use xlink:href="#DejaVuSans-31" x="127.246094"/>
       <use xlink:href="#DejaVuSans-38" x="190.869141"/>
       <use xlink:href="#DejaVuSans-2d" x="254.492188"/>
       <use xlink:href="#DejaVuSans-30" x="290.576172"/>
       <use xlink:href="#DejaVuSans-37" x="354.199219"/>
      </g>
     </g>
    </g>
    <g id="xtick_16">
     <g id="line2d_45">
      <path d="M 209.068663 404.407645 
L 209.068663 292.947167 
" clip-path="url(#p4942ff8f7b)" style="fill: none; stroke-dasharray: 1.85,0.8; stroke-dashoffset: 0; stroke: #b2b2b2; stroke-width: 0.5"/>
     </g>
     <g id="line2d_46">
      <g>
       <use xlink:href="#m42806957e7" x="209.068663" y="404.407645" style="stroke: #000000; stroke-width: 0.8"/>
      </g>
     </g>
     <g id="text_12">
      <!-- 2019-01 -->
      <g transform="translate(188.177257 415.506082)scale(0.1 -0.1)">
       <defs>
        <path id="DejaVuSans-39" d="M 703 97 
L 703 672 
Q 941 559 1184 500 
Q 1428 441 1663 441 
Q 2288 441 2617 861 
Q 2947 1281 2994 2138 
Q 2813 1869 2534 1725 
Q 2256 1581 1919 1581 
Q 1219 1581 811 2004 
Q 403 2428 403 3163 
Q 403 3881 828 4315 
Q 1253 4750 1959 4750 
Q 2769 4750 3195 4129 
Q 3622 3509 3622 2328 
Q 3622 1225 3098 567 
Q 2575 -91 1691 -91 
Q 1453 -91 1209 -44 
Q 966 3 703 97 
z
M 1959 2075 
Q 2384 2075 2632 2365 
Q 2881 2656 2881 3163 
Q 2881 3666 2632 3958 
Q 2384 4250 1959 4250 
Q 1534 4250 1286 3958 
Q 1038 3666 1038 3163 
Q 1038 2656 1286 2365 
Q 1534 2075 1959 2075 
z
" transform="scale(0.015625)"/>
       </defs>
       <use xlink:href="#DejaVuSans-32"/>
       <use xlink:href="#DejaVuSans-30" x="63.623047"/>
       <use xlink:href="#DejaVuSans-31" x="127.246094"/>
       <use xlink:href="#DejaVuSans-39" x="190.869141"/>
       <use xlink:href="#DejaVuSans-2d" x="254.492188"/>
       <use xlink:href="#DejaVuSans-30" x="290.576172"/>
       <use xlink:href="#DejaVuSans-31" x="354.199219"/>
      </g>
     </g>
    </g>
    <g id="xtick_17">
     <g id="line2d_47">
      <path d="M 298.690325 404.407645 
L 298.690325 292.947167 
" clip-path="url(#p4942ff8f7b)" style="fill: none; stroke-dasharray: 1.85,0.8; stroke-dashoffset: 0; stroke: #b2b2b2; stroke-width: 0.5"/>
     </g>
     <g id="line2d_48">
      <g>
       <use xlink:href="#m42806957e7" x="298.690325" y="404.407645" style="stroke: #000000; stroke-width: 0.8"/>
      </g>
     </g>
     <g id="text_13">
      <!-- 2019-07 -->
      <g transform="translate(277.798919 415.506082)scale(0.1 -0.1)">
       <use xlink:href="#DejaVuSans-32"/>
       <use xlink:href="#DejaVuSans-30" x="63.623047"/>
       <use xlink:href="#DejaVuSans-31" x="127.246094"/>
       <use xlink:href="#DejaVuSans-39" x="190.869141"/>
       <use xlink:href="#DejaVuSans-2d" x="254.492188"/>
       <use xlink:href="#DejaVuSans-30" x="290.576172"/>
       <use xlink:href="#DejaVuSans-37" x="354.199219"/>
      </g>
     </g>
    </g>
    <g id="xtick_18">
     <g id="line2d_49">
      <path d="M 389.797429 404.407645 
L 389.797429 292.947167 
" clip-path="url(#p4942ff8f7b)" style="fill: none; stroke-dasharray: 1.85,0.8; stroke-dashoffset: 0; stroke: #b2b2b2; stroke-width: 0.5"/>
     </g>
     <g id="line2d_50">
      <g>
       <use xlink:href="#m42806957e7" x="389.797429" y="404.407645" style="stroke: #000000; stroke-width: 0.8"/>
      </g>
     </g>
     <g id="text_14">
      <!-- 2020-01 -->
      <g transform="translate(368.906023 415.506082)scale(0.1 -0.1)">
       <use xlink:href="#DejaVuSans-32"/>
       <use xlink:href="#DejaVuSans-30" x="63.623047"/>
       <use xlink:href="#DejaVuSans-32" x="127.246094"/>
       <use xlink:href="#DejaVuSans-30" x="190.869141"/>
       <use xlink:href="#DejaVuSans-2d" x="254.492188"/>
       <use xlink:href="#DejaVuSans-30" x="290.576172"/>
       <use xlink:href="#DejaVuSans-31" x="354.199219"/>
      </g>
     </g>
    </g>
    <g id="xtick_19">
     <g id="line2d_51">
      <path d="M 479.914239 404.407645 
L 479.914239 292.947167 
" clip-path="url(#p4942ff8f7b)" style="fill: none; stroke-dasharray: 1.85,0.8; stroke-dashoffset: 0; stroke: #b2b2b2; stroke-width: 0.5"/>
     </g>
     <g id="line2d_52">
      <g>
       <use xlink:href="#m42806957e7" x="479.914239" y="404.407645" style="stroke: #000000; stroke-width: 0.8"/>
      </g>
     </g>
     <g id="text_15">
      <!-- 2020-07 -->
      <g transform="translate(459.022832 415.506082)scale(0.1 -0.1)">
       <use xlink:href="#DejaVuSans-32"/>
       <use xlink:href="#DejaVuSans-30" x="63.623047"/>
       <use xlink:href="#DejaVuSans-32" x="127.246094"/>
       <use xlink:href="#DejaVuSans-30" x="190.869141"/>
       <use xlink:href="#DejaVuSans-2d" x="254.492188"/>
       <use xlink:href="#DejaVuSans-30" x="290.576172"/>
       <use xlink:href="#DejaVuSans-37" x="354.199219"/>
      </g>
     </g>
    </g>
    <g id="xtick_20">
     <g id="line2d_53">
      <path d="M 571.021343 404.407645 
L 571.021343 292.947167 
" clip-path="url(#p4942ff8f7b)" style="fill: none; stroke-dasharray: 1.85,0.8; stroke-dashoffset: 0; stroke: #b2b2b2; stroke-width: 0.5"/>
     </g>
     <g id="line2d_54">
      <g>
       <use xlink:href="#m42806957e7" x="571.021343" y="404.407645" style="stroke: #000000; stroke-width: 0.8"/>
      </g>
     </g>
     <g id="text_16">
      <!-- 2021-01 -->
      <g transform="translate(550.129936 415.506082)scale(0.1 -0.1)">
       <use xlink:href="#DejaVuSans-32"/>
       <use xlink:href="#DejaVuSans-30" x="63.623047"/>
       <use xlink:href="#DejaVuSans-32" x="127.246094"/>
       <use xlink:href="#DejaVuSans-31" x="190.869141"/>
       <use xlink:href="#DejaVuSans-2d" x="254.492188"/>
       <use xlink:href="#DejaVuSans-30" x="290.576172"/>
       <use xlink:href="#DejaVuSans-31" x="354.199219"/>
      </g>
     </g>
    </g>
    <g id="xtick_21">
     <g id="line2d_55">
      <path d="M 660.643005 404.407645 
L 660.643005 292.947167 
" clip-path="url(#p4942ff8f7b)" style="fill: none; stroke-dasharray: 1.85,0.8; stroke-dashoffset: 0; stroke: #b2b2b2; stroke-width: 0.5"/>
     </g>
     <g id="line2d_56">
      <g>
       <use xlink:href="#m42806957e7" x="660.643005" y="404.407645" style="stroke: #000000; stroke-width: 0.8"/>
      </g>
     </g>
     <g id="text_17">
      <!-- 2021-07 -->
      <g transform="translate(639.751598 415.506082)scale(0.1 -0.1)">
       <use xlink:href="#DejaVuSans-32"/>
       <use xlink:href="#DejaVuSans-30" x="63.623047"/>
       <use xlink:href="#DejaVuSans-32" x="127.246094"/>
       <use xlink:href="#DejaVuSans-31" x="190.869141"/>
       <use xlink:href="#DejaVuSans-2d" x="254.492188"/>
       <use xlink:href="#DejaVuSans-30" x="290.576172"/>
       <use xlink:href="#DejaVuSans-37" x="354.199219"/>
      </g>
     </g>
    </g>
    <g id="text_18">
     <!-- date -->
     <g transform="translate(368.345073 430.703895)scale(0.12 -0.12)">
      <use xlink:href="#DejaVuSans-64"/>
      <use xlink:href="#DejaVuSans-61" x="63.476562"/>
      <use xlink:href="#DejaVuSans-74" x="124.755859"/>
      <use xlink:href="#DejaVuSans-65" x="163.964844"/>
     </g>
    </g>
   </g>
   <g id="matplotlib.axis_6">
    <g id="ytick_7">
     <g id="line2d_57">
      <path d="M 42.550625 373.896274 
L 721.19952 373.896274 
" clip-path="url(#p4942ff8f7b)" style="fill: none; stroke-dasharray: 1.85,0.8; stroke-dashoffset: 0; stroke: #b2b2b2; stroke-width: 0.5"/>
     </g>
     <g id="line2d_58">
      <g>
       <use xlink:href="#m32a685fc0c" x="42.550625" y="373.896274" style="stroke: #000000; stroke-width: 0.8"/>
      </g>
     </g>
     <g id="text_19">
      <!-- 5 -->
      <g transform="translate(32.688125 377.695493)scale(0.1 -0.1)">
       <use xlink:href="#DejaVuSans-35"/>
      </g>
     </g>
    </g>
    <g id="ytick_8">
     <g id="line2d_59">
      <path d="M 42.550625 342.588229 
L 721.19952 342.588229 
" clip-path="url(#p4942ff8f7b)" style="fill: none; stroke-dasharray: 1.85,0.8; stroke-dashoffset: 0; stroke: #b2b2b2; stroke-width: 0.5"/>
     </g>
     <g id="line2d_60">
      <g>
       <use xlink:href="#m32a685fc0c" x="42.550625" y="342.588229" style="stroke: #000000; stroke-width: 0.8"/>
      </g>
     </g>
     <g id="text_20">
      <!-- 10 -->
      <g transform="translate(26.325625 346.387448)scale(0.1 -0.1)">
       <use xlink:href="#DejaVuSans-31"/>
       <use xlink:href="#DejaVuSans-30" x="63.623047"/>
      </g>
     </g>
    </g>
    <g id="ytick_9">
     <g id="line2d_61">
      <path d="M 42.550625 311.280184 
L 721.19952 311.280184 
" clip-path="url(#p4942ff8f7b)" style="fill: none; stroke-dasharray: 1.85,0.8; stroke-dashoffset: 0; stroke: #b2b2b2; stroke-width: 0.5"/>
     </g>
     <g id="line2d_62">
      <g>
       <use xlink:href="#m32a685fc0c" x="42.550625" y="311.280184" style="stroke: #000000; stroke-width: 0.8"/>
      </g>
     </g>
     <g id="text_21">
      <!-- 15 -->
      <g transform="translate(26.325625 315.079403)scale(0.1 -0.1)">
       <use xlink:href="#DejaVuSans-31"/>
       <use xlink:href="#DejaVuSans-35" x="63.623047"/>
      </g>
     </g>
    </g>
    <g id="text_22">
     <!-- z_adstock -->
     <g transform="translate(19.49625 378.234906)rotate(-90)scale(0.12 -0.12)">
      <defs>
       <path id="DejaVuSans-6b" d="M 581 4863 
L 1159 4863 
L 1159 1991 
L 2875 3500 
L 3609 3500 
L 1753 1863 
L 3688 0 
L 2938 0 
L 1159 1709 
L 1159 0 
L 581 0 
L 581 4863 
z
" transform="scale(0.015625)"/>
      </defs>
      <use xlink:href="#DejaVuSans-7a"/>
      <use xlink:href="#DejaVuSans-5f" x="52.490234"/>
      <use xlink:href="#DejaVuSans-61" x="102.490234"/>
      <use xlink:href="#DejaVuSans-64" x="163.769531"/>
      <use xlink:href="#DejaVuSans-73" x="227.246094"/>
      <use xlink:href="#DejaVuSans-74" x="279.345703"/>
      <use xlink:href="#DejaVuSans-6f" x="318.554688"/>
      <use xlink:href="#DejaVuSans-63" x="379.736328"/>
      <use xlink:href="#DejaVuSans-6b" x="434.716797"/>
     </g>
    </g>
   </g>
   <g id="line2d_63">
    <path d="M 73.398302 399.34126 
L 76.864333 342.742777 
L 80.330364 328.138949 
L 83.796395 329.185981 
L 87.262427 364.75283 
L 90.728458 382.536633 
L 94.194489 392.961234 
L 97.66052 344.846213 
L 101.126551 337.385794 
L 104.592582 326.95832 
L 108.058613 365.75909 
L 111.524644 324.749742 
L 114.990676 312.854158 
L 118.456707 355.719811 
L 121.922738 377.626963 
L 125.388769 388.553775 
L 128.8548 392.117028 
L 132.320831 365.803074 
L 135.786862 358.45721 
L 139.252893 377.285098 
L 142.718925 352.942062 
L 146.184956 376.900375 
L 149.650987 386.479187 
L 153.117018 390.121544 
L 156.583049 369.118338 
L 160.04908 337.997491 
L 163.515111 368.475902 
L 166.981143 354.641462 
L 170.447174 342.829369 
L 173.913205 373.29773 
L 177.379236 351.215545 
L 180.845267 375.541656 
L 184.311298 389.364022 
L 187.777329 337.869201 
L 191.24336 311.073774 
L 194.709392 307.521766 
L 198.175423 351.601584 
L 201.641454 376.885993 
L 205.107485 348.201922 
L 208.573516 349.150354 
L 212.039547 375.276003 
L 215.505578 359.234297 
L 218.971609 381.690277 
L 222.437641 336.509861 
L 225.903672 366.806391 
L 229.369703 344.535306 
L 232.835734 370.005042 
L 236.301765 355.052412 
L 239.767796 345.89667 
L 243.233827 372.657152 
L 246.699858 328.229597 
L 250.16589 318.1879 
L 253.631921 302.868825 
L 257.097952 298.013552 
L 260.563983 314.170908 
L 264.030014 301.977354 
L 267.496045 352.206562 
L 270.962076 375.647648 
L 274.428108 389.719186 
L 277.894139 392.376975 
L 281.36017 392.714641 
L 284.826201 394.712483 
L 288.292232 348.080921 
L 291.758263 371.069845 
L 295.224294 383.753689 
L 298.690325 360.511177 
L 302.156357 380.660857 
L 305.622388 342.716242 
L 309.088419 372.793601 
L 312.55445 327.204708 
L 316.020481 317.849738 
L 319.486512 358.417572 
L 322.952543 381.725988 
L 326.418574 342.405184 
L 329.884606 329.556777 
L 333.350637 321.734333 
L 336.816668 315.176466 
L 340.282699 359.039592 
L 343.74873 376.511064 
L 347.214761 389.056138 
L 350.680792 343.086351 
L 354.146823 335.13193 
L 357.612855 365.000045 
L 361.078886 384.107998 
L 364.544917 389.788055 
L 368.010948 392.418226 
L 371.476979 353.136992 
L 374.94301 339.260444 
L 378.409041 316.690379 
L 381.875072 331.37938 
L 385.341104 366.421088 
L 388.807135 341.152547 
L 392.273166 325.554242 
L 395.739197 330.243825 
L 399.205228 319.450386 
L 402.671259 331.408046 
L 406.13729 335.575885 
L 409.603322 343.620398 
L 413.069353 374.025601 
L 416.535384 387.935771 
L 420.001415 396.091615 
L 423.467446 360.805654 
L 426.933477 378.084508 
L 430.399508 359.810609 
L 433.865539 325.69083 
L 437.331571 361.553729 
L 440.797602 357.694236 
L 444.263633 334.147168 
L 447.729664 366.102123 
L 451.195695 384.454712 
L 454.661726 390.293837 
L 458.127757 395.225729 
L 461.593788 342.001112 
L 465.05982 323.011106 
L 468.525851 324.447647 
L 471.991882 310.266303 
L 475.457913 307.426382 
L 478.923944 353.395731 
L 482.389975 323.417744 
L 485.856006 330.551079 
L 489.322037 317.319828 
L 492.788069 305.152634 
L 496.2541 350.20155 
L 499.720131 375.980796 
L 503.186162 387.038668 
L 506.652193 369.390027 
L 510.118224 336.08597 
L 513.584255 316.762883 
L 517.050287 360.887058 
L 520.516318 351.065402 
L 523.982349 352.01186 
L 527.44838 375.139454 
L 530.914411 388.307855 
L 534.380442 391.48475 
L 537.846473 339.304431 
L 541.312504 367.19537 
L 544.778536 353.716075 
L 548.244567 335.446428 
L 551.710598 364.645613 
L 555.176629 324.088929 
L 558.64266 304.381964 
L 562.108691 350.859544 
L 565.574722 346.902555 
L 569.040753 371.34433 
L 572.506785 383.815883 
L 575.972816 393.933962 
L 579.438847 361.41502 
L 582.904878 351.83511 
L 586.370909 377.721796 
L 589.83694 387.111866 
L 593.302971 339.287424 
L 596.769002 368.51062 
L 600.235034 384.603995 
L 603.701065 364.257501 
L 607.167096 323.020934 
L 610.633127 360.324638 
L 614.099158 340.679067 
L 617.565189 325.252191 
L 621.03122 361.51759 
L 624.497252 337.770579 
L 627.963283 365.73036 
L 631.429314 345.875886 
L 634.895345 335.884834 
L 638.361376 336.997376 
L 641.827407 369.688003 
L 645.293438 335.150267 
L 648.759469 365.170862 
L 652.225501 382.268751 
L 655.691532 393.108515 
L 659.157563 362.168654 
L 662.623594 341.260964 
L 666.089625 372.984107 
L 669.555656 357.030354 
L 673.021687 377.581433 
L 676.487718 351.004363 
L 679.95375 375.382996 
L 683.419781 347.030183 
L 686.885812 370.076056 
L 690.351843 328.987044 
L 690.351843 328.987044 
" clip-path="url(#p4942ff8f7b)" style="fill: none; stroke: #a60628; stroke-width: 2; stroke-linecap: square"/>
   </g>
   <g id="patch_13">
    <path d="M 42.550625 404.407645 
L 42.550625 292.947167 
" style="fill: none; stroke: #bcbcbc; stroke-width: 0.8; stroke-linejoin: miter; stroke-linecap: square"/>
   </g>
   <g id="patch_14">
    <path d="M 721.19952 404.407645 
L 721.19952 292.947167 
" style="fill: none; stroke: #bcbcbc; stroke-width: 0.8; stroke-linejoin: miter; stroke-linecap: square"/>
   </g>
   <g id="patch_15">
    <path d="M 42.550625 404.407645 
L 721.19952 404.407645 
" style="fill: none; stroke: #bcbcbc; stroke-width: 0.8; stroke-linejoin: miter; stroke-linecap: square"/>
   </g>
   <g id="patch_16">
    <path d="M 42.550625 292.947167 
L 721.19952 292.947167 
" style="fill: none; stroke: #bcbcbc; stroke-width: 0.8; stroke-linejoin: miter; stroke-linecap: square"/>
   </g>
   <g id="text_23">
    <!-- Media Cost Adstock Transform -->
    <g transform="translate(273.092072 286.947167)scale(0.144 -0.144)">
     <defs>
      <path id="DejaVuSans-41" d="M 2188 4044 
L 1331 1722 
L 3047 1722 
L 2188 4044 
z
M 1831 4666 
L 2547 4666 
L 4325 0 
L 3669 0 
L 3244 1197 
L 1141 1197 
L 716 0 
L 50 0 
L 1831 4666 
z
" transform="scale(0.015625)"/>
      <path id="DejaVuSans-6d" d="M 3328 2828 
Q 3544 3216 3844 3400 
Q 4144 3584 4550 3584 
Q 5097 3584 5394 3201 
Q 5691 2819 5691 2113 
L 5691 0 
L 5113 0 
L 5113 2094 
Q 5113 2597 4934 2840 
Q 4756 3084 4391 3084 
Q 3944 3084 3684 2787 
Q 3425 2491 3425 1978 
L 3425 0 
L 2847 0 
L 2847 2094 
Q 2847 2600 2669 2842 
Q 2491 3084 2119 3084 
Q 1678 3084 1418 2786 
Q 1159 2488 1159 1978 
L 1159 0 
L 581 0 
L 581 3500 
L 1159 3500 
L 1159 2956 
Q 1356 3278 1631 3431 
Q 1906 3584 2284 3584 
Q 2666 3584 2933 3390 
Q 3200 3197 3328 2828 
z
" transform="scale(0.015625)"/>
     </defs>
     <use xlink:href="#DejaVuSans-4d"/>
     <use xlink:href="#DejaVuSans-65" x="86.279297"/>
     <use xlink:href="#DejaVuSans-64" x="147.802734"/>
     <use xlink:href="#DejaVuSans-69" x="211.279297"/>
     <use xlink:href="#DejaVuSans-61" x="239.0625"/>
     <use xlink:href="#DejaVuSans-20" x="300.341797"/>
     <use xlink:href="#DejaVuSans-43" x="332.128906"/>
     <use xlink:href="#DejaVuSans-6f" x="401.953125"/>
     <use xlink:href="#DejaVuSans-73" x="463.134766"/>
     <use xlink:href="#DejaVuSans-74" x="515.234375"/>
     <use xlink:href="#DejaVuSans-20" x="554.443359"/>
     <use xlink:href="#DejaVuSans-41" x="586.230469"/>
     <use xlink:href="#DejaVuSans-64" x="652.888672"/>
     <use xlink:href="#DejaVuSans-73" x="716.365234"/>
     <use xlink:href="#DejaVuSans-74" x="768.464844"/>
     <use xlink:href="#DejaVuSans-6f" x="807.673828"/>
     <use xlink:href="#DejaVuSans-63" x="868.855469"/>
     <use xlink:href="#DejaVuSans-6b" x="923.835938"/>
     <use xlink:href="#DejaVuSans-20" x="981.746094"/>
     <use xlink:href="#DejaVuSans-54" x="1013.533203"/>
     <use xlink:href="#DejaVuSans-72" x="1059.867188"/>
     <use xlink:href="#DejaVuSans-61" x="1100.980469"/>
     <use xlink:href="#DejaVuSans-6e" x="1162.259766"/>
     <use xlink:href="#DejaVuSans-73" x="1225.638672"/>
     <use xlink:href="#DejaVuSans-66" x="1277.738281"/>
     <use xlink:href="#DejaVuSans-6f" x="1312.943359"/>
     <use xlink:href="#DejaVuSans-72" x="1374.125"/>
     <use xlink:href="#DejaVuSans-6d" x="1413.488281"/>
    </g>
   </g>
  </g>
 </g>
 <defs>
  <clipPath id="p56833210d5">
   <rect x="42.550625" y="24.14175" width="678.648895" height="111.460478"/>
  </clipPath>
  <clipPath id="p362abee15f">
   <rect x="42.550625" y="158.544458" width="678.648895" height="111.460478"/>
  </clipPath>
  <clipPath id="p4942ff8f7b">
   <rect x="42.550625" y="292.947167" width="678.648895" height="111.460478"/>
  </clipPath>
 </defs>
</svg>
