<?xml version="1.0" encoding="utf-8" standalone="no"?>
<!DOCTYPE svg PUBLIC "-//W3C//DTD SVG 1.1//EN"
  "http://www.w3.org/Graphics/SVG/1.1/DTD/svg11.dtd">
<svg xmlns:xlink="http://www.w3.org/1999/xlink" width="872.39952pt" height="512.39952pt" viewBox="0 0 872.39952 512.39952" xmlns="http://www.w3.org/2000/svg" version="1.1">
 <metadata>
  <rdf:RDF xmlns:dc="http://purl.org/dc/elements/1.1/" xmlns:cc="http://creativecommons.org/ns#" xmlns:rdf="http://www.w3.org/1999/02/22-rdf-syntax-ns#">
   <cc:Work>
    <dc:type rdf:resource="http://purl.org/dc/dcmitype/StillImage"/>
    <dc:date>2022-02-03T13:28:26.838990</dc:date>
    <dc:format>image/svg+xml</dc:format>
    <dc:creator>
     <cc:Agent>
      <dc:title>Matplotlib v3.5.1, https://matplotlib.org/</dc:title>
     </cc:Agent>
    </dc:creator>
   </cc:Work>
  </rdf:RDF>
 </metadata>
 <defs>
  <style type="text/css">*{stroke-linejoin: round; stroke-linecap: butt}</style>
 </defs>
 <g id="figure_1">
  <g id="patch_1">
   <path d="M 0 512.39952 
L 872.39952 512.39952 
L 872.39952 0 
L 0 0 
L 0 512.39952 
z
" style="fill: none"/>
  </g>
  <g id="axes_1">
   <g id="patch_2">
    <path d="M 48.579375 133.088622 
L 721.68077 133.088622 
L 721.68077 25.0247 
L 48.579375 25.0247 
z
" style="fill: #eeeeee"/>
   </g>
   <g id="matplotlib.axis_1">
    <g id="xtick_1">
     <g id="line2d_1">
      <path d="M 123.373876 133.088622 
L 123.373876 25.0247 
" clip-path="url(#p4abe2f1480)" style="fill: none; stroke-dasharray: 1.85,0.8; stroke-dashoffset: 0; stroke: #b2b2b2; stroke-width: 0.5"/>
     </g>
     <g id="line2d_2">
      <defs>
       <path id="m5a1ae6389f" d="M 0 0 
L 0 -3.5 
" style="stroke: #000000; stroke-width: 0.8"/>
      </defs>
      <g>
       <use xlink:href="#m5a1ae6389f" x="123.373876" y="133.088622" style="stroke: #000000; stroke-width: 0.8"/>
      </g>
     </g>
    </g>
    <g id="xtick_2">
     <g id="line2d_3">
      <path d="M 213.73624 133.088622 
L 213.73624 25.0247 
" clip-path="url(#p4abe2f1480)" style="fill: none; stroke-dasharray: 1.85,0.8; stroke-dashoffset: 0; stroke: #b2b2b2; stroke-width: 0.5"/>
     </g>
     <g id="line2d_4">
      <g>
       <use xlink:href="#m5a1ae6389f" x="213.73624" y="133.088622" style="stroke: #000000; stroke-width: 0.8"/>
      </g>
     </g>
    </g>
    <g id="xtick_3">
     <g id="line2d_5">
      <path d="M 302.625305 133.088622 
L 302.625305 25.0247 
" clip-path="url(#p4abe2f1480)" style="fill: none; stroke-dasharray: 1.85,0.8; stroke-dashoffset: 0; stroke: #b2b2b2; stroke-width: 0.5"/>
     </g>
     <g id="line2d_6">
      <g>
       <use xlink:href="#m5a1ae6389f" x="302.625305" y="133.088622" style="stroke: #000000; stroke-width: 0.8"/>
      </g>
     </g>
    </g>
    <g id="xtick_4">
     <g id="line2d_7">
      <path d="M 392.987669 133.088622 
L 392.987669 25.0247 
" clip-path="url(#p4abe2f1480)" style="fill: none; stroke-dasharray: 1.85,0.8; stroke-dashoffset: 0; stroke: #b2b2b2; stroke-width: 0.5"/>
     </g>
     <g id="line2d_8">
      <g>
       <use xlink:href="#m5a1ae6389f" x="392.987669" y="133.088622" style="stroke: #000000; stroke-width: 0.8"/>
      </g>
     </g>
    </g>
    <g id="xtick_5">
     <g id="line2d_9">
      <path d="M 482.367834 133.088622 
L 482.367834 25.0247 
" clip-path="url(#p4abe2f1480)" style="fill: none; stroke-dasharray: 1.85,0.8; stroke-dashoffset: 0; stroke: #b2b2b2; stroke-width: 0.5"/>
     </g>
     <g id="line2d_10">
      <g>
       <use xlink:href="#m5a1ae6389f" x="482.367834" y="133.088622" style="stroke: #000000; stroke-width: 0.8"/>
      </g>
     </g>
    </g>
    <g id="xtick_6">
     <g id="line2d_11">
      <path d="M 572.730199 133.088622 
L 572.730199 25.0247 
" clip-path="url(#p4abe2f1480)" style="fill: none; stroke-dasharray: 1.85,0.8; stroke-dashoffset: 0; stroke: #b2b2b2; stroke-width: 0.5"/>
     </g>
     <g id="line2d_12">
      <g>
       <use xlink:href="#m5a1ae6389f" x="572.730199" y="133.088622" style="stroke: #000000; stroke-width: 0.8"/>
      </g>
     </g>
    </g>
    <g id="xtick_7">
     <g id="line2d_13">
      <path d="M 661.619264 133.088622 
L 661.619264 25.0247 
" clip-path="url(#p4abe2f1480)" style="fill: none; stroke-dasharray: 1.85,0.8; stroke-dashoffset: 0; stroke: #b2b2b2; stroke-width: 0.5"/>
     </g>
     <g id="line2d_14">
      <g>
       <use xlink:href="#m5a1ae6389f" x="661.619264" y="133.088622" style="stroke: #000000; stroke-width: 0.8"/>
      </g>
     </g>
    </g>
   </g>
   <g id="matplotlib.axis_2">
    <g id="ytick_1">
     <g id="line2d_15">
      <path d="M 48.579375 128.314243 
L 721.68077 128.314243 
" clip-path="url(#p4abe2f1480)" style="fill: none; stroke-dasharray: 1.85,0.8; stroke-dashoffset: 0; stroke: #b2b2b2; stroke-width: 0.5"/>
     </g>
     <g id="line2d_16">
      <defs>
       <path id="ma4c9eeb22d" d="M 0 0 
L 3.5 0 
" style="stroke: #000000; stroke-width: 0.8"/>
      </defs>
      <g>
       <use xlink:href="#ma4c9eeb22d" x="48.579375" y="128.314243" style="stroke: #000000; stroke-width: 0.8"/>
      </g>
     </g>
     <g id="text_1">
      <!-- 0.0 -->
      <g transform="translate(29.17625 132.113462)scale(0.1 -0.1)">
       <defs>
        <path id="DejaVuSans-30" d="M 2034 4250 
Q 1547 4250 1301 3770 
Q 1056 3291 1056 2328 
Q 1056 1369 1301 889 
Q 1547 409 2034 409 
Q 2525 409 2770 889 
Q 3016 1369 3016 2328 
Q 3016 3291 2770 3770 
Q 2525 4250 2034 4250 
z
M 2034 4750 
Q 2819 4750 3233 4129 
Q 3647 3509 3647 2328 
Q 3647 1150 3233 529 
Q 2819 -91 2034 -91 
Q 1250 -91 836 529 
Q 422 1150 422 2328 
Q 422 3509 836 4129 
Q 1250 4750 2034 4750 
z
" transform="scale(0.015625)"/>
        <path id="DejaVuSans-2e" d="M 684 794 
L 1344 794 
L 1344 0 
L 684 0 
L 684 794 
z
" transform="scale(0.015625)"/>
       </defs>
       <use xlink:href="#DejaVuSans-30"/>
       <use xlink:href="#DejaVuSans-2e" x="63.623047"/>
       <use xlink:href="#DejaVuSans-30" x="95.410156"/>
      </g>
     </g>
    </g>
    <g id="ytick_2">
     <g id="line2d_17">
      <path d="M 48.579375 103.393063 
L 721.68077 103.393063 
" clip-path="url(#p4abe2f1480)" style="fill: none; stroke-dasharray: 1.85,0.8; stroke-dashoffset: 0; stroke: #b2b2b2; stroke-width: 0.5"/>
     </g>
     <g id="line2d_18">
      <g>
       <use xlink:href="#ma4c9eeb22d" x="48.579375" y="103.393063" style="stroke: #000000; stroke-width: 0.8"/>
      </g>
     </g>
     <g id="text_2">
      <!-- 2.5 -->
      <g transform="translate(29.17625 107.192282)scale(0.1 -0.1)">
       <defs>
        <path id="DejaVuSans-32" d="M 1228 531 
L 3431 531 
L 3431 0 
L 469 0 
L 469 531 
Q 828 903 1448 1529 
Q 2069 2156 2228 2338 
Q 2531 2678 2651 2914 
Q 2772 3150 2772 3378 
Q 2772 3750 2511 3984 
Q 2250 4219 1831 4219 
Q 1534 4219 1204 4116 
Q 875 4013 500 3803 
L 500 4441 
Q 881 4594 1212 4672 
Q 1544 4750 1819 4750 
Q 2544 4750 2975 4387 
Q 3406 4025 3406 3419 
Q 3406 3131 3298 2873 
Q 3191 2616 2906 2266 
Q 2828 2175 2409 1742 
Q 1991 1309 1228 531 
z
" transform="scale(0.015625)"/>
        <path id="DejaVuSans-35" d="M 691 4666 
L 3169 4666 
L 3169 4134 
L 1269 4134 
L 1269 2991 
Q 1406 3038 1543 3061 
Q 1681 3084 1819 3084 
Q 2600 3084 3056 2656 
Q 3513 2228 3513 1497 
Q 3513 744 3044 326 
Q 2575 -91 1722 -91 
Q 1428 -91 1123 -41 
Q 819 9 494 109 
L 494 744 
Q 775 591 1075 516 
Q 1375 441 1709 441 
Q 2250 441 2565 725 
Q 2881 1009 2881 1497 
Q 2881 1984 2565 2268 
Q 2250 2553 1709 2553 
Q 1456 2553 1204 2497 
Q 953 2441 691 2322 
L 691 4666 
z
" transform="scale(0.015625)"/>
       </defs>
       <use xlink:href="#DejaVuSans-32"/>
       <use xlink:href="#DejaVuSans-2e" x="63.623047"/>
       <use xlink:href="#DejaVuSans-35" x="95.410156"/>
      </g>
     </g>
    </g>
    <g id="ytick_3">
     <g id="line2d_19">
      <path d="M 48.579375 78.471884 
L 721.68077 78.471884 
" clip-path="url(#p4abe2f1480)" style="fill: none; stroke-dasharray: 1.85,0.8; stroke-dashoffset: 0; stroke: #b2b2b2; stroke-width: 0.5"/>
     </g>
     <g id="line2d_20">
      <g>
       <use xlink:href="#ma4c9eeb22d" x="48.579375" y="78.471884" style="stroke: #000000; stroke-width: 0.8"/>
      </g>
     </g>
     <g id="text_3">
      <!-- 5.0 -->
      <g transform="translate(29.17625 82.271102)scale(0.1 -0.1)">
       <use xlink:href="#DejaVuSans-35"/>
       <use xlink:href="#DejaVuSans-2e" x="63.623047"/>
       <use xlink:href="#DejaVuSans-30" x="95.410156"/>
      </g>
     </g>
    </g>
    <g id="ytick_4">
     <g id="line2d_21">
      <path d="M 48.579375 53.550704 
L 721.68077 53.550704 
" clip-path="url(#p4abe2f1480)" style="fill: none; stroke-dasharray: 1.85,0.8; stroke-dashoffset: 0; stroke: #b2b2b2; stroke-width: 0.5"/>
     </g>
     <g id="line2d_22">
      <g>
       <use xlink:href="#ma4c9eeb22d" x="48.579375" y="53.550704" style="stroke: #000000; stroke-width: 0.8"/>
      </g>
     </g>
     <g id="text_4">
      <!-- 7.5 -->
      <g transform="translate(29.17625 57.349923)scale(0.1 -0.1)">
       <defs>
        <path id="DejaVuSans-37" d="M 525 4666 
L 3525 4666 
L 3525 4397 
L 1831 0 
L 1172 0 
L 2766 4134 
L 525 4134 
L 525 4666 
z
" transform="scale(0.015625)"/>
       </defs>
       <use xlink:href="#DejaVuSans-37"/>
       <use xlink:href="#DejaVuSans-2e" x="63.623047"/>
       <use xlink:href="#DejaVuSans-35" x="95.410156"/>
      </g>
     </g>
    </g>
    <g id="ytick_5">
     <g id="line2d_23">
      <path d="M 48.579375 28.629524 
L 721.68077 28.629524 
" clip-path="url(#p4abe2f1480)" style="fill: none; stroke-dasharray: 1.85,0.8; stroke-dashoffset: 0; stroke: #b2b2b2; stroke-width: 0.5"/>
     </g>
     <g id="line2d_24">
      <g>
       <use xlink:href="#ma4c9eeb22d" x="48.579375" y="28.629524" style="stroke: #000000; stroke-width: 0.8"/>
      </g>
     </g>
     <g id="text_5">
      <!-- 10.0 -->
      <g transform="translate(22.81375 32.428743)scale(0.1 -0.1)">
       <defs>
        <path id="DejaVuSans-31" d="M 794 531 
L 1825 531 
L 1825 4091 
L 703 3866 
L 703 4441 
L 1819 4666 
L 2450 4666 
L 2450 531 
L 3481 531 
L 3481 0 
L 794 0 
L 794 531 
z
" transform="scale(0.015625)"/>
       </defs>
       <use xlink:href="#DejaVuSans-31"/>
       <use xlink:href="#DejaVuSans-30" x="63.623047"/>
       <use xlink:href="#DejaVuSans-2e" x="127.246094"/>
       <use xlink:href="#DejaVuSans-30" x="159.033203"/>
      </g>
     </g>
    </g>
    <g id="text_6">
     <!-- z -->
     <g transform="translate(16.318125 82.205723)rotate(-90)scale(0.12 -0.12)">
      <defs>
       <path id="DejaVuSans-7a" d="M 353 3500 
L 3084 3500 
L 3084 2975 
L 922 459 
L 3084 459 
L 3084 0 
L 275 0 
L 275 525 
L 2438 3041 
L 353 3041 
L 353 3500 
z
" transform="scale(0.015625)"/>
      </defs>
      <use xlink:href="#DejaVuSans-7a"/>
     </g>
    </g>
   </g>
   <g id="line2d_25">
    <path d="M 79.174893 118.980261 
L 82.612592 33.542555 
L 86.05029 55.345633 
L 89.487989 68.63714 
L 92.925688 124.426074 
L 96.363386 124.426675 
L 99.801085 126.866731 
L 103.238783 41.969718 
L 106.676482 68.392262 
L 110.114181 57.730227 
L 113.551879 127.801253 
L 116.989578 31.629052 
L 120.427277 45.332433 
L 123.864975 123.022502 
L 127.302674 123.78295 
L 130.740373 123.743586 
L 134.178071 120.732167 
L 137.61577 76.004046 
L 141.053469 85.255925 
L 144.491167 121.056469 
L 147.928866 67.321859 
L 151.366565 124.837891 
L 154.804263 121.033654 
L 158.241962 119.184074 
L 161.67966 82.851035 
L 165.117359 50.044198 
L 168.555058 123.338137 
L 171.992756 77.052928 
L 175.430455 69.259563 
L 178.868154 127.156644 
L 182.305852 67.751305 
L 185.743551 124.064581 
L 189.18125 126.69308 
L 192.618948 33.724855 
L 196.056647 32.055486 
L 199.494346 47.729381 
L 202.932044 120.722908 
L 206.369743 125.880139 
L 209.807442 60.106666 
L 213.24514 84.437765 
L 216.682839 125.272906 
L 220.120537 78.952672 
L 223.558236 127.45724 
L 226.995935 37.668895 
L 230.433633 121.86514 
L 233.871332 62.270896 
L 237.309031 120.546035 
L 240.746729 76.471409 
L 244.184428 73.815583 
L 247.622127 123.707452 
L 251.059825 31.661472 
L 254.497524 51.045346 
L 257.935223 34.660555 
L 261.372921 39.11363 
L 264.81062 68.712752 
L 268.248319 36.417469 
L 271.686017 126.108905 
L 275.123716 123.430119 
L 278.561414 127.187125 
L 281.999113 120.206627 
L 285.436812 118.627946 
L 288.87451 121.551905 
L 292.312209 45.701778 
L 295.749908 119.423529 
L 299.187606 121.313023 
L 302.625305 74.215737 
L 306.063004 124.802245 
L 309.500702 48.347463 
L 312.938401 126.456353 
L 316.3761 29.936697 
L 319.813798 51.333241 
L 323.251497 123.362014 
L 326.689196 128.176625 
L 330.126894 47.0252 
L 333.564593 57.851368 
L 337.002291 55.643369 
L 340.43999 51.430376 
L 343.877689 126.468963 
L 347.315387 119.380854 
L 350.753086 125.426649 
L 354.190785 42.276021 
L 357.628483 66.180945 
L 361.066182 120.067874 
L 364.503881 126.730294 
L 367.941579 120.564197 
L 371.379278 120.210291 
L 374.816977 55.583656 
L 378.254675 64.759506 
L 381.692374 39.87269 
L 385.130072 81.241631 
L 388.567771 125.333813 
L 392.00547 57.214637 
L 395.443168 52.4756 
L 398.880867 72.363483 
L 402.318566 51.460597 
L 405.756264 79.090368 
L 409.193963 76.205768 
L 412.631662 85.694937 
L 416.06936 127.680768 
L 419.507059 125.625461 
L 422.944758 127.53099 
L 426.382456 64.87385 
L 429.820155 120.480121 
L 433.257854 77.617517 
L 436.695552 37.843735 
L 440.133251 122.101586 
L 447.008648 52.99734 
L 450.446347 122.612323 
L 453.884045 126.395813 
L 457.321744 121.093295 
L 460.759443 124.296418 
L 464.197141 35.637594 
L 467.63484 47.75699 
L 471.072539 65.173568 
L 474.510237 41.442939 
L 477.947936 48.200418 
L 481.385635 123.664697 
L 484.823333 39.33975 
L 488.261032 74.550063 
L 491.698731 47.824798 
L 495.136429 38.987634 
L 498.574128 120.389221 
L 502.011826 125.571619 
L 505.449525 122.63383 
L 508.887224 85.738123 
L 512.324922 46.770671 
L 515.762621 42.512557 
L 519.20032 128.140988 
L 522.638018 77.400542 
L 526.075717 86.704745 
L 529.513416 122.779054 
L 532.951114 125.327056 
L 536.388813 119.900475 
L 539.826512 34.320555 
L 543.26421 120.259645 
L 546.701909 76.598746 
L 550.139608 58.233996 
L 553.577306 119.252164 
L 557.015005 31.44242 
L 560.452703 32.372955 
L 563.890402 122.039531 
L 567.328101 78.746166 
L 570.765799 120.816 
L 574.203498 121.215682 
L 577.641197 127.394977 
L 581.078895 67.549994 
L 584.516594 78.204826 
L 587.954293 127.031332 
L 591.391991 121.370044 
L 594.82969 37.774014 
L 598.267389 122.344078 
L 601.705087 124.703292 
L 605.142786 79.523282 
L 608.580485 30.059955 
L 612.018183 122.28194 
L 615.455882 61.3126 
L 618.89358 52.392406 
L 622.331279 122.392035 
L 625.768978 55.722201 
L 629.206676 119.148653 
L 632.644375 65.283014 
L 636.082074 65.161012 
L 639.519772 74.905694 
L 642.957471 126.064115 
L 646.39517 45.047349 
L 649.832868 120.320025 
L 653.270567 123.665982 
L 656.708266 127.298078 
L 660.145964 69.411246 
L 663.583663 60.77143 
L 667.021362 127.900855 
L 670.45906 77.266391 
L 673.896759 122.669701 
L 677.334457 64.000375 
L 680.772156 123.968826 
L 684.209855 59.438309 
L 687.647553 118.676342 
L 691.085252 34.936578 
L 691.085252 34.936578 
" clip-path="url(#p4abe2f1480)" style="fill: none; stroke: #348abd; stroke-width: 2; stroke-linecap: square"/>
   </g>
   <g id="patch_3">
    <path d="M 48.579375 133.088622 
L 48.579375 25.0247 
" style="fill: none; stroke: #bcbcbc; stroke-width: 0.8; stroke-linejoin: miter; stroke-linecap: square"/>
   </g>
   <g id="patch_4">
    <path d="M 721.68077 133.088622 
L 721.68077 25.0247 
" style="fill: none; stroke: #bcbcbc; stroke-width: 0.8; stroke-linejoin: miter; stroke-linecap: square"/>
   </g>
   <g id="patch_5">
    <path d="M 48.579375 133.088622 
L 721.68077 133.088622 
" style="fill: none; stroke: #bcbcbc; stroke-width: 0.8; stroke-linejoin: miter; stroke-linecap: square"/>
   </g>
   <g id="patch_6">
    <path d="M 48.579375 25.0247 
L 721.68077 25.0247 
" style="fill: none; stroke: #bcbcbc; stroke-width: 0.8; stroke-linejoin: miter; stroke-linecap: square"/>
   </g>
   <g id="legend_1">
    <g id="patch_7">
     <path d="M 728.68077 87.895723 
L 765.929208 87.895723 
Q 767.929208 87.895723 767.929208 85.895723 
L 767.929208 72.217598 
Q 767.929208 70.217598 765.929208 70.217598 
L 728.68077 70.217598 
Q 726.68077 70.217598 726.68077 72.217598 
L 726.68077 85.895723 
Q 726.68077 87.895723 728.68077 87.895723 
z
" style="fill: #eeeeee; opacity: 0.8; stroke: #cccccc; stroke-width: 0.5; stroke-linejoin: miter"/>
    </g>
    <g id="line2d_26">
     <path d="M 730.68077 78.316036 
L 740.68077 78.316036 
L 750.68077 78.316036 
" style="fill: none; stroke: #348abd; stroke-width: 2; stroke-linecap: square"/>
    </g>
    <g id="text_7">
     <!-- z -->
     <g transform="translate(758.68077 81.816036)scale(0.1 -0.1)">
      <use xlink:href="#DejaVuSans-7a"/>
     </g>
    </g>
   </g>
  </g>
  <g id="axes_2">
   <g id="patch_8">
    <path d="M 48.579375 248.278842 
L 721.68077 248.278842 
L 721.68077 140.21492 
L 48.579375 140.21492 
z
" style="fill: #eeeeee"/>
   </g>
   <g id="matplotlib.axis_3">
    <g id="xtick_8">
     <g id="line2d_27">
      <path d="M 123.373876 248.278842 
L 123.373876 140.21492 
" clip-path="url(#p66e0b2a728)" style="fill: none; stroke-dasharray: 1.85,0.8; stroke-dashoffset: 0; stroke: #b2b2b2; stroke-width: 0.5"/>
     </g>
     <g id="line2d_28">
      <g>
       <use xlink:href="#m5a1ae6389f" x="123.373876" y="248.278842" style="stroke: #000000; stroke-width: 0.8"/>
      </g>
     </g>
    </g>
    <g id="xtick_9">
     <g id="line2d_29">
      <path d="M 213.73624 248.278842 
L 213.73624 140.21492 
" clip-path="url(#p66e0b2a728)" style="fill: none; stroke-dasharray: 1.85,0.8; stroke-dashoffset: 0; stroke: #b2b2b2; stroke-width: 0.5"/>
     </g>
     <g id="line2d_30">
      <g>
       <use xlink:href="#m5a1ae6389f" x="213.73624" y="248.278842" style="stroke: #000000; stroke-width: 0.8"/>
      </g>
     </g>
    </g>
    <g id="xtick_10">
     <g id="line2d_31">
      <path d="M 302.625305 248.278842 
L 302.625305 140.21492 
" clip-path="url(#p66e0b2a728)" style="fill: none; stroke-dasharray: 1.85,0.8; stroke-dashoffset: 0; stroke: #b2b2b2; stroke-width: 0.5"/>
     </g>
     <g id="line2d_32">
      <g>
       <use xlink:href="#m5a1ae6389f" x="302.625305" y="248.278842" style="stroke: #000000; stroke-width: 0.8"/>
      </g>
     </g>
    </g>
    <g id="xtick_11">
     <g id="line2d_33">
      <path d="M 392.987669 248.278842 
L 392.987669 140.21492 
" clip-path="url(#p66e0b2a728)" style="fill: none; stroke-dasharray: 1.85,0.8; stroke-dashoffset: 0; stroke: #b2b2b2; stroke-width: 0.5"/>
     </g>
     <g id="line2d_34">
      <g>
       <use xlink:href="#m5a1ae6389f" x="392.987669" y="248.278842" style="stroke: #000000; stroke-width: 0.8"/>
      </g>
     </g>
    </g>
    <g id="xtick_12">
     <g id="line2d_35">
      <path d="M 482.367834 248.278842 
L 482.367834 140.21492 
" clip-path="url(#p66e0b2a728)" style="fill: none; stroke-dasharray: 1.85,0.8; stroke-dashoffset: 0; stroke: #b2b2b2; stroke-width: 0.5"/>
     </g>
     <g id="line2d_36">
      <g>
       <use xlink:href="#m5a1ae6389f" x="482.367834" y="248.278842" style="stroke: #000000; stroke-width: 0.8"/>
      </g>
     </g>
    </g>
    <g id="xtick_13">
     <g id="line2d_37">
      <path d="M 572.730199 248.278842 
L 572.730199 140.21492 
" clip-path="url(#p66e0b2a728)" style="fill: none; stroke-dasharray: 1.85,0.8; stroke-dashoffset: 0; stroke: #b2b2b2; stroke-width: 0.5"/>
     </g>
     <g id="line2d_38">
      <g>
       <use xlink:href="#m5a1ae6389f" x="572.730199" y="248.278842" style="stroke: #000000; stroke-width: 0.8"/>
      </g>
     </g>
    </g>
    <g id="xtick_14">
     <g id="line2d_39">
      <path d="M 661.619264 248.278842 
L 661.619264 140.21492 
" clip-path="url(#p66e0b2a728)" style="fill: none; stroke-dasharray: 1.85,0.8; stroke-dashoffset: 0; stroke: #b2b2b2; stroke-width: 0.5"/>
     </g>
     <g id="line2d_40">
      <g>
       <use xlink:href="#m5a1ae6389f" x="661.619264" y="248.278842" style="stroke: #000000; stroke-width: 0.8"/>
      </g>
     </g>
    </g>
   </g>
   <g id="matplotlib.axis_4">
    <g id="ytick_6">
     <g id="line2d_41">
      <path d="M 48.579375 218.69725 
L 721.68077 218.69725 
" clip-path="url(#p66e0b2a728)" style="fill: none; stroke-dasharray: 1.85,0.8; stroke-dashoffset: 0; stroke: #b2b2b2; stroke-width: 0.5"/>
     </g>
     <g id="line2d_42">
      <g>
       <use xlink:href="#ma4c9eeb22d" x="48.579375" y="218.69725" style="stroke: #000000; stroke-width: 0.8"/>
      </g>
     </g>
     <g id="text_8">
      <!-- 5 -->
      <g transform="translate(38.716875 222.496469)scale(0.1 -0.1)">
       <use xlink:href="#DejaVuSans-35"/>
      </g>
     </g>
    </g>
    <g id="ytick_7">
     <g id="line2d_43">
      <path d="M 48.579375 188.343261 
L 721.68077 188.343261 
" clip-path="url(#p66e0b2a728)" style="fill: none; stroke-dasharray: 1.85,0.8; stroke-dashoffset: 0; stroke: #b2b2b2; stroke-width: 0.5"/>
     </g>
     <g id="line2d_44">
      <g>
       <use xlink:href="#ma4c9eeb22d" x="48.579375" y="188.343261" style="stroke: #000000; stroke-width: 0.8"/>
      </g>
     </g>
     <g id="text_9">
      <!-- 10 -->
      <g transform="translate(32.354375 192.14248)scale(0.1 -0.1)">
       <use xlink:href="#DejaVuSans-31"/>
       <use xlink:href="#DejaVuSans-30" x="63.623047"/>
      </g>
     </g>
    </g>
    <g id="ytick_8">
     <g id="line2d_45">
      <path d="M 48.579375 157.989272 
L 721.68077 157.989272 
" clip-path="url(#p66e0b2a728)" style="fill: none; stroke-dasharray: 1.85,0.8; stroke-dashoffset: 0; stroke: #b2b2b2; stroke-width: 0.5"/>
     </g>
     <g id="line2d_46">
      <g>
       <use xlink:href="#ma4c9eeb22d" x="48.579375" y="157.989272" style="stroke: #000000; stroke-width: 0.8"/>
      </g>
     </g>
     <g id="text_10">
      <!-- 15 -->
      <g transform="translate(32.354375 161.788491)scale(0.1 -0.1)">
       <use xlink:href="#DejaVuSans-31"/>
       <use xlink:href="#DejaVuSans-35" x="63.623047"/>
      </g>
     </g>
    </g>
    <g id="text_11">
     <!-- z_adstock -->
     <g transform="translate(25.525 223.804381)rotate(-90)scale(0.12 -0.12)">
      <defs>
       <path id="DejaVuSans-5f" d="M 3263 -1063 
L 3263 -1509 
L -63 -1509 
L -63 -1063 
L 3263 -1063 
z
" transform="scale(0.015625)"/>
       <path id="DejaVuSans-61" d="M 2194 1759 
Q 1497 1759 1228 1600 
Q 959 1441 959 1056 
Q 959 750 1161 570 
Q 1363 391 1709 391 
Q 2188 391 2477 730 
Q 2766 1069 2766 1631 
L 2766 1759 
L 2194 1759 
z
M 3341 1997 
L 3341 0 
L 2766 0 
L 2766 531 
Q 2569 213 2275 61 
Q 1981 -91 1556 -91 
Q 1019 -91 701 211 
Q 384 513 384 1019 
Q 384 1609 779 1909 
Q 1175 2209 1959 2209 
L 2766 2209 
L 2766 2266 
Q 2766 2663 2505 2880 
Q 2244 3097 1772 3097 
Q 1472 3097 1187 3025 
Q 903 2953 641 2809 
L 641 3341 
Q 956 3463 1253 3523 
Q 1550 3584 1831 3584 
Q 2591 3584 2966 3190 
Q 3341 2797 3341 1997 
z
" transform="scale(0.015625)"/>
       <path id="DejaVuSans-64" d="M 2906 2969 
L 2906 4863 
L 3481 4863 
L 3481 0 
L 2906 0 
L 2906 525 
Q 2725 213 2448 61 
Q 2172 -91 1784 -91 
Q 1150 -91 751 415 
Q 353 922 353 1747 
Q 353 2572 751 3078 
Q 1150 3584 1784 3584 
Q 2172 3584 2448 3432 
Q 2725 3281 2906 2969 
z
M 947 1747 
Q 947 1113 1208 752 
Q 1469 391 1925 391 
Q 2381 391 2643 752 
Q 2906 1113 2906 1747 
Q 2906 2381 2643 2742 
Q 2381 3103 1925 3103 
Q 1469 3103 1208 2742 
Q 947 2381 947 1747 
z
" transform="scale(0.015625)"/>
       <path id="DejaVuSans-73" d="M 2834 3397 
L 2834 2853 
Q 2591 2978 2328 3040 
Q 2066 3103 1784 3103 
Q 1356 3103 1142 2972 
Q 928 2841 928 2578 
Q 928 2378 1081 2264 
Q 1234 2150 1697 2047 
L 1894 2003 
Q 2506 1872 2764 1633 
Q 3022 1394 3022 966 
Q 3022 478 2636 193 
Q 2250 -91 1575 -91 
Q 1294 -91 989 -36 
Q 684 19 347 128 
L 347 722 
Q 666 556 975 473 
Q 1284 391 1588 391 
Q 1994 391 2212 530 
Q 2431 669 2431 922 
Q 2431 1156 2273 1281 
Q 2116 1406 1581 1522 
L 1381 1569 
Q 847 1681 609 1914 
Q 372 2147 372 2553 
Q 372 3047 722 3315 
Q 1072 3584 1716 3584 
Q 2034 3584 2315 3537 
Q 2597 3491 2834 3397 
z
" transform="scale(0.015625)"/>
       <path id="DejaVuSans-74" d="M 1172 4494 
L 1172 3500 
L 2356 3500 
L 2356 3053 
L 1172 3053 
L 1172 1153 
Q 1172 725 1289 603 
Q 1406 481 1766 481 
L 2356 481 
L 2356 0 
L 1766 0 
Q 1100 0 847 248 
Q 594 497 594 1153 
L 594 3053 
L 172 3053 
L 172 3500 
L 594 3500 
L 594 4494 
L 1172 4494 
z
" transform="scale(0.015625)"/>
       <path id="DejaVuSans-6f" d="M 1959 3097 
Q 1497 3097 1228 2736 
Q 959 2375 959 1747 
Q 959 1119 1226 758 
Q 1494 397 1959 397 
Q 2419 397 2687 759 
Q 2956 1122 2956 1747 
Q 2956 2369 2687 2733 
Q 2419 3097 1959 3097 
z
M 1959 3584 
Q 2709 3584 3137 3096 
Q 3566 2609 3566 1747 
Q 3566 888 3137 398 
Q 2709 -91 1959 -91 
Q 1206 -91 779 398 
Q 353 888 353 1747 
Q 353 2609 779 3096 
Q 1206 3584 1959 3584 
z
" transform="scale(0.015625)"/>
       <path id="DejaVuSans-63" d="M 3122 3366 
L 3122 2828 
Q 2878 2963 2633 3030 
Q 2388 3097 2138 3097 
Q 1578 3097 1268 2742 
Q 959 2388 959 1747 
Q 959 1106 1268 751 
Q 1578 397 2138 397 
Q 2388 397 2633 464 
Q 2878 531 3122 666 
L 3122 134 
Q 2881 22 2623 -34 
Q 2366 -91 2075 -91 
Q 1284 -91 818 406 
Q 353 903 353 1747 
Q 353 2603 823 3093 
Q 1294 3584 2113 3584 
Q 2378 3584 2631 3529 
Q 2884 3475 3122 3366 
z
" transform="scale(0.015625)"/>
       <path id="DejaVuSans-6b" d="M 581 4863 
L 1159 4863 
L 1159 1991 
L 2875 3500 
L 3609 3500 
L 1753 1863 
L 3688 0 
L 2938 0 
L 1159 1709 
L 1159 0 
L 581 0 
L 581 4863 
z
" transform="scale(0.015625)"/>
      </defs>
      <use xlink:href="#DejaVuSans-7a"/>
      <use xlink:href="#DejaVuSans-5f" x="52.490234"/>
      <use xlink:href="#DejaVuSans-61" x="102.490234"/>
      <use xlink:href="#DejaVuSans-64" x="163.769531"/>
      <use xlink:href="#DejaVuSans-73" x="227.246094"/>
      <use xlink:href="#DejaVuSans-74" x="279.345703"/>
      <use xlink:href="#DejaVuSans-6f" x="318.554688"/>
      <use xlink:href="#DejaVuSans-63" x="379.736328"/>
      <use xlink:href="#DejaVuSans-6b" x="434.716797"/>
     </g>
    </g>
   </g>
   <g id="line2d_47">
    <path d="M 79.174893 243.366846 
L 82.612592 188.493099 
L 86.05029 174.334297 
L 89.487989 175.349422 
L 92.925688 209.832436 
L 96.363386 227.07431 
L 99.801085 237.18124 
L 103.238783 190.532437 
L 106.676482 183.299361 
L 110.114181 173.189646 
L 113.551879 210.808031 
L 116.989578 171.048369 
L 120.427277 159.515282 
L 123.864975 201.074682 
L 127.302674 222.314253 
L 130.740373 232.90809 
L 134.178071 236.362759 
L 137.61577 210.850675 
L 141.053469 203.728664 
L 144.491167 221.982806 
L 147.928866 198.38158 
L 151.366565 221.609806 
L 154.804263 230.896721 
L 158.241962 234.428084 
L 161.67966 214.064913 
L 165.117359 183.892418 
L 168.555058 213.442054 
L 171.992756 200.029193 
L 175.430455 188.577053 
L 178.868154 218.116946 
L 182.305852 196.707675 
L 185.743551 220.292492 
L 189.18125 233.693646 
L 192.618948 183.768037 
L 196.056647 157.789152 
L 199.494346 154.345385 
L 202.932044 197.08195 
L 206.369743 221.595863 
L 209.807442 193.785887 
L 213.24514 194.705417 
L 216.682839 220.034935 
L 220.120537 204.48207 
L 223.558236 226.253745 
L 226.995935 182.450121 
L 230.433633 211.823418 
L 233.871332 190.231004 
L 237.309031 214.924596 
L 240.746729 200.427621 
L 244.184428 191.550883 
L 247.622127 217.495888 
L 251.059825 174.422182 
L 254.497524 164.686488 
L 257.935223 149.834235 
L 261.372921 145.126917 
L 264.81062 160.791907 
L 268.248319 148.969929 
L 271.686017 197.668493 
L 275.123716 220.395254 
L 278.561414 234.037987 
L 281.999113 236.614785 
L 285.436812 236.942162 
L 288.87451 238.879122 
L 292.312209 193.668573 
L 295.749908 215.956951 
L 299.187606 228.254278 
L 302.625305 205.720039 
L 306.063004 225.255694 
L 309.500702 188.467373 
L 312.938401 217.628179 
L 316.3761 173.428525 
L 319.813798 164.358631 
L 323.251497 203.690234 
L 326.689196 226.288367 
L 330.126894 188.165794 
L 333.564593 175.708919 
L 337.002291 168.12485 
L 340.43999 161.766822 
L 343.877689 204.293299 
L 347.315387 221.232359 
L 350.753086 233.395144 
L 354.190785 188.826204 
L 357.628483 181.11418 
L 361.066182 210.072117 
L 364.503881 228.59779 
L 367.941579 234.104758 
L 371.379278 236.654779 
L 374.816977 198.57057 
L 378.254675 185.116884 
L 381.692374 163.234601 
L 385.130072 177.475981 
L 388.567771 211.449857 
L 392.00547 186.951329 
L 395.443168 171.828354 
L 398.880867 176.375031 
L 402.318566 165.910502 
L 405.756264 177.503774 
L 409.193963 181.544606 
L 412.631662 189.343976 
L 416.06936 218.822635 
L 419.507059 232.308919 
L 422.944758 240.216228 
L 426.382456 206.005543 
L 429.820155 222.757855 
L 433.257854 205.04082 
L 436.695552 171.96078 
L 440.133251 206.730821 
L 443.570949 202.988939 
L 447.008648 180.159426 
L 450.446347 211.140612 
L 453.884045 228.933938 
L 457.321744 234.595127 
L 460.759443 239.376728 
L 464.197141 187.774035 
L 467.63484 169.362715 
L 471.072539 170.755481 
L 474.510237 157.006287 
L 477.947936 154.252908 
L 481.385635 198.821424 
L 484.823333 169.756962 
L 488.261032 176.672922 
L 491.698731 163.844869 
L 495.136429 152.048448 
L 498.574128 195.72458 
L 502.011826 220.718249 
L 505.449525 231.439153 
L 508.887224 214.328323 
L 512.324922 182.039146 
L 515.762621 163.304896 
L 519.20032 206.084466 
L 522.638018 196.562108 
L 526.075717 197.479724 
L 529.513416 219.902546 
L 532.951114 232.669664 
L 536.388813 235.749749 
L 539.826512 185.159531 
L 543.26421 212.200543 
L 546.701909 199.132006 
L 550.139608 181.419093 
L 553.577306 209.728486 
L 557.015005 170.407694 
L 560.452703 151.301263 
L 563.890402 196.362522 
L 567.328101 192.526116 
L 570.765799 216.223072 
L 574.203498 228.314577 
L 577.641197 238.124326 
L 581.078895 206.596339 
L 584.516594 197.30836 
L 587.954293 222.406196 
L 591.391991 231.510121 
L 594.82969 185.143042 
L 598.267389 213.475714 
L 601.705087 229.078672 
L 605.142786 209.352201 
L 608.580485 169.372244 
L 612.018183 205.539185 
L 615.455882 186.492277 
L 618.89358 171.535508 
L 622.331279 206.695784 
L 625.768978 183.67242 
L 629.206676 210.780178 
L 632.644375 191.530732 
L 636.082074 181.84414 
L 639.519772 182.922779 
L 642.957471 214.617219 
L 646.39517 181.131958 
L 649.832868 210.23773 
L 653.270567 226.814591 
L 656.708266 237.324033 
L 660.145964 207.327008 
L 663.583663 187.056442 
L 667.021362 217.81288 
L 670.45906 202.345288 
L 673.896759 222.27011 
L 677.334457 196.502929 
L 680.772156 220.138666 
L 684.209855 192.649854 
L 687.647553 214.993447 
L 691.085252 175.156548 
L 691.085252 175.156548 
" clip-path="url(#p66e0b2a728)" style="fill: none; stroke: #a60628; stroke-width: 2; stroke-linecap: square"/>
   </g>
   <g id="patch_9">
    <path d="M 48.579375 248.278842 
L 48.579375 140.21492 
" style="fill: none; stroke: #bcbcbc; stroke-width: 0.8; stroke-linejoin: miter; stroke-linecap: square"/>
   </g>
   <g id="patch_10">
    <path d="M 721.68077 248.278842 
L 721.68077 140.21492 
" style="fill: none; stroke: #bcbcbc; stroke-width: 0.8; stroke-linejoin: miter; stroke-linecap: square"/>
   </g>
   <g id="patch_11">
    <path d="M 48.579375 248.278842 
L 721.68077 248.278842 
" style="fill: none; stroke: #bcbcbc; stroke-width: 0.8; stroke-linejoin: miter; stroke-linecap: square"/>
   </g>
   <g id="patch_12">
    <path d="M 48.579375 140.21492 
L 721.68077 140.21492 
" style="fill: none; stroke: #bcbcbc; stroke-width: 0.8; stroke-linejoin: miter; stroke-linecap: square"/>
   </g>
   <g id="legend_2">
    <g id="patch_13">
     <path d="M 728.68077 203.225006 
L 809.94327 203.225006 
Q 811.94327 203.225006 811.94327 201.225006 
L 811.94327 187.268756 
Q 811.94327 185.268756 809.94327 185.268756 
L 728.68077 185.268756 
Q 726.68077 185.268756 726.68077 187.268756 
L 726.68077 201.225006 
Q 726.68077 203.225006 728.68077 203.225006 
z
" style="fill: #eeeeee; opacity: 0.8; stroke: #cccccc; stroke-width: 0.5; stroke-linejoin: miter"/>
    </g>
    <g id="line2d_48">
     <path d="M 730.68077 193.367194 
L 740.68077 193.367194 
L 750.68077 193.367194 
" style="fill: none; stroke: #a60628; stroke-width: 2; stroke-linecap: square"/>
    </g>
    <g id="text_12">
     <!-- z_adstock -->
     <g transform="translate(758.68077 196.867194)scale(0.1 -0.1)">
      <use xlink:href="#DejaVuSans-7a"/>
      <use xlink:href="#DejaVuSans-5f" x="52.490234"/>
      <use xlink:href="#DejaVuSans-61" x="102.490234"/>
      <use xlink:href="#DejaVuSans-64" x="163.769531"/>
      <use xlink:href="#DejaVuSans-73" x="227.246094"/>
      <use xlink:href="#DejaVuSans-74" x="279.345703"/>
      <use xlink:href="#DejaVuSans-6f" x="318.554688"/>
      <use xlink:href="#DejaVuSans-63" x="379.736328"/>
      <use xlink:href="#DejaVuSans-6b" x="434.716797"/>
     </g>
    </g>
   </g>
  </g>
  <g id="axes_3">
   <g id="patch_14">
    <path d="M 48.579375 362.343243 
L 721.68077 362.343243 
L 721.68077 254.279322 
L 48.579375 254.279322 
z
" style="fill: #eeeeee"/>
   </g>
   <g id="matplotlib.axis_5">
    <g id="xtick_15">
     <g id="line2d_49">
      <path d="M 123.373876 362.343243 
L 123.373876 254.279322 
" clip-path="url(#pf2c2160274)" style="fill: none; stroke-dasharray: 1.85,0.8; stroke-dashoffset: 0; stroke: #b2b2b2; stroke-width: 0.5"/>
     </g>
     <g id="line2d_50">
      <g>
       <use xlink:href="#m5a1ae6389f" x="123.373876" y="362.343243" style="stroke: #000000; stroke-width: 0.8"/>
      </g>
     </g>
    </g>
    <g id="xtick_16">
     <g id="line2d_51">
      <path d="M 213.73624 362.343243 
L 213.73624 254.279322 
" clip-path="url(#pf2c2160274)" style="fill: none; stroke-dasharray: 1.85,0.8; stroke-dashoffset: 0; stroke: #b2b2b2; stroke-width: 0.5"/>
     </g>
     <g id="line2d_52">
      <g>
       <use xlink:href="#m5a1ae6389f" x="213.73624" y="362.343243" style="stroke: #000000; stroke-width: 0.8"/>
      </g>
     </g>
    </g>
    <g id="xtick_17">
     <g id="line2d_53">
      <path d="M 302.625305 362.343243 
L 302.625305 254.279322 
" clip-path="url(#pf2c2160274)" style="fill: none; stroke-dasharray: 1.85,0.8; stroke-dashoffset: 0; stroke: #b2b2b2; stroke-width: 0.5"/>
     </g>
     <g id="line2d_54">
      <g>
       <use xlink:href="#m5a1ae6389f" x="302.625305" y="362.343243" style="stroke: #000000; stroke-width: 0.8"/>
      </g>
     </g>
    </g>
    <g id="xtick_18">
     <g id="line2d_55">
      <path d="M 392.987669 362.343243 
L 392.987669 254.279322 
" clip-path="url(#pf2c2160274)" style="fill: none; stroke-dasharray: 1.85,0.8; stroke-dashoffset: 0; stroke: #b2b2b2; stroke-width: 0.5"/>
     </g>
     <g id="line2d_56">
      <g>
       <use xlink:href="#m5a1ae6389f" x="392.987669" y="362.343243" style="stroke: #000000; stroke-width: 0.8"/>
      </g>
     </g>
    </g>
    <g id="xtick_19">
     <g id="line2d_57">
      <path d="M 482.367834 362.343243 
L 482.367834 254.279322 
" clip-path="url(#pf2c2160274)" style="fill: none; stroke-dasharray: 1.85,0.8; stroke-dashoffset: 0; stroke: #b2b2b2; stroke-width: 0.5"/>
     </g>
     <g id="line2d_58">
      <g>
       <use xlink:href="#m5a1ae6389f" x="482.367834" y="362.343243" style="stroke: #000000; stroke-width: 0.8"/>
      </g>
     </g>
    </g>
    <g id="xtick_20">
     <g id="line2d_59">
      <path d="M 572.730199 362.343243 
L 572.730199 254.279322 
" clip-path="url(#pf2c2160274)" style="fill: none; stroke-dasharray: 1.85,0.8; stroke-dashoffset: 0; stroke: #b2b2b2; stroke-width: 0.5"/>
     </g>
     <g id="line2d_60">
      <g>
       <use xlink:href="#m5a1ae6389f" x="572.730199" y="362.343243" style="stroke: #000000; stroke-width: 0.8"/>
      </g>
     </g>
    </g>
    <g id="xtick_21">
     <g id="line2d_61">
      <path d="M 661.619264 362.343243 
L 661.619264 254.279322 
" clip-path="url(#pf2c2160274)" style="fill: none; stroke-dasharray: 1.85,0.8; stroke-dashoffset: 0; stroke: #b2b2b2; stroke-width: 0.5"/>
     </g>
     <g id="line2d_62">
      <g>
       <use xlink:href="#m5a1ae6389f" x="661.619264" y="362.343243" style="stroke: #000000; stroke-width: 0.8"/>
      </g>
     </g>
    </g>
   </g>
   <g id="matplotlib.axis_6">
    <g id="ytick_9">
     <g id="line2d_63">
      <path d="M 48.579375 341.225877 
L 721.68077 341.225877 
" clip-path="url(#pf2c2160274)" style="fill: none; stroke-dasharray: 1.85,0.8; stroke-dashoffset: 0; stroke: #b2b2b2; stroke-width: 0.5"/>
     </g>
     <g id="line2d_64">
      <g>
       <use xlink:href="#ma4c9eeb22d" x="48.579375" y="341.225877" style="stroke: #000000; stroke-width: 0.8"/>
      </g>
     </g>
     <g id="text_13">
      <!-- 0.2 -->
      <g transform="translate(29.17625 345.025096)scale(0.1 -0.1)">
       <use xlink:href="#DejaVuSans-30"/>
       <use xlink:href="#DejaVuSans-2e" x="63.623047"/>
       <use xlink:href="#DejaVuSans-32" x="95.410156"/>
      </g>
     </g>
    </g>
    <g id="ytick_10">
     <g id="line2d_65">
      <path d="M 48.579375 316.273223 
L 721.68077 316.273223 
" clip-path="url(#pf2c2160274)" style="fill: none; stroke-dasharray: 1.85,0.8; stroke-dashoffset: 0; stroke: #b2b2b2; stroke-width: 0.5"/>
     </g>
     <g id="line2d_66">
      <g>
       <use xlink:href="#ma4c9eeb22d" x="48.579375" y="316.273223" style="stroke: #000000; stroke-width: 0.8"/>
      </g>
     </g>
     <g id="text_14">
      <!-- 0.4 -->
      <g transform="translate(29.17625 320.072442)scale(0.1 -0.1)">
       <defs>
        <path id="DejaVuSans-34" d="M 2419 4116 
L 825 1625 
L 2419 1625 
L 2419 4116 
z
M 2253 4666 
L 3047 4666 
L 3047 1625 
L 3713 1625 
L 3713 1100 
L 3047 1100 
L 3047 0 
L 2419 0 
L 2419 1100 
L 313 1100 
L 313 1709 
L 2253 4666 
z
" transform="scale(0.015625)"/>
       </defs>
       <use xlink:href="#DejaVuSans-30"/>
       <use xlink:href="#DejaVuSans-2e" x="63.623047"/>
       <use xlink:href="#DejaVuSans-34" x="95.410156"/>
      </g>
     </g>
    </g>
    <g id="ytick_11">
     <g id="line2d_67">
      <path d="M 48.579375 291.320569 
L 721.68077 291.320569 
" clip-path="url(#pf2c2160274)" style="fill: none; stroke-dasharray: 1.85,0.8; stroke-dashoffset: 0; stroke: #b2b2b2; stroke-width: 0.5"/>
     </g>
     <g id="line2d_68">
      <g>
       <use xlink:href="#ma4c9eeb22d" x="48.579375" y="291.320569" style="stroke: #000000; stroke-width: 0.8"/>
      </g>
     </g>
     <g id="text_15">
      <!-- 0.6 -->
      <g transform="translate(29.17625 295.119788)scale(0.1 -0.1)">
       <defs>
        <path id="DejaVuSans-36" d="M 2113 2584 
Q 1688 2584 1439 2293 
Q 1191 2003 1191 1497 
Q 1191 994 1439 701 
Q 1688 409 2113 409 
Q 2538 409 2786 701 
Q 3034 994 3034 1497 
Q 3034 2003 2786 2293 
Q 2538 2584 2113 2584 
z
M 3366 4563 
L 3366 3988 
Q 3128 4100 2886 4159 
Q 2644 4219 2406 4219 
Q 1781 4219 1451 3797 
Q 1122 3375 1075 2522 
Q 1259 2794 1537 2939 
Q 1816 3084 2150 3084 
Q 2853 3084 3261 2657 
Q 3669 2231 3669 1497 
Q 3669 778 3244 343 
Q 2819 -91 2113 -91 
Q 1303 -91 875 529 
Q 447 1150 447 2328 
Q 447 3434 972 4092 
Q 1497 4750 2381 4750 
Q 2619 4750 2861 4703 
Q 3103 4656 3366 4563 
z
" transform="scale(0.015625)"/>
       </defs>
       <use xlink:href="#DejaVuSans-30"/>
       <use xlink:href="#DejaVuSans-2e" x="63.623047"/>
       <use xlink:href="#DejaVuSans-36" x="95.410156"/>
      </g>
     </g>
    </g>
    <g id="ytick_12">
     <g id="line2d_69">
      <path d="M 48.579375 266.367915 
L 721.68077 266.367915 
" clip-path="url(#pf2c2160274)" style="fill: none; stroke-dasharray: 1.85,0.8; stroke-dashoffset: 0; stroke: #b2b2b2; stroke-width: 0.5"/>
     </g>
     <g id="line2d_70">
      <g>
       <use xlink:href="#ma4c9eeb22d" x="48.579375" y="266.367915" style="stroke: #000000; stroke-width: 0.8"/>
      </g>
     </g>
     <g id="text_16">
      <!-- 0.8 -->
      <g transform="translate(29.17625 270.167134)scale(0.1 -0.1)">
       <defs>
        <path id="DejaVuSans-38" d="M 2034 2216 
Q 1584 2216 1326 1975 
Q 1069 1734 1069 1313 
Q 1069 891 1326 650 
Q 1584 409 2034 409 
Q 2484 409 2743 651 
Q 3003 894 3003 1313 
Q 3003 1734 2745 1975 
Q 2488 2216 2034 2216 
z
M 1403 2484 
Q 997 2584 770 2862 
Q 544 3141 544 3541 
Q 544 4100 942 4425 
Q 1341 4750 2034 4750 
Q 2731 4750 3128 4425 
Q 3525 4100 3525 3541 
Q 3525 3141 3298 2862 
Q 3072 2584 2669 2484 
Q 3125 2378 3379 2068 
Q 3634 1759 3634 1313 
Q 3634 634 3220 271 
Q 2806 -91 2034 -91 
Q 1263 -91 848 271 
Q 434 634 434 1313 
Q 434 1759 690 2068 
Q 947 2378 1403 2484 
z
M 1172 3481 
Q 1172 3119 1398 2916 
Q 1625 2713 2034 2713 
Q 2441 2713 2670 2916 
Q 2900 3119 2900 3481 
Q 2900 3844 2670 4047 
Q 2441 4250 2034 4250 
Q 1625 4250 1398 4047 
Q 1172 3844 1172 3481 
z
" transform="scale(0.015625)"/>
       </defs>
       <use xlink:href="#DejaVuSans-30"/>
       <use xlink:href="#DejaVuSans-2e" x="63.623047"/>
       <use xlink:href="#DejaVuSans-38" x="95.410156"/>
      </g>
     </g>
    </g>
    <g id="text_17">
     <!-- z_adstock_saturated -->
     <g transform="translate(22.346875 369.822533)rotate(-90)scale(0.12 -0.12)">
      <defs>
       <path id="DejaVuSans-75" d="M 544 1381 
L 544 3500 
L 1119 3500 
L 1119 1403 
Q 1119 906 1312 657 
Q 1506 409 1894 409 
Q 2359 409 2629 706 
Q 2900 1003 2900 1516 
L 2900 3500 
L 3475 3500 
L 3475 0 
L 2900 0 
L 2900 538 
Q 2691 219 2414 64 
Q 2138 -91 1772 -91 
Q 1169 -91 856 284 
Q 544 659 544 1381 
z
M 1991 3584 
L 1991 3584 
z
" transform="scale(0.015625)"/>
       <path id="DejaVuSans-72" d="M 2631 2963 
Q 2534 3019 2420 3045 
Q 2306 3072 2169 3072 
Q 1681 3072 1420 2755 
Q 1159 2438 1159 1844 
L 1159 0 
L 581 0 
L 581 3500 
L 1159 3500 
L 1159 2956 
Q 1341 3275 1631 3429 
Q 1922 3584 2338 3584 
Q 2397 3584 2469 3576 
Q 2541 3569 2628 3553 
L 2631 2963 
z
" transform="scale(0.015625)"/>
       <path id="DejaVuSans-65" d="M 3597 1894 
L 3597 1613 
L 953 1613 
Q 991 1019 1311 708 
Q 1631 397 2203 397 
Q 2534 397 2845 478 
Q 3156 559 3463 722 
L 3463 178 
Q 3153 47 2828 -22 
Q 2503 -91 2169 -91 
Q 1331 -91 842 396 
Q 353 884 353 1716 
Q 353 2575 817 3079 
Q 1281 3584 2069 3584 
Q 2775 3584 3186 3129 
Q 3597 2675 3597 1894 
z
M 3022 2063 
Q 3016 2534 2758 2815 
Q 2500 3097 2075 3097 
Q 1594 3097 1305 2825 
Q 1016 2553 972 2059 
L 3022 2063 
z
" transform="scale(0.015625)"/>
      </defs>
      <use xlink:href="#DejaVuSans-7a"/>
      <use xlink:href="#DejaVuSans-5f" x="52.490234"/>
      <use xlink:href="#DejaVuSans-61" x="102.490234"/>
      <use xlink:href="#DejaVuSans-64" x="163.769531"/>
      <use xlink:href="#DejaVuSans-73" x="227.246094"/>
      <use xlink:href="#DejaVuSans-74" x="279.345703"/>
      <use xlink:href="#DejaVuSans-6f" x="318.554688"/>
      <use xlink:href="#DejaVuSans-63" x="379.736328"/>
      <use xlink:href="#DejaVuSans-6b" x="434.716797"/>
      <use xlink:href="#DejaVuSans-5f" x="492.626953"/>
      <use xlink:href="#DejaVuSans-73" x="542.626953"/>
      <use xlink:href="#DejaVuSans-61" x="594.726562"/>
      <use xlink:href="#DejaVuSans-74" x="656.005859"/>
      <use xlink:href="#DejaVuSans-75" x="695.214844"/>
      <use xlink:href="#DejaVuSans-72" x="758.59375"/>
      <use xlink:href="#DejaVuSans-61" x="799.707031"/>
      <use xlink:href="#DejaVuSans-74" x="860.986328"/>
      <use xlink:href="#DejaVuSans-65" x="900.195312"/>
      <use xlink:href="#DejaVuSans-64" x="961.71875"/>
     </g>
    </g>
   </g>
   <g id="line2d_71">
    <path d="M 79.174893 357.431247 
L 82.612592 287.073217 
L 86.05029 275.432408 
L 89.487989 276.176059 
L 92.925688 310.053208 
L 96.363386 333.112846 
L 99.801085 348.012697 
L 103.238783 288.983004 
L 106.676482 282.479282 
L 110.114181 274.609989 
L 113.551879 311.259115 
L 116.989578 273.116712 
L 120.427277 266.031515 
L 123.864975 299.823918 
L 127.302674 326.403558 
L 130.740373 341.620963 
L 134.178071 346.779733 
L 137.61577 311.31212 
L 141.053469 302.808523 
L 144.491167 325.945206 
L 147.928866 296.899866 
L 151.366565 325.430836 
L 154.804263 338.655958 
L 158.241962 343.881129 
L 161.67966 315.377126 
L 165.117359 282.984462 
L 168.555058 314.578771 
L 171.992756 298.676215 
L 175.430455 287.150649 
L 178.868154 320.691114 
L 182.305852 295.135829 
L 185.743551 323.626721 
L 189.18125 342.787063 
L 192.618948 282.878101 
L 196.056647 265.101269 
L 199.494346 263.338944 
L 202.932044 295.526695 
L 206.369743 325.411638 
L 209.807442 292.155095 
L 213.24514 293.079685 
L 216.682839 323.276294 
L 220.120537 303.674268 
L 223.558236 331.940094 
L 226.995935 281.764478 
L 230.433633 312.527867 
L 233.871332 288.69692 
L 237.309031 316.487267 
L 240.746729 299.11172 
L 244.184428 289.959371 
L 247.622127 319.863421 
L 251.059825 275.496257 
L 254.497524 269.015469 
L 257.935223 261.209964 
L 261.372921 259.191318 
L 264.81062 266.740309 
L 268.248319 260.82425 
L 271.686017 296.143366 
L 275.123716 323.76675 
L 278.561414 343.299563 
L 281.999113 347.158983 
L 285.436812 347.652162 
L 288.87451 350.581723 
L 292.312209 292.038026 
L 295.749908 317.832837 
L 299.187606 334.810284 
L 302.625305 305.114424 
L 306.063004 330.522468 
L 309.500702 287.04951 
L 312.938401 320.039336 
L 316.3761 274.78022 
L 319.813798 268.817242 
L 323.251497 302.764581 
L 326.689196 331.989447 
L 330.126894 286.772309 
L 333.564593 276.442665 
L 337.002291 271.170937 
L 340.43999 267.293726 
L 343.877689 303.456586 
L 347.315387 324.911907 
L 350.753086 342.343447 
L 354.190785 287.381045 
L 357.628483 280.660389 
L 361.066182 310.348271 
L 364.503881 335.306814 
L 367.941579 343.399034 
L 371.379278 347.219201 
L 374.816977 297.101609 
L 378.254675 284.043207 
L 381.692374 268.147085 
L 385.130072 277.778083 
L 388.567771 312.059483 
L 392.00547 285.669273 
L 395.443168 273.653894 
L 398.880867 276.941179 
L 402.318566 269.766656 
L 405.756264 277.79942 
L 409.193963 281.013406 
L 412.631662 287.862714 
L 416.06936 321.637229 
L 419.507059 340.734517 
L 422.944758 352.61448 
L 426.382456 305.449646 
L 429.820155 327.018882 
L 433.257854 304.321572 
L 436.695552 273.745862 
L 440.133251 306.306405 
L 443.570949 301.966427 
L 447.008648 279.886481 
L 450.446347 311.673156 
L 453.884045 335.793712 
L 457.321744 344.130469 
L 460.759443 351.337294 
L 464.197141 286.414176 
L 467.63484 271.981889 
L 471.072539 272.916981 
L 474.510237 264.68983 
L 477.947936 263.293294 
L 481.385635 297.370198 
L 484.823333 272.244133 
L 488.261032 277.166027 
L 491.698731 268.509123 
L 495.136429 262.230245 
L 498.574128 294.118933 
L 502.011826 324.207665 
L 505.449525 339.452516 
L 508.887224 315.716268 
L 512.324922 281.422183 
L 515.762621 268.188569 
L 519.20032 305.542516 
L 522.638018 294.984363 
L 526.075717 295.944352 
L 529.513416 323.096467 
L 532.951114 341.267908 
L 536.388813 345.858811 
L 539.826512 284.080464 
L 543.26421 313.002608 
L 546.701909 297.70401 
L 550.139608 280.910201 
L 553.577306 309.925482 
L 557.015005 272.681212 
L 560.452703 261.880717 
L 563.890402 294.777196 
L 567.328101 290.908486 
L 570.765799 318.181875 
L 574.203498 334.897367 
L 577.641197 349.437863 
L 581.078895 306.146984 
L 584.516594 295.764137 
L 587.954293 326.530917 
L 591.391991 339.556904 
L 594.82969 284.066056 
L 598.267389 314.621786 
L 601.705087 336.003658 
L 605.142786 309.46437 
L 608.580485 271.988205 
L 612.018183 304.902672 
L 615.455882 285.257855 
L 618.89358 273.451305 
L 622.331279 306.264846 
L 625.768978 282.796485 
L 629.206676 311.224506 
L 632.644375 289.939906 
L 636.082074 281.260588 
L 639.519772 282.161066 
L 642.957471 316.089249 
L 646.39517 280.674919 
L 649.832868 310.552609 
L 653.270567 332.740963 
L 656.708266 348.228181 
L 660.145964 307.016214 
L 663.583663 285.763904 
L 667.021362 320.285297 
L 670.45906 301.240113 
L 673.896759 326.342444 
L 677.334457 294.922875 
L 680.772156 323.417337 
L 684.209855 291.029904 
L 687.647553 316.576586 
L 691.085252 276.033724 
L 691.085252 276.033724 
" clip-path="url(#pf2c2160274)" style="fill: none; stroke: #7a68a6; stroke-width: 2; stroke-linecap: square"/>
   </g>
   <g id="patch_15">
    <path d="M 48.579375 362.343243 
L 48.579375 254.279322 
" style="fill: none; stroke: #bcbcbc; stroke-width: 0.8; stroke-linejoin: miter; stroke-linecap: square"/>
   </g>
   <g id="patch_16">
    <path d="M 721.68077 362.343243 
L 721.68077 254.279322 
" style="fill: none; stroke: #bcbcbc; stroke-width: 0.8; stroke-linejoin: miter; stroke-linecap: square"/>
   </g>
   <g id="patch_17">
    <path d="M 48.579375 362.343243 
L 721.68077 362.343243 
" style="fill: none; stroke: #bcbcbc; stroke-width: 0.8; stroke-linejoin: miter; stroke-linecap: square"/>
   </g>
   <g id="patch_18">
    <path d="M 48.579375 254.279322 
L 721.68077 254.279322 
" style="fill: none; stroke: #bcbcbc; stroke-width: 0.8; stroke-linejoin: miter; stroke-linecap: square"/>
   </g>
   <g id="legend_3">
    <g id="patch_19">
     <path d="M 728.68077 317.289408 
L 863.19952 317.289408 
Q 865.19952 317.289408 865.19952 315.289408 
L 865.19952 301.333158 
Q 865.19952 299.333158 863.19952 299.333158 
L 728.68077 299.333158 
Q 726.68077 299.333158 726.68077 301.333158 
L 726.68077 315.289408 
Q 726.68077 317.289408 728.68077 317.289408 
z
" style="fill: #eeeeee; opacity: 0.8; stroke: #cccccc; stroke-width: 0.5; stroke-linejoin: miter"/>
    </g>
    <g id="line2d_72">
     <path d="M 730.68077 307.431595 
L 740.68077 307.431595 
L 750.68077 307.431595 
" style="fill: none; stroke: #7a68a6; stroke-width: 2; stroke-linecap: square"/>
    </g>
    <g id="text_18">
     <!-- z_adstock_saturated -->
     <g transform="translate(758.68077 310.931595)scale(0.1 -0.1)">
      <use xlink:href="#DejaVuSans-7a"/>
      <use xlink:href="#DejaVuSans-5f" x="52.490234"/>
      <use xlink:href="#DejaVuSans-61" x="102.490234"/>
      <use xlink:href="#DejaVuSans-64" x="163.769531"/>
      <use xlink:href="#DejaVuSans-73" x="227.246094"/>
      <use xlink:href="#DejaVuSans-74" x="279.345703"/>
      <use xlink:href="#DejaVuSans-6f" x="318.554688"/>
      <use xlink:href="#DejaVuSans-63" x="379.736328"/>
      <use xlink:href="#DejaVuSans-6b" x="434.716797"/>
      <use xlink:href="#DejaVuSans-5f" x="492.626953"/>
      <use xlink:href="#DejaVuSans-73" x="542.626953"/>
      <use xlink:href="#DejaVuSans-61" x="594.726562"/>
      <use xlink:href="#DejaVuSans-74" x="656.005859"/>
      <use xlink:href="#DejaVuSans-75" x="695.214844"/>
      <use xlink:href="#DejaVuSans-72" x="758.59375"/>
      <use xlink:href="#DejaVuSans-61" x="799.707031"/>
      <use xlink:href="#DejaVuSans-74" x="860.986328"/>
      <use xlink:href="#DejaVuSans-65" x="900.195312"/>
      <use xlink:href="#DejaVuSans-64" x="961.71875"/>
     </g>
    </g>
   </g>
  </g>
  <g id="axes_4">
   <g id="patch_20">
    <path d="M 48.579375 476.407645 
L 721.68077 476.407645 
L 721.68077 368.343723 
L 48.579375 368.343723 
z
" style="fill: #eeeeee"/>
   </g>
   <g id="matplotlib.axis_7">
    <g id="xtick_22">
     <g id="line2d_73">
      <path d="M 123.373876 476.407645 
L 123.373876 368.343723 
" clip-path="url(#pc687d8e41c)" style="fill: none; stroke-dasharray: 1.85,0.8; stroke-dashoffset: 0; stroke: #b2b2b2; stroke-width: 0.5"/>
     </g>
     <g id="line2d_74">
      <g>
       <use xlink:href="#m5a1ae6389f" x="123.373876" y="476.407645" style="stroke: #000000; stroke-width: 0.8"/>
      </g>
     </g>
     <g id="text_19">
      <!-- 2018-07 -->
      <g transform="translate(102.482469 487.506082)scale(0.1 -0.1)">
       <defs>
        <path id="DejaVuSans-2d" d="M 313 2009 
L 1997 2009 
L 1997 1497 
L 313 1497 
L 313 2009 
z
" transform="scale(0.015625)"/>
       </defs>
       <use xlink:href="#DejaVuSans-32"/>
       <use xlink:href="#DejaVuSans-30" x="63.623047"/>
       <use xlink:href="#DejaVuSans-31" x="127.246094"/>
       <use xlink:href="#DejaVuSans-38" x="190.869141"/>
       <use xlink:href="#DejaVuSans-2d" x="254.492188"/>
       <use xlink:href="#DejaVuSans-30" x="290.576172"/>
       <use xlink:href="#DejaVuSans-37" x="354.199219"/>
      </g>
     </g>
    </g>
    <g id="xtick_23">
     <g id="line2d_75">
      <path d="M 213.73624 476.407645 
L 213.73624 368.343723 
" clip-path="url(#pc687d8e41c)" style="fill: none; stroke-dasharray: 1.85,0.8; stroke-dashoffset: 0; stroke: #b2b2b2; stroke-width: 0.5"/>
     </g>
     <g id="line2d_76">
      <g>
       <use xlink:href="#m5a1ae6389f" x="213.73624" y="476.407645" style="stroke: #000000; stroke-width: 0.8"/>
      </g>
     </g>
     <g id="text_20">
      <!-- 2019-01 -->
      <g transform="translate(192.844834 487.506082)scale(0.1 -0.1)">
       <defs>
        <path id="DejaVuSans-39" d="M 703 97 
L 703 672 
Q 941 559 1184 500 
Q 1428 441 1663 441 
Q 2288 441 2617 861 
Q 2947 1281 2994 2138 
Q 2813 1869 2534 1725 
Q 2256 1581 1919 1581 
Q 1219 1581 811 2004 
Q 403 2428 403 3163 
Q 403 3881 828 4315 
Q 1253 4750 1959 4750 
Q 2769 4750 3195 4129 
Q 3622 3509 3622 2328 
Q 3622 1225 3098 567 
Q 2575 -91 1691 -91 
Q 1453 -91 1209 -44 
Q 966 3 703 97 
z
M 1959 2075 
Q 2384 2075 2632 2365 
Q 2881 2656 2881 3163 
Q 2881 3666 2632 3958 
Q 2384 4250 1959 4250 
Q 1534 4250 1286 3958 
Q 1038 3666 1038 3163 
Q 1038 2656 1286 2365 
Q 1534 2075 1959 2075 
z
" transform="scale(0.015625)"/>
       </defs>
       <use xlink:href="#DejaVuSans-32"/>
       <use xlink:href="#DejaVuSans-30" x="63.623047"/>
       <use xlink:href="#DejaVuSans-31" x="127.246094"/>
       <use xlink:href="#DejaVuSans-39" x="190.869141"/>
       <use xlink:href="#DejaVuSans-2d" x="254.492188"/>
       <use xlink:href="#DejaVuSans-30" x="290.576172"/>
       <use xlink:href="#DejaVuSans-31" x="354.199219"/>
      </g>
     </g>
    </g>
    <g id="xtick_24">
     <g id="line2d_77">
      <path d="M 302.625305 476.407645 
L 302.625305 368.343723 
" clip-path="url(#pc687d8e41c)" style="fill: none; stroke-dasharray: 1.85,0.8; stroke-dashoffset: 0; stroke: #b2b2b2; stroke-width: 0.5"/>
     </g>
     <g id="line2d_78">
      <g>
       <use xlink:href="#m5a1ae6389f" x="302.625305" y="476.407645" style="stroke: #000000; stroke-width: 0.8"/>
      </g>
     </g>
     <g id="text_21">
      <!-- 2019-07 -->
      <g transform="translate(281.733899 487.506082)scale(0.1 -0.1)">
       <use xlink:href="#DejaVuSans-32"/>
       <use xlink:href="#DejaVuSans-30" x="63.623047"/>
       <use xlink:href="#DejaVuSans-31" x="127.246094"/>
       <use xlink:href="#DejaVuSans-39" x="190.869141"/>
       <use xlink:href="#DejaVuSans-2d" x="254.492188"/>
       <use xlink:href="#DejaVuSans-30" x="290.576172"/>
       <use xlink:href="#DejaVuSans-37" x="354.199219"/>
      </g>
     </g>
    </g>
    <g id="xtick_25">
     <g id="line2d_79">
      <path d="M 392.987669 476.407645 
L 392.987669 368.343723 
" clip-path="url(#pc687d8e41c)" style="fill: none; stroke-dasharray: 1.85,0.8; stroke-dashoffset: 0; stroke: #b2b2b2; stroke-width: 0.5"/>
     </g>
     <g id="line2d_80">
      <g>
       <use xlink:href="#m5a1ae6389f" x="392.987669" y="476.407645" style="stroke: #000000; stroke-width: 0.8"/>
      </g>
     </g>
     <g id="text_22">
      <!-- 2020-01 -->
      <g transform="translate(372.096263 487.506082)scale(0.1 -0.1)">
       <use xlink:href="#DejaVuSans-32"/>
       <use xlink:href="#DejaVuSans-30" x="63.623047"/>
       <use xlink:href="#DejaVuSans-32" x="127.246094"/>
       <use xlink:href="#DejaVuSans-30" x="190.869141"/>
       <use xlink:href="#DejaVuSans-2d" x="254.492188"/>
       <use xlink:href="#DejaVuSans-30" x="290.576172"/>
       <use xlink:href="#DejaVuSans-31" x="354.199219"/>
      </g>
     </g>
    </g>
    <g id="xtick_26">
     <g id="line2d_81">
      <path d="M 482.367834 476.407645 
L 482.367834 368.343723 
" clip-path="url(#pc687d8e41c)" style="fill: none; stroke-dasharray: 1.85,0.8; stroke-dashoffset: 0; stroke: #b2b2b2; stroke-width: 0.5"/>
     </g>
     <g id="line2d_82">
      <g>
       <use xlink:href="#m5a1ae6389f" x="482.367834" y="476.407645" style="stroke: #000000; stroke-width: 0.8"/>
      </g>
     </g>
     <g id="text_23">
      <!-- 2020-07 -->
      <g transform="translate(461.476428 487.506082)scale(0.1 -0.1)">
       <use xlink:href="#DejaVuSans-32"/>
       <use xlink:href="#DejaVuSans-30" x="63.623047"/>
       <use xlink:href="#DejaVuSans-32" x="127.246094"/>
       <use xlink:href="#DejaVuSans-30" x="190.869141"/>
       <use xlink:href="#DejaVuSans-2d" x="254.492188"/>
       <use xlink:href="#DejaVuSans-30" x="290.576172"/>
       <use xlink:href="#DejaVuSans-37" x="354.199219"/>
      </g>
     </g>
    </g>
    <g id="xtick_27">
     <g id="line2d_83">
      <path d="M 572.730199 476.407645 
L 572.730199 368.343723 
" clip-path="url(#pc687d8e41c)" style="fill: none; stroke-dasharray: 1.85,0.8; stroke-dashoffset: 0; stroke: #b2b2b2; stroke-width: 0.5"/>
     </g>
     <g id="line2d_84">
      <g>
       <use xlink:href="#m5a1ae6389f" x="572.730199" y="476.407645" style="stroke: #000000; stroke-width: 0.8"/>
      </g>
     </g>
     <g id="text_24">
      <!-- 2021-01 -->
      <g transform="translate(551.838792 487.506082)scale(0.1 -0.1)">
       <use xlink:href="#DejaVuSans-32"/>
       <use xlink:href="#DejaVuSans-30" x="63.623047"/>
       <use xlink:href="#DejaVuSans-32" x="127.246094"/>
       <use xlink:href="#DejaVuSans-31" x="190.869141"/>
       <use xlink:href="#DejaVuSans-2d" x="254.492188"/>
       <use xlink:href="#DejaVuSans-30" x="290.576172"/>
       <use xlink:href="#DejaVuSans-31" x="354.199219"/>
      </g>
     </g>
    </g>
    <g id="xtick_28">
     <g id="line2d_85">
      <path d="M 661.619264 476.407645 
L 661.619264 368.343723 
" clip-path="url(#pc687d8e41c)" style="fill: none; stroke-dasharray: 1.85,0.8; stroke-dashoffset: 0; stroke: #b2b2b2; stroke-width: 0.5"/>
     </g>
     <g id="line2d_86">
      <g>
       <use xlink:href="#m5a1ae6389f" x="661.619264" y="476.407645" style="stroke: #000000; stroke-width: 0.8"/>
      </g>
     </g>
     <g id="text_25">
      <!-- 2021-07 -->
      <g transform="translate(640.727857 487.506082)scale(0.1 -0.1)">
       <use xlink:href="#DejaVuSans-32"/>
       <use xlink:href="#DejaVuSans-30" x="63.623047"/>
       <use xlink:href="#DejaVuSans-32" x="127.246094"/>
       <use xlink:href="#DejaVuSans-31" x="190.869141"/>
       <use xlink:href="#DejaVuSans-2d" x="254.492188"/>
       <use xlink:href="#DejaVuSans-30" x="290.576172"/>
       <use xlink:href="#DejaVuSans-37" x="354.199219"/>
      </g>
     </g>
    </g>
    <g id="text_26">
     <!-- date -->
     <g transform="translate(371.600073 502.703895)scale(0.12 -0.12)">
      <use xlink:href="#DejaVuSans-64"/>
      <use xlink:href="#DejaVuSans-61" x="63.476562"/>
      <use xlink:href="#DejaVuSans-74" x="124.755859"/>
      <use xlink:href="#DejaVuSans-65" x="163.964844"/>
     </g>
    </g>
   </g>
   <g id="matplotlib.axis_8">
    <g id="ytick_13">
     <g id="line2d_87">
      <path d="M 48.579375 448.595892 
L 721.68077 448.595892 
" clip-path="url(#pc687d8e41c)" style="fill: none; stroke-dasharray: 1.85,0.8; stroke-dashoffset: 0; stroke: #b2b2b2; stroke-width: 0.5"/>
     </g>
     <g id="line2d_88">
      <g>
       <use xlink:href="#ma4c9eeb22d" x="48.579375" y="448.595892" style="stroke: #000000; stroke-width: 0.8"/>
      </g>
     </g>
     <g id="text_27">
      <!-- 0.2 -->
      <g transform="translate(29.17625 452.395111)scale(0.1 -0.1)">
       <use xlink:href="#DejaVuSans-30"/>
       <use xlink:href="#DejaVuSans-2e" x="63.623047"/>
       <use xlink:href="#DejaVuSans-32" x="95.410156"/>
      </g>
     </g>
    </g>
    <g id="ytick_14">
     <g id="line2d_89">
      <path d="M 48.579375 419.292691 
L 721.68077 419.292691 
" clip-path="url(#pc687d8e41c)" style="fill: none; stroke-dasharray: 1.85,0.8; stroke-dashoffset: 0; stroke: #b2b2b2; stroke-width: 0.5"/>
     </g>
     <g id="line2d_90">
      <g>
       <use xlink:href="#ma4c9eeb22d" x="48.579375" y="419.292691" style="stroke: #000000; stroke-width: 0.8"/>
      </g>
     </g>
     <g id="text_28">
      <!-- 0.4 -->
      <g transform="translate(29.17625 423.09191)scale(0.1 -0.1)">
       <use xlink:href="#DejaVuSans-30"/>
       <use xlink:href="#DejaVuSans-2e" x="63.623047"/>
       <use xlink:href="#DejaVuSans-34" x="95.410156"/>
      </g>
     </g>
    </g>
    <g id="ytick_15">
     <g id="line2d_91">
      <path d="M 48.579375 389.98949 
L 721.68077 389.98949 
" clip-path="url(#pc687d8e41c)" style="fill: none; stroke-dasharray: 1.85,0.8; stroke-dashoffset: 0; stroke: #b2b2b2; stroke-width: 0.5"/>
     </g>
     <g id="line2d_92">
      <g>
       <use xlink:href="#ma4c9eeb22d" x="48.579375" y="389.98949" style="stroke: #000000; stroke-width: 0.8"/>
      </g>
     </g>
     <g id="text_29">
      <!-- 0.6 -->
      <g transform="translate(29.17625 393.788708)scale(0.1 -0.1)">
       <use xlink:href="#DejaVuSans-30"/>
       <use xlink:href="#DejaVuSans-2e" x="63.623047"/>
       <use xlink:href="#DejaVuSans-36" x="95.410156"/>
      </g>
     </g>
    </g>
    <g id="text_30">
     <!-- z_effect -->
     <g transform="translate(22.346875 445.784122)rotate(-90)scale(0.12 -0.12)">
      <defs>
       <path id="DejaVuSans-66" d="M 2375 4863 
L 2375 4384 
L 1825 4384 
Q 1516 4384 1395 4259 
Q 1275 4134 1275 3809 
L 1275 3500 
L 2222 3500 
L 2222 3053 
L 1275 3053 
L 1275 0 
L 697 0 
L 697 3053 
L 147 3053 
L 147 3500 
L 697 3500 
L 697 3744 
Q 697 4328 969 4595 
Q 1241 4863 1831 4863 
L 2375 4863 
z
" transform="scale(0.015625)"/>
      </defs>
      <use xlink:href="#DejaVuSans-7a"/>
      <use xlink:href="#DejaVuSans-5f" x="52.490234"/>
      <use xlink:href="#DejaVuSans-65" x="102.490234"/>
      <use xlink:href="#DejaVuSans-66" x="164.013672"/>
      <use xlink:href="#DejaVuSans-66" x="199.21875"/>
      <use xlink:href="#DejaVuSans-65" x="234.423828"/>
      <use xlink:href="#DejaVuSans-63" x="295.947266"/>
      <use xlink:href="#DejaVuSans-74" x="350.927734"/>
     </g>
    </g>
   </g>
   <g id="line2d_93">
    <path d="M 79.174893 467.626702 
L 82.612592 385.928512 
L 86.05029 373.441402 
L 89.487989 375.319796 
L 92.925688 414.558712 
L 96.363386 440.946985 
L 99.801085 457.795207 
L 103.238783 393.29281 
L 106.676482 387.045847 
L 110.114181 379.453575 
L 113.551879 419.416255 
L 116.989578 379.735865 
L 120.427277 373.25572 
L 123.864975 409.213968 
L 127.302674 437.110332 
L 130.740373 452.948778 
L 134.178071 458.371608 
L 137.61577 423.174896 
L 141.053469 415.269681 
L 144.491167 438.496721 
L 147.928866 410.66373 
L 151.366565 438.70841 
L 154.804263 451.664768 
L 158.241962 456.834379 
L 161.67966 430.330902 
L 165.117359 400.685841 
L 168.555058 430.428516 
L 171.992756 416.340107 
L 175.430455 406.454807 
L 178.868154 437.131877 
L 182.305852 414.775758 
L 185.743551 440.41413 
L 189.18125 457.468412 
L 192.618948 405.759038 
L 196.056647 391.102244 
L 199.494346 390.330311 
L 202.932044 418.241187 
L 206.369743 443.762149 
L 209.807442 416.427354 
L 213.24514 417.695472 
L 216.682839 442.855041 
L 220.120537 427.260387 
L 223.558236 450.385861 
L 226.995935 410.61488 
L 230.433633 435.480122 
L 233.871332 417.129548 
L 237.309031 439.237007 
L 240.746729 426.132898 
L 244.184428 419.53424 
L 247.622127 442.712781 
L 251.059825 409.546922 
L 254.497524 405.234162 
L 257.935223 400.007339 
L 261.372921 399.124299 
L 264.81062 405.247278 
L 268.248319 401.515968 
L 271.686017 427.511016 
L 275.123716 447.617502 
L 278.561414 461.687594 
L 281.999113 464.524042 
L 285.436812 464.968815 
L 288.87451 467.094976 
L 292.312209 426.923928 
L 295.749908 444.905932 
L 299.187606 456.650375 
L 302.625305 436.839173 
L 306.063004 454.099572 
L 309.500702 425.468306 
L 312.938401 447.549751 
L 316.3761 418.214955 
L 319.813798 414.779925 
L 323.251497 437.083457 
L 326.689196 456.051251 
L 330.126894 427.518029 
L 333.564593 421.368584 
L 337.002291 418.471053 
L 340.43999 416.481751 
L 343.877689 439.215985 
L 347.315387 452.626308 
L 350.753086 463.403533 
L 354.190785 430.310095 
L 357.628483 426.60823 
L 361.066182 444.644586 
L 364.503881 459.636929 
L 367.941579 464.515967 
L 371.379278 466.836175 
L 374.816977 437.865536 
L 378.254675 430.619165 
L 381.692374 421.848667 
L 385.130072 427.69425 
L 388.567771 447.368881 
L 392.00547 432.783691 
L 395.443168 426.394442 
L 398.880867 428.552585 
L 402.318566 424.936219 
L 405.756264 429.667413 
L 409.193963 431.725176 
L 412.631662 435.715175 
L 416.06936 454.063108 
L 419.507059 464.370932 
L 422.944758 470.733772 
L 426.382456 446.024501 
L 429.820155 457.476955 
L 433.257854 445.845704 
L 436.695552 430.306027 
L 440.133251 447.266381 
L 443.570949 445.253096 
L 447.008648 434.303187 
L 450.446347 450.534708 
L 453.884045 462.739625 
L 457.321744 466.967384 
L 460.759443 470.586229 
L 464.197141 438.838822 
L 467.63484 432.05535 
L 471.072539 432.788899 
L 474.510237 429.109603 
L 477.947936 428.739621 
L 481.385635 445.221524 
L 484.823333 433.558977 
L 488.261032 436.135725 
L 491.698731 432.349532 
L 495.136429 429.711764 
L 498.574128 444.693907 
L 502.011826 458.673966 
L 505.449525 465.729635 
L 508.887224 455.057413 
L 512.324922 439.760357 
L 515.762621 434.064518 
L 519.20032 450.933166 
L 522.638018 446.422559 
L 526.075717 447.027643 
L 529.513416 459.072175 
L 532.951114 467.076043 
L 536.388813 469.121545 
L 539.826512 442.63872 
L 543.26421 455.191273 
L 546.701909 448.82516 
L 550.139608 441.900561 
L 553.577306 454.284896 
L 557.015005 438.872187 
L 560.452703 434.609276 
L 563.890402 448.429771 
L 567.328101 447.007031 
L 570.765799 458.310457 
L 574.203498 465.203525 
L 577.641197 471.142534 
L 581.078895 453.804296 
L 584.516594 449.792802 
L 587.954293 462.160537 
L 591.391991 467.389269 
L 594.82969 445.659444 
L 598.267389 457.766757 
L 601.705087 466.180139 
L 605.142786 455.992404 
L 608.580485 441.713103 
L 612.018183 454.484881 
L 615.455882 447.144313 
L 618.89358 442.845677 
L 622.331279 455.370919 
L 625.768978 446.713338 
L 629.206676 457.454719 
L 632.644375 449.686255 
L 636.082074 446.640073 
L 639.519772 447.134133 
L 642.957471 459.653871 
L 646.39517 446.916837 
L 649.832868 457.848066 
L 653.270567 465.908754 
L 656.708266 471.495649 
L 660.145964 456.903105 
L 663.583663 449.507938 
L 667.021362 461.779282 
L 670.45906 455.206576 
L 673.896759 464.049607 
L 677.334457 453.2524 
L 680.772156 463.183501 
L 684.209855 452.168856 
L 687.647553 461.001592 
L 691.085252 447.344838 
L 691.085252 447.344838 
" clip-path="url(#pc687d8e41c)" style="fill: none; stroke: #467821; stroke-width: 2; stroke-linecap: square"/>
   </g>
   <g id="patch_21">
    <path d="M 48.579375 476.407645 
L 48.579375 368.343723 
" style="fill: none; stroke: #bcbcbc; stroke-width: 0.8; stroke-linejoin: miter; stroke-linecap: square"/>
   </g>
   <g id="patch_22">
    <path d="M 721.68077 476.407645 
L 721.68077 368.343723 
" style="fill: none; stroke: #bcbcbc; stroke-width: 0.8; stroke-linejoin: miter; stroke-linecap: square"/>
   </g>
   <g id="patch_23">
    <path d="M 48.579375 476.407645 
L 721.68077 476.407645 
" style="fill: none; stroke: #bcbcbc; stroke-width: 0.8; stroke-linejoin: miter; stroke-linecap: square"/>
   </g>
   <g id="patch_24">
    <path d="M 48.579375 368.343723 
L 721.68077 368.343723 
" style="fill: none; stroke: #bcbcbc; stroke-width: 0.8; stroke-linejoin: miter; stroke-linecap: square"/>
   </g>
   <g id="legend_4">
    <g id="patch_25">
     <path d="M 728.68077 431.353809 
L 799.694833 431.353809 
Q 801.694833 431.353809 801.694833 429.353809 
L 801.694833 415.397559 
Q 801.694833 413.397559 799.694833 413.397559 
L 728.68077 413.397559 
Q 726.68077 413.397559 726.68077 415.397559 
L 726.68077 429.353809 
Q 726.68077 431.353809 728.68077 431.353809 
z
" style="fill: #eeeeee; opacity: 0.8; stroke: #cccccc; stroke-width: 0.5; stroke-linejoin: miter"/>
    </g>
    <g id="line2d_94">
     <path d="M 730.68077 421.495997 
L 740.68077 421.495997 
L 750.68077 421.495997 
" style="fill: none; stroke: #467821; stroke-width: 2; stroke-linecap: square"/>
    </g>
    <g id="text_31">
     <!-- z_effect -->
     <g transform="translate(758.68077 424.995997)scale(0.1 -0.1)">
      <use xlink:href="#DejaVuSans-7a"/>
      <use xlink:href="#DejaVuSans-5f" x="52.490234"/>
      <use xlink:href="#DejaVuSans-65" x="102.490234"/>
      <use xlink:href="#DejaVuSans-66" x="164.013672"/>
      <use xlink:href="#DejaVuSans-66" x="199.21875"/>
      <use xlink:href="#DejaVuSans-65" x="234.423828"/>
      <use xlink:href="#DejaVuSans-63" x="295.947266"/>
      <use xlink:href="#DejaVuSans-74" x="350.927734"/>
     </g>
    </g>
   </g>
  </g>
  <g id="text_32">
   <!-- Media Cost Feature Transformations -->
   <g transform="translate(328.315073 16.318125)scale(0.12 -0.12)">
    <defs>
     <path id="DejaVuSans-4d" d="M 628 4666 
L 1569 4666 
L 2759 1491 
L 3956 4666 
L 4897 4666 
L 4897 0 
L 4281 0 
L 4281 4097 
L 3078 897 
L 2444 897 
L 1241 4097 
L 1241 0 
L 628 0 
L 628 4666 
z
" transform="scale(0.015625)"/>
     <path id="DejaVuSans-69" d="M 603 3500 
L 1178 3500 
L 1178 0 
L 603 0 
L 603 3500 
z
M 603 4863 
L 1178 4863 
L 1178 4134 
L 603 4134 
L 603 4863 
z
" transform="scale(0.015625)"/>
     <path id="DejaVuSans-20" transform="scale(0.015625)"/>
     <path id="DejaVuSans-43" d="M 4122 4306 
L 4122 3641 
Q 3803 3938 3442 4084 
Q 3081 4231 2675 4231 
Q 1875 4231 1450 3742 
Q 1025 3253 1025 2328 
Q 1025 1406 1450 917 
Q 1875 428 2675 428 
Q 3081 428 3442 575 
Q 3803 722 4122 1019 
L 4122 359 
Q 3791 134 3420 21 
Q 3050 -91 2638 -91 
Q 1578 -91 968 557 
Q 359 1206 359 2328 
Q 359 3453 968 4101 
Q 1578 4750 2638 4750 
Q 3056 4750 3426 4639 
Q 3797 4528 4122 4306 
z
" transform="scale(0.015625)"/>
     <path id="DejaVuSans-46" d="M 628 4666 
L 3309 4666 
L 3309 4134 
L 1259 4134 
L 1259 2759 
L 3109 2759 
L 3109 2228 
L 1259 2228 
L 1259 0 
L 628 0 
L 628 4666 
z
" transform="scale(0.015625)"/>
     <path id="DejaVuSans-54" d="M -19 4666 
L 3928 4666 
L 3928 4134 
L 2272 4134 
L 2272 0 
L 1638 0 
L 1638 4134 
L -19 4134 
L -19 4666 
z
" transform="scale(0.015625)"/>
     <path id="DejaVuSans-6e" d="M 3513 2113 
L 3513 0 
L 2938 0 
L 2938 2094 
Q 2938 2591 2744 2837 
Q 2550 3084 2163 3084 
Q 1697 3084 1428 2787 
Q 1159 2491 1159 1978 
L 1159 0 
L 581 0 
L 581 3500 
L 1159 3500 
L 1159 2956 
Q 1366 3272 1645 3428 
Q 1925 3584 2291 3584 
Q 2894 3584 3203 3211 
Q 3513 2838 3513 2113 
z
" transform="scale(0.015625)"/>
     <path id="DejaVuSans-6d" d="M 3328 2828 
Q 3544 3216 3844 3400 
Q 4144 3584 4550 3584 
Q 5097 3584 5394 3201 
Q 5691 2819 5691 2113 
L 5691 0 
L 5113 0 
L 5113 2094 
Q 5113 2597 4934 2840 
Q 4756 3084 4391 3084 
Q 3944 3084 3684 2787 
Q 3425 2491 3425 1978 
L 3425 0 
L 2847 0 
L 2847 2094 
Q 2847 2600 2669 2842 
Q 2491 3084 2119 3084 
Q 1678 3084 1418 2786 
Q 1159 2488 1159 1978 
L 1159 0 
L 581 0 
L 581 3500 
L 1159 3500 
L 1159 2956 
Q 1356 3278 1631 3431 
Q 1906 3584 2284 3584 
Q 2666 3584 2933 3390 
Q 3200 3197 3328 2828 
z
" transform="scale(0.015625)"/>
    </defs>
    <use xlink:href="#DejaVuSans-4d"/>
    <use xlink:href="#DejaVuSans-65" x="86.279297"/>
    <use xlink:href="#DejaVuSans-64" x="147.802734"/>
    <use xlink:href="#DejaVuSans-69" x="211.279297"/>
    <use xlink:href="#DejaVuSans-61" x="239.0625"/>
    <use xlink:href="#DejaVuSans-20" x="300.341797"/>
    <use xlink:href="#DejaVuSans-43" x="332.128906"/>
    <use xlink:href="#DejaVuSans-6f" x="401.953125"/>
    <use xlink:href="#DejaVuSans-73" x="463.134766"/>
    <use xlink:href="#DejaVuSans-74" x="515.234375"/>
    <use xlink:href="#DejaVuSans-20" x="554.443359"/>
    <use xlink:href="#DejaVuSans-46" x="586.230469"/>
    <use xlink:href="#DejaVuSans-65" x="638.25"/>
    <use xlink:href="#DejaVuSans-61" x="699.773438"/>
    <use xlink:href="#DejaVuSans-74" x="761.052734"/>
    <use xlink:href="#DejaVuSans-75" x="800.261719"/>
    <use xlink:href="#DejaVuSans-72" x="863.640625"/>
    <use xlink:href="#DejaVuSans-65" x="902.503906"/>
    <use xlink:href="#DejaVuSans-20" x="964.027344"/>
    <use xlink:href="#DejaVuSans-54" x="995.814453"/>
    <use xlink:href="#DejaVuSans-72" x="1042.148438"/>
    <use xlink:href="#DejaVuSans-61" x="1083.261719"/>
    <use xlink:href="#DejaVuSans-6e" x="1144.541016"/>
    <use xlink:href="#DejaVuSans-73" x="1207.919922"/>
    <use xlink:href="#DejaVuSans-66" x="1260.019531"/>
    <use xlink:href="#DejaVuSans-6f" x="1295.224609"/>
    <use xlink:href="#DejaVuSans-72" x="1356.40625"/>
    <use xlink:href="#DejaVuSans-6d" x="1395.769531"/>
    <use xlink:href="#DejaVuSans-61" x="1493.181641"/>
    <use xlink:href="#DejaVuSans-74" x="1554.460938"/>
    <use xlink:href="#DejaVuSans-69" x="1593.669922"/>
    <use xlink:href="#DejaVuSans-6f" x="1621.453125"/>
    <use xlink:href="#DejaVuSans-6e" x="1682.634766"/>
    <use xlink:href="#DejaVuSans-73" x="1746.013672"/>
   </g>
  </g>
 </g>
 <defs>
  <clipPath id="p4abe2f1480">
   <rect x="48.579375" y="25.0247" width="673.101395" height="108.063922"/>
  </clipPath>
  <clipPath id="p66e0b2a728">
   <rect x="48.579375" y="140.21492" width="673.101395" height="108.063922"/>
  </clipPath>
  <clipPath id="pf2c2160274">
   <rect x="48.579375" y="254.279322" width="673.101395" height="108.063922"/>
  </clipPath>
  <clipPath id="pc687d8e41c">
   <rect x="48.579375" y="368.343723" width="673.101395" height="108.063922"/>
  </clipPath>
 </defs>
</svg>
