<?xml version="1.0" encoding="utf-8" standalone="no"?>
<!DOCTYPE svg PUBLIC "-//W3C//DTD SVG 1.1//EN"
  "http://www.w3.org/Graphics/SVG/1.1/DTD/svg11.dtd">
<svg xmlns:xlink="http://www.w3.org/1999/xlink" width="614.113125pt" height="386.293625pt" viewBox="0 0 614.113125 386.293625" xmlns="http://www.w3.org/2000/svg" version="1.1">
 <metadata>
  <rdf:RDF xmlns:dc="http://purl.org/dc/elements/1.1/" xmlns:cc="http://creativecommons.org/ns#" xmlns:rdf="http://www.w3.org/1999/02/22-rdf-syntax-ns#">
   <cc:Work>
    <dc:type rdf:resource="http://purl.org/dc/dcmitype/StillImage"/>
    <dc:date>2022-02-03T13:28:36.650386</dc:date>
    <dc:format>image/svg+xml</dc:format>
    <dc:creator>
     <cc:Agent>
      <dc:title>Matplotlib v3.5.1, https://matplotlib.org/</dc:title>
     </cc:Agent>
    </dc:creator>
   </cc:Work>
  </rdf:RDF>
 </metadata>
 <defs>
  <style type="text/css">*{stroke-linejoin: round; stroke-linecap: butt}</style>
 </defs>
 <g id="figure_1">
  <g id="patch_1">
   <path d="M 0 386.293625 
L 614.113125 386.293625 
L 614.113125 0 
L 0 0 
L 0 386.293625 
z
" style="fill: none"/>
  </g>
  <g id="axes_1">
   <g id="patch_2">
    <path d="M 48.913125 350.30175 
L 606.913125 350.30175 
L 606.913125 24.14175 
L 48.913125 24.14175 
z
" style="fill: #eeeeee"/>
   </g>
   <g id="PolyCollection_1">
    <defs>
     <path id="m6f397f49f2" d="M 74.276761 -260.725407 
L 74.276761 -216.872441 
L 77.126608 -215.105543 
L 79.976455 -213.180522 
L 82.826302 -211.242265 
L 85.676148 -209.292128 
L 88.525995 -207.331552 
L 91.375842 -205.36206 
L 94.225689 -203.385258 
L 97.075536 -201.41508 
L 99.925382 -199.728123 
L 102.775229 -198.114018 
L 105.625076 -196.420139 
L 108.474923 -194.388374 
L 111.32477 -192.361072 
L 114.174616 -190.34685 
L 117.024463 -188.445361 
L 119.87431 -186.437775 
L 122.724157 -184.255121 
L 125.574003 -182.23741 
L 128.42385 -180.316845 
L 131.273697 -178.286708 
L 134.123544 -176.242326 
L 136.973391 -174.258831 
L 139.823237 -172.291373 
L 142.673084 -170.377629 
L 145.522931 -168.389404 
L 148.372778 -166.467362 
L 151.222624 -164.57839 
L 154.072471 -162.753332 
L 156.922318 -160.970841 
L 159.772165 -159.226294 
L 162.622012 -157.521899 
L 165.471858 -155.833548 
L 168.321705 -154.132797 
L 171.171552 -152.370161 
L 174.021399 -150.370968 
L 176.871246 -148.305276 
L 179.721092 -146.290609 
L 182.570939 -144.349902 
L 185.420786 -142.46721 
L 188.270633 -140.64212 
L 191.120479 -139.068961 
L 193.970326 -137.875998 
L 196.820173 -136.777028 
L 199.67002 -135.755991 
L 202.519867 -134.812889 
L 205.369713 -133.947419 
L 208.21956 -133.158967 
L 211.069407 -132.446602 
L 213.919254 -131.809076 
L 216.7691 -131.018999 
L 219.618947 -130.147585 
L 222.468794 -129.337979 
L 225.318641 -128.58806 
L 228.168488 -127.895488 
L 231.018334 -127.242513 
L 233.868181 -126.639187 
L 236.718028 -126.085254 
L 239.567875 -125.577721 
L 242.417722 -125.113438 
L 245.267568 -124.689113 
L 248.117415 -124.243513 
L 250.967262 -123.751463 
L 253.817109 -123.30406 
L 256.666955 -122.898106 
L 259.516802 -122.329983 
L 262.366649 -121.720997 
L 265.216496 -121.103553 
L 268.066343 -120.575537 
L 270.916189 -120.179028 
L 273.766036 -119.603453 
L 276.615883 -119.032359 
L 279.46573 -118.462999 
L 282.315576 -117.892707 
L 285.165423 -117.318914 
L 288.01527 -116.739156 
L 290.865117 -116.151084 
L 293.714964 -115.701517 
L 296.56481 -115.312252 
L 299.414657 -114.722364 
L 302.264504 -114.200502 
L 305.114351 -114.149289 
L 307.964198 -113.898376 
L 310.814044 -113.214241 
L 313.663891 -112.508231 
L 316.513738 -111.780219 
L 319.363585 -111.03029 
L 322.213431 -110.258735 
L 325.063278 -109.466049 
L 327.913125 -108.652926 
L 330.762972 -107.820248 
L 333.612819 -106.969079 
L 336.462665 -106.054977 
L 339.312512 -105.005025 
L 342.162359 -103.935552 
L 345.012206 -102.847867 
L 347.862052 -101.743423 
L 350.711899 -100.623807 
L 353.561746 -99.490731 
L 356.411593 -98.346025 
L 359.26144 -97.191627 
L 362.111286 -96.032944 
L 364.961133 -94.873206 
L 367.81098 -93.710475 
L 370.660827 -92.546963 
L 373.510674 -91.384931 
L 376.36052 -90.241478 
L 379.210367 -89.200487 
L 382.060214 -88.160305 
L 384.910061 -87.122495 
L 387.759907 -86.088608 
L 390.609754 -85.060174 
L 393.459601 -84.038696 
L 396.309448 -83.025644 
L 399.159295 -82.022446 
L 402.009141 -81.030487 
L 404.858988 -80.051095 
L 407.708835 -78.888006 
L 410.558682 -77.633786 
L 413.408528 -76.514329 
L 416.258375 -75.629324 
L 419.108222 -74.780096 
L 421.958069 -73.968125 
L 424.807916 -73.194762 
L 427.657762 -72.134022 
L 430.507609 -71.097122 
L 433.357456 -70.086473 
L 436.207303 -69.099583 
L 439.05715 -68.137059 
L 441.906996 -67.199428 
L 444.756843 -66.287135 
L 447.60669 -65.40055 
L 450.456537 -64.667447 
L 453.306383 -64.04305 
L 456.15623 -63.454592 
L 459.006077 -62.865071 
L 461.855924 -62.229581 
L 464.705771 -61.50059 
L 467.555617 -60.888939 
L 470.405464 -60.448939 
L 473.255311 -59.707676 
L 476.105158 -59.045884 
L 478.955004 -58.499506 
L 481.804851 -57.981983 
L 484.654698 -57.494525 
L 487.504545 -57.253994 
L 490.354392 -57.049368 
L 493.204238 -56.880504 
L 496.054085 -56.625787 
L 498.903932 -56.148721 
L 501.753779 -55.616288 
L 504.603626 -55.110748 
L 507.453472 -54.650907 
L 510.303319 -54.407322 
L 513.153166 -54.035628 
L 516.003013 -53.721831 
L 518.852859 -53.597966 
L 521.702706 -53.505509 
L 524.552553 -53.44083 
L 527.4024 -53.383069 
L 530.252247 -53.268481 
L 533.102093 -53.166721 
L 535.95194 -53.076779 
L 538.801787 -52.99769 
L 541.651634 -52.928531 
L 544.50148 -52.868419 
L 547.351327 -52.729908 
L 550.201174 -52.459865 
L 553.051021 -52.204539 
L 555.900868 -51.963327 
L 558.750714 -51.735639 
L 561.600561 -51.520896 
L 564.450408 -51.325433 
L 567.300255 -51.144948 
L 570.150102 -50.975754 
L 572.999948 -50.81733 
L 575.849795 -50.871221 
L 578.699642 -50.946191 
L 581.549489 -51.022955 
L 581.549489 -93.529764 
L 581.549489 -93.529764 
L 578.699642 -93.105544 
L 575.849795 -92.939204 
L 572.999948 -92.392194 
L 570.150102 -91.657257 
L 567.300255 -90.933367 
L 564.450408 -90.221481 
L 561.600561 -89.522582 
L 558.750714 -88.837675 
L 555.900868 -88.167791 
L 553.051021 -87.513978 
L 550.201174 -86.877307 
L 547.351327 -86.257386 
L 544.50148 -85.757797 
L 541.651634 -85.730644 
L 538.801787 -85.704393 
L 535.95194 -85.679417 
L 533.102093 -85.655464 
L 530.252247 -85.63291 
L 527.4024 -85.604565 
L 524.552553 -85.582224 
L 521.702706 -85.567072 
L 518.852859 -85.560351 
L 516.003013 -85.563354 
L 513.153166 -85.577421 
L 510.303319 -85.523276 
L 507.453472 -85.070561 
L 504.603626 -84.639468 
L 501.753779 -84.231853 
L 498.903932 -83.849601 
L 496.054085 -84.010288 
L 493.204238 -84.24367 
L 490.354392 -84.498394 
L 487.504545 -84.773842 
L 484.654698 -85.061462 
L 481.804851 -85.373867 
L 478.955004 -85.712149 
L 476.105158 -86.077366 
L 473.255311 -86.25221 
L 470.405464 -85.936035 
L 467.555617 -86.654741 
L 464.705771 -87.118033 
L 461.855924 -87.345965 
L 459.006077 -87.574539 
L 456.15623 -87.828906 
L 453.306383 -88.115298 
L 450.456537 -88.433843 
L 447.60669 -88.784561 
L 444.756843 -89.942605 
L 441.906996 -90.331614 
L 439.05715 -90.70877 
L 436.207303 -91.116276 
L 433.357456 -92.001923 
L 430.507609 -93.219091 
L 427.657762 -93.834936 
L 424.807916 -95.271935 
L 421.958069 -96.735424 
L 419.108222 -98.223006 
L 416.258375 -99.73208 
L 413.408528 -101.248015 
L 410.558682 -102.766908 
L 407.708835 -104.29904 
L 404.858988 -105.679399 
L 402.009141 -106.838309 
L 399.159295 -108.003072 
L 396.309448 -109.165055 
L 393.459601 -110.48045 
L 390.609754 -112.189265 
L 387.759907 -113.456565 
L 384.910061 -114.634046 
L 382.060214 -115.784715 
L 379.210367 -116.998544 
L 376.36052 -118.603445 
L 373.510674 -119.589694 
L 370.660827 -120.406215 
L 367.81098 -121.326827 
L 364.961133 -122.389628 
L 362.111286 -123.424917 
L 359.26144 -124.43018 
L 356.411593 -125.403078 
L 353.561746 -126.401227 
L 350.711899 -127.410246 
L 347.862052 -128.457264 
L 345.012206 -129.537522 
L 342.162359 -130.570144 
L 339.312512 -131.565654 
L 336.462665 -132.523604 
L 333.612819 -133.443778 
L 330.762972 -134.326197 
L 327.913125 -135.171117 
L 325.063278 -135.979027 
L 322.213431 -136.750651 
L 319.363585 -137.545117 
L 316.513738 -138.573788 
L 313.663891 -139.551658 
L 310.814044 -139.690131 
L 307.964198 -140.199289 
L 305.114351 -140.829064 
L 302.264504 -141.552321 
L 299.414657 -142.329801 
L 296.56481 -143.041522 
L 293.714964 -143.709777 
L 290.865117 -144.188675 
L 288.01527 -144.20817 
L 285.165423 -144.559105 
L 282.315576 -145.055723 
L 279.46573 -145.548287 
L 276.615883 -146.039712 
L 273.766036 -146.532929 
L 270.916189 -147.030859 
L 268.066343 -147.536402 
L 265.216496 -148.049592 
L 262.366649 -148.508143 
L 259.516802 -148.424029 
L 256.666955 -148.229643 
L 253.817109 -148.220709 
L 250.967262 -148.175887 
L 248.117415 -148.826879 
L 245.267568 -149.576907 
L 242.417722 -150.33569 
L 239.567875 -151.109783 
L 236.718028 -151.728311 
L 233.868181 -152.079953 
L 231.018334 -152.425494 
L 228.168488 -152.786555 
L 225.318641 -153.313386 
L 222.468794 -154.495796 
L 219.618947 -155.786523 
L 216.7691 -157.131675 
L 213.919254 -158.507323 
L 211.069407 -159.922479 
L 208.21956 -161.392117 
L 205.369713 -162.846523 
L 202.519867 -164.090078 
L 199.67002 -165.379463 
L 196.820173 -166.715553 
L 193.970326 -168.099026 
L 191.120479 -169.53037 
L 188.270633 -171.00988 
L 185.420786 -172.705771 
L 182.570939 -174.626815 
L 179.721092 -176.585371 
L 176.871246 -178.574603 
L 174.021399 -180.691741 
L 171.171552 -182.461973 
L 168.321705 -184.056016 
L 165.471858 -185.666701 
L 162.622012 -187.29211 
L 159.772165 -189.490465 
L 156.922318 -191.819777 
L 154.072471 -194.182413 
L 151.222624 -196.575952 
L 148.372778 -198.997949 
L 145.522931 -201.445944 
L 142.673084 -203.917476 
L 139.823237 -206.410093 
L 136.973391 -208.92136 
L 134.123544 -211.448371 
L 131.273697 -213.712028 
L 128.42385 -215.968679 
L 125.574003 -218.681598 
L 122.724157 -221.549127 
L 119.87431 -223.401061 
L 117.024463 -226.238457 
L 114.174616 -229.163455 
L 111.32477 -232.082124 
L 108.474923 -234.741252 
L 105.625076 -237.196806 
L 102.775229 -239.435227 
L 99.925382 -241.637766 
L 97.075536 -243.780198 
L 94.225689 -245.454493 
L 91.375842 -247.093922 
L 88.525995 -249.723958 
L 85.676148 -252.362527 
L 82.826302 -254.48663 
L 79.976455 -256.588818 
L 77.126608 -258.668564 
L 74.276761 -260.725407 
z
" style="stroke: #348abd; stroke-opacity: 0.15; stroke-width: 0.5"/>
    </defs>
    <g clip-path="url(#p5b930cf119)">
     <use xlink:href="#m6f397f49f2" x="0" y="386.293625" style="fill: #348abd; fill-opacity: 0.15; stroke: #348abd; stroke-opacity: 0.15; stroke-width: 0.5"/>
    </g>
   </g>
   <g id="matplotlib.axis_1">
    <g id="xtick_1">
     <g id="line2d_1">
      <path d="M 110.917649 350.30175 
L 110.917649 24.14175 
" clip-path="url(#p5b930cf119)" style="fill: none; stroke-dasharray: 1.85,0.8; stroke-dashoffset: 0; stroke: #b2b2b2; stroke-width: 0.5"/>
     </g>
     <g id="line2d_2">
      <defs>
       <path id="m15048a0ea4" d="M 0 0 
L 0 -3.5 
" style="stroke: #000000; stroke-width: 0.8"/>
      </defs>
      <g>
       <use xlink:href="#m15048a0ea4" x="110.917649" y="350.30175" style="stroke: #000000; stroke-width: 0.8"/>
      </g>
     </g>
     <g id="text_1">
      <!-- 2018-07 -->
      <g transform="translate(90.026242 361.400188)scale(0.1 -0.1)">
       <defs>
        <path id="DejaVuSans-32" d="M 1228 531 
L 3431 531 
L 3431 0 
L 469 0 
L 469 531 
Q 828 903 1448 1529 
Q 2069 2156 2228 2338 
Q 2531 2678 2651 2914 
Q 2772 3150 2772 3378 
Q 2772 3750 2511 3984 
Q 2250 4219 1831 4219 
Q 1534 4219 1204 4116 
Q 875 4013 500 3803 
L 500 4441 
Q 881 4594 1212 4672 
Q 1544 4750 1819 4750 
Q 2544 4750 2975 4387 
Q 3406 4025 3406 3419 
Q 3406 3131 3298 2873 
Q 3191 2616 2906 2266 
Q 2828 2175 2409 1742 
Q 1991 1309 1228 531 
z
" transform="scale(0.015625)"/>
        <path id="DejaVuSans-30" d="M 2034 4250 
Q 1547 4250 1301 3770 
Q 1056 3291 1056 2328 
Q 1056 1369 1301 889 
Q 1547 409 2034 409 
Q 2525 409 2770 889 
Q 3016 1369 3016 2328 
Q 3016 3291 2770 3770 
Q 2525 4250 2034 4250 
z
M 2034 4750 
Q 2819 4750 3233 4129 
Q 3647 3509 3647 2328 
Q 3647 1150 3233 529 
Q 2819 -91 2034 -91 
Q 1250 -91 836 529 
Q 422 1150 422 2328 
Q 422 3509 836 4129 
Q 1250 4750 2034 4750 
z
" transform="scale(0.015625)"/>
        <path id="DejaVuSans-31" d="M 794 531 
L 1825 531 
L 1825 4091 
L 703 3866 
L 703 4441 
L 1819 4666 
L 2450 4666 
L 2450 531 
L 3481 531 
L 3481 0 
L 794 0 
L 794 531 
z
" transform="scale(0.015625)"/>
        <path id="DejaVuSans-38" d="M 2034 2216 
Q 1584 2216 1326 1975 
Q 1069 1734 1069 1313 
Q 1069 891 1326 650 
Q 1584 409 2034 409 
Q 2484 409 2743 651 
Q 3003 894 3003 1313 
Q 3003 1734 2745 1975 
Q 2488 2216 2034 2216 
z
M 1403 2484 
Q 997 2584 770 2862 
Q 544 3141 544 3541 
Q 544 4100 942 4425 
Q 1341 4750 2034 4750 
Q 2731 4750 3128 4425 
Q 3525 4100 3525 3541 
Q 3525 3141 3298 2862 
Q 3072 2584 2669 2484 
Q 3125 2378 3379 2068 
Q 3634 1759 3634 1313 
Q 3634 634 3220 271 
Q 2806 -91 2034 -91 
Q 1263 -91 848 271 
Q 434 634 434 1313 
Q 434 1759 690 2068 
Q 947 2378 1403 2484 
z
M 1172 3481 
Q 1172 3119 1398 2916 
Q 1625 2713 2034 2713 
Q 2441 2713 2670 2916 
Q 2900 3119 2900 3481 
Q 2900 3844 2670 4047 
Q 2441 4250 2034 4250 
Q 1625 4250 1398 4047 
Q 1172 3844 1172 3481 
z
" transform="scale(0.015625)"/>
        <path id="DejaVuSans-2d" d="M 313 2009 
L 1997 2009 
L 1997 1497 
L 313 1497 
L 313 2009 
z
" transform="scale(0.015625)"/>
        <path id="DejaVuSans-37" d="M 525 4666 
L 3525 4666 
L 3525 4397 
L 1831 0 
L 1172 0 
L 2766 4134 
L 525 4134 
L 525 4666 
z
" transform="scale(0.015625)"/>
       </defs>
       <use xlink:href="#DejaVuSans-32"/>
       <use xlink:href="#DejaVuSans-30" x="63.623047"/>
       <use xlink:href="#DejaVuSans-31" x="127.246094"/>
       <use xlink:href="#DejaVuSans-38" x="190.869141"/>
       <use xlink:href="#DejaVuSans-2d" x="254.492188"/>
       <use xlink:href="#DejaVuSans-30" x="290.576172"/>
       <use xlink:href="#DejaVuSans-37" x="354.199219"/>
      </g>
     </g>
    </g>
    <g id="xtick_2">
     <g id="line2d_3">
      <path d="M 185.827907 350.30175 
L 185.827907 24.14175 
" clip-path="url(#p5b930cf119)" style="fill: none; stroke-dasharray: 1.85,0.8; stroke-dashoffset: 0; stroke: #b2b2b2; stroke-width: 0.5"/>
     </g>
     <g id="line2d_4">
      <g>
       <use xlink:href="#m15048a0ea4" x="185.827907" y="350.30175" style="stroke: #000000; stroke-width: 0.8"/>
      </g>
     </g>
     <g id="text_2">
      <!-- 2019-01 -->
      <g transform="translate(164.936501 361.400188)scale(0.1 -0.1)">
       <defs>
        <path id="DejaVuSans-39" d="M 703 97 
L 703 672 
Q 941 559 1184 500 
Q 1428 441 1663 441 
Q 2288 441 2617 861 
Q 2947 1281 2994 2138 
Q 2813 1869 2534 1725 
Q 2256 1581 1919 1581 
Q 1219 1581 811 2004 
Q 403 2428 403 3163 
Q 403 3881 828 4315 
Q 1253 4750 1959 4750 
Q 2769 4750 3195 4129 
Q 3622 3509 3622 2328 
Q 3622 1225 3098 567 
Q 2575 -91 1691 -91 
Q 1453 -91 1209 -44 
Q 966 3 703 97 
z
M 1959 2075 
Q 2384 2075 2632 2365 
Q 2881 2656 2881 3163 
Q 2881 3666 2632 3958 
Q 2384 4250 1959 4250 
Q 1534 4250 1286 3958 
Q 1038 3666 1038 3163 
Q 1038 2656 1286 2365 
Q 1534 2075 1959 2075 
z
" transform="scale(0.015625)"/>
       </defs>
       <use xlink:href="#DejaVuSans-32"/>
       <use xlink:href="#DejaVuSans-30" x="63.623047"/>
       <use xlink:href="#DejaVuSans-31" x="127.246094"/>
       <use xlink:href="#DejaVuSans-39" x="190.869141"/>
       <use xlink:href="#DejaVuSans-2d" x="254.492188"/>
       <use xlink:href="#DejaVuSans-30" x="290.576172"/>
       <use xlink:href="#DejaVuSans-31" x="354.199219"/>
      </g>
     </g>
    </g>
    <g id="xtick_3">
     <g id="line2d_5">
      <path d="M 259.516802 350.30175 
L 259.516802 24.14175 
" clip-path="url(#p5b930cf119)" style="fill: none; stroke-dasharray: 1.85,0.8; stroke-dashoffset: 0; stroke: #b2b2b2; stroke-width: 0.5"/>
     </g>
     <g id="line2d_6">
      <g>
       <use xlink:href="#m15048a0ea4" x="259.516802" y="350.30175" style="stroke: #000000; stroke-width: 0.8"/>
      </g>
     </g>
     <g id="text_3">
      <!-- 2019-07 -->
      <g transform="translate(238.625396 361.400188)scale(0.1 -0.1)">
       <use xlink:href="#DejaVuSans-32"/>
       <use xlink:href="#DejaVuSans-30" x="63.623047"/>
       <use xlink:href="#DejaVuSans-31" x="127.246094"/>
       <use xlink:href="#DejaVuSans-39" x="190.869141"/>
       <use xlink:href="#DejaVuSans-2d" x="254.492188"/>
       <use xlink:href="#DejaVuSans-30" x="290.576172"/>
       <use xlink:href="#DejaVuSans-37" x="354.199219"/>
      </g>
     </g>
    </g>
    <g id="xtick_4">
     <g id="line2d_7">
      <path d="M 334.427061 350.30175 
L 334.427061 24.14175 
" clip-path="url(#p5b930cf119)" style="fill: none; stroke-dasharray: 1.85,0.8; stroke-dashoffset: 0; stroke: #b2b2b2; stroke-width: 0.5"/>
     </g>
     <g id="line2d_8">
      <g>
       <use xlink:href="#m15048a0ea4" x="334.427061" y="350.30175" style="stroke: #000000; stroke-width: 0.8"/>
      </g>
     </g>
     <g id="text_4">
      <!-- 2020-01 -->
      <g transform="translate(313.535654 361.400188)scale(0.1 -0.1)">
       <use xlink:href="#DejaVuSans-32"/>
       <use xlink:href="#DejaVuSans-30" x="63.623047"/>
       <use xlink:href="#DejaVuSans-32" x="127.246094"/>
       <use xlink:href="#DejaVuSans-30" x="190.869141"/>
       <use xlink:href="#DejaVuSans-2d" x="254.492188"/>
       <use xlink:href="#DejaVuSans-30" x="290.576172"/>
       <use xlink:href="#DejaVuSans-31" x="354.199219"/>
      </g>
     </g>
    </g>
    <g id="xtick_5">
     <g id="line2d_9">
      <path d="M 408.523077 350.30175 
L 408.523077 24.14175 
" clip-path="url(#p5b930cf119)" style="fill: none; stroke-dasharray: 1.85,0.8; stroke-dashoffset: 0; stroke: #b2b2b2; stroke-width: 0.5"/>
     </g>
     <g id="line2d_10">
      <g>
       <use xlink:href="#m15048a0ea4" x="408.523077" y="350.30175" style="stroke: #000000; stroke-width: 0.8"/>
      </g>
     </g>
     <g id="text_5">
      <!-- 2020-07 -->
      <g transform="translate(387.631671 361.400188)scale(0.1 -0.1)">
       <use xlink:href="#DejaVuSans-32"/>
       <use xlink:href="#DejaVuSans-30" x="63.623047"/>
       <use xlink:href="#DejaVuSans-32" x="127.246094"/>
       <use xlink:href="#DejaVuSans-30" x="190.869141"/>
       <use xlink:href="#DejaVuSans-2d" x="254.492188"/>
       <use xlink:href="#DejaVuSans-30" x="290.576172"/>
       <use xlink:href="#DejaVuSans-37" x="354.199219"/>
      </g>
     </g>
    </g>
    <g id="xtick_6">
     <g id="line2d_11">
      <path d="M 483.433335 350.30175 
L 483.433335 24.14175 
" clip-path="url(#p5b930cf119)" style="fill: none; stroke-dasharray: 1.85,0.8; stroke-dashoffset: 0; stroke: #b2b2b2; stroke-width: 0.5"/>
     </g>
     <g id="line2d_12">
      <g>
       <use xlink:href="#m15048a0ea4" x="483.433335" y="350.30175" style="stroke: #000000; stroke-width: 0.8"/>
      </g>
     </g>
     <g id="text_6">
      <!-- 2021-01 -->
      <g transform="translate(462.541929 361.400188)scale(0.1 -0.1)">
       <use xlink:href="#DejaVuSans-32"/>
       <use xlink:href="#DejaVuSans-30" x="63.623047"/>
       <use xlink:href="#DejaVuSans-32" x="127.246094"/>
       <use xlink:href="#DejaVuSans-31" x="190.869141"/>
       <use xlink:href="#DejaVuSans-2d" x="254.492188"/>
       <use xlink:href="#DejaVuSans-30" x="290.576172"/>
       <use xlink:href="#DejaVuSans-31" x="354.199219"/>
      </g>
     </g>
    </g>
    <g id="xtick_7">
     <g id="line2d_13">
      <path d="M 557.122231 350.30175 
L 557.122231 24.14175 
" clip-path="url(#p5b930cf119)" style="fill: none; stroke-dasharray: 1.85,0.8; stroke-dashoffset: 0; stroke: #b2b2b2; stroke-width: 0.5"/>
     </g>
     <g id="line2d_14">
      <g>
       <use xlink:href="#m15048a0ea4" x="557.122231" y="350.30175" style="stroke: #000000; stroke-width: 0.8"/>
      </g>
     </g>
     <g id="text_7">
      <!-- 2021-07 -->
      <g transform="translate(536.230824 361.400188)scale(0.1 -0.1)">
       <use xlink:href="#DejaVuSans-32"/>
       <use xlink:href="#DejaVuSans-30" x="63.623047"/>
       <use xlink:href="#DejaVuSans-32" x="127.246094"/>
       <use xlink:href="#DejaVuSans-31" x="190.869141"/>
       <use xlink:href="#DejaVuSans-2d" x="254.492188"/>
       <use xlink:href="#DejaVuSans-30" x="290.576172"/>
       <use xlink:href="#DejaVuSans-37" x="354.199219"/>
      </g>
     </g>
    </g>
    <g id="text_8">
     <!-- date -->
     <g transform="translate(314.383125 376.598)scale(0.12 -0.12)">
      <defs>
       <path id="DejaVuSans-64" d="M 2906 2969 
L 2906 4863 
L 3481 4863 
L 3481 0 
L 2906 0 
L 2906 525 
Q 2725 213 2448 61 
Q 2172 -91 1784 -91 
Q 1150 -91 751 415 
Q 353 922 353 1747 
Q 353 2572 751 3078 
Q 1150 3584 1784 3584 
Q 2172 3584 2448 3432 
Q 2725 3281 2906 2969 
z
M 947 1747 
Q 947 1113 1208 752 
Q 1469 391 1925 391 
Q 2381 391 2643 752 
Q 2906 1113 2906 1747 
Q 2906 2381 2643 2742 
Q 2381 3103 1925 3103 
Q 1469 3103 1208 2742 
Q 947 2381 947 1747 
z
" transform="scale(0.015625)"/>
       <path id="DejaVuSans-61" d="M 2194 1759 
Q 1497 1759 1228 1600 
Q 959 1441 959 1056 
Q 959 750 1161 570 
Q 1363 391 1709 391 
Q 2188 391 2477 730 
Q 2766 1069 2766 1631 
L 2766 1759 
L 2194 1759 
z
M 3341 1997 
L 3341 0 
L 2766 0 
L 2766 531 
Q 2569 213 2275 61 
Q 1981 -91 1556 -91 
Q 1019 -91 701 211 
Q 384 513 384 1019 
Q 384 1609 779 1909 
Q 1175 2209 1959 2209 
L 2766 2209 
L 2766 2266 
Q 2766 2663 2505 2880 
Q 2244 3097 1772 3097 
Q 1472 3097 1187 3025 
Q 903 2953 641 2809 
L 641 3341 
Q 956 3463 1253 3523 
Q 1550 3584 1831 3584 
Q 2591 3584 2966 3190 
Q 3341 2797 3341 1997 
z
" transform="scale(0.015625)"/>
       <path id="DejaVuSans-74" d="M 1172 4494 
L 1172 3500 
L 2356 3500 
L 2356 3053 
L 1172 3053 
L 1172 1153 
Q 1172 725 1289 603 
Q 1406 481 1766 481 
L 2356 481 
L 2356 0 
L 1766 0 
Q 1100 0 847 248 
Q 594 497 594 1153 
L 594 3053 
L 172 3053 
L 172 3500 
L 594 3500 
L 594 4494 
L 1172 4494 
z
" transform="scale(0.015625)"/>
       <path id="DejaVuSans-65" d="M 3597 1894 
L 3597 1613 
L 953 1613 
Q 991 1019 1311 708 
Q 1631 397 2203 397 
Q 2534 397 2845 478 
Q 3156 559 3463 722 
L 3463 178 
Q 3153 47 2828 -22 
Q 2503 -91 2169 -91 
Q 1331 -91 842 396 
Q 353 884 353 1716 
Q 353 2575 817 3079 
Q 1281 3584 2069 3584 
Q 2775 3584 3186 3129 
Q 3597 2675 3597 1894 
z
M 3022 2063 
Q 3016 2534 2758 2815 
Q 2500 3097 2075 3097 
Q 1594 3097 1305 2825 
Q 1016 2553 972 2059 
L 3022 2063 
z
" transform="scale(0.015625)"/>
      </defs>
      <use xlink:href="#DejaVuSans-64"/>
      <use xlink:href="#DejaVuSans-61" x="63.476562"/>
      <use xlink:href="#DejaVuSans-74" x="124.755859"/>
      <use xlink:href="#DejaVuSans-65" x="163.964844"/>
     </g>
    </g>
   </g>
   <g id="matplotlib.axis_2">
    <g id="ytick_1">
     <g id="line2d_15">
      <path d="M 48.913125 340.082265 
L 606.913125 340.082265 
" clip-path="url(#p5b930cf119)" style="fill: none; stroke-dasharray: 1.85,0.8; stroke-dashoffset: 0; stroke: #b2b2b2; stroke-width: 0.5"/>
     </g>
     <g id="line2d_16">
      <defs>
       <path id="mf23bc362ec" d="M 0 0 
L 3.5 0 
" style="stroke: #000000; stroke-width: 0.8"/>
      </defs>
      <g>
       <use xlink:href="#mf23bc362ec" x="48.913125" y="340.082265" style="stroke: #000000; stroke-width: 0.8"/>
      </g>
     </g>
     <g id="text_9">
      <!-- 0.01 -->
      <g transform="translate(23.1475 343.881484)scale(0.1 -0.1)">
       <defs>
        <path id="DejaVuSans-2e" d="M 684 794 
L 1344 794 
L 1344 0 
L 684 0 
L 684 794 
z
" transform="scale(0.015625)"/>
       </defs>
       <use xlink:href="#DejaVuSans-30"/>
       <use xlink:href="#DejaVuSans-2e" x="63.623047"/>
       <use xlink:href="#DejaVuSans-30" x="95.410156"/>
       <use xlink:href="#DejaVuSans-31" x="159.033203"/>
      </g>
     </g>
    </g>
    <g id="ytick_2">
     <g id="line2d_17">
      <path d="M 48.913125 293.669007 
L 606.913125 293.669007 
" clip-path="url(#p5b930cf119)" style="fill: none; stroke-dasharray: 1.85,0.8; stroke-dashoffset: 0; stroke: #b2b2b2; stroke-width: 0.5"/>
     </g>
     <g id="line2d_18">
      <g>
       <use xlink:href="#mf23bc362ec" x="48.913125" y="293.669007" style="stroke: #000000; stroke-width: 0.8"/>
      </g>
     </g>
     <g id="text_10">
      <!-- 0.02 -->
      <g transform="translate(23.1475 297.468225)scale(0.1 -0.1)">
       <use xlink:href="#DejaVuSans-30"/>
       <use xlink:href="#DejaVuSans-2e" x="63.623047"/>
       <use xlink:href="#DejaVuSans-30" x="95.410156"/>
       <use xlink:href="#DejaVuSans-32" x="159.033203"/>
      </g>
     </g>
    </g>
    <g id="ytick_3">
     <g id="line2d_19">
      <path d="M 48.913125 247.255749 
L 606.913125 247.255749 
" clip-path="url(#p5b930cf119)" style="fill: none; stroke-dasharray: 1.85,0.8; stroke-dashoffset: 0; stroke: #b2b2b2; stroke-width: 0.5"/>
     </g>
     <g id="line2d_20">
      <g>
       <use xlink:href="#mf23bc362ec" x="48.913125" y="247.255749" style="stroke: #000000; stroke-width: 0.8"/>
      </g>
     </g>
     <g id="text_11">
      <!-- 0.03 -->
      <g transform="translate(23.1475 251.054967)scale(0.1 -0.1)">
       <defs>
        <path id="DejaVuSans-33" d="M 2597 2516 
Q 3050 2419 3304 2112 
Q 3559 1806 3559 1356 
Q 3559 666 3084 287 
Q 2609 -91 1734 -91 
Q 1441 -91 1130 -33 
Q 819 25 488 141 
L 488 750 
Q 750 597 1062 519 
Q 1375 441 1716 441 
Q 2309 441 2620 675 
Q 2931 909 2931 1356 
Q 2931 1769 2642 2001 
Q 2353 2234 1838 2234 
L 1294 2234 
L 1294 2753 
L 1863 2753 
Q 2328 2753 2575 2939 
Q 2822 3125 2822 3475 
Q 2822 3834 2567 4026 
Q 2313 4219 1838 4219 
Q 1578 4219 1281 4162 
Q 984 4106 628 3988 
L 628 4550 
Q 988 4650 1302 4700 
Q 1616 4750 1894 4750 
Q 2613 4750 3031 4423 
Q 3450 4097 3450 3541 
Q 3450 3153 3228 2886 
Q 3006 2619 2597 2516 
z
" transform="scale(0.015625)"/>
       </defs>
       <use xlink:href="#DejaVuSans-30"/>
       <use xlink:href="#DejaVuSans-2e" x="63.623047"/>
       <use xlink:href="#DejaVuSans-30" x="95.410156"/>
       <use xlink:href="#DejaVuSans-33" x="159.033203"/>
      </g>
     </g>
    </g>
    <g id="ytick_4">
     <g id="line2d_21">
      <path d="M 48.913125 200.84249 
L 606.913125 200.84249 
" clip-path="url(#p5b930cf119)" style="fill: none; stroke-dasharray: 1.85,0.8; stroke-dashoffset: 0; stroke: #b2b2b2; stroke-width: 0.5"/>
     </g>
     <g id="line2d_22">
      <g>
       <use xlink:href="#mf23bc362ec" x="48.913125" y="200.84249" style="stroke: #000000; stroke-width: 0.8"/>
      </g>
     </g>
     <g id="text_12">
      <!-- 0.04 -->
      <g transform="translate(23.1475 204.641709)scale(0.1 -0.1)">
       <defs>
        <path id="DejaVuSans-34" d="M 2419 4116 
L 825 1625 
L 2419 1625 
L 2419 4116 
z
M 2253 4666 
L 3047 4666 
L 3047 1625 
L 3713 1625 
L 3713 1100 
L 3047 1100 
L 3047 0 
L 2419 0 
L 2419 1100 
L 313 1100 
L 313 1709 
L 2253 4666 
z
" transform="scale(0.015625)"/>
       </defs>
       <use xlink:href="#DejaVuSans-30"/>
       <use xlink:href="#DejaVuSans-2e" x="63.623047"/>
       <use xlink:href="#DejaVuSans-30" x="95.410156"/>
       <use xlink:href="#DejaVuSans-34" x="159.033203"/>
      </g>
     </g>
    </g>
    <g id="ytick_5">
     <g id="line2d_23">
      <path d="M 48.913125 154.429232 
L 606.913125 154.429232 
" clip-path="url(#p5b930cf119)" style="fill: none; stroke-dasharray: 1.85,0.8; stroke-dashoffset: 0; stroke: #b2b2b2; stroke-width: 0.5"/>
     </g>
     <g id="line2d_24">
      <g>
       <use xlink:href="#mf23bc362ec" x="48.913125" y="154.429232" style="stroke: #000000; stroke-width: 0.8"/>
      </g>
     </g>
     <g id="text_13">
      <!-- 0.05 -->
      <g transform="translate(23.1475 158.228451)scale(0.1 -0.1)">
       <defs>
        <path id="DejaVuSans-35" d="M 691 4666 
L 3169 4666 
L 3169 4134 
L 1269 4134 
L 1269 2991 
Q 1406 3038 1543 3061 
Q 1681 3084 1819 3084 
Q 2600 3084 3056 2656 
Q 3513 2228 3513 1497 
Q 3513 744 3044 326 
Q 2575 -91 1722 -91 
Q 1428 -91 1123 -41 
Q 819 9 494 109 
L 494 744 
Q 775 591 1075 516 
Q 1375 441 1709 441 
Q 2250 441 2565 725 
Q 2881 1009 2881 1497 
Q 2881 1984 2565 2268 
Q 2250 2553 1709 2553 
Q 1456 2553 1204 2497 
Q 953 2441 691 2322 
L 691 4666 
z
" transform="scale(0.015625)"/>
       </defs>
       <use xlink:href="#DejaVuSans-30"/>
       <use xlink:href="#DejaVuSans-2e" x="63.623047"/>
       <use xlink:href="#DejaVuSans-30" x="95.410156"/>
       <use xlink:href="#DejaVuSans-35" x="159.033203"/>
      </g>
     </g>
    </g>
    <g id="ytick_6">
     <g id="line2d_25">
      <path d="M 48.913125 108.015974 
L 606.913125 108.015974 
" clip-path="url(#p5b930cf119)" style="fill: none; stroke-dasharray: 1.85,0.8; stroke-dashoffset: 0; stroke: #b2b2b2; stroke-width: 0.5"/>
     </g>
     <g id="line2d_26">
      <g>
       <use xlink:href="#mf23bc362ec" x="48.913125" y="108.015974" style="stroke: #000000; stroke-width: 0.8"/>
      </g>
     </g>
     <g id="text_14">
      <!-- 0.06 -->
      <g transform="translate(23.1475 111.815193)scale(0.1 -0.1)">
       <defs>
        <path id="DejaVuSans-36" d="M 2113 2584 
Q 1688 2584 1439 2293 
Q 1191 2003 1191 1497 
Q 1191 994 1439 701 
Q 1688 409 2113 409 
Q 2538 409 2786 701 
Q 3034 994 3034 1497 
Q 3034 2003 2786 2293 
Q 2538 2584 2113 2584 
z
M 3366 4563 
L 3366 3988 
Q 3128 4100 2886 4159 
Q 2644 4219 2406 4219 
Q 1781 4219 1451 3797 
Q 1122 3375 1075 2522 
Q 1259 2794 1537 2939 
Q 1816 3084 2150 3084 
Q 2853 3084 3261 2657 
Q 3669 2231 3669 1497 
Q 3669 778 3244 343 
Q 2819 -91 2113 -91 
Q 1303 -91 875 529 
Q 447 1150 447 2328 
Q 447 3434 972 4092 
Q 1497 4750 2381 4750 
Q 2619 4750 2861 4703 
Q 3103 4656 3366 4563 
z
" transform="scale(0.015625)"/>
       </defs>
       <use xlink:href="#DejaVuSans-30"/>
       <use xlink:href="#DejaVuSans-2e" x="63.623047"/>
       <use xlink:href="#DejaVuSans-30" x="95.410156"/>
       <use xlink:href="#DejaVuSans-36" x="159.033203"/>
      </g>
     </g>
    </g>
    <g id="ytick_7">
     <g id="line2d_27">
      <path d="M 48.913125 61.602716 
L 606.913125 61.602716 
" clip-path="url(#p5b930cf119)" style="fill: none; stroke-dasharray: 1.85,0.8; stroke-dashoffset: 0; stroke: #b2b2b2; stroke-width: 0.5"/>
     </g>
     <g id="line2d_28">
      <g>
       <use xlink:href="#mf23bc362ec" x="48.913125" y="61.602716" style="stroke: #000000; stroke-width: 0.8"/>
      </g>
     </g>
     <g id="text_15">
      <!-- 0.07 -->
      <g transform="translate(23.1475 65.401935)scale(0.1 -0.1)">
       <use xlink:href="#DejaVuSans-30"/>
       <use xlink:href="#DejaVuSans-2e" x="63.623047"/>
       <use xlink:href="#DejaVuSans-30" x="95.410156"/>
       <use xlink:href="#DejaVuSans-37" x="159.033203"/>
      </g>
     </g>
    </g>
    <g id="text_16">
     <!-- effect_ratio -->
     <g transform="translate(16.318125 221.314875)rotate(-90)scale(0.12 -0.12)">
      <defs>
       <path id="DejaVuSans-66" d="M 2375 4863 
L 2375 4384 
L 1825 4384 
Q 1516 4384 1395 4259 
Q 1275 4134 1275 3809 
L 1275 3500 
L 2222 3500 
L 2222 3053 
L 1275 3053 
L 1275 0 
L 697 0 
L 697 3053 
L 147 3053 
L 147 3500 
L 697 3500 
L 697 3744 
Q 697 4328 969 4595 
Q 1241 4863 1831 4863 
L 2375 4863 
z
" transform="scale(0.015625)"/>
       <path id="DejaVuSans-63" d="M 3122 3366 
L 3122 2828 
Q 2878 2963 2633 3030 
Q 2388 3097 2138 3097 
Q 1578 3097 1268 2742 
Q 959 2388 959 1747 
Q 959 1106 1268 751 
Q 1578 397 2138 397 
Q 2388 397 2633 464 
Q 2878 531 3122 666 
L 3122 134 
Q 2881 22 2623 -34 
Q 2366 -91 2075 -91 
Q 1284 -91 818 406 
Q 353 903 353 1747 
Q 353 2603 823 3093 
Q 1294 3584 2113 3584 
Q 2378 3584 2631 3529 
Q 2884 3475 3122 3366 
z
" transform="scale(0.015625)"/>
       <path id="DejaVuSans-5f" d="M 3263 -1063 
L 3263 -1509 
L -63 -1509 
L -63 -1063 
L 3263 -1063 
z
" transform="scale(0.015625)"/>
       <path id="DejaVuSans-72" d="M 2631 2963 
Q 2534 3019 2420 3045 
Q 2306 3072 2169 3072 
Q 1681 3072 1420 2755 
Q 1159 2438 1159 1844 
L 1159 0 
L 581 0 
L 581 3500 
L 1159 3500 
L 1159 2956 
Q 1341 3275 1631 3429 
Q 1922 3584 2338 3584 
Q 2397 3584 2469 3576 
Q 2541 3569 2628 3553 
L 2631 2963 
z
" transform="scale(0.015625)"/>
       <path id="DejaVuSans-69" d="M 603 3500 
L 1178 3500 
L 1178 0 
L 603 0 
L 603 3500 
z
M 603 4863 
L 1178 4863 
L 1178 4134 
L 603 4134 
L 603 4863 
z
" transform="scale(0.015625)"/>
       <path id="DejaVuSans-6f" d="M 1959 3097 
Q 1497 3097 1228 2736 
Q 959 2375 959 1747 
Q 959 1119 1226 758 
Q 1494 397 1959 397 
Q 2419 397 2687 759 
Q 2956 1122 2956 1747 
Q 2956 2369 2687 2733 
Q 2419 3097 1959 3097 
z
M 1959 3584 
Q 2709 3584 3137 3096 
Q 3566 2609 3566 1747 
Q 3566 888 3137 398 
Q 2709 -91 1959 -91 
Q 1206 -91 779 398 
Q 353 888 353 1747 
Q 353 2609 779 3096 
Q 1206 3584 1959 3584 
z
" transform="scale(0.015625)"/>
      </defs>
      <use xlink:href="#DejaVuSans-65"/>
      <use xlink:href="#DejaVuSans-66" x="61.523438"/>
      <use xlink:href="#DejaVuSans-66" x="96.728516"/>
      <use xlink:href="#DejaVuSans-65" x="131.933594"/>
      <use xlink:href="#DejaVuSans-63" x="193.457031"/>
      <use xlink:href="#DejaVuSans-74" x="248.4375"/>
      <use xlink:href="#DejaVuSans-5f" x="287.646484"/>
      <use xlink:href="#DejaVuSans-72" x="337.646484"/>
      <use xlink:href="#DejaVuSans-61" x="378.759766"/>
      <use xlink:href="#DejaVuSans-74" x="440.039062"/>
      <use xlink:href="#DejaVuSans-69" x="479.248047"/>
      <use xlink:href="#DejaVuSans-6f" x="507.03125"/>
     </g>
    </g>
   </g>
   <g id="line2d_29">
    <path d="M 74.276761 38.967205 
L 77.126608 94.430764 
L 79.976455 117.636827 
L 82.826302 118.835028 
L 85.676148 75.904359 
L 88.525995 63.143959 
L 91.375842 60.784787 
L 94.225689 108.453817 
L 97.075536 120.768915 
L 99.925382 136.934508 
L 102.775229 92.407805 
L 105.625076 144.481235 
L 108.474923 161.736567 
L 111.32477 111.176406 
L 114.174616 93.115307 
L 117.024463 89.266972 
L 119.87431 90.531113 
L 122.724157 111.001371 
L 125.574003 120.749662 
L 128.42385 106.557423 
L 131.273697 131.312062 
L 134.123544 111.846028 
L 136.973391 108.59591 
L 139.823237 109.471621 
L 142.673084 125.026018 
L 145.522931 158.607564 
L 148.372778 130.126688 
L 154.072471 159.299763 
L 156.922318 133.056424 
L 159.772165 154.580223 
L 162.622012 135.832724 
L 165.471858 130.659051 
L 168.321705 173.986302 
L 171.171552 203.594422 
L 174.021399 208.677721 
L 176.871246 165.733694 
L 179.721092 147.38428 
L 182.570939 172.588367 
L 185.420786 173.45648 
L 188.270633 154.235229 
L 191.120479 167.995839 
L 193.970326 154.40508 
L 196.820173 192.212697 
L 199.67002 167.368835 
L 202.519867 187.811938 
L 205.369713 168.627007 
L 208.21956 181.755979 
L 211.069407 191.293814 
L 213.919254 172.056662 
L 216.7691 210.359934 
L 219.618947 220.855001 
L 222.468794 235.51945 
L 225.318641 240.723953 
L 228.168488 228.192726 
L 231.018334 239.722177 
L 233.868181 197.907883 
L 236.718028 183.275683 
L 239.567875 178.83632 
L 242.417722 179.671196 
L 245.267568 181.143218 
L 248.117415 182.236752 
L 250.967262 209.489706 
L 253.817109 194.772779 
L 256.666955 190.007712 
L 259.516802 204.26541 
L 262.366649 194.152993 
L 265.216496 220.065316 
L 268.066343 200.756325 
L 270.916189 234.717315 
L 273.766036 243.171656 
L 276.615883 213.455464 
L 279.46573 201.915686 
L 282.315576 227.363856 
L 285.165423 238.267263 
L 288.01527 245.272989 
L 290.865117 251.17706 
L 293.714964 220.28672 
L 296.56481 211.78615 
L 299.414657 208.440467 
L 302.264504 234.534483 
L 305.114351 241.305753 
L 307.964198 222.428529 
L 310.814044 214.788351 
L 313.663891 214.300196 
L 316.513738 214.872803 
L 319.363585 233.984289 
L 322.213431 244.280565 
L 325.063278 260.889583 
L 327.913125 251.603754 
L 330.762972 230.350274 
L 333.612819 246.78259 
L 336.462665 258.231996 
L 339.312512 255.918453 
L 342.162359 263.988657 
L 345.012206 256.854963 
L 347.862052 254.956981 
L 350.711899 250.625857 
L 353.561746 234.854125 
L 356.411593 231.104513 
L 359.26144 230.529029 
L 362.111286 244.09301 
L 364.961133 237.127555 
L 367.81098 246.43324 
L 370.660827 267.769531 
L 373.510674 247.295837 
L 376.36052 250.19828 
L 379.210367 264.79825 
L 382.060214 247.683373 
L 384.910061 241.579301 
L 387.759907 241.070439 
L 390.609754 241.130059 
L 393.459601 263.910032 
L 396.309448 275.861924 
L 399.159295 275.695663 
L 402.009141 284.559178 
L 404.858988 286.769322 
L 407.708835 261.385842 
L 410.558682 278.958567 
L 413.408528 275.529558 
L 416.258375 283.69037 
L 419.108222 290.962971 
L 421.958069 266.748617 
L 424.807916 256.00482 
L 427.657762 253.614425 
L 430.507609 259.988505 
L 433.357456 277.045495 
L 436.207303 288.184108 
L 439.05715 265.801609 
L 441.906996 271.171369 
L 444.756843 271.375757 
L 447.60669 262.283708 
L 450.456537 259.439057 
L 453.306383 259.591412 
L 456.15623 280.363814 
L 459.006077 267.991658 
L 461.855924 274.490207 
L 464.705771 284.134557 
L 467.555617 271.008812 
L 470.405464 291.061376 
L 473.255311 301.328425 
L 476.105158 278.93441 
L 478.955004 281.394212 
L 481.804851 271.743509 
L 484.654698 268.757687 
L 487.504545 267.582114 
L 490.354392 277.351941 
L 493.204238 282.034156 
L 496.054085 272.902617 
L 498.903932 271.272052 
L 501.753779 289.481057 
L 504.603626 277.666279 
L 507.453472 273.656915 
L 510.303319 280.374968 
L 513.153166 299.158302 
L 516.003013 283.011641 
L 518.852859 291.953291 
L 521.702706 299.530773 
L 524.552553 284.208769 
L 527.4024 294.763293 
L 530.252247 283.763445 
L 533.102093 292.170519 
L 535.95194 297.049103 
L 538.801787 297.026909 
L 541.651634 284.597868 
L 544.50148 298.770656 
L 547.351327 287.14813 
L 550.201174 282.798828 
L 553.051021 281.487653 
L 555.900868 289.723297 
L 558.750714 298.425 
L 561.600561 287.258322 
L 564.450408 293.059744 
L 567.300255 287.044895 
L 570.150102 296.29633 
L 572.999948 288.615571 
L 575.849795 298.763775 
L 578.699642 291.08226 
L 581.549489 306.978298 
L 581.549489 306.978298 
" clip-path="url(#p5b930cf119)" style="fill: none; stroke: #000000; stroke-width: 2; stroke-linecap: square"/>
   </g>
   <g id="line2d_30">
    <path d="M 74.276761 96.059427 
L 77.126608 96.294916 
L 79.976455 96.758131 
L 82.826302 97.434531 
L 85.676148 98.301957 
L 88.525995 99.335735 
L 94.225689 101.791145 
L 99.925382 104.584566 
L 108.474923 109.07674 
L 117.024463 113.835775 
L 122.724157 117.282013 
L 128.42385 121.089149 
L 134.123544 125.34966 
L 139.823237 130.085814 
L 145.522931 135.229924 
L 154.072471 143.393891 
L 162.622012 151.556189 
L 168.321705 156.753434 
L 174.021399 161.67765 
L 179.721092 166.355247 
L 188.270633 173.083775 
L 202.519867 184.002974 
L 208.21956 188.130081 
L 213.919254 191.88895 
L 216.7691 193.575729 
L 219.618947 195.112999 
L 222.468794 196.493481 
L 225.318641 197.717385 
L 228.168488 198.795069 
L 233.868181 200.590925 
L 250.967262 205.354772 
L 256.666955 207.489054 
L 262.366649 210.029786 
L 268.066343 212.876384 
L 282.315576 220.228385 
L 288.01527 222.915835 
L 296.56481 226.609839 
L 316.513738 234.953685 
L 325.063278 238.572733 
L 330.762972 240.810716 
L 336.462665 242.793917 
L 342.162359 244.484257 
L 347.862052 245.919725 
L 362.111286 249.208167 
L 367.81098 250.798258 
L 373.510674 252.706113 
L 379.210367 254.940579 
L 384.910061 257.432335 
L 396.309448 262.598836 
L 402.009141 264.922014 
L 407.708835 266.876858 
L 413.408528 268.394911 
L 419.108222 269.487932 
L 424.807916 270.242114 
L 433.357456 271.026568 
L 441.906996 271.796279 
L 450.456537 272.831824 
L 459.006077 274.154411 
L 484.654698 278.574492 
L 493.204238 280.194726 
L 501.753779 282.04829 
L 524.552553 287.298597 
L 530.252247 288.346722 
L 535.95194 289.225355 
L 544.50148 290.277226 
L 555.900868 291.390001 
L 567.300255 292.308338 
L 575.849795 292.768976 
L 581.549489 292.895815 
L 581.549489 292.895815 
" clip-path="url(#p5b930cf119)" style="fill: none; stroke: #009e73; stroke-width: 2; stroke-linecap: square"/>
   </g>
   <g id="line2d_31">
    <path d="M 48.913125 241.130059 
L 606.913125 241.130059 
" clip-path="url(#p5b930cf119)" style="fill: none; stroke-dasharray: 7.4,3.2; stroke-dashoffset: 0; stroke: #000000; stroke-width: 2"/>
   </g>
   <g id="line2d_32">
    <path d="M 48.913125 222.147762 
L 606.913125 222.147762 
" clip-path="url(#p5b930cf119)" style="fill: none; stroke-dasharray: 7.4,3.2; stroke-dashoffset: 0; stroke: #808080; stroke-width: 2"/>
   </g>
   <g id="line2d_33">
    <path d="M 48.913125 250.539206 
L 606.913125 250.539206 
" clip-path="url(#p5b930cf119)" style="fill: none; stroke-dasharray: 7.4,3.2; stroke-dashoffset: 0; stroke: #a60628; stroke-width: 2"/>
   </g>
   <g id="line2d_34">
    <path d="M 74.276761 153.010879 
L 85.676148 161.277215 
L 97.075536 169.822009 
L 114.174616 182.977671 
L 136.973391 200.555995 
L 148.372778 209.050411 
L 156.922318 215.167023 
L 165.471858 220.993975 
L 174.021399 226.470743 
L 179.721092 229.900601 
L 185.420786 233.13743 
L 191.120479 236.170209 
L 196.820173 238.990683 
L 202.519867 241.593659 
L 208.21956 243.977246 
L 213.919254 246.143008 
L 219.618947 248.096029 
L 225.318641 249.844899 
L 231.018334 251.401585 
L 236.718028 252.78123 
L 245.267568 254.558838 
L 253.817109 256.050054 
L 265.216496 257.731766 
L 296.56481 262.094668 
L 305.114351 263.575135 
L 313.663891 265.290958 
L 322.213431 267.27661 
L 330.762972 269.549821 
L 339.312512 272.111426 
L 347.862052 274.946096 
L 356.411593 278.023866 
L 367.81098 282.430961 
L 382.060214 288.246108 
L 404.858988 297.589103 
L 416.258375 301.976376 
L 424.807916 305.042112 
L 433.357456 307.871295 
L 441.906996 310.434862 
L 450.456537 312.713803 
L 459.006077 314.698926 
L 467.555617 316.390142 
L 476.105158 317.79537 
L 484.654698 318.929184 
L 493.204238 319.811319 
L 501.753779 320.465153 
L 510.303319 320.916264 
L 521.702706 321.248157 
L 533.102093 321.328524 
L 547.351327 321.162694 
L 564.450408 320.700942 
L 581.549489 320.07863 
L 581.549489 320.07863 
" clip-path="url(#p5b930cf119)" style="fill: none; stroke: #348abd; stroke-width: 2; stroke-linecap: square"/>
   </g>
   <g id="patch_3">
    <path d="M 48.913125 350.30175 
L 48.913125 24.14175 
" style="fill: none; stroke: #bcbcbc; stroke-width: 0.8; stroke-linejoin: miter; stroke-linecap: square"/>
   </g>
   <g id="patch_4">
    <path d="M 606.913125 350.30175 
L 606.913125 24.14175 
" style="fill: none; stroke: #bcbcbc; stroke-width: 0.8; stroke-linejoin: miter; stroke-linecap: square"/>
   </g>
   <g id="patch_5">
    <path d="M 48.913125 350.30175 
L 606.913125 350.30175 
" style="fill: none; stroke: #bcbcbc; stroke-width: 0.8; stroke-linejoin: miter; stroke-linecap: square"/>
   </g>
   <g id="patch_6">
    <path d="M 48.913125 24.14175 
L 606.913125 24.14175 
" style="fill: none; stroke: #bcbcbc; stroke-width: 0.8; stroke-linejoin: miter; stroke-linecap: square"/>
   </g>
   <g id="text_17">
    <!-- Media Cost Effect Ratio -->
    <g transform="translate(244.104 18.14175)scale(0.144 -0.144)">
     <defs>
      <path id="DejaVuSans-4d" d="M 628 4666 
L 1569 4666 
L 2759 1491 
L 3956 4666 
L 4897 4666 
L 4897 0 
L 4281 0 
L 4281 4097 
L 3078 897 
L 2444 897 
L 1241 4097 
L 1241 0 
L 628 0 
L 628 4666 
z
" transform="scale(0.015625)"/>
      <path id="DejaVuSans-20" transform="scale(0.015625)"/>
      <path id="DejaVuSans-43" d="M 4122 4306 
L 4122 3641 
Q 3803 3938 3442 4084 
Q 3081 4231 2675 4231 
Q 1875 4231 1450 3742 
Q 1025 3253 1025 2328 
Q 1025 1406 1450 917 
Q 1875 428 2675 428 
Q 3081 428 3442 575 
Q 3803 722 4122 1019 
L 4122 359 
Q 3791 134 3420 21 
Q 3050 -91 2638 -91 
Q 1578 -91 968 557 
Q 359 1206 359 2328 
Q 359 3453 968 4101 
Q 1578 4750 2638 4750 
Q 3056 4750 3426 4639 
Q 3797 4528 4122 4306 
z
" transform="scale(0.015625)"/>
      <path id="DejaVuSans-73" d="M 2834 3397 
L 2834 2853 
Q 2591 2978 2328 3040 
Q 2066 3103 1784 3103 
Q 1356 3103 1142 2972 
Q 928 2841 928 2578 
Q 928 2378 1081 2264 
Q 1234 2150 1697 2047 
L 1894 2003 
Q 2506 1872 2764 1633 
Q 3022 1394 3022 966 
Q 3022 478 2636 193 
Q 2250 -91 1575 -91 
Q 1294 -91 989 -36 
Q 684 19 347 128 
L 347 722 
Q 666 556 975 473 
Q 1284 391 1588 391 
Q 1994 391 2212 530 
Q 2431 669 2431 922 
Q 2431 1156 2273 1281 
Q 2116 1406 1581 1522 
L 1381 1569 
Q 847 1681 609 1914 
Q 372 2147 372 2553 
Q 372 3047 722 3315 
Q 1072 3584 1716 3584 
Q 2034 3584 2315 3537 
Q 2597 3491 2834 3397 
z
" transform="scale(0.015625)"/>
      <path id="DejaVuSans-45" d="M 628 4666 
L 3578 4666 
L 3578 4134 
L 1259 4134 
L 1259 2753 
L 3481 2753 
L 3481 2222 
L 1259 2222 
L 1259 531 
L 3634 531 
L 3634 0 
L 628 0 
L 628 4666 
z
" transform="scale(0.015625)"/>
      <path id="DejaVuSans-52" d="M 2841 2188 
Q 3044 2119 3236 1894 
Q 3428 1669 3622 1275 
L 4263 0 
L 3584 0 
L 2988 1197 
Q 2756 1666 2539 1819 
Q 2322 1972 1947 1972 
L 1259 1972 
L 1259 0 
L 628 0 
L 628 4666 
L 2053 4666 
Q 2853 4666 3247 4331 
Q 3641 3997 3641 3322 
Q 3641 2881 3436 2590 
Q 3231 2300 2841 2188 
z
M 1259 4147 
L 1259 2491 
L 2053 2491 
Q 2509 2491 2742 2702 
Q 2975 2913 2975 3322 
Q 2975 3731 2742 3939 
Q 2509 4147 2053 4147 
L 1259 4147 
z
" transform="scale(0.015625)"/>
     </defs>
     <use xlink:href="#DejaVuSans-4d"/>
     <use xlink:href="#DejaVuSans-65" x="86.279297"/>
     <use xlink:href="#DejaVuSans-64" x="147.802734"/>
     <use xlink:href="#DejaVuSans-69" x="211.279297"/>
     <use xlink:href="#DejaVuSans-61" x="239.0625"/>
     <use xlink:href="#DejaVuSans-20" x="300.341797"/>
     <use xlink:href="#DejaVuSans-43" x="332.128906"/>
     <use xlink:href="#DejaVuSans-6f" x="401.953125"/>
     <use xlink:href="#DejaVuSans-73" x="463.134766"/>
     <use xlink:href="#DejaVuSans-74" x="515.234375"/>
     <use xlink:href="#DejaVuSans-20" x="554.443359"/>
     <use xlink:href="#DejaVuSans-45" x="586.230469"/>
     <use xlink:href="#DejaVuSans-66" x="649.414062"/>
     <use xlink:href="#DejaVuSans-66" x="684.619141"/>
     <use xlink:href="#DejaVuSans-65" x="719.824219"/>
     <use xlink:href="#DejaVuSans-63" x="781.347656"/>
     <use xlink:href="#DejaVuSans-74" x="836.328125"/>
     <use xlink:href="#DejaVuSans-20" x="875.537109"/>
     <use xlink:href="#DejaVuSans-52" x="907.324219"/>
     <use xlink:href="#DejaVuSans-61" x="974.556641"/>
     <use xlink:href="#DejaVuSans-74" x="1035.835938"/>
     <use xlink:href="#DejaVuSans-69" x="1075.044922"/>
     <use xlink:href="#DejaVuSans-6f" x="1102.828125"/>
    </g>
   </g>
   <g id="legend_1">
    <g id="patch_7">
     <path d="M 432.069375 142.65425 
L 599.913125 142.65425 
Q 601.913125 142.65425 601.913125 140.65425 
L 601.913125 31.14175 
Q 601.913125 29.14175 599.913125 29.14175 
L 432.069375 29.14175 
Q 430.069375 29.14175 430.069375 31.14175 
L 430.069375 140.65425 
Q 430.069375 142.65425 432.069375 142.65425 
z
" style="fill: #eeeeee; opacity: 0.8; stroke: #cccccc; stroke-width: 0.5; stroke-linejoin: miter"/>
    </g>
    <g id="line2d_35">
     <path d="M 434.069375 37.240187 
L 444.069375 37.240187 
L 454.069375 37.240187 
" style="fill: none; stroke: #000000; stroke-width: 2; stroke-linecap: square"/>
    </g>
    <g id="text_18">
     <!-- effect ratio -->
     <g transform="translate(462.069375 40.740187)scale(0.1 -0.1)">
      <use xlink:href="#DejaVuSans-65"/>
      <use xlink:href="#DejaVuSans-66" x="61.523438"/>
      <use xlink:href="#DejaVuSans-66" x="96.728516"/>
      <use xlink:href="#DejaVuSans-65" x="131.933594"/>
      <use xlink:href="#DejaVuSans-63" x="193.457031"/>
      <use xlink:href="#DejaVuSans-74" x="248.4375"/>
      <use xlink:href="#DejaVuSans-20" x="287.646484"/>
      <use xlink:href="#DejaVuSans-72" x="319.433594"/>
      <use xlink:href="#DejaVuSans-61" x="360.546875"/>
      <use xlink:href="#DejaVuSans-74" x="421.826172"/>
      <use xlink:href="#DejaVuSans-69" x="461.035156"/>
      <use xlink:href="#DejaVuSans-6f" x="488.818359"/>
     </g>
    </g>
    <g id="line2d_36">
     <path d="M 434.069375 51.918313 
L 444.069375 51.918313 
L 454.069375 51.918313 
" style="fill: none; stroke: #009e73; stroke-width: 2; stroke-linecap: square"/>
    </g>
    <g id="text_19">
     <!-- effect ratio smooth -->
     <g transform="translate(462.069375 55.418313)scale(0.1 -0.1)">
      <defs>
       <path id="DejaVuSans-6d" d="M 3328 2828 
Q 3544 3216 3844 3400 
Q 4144 3584 4550 3584 
Q 5097 3584 5394 3201 
Q 5691 2819 5691 2113 
L 5691 0 
L 5113 0 
L 5113 2094 
Q 5113 2597 4934 2840 
Q 4756 3084 4391 3084 
Q 3944 3084 3684 2787 
Q 3425 2491 3425 1978 
L 3425 0 
L 2847 0 
L 2847 2094 
Q 2847 2600 2669 2842 
Q 2491 3084 2119 3084 
Q 1678 3084 1418 2786 
Q 1159 2488 1159 1978 
L 1159 0 
L 581 0 
L 581 3500 
L 1159 3500 
L 1159 2956 
Q 1356 3278 1631 3431 
Q 1906 3584 2284 3584 
Q 2666 3584 2933 3390 
Q 3200 3197 3328 2828 
z
" transform="scale(0.015625)"/>
       <path id="DejaVuSans-68" d="M 3513 2113 
L 3513 0 
L 2938 0 
L 2938 2094 
Q 2938 2591 2744 2837 
Q 2550 3084 2163 3084 
Q 1697 3084 1428 2787 
Q 1159 2491 1159 1978 
L 1159 0 
L 581 0 
L 581 4863 
L 1159 4863 
L 1159 2956 
Q 1366 3272 1645 3428 
Q 1925 3584 2291 3584 
Q 2894 3584 3203 3211 
Q 3513 2838 3513 2113 
z
" transform="scale(0.015625)"/>
      </defs>
      <use xlink:href="#DejaVuSans-65"/>
      <use xlink:href="#DejaVuSans-66" x="61.523438"/>
      <use xlink:href="#DejaVuSans-66" x="96.728516"/>
      <use xlink:href="#DejaVuSans-65" x="131.933594"/>
      <use xlink:href="#DejaVuSans-63" x="193.457031"/>
      <use xlink:href="#DejaVuSans-74" x="248.4375"/>
      <use xlink:href="#DejaVuSans-20" x="287.646484"/>
      <use xlink:href="#DejaVuSans-72" x="319.433594"/>
      <use xlink:href="#DejaVuSans-61" x="360.546875"/>
      <use xlink:href="#DejaVuSans-74" x="421.826172"/>
      <use xlink:href="#DejaVuSans-69" x="461.035156"/>
      <use xlink:href="#DejaVuSans-6f" x="488.818359"/>
      <use xlink:href="#DejaVuSans-20" x="550"/>
      <use xlink:href="#DejaVuSans-73" x="581.787109"/>
      <use xlink:href="#DejaVuSans-6d" x="633.886719"/>
      <use xlink:href="#DejaVuSans-6f" x="731.298828"/>
      <use xlink:href="#DejaVuSans-6f" x="792.480469"/>
      <use xlink:href="#DejaVuSans-74" x="853.662109"/>
      <use xlink:href="#DejaVuSans-68" x="892.871094"/>
     </g>
    </g>
    <g id="line2d_37">
     <path d="M 434.069375 66.596437 
L 444.069375 66.596437 
L 454.069375 66.596437 
" style="fill: none; stroke-dasharray: 7.4,3.2; stroke-dashoffset: 0; stroke: #000000; stroke-width: 2"/>
    </g>
    <g id="text_20">
     <!-- effect ratio median =  0.03 -->
     <g transform="translate(462.069375 70.096437)scale(0.1 -0.1)">
      <defs>
       <path id="DejaVuSans-6e" d="M 3513 2113 
L 3513 0 
L 2938 0 
L 2938 2094 
Q 2938 2591 2744 2837 
Q 2550 3084 2163 3084 
Q 1697 3084 1428 2787 
Q 1159 2491 1159 1978 
L 1159 0 
L 581 0 
L 581 3500 
L 1159 3500 
L 1159 2956 
Q 1366 3272 1645 3428 
Q 1925 3584 2291 3584 
Q 2894 3584 3203 3211 
Q 3513 2838 3513 2113 
z
" transform="scale(0.015625)"/>
       <path id="DejaVuSans-3d" d="M 678 2906 
L 4684 2906 
L 4684 2381 
L 678 2381 
L 678 2906 
z
M 678 1631 
L 4684 1631 
L 4684 1100 
L 678 1100 
L 678 1631 
z
" transform="scale(0.015625)"/>
      </defs>
      <use xlink:href="#DejaVuSans-65"/>
      <use xlink:href="#DejaVuSans-66" x="61.523438"/>
      <use xlink:href="#DejaVuSans-66" x="96.728516"/>
      <use xlink:href="#DejaVuSans-65" x="131.933594"/>
      <use xlink:href="#DejaVuSans-63" x="193.457031"/>
      <use xlink:href="#DejaVuSans-74" x="248.4375"/>
      <use xlink:href="#DejaVuSans-20" x="287.646484"/>
      <use xlink:href="#DejaVuSans-72" x="319.433594"/>
      <use xlink:href="#DejaVuSans-61" x="360.546875"/>
      <use xlink:href="#DejaVuSans-74" x="421.826172"/>
      <use xlink:href="#DejaVuSans-69" x="461.035156"/>
      <use xlink:href="#DejaVuSans-6f" x="488.818359"/>
      <use xlink:href="#DejaVuSans-20" x="550"/>
      <use xlink:href="#DejaVuSans-6d" x="581.787109"/>
      <use xlink:href="#DejaVuSans-65" x="679.199219"/>
      <use xlink:href="#DejaVuSans-64" x="740.722656"/>
      <use xlink:href="#DejaVuSans-69" x="804.199219"/>
      <use xlink:href="#DejaVuSans-61" x="831.982422"/>
      <use xlink:href="#DejaVuSans-6e" x="893.261719"/>
      <use xlink:href="#DejaVuSans-20" x="956.640625"/>
      <use xlink:href="#DejaVuSans-3d" x="988.427734"/>
      <use xlink:href="#DejaVuSans-20" x="1072.216797"/>
      <use xlink:href="#DejaVuSans-20" x="1104.003906"/>
      <use xlink:href="#DejaVuSans-30" x="1135.791016"/>
      <use xlink:href="#DejaVuSans-2e" x="1199.414062"/>
      <use xlink:href="#DejaVuSans-30" x="1231.201172"/>
      <use xlink:href="#DejaVuSans-33" x="1294.824219"/>
     </g>
    </g>
    <g id="line2d_38">
     <path d="M 434.069375 81.274563 
L 444.069375 81.274563 
L 454.069375 81.274563 
" style="fill: none; stroke-dasharray: 7.4,3.2; stroke-dashoffset: 0; stroke: #808080; stroke-width: 2"/>
    </g>
    <g id="text_21">
     <!-- effect ratio mean =  0.04 -->
     <g transform="translate(462.069375 84.774563)scale(0.1 -0.1)">
      <use xlink:href="#DejaVuSans-65"/>
      <use xlink:href="#DejaVuSans-66" x="61.523438"/>
      <use xlink:href="#DejaVuSans-66" x="96.728516"/>
      <use xlink:href="#DejaVuSans-65" x="131.933594"/>
      <use xlink:href="#DejaVuSans-63" x="193.457031"/>
      <use xlink:href="#DejaVuSans-74" x="248.4375"/>
      <use xlink:href="#DejaVuSans-20" x="287.646484"/>
      <use xlink:href="#DejaVuSans-72" x="319.433594"/>
      <use xlink:href="#DejaVuSans-61" x="360.546875"/>
      <use xlink:href="#DejaVuSans-74" x="421.826172"/>
      <use xlink:href="#DejaVuSans-69" x="461.035156"/>
      <use xlink:href="#DejaVuSans-6f" x="488.818359"/>
      <use xlink:href="#DejaVuSans-20" x="550"/>
      <use xlink:href="#DejaVuSans-6d" x="581.787109"/>
      <use xlink:href="#DejaVuSans-65" x="679.199219"/>
      <use xlink:href="#DejaVuSans-61" x="740.722656"/>
      <use xlink:href="#DejaVuSans-6e" x="802.001953"/>
      <use xlink:href="#DejaVuSans-20" x="865.380859"/>
      <use xlink:href="#DejaVuSans-3d" x="897.167969"/>
      <use xlink:href="#DejaVuSans-20" x="980.957031"/>
      <use xlink:href="#DejaVuSans-20" x="1012.744141"/>
      <use xlink:href="#DejaVuSans-30" x="1044.53125"/>
      <use xlink:href="#DejaVuSans-2e" x="1108.154297"/>
      <use xlink:href="#DejaVuSans-30" x="1139.941406"/>
      <use xlink:href="#DejaVuSans-34" x="1203.564453"/>
     </g>
    </g>
    <g id="line2d_39">
     <path d="M 434.069375 98.25425 
L 444.069375 98.25425 
L 454.069375 98.25425 
" style="fill: none; stroke-dasharray: 7.4,3.2; stroke-dashoffset: 0; stroke: #a60628; stroke-width: 2"/>
    </g>
    <g id="text_22">
     <!-- $\hat{\beta}_{prophet}$ =  0.029 -->
     <g transform="translate(462.069375 101.75425)scale(0.1 -0.1)">
      <defs>
       <path id="Cmr10-5e" d="M 863 3444 
L 738 3578 
L 1600 4441 
L 2456 3578 
L 2328 3444 
L 1600 4084 
L 863 3444 
z
" transform="scale(0.015625)"/>
       <path id="Cmmi10-af" d="M 172 -1241 
Q 153 -1241 137 -1219 
Q 122 -1197 122 -1178 
L 1106 2778 
Q 1191 3097 1353 3397 
Q 1516 3697 1761 3955 
Q 2006 4213 2300 4363 
Q 2594 4513 2925 4513 
Q 3163 4513 3355 4408 
Q 3547 4303 3658 4114 
Q 3769 3925 3769 3688 
Q 3769 3459 3681 3251 
Q 3594 3044 3437 2864 
Q 3281 2684 3103 2572 
Q 3206 2506 3287 2404 
Q 3369 2303 3419 2192 
Q 3469 2081 3497 1945 
Q 3525 1809 3525 1691 
Q 3525 1363 3384 1044 
Q 3244 725 3001 465 
Q 2759 206 2446 54 
Q 2134 -97 1806 -97 
Q 1447 -97 1159 100 
Q 872 297 763 634 
L 300 -1203 
Q 300 -1241 250 -1241 
L 172 -1241 
z
M 1819 78 
Q 2106 78 2339 267 
Q 2572 456 2723 742 
Q 2875 1028 2954 1348 
Q 3034 1669 3034 1931 
Q 3034 2256 2847 2444 
Q 2628 2363 2419 2363 
Q 1913 2363 1913 2534 
Q 1913 2759 2491 2759 
Q 2697 2759 2869 2694 
Q 3006 2800 3118 3006 
Q 3231 3213 3289 3438 
Q 3347 3663 3347 3859 
Q 3347 4069 3236 4208 
Q 3125 4347 2913 4347 
Q 2522 4347 2186 4106 
Q 1850 3866 1619 3498 
Q 1388 3131 1288 2741 
L 934 1325 
Q 900 1178 891 997 
Q 891 597 1153 337 
Q 1416 78 1819 78 
z
M 2106 2553 
Q 2203 2528 2425 2528 
Q 2534 2528 2644 2566 
Q 2638 2572 2619 2572 
Q 2550 2591 2472 2591 
Q 2181 2591 2106 2553 
z
" transform="scale(0.015625)"/>
       <path id="Cmmi10-70" d="M -159 -1241 
Q -219 -1241 -219 -1159 
Q -197 -1019 -134 -1019 
Q 66 -1019 145 -983 
Q 225 -947 269 -800 
L 991 2081 
Q 1038 2200 1038 2388 
Q 1038 2663 850 2663 
Q 650 2663 553 2423 
Q 456 2184 366 1819 
Q 366 1778 313 1778 
L 238 1778 
Q 222 1778 203 1801 
Q 184 1825 184 1844 
Q 253 2122 317 2315 
Q 381 2509 517 2668 
Q 653 2828 856 2828 
Q 1075 2828 1240 2704 
Q 1406 2581 1453 2369 
Q 1628 2572 1840 2700 
Q 2053 2828 2278 2828 
Q 2547 2828 2745 2684 
Q 2944 2541 3044 2308 
Q 3144 2075 3144 1806 
Q 3144 1394 2933 953 
Q 2722 513 2361 220 
Q 2000 -72 1588 -72 
Q 1400 -72 1248 34 
Q 1097 141 1013 313 
L 722 -825 
Q 706 -919 703 -934 
Q 703 -1019 1125 -1019 
Q 1191 -1019 1191 -1100 
Q 1169 -1184 1155 -1212 
Q 1141 -1241 1081 -1241 
L -159 -1241 
z
M 1594 97 
Q 1816 97 2006 280 
Q 2197 463 2316 691 
Q 2403 863 2479 1111 
Q 2556 1359 2612 1640 
Q 2669 1922 2669 2088 
Q 2669 2234 2630 2362 
Q 2591 2491 2502 2577 
Q 2413 2663 2266 2663 
Q 2031 2663 1823 2495 
Q 1616 2328 1447 2081 
L 1447 2059 
L 1094 647 
Q 1138 419 1263 258 
Q 1388 97 1594 97 
z
" transform="scale(0.015625)"/>
       <path id="Cmmi10-72" d="M 494 109 
Q 494 147 500 166 
L 978 2075 
Q 1025 2253 1025 2388 
Q 1025 2663 838 2663 
Q 638 2663 541 2423 
Q 444 2184 353 1819 
Q 353 1800 334 1789 
Q 316 1778 300 1778 
L 225 1778 
Q 203 1778 187 1801 
Q 172 1825 172 1844 
Q 241 2122 305 2315 
Q 369 2509 505 2668 
Q 641 2828 844 2828 
Q 1066 2828 1233 2700 
Q 1400 2572 1441 2363 
Q 1603 2575 1811 2701 
Q 2019 2828 2266 2828 
Q 2469 2828 2623 2709 
Q 2778 2591 2778 2388 
Q 2778 2225 2676 2104 
Q 2575 1984 2406 1984 
Q 2303 1984 2233 2048 
Q 2163 2113 2163 2216 
Q 2163 2356 2266 2467 
Q 2369 2578 2503 2578 
Q 2400 2663 2253 2663 
Q 1978 2663 1775 2467 
Q 1572 2272 1409 1972 
L 953 141 
Q 931 53 854 -9 
Q 778 -72 684 -72 
Q 606 -72 550 -22 
Q 494 28 494 109 
z
" transform="scale(0.015625)"/>
       <path id="Cmmi10-6f" d="M 1288 -72 
Q 984 -72 748 72 
Q 513 216 384 459 
Q 256 703 256 1013 
Q 256 1447 498 1872 
Q 741 2297 1142 2562 
Q 1544 2828 1984 2828 
Q 2222 2828 2408 2747 
Q 2594 2666 2731 2519 
Q 2869 2372 2942 2175 
Q 3016 1978 3016 1747 
Q 3016 1413 2875 1089 
Q 2734 766 2489 502 
Q 2244 238 1928 83 
Q 1613 -72 1288 -72 
z
M 1300 97 
Q 1584 97 1820 290 
Q 2056 484 2207 779 
Q 2359 1075 2440 1403 
Q 2522 1731 2522 1997 
Q 2522 2275 2383 2469 
Q 2244 2663 1972 2663 
Q 1597 2663 1315 2342 
Q 1034 2022 892 1576 
Q 750 1131 750 763 
Q 750 484 892 290 
Q 1034 97 1300 97 
z
" transform="scale(0.015625)"/>
       <path id="Cmmi10-68" d="M 341 116 
Q 341 153 347 172 
L 1275 3872 
Q 1300 3981 1306 4044 
Q 1306 4147 891 4147 
Q 825 4147 825 4231 
Q 828 4247 839 4287 
Q 850 4328 867 4350 
Q 884 4372 916 4372 
L 1778 4441 
L 1797 4441 
Q 1797 4434 1819 4423 
Q 1841 4413 1844 4409 
Q 1856 4378 1856 4359 
L 1356 2363 
Q 1750 2828 2291 2828 
Q 2516 2828 2680 2750 
Q 2844 2672 2936 2514 
Q 3028 2356 3028 2138 
Q 3028 1875 2911 1503 
Q 2794 1131 2619 672 
Q 2528 463 2528 288 
Q 2528 97 2675 97 
Q 2925 97 3092 364 
Q 3259 631 3328 941 
Q 3341 978 3378 978 
L 3456 978 
Q 3481 978 3497 961 
Q 3513 944 3513 922 
Q 3513 916 3506 903 
Q 3450 672 3339 448 
Q 3228 225 3059 76 
Q 2891 -72 2663 -72 
Q 2438 -72 2278 83 
Q 2119 238 2119 459 
Q 2119 578 2169 709 
Q 2350 1191 2470 1569 
Q 2591 1947 2591 2234 
Q 2591 2419 2519 2541 
Q 2447 2663 2278 2663 
Q 1934 2663 1678 2452 
Q 1422 2241 1234 1894 
L 800 147 
Q 775 50 703 -11 
Q 631 -72 538 -72 
Q 456 -72 398 -17 
Q 341 38 341 116 
z
" transform="scale(0.015625)"/>
       <path id="Cmmi10-65" d="M 1288 -72 
Q 981 -72 751 87 
Q 522 247 401 517 
Q 281 788 281 1088 
Q 281 1544 511 1945 
Q 741 2347 1134 2587 
Q 1528 2828 1978 2828 
Q 2253 2828 2458 2686 
Q 2663 2544 2663 2278 
Q 2663 1909 2369 1729 
Q 2075 1550 1706 1508 
Q 1338 1466 891 1466 
L 872 1466 
Q 769 1084 769 813 
Q 769 528 900 312 
Q 1031 97 1300 97 
Q 1681 97 2032 272 
Q 2384 447 2606 756 
Q 2625 775 2656 775 
Q 2688 775 2720 739 
Q 2753 703 2753 672 
Q 2753 647 2741 634 
Q 2506 306 2109 117 
Q 1713 -72 1288 -72 
z
M 909 1631 
Q 1281 1631 1597 1665 
Q 1913 1700 2169 1839 
Q 2425 1978 2425 2272 
Q 2425 2391 2359 2480 
Q 2294 2569 2189 2616 
Q 2084 2663 1972 2663 
Q 1700 2663 1483 2516 
Q 1266 2369 1125 2133 
Q 984 1897 909 1631 
z
" transform="scale(0.015625)"/>
       <path id="Cmmi10-74" d="M 397 519 
Q 397 613 416 697 
L 878 2534 
L 206 2534 
Q 141 2534 141 2619 
Q 166 2759 225 2759 
L 934 2759 
L 1191 3803 
Q 1216 3888 1291 3947 
Q 1366 4006 1459 4006 
Q 1541 4006 1595 3957 
Q 1650 3909 1650 3828 
Q 1650 3809 1648 3798 
Q 1647 3788 1644 3775 
L 1388 2759 
L 2047 2759 
Q 2113 2759 2113 2675 
Q 2109 2659 2100 2621 
Q 2091 2584 2075 2559 
Q 2059 2534 2028 2534 
L 1331 2534 
L 872 684 
Q 825 503 825 372 
Q 825 97 1013 97 
Q 1294 97 1511 361 
Q 1728 625 1844 941 
Q 1869 978 1894 978 
L 1972 978 
Q 1997 978 2012 961 
Q 2028 944 2028 922 
Q 2028 909 2022 903 
Q 1881 516 1612 222 
Q 1344 -72 997 -72 
Q 744 -72 570 93 
Q 397 259 397 519 
z
" transform="scale(0.015625)"/>
      </defs>
      <use xlink:href="#Cmr10-5e" transform="translate(10.592285 29.609375)"/>
      <use xlink:href="#Cmmi10-af" transform="translate(0 0.40625)"/>
      <use xlink:href="#Cmmi10-70" transform="translate(60.958281 -16.6)scale(0.7)"/>
      <use xlink:href="#Cmmi10-72" transform="translate(96.163359 -16.6)scale(0.7)"/>
      <use xlink:href="#Cmmi10-6f" transform="translate(127.745391 -16.6)scale(0.7)"/>
      <use xlink:href="#Cmmi10-70" transform="translate(161.617461 -16.6)scale(0.7)"/>
      <use xlink:href="#Cmmi10-68" transform="translate(196.822539 -16.6)scale(0.7)"/>
      <use xlink:href="#Cmmi10-65" transform="translate(237.15457 -16.6)scale(0.7)"/>
      <use xlink:href="#Cmmi10-74" transform="translate(269.693633 -16.6)scale(0.7)"/>
      <use xlink:href="#DejaVuSans-20" transform="translate(301.329766 0.40625)"/>
      <use xlink:href="#DejaVuSans-3d" transform="translate(333.116875 0.40625)"/>
      <use xlink:href="#DejaVuSans-20" transform="translate(416.905937 0.40625)"/>
      <use xlink:href="#DejaVuSans-20" transform="translate(448.693047 0.40625)"/>
      <use xlink:href="#DejaVuSans-30" transform="translate(480.480156 0.40625)"/>
      <use xlink:href="#DejaVuSans-2e" transform="translate(544.103203 0.40625)"/>
      <use xlink:href="#DejaVuSans-30" transform="translate(575.890312 0.40625)"/>
      <use xlink:href="#DejaVuSans-32" transform="translate(639.513359 0.40625)"/>
      <use xlink:href="#DejaVuSans-39" transform="translate(701.386406 0.40625)"/>
     </g>
    </g>
    <g id="line2d_40">
     <path d="M 434.069375 116.174562 
L 444.069375 116.174562 
L 454.069375 116.174562 
" style="fill: none; stroke: #348abd; stroke-width: 2; stroke-linecap: square"/>
    </g>
    <g id="text_23">
     <!-- $\hat{\beta}_{KTR}$ -->
     <g transform="translate(462.069375 119.674562)scale(0.1 -0.1)">
      <defs>
       <path id="Cmmi10-4b" d="M 300 0 
Q 238 0 238 84 
Q 241 100 250 139 
Q 259 178 276 201 
Q 294 225 319 225 
Q 709 225 863 269 
Q 947 297 984 441 
L 1863 3956 
Q 1875 4019 1875 4044 
Q 1875 4113 1797 4122 
Q 1678 4147 1338 4147 
Q 1275 4147 1275 4231 
Q 1297 4313 1309 4342 
Q 1322 4372 1381 4372 
L 3103 4372 
Q 3169 4372 3169 4288 
Q 3166 4272 3156 4234 
Q 3147 4197 3131 4172 
Q 3116 4147 3084 4147 
Q 2694 4147 2541 4103 
Q 2456 4072 2419 3928 
L 1900 1856 
L 4409 3794 
Q 4416 3806 4489 3879 
Q 4563 3953 4563 4025 
Q 4563 4147 4347 4147 
Q 4281 4147 4281 4231 
Q 4294 4281 4301 4309 
Q 4309 4338 4329 4355 
Q 4350 4372 4391 4372 
L 5631 4372 
Q 5666 4372 5681 4347 
Q 5697 4322 5697 4288 
Q 5694 4272 5683 4231 
Q 5672 4191 5655 4169 
Q 5638 4147 5606 4147 
Q 5138 4147 4581 3713 
Q 4578 3709 4572 3707 
Q 4566 3706 4559 3704 
Q 4553 3703 4550 3700 
L 3231 2675 
L 4191 428 
Q 4278 288 4378 256 
Q 4478 225 4684 225 
Q 4750 225 4750 141 
Q 4731 66 4712 33 
Q 4694 0 4641 0 
L 3156 0 
Q 3097 0 3097 84 
Q 3106 150 3118 187 
Q 3131 225 3181 225 
Q 3344 225 3458 258 
Q 3572 291 3572 409 
Q 3572 453 3566 475 
L 2772 2322 
L 1838 1600 
L 1544 416 
Q 1528 338 1528 325 
Q 1528 259 1606 250 
Q 1728 225 2069 225 
Q 2131 225 2131 141 
Q 2109 50 2096 25 
Q 2084 0 2022 0 
L 300 0 
z
" transform="scale(0.015625)"/>
       <path id="Cmmi10-54" d="M 294 84 
Q 297 100 308 140 
Q 319 181 336 203 
Q 353 225 384 225 
Q 934 225 1113 256 
Q 1284 300 1319 441 
L 2194 3956 
Q 2222 4034 2222 4097 
Q 2222 4147 1997 4147 
L 1625 4147 
Q 1197 4147 964 4015 
Q 731 3884 622 3668 
Q 513 3453 341 2963 
Q 319 2906 275 2906 
L 219 2906 
Q 153 2906 153 2988 
L 609 4313 
Q 622 4372 672 4372 
L 4453 4372 
Q 4519 4372 4519 4288 
L 4306 2963 
Q 4306 2944 4284 2925 
Q 4263 2906 4244 2906 
L 4184 2906 
Q 4122 2906 4122 2988 
Q 4191 3441 4191 3628 
Q 4191 3853 4097 3968 
Q 4003 4084 3853 4115 
Q 3703 4147 3463 4147 
L 3084 4147 
Q 2913 4147 2853 4115 
Q 2794 4084 2753 3928 
L 1875 416 
Q 1872 403 1870 390 
Q 1869 378 1863 359 
Q 1863 278 1959 256 
Q 2125 225 2669 225 
Q 2731 225 2731 141 
Q 2709 50 2696 25 
Q 2684 0 2625 0 
L 359 0 
Q 294 0 294 84 
z
" transform="scale(0.015625)"/>
       <path id="Cmmi10-52" d="M 313 0 
Q 250 0 250 84 
Q 253 100 262 139 
Q 272 178 289 201 
Q 306 225 331 225 
Q 722 225 878 269 
Q 959 297 997 441 
L 1875 3956 
Q 1888 4019 1888 4044 
Q 1888 4113 1813 4122 
Q 1691 4147 1350 4147 
Q 1288 4147 1288 4231 
Q 1291 4247 1300 4286 
Q 1309 4325 1326 4348 
Q 1344 4372 1369 4372 
L 3309 4372 
Q 3541 4372 3791 4319 
Q 4041 4266 4250 4152 
Q 4459 4038 4593 3848 
Q 4728 3659 4728 3406 
Q 4728 3084 4515 2831 
Q 4303 2578 3978 2408 
Q 3653 2238 3347 2169 
Q 3597 2078 3756 1879 
Q 3916 1681 3916 1422 
Q 3916 1388 3914 1370 
Q 3913 1353 3909 1331 
L 3859 763 
Q 3853 638 3847 550 
Q 3841 463 3841 409 
Q 3841 234 3892 129 
Q 3944 25 4097 25 
Q 4297 25 4448 211 
Q 4600 397 4647 616 
Q 4675 672 4709 672 
L 4769 672 
Q 4831 672 4831 588 
Q 4784 403 4682 237 
Q 4581 72 4426 -34 
Q 4272 -141 4091 -141 
Q 3716 -141 3452 26 
Q 3188 194 3188 550 
Q 3188 684 3213 788 
L 3353 1356 
Q 3378 1434 3378 1538 
Q 3378 1803 3198 1954 
Q 3019 2106 2747 2106 
L 1959 2106 
L 1538 416 
Q 1522 363 1522 325 
Q 1522 259 1600 250 
Q 1722 225 2059 225 
Q 2125 225 2125 141 
Q 2103 50 2090 25 
Q 2078 0 2016 0 
L 313 0 
z
M 1997 2272 
L 2706 2272 
Q 3403 2272 3756 2625 
Q 3919 2788 4014 3039 
Q 4109 3291 4109 3541 
Q 4109 3778 3970 3912 
Q 3831 4047 3626 4097 
Q 3422 4147 3175 4147 
L 2747 4147 
Q 2572 4147 2515 4117 
Q 2459 4088 2413 3928 
L 1997 2272 
z
" transform="scale(0.015625)"/>
      </defs>
      <use xlink:href="#Cmr10-5e" transform="translate(10.592285 29.609375)"/>
      <use xlink:href="#Cmmi10-af" transform="translate(0 0.40625)"/>
      <use xlink:href="#Cmmi10-4b" transform="translate(60.958281 -16.6)scale(0.7)"/>
      <use xlink:href="#Cmmi10-54" transform="translate(120.396758 -16.6)scale(0.7)"/>
      <use xlink:href="#Cmmi10-52" transform="translate(161.275664 -16.6)scale(0.7)"/>
     </g>
    </g>
    <g id="patch_8">
     <path d="M 434.069375 136.574563 
L 454.069375 136.574563 
L 454.069375 129.574563 
L 434.069375 129.574563 
z
" style="fill: #348abd; fill-opacity: 0.15; stroke: #348abd; stroke-opacity: 0.15; stroke-width: 0.5; stroke-linejoin: miter"/>
    </g>
    <g id="text_24">
     <!-- $\hat{\beta}_{KTR}$ 95% credible interval -->
     <g transform="translate(462.069375 136.574563)scale(0.1 -0.1)">
      <defs>
       <path id="DejaVuSans-25" d="M 4653 2053 
Q 4381 2053 4226 1822 
Q 4072 1591 4072 1178 
Q 4072 772 4226 539 
Q 4381 306 4653 306 
Q 4919 306 5073 539 
Q 5228 772 5228 1178 
Q 5228 1588 5073 1820 
Q 4919 2053 4653 2053 
z
M 4653 2450 
Q 5147 2450 5437 2106 
Q 5728 1763 5728 1178 
Q 5728 594 5436 251 
Q 5144 -91 4653 -91 
Q 4153 -91 3862 251 
Q 3572 594 3572 1178 
Q 3572 1766 3864 2108 
Q 4156 2450 4653 2450 
z
M 1428 4353 
Q 1159 4353 1004 4120 
Q 850 3888 850 3481 
Q 850 3069 1003 2837 
Q 1156 2606 1428 2606 
Q 1700 2606 1854 2837 
Q 2009 3069 2009 3481 
Q 2009 3884 1853 4118 
Q 1697 4353 1428 4353 
z
M 4250 4750 
L 4750 4750 
L 1831 -91 
L 1331 -91 
L 4250 4750 
z
M 1428 4750 
Q 1922 4750 2215 4408 
Q 2509 4066 2509 3481 
Q 2509 2891 2217 2550 
Q 1925 2209 1428 2209 
Q 931 2209 642 2551 
Q 353 2894 353 3481 
Q 353 4063 643 4406 
Q 934 4750 1428 4750 
z
" transform="scale(0.015625)"/>
       <path id="DejaVuSans-62" d="M 3116 1747 
Q 3116 2381 2855 2742 
Q 2594 3103 2138 3103 
Q 1681 3103 1420 2742 
Q 1159 2381 1159 1747 
Q 1159 1113 1420 752 
Q 1681 391 2138 391 
Q 2594 391 2855 752 
Q 3116 1113 3116 1747 
z
M 1159 2969 
Q 1341 3281 1617 3432 
Q 1894 3584 2278 3584 
Q 2916 3584 3314 3078 
Q 3713 2572 3713 1747 
Q 3713 922 3314 415 
Q 2916 -91 2278 -91 
Q 1894 -91 1617 61 
Q 1341 213 1159 525 
L 1159 0 
L 581 0 
L 581 4863 
L 1159 4863 
L 1159 2969 
z
" transform="scale(0.015625)"/>
       <path id="DejaVuSans-6c" d="M 603 4863 
L 1178 4863 
L 1178 0 
L 603 0 
L 603 4863 
z
" transform="scale(0.015625)"/>
       <path id="DejaVuSans-76" d="M 191 3500 
L 800 3500 
L 1894 563 
L 2988 3500 
L 3597 3500 
L 2284 0 
L 1503 0 
L 191 3500 
z
" transform="scale(0.015625)"/>
      </defs>
      <use xlink:href="#Cmr10-5e" transform="translate(10.592285 29.609375)"/>
      <use xlink:href="#Cmmi10-af" transform="translate(0 0.40625)"/>
      <use xlink:href="#Cmmi10-4b" transform="translate(60.958281 -16.6)scale(0.7)"/>
      <use xlink:href="#Cmmi10-54" transform="translate(120.396758 -16.6)scale(0.7)"/>
      <use xlink:href="#Cmmi10-52" transform="translate(161.275664 -16.6)scale(0.7)"/>
      <use xlink:href="#DejaVuSans-20" transform="translate(220.768242 0.40625)"/>
      <use xlink:href="#DejaVuSans-39" transform="translate(252.555352 0.40625)"/>
      <use xlink:href="#DejaVuSans-35" transform="translate(316.178398 0.40625)"/>
      <use xlink:href="#DejaVuSans-25" transform="translate(379.801445 0.40625)"/>
      <use xlink:href="#DejaVuSans-20" transform="translate(474.820977 0.40625)"/>
      <use xlink:href="#DejaVuSans-63" transform="translate(506.608086 0.40625)"/>
      <use xlink:href="#DejaVuSans-72" transform="translate(561.588555 0.40625)"/>
      <use xlink:href="#DejaVuSans-65" transform="translate(602.701836 0.40625)"/>
      <use xlink:href="#DejaVuSans-64" transform="translate(664.225273 0.40625)"/>
      <use xlink:href="#DejaVuSans-69" transform="translate(727.701836 0.40625)"/>
      <use xlink:href="#DejaVuSans-62" transform="translate(755.485039 0.40625)"/>
      <use xlink:href="#DejaVuSans-6c" transform="translate(818.961602 0.40625)"/>
      <use xlink:href="#DejaVuSans-65" transform="translate(846.744805 0.40625)"/>
      <use xlink:href="#DejaVuSans-20" transform="translate(908.268242 0.40625)"/>
      <use xlink:href="#DejaVuSans-69" transform="translate(940.055352 0.40625)"/>
      <use xlink:href="#DejaVuSans-6e" transform="translate(967.838555 0.40625)"/>
      <use xlink:href="#DejaVuSans-74" transform="translate(1031.217461 0.40625)"/>
      <use xlink:href="#DejaVuSans-65" transform="translate(1070.426445 0.40625)"/>
      <use xlink:href="#DejaVuSans-72" transform="translate(1131.949883 0.40625)"/>
      <use xlink:href="#DejaVuSans-76" transform="translate(1173.063164 0.40625)"/>
      <use xlink:href="#DejaVuSans-61" transform="translate(1232.242852 0.40625)"/>
      <use xlink:href="#DejaVuSans-6c" transform="translate(1293.522148 0.40625)"/>
     </g>
    </g>
   </g>
  </g>
 </g>
 <defs>
  <clipPath id="p5b930cf119">
   <rect x="48.913125" y="24.14175" width="558" height="326.16"/>
  </clipPath>
 </defs>
</svg>
