<?xml version="1.0" encoding="utf-8" standalone="no"?>
<!DOCTYPE svg PUBLIC "-//W3C//DTD SVG 1.1//EN"
  "http://www.w3.org/Graphics/SVG/1.1/DTD/svg11.dtd">
<svg xmlns:xlink="http://www.w3.org/1999/xlink" width="728.39952pt" height="440.39952pt" viewBox="0 0 728.39952 440.39952" xmlns="http://www.w3.org/2000/svg" version="1.1">
 <metadata>
  <rdf:RDF xmlns:dc="http://purl.org/dc/elements/1.1/" xmlns:cc="http://creativecommons.org/ns#" xmlns:rdf="http://www.w3.org/1999/02/22-rdf-syntax-ns#">
   <cc:Work>
    <dc:type rdf:resource="http://purl.org/dc/dcmitype/StillImage"/>
    <dc:date>2022-02-03T13:28:25.827920</dc:date>
    <dc:format>image/svg+xml</dc:format>
    <dc:creator>
     <cc:Agent>
      <dc:title>Matplotlib v3.5.1, https://matplotlib.org/</dc:title>
     </cc:Agent>
    </dc:creator>
   </cc:Work>
  </rdf:RDF>
 </metadata>
 <defs>
  <style type="text/css">*{stroke-linejoin: round; stroke-linecap: butt}</style>
 </defs>
 <g id="figure_1">
  <g id="patch_1">
   <path d="M 0 440.39952 
L 728.39952 440.39952 
L 728.39952 0 
L 0 0 
L 0 440.39952 
z
" style="fill: none"/>
  </g>
  <g id="axes_1">
   <g id="patch_2">
    <path d="M 42.550625 147.178931 
L 577.68077 147.178931 
L 577.68077 24.81423 
L 42.550625 24.81423 
z
" style="fill: #eeeeee"/>
   </g>
   <g id="matplotlib.axis_1">
    <g id="xtick_1">
     <g id="line2d_1">
      <path d="M 102.013868 147.178931 
L 102.013868 24.81423 
" clip-path="url(#pcdb6c50b53)" style="fill: none; stroke-dasharray: 1.85,0.8; stroke-dashoffset: 0; stroke: #b2b2b2; stroke-width: 0.5"/>
     </g>
     <g id="line2d_2">
      <defs>
       <path id="m69b29962c4" d="M 0 0 
L 0 -3.5 
" style="stroke: #000000; stroke-width: 0.8"/>
      </defs>
      <g>
       <use xlink:href="#m69b29962c4" x="102.013868" y="147.178931" style="stroke: #000000; stroke-width: 0.8"/>
      </g>
     </g>
    </g>
    <g id="xtick_2">
     <g id="line2d_3">
      <path d="M 173.853899 147.178931 
L 173.853899 24.81423 
" clip-path="url(#pcdb6c50b53)" style="fill: none; stroke-dasharray: 1.85,0.8; stroke-dashoffset: 0; stroke: #b2b2b2; stroke-width: 0.5"/>
     </g>
     <g id="line2d_4">
      <g>
       <use xlink:href="#m69b29962c4" x="173.853899" y="147.178931" style="stroke: #000000; stroke-width: 0.8"/>
      </g>
     </g>
    </g>
    <g id="xtick_3">
     <g id="line2d_5">
      <path d="M 244.522626 147.178931 
L 244.522626 24.81423 
" clip-path="url(#pcdb6c50b53)" style="fill: none; stroke-dasharray: 1.85,0.8; stroke-dashoffset: 0; stroke: #b2b2b2; stroke-width: 0.5"/>
     </g>
     <g id="line2d_6">
      <g>
       <use xlink:href="#m69b29962c4" x="244.522626" y="147.178931" style="stroke: #000000; stroke-width: 0.8"/>
      </g>
     </g>
    </g>
    <g id="xtick_4">
     <g id="line2d_7">
      <path d="M 316.362657 147.178931 
L 316.362657 24.81423 
" clip-path="url(#pcdb6c50b53)" style="fill: none; stroke-dasharray: 1.85,0.8; stroke-dashoffset: 0; stroke: #b2b2b2; stroke-width: 0.5"/>
     </g>
     <g id="line2d_8">
      <g>
       <use xlink:href="#m69b29962c4" x="316.362657" y="147.178931" style="stroke: #000000; stroke-width: 0.8"/>
      </g>
     </g>
    </g>
    <g id="xtick_5">
     <g id="line2d_9">
      <path d="M 387.421818 147.178931 
L 387.421818 24.81423 
" clip-path="url(#pcdb6c50b53)" style="fill: none; stroke-dasharray: 1.85,0.8; stroke-dashoffset: 0; stroke: #b2b2b2; stroke-width: 0.5"/>
     </g>
     <g id="line2d_10">
      <g>
       <use xlink:href="#m69b29962c4" x="387.421818" y="147.178931" style="stroke: #000000; stroke-width: 0.8"/>
      </g>
     </g>
    </g>
    <g id="xtick_6">
     <g id="line2d_11">
      <path d="M 459.261849 147.178931 
L 459.261849 24.81423 
" clip-path="url(#pcdb6c50b53)" style="fill: none; stroke-dasharray: 1.85,0.8; stroke-dashoffset: 0; stroke: #b2b2b2; stroke-width: 0.5"/>
     </g>
     <g id="line2d_12">
      <g>
       <use xlink:href="#m69b29962c4" x="459.261849" y="147.178931" style="stroke: #000000; stroke-width: 0.8"/>
      </g>
     </g>
    </g>
    <g id="xtick_7">
     <g id="line2d_13">
      <path d="M 529.930575 147.178931 
L 529.930575 24.81423 
" clip-path="url(#pcdb6c50b53)" style="fill: none; stroke-dasharray: 1.85,0.8; stroke-dashoffset: 0; stroke: #b2b2b2; stroke-width: 0.5"/>
     </g>
     <g id="line2d_14">
      <g>
       <use xlink:href="#m69b29962c4" x="529.930575" y="147.178931" style="stroke: #000000; stroke-width: 0.8"/>
      </g>
     </g>
    </g>
   </g>
   <g id="matplotlib.axis_2">
    <g id="ytick_1">
     <g id="line2d_15">
      <path d="M 42.550625 141.772729 
L 577.68077 141.772729 
" clip-path="url(#pcdb6c50b53)" style="fill: none; stroke-dasharray: 1.85,0.8; stroke-dashoffset: 0; stroke: #b2b2b2; stroke-width: 0.5"/>
     </g>
     <g id="line2d_16">
      <defs>
       <path id="maa20c56d18" d="M 0 0 
L 3.5 0 
" style="stroke: #000000; stroke-width: 0.8"/>
      </defs>
      <g>
       <use xlink:href="#maa20c56d18" x="42.550625" y="141.772729" style="stroke: #000000; stroke-width: 0.8"/>
      </g>
     </g>
     <g id="text_1">
      <!-- 0 -->
      <g transform="translate(32.688125 145.571948)scale(0.1 -0.1)">
       <defs>
        <path id="DejaVuSans-30" d="M 2034 4250 
Q 1547 4250 1301 3770 
Q 1056 3291 1056 2328 
Q 1056 1369 1301 889 
Q 1547 409 2034 409 
Q 2525 409 2770 889 
Q 3016 1369 3016 2328 
Q 3016 3291 2770 3770 
Q 2525 4250 2034 4250 
z
M 2034 4750 
Q 2819 4750 3233 4129 
Q 3647 3509 3647 2328 
Q 3647 1150 3233 529 
Q 2819 -91 2034 -91 
Q 1250 -91 836 529 
Q 422 1150 422 2328 
Q 422 3509 836 4129 
Q 1250 4750 2034 4750 
z
" transform="scale(0.015625)"/>
       </defs>
       <use xlink:href="#DejaVuSans-30"/>
      </g>
     </g>
    </g>
    <g id="ytick_2">
     <g id="line2d_17">
      <path d="M 42.550625 119.197404 
L 577.68077 119.197404 
" clip-path="url(#pcdb6c50b53)" style="fill: none; stroke-dasharray: 1.85,0.8; stroke-dashoffset: 0; stroke: #b2b2b2; stroke-width: 0.5"/>
     </g>
     <g id="line2d_18">
      <g>
       <use xlink:href="#maa20c56d18" x="42.550625" y="119.197404" style="stroke: #000000; stroke-width: 0.8"/>
      </g>
     </g>
     <g id="text_2">
      <!-- 2 -->
      <g transform="translate(32.688125 122.996623)scale(0.1 -0.1)">
       <defs>
        <path id="DejaVuSans-32" d="M 1228 531 
L 3431 531 
L 3431 0 
L 469 0 
L 469 531 
Q 828 903 1448 1529 
Q 2069 2156 2228 2338 
Q 2531 2678 2651 2914 
Q 2772 3150 2772 3378 
Q 2772 3750 2511 3984 
Q 2250 4219 1831 4219 
Q 1534 4219 1204 4116 
Q 875 4013 500 3803 
L 500 4441 
Q 881 4594 1212 4672 
Q 1544 4750 1819 4750 
Q 2544 4750 2975 4387 
Q 3406 4025 3406 3419 
Q 3406 3131 3298 2873 
Q 3191 2616 2906 2266 
Q 2828 2175 2409 1742 
Q 1991 1309 1228 531 
z
" transform="scale(0.015625)"/>
       </defs>
       <use xlink:href="#DejaVuSans-32"/>
      </g>
     </g>
    </g>
    <g id="ytick_3">
     <g id="line2d_19">
      <path d="M 42.550625 96.622079 
L 577.68077 96.622079 
" clip-path="url(#pcdb6c50b53)" style="fill: none; stroke-dasharray: 1.85,0.8; stroke-dashoffset: 0; stroke: #b2b2b2; stroke-width: 0.5"/>
     </g>
     <g id="line2d_20">
      <g>
       <use xlink:href="#maa20c56d18" x="42.550625" y="96.622079" style="stroke: #000000; stroke-width: 0.8"/>
      </g>
     </g>
     <g id="text_3">
      <!-- 4 -->
      <g transform="translate(32.688125 100.421298)scale(0.1 -0.1)">
       <defs>
        <path id="DejaVuSans-34" d="M 2419 4116 
L 825 1625 
L 2419 1625 
L 2419 4116 
z
M 2253 4666 
L 3047 4666 
L 3047 1625 
L 3713 1625 
L 3713 1100 
L 3047 1100 
L 3047 0 
L 2419 0 
L 2419 1100 
L 313 1100 
L 313 1709 
L 2253 4666 
z
" transform="scale(0.015625)"/>
       </defs>
       <use xlink:href="#DejaVuSans-34"/>
      </g>
     </g>
    </g>
    <g id="ytick_4">
     <g id="line2d_21">
      <path d="M 42.550625 74.046754 
L 577.68077 74.046754 
" clip-path="url(#pcdb6c50b53)" style="fill: none; stroke-dasharray: 1.85,0.8; stroke-dashoffset: 0; stroke: #b2b2b2; stroke-width: 0.5"/>
     </g>
     <g id="line2d_22">
      <g>
       <use xlink:href="#maa20c56d18" x="42.550625" y="74.046754" style="stroke: #000000; stroke-width: 0.8"/>
      </g>
     </g>
     <g id="text_4">
      <!-- 6 -->
      <g transform="translate(32.688125 77.845973)scale(0.1 -0.1)">
       <defs>
        <path id="DejaVuSans-36" d="M 2113 2584 
Q 1688 2584 1439 2293 
Q 1191 2003 1191 1497 
Q 1191 994 1439 701 
Q 1688 409 2113 409 
Q 2538 409 2786 701 
Q 3034 994 3034 1497 
Q 3034 2003 2786 2293 
Q 2538 2584 2113 2584 
z
M 3366 4563 
L 3366 3988 
Q 3128 4100 2886 4159 
Q 2644 4219 2406 4219 
Q 1781 4219 1451 3797 
Q 1122 3375 1075 2522 
Q 1259 2794 1537 2939 
Q 1816 3084 2150 3084 
Q 2853 3084 3261 2657 
Q 3669 2231 3669 1497 
Q 3669 778 3244 343 
Q 2819 -91 2113 -91 
Q 1303 -91 875 529 
Q 447 1150 447 2328 
Q 447 3434 972 4092 
Q 1497 4750 2381 4750 
Q 2619 4750 2861 4703 
Q 3103 4656 3366 4563 
z
" transform="scale(0.015625)"/>
       </defs>
       <use xlink:href="#DejaVuSans-36"/>
      </g>
     </g>
    </g>
    <g id="ytick_5">
     <g id="line2d_23">
      <path d="M 42.550625 51.471429 
L 577.68077 51.471429 
" clip-path="url(#pcdb6c50b53)" style="fill: none; stroke-dasharray: 1.85,0.8; stroke-dashoffset: 0; stroke: #b2b2b2; stroke-width: 0.5"/>
     </g>
     <g id="line2d_24">
      <g>
       <use xlink:href="#maa20c56d18" x="42.550625" y="51.471429" style="stroke: #000000; stroke-width: 0.8"/>
      </g>
     </g>
     <g id="text_5">
      <!-- 8 -->
      <g transform="translate(32.688125 55.270647)scale(0.1 -0.1)">
       <defs>
        <path id="DejaVuSans-38" d="M 2034 2216 
Q 1584 2216 1326 1975 
Q 1069 1734 1069 1313 
Q 1069 891 1326 650 
Q 1584 409 2034 409 
Q 2484 409 2743 651 
Q 3003 894 3003 1313 
Q 3003 1734 2745 1975 
Q 2488 2216 2034 2216 
z
M 1403 2484 
Q 997 2584 770 2862 
Q 544 3141 544 3541 
Q 544 4100 942 4425 
Q 1341 4750 2034 4750 
Q 2731 4750 3128 4425 
Q 3525 4100 3525 3541 
Q 3525 3141 3298 2862 
Q 3072 2584 2669 2484 
Q 3125 2378 3379 2068 
Q 3634 1759 3634 1313 
Q 3634 634 3220 271 
Q 2806 -91 2034 -91 
Q 1263 -91 848 271 
Q 434 634 434 1313 
Q 434 1759 690 2068 
Q 947 2378 1403 2484 
z
M 1172 3481 
Q 1172 3119 1398 2916 
Q 1625 2713 2034 2713 
Q 2441 2713 2670 2916 
Q 2900 3119 2900 3481 
Q 2900 3844 2670 4047 
Q 2441 4250 2034 4250 
Q 1625 4250 1398 4047 
Q 1172 3844 1172 3481 
z
" transform="scale(0.015625)"/>
       </defs>
       <use xlink:href="#DejaVuSans-38"/>
      </g>
     </g>
    </g>
    <g id="ytick_6">
     <g id="line2d_25">
      <path d="M 42.550625 28.896104 
L 577.68077 28.896104 
" clip-path="url(#pcdb6c50b53)" style="fill: none; stroke-dasharray: 1.85,0.8; stroke-dashoffset: 0; stroke: #b2b2b2; stroke-width: 0.5"/>
     </g>
     <g id="line2d_26">
      <g>
       <use xlink:href="#maa20c56d18" x="42.550625" y="28.896104" style="stroke: #000000; stroke-width: 0.8"/>
      </g>
     </g>
     <g id="text_6">
      <!-- 10 -->
      <g transform="translate(26.325625 32.695322)scale(0.1 -0.1)">
       <defs>
        <path id="DejaVuSans-31" d="M 794 531 
L 1825 531 
L 1825 4091 
L 703 3866 
L 703 4441 
L 1819 4666 
L 2450 4666 
L 2450 531 
L 3481 531 
L 3481 0 
L 794 0 
L 794 531 
z
" transform="scale(0.015625)"/>
       </defs>
       <use xlink:href="#DejaVuSans-31"/>
       <use xlink:href="#DejaVuSans-30" x="63.623047"/>
      </g>
     </g>
    </g>
    <g id="text_7">
     <!-- z -->
     <g transform="translate(19.83 89.145643)rotate(-90)scale(0.12 -0.12)">
      <defs>
       <path id="DejaVuSans-7a" d="M 353 3500 
L 3084 3500 
L 3084 2975 
L 922 459 
L 3084 459 
L 3084 0 
L 275 0 
L 275 525 
L 2438 3041 
L 353 3041 
L 353 3500 
z
" transform="scale(0.015625)"/>
      </defs>
      <use xlink:href="#DejaVuSans-7a"/>
     </g>
    </g>
   </g>
   <g id="line2d_27">
    <path d="M 66.874722 131.203523 
L 69.607767 34.459306 
L 72.340812 59.147723 
L 75.073856 74.19818 
L 77.806901 137.370015 
L 80.539946 137.370695 
L 83.27299 140.133659 
L 86.006035 44.001689 
L 88.73908 73.920895 
L 91.472124 61.847886 
L 94.205169 141.191852 
L 96.938214 32.292578 
L 99.671258 47.809413 
L 102.404303 135.780699 
L 105.137348 136.641782 
L 107.870392 136.597209 
L 110.603437 133.18727 
L 113.336482 82.539994 
L 116.069526 93.016233 
L 118.802571 133.554488 
L 121.535616 72.708839 
L 124.26866 137.83633 
L 127.001705 133.528654 
L 129.73475 131.434307 
L 132.467794 90.293088 
L 135.200839 53.144716 
L 137.933884 136.138103 
L 140.666928 83.727681 
L 143.399973 74.902972 
L 146.133018 140.461938 
L 148.866062 73.195116 
L 151.599107 136.960682 
L 154.332152 139.937028 
L 157.065196 34.665732 
L 159.798241 32.775444 
L 162.531286 50.523564 
L 165.26433 133.176785 
L 167.997375 139.016504 
L 170.73042 64.538814 
L 173.463464 92.089801 
L 176.196509 138.328913 
L 178.929554 85.87883 
L 181.662598 140.802314 
L 184.395643 39.131711 
L 187.128688 134.470176 
L 189.861732 66.989449 
L 192.594777 132.976505 
L 195.327822 83.069206 
L 198.060866 80.061918 
L 200.793911 136.556292 
L 203.526956 32.329288 
L 206.26 54.278352 
L 208.993045 35.725259 
L 211.72609 40.767637 
L 214.459134 74.283797 
L 217.192179 37.714676 
L 219.925224 139.275545 
L 222.658268 136.242258 
L 225.391313 140.496453 
L 228.124358 132.592182 
L 230.857402 130.804584 
L 233.590447 134.115488 
L 236.323492 48.227636 
L 239.056536 131.705451 
L 241.789581 133.844994 
L 244.522626 80.515027 
L 247.25567 137.795966 
L 249.988715 51.223441 
L 252.72176 139.668973 
L 255.454804 30.376262 
L 258.187849 54.604345 
L 260.920894 136.16514 
L 263.653938 141.6169 
L 266.386983 49.726195 
L 269.120028 61.985057 
L 271.853072 59.48486 
L 274.586117 54.714335 
L 277.319162 139.683251 
L 280.052206 131.657129 
L 282.785251 138.503002 
L 285.518296 44.348527 
L 288.25134 71.41694 
L 290.984385 132.435066 
L 293.71743 139.979166 
L 296.450474 132.99707 
L 299.183519 132.59633 
L 301.916564 59.417246 
L 304.649608 69.807393 
L 307.382653 41.627149 
L 310.115698 88.470702 
L 312.848742 138.39788 
L 315.581787 61.264064 
L 318.314831 55.89788 
L 321.047876 78.417653 
L 323.780921 54.748555 
L 326.513965 86.034748 
L 329.24701 82.768411 
L 331.980055 93.513342 
L 334.713099 141.055423 
L 337.446144 138.728124 
L 340.179189 140.885824 
L 342.912233 69.936869 
L 345.645278 132.901868 
L 348.378323 84.366986 
L 351.111367 39.329688 
L 353.844412 134.737913 
L 359.310501 56.488666 
L 362.043546 135.316238 
L 364.776591 139.600421 
L 367.509635 133.596188 
L 370.24268 137.2232 
L 372.975725 36.831595 
L 375.708769 50.554828 
L 378.441814 70.27625 
L 381.174859 43.405198 
L 383.907903 51.056937 
L 386.640948 136.507879 
L 389.373993 41.023681 
L 392.107037 80.893597 
L 394.840082 50.631609 
L 397.573127 40.624967 
L 400.306171 132.798939 
L 403.039216 138.667157 
L 405.772261 135.340591 
L 408.505305 93.562243 
L 411.23835 49.437983 
L 413.971395 44.616365 
L 416.704439 141.576546 
L 419.437484 84.121297 
L 422.170529 94.656784 
L 424.903573 135.505034 
L 427.636618 138.39023 
L 430.369663 132.245514 
L 433.102707 35.340264 
L 435.835752 132.652215 
L 438.568797 83.213394 
L 441.301841 62.418321 
L 444.034886 131.511408 
L 446.767931 32.081247 
L 449.500975 33.134926 
L 452.23402 134.667645 
L 454.967065 85.644996 
L 457.700109 133.282197 
L 460.433154 133.734771 
L 463.166199 140.731811 
L 465.899243 72.967164 
L 468.632288 85.032017 
L 471.365333 140.320042 
L 474.098377 133.909561 
L 476.831422 39.250741 
L 479.564467 135.012495 
L 482.297511 137.683918 
L 485.030556 86.524953 
L 487.763601 30.515832 
L 490.496645 134.942134 
L 493.22969 65.904337 
L 495.962735 55.803677 
L 498.695779 135.066798 
L 501.428824 59.574125 
L 504.161869 131.394199 
L 506.894913 70.400181 
L 509.627958 70.262033 
L 512.361003 81.296291 
L 515.094047 139.224828 
L 517.827092 47.486602 
L 520.560137 132.720586 
L 523.293181 136.509334 
L 526.026226 140.622089 
L 528.759271 75.074728 
L 531.492315 65.29155 
L 534.22536 141.304635 
L 536.958405 83.969393 
L 539.691449 135.381209 
L 542.424494 68.947802 
L 545.157539 136.852256 
L 547.890583 63.782009 
L 550.623628 130.859384 
L 553.356673 36.037809 
L 553.356673 36.037809 
" clip-path="url(#pcdb6c50b53)" style="fill: none; stroke: #348abd; stroke-width: 2; stroke-linecap: square"/>
   </g>
   <g id="patch_3">
    <path d="M 42.550625 147.178931 
L 42.550625 24.81423 
" style="fill: none; stroke: #bcbcbc; stroke-width: 0.8; stroke-linejoin: miter; stroke-linecap: square"/>
   </g>
   <g id="patch_4">
    <path d="M 577.68077 147.178931 
L 577.68077 24.81423 
" style="fill: none; stroke: #bcbcbc; stroke-width: 0.8; stroke-linejoin: miter; stroke-linecap: square"/>
   </g>
   <g id="patch_5">
    <path d="M 42.550625 147.178931 
L 577.68077 147.178931 
" style="fill: none; stroke: #bcbcbc; stroke-width: 0.8; stroke-linejoin: miter; stroke-linecap: square"/>
   </g>
   <g id="patch_6">
    <path d="M 42.550625 24.81423 
L 577.68077 24.81423 
" style="fill: none; stroke: #bcbcbc; stroke-width: 0.8; stroke-linejoin: miter; stroke-linecap: square"/>
   </g>
   <g id="legend_1">
    <g id="patch_7">
     <path d="M 584.68077 94.835643 
L 621.929207 94.835643 
Q 623.929207 94.835643 623.929207 92.835643 
L 623.929207 79.157518 
Q 623.929207 77.157518 621.929207 77.157518 
L 584.68077 77.157518 
Q 582.68077 77.157518 582.68077 79.157518 
L 582.68077 92.835643 
Q 582.68077 94.835643 584.68077 94.835643 
z
" style="fill: #eeeeee; opacity: 0.8; stroke: #cccccc; stroke-width: 0.5; stroke-linejoin: miter"/>
    </g>
    <g id="line2d_28">
     <path d="M 586.68077 85.255956 
L 596.68077 85.255956 
L 606.68077 85.255956 
" style="fill: none; stroke: #348abd; stroke-width: 2; stroke-linecap: square"/>
    </g>
    <g id="text_8">
     <!-- z -->
     <g transform="translate(614.68077 88.755956)scale(0.1 -0.1)">
      <use xlink:href="#DejaVuSans-7a"/>
     </g>
    </g>
   </g>
  </g>
  <g id="axes_2">
   <g id="patch_8">
    <path d="M 42.550625 276.042464 
L 577.68077 276.042464 
L 577.68077 153.677762 
L 42.550625 153.677762 
z
" style="fill: #eeeeee"/>
   </g>
   <g id="matplotlib.axis_3">
    <g id="xtick_8">
     <g id="line2d_29">
      <path d="M 102.013868 276.042464 
L 102.013868 153.677762 
" clip-path="url(#p2f4ea281b1)" style="fill: none; stroke-dasharray: 1.85,0.8; stroke-dashoffset: 0; stroke: #b2b2b2; stroke-width: 0.5"/>
     </g>
     <g id="line2d_30">
      <g>
       <use xlink:href="#m69b29962c4" x="102.013868" y="276.042464" style="stroke: #000000; stroke-width: 0.8"/>
      </g>
     </g>
    </g>
    <g id="xtick_9">
     <g id="line2d_31">
      <path d="M 173.853899 276.042464 
L 173.853899 153.677762 
" clip-path="url(#p2f4ea281b1)" style="fill: none; stroke-dasharray: 1.85,0.8; stroke-dashoffset: 0; stroke: #b2b2b2; stroke-width: 0.5"/>
     </g>
     <g id="line2d_32">
      <g>
       <use xlink:href="#m69b29962c4" x="173.853899" y="276.042464" style="stroke: #000000; stroke-width: 0.8"/>
      </g>
     </g>
    </g>
    <g id="xtick_10">
     <g id="line2d_33">
      <path d="M 244.522626 276.042464 
L 244.522626 153.677762 
" clip-path="url(#p2f4ea281b1)" style="fill: none; stroke-dasharray: 1.85,0.8; stroke-dashoffset: 0; stroke: #b2b2b2; stroke-width: 0.5"/>
     </g>
     <g id="line2d_34">
      <g>
       <use xlink:href="#m69b29962c4" x="244.522626" y="276.042464" style="stroke: #000000; stroke-width: 0.8"/>
      </g>
     </g>
    </g>
    <g id="xtick_11">
     <g id="line2d_35">
      <path d="M 316.362657 276.042464 
L 316.362657 153.677762 
" clip-path="url(#p2f4ea281b1)" style="fill: none; stroke-dasharray: 1.85,0.8; stroke-dashoffset: 0; stroke: #b2b2b2; stroke-width: 0.5"/>
     </g>
     <g id="line2d_36">
      <g>
       <use xlink:href="#m69b29962c4" x="316.362657" y="276.042464" style="stroke: #000000; stroke-width: 0.8"/>
      </g>
     </g>
    </g>
    <g id="xtick_12">
     <g id="line2d_37">
      <path d="M 387.421818 276.042464 
L 387.421818 153.677762 
" clip-path="url(#p2f4ea281b1)" style="fill: none; stroke-dasharray: 1.85,0.8; stroke-dashoffset: 0; stroke: #b2b2b2; stroke-width: 0.5"/>
     </g>
     <g id="line2d_38">
      <g>
       <use xlink:href="#m69b29962c4" x="387.421818" y="276.042464" style="stroke: #000000; stroke-width: 0.8"/>
      </g>
     </g>
    </g>
    <g id="xtick_13">
     <g id="line2d_39">
      <path d="M 459.261849 276.042464 
L 459.261849 153.677762 
" clip-path="url(#p2f4ea281b1)" style="fill: none; stroke-dasharray: 1.85,0.8; stroke-dashoffset: 0; stroke: #b2b2b2; stroke-width: 0.5"/>
     </g>
     <g id="line2d_40">
      <g>
       <use xlink:href="#m69b29962c4" x="459.261849" y="276.042464" style="stroke: #000000; stroke-width: 0.8"/>
      </g>
     </g>
    </g>
    <g id="xtick_14">
     <g id="line2d_41">
      <path d="M 529.930575 276.042464 
L 529.930575 153.677762 
" clip-path="url(#p2f4ea281b1)" style="fill: none; stroke-dasharray: 1.85,0.8; stroke-dashoffset: 0; stroke: #b2b2b2; stroke-width: 0.5"/>
     </g>
     <g id="line2d_42">
      <g>
       <use xlink:href="#m69b29962c4" x="529.930575" y="276.042464" style="stroke: #000000; stroke-width: 0.8"/>
      </g>
     </g>
    </g>
   </g>
   <g id="matplotlib.axis_4">
    <g id="ytick_7">
     <g id="line2d_43">
      <path d="M 42.550625 242.546153 
L 577.68077 242.546153 
" clip-path="url(#p2f4ea281b1)" style="fill: none; stroke-dasharray: 1.85,0.8; stroke-dashoffset: 0; stroke: #b2b2b2; stroke-width: 0.5"/>
     </g>
     <g id="line2d_44">
      <g>
       <use xlink:href="#maa20c56d18" x="42.550625" y="242.546153" style="stroke: #000000; stroke-width: 0.8"/>
      </g>
     </g>
     <g id="text_9">
      <!-- 5 -->
      <g transform="translate(32.688125 246.345372)scale(0.1 -0.1)">
       <defs>
        <path id="DejaVuSans-35" d="M 691 4666 
L 3169 4666 
L 3169 4134 
L 1269 4134 
L 1269 2991 
Q 1406 3038 1543 3061 
Q 1681 3084 1819 3084 
Q 2600 3084 3056 2656 
Q 3513 2228 3513 1497 
Q 3513 744 3044 326 
Q 2575 -91 1722 -91 
Q 1428 -91 1123 -41 
Q 819 9 494 109 
L 494 744 
Q 775 591 1075 516 
Q 1375 441 1709 441 
Q 2250 441 2565 725 
Q 2881 1009 2881 1497 
Q 2881 1984 2565 2268 
Q 2250 2553 1709 2553 
Q 1456 2553 1204 2497 
Q 953 2441 691 2322 
L 691 4666 
z
" transform="scale(0.015625)"/>
       </defs>
       <use xlink:href="#DejaVuSans-35"/>
      </g>
     </g>
    </g>
    <g id="ytick_8">
     <g id="line2d_45">
      <path d="M 42.550625 208.175229 
L 577.68077 208.175229 
" clip-path="url(#p2f4ea281b1)" style="fill: none; stroke-dasharray: 1.85,0.8; stroke-dashoffset: 0; stroke: #b2b2b2; stroke-width: 0.5"/>
     </g>
     <g id="line2d_46">
      <g>
       <use xlink:href="#maa20c56d18" x="42.550625" y="208.175229" style="stroke: #000000; stroke-width: 0.8"/>
      </g>
     </g>
     <g id="text_10">
      <!-- 10 -->
      <g transform="translate(26.325625 211.974448)scale(0.1 -0.1)">
       <use xlink:href="#DejaVuSans-31"/>
       <use xlink:href="#DejaVuSans-30" x="63.623047"/>
      </g>
     </g>
    </g>
    <g id="ytick_9">
     <g id="line2d_47">
      <path d="M 42.550625 173.804306 
L 577.68077 173.804306 
" clip-path="url(#p2f4ea281b1)" style="fill: none; stroke-dasharray: 1.85,0.8; stroke-dashoffset: 0; stroke: #b2b2b2; stroke-width: 0.5"/>
     </g>
     <g id="line2d_48">
      <g>
       <use xlink:href="#maa20c56d18" x="42.550625" y="173.804306" style="stroke: #000000; stroke-width: 0.8"/>
      </g>
     </g>
     <g id="text_11">
      <!-- 15 -->
      <g transform="translate(26.325625 177.603524)scale(0.1 -0.1)">
       <use xlink:href="#DejaVuSans-31"/>
       <use xlink:href="#DejaVuSans-35" x="63.623047"/>
      </g>
     </g>
    </g>
    <g id="text_12">
     <!-- z_adstock -->
     <g transform="translate(19.49625 244.417613)rotate(-90)scale(0.12 -0.12)">
      <defs>
       <path id="DejaVuSans-5f" d="M 3263 -1063 
L 3263 -1509 
L -63 -1509 
L -63 -1063 
L 3263 -1063 
z
" transform="scale(0.015625)"/>
       <path id="DejaVuSans-61" d="M 2194 1759 
Q 1497 1759 1228 1600 
Q 959 1441 959 1056 
Q 959 750 1161 570 
Q 1363 391 1709 391 
Q 2188 391 2477 730 
Q 2766 1069 2766 1631 
L 2766 1759 
L 2194 1759 
z
M 3341 1997 
L 3341 0 
L 2766 0 
L 2766 531 
Q 2569 213 2275 61 
Q 1981 -91 1556 -91 
Q 1019 -91 701 211 
Q 384 513 384 1019 
Q 384 1609 779 1909 
Q 1175 2209 1959 2209 
L 2766 2209 
L 2766 2266 
Q 2766 2663 2505 2880 
Q 2244 3097 1772 3097 
Q 1472 3097 1187 3025 
Q 903 2953 641 2809 
L 641 3341 
Q 956 3463 1253 3523 
Q 1550 3584 1831 3584 
Q 2591 3584 2966 3190 
Q 3341 2797 3341 1997 
z
" transform="scale(0.015625)"/>
       <path id="DejaVuSans-64" d="M 2906 2969 
L 2906 4863 
L 3481 4863 
L 3481 0 
L 2906 0 
L 2906 525 
Q 2725 213 2448 61 
Q 2172 -91 1784 -91 
Q 1150 -91 751 415 
Q 353 922 353 1747 
Q 353 2572 751 3078 
Q 1150 3584 1784 3584 
Q 2172 3584 2448 3432 
Q 2725 3281 2906 2969 
z
M 947 1747 
Q 947 1113 1208 752 
Q 1469 391 1925 391 
Q 2381 391 2643 752 
Q 2906 1113 2906 1747 
Q 2906 2381 2643 2742 
Q 2381 3103 1925 3103 
Q 1469 3103 1208 2742 
Q 947 2381 947 1747 
z
" transform="scale(0.015625)"/>
       <path id="DejaVuSans-73" d="M 2834 3397 
L 2834 2853 
Q 2591 2978 2328 3040 
Q 2066 3103 1784 3103 
Q 1356 3103 1142 2972 
Q 928 2841 928 2578 
Q 928 2378 1081 2264 
Q 1234 2150 1697 2047 
L 1894 2003 
Q 2506 1872 2764 1633 
Q 3022 1394 3022 966 
Q 3022 478 2636 193 
Q 2250 -91 1575 -91 
Q 1294 -91 989 -36 
Q 684 19 347 128 
L 347 722 
Q 666 556 975 473 
Q 1284 391 1588 391 
Q 1994 391 2212 530 
Q 2431 669 2431 922 
Q 2431 1156 2273 1281 
Q 2116 1406 1581 1522 
L 1381 1569 
Q 847 1681 609 1914 
Q 372 2147 372 2553 
Q 372 3047 722 3315 
Q 1072 3584 1716 3584 
Q 2034 3584 2315 3537 
Q 2597 3491 2834 3397 
z
" transform="scale(0.015625)"/>
       <path id="DejaVuSans-74" d="M 1172 4494 
L 1172 3500 
L 2356 3500 
L 2356 3053 
L 1172 3053 
L 1172 1153 
Q 1172 725 1289 603 
Q 1406 481 1766 481 
L 2356 481 
L 2356 0 
L 1766 0 
Q 1100 0 847 248 
Q 594 497 594 1153 
L 594 3053 
L 172 3053 
L 172 3500 
L 594 3500 
L 594 4494 
L 1172 4494 
z
" transform="scale(0.015625)"/>
       <path id="DejaVuSans-6f" d="M 1959 3097 
Q 1497 3097 1228 2736 
Q 959 2375 959 1747 
Q 959 1119 1226 758 
Q 1494 397 1959 397 
Q 2419 397 2687 759 
Q 2956 1122 2956 1747 
Q 2956 2369 2687 2733 
Q 2419 3097 1959 3097 
z
M 1959 3584 
Q 2709 3584 3137 3096 
Q 3566 2609 3566 1747 
Q 3566 888 3137 398 
Q 2709 -91 1959 -91 
Q 1206 -91 779 398 
Q 353 888 353 1747 
Q 353 2609 779 3096 
Q 1206 3584 1959 3584 
z
" transform="scale(0.015625)"/>
       <path id="DejaVuSans-63" d="M 3122 3366 
L 3122 2828 
Q 2878 2963 2633 3030 
Q 2388 3097 2138 3097 
Q 1578 3097 1268 2742 
Q 959 2388 959 1747 
Q 959 1106 1268 751 
Q 1578 397 2138 397 
Q 2388 397 2633 464 
Q 2878 531 3122 666 
L 3122 134 
Q 2881 22 2623 -34 
Q 2366 -91 2075 -91 
Q 1284 -91 818 406 
Q 353 903 353 1747 
Q 353 2603 823 3093 
Q 1294 3584 2113 3584 
Q 2378 3584 2631 3529 
Q 2884 3475 3122 3366 
z
" transform="scale(0.015625)"/>
       <path id="DejaVuSans-6b" d="M 581 4863 
L 1159 4863 
L 1159 1991 
L 2875 3500 
L 3609 3500 
L 1753 1863 
L 3688 0 
L 2938 0 
L 1159 1709 
L 1159 0 
L 581 0 
L 581 4863 
z
" transform="scale(0.015625)"/>
      </defs>
      <use xlink:href="#DejaVuSans-7a"/>
      <use xlink:href="#DejaVuSans-5f" x="52.490234"/>
      <use xlink:href="#DejaVuSans-61" x="102.490234"/>
      <use xlink:href="#DejaVuSans-64" x="163.769531"/>
      <use xlink:href="#DejaVuSans-73" x="227.246094"/>
      <use xlink:href="#DejaVuSans-74" x="279.345703"/>
      <use xlink:href="#DejaVuSans-6f" x="318.554688"/>
      <use xlink:href="#DejaVuSans-63" x="379.736328"/>
      <use xlink:href="#DejaVuSans-6b" x="434.716797"/>
     </g>
    </g>
   </g>
   <g id="line2d_49">
    <path d="M 66.874722 270.480432 
L 69.607767 208.344896 
L 72.340812 192.312371 
L 75.073856 193.461834 
L 77.806901 232.508203 
L 80.539946 252.031802 
L 83.27299 263.476245 
L 86.006035 210.654113 
L 88.73908 202.463838 
L 91.472124 191.01624 
L 94.205169 233.612904 
L 96.938214 188.591596 
L 99.671258 175.532263 
L 102.404303 222.591479 
L 105.137348 246.641817 
L 107.870392 258.637603 
L 110.603437 262.549451 
L 113.336482 233.661192 
L 116.069526 225.596679 
L 118.802571 246.266507 
L 121.535616 219.541982 
L 124.26866 245.844146 
L 127.001705 256.360057 
L 129.73475 260.358747 
L 132.467794 237.300789 
L 135.200839 203.135378 
L 137.933884 236.595504 
L 140.666928 221.407634 
L 143.399973 208.43996 
L 146.133018 241.889053 
L 148.866062 217.646559 
L 151.599107 244.352504 
L 154.332152 259.527117 
L 157.065196 202.994537 
L 159.798241 173.577703 
L 162.531286 169.6782 
L 165.26433 218.070364 
L 167.997375 245.828357 
L 170.73042 214.338112 
L 173.463464 215.379329 
L 176.196509 244.060862 
L 178.929554 226.449788 
L 181.662598 251.102646 
L 184.395643 201.502213 
L 187.128688 234.762664 
L 189.861732 210.312789 
L 192.594777 238.27424 
L 195.327822 221.858789 
L 198.060866 211.807336 
L 200.793911 241.185807 
L 203.526956 192.411887 
L 206.26 181.387806 
L 208.993045 164.570061 
L 211.72609 159.239794 
L 214.459134 176.97783 
L 217.192179 163.591376 
L 219.925224 218.734528 
L 222.658268 244.468865 
L 225.391313 259.917027 
L 228.124358 262.834828 
L 230.857402 263.205529 
L 233.590447 265.39882 
L 236.323492 214.205273 
L 239.056536 239.443213 
L 241.789581 253.367923 
L 244.522626 227.851586 
L 247.25567 249.972518 
L 249.988715 208.315766 
L 252.72176 241.335605 
L 255.454804 191.286732 
L 258.187849 181.016562 
L 260.920894 225.553164 
L 263.653938 251.141851 
L 266.386983 207.974277 
L 269.120028 193.868906 
L 271.853072 185.281188 
L 274.586117 178.081763 
L 277.319162 226.236036 
L 280.052206 245.416748 
L 282.785251 259.189112 
L 285.518296 208.722083 
L 288.25134 199.989478 
L 290.984385 232.779602 
L 293.71743 253.756893 
L 296.450474 259.992633 
L 299.183519 262.880115 
L 301.916564 219.755982 
L 304.649608 204.521886 
L 307.382653 179.743782 
L 310.115698 195.869814 
L 312.848742 234.339667 
L 315.581787 206.599094 
L 318.314831 189.474801 
L 321.047876 194.623168 
L 323.780921 182.773802 
L 326.513965 195.901285 
L 329.24701 200.476865 
L 331.980055 209.308376 
L 334.713099 242.688131 
L 337.446144 257.95914 
L 340.179189 266.912873 
L 342.912233 228.174872 
L 345.645278 247.144124 
L 348.378323 227.082481 
L 351.111367 189.624751 
L 353.844412 228.996131 
L 356.577457 224.759063 
L 359.310501 198.908376 
L 362.043546 233.989497 
L 364.776591 254.137527 
L 367.509635 260.547896 
L 370.24268 265.962277 
L 372.975725 207.530674 
L 375.708769 186.682868 
L 378.441814 188.259947 
L 381.174859 172.691236 
L 383.907903 169.573485 
L 386.640948 220.040034 
L 389.373993 187.129288 
L 392.107037 194.96048 
L 394.840082 180.434811 
L 397.573127 167.077295 
L 400.306171 216.533365 
L 403.039216 244.834604 
L 405.772261 256.974272 
L 408.505305 237.599058 
L 411.23835 201.036852 
L 413.971395 179.823379 
L 416.704439 228.26424 
L 419.437484 217.481728 
L 422.170529 218.520778 
L 424.903573 243.910954 
L 427.636618 258.367624 
L 430.369663 261.855317 
L 433.102707 204.570176 
L 435.835752 235.189696 
L 438.568797 220.391717 
L 441.301841 200.334743 
L 444.034886 232.390496 
L 446.767931 187.866136 
L 449.500975 166.23123 
L 452.23402 217.25573 
L 454.967065 212.911628 
L 457.700109 239.744551 
L 460.433154 253.436201 
L 463.166199 264.544136 
L 465.899243 228.843853 
L 468.632288 218.326736 
L 471.365333 246.745927 
L 474.098377 257.054632 
L 476.831422 204.551505 
L 479.564467 236.633618 
L 482.297511 254.301415 
L 485.030556 231.964415 
L 487.763601 186.693658 
L 490.496645 227.646798 
L 493.22969 206.079293 
L 495.962735 189.1432 
L 498.695779 228.956458 
L 501.428824 202.886266 
L 504.161869 233.581364 
L 506.894913 211.784519 
L 509.627958 200.816038 
L 512.361003 202.037421 
L 515.094047 237.926185 
L 517.827092 200.009609 
L 520.560137 232.967131 
L 523.293181 251.737713 
L 526.026226 263.637935 
L 528.759271 229.671215 
L 531.492315 206.718117 
L 534.22536 241.544749 
L 536.958405 224.030233 
L 539.691449 246.591832 
L 542.424494 217.414717 
L 545.157539 244.178321 
L 547.890583 213.051741 
L 550.623628 238.352202 
L 553.356673 193.243435 
L 553.356673 193.243435 
" clip-path="url(#p2f4ea281b1)" style="fill: none; stroke: #a60628; stroke-width: 2; stroke-linecap: square"/>
   </g>
   <g id="patch_9">
    <path d="M 42.550625 276.042464 
L 42.550625 153.677762 
" style="fill: none; stroke: #bcbcbc; stroke-width: 0.8; stroke-linejoin: miter; stroke-linecap: square"/>
   </g>
   <g id="patch_10">
    <path d="M 577.68077 276.042464 
L 577.68077 153.677762 
" style="fill: none; stroke: #bcbcbc; stroke-width: 0.8; stroke-linejoin: miter; stroke-linecap: square"/>
   </g>
   <g id="patch_11">
    <path d="M 42.550625 276.042464 
L 577.68077 276.042464 
" style="fill: none; stroke: #bcbcbc; stroke-width: 0.8; stroke-linejoin: miter; stroke-linecap: square"/>
   </g>
   <g id="patch_12">
    <path d="M 42.550625 153.677762 
L 577.68077 153.677762 
" style="fill: none; stroke: #bcbcbc; stroke-width: 0.8; stroke-linejoin: miter; stroke-linecap: square"/>
   </g>
   <g id="legend_2">
    <g id="patch_13">
     <path d="M 584.68077 223.838238 
L 665.94327 223.838238 
Q 667.94327 223.838238 667.94327 221.838238 
L 667.94327 207.881988 
Q 667.94327 205.881988 665.94327 205.881988 
L 584.68077 205.881988 
Q 582.68077 205.881988 582.68077 207.881988 
L 582.68077 221.838238 
Q 582.68077 223.838238 584.68077 223.838238 
z
" style="fill: #eeeeee; opacity: 0.8; stroke: #cccccc; stroke-width: 0.5; stroke-linejoin: miter"/>
    </g>
    <g id="line2d_50">
     <path d="M 586.68077 213.980425 
L 596.68077 213.980425 
L 606.68077 213.980425 
" style="fill: none; stroke: #a60628; stroke-width: 2; stroke-linecap: square"/>
    </g>
    <g id="text_13">
     <!-- z_adstock -->
     <g transform="translate(614.68077 217.480425)scale(0.1 -0.1)">
      <use xlink:href="#DejaVuSans-7a"/>
      <use xlink:href="#DejaVuSans-5f" x="52.490234"/>
      <use xlink:href="#DejaVuSans-61" x="102.490234"/>
      <use xlink:href="#DejaVuSans-64" x="163.769531"/>
      <use xlink:href="#DejaVuSans-73" x="227.246094"/>
      <use xlink:href="#DejaVuSans-74" x="279.345703"/>
      <use xlink:href="#DejaVuSans-6f" x="318.554688"/>
      <use xlink:href="#DejaVuSans-63" x="379.736328"/>
      <use xlink:href="#DejaVuSans-6b" x="434.716797"/>
     </g>
    </g>
   </g>
  </g>
  <g id="axes_3">
   <g id="patch_14">
    <path d="M 42.550625 404.407645 
L 577.68077 404.407645 
L 577.68077 282.042944 
L 42.550625 282.042944 
z
" style="fill: #eeeeee"/>
   </g>
   <g id="matplotlib.axis_5">
    <g id="xtick_15">
     <g id="line2d_51">
      <path d="M 102.013868 404.407645 
L 102.013868 282.042944 
" clip-path="url(#pb35700c3d2)" style="fill: none; stroke-dasharray: 1.85,0.8; stroke-dashoffset: 0; stroke: #b2b2b2; stroke-width: 0.5"/>
     </g>
     <g id="line2d_52">
      <g>
       <use xlink:href="#m69b29962c4" x="102.013868" y="404.407645" style="stroke: #000000; stroke-width: 0.8"/>
      </g>
     </g>
     <g id="text_14">
      <!-- 2018-07 -->
      <g transform="translate(81.122462 415.506082)scale(0.1 -0.1)">
       <defs>
        <path id="DejaVuSans-2d" d="M 313 2009 
L 1997 2009 
L 1997 1497 
L 313 1497 
L 313 2009 
z
" transform="scale(0.015625)"/>
        <path id="DejaVuSans-37" d="M 525 4666 
L 3525 4666 
L 3525 4397 
L 1831 0 
L 1172 0 
L 2766 4134 
L 525 4134 
L 525 4666 
z
" transform="scale(0.015625)"/>
       </defs>
       <use xlink:href="#DejaVuSans-32"/>
       <use xlink:href="#DejaVuSans-30" x="63.623047"/>
       <use xlink:href="#DejaVuSans-31" x="127.246094"/>
       <use xlink:href="#DejaVuSans-38" x="190.869141"/>
       <use xlink:href="#DejaVuSans-2d" x="254.492188"/>
       <use xlink:href="#DejaVuSans-30" x="290.576172"/>
       <use xlink:href="#DejaVuSans-37" x="354.199219"/>
      </g>
     </g>
    </g>
    <g id="xtick_16">
     <g id="line2d_53">
      <path d="M 173.853899 404.407645 
L 173.853899 282.042944 
" clip-path="url(#pb35700c3d2)" style="fill: none; stroke-dasharray: 1.85,0.8; stroke-dashoffset: 0; stroke: #b2b2b2; stroke-width: 0.5"/>
     </g>
     <g id="line2d_54">
      <g>
       <use xlink:href="#m69b29962c4" x="173.853899" y="404.407645" style="stroke: #000000; stroke-width: 0.8"/>
      </g>
     </g>
     <g id="text_15">
      <!-- 2019-01 -->
      <g transform="translate(152.962493 415.506082)scale(0.1 -0.1)">
       <defs>
        <path id="DejaVuSans-39" d="M 703 97 
L 703 672 
Q 941 559 1184 500 
Q 1428 441 1663 441 
Q 2288 441 2617 861 
Q 2947 1281 2994 2138 
Q 2813 1869 2534 1725 
Q 2256 1581 1919 1581 
Q 1219 1581 811 2004 
Q 403 2428 403 3163 
Q 403 3881 828 4315 
Q 1253 4750 1959 4750 
Q 2769 4750 3195 4129 
Q 3622 3509 3622 2328 
Q 3622 1225 3098 567 
Q 2575 -91 1691 -91 
Q 1453 -91 1209 -44 
Q 966 3 703 97 
z
M 1959 2075 
Q 2384 2075 2632 2365 
Q 2881 2656 2881 3163 
Q 2881 3666 2632 3958 
Q 2384 4250 1959 4250 
Q 1534 4250 1286 3958 
Q 1038 3666 1038 3163 
Q 1038 2656 1286 2365 
Q 1534 2075 1959 2075 
z
" transform="scale(0.015625)"/>
       </defs>
       <use xlink:href="#DejaVuSans-32"/>
       <use xlink:href="#DejaVuSans-30" x="63.623047"/>
       <use xlink:href="#DejaVuSans-31" x="127.246094"/>
       <use xlink:href="#DejaVuSans-39" x="190.869141"/>
       <use xlink:href="#DejaVuSans-2d" x="254.492188"/>
       <use xlink:href="#DejaVuSans-30" x="290.576172"/>
       <use xlink:href="#DejaVuSans-31" x="354.199219"/>
      </g>
     </g>
    </g>
    <g id="xtick_17">
     <g id="line2d_55">
      <path d="M 244.522626 404.407645 
L 244.522626 282.042944 
" clip-path="url(#pb35700c3d2)" style="fill: none; stroke-dasharray: 1.85,0.8; stroke-dashoffset: 0; stroke: #b2b2b2; stroke-width: 0.5"/>
     </g>
     <g id="line2d_56">
      <g>
       <use xlink:href="#m69b29962c4" x="244.522626" y="404.407645" style="stroke: #000000; stroke-width: 0.8"/>
      </g>
     </g>
     <g id="text_16">
      <!-- 2019-07 -->
      <g transform="translate(223.631219 415.506082)scale(0.1 -0.1)">
       <use xlink:href="#DejaVuSans-32"/>
       <use xlink:href="#DejaVuSans-30" x="63.623047"/>
       <use xlink:href="#DejaVuSans-31" x="127.246094"/>
       <use xlink:href="#DejaVuSans-39" x="190.869141"/>
       <use xlink:href="#DejaVuSans-2d" x="254.492188"/>
       <use xlink:href="#DejaVuSans-30" x="290.576172"/>
       <use xlink:href="#DejaVuSans-37" x="354.199219"/>
      </g>
     </g>
    </g>
    <g id="xtick_18">
     <g id="line2d_57">
      <path d="M 316.362657 404.407645 
L 316.362657 282.042944 
" clip-path="url(#pb35700c3d2)" style="fill: none; stroke-dasharray: 1.85,0.8; stroke-dashoffset: 0; stroke: #b2b2b2; stroke-width: 0.5"/>
     </g>
     <g id="line2d_58">
      <g>
       <use xlink:href="#m69b29962c4" x="316.362657" y="404.407645" style="stroke: #000000; stroke-width: 0.8"/>
      </g>
     </g>
     <g id="text_17">
      <!-- 2020-01 -->
      <g transform="translate(295.47125 415.506082)scale(0.1 -0.1)">
       <use xlink:href="#DejaVuSans-32"/>
       <use xlink:href="#DejaVuSans-30" x="63.623047"/>
       <use xlink:href="#DejaVuSans-32" x="127.246094"/>
       <use xlink:href="#DejaVuSans-30" x="190.869141"/>
       <use xlink:href="#DejaVuSans-2d" x="254.492188"/>
       <use xlink:href="#DejaVuSans-30" x="290.576172"/>
       <use xlink:href="#DejaVuSans-31" x="354.199219"/>
      </g>
     </g>
    </g>
    <g id="xtick_19">
     <g id="line2d_59">
      <path d="M 387.421818 404.407645 
L 387.421818 282.042944 
" clip-path="url(#pb35700c3d2)" style="fill: none; stroke-dasharray: 1.85,0.8; stroke-dashoffset: 0; stroke: #b2b2b2; stroke-width: 0.5"/>
     </g>
     <g id="line2d_60">
      <g>
       <use xlink:href="#m69b29962c4" x="387.421818" y="404.407645" style="stroke: #000000; stroke-width: 0.8"/>
      </g>
     </g>
     <g id="text_18">
      <!-- 2020-07 -->
      <g transform="translate(366.530412 415.506082)scale(0.1 -0.1)">
       <use xlink:href="#DejaVuSans-32"/>
       <use xlink:href="#DejaVuSans-30" x="63.623047"/>
       <use xlink:href="#DejaVuSans-32" x="127.246094"/>
       <use xlink:href="#DejaVuSans-30" x="190.869141"/>
       <use xlink:href="#DejaVuSans-2d" x="254.492188"/>
       <use xlink:href="#DejaVuSans-30" x="290.576172"/>
       <use xlink:href="#DejaVuSans-37" x="354.199219"/>
      </g>
     </g>
    </g>
    <g id="xtick_20">
     <g id="line2d_61">
      <path d="M 459.261849 404.407645 
L 459.261849 282.042944 
" clip-path="url(#pb35700c3d2)" style="fill: none; stroke-dasharray: 1.85,0.8; stroke-dashoffset: 0; stroke: #b2b2b2; stroke-width: 0.5"/>
     </g>
     <g id="line2d_62">
      <g>
       <use xlink:href="#m69b29962c4" x="459.261849" y="404.407645" style="stroke: #000000; stroke-width: 0.8"/>
      </g>
     </g>
     <g id="text_19">
      <!-- 2021-01 -->
      <g transform="translate(438.370443 415.506082)scale(0.1 -0.1)">
       <use xlink:href="#DejaVuSans-32"/>
       <use xlink:href="#DejaVuSans-30" x="63.623047"/>
       <use xlink:href="#DejaVuSans-32" x="127.246094"/>
       <use xlink:href="#DejaVuSans-31" x="190.869141"/>
       <use xlink:href="#DejaVuSans-2d" x="254.492188"/>
       <use xlink:href="#DejaVuSans-30" x="290.576172"/>
       <use xlink:href="#DejaVuSans-31" x="354.199219"/>
      </g>
     </g>
    </g>
    <g id="xtick_21">
     <g id="line2d_63">
      <path d="M 529.930575 404.407645 
L 529.930575 282.042944 
" clip-path="url(#pb35700c3d2)" style="fill: none; stroke-dasharray: 1.85,0.8; stroke-dashoffset: 0; stroke: #b2b2b2; stroke-width: 0.5"/>
     </g>
     <g id="line2d_64">
      <g>
       <use xlink:href="#m69b29962c4" x="529.930575" y="404.407645" style="stroke: #000000; stroke-width: 0.8"/>
      </g>
     </g>
     <g id="text_20">
      <!-- 2021-07 -->
      <g transform="translate(509.039169 415.506082)scale(0.1 -0.1)">
       <use xlink:href="#DejaVuSans-32"/>
       <use xlink:href="#DejaVuSans-30" x="63.623047"/>
       <use xlink:href="#DejaVuSans-32" x="127.246094"/>
       <use xlink:href="#DejaVuSans-31" x="190.869141"/>
       <use xlink:href="#DejaVuSans-2d" x="254.492188"/>
       <use xlink:href="#DejaVuSans-30" x="290.576172"/>
       <use xlink:href="#DejaVuSans-37" x="354.199219"/>
      </g>
     </g>
    </g>
    <g id="text_21">
     <!-- date -->
     <g transform="translate(296.585698 430.703895)scale(0.12 -0.12)">
      <defs>
       <path id="DejaVuSans-65" d="M 3597 1894 
L 3597 1613 
L 953 1613 
Q 991 1019 1311 708 
Q 1631 397 2203 397 
Q 2534 397 2845 478 
Q 3156 559 3463 722 
L 3463 178 
Q 3153 47 2828 -22 
Q 2503 -91 2169 -91 
Q 1331 -91 842 396 
Q 353 884 353 1716 
Q 353 2575 817 3079 
Q 1281 3584 2069 3584 
Q 2775 3584 3186 3129 
Q 3597 2675 3597 1894 
z
M 3022 2063 
Q 3016 2534 2758 2815 
Q 2500 3097 2075 3097 
Q 1594 3097 1305 2825 
Q 1016 2553 972 2059 
L 3022 2063 
z
" transform="scale(0.015625)"/>
      </defs>
      <use xlink:href="#DejaVuSans-64"/>
      <use xlink:href="#DejaVuSans-61" x="63.476562"/>
      <use xlink:href="#DejaVuSans-74" x="124.755859"/>
      <use xlink:href="#DejaVuSans-65" x="163.964844"/>
     </g>
    </g>
   </g>
   <g id="matplotlib.axis_6">
    <g id="ytick_10">
     <g id="line2d_65">
      <path d="M 42.550625 380.495685 
L 577.68077 380.495685 
" clip-path="url(#pb35700c3d2)" style="fill: none; stroke-dasharray: 1.85,0.8; stroke-dashoffset: 0; stroke: #b2b2b2; stroke-width: 0.5"/>
     </g>
     <g id="line2d_66">
      <g>
       <use xlink:href="#maa20c56d18" x="42.550625" y="380.495685" style="stroke: #000000; stroke-width: 0.8"/>
      </g>
     </g>
     <g id="text_22">
      <!-- 0.2 -->
      <g transform="translate(23.1475 384.294903)scale(0.1 -0.1)">
       <defs>
        <path id="DejaVuSans-2e" d="M 684 794 
L 1344 794 
L 1344 0 
L 684 0 
L 684 794 
z
" transform="scale(0.015625)"/>
       </defs>
       <use xlink:href="#DejaVuSans-30"/>
       <use xlink:href="#DejaVuSans-2e" x="63.623047"/>
       <use xlink:href="#DejaVuSans-32" x="95.410156"/>
      </g>
     </g>
    </g>
    <g id="ytick_11">
     <g id="line2d_67">
      <path d="M 42.550625 352.240889 
L 577.68077 352.240889 
" clip-path="url(#pb35700c3d2)" style="fill: none; stroke-dasharray: 1.85,0.8; stroke-dashoffset: 0; stroke: #b2b2b2; stroke-width: 0.5"/>
     </g>
     <g id="line2d_68">
      <g>
       <use xlink:href="#maa20c56d18" x="42.550625" y="352.240889" style="stroke: #000000; stroke-width: 0.8"/>
      </g>
     </g>
     <g id="text_23">
      <!-- 0.4 -->
      <g transform="translate(23.1475 356.040107)scale(0.1 -0.1)">
       <use xlink:href="#DejaVuSans-30"/>
       <use xlink:href="#DejaVuSans-2e" x="63.623047"/>
       <use xlink:href="#DejaVuSans-34" x="95.410156"/>
      </g>
     </g>
    </g>
    <g id="ytick_12">
     <g id="line2d_69">
      <path d="M 42.550625 323.986093 
L 577.68077 323.986093 
" clip-path="url(#pb35700c3d2)" style="fill: none; stroke-dasharray: 1.85,0.8; stroke-dashoffset: 0; stroke: #b2b2b2; stroke-width: 0.5"/>
     </g>
     <g id="line2d_70">
      <g>
       <use xlink:href="#maa20c56d18" x="42.550625" y="323.986093" style="stroke: #000000; stroke-width: 0.8"/>
      </g>
     </g>
     <g id="text_24">
      <!-- 0.6 -->
      <g transform="translate(23.1475 327.785312)scale(0.1 -0.1)">
       <use xlink:href="#DejaVuSans-30"/>
       <use xlink:href="#DejaVuSans-2e" x="63.623047"/>
       <use xlink:href="#DejaVuSans-36" x="95.410156"/>
      </g>
     </g>
    </g>
    <g id="ytick_13">
     <g id="line2d_71">
      <path d="M 42.550625 295.731297 
L 577.68077 295.731297 
" clip-path="url(#pb35700c3d2)" style="fill: none; stroke-dasharray: 1.85,0.8; stroke-dashoffset: 0; stroke: #b2b2b2; stroke-width: 0.5"/>
     </g>
     <g id="line2d_72">
      <g>
       <use xlink:href="#maa20c56d18" x="42.550625" y="295.731297" style="stroke: #000000; stroke-width: 0.8"/>
      </g>
     </g>
     <g id="text_25">
      <!-- 0.8 -->
      <g transform="translate(23.1475 299.530516)scale(0.1 -0.1)">
       <use xlink:href="#DejaVuSans-30"/>
       <use xlink:href="#DejaVuSans-2e" x="63.623047"/>
       <use xlink:href="#DejaVuSans-38" x="95.410156"/>
      </g>
     </g>
    </g>
    <g id="text_26">
     <!-- z_adstock_saturated -->
     <g transform="translate(16.318125 404.736544)rotate(-90)scale(0.12 -0.12)">
      <defs>
       <path id="DejaVuSans-75" d="M 544 1381 
L 544 3500 
L 1119 3500 
L 1119 1403 
Q 1119 906 1312 657 
Q 1506 409 1894 409 
Q 2359 409 2629 706 
Q 2900 1003 2900 1516 
L 2900 3500 
L 3475 3500 
L 3475 0 
L 2900 0 
L 2900 538 
Q 2691 219 2414 64 
Q 2138 -91 1772 -91 
Q 1169 -91 856 284 
Q 544 659 544 1381 
z
M 1991 3584 
L 1991 3584 
z
" transform="scale(0.015625)"/>
       <path id="DejaVuSans-72" d="M 2631 2963 
Q 2534 3019 2420 3045 
Q 2306 3072 2169 3072 
Q 1681 3072 1420 2755 
Q 1159 2438 1159 1844 
L 1159 0 
L 581 0 
L 581 3500 
L 1159 3500 
L 1159 2956 
Q 1341 3275 1631 3429 
Q 1922 3584 2338 3584 
Q 2397 3584 2469 3576 
Q 2541 3569 2628 3553 
L 2631 2963 
z
" transform="scale(0.015625)"/>
      </defs>
      <use xlink:href="#DejaVuSans-7a"/>
      <use xlink:href="#DejaVuSans-5f" x="52.490234"/>
      <use xlink:href="#DejaVuSans-61" x="102.490234"/>
      <use xlink:href="#DejaVuSans-64" x="163.769531"/>
      <use xlink:href="#DejaVuSans-73" x="227.246094"/>
      <use xlink:href="#DejaVuSans-74" x="279.345703"/>
      <use xlink:href="#DejaVuSans-6f" x="318.554688"/>
      <use xlink:href="#DejaVuSans-63" x="379.736328"/>
      <use xlink:href="#DejaVuSans-6b" x="434.716797"/>
      <use xlink:href="#DejaVuSans-5f" x="492.626953"/>
      <use xlink:href="#DejaVuSans-73" x="542.626953"/>
      <use xlink:href="#DejaVuSans-61" x="594.726562"/>
      <use xlink:href="#DejaVuSans-74" x="656.005859"/>
      <use xlink:href="#DejaVuSans-75" x="695.214844"/>
      <use xlink:href="#DejaVuSans-72" x="758.59375"/>
      <use xlink:href="#DejaVuSans-61" x="799.707031"/>
      <use xlink:href="#DejaVuSans-74" x="860.986328"/>
      <use xlink:href="#DejaVuSans-65" x="900.195312"/>
      <use xlink:href="#DejaVuSans-64" x="961.71875"/>
     </g>
    </g>
   </g>
   <g id="line2d_73">
    <path d="M 66.874722 398.845613 
L 69.607767 319.176661 
L 72.340812 305.995351 
L 75.073856 306.837414 
L 77.806901 345.197739 
L 80.539946 371.309005 
L 83.27299 388.180647 
L 86.006035 321.339182 
L 88.73908 313.974782 
L 91.472124 305.064096 
L 94.205169 346.563232 
L 96.938214 303.373204 
L 99.671258 295.350379 
L 102.404303 333.614743 
L 105.137348 363.711835 
L 107.870392 380.943054 
L 110.603437 386.784517 
L 113.336482 346.623252 
L 116.069526 336.99432 
L 118.802571 363.192825 
L 121.535616 330.303733 
L 124.26866 362.610386 
L 127.001705 377.585672 
L 129.73475 383.502323 
L 132.467794 351.226206 
L 135.200839 314.546816 
L 137.933884 350.322199 
L 140.666928 332.315157 
L 143.399973 319.26434 
L 146.133018 357.243426 
L 148.866062 328.306249 
L 151.599107 360.567521 
L 154.332152 382.263472 
L 157.065196 314.42638 
L 159.798241 294.297028 
L 162.531286 292.301483 
L 165.26433 328.748841 
L 167.997375 362.588647 
L 170.73042 324.931056 
L 173.463464 325.978003 
L 176.196509 360.170719 
L 178.929554 337.974634 
L 181.662598 369.981055 
L 184.395643 313.165383 
L 187.128688 347.999885 
L 189.861732 321.015239 
L 192.594777 352.483259 
L 195.327822 332.808295 
L 198.060866 322.444758 
L 200.793911 356.3062 
L 203.526956 306.067649 
L 206.26 298.729218 
L 208.993045 289.890762 
L 211.72609 287.604975 
L 214.459134 296.152971 
L 217.192179 289.454003 
L 219.925224 329.447121 
L 222.658268 360.726081 
L 225.391313 382.843794 
L 228.124358 387.213956 
L 230.857402 387.7724 
L 233.590447 391.089648 
L 236.323492 324.798495 
L 239.056536 354.006896 
L 241.789581 373.231076 
L 244.522626 339.605375 
L 247.25567 368.375826 
L 249.988715 319.149817 
L 252.72176 356.505394 
L 255.454804 305.256854 
L 258.187849 298.504758 
L 260.920894 336.944562 
L 263.653938 370.036939 
L 266.386983 318.835932 
L 269.120028 307.139302 
L 271.853072 301.169933 
L 274.586117 296.779626 
L 277.319162 337.728145 
L 280.052206 362.022784 
L 282.785251 381.76115 
L 285.518296 319.525227 
L 288.25134 311.915183 
L 290.984385 345.531851 
L 293.71743 373.793315 
L 296.450474 382.956429 
L 299.183519 387.282143 
L 301.916564 330.532174 
L 304.649608 315.745671 
L 307.382653 297.745915 
L 310.115698 308.651444 
L 312.848742 347.469517 
L 315.581787 317.586924 
L 318.314831 303.981475 
L 321.047876 307.703787 
L 323.780921 299.579814 
L 326.513965 308.675605 
L 329.24701 312.314918 
L 331.980055 320.070638 
L 334.713099 358.314746 
L 337.446144 379.9393 
L 340.179189 393.391413 
L 342.912233 339.984959 
L 345.645278 364.408588 
L 348.378323 338.7076 
L 351.111367 304.085614 
L 353.844412 340.955099 
L 356.577457 336.040784 
L 359.310501 311.038859 
L 362.043546 347.032065 
L 364.776591 374.344647 
L 367.509635 383.78466 
L 370.24268 391.945208 
L 372.975725 318.430405 
L 375.708769 302.088203 
L 378.441814 303.147041 
L 381.174859 293.831139 
L 383.907903 292.249791 
L 386.640948 330.836306 
L 389.373993 302.385151 
L 392.107037 307.958391 
L 394.840082 298.155864 
L 397.573127 291.046062 
L 400.306171 327.154782 
L 403.039216 361.225345 
L 405.772261 378.487644 
L 408.505305 351.610228 
L 411.23835 312.777791 
L 413.971395 297.792889 
L 416.704439 340.09012 
L 419.437484 328.13474 
L 422.170529 329.221769 
L 424.903573 359.967095 
L 427.636618 380.543278 
L 430.369663 385.741724 
L 433.102707 315.787859 
L 435.835752 348.537452 
L 438.568797 331.214295 
L 441.301841 312.198055 
L 444.034886 345.05311 
L 446.767931 302.880072 
L 449.500975 290.650279 
L 452.23402 327.900156 
L 454.967065 323.519476 
L 457.700109 354.402124 
L 460.433154 373.329683 
L 463.166199 389.794414 
L 465.899243 340.77458 
L 468.632288 329.017706 
L 471.365333 363.856048 
L 474.098377 378.605845 
L 476.831422 315.771544 
L 479.564467 350.370907 
L 482.297511 374.582376 
L 485.030556 344.530977 
L 487.763601 302.095354 
L 490.496645 339.365601 
L 493.22969 317.121062 
L 495.962735 303.752076 
L 498.695779 340.90804 
L 501.428824 314.333962 
L 504.161869 346.524043 
L 506.894913 322.422718 
L 509.627958 312.594811 
L 512.361003 313.614455 
L 515.094047 352.032568 
L 517.827092 311.931636 
L 520.560137 345.763229 
L 523.293181 370.887908 
L 526.026226 388.424647 
L 528.759271 341.758841 
L 531.492315 317.694078 
L 534.22536 356.783905 
L 536.958405 335.218352 
L 539.691449 363.642633 
L 542.424494 328.065114 
L 545.157539 360.330428 
L 547.890583 323.656961 
L 550.623628 352.584397 
L 553.356673 306.676243 
L 553.356673 306.676243 
" clip-path="url(#pb35700c3d2)" style="fill: none; stroke: #7a68a6; stroke-width: 2; stroke-linecap: square"/>
   </g>
   <g id="patch_15">
    <path d="M 42.550625 404.407645 
L 42.550625 282.042944 
" style="fill: none; stroke: #bcbcbc; stroke-width: 0.8; stroke-linejoin: miter; stroke-linecap: square"/>
   </g>
   <g id="patch_16">
    <path d="M 577.68077 404.407645 
L 577.68077 282.042944 
" style="fill: none; stroke: #bcbcbc; stroke-width: 0.8; stroke-linejoin: miter; stroke-linecap: square"/>
   </g>
   <g id="patch_17">
    <path d="M 42.550625 404.407645 
L 577.68077 404.407645 
" style="fill: none; stroke: #bcbcbc; stroke-width: 0.8; stroke-linejoin: miter; stroke-linecap: square"/>
   </g>
   <g id="patch_18">
    <path d="M 42.550625 282.042944 
L 577.68077 282.042944 
" style="fill: none; stroke: #bcbcbc; stroke-width: 0.8; stroke-linejoin: miter; stroke-linecap: square"/>
   </g>
   <g id="legend_3">
    <g id="patch_19">
     <path d="M 584.68077 352.203419 
L 719.19952 352.203419 
Q 721.19952 352.203419 721.19952 350.203419 
L 721.19952 336.247169 
Q 721.19952 334.247169 719.19952 334.247169 
L 584.68077 334.247169 
Q 582.68077 334.247169 582.68077 336.247169 
L 582.68077 350.203419 
Q 582.68077 352.203419 584.68077 352.203419 
z
" style="fill: #eeeeee; opacity: 0.8; stroke: #cccccc; stroke-width: 0.5; stroke-linejoin: miter"/>
    </g>
    <g id="line2d_74">
     <path d="M 586.68077 342.345607 
L 596.68077 342.345607 
L 606.68077 342.345607 
" style="fill: none; stroke: #7a68a6; stroke-width: 2; stroke-linecap: square"/>
    </g>
    <g id="text_27">
     <!-- z_adstock_saturated -->
     <g transform="translate(614.68077 345.845607)scale(0.1 -0.1)">
      <use xlink:href="#DejaVuSans-7a"/>
      <use xlink:href="#DejaVuSans-5f" x="52.490234"/>
      <use xlink:href="#DejaVuSans-61" x="102.490234"/>
      <use xlink:href="#DejaVuSans-64" x="163.769531"/>
      <use xlink:href="#DejaVuSans-73" x="227.246094"/>
      <use xlink:href="#DejaVuSans-74" x="279.345703"/>
      <use xlink:href="#DejaVuSans-6f" x="318.554688"/>
      <use xlink:href="#DejaVuSans-63" x="379.736328"/>
      <use xlink:href="#DejaVuSans-6b" x="434.716797"/>
      <use xlink:href="#DejaVuSans-5f" x="492.626953"/>
      <use xlink:href="#DejaVuSans-73" x="542.626953"/>
      <use xlink:href="#DejaVuSans-61" x="594.726562"/>
      <use xlink:href="#DejaVuSans-74" x="656.005859"/>
      <use xlink:href="#DejaVuSans-75" x="695.214844"/>
      <use xlink:href="#DejaVuSans-72" x="758.59375"/>
      <use xlink:href="#DejaVuSans-61" x="799.707031"/>
      <use xlink:href="#DejaVuSans-74" x="860.986328"/>
      <use xlink:href="#DejaVuSans-65" x="900.195312"/>
      <use xlink:href="#DejaVuSans-64" x="961.71875"/>
     </g>
    </g>
   </g>
  </g>
  <g id="text_28">
   <!-- Media Cost Feature Transformations -->
   <g transform="translate(256.315073 16.318125)scale(0.12 -0.12)">
    <defs>
     <path id="DejaVuSans-4d" d="M 628 4666 
L 1569 4666 
L 2759 1491 
L 3956 4666 
L 4897 4666 
L 4897 0 
L 4281 0 
L 4281 4097 
L 3078 897 
L 2444 897 
L 1241 4097 
L 1241 0 
L 628 0 
L 628 4666 
z
" transform="scale(0.015625)"/>
     <path id="DejaVuSans-69" d="M 603 3500 
L 1178 3500 
L 1178 0 
L 603 0 
L 603 3500 
z
M 603 4863 
L 1178 4863 
L 1178 4134 
L 603 4134 
L 603 4863 
z
" transform="scale(0.015625)"/>
     <path id="DejaVuSans-20" transform="scale(0.015625)"/>
     <path id="DejaVuSans-43" d="M 4122 4306 
L 4122 3641 
Q 3803 3938 3442 4084 
Q 3081 4231 2675 4231 
Q 1875 4231 1450 3742 
Q 1025 3253 1025 2328 
Q 1025 1406 1450 917 
Q 1875 428 2675 428 
Q 3081 428 3442 575 
Q 3803 722 4122 1019 
L 4122 359 
Q 3791 134 3420 21 
Q 3050 -91 2638 -91 
Q 1578 -91 968 557 
Q 359 1206 359 2328 
Q 359 3453 968 4101 
Q 1578 4750 2638 4750 
Q 3056 4750 3426 4639 
Q 3797 4528 4122 4306 
z
" transform="scale(0.015625)"/>
     <path id="DejaVuSans-46" d="M 628 4666 
L 3309 4666 
L 3309 4134 
L 1259 4134 
L 1259 2759 
L 3109 2759 
L 3109 2228 
L 1259 2228 
L 1259 0 
L 628 0 
L 628 4666 
z
" transform="scale(0.015625)"/>
     <path id="DejaVuSans-54" d="M -19 4666 
L 3928 4666 
L 3928 4134 
L 2272 4134 
L 2272 0 
L 1638 0 
L 1638 4134 
L -19 4134 
L -19 4666 
z
" transform="scale(0.015625)"/>
     <path id="DejaVuSans-6e" d="M 3513 2113 
L 3513 0 
L 2938 0 
L 2938 2094 
Q 2938 2591 2744 2837 
Q 2550 3084 2163 3084 
Q 1697 3084 1428 2787 
Q 1159 2491 1159 1978 
L 1159 0 
L 581 0 
L 581 3500 
L 1159 3500 
L 1159 2956 
Q 1366 3272 1645 3428 
Q 1925 3584 2291 3584 
Q 2894 3584 3203 3211 
Q 3513 2838 3513 2113 
z
" transform="scale(0.015625)"/>
     <path id="DejaVuSans-66" d="M 2375 4863 
L 2375 4384 
L 1825 4384 
Q 1516 4384 1395 4259 
Q 1275 4134 1275 3809 
L 1275 3500 
L 2222 3500 
L 2222 3053 
L 1275 3053 
L 1275 0 
L 697 0 
L 697 3053 
L 147 3053 
L 147 3500 
L 697 3500 
L 697 3744 
Q 697 4328 969 4595 
Q 1241 4863 1831 4863 
L 2375 4863 
z
" transform="scale(0.015625)"/>
     <path id="DejaVuSans-6d" d="M 3328 2828 
Q 3544 3216 3844 3400 
Q 4144 3584 4550 3584 
Q 5097 3584 5394 3201 
Q 5691 2819 5691 2113 
L 5691 0 
L 5113 0 
L 5113 2094 
Q 5113 2597 4934 2840 
Q 4756 3084 4391 3084 
Q 3944 3084 3684 2787 
Q 3425 2491 3425 1978 
L 3425 0 
L 2847 0 
L 2847 2094 
Q 2847 2600 2669 2842 
Q 2491 3084 2119 3084 
Q 1678 3084 1418 2786 
Q 1159 2488 1159 1978 
L 1159 0 
L 581 0 
L 581 3500 
L 1159 3500 
L 1159 2956 
Q 1356 3278 1631 3431 
Q 1906 3584 2284 3584 
Q 2666 3584 2933 3390 
Q 3200 3197 3328 2828 
z
" transform="scale(0.015625)"/>
    </defs>
    <use xlink:href="#DejaVuSans-4d"/>
    <use xlink:href="#DejaVuSans-65" x="86.279297"/>
    <use xlink:href="#DejaVuSans-64" x="147.802734"/>
    <use xlink:href="#DejaVuSans-69" x="211.279297"/>
    <use xlink:href="#DejaVuSans-61" x="239.0625"/>
    <use xlink:href="#DejaVuSans-20" x="300.341797"/>
    <use xlink:href="#DejaVuSans-43" x="332.128906"/>
    <use xlink:href="#DejaVuSans-6f" x="401.953125"/>
    <use xlink:href="#DejaVuSans-73" x="463.134766"/>
    <use xlink:href="#DejaVuSans-74" x="515.234375"/>
    <use xlink:href="#DejaVuSans-20" x="554.443359"/>
    <use xlink:href="#DejaVuSans-46" x="586.230469"/>
    <use xlink:href="#DejaVuSans-65" x="638.25"/>
    <use xlink:href="#DejaVuSans-61" x="699.773438"/>
    <use xlink:href="#DejaVuSans-74" x="761.052734"/>
    <use xlink:href="#DejaVuSans-75" x="800.261719"/>
    <use xlink:href="#DejaVuSans-72" x="863.640625"/>
    <use xlink:href="#DejaVuSans-65" x="902.503906"/>
    <use xlink:href="#DejaVuSans-20" x="964.027344"/>
    <use xlink:href="#DejaVuSans-54" x="995.814453"/>
    <use xlink:href="#DejaVuSans-72" x="1042.148438"/>
    <use xlink:href="#DejaVuSans-61" x="1083.261719"/>
    <use xlink:href="#DejaVuSans-6e" x="1144.541016"/>
    <use xlink:href="#DejaVuSans-73" x="1207.919922"/>
    <use xlink:href="#DejaVuSans-66" x="1260.019531"/>
    <use xlink:href="#DejaVuSans-6f" x="1295.224609"/>
    <use xlink:href="#DejaVuSans-72" x="1356.40625"/>
    <use xlink:href="#DejaVuSans-6d" x="1395.769531"/>
    <use xlink:href="#DejaVuSans-61" x="1493.181641"/>
    <use xlink:href="#DejaVuSans-74" x="1554.460938"/>
    <use xlink:href="#DejaVuSans-69" x="1593.669922"/>
    <use xlink:href="#DejaVuSans-6f" x="1621.453125"/>
    <use xlink:href="#DejaVuSans-6e" x="1682.634766"/>
    <use xlink:href="#DejaVuSans-73" x="1746.013672"/>
   </g>
  </g>
 </g>
 <defs>
  <clipPath id="pcdb6c50b53">
   <rect x="42.550625" y="24.81423" width="535.130145" height="122.364701"/>
  </clipPath>
  <clipPath id="p2f4ea281b1">
   <rect x="42.550625" y="153.677762" width="535.130145" height="122.364701"/>
  </clipPath>
  <clipPath id="pb35700c3d2">
   <rect x="42.550625" y="282.042944" width="535.130145" height="122.364701"/>
  </clipPath>
 </defs>
</svg>
