<?xml version="1.0" encoding="utf-8" standalone="no"?>
<!DOCTYPE svg PUBLIC "-//W3C//DTD SVG 1.1//EN"
  "http://www.w3.org/Graphics/SVG/1.1/DTD/svg11.dtd">
<svg xmlns:xlink="http://www.w3.org/1999/xlink" width="709.83762pt" height="439.993625pt" viewBox="0 0 709.83762 439.993625" xmlns="http://www.w3.org/2000/svg" version="1.1">
 <metadata>
  <rdf:RDF xmlns:dc="http://purl.org/dc/elements/1.1/" xmlns:cc="http://creativecommons.org/ns#" xmlns:rdf="http://www.w3.org/1999/02/22-rdf-syntax-ns#">
   <cc:Work>
    <dc:type rdf:resource="http://purl.org/dc/dcmitype/StillImage"/>
    <dc:date>2022-02-03T13:28:30.947866</dc:date>
    <dc:format>image/svg+xml</dc:format>
    <dc:creator>
     <cc:Agent>
      <dc:title>Matplotlib v3.5.1, https://matplotlib.org/</dc:title>
     </cc:Agent>
    </dc:creator>
   </cc:Work>
  </rdf:RDF>
 </metadata>
 <defs>
  <style type="text/css">*{stroke-linejoin: round; stroke-linecap: butt}</style>
 </defs>
 <g id="figure_1">
  <g id="patch_1">
   <path d="M 0 439.993625 
L 709.83762 439.993625 
L 709.83762 0 
L 0 0 
L 0 439.993625 
z
" style="fill: none"/>
  </g>
  <g id="axes_1">
   <g id="patch_2">
    <path d="M 48.579375 404.00175 
L 696.06014 404.00175 
L 696.06014 24.14175 
L 48.579375 24.14175 
z
" style="fill: #eeeeee"/>
   </g>
   <g id="PolyCollection_1">
    <defs>
     <path id="ma468a1c6a5" d="M 78.010319 -142.059547 
L 78.010319 -114.057239 
L 81.317167 -173.496891 
L 84.624014 -196.991796 
L 87.930862 -201.983785 
L 91.237709 -168.179042 
L 94.544557 -148.292161 
L 97.851405 -137.783731 
L 101.158252 -180.512527 
L 104.4651 -188.052596 
L 107.771948 -192.794894 
L 111.078795 -146.463879 
L 114.385643 -167.058454 
L 117.69249 -166.596083 
L 120.999338 -119.907595 
L 124.306186 -90.511936 
L 127.613033 -67.339205 
L 130.919881 -55.619936 
L 134.226729 -78.803749 
L 137.533576 -93.301501 
L 140.840424 -83.687215 
L 144.147271 -107.312016 
L 147.454119 -86.817524 
L 150.760967 -82.865413 
L 154.067814 -91.991617 
L 157.374662 -128.236906 
L 160.68151 -173.924131 
L 163.988357 -167.297044 
L 167.295205 -196.220684 
L 170.602052 -227.883711 
L 173.9089 -217.919264 
L 177.215748 -248.737714 
L 180.522595 -237.138576 
L 183.829443 -230.848622 
L 187.136291 -279.300313 
L 190.443138 -302.895247 
L 193.749986 -303.156139 
L 197.056833 -258.809102 
L 200.363681 -232.488863 
L 203.670529 -254.383436 
L 206.977376 -247.69659 
L 210.284224 -213.308332 
L 213.591072 -211.077442 
L 216.897919 -177.973148 
L 220.204767 -207.841824 
L 223.511614 -179.746078 
L 226.818462 -198.54496 
L 230.12531 -174.395 
L 233.432157 -183.686928 
L 236.739005 -189.671024 
L 240.045853 -168.486005 
L 243.3527 -209.664954 
L 246.659548 -221.457489 
L 249.966395 -241.592964 
L 253.273243 -255.618353 
L 256.580091 -253.769429 
L 259.886938 -270.155474 
L 263.193786 -226.294507 
L 266.500634 -199.363205 
L 269.807481 -184.867072 
L 273.114329 -184.668289 
L 276.421176 -185.109223 
L 279.728024 -179.461195 
L 283.034872 -208.557796 
L 286.341719 -175.407652 
L 289.648567 -150.945121 
L 292.955415 -162.398636 
L 296.262262 -133.088478 
L 299.56911 -153.625414 
L 302.875958 -117.973565 
L 306.182805 -155.60164 
L 309.489653 -169.193218 
L 312.7965 -140.863473 
L 316.103348 -123.58589 
L 319.410196 -157.394629 
L 322.717043 -170.156981 
L 326.023891 -188.76324 
L 329.330739 -212.392365 
L 332.637586 -195.221357 
L 335.944434 -198.298684 
L 339.251281 -206.25546 
L 342.558129 -261.574566 
L 345.864977 -286.436196 
L 349.171824 -273.571036 
L 352.478672 -266.338252 
L 355.78552 -267.249397 
L 359.092367 -269.831088 
L 362.399215 -306.175488 
L 365.706062 -314.098454 
L 369.01291 -326.794956 
L 372.319758 -308.84192 
L 375.626605 -274.57588 
L 378.933453 -290.762271 
L 382.240301 -294.942956 
L 385.547148 -274.088839 
L 388.853996 -268.335972 
L 392.160843 -246.506964 
L 395.467691 -241.772757 
L 398.774539 -233.254677 
L 402.081386 -204.764628 
L 405.388234 -189.593787 
L 408.695082 -180.792637 
L 412.001929 -211.788503 
L 415.308777 -199.951347 
L 418.615624 -218.96932 
L 421.922472 -252.652932 
L 425.22932 -233.460107 
L 428.536167 -246.420146 
L 431.843015 -275.027534 
L 435.149863 -246.717948 
L 438.45671 -225.836725 
L 441.763558 -216.989607 
L 445.070405 -213.496747 
L 448.377253 -260.497791 
L 451.684101 -273.50863 
L 454.990948 -262.413838 
L 458.297796 -259.28779 
L 461.604644 -249.377808 
L 464.911491 -200.614138 
L 468.218339 -215.478991 
L 471.525186 -194.780117 
L 474.832034 -196.408349 
L 478.138882 -202.867626 
L 481.445729 -171.170242 
L 484.752577 -156.848287 
L 488.059425 -149.98638 
L 491.366272 -163.37775 
L 494.67312 -195.370741 
L 497.979968 -220.949865 
L 501.286815 -198.388894 
L 504.593663 -228.462007 
L 507.90051 -245.370304 
L 511.207358 -244.44553 
L 514.514206 -250.167432 
L 517.821053 -265.855291 
L 521.127901 -324.587388 
L 524.434749 -309.381014 
L 527.741596 -327.322709 
L 531.048444 -349.710502 
L 534.355291 -325.830741 
L 537.662139 -359.546077 
L 540.968987 -369.415975 
L 544.275834 -323.672956 
L 547.582682 -322.539907 
L 550.88953 -297.272248 
L 554.196377 -277.349657 
L 557.503225 -253.740692 
L 560.810072 -264.782921 
L 564.11692 -262.831572 
L 567.423768 -236.372609 
L 570.730615 -226.860993 
L 574.037463 -266.989472 
L 577.344311 -237.588314 
L 580.651158 -221.805689 
L 583.958006 -238.293596 
L 587.264853 -276.030201 
L 590.571701 -247.411593 
L 593.878549 -268.419489 
L 597.185396 -290.988043 
L 600.492244 -272.230024 
L 603.799092 -301.809822 
L 607.105939 -278.678856 
L 610.412787 -290.890719 
L 613.719634 -294.183241 
L 617.026482 -292.701743 
L 620.33333 -267.90782 
L 623.640177 -295.560605 
L 626.947025 -260.120598 
L 630.253873 -231.366317 
L 633.56072 -209.678307 
L 636.867568 -224.799239 
L 640.174415 -233.023911 
L 643.481263 -193.235948 
L 646.788111 -195.434683 
L 650.094958 -171.201466 
L 653.401806 -199.487657 
L 656.708654 -186.132615 
L 660.015501 -215.060794 
L 663.322349 -194.477137 
L 666.629196 -231.187819 
L 666.629196 -259.110924 
L 666.629196 -259.110924 
L 663.322349 -223.820429 
L 660.015501 -242.48092 
L 656.708654 -214.321406 
L 653.401806 -227.594464 
L 650.094958 -201.064928 
L 646.788111 -224.134076 
L 643.481263 -221.739138 
L 640.174415 -261.381691 
L 636.867568 -253.661601 
L 633.56072 -238.033434 
L 630.253873 -260.268841 
L 626.947025 -289.245502 
L 623.640177 -324.723638 
L 620.33333 -295.38171 
L 617.026482 -321.734136 
L 613.719634 -322.163406 
L 610.412787 -319.070797 
L 607.105939 -307.543613 
L 603.799092 -330.130652 
L 600.492244 -300.309146 
L 597.185396 -319.733462 
L 593.878549 -297.955464 
L 590.571701 -276.248062 
L 587.264853 -304.41686 
L 583.958006 -268.117541 
L 580.651158 -249.792969 
L 577.344311 -266.251766 
L 574.037463 -294.310795 
L 570.730615 -256.01594 
L 567.423768 -265.813683 
L 564.11692 -290.045355 
L 560.810072 -295.059315 
L 557.503225 -283.021975 
L 554.196377 -306.598635 
L 550.88953 -325.191346 
L 547.582682 -351.544341 
L 544.275834 -353.04346 
L 540.968987 -398.585511 
L 537.662139 -387.775482 
L 534.355291 -354.929564 
L 531.048444 -377.203494 
L 527.741596 -356.902381 
L 524.434749 -338.221051 
L 521.127901 -353.08893 
L 517.821053 -293.625537 
L 514.514206 -278.801029 
L 511.207358 -271.930397 
L 507.90051 -275.438721 
L 504.593663 -256.015185 
L 501.286815 -228.411531 
L 497.979968 -249.033064 
L 494.67312 -222.806165 
L 491.366272 -191.080489 
L 488.059425 -177.507421 
L 484.752577 -183.775992 
L 481.445729 -198.749364 
L 478.138882 -232.630601 
L 474.832034 -225.289603 
L 471.525186 -225.069391 
L 468.218339 -243.543427 
L 464.911491 -228.721251 
L 461.604644 -277.90406 
L 458.297796 -288.193114 
L 454.990948 -291.158315 
L 451.684101 -301.944798 
L 448.377253 -289.285804 
L 445.070405 -243.255284 
L 441.763558 -245.84395 
L 438.45671 -254.942952 
L 435.149863 -276.25504 
L 431.843015 -303.422396 
L 428.536167 -276.494213 
L 425.22932 -260.217987 
L 421.922472 -280.842718 
L 418.615624 -247.190059 
L 415.308777 -227.676291 
L 412.001929 -241.149587 
L 408.695082 -210.378996 
L 405.388234 -218.947167 
L 402.081386 -233.941344 
L 398.774539 -261.739423 
L 395.467691 -270.454597 
L 392.160843 -276.211309 
L 388.853996 -296.993461 
L 385.547148 -303.864305 
L 382.240301 -323.325619 
L 378.933453 -320.043479 
L 375.626605 -302.760905 
L 372.319758 -337.786679 
L 369.01291 -355.128882 
L 365.706062 -342.777481 
L 362.399215 -333.650194 
L 359.092367 -298.179426 
L 355.78552 -295.930783 
L 352.478672 -296.047796 
L 349.171824 -302.876793 
L 345.864977 -315.063871 
L 342.558129 -292.0106 
L 339.251281 -232.869337 
L 335.944434 -225.840435 
L 332.637586 -222.577275 
L 329.330739 -240.421366 
L 326.023891 -217.410403 
L 322.717043 -197.937106 
L 319.410196 -185.983935 
L 316.103348 -152.412665 
L 312.7965 -169.75384 
L 309.489653 -198.486767 
L 306.182805 -182.955206 
L 302.875958 -146.226233 
L 299.56911 -182.26666 
L 296.262262 -162.522199 
L 292.955415 -189.772113 
L 289.648567 -180.375552 
L 286.341719 -203.617 
L 283.034872 -237.600392 
L 279.728024 -208.882022 
L 276.421176 -215.54387 
L 273.114329 -213.468506 
L 269.807481 -213.990271 
L 266.500634 -228.112831 
L 263.193786 -254.331517 
L 259.886938 -299.07693 
L 256.580091 -282.046653 
L 253.273243 -283.610767 
L 249.966395 -269.469315 
L 246.659548 -250.611024 
L 243.3527 -238.120822 
L 240.045853 -198.276166 
L 236.739005 -217.839525 
L 233.432157 -213.511371 
L 230.12531 -204.01977 
L 226.818462 -227.462782 
L 223.511614 -207.789916 
L 220.204767 -235.75837 
L 216.897919 -206.666973 
L 213.591072 -240.280915 
L 210.284224 -242.717211 
L 206.977376 -275.41236 
L 203.670529 -281.832327 
L 200.363681 -262.235041 
L 197.056833 -288.498182 
L 193.749986 -332.001368 
L 190.443138 -332.388552 
L 187.136291 -307.779647 
L 183.829443 -259.124787 
L 180.522595 -264.927549 
L 177.215748 -278.18781 
L 173.9089 -245.799929 
L 170.602052 -255.79408 
L 167.295205 -227.144416 
L 163.988357 -195.647147 
L 160.68151 -202.701264 
L 157.374662 -156.330288 
L 154.067814 -120.728888 
L 150.760967 -110.804447 
L 147.454119 -114.076314 
L 144.147271 -134.530711 
L 140.840424 -112.002034 
L 137.533576 -122.04484 
L 134.226729 -107.824693 
L 130.919881 -85.334136 
L 127.613033 -95.377698 
L 124.306186 -118.106534 
L 120.999338 -148.598781 
L 117.69249 -194.042477 
L 114.385643 -195.485084 
L 111.078795 -174.010067 
L 107.771948 -220.531252 
L 104.4651 -217.004422 
L 101.158252 -208.596867 
L 97.851405 -166.492 
L 94.544557 -176.726645 
L 91.237709 -196.221566 
L 87.930862 -230.207509 
L 84.624014 -225.672461 
L 81.317167 -201.763784 
L 78.010319 -142.059547 
z
" style="stroke: #0072b2; stroke-opacity: 0.2; stroke-width: 0.5"/>
    </defs>
    <g clip-path="url(#p68ba2460c3)">
     <use xlink:href="#ma468a1c6a5" x="0" y="439.993625" style="fill: #0072b2; fill-opacity: 0.2; stroke: #0072b2; stroke-opacity: 0.2; stroke-width: 0.5"/>
    </g>
   </g>
   <g id="matplotlib.axis_1">
    <g id="xtick_1">
     <g id="line2d_1">
      <path d="M 77.537912 404.00175 
L 77.537912 24.14175 
" clip-path="url(#p68ba2460c3)" style="fill: none; stroke: #808080; stroke-opacity: 0.2; stroke-linecap: square"/>
     </g>
     <g id="line2d_2">
      <defs>
       <path id="med9e60ddfc" d="M 0 0 
L 0 -3.5 
" style="stroke: #000000; stroke-width: 0.8"/>
      </defs>
      <g>
       <use xlink:href="#med9e60ddfc" x="77.537912" y="404.00175" style="stroke: #000000; stroke-width: 0.8"/>
      </g>
     </g>
     <g id="text_1">
      <!-- 2018-04 -->
      <g transform="translate(56.646506 415.100187)scale(0.1 -0.1)">
       <defs>
        <path id="DejaVuSans-32" d="M 1228 531 
L 3431 531 
L 3431 0 
L 469 0 
L 469 531 
Q 828 903 1448 1529 
Q 2069 2156 2228 2338 
Q 2531 2678 2651 2914 
Q 2772 3150 2772 3378 
Q 2772 3750 2511 3984 
Q 2250 4219 1831 4219 
Q 1534 4219 1204 4116 
Q 875 4013 500 3803 
L 500 4441 
Q 881 4594 1212 4672 
Q 1544 4750 1819 4750 
Q 2544 4750 2975 4387 
Q 3406 4025 3406 3419 
Q 3406 3131 3298 2873 
Q 3191 2616 2906 2266 
Q 2828 2175 2409 1742 
Q 1991 1309 1228 531 
z
" transform="scale(0.015625)"/>
        <path id="DejaVuSans-30" d="M 2034 4250 
Q 1547 4250 1301 3770 
Q 1056 3291 1056 2328 
Q 1056 1369 1301 889 
Q 1547 409 2034 409 
Q 2525 409 2770 889 
Q 3016 1369 3016 2328 
Q 3016 3291 2770 3770 
Q 2525 4250 2034 4250 
z
M 2034 4750 
Q 2819 4750 3233 4129 
Q 3647 3509 3647 2328 
Q 3647 1150 3233 529 
Q 2819 -91 2034 -91 
Q 1250 -91 836 529 
Q 422 1150 422 2328 
Q 422 3509 836 4129 
Q 1250 4750 2034 4750 
z
" transform="scale(0.015625)"/>
        <path id="DejaVuSans-31" d="M 794 531 
L 1825 531 
L 1825 4091 
L 703 3866 
L 703 4441 
L 1819 4666 
L 2450 4666 
L 2450 531 
L 3481 531 
L 3481 0 
L 794 0 
L 794 531 
z
" transform="scale(0.015625)"/>
        <path id="DejaVuSans-38" d="M 2034 2216 
Q 1584 2216 1326 1975 
Q 1069 1734 1069 1313 
Q 1069 891 1326 650 
Q 1584 409 2034 409 
Q 2484 409 2743 651 
Q 3003 894 3003 1313 
Q 3003 1734 2745 1975 
Q 2488 2216 2034 2216 
z
M 1403 2484 
Q 997 2584 770 2862 
Q 544 3141 544 3541 
Q 544 4100 942 4425 
Q 1341 4750 2034 4750 
Q 2731 4750 3128 4425 
Q 3525 4100 3525 3541 
Q 3525 3141 3298 2862 
Q 3072 2584 2669 2484 
Q 3125 2378 3379 2068 
Q 3634 1759 3634 1313 
Q 3634 634 3220 271 
Q 2806 -91 2034 -91 
Q 1263 -91 848 271 
Q 434 634 434 1313 
Q 434 1759 690 2068 
Q 947 2378 1403 2484 
z
M 1172 3481 
Q 1172 3119 1398 2916 
Q 1625 2713 2034 2713 
Q 2441 2713 2670 2916 
Q 2900 3119 2900 3481 
Q 2900 3844 2670 4047 
Q 2441 4250 2034 4250 
Q 1625 4250 1398 4047 
Q 1172 3844 1172 3481 
z
" transform="scale(0.015625)"/>
        <path id="DejaVuSans-2d" d="M 313 2009 
L 1997 2009 
L 1997 1497 
L 313 1497 
L 313 2009 
z
" transform="scale(0.015625)"/>
        <path id="DejaVuSans-34" d="M 2419 4116 
L 825 1625 
L 2419 1625 
L 2419 4116 
z
M 2253 4666 
L 3047 4666 
L 3047 1625 
L 3713 1625 
L 3713 1100 
L 3047 1100 
L 3047 0 
L 2419 0 
L 2419 1100 
L 313 1100 
L 313 1709 
L 2253 4666 
z
" transform="scale(0.015625)"/>
       </defs>
       <use xlink:href="#DejaVuSans-32"/>
       <use xlink:href="#DejaVuSans-30" x="63.623047"/>
       <use xlink:href="#DejaVuSans-31" x="127.246094"/>
       <use xlink:href="#DejaVuSans-38" x="190.869141"/>
       <use xlink:href="#DejaVuSans-2d" x="254.492188"/>
       <use xlink:href="#DejaVuSans-30" x="290.576172"/>
       <use xlink:href="#DejaVuSans-34" x="354.199219"/>
      </g>
     </g>
    </g>
    <g id="xtick_2">
     <g id="line2d_3">
      <path d="M 163.988357 404.00175 
L 163.988357 24.14175 
" clip-path="url(#p68ba2460c3)" style="fill: none; stroke: #808080; stroke-opacity: 0.2; stroke-linecap: square"/>
     </g>
     <g id="line2d_4">
      <g>
       <use xlink:href="#med9e60ddfc" x="163.988357" y="404.00175" style="stroke: #000000; stroke-width: 0.8"/>
      </g>
     </g>
     <g id="text_2">
      <!-- 2018-10 -->
      <g transform="translate(143.096951 415.100187)scale(0.1 -0.1)">
       <use xlink:href="#DejaVuSans-32"/>
       <use xlink:href="#DejaVuSans-30" x="63.623047"/>
       <use xlink:href="#DejaVuSans-31" x="127.246094"/>
       <use xlink:href="#DejaVuSans-38" x="190.869141"/>
       <use xlink:href="#DejaVuSans-2d" x="254.492188"/>
       <use xlink:href="#DejaVuSans-31" x="290.576172"/>
       <use xlink:href="#DejaVuSans-30" x="354.199219"/>
      </g>
     </g>
    </g>
    <g id="xtick_3">
     <g id="line2d_5">
      <path d="M 249.966395 404.00175 
L 249.966395 24.14175 
" clip-path="url(#p68ba2460c3)" style="fill: none; stroke: #808080; stroke-opacity: 0.2; stroke-linecap: square"/>
     </g>
     <g id="line2d_6">
      <g>
       <use xlink:href="#med9e60ddfc" x="249.966395" y="404.00175" style="stroke: #000000; stroke-width: 0.8"/>
      </g>
     </g>
     <g id="text_3">
      <!-- 2019-04 -->
      <g transform="translate(229.074989 415.100187)scale(0.1 -0.1)">
       <defs>
        <path id="DejaVuSans-39" d="M 703 97 
L 703 672 
Q 941 559 1184 500 
Q 1428 441 1663 441 
Q 2288 441 2617 861 
Q 2947 1281 2994 2138 
Q 2813 1869 2534 1725 
Q 2256 1581 1919 1581 
Q 1219 1581 811 2004 
Q 403 2428 403 3163 
Q 403 3881 828 4315 
Q 1253 4750 1959 4750 
Q 2769 4750 3195 4129 
Q 3622 3509 3622 2328 
Q 3622 1225 3098 567 
Q 2575 -91 1691 -91 
Q 1453 -91 1209 -44 
Q 966 3 703 97 
z
M 1959 2075 
Q 2384 2075 2632 2365 
Q 2881 2656 2881 3163 
Q 2881 3666 2632 3958 
Q 2384 4250 1959 4250 
Q 1534 4250 1286 3958 
Q 1038 3666 1038 3163 
Q 1038 2656 1286 2365 
Q 1534 2075 1959 2075 
z
" transform="scale(0.015625)"/>
       </defs>
       <use xlink:href="#DejaVuSans-32"/>
       <use xlink:href="#DejaVuSans-30" x="63.623047"/>
       <use xlink:href="#DejaVuSans-31" x="127.246094"/>
       <use xlink:href="#DejaVuSans-39" x="190.869141"/>
       <use xlink:href="#DejaVuSans-2d" x="254.492188"/>
       <use xlink:href="#DejaVuSans-30" x="290.576172"/>
       <use xlink:href="#DejaVuSans-34" x="354.199219"/>
      </g>
     </g>
    </g>
    <g id="xtick_4">
     <g id="line2d_7">
      <path d="M 336.416841 404.00175 
L 336.416841 24.14175 
" clip-path="url(#p68ba2460c3)" style="fill: none; stroke: #808080; stroke-opacity: 0.2; stroke-linecap: square"/>
     </g>
     <g id="line2d_8">
      <g>
       <use xlink:href="#med9e60ddfc" x="336.416841" y="404.00175" style="stroke: #000000; stroke-width: 0.8"/>
      </g>
     </g>
     <g id="text_4">
      <!-- 2019-10 -->
      <g transform="translate(315.525434 415.100187)scale(0.1 -0.1)">
       <use xlink:href="#DejaVuSans-32"/>
       <use xlink:href="#DejaVuSans-30" x="63.623047"/>
       <use xlink:href="#DejaVuSans-31" x="127.246094"/>
       <use xlink:href="#DejaVuSans-39" x="190.869141"/>
       <use xlink:href="#DejaVuSans-2d" x="254.492188"/>
       <use xlink:href="#DejaVuSans-31" x="290.576172"/>
       <use xlink:href="#DejaVuSans-30" x="354.199219"/>
      </g>
     </g>
    </g>
    <g id="xtick_5">
     <g id="line2d_9">
      <path d="M 422.867286 404.00175 
L 422.867286 24.14175 
" clip-path="url(#p68ba2460c3)" style="fill: none; stroke: #808080; stroke-opacity: 0.2; stroke-linecap: square"/>
     </g>
     <g id="line2d_10">
      <g>
       <use xlink:href="#med9e60ddfc" x="422.867286" y="404.00175" style="stroke: #000000; stroke-width: 0.8"/>
      </g>
     </g>
     <g id="text_5">
      <!-- 2020-04 -->
      <g transform="translate(401.975879 415.100187)scale(0.1 -0.1)">
       <use xlink:href="#DejaVuSans-32"/>
       <use xlink:href="#DejaVuSans-30" x="63.623047"/>
       <use xlink:href="#DejaVuSans-32" x="127.246094"/>
       <use xlink:href="#DejaVuSans-30" x="190.869141"/>
       <use xlink:href="#DejaVuSans-2d" x="254.492188"/>
       <use xlink:href="#DejaVuSans-30" x="290.576172"/>
       <use xlink:href="#DejaVuSans-34" x="354.199219"/>
      </g>
     </g>
    </g>
    <g id="xtick_6">
     <g id="line2d_11">
      <path d="M 509.317731 404.00175 
L 509.317731 24.14175 
" clip-path="url(#p68ba2460c3)" style="fill: none; stroke: #808080; stroke-opacity: 0.2; stroke-linecap: square"/>
     </g>
     <g id="line2d_12">
      <g>
       <use xlink:href="#med9e60ddfc" x="509.317731" y="404.00175" style="stroke: #000000; stroke-width: 0.8"/>
      </g>
     </g>
     <g id="text_6">
      <!-- 2020-10 -->
      <g transform="translate(488.426325 415.100187)scale(0.1 -0.1)">
       <use xlink:href="#DejaVuSans-32"/>
       <use xlink:href="#DejaVuSans-30" x="63.623047"/>
       <use xlink:href="#DejaVuSans-32" x="127.246094"/>
       <use xlink:href="#DejaVuSans-30" x="190.869141"/>
       <use xlink:href="#DejaVuSans-2d" x="254.492188"/>
       <use xlink:href="#DejaVuSans-31" x="290.576172"/>
       <use xlink:href="#DejaVuSans-30" x="354.199219"/>
      </g>
     </g>
    </g>
    <g id="xtick_7">
     <g id="line2d_13">
      <path d="M 595.295769 404.00175 
L 595.295769 24.14175 
" clip-path="url(#p68ba2460c3)" style="fill: none; stroke: #808080; stroke-opacity: 0.2; stroke-linecap: square"/>
     </g>
     <g id="line2d_14">
      <g>
       <use xlink:href="#med9e60ddfc" x="595.295769" y="404.00175" style="stroke: #000000; stroke-width: 0.8"/>
      </g>
     </g>
     <g id="text_7">
      <!-- 2021-04 -->
      <g transform="translate(574.404363 415.100187)scale(0.1 -0.1)">
       <use xlink:href="#DejaVuSans-32"/>
       <use xlink:href="#DejaVuSans-30" x="63.623047"/>
       <use xlink:href="#DejaVuSans-32" x="127.246094"/>
       <use xlink:href="#DejaVuSans-31" x="190.869141"/>
       <use xlink:href="#DejaVuSans-2d" x="254.492188"/>
       <use xlink:href="#DejaVuSans-30" x="290.576172"/>
       <use xlink:href="#DejaVuSans-34" x="354.199219"/>
      </g>
     </g>
    </g>
    <g id="xtick_8">
     <g id="line2d_15">
      <path d="M 681.746214 404.00175 
L 681.746214 24.14175 
" clip-path="url(#p68ba2460c3)" style="fill: none; stroke: #808080; stroke-opacity: 0.2; stroke-linecap: square"/>
     </g>
     <g id="line2d_16">
      <g>
       <use xlink:href="#med9e60ddfc" x="681.746214" y="404.00175" style="stroke: #000000; stroke-width: 0.8"/>
      </g>
     </g>
     <g id="text_8">
      <!-- 2021-10 -->
      <g transform="translate(660.854808 415.100187)scale(0.1 -0.1)">
       <use xlink:href="#DejaVuSans-32"/>
       <use xlink:href="#DejaVuSans-30" x="63.623047"/>
       <use xlink:href="#DejaVuSans-32" x="127.246094"/>
       <use xlink:href="#DejaVuSans-31" x="190.869141"/>
       <use xlink:href="#DejaVuSans-2d" x="254.492188"/>
       <use xlink:href="#DejaVuSans-31" x="290.576172"/>
       <use xlink:href="#DejaVuSans-30" x="354.199219"/>
      </g>
     </g>
    </g>
    <g id="text_9">
     <!-- ds -->
     <g transform="translate(365.38507 430.298)scale(0.12 -0.12)">
      <defs>
       <path id="DejaVuSans-64" d="M 2906 2969 
L 2906 4863 
L 3481 4863 
L 3481 0 
L 2906 0 
L 2906 525 
Q 2725 213 2448 61 
Q 2172 -91 1784 -91 
Q 1150 -91 751 415 
Q 353 922 353 1747 
Q 353 2572 751 3078 
Q 1150 3584 1784 3584 
Q 2172 3584 2448 3432 
Q 2725 3281 2906 2969 
z
M 947 1747 
Q 947 1113 1208 752 
Q 1469 391 1925 391 
Q 2381 391 2643 752 
Q 2906 1113 2906 1747 
Q 2906 2381 2643 2742 
Q 2381 3103 1925 3103 
Q 1469 3103 1208 2742 
Q 947 2381 947 1747 
z
" transform="scale(0.015625)"/>
       <path id="DejaVuSans-73" d="M 2834 3397 
L 2834 2853 
Q 2591 2978 2328 3040 
Q 2066 3103 1784 3103 
Q 1356 3103 1142 2972 
Q 928 2841 928 2578 
Q 928 2378 1081 2264 
Q 1234 2150 1697 2047 
L 1894 2003 
Q 2506 1872 2764 1633 
Q 3022 1394 3022 966 
Q 3022 478 2636 193 
Q 2250 -91 1575 -91 
Q 1294 -91 989 -36 
Q 684 19 347 128 
L 347 722 
Q 666 556 975 473 
Q 1284 391 1588 391 
Q 1994 391 2212 530 
Q 2431 669 2431 922 
Q 2431 1156 2273 1281 
Q 2116 1406 1581 1522 
L 1381 1569 
Q 847 1681 609 1914 
Q 372 2147 372 2553 
Q 372 3047 722 3315 
Q 1072 3584 1716 3584 
Q 2034 3584 2315 3537 
Q 2597 3491 2834 3397 
z
" transform="scale(0.015625)"/>
      </defs>
      <use xlink:href="#DejaVuSans-64"/>
      <use xlink:href="#DejaVuSans-73" x="63.476562"/>
     </g>
    </g>
   </g>
   <g id="matplotlib.axis_2">
    <g id="ytick_1">
     <g id="line2d_17">
      <path d="M 48.579375 368.470608 
L 696.06014 368.470608 
" clip-path="url(#p68ba2460c3)" style="fill: none; stroke: #808080; stroke-opacity: 0.2; stroke-linecap: square"/>
     </g>
     <g id="line2d_18">
      <defs>
       <path id="ma07eb3edcd" d="M 0 0 
L 3.5 0 
" style="stroke: #000000; stroke-width: 0.8"/>
      </defs>
      <g>
       <use xlink:href="#ma07eb3edcd" x="48.579375" y="368.470608" style="stroke: #000000; stroke-width: 0.8"/>
      </g>
     </g>
     <g id="text_10">
      <!-- 3.75 -->
      <g transform="translate(22.81375 372.269827)scale(0.1 -0.1)">
       <defs>
        <path id="DejaVuSans-33" d="M 2597 2516 
Q 3050 2419 3304 2112 
Q 3559 1806 3559 1356 
Q 3559 666 3084 287 
Q 2609 -91 1734 -91 
Q 1441 -91 1130 -33 
Q 819 25 488 141 
L 488 750 
Q 750 597 1062 519 
Q 1375 441 1716 441 
Q 2309 441 2620 675 
Q 2931 909 2931 1356 
Q 2931 1769 2642 2001 
Q 2353 2234 1838 2234 
L 1294 2234 
L 1294 2753 
L 1863 2753 
Q 2328 2753 2575 2939 
Q 2822 3125 2822 3475 
Q 2822 3834 2567 4026 
Q 2313 4219 1838 4219 
Q 1578 4219 1281 4162 
Q 984 4106 628 3988 
L 628 4550 
Q 988 4650 1302 4700 
Q 1616 4750 1894 4750 
Q 2613 4750 3031 4423 
Q 3450 4097 3450 3541 
Q 3450 3153 3228 2886 
Q 3006 2619 2597 2516 
z
" transform="scale(0.015625)"/>
        <path id="DejaVuSans-2e" d="M 684 794 
L 1344 794 
L 1344 0 
L 684 0 
L 684 794 
z
" transform="scale(0.015625)"/>
        <path id="DejaVuSans-37" d="M 525 4666 
L 3525 4666 
L 3525 4397 
L 1831 0 
L 1172 0 
L 2766 4134 
L 525 4134 
L 525 4666 
z
" transform="scale(0.015625)"/>
        <path id="DejaVuSans-35" d="M 691 4666 
L 3169 4666 
L 3169 4134 
L 1269 4134 
L 1269 2991 
Q 1406 3038 1543 3061 
Q 1681 3084 1819 3084 
Q 2600 3084 3056 2656 
Q 3513 2228 3513 1497 
Q 3513 744 3044 326 
Q 2575 -91 1722 -91 
Q 1428 -91 1123 -41 
Q 819 9 494 109 
L 494 744 
Q 775 591 1075 516 
Q 1375 441 1709 441 
Q 2250 441 2565 725 
Q 2881 1009 2881 1497 
Q 2881 1984 2565 2268 
Q 2250 2553 1709 2553 
Q 1456 2553 1204 2497 
Q 953 2441 691 2322 
L 691 4666 
z
" transform="scale(0.015625)"/>
       </defs>
       <use xlink:href="#DejaVuSans-33"/>
       <use xlink:href="#DejaVuSans-2e" x="63.623047"/>
       <use xlink:href="#DejaVuSans-37" x="95.410156"/>
       <use xlink:href="#DejaVuSans-35" x="159.033203"/>
      </g>
     </g>
    </g>
    <g id="ytick_2">
     <g id="line2d_19">
      <path d="M 48.579375 322.758295 
L 696.06014 322.758295 
" clip-path="url(#p68ba2460c3)" style="fill: none; stroke: #808080; stroke-opacity: 0.2; stroke-linecap: square"/>
     </g>
     <g id="line2d_20">
      <g>
       <use xlink:href="#ma07eb3edcd" x="48.579375" y="322.758295" style="stroke: #000000; stroke-width: 0.8"/>
      </g>
     </g>
     <g id="text_11">
      <!-- 4.00 -->
      <g transform="translate(22.81375 326.557514)scale(0.1 -0.1)">
       <use xlink:href="#DejaVuSans-34"/>
       <use xlink:href="#DejaVuSans-2e" x="63.623047"/>
       <use xlink:href="#DejaVuSans-30" x="95.410156"/>
       <use xlink:href="#DejaVuSans-30" x="159.033203"/>
      </g>
     </g>
    </g>
    <g id="ytick_3">
     <g id="line2d_21">
      <path d="M 48.579375 277.045982 
L 696.06014 277.045982 
" clip-path="url(#p68ba2460c3)" style="fill: none; stroke: #808080; stroke-opacity: 0.2; stroke-linecap: square"/>
     </g>
     <g id="line2d_22">
      <g>
       <use xlink:href="#ma07eb3edcd" x="48.579375" y="277.045982" style="stroke: #000000; stroke-width: 0.8"/>
      </g>
     </g>
     <g id="text_12">
      <!-- 4.25 -->
      <g transform="translate(22.81375 280.845201)scale(0.1 -0.1)">
       <use xlink:href="#DejaVuSans-34"/>
       <use xlink:href="#DejaVuSans-2e" x="63.623047"/>
       <use xlink:href="#DejaVuSans-32" x="95.410156"/>
       <use xlink:href="#DejaVuSans-35" x="159.033203"/>
      </g>
     </g>
    </g>
    <g id="ytick_4">
     <g id="line2d_23">
      <path d="M 48.579375 231.333668 
L 696.06014 231.333668 
" clip-path="url(#p68ba2460c3)" style="fill: none; stroke: #808080; stroke-opacity: 0.2; stroke-linecap: square"/>
     </g>
     <g id="line2d_24">
      <g>
       <use xlink:href="#ma07eb3edcd" x="48.579375" y="231.333668" style="stroke: #000000; stroke-width: 0.8"/>
      </g>
     </g>
     <g id="text_13">
      <!-- 4.50 -->
      <g transform="translate(22.81375 235.132887)scale(0.1 -0.1)">
       <use xlink:href="#DejaVuSans-34"/>
       <use xlink:href="#DejaVuSans-2e" x="63.623047"/>
       <use xlink:href="#DejaVuSans-35" x="95.410156"/>
       <use xlink:href="#DejaVuSans-30" x="159.033203"/>
      </g>
     </g>
    </g>
    <g id="ytick_5">
     <g id="line2d_25">
      <path d="M 48.579375 185.621355 
L 696.06014 185.621355 
" clip-path="url(#p68ba2460c3)" style="fill: none; stroke: #808080; stroke-opacity: 0.2; stroke-linecap: square"/>
     </g>
     <g id="line2d_26">
      <g>
       <use xlink:href="#ma07eb3edcd" x="48.579375" y="185.621355" style="stroke: #000000; stroke-width: 0.8"/>
      </g>
     </g>
     <g id="text_14">
      <!-- 4.75 -->
      <g transform="translate(22.81375 189.420574)scale(0.1 -0.1)">
       <use xlink:href="#DejaVuSans-34"/>
       <use xlink:href="#DejaVuSans-2e" x="63.623047"/>
       <use xlink:href="#DejaVuSans-37" x="95.410156"/>
       <use xlink:href="#DejaVuSans-35" x="159.033203"/>
      </g>
     </g>
    </g>
    <g id="ytick_6">
     <g id="line2d_27">
      <path d="M 48.579375 139.909042 
L 696.06014 139.909042 
" clip-path="url(#p68ba2460c3)" style="fill: none; stroke: #808080; stroke-opacity: 0.2; stroke-linecap: square"/>
     </g>
     <g id="line2d_28">
      <g>
       <use xlink:href="#ma07eb3edcd" x="48.579375" y="139.909042" style="stroke: #000000; stroke-width: 0.8"/>
      </g>
     </g>
     <g id="text_15">
      <!-- 5.00 -->
      <g transform="translate(22.81375 143.70826)scale(0.1 -0.1)">
       <use xlink:href="#DejaVuSans-35"/>
       <use xlink:href="#DejaVuSans-2e" x="63.623047"/>
       <use xlink:href="#DejaVuSans-30" x="95.410156"/>
       <use xlink:href="#DejaVuSans-30" x="159.033203"/>
      </g>
     </g>
    </g>
    <g id="ytick_7">
     <g id="line2d_29">
      <path d="M 48.579375 94.196728 
L 696.06014 94.196728 
" clip-path="url(#p68ba2460c3)" style="fill: none; stroke: #808080; stroke-opacity: 0.2; stroke-linecap: square"/>
     </g>
     <g id="line2d_30">
      <g>
       <use xlink:href="#ma07eb3edcd" x="48.579375" y="94.196728" style="stroke: #000000; stroke-width: 0.8"/>
      </g>
     </g>
     <g id="text_16">
      <!-- 5.25 -->
      <g transform="translate(22.81375 97.995947)scale(0.1 -0.1)">
       <use xlink:href="#DejaVuSans-35"/>
       <use xlink:href="#DejaVuSans-2e" x="63.623047"/>
       <use xlink:href="#DejaVuSans-32" x="95.410156"/>
       <use xlink:href="#DejaVuSans-35" x="159.033203"/>
      </g>
     </g>
    </g>
    <g id="ytick_8">
     <g id="line2d_31">
      <path d="M 48.579375 48.484415 
L 696.06014 48.484415 
" clip-path="url(#p68ba2460c3)" style="fill: none; stroke: #808080; stroke-opacity: 0.2; stroke-linecap: square"/>
     </g>
     <g id="line2d_32">
      <g>
       <use xlink:href="#ma07eb3edcd" x="48.579375" y="48.484415" style="stroke: #000000; stroke-width: 0.8"/>
      </g>
     </g>
     <g id="text_17">
      <!-- 5.50 -->
      <g transform="translate(22.81375 52.283634)scale(0.1 -0.1)">
       <use xlink:href="#DejaVuSans-35"/>
       <use xlink:href="#DejaVuSans-2e" x="63.623047"/>
       <use xlink:href="#DejaVuSans-35" x="95.410156"/>
       <use xlink:href="#DejaVuSans-30" x="159.033203"/>
      </g>
     </g>
    </g>
    <g id="text_18">
     <!-- y -->
     <g transform="translate(16.318125 217.623)rotate(-90)scale(0.12 -0.12)">
      <defs>
       <path id="DejaVuSans-79" d="M 2059 -325 
Q 1816 -950 1584 -1140 
Q 1353 -1331 966 -1331 
L 506 -1331 
L 506 -850 
L 844 -850 
Q 1081 -850 1212 -737 
Q 1344 -625 1503 -206 
L 1606 56 
L 191 3500 
L 800 3500 
L 1894 763 
L 2988 3500 
L 3597 3500 
L 2059 -325 
z
" transform="scale(0.015625)"/>
      </defs>
      <use xlink:href="#DejaVuSans-79"/>
     </g>
    </g>
   </g>
   <g id="line2d_33">
    <path d="M 78.010319 347.264197 
L 81.317167 241.154289 
L 84.624014 214.201771 
L 87.930862 205.760252 
L 91.237709 260.330507 
L 94.544557 290.929721 
L 97.851405 301.366106 
L 101.158252 227.499327 
L 104.4651 231.020726 
L 107.771948 221.734614 
L 111.078795 285.206664 
L 114.385643 244.54514 
L 117.69249 241.659367 
L 120.999338 308.889895 
L 124.306186 351.37662 
L 127.613033 371.575893 
L 130.919881 386.735386 
L 134.226729 337.895898 
L 137.533576 336.140728 
L 140.840424 365.852372 
L 144.147271 307.46271 
L 147.454119 344.547703 
L 150.760967 347.443273 
L 154.067814 349.623624 
L 157.374662 295.079664 
L 160.68151 236.639101 
L 163.988357 264.123727 
L 167.295205 218.626772 
L 170.602052 195.57275 
L 173.9089 216.021606 
L 177.215748 176.400974 
L 180.522595 180.496907 
L 183.829443 205.898376 
L 187.136291 143.080654 
L 190.443138 109.588763 
L 193.749986 123.467888 
L 197.056833 151.90748 
L 200.363681 204.861384 
L 203.670529 174.213484 
L 206.977376 174.217132 
L 210.284224 212.452388 
L 213.591072 206.989282 
L 216.897919 247.3098 
L 220.204767 207.313129 
L 223.511614 253.666767 
L 226.818462 230.082018 
L 230.12531 258.503558 
L 233.432157 231.45958 
L 236.739005 226.967517 
L 240.045853 268.281404 
L 243.3527 206.311977 
L 246.659548 200.300155 
L 249.966395 189.457709 
L 253.273243 171.929182 
L 256.580091 170.264949 
L 259.886938 161.334303 
L 263.193786 204.014961 
L 266.500634 223.33481 
L 269.807481 236.293546 
L 273.114329 237.334614 
L 276.421176 254.166587 
L 279.728024 261.195695 
L 283.034872 226.795249 
L 286.341719 259.520994 
L 289.648567 268.086943 
L 292.955415 249.102596 
L 296.262262 291.917885 
L 299.56911 255.739618 
L 302.875958 295.18537 
L 306.182805 271.249297 
L 309.489653 260.178227 
L 312.7965 276.739654 
L 316.103348 309.167452 
L 319.410196 252.44564 
L 322.717043 269.977517 
L 326.023891 224.047943 
L 329.330739 212.86614 
L 332.637586 228.10956 
L 335.944434 224.185511 
L 339.251281 238.402748 
L 342.558129 164.892201 
L 345.864977 139.694607 
L 349.171824 138.652723 
L 352.478672 163.85137 
L 355.78552 164.13693 
L 359.092367 158.925423 
L 362.399215 107.741151 
L 365.706062 104.752407 
L 369.01291 105.204865 
L 372.319758 109.042524 
L 375.626605 145.435519 
L 378.933453 128.646517 
L 382.240301 147.181477 
L 385.547148 156.83385 
L 388.853996 162.862062 
L 392.160843 187.722549 
L 395.467691 181.124283 
L 398.774539 191.92191 
L 402.081386 220.649484 
L 405.388234 237.035672 
L 408.695082 255.438083 
L 412.001929 212.291076 
L 415.308777 221.482671 
L 418.615624 205.931353 
L 421.922472 174.151091 
L 425.22932 183.514508 
L 428.536167 160.577451 
L 431.843015 158.896771 
L 435.149863 174.90219 
L 438.45671 191.811596 
L 441.763558 215.978828 
L 445.070405 204.172537 
L 448.377253 168.43785 
L 451.684101 142.371992 
L 454.990948 178.610987 
L 458.297796 178.651931 
L 461.604644 192.017974 
L 464.911491 234.784206 
L 468.218339 206.415571 
L 471.525186 222.537314 
L 474.832034 224.551377 
L 478.138882 243.945163 
L 481.445729 240.682514 
L 484.752577 286.957941 
L 488.059425 271.011139 
L 491.366272 233.784881 
L 494.67312 238.760132 
L 497.979968 214.798428 
L 501.286815 214.231026 
L 504.593663 199.051573 
L 507.90051 194.20072 
L 511.207358 174.519717 
L 514.514206 180.162772 
L 517.821053 150.444074 
L 521.127901 118.995864 
L 524.434749 96.100094 
L 527.741596 105.313698 
L 531.048444 85.96731 
L 534.355291 86.269603 
L 537.662139 90.456958 
L 540.968987 72.222658 
L 544.275834 83.22265 
L 547.582682 122.380626 
L 550.88953 125.686035 
L 554.196377 143.000007 
L 560.810072 166.906459 
L 564.11692 172.338684 
L 567.423768 174.549953 
L 570.730615 189.915781 
L 574.037463 167.532489 
L 577.344311 183.548749 
L 580.651158 205.970205 
L 583.958006 180.458622 
L 587.264853 158.137332 
L 590.571701 180.948667 
L 593.878549 135.267089 
L 597.185396 140.318386 
L 600.492244 170.04108 
L 603.799092 132.06677 
L 607.105939 161.413398 
L 610.412787 128.440293 
L 613.719634 120.089615 
L 617.026482 146.919104 
L 620.33333 145.085684 
L 623.640177 142.263793 
L 626.947025 158.987583 
L 630.253873 165.260054 
L 633.56072 209.091629 
L 636.867568 207.911986 
L 640.174415 210.791374 
L 643.481263 234.652668 
L 646.788111 225.084974 
L 650.094958 236.628123 
L 653.401806 227.171977 
L 656.708654 232.911594 
L 660.015501 226.750552 
L 663.322349 213.555591 
L 666.629196 209.627716 
L 666.629196 209.627716 
" clip-path="url(#p68ba2460c3)" style="fill: none; stroke: #000000; stroke-width: 2; stroke-linecap: square"/>
   </g>
   <g id="line2d_34">
    <defs>
     <path id="m35b0813e10" d="M 0 1.5 
C 0.397805 1.5 0.77937 1.341951 1.06066 1.06066 
C 1.341951 0.77937 1.5 0.397805 1.5 0 
C 1.5 -0.397805 1.341951 -0.77937 1.06066 -1.06066 
C 0.77937 -1.341951 0.397805 -1.5 0 -1.5 
C -0.397805 -1.5 -0.77937 -1.341951 -1.06066 -1.06066 
C -1.341951 -0.77937 -1.5 -0.397805 -1.5 0 
C -1.5 0.397805 -1.341951 0.77937 -1.06066 1.06066 
C -0.77937 1.341951 -0.397805 1.5 0 1.5 
z
" style="stroke: #000000"/>
    </defs>
    <g clip-path="url(#p68ba2460c3)">
     <use xlink:href="#m35b0813e10" x="78.010319" y="347.264197" style="stroke: #000000"/>
     <use xlink:href="#m35b0813e10" x="81.317167" y="241.154289" style="stroke: #000000"/>
     <use xlink:href="#m35b0813e10" x="84.624014" y="214.201771" style="stroke: #000000"/>
     <use xlink:href="#m35b0813e10" x="87.930862" y="205.760252" style="stroke: #000000"/>
     <use xlink:href="#m35b0813e10" x="91.237709" y="260.330507" style="stroke: #000000"/>
     <use xlink:href="#m35b0813e10" x="94.544557" y="290.929721" style="stroke: #000000"/>
     <use xlink:href="#m35b0813e10" x="97.851405" y="301.366106" style="stroke: #000000"/>
     <use xlink:href="#m35b0813e10" x="101.158252" y="227.499327" style="stroke: #000000"/>
     <use xlink:href="#m35b0813e10" x="104.4651" y="231.020726" style="stroke: #000000"/>
     <use xlink:href="#m35b0813e10" x="107.771948" y="221.734614" style="stroke: #000000"/>
     <use xlink:href="#m35b0813e10" x="111.078795" y="285.206664" style="stroke: #000000"/>
     <use xlink:href="#m35b0813e10" x="114.385643" y="244.54514" style="stroke: #000000"/>
     <use xlink:href="#m35b0813e10" x="117.69249" y="241.659367" style="stroke: #000000"/>
     <use xlink:href="#m35b0813e10" x="120.999338" y="308.889895" style="stroke: #000000"/>
     <use xlink:href="#m35b0813e10" x="124.306186" y="351.37662" style="stroke: #000000"/>
     <use xlink:href="#m35b0813e10" x="127.613033" y="371.575893" style="stroke: #000000"/>
     <use xlink:href="#m35b0813e10" x="130.919881" y="386.735386" style="stroke: #000000"/>
     <use xlink:href="#m35b0813e10" x="134.226729" y="337.895898" style="stroke: #000000"/>
     <use xlink:href="#m35b0813e10" x="137.533576" y="336.140728" style="stroke: #000000"/>
     <use xlink:href="#m35b0813e10" x="140.840424" y="365.852372" style="stroke: #000000"/>
     <use xlink:href="#m35b0813e10" x="144.147271" y="307.46271" style="stroke: #000000"/>
     <use xlink:href="#m35b0813e10" x="147.454119" y="344.547703" style="stroke: #000000"/>
     <use xlink:href="#m35b0813e10" x="150.760967" y="347.443273" style="stroke: #000000"/>
     <use xlink:href="#m35b0813e10" x="154.067814" y="349.623624" style="stroke: #000000"/>
     <use xlink:href="#m35b0813e10" x="157.374662" y="295.079664" style="stroke: #000000"/>
     <use xlink:href="#m35b0813e10" x="160.68151" y="236.639101" style="stroke: #000000"/>
     <use xlink:href="#m35b0813e10" x="163.988357" y="264.123727" style="stroke: #000000"/>
     <use xlink:href="#m35b0813e10" x="167.295205" y="218.626772" style="stroke: #000000"/>
     <use xlink:href="#m35b0813e10" x="170.602052" y="195.57275" style="stroke: #000000"/>
     <use xlink:href="#m35b0813e10" x="173.9089" y="216.021606" style="stroke: #000000"/>
     <use xlink:href="#m35b0813e10" x="177.215748" y="176.400974" style="stroke: #000000"/>
     <use xlink:href="#m35b0813e10" x="180.522595" y="180.496907" style="stroke: #000000"/>
     <use xlink:href="#m35b0813e10" x="183.829443" y="205.898376" style="stroke: #000000"/>
     <use xlink:href="#m35b0813e10" x="187.136291" y="143.080654" style="stroke: #000000"/>
     <use xlink:href="#m35b0813e10" x="190.443138" y="109.588763" style="stroke: #000000"/>
     <use xlink:href="#m35b0813e10" x="193.749986" y="123.467888" style="stroke: #000000"/>
     <use xlink:href="#m35b0813e10" x="197.056833" y="151.90748" style="stroke: #000000"/>
     <use xlink:href="#m35b0813e10" x="200.363681" y="204.861384" style="stroke: #000000"/>
     <use xlink:href="#m35b0813e10" x="203.670529" y="174.213484" style="stroke: #000000"/>
     <use xlink:href="#m35b0813e10" x="206.977376" y="174.217132" style="stroke: #000000"/>
     <use xlink:href="#m35b0813e10" x="210.284224" y="212.452388" style="stroke: #000000"/>
     <use xlink:href="#m35b0813e10" x="213.591072" y="206.989282" style="stroke: #000000"/>
     <use xlink:href="#m35b0813e10" x="216.897919" y="247.3098" style="stroke: #000000"/>
     <use xlink:href="#m35b0813e10" x="220.204767" y="207.313129" style="stroke: #000000"/>
     <use xlink:href="#m35b0813e10" x="223.511614" y="253.666767" style="stroke: #000000"/>
     <use xlink:href="#m35b0813e10" x="226.818462" y="230.082018" style="stroke: #000000"/>
     <use xlink:href="#m35b0813e10" x="230.12531" y="258.503558" style="stroke: #000000"/>
     <use xlink:href="#m35b0813e10" x="233.432157" y="231.45958" style="stroke: #000000"/>
     <use xlink:href="#m35b0813e10" x="236.739005" y="226.967517" style="stroke: #000000"/>
     <use xlink:href="#m35b0813e10" x="240.045853" y="268.281404" style="stroke: #000000"/>
     <use xlink:href="#m35b0813e10" x="243.3527" y="206.311977" style="stroke: #000000"/>
     <use xlink:href="#m35b0813e10" x="246.659548" y="200.300155" style="stroke: #000000"/>
     <use xlink:href="#m35b0813e10" x="249.966395" y="189.457709" style="stroke: #000000"/>
     <use xlink:href="#m35b0813e10" x="253.273243" y="171.929182" style="stroke: #000000"/>
     <use xlink:href="#m35b0813e10" x="256.580091" y="170.264949" style="stroke: #000000"/>
     <use xlink:href="#m35b0813e10" x="259.886938" y="161.334303" style="stroke: #000000"/>
     <use xlink:href="#m35b0813e10" x="263.193786" y="204.014961" style="stroke: #000000"/>
     <use xlink:href="#m35b0813e10" x="266.500634" y="223.33481" style="stroke: #000000"/>
     <use xlink:href="#m35b0813e10" x="269.807481" y="236.293546" style="stroke: #000000"/>
     <use xlink:href="#m35b0813e10" x="273.114329" y="237.334614" style="stroke: #000000"/>
     <use xlink:href="#m35b0813e10" x="276.421176" y="254.166587" style="stroke: #000000"/>
     <use xlink:href="#m35b0813e10" x="279.728024" y="261.195695" style="stroke: #000000"/>
     <use xlink:href="#m35b0813e10" x="283.034872" y="226.795249" style="stroke: #000000"/>
     <use xlink:href="#m35b0813e10" x="286.341719" y="259.520994" style="stroke: #000000"/>
     <use xlink:href="#m35b0813e10" x="289.648567" y="268.086943" style="stroke: #000000"/>
     <use xlink:href="#m35b0813e10" x="292.955415" y="249.102596" style="stroke: #000000"/>
     <use xlink:href="#m35b0813e10" x="296.262262" y="291.917885" style="stroke: #000000"/>
     <use xlink:href="#m35b0813e10" x="299.56911" y="255.739618" style="stroke: #000000"/>
     <use xlink:href="#m35b0813e10" x="302.875958" y="295.18537" style="stroke: #000000"/>
     <use xlink:href="#m35b0813e10" x="306.182805" y="271.249297" style="stroke: #000000"/>
     <use xlink:href="#m35b0813e10" x="309.489653" y="260.178227" style="stroke: #000000"/>
     <use xlink:href="#m35b0813e10" x="312.7965" y="276.739654" style="stroke: #000000"/>
     <use xlink:href="#m35b0813e10" x="316.103348" y="309.167452" style="stroke: #000000"/>
     <use xlink:href="#m35b0813e10" x="319.410196" y="252.44564" style="stroke: #000000"/>
     <use xlink:href="#m35b0813e10" x="322.717043" y="269.977517" style="stroke: #000000"/>
     <use xlink:href="#m35b0813e10" x="326.023891" y="224.047943" style="stroke: #000000"/>
     <use xlink:href="#m35b0813e10" x="329.330739" y="212.86614" style="stroke: #000000"/>
     <use xlink:href="#m35b0813e10" x="332.637586" y="228.10956" style="stroke: #000000"/>
     <use xlink:href="#m35b0813e10" x="335.944434" y="224.185511" style="stroke: #000000"/>
     <use xlink:href="#m35b0813e10" x="339.251281" y="238.402748" style="stroke: #000000"/>
     <use xlink:href="#m35b0813e10" x="342.558129" y="164.892201" style="stroke: #000000"/>
     <use xlink:href="#m35b0813e10" x="345.864977" y="139.694607" style="stroke: #000000"/>
     <use xlink:href="#m35b0813e10" x="349.171824" y="138.652723" style="stroke: #000000"/>
     <use xlink:href="#m35b0813e10" x="352.478672" y="163.85137" style="stroke: #000000"/>
     <use xlink:href="#m35b0813e10" x="355.78552" y="164.13693" style="stroke: #000000"/>
     <use xlink:href="#m35b0813e10" x="359.092367" y="158.925423" style="stroke: #000000"/>
     <use xlink:href="#m35b0813e10" x="362.399215" y="107.741151" style="stroke: #000000"/>
     <use xlink:href="#m35b0813e10" x="365.706062" y="104.752407" style="stroke: #000000"/>
     <use xlink:href="#m35b0813e10" x="369.01291" y="105.204865" style="stroke: #000000"/>
     <use xlink:href="#m35b0813e10" x="372.319758" y="109.042524" style="stroke: #000000"/>
     <use xlink:href="#m35b0813e10" x="375.626605" y="145.435519" style="stroke: #000000"/>
     <use xlink:href="#m35b0813e10" x="378.933453" y="128.646517" style="stroke: #000000"/>
     <use xlink:href="#m35b0813e10" x="382.240301" y="147.181477" style="stroke: #000000"/>
     <use xlink:href="#m35b0813e10" x="385.547148" y="156.83385" style="stroke: #000000"/>
     <use xlink:href="#m35b0813e10" x="388.853996" y="162.862062" style="stroke: #000000"/>
     <use xlink:href="#m35b0813e10" x="392.160843" y="187.722549" style="stroke: #000000"/>
     <use xlink:href="#m35b0813e10" x="395.467691" y="181.124283" style="stroke: #000000"/>
     <use xlink:href="#m35b0813e10" x="398.774539" y="191.92191" style="stroke: #000000"/>
     <use xlink:href="#m35b0813e10" x="402.081386" y="220.649484" style="stroke: #000000"/>
     <use xlink:href="#m35b0813e10" x="405.388234" y="237.035672" style="stroke: #000000"/>
     <use xlink:href="#m35b0813e10" x="408.695082" y="255.438083" style="stroke: #000000"/>
     <use xlink:href="#m35b0813e10" x="412.001929" y="212.291076" style="stroke: #000000"/>
     <use xlink:href="#m35b0813e10" x="415.308777" y="221.482671" style="stroke: #000000"/>
     <use xlink:href="#m35b0813e10" x="418.615624" y="205.931353" style="stroke: #000000"/>
     <use xlink:href="#m35b0813e10" x="421.922472" y="174.151091" style="stroke: #000000"/>
     <use xlink:href="#m35b0813e10" x="425.22932" y="183.514508" style="stroke: #000000"/>
     <use xlink:href="#m35b0813e10" x="428.536167" y="160.577451" style="stroke: #000000"/>
     <use xlink:href="#m35b0813e10" x="431.843015" y="158.896771" style="stroke: #000000"/>
     <use xlink:href="#m35b0813e10" x="435.149863" y="174.90219" style="stroke: #000000"/>
     <use xlink:href="#m35b0813e10" x="438.45671" y="191.811596" style="stroke: #000000"/>
     <use xlink:href="#m35b0813e10" x="441.763558" y="215.978828" style="stroke: #000000"/>
     <use xlink:href="#m35b0813e10" x="445.070405" y="204.172537" style="stroke: #000000"/>
     <use xlink:href="#m35b0813e10" x="448.377253" y="168.43785" style="stroke: #000000"/>
     <use xlink:href="#m35b0813e10" x="451.684101" y="142.371992" style="stroke: #000000"/>
     <use xlink:href="#m35b0813e10" x="454.990948" y="178.610987" style="stroke: #000000"/>
     <use xlink:href="#m35b0813e10" x="458.297796" y="178.651931" style="stroke: #000000"/>
     <use xlink:href="#m35b0813e10" x="461.604644" y="192.017974" style="stroke: #000000"/>
     <use xlink:href="#m35b0813e10" x="464.911491" y="234.784206" style="stroke: #000000"/>
     <use xlink:href="#m35b0813e10" x="468.218339" y="206.415571" style="stroke: #000000"/>
     <use xlink:href="#m35b0813e10" x="471.525186" y="222.537314" style="stroke: #000000"/>
     <use xlink:href="#m35b0813e10" x="474.832034" y="224.551377" style="stroke: #000000"/>
     <use xlink:href="#m35b0813e10" x="478.138882" y="243.945163" style="stroke: #000000"/>
     <use xlink:href="#m35b0813e10" x="481.445729" y="240.682514" style="stroke: #000000"/>
     <use xlink:href="#m35b0813e10" x="484.752577" y="286.957941" style="stroke: #000000"/>
     <use xlink:href="#m35b0813e10" x="488.059425" y="271.011139" style="stroke: #000000"/>
     <use xlink:href="#m35b0813e10" x="491.366272" y="233.784881" style="stroke: #000000"/>
     <use xlink:href="#m35b0813e10" x="494.67312" y="238.760132" style="stroke: #000000"/>
     <use xlink:href="#m35b0813e10" x="497.979968" y="214.798428" style="stroke: #000000"/>
     <use xlink:href="#m35b0813e10" x="501.286815" y="214.231026" style="stroke: #000000"/>
     <use xlink:href="#m35b0813e10" x="504.593663" y="199.051573" style="stroke: #000000"/>
     <use xlink:href="#m35b0813e10" x="507.90051" y="194.20072" style="stroke: #000000"/>
     <use xlink:href="#m35b0813e10" x="511.207358" y="174.519717" style="stroke: #000000"/>
     <use xlink:href="#m35b0813e10" x="514.514206" y="180.162772" style="stroke: #000000"/>
     <use xlink:href="#m35b0813e10" x="517.821053" y="150.444074" style="stroke: #000000"/>
     <use xlink:href="#m35b0813e10" x="521.127901" y="118.995864" style="stroke: #000000"/>
     <use xlink:href="#m35b0813e10" x="524.434749" y="96.100094" style="stroke: #000000"/>
     <use xlink:href="#m35b0813e10" x="527.741596" y="105.313698" style="stroke: #000000"/>
     <use xlink:href="#m35b0813e10" x="531.048444" y="85.96731" style="stroke: #000000"/>
     <use xlink:href="#m35b0813e10" x="534.355291" y="86.269603" style="stroke: #000000"/>
     <use xlink:href="#m35b0813e10" x="537.662139" y="90.456958" style="stroke: #000000"/>
     <use xlink:href="#m35b0813e10" x="540.968987" y="72.222658" style="stroke: #000000"/>
     <use xlink:href="#m35b0813e10" x="544.275834" y="83.22265" style="stroke: #000000"/>
     <use xlink:href="#m35b0813e10" x="547.582682" y="122.380626" style="stroke: #000000"/>
     <use xlink:href="#m35b0813e10" x="550.88953" y="125.686035" style="stroke: #000000"/>
     <use xlink:href="#m35b0813e10" x="554.196377" y="143.000007" style="stroke: #000000"/>
     <use xlink:href="#m35b0813e10" x="557.503225" y="155.070351" style="stroke: #000000"/>
     <use xlink:href="#m35b0813e10" x="560.810072" y="166.906459" style="stroke: #000000"/>
     <use xlink:href="#m35b0813e10" x="564.11692" y="172.338684" style="stroke: #000000"/>
     <use xlink:href="#m35b0813e10" x="567.423768" y="174.549953" style="stroke: #000000"/>
     <use xlink:href="#m35b0813e10" x="570.730615" y="189.915781" style="stroke: #000000"/>
     <use xlink:href="#m35b0813e10" x="574.037463" y="167.532489" style="stroke: #000000"/>
     <use xlink:href="#m35b0813e10" x="577.344311" y="183.548749" style="stroke: #000000"/>
     <use xlink:href="#m35b0813e10" x="580.651158" y="205.970205" style="stroke: #000000"/>
     <use xlink:href="#m35b0813e10" x="583.958006" y="180.458622" style="stroke: #000000"/>
     <use xlink:href="#m35b0813e10" x="587.264853" y="158.137332" style="stroke: #000000"/>
     <use xlink:href="#m35b0813e10" x="590.571701" y="180.948667" style="stroke: #000000"/>
     <use xlink:href="#m35b0813e10" x="593.878549" y="135.267089" style="stroke: #000000"/>
     <use xlink:href="#m35b0813e10" x="597.185396" y="140.318386" style="stroke: #000000"/>
     <use xlink:href="#m35b0813e10" x="600.492244" y="170.04108" style="stroke: #000000"/>
     <use xlink:href="#m35b0813e10" x="603.799092" y="132.06677" style="stroke: #000000"/>
     <use xlink:href="#m35b0813e10" x="607.105939" y="161.413398" style="stroke: #000000"/>
     <use xlink:href="#m35b0813e10" x="610.412787" y="128.440293" style="stroke: #000000"/>
     <use xlink:href="#m35b0813e10" x="613.719634" y="120.089615" style="stroke: #000000"/>
     <use xlink:href="#m35b0813e10" x="617.026482" y="146.919104" style="stroke: #000000"/>
     <use xlink:href="#m35b0813e10" x="620.33333" y="145.085684" style="stroke: #000000"/>
     <use xlink:href="#m35b0813e10" x="623.640177" y="142.263793" style="stroke: #000000"/>
     <use xlink:href="#m35b0813e10" x="626.947025" y="158.987583" style="stroke: #000000"/>
     <use xlink:href="#m35b0813e10" x="630.253873" y="165.260054" style="stroke: #000000"/>
     <use xlink:href="#m35b0813e10" x="633.56072" y="209.091629" style="stroke: #000000"/>
     <use xlink:href="#m35b0813e10" x="636.867568" y="207.911986" style="stroke: #000000"/>
     <use xlink:href="#m35b0813e10" x="640.174415" y="210.791374" style="stroke: #000000"/>
     <use xlink:href="#m35b0813e10" x="643.481263" y="234.652668" style="stroke: #000000"/>
     <use xlink:href="#m35b0813e10" x="646.788111" y="225.084974" style="stroke: #000000"/>
     <use xlink:href="#m35b0813e10" x="650.094958" y="236.628123" style="stroke: #000000"/>
     <use xlink:href="#m35b0813e10" x="653.401806" y="227.171977" style="stroke: #000000"/>
     <use xlink:href="#m35b0813e10" x="656.708654" y="232.911594" style="stroke: #000000"/>
     <use xlink:href="#m35b0813e10" x="660.015501" y="226.750552" style="stroke: #000000"/>
     <use xlink:href="#m35b0813e10" x="663.322349" y="213.555591" style="stroke: #000000"/>
     <use xlink:href="#m35b0813e10" x="666.629196" y="209.627716" style="stroke: #000000"/>
    </g>
   </g>
   <g id="line2d_35">
    <path d="M 78.010319 311.95833 
L 81.317167 252.335885 
L 84.624014 228.449151 
L 87.930862 223.838461 
L 91.237709 256.698635 
L 94.544557 277.604079 
L 97.851405 288.837804 
L 101.158252 245.359177 
L 104.4651 237.528806 
L 107.771948 234.081108 
L 111.078795 279.66534 
L 114.385643 258.49719 
L 117.69249 259.532313 
L 120.999338 305.880782 
L 124.306186 336.112021 
L 127.613033 358.102933 
L 130.919881 369.409182 
L 134.226729 346.315277 
L 137.533576 332.834854 
L 140.840424 342.210908 
L 144.147271 319.541816 
L 147.454119 340.206917 
L 150.760967 343.808436 
L 154.067814 334.009724 
L 157.374662 297.321922 
L 160.68151 250.98788 
L 163.988357 258.480287 
L 167.295205 228.260401 
L 170.602052 199.474363 
L 173.9089 208.564809 
L 177.215748 176.87259 
L 180.522595 189.091255 
L 183.829443 194.667456 
L 187.136291 146.026897 
L 190.443138 121.818215 
L 193.749986 122.125347 
L 197.056833 165.990833 
L 200.363681 193.016609 
L 203.670529 172.169449 
L 206.977376 178.369054 
L 210.284224 211.73128 
L 213.591072 213.894133 
L 216.897919 247.960754 
L 220.204767 217.770471 
L 223.511614 245.857233 
L 226.818462 227.25289 
L 230.12531 251.341365 
L 233.432157 241.84239 
L 236.739005 235.424818 
L 240.045853 256.957788 
L 243.3527 216.253095 
L 246.659548 204.133383 
L 249.966395 184.73838 
L 253.273243 170.115907 
L 256.580091 172.279262 
L 259.886938 155.110291 
L 263.193786 199.42853 
L 266.500634 225.290854 
L 269.807481 240.726685 
L 273.114329 241.4106 
L 276.421176 239.717487 
L 279.728024 245.60749 
L 283.034872 217.352023 
L 286.341719 251.255565 
L 289.648567 274.029253 
L 292.955415 263.994128 
L 296.262262 292.435326 
L 299.56911 272.895125 
L 302.875958 308.286929 
L 306.182805 270.678294 
L 309.489653 256.532061 
L 312.7965 284.25657 
L 316.103348 301.813023 
L 319.410196 268.807001 
L 322.717043 254.846296 
L 326.023891 237.035925 
L 329.330739 213.713029 
L 332.637586 231.761932 
L 335.944434 228.280954 
L 339.251281 221.028066 
L 342.558129 163.333121 
L 345.864977 139.374474 
L 349.171824 151.622015 
L 352.478672 159.081138 
L 355.78552 157.734782 
L 359.092367 155.363501 
L 362.399215 120.064177 
L 365.706062 111.076635 
L 369.01291 98.025272 
L 372.319758 116.655157 
L 375.626605 150.809891 
L 378.933453 134.258761 
L 382.240301 131.137124 
L 385.547148 150.775086 
L 388.853996 157.347707 
L 392.160843 177.61916 
L 395.467691 184.475258 
L 398.774539 192.015708 
L 402.081386 220.143828 
L 405.388234 235.571792 
L 408.695082 244.658034 
L 412.001929 213.744137 
L 415.308777 226.155894 
L 418.615624 207.433956 
L 421.922472 172.813109 
L 425.22932 193.871661 
L 428.536167 178.876443 
L 431.843015 150.889925 
L 435.149863 178.379235 
L 438.45671 199.777625 
L 441.763558 209.176107 
L 445.070405 212.712856 
L 448.377253 164.914177 
L 451.684101 151.61721 
L 454.990948 163.556761 
L 458.297796 165.825187 
L 461.604644 176.052323 
L 464.911491 225.519405 
L 468.218339 210.818493 
L 471.525186 229.941557 
L 474.832034 229.511033 
L 478.138882 222.146748 
L 481.445729 255.477685 
L 484.752577 270.147723 
L 488.059425 276.285938 
L 491.366272 261.695587 
L 494.67312 231.3546 
L 497.979968 205.213112 
L 501.286815 226.074732 
L 504.593663 198.190042 
L 507.90051 180.349131 
L 511.207358 182.168181 
L 514.514206 175.075847 
L 517.821053 160.201523 
L 521.127901 101.437458 
L 524.434749 115.699983 
L 527.741596 97.617639 
L 531.048444 77.033821 
L 534.355291 99.609162 
L 537.662139 66.946512 
L 540.968987 55.962106 
L 544.275834 102.038311 
L 547.582682 103.072243 
L 550.88953 128.520984 
L 554.196377 148.278733 
L 557.503225 171.836203 
L 560.810072 160.280967 
L 564.11692 163.399306 
L 567.423768 189.81584 
L 570.730615 198.578779 
L 574.037463 159.380286 
L 577.344311 187.820073 
L 580.651158 204.121473 
L 583.958006 186.440448 
L 587.264853 148.947488 
L 590.571701 177.925533 
L 597.185396 134.186545 
L 600.492244 153.489838 
L 603.799092 124.18039 
L 607.105939 146.77667 
L 610.412787 134.947439 
L 613.719634 131.482095 
L 617.026482 132.58955 
L 620.33333 158.039837 
L 623.640177 130.104041 
L 626.947025 165.232499 
L 630.253873 194.047266 
L 633.56072 216.508272 
L 636.867568 200.434144 
L 640.174415 193.102958 
L 643.481263 233.039903 
L 646.788111 231.126556 
L 650.094958 253.389401 
L 653.401806 226.606592 
L 656.708654 239.894402 
L 660.015501 211.373712 
L 663.322349 231.253761 
L 666.629196 195.184739 
L 666.629196 195.184739 
" clip-path="url(#p68ba2460c3)" style="fill: none; stroke: #0072b2; stroke-width: 2; stroke-linecap: square"/>
   </g>
   <g id="line2d_36">
    <path d="M 78.010319 313.444707 
L 213.591072 276.093899 
L 230.12531 271.945981 
L 259.886938 265.046354 
L 302.875958 255.280976 
L 494.67312 221.779271 
L 567.423768 208.792135 
L 666.629196 190.97715 
L 666.629196 190.97715 
" clip-path="url(#p68ba2460c3)" style="fill: none; stroke: #ff0000; stroke-width: 2; stroke-linecap: square"/>
   </g>
   <g id="line2d_37">
    <path d="M 210.284224 404.00175 
L 210.284224 24.14175 
" clip-path="url(#p68ba2460c3)" style="fill: none; stroke-dasharray: 7.4,3.2; stroke-dashoffset: 0; stroke: #ff0000; stroke-width: 2"/>
   </g>
   <g id="line2d_38">
    <path d="M 226.818462 404.00175 
L 226.818462 24.14175 
" clip-path="url(#p68ba2460c3)" style="fill: none; stroke-dasharray: 7.4,3.2; stroke-dashoffset: 0; stroke: #ff0000; stroke-width: 2"/>
   </g>
   <g id="line2d_39">
    <path d="M 302.875958 404.00175 
L 302.875958 24.14175 
" clip-path="url(#p68ba2460c3)" style="fill: none; stroke-dasharray: 7.4,3.2; stroke-dashoffset: 0; stroke: #ff0000; stroke-width: 2"/>
   </g>
   <g id="patch_3">
    <path d="M 48.579375 404.00175 
L 48.579375 24.14175 
" style="fill: none; stroke: #bcbcbc; stroke-width: 0.8; stroke-linejoin: miter; stroke-linecap: square"/>
   </g>
   <g id="patch_4">
    <path d="M 696.06014 404.00175 
L 696.06014 24.14175 
" style="fill: none; stroke: #bcbcbc; stroke-width: 0.8; stroke-linejoin: miter; stroke-linecap: square"/>
   </g>
   <g id="patch_5">
    <path d="M 48.579375 404.00175 
L 696.06014 404.00175 
" style="fill: none; stroke: #bcbcbc; stroke-width: 0.8; stroke-linejoin: miter; stroke-linecap: square"/>
   </g>
   <g id="patch_6">
    <path d="M 48.579375 24.14175 
L 696.06014 24.14175 
" style="fill: none; stroke: #bcbcbc; stroke-width: 0.8; stroke-linejoin: miter; stroke-linecap: square"/>
   </g>
   <g id="text_19">
    <!-- Prophet Model Fit -->
    <g transform="translate(309.876633 18.14175)scale(0.144 -0.144)">
     <defs>
      <path id="DejaVuSans-50" d="M 1259 4147 
L 1259 2394 
L 2053 2394 
Q 2494 2394 2734 2622 
Q 2975 2850 2975 3272 
Q 2975 3691 2734 3919 
Q 2494 4147 2053 4147 
L 1259 4147 
z
M 628 4666 
L 2053 4666 
Q 2838 4666 3239 4311 
Q 3641 3956 3641 3272 
Q 3641 2581 3239 2228 
Q 2838 1875 2053 1875 
L 1259 1875 
L 1259 0 
L 628 0 
L 628 4666 
z
" transform="scale(0.015625)"/>
      <path id="DejaVuSans-72" d="M 2631 2963 
Q 2534 3019 2420 3045 
Q 2306 3072 2169 3072 
Q 1681 3072 1420 2755 
Q 1159 2438 1159 1844 
L 1159 0 
L 581 0 
L 581 3500 
L 1159 3500 
L 1159 2956 
Q 1341 3275 1631 3429 
Q 1922 3584 2338 3584 
Q 2397 3584 2469 3576 
Q 2541 3569 2628 3553 
L 2631 2963 
z
" transform="scale(0.015625)"/>
      <path id="DejaVuSans-6f" d="M 1959 3097 
Q 1497 3097 1228 2736 
Q 959 2375 959 1747 
Q 959 1119 1226 758 
Q 1494 397 1959 397 
Q 2419 397 2687 759 
Q 2956 1122 2956 1747 
Q 2956 2369 2687 2733 
Q 2419 3097 1959 3097 
z
M 1959 3584 
Q 2709 3584 3137 3096 
Q 3566 2609 3566 1747 
Q 3566 888 3137 398 
Q 2709 -91 1959 -91 
Q 1206 -91 779 398 
Q 353 888 353 1747 
Q 353 2609 779 3096 
Q 1206 3584 1959 3584 
z
" transform="scale(0.015625)"/>
      <path id="DejaVuSans-70" d="M 1159 525 
L 1159 -1331 
L 581 -1331 
L 581 3500 
L 1159 3500 
L 1159 2969 
Q 1341 3281 1617 3432 
Q 1894 3584 2278 3584 
Q 2916 3584 3314 3078 
Q 3713 2572 3713 1747 
Q 3713 922 3314 415 
Q 2916 -91 2278 -91 
Q 1894 -91 1617 61 
Q 1341 213 1159 525 
z
M 3116 1747 
Q 3116 2381 2855 2742 
Q 2594 3103 2138 3103 
Q 1681 3103 1420 2742 
Q 1159 2381 1159 1747 
Q 1159 1113 1420 752 
Q 1681 391 2138 391 
Q 2594 391 2855 752 
Q 3116 1113 3116 1747 
z
" transform="scale(0.015625)"/>
      <path id="DejaVuSans-68" d="M 3513 2113 
L 3513 0 
L 2938 0 
L 2938 2094 
Q 2938 2591 2744 2837 
Q 2550 3084 2163 3084 
Q 1697 3084 1428 2787 
Q 1159 2491 1159 1978 
L 1159 0 
L 581 0 
L 581 4863 
L 1159 4863 
L 1159 2956 
Q 1366 3272 1645 3428 
Q 1925 3584 2291 3584 
Q 2894 3584 3203 3211 
Q 3513 2838 3513 2113 
z
" transform="scale(0.015625)"/>
      <path id="DejaVuSans-65" d="M 3597 1894 
L 3597 1613 
L 953 1613 
Q 991 1019 1311 708 
Q 1631 397 2203 397 
Q 2534 397 2845 478 
Q 3156 559 3463 722 
L 3463 178 
Q 3153 47 2828 -22 
Q 2503 -91 2169 -91 
Q 1331 -91 842 396 
Q 353 884 353 1716 
Q 353 2575 817 3079 
Q 1281 3584 2069 3584 
Q 2775 3584 3186 3129 
Q 3597 2675 3597 1894 
z
M 3022 2063 
Q 3016 2534 2758 2815 
Q 2500 3097 2075 3097 
Q 1594 3097 1305 2825 
Q 1016 2553 972 2059 
L 3022 2063 
z
" transform="scale(0.015625)"/>
      <path id="DejaVuSans-74" d="M 1172 4494 
L 1172 3500 
L 2356 3500 
L 2356 3053 
L 1172 3053 
L 1172 1153 
Q 1172 725 1289 603 
Q 1406 481 1766 481 
L 2356 481 
L 2356 0 
L 1766 0 
Q 1100 0 847 248 
Q 594 497 594 1153 
L 594 3053 
L 172 3053 
L 172 3500 
L 594 3500 
L 594 4494 
L 1172 4494 
z
" transform="scale(0.015625)"/>
      <path id="DejaVuSans-20" transform="scale(0.015625)"/>
      <path id="DejaVuSans-4d" d="M 628 4666 
L 1569 4666 
L 2759 1491 
L 3956 4666 
L 4897 4666 
L 4897 0 
L 4281 0 
L 4281 4097 
L 3078 897 
L 2444 897 
L 1241 4097 
L 1241 0 
L 628 0 
L 628 4666 
z
" transform="scale(0.015625)"/>
      <path id="DejaVuSans-6c" d="M 603 4863 
L 1178 4863 
L 1178 0 
L 603 0 
L 603 4863 
z
" transform="scale(0.015625)"/>
      <path id="DejaVuSans-46" d="M 628 4666 
L 3309 4666 
L 3309 4134 
L 1259 4134 
L 1259 2759 
L 3109 2759 
L 3109 2228 
L 1259 2228 
L 1259 0 
L 628 0 
L 628 4666 
z
" transform="scale(0.015625)"/>
      <path id="DejaVuSans-69" d="M 603 3500 
L 1178 3500 
L 1178 0 
L 603 0 
L 603 3500 
z
M 603 4863 
L 1178 4863 
L 1178 4134 
L 603 4134 
L 603 4863 
z
" transform="scale(0.015625)"/>
     </defs>
     <use xlink:href="#DejaVuSans-50"/>
     <use xlink:href="#DejaVuSans-72" x="58.552734"/>
     <use xlink:href="#DejaVuSans-6f" x="97.416016"/>
     <use xlink:href="#DejaVuSans-70" x="158.597656"/>
     <use xlink:href="#DejaVuSans-68" x="222.074219"/>
     <use xlink:href="#DejaVuSans-65" x="285.453125"/>
     <use xlink:href="#DejaVuSans-74" x="346.976562"/>
     <use xlink:href="#DejaVuSans-20" x="386.185547"/>
     <use xlink:href="#DejaVuSans-4d" x="417.972656"/>
     <use xlink:href="#DejaVuSans-6f" x="504.251953"/>
     <use xlink:href="#DejaVuSans-64" x="565.433594"/>
     <use xlink:href="#DejaVuSans-65" x="628.910156"/>
     <use xlink:href="#DejaVuSans-6c" x="690.433594"/>
     <use xlink:href="#DejaVuSans-20" x="718.216797"/>
     <use xlink:href="#DejaVuSans-46" x="750.003906"/>
     <use xlink:href="#DejaVuSans-69" x="800.273438"/>
     <use xlink:href="#DejaVuSans-74" x="828.056641"/>
    </g>
   </g>
   <g id="legend_1">
    <g id="patch_7">
     <path d="M 651.14139 46.819875 
L 689.06014 46.819875 
Q 691.06014 46.819875 691.06014 44.819875 
L 691.06014 31.14175 
Q 691.06014 29.14175 689.06014 29.14175 
L 651.14139 29.14175 
Q 649.14139 29.14175 649.14139 31.14175 
L 649.14139 44.819875 
Q 649.14139 46.819875 651.14139 46.819875 
z
" style="fill: #eeeeee; opacity: 0.8; stroke: #cccccc; stroke-width: 0.5; stroke-linejoin: miter"/>
    </g>
    <g id="line2d_40">
     <path d="M 653.14139 37.240188 
L 663.14139 37.240188 
L 673.14139 37.240188 
" style="fill: none; stroke: #000000; stroke-width: 2; stroke-linecap: square"/>
    </g>
    <g id="text_20">
     <!-- y -->
     <g transform="translate(681.14139 40.740188)scale(0.1 -0.1)">
      <use xlink:href="#DejaVuSans-79"/>
     </g>
    </g>
   </g>
  </g>
 </g>
 <defs>
  <clipPath id="p68ba2460c3">
   <rect x="48.579375" y="24.14175" width="647.480765" height="379.86"/>
  </clipPath>
 </defs>
</svg>
