<?xml version="1.0" encoding="utf-8" standalone="no"?>
<!DOCTYPE svg PUBLIC "-//W3C//DTD SVG 1.1//EN"
  "http://www.w3.org/Graphics/SVG/1.1/DTD/svg11.dtd">
<svg xmlns:xlink="http://www.w3.org/1999/xlink" width="779.4575pt" height="386.293625pt" viewBox="0 0 779.4575 386.293625" xmlns="http://www.w3.org/2000/svg" version="1.1">
 <metadata>
  <rdf:RDF xmlns:dc="http://purl.org/dc/elements/1.1/" xmlns:cc="http://creativecommons.org/ns#" xmlns:rdf="http://www.w3.org/1999/02/22-rdf-syntax-ns#">
   <cc:Work>
    <dc:type rdf:resource="http://purl.org/dc/dcmitype/StillImage"/>
    <dc:date>2022-02-03T13:28:35.075120</dc:date>
    <dc:format>image/svg+xml</dc:format>
    <dc:creator>
     <cc:Agent>
      <dc:title>Matplotlib v3.5.1, https://matplotlib.org/</dc:title>
     </cc:Agent>
    </dc:creator>
   </cc:Work>
  </rdf:RDF>
 </metadata>
 <defs>
  <style type="text/css">*{stroke-linejoin: round; stroke-linecap: butt}</style>
 </defs>
 <g id="figure_1">
  <g id="patch_1">
   <path d="M 0 386.293625 
L 779.4575 386.293625 
L 779.4575 0 
L 0 0 
L 0 386.293625 
z
" style="fill: none"/>
  </g>
  <g id="axes_1">
   <g id="patch_2">
    <path d="M 48.579375 350.30175 
L 606.579375 350.30175 
L 606.579375 24.14175 
L 48.579375 24.14175 
z
" style="fill: #eeeeee"/>
   </g>
   <g id="PolyCollection_1">
    <defs>
     <path id="m5deeab7efc" d="M 73.943011 -134.955088 
L 73.943011 -91.751458 
L 76.792858 -167.148012 
L 79.642705 -186.603264 
L 82.492552 -194.212498 
L 85.342398 -149.217049 
L 88.192245 -131.081111 
L 91.042092 -118.370091 
L 93.891939 -171.207035 
L 96.741786 -171.365583 
L 99.591632 -180.040896 
L 102.441479 -127.850855 
L 105.291326 -162.59805 
L 108.141173 -169.273636 
L 110.99102 -114.215529 
L 113.840866 -80.852338 
L 116.690713 -64.811435 
L 119.54056 -50.81733 
L 122.390407 -74.231955 
L 125.240253 -85.2717 
L 128.0901 -62.740986 
L 130.939947 -96.402967 
L 133.789794 -77.509153 
L 136.639641 -78.674149 
L 139.489487 -80.842931 
L 142.339334 -121.024851 
L 145.189181 -168.145571 
L 148.039028 -143.520306 
L 150.888874 -176.368662 
L 153.738721 -200.758036 
L 156.588568 -184.861986 
L 159.438415 -213.315382 
L 162.288262 -208.484919 
L 165.138108 -200.710498 
L 167.987955 -251.055588 
L 170.837802 -269.890956 
L 173.687649 -274.480468 
L 176.537496 -232.308483 
L 179.387342 -207.472388 
L 182.237189 -226.528324 
L 185.087036 -215.89809 
L 187.936883 -182.573139 
L 190.786729 -192.652196 
L 193.636576 -161.221586 
L 196.486423 -192.11808 
L 199.33627 -164.260895 
L 202.186117 -174.188612 
L 205.035963 -150.203301 
L 207.88581 -162.640494 
L 210.735657 -170.807032 
L 213.585504 -157.275771 
L 216.43535 -192.275371 
L 219.285197 -200.257327 
L 222.135044 -215.143825 
L 224.984891 -225.146937 
L 227.834738 -217.810953 
L 230.684584 -229.302083 
L 233.534431 -197.839435 
L 236.384278 -179.976638 
L 239.234125 -168.654097 
L 242.083972 -164.369518 
L 244.933818 -163.277875 
L 247.783665 -153.320318 
L 250.633512 -174.979681 
L 253.483359 -158.618091 
L 256.333205 -140.099894 
L 259.183052 -149.07056 
L 262.032899 -124.170184 
L 264.882746 -145.854534 
L 267.732593 -116.923841 
L 270.582439 -141.224063 
L 273.432286 -151.735761 
L 276.282133 -127.556125 
L 279.13198 -114.956744 
L 281.981826 -143.558063 
L 284.831673 -158.663569 
L 287.68152 -178.368816 
L 290.531367 -193.543219 
L 293.381214 -179.074511 
L 296.23106 -181.304512 
L 299.080907 -188.111497 
L 301.930754 -226.958893 
L 304.780601 -251.607396 
L 307.630448 -236.35158 
L 310.480294 -231.234351 
L 313.330141 -238.346742 
L 316.179988 -245.894381 
L 319.029835 -270.645239 
L 321.879681 -281.476378 
L 324.729528 -287.196391 
L 327.579375 -273.443657 
L 330.429222 -246.282021 
L 333.279069 -256.619759 
L 336.128915 -256.203262 
L 338.978762 -233.158362 
L 341.828609 -239.711158 
L 344.678456 -226.085558 
L 347.528302 -215.479601 
L 350.378149 -205.156028 
L 353.227996 -185.229089 
L 356.077843 -175.295436 
L 358.92769 -168.514535 
L 361.777536 -191.322845 
L 364.627383 -185.909738 
L 367.47723 -202.342556 
L 370.327077 -223.142018 
L 373.176924 -213.626331 
L 376.02677 -219.017341 
L 378.876617 -239.532671 
L 381.726464 -219.631808 
L 384.576311 -210.410294 
L 387.426157 -209.445944 
L 390.276004 -207.331971 
L 393.125851 -229.315045 
L 395.975698 -232.023811 
L 398.825545 -224.595024 
L 401.675391 -223.268744 
L 404.525238 -214.265325 
L 407.375085 -185.958114 
L 410.224932 -190.484452 
L 413.074778 -175.424717 
L 415.924625 -176.646056 
L 418.774472 -177.136465 
L 421.624319 -155.652393 
L 424.474166 -145.117921 
L 427.324012 -142.38101 
L 430.173859 -148.616713 
L 433.023706 -175.197848 
L 435.873553 -192.459666 
L 438.7234 -184.899895 
L 441.573246 -206.008783 
L 444.423093 -212.446031 
L 447.27294 -221.453541 
L 450.122787 -228.426763 
L 452.972633 -240.603589 
L 455.82248 -274.989304 
L 458.672327 -269.717179 
L 461.522174 -288.200114 
L 464.372021 -300.027447 
L 467.221867 -291.802425 
L 470.071714 -303.674236 
L 472.921561 -310.194304 
L 475.771408 -289.644022 
L 478.621254 -283.487698 
L 481.471101 -269.364557 
L 484.320948 -250.927022 
L 487.170795 -241.638814 
L 490.020642 -244.730348 
L 492.870488 -239.306262 
L 495.720335 -221.650264 
L 498.570182 -210.554952 
L 501.420029 -227.635547 
L 504.269876 -210.821149 
L 507.119722 -203.592729 
L 509.969569 -213.424915 
L 512.819416 -232.911238 
L 515.669263 -219.644955 
L 518.519109 -231.703117 
L 521.368956 -239.385287 
L 524.218803 -235.208814 
L 527.06865 -242.794973 
L 529.918497 -245.597049 
L 532.768343 -250.471002 
L 535.61819 -254.671857 
L 538.468037 -257.387176 
L 541.317884 -239.236964 
L 544.16773 -245.102362 
L 547.017577 -221.789429 
L 549.867424 -209.786048 
L 552.717271 -203.087334 
L 555.567118 -197.955705 
L 558.416964 -199.261947 
L 561.266811 -182.981671 
L 564.116658 -181.087387 
L 566.966505 -169.296867 
L 569.816352 -171.748337 
L 572.666198 -165.247281 
L 575.516045 -176.547779 
L 578.365892 -173.040348 
L 581.215739 -193.109782 
L 581.215739 -232.994592 
L 581.215739 -232.994592 
L 578.365892 -212.494643 
L 575.516045 -218.138581 
L 572.666198 -200.049346 
L 569.816352 -215.390791 
L 566.966505 -207.434622 
L 564.116658 -225.234131 
L 561.266811 -214.668971 
L 558.416964 -239.39917 
L 555.567118 -241.504546 
L 552.717271 -237.162754 
L 549.867424 -246.527522 
L 547.017577 -266.644179 
L 544.16773 -282.788242 
L 541.317884 -270.21886 
L 538.468037 -293.58927 
L 535.61819 -290.124248 
L 532.768343 -288.108893 
L 529.918497 -276.50307 
L 527.06865 -284.642495 
L 524.218803 -275.68782 
L 521.368956 -283.642676 
L 518.519109 -274.68975 
L 515.669263 -260.598536 
L 512.819416 -265.313997 
L 509.969569 -250.842185 
L 507.119722 -242.868458 
L 504.269876 -249.579062 
L 501.420029 -262.41782 
L 498.570182 -250.392675 
L 495.720335 -254.720896 
L 492.870488 -271.712605 
L 490.020642 -281.150249 
L 487.170795 -276.28164 
L 484.320948 -295.105939 
L 481.471101 -302.757981 
L 478.621254 -320.960071 
L 475.771408 -326.030536 
L 472.921561 -347.32642 
L 470.071714 -343.70593 
L 467.221867 -323.065773 
L 464.372021 -337.35859 
L 461.522174 -328.788959 
L 458.672327 -309.054047 
L 455.82248 -314.552595 
L 452.972633 -273.438482 
L 450.122787 -263.631607 
L 447.27294 -256.58302 
L 444.423093 -253.596806 
L 441.573246 -239.453103 
L 438.7234 -223.176999 
L 435.873553 -231.296561 
L 433.023706 -213.057263 
L 430.173859 -189.451597 
L 427.324012 -176.853643 
L 424.474166 -180.291496 
L 421.624319 -192.672059 
L 418.774472 -218.084472 
L 415.924625 -213.314062 
L 413.074778 -214.666168 
L 410.224932 -229.738933 
L 407.375085 -223.528634 
L 404.525238 -254.509423 
L 401.675391 -265.516119 
L 398.825545 -258.664935 
L 395.975698 -268.05811 
L 393.125851 -264.336243 
L 390.276004 -240.602391 
L 387.426157 -248.184716 
L 384.576311 -248.578712 
L 381.726464 -255.54962 
L 378.876617 -270.244389 
L 376.02677 -255.600752 
L 373.176924 -244.556904 
L 370.327077 -261.016464 
L 367.47723 -235.837124 
L 364.627383 -225.856679 
L 361.777536 -226.196995 
L 358.92769 -206.618661 
L 356.077843 -212.375598 
L 353.227996 -219.531651 
L 350.378149 -238.965898 
L 347.528302 -254.149039 
L 344.678456 -259.805846 
L 341.828609 -278.966408 
L 338.978762 -283.38761 
L 336.128915 -289.092198 
L 333.279069 -293.359572 
L 330.429222 -281.842713 
L 327.579375 -316.736058 
L 324.729528 -325.580191 
L 321.879681 -316.997055 
L 319.029835 -308.364291 
L 316.179988 -282.974252 
L 313.330141 -274.377974 
L 310.480294 -272.352675 
L 307.630448 -271.895919 
L 304.780601 -288.827256 
L 301.930754 -268.049222 
L 299.080907 -221.508113 
L 296.23106 -213.325083 
L 293.381214 -216.027943 
L 290.531367 -229.820592 
L 287.68152 -217.102743 
L 284.831673 -196.394848 
L 281.981826 -186.345575 
L 279.13198 -145.28164 
L 276.282133 -159.580209 
L 273.432286 -186.775245 
L 270.582439 -183.931697 
L 267.732593 -158.226095 
L 264.882746 -180.027935 
L 262.032899 -160.765569 
L 259.183052 -183.760196 
L 256.333205 -176.313505 
L 253.483359 -195.146515 
L 250.633512 -217.409999 
L 247.783665 -188.578607 
L 244.933818 -195.708612 
L 242.083972 -202.041881 
L 239.234125 -202.595678 
L 236.384278 -215.292146 
L 233.534431 -232.083416 
L 230.684584 -272.992494 
L 227.834738 -254.357867 
L 224.984891 -267.100955 
L 222.135044 -255.233292 
L 219.285197 -237.914177 
L 216.43535 -224.304629 
L 213.585504 -187.574015 
L 210.735657 -206.973014 
L 207.88581 -203.787038 
L 205.035963 -191.788537 
L 202.186117 -208.142026 
L 199.33627 -198.895326 
L 196.486423 -228.570673 
L 193.636576 -206.510149 
L 190.786729 -223.449334 
L 187.936883 -223.155868 
L 185.087036 -254.724528 
L 182.237189 -263.183569 
L 179.387342 -243.112224 
L 176.537496 -266.827299 
L 173.687649 -311.111697 
L 170.837802 -315.683221 
L 167.987955 -286.309449 
L 165.138108 -232.764919 
L 162.288262 -240.165631 
L 159.438415 -255.250855 
L 156.588568 -222.767096 
L 153.738721 -237.640112 
L 150.888874 -214.362977 
L 148.039028 -181.102175 
L 145.189181 -197.113834 
L 142.339334 -154.221371 
L 139.489487 -120.568782 
L 136.639641 -110.785547 
L 133.789794 -113.472841 
L 130.939947 -130.326872 
L 128.0901 -107.334348 
L 125.240253 -121.501607 
L 122.390407 -108.209134 
L 119.54056 -85.036375 
L 116.690713 -95.394533 
L 113.840866 -114.308992 
L 110.99102 -148.436636 
L 108.141173 -210.040905 
L 105.291326 -200.990935 
L 102.441479 -164.570632 
L 99.591632 -216.826973 
L 96.741786 -213.709058 
L 93.891939 -201.749797 
L 91.042092 -155.934028 
L 88.192245 -163.830057 
L 85.342398 -185.416179 
L 82.492552 -231.50728 
L 79.642705 -227.638381 
L 76.792858 -205.371018 
L 73.943011 -134.955088 
z
" style="stroke: #348abd; stroke-opacity: 0.15; stroke-width: 0.5"/>
    </defs>
    <g clip-path="url(#p027c1bb10d)">
     <use xlink:href="#m5deeab7efc" x="0" y="386.293625" style="fill: #348abd; fill-opacity: 0.15; stroke: #348abd; stroke-opacity: 0.15; stroke-width: 0.5"/>
    </g>
   </g>
   <g id="PathCollection_1">
    <defs>
     <path id="m52d4c081d2" d="M 0 3.535534 
C 0.937635 3.535534 1.836992 3.163008 2.5 2.5 
C 3.163008 1.836992 3.535534 0.937635 3.535534 0 
C 3.535534 -0.937635 3.163008 -1.836992 2.5 -2.5 
C 1.836992 -3.163008 0.937635 -3.535534 0 -3.535534 
C -0.937635 -3.535534 -1.836992 -3.163008 -2.5 -2.5 
C -3.163008 -1.836992 -3.535534 -0.937635 -3.535534 0 
C -3.535534 0.937635 -3.163008 1.836992 -2.5 2.5 
C -1.836992 3.163008 -0.937635 3.535534 0 3.535534 
z
" style="stroke: #ffffff; stroke-width: 0.565685"/>
    </defs>
    <g clip-path="url(#p027c1bb10d)">
     <use xlink:href="#m52d4c081d2" x="73.943011" y="278.612166" style="fill: #ff0000; stroke: #ffffff; stroke-width: 0.565685"/>
     <use xlink:href="#m52d4c081d2" x="125.240253" y="264.467819" style="fill: #ff0000; stroke: #ffffff; stroke-width: 0.565685"/>
     <use xlink:href="#m52d4c081d2" x="176.537496" y="249.146045" style="fill: #ff0000; stroke: #ffffff; stroke-width: 0.565685"/>
     <use xlink:href="#m52d4c081d2" x="224.984891" y="221.710458" style="fill: #ff0000; stroke: #ffffff; stroke-width: 0.565685"/>
     <use xlink:href="#m52d4c081d2" x="276.282133" y="207.302693" style="fill: #ff0000; stroke: #ffffff; stroke-width: 0.565685"/>
     <use xlink:href="#m52d4c081d2" x="327.579375" y="202.703485" style="fill: #ff0000; stroke: #ffffff; stroke-width: 0.565685"/>
     <use xlink:href="#m52d4c081d2" x="378.876617" y="179.949592" style="fill: #ff0000; stroke: #ffffff; stroke-width: 0.565685"/>
     <use xlink:href="#m52d4c081d2" x="430.173859" y="169.912845" style="fill: #ff0000; stroke: #ffffff; stroke-width: 0.565685"/>
     <use xlink:href="#m52d4c081d2" x="478.621254" y="159.917544" style="fill: #ff0000; stroke: #ffffff; stroke-width: 0.565685"/>
     <use xlink:href="#m52d4c081d2" x="529.918497" y="151.025394" style="fill: #ff0000; stroke: #ffffff; stroke-width: 0.565685"/>
     <use xlink:href="#m52d4c081d2" x="581.215739" y="147.040792" style="fill: #ff0000; stroke: #ffffff; stroke-width: 0.565685"/>
    </g>
   </g>
   <g id="matplotlib.axis_1">
    <g id="xtick_1">
     <g id="line2d_1">
      <path d="M 110.583899 350.30175 
L 110.583899 24.14175 
" clip-path="url(#p027c1bb10d)" style="fill: none; stroke-dasharray: 1.85,0.8; stroke-dashoffset: 0; stroke: #b2b2b2; stroke-width: 0.5"/>
     </g>
     <g id="line2d_2">
      <defs>
       <path id="me28f87c9c2" d="M 0 0 
L 0 -3.5 
" style="stroke: #000000; stroke-width: 0.8"/>
      </defs>
      <g>
       <use xlink:href="#me28f87c9c2" x="110.583899" y="350.30175" style="stroke: #000000; stroke-width: 0.8"/>
      </g>
     </g>
     <g id="text_1">
      <!-- 2018-07 -->
      <g transform="translate(89.692492 361.400188)scale(0.1 -0.1)">
       <defs>
        <path id="DejaVuSans-32" d="M 1228 531 
L 3431 531 
L 3431 0 
L 469 0 
L 469 531 
Q 828 903 1448 1529 
Q 2069 2156 2228 2338 
Q 2531 2678 2651 2914 
Q 2772 3150 2772 3378 
Q 2772 3750 2511 3984 
Q 2250 4219 1831 4219 
Q 1534 4219 1204 4116 
Q 875 4013 500 3803 
L 500 4441 
Q 881 4594 1212 4672 
Q 1544 4750 1819 4750 
Q 2544 4750 2975 4387 
Q 3406 4025 3406 3419 
Q 3406 3131 3298 2873 
Q 3191 2616 2906 2266 
Q 2828 2175 2409 1742 
Q 1991 1309 1228 531 
z
" transform="scale(0.015625)"/>
        <path id="DejaVuSans-30" d="M 2034 4250 
Q 1547 4250 1301 3770 
Q 1056 3291 1056 2328 
Q 1056 1369 1301 889 
Q 1547 409 2034 409 
Q 2525 409 2770 889 
Q 3016 1369 3016 2328 
Q 3016 3291 2770 3770 
Q 2525 4250 2034 4250 
z
M 2034 4750 
Q 2819 4750 3233 4129 
Q 3647 3509 3647 2328 
Q 3647 1150 3233 529 
Q 2819 -91 2034 -91 
Q 1250 -91 836 529 
Q 422 1150 422 2328 
Q 422 3509 836 4129 
Q 1250 4750 2034 4750 
z
" transform="scale(0.015625)"/>
        <path id="DejaVuSans-31" d="M 794 531 
L 1825 531 
L 1825 4091 
L 703 3866 
L 703 4441 
L 1819 4666 
L 2450 4666 
L 2450 531 
L 3481 531 
L 3481 0 
L 794 0 
L 794 531 
z
" transform="scale(0.015625)"/>
        <path id="DejaVuSans-38" d="M 2034 2216 
Q 1584 2216 1326 1975 
Q 1069 1734 1069 1313 
Q 1069 891 1326 650 
Q 1584 409 2034 409 
Q 2484 409 2743 651 
Q 3003 894 3003 1313 
Q 3003 1734 2745 1975 
Q 2488 2216 2034 2216 
z
M 1403 2484 
Q 997 2584 770 2862 
Q 544 3141 544 3541 
Q 544 4100 942 4425 
Q 1341 4750 2034 4750 
Q 2731 4750 3128 4425 
Q 3525 4100 3525 3541 
Q 3525 3141 3298 2862 
Q 3072 2584 2669 2484 
Q 3125 2378 3379 2068 
Q 3634 1759 3634 1313 
Q 3634 634 3220 271 
Q 2806 -91 2034 -91 
Q 1263 -91 848 271 
Q 434 634 434 1313 
Q 434 1759 690 2068 
Q 947 2378 1403 2484 
z
M 1172 3481 
Q 1172 3119 1398 2916 
Q 1625 2713 2034 2713 
Q 2441 2713 2670 2916 
Q 2900 3119 2900 3481 
Q 2900 3844 2670 4047 
Q 2441 4250 2034 4250 
Q 1625 4250 1398 4047 
Q 1172 3844 1172 3481 
z
" transform="scale(0.015625)"/>
        <path id="DejaVuSans-2d" d="M 313 2009 
L 1997 2009 
L 1997 1497 
L 313 1497 
L 313 2009 
z
" transform="scale(0.015625)"/>
        <path id="DejaVuSans-37" d="M 525 4666 
L 3525 4666 
L 3525 4397 
L 1831 0 
L 1172 0 
L 2766 4134 
L 525 4134 
L 525 4666 
z
" transform="scale(0.015625)"/>
       </defs>
       <use xlink:href="#DejaVuSans-32"/>
       <use xlink:href="#DejaVuSans-30" x="63.623047"/>
       <use xlink:href="#DejaVuSans-31" x="127.246094"/>
       <use xlink:href="#DejaVuSans-38" x="190.869141"/>
       <use xlink:href="#DejaVuSans-2d" x="254.492188"/>
       <use xlink:href="#DejaVuSans-30" x="290.576172"/>
       <use xlink:href="#DejaVuSans-37" x="354.199219"/>
      </g>
     </g>
    </g>
    <g id="xtick_2">
     <g id="line2d_3">
      <path d="M 185.494157 350.30175 
L 185.494157 24.14175 
" clip-path="url(#p027c1bb10d)" style="fill: none; stroke-dasharray: 1.85,0.8; stroke-dashoffset: 0; stroke: #b2b2b2; stroke-width: 0.5"/>
     </g>
     <g id="line2d_4">
      <g>
       <use xlink:href="#me28f87c9c2" x="185.494157" y="350.30175" style="stroke: #000000; stroke-width: 0.8"/>
      </g>
     </g>
     <g id="text_2">
      <!-- 2019-01 -->
      <g transform="translate(164.602751 361.400188)scale(0.1 -0.1)">
       <defs>
        <path id="DejaVuSans-39" d="M 703 97 
L 703 672 
Q 941 559 1184 500 
Q 1428 441 1663 441 
Q 2288 441 2617 861 
Q 2947 1281 2994 2138 
Q 2813 1869 2534 1725 
Q 2256 1581 1919 1581 
Q 1219 1581 811 2004 
Q 403 2428 403 3163 
Q 403 3881 828 4315 
Q 1253 4750 1959 4750 
Q 2769 4750 3195 4129 
Q 3622 3509 3622 2328 
Q 3622 1225 3098 567 
Q 2575 -91 1691 -91 
Q 1453 -91 1209 -44 
Q 966 3 703 97 
z
M 1959 2075 
Q 2384 2075 2632 2365 
Q 2881 2656 2881 3163 
Q 2881 3666 2632 3958 
Q 2384 4250 1959 4250 
Q 1534 4250 1286 3958 
Q 1038 3666 1038 3163 
Q 1038 2656 1286 2365 
Q 1534 2075 1959 2075 
z
" transform="scale(0.015625)"/>
       </defs>
       <use xlink:href="#DejaVuSans-32"/>
       <use xlink:href="#DejaVuSans-30" x="63.623047"/>
       <use xlink:href="#DejaVuSans-31" x="127.246094"/>
       <use xlink:href="#DejaVuSans-39" x="190.869141"/>
       <use xlink:href="#DejaVuSans-2d" x="254.492188"/>
       <use xlink:href="#DejaVuSans-30" x="290.576172"/>
       <use xlink:href="#DejaVuSans-31" x="354.199219"/>
      </g>
     </g>
    </g>
    <g id="xtick_3">
     <g id="line2d_5">
      <path d="M 259.183052 350.30175 
L 259.183052 24.14175 
" clip-path="url(#p027c1bb10d)" style="fill: none; stroke-dasharray: 1.85,0.8; stroke-dashoffset: 0; stroke: #b2b2b2; stroke-width: 0.5"/>
     </g>
     <g id="line2d_6">
      <g>
       <use xlink:href="#me28f87c9c2" x="259.183052" y="350.30175" style="stroke: #000000; stroke-width: 0.8"/>
      </g>
     </g>
     <g id="text_3">
      <!-- 2019-07 -->
      <g transform="translate(238.291646 361.400188)scale(0.1 -0.1)">
       <use xlink:href="#DejaVuSans-32"/>
       <use xlink:href="#DejaVuSans-30" x="63.623047"/>
       <use xlink:href="#DejaVuSans-31" x="127.246094"/>
       <use xlink:href="#DejaVuSans-39" x="190.869141"/>
       <use xlink:href="#DejaVuSans-2d" x="254.492188"/>
       <use xlink:href="#DejaVuSans-30" x="290.576172"/>
       <use xlink:href="#DejaVuSans-37" x="354.199219"/>
      </g>
     </g>
    </g>
    <g id="xtick_4">
     <g id="line2d_7">
      <path d="M 334.093311 350.30175 
L 334.093311 24.14175 
" clip-path="url(#p027c1bb10d)" style="fill: none; stroke-dasharray: 1.85,0.8; stroke-dashoffset: 0; stroke: #b2b2b2; stroke-width: 0.5"/>
     </g>
     <g id="line2d_8">
      <g>
       <use xlink:href="#me28f87c9c2" x="334.093311" y="350.30175" style="stroke: #000000; stroke-width: 0.8"/>
      </g>
     </g>
     <g id="text_4">
      <!-- 2020-01 -->
      <g transform="translate(313.201904 361.400188)scale(0.1 -0.1)">
       <use xlink:href="#DejaVuSans-32"/>
       <use xlink:href="#DejaVuSans-30" x="63.623047"/>
       <use xlink:href="#DejaVuSans-32" x="127.246094"/>
       <use xlink:href="#DejaVuSans-30" x="190.869141"/>
       <use xlink:href="#DejaVuSans-2d" x="254.492188"/>
       <use xlink:href="#DejaVuSans-30" x="290.576172"/>
       <use xlink:href="#DejaVuSans-31" x="354.199219"/>
      </g>
     </g>
    </g>
    <g id="xtick_5">
     <g id="line2d_9">
      <path d="M 408.189327 350.30175 
L 408.189327 24.14175 
" clip-path="url(#p027c1bb10d)" style="fill: none; stroke-dasharray: 1.85,0.8; stroke-dashoffset: 0; stroke: #b2b2b2; stroke-width: 0.5"/>
     </g>
     <g id="line2d_10">
      <g>
       <use xlink:href="#me28f87c9c2" x="408.189327" y="350.30175" style="stroke: #000000; stroke-width: 0.8"/>
      </g>
     </g>
     <g id="text_5">
      <!-- 2020-07 -->
      <g transform="translate(387.297921 361.400188)scale(0.1 -0.1)">
       <use xlink:href="#DejaVuSans-32"/>
       <use xlink:href="#DejaVuSans-30" x="63.623047"/>
       <use xlink:href="#DejaVuSans-32" x="127.246094"/>
       <use xlink:href="#DejaVuSans-30" x="190.869141"/>
       <use xlink:href="#DejaVuSans-2d" x="254.492188"/>
       <use xlink:href="#DejaVuSans-30" x="290.576172"/>
       <use xlink:href="#DejaVuSans-37" x="354.199219"/>
      </g>
     </g>
    </g>
    <g id="xtick_6">
     <g id="line2d_11">
      <path d="M 483.099585 350.30175 
L 483.099585 24.14175 
" clip-path="url(#p027c1bb10d)" style="fill: none; stroke-dasharray: 1.85,0.8; stroke-dashoffset: 0; stroke: #b2b2b2; stroke-width: 0.5"/>
     </g>
     <g id="line2d_12">
      <g>
       <use xlink:href="#me28f87c9c2" x="483.099585" y="350.30175" style="stroke: #000000; stroke-width: 0.8"/>
      </g>
     </g>
     <g id="text_6">
      <!-- 2021-01 -->
      <g transform="translate(462.208179 361.400188)scale(0.1 -0.1)">
       <use xlink:href="#DejaVuSans-32"/>
       <use xlink:href="#DejaVuSans-30" x="63.623047"/>
       <use xlink:href="#DejaVuSans-32" x="127.246094"/>
       <use xlink:href="#DejaVuSans-31" x="190.869141"/>
       <use xlink:href="#DejaVuSans-2d" x="254.492188"/>
       <use xlink:href="#DejaVuSans-30" x="290.576172"/>
       <use xlink:href="#DejaVuSans-31" x="354.199219"/>
      </g>
     </g>
    </g>
    <g id="xtick_7">
     <g id="line2d_13">
      <path d="M 556.788481 350.30175 
L 556.788481 24.14175 
" clip-path="url(#p027c1bb10d)" style="fill: none; stroke-dasharray: 1.85,0.8; stroke-dashoffset: 0; stroke: #b2b2b2; stroke-width: 0.5"/>
     </g>
     <g id="line2d_14">
      <g>
       <use xlink:href="#me28f87c9c2" x="556.788481" y="350.30175" style="stroke: #000000; stroke-width: 0.8"/>
      </g>
     </g>
     <g id="text_7">
      <!-- 2021-07 -->
      <g transform="translate(535.897074 361.400188)scale(0.1 -0.1)">
       <use xlink:href="#DejaVuSans-32"/>
       <use xlink:href="#DejaVuSans-30" x="63.623047"/>
       <use xlink:href="#DejaVuSans-32" x="127.246094"/>
       <use xlink:href="#DejaVuSans-31" x="190.869141"/>
       <use xlink:href="#DejaVuSans-2d" x="254.492188"/>
       <use xlink:href="#DejaVuSans-30" x="290.576172"/>
       <use xlink:href="#DejaVuSans-37" x="354.199219"/>
      </g>
     </g>
    </g>
    <g id="text_8">
     <!-- date -->
     <g transform="translate(314.049375 376.598)scale(0.12 -0.12)">
      <defs>
       <path id="DejaVuSans-64" d="M 2906 2969 
L 2906 4863 
L 3481 4863 
L 3481 0 
L 2906 0 
L 2906 525 
Q 2725 213 2448 61 
Q 2172 -91 1784 -91 
Q 1150 -91 751 415 
Q 353 922 353 1747 
Q 353 2572 751 3078 
Q 1150 3584 1784 3584 
Q 2172 3584 2448 3432 
Q 2725 3281 2906 2969 
z
M 947 1747 
Q 947 1113 1208 752 
Q 1469 391 1925 391 
Q 2381 391 2643 752 
Q 2906 1113 2906 1747 
Q 2906 2381 2643 2742 
Q 2381 3103 1925 3103 
Q 1469 3103 1208 2742 
Q 947 2381 947 1747 
z
" transform="scale(0.015625)"/>
       <path id="DejaVuSans-61" d="M 2194 1759 
Q 1497 1759 1228 1600 
Q 959 1441 959 1056 
Q 959 750 1161 570 
Q 1363 391 1709 391 
Q 2188 391 2477 730 
Q 2766 1069 2766 1631 
L 2766 1759 
L 2194 1759 
z
M 3341 1997 
L 3341 0 
L 2766 0 
L 2766 531 
Q 2569 213 2275 61 
Q 1981 -91 1556 -91 
Q 1019 -91 701 211 
Q 384 513 384 1019 
Q 384 1609 779 1909 
Q 1175 2209 1959 2209 
L 2766 2209 
L 2766 2266 
Q 2766 2663 2505 2880 
Q 2244 3097 1772 3097 
Q 1472 3097 1187 3025 
Q 903 2953 641 2809 
L 641 3341 
Q 956 3463 1253 3523 
Q 1550 3584 1831 3584 
Q 2591 3584 2966 3190 
Q 3341 2797 3341 1997 
z
" transform="scale(0.015625)"/>
       <path id="DejaVuSans-74" d="M 1172 4494 
L 1172 3500 
L 2356 3500 
L 2356 3053 
L 1172 3053 
L 1172 1153 
Q 1172 725 1289 603 
Q 1406 481 1766 481 
L 2356 481 
L 2356 0 
L 1766 0 
Q 1100 0 847 248 
Q 594 497 594 1153 
L 594 3053 
L 172 3053 
L 172 3500 
L 594 3500 
L 594 4494 
L 1172 4494 
z
" transform="scale(0.015625)"/>
       <path id="DejaVuSans-65" d="M 3597 1894 
L 3597 1613 
L 953 1613 
Q 991 1019 1311 708 
Q 1631 397 2203 397 
Q 2534 397 2845 478 
Q 3156 559 3463 722 
L 3463 178 
Q 3153 47 2828 -22 
Q 2503 -91 2169 -91 
Q 1331 -91 842 396 
Q 353 884 353 1716 
Q 353 2575 817 3079 
Q 1281 3584 2069 3584 
Q 2775 3584 3186 3129 
Q 3597 2675 3597 1894 
z
M 3022 2063 
Q 3016 2534 2758 2815 
Q 2500 3097 2075 3097 
Q 1594 3097 1305 2825 
Q 1016 2553 972 2059 
L 3022 2063 
z
" transform="scale(0.015625)"/>
      </defs>
      <use xlink:href="#DejaVuSans-64"/>
      <use xlink:href="#DejaVuSans-61" x="63.476562"/>
      <use xlink:href="#DejaVuSans-74" x="124.755859"/>
      <use xlink:href="#DejaVuSans-65" x="163.964844"/>
     </g>
    </g>
   </g>
   <g id="matplotlib.axis_2">
    <g id="ytick_1">
     <g id="line2d_15">
      <path d="M 48.579375 348.576004 
L 606.579375 348.576004 
" clip-path="url(#p027c1bb10d)" style="fill: none; stroke-dasharray: 1.85,0.8; stroke-dashoffset: 0; stroke: #b2b2b2; stroke-width: 0.5"/>
     </g>
     <g id="line2d_16">
      <defs>
       <path id="m41fe1ecce6" d="M 0 0 
L 3.5 0 
" style="stroke: #000000; stroke-width: 0.8"/>
      </defs>
      <g>
       <use xlink:href="#m41fe1ecce6" x="48.579375" y="348.576004" style="stroke: #000000; stroke-width: 0.8"/>
      </g>
     </g>
     <g id="text_9">
      <!-- 3.50 -->
      <g transform="translate(22.81375 352.375223)scale(0.1 -0.1)">
       <defs>
        <path id="DejaVuSans-33" d="M 2597 2516 
Q 3050 2419 3304 2112 
Q 3559 1806 3559 1356 
Q 3559 666 3084 287 
Q 2609 -91 1734 -91 
Q 1441 -91 1130 -33 
Q 819 25 488 141 
L 488 750 
Q 750 597 1062 519 
Q 1375 441 1716 441 
Q 2309 441 2620 675 
Q 2931 909 2931 1356 
Q 2931 1769 2642 2001 
Q 2353 2234 1838 2234 
L 1294 2234 
L 1294 2753 
L 1863 2753 
Q 2328 2753 2575 2939 
Q 2822 3125 2822 3475 
Q 2822 3834 2567 4026 
Q 2313 4219 1838 4219 
Q 1578 4219 1281 4162 
Q 984 4106 628 3988 
L 628 4550 
Q 988 4650 1302 4700 
Q 1616 4750 1894 4750 
Q 2613 4750 3031 4423 
Q 3450 4097 3450 3541 
Q 3450 3153 3228 2886 
Q 3006 2619 2597 2516 
z
" transform="scale(0.015625)"/>
        <path id="DejaVuSans-2e" d="M 684 794 
L 1344 794 
L 1344 0 
L 684 0 
L 684 794 
z
" transform="scale(0.015625)"/>
        <path id="DejaVuSans-35" d="M 691 4666 
L 3169 4666 
L 3169 4134 
L 1269 4134 
L 1269 2991 
Q 1406 3038 1543 3061 
Q 1681 3084 1819 3084 
Q 2600 3084 3056 2656 
Q 3513 2228 3513 1497 
Q 3513 744 3044 326 
Q 2575 -91 1722 -91 
Q 1428 -91 1123 -41 
Q 819 9 494 109 
L 494 744 
Q 775 591 1075 516 
Q 1375 441 1709 441 
Q 2250 441 2565 725 
Q 2881 1009 2881 1497 
Q 2881 1984 2565 2268 
Q 2250 2553 1709 2553 
Q 1456 2553 1204 2497 
Q 953 2441 691 2322 
L 691 4666 
z
" transform="scale(0.015625)"/>
       </defs>
       <use xlink:href="#DejaVuSans-33"/>
       <use xlink:href="#DejaVuSans-2e" x="63.623047"/>
       <use xlink:href="#DejaVuSans-35" x="95.410156"/>
       <use xlink:href="#DejaVuSans-30" x="159.033203"/>
      </g>
     </g>
    </g>
    <g id="ytick_2">
     <g id="line2d_17">
      <path d="M 48.579375 309.868803 
L 606.579375 309.868803 
" clip-path="url(#p027c1bb10d)" style="fill: none; stroke-dasharray: 1.85,0.8; stroke-dashoffset: 0; stroke: #b2b2b2; stroke-width: 0.5"/>
     </g>
     <g id="line2d_18">
      <g>
       <use xlink:href="#m41fe1ecce6" x="48.579375" y="309.868803" style="stroke: #000000; stroke-width: 0.8"/>
      </g>
     </g>
     <g id="text_10">
      <!-- 3.75 -->
      <g transform="translate(22.81375 313.668022)scale(0.1 -0.1)">
       <use xlink:href="#DejaVuSans-33"/>
       <use xlink:href="#DejaVuSans-2e" x="63.623047"/>
       <use xlink:href="#DejaVuSans-37" x="95.410156"/>
       <use xlink:href="#DejaVuSans-35" x="159.033203"/>
      </g>
     </g>
    </g>
    <g id="ytick_3">
     <g id="line2d_19">
      <path d="M 48.579375 271.161603 
L 606.579375 271.161603 
" clip-path="url(#p027c1bb10d)" style="fill: none; stroke-dasharray: 1.85,0.8; stroke-dashoffset: 0; stroke: #b2b2b2; stroke-width: 0.5"/>
     </g>
     <g id="line2d_20">
      <g>
       <use xlink:href="#m41fe1ecce6" x="48.579375" y="271.161603" style="stroke: #000000; stroke-width: 0.8"/>
      </g>
     </g>
     <g id="text_11">
      <!-- 4.00 -->
      <g transform="translate(22.81375 274.960821)scale(0.1 -0.1)">
       <defs>
        <path id="DejaVuSans-34" d="M 2419 4116 
L 825 1625 
L 2419 1625 
L 2419 4116 
z
M 2253 4666 
L 3047 4666 
L 3047 1625 
L 3713 1625 
L 3713 1100 
L 3047 1100 
L 3047 0 
L 2419 0 
L 2419 1100 
L 313 1100 
L 313 1709 
L 2253 4666 
z
" transform="scale(0.015625)"/>
       </defs>
       <use xlink:href="#DejaVuSans-34"/>
       <use xlink:href="#DejaVuSans-2e" x="63.623047"/>
       <use xlink:href="#DejaVuSans-30" x="95.410156"/>
       <use xlink:href="#DejaVuSans-30" x="159.033203"/>
      </g>
     </g>
    </g>
    <g id="ytick_4">
     <g id="line2d_21">
      <path d="M 48.579375 232.454402 
L 606.579375 232.454402 
" clip-path="url(#p027c1bb10d)" style="fill: none; stroke-dasharray: 1.85,0.8; stroke-dashoffset: 0; stroke: #b2b2b2; stroke-width: 0.5"/>
     </g>
     <g id="line2d_22">
      <g>
       <use xlink:href="#m41fe1ecce6" x="48.579375" y="232.454402" style="stroke: #000000; stroke-width: 0.8"/>
      </g>
     </g>
     <g id="text_12">
      <!-- 4.25 -->
      <g transform="translate(22.81375 236.253621)scale(0.1 -0.1)">
       <use xlink:href="#DejaVuSans-34"/>
       <use xlink:href="#DejaVuSans-2e" x="63.623047"/>
       <use xlink:href="#DejaVuSans-32" x="95.410156"/>
       <use xlink:href="#DejaVuSans-35" x="159.033203"/>
      </g>
     </g>
    </g>
    <g id="ytick_5">
     <g id="line2d_23">
      <path d="M 48.579375 193.747201 
L 606.579375 193.747201 
" clip-path="url(#p027c1bb10d)" style="fill: none; stroke-dasharray: 1.85,0.8; stroke-dashoffset: 0; stroke: #b2b2b2; stroke-width: 0.5"/>
     </g>
     <g id="line2d_24">
      <g>
       <use xlink:href="#m41fe1ecce6" x="48.579375" y="193.747201" style="stroke: #000000; stroke-width: 0.8"/>
      </g>
     </g>
     <g id="text_13">
      <!-- 4.50 -->
      <g transform="translate(22.81375 197.54642)scale(0.1 -0.1)">
       <use xlink:href="#DejaVuSans-34"/>
       <use xlink:href="#DejaVuSans-2e" x="63.623047"/>
       <use xlink:href="#DejaVuSans-35" x="95.410156"/>
       <use xlink:href="#DejaVuSans-30" x="159.033203"/>
      </g>
     </g>
    </g>
    <g id="ytick_6">
     <g id="line2d_25">
      <path d="M 48.579375 155.04 
L 606.579375 155.04 
" clip-path="url(#p027c1bb10d)" style="fill: none; stroke-dasharray: 1.85,0.8; stroke-dashoffset: 0; stroke: #b2b2b2; stroke-width: 0.5"/>
     </g>
     <g id="line2d_26">
      <g>
       <use xlink:href="#m41fe1ecce6" x="48.579375" y="155.04" style="stroke: #000000; stroke-width: 0.8"/>
      </g>
     </g>
     <g id="text_14">
      <!-- 4.75 -->
      <g transform="translate(22.81375 158.839219)scale(0.1 -0.1)">
       <use xlink:href="#DejaVuSans-34"/>
       <use xlink:href="#DejaVuSans-2e" x="63.623047"/>
       <use xlink:href="#DejaVuSans-37" x="95.410156"/>
       <use xlink:href="#DejaVuSans-35" x="159.033203"/>
      </g>
     </g>
    </g>
    <g id="ytick_7">
     <g id="line2d_27">
      <path d="M 48.579375 116.3328 
L 606.579375 116.3328 
" clip-path="url(#p027c1bb10d)" style="fill: none; stroke-dasharray: 1.85,0.8; stroke-dashoffset: 0; stroke: #b2b2b2; stroke-width: 0.5"/>
     </g>
     <g id="line2d_28">
      <g>
       <use xlink:href="#m41fe1ecce6" x="48.579375" y="116.3328" style="stroke: #000000; stroke-width: 0.8"/>
      </g>
     </g>
     <g id="text_15">
      <!-- 5.00 -->
      <g transform="translate(22.81375 120.132018)scale(0.1 -0.1)">
       <use xlink:href="#DejaVuSans-35"/>
       <use xlink:href="#DejaVuSans-2e" x="63.623047"/>
       <use xlink:href="#DejaVuSans-30" x="95.410156"/>
       <use xlink:href="#DejaVuSans-30" x="159.033203"/>
      </g>
     </g>
    </g>
    <g id="ytick_8">
     <g id="line2d_29">
      <path d="M 48.579375 77.625599 
L 606.579375 77.625599 
" clip-path="url(#p027c1bb10d)" style="fill: none; stroke-dasharray: 1.85,0.8; stroke-dashoffset: 0; stroke: #b2b2b2; stroke-width: 0.5"/>
     </g>
     <g id="line2d_30">
      <g>
       <use xlink:href="#m41fe1ecce6" x="48.579375" y="77.625599" style="stroke: #000000; stroke-width: 0.8"/>
      </g>
     </g>
     <g id="text_16">
      <!-- 5.25 -->
      <g transform="translate(22.81375 81.424818)scale(0.1 -0.1)">
       <use xlink:href="#DejaVuSans-35"/>
       <use xlink:href="#DejaVuSans-2e" x="63.623047"/>
       <use xlink:href="#DejaVuSans-32" x="95.410156"/>
       <use xlink:href="#DejaVuSans-35" x="159.033203"/>
      </g>
     </g>
    </g>
    <g id="ytick_9">
     <g id="line2d_31">
      <path d="M 48.579375 38.918398 
L 606.579375 38.918398 
" clip-path="url(#p027c1bb10d)" style="fill: none; stroke-dasharray: 1.85,0.8; stroke-dashoffset: 0; stroke: #b2b2b2; stroke-width: 0.5"/>
     </g>
     <g id="line2d_32">
      <g>
       <use xlink:href="#m41fe1ecce6" x="48.579375" y="38.918398" style="stroke: #000000; stroke-width: 0.8"/>
      </g>
     </g>
     <g id="text_17">
      <!-- 5.50 -->
      <g transform="translate(22.81375 42.717617)scale(0.1 -0.1)">
       <use xlink:href="#DejaVuSans-35"/>
       <use xlink:href="#DejaVuSans-2e" x="63.623047"/>
       <use xlink:href="#DejaVuSans-35" x="95.410156"/>
       <use xlink:href="#DejaVuSans-30" x="159.033203"/>
      </g>
     </g>
    </g>
    <g id="text_18">
     <!-- y -->
     <g transform="translate(16.318125 190.773)rotate(-90)scale(0.12 -0.12)">
      <defs>
       <path id="DejaVuSans-79" d="M 2059 -325 
Q 1816 -950 1584 -1140 
Q 1353 -1331 966 -1331 
L 506 -1331 
L 506 -850 
L 844 -850 
Q 1081 -850 1212 -737 
Q 1344 -625 1503 -206 
L 1606 56 
L 191 3500 
L 800 3500 
L 1894 763 
L 2988 3500 
L 3597 3500 
L 2059 -325 
z
" transform="scale(0.015625)"/>
      </defs>
      <use xlink:href="#DejaVuSans-79"/>
     </g>
    </g>
   </g>
   <g id="line2d_33">
    <path d="M 73.943011 291.912135 
L 76.792858 202.062876 
L 79.642705 179.240654 
L 82.492552 172.092744 
L 85.342398 218.300464 
L 88.192245 244.210549 
L 91.042092 253.047626 
L 93.891939 190.500447 
L 96.741786 193.482215 
L 99.591632 185.619139 
L 102.441479 239.364513 
L 105.291326 204.934101 
L 108.141173 202.490554 
L 110.99102 259.418443 
L 113.840866 295.394356 
L 116.690713 312.498224 
L 119.54056 325.334624 
L 122.390407 283.979467 
L 125.240253 282.493265 
L 128.0901 307.651795 
L 130.939947 258.209966 
L 133.789794 289.611926 
L 136.639641 292.06377 
L 139.489487 293.909996 
L 142.339334 247.72454 
L 145.189181 198.239611 
L 148.039028 221.512398 
L 150.888874 182.987554 
L 153.738721 163.466409 
L 156.588568 180.781612 
L 159.438415 147.232582 
L 162.288262 150.70084 
L 165.138108 172.209701 
L 167.987955 119.018383 
L 170.837802 90.658905 
L 173.687649 102.411145 
L 176.537496 126.492556 
L 179.387342 171.33162 
L 182.237189 145.380311 
L 185.087036 145.3834 
L 187.936883 177.759354 
L 190.786729 173.133432 
L 193.636576 207.275095 
L 196.486423 173.407652 
L 199.33627 212.657898 
L 202.186117 192.687358 
L 205.035963 216.753483 
L 207.88581 193.853817 
L 210.735657 190.050134 
L 213.585504 225.032938 
L 216.43535 172.55992 
L 219.285197 167.46937 
L 222.135044 158.288458 
L 224.984891 143.446063 
L 227.834738 142.036863 
L 230.684584 134.47478 
L 233.534431 170.614907 
L 236.384278 186.974115 
L 239.234125 197.94701 
L 242.083972 198.828541 
L 244.933818 213.081125 
L 247.783665 219.033068 
L 250.633512 189.904265 
L 253.483359 217.615004 
L 256.333205 224.868277 
L 259.183052 208.793157 
L 262.032899 245.047283 
L 264.882746 214.413098 
L 267.732593 247.814048 
L 270.582439 227.546021 
L 273.432286 218.17152 
L 276.282133 232.195017 
L 279.13198 259.653467 
L 281.981826 211.623901 
L 284.831673 226.469133 
L 287.68152 187.577965 
L 290.531367 178.1097 
L 293.381214 191.017166 
L 296.23106 187.694452 
L 299.080907 199.73299 
L 301.930754 137.487453 
L 304.780601 116.151226 
L 307.630448 115.269004 
L 310.480294 136.606123 
L 313.330141 136.847923 
L 316.179988 132.435045 
L 319.029835 89.094428 
L 321.879681 86.563689 
L 324.729528 86.94681 
L 327.579375 90.196374 
L 330.429222 121.01238 
L 333.279069 106.796183 
L 336.128915 122.490781 
L 338.978762 130.663992 
L 341.828609 135.76842 
L 344.678456 156.8192 
L 347.528302 151.232075 
L 350.378149 160.375037 
L 353.227996 184.700298 
L 356.077843 198.575409 
L 358.92769 214.157772 
L 361.777536 177.622761 
L 364.627383 185.405804 
L 367.47723 172.237624 
L 370.327077 145.327479 
L 373.176924 153.256014 
L 376.02677 133.833911 
L 378.876617 132.410784 
L 381.726464 145.963477 
L 384.576311 160.281628 
L 387.426157 180.745389 
L 390.276004 170.748335 
L 393.125851 140.489755 
L 395.975698 118.418319 
L 398.825545 149.103925 
L 401.675391 149.138595 
L 404.525238 160.456379 
L 407.375085 196.668967 
L 410.224932 172.647639 
L 413.074778 186.29883 
L 415.924625 188.004252 
L 418.774472 204.426066 
L 421.624319 201.663397 
L 424.474166 240.847418 
L 427.324012 227.344359 
L 430.173859 195.822781 
L 433.023706 200.035608 
L 435.873553 179.745878 
L 438.7234 179.265426 
L 441.573246 166.412125 
L 444.423093 162.304634 
L 447.27294 145.639615 
L 450.122787 150.41791 
L 452.972633 125.253407 
L 455.82248 98.62443 
L 458.672327 79.237286 
L 461.522174 87.038966 
L 464.372021 70.657285 
L 467.221867 70.913253 
L 470.071714 74.458923 
L 472.921561 59.018911 
L 475.771408 68.333226 
L 478.621254 101.490499 
L 481.471101 104.289376 
L 484.320948 118.950094 
L 490.020642 139.19304 
L 492.870488 143.792812 
L 495.720335 145.665218 
L 498.570182 158.676334 
L 501.420029 139.723135 
L 504.269876 153.285008 
L 507.119722 172.270522 
L 509.969569 150.668422 
L 512.819416 131.767724 
L 515.669263 151.083371 
L 518.519109 112.402196 
L 521.368956 116.679414 
L 524.218803 141.8473 
L 527.06865 109.692304 
L 529.918497 134.541754 
L 532.768343 106.621562 
L 535.61819 99.55057 
L 538.468037 122.268616 
L 541.317884 120.716155 
L 544.16773 118.3267 
L 547.017577 132.487679 
L 549.867424 137.798935 
L 552.717271 174.913608 
L 555.567118 173.914738 
L 558.416964 176.352878 
L 561.266811 196.557586 
L 564.116658 188.456078 
L 566.966505 198.230315 
L 569.816352 190.223261 
L 572.666198 195.08332 
L 575.516045 189.866417 
L 578.365892 178.693497 
L 581.215739 175.367544 
L 581.215739 175.367544 
" clip-path="url(#p027c1bb10d)" style="fill: none; stroke: #000000; stroke-width: 2; stroke-linecap: square"/>
   </g>
   <g id="line2d_34">
    <path d="M 73.943011 270.255955 
L 76.792858 197.271839 
L 79.642705 176.076315 
L 82.492552 174.4017 
L 85.342398 216.121578 
L 88.192245 237.563928 
L 91.042092 252.80602 
L 93.891939 198.41315 
L 96.741786 193.222032 
L 99.591632 189.308863 
L 102.441479 241.125664 
L 105.291326 205.200318 
L 108.141173 198.581836 
L 110.99102 257.189529 
L 113.840866 288.441178 
L 116.690713 306.495702 
L 119.54056 316.584064 
L 122.390407 292.527406 
L 125.240253 286.144339 
L 128.0901 303.046253 
L 130.939947 274.237913 
L 133.789794 291.244013 
L 136.639641 290.534799 
L 139.489487 283.369384 
L 142.339334 250.704548 
L 145.189181 205.219885 
L 148.039028 220.653099 
L 153.738721 166.119319 
L 156.588568 183.95819 
L 159.438415 151.401557 
L 162.288262 163.366953 
L 165.138108 170.074309 
L 167.987955 119.325415 
L 170.837802 94.656773 
L 173.687649 93.164194 
L 176.537496 134.510736 
L 179.387342 160.083171 
L 182.237189 144.256863 
L 185.087036 150.865541 
L 187.936883 182.037247 
L 190.786729 176.543739 
L 193.636576 205.181257 
L 196.486423 175.053953 
L 199.33627 206.121886 
L 202.186117 190.914542 
L 205.035963 215.517483 
L 207.88581 203.241168 
L 210.735657 197.273627 
L 213.585504 215.848838 
L 216.43535 176.259129 
L 219.285197 165.545587 
L 222.135044 149.774803 
L 224.984891 138.328932 
L 227.834738 148.794121 
L 230.684584 136.185867 
L 233.534431 172.411668 
L 236.384278 186.394127 
L 239.234125 198.77735 
L 242.083972 202.52857 
L 244.933818 208.140399 
L 247.783665 214.274095 
L 250.633512 185.953222 
L 253.483359 210.80678 
L 256.333205 228.661265 
L 259.183052 221.918105 
L 262.032899 242.681574 
L 264.882746 224.194205 
L 267.732593 250.525206 
L 270.582439 220.439503 
L 273.432286 215.713764 
L 276.282133 244.292343 
L 279.13198 257.134554 
L 281.981826 224.041733 
L 284.831673 208.422624 
L 287.68152 191.767487 
L 290.531367 173.24472 
L 293.381214 187.034241 
L 296.23106 187.851202 
L 299.080907 181.025284 
L 301.930754 138.184056 
L 304.780601 119.81323 
L 307.630448 128.799318 
L 310.480294 131.248898 
L 313.330141 127.924549 
L 316.179988 126.992863 
L 319.029835 98.064212 
L 321.879681 88.216192 
L 324.729528 79.947943 
L 327.579375 93.239603 
L 330.429222 123.004732 
L 333.279069 113.599015 
L 336.128915 112.503034 
L 338.978762 124.938586 
L 341.828609 128.981104 
L 344.678456 144.024115 
L 347.528302 151.972644 
L 350.378149 162.19859 
L 353.227996 184.559447 
L 356.077843 195.047414 
L 358.92769 198.861644 
L 361.777536 176.45808 
L 364.627383 183.360033 
L 367.47723 166.729969 
L 370.327077 142.777202 
L 373.176924 158.402249 
L 376.02677 150.9186 
L 378.876617 130.908542 
L 381.726464 147.240038 
L 384.576311 157.314516 
L 387.426157 160.945975 
L 390.276004 162.799242 
L 393.125851 137.604375 
L 395.975698 135.773008 
L 398.825545 141.61258 
L 401.675391 144.23219 
L 404.525238 151.879053 
L 407.375085 182.415439 
L 410.224932 179.117531 
L 413.074778 189.462281 
L 415.924625 190.680603 
L 418.774472 188.532324 
L 421.624319 213.449094 
L 424.474166 226.442283 
L 427.324012 228.502497 
L 430.173859 215.717184 
L 433.023706 192.368642 
L 435.873553 176.663977 
L 438.7234 182.565076 
L 441.573246 164.609083 
L 444.423093 150.832626 
L 447.27294 145.616258 
L 450.122787 138.164013 
L 452.972633 125.46274 
L 455.82248 92.264826 
L 458.672327 92.844909 
L 461.522174 81.771836 
L 464.372021 66.476989 
L 467.221867 77.754106 
L 470.071714 64.986341 
L 472.921561 56.162001 
L 475.771408 80.182143 
L 478.621254 85.748604 
L 481.471101 99.864801 
L 484.320948 117.158604 
L 487.170795 126.935195 
L 490.020642 124.450234 
L 492.870488 132.007693 
L 495.720335 146.127565 
L 498.570182 156.444362 
L 501.420029 143.255504 
L 504.269876 157.623973 
L 507.119722 163.512705 
L 509.969569 154.852418 
L 512.819416 135.8799 
L 515.669263 147.743053 
L 518.519109 135.836451 
L 521.368956 123.229152 
L 524.218803 131.894712 
L 527.06865 120.353405 
L 529.918497 125.29438 
L 532.768343 116.138145 
L 535.61819 111.230364 
L 538.468037 112.242897 
L 541.317884 130.483103 
L 544.16773 121.653092 
L 547.017577 140.273526 
L 549.867424 154.872709 
L 552.717271 168.46594 
L 555.567118 165.999949 
L 558.416964 164.120745 
L 561.266811 186.111842 
L 564.116658 182.687354 
L 566.966505 199.926446 
L 569.816352 191.34378 
L 572.666198 204.190151 
L 575.516045 189.793707 
L 578.365892 193.062426 
L 581.215739 172.506198 
L 581.215739 172.506198 
" clip-path="url(#p027c1bb10d)" style="fill: none; stroke: #348abd; stroke-width: 2; stroke-linecap: square"/>
   </g>
   <g id="line2d_35">
    <path d="M 73.943011 275.7804 
L 76.792858 276.406517 
L 79.642705 277.556047 
L 82.492552 276.37343 
L 85.342398 275.712311 
L 88.192245 273.728927 
L 91.042092 274.851481 
L 93.891939 274.621601 
L 96.741786 271.309869 
L 99.591632 272.440605 
L 102.441479 270.962993 
L 105.291326 271.013419 
L 108.141173 268.552766 
L 110.99102 268.068509 
L 113.840866 267.338642 
L 116.690713 265.370934 
L 119.54056 265.770185 
L 122.390407 266.28691 
L 125.240253 265.998655 
L 128.0901 263.395371 
L 133.789794 260.655377 
L 139.489487 258.681171 
L 142.339334 258.415189 
L 145.189181 258.274645 
L 148.039028 257.431325 
L 150.888874 256.759044 
L 153.738721 254.787623 
L 156.588568 256.03924 
L 159.438415 254.542286 
L 162.288262 252.29072 
L 165.138108 253.032211 
L 167.987955 251.396302 
L 170.837802 252.036754 
L 173.687649 250.039585 
L 176.537496 248.745189 
L 179.387342 246.112231 
L 182.237189 246.656134 
L 185.087036 243.977828 
L 187.936883 242.570556 
L 190.786729 240.263415 
L 193.636576 240.788875 
L 196.486423 237.522619 
L 199.33627 237.434534 
L 202.186117 233.702061 
L 205.035963 232.142793 
L 207.88581 229.373353 
L 210.735657 228.155965 
L 213.585504 227.818401 
L 216.43535 225.358311 
L 219.285197 224.825893 
L 222.135044 223.654343 
L 224.984891 219.578916 
L 227.834738 221.37171 
L 230.684584 220.259819 
L 233.534431 220.291071 
L 236.384278 217.326277 
L 239.234125 218.397536 
L 242.083972 216.980414 
L 244.933818 217.50693 
L 250.633512 213.434943 
L 253.483359 212.500342 
L 256.333205 212.203794 
L 259.183052 212.757754 
L 262.032899 210.175683 
L 264.882746 210.935325 
L 267.732593 209.003476 
L 270.582439 207.691187 
L 273.432286 206.820142 
L 276.282133 206.711293 
L 279.13198 207.118192 
L 281.981826 207.739654 
L 284.831673 208.112248 
L 287.68152 207.523597 
L 290.531367 204.573836 
L 293.381214 202.793897 
L 296.23106 204.828172 
L 299.080907 203.881197 
L 301.930754 205.191479 
L 304.780601 205.472187 
L 307.630448 205.22037 
L 310.480294 205.53136 
L 313.330141 204.016107 
L 316.179988 205.381485 
L 319.029835 204.475069 
L 321.879681 201.96139 
L 324.729528 204.744446 
L 330.429222 201.855511 
L 333.279069 199.811612 
L 336.128915 198.751471 
L 338.978762 197.113555 
L 341.828609 198.233712 
L 344.678456 195.650383 
L 347.528302 195.580798 
L 350.378149 192.948236 
L 353.227996 192.417816 
L 356.077843 190.873208 
L 358.92769 189.463848 
L 361.777536 187.843607 
L 364.627383 186.683299 
L 367.47723 184.681728 
L 370.327077 184.255087 
L 373.176924 183.193014 
L 376.02677 181.580248 
L 378.876617 178.334142 
L 381.726464 178.660919 
L 384.576311 179.643975 
L 387.426157 179.967415 
L 393.125851 174.662412 
L 395.975698 176.798983 
L 398.825545 174.388252 
L 404.525238 176.51987 
L 407.375085 173.216131 
L 410.224932 174.801626 
L 413.074778 173.072166 
L 415.924625 172.641359 
L 418.774472 172.69575 
L 421.624319 171.794019 
L 424.474166 173.117939 
L 427.324012 171.280659 
L 430.173859 170.684697 
L 433.023706 169.713547 
L 435.873553 171.476865 
L 441.573246 168.096378 
L 444.423093 166.58063 
L 447.27294 165.788553 
L 450.122787 166.527999 
L 452.972633 164.844895 
L 455.82248 164.68882 
L 458.672327 163.122991 
L 461.522174 164.043644 
L 464.372021 162.239656 
L 467.221867 163.157078 
L 470.071714 164.544149 
L 472.921561 161.022834 
L 475.771408 162.170755 
L 478.621254 162.459172 
L 481.471101 158.410687 
L 484.320948 160.716551 
L 487.170795 157.306193 
L 490.020642 157.735418 
L 492.870488 159.165866 
L 495.720335 155.85352 
L 498.570182 156.652732 
L 501.420029 155.949382 
L 504.269876 155.764828 
L 507.119722 156.320277 
L 509.969569 155.278549 
L 512.819416 152.835515 
L 515.669263 155.112838 
L 518.519109 154.500248 
L 521.368956 153.059724 
L 524.218803 151.818965 
L 527.06865 151.978009 
L 529.918497 150.121183 
L 532.768343 151.130413 
L 535.61819 149.455863 
L 538.468037 148.22174 
L 541.317884 150.251163 
L 547.017577 148.513408 
L 549.867424 149.89705 
L 552.717271 150.153232 
L 555.567118 149.895405 
L 558.416964 146.987597 
L 561.266811 149.377692 
L 564.116658 145.135319 
L 566.966505 146.652856 
L 569.816352 146.326315 
L 572.666198 148.899243 
L 575.516045 147.716717 
L 578.365892 145.59494 
L 581.215739 146.282623 
L 581.215739 146.282623 
" clip-path="url(#p027c1bb10d)" style="fill: none; stroke: #ff0000; stroke-opacity: 0.8; stroke-width: 2; stroke-linecap: square"/>
   </g>
   <g id="line2d_36">
    <path d="M 73.943011 350.30175 
L 73.943011 24.14175 
" clip-path="url(#p027c1bb10d)" style="fill: none; stroke-dasharray: 7.4,3.2; stroke-dashoffset: 0; stroke: #ff0000; stroke-opacity: 0.3; stroke-width: 2"/>
   </g>
   <g id="line2d_37">
    <path d="M 125.240253 350.30175 
L 125.240253 24.14175 
" clip-path="url(#p027c1bb10d)" style="fill: none; stroke-dasharray: 7.4,3.2; stroke-dashoffset: 0; stroke: #ff0000; stroke-opacity: 0.3; stroke-width: 2"/>
   </g>
   <g id="line2d_38">
    <path d="M 176.537496 350.30175 
L 176.537496 24.14175 
" clip-path="url(#p027c1bb10d)" style="fill: none; stroke-dasharray: 7.4,3.2; stroke-dashoffset: 0; stroke: #ff0000; stroke-opacity: 0.3; stroke-width: 2"/>
   </g>
   <g id="line2d_39">
    <path d="M 224.984891 350.30175 
L 224.984891 24.14175 
" clip-path="url(#p027c1bb10d)" style="fill: none; stroke-dasharray: 7.4,3.2; stroke-dashoffset: 0; stroke: #ff0000; stroke-opacity: 0.3; stroke-width: 2"/>
   </g>
   <g id="line2d_40">
    <path d="M 276.282133 350.30175 
L 276.282133 24.14175 
" clip-path="url(#p027c1bb10d)" style="fill: none; stroke-dasharray: 7.4,3.2; stroke-dashoffset: 0; stroke: #ff0000; stroke-opacity: 0.3; stroke-width: 2"/>
   </g>
   <g id="line2d_41">
    <path d="M 327.579375 350.30175 
L 327.579375 24.14175 
" clip-path="url(#p027c1bb10d)" style="fill: none; stroke-dasharray: 7.4,3.2; stroke-dashoffset: 0; stroke: #ff0000; stroke-opacity: 0.3; stroke-width: 2"/>
   </g>
   <g id="line2d_42">
    <path d="M 378.876617 350.30175 
L 378.876617 24.14175 
" clip-path="url(#p027c1bb10d)" style="fill: none; stroke-dasharray: 7.4,3.2; stroke-dashoffset: 0; stroke: #ff0000; stroke-opacity: 0.3; stroke-width: 2"/>
   </g>
   <g id="line2d_43">
    <path d="M 430.173859 350.30175 
L 430.173859 24.14175 
" clip-path="url(#p027c1bb10d)" style="fill: none; stroke-dasharray: 7.4,3.2; stroke-dashoffset: 0; stroke: #ff0000; stroke-opacity: 0.3; stroke-width: 2"/>
   </g>
   <g id="line2d_44">
    <path d="M 478.621254 350.30175 
L 478.621254 24.14175 
" clip-path="url(#p027c1bb10d)" style="fill: none; stroke-dasharray: 7.4,3.2; stroke-dashoffset: 0; stroke: #ff0000; stroke-opacity: 0.3; stroke-width: 2"/>
   </g>
   <g id="line2d_45">
    <path d="M 529.918497 350.30175 
L 529.918497 24.14175 
" clip-path="url(#p027c1bb10d)" style="fill: none; stroke-dasharray: 7.4,3.2; stroke-dashoffset: 0; stroke: #ff0000; stroke-opacity: 0.3; stroke-width: 2"/>
   </g>
   <g id="line2d_46">
    <path d="M 581.215739 350.30175 
L 581.215739 24.14175 
" clip-path="url(#p027c1bb10d)" style="fill: none; stroke-dasharray: 7.4,3.2; stroke-dashoffset: 0; stroke: #ff0000; stroke-opacity: 0.3; stroke-width: 2"/>
   </g>
   <g id="patch_3">
    <path d="M 48.579375 350.30175 
L 48.579375 24.14175 
" style="fill: none; stroke: #bcbcbc; stroke-width: 0.8; stroke-linejoin: miter; stroke-linecap: square"/>
   </g>
   <g id="patch_4">
    <path d="M 606.579375 350.30175 
L 606.579375 24.14175 
" style="fill: none; stroke: #bcbcbc; stroke-width: 0.8; stroke-linejoin: miter; stroke-linecap: square"/>
   </g>
   <g id="patch_5">
    <path d="M 48.579375 350.30175 
L 606.579375 350.30175 
" style="fill: none; stroke: #bcbcbc; stroke-width: 0.8; stroke-linejoin: miter; stroke-linecap: square"/>
   </g>
   <g id="patch_6">
    <path d="M 48.579375 24.14175 
L 606.579375 24.14175 
" style="fill: none; stroke: #bcbcbc; stroke-width: 0.8; stroke-linejoin: miter; stroke-linecap: square"/>
   </g>
   <g id="text_19">
    <!-- KTR Model Fit -->
    <g transform="translate(279.377625 18.14175)scale(0.144 -0.144)">
     <defs>
      <path id="DejaVuSans-4b" d="M 628 4666 
L 1259 4666 
L 1259 2694 
L 3353 4666 
L 4166 4666 
L 1850 2491 
L 4331 0 
L 3500 0 
L 1259 2247 
L 1259 0 
L 628 0 
L 628 4666 
z
" transform="scale(0.015625)"/>
      <path id="DejaVuSans-54" d="M -19 4666 
L 3928 4666 
L 3928 4134 
L 2272 4134 
L 2272 0 
L 1638 0 
L 1638 4134 
L -19 4134 
L -19 4666 
z
" transform="scale(0.015625)"/>
      <path id="DejaVuSans-52" d="M 2841 2188 
Q 3044 2119 3236 1894 
Q 3428 1669 3622 1275 
L 4263 0 
L 3584 0 
L 2988 1197 
Q 2756 1666 2539 1819 
Q 2322 1972 1947 1972 
L 1259 1972 
L 1259 0 
L 628 0 
L 628 4666 
L 2053 4666 
Q 2853 4666 3247 4331 
Q 3641 3997 3641 3322 
Q 3641 2881 3436 2590 
Q 3231 2300 2841 2188 
z
M 1259 4147 
L 1259 2491 
L 2053 2491 
Q 2509 2491 2742 2702 
Q 2975 2913 2975 3322 
Q 2975 3731 2742 3939 
Q 2509 4147 2053 4147 
L 1259 4147 
z
" transform="scale(0.015625)"/>
      <path id="DejaVuSans-20" transform="scale(0.015625)"/>
      <path id="DejaVuSans-4d" d="M 628 4666 
L 1569 4666 
L 2759 1491 
L 3956 4666 
L 4897 4666 
L 4897 0 
L 4281 0 
L 4281 4097 
L 3078 897 
L 2444 897 
L 1241 4097 
L 1241 0 
L 628 0 
L 628 4666 
z
" transform="scale(0.015625)"/>
      <path id="DejaVuSans-6f" d="M 1959 3097 
Q 1497 3097 1228 2736 
Q 959 2375 959 1747 
Q 959 1119 1226 758 
Q 1494 397 1959 397 
Q 2419 397 2687 759 
Q 2956 1122 2956 1747 
Q 2956 2369 2687 2733 
Q 2419 3097 1959 3097 
z
M 1959 3584 
Q 2709 3584 3137 3096 
Q 3566 2609 3566 1747 
Q 3566 888 3137 398 
Q 2709 -91 1959 -91 
Q 1206 -91 779 398 
Q 353 888 353 1747 
Q 353 2609 779 3096 
Q 1206 3584 1959 3584 
z
" transform="scale(0.015625)"/>
      <path id="DejaVuSans-6c" d="M 603 4863 
L 1178 4863 
L 1178 0 
L 603 0 
L 603 4863 
z
" transform="scale(0.015625)"/>
      <path id="DejaVuSans-46" d="M 628 4666 
L 3309 4666 
L 3309 4134 
L 1259 4134 
L 1259 2759 
L 3109 2759 
L 3109 2228 
L 1259 2228 
L 1259 0 
L 628 0 
L 628 4666 
z
" transform="scale(0.015625)"/>
      <path id="DejaVuSans-69" d="M 603 3500 
L 1178 3500 
L 1178 0 
L 603 0 
L 603 3500 
z
M 603 4863 
L 1178 4863 
L 1178 4134 
L 603 4134 
L 603 4863 
z
" transform="scale(0.015625)"/>
     </defs>
     <use xlink:href="#DejaVuSans-4b"/>
     <use xlink:href="#DejaVuSans-54" x="57.826172"/>
     <use xlink:href="#DejaVuSans-52" x="118.910156"/>
     <use xlink:href="#DejaVuSans-20" x="188.392578"/>
     <use xlink:href="#DejaVuSans-4d" x="220.179688"/>
     <use xlink:href="#DejaVuSans-6f" x="306.458984"/>
     <use xlink:href="#DejaVuSans-64" x="367.640625"/>
     <use xlink:href="#DejaVuSans-65" x="431.117188"/>
     <use xlink:href="#DejaVuSans-6c" x="492.640625"/>
     <use xlink:href="#DejaVuSans-20" x="520.423828"/>
     <use xlink:href="#DejaVuSans-46" x="552.210938"/>
     <use xlink:href="#DejaVuSans-69" x="602.480469"/>
     <use xlink:href="#DejaVuSans-74" x="630.263672"/>
    </g>
   </g>
   <g id="legend_1">
    <g id="patch_7">
     <path d="M 613.579375 225.417062 
L 770.2575 225.417062 
Q 772.2575 225.417062 772.2575 223.417062 
L 772.2575 151.026437 
Q 772.2575 149.026437 770.2575 149.026437 
L 613.579375 149.026437 
Q 611.579375 149.026437 611.579375 151.026437 
L 611.579375 223.417062 
Q 611.579375 225.417062 613.579375 225.417062 
z
" style="fill: #eeeeee; opacity: 0.8; stroke: #cccccc; stroke-width: 0.5; stroke-linejoin: miter"/>
    </g>
    <g id="line2d_47">
     <path d="M 615.579375 157.124875 
L 625.579375 157.124875 
L 635.579375 157.124875 
" style="fill: none; stroke: #000000; stroke-width: 2; stroke-linecap: square"/>
    </g>
    <g id="text_20">
     <!-- y -->
     <g transform="translate(643.579375 160.624875)scale(0.1 -0.1)">
      <use xlink:href="#DejaVuSans-79"/>
     </g>
    </g>
    <g id="patch_8">
     <path d="M 615.579375 175.303 
L 635.579375 175.303 
L 635.579375 168.303 
L 615.579375 168.303 
z
" style="fill: #348abd; fill-opacity: 0.15; stroke: #348abd; stroke-opacity: 0.15; stroke-width: 0.5; stroke-linejoin: miter"/>
    </g>
    <g id="text_21">
     <!-- prediction interval (95%) -->
     <g transform="translate(643.579375 175.303)scale(0.1 -0.1)">
      <defs>
       <path id="DejaVuSans-70" d="M 1159 525 
L 1159 -1331 
L 581 -1331 
L 581 3500 
L 1159 3500 
L 1159 2969 
Q 1341 3281 1617 3432 
Q 1894 3584 2278 3584 
Q 2916 3584 3314 3078 
Q 3713 2572 3713 1747 
Q 3713 922 3314 415 
Q 2916 -91 2278 -91 
Q 1894 -91 1617 61 
Q 1341 213 1159 525 
z
M 3116 1747 
Q 3116 2381 2855 2742 
Q 2594 3103 2138 3103 
Q 1681 3103 1420 2742 
Q 1159 2381 1159 1747 
Q 1159 1113 1420 752 
Q 1681 391 2138 391 
Q 2594 391 2855 752 
Q 3116 1113 3116 1747 
z
" transform="scale(0.015625)"/>
       <path id="DejaVuSans-72" d="M 2631 2963 
Q 2534 3019 2420 3045 
Q 2306 3072 2169 3072 
Q 1681 3072 1420 2755 
Q 1159 2438 1159 1844 
L 1159 0 
L 581 0 
L 581 3500 
L 1159 3500 
L 1159 2956 
Q 1341 3275 1631 3429 
Q 1922 3584 2338 3584 
Q 2397 3584 2469 3576 
Q 2541 3569 2628 3553 
L 2631 2963 
z
" transform="scale(0.015625)"/>
       <path id="DejaVuSans-63" d="M 3122 3366 
L 3122 2828 
Q 2878 2963 2633 3030 
Q 2388 3097 2138 3097 
Q 1578 3097 1268 2742 
Q 959 2388 959 1747 
Q 959 1106 1268 751 
Q 1578 397 2138 397 
Q 2388 397 2633 464 
Q 2878 531 3122 666 
L 3122 134 
Q 2881 22 2623 -34 
Q 2366 -91 2075 -91 
Q 1284 -91 818 406 
Q 353 903 353 1747 
Q 353 2603 823 3093 
Q 1294 3584 2113 3584 
Q 2378 3584 2631 3529 
Q 2884 3475 3122 3366 
z
" transform="scale(0.015625)"/>
       <path id="DejaVuSans-6e" d="M 3513 2113 
L 3513 0 
L 2938 0 
L 2938 2094 
Q 2938 2591 2744 2837 
Q 2550 3084 2163 3084 
Q 1697 3084 1428 2787 
Q 1159 2491 1159 1978 
L 1159 0 
L 581 0 
L 581 3500 
L 1159 3500 
L 1159 2956 
Q 1366 3272 1645 3428 
Q 1925 3584 2291 3584 
Q 2894 3584 3203 3211 
Q 3513 2838 3513 2113 
z
" transform="scale(0.015625)"/>
       <path id="DejaVuSans-76" d="M 191 3500 
L 800 3500 
L 1894 563 
L 2988 3500 
L 3597 3500 
L 2284 0 
L 1503 0 
L 191 3500 
z
" transform="scale(0.015625)"/>
       <path id="DejaVuSans-28" d="M 1984 4856 
Q 1566 4138 1362 3434 
Q 1159 2731 1159 2009 
Q 1159 1288 1364 580 
Q 1569 -128 1984 -844 
L 1484 -844 
Q 1016 -109 783 600 
Q 550 1309 550 2009 
Q 550 2706 781 3412 
Q 1013 4119 1484 4856 
L 1984 4856 
z
" transform="scale(0.015625)"/>
       <path id="DejaVuSans-25" d="M 4653 2053 
Q 4381 2053 4226 1822 
Q 4072 1591 4072 1178 
Q 4072 772 4226 539 
Q 4381 306 4653 306 
Q 4919 306 5073 539 
Q 5228 772 5228 1178 
Q 5228 1588 5073 1820 
Q 4919 2053 4653 2053 
z
M 4653 2450 
Q 5147 2450 5437 2106 
Q 5728 1763 5728 1178 
Q 5728 594 5436 251 
Q 5144 -91 4653 -91 
Q 4153 -91 3862 251 
Q 3572 594 3572 1178 
Q 3572 1766 3864 2108 
Q 4156 2450 4653 2450 
z
M 1428 4353 
Q 1159 4353 1004 4120 
Q 850 3888 850 3481 
Q 850 3069 1003 2837 
Q 1156 2606 1428 2606 
Q 1700 2606 1854 2837 
Q 2009 3069 2009 3481 
Q 2009 3884 1853 4118 
Q 1697 4353 1428 4353 
z
M 4250 4750 
L 4750 4750 
L 1831 -91 
L 1331 -91 
L 4250 4750 
z
M 1428 4750 
Q 1922 4750 2215 4408 
Q 2509 4066 2509 3481 
Q 2509 2891 2217 2550 
Q 1925 2209 1428 2209 
Q 931 2209 642 2551 
Q 353 2894 353 3481 
Q 353 4063 643 4406 
Q 934 4750 1428 4750 
z
" transform="scale(0.015625)"/>
       <path id="DejaVuSans-29" d="M 513 4856 
L 1013 4856 
Q 1481 4119 1714 3412 
Q 1947 2706 1947 2009 
Q 1947 1309 1714 600 
Q 1481 -109 1013 -844 
L 513 -844 
Q 928 -128 1133 580 
Q 1338 1288 1338 2009 
Q 1338 2731 1133 3434 
Q 928 4138 513 4856 
z
" transform="scale(0.015625)"/>
      </defs>
      <use xlink:href="#DejaVuSans-70"/>
      <use xlink:href="#DejaVuSans-72" x="63.476562"/>
      <use xlink:href="#DejaVuSans-65" x="102.339844"/>
      <use xlink:href="#DejaVuSans-64" x="163.863281"/>
      <use xlink:href="#DejaVuSans-69" x="227.339844"/>
      <use xlink:href="#DejaVuSans-63" x="255.123047"/>
      <use xlink:href="#DejaVuSans-74" x="310.103516"/>
      <use xlink:href="#DejaVuSans-69" x="349.3125"/>
      <use xlink:href="#DejaVuSans-6f" x="377.095703"/>
      <use xlink:href="#DejaVuSans-6e" x="438.277344"/>
      <use xlink:href="#DejaVuSans-20" x="501.65625"/>
      <use xlink:href="#DejaVuSans-69" x="533.443359"/>
      <use xlink:href="#DejaVuSans-6e" x="561.226562"/>
      <use xlink:href="#DejaVuSans-74" x="624.605469"/>
      <use xlink:href="#DejaVuSans-65" x="663.814453"/>
      <use xlink:href="#DejaVuSans-72" x="725.337891"/>
      <use xlink:href="#DejaVuSans-76" x="766.451172"/>
      <use xlink:href="#DejaVuSans-61" x="825.630859"/>
      <use xlink:href="#DejaVuSans-6c" x="886.910156"/>
      <use xlink:href="#DejaVuSans-20" x="914.693359"/>
      <use xlink:href="#DejaVuSans-28" x="946.480469"/>
      <use xlink:href="#DejaVuSans-39" x="985.494141"/>
      <use xlink:href="#DejaVuSans-35" x="1049.117188"/>
      <use xlink:href="#DejaVuSans-25" x="1112.740234"/>
      <use xlink:href="#DejaVuSans-29" x="1207.759766"/>
     </g>
    </g>
    <g id="line2d_48">
     <path d="M 615.579375 186.481125 
L 625.579375 186.481125 
L 635.579375 186.481125 
" style="fill: none; stroke: #348abd; stroke-width: 2; stroke-linecap: square"/>
    </g>
    <g id="text_22">
     <!-- prediction -->
     <g transform="translate(643.579375 189.981125)scale(0.1 -0.1)">
      <use xlink:href="#DejaVuSans-70"/>
      <use xlink:href="#DejaVuSans-72" x="63.476562"/>
      <use xlink:href="#DejaVuSans-65" x="102.339844"/>
      <use xlink:href="#DejaVuSans-64" x="163.863281"/>
      <use xlink:href="#DejaVuSans-69" x="227.339844"/>
      <use xlink:href="#DejaVuSans-63" x="255.123047"/>
      <use xlink:href="#DejaVuSans-74" x="310.103516"/>
      <use xlink:href="#DejaVuSans-69" x="349.3125"/>
      <use xlink:href="#DejaVuSans-6f" x="377.095703"/>
      <use xlink:href="#DejaVuSans-6e" x="438.277344"/>
     </g>
    </g>
    <g id="line2d_49">
     <path d="M 615.579375 201.15925 
L 625.579375 201.15925 
L 635.579375 201.15925 
" style="fill: none; stroke: #ff0000; stroke-opacity: 0.8; stroke-width: 2; stroke-linecap: square"/>
    </g>
    <g id="text_23">
     <!-- fitted trend -->
     <g transform="translate(643.579375 204.65925)scale(0.1 -0.1)">
      <defs>
       <path id="DejaVuSans-66" d="M 2375 4863 
L 2375 4384 
L 1825 4384 
Q 1516 4384 1395 4259 
Q 1275 4134 1275 3809 
L 1275 3500 
L 2222 3500 
L 2222 3053 
L 1275 3053 
L 1275 0 
L 697 0 
L 697 3053 
L 147 3053 
L 147 3500 
L 697 3500 
L 697 3744 
Q 697 4328 969 4595 
Q 1241 4863 1831 4863 
L 2375 4863 
z
" transform="scale(0.015625)"/>
      </defs>
      <use xlink:href="#DejaVuSans-66"/>
      <use xlink:href="#DejaVuSans-69" x="35.205078"/>
      <use xlink:href="#DejaVuSans-74" x="62.988281"/>
      <use xlink:href="#DejaVuSans-74" x="102.197266"/>
      <use xlink:href="#DejaVuSans-65" x="141.40625"/>
      <use xlink:href="#DejaVuSans-64" x="202.929688"/>
      <use xlink:href="#DejaVuSans-20" x="266.40625"/>
      <use xlink:href="#DejaVuSans-74" x="298.193359"/>
      <use xlink:href="#DejaVuSans-72" x="337.402344"/>
      <use xlink:href="#DejaVuSans-65" x="376.265625"/>
      <use xlink:href="#DejaVuSans-6e" x="437.789062"/>
      <use xlink:href="#DejaVuSans-64" x="501.167969"/>
     </g>
    </g>
    <g id="PathCollection_2">
     <g>
      <use xlink:href="#m52d4c081d2" x="625.579375" y="216.712375" style="fill: #ff0000; stroke: #ffffff; stroke-width: 0.565685"/>
     </g>
    </g>
    <g id="text_24">
     <!-- level knots -->
     <g transform="translate(643.579375 219.337375)scale(0.1 -0.1)">
      <defs>
       <path id="DejaVuSans-6b" d="M 581 4863 
L 1159 4863 
L 1159 1991 
L 2875 3500 
L 3609 3500 
L 1753 1863 
L 3688 0 
L 2938 0 
L 1159 1709 
L 1159 0 
L 581 0 
L 581 4863 
z
" transform="scale(0.015625)"/>
       <path id="DejaVuSans-73" d="M 2834 3397 
L 2834 2853 
Q 2591 2978 2328 3040 
Q 2066 3103 1784 3103 
Q 1356 3103 1142 2972 
Q 928 2841 928 2578 
Q 928 2378 1081 2264 
Q 1234 2150 1697 2047 
L 1894 2003 
Q 2506 1872 2764 1633 
Q 3022 1394 3022 966 
Q 3022 478 2636 193 
Q 2250 -91 1575 -91 
Q 1294 -91 989 -36 
Q 684 19 347 128 
L 347 722 
Q 666 556 975 473 
Q 1284 391 1588 391 
Q 1994 391 2212 530 
Q 2431 669 2431 922 
Q 2431 1156 2273 1281 
Q 2116 1406 1581 1522 
L 1381 1569 
Q 847 1681 609 1914 
Q 372 2147 372 2553 
Q 372 3047 722 3315 
Q 1072 3584 1716 3584 
Q 2034 3584 2315 3537 
Q 2597 3491 2834 3397 
z
" transform="scale(0.015625)"/>
      </defs>
      <use xlink:href="#DejaVuSans-6c"/>
      <use xlink:href="#DejaVuSans-65" x="27.783203"/>
      <use xlink:href="#DejaVuSans-76" x="89.306641"/>
      <use xlink:href="#DejaVuSans-65" x="148.486328"/>
      <use xlink:href="#DejaVuSans-6c" x="210.009766"/>
      <use xlink:href="#DejaVuSans-20" x="237.792969"/>
      <use xlink:href="#DejaVuSans-6b" x="269.580078"/>
      <use xlink:href="#DejaVuSans-6e" x="327.490234"/>
      <use xlink:href="#DejaVuSans-6f" x="390.869141"/>
      <use xlink:href="#DejaVuSans-74" x="452.050781"/>
      <use xlink:href="#DejaVuSans-73" x="491.259766"/>
     </g>
    </g>
   </g>
  </g>
 </g>
 <defs>
  <clipPath id="p027c1bb10d">
   <rect x="48.579375" y="24.14175" width="558" height="326.16"/>
  </clipPath>
 </defs>
</svg>
