<?xml version="1.0" encoding="UTF-8" standalone="no"?>
<!DOCTYPE svg PUBLIC "-//W3C//DTD SVG 1.1//EN"
 "http://www.w3.org/Graphics/SVG/1.1/DTD/svg11.dtd">
<!-- Generated by graphviz version 8.0.5 (20230430.1635)
 -->
<!-- Pages: 1 -->
<svg width="543pt" height="247pt"
 viewBox="0.00 0.00 543.21 247.13" xmlns="http://www.w3.org/2000/svg" xmlns:xlink="http://www.w3.org/1999/xlink">
<g id="graph0" class="graph" transform="scale(1 1) rotate(0) translate(4 243.13)">
<polygon fill="white" stroke="none" points="-4,4 -4,-243.13 539.21,-243.13 539.21,4 -4,4"/>
<g id="clust1" class="cluster">
<title>clustersales_obs (700)</title>
<path fill="none" stroke="black" d="M218.66,-8C218.66,-8 294.66,-8 294.66,-8 300.66,-8 306.66,-14 306.66,-20 306.66,-20 306.66,-117.82 306.66,-117.82 306.66,-123.82 300.66,-129.82 294.66,-129.82 294.66,-129.82 218.66,-129.82 218.66,-129.82 212.66,-129.82 206.66,-123.82 206.66,-117.82 206.66,-117.82 206.66,-20 206.66,-20 206.66,-14 212.66,-8 218.66,-8"/>
<text text-anchor="middle" x="256.29" y="-15.2" font-family="Times,serif" font-size="14.00">sales_obs (700)</text>
</g>
<!-- discount -->
<g id="node1" class="node">
<title>discount</title>
<ellipse fill="none" stroke="black" cx="43.66" cy="-198.48" rx="43.66" ry="40.66"/>
<text text-anchor="middle" x="43.66" y="-209.93" font-family="Times,serif" font-size="14.00">discount</text>
<text text-anchor="middle" x="43.66" y="-193.43" font-family="Times,serif" font-size="14.00">~</text>
<text text-anchor="middle" x="43.66" y="-176.93" font-family="Times,serif" font-size="14.00">Normal</text>
</g>
<!-- sales -->
<g id="node6" class="node">
<title>sales</title>
<ellipse fill="lightgrey" stroke="black" cx="256.66" cy="-81.16" rx="41.01" ry="40.66"/>
<text text-anchor="middle" x="256.66" y="-92.61" font-family="Times,serif" font-size="14.00">sales</text>
<text text-anchor="middle" x="256.66" y="-76.11" font-family="Times,serif" font-size="14.00">~</text>
<text text-anchor="middle" x="256.66" y="-59.61" font-family="Times,serif" font-size="14.00">Normal</text>
</g>
<!-- discount&#45;&gt;sales -->
<g id="edge3" class="edge">
<title>discount&#45;&gt;sales</title>
<path fill="none" stroke="black" d="M76.6,-171.25C83.09,-166.54 89.97,-161.85 96.66,-157.82 132.92,-135.98 176.49,-115.74 209,-101.7"/>
<polygon fill="black" stroke="black" points="209.89,-104.69 217.71,-97.54 207.14,-98.26 209.89,-104.69"/>
</g>
<!-- Intercept -->
<g id="node2" class="node">
<title>Intercept</title>
<ellipse fill="none" stroke="black" cx="150.66" cy="-198.48" rx="45.25" ry="40.66"/>
<text text-anchor="middle" x="150.66" y="-209.93" font-family="Times,serif" font-size="14.00">Intercept</text>
<text text-anchor="middle" x="150.66" y="-193.43" font-family="Times,serif" font-size="14.00">~</text>
<text text-anchor="middle" x="150.66" y="-176.93" font-family="Times,serif" font-size="14.00">Normal</text>
</g>
<!-- Intercept&#45;&gt;sales -->
<g id="edge4" class="edge">
<title>Intercept&#45;&gt;sales</title>
<path fill="none" stroke="black" d="M179.07,-166.57C192.33,-152.14 208.24,-134.84 222.19,-119.67"/>
<polygon fill="black" stroke="black" points="224.09,-122.68 228.28,-112.95 218.93,-117.95 224.09,-122.68"/>
</g>
<!-- visits -->
<g id="node3" class="node">
<title>visits</title>
<ellipse fill="none" stroke="black" cx="256.66" cy="-198.48" rx="42.6" ry="40.66"/>
<text text-anchor="middle" x="256.66" y="-209.93" font-family="Times,serif" font-size="14.00">visits</text>
<text text-anchor="middle" x="256.66" y="-193.43" font-family="Times,serif" font-size="14.00">~</text>
<text text-anchor="middle" x="256.66" y="-176.93" font-family="Times,serif" font-size="14.00">Gamma</text>
</g>
<!-- visits&#45;&gt;sales -->
<g id="edge5" class="edge">
<title>visits&#45;&gt;sales</title>
<path fill="none" stroke="black" d="M256.66,-157.47C256.66,-149.6 256.66,-141.24 256.66,-133.07"/>
<polygon fill="black" stroke="black" points="260.16,-133.1 256.66,-123.1 253.16,-133.1 260.16,-133.1"/>
</g>
<!-- sales_sigma -->
<g id="node4" class="node">
<title>sales_sigma</title>
<ellipse fill="none" stroke="black" cx="375.66" cy="-198.48" rx="57.98" ry="40.66"/>
<text text-anchor="middle" x="375.66" y="-209.93" font-family="Times,serif" font-size="14.00">sales_sigma</text>
<text text-anchor="middle" x="375.66" y="-193.43" font-family="Times,serif" font-size="14.00">~</text>
<text text-anchor="middle" x="375.66" y="-176.93" font-family="Times,serif" font-size="14.00">Exponential</text>
</g>
<!-- sales_sigma&#45;&gt;sales -->
<g id="edge1" class="edge">
<title>sales_sigma&#45;&gt;sales</title>
<path fill="none" stroke="black" d="M342.2,-165.05C327.1,-150.41 309.2,-133.07 293.7,-118.05"/>
<polygon fill="black" stroke="black" points="296.45,-115.87 286.84,-111.43 291.58,-120.9 296.45,-115.87"/>
</g>
<!-- is_loyal -->
<g id="node5" class="node">
<title>is_loyal</title>
<ellipse fill="none" stroke="black" cx="493.66" cy="-198.48" rx="41.54" ry="40.66"/>
<text text-anchor="middle" x="493.66" y="-209.93" font-family="Times,serif" font-size="14.00">is_loyal</text>
<text text-anchor="middle" x="493.66" y="-193.43" font-family="Times,serif" font-size="14.00">~</text>
<text text-anchor="middle" x="493.66" y="-176.93" font-family="Times,serif" font-size="14.00">Normal</text>
</g>
<!-- is_loyal&#45;&gt;sales -->
<g id="edge2" class="edge">
<title>is_loyal&#45;&gt;sales</title>
<path fill="none" stroke="black" d="M462.51,-171.1C456.16,-166.35 449.37,-161.69 442.66,-157.82 398.6,-132.37 344.32,-111.35 305.8,-97.98"/>
<polygon fill="black" stroke="black" points="307.46,-94.5 296.86,-94.58 305.19,-101.13 307.46,-94.5"/>
</g>
</g>
</svg>
