<?xml version="1.0" encoding="UTF-8" standalone="no"?>
<!DOCTYPE svg PUBLIC "-//W3C//DTD SVG 1.1//EN"
 "http://www.w3.org/Graphics/SVG/1.1/DTD/svg11.dtd">
<!-- Generated by graphviz version 8.0.5 (20230430.1635)
 -->
<!-- Pages: 1 -->
<svg width="442pt" height="247pt"
 viewBox="0.00 0.00 441.65 247.13" xmlns="http://www.w3.org/2000/svg" xmlns:xlink="http://www.w3.org/1999/xlink">
<g id="graph0" class="graph" transform="scale(1 1) rotate(0) translate(4 243.13)">
<polygon fill="white" stroke="none" points="-4,4 -4,-243.13 437.65,-243.13 437.65,4 -4,4"/>
<g id="clust1" class="cluster">
<title>clustersales_obs (700)</title>
<path fill="none" stroke="black" d="M165.66,-8C165.66,-8 241.66,-8 241.66,-8 247.66,-8 253.66,-14 253.66,-20 253.66,-20 253.66,-117.82 253.66,-117.82 253.66,-123.82 247.66,-129.82 241.66,-129.82 241.66,-129.82 165.66,-129.82 165.66,-129.82 159.66,-129.82 153.66,-123.82 153.66,-117.82 153.66,-117.82 153.66,-20 153.66,-20 153.66,-14 159.66,-8 165.66,-8"/>
<text text-anchor="middle" x="203.29" y="-15.2" font-family="Times,serif" font-size="14.00">sales_obs (700)</text>
</g>
<!-- discount -->
<g id="node1" class="node">
<title>discount</title>
<ellipse fill="none" stroke="black" cx="43.66" cy="-198.48" rx="43.66" ry="40.66"/>
<text text-anchor="middle" x="43.66" y="-209.93" font-family="Times,serif" font-size="14.00">discount</text>
<text text-anchor="middle" x="43.66" y="-193.43" font-family="Times,serif" font-size="14.00">~</text>
<text text-anchor="middle" x="43.66" y="-176.93" font-family="Times,serif" font-size="14.00">Normal</text>
</g>
<!-- sales -->
<g id="node5" class="node">
<title>sales</title>
<ellipse fill="lightgrey" stroke="black" cx="203.66" cy="-81.16" rx="41.01" ry="40.66"/>
<text text-anchor="middle" x="203.66" y="-92.61" font-family="Times,serif" font-size="14.00">sales</text>
<text text-anchor="middle" x="203.66" y="-76.11" font-family="Times,serif" font-size="14.00">~</text>
<text text-anchor="middle" x="203.66" y="-59.61" font-family="Times,serif" font-size="14.00">Normal</text>
</g>
<!-- discount&#45;&gt;sales -->
<g id="edge1" class="edge">
<title>discount&#45;&gt;sales</title>
<path fill="none" stroke="black" d="M77.21,-172.16C83.64,-167.37 90.34,-162.41 96.66,-157.82 117.88,-142.38 141.7,-125.5 161.47,-111.6"/>
<polygon fill="black" stroke="black" points="163.07,-114.05 169.24,-105.44 159.05,-108.32 163.07,-114.05"/>
</g>
<!-- Intercept -->
<g id="node2" class="node">
<title>Intercept</title>
<ellipse fill="none" stroke="black" cx="150.66" cy="-198.48" rx="45.25" ry="40.66"/>
<text text-anchor="middle" x="150.66" y="-209.93" font-family="Times,serif" font-size="14.00">Intercept</text>
<text text-anchor="middle" x="150.66" y="-193.43" font-family="Times,serif" font-size="14.00">~</text>
<text text-anchor="middle" x="150.66" y="-176.93" font-family="Times,serif" font-size="14.00">Normal</text>
</g>
<!-- Intercept&#45;&gt;sales -->
<g id="edge2" class="edge">
<title>Intercept&#45;&gt;sales</title>
<path fill="none" stroke="black" d="M167.73,-160.35C172.4,-150.18 177.53,-139.01 182.41,-128.39"/>
<polygon fill="black" stroke="black" points="186,-129.97 187,-119.42 179.64,-127.05 186,-129.97"/>
</g>
<!-- visits -->
<g id="node3" class="node">
<title>visits</title>
<ellipse fill="none" stroke="black" cx="256.66" cy="-198.48" rx="42.6" ry="40.66"/>
<text text-anchor="middle" x="256.66" y="-209.93" font-family="Times,serif" font-size="14.00">visits</text>
<text text-anchor="middle" x="256.66" y="-193.43" font-family="Times,serif" font-size="14.00">~</text>
<text text-anchor="middle" x="256.66" y="-176.93" font-family="Times,serif" font-size="14.00">Gamma</text>
</g>
<!-- visits&#45;&gt;sales -->
<g id="edge3" class="edge">
<title>visits&#45;&gt;sales</title>
<path fill="none" stroke="black" d="M239.75,-160.67C235.02,-150.38 229.81,-139.06 224.87,-128.29"/>
<polygon fill="black" stroke="black" points="227.77,-127.24 220.42,-119.61 221.41,-130.16 227.77,-127.24"/>
</g>
<!-- sales_sigma -->
<g id="node4" class="node">
<title>sales_sigma</title>
<ellipse fill="none" stroke="black" cx="375.66" cy="-198.48" rx="57.98" ry="40.66"/>
<text text-anchor="middle" x="375.66" y="-209.93" font-family="Times,serif" font-size="14.00">sales_sigma</text>
<text text-anchor="middle" x="375.66" y="-193.43" font-family="Times,serif" font-size="14.00">~</text>
<text text-anchor="middle" x="375.66" y="-176.93" font-family="Times,serif" font-size="14.00">Exponential</text>
</g>
<!-- sales_sigma&#45;&gt;sales -->
<g id="edge4" class="edge">
<title>sales_sigma&#45;&gt;sales</title>
<path fill="none" stroke="black" d="M334.47,-169.85C307.77,-151.96 273.08,-128.7 246.13,-110.63"/>
<polygon fill="black" stroke="black" points="248.57,-107.38 238.31,-104.72 244.67,-113.19 248.57,-107.38"/>
</g>
</g>
</svg>
