<?xml version="1.0" encoding="utf-8" standalone="no"?>
<!DOCTYPE svg PUBLIC "-//W3C//DTD SVG 1.1//EN"
  "http://www.w3.org/Graphics/SVG/1.1/DTD/svg11.dtd">
<svg xmlns:xlink="http://www.w3.org/1999/xlink" width="715.675pt" height="547.52pt" viewBox="0 0 715.675 547.52" xmlns="http://www.w3.org/2000/svg" version="1.1">
 <metadata>
  <rdf:RDF xmlns:dc="http://purl.org/dc/elements/1.1/" xmlns:cc="http://creativecommons.org/ns#" xmlns:rdf="http://www.w3.org/1999/02/22-rdf-syntax-ns#">
   <cc:Work>
    <dc:type rdf:resource="http://purl.org/dc/dcmitype/StillImage"/>
    <dc:date>2021-12-10T17:48:30.120803</dc:date>
    <dc:format>image/svg+xml</dc:format>
    <dc:creator>
     <cc:Agent>
      <dc:title>Matplotlib v3.5.0, https://matplotlib.org/</dc:title>
     </cc:Agent>
    </dc:creator>
   </cc:Work>
  </rdf:RDF>
 </metadata>
 <defs>
  <style type="text/css">*{stroke-linejoin: round; stroke-linecap: butt}</style>
 </defs>
 <g id="figure_1">
  <g id="patch_1">
   <path d="M 0 547.52 
L 715.675 547.52 
L 715.675 0 
L 0 0 
z
" style="fill: #ffffff"/>
  </g>
  <g id="axes_1">
   <g id="patch_2">
    <path d="M 38.875 244.171193 
L 343.238636 244.171193 
L 343.238636 21.789375 
L 38.875 21.789375 
z
" style="fill: #e6e6e6"/>
   </g>
   <g id="matplotlib.axis_1">
    <g id="xtick_1">
     <g id="line2d_1">
      <path d="M 54.894139 244.171193 
L 54.894139 21.789375 
" clip-path="url(#p293b670fc4)" style="fill: none; stroke: #cccccc; stroke-width: 0.8; stroke-linecap: round"/>
     </g>
     <g id="text_1">
      <!-- 2016 -->
      <g style="fill: #262626" transform="translate(43.772264 258.329006)scale(0.1 -0.1)">
       <defs>
        <path id="ArialMT-32" d="M 3222 541 
L 3222 0 
L 194 0 
Q 188 203 259 391 
Q 375 700 629 1000 
Q 884 1300 1366 1694 
Q 2113 2306 2375 2664 
Q 2638 3022 2638 3341 
Q 2638 3675 2398 3904 
Q 2159 4134 1775 4134 
Q 1369 4134 1125 3890 
Q 881 3647 878 3216 
L 300 3275 
Q 359 3922 746 4261 
Q 1134 4600 1788 4600 
Q 2447 4600 2831 4234 
Q 3216 3869 3216 3328 
Q 3216 3053 3103 2787 
Q 2991 2522 2730 2228 
Q 2469 1934 1863 1422 
Q 1356 997 1212 845 
Q 1069 694 975 541 
L 3222 541 
z
" transform="scale(0.015625)"/>
        <path id="ArialMT-30" d="M 266 2259 
Q 266 3072 433 3567 
Q 600 4063 929 4331 
Q 1259 4600 1759 4600 
Q 2128 4600 2406 4451 
Q 2684 4303 2865 4023 
Q 3047 3744 3150 3342 
Q 3253 2941 3253 2259 
Q 3253 1453 3087 958 
Q 2922 463 2592 192 
Q 2263 -78 1759 -78 
Q 1097 -78 719 397 
Q 266 969 266 2259 
z
M 844 2259 
Q 844 1131 1108 757 
Q 1372 384 1759 384 
Q 2147 384 2411 759 
Q 2675 1134 2675 2259 
Q 2675 3391 2411 3762 
Q 2147 4134 1753 4134 
Q 1366 4134 1134 3806 
Q 844 3388 844 2259 
z
" transform="scale(0.015625)"/>
        <path id="ArialMT-31" d="M 2384 0 
L 1822 0 
L 1822 3584 
Q 1619 3391 1289 3197 
Q 959 3003 697 2906 
L 697 3450 
Q 1169 3672 1522 3987 
Q 1875 4303 2022 4600 
L 2384 4600 
L 2384 0 
z
" transform="scale(0.015625)"/>
        <path id="ArialMT-36" d="M 3184 3459 
L 2625 3416 
Q 2550 3747 2413 3897 
Q 2184 4138 1850 4138 
Q 1581 4138 1378 3988 
Q 1113 3794 959 3422 
Q 806 3050 800 2363 
Q 1003 2672 1297 2822 
Q 1591 2972 1913 2972 
Q 2475 2972 2870 2558 
Q 3266 2144 3266 1488 
Q 3266 1056 3080 686 
Q 2894 316 2569 119 
Q 2244 -78 1831 -78 
Q 1128 -78 684 439 
Q 241 956 241 2144 
Q 241 3472 731 4075 
Q 1159 4600 1884 4600 
Q 2425 4600 2770 4297 
Q 3116 3994 3184 3459 
z
M 888 1484 
Q 888 1194 1011 928 
Q 1134 663 1356 523 
Q 1578 384 1822 384 
Q 2178 384 2434 671 
Q 2691 959 2691 1453 
Q 2691 1928 2437 2201 
Q 2184 2475 1800 2475 
Q 1419 2475 1153 2201 
Q 888 1928 888 1484 
z
" transform="scale(0.015625)"/>
       </defs>
       <use xlink:href="#ArialMT-32"/>
       <use xlink:href="#ArialMT-30" x="55.615234"/>
       <use xlink:href="#ArialMT-31" x="111.230469"/>
       <use xlink:href="#ArialMT-36" x="166.845703"/>
      </g>
     </g>
    </g>
    <g id="xtick_2">
     <g id="line2d_2">
      <path d="M 118.970694 244.171193 
L 118.970694 21.789375 
" clip-path="url(#p293b670fc4)" style="fill: none; stroke: #cccccc; stroke-width: 0.8; stroke-linecap: round"/>
     </g>
     <g id="text_2">
      <!-- 2017 -->
      <g style="fill: #262626" transform="translate(107.848819 258.329006)scale(0.1 -0.1)">
       <defs>
        <path id="ArialMT-37" d="M 303 3981 
L 303 4522 
L 3269 4522 
L 3269 4084 
Q 2831 3619 2401 2847 
Q 1972 2075 1738 1259 
Q 1569 684 1522 0 
L 944 0 
Q 953 541 1156 1306 
Q 1359 2072 1739 2783 
Q 2119 3494 2547 3981 
L 303 3981 
z
" transform="scale(0.015625)"/>
       </defs>
       <use xlink:href="#ArialMT-32"/>
       <use xlink:href="#ArialMT-30" x="55.615234"/>
       <use xlink:href="#ArialMT-31" x="111.230469"/>
       <use xlink:href="#ArialMT-37" x="166.845703"/>
      </g>
     </g>
    </g>
    <g id="xtick_3">
     <g id="line2d_3">
      <path d="M 183.047249 244.171193 
L 183.047249 21.789375 
" clip-path="url(#p293b670fc4)" style="fill: none; stroke: #cccccc; stroke-width: 0.8; stroke-linecap: round"/>
     </g>
     <g id="text_3">
      <!-- 2018 -->
      <g style="fill: #262626" transform="translate(171.925374 258.329006)scale(0.1 -0.1)">
       <defs>
        <path id="ArialMT-38" d="M 1131 2484 
Q 781 2613 612 2850 
Q 444 3088 444 3419 
Q 444 3919 803 4259 
Q 1163 4600 1759 4600 
Q 2359 4600 2725 4251 
Q 3091 3903 3091 3403 
Q 3091 3084 2923 2848 
Q 2756 2613 2416 2484 
Q 2838 2347 3058 2040 
Q 3278 1734 3278 1309 
Q 3278 722 2862 322 
Q 2447 -78 1769 -78 
Q 1091 -78 675 323 
Q 259 725 259 1325 
Q 259 1772 486 2073 
Q 713 2375 1131 2484 
z
M 1019 3438 
Q 1019 3113 1228 2906 
Q 1438 2700 1772 2700 
Q 2097 2700 2305 2904 
Q 2513 3109 2513 3406 
Q 2513 3716 2298 3927 
Q 2084 4138 1766 4138 
Q 1444 4138 1231 3931 
Q 1019 3725 1019 3438 
z
M 838 1322 
Q 838 1081 952 856 
Q 1066 631 1291 507 
Q 1516 384 1775 384 
Q 2178 384 2440 643 
Q 2703 903 2703 1303 
Q 2703 1709 2433 1975 
Q 2163 2241 1756 2241 
Q 1359 2241 1098 1978 
Q 838 1716 838 1322 
z
" transform="scale(0.015625)"/>
       </defs>
       <use xlink:href="#ArialMT-32"/>
       <use xlink:href="#ArialMT-30" x="55.615234"/>
       <use xlink:href="#ArialMT-31" x="111.230469"/>
       <use xlink:href="#ArialMT-38" x="166.845703"/>
      </g>
     </g>
    </g>
    <g id="xtick_4">
     <g id="line2d_4">
      <path d="M 247.123804 244.171193 
L 247.123804 21.789375 
" clip-path="url(#p293b670fc4)" style="fill: none; stroke: #cccccc; stroke-width: 0.8; stroke-linecap: round"/>
     </g>
     <g id="text_4">
      <!-- 2019 -->
      <g style="fill: #262626" transform="translate(236.001929 258.329006)scale(0.1 -0.1)">
       <defs>
        <path id="ArialMT-39" d="M 350 1059 
L 891 1109 
Q 959 728 1153 556 
Q 1347 384 1650 384 
Q 1909 384 2104 503 
Q 2300 622 2425 820 
Q 2550 1019 2634 1356 
Q 2719 1694 2719 2044 
Q 2719 2081 2716 2156 
Q 2547 1888 2255 1720 
Q 1963 1553 1622 1553 
Q 1053 1553 659 1965 
Q 266 2378 266 3053 
Q 266 3750 677 4175 
Q 1088 4600 1706 4600 
Q 2153 4600 2523 4359 
Q 2894 4119 3086 3673 
Q 3278 3228 3278 2384 
Q 3278 1506 3087 986 
Q 2897 466 2520 194 
Q 2144 -78 1638 -78 
Q 1100 -78 759 220 
Q 419 519 350 1059 
z
M 2653 3081 
Q 2653 3566 2395 3850 
Q 2138 4134 1775 4134 
Q 1400 4134 1122 3828 
Q 844 3522 844 3034 
Q 844 2597 1108 2323 
Q 1372 2050 1759 2050 
Q 2150 2050 2401 2323 
Q 2653 2597 2653 3081 
z
" transform="scale(0.015625)"/>
       </defs>
       <use xlink:href="#ArialMT-32"/>
       <use xlink:href="#ArialMT-30" x="55.615234"/>
       <use xlink:href="#ArialMT-31" x="111.230469"/>
       <use xlink:href="#ArialMT-39" x="166.845703"/>
      </g>
     </g>
    </g>
    <g id="xtick_5">
     <g id="line2d_5">
      <path d="M 311.200359 244.171193 
L 311.200359 21.789375 
" clip-path="url(#p293b670fc4)" style="fill: none; stroke: #cccccc; stroke-width: 0.8; stroke-linecap: round"/>
     </g>
     <g id="text_5">
      <!-- 2020 -->
      <g style="fill: #262626" transform="translate(300.078484 258.329006)scale(0.1 -0.1)">
       <use xlink:href="#ArialMT-32"/>
       <use xlink:href="#ArialMT-30" x="55.615234"/>
       <use xlink:href="#ArialMT-32" x="111.230469"/>
       <use xlink:href="#ArialMT-30" x="166.845703"/>
      </g>
     </g>
    </g>
    <g id="xtick_6"/>
    <g id="xtick_7"/>
    <g id="xtick_8"/>
    <g id="xtick_9"/>
    <g id="xtick_10"/>
    <g id="xtick_11"/>
    <g id="xtick_12"/>
    <g id="xtick_13"/>
    <g id="xtick_14"/>
    <g id="xtick_15"/>
    <g id="xtick_16"/>
    <g id="xtick_17"/>
    <g id="xtick_18"/>
    <g id="xtick_19"/>
    <g id="xtick_20"/>
   </g>
   <g id="matplotlib.axis_2">
    <g id="ytick_1">
     <g id="line2d_6">
      <path d="M 38.875 233.458889 
L 343.238636 233.458889 
" clip-path="url(#p293b670fc4)" style="fill: none; stroke: #cccccc; stroke-width: 0.8; stroke-linecap: round"/>
     </g>
     <g id="text_6">
      <!-- −2 -->
      <g style="fill: #262626" transform="translate(20.473437 237.037795)scale(0.1 -0.1)">
       <defs>
        <path id="ArialMT-2212" d="M 3381 1997 
L 356 1997 
L 356 2522 
L 3381 2522 
L 3381 1997 
z
" transform="scale(0.015625)"/>
       </defs>
       <use xlink:href="#ArialMT-2212"/>
       <use xlink:href="#ArialMT-32" x="58.398438"/>
      </g>
     </g>
    </g>
    <g id="ytick_2">
     <g id="line2d_7">
      <path d="M 38.875 190.105363 
L 343.238636 190.105363 
" clip-path="url(#p293b670fc4)" style="fill: none; stroke: #cccccc; stroke-width: 0.8; stroke-linecap: round"/>
     </g>
     <g id="text_7">
      <!-- −1 -->
      <g style="fill: #262626" transform="translate(20.473437 193.68427)scale(0.1 -0.1)">
       <use xlink:href="#ArialMT-2212"/>
       <use xlink:href="#ArialMT-31" x="58.398438"/>
      </g>
     </g>
    </g>
    <g id="ytick_3">
     <g id="line2d_8">
      <path d="M 38.875 146.751838 
L 343.238636 146.751838 
" clip-path="url(#p293b670fc4)" style="fill: none; stroke: #cccccc; stroke-width: 0.8; stroke-linecap: round"/>
     </g>
     <g id="text_8">
      <!-- 0 -->
      <g style="fill: #262626" transform="translate(26.314062 150.330745)scale(0.1 -0.1)">
       <use xlink:href="#ArialMT-30"/>
      </g>
     </g>
    </g>
    <g id="ytick_4">
     <g id="line2d_9">
      <path d="M 38.875 103.398313 
L 343.238636 103.398313 
" clip-path="url(#p293b670fc4)" style="fill: none; stroke: #cccccc; stroke-width: 0.8; stroke-linecap: round"/>
     </g>
     <g id="text_9">
      <!-- 1 -->
      <g style="fill: #262626" transform="translate(26.314062 106.97722)scale(0.1 -0.1)">
       <use xlink:href="#ArialMT-31"/>
      </g>
     </g>
    </g>
    <g id="ytick_5">
     <g id="line2d_10">
      <path d="M 38.875 60.044788 
L 343.238636 60.044788 
" clip-path="url(#p293b670fc4)" style="fill: none; stroke: #cccccc; stroke-width: 0.8; stroke-linecap: round"/>
     </g>
     <g id="text_10">
      <!-- 2 -->
      <g style="fill: #262626" transform="translate(26.314062 63.623695)scale(0.1 -0.1)">
       <use xlink:href="#ArialMT-32"/>
      </g>
     </g>
    </g>
   </g>
   <g id="line2d_11">
    <path d="M 38.875 158.904847 
L 44.214713 147.20234 
L 49.554426 184.818841 
L 54.894139 53.058209 
L 60.233852 93.449563 
L 65.573565 125.518606 
L 70.913278 104.402285 
L 76.25299 108.677921 
L 81.592703 164.17302 
L 86.932416 151.337075 
L 92.272129 181.125734 
L 97.611842 143.064081 
L 102.951555 189.537549 
L 108.291268 138.136701 
L 113.630981 149.518259 
L 118.970694 59.030399 
L 124.310407 154.26228 
L 129.65012 152.396766 
L 134.989833 191.422027 
L 140.329545 144.573502 
L 145.669258 88.254131 
L 151.008971 86.379331 
L 156.348684 178.12829 
L 161.688397 166.794796 
L 167.02811 180.643536 
L 172.367823 103.335207 
L 177.707536 122.723359 
L 183.047249 94.389522 
L 188.386962 200.654979 
L 193.726675 128.782367 
L 199.066388 116.314617 
L 204.4061 165.530795 
L 209.745813 125.922446 
L 215.085526 134.498211 
L 220.425239 115.095906 
L 225.764952 121.503963 
L 231.104665 138.051078 
L 236.444378 116.111561 
L 241.784091 220.036284 
L 247.123804 58.846042 
L 252.463517 126.206378 
L 257.80323 202.069983 
L 263.142943 174.753493 
L 268.482656 162.575512 
L 273.822368 143.948962 
L 279.162081 112.251798 
L 284.501794 31.897639 
L 289.841507 137.789641 
L 295.18122 234.062929 
L 300.520933 177.477825 
L 305.860646 191.366547 
L 311.200359 95.407309 
L 316.540072 171.494262 
L 321.879785 67.64504 
L 327.219498 188.021944 
L 332.559211 151.064744 
L 337.898923 112.179537 
L 343.238636 182.433463 
" clip-path="url(#p293b670fc4)" style="fill: none; stroke: #4c72b0; stroke-width: 1.5; stroke-linecap: round"/>
   </g>
   <g id="LineCollection_1">
    <path d="M 38.875 146.751838 
L 343.238636 146.751838 
" clip-path="url(#p293b670fc4)" style="fill: none; stroke: #4c72b0; stroke-opacity: 0.5; stroke-width: 1.5"/>
   </g>
   <g id="patch_3">
    <path d="M 38.875 244.171193 
L 38.875 21.789375 
" style="fill: none; stroke: #ffffff; stroke-width: 0.8; stroke-linejoin: miter; stroke-linecap: square"/>
   </g>
   <g id="patch_4">
    <path d="M 343.238636 244.171193 
L 343.238636 21.789375 
" style="fill: none; stroke: #ffffff; stroke-width: 0.8; stroke-linejoin: miter; stroke-linecap: square"/>
   </g>
   <g id="patch_5">
    <path d="M 38.875 244.171193 
L 343.238636 244.171193 
" style="fill: none; stroke: #ffffff; stroke-width: 0.8; stroke-linejoin: miter; stroke-linecap: square"/>
   </g>
   <g id="patch_6">
    <path d="M 38.875 21.789375 
L 343.238636 21.789375 
" style="fill: none; stroke: #ffffff; stroke-width: 0.8; stroke-linejoin: miter; stroke-linecap: square"/>
   </g>
   <g id="text_11">
    <!-- Standardized residual for "z" -->
    <g style="fill: #262626" transform="translate(115.428693 15.789375)scale(0.12 -0.12)">
     <defs>
      <path id="ArialMT-53" d="M 288 1472 
L 859 1522 
Q 900 1178 1048 958 
Q 1197 738 1509 602 
Q 1822 466 2213 466 
Q 2559 466 2825 569 
Q 3091 672 3220 851 
Q 3350 1031 3350 1244 
Q 3350 1459 3225 1620 
Q 3100 1781 2813 1891 
Q 2628 1963 1997 2114 
Q 1366 2266 1113 2400 
Q 784 2572 623 2826 
Q 463 3081 463 3397 
Q 463 3744 659 4045 
Q 856 4347 1234 4503 
Q 1613 4659 2075 4659 
Q 2584 4659 2973 4495 
Q 3363 4331 3572 4012 
Q 3781 3694 3797 3291 
L 3216 3247 
Q 3169 3681 2898 3903 
Q 2628 4125 2100 4125 
Q 1550 4125 1298 3923 
Q 1047 3722 1047 3438 
Q 1047 3191 1225 3031 
Q 1400 2872 2139 2705 
Q 2878 2538 3153 2413 
Q 3553 2228 3743 1945 
Q 3934 1663 3934 1294 
Q 3934 928 3725 604 
Q 3516 281 3123 101 
Q 2731 -78 2241 -78 
Q 1619 -78 1198 103 
Q 778 284 539 648 
Q 300 1013 288 1472 
z
" transform="scale(0.015625)"/>
      <path id="ArialMT-74" d="M 1650 503 
L 1731 6 
Q 1494 -44 1306 -44 
Q 1000 -44 831 53 
Q 663 150 594 308 
Q 525 466 525 972 
L 525 2881 
L 113 2881 
L 113 3319 
L 525 3319 
L 525 4141 
L 1084 4478 
L 1084 3319 
L 1650 3319 
L 1650 2881 
L 1084 2881 
L 1084 941 
Q 1084 700 1114 631 
Q 1144 563 1211 522 
Q 1278 481 1403 481 
Q 1497 481 1650 503 
z
" transform="scale(0.015625)"/>
      <path id="ArialMT-61" d="M 2588 409 
Q 2275 144 1986 34 
Q 1697 -75 1366 -75 
Q 819 -75 525 192 
Q 231 459 231 875 
Q 231 1119 342 1320 
Q 453 1522 633 1644 
Q 813 1766 1038 1828 
Q 1203 1872 1538 1913 
Q 2219 1994 2541 2106 
Q 2544 2222 2544 2253 
Q 2544 2597 2384 2738 
Q 2169 2928 1744 2928 
Q 1347 2928 1158 2789 
Q 969 2650 878 2297 
L 328 2372 
Q 403 2725 575 2942 
Q 747 3159 1072 3276 
Q 1397 3394 1825 3394 
Q 2250 3394 2515 3294 
Q 2781 3194 2906 3042 
Q 3031 2891 3081 2659 
Q 3109 2516 3109 2141 
L 3109 1391 
Q 3109 606 3145 398 
Q 3181 191 3288 0 
L 2700 0 
Q 2613 175 2588 409 
z
M 2541 1666 
Q 2234 1541 1622 1453 
Q 1275 1403 1131 1340 
Q 988 1278 909 1158 
Q 831 1038 831 891 
Q 831 666 1001 516 
Q 1172 366 1500 366 
Q 1825 366 2078 508 
Q 2331 650 2450 897 
Q 2541 1088 2541 1459 
L 2541 1666 
z
" transform="scale(0.015625)"/>
      <path id="ArialMT-6e" d="M 422 0 
L 422 3319 
L 928 3319 
L 928 2847 
Q 1294 3394 1984 3394 
Q 2284 3394 2536 3286 
Q 2788 3178 2913 3003 
Q 3038 2828 3088 2588 
Q 3119 2431 3119 2041 
L 3119 0 
L 2556 0 
L 2556 2019 
Q 2556 2363 2490 2533 
Q 2425 2703 2258 2804 
Q 2091 2906 1866 2906 
Q 1506 2906 1245 2678 
Q 984 2450 984 1813 
L 984 0 
L 422 0 
z
" transform="scale(0.015625)"/>
      <path id="ArialMT-64" d="M 2575 0 
L 2575 419 
Q 2259 -75 1647 -75 
Q 1250 -75 917 144 
Q 584 363 401 755 
Q 219 1147 219 1656 
Q 219 2153 384 2558 
Q 550 2963 881 3178 
Q 1213 3394 1622 3394 
Q 1922 3394 2156 3267 
Q 2391 3141 2538 2938 
L 2538 4581 
L 3097 4581 
L 3097 0 
L 2575 0 
z
M 797 1656 
Q 797 1019 1065 703 
Q 1334 388 1700 388 
Q 2069 388 2326 689 
Q 2584 991 2584 1609 
Q 2584 2291 2321 2609 
Q 2059 2928 1675 2928 
Q 1300 2928 1048 2622 
Q 797 2316 797 1656 
z
" transform="scale(0.015625)"/>
      <path id="ArialMT-72" d="M 416 0 
L 416 3319 
L 922 3319 
L 922 2816 
Q 1116 3169 1280 3281 
Q 1444 3394 1641 3394 
Q 1925 3394 2219 3213 
L 2025 2691 
Q 1819 2813 1613 2813 
Q 1428 2813 1281 2702 
Q 1134 2591 1072 2394 
Q 978 2094 978 1738 
L 978 0 
L 416 0 
z
" transform="scale(0.015625)"/>
      <path id="ArialMT-69" d="M 425 3934 
L 425 4581 
L 988 4581 
L 988 3934 
L 425 3934 
z
M 425 0 
L 425 3319 
L 988 3319 
L 988 0 
L 425 0 
z
" transform="scale(0.015625)"/>
      <path id="ArialMT-7a" d="M 125 0 
L 125 456 
L 2238 2881 
Q 1878 2863 1603 2863 
L 250 2863 
L 250 3319 
L 2963 3319 
L 2963 2947 
L 1166 841 
L 819 456 
Q 1197 484 1528 484 
L 3063 484 
L 3063 0 
L 125 0 
z
" transform="scale(0.015625)"/>
      <path id="ArialMT-65" d="M 2694 1069 
L 3275 997 
Q 3138 488 2766 206 
Q 2394 -75 1816 -75 
Q 1088 -75 661 373 
Q 234 822 234 1631 
Q 234 2469 665 2931 
Q 1097 3394 1784 3394 
Q 2450 3394 2872 2941 
Q 3294 2488 3294 1666 
Q 3294 1616 3291 1516 
L 816 1516 
Q 847 969 1125 678 
Q 1403 388 1819 388 
Q 2128 388 2347 550 
Q 2566 713 2694 1069 
z
M 847 1978 
L 2700 1978 
Q 2663 2397 2488 2606 
Q 2219 2931 1791 2931 
Q 1403 2931 1139 2672 
Q 875 2413 847 1978 
z
" transform="scale(0.015625)"/>
      <path id="ArialMT-20" transform="scale(0.015625)"/>
      <path id="ArialMT-73" d="M 197 991 
L 753 1078 
Q 800 744 1014 566 
Q 1228 388 1613 388 
Q 2000 388 2187 545 
Q 2375 703 2375 916 
Q 2375 1106 2209 1216 
Q 2094 1291 1634 1406 
Q 1016 1563 777 1677 
Q 538 1791 414 1992 
Q 291 2194 291 2438 
Q 291 2659 392 2848 
Q 494 3038 669 3163 
Q 800 3259 1026 3326 
Q 1253 3394 1513 3394 
Q 1903 3394 2198 3281 
Q 2494 3169 2634 2976 
Q 2775 2784 2828 2463 
L 2278 2388 
Q 2241 2644 2061 2787 
Q 1881 2931 1553 2931 
Q 1166 2931 1000 2803 
Q 834 2675 834 2503 
Q 834 2394 903 2306 
Q 972 2216 1119 2156 
Q 1203 2125 1616 2013 
Q 2213 1853 2448 1751 
Q 2684 1650 2818 1456 
Q 2953 1263 2953 975 
Q 2953 694 2789 445 
Q 2625 197 2315 61 
Q 2006 -75 1616 -75 
Q 969 -75 630 194 
Q 291 463 197 991 
z
" transform="scale(0.015625)"/>
      <path id="ArialMT-75" d="M 2597 0 
L 2597 488 
Q 2209 -75 1544 -75 
Q 1250 -75 995 37 
Q 741 150 617 320 
Q 494 491 444 738 
Q 409 903 409 1263 
L 409 3319 
L 972 3319 
L 972 1478 
Q 972 1038 1006 884 
Q 1059 663 1231 536 
Q 1403 409 1656 409 
Q 1909 409 2131 539 
Q 2353 669 2445 892 
Q 2538 1116 2538 1541 
L 2538 3319 
L 3100 3319 
L 3100 0 
L 2597 0 
z
" transform="scale(0.015625)"/>
      <path id="ArialMT-6c" d="M 409 0 
L 409 4581 
L 972 4581 
L 972 0 
L 409 0 
z
" transform="scale(0.015625)"/>
      <path id="ArialMT-66" d="M 556 0 
L 556 2881 
L 59 2881 
L 59 3319 
L 556 3319 
L 556 3672 
Q 556 4006 616 4169 
Q 697 4388 901 4523 
Q 1106 4659 1475 4659 
Q 1713 4659 2000 4603 
L 1916 4113 
Q 1741 4144 1584 4144 
Q 1328 4144 1222 4034 
Q 1116 3925 1116 3625 
L 1116 3319 
L 1763 3319 
L 1763 2881 
L 1116 2881 
L 1116 0 
L 556 0 
z
" transform="scale(0.015625)"/>
      <path id="ArialMT-6f" d="M 213 1659 
Q 213 2581 725 3025 
Q 1153 3394 1769 3394 
Q 2453 3394 2887 2945 
Q 3322 2497 3322 1706 
Q 3322 1066 3130 698 
Q 2938 331 2570 128 
Q 2203 -75 1769 -75 
Q 1072 -75 642 372 
Q 213 819 213 1659 
z
M 791 1659 
Q 791 1022 1069 705 
Q 1347 388 1769 388 
Q 2188 388 2466 706 
Q 2744 1025 2744 1678 
Q 2744 2294 2464 2611 
Q 2184 2928 1769 2928 
Q 1347 2928 1069 2612 
Q 791 2297 791 1659 
z
" transform="scale(0.015625)"/>
      <path id="ArialMT-22" d="M 450 2959 
L 294 3831 
L 294 4581 
L 934 4581 
L 934 3831 
L 794 2959 
L 450 2959 
z
M 1484 2959 
L 1331 3831 
L 1331 4581 
L 1972 4581 
L 1972 3831 
L 1822 2959 
L 1484 2959 
z
" transform="scale(0.015625)"/>
     </defs>
     <use xlink:href="#ArialMT-53"/>
     <use xlink:href="#ArialMT-74" x="66.699219"/>
     <use xlink:href="#ArialMT-61" x="94.482422"/>
     <use xlink:href="#ArialMT-6e" x="150.097656"/>
     <use xlink:href="#ArialMT-64" x="205.712891"/>
     <use xlink:href="#ArialMT-61" x="261.328125"/>
     <use xlink:href="#ArialMT-72" x="316.943359"/>
     <use xlink:href="#ArialMT-64" x="350.244141"/>
     <use xlink:href="#ArialMT-69" x="405.859375"/>
     <use xlink:href="#ArialMT-7a" x="428.076172"/>
     <use xlink:href="#ArialMT-65" x="478.076172"/>
     <use xlink:href="#ArialMT-64" x="533.691406"/>
     <use xlink:href="#ArialMT-20" x="589.306641"/>
     <use xlink:href="#ArialMT-72" x="617.089844"/>
     <use xlink:href="#ArialMT-65" x="650.390625"/>
     <use xlink:href="#ArialMT-73" x="706.005859"/>
     <use xlink:href="#ArialMT-69" x="756.005859"/>
     <use xlink:href="#ArialMT-64" x="778.222656"/>
     <use xlink:href="#ArialMT-75" x="833.837891"/>
     <use xlink:href="#ArialMT-61" x="889.453125"/>
     <use xlink:href="#ArialMT-6c" x="945.068359"/>
     <use xlink:href="#ArialMT-20" x="967.285156"/>
     <use xlink:href="#ArialMT-66" x="995.068359"/>
     <use xlink:href="#ArialMT-6f" x="1022.851562"/>
     <use xlink:href="#ArialMT-72" x="1078.466797"/>
     <use xlink:href="#ArialMT-20" x="1111.767578"/>
     <use xlink:href="#ArialMT-22" x="1139.550781"/>
     <use xlink:href="#ArialMT-7a" x="1175.048828"/>
     <use xlink:href="#ArialMT-22" x="1225.048828"/>
    </g>
   </g>
  </g>
  <g id="axes_2">
   <g id="patch_7">
    <path d="M 404.111364 244.171193 
L 708.475 244.171193 
L 708.475 21.789375 
L 404.111364 21.789375 
z
" style="fill: #e6e6e6"/>
   </g>
   <g id="matplotlib.axis_3">
    <g id="xtick_21">
     <g id="line2d_12">
      <path d="M 439.827505 244.171193 
L 439.827505 21.789375 
" clip-path="url(#p38241d9e05)" style="fill: none; stroke: #cccccc; stroke-width: 0.8; stroke-linecap: round"/>
     </g>
     <g id="text_12">
      <!-- −3 -->
      <g style="fill: #262626" transform="translate(434.126723 258.329006)scale(0.1 -0.1)">
       <defs>
        <path id="ArialMT-33" d="M 269 1209 
L 831 1284 
Q 928 806 1161 595 
Q 1394 384 1728 384 
Q 2125 384 2398 659 
Q 2672 934 2672 1341 
Q 2672 1728 2419 1979 
Q 2166 2231 1775 2231 
Q 1616 2231 1378 2169 
L 1441 2663 
Q 1497 2656 1531 2656 
Q 1891 2656 2178 2843 
Q 2466 3031 2466 3422 
Q 2466 3731 2256 3934 
Q 2047 4138 1716 4138 
Q 1388 4138 1169 3931 
Q 950 3725 888 3313 
L 325 3413 
Q 428 3978 793 4289 
Q 1159 4600 1703 4600 
Q 2078 4600 2393 4439 
Q 2709 4278 2876 4000 
Q 3044 3722 3044 3409 
Q 3044 3113 2884 2869 
Q 2725 2625 2413 2481 
Q 2819 2388 3044 2092 
Q 3269 1797 3269 1353 
Q 3269 753 2831 336 
Q 2394 -81 1725 -81 
Q 1122 -81 723 278 
Q 325 638 269 1209 
z
" transform="scale(0.015625)"/>
       </defs>
       <use xlink:href="#ArialMT-2212"/>
       <use xlink:href="#ArialMT-33" x="58.398438"/>
      </g>
     </g>
    </g>
    <g id="xtick_22">
     <g id="line2d_13">
      <path d="M 478.649397 244.171193 
L 478.649397 21.789375 
" clip-path="url(#p38241d9e05)" style="fill: none; stroke: #cccccc; stroke-width: 0.8; stroke-linecap: round"/>
     </g>
     <g id="text_13">
      <!-- −2 -->
      <g style="fill: #262626" transform="translate(472.948616 258.329006)scale(0.1 -0.1)">
       <use xlink:href="#ArialMT-2212"/>
       <use xlink:href="#ArialMT-32" x="58.398438"/>
      </g>
     </g>
    </g>
    <g id="xtick_23">
     <g id="line2d_14">
      <path d="M 517.471289 244.171193 
L 517.471289 21.789375 
" clip-path="url(#p38241d9e05)" style="fill: none; stroke: #cccccc; stroke-width: 0.8; stroke-linecap: round"/>
     </g>
     <g id="text_14">
      <!-- −1 -->
      <g style="fill: #262626" transform="translate(511.770508 258.329006)scale(0.1 -0.1)">
       <use xlink:href="#ArialMT-2212"/>
       <use xlink:href="#ArialMT-31" x="58.398438"/>
      </g>
     </g>
    </g>
    <g id="xtick_24">
     <g id="line2d_15">
      <path d="M 556.293182 244.171193 
L 556.293182 21.789375 
" clip-path="url(#p38241d9e05)" style="fill: none; stroke: #cccccc; stroke-width: 0.8; stroke-linecap: round"/>
     </g>
     <g id="text_15">
      <!-- 0 -->
      <g style="fill: #262626" transform="translate(553.512713 258.329006)scale(0.1 -0.1)">
       <use xlink:href="#ArialMT-30"/>
      </g>
     </g>
    </g>
    <g id="xtick_25">
     <g id="line2d_16">
      <path d="M 595.115074 244.171193 
L 595.115074 21.789375 
" clip-path="url(#p38241d9e05)" style="fill: none; stroke: #cccccc; stroke-width: 0.8; stroke-linecap: round"/>
     </g>
     <g id="text_16">
      <!-- 1 -->
      <g style="fill: #262626" transform="translate(592.334605 258.329006)scale(0.1 -0.1)">
       <use xlink:href="#ArialMT-31"/>
      </g>
     </g>
    </g>
    <g id="xtick_26">
     <g id="line2d_17">
      <path d="M 633.936967 244.171193 
L 633.936967 21.789375 
" clip-path="url(#p38241d9e05)" style="fill: none; stroke: #cccccc; stroke-width: 0.8; stroke-linecap: round"/>
     </g>
     <g id="text_17">
      <!-- 2 -->
      <g style="fill: #262626" transform="translate(631.156498 258.329006)scale(0.1 -0.1)">
       <use xlink:href="#ArialMT-32"/>
      </g>
     </g>
    </g>
    <g id="xtick_27">
     <g id="line2d_18">
      <path d="M 672.758859 244.171193 
L 672.758859 21.789375 
" clip-path="url(#p38241d9e05)" style="fill: none; stroke: #cccccc; stroke-width: 0.8; stroke-linecap: round"/>
     </g>
     <g id="text_18">
      <!-- 3 -->
      <g style="fill: #262626" transform="translate(669.97839 258.329006)scale(0.1 -0.1)">
       <use xlink:href="#ArialMT-33"/>
      </g>
     </g>
    </g>
   </g>
   <g id="matplotlib.axis_4">
    <g id="ytick_6">
     <g id="line2d_19">
      <path d="M 404.111364 244.171193 
L 708.475 244.171193 
" clip-path="url(#p38241d9e05)" style="fill: none; stroke: #cccccc; stroke-width: 0.8; stroke-linecap: round"/>
     </g>
     <g id="text_19">
      <!-- 0.0 -->
      <g style="fill: #262626" transform="translate(383.211364 247.750099)scale(0.1 -0.1)">
       <defs>
        <path id="ArialMT-2e" d="M 581 0 
L 581 641 
L 1222 641 
L 1222 0 
L 581 0 
z
" transform="scale(0.015625)"/>
       </defs>
       <use xlink:href="#ArialMT-30"/>
       <use xlink:href="#ArialMT-2e" x="55.615234"/>
       <use xlink:href="#ArialMT-30" x="83.398438"/>
      </g>
     </g>
    </g>
    <g id="ytick_7">
     <g id="line2d_20">
      <path d="M 404.111364 196.435976 
L 708.475 196.435976 
" clip-path="url(#p38241d9e05)" style="fill: none; stroke: #cccccc; stroke-width: 0.8; stroke-linecap: round"/>
     </g>
     <g id="text_20">
      <!-- 0.1 -->
      <g style="fill: #262626" transform="translate(383.211364 200.014882)scale(0.1 -0.1)">
       <use xlink:href="#ArialMT-30"/>
       <use xlink:href="#ArialMT-2e" x="55.615234"/>
       <use xlink:href="#ArialMT-31" x="83.398438"/>
      </g>
     </g>
    </g>
    <g id="ytick_8">
     <g id="line2d_21">
      <path d="M 404.111364 148.700759 
L 708.475 148.700759 
" clip-path="url(#p38241d9e05)" style="fill: none; stroke: #cccccc; stroke-width: 0.8; stroke-linecap: round"/>
     </g>
     <g id="text_21">
      <!-- 0.2 -->
      <g style="fill: #262626" transform="translate(383.211364 152.279665)scale(0.1 -0.1)">
       <use xlink:href="#ArialMT-30"/>
       <use xlink:href="#ArialMT-2e" x="55.615234"/>
       <use xlink:href="#ArialMT-32" x="83.398438"/>
      </g>
     </g>
    </g>
    <g id="ytick_9">
     <g id="line2d_22">
      <path d="M 404.111364 100.965542 
L 708.475 100.965542 
" clip-path="url(#p38241d9e05)" style="fill: none; stroke: #cccccc; stroke-width: 0.8; stroke-linecap: round"/>
     </g>
     <g id="text_22">
      <!-- 0.3 -->
      <g style="fill: #262626" transform="translate(383.211364 104.544448)scale(0.1 -0.1)">
       <use xlink:href="#ArialMT-30"/>
       <use xlink:href="#ArialMT-2e" x="55.615234"/>
       <use xlink:href="#ArialMT-33" x="83.398438"/>
      </g>
     </g>
    </g>
    <g id="ytick_10">
     <g id="line2d_23">
      <path d="M 404.111364 53.230325 
L 708.475 53.230325 
" clip-path="url(#p38241d9e05)" style="fill: none; stroke: #cccccc; stroke-width: 0.8; stroke-linecap: round"/>
     </g>
     <g id="text_23">
      <!-- 0.4 -->
      <g style="fill: #262626" transform="translate(383.211364 56.809231)scale(0.1 -0.1)">
       <defs>
        <path id="ArialMT-34" d="M 2069 0 
L 2069 1097 
L 81 1097 
L 81 1613 
L 2172 4581 
L 2631 4581 
L 2631 1613 
L 3250 1613 
L 3250 1097 
L 2631 1097 
L 2631 0 
L 2069 0 
z
M 2069 1613 
L 2069 3678 
L 634 1613 
L 2069 1613 
z
" transform="scale(0.015625)"/>
       </defs>
       <use xlink:href="#ArialMT-30"/>
       <use xlink:href="#ArialMT-2e" x="55.615234"/>
       <use xlink:href="#ArialMT-34" x="83.398438"/>
      </g>
     </g>
    </g>
   </g>
   <g id="patch_8">
    <path d="M 478.108496 244.171193 
L 496.211843 244.171193 
L 496.211843 208.872492 
L 478.108496 208.872492 
z
" clip-path="url(#p38241d9e05)" style="fill: #4c72b0; stroke: #ffffff; stroke-linejoin: miter"/>
   </g>
   <g id="patch_9">
    <path d="M 496.211843 244.171193 
L 514.31519 244.171193 
L 514.31519 208.872492 
L 496.211843 208.872492 
z
" clip-path="url(#p38241d9e05)" style="fill: #4c72b0; stroke: #ffffff; stroke-linejoin: miter"/>
   </g>
   <g id="patch_10">
    <path d="M 514.31519 244.171193 
L 532.418537 244.171193 
L 532.418537 50.028336 
L 514.31519 50.028336 
z
" clip-path="url(#p38241d9e05)" style="fill: #4c72b0; stroke: #ffffff; stroke-linejoin: miter"/>
   </g>
   <g id="patch_11">
    <path d="M 532.418537 244.171193 
L 550.521884 244.171193 
L 550.521884 120.625739 
L 532.418537 120.625739 
z
" clip-path="url(#p38241d9e05)" style="fill: #4c72b0; stroke: #ffffff; stroke-linejoin: miter"/>
   </g>
   <g id="patch_12">
    <path d="M 550.521884 244.171193 
L 568.625231 244.171193 
L 568.625231 32.378985 
L 550.521884 32.378985 
z
" clip-path="url(#p38241d9e05)" style="fill: #4c72b0; stroke: #ffffff; stroke-linejoin: miter"/>
   </g>
   <g id="patch_13">
    <path d="M 568.625231 244.171193 
L 586.728578 244.171193 
L 586.728578 85.327037 
L 568.625231 85.327037 
z
" clip-path="url(#p38241d9e05)" style="fill: #4c72b0; stroke: #ffffff; stroke-linejoin: miter"/>
   </g>
   <g id="patch_14">
    <path d="M 586.728578 244.171193 
L 604.831925 244.171193 
L 604.831925 102.976388 
L 586.728578 102.976388 
z
" clip-path="url(#p38241d9e05)" style="fill: #4c72b0; stroke: #ffffff; stroke-linejoin: miter"/>
   </g>
   <g id="patch_15">
    <path d="M 604.831925 244.171193 
L 622.935272 244.171193 
L 622.935272 208.872492 
L 604.831925 208.872492 
z
" clip-path="url(#p38241d9e05)" style="fill: #4c72b0; stroke: #ffffff; stroke-linejoin: miter"/>
   </g>
   <g id="patch_16">
    <path d="M 622.935272 244.171193 
L 641.038619 244.171193 
L 641.038619 173.573791 
L 622.935272 173.573791 
z
" clip-path="url(#p38241d9e05)" style="fill: #4c72b0; stroke: #ffffff; stroke-linejoin: miter"/>
   </g>
   <g id="patch_17">
    <path d="M 641.038619 244.171193 
L 659.141966 244.171193 
L 659.141966 226.521843 
L 641.038619 226.521843 
z
" clip-path="url(#p38241d9e05)" style="fill: #4c72b0; stroke: #ffffff; stroke-linejoin: miter"/>
   </g>
   <g id="line2d_24">
    <path d="M 404.111364 244.170481 
L 410.322866 244.167992 
L 416.534369 244.158528 
L 422.745872 244.127061 
L 428.957375 244.035566 
L 435.168878 243.802936 
L 441.38038 243.285507 
L 447.591883 242.277235 
L 453.803386 240.54943 
L 460.014889 237.922288 
L 466.226391 234.308998 
L 472.437894 229.647987 
L 478.649397 223.704873 
L 484.8609 215.876609 
L 491.072403 205.240104 
L 497.283905 190.995424 
L 503.495408 173.144384 
L 509.706911 152.940678 
L 515.918414 132.664028 
L 522.129917 114.711334 
L 528.341419 100.559814 
L 534.552922 90.325377 
L 540.764425 83.187288 
L 546.975928 78.254347 
L 553.18743 75.16864 
L 559.398933 74.119672 
L 565.610436 75.518065 
L 571.821939 79.743681 
L 578.033442 87.081763 
L 584.244944 97.666339 
L 590.456447 111.299884 
L 596.66795 127.247311 
L 602.879453 144.196659 
L 609.090955 160.49562 
L 615.302458 174.637881 
L 621.513961 185.818557 
L 627.725464 194.236944 
L 633.936967 200.884719 
L 640.148469 206.910881 
L 646.359972 213.008926 
L 652.571475 219.229669 
L 658.782978 225.220168 
L 664.994481 230.572006 
L 671.205983 235.015499 
L 677.417486 238.444096 
L 683.628989 240.881808 
L 689.840492 242.456662 
L 696.051994 243.368239 
L 702.263497 243.835896 
L 708.475 244.047031 
" clip-path="url(#p38241d9e05)" style="fill: none; stroke: #dd8452; stroke-width: 1.5; stroke-linecap: round"/>
   </g>
   <g id="line2d_25">
    <path d="M 404.111364 244.083498 
L 410.322866 244.009084 
L 416.534369 243.8791 
L 422.745872 243.658196 
L 428.957375 243.292996 
L 435.168878 242.705811 
L 441.38038 241.787822 
L 447.591883 240.392735 
L 453.803386 238.332448 
L 460.014889 235.376786 
L 466.226391 231.259724 
L 472.437894 225.694391 
L 478.649397 218.398488 
L 484.8609 209.130292 
L 491.072403 197.733291 
L 497.283905 184.184906 
L 503.495408 168.642246 
L 509.706911 151.476058 
L 515.918414 133.283714 
L 522.129917 114.873688 
L 528.341419 97.217726 
L 534.552922 81.372246 
L 540.764425 68.376642 
L 546.975928 59.141561 
L 553.18743 54.343651 
L 559.398933 54.343651 
L 565.610436 59.141561 
L 571.821939 68.376642 
L 578.033442 81.372246 
L 584.244944 97.217726 
L 590.456447 114.873688 
L 596.66795 133.283714 
L 602.879453 151.476058 
L 609.090955 168.642246 
L 615.302458 184.184906 
L 621.513961 197.733291 
L 627.725464 209.130292 
L 633.936967 218.398488 
L 640.148469 225.694391 
L 646.359972 231.259724 
L 652.571475 235.376786 
L 658.782978 238.332448 
L 664.994481 240.392735 
L 671.205983 241.787822 
L 677.417486 242.705811 
L 683.628989 243.292996 
L 689.840492 243.658196 
L 696.051994 243.8791 
L 702.263497 244.009084 
L 708.475 244.083498 
" clip-path="url(#p38241d9e05)" style="fill: none; stroke: #55a868; stroke-width: 1.5; stroke-linecap: round"/>
   </g>
   <g id="patch_18">
    <path d="M 404.111364 244.171193 
L 404.111364 21.789375 
" style="fill: none; stroke: #ffffff; stroke-width: 0.8; stroke-linejoin: miter; stroke-linecap: square"/>
   </g>
   <g id="patch_19">
    <path d="M 708.475 244.171193 
L 708.475 21.789375 
" style="fill: none; stroke: #ffffff; stroke-width: 0.8; stroke-linejoin: miter; stroke-linecap: square"/>
   </g>
   <g id="patch_20">
    <path d="M 404.111364 244.171193 
L 708.475 244.171193 
" style="fill: none; stroke: #ffffff; stroke-width: 0.8; stroke-linejoin: miter; stroke-linecap: square"/>
   </g>
   <g id="patch_21">
    <path d="M 404.111364 21.789375 
L 708.475 21.789375 
" style="fill: none; stroke: #ffffff; stroke-width: 0.8; stroke-linejoin: miter; stroke-linecap: square"/>
   </g>
   <g id="text_24">
    <!-- Histogram plus estimated density -->
    <g style="fill: #262626" transform="translate(467.927244 15.789375)scale(0.12 -0.12)">
     <defs>
      <path id="ArialMT-48" d="M 513 0 
L 513 4581 
L 1119 4581 
L 1119 2700 
L 3500 2700 
L 3500 4581 
L 4106 4581 
L 4106 0 
L 3500 0 
L 3500 2159 
L 1119 2159 
L 1119 0 
L 513 0 
z
" transform="scale(0.015625)"/>
      <path id="ArialMT-67" d="M 319 -275 
L 866 -356 
Q 900 -609 1056 -725 
Q 1266 -881 1628 -881 
Q 2019 -881 2231 -725 
Q 2444 -569 2519 -288 
Q 2563 -116 2559 434 
Q 2191 0 1641 0 
Q 956 0 581 494 
Q 206 988 206 1678 
Q 206 2153 378 2554 
Q 550 2956 876 3175 
Q 1203 3394 1644 3394 
Q 2231 3394 2613 2919 
L 2613 3319 
L 3131 3319 
L 3131 450 
Q 3131 -325 2973 -648 
Q 2816 -972 2473 -1159 
Q 2131 -1347 1631 -1347 
Q 1038 -1347 672 -1080 
Q 306 -813 319 -275 
z
M 784 1719 
Q 784 1066 1043 766 
Q 1303 466 1694 466 
Q 2081 466 2343 764 
Q 2606 1063 2606 1700 
Q 2606 2309 2336 2618 
Q 2066 2928 1684 2928 
Q 1309 2928 1046 2623 
Q 784 2319 784 1719 
z
" transform="scale(0.015625)"/>
      <path id="ArialMT-6d" d="M 422 0 
L 422 3319 
L 925 3319 
L 925 2853 
Q 1081 3097 1340 3245 
Q 1600 3394 1931 3394 
Q 2300 3394 2536 3241 
Q 2772 3088 2869 2813 
Q 3263 3394 3894 3394 
Q 4388 3394 4653 3120 
Q 4919 2847 4919 2278 
L 4919 0 
L 4359 0 
L 4359 2091 
Q 4359 2428 4304 2576 
Q 4250 2725 4106 2815 
Q 3963 2906 3769 2906 
Q 3419 2906 3187 2673 
Q 2956 2441 2956 1928 
L 2956 0 
L 2394 0 
L 2394 2156 
Q 2394 2531 2256 2718 
Q 2119 2906 1806 2906 
Q 1569 2906 1367 2781 
Q 1166 2656 1075 2415 
Q 984 2175 984 1722 
L 984 0 
L 422 0 
z
" transform="scale(0.015625)"/>
      <path id="ArialMT-70" d="M 422 -1272 
L 422 3319 
L 934 3319 
L 934 2888 
Q 1116 3141 1344 3267 
Q 1572 3394 1897 3394 
Q 2322 3394 2647 3175 
Q 2972 2956 3137 2557 
Q 3303 2159 3303 1684 
Q 3303 1175 3120 767 
Q 2938 359 2589 142 
Q 2241 -75 1856 -75 
Q 1575 -75 1351 44 
Q 1128 163 984 344 
L 984 -1272 
L 422 -1272 
z
M 931 1641 
Q 931 1000 1190 694 
Q 1450 388 1819 388 
Q 2194 388 2461 705 
Q 2728 1022 2728 1688 
Q 2728 2322 2467 2637 
Q 2206 2953 1844 2953 
Q 1484 2953 1207 2617 
Q 931 2281 931 1641 
z
" transform="scale(0.015625)"/>
      <path id="ArialMT-79" d="M 397 -1278 
L 334 -750 
Q 519 -800 656 -800 
Q 844 -800 956 -737 
Q 1069 -675 1141 -563 
Q 1194 -478 1313 -144 
Q 1328 -97 1363 -6 
L 103 3319 
L 709 3319 
L 1400 1397 
Q 1534 1031 1641 628 
Q 1738 1016 1872 1384 
L 2581 3319 
L 3144 3319 
L 1881 -56 
Q 1678 -603 1566 -809 
Q 1416 -1088 1222 -1217 
Q 1028 -1347 759 -1347 
Q 597 -1347 397 -1278 
z
" transform="scale(0.015625)"/>
     </defs>
     <use xlink:href="#ArialMT-48"/>
     <use xlink:href="#ArialMT-69" x="72.216797"/>
     <use xlink:href="#ArialMT-73" x="94.433594"/>
     <use xlink:href="#ArialMT-74" x="144.433594"/>
     <use xlink:href="#ArialMT-6f" x="172.216797"/>
     <use xlink:href="#ArialMT-67" x="227.832031"/>
     <use xlink:href="#ArialMT-72" x="283.447266"/>
     <use xlink:href="#ArialMT-61" x="316.748047"/>
     <use xlink:href="#ArialMT-6d" x="372.363281"/>
     <use xlink:href="#ArialMT-20" x="455.664062"/>
     <use xlink:href="#ArialMT-70" x="483.447266"/>
     <use xlink:href="#ArialMT-6c" x="539.0625"/>
     <use xlink:href="#ArialMT-75" x="561.279297"/>
     <use xlink:href="#ArialMT-73" x="616.894531"/>
     <use xlink:href="#ArialMT-20" x="666.894531"/>
     <use xlink:href="#ArialMT-65" x="694.677734"/>
     <use xlink:href="#ArialMT-73" x="750.292969"/>
     <use xlink:href="#ArialMT-74" x="800.292969"/>
     <use xlink:href="#ArialMT-69" x="828.076172"/>
     <use xlink:href="#ArialMT-6d" x="850.292969"/>
     <use xlink:href="#ArialMT-61" x="933.59375"/>
     <use xlink:href="#ArialMT-74" x="989.208984"/>
     <use xlink:href="#ArialMT-65" x="1016.992188"/>
     <use xlink:href="#ArialMT-64" x="1072.607422"/>
     <use xlink:href="#ArialMT-20" x="1128.222656"/>
     <use xlink:href="#ArialMT-64" x="1156.005859"/>
     <use xlink:href="#ArialMT-65" x="1211.621094"/>
     <use xlink:href="#ArialMT-6e" x="1267.236328"/>
     <use xlink:href="#ArialMT-73" x="1322.851562"/>
     <use xlink:href="#ArialMT-69" x="1372.851562"/>
     <use xlink:href="#ArialMT-74" x="1395.068359"/>
     <use xlink:href="#ArialMT-79" x="1422.851562"/>
    </g>
   </g>
   <g id="legend_1">
    <g id="patch_22">
     <path d="M 641.69375 72.464375 
L 701.475 72.464375 
Q 703.475 72.464375 703.475 70.464375 
L 703.475 28.789375 
Q 703.475 26.789375 701.475 26.789375 
L 641.69375 26.789375 
Q 639.69375 26.789375 639.69375 28.789375 
L 639.69375 70.464375 
Q 639.69375 72.464375 641.69375 72.464375 
z
" style="fill: #e6e6e6; opacity: 0.8; stroke: #cccccc; stroke-linejoin: miter"/>
    </g>
    <g id="patch_23">
     <path d="M 643.69375 37.947188 
L 663.69375 37.947188 
L 663.69375 30.947188 
L 643.69375 30.947188 
z
" style="fill: #4c72b0; stroke: #ffffff; stroke-linejoin: miter"/>
    </g>
    <g id="text_25">
     <!-- Hist -->
     <g style="fill: #262626" transform="translate(671.69375 37.947188)scale(0.1 -0.1)">
      <use xlink:href="#ArialMT-48"/>
      <use xlink:href="#ArialMT-69" x="72.216797"/>
      <use xlink:href="#ArialMT-73" x="94.433594"/>
      <use xlink:href="#ArialMT-74" x="144.433594"/>
     </g>
    </g>
    <g id="line2d_26">
     <path d="M 643.69375 48.5925 
L 653.69375 48.5925 
L 663.69375 48.5925 
" style="fill: none; stroke: #dd8452; stroke-width: 1.5; stroke-linecap: round"/>
    </g>
    <g id="text_26">
     <!-- KDE -->
     <g style="fill: #262626" transform="translate(671.69375 52.0925)scale(0.1 -0.1)">
      <defs>
       <path id="ArialMT-4b" d="M 469 0 
L 469 4581 
L 1075 4581 
L 1075 2309 
L 3350 4581 
L 4172 4581 
L 2250 2725 
L 4256 0 
L 3456 0 
L 1825 2319 
L 1075 1588 
L 1075 0 
L 469 0 
z
" transform="scale(0.015625)"/>
       <path id="ArialMT-44" d="M 494 0 
L 494 4581 
L 2072 4581 
Q 2606 4581 2888 4516 
Q 3281 4425 3559 4188 
Q 3922 3881 4101 3404 
Q 4281 2928 4281 2316 
Q 4281 1794 4159 1391 
Q 4038 988 3847 723 
Q 3656 459 3429 307 
Q 3203 156 2883 78 
Q 2563 0 2147 0 
L 494 0 
z
M 1100 541 
L 2078 541 
Q 2531 541 2789 625 
Q 3047 709 3200 863 
Q 3416 1078 3536 1442 
Q 3656 1806 3656 2325 
Q 3656 3044 3420 3430 
Q 3184 3816 2847 3947 
Q 2603 4041 2063 4041 
L 1100 4041 
L 1100 541 
z
" transform="scale(0.015625)"/>
       <path id="ArialMT-45" d="M 506 0 
L 506 4581 
L 3819 4581 
L 3819 4041 
L 1113 4041 
L 1113 2638 
L 3647 2638 
L 3647 2100 
L 1113 2100 
L 1113 541 
L 3925 541 
L 3925 0 
L 506 0 
z
" transform="scale(0.015625)"/>
      </defs>
      <use xlink:href="#ArialMT-4b"/>
      <use xlink:href="#ArialMT-44" x="66.699219"/>
      <use xlink:href="#ArialMT-45" x="138.916016"/>
     </g>
    </g>
    <g id="line2d_27">
     <path d="M 643.69375 62.859688 
L 653.69375 62.859688 
L 663.69375 62.859688 
" style="fill: none; stroke: #55a868; stroke-width: 1.5; stroke-linecap: round"/>
    </g>
    <g id="text_27">
     <!-- N(0,1) -->
     <g style="fill: #262626" transform="translate(671.69375 66.359688)scale(0.1 -0.1)">
      <defs>
       <path id="ArialMT-4e" d="M 488 0 
L 488 4581 
L 1109 4581 
L 3516 984 
L 3516 4581 
L 4097 4581 
L 4097 0 
L 3475 0 
L 1069 3600 
L 1069 0 
L 488 0 
z
" transform="scale(0.015625)"/>
       <path id="ArialMT-28" d="M 1497 -1347 
Q 1031 -759 709 28 
Q 388 816 388 1659 
Q 388 2403 628 3084 
Q 909 3875 1497 4659 
L 1900 4659 
Q 1522 4009 1400 3731 
Q 1209 3300 1100 2831 
Q 966 2247 966 1656 
Q 966 153 1900 -1347 
L 1497 -1347 
z
" transform="scale(0.015625)"/>
       <path id="ArialMT-2c" d="M 569 0 
L 569 641 
L 1209 641 
L 1209 0 
Q 1209 -353 1084 -570 
Q 959 -788 688 -906 
L 531 -666 
Q 709 -588 793 -436 
Q 878 -284 888 0 
L 569 0 
z
" transform="scale(0.015625)"/>
       <path id="ArialMT-29" d="M 791 -1347 
L 388 -1347 
Q 1322 153 1322 1656 
Q 1322 2244 1188 2822 
Q 1081 3291 891 3722 
Q 769 4003 388 4659 
L 791 4659 
Q 1378 3875 1659 3084 
Q 1900 2403 1900 1659 
Q 1900 816 1576 28 
Q 1253 -759 791 -1347 
z
" transform="scale(0.015625)"/>
      </defs>
      <use xlink:href="#ArialMT-4e"/>
      <use xlink:href="#ArialMT-28" x="72.216797"/>
      <use xlink:href="#ArialMT-30" x="105.517578"/>
      <use xlink:href="#ArialMT-2c" x="161.132812"/>
      <use xlink:href="#ArialMT-31" x="188.916016"/>
      <use xlink:href="#ArialMT-29" x="244.53125"/>
     </g>
    </g>
   </g>
  </g>
  <g id="axes_3">
   <g id="patch_24">
    <path d="M 38.875 511.029375 
L 343.238636 511.029375 
L 343.238636 288.647557 
L 38.875 288.647557 
z
" style="fill: #e6e6e6"/>
   </g>
   <g id="matplotlib.axis_5">
    <g id="xtick_28">
     <g id="line2d_28">
      <path d="M 53.094155 511.029375 
L 53.094155 288.647557 
" clip-path="url(#p55eace1165)" style="fill: none; stroke: #cccccc; stroke-width: 0.8; stroke-linecap: round"/>
     </g>
     <g id="text_28">
      <!-- −2.0 -->
      <g style="fill: #262626" transform="translate(43.223842 525.187187)scale(0.1 -0.1)">
       <use xlink:href="#ArialMT-2212"/>
       <use xlink:href="#ArialMT-32" x="58.398438"/>
       <use xlink:href="#ArialMT-2e" x="114.013672"/>
       <use xlink:href="#ArialMT-30" x="141.796875"/>
      </g>
     </g>
    </g>
    <g id="xtick_29">
     <g id="line2d_29">
      <path d="M 87.584821 511.029375 
L 87.584821 288.647557 
" clip-path="url(#p55eace1165)" style="fill: none; stroke: #cccccc; stroke-width: 0.8; stroke-linecap: round"/>
     </g>
     <g id="text_29">
      <!-- −1.5 -->
      <g style="fill: #262626" transform="translate(77.714508 525.187187)scale(0.1 -0.1)">
       <defs>
        <path id="ArialMT-35" d="M 266 1200 
L 856 1250 
Q 922 819 1161 601 
Q 1400 384 1738 384 
Q 2144 384 2425 690 
Q 2706 997 2706 1503 
Q 2706 1984 2436 2262 
Q 2166 2541 1728 2541 
Q 1456 2541 1237 2417 
Q 1019 2294 894 2097 
L 366 2166 
L 809 4519 
L 3088 4519 
L 3088 3981 
L 1259 3981 
L 1013 2750 
Q 1425 3038 1878 3038 
Q 2478 3038 2890 2622 
Q 3303 2206 3303 1553 
Q 3303 931 2941 478 
Q 2500 -78 1738 -78 
Q 1113 -78 717 272 
Q 322 622 266 1200 
z
" transform="scale(0.015625)"/>
       </defs>
       <use xlink:href="#ArialMT-2212"/>
       <use xlink:href="#ArialMT-31" x="58.398438"/>
       <use xlink:href="#ArialMT-2e" x="114.013672"/>
       <use xlink:href="#ArialMT-35" x="141.796875"/>
      </g>
     </g>
    </g>
    <g id="xtick_30">
     <g id="line2d_30">
      <path d="M 122.075486 511.029375 
L 122.075486 288.647557 
" clip-path="url(#p55eace1165)" style="fill: none; stroke: #cccccc; stroke-width: 0.8; stroke-linecap: round"/>
     </g>
     <g id="text_30">
      <!-- −1.0 -->
      <g style="fill: #262626" transform="translate(112.205174 525.187187)scale(0.1 -0.1)">
       <use xlink:href="#ArialMT-2212"/>
       <use xlink:href="#ArialMT-31" x="58.398438"/>
       <use xlink:href="#ArialMT-2e" x="114.013672"/>
       <use xlink:href="#ArialMT-30" x="141.796875"/>
      </g>
     </g>
    </g>
    <g id="xtick_31">
     <g id="line2d_31">
      <path d="M 156.566152 511.029375 
L 156.566152 288.647557 
" clip-path="url(#p55eace1165)" style="fill: none; stroke: #cccccc; stroke-width: 0.8; stroke-linecap: round"/>
     </g>
     <g id="text_31">
      <!-- −0.5 -->
      <g style="fill: #262626" transform="translate(146.69584 525.187187)scale(0.1 -0.1)">
       <use xlink:href="#ArialMT-2212"/>
       <use xlink:href="#ArialMT-30" x="58.398438"/>
       <use xlink:href="#ArialMT-2e" x="114.013672"/>
       <use xlink:href="#ArialMT-35" x="141.796875"/>
      </g>
     </g>
    </g>
    <g id="xtick_32">
     <g id="line2d_32">
      <path d="M 191.056818 511.029375 
L 191.056818 288.647557 
" clip-path="url(#p55eace1165)" style="fill: none; stroke: #cccccc; stroke-width: 0.8; stroke-linecap: round"/>
     </g>
     <g id="text_32">
      <!-- 0.0 -->
      <g style="fill: #262626" transform="translate(184.106818 525.187187)scale(0.1 -0.1)">
       <use xlink:href="#ArialMT-30"/>
       <use xlink:href="#ArialMT-2e" x="55.615234"/>
       <use xlink:href="#ArialMT-30" x="83.398438"/>
      </g>
     </g>
    </g>
    <g id="xtick_33">
     <g id="line2d_33">
      <path d="M 225.547484 511.029375 
L 225.547484 288.647557 
" clip-path="url(#p55eace1165)" style="fill: none; stroke: #cccccc; stroke-width: 0.8; stroke-linecap: round"/>
     </g>
     <g id="text_33">
      <!-- 0.5 -->
      <g style="fill: #262626" transform="translate(218.597484 525.187187)scale(0.1 -0.1)">
       <use xlink:href="#ArialMT-30"/>
       <use xlink:href="#ArialMT-2e" x="55.615234"/>
       <use xlink:href="#ArialMT-35" x="83.398438"/>
      </g>
     </g>
    </g>
    <g id="xtick_34">
     <g id="line2d_34">
      <path d="M 260.03815 511.029375 
L 260.03815 288.647557 
" clip-path="url(#p55eace1165)" style="fill: none; stroke: #cccccc; stroke-width: 0.8; stroke-linecap: round"/>
     </g>
     <g id="text_34">
      <!-- 1.0 -->
      <g style="fill: #262626" transform="translate(253.08815 525.187187)scale(0.1 -0.1)">
       <use xlink:href="#ArialMT-31"/>
       <use xlink:href="#ArialMT-2e" x="55.615234"/>
       <use xlink:href="#ArialMT-30" x="83.398438"/>
      </g>
     </g>
    </g>
    <g id="xtick_35">
     <g id="line2d_35">
      <path d="M 294.528816 511.029375 
L 294.528816 288.647557 
" clip-path="url(#p55eace1165)" style="fill: none; stroke: #cccccc; stroke-width: 0.8; stroke-linecap: round"/>
     </g>
     <g id="text_35">
      <!-- 1.5 -->
      <g style="fill: #262626" transform="translate(287.578816 525.187187)scale(0.1 -0.1)">
       <use xlink:href="#ArialMT-31"/>
       <use xlink:href="#ArialMT-2e" x="55.615234"/>
       <use xlink:href="#ArialMT-35" x="83.398438"/>
      </g>
     </g>
    </g>
    <g id="xtick_36">
     <g id="line2d_36">
      <path d="M 329.019482 511.029375 
L 329.019482 288.647557 
" clip-path="url(#p55eace1165)" style="fill: none; stroke: #cccccc; stroke-width: 0.8; stroke-linecap: round"/>
     </g>
     <g id="text_36">
      <!-- 2.0 -->
      <g style="fill: #262626" transform="translate(322.069482 525.187187)scale(0.1 -0.1)">
       <use xlink:href="#ArialMT-32"/>
       <use xlink:href="#ArialMT-2e" x="55.615234"/>
       <use xlink:href="#ArialMT-30" x="83.398438"/>
      </g>
     </g>
    </g>
    <g id="text_37">
     <!-- Theoretical Quantiles -->
     <g style="fill: #262626" transform="translate(143.813849 538.3325)scale(0.1 -0.1)">
      <defs>
       <path id="ArialMT-54" d="M 1659 0 
L 1659 4041 
L 150 4041 
L 150 4581 
L 3781 4581 
L 3781 4041 
L 2266 4041 
L 2266 0 
L 1659 0 
z
" transform="scale(0.015625)"/>
       <path id="ArialMT-68" d="M 422 0 
L 422 4581 
L 984 4581 
L 984 2938 
Q 1378 3394 1978 3394 
Q 2347 3394 2619 3248 
Q 2891 3103 3008 2847 
Q 3125 2591 3125 2103 
L 3125 0 
L 2563 0 
L 2563 2103 
Q 2563 2525 2380 2717 
Q 2197 2909 1863 2909 
Q 1613 2909 1392 2779 
Q 1172 2650 1078 2428 
Q 984 2206 984 1816 
L 984 0 
L 422 0 
z
" transform="scale(0.015625)"/>
       <path id="ArialMT-63" d="M 2588 1216 
L 3141 1144 
Q 3050 572 2676 248 
Q 2303 -75 1759 -75 
Q 1078 -75 664 370 
Q 250 816 250 1647 
Q 250 2184 428 2587 
Q 606 2991 970 3192 
Q 1334 3394 1763 3394 
Q 2303 3394 2647 3120 
Q 2991 2847 3088 2344 
L 2541 2259 
Q 2463 2594 2264 2762 
Q 2066 2931 1784 2931 
Q 1359 2931 1093 2626 
Q 828 2322 828 1663 
Q 828 994 1084 691 
Q 1341 388 1753 388 
Q 2084 388 2306 591 
Q 2528 794 2588 1216 
z
" transform="scale(0.015625)"/>
       <path id="ArialMT-51" d="M 3966 491 
Q 4388 200 4744 66 
L 4566 -356 
Q 4072 -178 3581 206 
Q 3072 -78 2456 -78 
Q 1834 -78 1328 222 
Q 822 522 548 1065 
Q 275 1609 275 2291 
Q 275 2969 550 3525 
Q 825 4081 1333 4372 
Q 1841 4663 2469 4663 
Q 3103 4663 3612 4361 
Q 4122 4059 4389 3517 
Q 4656 2975 4656 2294 
Q 4656 1728 4484 1276 
Q 4313 825 3966 491 
z
M 2631 1266 
Q 3156 1119 3497 828 
Q 4031 1316 4031 2294 
Q 4031 2850 3842 3265 
Q 3653 3681 3289 3911 
Q 2925 4141 2472 4141 
Q 1794 4141 1347 3677 
Q 900 3213 900 2291 
Q 900 1397 1342 919 
Q 1784 441 2472 441 
Q 2797 441 3084 563 
Q 2800 747 2484 825 
L 2631 1266 
z
" transform="scale(0.015625)"/>
      </defs>
      <use xlink:href="#ArialMT-54"/>
      <use xlink:href="#ArialMT-68" x="61.083984"/>
      <use xlink:href="#ArialMT-65" x="116.699219"/>
      <use xlink:href="#ArialMT-6f" x="172.314453"/>
      <use xlink:href="#ArialMT-72" x="227.929688"/>
      <use xlink:href="#ArialMT-65" x="261.230469"/>
      <use xlink:href="#ArialMT-74" x="316.845703"/>
      <use xlink:href="#ArialMT-69" x="344.628906"/>
      <use xlink:href="#ArialMT-63" x="366.845703"/>
      <use xlink:href="#ArialMT-61" x="416.845703"/>
      <use xlink:href="#ArialMT-6c" x="472.460938"/>
      <use xlink:href="#ArialMT-20" x="494.677734"/>
      <use xlink:href="#ArialMT-51" x="522.460938"/>
      <use xlink:href="#ArialMT-75" x="600.244141"/>
      <use xlink:href="#ArialMT-61" x="655.859375"/>
      <use xlink:href="#ArialMT-6e" x="711.474609"/>
      <use xlink:href="#ArialMT-74" x="767.089844"/>
      <use xlink:href="#ArialMT-69" x="794.873047"/>
      <use xlink:href="#ArialMT-6c" x="817.089844"/>
      <use xlink:href="#ArialMT-65" x="839.306641"/>
      <use xlink:href="#ArialMT-73" x="894.921875"/>
     </g>
    </g>
   </g>
   <g id="matplotlib.axis_6">
    <g id="ytick_11">
     <g id="line2d_37">
      <path d="M 38.875 500.31707 
L 343.238636 500.31707 
" clip-path="url(#p55eace1165)" style="fill: none; stroke: #cccccc; stroke-width: 0.8; stroke-linecap: round"/>
     </g>
     <g id="text_38">
      <!-- −2 -->
      <g style="fill: #262626" transform="translate(20.473437 503.895977)scale(0.1 -0.1)">
       <use xlink:href="#ArialMT-2212"/>
       <use xlink:href="#ArialMT-32" x="58.398438"/>
      </g>
     </g>
    </g>
    <g id="ytick_12">
     <g id="line2d_38">
      <path d="M 38.875 456.963545 
L 343.238636 456.963545 
" clip-path="url(#p55eace1165)" style="fill: none; stroke: #cccccc; stroke-width: 0.8; stroke-linecap: round"/>
     </g>
     <g id="text_39">
      <!-- −1 -->
      <g style="fill: #262626" transform="translate(20.473437 460.542452)scale(0.1 -0.1)">
       <use xlink:href="#ArialMT-2212"/>
       <use xlink:href="#ArialMT-31" x="58.398438"/>
      </g>
     </g>
    </g>
    <g id="ytick_13">
     <g id="line2d_39">
      <path d="M 38.875 413.61002 
L 343.238636 413.61002 
" clip-path="url(#p55eace1165)" style="fill: none; stroke: #cccccc; stroke-width: 0.8; stroke-linecap: round"/>
     </g>
     <g id="text_40">
      <!-- 0 -->
      <g style="fill: #262626" transform="translate(26.314062 417.188927)scale(0.1 -0.1)">
       <use xlink:href="#ArialMT-30"/>
      </g>
     </g>
    </g>
    <g id="ytick_14">
     <g id="line2d_40">
      <path d="M 38.875 370.256495 
L 343.238636 370.256495 
" clip-path="url(#p55eace1165)" style="fill: none; stroke: #cccccc; stroke-width: 0.8; stroke-linecap: round"/>
     </g>
     <g id="text_41">
      <!-- 1 -->
      <g style="fill: #262626" transform="translate(26.314062 373.835401)scale(0.1 -0.1)">
       <use xlink:href="#ArialMT-31"/>
      </g>
     </g>
    </g>
    <g id="ytick_15">
     <g id="line2d_41">
      <path d="M 38.875 326.90297 
L 343.238636 326.90297 
" clip-path="url(#p55eace1165)" style="fill: none; stroke: #cccccc; stroke-width: 0.8; stroke-linecap: round"/>
     </g>
     <g id="text_42">
      <!-- 2 -->
      <g style="fill: #262626" transform="translate(26.314062 330.481876)scale(0.1 -0.1)">
       <use xlink:href="#ArialMT-32"/>
      </g>
     </g>
    </g>
    <g id="text_43">
     <!-- Sample Quantiles -->
     <g style="fill: #262626" transform="translate(14.485937 439.301747)rotate(-90)scale(0.1 -0.1)">
      <use xlink:href="#ArialMT-53"/>
      <use xlink:href="#ArialMT-61" x="66.699219"/>
      <use xlink:href="#ArialMT-6d" x="122.314453"/>
      <use xlink:href="#ArialMT-70" x="205.615234"/>
      <use xlink:href="#ArialMT-6c" x="261.230469"/>
      <use xlink:href="#ArialMT-65" x="283.447266"/>
      <use xlink:href="#ArialMT-20" x="339.0625"/>
      <use xlink:href="#ArialMT-51" x="366.845703"/>
      <use xlink:href="#ArialMT-75" x="444.628906"/>
      <use xlink:href="#ArialMT-61" x="500.244141"/>
      <use xlink:href="#ArialMT-6e" x="555.859375"/>
      <use xlink:href="#ArialMT-74" x="611.474609"/>
      <use xlink:href="#ArialMT-69" x="639.257812"/>
      <use xlink:href="#ArialMT-6c" x="661.474609"/>
      <use xlink:href="#ArialMT-65" x="683.691406"/>
      <use xlink:href="#ArialMT-73" x="739.306641"/>
     </g>
    </g>
   </g>
   <g id="line2d_42">
    <defs>
     <path id="mda44dd164c" d="M 0 3 
C 0.795609 3 1.55874 2.683901 2.12132 2.12132 
C 2.683901 1.55874 3 0.795609 3 0 
C 3 -0.795609 2.683901 -1.55874 2.12132 -2.12132 
C 1.55874 -2.683901 0.795609 -3 0 -3 
C -0.795609 -3 -1.55874 -2.683901 -2.12132 -2.12132 
C -2.683901 -1.55874 -3 -0.795609 -3 0 
C -3 0.795609 -2.683901 1.55874 -2.12132 2.12132 
C -1.55874 2.683901 -0.795609 3 0 3 
z
" style="stroke: #4c72b0"/>
    </defs>
    <g clip-path="url(#p55eace1165)">
     <use xlink:href="#mda44dd164c" x="44.728147" y="500.921111" style="fill: #4c72b0; stroke: #4c72b0"/>
     <use xlink:href="#mda44dd164c" x="65.072328" y="486.894466" style="fill: #4c72b0; stroke: #4c72b0"/>
     <use xlink:href="#mda44dd164c" x="78.155649" y="468.928165" style="fill: #4c72b0; stroke: #4c72b0"/>
     <use xlink:href="#mda44dd164c" x="88.10879" y="467.513161" style="fill: #4c72b0; stroke: #4c72b0"/>
     <use xlink:href="#mda44dd164c" x="96.287542" y="458.280209" style="fill: #4c72b0; stroke: #4c72b0"/>
     <use xlink:href="#mda44dd164c" x="103.315809" y="458.224729" style="fill: #4c72b0; stroke: #4c72b0"/>
     <use xlink:href="#mda44dd164c" x="109.535214" y="456.395731" style="fill: #4c72b0; stroke: #4c72b0"/>
     <use xlink:href="#mda44dd164c" x="115.154285" y="454.880126" style="fill: #4c72b0; stroke: #4c72b0"/>
     <use xlink:href="#mda44dd164c" x="120.310234" y="451.677022" style="fill: #4c72b0; stroke: #4c72b0"/>
     <use xlink:href="#mda44dd164c" x="125.098487" y="449.291644" style="fill: #4c72b0; stroke: #4c72b0"/>
     <use xlink:href="#mda44dd164c" x="129.588303" y="447.983916" style="fill: #4c72b0; stroke: #4c72b0"/>
     <use xlink:href="#mda44dd164c" x="133.831696" y="447.501718" style="fill: #4c72b0; stroke: #4c72b0"/>
     <use xlink:href="#mda44dd164c" x="137.86884" y="444.986471" style="fill: #4c72b0; stroke: #4c72b0"/>
     <use xlink:href="#mda44dd164c" x="141.731507" y="444.336007" style="fill: #4c72b0; stroke: #4c72b0"/>
     <use xlink:href="#mda44dd164c" x="145.445341" y="441.611675" style="fill: #4c72b0; stroke: #4c72b0"/>
     <use xlink:href="#mda44dd164c" x="149.031413" y="438.352444" style="fill: #4c72b0; stroke: #4c72b0"/>
     <use xlink:href="#mda44dd164c" x="152.507318" y="433.652977" style="fill: #4c72b0; stroke: #4c72b0"/>
     <use xlink:href="#mda44dd164c" x="155.88796" y="432.388977" style="fill: #4c72b0; stroke: #4c72b0"/>
     <use xlink:href="#mda44dd164c" x="159.186142" y="431.031202" style="fill: #4c72b0; stroke: #4c72b0"/>
     <use xlink:href="#mda44dd164c" x="162.412999" y="429.433694" style="fill: #4c72b0; stroke: #4c72b0"/>
     <use xlink:href="#mda44dd164c" x="165.578336" y="425.763029" style="fill: #4c72b0; stroke: #4c72b0"/>
     <use xlink:href="#mda44dd164c" x="168.690892" y="421.120462" style="fill: #4c72b0; stroke: #4c72b0"/>
     <use xlink:href="#mda44dd164c" x="171.758545" y="419.254948" style="fill: #4c72b0; stroke: #4c72b0"/>
     <use xlink:href="#mda44dd164c" x="174.788483" y="418.195257" style="fill: #4c72b0; stroke: #4c72b0"/>
     <use xlink:href="#mda44dd164c" x="177.787341" y="417.922925" style="fill: #4c72b0; stroke: #4c72b0"/>
     <use xlink:href="#mda44dd164c" x="180.761316" y="416.37644" style="fill: #4c72b0; stroke: #4c72b0"/>
     <use xlink:href="#mda44dd164c" x="183.716269" y="414.060522" style="fill: #4c72b0; stroke: #4c72b0"/>
     <use xlink:href="#mda44dd164c" x="186.657807" y="411.431684" style="fill: #4c72b0; stroke: #4c72b0"/>
     <use xlink:href="#mda44dd164c" x="189.591364" y="410.807143" style="fill: #4c72b0; stroke: #4c72b0"/>
     <use xlink:href="#mda44dd164c" x="192.522272" y="409.922263" style="fill: #4c72b0; stroke: #4c72b0"/>
     <use xlink:href="#mda44dd164c" x="195.455829" y="404.994883" style="fill: #4c72b0; stroke: #4c72b0"/>
     <use xlink:href="#mda44dd164c" x="198.397367" y="404.90926" style="fill: #4c72b0; stroke: #4c72b0"/>
     <use xlink:href="#mda44dd164c" x="201.35232" y="404.647823" style="fill: #4c72b0; stroke: #4c72b0"/>
     <use xlink:href="#mda44dd164c" x="204.326296" y="401.356393" style="fill: #4c72b0; stroke: #4c72b0"/>
     <use xlink:href="#mda44dd164c" x="207.325154" y="395.640549" style="fill: #4c72b0; stroke: #4c72b0"/>
     <use xlink:href="#mda44dd164c" x="210.355092" y="393.06456" style="fill: #4c72b0; stroke: #4c72b0"/>
     <use xlink:href="#mda44dd164c" x="213.422745" y="392.780627" style="fill: #4c72b0; stroke: #4c72b0"/>
     <use xlink:href="#mda44dd164c" x="216.5353" y="392.376787" style="fill: #4c72b0; stroke: #4c72b0"/>
     <use xlink:href="#mda44dd164c" x="219.700637" y="389.581541" style="fill: #4c72b0; stroke: #4c72b0"/>
     <use xlink:href="#mda44dd164c" x="222.927494" y="388.362145" style="fill: #4c72b0; stroke: #4c72b0"/>
     <use xlink:href="#mda44dd164c" x="226.225676" y="383.172798" style="fill: #4c72b0; stroke: #4c72b0"/>
     <use xlink:href="#mda44dd164c" x="229.606319" y="382.969743" style="fill: #4c72b0; stroke: #4c72b0"/>
     <use xlink:href="#mda44dd164c" x="233.082223" y="381.954088" style="fill: #4c72b0; stroke: #4c72b0"/>
     <use xlink:href="#mda44dd164c" x="236.668295" y="379.10998" style="fill: #4c72b0; stroke: #4c72b0"/>
     <use xlink:href="#mda44dd164c" x="240.382129" y="379.037718" style="fill: #4c72b0; stroke: #4c72b0"/>
     <use xlink:href="#mda44dd164c" x="244.244796" y="375.536103" style="fill: #4c72b0; stroke: #4c72b0"/>
     <use xlink:href="#mda44dd164c" x="248.28194" y="371.260467" style="fill: #4c72b0; stroke: #4c72b0"/>
     <use xlink:href="#mda44dd164c" x="252.525333" y="370.193389" style="fill: #4c72b0; stroke: #4c72b0"/>
     <use xlink:href="#mda44dd164c" x="257.015149" y="362.265491" style="fill: #4c72b0; stroke: #4c72b0"/>
     <use xlink:href="#mda44dd164c" x="261.803402" y="361.247704" style="fill: #4c72b0; stroke: #4c72b0"/>
     <use xlink:href="#mda44dd164c" x="266.959352" y="360.307745" style="fill: #4c72b0; stroke: #4c72b0"/>
     <use xlink:href="#mda44dd164c" x="272.578423" y="355.112313" style="fill: #4c72b0; stroke: #4c72b0"/>
     <use xlink:href="#mda44dd164c" x="278.797828" y="353.237513" style="fill: #4c72b0; stroke: #4c72b0"/>
     <use xlink:href="#mda44dd164c" x="285.826094" y="334.503222" style="fill: #4c72b0; stroke: #4c72b0"/>
     <use xlink:href="#mda44dd164c" x="294.004846" y="325.888581" style="fill: #4c72b0; stroke: #4c72b0"/>
     <use xlink:href="#mda44dd164c" x="303.957988" y="325.704223" style="fill: #4c72b0; stroke: #4c72b0"/>
     <use xlink:href="#mda44dd164c" x="317.041308" y="319.91639" style="fill: #4c72b0; stroke: #4c72b0"/>
     <use xlink:href="#mda44dd164c" x="337.38549" y="298.755821" style="fill: #4c72b0; stroke: #4c72b0"/>
    </g>
   </g>
   <g id="line2d_43">
    <path d="M 44.728147 497.685557 
L 65.072328 485.055971 
L 78.155649 476.933899 
L 88.10879 470.755029 
L 96.287542 465.677693 
L 103.315809 461.314574 
L 109.535214 457.453592 
L 115.154285 453.965296 
L 120.310234 450.764503 
L 125.098487 447.791975 
L 129.588303 445.004715 
L 133.831696 442.370434 
L 137.86884 439.864191 
L 141.731507 437.466263 
L 145.445341 435.16073 
L 149.031413 432.934511 
L 152.507318 430.776684 
L 155.88796 428.677995 
L 159.186142 426.630497 
L 162.412999 424.627277 
L 165.578336 422.662248 
L 168.690892 420.729987 
L 171.758545 418.8256 
L 174.788483 416.944627 
L 177.787341 415.082948 
L 180.761316 413.236716 
L 183.716269 411.402293 
L 186.657807 409.576198 
L 189.591364 407.755058 
L 192.522272 405.935562 
L 195.455829 404.114422 
L 198.397367 402.288327 
L 201.35232 400.453904 
L 204.326296 398.607672 
L 207.325154 396.745993 
L 210.355092 394.86502 
L 213.422745 392.960633 
L 216.5353 391.028371 
L 219.700637 389.063343 
L 222.927494 387.060123 
L 226.225676 385.012625 
L 229.606319 382.913936 
L 233.082223 380.756109 
L 236.668295 378.52989 
L 240.382129 376.224357 
L 244.244796 373.826429 
L 248.28194 371.320186 
L 252.525333 368.685905 
L 257.015149 365.898645 
L 261.803402 362.926117 
L 266.959352 359.725324 
L 272.578423 356.237028 
L 278.797828 352.376046 
L 285.826094 348.012927 
L 294.004846 342.935591 
L 303.957988 336.756721 
L 317.041308 328.634649 
L 337.38549 316.005063 
" clip-path="url(#p55eace1165)" style="fill: none; stroke: #ff0000; stroke-width: 1.5; stroke-linecap: round"/>
   </g>
   <g id="patch_25">
    <path d="M 38.875 511.029375 
L 38.875 288.647557 
" style="fill: none; stroke: #ffffff; stroke-width: 0.8; stroke-linejoin: miter; stroke-linecap: square"/>
   </g>
   <g id="patch_26">
    <path d="M 343.238636 511.029375 
L 343.238636 288.647557 
" style="fill: none; stroke: #ffffff; stroke-width: 0.8; stroke-linejoin: miter; stroke-linecap: square"/>
   </g>
   <g id="patch_27">
    <path d="M 38.875 511.029375 
L 343.238636 511.029375 
" style="fill: none; stroke: #ffffff; stroke-width: 0.8; stroke-linejoin: miter; stroke-linecap: square"/>
   </g>
   <g id="patch_28">
    <path d="M 38.875 288.647557 
L 343.238636 288.647557 
" style="fill: none; stroke: #ffffff; stroke-width: 0.8; stroke-linejoin: miter; stroke-linecap: square"/>
   </g>
   <g id="text_44">
    <!-- Normal Q-Q -->
    <g style="fill: #262626" transform="translate(158.723381 282.647557)scale(0.12 -0.12)">
     <defs>
      <path id="ArialMT-2d" d="M 203 1375 
L 203 1941 
L 1931 1941 
L 1931 1375 
L 203 1375 
z
" transform="scale(0.015625)"/>
     </defs>
     <use xlink:href="#ArialMT-4e"/>
     <use xlink:href="#ArialMT-6f" x="72.216797"/>
     <use xlink:href="#ArialMT-72" x="127.832031"/>
     <use xlink:href="#ArialMT-6d" x="161.132812"/>
     <use xlink:href="#ArialMT-61" x="244.433594"/>
     <use xlink:href="#ArialMT-6c" x="300.048828"/>
     <use xlink:href="#ArialMT-20" x="322.265625"/>
     <use xlink:href="#ArialMT-51" x="350.048828"/>
     <use xlink:href="#ArialMT-2d" x="427.832031"/>
     <use xlink:href="#ArialMT-51" x="461.132812"/>
    </g>
   </g>
  </g>
  <g id="axes_4">
   <g id="patch_29">
    <path d="M 404.111364 511.029375 
L 708.475 511.029375 
L 708.475 288.647557 
L 404.111364 288.647557 
z
" style="fill: #e6e6e6"/>
   </g>
   <g id="matplotlib.axis_7">
    <g id="xtick_37">
     <g id="line2d_44">
      <path d="M 417.946074 511.029375 
L 417.946074 288.647557 
" clip-path="url(#p9c6d7917e9)" style="fill: none; stroke: #cccccc; stroke-width: 0.8; stroke-linecap: round"/>
     </g>
     <g id="text_45">
      <!-- 0 -->
      <g style="fill: #262626" transform="translate(415.165606 525.187187)scale(0.1 -0.1)">
       <use xlink:href="#ArialMT-30"/>
      </g>
     </g>
    </g>
    <g id="xtick_38">
     <g id="line2d_45">
      <path d="M 470.649734 511.029375 
L 470.649734 288.647557 
" clip-path="url(#p9c6d7917e9)" style="fill: none; stroke: #cccccc; stroke-width: 0.8; stroke-linecap: round"/>
     </g>
     <g id="text_46">
      <!-- 2 -->
      <g style="fill: #262626" transform="translate(467.869266 525.187187)scale(0.1 -0.1)">
       <use xlink:href="#ArialMT-32"/>
      </g>
     </g>
    </g>
    <g id="xtick_39">
     <g id="line2d_46">
      <path d="M 523.353394 511.029375 
L 523.353394 288.647557 
" clip-path="url(#p9c6d7917e9)" style="fill: none; stroke: #cccccc; stroke-width: 0.8; stroke-linecap: round"/>
     </g>
     <g id="text_47">
      <!-- 4 -->
      <g style="fill: #262626" transform="translate(520.572926 525.187187)scale(0.1 -0.1)">
       <use xlink:href="#ArialMT-34"/>
      </g>
     </g>
    </g>
    <g id="xtick_40">
     <g id="line2d_47">
      <path d="M 576.057054 511.029375 
L 576.057054 288.647557 
" clip-path="url(#p9c6d7917e9)" style="fill: none; stroke: #cccccc; stroke-width: 0.8; stroke-linecap: round"/>
     </g>
     <g id="text_48">
      <!-- 6 -->
      <g style="fill: #262626" transform="translate(573.276586 525.187187)scale(0.1 -0.1)">
       <use xlink:href="#ArialMT-36"/>
      </g>
     </g>
    </g>
    <g id="xtick_41">
     <g id="line2d_48">
      <path d="M 628.760714 511.029375 
L 628.760714 288.647557 
" clip-path="url(#p9c6d7917e9)" style="fill: none; stroke: #cccccc; stroke-width: 0.8; stroke-linecap: round"/>
     </g>
     <g id="text_49">
      <!-- 8 -->
      <g style="fill: #262626" transform="translate(625.980246 525.187187)scale(0.1 -0.1)">
       <use xlink:href="#ArialMT-38"/>
      </g>
     </g>
    </g>
    <g id="xtick_42">
     <g id="line2d_49">
      <path d="M 681.464374 511.029375 
L 681.464374 288.647557 
" clip-path="url(#p9c6d7917e9)" style="fill: none; stroke: #cccccc; stroke-width: 0.8; stroke-linecap: round"/>
     </g>
     <g id="text_50">
      <!-- 10 -->
      <g style="fill: #262626" transform="translate(675.903437 525.187187)scale(0.1 -0.1)">
       <use xlink:href="#ArialMT-31"/>
       <use xlink:href="#ArialMT-30" x="55.615234"/>
      </g>
     </g>
    </g>
   </g>
   <g id="matplotlib.axis_8">
    <g id="ytick_16">
     <g id="line2d_50">
      <path d="M 404.111364 511.029375 
L 708.475 511.029375 
" clip-path="url(#p9c6d7917e9)" style="fill: none; stroke: #cccccc; stroke-width: 0.8; stroke-linecap: round"/>
     </g>
     <g id="text_51">
      <!-- −1.00 -->
      <g style="fill: #262626" transform="translate(371.809801 514.608281)scale(0.1 -0.1)">
       <use xlink:href="#ArialMT-2212"/>
       <use xlink:href="#ArialMT-31" x="58.398438"/>
       <use xlink:href="#ArialMT-2e" x="114.013672"/>
       <use xlink:href="#ArialMT-30" x="141.796875"/>
       <use xlink:href="#ArialMT-30" x="197.412109"/>
      </g>
     </g>
    </g>
    <g id="ytick_17">
     <g id="line2d_51">
      <path d="M 404.111364 483.231648 
L 708.475 483.231648 
" clip-path="url(#p9c6d7917e9)" style="fill: none; stroke: #cccccc; stroke-width: 0.8; stroke-linecap: round"/>
     </g>
     <g id="text_52">
      <!-- −0.75 -->
      <g style="fill: #262626" transform="translate(371.809801 486.810554)scale(0.1 -0.1)">
       <use xlink:href="#ArialMT-2212"/>
       <use xlink:href="#ArialMT-30" x="58.398438"/>
       <use xlink:href="#ArialMT-2e" x="114.013672"/>
       <use xlink:href="#ArialMT-37" x="141.796875"/>
       <use xlink:href="#ArialMT-35" x="197.412109"/>
      </g>
     </g>
    </g>
    <g id="ytick_18">
     <g id="line2d_52">
      <path d="M 404.111364 455.43392 
L 708.475 455.43392 
" clip-path="url(#p9c6d7917e9)" style="fill: none; stroke: #cccccc; stroke-width: 0.8; stroke-linecap: round"/>
     </g>
     <g id="text_53">
      <!-- −0.50 -->
      <g style="fill: #262626" transform="translate(371.809801 459.012827)scale(0.1 -0.1)">
       <use xlink:href="#ArialMT-2212"/>
       <use xlink:href="#ArialMT-30" x="58.398438"/>
       <use xlink:href="#ArialMT-2e" x="114.013672"/>
       <use xlink:href="#ArialMT-35" x="141.796875"/>
       <use xlink:href="#ArialMT-30" x="197.412109"/>
      </g>
     </g>
    </g>
    <g id="ytick_19">
     <g id="line2d_53">
      <path d="M 404.111364 427.636193 
L 708.475 427.636193 
" clip-path="url(#p9c6d7917e9)" style="fill: none; stroke: #cccccc; stroke-width: 0.8; stroke-linecap: round"/>
     </g>
     <g id="text_54">
      <!-- −0.25 -->
      <g style="fill: #262626" transform="translate(371.809801 431.215099)scale(0.1 -0.1)">
       <use xlink:href="#ArialMT-2212"/>
       <use xlink:href="#ArialMT-30" x="58.398438"/>
       <use xlink:href="#ArialMT-2e" x="114.013672"/>
       <use xlink:href="#ArialMT-32" x="141.796875"/>
       <use xlink:href="#ArialMT-35" x="197.412109"/>
      </g>
     </g>
    </g>
    <g id="ytick_20">
     <g id="line2d_54">
      <path d="M 404.111364 399.838466 
L 708.475 399.838466 
" clip-path="url(#p9c6d7917e9)" style="fill: none; stroke: #cccccc; stroke-width: 0.8; stroke-linecap: round"/>
     </g>
     <g id="text_55">
      <!-- 0.00 -->
      <g style="fill: #262626" transform="translate(377.650426 403.417372)scale(0.1 -0.1)">
       <use xlink:href="#ArialMT-30"/>
       <use xlink:href="#ArialMT-2e" x="55.615234"/>
       <use xlink:href="#ArialMT-30" x="83.398438"/>
       <use xlink:href="#ArialMT-30" x="139.013672"/>
      </g>
     </g>
    </g>
    <g id="ytick_21">
     <g id="line2d_55">
      <path d="M 404.111364 372.040739 
L 708.475 372.040739 
" clip-path="url(#p9c6d7917e9)" style="fill: none; stroke: #cccccc; stroke-width: 0.8; stroke-linecap: round"/>
     </g>
     <g id="text_56">
      <!-- 0.25 -->
      <g style="fill: #262626" transform="translate(377.650426 375.619645)scale(0.1 -0.1)">
       <use xlink:href="#ArialMT-30"/>
       <use xlink:href="#ArialMT-2e" x="55.615234"/>
       <use xlink:href="#ArialMT-32" x="83.398438"/>
       <use xlink:href="#ArialMT-35" x="139.013672"/>
      </g>
     </g>
    </g>
    <g id="ytick_22">
     <g id="line2d_56">
      <path d="M 404.111364 344.243011 
L 708.475 344.243011 
" clip-path="url(#p9c6d7917e9)" style="fill: none; stroke: #cccccc; stroke-width: 0.8; stroke-linecap: round"/>
     </g>
     <g id="text_57">
      <!-- 0.50 -->
      <g style="fill: #262626" transform="translate(377.650426 347.821918)scale(0.1 -0.1)">
       <use xlink:href="#ArialMT-30"/>
       <use xlink:href="#ArialMT-2e" x="55.615234"/>
       <use xlink:href="#ArialMT-35" x="83.398438"/>
       <use xlink:href="#ArialMT-30" x="139.013672"/>
      </g>
     </g>
    </g>
    <g id="ytick_23">
     <g id="line2d_57">
      <path d="M 404.111364 316.445284 
L 708.475 316.445284 
" clip-path="url(#p9c6d7917e9)" style="fill: none; stroke: #cccccc; stroke-width: 0.8; stroke-linecap: round"/>
     </g>
     <g id="text_58">
      <!-- 0.75 -->
      <g style="fill: #262626" transform="translate(377.650426 320.02419)scale(0.1 -0.1)">
       <use xlink:href="#ArialMT-30"/>
       <use xlink:href="#ArialMT-2e" x="55.615234"/>
       <use xlink:href="#ArialMT-37" x="83.398438"/>
       <use xlink:href="#ArialMT-35" x="139.013672"/>
      </g>
     </g>
    </g>
    <g id="ytick_24">
     <g id="line2d_58">
      <path d="M 404.111364 288.647557 
L 708.475 288.647557 
" clip-path="url(#p9c6d7917e9)" style="fill: none; stroke: #cccccc; stroke-width: 0.8; stroke-linecap: round"/>
     </g>
     <g id="text_59">
      <!-- 1.00 -->
      <g style="fill: #262626" transform="translate(377.650426 292.226463)scale(0.1 -0.1)">
       <use xlink:href="#ArialMT-31"/>
       <use xlink:href="#ArialMT-2e" x="55.615234"/>
       <use xlink:href="#ArialMT-30" x="83.398438"/>
       <use xlink:href="#ArialMT-30" x="139.013672"/>
      </g>
     </g>
    </g>
   </g>
   <g id="PolyCollection_1">
    <defs>
     <path id="m76bd69e2bb" d="M 431.121989 -176.297168 
L 431.121989 -119.0659 
L 470.649734 -119.0659 
L 497.001564 -119.0659 
L 523.353394 -119.0659 
L 549.705224 -119.0659 
L 576.057054 -119.0659 
L 602.408884 -119.0659 
L 628.760714 -119.0659 
L 655.112544 -119.0659 
L 694.640289 -119.0659 
L 694.640289 -176.297168 
L 694.640289 -176.297168 
L 655.112544 -176.297168 
L 628.760714 -176.297168 
L 602.408884 -176.297168 
L 576.057054 -176.297168 
L 549.705224 -176.297168 
L 523.353394 -176.297168 
L 497.001564 -176.297168 
L 470.649734 -176.297168 
L 431.121989 -176.297168 
z
" style="stroke: #ffffff; stroke-opacity: 0.25"/>
    </defs>
    <g clip-path="url(#p9c6d7917e9)">
     <use xlink:href="#m76bd69e2bb" x="0" y="547.52" style="fill: #4c72b0; fill-opacity: 0.25; stroke: #ffffff; stroke-opacity: 0.25"/>
    </g>
   </g>
   <g id="LineCollection_2">
    <path d="M 417.946074 399.838466 
L 417.946074 288.647557 
" clip-path="url(#p9c6d7917e9)" style="fill: none; stroke: #4c72b0; stroke-width: 1.5"/>
    <path d="M 444.297904 399.838466 
L 444.297904 405.913232 
" clip-path="url(#p9c6d7917e9)" style="fill: none; stroke: #4c72b0; stroke-width: 1.5"/>
    <path d="M 470.649734 399.838466 
L 470.649734 408.934958 
" clip-path="url(#p9c6d7917e9)" style="fill: none; stroke: #4c72b0; stroke-width: 1.5"/>
    <path d="M 497.001564 399.838466 
L 497.001564 431.732046 
" clip-path="url(#p9c6d7917e9)" style="fill: none; stroke: #4c72b0; stroke-width: 1.5"/>
    <path d="M 523.353394 399.838466 
L 523.353394 415.251626 
" clip-path="url(#p9c6d7917e9)" style="fill: none; stroke: #4c72b0; stroke-width: 1.5"/>
    <path d="M 549.705224 399.838466 
L 549.705224 400.174962 
" clip-path="url(#p9c6d7917e9)" style="fill: none; stroke: #4c72b0; stroke-width: 1.5"/>
    <path d="M 576.057054 399.838466 
L 576.057054 386.78118 
" clip-path="url(#p9c6d7917e9)" style="fill: none; stroke: #4c72b0; stroke-width: 1.5"/>
    <path d="M 602.408884 399.838466 
L 602.408884 384.261646 
" clip-path="url(#p9c6d7917e9)" style="fill: none; stroke: #4c72b0; stroke-width: 1.5"/>
    <path d="M 628.760714 399.838466 
L 628.760714 418.461406 
" clip-path="url(#p9c6d7917e9)" style="fill: none; stroke: #4c72b0; stroke-width: 1.5"/>
    <path d="M 655.112544 399.838466 
L 655.112544 410.256081 
" clip-path="url(#p9c6d7917e9)" style="fill: none; stroke: #4c72b0; stroke-width: 1.5"/>
    <path d="M 681.464374 399.838466 
L 681.464374 378.472575 
" clip-path="url(#p9c6d7917e9)" style="fill: none; stroke: #4c72b0; stroke-width: 1.5"/>
   </g>
   <g id="line2d_59">
    <path d="M 404.111364 399.838466 
L 708.475 399.838466 
" clip-path="url(#p9c6d7917e9)" style="fill: none; stroke: #4c72b0; stroke-width: 1.5; stroke-linecap: round"/>
   </g>
   <g id="line2d_60">
    <defs>
     <path id="m6abfa246e9" d="M 0 2.5 
C 0.663008 2.5 1.29895 2.236584 1.767767 1.767767 
C 2.236584 1.29895 2.5 0.663008 2.5 0 
C 2.5 -0.663008 2.236584 -1.29895 1.767767 -1.767767 
C 1.29895 -2.236584 0.663008 -2.5 0 -2.5 
C -0.663008 -2.5 -1.29895 -2.236584 -1.767767 -1.767767 
C -2.236584 -1.29895 -2.5 -0.663008 -2.5 0 
C -2.5 0.663008 -2.236584 1.29895 -1.767767 1.767767 
C -1.29895 2.236584 -0.663008 2.5 0 2.5 
z
" style="stroke: #4c72b0"/>
    </defs>
    <g clip-path="url(#p9c6d7917e9)">
     <use xlink:href="#m6abfa246e9" x="417.946074" y="288.647557" style="fill: #4c72b0; stroke: #4c72b0"/>
     <use xlink:href="#m6abfa246e9" x="444.297904" y="405.913232" style="fill: #4c72b0; stroke: #4c72b0"/>
     <use xlink:href="#m6abfa246e9" x="470.649734" y="408.934958" style="fill: #4c72b0; stroke: #4c72b0"/>
     <use xlink:href="#m6abfa246e9" x="497.001564" y="431.732046" style="fill: #4c72b0; stroke: #4c72b0"/>
     <use xlink:href="#m6abfa246e9" x="523.353394" y="415.251626" style="fill: #4c72b0; stroke: #4c72b0"/>
     <use xlink:href="#m6abfa246e9" x="549.705224" y="400.174962" style="fill: #4c72b0; stroke: #4c72b0"/>
     <use xlink:href="#m6abfa246e9" x="576.057054" y="386.78118" style="fill: #4c72b0; stroke: #4c72b0"/>
     <use xlink:href="#m6abfa246e9" x="602.408884" y="384.261646" style="fill: #4c72b0; stroke: #4c72b0"/>
     <use xlink:href="#m6abfa246e9" x="628.760714" y="418.461406" style="fill: #4c72b0; stroke: #4c72b0"/>
     <use xlink:href="#m6abfa246e9" x="655.112544" y="410.256081" style="fill: #4c72b0; stroke: #4c72b0"/>
     <use xlink:href="#m6abfa246e9" x="681.464374" y="378.472575" style="fill: #4c72b0; stroke: #4c72b0"/>
    </g>
   </g>
   <g id="patch_30">
    <path d="M 404.111364 511.029375 
L 404.111364 288.647557 
" style="fill: none; stroke: #ffffff; stroke-width: 0.8; stroke-linejoin: miter; stroke-linecap: square"/>
   </g>
   <g id="patch_31">
    <path d="M 708.475 511.029375 
L 708.475 288.647557 
" style="fill: none; stroke: #ffffff; stroke-width: 0.8; stroke-linejoin: miter; stroke-linecap: square"/>
   </g>
   <g id="patch_32">
    <path d="M 404.111364 511.029375 
L 708.475 511.029375 
" style="fill: none; stroke: #ffffff; stroke-width: 0.8; stroke-linejoin: miter; stroke-linecap: square"/>
   </g>
   <g id="patch_33">
    <path d="M 404.111364 288.647557 
L 708.475 288.647557 
" style="fill: none; stroke: #ffffff; stroke-width: 0.8; stroke-linejoin: miter; stroke-linecap: square"/>
   </g>
   <g id="text_60">
    <!-- Correlogram -->
    <g style="fill: #262626" transform="translate(522.952869 282.647557)scale(0.12 -0.12)">
     <defs>
      <path id="ArialMT-43" d="M 3763 1606 
L 4369 1453 
Q 4178 706 3683 314 
Q 3188 -78 2472 -78 
Q 1731 -78 1267 223 
Q 803 525 561 1097 
Q 319 1669 319 2325 
Q 319 3041 592 3573 
Q 866 4106 1370 4382 
Q 1875 4659 2481 4659 
Q 3169 4659 3637 4309 
Q 4106 3959 4291 3325 
L 3694 3184 
Q 3534 3684 3231 3912 
Q 2928 4141 2469 4141 
Q 1941 4141 1586 3887 
Q 1231 3634 1087 3207 
Q 944 2781 944 2328 
Q 944 1744 1114 1308 
Q 1284 872 1643 656 
Q 2003 441 2422 441 
Q 2931 441 3284 734 
Q 3638 1028 3763 1606 
z
" transform="scale(0.015625)"/>
     </defs>
     <use xlink:href="#ArialMT-43"/>
     <use xlink:href="#ArialMT-6f" x="72.216797"/>
     <use xlink:href="#ArialMT-72" x="127.832031"/>
     <use xlink:href="#ArialMT-72" x="161.132812"/>
     <use xlink:href="#ArialMT-65" x="194.433594"/>
     <use xlink:href="#ArialMT-6c" x="250.048828"/>
     <use xlink:href="#ArialMT-6f" x="272.265625"/>
     <use xlink:href="#ArialMT-67" x="327.880859"/>
     <use xlink:href="#ArialMT-72" x="383.496094"/>
     <use xlink:href="#ArialMT-61" x="416.796875"/>
     <use xlink:href="#ArialMT-6d" x="472.412109"/>
    </g>
   </g>
  </g>
 </g>
 <defs>
  <clipPath id="p293b670fc4">
   <rect x="38.875" y="21.789375" width="304.363636" height="222.381818"/>
  </clipPath>
  <clipPath id="p38241d9e05">
   <rect x="404.111364" y="21.789375" width="304.363636" height="222.381818"/>
  </clipPath>
  <clipPath id="p55eace1165">
   <rect x="38.875" y="288.647557" width="304.363636" height="222.381818"/>
  </clipPath>
  <clipPath id="p9c6d7917e9">
   <rect x="404.111364" y="288.647557" width="304.363636" height="222.381818"/>
  </clipPath>
 </defs>
</svg>
