<?xml version="1.0" encoding="utf-8" standalone="no"?>
<!DOCTYPE svg PUBLIC "-//W3C//DTD SVG 1.1//EN"
  "http://www.w3.org/Graphics/SVG/1.1/DTD/svg11.dtd">
<svg xmlns:xlink="http://www.w3.org/1999/xlink" width="875.139062pt" height="606.465pt" viewBox="0 0 875.139062 606.465" xmlns="http://www.w3.org/2000/svg" version="1.1">
 <metadata>
  <rdf:RDF xmlns:dc="http://purl.org/dc/elements/1.1/" xmlns:cc="http://creativecommons.org/ns#" xmlns:rdf="http://www.w3.org/1999/02/22-rdf-syntax-ns#">
   <cc:Work>
    <dc:type rdf:resource="http://purl.org/dc/dcmitype/StillImage"/>
    <dc:date>2021-12-10T17:48:30.740012</dc:date>
    <dc:format>image/svg+xml</dc:format>
    <dc:creator>
     <cc:Agent>
      <dc:title>Matplotlib v3.5.0, https://matplotlib.org/</dc:title>
     </cc:Agent>
    </dc:creator>
   </cc:Work>
  </rdf:RDF>
 </metadata>
 <defs>
  <style type="text/css">*{stroke-linejoin: round; stroke-linecap: butt}</style>
 </defs>
 <g id="figure_1">
  <g id="patch_1">
   <path d="M 0 606.465 
L 875.139062 606.465 
L 875.139062 0 
L 0 0 
z
" style="fill: #ffffff"/>
  </g>
  <g id="axes_1">
   <g id="patch_2">
    <path d="M 33.940625 139.476522 
L 703.540625 139.476522 
L 703.540625 33.12 
L 33.940625 33.12 
z
" style="fill: #e6e6e6"/>
   </g>
   <g id="matplotlib.axis_1">
    <g id="xtick_1">
     <g id="line2d_1">
      <path d="M 86.129779 139.476522 
L 86.129779 33.12 
" clip-path="url(#pe8db0518cf)" style="fill: none; stroke: #cccccc; stroke-width: 0.8; stroke-linecap: round"/>
     </g>
     <g id="text_1">
      <!-- 2016 -->
      <g style="fill: #262626" transform="translate(75.007904 153.634334)scale(0.1 -0.1)">
       <defs>
        <path id="ArialMT-32" d="M 3222 541 
L 3222 0 
L 194 0 
Q 188 203 259 391 
Q 375 700 629 1000 
Q 884 1300 1366 1694 
Q 2113 2306 2375 2664 
Q 2638 3022 2638 3341 
Q 2638 3675 2398 3904 
Q 2159 4134 1775 4134 
Q 1369 4134 1125 3890 
Q 881 3647 878 3216 
L 300 3275 
Q 359 3922 746 4261 
Q 1134 4600 1788 4600 
Q 2447 4600 2831 4234 
Q 3216 3869 3216 3328 
Q 3216 3053 3103 2787 
Q 2991 2522 2730 2228 
Q 2469 1934 1863 1422 
Q 1356 997 1212 845 
Q 1069 694 975 541 
L 3222 541 
z
" transform="scale(0.015625)"/>
        <path id="ArialMT-30" d="M 266 2259 
Q 266 3072 433 3567 
Q 600 4063 929 4331 
Q 1259 4600 1759 4600 
Q 2128 4600 2406 4451 
Q 2684 4303 2865 4023 
Q 3047 3744 3150 3342 
Q 3253 2941 3253 2259 
Q 3253 1453 3087 958 
Q 2922 463 2592 192 
Q 2263 -78 1759 -78 
Q 1097 -78 719 397 
Q 266 969 266 2259 
z
M 844 2259 
Q 844 1131 1108 757 
Q 1372 384 1759 384 
Q 2147 384 2411 759 
Q 2675 1134 2675 2259 
Q 2675 3391 2411 3762 
Q 2147 4134 1753 4134 
Q 1366 4134 1134 3806 
Q 844 3388 844 2259 
z
" transform="scale(0.015625)"/>
        <path id="ArialMT-31" d="M 2384 0 
L 1822 0 
L 1822 3584 
Q 1619 3391 1289 3197 
Q 959 3003 697 2906 
L 697 3450 
Q 1169 3672 1522 3987 
Q 1875 4303 2022 4600 
L 2384 4600 
L 2384 0 
z
" transform="scale(0.015625)"/>
        <path id="ArialMT-36" d="M 3184 3459 
L 2625 3416 
Q 2550 3747 2413 3897 
Q 2184 4138 1850 4138 
Q 1581 4138 1378 3988 
Q 1113 3794 959 3422 
Q 806 3050 800 2363 
Q 1003 2672 1297 2822 
Q 1591 2972 1913 2972 
Q 2475 2972 2870 2558 
Q 3266 2144 3266 1488 
Q 3266 1056 3080 686 
Q 2894 316 2569 119 
Q 2244 -78 1831 -78 
Q 1128 -78 684 439 
Q 241 956 241 2144 
Q 241 3472 731 4075 
Q 1159 4600 1884 4600 
Q 2425 4600 2770 4297 
Q 3116 3994 3184 3459 
z
M 888 1484 
Q 888 1194 1011 928 
Q 1134 663 1356 523 
Q 1578 384 1822 384 
Q 2178 384 2434 671 
Q 2691 959 2691 1453 
Q 2691 1928 2437 2201 
Q 2184 2475 1800 2475 
Q 1419 2475 1153 2201 
Q 888 1928 888 1484 
z
" transform="scale(0.015625)"/>
       </defs>
       <use xlink:href="#ArialMT-32"/>
       <use xlink:href="#ArialMT-30" x="55.615234"/>
       <use xlink:href="#ArialMT-31" x="111.230469"/>
       <use xlink:href="#ArialMT-36" x="166.845703"/>
      </g>
     </g>
    </g>
    <g id="xtick_2">
     <g id="line2d_2">
      <path d="M 214.541411 139.476522 
L 214.541411 33.12 
" clip-path="url(#pe8db0518cf)" style="fill: none; stroke: #cccccc; stroke-width: 0.8; stroke-linecap: round"/>
     </g>
     <g id="text_2">
      <!-- 2017 -->
      <g style="fill: #262626" transform="translate(203.419536 153.634334)scale(0.1 -0.1)">
       <defs>
        <path id="ArialMT-37" d="M 303 3981 
L 303 4522 
L 3269 4522 
L 3269 4084 
Q 2831 3619 2401 2847 
Q 1972 2075 1738 1259 
Q 1569 684 1522 0 
L 944 0 
Q 953 541 1156 1306 
Q 1359 2072 1739 2783 
Q 2119 3494 2547 3981 
L 303 3981 
z
" transform="scale(0.015625)"/>
       </defs>
       <use xlink:href="#ArialMT-32"/>
       <use xlink:href="#ArialMT-30" x="55.615234"/>
       <use xlink:href="#ArialMT-31" x="111.230469"/>
       <use xlink:href="#ArialMT-37" x="166.845703"/>
      </g>
     </g>
    </g>
    <g id="xtick_3">
     <g id="line2d_3">
      <path d="M 342.602192 139.476522 
L 342.602192 33.12 
" clip-path="url(#pe8db0518cf)" style="fill: none; stroke: #cccccc; stroke-width: 0.8; stroke-linecap: round"/>
     </g>
     <g id="text_3">
      <!-- 2018 -->
      <g style="fill: #262626" transform="translate(331.480317 153.634334)scale(0.1 -0.1)">
       <defs>
        <path id="ArialMT-38" d="M 1131 2484 
Q 781 2613 612 2850 
Q 444 3088 444 3419 
Q 444 3919 803 4259 
Q 1163 4600 1759 4600 
Q 2359 4600 2725 4251 
Q 3091 3903 3091 3403 
Q 3091 3084 2923 2848 
Q 2756 2613 2416 2484 
Q 2838 2347 3058 2040 
Q 3278 1734 3278 1309 
Q 3278 722 2862 322 
Q 2447 -78 1769 -78 
Q 1091 -78 675 323 
Q 259 725 259 1325 
Q 259 1772 486 2073 
Q 713 2375 1131 2484 
z
M 1019 3438 
Q 1019 3113 1228 2906 
Q 1438 2700 1772 2700 
Q 2097 2700 2305 2904 
Q 2513 3109 2513 3406 
Q 2513 3716 2298 3927 
Q 2084 4138 1766 4138 
Q 1444 4138 1231 3931 
Q 1019 3725 1019 3438 
z
M 838 1322 
Q 838 1081 952 856 
Q 1066 631 1291 507 
Q 1516 384 1775 384 
Q 2178 384 2440 643 
Q 2703 903 2703 1303 
Q 2703 1709 2433 1975 
Q 2163 2241 1756 2241 
Q 1359 2241 1098 1978 
Q 838 1716 838 1322 
z
" transform="scale(0.015625)"/>
       </defs>
       <use xlink:href="#ArialMT-32"/>
       <use xlink:href="#ArialMT-30" x="55.615234"/>
       <use xlink:href="#ArialMT-31" x="111.230469"/>
       <use xlink:href="#ArialMT-38" x="166.845703"/>
      </g>
     </g>
    </g>
    <g id="xtick_4">
     <g id="line2d_4">
      <path d="M 470.662972 139.476522 
L 470.662972 33.12 
" clip-path="url(#pe8db0518cf)" style="fill: none; stroke: #cccccc; stroke-width: 0.8; stroke-linecap: round"/>
     </g>
     <g id="text_4">
      <!-- 2019 -->
      <g style="fill: #262626" transform="translate(459.541097 153.634334)scale(0.1 -0.1)">
       <defs>
        <path id="ArialMT-39" d="M 350 1059 
L 891 1109 
Q 959 728 1153 556 
Q 1347 384 1650 384 
Q 1909 384 2104 503 
Q 2300 622 2425 820 
Q 2550 1019 2634 1356 
Q 2719 1694 2719 2044 
Q 2719 2081 2716 2156 
Q 2547 1888 2255 1720 
Q 1963 1553 1622 1553 
Q 1053 1553 659 1965 
Q 266 2378 266 3053 
Q 266 3750 677 4175 
Q 1088 4600 1706 4600 
Q 2153 4600 2523 4359 
Q 2894 4119 3086 3673 
Q 3278 3228 3278 2384 
Q 3278 1506 3087 986 
Q 2897 466 2520 194 
Q 2144 -78 1638 -78 
Q 1100 -78 759 220 
Q 419 519 350 1059 
z
M 2653 3081 
Q 2653 3566 2395 3850 
Q 2138 4134 1775 4134 
Q 1400 4134 1122 3828 
Q 844 3522 844 3034 
Q 844 2597 1108 2323 
Q 1372 2050 1759 2050 
Q 2150 2050 2401 2323 
Q 2653 2597 2653 3081 
z
" transform="scale(0.015625)"/>
       </defs>
       <use xlink:href="#ArialMT-32"/>
       <use xlink:href="#ArialMT-30" x="55.615234"/>
       <use xlink:href="#ArialMT-31" x="111.230469"/>
       <use xlink:href="#ArialMT-39" x="166.845703"/>
      </g>
     </g>
    </g>
    <g id="xtick_5">
     <g id="line2d_5">
      <path d="M 598.723753 139.476522 
L 598.723753 33.12 
" clip-path="url(#pe8db0518cf)" style="fill: none; stroke: #cccccc; stroke-width: 0.8; stroke-linecap: round"/>
     </g>
     <g id="text_5">
      <!-- 2020 -->
      <g style="fill: #262626" transform="translate(587.601878 153.634334)scale(0.1 -0.1)">
       <use xlink:href="#ArialMT-32"/>
       <use xlink:href="#ArialMT-30" x="55.615234"/>
       <use xlink:href="#ArialMT-32" x="111.230469"/>
       <use xlink:href="#ArialMT-30" x="166.845703"/>
      </g>
     </g>
    </g>
   </g>
   <g id="matplotlib.axis_2">
    <g id="ytick_1">
     <g id="line2d_6">
      <path d="M 33.940625 133.650474 
L 703.540625 133.650474 
" clip-path="url(#pe8db0518cf)" style="fill: none; stroke: #cccccc; stroke-width: 0.8; stroke-linecap: round"/>
     </g>
     <g id="text_6">
      <!-- −5.0 -->
      <g style="fill: #262626" transform="translate(7.2 137.22938)scale(0.1 -0.1)">
       <defs>
        <path id="ArialMT-2212" d="M 3381 1997 
L 356 1997 
L 356 2522 
L 3381 2522 
L 3381 1997 
z
" transform="scale(0.015625)"/>
        <path id="ArialMT-35" d="M 266 1200 
L 856 1250 
Q 922 819 1161 601 
Q 1400 384 1738 384 
Q 2144 384 2425 690 
Q 2706 997 2706 1503 
Q 2706 1984 2436 2262 
Q 2166 2541 1728 2541 
Q 1456 2541 1237 2417 
Q 1019 2294 894 2097 
L 366 2166 
L 809 4519 
L 3088 4519 
L 3088 3981 
L 1259 3981 
L 1013 2750 
Q 1425 3038 1878 3038 
Q 2478 3038 2890 2622 
Q 3303 2206 3303 1553 
Q 3303 931 2941 478 
Q 2500 -78 1738 -78 
Q 1113 -78 717 272 
Q 322 622 266 1200 
z
" transform="scale(0.015625)"/>
        <path id="ArialMT-2e" d="M 581 0 
L 581 641 
L 1222 641 
L 1222 0 
L 581 0 
z
" transform="scale(0.015625)"/>
       </defs>
       <use xlink:href="#ArialMT-2212"/>
       <use xlink:href="#ArialMT-35" x="58.398438"/>
       <use xlink:href="#ArialMT-2e" x="114.013672"/>
       <use xlink:href="#ArialMT-30" x="141.796875"/>
      </g>
     </g>
    </g>
    <g id="ytick_2">
     <g id="line2d_7">
      <path d="M 33.940625 111.691996 
L 703.540625 111.691996 
" clip-path="url(#pe8db0518cf)" style="fill: none; stroke: #cccccc; stroke-width: 0.8; stroke-linecap: round"/>
     </g>
     <g id="text_7">
      <!-- −2.5 -->
      <g style="fill: #262626" transform="translate(7.2 115.270903)scale(0.1 -0.1)">
       <use xlink:href="#ArialMT-2212"/>
       <use xlink:href="#ArialMT-32" x="58.398438"/>
       <use xlink:href="#ArialMT-2e" x="114.013672"/>
       <use xlink:href="#ArialMT-35" x="141.796875"/>
      </g>
     </g>
    </g>
    <g id="ytick_3">
     <g id="line2d_8">
      <path d="M 33.940625 89.733519 
L 703.540625 89.733519 
" clip-path="url(#pe8db0518cf)" style="fill: none; stroke: #cccccc; stroke-width: 0.8; stroke-linecap: round"/>
     </g>
     <g id="text_8">
      <!-- 0.0 -->
      <g style="fill: #262626" transform="translate(13.040625 93.312425)scale(0.1 -0.1)">
       <use xlink:href="#ArialMT-30"/>
       <use xlink:href="#ArialMT-2e" x="55.615234"/>
       <use xlink:href="#ArialMT-30" x="83.398438"/>
      </g>
     </g>
    </g>
    <g id="ytick_4">
     <g id="line2d_9">
      <path d="M 33.940625 67.775042 
L 703.540625 67.775042 
" clip-path="url(#pe8db0518cf)" style="fill: none; stroke: #cccccc; stroke-width: 0.8; stroke-linecap: round"/>
     </g>
     <g id="text_9">
      <!-- 2.5 -->
      <g style="fill: #262626" transform="translate(13.040625 71.353948)scale(0.1 -0.1)">
       <use xlink:href="#ArialMT-32"/>
       <use xlink:href="#ArialMT-2e" x="55.615234"/>
       <use xlink:href="#ArialMT-35" x="83.398438"/>
      </g>
     </g>
    </g>
    <g id="ytick_5">
     <g id="line2d_10">
      <path d="M 33.940625 45.816564 
L 703.540625 45.816564 
" clip-path="url(#pe8db0518cf)" style="fill: none; stroke: #cccccc; stroke-width: 0.8; stroke-linecap: round"/>
     </g>
     <g id="text_10">
      <!-- 5.0 -->
      <g style="fill: #262626" transform="translate(13.040625 49.395471)scale(0.1 -0.1)">
       <use xlink:href="#ArialMT-35"/>
       <use xlink:href="#ArialMT-2e" x="55.615234"/>
       <use xlink:href="#ArialMT-30" x="83.398438"/>
      </g>
     </g>
    </g>
   </g>
   <g id="PolyCollection_1">
    <defs>
     <path id="m115e9dd5e1" d="M 64.376989 -568.510613 
L 64.376989 -471.822866 
L 74.902532 -495.190318 
L 85.778927 -508.895281 
L 96.655322 -520.410967 
L 106.830015 -536.144165 
L 117.70641 -527.540201 
L 128.231953 -525.193921 
L 139.108348 -518.517837 
L 149.633892 -518.11618 
L 160.510287 -519.604648 
L 171.386682 -520.255888 
L 181.912226 -514.482232 
L 192.788621 -509.478912 
L 203.314164 -502.702464 
L 214.19056 -513.127604 
L 225.066955 -525.057704 
L 234.890795 -541.084525 
L 245.76719 -528.85994 
L 256.292734 -527.699165 
L 267.169129 -518.628559 
L 277.694673 -521.56062 
L 288.571068 -521.223919 
L 299.447463 -522.123916 
L 309.973006 -515.579008 
L 320.849402 -509.310618 
L 331.374945 -503.10583 
L 342.25134 -514.75392 
L 353.127735 -528.237271 
L 362.951576 -537.372052 
L 373.827971 -532.832563 
L 384.353515 -523.151286 
L 395.22991 -520.946783 
L 405.755453 -519.565438 
L 416.631848 -522.883497 
L 427.508244 -521.760855 
L 438.033787 -516.870736 
L 448.910182 -511.135542 
L 459.435726 -505.964961 
L 470.312121 -512.991735 
L 481.188516 -533.017599 
L 491.012357 -538.503858 
L 501.888752 -531.412852 
L 512.414295 -523.746553 
L 523.29069 -520.62459 
L 533.816234 -519.925332 
L 544.692629 -527.663868 
L 555.569024 -527.630769 
L 566.094568 -519.885531 
L 576.970963 -512.995515 
L 587.496507 -505.188203 
L 598.372902 -515.478743 
L 609.249297 -528.870545 
L 619.423989 -542.309817 
L 630.300384 -529.635104 
L 640.825928 -525.617071 
L 651.702323 -521.042192 
L 662.227866 -520.561648 
L 673.104261 -525.095196 
L 673.104261 -533.903334 
L 673.104261 -533.903334 
L 662.227866 -529.369862 
L 651.702323 -529.85172 
L 640.825928 -534.429826 
L 630.300384 -538.447868 
L 619.423989 -551.14109 
L 609.249297 -537.71641 
L 598.372902 -524.365715 
L 587.496507 -514.113152 
L 576.970963 -521.921124 
L 566.094568 -528.81144 
L 555.569024 -536.556939 
L 544.692629 -536.592915 
L 533.816234 -528.854473 
L 523.29069 -529.555663 
L 512.414295 -532.68273 
L 501.888752 -540.349048 
L 491.012357 -547.468033 
L 481.188516 -542.004998 
L 470.312121 -522.044756 
L 459.435726 -515.081783 
L 448.910182 -520.253453 
L 438.033787 -525.989011 
L 427.508244 -530.879628 
L 416.631848 -532.007312 
L 405.755453 -528.689371 
L 395.22991 -530.073764 
L 384.353515 -532.287356 
L 373.827971 -541.968679 
L 362.951576 -546.554955 
L 353.127735 -537.462298 
L 342.25134 -524.101149 
L 331.374945 -512.583227 
L 320.849402 -518.789964 
L 309.973006 -525.058764 
L 299.447463 -531.605069 
L 288.571068 -530.715462 
L 277.694673 -531.052357 
L 267.169129 -528.125228 
L 256.292734 -537.215025 
L 245.76719 -538.376116 
L 234.890795 -550.69117 
L 225.066955 -534.758845 
L 214.19056 -523.142859 
L 203.314164 -513.130398 
L 192.788621 -519.909726 
L 181.912226 -524.913237 
L 171.386682 -530.696659 
L 160.510287 -530.07299 
L 149.633892 -528.585389 
L 139.108348 -528.991791 
L 128.231953 -535.722573 
L 117.70641 -538.076253 
L 106.830015 -546.898804 
L 96.655322 -531.508142 
L 85.778927 -522.202813 
L 74.902532 -524.952787 
L 64.376989 -568.510613 
z
" style="stroke: #ffffff; stroke-opacity: 0.2"/>
    </defs>
    <g clip-path="url(#pe8db0518cf)">
     <use xlink:href="#m115e9dd5e1" x="0" y="606.465" style="fill: #4c72b0; fill-opacity: 0.2; stroke: #ffffff; stroke-opacity: 0.2"/>
    </g>
   </g>
   <g id="line2d_11">
    <path d="M 64.376989 93.212633 
L 74.902532 96.472345 
L 85.778927 93.896828 
L 96.655322 74.387297 
L 106.830015 61.570339 
L 117.70641 72.340362 
L 128.231953 73.383023 
L 139.108348 80.363604 
L 149.633892 84.187436 
L 160.510287 81.908628 
L 171.386682 83.100556 
L 181.912226 86.540913 
L 192.788621 94.3968 
L 203.314164 98.019931 
L 214.19056 88.492802 
L 225.066955 71.549166 
L 234.890795 61.001709 
L 245.76719 73.163067 
L 256.292734 76.509191 
L 267.169129 82.966378 
L 277.694673 76.891264 
L 288.571068 77.123419 
L 299.447463 81.351009 
L 309.973006 87.264151 
L 320.849402 94.305176 
L 331.374945 96.199204 
L 342.25134 85.715845 
L 353.127735 70.772823 
L 362.951576 67.414168 
L 373.827971 68.09834 
L 384.353515 77.109382 
L 395.22991 81.963274 
L 405.755453 81.219301 
L 416.631848 78.361727 
L 427.508244 78.446167 
L 438.033787 83.680452 
L 448.910182 90.303682 
L 459.435726 94.297886 
L 470.312121 92.850692 
L 481.188516 64.304814 
L 491.012357 62.395318 
L 501.888752 73.492876 
L 512.414295 79.722783 
L 523.29069 82.206462 
L 533.816234 81.927829 
L 544.692629 72.523924 
L 555.569024 68.338476 
L 566.094568 81.645793 
L 576.970963 93.592372 
L 587.496507 98.427971 
L 598.372902 88.87585 
L 609.249297 70.498935 
L 619.423989 61.025316 
L 630.300384 68.321251 
L 640.825928 78.581704 
L 651.702323 81.241618 
L 662.227866 79.707346 
L 673.104261 78.815115 
" clip-path="url(#pe8db0518cf)" style="fill: none; stroke: #000000; stroke-width: 1.5; stroke-linecap: round"/>
   </g>
   <g id="line2d_12">
    <path d="M 64.376989 86.298261 
L 74.902532 96.393447 
L 85.778927 90.915953 
L 96.655322 80.505445 
L 106.830015 64.943516 
L 117.70641 73.656773 
L 128.231953 76.006753 
L 139.108348 82.710186 
L 149.633892 83.114216 
L 160.510287 81.626181 
L 171.386682 80.988726 
L 181.912226 86.767265 
L 192.788621 91.770681 
L 203.314164 98.548569 
L 214.19056 88.329768 
L 225.066955 76.556726 
L 234.890795 60.577153 
L 245.76719 72.846972 
L 256.292734 74.007905 
L 267.169129 83.088107 
L 277.694673 80.158511 
L 288.571068 80.49531 
L 299.447463 79.600507 
L 309.973006 86.146114 
L 320.849402 92.414709 
L 331.374945 98.620471 
L 342.25134 87.037465 
L 353.127735 73.615216 
L 362.951576 64.501496 
L 373.827971 69.064379 
L 384.353515 78.745679 
L 395.22991 80.954727 
L 405.755453 82.337595 
L 416.631848 79.019595 
L 427.508244 80.144758 
L 438.033787 85.035126 
L 448.910182 90.770503 
L 459.435726 95.941628 
L 470.312121 88.946754 
L 481.188516 68.953701 
L 491.012357 63.479054 
L 501.888752 70.58405 
L 512.414295 78.250358 
L 523.29069 81.374874 
L 533.816234 82.075098 
L 544.692629 74.336609 
L 555.569024 74.371146 
L 566.094568 82.116515 
L 576.970963 89.006681 
L 587.496507 96.814322 
L 598.372902 86.542771 
L 609.249297 73.171523 
L 619.423989 59.739546 
L 630.300384 72.423514 
L 640.825928 76.441552 
L 651.702323 81.018044 
L 662.227866 81.499245 
L 673.104261 76.965735 
" clip-path="url(#pe8db0518cf)" style="fill: none; stroke: #4c72b0; stroke-width: 1.5; stroke-linecap: round"/>
   </g>
   <g id="patch_3">
    <path d="M 33.940625 139.476522 
L 33.940625 33.12 
" style="fill: none; stroke: #ffffff; stroke-width: 0.8; stroke-linejoin: miter; stroke-linecap: square"/>
   </g>
   <g id="patch_4">
    <path d="M 703.540625 139.476522 
L 703.540625 33.12 
" style="fill: none; stroke: #ffffff; stroke-width: 0.8; stroke-linejoin: miter; stroke-linecap: square"/>
   </g>
   <g id="patch_5">
    <path d="M 33.940625 139.476522 
L 703.540625 139.476522 
" style="fill: none; stroke: #ffffff; stroke-width: 0.8; stroke-linejoin: miter; stroke-linecap: square"/>
   </g>
   <g id="patch_6">
    <path d="M 33.940625 33.12 
L 703.540625 33.12 
" style="fill: none; stroke: #ffffff; stroke-width: 0.8; stroke-linejoin: miter; stroke-linecap: square"/>
   </g>
   <g id="legend_1">
    <g id="patch_7">
     <path d="M 710.540625 102.007636 
L 865.939063 102.007636 
Q 867.939063 102.007636 867.939063 100.007636 
L 867.939063 72.588886 
Q 867.939063 70.588886 865.939063 70.588886 
L 710.540625 70.588886 
Q 708.540625 70.588886 708.540625 72.588886 
L 708.540625 100.007636 
Q 708.540625 102.007636 710.540625 102.007636 
z
" style="fill: #e6e6e6; opacity: 0.8; stroke: #cccccc; stroke-linejoin: miter"/>
    </g>
    <g id="line2d_13">
     <path d="M 712.540625 78.246698 
L 722.540625 78.246698 
L 732.540625 78.246698 
" style="fill: none; stroke: #000000; stroke-width: 1.5; stroke-linecap: round"/>
    </g>
    <g id="text_11">
     <!-- Observed -->
     <g style="fill: #262626" transform="translate(740.540625 81.746698)scale(0.1 -0.1)">
      <defs>
       <path id="ArialMT-4f" d="M 309 2231 
Q 309 3372 921 4017 
Q 1534 4663 2503 4663 
Q 3138 4663 3647 4359 
Q 4156 4056 4423 3514 
Q 4691 2972 4691 2284 
Q 4691 1588 4409 1038 
Q 4128 488 3612 205 
Q 3097 -78 2500 -78 
Q 1853 -78 1343 234 
Q 834 547 571 1087 
Q 309 1628 309 2231 
z
M 934 2222 
Q 934 1394 1379 917 
Q 1825 441 2497 441 
Q 3181 441 3623 922 
Q 4066 1403 4066 2288 
Q 4066 2847 3877 3264 
Q 3688 3681 3323 3911 
Q 2959 4141 2506 4141 
Q 1863 4141 1398 3698 
Q 934 3256 934 2222 
z
" transform="scale(0.015625)"/>
       <path id="ArialMT-62" d="M 941 0 
L 419 0 
L 419 4581 
L 981 4581 
L 981 2947 
Q 1338 3394 1891 3394 
Q 2197 3394 2470 3270 
Q 2744 3147 2920 2923 
Q 3097 2700 3197 2384 
Q 3297 2069 3297 1709 
Q 3297 856 2875 390 
Q 2453 -75 1863 -75 
Q 1275 -75 941 416 
L 941 0 
z
M 934 1684 
Q 934 1088 1097 822 
Q 1363 388 1816 388 
Q 2184 388 2453 708 
Q 2722 1028 2722 1663 
Q 2722 2313 2464 2622 
Q 2206 2931 1841 2931 
Q 1472 2931 1203 2611 
Q 934 2291 934 1684 
z
" transform="scale(0.015625)"/>
       <path id="ArialMT-73" d="M 197 991 
L 753 1078 
Q 800 744 1014 566 
Q 1228 388 1613 388 
Q 2000 388 2187 545 
Q 2375 703 2375 916 
Q 2375 1106 2209 1216 
Q 2094 1291 1634 1406 
Q 1016 1563 777 1677 
Q 538 1791 414 1992 
Q 291 2194 291 2438 
Q 291 2659 392 2848 
Q 494 3038 669 3163 
Q 800 3259 1026 3326 
Q 1253 3394 1513 3394 
Q 1903 3394 2198 3281 
Q 2494 3169 2634 2976 
Q 2775 2784 2828 2463 
L 2278 2388 
Q 2241 2644 2061 2787 
Q 1881 2931 1553 2931 
Q 1166 2931 1000 2803 
Q 834 2675 834 2503 
Q 834 2394 903 2306 
Q 972 2216 1119 2156 
Q 1203 2125 1616 2013 
Q 2213 1853 2448 1751 
Q 2684 1650 2818 1456 
Q 2953 1263 2953 975 
Q 2953 694 2789 445 
Q 2625 197 2315 61 
Q 2006 -75 1616 -75 
Q 969 -75 630 194 
Q 291 463 197 991 
z
" transform="scale(0.015625)"/>
       <path id="ArialMT-65" d="M 2694 1069 
L 3275 997 
Q 3138 488 2766 206 
Q 2394 -75 1816 -75 
Q 1088 -75 661 373 
Q 234 822 234 1631 
Q 234 2469 665 2931 
Q 1097 3394 1784 3394 
Q 2450 3394 2872 2941 
Q 3294 2488 3294 1666 
Q 3294 1616 3291 1516 
L 816 1516 
Q 847 969 1125 678 
Q 1403 388 1819 388 
Q 2128 388 2347 550 
Q 2566 713 2694 1069 
z
M 847 1978 
L 2700 1978 
Q 2663 2397 2488 2606 
Q 2219 2931 1791 2931 
Q 1403 2931 1139 2672 
Q 875 2413 847 1978 
z
" transform="scale(0.015625)"/>
       <path id="ArialMT-72" d="M 416 0 
L 416 3319 
L 922 3319 
L 922 2816 
Q 1116 3169 1280 3281 
Q 1444 3394 1641 3394 
Q 1925 3394 2219 3213 
L 2025 2691 
Q 1819 2813 1613 2813 
Q 1428 2813 1281 2702 
Q 1134 2591 1072 2394 
Q 978 2094 978 1738 
L 978 0 
L 416 0 
z
" transform="scale(0.015625)"/>
       <path id="ArialMT-76" d="M 1344 0 
L 81 3319 
L 675 3319 
L 1388 1331 
Q 1503 1009 1600 663 
Q 1675 925 1809 1294 
L 2547 3319 
L 3125 3319 
L 1869 0 
L 1344 0 
z
" transform="scale(0.015625)"/>
       <path id="ArialMT-64" d="M 2575 0 
L 2575 419 
Q 2259 -75 1647 -75 
Q 1250 -75 917 144 
Q 584 363 401 755 
Q 219 1147 219 1656 
Q 219 2153 384 2558 
Q 550 2963 881 3178 
Q 1213 3394 1622 3394 
Q 1922 3394 2156 3267 
Q 2391 3141 2538 2938 
L 2538 4581 
L 3097 4581 
L 3097 0 
L 2575 0 
z
M 797 1656 
Q 797 1019 1065 703 
Q 1334 388 1700 388 
Q 2069 388 2326 689 
Q 2584 991 2584 1609 
Q 2584 2291 2321 2609 
Q 2059 2928 1675 2928 
Q 1300 2928 1048 2622 
Q 797 2316 797 1656 
z
" transform="scale(0.015625)"/>
      </defs>
      <use xlink:href="#ArialMT-4f"/>
      <use xlink:href="#ArialMT-62" x="77.783203"/>
      <use xlink:href="#ArialMT-73" x="133.398438"/>
      <use xlink:href="#ArialMT-65" x="183.398438"/>
      <use xlink:href="#ArialMT-72" x="239.013672"/>
      <use xlink:href="#ArialMT-76" x="272.314453"/>
      <use xlink:href="#ArialMT-65" x="322.314453"/>
      <use xlink:href="#ArialMT-64" x="377.929688"/>
     </g>
    </g>
    <g id="line2d_14">
     <path d="M 712.540625 92.520136 
L 722.540625 92.520136 
L 732.540625 92.520136 
" style="fill: none; stroke: #4c72b0; stroke-width: 1.5; stroke-linecap: round"/>
    </g>
    <g id="text_12">
     <!-- One-step-ahead predictions -->
     <g style="fill: #262626" transform="translate(740.540625 96.020136)scale(0.1 -0.1)">
      <defs>
       <path id="ArialMT-6e" d="M 422 0 
L 422 3319 
L 928 3319 
L 928 2847 
Q 1294 3394 1984 3394 
Q 2284 3394 2536 3286 
Q 2788 3178 2913 3003 
Q 3038 2828 3088 2588 
Q 3119 2431 3119 2041 
L 3119 0 
L 2556 0 
L 2556 2019 
Q 2556 2363 2490 2533 
Q 2425 2703 2258 2804 
Q 2091 2906 1866 2906 
Q 1506 2906 1245 2678 
Q 984 2450 984 1813 
L 984 0 
L 422 0 
z
" transform="scale(0.015625)"/>
       <path id="ArialMT-2d" d="M 203 1375 
L 203 1941 
L 1931 1941 
L 1931 1375 
L 203 1375 
z
" transform="scale(0.015625)"/>
       <path id="ArialMT-74" d="M 1650 503 
L 1731 6 
Q 1494 -44 1306 -44 
Q 1000 -44 831 53 
Q 663 150 594 308 
Q 525 466 525 972 
L 525 2881 
L 113 2881 
L 113 3319 
L 525 3319 
L 525 4141 
L 1084 4478 
L 1084 3319 
L 1650 3319 
L 1650 2881 
L 1084 2881 
L 1084 941 
Q 1084 700 1114 631 
Q 1144 563 1211 522 
Q 1278 481 1403 481 
Q 1497 481 1650 503 
z
" transform="scale(0.015625)"/>
       <path id="ArialMT-70" d="M 422 -1272 
L 422 3319 
L 934 3319 
L 934 2888 
Q 1116 3141 1344 3267 
Q 1572 3394 1897 3394 
Q 2322 3394 2647 3175 
Q 2972 2956 3137 2557 
Q 3303 2159 3303 1684 
Q 3303 1175 3120 767 
Q 2938 359 2589 142 
Q 2241 -75 1856 -75 
Q 1575 -75 1351 44 
Q 1128 163 984 344 
L 984 -1272 
L 422 -1272 
z
M 931 1641 
Q 931 1000 1190 694 
Q 1450 388 1819 388 
Q 2194 388 2461 705 
Q 2728 1022 2728 1688 
Q 2728 2322 2467 2637 
Q 2206 2953 1844 2953 
Q 1484 2953 1207 2617 
Q 931 2281 931 1641 
z
" transform="scale(0.015625)"/>
       <path id="ArialMT-61" d="M 2588 409 
Q 2275 144 1986 34 
Q 1697 -75 1366 -75 
Q 819 -75 525 192 
Q 231 459 231 875 
Q 231 1119 342 1320 
Q 453 1522 633 1644 
Q 813 1766 1038 1828 
Q 1203 1872 1538 1913 
Q 2219 1994 2541 2106 
Q 2544 2222 2544 2253 
Q 2544 2597 2384 2738 
Q 2169 2928 1744 2928 
Q 1347 2928 1158 2789 
Q 969 2650 878 2297 
L 328 2372 
Q 403 2725 575 2942 
Q 747 3159 1072 3276 
Q 1397 3394 1825 3394 
Q 2250 3394 2515 3294 
Q 2781 3194 2906 3042 
Q 3031 2891 3081 2659 
Q 3109 2516 3109 2141 
L 3109 1391 
Q 3109 606 3145 398 
Q 3181 191 3288 0 
L 2700 0 
Q 2613 175 2588 409 
z
M 2541 1666 
Q 2234 1541 1622 1453 
Q 1275 1403 1131 1340 
Q 988 1278 909 1158 
Q 831 1038 831 891 
Q 831 666 1001 516 
Q 1172 366 1500 366 
Q 1825 366 2078 508 
Q 2331 650 2450 897 
Q 2541 1088 2541 1459 
L 2541 1666 
z
" transform="scale(0.015625)"/>
       <path id="ArialMT-68" d="M 422 0 
L 422 4581 
L 984 4581 
L 984 2938 
Q 1378 3394 1978 3394 
Q 2347 3394 2619 3248 
Q 2891 3103 3008 2847 
Q 3125 2591 3125 2103 
L 3125 0 
L 2563 0 
L 2563 2103 
Q 2563 2525 2380 2717 
Q 2197 2909 1863 2909 
Q 1613 2909 1392 2779 
Q 1172 2650 1078 2428 
Q 984 2206 984 1816 
L 984 0 
L 422 0 
z
" transform="scale(0.015625)"/>
       <path id="ArialMT-20" transform="scale(0.015625)"/>
       <path id="ArialMT-69" d="M 425 3934 
L 425 4581 
L 988 4581 
L 988 3934 
L 425 3934 
z
M 425 0 
L 425 3319 
L 988 3319 
L 988 0 
L 425 0 
z
" transform="scale(0.015625)"/>
       <path id="ArialMT-63" d="M 2588 1216 
L 3141 1144 
Q 3050 572 2676 248 
Q 2303 -75 1759 -75 
Q 1078 -75 664 370 
Q 250 816 250 1647 
Q 250 2184 428 2587 
Q 606 2991 970 3192 
Q 1334 3394 1763 3394 
Q 2303 3394 2647 3120 
Q 2991 2847 3088 2344 
L 2541 2259 
Q 2463 2594 2264 2762 
Q 2066 2931 1784 2931 
Q 1359 2931 1093 2626 
Q 828 2322 828 1663 
Q 828 994 1084 691 
Q 1341 388 1753 388 
Q 2084 388 2306 591 
Q 2528 794 2588 1216 
z
" transform="scale(0.015625)"/>
       <path id="ArialMT-6f" d="M 213 1659 
Q 213 2581 725 3025 
Q 1153 3394 1769 3394 
Q 2453 3394 2887 2945 
Q 3322 2497 3322 1706 
Q 3322 1066 3130 698 
Q 2938 331 2570 128 
Q 2203 -75 1769 -75 
Q 1072 -75 642 372 
Q 213 819 213 1659 
z
M 791 1659 
Q 791 1022 1069 705 
Q 1347 388 1769 388 
Q 2188 388 2466 706 
Q 2744 1025 2744 1678 
Q 2744 2294 2464 2611 
Q 2184 2928 1769 2928 
Q 1347 2928 1069 2612 
Q 791 2297 791 1659 
z
" transform="scale(0.015625)"/>
      </defs>
      <use xlink:href="#ArialMT-4f"/>
      <use xlink:href="#ArialMT-6e" x="77.783203"/>
      <use xlink:href="#ArialMT-65" x="133.398438"/>
      <use xlink:href="#ArialMT-2d" x="189.013672"/>
      <use xlink:href="#ArialMT-73" x="222.314453"/>
      <use xlink:href="#ArialMT-74" x="272.314453"/>
      <use xlink:href="#ArialMT-65" x="300.097656"/>
      <use xlink:href="#ArialMT-70" x="355.712891"/>
      <use xlink:href="#ArialMT-2d" x="411.328125"/>
      <use xlink:href="#ArialMT-61" x="444.628906"/>
      <use xlink:href="#ArialMT-68" x="500.244141"/>
      <use xlink:href="#ArialMT-65" x="555.859375"/>
      <use xlink:href="#ArialMT-61" x="611.474609"/>
      <use xlink:href="#ArialMT-64" x="667.089844"/>
      <use xlink:href="#ArialMT-20" x="722.705078"/>
      <use xlink:href="#ArialMT-70" x="750.488281"/>
      <use xlink:href="#ArialMT-72" x="806.103516"/>
      <use xlink:href="#ArialMT-65" x="839.404297"/>
      <use xlink:href="#ArialMT-64" x="895.019531"/>
      <use xlink:href="#ArialMT-69" x="950.634766"/>
      <use xlink:href="#ArialMT-63" x="972.851562"/>
      <use xlink:href="#ArialMT-74" x="1022.851562"/>
      <use xlink:href="#ArialMT-69" x="1050.634766"/>
      <use xlink:href="#ArialMT-6f" x="1072.851562"/>
      <use xlink:href="#ArialMT-6e" x="1128.466797"/>
      <use xlink:href="#ArialMT-73" x="1184.082031"/>
     </g>
    </g>
   </g>
  </g>
  <g id="axes_2">
   <g id="patch_8">
    <path d="M 33.940625 267.104348 
L 703.540625 267.104348 
L 703.540625 160.747826 
L 33.940625 160.747826 
z
" style="fill: #e6e6e6"/>
   </g>
   <g id="matplotlib.axis_3">
    <g id="xtick_6">
     <g id="line2d_15">
      <path d="M 86.129779 267.104348 
L 86.129779 160.747826 
" clip-path="url(#pf050762b77)" style="fill: none; stroke: #cccccc; stroke-width: 0.8; stroke-linecap: round"/>
     </g>
     <g id="text_13">
      <!-- 2016 -->
      <g style="fill: #262626" transform="translate(75.007904 281.26216)scale(0.1 -0.1)">
       <use xlink:href="#ArialMT-32"/>
       <use xlink:href="#ArialMT-30" x="55.615234"/>
       <use xlink:href="#ArialMT-31" x="111.230469"/>
       <use xlink:href="#ArialMT-36" x="166.845703"/>
      </g>
     </g>
    </g>
    <g id="xtick_7">
     <g id="line2d_16">
      <path d="M 214.541411 267.104348 
L 214.541411 160.747826 
" clip-path="url(#pf050762b77)" style="fill: none; stroke: #cccccc; stroke-width: 0.8; stroke-linecap: round"/>
     </g>
     <g id="text_14">
      <!-- 2017 -->
      <g style="fill: #262626" transform="translate(203.419536 281.26216)scale(0.1 -0.1)">
       <use xlink:href="#ArialMT-32"/>
       <use xlink:href="#ArialMT-30" x="55.615234"/>
       <use xlink:href="#ArialMT-31" x="111.230469"/>
       <use xlink:href="#ArialMT-37" x="166.845703"/>
      </g>
     </g>
    </g>
    <g id="xtick_8">
     <g id="line2d_17">
      <path d="M 342.602192 267.104348 
L 342.602192 160.747826 
" clip-path="url(#pf050762b77)" style="fill: none; stroke: #cccccc; stroke-width: 0.8; stroke-linecap: round"/>
     </g>
     <g id="text_15">
      <!-- 2018 -->
      <g style="fill: #262626" transform="translate(331.480317 281.26216)scale(0.1 -0.1)">
       <use xlink:href="#ArialMT-32"/>
       <use xlink:href="#ArialMT-30" x="55.615234"/>
       <use xlink:href="#ArialMT-31" x="111.230469"/>
       <use xlink:href="#ArialMT-38" x="166.845703"/>
      </g>
     </g>
    </g>
    <g id="xtick_9">
     <g id="line2d_18">
      <path d="M 470.662972 267.104348 
L 470.662972 160.747826 
" clip-path="url(#pf050762b77)" style="fill: none; stroke: #cccccc; stroke-width: 0.8; stroke-linecap: round"/>
     </g>
     <g id="text_16">
      <!-- 2019 -->
      <g style="fill: #262626" transform="translate(459.541097 281.26216)scale(0.1 -0.1)">
       <use xlink:href="#ArialMT-32"/>
       <use xlink:href="#ArialMT-30" x="55.615234"/>
       <use xlink:href="#ArialMT-31" x="111.230469"/>
       <use xlink:href="#ArialMT-39" x="166.845703"/>
      </g>
     </g>
    </g>
    <g id="xtick_10">
     <g id="line2d_19">
      <path d="M 598.723753 267.104348 
L 598.723753 160.747826 
" clip-path="url(#pf050762b77)" style="fill: none; stroke: #cccccc; stroke-width: 0.8; stroke-linecap: round"/>
     </g>
     <g id="text_17">
      <!-- 2020 -->
      <g style="fill: #262626" transform="translate(587.601878 281.26216)scale(0.1 -0.1)">
       <use xlink:href="#ArialMT-32"/>
       <use xlink:href="#ArialMT-30" x="55.615234"/>
       <use xlink:href="#ArialMT-32" x="111.230469"/>
       <use xlink:href="#ArialMT-30" x="166.845703"/>
      </g>
     </g>
    </g>
   </g>
   <g id="matplotlib.axis_4">
    <g id="ytick_6">
     <g id="line2d_20">
      <path d="M 33.940625 253.102096 
L 703.540625 253.102096 
" clip-path="url(#pf050762b77)" style="fill: none; stroke: #cccccc; stroke-width: 0.8; stroke-linecap: round"/>
     </g>
     <g id="text_18">
      <!-- 0.6 -->
      <g style="fill: #262626" transform="translate(13.040625 256.681002)scale(0.1 -0.1)">
       <use xlink:href="#ArialMT-30"/>
       <use xlink:href="#ArialMT-2e" x="55.615234"/>
       <use xlink:href="#ArialMT-36" x="83.398438"/>
      </g>
     </g>
    </g>
    <g id="ytick_7">
     <g id="line2d_21">
      <path d="M 33.940625 227.504037 
L 703.540625 227.504037 
" clip-path="url(#pf050762b77)" style="fill: none; stroke: #cccccc; stroke-width: 0.8; stroke-linecap: round"/>
     </g>
     <g id="text_19">
      <!-- 0.8 -->
      <g style="fill: #262626" transform="translate(13.040625 231.082944)scale(0.1 -0.1)">
       <use xlink:href="#ArialMT-30"/>
       <use xlink:href="#ArialMT-2e" x="55.615234"/>
       <use xlink:href="#ArialMT-38" x="83.398438"/>
      </g>
     </g>
    </g>
    <g id="ytick_8">
     <g id="line2d_22">
      <path d="M 33.940625 201.905979 
L 703.540625 201.905979 
" clip-path="url(#pf050762b77)" style="fill: none; stroke: #cccccc; stroke-width: 0.8; stroke-linecap: round"/>
     </g>
     <g id="text_20">
      <!-- 1.0 -->
      <g style="fill: #262626" transform="translate(13.040625 205.484885)scale(0.1 -0.1)">
       <use xlink:href="#ArialMT-31"/>
       <use xlink:href="#ArialMT-2e" x="55.615234"/>
       <use xlink:href="#ArialMT-30" x="83.398438"/>
      </g>
     </g>
    </g>
    <g id="ytick_9">
     <g id="line2d_23">
      <path d="M 33.940625 176.30792 
L 703.540625 176.30792 
" clip-path="url(#pf050762b77)" style="fill: none; stroke: #cccccc; stroke-width: 0.8; stroke-linecap: round"/>
     </g>
     <g id="text_21">
      <!-- 1.2 -->
      <g style="fill: #262626" transform="translate(13.040625 179.886826)scale(0.1 -0.1)">
       <use xlink:href="#ArialMT-31"/>
       <use xlink:href="#ArialMT-2e" x="55.615234"/>
       <use xlink:href="#ArialMT-32" x="83.398438"/>
      </g>
     </g>
    </g>
   </g>
   <g id="PolyCollection_2">
    <defs>
     <path id="m55b37ac5ca" d="M 64.376989 -388.496253 
L 64.376989 -344.19504 
L 74.902532 -347.688717 
L 85.778927 -348.848829 
L 96.655322 -351.228414 
L 106.830015 -353.533048 
L 117.70641 -355.428688 
L 128.231953 -356.856402 
L 139.108348 -357.272111 
L 149.633892 -356.002077 
L 160.510287 -355.410158 
L 171.386682 -355.453036 
L 181.912226 -357.058265 
L 192.788621 -358.043192 
L 203.314164 -360.012929 
L 214.19056 -361.079068 
L 225.066955 -363.307346 
L 234.890795 -363.736657 
L 245.76719 -364.607499 
L 256.292734 -365.104469 
L 267.169129 -366.758664 
L 277.694673 -368.842015 
L 288.571068 -369.971375 
L 299.447463 -369.482572 
L 309.973006 -370.393143 
L 320.849402 -371.915404 
L 331.374945 -374.909221 
L 342.25134 -376.626001 
L 353.127735 -378.091527 
L 362.951576 -377.832675 
L 373.827971 -379.829108 
L 384.353515 -381.774148 
L 395.22991 -382.457117 
L 405.755453 -383.995364 
L 416.631848 -385.059699 
L 427.508244 -386.334815 
L 438.033787 -387.706155 
L 448.910182 -388.78802 
L 459.435726 -389.836397 
L 470.312121 -388.766813 
L 481.188516 -390.584239 
L 491.012357 -390.181159 
L 501.888752 -388.673917 
L 512.414295 -388.624146 
L 523.29069 -389.166652 
L 533.816234 -390.24619 
L 544.692629 -391.775733 
L 555.569024 -393.555285 
L 566.094568 -392.071626 
L 576.970963 -389.300877 
L 587.496507 -388.515784 
L 598.372902 -387.911002 
L 609.249297 -389.216172 
L 619.423989 -388.625932 
L 630.300384 -389.492617 
L 640.825928 -387.537131 
L 651.702323 -386.349676 
L 662.227866 -385.373538 
L 673.104261 -382.679183 
L 673.104261 -440.882787 
L 673.104261 -440.882787 
L 662.227866 -440.129704 
L 651.702323 -438.32917 
L 640.825928 -437.360122 
L 630.300384 -437.634005 
L 619.423989 -435.480077 
L 609.249297 -435.107772 
L 598.372902 -433.085059 
L 587.496507 -433.176867 
L 576.970963 -433.602091 
L 566.094568 -436.123443 
L 555.569024 -437.457395 
L 544.692629 -435.581248 
L 533.816234 -433.957917 
L 523.29069 -432.79061 
L 512.414295 -432.179292 
L 501.888752 -432.170502 
L 491.012357 -433.631389 
L 481.188516 -434.001251 
L 470.312121 -432.163442 
L 459.435726 -433.221611 
L 448.910182 -432.166159 
L 438.033787 -431.080962 
L 427.508244 -429.709753 
L 416.631848 -428.435537 
L 405.755453 -427.371565 
L 395.22991 -425.831507 
L 384.353515 -425.146548 
L 373.827971 -423.197689 
L 362.951576 -421.197423 
L 353.127735 -421.453426 
L 342.25134 -419.989441 
L 331.374945 -418.274445 
L 320.849402 -415.280706 
L 309.973006 -413.758367 
L 299.447463 -412.846013 
L 288.571068 -413.333274 
L 277.694673 -412.206764 
L 267.169129 -410.127245 
L 256.292734 -408.47687 
L 245.76719 -407.981889 
L 234.890795 -407.112858 
L 225.066955 -406.683185 
L 214.19056 -404.454006 
L 203.314164 -403.387737 
L 192.788621 -401.421331 
L 181.912226 -400.443479 
L 171.386682 -398.849665 
L 160.510287 -398.827171 
L 149.633892 -399.452308 
L 139.108348 -400.768696 
L 128.231953 -400.411548 
L 117.70641 -399.052646 
L 106.830015 -397.244776 
L 96.655322 -395.033929 
L 85.778927 -392.750938 
L 74.902532 -391.740535 
L 64.376989 -388.496253 
z
" style="stroke: #ffffff; stroke-opacity: 0.2"/>
    </defs>
    <g clip-path="url(#pf050762b77)">
     <use xlink:href="#m55b37ac5ca" x="0" y="606.465" style="fill: #4c72b0; fill-opacity: 0.2; stroke: #ffffff; stroke-opacity: 0.2"/>
    </g>
   </g>
   <g id="line2d_24">
    <path d="M 64.376989 240.119354 
L 74.902532 236.750374 
L 85.778927 235.665117 
L 96.655322 233.333829 
L 106.830015 231.076088 
L 117.70641 229.224333 
L 128.231953 227.831025 
L 139.108348 227.444597 
L 149.633892 228.737808 
L 160.510287 229.346335 
L 171.386682 229.313649 
L 181.912226 227.714128 
L 192.788621 226.732739 
L 203.314164 224.764667 
L 214.19056 223.698463 
L 225.066955 221.469734 
L 234.890795 221.040242 
L 245.76719 220.170306 
L 256.292734 219.674331 
L 267.169129 218.022045 
L 277.694673 215.940611 
L 288.571068 214.812675 
L 299.447463 215.300708 
L 309.973006 214.389245 
L 320.849402 212.866945 
L 331.374945 209.873167 
L 342.25134 208.157279 
L 353.127735 206.692524 
L 362.951576 206.949951 
L 373.827971 204.951601 
L 384.353515 203.004652 
L 395.22991 202.320688 
L 405.755453 200.781536 
L 416.631848 199.717382 
L 427.508244 198.442716 
L 438.033787 197.071442 
L 448.910182 195.987911 
L 459.435726 194.935996 
L 470.312121 195.999873 
L 481.188516 194.172255 
L 491.012357 194.558726 
L 501.888752 196.042791 
L 512.414295 196.063281 
L 523.29069 195.486369 
L 533.816234 194.362947 
L 544.692629 192.78651 
L 555.569024 190.95866 
L 566.094568 192.367466 
L 576.970963 195.013516 
L 587.496507 195.618675 
L 598.372902 195.96697 
L 609.249297 194.303028 
L 619.423989 194.411995 
L 630.300384 192.901689 
L 640.825928 194.016374 
L 651.702323 194.125577 
L 662.227866 193.713379 
L 673.104261 194.684015 
" clip-path="url(#pf050762b77)" style="fill: none; stroke: #4c72b0; stroke-width: 1.5; stroke-linecap: round"/>
   </g>
   <g id="patch_9">
    <path d="M 33.940625 267.104348 
L 33.940625 160.747826 
" style="fill: none; stroke: #ffffff; stroke-width: 0.8; stroke-linejoin: miter; stroke-linecap: square"/>
   </g>
   <g id="patch_10">
    <path d="M 703.540625 267.104348 
L 703.540625 160.747826 
" style="fill: none; stroke: #ffffff; stroke-width: 0.8; stroke-linejoin: miter; stroke-linecap: square"/>
   </g>
   <g id="patch_11">
    <path d="M 33.940625 267.104348 
L 703.540625 267.104348 
" style="fill: none; stroke: #ffffff; stroke-width: 0.8; stroke-linejoin: miter; stroke-linecap: square"/>
   </g>
   <g id="patch_12">
    <path d="M 33.940625 160.747826 
L 703.540625 160.747826 
" style="fill: none; stroke: #ffffff; stroke-width: 0.8; stroke-linejoin: miter; stroke-linecap: square"/>
   </g>
   <g id="legend_2">
    <g id="patch_13">
     <path d="M 710.540625 222.618274 
L 819.795313 222.618274 
Q 821.795313 222.618274 821.795313 220.618274 
L 821.795313 207.233899 
Q 821.795313 205.233899 819.795313 205.233899 
L 710.540625 205.233899 
Q 708.540625 205.233899 708.540625 207.233899 
L 708.540625 220.618274 
Q 708.540625 222.618274 710.540625 222.618274 
z
" style="fill: #e6e6e6; opacity: 0.8; stroke: #cccccc; stroke-linejoin: miter"/>
    </g>
    <g id="line2d_25">
     <path d="M 712.540625 213.013587 
L 722.540625 213.013587 
L 732.540625 213.013587 
" style="fill: none; stroke: #4c72b0; stroke-width: 1.5; stroke-linecap: round"/>
    </g>
    <g id="text_22">
     <!-- Level (smoothed) -->
     <g style="fill: #262626" transform="translate(740.540625 216.513587)scale(0.1 -0.1)">
      <defs>
       <path id="ArialMT-4c" d="M 469 0 
L 469 4581 
L 1075 4581 
L 1075 541 
L 3331 541 
L 3331 0 
L 469 0 
z
" transform="scale(0.015625)"/>
       <path id="ArialMT-6c" d="M 409 0 
L 409 4581 
L 972 4581 
L 972 0 
L 409 0 
z
" transform="scale(0.015625)"/>
       <path id="ArialMT-28" d="M 1497 -1347 
Q 1031 -759 709 28 
Q 388 816 388 1659 
Q 388 2403 628 3084 
Q 909 3875 1497 4659 
L 1900 4659 
Q 1522 4009 1400 3731 
Q 1209 3300 1100 2831 
Q 966 2247 966 1656 
Q 966 153 1900 -1347 
L 1497 -1347 
z
" transform="scale(0.015625)"/>
       <path id="ArialMT-6d" d="M 422 0 
L 422 3319 
L 925 3319 
L 925 2853 
Q 1081 3097 1340 3245 
Q 1600 3394 1931 3394 
Q 2300 3394 2536 3241 
Q 2772 3088 2869 2813 
Q 3263 3394 3894 3394 
Q 4388 3394 4653 3120 
Q 4919 2847 4919 2278 
L 4919 0 
L 4359 0 
L 4359 2091 
Q 4359 2428 4304 2576 
Q 4250 2725 4106 2815 
Q 3963 2906 3769 2906 
Q 3419 2906 3187 2673 
Q 2956 2441 2956 1928 
L 2956 0 
L 2394 0 
L 2394 2156 
Q 2394 2531 2256 2718 
Q 2119 2906 1806 2906 
Q 1569 2906 1367 2781 
Q 1166 2656 1075 2415 
Q 984 2175 984 1722 
L 984 0 
L 422 0 
z
" transform="scale(0.015625)"/>
       <path id="ArialMT-29" d="M 791 -1347 
L 388 -1347 
Q 1322 153 1322 1656 
Q 1322 2244 1188 2822 
Q 1081 3291 891 3722 
Q 769 4003 388 4659 
L 791 4659 
Q 1378 3875 1659 3084 
Q 1900 2403 1900 1659 
Q 1900 816 1576 28 
Q 1253 -759 791 -1347 
z
" transform="scale(0.015625)"/>
      </defs>
      <use xlink:href="#ArialMT-4c"/>
      <use xlink:href="#ArialMT-65" x="55.615234"/>
      <use xlink:href="#ArialMT-76" x="111.230469"/>
      <use xlink:href="#ArialMT-65" x="161.230469"/>
      <use xlink:href="#ArialMT-6c" x="216.845703"/>
      <use xlink:href="#ArialMT-20" x="239.0625"/>
      <use xlink:href="#ArialMT-28" x="266.845703"/>
      <use xlink:href="#ArialMT-73" x="300.146484"/>
      <use xlink:href="#ArialMT-6d" x="350.146484"/>
      <use xlink:href="#ArialMT-6f" x="433.447266"/>
      <use xlink:href="#ArialMT-6f" x="489.0625"/>
      <use xlink:href="#ArialMT-74" x="544.677734"/>
      <use xlink:href="#ArialMT-68" x="572.460938"/>
      <use xlink:href="#ArialMT-65" x="628.076172"/>
      <use xlink:href="#ArialMT-64" x="683.691406"/>
      <use xlink:href="#ArialMT-29" x="739.306641"/>
     </g>
    </g>
   </g>
  </g>
  <g id="axes_3">
   <g id="patch_14">
    <path d="M 33.940625 394.732174 
L 703.540625 394.732174 
L 703.540625 288.375652 
L 33.940625 288.375652 
z
" style="fill: #e6e6e6"/>
   </g>
   <g id="matplotlib.axis_5">
    <g id="xtick_11">
     <g id="line2d_26">
      <path d="M 86.129779 394.732174 
L 86.129779 288.375652 
" clip-path="url(#p2e9b3f8883)" style="fill: none; stroke: #cccccc; stroke-width: 0.8; stroke-linecap: round"/>
     </g>
     <g id="text_23">
      <!-- 2016 -->
      <g style="fill: #262626" transform="translate(75.007904 408.889986)scale(0.1 -0.1)">
       <use xlink:href="#ArialMT-32"/>
       <use xlink:href="#ArialMT-30" x="55.615234"/>
       <use xlink:href="#ArialMT-31" x="111.230469"/>
       <use xlink:href="#ArialMT-36" x="166.845703"/>
      </g>
     </g>
    </g>
    <g id="xtick_12">
     <g id="line2d_27">
      <path d="M 214.541411 394.732174 
L 214.541411 288.375652 
" clip-path="url(#p2e9b3f8883)" style="fill: none; stroke: #cccccc; stroke-width: 0.8; stroke-linecap: round"/>
     </g>
     <g id="text_24">
      <!-- 2017 -->
      <g style="fill: #262626" transform="translate(203.419536 408.889986)scale(0.1 -0.1)">
       <use xlink:href="#ArialMT-32"/>
       <use xlink:href="#ArialMT-30" x="55.615234"/>
       <use xlink:href="#ArialMT-31" x="111.230469"/>
       <use xlink:href="#ArialMT-37" x="166.845703"/>
      </g>
     </g>
    </g>
    <g id="xtick_13">
     <g id="line2d_28">
      <path d="M 342.602192 394.732174 
L 342.602192 288.375652 
" clip-path="url(#p2e9b3f8883)" style="fill: none; stroke: #cccccc; stroke-width: 0.8; stroke-linecap: round"/>
     </g>
     <g id="text_25">
      <!-- 2018 -->
      <g style="fill: #262626" transform="translate(331.480317 408.889986)scale(0.1 -0.1)">
       <use xlink:href="#ArialMT-32"/>
       <use xlink:href="#ArialMT-30" x="55.615234"/>
       <use xlink:href="#ArialMT-31" x="111.230469"/>
       <use xlink:href="#ArialMT-38" x="166.845703"/>
      </g>
     </g>
    </g>
    <g id="xtick_14">
     <g id="line2d_29">
      <path d="M 470.662972 394.732174 
L 470.662972 288.375652 
" clip-path="url(#p2e9b3f8883)" style="fill: none; stroke: #cccccc; stroke-width: 0.8; stroke-linecap: round"/>
     </g>
     <g id="text_26">
      <!-- 2019 -->
      <g style="fill: #262626" transform="translate(459.541097 408.889986)scale(0.1 -0.1)">
       <use xlink:href="#ArialMT-32"/>
       <use xlink:href="#ArialMT-30" x="55.615234"/>
       <use xlink:href="#ArialMT-31" x="111.230469"/>
       <use xlink:href="#ArialMT-39" x="166.845703"/>
      </g>
     </g>
    </g>
    <g id="xtick_15">
     <g id="line2d_30">
      <path d="M 598.723753 394.732174 
L 598.723753 288.375652 
" clip-path="url(#p2e9b3f8883)" style="fill: none; stroke: #cccccc; stroke-width: 0.8; stroke-linecap: round"/>
     </g>
     <g id="text_27">
      <!-- 2020 -->
      <g style="fill: #262626" transform="translate(587.601878 408.889986)scale(0.1 -0.1)">
       <use xlink:href="#ArialMT-32"/>
       <use xlink:href="#ArialMT-30" x="55.615234"/>
       <use xlink:href="#ArialMT-32" x="111.230469"/>
       <use xlink:href="#ArialMT-30" x="166.845703"/>
      </g>
     </g>
    </g>
   </g>
   <g id="matplotlib.axis_6">
    <g id="ytick_10">
     <g id="line2d_31">
      <path d="M 33.940625 389.693881 
L 703.540625 389.693881 
" clip-path="url(#p2e9b3f8883)" style="fill: none; stroke: #cccccc; stroke-width: 0.8; stroke-linecap: round"/>
     </g>
     <g id="text_28">
      <!-- −2 -->
      <g style="fill: #262626" transform="translate(15.539063 393.272787)scale(0.1 -0.1)">
       <use xlink:href="#ArialMT-2212"/>
       <use xlink:href="#ArialMT-32" x="58.398438"/>
      </g>
     </g>
    </g>
    <g id="ytick_11">
     <g id="line2d_32">
      <path d="M 33.940625 365.775011 
L 703.540625 365.775011 
" clip-path="url(#p2e9b3f8883)" style="fill: none; stroke: #cccccc; stroke-width: 0.8; stroke-linecap: round"/>
     </g>
     <g id="text_29">
      <!-- −1 -->
      <g style="fill: #262626" transform="translate(15.539063 369.353917)scale(0.1 -0.1)">
       <use xlink:href="#ArialMT-2212"/>
       <use xlink:href="#ArialMT-31" x="58.398438"/>
      </g>
     </g>
    </g>
    <g id="ytick_12">
     <g id="line2d_33">
      <path d="M 33.940625 341.856141 
L 703.540625 341.856141 
" clip-path="url(#p2e9b3f8883)" style="fill: none; stroke: #cccccc; stroke-width: 0.8; stroke-linecap: round"/>
     </g>
     <g id="text_30">
      <!-- 0 -->
      <g style="fill: #262626" transform="translate(21.379688 345.435047)scale(0.1 -0.1)">
       <use xlink:href="#ArialMT-30"/>
      </g>
     </g>
    </g>
    <g id="ytick_13">
     <g id="line2d_34">
      <path d="M 33.940625 317.937271 
L 703.540625 317.937271 
" clip-path="url(#p2e9b3f8883)" style="fill: none; stroke: #cccccc; stroke-width: 0.8; stroke-linecap: round"/>
     </g>
     <g id="text_31">
      <!-- 1 -->
      <g style="fill: #262626" transform="translate(21.379688 321.516177)scale(0.1 -0.1)">
       <use xlink:href="#ArialMT-31"/>
      </g>
     </g>
    </g>
    <g id="ytick_14">
     <g id="line2d_35">
      <path d="M 33.940625 294.018401 
L 703.540625 294.018401 
" clip-path="url(#p2e9b3f8883)" style="fill: none; stroke: #cccccc; stroke-width: 0.8; stroke-linecap: round"/>
     </g>
     <g id="text_32">
      <!-- 2 -->
      <g style="fill: #262626" transform="translate(21.379688 297.597307)scale(0.1 -0.1)">
       <use xlink:href="#ArialMT-32"/>
      </g>
     </g>
    </g>
   </g>
   <g id="PolyCollection_3">
    <defs>
     <path id="m9de9555c73" d="M 64.376989 -239.803767 
L 64.376989 -231.807444 
L 74.902532 -216.567214 
L 85.778927 -233.861088 
L 96.655322 -284.026583 
L 106.830015 -305.294437 
L 117.70641 -285.07836 
L 128.231953 -267.360719 
L 139.108348 -259.671447 
L 149.633892 -258.565121 
L 160.510287 -267.77715 
L 171.386682 -266.846977 
L 181.912226 -250.668677 
L 192.788621 -231.807444 
L 203.314164 -216.567214 
L 214.19056 -233.861089 
L 225.066955 -284.026583 
L 234.890795 -305.294437 
L 245.76719 -285.07836 
L 256.292734 -267.360719 
L 267.169129 -259.671447 
L 277.694673 -258.565121 
L 288.571068 -267.777151 
L 299.447463 -266.846977 
L 309.973006 -250.668677 
L 320.849402 -231.807444 
L 331.374945 -216.567214 
L 342.25134 -233.861089 
L 353.127735 -284.026584 
L 362.951576 -305.294437 
L 373.827971 -285.07836 
L 384.353515 -267.360718 
L 395.22991 -259.671447 
L 405.755453 -258.565121 
L 416.631848 -267.777151 
L 427.508244 -266.846977 
L 438.033787 -250.668677 
L 448.910182 -231.807444 
L 459.435726 -216.567214 
L 470.312121 -233.861088 
L 481.188516 -284.026584 
L 491.012357 -305.294438 
L 501.888752 -285.07836 
L 512.414295 -267.360718 
L 523.29069 -259.671447 
L 533.816234 -258.565121 
L 544.692629 -267.777151 
L 555.569024 -266.846978 
L 566.094568 -250.668677 
L 576.970963 -231.807444 
L 587.496507 -216.567213 
L 598.372902 -233.861088 
L 609.249297 -284.026583 
L 619.423989 -305.294437 
L 630.300384 -285.07836 
L 640.825928 -267.360718 
L 651.702323 -259.671446 
L 662.227866 -258.56512 
L 673.104261 -267.77715 
L 673.104261 -275.663394 
L 673.104261 -275.663394 
L 662.227866 -266.525644 
L 651.702323 -267.660187 
L 640.825928 -275.357041 
L 630.300384 -293.0671 
L 619.423989 -313.25496 
L 609.249297 -291.912827 
L 598.372902 -241.821611 
L 587.496507 -224.555953 
L 576.970963 -239.803767 
L 566.094568 -258.657417 
L 555.569024 -274.8075 
L 544.692629 -275.663394 
L 533.816234 -266.525643 
L 523.29069 -267.660186 
L 512.414295 -275.357041 
L 501.888752 -293.067099 
L 491.012357 -313.25496 
L 481.188516 -291.912827 
L 470.312121 -241.821611 
L 459.435726 -224.555953 
L 448.910182 -239.803767 
L 438.033787 -258.657417 
L 427.508244 -274.8075 
L 416.631848 -275.663394 
L 405.755453 -266.525643 
L 395.22991 -267.660186 
L 384.353515 -275.357041 
L 373.827971 -293.067099 
L 362.951576 -313.25496 
L 353.127735 -291.912827 
L 342.25134 -241.821611 
L 331.374945 -224.555953 
L 320.849402 -239.803767 
L 309.973006 -258.657416 
L 299.447463 -274.8075 
L 288.571068 -275.663394 
L 277.694673 -266.525643 
L 267.169129 -267.660186 
L 256.292734 -275.357041 
L 245.76719 -293.067099 
L 234.890795 -313.25496 
L 225.066955 -291.912827 
L 214.19056 -241.821611 
L 203.314164 -224.555954 
L 192.788621 -239.803767 
L 181.912226 -258.657416 
L 171.386682 -274.807499 
L 160.510287 -275.663394 
L 149.633892 -266.525643 
L 139.108348 -267.660187 
L 128.231953 -275.357041 
L 117.70641 -293.0671 
L 106.830015 -313.25496 
L 96.655322 -291.912827 
L 85.778927 -241.821611 
L 74.902532 -224.555954 
L 64.376989 -239.803767 
z
" style="stroke: #ffffff; stroke-opacity: 0.2"/>
    </defs>
    <g clip-path="url(#p2e9b3f8883)">
     <use xlink:href="#m9de9555c73" x="0" y="606.465" style="fill: #4c72b0; fill-opacity: 0.2; stroke: #ffffff; stroke-opacity: 0.2"/>
    </g>
   </g>
   <g id="line2d_36">
    <path d="M 64.376989 370.659394 
L 74.902532 385.903416 
L 85.778927 368.62365 
L 96.655322 318.495295 
L 106.830015 297.190302 
L 117.70641 317.39227 
L 128.231953 335.10612 
L 139.108348 342.799183 
L 149.633892 343.919618 
L 160.510287 334.744728 
L 171.386682 335.637762 
L 181.912226 351.801953 
L 192.788621 370.659394 
L 203.314164 385.903416 
L 214.19056 368.62365 
L 225.066955 318.495295 
L 234.890795 297.190301 
L 245.76719 317.39227 
L 256.292734 335.10612 
L 267.169129 342.799183 
L 277.694673 343.919618 
L 288.571068 334.744728 
L 299.447463 335.637762 
L 309.973006 351.801953 
L 320.849402 370.659394 
L 331.374945 385.903416 
L 342.25134 368.62365 
L 353.127735 318.495295 
L 362.951576 297.190301 
L 373.827971 317.39227 
L 384.353515 335.10612 
L 395.22991 342.799183 
L 405.755453 343.919618 
L 416.631848 334.744728 
L 427.508244 335.637761 
L 438.033787 351.801953 
L 448.910182 370.659394 
L 459.435726 385.903416 
L 470.312121 368.62365 
L 481.188516 318.495295 
L 491.012357 297.190301 
L 501.888752 317.39227 
L 512.414295 335.10612 
L 523.29069 342.799183 
L 533.816234 343.919618 
L 544.692629 334.744728 
L 555.569024 335.637761 
L 566.094568 351.801953 
L 576.970963 370.659395 
L 587.496507 385.903417 
L 598.372902 368.62365 
L 609.249297 318.495295 
L 619.423989 297.190301 
L 630.300384 317.39227 
L 640.825928 335.10612 
L 651.702323 342.799183 
L 662.227866 343.919618 
L 673.104261 334.744728 
" clip-path="url(#p2e9b3f8883)" style="fill: none; stroke: #4c72b0; stroke-width: 1.5; stroke-linecap: round"/>
   </g>
   <g id="patch_15">
    <path d="M 33.940625 394.732174 
L 33.940625 288.375652 
" style="fill: none; stroke: #ffffff; stroke-width: 0.8; stroke-linejoin: miter; stroke-linecap: square"/>
   </g>
   <g id="patch_16">
    <path d="M 703.540625 394.732174 
L 703.540625 288.375652 
" style="fill: none; stroke: #ffffff; stroke-width: 0.8; stroke-linejoin: miter; stroke-linecap: square"/>
   </g>
   <g id="patch_17">
    <path d="M 33.940625 394.732174 
L 703.540625 394.732174 
" style="fill: none; stroke: #ffffff; stroke-width: 0.8; stroke-linejoin: miter; stroke-linecap: square"/>
   </g>
   <g id="patch_18">
    <path d="M 33.940625 288.375652 
L 703.540625 288.375652 
" style="fill: none; stroke: #ffffff; stroke-width: 0.8; stroke-linejoin: miter; stroke-linecap: square"/>
   </g>
   <g id="legend_3">
    <g id="patch_19">
     <path d="M 710.540625 350.246101 
L 862.0375 350.246101 
Q 864.0375 350.246101 864.0375 348.246101 
L 864.0375 334.861726 
Q 864.0375 332.861726 862.0375 332.861726 
L 710.540625 332.861726 
Q 708.540625 332.861726 708.540625 334.861726 
L 708.540625 348.246101 
Q 708.540625 350.246101 710.540625 350.246101 
z
" style="fill: #e6e6e6; opacity: 0.8; stroke: #cccccc; stroke-linejoin: miter"/>
    </g>
    <g id="line2d_37">
     <path d="M 712.540625 340.641413 
L 722.540625 340.641413 
L 732.540625 340.641413 
" style="fill: none; stroke: #4c72b0; stroke-width: 1.5; stroke-linecap: round"/>
    </g>
    <g id="text_33">
     <!-- seasonal 12(4) (smoothed) -->
     <g style="fill: #262626" transform="translate(740.540625 344.141413)scale(0.1 -0.1)">
      <defs>
       <path id="ArialMT-34" d="M 2069 0 
L 2069 1097 
L 81 1097 
L 81 1613 
L 2172 4581 
L 2631 4581 
L 2631 1613 
L 3250 1613 
L 3250 1097 
L 2631 1097 
L 2631 0 
L 2069 0 
z
M 2069 1613 
L 2069 3678 
L 634 1613 
L 2069 1613 
z
" transform="scale(0.015625)"/>
      </defs>
      <use xlink:href="#ArialMT-73"/>
      <use xlink:href="#ArialMT-65" x="50"/>
      <use xlink:href="#ArialMT-61" x="105.615234"/>
      <use xlink:href="#ArialMT-73" x="161.230469"/>
      <use xlink:href="#ArialMT-6f" x="211.230469"/>
      <use xlink:href="#ArialMT-6e" x="266.845703"/>
      <use xlink:href="#ArialMT-61" x="322.460938"/>
      <use xlink:href="#ArialMT-6c" x="378.076172"/>
      <use xlink:href="#ArialMT-20" x="400.292969"/>
      <use xlink:href="#ArialMT-31" x="428.076172"/>
      <use xlink:href="#ArialMT-32" x="483.691406"/>
      <use xlink:href="#ArialMT-28" x="539.306641"/>
      <use xlink:href="#ArialMT-34" x="572.607422"/>
      <use xlink:href="#ArialMT-29" x="628.222656"/>
      <use xlink:href="#ArialMT-20" x="661.523438"/>
      <use xlink:href="#ArialMT-28" x="689.306641"/>
      <use xlink:href="#ArialMT-73" x="722.607422"/>
      <use xlink:href="#ArialMT-6d" x="772.607422"/>
      <use xlink:href="#ArialMT-6f" x="855.908203"/>
      <use xlink:href="#ArialMT-6f" x="911.523438"/>
      <use xlink:href="#ArialMT-74" x="967.138672"/>
      <use xlink:href="#ArialMT-68" x="994.921875"/>
      <use xlink:href="#ArialMT-65" x="1050.537109"/>
      <use xlink:href="#ArialMT-64" x="1106.152344"/>
      <use xlink:href="#ArialMT-29" x="1161.767578"/>
     </g>
    </g>
   </g>
  </g>
  <g id="axes_4">
   <g id="patch_20">
    <path d="M 33.940625 522.36 
L 703.540625 522.36 
L 703.540625 416.003478 
L 33.940625 416.003478 
z
" style="fill: #e6e6e6"/>
   </g>
   <g id="matplotlib.axis_7">
    <g id="xtick_16">
     <g id="line2d_38">
      <path d="M 86.129779 522.36 
L 86.129779 416.003478 
" clip-path="url(#pade49d1ad1)" style="fill: none; stroke: #cccccc; stroke-width: 0.8; stroke-linecap: round"/>
     </g>
     <g id="text_34">
      <!-- 2016 -->
      <g style="fill: #262626" transform="translate(75.007904 536.517813)scale(0.1 -0.1)">
       <use xlink:href="#ArialMT-32"/>
       <use xlink:href="#ArialMT-30" x="55.615234"/>
       <use xlink:href="#ArialMT-31" x="111.230469"/>
       <use xlink:href="#ArialMT-36" x="166.845703"/>
      </g>
     </g>
    </g>
    <g id="xtick_17">
     <g id="line2d_39">
      <path d="M 214.541411 522.36 
L 214.541411 416.003478 
" clip-path="url(#pade49d1ad1)" style="fill: none; stroke: #cccccc; stroke-width: 0.8; stroke-linecap: round"/>
     </g>
     <g id="text_35">
      <!-- 2017 -->
      <g style="fill: #262626" transform="translate(203.419536 536.517813)scale(0.1 -0.1)">
       <use xlink:href="#ArialMT-32"/>
       <use xlink:href="#ArialMT-30" x="55.615234"/>
       <use xlink:href="#ArialMT-31" x="111.230469"/>
       <use xlink:href="#ArialMT-37" x="166.845703"/>
      </g>
     </g>
    </g>
    <g id="xtick_18">
     <g id="line2d_40">
      <path d="M 342.602192 522.36 
L 342.602192 416.003478 
" clip-path="url(#pade49d1ad1)" style="fill: none; stroke: #cccccc; stroke-width: 0.8; stroke-linecap: round"/>
     </g>
     <g id="text_36">
      <!-- 2018 -->
      <g style="fill: #262626" transform="translate(331.480317 536.517813)scale(0.1 -0.1)">
       <use xlink:href="#ArialMT-32"/>
       <use xlink:href="#ArialMT-30" x="55.615234"/>
       <use xlink:href="#ArialMT-31" x="111.230469"/>
       <use xlink:href="#ArialMT-38" x="166.845703"/>
      </g>
     </g>
    </g>
    <g id="xtick_19">
     <g id="line2d_41">
      <path d="M 470.662972 522.36 
L 470.662972 416.003478 
" clip-path="url(#pade49d1ad1)" style="fill: none; stroke: #cccccc; stroke-width: 0.8; stroke-linecap: round"/>
     </g>
     <g id="text_37">
      <!-- 2019 -->
      <g style="fill: #262626" transform="translate(459.541097 536.517813)scale(0.1 -0.1)">
       <use xlink:href="#ArialMT-32"/>
       <use xlink:href="#ArialMT-30" x="55.615234"/>
       <use xlink:href="#ArialMT-31" x="111.230469"/>
       <use xlink:href="#ArialMT-39" x="166.845703"/>
      </g>
     </g>
    </g>
    <g id="xtick_20">
     <g id="line2d_42">
      <path d="M 598.723753 522.36 
L 598.723753 416.003478 
" clip-path="url(#pade49d1ad1)" style="fill: none; stroke: #cccccc; stroke-width: 0.8; stroke-linecap: round"/>
     </g>
     <g id="text_38">
      <!-- 2020 -->
      <g style="fill: #262626" transform="translate(587.601878 536.517813)scale(0.1 -0.1)">
       <use xlink:href="#ArialMT-32"/>
       <use xlink:href="#ArialMT-30" x="55.615234"/>
       <use xlink:href="#ArialMT-32" x="111.230469"/>
       <use xlink:href="#ArialMT-30" x="166.845703"/>
      </g>
     </g>
    </g>
   </g>
   <g id="matplotlib.axis_8">
    <g id="ytick_15">
     <g id="line2d_43">
      <path d="M 33.940625 513.688324 
L 703.540625 513.688324 
" clip-path="url(#pade49d1ad1)" style="fill: none; stroke: #cccccc; stroke-width: 0.8; stroke-linecap: round"/>
     </g>
     <g id="text_39">
      <!-- −0.5 -->
      <g style="fill: #262626" transform="translate(7.2 517.26723)scale(0.1 -0.1)">
       <use xlink:href="#ArialMT-2212"/>
       <use xlink:href="#ArialMT-30" x="58.398438"/>
       <use xlink:href="#ArialMT-2e" x="114.013672"/>
       <use xlink:href="#ArialMT-35" x="141.796875"/>
      </g>
     </g>
    </g>
    <g id="ytick_16">
     <g id="line2d_44">
      <path d="M 33.940625 478.394814 
L 703.540625 478.394814 
" clip-path="url(#pade49d1ad1)" style="fill: none; stroke: #cccccc; stroke-width: 0.8; stroke-linecap: round"/>
     </g>
     <g id="text_40">
      <!-- 0.0 -->
      <g style="fill: #262626" transform="translate(13.040625 481.973721)scale(0.1 -0.1)">
       <use xlink:href="#ArialMT-30"/>
       <use xlink:href="#ArialMT-2e" x="55.615234"/>
       <use xlink:href="#ArialMT-30" x="83.398438"/>
      </g>
     </g>
    </g>
    <g id="ytick_17">
     <g id="line2d_45">
      <path d="M 33.940625 443.101305 
L 703.540625 443.101305 
" clip-path="url(#pade49d1ad1)" style="fill: none; stroke: #cccccc; stroke-width: 0.8; stroke-linecap: round"/>
     </g>
     <g id="text_41">
      <!-- 0.5 -->
      <g style="fill: #262626" transform="translate(13.040625 446.680211)scale(0.1 -0.1)">
       <use xlink:href="#ArialMT-30"/>
       <use xlink:href="#ArialMT-2e" x="55.615234"/>
       <use xlink:href="#ArialMT-35" x="83.398438"/>
      </g>
     </g>
    </g>
   </g>
   <g id="PolyCollection_4">
    <defs>
     <path id="m761468fa22" d="M 64.376989 -152.622112 
L 64.376989 -118.577213 
L 74.902532 -135.527137 
L 85.778927 -104.953631 
L 96.655322 -113.132133 
L 106.830015 -119.793329 
L 117.70641 -124.087401 
L 128.231953 -131.544857 
L 139.108348 -133.587595 
L 149.633892 -106.791635 
L 160.510287 -98.365415 
L 171.386682 -91.022391 
L 181.912226 -110.05496 
L 192.788621 -102.022532 
L 203.314164 -116.810887 
L 214.19056 -105.272806 
L 225.066955 -129.356286 
L 234.890795 -112.007068 
L 245.76719 -112.474249 
L 256.292734 -98.684689 
L 267.169129 -107.479665 
L 277.694673 -125.291788 
L 288.571068 -128.823913 
L 299.447463 -97.380039 
L 309.973006 -96.918754 
L 320.849402 -95.135842 
L 331.374945 -123.25917 
L 342.25134 -121.435029 
L 353.127735 -127.427947 
L 362.951576 -91.688154 
L 373.827971 -110.260052 
L 384.353515 -123.551059 
L 395.22991 -106.886366 
L 405.755453 -115.262191 
L 416.631848 -110.564932 
L 427.508244 -111.41819 
L 438.033787 -116.139189 
L 448.910182 -117.960683 
L 459.435726 -130.276313 
L 470.312121 -91.638274 
L 481.188516 -133.600837 
L 491.012357 -125.169416 
L 501.888752 -96.507085 
L 512.414295 -98.728902 
L 523.29069 -101.171078 
L 533.816234 -106.085432 
L 544.692629 -118.560445 
L 555.569024 -152.260439 
L 566.094568 -129.565349 
L 576.970963 -90.64948 
L 587.496507 -97.046045 
L 598.372902 -88.939387 
L 609.249297 -122.243369 
L 619.423989 -103.371733 
L 630.300384 -135.493858 
L 640.825928 -105.723832 
L 651.702323 -106.735715 
L 662.227866 -121.902221 
L 673.104261 -101.738343 
L 673.104261 -138.778876 
L 673.104261 -138.778876 
L 662.227866 -157.355764 
L 651.702323 -141.703794 
L 640.825928 -139.941566 
L 630.300384 -169.3059 
L 619.423989 -137.063662 
L 609.249297 -155.610789 
L 598.372902 -122.976574 
L 587.496507 -131.216799 
L 576.970963 -124.694379 
L 566.094568 -163.574886 
L 555.569024 -185.627134 
L 544.692629 -150.704527 
L 533.816234 -138.19957 
L 523.29069 -133.261601 
L 512.414295 -130.853874 
L 501.888752 -128.634638 
L 491.012357 -157.46851 
L 481.188516 -165.898432 
L 470.312121 -124.69907 
L 459.435726 -163.615726 
L 448.910182 -151.316509 
L 438.033787 -149.486813 
L 427.508244 -144.445815 
L 416.631848 -142.791347 
L 405.755453 -147.490604 
L 395.22991 -138.993335 
L 384.353515 -155.692847 
L 373.827971 -142.376382 
L 362.951576 -123.950201 
L 353.127735 -159.689732 
L 342.25134 -154.444362 
L 331.374945 -156.549075 
L 320.849402 -128.443653 
L 309.973006 -130.208658 
L 299.447463 -130.389372 
L 288.571068 -161.085698 
L 277.694673 -157.553835 
L 267.169129 -139.595995 
L 256.292734 -130.826477 
L 245.76719 -144.581219 
L 234.890795 -144.235481 
L 225.066955 -161.582702 
L 214.19056 -138.30043 
L 203.314164 -150.158511 
L 192.788621 -135.378357 
L 181.912226 -143.394373 
L 171.386682 -124.083187 
L 160.510287 -130.66301 
L 149.633892 -139.090729 
L 139.108348 -165.715147 
L 128.231953 -163.669829 
L 117.70641 -156.177924 
L 106.830015 -151.907466 
L 96.655322 -145.276215 
L 85.778927 -138.320326 
L 74.902532 -169.536674 
L 64.376989 -152.622112 
z
" style="stroke: #ffffff; stroke-opacity: 0.2"/>
    </defs>
    <g clip-path="url(#pade49d1ad1)">
     <use xlink:href="#m761468fa22" x="0" y="606.465" style="fill: #4c72b0; fill-opacity: 0.2; stroke: #ffffff; stroke-opacity: 0.2"/>
    </g>
   </g>
   <g id="line2d_46">
    <path d="M 64.376989 470.865337 
L 74.902532 453.933094 
L 85.778927 484.828022 
L 96.655322 477.260826 
L 106.830015 470.614602 
L 117.70641 466.332338 
L 128.231953 458.857657 
L 139.108348 456.813629 
L 149.633892 483.523818 
L 160.510287 491.950788 
L 171.386682 498.912211 
L 181.912226 479.740334 
L 192.788621 487.764555 
L 203.314164 472.980301 
L 214.19056 484.678382 
L 225.066955 460.995506 
L 234.890795 478.343726 
L 245.76719 477.937266 
L 256.292734 491.709417 
L 267.169129 482.92717 
L 277.694673 465.042188 
L 288.571068 461.510195 
L 299.447463 492.580294 
L 309.973006 492.901294 
L 320.849402 494.675252 
L 331.374945 466.560878 
L 342.25134 468.525304 
L 353.127735 462.906161 
L 362.951576 498.645822 
L 373.827971 480.146783 
L 384.353515 466.843047 
L 395.22991 483.525149 
L 405.755453 475.088602 
L 416.631848 479.786861 
L 427.508244 478.532997 
L 438.033787 473.651999 
L 448.910182 471.826404 
L 459.435726 459.518981 
L 470.312121 498.296328 
L 481.188516 456.715366 
L 491.012357 465.146037 
L 501.888752 493.894138 
L 512.414295 491.673612 
L 523.29069 489.24866 
L 533.816234 484.322499 
L 544.692629 471.832514 
L 555.569024 437.521213 
L 566.094568 459.894883 
L 576.970963 498.793071 
L 587.496507 492.333578 
L 598.372902 500.507019 
L 609.249297 467.537921 
L 619.423989 486.247303 
L 630.300384 454.065121 
L 640.825928 483.632301 
L 651.702323 482.245246 
L 662.227866 466.836008 
L 673.104261 486.206391 
" clip-path="url(#pade49d1ad1)" style="fill: none; stroke: #4c72b0; stroke-width: 1.5; stroke-linecap: round"/>
   </g>
   <g id="patch_21">
    <path d="M 33.940625 522.36 
L 33.940625 416.003478 
" style="fill: none; stroke: #ffffff; stroke-width: 0.8; stroke-linejoin: miter; stroke-linecap: square"/>
   </g>
   <g id="patch_22">
    <path d="M 703.540625 522.36 
L 703.540625 416.003478 
" style="fill: none; stroke: #ffffff; stroke-width: 0.8; stroke-linejoin: miter; stroke-linecap: square"/>
   </g>
   <g id="patch_23">
    <path d="M 33.940625 522.36 
L 703.540625 522.36 
" style="fill: none; stroke: #ffffff; stroke-width: 0.8; stroke-linejoin: miter; stroke-linecap: square"/>
   </g>
   <g id="patch_24">
    <path d="M 33.940625 416.003478 
L 703.540625 416.003478 
" style="fill: none; stroke: #ffffff; stroke-width: 0.8; stroke-linejoin: miter; stroke-linecap: square"/>
   </g>
   <g id="legend_4">
    <g id="patch_25">
     <path d="M 710.540625 477.873927 
L 862.585938 477.873927 
Q 864.585938 477.873927 864.585938 475.873927 
L 864.585938 462.489552 
Q 864.585938 460.489552 862.585938 460.489552 
L 710.540625 460.489552 
Q 708.540625 460.489552 708.540625 462.489552 
L 708.540625 475.873927 
Q 708.540625 477.873927 710.540625 477.873927 
z
" style="fill: #e6e6e6; opacity: 0.8; stroke: #cccccc; stroke-linejoin: miter"/>
    </g>
    <g id="line2d_47">
     <path d="M 712.540625 468.269239 
L 722.540625 468.269239 
L 732.540625 468.269239 
" style="fill: none; stroke: #4c72b0; stroke-width: 1.5; stroke-linecap: round"/>
    </g>
    <g id="text_42">
     <!-- Autoregressive (smoothed) -->
     <g style="fill: #262626" transform="translate(740.540625 471.769239)scale(0.1 -0.1)">
      <defs>
       <path id="ArialMT-41" d="M -9 0 
L 1750 4581 
L 2403 4581 
L 4278 0 
L 3588 0 
L 3053 1388 
L 1138 1388 
L 634 0 
L -9 0 
z
M 1313 1881 
L 2866 1881 
L 2388 3150 
Q 2169 3728 2063 4100 
Q 1975 3659 1816 3225 
L 1313 1881 
z
" transform="scale(0.015625)"/>
       <path id="ArialMT-75" d="M 2597 0 
L 2597 488 
Q 2209 -75 1544 -75 
Q 1250 -75 995 37 
Q 741 150 617 320 
Q 494 491 444 738 
Q 409 903 409 1263 
L 409 3319 
L 972 3319 
L 972 1478 
Q 972 1038 1006 884 
Q 1059 663 1231 536 
Q 1403 409 1656 409 
Q 1909 409 2131 539 
Q 2353 669 2445 892 
Q 2538 1116 2538 1541 
L 2538 3319 
L 3100 3319 
L 3100 0 
L 2597 0 
z
" transform="scale(0.015625)"/>
       <path id="ArialMT-67" d="M 319 -275 
L 866 -356 
Q 900 -609 1056 -725 
Q 1266 -881 1628 -881 
Q 2019 -881 2231 -725 
Q 2444 -569 2519 -288 
Q 2563 -116 2559 434 
Q 2191 0 1641 0 
Q 956 0 581 494 
Q 206 988 206 1678 
Q 206 2153 378 2554 
Q 550 2956 876 3175 
Q 1203 3394 1644 3394 
Q 2231 3394 2613 2919 
L 2613 3319 
L 3131 3319 
L 3131 450 
Q 3131 -325 2973 -648 
Q 2816 -972 2473 -1159 
Q 2131 -1347 1631 -1347 
Q 1038 -1347 672 -1080 
Q 306 -813 319 -275 
z
M 784 1719 
Q 784 1066 1043 766 
Q 1303 466 1694 466 
Q 2081 466 2343 764 
Q 2606 1063 2606 1700 
Q 2606 2309 2336 2618 
Q 2066 2928 1684 2928 
Q 1309 2928 1046 2623 
Q 784 2319 784 1719 
z
" transform="scale(0.015625)"/>
      </defs>
      <use xlink:href="#ArialMT-41"/>
      <use xlink:href="#ArialMT-75" x="66.699219"/>
      <use xlink:href="#ArialMT-74" x="122.314453"/>
      <use xlink:href="#ArialMT-6f" x="150.097656"/>
      <use xlink:href="#ArialMT-72" x="205.712891"/>
      <use xlink:href="#ArialMT-65" x="239.013672"/>
      <use xlink:href="#ArialMT-67" x="294.628906"/>
      <use xlink:href="#ArialMT-72" x="350.244141"/>
      <use xlink:href="#ArialMT-65" x="383.544922"/>
      <use xlink:href="#ArialMT-73" x="439.160156"/>
      <use xlink:href="#ArialMT-73" x="489.160156"/>
      <use xlink:href="#ArialMT-69" x="539.160156"/>
      <use xlink:href="#ArialMT-76" x="561.376953"/>
      <use xlink:href="#ArialMT-65" x="611.376953"/>
      <use xlink:href="#ArialMT-20" x="666.992188"/>
      <use xlink:href="#ArialMT-28" x="694.775391"/>
      <use xlink:href="#ArialMT-73" x="728.076172"/>
      <use xlink:href="#ArialMT-6d" x="778.076172"/>
      <use xlink:href="#ArialMT-6f" x="861.376953"/>
      <use xlink:href="#ArialMT-6f" x="916.992188"/>
      <use xlink:href="#ArialMT-74" x="972.607422"/>
      <use xlink:href="#ArialMT-68" x="1000.390625"/>
      <use xlink:href="#ArialMT-65" x="1056.005859"/>
      <use xlink:href="#ArialMT-64" x="1111.621094"/>
      <use xlink:href="#ArialMT-29" x="1167.236328"/>
     </g>
    </g>
   </g>
  </g>
  <g id="text_43">
   <!-- Note: The first 9 observations are not shown, due to approximate diffuse initialization. -->
   <g style="fill: #262626" transform="translate(12.340625 596.88)scale(0.12 -0.12)">
    <defs>
     <path id="ArialMT-4e" d="M 488 0 
L 488 4581 
L 1109 4581 
L 3516 984 
L 3516 4581 
L 4097 4581 
L 4097 0 
L 3475 0 
L 1069 3600 
L 1069 0 
L 488 0 
z
" transform="scale(0.015625)"/>
     <path id="ArialMT-3a" d="M 578 2678 
L 578 3319 
L 1219 3319 
L 1219 2678 
L 578 2678 
z
M 578 0 
L 578 641 
L 1219 641 
L 1219 0 
L 578 0 
z
" transform="scale(0.015625)"/>
     <path id="ArialMT-54" d="M 1659 0 
L 1659 4041 
L 150 4041 
L 150 4581 
L 3781 4581 
L 3781 4041 
L 2266 4041 
L 2266 0 
L 1659 0 
z
" transform="scale(0.015625)"/>
     <path id="ArialMT-66" d="M 556 0 
L 556 2881 
L 59 2881 
L 59 3319 
L 556 3319 
L 556 3672 
Q 556 4006 616 4169 
Q 697 4388 901 4523 
Q 1106 4659 1475 4659 
Q 1713 4659 2000 4603 
L 1916 4113 
Q 1741 4144 1584 4144 
Q 1328 4144 1222 4034 
Q 1116 3925 1116 3625 
L 1116 3319 
L 1763 3319 
L 1763 2881 
L 1116 2881 
L 1116 0 
L 556 0 
z
" transform="scale(0.015625)"/>
     <path id="ArialMT-77" d="M 1034 0 
L 19 3319 
L 600 3319 
L 1128 1403 
L 1325 691 
Q 1338 744 1497 1375 
L 2025 3319 
L 2603 3319 
L 3100 1394 
L 3266 759 
L 3456 1400 
L 4025 3319 
L 4572 3319 
L 3534 0 
L 2950 0 
L 2422 1988 
L 2294 2553 
L 1622 0 
L 1034 0 
z
" transform="scale(0.015625)"/>
     <path id="ArialMT-2c" d="M 569 0 
L 569 641 
L 1209 641 
L 1209 0 
Q 1209 -353 1084 -570 
Q 959 -788 688 -906 
L 531 -666 
Q 709 -588 793 -436 
Q 878 -284 888 0 
L 569 0 
z
" transform="scale(0.015625)"/>
     <path id="ArialMT-78" d="M 47 0 
L 1259 1725 
L 138 3319 
L 841 3319 
L 1350 2541 
Q 1494 2319 1581 2169 
Q 1719 2375 1834 2534 
L 2394 3319 
L 3066 3319 
L 1919 1756 
L 3153 0 
L 2463 0 
L 1781 1031 
L 1600 1309 
L 728 0 
L 47 0 
z
" transform="scale(0.015625)"/>
     <path id="ArialMT-7a" d="M 125 0 
L 125 456 
L 2238 2881 
Q 1878 2863 1603 2863 
L 250 2863 
L 250 3319 
L 2963 3319 
L 2963 2947 
L 1166 841 
L 819 456 
Q 1197 484 1528 484 
L 3063 484 
L 3063 0 
L 125 0 
z
" transform="scale(0.015625)"/>
    </defs>
    <use xlink:href="#ArialMT-4e"/>
    <use xlink:href="#ArialMT-6f" x="72.216797"/>
    <use xlink:href="#ArialMT-74" x="127.832031"/>
    <use xlink:href="#ArialMT-65" x="155.615234"/>
    <use xlink:href="#ArialMT-3a" x="211.230469"/>
    <use xlink:href="#ArialMT-20" x="239.013672"/>
    <use xlink:href="#ArialMT-54" x="265.046875"/>
    <use xlink:href="#ArialMT-68" x="326.130859"/>
    <use xlink:href="#ArialMT-65" x="381.746094"/>
    <use xlink:href="#ArialMT-20" x="437.361328"/>
    <use xlink:href="#ArialMT-66" x="465.144531"/>
    <use xlink:href="#ArialMT-69" x="492.927734"/>
    <use xlink:href="#ArialMT-72" x="515.144531"/>
    <use xlink:href="#ArialMT-73" x="548.445312"/>
    <use xlink:href="#ArialMT-74" x="598.445312"/>
    <use xlink:href="#ArialMT-20" x="626.228516"/>
    <use xlink:href="#ArialMT-39" x="654.011719"/>
    <use xlink:href="#ArialMT-20" x="709.626953"/>
    <use xlink:href="#ArialMT-6f" x="737.410156"/>
    <use xlink:href="#ArialMT-62" x="793.025391"/>
    <use xlink:href="#ArialMT-73" x="848.640625"/>
    <use xlink:href="#ArialMT-65" x="898.640625"/>
    <use xlink:href="#ArialMT-72" x="954.255859"/>
    <use xlink:href="#ArialMT-76" x="987.556641"/>
    <use xlink:href="#ArialMT-61" x="1037.556641"/>
    <use xlink:href="#ArialMT-74" x="1093.171875"/>
    <use xlink:href="#ArialMT-69" x="1120.955078"/>
    <use xlink:href="#ArialMT-6f" x="1143.171875"/>
    <use xlink:href="#ArialMT-6e" x="1198.787109"/>
    <use xlink:href="#ArialMT-73" x="1254.402344"/>
    <use xlink:href="#ArialMT-20" x="1304.402344"/>
    <use xlink:href="#ArialMT-61" x="1332.185547"/>
    <use xlink:href="#ArialMT-72" x="1387.800781"/>
    <use xlink:href="#ArialMT-65" x="1421.101562"/>
    <use xlink:href="#ArialMT-20" x="1476.716797"/>
    <use xlink:href="#ArialMT-6e" x="1504.5"/>
    <use xlink:href="#ArialMT-6f" x="1560.115234"/>
    <use xlink:href="#ArialMT-74" x="1615.730469"/>
    <use xlink:href="#ArialMT-20" x="1643.513672"/>
    <use xlink:href="#ArialMT-73" x="1671.296875"/>
    <use xlink:href="#ArialMT-68" x="1721.296875"/>
    <use xlink:href="#ArialMT-6f" x="1776.912109"/>
    <use xlink:href="#ArialMT-77" x="1832.527344"/>
    <use xlink:href="#ArialMT-6e" x="1904.744141"/>
    <use xlink:href="#ArialMT-2c" x="1960.359375"/>
    <use xlink:href="#ArialMT-20" x="1988.142578"/>
    <use xlink:href="#ArialMT-64" x="2015.925781"/>
    <use xlink:href="#ArialMT-75" x="2071.541016"/>
    <use xlink:href="#ArialMT-65" x="2127.15625"/>
    <use xlink:href="#ArialMT-20" x="2182.771484"/>
    <use xlink:href="#ArialMT-74" x="2210.554688"/>
    <use xlink:href="#ArialMT-6f" x="2238.337891"/>
    <use xlink:href="#ArialMT-20" x="2293.953125"/>
    <use xlink:href="#ArialMT-61" x="2321.736328"/>
    <use xlink:href="#ArialMT-70" x="2377.351562"/>
    <use xlink:href="#ArialMT-70" x="2432.966797"/>
    <use xlink:href="#ArialMT-72" x="2488.582031"/>
    <use xlink:href="#ArialMT-6f" x="2521.882812"/>
    <use xlink:href="#ArialMT-78" x="2577.498047"/>
    <use xlink:href="#ArialMT-69" x="2627.498047"/>
    <use xlink:href="#ArialMT-6d" x="2649.714844"/>
    <use xlink:href="#ArialMT-61" x="2733.015625"/>
    <use xlink:href="#ArialMT-74" x="2788.630859"/>
    <use xlink:href="#ArialMT-65" x="2816.414062"/>
    <use xlink:href="#ArialMT-20" x="2872.029297"/>
    <use xlink:href="#ArialMT-64" x="2899.8125"/>
    <use xlink:href="#ArialMT-69" x="2955.427734"/>
    <use xlink:href="#ArialMT-66" x="2977.644531"/>
    <use xlink:href="#ArialMT-66" x="3003.677734"/>
    <use xlink:href="#ArialMT-75" x="3031.460938"/>
    <use xlink:href="#ArialMT-73" x="3087.076172"/>
    <use xlink:href="#ArialMT-65" x="3137.076172"/>
    <use xlink:href="#ArialMT-20" x="3192.691406"/>
    <use xlink:href="#ArialMT-69" x="3220.474609"/>
    <use xlink:href="#ArialMT-6e" x="3242.691406"/>
    <use xlink:href="#ArialMT-69" x="3298.306641"/>
    <use xlink:href="#ArialMT-74" x="3320.523438"/>
    <use xlink:href="#ArialMT-69" x="3348.306641"/>
    <use xlink:href="#ArialMT-61" x="3370.523438"/>
    <use xlink:href="#ArialMT-6c" x="3426.138672"/>
    <use xlink:href="#ArialMT-69" x="3448.355469"/>
    <use xlink:href="#ArialMT-7a" x="3470.572266"/>
    <use xlink:href="#ArialMT-61" x="3520.572266"/>
    <use xlink:href="#ArialMT-74" x="3576.1875"/>
    <use xlink:href="#ArialMT-69" x="3603.970703"/>
    <use xlink:href="#ArialMT-6f" x="3626.1875"/>
    <use xlink:href="#ArialMT-6e" x="3681.802734"/>
    <use xlink:href="#ArialMT-2e" x="3737.417969"/>
   </g>
  </g>
  <g id="text_44">
   <!-- Model Components -->
   <g style="fill: #262626" transform="translate(305.915938 15.935625)scale(0.12 -0.12)">
    <defs>
     <path id="ArialMT-4d" d="M 475 0 
L 475 4581 
L 1388 4581 
L 2472 1338 
Q 2622 884 2691 659 
Q 2769 909 2934 1394 
L 4031 4581 
L 4847 4581 
L 4847 0 
L 4263 0 
L 4263 3834 
L 2931 0 
L 2384 0 
L 1059 3900 
L 1059 0 
L 475 0 
z
" transform="scale(0.015625)"/>
     <path id="ArialMT-43" d="M 3763 1606 
L 4369 1453 
Q 4178 706 3683 314 
Q 3188 -78 2472 -78 
Q 1731 -78 1267 223 
Q 803 525 561 1097 
Q 319 1669 319 2325 
Q 319 3041 592 3573 
Q 866 4106 1370 4382 
Q 1875 4659 2481 4659 
Q 3169 4659 3637 4309 
Q 4106 3959 4291 3325 
L 3694 3184 
Q 3534 3684 3231 3912 
Q 2928 4141 2469 4141 
Q 1941 4141 1586 3887 
Q 1231 3634 1087 3207 
Q 944 2781 944 2328 
Q 944 1744 1114 1308 
Q 1284 872 1643 656 
Q 2003 441 2422 441 
Q 2931 441 3284 734 
Q 3638 1028 3763 1606 
z
" transform="scale(0.015625)"/>
    </defs>
    <use xlink:href="#ArialMT-4d"/>
    <use xlink:href="#ArialMT-6f" x="83.300781"/>
    <use xlink:href="#ArialMT-64" x="138.916016"/>
    <use xlink:href="#ArialMT-65" x="194.53125"/>
    <use xlink:href="#ArialMT-6c" x="250.146484"/>
    <use xlink:href="#ArialMT-20" x="272.363281"/>
    <use xlink:href="#ArialMT-43" x="300.146484"/>
    <use xlink:href="#ArialMT-6f" x="372.363281"/>
    <use xlink:href="#ArialMT-6d" x="427.978516"/>
    <use xlink:href="#ArialMT-70" x="511.279297"/>
    <use xlink:href="#ArialMT-6f" x="566.894531"/>
    <use xlink:href="#ArialMT-6e" x="622.509766"/>
    <use xlink:href="#ArialMT-65" x="678.125"/>
    <use xlink:href="#ArialMT-6e" x="733.740234"/>
    <use xlink:href="#ArialMT-74" x="789.355469"/>
    <use xlink:href="#ArialMT-73" x="817.138672"/>
   </g>
  </g>
 </g>
 <defs>
  <clipPath id="pe8db0518cf">
   <rect x="33.940625" y="33.12" width="669.6" height="106.356522"/>
  </clipPath>
  <clipPath id="pf050762b77">
   <rect x="33.940625" y="160.747826" width="669.6" height="106.356522"/>
  </clipPath>
  <clipPath id="p2e9b3f8883">
   <rect x="33.940625" y="288.375652" width="669.6" height="106.356522"/>
  </clipPath>
  <clipPath id="pade49d1ad1">
   <rect x="33.940625" y="416.003478" width="669.6" height="106.356522"/>
  </clipPath>
 </defs>
</svg>
